<?xml version="1.0" encoding="UTF-8" standalone="no"?>
<!DOCTYPE svg PUBLIC "-//W3C//DTD SVG 20010904//EN"
"http://www.w3.org/TR/2001/REC-SVG-20010904/DTD/svg10.dtd">
<!-- Created with Inkscape (http://www.inkscape.org/) -->
<svg
   width="64pt"
   height="64pt"
   id="svg7077"
   sodipodi:version="0.32"
   inkscape:version="0.40"
   sodipodi:docbase="/home/nuno/kdeplayground-artwork/oooicons/crystalsvg"
   sodipodi:docname="eraseredbuble.svg"
   inkscape:export-filename="/home/nuno/kdeplayground-artwork/oooicons/crystalsvg/eraseredbuble.png"
   inkscape:export-xdpi="36.000000"
   inkscape:export-ydpi="36.000000"
   xmlns="http://www.w3.org/2000/svg"
   xmlns:cc="http://web.resource.org/cc/"
   xmlns:inkscape="http://www.inkscape.org/namespaces/inkscape"
   xmlns:sodipodi="http://sodipodi.sourceforge.net/DTD/sodipodi-0.dtd"
   xmlns:rdf="http://www.w3.org/1999/02/22-rdf-syntax-ns#"
   xmlns:dc="http://purl.org/dc/elements/1.1/"
   xmlns:xlink="http://www.w3.org/1999/xlink">
  <defs
     id="defs3">
    <radialGradient
       inkscape:collect="always"
       xlink:href="#light90to0"
       id="radialGradient2386"
       gradientUnits="userSpaceOnUse"
       gradientTransform="matrix(0.184210,0.000000,0.000000,7.817184e-2,66.02301,330.3594)"
       cx="123.88702"
       cy="391.47498"
       fx="124.57159"
       fy="391.47498"
       r="166.47372" />
    <linearGradient
       id="light90to0">
      <stop
         style="stop-color:#ffffff;stop-opacity:0.90196079;"
         offset="0.0000000"
         id="stop1890" />
      <stop
         style="stop-color:#ffffff;stop-opacity:0.0000000;"
         offset="1.0000000"
         id="stop1892" />
    </linearGradient>
    <linearGradient
       inkscape:collect="always"
       xlink:href="#light90to0"
       id="linearGradient2385"
       gradientUnits="userSpaceOnUse"
       x1="183.38441"
       y1="18.164442"
       x2="183.38441"
       y2="346.10425" />
    <linearGradient
       id="reddarktoblack">
      <stop
         style="stop-color:#8e0000;stop-opacity:1.0000000;"
         offset="0.0000000"
         id="stop3230" />
      <stop
         style="stop-color:#000000;stop-opacity:1.0000000;"
         offset="1.0000000"
         id="stop3231" />
    </linearGradient>
    <linearGradient
       inkscape:collect="always"
       xlink:href="#reddarktoblack"
       id="linearGradient2384"
       gradientUnits="userSpaceOnUse"
       gradientTransform="scale(1.000041,0.999959)"
       x1="-27.252979"
       y1="440.88812"
       x2="340.91357"
       y2="810.38373" />
    <linearGradient
       id="redtodarkred">
      <stop
         style="stop-color:#ff0000;stop-opacity:1.0000000;"
         offset="0.0000000"
         id="stop3856" />
      <stop
         style="stop-color:#920000;stop-opacity:1.0000000;"
         offset="1.0000000"
         id="stop3855" />
    </linearGradient>
    <radialGradient
       inkscape:collect="always"
       xlink:href="#redtodarkred"
       id="radialGradient2383"
       gradientUnits="userSpaceOnUse"
       gradientTransform="scale(1.000041,0.999959)"
       cx="217.18330"
       cy="739.74438"
       fx="217.18332"
       fy="742.83777"
       r="190.24219" />
  </defs>
  <sodipodi:namedview
     id="base"
     pagecolor="#ffffff"
     bordercolor="#666666"
     borderopacity="1.0"
     inkscape:pageopacity="0.0"
     inkscape:pageshadow="2"
     inkscape:zoom="5.5000000"
     inkscape:cx="32.000000"
     inkscape:cy="32.000000"
     inkscape:current-layer="layer1"
     showgrid="true"
     inkscape:grid-bbox="true"
     gridspacingy="1.0000000pt"
     gridspacingx="1.0000000pt"
     gridoriginy="0.0000000pt"
     gridoriginx="0.0000000pt"
     inkscape:window-width="640"
     inkscape:window-height="538"
     inkscape:window-x="0"
     inkscape:window-y="25" />
  <metadata
     id="metadata4">
    <rdf:RDF
       id="RDF5">
      <cc:Work
         rdf:about=""
         id="Work6">
        <dc:format
           id="format7">image/svg+xml</dc:format>
        <dc:type
           id="type9"
           rdf:resource="http://purl.org/dc/dcmitype/StillImage" />
      </cc:Work>
    </rdf:RDF>
  </metadata>
  <g
     id="layer1"
     inkscape:label="Layer 1"
     inkscape:groupmode="layer">
    <g
       id="g2344"
       transform="matrix(1.777781,0.000000,0.000000,1.777929,-117.6394,-586.7195)"
       inkscape:export-xdpi="36.000000"
       inkscape:export-ydpi="36.000000">
      <path
         style="fill:#ffffff;fill-opacity:1.0000000;fill-rule:evenodd;stroke:none;stroke-width:10.000000;stroke-linecap:butt;stroke-linejoin:miter;stroke-miterlimit:4.0000000;stroke-opacity:1.0000000"
         d="M 158.88978,443.12298 C 56.638690,443.12298 -26.360212,526.09492 -26.360212,628.34173 C -26.360212,730.58854 56.638696,813.59174 158.88978,813.59173 C 261.14088,813.59173 344.13979,730.58855 344.13978,628.34173 C 344.13978,526.09491 261.14088,443.12298 158.88978,443.12298 z "
         id="path14340"
         sodipodi:nodetypes="ccccc"
         transform="matrix(0.118265,0.000000,0.000000,0.118265,69.88085,278.1870)" />
      <path
         style="fill:url(#radialGradient2383);fill-opacity:1.0000000;fill-rule:evenodd;stroke:url(#linearGradient2384);stroke-width:10.000000;stroke-linecap:butt;stroke-linejoin:miter;stroke-miterlimit:4.0000000;stroke-opacity:1.0000000"
         d="M 158.88978,443.12298 C 56.638690,443.12298 -26.360212,526.09492 -26.360212,628.34173 C -26.360212,730.58854 56.638696,813.59174 158.88978,813.59173 C 261.14088,813.59173 344.13979,730.58855 344.13978,628.34173 C 344.13978,526.09491 261.14088,443.12298 158.88978,443.12298 z M 82.858538,502.12298 C 89.337765,502.15450 95.826855,504.66801 100.76478,509.65423 L 157.63978,567.09173 L 215.17103,510.12298 C 225.14346,500.24712 241.13894,500.33805 251.01478,510.31048 L 277.67103,537.24798 C 287.54689,547.22040 287.48721,563.18462 277.51478,573.06048 L 219.98353,630.06048 L 277.01478,687.65423 C 286.89064,697.62666 286.83096,713.62210 276.85853,723.49798 L 249.92103,750.15423 C 239.94860,760.03008 223.95313,759.97039 214.07728,749.99798 L 157.01478,692.37298 L 99.514785,749.34173 C 89.542365,759.21758 73.546898,759.12666 63.671038,749.15423 L 37.014788,722.21673 C 27.138933,712.24431 27.198602,696.28010 37.171038,686.40423 L 94.702285,629.43548 L 37.796038,571.99798 C 27.920182,562.02555 28.011114,546.03009 37.983538,536.15423 L 64.921038,509.46673 C 69.907249,504.52880 76.379308,502.09145 82.858538,502.12298 z "
         id="path14341"
         transform="matrix(0.118265,0.000000,0.000000,0.118265,69.88085,278.1870)" />
      <path
         sodipodi:type="arc"
         style="fill:url(#linearGradient2385);fill-opacity:1.0000000;fill-rule:evenodd;stroke:none;stroke-width:8.7072067;stroke-linecap:butt;stroke-linejoin:round;stroke-miterlimit:4.0000000;stroke-opacity:1.0000000"
         id="path9416"
         sodipodi:cx="184.43095"
         sodipodi:cy="185.68347"
         sodipodi:rx="163.26007"
         sodipodi:ry="163.26007"
         d="M 347.69102 185.68347 A 163.26007 163.26007 0 1 1  21.170883,185.68347 A 163.26007 163.26007 0 1 1  347.69102 185.68347 z"
         transform="matrix(0.103856,0.000000,0.000000,7.422055e-2,69.32971,330.5797)" />
      <path
         style="fill:url(#radialGradient2386);fill-opacity:1.0000000;fill-rule:evenodd;stroke:none;stroke-width:0.26240132pt;stroke-linecap:butt;stroke-linejoin:miter;stroke-opacity:1.0000000"
         d="M 68.793739,356.08364 C 74.324352,379.37853 103.14474,378.71013 108.13801,355.93128 C 101.22668,375.04863 76.120459,375.01064 68.793739,356.08364 z "
         id="path9417"
         sodipodi:nodetypes="ccc" />
    </g>
  </g>
</svg>
