<?xml version="1.0" encoding="UTF-8" standalone="no"?>
<!DOCTYPE svg PUBLIC "-//W3C//DTD SVG 20010904//EN"
"http://www.w3.org/TR/2001/REC-SVG-20010904/DTD/svg10.dtd">
<!-- Created with Inkscape (http://www.inkscape.org/) -->
<svg
   width="64pt"
   height="64pt"
   xmlns="http://www.w3.org/2000/svg"
   xmlns:cc="http://web.resource.org/cc/"
   xmlns:inkscape="http://www.inkscape.org/namespaces/inkscape"
   xmlns:sodipodi="http://sodipodi.sourceforge.net/DTD/sodipodi-0.dtd"
   xmlns:rdf="http://www.w3.org/1999/02/22-rdf-syntax-ns#"
   xmlns:dc="http://purl.org/dc/elements/1.1/"
   xmlns:xlink="http://www.w3.org/1999/xlink"
   id="svg1696"
   sodipodi:version="0.32"
   inkscape:version="0.40"
   sodipodi:docbase="/home/nuno/kdeplayground-artwork"
   sodipodi:docname="info.svg">
  <defs
     id="defs3">
    <radialGradient
       inkscape:collect="always"
       xlink:href="#light90to0"
       id="radialGradient3324"
       gradientUnits="userSpaceOnUse"
       gradientTransform="matrix(2.554776,0.000000,0.000000,2.452799,-690.4921,-222.1724)"
       cx="291.93347"
       cy="111.57648"
       fx="292.09686"
       fy="111.62492"
       r="10.453461" />
    <linearGradient
       inkscape:collect="always"
       xlink:href="#light90to0"
       id="linearGradient3323"
       gradientUnits="userSpaceOnUse"
       gradientTransform="matrix(1.772512,0.000000,0.000000,3.535296,-690.4921,-222.1724)"
       x1="400.81577"
       y1="63.465504"
       x2="416.65982"
       y2="71.378334" />
    <linearGradient
       inkscape:collect="always"
       xlink:href="#orangetoblackorange"
       id="linearGradient3322"
       gradientUnits="userSpaceOnUse"
       gradientTransform="matrix(1.821098,0.000000,0.000000,3.440975,-690.4921,-222.1723)"
       x1="392.93701"
       y1="64.831284"
       x2="408.36227"
       y2="80.528343" />
    <linearGradient
       id="light90to0">
      <stop
         style="stop-color:#ffffff;stop-opacity:0.90196079;"
         offset="0.0000000"
         id="stop1890" />
      <stop
         style="stop-color:#ffffff;stop-opacity:0.0000000;"
         offset="1.0000000"
         id="stop1892" />
    </linearGradient>
    <linearGradient
       id="orangetoblackorange">
      <stop
         style="stop-color:#ff8b00;stop-opacity:1.0000000;"
         offset="0.0000000"
         id="stop4207" />
      <stop
         style="stop-color:#4d0200;stop-opacity:1.0000000;"
         offset="1.0000000"
         id="stop4209" />
    </linearGradient>
    <linearGradient
       id="yelowtoorange">
      <stop
         style="stop-color:#ffff00;stop-opacity:1.0000000;"
         offset="0.0000000"
         id="stop3105" />
      <stop
         style="stop-color:#ff8c00;stop-opacity:1.0000000;"
         offset="1.0000000"
         id="stop3107" />
    </linearGradient>
    <radialGradient
       inkscape:collect="always"
       xlink:href="#yelowtoorange"
       id="radialGradient1740"
       gradientUnits="userSpaceOnUse"
       cx="229.19582"
       cy="298.50546"
       fx="230.51244"
       fy="295.85083"
       r="163.26007" />
    <linearGradient
       inkscape:collect="always"
       xlink:href="#orangetoblackorange"
       id="linearGradient1741"
       gradientUnits="userSpaceOnUse"
       x1="21.640696"
       y1="21.700418"
       x2="344.80951"
       y2="347.24612" />
    <linearGradient
       inkscape:collect="always"
       xlink:href="#light90to0"
       id="linearGradient1742"
       gradientUnits="userSpaceOnUse"
       x1="183.38441"
       y1="18.164442"
       x2="183.38441"
       y2="346.10425" />
    <radialGradient
       inkscape:collect="always"
       xlink:href="#light90to0"
       id="radialGradient1743"
       gradientUnits="userSpaceOnUse"
       gradientTransform="matrix(9.079982e-2,0.000000,0.000000,4.299861e-2,28.13005,54.86424)"
       cx="123.88702"
       cy="391.47498"
       fx="124.57159"
       fy="391.47498"
       r="166.47372" />
    <radialGradient
       inkscape:collect="always"
       xlink:href="#yelowtoorange"
       id="radialGradient2992"
       gradientTransform="matrix(1.811545,0.000000,0.000000,3.459120,-727.1120,-222.1723)"
       cx="427.67294"
       cy="76.150246"
       fx="427.67294"
       fy="76.150246"
       r="9.3330364"
       gradientUnits="userSpaceOnUse"
       spreadMethod="reflect" />
  </defs>
  <sodipodi:namedview
     id="base"
     pagecolor="#ffffff"
     bordercolor="#666666"
     borderopacity="1.0"
     inkscape:pageopacity="0.0"
     inkscape:pageshadow="2"
     inkscape:zoom="5.5000000"
     inkscape:cx="32.000000"
     inkscape:cy="30.520375"
     inkscape:current-layer="layer1"
     showgrid="true"
     inkscape:grid-bbox="true"
     gridspacingy="1.0000000pt"
     gridspacingx="1.0000000pt"
     gridoriginy="0.0000000pt"
     gridoriginx="0.0000000pt"
     inkscape:window-width="640"
     inkscape:window-height="538"
     inkscape:window-x="236"
     inkscape:window-y="118" />
  <metadata
     id="metadata4">
    <rdf:RDF
       id="RDF5">
      <cc:Work
         rdf:about=""
         id="Work6">
        <dc:format
           id="format7">image/svg+xml</dc:format>
        <dc:type
           id="type9"
           rdf:resource="http://purl.org/dc/dcmitype/StillImage" />
      </cc:Work>
    </rdf:RDF>
  </metadata>
  <g
     id="layer1"
     inkscape:label="Layer 1"
     inkscape:groupmode="layer">
    <path
       sodipodi:type="arc"
       style="fill:#ffffff;fill-opacity:1.0000000;fill-rule:evenodd;stroke:none;stroke-width:1.2500000;stroke-linecap:butt;stroke-linejoin:round;stroke-miterlimit:4.0000000;stroke-opacity:1.0000000"
       id="path17620"
       sodipodi:cx="184.43095"
       sodipodi:cy="185.68347"
       sodipodi:rx="163.26007"
       sodipodi:ry="163.26007"
       d="M 347.69102 185.68347 A 163.26007 163.26007 0 1 1  21.170883,185.68347 A 163.26007 163.26007 0 1 1  347.69102 185.68347 z"
       transform="matrix(5.415894e-2,0.000000,0.000000,5.199276e-2,29.51041,60.50885)" />
    <path
       sodipodi:type="arc"
       style="fill:url(#radialGradient1740);fill-opacity:1.0000000;fill-rule:evenodd;stroke:url(#linearGradient1741);stroke-width:42.505508;stroke-linecap:butt;stroke-linejoin:round;stroke-miterlimit:4.0000000;stroke-opacity:1.0000000"
       id="path17621"
       sodipodi:cx="184.43095"
       sodipodi:cy="185.68347"
       sodipodi:rx="163.26007"
       sodipodi:ry="163.26007"
       d="M 347.69102 185.68347 A 163.26007 163.26007 0 1 1  21.170883,185.68347 A 163.26007 163.26007 0 1 1  347.69102 185.68347 z"
       transform="matrix(5.618988e-2,0.000000,0.000000,5.394246e-2,28.76543,59.79112)" />
    <path
       sodipodi:type="arc"
       style="fill:url(#linearGradient1742);fill-opacity:1.0000000;fill-rule:evenodd;stroke:none;stroke-width:8.7072067;stroke-linecap:butt;stroke-linejoin:round;stroke-miterlimit:4.0000000;stroke-opacity:1.0000000"
       id="path17622"
       sodipodi:cx="184.43095"
       sodipodi:cy="185.68347"
       sodipodi:rx="163.26007"
       sodipodi:ry="163.26007"
       d="M 347.69102 185.68347 A 163.26007 163.26007 0 1 1  21.170883,185.68347 A 163.26007 163.26007 0 1 1  347.69102 185.68347 z"
       transform="matrix(4.842583e-2,0.000000,0.000000,3.322327e-2,30.13548,60.50502)" />
    <path
       style="fill:url(#radialGradient1743);fill-opacity:1.0000000;fill-rule:evenodd;stroke:none;stroke-width:0.26240132pt;stroke-linecap:butt;stroke-linejoin:miter;stroke-opacity:1.0000000"
       d="M 29.496057,69.014058 C 29.350881,81.560729 49.114300,81.993313 48.889478,68.930264 C 46.316396,80.334972 31.903437,80.225127 29.496057,69.014058 z "
       id="path17623"
       sodipodi:nodetypes="ccc" />
    <path
       style="fill:url(#radialGradient2992);fill-opacity:1.0000000;fill-rule:evenodd;stroke:url(#linearGradient3322);stroke-width:2.3468142;stroke-linecap:butt;stroke-linejoin:miter;stroke-miterlimit:4.0000000;stroke-opacity:1.0000000"
       d="M 33.421586,1.3455847 C 29.180837,1.3455847 25.756936,4.6325410 25.756936,8.7036732 L 30.307822,47.333627 C 30.818978,51.797289 32.933323,54.691716 37.174071,54.691716 L 41.086237,54.691716 C 45.326986,54.691716 47.339084,51.306603 47.952486,47.333627 L 52.503372,8.7036732 C 52.503372,4.6325410 49.079496,1.3455872 44.838722,1.3455847 L 33.421586,1.3455847 z "
       id="path16356"
       sodipodi:nodetypes="ccccccccc" />
    <path
       style="fill:url(#linearGradient3323);fill-opacity:1.0000000;fill-rule:evenodd;stroke:none;stroke-width:0.93750000;stroke-linecap:butt;stroke-linejoin:miter;stroke-miterlimit:4.0000000;stroke-opacity:1.0000000"
       d="M 33.418214,1.3296079 C 29.177491,1.3296030 25.753563,4.6165641 25.753563,8.6876963 L 30.304450,47.317660 C 30.304475,51.388769 32.929950,54.675749 37.170699,54.675749 L 37.649740,54.675749 C 35.705269,53.513072 34.296481,51.565780 34.296455,48.850595 L 30.304450,12.060154 C 30.304450,8.1852247 33.314409,5.0852890 37.011019,5.0852988 L 46.911192,5.0852988 C 49.477956,5.0853013 51.300738,6.8517085 52.420160,9.0709300 L 52.500000,8.6876963 C 52.500026,4.6165592 49.076124,1.3296104 44.835350,1.3296079 L 33.418214,1.3296079 z "
       id="path18266" />
    <path
       style="fill:url(#radialGradient3324);fill-opacity:1.0000000;fill-rule:evenodd;stroke:none;stroke-width:0.93750000;stroke-linecap:butt;stroke-linejoin:miter;stroke-miterlimit:4.0000000;stroke-opacity:1.0000000"
       d="M 49.590703,12.850547 L 45.346505,49.615837 C 44.538651,52.153028 42.095160,53.119979 41.082864,54.675749 C 45.323639,54.675749 47.335712,51.388769 47.949114,47.317660 L 51.886624,13.202149 C 51.886649,10.385175 49.590703,11.771035 49.590703,12.850547 z "
       id="path18273"
       sodipodi:nodetypes="cccccc" />
    <path
       style="fill:none;fill-opacity:1.0000000;fill-rule:evenodd;stroke:#670000;stroke-width:1.8721025;stroke-linecap:butt;stroke-linejoin:round;stroke-miterlimit:4.0000000;stroke-opacity:0.096874960"
       d="M 34.150428,1.5716282 C 29.909683,1.5716282 26.473494,4.8703764 26.473494,8.9415084 L 31.011415,47.559681 C 31.522571,52.023342 33.662847,54.929561 37.903595,54.929561 L 41.793242,54.929561 C 46.033989,54.929559 48.072020,51.532655 48.685422,47.559681 L 53.223343,8.9415084 C 53.223346,4.8703760 49.787184,1.5716306 45.546409,1.5716282 L 34.150428,1.5716282 z M 39.848418,61.218525 C 34.784611,61.218525 30.670217,65.168356 30.670218,70.029627 C 30.670218,74.890898 34.784609,78.840731 39.848418,78.840728 C 44.912226,78.840728 49.026620,74.890898 49.026619,70.029627 C 49.026619,65.168356 44.912224,61.218526 39.848418,61.218525 z "
       id="path3626" />
  </g>
</svg>
