<?xml version="1.0" encoding="UTF-8" standalone="no"?>
<!DOCTYPE svg PUBLIC "-//W3C//DTD SVG 20010904//EN"
"http://www.w3.org/TR/2001/REC-SVG-20010904/DTD/svg10.dtd">
<!-- Created with Inkscape (http://www.inkscape.org/) -->
<svg
   width="64pt"
   height="64pt"
   xmlns="http://www.w3.org/2000/svg"
   xmlns:cc="http://web.resource.org/cc/"
   xmlns:inkscape="http://www.inkscape.org/namespaces/inkscape"
   xmlns:sodipodi="http://sodipodi.sourceforge.net/DTD/sodipodi-0.dtd"
   xmlns:rdf="http://www.w3.org/1999/02/22-rdf-syntax-ns#"
   xmlns:dc="http://purl.org/dc/elements/1.1/"
   xmlns:xlink="http://www.w3.org/1999/xlink"
   id="svg13930"
   sodipodi:version="0.32"
   inkscape:version="0.40"
   sodipodi:docbase="/home/nuno/kdeplayground-artwork/oooicons/crystalsvg"
   sodipodi:docname="keyr.svg"
   inkscape:export-filename="/home/nuno/kdeplayground-artwork/oooicons/crystalsvg/key.png"
   inkscape:export-xdpi="36.000000"
   inkscape:export-ydpi="36.000000">
  <defs
     id="defs3">
    <linearGradient
       id="blacktowhite">
      <stop
         style="stop-color:#000000;stop-opacity:1.0000000;"
         offset="0.0000000"
         id="stop2476" />
      <stop
         style="stop-color:#ffffff;stop-opacity:1.0000000;"
         offset="1.0000000"
         id="stop2475" />
    </linearGradient>
    <linearGradient
       inkscape:collect="always"
       xlink:href="#blacktowhite"
       id="linearGradient11201"
       gradientUnits="userSpaceOnUse"
       gradientTransform="matrix(1.729410,0.000000,0.000000,3.424615,-182.2177,-11.36272)"
       x1="173.02200"
       y1="43.954811"
       x2="82.908119"
       y2="-18.802681" />
    <linearGradient
       id="bludraktowhite"
       gradientUnits="userSpaceOnUse"
       x1="33.332001"
       y1="10.305200"
       x2="33.332001"
       y2="91.407700">
      <stop
         offset="0"
         style="stop-color:rgb(255,255,255)"
         id="stop7271" />
      <stop
         offset="1"
         style="stop-color:rgb(84,84,119)"
         id="stop7273" />
    </linearGradient>
    <linearGradient
       inkscape:collect="always"
       xlink:href="#bludraktowhite"
       id="linearGradient11441"
       gradientTransform="matrix(1.729410,0.000000,0.000000,3.424615,-182.2177,-11.36272)"
       x1="108.59042"
       y1="-0.11668395"
       x2="161.77650"
       y2="46.188465"
       gradientUnits="userSpaceOnUse" />
    <linearGradient
       id="light90to0">
      <stop
         style="stop-color:#ffffff;stop-opacity:0.90196079;"
         offset="0.0000000"
         id="stop1890" />
      <stop
         style="stop-color:#ffffff;stop-opacity:0.0000000;"
         offset="1.0000000"
         id="stop1892" />
    </linearGradient>
    <linearGradient
       inkscape:collect="always"
       xlink:href="#light100to0"
       id="linearGradient21504"
       gradientUnits="userSpaceOnUse"
       gradientTransform="matrix(1.729411,0.000000,0.000000,3.363567,-181.4157,-10.51695)"
       x1="117.02135"
       y1="4.1053338"
       x2="137.88330"
       y2="25.720953" />
    <linearGradient
       id="light100to0">
      <stop
         style="stop-color:#ffffff;stop-opacity:1.0000000;"
         offset="0.0000000"
         id="stop2764" />
      <stop
         style="stop-color:#ffffff;stop-opacity:0.0000000;"
         offset="1.0000000"
         id="stop2765" />
    </linearGradient>
    <radialGradient
       inkscape:collect="always"
       xlink:href="#light100to0"
       id="radialGradient13306"
       gradientTransform="matrix(2.709017,0.000000,0.000000,2.186241,-182.0364,-11.14367)"
       cx="86.897873"
       cy="39.612629"
       fx="86.897873"
       fy="39.612629"
       r="7.1928144"
       gradientUnits="userSpaceOnUse" />
    <linearGradient
       inkscape:collect="always"
       xlink:href="#bludraktowhite"
       id="linearGradient15209"
       gradientUnits="userSpaceOnUse"
       gradientTransform="matrix(1.729410,1.647214e-16,-6.675000e-16,3.424615,-182.2177,-11.36272)"
       x1="108.59042"
       y1="-0.11668395"
       x2="161.77650"
       y2="46.188465" />
    <linearGradient
       inkscape:collect="always"
       xlink:href="#blacktowhite"
       id="linearGradient15210"
       gradientUnits="userSpaceOnUse"
       gradientTransform="matrix(1.729410,1.647214e-16,-6.675000e-16,3.424615,-182.2177,-11.36272)"
       x1="173.02200"
       y1="43.954811"
       x2="82.908119"
       y2="-18.802681" />
    <linearGradient
       inkscape:collect="always"
       xlink:href="#light100to0"
       id="linearGradient15211"
       gradientUnits="userSpaceOnUse"
       gradientTransform="matrix(1.729411,1.647215e-16,-6.556010e-16,3.363567,-181.4157,-10.51695)"
       x1="117.02135"
       y1="4.1053338"
       x2="137.88330"
       y2="25.720953" />
    <radialGradient
       inkscape:collect="always"
       xlink:href="#light100to0"
       id="radialGradient15212"
       gradientUnits="userSpaceOnUse"
       gradientTransform="matrix(2.709017,2.580262e-16,-4.261256e-16,2.186241,-182.0364,-11.14367)"
       cx="86.897873"
       cy="39.612629"
       fx="86.897873"
       fy="39.612629"
       r="7.1928144" />
  </defs>
  <sodipodi:namedview
     id="base"
     pagecolor="#ffffff"
     bordercolor="#666666"
     borderopacity="1.0"
     inkscape:pageopacity="0.0"
     inkscape:pageshadow="2"
     inkscape:zoom="5.5000000"
     inkscape:cx="32.000000"
     inkscape:cy="28.768877"
     inkscape:current-layer="layer1"
     showgrid="true"
     inkscape:grid-bbox="true"
     gridspacingy="1.0000000pt"
     gridspacingx="1.0000000pt"
     gridoriginy="0.0000000pt"
     gridoriginx="0.0000000pt"
     inkscape:window-width="640"
     inkscape:window-height="538"
     inkscape:window-x="0"
     inkscape:window-y="390" />
  <metadata
     id="metadata4">
    <rdf:RDF
       id="RDF5">
      <cc:Work
         rdf:about=""
         id="Work6">
        <dc:format
           id="format7">image/svg+xml</dc:format>
        <dc:type
           id="type9"
           rdf:resource="http://purl.org/dc/dcmitype/StillImage" />
      </cc:Work>
    </rdf:RDF>
  </metadata>
  <g
     id="layer1"
     inkscape:label="Layer 1"
     inkscape:groupmode="layer">
    <g
       id="g15203"
       transform="matrix(0.853974,0.805523,-0.805523,0.853974,44.12316,-30.30110)">
      <path
         style="fill:url(#linearGradient15209);fill-opacity:1.0000000;fill-rule:evenodd;stroke:url(#linearGradient15210);stroke-width:2.5374999;stroke-linecap:butt;stroke-linejoin:round;stroke-miterlimit:4.0000000;stroke-opacity:1.0000000"
         d="M 39.157965,1.9129508 C 38.449489,1.9054549 37.679813,2.1319337 37.131332,2.6834963 C 35.354910,4.4814439 31.706898,6.4271637 31.802039,8.0773154 L 31.501797,48.530949 L 30.601072,48.530949 C 24.579926,48.530949 19.717304,53.522727 19.717304,59.703859 L 19.717304,67.948695 C 19.717304,74.129801 24.579900,79.121604 30.601072,79.121604 L 46.739071,79.121604 C 52.760217,79.121604 57.622839,74.129825 57.622839,67.948695 L 57.622839,59.703859 C 57.622839,53.522752 52.760241,48.530949 46.739071,48.530949 L 46.588951,48.530949 L 46.513891,43.907676 L 44.487257,43.907676 L 43.361351,40.440222 L 42.160383,38.513858 L 42.310504,36.664549 L 44.552634,34.221173 L 44.637378,33.197095 L 43.746335,30.445499 L 43.758443,28.698101 L 44.683383,26.540574 L 44.649487,25.148622 L 42.794765,22.812128 L 42.760867,21.176585 L 44.637378,17.863239 L 44.499366,16.227695 L 41.860141,12.546479 L 41.835925,11.124696 L 44.637378,7.5379331 L 44.419463,5.9570713 C 44.375003,5.8672203 41.745689,3.4325404 41.109537,2.7605508 C 40.572248,2.1975225 39.866439,1.9204466 39.157965,1.9129508 z M 47.141026,66.825184 C 48.889372,66.825184 50.293566,68.343739 50.293566,70.138530 C 50.293640,71.933322 48.889372,73.374821 47.141026,73.374821 C 45.392683,73.374821 43.988487,71.933322 43.988487,70.138530 C 43.988416,68.343739 45.392683,66.825184 47.141026,66.825184 z "
         id="rect3688"
         sodipodi:nodetypes="ccccccccccccccccccccccccccccccccccccccc" />
      <path
         style="fill:#5e5f5f;fill-opacity:0.49999997;fill-rule:evenodd;stroke:none;stroke-width:0.93750000;stroke-linecap:butt;stroke-linejoin:round;stroke-miterlimit:4.0000000;stroke-opacity:1.0000000"
         d="M 35.331989,5.8164699 L 36.302944,5.0000000 L 36.283250,49.653236 L 35.331989,49.639587 L 35.331989,5.8164699 z "
         id="path13929"
         sodipodi:nodetypes="ccccc" />
      <path
         style="fill:#5e5f5f;fill-opacity:0.49999997;fill-rule:evenodd;stroke:none;stroke-width:0.93750000;stroke-linecap:butt;stroke-linejoin:round;stroke-miterlimit:4.0000000;stroke-opacity:1.0000000"
         d="M 35.331989,5.8164699 L 37.138114,4.2995153 L 37.302303,49.639587 L 35.331989,49.639587 L 35.331989,5.8164699 z "
         id="rect21506"
         sodipodi:nodetypes="ccccc" />
      <path
         style="fill:url(#linearGradient15211);fill-opacity:1.0000000;fill-rule:evenodd;stroke:none;stroke-width:0.93750000;stroke-linecap:butt;stroke-linejoin:round;stroke-miterlimit:4.0000000;stroke-opacity:1.0000000"
         d="M 39.937780,2.5001765 C 39.229303,2.4928143 38.459628,2.7152557 37.911148,3.2569860 C 36.134722,5.0228827 32.486714,6.9339176 32.581855,8.5546534 L 31.827067,48.968971 L 30.926341,48.968971 C 24.905194,48.968972 20.497120,53.189946 20.497120,59.260891 L 20.497120,67.358753 C 20.497118,71.964136 23.348061,75.869422 27.327621,77.500000 C 25.171819,75.586569 24.315977,72.685892 24.315976,70.340985 L 24.315976,62.243123 C 24.315976,56.172179 24.873041,51.921707 32.154212,52.036668 C 35.015081,52.083302 35.027640,51.455318 35.029950,50.727212 L 35.163829,8.5577234 C 35.068688,6.9369890 40.646255,2.5075387 39.937780,2.5001765 z "
         id="path21499"
         sodipodi:nodetypes="ccccccccccsscc" />
      <path
         style="fill:url(#radialGradient15212);fill-opacity:1.0000000;fill-rule:evenodd;stroke:none;stroke-width:0.93750000;stroke-linecap:butt;stroke-linejoin:round;stroke-miterlimit:4.0000000;stroke-opacity:1.0000000"
         d="M 38.034494,48.856882 L 37.133768,48.856882 C 31.112621,48.856882 26.250000,53.848660 26.250000,60.029792 L 26.250000,68.274628 C 26.250000,74.455734 31.112597,79.447538 37.133768,79.447538 L 46.920670,79.340655 C 52.941816,79.340655 57.804438,74.348876 57.804438,68.167746 L 57.804438,59.922910 C 57.804438,53.741803 52.941840,48.750000 46.920670,48.750000 L 46.770550,48.750000 L 38.034494,48.856882 z M 47.322625,67.044235 C 49.070971,67.044235 50.475165,68.562790 50.475165,70.357581 C 50.475239,72.152373 49.070971,73.593872 47.322625,73.593872 C 45.574282,73.593872 44.170086,72.152373 44.170086,70.357581 C 44.170015,68.562790 45.574282,67.044235 47.322625,67.044235 z "
         id="path12684"
         sodipodi:nodetypes="cccccccccccccccc" />
    </g>
  </g>
</svg>
