<?xml version="1.0" encoding="UTF-8" standalone="no"?>
<!DOCTYPE svg PUBLIC "-//W3C//DTD SVG 20010904//EN"
"http://www.w3.org/TR/2001/REC-SVG-20010904/DTD/svg10.dtd">
<!-- Created with Inkscape (http://www.inkscape.org/) -->
<svg
   width="64pt"
   height="64pt"
   xmlns="http://www.w3.org/2000/svg"
   xmlns:cc="http://web.resource.org/cc/"
   xmlns:inkscape="http://www.inkscape.org/namespaces/inkscape"
   xmlns:sodipodi="http://sodipodi.sourceforge.net/DTD/sodipodi-0.dtd"
   xmlns:rdf="http://www.w3.org/1999/02/22-rdf-syntax-ns#"
   xmlns:dc="http://purl.org/dc/elements/1.1/"
   xmlns:xlink="http://www.w3.org/1999/xlink"
   id="svg13930"
   sodipodi:version="0.32"
   inkscape:version="0.40"
   sodipodi:docbase="/home/nuno/kdeplayground-artwork/oooicons/crystalsvg"
   sodipodi:docname="keys.svg"
   inkscape:export-filename="/home/nuno/kdeplayground-artwork/oooicons/crystalsvg/keys.png"
   inkscape:export-xdpi="36.000000"
   inkscape:export-ydpi="36.000000">
  <defs
     id="defs3">
    <linearGradient
       id="blacktowhite">
      <stop
         style="stop-color:#000000;stop-opacity:1.0000000;"
         offset="0.0000000"
         id="stop2476" />
      <stop
         style="stop-color:#ffffff;stop-opacity:1.0000000;"
         offset="1.0000000"
         id="stop2475" />
    </linearGradient>
    <linearGradient
       id="bludraktowhite"
       gradientUnits="userSpaceOnUse"
       x1="33.332001"
       y1="10.305200"
       x2="33.332001"
       y2="91.407700">
      <stop
         offset="0"
         style="stop-color:rgb(255,255,255)"
         id="stop7271" />
      <stop
         offset="1"
         style="stop-color:rgb(84,84,119)"
         id="stop7273" />
    </linearGradient>
    <linearGradient
       id="light90to0">
      <stop
         style="stop-color:#ffffff;stop-opacity:0.90196079;"
         offset="0.0000000"
         id="stop1890" />
      <stop
         style="stop-color:#ffffff;stop-opacity:0.0000000;"
         offset="1.0000000"
         id="stop1892" />
    </linearGradient>
    <linearGradient
       id="light100to0">
      <stop
         style="stop-color:#ffffff;stop-opacity:1.0000000;"
         offset="0.0000000"
         id="stop2764" />
      <stop
         style="stop-color:#ffffff;stop-opacity:0.0000000;"
         offset="1.0000000"
         id="stop2765" />
    </linearGradient>
    <linearGradient
       inkscape:collect="always"
       xlink:href="#bludraktowhite"
       id="linearGradient15209"
       gradientUnits="userSpaceOnUse"
       gradientTransform="matrix(1.729410,1.647214e-16,-6.675000e-16,3.424615,-182.2177,-11.36272)"
       x1="108.59042"
       y1="-0.11668395"
       x2="161.77650"
       y2="46.188465" />
    <linearGradient
       inkscape:collect="always"
       xlink:href="#blacktowhite"
       id="linearGradient15210"
       gradientUnits="userSpaceOnUse"
       gradientTransform="matrix(1.729410,1.647214e-16,-6.675000e-16,3.424615,-182.2177,-11.36272)"
       x1="173.02200"
       y1="43.954811"
       x2="82.908119"
       y2="-18.802681" />
    <linearGradient
       inkscape:collect="always"
       xlink:href="#light100to0"
       id="linearGradient15211"
       gradientUnits="userSpaceOnUse"
       gradientTransform="matrix(1.729411,1.647215e-16,-6.556010e-16,3.363567,-181.4157,-10.51695)"
       x1="117.02135"
       y1="4.1053338"
       x2="137.88330"
       y2="25.720953" />
    <radialGradient
       inkscape:collect="always"
       xlink:href="#light100to0"
       id="radialGradient15218"
       gradientUnits="userSpaceOnUse"
       gradientTransform="matrix(2.313430,2.182176,-1.761067,1.866993,-102.4719,-187.6242)"
       cx="86.897873"
       cy="39.612629"
       fx="86.897873"
       fy="39.612629"
       r="7.1928144" />
    <linearGradient
       inkscape:collect="always"
       xlink:href="#bludraktowhite"
       id="linearGradient16495"
       gradientUnits="userSpaceOnUse"
       gradientTransform="matrix(1.654188,1.177063,-2.330845,3.275659,-155.2183,-221.2118)"
       x1="108.59042"
       y1="-0.11668395"
       x2="161.77650"
       y2="46.188465" />
    <linearGradient
       inkscape:collect="always"
       xlink:href="#blacktowhite"
       id="linearGradient16496"
       gradientUnits="userSpaceOnUse"
       gradientTransform="matrix(1.654188,1.177063,-2.330845,3.275659,-155.2183,-221.2118)"
       x1="173.02200"
       y1="43.954811"
       x2="82.908119"
       y2="-18.802681" />
    <linearGradient
       inkscape:collect="always"
       xlink:href="#light100to0"
       id="linearGradient16497"
       gradientUnits="userSpaceOnUse"
       gradientTransform="matrix(1.654190,1.177064,-2.289297,3.217268,-155.0268,-219.8571)"
       x1="117.02135"
       y1="4.1053338"
       x2="137.88330"
       y2="25.720953" />
    <radialGradient
       inkscape:collect="always"
       xlink:href="#light100to0"
       id="radialGradient16498"
       gradientUnits="userSpaceOnUse"
       gradientTransform="matrix(2.591187,1.843800,-1.487990,2.091150,-155.4711,-222.0240)"
       cx="86.897873"
       cy="39.612629"
       fx="86.897873"
       fy="39.612629"
       r="7.1928144" />
    <linearGradient
       inkscape:collect="always"
       xlink:href="#bludraktowhite"
       id="linearGradient19007"
       gradientUnits="userSpaceOnUse"
       gradientTransform="matrix(1.729410,4.646793e-16,-1.346324e-15,3.424615,-182.2177,-11.36272)"
       x1="108.59042"
       y1="-0.11668395"
       x2="161.77650"
       y2="46.188465" />
    <linearGradient
       inkscape:collect="always"
       xlink:href="#blacktowhite"
       id="linearGradient19008"
       gradientUnits="userSpaceOnUse"
       gradientTransform="matrix(1.729410,4.646793e-16,-1.346324e-15,3.424615,-182.2177,-11.36272)"
       x1="173.02200"
       y1="43.954811"
       x2="82.908119"
       y2="-18.802681" />
    <linearGradient
       inkscape:collect="always"
       xlink:href="#light100to0"
       id="linearGradient19009"
       gradientUnits="userSpaceOnUse"
       gradientTransform="matrix(1.729411,4.646796e-16,-1.322324e-15,3.363567,-181.4157,-10.51695)"
       x1="117.02135"
       y1="4.1053338"
       x2="137.88330"
       y2="25.720953" />
    <radialGradient
       inkscape:collect="always"
       xlink:href="#light100to0"
       id="radialGradient19010"
       gradientUnits="userSpaceOnUse"
       gradientTransform="matrix(2.313430,2.182176,-1.761067,1.866993,-102.4719,-187.6242)"
       cx="86.897873"
       cy="39.612629"
       fx="86.897873"
       fy="39.612629"
       r="7.1928144" />
    <linearGradient
       inkscape:collect="always"
       xlink:href="#bludraktowhite"
       id="linearGradient19011"
       gradientUnits="userSpaceOnUse"
       gradientTransform="matrix(1.654188,1.177063,-2.330845,3.275659,-155.2183,-221.2118)"
       x1="108.59042"
       y1="-0.11668395"
       x2="161.77650"
       y2="46.188465" />
    <linearGradient
       inkscape:collect="always"
       xlink:href="#blacktowhite"
       id="linearGradient19012"
       gradientUnits="userSpaceOnUse"
       gradientTransform="matrix(1.654188,1.177063,-2.330845,3.275659,-155.2183,-221.2118)"
       x1="173.02200"
       y1="43.954811"
       x2="82.908119"
       y2="-18.802681" />
    <linearGradient
       inkscape:collect="always"
       xlink:href="#light100to0"
       id="linearGradient19013"
       gradientUnits="userSpaceOnUse"
       gradientTransform="matrix(1.654190,1.177064,-2.289297,3.217268,-155.0268,-219.8571)"
       x1="117.02135"
       y1="4.1053338"
       x2="137.88330"
       y2="25.720953" />
    <radialGradient
       inkscape:collect="always"
       xlink:href="#light100to0"
       id="radialGradient19014"
       gradientUnits="userSpaceOnUse"
       gradientTransform="matrix(2.591187,1.843800,-1.487990,2.091150,-155.4711,-222.0240)"
       cx="86.897873"
       cy="39.612629"
       fx="86.897873"
       fy="39.612629"
       r="7.1928144" />
  </defs>
  <sodipodi:namedview
     id="base"
     pagecolor="#ffffff"
     bordercolor="#666666"
     borderopacity="1.0"
     inkscape:pageopacity="0.0"
     inkscape:pageshadow="2"
     inkscape:zoom="6.6593012"
     inkscape:cx="23.489984"
     inkscape:cy="45.172863"
     inkscape:current-layer="layer1"
     showgrid="false"
     inkscape:grid-bbox="false"
     gridspacingy="1.0000000pt"
     gridspacingx="1.0000000pt"
     gridoriginy="0.0000000pt"
     gridoriginx="0.0000000pt"
     inkscape:window-width="1280"
     inkscape:window-height="904"
     inkscape:window-x="0"
     inkscape:window-y="25" />
  <metadata
     id="metadata4">
    <rdf:RDF
       id="RDF5">
      <cc:Work
         rdf:about=""
         id="Work6">
        <dc:format
           id="format7">image/svg+xml</dc:format>
        <dc:type
           id="type9"
           rdf:resource="http://purl.org/dc/dcmitype/StillImage" />
      </cc:Work>
    </rdf:RDF>
  </metadata>
  <g
     id="layer1"
     inkscape:label="Layer 1"
     inkscape:groupmode="layer">
    <g
       id="g18990"
       transform="matrix(0.879021,0.000000,0.000000,0.862426,7.921681,8.987829)">
      <path
         style="fill:none;fill-opacity:1.0000000;fill-rule:evenodd;stroke:#000000;stroke-width:0.60000002;stroke-linecap:butt;stroke-linejoin:round;stroke-miterlimit:4.0000000;stroke-opacity:0.056249980"
         d="M 78.271894,4.7468786 C 77.672912,4.1697836 76.833195,3.7431989 75.920510,3.7724049 C 72.955204,3.8768566 68.272574,2.5998931 67.024587,4.0857181 L 34.181856,38.390219 L 33.412660,37.664664 C 28.270758,32.814492 20.097213,33.160387 15.118169,38.438913 L 8.4767643,45.479789 C 3.4977411,50.758293 3.6292596,58.938095 8.7711840,63.788288 L 22.552615,76.787817 C 27.694518,81.637989 35.868063,81.292093 40.847106,76.013569 L 47.488511,68.972693 C 52.467534,63.694189 52.336014,55.514384 47.194092,50.664193 L 47.065893,50.543268 L 50.725947,46.534651 L 48.995254,44.902150 L 50.826873,41.034092 L 51.353008,38.421620 L 52.970869,36.963284 L 56.853785,36.682791 L 57.751073,35.876519 L 59.206619,32.808972 L 60.624528,31.326492 L 63.152340,30.229081 L 64.244643,29.013086 L 64.542859,25.523760 L 65.831378,24.099743 L 70.102846,22.781804 L 71.302456,21.273920 L 72.013930,16.004301 L 73.138530,14.770629 L 78.420118,13.964262 L 79.507444,12.438711 C 79.541854,12.326167 79.257679,8.1290398 79.255724,7.0427431 C 79.250426,6.1291329 78.870874,5.3239719 78.271894,4.7468786 z M 32.800924,66.610778 C 34.293966,68.019111 34.269880,70.447028 32.824134,71.979733 C 31.378451,73.512498 29.018082,73.612331 27.525040,72.203998 C 26.032001,70.795668 25.994015,68.433553 27.439761,66.900847 C 28.885446,65.368085 31.307884,65.202448 32.800924,66.610778 z "
         id="path17747"
         sodipodi:nodetypes="ccccccccccccccccccccccccccccccccccccccc" />
      <path
         style="fill:none;fill-opacity:1.0000000;fill-rule:evenodd;stroke:#000000;stroke-width:2.9788768;stroke-linecap:butt;stroke-linejoin:round;stroke-miterlimit:4.0000000;stroke-opacity:0.10937495"
         d="M 78.271894,4.7468786 C 77.672912,4.1697836 76.833195,3.7431989 75.920510,3.7724049 C 72.955204,3.8768566 68.272574,2.5998931 67.024587,4.0857181 L 34.181856,38.390219 L 33.412660,37.664664 C 28.270758,32.814492 20.097213,33.160387 15.118169,38.438913 L 8.4767643,45.479789 C 3.4977411,50.758293 3.6292596,58.938095 8.7711840,63.788288 L 22.552615,76.787817 C 27.694518,81.637989 35.868063,81.292093 40.847106,76.013569 L 47.488511,68.972693 C 52.467534,63.694189 52.336014,55.514384 47.194092,50.664193 L 47.065893,50.543268 L 50.725947,46.534651 L 48.995254,44.902150 L 50.826873,41.034092 L 51.353008,38.421620 L 52.970869,36.963284 L 56.853785,36.682791 L 57.751073,35.876519 L 59.206619,32.808972 L 60.624528,31.326492 L 63.152340,30.229081 L 64.244643,29.013086 L 64.542859,25.523760 L 65.831378,24.099743 L 70.102846,22.781804 L 71.302456,21.273920 L 72.013930,16.004301 L 73.138530,14.770629 L 78.420118,13.964262 L 79.507444,12.438711 C 79.541854,12.326167 79.257679,8.1290398 79.255724,7.0427431 C 79.250426,6.1291329 78.870874,5.3239719 78.271894,4.7468786 z M 32.800924,66.610778 C 34.293966,68.019111 34.269880,70.447028 32.824134,71.979733 C 31.378451,73.512498 29.018082,73.612331 27.525040,72.203998 C 26.032001,70.795668 25.994015,68.433553 27.439761,66.900847 C 28.885446,65.368085 31.307884,65.202448 32.800924,66.610778 z "
         id="path17120"
         sodipodi:nodetypes="ccccccccccccccccccccccccccccccccccccccc" />
      <path
         style="fill:url(#linearGradient19007);fill-opacity:1.0000000;fill-rule:evenodd;stroke:url(#linearGradient19008);stroke-width:2.5374999;stroke-linecap:butt;stroke-linejoin:round;stroke-miterlimit:4.0000000;stroke-opacity:1.0000000"
         d="M 39.157965,1.9129508 C 38.449489,1.9054549 37.679813,2.1319337 37.131332,2.6834963 C 35.354910,4.4814439 31.706898,6.4271637 31.802039,8.0773154 L 31.501797,48.530949 L 30.601072,48.530949 C 24.579926,48.530949 19.717304,53.522727 19.717304,59.703859 L 19.717304,67.948695 C 19.717304,74.129801 24.579900,79.121604 30.601072,79.121604 L 46.739071,79.121604 C 52.760217,79.121604 57.622839,74.129825 57.622839,67.948695 L 57.622839,59.703859 C 57.622839,53.522752 52.760241,48.530949 46.739071,48.530949 L 46.588951,48.530949 L 46.513891,43.907676 L 44.487257,43.907676 L 43.361351,40.440222 L 42.160383,38.513858 L 42.310504,36.664549 L 44.552634,34.221173 L 44.637378,33.197095 L 43.746335,30.445499 L 43.758443,28.698101 L 44.683383,26.540574 L 44.649487,25.148622 L 42.794765,22.812128 L 42.760867,21.176585 L 44.637378,17.863239 L 44.499366,16.227695 L 41.860141,12.546479 L 41.835925,11.124696 L 44.637378,7.5379331 L 44.419463,5.9570713 C 44.375003,5.8672203 41.745689,3.4325404 41.109537,2.7605508 C 40.572248,2.1975225 39.866439,1.9204466 39.157965,1.9129508 z M 47.141026,66.825184 C 48.889372,66.825184 50.293566,68.343739 50.293566,70.138530 C 50.293640,71.933322 48.889372,73.374821 47.141026,73.374821 C 45.392683,73.374821 43.988487,71.933322 43.988487,70.138530 C 43.988416,68.343739 45.392683,66.825184 47.141026,66.825184 z "
         id="rect3688"
         sodipodi:nodetypes="ccccccccccccccccccccccccccccccccccccccc"
         transform="matrix(0.853974,0.805523,-0.805523,0.853974,44.12316,-30.30110)" />
      <path
         style="fill:#5e5f5f;fill-opacity:0.49999997;fill-rule:evenodd;stroke:none;stroke-width:0.93750000;stroke-linecap:butt;stroke-linejoin:round;stroke-miterlimit:4.0000000;stroke-opacity:1.0000000"
         d="M 35.331989,5.8164699 L 36.302944,5.0000000 L 36.283250,49.653236 L 35.331989,49.639587 L 35.331989,5.8164699 z "
         id="path13929"
         sodipodi:nodetypes="ccccc"
         transform="matrix(0.853974,0.805523,-0.805523,0.853974,44.12316,-30.30110)" />
      <path
         style="fill:#5e5f5f;fill-opacity:0.49999997;fill-rule:evenodd;stroke:none;stroke-width:0.93750000;stroke-linecap:butt;stroke-linejoin:round;stroke-miterlimit:4.0000000;stroke-opacity:1.0000000"
         d="M 35.331989,5.8164699 L 37.138114,4.2995153 L 37.302303,49.639587 L 35.331989,49.639587 L 35.331989,5.8164699 z "
         id="rect21506"
         sodipodi:nodetypes="ccccc"
         transform="matrix(0.853974,0.805523,-0.805523,0.853974,44.12316,-30.30110)" />
      <path
         style="fill:url(#linearGradient19009);fill-opacity:1.0000000;fill-rule:evenodd;stroke:none;stroke-width:0.93750000;stroke-linecap:butt;stroke-linejoin:round;stroke-miterlimit:4.0000000;stroke-opacity:1.0000000"
         d="M 39.937780,2.5001765 C 39.229303,2.4928143 38.459628,2.7152557 37.911148,3.2569860 C 36.134722,5.0228827 32.486714,6.9339176 32.581855,8.5546534 L 31.827067,48.968971 L 30.926341,48.968971 C 24.905194,48.968972 20.497120,53.189946 20.497120,59.260891 L 20.497120,67.358753 C 20.497118,71.964136 23.348061,75.869422 27.327621,77.500000 C 25.171819,75.586569 24.315977,72.685892 24.315976,70.340985 L 24.315976,62.243123 C 24.315976,56.172179 24.873041,51.921707 32.154212,52.036668 C 35.015081,52.083302 35.027640,51.455318 35.029950,50.727212 L 35.163829,8.5577234 C 35.068688,6.9369890 40.646255,2.5075387 39.937780,2.5001765 z "
         id="path21499"
         sodipodi:nodetypes="ccccccccccsscc"
         transform="matrix(0.853974,0.805523,-0.805523,0.853974,44.12316,-30.30110)" />
      <path
         style="fill:url(#radialGradient19010);fill-opacity:1.0000000;fill-rule:evenodd;stroke:none;stroke-width:0.93750000;stroke-linecap:butt;stroke-linejoin:round;stroke-miterlimit:4.0000000;stroke-opacity:1.0000000"
         d="M 37.131096,40.886886 L 36.361899,40.161331 C 31.219996,35.311159 23.046453,35.657054 18.067409,40.935580 L 11.426004,47.976456 C 6.4469805,53.254960 6.5784990,61.434764 11.720422,66.284956 L 20.164279,74.077255 C 25.306181,78.927427 33.479727,78.581531 38.458769,73.303007 L 45.100174,66.262131 C 50.079198,60.983627 49.947678,52.803822 44.805755,47.953631 L 44.677557,47.832706 L 37.131096,40.886886 z M 30.639860,64.582034 C 32.132902,65.990367 32.108816,68.418284 30.663071,69.950989 C 29.217388,71.483754 26.857019,71.583587 25.363977,70.175254 C 23.870938,68.766923 23.832951,66.404809 25.278698,64.872103 C 26.724382,63.339341 29.146821,63.173704 30.639860,64.582034 z "
         id="path12684"
         sodipodi:nodetypes="cccccccccccccccc" />
      <g
         id="g16486"
         transform="translate(12.57639,50.30558)">
        <path
           style="fill:none;fill-opacity:1.0000000;fill-rule:evenodd;stroke:#000000;stroke-width:4.5999999;stroke-linecap:butt;stroke-linejoin:round;stroke-miterlimit:4.0000000;stroke-opacity:0.10937495"
           d="M 48.490956,-55.845986 C 47.818398,-56.335356 46.928053,-56.642580 46.028027,-56.488313 C 43.105159,-55.977629 38.291532,-56.599433 37.259416,-54.956301 L 9.4388544,-16.466564 L 8.5773077,-17.079611 C 2.8180538,-21.177698 -5.2305493,-19.712616 -9.4375276,-13.800334 L -15.049094,-5.9141094 C -19.256052,-0.0018536414 -18.002455,8.0823896 -12.243176,12.180492 L 3.1928967,23.164268 C 8.9521507,27.262355 17.000753,25.797272 21.207727,19.884993 L 26.819292,11.998769 C 31.026251,6.0865126 29.772653,-1.9977304 24.013376,-6.0958334 L 23.869786,-6.1980074 L 26.944662,-10.671278 L 25.006177,-12.050637 L 26.289247,-16.133583 L 26.451629,-18.793556 L 27.853889,-20.460254 L 31.661498,-21.271326 L 32.439559,-22.193183 L 33.460051,-25.431555 L 34.660940,-27.094709 L 37.014096,-28.528864 L 37.929059,-29.883343 L 37.745263,-33.380564 L 38.826016,-34.968039 L 42.876023,-36.860087 L 43.857190,-38.518425 L 43.838253,-43.835823 L 44.782778,-45.212246 L 49.903588,-46.736289 L 50.771111,-48.396707 C 50.789739,-48.512910 49.931869,-52.631245 49.780754,-53.706981 C 49.650040,-54.611208 49.163513,-55.356617 48.490956,-55.845986 z M 11.946504,11.676263 C 13.618804,12.866214 13.928371,15.274435 12.706807,16.991162 C 11.485316,18.707938 9.1610207,19.130973 7.4887197,17.941021 C 5.8164217,16.751070 5.4544087,14.416552 6.6759727,12.699826 C 7.8974667,10.983053 10.274208,10.486314 11.946504,11.676263 z "
           id="path15237"
           sodipodi:nodetypes="ccccccccccccccccccccccccccccccccccccccc" />
        <path
           style="fill:none;fill-opacity:1.0000000;fill-rule:evenodd;stroke:#000000;stroke-width:3.2249999;stroke-linecap:butt;stroke-linejoin:round;stroke-miterlimit:4.0000000;stroke-opacity:0.059374992"
           d="M 48.490956,-55.845986 C 47.818398,-56.335356 46.928053,-56.642580 46.028027,-56.488313 C 43.105159,-55.977629 38.291532,-56.599433 37.259416,-54.956301 L 9.4388544,-16.466564 L 8.5773077,-17.079611 C 2.8180538,-21.177698 -5.2305493,-19.712616 -9.4375276,-13.800334 L -15.049094,-5.9141094 C -19.256052,-0.0018536414 -18.002455,8.0823896 -12.243176,12.180492 L 3.1928967,23.164268 C 8.9521507,27.262355 17.000753,25.797272 21.207727,19.884993 L 26.819292,11.998769 C 31.026251,6.0865126 29.772653,-1.9977304 24.013376,-6.0958334 L 23.869786,-6.1980074 L 26.944662,-10.671278 L 25.006177,-12.050637 L 26.289247,-16.133583 L 26.451629,-18.793556 L 27.853889,-20.460254 L 31.661498,-21.271326 L 32.439559,-22.193183 L 33.460051,-25.431555 L 34.660940,-27.094709 L 37.014096,-28.528864 L 37.929059,-29.883343 L 37.745263,-33.380564 L 38.826016,-34.968039 L 42.876023,-36.860087 L 43.857190,-38.518425 L 43.838253,-43.835823 L 44.782778,-45.212246 L 49.903588,-46.736289 L 50.771111,-48.396707 C 50.789739,-48.512910 49.931869,-52.631245 49.780754,-53.706981 C 49.650040,-54.611208 49.163513,-55.356617 48.490956,-55.845986 z M 11.946504,11.676263 C 13.618804,12.866214 13.928371,15.274435 12.706807,16.991162 C 11.485316,18.707938 9.1610207,19.130973 7.4887197,17.941021 C 5.8164217,16.751070 5.4544087,14.416552 6.6759727,12.699826 C 7.8974667,10.983053 10.274208,10.486314 11.946504,11.676263 z "
           id="path15863"
           sodipodi:nodetypes="ccccccccccccccccccccccccccccccccccccccc" />
        <path
           style="fill:url(#linearGradient19011);fill-opacity:1.0000000;fill-rule:evenodd;stroke:url(#linearGradient19012);stroke-width:2.9788768;stroke-linecap:butt;stroke-linejoin:round;stroke-miterlimit:4.0000000;stroke-opacity:1.0000000"
           d="M 47.492855,-57.841871 C 46.820297,-58.331241 45.929952,-58.638465 45.029926,-58.484198 C 42.107058,-57.973514 37.293431,-58.595318 36.261315,-56.952186 L 8.4407509,-18.462449 L 7.5792039,-19.075496 C 1.8199499,-23.173583 -6.2286531,-21.708501 -10.435629,-15.796219 L -16.047195,-7.9099957 C -20.254153,-1.9977397 -19.000556,6.0865033 -13.241277,10.184607 L 2.1947929,21.168383 C 7.9540469,25.266470 16.002652,23.801387 20.209626,17.889108 L 25.821191,10.002884 C 30.028150,4.0906263 28.774552,-3.9936167 23.015275,-8.0917197 L 22.871685,-8.1938937 L 25.946561,-12.667163 L 24.008076,-14.046522 L 25.291146,-18.129468 L 25.453528,-20.789441 L 26.855788,-22.456139 L 30.663397,-23.267211 L 31.441458,-24.189068 L 32.461950,-27.427440 L 33.662839,-29.090594 L 36.015995,-30.524749 L 36.930958,-31.879228 L 36.747162,-35.376449 L 37.827915,-36.963924 L 41.877922,-38.855972 L 42.859089,-40.514310 L 42.840152,-45.831708 L 43.784677,-47.208131 L 48.905487,-48.732174 L 49.773010,-50.392592 C 49.791638,-50.508795 48.933768,-54.627130 48.782653,-55.702866 C 48.651939,-56.607093 48.165412,-57.352502 47.492855,-57.841871 z M 10.948402,9.6803773 C 12.620703,10.870329 12.930270,13.278550 11.708706,14.995277 C 10.487213,16.712053 8.1629169,17.135088 6.4906159,15.945136 C 4.8183179,14.755185 4.4563049,12.420667 5.6778689,10.703941 C 6.8993629,8.9871673 9.2761049,8.4904283 10.948402,9.6803773 z "
           id="path15228"
           sodipodi:nodetypes="ccccccccccccccccccccccccccccccccccccccc" />
        <path
           style="fill:#5e5f5f;fill-opacity:0.49999997;fill-rule:evenodd;stroke:none;stroke-width:0.93750000;stroke-linecap:butt;stroke-linejoin:round;stroke-miterlimit:4.0000000;stroke-opacity:1.0000000"
           d="M 41.176494,-56.712156 L 42.660920,-56.832266 L 12.250388,-14.134643 L 11.349791,-14.795142 L 41.176494,-56.712156 z "
           id="path15229"
           sodipodi:nodetypes="ccccc" />
        <path
           style="fill:#5e5f5f;fill-opacity:0.49999997;fill-rule:evenodd;stroke:none;stroke-width:0.93750000;stroke-linecap:butt;stroke-linejoin:round;stroke-miterlimit:4.0000000;stroke-opacity:1.0000000"
           d="M 41.176494,-56.712156 L 43.936525,-56.933853 L 13.234406,-13.454116 L 11.349791,-14.795142 L 41.176494,-56.712156 z "
           id="path15230"
           sodipodi:nodetypes="ccccc" />
        <path
           style="fill:url(#linearGradient19013);fill-opacity:1.0000000;fill-rule:evenodd;stroke:none;stroke-width:0.93750000;stroke-linecap:butt;stroke-linejoin:round;stroke-miterlimit:4.0000000;stroke-opacity:1.0000000"
           d="M 47.839077,-56.749432 C 47.166426,-57.238675 46.278831,-57.549762 45.385497,-57.404898 C 42.484441,-56.924873 37.694423,-57.579851 36.682328,-55.964855 L 8.4537489,-17.822095 L 7.5922009,-18.435142 C 1.8329439,-22.533229 -5.2562599,-21.496053 -9.3882408,-15.689166 L -14.899773,-7.9435227 C -18.034271,-3.5384537 -17.965330,2.1373673 -15.268660,6.4055733 C -16.028383,3.1080953 -14.872753,-0.24891573 -13.276773,-2.4918307 L -7.7652406,-10.237474 C -3.6332611,-16.044359 -0.20748709,-19.730808 6.6787429,-14.665168 C 9.3834369,-12.673409 9.8228649,-13.265532 10.320635,-13.960396 L 39.149908,-54.204587 C 40.162003,-55.819581 48.511725,-56.260191 47.839077,-56.749432 z "
           id="path15231"
           sodipodi:nodetypes="ccccccccccsscc" />
        <path
           style="fill:url(#radialGradient19014);fill-opacity:1.0000000;fill-rule:evenodd;stroke:none;stroke-width:0.93750000;stroke-linecap:butt;stroke-linejoin:round;stroke-miterlimit:4.0000000;stroke-opacity:1.0000000"
           d="M 14.190416,-14.849416 L 13.328867,-15.462464 C 7.5696119,-19.560551 -0.47898909,-18.095469 -4.6859649,-12.183188 L -10.297530,-4.2969637 C -14.504487,1.6152933 -13.250892,9.6995363 -7.4916147,13.797640 L 1.9423489,20.356525 C 7.7016029,24.454612 15.750207,22.989529 19.957181,17.077250 L 25.568746,9.1910263 C 29.775705,3.2787693 28.522108,-4.8054747 22.762830,-8.9035777 L 22.619240,-9.0057517 L 14.190416,-14.849416 z M 11.014711,9.5126663 C 12.687012,10.702618 12.996577,13.110839 11.775015,14.827565 C 10.553522,16.544342 8.2292259,16.967377 6.5569249,15.777425 C 4.8846269,14.587474 4.5226129,12.252957 5.7441779,10.536230 C 6.9656719,8.8194563 9.3424129,8.3227173 11.014711,9.5126663 z "
           id="path15232"
           sodipodi:nodetypes="cccccccccccccccc" />
        <path
           style="fill:none;fill-opacity:1.0000000;fill-rule:evenodd;stroke:#000000;stroke-width:1.7250000;stroke-linecap:butt;stroke-linejoin:round;stroke-miterlimit:4.0000000;stroke-opacity:0.059374992"
           d="M 48.490956,-55.845986 C 47.818398,-56.335356 46.928053,-56.642580 46.028027,-56.488313 C 43.105159,-55.977629 38.291532,-56.599433 37.259416,-54.956301 L 9.4388544,-16.466564 L 8.5773077,-17.079611 C 2.8180538,-21.177698 -5.2305493,-19.712616 -9.4375276,-13.800334 L -15.049094,-5.9141094 C -19.256052,-0.0018536414 -18.002455,8.0823896 -12.243176,12.180492 L 3.1928967,23.164268 C 8.9521507,27.262355 17.000753,25.797272 21.207727,19.884993 L 26.819292,11.998769 C 31.026251,6.0865126 29.772653,-1.9977304 24.013376,-6.0958334 L 23.869786,-6.1980074 L 26.944662,-10.671278 L 25.006177,-12.050637 L 26.289247,-16.133583 L 26.451629,-18.793556 L 27.853889,-20.460254 L 31.661498,-21.271326 L 32.439559,-22.193183 L 33.460051,-25.431555 L 34.660940,-27.094709 L 37.014096,-28.528864 L 37.929059,-29.883343 L 37.745263,-33.380564 L 38.826016,-34.968039 L 42.876023,-36.860087 L 43.857190,-38.518425 L 43.838253,-43.835823 L 44.782778,-45.212246 L 49.903588,-46.736289 L 50.771111,-48.396707 C 50.789739,-48.512910 49.931869,-52.631245 49.780754,-53.706981 C 49.650040,-54.611208 49.163513,-55.356617 48.490956,-55.845986 z M 11.946504,11.676263 C 13.618804,12.866214 13.928371,15.274435 12.706807,16.991162 C 11.485316,18.707938 9.1610207,19.130973 7.4887197,17.941021 C 5.8164217,16.751070 5.4544087,14.416552 6.6759727,12.699826 C 7.8974667,10.983053 10.274208,10.486314 11.946504,11.676263 z "
           id="path15864"
           sodipodi:nodetypes="ccccccccccccccccccccccccccccccccccccccc" />
      </g>
    </g>
  </g>
</svg>
