<?xml version="1.0" encoding="UTF-8" standalone="no"?>
<!DOCTYPE svg PUBLIC "-//W3C//DTD SVG 20010904//EN"
"http://www.w3.org/TR/2001/REC-SVG-20010904/DTD/svg10.dtd">
<!-- Created with Inkscape (http://www.inkscape.org/) -->
<svg
   width="64pt"
   height="64pt"
   id="svg1786"
   sodipodi:version="0.32"
   inkscape:version="0.40"
   sodipodi:docbase="/home/nuno/kdeplayground-artwork/oooicons/crystalsvg"
   sodipodi:docname="lock.svg"
   inkscape:export-filename="/home/nuno/kdeplayground-artwork/oooicons/crystalsvg/lock.png"
   inkscape:export-xdpi="36.000000"
   inkscape:export-ydpi="36.000000"
   xmlns="http://www.w3.org/2000/svg"
   xmlns:cc="http://web.resource.org/cc/"
   xmlns:inkscape="http://www.inkscape.org/namespaces/inkscape"
   xmlns:sodipodi="http://sodipodi.sourceforge.net/DTD/sodipodi-0.dtd"
   xmlns:rdf="http://www.w3.org/1999/02/22-rdf-syntax-ns#"
   xmlns:dc="http://purl.org/dc/elements/1.1/"
   xmlns:xlink="http://www.w3.org/1999/xlink">
  <defs
     id="defs3">
    <radialGradient
       inkscape:collect="always"
       xlink:href="#light90to0"
       id="radialGradient1885"
       gradientUnits="userSpaceOnUse"
       gradientTransform="matrix(1.114979,0.000000,0.000000,0.823831,57.30664,1.312856)"
       cx="63.231617"
       cy="89.219727"
       fx="63.231617"
       fy="89.219727"
       r="35.359123" />
    <linearGradient
       inkscape:collect="always"
       xlink:href="#light90to0"
       id="linearGradient1884"
       gradientUnits="userSpaceOnUse"
       gradientTransform="matrix(4.959067,0.000000,0.000000,8.944244,-266.8127,-92.56679)"
       x1="46.745922"
       y1="15.454508"
       x2="69.576653"
       y2="29.574303" />
    <linearGradient
       inkscape:collect="always"
       xlink:href="#graytoblack"
       id="linearGradient1883"
       gradientUnits="userSpaceOnUse"
       gradientTransform="matrix(2.530352,0.000000,0.000000,3.164077,-56.51268,-25.39236)"
       x1="51.443932"
       y1="9.3191233"
       x2="74.164177"
       y2="31.594225" />
    <linearGradient
       inkscape:collect="always"
       xlink:href="#bludraktowhite"
       id="linearGradient1882"
       gradientUnits="userSpaceOnUse"
       gradientTransform="matrix(3.267289,0.000000,0.000000,2.450419,-56.51268,-25.39236)"
       x1="40.836166"
       y1="23.490620"
       x2="57.610550"
       y2="41.970860" />
    <linearGradient
       inkscape:collect="always"
       xlink:href="#light90to0"
       id="linearGradient1881"
       gradientUnits="userSpaceOnUse"
       gradientTransform="matrix(-2.530353,0.000000,0.000000,3.164078,-57.06908,-33.26015)"
       x1="-72.633263"
       y1="8.8458862"
       x2="-68.991661"
       y2="12.032733" />
    <radialGradient
       inkscape:collect="always"
       xlink:href="#light90to0"
       id="radialGradient1880"
       gradientUnits="userSpaceOnUse"
       gradientTransform="matrix(2.171119,0.000000,0.000000,3.687608,-56.39108,-33.81286)"
       cx="79.904190"
       cy="13.966528"
       fx="79.967804"
       fy="13.966529"
       r="2.3236647" />
    <linearGradient
       inkscape:collect="always"
       xlink:href="#light90to0"
       id="linearGradient1879"
       gradientUnits="userSpaceOnUse"
       gradientTransform="matrix(2.530353,0.000000,0.000000,3.164078,-55.72798,-33.69593)"
       x1="54.046303"
       y1="8.8458853"
       x2="59.882896"
       y2="13.108294" />
    <linearGradient
       inkscape:collect="always"
       xlink:href="#graytoblack"
       id="linearGradient1878"
       gradientUnits="userSpaceOnUse"
       gradientTransform="matrix(2.530352,0.000000,0.000000,3.164077,-56.42468,-25.47160)"
       x1="51.443932"
       y1="9.3191233"
       x2="74.164177"
       y2="31.594225" />
    <linearGradient
       inkscape:collect="always"
       xlink:href="#bludraktowhite"
       id="linearGradient1877"
       gradientUnits="userSpaceOnUse"
       gradientTransform="matrix(2.530352,0.000000,0.000000,3.164077,-56.42468,-25.47160)"
       x1="51.744732"
       y1="9.3755379"
       x2="74.869385"
       y2="31.770292" />
    <linearGradient
       inkscape:collect="always"
       xlink:href="#light90to0"
       id="linearGradient3339"
       gradientUnits="userSpaceOnUse"
       gradientTransform="matrix(-2.230542,0.000000,0.000000,2.883798,-102.7414,-13.60842)"
       x1="-72.633263"
       y1="8.8458862"
       x2="-68.991661"
       y2="12.032733" />
    <radialGradient
       inkscape:collect="always"
       xlink:href="#light90to0"
       id="radialGradient3338"
       gradientUnits="userSpaceOnUse"
       gradientTransform="matrix(1.913872,0.000000,0.000000,3.360953,-101.8515,-14.96052)"
       cx="79.904190"
       cy="13.966528"
       fx="79.967804"
       fy="13.966529"
       r="2.3236647" />
    <linearGradient
       id="light90to0">
      <stop
         style="stop-color:#ffffff;stop-opacity:0.90196079;"
         offset="0.0000000"
         id="stop1890" />
      <stop
         style="stop-color:#ffffff;stop-opacity:0.0000000;"
         offset="1.0000000"
         id="stop1892" />
    </linearGradient>
    <linearGradient
       inkscape:collect="always"
       xlink:href="#light90to0"
       id="linearGradient3337"
       gradientUnits="userSpaceOnUse"
       gradientTransform="matrix(2.230542,0.000000,0.000000,2.883798,-101.5592,-14.00560)"
       x1="54.046303"
       y1="8.8458853"
       x2="59.882896"
       y2="13.108294" />
    <linearGradient
       id="graytoblack">
      <stop
         style="stop-color:#7d7d7d;stop-opacity:1.0000000;"
         offset="0.0000000"
         id="stop5097" />
      <stop
         style="stop-color:#000000;stop-opacity:1.0000000;"
         offset="1.0000000"
         id="stop5098" />
    </linearGradient>
    <linearGradient
       id="bludraktowhite"
       gradientUnits="userSpaceOnUse"
       x1="33.332001"
       y1="10.305200"
       x2="33.332001"
       y2="91.407700">
      <stop
         offset="0"
         style="stop-color:rgb(255,255,255)"
         id="stop7271" />
      <stop
         offset="1"
         style="stop-color:rgb(84,84,119)"
         id="stop7273" />
    </linearGradient>
    <linearGradient
       inkscape:collect="always"
       xlink:href="#bludraktowhite"
       id="linearGradient1843"
       gradientUnits="userSpaceOnUse"
       gradientTransform="matrix(2.880164,0.000000,0.000000,2.233356,-103.3528,-15.83382)"
       x1="40.836166"
       y1="23.490620"
       x2="57.610550"
       y2="41.970860" />
    <linearGradient
       inkscape:collect="always"
       xlink:href="#graytoblack"
       id="linearGradient1844"
       gradientUnits="userSpaceOnUse"
       gradientTransform="matrix(2.230543,0.000000,0.000000,2.883797,-103.3528,-15.83382)"
       x1="51.443932"
       y1="9.3191233"
       x2="74.164177"
       y2="31.594225" />
    <linearGradient
       inkscape:collect="always"
       xlink:href="#bludraktowhite"
       id="linearGradient1845"
       gradientUnits="userSpaceOnUse"
       gradientTransform="matrix(2.230543,0.000000,0.000000,2.883797,-103.3528,-15.76753)"
       x1="51.744732"
       y1="9.3755379"
       x2="74.869385"
       y2="31.770292" />
    <linearGradient
       inkscape:collect="always"
       xlink:href="#graytoblack"
       id="linearGradient1846"
       gradientUnits="userSpaceOnUse"
       gradientTransform="matrix(2.230543,0.000000,0.000000,2.883797,-103.3528,-15.76753)"
       x1="51.443932"
       y1="9.3191233"
       x2="74.164177"
       y2="31.594225" />
    <linearGradient
       inkscape:collect="always"
       xlink:href="#light90to0"
       id="linearGradient1847"
       gradientUnits="userSpaceOnUse"
       gradientTransform="matrix(1.855470,0.000000,0.000000,2.883798,-83.09989,-14.96947)"
       x1="46.745922"
       y1="15.454508"
       x2="69.576653"
       y2="29.574303" />
    <radialGradient
       inkscape:collect="always"
       xlink:href="#light90to0"
       id="radialGradient3099"
       gradientTransform="matrix(0.982870,0.000000,0.000000,0.750855,-3.019366,8.505795)"
       cx="63.231617"
       cy="89.219727"
       fx="63.231617"
       fy="89.219727"
       r="35.359123"
       gradientUnits="userSpaceOnUse" />
  </defs>
  <sodipodi:namedview
     id="base"
     pagecolor="#ffffff"
     bordercolor="#666666"
     borderopacity="1.0"
     inkscape:pageopacity="0.0"
     inkscape:pageshadow="2"
     inkscape:zoom="5.5000000"
     inkscape:cx="32.000000"
     inkscape:cy="35.057795"
     inkscape:current-layer="layer1"
     showgrid="true"
     inkscape:grid-bbox="true"
     gridspacingy="1.0000000pt"
     gridspacingx="1.0000000pt"
     gridoriginy="0.0000000pt"
     gridoriginx="0.0000000pt"
     inkscape:window-width="1082"
     inkscape:window-height="643"
     inkscape:window-x="556"
     inkscape:window-y="271" />
  <metadata
     id="metadata4">
    <rdf:RDF
       id="RDF5">
      <cc:Work
         rdf:about=""
         id="Work6">
        <dc:format
           id="format7">image/svg+xml</dc:format>
        <dc:type
           id="type9"
           rdf:resource="http://purl.org/dc/dcmitype/StillImage" />
      </cc:Work>
    </rdf:RDF>
  </metadata>
  <g
     id="layer1"
     inkscape:label="Layer 1"
     inkscape:groupmode="layer">
    <path
       style="fill:none;fill-opacity:1.0000000;fill-rule:evenodd;stroke:#000000;stroke-width:4.3470368;stroke-linecap:butt;stroke-linejoin:round;stroke-miterlimit:4.0000000;stroke-opacity:0.056249980"
       d="M 39.577533,9.8495653 C 28.156376,9.8495653 18.904567,19.529705 18.904567,31.578666 L 18.904567,37.993159 C 16.170165,38.094686 13.964336,40.374778 13.964336,43.285113 L 13.964336,72.390874 C 13.964336,75.366225 16.236198,77.762988 19.056573,77.763014 L 59.794477,77.763014 C 62.614803,77.763014 64.886664,75.366251 64.886719,72.390874 L 64.886719,43.285113 C 64.886719,40.463813 62.790451,38.303928 60.174495,38.073336 L 60.174495,31.578666 C 60.174495,19.529732 50.998666,9.8495653 39.577533,9.8495653 z M 39.121512,18.829857 C 46.053474,18.829857 51.662098,24.746786 51.662098,32.059744 L 51.662098,37.912973 L 26.656929,37.912973 L 26.656929,32.059744 C 26.656929,24.746786 32.189574,18.829857 39.121512,18.829857 z "
       id="path3120" />
    <path
       style="fill:url(#linearGradient1845);fill-opacity:1.0000000;fill-rule:evenodd;stroke:url(#linearGradient1846);stroke-width:2.3777099;stroke-linecap:butt;stroke-linejoin:round;stroke-miterlimit:4.0000000;stroke-opacity:1.0000000"
       d="M 37.874405,8.7459021 C 26.150093,8.7459021 16.652709,18.466058 16.652709,30.564828 L 16.652709,37.005839 C 13.845729,37.107788 11.581349,39.397309 11.581349,42.319674 L 11.581349,71.545763 C 11.581349,74.533413 13.913514,76.940085 16.808752,76.940110 L 58.627974,76.940110 C 61.523162,76.940110 63.855326,74.533439 63.855376,71.545763 L 63.855376,42.319674 C 63.855376,39.486710 61.703471,37.317893 59.018079,37.086352 L 59.018079,30.564828 C 59.018079,18.466084 49.598691,8.7459021 37.874405,8.7459021 z M 37.406279,17.763318 C 44.522238,17.763318 50.279734,23.704713 50.279734,31.047904 L 50.279734,36.925327 L 24.610845,36.925327 L 24.610845,31.047904 C 24.610845,23.704713 30.290345,17.763318 37.406279,17.763318 z "
       id="rect4323" />
    <path
       style="fill:url(#linearGradient3337);fill-opacity:1.0000000;fill-rule:evenodd;stroke:none;stroke-width:0.93750000;stroke-linecap:butt;stroke-linejoin:round;stroke-miterlimit:4.0000000;stroke-opacity:1.0000000"
       d="M 39.658787,10.470256 C 27.934474,10.470256 18.437092,20.190412 18.437092,32.289182 L 18.437092,38.730193 L 22.798971,40.007889 C 19.419992,19.191885 32.537709,13.207686 44.262021,13.207686 C 46.858471,13.207686 49.302895,13.863731 51.595990,14.737426 C 48.167987,12.266785 44.180700,10.470256 39.658787,10.470256 z "
       id="path21473"
       sodipodi:nodetypes="ccccccc" />
    <path
       style="fill:url(#radialGradient3338);fill-opacity:1.0000000;fill-rule:evenodd;stroke:none;stroke-width:0.93750000;stroke-linecap:butt;stroke-linejoin:round;stroke-miterlimit:4.0000000;stroke-opacity:1.0000000"
       d="M 47.480621,22.075294 C 50.090552,24.505630 51.771773,27.899317 51.771773,31.817324 L 51.771773,37.694747 L 56.375008,34.554754 C 56.375008,28.672454 52.608439,23.825077 47.480621,22.075294 z "
       id="path21479"
       sodipodi:nodetypes="ccccc" />
    <path
       style="fill:url(#linearGradient3339);fill-opacity:1.0000000;fill-rule:evenodd;stroke:none;stroke-width:0.93750000;stroke-linecap:butt;stroke-linejoin:round;stroke-miterlimit:4.0000000;stroke-opacity:1.0000000"
       d="M 38.605033,10.867423 C 50.329346,10.867423 59.826727,20.587578 59.826727,32.686349 L 59.826727,39.127360 L 56.671626,38.910671 C 57.637051,18.592798 45.726110,13.604853 34.001797,13.604853 C 31.405347,13.604853 28.960923,14.260898 26.667830,15.134593 C 30.095832,12.663952 34.083120,10.867423 38.605033,10.867423 z "
       id="path21482"
       sodipodi:nodetypes="ccccccc" />
    <path
       style="fill:url(#linearGradient1843);fill-opacity:1.0000000;fill-rule:evenodd;stroke:url(#linearGradient1844);stroke-width:2.3777099;stroke-linecap:butt;stroke-linejoin:round;stroke-miterlimit:4.0000000;stroke-opacity:1.0000000"
       d="M 16.652709,36.939542 C 13.845729,37.041489 11.581349,39.331012 11.581349,42.253376 L 11.581349,71.479463 C 11.581349,74.467115 13.913514,76.873785 16.808752,76.873812 L 58.627974,76.873812 C 61.523162,76.873812 63.855326,74.467141 63.855376,71.479463 L 63.855376,42.253376 C 63.855376,39.420413 61.703471,37.251596 59.018079,37.020054 L 16.652709,36.939542 z "
       id="path20201"
       sodipodi:nodetypes="ccccccccc" />
    <path
       style="fill:#71718e;fill-opacity:0.19523807;fill-rule:evenodd;stroke:none;stroke-width:0.93750000;stroke-linecap:butt;stroke-linejoin:round;stroke-miterlimit:4.0000000;stroke-opacity:1.0000000"
       d="M 11.471087,38.552425 L 11.471087,42.124943 L 63.745109,42.124943 L 63.745109,38.552425 L 11.471087,38.552425 z "
       id="path21458"
       sodipodi:nodetypes="ccccc" />
    <path
       style="fill:#71718e;fill-opacity:0.19523807;fill-rule:evenodd;stroke:none;stroke-width:0.93750000;stroke-linecap:butt;stroke-linejoin:round;stroke-miterlimit:4.0000000;stroke-opacity:1.0000000"
       d="M 11.471087,45.526213 L 11.471087,49.098731 L 63.745109,49.098731 L 63.745109,45.526213 L 11.471087,45.526213 z "
       id="path21463"
       sodipodi:nodetypes="ccccc" />
    <path
       style="fill:#71718e;fill-opacity:0.19523807;fill-rule:evenodd;stroke:none;stroke-width:0.93750000;stroke-linecap:butt;stroke-linejoin:round;stroke-miterlimit:4.0000000;stroke-opacity:1.0000000"
       d="M 11.953798,52.500000 L 11.953798,56.072518 L 64.227820,56.072518 L 64.227820,52.500000 L 11.953798,52.500000 z "
       id="path21464"
       sodipodi:nodetypes="ccccc" />
    <path
       style="fill:#71718e;fill-opacity:0.19523807;fill-rule:evenodd;stroke:none;stroke-width:0.93750000;stroke-linecap:butt;stroke-linejoin:round;stroke-miterlimit:4.0000000;stroke-opacity:1.0000000"
       d="M 11.953798,59.722851 L 11.953798,63.295369 L 64.227820,63.295369 L 64.227820,59.722851 L 11.953798,59.722851 z "
       id="path21465"
       sodipodi:nodetypes="ccccc" />
    <path
       style="fill:#71718e;fill-opacity:0.19523807;fill-rule:evenodd;stroke:none;stroke-width:0.93750000;stroke-linecap:butt;stroke-linejoin:round;stroke-miterlimit:4.0000000;stroke-opacity:1.0000000"
       d="M 11.712442,66.696638 L 11.712442,70.269156 L 63.986465,70.269156 L 63.986465,66.696638 L 11.712442,66.696638 z "
       id="path21466"
       sodipodi:nodetypes="ccccc" />
    <path
       style="fill:url(#linearGradient1847);fill-opacity:1.0000000;fill-rule:evenodd;stroke:none;stroke-width:0.93750000;stroke-linecap:butt;stroke-linejoin:round;stroke-miterlimit:4.0000000;stroke-opacity:1.0000000"
       d="M 16.718597,37.766325 C 14.383618,37.868273 12.500000,40.157795 12.500000,43.080160 L 12.500000,72.306254 C 18.999879,80.011473 15.146783,54.285862 19.145351,46.877101 C 23.298760,39.181441 52.788543,47.044678 51.558563,38.095901 L 16.718597,37.766325 z "
       id="path20202"
       sodipodi:nodetypes="ccczcc" />
    <path
       style="fill:url(#radialGradient3099);fill-opacity:1.0000000;fill-rule:evenodd;stroke:none;stroke-width:2.7677886;stroke-linecap:butt;stroke-linejoin:round;stroke-miterlimit:4.0000000;stroke-opacity:1.0000000"
       d="M 16.542504,36.645527 C 13.735524,36.747475 11.471144,39.036998 11.471144,41.959361 L 11.471144,71.185450 C 11.471144,74.173100 13.803308,76.579771 16.698547,76.579798 L 58.517769,76.579798 C 61.412955,76.579798 63.745119,74.173128 63.745175,71.185450 L 63.745175,41.959361 C 63.745175,39.126399 61.593267,36.957582 58.907872,36.726039 L 16.542504,36.645527 z "
       id="path2471"
       sodipodi:nodetypes="ccccccccc" />
  </g>
</svg>
