<?xml version="1.0" encoding="UTF-8" standalone="no"?>
<!DOCTYPE svg PUBLIC "-//W3C//DTD SVG 20010904//EN"
"http://www.w3.org/TR/2001/REC-SVG-20010904/DTD/svg10.dtd">
<!-- Created with Inkscape (http://www.inkscape.org/) -->
<svg
   width="64pt"
   height="64pt"
   xmlns="http://www.w3.org/2000/svg"
   xmlns:cc="http://web.resource.org/cc/"
   xmlns:inkscape="http://www.inkscape.org/namespaces/inkscape"
   xmlns:sodipodi="http://sodipodi.sourceforge.net/DTD/sodipodi-0.dtd"
   xmlns:rdf="http://www.w3.org/1999/02/22-rdf-syntax-ns#"
   xmlns:dc="http://purl.org/dc/elements/1.1/"
   xmlns:xlink="http://www.w3.org/1999/xlink"
   id="svg13170"
   sodipodi:version="0.32"
   inkscape:version="0.40"
   sodipodi:docbase="/home/nuno/kdeplayground-artwork/oooicons/crystalsvg"
   sodipodi:docname="bplus.svg">
  <defs
     id="defs3">
    <radialGradient
       cx="38.797401"
       cy="112.96090"
       r="67.358803"
       fx="38.797401"
       fy="112.96090"
       id="bluedarktoblackblue"
       gradientUnits="userSpaceOnUse">
      <stop
         style="stop-color:#0356fe;stop-opacity:1.0000000;"
         offset="0.0000000"
         id="stop2959" />
      <stop
         style="stop-color:#032442;stop-opacity:1.0000000;"
         offset="1.0000000"
         id="stop2960" />
    </radialGradient>
    <radialGradient
       inkscape:collect="always"
       xlink:href="#bluedarktoblackblue"
       id="radialGradient13169"
       gradientTransform="matrix(0.232321,0.000000,0.000000,0.234607,-0.619690,-2.094286)"
       cx="68.262993"
       cy="101.95932"
       fx="68.262993"
       fy="101.95932"
       r="335.47476"
       gradientUnits="userSpaceOnUse" />
    <radialGradient
       cx="38.797401"
       cy="112.96090"
       r="67.358803"
       fx="38.797401"
       fy="112.96090"
       id="bluelignonlinblu"
       gradientUnits="userSpaceOnUse">
      <stop
         style="stop-color:#d9ffff;stop-opacity:1.0000000;"
         offset="0.0055999998"
         id="stop84" />
      <stop
         style="stop-color:#95d9ff;stop-opacity:1.0000000;"
         offset="0.13480000"
         id="stop86" />
      <stop
         style="stop-color:#68b9ff;stop-opacity:1.0000000;"
         offset="0.32049999"
         id="stop88" />
      <stop
         style="stop-color:#3293fe;stop-opacity:1.0000000;"
         offset="0.56800002"
         id="stop90" />
      <stop
         style="stop-color:#107bfe;stop-opacity:1.0000000;"
         offset="0.75340003"
         id="stop92" />
      <stop
         style="stop-color:#0372fe;stop-opacity:1.0000000;"
         offset="0.85390002"
         id="stop94" />
      <stop
         style="stop-color:#0356fe;stop-opacity:1.0000000;"
         offset="1.0000000"
         id="stop96" />
    </radialGradient>
    <linearGradient
       inkscape:collect="always"
       xlink:href="#bluelignonlinblu"
       id="linearGradient2518"
       gradientTransform="matrix(0.232322,0.000000,0.000000,0.234607,-0.619690,-2.094286)"
       x1="351.57092"
       y1="50.663139"
       x2="176.99603"
       y2="218.63310"
       gradientUnits="userSpaceOnUse" />
    <radialGradient
       inkscape:collect="always"
       xlink:href="#light100to0"
       id="radialGradient3143"
       gradientTransform="matrix(0.232320,0.000000,0.000000,0.234609,-0.619595,-2.094191)"
       cx="232.06880"
       cy="333.00150"
       fx="232.06880"
       fy="333.00150"
       r="105.99626"
       gradientUnits="userSpaceOnUse" />
    <linearGradient
       id="light100to0">
      <stop
         style="stop-color:#ffffff;stop-opacity:1.0000000;"
         offset="0.0000000"
         id="stop2764" />
      <stop
         style="stop-color:#ffffff;stop-opacity:0.0000000;"
         offset="1.0000000"
         id="stop2765" />
    </linearGradient>
    <linearGradient
       inkscape:collect="always"
       xlink:href="#light100to0"
       id="linearGradient4390"
       gradientTransform="matrix(0.243585,0.000000,0.000000,0.223758,0.108932,-1.402432)"
       x1="23.488348"
       y1="34.215549"
       x2="261.13272"
       y2="362.30255"
       gradientUnits="userSpaceOnUse" />
  </defs>
  <sodipodi:namedview
     id="base"
     pagecolor="#ffffff"
     bordercolor="#666666"
     borderopacity="1.0"
     inkscape:pageopacity="0.0"
     inkscape:pageshadow="2"
     inkscape:zoom="1.4634617"
     inkscape:cx="12.181826"
     inkscape:cy="33.636360"
     inkscape:current-layer="layer1"
     showgrid="true"
     inkscape:grid-bbox="true"
     gridspacingy="1.0000000pt"
     gridspacingx="1.0000000pt"
     gridoriginy="0.0000000pt"
     gridoriginx="0.0000000pt"
     inkscape:window-width="640"
     inkscape:window-height="538"
     inkscape:window-x="0"
     inkscape:window-y="25" />
  <metadata
     id="metadata4">
    <rdf:RDF
       id="RDF5">
      <cc:Work
         rdf:about=""
         id="Work6">
        <dc:format
           id="format7">image/svg+xml</dc:format>
        <dc:type
           id="type9"
           rdf:resource="http://purl.org/dc/dcmitype/StillImage" />
      </cc:Work>
    </rdf:RDF>
  </metadata>
  <g
     id="layer1"
     inkscape:label="Layer 1"
     inkscape:groupmode="layer">
    <path
       style="fill:url(#linearGradient2518);fill-opacity:1.0000000;stroke:url(#radialGradient13169);stroke-width:2.2324731;stroke-linecap:butt;stroke-linejoin:round;stroke-miterlimit:4.0000000;stroke-dashoffset:0.0000000;stroke-opacity:1.0000000"
       d="M 32.563039,4.2716190 C 31.179119,4.2716190 30.065224,5.5373105 30.065224,7.1084912 L 30.065224,27.970859 L 7.4978057,27.970859 C 6.1138954,27.970859 5.0000000,29.229210 5.0000000,30.800401 L 5.0000000,50.226011 C 5.0000000,51.797192 6.1138954,53.062883 7.4978057,53.062883 L 30.065224,53.062883 L 30.065224,75.127440 C 30.065224,76.698620 31.179119,77.964312 32.563039,77.964312 L 50.795594,77.964312 C 52.179509,77.964312 53.293403,76.698620 53.293403,75.127440 L 53.293403,53.062883 L 75.475986,53.062883 C 76.859900,53.062883 77.973791,51.797192 77.973795,50.226011 L 77.973795,30.800401 C 77.973795,29.229220 76.859900,27.970859 75.475986,27.970859 L 53.293403,27.970859 L 53.293403,7.1084912 C 53.293403,5.5373105 52.179509,4.2716190 50.795594,4.2716190 L 32.563039,4.2716190 z "
       id="rect1266" />
    <path
       style="fill:url(#radialGradient3143);fill-opacity:1.0000000;stroke:none;stroke-width:12.937500;stroke-linecap:butt;stroke-linejoin:round;stroke-miterlimit:4.0000000;stroke-dashoffset:0.0000000;stroke-opacity:1.0000000"
       d="M 32.563039,4.2716190 C 31.179119,4.2716190 30.065224,5.5373105 30.065224,7.1084912 L 30.065224,27.970859 L 7.4978057,27.970859 C 6.1138954,27.970859 5.0000000,29.229210 5.0000000,30.800401 L 5.0000000,50.226011 C 5.0000000,51.797192 6.1138954,53.062883 7.4978057,53.062883 L 31.011213,53.062883 L 31.011213,74.554427 C 31.011213,76.125608 32.125108,77.391290 33.509028,77.391299 L 50.227999,77.582297 C 51.611913,77.582297 52.725808,76.316615 52.725808,74.745425 L 53.104205,52.871876 L 75.475983,53.062883 C 76.859898,53.062883 77.973788,51.797192 77.973793,50.226011 L 77.973793,30.800401 C 77.973793,29.229220 76.859898,27.970859 75.475983,27.970859 L 53.293401,27.970859 L 53.293401,7.1084912 C 53.293401,5.5373105 52.179506,4.2716190 50.795592,4.2716190 L 32.563039,4.2716190 z "
       id="path2519"
       sodipodi:nodetypes="ccccccccccccccccccccc" />
    <path
       style="fill:url(#linearGradient4390);fill-opacity:1.0000000;fill-rule:evenodd;stroke:none;stroke-width:0.25000000pt;stroke-linecap:butt;stroke-linejoin:miter;stroke-opacity:1.0000000"
       d="M 53.273526,27.733070 C 53.201015,21.022646 53.128504,14.312240 53.055993,7.6018257 C 53.506900,6.5447064 52.065827,4.9145742 51.003149,5.0034900 C 44.826569,5.0671560 39.217588,5.1308315 33.041017,5.1944975 C 31.460479,5.0419157 30.447530,6.4173745 30.569769,7.6018257 C 30.632832,14.528201 30.506705,21.454585 30.569769,28.380960 C 23.097429,28.380960 15.814279,28.380960 8.3419300,28.380960 C 6.5435735,28.620206 5.5020154,30.960505 5.7848359,32.536793 C 5.8479087,38.077897 5.9109721,38.461867 5.9740355,44.002970 C 6.4154982,52.332018 54.156449,37.931486 53.273526,27.733070 z "
       id="path3765"
       sodipodi:nodetypes="cccccccccc" />
  </g>
</svg>
