<?xml version="1.0" encoding="UTF-8" standalone="no"?>
<!DOCTYPE svg PUBLIC "-//W3C//DTD SVG 20010904//EN"
"http://www.w3.org/TR/2001/REC-SVG-20010904/DTD/svg10.dtd">
<!-- Created with Inkscape (http://www.inkscape.org/) -->
<svg
   width="64pt"
   height="64pt"
   xmlns="http://www.w3.org/2000/svg"
   xmlns:cc="http://web.resource.org/cc/"
   xmlns:inkscape="http://www.inkscape.org/namespaces/inkscape"
   xmlns:sodipodi="http://sodipodi.sourceforge.net/DTD/sodipodi-0.dtd"
   xmlns:rdf="http://www.w3.org/1999/02/22-rdf-syntax-ns#"
   xmlns:dc="http://purl.org/dc/elements/1.1/"
   xmlns:xlink="http://www.w3.org/1999/xlink"
   id="svg11898"
   sodipodi:version="0.32"
   inkscape:version="0.40"
   sodipodi:docbase="/home/nuno/kdeplayground-artwork/oooicons/crystalsvg"
   sodipodi:docname="rplus.svg">
  <defs
     id="defs3">
    <radialGradient
       inkscape:collect="always"
       xlink:href="#light100to0"
       id="radialGradient3143"
       gradientTransform="matrix(0.231906,0.000000,0.000000,0.231195,-1.309486,-1.273263)"
       cx="232.06880"
       cy="333.00150"
       fx="232.06880"
       fy="333.00150"
       r="105.99626"
       gradientUnits="userSpaceOnUse" />
    <linearGradient
       id="light100to0">
      <stop
         style="stop-color:#ffffff;stop-opacity:1.0000000;"
         offset="0.0000000"
         id="stop2764" />
      <stop
         style="stop-color:#ffffff;stop-opacity:0.0000000;"
         offset="1.0000000"
         id="stop2765" />
    </linearGradient>
    <linearGradient
       inkscape:collect="always"
       xlink:href="#light100to0"
       id="linearGradient4390"
       gradientTransform="matrix(0.243151,0.000000,0.000000,0.220503,-0.582298,-0.591517)"
       x1="23.488348"
       y1="34.215549"
       x2="261.13272"
       y2="362.30255"
       gradientUnits="userSpaceOnUse" />
    <linearGradient
       id="reddarktoblack">
      <stop
         style="stop-color:#8e0000;stop-opacity:1.0000000;"
         offset="0.0000000"
         id="stop3230" />
      <stop
         style="stop-color:#000000;stop-opacity:1.0000000;"
         offset="1.0000000"
         id="stop3231" />
    </linearGradient>
    <linearGradient
       inkscape:collect="always"
       xlink:href="#reddarktoblack"
       id="linearGradient11897"
       gradientTransform="matrix(0.999855,0.000000,0.000000,1.000145,-140.5347,-145.8071)"
       x1="76.987305"
       y1="71.341713"
       x2="407.63867"
       y2="396.76309"
       gradientUnits="userSpaceOnUse" />
    <linearGradient
       id="redtodarkred">
      <stop
         style="stop-color:#ff0000;stop-opacity:1.0000000;"
         offset="0.0000000"
         id="stop3856" />
      <stop
         style="stop-color:#920000;stop-opacity:1.0000000;"
         offset="1.0000000"
         id="stop3855" />
    </linearGradient>
    <linearGradient
       inkscape:collect="always"
       xlink:href="#redtodarkred"
       id="linearGradient2518"
       gradientTransform="matrix(0.999857,0.000000,0.000000,1.000143,-140.5347,-145.8071)"
       x1="351.57092"
       y1="50.663139"
       x2="176.99603"
       y2="218.63310"
       gradientUnits="userSpaceOnUse" />
    <linearGradient
       inkscape:collect="always"
       xlink:href="#redtodarkred"
       id="linearGradient11925"
       gradientUnits="userSpaceOnUse"
       gradientTransform="matrix(0.231908,0.000000,0.000000,0.231193,-33.90535,-34.97793)"
       x1="351.57092"
       y1="50.663139"
       x2="176.99603"
       y2="218.63310" />
    <linearGradient
       inkscape:collect="always"
       xlink:href="#reddarktoblack"
       id="linearGradient11926"
       gradientUnits="userSpaceOnUse"
       gradientTransform="matrix(0.231908,0.000000,0.000000,0.231193,-33.90535,-34.97793)"
       x1="76.987305"
       y1="71.341713"
       x2="407.63867"
       y2="396.76309" />
  </defs>
  <sodipodi:namedview
     id="base"
     pagecolor="#ffffff"
     bordercolor="#666666"
     borderopacity="1.0"
     inkscape:pageopacity="0.0"
     inkscape:pageshadow="2"
     inkscape:zoom="1.4634617"
     inkscape:cx="32.545455"
     inkscape:cy="33.272725"
     inkscape:current-layer="layer1"
     showgrid="true"
     inkscape:grid-bbox="true"
     gridspacingy="1.0000000pt"
     gridspacingx="1.0000000pt"
     gridoriginy="0.0000000pt"
     gridoriginx="0.0000000pt"
     inkscape:window-width="640"
     inkscape:window-height="538"
     inkscape:window-x="0"
     inkscape:window-y="25" />
  <metadata
     id="metadata4">
    <rdf:RDF
       id="RDF5">
      <cc:Work
         rdf:about=""
         id="Work6">
        <dc:format
           id="format7">image/svg+xml</dc:format>
        <dc:type
           id="type9"
           rdf:resource="http://purl.org/dc/dcmitype/StillImage" />
      </cc:Work>
    </rdf:RDF>
  </metadata>
  <g
     id="layer1"
     inkscape:label="Layer 1"
     inkscape:groupmode="layer">
    <path
       style="fill:url(#linearGradient11925);fill-opacity:1.0000000;stroke:url(#linearGradient11926);stroke-width:2.2142045;stroke-linecap:butt;stroke-linejoin:round;stroke-miterlimit:4.0000000;stroke-dashoffset:0.0000000;stroke-opacity:1.0000000"
       d="M 31.814206,5.0000000 C 30.432746,5.0000000 29.320829,6.2472742 29.320829,7.7956008 L 29.320829,28.354428 L 6.7934792,28.354428 C 5.4120213,28.354428 4.3001039,29.594475 4.3001039,31.142802 L 4.3001039,50.285771 C 4.3001039,51.834097 5.4120213,53.081366 6.7934792,53.081366 L 29.320829,53.081366 L 29.320829,74.824893 C 29.320829,76.373225 30.432746,77.620494 31.814206,77.620494 L 50.014390,77.620494 C 51.395850,77.620494 52.507767,76.373225 52.507767,74.824893 L 52.507767,53.081366 L 74.650962,53.081366 C 76.032418,53.081366 77.144331,51.834097 77.144339,50.285771 L 77.144339,31.142802 C 77.144339,29.594475 76.032418,28.354428 74.650962,28.354428 L 52.507767,28.354428 L 52.507767,7.7956008 C 52.507767,6.2472742 51.395850,5.0000000 50.014390,5.0000000 L 31.814206,5.0000000 z "
       id="rect1266" />
    <path
       style="fill:url(#radialGradient3143);fill-opacity:1.0000000;stroke:none;stroke-width:12.937500;stroke-linecap:butt;stroke-linejoin:round;stroke-miterlimit:4.0000000;stroke-dashoffset:0.0000000;stroke-opacity:1.0000000"
       d="M 31.814202,5.0000000 C 30.432746,5.0000000 29.320829,6.2472742 29.320829,7.7956008 L 29.320829,28.354428 L 6.7934792,28.354428 C 5.4120213,28.354428 4.3001039,29.594475 4.3001039,31.142802 L 4.3001039,50.285771 C 4.3001039,51.834097 5.4120213,53.081366 6.7934792,53.081366 L 30.265135,53.081366 L 30.265135,74.260220 C 30.265135,75.808535 31.377052,77.055803 32.758514,77.055803 L 49.447805,77.244045 C 50.829261,77.244045 51.941178,75.996759 51.941178,74.448445 L 52.318904,52.893146 L 74.650962,53.081366 C 76.032418,53.081366 77.144331,51.834097 77.144335,50.285771 L 77.144335,31.142802 C 77.144335,29.594475 76.032418,28.354428 74.650962,28.354428 L 52.507763,28.354428 L 52.507763,7.7956008 C 52.507763,6.2472742 51.395846,5.0000000 50.014390,5.0000000 L 31.814202,5.0000000 z "
       id="path2519"
       sodipodi:nodetypes="ccccccccccccccccccccc" />
    <path
       style="fill:url(#linearGradient4390);fill-opacity:1.0000000;fill-rule:evenodd;stroke:none;stroke-width:0.25000000pt;stroke-linecap:butt;stroke-linejoin:miter;stroke-opacity:1.0000000"
       d="M 52.487924,28.120093 C 52.415543,21.507313 52.343157,14.894534 52.270776,8.2817540 C 52.720884,7.2400169 51.282369,5.6336073 50.221577,5.7212244 C 44.055967,5.7839687 38.456940,5.8467131 32.291332,5.9094503 C 30.713598,5.7590889 29.702452,7.1145353 29.824476,8.2817540 C 29.887431,15.107355 29.761526,21.932961 29.824476,28.758560 C 22.365398,28.758560 15.095183,28.758560 7.6360993,28.758560 C 5.8409390,28.994330 4.8012310,31.300579 5.0835523,32.853922 C 5.1465068,38.314406 5.2094594,38.692789 5.2724101,44.153274 C 5.7130917,52.361136 53.369282,38.170134 52.487924,28.120093 z "
       id="path3765"
       sodipodi:nodetypes="cccccccccc" />
  </g>
</svg>
