<?xml version="1.0" encoding="UTF-8" standalone="no"?>
<!DOCTYPE svg PUBLIC "-//W3C//DTD SVG 20010904//EN"
"http://www.w3.org/TR/2001/REC-SVG-20010904/DTD/svg10.dtd">
<!-- Created with Inkscape (http://www.inkscape.org/) -->
<svg
   width="64pt"
   height="64pt"
   xmlns="http://www.w3.org/2000/svg"
   xmlns:cc="http://web.resource.org/cc/"
   xmlns:inkscape="http://www.inkscape.org/namespaces/inkscape"
   xmlns:sodipodi="http://sodipodi.sourceforge.net/DTD/sodipodi-0.dtd"
   xmlns:rdf="http://www.w3.org/1999/02/22-rdf-syntax-ns#"
   xmlns:dc="http://purl.org/dc/elements/1.1/"
   xmlns:xlink="http://www.w3.org/1999/xlink"
   id="svg5012"
   sodipodi:version="0.32"
   inkscape:version="0.40"
   sodipodi:docbase="/home/nuno/kdeplayground-artwork/oooicons/crystalsvg"
   sodipodi:docname="plus.svg">
  <defs
     id="defs3">
    <linearGradient
       inkscape:collect="always"
       xlink:href="#light100to0"
       id="linearGradient4390"
       gradientTransform="matrix(1.048333,0.000000,0.000000,0.953895,3.135114,2.949073)"
       x1="23.488348"
       y1="34.215549"
       x2="261.13272"
       y2="362.30255"
       gradientUnits="userSpaceOnUse" />
    <linearGradient
       id="light100to0">
      <stop
         style="stop-color:#ffffff;stop-opacity:1.0000000;"
         offset="0.0000000"
         id="stop2764" />
      <stop
         style="stop-color:#ffffff;stop-opacity:0.0000000;"
         offset="1.0000000"
         id="stop2765" />
    </linearGradient>
    <radialGradient
       inkscape:collect="always"
       xlink:href="#light100to0"
       id="radialGradient3143"
       gradientTransform="scale(0.999851,1.000149)"
       cx="232.06880"
       cy="333.00150"
       fx="232.06880"
       fy="333.00150"
       r="105.99626"
       gradientUnits="userSpaceOnUse" />
    <linearGradient
       id="greandarktobgrean">
      <stop
         style="stop-color:#00ad01;stop-opacity:1.0000000;"
         offset="0.0000000"
         id="stop4492" />
      <stop
         style="stop-color:#15720f;stop-opacity:1.0000000;"
         offset="1.0000000"
         id="stop4493" />
    </linearGradient>
    <radialGradient
       inkscape:collect="always"
       xlink:href="#greandarktobgrean"
       id="radialGradient9371"
       gradientTransform="scale(0.999855,1.000145)"
       cx="78.732162"
       cy="52.096363"
       fx="78.732162"
       fy="52.096363"
       r="219.06058"
       gradientUnits="userSpaceOnUse" />
    <linearGradient
       id="greantodarkgrean">
      <stop
         style="stop-color:#00ff01;stop-opacity:1.0000000;"
         offset="0.0000000"
         id="stop5123" />
      <stop
         style="stop-color:#15980f;stop-opacity:1.0000000;"
         offset="1.0000000"
         id="stop5124" />
    </linearGradient>
    <linearGradient
       inkscape:collect="always"
       xlink:href="#greantodarkgrean"
       id="linearGradient2518"
       gradientTransform="scale(0.999857,1.000143)"
       x1="351.57092"
       y1="50.663139"
       x2="176.99603"
       y2="218.63310"
       gradientUnits="userSpaceOnUse" />
  </defs>
  <sodipodi:namedview
     id="base"
     pagecolor="#ffffff"
     bordercolor="#666666"
     borderopacity="1.0"
     inkscape:pageopacity="0.0"
     inkscape:pageshadow="2"
     inkscape:zoom="4.0200035"
     inkscape:cx="35.804250"
     inkscape:cy="29.507018"
     inkscape:current-layer="layer1"
     showgrid="false"
     inkscape:grid-bbox="false"
     gridspacingy="1.0000000pt"
     gridspacingx="1.0000000pt"
     gridoriginy="0.0000000pt"
     gridoriginx="0.0000000pt"
     inkscape:window-width="640"
     inkscape:window-height="538"
     inkscape:window-x="0"
     inkscape:window-y="25" />
  <metadata
     id="metadata4">
    <rdf:RDF
       id="RDF5">
      <cc:Work
         rdf:about=""
         id="Work6">
        <dc:format
           id="format7">image/svg+xml</dc:format>
        <dc:type
           id="type9"
           rdf:resource="http://purl.org/dc/dcmitype/StillImage" />
      </cc:Work>
    </rdf:RDF>
  </metadata>
  <g
     id="layer1"
     inkscape:label="Layer 1"
     inkscape:groupmode="layer">
    <g
       id="g9372"
       transform="matrix(0.219170,0.000000,0.000000,0.228719,2.157734,-1.508678)">
      <path
         style="fill:url(#linearGradient2518);fill-opacity:1.0000000;stroke:url(#radialGradient9371);stroke-width:9.5625000;stroke-linecap:butt;stroke-linejoin:round;stroke-miterlimit:4.0000000;stroke-dashoffset:0.0000000;stroke-opacity:1.0000000"
         d="M 142.81029,27.138041 C 136.85424,27.138041 132.06029,32.533741 132.06029,39.231791 L 132.06029,128.16929 L 34.935285,128.16929 C 28.979239,128.16929 24.185285,133.53373 24.185285,140.23179 L 24.185285,223.04429 C 24.185285,229.74234 28.979240,235.13804 34.935285,235.13804 L 132.06029,235.13804 L 132.06029,329.20054 C 132.06029,335.89859 136.85424,341.29428 142.81029,341.29429 L 221.27904,341.29429 C 227.23509,341.29429 232.02904,335.89859 232.02904,329.20054 L 232.02904,235.13804 L 327.49779,235.13804 C 333.45384,235.13804 338.24777,229.74234 338.24779,223.04429 L 338.24779,140.23179 C 338.24779,133.53374 333.45384,128.16929 327.49779,128.16929 L 232.02904,128.16929 L 232.02904,39.231791 C 232.02904,32.533739 227.23509,27.138041 221.27904,27.138041 L 142.81029,27.138041 z "
         id="rect1266" />
      <path
         style="fill:url(#radialGradient3143);fill-opacity:1.0000000;stroke:none;stroke-width:12.937500;stroke-linecap:butt;stroke-linejoin:round;stroke-miterlimit:4.0000000;stroke-dashoffset:0.0000000;stroke-opacity:1.0000000"
         d="M 142.81028,27.138041 C 136.85423,27.138041 132.06028,32.533741 132.06028,39.231791 L 132.06028,128.16929 L 34.935285,128.16929 C 28.979239,128.16929 24.185285,133.53373 24.185285,140.23179 L 24.185285,223.04429 C 24.185285,229.74234 28.979240,235.13804 34.935285,235.13804 L 136.13160,235.13804 L 136.13160,326.75775 C 136.13160,333.45580 140.92555,338.85149 146.88160,338.85150 L 218.83624,339.66576 C 224.79229,339.66576 229.58624,334.27006 229.58624,327.57201 L 231.21477,234.32378 L 327.49778,235.13804 C 333.45383,235.13804 338.24776,229.74234 338.24778,223.04429 L 338.24778,140.23179 C 338.24778,133.53374 333.45383,128.16929 327.49778,128.16929 L 232.02903,128.16929 L 232.02903,39.231791 C 232.02903,32.533739 227.23508,27.138041 221.27903,27.138041 L 142.81028,27.138041 z "
         id="path2519"
         sodipodi:nodetypes="ccccccccccccccccccccc" />
      <path
         style="fill:url(#linearGradient4390);fill-opacity:1.0000000;fill-rule:evenodd;stroke:none;stroke-width:0.25000000pt;stroke-linecap:butt;stroke-linejoin:miter;stroke-opacity:1.0000000"
         d="M 231.94349,127.15556 C 231.63142,98.548663 231.31935,69.941780 231.00728,41.334896 C 232.94788,36.828352 226.74583,29.879013 222.17231,30.258057 C 195.58974,30.529478 171.44996,30.800900 144.86739,31.072321 C 138.06511,30.421856 133.70562,36.285508 134.23172,41.334896 C 134.50314,70.862454 133.96031,100.39002 134.23173,129.91758 C 102.07246,129.91758 70.727455,129.91758 38.568185,129.91758 C 30.828485,130.93751 26.345843,140.91434 27.563054,147.63412 C 27.834476,171.25617 28.105897,172.89306 28.377319,196.51511 C 30.277271,232.02232 235.74339,170.63203 231.94349,127.15556 z "
         id="path3765"
         sodipodi:nodetypes="cccccccccc" />
    </g>
  </g>
</svg>
