<?xml version="1.0" encoding="UTF-8" standalone="no"?>
<!DOCTYPE svg PUBLIC "-//W3C//DTD SVG 20010904//EN"
"http://www.w3.org/TR/2001/REC-SVG-20010904/DTD/svg10.dtd">
<!-- Created with Inkscape (http://www.inkscape.org/) -->
<svg
   width="64pt"
   height="64pt"
   xmlns="http://www.w3.org/2000/svg"
   xmlns:cc="http://web.resource.org/cc/"
   xmlns:inkscape="http://www.inkscape.org/namespaces/inkscape"
   xmlns:sodipodi="http://sodipodi.sourceforge.net/DTD/sodipodi-0.dtd"
   xmlns:rdf="http://www.w3.org/1999/02/22-rdf-syntax-ns#"
   xmlns:dc="http://purl.org/dc/elements/1.1/"
   xmlns:xlink="http://www.w3.org/1999/xlink"
   id="svg13893"
   sodipodi:version="0.32"
   inkscape:version="0.40"
   sodipodi:docbase="/home/nuno/kdeplayground-artwork/oooicons/crystalsvg-reusable"
   sodipodi:docname="save.svg"
   inkscape:export-filename="/home/nuno/kdeplayground-artwork/oooicons/crystalsvg-reusable/save.png"
   inkscape:export-xdpi="36.000000"
   inkscape:export-ydpi="36.000000">
  <defs
     id="defs3">
    <linearGradient
       id="light100to0">
      <stop
         style="stop-color:#ffffff;stop-opacity:1.0000000;"
         offset="0.0000000"
         id="stop2764" />
      <stop
         style="stop-color:#ffffff;stop-opacity:0.0000000;"
         offset="1.0000000"
         id="stop2765" />
    </linearGradient>
    <linearGradient
       inkscape:collect="always"
       xlink:href="#light100to0"
       id="linearGradient6170"
       gradientUnits="userSpaceOnUse"
       gradientTransform="matrix(0.999994,-3.582198e-3,3.582198e-3,0.999994,0.000000,0.000000)"
       x1="190.11575"
       y1="151.51718"
       x2="266.35638"
       y2="218.46164" />
    <linearGradient
       inkscape:collect="always"
       xlink:href="#garylighttowite"
       id="linearGradient11886"
       gradientUnits="userSpaceOnUse"
       gradientTransform="matrix(0.999994,-3.582204e-3,3.582204e-3,0.999994,224.8481,139.4264)"
       x1="16.879744"
       y1="80.154938"
       x2="-9.3134556"
       y2="77.205276" />
    <radialGradient
       inkscape:collect="always"
       xlink:href="#light75to0"
       id="radialGradient13195"
       gradientUnits="userSpaceOnUse"
       gradientTransform="scale(1.018448,0.981886)"
       cx="262.35825"
       cy="234.94638"
       fx="262.35825"
       fy="234.94638"
       r="74.087990" />
    <linearGradient
       id="sadow75to0w">
      <stop
         style="stop-color:#000000;stop-opacity:0.72941178;"
         offset="0.0000000"
         id="stop3429" />
      <stop
         style="stop-color:#ffffff;stop-opacity:0.0000000;"
         offset="1.0000000"
         id="stop3430" />
    </linearGradient>
    <radialGradient
       inkscape:collect="always"
       xlink:href="#sadow75to0w"
       id="radialGradient13821"
       gradientTransform="scale(1.018381,0.981951)"
       cx="227.65804"
       cy="210.55679"
       fx="227.65804"
       fy="210.55679"
       r="49.857635"
       gradientUnits="userSpaceOnUse" />
    <linearGradient
       inkscape:collect="always"
       xlink:href="#garylighttowite"
       id="linearGradient11884"
       gradientUnits="userSpaceOnUse"
       gradientTransform="matrix(0.999994,-3.582204e-3,3.582204e-3,0.999994,224.8481,131.9264)"
       x1="16.879744"
       y1="80.154938"
       x2="-9.3134556"
       y2="77.205276" />
    <linearGradient
       id="light75to0">
      <stop
         style="stop-color:#ffffff;stop-opacity:0.72916669;"
         offset="0.0000000"
         id="stop2769" />
      <stop
         style="stop-color:#ffffff;stop-opacity:0.0000000;"
         offset="1.0000000"
         id="stop2770" />
    </linearGradient>
    <linearGradient
       inkscape:collect="always"
       xlink:href="#light75to0"
       id="linearGradient6172"
       gradientUnits="userSpaceOnUse"
       gradientTransform="matrix(0.999994,-3.582203e-3,3.582203e-3,0.999994,-0.905689,-1.584956)"
       x1="242.51910"
       y1="181.63605"
       x2="216.75307"
       y2="170.21925" />
    <linearGradient
       inkscape:collect="always"
       xlink:href="#garylighttowite"
       id="linearGradient6171"
       gradientUnits="userSpaceOnUse"
       gradientTransform="matrix(0.999994,-3.582204e-3,3.582204e-3,0.999994,223.7271,126.8315)"
       x1="13.340878"
       y1="63.247265"
       x2="1.6239637"
       y2="33.233250" />
    <linearGradient
       id="garylighttowite">
      <stop
         style="stop-color:#7d7d7d;stop-opacity:1.0000000;"
         offset="0.0000000"
         id="stop5106" />
      <stop
         style="stop-color:#d3d4d4;stop-opacity:1.0000000;"
         offset="1.0000000"
         id="stop5107" />
    </linearGradient>
    <linearGradient
       inkscape:collect="always"
       xlink:href="#garylighttowite"
       id="linearGradient6174"
       gradientUnits="userSpaceOnUse"
       gradientTransform="matrix(0.999994,-3.582204e-3,3.582204e-3,0.999994,224.8481,121.9264)"
       x1="16.879744"
       y1="80.154938"
       x2="-9.3134556"
       y2="77.205276" />
    <linearGradient
       id="wihitetolightgray">
      <stop
         style="stop-color:#ffffff;stop-opacity:1.0000000;"
         offset="0.0000000"
         id="stop1885" />
      <stop
         style="stop-color:#d5d4d4;stop-opacity:1.0000000;"
         offset="1.0000000"
         id="stop1886" />
    </linearGradient>
    <linearGradient
       inkscape:collect="always"
       xlink:href="#wihitetolightgray"
       id="linearGradient6173"
       gradientUnits="userSpaceOnUse"
       gradientTransform="matrix(0.999994,-3.582203e-3,3.582203e-3,0.999994,85.00000,-5.000000)"
       x1="127.14183"
       y1="207.17534"
       x2="169.35942"
       y2="233.46652" />
    <linearGradient
       inkscape:collect="always"
       xlink:href="#wihitetolightgray"
       id="linearGradient14646"
       gradientUnits="userSpaceOnUse"
       gradientTransform="matrix(0.999994,-3.582203e-3,3.582203e-3,0.999994,85.00000,-5.000000)"
       x1="127.14183"
       y1="207.17534"
       x2="169.35942"
       y2="233.46652" />
    <linearGradient
       inkscape:collect="always"
       xlink:href="#garylighttowite"
       id="linearGradient14647"
       gradientUnits="userSpaceOnUse"
       gradientTransform="matrix(0.999994,-3.582204e-3,3.582204e-3,0.999994,224.8481,121.9264)"
       x1="16.879744"
       y1="80.154938"
       x2="-9.3134556"
       y2="77.205276" />
    <linearGradient
       inkscape:collect="always"
       xlink:href="#garylighttowite"
       id="linearGradient14648"
       gradientUnits="userSpaceOnUse"
       gradientTransform="matrix(0.999994,-3.582204e-3,3.582204e-3,0.999994,223.7271,126.8315)"
       x1="13.340878"
       y1="63.247265"
       x2="1.6239637"
       y2="33.233250" />
    <linearGradient
       inkscape:collect="always"
       xlink:href="#light75to0"
       id="linearGradient14649"
       gradientUnits="userSpaceOnUse"
       gradientTransform="matrix(0.999994,-3.582203e-3,3.582203e-3,0.999994,-0.905689,-1.584956)"
       x1="242.51910"
       y1="181.63605"
       x2="216.75307"
       y2="170.21925" />
    <linearGradient
       inkscape:collect="always"
       xlink:href="#garylighttowite"
       id="linearGradient14650"
       gradientUnits="userSpaceOnUse"
       gradientTransform="matrix(0.999994,-3.582204e-3,3.582204e-3,0.999994,224.8481,131.9264)"
       x1="16.879744"
       y1="80.154938"
       x2="-9.3134556"
       y2="77.205276" />
    <radialGradient
       inkscape:collect="always"
       xlink:href="#sadow75to0w"
       id="radialGradient14651"
       gradientUnits="userSpaceOnUse"
       gradientTransform="scale(1.018381,0.981951)"
       cx="227.65804"
       cy="210.55679"
       fx="227.65804"
       fy="210.55679"
       r="49.857635" />
    <radialGradient
       inkscape:collect="always"
       xlink:href="#light75to0"
       id="radialGradient14652"
       gradientUnits="userSpaceOnUse"
       gradientTransform="scale(1.018448,0.981886)"
       cx="262.35825"
       cy="234.94638"
       fx="262.35825"
       fy="234.94638"
       r="74.087990" />
    <linearGradient
       inkscape:collect="always"
       xlink:href="#garylighttowite"
       id="linearGradient14653"
       gradientUnits="userSpaceOnUse"
       gradientTransform="matrix(0.999994,-3.582204e-3,3.582204e-3,0.999994,224.8481,139.4264)"
       x1="16.879744"
       y1="80.154938"
       x2="-9.3134556"
       y2="77.205276" />
    <linearGradient
       inkscape:collect="always"
       xlink:href="#light100to0"
       id="linearGradient14654"
       gradientUnits="userSpaceOnUse"
       gradientTransform="matrix(0.999994,-3.582198e-3,3.582198e-3,0.999994,0.000000,0.000000)"
       x1="190.11575"
       y1="151.51718"
       x2="266.35638"
       y2="218.46164" />
  </defs>
  <sodipodi:namedview
     id="base"
     pagecolor="#ffffff"
     bordercolor="#666666"
     borderopacity="1.0"
     inkscape:pageopacity="0.0"
     inkscape:pageshadow="2"
     inkscape:zoom="5.9218750"
     inkscape:cx="34.446154"
     inkscape:cy="44.839287"
     inkscape:current-layer="layer1"
     showgrid="true"
     inkscape:grid-bbox="true"
     gridspacingy="1.0000000pt"
     gridspacingx="1.0000000pt"
     gridoriginy="0.0000000pt"
     gridoriginx="0.0000000pt"
     inkscape:window-width="640"
     inkscape:window-height="538"
     inkscape:window-x="255"
     inkscape:window-y="251" />
  <metadata
     id="metadata4">
    <rdf:RDF
       id="RDF5">
      <cc:Work
         rdf:about=""
         id="Work6">
        <dc:format
           id="format7">image/svg+xml</dc:format>
        <dc:type
           id="type9"
           rdf:resource="http://purl.org/dc/dcmitype/StillImage" />
      </cc:Work>
    </rdf:RDF>
  </metadata>
  <g
     id="layer1"
     inkscape:label="Layer 1"
     inkscape:groupmode="layer">
    <g
       id="g14600"
       transform="translate(6.250582e-2,1.187484)">
      <path
         d="M 195.82544,161.52373 C 195.30077,161.52702 194.88009,161.93512 194.88190,162.43999 L 195.13165,232.35894 C 195.13416,232.86169 195.55777,233.26959 196.08244,233.26771 L 268.59716,233.00653 C 269.12183,233.00465 269.54321,232.59443 269.54070,232.09169 L 269.32689,172.20792 C 269.32482,172.02549 269.26832,171.84680 269.16242,171.69656 L 262.07172,161.68735 C 261.89406,161.43908 261.60077,161.28740 261.28611,161.28923 L 195.82544,161.52373 z "
         id="path3555"
         sodipodi:nodetypes="ccccccccccc"
         transform="translate(-192.3819,-158.2677)" />
      <g
         id="g10635"
         transform="matrix(0.709635,0.704569,-0.704569,0.709635,-29.34850,-31.51460)">
						<path
   d="M 97.977000,42.557000 L 97.590000,42.170000 L 94.502000,45.255000 L 97.479000,48.231000 L 97.883000,47.826000 L 95.295000,45.240000 L 97.977000,42.557000 z "
   id="path10637"
   style="fill:#999999" />

						<path
   d="M 97.977000,42.557000 L 95.295000,45.240000 L 97.883000,47.826000 L 100.56500,45.145000 L 97.977000,42.557000 z "
   id="path10639"
   style="fill:#eeeeee" />

					</g>
      <path
         d="M 257.20946,225.52911 C 257.21981,227.82789 255.13347,229.69931 252.55184,229.70785 L 210.85120,229.85723 C 208.26887,229.86648 206.16987,228.00793 206.16235,225.71055 L 206.06374,198.97362 C 206.05692,196.67412 208.14397,194.80341 210.72630,194.79274 L 252.42482,194.64549 C 255.00574,194.63483 257.10544,196.49267 257.11368,198.79075 L 257.20946,225.52911 z "
         id="path3526"
         style="fill:url(#linearGradient14646);fill-opacity:1.0000000"
         transform="translate(-192.3819,-158.2677)" />
      <path
         d="M 210.70585,200.67923 C 210.35372,200.68191 210.07257,200.95657 210.07518,201.29173 C 210.07498,201.62973 210.35949,201.89812 210.70950,201.89616 L 252.46671,201.74657 C 252.81743,201.74532 253.09718,201.47490 253.09598,201.13832 C 253.09477,200.80174 252.81236,200.52840 252.46376,200.53035 L 210.70585,200.67923 z "
         id="path3535"
         style="fill:url(#linearGradient14647);fill-opacity:1.0000000"
         transform="translate(-192.3819,-158.2677)" />
      <path
         d="M 253.93610,189.35846 L 217.89794,189.48756 L 217.80614,163.66348 L 253.84217,163.53368 L 253.93610,189.35846 z "
         id="path3502"
         style="fill:url(#linearGradient14648);fill-opacity:1.0000000"
         transform="translate(-192.3819,-158.2677)" />
      <path
         d="M 251.88068,185.61754 L 243.07725,185.64766 L 243.00383,165.15160 L 251.80866,165.11864 L 251.88068,185.61754 z "
         id="path3517"
         transform="translate(-192.3819,-158.2677)" />
      <path
         a:adobe-blending-mode="screen"
         d="M 209.08463,162.28594 C 208.56066,162.28711 208.13921,162.67894 208.14023,163.16189 L 208.23732,190.06642 C 208.23905,190.55007 208.66259,190.93817 209.18655,190.93559 L 254.50825,190.77253 C 255.03292,190.77065 255.45437,190.38023 255.45264,189.89657 L 255.35626,162.99276 C 255.35454,162.51051 254.92888,162.12313 254.40633,162.12288 L 209.08463,162.28594 z M 253.46577,163.87210 C 253.47143,165.45177 253.55025,187.45395 253.55520,189.03433 C 251.78037,189.04069 211.90265,189.18354 210.12782,189.18990 C 210.12216,187.60882 210.04263,165.60593 210.03839,164.02767 C 211.81322,164.02131 251.68882,163.87776 253.46577,163.87210 z "
         id="path3515"
         style="opacity:0.29999998;fill:url(#linearGradient14649);fill-opacity:1.0000000"
         transform="translate(-192.3819,-158.2677)" />
      <path
         d="M 210.70585,210.67923 C 210.35372,210.68191 210.07257,210.95657 210.07518,211.29173 C 210.07498,211.62973 210.35949,211.89812 210.70950,211.89616 L 252.46671,211.74657 C 252.81743,211.74532 253.09718,211.47490 253.09598,211.13832 C 253.09477,210.80174 252.81236,210.52840 252.46376,210.53035 L 210.70585,210.67923 z "
         id="path11883"
         style="fill:url(#linearGradient14650);fill-opacity:1.0000000"
         transform="translate(-192.3819,-158.2677)" />
      <path
         d="M 264.12753,193.91556 C 264.19165,211.81656 249.19508,226.38020 230.63507,226.44527 C 212.06869,226.51249 196.96958,212.05524 196.90405,194.15849 C 196.84064,176.25820 211.83720,161.69315 230.40146,161.62665 C 248.96430,161.56015 264.06412,176.01669 264.12753,193.91556 z "
         id="path3476"
         style="opacity:0.20000000;fill:url(#radialGradient14651);fill-opacity:1.0000000"
         transform="translate(-192.3819,-158.2677)" />
      <g
         id="g3469"
         transform="matrix(0.709635,0.704569,-0.704569,0.709635,33.15150,-31.51460)">
						<path
   d="M 97.977000,42.557000 L 97.590000,42.170000 L 94.502000,45.255000 L 97.479000,48.231000 L 97.883000,47.826000 L 95.295000,45.240000 L 97.977000,42.557000 z "
   id="path3471"
   style="fill:#999999" />

						<path
   d="M 97.977000,42.557000 L 95.295000,45.240000 L 97.883000,47.826000 L 100.56500,45.145000 L 97.977000,42.557000 z "
   id="path3473"
   style="fill:#eeeeee" />

					</g>
      <path
         d="M 197.30957,163.15236 C 196.80880,163.15549 196.40728,163.54501 196.40901,164.02689 L 196.64739,230.76102 C 196.64977,231.24088 197.05408,231.63020 197.55486,231.62841 L 266.76653,231.37911 C 267.26730,231.37732 267.66950,230.98579 267.66709,230.50596 L 267.46302,173.34988 C 267.46105,173.17577 267.40713,173.00522 267.30605,172.86181 L 260.53833,163.30852 C 260.36875,163.07157 260.08883,162.92679 259.78851,162.92853 L 197.30957,163.15236 z "
         id="path13129"
         sodipodi:nodetypes="ccccccccccc"
         style="fill:url(#radialGradient14652);fill-opacity:1.0000000;stroke:none"
         transform="translate(-192.3819,-158.2677)" />
      <path
         d="M 210.70585,218.17923 C 210.35372,218.18191 210.07257,218.45657 210.07518,218.79173 C 210.07498,219.12973 210.35949,219.39812 210.70950,219.39616 L 252.46671,219.24657 C 252.81743,219.24532 253.09718,218.97490 253.09598,218.63832 C 253.09477,218.30174 252.81236,218.02840 252.46376,218.03035 L 210.70585,218.17923 z "
         id="path11885"
         style="fill:url(#linearGradient14653);fill-opacity:1.0000000"
         transform="translate(-192.3819,-158.2677)" />
      <path
         a:adobe-blending-mode="screen"
         d="M 265.77477,171.71269 C 264.00591,207.64400 225.68086,217.41425 199.82997,213.84409 L 199.64940,163.63490 L 259.49936,163.08083 L 265.77477,171.71269 z "
         id="path3489"
         style="opacity:0.80000001;fill:url(#linearGradient14654);fill-opacity:1.0000000"
         sodipodi:nodetypes="ccccc"
         transform="translate(-192.3819,-158.2677)" />
      <path
         d="M 195.82544,161.52373 C 195.30077,161.52702 194.88009,161.93512 194.88190,162.43999 L 195.13165,232.35894 C 195.13416,232.86169 195.55777,233.26959 196.08244,233.26771 L 268.59716,233.00653 C 269.12183,233.00465 269.54321,232.59443 269.54070,232.09169 L 269.32689,172.20792 C 269.32482,172.02549 269.26832,171.84680 269.16242,171.69656 L 262.07172,161.68735 C 261.89406,161.43908 261.60077,161.28740 261.28611,161.28923 L 195.82544,161.52373 z "
         id="path13974"
         sodipodi:nodetypes="ccccccccccc"
         transform="translate(-192.3819,-158.2677)"
         style="fill:none;stroke:#000000;stroke-width:5.1250000;stroke-miterlimit:4.0000000;stroke-opacity:0.051948015" />
      <path
         d="M 195.82544,161.52373 C 195.30077,161.52702 194.88009,161.93512 194.88190,162.43999 L 195.13165,232.35894 C 195.13416,232.86169 195.55777,233.26959 196.08244,233.26771 L 268.59716,233.00653 C 269.12183,233.00465 269.54321,232.59443 269.54070,232.09169 L 269.32689,172.20792 C 269.32482,172.02549 269.26832,171.84680 269.16242,171.69656 L 262.07172,161.68735 C 261.89406,161.43908 261.60077,161.28740 261.28611,161.28923 L 195.82544,161.52373 z "
         id="path14596"
         sodipodi:nodetypes="ccccccccccc"
         transform="translate(-192.3819,-158.2677)"
         style="fill:none;stroke:#000000;stroke-width:3.7500000;stroke-miterlimit:4.0000000;stroke-opacity:0.051948015" />
      <path
         d="M 195.82544,161.52373 C 195.30077,161.52702 194.88009,161.93512 194.88190,162.43999 L 195.13165,232.35894 C 195.13416,232.86169 195.55777,233.26959 196.08244,233.26771 L 268.59716,233.00653 C 269.12183,233.00465 269.54321,232.59443 269.54070,232.09169 L 269.32689,172.20792 C 269.32482,172.02549 269.26832,171.84680 269.16242,171.69656 L 262.07172,161.68735 C 261.89406,161.43908 261.60077,161.28740 261.28611,161.28923 L 195.82544,161.52373 z "
         id="path14597"
         sodipodi:nodetypes="ccccccccccc"
         transform="translate(-192.3819,-158.2677)"
         style="fill:none;stroke:#000000;stroke-width:2.7500000;stroke-miterlimit:4.0000000;stroke-opacity:0.051948015" />
      <path
         d="M 195.82544,161.52373 C 195.30077,161.52702 194.88009,161.93512 194.88190,162.43999 L 195.13165,232.35894 C 195.13416,232.86169 195.55777,233.26959 196.08244,233.26771 L 268.59716,233.00653 C 269.12183,233.00465 269.54321,232.59443 269.54070,232.09169 L 269.32689,172.20792 C 269.32482,172.02549 269.26832,171.84680 269.16242,171.69656 L 262.07172,161.68735 C 261.89406,161.43908 261.60077,161.28740 261.28611,161.28923 L 195.82544,161.52373 z "
         id="path14598"
         sodipodi:nodetypes="ccccccccccc"
         transform="translate(-192.3819,-158.2677)"
         style="fill:none;stroke:#000000;stroke-width:2.2500000;stroke-miterlimit:4.0000000;stroke-opacity:0.051948015" />
      <path
         d="M 195.82544,161.52373 C 195.30077,161.52702 194.88009,161.93512 194.88190,162.43999 L 195.13165,232.35894 C 195.13416,232.86169 195.55777,233.26959 196.08244,233.26771 L 268.59716,233.00653 C 269.12183,233.00465 269.54321,232.59443 269.54070,232.09169 L 269.32689,172.20792 C 269.32482,172.02549 269.26832,171.84680 269.16242,171.69656 L 262.07172,161.68735 C 261.89406,161.43908 261.60077,161.28740 261.28611,161.28923 L 195.82544,161.52373 z "
         id="path14599"
         sodipodi:nodetypes="ccccccccccc"
         transform="translate(-192.3819,-158.2677)"
         style="fill:none;stroke:#000000;stroke-width:1.2500000;stroke-miterlimit:4.0000000;stroke-opacity:0.051948015" />
    </g>
  </g>
</svg>
