<?xml version="1.0" encoding="UTF-8" standalone="no"?>
<!DOCTYPE svg PUBLIC "-//W3C//DTD SVG 20010904//EN"
"http://www.w3.org/TR/2001/REC-SVG-20010904/DTD/svg10.dtd">
<!-- Created with Inkscape (http://www.inkscape.org/) -->
<svg
   width="64pt"
   height="64pt"
   xmlns="http://www.w3.org/2000/svg"
   xmlns:cc="http://web.resource.org/cc/"
   xmlns:inkscape="http://www.inkscape.org/namespaces/inkscape"
   xmlns:sodipodi="http://sodipodi.sourceforge.net/DTD/sodipodi-0.dtd"
   xmlns:rdf="http://www.w3.org/1999/02/22-rdf-syntax-ns#"
   xmlns:dc="http://purl.org/dc/elements/1.1/"
   xmlns:xlink="http://www.w3.org/1999/xlink"
   id="svg1104"
   sodipodi:version="0.32"
   inkscape:version="0.40"
   sodipodi:docbase="/home/nuno/kdeplayground-artwork/oooicons/crystalsvg"
   sodipodi:docname="star.svg">
  <defs
     id="defs3">
    <linearGradient
       inkscape:collect="always"
       xlink:href="#XMLID_1_"
       id="linearGradient1115"
       gradientUnits="userSpaceOnUse"
       x1="100.6055"
       y1="37.1133"
       x2="100.6055"
       y2="139.7401" />
    <linearGradient
       id="light100to0">
      <stop
         style="stop-color:#ffffff;stop-opacity:1.0000000;"
         offset="0.0000000"
         id="stop2764" />
      <stop
         style="stop-color:#ffffff;stop-opacity:0.0000000;"
         offset="1.0000000"
         id="stop2765" />
    </linearGradient>
    <linearGradient
       inkscape:collect="always"
       xlink:href="#light100to0"
       id="linearGradient1114"
       gradientUnits="userSpaceOnUse"
       x1="146.38470"
       y1="64.407753"
       x2="307.07626"
       y2="436.28043" />
    <linearGradient
       id="redtodarkred">
      <stop
         style="stop-color:#ff0000;stop-opacity:1.0000000;"
         offset="0.0000000"
         id="stop3856" />
      <stop
         style="stop-color:#920000;stop-opacity:1.0000000;"
         offset="1.0000000"
         id="stop3855" />
    </linearGradient>
    <linearGradient
       inkscape:collect="always"
       xlink:href="#redtodarkred"
       id="linearGradient1113"
       gradientUnits="userSpaceOnUse"
       gradientTransform="scale(1.006342,0.993698)"
       x1="-110.52393"
       y1="27.161866"
       x2="439.44683"
       y2="461.30772" />
    <linearGradient
       id="orangelesstoyelow">
      <stop
         style="stop-color:#ff7d00;stop-opacity:1.0000000;"
         offset="0.0000000"
         id="stop2689" />
      <stop
         style="stop-color:#ffbe00;stop-opacity:1.0000000;"
         offset="0.25358382"
         id="stop2690" />
      <stop
         style="stop-color:#ffff00;stop-opacity:1.0000000;"
         offset="1.0000000"
         id="stop2691" />
    </linearGradient>
    <radialGradient
       inkscape:collect="always"
       xlink:href="#orangelesstoyelow"
       id="radialGradient1112"
       gradientUnits="userSpaceOnUse"
       spreadMethod="reflect"
       cx="186.75356"
       cy="103.61057"
       fx="189.43584"
       fy="25.390987"
       r="117.68623" />
    <linearGradient
       id="XMLID_1_"
       gradientUnits="userSpaceOnUse"
       x1="100.6055"
       y1="37.1133"
       x2="100.6055"
       y2="139.7401">
      <stop
         offset="0"
         style="stop-color:#FFA700"
         id="stop9" />
      <stop
         offset="0.691"
         style="stop-color:#FFFF00"
         id="stop11" />
      <stop
         offset="0.792"
         style="stop-color:#FFFC00"
         id="stop13" />
      <stop
         offset="0.8546"
         style="stop-color:#FFF400"
         id="stop15" />
      <stop
         offset="0.9067"
         style="stop-color:#FFE500"
         id="stop17" />
      <stop
         offset="0.953"
         style="stop-color:#FFD100"
         id="stop19" />
      <stop
         offset="0.9952"
         style="stop-color:#FFB700"
         id="stop21" />
      <stop
         offset="1"
         style="stop-color:#FFB300"
         id="stop23" />
      <midPointStop
         offset="0"
         style="stop-color:#FFA700"
         id="midPointStop25" />
      <midPointStop
         offset="0.5"
         style="stop-color:#FFA700"
         id="midPointStop27" />
      <midPointStop
         offset="0.691"
         style="stop-color:#FFFF00"
         id="midPointStop29" />
      <midPointStop
         offset="0.7952"
         style="stop-color:#FFFF00"
         id="midPointStop31" />
      <midPointStop
         offset="1"
         style="stop-color:#FFB300"
         id="midPointStop33" />
    </linearGradient>
    <linearGradient
       inkscape:collect="always"
       xlink:href="#XMLID_1_"
       id="linearGradient1111"
       gradientUnits="userSpaceOnUse"
       x1="100.6055"
       y1="37.1133"
       x2="100.6055"
       y2="139.7401" />
  </defs>
  <sodipodi:namedview
     id="base"
     pagecolor="#ffffff"
     bordercolor="#666666"
     borderopacity="1.0"
     inkscape:pageopacity="0.0"
     inkscape:pageshadow="2"
     inkscape:zoom="5.9218750"
     inkscape:cx="32.000000"
     inkscape:cy="42.003597"
     inkscape:current-layer="layer1"
     showgrid="true"
     inkscape:grid-bbox="true"
     gridspacingy="1.0000000pt"
     gridspacingx="1.0000000pt"
     gridoriginy="0.0000000pt"
     gridoriginx="0.0000000pt"
     inkscape:window-width="640"
     inkscape:window-height="538"
     inkscape:window-x="638"
     inkscape:window-y="25" />
  <metadata
     id="metadata4">
    <rdf:RDF
       id="RDF5">
      <cc:Work
         rdf:about=""
         id="Work6">
        <dc:format
           id="format7">image/svg+xml</dc:format>
        <dc:type
           id="type9"
           rdf:resource="http://purl.org/dc/dcmitype/StillImage" />
      </cc:Work>
    </rdf:RDF>
  </metadata>
  <g
     id="layer1"
     inkscape:label="Layer 1"
     inkscape:groupmode="layer">
    <g
       id="use1100"
       transform="matrix(0.227111,0.000000,0.000000,0.237965,-2.195681,-4.420397)">
      <path
         d="M 100.83400,121.62900 C 100.42400,121.95300 99.773000,122.31300 98.885000,122.33600 C 99.774000,122.31500 100.42400,121.99200 100.83400,121.69900 C 101.47700,121.24200 102.36700,120.23400 102.32600,118.30300 C 102.24400,120.16000 101.43000,121.15600 100.83400,121.62900 z "
         id="path1106"
         style="fill:url(#linearGradient1111)"
         transform="matrix(2.866710,0.000000,0.000000,2.859933,1.730878,-0.176255)" />
      <path
         d="M 368.14861,151.61839 C 367.25764,148.68557 364.31536,143.66923 354.63309,143.05518 L 251.99676,136.77407 C 246.12405,136.41358 238.91340,130.89011 236.86209,125.16501 L 201.21733,25.620435 C 197.83400,16.244597 192.35498,14.808740 189.37718,14.778190 C 186.40826,14.744585 180.89963,16.097956 177.36831,25.406584 L 139.86464,124.19047 C 137.67125,129.94611 130.48132,135.22823 124.49317,135.47263 L 21.773958,139.75576 C 12.112398,140.10098 9.0665179,145.02872 8.1104279,147.93709 C 7.1543379,150.84547 6.6807279,156.67749 14.199228,163.05329 L 93.625898,230.37053 C 98.228758,234.31455 100.88095,243.02745 99.261808,248.98778 L 71.407858,351.08024 C 68.797108,360.70353 72.405398,365.19746 74.782298,367.02436 C 77.174008,368.85126 82.395518,371.11197 90.580018,365.72903 L 177.17295,308.60332 C 182.24053,305.24892 191.07328,305.32224 196.08462,308.75913 L 281.56161,367.66286 C 289.62771,373.22909 294.89954,371.06309 297.32677,369.27896 C 299.75400,367.49483 303.44812,363.04978 300.97353,353.37150 L 275.06137,250.70164 C 273.58135,244.81769 276.43187,236.04674 281.04360,232.29519 L 361.78454,166.57267 C 369.38591,160.38016 369.03958,154.55120 368.14861,151.61839 z "
         id="path1107"
         style="fill:url(#radialGradient1112);stroke:url(#linearGradient1113);stroke-width:2.6780922;stroke-linejoin:round;stroke-miterlimit:4.0000000;stroke-opacity:0.41874996"
         transform="matrix(0.968471,0.000000,0.000000,0.936144,3.628952,5.987797)" />
      <path
         d="M 272.12380,210.01832 L 321.29466,168.15956 C 327.20826,163.12463 326.93597,158.38064 326.24285,155.99379 C 325.55521,153.60695 323.26679,149.52793 315.73039,149.02920 L 235.88858,143.92006 C 231.31724,143.62912 225.71444,139.13450 224.11916,134.47660 L 196.38852,53.496225 C 193.76179,45.869616 189.49573,44.702914 187.18257,44.676197 C 184.87213,44.649478 180.58684,45.750867 177.84183,53.321071 L 148.66441,133.68394 C 146.95911,138.36561 141.36732,142.66428 136.70796,142.86022 L 56.802904,146.34550 C 49.288503,146.62453 46.917566,150.63230 46.174926,153.00133 C 45.432287,155.36740 45.060967,160.11139 50.911309,165.29772 L 112.69324,220.06144 C 116.27441,223.26765 118.33730,230.35988 117.07756,235.20779 L 116.38719,237.86479 C 124.97977,238.55946 133.70164,238.96023 142.56379,238.96023 C 190.95627,238.96023 235.69055,228.20758 272.12380,210.01832 z "
         id="path1108"
         style="fill:url(#linearGradient1114)" />
      <path
         d="M 299.22339,365.51044 C 297.99702,366.50125 296.04978,367.60216 293.39366,367.67249 C 296.05278,367.60828 297.99702,366.62051 299.22339,365.72450 C 301.14668,364.32696 303.80880,361.24442 303.68617,355.33929 C 303.44089,361.01813 301.00610,364.06397 299.22339,365.51044 z "
         id="path1109"
         style="fill:url(#linearGradient1115)"
         transform="matrix(0.968471,0.000000,0.000000,0.936144,3.628952,5.987797)" />
      <path
         d="M 193.55166,276.74324 C 188.64733,273.15902 180.00320,273.08745 175.04381,276.58006 L 90.299998,347.56303 C 82.290263,353.17124 77.177363,350.81802 74.839625,348.91139 C 73.176843,347.55158 70.928905,344.72313 70.702947,339.57296 C 70.497279,345.09816 73.017518,348.00963 74.839625,349.35228 C 77.180261,351.06423 82.290263,353.18269 90.299998,348.13845 L 175.04381,294.60707 C 180.00320,291.46372 188.64733,291.53243 193.55166,294.75307 L 277.20336,349.95060 C 281.14595,352.55574 284.41068,353.35446 286.98596,353.28862 C 284.41068,353.36019 281.14595,352.47272 277.20336,349.57557 L 193.55166,276.74324 z "
         id="path1110"
         style="opacity:0.29999998;fill:#e89500" />
    </g>
  </g>
</svg>
