<?xml version="1.0" encoding="UTF-8" standalone="no"?>
<!DOCTYPE svg PUBLIC "-//W3C//DTD SVG 20010904//EN"
"http://www.w3.org/TR/2001/REC-SVG-20010904/DTD/svg10.dtd">
<!-- Created with Inkscape (http://www.inkscape.org/) -->
<svg
   width="64pt"
   height="64pt"
   xmlns="http://www.w3.org/2000/svg"
   xmlns:cc="http://web.resource.org/cc/"
   xmlns:inkscape="http://www.inkscape.org/namespaces/inkscape"
   xmlns:sodipodi="http://sodipodi.sourceforge.net/DTD/sodipodi-0.dtd"
   xmlns:rdf="http://www.w3.org/1999/02/22-rdf-syntax-ns#"
   xmlns:dc="http://purl.org/dc/elements/1.1/"
   xmlns:xlink="http://www.w3.org/1999/xlink"
   id="svg8773"
   sodipodi:version="0.32"
   inkscape:version="0.40"
   sodipodi:docbase="/home/nuno/kdeplayground-artwork/oooicons/crystalsvg"
   sodipodi:docname="word.svg"
   inkscape:export-filename="/home/nuno/kdeplayground-artwork/oooicons/crystalsvg/word.png"
   inkscape:export-xdpi="36.000000"
   inkscape:export-ydpi="36.000000">
  <defs
     id="defs3">
    <linearGradient
       id="linearGradient10104">
      <stop
         style="stop-color:#434fae;stop-opacity:0.0000000;"
         offset="0.0000000"
         id="stop10105" />
      <stop
         style="stop-color:#434fae;stop-opacity:0.0000000;"
         offset="0.50000000"
         id="stop10108" />
      <stop
         style="stop-color:#434fae;stop-opacity:0.0000000;"
         offset="0.75000000"
         id="stop10109" />
      <stop
         style="stop-color:#434fae;stop-opacity:0.079166666;"
         offset="0.87500000"
         id="stop10110" />
      <stop
         style="stop-color:#434fae;stop-opacity:0.36470589;"
         offset="1.0000000"
         id="stop10106" />
    </linearGradient>
    <linearGradient
       id="light100to0">
      <stop
         style="stop-color:#ffffff;stop-opacity:1.0000000;"
         offset="0.0000000"
         id="stop2764" />
      <stop
         style="stop-color:#ffffff;stop-opacity:0.0000000;"
         offset="1.0000000"
         id="stop2765" />
    </linearGradient>
    <linearGradient
       inkscape:collect="always"
       xlink:href="#bluelightlesstoblue"
       id="linearGradient1829"
       gradientUnits="userSpaceOnUse"
       x1="61.847698"
       y1="-20.895500"
       x2="61.847599"
       y2="119.19500"
       gradientTransform="matrix(0.600935,0.000000,0.000000,0.604436,2.779455,2.266125)" />
    <radialGradient
       cx="38.797401"
       cy="112.96090"
       r="67.358803"
       fx="38.797401"
       fy="112.96090"
       id="bluelightlesstoblue"
       gradientUnits="userSpaceOnUse">
      <stop
         style="stop-color:#d9ffff;stop-opacity:1.0000000;"
         offset="0.0055999998"
         id="stop3468" />
      <stop
         style="stop-color:#6eaafe;stop-opacity:1.0000000;"
         offset="0.24089479"
         id="stop3469" />
      <stop
         style="stop-color:#0356fe;stop-opacity:1.0000000;"
         offset="1.0000000"
         id="stop3470" />
    </radialGradient>
    <radialGradient
       inkscape:collect="always"
       xlink:href="#bluelightlesstoblue"
       id="radialGradient1828"
       gradientUnits="userSpaceOnUse"
       cx="66.165001"
       cy="113.84200"
       fx="66.165001"
       fy="113.84200"
       r="73.983902"
       gradientTransform="matrix(0.600935,0.000000,0.000000,0.604436,0.841014,-0.536171)" />
    <radialGradient
       inkscape:collect="always"
       xlink:href="#blueligtmoretoblue"
       id="radialGradient4420"
       gradientUnits="userSpaceOnUse"
       gradientTransform="matrix(0.600935,0.000000,0.000000,0.572945,2.856511,5.223199)"
       cx="61.089401"
       cy="130.22200"
       fx="61.089401"
       fy="130.22200"
       r="124.75400" />
    <radialGradient
       cx="38.797401"
       cy="112.96090"
       r="67.358803"
       fx="38.797401"
       fy="112.96090"
       id="blueligtmoretoblue"
       gradientUnits="userSpaceOnUse">
      <stop
         style="stop-color:#d9ffff;stop-opacity:1.0000000;"
         offset="0.0055999998"
         id="stop3457" />
      <stop
         style="stop-color:#6eaafe;stop-opacity:1.0000000;"
         offset="0.74217570"
         id="stop3465" />
      <stop
         style="stop-color:#0356fe;stop-opacity:1.0000000;"
         offset="1.0000000"
         id="stop3463" />
    </radialGradient>
    <radialGradient
       inkscape:collect="always"
       xlink:href="#blueligtmoretoblue"
       id="radialGradient1826"
       gradientUnits="userSpaceOnUse"
       cx="61.042000"
       cy="130.47501"
       fx="61.042000"
       fy="130.47501"
       r="130.18401"
       gradientTransform="matrix(0.600935,0.000000,0.000000,0.604436,2.875454,2.471947)" />
    <radialGradient
       inkscape:collect="always"
       xlink:href="#linearGradient10104"
       id="radialGradient10107"
       gradientTransform="matrix(0.946726,0.000000,0.000000,0.946819,1.266695,1.279073)"
       cx="40.926466"
       cy="40.946151"
       fx="40.926466"
       fy="40.946151"
       r="39.686270"
       gradientUnits="userSpaceOnUse" />
    <radialGradient
       inkscape:collect="always"
       xlink:href="#light100to0"
       id="radialGradient11354"
       gradientTransform="scale(1.197012,0.835414)"
       cx="32.163441"
       cy="9.8876038"
       fx="32.163441"
       fy="9.8876038"
       r="67.357605"
       gradientUnits="userSpaceOnUse" />
  </defs>
  <sodipodi:namedview
     id="base"
     pagecolor="#ffffff"
     bordercolor="#666666"
     borderopacity="1.0"
     inkscape:pageopacity="0.0"
     inkscape:pageshadow="2"
     inkscape:zoom="7.5781250"
     inkscape:cx="32.000000"
     inkscape:cy="32.224372"
     inkscape:current-layer="layer1"
     showgrid="false"
     inkscape:grid-bbox="false"
     gridspacingy="1.0000000pt"
     gridspacingx="1.0000000pt"
     gridoriginy="0.0000000pt"
     gridoriginx="0.0000000pt"
     inkscape:window-width="989"
     inkscape:window-height="648"
     inkscape:window-x="342"
     inkscape:window-y="44" />
  <metadata
     id="metadata4">
    <rdf:RDF
       id="RDF5">
      <cc:Work
         rdf:about=""
         id="Work6">
        <dc:format
           id="format7">image/svg+xml</dc:format>
        <dc:type
           id="type9"
           rdf:resource="http://purl.org/dc/dcmitype/StillImage" />
      </cc:Work>
    </rdf:RDF>
  </metadata>
  <g
     id="layer1"
     inkscape:label="Layer 1"
     inkscape:groupmode="layer">
    <path
       d="M 40.010345,79.542082 C 61.799115,79.542082 79.472494,61.773999 79.472494,39.976845 C 79.472494,18.321359 61.799115,0.55327869 40.010345,0.55327869 C 18.376469,0.55327869 0.55327869,18.321359 0.55327869,39.976845 C 0.55327869,61.773999 18.376469,79.542082 40.010345,79.542082 z "
       style="fill:#434fae;fill-opacity:0.081249960;fill-rule:evenodd"
       id="path10111"
       inkscape:export-filename="/home/nuno/kdeplayground-artwork/oooicons/crystalsvg/world.png"
       inkscape:export-xdpi="36.000000"
       inkscape:export-ydpi="36.000000" />
    <path
       d="M 40.010389,78.855399 C 61.426137,78.855399 78.796952,61.396246 78.796952,39.978076 C 78.796952,18.699112 61.426137,1.2399622 40.010389,1.2399622 C 18.746881,1.2399622 1.2288208,18.699112 1.2288208,39.978076 C 1.2288208,61.396246 18.746881,78.855399 40.010389,78.855399 z "
       style="fill:#434fae;fill-opacity:0.081249960;fill-rule:evenodd"
       id="path8856"
       inkscape:export-filename="/home/nuno/kdeplayground-artwork/oooicons/crystalsvg/world.png"
       inkscape:export-xdpi="36.000000"
       inkscape:export-ydpi="36.000000" />
    <path
       d="M 40.227780,77.623240 C 60.854278,77.623240 77.584915,60.718383 77.584915,39.980199 C 77.584915,19.376802 60.854278,2.4719481 40.227780,2.4719481 C 19.747911,2.4719481 2.8754562,19.376802 2.8754562,39.980199 C 2.8754562,60.718383 19.747911,77.623240 40.227780,77.623240 z "
       style="fill:url(#radialGradient1826);fill-opacity:1.0000000;fill-rule:evenodd"
       id="path20"
       inkscape:export-filename="/home/nuno/kdeplayground-artwork/oooicons/crystalsvg/world.png"
       inkscape:export-xdpi="36.000000"
       inkscape:export-ydpi="36.000000" />
    <path
       d="M 40.208829,76.277286 C 59.964571,76.277286 75.989107,60.088683 75.989107,40.226324 C 75.989107,20.492106 59.964571,4.2998818 40.208829,4.2998818 C 20.595509,4.2998818 4.4333581,20.492106 4.4333581,40.226324 C 4.4333581,60.088683 20.595509,76.277286 40.208829,76.277286 z "
       style="fill:url(#radialGradient4420);fill-opacity:1.0000000;fill-rule:evenodd"
       id="path39"
       inkscape:export-filename="/home/nuno/kdeplayground-artwork/oooicons/crystalsvg/world.png"
       inkscape:export-xdpi="36.000000"
       inkscape:export-ydpi="36.000000" />
    <path
       a:adobe-blending-mode="multiply"
       d="M 20.939299,37.127316 C 20.638231,36.840222 20.838942,35.587822 20.838942,35.587822 C 20.838942,35.587822 16.330729,33.183985 11.421089,31.739991 C 10.815347,31.560475 11.120622,30.297804 11.721556,29.815460 L 11.521445,28.467581 C 11.421089,27.794236 12.524405,24.523038 13.624719,24.236519 C 14.726833,23.947001 13.523761,26.159840 13.523761,26.159840 L 12.422848,26.834395 C 12.422848,26.834395 13.725073,28.373889 14.026143,28.373889 C 14.326010,28.373889 14.827190,27.602026 14.827190,27.602026 L 13.425207,26.643396 L 14.726232,26.062532 L 14.807959,25.556605 L 15.027901,25.485900 L 17.182855,22.173596 C 18.673174,21.554648 20.504221,20.787612 20.737985,20.675187 C 21.138809,20.484188 23.942772,18.847982 24.443952,18.464157 C 24.945133,18.079139 26.046646,18.174639 26.446869,18.174639 C 26.847092,18.174639 27.448629,17.983640 27.548984,16.923451 C 27.649941,15.865090 28.050164,15.672284 28.351232,15.961801 C 28.651100,16.248299 28.048962,16.729432 28.750854,16.923451 C 29.452748,17.116278 30.051879,17.596795 30.553660,17.116278 C 30.921432,16.763285 30.430469,16.363149 30.100555,16.057917 L 35.663411,16.057917 L 36.265549,14.324384 L 34.963322,14.132174 L 30.152837,13.652849 L 30.152837,13.075025 L 29.769439,13.140903 C 30.290450,10.238411 33.385266,10.717716 31.056643,9.0355791 C 30.913620,8.9328284 28.877052,12.292275 28.359647,12.226397 C 27.419783,12.101276 26.205294,12.091005 25.946290,12.399873 C 25.605559,12.810281 26.714887,10.992732 27.670973,10.443296 C 26.146402,10.900251 21.325701,12.572138 16.229171,18.079736 C 11.357991,23.341960 9.4163697,30.433196 9.4163697,30.681630 C 9.4163697,31.162147 10.418730,31.354973 10.520286,31.932798 C 10.618239,32.507622 8.6165249,34.433345 8.6165249,35.395015 C 8.6165249,35.839276 8.1441905,41.769380 9.8165918,46.652626 C 11.772034,52.353667 15.944928,57.116004 16.429884,57.427296 L 17.431642,56.947375 C 17.431642,56.947375 15.128258,52.809411 15.028502,52.424372 C 14.926944,52.041163 17.632355,46.460416 18.935784,46.652626 C 20.236807,46.842413 19.936939,47.230470 20.738586,46.749933 C 21.539632,46.268204 22.039611,42.320643 22.941615,41.939241 C 23.843619,41.552395 24.845377,41.073070 24.746823,40.110824 C 24.645867,39.146135 21.238564,37.416854 20.939299,37.127316 z M 28.151122,10.284939 C 28.002690,10.284939 27.839836,10.346606 27.671576,10.442106 C 28.065788,10.326043 28.250877,10.284939 28.151122,10.284939 z M 37.870647,12.207663 L 37.968598,10.765477 L 36.467462,10.859763 L 36.667575,12.207663 L 37.870647,12.207663 z M 42.678128,8.8409444 L 39.973918,7.8780828 L 40.475099,9.4187887 L 42.678128,8.8409444 z M 32.560183,12.398662 C 32.861851,12.398662 38.873006,8.3616397 38.270870,8.2631001 C 37.669333,8.1676007 37.569577,8.2631001 35.965681,8.0708893 C 34.362386,7.8780828 32.658737,10.380438 32.259115,10.765477 C 31.858892,11.150493 31.993501,12.398662 32.560183,12.398662 z M 48.896605,48.273712 C 48.896605,48.273712 48.216947,48.458076 48.991554,48.737323 C 49.766761,49.015974 52.869990,44.193182 52.869990,44.193182 L 50.252316,45.862029 L 48.896605,48.273712 z M 67.609125,33.529726 L 67.103738,32.535436 C 66.502804,29.105263 65.128465,24.712209 62.180877,20.174723 C 57.744775,13.356080 45.403370,9.4212127 45.403370,9.4212127 L 44.724913,10.252914 L 44.336709,9.6061721 L 43.368001,9.2344249 L 43.368001,10.067955 L 44.240559,10.811408 L 43.658253,11.088231 L 41.426981,11.273807 L 36.384534,14.056620 L 36.868887,16.280941 L 36.287783,16.469536 L 35.996931,16.929510 L 37.645296,19.433674 L 37.742646,20.270223 L 36.384534,20.547046 L 36.384534,22.215892 L 35.609928,22.399640 L 35.706679,23.699184 L 29.112618,28.337611 L 29.306119,30.932467 C 29.791074,31.581017 33.574562,35.477224 33.574562,35.477224 C 33.574562,35.477224 37.935548,35.659760 38.906659,35.106093 C 39.875366,34.548196 39.196910,35.659760 39.488965,35.939007 C 39.779216,36.218849 39.875967,38.164539 40.166820,38.351902 C 40.457071,38.536861 40.166820,39.647830 40.555024,40.020153 C 40.943227,40.390668 40.943227,44.842944 40.943227,44.842944 C 40.943227,44.842944 43.270649,48.829802 43.270649,49.850079 C 43.270649,50.869781 43.172696,50.778513 45.015167,50.684204 C 46.858235,50.591725 47.243433,49.850079 47.632238,49.572045 C 48.020443,49.293414 48.020443,48.644843 48.409849,48.086945 C 48.798654,47.531471 49.474104,45.399035 50.348466,44.657389 C 51.222225,43.913935 53.547244,43.356633 53.741345,42.060130 C 53.935446,40.761799 54.808006,39.740290 54.808006,39.740290 L 59.000730,35.242081 L 58.882346,35.847739 L 58.785594,38.164539 L 60.045755,37.702140 L 59.950208,35.196765 L 59.496502,34.709573 L 59.560802,34.641887 C 59.560802,34.641887 59.271151,34.086413 58.882346,34.086413 C 58.494742,34.086413 56.166118,34.641887 55.779117,34.548196 C 55.390912,34.456928 53.741345,30.003439 53.450493,29.819691 C 53.160241,29.634136 51.319577,26.574477 51.319577,26.574477 C 51.319577,26.574477 55.585014,31.767784 56.264071,33.806550 C 56.658284,34.993071 58.137787,33.887547 59.341460,32.649670 L 59.658753,33.437842 L 60.433960,33.251076 L 60.337209,32.323279 L 61.210369,32.323279 L 61.210369,33.714070 L 60.919514,34.456928 L 60.819761,35.659760 L 61.596168,36.404425 L 61.985574,35.755259 L 63.243932,34.548196 L 64.699396,33.807166 L 65.087601,34.548196 L 65.281704,35.569684 L 64.892899,36.681248 L 64.117091,37.331626 L 63.729489,39.001068 L 63.729489,39.832174 L 62.856930,39.279123 L 62.761382,37.517798 L 61.501822,37.610277 L 60.918914,39.184219 L 61.790872,40.484359 L 63.826238,40.761799 L 65.475805,39.184219 L 65.668705,36.126986 L 66.402447,35.145985 C 66.880192,36.390518 67.220922,37.695485 67.220922,38.908588 C 67.220922,40.240773 67.821255,37.986830 67.311061,33.926843 L 67.609125,33.529726 z M 43.173297,24.071506 L 37.937951,23.884739 L 40.166820,22.032145 L 41.331431,22.032145 L 43.172696,23.327458 L 43.172696,24.071506 L 43.173297,24.071506 z M 49.573259,23.421744 L 49.573259,24.256466 L 47.344390,24.256466 L 47.537893,24.811940 L 46.179178,24.998727 L 46.083027,25.461722 L 45.113719,25.277974 L 43.368602,24.905631 L 43.658854,24.442637 L 43.949105,23.884143 L 44.918416,22.865059 L 45.306019,23.607300 L 46.761483,23.513628 L 47.537893,22.680099 L 50.542567,23.234382 L 49.573259,23.421744 z M 49.766761,22.215892 L 48.602147,22.399640 L 48.411051,21.567343 L 49.862308,21.383595 L 50.058214,20.547046 L 51.124873,21.661630 L 49.766761,22.215892 z M 60.143107,41.411560 L 60.920115,40.390668 L 60.143107,40.113228 L 59.561403,40.855490 L 58.882946,41.874555 L 59.464050,42.153205 L 60.143107,41.411560 z M 55.391513,51.054740 L 54.712456,51.610809 L 54.808607,53.003428 L 55.682967,53.003428 L 55.682967,51.798193 L 56.457571,50.779108 L 56.457571,48.645439 L 55.972617,48.549344 L 55.391513,51.054740 z M 63.537188,44.749869 L 63.341284,43.266577 L 62.083527,43.266577 L 61.986175,44.376314 L 60.820362,44.193182 L 60.532514,42.986714 L 59.950809,42.617412 L 59.271752,43.452749 L 58.593296,43.266577 L 58.398592,43.913935 L 59.173799,44.100703 L 59.173799,50.128135 L 61.918871,50.797842 C 61.856374,50.910864 61.807097,51.002748 61.791473,51.054740 C 61.596168,51.704501 62.567880,51.983153 63.243932,51.704501 C 63.495723,51.600539 64.293765,50.783935 64.796148,49.572661 C 65.493833,47.888695 66.106186,45.662567 66.228176,44.875585 L 66.541264,44.193182 L 64.601445,44.936020 L 63.537188,44.749869 z "
       style="opacity:0.099999972;fill:url(#radialGradient1828);fill-opacity:1.0000000"
       id="path59"
       inkscape:export-filename="/home/nuno/kdeplayground-artwork/oooicons/crystalsvg/world.png"
       inkscape:export-xdpi="36.000000"
       inkscape:export-ydpi="36.000000" />
    <path
       d="M 28.001901,7.1475523 C 27.820419,7.1475523 27.623914,7.2212916 27.422600,7.3373432 C 27.897340,7.1959059 28.120886,7.1475523 28.001901,7.1475523 z M 39.761001,9.4558913 L 39.879385,7.7241826 L 38.063959,7.8384203 L 38.304934,9.4558913 L 39.761001,9.4558913 z M 19.274521,39.360948 C 18.909151,39.014607 19.153130,37.511376 19.153130,37.511376 C 19.153130,37.511376 13.697842,34.628218 7.7575976,32.894696 C 7.0244585,32.680121 7.3952344,31.164197 8.1193620,30.587566 L 7.8783853,28.967677 C 7.7575976,28.160756 9.0916751,24.234948 10.423948,23.891023 C 11.757422,23.542265 10.303160,26.197550 10.303160,26.197550 L 8.9690846,27.006285 C 8.9690846,27.006285 10.544735,28.852836 10.910103,28.852836 C 11.273069,28.852836 11.878811,27.928049 11.878811,27.928049 L 10.181771,26.778412 L 11.757422,26.083312 L 11.857178,25.472831 L 12.122191,25.388814 L 14.729647,21.413441 C 16.532454,20.670589 18.749302,19.751848 19.029939,19.616454 C 19.515496,19.387373 22.909577,17.425979 23.515921,16.962379 C 24.122266,16.497566 25.454538,16.617245 25.939492,16.617245 C 26.424448,16.617245 27.152782,16.385142 27.272368,15.111596 C 27.394357,13.842280 27.878710,13.610176 28.242878,13.958937 C 28.605842,14.302861 27.878710,14.880701 28.728432,15.111596 C 29.577554,15.345512 30.302883,15.921539 30.909226,15.345512 C 31.353918,14.921803 30.759594,14.441277 30.360573,14.074989 L 37.091045,14.074989 L 37.819379,11.994520 L 36.244327,11.764834 L 30.423671,11.188808 L 30.423671,10.493102 L 29.959149,10.574097 C 30.590731,7.0895254 34.332754,7.6649478 31.516171,5.6473427 C 31.343703,5.5234318 28.880470,9.5550185 28.251892,9.4770453 C 27.116124,9.3259369 25.646837,9.3138480 25.334351,9.6843668 C 24.922110,10.175773 26.263998,7.9967841 27.421999,7.3367393 C 25.575927,7.8837543 19.743250,9.8904801 13.575251,16.497566 C 7.6812796,22.815731 5.3322242,31.325582 5.3322242,31.625382 C 5.3322242,32.200200 6.5449109,32.432303 6.6669005,33.126799 C 6.7876882,33.816461 4.3641175,36.126010 4.3641175,37.281690 C 4.3641175,37.813593 3.7920273,44.930823 5.8177788,50.790826 C 8.1836618,57.634245 13.232117,63.346768 13.819831,63.722726 L 15.030114,63.144282 C 15.030114,63.144282 12.242979,58.180051 12.122792,57.717658 C 12.001403,57.257078 15.274697,50.558722 16.849146,50.790826 C 18.424198,51.020510 18.061231,51.484720 19.030540,50.905669 C 20.001050,50.329037 20.606794,45.592679 21.696890,45.133912 C 22.788789,44.669102 24.002077,44.093680 23.881890,42.939207 C 23.759299,41.783527 19.638687,39.708498 19.274521,39.360948 z M 45.578653,5.4140296 L 42.456796,4.7890437 L 42.912906,6.1079215 L 45.578653,5.4140296 z M 33.335202,9.6849728 C 33.698767,9.6849728 40.972486,4.8392112 40.244753,4.7201379 C 39.518224,4.6071080 39.335538,5.0876349 37.394517,4.8585534 C 35.455902,4.6264503 33.454788,7.2623940 32.971034,7.7241826 C 32.487282,8.1865750 32.649535,9.6849728 33.335202,9.6849728 z M 66.711139,44.499860 L 67.650400,43.275879 L 66.711139,42.942229 L 66.006842,43.833167 L 65.186566,45.054732 L 65.889659,45.390797 L 66.711139,44.499860 z M 70.816726,48.508478 L 70.581160,46.728413 L 69.057791,46.728413 L 68.940008,48.059382 L 67.529612,47.841180 L 67.181070,46.392952 L 66.476775,45.950505 L 65.655295,46.950241 L 64.834418,46.729019 L 64.598852,47.505113 L 65.537512,47.729359 L 65.537512,54.962035 L 68.859481,55.766539 C 68.783764,55.901933 68.724872,56.011941 68.706244,56.072989 C 68.468873,56.853920 69.643101,57.189381 70.463377,56.853920 C 70.768653,56.729407 71.734955,55.749011 72.341300,54.295949 C 73.186215,52.274110 73.924764,49.604320 74.073194,48.658982 L 74.454188,47.841786 L 72.106334,48.732722 L 70.816726,48.508478 z M 75.294296,34.826473 L 75.133245,33.849100 C 74.406714,29.733499 72.730105,24.470073 69.176175,19.018667 C 62.985942,9.5247971 49.443268,5.6195372 49.443268,5.6195372 L 48.055108,7.1088677 L 47.585778,6.3339812 L 46.412752,5.8854893 L 46.412752,6.8864356 L 47.469195,7.7791855 L 46.766101,8.1128357 L 44.066100,8.3346618 L 37.964204,11.674170 L 38.550117,14.342753 L 37.845820,14.569416 L 37.494874,15.122475 L 39.488777,18.127730 L 39.607161,19.130488 L 37.964204,19.464136 L 37.964204,21.466632 L 37.025544,21.687251 L 37.143928,23.246091 L 29.164712,28.812944 L 29.400278,31.925786 C 29.986791,32.704902 34.562912,37.380214 34.562912,37.380214 C 34.562912,37.380214 39.841525,37.600832 41.015153,36.934744 C 42.188778,36.265633 41.367300,37.600832 41.720049,37.935086 C 42.070394,38.269338 42.188778,40.604876 42.539724,40.829727 C 42.891874,41.050951 42.539724,42.384335 43.008455,42.832223 C 43.478386,43.275879 43.478386,48.619694 43.478386,48.619694 C 43.478386,48.619694 46.294367,53.401987 46.294367,54.627783 C 46.294367,55.850556 46.177786,55.739946 48.407856,55.629938 C 50.637927,55.517511 51.105454,54.627783 51.574784,54.294739 C 52.045316,53.959277 52.045316,53.182577 52.514648,52.512862 C 52.984579,51.844961 53.802451,49.286386 54.860698,48.396656 C 55.916541,47.503906 58.730719,46.835400 58.966286,45.279582 C 59.200650,43.721951 60.257095,42.497365 60.257095,42.497365 L 65.328989,37.097337 L 65.185965,37.823870 L 65.069384,40.604272 L 66.593356,40.049400 L 66.476775,37.043541 L 65.928721,36.461472 L 66.006842,36.377453 C 66.006842,36.377453 65.655295,35.710157 65.186566,35.710157 C 64.717236,35.710157 61.900053,36.377453 61.431322,36.265633 C 60.961992,36.153813 58.966286,30.813020 58.614138,30.591796 C 58.261990,30.368156 56.034324,26.695606 56.034324,26.695606 C 56.034324,26.695606 61.195755,32.929148 62.015432,35.375905 C 62.493776,36.798746 64.283961,35.472615 65.741230,33.986308 L 66.124625,34.930435 L 67.064489,34.705585 L 66.946105,33.595841 L 68.001346,33.595841 L 68.001346,35.264689 L 67.650400,36.154417 L 67.529612,37.601436 L 68.468873,38.492980 L 68.939407,37.715675 L 70.462776,36.266238 L 72.224117,35.377113 L 72.693447,36.266238 L 72.929014,37.492637 L 72.457280,38.825418 L 71.519822,39.604536 L 71.050492,41.609448 L 71.050492,42.607977 L 69.995249,41.940075 L 69.878067,39.828178 L 68.353493,39.939998 L 67.650400,41.828859 L 68.706244,43.390116 L 71.167674,43.722557 L 73.164580,41.828859 L 73.398346,38.160539 L 74.284724,36.981889 C 74.863424,38.474846 75.275064,40.040939 75.275064,41.498233 C 75.275064,43.096362 76.003398,40.391511 75.385036,35.519156 L 75.294296,34.826473 z M 46.177786,23.692164 L 39.842727,23.467313 L 42.539724,21.242990 L 43.947115,21.242990 L 46.177786,22.800017 L 46.177786,23.692164 z M 53.922037,22.913046 L 53.922037,23.914597 L 51.223237,23.914597 L 51.459404,24.581893 L 49.814644,24.808556 L 49.698063,25.362825 L 48.524438,25.140393 L 46.412752,24.693715 L 46.766101,24.138239 L 47.116446,23.467916 L 48.289472,22.246354 L 48.759403,23.137290 L 50.520745,23.025470 L 51.460005,22.022712 L 55.095063,22.690009 L 53.922037,22.913046 z M 54.155800,21.466027 L 52.747810,21.686647 L 52.514047,20.685700 L 54.271180,20.463872 L 54.506746,19.464136 L 55.799959,20.800543 L 54.155800,21.466027 z M 60.961391,56.072384 L 60.138711,56.740286 L 60.257095,58.410946 L 61.312337,58.410946 L 61.312337,56.966950 L 62.252200,55.739946 L 62.252200,53.183183 L 61.663885,53.067735 L 60.961391,56.072384 z M 53.100559,52.737108 C 53.100559,52.737108 52.280283,52.955309 53.217140,53.291981 C 54.155800,53.626837 57.911045,47.840576 57.911045,47.840576 L 54.742314,49.841258 L 53.100559,52.737108 z M 46.715622,74.064619 L 46.012529,73.391277 L 44.604537,73.167034 L 44.370773,73.840979 L 42.494655,73.616733 L 42.376872,72.721564 L 40.970082,72.721564 L 39.444307,73.616733 L 36.747311,73.616733 L 36.514148,72.944599 L 32.174795,72.494296 L 31.470500,73.167034 L 29.712163,72.721564 L 29.478399,71.150636 L 28.658123,71.036396 L 27.719462,72.721564 L 24.553135,72.607930 C 25.118615,72.877507 29.847375,75.715936 37.098857,76.309493 C 46.714420,77.090424 51.286936,74.737960 51.286936,74.737960 L 50.935389,74.401291 L 46.715622,74.064619 z "
       style="fill:url(#linearGradient1829);fill-opacity:1.0000000"
       id="path72"
       inkscape:export-filename="/home/nuno/kdeplayground-artwork/oooicons/crystalsvg/world.png"
       inkscape:export-xdpi="36.000000"
       inkscape:export-ydpi="36.000000" />
    <path
       a:adobe-blending-mode="screen"
       d="M 40.258759,69.650281 C 24.001661,69.650281 10.482425,59.891062 9.2438969,44.625436 C 9.1826016,45.376145 9.1411365,46.131085 9.1411365,46.895697 C 9.1411365,63.223921 23.197610,76.534197 40.258759,76.534197 C 57.440095,76.534197 71.378186,63.223921 71.378186,46.895697 C 71.378186,46.131085 71.337923,45.376145 71.277228,44.625436 C 70.047113,59.891062 56.630035,69.650281 40.258759,69.650281 z "
       style="opacity:0.49999997;fill:#ffffff"
       id="path78"
       inkscape:export-filename="/home/nuno/kdeplayground-artwork/oooicons/crystalsvg/world.png"
       inkscape:export-xdpi="36.000000"
       inkscape:export-ydpi="36.000000" />
    <path
       d="M 27.867613,7.1827731 C 27.686131,7.1827731 27.489626,7.2565124 27.288312,7.3725639 C 27.763052,7.2311266 27.986598,7.1827731 27.867613,7.1827731 z M 39.626713,9.4911121 L 39.745097,7.7594033 L 37.929671,7.8736410 L 38.170646,9.4911121 L 39.626713,9.4911121 z M 19.140233,39.396167 C 18.774863,39.049826 19.018842,37.546595 19.018842,37.546595 C 19.018842,37.546595 13.563554,34.663437 7.6233096,32.929915 C 6.8901704,32.715340 7.2609464,31.199416 7.9850740,30.622785 L 7.7440973,29.002896 C 7.6233096,28.195975 8.9573870,24.270167 10.289660,23.926242 C 11.623134,23.577483 10.168872,26.232769 10.168872,26.232769 L 8.8347966,27.041505 C 8.8347966,27.041505 10.410447,28.888055 10.775815,28.888055 C 11.138781,28.888055 11.744523,27.963268 11.744523,27.963268 L 10.047483,26.813632 L 11.623134,26.118531 L 11.722890,25.508050 L 11.987903,25.424033 L 14.595359,21.448660 C 16.398166,20.705808 18.615014,19.787068 18.895651,19.651674 C 19.381208,19.422593 22.775289,17.461200 23.381633,16.997600 C 23.987977,16.532787 25.320250,16.652467 25.805204,16.652467 C 26.290159,16.652467 27.018493,16.420364 27.138079,15.146818 C 27.260069,13.877502 27.744422,13.645399 28.108590,13.994159 C 28.471554,14.338082 27.744422,14.915922 28.594144,15.146818 C 29.443266,15.380733 30.168595,15.956762 30.774938,15.380733 C 31.219630,14.957025 30.625306,14.476498 30.226285,14.110211 L 36.956757,14.110211 L 37.685091,12.029741 L 36.110039,11.800055 L 30.289383,11.224029 L 30.289383,10.528323 L 29.824860,10.609318 C 30.456443,7.1247462 34.198465,7.7001686 31.381883,5.6825636 C 31.209415,5.5586526 28.746181,9.5902392 28.117603,9.5122662 C 26.981836,9.3611578 25.512548,9.3490688 25.200063,9.7195875 C 24.787822,10.210994 26.129709,8.0320049 27.287711,7.3719601 C 25.441639,7.9189750 19.608962,9.9257012 13.440963,16.532787 C 7.5469915,22.850950 5.1979362,31.360801 5.1979362,31.660601 C 5.1979362,32.235419 6.4106229,32.467522 6.5326124,33.162018 C 6.6534002,33.851680 4.2298295,36.161229 4.2298295,37.316909 C 4.2298295,37.848812 3.6577392,44.966042 5.6834907,50.826044 C 8.0493738,57.669464 13.097829,63.381987 13.685543,63.757946 L 14.895826,63.179501 C 14.895826,63.179501 12.108691,58.215270 11.988504,57.752877 C 11.867115,57.292297 15.140409,50.593941 16.714858,50.826044 C 18.289910,51.055729 17.926943,51.519938 18.896252,50.940888 C 19.866762,50.364256 20.472506,45.627898 21.562602,45.169131 C 22.654501,44.704321 23.867788,44.128899 23.747602,42.974426 C 23.625011,41.818745 19.504399,39.743718 19.140233,39.396167 z M 45.444364,5.4492504 L 42.322508,4.8242645 L 42.778617,6.1431422 L 45.444364,5.4492504 z M 33.200914,9.7201936 C 33.564479,9.7201936 40.838198,4.8744319 40.110465,4.7553586 C 39.383935,4.6423288 39.201249,5.1228557 37.260229,4.8937742 C 35.321614,4.6616710 33.320500,7.2976147 32.836746,7.7594033 C 32.352994,8.2217959 32.515247,9.7201936 33.200914,9.7201936 z M 66.576851,44.535079 L 67.516112,43.311099 L 66.576851,42.977448 L 65.872553,43.868386 L 65.052278,45.089951 L 65.755371,45.426016 L 66.576851,44.535079 z M 70.682438,48.543697 L 70.446872,46.763632 L 68.923503,46.763632 L 68.805719,48.094601 L 67.395324,47.876399 L 67.046782,46.428171 L 66.342486,45.985725 L 65.521007,46.985461 L 64.700130,46.764238 L 64.464564,47.540333 L 65.403224,47.764579 L 65.403224,54.997254 L 68.725193,55.801758 C 68.649476,55.937152 68.590584,56.047160 68.571956,56.108209 C 68.334585,56.889139 69.508813,57.224600 70.329089,56.889139 C 70.634365,56.764626 71.600667,55.784230 72.207011,54.331168 C 73.051927,52.309330 73.790476,49.639539 73.938906,48.694202 L 74.319900,47.877005 L 71.972046,48.767941 L 70.682438,48.543697 z M 75.160007,34.861692 L 74.998956,33.884319 C 74.272425,29.768718 72.595817,24.505292 69.041887,19.053888 C 62.851654,9.5600179 49.308979,5.6547580 49.308979,5.6547580 L 47.920820,7.1440885 L 47.451490,6.3692019 L 46.278463,5.9207102 L 46.278463,6.9216564 L 47.334906,7.8144064 L 46.631813,8.1480565 L 43.931812,8.3698826 L 37.829915,11.709392 L 38.415829,14.377975 L 37.711531,14.604639 L 37.360586,15.157697 L 39.354489,18.162951 L 39.472873,19.165708 L 37.829915,19.499356 L 37.829915,21.501851 L 36.891256,21.722470 L 37.009640,23.281310 L 29.030424,28.848162 L 29.265990,31.961005 C 29.852502,32.740122 34.428623,37.415433 34.428623,37.415433 C 34.428623,37.415433 39.707237,37.636051 40.880865,36.969963 C 42.054490,36.300853 41.233012,37.636051 41.585761,37.970305 C 41.936106,38.304557 42.054490,40.640096 42.405436,40.864946 C 42.757585,41.086170 42.405436,42.419554 42.874167,42.867442 C 43.344098,43.311099 43.344098,48.654913 43.344098,48.654913 C 43.344098,48.654913 46.160079,53.437207 46.160079,54.663002 C 46.160079,55.885775 46.043498,55.775165 48.273568,55.665157 C 50.503639,55.552730 50.971166,54.663002 51.440496,54.329959 C 51.911027,53.994496 51.911027,53.217796 52.380359,52.548082 C 52.850290,51.880180 53.668162,49.321605 54.726410,48.431875 C 55.782252,47.539125 58.596431,46.870619 58.831997,45.314801 C 59.066362,43.757170 60.122807,42.532584 60.122807,42.532584 L 65.194700,37.132556 L 65.051677,37.859089 L 64.935095,40.639491 L 66.459068,40.084619 L 66.342486,37.078760 L 65.794433,36.496691 L 65.872553,36.412672 C 65.872553,36.412672 65.521007,35.745376 65.052278,35.745376 C 64.582948,35.745376 61.765764,36.412672 61.297033,36.300853 C 60.827703,36.189032 58.831997,30.848240 58.479850,30.627015 C 58.127702,30.403376 55.900035,26.730825 55.900035,26.730825 C 55.900035,26.730825 61.061467,32.964368 61.881144,35.411124 C 62.359488,36.833965 64.149673,35.507834 65.606942,34.021527 L 65.990337,34.965654 L 66.930200,34.740804 L 66.811816,33.631060 L 67.867058,33.631060 L 67.867058,35.299908 L 67.516112,36.189636 L 67.395324,37.636655 L 68.334585,38.528199 L 68.805119,37.750894 L 70.328488,36.301457 L 72.089829,35.412332 L 72.559159,36.301457 L 72.794725,37.527857 L 72.322992,38.860637 L 71.385534,39.639755 L 70.916204,41.644667 L 70.916204,42.643196 L 69.860961,41.975294 L 69.743778,39.863397 L 68.219205,39.975218 L 67.516112,41.864078 L 68.571956,43.425336 L 71.033386,43.757776 L 73.030292,41.864078 L 73.264057,38.195758 L 74.150436,37.017109 C 74.729136,38.510065 75.140776,40.076158 75.140776,41.533452 C 75.140776,43.131580 75.869110,40.426731 75.250747,35.554375 L 75.160007,34.861692 z M 46.043498,23.727384 L 39.708439,23.502532 L 42.405436,21.278209 L 43.812827,21.278209 L 46.043498,22.835236 L 46.043498,23.727384 z M 53.787748,22.948266 L 53.787748,23.949816 L 51.088949,23.949816 L 51.325116,24.617112 L 49.680356,24.843775 L 49.563775,25.398044 L 48.390150,25.175612 L 46.278463,24.728934 L 46.631813,24.173458 L 46.982158,23.503136 L 48.155184,22.281573 L 48.625115,23.172510 L 50.386456,23.060689 L 51.325717,22.057931 L 54.960775,22.725228 L 53.787748,22.948266 z M 54.021512,21.501246 L 52.613522,21.721866 L 52.379759,20.720919 L 54.136891,20.499092 L 54.372458,19.499356 L 55.665671,20.835763 L 54.021512,21.501246 z M 60.827102,56.107603 L 60.004423,56.775505 L 60.122807,58.446165 L 61.178048,58.446165 L 61.178048,57.002169 L 62.117912,55.775165 L 62.117912,53.218402 L 61.529597,53.102955 L 60.827102,56.107603 z M 52.966271,52.772328 C 52.966271,52.772328 52.145995,52.990528 53.082852,53.327201 C 54.021512,53.662056 57.776756,47.875795 57.776756,47.875795 L 54.608026,49.876477 L 52.966271,52.772328 z M 46.581334,74.099838 L 45.878240,73.426496 L 44.470249,73.202252 L 44.236485,73.876198 L 42.360367,73.651952 L 42.242584,72.756783 L 40.835794,72.756783 L 39.310019,73.651952 L 36.613022,73.651952 L 36.379860,72.979818 L 32.040507,72.529515 L 31.336211,73.202252 L 29.577875,72.756783 L 29.344111,71.185855 L 28.523835,71.071615 L 27.585173,72.756783 L 24.418847,72.643149 C 24.984327,72.912726 29.713086,75.751156 36.964569,76.344712 C 46.580132,77.125643 51.152648,74.773179 51.152648,74.773179 L 50.801101,74.436510 L 46.581334,74.099838 z "
       style="fill:#0000a4;fill-opacity:0.14687498"
       id="path8147"
       inkscape:export-filename="/home/nuno/kdeplayground-artwork/oooicons/crystalsvg/world.png"
       inkscape:export-xdpi="36.000000"
       inkscape:export-ydpi="36.000000" />
    <path
       a:adobe-blending-mode="screen"
       d="M 68.552069,23.864842 C 68.552069,34.796060 55.854910,43.657689 40.191535,43.657689 C 24.529364,43.657689 11.832205,34.796664 11.832205,23.864842 C 11.832205,12.933624 24.528763,4.0719921 40.191535,4.0719921 C 55.854910,4.0725961 68.552069,12.933624 68.552069,23.864842 z "
       style="fill:url(#radialGradient11354);fill-opacity:1.0;"
       id="path89"
       inkscape:export-filename="/home/nuno/kdeplayground-artwork/oooicons/crystalsvg/world.png"
       inkscape:export-xdpi="36.000000"
       inkscape:export-ydpi="36.000000" />
    <path
       d="M 40.010466,77.623408 C 60.756973,77.623408 77.584950,60.718513 77.584950,39.980286 C 77.584950,19.376845 60.756973,2.4719533 40.010466,2.4719533 C 19.411444,2.4719533 2.4408229,19.376845 2.4408229,39.980286 C 2.4408229,60.718513 19.411444,77.623408 40.010466,77.623408 z "
       style="fill:url(#radialGradient10107);fill-opacity:1.0000000;fill-rule:evenodd"
       id="path10103"
       inkscape:export-filename="/home/nuno/kdeplayground-artwork/oooicons/crystalsvg/world.png"
       inkscape:export-xdpi="36.000000"
       inkscape:export-ydpi="36.000000" />
  </g>
</svg>
