<?xml version="1.0" encoding="UTF-8" standalone="no"?>
<!-- Created with Inkscape (http://www.inkscape.org/) -->
<svg
   xmlns:dc="http://purl.org/dc/elements/1.1/"
   xmlns:cc="http://web.resource.org/cc/"
   xmlns:rdf="http://www.w3.org/1999/02/22-rdf-syntax-ns#"
   xmlns:svg="http://www.w3.org/2000/svg"
   xmlns="http://www.w3.org/2000/svg"
   xmlns:xlink="http://www.w3.org/1999/xlink"
   xmlns:sodipodi="http://sodipodi.sourceforge.net/DTD/sodipodi-0.dtd"
   xmlns:inkscape="http://www.inkscape.org/namespaces/inkscape"
   width="128"
   height="128"
   id="svg2"
   sodipodi:version="0.32"
   inkscape:version="0.45"
   version="1.0"
   sodipodi:docbase="/home/david"
   sodipodi:docname="user.svg"
   inkscape:output_extension="org.inkscape.output.svg.inkscape"
   inkscape:export-filename="/home/david/user.png"
   inkscape:export-xdpi="22.5"
   inkscape:export-ydpi="22.5"
   sodipodi:modified="TRUE">
  <defs
     id="defs4">
    <linearGradient
       inkscape:collect="always"
       id="linearGradient3603">
      <stop
         style="stop-color:#e3ad00;stop-opacity:1;"
         offset="0"
         id="stop3605" />
      <stop
         style="stop-color:#e3ad00;stop-opacity:0;"
         offset="1"
         id="stop3607" />
    </linearGradient>
    <linearGradient
       inkscape:collect="always"
       id="linearGradient3595">
      <stop
         style="stop-color:#ffffff;stop-opacity:1;"
         offset="0"
         id="stop3597" />
      <stop
         style="stop-color:#ffffff;stop-opacity:0;"
         offset="1"
         id="stop3599" />
    </linearGradient>
    <linearGradient
       inkscape:collect="always"
       id="linearGradient3498">
      <stop
         style="stop-color:#ffffff;stop-opacity:1;"
         offset="0"
         id="stop3500" />
      <stop
         style="stop-color:#ffffff;stop-opacity:0;"
         offset="1"
         id="stop3503" />
    </linearGradient>
    <linearGradient
       id="linearGradient3296">
      <stop
         style="stop-color:#803f00;stop-opacity:1"
         offset="0"
         id="stop3298" />
      <stop
         style="stop-color:#4d2600;stop-opacity:1;"
         offset="1"
         id="stop3300" />
    </linearGradient>
    <linearGradient
       id="linearGradient3683">
      <stop
         style="stop-color:#131313;stop-opacity:1;"
         offset="0"
         id="stop3685" />
      <stop
         style="stop-color:#2c2c2c;stop-opacity:1;"
         offset="1"
         id="stop3687" />
    </linearGradient>
    <linearGradient
       id="linearGradient3643">
      <stop
         style="stop-color:#000000;stop-opacity:0;"
         offset="0"
         id="stop3645" />
      <stop
         style="stop-color:#ffffff;stop-opacity:0.57731956;"
         offset="1"
         id="stop3647" />
    </linearGradient>
    <linearGradient
       id="linearGradient3628">
      <stop
         id="stop3630"
         offset="0"
         style="stop-color:#050505;stop-opacity:1" />
      <stop
         id="stop3632"
         offset="1"
         style="stop-color:#4c4c4c;stop-opacity:1;" />
    </linearGradient>
    <linearGradient
       id="linearGradient3586">
      <stop
         style="stop-color:#272727;stop-opacity:1;"
         offset="0"
         id="stop3588" />
      <stop
         style="stop-color:#444444;stop-opacity:1;"
         offset="1"
         id="stop3590" />
    </linearGradient>
    <linearGradient
       id="linearGradient3558">
      <stop
         style="stop-color:#cd9c00;stop-opacity:0;"
         offset="0"
         id="stop3560" />
      <stop
         style="stop-color:#e3ad00;stop-opacity:1;"
         offset="1"
         id="stop3562" />
    </linearGradient>
    <linearGradient
       id="linearGradient3548">
      <stop
         style="stop-color:#ffcd2c;stop-opacity:0;"
         offset="0"
         id="stop3550" />
      <stop
         style="stop-color:#e3ad00;stop-opacity:1;"
         offset="1"
         id="stop3552" />
    </linearGradient>
    <linearGradient
       id="linearGradient3538">
      <stop
         style="stop-color:#fff7bb;stop-opacity:1;"
         offset="0"
         id="stop3540" />
      <stop
         style="stop-color:#fff299;stop-opacity:1;"
         offset="1"
         id="stop3542" />
    </linearGradient>
    <linearGradient
       id="linearGradient3508">
      <stop
         style="stop-color:#323232;stop-opacity:1;"
         offset="0"
         id="stop3510" />
      <stop
         style="stop-color:#4c4c4c;stop-opacity:1;"
         offset="1"
         id="stop3512" />
    </linearGradient>
    <linearGradient
       id="linearGradient3500">
      <stop
         style="stop-color:#3f3f3f;stop-opacity:1;"
         offset="0"
         id="stop3502" />
      <stop
         style="stop-color:#0f0f0f;stop-opacity:1;"
         offset="1"
         id="stop3504" />
    </linearGradient>
    <linearGradient
       id="linearGradient3482">
      <stop
         style="stop-color:#eeeeee;stop-opacity:1;"
         offset="0"
         id="stop3484" />
      <stop
         style="stop-color:#ffffff;stop-opacity:1;"
         offset="1"
         id="stop3486" />
    </linearGradient>
    <linearGradient
       id="linearGradient3474">
      <stop
         style="stop-color:#eeeeee;stop-opacity:1;"
         offset="0"
         id="stop3476" />
      <stop
         style="stop-color:#ffffff;stop-opacity:1;"
         offset="1"
         id="stop3478" />
    </linearGradient>
    <linearGradient
       id="linearGradient3342">
      <stop
         style="stop-color:#f4f4f4;stop-opacity:1"
         offset="0"
         id="stop3344" />
      <stop
         style="stop-color:#d5d5d5;stop-opacity:1;"
         offset="1"
         id="stop3346" />
    </linearGradient>
    <linearGradient
       id="linearGradient3205">
      <stop
         style="stop-color:#000000;stop-opacity:1;"
         offset="0"
         id="stop3207" />
      <stop
         style="stop-color:#000000;stop-opacity:0;"
         offset="1"
         id="stop3209" />
    </linearGradient>
    <linearGradient
       id="linearGradient3196">
      <stop
         style="stop-color:#594e00;stop-opacity:1;"
         offset="0"
         id="stop3198" />
      <stop
         style="stop-color:#fff299;stop-opacity:1"
         offset="1"
         id="stop3200" />
    </linearGradient>
    <radialGradient
       inkscape:collect="always"
       xlink:href="#linearGradient3205"
       id="radialGradient3211"
       cx="64"
       cy="79.822052"
       fx="64"
       fy="79.822052"
       r="13"
       gradientTransform="matrix(1.4961841,0,0,0.7406308,-31.755784,23.781972)"
       gradientUnits="userSpaceOnUse" />
    <clipPath
       clipPathUnits="userSpaceOnUse"
       id="clipPath3223">
      <path
         sodipodi:type="arc"
         style="opacity:1;fill:#ffffff;fill-opacity:1;stroke:none;stroke-width:6;stroke-miterlimit:4;stroke-dasharray:none;stroke-opacity:1"
         id="path3225"
         sodipodi:cx="62.891338"
         sodipodi:cy="28.220472"
         sodipodi:rx="25.6"
         sodipodi:ry="28.220472"
         d="M 88.491339 28.220472 A 25.6 28.220472 0 1 1  37.291338,28.220472 A 25.6 28.220472 0 1 1  88.491339 28.220472 z"
         transform="matrix(1.25,0,0,1.4174107,-14.614175,0)" />
    </clipPath>
    <clipPath
       clipPathUnits="userSpaceOnUse"
       id="clipPath3236">
      <path
         style="opacity:0.77227723;fill:#ffffff;fill-opacity:1;stroke:none;stroke-width:6;stroke-miterlimit:4;stroke-dasharray:none;stroke-opacity:1"
         d="M -16,55.59375 L -16,152 L 135.6875,152 L 135.6875,55.59375 L 93.46875,55.59375 C 88.603438,69.933843 77.239378,80 64,80 C 50.760624,79.999999 39.396562,69.933843 34.53125,55.59375 L -16,55.59375 z "
         id="path3238" />
    </clipPath>
    <radialGradient
       inkscape:collect="always"
       xlink:href="#linearGradient3196"
       id="radialGradient3248"
       cx="64"
       cy="57.256832"
       fx="64"
       fy="57.256832"
       r="13"
       gradientTransform="matrix(1.4281469,0,0,1.2368151,-27.401405,-15.824471)"
       gradientUnits="userSpaceOnUse" />
    <linearGradient
       y2="59.9995"
       x2="46.590199"
       y1="59.9995"
       x1="100.936"
       gradientUnits="userSpaceOnUse"
       id="linearGradient16291"
       xlink:href="#XMLID_4_"
       inkscape:collect="always" />
    <linearGradient
       y2="60.0005"
       x2="3.9985001"
       y1="60.0005"
       x1="47.998501"
       gradientTransform="translate(-617.1419,-943.4291)"
       gradientUnits="userSpaceOnUse"
       id="linearGradient16289"
       xlink:href="#XMLID_3_"
       inkscape:collect="always" />
    <linearGradient
       y2="60"
       x2="47.998501"
       y1="60"
       x1="3.9985001"
       gradientUnits="userSpaceOnUse"
       id="linearGradient16287"
       xlink:href="#XMLID_2_"
       inkscape:collect="always" />
    <linearGradient
       y2="60.0005"
       x2="47.999001"
       y1="60.0005"
       x1="84.965302"
       gradientUnits="userSpaceOnUse"
       id="linearGradient16285"
       xlink:href="#XMLID_1_"
       inkscape:collect="always" />
    <linearGradient
       y2="-543.35211"
       x2="645.99847"
       y1="-532.10211"
       x1="645.99847"
       gradientTransform="matrix(0,-4,-4,0,-2060.408,2643.994)"
       gradientUnits="userSpaceOnUse"
       id="linearGradient16283"
       xlink:href="#polygon3293_12_"
       inkscape:collect="always" />
    <linearGradient
       y2="-17.9995"
       x2="181.9985"
       y1="-85.999496"
       x1="181.9985"
       gradientTransform="matrix(0,-1,1,0,-483.1434,-701.4306)"
       gradientUnits="userSpaceOnUse"
       id="linearGradient16281"
       xlink:href="#rect3244_12_"
       inkscape:collect="always" />
    <linearGradient
       y2="59.9995"
       x2="46.590199"
       y1="59.9995"
       x1="100.936"
       gradientUnits="userSpaceOnUse"
       id="XMLID_4_">
      <stop
         id="stop227"
         style="stop-color:#A4C0E4"
         offset="0" />
      <stop
         id="stop229"
         style="stop-color:#FFFFFF"
         offset="1" />
    </linearGradient>
    <linearGradient
       gradientTransform="translate(-617.1419,-943.4291)"
       y2="60.0005"
       x2="3.9985001"
       y1="60.0005"
       x1="47.998501"
       gradientUnits="userSpaceOnUse"
       id="XMLID_3_">
      <stop
         id="stop212"
         style="stop-color:#A4C0E4"
         offset="0" />
      <stop
         id="stop214"
         style="stop-color:#FFFFFF"
         offset="0.7" />
    </linearGradient>
    <linearGradient
       y2="60"
       x2="47.998501"
       y1="60"
       x1="3.9985001"
       gradientUnits="userSpaceOnUse"
       id="XMLID_2_">
      <stop
         id="stop197"
         style="stop-color:#6193CF"
         offset="0" />
      <stop
         id="stop199"
         style="stop-color:#6897D1"
         offset="0.1543" />
      <stop
         id="stop201"
         style="stop-color:#7AA4D7"
         offset="0.3722" />
      <stop
         id="stop203"
         style="stop-color:#98B9E0"
         offset="0.6277" />
      <stop
         id="stop205"
         style="stop-color:#C2D5EC"
         offset="0.9098" />
      <stop
         id="stop207"
         style="stop-color:#D1DFF1"
         offset="1" />
    </linearGradient>
    <linearGradient
       y2="60.0005"
       x2="47.999001"
       y1="60.0005"
       x1="84.965302"
       gradientUnits="userSpaceOnUse"
       id="XMLID_1_">
      <stop
         id="stop188"
         style="stop-color:#2C72C7"
         offset="0" />
      <stop
         id="stop190"
         style="stop-color:#6193CF"
         offset="0.15" />
      <stop
         id="stop192"
         style="stop-color:#A4C0E4"
         offset="1" />
    </linearGradient>
    <linearGradient
       gradientTransform="matrix(0,-4,-4,0,-2060.408,2643.994)"
       y2="-543.35211"
       x2="645.99847"
       y1="-532.10211"
       x1="645.99847"
       gradientUnits="userSpaceOnUse"
       id="polygon3293_12_">
      <stop
         id="stop182"
         style="stop-color:#6193CF"
         offset="0" />
      <stop
         id="stop184"
         style="stop-color:#EEEEEE"
         offset="1" />
    </linearGradient>
    <linearGradient
       gradientTransform="matrix(0,-1,1,0,-483.1434,-701.4306)"
       y2="-17.9995"
       x2="181.9985"
       y1="-85.999496"
       x1="181.9985"
       gradientUnits="userSpaceOnUse"
       id="rect3244_12_">
      <stop
         id="stop174"
         style="stop-color:#A4C0E4"
         offset="0" />
      <stop
         id="stop176"
         style="stop-color:#D1DFF1"
         offset="0.25" />
      <stop
         id="stop178"
         style="stop-color:#FFFFFF"
         offset="0.85" />
    </linearGradient>
    <radialGradient
       r="63.912209"
       fy="115.7093"
       fx="63.912209"
       cy="115.70919"
       cx="63.912209"
       gradientTransform="matrix(1,0,0,0.197802,0,92.82166)"
       gradientUnits="userSpaceOnUse"
       id="radialGradient3336"
       xlink:href="#linearGradient3291"
       inkscape:collect="always" />
    <linearGradient
       id="linearGradient3291"
       inkscape:collect="always">
      <stop
         id="stop3293"
         offset="0"
         style="stop-color:#000000;stop-opacity:1;" />
      <stop
         id="stop3295"
         offset="1"
         style="stop-color:#000000;stop-opacity:0;" />
    </linearGradient>
    <linearGradient
       inkscape:collect="always"
       xlink:href="#linearGradient3342"
       id="linearGradient3348"
       x1="70.431244"
       y1="94.955482"
       x2="70.431244"
       y2="188.29781"
       gradientUnits="userSpaceOnUse" />
    <filter
       inkscape:collect="always"
       id="filter3466">
      <feGaussianBlur
         inkscape:collect="always"
         stdDeviation="0.72193785"
         id="feGaussianBlur3468" />
    </filter>
    <filter
       inkscape:collect="always"
       id="filter3470">
      <feGaussianBlur
         inkscape:collect="always"
         stdDeviation="0.72193785"
         id="feGaussianBlur3472" />
    </filter>
    <linearGradient
       inkscape:collect="always"
       xlink:href="#linearGradient3474"
       id="linearGradient3480"
       x1="65.516732"
       y1="81.75"
       x2="80.860482"
       y2="81.75"
       gradientUnits="userSpaceOnUse" />
    <linearGradient
       inkscape:collect="always"
       xlink:href="#linearGradient3482"
       id="linearGradient3488"
       x1="62.71875"
       y1="78.726379"
       x2="47.369705"
       y2="78.726379"
       gradientUnits="userSpaceOnUse" />
    <linearGradient
       inkscape:collect="always"
       xlink:href="#linearGradient3500"
       id="linearGradient3506"
       x1="64.703125"
       y1="88.71312"
       x2="64.703125"
       y2="126.00446"
       gradientUnits="userSpaceOnUse" />
    <radialGradient
       inkscape:collect="always"
       xlink:href="#linearGradient3628"
       id="radialGradient3514"
       cx="63.905655"
       cy="166.89648"
       fx="63.905655"
       fy="166.89648"
       r="52.094346"
       gradientTransform="matrix(1.6356889,0,0,1.0353685,-40.624116,-48.79936)"
       gradientUnits="userSpaceOnUse" />
    <filter
       inkscape:collect="always"
       id="filter3534">
      <feGaussianBlur
         inkscape:collect="always"
         stdDeviation="1.2380098"
         id="feGaussianBlur3536" />
    </filter>
    <radialGradient
       inkscape:collect="always"
       xlink:href="#linearGradient3548"
       id="radialGradient3554"
       cx="64"
       cy="36.154537"
       fx="64"
       fy="36.154537"
       r="24"
       gradientTransform="matrix(1.2746676,0,0,3.014078,-17.578726,-75.810398)"
       gradientUnits="userSpaceOnUse" />
    <radialGradient
       inkscape:collect="always"
       xlink:href="#linearGradient3558"
       id="radialGradient3564"
       cx="64"
       cy="65.063179"
       fx="64"
       fy="65.063179"
       r="13"
       gradientTransform="matrix(1.7287704,-5.0248395e-2,3.3267827e-2,1.3355363,-48.805819,-21.221917)"
       gradientUnits="userSpaceOnUse" />
    <radialGradient
       inkscape:collect="always"
       xlink:href="#linearGradient3508"
       id="radialGradient3573"
       gradientUnits="userSpaceOnUse"
       gradientTransform="matrix(1.6356889,0,0,-1.0353685,-40.624116,176.79936)"
       cx="63.905655"
       cy="166.89648"
       fx="63.905655"
       fy="166.89648"
       r="52.094346" />
    <radialGradient
       inkscape:collect="always"
       xlink:href="#linearGradient3508"
       id="radialGradient3580"
       gradientUnits="userSpaceOnUse"
       gradientTransform="matrix(1.6356889,0,0,1.0353685,-40.624116,-48.79936)"
       cx="63.905655"
       cy="166.89648"
       fx="63.905655"
       fy="166.89648"
       r="52.094346" />
    <radialGradient
       inkscape:collect="always"
       xlink:href="#linearGradient3508"
       id="radialGradient3583"
       gradientUnits="userSpaceOnUse"
       gradientTransform="matrix(1.6356889,0,0,-1.0353685,-40.624116,176.79936)"
       cx="63.905655"
       cy="166.89648"
       fx="63.905655"
       fy="166.89648"
       r="52.094346" />
    <linearGradient
       inkscape:collect="always"
       xlink:href="#linearGradient3586"
       id="linearGradient3592"
       x1="67.759254"
       y1="122.43341"
       x2="67.759254"
       y2="47.19994"
       gradientUnits="userSpaceOnUse" />
    <filter
       inkscape:collect="always"
       id="filter3624">
      <feGaussianBlur
         inkscape:collect="always"
         stdDeviation="0.56621287"
         id="feGaussianBlur3626" />
    </filter>
    <radialGradient
       inkscape:collect="always"
       xlink:href="#linearGradient3628"
       id="radialGradient3638"
       gradientUnits="userSpaceOnUse"
       gradientTransform="matrix(1.6356889,0,0,1.0353685,-40.624116,-42.550541)"
       cx="63.905655"
       cy="166.89648"
       fx="63.905655"
       fy="166.89648"
       r="52.094346" />
    <radialGradient
       inkscape:collect="always"
       xlink:href="#linearGradient3628"
       id="radialGradient3640"
       gradientUnits="userSpaceOnUse"
       gradientTransform="matrix(1.6356889,0,0,-1.0353685,-40.624116,176.79936)"
       cx="63.905655"
       cy="166.89648"
       fx="63.905655"
       fy="166.89648"
       r="52.094346" />
    <linearGradient
       inkscape:collect="always"
       xlink:href="#linearGradient3643"
       id="linearGradient3681"
       x1="70.645676"
       y1="105.19494"
       x2="71.250404"
       y2="72"
       gradientUnits="userSpaceOnUse" />
    <linearGradient
       inkscape:collect="always"
       xlink:href="#linearGradient3683"
       id="linearGradient3689"
       x1="76.080978"
       y1="109.0125"
       x2="77.290428"
       y2="80.186844"
       gradientUnits="userSpaceOnUse" />
    <radialGradient
       inkscape:collect="always"
       xlink:href="#linearGradient3296"
       id="radialGradient3302"
       cx="58.758228"
       cy="-24.294632"
       fx="58.758228"
       fy="-24.294632"
       r="28.097572"
       gradientTransform="matrix(0.4797949,-0.4644551,0.1907711,0.1970718,29.732118,36.198674)"
       gradientUnits="userSpaceOnUse"
       spreadMethod="reflect" />
    <filter
       inkscape:collect="always"
       x="-0.050530545"
       width="1.1010611"
       y="-0.11028845"
       height="1.2205769"
       id="filter3400">
      <feGaussianBlur
         inkscape:collect="always"
         stdDeviation="0.89612763"
         id="feGaussianBlur3402" />
    </filter>
    <filter
       inkscape:collect="always"
       id="filter3422">
      <feGaussianBlur
         inkscape:collect="always"
         stdDeviation="0.65278313"
         id="feGaussianBlur3424" />
    </filter>
    <filter
       inkscape:collect="always"
       id="filter3473">
      <feGaussianBlur
         inkscape:collect="always"
         stdDeviation="0.29584421"
         id="feGaussianBlur3475" />
    </filter>
    <clipPath
       clipPathUnits="userSpaceOnUse"
       id="clipPath3484">
      <path
         style="opacity:1;fill:#ffffff;fill-opacity:1;stroke:none;stroke-width:4;stroke-miterlimit:4;stroke-dasharray:none;stroke-opacity:1;display:inline"
         d="M 62.088364,34.166198 C 62.501335,35.902488 62.714629,38.189369 62.760076,40.700996 C 62.848442,45.675942 62.102236,48.246556 61.166713,49.736765 C 59.954019,51.119021 60.023561,52.592554 61.166713,53.883537 C 64.312998,55.008059 66.07336,54.725079 67.883833,53.883537 C 68.873433,52.635629 68.246082,49.244998 67.227019,45.747878 C 66.144139,42.031759 67.87525,37.556188 67.883833,34.166198 C 66.425112,31.984017 61.796467,31.725432 62.088364,34.166198 z "
         id="path3486"
         sodipodi:nodetypes="cscccscc" />
    </clipPath>
    <radialGradient
       inkscape:collect="always"
       xlink:href="#linearGradient3548"
       id="radialGradient3493"
       gradientUnits="userSpaceOnUse"
       gradientTransform="matrix(1.2746676,0,0,3.014078,-5.0810882,-60.692288)"
       cx="64"
       cy="36.154537"
       fx="64"
       fy="36.154537"
       r="24" />
    <radialGradient
       inkscape:collect="always"
       xlink:href="#linearGradient3548"
       id="radialGradient3495"
       gradientUnits="userSpaceOnUse"
       gradientTransform="matrix(1.2746676,0,0,-3.014078,-17.578726,203.8104)"
       cx="64"
       cy="36.154537"
       fx="64"
       fy="36.154537"
       r="24" />
    <radialGradient
       inkscape:collect="always"
       xlink:href="#linearGradient3498"
       id="radialGradient3505"
       cx="51.706806"
       cy="18.536375"
       fx="51.706806"
       fy="18.536375"
       r="23.792452"
       gradientTransform="matrix(1.7632324,0,0,2.2001079,-39.464309,-26.928777)"
       gradientUnits="userSpaceOnUse" />
    <filter
       inkscape:collect="always"
       id="filter3531">
      <feGaussianBlur
         inkscape:collect="always"
         stdDeviation="1.0590089"
         id="feGaussianBlur3533" />
    </filter>
    <linearGradient
       inkscape:collect="always"
       xlink:href="#linearGradient3643"
       id="linearGradient3539"
       gradientUnits="userSpaceOnUse"
       x1="70.645676"
       y1="105.19494"
       x2="71.250404"
       y2="72"
       gradientTransform="translate(0,1.8141732)" />
    <linearGradient
       inkscape:collect="always"
       xlink:href="#linearGradient3643"
       id="linearGradient3541"
       gradientUnits="userSpaceOnUse"
       x1="70.645676"
       y1="105.19494"
       x2="71.250404"
       y2="72"
       gradientTransform="matrix(1,0,0,-1,0,128)" />
    <linearGradient
       inkscape:collect="always"
       xlink:href="#linearGradient3643"
       id="linearGradient3544"
       gradientUnits="userSpaceOnUse"
       gradientTransform="matrix(1,0,0,-1,0,128.40315)"
       x1="70.645676"
       y1="105.19494"
       x2="71.250404"
       y2="72" />
    <radialGradient
       inkscape:collect="always"
       xlink:href="#linearGradient3548"
       id="radialGradient3551"
       gradientUnits="userSpaceOnUse"
       gradientTransform="matrix(1.2312344,0.3299083,-0.7801008,2.9113758,33.000607,-73.2922)"
       cx="64"
       cy="36.154537"
       fx="64"
       fy="36.154537"
       r="24" />
    <radialGradient
       inkscape:collect="always"
       xlink:href="#linearGradient3548"
       id="radialGradient3582"
       gradientUnits="userSpaceOnUse"
       gradientTransform="matrix(1.2746676,0,0,-3.014078,-17.578726,203.8104)"
       cx="64"
       cy="36.154537"
       fx="64"
       fy="36.154537"
       r="24" />
    <radialGradient
       inkscape:collect="always"
       xlink:href="#linearGradient3548"
       id="radialGradient3592"
       gradientUnits="userSpaceOnUse"
       gradientTransform="matrix(1.2312344,-0.3299083,-0.7801008,-2.9113758,33.000607,201.2922)"
       cx="64"
       cy="36.154537"
       fx="64"
       fy="36.154537"
       r="24" />
    <radialGradient
       inkscape:collect="always"
       xlink:href="#linearGradient3595"
       id="radialGradient3601"
       cx="44.933468"
       cy="17.035444"
       fx="44.933468"
       fy="17.035444"
       r="23.964327"
       gradientTransform="matrix(1.0280255,0,0,1.2936477,-1.3691879,-10.537911)"
       gradientUnits="userSpaceOnUse" />
    <radialGradient
       inkscape:collect="always"
       xlink:href="#linearGradient3603"
       id="radialGradient3609"
       cx="66.993423"
       cy="40.788158"
       fx="66.993423"
       fy="40.788158"
       r="13.734881"
       gradientTransform="matrix(1.0448285,0,0,2.7158304,0.2315751,-73.412941)"
       gradientUnits="userSpaceOnUse" />
  </defs>
  <sodipodi:namedview
     id="base"
     pagecolor="#ffffff"
     bordercolor="#666666"
     borderopacity="1.0"
     gridtolerance="10000"
     guidetolerance="10"
     objecttolerance="10"
     inkscape:pageopacity="0.0"
     inkscape:pageshadow="2"
     inkscape:zoom="1"
     inkscape:cx="64"
     inkscape:cy="64"
     inkscape:document-units="px"
     inkscape:current-layer="layer1"
     width="128px"
     height="128px"
     showgrid="false"
     gridspacingx="4px"
     gridspacingy="4px"
     gridempspacing="2"
     showborder="false"
     inkscape:window-width="794"
     inkscape:window-height="736"
     inkscape:window-x="0"
     inkscape:window-y="0" />
  <metadata
     id="metadata7">
    <rdf:RDF>
      <cc:Work
         rdf:about="">
        <dc:format>image/svg+xml</dc:format>
        <dc:type
           rdf:resource="http://purl.org/dc/dcmitype/StillImage" />
      </cc:Work>
    </rdf:RDF>
  </metadata>
  <g
     inkscape:label="Layer 1"
     inkscape:groupmode="layer"
     id="layer1"
     style="display:inline">
    <path
       clip-path="url(#clipPath3236)"
       id="path3227"
       d="M 64.03125,7.75 C 50.918932,7.75 37.955531,15.47383 40.28125,33.3125 C 42.679957,44.028154 46.502225,54.942879 52,61.65625 L 52,74.125 C 39.128802,76.483747 28.318705,78.990635 16.71875,85.3125 C 13.336589,88.006008 11.761343,95.073166 11.8125,106.28125 C 11.818646,107.62787 11.877191,110.4741 11.9375,111.75 C 13.394217,113.56273 14.996385,114.45865 16.71875,115.25 L 16.71875,115.28125 C 18.105242,116.03505 19.634914,116.71967 21.25,117.375 C 44.848718,126.95039 91.149105,126.05734 111.28125,115.28125 L 111.28125,115.15625 C 112.93326,114.3826 114.50217,113.49723 115.90625,111.75 C 115.96655,110.4741 115.99948,107.62788 116,106.28125 C 116.00273,99.104041 115.55693,88.021359 111.28125,85.3125 C 100.2565,79.580334 88.081643,76.561855 76,74.21875 L 76,62.125 C 81.794153,55.444443 85.511058,44.245067 87.78125,33.3125 C 89.833357,15.331976 77.143569,7.75 64.03125,7.75 z "
       style="opacity:1;fill:none;fill-opacity:1;stroke:url(#linearGradient3689);stroke-width:4.64236832;stroke-miterlimit:4;stroke-dasharray:none;stroke-opacity:1"
       transform="matrix(0.9651752,0,0,0.9735083,2.2254986,1.7024782)" />
    <g
       id="g3324"
       inkscape:label="Layer 1"
       transform="translate(2.393169e-5,5.6051636e-7)">
      <path
         transform="matrix(1.001374,0,0,0.410363,-2.393169e-5,75.32943)"
         d="M 127.82442 115.70919 A 63.912209 12.641975 0 1 1  0,115.70919 A 63.912209 12.641975 0 1 1  127.82442 115.70919 z"
         sodipodi:ry="12.641975"
         sodipodi:rx="63.912209"
         sodipodi:cy="115.70919"
         sodipodi:cx="63.912209"
         id="path1563"
         style="opacity:0.38139535;fill:url(#radialGradient3336);fill-opacity:1;fill-rule:nonzero;stroke:none;stroke-width:0;stroke-linecap:round;stroke-linejoin:round;stroke-miterlimit:4;stroke-dasharray:none;stroke-dashoffset:4;stroke-opacity:1"
         sodipodi:type="arc" />
    </g>
    <path
       style="opacity:1;fill:#e3ad00;fill-opacity:1;stroke:#e3ad00;stroke-width:4.08254814;stroke-miterlimit:4;stroke-dasharray:none;stroke-opacity:1"
       d="M 64.03125,7.75 C 50.918932,7.75 37.955531,15.47383 40.28125,33.3125 C 42.679957,44.028154 46.502225,54.942879 52,61.65625 L 52,74.125 C 39.128802,76.483747 28.318705,78.990635 16.71875,85.3125 C 13.336589,88.006008 11.761343,95.073166 11.8125,106.28125 C 11.818646,107.62787 11.877191,110.4741 11.9375,111.75 C 13.394217,113.56273 14.996385,114.45865 16.71875,115.25 L 16.71875,115.28125 C 18.105242,116.03505 19.634914,116.71967 21.25,117.375 C 44.848718,126.95039 91.149105,126.05734 111.28125,115.28125 L 111.28125,115.15625 C 112.93326,114.3826 114.50217,113.49723 115.90625,111.75 C 115.96655,110.4741 115.99948,107.62788 116,106.28125 C 116.00273,99.104041 115.55693,88.021359 111.28125,85.3125 C 100.2565,79.580334 88.081643,76.561855 76,74.21875 L 76,62.125 C 81.794153,55.444443 85.511058,44.245067 87.78125,33.3125 C 89.833357,15.331976 77.143569,7.75 64.03125,7.75 z "
       id="path3181"
       clip-path="url(#clipPath3223)"
       transform="matrix(0.9796731,0,0,0.9798875,1.3009197,1.0613836)" />
    <path
       style="fill:url(#radialGradient3514);fill-opacity:1;stroke:none;stroke-width:2;stroke-miterlimit:4;stroke-opacity:1"
       d="M 63.874815,72 C 45.280821,75.35577 31.718076,77.133925 16.716938,85.309402 C 13.334777,88.00291 11.761361,95.080546 11.812518,106.28863 C 11.818664,107.63525 11.877964,110.45895 11.938273,111.73485 C 13.39499,113.54758 14.994573,114.45616 16.716938,115.24751 L 16.716938,115.27972 C 18.10343,116.03352 19.629008,116.7191 21.244094,117.37443 C 44.842813,126.94982 91.152055,126.05581 111.2842,115.27972 L 111.2842,115.15083 C 112.93621,114.37718 114.50159,113.48208 115.90567,111.73485 C 115.96597,110.45895 115.99947,107.63526 115.99999,106.28863 C 116.00272,99.111419 115.55988,88.018261 111.2842,85.309402 C 96.545599,77.646267 79.758449,74.833913 63.874815,72 z "
       id="path3154"
       sodipodi:nodetypes="ccscccscccscc" />
    <path
       style="opacity:0.19306934;fill:url(#linearGradient3681);fill-opacity:1;stroke:none;stroke-width:2;stroke-miterlimit:4;stroke-opacity:1"
       d="M 63.875,72 C 45.281004,75.35577 31.719888,77.137023 16.71875,85.3125 C 13.336589,88.006008 11.761343,95.073166 11.8125,106.28125 C 11.815029,106.83535 11.858105,107.68771 11.875,108.53125 C 12.188131,99.631177 13.759359,93.91932 16.71875,91.5625 C 31.719888,83.387023 45.281004,81.605772 63.875,78.25 C 79.758634,81.083913 96.542646,83.899366 111.28125,91.5625 C 114.97343,93.901684 115.81162,102.48337 115.96875,109.40625 C 115.98926,108.24095 115.9997,107.04739 116,106.28125 C 116.00273,99.104041 115.55693,88.021359 111.28125,85.3125 C 96.542646,77.649365 79.758634,74.833913 63.875,72 z "
       id="path3634" />
    <path
       style="fill:url(#linearGradient3348);fill-opacity:1;stroke:none;stroke-width:2;stroke-miterlimit:4;stroke-opacity:1"
       d="M 63.875,72 C 56.271362,73.372274 54.357407,73.678708 47.994045,75.068701 C 42.739217,101.02382 52.529085,108.4623 52.529085,123.96875 C 53.589498,123.97743 74.410561,124.011 75.470915,124 C 76.69456,112.3164 84.553209,103.70732 79.943455,75.054626 C 72.967768,73.44045 70.751539,73.226893 63.875,72 z "
       id="path3327"
       sodipodi:nodetypes="cccccc" />
    <path
       sodipodi:nodetypes="cccccc"
       id="path3516"
       d="M 63.875,72 C 56.271362,73.372274 54.357407,73.678708 47.994045,75.068701 C 42.739217,101.02382 52.529085,108.4623 52.529085,123.96875 C 53.589498,123.97743 74.410561,124.011 75.470915,124 C 76.69456,112.3164 84.553209,103.70732 79.943455,75.054626 C 72.967768,73.44045 70.751539,73.226893 63.875,72 z "
       style="fill:none;fill-opacity:1;stroke:#000000;stroke-width:2.01966763;stroke-miterlimit:4;stroke-opacity:1;filter:url(#filter3534)"
       transform="matrix(1,0,0,0.9806186,0,1.3954591)" />
    <path
       style="fill:#555555;fill-opacity:1;fill-rule:evenodd;stroke:none;stroke-width:1px;stroke-linecap:butt;stroke-linejoin:miter;stroke-opacity:1;filter:url(#filter3466)"
       d="M 76.641732,75.396949 L 80.860482,76.209449 L 70.985482,90.521949 L 65.516732,83.021949 C 69.806736,82.694327 73.817608,81.018987 76.235482,76.959449 L 76.235482,75.553199 L 76.641732,75.396949 z "
       id="path3350" />
    <path
       id="path3352"
       d="M 51.59375,75.396949 L 47.375,76.209449 L 57.25,90.521949 L 62.71875,83.021949 C 58.428746,82.694327 54.417874,81.018987 52,76.959449 L 52,75.553199 L 51.59375,75.396949 z "
       style="fill:#555555;fill-opacity:1;fill-rule:evenodd;stroke:none;stroke-width:1px;stroke-linecap:butt;stroke-linejoin:miter;stroke-opacity:1;filter:url(#filter3470)" />
    <path
       style="fill:url(#radialGradient3248);fill-opacity:1;stroke:url(#radialGradient3211);stroke-width:2;stroke-miterlimit:4;stroke-opacity:1"
       d="M 52,51.74345 L 76,51.74345 L 76,75.743449 C 73.961468,79.550179 68.877629,81.900643 64.329849,81.900643 C 59.455643,81.900643 54.717347,80.305793 52,75.743449 L 52,51.74345 z "
       id="rect3151"
       sodipodi:nodetypes="cccccc" />
    <path
       style="opacity:0.33168317;fill:url(#linearGradient3544);fill-opacity:1;stroke:none;stroke-width:2;stroke-miterlimit:4;stroke-opacity:1"
       d="M 63.875,72.40315 C 45.281004,75.75892 31.719888,77.540173 16.71875,85.71565 C 13.336589,88.409158 11.761343,95.476316 11.8125,106.6844 C 11.813238,106.8461 11.837764,107.13578 11.84375,107.34065 C 11.907975,96.826397 13.458818,90.124319 16.71875,87.52815 C 31.719888,79.352673 45.281004,77.571422 63.875,74.21565 C 79.758634,77.049563 96.542646,79.865017 111.28125,87.52815 C 115.3925,90.132835 115.96465,100.44933 116,107.6219 C 116.00191,107.32746 115.99991,106.91422 116,106.6844 C 116.00273,99.507191 115.55693,88.424509 111.28125,85.71565 C 96.542646,78.052515 79.758634,75.237063 63.875,72.40315 z "
       id="path3535" />
    <path
       sodipodi:nodetypes="cccccc"
       id="path3556"
       d="M 52,48.518254 L 76,48.518254 L 76,74.443284 C 73.961468,78.555351 68.877629,81.094345 64.329849,81.094345 C 59.455643,81.094345 54.717347,79.371572 52,74.443284 L 52,48.518254 z "
       style="fill:url(#radialGradient3564);fill-opacity:1;stroke:none;stroke-width:2;stroke-miterlimit:4;stroke-opacity:1" />
    <path
       style="fill:url(#linearGradient3506);fill-opacity:1;fill-rule:evenodd;stroke:none;stroke-width:1px;stroke-linecap:butt;stroke-linejoin:miter;stroke-opacity:1"
       d="M 63.90625,84.46875 L 61.6875,85.875 L 57.65625,123.15625 L 58.3125,123.96875 C 62.857818,123.97773 66.447205,123.99739 70.5625,124 L 71.75,122.15625 L 66.53125,85.46875 L 63.90625,84.46875 z "
       id="path3495" />
    <path
       style="opacity:1;fill:#323232;fill-opacity:1;stroke:none;stroke-width:4.5;stroke-miterlimit:4;stroke-dasharray:none;stroke-opacity:1"
       d="M 62.567106,81.581103 C 60.231767,81.581103 58.354058,83.247982 58.354058,85.306053 C 58.354058,87.364124 60.231767,89.031003 62.567106,89.031004 C 63.150941,89.031004 65.271503,89.031004 65.855338,89.031004 C 68.190678,89.031004 70.094076,87.364124 70.094076,85.306053 C 70.094076,83.247982 68.190678,81.581104 65.855338,81.581103 C 65.271503,81.581103 64.717318,81.674936 64.211222,81.863685 C 63.705127,81.674936 63.150941,81.581103 62.567106,81.581103 z "
       id="path3490"
       sodipodi:nodetypes="cssssscc" />
    <path
       id="path3340"
       d="M 76.641732,74.1875 L 80.860482,75 L 70.985482,89.3125 L 65.516732,81.8125 C 69.806736,81.484878 73.817608,79.809538 76.235482,75.75 L 76.235482,74.34375 L 76.641732,74.1875 z "
       style="fill:url(#linearGradient3480);fill-opacity:1;fill-rule:evenodd;stroke:none;stroke-width:1px;stroke-linecap:butt;stroke-linejoin:miter;stroke-opacity:1" />
    <path
       style="fill:url(#linearGradient3488);fill-opacity:1;fill-rule:evenodd;stroke:none;stroke-width:1px;stroke-linecap:butt;stroke-linejoin:miter;stroke-opacity:1"
       d="M 51.59375,74.1875 L 47.375,75 L 57.25,89.3125 L 62.71875,81.8125 C 58.428746,81.484878 54.417874,79.809538 52,75.75 L 52,74.34375 L 51.59375,74.1875 z "
       id="path3335" />
    <path
       style="fill:#fff6c8;fill-opacity:1;stroke:none;stroke-width:2;stroke-miterlimit:4;stroke-opacity:1"
       d="M 87.780728,33.318474 C 84.223743,50.447869 77.138846,68.260253 64.026528,68.260253 C 51.731838,68.381366 44.139731,50.595176 40.272328,33.318474 C 37.946608,15.479804 50.91421,7.73913 64.026528,7.73913 C 77.138846,7.73913 89.832835,15.33795 87.780728,33.318474 z "
       id="path3148"
       sodipodi:nodetypes="cccsc" />
    <path
       sodipodi:nodetypes="cccsc"
       id="path3546"
       d="M 87.780728,33.318474 C 84.223743,50.447869 77.138846,68.260253 64.026528,68.260253 C 51.731838,68.381366 44.139731,50.595176 40.272328,33.318474 C 37.946608,15.479804 50.91421,7.73913 64.026528,7.73913 C 77.138846,7.73913 89.832835,15.33795 87.780728,33.318474 z "
       style="fill:url(#radialGradient3554);fill-opacity:1;stroke:none;stroke-width:2;stroke-miterlimit:4;stroke-opacity:1" />
    <path
       id="path3594"
       d="M 38.3125,77 L 32.625,93.25 L 39.65625,95.6875 L 36.03125,101.125 L 42.09375,122.53125 C 45.473769,123.00449 48.969105,123.38416 52.53125,123.625 C 52.387471,108.35252 42.784422,100.82375 48,75.0625 C 54.363362,73.672507 46.087222,75.026053 38.3125,77 z M 77.4375,74.5 C 78.252871,74.677604 78.961625,74.836682 79.9375,75.0625 C 84.488814,103.35195 76.902446,112.10032 75.53125,123.5625 C 79.074195,123.31512 82.545853,122.96984 85.90625,122.5 L 91.96875,101.09375 L 88.34375,95.65625 L 95.375,93.21875 L 89.8125,77.3125 C 85.71771,76.233039 81.572299,75.320908 77.4375,74.5 z "
       style="fill:#000000;fill-opacity:1;stroke:none;stroke-width:2;stroke-miterlimit:4;stroke-opacity:1;filter:url(#filter3624)"
       transform="matrix(1.0199203,0,0,0.9726678,-1.2749004,3.3789403)"
       sodipodi:nodetypes="ccccccccccccccccc" />
    <path
       style="fill:url(#linearGradient3592);fill-opacity:1;stroke:none;stroke-width:2;stroke-miterlimit:4;stroke-opacity:1"
       d="M 38.3125,77 L 32.625,93.25 L 39.65625,95.6875 L 36.03125,101.125 L 42.09375,122.53125 C 45.473769,123.00449 48.969105,123.38416 52.53125,123.625 C 52.387471,108.35252 42.784422,100.82375 48,75.0625 C 54.363362,73.672507 46.087222,75.026053 38.3125,77 z M 77.4375,74.5 C 78.252871,74.677604 78.961625,74.836682 79.9375,75.0625 C 84.488814,103.35195 76.902446,112.10032 75.53125,123.5625 C 79.074195,123.31512 82.545853,122.96984 85.90625,122.5 L 91.96875,101.09375 L 88.34375,95.65625 L 95.375,93.21875 L 89.8125,77.3125 C 85.71771,76.233039 81.572299,75.320908 77.4375,74.5 z "
       id="path3569"
       sodipodi:nodetypes="ccccccccccccccccc" />
    <path
       style="opacity:0.76732673;fill:url(#radialGradient3609);fill-opacity:1;stroke:none;stroke-width:2;stroke-miterlimit:4;stroke-opacity:1"
       d="M 82.737243,27.4375 C 74.271704,27.586243 66.407734,33.161895 64.841156,47.09375 C 64.5899,54.233308 64.824042,61.601541 65.845663,68.0625 C 66.456549,68.186737 67.0816,68.257464 67.722505,68.25 C 78.814224,68.25 84.803788,50.441895 87.812647,33.3125 C 87.993851,31.43556 88.021675,29.685102 87.944819,28.03125 C 86.212204,27.63516 84.466194,27.407122 82.737243,27.4375 z "
       id="path3549" />
    <path
       id="path3404"
       d="M 68.716625,5.1825104 C 65.173333,5.2558452 61.033431,6.1391139 56.730273,7.8924037 C 45.255184,12.567845 36.029354,25.010535 36.029354,30.714277 C 36.029354,30.911258 36.026091,31.107208 36.029354,31.301965 L 42.511768,22.715194 L 36.457438,34.730144 C 36.678637,35.481269 37.025391,36.155154 37.527648,36.689102 L 42.511768,30.093941 L 38.750744,37.570634 C 39.575106,37.955413 40.641983,38.139412 42.022529,38.093024 L 47.465312,30.910174 L 43.948908,37.897127 C 44.935202,37.740407 46.038292,37.503333 47.281847,37.146194 L 52.785784,29.865395 L 49.452844,36.493206 C 50.736337,36.054577 52.133877,35.498288 53.67253,34.860741 L 59.665706,26.926956 L 56.241034,33.750664 C 57.673751,33.111576 59.185504,32.431437 60.827648,31.628459 L 65.995233,24.804751 L 63.334997,30.061292 C 66.924302,27.34379 70.037019,23.056386 72.69169,20.625639 C 73.230321,21.112998 74.15911,24.969086 74.740378,25.425089 C 77.090649,27.268865 79.459663,28.575203 81.650876,29.343007 L 78.012161,22.094858 L 83.974761,29.963343 C 85.596794,30.252355 87.040258,30.189555 88.194446,29.734798 L 84.34169,22.094857 L 89.478698,28.918566 C 89.920342,28.530163 90.290019,28.063337 90.548908,27.481996 C 92.431741,23.25405 88.423546,15.473661 81.589722,10.112557 C 79.977525,8.8477968 78.32614,7.8372783 76.758488,7.0761708 C 74.811167,5.7724832 72.039029,5.113747 68.716625,5.1825104 z "
       style="opacity:0.32178219;fill:#000000;fill-opacity:1;stroke:none;stroke-width:4.5;stroke-miterlimit:4;stroke-dasharray:none;stroke-opacity:1;filter:url(#filter3422)"
       transform="matrix(0.9020365,0,0,0.9020365,5.4164162,-9.7505935e-2)" />
    <path
       style="fill:url(#radialGradient3601);fill-opacity:1.0;stroke:none;stroke-width:2;stroke-miterlimit:4;stroke-opacity:1;opacity:0.49009901"
       d="M 64.03125,7.75 C 50.918932,7.75 37.955531,15.47383 40.28125,33.3125 C 43.910324,49.524525 50.815862,66.170715 61.8125,68.0625 C 60.604769,61.601541 60.327973,54.233308 60.625,47.09375 C 62.855199,30.316535 75.860328,25.695769 87.9375,28.03125 C 87.157976,13.841692 75.774808,7.75 64.03125,7.75 z "
       id="path3578" />
    <path
       style="opacity:1;fill:url(#radialGradient3302);fill-opacity:1;stroke:none;stroke-width:4.5;stroke-miterlimit:4;stroke-dasharray:none;stroke-opacity:1"
       d="M 67.46875,4.125 C 63.847522,4.1951918 59.616559,5.0406046 55.21875,6.71875 C 43.491259,11.193805 34.0625,23.103214 34.0625,28.5625 C 34.0625,28.751038 34.059165,28.93859 34.0625,29.125 L 40.6875,20.90625 L 34.5,32.40625 C 34.726065,33.125183 35.080446,33.770185 35.59375,34.28125 L 40.6875,27.96875 L 36.84375,35.125 C 37.686244,35.493287 38.776587,35.6694 40.1875,35.625 L 45.75,28.75 L 42.15625,35.4375 C 43.164238,35.287496 44.291591,35.060583 45.5625,34.71875 L 51.1875,27.75 L 47.78125,34.09375 C 49.092974,33.673919 50.521254,33.141472 52.09375,32.53125 L 58.21875,24.9375 L 54.71875,31.46875 C 56.182981,30.857053 57.727986,30.206064 59.40625,29.4375 L 64.6875,22.90625 L 61.96875,27.9375 C 65.637004,25.336469 68.818187,21.232819 71.53125,18.90625 C 72.081728,19.372722 73.030947,23.063542 73.625,23.5 C 76.026967,25.264754 78.44809,26.515104 80.6875,27.25 L 76.96875,20.3125 L 83.0625,27.84375 C 84.72021,28.120374 86.195425,28.060267 87.375,27.625 L 83.4375,20.3125 L 88.6875,26.84375 C 89.138858,26.471995 89.516666,26.025177 89.78125,25.46875 C 91.705497,21.42201 87.609141,13.975082 80.625,8.84375 C 78.977342,7.6331958 77.289633,6.6659871 75.6875,5.9375 C 73.697346,4.6896873 70.864233,4.0591839 67.46875,4.125 z "
       id="path2283" />
    <path
       style="opacity:0.30198017;fill:#ffffff;fill-opacity:1;stroke:none;stroke-width:2;stroke-miterlimit:4;stroke-opacity:1;filter:url(#filter3400)"
       d="M 46.25,52 C 50.499028,61.418098 56.347069,68.325695 64.03125,68.25 C 71.946986,68.25 77.646348,61.757667 81.71875,52.84375 C 77.510547,60.82387 71.778616,66.4375 64.03125,66.4375 C 56.489365,66.508228 50.627173,60.475782 46.25,52 z "
       id="path3339" />
  </g>
  <g
     inkscape:groupmode="layer"
     id="layer2"
     style="display:inline" />
</svg>
