<?xml version="1.0" encoding="UTF-8" standalone="no"?>
<!-- Created with Sodipodi ("http://www.sodipodi.com/") -->
<svg
   xmlns:dc="http://purl.org/dc/elements/1.1/"
   xmlns:cc="http://web.resource.org/cc/"
   xmlns:rdf="http://www.w3.org/1999/02/22-rdf-syntax-ns#"
   xmlns:svg="http://www.w3.org/2000/svg"
   xmlns="http://www.w3.org/2000/svg"
   xmlns:xlink="http://www.w3.org/1999/xlink"
   xmlns:sodipodi="http://sodipodi.sourceforge.net/DTD/sodipodi-0.dtd"
   xmlns:inkscape="http://www.inkscape.org/namespaces/inkscape"
   viewBox="0 0 206 315"
   id="svg548"
   sodipodi:version="0.32"
   width="205.51181"
   height="315.35434"
   sodipodi:docname="jack-of-hearts-work.svg"
   sodipodi:docbase="/home/mikelima/repo/trunk/playground/artwork/carddecks/tigullio"
   inkscape:version="0.44.1"
   version="1.0">
  <metadata
     id="metadata52">
    <rdf:RDF>
      <cc:Work
         rdf:about="">
        <dc:format>image/svg+xml</dc:format>
        <dc:type
           rdf:resource="http://purl.org/dc/dcmitype/StillImage" />
      </cc:Work>
    </rdf:RDF>
  </metadata>
  <sodipodi:namedview
     id="base"
     showgrid="true"
     showguides="false"
     inkscape:zoom="1.28"
     inkscape:cx="83.938774"
     inkscape:cy="258.24849"
     inkscape:window-width="1019"
     inkscape:window-height="1103"
     inkscape:window-x="0"
     inkscape:window-y="37"
     inkscape:current-layer="svg548"
     inkscape:document-units="mm"
     width="58.000001mm"
     height="89.000005mm"
     units="mm"
     gridspacingx="0.28222223mm"
     gridspacingy="0.28222223mm"
     grid_units="mm" />
  <image
     y="-298.4375"
     x="-193.64664"
     id="image2455"
     height="282.73141"
     width="182.25945"
     xlink:href="hearts-king-and-jack.jpg"
     style="opacity:0.5"
     sodipodi:insensitive="true"
     transform="scale(-1,-1)" />
  <defs
     id="defs550" />
  <path
     style="fill:none;fill-opacity:1;fill-rule:evenodd;stroke:black;stroke-width:1pt;stroke-linecap:butt;stroke-linejoin:miter;stroke-opacity:1"
     d="M 204.1814,4.220791 L 3.535608,311.8187"
     id="path786" />
  <path
     style="fill:none;fill-opacity:1;fill-rule:evenodd;stroke:black;stroke-width:0.875;stroke-linecap:round;stroke-linejoin:miter;stroke-dasharray:none;stroke-opacity:1"
     d=""
     id="path734"
     sodipodi:nodetypes="c" />
  <path
     style="opacity:1;color:black;fill:#fe0;fill-opacity:1;fill-rule:evenodd;stroke:black;stroke-width:0.87707855;stroke-linecap:round;stroke-linejoin:round;marker:none;marker-start:none;marker-mid:none;marker-end:none;stroke-miterlimit:4;stroke-dasharray:none;stroke-dashoffset:0;stroke-opacity:1;visibility:visible;display:inline;overflow:visible"
     d="M 84.199543,79.445315 C 84.199543,79.445315 81.999016,80.882304 80.898751,81.093748 C 82.73312,83.067568 85.948805,85.717988 88.087663,92.953886 C 95.708262,90.009408 105.48632,87.897959 115.78612,89.382923 C 116.98231,80.981176 124.29456,71.97448 124.29456,71.97448 L 119.28269,68.967354 L 84.199543,79.445315 z "
     id="path2999"
     sodipodi:nodetypes="ccccccc" />
  <g
     id="g3011">
    <path
       sodipodi:nodetypes="cssssssssssssss"
       id="path3009"
       d="M 88.213677,72.050823 C 87.521343,71.20869 85.497846,71.487906 82.84573,72.982569 C 80.127197,74.514664 78.679393,77.832429 77.468517,79.234006 C 76.25764,80.635583 73.873414,81.561789 71.512231,81.777185 C 69.151047,81.992578 66.945056,80.008739 64.339847,81.568383 C 61.734639,83.128026 62.981471,81.792815 59.50288,81.969389 C 55.630081,82.165974 52.928095,84.842957 51.704248,85.941331 C 50.374609,87.134651 48.127239,86.059748 50.39398,83.08633 C 52.153545,80.778204 47.377467,80.033353 45.653577,82.923699 C 43.667647,86.25339 43.876355,90.481786 48.856084,90.665327 C 53.937318,90.849002 56.028101,87.004721 58.452467,86.278344 C 60.876833,85.551968 64.675759,86.819395 67.659483,86.813855 C 70.643205,86.808314 71.991097,85.222928 75.307824,83.573114 C 78.624551,81.923301 79.472101,81.736859 83.304173,79.742653 C 86.059897,78.308578 90.412583,74.725502 88.213677,72.050823 z "
       style="opacity:1;color:black;fill:#ffee80;fill-opacity:1;fill-rule:evenodd;stroke:black;stroke-width:1.25296935;stroke-linecap:round;stroke-linejoin:round;marker:none;marker-start:none;marker-mid:none;marker-end:none;stroke-miterlimit:4;stroke-dasharray:none;stroke-dashoffset:0;stroke-opacity:1;visibility:visible;display:inline;overflow:visible" />
    <path
       sodipodi:nodetypes="csssssssssscs"
       id="path3001"
       d="M 78.897914,41.464682 C 77.72876,41.497775 76.634526,43.405868 76.157044,46.652758 C 75.667604,49.980958 77.527479,53.407046 77.919032,55.36481 C 78.310585,57.322575 77.527477,59.965558 76.157044,62.119099 C 74.78661,64.27264 71.654186,64.840397 71.262633,68.090281 C 70.87108,71.340164 69.892197,74.041874 66.563997,75.568936 C 63.235798,77.095998 61.473809,78.857986 61.278033,80.619974 C 61.082256,82.381962 63.353266,83.948174 65.154408,82.186186 C 66.95555,80.424198 71.84996,78.955875 72.828844,76.410781 C 73.807728,73.865687 74.395059,70.34171 76.352822,67.796616 C 78.310585,65.251522 81.834561,64.957857 82.617667,61.042328 C 83.400773,57.126799 82.324002,55.95214 81.443008,51.351394 C 80.633924,49.573861 82.61123,41.359576 78.897914,41.464682 z "
       style="opacity:1;color:black;fill:#fe0;fill-opacity:1;fill-rule:evenodd;stroke:black;stroke-width:1.25;stroke-linecap:round;stroke-linejoin:round;marker:none;marker-start:none;marker-mid:none;marker-end:none;stroke-miterlimit:4;stroke-dasharray:none;stroke-dashoffset:0;stroke-opacity:1;visibility:visible;display:inline;overflow:visible" />
    <path
       sodipodi:nodetypes="csssssssssscs"
       id="path3003"
       d="M 81.000652,47.156769 C 79.831498,47.189862 78.149934,49.587396 77.672452,52.834286 C 77.183012,56.162486 78.847111,58.022362 79.238664,59.980126 C 79.630217,61.937891 79.532327,63.210439 78.161894,65.36398 C 76.79146,67.517521 72.973818,69.455713 72.582265,72.705597 C 72.190712,75.95548 71.211829,78.65719 67.883629,80.184252 C 64.55543,81.711314 60.097398,85.798933 60.639901,87.486719 C 62.401888,92.96846 66.924327,90.521255 65.201493,87.682496 C 63.894228,85.528483 74.344251,83.179638 75.323135,80.634544 C 76.302019,78.08945 75.714691,74.957026 77.672454,72.411932 C 79.630217,69.866838 83.154193,69.573173 83.937299,65.657644 C 84.720405,61.742115 83.643634,60.567456 82.76264,55.96671 C 81.953556,54.189177 84.713968,47.051663 81.000652,47.156769 z "
       style="opacity:1;color:black;fill:#ffee80;fill-opacity:1;fill-rule:evenodd;stroke:black;stroke-width:0.87707853;stroke-linecap:round;stroke-linejoin:round;marker:none;marker-start:none;marker-mid:none;marker-end:none;stroke-miterlimit:4;stroke-dasharray:none;stroke-dashoffset:0;stroke-opacity:1;visibility:visible;display:inline;overflow:visible" />
    <path
       sodipodi:nodetypes="csssssssssscs"
       id="path3005"
       d="M 83.029712,50.553531 C 81.939953,50.584226 80.920026,52.35404 80.474969,55.365627 C 80.018766,58.452633 81.752341,61.630432 82.117304,63.446317 C 82.482267,65.262203 81.752339,67.713649 80.474969,69.711123 C 79.197598,71.708597 76.277891,72.235208 75.912928,75.249573 C 75.547964,78.263937 74.635555,80.769854 71.533367,82.18625 C 68.431179,83.602646 66.601579,85.226794 66.606362,86.871239 C 66.619656,91.540071 70.792099,90.937127 70.2195,88.323948 C 69.718012,86.035301 77.145589,84.838297 78.057998,82.477645 C 78.970408,80.116994 78.832637,77.337841 80.657452,74.97719 C 82.482267,72.616539 85.766937,72.344156 86.496864,68.712385 C 87.226791,65.080615 86.223141,63.991083 85.401974,59.723753 C 84.647833,58.075038 86.490864,50.456042 83.029712,50.553531 z "
       style="opacity:1;color:black;fill:#fe0;fill-opacity:1;fill-rule:evenodd;stroke:black;stroke-width:0.87707818;stroke-linecap:round;stroke-linejoin:round;marker:none;marker-start:none;marker-mid:none;marker-end:none;stroke-miterlimit:4;stroke-dasharray:none;stroke-dashoffset:0;stroke-opacity:1;visibility:visible;display:inline;overflow:visible" />
  </g>
  <g
     id="g2909"
     style="opacity:0.97584541">
    <path
       id="path2904"
       transform="matrix(1.002375,0,0,1.002375,0,-0.551729)"
       d="M 96.78125,28.40625 C 88.938858,28.549319 81.358993,32.997443 78.59375,41.625 L 78.46875,42.21875 C 78.468747,42.218749 78.15625,43.992847 78.15625,46.5 C 78.156247,49.007153 80.38377,52.239015 80.53125,54.15625 C 80.678728,56.073487 79.486291,57.100221 79.78125,60.5 C 80.076207,63.899779 82.24963,70.536698 85,73.78125 C 85.337356,74.179222 85.71814,74.606391 86.125,75.03125 C 86.115139,75.552963 85.967971,77.931867 84.0625,79.96875 C 87.233309,82.697125 88.855671,84.251169 89.96875,88.6875 C 97.674556,86.327824 103.05113,84.237541 112.96875,85.59375 C 114.44355,80.800665 115.42661,75.997499 120.04688,72.605468 C 115.45807,66.711407 116.34606,61.520787 116.04297,54.753907 C 116.04297,52.394233 114.79192,44.565578 113.6289,42.007813 C 109.71397,33.397899 104.62364,28.263181 96.78125,28.40625 z "
       style="opacity:1;color:black;fill:#ffd0d0;fill-opacity:1;fill-rule:evenodd;stroke:black;stroke-width:1.25;stroke-linecap:round;stroke-linejoin:round;marker:none;marker-start:none;marker-mid:none;marker-end:none;stroke-miterlimit:4;stroke-dasharray:none;stroke-dashoffset:0;stroke-opacity:1;visibility:visible;display:inline;overflow:visible"
       sodipodi:nodetypes="cccssssccccccsc" />
    <path
       sodipodi:nodetypes="csssssc"
       id="path2890"
       d="M 78.349875,46.057725 C 78.349875,48.570834 80.567324,51.823093 80.715154,53.744882 C 80.862984,55.666672 79.680345,56.685949 79.976005,60.093804 C 80.271665,63.501659 82.445015,70.154007 85.201918,73.406266 C 87.775212,76.441925 92.672407,80.655742 95.225673,79.993484 C 99.785218,78.810844 104.66361,75.364504 107.62021,72.519286 C 109.98637,70.242262 110.87246,69.267027 110.87246,69.267027"
       style="opacity:1;color:black;fill:none;fill-opacity:1;fill-rule:evenodd;stroke:black;stroke-width:1.25;stroke-linecap:round;stroke-linejoin:round;marker:none;marker-start:none;marker-mid:none;marker-end:none;stroke-miterlimit:4;stroke-dasharray:none;stroke-dashoffset:0;stroke-opacity:1;visibility:visible;display:inline;overflow:visible" />
  </g>
  <g
     id="g2952"
     style="opacity:1">
    <path
       style="opacity:1;color:black;fill:#ffee80;fill-opacity:1;fill-rule:evenodd;stroke:black;stroke-width:1.25296935;stroke-linecap:round;stroke-linejoin:round;marker:none;marker-start:none;marker-mid:none;marker-end:none;stroke-miterlimit:4;stroke-dasharray:none;stroke-dashoffset:0;stroke-opacity:1;visibility:visible;display:inline;overflow:visible"
       d="M 111.40671,37.461045 C 111.40671,37.461045 114.82864,37.32261 116.35143,43.275309 C 117.87421,49.228009 116.90517,53.657924 117.45891,58.641579 C 117.94235,62.992499 119.84195,73.085486 122.51263,73.210829 C 125.75338,73.36063 131.175,72.310709 131.1768,76.423899 C 131.18035,84.489331 137.94722,83.787338 137.91075,79.028904 C 137.85407,71.633432 131.60464,75.033097 131.66646,70.021523 C 131.71188,66.339668 130.45386,65.326859 127.10901,65.111743 C 124.7711,64.961386 125.45397,61.399748 125.34969,60.691329 C 125.02535,58.487824 122.21801,59.665619 121.70733,57.118795 C 121.19665,54.571972 120.83869,50.661301 120.42339,46.64669 C 120.00808,42.632079 117.93155,40.555557 116.40877,39.448078 C 114.32625,37.933512 112.13781,32.915783 111.40671,34.911544 C 110.6756,36.907306 111.78308,37.59948 111.40671,37.461045 z "
       id="path2950"
       sodipodi:nodetypes="cssssssssssssc" />
    <path
       sodipodi:nodetypes="csssssss"
       id="path2944"
       d="M 124.71503,71.040596 C 124.78899,76.007494 139.50862,72.69313 139.05672,80.420623 C 138.58542,88.382139 147.98068,88.958721 147.94421,84.200287 C 147.88753,76.804815 142.61699,84.413674 142.48303,75.095018 C 142.4301,71.413263 143.03903,70.426055 139.68757,70.381014 C 135.78345,70.328545 136.62354,66.578042 136.6557,65.862712 C 136.8208,62.190883 128.77812,62.308866 126.35694,62.19229 C 119.44502,61.859493 124.62262,64.835045 124.71503,71.040596 z "
       style="opacity:1;color:black;fill:#ffee80;fill-opacity:1;fill-rule:evenodd;stroke:black;stroke-width:1.25296938;stroke-linecap:round;stroke-linejoin:round;marker:none;marker-start:none;marker-mid:none;marker-end:none;stroke-miterlimit:4;stroke-dasharray:none;stroke-dashoffset:0;stroke-opacity:1;visibility:visible;display:inline;overflow:visible" />
    <path
       sodipodi:nodetypes="csssssss"
       id="path2946"
       d="M 126.53533,72.360074 C 126.59768,76.959233 137.7954,74.771157 137.41449,81.926522 C 137.01723,89.298583 144.93656,89.832476 144.90582,85.426347 C 144.85804,78.578421 140.41547,85.623935 140.30255,76.995214 C 140.25794,73.586049 139.28602,72.490651 136.46105,72.448944 C 133.17024,72.40036 133.87835,68.927537 133.90546,68.265168 C 134.04463,64.865194 128.8331,65.518286 126.79227,65.410341 C 120.96617,65.102184 126.45744,66.61397 126.53533,72.360074 z "
       style="opacity:1;color:black;fill:#fe0;fill-opacity:1;fill-rule:evenodd;stroke:black;stroke-width:0.87707812;stroke-linecap:round;stroke-linejoin:round;marker:none;marker-start:none;marker-mid:none;marker-end:none;stroke-miterlimit:4;stroke-dasharray:none;stroke-dashoffset:0;stroke-opacity:1;visibility:visible;display:inline;overflow:visible" />
    <path
       sodipodi:nodetypes="cssssssssssssc"
       id="path2942"
       d="M 111.40671,37.461045 C 111.40671,37.461045 114.82864,37.32261 116.35143,43.275309 C 117.87421,49.228009 116.90517,53.657924 117.45891,58.641579 C 117.94235,62.992499 119.84195,73.281263 122.51263,73.406606 C 125.75338,73.556407 131.175,72.310709 131.1768,76.423899 C 131.18035,84.489331 137.94722,83.787338 137.91075,79.028904 C 137.85407,71.633432 131.60464,75.033097 131.66646,70.021523 C 131.71188,66.339668 130.45386,65.326859 127.10901,65.111743 C 124.7711,64.961386 125.45397,61.399748 125.34969,60.691329 C 125.02535,58.487824 122.21801,59.665619 121.70733,57.118795 C 121.19665,54.571972 120.83869,50.661301 120.42339,46.64669 C 120.00808,42.632079 117.93155,40.555557 116.40877,39.448078 C 114.32625,37.933512 112.13781,32.915783 111.40671,34.911544 C 110.6756,36.907306 111.78308,37.59948 111.40671,37.461045 z "
       style="opacity:1;color:black;fill:#ffee80;fill-opacity:1;fill-rule:evenodd;stroke:black;stroke-width:0.87707853;stroke-linecap:round;stroke-linejoin:round;marker:none;marker-start:none;marker-mid:none;marker-end:none;stroke-miterlimit:4;stroke-dasharray:none;stroke-dashoffset:0;stroke-opacity:1;visibility:visible;display:inline;overflow:visible" />
    <path
       sodipodi:nodetypes="csssssssssssssc"
       id="path2948"
       d="M 111.2925,43.199876 C 111.2925,43.199876 113.33499,43.370597 114.67953,48.657189 C 116.02406,53.943782 116.14733,57.584324 116.63625,62.010308 C 117.0631,65.87436 118.38577,70.737886 120.74548,70.805788 C 123.10612,70.872307 126.19031,70.699861 126.13778,72.886943 C 125.99427,78.959637 130.36312,75.976992 130.41248,79.075334 C 130.4702,82.813076 134.62839,83.363375 134.69408,80.116292 C 134.82693,73.549526 129.12614,76.567615 129.18072,72.116837 C 129.22083,68.846981 128.11007,67.947505 125.15675,67.756461 C 123.09251,67.622929 123.69544,64.459838 123.60337,63.830691 C 123.317,61.873758 120.83827,62.919758 120.38737,60.657924 C 119.93647,58.39609 119.62041,54.923023 119.25372,51.357647 C 118.88703,47.792271 117.05357,45.948112 115.70904,44.96456 C 113.87029,43.619474 111.93802,39.163229 111.2925,40.935664 C 110.64697,42.7081 111.62481,43.32282 111.2925,43.199876 z "
       style="opacity:1;color:black;fill:#fe0;fill-opacity:1;fill-rule:evenodd;stroke:black;stroke-width:0.87707855;stroke-linecap:round;stroke-linejoin:round;marker:none;marker-start:none;marker-mid:none;marker-end:none;stroke-miterlimit:4;stroke-dasharray:none;stroke-dashoffset:0;stroke-opacity:1;visibility:visible;display:inline;overflow:visible" />
    <path
       sodipodi:nodetypes="cssssssssc"
       id="path2938"
       d="M 105.24943,37.436087 C 105.24943,37.436087 107.97919,37.159217 109.50198,43.111916 C 111.02476,49.064616 110.74789,53.632966 111.30163,58.616621 C 111.78507,62.967541 111.99381,65.676799 114.48563,66.645843 C 116.97746,67.614887 118.3636,67.099354 118.50024,64.957852 C 118.64206,62.735124 115.78386,65.039621 115.27318,62.492797 C 114.7625,59.945974 114.20876,51.971748 113.79346,47.957137 C 113.37815,43.942526 112.54754,40.896959 111.02476,38.820436 C 109.50198,36.743913 105.98053,32.890825 105.24943,34.886586 C 104.51832,36.882348 105.6258,37.574522 105.24943,37.436087 z "
       style="opacity:1;color:black;fill:#fe0;fill-opacity:1;fill-rule:evenodd;stroke:black;stroke-width:0.87707855;stroke-linecap:round;stroke-linejoin:round;marker:none;marker-start:none;marker-mid:none;marker-end:none;stroke-miterlimit:4;stroke-dasharray:none;stroke-dashoffset:0;stroke-opacity:1;visibility:visible;display:inline;overflow:visible" />
    <path
       sodipodi:nodetypes="cssssssssc"
       id="path2940"
       d="M 109.12561,38.046718 C 109.12561,38.046718 111.85537,37.727762 113.37816,44.585313 C 114.90094,51.442865 114.62407,56.705636 115.17781,62.446841 C 115.66125,67.459132 115.86999,70.580216 118.36181,71.696561 C 120.85364,72.812907 122.23978,72.219009 122.37642,69.751984 C 122.51824,67.191386 119.66004,69.846182 119.14936,66.912223 C 118.63868,63.978265 118.08494,54.791901 117.66964,50.167041 C 117.25433,45.542181 116.42372,42.033667 114.90094,39.641498 C 113.37816,37.249329 109.85671,32.810544 109.12561,35.109675 C 108.3945,37.408807 109.50198,38.206196 109.12561,38.046718 z "
       style="opacity:1;color:black;fill:#ffee80;fill-opacity:1;fill-rule:evenodd;stroke:black;stroke-width:0.87707859;stroke-linecap:round;stroke-linejoin:round;marker:none;marker-start:none;marker-mid:none;marker-end:none;stroke-miterlimit:4;stroke-dasharray:none;stroke-dashoffset:0;stroke-opacity:1;visibility:visible;display:inline;overflow:visible" />
  </g>
  <g
     id="g2987">
    <path
       sodipodi:nodetypes="cssssscscsscsc"
       id="path1978"
       d="M 70.082128,27.454837 C 73.025532,26.847402 74.523901,26.162765 77.849912,24.56896 C 80.462145,23.317194 83.653392,21.325847 86.449319,21.277501 C 89.128639,21.231173 92.54507,24.333969 98.461802,24.217291 C 104.37851,24.100613 108.65346,20.772007 110.78876,20.71446 C 113.47154,20.641296 117.01937,23.365755 119.53957,24.781001 C 123.18634,26.828881 123.88431,27.654414 127.03238,28.509158 C 123.86487,32.024105 122.68159,33.481438 120.6236,35.6909 C 118.56561,37.900362 117.54067,40.057158 117.54067,40.057158 C 117.54067,40.057158 107.75174,36.59898 97.739002,36.917567 C 91.558625,37.114215 85.546879,38.363264 83.289928,39.1969 C 80.645486,40.173661 78.534125,41.558783 78.534125,41.558783 C 78.534125,41.558783 76.974922,37.298476 74.769817,34.017662 C 73.308961,31.844162 71.629903,30.192524 70.082128,27.454837 z "
       style="fill:green;fill-opacity:1;fill-rule:evenodd;stroke:black;stroke-width:1.25296903;stroke-linecap:round;stroke-linejoin:round;stroke-miterlimit:4;stroke-dasharray:none;stroke-opacity:1;opacity:1" />
    <path
       sodipodi:nodetypes="cssssss"
       id="path2866"
       d="M 72.380511,30.913695 C 74.347741,30.380348 76.721052,29.66859 79.300192,28.417892 C 83.051737,26.59866 84.257431,25.295559 86.173374,25.205789 C 88.125139,25.114341 94.623773,28.116157 98.737436,27.957645 C 103.50789,27.77656 109.2004,25.326134 110.53646,25.385026 C 111.61532,25.432581 113.66163,27.264341 116.47339,28.850599 C 118.89243,30.215305 121.89383,31.981624 123.97142,32.13901"
       style="color:black;fill:none;fill-opacity:1;fill-rule:evenodd;stroke:black;stroke-width:0.87707841;stroke-linecap:round;stroke-linejoin:round;marker:none;marker-start:none;marker-mid:none;marker-end:none;stroke-miterlimit:4;stroke-dasharray:none;stroke-dashoffset:0;stroke-opacity:1;visibility:visible;display:inline;overflow:visible" />
  </g>
  <g
     id="g2997"
     transform="matrix(1,0,0,0.952221,-5.780459,2.244228)"
     style="opacity:1">
    <path
       style="color:black;fill:#ffd0d0;fill-opacity:1;fill-rule:evenodd;stroke:black;stroke-width:1.2809763;stroke-linecap:round;stroke-linejoin:round;marker:none;marker-start:none;marker-mid:none;marker-end:none;stroke-miterlimit:4;stroke-dasharray:none;stroke-dashoffset:0;stroke-opacity:1;visibility:visible;display:inline;overflow:visible"
       d="M 45.507179,183.90914 C 45.507179,183.90914 44.284991,182.72482 43.49581,181.50203 C 42.682745,180.24224 42.13154,177.10784 43.092435,176.51709 C 44.05333,175.92633 45.09945,176.62769 45.605545,177.92147 C 46.27078,179.62208 46.729386,180.23914 47.305589,180.73404 C 48.096826,181.41364 49.079549,183.62758 48.118654,184.13794 C 47.157759,184.64829 45.531629,183.98305 45.507179,183.90914 z "
       id="path2796"
       sodipodi:nodetypes="csssssc" />
    <path
       style="color:black;fill:#ffd0d0;fill-opacity:1;fill-rule:evenodd;stroke:black;stroke-width:1.2809763;stroke-linecap:round;stroke-linejoin:round;marker:none;marker-start:none;marker-mid:none;marker-end:none;stroke-miterlimit:4;stroke-dasharray:none;stroke-dashoffset:0;stroke-opacity:1;visibility:visible;display:inline;overflow:visible"
       d="M 49.234299,179.78459 C 48.670163,178.39539 48.481199,175.42436 49.535327,175.02296 C 50.589457,174.62156 51.486601,175.50553 51.742809,176.87094 C 53.623407,179.82654 52.294039,184.7503 49.234299,179.78459 z "
       id="path2800"
       sodipodi:nodetypes="cscc" />
    <path
       style="color:black;fill:#ffd0d0;fill-opacity:1;fill-rule:evenodd;stroke:black;stroke-width:1.2809763;stroke-linecap:round;stroke-linejoin:round;marker:none;marker-start:none;marker-mid:none;marker-end:none;stroke-miterlimit:4;stroke-dasharray:none;stroke-dashoffset:0;stroke-opacity:1;visibility:visible;display:inline;overflow:visible"
       d="M 47.204505,181.6357 C 47.204505,181.6357 46.455688,180.03324 45.908125,178.68483 C 45.343989,177.29563 45.155025,174.3246 46.209153,173.9232 C 47.263283,173.5218 48.160427,174.40577 48.416635,175.77118 C 48.753405,177.56595 49.089026,178.25765 49.562943,178.85123 C 50.213721,179.66634 50.766789,182.0246 49.727638,182.34701 C 48.688488,182.66941 47.214758,181.71287 47.204505,181.6357 z "
       id="path2798"
       sodipodi:nodetypes="csssssc" />
    <path
       sodipodi:nodetypes="cssssssscssss"
       id="path1905"
       d="M 62.596477,153.14815 C 63.43442,154.24032 64.526596,155.86675 64.735659,159.42082 C 64.944722,162.9749 56.588259,182.7403 53.036535,184.32589 C 49.484811,185.91147 43.773831,187.96066 42.753765,187.37491 C 41.661194,186.74751 42.005857,183.82866 43.571731,183.43622 C 46.429644,182.71997 48.217495,182.4751 49.053747,181.93719 C 49.89,181.39927 51.539318,175.97788 51.539318,175.25672 C 51.539318,174.53556 50.373712,169.69957 50.840389,167.26256 C 51.12393,165.78188 51.925011,160.65913 53.423692,159.19569 C 52.335349,158.9888 51.957444,157.90326 51.957444,156.64888 C 51.957444,155.3945 52.400477,152.92162 54.244457,151.24911 C 56.088436,149.57661 57.396805,147.90762 59.521763,147.73404 C 61.021074,147.61157 62.389105,152.87787 62.596477,153.14815 z "
       style="opacity:1;color:black;fill:#ffd0d0;fill-opacity:1;fill-rule:evenodd;stroke:black;stroke-width:1.28401923;stroke-linecap:round;stroke-linejoin:round;marker:none;marker-start:none;marker-mid:none;marker-end:none;stroke-miterlimit:4;stroke-dasharray:none;stroke-dashoffset:0;stroke-opacity:1;visibility:visible;display:inline;overflow:visible" />
    <path
       sodipodi:nodetypes="cz"
       id="path2794"
       d="M 56.544962,155.35545 C 56.171177,156.03426 53.668126,159.08674 53.201947,159.76556"
       style="color:black;fill:none;fill-opacity:1;fill-rule:evenodd;stroke:black;stroke-width:0.89881343;stroke-linecap:round;stroke-linejoin:round;marker:none;marker-start:none;marker-mid:none;marker-end:none;stroke-miterlimit:4;stroke-dasharray:none;stroke-dashoffset:0;stroke-opacity:1;visibility:visible;display:inline;overflow:visible" />
  </g>
  <g
     id="g2830"
     transform="matrix(0.960737,-0.277461,0.277461,0.960737,-46.98626,14.28706)">
    <path
       sodipodi:nodetypes="cssssccssc"
       id="path2826"
       d="M 15.674883,196.06105 C 15.674883,196.06105 15.890475,185.05832 16.019432,179.48259 C 16.151102,173.78955 21.300752,154.31616 23.295637,149.05369 C 25.290522,143.79122 27.610687,135.68525 30.617661,131.12482 C 33.338358,126.99857 38.029072,125.7025 40.023128,124.85995 C 42.56973,123.78393 44.306789,124.40422 44.355115,124.7245 C 49.468632,128.08857 50.61508,130.66073 53.176685,135.64472 C 46.164349,126.88982 37.202778,135.02597 31.738148,143.92057 C 30.55789,145.84164 20.600109,171.93883 20.046649,174.17491 C 19.402471,176.7775 15.6668,186.86631 15.674883,196.06105 z "
       style="opacity:1;color:black;fill:green;fill-opacity:1;fill-rule:evenodd;stroke:black;stroke-width:1.25;stroke-linecap:round;stroke-linejoin:round;marker:none;marker-start:none;marker-mid:none;marker-end:none;stroke-miterlimit:4;stroke-dasharray:none;stroke-dashoffset:0;stroke-opacity:1;visibility:visible;display:inline;overflow:visible" />
  </g>
  <g
     id="g2974">
    <g
       id="g2960">
      <path
         style="opacity:1;color:black;fill:none;fill-opacity:1;fill-rule:evenodd;stroke:black;stroke-width:0.87707855;stroke-linecap:round;stroke-linejoin:round;marker:none;marker-start:none;marker-mid:none;marker-end:none;stroke-miterlimit:4;stroke-dasharray:none;stroke-dashoffset:0;stroke-opacity:1;visibility:visible;display:inline;overflow:visible"
         d="M 93.72419,56.110162 C 93.72419,56.110162 89.280003,53.255952 87.803563,55.777778 C 86.89122,57.336101 87.878612,59.979104 90.065966,61.43204"
         id="path2914"
         sodipodi:nodetypes="csc" />
      <path
         style="opacity:1;color:black;fill:none;fill-opacity:1;fill-rule:evenodd;stroke:black;stroke-width:0.87707855;stroke-linecap:round;stroke-linejoin:round;marker:none;marker-start:none;marker-mid:none;marker-end:none;stroke-miterlimit:4;stroke-dasharray:none;stroke-dashoffset:0;stroke-opacity:1;visibility:visible;display:inline;overflow:visible"
         d="M 90.77502,49.504093 C 90.77502,49.504093 92.799686,53.83541 91.211081,54.876794"
         id="path2916"
         sodipodi:nodetypes="cc" />
    </g>
    <g
       id="g2964">
      <path
         sodipodi:type="arc"
         style="opacity:1;color:black;fill:#8df;fill-opacity:1;fill-rule:nonzero;stroke:black;stroke-width:0.87707855;stroke-linecap:square;stroke-linejoin:round;marker:none;marker-start:none;marker-mid:none;marker-end:none;stroke-miterlimit:4;stroke-dasharray:none;stroke-dashoffset:0;stroke-opacity:1;visibility:visible;display:inline;overflow:visible"
         id="path2918"
         sodipodi:cx="97.162086"
         sodipodi:cy="48.578117"
         sodipodi:rx="1.933834"
         sodipodi:ry="3.5540731"
         d="M 99.09592 48.578117 A 1.933834 3.5540731 0 1 1  95.228253,48.578117 A 1.933834 3.5540731 0 1 1  99.09592 48.578117 z" />
      <path
         sodipodi:type="arc"
         style="opacity:1;color:black;fill:#8df;fill-opacity:1;fill-rule:nonzero;stroke:black;stroke-width:0.87707853;stroke-linecap:square;stroke-linejoin:round;marker:none;marker-start:none;marker-mid:none;marker-end:none;stroke-miterlimit:4;stroke-dasharray:none;stroke-dashoffset:0;stroke-opacity:1;visibility:visible;display:inline;overflow:visible"
         id="path2920"
         sodipodi:cx="97.162086"
         sodipodi:cy="48.578117"
         sodipodi:rx="1.933834"
         sodipodi:ry="3.5540731"
         d="M 99.09592 48.578117 A 1.933834 3.5540731 0 1 1  95.228253,48.578117 A 1.933834 3.5540731 0 1 1  99.09592 48.578117 z"
         transform="translate(-11.32541,1.327212)" />
      <path
         style="opacity:1;color:black;fill:none;fill-opacity:1;fill-rule:evenodd;stroke:black;stroke-width:0.87707855;stroke-linecap:round;stroke-linejoin:round;marker:none;marker-start:none;marker-mid:none;marker-end:none;stroke-miterlimit:4;stroke-dasharray:none;stroke-dashoffset:0;stroke-opacity:1;visibility:visible;display:inline;overflow:visible"
         d="M 100.87036,43.422995 C 99.664712,41.557032 98.641102,40.289011 96.639104,40.394041 C 93.821288,40.541871 93.220922,43.907966 93.220922,43.907966"
         id="path2922"
         sodipodi:nodetypes="csc" />
      <path
         style="opacity:1;color:black;fill:none;fill-opacity:1;fill-rule:evenodd;stroke:black;stroke-width:0.87707877;stroke-linecap:round;stroke-linejoin:round;marker:none;marker-start:none;marker-mid:none;marker-end:none;stroke-miterlimit:4;stroke-dasharray:none;stroke-dashoffset:0;stroke-opacity:1;visibility:visible;display:inline;overflow:visible"
         d="M 81.233774,46.548545 C 81.877909,43.782742 82.824492,42.120901 84.462625,42.197123 C 85.995855,42.268464 87.587913,44.663259 87.587913,44.663259"
         id="path2924"
         sodipodi:nodetypes="csc" />
    </g>
    <g
       id="g2970">
      <path
         style="opacity:1;color:black;fill:none;fill-opacity:1;fill-rule:evenodd;stroke:black;stroke-width:0.87707806;stroke-linecap:round;stroke-linejoin:round;marker:none;marker-start:none;marker-mid:none;marker-end:none;stroke-miterlimit:4;stroke-dasharray:none;stroke-dashoffset:0;stroke-opacity:1;visibility:visible;display:inline;overflow:visible"
         d="M 98.788893,66.711467 C 97.276052,67.947991 95.671625,68.943244 91.965508,69.010189 C 88.418953,69.076019 86.2993,67.347404 86.2993,67.347404"
         id="path2926"
         sodipodi:nodetypes="csc" />
      <path
         style="opacity:1;color:black;fill:none;fill-opacity:1;fill-rule:evenodd;stroke:black;stroke-width:0.87707806;stroke-linecap:round;stroke-linejoin:round;marker:none;marker-start:none;marker-mid:none;marker-end:none;stroke-miterlimit:4;stroke-dasharray:none;stroke-dashoffset:0;stroke-opacity:1;visibility:visible;display:inline;overflow:visible"
         d="M 95.78951,71.785961 C 95.097677,71.243198 94.516008,70.878468 93.425005,70.950625 C 91.889417,71.052185 91.622404,72.087086 91.622404,72.087086"
         id="path2936"
         sodipodi:nodetypes="csc" />
    </g>
  </g>
</svg>
