<?xml version="1.0" encoding="UTF-8" standalone="no"?>
<!-- Created with Sodipodi ("http://www.sodipodi.com/") -->
<svg
   xmlns:dc="http://purl.org/dc/elements/1.1/"
   xmlns:cc="http://web.resource.org/cc/"
   xmlns:rdf="http://www.w3.org/1999/02/22-rdf-syntax-ns#"
   xmlns:svg="http://www.w3.org/2000/svg"
   xmlns="http://www.w3.org/2000/svg"
   xmlns:xlink="http://www.w3.org/1999/xlink"
   xmlns:sodipodi="http://sodipodi.sourceforge.net/DTD/sodipodi-0.dtd"
   xmlns:inkscape="http://www.inkscape.org/namespaces/inkscape"
   viewBox="0 0 206 315"
   id="svg548"
   sodipodi:version="0.32"
   width="205.51181"
   height="315.35434"
   sodipodi:docname="jack-of-spades.svg"
   sodipodi:docbase="/home/mikelima/repo/trunk/playground/artwork/carddecks/tigullio"
   inkscape:version="0.44.1"
   version="1.0">
  <metadata
     id="metadata52">
    <rdf:RDF>
      <cc:Work
         rdf:about="">
        <dc:format>image/svg+xml</dc:format>
        <dc:type
           rdf:resource="http://purl.org/dc/dcmitype/StillImage" />
      </cc:Work>
    </rdf:RDF>
  </metadata>
  <defs
     id="defs550" />
  <sodipodi:namedview
     id="base"
     showgrid="false"
     showguides="false"
     inkscape:zoom="4"
     inkscape:cx="53.821254"
     inkscape:cy="160.54016"
     inkscape:window-width="1350"
     inkscape:window-height="1103"
     inkscape:window-x="0"
     inkscape:window-y="26"
     inkscape:current-layer="svg548"
     inkscape:document-units="mm"
     width="58.000001mm"
     height="89.000005mm"
     units="mm"
     bordercolor="black"
     borderopacity="0.47058824" />
  <path
     style="fill:none;fill-opacity:1;fill-rule:evenodd;stroke:black;stroke-width:0.875;stroke-linecap:round;stroke-linejoin:miter;stroke-dasharray:none;stroke-opacity:1"
     d=""
     id="path734"
     sodipodi:nodetypes="c" />
  <g
     id="g3346"
     transform="translate(2.00475,-5.513065)">
    <g
       id="g2904">
      <path
         style="opacity:1;color:black;fill:red;fill-opacity:1;fill-rule:evenodd;stroke:black;stroke-width:1.25046337;stroke-linecap:round;stroke-linejoin:round;marker:none;marker-start:none;marker-mid:none;marker-end:none;stroke-miterlimit:4;stroke-dasharray:none;stroke-dashoffset:0;stroke-opacity:1;visibility:visible;display:inline;overflow:visible"
         d="M 62.550409,96.359503 C 62.550409,96.359503 58.82928,100.43503 54.222167,105.75092 C 49.615055,111.06682 49.083465,111.95281 44.12196,115.67394 C 39.160454,119.39506 28.174263,125.06536 26.579494,128.78649 C 24.984724,132.50762 21.972382,139.24109 28.528657,142.43063 C 35.084932,145.62017 45.883407,140.70918 54.576561,134.10238 C 59.006477,130.73565 64.853964,128.60929 68.397897,126.66013 C 72.411995,128.0196 77.640459,129.83145 80.624465,136.93753 L 112.87425,144.37979 L 147.78199,91.043605 L 62.550409,96.359503 z "
         id="path2898"
         sodipodi:nodetypes="csssssccccc" />
      <path
         style="opacity:1;color:black;fill:none;fill-opacity:1;fill-rule:evenodd;stroke:black;stroke-width:0.87707853;stroke-linecap:round;stroke-linejoin:round;marker:none;marker-start:none;marker-mid:none;marker-end:none;stroke-miterlimit:4;stroke-dasharray:none;stroke-dashoffset:0;stroke-opacity:1;visibility:visible;display:inline;overflow:visible"
         d="M 68.575094,127.19172 C 68.575094,127.19172 68.75229,122.58461 69.992667,120.98984 C 71.233043,119.39507 73.713797,117.09151 74.954173,114.07916 C 75.975142,111.59966 75.662959,108.23168 75.662959,108.23168"
         id="path2900"
         sodipodi:nodetypes="cssc" />
      <path
         style="opacity:1;color:black;fill:none;fill-opacity:1;fill-rule:evenodd;stroke:black;stroke-width:0.87707853;stroke-linecap:round;stroke-linejoin:round;marker:none;marker-start:none;marker-mid:none;marker-end:none;stroke-miterlimit:4;stroke-dasharray:none;stroke-dashoffset:0;stroke-opacity:1;visibility:visible;display:inline;overflow:visible"
         d="M 104.72321,140.65866 C 104.72321,140.65866 104.01442,134.98836 104.54601,132.50761 C 105.0776,130.02686 107.02676,123.82498 107.02676,123.82498"
         id="path2902"
         sodipodi:nodetypes="csc" />
    </g>
    <g
       id="g2889">
      <g
         id="g2871">
        <path
           sodipodi:nodetypes="cssscsssscc"
           id="path2867"
           d="M 68.788017,99.790406 C 68.788017,99.790406 66.842462,100.66748 63.931035,103.67461 C 61.019608,106.68174 60.379311,110.37849 56.827586,113.10345 C 53.275862,115.82841 49.869167,117.20668 46.673602,119.96321 C 44.139546,122.14911 42.62069,125.60157 42.62069,125.60157 C 42.62069,125.60157 43.854914,129.60713 46.172414,130.86207 C 48.489914,132.11702 50.745259,131.74112 50.870556,132.36761 C 50.995853,132.99409 53.275862,127.94571 56.827586,125.85217 C 60.379311,123.75863 65.279703,121.59207 68.66272,117.08138 C 72.045737,112.57069 72.719579,109.56357 75.428755,106.93233 C 74.754914,103.67462 72.171035,102.42164 68.788017,99.790406 z "
           style="opacity:1;color:black;fill:#fe0;fill-opacity:1;fill-rule:evenodd;stroke:black;stroke-width:0.87707853;stroke-linecap:round;stroke-linejoin:round;marker:none;marker-start:none;marker-mid:none;marker-end:none;stroke-miterlimit:4;stroke-dasharray:none;stroke-dashoffset:0;stroke-opacity:1;visibility:visible;display:inline;overflow:visible" />
        <path
           sodipodi:nodetypes="csssc"
           id="path2869"
           d="M 72.162155,101.29397 C 72.162155,101.29397 68.128121,103.06479 66.355087,105.42877 C 64.390212,108.04853 64.527922,109.43827 60.769014,113.44777 C 57.010106,117.45727 53.31662,118.42773 50.519329,120.33911 C 46.485163,123.09563 43.979224,127.73163 43.979224,127.73163"
           style="opacity:1;color:black;fill:none;fill-opacity:1;fill-rule:evenodd;stroke:black;stroke-width:0.87707853;stroke-linecap:round;stroke-linejoin:round;marker:none;marker-start:none;marker-mid:none;marker-end:none;stroke-miterlimit:4;stroke-dasharray:none;stroke-dashoffset:0;stroke-opacity:1;visibility:visible;display:inline;overflow:visible" />
      </g>
      <path
         style="opacity:1;color:black;fill:black;fill-opacity:1;fill-rule:evenodd;stroke:none;stroke-width:1.25;stroke-linecap:round;stroke-linejoin:round;marker:none;marker-start:none;marker-mid:none;marker-end:none;stroke-miterlimit:4;stroke-dasharray:none;stroke-dashoffset:0;stroke-opacity:1;visibility:visible;display:inline;overflow:visible"
         d="M 71.109384,106.19537 C 69.370967,107.00255 66.040375,106.87397 66.552628,108.94107 C 66.801357,109.94568 67.336654,109.88888 67.784642,109.77105 C 66.986333,110.59435 66.086618,111.46196 65.589957,111.62319 C 66.483345,112.19669 67.024764,112.75863 67.734798,113.29589 C 67.706515,112.9046 68.095072,111.60645 68.486326,110.40703 C 68.614268,110.97716 68.995582,111.62563 70.19713,111.21789 C 71.673915,110.71675 70.807753,107.87969 71.109384,106.19537 z "
         id="path2879" />
      <path
         style="opacity:1;color:black;fill:black;fill-opacity:1;fill-rule:evenodd;stroke:none;stroke-width:1.25;stroke-linecap:round;stroke-linejoin:round;marker:none;marker-start:none;marker-mid:none;marker-end:none;stroke-miterlimit:4;stroke-dasharray:none;stroke-dashoffset:0;stroke-opacity:1;visibility:visible;display:inline;overflow:visible"
         d="M 56.372857,121.37017 C 54.456512,121.40566 51.462204,119.94159 51.09506,122.03933 C 50.91642,123.05874 51.428987,123.22319 51.886372,123.29653 C 50.82337,123.72682 49.649704,124.15664 49.13026,124.10331 C 49.715537,124.98902 49.983563,125.72187 50.415788,126.50032 C 50.548107,126.131 51.428304,125.10074 52.27105,124.16189 C 52.157585,124.73507 52.244189,125.48234 53.50801,125.59516 C 55.061333,125.73382 55.41605,122.78878 56.372857,121.37017 z "
         id="path2885" />
      <path
         style="opacity:1;color:black;fill:black;fill-opacity:1;fill-rule:evenodd;stroke:none;stroke-width:1.25;stroke-linecap:round;stroke-linejoin:round;marker:none;marker-start:none;marker-mid:none;marker-end:none;stroke-miterlimit:4;stroke-dasharray:none;stroke-dashoffset:0;stroke-opacity:1;visibility:visible;display:inline;overflow:visible"
         d="M 65.678378,115.50384 C 63.767766,115.65616 60.68972,114.37749 60.451232,116.49372 C 60.335114,117.52213 60.856758,117.655 61.317765,117.7003 C 60.282992,118.19463 59.137733,118.69525 58.616004,118.67372 C 59.254223,119.52208 59.566457,120.23722 60.045366,120.98785 C 60.154908,120.61114 60.970615,119.52911 61.754518,118.54058 C 61.67623,119.11962 61.80826,119.86022 63.076609,119.89573 C 64.635497,119.93937 64.809894,116.97817 65.678378,115.50384 z "
         id="path2887" />
    </g>
    <path
       sodipodi:nodetypes="cssssssssssc"
       id="path2863"
       d="M 51.622337,201.28092 C 51.622337,201.28092 49.463791,202.98711 46.610459,205.16512 C 44.372292,206.87357 40.721503,210.54105 37.087893,212.55173 C 30.937785,215.95492 27.189434,215.94067 25.184683,211.80587 C 23.179932,207.67107 21.869742,198.90028 28.413793,181.48401 C 34.957845,164.06773 38.591456,155.92344 41.222691,152.54042 C 43.853927,149.1574 45.357491,145.19427 50.619962,141.51725 C 57.250466,136.88435 59.014856,139.13364 60.393123,139.63483 C 61.622503,140.08188 64.653218,144.02023 64.903812,146.77676 C 65.154406,149.53329 63.931035,150.66096 63.931035,152.66571 C 63.931035,154.67046 62.899061,158.42937 63.024358,161.4365 C 63.149655,164.44363 53.501791,194.89078 51.622337,201.28092 z "
       style="opacity:1;color:black;fill:white;fill-opacity:1;fill-rule:evenodd;stroke:black;stroke-width:1.25;stroke-linecap:round;stroke-linejoin:round;marker:none;marker-start:none;marker-mid:none;marker-end:none;stroke-miterlimit:4;stroke-dasharray:none;stroke-dashoffset:0;stroke-opacity:1;visibility:visible;display:inline;overflow:visible" />
    <g
       id="g2821">
      <path
         style="opacity:1;color:black;fill:#fe0;fill-opacity:1;fill-rule:evenodd;stroke:black;stroke-width:0.87707853;stroke-linecap:round;stroke-linejoin:round;marker:none;marker-start:none;marker-mid:none;marker-end:none;stroke-miterlimit:4;stroke-dasharray:none;stroke-dashoffset:0;stroke-opacity:1;visibility:visible;display:inline;overflow:visible"
         d="M 20.172806,191.63306 C 20.452206,193.27892 19.421025,196.39434 23.430527,196.51964 C 27.440029,196.64494 33.615846,192.56401 38.340862,188.50064 C 46.844179,181.18805 45.940296,166.75709 50.494665,155.72414 C 57.750001,138.1481 50.726509,133.14997 40.071341,145.89968 C 29.416168,158.64939 18.873815,183.98106 20.172806,191.63306 z "
         id="path1927"
         sodipodi:nodetypes="csssss" />
      <path
         style="opacity:1;color:black;fill:#fe0;fill-opacity:1;fill-rule:evenodd;stroke:black;stroke-width:0.87707877;stroke-linecap:round;stroke-linejoin:round;marker:none;marker-start:none;marker-mid:none;marker-end:none;stroke-miterlimit:4;stroke-dasharray:none;stroke-dashoffset:0;stroke-opacity:1;visibility:visible;display:inline;overflow:visible"
         d="M 21.832572,186.39081 C 22.047301,187.87598 21.254802,190.68725 24.336245,190.80031 C 27.417688,190.91338 32.164019,187.23087 35.795359,183.5642 C 42.330456,176.96553 41.63579,163.94345 45.135982,153.98764 C 50.711962,138.12753 45.314163,133.61736 37.125293,145.12233 C 28.93642,156.6273 20.834252,179.48586 21.832572,186.39081 z "
         id="path2817"
         sodipodi:nodetypes="csssss" />
      <path
         style="opacity:1;color:black;fill:black;fill-opacity:1;fill-rule:evenodd;stroke:black;stroke-width:0.87707919;stroke-linecap:round;stroke-linejoin:round;marker:none;marker-start:none;marker-mid:none;marker-end:none;stroke-miterlimit:4;stroke-dasharray:none;stroke-dashoffset:0;stroke-opacity:1;visibility:visible;display:inline;overflow:visible"
         d="M 22.937865,181.01609 C 23.095164,182.20489 22.514622,184.45517 24.771919,184.54566 C 27.029215,184.63618 30.506117,181.68852 33.166237,178.75355 C 37.953491,173.47166 37.444616,163.04819 40.008665,155.07909 C 44.093322,142.38392 40.13919,138.77377 34.140474,147.98289 C 28.141754,157.192 22.206551,175.48905 22.937865,181.01609 z "
         id="path2819"
         sodipodi:nodetypes="csssss" />
    </g>
    <g
       id="g2830">
      <path
         style="opacity:1;color:black;fill:green;fill-opacity:1;fill-rule:evenodd;stroke:black;stroke-width:1.25;stroke-linecap:round;stroke-linejoin:round;marker:none;marker-start:none;marker-mid:none;marker-end:none;stroke-miterlimit:4;stroke-dasharray:none;stroke-dashoffset:0;stroke-opacity:1;visibility:visible;display:inline;overflow:visible"
         d="M 20.298104,191.24138 C 20.298104,191.24138 18.602155,187.49826 17.758621,181.9852 C 16.915086,176.47213 19.31546,152.66571 21.310345,147.40324 C 23.30523,142.14077 23.681121,132.24232 27.941216,129.73638 C 32.201312,127.23044 36.346806,124.60118 38.340862,123.75863 C 40.887464,122.68261 44.306789,124.40422 44.355115,124.7245 C 44.748497,127.33161 46.253315,128.23281 48.991102,129.61107 C 51.728889,130.98934 58.72263,133.98634 58.513669,136.8783 C 58.205852,141.1384 42.016312,141.80162 40.47091,143.51904 C 38.962764,145.19505 25.738144,171.73011 25.184684,173.96619 C 24.540506,176.56878 23.054636,180.99861 20.298104,191.24138 z "
         id="path2826"
         sodipodi:nodetypes="csssssssssc" />
      <path
         style="opacity:1;color:black;fill:none;fill-opacity:1;fill-rule:evenodd;stroke:black;stroke-width:0.87707853;stroke-linecap:round;stroke-linejoin:round;marker:none;marker-start:none;marker-mid:none;marker-end:none;stroke-miterlimit:4;stroke-dasharray:none;stroke-dashoffset:0;stroke-opacity:1;visibility:visible;display:inline;overflow:visible"
         d="M 48.114023,129.10989 C 48.114023,129.10989 46.165532,127.98478 43.35274,127.85692 C 40.596207,127.73162 37.530872,130.82162 35.333736,134.03791 C 33.771462,136.32485 30.400347,142.0564 28.818295,140.26131 C 27.19589,138.42044 30.317189,136.93673 32.451906,133.87117 C 34.535548,130.87896 39.593832,125.60158 43.728631,127.85692"
         id="path2828"
         sodipodi:nodetypes="cssssc" />
    </g>
    <path
       sodipodi:nodetypes="ccsccscc"
       id="path2861"
       d="M 63.650843,144.8973 C 63.650843,144.8973 64.249703,142.55711 61.506983,139.00835 C 57.260699,138.09082 51.622337,139.50954 47.86343,142.26607 C 43.69744,145.32112 40.897032,150.63313 39.844425,153.54279 C 43.396855,158.18336 46.243434,156.47757 50.870556,156.67522 C 51.246446,155.72414 54.51502,150.28507 56.827586,149.90918 C 59.140153,149.53329 62.523171,150.41037 62.523171,150.41037 L 63.650843,144.8973 z "
       style="opacity:1;color:black;fill:green;fill-opacity:1;fill-rule:evenodd;stroke:black;stroke-width:0.87707853;stroke-linecap:round;stroke-linejoin:round;marker:none;marker-start:none;marker-mid:none;marker-end:none;stroke-miterlimit:4;stroke-dasharray:none;stroke-dashoffset:0;stroke-opacity:1;visibility:visible;display:inline;overflow:visible" />
    <g
       id="g2851">
      <path
         style="color:black;fill:red;fill-opacity:1;fill-rule:evenodd;stroke:black;stroke-width:0.87707853;stroke-linecap:round;stroke-linejoin:round;marker:none;marker-start:none;marker-mid:none;marker-end:none;stroke-miterlimit:4;stroke-dasharray:none;stroke-dashoffset:0;stroke-opacity:1;visibility:visible;display:inline;overflow:visible"
         d="M 62.827735,151.23872 C 65.46765,148.39368 64.812589,145.99505 64.670185,144.47765 C 63.19731,144.43854 60.379311,145.99076 60.379311,147.61689 C 60.379311,149.24302 59.440682,145.55157 56.988452,143.81242 C 55.866691,145.6951 55.557996,147.46906 56.384096,148.72561 C 54.992748,147.76472 52.519872,146.656 50.836668,146.656 C 50.705678,149.02127 50.853508,149.98217 52.110063,151.75613 C 49.744784,151.01698 48.562144,151.11809 47.231674,151.46047 C 47.896909,153.65072 48.783889,154.66221 50.262188,155.30405 C 48.562144,154.98499 45.235969,155.67362 44.94031,158.0389 C 47.379504,158.63022 48.742598,158.55631 49.724138,158.26065 C 50.705678,157.96499 52.553553,153.604 54.992747,151.83004 C 57.489138,150.01449 59.685159,149.51111 62.827735,151.23872 z "
         id="path2816"
         sodipodi:nodetypes="ccscccccccssc" />
      <g
         id="g2818">
        <path
           sodipodi:nodetypes="cssssc"
           id="path2814"
           d="M 62.827736,151.75613 C 62.827736,151.75613 64.749525,150.72132 62.679906,148.50387 C 60.240256,145.88996 54.807048,149.51214 53.514448,150.57349 C 52.688126,151.25198 50.207836,152.78367 49.724138,155.72414 C 49.428478,157.5215 50.114358,159.73894 52.479638,158.85197 C 54.844917,157.96499 61.053776,153.23443 62.827736,151.75613 z "
           style="opacity:1;color:black;fill:#fe0;fill-opacity:1;fill-rule:evenodd;stroke:black;stroke-width:0.87707853;stroke-linecap:round;stroke-linejoin:round;marker:none;marker-start:none;marker-mid:none;marker-end:none;stroke-miterlimit:4;stroke-dasharray:none;stroke-dashoffset:0;stroke-opacity:1;visibility:visible;display:inline;overflow:visible" />
      </g>
      <g
         id="g2845">
        <g
           id="g2988" />
      </g>
    </g>
    <g
       id="g2997">
      <path
         sodipodi:nodetypes="cscc"
         id="path2800"
         d="M 49.234299,179.78459 C 48.670163,178.39539 48.481199,175.42436 49.535327,175.02296 C 50.589457,174.62156 51.486601,175.50553 51.742809,176.87094 C 53.623407,179.82654 52.294039,184.7503 49.234299,179.78459 z "
         style="color:black;fill:#ffd0d0;fill-opacity:1;fill-rule:evenodd;stroke:black;stroke-width:1.25;stroke-linecap:round;stroke-linejoin:round;marker:none;marker-start:none;marker-mid:none;marker-end:none;stroke-miterlimit:4;stroke-dasharray:none;stroke-dashoffset:0;stroke-opacity:1;visibility:visible;display:inline;overflow:visible" />
      <path
         sodipodi:nodetypes="csssssc"
         id="path2798"
         d="M 47.204505,181.6357 C 47.204505,181.6357 46.455688,180.03324 45.908125,178.68483 C 45.343989,177.29563 45.155025,174.3246 46.209153,173.9232 C 47.263283,173.5218 48.160427,174.40577 48.416635,175.77118 C 48.753405,177.56595 49.089026,178.25765 49.562943,178.85123 C 50.213721,179.66634 50.766789,182.0246 49.727638,182.34701 C 48.688488,182.66941 47.214758,181.71287 47.204505,181.6357 z "
         style="color:black;fill:#ffd0d0;fill-opacity:1;fill-rule:evenodd;stroke:black;stroke-width:1.25;stroke-linecap:round;stroke-linejoin:round;marker:none;marker-start:none;marker-mid:none;marker-end:none;stroke-miterlimit:4;stroke-dasharray:none;stroke-dashoffset:0;stroke-opacity:1;visibility:visible;display:inline;overflow:visible" />
      <path
         sodipodi:nodetypes="csssssc"
         id="path2796"
         d="M 45.507179,183.90914 C 45.507179,183.90914 44.284991,182.72482 43.49581,181.50203 C 42.682745,180.24224 42.13154,177.10784 43.092435,176.51709 C 44.05333,175.92633 45.09945,176.62769 45.605545,177.92147 C 46.27078,179.62208 46.729386,180.23914 47.305589,180.73404 C 48.096826,181.41364 49.079549,183.62758 48.118654,184.13794 C 47.157759,184.64829 45.531629,183.98305 45.507179,183.90914 z "
         style="color:black;fill:#ffd0d0;fill-opacity:1;fill-rule:evenodd;stroke:black;stroke-width:1.25;stroke-linecap:round;stroke-linejoin:round;marker:none;marker-start:none;marker-mid:none;marker-end:none;stroke-miterlimit:4;stroke-dasharray:none;stroke-dashoffset:0;stroke-opacity:1;visibility:visible;display:inline;overflow:visible" />
      <path
         style="color:black;fill:#ffd0d0;fill-opacity:1;fill-rule:evenodd;stroke:black;stroke-width:1.25296938;stroke-linecap:round;stroke-linejoin:round;marker:none;marker-start:none;marker-mid:none;marker-end:none;stroke-miterlimit:4;stroke-dasharray:none;stroke-dashoffset:0;stroke-opacity:1;visibility:visible;display:inline;overflow:visible"
         d="M 63.187797,152.83765 C 64.02574,153.92982 64.674426,155.09051 64.883489,158.64458 C 65.092552,162.19866 56.588259,182.7403 53.036535,184.32589 C 49.484811,185.91147 43.773831,187.96066 42.753765,187.37491 C 41.661194,186.74751 41.710197,185.07064 43.276071,184.6782 C 46.133984,183.96195 48.217495,182.4751 49.053747,181.93719 C 49.89,181.39927 51.539318,175.97788 51.539318,175.25672 C 51.539318,174.53556 50.373712,169.69957 50.840389,167.26256 C 51.12393,165.78188 51.925011,160.65913 53.423692,159.19569 C 52.335349,158.9888 51.957444,157.90326 51.957444,156.64888 C 51.957444,155.3945 52.696137,154.84341 54.540117,153.1709 C 56.384096,151.4984 57.667101,150.77449 59.792059,150.60091 C 61.29137,150.47844 62.980425,152.56737 63.187797,152.83765 z "
         id="path1905"
         sodipodi:nodetypes="cssssssscssss" />
      <path
         style="color:black;fill:none;fill-opacity:1;fill-rule:evenodd;stroke:black;stroke-width:0.87707853;stroke-linecap:round;stroke-linejoin:round;marker:none;marker-start:none;marker-mid:none;marker-end:none;stroke-miterlimit:4;stroke-dasharray:none;stroke-dashoffset:0;stroke-opacity:1;visibility:visible;display:inline;overflow:visible"
         d="M 55.214492,157.37367 C 54.840707,158.05248 53.668126,159.08674 53.201947,159.76556"
         id="path2794"
         sodipodi:nodetypes="cz" />
    </g>
    <path
       sodipodi:nodetypes="ccscc"
       id="path2875"
       d="M 147.85038,90.769027 L 144.21677,86.13304 C 144.21677,86.13304 137.03782,91.641537 137.82663,92.27259 C 139.0796,93.274966 140.42234,96.472504 141.56778,100.02423 C 143.96618,96.559324 147.72509,90.894324 147.85038,90.769027 z "
       style="opacity:1;color:black;fill:#fe0;fill-opacity:1;fill-rule:evenodd;stroke:black;stroke-width:0.87707853;stroke-linecap:round;stroke-linejoin:round;marker:none;marker-start:none;marker-mid:none;marker-end:none;stroke-miterlimit:4;stroke-dasharray:none;stroke-dashoffset:0;stroke-opacity:1;visibility:visible;display:inline;overflow:visible" />
    <path
       sodipodi:nodetypes="cc"
       id="path2877"
       d="M 145.46974,93.90145 L 143.33969,90.518433"
       style="opacity:1;color:black;fill:none;fill-opacity:1;fill-rule:evenodd;stroke:black;stroke-width:0.87707853;stroke-linecap:round;stroke-linejoin:round;marker:none;marker-start:none;marker-mid:none;marker-end:none;stroke-miterlimit:4;stroke-dasharray:none;stroke-dashoffset:0;stroke-opacity:1;visibility:visible;display:inline;overflow:visible" />
    <g
       id="g2860">
      <path
         style="color:black;fill:#08f;fill-opacity:1;fill-rule:evenodd;stroke:black;stroke-width:0.87707853;stroke-linecap:round;stroke-linejoin:round;marker:none;marker-start:none;marker-mid:none;marker-end:none;stroke-miterlimit:4;stroke-dasharray:none;stroke-dashoffset:0;stroke-opacity:1;visibility:visible;display:inline;overflow:visible"
         d="M 131.6875,79.53125 C 131.6875,79.53125 127.35483,90.433671 122.4375,101.625 C 117.52018,112.81631 113.46875,132.61005 112.46875,141.21875 C 113.702,140.83269 114.52519,140.53138 115.1875,140.3125 L 118.84375,134.75 C 120.97712,128.56653 124.68001,118.92446 127.4375,112.8125 C 131.0625,104.77773 140.40108,94.263569 146.90625,90.15625 C 145.40157,87.591827 144.05364,86.701905 141.1875,84.40625 C 137.93011,81.797217 131.6875,79.531253 131.6875,79.53125 z "
         transform="matrix(1.002375,0,0,1.002375,0,-0.551729)"
         id="path2848" />
      <path
         style="color:black;fill:white;fill-opacity:1;fill-rule:evenodd;stroke:black;stroke-width:0.87707853;stroke-linecap:round;stroke-linejoin:round;marker:none;marker-start:none;marker-mid:none;marker-end:none;stroke-miterlimit:4;stroke-dasharray:none;stroke-dashoffset:0;stroke-opacity:1;visibility:visible;display:inline;overflow:visible"
         d="M 140.92209,86.71874 C 140.92209,86.71874 126.41724,105.1276 123.15952,111.45564 C 118.88356,119.76159 113.51264,135.61728 112.88517,138.7813 C 111.75651,138.49365 110.91791,139.06893 108.16138,139.93185 C 109.16375,131.30269 113.29917,111.41723 117.77175,99.950118 C 121.69838,89.882763 126.04135,78.089588 126.04135,78.089588 C 126.04135,78.089588 133.70222,80.390696 136.57517,83.554719 C 139.44812,86.71874 139.19753,83.842356 140.92209,86.71874 z "
         id="path2850"
         sodipodi:nodetypes="csccscsc" />
      <path
         style="color:black;fill:green;fill-opacity:1;fill-rule:evenodd;stroke:black;stroke-width:0.87707853;stroke-linecap:round;stroke-linejoin:round;marker:none;marker-start:none;marker-mid:none;marker-end:none;stroke-miterlimit:4;stroke-dasharray:none;stroke-dashoffset:0;stroke-opacity:1;visibility:visible;display:inline;overflow:visible"
         d="M 144.68099,86.86256 C 144.68099,86.86256 133.05798,93.765884 124.66308,112.17473 C 120.7652,120.72226 115.76799,135.61728 115.14052,138.7813 C 114.01186,138.49365 113.17326,139.06893 110.41672,139.93185 C 111.4191,131.30269 115.82163,111.64815 120.40299,100.23775 C 124.32962,90.458039 129.67496,78.089588 129.67496,78.089588 C 129.67496,78.089588 142.20466,82.979441 144.68099,86.86256 z "
         id="path2852"
         sodipodi:nodetypes="csccscc" />
    </g>
    <path
       sodipodi:nodetypes="ccccc"
       id="path2925"
       d="M 118.32974,77.846936 C 118.32974,77.846936 120.84034,81.132006 121.39378,84.635793 C 120.3339,103.04628 95.528841,106.95301 88.433709,87.254777 C 89.479025,82.446325 92.824035,74.981613 92.824035,74.981613 L 118.32974,77.846936 z "
       style="opacity:1;color:black;fill:#ffd0d0;fill-opacity:1;fill-rule:evenodd;stroke:black;stroke-width:1.25;stroke-linecap:round;stroke-linejoin:round;marker:none;marker-start:none;marker-mid:none;marker-end:none;stroke-miterlimit:4;stroke-dasharray:none;stroke-dashoffset:0;stroke-opacity:1;visibility:visible;display:inline;overflow:visible" />
    <g
       id="g2933">
      <path
         style="color:black;fill:#fe0;fill-opacity:1;fill-rule:evenodd;stroke:black;stroke-width:0.87707853;stroke-linecap:round;stroke-linejoin:round;marker:none;marker-start:none;marker-mid:none;marker-end:none;stroke-miterlimit:4;stroke-dasharray:none;stroke-dashoffset:0;stroke-opacity:1;visibility:visible;display:inline;overflow:visible"
         d="M 88.209042,80.460225 C 88.209042,80.460225 89.479025,85.082195 91.621923,89.554471 C 93.76482,94.026748 96.941116,96.657223 99.948243,97.133011 C 102.95537,97.608798 107.51392,96.150258 111.01203,95.241901 C 114.46265,94.345875 118.6312,93.024645 119.61492,87.620638 C 120.27981,83.96808 120.58072,80.741687 117.09767,78.547625 C 118.49301,73.914369 120.21115,69.535293 120.21115,69.535293 C 129.00429,75.827066 129.85801,89.04546 124.93072,94.065588 C 122.656,96.383161 121.08959,99.267105 113.26843,102.51639 C 107.273,105.00718 102.81076,104.37715 100.74191,103.51481 C 95.854478,101.47762 92.569148,100.63001 90.513198,99.482115 C 85.747592,96.821349 85.580537,95.315736 84.430331,74.799806 C 88.010685,74.019175 88.209042,80.460225 88.209042,80.460225"
         id="path2937"
         sodipodi:nodetypes="cssssccsssscc" />
      <path
         style="color:black;fill:none;fill-opacity:1;fill-rule:evenodd;stroke:black;stroke-width:0.87707853;stroke-linecap:round;stroke-linejoin:round;marker:none;marker-start:none;marker-mid:none;marker-end:none;stroke-miterlimit:4;stroke-dasharray:none;stroke-dashoffset:0;stroke-opacity:1;visibility:visible;display:inline;overflow:visible"
         d="M 119.29878,76.362844 C 119.29878,76.362844 123.75331,78.729354 123.14236,83.015192 C 121.53258,94.307912 115.60303,93.51112 115.60303,93.51112"
         id="path2950"
         sodipodi:nodetypes="csc" />
    </g>
    <path
       sodipodi:nodetypes="cssssssc"
       id="path2831"
       d="M 124.38807,62.207253 C 124.38807,62.207253 126.43062,74.765596 130.12387,74.33453 C 134.42522,73.832491 133.59558,76.681595 133.25765,78.875796 C 132.96982,80.744683 135.25163,81.768987 137.55635,81.175491 C 140.35225,80.45551 141.0986,83.560159 137.55635,83.893312 C 132.86694,84.334358 129.99786,84.151558 130.08333,80.550998 C 130.1676,77.000274 130.392,76.576102 129.13762,76.994228 C 127.88324,77.412354 122.83601,71.148791 122.83601,71.148791"
       style="opacity:1;color:black;fill:#ffee80;fill-opacity:1;fill-rule:evenodd;stroke:black;stroke-width:1.25;stroke-linecap:round;stroke-linejoin:round;marker:none;marker-start:none;marker-mid:none;marker-end:none;stroke-miterlimit:4;stroke-dasharray:none;stroke-dashoffset:0;stroke-opacity:1;visibility:visible;display:inline;overflow:visible" />
    <g
       id="g2937">
      <path
         style="opacity:1;color:black;fill:#fe0;fill-opacity:1;fill-rule:evenodd;stroke:black;stroke-width:1.25046337;stroke-linecap:round;stroke-linejoin:round;marker:none;marker-start:none;marker-mid:none;marker-end:none;stroke-miterlimit:4;stroke-dasharray:none;stroke-dashoffset:0;stroke-opacity:1;visibility:visible;display:inline;overflow:visible"
         d="M 133.08778,24.281567 C 135.28196,22.737108 137.21051,22.338407 138.74594,22.338407 C 140.28136,22.338407 143.17357,24.029563 143.17357,24.029563 C 147.21795,22.83803 155.03635,21.550004 157.20683,26.034314 C 158.08935,27.857635 156.20445,30.043816 156.20445,30.043816 L 156.20445,30.043816 C 161.00949,32.564462 164.48247,46.859891 157.1023,47.972534 C 156.58199,52.628547 153.76595,56.111682 149.87661,58.171921 C 144.86473,60.176672 138.02936,59.340419 137.56354,57.335668 C 133.35017,56.561702 130.35675,52.108745 132.14744,48.043634 C 134.07793,43.661153 136.35562,43.357997 138.57982,42.955018 C 140.72069,42.567136 141.02134,43.686739 141.02134,43.686739 C 141.02134,43.686739 143.58861,41.236981 144.21889,39.920099 C 146.51858,35.11515 142.65066,31.755522 140.60322,31.734972 C 135.26386,31.681382 134.0825,33.502496 128.85838,35.873295 C 125.06786,37.5935 128.90488,33.931874 124.91522,33.678132 C 124.91522,33.678132 126.13319,28.039065 127.13556,27.03669 C 128.13794,26.034314 129.56176,24.199141 133.08778,24.281567 z "
         id="path2872"
         sodipodi:nodetypes="cscscccccsscssscsc" />
      <path
         style="opacity:1;color:black;fill:none;fill-opacity:1;fill-rule:evenodd;stroke:black;stroke-width:0.87707853;stroke-linecap:round;stroke-linejoin:round;marker:none;marker-start:none;marker-mid:none;marker-end:none;stroke-miterlimit:4;stroke-dasharray:none;stroke-dashoffset:0;stroke-opacity:1;visibility:visible;display:inline;overflow:visible"
         d="M 128.57383,32.89836 C 128.57383,32.89836 131.70978,25.999276 142.58106,26.208339 C 153.45235,26.417402 155.96111,34.361802 155.96111,38.543065 C 155.96111,42.724328 151.9889,50.250601 146.97139,51.295916 C 141.95387,52.341232 136.4137,50.668727 136.4137,47.950906 C 136.4137,46.696527 136.62276,45.223944 138.60886,44.910349"
         id="path2874"
         sodipodi:nodetypes="cssssc" />
      <path
         style="opacity:1;color:black;fill:none;fill-opacity:1;fill-rule:evenodd;stroke:black;stroke-width:0.87707853;stroke-linecap:round;stroke-linejoin:round;marker:none;marker-start:none;marker-mid:none;marker-end:none;stroke-miterlimit:4;stroke-dasharray:none;stroke-dashoffset:0;stroke-opacity:1;visibility:visible;display:inline;overflow:visible"
         d="M 129.26349,28.392624 C 129.26349,28.392624 131.19188,25.817034 132.85963,24.862839"
         id="path2876"
         sodipodi:nodetypes="cc" />
      <path
         style="opacity:1;color:black;fill:none;fill-opacity:1;fill-rule:evenodd;stroke:black;stroke-width:0.87707853;stroke-linecap:round;stroke-linejoin:round;marker:none;marker-start:none;marker-mid:none;marker-end:none;stroke-miterlimit:4;stroke-dasharray:none;stroke-dashoffset:0;stroke-opacity:1;visibility:visible;display:inline;overflow:visible"
         d="M 141.33494,24.862839 L 144.34207,23.860464"
         id="path2878" />
      <path
         style="opacity:1;color:black;fill:none;fill-opacity:1;fill-rule:evenodd;stroke:black;stroke-width:0.87707853;stroke-linecap:round;stroke-linejoin:round;marker:none;marker-start:none;marker-mid:none;marker-end:none;stroke-miterlimit:4;stroke-dasharray:none;stroke-dashoffset:0;stroke-opacity:1;visibility:visible;display:inline;overflow:visible"
         d="M 152.36107,27.869966 C 152.36107,27.869966 155.95245,29.874717 156.95482,30.877092"
         id="path2880"
         sodipodi:nodetypes="cc" />
      <path
         style="opacity:1;color:black;fill:none;fill-opacity:1;fill-rule:evenodd;stroke:black;stroke-width:0.87707853;stroke-linecap:round;stroke-linejoin:round;marker:none;marker-start:none;marker-mid:none;marker-end:none;stroke-miterlimit:4;stroke-dasharray:none;stroke-dashoffset:0;stroke-opacity:1;visibility:visible;display:inline;overflow:visible"
         d="M 156.32763,43.680259 C 156.32763,43.680259 157.01642,45.793414 156.85029,48.022007"
         id="path2882"
         sodipodi:nodetypes="cc" />
      <path
         style="opacity:1;color:black;fill:none;fill-opacity:1;fill-rule:evenodd;stroke:black;stroke-width:0.87707853;stroke-linecap:round;stroke-linejoin:round;marker:none;marker-start:none;marker-mid:none;marker-end:none;stroke-miterlimit:4;stroke-dasharray:none;stroke-dashoffset:0;stroke-opacity:1;visibility:visible;display:inline;overflow:visible"
         d="M 147.23338,54.133416 C 147.23338,54.133416 146.0406,56.873761 137.82554,57.220785"
         id="path2884"
         sodipodi:nodetypes="cc" />
      <path
         style="opacity:1;color:black;fill:none;fill-opacity:1;fill-rule:evenodd;stroke:black;stroke-width:0.87707853;stroke-linecap:round;stroke-linejoin:round;marker:none;marker-start:none;marker-mid:none;marker-end:none;stroke-miterlimit:4;stroke-dasharray:none;stroke-dashoffset:0;stroke-opacity:1;visibility:visible;display:inline;overflow:visible"
         d="M 140.81228,44.012505 C 139.80991,44.762877 145.33741,52.479192 150.03028,42.710992"
         id="path2886"
         sodipodi:nodetypes="cc" />
      <path
         style="opacity:1;color:black;fill:#fe0;fill-opacity:1;fill-rule:evenodd;stroke:black;stroke-width:0.87707853;stroke-linecap:round;stroke-linejoin:round;marker:none;marker-start:none;marker-mid:none;marker-end:none;stroke-miterlimit:4;stroke-dasharray:none;stroke-dashoffset:0;stroke-opacity:1;visibility:visible;display:inline;overflow:visible"
         d="M 143.69073,31.274704 C 146.35856,30.699377 147.98159,33.154463 144.30963,35.477914 C 143.17897,36.193342 140.14182,36.452242 140.33257,38.814033 C 140.4622,40.41906 141.0022,42.509782 143.5429,42.509782 C 146.08359,42.509782 147.09082,38.961862 147.23865,38.222713"
         id="path2907"
         sodipodi:nodetypes="csssc" />
    </g>
    <path
       sodipodi:nodetypes="cscscsssssscccc"
       id="path2919"
       d="M 125.58155,48.42298 C 125.58155,48.42298 127.2816,50.270855 127.13377,52.26656 C 127.04641,53.445969 125.74043,55.962309 125.74043,57.884099 C 126.33573,59.711307 130.39618,60.316447 130.24717,62.008689 C 130.22477,62.263065 130.35466,63.438993 129.2506,64.353566 C 131.78264,66.562814 131.98484,67.857954 131.92556,68.902684 C 131.79073,71.279096 130.49881,72.508793 128.9499,73.640671 C 127.40099,74.77255 126.69091,78.115671 128.90773,78.062889 C 132.01216,77.988973 131.44453,81.298871 128.39032,81.176131 C 126.33175,81.093402 123.15793,80.848346 124.39892,75.401949 C 124.66974,74.213376 125.83113,72.167851 127.05986,70.37573 C 128.58756,68.147565 126.32071,66.162575 123.8076,64.536446 C 124.25109,67.56696 124.69457,71.514214 118.78137,76.192937 C 119.70275,62.240589 116.4446,49.951495 119.44661,45.614211 C 119.59444,43.840251 124.10326,46.649021 125.58155,48.42298 z "
       style="opacity:1;color:black;fill:#ffee80;fill-opacity:1;fill-rule:evenodd;stroke:black;stroke-width:1.25;stroke-linecap:round;stroke-linejoin:round;marker:none;marker-start:none;marker-mid:none;marker-end:none;stroke-miterlimit:4;stroke-dasharray:none;stroke-dashoffset:0;stroke-opacity:1;visibility:visible;display:inline;overflow:visible" />
    <path
       sodipodi:nodetypes="csc"
       id="path2923"
       d="M 123.73567,64.957859 C 123.73567,64.957859 123.29218,62.953108 122.28981,61.950732 C 121.28743,60.948357 120.851,59.945981 120.851,59.945981"
       style="opacity:1;color:black;fill:none;fill-opacity:1;fill-rule:evenodd;stroke:black;stroke-width:0.87707853;stroke-linecap:round;stroke-linejoin:round;marker:none;marker-start:none;marker-mid:none;marker-end:none;stroke-miterlimit:4;stroke-dasharray:none;stroke-dashoffset:0;stroke-opacity:1;visibility:visible;display:inline;overflow:visible" />
    <g
       id="g2840">
      <path
         style="opacity:1;color:black;fill:#08f;fill-opacity:1;fill-rule:evenodd;stroke:black;stroke-width:0.87707853;stroke-linecap:round;stroke-linejoin:round;marker:none;marker-start:none;marker-mid:none;marker-end:none;stroke-miterlimit:4;stroke-dasharray:none;stroke-dashoffset:0;stroke-opacity:1;visibility:visible;display:inline;overflow:visible"
         d="M 62.615417,96.472997 C 69.136044,100.05984 78.498529,109.25329 82.132141,116.26991 C 85.997301,123.73366 91.779018,137.31981 92.406489,140.07634 C 93.535148,139.82574 94.373749,140.32693 97.130282,141.07871 C 96.127907,133.56089 92.073022,116.26992 87.144018,106.49676 C 82.215014,96.723591 77.872045,87.201024 77.872045,87.201024 C 77.872045,87.201024 71.605735,89.182701 68.340598,91.46112 C 65.467648,93.46587 64.123673,94.233535 62.615417,96.472997 z "
         id="path2836"
         sodipodi:nodetypes="csccscsc" />
      <path
         style="opacity:1;color:black;fill:white;fill-opacity:1;fill-rule:evenodd;stroke:black;stroke-width:0.87707853;stroke-linecap:round;stroke-linejoin:round;marker:none;marker-start:none;marker-mid:none;marker-end:none;stroke-miterlimit:4;stroke-dasharray:none;stroke-dashoffset:0;stroke-opacity:1;visibility:visible;display:inline;overflow:visible"
         d="M 68.942913,93.776153 C 68.942913,93.776153 83.447759,109.81416 86.70548,115.32722 C 90.981445,122.56346 96.352357,136.37712 96.979828,139.13365 C 98.108487,138.88305 98.947088,139.38424 101.70362,140.13602 C 100.70125,132.6182 96.565834,115.29376 92.093248,105.30348 C 88.166619,96.532686 83.82365,86.258337 83.82365,86.258337 C 83.82365,86.258337 76.162778,88.263088 73.289828,91.019621 C 70.416878,93.776153 70.667472,91.270214 68.942913,93.776153 z "
         id="path2838"
         sodipodi:nodetypes="csccscsc" />
      <path
         style="opacity:1;color:black;fill:green;fill-opacity:1;fill-rule:evenodd;stroke:black;stroke-width:0.87707853;stroke-linecap:round;stroke-linejoin:round;marker:none;marker-start:none;marker-mid:none;marker-end:none;stroke-miterlimit:4;stroke-dasharray:none;stroke-dashoffset:0;stroke-opacity:1;visibility:visible;display:inline;overflow:visible"
         d="M 65.184005,93.90145 C 65.184005,93.90145 76.807021,99.915705 85.201917,115.9537 C 89.099805,123.40041 94.097012,136.37712 94.724483,139.13365 C 95.853142,138.88305 96.691743,139.38424 99.448276,140.13602 C 98.445901,132.6182 94.043373,115.49494 89.462012,105.55407 C 85.535383,97.033873 80.190039,86.258337 80.190039,86.258337 C 80.190039,86.258337 67.660345,90.518433 65.184005,93.90145 z "
         id="path2834"
         sodipodi:nodetypes="csccscc" />
    </g>
    <g
       id="g2958">
      <path
         id="path2914"
         d="M 90.803944,117.05383 C 90.277418,119.06247 87.880337,121.74291 89.945903,122.7581 C 90.949612,123.25166 91.270669,122.76685 91.481096,122.31211 C 91.614462,123.55009 91.714814,124.90331 91.50688,125.42881 C 92.59662,125.08562 93.434718,125.02712 94.368318,124.81117 C 94.024554,124.56187 93.215824,123.33362 92.490778,122.17193 C 93.051307,122.46303 93.851017,122.59801 94.339397,121.31439 C 94.93965,119.73672 91.992526,118.47905 90.803944,117.05383 z "
         style="opacity:1;color:black;fill:black;fill-opacity:1;fill-rule:evenodd;stroke:none;stroke-width:1.25;stroke-linecap:round;stroke-linejoin:round;marker:none;marker-start:none;marker-mid:none;marker-end:none;stroke-miterlimit:4;stroke-dasharray:none;stroke-dashoffset:0;stroke-opacity:1;visibility:visible;display:inline;overflow:visible" />
      <path
         id="path2910"
         d="M 72.957003,90.799848 C 73.365856,93.558215 71.806827,98.146991 74.909559,98.291825 C 76.417393,98.362535 76.559635,97.592834 76.580381,96.919476 C 77.401084,98.374214 78.241758,99.988708 78.261548,100.74794 C 79.433483,99.741008 80.443495,99.219834 81.488823,98.4534 C 80.929936,98.33025 79.27553,97.249348 77.760298,96.205692 C 78.610542,96.264239 79.675259,96.002181 79.60265,94.158047 C 79.513414,91.891495 75.187421,91.920038 72.957003,90.799848 z "
         style="opacity:1;color:black;fill:black;fill-opacity:1;fill-rule:evenodd;stroke:none;stroke-width:1.25;stroke-linecap:round;stroke-linejoin:round;marker:none;marker-start:none;marker-mid:none;marker-end:none;stroke-miterlimit:4;stroke-dasharray:none;stroke-dashoffset:0;stroke-opacity:1;visibility:visible;display:inline;overflow:visible" />
      <path
         id="path2912"
         d="M 83.626973,103.2415 C 83.508793,105.65384 81.455811,109.26237 84.004099,109.94578 C 85.242436,110.27817 85.487921,109.65134 85.616715,109.08425 C 86.056021,110.46582 86.485409,111.98644 86.375987,112.63368 C 87.514448,111.99177 88.438161,111.73244 89.4318,111.27157 C 88.988868,111.06618 87.796435,109.85089 86.713206,108.69232 C 87.408389,108.89558 88.334514,108.8658 88.579941,107.28928 C 88.881591,105.35164 85.290436,104.59418 83.626973,103.2415 z "
         style="opacity:1;color:black;fill:black;fill-opacity:1;fill-rule:evenodd;stroke:none;stroke-width:1.25;stroke-linecap:round;stroke-linejoin:round;marker:none;marker-start:none;marker-mid:none;marker-end:none;stroke-miterlimit:4;stroke-dasharray:none;stroke-dashoffset:0;stroke-opacity:1;visibility:visible;display:inline;overflow:visible" />
    </g>
    <g
       id="g2928">
      <path
         style="color:black;fill:#fe0;fill-opacity:1;fill-rule:evenodd;stroke:black;stroke-width:0.87707829;stroke-linecap:round;stroke-linejoin:round;marker:none;marker-start:none;marker-mid:none;marker-end:none;stroke-miterlimit:4;stroke-dasharray:none;stroke-dashoffset:0;stroke-opacity:1;visibility:visible;display:inline;overflow:visible"
         d="M 104.95768,103.82029 C 104.95768,103.82029 102.97713,103.05514 104.0851,106.08325 C 107.01051,113.46639 103.69239,120.77274 104.22978,127.34265 C 105.28303,126.89125 108.75778,125.6931 110.92258,125.61039 C 111.91413,125.5725 114.33878,125.62095 117.24711,124.39333 C 116.36699,121.23783 113.58619,117.46648 113.31453,113.5573 C 112.93793,108.13816 110.85607,106.11333 109.07393,100.96105 L 104.95768,103.82029 z "
         id="path2941"
         sodipodi:nodetypes="cccscscc" />
      <path
         style="color:black;fill:#fe0;fill-opacity:1;fill-rule:evenodd;stroke:black;stroke-width:0.87707853;stroke-linecap:round;stroke-linejoin:round;marker:none;marker-start:none;marker-mid:none;marker-end:none;stroke-miterlimit:4;stroke-dasharray:none;stroke-dashoffset:0;stroke-opacity:1;visibility:visible;display:inline;overflow:visible"
         d="M 109.7439,103.42675 C 109.7439,103.42675 110.6134,105.63507 109.00475,108.42957 C 107.29566,111.39854 104.91228,114.97847 104.24705,118.64221 C 103.98867,120.06524 103.68816,127.36419 103.68816,127.36419 C 103.68816,127.36419 101.23992,126.10276 97.230422,126.10276 C 93.22092,126.10276 90.213793,126.69895 90.213793,126.69895 C 90.213793,126.69895 91.303312,124.09801 92.763304,121.09089 C 94.223295,118.08376 96.514659,114.37564 98.51941,112.77622 C 100.52416,111.1768 102.09115,110.06476 102.66791,108.06 C 103.24467,106.05525 107.25418,101.04338 107.25418,101.04338 L 109.7439,103.42675 z "
         id="path2939"
         sodipodi:nodetypes="csscscssscc" />
      <path
         id="path2927"
         style="opacity:0.98000004;color:black;fill:#fe0;fill-opacity:1;fill-rule:evenodd;stroke:black;stroke-width:0.87707853;stroke-linecap:round;stroke-linejoin:round;marker:none;marker-start:none;marker-mid:none;marker-end:none;stroke-miterlimit:4;stroke-dashoffset:0;stroke-opacity:1;visibility:visible;display:inline;overflow:visible"
         d="M 105.78595,95.826366 C 105.78595,95.826366 106.21675,93.562541 107.88926,93.562541 C 109.56176,93.562541 110.35377,93.90524 111.00045,95.175989 C 111.92334,96.989481 113.506,97.792205 113.93941,99.746296 C 114.27419,101.25565 113.52062,102.8377 112.14287,103.5617 C 110.92489,104.20174 109.82987,104.50437 108.69463,103.86506 C 107.89911,104.95051 107.14126,105.65611 106.09955,105.91367 C 104.76007,106.24485 102.76907,106.8884 101.13429,104.03209 C 102.4914,103.07325 103.28378,101.49473 103.2772,100.05989 C 103.27069,98.693745 103.03048,97.522839 100.55937,97.185276 C 102.17962,94.362924 104.89743,95.277196 105.78595,95.826366 z M 109.02373,101.86282 C 108.9822,103.09573 108.97754,103.39252 108.67468,103.89371 M 105.61529,95.770169 C 107.05727,96.229826 107.79831,97.201406 108.50856,98.44505" />
    </g>
    <path
       sodipodi:nodetypes="cssssssscssss"
       id="path2888"
       d="M 121.95555,47.359586 C 122.28276,49.912947 122.30194,52.50946 122.511,54.934104 C 122.72006,57.358748 122.03562,59.242224 121.46569,59.945981 C 120.67763,60.919095 120.00224,61.017352 119.89771,61.853605 C 119.76805,62.890849 121.04756,63.839705 121.46569,66.348463 C 121.88381,68.85722 121.04756,74.40471 117.07536,79.993491 C 113.10316,85.582272 110.17628,88.300093 108.50377,88.509156 C 106.83127,88.718219 99.717938,86.627588 95.225671,83.909767 C 90.733404,81.191946 86.970267,75.965367 86.970267,75.965367 C 86.970267,75.965367 84.58472,70.96192 84.46151,65.094084 C 84.252446,55.137529 83.834321,51.295916 87.80652,46.90559 C 91.77872,42.515264 96.378109,39.379317 107.45846,40.424633 C 117.0102,41.325742 121.69646,45.337781 121.95555,47.359586 z "
       style="opacity:1;color:black;fill:#ffd0d0;fill-opacity:1;fill-rule:evenodd;stroke:black;stroke-width:1.25296938;stroke-linecap:round;stroke-linejoin:round;marker:none;marker-start:none;marker-mid:none;marker-end:none;stroke-miterlimit:4;stroke-dasharray:none;stroke-dashoffset:0;stroke-opacity:1;visibility:visible;display:inline;overflow:visible" />
    <path
       sodipodi:nodetypes="csccssssssssssscsssscsssccscsscsssssssssssc"
       id="path2890"
       d="M 97.005298,41.679012 C 97.005298,41.679012 98.779518,42.072196 98.886866,44.492223 C 99.09593,49.309817 98.806525,53.776256 94.284887,54.327332 C 94.885296,52.265119 96.477459,49.205285 95.85286,46.696527 C 95.332793,48.682627 95.960356,50.448526 94.598482,51.714043 C 93.079945,53.125139 92.886332,54.118973 93.095395,55.791478 C 93.304458,57.463983 96.893531,60.460852 97.214362,61.54001 C 98.364209,65.407678 96.897933,68.610094 96.064514,68.334562 C 94.551049,67.834204 95.960687,65.575211 95.333497,64.111769 C 94.706308,62.648327 92.507394,60.912821 91.360593,59.031253 C 90.213793,57.149684 89.276056,56.104369 90.213793,54.013737 C 91.15153,51.923106 89.162383,53.517135 89.688088,56.731558 C 90.213793,59.945981 91.987783,61.121884 92.196846,62.794389 C 92.405909,64.466894 91.357547,66.0722 90.837936,67.184715 C 90.318325,68.297231 88.744257,69.693473 89.479025,71.575041 C 90.213793,73.45661 93.242162,73.874736 92.824035,76.383494 C 92.440505,79.171558 88.855984,83.848536 90.524341,85.318963 C 91.586625,86.25522 94.118689,85.694491 93.660288,87.986498 C 93.346694,89.554471 87.460826,88.10338 86.970267,85.895867 C 86.761204,84.955083 87.354058,82.536447 88.329178,80.460225 C 89.900198,77.115214 86.970267,76.383493 86.970267,76.383493 C 86.970267,76.383493 89.645475,78.09286 88.329178,80.460224 C 87.15485,82.572256 85.305139,86.433362 85.506826,88.09103 C 85.643195,89.211854 91.575751,88.927282 90.213793,91.226977 C 88.851836,93.526671 89.060899,92.436708 88.538241,93.317609 C 88.43371,90.853499 85.193231,90.95803 83.729789,90.95803 C 84.474192,92.11313 84.897006,92.794951 81.229716,94.676519 C 77.562426,96.558087 77.562426,98.021528 77.562426,98.021528 C 77.562426,98.021528 72.469025,97.289808 75.277055,94.15386 C 78.085084,91.017913 80.698373,90.868735 78.398679,89.868067 C 76.098984,88.867399 75.616248,89.659003 75.178161,88.509156 C 74.426479,89.659003 72.863324,90.570428 71.290532,91.645103 C 68.742467,93.386173 68.363648,95.199177 70.036153,96.453556 C 71.708658,97.707935 72.095547,99.484968 69.513495,100.53029 C 66.931443,101.5756 66.273017,102.58755 67.318332,100.53029 C 68.363648,98.473026 67.510472,98.485624 66.063953,96.976213 C 63.659727,94.467455 66.377548,91.28686 68.259116,90.077129 C 71.076216,88.26591 76.631552,81.680914 73.694757,82.13273 C 72.335847,82.341794 70.440505,81.384487 71.002537,79.310377 C 72.022252,75.547241 77.353362,75.44271 80.071183,69.379878 C 82.789004,63.317047 80.494193,59.327154 81.743689,54.431864 C 82.503243,51.456075 84.211508,49.604306 88.224646,46.487464 C 91.769272,43.734496 93.039411,42.392121 97.005298,41.679012 z "
       style="opacity:1;color:black;fill:#ffee80;fill-opacity:1;fill-rule:nonzero;stroke:black;stroke-width:1.25;stroke-linecap:round;stroke-linejoin:round;marker:none;marker-start:none;marker-mid:none;marker-end:none;stroke-miterlimit:4;stroke-dasharray:none;stroke-dashoffset:0;stroke-opacity:1;visibility:visible;display:inline;overflow:visible" />
    <path
       sodipodi:nodetypes="csssss"
       id="path2909"
       d="M 93.660289,42.619796 C 91.360594,44.788826 90.220686,46.887438 87.80652,51.295916 C 85.402294,55.686243 86.343078,58.613126 87.701988,60.703758 C 89.035586,62.755448 89.374452,64.864163 86.343078,68.439094 C 85.287056,69.684472 83.771791,71.351302 83.843005,72.306762 C 83.941074,73.622517 85.3522,75.390444 86.656673,76.17443"
       style="opacity:1;color:black;fill:none;fill-opacity:1;fill-rule:evenodd;stroke:black;stroke-width:0.87707853;stroke-linecap:round;stroke-linejoin:round;marker:none;marker-start:none;marker-mid:none;marker-end:none;stroke-miterlimit:4;stroke-dasharray:none;stroke-dashoffset:0;stroke-opacity:1;visibility:visible;display:inline;overflow:visible" />
    <g
       transform="translate(1.672505,0.418126)"
       id="g2868">
      <path
         style="fill:red;fill-opacity:1;fill-rule:evenodd;stroke:black;stroke-width:1.25296938;stroke-linecap:round;stroke-linejoin:round;stroke-miterlimit:4;stroke-dasharray:none;stroke-opacity:1"
         d="M 71.567511,33.407683 C 72.911571,31.964309 79.006963,32.755439 83.04369,31.603734 C 88.594516,30.020048 90.39333,24.496487 93.606731,24.503893 C 96.686114,24.51099 99.933057,28.761595 106.73324,28.761595 C 113.53341,28.761595 115.21851,24.357018 117.67265,24.340181 C 120.75601,24.318086 120.12453,29.194579 127.22037,31.855518 C 134.31621,34.516457 135.78182,32.569866 136.68149,33.841278 C 138.38608,36.250231 134.22961,41.474972 131.86433,43.840251 C 129.49905,46.205531 123.73368,48.12732 123.73368,48.12732 C 123.73368,48.12732 114.01226,42.239486 106.92194,41.648166 C 99.831602,41.056846 90.176279,43.615167 88.10666,44.910349 C 86.03704,46.205531 83.320357,48.686284 83.320357,48.686284 C 83.320357,48.686284 79.993352,47.606845 76.445433,44.847705 C 72.897514,42.088564 70.458039,34.599136 71.567511,33.407683 z "
         id="path1978"
         sodipodi:nodetypes="cssssssscsscss" />
      <path
         style="opacity:1;color:black;fill:none;fill-opacity:1;fill-rule:evenodd;stroke:black;stroke-width:0.87707853;stroke-linecap:round;stroke-linejoin:round;marker:none;marker-start:none;marker-mid:none;marker-end:none;stroke-miterlimit:4;stroke-dasharray:none;stroke-dashoffset:0;stroke-opacity:1;visibility:visible;display:inline;overflow:visible"
         d="M 72.020488,36.261235 C 74.526427,35.726482 80.986345,35.756317 84.271763,34.453839 C 89.050642,32.559291 92.328393,28.378232 93.262505,28.297811 C 95.733031,28.085115 101.01399,32.100419 106.25414,32.025605 C 112.33095,31.941831 115.58251,28.524268 117.28443,28.620339 C 118.65873,28.697916 120.85196,32.993621 126.13273,34.98355 C 129.3677,36.202571 133.51042,36.440338 136.15694,36.661497"
         id="path2866"
         sodipodi:nodetypes="cssssss" />
    </g>
    <g
       id="g2948">
      <path
         sodipodi:type="arc"
         style="opacity:1;color:black;fill:green;fill-opacity:1;fill-rule:nonzero;stroke:black;stroke-width:0.87707853;stroke-linecap:round;stroke-linejoin:round;marker:none;marker-start:none;marker-mid:none;marker-end:none;stroke-miterlimit:4;stroke-dasharray:none;stroke-dashoffset:0;stroke-opacity:1;visibility:visible;display:inline;overflow:visible"
         id="path2895"
         sodipodi:cx="102.8068"
         sodipodi:cy="58.29953"
         sodipodi:rx="1.7247709"
         sodipodi:ry="2.5087578"
         d="M 104.53157 58.29953 A 1.7247709 2.5087578 0 1 1  101.08203,58.29953 A 1.7247709 2.5087578 0 1 1  104.53157 58.29953 z"
         transform="translate(1.018465,0.59132)" />
      <path
         sodipodi:type="arc"
         style="opacity:1;color:black;fill:green;fill-opacity:1;fill-rule:nonzero;stroke:black;stroke-width:0.87707853;stroke-linecap:round;stroke-linejoin:round;marker:none;marker-start:none;marker-mid:none;marker-end:none;stroke-miterlimit:4;stroke-dasharray:none;stroke-dashoffset:0;stroke-opacity:1;visibility:visible;display:inline;overflow:visible"
         id="path2897"
         sodipodi:cx="102.8068"
         sodipodi:cy="58.29953"
         sodipodi:rx="1.7247709"
         sodipodi:ry="2.5087578"
         d="M 104.53157 58.29953 A 1.7247709 2.5087578 0 1 1  101.08203,58.29953 A 1.7247709 2.5087578 0 1 1  104.53157 58.29953 z"
         transform="translate(13.10479,0.815378)" />
    </g>
    <g
       id="g2952">
      <path
         style="opacity:1;color:black;fill:none;fill-opacity:1;fill-rule:evenodd;stroke:black;stroke-width:0.87707853;stroke-linecap:round;stroke-linejoin:round;marker:none;marker-start:none;marker-mid:none;marker-end:none;stroke-miterlimit:4;stroke-dasharray:none;stroke-dashoffset:0;stroke-opacity:1;visibility:visible;display:inline;overflow:visible"
         d="M 110.10761,56.675629 C 110.10761,56.675629 110.2613,60.126913 111.26368,61.54001 C 112.26605,62.953108 114.51783,65.993849 114.56646,66.995044 C 114.67099,69.147267 113.37918,70.618854 111.63886,70.514322 C 111.22234,70.489304 107.60436,69.147625 107.60436,69.147625"
         id="path2899"
         sodipodi:nodetypes="csssc" />
      <path
         style="opacity:1;color:black;fill:none;fill-opacity:1;fill-rule:evenodd;stroke:black;stroke-width:0.87707853;stroke-linecap:round;stroke-linejoin:round;marker:none;marker-start:none;marker-mid:none;marker-end:none;stroke-miterlimit:4;stroke-dasharray:none;stroke-dashoffset:0;stroke-opacity:1;visibility:visible;display:inline;overflow:visible"
         d="M 114.2708,74.981613 C 114.2708,74.981613 113.26843,75.983989 112.26605,75.983989 C 111.26368,75.983989 108.7224,74.981613 107.25418,74.981613 C 105.78595,74.981613 105.24943,75.983989 105.24943,75.983989"
         id="path2901" />
      <path
         style="opacity:1;color:black;fill:none;fill-opacity:1;fill-rule:evenodd;stroke:black;stroke-width:0.87707853;stroke-linecap:round;stroke-linejoin:round;marker:none;marker-start:none;marker-mid:none;marker-end:none;stroke-miterlimit:4;stroke-dasharray:none;stroke-dashoffset:0;stroke-opacity:1;visibility:visible;display:inline;overflow:visible"
         d="M 110.96802,54.079558 C 111.62967,52.941985 114.01974,52.338033 116.27556,52.338033 C 118.58953,52.338033 120.28506,54.934104 120.28506,54.934104"
         id="path2903"
         sodipodi:nodetypes="csc" />
      <path
         style="opacity:1;color:black;fill:none;fill-opacity:1;fill-rule:evenodd;stroke:black;stroke-width:0.87707853;stroke-linecap:round;stroke-linejoin:round;marker:none;marker-start:none;marker-mid:none;marker-end:none;stroke-miterlimit:4;stroke-dasharray:none;stroke-dashoffset:0;stroke-opacity:1;visibility:visible;display:inline;overflow:visible"
         d="M 97.898789,53.618134 C 99.256291,52.635819 101.69273,52.197632 103.11973,52.197632 C 104.54672,52.197632 106.81564,53.784257 106.81564,53.784257"
         id="path2905"
         sodipodi:nodetypes="csc" />
    </g>
    <path
       sodipodi:nodetypes="cssssssc"
       id="path2911"
       d="M 75.178161,88.430621 C 75.178161,88.430621 78.889437,84.687901 79.339463,82.687022 C 80.190039,78.905235 75.80535,80.055082 75.80535,79.052707 C 75.80535,78.050331 79.769198,75.775021 80.651105,74.520547 C 82.117157,72.435151 84.001962,68.689987 84.365663,67.755922 C 85.670462,64.404909 84.85389,62.676308 84.1566,59.972036 C 82.980835,55.412107 84.016047,53.498822 85.611357,51.926977 C 87.206667,50.355132 89.211418,48.919851 89.211418,48.919851"
       style="opacity:1;color:black;fill:none;fill-opacity:1;fill-rule:evenodd;stroke:black;stroke-width:0.87707853;stroke-linecap:round;stroke-linejoin:round;marker:none;marker-start:none;marker-mid:none;marker-end:none;stroke-miterlimit:4;stroke-dasharray:none;stroke-dashoffset:0;stroke-opacity:1;visibility:visible;display:inline;overflow:visible" />
    <path
       sodipodi:nodetypes="css"
       id="path2913"
       d="M 77.315073,97.199441 C 75.429738,94.59616 85.542445,90.783631 80.419501,88.484901 C 78.78425,87.751143 77.98556,87.615857 76.907451,86.822903"
       style="opacity:1;color:black;fill:none;fill-opacity:1;fill-rule:evenodd;stroke:black;stroke-width:0.87707853;stroke-linecap:round;stroke-linejoin:round;marker:none;marker-start:none;marker-mid:none;marker-end:none;stroke-miterlimit:4;stroke-dasharray:none;stroke-dashoffset:0;stroke-opacity:1;visibility:visible;display:inline;overflow:visible" />
    <path
       sodipodi:nodetypes="csss"
       id="path2915"
       d="M 82.341291,71.780115 C 82.341291,71.780115 80.271672,74.884544 82.045631,76.806334 C 83.819591,78.728124 84.8544,78.154429 83.523931,81.028301 C 82.193461,83.902172 80.641246,91.129565 84.004379,90.776266"
       style="opacity:1;color:black;fill:none;fill-opacity:1;fill-rule:evenodd;stroke:black;stroke-width:0.87707853;stroke-linecap:round;stroke-linejoin:round;marker:none;marker-start:none;marker-mid:none;marker-end:none;stroke-miterlimit:4;stroke-dasharray:none;stroke-dashoffset:0;stroke-opacity:1;visibility:visible;display:inline;overflow:visible" />
    <path
       sodipodi:nodetypes="cssc"
       id="path2917"
       d="M 77.298308,77.614641 C 79.159945,77.745182 82.347525,78.841103 82.527407,80.317295 C 82.749152,82.137026 81.491269,83.484583 80.604289,85.005368 C 79.717309,86.526154 78.645542,87.597921 78.645542,87.597921"
       style="opacity:1;color:black;fill:none;fill-opacity:1;fill-rule:evenodd;stroke:black;stroke-width:0.87707853;stroke-linecap:round;stroke-linejoin:round;marker:none;marker-start:none;marker-mid:none;marker-end:none;stroke-miterlimit:4;stroke-dasharray:none;stroke-dashoffset:0;stroke-opacity:1;visibility:visible;display:inline;overflow:visible" />
    <path
       sodipodi:nodetypes="csssc"
       id="path2921"
       d="M 128.86443,64.164546 C 128.86443,64.164546 126.58559,62.002017 124.32699,60.906876 C 123.03397,60.279922 122.28981,57.539221 123.29218,55.53447 C 124.29456,53.529719 124.85544,52.929353 124.29456,50.924602 C 123.73368,48.919851 123.29218,47.917475 123.29218,47.917475"
       style="opacity:1;color:black;fill:none;fill-opacity:1;fill-rule:evenodd;stroke:black;stroke-width:0.87707853;stroke-linecap:round;stroke-linejoin:round;marker:none;marker-start:none;marker-mid:none;marker-end:none;stroke-miterlimit:4;stroke-dasharray:none;stroke-dashoffset:0;stroke-opacity:1;visibility:visible;display:inline;overflow:visible" />
    <path
       sodipodi:nodetypes="csccc"
       id="path2827"
       d="M 51.797562,198.74667 C 50.111474,207.89418 50.808498,213.71442 51.644751,219.56818 C 52.481003,225.42195 56.236266,231.33515 56.236266,231.33515 L 73.1721,205.44828 C 73.1721,205.44828 58.362039,200.24291 51.797562,198.74667 z "
       style="opacity:1;color:black;fill:red;fill-opacity:1;fill-rule:evenodd;stroke:black;stroke-width:1.25;stroke-linecap:round;stroke-linejoin:round;marker:none;marker-start:none;marker-mid:none;marker-end:none;stroke-miterlimit:4;stroke-dasharray:none;stroke-dashoffset:0;stroke-opacity:1;visibility:visible;display:inline;overflow:visible" />
    <path
       sodipodi:nodetypes="ccccc"
       id="path2829"
       d="M 55.610796,179.66069 C 55.610796,179.66069 50.791215,190.89854 51.202438,198.64049 C 58.181072,205.28982 72.682235,206.0396 72.682235,206.0396 L 83.650621,189.07903 L 55.610796,179.66069 z "
       style="opacity:1;color:black;fill:white;fill-opacity:1;fill-rule:evenodd;stroke:black;stroke-width:1.25;stroke-linecap:round;stroke-linejoin:round;marker:none;marker-start:none;marker-mid:none;marker-end:none;stroke-miterlimit:4;stroke-dasharray:none;stroke-dashoffset:0;stroke-opacity:1;visibility:visible;display:inline;overflow:visible" />
    <g
       id="g2808">
      <path
         style="opacity:1;color:black;fill:red;fill-opacity:1;fill-rule:evenodd;stroke:black;stroke-width:0.87707853;stroke-linecap:round;stroke-linejoin:round;marker:none;marker-start:none;marker-mid:none;marker-end:none;stroke-miterlimit:4;stroke-dasharray:none;stroke-dashoffset:0;stroke-opacity:1;visibility:visible;display:inline;overflow:visible"
         d="M 78.137931,145.06897 C 78.137931,145.06897 56.919997,160.55437 54.992747,181.32917 C 61.354896,186.2627 72.191581,190.37847 82.280975,190.33975 C 90.744239,178.17897 109.24634,150.13 109.24634,150.13 C 109.24634,150.13 80.927112,143.47765 79.532522,144.06897 C 78.137931,144.66029 78.202052,145.25161 78.137931,145.06897 z "
         id="path1919"
         sodipodi:nodetypes="ccccsc" />
      <path
         style="opacity:1;color:black;fill:#fe0;fill-opacity:1;fill-rule:evenodd;stroke:black;stroke-width:1.25;stroke-linecap:round;stroke-linejoin:round;marker:none;marker-start:none;marker-mid:none;marker-end:none;stroke-miterlimit:4;stroke-dasharray:none;stroke-dashoffset:0;stroke-opacity:1;visibility:visible;display:inline;overflow:visible"
         d="M 87.811,145.84293 C 87.811,145.84293 77.462902,160.03136 73.323663,170.23487 C 69.184424,180.43838 67.114805,186.50702 67.114805,186.50702 C 67.114805,186.50702 68.740934,192.85286 69.627914,194.0355 C 72.880173,192.5572 75.836773,188.41796 75.836773,188.41796 C 75.836773,188.41796 80.623842,170.53053 82.932611,165.35648 C 85.24138,160.18243 90.619769,147.02557 90.619769,147.02557 L 87.811,145.84293 z "
         id="path1915"
         sodipodi:nodetypes="cscccscc" />
      <path
         style="opacity:1;color:black;fill:#fe0;fill-opacity:1;fill-rule:evenodd;stroke:black;stroke-width:1.25;stroke-linecap:round;stroke-linejoin:round;marker:none;marker-start:none;marker-mid:none;marker-end:none;stroke-miterlimit:4;stroke-dasharray:none;stroke-dashoffset:0;stroke-opacity:1;visibility:visible;display:inline;overflow:visible"
         d="M 78.137931,145.54727 C 78.137931,145.54727 68.445274,152.19962 63.419055,160.33026 C 58.392837,168.46091 51.740488,184.12004 51.444828,185.90485 C 51.149168,187.68966 57.210197,184.27872 59.723307,178.06986 C 61.013384,174.88261 65.936534,162.84337 69.112693,158.55631 C 71.709444,155.05132 77.818878,147.79953 79.828182,145.99076 C 81.372005,144.60102 78.054222,145.54727 78.137931,145.54727 z "
         id="path1913"
         sodipodi:nodetypes="csssssc" />
      <path
         style="opacity:1;color:black;fill:#fe0;fill-opacity:1;fill-rule:evenodd;stroke:black;stroke-width:1.25;stroke-linecap:round;stroke-linejoin:round;marker:none;marker-start:none;marker-mid:none;marker-end:none;stroke-miterlimit:4;stroke-dasharray:none;stroke-dashoffset:0;stroke-opacity:1;visibility:visible;display:inline;overflow:visible"
         d="M 98.011267,150.13 C 98.011267,150.13 89.183888,173.04251 89.088764,180.43458 C 93.280709,173.93062 99.637397,164.61733 99.637397,164.61733 L 101.41136,152.17242 L 98.011267,150.13 z "
         id="path1917"
         sodipodi:nodetypes="ccccc" />
    </g>
    <path
       sodipodi:nodetypes="ccccccc"
       id="path1911"
       d="M 117.79822,136.32338 C 117.79822,136.32338 107.03234,138.20495 104.33427,140.85103 C 99.862241,138.17523 88.224646,135.2422 79.025868,134.40594 C 79.653058,139.21439 78.502253,141.38935 78.137931,145.06897 C 86.186862,144.96444 98.373575,149.3181 103.69532,153.31873 C 104.58217,152.14531 105.98749,151.33264 108.44254,150.42772 C 111.82043,146.14193 117.79822,136.32338 117.79822,136.32338 z "
       style="opacity:1;color:black;fill:#08f;fill-opacity:1;fill-rule:evenodd;stroke:black;stroke-width:1.25;stroke-linecap:round;stroke-linejoin:round;marker:none;marker-start:none;marker-mid:none;marker-end:none;stroke-miterlimit:4;stroke-dasharray:none;stroke-dashoffset:0;stroke-opacity:1;visibility:visible;display:inline;overflow:visible" />
    <path
       sodipodi:nodetypes="cssscssssssccccccccsc"
       id="path2865"
       transform="matrix(1.002375,0,0,1.002375,0,-0.551729)"
       d="M 52.15625,134.03125 C 50.737356,133.67096 48.759707,134.00368 47.835786,134.38664 C 42.127988,136.75251 38.211486,143.74964 35.835786,147.30454 C 23.607215,165.60287 24.350175,174.72708 20.34375,181.96875 C 16.073381,189.6875 19.802945,196.31283 24.03125,208.625 C 22.924996,203.69479 23.179469,195.33791 28.34375,181.59375 C 34.872294,164.21875 38.500001,156.09375 41.125,152.71875 C 43.75,149.34375 45.25,145.38706 50.5,141.71875 C 57.114791,137.09683 58.874999,139.34375 60.25,139.84375 C 61.476467,140.28974 64.5,144.21875 64.75,146.96875 C 64.5,144.21875 63.410369,140.9825 62.125,139.71875 C 59.792729,137.42571 56.138123,133.96753 52.15625,134.03125 z M 24.03125,208.625 C 24.323492,209.92743 24.707063,210.98175 25.125,211.84375 C 24.759418,210.6976 24.394162,209.68174 24.03125,208.625 z M 25.125,211.84375 C 26.169809,215.11936 28.873849,215.82304 32.75,214.53125 C 29.070511,215.72042 26.611878,214.91044 25.125,211.84375 z M 34.78125,213.71875 C 34.105261,214.02647 33.462769,214.2898 32.84375,214.5 C 33.457906,214.29687 34.097932,214.02966 34.78125,213.71875 z "
       style="opacity:1;color:black;fill:#fe0;fill-opacity:1;fill-rule:evenodd;stroke:black;stroke-width:1.25;stroke-linecap:round;stroke-linejoin:round;marker:none;marker-start:none;marker-mid:none;marker-end:none;stroke-miterlimit:4;stroke-dasharray:none;stroke-dashoffset:0;stroke-opacity:1;visibility:visible;display:inline;overflow:visible" />
    <g
       transform="matrix(-0.999314,3.702001e-2,3.702001e-2,0.999314,206.7486,-9.414041)"
       id="g2963">
      <path
         id="path2965"
         d="M 90.803944,117.05383 C 90.277418,119.06247 87.880337,121.74291 89.945903,122.7581 C 90.949612,123.25166 91.270669,122.76685 91.481096,122.31211 C 91.614462,123.55009 91.714814,124.90331 91.50688,125.42881 C 92.59662,125.08562 93.434718,125.02712 94.368318,124.81117 C 94.024554,124.56187 93.215824,123.33362 92.490778,122.17193 C 93.051307,122.46303 93.851017,122.59801 94.339397,121.31439 C 94.93965,119.73672 91.992526,118.47905 90.803944,117.05383 z "
         style="opacity:1;color:black;fill:black;fill-opacity:1;fill-rule:evenodd;stroke:none;stroke-width:1.25;stroke-linecap:round;stroke-linejoin:round;marker:none;marker-start:none;marker-mid:none;marker-end:none;stroke-miterlimit:4;stroke-dasharray:none;stroke-dashoffset:0;stroke-opacity:1;visibility:visible;display:inline;overflow:visible" />
      <path
         id="path2967"
         d="M 72.957003,90.799848 C 73.365856,93.558215 71.806827,98.146991 74.909559,98.291825 C 76.417393,98.362535 76.559635,97.592834 76.580381,96.919476 C 77.401084,98.374214 78.241758,99.988708 78.261548,100.74794 C 79.433483,99.741008 80.443495,99.219834 81.488823,98.4534 C 80.929936,98.33025 79.27553,97.249348 77.760298,96.205692 C 78.610542,96.264239 79.675259,96.002181 79.60265,94.158047 C 79.513414,91.891495 75.187421,91.920038 72.957003,90.799848 z "
         style="opacity:1;color:black;fill:black;fill-opacity:1;fill-rule:evenodd;stroke:none;stroke-width:1.25;stroke-linecap:round;stroke-linejoin:round;marker:none;marker-start:none;marker-mid:none;marker-end:none;stroke-miterlimit:4;stroke-dasharray:none;stroke-dashoffset:0;stroke-opacity:1;visibility:visible;display:inline;overflow:visible" />
      <path
         id="path2969"
         d="M 83.626973,103.2415 C 83.508793,105.65384 81.455811,109.26237 84.004099,109.94578 C 85.242436,110.27817 85.487921,109.65134 85.616715,109.08425 C 86.056021,110.46582 86.485409,111.98644 86.375987,112.63368 C 87.514448,111.99177 88.438161,111.73244 89.4318,111.27157 C 88.988868,111.06618 87.796435,109.85089 86.713206,108.69232 C 87.408389,108.89558 88.334514,108.8658 88.579941,107.28928 C 88.881591,105.35164 85.290436,104.59418 83.626973,103.2415 z "
         style="opacity:1;color:black;fill:black;fill-opacity:1;fill-rule:evenodd;stroke:none;stroke-width:1.25;stroke-linecap:round;stroke-linejoin:round;marker:none;marker-start:none;marker-mid:none;marker-end:none;stroke-miterlimit:4;stroke-dasharray:none;stroke-dashoffset:0;stroke-opacity:1;visibility:visible;display:inline;overflow:visible" />
    </g>
    <g
       id="g2981">
      <path
         style="opacity:1;color:black;fill:none;fill-opacity:1;fill-rule:evenodd;stroke:black;stroke-width:0.87707853;stroke-linecap:round;stroke-linejoin:round;marker:none;marker-start:none;marker-mid:none;marker-end:none;stroke-miterlimit:4;stroke-dasharray:none;stroke-dashoffset:0;stroke-opacity:1;visibility:visible;display:inline;overflow:visible"
         d="M 27.288281,199.57653 C 27.288281,199.57653 26.579494,201.0827 27.199682,201.70289 C 28.867704,202.66779 28.066572,203.31835 27.022486,204.44944 C 27.022486,204.44944 30.034828,204.53804 30.566418,203.12047 C 30.815292,202.45681 29.769033,201.2599 30.212025,200.63971"
         id="path2971"
         sodipodi:nodetypes="cccsc" />
      <path
         style="opacity:1;color:black;fill:none;fill-opacity:1;fill-rule:evenodd;stroke:black;stroke-width:0.87707841;stroke-linecap:round;stroke-linejoin:round;marker:none;marker-start:none;marker-mid:none;marker-end:none;stroke-miterlimit:4;stroke-dasharray:none;stroke-dashoffset:0;stroke-opacity:1;visibility:visible;display:inline;overflow:visible"
         d="M 37.172906,202.67741 C 37.172906,202.67741 37.843433,204.31696 37.261505,205.03568 C 36.707002,205.72053 36.394615,206.82733 37.438701,208.08178 C 37.438701,208.08178 34.426359,208.18005 33.894769,206.60787 C 33.645895,205.87183 33.451778,204.45577 34.249162,203.85654"
         id="path2973"
         sodipodi:nodetypes="cscsc" />
      <path
         style="opacity:1;color:black;fill:none;fill-opacity:1;fill-rule:evenodd;stroke:black;stroke-width:0.87707853;stroke-linecap:round;stroke-linejoin:round;marker:none;marker-start:none;marker-mid:none;marker-end:none;stroke-miterlimit:4;stroke-dasharray:none;stroke-dashoffset:0;stroke-opacity:1;visibility:visible;display:inline;overflow:visible"
         d="M 36.502505,192.48867 C 36.502505,192.48867 35.793718,193.99484 36.413906,194.61503 C 37.284543,195.66853 37.280796,196.93928 36.23671,198.07037 C 36.23671,198.07037 39.249052,197.45018 39.780642,196.03261 C 40.029516,195.36895 38.983257,194.17204 39.426249,193.55185"
         id="path2975"
         sodipodi:nodetypes="cccsc" />
      <path
         style="opacity:1;color:black;fill:none;fill-opacity:1;fill-rule:evenodd;stroke:black;stroke-width:0.87707883;stroke-linecap:round;stroke-linejoin:round;marker:none;marker-start:none;marker-mid:none;marker-end:none;stroke-miterlimit:4;stroke-dasharray:none;stroke-dashoffset:0;stroke-opacity:1;visibility:visible;display:inline;overflow:visible"
         d="M 46.572706,194.87824 C 46.572706,194.87824 46.869705,196.46873 46.146522,196.96334 C 45.019633,197.73405 44.745315,199.01035 45.486216,200.35962 C 45.486216,200.35962 42.711948,199.03211 42.537458,197.52824 C 42.455767,196.82417 43.75952,195.91451 43.478955,195.20588"
         id="path2977"
         sodipodi:nodetypes="cscsc" />
      <path
         style="opacity:1;color:black;fill:none;fill-opacity:1;fill-rule:evenodd;stroke:black;stroke-width:0.87707883;stroke-linecap:round;stroke-linejoin:round;marker:none;marker-start:none;marker-mid:none;marker-end:none;stroke-miterlimit:4;stroke-dasharray:none;stroke-dashoffset:0;stroke-opacity:1;visibility:visible;display:inline;overflow:visible"
         d="M 46.147682,187.87897 C 46.147682,187.87897 46.354143,189.33432 47.105456,189.78687 C 48.204215,190.59964 48.506663,191.83388 47.765762,193.18315 C 47.765762,193.18315 50.54003,191.85564 50.71452,190.35177 C 50.796211,189.6477 49.492458,188.73804 49.773023,188.02941"
         id="path2979"
         sodipodi:nodetypes="cccsc" />
    </g>
  </g>
  <use
     x="0"
     y="0"
     xlink:href="#g3346"
     id="use3455"
     transform="matrix(-1,0,0,-1,206,315)"
     width="206"
     height="315" />
  <path
     style="opacity:1;color:black;fill:none;fill-opacity:1;fill-rule:evenodd;stroke:black;stroke-width:6.26484677;stroke-linecap:square;stroke-linejoin:round;marker:none;marker-start:none;marker-mid:none;marker-end:none;stroke-miterlimit:4;stroke-dasharray:none;stroke-dashoffset:0;stroke-opacity:1;visibility:visible;display:inline;overflow:visible"
     d="M 56.133027,231.10159 L 151.1081,85.005368"
     id="path3457" />
  <path
     style="opacity:1;color:black;fill:none;fill-opacity:1;fill-rule:evenodd;stroke:white;stroke-width:3.75890806;stroke-linecap:square;stroke-linejoin:round;marker:none;marker-start:none;marker-mid:none;marker-end:none;stroke-miterlimit:4;stroke-dasharray:none;stroke-dashoffset:0;stroke-opacity:1;visibility:visible;display:inline;overflow:visible"
     d="M 56.133027,231.10159 L 151.1081,85.005368"
     id="path4344" />
</svg>
