<?xml version="1.0" encoding="UTF-8" standalone="no"?>
<!-- Created with Sodipodi ("http://www.sodipodi.com/") -->
<svg
   xmlns:dc="http://purl.org/dc/elements/1.1/"
   xmlns:cc="http://web.resource.org/cc/"
   xmlns:rdf="http://www.w3.org/1999/02/22-rdf-syntax-ns#"
   xmlns:svg="http://www.w3.org/2000/svg"
   xmlns="http://www.w3.org/2000/svg"
   xmlns:xlink="http://www.w3.org/1999/xlink"
   xmlns:sodipodi="http://sodipodi.sourceforge.net/DTD/sodipodi-0.dtd"
   xmlns:inkscape="http://www.inkscape.org/namespaces/inkscape"
   viewBox="0 0 206 315"
   id="svg548"
   sodipodi:version="0.32"
   width="205.51181"
   height="315.35434"
   sodipodi:docname="jack-of-hearts.svg"
   sodipodi:docbase="/home/mikelima/repo/trunk/playground/artwork/carddecks/tigullio"
   inkscape:version="0.44.1"
   version="1.0">
  <metadata
     id="metadata52">
    <rdf:RDF>
      <cc:Work
         rdf:about="">
        <dc:format>image/svg+xml</dc:format>
        <dc:type
           rdf:resource="http://purl.org/dc/dcmitype/StillImage" />
      </cc:Work>
    </rdf:RDF>
  </metadata>
  <sodipodi:namedview
     id="base"
     showgrid="true"
     showguides="false"
     inkscape:zoom="2.56"
     inkscape:cx="103.08976"
     inkscape:cy="191.83519"
     inkscape:window-width="1042"
     inkscape:window-height="1118"
     inkscape:window-x="0"
     inkscape:window-y="26"
     inkscape:current-layer="svg548"
     inkscape:document-units="mm"
     width="58.000001mm"
     height="89.000005mm"
     units="mm"
     gridspacingx="0.28222223mm"
     gridspacingy="0.28222223mm"
     grid_units="mm" />
  <defs
     id="defs550" />
  <g
     id="g3509">
    <g
       transform="translate(-7.717058e-8,-1.890585)"
       id="g2979">
      <path
         style="opacity:1;color:black;fill:red;fill-opacity:1;fill-rule:evenodd;stroke:black;stroke-width:1.25;stroke-linecap:round;stroke-linejoin:round;marker:none;marker-start:none;marker-mid:none;marker-end:none;stroke-miterlimit:4;stroke-dasharray:none;stroke-dashoffset:0;stroke-opacity:1;visibility:visible;display:inline;overflow:visible"
         d="M 29.366469,121.1457 C 35.631316,111.94421 36.805975,106.07092 38.959516,102.15539 C 41.113057,98.239857 41.85701,95.498986 45.106898,93.541222 C 48.356786,91.583457 51.880762,91.191904 51.880762,91.191904 L 138.80551,86.689046 C 138.80551,86.689046 143.465,88.646798 145.34445,90.017239 C 147.2239,91.387681 147.2239,92.170786 147.2239,92.170786 L 110.80948,147.37975 L 92.40649,147.57553 L 70.166286,129.56409 C 70.166286,129.56409 69.69642,127.21477 66.36822,124.4739 C 63.040021,121.73303 59.320268,120.94993 59.320268,120.94993 C 59.320268,120.94993 57.166727,121.224 56.775174,125.10038 C 56.383621,128.97676 56.618556,131.52186 55.130653,134.06695 C 53.64275,136.61204 53.64275,139.3529 52.663868,140.13601 C 51.684986,140.91913 29.562246,121.34148 29.366469,121.1457 z "
         id="path2915" />
      <g
         id="g2954">
        <path
           sodipodi:nodetypes="csssscssscc"
           id="path2897"
           d="M 55.174941,90.455779 C 55.174941,90.455779 53.824481,93.977639 51.455189,98.874168 C 48.518541,104.94324 45.148586,104.93769 42.816552,108.76089 C 40.249142,112.96998 40.002266,116.10251 38.533942,118.45183 C 35.597295,123.15046 35.009966,122.83721 33.639531,125.14737 C 32.531567,127.01509 39.317048,131.9604 39.317048,131.9604 C 39.317048,131.9604 40.852246,131.41573 42.72356,129.18037 C 46.230861,124.99075 46.217917,118.91259 48.694364,115.31065 C 51.17081,111.70871 53.66696,110.68088 56.741154,106.70523 C 60.506284,101.83604 60.26513,98.0519 63.59333,94.80201 L 55.174941,90.455779 z "
           style="opacity:1;color:black;fill:black;fill-opacity:1;fill-rule:evenodd;stroke:black;stroke-width:0.87707853;stroke-linecap:round;stroke-linejoin:round;marker:none;marker-start:none;marker-mid:none;marker-end:none;stroke-miterlimit:4;stroke-dasharray:none;stroke-dashoffset:0;stroke-opacity:1;visibility:visible;display:inline;overflow:visible" />
        <g
           id="g2948">
          <path
             style="opacity:1;color:black;fill:#fe0;fill-opacity:1;fill-rule:evenodd;stroke:black;stroke-width:0.87707853;stroke-linecap:round;stroke-linejoin:round;marker:none;marker-start:none;marker-mid:none;marker-end:none;stroke-miterlimit:4;stroke-dasharray:none;stroke-dashoffset:0;stroke-opacity:1;visibility:visible;display:inline;overflow:visible"
             d="M 38.045225,127.48251 C 38.353382,125.43178 36.110625,123.44098 37.702107,121.48806 C 39.206063,119.64255 41.552024,121.51328 41.334278,122.76928 C 42.208325,121.99527 44.842609,122.96781 44.352371,125.19848 C 43.745818,127.95841 39.936264,126.41559 38.045225,127.48251 z "
             id="path1927"
             sodipodi:nodetypes="cscsc" />
          <path
             style="opacity:1;color:black;fill:#fe0;fill-opacity:1;fill-rule:evenodd;stroke:black;stroke-width:0.87707853;stroke-linecap:round;stroke-linejoin:round;marker:none;marker-start:none;marker-mid:none;marker-end:none;stroke-miterlimit:4;stroke-dasharray:none;stroke-dashoffset:0;stroke-opacity:1;visibility:visible;display:inline;overflow:visible"
             d="M 41.774189,118.80111 C 41.991173,116.74128 39.806317,114.82747 41.236209,112.82205 C 42.587463,110.92693 44.865279,112.71728 44.705044,113.97983 C 45.501037,113.1768 48.01841,114.05978 47.636274,116.30559 C 47.163474,119.08424 43.518108,117.67102 41.774189,118.80111 z "
             id="path1929"
             sodipodi:nodetypes="cscsc" />
          <path
             style="opacity:1;color:black;fill:#fe0;fill-opacity:1;fill-rule:evenodd;stroke:black;stroke-width:0.87707835;stroke-linecap:round;stroke-linejoin:round;marker:none;marker-start:none;marker-mid:none;marker-end:none;stroke-miterlimit:4;stroke-dasharray:none;stroke-dashoffset:0;stroke-opacity:1;visibility:visible;display:inline;overflow:visible"
             d="M 47.484693,111.09842 C 47.798704,108.99119 45.513341,106.94554 47.135056,104.93881 C 48.667584,103.04244 51.058112,104.96472 50.83623,106.25532 C 51.726882,105.45999 54.41121,106.45932 53.911659,108.75146 C 53.293583,111.58743 49.411657,110.00211 47.484693,111.09842 z "
             id="path1931"
             sodipodi:nodetypes="cscsc" />
          <path
             style="opacity:1;color:black;fill:#fe0;fill-opacity:1;fill-rule:evenodd;stroke:black;stroke-width:0.87707818;stroke-linecap:round;stroke-linejoin:round;marker:none;marker-start:none;marker-mid:none;marker-end:none;stroke-miterlimit:4;stroke-dasharray:none;stroke-dashoffset:0;stroke-opacity:1;visibility:visible;display:inline;overflow:visible"
             d="M 53.202248,102.60958 C 53.512375,100.57988 50.964587,98.631801 52.714682,96.687528 C 54.368527,94.850167 57.029918,96.678666 56.807465,97.922036 C 57.773755,97.149314 60.742847,98.087477 60.231748,100.29663 C 59.599382,103.02995 55.3033,101.53842 53.202248,102.60958 z "
             id="path1933"
             sodipodi:nodetypes="cscsc"
             inkscape:transform-center-x="-1.6864834"
             inkscape:transform-center-y="-2.9298151" />
        </g>
      </g>
    </g>
    <path
       sodipodi:nodetypes="cssscsssssc"
       id="path2905"
       d="M 44.104522,129.22406 C 44.104522,129.22406 42.099771,128.22952 39.092645,129.72916 C 36.085518,131.22881 34.301023,133.02851 32.393174,137.85388 C 31.253081,140.73741 30.826405,145.43044 30.462818,156.86378 C 30.158386,166.43691 29.652304,171.51961 29.06889,175.93241 C 27.617228,183.62871 27.553634,190.44966 30.071265,198.38797 C 31.968747,204.3709 35.083143,205.40459 37.087894,203.39984 C 39.092645,201.39509 47.111649,187.9335 48.114024,183.35233 C 49.1164,178.77117 51.121151,161.30007 51.121151,153.28107 C 51.121151,145.26206 48.114024,132.38781 46.109273,130.80593 C 44.104522,129.22406 44.343369,129.23972 44.104522,129.22406 z "
       style="color:black;fill:white;fill-opacity:1;fill-rule:evenodd;stroke:black;stroke-width:0.87707853;stroke-linecap:round;stroke-linejoin:round;marker:none;marker-start:none;marker-mid:none;marker-end:none;stroke-miterlimit:4;stroke-dasharray:none;stroke-dashoffset:0;stroke-opacity:1;visibility:visible;display:inline;overflow:visible" />
    <g
       transform="translate(-7.717058e-8,-1.890585)"
       id="g2928">
      <g
         id="g2924">
        <path
           sodipodi:nodetypes="csssccc"
           id="path2903"
           d="M 48.579972,134.36452 C 48.579972,134.36452 44.104522,130.97369 43.102147,130.54297 C 42.099771,130.11226 39.652491,129.90595 37.087894,131.11464 C 34.495814,132.33628 28.563785,139.05925 28.877028,145.03043 C 29.092902,149.07805 36.610198,150.70795 36.610198,150.70795 L 49.1164,146.15027 L 48.579972,134.36452 z "
           style="opacity:1;color:black;fill:#08f;fill-opacity:1;fill-rule:evenodd;stroke:black;stroke-width:0.87707853;stroke-linecap:round;stroke-linejoin:round;marker:none;marker-start:none;marker-mid:none;marker-end:none;stroke-miterlimit:4;stroke-dasharray:none;stroke-dashoffset:0;stroke-opacity:1;visibility:visible;display:inline;overflow:visible" />
        <path
           sodipodi:nodetypes="cccccccc"
           id="path2901"
           d="M 54.646131,143.26954 C 54.646131,143.26954 52.198338,136.59474 49.282811,132.81771 C 46.286172,134.80314 47.067854,140.13601 47.067854,140.13601 C 47.067854,140.13601 41.045937,138.29707 39.246284,139.65149 C 38.554109,142.25182 42.084199,146.93807 42.084199,146.93807 C 42.084199,146.93807 35.785413,147.18342 35.30089,150.09055 C 38.969414,153.0669 47.621593,154.13668 47.621593,154.13668 L 54.646131,143.26954 z "
           style="opacity:1;color:black;fill:#fe0;fill-opacity:1;fill-rule:evenodd;stroke:black;stroke-width:0.87707853;stroke-linecap:round;stroke-linejoin:round;marker:none;marker-start:none;marker-mid:none;marker-end:none;stroke-miterlimit:4;stroke-dasharray:none;stroke-dashoffset:0;stroke-opacity:1;visibility:visible;display:inline;overflow:visible" />
      </g>
      <g
         id="g2997"
         transform="matrix(1,0,0,0.952221,-5.780459,2.244228)"
         style="opacity:1">
        <path
           style="color:black;fill:#ffd0d0;fill-opacity:1;fill-rule:evenodd;stroke:black;stroke-width:1.2809763;stroke-linecap:round;stroke-linejoin:round;marker:none;marker-start:none;marker-mid:none;marker-end:none;stroke-miterlimit:4;stroke-dasharray:none;stroke-dashoffset:0;stroke-opacity:1;visibility:visible;display:inline;overflow:visible"
           d="M 45.507179,183.90914 C 45.507179,183.90914 44.284991,182.72482 43.49581,181.50203 C 42.682745,180.24224 42.13154,177.10784 43.092435,176.51709 C 44.05333,175.92633 45.09945,176.62769 45.605545,177.92147 C 46.27078,179.62208 46.729386,180.23914 47.305589,180.73404 C 48.096826,181.41364 49.079549,183.62758 48.118654,184.13794 C 47.157759,184.64829 45.531629,183.98305 45.507179,183.90914 z "
           id="path2796"
           sodipodi:nodetypes="csssssc" />
        <path
           style="color:black;fill:#ffd0d0;fill-opacity:1;fill-rule:evenodd;stroke:black;stroke-width:1.2809763;stroke-linecap:round;stroke-linejoin:round;marker:none;marker-start:none;marker-mid:none;marker-end:none;stroke-miterlimit:4;stroke-dasharray:none;stroke-dashoffset:0;stroke-opacity:1;visibility:visible;display:inline;overflow:visible"
           d="M 49.234299,179.78459 C 48.670163,178.39539 48.481199,175.42436 49.535327,175.02296 C 50.589457,174.62156 51.486601,175.50553 51.742809,176.87094 C 53.623407,179.82654 52.294039,184.7503 49.234299,179.78459 z "
           id="path2800"
           sodipodi:nodetypes="cscc" />
        <path
           style="color:black;fill:#ffd0d0;fill-opacity:1;fill-rule:evenodd;stroke:black;stroke-width:1.2809763;stroke-linecap:round;stroke-linejoin:round;marker:none;marker-start:none;marker-mid:none;marker-end:none;stroke-miterlimit:4;stroke-dasharray:none;stroke-dashoffset:0;stroke-opacity:1;visibility:visible;display:inline;overflow:visible"
           d="M 47.204505,181.6357 C 47.204505,181.6357 46.455688,180.03324 45.908125,178.68483 C 45.343989,177.29563 45.155025,174.3246 46.209153,173.9232 C 47.263283,173.5218 48.160427,174.40577 48.416635,175.77118 C 48.753405,177.56595 49.089026,178.25765 49.562943,178.85123 C 50.213721,179.66634 50.766789,182.0246 49.727638,182.34701 C 48.688488,182.66941 47.214758,181.71287 47.204505,181.6357 z "
           id="path2798"
           sodipodi:nodetypes="csssssc" />
        <path
           sodipodi:nodetypes="cssssssscssss"
           id="path1905"
           d="M 62.596477,153.14815 C 63.43442,154.24032 64.526596,155.86675 64.735659,159.42082 C 64.944722,162.9749 56.588259,182.7403 53.036535,184.32589 C 49.484811,185.91147 43.773831,187.96066 42.753765,187.37491 C 41.661194,186.74751 42.005857,183.82866 43.571731,183.43622 C 46.429644,182.71997 48.217495,182.4751 49.053747,181.93719 C 49.89,181.39927 51.539318,175.97788 51.539318,175.25672 C 51.539318,174.53556 50.373712,169.69957 50.840389,167.26256 C 51.12393,165.78188 51.925011,160.65913 53.423692,159.19569 C 52.335349,158.9888 51.957444,157.90326 51.957444,156.64888 C 51.957444,155.3945 52.400477,152.92162 54.244457,151.24911 C 56.088436,149.57661 57.396805,147.90762 59.521763,147.73404 C 61.021074,147.61157 62.389105,152.87787 62.596477,153.14815 z "
           style="opacity:1;color:black;fill:#ffd0d0;fill-opacity:1;fill-rule:evenodd;stroke:black;stroke-width:1.28401923;stroke-linecap:round;stroke-linejoin:round;marker:none;marker-start:none;marker-mid:none;marker-end:none;stroke-miterlimit:4;stroke-dasharray:none;stroke-dashoffset:0;stroke-opacity:1;visibility:visible;display:inline;overflow:visible" />
        <path
           sodipodi:nodetypes="cz"
           id="path2794"
           d="M 56.544962,155.35545 C 56.171177,156.03426 53.668126,159.08674 53.201947,159.76556"
           style="color:black;fill:none;fill-opacity:1;fill-rule:evenodd;stroke:black;stroke-width:0.89881343;stroke-linecap:round;stroke-linejoin:round;marker:none;marker-start:none;marker-mid:none;marker-end:none;stroke-miterlimit:4;stroke-dasharray:none;stroke-dashoffset:0;stroke-opacity:1;visibility:visible;display:inline;overflow:visible" />
      </g>
    </g>
    <g
       transform="matrix(0.960737,-0.277461,0.277461,0.960737,-46.98626,12.39648)"
       id="g2830">
      <path
         style="opacity:1;color:black;fill:green;fill-opacity:1;fill-rule:evenodd;stroke:black;stroke-width:1.25;stroke-linecap:round;stroke-linejoin:round;marker:none;marker-start:none;marker-mid:none;marker-end:none;stroke-miterlimit:4;stroke-dasharray:none;stroke-dashoffset:0;stroke-opacity:1;visibility:visible;display:inline;overflow:visible"
         d="M 16.372921,196.46642 C 16.372921,196.46642 15.890475,185.05832 16.019432,179.48259 C 16.151102,173.78955 21.300752,154.31616 23.295637,149.05369 C 25.290522,143.79122 27.610687,135.68525 30.617661,131.12482 C 33.338358,126.99857 38.029072,125.7025 40.023128,124.85995 C 42.56973,123.78393 44.306789,124.40422 44.355115,124.7245 C 49.468632,128.08857 50.61508,130.66073 53.176685,135.64472 C 46.164349,126.88982 40.28963,137.03823 34.825,145.93283 C 33.644742,147.8539 23.686961,173.95109 23.133501,176.18717 C 22.489323,178.78976 16.364838,187.27168 16.372921,196.46642 z "
         id="path2826"
         sodipodi:nodetypes="cssssccssc" />
    </g>
    <path
       sodipodi:nodetypes="ccscccscc"
       id="path2848"
       d="M 102.58682,73.080377 C 69.854008,72.825053 51.187689,89.486436 51.187689,89.486436 C 56.277873,88.703333 72.820982,98.312041 82.414019,117.49812 C 86.892098,126.45428 88.974308,136.47374 89.931832,144.4996 L 111.107,144.4996 L 119.65852,131.46872 C 120.4456,126.20048 121.64261,120.58654 123.44875,114.96086 C 130.20772,93.908345 139.20483,84.60769 139.20483,84.60769 C 139.20482,84.607686 127.48955,73.276154 102.58682,73.080377 z "
       style="color:black;fill:green;fill-opacity:1;fill-rule:evenodd;stroke:black;stroke-width:0.87707853;stroke-linecap:round;stroke-linejoin:round;marker:none;marker-start:none;marker-mid:none;marker-end:none;stroke-miterlimit:4;stroke-dasharray:none;stroke-dashoffset:0;stroke-opacity:1;visibility:visible;display:inline;overflow:visible" />
    <path
       sodipodi:nodetypes="csccsc"
       id="path2840"
       d="M 88.490961,90.671754 C 88.490961,90.671754 91.365142,102.31431 92.99382,113.38182 C 94.694315,124.93735 95.225673,143.25731 95.225673,143.25731 L 111.24019,143.25731 C 111.24019,143.25731 111.62578,119.64814 111.98413,111.22828 C 112.4255,100.66205 115.27318,86.756225 115.27318,86.756225"
       style="color:black;fill:#fe0;fill-opacity:1;fill-rule:evenodd;stroke:black;stroke-width:0.87707853;stroke-linecap:round;stroke-linejoin:round;marker:none;marker-start:none;marker-mid:none;marker-end:none;stroke-miterlimit:4;stroke-dasharray:none;stroke-dashoffset:0;stroke-opacity:1;visibility:visible;display:inline;overflow:visible" />
    <g
       transform="translate(-7.717058e-8,-1.890585)"
       id="g2844">
      <path
         style="opacity:1;color:black;fill:none;fill-opacity:1;fill-rule:evenodd;stroke:black;stroke-width:0.87707835;stroke-linecap:round;stroke-linejoin:round;marker:none;marker-start:none;marker-mid:none;marker-end:none;stroke-miterlimit:4;stroke-dasharray:none;stroke-dashoffset:0;stroke-opacity:1;visibility:visible;display:inline;overflow:visible"
         d="M 91.631168,92.953892 C 91.631168,92.953892 94.532091,104.59645 95.732168,115.66396 C 96.985164,127.21949 97.37669,145.53944 97.37669,145.53944 L 109.17686,145.53944 C 109.17686,145.53944 109.46097,121.93028 109.72502,113.51042 C 110.05025,102.94419 112.14853,89.038363 112.14853,89.038363"
         id="path2842"
         sodipodi:nodetypes="csccsc" />
    </g>
    <g
       transform="translate(-7.717058e-8,-1.890585)"
       id="g2831">
      <path
         sodipodi:nodetypes="csccsc"
         id="path2838"
         d="M 88.490961,92.562339 C 88.490961,92.562339 91.365142,104.2049 92.99382,115.27241 C 94.694315,126.82794 95.225673,145.14789 95.225673,145.14789 L 111.24019,145.14789 C 111.24019,145.14789 111.62578,121.53873 111.98413,113.11887 C 112.4255,102.55264 115.27318,88.64681 115.27318,88.64681"
         style="opacity:1;color:black;fill:none;fill-opacity:1;fill-rule:evenodd;stroke:black;stroke-width:0.87707853;stroke-linecap:round;stroke-linejoin:round;marker:none;marker-start:none;marker-mid:none;marker-end:none;stroke-miterlimit:4;stroke-dasharray:none;stroke-dashoffset:0;stroke-opacity:1;visibility:visible;display:inline;overflow:visible" />
      <path
         style="opacity:1;color:black;fill:#fe0;fill-opacity:1;fill-rule:evenodd;stroke:black;stroke-width:0.87707782;stroke-linecap:round;stroke-linejoin:round;marker:none;marker-start:none;marker-mid:none;marker-end:none;stroke-miterlimit:4;stroke-dasharray:none;stroke-dashoffset:0;stroke-opacity:1;visibility:visible;display:inline;overflow:visible"
         d="M 101.77994,111.63096 C 100.30073,108.01593 95.256855,107.0971 95.690558,102.33162 C 96.100415,97.828219 101.17857,98.448611 102.04335,100.69225 C 102.56057,98.555597 107.20851,97.436355 108.59744,101.52662 C 110.31594,106.58731 103.46689,107.98636 101.77994,111.63096 z "
         id="path2822"
         sodipodi:nodetypes="cscsc" />
      <path
         style="opacity:1;color:black;fill:#fe0;fill-opacity:1;fill-rule:evenodd;stroke:black;stroke-width:0.87707764;stroke-linecap:round;stroke-linejoin:round;marker:none;marker-start:none;marker-mid:none;marker-end:none;stroke-miterlimit:4;stroke-dasharray:none;stroke-dashoffset:0;stroke-opacity:1;visibility:visible;display:inline;overflow:visible"
         d="M 102.4358,126.77476 C 101.31319,124.016 97.485255,123.31481 97.814403,119.67811 C 98.125455,116.24141 101.97941,116.71485 102.63571,118.42705 C 103.02824,116.7965 106.55569,115.94237 107.60979,119.06379 C 108.914,122.92577 103.71608,123.99344 102.4358,126.77476 z "
         id="path2824"
         sodipodi:nodetypes="cscsc" />
      <path
         style="opacity:1;color:black;fill:#fe0;fill-opacity:1;fill-rule:evenodd;stroke:black;stroke-width:0.87707788;stroke-linecap:round;stroke-linejoin:round;marker:none;marker-start:none;marker-mid:none;marker-end:none;stroke-miterlimit:4;stroke-dasharray:none;stroke-dashoffset:0;stroke-opacity:1;visibility:visible;display:inline;overflow:visible"
         d="M 102.99649,140.71001 C 101.93512,138.46619 98.644819,138.03348 98.788086,135.00531 C 98.923481,132.14369 102.22736,132.38654 102.85162,133.78072 C 103.12471,132.4135 106.10005,131.56827 107.11671,134.11546 C 108.37461,137.26697 103.98304,138.35414 102.99649,140.71001 z "
         id="path2827"
         sodipodi:nodetypes="cscsc" />
    </g>
    <path
       id="path2836"
       d="M 72.437309,85.1815 C 72.437309,85.1815 82.443129,97.571914 103.09344,94.093904 C 123.74377,90.615893 133.32381,79.09498 133.32381,79.09498 L 132.38709,69.095699 L 72.437309,69.660868 L 72.437309,85.1815 z "
       style="color:black;fill:white;fill-opacity:1;fill-rule:evenodd;stroke:black;stroke-width:0.87707865;stroke-linecap:round;stroke-linejoin:round;marker:none;marker-start:none;marker-mid:none;marker-end:none;stroke-miterlimit:4;stroke-dasharray:none;stroke-dashoffset:0;stroke-opacity:1;visibility:visible;display:inline;overflow:visible" />
    <path
       id="path1945"
       d="M 74.78661,83.005141 C 74.78661,83.005141 83.988102,94.164399 102.97842,91.031976 C 121.96874,87.899553 130.77868,77.5234 130.77868,77.5234 L 129.91727,68.517683 L 74.78661,69.026695 L 74.78661,83.005141 z "
       style="color:black;fill:#08f;fill-opacity:1;fill-rule:evenodd;stroke:black;stroke-width:0.87707853;stroke-linecap:round;stroke-linejoin:round;marker:none;marker-start:none;marker-mid:none;marker-end:none;stroke-miterlimit:4;stroke-dasharray:none;stroke-dashoffset:0;stroke-opacity:1;visibility:visible;display:inline;overflow:visible" />
    <g
       transform="translate(0.195776,-2.126162)"
       id="g1911">
      <path
         style="opacity:1;color:black;fill:#fe0;fill-opacity:1;fill-rule:evenodd;stroke:black;stroke-width:0.87707853;stroke-linecap:round;stroke-linejoin:round;marker:none;marker-start:none;marker-mid:none;marker-end:none;stroke-miterlimit:4;stroke-dasharray:none;stroke-dashoffset:0;stroke-opacity:1;visibility:visible;display:inline;overflow:visible"
         d="M 84.199543,79.445315 C 84.199543,79.445315 81.999016,80.882304 80.898751,81.093748 C 82.73312,83.067568 85.948805,85.717988 88.087663,92.953886 C 95.708262,90.009408 105.48632,87.897959 115.78612,89.382923 C 116.98231,80.981176 124.29456,71.97448 124.29456,71.97448 L 119.28269,68.967354 L 84.199543,79.445315 z "
         id="path2999"
         sodipodi:nodetypes="ccccccc" />
      <g
         id="g3011">
        <path
           sodipodi:nodetypes="cssssssssssssss"
           id="path3009"
           d="M 88.213677,72.050823 C 87.521343,71.20869 85.497846,71.487906 82.84573,72.982569 C 80.127197,74.514664 78.679393,77.832429 77.468517,79.234006 C 76.25764,80.635583 73.873414,81.561789 71.512231,81.777185 C 69.151047,81.992578 66.945056,80.008739 64.339847,81.568383 C 61.734639,83.128026 62.981471,81.792815 59.50288,81.969389 C 55.630081,82.165974 52.928095,84.842957 51.704248,85.941331 C 50.374609,87.134651 48.127239,86.059748 50.39398,83.08633 C 52.153545,80.778204 47.377467,80.033353 45.653577,82.923699 C 43.667647,86.25339 43.876355,90.481786 48.856084,90.665327 C 53.937318,90.849002 56.028101,87.004721 58.452467,86.278344 C 60.876833,85.551968 64.675759,86.819395 67.659483,86.813855 C 70.643205,86.808314 71.991097,85.222928 75.307824,83.573114 C 78.624551,81.923301 79.472101,81.736859 83.304173,79.742653 C 86.059897,78.308578 90.412583,74.725502 88.213677,72.050823 z "
           style="opacity:1;color:black;fill:#ffee80;fill-opacity:1;fill-rule:evenodd;stroke:black;stroke-width:1.25296938;stroke-linecap:round;stroke-linejoin:round;marker:none;marker-start:none;marker-mid:none;marker-end:none;stroke-miterlimit:4;stroke-dasharray:none;stroke-dashoffset:0;stroke-opacity:1;visibility:visible;display:inline;overflow:visible" />
        <path
           sodipodi:nodetypes="csssssssssscs"
           id="path3001"
           d="M 78.897914,41.464682 C 77.72876,41.497775 76.634526,43.405868 76.157044,46.652758 C 75.667604,49.980958 77.527479,53.407046 77.919032,55.36481 C 78.310585,57.322575 77.527477,59.965558 76.157044,62.119099 C 74.78661,64.27264 71.654186,64.840397 71.262633,68.090281 C 70.87108,71.340164 69.892197,74.041874 66.563997,75.568936 C 63.235798,77.095998 61.473809,78.857986 61.278033,80.619974 C 61.082256,82.381962 63.353266,83.948174 65.154408,82.186186 C 66.95555,80.424198 71.84996,78.955875 72.828844,76.410781 C 73.807728,73.865687 74.395059,70.34171 76.352822,67.796616 C 78.310585,65.251522 81.834561,64.957857 82.617667,61.042328 C 83.400773,57.126799 82.324002,55.95214 81.443008,51.351394 C 80.633924,49.573861 82.61123,41.359576 78.897914,41.464682 z "
           style="opacity:1;color:black;fill:#fe0;fill-opacity:1;fill-rule:evenodd;stroke:black;stroke-width:1.25;stroke-linecap:round;stroke-linejoin:round;marker:none;marker-start:none;marker-mid:none;marker-end:none;stroke-miterlimit:4;stroke-dasharray:none;stroke-dashoffset:0;stroke-opacity:1;visibility:visible;display:inline;overflow:visible" />
        <path
           sodipodi:nodetypes="csssssssssscs"
           id="path3003"
           d="M 81.000652,47.156769 C 79.831498,47.189862 78.149934,49.587396 77.672452,52.834286 C 77.183012,56.162486 78.847111,58.022362 79.238664,59.980126 C 79.630217,61.937891 79.532327,63.210439 78.161894,65.36398 C 76.79146,67.517521 72.973818,69.455713 72.582265,72.705597 C 72.190712,75.95548 71.211829,78.65719 67.883629,80.184252 C 64.55543,81.711314 60.097398,85.798933 60.639901,87.486719 C 62.401888,92.96846 66.924327,90.521255 65.201493,87.682496 C 63.894228,85.528483 74.344251,83.179638 75.323135,80.634544 C 76.302019,78.08945 75.714691,74.957026 77.672454,72.411932 C 79.630217,69.866838 83.154193,69.573173 83.937299,65.657644 C 84.720405,61.742115 83.643634,60.567456 82.76264,55.96671 C 81.953556,54.189177 84.713968,47.051663 81.000652,47.156769 z "
           style="opacity:1;color:black;fill:#ffee80;fill-opacity:1;fill-rule:evenodd;stroke:black;stroke-width:0.87707853;stroke-linecap:round;stroke-linejoin:round;marker:none;marker-start:none;marker-mid:none;marker-end:none;stroke-miterlimit:4;stroke-dasharray:none;stroke-dashoffset:0;stroke-opacity:1;visibility:visible;display:inline;overflow:visible" />
        <path
           sodipodi:nodetypes="csssssssssscs"
           id="path3005"
           d="M 83.029712,50.553531 C 81.939953,50.584226 80.920026,52.35404 80.474969,55.365627 C 80.018766,58.452633 81.752341,61.630432 82.117304,63.446317 C 82.482267,65.262203 81.752339,67.713649 80.474969,69.711123 C 79.197598,71.708597 76.277891,72.235208 75.912928,75.249573 C 75.547964,78.263937 74.635555,80.769854 71.533367,82.18625 C 68.431179,83.602646 66.601579,85.226794 66.606362,86.871239 C 66.619656,91.540071 70.792099,90.937127 70.2195,88.323948 C 69.718012,86.035301 77.145589,84.838297 78.057998,82.477645 C 78.970408,80.116994 78.832637,77.337841 80.657452,74.97719 C 82.482267,72.616539 85.766937,72.344156 86.496864,68.712385 C 87.226791,65.080615 86.223141,63.991083 85.401974,59.723753 C 84.647833,58.075038 86.490864,50.456042 83.029712,50.553531 z "
           style="opacity:1;color:black;fill:#fe0;fill-opacity:1;fill-rule:evenodd;stroke:black;stroke-width:0.87707818;stroke-linecap:round;stroke-linejoin:round;marker:none;marker-start:none;marker-mid:none;marker-end:none;stroke-miterlimit:4;stroke-dasharray:none;stroke-dashoffset:0;stroke-opacity:1;visibility:visible;display:inline;overflow:visible" />
      </g>
      <g
         id="g2909"
         style="opacity:0.9758454">
        <path
           id="path2904"
           transform="matrix(1.002375,0,0,1.002375,0,-0.551729)"
           d="M 96.78125,28.40625 C 88.938858,28.549319 81.358993,32.997443 78.59375,41.625 L 78.46875,42.21875 C 78.468747,42.218749 78.15625,43.992847 78.15625,46.5 C 78.156247,49.007153 80.38377,52.239015 80.53125,54.15625 C 80.678728,56.073487 79.486291,57.100221 79.78125,60.5 C 80.076207,63.899779 82.24963,70.536698 85,73.78125 C 85.337356,74.179222 85.71814,74.606391 86.125,75.03125 C 86.115139,75.552963 85.967971,77.931867 84.0625,79.96875 C 87.233309,82.697125 88.855671,84.251169 89.96875,88.6875 C 97.674556,86.327824 103.05113,84.237541 112.96875,85.59375 C 114.44355,80.800665 115.42661,75.997499 120.04688,72.605468 C 115.45807,66.711407 116.34606,61.520787 116.04297,54.753907 C 116.04297,52.394233 114.79192,44.565578 113.6289,42.007813 C 109.71397,33.397899 104.62364,28.263181 96.78125,28.40625 z "
           style="opacity:1;color:black;fill:#ffd0d0;fill-opacity:1;fill-rule:evenodd;stroke:black;stroke-width:1.25;stroke-linecap:round;stroke-linejoin:round;marker:none;marker-start:none;marker-mid:none;marker-end:none;stroke-miterlimit:4;stroke-dasharray:none;stroke-dashoffset:0;stroke-opacity:1;visibility:visible;display:inline;overflow:visible"
           sodipodi:nodetypes="cccssssccccccsc" />
        <path
           sodipodi:nodetypes="csssssc"
           id="path2890"
           d="M 78.349875,46.057725 C 78.349875,48.570834 80.567324,51.823093 80.715154,53.744882 C 80.862984,55.666672 79.680345,56.685949 79.976005,60.093804 C 80.271665,63.501659 82.445015,70.154007 85.201918,73.406266 C 87.775212,76.441925 92.672407,80.655742 95.225673,79.993484 C 99.785218,78.810844 104.66361,75.364504 107.62021,72.519286 C 109.98637,70.242262 110.87246,69.267027 110.87246,69.267027"
           style="opacity:1;color:black;fill:none;fill-opacity:1;fill-rule:evenodd;stroke:black;stroke-width:1.25;stroke-linecap:round;stroke-linejoin:round;marker:none;marker-start:none;marker-mid:none;marker-end:none;stroke-miterlimit:4;stroke-dasharray:none;stroke-dashoffset:0;stroke-opacity:1;visibility:visible;display:inline;overflow:visible" />
      </g>
      <g
         id="g2952"
         style="opacity:1">
        <path
           style="opacity:1;color:black;fill:#ffee80;fill-opacity:1;fill-rule:evenodd;stroke:black;stroke-width:1.25296938;stroke-linecap:round;stroke-linejoin:round;marker:none;marker-start:none;marker-mid:none;marker-end:none;stroke-miterlimit:4;stroke-dasharray:none;stroke-dashoffset:0;stroke-opacity:1;visibility:visible;display:inline;overflow:visible"
           d="M 111.40671,37.461045 C 111.40671,37.461045 114.82864,37.32261 116.35143,43.275309 C 117.87421,49.228009 116.90517,53.657924 117.45891,58.641579 C 117.94235,62.992499 119.84195,73.085486 122.51263,73.210829 C 125.75338,73.36063 131.175,72.310709 131.1768,76.423899 C 131.18035,84.489331 137.94722,83.787338 137.91075,79.028904 C 137.85407,71.633432 131.60464,75.033097 131.66646,70.021523 C 131.71188,66.339668 130.45386,65.326859 127.10901,65.111743 C 124.7711,64.961386 125.45397,61.399748 125.34969,60.691329 C 125.02535,58.487824 122.21801,59.665619 121.70733,57.118795 C 121.19665,54.571972 120.83869,50.661301 120.42339,46.64669 C 120.00808,42.632079 117.93155,40.555557 116.40877,39.448078 C 114.32625,37.933512 112.13781,32.915783 111.40671,34.911544 C 110.6756,36.907306 111.78308,37.59948 111.40671,37.461045 z "
           id="path2950"
           sodipodi:nodetypes="cssssssssssssc" />
        <path
           sodipodi:nodetypes="csssssss"
           id="path2944"
           d="M 124.71503,71.040596 C 124.78899,76.007494 139.50862,72.69313 139.05672,80.420623 C 138.58542,88.382139 147.98068,88.958721 147.94421,84.200287 C 147.88753,76.804815 142.61699,84.413674 142.48303,75.095018 C 142.4301,71.413263 143.03903,70.426055 139.68757,70.381014 C 135.78345,70.328545 136.62354,66.578042 136.6557,65.862712 C 136.8208,62.190883 128.77812,62.308866 126.35694,62.19229 C 119.44502,61.859493 124.62262,64.835045 124.71503,71.040596 z "
           style="opacity:1;color:black;fill:#ffee80;fill-opacity:1;fill-rule:evenodd;stroke:black;stroke-width:1.25296938;stroke-linecap:round;stroke-linejoin:round;marker:none;marker-start:none;marker-mid:none;marker-end:none;stroke-miterlimit:4;stroke-dasharray:none;stroke-dashoffset:0;stroke-opacity:1;visibility:visible;display:inline;overflow:visible" />
        <path
           sodipodi:nodetypes="csssssss"
           id="path2946"
           d="M 126.53533,72.360074 C 126.59768,76.959233 137.7954,74.771157 137.41449,81.926522 C 137.01723,89.298583 144.93656,89.832476 144.90582,85.426347 C 144.85804,78.578421 140.41547,85.623935 140.30255,76.995214 C 140.25794,73.586049 139.28602,72.490651 136.46105,72.448944 C 133.17024,72.40036 133.87835,68.927537 133.90546,68.265168 C 134.04463,64.865194 128.8331,65.518286 126.79227,65.410341 C 120.96617,65.102184 126.45744,66.61397 126.53533,72.360074 z "
           style="opacity:1;color:black;fill:#fe0;fill-opacity:1;fill-rule:evenodd;stroke:black;stroke-width:0.87707812;stroke-linecap:round;stroke-linejoin:round;marker:none;marker-start:none;marker-mid:none;marker-end:none;stroke-miterlimit:4;stroke-dasharray:none;stroke-dashoffset:0;stroke-opacity:1;visibility:visible;display:inline;overflow:visible" />
        <path
           sodipodi:nodetypes="cssssssssssssc"
           id="path2942"
           d="M 111.40671,37.461045 C 111.40671,37.461045 114.82864,37.32261 116.35143,43.275309 C 117.87421,49.228009 116.90517,53.657924 117.45891,58.641579 C 117.94235,62.992499 119.84195,73.281263 122.51263,73.406606 C 125.75338,73.556407 131.175,72.310709 131.1768,76.423899 C 131.18035,84.489331 137.94722,83.787338 137.91075,79.028904 C 137.85407,71.633432 131.60464,75.033097 131.66646,70.021523 C 131.71188,66.339668 131.23697,65.326859 127.89212,65.111743 C 125.55421,64.961386 126.43285,61.399748 126.32857,60.691329 C 126.00423,58.487824 123.00112,59.665619 122.49044,57.118795 C 121.97976,54.571972 121.6218,50.661301 121.2065,46.64669 C 120.79119,42.632079 117.93155,40.555557 116.40877,39.448078 C 114.32625,37.933512 112.13781,32.915783 111.40671,34.911544 C 110.6756,36.907306 111.78308,37.59948 111.40671,37.461045 z "
           style="opacity:1;color:black;fill:#ffee80;fill-opacity:1;fill-rule:evenodd;stroke:black;stroke-width:0.87707853;stroke-linecap:round;stroke-linejoin:round;marker:none;marker-start:none;marker-mid:none;marker-end:none;stroke-miterlimit:4;stroke-dasharray:none;stroke-dashoffset:0;stroke-opacity:1;visibility:visible;display:inline;overflow:visible" />
        <path
           sodipodi:nodetypes="csssssssssssssc"
           id="path2948"
           d="M 111.2925,43.199876 C 111.2925,43.199876 113.33499,43.370597 114.67953,48.657189 C 116.02406,53.943782 116.14733,57.584324 116.63625,62.010308 C 117.0631,65.87436 118.38577,70.737886 120.74548,70.805788 C 123.10612,70.872307 126.19031,70.699861 126.13778,72.886943 C 125.99427,78.959637 130.36312,75.976992 130.41248,79.075334 C 130.4702,82.813076 134.62839,83.363375 134.69408,80.116292 C 134.82693,73.549526 129.12614,76.567615 129.18072,72.116837 C 129.22083,68.846981 128.11007,67.947505 125.15675,67.756461 C 123.09251,67.622929 123.69544,64.459838 123.60337,63.830691 C 123.317,61.873758 120.83827,62.919758 120.38737,60.657924 C 119.93647,58.39609 119.62041,54.923023 119.25372,51.357647 C 118.88703,47.792271 117.05357,45.948112 115.70904,44.96456 C 113.87029,43.619474 111.93802,39.163229 111.2925,40.935664 C 110.64697,42.7081 111.62481,43.32282 111.2925,43.199876 z "
           style="opacity:1;color:black;fill:#fe0;fill-opacity:1;fill-rule:evenodd;stroke:black;stroke-width:0.87707853;stroke-linecap:round;stroke-linejoin:round;marker:none;marker-start:none;marker-mid:none;marker-end:none;stroke-miterlimit:4;stroke-dasharray:none;stroke-dashoffset:0;stroke-opacity:1;visibility:visible;display:inline;overflow:visible" />
        <path
           sodipodi:nodetypes="cssssssssc"
           id="path2938"
           d="M 105.24943,37.436087 C 105.24943,37.436087 107.97919,37.159217 109.50198,43.111916 C 111.02476,49.064616 110.74789,53.632966 111.30163,58.616621 C 111.78507,62.967541 111.99381,65.676799 114.48563,66.645843 C 116.97746,67.614887 118.3636,67.099354 118.50024,64.957852 C 118.64206,62.735124 115.78386,65.039621 115.27318,62.492797 C 114.7625,59.945974 115.18764,51.971748 114.77234,47.957137 C 114.35703,43.942526 112.54754,40.896959 111.02476,38.820436 C 109.50198,36.743913 105.98053,32.890825 105.24943,34.886586 C 104.51832,36.882348 105.6258,37.574522 105.24943,37.436087 z "
           style="opacity:1;color:black;fill:#fe0;fill-opacity:1;fill-rule:evenodd;stroke:black;stroke-width:0.87707853;stroke-linecap:round;stroke-linejoin:round;marker:none;marker-start:none;marker-mid:none;marker-end:none;stroke-miterlimit:4;stroke-dasharray:none;stroke-dashoffset:0;stroke-opacity:1;visibility:visible;display:inline;overflow:visible" />
        <path
           sodipodi:nodetypes="cssssssssc"
           id="path2940"
           d="M 109.12561,38.046718 C 109.12561,38.046718 111.85537,37.727762 113.37816,44.585313 C 114.90094,51.442865 114.62407,56.705636 115.17781,62.446841 C 115.66125,67.459132 115.86999,70.580216 118.36181,71.696561 C 120.85364,72.812907 122.23978,72.219009 122.37642,69.751984 C 122.51824,67.191386 119.66004,69.846182 119.14936,66.912223 C 118.63868,63.978265 118.08494,54.791901 117.66964,50.167041 C 117.25433,45.542181 116.42372,42.033667 114.90094,39.641498 C 113.37816,37.249329 109.85671,32.810544 109.12561,35.109675 C 108.3945,37.408807 109.50198,38.206196 109.12561,38.046718 z "
           style="opacity:1;color:black;fill:#ffee80;fill-opacity:1;fill-rule:evenodd;stroke:black;stroke-width:0.87707859;stroke-linecap:round;stroke-linejoin:round;marker:none;marker-start:none;marker-mid:none;marker-end:none;stroke-miterlimit:4;stroke-dasharray:none;stroke-dashoffset:0;stroke-opacity:1;visibility:visible;display:inline;overflow:visible" />
      </g>
      <g
         id="g2987">
        <path
           sodipodi:nodetypes="cssssscscsscsc"
           id="path1978"
           d="M 70.082128,27.454837 C 73.025532,26.847402 74.523901,26.162765 77.849912,24.56896 C 80.462145,23.317194 83.653392,21.325847 86.449319,21.277501 C 89.128639,21.231173 92.54507,24.333969 98.461802,24.217291 C 104.37851,24.100613 108.65346,20.772007 110.78876,20.71446 C 113.47154,20.641296 117.01937,23.365755 119.53957,24.781001 C 123.18634,26.828881 123.88431,27.654414 127.03238,28.509158 C 123.86487,32.024105 123.4647,33.481438 121.40671,35.6909 C 119.34872,37.900362 118.32378,41.03604 118.32378,41.03604 C 118.32378,41.03604 107.75174,36.59898 97.739002,36.917567 C 91.558625,37.114215 85.546879,38.363264 83.289928,39.1969 C 80.645486,40.173661 78.534125,41.558783 78.534125,41.558783 C 78.534125,41.558783 76.974922,37.298476 74.769817,34.017662 C 73.308961,31.844162 71.629903,30.192524 70.082128,27.454837 z "
           style="opacity:1;fill:green;fill-opacity:1;fill-rule:evenodd;stroke:black;stroke-width:1.25296903;stroke-linecap:round;stroke-linejoin:round;stroke-miterlimit:4;stroke-dasharray:none;stroke-opacity:1" />
        <path
           sodipodi:nodetypes="cssssss"
           id="path2866"
           d="M 72.380511,30.913695 C 74.347741,30.380348 76.721052,29.66859 79.300192,28.417892 C 83.051737,26.59866 84.257431,25.295559 86.173374,25.205789 C 88.125139,25.114341 94.623773,28.116157 98.737436,27.957645 C 103.50789,27.77656 109.2004,25.326134 110.53646,25.385026 C 111.61532,25.432581 113.66163,27.264341 116.47339,28.850599 C 118.89243,30.215305 121.89383,31.981624 123.97142,32.13901"
           style="color:black;fill:none;fill-opacity:1;fill-rule:evenodd;stroke:black;stroke-width:0.87707841;stroke-linecap:round;stroke-linejoin:round;marker:none;marker-start:none;marker-mid:none;marker-end:none;stroke-miterlimit:4;stroke-dasharray:none;stroke-dashoffset:0;stroke-opacity:1;visibility:visible;display:inline;overflow:visible" />
      </g>
      <g
         id="g2974">
        <g
           id="g2960">
          <path
             style="opacity:1;color:black;fill:none;fill-opacity:1;fill-rule:evenodd;stroke:black;stroke-width:0.87707853;stroke-linecap:round;stroke-linejoin:round;marker:none;marker-start:none;marker-mid:none;marker-end:none;stroke-miterlimit:4;stroke-dasharray:none;stroke-dashoffset:0;stroke-opacity:1;visibility:visible;display:inline;overflow:visible"
             d="M 93.72419,56.110162 C 93.72419,56.110162 89.280003,53.255952 87.803563,55.777778 C 86.89122,57.336101 87.878612,59.979104 90.065966,61.43204"
             id="path2914"
             sodipodi:nodetypes="csc" />
          <path
             style="opacity:1;color:black;fill:none;fill-opacity:1;fill-rule:evenodd;stroke:black;stroke-width:0.87707853;stroke-linecap:round;stroke-linejoin:round;marker:none;marker-start:none;marker-mid:none;marker-end:none;stroke-miterlimit:4;stroke-dasharray:none;stroke-dashoffset:0;stroke-opacity:1;visibility:visible;display:inline;overflow:visible"
             d="M 90.77502,49.504093 C 90.77502,49.504093 92.799686,53.83541 91.211081,54.876794"
             id="path2916"
             sodipodi:nodetypes="cc" />
        </g>
        <g
           id="g2964">
          <path
             sodipodi:type="arc"
             style="opacity:1;color:black;fill:#8df;fill-opacity:1;fill-rule:nonzero;stroke:black;stroke-width:0.87707853;stroke-linecap:square;stroke-linejoin:round;marker:none;marker-start:none;marker-mid:none;marker-end:none;stroke-miterlimit:4;stroke-dasharray:none;stroke-dashoffset:0;stroke-opacity:1;visibility:visible;display:inline;overflow:visible"
             id="path2918"
             sodipodi:cx="97.162086"
             sodipodi:cy="48.578117"
             sodipodi:rx="1.933834"
             sodipodi:ry="3.5540731"
             d="M 99.09592 48.578117 A 1.933834 3.5540731 0 1 1  95.228253,48.578117 A 1.933834 3.5540731 0 1 1  99.09592 48.578117 z" />
          <path
             sodipodi:type="arc"
             style="opacity:1;color:black;fill:#8df;fill-opacity:1;fill-rule:nonzero;stroke:black;stroke-width:0.87707853;stroke-linecap:square;stroke-linejoin:round;marker:none;marker-start:none;marker-mid:none;marker-end:none;stroke-miterlimit:4;stroke-dasharray:none;stroke-dashoffset:0;stroke-opacity:1;visibility:visible;display:inline;overflow:visible"
             id="path2920"
             sodipodi:cx="97.162086"
             sodipodi:cy="48.578117"
             sodipodi:rx="1.933834"
             sodipodi:ry="3.5540731"
             d="M 99.09592 48.578117 A 1.933834 3.5540731 0 1 1  95.228253,48.578117 A 1.933834 3.5540731 0 1 1  99.09592 48.578117 z"
             transform="translate(-11.32541,1.327212)" />
          <path
             style="opacity:1;color:black;fill:none;fill-opacity:1;fill-rule:evenodd;stroke:black;stroke-width:0.87707853;stroke-linecap:round;stroke-linejoin:round;marker:none;marker-start:none;marker-mid:none;marker-end:none;stroke-miterlimit:4;stroke-dasharray:none;stroke-dashoffset:0;stroke-opacity:1;visibility:visible;display:inline;overflow:visible"
             d="M 100.87036,43.422995 C 99.664712,41.557032 98.641102,40.289011 96.639104,40.394041 C 93.821288,40.541871 93.220922,43.907966 93.220922,43.907966"
             id="path2922"
             sodipodi:nodetypes="csc" />
          <path
             style="opacity:1;color:black;fill:none;fill-opacity:1;fill-rule:evenodd;stroke:black;stroke-width:0.87707877;stroke-linecap:round;stroke-linejoin:round;marker:none;marker-start:none;marker-mid:none;marker-end:none;stroke-miterlimit:4;stroke-dasharray:none;stroke-dashoffset:0;stroke-opacity:1;visibility:visible;display:inline;overflow:visible"
             d="M 81.233774,46.548545 C 81.877909,43.782742 82.824492,42.120901 84.462625,42.197123 C 85.995855,42.268464 87.587913,44.663259 87.587913,44.663259"
             id="path2924"
             sodipodi:nodetypes="csc" />
        </g>
        <g
           id="g2970">
          <path
             style="opacity:1;color:black;fill:none;fill-opacity:1;fill-rule:evenodd;stroke:black;stroke-width:0.87707806;stroke-linecap:round;stroke-linejoin:round;marker:none;marker-start:none;marker-mid:none;marker-end:none;stroke-miterlimit:4;stroke-dasharray:none;stroke-dashoffset:0;stroke-opacity:1;visibility:visible;display:inline;overflow:visible"
             d="M 98.788893,66.711467 C 97.276052,67.947991 95.671625,68.943244 91.965508,69.010189 C 88.418953,69.076019 86.2993,67.347404 86.2993,67.347404"
             id="path2926"
             sodipodi:nodetypes="csc" />
          <path
             style="opacity:1;color:black;fill:none;fill-opacity:1;fill-rule:evenodd;stroke:black;stroke-width:0.87707806;stroke-linecap:round;stroke-linejoin:round;marker:none;marker-start:none;marker-mid:none;marker-end:none;stroke-miterlimit:4;stroke-dasharray:none;stroke-dashoffset:0;stroke-opacity:1;visibility:visible;display:inline;overflow:visible"
             d="M 95.78951,71.785961 C 95.097677,71.243198 94.516008,70.878468 93.425005,70.950625 C 91.889417,71.052185 91.622404,72.087086 91.622404,72.087086"
             id="path2936"
             sodipodi:nodetypes="csc" />
        </g>
      </g>
    </g>
    <g
       transform="translate(-7.717058e-8,-1.890585)"
       id="g2910">
      <g
         id="g2905">
        <path
           sodipodi:nodetypes="cscsccc"
           id="path2867"
           d="M 39.351069,200.90503 C 39.351069,200.90503 40.329951,198.16416 38.17641,202.27546 C 36.022869,206.38677 35.043986,208.14876 35.043986,208.14876 C 35.043986,208.14876 41.491005,214.17637 46.594798,217.70264 C 50.90188,220.67845 60.690703,224.59398 60.690703,224.59398 L 74.003502,204.23322 L 39.351069,200.90503 z "
           style="opacity:1;color:black;fill:red;fill-opacity:1;fill-rule:evenodd;stroke:black;stroke-width:1.25;stroke-linecap:round;stroke-linejoin:round;marker:none;marker-start:none;marker-mid:none;marker-end:none;stroke-miterlimit:4;stroke-dasharray:none;stroke-dashoffset:0;stroke-opacity:1;visibility:visible;display:inline;overflow:visible" />
        <path
           sodipodi:nodetypes="cscsccc"
           id="path2865"
           d="M 43.070822,194.52421 C 43.070822,194.52421 41.896163,194.32843 39.742622,198.43973 C 37.589081,202.55104 37.784857,202.74682 37.784857,202.74682 C 37.784857,202.74682 44.441257,210.89111 50.314551,212.88803 C 56.187845,214.88496 66.172444,217.43005 66.172444,217.43005 L 77.52748,198.04817 L 43.070822,194.52421 z "
           style="opacity:1;color:black;fill:#fe0;fill-opacity:1;fill-rule:evenodd;stroke:black;stroke-width:1.25296938;stroke-linecap:round;stroke-linejoin:round;marker:none;marker-start:none;marker-mid:none;marker-end:none;stroke-miterlimit:4;stroke-dasharray:none;stroke-dashoffset:0;stroke-opacity:1;visibility:visible;display:inline;overflow:visible" />
        <path
           sodipodi:nodetypes="cscsccc"
           id="path2863"
           d="M 46.203245,188.49281 C 46.203245,188.49281 45.028586,188.29703 42.875045,192.40833 C 40.721504,196.51964 40.91728,196.71542 40.91728,196.71542 C 40.91728,196.71542 47.57368,203.2935 53.446974,205.29042 C 59.320268,207.28735 71.458408,208.65778 71.458408,208.65778 L 81.051455,192.79988 L 46.203245,188.49281 z "
           style="opacity:1;color:black;fill:#08f;fill-opacity:1;fill-rule:evenodd;stroke:black;stroke-width:1.25;stroke-linecap:round;stroke-linejoin:round;marker:none;marker-start:none;marker-mid:none;marker-end:none;stroke-miterlimit:4;stroke-dasharray:none;stroke-dashoffset:0;stroke-opacity:1;visibility:visible;display:inline;overflow:visible" />
      </g>
      <g
         id="g2896">
        <g
           id="g2887">
          <path
             style="opacity:1;color:black;fill:#fe0;fill-opacity:1;fill-rule:evenodd;stroke:black;stroke-width:1.25;stroke-linecap:round;stroke-linejoin:round;marker:none;marker-start:none;marker-mid:none;marker-end:none;stroke-miterlimit:4;stroke-dasharray:none;stroke-dashoffset:0;stroke-opacity:1;visibility:visible;display:inline;overflow:visible"
             d="M 68.325985,141.1149 C 68.325985,141.1149 56.579397,158.73478 52.859645,165.78274 C 49.139892,172.83069 42.09194,190.05901 42.09194,190.05901 C 42.09194,190.05901 43.388959,192.6041 45.585326,193.18226 C 47.781693,193.76041 53.030949,190.41386 56.628342,191.16026 C 60.225734,191.90666 63.793536,198.16251 67.94055,199.01274 C 72.465756,199.94049 76.810891,192.43259 79.68102,194.95343 L 103.56575,158.93056 C 103.56575,158.93056 83.204996,142.48534 68.325985,141.1149 z "
             id="path2861"
             sodipodi:nodetypes="cscsssccc" />
          <path
             style="opacity:1;color:black;fill:green;fill-opacity:1;fill-rule:evenodd;stroke:black;stroke-width:0.87500042;stroke-linecap:round;stroke-linejoin:round;marker:none;marker-start:none;marker-mid:none;marker-end:none;stroke-miterlimit:4;stroke-dasharray:none;stroke-dashoffset:0;stroke-opacity:1;visibility:visible;display:inline;overflow:visible"
             d="M 85.5625,143.71875 C 83.435465,143.81811 80.471436,145.02611 80.125,145 C 80.125002,145 75.820547,152.50332 73.1875,165.25 C 70.554448,177.99667 70.597855,184.98986 71.9375,190.125 C 72.655497,192.87722 74.906565,196.56815 76.78125,199.375 L 88.5625,181.4375 C 88.47016,176.28167 87.950517,170.64558 87.40625,165.125 C 86.908021,160.07138 85.109575,151.99746 87.375,146.59375 C 88.366125,144.22962 87.216861,143.64147 85.5625,143.71875 z "
             transform="matrix(1.002375,0,0,1.002375,0,-0.551729)"
             id="path2853" />
          <path
             style="opacity:1;color:black;fill:red;fill-opacity:1;fill-rule:evenodd;stroke:black;stroke-width:0.87707853;stroke-linecap:round;stroke-linejoin:round;marker:none;marker-start:none;marker-mid:none;marker-end:none;stroke-miterlimit:4;stroke-dasharray:none;stroke-dashoffset:0;stroke-opacity:1;visibility:visible;display:inline;overflow:visible"
             d="M 68.521762,144.4431 C 68.521762,144.4431 62.256915,154.03615 56.579397,165.78274 C 50.90188,177.52932 47.201961,184.16844 47.769457,189.27591 C 48.356786,194.56187 49.678278,196.80352 52.468092,200.27855 C 58.586106,198.07607 61.530875,196.44075 63.62735,193.77877 C 68.592966,187.47371 69.336753,173.17208 70.675303,165.78274 C 71.582605,160.77407 74.003507,149.92485 77.527481,145.22621 C 81.051456,140.52758 69.109091,144.63888 68.521762,144.4431 z "
             id="path2851"
             sodipodi:nodetypes="csscsssc" />
        </g>
        <g
           id="g2892">
          <path
             style="opacity:1;color:black;fill:#fe0;fill-opacity:1;fill-rule:evenodd;stroke:black;stroke-width:1.25;stroke-linecap:round;stroke-linejoin:round;marker:none;marker-start:none;marker-mid:none;marker-end:none;stroke-miterlimit:4;stroke-dasharray:none;stroke-dashoffset:0;stroke-opacity:1;visibility:visible;display:inline;overflow:visible"
             d="M 92.798043,153.84037 C 92.798043,153.84037 93.581149,159.71367 93.581149,162.45454 C 93.581149,165.1954 92.993819,174.98423 92.993819,174.98423 L 103.85941,158.24535 L 92.798043,153.84037 z "
             id="path2869"
             sodipodi:nodetypes="csccc" />
          <path
             style="opacity:1;color:black;fill:black;fill-opacity:1;fill-rule:evenodd;stroke:black;stroke-width:0.87707853;stroke-linecap:round;stroke-linejoin:round;marker:none;marker-start:none;marker-mid:none;marker-end:none;stroke-miterlimit:4;stroke-dasharray:none;stroke-dashoffset:0;stroke-opacity:1;visibility:visible;display:inline;overflow:visible"
             d="M 95.08714,157.76373 C 95.08714,157.76373 95.613625,160.10476 95.613625,162.20223 C 95.613625,164.29969 95.145345,171.79065 95.145345,171.79065 L 101.16552,162.40721 C 101.16552,162.40721 99.841704,160.85479 98.322109,159.69392 C 96.802514,158.53305 95.08714,157.76373 95.08714,157.76373 z "
             id="path2871"
             sodipodi:nodetypes="csccsc" />
        </g>
      </g>
    </g>
    <path
       sodipodi:nodetypes="cscsccscsc"
       id="path2899"
       d="M 70.166286,128.22168 C 70.166286,128.22168 70.713885,131.39333 70.166286,133.97269 C 69.494301,137.13795 66.725604,142.00192 66.725604,142.00192 C 66.725604,142.00192 79.184742,143.1094 86.660225,147.53931 C 94.135707,151.96923 101.92165,158.48873 101.92165,158.48873 L 117.60041,135.21861 C 117.60041,135.21861 110.9686,138.66596 109.36354,139.78696 C 107.18319,141.30974 103.62282,143.32653 103.62282,143.32653 C 103.62282,143.32653 97.310966,137.5279 91.92075,134.8033 C 83.337789,130.46486 70.324911,127.88156 70.166286,128.22168 z "
       style="color:black;fill:black;fill-opacity:1;fill-rule:evenodd;stroke:black;stroke-width:1.25;stroke-linecap:round;stroke-linejoin:round;marker:none;marker-start:none;marker-mid:none;marker-end:none;stroke-miterlimit:4;stroke-dasharray:none;stroke-dashoffset:0;stroke-opacity:1;visibility:visible;display:inline;overflow:visible" />
    <path
       id="path2917"
       d="M 64.214679,112.20717 C 64.214679,112.20717 63.19664,113.77338 61.669585,115.33958 C 60.142531,116.90581 59.124491,119.25512 59.124491,119.25512"
       style="color:black;fill:none;fill-opacity:1;fill-rule:evenodd;stroke:black;stroke-width:0.87707853;stroke-linecap:round;stroke-linejoin:round;marker:none;marker-start:none;marker-mid:none;marker-end:none;stroke-miterlimit:4;stroke-dasharray:none;stroke-dashoffset:0;stroke-opacity:1;visibility:visible;display:inline;overflow:visible" />
    <g
       transform="translate(-7.717058e-8,-1.890585)"
       id="g2962">
      <path
         style="opacity:1;color:black;fill:black;fill-opacity:1;fill-rule:evenodd;stroke:black;stroke-width:0.87707853;stroke-linecap:round;stroke-linejoin:round;marker:none;marker-start:none;marker-mid:none;marker-end:none;stroke-miterlimit:4;stroke-dasharray:none;stroke-dashoffset:0;stroke-opacity:1;visibility:visible;display:inline;overflow:visible"
         d="M 35.933594,127.32422 C 35.142679,127.30105 32.6875,128.06397 31.5625,128.625 C 28.5625,130.1211 26.778328,131.90483 24.875,136.71875 C 23.737609,139.59546 23.331475,144.28126 22.96875,155.6875 C 22.66504,165.23795 22.144531,170.31641 21.5625,174.71875 C 20.114279,182.39681 20.050835,189.2055 22.5625,197.125 C 24.455485,203.09374 26.193166,205.59764 34.636911,206.11334 C 32.437069,206.03933 30.018776,201.60736 30.3125,201.21875 C 30.208807,200.9371 30.097562,200.65137 30,200.34375 C 27.488335,192.42425 27.551777,185.61557 29,177.9375 C 29.582031,173.53516 30.10254,168.48794 30.40625,158.9375 C 30.768975,147.53126 31.17511,142.84545 32.3125,139.96875 C 34.215828,135.15483 36.000001,133.33984 39,131.84375 C 39.255732,131.71622 43.384422,131.03884 43.625002,130.94531 C 43.226861,130.03676 41.36105,128.69978 41.003907,128.41797 C 38.953067,127.45707 38.179681,127.39001 35.933594,127.32422 z "
         transform="matrix(1.002375,0,0,1.002375,0,-0.551729)"
         id="path2907"
         sodipodi:nodetypes="cssscsccscsssccs" />
      <g
         id="g2939">
        <path
           sodipodi:nodetypes="cscsc"
           id="path2837"
           d="M 26.533399,167.56079 C 25.686821,165.66283 23.28973,165.30349 23.287929,162.73868 C 23.286226,160.31492 25.686529,160.51344 26.187047,161.6928 C 26.337105,160.53432 28.461648,159.81207 29.286433,161.96704 C 30.306904,164.6333 27.165504,165.5635 26.533399,167.56079 z "
           style="opacity:1;color:black;fill:#fe0;fill-opacity:1;fill-rule:evenodd;stroke:black;stroke-width:0.87707865;stroke-linecap:round;stroke-linejoin:round;marker:none;marker-start:none;marker-mid:none;marker-end:none;stroke-miterlimit:4;stroke-dasharray:none;stroke-dashoffset:0;stroke-opacity:1;visibility:visible;display:inline;overflow:visible" />
        <path
           sodipodi:nodetypes="cscsc"
           id="path2839"
           d="M 24.734994,189.84785 C 23.802577,187.99055 21.39157,187.74112 21.272579,185.17907 C 21.16013,182.75792 23.566997,182.84656 24.120881,184.00181 C 24.217848,182.83769 26.307172,182.01912 27.229561,184.13415 C 28.370794,186.751 25.275178,187.82377 24.734994,189.84785 z "
           style="opacity:1;color:black;fill:#fe0;fill-opacity:1;fill-rule:evenodd;stroke:black;stroke-width:0.87707895;stroke-linecap:round;stroke-linejoin:round;marker:none;marker-start:none;marker-mid:none;marker-end:none;stroke-miterlimit:4;stroke-dasharray:none;stroke-dashoffset:0;stroke-opacity:1;visibility:visible;display:inline;overflow:visible" />
        <path
           inkscape:transform-center-x="1.953125"
           inkscape:transform-center-y="2.1484375"
           sodipodi:nodetypes="cscsc"
           id="path2841"
           d="M 31.210402,133.67186 C 32.077052,131.78298 30.764414,129.7453 32.689644,128.05069 C 34.509002,126.44926 35.944552,128.38318 35.389179,129.53772 C 36.358374,128.88561 38.303454,130.00454 37.22938,132.04672 C 35.900464,134.57343 33.127866,132.82805 31.210402,133.67186 z "
           style="opacity:1;color:black;fill:#fe0;fill-opacity:1;fill-rule:evenodd;stroke:black;stroke-width:0.87707865;stroke-linecap:round;stroke-linejoin:round;marker:none;marker-start:none;marker-mid:none;marker-end:none;stroke-miterlimit:4;stroke-dasharray:none;stroke-dashoffset:0;stroke-opacity:1;visibility:visible;display:inline;overflow:visible" />
        <path
           sodipodi:nodetypes="cscsc"
           id="path2843"
           d="M 24.347646,178.49789 C 24.088263,176.43593 21.898594,175.39645 22.641148,172.94148 C 23.342866,170.62152 25.582273,171.50804 25.71902,172.78189 C 26.198797,171.71681 28.441507,171.64216 28.605456,173.94374 C 28.808299,176.7914 25.53214,176.76997 24.347646,178.49789 z "
           style="opacity:1;color:black;fill:#fe0;fill-opacity:1;fill-rule:evenodd;stroke:black;stroke-width:0.87707883;stroke-linecap:round;stroke-linejoin:round;marker:none;marker-start:none;marker-mid:none;marker-end:none;stroke-miterlimit:4;stroke-dasharray:none;stroke-dashoffset:0;stroke-opacity:1;visibility:visible;display:inline;overflow:visible" />
        <path
           sodipodi:nodetypes="cscsc"
           id="path2845"
           d="M 26.059321,155.97549 C 25.478756,153.98002 23.152815,153.29799 23.499876,150.75677 C 23.82785,148.3553 26.178845,148.87845 26.514306,150.11492 C 26.820536,148.98762 29.02357,148.56105 29.547589,150.80817 C 30.195933,153.58845 26.957207,154.08274 26.059321,155.97549 z "
           style="opacity:1;color:black;fill:#fe0;fill-opacity:1;fill-rule:evenodd;stroke:black;stroke-width:0.87707865;stroke-linecap:round;stroke-linejoin:round;marker:none;marker-start:none;marker-mid:none;marker-end:none;stroke-miterlimit:4;stroke-dasharray:none;stroke-dashoffset:0;stroke-opacity:1;visibility:visible;display:inline;overflow:visible" />
        <path
           sodipodi:nodetypes="cscsc"
           id="path2847"
           d="M 26.96668,144.54936 C 26.783284,142.47926 24.633316,141.35997 25.46563,138.93397 C 26.252172,136.64138 28.457469,137.60963 28.547288,138.88765 C 29.0659,137.84093 31.309838,137.84879 31.389053,140.15484 C 31.487058,143.00803 28.213903,142.86617 26.96668,144.54936 z "
           style="opacity:1;color:black;fill:#fe0;fill-opacity:1;fill-rule:evenodd;stroke:black;stroke-width:0.87707865;stroke-linecap:round;stroke-linejoin:round;marker:none;marker-start:none;marker-mid:none;marker-end:none;stroke-miterlimit:4;stroke-dasharray:none;stroke-dashoffset:0;stroke-opacity:1;visibility:visible;display:inline;overflow:visible" />
        <path
           sodipodi:nodetypes="cscsc"
           id="path2849"
           d="M 26.864259,200.84343 C 25.548418,199.23485 23.141191,199.51845 22.465062,197.04436 C 21.826115,194.70634 24.194156,194.26674 24.987162,195.27298 C 24.82733,194.11582 26.687208,192.86035 28.049598,194.72262 C 29.735229,197.02674 26.948955,198.75022 26.864259,200.84343 z "
           style="opacity:1;color:black;fill:#fe0;fill-opacity:1;fill-rule:evenodd;stroke:black;stroke-width:0.87707913;stroke-linecap:round;stroke-linejoin:round;marker:none;marker-start:none;marker-mid:none;marker-end:none;stroke-miterlimit:4;stroke-dasharray:none;stroke-dashoffset:0;stroke-opacity:1;visibility:visible;display:inline;overflow:visible" />
      </g>
    </g>
    <g
       transform="translate(-7.717058e-8,-1.890585)"
       id="g2881">
      <path
         style="opacity:1;color:black;fill:none;fill-opacity:1;fill-rule:evenodd;stroke:black;stroke-width:0.87707829;stroke-linecap:round;stroke-linejoin:round;marker:none;marker-start:none;marker-mid:none;marker-end:none;stroke-miterlimit:4;stroke-dasharray:none;stroke-dashoffset:0;stroke-opacity:1;visibility:visible;display:inline;overflow:visible"
         d="M 38.445301,156.3273 C 38.445301,156.3273 37.759941,158.49243 39.329985,159.63946 C 40.90003,160.78649 41.312652,163.24111 41.312652,163.24111 C 41.312652,163.24111 42.993084,161.42213 42.409291,159.95566 C 41.825498,158.48919 40.864053,156.33669 40.864053,156.33669"
         id="path2873" />
      <path
         style="opacity:1;color:black;fill:none;fill-opacity:1;fill-rule:evenodd;stroke:black;stroke-width:0.87707853;stroke-linecap:round;stroke-linejoin:round;marker:none;marker-start:none;marker-mid:none;marker-end:none;stroke-miterlimit:4;stroke-dasharray:none;stroke-dashoffset:0;stroke-opacity:1;visibility:visible;display:inline;overflow:visible"
         d="M 34.774598,165.63394 C 34.774598,165.63394 36.419122,167.20015 35.59686,168.96214 C 34.774598,170.72413 35.59686,173.07345 35.59686,173.07345 C 35.59686,173.07345 33.247543,172.29034 33.051766,170.72413 C 32.85599,169.15792 32.660213,166.8086 32.660213,166.8086"
         id="path2875" />
      <path
         style="opacity:1;color:black;fill:none;fill-opacity:1;fill-rule:evenodd;stroke:black;stroke-width:0.87707853;stroke-linecap:round;stroke-linejoin:round;marker:none;marker-start:none;marker-mid:none;marker-end:none;stroke-miterlimit:4;stroke-dasharray:none;stroke-dashoffset:0;stroke-opacity:1;visibility:visible;display:inline;overflow:visible"
         d="M 30.014821,180.46812 C 30.014821,180.46812 29.203281,182.58917 30.703131,183.82658 C 32.202982,185.06398 32.470493,187.53863 32.470493,187.53863 C 32.470493,187.53863 34.255019,185.82165 33.758504,184.32338 C 33.261988,182.82511 32.428832,180.61978 32.428832,180.61978"
         id="path2877" />
      <path
         style="opacity:1;color:black;fill:none;fill-opacity:1;fill-rule:evenodd;stroke:black;stroke-width:0.87707853;stroke-linecap:round;stroke-linejoin:round;marker:none;marker-start:none;marker-mid:none;marker-end:none;stroke-miterlimit:4;stroke-dasharray:none;stroke-dashoffset:0;stroke-opacity:1;visibility:visible;display:inline;overflow:visible"
         d="M 37.636067,189.42469 C 37.636067,189.42469 39.280591,190.9909 38.458329,192.75289 C 37.636067,194.51488 38.458329,196.8642 38.458329,196.8642 C 38.458329,196.8642 36.109012,196.08109 35.913235,194.51488 C 35.717459,192.94867 35.521682,190.59935 35.521682,190.59935"
         id="path2879" />
    </g>
  </g>
  <use
     x="0"
     y="0"
     xlink:href="#g3509"
     id="use3607"
     transform="matrix(-1,0,0,-1,207,316)"
     width="206"
     height="315" />
  <g
     id="g3216">
    <path
       id="path3212"
       d="M 59.526991,226.12281 L 148.1253,90.456641"
       style="opacity:1;color:black;fill:none;fill-opacity:1;fill-rule:evenodd;stroke:black;stroke-width:6.26484677;stroke-linecap:square;stroke-linejoin:round;marker:none;marker-start:none;marker-mid:none;marker-end:none;stroke-miterlimit:4;stroke-dasharray:none;stroke-dashoffset:0;stroke-opacity:1;visibility:visible;display:inline;overflow:visible" />
    <path
       id="path3214"
       d="M 59.526991,226.12281 L 148.1253,90.456641"
       style="opacity:1;color:black;fill:white;fill-opacity:1;fill-rule:evenodd;stroke:white;stroke-width:3.75890806;stroke-linecap:square;stroke-linejoin:round;marker:none;marker-start:none;marker-mid:none;marker-end:none;stroke-miterlimit:4;stroke-dasharray:none;stroke-dashoffset:0;stroke-opacity:1;visibility:visible;display:inline;overflow:visible" />
  </g>
</svg>
