<?xml version="1.0" encoding="UTF-8" standalone="no"?>
<!-- Created with Sodipodi ("http://www.sodipodi.com/") -->
<svg
   xmlns:dc="http://purl.org/dc/elements/1.1/"
   xmlns:cc="http://web.resource.org/cc/"
   xmlns:rdf="http://www.w3.org/1999/02/22-rdf-syntax-ns#"
   xmlns:svg="http://www.w3.org/2000/svg"
   xmlns="http://www.w3.org/2000/svg"
   xmlns:xlink="http://www.w3.org/1999/xlink"
   xmlns:sodipodi="http://sodipodi.sourceforge.net/DTD/sodipodi-0.dtd"
   xmlns:inkscape="http://www.inkscape.org/namespaces/inkscape"
   viewBox="0 0 206 315"
   id="svg548"
   sodipodi:version="0.32"
   width="58mm"
   height="89mm"
   sodipodi:docname="jack-of-diamonds-work.svg"
   sodipodi:docbase="/home/mikelima/repo/trunk/playground/artwork/carddecks/tigullio"
   inkscape:version="0.44.1">
  <metadata
     id="metadata52">
    <rdf:RDF>
      <cc:Work
         rdf:about="">
        <dc:format>image/svg+xml</dc:format>
        <dc:type
           rdf:resource="http://purl.org/dc/dcmitype/StillImage" />
      </cc:Work>
    </rdf:RDF>
  </metadata>
  <defs
     id="defs550" />
  <sodipodi:namedview
     id="base"
     showgrid="true"
     showguides="false"
     inkscape:zoom="0.84757468"
     inkscape:cx="64.275685"
     inkscape:cy="124.97853"
     inkscape:window-width="1160"
     inkscape:window-height="1117"
     inkscape:window-x="0"
     inkscape:window-y="27"
     inkscape:current-layer="svg548" />
  <path
     style="fill:none;fill-rule:evenodd;stroke:black;stroke-opacity:1;stroke-width:1pt;stroke-linejoin:miter;stroke-linecap:butt;fill-opacity:1;"
     d="M 204.1814 4.220791 L 3.535608 311.8187 "
     id="path786" />
  <path
     style="fill:none;fill-rule:evenodd;stroke:black;stroke-opacity:1;stroke-width:0.875;stroke-linejoin:miter;stroke-linecap:round;fill-opacity:1;stroke-dasharray:none;"
     d=""
     id="path734"
     sodipodi:nodetypes="c" />
  <image
     y="-300.51611"
     x="-195.24715"
     id="image2026"
     height="282.92255"
     width="183.11563"
     sodipodi:absref="/home/mikelima/repo/trunk/playground/artwork/carddecks/tigullio/diamonds-king-and-jack.jpg"
     xlink:href="diamonds-king-and-jack.jpg"
     style="opacity:0.69710143"
     sodipodi:insensitive="true"
     transform="scale(-1,-1)" />
  <path
     style="opacity:1;color:black;fill:red;fill-opacity:1;fill-rule:nonzero;stroke:black;stroke-width:0.875;stroke-linecap:round;stroke-linejoin:round;marker:none;marker-start:none;marker-mid:none;marker-end:none;stroke-miterlimit:4;stroke-dasharray:none;stroke-dashoffset:0;stroke-opacity:1;visibility:visible;display:inline;overflow:visible"
     d="M 53.810108,110.80723 C 53.810108,110.80723 52.627468,111.69421 46.862099,116.12911 C 41.096731,120.564 38.530671,123.5206 35.083142,125.88588 C 31.635613,128.25116 29.713823,130.24798 27.939864,132.68606 C 26.165904,135.12414 24.219847,142.44284 30.071264,145.99076 C 35.922682,149.53868 50.705678,146.22796 54.697087,143.18199 C 58.688496,140.13602 61.201606,138.59926 61.201606,138.59926 C 61.201606,138.59926 61.645096,138.59926 64.158205,141.40803 C 66.671315,144.2168 68.149614,146.87774 68.149614,146.87774 L 101.1157,163.43469 L 120.92491,131.20776 L 53.810108,110.80723 z "
     id="path3656"
     sodipodi:nodetypes="cssssscscccc" />
  <path
     style="opacity:1;color:black;fill:#fe0;fill-opacity:1;fill-rule:nonzero;stroke:black;stroke-width:1.25046341;stroke-linecap:round;stroke-linejoin:round;marker:none;marker-start:none;marker-mid:none;marker-end:none;stroke-miterlimit:4;stroke-dasharray:none;stroke-dashoffset:0;stroke-opacity:1;visibility:visible;display:inline;overflow:visible"
     d="M 133.17322,96.662619 C 132.48536,96.387473 125.08519,90.859647 118.19443,89.136346 C 109.26644,86.903557 95.926154,94.153861 77.144299,95.930898 C 85.001081,107.48163 93.677202,124.57255 91.817538,154.56004 C 90.81503,170.61301 97.423425,168.99847 97.423425,168.99847 L 139.02699,102.93452 L 133.17322,96.662619 z "
     id="path2842"
     sodipodi:nodetypes="cscsccc" />
  <path
     style="opacity:1;color:black;fill:red;fill-opacity:1;fill-rule:nonzero;stroke:black;stroke-width:1.25296935;stroke-linecap:round;stroke-linejoin:round;marker:none;marker-start:none;marker-mid:none;marker-end:none;stroke-miterlimit:4;stroke-dasharray:none;stroke-dashoffset:0;stroke-opacity:1;visibility:visible;display:inline;overflow:visible"
     d="M 111.92817,87.299426 C 114.34921,87.739508 118.5095,88.846543 122.40647,92.272293 C 125.74458,95.206748 124.91523,99.484971 124.28804,101.99373 C 123.66085,104.50249 121.19969,108.46568 116.95218,109.62453 C 118.25045,111.25377 119.01101,111.39912 118.28031,113.4922 C 117.56624,115.53766 114.2968,116.24513 112.8941,114.24038 C 111.71468,112.55474 112.78956,111.00554 112.78956,111.00554 C 112.78956,111.00554 109.45088,112.04264 104.37023,111.48526 C 99.044757,110.90101 97.230422,110.06476 91.216169,105.05288 C 85.201916,100.041 80.96285,96.427759 77.447389,94.968247 C 78.763707,93.431274 80.070228,91.658626 80.802905,90.644435 L 111.92817,87.299426 z "
     id="path2840"
     sodipodi:nodetypes="csscsscssccc" />
  <g
     id="g2834"
     style="opacity:1">
    <path
       id="path2822"
       d="M 114.06174,91.081213 C 114.06174,91.081213 119.34428,93.954366 119.65787,96.662619 C 120.18581,101.22198 118.32495,105.12623 112.78957,106.59312 C 107.25418,108.06 101.10373,106.93493 93.22092,100.53029 C 91.826099,99.397022 81.506009,92.208994 80.190039,91.540572 C 80.871113,89.991677 84.651239,85.316783 84.599016,80.564757 C 84.532241,74.488592 83.387577,70.979546 82.385202,65.51221 C 81.382826,60.044875 81.608384,53.602354 83.658232,49.51888 C 84.867382,47.110149 88.466684,38.976338 100.49519,35.969212 C 112.52369,32.962086 117.85005,33.799708 120.28506,36.347902 C 122.72006,38.896096 123.29218,41.903222 123.29218,41.903222 L 115.27318,81.505541 C 115.27318,81.505541 114.3562,83.304346 113.73035,87.428245 C 113.31222,90.183368 115.27318,95.029123 115.27318,95.029123"
       style="opacity:1;color:black;fill:#ffd0d0;fill-opacity:1;fill-rule:nonzero;stroke:black;stroke-width:1.25;stroke-linecap:round;stroke-linejoin:round;marker:none;marker-start:none;marker-mid:none;marker-end:none;stroke-miterlimit:4;stroke-dasharray:none;stroke-dashoffset:0;stroke-opacity:1;visibility:visible;display:inline;overflow:visible"
       sodipodi:nodetypes="cssscsssssccsc" />
    <path
       sodipodi:nodetypes="csssccscsssc"
       id="path2818"
       d="M 122.72006,40.900847 C 122.72006,40.900847 124.32446,43.090005 124.8107,44.501365 C 125.29694,45.912724 122.81247,49.756104 122.81247,50.758479 C 122.81247,51.760855 125.82339,54.061163 126.82576,55.541489 C 127.82814,57.021816 129.54136,58.04644 129.8724,59.989971 C 129.05359,61.724439 125.99839,62.965431 125.22303,63.733738 C 124.67134,65.99878 127.30169,68.96736 125.29694,69.969736 C 123.29218,70.972111 123.29218,70.972111 123.29218,70.972111 C 123.29218,70.972111 124.88037,69.8226 125.29694,74.397394 C 125.61053,77.841268 126.36651,79.801401 122.8246,81.401009 C 119.28268,83.000617 114.30686,81.867443 107.25418,79.993491 C 101.28287,78.406866 100.23755,77.98874 100.23755,77.98874"
       style="opacity:1;color:black;fill:#ffd0d0;fill-opacity:1;fill-rule:nonzero;stroke:black;stroke-width:1.25296935;stroke-linecap:round;stroke-linejoin:round;marker:none;marker-start:none;marker-mid:none;marker-end:none;stroke-miterlimit:4;stroke-dasharray:none;stroke-dashoffset:0;stroke-opacity:1;visibility:visible;display:inline;overflow:visible" />
  </g>
  <g
     id="g2786">
    <path
       sodipodi:nodetypes="cccssc"
       id="path2768"
       d="M 101.86424,45.095008 C 101.86424,45.095008 99.082602,53.505777 96.976043,53.913706 C 95.009114,55.059882 97.569939,58.445232 103.01286,56.973563 C 106.11819,56.400842 106.92795,51.55368 108.15034,48.434766 C 110.88653,41.453423 112.88546,35.368846 112.2888,33.487278 C 111.69214,31.60571 102.27493,33.851227 101.86424,45.095008 z "
       style="opacity:1;color:black;fill:#fe0;fill-opacity:1;fill-rule:nonzero;stroke:black;stroke-width:0.875;stroke-linecap:round;stroke-linejoin:round;marker:none;marker-start:none;marker-mid:none;marker-end:none;stroke-miterlimit:4;stroke-dasharray:none;stroke-dashoffset:0;stroke-opacity:1;visibility:visible;display:inline;overflow:visible" />
    <path
       sodipodi:nodetypes="cssssc"
       id="path2766"
       d="M 93.518371,48.469733 C 93.518371,48.469733 94.532465,56.135756 92.602377,56.974837 C 90.204568,58.017253 92.249981,64.692784 97.802949,61.498136 C 99.769283,60.366895 99.921502,56.830617 101.22462,54.303392 C 103.61174,49.673908 105.27131,43.552024 105.40637,37.698256 C 105.4519,35.724876 93.510942,39.630179 93.518371,48.469733 z "
       style="opacity:1;color:black;fill:#ffee80;fill-opacity:1;fill-rule:nonzero;stroke:black;stroke-width:0.875;stroke-linecap:round;stroke-linejoin:round;marker:none;marker-start:none;marker-mid:none;marker-end:none;stroke-miterlimit:4;stroke-dasharray:none;stroke-dashoffset:0;stroke-opacity:1;visibility:visible;display:inline;overflow:visible" />
    <path
       sodipodi:nodetypes="cssssssssssssssc"
       id="path2760"
       d="M 82.710318,48.225919 C 82.710318,48.225919 82.228948,49.387614 81.384212,56.039962 C 80.539476,62.69231 80.384415,66.388059 76.04273,72.596918 C 72.021271,78.347835 69.112076,78.420443 64.305211,79.898742 C 53.233369,83.303768 50.457801,86.009704 49.682499,89.947069 C 48.907198,93.884433 50.046623,97.99088 54.078188,98.434369 C 58.109753,98.877859 59.606351,97.580182 60.536713,95.658393 C 61.467074,93.736603 61.156953,91.371324 58.210809,91.666984 C 56.153416,91.873454 56.970329,94.071966 55.884907,94.071966 C 54.799486,94.071966 54.003363,94.032263 53.548593,92.849623 C 52.787754,90.871037 53.894578,89.986809 56.039967,88.710384 C 57.921767,87.590786 62.674865,85.919697 69.319603,83.536335 C 75.422489,81.347326 81.421388,77.801942 82.790209,75.946246 C 85.799118,71.8671 84.122096,62.90455 84.881162,59.727974 C 85.656463,56.483452 89.067786,45.691864 86.586823,45.544034 C 84.10586,45.396204 83.79574,47.170163 82.710318,48.225919 z "
       style="opacity:1;color:black;fill:#fe0;fill-opacity:1;fill-rule:nonzero;stroke:black;stroke-width:1.24999988;stroke-linecap:round;stroke-linejoin:round;marker:none;marker-start:none;marker-mid:none;marker-end:none;stroke-miterlimit:4;stroke-dasharray:none;stroke-dashoffset:0;stroke-opacity:1;visibility:visible;display:inline;overflow:visible" />
  </g>
  <path
     style="opacity:1;color:black;fill:#ffee80;fill-opacity:1;fill-rule:nonzero;stroke:black;stroke-width:1.25296935;stroke-linecap:round;stroke-linejoin:round;marker:none;marker-start:none;marker-mid:none;marker-end:none;stroke-miterlimit:4;stroke-dasharray:none;stroke-dashoffset:0;stroke-opacity:1;visibility:visible;display:inline;overflow:visible"
     d="M 81.325563,49.414348 C 81.325563,49.414348 79.234931,51.923106 78.398679,57.149685 C 77.562426,62.376263 78.359016,67.342352 76.935237,69.48441 C 74.586171,73.018552 71.081469,74.083799 66.273016,75.756304 C 61.464564,77.428809 58.752635,81.663202 58.959889,86.443888 C 59.181302,91.551144 59.151444,95.990313 57.910491,97.289808 C 56.636861,98.623522 53.199141,99.97176 51.011407,101.8892 C 48.112362,104.43007 49.978773,104.76752 48.306268,107.90347 C 46.633763,111.03942 43.954002,110.04266 44.530449,112.34235 C 45.106897,114.64205 47.178707,114.36958 47.666397,113.8058 C 49.871831,111.25629 52.056723,111.29704 52.265786,108.78828 C 52.474849,106.27952 52.213201,104.68062 55.130652,103.97983 C 58.53419,103.16228 61.046438,103.77077 62.50988,97.289808 C 63.973322,90.808851 63.953959,87.772588 64.024049,85.005368 C 64.128581,80.982883 70.252015,79.390003 71.899786,79.103434 C 74.304012,78.685308 80.48931,76.943484 81.534626,73.45661 C 82.579941,69.969736 82.998068,66.766589 82.579941,62.79439 C 82.161815,58.82219 82.789005,55.059054 84.879636,51.923106 C 86.970268,48.787159 89.504389,47.283495 88.877199,45.401927 C 88.25001,43.520359 81.743689,49.414348 81.325563,49.414348 z "
     id="path1976"
     sodipodi:nodetypes="cssssssssssssssssssc" />
  <g
     id="g2808">
    <g
       id="g2778">
      <path
         style="opacity:1;color:black;fill:#ffee80;fill-opacity:1;fill-rule:nonzero;stroke:black;stroke-width:0.87499994;stroke-linecap:round;stroke-linejoin:round;marker:none;marker-start:none;marker-mid:none;marker-end:none;stroke-miterlimit:4;stroke-dasharray:none;stroke-dashoffset:0;stroke-opacity:1;visibility:visible;display:inline;overflow:visible"
         d="M 86.616015,78.470699 C 86.48359,82.396488 91.454474,83.491383 90.733845,91.540402 C 90.287635,96.524316 96.111886,95.515488 96.364175,94.316137 C 97.41957,89.298923 102.98052,95.807715 97.243551,99.107079 C 92.363384,101.9137 85.480176,97.79568 85.593022,93.21444 C 85.715666,88.235522 80.957685,87.075208 79.909542,84.350846 C 76.033251,74.275483 86.852625,71.456282 86.616015,78.470699 z "
         id="path2776"
         sodipodi:nodetypes="cssssss" />
      <path
         style="opacity:1;color:black;fill:#fe0;fill-opacity:1;fill-rule:nonzero;stroke:black;stroke-width:0.87499976;stroke-linecap:round;stroke-linejoin:round;marker:none;marker-start:none;marker-mid:none;marker-end:none;stroke-miterlimit:4;stroke-dasharray:none;stroke-dashoffset:0;stroke-opacity:1;visibility:visible;display:inline;overflow:visible"
         d="M 88.862651,74.965979 C 88.118314,78.822831 95.117981,79.76891 93.148272,87.606399 C 91.928637,92.459335 97.838984,92.373142 98.275612,91.227958 C 100.10215,86.437338 104.57753,93.735236 98.395433,96.097463 C 93.136603,98.106903 86.981559,92.963746 87.808995,88.456436 C 88.708258,83.557867 84.190082,81.668214 83.580594,78.813521 C 81.326556,68.256161 90.192597,68.074733 88.862651,74.965979 z "
         id="path2774"
         sodipodi:nodetypes="cssssss" />
    </g>
    <path
       sodipodi:nodetypes="csssssszs"
       id="path2770"
       d="M 88.397585,66.042322 C 88.081411,71.027428 89.370122,72.45698 88.862651,74.965979 C 88.083919,78.816123 95.117981,79.76891 93.148272,87.606399 C 91.928637,92.459335 97.838984,92.373142 98.275612,91.227958 C 100.10215,86.437338 104.57753,93.735236 98.395433,96.097463 C 93.136603,98.106903 86.981559,92.963746 87.808995,88.456436 C 88.708258,83.557867 85.230077,81.245412 83.580594,78.813521 C 81.422663,75.632008 82.751381,71.638374 83.671462,66.906957 C 84.595559,62.154886 88.643435,62.166021 88.397585,66.042322 z "
       style="opacity:1;color:black;fill:#fe0;fill-opacity:1;fill-rule:nonzero;stroke:black;stroke-width:0.87499976;stroke-linecap:round;stroke-linejoin:round;marker:none;marker-start:none;marker-mid:none;marker-end:none;stroke-miterlimit:4;stroke-dasharray:none;stroke-dashoffset:0;stroke-opacity:1;visibility:visible;display:inline;overflow:visible" />
  </g>
  <path
     style="opacity:1;color:black;fill:green;fill-opacity:1;fill-rule:nonzero;stroke:black;stroke-width:0.87707853;stroke-linecap:round;stroke-linejoin:round;marker:none;marker-start:none;marker-mid:none;marker-end:none;stroke-miterlimit:4;stroke-dasharray:none;stroke-dashoffset:0;stroke-opacity:1;visibility:visible;display:inline;overflow:visible"
     id="path2814"
     sodipodi:cx="117.54575"
     sodipodi:cy="51.191383"
     sodipodi:rx="2.0077493"
     sodipodi:ry="3.1464531"
     d="M 119.5535 51.191383 A 2.0077493 3.1464531 0 1 1  115.538,51.191383 A 2.0077493 3.1464531 0 1 1  119.5535 51.191383 z"
     sodipodi:type="arc"
     transform="translate(0.293016,-0.691291)" />
  <path
     style="opacity:1;color:black;fill:none;fill-opacity:1;fill-rule:nonzero;stroke:black;stroke-width:0.875;stroke-linecap:round;stroke-linejoin:round;marker:none;marker-start:none;marker-mid:none;marker-end:none;stroke-miterlimit:4;stroke-dasharray:none;stroke-dashoffset:0;stroke-opacity:1;visibility:visible;display:inline;overflow:visible"
     d="M 119.81619,45.466381 C 119.81619,45.466381 118.28031,43.907973 116.27556,43.907973 C 114.2708,43.907973 112.26605,46.501191 112.26605,46.501191"
     id="path2816" />
  <path
     style="opacity:1;color:black;fill:#ffd0d0;fill-opacity:1;fill-rule:nonzero;stroke:black;stroke-width:1.25;stroke-linecap:round;stroke-linejoin:round;marker:none;marker-start:none;marker-mid:none;marker-end:none;stroke-miterlimit:4;stroke-dasharray:none;stroke-dashoffset:0;stroke-opacity:1;visibility:visible;display:inline;overflow:visible"
     d="M 123.8835,70.676451 C 123.8835,70.676451 122.47948,71.60527 120.13758,70.82464 C 117.13046,69.822268 115.91902,70.738789 115.91902,70.738789"
     id="path2838"
     sodipodi:nodetypes="csc" />
  <path
     style="opacity:1;color:black;fill:green;fill-opacity:1;fill-rule:nonzero;stroke:black;stroke-width:1.24999905;stroke-linecap:round;stroke-linejoin:round;marker:none;marker-start:none;marker-mid:none;marker-end:none;stroke-miterlimit:4;stroke-dasharray:none;stroke-dashoffset:0;stroke-opacity:1;visibility:visible;display:inline;overflow:visible"
     d="M 133.125,96.5 C 133.125,96.5 133.18673,96.530739 133.1875,96.53125 C 133.18215,96.509899 133.17829,96.487981 133.125,96.5 z M 133.1875,96.5625 C 132.98636,97.212032 123.62728,104.53925 115.375,118.59375 C 109.36766,128.82488 107.64888,139.69347 107.64888,139.69346 L 112.01229,144.96523 L 140.3125,101.15625 C 137.1513,99.188363 133.28376,96.626628 133.1875,96.5625 z "
     transform="matrix(1.002375,0,0,1.002375,0,-0.551729)"
     id="path2846"
     sodipodi:nodetypes="csccscccc" />
  <path
     style="opacity:1;color:black;fill:#08f;fill-opacity:1;fill-rule:nonzero;stroke:black;stroke-width:0.87707853;stroke-linecap:round;stroke-linejoin:round;marker:none;marker-start:none;marker-mid:none;marker-end:none;stroke-miterlimit:4;stroke-dasharray:none;stroke-dashoffset:0;stroke-opacity:1;visibility:visible;display:inline;overflow:visible"
     d="M 74.179045,118.54429 C 74.179045,118.54429 77.731556,127.87044 79.350081,133.61405 C 80.968615,139.35763 82.251733,150.10398 82.251733,150.10398 C 82.251733,150.10398 85.335657,153.36383 84.947679,152.28532 C 84.559699,151.2068 84.943335,140.754 81.625872,129.0433 C 78.318565,117.36845 77.652781,117.07446 77.652781,117.07446 L 74.179045,118.54429 z "
     id="path3602"
     sodipodi:nodetypes="cscsscc" />
  <g
     id="g3610">
    <path
       sodipodi:nodetypes="cssccsscc"
       id="path3604"
       d="M 63.764259,112.55142 C 63.764259,112.55142 60.001122,119.65956 56.237985,122.58645 C 52.474849,125.51333 48.971517,128.02209 47.039207,131.15804 C 45.106897,134.29398 43.276071,137.42993 43.276071,137.42993 L 36.58605,135.75743 C 36.58605,135.75743 38.885745,129.90366 40.55825,127.81303 C 42.230755,125.7224 48.982794,120.28675 51.84766,116.94174 C 54.712526,113.59673 56.656112,109.62453 56.656112,109.62453 L 63.764259,112.55142 z "
       style="opacity:1;color:black;fill:#fe0;fill-opacity:1;fill-rule:nonzero;stroke:black;stroke-width:0.87707855;stroke-linecap:round;stroke-linejoin:round;marker:none;marker-start:none;marker-mid:none;marker-end:none;stroke-miterlimit:4;stroke-dasharray:none;stroke-dashoffset:0;stroke-opacity:1;visibility:visible;display:inline;overflow:visible" />
    <path
       sodipodi:nodetypes="ccccc"
       id="path3606"
       d="M 56.009083,112.81346 L 54.601243,120.46443 L 46.842292,121.8473 L 44.327856,130.48929 L 37.821388,133.36908"
       style="opacity:1;color:black;fill:none;fill-opacity:1;fill-rule:nonzero;stroke:black;stroke-width:0.87707853;stroke-linecap:round;stroke-linejoin:round;marker:none;marker-start:none;marker-mid:none;marker-end:none;stroke-miterlimit:4;stroke-dasharray:none;stroke-dashoffset:0;stroke-opacity:1;visibility:visible;display:inline;overflow:visible" />
    <path
       sodipodi:nodetypes="ccccc"
       id="path3608"
       d="M 58.050394,113.66205 L 56.36974,122.43184 L 48.748856,123.84178 L 46.33784,132.24467 L 37.700526,135.68602"
       style="opacity:1;color:black;fill:none;fill-opacity:1;fill-rule:nonzero;stroke:black;stroke-width:0.87707853;stroke-linecap:round;stroke-linejoin:round;marker:none;marker-start:none;marker-mid:none;marker-end:none;stroke-miterlimit:4;stroke-dasharray:none;stroke-dashoffset:0;stroke-opacity:1;visibility:visible;display:inline;overflow:visible" />
  </g>
  <path
     style="opacity:1;color:black;fill:#08f;fill-opacity:1;fill-rule:nonzero;stroke:black;stroke-width:0.87707855;stroke-linecap:round;stroke-linejoin:round;marker:none;marker-start:none;marker-mid:none;marker-end:none;stroke-miterlimit:4;stroke-dasharray:none;stroke-dashoffset:0;stroke-opacity:1;visibility:visible;display:inline;overflow:visible"
     d="M 103.69532,129.06741 C 103.69532,129.06741 104.53157,137.84806 104.11344,143.07464 C 103.69532,148.30122 101.28287,157.46571 101.28287,157.46571 C 101.28287,157.46571 103.06813,161.19456 103.06813,160.18353 C 103.06813,159.1725 105.99502,153.11013 106.83127,142.44745 C 107.66496,131.81741 108.08565,129.0674 108.08565,129.0674 L 103.69532,129.06741 z "
     id="path3600"
     sodipodi:nodetypes="cscsscc" />
  <path
     style="opacity:1;color:black;fill:green;fill-opacity:1;fill-rule:nonzero;stroke:black;stroke-width:1.25296935;stroke-linecap:round;stroke-linejoin:round;marker:none;marker-start:none;marker-mid:none;marker-end:none;stroke-miterlimit:4;stroke-dasharray:none;stroke-dashoffset:0;stroke-opacity:1;visibility:visible;display:inline;overflow:visible"
     d="M 77.771489,95.029123 C 77.771489,95.029123 68.491588,98.901141 65.85489,101.05295 C 60.529584,105.39892 53.458147,111.08797 53.458147,111.08797 C 53.458147,111.08797 80.704468,120.92004 90.213793,128.02209 C 99.723119,135.12414 111.84878,145.1479 111.84878,145.1479 L 117.07536,138.89337 C 117.07536,138.89337 109.3955,124.18255 100.9775,114.64205 C 88.642772,100.66255 76.51711,94.990114 77.771489,95.029123 z "
     id="path2844"
     sodipodi:nodetypes="cscsccsc" />
  <g
     id="g2803">
    <path
       sodipodi:nodetypes="cssssssssssssc"
       id="path2764"
       d="M 88.645485,56.748211 C 88.645485,56.748211 89.626987,64.740854 87.520428,65.148783 C 84.442822,65.744753 83.660107,65.987568 83.299802,68.539795 C 82.002649,77.728207 84.002918,78.534978 79.167327,80.207483 C 74.331737,81.879988 70.704404,85.495896 70.570105,93.260346 C 70.512247,96.605354 73.604401,98.279372 76.492046,98.77824 C 79.921943,99.370787 81.876551,95.659479 79.173997,94.387912 C 76.759818,93.252027 75.440586,94.59211 75.485501,91.824003 C 75.560947,87.174329 77.438339,86.700981 80.780861,85.185996 C 84.219927,83.627252 86.104077,81.837122 88.174329,73.17723 C 89.02373,69.624174 90.337644,72.991728 93.975379,69.463019 C 96.837829,66.686359 93.198569,58.839655 95.648457,55.938224 C 98.2081,52.906809 100.46273,42.273556 99.866071,40.391988 C 99.269412,38.51042 88.324461,40.486915 88.645485,56.748211 z "
       style="opacity:1;color:black;fill:#fe0;fill-opacity:1;fill-rule:nonzero;stroke:black;stroke-width:0.875;stroke-linecap:round;stroke-linejoin:round;marker:none;marker-start:none;marker-mid:none;marker-end:none;stroke-miterlimit:4;stroke-dasharray:none;stroke-dashoffset:0;stroke-opacity:1;visibility:visible;display:inline;overflow:visible" />
    <path
       sodipodi:nodetypes="csssssssssssssssc"
       id="path2762"
       d="M 90.490035,44.485128 C 90.490035,44.485128 86.257283,53.737913 85.32668,59.093249 C 84.396076,64.448584 86.332404,68.180068 84.950321,70.429762 C 83.344067,73.044353 85.312981,77.873332 80.427284,79.587039 C 75.541588,81.300746 67.542479,81.226919 66.850334,89.152815 C 66.158189,97.078712 67.127998,96.514213 64.257661,100.37005 C 61.387324,104.22589 61.940865,102.27993 59.007662,104.85554 C 53.630034,109.57758 56.837732,113.95244 59.939103,111.84884 C 61.697251,110.65632 61.50968,108.32162 64.170127,106.99768 C 67.356793,105.41187 67.554876,103.672 69.502156,100.37005 C 71.19949,97.491929 71.010795,93.724458 71.056176,90.888158 C 71.132404,86.12394 76.654289,87.74362 80.031446,86.191313 C 83.506148,84.594169 86.875229,83.048993 89.114763,75.949725 C 90.240037,72.382634 90.703047,69.094895 90.345708,65.024841 C 89.98837,60.954786 89.792429,56.796001 91.956134,53.582799 C 94.119842,50.369598 95.705386,44.916119 95.102545,42.988198 C 94.499703,41.060278 90.912494,44.485128 90.490035,44.485128 z "
       style="opacity:1;color:black;fill:#ffee80;fill-opacity:1;fill-rule:nonzero;stroke:black;stroke-width:0.87500006;stroke-linecap:round;stroke-linejoin:round;marker:none;marker-start:none;marker-mid:none;marker-end:none;stroke-miterlimit:4;stroke-dasharray:none;stroke-dashoffset:0;stroke-opacity:1;visibility:visible;display:inline;overflow:visible" />
    <path
       sodipodi:nodetypes="cssssssssssssssssssc"
       id="path2865"
       d="M 86.814014,46.664636 C 86.814014,46.664636 83.209927,53.386548 82.288868,58.613127 C 81.367808,63.839705 82.715616,66.54775 82.355311,69.099977 C 81.058158,78.288389 78.032208,79.53865 73.196617,81.211155 C 68.361027,82.88366 63.244449,83.119034 63.121095,89.533459 C 63.057467,92.842113 62.216304,96.616244 60.558044,98.75325 C 57.667462,102.47835 58.329479,100.62214 55.361888,103.1309 C 52.394297,105.63965 53.846256,105.56573 52.122867,108.70168 C 50.399478,111.83763 47.951639,111.21044 48.490771,113.51013 C 49.029904,115.80983 50.79918,115.303 51.602973,114.97358 C 54.112392,113.94513 56.034006,112.46482 56.283776,109.95606 C 56.533547,107.4473 56.814048,106.51364 59.44721,105.22153 C 62.601195,103.67385 63.468417,102.98518 65.157433,99.64023 C 66.831295,96.325285 66.785577,92.415024 66.991175,89.794985 C 67.262468,86.337758 71.911119,86.522013 75.253641,85.007028 C 78.692707,83.448284 83.089966,81.953814 85.160218,74.920052 C 86.191708,71.415524 86.732213,68.230031 86.378539,64.257832 C 86.024866,60.285632 85.830934,56.226836 87.972449,53.090888 C 90.113966,49.954941 91.68325,45.642508 91.086591,43.76094 C 90.489932,41.879372 87.23214,46.664636 86.814014,46.664636 z "
       style="opacity:1;color:black;fill:#fe0;fill-opacity:1;fill-rule:nonzero;stroke:black;stroke-width:0.875;stroke-linecap:round;stroke-linejoin:round;marker:none;marker-start:none;marker-mid:none;marker-end:none;stroke-miterlimit:4;stroke-dasharray:none;stroke-dashoffset:0;stroke-opacity:1;visibility:visible;display:inline;overflow:visible" />
  </g>
  <g
     id="g2782">
    <path
       sodipodi:nodetypes="ccsscscccc"
       id="path1978"
       d="M 131.86708,28.875933 C 123.09799,27.726608 113.79693,20.985442 110.80293,21.015997 C 108.00817,21.537463 102.89397,25.268125 98.863129,26.429164 C 95.014074,27.537838 89.050772,25.393131 86.0713,26.703246 C 78.280031,30.129174 74.191133,36.000409 66.617979,39.919213 C 70.701553,42.90592 73.683463,43.58468 76.319662,45.446621 C 78.955862,47.308562 80.905104,50.535899 80.905104,50.535899 C 80.905104,50.535899 93.898133,42.496583 104.33967,40.51851 C 110.69297,39.547622 116.54436,40.609986 123.27425,41.470642 C 124.33431,35.916703 128.22952,32.93877 131.86708,28.875933 z "
       style="opacity:1;fill:green;fill-opacity:1;fill-rule:evenodd;stroke:black;stroke-width:1.25296998;stroke-linecap:round;stroke-linejoin:round;stroke-miterlimit:4;stroke-dasharray:none;stroke-opacity:1" />
    <path
       sodipodi:nodetypes="ccsss"
       id="path2866"
       d="M 128.8859,32.547545 C 122.15187,32.088435 117.37381,26.981325 111.61957,25.988249 C 109.57751,26.342781 104.94681,30.241308 100.65065,31.02476 C 95.669194,31.936189 89.305473,29.943875 87.001032,31.095366 C 82.944104,33.122546 76.677817,39.815509 72.219936,43.291105"
       style="color:black;fill:none;fill-opacity:1;fill-rule:evenodd;stroke:black;stroke-width:0.87707907;stroke-linecap:round;stroke-linejoin:round;marker:none;marker-start:none;marker-mid:none;marker-end:none;stroke-miterlimit:4;stroke-dasharray:none;stroke-dashoffset:0;stroke-opacity:1;visibility:visible;display:inline;overflow:visible" />
  </g>
  <path
     id="path3652"
     d="M 45.72086,136.78125 C 42.651004,135.15301 30.419188,129.91788 27.286843,132.44276 C 20.700326,137.75193 20.481875,141.83985 16.505259,158.48278 C 12.528643,175.12569 16.991454,189.99172 18.252814,192.69135 C 19.474754,195.30661 23.976662,207.2507 28.5625,206.53125 C 26.373518,205.0135 25.69334,199.83494 25,197.71875 C 24.137606,195.08656 27.109896,181.46526 31.28125,166.03125 C 35.452604,150.59724 41.721199,142.24051 48.8125,141.40625 C 50.779654,141.17482 52.207719,141.47138 53.28125,142 C 53.200377,141.70159 53.09239,141.45145 52.96875,141.25 C 52.96875,141.25 51.500531,139.84677 45.72086,136.78125 z "
     style="opacity:1;color:black;fill:#08f;fill-opacity:1;fill-rule:nonzero;stroke:black;stroke-width:1.2500006;stroke-linecap:round;stroke-linejoin:round;marker:none;marker-start:none;marker-mid:none;marker-end:none;stroke-miterlimit:4;stroke-dasharray:none;stroke-dashoffset:0;stroke-opacity:1;visibility:visible;display:inline;overflow:visible"
     sodipodi:nodetypes="cssscsssccs"
     transform="matrix(1.002375,0,0,1.002375,0,-0.551729)" />
  <g
     id="g3637">
    <g
       id="g3624">
      <path
         style="opacity:1;color:black;fill:white;fill-opacity:1;fill-rule:nonzero;stroke:black;stroke-width:1.25296935;stroke-linecap:round;stroke-linejoin:round;marker:none;marker-start:none;marker-mid:none;marker-end:none;stroke-miterlimit:4;stroke-dasharray:none;stroke-dashoffset:0;stroke-opacity:1;visibility:visible;display:inline;overflow:visible"
         d="M 56.447048,146.21058 C 56.447048,146.21058 56.028922,140.35682 48.920775,141.19307 C 41.812629,142.02932 35.540734,150.39185 31.359471,165.86252 C 27.178209,181.33319 24.609195,194.90042 25.059387,197.64012 C 25.92383,202.90079 26.760082,208.06429 30.523219,206.8389 C 34.188714,205.6453 37.213239,204.33014 39.303871,200.98513 C 41.394502,197.64012 49.338902,184.09657 51.847659,177.15193 C 54.356417,170.20728 58.119554,149.97372 56.447048,146.21058 z "
         id="path3615"
         sodipodi:nodetypes="cssssssc" />
      <g
         id="g2928"
         transform="matrix(0.90638,0.202507,-0.19837,0.925284,36.47516,5.920214)"
         style="opacity:0.99541285">
        <g
           id="g2924">
          <path
             style="opacity:1;color:black;fill:#08f;fill-opacity:1;fill-rule:evenodd;stroke:black;stroke-width:0.9355914;stroke-linecap:round;stroke-linejoin:round;marker:none;marker-start:none;marker-mid:none;marker-end:none;stroke-miterlimit:4;stroke-dasharray:none;stroke-dashoffset:0;stroke-opacity:1;visibility:visible;display:inline;overflow:visible"
             d="M 52.036115,139.39979 C 51.812038,136.21562 46.852981,135.55664 44.443648,136.3665 C 39.826982,137.91832 31.006213,146.24249 31.287836,155.00274 C 34.688161,155.99928 42.816895,153.64315 42.816895,153.64315 C 56.720298,149.02164 52.287033,142.96536 52.036115,139.39979 z "
             id="path2903"
             sodipodi:nodetypes="csccs" />
          <path
             style="opacity:1;color:black;fill:#fe0;fill-opacity:1;fill-rule:evenodd;stroke:black;stroke-width:0.9355914;stroke-linecap:round;stroke-linejoin:round;marker:none;marker-start:none;marker-mid:none;marker-end:none;stroke-miterlimit:4;stroke-dasharray:none;stroke-dashoffset:0;stroke-opacity:1;visibility:visible;display:inline;overflow:visible"
             d="M 54.646131,143.26954 C 54.646131,143.26954 54.873289,143.92773 51.957762,140.1507 C 47.254636,139.17647 40.94045,148.63739 42.749427,153.81065 C 46.060371,155.15317 47.621593,154.13668 47.621593,154.13668 L 54.646131,143.26954 z "
             id="path2901"
             sodipodi:nodetypes="ccccc" />
        </g>
        <g
           style="opacity:1"
           transform="matrix(1,0,0,0.952221,-5.780459,2.244228)"
           id="g2997">
          <path
             sodipodi:nodetypes="csssssc"
             id="path2796"
             d="M 45.507179,183.90914 C 45.507179,183.90914 44.284991,182.72482 43.49581,181.50203 C 42.682745,180.24224 42.13154,177.10784 43.092435,176.51709 C 44.05333,175.92633 45.09945,176.62769 45.605545,177.92147 C 46.27078,179.62208 46.729386,180.23914 47.305589,180.73404 C 48.096826,181.41364 49.079549,183.62758 48.118654,184.13794 C 47.157759,184.64829 45.531629,183.98305 45.507179,183.90914 z "
             style="color:black;fill:#ffd0d0;fill-opacity:1;fill-rule:evenodd;stroke:black;stroke-width:1.36643457;stroke-linecap:round;stroke-linejoin:round;marker:none;marker-start:none;marker-mid:none;marker-end:none;stroke-miterlimit:4;stroke-dasharray:none;stroke-dashoffset:0;stroke-opacity:1;visibility:visible;display:inline;overflow:visible" />
          <path
             sodipodi:nodetypes="cscc"
             id="path2800"
             d="M 49.234299,179.78459 C 48.670163,178.39539 48.481199,175.42436 49.535327,175.02296 C 50.589457,174.62156 51.486601,175.50553 51.742809,176.87094 C 53.623407,179.82654 52.294039,184.7503 49.234299,179.78459 z "
             style="color:black;fill:#ffd0d0;fill-opacity:1;fill-rule:evenodd;stroke:black;stroke-width:1.36643457;stroke-linecap:round;stroke-linejoin:round;marker:none;marker-start:none;marker-mid:none;marker-end:none;stroke-miterlimit:4;stroke-dasharray:none;stroke-dashoffset:0;stroke-opacity:1;visibility:visible;display:inline;overflow:visible" />
          <path
             sodipodi:nodetypes="csssssc"
             id="path2798"
             d="M 47.204505,181.6357 C 47.204505,181.6357 46.455688,180.03324 45.908125,178.68483 C 45.343989,177.29563 45.155025,174.3246 46.209153,173.9232 C 47.263283,173.5218 48.160427,174.40577 48.416635,175.77118 C 48.753405,177.56595 49.089026,178.25765 49.562943,178.85123 C 50.213721,179.66634 50.766789,182.0246 49.727638,182.34701 C 48.688488,182.66941 47.214758,181.71287 47.204505,181.6357 z "
             style="color:black;fill:#ffd0d0;fill-opacity:1;fill-rule:evenodd;stroke:black;stroke-width:1.36643457;stroke-linecap:round;stroke-linejoin:round;marker:none;marker-start:none;marker-mid:none;marker-end:none;stroke-miterlimit:4;stroke-dasharray:none;stroke-dashoffset:0;stroke-opacity:1;visibility:visible;display:inline;overflow:visible" />
          <path
             style="opacity:1;color:black;fill:#ffd0d0;fill-opacity:1;fill-rule:evenodd;stroke:black;stroke-width:1.3696804;stroke-linecap:round;stroke-linejoin:round;marker:none;marker-start:none;marker-mid:none;marker-end:none;stroke-miterlimit:4;stroke-dasharray:none;stroke-dashoffset:0;stroke-opacity:1;visibility:visible;display:inline;overflow:visible"
             d="M 62.596477,153.14815 C 63.43442,154.24032 64.526596,155.86675 64.735659,159.42082 C 64.944722,162.9749 56.588259,182.7403 53.036535,184.32589 C 49.484811,185.91147 43.773831,187.96066 42.753765,187.37491 C 41.661194,186.74751 42.005857,183.82866 43.571731,183.43622 C 46.429644,182.71997 48.217495,182.4751 49.053747,181.93719 C 49.89,181.39927 51.539318,175.97788 51.539318,175.25672 C 51.539318,174.53556 50.373712,169.69957 50.840389,167.26256 C 51.12393,165.78188 51.925011,160.65913 53.423692,159.19569 C 52.335349,158.9888 51.957444,157.90326 51.957444,156.64888 C 51.957444,155.3945 52.400477,152.92162 54.244457,151.24911 C 56.088436,149.57661 57.396805,147.90762 59.521763,147.73404 C 61.021074,147.61157 62.389105,152.87787 62.596477,153.14815 z "
             id="path1905"
             sodipodi:nodetypes="cssssssscssss" />
          <path
             style="color:black;fill:none;fill-opacity:1;fill-rule:evenodd;stroke:black;stroke-width:0.9587763;stroke-linecap:round;stroke-linejoin:round;marker:none;marker-start:none;marker-mid:none;marker-end:none;stroke-miterlimit:4;stroke-dasharray:none;stroke-dashoffset:0;stroke-opacity:1;visibility:visible;display:inline;overflow:visible"
             d="M 56.544962,155.35545 C 56.171177,156.03426 53.668126,159.08674 53.201947,159.76556"
             id="path2794"
             sodipodi:nodetypes="cz" />
        </g>
      </g>
    </g>
  </g>
  <path
     style="opacity:1;color:black;fill:white;fill-opacity:1;fill-rule:nonzero;stroke:black;stroke-width:0.875;stroke-linecap:round;stroke-linejoin:round;marker:none;marker-start:none;marker-mid:none;marker-end:none;stroke-miterlimit:4;stroke-dasharray:none;stroke-dashoffset:0;stroke-opacity:1;visibility:visible;display:inline;overflow:visible"
     d="M 39.092644,199.27617 C 39.092644,199.27617 47.60959,210.70437 53.125901,214.31181 C 58.642212,217.91924 63.149655,220.32606 63.149655,220.32606 L 79.757589,195.86308 L 39.092644,199.27617 z "
     id="path3684" />
  <g
     id="g3753">
    <path
       sodipodi:nodetypes="cccscc"
       id="path3682"
       d="M 101.81379,162.42624 L 70.908072,209.20591 C 55.192007,208.16142 40.236545,200.10373 34.972986,196.83029 C 36.44126,192.82158 43.693427,177.04843 48.474069,171.36371 C 53.263038,165.6691 63.854883,156.87276 63.854883,156.87276 L 101.81379,162.42624 z "
       style="opacity:1;color:black;fill:#fe0;fill-opacity:1;fill-rule:nonzero;stroke:black;stroke-width:0.87500006;stroke-linecap:round;stroke-linejoin:round;marker:none;marker-start:none;marker-mid:none;marker-end:none;stroke-miterlimit:4;stroke-dasharray:none;stroke-dashoffset:0;stroke-opacity:1;visibility:visible;display:inline;overflow:visible" />
    <g
       id="g3742">
      <g
         id="g3730">
        <path
           sodipodi:nodetypes="cscsscc"
           id="path3660"
           d="M 66.486608,156.37285 C 66.486608,156.37285 48.416873,171.43968 45.01243,176.54296 C 41.607987,181.64624 40.558263,185.43261 40.558263,185.43261 C 40.558263,185.43261 49.829704,185.08775 54.019787,181.19953 C 58.209871,177.31131 61.719947,171.20203 64.86251,166.58477 C 68.005073,161.96751 73.720381,157.10189 73.720381,157.10189 L 66.486608,156.37285 z "
           style="opacity:1;color:black;fill:#fe0;fill-opacity:1;fill-rule:nonzero;stroke:black;stroke-width:0.875;stroke-linecap:round;stroke-linejoin:round;marker:none;marker-start:none;marker-mid:none;marker-end:none;stroke-miterlimit:4;stroke-dasharray:none;stroke-dashoffset:0;stroke-opacity:1;visibility:visible;display:inline;overflow:visible" />
        <path
           sodipodi:nodetypes="cscsscc"
           id="path3658"
           d="M 64.49598,156.87281 C 64.49598,156.87281 54.356417,165.02626 50.906875,169.103 C 47.571571,173.04473 42.857944,180.91507 42.857944,180.91507 C 42.857944,180.91507 50.593281,180.07881 53.938291,176.7338 C 57.283301,173.38879 59.965412,167.62722 62.928006,163.98095 C 65.645827,160.63594 70.166284,157.08187 70.166284,157.08187 L 64.49598,156.87281 z "
           style="opacity:1;color:black;fill:red;fill-opacity:1;fill-rule:nonzero;stroke:black;stroke-width:0.875;stroke-linecap:round;stroke-linejoin:round;marker:none;marker-start:none;marker-mid:none;marker-end:none;stroke-miterlimit:4;stroke-dasharray:none;stroke-dashoffset:0;stroke-opacity:1;visibility:visible;display:inline;overflow:visible" />
      </g>
      <g
         id="g3734">
        <path
           sodipodi:nodetypes="csssscc"
           id="path3664"
           d="M 74.318049,156.10669 C 74.318049,156.10669 66.938478,162.75292 63.283818,168.38623 C 60.286516,173.0063 58.88363,175.14893 58.540452,183.64969 C 58.244782,190.97355 67.119934,192.73668 70.208547,188.92601 C 73.297159,185.11533 72.926469,175.85493 75.356235,170.45888 C 78.788029,162.83752 82.426913,162.37365 83.05213,159.7675 C 79.391554,157.47495 75.14323,156.44788 74.318049,156.10669 z "
           style="opacity:1;color:black;fill:#fe0;fill-opacity:1;fill-rule:nonzero;stroke:black;stroke-width:0.87499946;stroke-linecap:round;stroke-linejoin:round;marker:none;marker-start:none;marker-mid:none;marker-end:none;stroke-miterlimit:4;stroke-dasharray:none;stroke-dashoffset:0;stroke-opacity:1;visibility:visible;display:inline;overflow:visible" />
        <path
           sodipodi:nodetypes="csssscc"
           id="path3662"
           d="M 74.550972,159.13821 C 74.550972,159.13821 67.380807,166.18953 65.154406,170.20728 C 63.328464,173.50237 62.091753,174.4341 61.88269,180.49694 C 61.70257,185.72041 67.109269,186.9779 68.990837,184.26008 C 70.872405,181.54225 70.646583,174.93763 72.126784,171.0891 C 74.217416,165.65345 78.294147,160.88097 79.234931,160.18353 C 77.353363,159.1725 75.053669,159.38156 74.550972,159.13821 z "
           style="opacity:1;color:black;fill:#08f;fill-opacity:1;fill-rule:nonzero;stroke:black;stroke-width:0.875;stroke-linecap:round;stroke-linejoin:round;marker:none;marker-start:none;marker-mid:none;marker-end:none;stroke-miterlimit:4;stroke-dasharray:none;stroke-dashoffset:0;stroke-opacity:1;visibility:visible;display:inline;overflow:visible" />
      </g>
      <g
         id="g3738">
        <path
           sodipodi:nodetypes="cssscc"
           id="path3678"
           d="M 82.517208,160.42685 C 73.702037,166.97472 70.353612,182.02796 72.185988,187.06478 C 74.018363,192.10161 77.220757,193.53193 81.486492,191.3461 C 86.604662,188.72347 86.825729,181.44354 87.687426,175.65118 C 88.549124,169.85884 91.569622,164.84582 91.569622,164.84582 L 82.517208,160.42685 z "
           style="opacity:1;color:black;fill:#fe0;fill-opacity:1;fill-rule:nonzero;stroke:black;stroke-width:0.87499976;stroke-linecap:round;stroke-linejoin:round;marker:none;marker-start:none;marker-mid:none;marker-end:none;stroke-miterlimit:4;stroke-dasharray:none;stroke-dashoffset:0;stroke-opacity:1;visibility:visible;display:inline;overflow:visible" />
        <path
           sodipodi:nodetypes="cssscc"
           id="path3676"
           d="M 83.416194,163.1447 C 77.980552,168.58034 73.421086,180.49694 74.550972,184.6782 C 75.680858,188.85947 79.054514,189.06853 82.071607,186.55978 C 85.088699,184.05102 84.13923,177.98818 84.670573,173.17973 C 85.201916,168.37128 88.224646,164.81721 88.224646,164.81721 L 83.416194,163.1447 z "
           style="opacity:1;color:black;fill:red;fill-opacity:1;fill-rule:nonzero;stroke:black;stroke-width:0.875;stroke-linecap:round;stroke-linejoin:round;marker:none;marker-start:none;marker-mid:none;marker-end:none;stroke-miterlimit:4;stroke-dasharray:none;stroke-dashoffset:0;stroke-opacity:1;visibility:visible;display:inline;overflow:visible" />
      </g>
    </g>
    <path
       sodipodi:nodetypes="csc"
       id="path3686"
       d="M 81.087882,193.68005 C 75.965835,193.47098 63.488282,191.91928 60.037997,191.15916 C 53.264695,189.66695 42.81284,187.22902 39.885956,185.76558"
       style="opacity:1;color:black;fill:none;fill-opacity:1;fill-rule:nonzero;stroke:black;stroke-width:0.87707855;stroke-linecap:round;stroke-linejoin:round;marker:none;marker-start:none;marker-mid:none;marker-end:none;stroke-miterlimit:4;stroke-dasharray:none;stroke-dashoffset:0;stroke-opacity:1;visibility:visible;display:inline;overflow:visible" />
    <path
       sodipodi:nodetypes="csc"
       id="path3688"
       d="M 75.822804,201.54107 C 70.720262,201.04797 59.761148,199.42112 56.304234,198.69174 C 49.937811,197.34847 40.055539,193.18422 37.214411,191.56055"
       style="opacity:1;color:black;fill:none;fill-opacity:1;fill-rule:nonzero;stroke:black;stroke-width:0.87707865;stroke-linecap:round;stroke-linejoin:round;marker:none;marker-start:none;marker-mid:none;marker-end:none;stroke-miterlimit:4;stroke-dasharray:none;stroke-dashoffset:0;stroke-opacity:1;visibility:visible;display:inline;overflow:visible" />
    <g
       id="g3721">
      <path
         style="opacity:1;color:black;fill:black;fill-opacity:1;fill-rule:nonzero;stroke:black;stroke-width:0.875;stroke-linecap:round;stroke-linejoin:round;marker:none;marker-start:none;marker-mid:none;marker-end:none;stroke-miterlimit:4;stroke-dasharray:none;stroke-dashoffset:0;stroke-opacity:1;visibility:visible;display:inline;overflow:visible"
         d="M 36.376987,194.29511 C 38.93801,194.6087 42.648882,194.71323 42.648882,194.71323 C 43.432868,195.96761 46.830144,198.8945 46.830144,198.8945 L 40.610515,199.15583 L 36.376987,194.29511 z "
         id="path3710"
         sodipodi:nodetypes="ccccc" />
      <path
         style="opacity:1;color:black;fill:black;fill-opacity:1;fill-rule:nonzero;stroke:black;stroke-width:0.87499952;stroke-linecap:round;stroke-linejoin:round;marker:none;marker-start:none;marker-mid:none;marker-end:none;stroke-miterlimit:4;stroke-dasharray:none;stroke-dashoffset:0;stroke-opacity:1;visibility:visible;display:inline;overflow:visible"
         d="M 48.008611,199.27689 C 50.939407,199.37342 55.14768,199.10311 55.14768,199.10311 C 56.171982,200.49068 60.335322,203.56238 60.335322,203.56238 L 53.329925,204.52719 L 48.008611,199.27689 z "
         id="path3712"
         sodipodi:nodetypes="ccccc" />
      <path
         style="opacity:1;color:black;fill:black;fill-opacity:1;fill-rule:nonzero;stroke:black;stroke-width:0.87499958;stroke-linecap:round;stroke-linejoin:round;marker:none;marker-start:none;marker-mid:none;marker-end:none;stroke-miterlimit:4;stroke-dasharray:none;stroke-dashoffset:0;stroke-opacity:1;visibility:visible;display:inline;overflow:visible"
         d="M 71.1875 201.78125 C 71.1875 201.78125 65.378145 203.10492 61.25 203.6875 L 70 208.59375 L 71.6875 208.09375 L 74.5625 203.625 C 73.172346 202.97249 71.842027 202.29179 71.1875 201.78125 z "
         transform="matrix(1.002375,0,0,1.002375,0,-0.551729)"
         id="path3716" />
    </g>
  </g>
  <path
     style="opacity:1;color:black;fill:black;fill-opacity:1;fill-rule:evenodd;stroke:black;stroke-width:1.25;stroke-linecap:round;stroke-linejoin:round;marker:none;marker-start:none;marker-mid:none;marker-end:none;stroke-miterlimit:4;stroke-dasharray:none;stroke-dashoffset:0;stroke-opacity:1;visibility:visible;display:inline;overflow:visible"
     d="M 67.6875 145.96875 C 67.587744 145.97051 67.541141 145.97879 67.53125 146 C 67.531254 145.99999 68.27664 150.0205 66.6875 152.59375 C 64.991305 155.34035 63.46875 157.65625 63.46875 157.65625 C 63.468749 157.65625 73.385983 157.51809 80.84375 161.9375 C 85.455306 164.67027 91.914562 167.66434 96.375 169.65625 L 102.96875 159.40625 C 102.25249 159.05359 93.569334 154.76604 88.40625 152.15625 C 80.37879 148.0986 69.183844 145.94232 67.6875 145.96875 z "
     transform="matrix(1.002375,0,0,1.002375,0,-0.551729)"
     id="path2899" />
  <path
     style="opacity:1;color:black;fill:none;fill-opacity:1;fill-rule:nonzero;stroke:black;stroke-width:0.87707855;stroke-linecap:round;stroke-linejoin:round;marker:none;marker-start:none;marker-mid:none;marker-end:none;stroke-miterlimit:4;stroke-dasharray:none;stroke-dashoffset:0;stroke-opacity:1;visibility:visible;display:inline;overflow:visible"
     d="M 65.154406,120.08851 C 65.154406,120.08851 66.757938,127.23504 66.227825,130.11226 C 65.154406,135.93832 61.053776,138.59926 61.053776,138.59926 C 61.053776,138.59926 61.965023,133.12955 61.053776,130.9121 C 60.142529,128.69465 57.949347,125.88588 57.949347,125.88588"
     id="path3654"
     sodipodi:nodetypes="cscsc" />
  <path
     style="fill:none;fill-opacity:0.75;fill-rule:evenodd;stroke:black;stroke-width:1px;stroke-linecap:butt;stroke-linejoin:miter;stroke-opacity:1"
     d="M 84.252446,163.1447 C 83.973696,163.1447 83.973696,163.1447 84.252446,163.1447 z "
     id="path3666" />
  <path
     style="fill:none;fill-opacity:0.75;fill-rule:evenodd;stroke:black;stroke-width:1px;stroke-linecap:butt;stroke-linejoin:miter;stroke-opacity:1"
     d="M 84.252446,161.68126 C 84.531197,161.68126 84.531197,161.68126 84.252446,161.68126 z "
     id="path3670" />
  <path
     style="opacity:1;color:black;fill:none;fill-opacity:1;fill-rule:nonzero;stroke:black;stroke-width:0.8750003;stroke-linecap:round;stroke-linejoin:round;marker:none;marker-start:none;marker-mid:none;marker-end:none;stroke-miterlimit:4;stroke-dasharray:none;stroke-dashoffset:0;stroke-opacity:1;visibility:visible;display:inline;overflow:visible"
     d="M 37.614452,182.97617 C 37.614452,182.97617 38.649931,185.43185 37.278141,185.91556 C 35.906348,186.39928 36.065032,188.81492 36.065032,188.81492 C 36.065032,188.81492 32.650775,186.76076 33.724996,185.54444 C 34.722964,184.41447 34.5173,182.55193 34.5173,182.55193"
     id="path3690"
     sodipodi:nodetypes="cscsc" />
  <path
     style="opacity:1;color:black;fill:none;fill-opacity:1;fill-rule:nonzero;stroke:black;stroke-width:0.8749997;stroke-linecap:round;stroke-linejoin:round;marker:none;marker-start:none;marker-mid:none;marker-end:none;stroke-miterlimit:4;stroke-dasharray:none;stroke-dashoffset:0;stroke-opacity:1;visibility:visible;display:inline;overflow:visible"
     d="M 33.970094,197.70892 C 33.970094,197.70892 35.389222,199.96472 34.113762,200.66399 C 32.838299,201.36327 33.385704,203.72141 33.385704,203.72141 C 33.385704,203.72141 29.684098,202.24669 30.547386,200.87261 C 31.349395,199.59607 30.84511,197.79134 30.84511,197.79134"
     id="path3692"
     sodipodi:nodetypes="cscsc" />
  <path
     style="opacity:1;color:black;fill:none;fill-opacity:1;fill-rule:nonzero;stroke:black;stroke-width:0.875;stroke-linecap:round;stroke-linejoin:round;marker:none;marker-start:none;marker-mid:none;marker-end:none;stroke-miterlimit:4;stroke-dasharray:none;stroke-dashoffset:0;stroke-opacity:1;visibility:visible;display:inline;overflow:visible"
     d="M 42.065223,160.83304 C 42.065223,160.83304 42.513336,163.46017 41.06738,163.61826 C 39.621419,163.77636 39.224979,166.16452 39.224979,166.16452 C 39.224979,166.16452 36.369208,163.3858 37.692524,162.44655 C 38.921906,161.57397 39.146457,159.71361 39.146457,159.71361"
     id="path3694"
     sodipodi:nodetypes="cscsc" />
  <path
     style="opacity:1;color:black;fill:none;fill-opacity:1;fill-rule:nonzero;stroke:black;stroke-width:0.87499988;stroke-linecap:round;stroke-linejoin:round;marker:none;marker-start:none;marker-mid:none;marker-end:none;stroke-miterlimit:4;stroke-dasharray:none;stroke-dashoffset:0;stroke-opacity:1;visibility:visible;display:inline;overflow:visible"
     d="M 28.361632,189.78035 C 28.361632,189.78035 27.069362,192.11115 28.381525,192.73885 C 29.69369,193.36657 29.277467,195.75136 29.277467,195.75136 C 29.277467,195.75136 32.8919,194.07428 31.95398,192.75002 C 31.082637,191.51976 31.486395,189.68992 31.486395,189.68992"
     id="path3696"
     sodipodi:nodetypes="cscsc" />
  <g
     id="g3706">
    <path
       transform="matrix(1.002375,0,0,1.002375,0,-0.551729)"
       sodipodi:nodetypes="cssscsssccc"
       style="opacity:1;color:black;fill:black;fill-opacity:1;fill-rule:nonzero;stroke:black;stroke-width:0.87500048;stroke-linecap:round;stroke-linejoin:round;marker:none;marker-start:none;marker-mid:none;marker-end:none;stroke-miterlimit:4;stroke-dasharray:none;stroke-dashoffset:0;stroke-opacity:1;visibility:visible;display:inline;overflow:visible"
       d="M 43.84375,136.78125 C 42.918853,136.76929 41.928301,136.84314 40.84375,137.03125 C 32.167345,138.53611 25.070366,147.88832 21.09375,164.53125 C 17.117134,181.17416 16.991454,189.99172 18.252814,192.69135 C 19.474754,195.30661 23.976662,207.2507 28.5625,206.53125 C 26.373518,205.0135 25.539506,201.40224 25,197.71875 C 24.375794,193.45698 27.109896,181.46526 31.28125,166.03125 C 35.452604,150.59724 41.721199,142.24051 48.8125,141.40625 C 50.779654,141.17482 52.207719,141.47138 53.28125,142 C 53.200377,141.70159 53.09239,141.45145 52.96875,141.25 C 52.96875,141.25 50.318028,136.86494 43.84375,136.78125 z "
       id="path3617" />
    <path
       sodipodi:nodetypes="ccccccccccccccccccccccc"
       d="M 20.457562,196.14101 L 24.167527,202.21147 C 22.495022,195.73051 22.271625,189.36437 22.271625,189.36437 L 26.070837,186.1251 L 24.017005,179.14742 L 28.835557,174.26852 L 26.55416,164.95566 C 28.32812,162.73821 32.88749,160.60147 32.88749,160.60147 L 31.563755,150.64399 C 31.563755,150.64399 33.961785,148.15881 39.874984,146.68051 L 40.089282,140.8489 C 40.089282,140.8489 46.706109,140.19982 52.027988,140.64331 C 52.959652,140.72174 48.960072,138.12693 48.960072,138.12693 C 44.525173,137.53561 37.424633,137.91439 37.424633,137.91439 L 36.792209,144.58225 C 32.65297,145.46923 28.271918,148.54573 28.271918,148.54573 L 29.152163,158.50321 C 29.152163,158.50321 25.234839,160.19646 22.42607,162.8574 L 24.498404,171.9612 L 19.679852,176.84011 L 21.733683,183.81778 L 17.934473,187.05705 C 17.934473,187.05705 18.575994,192.58694 20.457562,196.14101 z "
       style="color:black;fill:#fe0;fill-opacity:1;fill-rule:nonzero;stroke:black;stroke-width:0.875;stroke-linecap:round;stroke-linejoin:round;marker:none;marker-start:none;marker-mid:none;marker-end:none;stroke-miterlimit:4;stroke-dashoffset:0;stroke-opacity:1;visibility:visible;display:inline;overflow:visible"
       id="path3698" />
  </g>
</svg>
