<?xml version="1.0" encoding="UTF-8" standalone="no"?>
<!-- Created with Sodipodi ("http://www.sodipodi.com/") -->
<svg
   xmlns:dc="http://purl.org/dc/elements/1.1/"
   xmlns:cc="http://web.resource.org/cc/"
   xmlns:rdf="http://www.w3.org/1999/02/22-rdf-syntax-ns#"
   xmlns:svg="http://www.w3.org/2000/svg"
   xmlns="http://www.w3.org/2000/svg"
   xmlns:xlink="http://www.w3.org/1999/xlink"
   xmlns:sodipodi="http://sodipodi.sourceforge.net/DTD/sodipodi-0.dtd"
   xmlns:inkscape="http://www.inkscape.org/namespaces/inkscape"
   viewBox="0 0 206 315"
   id="svg548"
   sodipodi:version="0.32"
   width="205.51181"
   height="315.35434"
   sodipodi:docname="jack-of-clubs.svg"
   sodipodi:docbase="/home/mikelima/kde/src/playground/artwork/carddecks/tigullio"
   inkscape:version="0.45.1"
   version="1.0"
   inkscape:output_extension="org.inkscape.output.svg.inkscape">
  <metadata
     id="metadata52">
    <rdf:RDF>
      <cc:Work
         rdf:about="">
        <dc:format>image/svg+xml</dc:format>
        <dc:type
           rdf:resource="http://purl.org/dc/dcmitype/StillImage" />
      </cc:Work>
    </rdf:RDF>
  </metadata>
  <defs
     id="defs550" />
  <sodipodi:namedview
     id="base"
     showgrid="false"
     showguides="false"
     inkscape:zoom="2.8284271"
     inkscape:cx="103.22106"
     inkscape:cy="157.27736"
     inkscape:window-width="951"
     inkscape:window-height="747"
     inkscape:window-x="319"
     inkscape:window-y="26"
     inkscape:current-layer="svg548"
     inkscape:document-units="mm"
     width="58.000001mm"
     height="89.000005mm"
     units="mm"
     bordercolor="black"
     borderopacity="0.47058824" />
  <path
     style="fill:none;fill-opacity:1;fill-rule:evenodd;stroke:black;stroke-width:0.875;stroke-linecap:round;stroke-linejoin:miter;stroke-dasharray:none;stroke-opacity:1"
     d=""
     id="path734"
     sodipodi:nodetypes="c" />
  <g
     id="g19201">
    <path
       id="path7326"
       d="M 154.49112,79.868193 C 154.49112,79.868193 134.8195,72.851565 128.42936,72.726268 C 122.03922,72.600971 95.726859,77.612848 87.958449,82.248835 C 80.190039,86.884821 96.478641,140.8878 96.478641,140.8878 L 113.39373,143.26844 L 154.36582,80.369381"
       style="opacity:1;color:black;fill:red;fill-opacity:1;fill-rule:nonzero;stroke:black;stroke-width:0.875;stroke-linecap:round;stroke-linejoin:round;marker:none;marker-start:none;marker-mid:none;marker-end:none;stroke-miterlimit:4;stroke-dasharray:none;stroke-dashoffset:0;stroke-opacity:1;visibility:visible;display:inline;overflow:visible" />
    <g
       style="fill:#fe0"
       id="g6408">
      <path
         style="font-size:12px;opacity:0.98999999;fill:#fe0;fill-rule:evenodd;stroke:black;stroke-width:0.97554855pt"
         d="M 107.56547,104.90868 C 108.68984,101.34575 108.94138,99.708817 105.21373,99.797137 C 102.06506,99.877417 100.24027,101.87066 102.94982,104.78625 C 99.577793,105.47675 98.086938,107.24115 97.412535,110.65253 C 94.557707,109.56759 92.782787,111.13529 93.200219,112.77022 C 93.856195,115.66171 95.645212,115.8504 97.41145,115.22613 C 97.41145,118.32939 99.278538,120.16204 103.3228,120.78329 C 103.3228,121.90537 101.75713,125.53855 105.16819,125.52952 C 108.32337,125.5215 108.19651,123.82935 107.71293,121.18476 C 110.68378,121.12153 113.90509,119.76761 113.47681,114.84575 C 114.0081,114.47641 117.42999,116.20067 117.36927,112.00946 C 117.31398,108.00794 113.54946,110.05336 113.12009,109.75528 C 113.12009,108.30401 111.38855,104.79828 107.56547,104.90868 z "
         id="path595"
         sodipodi:nodetypes="csccsccsccscc" />
      <path
         style="font-size:12px;fill:black;fill-rule:evenodd;stroke-width:1pt"
         d="M 104.96756,111.90904 C 104.44061,110.39053 103.15361,109.12795 103.13951,108.22868 C 103.11891,106.84466 104.30508,106.31574 104.88841,106.31574 C 106.09518,106.31574 107.49603,106.45023 107.43206,107.93462 C 107.29653,109.2544 105.99868,110.42164 105.92171,111.83477 C 107.45917,111.83477 109.26119,110.80403 109.89765,110.80403 C 110.15787,110.80403 111.80484,111.14928 111.80484,112.93878 C 111.80484,114.21741 110.3281,114.31578 109.81633,114.48438 C 109.22433,114.6801 107.2293,113.14352 105.92171,113.15958 C 105.84255,114.77845 106.30877,116.66028 107.59253,118.97267 C 106.23071,118.4578 105.72437,118.30224 104.01234,118.82715 C 104.96756,116.54486 105.2061,114.4603 105.2061,113.15958 C 103.78789,113.18165 101.936,114.50747 101.31037,114.41112 C 100.48744,114.38201 99.402093,114.14616 99.402093,112.93878 C 99.402093,111.02885 100.95149,110.73076 101.46976,110.80503 C 102.03682,110.88533 103.56237,112.07966 104.96756,111.90904 z "
         id="path621"
         sodipodi:nodetypes="cscscsssccccsssc" />
    </g>
    <g
       id="g6422">
      <path
         style="opacity:1;color:black;fill:red;fill-opacity:1;fill-rule:nonzero;stroke:black;stroke-width:1.25;stroke-linecap:round;stroke-linejoin:round;marker:none;marker-start:none;marker-mid:none;marker-end:none;stroke-miterlimit:4;stroke-dasharray:none;stroke-dashoffset:0;stroke-opacity:1;visibility:visible;display:inline;overflow:visible"
         d="M 72.296223,131.26723 C 70.524257,124.53376 67.511914,119.92665 62.196016,119.57225 C 56.880117,119.21786 60.424049,113.19317 61.664426,107.87727 C 62.535477,104.1442 60.95564,98.131457 66.271538,98.485857 C 71.587437,98.840247 79.738482,103.62456 85.408774,111.7756 C 91.079066,119.92665 88.952706,135.69714 89.307099,137.8235 C 89.661492,139.94986 86.294757,136.76033 84.168397,142.07623 C 77.253426,150.25576 76.000105,156.8665 72.296223,131.26723 z "
         id="path6420"
         sodipodi:nodetypes="cssssscc" />
      <path
         style="opacity:1;color:black;fill:#fe0;fill-opacity:1;fill-rule:nonzero;stroke:black;stroke-width:1.25;stroke-linecap:round;stroke-linejoin:round;marker:none;marker-start:none;marker-mid:none;marker-end:none;stroke-miterlimit:4;stroke-dasharray:none;stroke-dashoffset:0;stroke-opacity:1;visibility:visible;display:inline;overflow:visible"
         d="M 65.562751,147.21493 C 63.790785,140.48146 61.310032,129.49527 55.994134,129.14087 C 50.678235,128.78648 55.63974,127.7233 57.7661,124.53376 C 59.892459,121.34422 56.171331,116.9143 61.487229,117.2687 C 66.803128,117.62309 73.00501,119.57226 78.675302,127.7233 C 84.345594,135.87435 85.408774,141.72183 85.763167,143.84819 C 86.11756,145.97455 78.320909,151.11326 76.194549,156.42916 C 71.405938,160.00158 67.671863,155.62613 65.562751,147.21493 z "
         id="path6418"
         sodipodi:nodetypes="cssssscc" />
    </g>
    <path
       style="opacity:1;color:black;fill:#fe0;fill-opacity:1;fill-rule:evenodd;stroke:black;stroke-width:1.25296935;stroke-linecap:round;stroke-linejoin:round;marker:none;marker-start:none;marker-mid:none;marker-end:none;stroke-miterlimit:4;stroke-dasharray:none;stroke-dashoffset:0;stroke-opacity:1;visibility:visible;display:inline;overflow:visible"
       d="M 110.00263,39.624294 C 110.00263,39.624294 114.98945,38.874343 117.84114,44.160021 C 120.6928,49.445701 119.74236,53.7605 121.0758,58.316508 C 122.23995,62.294076 123.65595,66.815819 127.53418,67.474406 C 138.40202,69.319944 143.16859,68.828672 142.99554,72.443373 C 142.63292,80.018091 151.0074,81.639378 153.28882,75.605223 C 155.74778,69.101467 145.60094,71.243491 143.92387,66.904153 C 142.6754,63.673777 140.32167,62.241235 137.35949,62.115277 C 133.91808,61.968941 135.68731,59.429226 133.1918,55.965114 C 130.60635,52.376159 127.51184,52.066288 126.49761,49.779303 C 125.48337,47.492318 126.67529,42.840157 122.81096,39.696048 C 119.85011,37.287035 119.86457,41.332273 117.52245,40.573682 C 114.31942,39.536248 110.59317,35.244876 109.7345,37.242191 C 108.87583,39.239508 110.56727,39.685381 110.00263,39.624294 z "
       id="path2942"
       sodipodi:nodetypes="cssssssssssssc" />
    <path
       sodipodi:nodetypes="cccscccc"
       id="path7315"
       d="M 93.028229,76.690678 C 93.028229,76.690678 99.428805,81.129497 104.39031,80.42071 C 112.0962,78.823603 116.69034,77.001998 121.91127,69.071223 C 121.91127,69.071223 131.6571,78.817037 125.27802,86.259295 C 118.89894,93.701553 111.98826,92.815571 104.7232,97.599879 C 101.10468,95.061561 96.517209,92.584398 93.028229,90.512015 C 83.459611,84.310133 90.370279,81.120593 90.370279,81.120593 L 93.028229,76.690678 z "
       style="opacity:1;color:black;fill:#fe0;fill-opacity:1;fill-rule:nonzero;stroke:black;stroke-width:0.875;stroke-linecap:round;stroke-linejoin:round;marker:none;marker-start:none;marker-mid:none;marker-end:none;stroke-miterlimit:4;stroke-dasharray:none;stroke-dashoffset:0;stroke-opacity:1;visibility:visible;display:inline;overflow:visible" />
    <path
       inkscape:transform-center-x="-3.5355339"
       sodipodi:nodetypes="cccscccc"
       id="path7317"
       d="M 91.158753,79.020763 C 91.158753,79.020763 99.776127,84.60814 104.22546,84.580673 C 111.16507,84.228065 118.58854,80.420951 122.97382,74.056748 C 122.97382,74.056748 127.65374,82.695591 121.54892,86.809912 C 115.44408,90.924231 110.42018,91.918899 104.39346,95.184994 C 101.32824,92.233645 95.626664,89.416597 91.763125,87.12149 C 88.411905,85.459582 90.486045,82.451076 90.486045,82.451076 L 91.158753,79.020763 z "
       style="opacity:1;color:black;fill:#fe0;fill-opacity:1;fill-rule:nonzero;stroke:black;stroke-width:0.8750003;stroke-linecap:round;stroke-linejoin:round;marker:none;marker-start:none;marker-mid:none;marker-end:none;stroke-miterlimit:4;stroke-dasharray:none;stroke-dashoffset:0;stroke-opacity:1;visibility:visible;display:inline;overflow:visible" />
    <path
       id="path7319"
       transform="matrix(1.002375,0,0,1.002375,0,-0.551729)"
       d="M 122.4375 68.9375 C 124.67357 100.55792 110.62722 125.78939 108 143.78125 C 109.00353 144.27998 110.54437 144.51526 112.25 144.59375 L 129.1875 118.625 C 134.19013 106.16773 141.16793 91.189512 149.1875 77.96875 C 140.10761 72.150252 132.62785 72.491817 122.4375 68.9375 z "
       style="opacity:1;color:black;fill:green;fill-opacity:1;fill-rule:nonzero;stroke:black;stroke-width:1.24999976;stroke-linecap:round;stroke-linejoin:round;marker:none;marker-start:none;marker-mid:none;marker-end:none;stroke-miterlimit:4;stroke-dasharray:none;stroke-dashoffset:0;stroke-opacity:1;visibility:visible;display:inline;overflow:visible" />
    <path
       style="opacity:1;color:black;fill:green;fill-opacity:1;fill-rule:nonzero;stroke:black;stroke-width:1.25;stroke-linecap:round;stroke-linejoin:round;marker:none;marker-start:none;marker-mid:none;marker-end:none;stroke-miterlimit:4;stroke-dasharray:none;stroke-dashoffset:0;stroke-opacity:1;visibility:visible;display:inline;overflow:visible"
       d="M 88.756091,137.88818 C 88.918794,132.19847 83.321374,112.16432 63.869977,99.333899 C 66.922548,94.122947 71.631482,90.92587 75.628333,87.20801 C 78.435108,84.59715 87.644624,78.175121 92.211503,76.475414 C 86.499036,100.51696 97.911573,123.44521 98.543147,137.49956 C 95.486522,138.32933 91.451456,138.99905 88.756091,137.88818 z "
       id="path6426"
       sodipodi:nodetypes="ccsccc" />
    <path
       style="opacity:1;color:black;fill:#ffee80;fill-opacity:1;fill-rule:evenodd;stroke:black;stroke-width:1.25296915;stroke-linecap:round;stroke-linejoin:round;marker:none;marker-start:none;marker-mid:none;marker-end:none;stroke-miterlimit:4;stroke-dasharray:none;stroke-dashoffset:0;stroke-opacity:1;visibility:visible;display:inline;overflow:visible"
       d="M 92.500644,38.694725 C 91.460889,38.366971 87.035944,37.074129 85.629499,39.774063 C 84.205435,42.656037 85.589177,48.150111 85.945046,49.57015 C 84.084144,51.039376 79.89996,52.209994 78.568285,54.938775 C 77.902448,56.303165 81.313458,65.807504 78.524377,70.089394 C 77.427476,71.773393 73.774112,72.681915 72.491755,75.16504 C 71.209398,77.648166 73.551015,81.956489 72.164977,83.172869 C 69.762509,85.281262 67.169201,85.0938 66.464606,85.605446 C 63.326838,87.88396 66.209088,92.844214 63.350914,94.944271 C 60.110836,97.324932 58.28828,97.371742 58.564703,93.643072 C 58.779277,90.74869 54.370801,92.731382 54.503898,96.094142 C 54.657225,99.968062 57.054861,103.24967 61.412737,100.833 C 71.784865,95.081118 66.514708,89.514616 68.938676,88.786918 C 71.200107,88.108015 74.349097,87.186954 75.442068,85.463362 C 76.837039,83.263522 74.390647,76.116426 76.552974,75.837165 C 79.724185,75.427607 83.903851,73.779602 84.843175,72.183259 C 86.721824,68.990575 79.791824,63.187259 82.811989,60.098533 C 85.0901,57.768707 95.802989,39.735696 92.500644,38.694725 z "
       id="path3009"
       sodipodi:nodetypes="cccsssssssssssssss" />
    <path
       style="opacity:1;color:black;fill:#fe0;fill-opacity:1;fill-rule:evenodd;stroke:black;stroke-width:0.87707835;stroke-linecap:round;stroke-linejoin:round;marker:none;marker-start:none;marker-mid:none;marker-end:none;stroke-miterlimit:4;stroke-dasharray:none;stroke-dashoffset:0;stroke-opacity:1;visibility:visible;display:inline;overflow:visible"
       d="M 93.547914,57.825147 C 92.583767,59.192725 87.007201,71.348001 85.474983,72.972377 C 83.942764,74.596754 79.777732,72.773641 79.277192,74.456377 C 78.409589,77.373124 79.41277,79.695737 79.24234,80.545852 C 78.483365,84.33167 73.626621,81.204871 72.915926,84.654573 C 71.932639,91.347929 68.633438,89.932929 68.918398,87.215882 C 70.216957,74.834323 76.147616,80.681598 75.920926,77.808346 C 75.709437,75.127755 75.395812,71.396305 76.392432,70.031358 C 77.664432,68.289264 81.956641,69.696 81.976216,67.091762 C 82.004269,63.359737 81.296541,59.651806 82.243653,58.473023 C 85.809156,54.8116 94.697331,53.415877 93.547914,57.825147 z "
       id="path3383"
       sodipodi:nodetypes="cssscsssscc" />
    <path
       style="opacity:1;color:black;fill:#ffee80;fill-opacity:1;fill-rule:evenodd;stroke:black;stroke-width:0.87707847;stroke-linecap:round;stroke-linejoin:round;marker:none;marker-start:none;marker-mid:none;marker-end:none;stroke-miterlimit:4;stroke-dasharray:none;stroke-dashoffset:0;stroke-opacity:1;visibility:visible;display:inline;overflow:visible"
       d="M 100.33474,64.058068 C 99.028107,65.103331 87.233173,71.40638 85.704651,73.034236 C 84.176129,74.662092 86.248335,78.708967 84.59903,79.310579 C 81.740231,80.353372 79.361085,79.49281 78.522862,79.714452 C 74.790006,80.701492 77.230845,85.89138 73.830559,86.809856 C 72.175195,87.156647 72.019134,86.973815 71.564632,85.686105 C 70.819275,83.574332 68.094289,85.371254 68.630394,87.441646 C 68.869431,88.364785 69.32755,90.625892 71.693447,90.77808 C 81.211275,91.39032 78.574938,82.811714 81.456648,82.863838 C 84.145129,82.912468 87.888728,82.999351 89.19076,81.921833 C 90.852555,80.546583 89.188253,76.347528 91.786517,76.170145 C 95.509981,75.915944 99.253987,76.397632 100.37321,75.380815 C 103.81179,71.599946 104.66623,62.64352 100.33474,64.058068 z "
       id="path3385"
       sodipodi:nodetypes="cssscsssssscc" />
    <path
       style="opacity:1;color:black;fill:#fe0;fill-opacity:1;fill-rule:evenodd;stroke:black;stroke-width:0.87707853;stroke-linecap:round;stroke-linejoin:round;marker:none;marker-start:none;marker-mid:none;marker-end:none;stroke-miterlimit:4;stroke-dasharray:none;stroke-dashoffset:0;stroke-opacity:1;visibility:visible;display:inline;overflow:visible"
       d="M 89.231459,63.051549 C 88.720025,64.546706 85.913859,68.600222 85.477785,70.723802 C 85.041711,72.847383 88.619805,75.426724 87.686805,76.650389 C 86.069603,78.771409 83.548991,79.262129 83.041131,79.806264 C 80.779481,82.229461 85.075852,85.154019 83.023459,87.379238 C 80.696829,89.901785 78.981536,90.377045 78.070911,87.587387 C 77.364038,85.421912 73.803134,87.936619 74.987374,90.359973 C 76.351625,93.151693 79.659897,94.967746 83.036243,92.148385 C 91.072244,85.43806 84.318487,82.648705 86.390454,81.530697 C 88.323487,80.487656 91.022834,79.052987 91.518082,77.529869 C 92.150171,75.585896 88.95783,71.084271 90.922515,70.357042 C 93.80387,69.290506 97.252874,67.07557 97.642304,65.682558 C 98.421174,62.896532 89.703153,60.485435 90.534216,57.22428 C 101.35554,36.545548 83.047135,40.52291 89.231459,63.051549 z "
       id="path3381"
       sodipodi:nodetypes="cssssssssssscc" />
    <path
       style="opacity:1;color:black;fill:#ffee80;fill-opacity:1;fill-rule:evenodd;stroke:black;stroke-width:0.87707883;stroke-linecap:round;stroke-linejoin:round;marker:none;marker-start:none;marker-mid:none;marker-end:none;stroke-miterlimit:4;stroke-dasharray:none;stroke-dashoffset:0;stroke-opacity:1;visibility:visible;display:inline;overflow:visible"
       d="M 113.5339,41.152964 C 113.5339,41.152964 116.84151,40.264988 119.63677,45.736741 C 122.43201,51.208498 122.46144,55.743069 124.09818,60.482749 C 125.52711,64.620669 126.98606,70.872577 129.61887,70.407213 C 132.81316,69.840274 140.48577,70.798911 141.39256,74.810903 C 143.17068,82.677894 149.61725,80.504177 148.53467,75.870383 C 146.85214,68.668623 141.5039,73.360047 140.46149,68.457689 C 139.69568,64.856071 136.7021,67.875203 134.45896,65.384692 C 133.34701,64.150115 133.51687,61.12171 133.20148,60.530657 C 132.15293,58.565668 127.95792,59.021853 126.89937,56.64981 C 125.84082,54.277768 126.40313,51.782075 125.11467,47.957229 C 123.82619,44.132386 120.57973,42.735965 118.85059,41.990688 C 116.48585,40.97146 113.24698,36.558227 112.97293,38.665944 C 112.69887,40.773663 113.93151,41.205193 113.5339,41.152964 z "
       id="path3391"
       sodipodi:nodetypes="cssssssssssssc" />
    <path
       style="opacity:1;color:black;fill:#fe0;fill-opacity:1;fill-rule:evenodd;stroke:black;stroke-width:0.87707853;stroke-linecap:round;stroke-linejoin:round;marker:none;marker-start:none;marker-mid:none;marker-end:none;stroke-miterlimit:4;stroke-dasharray:none;stroke-dashoffset:0;stroke-opacity:1;visibility:visible;display:inline;overflow:visible"
       d="M 109.37343,43.851694 C 109.37343,43.851694 111.39859,43.536055 113.95162,48.356624 C 116.50464,53.177196 117.48273,56.686052 119.00137,60.871995 C 120.3272,64.526484 116.69624,69.951567 125.06843,68.45072 C 127.39295,68.034012 130.3348,67.06408 130.79938,69.201893 C 132.09165,75.137233 135.63414,71.208648 136.41259,74.20801 C 137.34991,77.826778 141.52062,77.381209 140.81891,74.210174 C 139.3998,67.797202 134.57128,72.074257 133.57498,67.736078 C 132.84304,64.548942 131.55153,63.9367 128.63642,64.447331 C 126.59889,64.804238 126.43908,61.588165 126.20127,60.99846 C 125.4616,59.164209 123.29936,60.765119 122.32791,58.673352 C 121.35646,56.581585 120.23048,53.280939 119.03354,49.902523 C 117.83659,46.524107 115.62003,45.1642 114.08151,44.525367 C 111.97747,43.651712 109.04905,39.776649 108.8396,41.65131 C 108.63015,43.525974 109.72535,43.892825 109.37343,43.851694 z "
       id="path2948"
       sodipodi:nodetypes="csssssssssssssc" />
    <path
       sodipodi:nodetypes="csssccsscsssssc"
       id="path2113"
       d="M 87.331964,40.524956 C 87.331964,40.524956 88.584933,42.905598 87.958448,45.160943 C 87.331964,47.416287 86.52522,49.544471 86.454886,52.428165 C 86.329589,57.690636 88.527499,63.293313 89.712606,65.834936 C 90.83324,68.238287 93.22092,70.59622 94.84978,72.099784 C 94.223295,74.480426 93.847405,77.487552 93.847405,77.487552 C 93.847405,77.487552 100.61344,82.123538 105.75061,80.995866 C 110.88779,79.868194 115.39848,77.988739 118.4056,75.10691 C 121.06619,72.55717 121.78862,68.591469 121.78862,68.591469 C 121.78862,68.591469 119.40798,63.830186 119.40798,61.073653 C 119.40798,58.317121 122.5404,54.057025 122.79099,48.54396 C 123.04159,43.030895 123.66808,42.655004 119.78387,37.141939 C 115.89967,31.628873 106.2518,27.619372 101.61581,28.120559 C 96.979828,28.621747 88.334339,31.252983 86.329588,35.262484 C 84.725004,38.471652 86.956073,40.524956 87.331964,40.524956 z "
       style="opacity:1;color:black;fill:#ffd0d0;fill-opacity:1;fill-rule:nonzero;stroke:black;stroke-width:0.875;stroke-linecap:round;stroke-linejoin:round;marker:none;marker-start:none;marker-mid:none;marker-end:none;stroke-miterlimit:4;stroke-dasharray:none;stroke-dashoffset:0;stroke-opacity:1;visibility:visible;display:inline;overflow:visible" />
    <path
       style="opacity:1;color:black;fill:#ffee80;fill-opacity:1;fill-rule:evenodd;stroke:black;stroke-width:0.87707818;stroke-linecap:round;stroke-linejoin:round;marker:none;marker-start:none;marker-mid:none;marker-end:none;stroke-miterlimit:4;stroke-dasharray:none;stroke-dashoffset:0;stroke-opacity:1;visibility:visible;display:inline;overflow:visible"
       d="M 114.7789,27.243973 C 114.7789,27.243973 117.52446,27.120709 118.55381,34.069472 C 119.58314,41.018235 118.93126,46.24781 119.07373,52.013895 C 119.1981,57.047907 119.1835,60.175928 121.58926,61.467316 C 123.99503,62.758705 125.42004,62.265279 125.73245,59.814305 C 126.05671,57.270366 123.01628,59.71434 122.71636,56.751411 C 122.41643,53.788483 122.51992,44.586031 122.43585,39.943325 C 122.35177,35.300618 121.77376,31.741761 120.42564,29.246985 C 119.07752,26.752209 115.88195,22.073355 114.98858,24.314425 C 114.0952,26.555496 115.14292,27.429913 114.7789,27.243973 z "
       id="path2940"
       sodipodi:nodetypes="cssssssssc" />
    <path
       style="opacity:1;color:black;fill:#fe0;fill-opacity:1;fill-rule:evenodd;stroke:black;stroke-width:0.87707853;stroke-linecap:round;stroke-linejoin:round;marker:none;marker-start:none;marker-mid:none;marker-end:none;stroke-miterlimit:4;stroke-dasharray:none;stroke-dashoffset:0;stroke-opacity:1;visibility:visible;display:inline;overflow:visible"
       d="M 109.39252,28.418031 C 109.39252,28.418031 112.12228,28.141161 113.64507,34.09386 C 115.16785,40.04656 114.89098,44.61491 115.44472,49.598564 C 115.92816,53.949484 116.1369,56.658744 118.62872,57.627784 C 121.12055,58.596834 122.50669,58.081294 122.64333,55.939794 C 122.78515,53.717064 119.92695,56.021564 119.41627,53.474744 C 118.90559,50.927914 119.33073,42.953692 118.91543,38.939081 C 118.50012,34.92447 116.69063,31.878903 115.16785,29.80238 C 113.64507,27.725857 110.12362,23.872769 109.39252,25.86853 C 108.66141,27.864292 109.76889,28.556466 109.39252,28.418031 z "
       id="path2938"
       sodipodi:nodetypes="cssssssssc" />
    <g
       transform="matrix(0.93271,0,0,0.843607,7.931596,0.114264)"
       id="g2868">
      <path
         style="fill:red;fill-opacity:1;fill-rule:evenodd;stroke:black;stroke-width:1.41252756;stroke-linecap:round;stroke-linejoin:round;stroke-miterlimit:4;stroke-dasharray:none;stroke-opacity:1"
         d="M 71.567511,33.407683 C 73.045907,31.964309 77.529263,32.458389 81.56599,31.306684 C 87.116816,29.722998 88.915629,23.902386 92.12903,23.909792 C 95.208413,23.916889 97.783675,27.721918 104.58386,27.721918 C 111.38403,27.721918 114.68116,23.614392 117.1353,23.597555 C 120.21866,23.57546 120.25887,28.600478 127.35471,31.261417 C 134.45055,33.922356 135.78182,32.569866 136.68149,33.841278 C 138.38608,36.250231 134.22961,41.474972 131.86433,43.840251 C 129.49905,46.205531 123.73368,48.12732 123.73368,48.12732 C 123.73368,48.12732 114.01226,42.239486 106.92194,41.648166 C 99.831602,41.056846 90.176279,43.615167 88.10666,44.910349 C 86.03704,46.205531 83.320357,48.686284 83.320357,48.686284 C 83.320357,48.686284 79.993352,47.606845 76.445433,44.847705 C 72.897514,42.088564 71.053908,35.327591 71.567511,33.407683 z "
         id="path1978"
         sodipodi:nodetypes="cssssssscsscsc" />
      <path
         style="opacity:1;color:black;fill:none;fill-opacity:1;fill-rule:evenodd;stroke:black;stroke-width:0.98876917;stroke-linecap:round;stroke-linejoin:round;marker:none;marker-start:none;marker-mid:none;marker-end:none;stroke-miterlimit:4;stroke-dasharray:none;stroke-dashoffset:0;stroke-opacity:1;visibility:visible;display:inline;overflow:visible"
         d="M 72.020488,36.261235 C 74.7951,36.766159 80.986345,35.756317 84.271763,34.453839 C 89.050642,32.559291 91.388038,28.378232 92.32215,28.297811 C 94.792676,28.085115 99.670626,31.803369 104.91078,31.728555 C 110.98759,31.644781 115.58251,28.524268 117.28443,28.620339 C 118.65873,28.697916 120.85196,32.993621 126.13273,34.98355 C 129.3677,36.202571 133.37608,37.034439 136.0226,37.255598"
         id="path2866"
         sodipodi:nodetypes="cssssss" />
    </g>
    <g
       transform="translate(-10.52494,-12.02851)"
       id="g2948">
      <path
         sodipodi:type="arc"
         style="opacity:1;color:black;fill:green;fill-opacity:1;fill-rule:nonzero;stroke:black;stroke-width:0.87707853;stroke-linecap:round;stroke-linejoin:round;marker:none;marker-start:none;marker-mid:none;marker-end:none;stroke-miterlimit:4;stroke-dasharray:none;stroke-dashoffset:0;stroke-opacity:1;visibility:visible;display:inline;overflow:visible"
         id="path2895"
         sodipodi:cx="102.8068"
         sodipodi:cy="58.29953"
         sodipodi:rx="1.7247709"
         sodipodi:ry="2.5087578"
         d="M 104.53157 58.29953 A 1.7247709 2.5087578 0 1 1  101.08203,58.29953 A 1.7247709 2.5087578 0 1 1  104.53157 58.29953 z"
         transform="translate(0.266683,0.340726)" />
      <path
         sodipodi:type="arc"
         style="opacity:1;color:black;fill:green;fill-opacity:1;fill-rule:nonzero;stroke:black;stroke-width:0.87707853;stroke-linecap:round;stroke-linejoin:round;marker:none;marker-start:none;marker-mid:none;marker-end:none;stroke-miterlimit:4;stroke-dasharray:none;stroke-dashoffset:0;stroke-opacity:1;visibility:visible;display:inline;overflow:visible"
         id="path2897"
         sodipodi:cx="102.8068"
         sodipodi:cy="58.29953"
         sodipodi:rx="1.7247709"
         sodipodi:ry="2.5087578"
         d="M 104.53157 58.29953 A 1.7247709 2.5087578 0 1 1  101.08203,58.29953 A 1.7247709 2.5087578 0 1 1  104.53157 58.29953 z"
         transform="translate(13.10479,0.815378)" />
    </g>
    <g
       transform="matrix(-1,0,0,1,208.4106,-11.52732)"
       id="g2952">
      <path
         style="opacity:1;color:black;fill:none;fill-opacity:1;fill-rule:evenodd;stroke:black;stroke-width:0.87707853;stroke-linecap:round;stroke-linejoin:round;marker:none;marker-start:none;marker-mid:none;marker-end:none;stroke-miterlimit:4;stroke-dasharray:none;stroke-dashoffset:0;stroke-opacity:1;visibility:visible;display:inline;overflow:visible"
         d="M 110.6088,56.174441 C 110.6088,56.174441 110.91792,59.589054 111.63957,61.164119 C 112.51664,63.078405 113.51546,64.490286 114.31587,65.742075 C 112.41565,68.144891 109.23322,68.771734 109.23322,68.771734"
         id="path2899"
         sodipodi:nodetypes="cscc" />
      <path
         style="opacity:1;color:black;fill:none;fill-opacity:1;fill-rule:evenodd;stroke:black;stroke-width:0.87707853;stroke-linecap:round;stroke-linejoin:round;marker:none;marker-start:none;marker-mid:none;marker-end:none;stroke-miterlimit:4;stroke-dasharray:none;stroke-dashoffset:0;stroke-opacity:1;visibility:visible;display:inline;overflow:visible"
         d="M 114.2708,74.605723 C 114.2708,74.605723 113.26843,73.603347 112.26605,73.603347 C 111.26368,73.603347 108.7224,74.605723 107.25418,74.605723 C 105.78595,74.605723 105.24943,73.603347 105.24943,73.603347"
         id="path2901" />
      <path
         style="opacity:1;color:black;fill:none;fill-opacity:1;fill-rule:evenodd;stroke:black;stroke-width:0.87707853;stroke-linecap:round;stroke-linejoin:round;marker:none;marker-start:none;marker-mid:none;marker-end:none;stroke-miterlimit:4;stroke-dasharray:none;stroke-dashoffset:0;stroke-opacity:1;visibility:visible;display:inline;overflow:visible"
         d="M 111.46921,54.204855 C 112.13086,53.067282 113.51855,52.087439 115.77437,52.087439 C 118.08834,52.087439 118.90679,53.681135 118.90679,53.681135"
         id="path2903"
         sodipodi:nodetypes="csc" />
      <path
         style="opacity:1;color:black;fill:none;fill-opacity:1;fill-rule:evenodd;stroke:black;stroke-width:0.87707853;stroke-linecap:round;stroke-linejoin:round;marker:none;marker-start:none;marker-mid:none;marker-end:none;stroke-miterlimit:4;stroke-dasharray:none;stroke-dashoffset:0;stroke-opacity:1;visibility:visible;display:inline;overflow:visible"
         d="M 97.898789,53.618134 C 98.629806,52.134631 100.31589,51.008337 101.74146,50.944663 C 104.54672,50.819366 106.81564,53.784257 106.81564,53.784257"
         id="path2905"
         sodipodi:nodetypes="csc" />
    </g>
    <path
       sodipodi:nodetypes="csc"
       id="path3000"
       d="M 94.724483,71.84919 C 94.724483,71.84919 96.47864,73.352753 98.608688,73.603347 C 100.73874,73.853941 109.25893,69.217954 114.772,64.581968"
       style="opacity:1;color:black;fill:none;fill-opacity:1;fill-rule:nonzero;stroke:black;stroke-width:0.875;stroke-linecap:round;stroke-linejoin:round;marker:none;marker-start:none;marker-mid:none;marker-end:none;stroke-miterlimit:4;stroke-dasharray:none;stroke-dashoffset:0;stroke-opacity:1;visibility:visible;display:inline;overflow:visible" />
    <path
       sodipodi:nodetypes="csccc"
       id="path6412"
       d="M 63.081999,158.90991 C 59.892459,142.96222 54.222167,130.91285 51.741415,130.91285 C 49.260662,130.91285 35.793718,129.14088 33.312966,147.21494 C 30.207094,160.08093 27.087877,238.88606 49.260662,220.57434 C 62.842564,203.81498 66.181914,179.81999 63.081999,158.90991 z "
       style="opacity:1;color:black;fill:white;fill-opacity:1;fill-rule:nonzero;stroke:black;stroke-width:1.25;stroke-linecap:round;stroke-linejoin:round;marker:none;marker-start:none;marker-mid:none;marker-end:none;stroke-miterlimit:4;stroke-dasharray:none;stroke-dashoffset:0;stroke-opacity:1;visibility:visible;display:inline;overflow:visible" />
    <path
       sodipodi:nodetypes="cssccsscs"
       id="path619"
       d="M 32.590094,136.63691 C 31.968741,136.06153 29.237929,135.35529 26.969324,137.35662 C 25.335823,138.89803 25.939471,142.00684 22.531916,142.96805 C 21.789496,143.16915 19.283111,142.33494 18.686089,141.96161 C 18.686089,141.214 18.663241,141.91639 18.834059,142.24931 C 19.347997,143.92061 21.949236,148.23599 24.15889,147.42872 C 26.702168,146.64358 27.334006,142.89204 29.483919,141.2419 C 32.299694,138.89226 33.969397,140.99077 34.217167,140.80988 C 34.217167,140.13828 32.609085,136.65904 32.590094,136.63691 z "
       style="font-size:12px;fill:#8df;fill-rule:evenodd;stroke:black;stroke-width:1.25296935;stroke-miterlimit:4;stroke-dasharray:none" />
    <path
       sodipodi:nodetypes="cscssscsssc"
       id="path660"
       d="M 61.884813,150.85031 C 60.10888,151.20247 56.422309,151.47027 55.54369,151.20374 C 54.559336,150.90547 52.923064,150.51674 51.772343,149.79319 C 50.60451,150.42245 45.861371,151.52703 42.779131,151.48662 C 41.446613,151.50009 37.069441,150.9757 34.873634,150.49846 C 32.416705,149.98081 32.468435,148.62414 32.262801,147.67735 C 32.19119,147.37234 31.854994,141.52229 32.910563,140.04823 C 32.08041,138.99849 31.534327,136.83743 32.550926,135.71553 C 34.132698,134.0856 35.60013,132.80301 38.953087,132.7472 C 41.085492,132.63944 43.795631,132.43642 46.078577,132.46529 C 48.649451,132.57786 55.255147,132.99737 57.120099,133.06857"
       style="font-size:12px;fill:#ffb8a7;fill-rule:evenodd;stroke:black;stroke-width:0.87707855;stroke-miterlimit:4;stroke-dasharray:none" />
    <path
       sodipodi:nodetypes="csssssssc"
       id="path6416"
       d="M 63.081999,182.65426 C 63.081999,182.65426 63.081999,156.78355 61.310032,150.05008 C 59.538066,143.31661 56.700177,130.02793 51.741415,131.97602 C 46.779909,133.92519 47.488695,132.50761 53.513381,127.36891 C 56.429923,124.88127 54.576561,119.92665 59.892459,120.28105 C 65.208358,120.63544 71.508824,123.66038 77.179116,131.81142 C 82.849408,139.96247 83.814004,144.37979 84.168397,146.50615 C 84.52279,148.63251 74.422583,155.36598 72.296223,160.68188 C 70.169864,165.99777 62.727606,183.36305 63.081999,182.65426 z "
       style="opacity:1;color:black;fill:green;fill-opacity:1;fill-rule:nonzero;stroke:black;stroke-width:1.25;stroke-linecap:round;stroke-linejoin:round;marker:none;marker-start:none;marker-mid:none;marker-end:none;stroke-miterlimit:4;stroke-dasharray:none;stroke-dashoffset:0;stroke-opacity:1;visibility:visible;display:inline;overflow:visible" />
    <g
       id="g7334">
      <path
         style="opacity:1;color:black;fill:#08f;fill-opacity:1;fill-rule:nonzero;stroke:black;stroke-width:0.875;stroke-linecap:round;stroke-linejoin:round;marker:none;marker-start:none;marker-mid:none;marker-end:none;stroke-miterlimit:4;stroke-dasharray:none;stroke-dashoffset:0;stroke-opacity:1;visibility:visible;display:inline;overflow:visible"
         d="M 74.676974,165.94719 C 74.676974,165.94719 52.939752,175.46257 47.863429,195.76786 C 45.106896,206.79399 52.374118,200.77974 52.374118,200.77974 C 52.374118,200.77974 50.369368,228.09448 57.887184,229.59804 C 63.400249,219.32369 100.98933,163.19066 100.98933,163.19066 L 74.676974,165.94719 z "
         id="path7332"
         sodipodi:nodetypes="cscccc" />
      <path
         style="opacity:1;color:black;fill:white;fill-opacity:1;fill-rule:nonzero;stroke:black;stroke-width:0.875;stroke-linecap:round;stroke-linejoin:round;marker:none;marker-start:none;marker-mid:none;marker-end:none;stroke-miterlimit:4;stroke-dasharray:none;stroke-dashoffset:0;stroke-opacity:1;visibility:visible;display:inline;overflow:visible"
         d="M 83.447759,152.66571 C 83.447759,152.66571 61.710537,162.18109 56.634214,182.48638 C 53.877681,193.51251 52.123524,199.27617 52.123524,199.27617 C 52.123524,199.27617 64.903812,206.04221 72.421628,207.54577 C 77.934693,197.27142 109.76012,149.90918 109.76012,149.90918 L 83.447759,152.66571 z "
         id="path7330"
         sodipodi:nodetypes="cscccc" />
      <path
         style="opacity:1;color:black;fill:red;fill-opacity:1;fill-rule:nonzero;stroke:black;stroke-width:0.875;stroke-linecap:round;stroke-linejoin:round;marker:none;marker-start:none;marker-mid:none;marker-end:none;stroke-miterlimit:4;stroke-dasharray:none;stroke-dashoffset:0;stroke-opacity:1;visibility:visible;display:inline;overflow:visible"
         d="M 87.958449,145.39849 C 87.958449,145.39849 66.221227,154.91387 61.144904,175.21916 C 58.388371,186.24529 56.634214,192.00895 56.634214,192.00895 C 56.634214,192.00895 69.414502,198.77499 76.932318,200.27855 C 82.445383,190.0042 114.27081,142.64196 114.27081,142.64196 L 87.958449,145.39849 z "
         id="path7328"
         sodipodi:nodetypes="cscccc" />
    </g>
    <path
       sodipodi:nodetypes="csccscc"
       id="path7339"
       d="M 89.596213,147.00585 C 89.596213,147.00585 78.894075,152.84291 69.665096,168.70372 C 60.531549,184.40053 61.144905,196.26905 61.144905,196.26905 L 73.295019,199.30658 C 73.295019,199.30658 76.919726,180.34221 80.42804,171.82202 C 83.760692,163.72843 93.722108,150.15977 93.722108,150.15977 L 89.596213,147.00585 z "
       style="opacity:1;color:black;fill:#fe0;fill-opacity:1;fill-rule:nonzero;stroke:black;stroke-width:0.875;stroke-linecap:round;stroke-linejoin:round;marker:none;marker-start:none;marker-mid:none;marker-end:none;stroke-miterlimit:4;stroke-dasharray:none;stroke-dashoffset:0;stroke-opacity:1;visibility:visible;display:inline;overflow:visible" />
    <g
       transform="matrix(1.038783,0,0,1,-8.377005,-17.41627)"
       id="g5476">
      <path
         style="font-size:12px;fill:#fe0;fill-rule:evenodd;stroke:black;stroke-width:1.22935712;stroke-miterlimit:4;stroke-dasharray:none"
         d="M 42.14479,181.24287 C 41.174679,179.31948 41.075472,177.31814 41.201879,175.52752 C 41.352322,173.31451 44.030513,170.58962 48.817272,170.58962 C 52.878723,170.58962 56.805458,172.54765 56.795171,176.93904 C 56.791314,178.65365 56.376484,180.27107 55.924762,181.45455 C 55.44663,181.74802 54.36109,181.39778 52.806222,181.10143 C 53.153792,178.05517 53.937161,176.66675 52.298516,175.03393 C 50.448302,173.26833 47.016217,173.70227 45.33593,175.24561 C 44.376501,176.12311 44.384414,177.34604 44.973325,180.25471 C 44.973325,180.45004 45.029407,180.51547 44.828323,180.5376"
         id="path665"
         sodipodi:nodetypes="csssccsscc" />
      <path
         style="font-size:12px;opacity:0.98999999;fill:#fe0;fill-rule:evenodd;stroke:black;stroke-width:1.22935712;stroke-linecap:round;stroke-linejoin:round;stroke-miterlimit:4;stroke-dasharray:none"
         d="M 76.449788,183.71214 C 74.789679,180.60815 70.983714,177.83129 68.326788,176.09263 C 65.480251,178.96763 62.489602,180.62835 59.768682,180.60815 C 55.332955,180.57639 52.791358,178.11995 49.17985,175.80975 C 45.659636,178.69148 43.456708,180.80828 40.186638,180.74959 C 37.560869,180.5889 34.678329,179.71909 31.483431,175.24592 C 29.075561,176.92781 24.909463,180.12128 22.780322,183.00686 C 26.794296,186.26576 30.783641,192.50358 30.865242,197.08836 C 30.962174,202.67574 29.809079,209.869 24.782561,214.41819 C 25.020342,234.06398 42.589167,250.35754 49.760058,255.67454 C 56.686937,250.80206 71.67658,238.24754 72.823443,213.76775 C 68.131045,208.84236 67.711665,201.39027 68.036684,197.39915 C 68.349537,193.41572 71.207844,186.69009 76.449788,183.71214 z "
         id="path638"
         sodipodi:nodetypes="ccscsccscccsc" />
      <g
         id="g5466">
        <path
           sodipodi:nodetypes="csccccc"
           id="path651"
           d="M 70.613341,184.09688 C 69.074793,186.12515 64.388923,189.80934 64.254108,199.9613 C 64.24125,204.01112 64.705732,209.43974 67.433675,212.53411 C 64.493471,211.7355 60.026785,210.93689 52.458869,211.13606 C 52.458869,206.14716 52.432163,185.29479 52.561439,183.19916 C 56.312707,184.84834 62.559183,185.77396 68.254234,181.2036 C 68.920394,181.78283 69.827994,183.08851 70.613341,184.09688 z "
           style="font-size:12px;fill:none;fill-rule:evenodd;stroke:black;stroke-width:0.86054999;stroke-linejoin:round;stroke-miterlimit:4;stroke-dasharray:none" />
        <path
           sodipodi:nodetypes="cccc"
           id="path652"
           d="M 46.715206,216.02599 C 46.499483,217.89454 46.715206,242.73226 47.022916,247.75388 C 44.678942,245.8834 34.201978,237.48357 29.483862,218.32079 C 32.56086,216.70048 39.256783,215.96537 46.715206,216.02599 z "
           style="font-size:12px;fill:none;fill-rule:evenodd;stroke:black;stroke-width:0.86054999;stroke-linejoin:round;stroke-miterlimit:4;stroke-dasharray:none" />
        <path
           sodipodi:nodetypes="cscscscsc"
           id="path688"
           d="M 38.412559,225.50425 C 37.722661,223.67804 37.531467,221.0686 39.262495,221.14462 C 40.930813,221.22063 41.194409,223.62127 40.344374,225.5793 C 42.353537,225.30412 44.455676,225.01354 44.439949,226.55688 C 44.425211,227.93568 42.198941,227.78558 40.267126,227.38339 C 40.498971,229.3626 41.530703,231.58523 39.494439,231.81808 C 37.407731,231.9066 38.180813,229.04989 38.567156,227.45844 C 37.015354,227.89527 34.814503,228.17623 34.780676,227.00814 C 34.739331,225.48982 36.335544,225.02605 38.412559,225.50425 z "
           style="font-size:12px;fill:green;fill-rule:evenodd;stroke:black;stroke-width:0.86054999;stroke-miterlimit:4;stroke-dasharray:none" />
        <path
           sodipodi:nodetypes="cccccccccccccccccccccc"
           id="path691"
           d="M 55.123375,193.14928 C 55.888347,193.73429 56.161537,194.15957 57.1451,194.85138 C 57.1451,196.05603 57.1451,200.39354 57.1451,202.12931 C 56.708016,202.55459 55.943044,203.19156 55.232671,203.88336 C 55.365903,204.69833 55.341967,205.9559 55.341967,207.01911 C 55.633356,207.01911 57.341535,206.96619 57.800775,206.96619 C 57.747661,205.79233 57.89563,205.42477 58.620345,205.42477 C 59.385416,205.37185 59.509746,205.72979 59.54931,206.96715 C 59.95405,206.95464 61.079253,206.93251 62.062816,206.91327 C 62.018702,206.32153 61.95352,204.61462 62.008218,203.56488 C 61.024654,203.0684 60.642169,202.35927 59.986394,201.96862 C 59.873933,199.35246 59.877197,195.50566 59.877197,194.79653 C 60.314281,194.47805 60.751465,193.62749 61.40714,193.25608 C 61.299427,192.25061 61.352443,190.79483 61.352443,189.74798 C 60.994388,189.77395 60.238615,189.76145 59.986394,189.74798 C 59.986394,190.13766 60.015177,191.47798 59.330718,191.44815 C 58.291172,191.52224 58.852784,189.95677 58.784338,189.74798 C 58.426679,189.74798 57.857847,189.74317 57.472888,189.8009 C 57.472888,190.19058 57.715416,191.71467 57.035804,191.60787 C 56.052043,191.69831 56.216234,190.06646 56.216234,189.74798 C 55.825835,189.74798 55.330394,189.8134 54.959481,189.8009 C 54.959481,191.06905 55.127727,192.9453 55.123375,193.14928 z "
           style="font-size:12px;fill:none;fill-rule:evenodd;stroke:black;stroke-width:0.83751845" />
        <path
           id="path5450"
           transform="matrix(1.002375,0,0,1.002375,0,-0.551729)"
           d="M 52.34375,216.25 C 52.427784,216.97788 52.365363,221.38009 52.28125,226.40625 C 54.712772,230.95979 56.841696,235.01918 58.96875,239.0625 C 60.644096,236.58957 62.397321,233.53254 64.03125,229.78125 C 62.017307,225.83989 59.613018,221.26394 56.875,216.34375 C 55.477162,216.29471 53.989441,216.23662 52.34375,216.25 z "
           style="opacity:1;color:black;fill:green;fill-opacity:1;fill-rule:nonzero;stroke:black;stroke-width:0.86054999;stroke-linecap:round;stroke-linejoin:round;marker:none;marker-start:none;marker-mid:none;marker-end:none;stroke-miterlimit:4;stroke-dasharray:none;stroke-dashoffset:0;stroke-opacity:1;visibility:visible;display:inline;overflow:visible" />
        <path
           sodipodi:nodetypes="cccc"
           id="path654"
           d="M 52.459029,216.22547 C 52.674752,218.09402 52.151319,242.13313 51.84361,247.15475 C 54.495293,245.28427 63.536279,236.78533 68.254395,217.62256 C 64.664647,216.79989 59.917452,216.16485 52.459029,216.22547 z "
           style="font-size:12px;fill:none;fill-rule:evenodd;stroke:black;stroke-width:0.86054999;stroke-linejoin:round;stroke-miterlimit:4;stroke-dasharray:none" />
        <path
           id="path5455"
           transform="matrix(1.002375,0,0,1.002375,0,-0.551729)"
           d="M 30.78125,181.15625 C 30.116669,181.73411 28.971662,183.23742 28.40625,184.03125 C 29.686597,185.71915 33.151564,188.57062 34.34375,195.34375 C 37.547325,200.21889 40.844375,205.73978 44.09375,211.46875 C 44.873505,211.4675 45.685118,211.47762 46.53125,211.5 C 46.531251,209.30736 46.478155,203.78417 46.40625,198.53125 C 43.463596,193.78789 40.426717,189.10585 37.375,184.75 C 35.252874,184.12096 33.033627,182.96381 30.78125,181.15625 z "
           style="opacity:1;color:black;fill:green;fill-opacity:1;fill-rule:nonzero;stroke:black;stroke-width:0.86054999;stroke-linecap:round;stroke-linejoin:round;marker:none;marker-start:none;marker-mid:none;marker-end:none;stroke-miterlimit:4;stroke-dasharray:none;stroke-dashoffset:0;stroke-opacity:1;visibility:visible;display:inline;overflow:visible" />
        <path
           sodipodi:nodetypes="csccccc"
           id="path648"
           d="M 28.488448,183.91629 C 30.026996,185.94457 34.712867,189.62876 34.847681,199.78072 C 34.86054,203.83053 33.985778,209.75852 31.257835,212.85193 C 34.198039,212.05332 39.075004,211.25471 46.642921,211.45485 C 46.642921,206.46594 46.361917,186.21206 46.232641,184.11643 C 42.044289,186.08409 36.542607,185.59337 30.847555,181.02302 C 30.181395,181.60225 29.055203,183.12057 28.488448,183.91629 z "
           style="font-size:12px;fill:none;fill-rule:evenodd;stroke:black;stroke-width:0.86054999;stroke-linejoin:round;stroke-miterlimit:4;stroke-dasharray:none" />
      </g>
    </g>
    <rect
       y="137.90671"
       x="40.456059"
       height="19.243668"
       width="4.7909846"
       id="rect684"
       style="font-size:12px;fill:#8df;fill-rule:evenodd;stroke:black;stroke-width:1.25296935;stroke-miterlimit:4;stroke-dasharray:none" />
    <path
       sodipodi:nodetypes="cssssss"
       id="path670"
       d="M 35.309136,146.78887 C 38.341525,146.66956 40.45662,147.81937 40.676102,148.13015 C 40.881341,148.49097 41.187666,149.72448 40.950281,150.10647 C 40.601425,150.5635 39.449912,151.19277 34.873931,150.67031 C 34.495501,150.62604 32.88544,150.48557 32.3355,149.75239 C 32.133327,149.48298 31.655096,148.78539 31.682791,148.41207 C 31.78269,146.99574 34.657318,146.81389 35.309136,146.78887 z "
       style="font-size:12px;fill:#ffb8a7;fill-rule:evenodd;stroke:black;stroke-width:0.87707855;stroke-miterlimit:4;stroke-dasharray:none" />
    <path
       sodipodi:nodetypes="csssssss"
       id="path671"
       d="M 32.045476,146.86004 C 31.166956,146.29332 31.102565,145.30612 31.392669,144.24965 C 31.685245,142.82851 34.935632,143.8234 35.309117,143.89653 C 37.665949,144.34587 41.254213,145.00111 42.779409,144.81349 C 43.650412,144.70187 44.356829,146.66665 44.157327,147.07172 C 43.785326,147.68078 41.142445,147.98772 40.748585,148.20036 C 40.296763,148.36393 39.213795,148.53231 37.412343,148.20036 C 36.263897,147.98002 33.003718,147.53261 32.045476,146.86004 z "
       style="font-size:12px;fill:#ffb8a7;fill-rule:evenodd;stroke:black;stroke-width:0.87707855;stroke-miterlimit:4;stroke-dasharray:none" />
    <path
       sodipodi:nodetypes="ccssscss"
       id="path672"
       d="M 31.465234,140.36945 C 32.618131,137.78118 38.447997,141.45575 39.805737,141.56832 C 40.934599,141.15651 43.497165,141.00449 44.664998,142.20336 C 44.900008,142.43044 44.990808,143.7034 44.592496,144.10848 C 44.281523,144.42407 42.786198,144.9552 42.41667,145.09664 C 41.232121,145.52 39.050261,145.33815 38.50032,145.16688 C 38.165905,145.10915 36.160501,144.53376 34.438771,144.10848 C 31.987084,143.52636 30.7694,142.03691 31.465234,140.36945 z "
       style="font-size:12px;fill:#ffb8a7;fill-rule:evenodd;stroke:black;stroke-width:0.87707855;stroke-miterlimit:4;stroke-dasharray:none" />
    <path
       sodipodi:nodetypes="csssccssscc"
       id="path603"
       d="M 41.971232,117.49915 C 39.443978,117.59633 38.839043,117.45681 36.009519,117.50011 C 34.938618,117.55496 33.245276,118.18903 32.139657,120.04315 C 31.527898,121.1766 30.207546,123.29917 29.629514,125.5372 C 28.876709,128.04657 28.659601,130.40872 30.257001,132.35425 C 30.836318,132.63905 32.821841,133.81676 33.394729,133.98226 C 33.394729,133.40591 32.767144,130.48954 32.767144,129.91223 C 32.767144,128.36601 32.802059,127.37689 33.499277,125.63919 C 34.345553,123.65325 35.572138,122.75169 37.996724,121.87514 C 40.181749,121.04959 46.153848,120.94568 49.501859,121.36615 C 50.23063,119.4466 44.748829,118.08416 41.971232,117.49915 z "
       style="font-size:12px;fill:#8df;fill-rule:evenodd;stroke:black;stroke-width:1.25296935;stroke-miterlimit:4;stroke-dasharray:none" />
    <path
       sodipodi:nodetypes="cccssc"
       id="path608"
       d="M 29.211025,130.01423 C 32.697412,132.04924 33.04607,132.65926 35.695677,132.25226 C 40.820709,131.94724 42.705344,133.11918 43.540146,134.59324 C 42.900296,135.37838 41.828802,135.1234 39.670185,134.18528 C 39.01906,133.90239 34.786395,134.61826 33.708571,134.59324 C 30.450766,134.52108 28.978487,131.14671 29.211025,130.01423 z "
       style="font-size:12px;fill:#8df;fill-rule:evenodd;stroke:black;stroke-width:1.25296935;stroke-miterlimit:4;stroke-dasharray:none" />
    <path
       sodipodi:nodetypes="cssssssc"
       id="path679"
       d="M 32.371378,139.13366 C 32.989567,140.29693 34.79003,140.58655 35.344916,140.82613 C 35.863007,141.05032 39.746123,141.90281 40.174404,141.93937 C 41.268944,142.08274 42.706802,141.83065 43.468015,141.69209 C 43.871964,141.61801 44.883519,141.5978 45.190734,140.72125 C 45.301414,140.38738 45.504675,139.41461 44.972241,138.76033 C 44.275518,137.97519 42.269322,138.74109 41.563499,138.46494 C 40.819991,138.19649 37.759413,137.43445 36.871001,137.13713"
       style="font-size:12px;fill:#ffb8a7;fill-rule:evenodd;stroke:black;stroke-width:1.21943521;stroke-linecap:round" />
    <path
       sodipodi:nodetypes="ccssccsssc"
       id="path614"
       d="M 40.29787,117.6021 C 44.286028,117.2817 45.501634,115.56709 48.560531,115.77011 C 51.797664,119.22915 56.773342,121.5278 55.568121,124.92622 C 54.12512,128.89329 50.197989,129.36668 48.351336,131.23523 C 46.940184,132.74874 46.758585,135.64971 46.154936,136.0163 C 44.405412,135.48999 46.137825,134.89729 43.958536,135.40724 C 44.795217,133.71092 44.288006,131.54602 44.376926,130.93022 C 44.590473,128.72683 48.09684,126.28482 48.769726,124.82519 C 50.025787,122.32641 48.422057,120.68397 47.514556,120.14418 C 45.265041,118.86833 45.506975,119.33595 40.29787,117.6021 z "
       style="font-size:12px;fill:#8df;fill-rule:evenodd;stroke:black;stroke-width:1.25296935;stroke-miterlimit:4;stroke-dasharray:none" />
    <path
       sodipodi:nodetypes="ccsscscc"
       id="path622"
       d="M 43.092083,134.33538 C 43.042825,134.33538 42.401788,136.63787 42.648372,135.63047 C 41.514366,132.4649 39.26861,132.68812 37.767153,131.31317 C 37.16845,130.82246 33.564063,126.35698 33.625486,124.40664 C 33.741706,120.98898 33.998477,120.26061 29.040108,119.22626 C 34.956719,116.57161 37.21197,117.77145 37.915123,120.37799 C 38.751606,124.02754 37.164493,125.7941 39.690066,127.8599 C 43.089907,129.73808 43.950623,132.99795 43.979604,133.75903"
       style="font-size:12px;fill:#8df;fill-rule:evenodd;stroke:black;stroke-width:1.25296935;stroke-miterlimit:4;stroke-dasharray:none" />
    <path
       sodipodi:nodetypes="csssscsc"
       id="path675"
       d="M 50.175827,135.71872 C 48.712946,134.86815 47.048979,134.72575 45.684117,134.63723 C 43.694341,134.50156 42.297234,135.38195 40.490046,136.20654 C 36.572015,138.22616 38.614511,139.6473 39.547333,140.05045 C 40.412698,140.34777 42.088732,139.87533 43.568033,139.30572 C 44.141712,139.0671 45.44248,140.03506 46.802891,139.60977 C 46.26472,141.04535 47.727404,142.43954 48.754191,142.90235 C 49.68276,143.36901 50.942876,143.77697 52.868361,143.07362"
       style="font-size:12px;fill:#ffb8a7;fill-rule:evenodd;stroke:black;stroke-width:0.87707855;stroke-linecap:round;stroke-miterlimit:4;stroke-dasharray:none" />
    <path
       sodipodi:nodetypes="csccssc"
       id="path625"
       d="M 19.27777,142.537 C 15.338078,139.93719 15.876743,133.89758 19.721481,129.87375 C 22.817667,126.86501 24.438114,122.89506 24.898541,122.24847 C 26.159448,117.8388 31.483685,115.70276 35.696369,117.93213 C 32.397022,119.31382 29.471753,121.24011 27.856945,124.98202 C 26.716807,127.52218 24.945127,130.51552 22.679787,132.60826 C 19.347304,135.47556 20.232946,139.35314 19.27777,142.537 z "
       style="font-size:12px;fill:#8df;fill-rule:evenodd;stroke:black;stroke-width:1.25296935;stroke-miterlimit:4;stroke-dasharray:none" />
    <path
       sodipodi:nodetypes="cc"
       id="path735"
       d="M 53.471294,146.44039 C 53.780388,147.74126 53.145187,149.1624 51.384882,149.74836"
       style="font-size:12px;fill:none;fill-rule:evenodd;stroke:black;stroke-width:0.85360461;stroke-linecap:round" />
    <path
       sodipodi:nodetypes="csccc"
       id="path7341"
       d="M 98.521324,148.8097 C 98.521324,148.8097 95.491489,156.44603 93.737015,162.98543 C 91.787852,170.25049 90.547476,178.75593 90.547476,178.75593 L 110.57069,149.34129 L 98.521324,148.8097 z "
       style="opacity:1;color:black;fill:white;fill-opacity:1;fill-rule:nonzero;stroke:black;stroke-width:0.875;stroke-linecap:round;stroke-linejoin:round;marker:none;marker-start:none;marker-mid:none;marker-end:none;stroke-miterlimit:4;stroke-dasharray:none;stroke-dashoffset:0;stroke-opacity:1;visibility:visible;display:inline;overflow:visible" />
    <path
       sodipodi:nodetypes="ccsc"
       id="path7324"
       d="M 103.85503,138.4804 C 107.98983,139.23218 115.88659,139.06389 115.88659,139.06389 C 115.88659,139.06389 111.40478,150.36148 109.27842,150.00709 C 107.15206,149.65269 103.09282,150.09307 99.960395,149.34129"
       style="opacity:1;color:black;fill:black;fill-opacity:1;fill-rule:nonzero;stroke:black;stroke-width:0.875;stroke-linecap:round;stroke-linejoin:round;marker:none;marker-start:none;marker-mid:none;marker-end:none;stroke-miterlimit:4;stroke-dasharray:none;stroke-dashoffset:0;stroke-opacity:1;visibility:visible;display:inline;overflow:visible" />
    <path
       sodipodi:nodetypes="csccc"
       id="path7343"
       d="M 102.24245,148.27811 C 102.24245,148.27811 99.035422,155.91444 97.280948,162.45384 C 95.331785,169.7189 94.977392,173.08564 94.977392,173.08564 L 110.57069,149.34129 L 102.24245,148.27811 z "
       style="opacity:1;color:black;fill:#fe0;fill-opacity:1;fill-rule:nonzero;stroke:black;stroke-width:1.25296935;stroke-linecap:round;stroke-linejoin:round;marker:none;marker-start:none;marker-mid:none;marker-end:none;stroke-miterlimit:4;stroke-dasharray:none;stroke-dashoffset:0;stroke-opacity:1;visibility:visible;display:inline;overflow:visible" />
    <g
       style="fill:#08f"
       transform="matrix(1.099971,0,0,1,-10.66449,0)"
       id="g6399">
      <path
         style="font-size:12px;fill:#08f;fill-rule:evenodd;stroke:black;stroke-width:0.93016071pt"
         d="M 106.0525,138.69361 C 106.46298,137.00017 97.183215,136.40073 93.650145,136.46424 C 91.009241,136.45846 87.050854,136.9944 86.417038,138.22503 C 85.740195,139.57689 85.92951,146.71434 86.905061,147.65343 C 87.668747,148.45781 90.161778,150.53901 93.214935,154.42621 C 94.334605,153.46692 99.321655,148.83114 103.80427,148.07679 C 103.70635,146.25923 103.80526,143.2784 104.02088,141.93808 C 104.23453,140.61701 103.66481,138.57815 106.0525,138.69361 z "
         id="path606"
         sodipodi:nodetypes="csssccsc" />
      <path
         style="font-size:12px;fill:#08f;fill-rule:evenodd;stroke:black;stroke-width:0.81389064"
         d="M 103.72514,137.07907 C 101.24744,137.29171 101.60451,142.33065 101.32063,146.00906 C 96.445345,147.55144 93.489905,150.87 92.140775,152.38832"
         id="path666"
         sodipodi:nodetypes="ccc" />
      <path
         style="font-size:12px;fill-rule:evenodd;stroke-width:0.875;fill:black"
         d="M 89.861176,140.79501 C 89.636237,139.89457 89.202506,138.94415 90.140181,138.94487 C 91.068608,138.9456 90.905417,139.83517 90.541544,140.84209 C 91.368172,140.52408 92.704225,140.06481 92.632515,141.29919 C 92.585275,142.15037 91.476516,141.97507 90.521056,141.62735 C 90.831931,142.58647 91.310977,143.66438 90.230242,143.68756 C 88.960351,143.6709 89.461877,142.6111 89.902508,141.59403 C 89.073603,142.09097 87.749006,142.06924 87.72361,141.30282 C 87.692309,140.31038 89.02217,140.32921 89.861176,140.79501 z "
         id="path698"
         sodipodi:nodetypes="cscscscsc" />
      <path
         style="font-size:12px;fill-rule:evenodd;stroke-width:0.875;fill:black"
         d="M 96.931685,140.75738 C 96.706745,139.85694 96.273015,138.90652 97.210695,138.90724 C 98.139115,138.90797 97.975925,139.79754 97.612055,140.80446 C 98.438685,140.48645 99.774735,140.02718 99.703025,141.26156 C 99.655785,142.11274 98.547025,141.93744 97.591565,141.58972 C 97.902445,142.54884 98.381485,143.62675 97.300755,143.64993 C 96.030865,143.63327 96.532385,142.57347 96.973015,141.5564 C 96.144115,142.05334 94.819515,142.03161 94.794115,141.26519 C 94.762815,140.27275 96.092685,140.29158 96.931685,140.75738 z "
         id="path699"
         sodipodi:nodetypes="cscscscsc" />
      <path
         style="font-size:12px;fill-rule:evenodd;stroke-width:0.875;fill:black"
         d="M 92.256655,147.03415 C 92.031715,146.13371 91.597986,145.18329 92.535665,145.18401 C 93.464085,145.18474 93.300895,146.07431 92.937025,147.08123 C 93.763655,146.76322 95.099705,146.30395 95.027995,147.53833 C 94.980755,148.38951 93.871995,148.21421 92.916535,147.86649 C 93.227415,148.82561 93.706455,149.90352 92.625725,149.9267 C 91.355831,149.91004 91.857355,148.85024 92.297985,147.83317 C 91.469083,148.33011 90.144486,148.30838 90.11909,147.54196 C 90.087789,146.54952 91.41765,146.56835 92.256655,147.03415 z "
         id="path700"
         sodipodi:nodetypes="cscscscsc" />
    </g>
    <path
       sodipodi:nodetypes="cssc"
       id="path6428"
       d="M 53.627089,127.10514 C 53.627089,127.10514 64.653219,123.84743 68.66272,132.11702 C 71.596283,138.16749 68.161533,138.63245 65.154407,132.36761 C 64.669448,131.35728 61.896685,126.85454 57.887184,126.35336"
       style="opacity:1;color:black;fill:green;fill-opacity:1;fill-rule:nonzero;stroke:black;stroke-width:0.87707855;stroke-linecap:round;stroke-linejoin:round;marker:none;marker-start:none;marker-mid:none;marker-end:none;stroke-miterlimit:4;stroke-dasharray:none;stroke-dashoffset:0;stroke-opacity:1;visibility:visible;display:inline;overflow:visible" />
  </g>
  <use
     x="0"
     y="0"
     xlink:href="#g19201"
     id="use19283"
     width="206"
     height="315"
     transform="matrix(-1,0,0,-1,206,315)" />
  <path
     style="fill:none;fill-rule:evenodd;stroke:#000000;stroke-width:5.01187741;stroke-linecap:square;stroke-linejoin:miter;stroke-opacity:1;stroke-miterlimit:4;stroke-dasharray:none"
     d="M 155.22424,78.817038 L 51.032628,236.87643"
     id="path19289"
     sodipodi:nodetypes="cc" />
  <path
     style="fill:none;fill-rule:evenodd;stroke:#ffffff;stroke-width:2.50593871;stroke-linecap:square;stroke-linejoin:miter;stroke-opacity:1;stroke-miterlimit:4;stroke-dasharray:none"
     d="M 155.22424,78.817038 L 51.032628,236.87643"
     id="path21229"
     sodipodi:nodetypes="cc" />
</svg>
