<?xml version="1.0" encoding="UTF-8" standalone="no"?>
<!-- Created with Sodipodi ("http://www.sodipodi.com/") -->
<svg
   xmlns:dc="http://purl.org/dc/elements/1.1/"
   xmlns:cc="http://web.resource.org/cc/"
   xmlns:rdf="http://www.w3.org/1999/02/22-rdf-syntax-ns#"
   xmlns:svg="http://www.w3.org/2000/svg"
   xmlns="http://www.w3.org/2000/svg"
   xmlns:xlink="http://www.w3.org/1999/xlink"
   xmlns:sodipodi="http://sodipodi.sourceforge.net/DTD/sodipodi-0.dtd"
   xmlns:inkscape="http://www.inkscape.org/namespaces/inkscape"
   viewBox="0 0 206 315"
   id="svg548"
   sodipodi:version="0.32"
   width="205.51181"
   height="315.35434"
   sodipodi:docname="jack-of-clubs-work.svg"
   sodipodi:docbase="/home/mikelima/repo/trunk/playground/artwork/carddecks/tigullio"
   inkscape:version="0.44.1"
   version="1.0">
  <metadata
     id="metadata52">
    <rdf:RDF>
      <cc:Work
         rdf:about="">
        <dc:format>image/svg+xml</dc:format>
        <dc:type
           rdf:resource="http://purl.org/dc/dcmitype/StillImage" />
      </cc:Work>
    </rdf:RDF>
  </metadata>
  <defs
     id="defs550" />
  <sodipodi:namedview
     id="base"
     showgrid="false"
     showguides="false"
     inkscape:zoom="0.70710678"
     inkscape:cx="101.70527"
     inkscape:cy="253.39472"
     inkscape:window-width="1312"
     inkscape:window-height="1123"
     inkscape:window-x="74"
     inkscape:window-y="27"
     inkscape:current-layer="svg548"
     inkscape:document-units="mm"
     width="58.000001mm"
     height="89.000005mm"
     units="mm"
     bordercolor="black"
     borderopacity="0.47058824" />
  <image
     xlink:href="clubs-king-and-jack.jpg"
     sodipodi:absref="/home/repo/playground/artwork/carddecks/tigullio/clubs-king-and-jack.jpg"
     width="183.51704"
     height="283.18582"
     id="image707"
     style="opacity:1"
     x="12.028506"
     y="18.543947"
     sodipodi:insensitive="true" />
  <path
     sodipodi:nodetypes="cssssssssssssc"
     id="path2942"
     d="M 110.00263,39.624294 C 110.00263,39.624294 114.98945,38.874343 117.84114,44.160021 C 120.6928,49.445701 119.74236,53.7605 121.0758,58.316508 C 122.23995,62.294076 123.65595,66.815819 127.53418,67.474406 C 138.40202,69.319944 143.16859,68.828672 142.99554,72.443373 C 142.63292,80.018091 151.0074,81.639378 153.28882,75.605223 C 155.74778,69.101467 145.60094,71.243491 143.92387,66.904153 C 142.6754,63.673777 140.32167,62.241235 137.35949,62.115277 C 133.91808,61.968941 135.68731,59.429226 133.1918,55.965114 C 130.60635,52.376159 127.51184,52.066288 126.49761,49.779303 C 125.48337,47.492318 126.67529,42.840157 122.81096,39.696048 C 119.85011,37.287035 119.86457,41.332273 117.52245,40.573682 C 114.31942,39.536248 110.59317,35.244876 109.7345,37.242191 C 108.87583,39.239508 110.56727,39.685381 110.00263,39.624294 z "
     style="opacity:1;color:black;fill:#fe0;fill-opacity:1;fill-rule:evenodd;stroke:black;stroke-width:1.25296935;stroke-linecap:round;stroke-linejoin:round;marker:none;marker-start:none;marker-mid:none;marker-end:none;stroke-miterlimit:4;stroke-dasharray:none;stroke-dashoffset:0;stroke-opacity:1;visibility:visible;display:inline;overflow:visible" />
  <path
     style="fill:none;fill-opacity:1;fill-rule:evenodd;stroke:black;stroke-width:1pt;stroke-linecap:butt;stroke-linejoin:miter;stroke-opacity:1"
     d="M 204.1814,4.220791 L 3.535608,311.8187"
     id="path786" />
  <path
     style="fill:none;fill-opacity:1;fill-rule:evenodd;stroke:black;stroke-width:0.875;stroke-linecap:round;stroke-linejoin:miter;stroke-dasharray:none;stroke-opacity:1"
     d=""
     id="path734"
     sodipodi:nodetypes="c" />
  <path
     sodipodi:nodetypes="cccsssssssssssssss"
     id="path3009"
     d="M 92.500644,38.694725 C 91.460889,38.366971 87.035944,37.074129 85.629499,39.774063 C 84.205435,42.656037 85.589177,48.150111 85.945046,49.57015 C 84.084144,51.039376 79.89996,52.209994 78.568285,54.938775 C 77.902448,56.303165 81.313458,65.807504 78.524377,70.089394 C 77.427476,71.773393 73.774112,72.681915 72.491755,75.16504 C 71.209398,77.648166 73.551015,81.956489 72.164977,83.172869 C 69.762509,85.281262 67.169201,85.0938 66.464606,85.605446 C 63.326838,87.88396 66.209088,92.844214 63.350914,94.944271 C 60.110836,97.324932 58.28828,97.371742 58.564703,93.643072 C 58.779277,90.74869 54.370801,92.731382 54.503898,96.094142 C 54.657225,99.968062 57.054861,103.24967 61.412737,100.833 C 71.784865,95.081118 66.514708,89.514616 68.938676,88.786918 C 71.200107,88.108015 74.349097,87.186954 75.442068,85.463362 C 76.837039,83.263522 74.390647,76.116426 76.552974,75.837165 C 79.724185,75.427607 83.903851,73.779602 84.843175,72.183259 C 86.721824,68.990575 79.791824,63.187259 82.811989,60.098533 C 85.0901,57.768707 95.802989,39.735696 92.500644,38.694725 z "
     style="opacity:1;color:black;fill:#ffee80;fill-opacity:1;fill-rule:evenodd;stroke:black;stroke-width:1.25296915;stroke-linecap:round;stroke-linejoin:round;marker:none;marker-start:none;marker-mid:none;marker-end:none;stroke-miterlimit:4;stroke-dasharray:none;stroke-dashoffset:0;stroke-opacity:1;visibility:visible;display:inline;overflow:visible" />
  <path
     sodipodi:nodetypes="cssscsssscc"
     id="path3383"
     d="M 93.547914,57.825147 C 92.583767,59.192725 87.007201,71.348001 85.474983,72.972377 C 83.942764,74.596754 79.777732,72.773641 79.277192,74.456377 C 78.409589,77.373124 79.41277,79.695737 79.24234,80.545852 C 78.483365,84.33167 73.626621,81.204871 72.915926,84.654573 C 71.932639,91.347929 68.633438,89.932929 68.918398,87.215882 C 70.216957,74.834323 76.147616,80.681598 75.920926,77.808346 C 75.709437,75.127755 75.395812,71.396305 76.392432,70.031358 C 77.664432,68.289264 81.956641,69.696 81.976216,67.091762 C 82.004269,63.359737 81.296541,59.651806 82.243653,58.473023 C 85.809156,54.8116 94.697331,53.415877 93.547914,57.825147 z "
     style="opacity:1;color:black;fill:#fe0;fill-opacity:1;fill-rule:evenodd;stroke:black;stroke-width:0.87707835;stroke-linecap:round;stroke-linejoin:round;marker:none;marker-start:none;marker-mid:none;marker-end:none;stroke-miterlimit:4;stroke-dasharray:none;stroke-dashoffset:0;stroke-opacity:1;visibility:visible;display:inline;overflow:visible" />
  <path
     sodipodi:nodetypes="cssscsssssscc"
     id="path3385"
     d="M 100.33474,64.058068 C 99.028107,65.103331 87.233173,71.40638 85.704651,73.034236 C 84.176129,74.662092 86.248335,78.708967 84.59903,79.310579 C 81.740231,80.353372 79.361085,79.49281 78.522862,79.714452 C 74.790006,80.701492 77.230845,85.89138 73.830559,86.809856 C 72.175195,87.156647 72.019134,86.973815 71.564632,85.686105 C 70.819275,83.574332 68.094289,85.371254 68.630394,87.441646 C 68.869431,88.364785 69.32755,90.625892 71.693447,90.77808 C 81.211275,91.39032 78.574938,82.811714 81.456648,82.863838 C 84.145129,82.912468 87.888728,82.999351 89.19076,81.921833 C 90.852555,80.546583 89.188253,76.347528 91.786517,76.170145 C 95.509981,75.915944 99.253987,76.397632 100.37321,75.380815 C 103.81179,71.599946 104.66623,62.64352 100.33474,64.058068 z "
     style="opacity:1;color:black;fill:#ffee80;fill-opacity:1;fill-rule:evenodd;stroke:black;stroke-width:0.87707847;stroke-linecap:round;stroke-linejoin:round;marker:none;marker-start:none;marker-mid:none;marker-end:none;stroke-miterlimit:4;stroke-dasharray:none;stroke-dashoffset:0;stroke-opacity:1;visibility:visible;display:inline;overflow:visible" />
  <path
     sodipodi:nodetypes="cssssssssssscc"
     id="path3381"
     d="M 89.231459,63.051549 C 88.720025,64.546706 85.913859,68.600222 85.477785,70.723802 C 85.041711,72.847383 88.619805,75.426724 87.686805,76.650389 C 86.069603,78.771409 83.548991,79.262129 83.041131,79.806264 C 80.779481,82.229461 85.075852,85.154019 83.023459,87.379238 C 80.696829,89.901785 78.981536,90.377045 78.070911,87.587387 C 77.364038,85.421912 73.803134,87.936619 74.987374,90.359973 C 76.351625,93.151693 79.659897,94.967746 83.036243,92.148385 C 91.072244,85.43806 84.318487,82.648705 86.390454,81.530697 C 88.323487,80.487656 91.022834,79.052987 91.518082,77.529869 C 92.150171,75.585896 88.95783,71.084271 90.922515,70.357042 C 93.80387,69.290506 97.252874,67.07557 97.642304,65.682558 C 98.421174,62.896532 89.703153,60.485435 90.534216,57.22428 C 101.35554,36.545548 83.047135,40.52291 89.231459,63.051549 z "
     style="opacity:1;color:black;fill:#fe0;fill-opacity:1;fill-rule:evenodd;stroke:black;stroke-width:0.87707853;stroke-linecap:round;stroke-linejoin:round;marker:none;marker-start:none;marker-mid:none;marker-end:none;stroke-miterlimit:4;stroke-dasharray:none;stroke-dashoffset:0;stroke-opacity:1;visibility:visible;display:inline;overflow:visible" />
  <path
     sodipodi:nodetypes="cssssssssssssc"
     id="path3391"
     d="M 113.5339,41.152964 C 113.5339,41.152964 116.84151,40.264988 119.63677,45.736741 C 122.43201,51.208498 122.46144,55.743069 124.09818,60.482749 C 125.52711,64.620669 126.98606,70.872577 129.61887,70.407213 C 132.81316,69.840274 140.48577,70.798911 141.39256,74.810903 C 143.17068,82.677894 149.61725,80.504177 148.53467,75.870383 C 146.85214,68.668623 141.5039,73.360047 140.46149,68.457689 C 139.69568,64.856071 136.7021,67.875203 134.45896,65.384692 C 133.34701,64.150115 133.51687,61.12171 133.20148,60.530657 C 132.15293,58.565668 127.95792,59.021853 126.89937,56.64981 C 125.84082,54.277768 126.40313,51.782075 125.11467,47.957229 C 123.82619,44.132386 120.57973,42.735965 118.85059,41.990688 C 116.48585,40.97146 113.24698,36.558227 112.97293,38.665944 C 112.69887,40.773663 113.93151,41.205193 113.5339,41.152964 z "
     style="opacity:1;color:black;fill:#ffee80;fill-opacity:1;fill-rule:evenodd;stroke:black;stroke-width:0.87707883;stroke-linecap:round;stroke-linejoin:round;marker:none;marker-start:none;marker-mid:none;marker-end:none;stroke-miterlimit:4;stroke-dasharray:none;stroke-dashoffset:0;stroke-opacity:1;visibility:visible;display:inline;overflow:visible" />
  <path
     sodipodi:nodetypes="csssssssssssssc"
     id="path2948"
     d="M 109.37343,43.851694 C 109.37343,43.851694 111.39859,43.536055 113.95162,48.356624 C 116.50464,53.177196 117.48273,56.686052 119.00137,60.871995 C 120.3272,64.526484 116.69624,69.951567 125.06843,68.45072 C 127.39295,68.034012 130.3348,67.06408 130.79938,69.201893 C 132.09165,75.137233 135.63414,71.208648 136.41259,74.20801 C 137.34991,77.826778 141.52062,77.381209 140.81891,74.210174 C 139.3998,67.797202 134.57128,72.074257 133.57498,67.736078 C 132.84304,64.548942 131.55153,63.9367 128.63642,64.447331 C 126.59889,64.804238 126.43908,61.588165 126.20127,60.99846 C 125.4616,59.164209 123.29936,60.765119 122.32791,58.673352 C 121.35646,56.581585 120.23048,53.280939 119.03354,49.902523 C 117.83659,46.524107 115.62003,45.1642 114.08151,44.525367 C 111.97747,43.651712 109.04905,39.776649 108.8396,41.65131 C 108.63015,43.525974 109.72535,43.892825 109.37343,43.851694 z "
     style="opacity:1;color:black;fill:#fe0;fill-opacity:1;fill-rule:evenodd;stroke:black;stroke-width:0.87707853;stroke-linecap:round;stroke-linejoin:round;marker:none;marker-start:none;marker-mid:none;marker-end:none;stroke-miterlimit:4;stroke-dasharray:none;stroke-dashoffset:0;stroke-opacity:1;visibility:visible;display:inline;overflow:visible" />
  <path
     style="opacity:1;color:black;fill:#ffd0d0;fill-opacity:1;fill-rule:nonzero;stroke:black;stroke-width:0.875;stroke-linecap:round;stroke-linejoin:round;marker:none;marker-start:none;marker-mid:none;marker-end:none;stroke-miterlimit:4;stroke-dasharray:none;stroke-dashoffset:0;stroke-opacity:1;visibility:visible;display:inline;overflow:visible"
     d="M 87.331964,40.524956 C 87.331964,40.524956 88.584933,42.905598 87.958448,45.160943 C 87.331964,47.416287 86.52522,49.544471 86.454886,52.428165 C 86.329589,57.690636 88.527499,63.293313 89.712606,65.834936 C 90.83324,68.238287 93.22092,70.59622 94.84978,72.099784 C 94.223295,74.480426 93.847405,77.487552 93.847405,77.487552 C 93.847405,77.487552 100.61344,82.123538 105.75061,80.995866 C 110.88779,79.868194 116.27556,78.114036 118.4056,75.10691 C 120.53565,72.099784 121.78862,68.591469 121.78862,68.591469 C 121.78862,68.591469 119.40798,63.830186 119.40798,61.073653 C 119.40798,58.317121 122.5404,54.057025 122.79099,48.54396 C 123.04159,43.030895 123.66808,42.655004 119.78387,37.141939 C 115.89967,31.628873 106.2518,27.619372 101.61581,28.120559 C 96.979828,28.621747 88.334339,31.252983 86.329588,35.262484 C 84.725004,38.471652 86.956073,40.524956 87.331964,40.524956 z "
     id="path2113"
     sodipodi:nodetypes="csssccsscsssssc" />
  <path
     sodipodi:nodetypes="cssssssssc"
     id="path2940"
     d="M 114.7789,27.243973 C 114.7789,27.243973 117.52446,27.120709 118.55381,34.069472 C 119.58314,41.018235 118.93126,46.24781 119.07373,52.013895 C 119.1981,57.047907 119.1835,60.175928 121.58926,61.467316 C 123.99503,62.758705 125.42004,62.265279 125.73245,59.814305 C 126.05671,57.270366 123.01628,59.71434 122.71636,56.751411 C 122.41643,53.788483 122.51992,44.586031 122.43585,39.943325 C 122.35177,35.300618 121.77376,31.741761 120.42564,29.246985 C 119.07752,26.752209 115.88195,22.073355 114.98858,24.314425 C 114.0952,26.555496 115.14292,27.429913 114.7789,27.243973 z "
     style="opacity:1;color:black;fill:#ffee80;fill-opacity:1;fill-rule:evenodd;stroke:black;stroke-width:0.87707818;stroke-linecap:round;stroke-linejoin:round;marker:none;marker-start:none;marker-mid:none;marker-end:none;stroke-miterlimit:4;stroke-dasharray:none;stroke-dashoffset:0;stroke-opacity:1;visibility:visible;display:inline;overflow:visible" />
  <path
     sodipodi:nodetypes="cssssssssc"
     id="path2938"
     d="M 109.39252,28.418031 C 109.39252,28.418031 112.12228,28.141161 113.64507,34.09386 C 115.16785,40.04656 114.89098,44.61491 115.44472,49.598564 C 115.92816,53.949484 116.1369,56.658744 118.62872,57.627784 C 121.12055,58.596834 122.50669,58.081294 122.64333,55.939794 C 122.78515,53.717064 119.92695,56.021564 119.41627,53.474744 C 118.90559,50.927914 119.33073,42.953692 118.91543,38.939081 C 118.50012,34.92447 116.69063,31.878903 115.16785,29.80238 C 113.64507,27.725857 110.12362,23.872769 109.39252,25.86853 C 108.66141,27.864292 109.76889,28.556466 109.39252,28.418031 z "
     style="opacity:1;color:black;fill:#fe0;fill-opacity:1;fill-rule:evenodd;stroke:black;stroke-width:0.87707853;stroke-linecap:round;stroke-linejoin:round;marker:none;marker-start:none;marker-mid:none;marker-end:none;stroke-miterlimit:4;stroke-dasharray:none;stroke-dashoffset:0;stroke-opacity:1;visibility:visible;display:inline;overflow:visible" />
  <g
     id="g2868"
     transform="matrix(0.93271,0,0,0.843607,7.931596,0.114264)">
    <path
       sodipodi:nodetypes="cssssssscsscsc"
       id="path1978"
       d="M 71.567511,33.407683 C 73.045907,31.964309 77.529263,32.458389 81.56599,31.306684 C 87.116816,29.722998 88.915629,23.902386 92.12903,23.909792 C 95.208413,23.916889 97.783675,27.721918 104.58386,27.721918 C 111.38403,27.721918 114.68116,23.614392 117.1353,23.597555 C 120.21866,23.57546 120.25887,28.600478 127.35471,31.261417 C 134.45055,33.922356 135.78182,32.569866 136.68149,33.841278 C 138.38608,36.250231 134.22961,41.474972 131.86433,43.840251 C 129.49905,46.205531 123.73368,48.12732 123.73368,48.12732 C 123.73368,48.12732 114.01226,42.239486 106.92194,41.648166 C 99.831602,41.056846 90.176279,43.615167 88.10666,44.910349 C 86.03704,46.205531 83.320357,48.686284 83.320357,48.686284 C 83.320357,48.686284 79.993352,47.606845 76.445433,44.847705 C 72.897514,42.088564 71.053908,35.327591 71.567511,33.407683 z "
       style="fill:red;fill-opacity:1;fill-rule:evenodd;stroke:black;stroke-width:1.41252756;stroke-linecap:round;stroke-linejoin:round;stroke-miterlimit:4;stroke-dasharray:none;stroke-opacity:1" />
    <path
       sodipodi:nodetypes="cssssss"
       id="path2866"
       d="M 72.020488,36.261235 C 74.7951,36.766159 80.986345,35.756317 84.271763,34.453839 C 89.050642,32.559291 91.388038,28.378232 92.32215,28.297811 C 94.792676,28.085115 99.670626,31.803369 104.91078,31.728555 C 110.98759,31.644781 115.58251,28.524268 117.28443,28.620339 C 118.65873,28.697916 120.85196,32.993621 126.13273,34.98355 C 129.3677,36.202571 133.37608,37.034439 136.0226,37.255598"
       style="opacity:1;color:black;fill:none;fill-opacity:1;fill-rule:evenodd;stroke:black;stroke-width:0.98876917;stroke-linecap:round;stroke-linejoin:round;marker:none;marker-start:none;marker-mid:none;marker-end:none;stroke-miterlimit:4;stroke-dasharray:none;stroke-dashoffset:0;stroke-opacity:1;visibility:visible;display:inline;overflow:visible" />
  </g>
  <g
     id="g2948"
     transform="translate(-10.52494,-12.02851)">
    <path
       transform="translate(0.266683,0.340726)"
       d="M 104.53157 58.29953 A 1.7247709 2.5087578 0 1 1  101.08203,58.29953 A 1.7247709 2.5087578 0 1 1  104.53157 58.29953 z"
       sodipodi:ry="2.5087578"
       sodipodi:rx="1.7247709"
       sodipodi:cy="58.29953"
       sodipodi:cx="102.8068"
       id="path2895"
       style="opacity:1;color:black;fill:green;fill-opacity:1;fill-rule:nonzero;stroke:black;stroke-width:0.87707853;stroke-linecap:round;stroke-linejoin:round;marker:none;marker-start:none;marker-mid:none;marker-end:none;stroke-miterlimit:4;stroke-dasharray:none;stroke-dashoffset:0;stroke-opacity:1;visibility:visible;display:inline;overflow:visible"
       sodipodi:type="arc" />
    <path
       transform="translate(13.10479,0.815378)"
       d="M 104.53157 58.29953 A 1.7247709 2.5087578 0 1 1  101.08203,58.29953 A 1.7247709 2.5087578 0 1 1  104.53157 58.29953 z"
       sodipodi:ry="2.5087578"
       sodipodi:rx="1.7247709"
       sodipodi:cy="58.29953"
       sodipodi:cx="102.8068"
       id="path2897"
       style="opacity:1;color:black;fill:green;fill-opacity:1;fill-rule:nonzero;stroke:black;stroke-width:0.87707853;stroke-linecap:round;stroke-linejoin:round;marker:none;marker-start:none;marker-mid:none;marker-end:none;stroke-miterlimit:4;stroke-dasharray:none;stroke-dashoffset:0;stroke-opacity:1;visibility:visible;display:inline;overflow:visible"
       sodipodi:type="arc" />
  </g>
  <g
     id="g2952"
     transform="matrix(-1,0,0,1,208.4106,-11.52732)">
    <path
       sodipodi:nodetypes="cscc"
       id="path2899"
       d="M 110.6088,56.174441 C 110.6088,56.174441 110.91792,59.589054 111.63957,61.164119 C 112.51664,63.078405 113.51546,64.490286 114.31587,65.742075 C 112.41565,68.144891 109.23322,68.771734 109.23322,68.771734"
       style="opacity:1;color:black;fill:none;fill-opacity:1;fill-rule:evenodd;stroke:black;stroke-width:0.87707853;stroke-linecap:round;stroke-linejoin:round;marker:none;marker-start:none;marker-mid:none;marker-end:none;stroke-miterlimit:4;stroke-dasharray:none;stroke-dashoffset:0;stroke-opacity:1;visibility:visible;display:inline;overflow:visible" />
    <path
       id="path2901"
       d="M 114.2708,74.605723 C 114.2708,74.605723 113.26843,73.603347 112.26605,73.603347 C 111.26368,73.603347 108.7224,74.605723 107.25418,74.605723 C 105.78595,74.605723 105.24943,73.603347 105.24943,73.603347"
       style="opacity:1;color:black;fill:none;fill-opacity:1;fill-rule:evenodd;stroke:black;stroke-width:0.87707853;stroke-linecap:round;stroke-linejoin:round;marker:none;marker-start:none;marker-mid:none;marker-end:none;stroke-miterlimit:4;stroke-dasharray:none;stroke-dashoffset:0;stroke-opacity:1;visibility:visible;display:inline;overflow:visible" />
    <path
       sodipodi:nodetypes="csc"
       id="path2903"
       d="M 111.46921,54.204855 C 112.13086,53.067282 113.51855,52.087439 115.77437,52.087439 C 118.08834,52.087439 118.90679,53.681135 118.90679,53.681135"
       style="opacity:1;color:black;fill:none;fill-opacity:1;fill-rule:evenodd;stroke:black;stroke-width:0.87707853;stroke-linecap:round;stroke-linejoin:round;marker:none;marker-start:none;marker-mid:none;marker-end:none;stroke-miterlimit:4;stroke-dasharray:none;stroke-dashoffset:0;stroke-opacity:1;visibility:visible;display:inline;overflow:visible" />
    <path
       sodipodi:nodetypes="csc"
       id="path2905"
       d="M 97.898789,53.618134 C 98.629806,52.134631 100.31589,51.008337 101.74146,50.944663 C 104.54672,50.819366 106.81564,53.784257 106.81564,53.784257"
       style="opacity:1;color:black;fill:none;fill-opacity:1;fill-rule:evenodd;stroke:black;stroke-width:0.87707853;stroke-linecap:round;stroke-linejoin:round;marker:none;marker-start:none;marker-mid:none;marker-end:none;stroke-miterlimit:4;stroke-dasharray:none;stroke-dashoffset:0;stroke-opacity:1;visibility:visible;display:inline;overflow:visible" />
  </g>
  <path
     style="opacity:1;color:black;fill:none;fill-opacity:1;fill-rule:nonzero;stroke:black;stroke-width:0.875;stroke-linecap:round;stroke-linejoin:round;marker:none;marker-start:none;marker-mid:none;marker-end:none;stroke-miterlimit:4;stroke-dasharray:none;stroke-dashoffset:0;stroke-opacity:1;visibility:visible;display:inline;overflow:visible"
     d="M 94.724483,71.84919 C 94.724483,71.84919 96.47864,73.352753 98.608688,73.603347 C 100.73874,73.853941 109.25893,69.217954 114.772,64.581968"
     id="path3000"
     sodipodi:nodetypes="csc" />
</svg>
