<?xml version="1.0" encoding="UTF-8" standalone="no"?>
<!-- Created with Sodipodi ("http://www.sodipodi.com/") -->
<svg
   xmlns:dc="http://purl.org/dc/elements/1.1/"
   xmlns:cc="http://web.resource.org/cc/"
   xmlns:rdf="http://www.w3.org/1999/02/22-rdf-syntax-ns#"
   xmlns:svg="http://www.w3.org/2000/svg"
   xmlns="http://www.w3.org/2000/svg"
   xmlns:xlink="http://www.w3.org/1999/xlink"
   xmlns:sodipodi="http://sodipodi.sourceforge.net/DTD/sodipodi-0.dtd"
   xmlns:inkscape="http://www.inkscape.org/namespaces/inkscape"
   viewBox="0 0 206 315"
   id="svg548"
   sodipodi:version="0.32"
   width="205.51181"
   height="315.35434"
   sodipodi:docname="jack-of-spades-work.svg"
   sodipodi:docbase="/home/mikelima/repo/trunk/playground/artwork/carddecks/tigullio"
   inkscape:version="0.44.1"
   version="1.0">
  <metadata
     id="metadata52">
    <rdf:RDF>
      <cc:Work
         rdf:about="">
        <dc:format>image/svg+xml</dc:format>
        <dc:type
           rdf:resource="http://purl.org/dc/dcmitype/StillImage" />
      </cc:Work>
    </rdf:RDF>
  </metadata>
  <defs
     id="defs550" />
  <sodipodi:namedview
     id="base"
     showgrid="true"
     showguides="false"
     inkscape:zoom="1"
     inkscape:cx="40.068001"
     inkscape:cy="146.9668"
     inkscape:window-width="1019"
     inkscape:window-height="1103"
     inkscape:window-x="5"
     inkscape:window-y="36"
     inkscape:current-layer="svg548"
     inkscape:document-units="mm"
     width="58.000001mm"
     height="89.000005mm"
     units="mm"
     bordercolor="black"
     borderopacity="0.47058824" />
  <image
     xlink:href="spades-king-and-jack.png"
     sodipodi:absref="/home/repo/playground/artwork/carddecks/tigullio/spades-king-and-jack.png"
     width="183.51704"
     height="283.18582"
     id="image707"
     x="-195.46323"
     y="-298.95306"
     style="opacity:1"
     transform="scale(-1,-1)"
     sodipodi:insensitive="true" />
  <path
     style="opacity:1;color:black;fill:white;fill-opacity:1;fill-rule:evenodd;stroke:black;stroke-width:1.25;stroke-linecap:round;stroke-linejoin:round;marker:none;marker-start:none;marker-mid:none;marker-end:none;stroke-miterlimit:4;stroke-dasharray:none;stroke-dashoffset:0;stroke-opacity:1;visibility:visible;display:inline;overflow:visible"
     d="M 51.622337,201.28092 C 51.622337,201.28092 49.463791,202.98711 46.610459,205.16512 C 44.372292,206.87357 40.721503,210.54105 37.087893,212.55173 C 30.937785,215.95492 27.189434,215.94067 25.184683,211.80587 C 23.179932,207.67107 21.869742,198.90028 28.413793,181.48401 C 34.957845,164.06773 38.591456,155.92344 41.222691,152.54042 C 43.853927,149.1574 45.357491,145.19427 50.619962,141.51725 C 57.250466,136.88435 59.014856,139.13364 60.393123,139.63483 C 61.622503,140.08188 64.653218,144.02023 64.903812,146.77676 C 65.154406,149.53329 63.931035,150.66096 63.931035,152.66571 C 63.931035,154.67046 62.899061,158.42937 63.024358,161.4365 C 63.149655,164.44363 53.501791,194.89078 51.622337,201.28092 z "
     id="path2863"
     sodipodi:nodetypes="cssssssssssc" />
  <path
     style="opacity:1;color:black;fill:green;fill-opacity:1;fill-rule:evenodd;stroke:black;stroke-width:0.87707855;stroke-linecap:round;stroke-linejoin:round;marker:none;marker-start:none;marker-mid:none;marker-end:none;stroke-miterlimit:4;stroke-dasharray:none;stroke-dashoffset:0;stroke-opacity:1;visibility:visible;display:inline;overflow:visible"
     d="M 63.650843,144.8973 C 63.650843,144.8973 64.249703,142.55711 61.506983,139.00835 C 57.260699,138.09082 51.622337,139.50954 47.86343,142.26607 C 43.69744,145.32112 40.897032,150.63313 39.844425,153.54279 C 43.396855,158.18336 46.243434,156.47757 50.870556,156.67522 C 51.246446,155.72414 54.51502,150.28507 56.827586,149.90918 C 59.140153,149.53329 62.523171,150.41037 62.523171,150.41037 L 63.650843,144.8973 z "
     id="path2861"
     sodipodi:nodetypes="ccsccscc" />
  <g
     id="g2851">
    <path
       sodipodi:nodetypes="ccscccccccssc"
       id="path2816"
       d="M 62.827735,151.23872 C 65.46765,148.39368 64.812589,145.99505 64.670185,144.47765 C 63.19731,144.43854 60.379311,145.99076 60.379311,147.61689 C 60.379311,149.24302 59.440682,145.55157 56.988452,143.81242 C 55.866691,145.6951 55.557996,147.46906 56.384096,148.72561 C 54.992748,147.76472 52.519872,146.656 50.836668,146.656 C 50.705678,149.02127 50.853508,149.98217 52.110063,151.75613 C 49.744784,151.01698 48.562144,151.11809 47.231674,151.46047 C 47.896909,153.65072 48.783889,154.66221 50.262188,155.30405 C 48.562144,154.98499 45.235969,155.67362 44.94031,158.0389 C 47.379504,158.63022 48.742598,158.55631 49.724138,158.26065 C 50.705678,157.96499 52.553553,153.604 54.992747,151.83004 C 57.489138,150.01449 59.685159,149.51111 62.827735,151.23872 z "
       style="color:black;fill:red;fill-opacity:1;fill-rule:evenodd;stroke:black;stroke-width:0.87707853;stroke-linecap:round;stroke-linejoin:round;marker:none;marker-start:none;marker-mid:none;marker-end:none;stroke-miterlimit:4;stroke-dasharray:none;stroke-dashoffset:0;stroke-opacity:1;visibility:visible;display:inline;overflow:visible" />
    <g
       id="g2818">
      <path
         style="opacity:1;color:black;fill:#fe0;fill-opacity:1;fill-rule:evenodd;stroke:black;stroke-width:0.87707855;stroke-linecap:round;stroke-linejoin:round;marker:none;marker-start:none;marker-mid:none;marker-end:none;stroke-miterlimit:4;stroke-dasharray:none;stroke-dashoffset:0;stroke-opacity:1;visibility:visible;display:inline;overflow:visible"
         d="M 62.827736,151.75613 C 62.827736,151.75613 64.749525,150.72132 62.679906,148.50387 C 60.240256,145.88996 54.807048,149.51214 53.514448,150.57349 C 52.688126,151.25198 50.207836,152.78367 49.724138,155.72414 C 49.428478,157.5215 50.114358,159.73894 52.479638,158.85197 C 54.844917,157.96499 61.053776,153.23443 62.827736,151.75613 z "
         id="path2814"
         sodipodi:nodetypes="cssssc" />
    </g>
    <g
       id="g2845">
      <path
         style="color:black;fill:#ffd0d0;fill-opacity:1;fill-rule:evenodd;stroke:black;stroke-width:1.25;stroke-linecap:round;stroke-linejoin:round;marker:none;marker-start:none;marker-mid:none;marker-end:none;stroke-miterlimit:4;stroke-dasharray:none;stroke-dashoffset:0;stroke-opacity:1;visibility:visible;display:inline;overflow:visible"
         d="M 47.204505,181.6357 C 47.204505,181.6357 46.455688,180.03324 45.908125,178.68483 C 45.343989,177.29563 45.155025,174.3246 46.209153,173.9232 C 47.263283,173.5218 48.160427,174.40577 48.416635,175.77118 C 48.753405,177.56595 49.089026,178.25765 49.562943,178.85123 C 50.213721,179.66634 50.766789,182.0246 49.727638,182.34701 C 48.688488,182.66941 47.214758,181.71287 47.204505,181.6357 z "
         id="path2798"
         sodipodi:nodetypes="csssssc" />
      <path
         style="color:black;fill:#ffd0d0;fill-opacity:1;fill-rule:evenodd;stroke:black;stroke-width:1.25;stroke-linecap:round;stroke-linejoin:round;marker:none;marker-start:none;marker-mid:none;marker-end:none;stroke-miterlimit:4;stroke-dasharray:none;stroke-dashoffset:0;stroke-opacity:1;visibility:visible;display:inline;overflow:visible"
         d="M 49.234299,179.78459 C 48.670163,178.39539 48.481199,175.42436 49.535327,175.02296 C 50.589457,174.62156 51.486601,175.50553 51.742809,176.87094 C 53.623407,179.82654 52.294039,184.7503 49.234299,179.78459 z "
         id="path2800"
         sodipodi:nodetypes="cscc" />
      <path
         style="color:black;fill:#ffd0d0;fill-opacity:1;fill-rule:evenodd;stroke:black;stroke-width:1.25;stroke-linecap:round;stroke-linejoin:round;marker:none;marker-start:none;marker-mid:none;marker-end:none;stroke-miterlimit:4;stroke-dasharray:none;stroke-dashoffset:0;stroke-opacity:1;visibility:visible;display:inline;overflow:visible"
         d="M 45.507179,183.90914 C 45.507179,183.90914 44.472936,182.47423 43.683755,181.25144 C 42.87069,179.99165 42.13154,177.10784 43.092435,176.51709 C 44.05333,175.92633 45.09945,176.62769 45.605545,177.92147 C 46.27078,179.62208 46.729386,180.23914 47.305589,180.73404 C 48.096826,181.41364 49.079549,183.62758 48.118654,184.13794 C 47.157759,184.64829 45.531629,183.98305 45.507179,183.90914 z "
         id="path2796"
         sodipodi:nodetypes="csssssc" />
      <path
         style="color:black;fill:#ffd0d0;fill-opacity:1;fill-rule:evenodd;stroke:black;stroke-width:1.25296938;stroke-linecap:round;stroke-linejoin:round;marker:none;marker-start:none;marker-mid:none;marker-end:none;stroke-miterlimit:4;stroke-dasharray:none;stroke-dashoffset:0;stroke-opacity:1;visibility:visible;display:inline;overflow:visible"
         d="M 63.187797,152.83765 C 64.02574,153.92982 64.674426,155.09051 64.883489,158.64458 C 65.092552,162.19866 56.901501,182.55235 53.349777,184.13794 C 49.798053,185.72352 43.836479,187.20888 43.067007,187.18696 C 41.807625,187.15109 41.710197,185.07064 43.276071,184.6782 C 46.133984,183.96195 48.217495,182.4751 49.053747,181.93719 C 49.89,181.39927 51.539318,175.97788 51.539318,175.25672 C 51.539318,174.53556 50.373712,169.69957 50.840389,167.26256 C 51.12393,165.78188 51.925011,160.65913 53.423692,159.19569 C 52.335349,158.9888 51.957444,157.90326 51.957444,156.64888 C 51.957444,155.3945 52.696137,154.84341 54.540117,153.1709 C 56.384096,151.4984 57.667101,150.77449 59.792059,150.60091 C 61.29137,150.47844 62.980425,152.56737 63.187797,152.83765 z "
         id="path1905"
         sodipodi:nodetypes="cssssssscssss" />
    </g>
  </g>
  <path
     style="color:black;fill:none;fill-opacity:1;fill-rule:evenodd;stroke:black;stroke-width:0.87707853;stroke-linecap:round;stroke-linejoin:round;marker:none;marker-start:none;marker-mid:none;marker-end:none;stroke-miterlimit:4;stroke-dasharray:none;stroke-dashoffset:0;stroke-opacity:1;visibility:visible;display:inline;overflow:visible"
     d="M 55.214492,157.37367 C 54.840707,158.05248 53.668126,159.08674 53.201947,159.76556"
     id="path2794"
     sodipodi:nodetypes="cz" />
  <path
     style="fill:none;fill-opacity:1;fill-rule:evenodd;stroke:black;stroke-width:1pt;stroke-linecap:butt;stroke-linejoin:miter;stroke-opacity:1"
     d="M 204.1814,4.220791 L 3.535608,311.8187"
     id="path786" />
  <path
     style="fill:none;fill-opacity:1;fill-rule:evenodd;stroke:black;stroke-width:0.875;stroke-linecap:round;stroke-linejoin:miter;stroke-dasharray:none;stroke-opacity:1"
     d=""
     id="path734"
     sodipodi:nodetypes="c" />
  <path
     style="opacity:1;color:black;fill:#fe0;fill-opacity:1;fill-rule:evenodd;stroke:black;stroke-width:1.25046341;stroke-linecap:round;stroke-linejoin:round;marker:none;marker-start:none;marker-mid:none;marker-end:none;stroke-miterlimit:4;stroke-dasharray:none;stroke-dashoffset:0;stroke-opacity:1;visibility:visible;display:inline;overflow:visible"
     d="M 133.08778,24.281567 C 135.28196,22.737108 137.21051,22.338407 138.74594,22.338407 C 140.28136,22.338407 143.17357,24.029563 143.17357,24.029563 C 147.21795,22.83803 155.03635,21.550004 157.20683,26.034314 C 158.08935,27.857635 156.20445,30.043816 156.20445,30.043816 L 156.20445,30.043816 C 161.00949,32.564462 164.48247,46.859891 157.1023,47.972534 C 156.58199,52.628547 153.76595,56.111682 149.87661,58.171921 C 144.86473,60.176672 138.02936,59.340419 137.56354,57.335668 C 133.35017,56.561702 130.35675,52.108745 132.14744,48.043634 C 134.07793,43.661153 136.35562,43.357997 138.57982,42.955018 C 140.72069,42.567136 141.02134,43.686739 141.02134,43.686739 C 141.02134,43.686739 143.58861,41.236981 144.21889,39.920099 C 146.51858,35.11515 142.65066,31.755522 140.60322,31.734972 C 135.26386,31.681382 134.0825,33.502496 128.85838,35.873295 C 125.06786,37.5935 128.90488,33.931874 124.91522,33.678132 C 124.91522,33.678132 126.13319,28.039065 127.13556,27.03669 C 128.13794,26.034314 129.56176,24.199141 133.08778,24.281567 z "
     id="path2872"
     sodipodi:nodetypes="cscscccccsscssscsc" />
  <path
     style="opacity:1;color:black;fill:#ffd0d0;fill-opacity:1;fill-rule:evenodd;stroke:black;stroke-width:1.25;stroke-linecap:round;stroke-linejoin:round;marker:none;marker-start:none;marker-mid:none;marker-end:none;stroke-miterlimit:4;stroke-dasharray:none;stroke-dashoffset:0;stroke-opacity:1;visibility:visible;display:inline;overflow:visible"
     d="M 118.32974,77.846936 C 118.32974,77.846936 120.84034,81.132006 121.39378,84.635793 C 120.3339,103.04628 95.528841,106.95301 88.433709,87.254777 C 89.479025,82.446325 92.824035,74.981613 92.824035,74.981613 L 118.32974,77.846936 z "
     id="path2925"
     sodipodi:nodetypes="ccccc" />
  <path
     style="opacity:1;color:black;fill:#fe0;fill-opacity:1;fill-rule:evenodd;stroke:black;stroke-width:0.87707855;stroke-linecap:round;stroke-linejoin:round;marker:none;marker-start:none;marker-mid:none;marker-end:none;stroke-miterlimit:4;stroke-dasharray:none;stroke-dashoffset:0;stroke-opacity:1;visibility:visible;display:inline;overflow:visible"
     d="M 88.209042,80.460225 C 88.209042,80.460225 89.479025,85.082195 91.621923,89.554471 C 93.76482,94.026748 96.941116,96.657223 99.948243,97.133011 C 102.95537,97.608798 107.51392,96.150258 111.01203,95.241901 C 114.46265,94.345875 118.6312,93.024645 119.61492,87.620638 C 120.27981,83.96808 120.58072,80.741687 117.09767,78.547625 C 118.49301,73.914369 120.21115,69.535293 120.21115,69.535293 C 129.00429,75.827066 129.85801,89.04546 124.93072,94.065588 C 122.656,96.383161 121.08959,99.267105 113.26843,102.51639 C 107.273,105.00718 102.81076,104.37715 100.74191,103.51481 C 95.854478,101.47762 92.569148,100.63001 90.513198,99.482115 C 85.747592,96.821349 85.580537,95.315736 84.430331,74.799806 C 88.010685,74.019175 88.209042,80.460225 88.209042,80.460225"
     id="path2937"
     sodipodi:nodetypes="cssssccsssscc" />
  <path
     style="opacity:1;color:black;fill:#ffee80;fill-opacity:1;fill-rule:evenodd;stroke:black;stroke-width:1.25;stroke-linecap:round;stroke-linejoin:round;marker:none;marker-start:none;marker-mid:none;marker-end:none;stroke-miterlimit:4;stroke-dasharray:none;stroke-dashoffset:0;stroke-opacity:1;visibility:visible;display:inline;overflow:visible"
     d="M 124.38807,62.207253 C 124.38807,62.207253 126.43062,74.765596 130.12387,74.33453 C 134.42522,73.832491 133.59558,76.681595 133.25765,78.875796 C 132.96982,80.744683 135.25163,81.768987 137.55635,81.175491 C 140.35225,80.45551 141.0986,83.560159 137.55635,83.893312 C 132.86694,84.334358 129.99786,84.151558 130.08333,80.550998 C 130.1676,77.000274 130.392,76.576102 129.13762,76.994228 C 127.88324,77.412354 122.83601,71.148791 122.83601,71.148791"
     id="path2831"
     sodipodi:nodetypes="cssssssc" />
  <path
     style="opacity:1;color:black;fill:#ffee80;fill-opacity:1;fill-rule:evenodd;stroke:black;stroke-width:1.25;stroke-linecap:round;stroke-linejoin:round;marker:none;marker-start:none;marker-mid:none;marker-end:none;stroke-miterlimit:4;stroke-dasharray:none;stroke-dashoffset:0;stroke-opacity:1;visibility:visible;display:inline;overflow:visible"
     d="M 125.58155,48.42298 C 125.58155,48.42298 127.2816,50.270855 127.13377,52.26656 C 127.04641,53.445969 125.74043,55.962309 125.74043,57.884099 C 126.33573,59.711307 130.39618,60.316447 130.24717,62.008689 C 130.22477,62.263065 130.35466,63.438993 129.2506,64.353566 C 131.78264,66.562814 131.98484,67.857954 131.92556,68.902684 C 131.79073,71.279096 130.49881,72.508793 128.9499,73.640671 C 127.40099,74.77255 126.69091,78.115671 128.90773,78.062889 C 132.01216,77.988973 131.44453,81.298871 128.39032,81.176131 C 126.33175,81.093402 123.15793,80.848346 124.39892,75.401949 C 124.66974,74.213376 125.83113,72.167851 127.05986,70.37573 C 128.58756,68.147565 126.32071,66.162575 123.8076,64.536446 C 124.25109,67.56696 124.69457,71.514214 118.78137,76.192937 C 119.70275,62.240589 116.4446,49.951495 119.44661,45.614211 C 119.59444,43.840251 124.10326,46.649021 125.58155,48.42298 z "
     id="path2919"
     sodipodi:nodetypes="cscscsssssscccc" />
  <path
     style="opacity:1;color:black;fill:none;fill-opacity:1;fill-rule:evenodd;stroke:black;stroke-width:0.87707855;stroke-linecap:round;stroke-linejoin:round;marker:none;marker-start:none;marker-mid:none;marker-end:none;stroke-miterlimit:4;stroke-dasharray:none;stroke-dashoffset:0;stroke-opacity:1;visibility:visible;display:inline;overflow:visible"
     d="M 123.73567,64.957859 C 123.73567,64.957859 123.29218,62.953108 122.28981,61.950732 C 121.28743,60.948357 120.851,59.945981 120.851,59.945981"
     id="path2923"
     sodipodi:nodetypes="csc" />
  <path
     style="opacity:1;color:black;fill:#ffd0d0;fill-opacity:1;fill-rule:evenodd;stroke:black;stroke-width:1.25296935;stroke-linecap:round;stroke-linejoin:round;marker:none;marker-start:none;marker-mid:none;marker-end:none;stroke-miterlimit:4;stroke-dasharray:none;stroke-dashoffset:0;stroke-opacity:1;visibility:visible;display:inline;overflow:visible"
     d="M 121.95555,47.359586 C 122.28276,49.912947 122.30194,52.50946 122.511,54.934104 C 122.72006,57.358748 122.03562,59.242224 121.46569,59.945981 C 120.67763,60.919095 120.00224,61.017352 119.89771,61.853605 C 119.76805,62.890849 121.04756,63.839705 121.46569,66.348463 C 121.88381,68.85722 121.04756,74.40471 117.07536,79.993491 C 113.10316,85.582272 110.17628,88.300093 108.50377,88.509156 C 106.83127,88.718219 99.717938,86.627588 95.225671,83.909767 C 90.733404,81.191946 86.970267,75.965367 86.970267,75.965367 C 86.970267,75.965367 84.58472,70.96192 84.46151,65.094084 C 84.252446,55.137529 83.834321,51.295916 87.80652,46.90559 C 91.77872,42.515264 96.378109,39.379317 107.45846,40.424633 C 117.0102,41.325742 121.69646,45.337781 121.95555,47.359586 z "
     id="path2888"
     sodipodi:nodetypes="cssssssscssss" />
  <path
     style="opacity:1;color:black;fill:#ffee80;fill-opacity:1;fill-rule:nonzero;stroke:black;stroke-width:1.25;stroke-linecap:round;stroke-linejoin:round;marker:none;marker-start:none;marker-mid:none;marker-end:none;stroke-miterlimit:4;stroke-dasharray:none;stroke-dashoffset:0;stroke-opacity:1;visibility:visible;display:inline;overflow:visible"
     d="M 97.005298,41.679012 C 97.005298,41.679012 98.779518,42.072196 98.886866,44.492223 C 99.09593,49.309817 98.806525,53.776256 94.284887,54.327332 C 94.885296,52.265119 96.477459,49.205285 95.85286,46.696527 C 95.332793,48.682627 95.960356,50.448526 94.598482,51.714043 C 93.079945,53.125139 92.886332,54.118973 93.095395,55.791478 C 93.304458,57.463983 96.893531,60.460852 97.214362,61.54001 C 98.364209,65.407678 96.897933,68.610094 96.064514,68.334562 C 94.551049,67.834204 95.960687,65.575211 95.333497,64.111769 C 94.706308,62.648327 92.507394,60.912821 91.360593,59.031253 C 90.213793,57.149684 89.276056,56.104369 90.213793,54.013737 C 91.15153,51.923106 89.162383,53.517135 89.688088,56.731558 C 90.213793,59.945981 91.987783,61.121884 92.196846,62.794389 C 92.405909,64.466894 91.357547,66.0722 90.837936,67.184715 C 90.318325,68.297231 88.744257,69.693473 89.479025,71.575041 C 90.213793,73.45661 93.242162,73.874736 92.824035,76.383494 C 92.440505,79.171558 88.855984,83.848536 90.524341,85.318963 C 91.586625,86.25522 94.118689,85.694491 93.660288,87.986498 C 93.346694,89.554471 87.460826,88.10338 86.970267,85.895867 C 86.761204,84.955083 87.354058,82.536447 88.329178,80.460225 C 89.900198,77.115214 86.970267,76.383493 86.970267,76.383493 C 86.970267,76.383493 89.645475,78.09286 88.329178,80.460224 C 87.15485,82.572256 85.305139,86.433362 85.506826,88.09103 C 85.643195,89.211854 91.575751,88.927282 90.213793,91.226977 C 88.851836,93.526671 89.060899,92.436708 88.538241,93.317609 C 88.43371,90.853499 85.193231,90.95803 83.729789,90.95803 C 84.474192,92.11313 84.897006,92.794951 81.229716,94.676519 C 77.562426,96.558087 77.562426,98.021528 77.562426,98.021528 C 77.562426,98.021528 72.469025,97.289808 75.277055,94.15386 C 78.085084,91.017913 80.698373,90.868735 78.398679,89.868067 C 76.098984,88.867399 75.616248,89.659003 75.178161,88.509156 C 74.426479,89.659003 72.863324,90.570428 71.290532,91.645103 C 68.742467,93.386173 68.363648,95.199177 70.036153,96.453556 C 71.708658,97.707935 72.095547,99.484968 69.513495,100.53029 C 66.931443,101.5756 66.273017,102.58755 67.318332,100.53029 C 68.363648,98.473026 67.510472,98.485624 66.063953,96.976213 C 63.659727,94.467455 66.377548,91.28686 68.259116,90.077129 C 71.076216,88.26591 76.631552,81.680914 73.694757,82.13273 C 72.335847,82.341794 70.440505,81.384487 71.002537,79.310377 C 72.022252,75.547241 77.353362,75.44271 80.071183,69.379878 C 82.789004,63.317047 80.494193,59.327154 81.743689,54.431864 C 82.503243,51.456075 84.211508,49.604306 88.224646,46.487464 C 91.769272,43.734496 93.039411,42.392121 97.005298,41.679012 z "
     id="path2890"
     sodipodi:nodetypes="csccssssssssssscsssscsssccscsscsssssssssssc" />
  <path
     style="opacity:1;color:black;fill:none;fill-opacity:1;fill-rule:evenodd;stroke:black;stroke-width:0.87707855;stroke-linecap:round;stroke-linejoin:round;marker:none;marker-start:none;marker-mid:none;marker-end:none;stroke-miterlimit:4;stroke-dasharray:none;stroke-dashoffset:0;stroke-opacity:1;visibility:visible;display:inline;overflow:visible"
     d="M 93.660289,42.619796 C 91.360594,44.788826 90.220686,46.887438 87.80652,51.295916 C 85.402294,55.686243 86.343078,58.613126 87.701988,60.703758 C 89.035586,62.755448 89.374452,64.864163 86.343078,68.439094 C 85.287056,69.684472 83.771791,71.351302 83.843005,72.306762 C 83.941074,73.622517 85.3522,75.390444 86.656673,76.17443"
     id="path2909"
     sodipodi:nodetypes="csssss" />
  <g
     id="g2868"
     transform="translate(1.672505,0.418126)">
    <path
       sodipodi:nodetypes="cssssssscsscss"
       id="path1978"
       d="M 75.387224,32.655901 C 76.731284,31.212527 80.956126,32.401045 84.992853,31.24934 C 90.543679,29.665654 91.102117,24.31929 94.315518,24.326696 C 97.394901,24.333793 99.933057,28.761595 106.73324,28.761595 C 113.53341,28.761595 115.21851,24.357018 117.67265,24.340181 C 120.75601,24.318086 120.12453,29.194579 127.22037,31.855518 C 134.31621,34.516457 135.78182,32.569866 136.68149,33.841278 C 138.38608,36.250231 134.22961,41.474972 131.86433,43.840251 C 129.49905,46.205531 123.73368,48.12732 123.73368,48.12732 C 123.73368,48.12732 114.01226,42.239486 106.92194,41.648166 C 99.831602,41.056846 90.176279,43.615167 88.10666,44.910349 C 86.03704,46.205531 86.3327,46.205531 86.3327,46.205531 C 86.3327,46.205531 84.068875,45.834878 80.520956,43.075738 C 76.973037,40.316597 74.277752,33.847354 75.387224,32.655901 z "
       style="fill:red;fill-opacity:1;fill-rule:evenodd;stroke:black;stroke-width:1.25296938;stroke-linecap:round;stroke-linejoin:round;stroke-miterlimit:4;stroke-dasharray:none;stroke-opacity:1" />
    <path
       sodipodi:nodetypes="cssssss"
       id="path2866"
       d="M 75.387224,35.198055 C 77.893163,34.663302 82.049525,35.57912 85.334943,34.276642 C 90.113822,32.382094 93.03718,28.909822 93.971292,28.829401 C 96.441818,28.616705 101.01399,32.100419 106.25414,32.025605 C 112.33095,31.941831 115.58251,28.524268 117.28443,28.620339 C 118.65873,28.697916 120.85196,32.993621 126.13273,34.98355 C 129.3677,36.202571 133.51042,36.440338 136.15694,36.661497"
       style="opacity:1;color:black;fill:none;fill-opacity:1;fill-rule:evenodd;stroke:black;stroke-width:0.87707853;stroke-linecap:round;stroke-linejoin:round;marker:none;marker-start:none;marker-mid:none;marker-end:none;stroke-miterlimit:4;stroke-dasharray:none;stroke-dashoffset:0;stroke-opacity:1;visibility:visible;display:inline;overflow:visible" />
  </g>
  <path
     style="opacity:1;color:black;fill:none;fill-opacity:1;fill-rule:evenodd;stroke:black;stroke-width:0.87707855;stroke-linecap:round;stroke-linejoin:round;marker:none;marker-start:none;marker-mid:none;marker-end:none;stroke-miterlimit:4;stroke-dasharray:none;stroke-dashoffset:0;stroke-opacity:1;visibility:visible;display:inline;overflow:visible"
     d="M 128.57383,32.89836 C 128.57383,32.89836 131.70978,25.999276 142.58106,26.208339 C 153.45235,26.417402 155.96111,34.361802 155.96111,38.543065 C 155.96111,42.724328 151.9889,50.250601 146.97139,51.295916 C 141.95387,52.341232 136.4137,50.668727 136.4137,47.950906 C 136.4137,46.696527 136.62276,45.223944 138.60886,44.910349"
     id="path2874"
     sodipodi:nodetypes="cssssc" />
  <path
     style="opacity:1;color:black;fill:none;fill-opacity:1;fill-rule:evenodd;stroke:black;stroke-width:0.87707855;stroke-linecap:round;stroke-linejoin:round;marker:none;marker-start:none;marker-mid:none;marker-end:none;stroke-miterlimit:4;stroke-dasharray:none;stroke-dashoffset:0;stroke-opacity:1;visibility:visible;display:inline;overflow:visible"
     d="M 129.26349,28.392624 C 129.26349,28.392624 131.19188,25.817034 132.85963,24.862839"
     id="path2876"
     sodipodi:nodetypes="cc" />
  <path
     style="opacity:1;color:black;fill:none;fill-opacity:1;fill-rule:evenodd;stroke:black;stroke-width:0.87707855;stroke-linecap:round;stroke-linejoin:round;marker:none;marker-start:none;marker-mid:none;marker-end:none;stroke-miterlimit:4;stroke-dasharray:none;stroke-dashoffset:0;stroke-opacity:1;visibility:visible;display:inline;overflow:visible"
     d="M 141.33494,24.862839 L 144.34207,23.860464"
     id="path2878" />
  <path
     style="opacity:1;color:black;fill:none;fill-opacity:1;fill-rule:evenodd;stroke:black;stroke-width:0.87707855;stroke-linecap:round;stroke-linejoin:round;marker:none;marker-start:none;marker-mid:none;marker-end:none;stroke-miterlimit:4;stroke-dasharray:none;stroke-dashoffset:0;stroke-opacity:1;visibility:visible;display:inline;overflow:visible"
     d="M 152.36107,27.869966 C 152.36107,27.869966 155.95245,29.874717 156.95482,30.877092"
     id="path2880"
     sodipodi:nodetypes="cc" />
  <path
     style="opacity:1;color:black;fill:none;fill-opacity:1;fill-rule:evenodd;stroke:black;stroke-width:0.87707855;stroke-linecap:round;stroke-linejoin:round;marker:none;marker-start:none;marker-mid:none;marker-end:none;stroke-miterlimit:4;stroke-dasharray:none;stroke-dashoffset:0;stroke-opacity:1;visibility:visible;display:inline;overflow:visible"
     d="M 156.32763,43.680259 C 156.32763,43.680259 157.01642,45.793414 156.85029,48.022007"
     id="path2882"
     sodipodi:nodetypes="cc" />
  <path
     style="opacity:1;color:black;fill:none;fill-opacity:1;fill-rule:evenodd;stroke:black;stroke-width:0.87707855;stroke-linecap:round;stroke-linejoin:round;marker:none;marker-start:none;marker-mid:none;marker-end:none;stroke-miterlimit:4;stroke-dasharray:none;stroke-dashoffset:0;stroke-opacity:1;visibility:visible;display:inline;overflow:visible"
     d="M 147.23338,54.133416 C 147.23338,54.133416 146.0406,56.873761 137.82554,57.220785"
     id="path2884"
     sodipodi:nodetypes="cc" />
  <path
     style="opacity:1;color:black;fill:none;fill-opacity:1;fill-rule:evenodd;stroke:black;stroke-width:0.87707855;stroke-linecap:round;stroke-linejoin:round;marker:none;marker-start:none;marker-mid:none;marker-end:none;stroke-miterlimit:4;stroke-dasharray:none;stroke-dashoffset:0;stroke-opacity:1;visibility:visible;display:inline;overflow:visible"
     d="M 140.81228,44.012505 C 139.80991,44.762877 145.33741,52.479192 150.03028,42.710992"
     id="path2886"
     sodipodi:nodetypes="cc" />
  <path
     sodipodi:type="arc"
     style="opacity:1;color:black;fill:green;fill-opacity:1;fill-rule:nonzero;stroke:black;stroke-width:0.87707853;stroke-linecap:round;stroke-linejoin:round;marker:none;marker-start:none;marker-mid:none;marker-end:none;stroke-miterlimit:4;stroke-dasharray:none;stroke-dashoffset:0;stroke-opacity:1;visibility:visible;display:inline;overflow:visible"
     id="path2895"
     sodipodi:cx="102.8068"
     sodipodi:cy="58.29953"
     sodipodi:rx="1.7247709"
     sodipodi:ry="2.5087578"
     d="M 104.53157 58.29953 A 1.7247709 2.5087578 0 1 1  101.08203,58.29953 A 1.7247709 2.5087578 0 1 1  104.53157 58.29953 z"
     transform="translate(1.018465,0.59132)" />
  <path
     sodipodi:type="arc"
     style="opacity:1;color:black;fill:green;fill-opacity:1;fill-rule:nonzero;stroke:black;stroke-width:0.87707853;stroke-linecap:round;stroke-linejoin:round;marker:none;marker-start:none;marker-mid:none;marker-end:none;stroke-miterlimit:4;stroke-dasharray:none;stroke-dashoffset:0;stroke-opacity:1;visibility:visible;display:inline;overflow:visible"
     id="path2897"
     sodipodi:cx="102.8068"
     sodipodi:cy="58.29953"
     sodipodi:rx="1.7247709"
     sodipodi:ry="2.5087578"
     d="M 104.53157 58.29953 A 1.7247709 2.5087578 0 1 1  101.08203,58.29953 A 1.7247709 2.5087578 0 1 1  104.53157 58.29953 z"
     transform="translate(13.10479,0.815378)" />
  <path
     style="opacity:1;color:black;fill:none;fill-opacity:1;fill-rule:evenodd;stroke:black;stroke-width:0.87707855;stroke-linecap:round;stroke-linejoin:round;marker:none;marker-start:none;marker-mid:none;marker-end:none;stroke-miterlimit:4;stroke-dasharray:none;stroke-dashoffset:0;stroke-opacity:1;visibility:visible;display:inline;overflow:visible"
     d="M 110.10761,56.675629 C 110.10761,56.675629 110.2613,60.126913 111.26368,61.54001 C 112.26605,62.953108 114.51783,65.993849 114.56646,66.995044 C 114.67099,69.147267 113.37918,70.618854 111.63886,70.514322 C 111.22234,70.489304 107.60436,69.147625 107.60436,69.147625"
     id="path2899"
     sodipodi:nodetypes="csssc" />
  <path
     style="opacity:1;color:black;fill:none;fill-opacity:1;fill-rule:evenodd;stroke:black;stroke-width:0.87707855;stroke-linecap:round;stroke-linejoin:round;marker:none;marker-start:none;marker-mid:none;marker-end:none;stroke-miterlimit:4;stroke-dasharray:none;stroke-dashoffset:0;stroke-opacity:1;visibility:visible;display:inline;overflow:visible"
     d="M 114.2708,74.981613 C 114.2708,74.981613 113.26843,75.983989 112.26605,75.983989 C 111.26368,75.983989 108.7224,74.981613 107.25418,74.981613 C 105.78595,74.981613 105.24943,75.983989 105.24943,75.983989"
     id="path2901" />
  <path
     style="opacity:1;color:black;fill:none;fill-opacity:1;fill-rule:evenodd;stroke:black;stroke-width:0.87707855;stroke-linecap:round;stroke-linejoin:round;marker:none;marker-start:none;marker-mid:none;marker-end:none;stroke-miterlimit:4;stroke-dasharray:none;stroke-dashoffset:0;stroke-opacity:1;visibility:visible;display:inline;overflow:visible"
     d="M 110.96802,54.079558 C 111.62967,52.941985 114.01974,52.338033 116.27556,52.338033 C 118.58953,52.338033 120.28506,54.934104 120.28506,54.934104"
     id="path2903"
     sodipodi:nodetypes="csc" />
  <path
     style="opacity:1;color:black;fill:none;fill-opacity:1;fill-rule:evenodd;stroke:black;stroke-width:0.87707853;stroke-linecap:round;stroke-linejoin:round;marker:none;marker-start:none;marker-mid:none;marker-end:none;stroke-miterlimit:4;stroke-dasharray:none;stroke-dashoffset:0;stroke-opacity:1;visibility:visible;display:inline;overflow:visible"
     d="M 97.898789,53.618134 C 99.256291,52.635819 101.69273,52.197632 103.11973,52.197632 C 104.54672,52.197632 106.81564,53.784257 106.81564,53.784257"
     id="path2905"
     sodipodi:nodetypes="csc" />
  <path
     style="opacity:1;color:black;fill:#fe0;fill-opacity:1;fill-rule:evenodd;stroke:black;stroke-width:0.87707855;stroke-linecap:round;stroke-linejoin:round;marker:none;marker-start:none;marker-mid:none;marker-end:none;stroke-miterlimit:4;stroke-dasharray:none;stroke-dashoffset:0;stroke-opacity:1;visibility:visible;display:inline;overflow:visible"
     d="M 143.69073,31.274704 C 146.35856,30.699377 147.98159,33.154463 144.30963,35.477914 C 143.17897,36.193342 140.14182,36.452242 140.33257,38.814033 C 140.4622,40.41906 141.0022,42.509782 143.5429,42.509782 C 146.08359,42.509782 147.09082,38.961862 147.23865,38.222713"
     id="path2907"
     sodipodi:nodetypes="csssc" />
  <path
     style="opacity:1;color:black;fill:none;fill-opacity:1;fill-rule:evenodd;stroke:black;stroke-width:0.87707855;stroke-linecap:round;stroke-linejoin:round;marker:none;marker-start:none;marker-mid:none;marker-end:none;stroke-miterlimit:4;stroke-dasharray:none;stroke-dashoffset:0;stroke-opacity:1;visibility:visible;display:inline;overflow:visible"
     d="M 75.178161,88.430621 C 75.178161,88.430621 78.889437,84.687901 79.339463,82.687022 C 80.190039,78.905235 75.80535,80.055082 75.80535,79.052707 C 75.80535,78.050331 79.769198,75.775021 80.651105,74.520547 C 82.117157,72.435151 84.001962,68.689987 84.365663,67.755922 C 85.670462,64.404909 84.85389,62.676308 84.1566,59.972036 C 82.980835,55.412107 84.016047,53.498822 85.611357,51.926977 C 87.206667,50.355132 89.211418,48.919851 89.211418,48.919851"
     id="path2911"
     sodipodi:nodetypes="cssssssc" />
  <path
     style="opacity:1;color:black;fill:none;fill-opacity:1;fill-rule:evenodd;stroke:black;stroke-width:0.87707855;stroke-linecap:round;stroke-linejoin:round;marker:none;marker-start:none;marker-mid:none;marker-end:none;stroke-miterlimit:4;stroke-dasharray:none;stroke-dashoffset:0;stroke-opacity:1;visibility:visible;display:inline;overflow:visible"
     d="M 77.315073,97.199441 C 75.429738,94.59616 85.542445,90.783631 80.419501,88.484901 C 78.78425,87.751143 77.98556,87.615857 76.907451,86.822903"
     id="path2913"
     sodipodi:nodetypes="css" />
  <path
     style="opacity:1;color:black;fill:none;fill-opacity:1;fill-rule:evenodd;stroke:black;stroke-width:0.87707855;stroke-linecap:round;stroke-linejoin:round;marker:none;marker-start:none;marker-mid:none;marker-end:none;stroke-miterlimit:4;stroke-dasharray:none;stroke-dashoffset:0;stroke-opacity:1;visibility:visible;display:inline;overflow:visible"
     d="M 82.341291,71.780115 C 82.341291,71.780115 80.271672,74.884544 82.045631,76.806334 C 83.819591,78.728124 84.8544,78.154429 83.523931,81.028301 C 82.193461,83.902172 80.641246,91.129565 84.004379,90.776266"
     id="path2915"
     sodipodi:nodetypes="csss" />
  <path
     style="opacity:1;color:black;fill:none;fill-opacity:1;fill-rule:evenodd;stroke:black;stroke-width:0.87707855;stroke-linecap:round;stroke-linejoin:round;marker:none;marker-start:none;marker-mid:none;marker-end:none;stroke-miterlimit:4;stroke-dasharray:none;stroke-dashoffset:0;stroke-opacity:1;visibility:visible;display:inline;overflow:visible"
     d="M 77.298308,77.614641 C 79.159945,77.745182 82.347525,78.841103 82.527407,80.317295 C 82.749152,82.137026 81.491269,83.484583 80.604289,85.005368 C 79.717309,86.526154 78.645542,87.597921 78.645542,87.597921"
     id="path2917"
     sodipodi:nodetypes="cssc" />
  <path
     style="opacity:1;color:black;fill:none;fill-opacity:1;fill-rule:evenodd;stroke:black;stroke-width:0.87707855;stroke-linecap:round;stroke-linejoin:round;marker:none;marker-start:none;marker-mid:none;marker-end:none;stroke-miterlimit:4;stroke-dasharray:none;stroke-dashoffset:0;stroke-opacity:1;visibility:visible;display:inline;overflow:visible"
     d="M 128.86443,64.164546 C 128.86443,64.164546 126.58559,62.002017 124.32699,60.906876 C 123.03397,60.279922 122.28981,57.539221 123.29218,55.53447 C 124.29456,53.529719 124.85544,52.929353 124.29456,50.924602 C 123.73368,48.919851 123.29218,47.917475 123.29218,47.917475"
     id="path2921"
     sodipodi:nodetypes="csssc" />
  <path
     style="opacity:1;color:black;fill:#fe0;fill-opacity:1;fill-rule:evenodd;stroke:black;stroke-width:0.87707829;stroke-linecap:round;stroke-linejoin:round;marker:none;marker-start:none;marker-mid:none;marker-end:none;stroke-miterlimit:4;stroke-dasharray:none;stroke-dashoffset:0;stroke-opacity:1;visibility:visible;display:inline;overflow:visible"
     d="M 104.95768,103.82029 C 104.95768,103.82029 102.97713,103.05514 104.0851,106.08325 C 107.01051,113.46639 103.69239,120.77274 104.22978,127.34265 C 105.28303,126.89125 108.75778,125.6931 110.92258,125.61039 C 111.91413,125.5725 114.33878,125.62095 117.24711,124.39333 C 116.36699,121.23783 113.58619,117.46648 113.31453,113.5573 C 112.93793,108.13816 110.85607,106.11333 109.07393,100.96105 L 104.95768,103.82029 z "
     id="path2941"
     sodipodi:nodetypes="cccscscc" />
  <path
     style="opacity:1;color:black;fill:#fe0;fill-opacity:1;fill-rule:evenodd;stroke:black;stroke-width:0.87707855;stroke-linecap:round;stroke-linejoin:round;marker:none;marker-start:none;marker-mid:none;marker-end:none;stroke-miterlimit:4;stroke-dasharray:none;stroke-dashoffset:0;stroke-opacity:1;visibility:visible;display:inline;overflow:visible"
     d="M 109.7439,103.42675 C 109.7439,103.42675 110.6134,105.63507 109.00475,108.42957 C 107.29566,111.39854 104.91228,114.97847 104.24705,118.64221 C 103.98867,120.06524 103.68816,127.36419 103.68816,127.36419 C 103.68816,127.36419 101.23992,126.10276 97.230422,126.10276 C 93.22092,126.10276 90.213793,126.69895 90.213793,126.69895 C 90.213793,126.69895 91.303312,124.09801 92.763304,121.09089 C 94.223295,118.08376 96.514659,114.37564 98.51941,112.77622 C 100.52416,111.1768 102.09115,110.06476 102.66791,108.06 C 103.24467,106.05525 107.25418,101.04338 107.25418,101.04338 L 109.7439,103.42675 z "
     id="path2939"
     sodipodi:nodetypes="csscscssscc" />
  <path
     id="path2927"
     style="opacity:0.98000004;color:black;fill:#fe0;fill-opacity:1;fill-rule:evenodd;stroke:black;stroke-width:0.87707853;stroke-linecap:round;stroke-linejoin:round;stroke-miterlimit:4;stroke-dashoffset:0;stroke-opacity:1;marker:none;marker-start:none;marker-mid:none;marker-end:none;visibility:visible;display:inline;overflow:visible"
     d="M 105.78595,95.826366 C 105.78595,95.826366 106.21675,93.562541 107.88926,93.562541 C 109.56176,93.562541 110.35377,93.90524 111.00045,95.175989 C 111.92334,96.989481 113.506,97.792205 113.93941,99.746296 C 114.27419,101.25565 113.52062,102.8377 112.14287,103.5617 C 110.92489,104.20174 109.82987,104.50437 108.69463,103.86506 C 107.89911,104.95051 107.14126,105.65611 106.09955,105.91367 C 104.76007,106.24485 102.76907,106.8884 101.13429,104.03209 C 102.4914,103.07325 103.28378,101.49473 103.2772,100.05989 C 103.27069,98.693745 103.03048,97.522839 100.55937,97.185276 C 102.17962,94.362924 104.89743,95.277196 105.78595,95.826366 z M 109.02373,101.86282 C 108.9822,103.09573 108.97754,103.39252 108.67468,103.89371M 105.61529,95.770169 C 107.05727,96.229826 107.79831,97.201406 108.50856,98.44505" />
  <path
     style="opacity:1;color:black;fill:none;fill-opacity:1;fill-rule:evenodd;stroke:black;stroke-width:0.87707855;stroke-linecap:round;stroke-linejoin:round;marker:none;marker-start:none;marker-mid:none;marker-end:none;stroke-miterlimit:4;stroke-dasharray:none;stroke-dashoffset:0;stroke-opacity:1;visibility:visible;display:inline;overflow:visible"
     d="M 119.29878,76.362844 C 119.29878,76.362844 123.75331,78.729354 123.14236,83.015192 C 121.53258,94.307912 115.60303,93.51112 115.60303,93.51112"
     id="path2950"
     sodipodi:nodetypes="csc" />
  <path
     style="opacity:1;color:black;fill:red;fill-opacity:1;fill-rule:evenodd;stroke:black;stroke-width:1.25;stroke-linecap:round;stroke-linejoin:round;marker:none;marker-start:none;marker-mid:none;marker-end:none;stroke-miterlimit:4;stroke-dasharray:none;stroke-dashoffset:0;stroke-opacity:1;visibility:visible;display:inline;overflow:visible"
     d="M 51.797562,198.74667 C 50.111474,207.89418 50.808498,213.71442 51.644751,219.56818 C 52.481003,225.42195 56.236266,231.33515 56.236266,231.33515 L 73.1721,205.44828 C 73.1721,205.44828 58.362039,200.24291 51.797562,198.74667 z "
     id="path2827"
     sodipodi:nodetypes="csccc" />
  <path
     style="opacity:1;color:black;fill:white;fill-opacity:1;fill-rule:evenodd;stroke:black;stroke-width:1.25;stroke-linecap:round;stroke-linejoin:round;marker:none;marker-start:none;marker-mid:none;marker-end:none;stroke-miterlimit:4;stroke-dasharray:none;stroke-dashoffset:0;stroke-opacity:1;visibility:visible;display:inline;overflow:visible"
     d="M 55.610796,179.66069 C 55.610796,179.66069 50.791215,190.89854 51.202438,198.64049 C 58.181072,205.28982 72.682235,206.0396 72.682235,206.0396 L 83.650621,189.07903 L 55.610796,179.66069 z "
     id="path2829"
     sodipodi:nodetypes="ccccc" />
  <g
     id="g2808">
    <path
       sodipodi:nodetypes="ccccsc"
       id="path1919"
       d="M 78.137931,145.06897 C 78.137931,145.06897 56.919997,160.55437 54.992747,181.32917 C 61.354896,186.2627 72.191581,190.37847 82.280975,190.33975 C 90.744239,178.17897 109.24634,150.13 109.24634,150.13 C 109.24634,150.13 80.927112,143.47765 79.532522,144.06897 C 78.137931,144.66029 78.202052,145.25161 78.137931,145.06897 z "
       style="opacity:1;color:black;fill:red;fill-opacity:1;fill-rule:evenodd;stroke:black;stroke-width:0.87707855;stroke-linecap:round;stroke-linejoin:round;marker:none;marker-start:none;marker-mid:none;marker-end:none;stroke-miterlimit:4;stroke-dasharray:none;stroke-dashoffset:0;stroke-opacity:1;visibility:visible;display:inline;overflow:visible" />
    <path
       sodipodi:nodetypes="cscccscc"
       id="path1915"
       d="M 87.811,145.84293 C 87.811,145.84293 77.462902,160.03136 73.323663,170.23487 C 69.184424,180.43838 67.114805,186.50702 67.114805,186.50702 C 67.114805,186.50702 68.740934,192.85286 69.627914,194.0355 C 72.880173,192.5572 75.836773,188.41796 75.836773,188.41796 C 75.836773,188.41796 80.623842,170.53053 82.932611,165.35648 C 85.24138,160.18243 90.619769,147.02557 90.619769,147.02557 L 87.811,145.84293 z "
       style="opacity:1;color:black;fill:#fe0;fill-opacity:1;fill-rule:evenodd;stroke:black;stroke-width:1.25;stroke-linecap:round;stroke-linejoin:round;marker:none;marker-start:none;marker-mid:none;marker-end:none;stroke-miterlimit:4;stroke-dasharray:none;stroke-dashoffset:0;stroke-opacity:1;visibility:visible;display:inline;overflow:visible" />
    <path
       sodipodi:nodetypes="csssssc"
       id="path1913"
       d="M 78.137931,145.54727 C 78.137931,145.54727 68.445274,152.19962 63.419055,160.33026 C 58.392837,168.46091 51.740488,184.12004 51.444828,185.90485 C 51.149168,187.68966 57.210197,184.27872 59.723307,178.06986 C 61.013384,174.88261 65.936534,162.84337 69.112693,158.55631 C 71.709444,155.05132 77.818878,147.79953 79.828182,145.99076 C 81.372005,144.60102 78.054222,145.54727 78.137931,145.54727 z "
       style="opacity:1;color:black;fill:#fe0;fill-opacity:1;fill-rule:evenodd;stroke:black;stroke-width:1.25;stroke-linecap:round;stroke-linejoin:round;marker:none;marker-start:none;marker-mid:none;marker-end:none;stroke-miterlimit:4;stroke-dasharray:none;stroke-dashoffset:0;stroke-opacity:1;visibility:visible;display:inline;overflow:visible" />
    <path
       sodipodi:nodetypes="ccccc"
       id="path1917"
       d="M 98.011267,150.13 C 98.011267,150.13 89.183888,173.04251 89.088764,180.43458 C 93.280709,173.93062 99.637397,164.61733 99.637397,164.61733 L 101.41136,152.17242 L 98.011267,150.13 z "
       style="opacity:1;color:black;fill:#fe0;fill-opacity:1;fill-rule:evenodd;stroke:black;stroke-width:1.25;stroke-linecap:round;stroke-linejoin:round;marker:none;marker-start:none;marker-mid:none;marker-end:none;stroke-miterlimit:4;stroke-dasharray:none;stroke-dashoffset:0;stroke-opacity:1;visibility:visible;display:inline;overflow:visible" />
  </g>
  <path
     style="opacity:1;color:black;fill:#08f;fill-opacity:1;fill-rule:evenodd;stroke:black;stroke-width:1.25;stroke-linecap:round;stroke-linejoin:round;marker:none;marker-start:none;marker-mid:none;marker-end:none;stroke-miterlimit:4;stroke-dasharray:none;stroke-dashoffset:0;stroke-opacity:1;visibility:visible;display:inline;overflow:visible"
     d="M 117.79822,136.32338 C 117.79822,136.32338 107.03234,138.20495 104.33427,140.85103 C 99.862241,138.17523 88.224646,135.2422 79.025868,134.40594 C 79.653058,139.21439 78.502253,141.38935 78.137931,145.06897 C 86.186862,144.96444 98.373575,149.3181 103.69532,153.31873 C 104.58217,152.14531 105.98749,151.33264 108.44254,150.42772 C 111.82043,146.14193 117.79822,136.32338 117.79822,136.32338 z "
     id="path1911"
     sodipodi:nodetypes="ccccccc" />
  <path
     style="opacity:1;color:black;fill:#fe0;fill-opacity:1;fill-rule:evenodd;stroke:black;stroke-width:1.25;stroke-linecap:round;stroke-linejoin:round;marker:none;marker-start:none;marker-mid:none;marker-end:none;stroke-miterlimit:4;stroke-dasharray:none;stroke-dashoffset:0;stroke-opacity:1;visibility:visible;display:inline;overflow:visible"
     d="M 52.03125 134.53125 C 51.112356 134.54596 50.173921 134.71079 49.25 135.09375 C 43.542202 137.45962 39.6257 145.16385 37.25 148.71875 C 25.021429 167.01708 24.350175 174.72708 20.34375 181.96875 C 16.073381 189.6875 19.802945 196.31283 24.03125 208.625 C 22.924996 203.69479 23.179469 195.33791 28.34375 181.59375 C 34.872294 164.21875 38.500001 156.09375 41.125 152.71875 C 43.75 149.34375 45.25 145.38706 50.5 141.71875 C 57.114791 137.09683 58.874999 139.34375 60.25 139.84375 C 61.476467 140.28974 64.5 144.21875 64.75 146.96875 C 64.5 144.21875 63.410369 140.9825 62.125 139.71875 C 59.792729 137.42571 56.013123 134.46753 52.03125 134.53125 z M 24.03125 208.625 C 24.323492 209.92743 24.707063 210.98175 25.125 211.84375 C 24.759418 210.6976 24.394162 209.68174 24.03125 208.625 z M 25.125 211.84375 C 26.169809 215.11936 28.873849 215.82304 32.75 214.53125 C 29.070511 215.72042 26.611878 214.91044 25.125 211.84375 z M 34.78125 213.71875 C 34.105261 214.02647 33.462769 214.2898 32.84375 214.5 C 33.457906 214.29687 34.097932 214.02966 34.78125 213.71875 z "
     transform="matrix(1.002375,0,0,1.002375,0,-0.551729)"
     id="path2865" />
</svg>
