<?xml version="1.0" encoding="UTF-8" standalone="no"?>
<!-- Created with Sodipodi ("http://www.sodipodi.com/") -->
<svg
   xmlns:dc="http://purl.org/dc/elements/1.1/"
   xmlns:cc="http://web.resource.org/cc/"
   xmlns:rdf="http://www.w3.org/1999/02/22-rdf-syntax-ns#"
   xmlns:svg="http://www.w3.org/2000/svg"
   xmlns="http://www.w3.org/2000/svg"
   xmlns:xlink="http://www.w3.org/1999/xlink"
   xmlns:sodipodi="http://sodipodi.sourceforge.net/DTD/sodipodi-0.dtd"
   xmlns:inkscape="http://www.inkscape.org/namespaces/inkscape"
   viewBox="0 0 206 315"
   id="svg548"
   sodipodi:version="0.32"
   width="205.51181"
   height="315.35434"
   sodipodi:docname="king-of-clubs-work.svg"
   sodipodi:docbase="/home/mikelima/kde/src/playground/artwork/carddecks/tigullio"
   inkscape:version="0.45.1"
   version="1.0"
   inkscape:output_extension="org.inkscape.output.svg.inkscape">
  <metadata
     id="metadata52">
    <rdf:RDF>
      <cc:Work
         rdf:about="">
        <dc:format>image/svg+xml</dc:format>
        <dc:type
           rdf:resource="http://purl.org/dc/dcmitype/StillImage" />
      </cc:Work>
    </rdf:RDF>
  </metadata>
  <defs
     id="defs550" />
  <sodipodi:namedview
     id="base"
     showgrid="false"
     showguides="false"
     inkscape:zoom="1"
     inkscape:cx="97.176572"
     inkscape:cy="194.75775"
     inkscape:window-width="951"
     inkscape:window-height="747"
     inkscape:window-x="319"
     inkscape:window-y="26"
     inkscape:current-layer="svg548"
     inkscape:document-units="mm"
     width="58.000001mm"
     height="89.000005mm"
     units="mm"
     bordercolor="black"
     borderopacity="0.47058824" />
  <path
     style="fill:#008000;fill-rule:evenodd;stroke:#000000;stroke-width:1px;stroke-linecap:butt;stroke-linejoin:miter;stroke-opacity:1"
     d="M 48.364617,98.788031 C 48.364617,98.788031 46.109272,97.785655 43.35274,106.05525 C 40.596207,114.32485 43.35274,118.58495 39.593832,122.84504 C 35.834924,127.10514 36.336111,124.09801 34.33136,131.61583 C 32.326609,139.13364 31.574828,144.14552 29.570077,146.65146 C 27.565326,149.1574 55.130652,183.98995 55.130652,183.98995 L 77.433506,133.36999 L 48.364617,98.788031 z "
     id="path3239"
     sodipodi:nodetypes="cssssccc" />
  <g
     id="g3327">
    <path
       sodipodi:nodetypes="csscsc"
       id="path3320"
       d="M 65.03704,135.11146 C 65.03704,135.11146 59.288194,132.37195 53.523437,142.35121 C 46.509555,154.4928 54.280841,166.07521 60.329859,169.43143 C 66.37887,172.78767 72.595819,174.51086 72.595819,174.51086 C 72.595819,174.51086 82.132835,165.22046 75.862129,150.92975 C 69.591438,136.63902 66.699599,135.30708 65.03704,135.11146 z "
       style="fill:#ffee00;fill-rule:evenodd;stroke:#000000;stroke-width:1.29732788;stroke-linecap:butt;stroke-linejoin:miter;stroke-miterlimit:4;stroke-dasharray:none;stroke-opacity:1" />
    <path
       style="fill:#ffee00;fill-rule:evenodd;stroke:#000000;stroke-width:0.97357321;stroke-linecap:butt;stroke-linejoin:miter;stroke-miterlimit:4;stroke-dasharray:none;stroke-opacity:1"
       d="M 65.231279,139.88398 C 65.231279,139.88398 61.052973,137.76126 56.863104,145.49371 C 51.765361,154.90163 57.413591,163.87628 61.810063,166.47684 C 66.206531,169.07743 70.725056,170.41264 70.725056,170.41264 C 70.725056,170.41264 77.656632,163.21397 73.099035,152.14079 C 68.54145,141.0676 66.439639,140.03555 65.231279,139.88398 z "
       id="path3325"
       sodipodi:nodetypes="csscsc" />
  </g>
  <path
     style="fill:#ffee00;fill-rule:evenodd;stroke:#000000;stroke-width:1px;stroke-linecap:butt;stroke-linejoin:miter;stroke-opacity:1"
     d="M 52.627398,105.04214 C 52.627398,105.04214 49.792252,107.87728 48.197482,112.4844 C 46.602712,117.09151 48.551875,118.86347 46.779909,121.52142 C 45.007943,124.17937 42.349993,123.29339 41.641207,128.2549 C 40.93242,133.2164 41.286814,136.76033 40.046437,139.41828 C 38.806061,142.07623 37.565685,144.73418 37.565685,144.73418 L 43.413173,145.97456 C 43.413173,145.97456 42.52719,146.50615 44.476353,140.83586 C 46.425516,135.16557 44.100212,128.83825 48.551876,126.12854 C 52.627397,123.64778 53.158988,120.63544 52.981791,115.31954 C 52.893242,112.66307 56.348527,110.00364 56.348527,110.00364 L 52.627398,105.04214 z "
     id="path2253"
     sodipodi:nodetypes="cssssccssscc" />
  <path
     style="fill:#ffffff;fill-rule:evenodd;stroke:#000000;stroke-width:1.25296935;stroke-linecap:butt;stroke-linejoin:miter;stroke-opacity:1;stroke-miterlimit:4;stroke-dasharray:none"
     d="M 55.27797,186.81794 C 55.27797,186.81794 55.414333,181.05428 53.287973,165.46097 C 51.161614,149.86767 48.405081,144.44059 41.317216,143.02302 C 34.229351,141.60544 25.55931,140.95441 19.180231,155.83893 C 12.801153,170.72344 11.55556,177.54596 14.390706,195.26562 C 17.225852,212.98528 19.724414,220.40974 28.229852,225.37124 C 36.73529,230.33275 41.911771,224.57647 44.73954,215.56984 C 48.056021,205.00663 55.27797,187.52672 55.27797,186.81794 z "
     id="path2264"
     sodipodi:nodetypes="cssssssc" />
  <path
     style="fill:#ff0000;fill-rule:evenodd;stroke:#000000;stroke-width:1.25296935;stroke-linecap:round;stroke-linejoin:round;stroke-opacity:1;stroke-miterlimit:4;stroke-dasharray:none"
     d="M 48.197482,97.245487 C 48.197482,97.245487 58.829279,117.8003 62.373212,135.51996 C 65.917144,153.23962 64.499571,158.90991 64.499571,158.90991 C 64.499571,158.90991 57.411706,171.66807 51.741414,187.97016 C 46.071122,204.27225 39.692044,222.7007 39.692044,228.37099 C 39.692044,234.04128 37.565684,232.62371 37.565684,232.62371 L 50.323841,238.294 L 152.3891,84.48733 C 152.3891,84.48733 147.42759,80.943398 143.88366,79.525825 C 140.33973,78.108252 118.36735,68.894027 99.23011,71.729173 C 80.092874,74.564319 72.296223,80.234611 63.790785,87.322476 C 55.285347,94.410341 49.615055,98.66306 48.197482,97.245487 z "
     id="path3318" />
  <path
     id="path3256"
     d="M 117.18637,49.592992 C 117.18637,49.592992 120.19725,49.686849 121.13895,51.593314 C 122.08064,53.499781 122.63188,54.21567 123.01272,57.387345 C 123.39355,60.55902 125.84934,60.72943 127.5127,60.89599 C 129.17605,61.062555 130.75515,62.258904 131.76764,65.909116 C 132.78012,69.559332 133.0305,70.247716 135.87481,72.004927 C 138.71913,73.762133 139.40276,76.565089 141.77815,76.972846 C 144.15353,77.380603 148.36409,83.88142 140.52011,83.605617 C 132.67612,83.329815 131.84575,82.47184 129.39765,80.716558 C 126.94956,78.961271 125.80128,70.634903 123.04697,66.659254 C 120.29267,62.683601 116.56013,64.32965 116.34971,58.702184 C 116.13928,53.074718 116.1585,49.112531 116.1585,49.112531"
     style="fill:#ffee80;fill-rule:evenodd;stroke:#000000;stroke-width:1.25296938;stroke-linecap:butt;stroke-linejoin:miter;stroke-miterlimit:4;stroke-dasharray:none;stroke-opacity:1"
     sodipodi:nodetypes="cssssssssssc" />
  <path
     sodipodi:nodetypes="csssssssssssscsssssssssscc"
     id="path2208"
     d="M 97.564223,34.706273 C 94.692868,37.485037 93.538209,39.274972 93.247513,42.771222 C 92.956817,46.267471 93.135567,56.214947 88.213881,56.43438 C 83.292194,56.653813 82.324412,56.196158 82.283448,59.713172 C 82.242483,63.230186 84.064128,67.027796 81.650428,68.838777 C 79.236726,70.649758 76.874653,70.327634 74.366949,70.24486 C 71.859246,70.162086 72.077831,70.557449 71.849427,73.304503 C 71.621023,76.051556 72.420409,77.363232 71.111742,79.152444 C 69.551339,81.285832 66.856478,81.941872 64.608888,81.754995 C 62.361299,81.568119 60.544976,81.084655 59.291275,79.707054 C 58.511209,78.849896 57.896702,77.80222 58.09396,75.429764 C 58.291218,73.057308 59.883049,72.058098 60.850831,72.515753 C 61.818615,72.973406 63.671124,74.887644 63.203087,75.980292 C 62.735051,77.072941 61.444862,77.468585 61.444862,77.468585 C 61.444862,77.468585 62.695719,78.264912 63.911037,78.050823 C 66.335403,77.623751 67.739793,75.85458 67.479398,74.449907 C 67.219001,73.045235 67.093853,71.526077 67.249583,69.653086 C 67.405313,67.780095 69.184302,66.04207 71.161395,66.457914 C 73.138488,66.873759 75.355214,68.944009 77.685577,66.623181 C 80.015941,64.302353 78.361253,63.03321 76.862296,59.891077 C 75.363339,56.748942 76.070444,54.29315 79.670513,53.335184 C 83.270583,52.37722 85.799333,53.719036 87.546894,50.846835 C 89.294455,47.974633 88.794991,47.933105 89.220935,44.322371 C 89.646879,40.711637 90.052341,38.85941 90.832401,37.038329 C 91.612462,35.217248 95.628658,33.790965 95.628658,33.790965 L 97.564223,34.706273 z "
     style="fill:#ffffff;fill-rule:evenodd;stroke:#000000;stroke-width:1.25296935;stroke-linecap:round;stroke-linejoin:round;stroke-opacity:1;stroke-miterlimit:4;stroke-dasharray:none" />
  <path
     style="fill:#ffffff;fill-rule:evenodd;stroke:#000000;stroke-width:1.25296935;stroke-linecap:butt;stroke-linejoin:miter;stroke-opacity:1;stroke-miterlimit:4;stroke-dasharray:none"
     d="M 121.37969,38.593404 C 121.37969,38.593404 124.03764,40.010977 124.03764,42.137336 C 124.03764,44.263696 124.21483,45.149679 123.15165,48.162022 C 122.08847,51.174364 124.21483,52.414741 125.63241,53.300724 C 127.04998,54.186707 127.93596,55.958673 127.22718,59.679802 C 126.51839,63.400932 125.10082,65.704488 126.87278,68.539634 C 128.64475,71.37478 129.35354,72.615156 131.3027,74.032729 C 133.25186,75.450302 137.50458,82.006577 130.59391,78.285448 C 123.68324,74.564319 119.96212,74.564319 118.54454,71.90637 C 117.12697,69.24842 119.78492,61.274572 119.07613,56.490263 C 118.36735,51.705954 114.29182,51.528758 116.59538,46.390055 C 118.89894,41.251353 120.6709,37.707421 120.6709,37.707421"
     id="path3254" />
  <g
     id="g3331"
     transform="matrix(-0.9356722,0.3528706,0.3528706,0.9356722,153.30454,-41.938022)">
    <path
       style="fill:#ffee00;fill-rule:evenodd;stroke:#000000;stroke-width:1.297328;stroke-linecap:butt;stroke-linejoin:miter;stroke-miterlimit:4;stroke-dasharray:none;stroke-opacity:1"
       d="M 129.84375 87.21875 C 128.89603 87.214683 128.34375 87.468751 128.34375 87.46875 C 126.67547 87.54577 123.68876 88.660244 116.4375 102.4375 C 109.18622 116.21473 118.03125 126.125 118.03125 126.125 C 118.03125 126.125 121.74149 125.3749 126.28125 123.71875 L 141.03125 100.78125 C 140.70783 99.055103 140.16292 97.280725 139.28125 95.46875 C 135.82278 88.361072 131.92873 87.227698 129.84375 87.21875 z "
       transform="matrix(-0.9378948,0.3537088,0.3537088,0.9378948,158.04678,-15.372659)"
       id="path3264" />
    <path
       sodipodi:nodetypes="csscsc"
       id="path3262"
       d="M 71.587437,116.73712 C 71.587437,116.73712 67.138409,116.70679 66.625931,126.28793 C 66.167738,134.85417 73.713796,139.06389 78.320908,139.41828 C 82.928021,139.77268 87.18074,139.06389 87.18074,139.06389 C 87.18074,139.06389 90.370279,130.55845 82.573627,123.47059 C 74.776976,116.38272 72.650616,116.38272 71.587437,116.73712 z "
       style="fill:#ffee00;fill-rule:evenodd;stroke:#000000;stroke-width:0.87707853;stroke-linecap:butt;stroke-linejoin:miter;stroke-miterlimit:4;stroke-dasharray:none;stroke-opacity:1" />
  </g>
  <path
     style="fill:#0088ff;fill-rule:evenodd;stroke:#000000;stroke-width:1.25296935;stroke-linecap:butt;stroke-linejoin:miter;stroke-opacity:1;stroke-miterlimit:4;stroke-dasharray:none"
     d="M 144.09148,80.494679 C 144.09148,80.494679 136.82425,76.234583 133.06535,74.73102 C 129.30644,73.227456 120.78625,71.723893 120.78625,71.723893 C 120.78625,71.723893 112.76724,94.778529 110.5119,115.32723 C 108.25655,135.87592 108.50714,150.15977 108.50714,150.15977 L 122.791,129.36048 C 122.791,129.36048 130.81,104.0505 134.06772,96.532686 C 137.32544,89.01487 144.09148,80.494679 144.09148,80.494679 z "
     id="path3258"
     sodipodi:nodetypes="cscsccsc" />
  <path
     sodipodi:nodetypes="cssssss"
     id="path3237"
     d="M 46.100921,173.9544 C 45.145076,162.26676 41.331086,158.97739 37.317372,157.91668 C 33.303658,156.85596 28.393989,156.36882 24.781646,167.50635 C 21.169304,178.64389 20.463949,183.74892 22.069435,197.00789 C 23.674921,210.26686 23.937202,219.44434 29.906263,218.28185 C 32.71797,217.73426 39.369751,206.10251 40.758928,200.17227 C 42.9785,190.69717 46.889557,183.59748 46.100921,173.9544 z "
     style="fill:#ffffff;fill-rule:evenodd;stroke:#000000;stroke-width:0.87707855;stroke-linecap:butt;stroke-linejoin:miter;stroke-miterlimit:4;stroke-dasharray:none;stroke-opacity:1" />
  <path
     style="fill:#ffffff;fill-rule:evenodd;stroke:#000000;stroke-width:1px;stroke-linecap:butt;stroke-linejoin:miter;stroke-opacity:1"
     d="M 31.186606,178.57874 C 30.832213,187.97016 29.94623,191.33689 31.540999,192.57727 C 33.135769,193.81765 36.325308,195.76681 37.388488,193.99484 C 38.451667,192.22288 36.325308,187.79296 37.211291,188.14736 C 38.097274,188.50175 40.578027,190.62811 41.9956,188.67895 C 42.984338,187.31944 40.717149,183.55684 40.578027,183.18585 C 40.046438,181.76827 43.738977,183.95504 44.299156,180.3507 C 44.806881,177.08387 41.548827,176.13957 39.337651,176.09798 C 39.337651,176.09798 45.007943,175.212 44.299156,172.37686 C 43.610188,169.62099 39.869241,170.0733 39.869241,170.0733 C 39.869241,170.0733 43.590369,168.12414 42.704386,165.82058 C 41.818403,163.51702 37.034095,166.35217 37.034095,166.35217 C 37.034095,166.35217 38.274471,162.09945 36.679701,161.21347 C 35.084932,160.32749 32.781376,164.04861 32.781376,164.04861 L 31.186606,178.57874 z "
     id="path2251"
     sodipodi:nodetypes="csssssscscscscc" />
  <path
     style="fill:none;fill-opacity:1;fill-rule:evenodd;stroke:black;stroke-width:1pt;stroke-linecap:butt;stroke-linejoin:miter;stroke-opacity:1"
     d="M 204.1814,4.220791 L 3.535608,311.8187"
     id="path786" />
  <path
     style="fill:none;fill-opacity:1;fill-rule:evenodd;stroke:black;stroke-width:0.875;stroke-linecap:round;stroke-linejoin:miter;stroke-dasharray:none;stroke-opacity:1"
     d=""
     id="path734"
     sodipodi:nodetypes="c" />
  <path
     style="opacity:1;color:#000000;fill:#ffd0ce;fill-opacity:1;fill-rule:evenodd;stroke:#000000;stroke-width:1.25296938;stroke-linecap:round;stroke-linejoin:miter;marker:none;marker-start:none;marker-mid:none;marker-end:none;stroke-miterlimit:4;stroke-dasharray:none;stroke-dashoffset:0;stroke-opacity:1;visibility:visible;overflow:visible"
     d="M 120.94451,38.135164 C 120.94451,38.135164 121.92772,42.713495 121.92772,44.788127 C 121.92772,46.862758 120.40269,47.728161 120.40269,49.802792 C 120.40269,51.877424 123.28644,53.411179 123.62995,57.235913 C 124.00317,61.391435 120.13222,76.798135 110.94523,76.881182 C 99.714461,76.98147 85.097805,73.647729 82.128751,68.646386 C 75.260856,57.077466 80.59962,42.713495 82.751137,38.564232 C 84.902653,34.414968 121.26194,32.086816 120.94451,38.135164 z "
     id="path3967"
     sodipodi:nodetypes="cssssssc" />
  <g
     id="g2258"
     transform="matrix(0.8114234,-0.5844588,0.5844588,0.8114234,-64.071732,42.643023)">
    <path
       style="fill:#ffee00;fill-rule:evenodd;stroke:#000000;stroke-width:1.29732788;stroke-linecap:butt;stroke-linejoin:miter;stroke-miterlimit:4;stroke-dasharray:none;stroke-opacity:1"
       d="M 66.992675,135.42819 C 66.992675,135.42819 59.288194,132.37195 53.523437,142.35121 C 46.509555,154.4928 54.280841,166.07521 60.329859,169.43143 C 66.37887,172.78767 72.595819,174.51086 72.595819,174.51086 C 72.595819,174.51086 82.132835,165.22046 75.862129,150.92975 C 69.591438,136.63902 68.655234,135.62381 66.992675,135.42819 z "
       id="path2260"
       sodipodi:nodetypes="csscsc" />
    <path
       sodipodi:nodetypes="csscsc"
       id="path2262"
       d="M 67.721823,140.36762 C 67.721823,140.36762 61.052973,137.76126 56.863104,145.49371 C 51.765361,154.90163 57.891194,162.91003 62.287666,165.51059 C 66.684134,168.11118 70.725056,170.41264 70.725056,170.41264 C 70.725056,170.41264 77.656632,163.21397 73.099035,152.14079 C 68.54145,141.0676 68.930183,140.51919 67.721823,140.36762 z "
       style="fill:#ffee00;fill-rule:evenodd;stroke:#000000;stroke-width:0.97357321;stroke-linecap:butt;stroke-linejoin:miter;stroke-miterlimit:4;stroke-dasharray:none;stroke-opacity:1" />
  </g>
  <path
     sodipodi:nodetypes="cscsccsc"
     id="path3260"
     d="M 48.976403,96.830062 C 48.976403,96.830062 55.676072,89.873292 58.828318,87.332942 C 61.980573,84.792592 69.68452,80.855142 69.68452,80.855142 C 69.68452,80.855142 86.62139,99.539532 92.301109,119.52429 C 97.952371,139.40891 104.43852,152.23527 104.43852,152.23527 L 90.945144,152.83146 C 82.174358,122.5096 69.575933,113.98284 63.515544,108.46905 C 56.942307,102.48866 48.976403,96.830062 48.976403,96.830062 z "
     style="fill:#0088ff;fill-rule:evenodd;stroke:#000000;stroke-width:1.25296938;stroke-linecap:butt;stroke-linejoin:miter;stroke-miterlimit:4;stroke-dasharray:none;stroke-opacity:1" />
  <path
     style="fill:#000000;fill-rule:evenodd;stroke:#000000;stroke-width:1.25296935;stroke-linecap:round;stroke-linejoin:round;stroke-opacity:1;stroke-miterlimit:4;stroke-dasharray:none"
     d="M 110.92509,147.39213 L 96.217767,170.2505 C 96.217767,170.2505 87.874179,170.50524 77.966515,169.71891 C 66.803128,168.83292 61.132836,165.64338 61.132836,165.64338 C 61.132836,165.64338 62.727605,164.403 63.790785,161.39066 C 64.853964,158.37832 64.853965,155.89757 64.853965,155.89757 C 64.853965,155.89757 67.157521,157.66954 72.119026,158.20113 C 77.080532,158.73272 86.11756,159.44151 86.11756,159.44151 C 86.11756,159.44151 87.348017,156.02839 82.928021,156.96075 C 81.020828,157.36306 79.561284,158.20112 79.561284,158.20112 C 79.561284,158.20112 78.209707,154.75955 80.270071,154.1256 C 82.573627,153.41682 83.282414,151.99924 81.510448,152.17644 C 80.270071,148.6325 84.52279,147.56932 86.826346,148.9869 C 89.129902,150.40447 88.066723,152.17644 89.129903,153.06242 C 92.062157,155.50596 93.559818,154.65719 94.977391,153.41682 C 96.394964,152.17644 96.572161,149.69569 96.040571,148.27811 C 95.508981,146.86054 94.445801,146.32895 93.205425,146.15176 C 91.965048,145.97456 91.079065,146.15176 91.079065,146.15176 C 91.079065,146.15176 89.307099,145.08858 92.319442,143.671 C 95.331784,142.25343 97.280947,143.8482 97.280947,143.8482 C 97.280947,143.8482 96.394964,139.59548 97.63534,139.06389 C 98.875717,138.5323 99.407307,137.11473 99.407307,137.11473 C 99.407307,137.11473 101.15632,137.37087 101.35647,139.77267 C 101.53366,141.89903 101.88806,142.96222 101.88806,142.96222 C 101.88806,142.96222 102.41965,141.89903 104.7232,142.07623 C 107.02676,142.25343 108.08994,145.44297 108.08994,145.44297 C 108.08994,145.44297 105.0776,144.37979 103.30564,147.03774 C 101.53367,149.69568 102.95124,150.93606 102.95124,150.93606 C 102.95124,150.93606 103.30563,152.70803 105.43199,151.64485 C 107.55835,150.58167 110.74789,148.10092 110.92509,147.39213 z "
     id="path3293"
     sodipodi:nodetypes="ccscscscscscssssscscscscscscsc" />
  <path
     style="fill:#ffffff;fill-rule:evenodd;stroke:#000000;stroke-width:1.25296935;stroke-linecap:round;stroke-linejoin:round;stroke-opacity:1;stroke-miterlimit:4;stroke-dasharray:none"
     d="M 85.076619,38.019017 C 85.076619,38.019017 82.821274,38.896096 82.445383,43.030895 C 82.069493,47.165694 82.195144,51.542942 82.069493,54.432916 C 81.944196,57.314746 82.069493,60.572466 80.94182,62.201326 C 79.814148,63.830186 76.681724,68.96736 77.308209,72.726269 C 77.934694,76.485177 78.669406,78.685296 77.433506,81.371758 C 76.712127,82.939812 75.729384,84.68826 71.54455,84.754775 C 69.474064,84.785692 68.036236,83.752399 67.785642,82.248836 C 67.535048,80.745272 67.03386,79.492303 68.036236,78.489928 C 69.038611,77.487552 71.043362,78.239334 70.792768,79.6176 C 70.542175,80.995866 69.665096,81.497054 69.665096,81.497054 C 69.665096,81.497054 70.291581,82.123539 71.54455,81.747648 C 72.797519,81.371757 73.799895,78.615225 73.674598,76.610474 C 73.549301,74.605723 72.739785,71.562561 73.298708,67.463798 C 73.674599,64.707265 74.805322,62.720205 75.554052,56.813558 C 76.681725,47.917476 80.190039,39.773175 80.94182,38.770799 C 81.693602,37.768424 84.826025,37.893721 85.076619,38.019017 z "
     id="path2210"
     sodipodi:nodetypes="cssssssssscsssssc" />
  <g
     id="gems_2800"
     inkscape:label="#g2800"
     style="stroke:#000000;stroke-width:1.18893468;stroke-miterlimit:4;stroke-dasharray:none;stroke-opacity:1"
     transform="matrix(1.0732092,0,0,1.0348575,-2.2337959,-2.7249937)" />
  <path
     style="fill:#ffffff;fill-opacity:1;fill-rule:evenodd;stroke:none;stroke-width:1px;stroke-linecap:butt;stroke-linejoin:miter;stroke-opacity:1"
     d="M 51.475296,-21.998703 C 51.475296,-21.998703 50.399537,-17.849442 48.24802,-15.774811 C 46.096502,-13.700181 41.793469,-11.62555 40.717711,-11.62555 C 39.641951,-11.62555 40.717711,-9.55092 40.717711,-9.55092 L 51.475296,-11.206267 C 51.475296,-11.206267 54.70257,-16.812132 53.626814,-18.886763 C 52.551054,-20.961393 51.600035,-21.915625 51.475296,-21.998703 z "
     id="path2819" />
  <path
     style="fill:#ffee80;fill-rule:evenodd;stroke:#000000;stroke-width:1.25296935;stroke-linecap:round;stroke-linejoin:round;stroke-opacity:1;stroke-miterlimit:4;stroke-dasharray:none"
     d="M 89.462012,37.643127 C 86.830776,40.650253 85.828401,42.529707 85.828401,46.038021 C 85.828401,49.546335 86.830776,59.444793 81.944196,60.071278 C 77.057615,60.697763 76.05524,60.321872 76.305834,63.830186 C 76.556427,67.3385 78.686475,70.972111 76.431131,72.976862 C 74.175786,74.981613 71.795144,74.856316 69.289205,74.981613 C 66.783267,75.10691 67.03386,75.482801 67.03386,78.239334 C 67.03386,80.995866 67.939181,82.236795 66.783267,84.12829 C 65.405,86.383635 62.773765,87.260713 60.51842,87.260713 C 58.263075,87.260713 56.258324,86.508931 55.005355,85.130665 C 53.752385,83.752399 53.501791,83.877696 53.501791,81.497054 C 53.501791,79.116412 54.73956,77.722945 55.830533,77.744443 C 56.900863,77.765534 58.484426,79.813708 58.461769,81.002163 C 58.440272,82.129835 57.010106,83.251211 57.010106,83.251211 C 57.010106,83.251211 58.322644,83.941155 59.516044,83.627102 C 61.896686,83.000617 63.149655,81.121163 62.773765,79.742897 C 62.397874,78.364631 62.14728,76.861067 62.14728,74.981613 C 62.14728,73.102159 63.77614,71.222705 65.780891,71.473299 C 67.785642,71.723893 70.166284,73.603348 72.296332,71.097409 C 74.42638,68.59147 72.672222,67.463797 70.918065,64.456671 C 69.163908,61.449544 69.665096,58.943606 73.17341,57.690636 C 76.681724,56.437667 79.31296,57.565339 80.816523,54.558213 C 82.320086,51.551086 81.818899,51.551086 81.944196,47.917475 C 82.069493,44.283864 82.320086,42.40441 82.946571,40.524956 C 83.573056,38.645502 87.457261,36.891345 87.457261,36.891345 L 89.462012,37.643127 z "
     id="path2207"
     sodipodi:nodetypes="csssssssssssscsssssssssscc" />
  <g
     id="g3207">
    <path
       id="path3183"
       d="M 76.045988,26.428874 L 70.888926,26.253519 C 70.888926,26.253519 70.720411,21.182179 73.126519,22.043318 C 75.532627,22.904457 76.604654,26.472224 76.045988,26.428874 z "
       style="fill:#ffee00;fill-rule:evenodd;stroke:#000000;stroke-width:1.25296935;stroke-linecap:round;stroke-linejoin:round;stroke-opacity:1;stroke-miterlimit:4;stroke-dasharray:none" />
    <path
       sodipodi:nodetypes="cccc"
       id="path558"
       d="M 108.75654,29.775258 C 106.53717,28.972666 103.00733,24.37354 101.78542,22.865135 C 100.81641,24.73654 97.546764,28.164799 96.171253,29.533686 L 108.75654,29.775258 z "
       style="font-size:12px;fill:#ffee00;fill-rule:evenodd;stroke:#000000;stroke-width:1.25296938;stroke-miterlimit:4;stroke-dasharray:none;stroke-opacity:1" />
    <path
       sodipodi:nodetypes="cccc"
       id="path560"
       d="M 88.41224,30.218117 C 86.25817,30.056864 80.875758,27.291711 78.632321,26.409161 C 79.820449,27.27888 80.11013,31.58012 80.878,32.670212 C 82.394992,32.373124 86.644096,30.826981 88.41224,30.218117 z "
       style="font-size:12px;fill:#ffee00;fill-rule:evenodd;stroke:#000000;stroke-width:1.25296938;stroke-miterlimit:4;stroke-dasharray:none;stroke-opacity:1" />
    <path
       sodipodi:nodetypes="cccc"
       id="path559"
       d="M 97.446537,29.961706 C 94.971792,29.081949 91.392231,26.228049 89.5721,25.298726 C 88.750215,26.690248 87.164259,30.07637 85.930036,31.327569 C 87.98696,31.093823 94.311983,30.057007 97.446537,29.961706 z "
       style="font-size:12px;fill:#ffee00;fill-rule:evenodd;stroke:#000000;stroke-width:1.25296938;stroke-miterlimit:4;stroke-dasharray:none;stroke-opacity:1" />
    <path
       sodipodi:nodetypes="cccc"
       id="path556"
       d="M 123.49298,32.609362 C 124.92015,31.347971 125.2702,28.606231 127.29962,27.384907 C 124.77667,28.158427 118.72886,29.10347 114.01495,29.539896 C 115.71031,29.826955 122.15297,32.539491 123.49298,32.609362 z "
       style="font-size:12px;fill:#ffee00;fill-rule:evenodd;stroke:#000000;stroke-width:1.25296938;stroke-miterlimit:4;stroke-dasharray:none;stroke-opacity:1" />
    <path
       sodipodi:nodetypes="cccc"
       id="path557"
       d="M 116.82314,30.546795 C 115.60567,29.514007 116.25804,25.997192 115.3569,24.263788 C 113.81501,25.750201 108.32141,28.833857 106.82258,29.713503 C 110.0429,29.98937 113.14689,29.839447 116.82314,30.546795 z "
       style="font-size:12px;fill:#ffee00;fill-rule:evenodd;stroke:#000000;stroke-width:1.25296938;stroke-miterlimit:4;stroke-dasharray:none;stroke-opacity:1" />
    <path
       style="fill:#ffee00;fill-rule:evenodd;stroke:#000000;stroke-width:1.25296935;stroke-linecap:round;stroke-linejoin:round;stroke-opacity:1;stroke-miterlimit:4;stroke-dasharray:none"
       d="M 130.31592,26.189641 L 135.27742,24.772068 C 135.27742,24.772068 134.21425,19.810562 132.08789,21.228135 C 129.96153,22.645708 129.78433,26.366837 130.31592,26.189641 z "
       id="path3185" />
    <path
       style="font-size:12px;fill:#ff0000;fill-rule:evenodd;stroke:#000000;stroke-width:1.18893468;stroke-miterlimit:4;stroke-dasharray:none;stroke-opacity:1"
       d="M 109.53727,23.482951 C 110.89269,23.407057 111.56499,24.191507 111.64097,24.897492 C 111.72478,25.6762 110.80219,26.309348 109.83662,26.315002 C 108.61394,26.346487 108.01411,25.533701 107.91527,24.87705 C 107.86927,24.14851 108.69512,23.530113 109.53727,23.482951 z "
       id="path687"
       sodipodi:nodetypes="cssss"
       transform="matrix(1.0732092,0,0,1.0348575,-2.2337959,-2.7249937)" />
    <path
       sodipodi:nodetypes="cscsc"
       id="path3187"
       d="M 102.24245,23.000101 C 102.24245,23.000101 106.62632,21.719938 106.67237,20.43075 C 106.76097,17.949997 101.88806,20.076357 101.88806,20.076357 C 101.88806,20.076357 98.090773,17.855388 98.16693,19.987758 C 98.255529,22.468511 102.24245,23.000101 102.24245,23.000101 z "
       style="fill:#ffee00;fill-rule:evenodd;stroke:#000000;stroke-width:1.25296938;stroke-linecap:butt;stroke-linejoin:miter;stroke-miterlimit:4;stroke-dasharray:none;stroke-opacity:1" />
    <path
       inkscape:transform-center-y="-2.5287685"
       inkscape:transform-center-x="-3.1656396"
       style="fill:#ffee00;fill-rule:evenodd;stroke:#000000;stroke-width:1.18893468;stroke-linecap:butt;stroke-linejoin:miter;stroke-miterlimit:4;stroke-dasharray:none;stroke-opacity:1"
       d="M 95.457446,24.963789 C 95.457446,24.963789 93.669357,22.501427 92.457862,22.80751 C 90.126612,23.396508 92.771782,25.950533 92.771782,25.950533 C 92.771782,25.950533 91.207488,28.949847 93.190808,28.346439 C 95.498161,27.644447 95.457446,24.963789 95.457446,24.963789 z "
       id="path3189"
       sodipodi:nodetypes="cscsc"
       transform="matrix(1.0732092,0,0,1.0348575,-2.2337959,-2.7249937)" />
    <path
       inkscape:transform-center-y="-2.7033509"
       inkscape:transform-center-x="3.8896042"
       sodipodi:nodetypes="cscsc"
       id="path3191"
       d="M 98.956665,25.231374 C 98.956665,25.231374 99.898653,28.15174 101.10136,28.528088 C 103.41575,29.252288 101.71102,25.815556 101.71102,25.815556 C 101.71102,25.815556 104.00851,24.188205 102.0103,23.655126 C 99.685613,23.034947 98.956665,25.231374 98.956665,25.231374 z "
       style="fill:#ffee00;fill-rule:evenodd;stroke:#000000;stroke-width:1.18893468;stroke-linecap:butt;stroke-linejoin:miter;stroke-miterlimit:4;stroke-dasharray:none;stroke-opacity:1"
       transform="matrix(1.0732092,0,0,1.0348575,-2.2337959,-2.7249937)" />
    <path
       style="font-size:12px;fill:#ff0000;fill-rule:evenodd;stroke:#000000;stroke-width:1.18893468;stroke-miterlimit:4;stroke-dasharray:none;stroke-opacity:1"
       d="M 96.532819,23.165173 C 97.726528,22.898042 99.231596,23.575501 99.489754,24.350295 C 99.744231,25.212239 98.734789,26.09089 97.518185,26.280495 C 95.98275,26.5478 95.051815,25.751319 94.786332,25.034619 C 94.571815,24.227243 95.479965,23.374686 96.532819,23.165173 z "
       id="path688"
       sodipodi:nodetypes="cssss"
       transform="matrix(1.0732092,0,0,1.0348575,-2.2337959,-2.7249937)" />
    <path
       style="font-size:12px;fill:#ff0000;fill-rule:evenodd;stroke:#000000;stroke-width:1.18893468;stroke-miterlimit:4;stroke-dasharray:none;stroke-opacity:1"
       d="M 84.738734,24.111212 C 85.72678,23.833018 86.974126,24.545351 87.189012,25.357748 C 87.401057,26.261581 86.566587,27.181008 85.559425,27.377895 C 84.288484,27.655803 83.516403,26.819606 83.295438,26.068 C 83.116603,25.221456 83.867314,24.329242 84.738734,24.111212 z "
       id="path689"
       sodipodi:nodetypes="cssss"
       transform="matrix(1.0732092,0,0,1.0348575,-2.2337959,-2.7249937)" />
    <path
       style="fill:#ffee00;fill-rule:evenodd;stroke:#000000;stroke-width:1.18893464;stroke-linecap:butt;stroke-linejoin:miter;stroke-opacity:1;stroke-miterlimit:4;stroke-dasharray:none"
       d="M 121.92083,27.629488 C 121.92083,27.629488 123.47849,24.167692 122.5274,22.931514 C 120.69723,20.55277 119.49922,25.06227 119.49922,25.06227 C 119.49922,25.06227 115.62481,24.929193 117.28581,26.895433 C 119.21818,29.182916 121.92083,27.629488 121.92083,27.629488 z "
       id="path3195"
       sodipodi:nodetypes="cscsc"
       inkscape:transform-center-y="-1.1551662"
       inkscape:transform-center-x="0.85273274"
       transform="matrix(1.0732092,0,0,1.0348575,-2.2337959,-2.7249937)" />
    <path
       style="font-size:12px;fill:#ff0000;fill-rule:evenodd;stroke:#000000;stroke-width:1.18893468;stroke-miterlimit:4;stroke-dasharray:none;stroke-opacity:1"
       d="M 120.34595,27.164165 C 121.36007,26.449663 123.1939,26.285465 123.86891,26.735569 C 124.58808,27.250621 124.08777,28.328888 123.00896,28.997075 C 121.6627,29.860697 120.32188,29.688168 119.67153,29.283383 C 119.02104,28.790558 119.43714,27.775403 120.34595,27.164165 z "
       id="path690"
       sodipodi:nodetypes="cssss"
       inkscape:transform-center-x="0.73739815"
       inkscape:transform-center-y="0.66365834"
       transform="matrix(1.0732092,0,0,1.0348575,-2.2337959,-2.7249937)" />
    <path
       inkscape:transform-center-x="-0.8527331"
       inkscape:transform-center-y="-1.1551662"
       sodipodi:nodetypes="cscsc"
       id="path3193"
       d="M 73.619435,27.287032 C 73.619435,27.287032 72.061771,23.825236 73.012861,22.589058 C 74.843031,20.210314 76.041044,24.719814 76.041044,24.719814 C 76.041044,24.719814 79.915457,24.586737 78.254457,26.552977 C 76.322084,28.84046 73.619435,27.287032 73.619435,27.287032 z "
       style="fill:#ffee00;fill-rule:evenodd;stroke:#000000;stroke-width:1.18893468;stroke-linecap:butt;stroke-linejoin:miter;stroke-miterlimit:4;stroke-dasharray:none;stroke-opacity:1"
       transform="matrix(1.0732092,0,0,1.0348575,-2.2337959,-2.7249937)" />
    <path
       style="font-size:12px;fill:#ff0000;fill-rule:evenodd;stroke:#000000;stroke-width:1.18893468;stroke-miterlimit:4;stroke-dasharray:none;stroke-opacity:1"
       d="M 74.298014,26.34713 C 75.467041,26.544308 76.509304,27.600882 76.407702,28.306472 C 76.265672,29.080329 74.999216,29.433424 73.843068,29.16682 C 72.371856,28.852308 71.887931,27.898382 71.95829,27.236338 C 72.112245,26.51961 73.278172,26.15261 74.298014,26.34713 z "
       id="path691"
       sodipodi:nodetypes="cssss"
       transform="matrix(1.0732092,0,0,1.0348575,-2.2337959,-2.7249937)" />
    <g
       transform="matrix(1.0732092,0,0,1.0348575,-2.2337959,-2.7249937)"
       style="stroke:#000000;stroke-width:1.18893468;stroke-miterlimit:4;stroke-dasharray:none;stroke-opacity:1"
       id="g3921">
      <g
         style="stroke:#000000;stroke-width:1.18893468;stroke-miterlimit:4;stroke-dasharray:none;stroke-opacity:1"
         id="g3917">
        <path
           sodipodi:nodetypes="ccsccsc"
           id="path774"
           d="M 117.08789,33.611213 C 115.96941,35.498152 115.612,37.801263 115.90557,38.618592 C 113.66377,38.165183 108.58883,36.372347 97.783354,36.357676 C 88.4206,36.270377 78.130816,38.109955 77.472789,38.358142 C 77.884256,37.014485 77.449575,36.191494 76.524041,34.30854 C 80.74249,33.101144 87.080286,31.542522 97.855922,31.595136 C 112.16882,31.665636 116.33122,33.512853 117.08789,33.611213 z "
           style="fill:#ffee00;fill-opacity:1;fill-rule:evenodd;stroke:#000000;stroke-width:1.18893468;stroke-linecap:butt;stroke-linejoin:round;stroke-miterlimit:4;stroke-dasharray:none;stroke-opacity:1" />
        <path
           sodipodi:nodetypes="ccsccsc"
           id="path693"
           d="M 117.9685,34.494392 C 119.95621,34.137107 119.65934,32.601049 117.56143,32.440011 C 110.62046,31.102451 102.26969,30.259745 94.272383,30.585611 C 88.548885,30.854308 79.740172,32.206156 75.376471,33.570753 C 73.670354,34.941172 75.846814,35.670453 78.792951,34.501796 C 83.878148,33.494848 92.908588,32.711175 97.72153,32.67529 C 105.82081,32.445718 111.96932,33.355709 117.9685,34.494392 z "
           style="font-size:12px;fill:#ffee00;fill-rule:evenodd;stroke:#000000;stroke-width:1.18893468;stroke-miterlimit:4;stroke-dasharray:none;stroke-opacity:1" />
      </g>
      <path
         style="font-size:12px;fill:#ffee00;fill-rule:evenodd;stroke:#000000;stroke-width:1.18893468;stroke-miterlimit:4;stroke-dasharray:none;stroke-opacity:1"
         d="M 115.7606,39.717904 C 117.65079,39.360611 117.36849,37.824559 115.37354,37.663544 C 108.77308,36.325988 100.83184,35.483225 93.226887,35.809096 C 87.784135,36.077794 80.672862,36.838372 76.523142,38.202914 C 74.900792,39.573389 76.829823,40.302617 78.788101,39.725333 C 83.623698,38.718328 91.929949,38.082482 96.506841,38.046597 C 104.20878,37.81703 110.05567,38.579186 115.7606,39.717904 z "
         id="path692"
         sodipodi:nodetypes="ccsccsc" />
    </g>
  </g>
  <path
     style="fill:#ffffff;fill-opacity:1;fill-rule:nonzero;stroke:#000000;stroke-width:0.87707853;stroke-linecap:round;stroke-linejoin:round;stroke-miterlimit:4;stroke-dasharray:none;stroke-opacity:1"
     d="M 82.883563,61.321437 C 80.651051,64.202387 77.295553,66.038928 76.903198,71.25812 C 76.750126,74.417767 83.08137,78.876714 83.633901,79.241884 C 83.737701,78.741655 80.317968,71.563515 82.511328,69.999038 C 82.544726,69.331369 80.974482,73.704594 82.46752,74.91486 C 83.417074,75.684566 87.555461,81.682695 88.536986,82.612608 C 87.022175,75.018856 87.442918,71.983709 87.793642,70.974205 C 87.159065,72.696094 87.263134,76.409918 89.174541,78.382533 C 90.128806,79.367345 93.408974,82.843824 94.109199,84.046805 C 95.373955,82.088782 93.19301,78.952621 94.142941,77.045576 C 94.771347,75.784022 94.212399,74.173333 95.616393,72.454082 C 93.448404,75.349862 94.24806,81.478227 96.226606,82.546324 C 97.626769,83.302183 97.57774,83.722543 98.011372,87.292094 C 103.80928,84.997403 99.344204,75.911924 100.94406,72.641188 C 99.905785,74.872413 101.31949,77.795918 101.59729,80.799103 C 101.87509,83.802288 102.52055,90.142873 95.810998,89.309798 C 98.418717,97.531548 106.48159,91.306003 107.10127,85.885868 C 107.26982,84.411673 108.06478,81.985009 108.3906,80.511715 C 107.99099,83.617159 105.69661,89.362736 108.32204,90.704591 C 109.84353,91.482222 112.62802,92.015839 113.41224,87.20253 C 110.1535,89.652433 111.51527,84.457532 112.50091,83.571688 C 113.48655,82.685844 114.7852,81.661014 114.90854,82.051414 C 117.33677,81.389695 119.08753,78.358731 120.659,76.49845 C 122.23181,74.817273 123.78165,72.022137 123.52785,69.907882 C 123.4505,67.897143 121.99206,66.367785 122.40289,64.388952"
     id="path2828"
     sodipodi:nodetypes="ccccsccscscsccscscscscccs" />
  <path
     style="fill:#ffee80;fill-opacity:1;fill-rule:nonzero;stroke:none;stroke-width:0.87707853;stroke-linecap:round;stroke-linejoin:round;stroke-miterlimit:4;stroke-dasharray:none;stroke-opacity:1"
     d="M 84.529295,61.339839 C 84.62818,62.421503 81.816362,64.528597 80.801117,65.248951 C 79.245403,66.352793 78.521502,69.31026 79.44517,71.641039 C 80.111601,68.989465 82.020389,67.348357 84.033333,65.884747 C 83.27555,67.274095 82.651726,69.573155 85.443165,71.192749 C 85.349903,68.585663 88.194026,65.951827 87.949645,65.133917 C 86.728676,66.380268 87.316011,68.094944 88.513338,70.025057 C 89.211653,65.543099 98.384054,65.65534 98.86858,65.521543 C 100.86594,64.969985 89.583917,60.472028 89.645133,60.518814"
     id="path2855"
     sodipodi:nodetypes="cscccccsc" />
  <path
     style="fill:#ffd0ce;fill-opacity:1;fill-rule:evenodd;stroke:none;stroke-width:0.99986953;stroke-linecap:butt;stroke-linejoin:miter;stroke-miterlimit:4;stroke-dasharray:none;stroke-opacity:1"
     d="M 91.995934,54.696488 L 89.441009,56.706285 C 89.480267,55.788656 89.508245,55.085481 89.508245,55.085481 C 89.508245,55.085481 86.467854,60.91918 83.630772,60.216501 C 85.772587,62.128794 86.260908,64.281173 84.109391,65.890294 C 86.887211,65.265292 88.762204,63.746752 89.477283,61.135372 C 90.402368,62.980916 88.99069,64.79736 88.978605,66.508766 C 93.016963,63.128145 96.385187,65.821859 97.300162,64.119063 C 98.215143,62.416267 91.995934,54.696488 91.995934,54.696488 z "
     id="path2850"
     sodipodi:nodetypes="ccccccccc" />
  <path
     style="fill:#ffee80;fill-opacity:1;fill-rule:nonzero;stroke:none;stroke-width:0.87707853;stroke-linecap:round;stroke-linejoin:round;stroke-miterlimit:4;stroke-dasharray:none;stroke-opacity:1"
     d="M 119.80869,62.67582 C 121.48801,64.997274 120.09847,65.80556 120.72079,68.076524 C 121.2401,69.971648 120.93793,71.640635 119.61763,74.392114 C 120.23061,70.277148 117.29727,69.13034 116.87766,65.265426"
     id="path3368"
     sodipodi:nodetypes="cscc" />
  <path
     style="fill:#ffffff;fill-opacity:1;fill-rule:evenodd;stroke:#000000;stroke-width:0.87707853;stroke-linecap:round;stroke-linejoin:round;stroke-miterlimit:4;stroke-dasharray:none;stroke-opacity:1"
     d="M 113.14516,70.433244 C 112.88581,72.461865 112.67138,76.864676 111.00335,79.206352 C 109.33533,81.548027 108.1282,82.963536 108.1282,82.963536 C 108.1282,82.963536 108.50734,77.887705 108.109,75.831112 C 107.69636,73.700558 107.09048,73.773495 107.33884,71.496808"
     id="path3370"
     sodipodi:nodetypes="czczc" />
  <path
     style="fill:#ffffff;fill-opacity:1;fill-rule:evenodd;stroke:#000000;stroke-width:0.87707853;stroke-linecap:round;stroke-linejoin:round;stroke-miterlimit:4;stroke-dasharray:none;stroke-opacity:1"
     d="M 117.65527,71.491065 C 117.71322,76.352705 120.23437,75.25804 119.43829,79.2544 C 118.64736,83.224936 115.41473,84.158962 115.41473,84.158962 C 115.41473,84.158962 115.31791,79.54208 114.91958,77.485477 C 114.50693,75.354923 114.28407,75.722959 113.89782,75.358565"
     id="path3372"
     sodipodi:nodetypes="czczc" />
  <path
     style="fill:#ffee00;fill-opacity:1;fill-rule:evenodd;stroke:none;stroke-width:1px;stroke-linecap:butt;stroke-linejoin:miter;stroke-opacity:1"
     d="M 104.90217,74.870291 C 104.90217,74.870291 103.19056,75.907601 103.19056,77.982232 C 103.19056,80.056862 104.26632,81.094183 104.26632,81.094183 C 104.26632,81.094183 105.34207,79.019552 105.34207,77.982232 C 105.34207,76.944922 105.01434,74.914769 104.90217,74.870291 z "
     id="path2803" />
  <g
     id="g3798"
     transform="translate(17.666868,92.155897)">
    <g
       transform="matrix(1.0732092,0,0,1.0348575,-19.462125,-93.798057)"
       id="g4003">
      <g
         id="g3991"
         style="opacity:1">
        <path
           sodipodi:nodetypes="csscscssc"
           id="path3989"
           d="M 107.25418,57.941223 C 107.25418,57.941223 110.82433,57.954768 112.26606,59.527848 C 112.87681,60.194244 115.79584,59.884383 116.0049,58.150286 C 116.22497,56.324877 113.26843,56.938848 113.26843,56.938848 C 113.26843,56.938848 112.68503,55.936472 113.73035,54.934097 C 114.77567,53.931721 117.27793,54.934097 117.27793,54.934097 C 117.27793,54.934097 119.28269,55.936472 119.28269,57.941223 C 119.28269,59.945974 118.39431,61.514616 117.70255,62.786978 C 116.13458,65.670922 102.903,66.038697 104.20032,58.040117"
           style="fill:#ffffff;fill-opacity:1;fill-rule:evenodd;stroke:#000000;stroke-width:0.83225417;stroke-linecap:butt;stroke-linejoin:round;stroke-miterlimit:4;stroke-dasharray:none;stroke-opacity:1" />
        <path
           sodipodi:nodetypes="ccssscsss"
           id="path3987"
           d="M 104.26281,58.829305 C 104.04953,57.951488 102.76496,57.463279 102.76496,57.463279 C 102.76496,57.463279 99.026112,56.520722 96.018986,59.527848 C 93.011859,62.534975 90.703634,64.01601 89.691138,62.159788 C 88.917116,60.740763 92.341268,61.487885 91.77872,59.945974 C 91.216171,58.404063 89.21142,59.344847 89.21142,59.344847 C 89.21142,59.344847 87.388394,59.553911 87.492926,62.585326 C 87.597457,65.616742 90.718364,66.904525 92.261487,66.962603 C 97.67002,67.166162 105.93862,65.726488 104.26281,58.829305 z "
           style="fill:#ffffff;fill-opacity:1;fill-rule:evenodd;stroke:#000000;stroke-width:0.83225417;stroke-linecap:round;stroke-linejoin:round;stroke-miterlimit:4;stroke-dasharray:none;stroke-opacity:1" />
      </g>
      <path
         style="fill:#ffffff;fill-opacity:1;fill-rule:evenodd;stroke:#000000;stroke-width:0.82233089;stroke-linecap:round;stroke-linejoin:round;stroke-miterlimit:4;stroke-dasharray:none;stroke-opacity:1"
         d="M 99.653526,62.422102 C 97.876488,63.006351 97.855246,65.638292 96.852866,65.638292 C 95.850493,65.638292 100.14146,67.747575 102.58041,65.742824 C 105.01935,63.738073 104.35745,59.476567 104.35745,59.476567"
         id="path3997"
         sodipodi:nodetypes="cssc" />
      <path
         style="fill:#ffffff;fill-opacity:1;fill-rule:evenodd;stroke:#000000;stroke-width:0.82233089;stroke-linecap:round;stroke-linejoin:round;stroke-miterlimit:4;stroke-dasharray:none;stroke-opacity:1"
         d="M 95.019199,63.746413 C 95.12373,65.375978 93.534516,67.485261 92.532141,67.485261 C 91.529765,67.485261 95.002757,68.500529 97.632488,66.75354 C 99.548772,65.48051 100.04754,63.363119 99.864608,61.692023"
         id="path3995"
         sodipodi:nodetypes="csss" />
      <path
         style="fill:#ffffff;fill-opacity:1;fill-rule:evenodd;stroke:#000000;stroke-width:0.82233089;stroke-linecap:round;stroke-linejoin:round;stroke-miterlimit:4;stroke-dasharray:none;stroke-opacity:1"
         d="M 109.46621,62.343886 C 110.70753,63.20253 111.83864,64.826498 112.71036,65.375289 C 112.71969,65.51902 108.97828,67.669359 106.53933,65.664608 C 104.10039,63.659857 104.41204,58.369201 104.41204,58.369201"
         id="path3999"
         sodipodi:nodetypes="ccsc" />
      <path
         style="fill:#ffffff;fill-opacity:1;fill-rule:evenodd;stroke:#000000;stroke-width:0.82233101;stroke-linecap:round;stroke-linejoin:round;stroke-miterlimit:4;stroke-dasharray:none;stroke-opacity:1"
         d="M 114.02554,61.314353 C 115.77392,63.463347 118.11242,60.062498 118.5256,60.565767 C 119.30331,61.513054 118.12466,65.125683 113.95587,65.452789 C 111.45893,65.648712 110.01895,62.567319 109.55135,62.377866"
         id="path4001"
         sodipodi:nodetypes="csss" />
    </g>
    <g
       id="g3794">
      <path
         style="fill:#ffee00;fill-opacity:1;fill-rule:evenodd;stroke:none;stroke-width:1px;stroke-linecap:butt;stroke-linejoin:miter;stroke-opacity:1"
         d="M 88.625759,-32.494973 C 88.625759,-32.494973 87.515189,-33.404851 85.770029,-32.34199 C 84.024839,-31.279139 83.206709,-30.200228 82.438319,-29.894262 C 81.669929,-29.588296 85.760529,-30.675228 86.404629,-31.279139 C 87.048719,-31.883041 88.467109,-32.34199 88.625759,-32.494973 z "
         id="path2805" />
      <path
         style="fill:#ffee00;fill-opacity:1;fill-rule:evenodd;stroke:none;stroke-width:1px;stroke-linecap:butt;stroke-linejoin:miter;stroke-opacity:1"
         d="M 106.73128,-28.861356 C 105.99682,-27.975084 103.32335,-26.440721 101.51967,-28.257114 C 100.89401,-28.77536 100.32832,-29.610924 98.187979,-30.704841 C 100.61428,-31.41019 102.9125,-29.274823 103.55659,-28.670922 C 104.20067,-28.06701 105.66028,-28.610134 106.73128,-28.861356 z "
         id="path2807"
         sodipodi:nodetypes="cccsc" />
    </g>
  </g>
  <g
     id="g3977"
     transform="matrix(1.0732092,0,0,1.0348575,-1.8794029,-2.0162077)">
    <g
       id="g3851">
      <path
         style="opacity:0.93236712;fill:#88ddff;fill-opacity:1;fill-rule:evenodd;stroke:#000000;stroke-width:0.83225417;stroke-linecap:butt;stroke-linejoin:miter;stroke-miterlimit:4;stroke-dasharray:none;stroke-opacity:1"
         d="M 109.46484,45.014116 C 111.28651,45.087794 111.59,47.271581 111.03705,49.175168 C 110.52875,51.061236 108.16886,50.939341 107.85589,49.059326 C 107.5431,47.316539 107.65453,44.946192 109.46484,45.014116 z "
         id="path815"
         sodipodi:nodetypes="csss" />
      <path
         style="opacity:0.93236712;fill:#88ddff;fill-opacity:1;fill-rule:evenodd;stroke:#000000;stroke-width:0.83225417;stroke-linecap:butt;stroke-linejoin:miter;stroke-miterlimit:4;stroke-dasharray:none;stroke-opacity:1"
         d="M 96.628287,45.536737 C 98.556703,45.609019 98.877993,47.751438 98.292653,49.618966 C 97.754546,51.469306 95.256309,51.34972 94.92501,49.505318 C 94.593824,47.795545 94.711791,45.4701 96.628287,45.536737 z "
         id="path816"
         sodipodi:nodetypes="csss" />
      <path
         style="opacity:0.93236712;fill:none;fill-opacity:1;fill-rule:evenodd;stroke:#000000;stroke-width:0.83225417;stroke-linecap:round;stroke-linejoin:miter;stroke-miterlimit:4;stroke-dasharray:none;stroke-opacity:1"
         d="M 104.65255,41.718111 C 105.55413,40.854791 107.82102,40.479501 108.87477,40.527541 C 110.18852,40.525791 111.30599,41.581341 112.25883,43.166211"
         id="path821"
         sodipodi:nodetypes="csc" />
      <path
         style="opacity:0.93236712;fill:none;fill-opacity:1;fill-rule:evenodd;stroke:#000000;stroke-width:0.83225417;stroke-linecap:round;stroke-linejoin:miter;stroke-miterlimit:4;stroke-dasharray:none;stroke-opacity:1"
         d="M 99.612551,43.210441 C 98.821151,41.828051 97.919061,40.288871 95.887811,40.361041 C 93.958591,40.430071 92.827651,42.223351 91.887251,42.917371"
         id="path822"
         sodipodi:nodetypes="ccc" />
    </g>
    <g
       style="fill:#ffd0ce;fill-opacity:1"
       id="g3847">
      <path
         style="opacity:1;fill:#ffd0ce;fill-opacity:1;fill-rule:evenodd;stroke:#000000;stroke-width:0.83225417;stroke-linecap:round;stroke-linejoin:miter;stroke-miterlimit:4;stroke-dasharray:none;stroke-opacity:1"
         d="M 102.97223,51.9585 C 104.89918,51.1572 109.74912,50.18956 110.49305,51.3074 C 112.41345,54.25475 111.75581,57.56264 108.9336,58.93113 C 107.17092,59.80495 104.21868,59.019146 102.78353,57.433926"
         id="n"
         sodipodi:nodetypes="cssc" />
      <path
         style="fill:#ffd0ce;fill-opacity:1;fill-rule:evenodd;stroke:#000000;stroke-width:0.83225417;stroke-linecap:round;stroke-linejoin:miter;stroke-miterlimit:4;stroke-dasharray:none;stroke-opacity:1"
         d="M 104.24705,46.915092 C 104.24705,46.915092 104.23184,49.507957 104.74063,50.924594"
         id="path3845" />
    </g>
  </g>
  <path
     style="fill:#ffee80;fill-opacity:1;fill-rule:evenodd;stroke:none;stroke-width:1px;stroke-linecap:butt;stroke-linejoin:miter;stroke-opacity:1"
     d="M 101.81551,69.523565 C 101.81551,69.523565 96.822424,73.230425 96.141451,75.198392 C 95.460467,77.166371 98.496292,80.42583 98.496292,80.42583 C 98.496292,80.42583 97.841854,76.730851 98.182354,75.746867 C 98.522838,74.762883 100.33674,72.52073 101.81551,69.523565 z "
     id="path2809"
     inkscape:transform-center-y="-1.4029462"
     inkscape:transform-center-x="-0.67151313"
     sodipodi:nodetypes="cscsc" />
  <path
     style="fill:#ffee80;fill-opacity:1;fill-rule:evenodd;stroke:none;stroke-width:1px;stroke-linecap:butt;stroke-linejoin:miter;stroke-opacity:1"
     d="M 110.93096,67.68009 C 110.93096,67.68009 109.21935,68.717401 109.21935,70.792042 C 109.21935,72.866672 110.2951,73.903982 110.2951,73.903982 C 110.2951,73.903982 111.37086,71.829352 111.37086,70.792042 C 111.37086,69.754721 111.04314,67.724579 110.93096,67.68009 z "
     id="path2811" />
  <path
     style="opacity:1;fill:#008000;fill-opacity:1;stroke:#000000;stroke-width:1.2559458;stroke-linecap:round;stroke-linejoin:round;stroke-miterlimit:4;stroke-dasharray:none;stroke-opacity:1"
     d="M 98.138826,154.15866 C 93.712646,154.21346 90.161453,158.04521 90.213795,162.67886 C 90.254025,166.24006 92.408343,169.23397 95.413618,170.41594 L 104.3097,157.10314 C 102.81763,155.29064 100.60122,154.12818 98.138826,154.15866 z "
     id="path3281" />
  <path
     style="fill:#ffd0d0;fill-rule:evenodd;stroke:#000000;stroke-width:1.25296935;stroke-linecap:round;stroke-linejoin:round;stroke-opacity:1;stroke-miterlimit:4;stroke-dasharray:none"
     d="M 38.591456,176.47213 C 40.09502,180.73223 40.596207,179.47926 40.345613,182.23579 C 40.095019,184.99232 36.962596,187.62356 36.962596,187.62356 C 36.962596,187.62356 34.394009,191.31982 31.825422,191.50776 C 29.256835,191.6957 28.442405,191.63306 26.688248,189.37772 C 22.177558,188.87653 24.808793,184.24054 24.808793,184.24054 C 24.808793,184.24054 22.929339,185.24291 22.177557,182.98757 C 21.425776,180.73223 23.054636,179.47926 23.054636,179.47926 C 23.054636,179.47926 20.673994,179.98044 20.4234,177.7251 C 20.172806,175.46975 22.177557,173.21441 22.177557,173.21441 C 22.177557,173.21441 19.546322,174.84327 19.295728,171.83615 C 19.045135,168.82902 25.560575,163.44125 25.560575,163.44125 C 25.560575,163.44125 31.324234,162.18828 33.328985,163.44125 C 35.333736,164.69422 39.302522,166.70527 39.593832,168.45313 C 40.345613,172.96381 39.593832,176.97332 38.591456,176.47213 z "
     id="path3335"
     sodipodi:nodetypes="cscsccscscscssc" />
  <g
     id="g3354">
    <g
       id="g3349">
      <path
         style="fill:#ffee00;fill-rule:evenodd;stroke:#000000;stroke-width:1px;stroke-linecap:round;stroke-linejoin:round;stroke-opacity:1"
         d="M 29.769033,159.4415 C 29.769033,159.4415 34.376145,184.95781 34.198949,189.91932 C 34.021752,194.88082 33.312966,199.31074 33.312966,199.31074 L 27.81987,199.31074 C 27.81987,199.31074 26.75669,194.70363 26.402297,189.91932 C 26.047904,185.13501 29.41464,159.0871 29.769033,159.4415 z "
         id="path3345"
         sodipodi:nodetypes="csccsc" />
      <path
         sodipodi:type="arc"
         style="opacity:1;fill:#ffee00;fill-opacity:1;stroke:#000000;stroke-width:1.07095456;stroke-linecap:round;stroke-linejoin:round;stroke-miterlimit:4;stroke-dasharray:none;stroke-opacity:1"
         id="path3274"
         sodipodi:cx="27.997066"
         sodipodi:cy="117.09151"
         sodipodi:rx="3.5439324"
         sodipodi:ry="3.5439324"
         d="M 31.540751,117.0496 A 3.5439324,3.5439324 0 1 1 31.540329,117.02258"
         sodipodi:start="6.2713595"
         sodipodi:end="12.54692"
         sodipodi:open="true"
         transform="matrix(1.1699556,0,0,1.1699556,-2.2775051,65.154026)" />
      <path
         style="fill:#ffee00;fill-rule:evenodd;stroke:#000000;stroke-width:1px;stroke-linecap:butt;stroke-linejoin:miter;stroke-opacity:1"
         d="M 25.516314,211.36011 C 25.516314,211.36011 23.212758,211.36011 24.275938,213.30928 C 25.339117,215.25844 26.225101,215.96723 28.174263,215.25844 C 30.123426,214.54965 31.009409,211.8917 30.832213,210.11974 C 30.655016,208.34777 29.41464,205.33543 25.516314,205.33543 C 21.617988,205.33543 17.010876,211.00572 16.83368,214.54965 C 16.656483,218.09358 16.833679,222.7007 21.263595,227.48501 C 23.903928,230.33657 30.300623,232.8009 36.148112,229.25697 C 41.522913,225.99951 42.704386,221.63752 42.52719,214.90405 C 42.409827,210.56161 40.755224,206.753 37.742881,205.33543 C 35.812241,204.4269 33.135769,204.44945 31.540999,207.10739 C 29.946229,209.76534 30.477819,214.54965 32.958572,214.72685 C 35.439325,214.90404 35.970915,214.37246 36.148112,212.77769 C 36.325308,211.18292 38.231531,213.07828 37.565685,217.73919 C 36.856898,222.70069 34.879288,224.82706 30.47782,224.82706 C 25.516314,224.82706 22.378222,221.1174 22.149578,217.91639 C 21.795185,212.95488 24.807528,211.36011 25.516314,211.36011 z "
         id="path3347"
         sodipodi:nodetypes="csssssssssssssssc" />
    </g>
    <g
       id="g3308">
      <path
         sodipodi:nodetypes="csssscc"
         id="path3304"
         d="M 24.902816,115.31954 C 24.902816,115.31954 18.700934,115.85114 17.814951,112.4844 C 16.709425,108.2834 17.814951,105.39653 18.700934,104.68775 C 19.586917,103.97896 13.378639,105.42122 12.853446,110.35804 C 11.967463,118.68628 17.460557,121.16703 21.00449,120.81264 C 24.548422,120.45825 25.965995,119.39507 25.965995,119.39507 L 24.902816,115.31954 z "
         style="fill:#ffee00;fill-rule:evenodd;stroke:#000000;stroke-width:1.25296938;stroke-linecap:butt;stroke-linejoin:miter;stroke-miterlimit:4;stroke-dasharray:none;stroke-opacity:1" />
      <path
         style="fill:#ffee00;fill-rule:evenodd;stroke:#000000;stroke-width:1.25296938;stroke-linecap:butt;stroke-linejoin:miter;stroke-miterlimit:4;stroke-dasharray:none;stroke-opacity:1"
         d="M 29.237443,115.49673 C 29.237443,115.49673 35.439325,116.02833 36.325308,112.66159 C 37.430834,108.46059 36.325308,105.57372 35.439325,104.86494 C 34.553342,104.15615 40.761621,105.59841 41.286814,110.53523 C 42.172797,118.86347 36.679702,121.34422 33.135769,120.98983 C 29.591837,120.63544 28.174264,119.57226 28.174264,119.57226 L 29.237443,115.49673 z "
         id="path3306"
         sodipodi:nodetypes="csssscc" />
      <g
         id="g3295"
         transform="translate(0,0.5011877)">
        <path
           sodipodi:nodetypes="cscsccsscscccsc"
           id="path3288"
           transform="matrix(1.0023755,0,0,1.0023755,0,-0.5517291)"
           d="M 26.25,88.09375 C 26.25,88.09375 25.75,93.84375 25,96.09375 C 24.25,98.343751 21.75,103.84375 21.75,103.84375 C 21.75,103.84375 24,105.84375 25,108.59375 C 26,111.34375 26,114.09375 26,114.09375 C 26.152734,120.13069 25.683238,127.02629 25.40625,133.34375 C 25.111213,139.58103 23.357536,148.32097 23.0625,151.3125 C 22.767463,154.30403 26.088233,156.5625 30.21875,156.5625 C 34.349266,156.5625 34.062499,150.1875 34.0625,150.1875 C 34.0625,150.1875 31.275366,142.28085 30.1875,133.625 C 29.272508,126.34466 28.730569,117.28456 28.59375,114.75 C 29.362748,113.73479 29.238217,109.79517 30,107.84375 C 31.25,105.84375 33,104.09375 33,104.09375 C 33,104.09375 30.250001,99.093745 29.25,96.59375 C 28.250001,94.09375 26.25,88.09375 26.25,88.09375 z "
           style="fill:#ffee00;fill-rule:evenodd;stroke:#000000;stroke-width:1.35923278;stroke-linecap:butt;stroke-linejoin:miter;stroke-miterlimit:4;stroke-dasharray:none;stroke-opacity:1" />
        <path
           transform="translate(-0.5011877,0)"
           sodipodi:open="true"
           sodipodi:end="12.54692"
           sodipodi:start="6.2713595"
           d="M 31.540751,117.0496 A 3.5439324,3.5439324 0 1 1 31.540329,117.02258"
           sodipodi:ry="3.5439324"
           sodipodi:rx="3.5439324"
           sodipodi:cy="117.09151"
           sodipodi:cx="27.997066"
           id="path3270"
           style="opacity:1;fill:#ffee00;fill-opacity:1;stroke:#000000;stroke-width:1.25296938;stroke-linecap:round;stroke-linejoin:round;stroke-miterlimit:4;stroke-dasharray:none;stroke-opacity:1"
           sodipodi:type="arc" />
        <path
           transform="translate(1.417573,45.716729)"
           sodipodi:type="arc"
           style="opacity:1;fill:#ffee00;fill-opacity:1;stroke:#000000;stroke-width:1.25296938;stroke-linecap:round;stroke-linejoin:round;stroke-miterlimit:4;stroke-dasharray:none;stroke-opacity:1"
           id="path3272"
           sodipodi:cx="27.997066"
           sodipodi:cy="117.09151"
           sodipodi:rx="3.5439324"
           sodipodi:ry="3.5439324"
           d="M 31.540751,117.0496 A 3.5439324,3.5439324 0 1 1 31.540329,117.02258"
           sodipodi:start="6.2713595"
           sodipodi:end="12.54692"
           sodipodi:open="true" />
        <path
           sodipodi:nodetypes="cscssccc"
           id="path3276"
           d="M 34.394009,150.11784 C 33.507615,152.48812 31.248782,154.18961 28.567702,154.22132 C 26.061064,154.25097 23.878977,152.81965 22.835367,150.713 C 22.570592,151.42214 22.418668,152.19775 22.428152,152.99967 C 22.469356,156.4838 25.334167,159.2744 28.818296,159.2332 C 32.302425,159.19199 35.093022,156.32719 35.051818,152.84305 L 35.051818,152.81173 C 35.032999,151.84431 34.799258,150.93005 34.394009,150.11784 z "
           style="opacity:1;fill:#ffee00;fill-opacity:1;stroke:#000000;stroke-width:1.2559458;stroke-linecap:round;stroke-linejoin:round;stroke-miterlimit:4;stroke-dasharray:none;stroke-opacity:1" />
        <path
           style="opacity:1;fill:#ffee00;fill-opacity:1;stroke:#000000;stroke-width:1.2559458;stroke-linecap:round;stroke-linejoin:round;stroke-miterlimit:4;stroke-dasharray:none;stroke-opacity:1"
           d="M 34.644603,152.12259 C 33.758209,154.49287 31.499376,156.19436 28.818296,156.22607 C 26.311658,156.25572 24.129571,154.8244 23.085961,152.71775 C 22.821186,153.42689 22.669262,154.2025 22.678746,155.00442 C 22.71995,158.48855 25.584761,161.27915 29.06889,161.23795 C 32.553019,161.19674 35.343616,158.33194 35.302412,154.8478 L 35.302412,154.81648 C 35.283593,153.84906 35.049852,152.9348 34.644603,152.12259 z "
           id="path3291"
           sodipodi:nodetypes="cscssccc" />
      </g>
    </g>
  </g>
  <g
     id="g3381">
    <path
       sodipodi:nodetypes="csssccc"
       id="path3343"
       d="M 25.685872,169.5808 C 25.685872,169.5808 28.943592,167.45075 26.813544,164.81952 C 24.683496,162.18828 22.302854,163.81715 21.175182,165.6966 C 20.047509,167.57605 18.347065,170.18968 18.41865,171.83615 C 18.543946,174.71798 21.801666,175.46976 21.801666,175.46976 L 22.929339,171.83614 L 25.685872,169.5808 z "
       style="fill:#ffd0d0;fill-rule:evenodd;stroke:#000000;stroke-width:1.25296935;stroke-linecap:butt;stroke-linejoin:miter;stroke-opacity:1;stroke-miterlimit:4;stroke-dasharray:none" />
    <path
       sodipodi:nodetypes="csssscccsc"
       id="path3341"
       d="M 21.498084,173.59534 C 21.498084,173.59534 24.531708,169.30357 25.879986,168.79866 C 27.228263,168.29374 30.261889,166.40031 32.115769,167.2839 C 33.969651,168.16751 36.83474,169.05111 36.497671,169.93471 C 36.160602,170.81831 35.525286,173.46167 34.177007,173.5879 C 32.828731,173.71412 28.0277,173.0811 28.0277,173.0811 C 28.0277,173.0811 27.565334,173.21665 26.722659,174.47894 L 24.531708,178.51825 C 24.531708,178.51825 20.871599,179.65244 20.53453,178.1377 C 20.197459,176.62295 21.329549,173.72157 21.498084,173.59534 z "
       style="fill:#ffd0d0;fill-rule:evenodd;stroke:#000000;stroke-width:1.1640805px;stroke-linecap:butt;stroke-linejoin:miter;stroke-opacity:1" />
    <path
       sodipodi:nodetypes="csssscccsc"
       style="fill:#ffd0d0;fill-rule:evenodd;stroke:#000000;stroke-width:1.07874608px;stroke-linecap:butt;stroke-linejoin:miter;stroke-opacity:1"
       d="M 23.139124,178.43152 C 23.139124,178.43152 25.698299,174.06264 26.835709,173.54865 C 27.97312,173.03466 30.532295,171.10722 32.096235,172.00668 C 33.660175,172.90616 36.327767,174.93331 36.043414,175.83279 C 35.759061,176.73227 34.65541,177.27505 33.517998,177.40355 C 32.380588,177.53204 29.418905,178.51202 29.418905,178.51202 C 29.418905,178.51202 28.508067,178.79781 27.797185,180.08278 L 25.322408,184.31997 C 25.322408,184.31997 23.452146,184.74578 22.604177,183.42689 C 21.693339,182.01023 22.370462,179.81299 23.139124,178.43152 z "
       id="path3339" />
    <path
       sodipodi:nodetypes="csssscccsc"
       id="path3337"
       d="M 24.057011,186.11999 C 24.057011,186.11999 26.627072,179.57156 27.189435,178.60218 C 29.152966,175.21752 32.451906,176.72273 33.830172,177.5998 C 35.208443,178.47687 36.336111,179.72985 36.085517,180.60693 C 35.834923,181.48401 34.957845,183.73935 33.955469,183.86465 C 32.953094,183.98994 29.695374,182.48638 29.695374,182.48638 C 29.695374,182.48638 29.570077,184.86703 28.943592,186.12 L 27.189435,189.12712 C 27.189435,189.12712 24.93409,190.0042 24.683496,188.50064 C 24.432902,186.99707 23.931714,186.24529 24.057011,186.11999 z "
       style="fill:#ffd0d0;fill-rule:evenodd;stroke:#000000;stroke-width:1px;stroke-linecap:butt;stroke-linejoin:miter;stroke-opacity:1" />
  </g>
  <image
     xlink:href="clubs-king-and-jack.jpg"
     sodipodi:absref="/home/repo/playground/artwork/carddecks/tigullio/clubs-king-and-jack.jpg"
     width="183.51704"
     height="283.18582"
     id="image707"
     style="opacity:0.5"
     x="-195.54556"
     y="-301.72977"
     sodipodi:insensitive="true"
     transform="scale(-1,-1)" />
</svg>
