<?xml version="1.0" encoding="UTF-8" standalone="no"?>
<!-- Created with Sodipodi ("http://www.sodipodi.com/") -->
<svg
   xmlns:dc="http://purl.org/dc/elements/1.1/"
   xmlns:cc="http://web.resource.org/cc/"
   xmlns:rdf="http://www.w3.org/1999/02/22-rdf-syntax-ns#"
   xmlns:svg="http://www.w3.org/2000/svg"
   xmlns="http://www.w3.org/2000/svg"
   xmlns:xlink="http://www.w3.org/1999/xlink"
   xmlns:sodipodi="http://sodipodi.sourceforge.net/DTD/sodipodi-0.dtd"
   xmlns:inkscape="http://www.inkscape.org/namespaces/inkscape"
   viewBox="0 0 206 315"
   id="svg548"
   sodipodi:version="0.32"
   width="58mm"
   height="89mm"
   sodipodi:docname="king-of-diamonds.svg"
   sodipodi:docbase="/home/mikelima/kde/src/playground/artwork/carddecks/tigullio"
   inkscape:version="0.45.1"
   inkscape:output_extension="org.inkscape.output.svg.inkscape">
  <metadata
     id="metadata52">
    <rdf:RDF>
      <cc:Work
         rdf:about="">
        <dc:format>image/svg+xml</dc:format>
        <dc:type
           rdf:resource="http://purl.org/dc/dcmitype/StillImage" />
      </cc:Work>
    </rdf:RDF>
  </metadata>
  <defs
     id="defs550" />
  <sodipodi:namedview
     id="base"
     showgrid="true"
     showguides="false"
     inkscape:zoom="1.6951494"
     inkscape:cx="77.198798"
     inkscape:cy="134.73197"
     inkscape:window-width="1270"
     inkscape:window-height="747"
     inkscape:window-x="0"
     inkscape:window-y="26"
     inkscape:current-layer="svg548" />
  <g
     id="g18978">
    <path
       sodipodi:nodetypes="c"
       id="path734"
       d=""
       style="fill:none;fill-rule:evenodd;stroke:black;stroke-opacity:1;stroke-width:0.875;stroke-linejoin:miter;stroke-linecap:round;fill-opacity:1;stroke-dasharray:none;" />
    <path
       sodipodi:nodetypes="csscc"
       id="path3087"
       d="M 60.724877,94.153831 C 44.251267,105.68223 34.196995,116.19134 27.821145,145.62744 C 24.920626,159.0186 23.522942,194.57495 39.835516,209.93721 C 44.007404,213.86606 74.828161,145.75268 74.828161,145.75268 C 74.828161,145.75268 72.180971,94.33297 60.724877,94.153831 z "
       style="opacity:1;color:black;fill:red;fill-opacity:1;fill-rule:nonzero;stroke:black;stroke-width:0.69999999;stroke-linecap:round;stroke-linejoin:round;marker:none;marker-start:none;marker-mid:none;marker-end:none;stroke-miterlimit:4;stroke-dasharray:none;stroke-dashoffset:0;stroke-opacity:1;visibility:visible;display:inline;overflow:visible" />
    <g
       id="g2858">
      <path
         style="opacity:1;color:black;fill:white;fill-opacity:1;fill-rule:nonzero;stroke:black;stroke-width:0.69999999;stroke-linecap:round;stroke-linejoin:round;marker:none;marker-start:none;marker-mid:none;marker-end:none;stroke-miterlimit:4;stroke-dasharray:none;stroke-dashoffset:0;stroke-opacity:1;visibility:visible;display:inline;overflow:visible"
         d="M 28.789481,135.5352 C 28.789481,135.5352 32.223845,138.52285 37.235723,139.03377 C 42.2476,139.5447 46.109272,138.54232 46.109272,138.54232 L 46.257102,155.05626 C 46.257102,155.05626 39.953902,156.76535 35.378802,156.76535 C 32.371675,156.76535 25.059387,155.9108 25.059387,155.9108 L 28.789481,135.5352 z "
         id="path2854"
         sodipodi:nodetypes="csccscc" />
      <path
         style="opacity:1;color:black;fill:#08f;fill-opacity:1;fill-rule:nonzero;stroke:black;stroke-width:0.69999999;stroke-linecap:round;stroke-linejoin:round;marker:none;marker-start:none;marker-mid:none;marker-end:none;stroke-miterlimit:4;stroke-dasharray:none;stroke-dashoffset:0;stroke-opacity:1;visibility:visible;display:inline;overflow:visible"
         d="M 28.291645,138.95542 C 28.291645,138.95542 31.72601,141.24206 36.73789,141.63309 C 41.749769,142.02413 45.759272,141.25695 45.759272,141.25695 L 45.759272,152.76465 C 45.759272,152.76465 39.30824,154.29901 34.733138,154.29901 C 31.72601,154.29901 24.70938,153.53182 24.70938,153.53182 L 28.291645,138.95542 z "
         id="path2856"
         sodipodi:nodetypes="csccscc" />
    </g>
    <path
       transform="matrix(1.002375,0,0,1.002375,0,-0.551729)"
       id="path3089"
       d="M 55.5625 92.71875 C 39.127929 104.21983 24.67324 119.41491 18.3125 148.78125 C 15.418854 162.14068 15.217225 195.8304 39.75 211.15625 C 44.59871 214.18528 74.65625 145.96875 74.65625 145.96875 C 74.65625 145.96875 43.912001 213.91954 39.75 210 C 23.476084 194.67415 24.856355 159.20317 27.75 145.84375 C 33.993104 117.02052 43.788454 106.35189 59.6875 95.09375 C 58.376007 93.606109 57.001365 92.74125 55.5625 92.71875 z "
       style="opacity:1;color:black;fill:green;fill-opacity:1;fill-rule:nonzero;stroke:black;stroke-width:0.69999999;stroke-linecap:round;stroke-linejoin:round;marker:none;marker-start:none;marker-mid:none;marker-end:none;stroke-miterlimit:4;stroke-dasharray:none;stroke-dashoffset:0;stroke-opacity:1;visibility:visible;display:inline;overflow:visible" />
    <path
       sodipodi:nodetypes="csscc"
       id="path3085"
       d="M 66.787708,113.38764 C 66.787708,113.38764 49.804992,122.08098 44.892584,138.76423 C 41.022393,151.90796 46.728951,164.67892 49.452421,170.00615 C 52.061018,175.10867 74.828161,145.75268 74.828161,145.75268 L 66.787708,113.38764 z "
       style="opacity:1;color:black;fill:#fe0;fill-opacity:1;fill-rule:nonzero;stroke:black;stroke-width:0.69999999;stroke-linecap:round;stroke-linejoin:round;marker:none;marker-start:none;marker-mid:none;marker-end:none;stroke-miterlimit:4;stroke-dasharray:none;stroke-dashoffset:0;stroke-opacity:1;visibility:visible;display:inline;overflow:visible" />
    <path
       sodipodi:nodetypes="csscc"
       id="path3083"
       d="M 66.996771,117.77797 C 66.996771,117.77797 53.150002,124.38067 49.073847,137.50985 C 45.011242,150.59539 48.819582,160.91578 51.543052,166.24301 C 54.151649,171.34553 74.828161,145.75268 74.828161,145.75268 L 66.996771,117.77797 z "
       style="opacity:1;color:black;fill:#fe0;fill-opacity:1;fill-rule:nonzero;stroke:black;stroke-width:0.69999999;stroke-linecap:round;stroke-linejoin:round;marker:none;marker-start:none;marker-mid:none;marker-end:none;stroke-miterlimit:4;stroke-dasharray:none;stroke-dashoffset:0;stroke-opacity:1;visibility:visible;display:inline;overflow:visible" />
    <path
       sodipodi:nodetypes="csscc"
       id="path3079"
       d="M 68.154585,130.73991 C 68.154585,130.73991 59.794429,135.77145 57.701428,143.91089 C 55.819859,151.22809 56.865175,157.43142 58.955806,160.18353 C 61.046438,162.93564 72.753974,147.88309 72.753974,147.88309 L 68.154585,130.73991 z "
       style="opacity:1;color:black;fill:#fe0;fill-opacity:1;fill-rule:nonzero;stroke:black;stroke-width:0.69999999;stroke-linecap:round;stroke-linejoin:round;marker:none;marker-start:none;marker-mid:none;marker-end:none;stroke-miterlimit:4;stroke-dasharray:none;stroke-dashoffset:0;stroke-opacity:1;visibility:visible;display:inline;overflow:visible" />
    <path
       sodipodi:nodetypes="ccsssscc"
       id="path3077"
       d="M 109.68983,149.39085 C 93.206789,149.76042 65.427442,142.976 65.427442,142.976 C 65.427442,142.976 63.29138,150.36675 57.394984,158.11282 C 50.097874,167.699 44.609059,175.18822 42.87069,180.7308 C 40.356978,188.74547 38.156395,191.05118 37.992301,199.9487 C 37.825993,208.96633 39.951049,211.47944 45.753375,216.21 C 52.185559,221.45407 60.758116,224.34064 60.758116,224.34064 L 109.68983,149.39085 z "
       style="opacity:1;color:black;fill:green;fill-opacity:1;fill-rule:nonzero;stroke:black;stroke-width:0.69999999;stroke-linecap:round;stroke-linejoin:round;marker:none;marker-start:none;marker-mid:none;marker-end:none;stroke-miterlimit:4;stroke-dasharray:none;stroke-dashoffset:0;stroke-opacity:1;visibility:visible;display:inline;overflow:visible" />
    <path
       id="path3033"
       d="M 143.98639,96.911209 L 110.2613,149.24302 C 110.2613,149.24302 95.136301,149.68651 87.66317,148.50387 C 80.190039,147.32123 66.966975,141.4974 66.966975,140.81671 C 66.966975,140.13602 67.706124,125.10039 65.784335,115.07663 C 63.862545,105.05288 55.130652,91.884991 55.130652,91.884991 L 61.940756,88.484901 L 131.86433,88.928391 L 143.98639,96.911209 z "
       style="opacity:1;color:black;fill:#08f;fill-opacity:1;fill-rule:nonzero;stroke:black;stroke-width:0.875;stroke-linecap:round;stroke-linejoin:round;marker:none;marker-start:none;marker-mid:none;marker-end:none;stroke-miterlimit:4;stroke-dasharray:none;stroke-dashoffset:0;stroke-opacity:1;visibility:visible;display:inline;overflow:visible" />
    <path
       sodipodi:nodetypes="csssccsssc"
       id="path2843"
       d="M 124.29456,79.993491 C 124.29456,79.993491 126.21567,82.117897 128.30406,81.998242 C 130.51787,81.871401 132.11383,81.093082 133.90951,80.042098 C 135.67794,79.007069 136.91664,78.658869 138.75527,79.461507 C 140.80945,80.358245 140.27924,82.093448 139.86218,84.098199 C 138.76115,86.300302 142.35442,89.680533 139.33019,90.017246 C 136.77956,90.017246 136.32307,91.019621 136.32307,89.01487 C 136.32307,87.010119 136.87131,85.435924 134.95483,84.273647 C 132.0093,82.487285 130.1621,86.50584 127.08698,87.200531 C 123.76538,87.950903 124.29456,79.993491 124.29456,79.993491"
       style="opacity:1;color:black;fill:white;fill-opacity:1;fill-rule:evenodd;stroke:black;stroke-width:1.25;stroke-linecap:round;stroke-linejoin:round;marker:none;marker-start:none;marker-mid:none;marker-end:none;stroke-miterlimit:4;stroke-dasharray:none;stroke-dashoffset:0;stroke-opacity:1;visibility:visible;display:inline;overflow:visible" />
    <path
       sodipodi:nodetypes="ccsscscscc"
       id="path2998"
       d="M 75.836773,79.993491 C 70.422982,84.237018 64.103882,86.668612 58.097176,89.815371 C 64.269077,98.445498 81.326333,112.27888 101.55919,111.83872 C 120.37994,111.42928 127.81665,108.58978 131.56867,106.07667 C 135.32069,103.56356 142.0646,96.17206 142.0646,96.17206 C 142.0646,96.17206 125.35981,86.563112 121.07274,84.050002 C 116.78567,81.536893 113.9769,79.993491 113.9769,79.993491 C 113.9769,79.993491 101.96516,84.345662 96.089478,82.571703 C 90.213793,80.797743 83.080441,78.136804 83.080441,78.136804 L 75.836773,79.993491 z "
       style="opacity:1;color:black;fill:red;fill-opacity:1;fill-rule:evenodd;stroke:black;stroke-width:0.87707855;stroke-linecap:round;stroke-linejoin:round;marker:none;marker-start:none;marker-mid:none;marker-end:none;stroke-miterlimit:4;stroke-dasharray:none;stroke-dashoffset:0;stroke-opacity:1;visibility:visible;display:inline;overflow:visible" />
    <g
       id="g2984">
      <g
         id="g2980">
        <path
           sodipodi:nodetypes="csssssc"
           id="path2945"
           d="M 83.671761,90.455785 C 83.671761,90.455785 81.383234,94.135218 77.906392,98.384558 C 74.882501,102.08031 73.175833,103.58065 73.619323,106.08274 C 74.062813,108.58483 75.541113,108.73266 76.871582,108.73266 C 78.202052,108.73266 80.271671,106.21955 81.897801,102.37597 C 83.523931,98.532388 84.55874,96.314939 86.03704,94.097489 C 87.51534,91.88004 87.811,91.73221 87.811,91.73221"
           style="opacity:1;color:black;fill:#fe0;fill-opacity:1;fill-rule:evenodd;stroke:black;stroke-width:0.87707853;stroke-linecap:round;stroke-linejoin:round;marker:none;marker-start:none;marker-mid:none;marker-end:none;stroke-miterlimit:4;stroke-dasharray:none;stroke-dashoffset:0;stroke-opacity:1;visibility:visible;display:inline;overflow:visible" />
        <path
           sodipodi:nodetypes="csssssc"
           id="path2953"
           d="M 80.22089,89.358088 C 80.22089,89.358088 77.428337,92.67128 73.37802,96.378067 C 69.855365,99.601946 67.951169,100.84202 68.03124,103.38185 C 68.111311,105.92167 69.553129,106.27999 70.869845,106.47079 C 72.186561,106.6616 74.595202,104.47128 76.755746,100.90064 C 78.91629,97.330002 80.258415,95.283881 82.039447,93.301362 C 83.82048,91.318844 84.134284,91.214944 84.134284,91.214944"
           style="opacity:1;color:black;fill:#fe0;fill-opacity:1;fill-rule:evenodd;stroke:black;stroke-width:0.87707871;stroke-linecap:round;stroke-linejoin:round;marker:none;marker-start:none;marker-mid:none;marker-end:none;stroke-miterlimit:4;stroke-dasharray:none;stroke-dashoffset:0;stroke-opacity:1;visibility:visible;display:inline;overflow:visible" />
      </g>
      <g
         id="g2976">
        <path
           inkscape:transform-center-x="1.3273167"
           sodipodi:nodetypes="csssssc"
           id="path2947"
           d="M 99.235181,95.221709 C 99.235181,95.221709 99.79488,99.518496 99.796028,105.00897 C 99.797027,109.78416 99.426713,112.02617 101.35474,113.68141 C 103.28278,115.33665 104.52035,114.51467 105.54988,113.67194 C 106.57942,112.82921 106.5891,109.5736 105.41285,105.56937 C 104.23661,101.56515 103.63279,99.193788 103.37217,96.541521 C 103.11154,93.889251 103.24669,93.587583 103.24669,93.587583"
           style="opacity:1;color:black;fill:#fe0;fill-opacity:1;fill-rule:evenodd;stroke:black;stroke-width:0.87707847;stroke-linecap:round;stroke-linejoin:round;marker:none;marker-start:none;marker-mid:none;marker-end:none;stroke-miterlimit:4;stroke-dasharray:none;stroke-dashoffset:0;stroke-opacity:1;visibility:visible;display:inline;overflow:visible" />
        <path
           inkscape:transform-center-x="-0.88487778"
           sodipodi:nodetypes="csssssc"
           id="path2949"
           d="M 96.094006,95.146015 C 96.094006,95.146015 95.635628,99.454781 94.355579,104.79396 C 93.242288,109.43757 92.35904,111.53129 93.847607,113.59072 C 95.336174,115.65017 96.731381,115.13966 97.929144,114.56042 C 99.126908,113.98118 99.89598,110.81771 99.686574,106.64955 C 99.477161,102.48139 99.443367,100.0346 99.808821,97.394729 C 100.17428,94.754863 100.37609,94.49306 100.37609,94.49306"
           style="opacity:1;color:black;fill:#fe0;fill-opacity:1;fill-rule:evenodd;stroke:black;stroke-width:0.87707853;stroke-linecap:round;stroke-linejoin:round;marker:none;marker-start:none;marker-mid:none;marker-end:none;stroke-miterlimit:4;stroke-dasharray:none;stroke-dashoffset:0;stroke-opacity:1;visibility:visible;display:inline;overflow:visible" />
      </g>
      <g
         id="g2968">
        <path
           sodipodi:nodetypes="csssssc"
           id="path2957"
           d="M 127.45851,86.710138 C 127.45851,86.710138 131.23915,88.827284 136.33558,90.869751 C 140.76807,92.646129 142.98704,93.135958 143.80676,95.541199 C 144.62648,97.94644 143.40329,98.789668 142.23818,99.432068 C 141.07307,100.07446 138.04727,98.872978 134.76744,96.292261 C 131.48761,93.711541 129.51076,92.269334 127.14554,91.041257 C 124.78031,89.813183 124.45002,89.82648 124.45002,89.82648"
           style="opacity:1;color:black;fill:#fe0;fill-opacity:1;fill-rule:evenodd;stroke:black;stroke-width:0.87707818;stroke-linecap:round;stroke-linejoin:round;marker:none;marker-start:none;marker-mid:none;marker-end:none;stroke-miterlimit:4;stroke-dasharray:none;stroke-dashoffset:0;stroke-opacity:1;visibility:visible;display:inline;overflow:visible" />
        <path
           sodipodi:nodetypes="csssssc"
           id="path2959"
           d="M 126.54612,88.327989 C 126.54612,88.327989 129.61015,91.391864 133.96084,94.741019 C 137.74473,97.653855 139.74743,98.727608 139.8835,101.26505 C 140.01957,103.8025 138.61342,104.28205 137.31768,104.58407 C 136.02195,104.88609 133.43587,102.9084 130.97969,99.534288 C 128.52351,96.160189 127.01234,94.235532 125.06927,92.411549 C 123.12619,90.587567 122.80469,90.510712 122.80469,90.510712"
           style="opacity:1;color:black;fill:#fe0;fill-opacity:1;fill-rule:evenodd;stroke:black;stroke-width:0.87707847;stroke-linecap:round;stroke-linejoin:round;marker:none;marker-start:none;marker-mid:none;marker-end:none;stroke-miterlimit:4;stroke-dasharray:none;stroke-dashoffset:0;stroke-opacity:1;visibility:visible;display:inline;overflow:visible" />
      </g>
      <g
         id="g2972">
        <path
           sodipodi:nodetypes="csssssc"
           id="path2951"
           d="M 117.82866,92.228087 C 117.82866,92.228087 119.9056,96.030969 123.13674,100.47 C 125.94695,104.33073 127.56611,105.92512 126.98193,108.39815 C 126.39775,110.87118 124.91346,110.93523 123.58511,110.86004 C 122.25677,110.78486 120.33248,108.15881 118.92615,104.22947 C 117.51983,100.30014 116.61198,98.027754 115.26136,95.730306 C 113.91073,93.432859 113.6239,93.268557 113.6239,93.268557"
           style="opacity:1;color:black;fill:#fe0;fill-opacity:1;fill-rule:evenodd;stroke:black;stroke-width:0.87707859;stroke-linecap:round;stroke-linejoin:round;marker:none;marker-start:none;marker-mid:none;marker-end:none;stroke-miterlimit:4;stroke-dasharray:none;stroke-dashoffset:0;stroke-opacity:1;visibility:visible;display:inline;overflow:visible" />
        <path
           sodipodi:nodetypes="csssssc"
           id="path2955"
           d="M 115.00665,93.901246 C 115.00665,93.901246 116.55047,97.949976 119.15191,102.78504 C 121.41444,106.9902 122.80321,108.78883 121.8901,111.16019 C 120.97699,113.53156 119.49766,113.39438 118.19167,113.14032 C 116.88568,112.88627 115.33403,110.0242 114.47177,105.94083 C 113.6095,101.85746 113.01717,99.48322 111.9895,97.024282 C 110.96183,94.56535 110.69984,94.363783 110.69984,94.363783"
           style="opacity:1;color:black;fill:#fe0;fill-opacity:1;fill-rule:evenodd;stroke:black;stroke-width:0.87707835;stroke-linecap:round;stroke-linejoin:round;marker:none;marker-start:none;marker-mid:none;marker-end:none;stroke-miterlimit:4;stroke-dasharray:none;stroke-dashoffset:0;stroke-opacity:1;visibility:visible;display:inline;overflow:visible" />
      </g>
    </g>
    <path
       sodipodi:nodetypes="ccscccccscccccsccc"
       d="M 76.575922,86.858772 C 76.575922,86.858772 87.36751,95.393206 101.55919,95.8764 C 114.14582,96.309456 120.77708,95.029123 126.69028,90.017246 C 132.60348,85.005368 110.87247,76.362844 110.87247,76.362844 C 110.87247,76.362844 88.892155,78.778885 85.764553,75.771525 C 77.906392,78.529532 74.801962,85.380472 76.575922,86.858772 z M 79.049392,84.899583 C 79.049392,84.899583 90.308631,91.987333 102.21133,92.60952 C 112.41693,92.979776 118.98288,91.466985 124.465,87.181905 C 129.94711,82.896825 110.84566,75.925722 110.84566,75.925722 C 110.84566,75.925722 90.467747,77.991401 87.568154,75.420153 C 80.282868,77.778208 77.404757,83.635659 79.049392,84.899583 z M 87.907565,81.723118 C 87.907565,81.723118 92.266198,85.660667 101.57222,85.883599 C 109.82575,86.083399 114.17412,85.49269 118.05163,83.18035 C 121.92914,80.86801 107.67929,76.880591 107.67929,76.880591 C 107.67929,76.880591 93.265966,77.995285 91.215078,76.607773 C 86.062184,77.88024 86.744312,81.041072 87.907565,81.723118 z "
       style="color:black;fill:#fe0;fill-opacity:1;fill-rule:nonzero;stroke:black;stroke-width:0.87707853;stroke-linecap:round;stroke-linejoin:round;stroke-miterlimit:4;stroke-dashoffset:0;stroke-opacity:1;marker:none;marker-start:none;marker-mid:none;marker-end:none;visibility:visible;display:inline;overflow:visible"
       id="path2920" />
    <path
       sodipodi:nodetypes="cssscssccsssssssc"
       id="path2825"
       d="M 122.61554,40.43978 C 122.61554,40.43978 123.56936,42.696535 124.0855,43.69891 C 124.60164,44.701286 124.56522,46.9151 123.56284,47.917475 C 122.56046,48.919851 122.87405,50.340352 122.87405,51.342728 C 122.87405,52.345103 126.19478,54.84999 126.19478,54.84999 C 126.19478,54.84999 128.24247,53.931728 129.24484,54.934104 C 130.24722,55.936479 130.62274,57.995831 129.99522,59.257201 C 128.6531,61.954928 126.45753,61.27822 124.0855,60.494695 L 121.58237,72.792088 C 121.58237,72.792088 118.92612,72.853679 120.5249,75.860806 C 122.12368,78.867932 122.86757,79.993491 120.28506,80.995866 C 117.70255,81.998242 114.2708,82.472292 111.26368,80.995866 C 108.25655,79.519441 99.036929,75.061915 97.632488,72.515826 C 96.228046,69.969736 92.792828,71.974487 88.209042,63.955483 C 83.625257,55.936479 82.19479,53.386548 84.199541,49.414348 C 86.204291,45.442149 101.23992,39.862539 104.24705,39.379317 C 107.25418,38.896096 122.19741,40.21557 122.61554,40.43978 z "
       style="opacity:1;color:black;fill-opacity:1;fill-rule:evenodd;stroke:black;stroke-width:1.25046337;stroke-linecap:round;stroke-linejoin:round;marker:none;marker-start:none;marker-mid:none;marker-end:none;stroke-miterlimit:4;stroke-dasharray:none;stroke-dashoffset:0;stroke-opacity:1;visibility:visible;display:inline;overflow:visible;fill:#ffd0d0" />
    <path
       sodipodi:nodetypes="cssssssssssssssssssscc"
       id="path2783"
       d="M 83.977796,48.961331 C 83.977796,48.961331 82.575234,50.928701 82.403853,53.661074 C 82.048512,59.326375 83.843655,60.503728 83.864937,62.529729 C 83.899383,65.80895 79.487658,66.856442 77.182912,66.96261 C 74.803863,67.072201 71.273191,68.074769 69.26844,70.596925 C 67.504308,72.81636 68.161533,75.866504 69.163908,77.428809 C 70.166284,78.991115 71.45634,80.426304 71.168659,81.505541 C 70.898005,82.5209 68.597398,83.130346 66.741031,82.373428 C 65.318458,81.793386 63.786137,81.000966 60.726778,81.100398 C 59.13442,81.152151 58.145003,83.148649 58.137778,84.150464 C 58.105464,88.735966 63.103147,89.486192 63.401659,87.986498 C 63.695221,86.511675 60.723481,85.755639 61.624622,84.962428 C 62.869308,83.86682 64.823755,85.163144 67.181505,85.651684 C 69.539254,86.140224 72.528471,86.207647 74.008353,84.734714 C 75.615123,83.13549 75.282693,80.53477 74.280318,79.034056 C 73.277942,77.533341 72.053358,76.447754 72.171035,73.979238 C 72.292669,71.427711 75.838295,71.347298 79.757589,70.972111 C 84.290513,70.538183 88.517617,68.794549 89.455838,65.442829 C 90.157116,62.937568 88.716096,59.945981 88.209042,57.94123 C 87.701988,55.936479 87.206667,55.936479 89.211418,51.926977 C 91.216169,47.917475 89.211418,44.910349 89.211418,44.910349 C 85.25884,45.473007 85.598098,46.754732 83.977796,48.961331 z "
       style="opacity:1;color:black;fill:#ffee80;fill-opacity:1;fill-rule:evenodd;stroke:black;stroke-width:1.25296935;stroke-linecap:round;stroke-linejoin:round;marker:none;marker-start:none;marker-mid:none;marker-end:none;stroke-miterlimit:4;stroke-dasharray:none;stroke-dashoffset:0;stroke-opacity:1;visibility:visible;display:inline;overflow:visible" />
    <path
       sodipodi:nodetypes="ccsssssccscc"
       id="path2922"
       d="M 95.203639,45.502592 C 95.068676,49.400485 96.546807,58.903599 94.156131,62.318012 C 92.22763,64.567755 88.312733,66.47874 86.64011,69.231998 C 83.824349,73.866941 85.206409,78.828116 87.463742,79.891805 C 91.873423,81.969711 97.775183,78.997977 97.345724,73.535272 C 97.012082,69.291359 92.977939,69.929977 91.922594,72.209951 C 90.532762,75.21255 94.472761,73.752531 91.667911,76.51872 C 90.497729,77.672772 88.43418,76.387778 88.916108,74.648628 C 89.343372,68.099456 97.592447,64.990621 98.939716,61.837854 C 99.369977,59.272118 101.52571,56.587586 101.39185,54.524042 C 101.26196,52.52173 100.21761,47.010705 100.79418,45.369595 C 102.84472,25.897162 95.787249,34.713669 95.203639,45.502592 z "
       style="opacity:0.97101452;color:black;fill:white;fill-opacity:1;fill-rule:evenodd;stroke:black;stroke-width:0.87707853;stroke-linecap:round;stroke-linejoin:round;marker:none;marker-start:none;marker-mid:none;marker-end:none;stroke-miterlimit:4;stroke-dasharray:none;stroke-dashoffset:0;stroke-opacity:1;visibility:visible;display:inline;overflow:visible" />
    <path
       sodipodi:nodetypes="ccsssssccsscc"
       id="path2787"
       d="M 92.09667,53.481154 C 91.547021,57.342458 93.090714,63.051216 90.349733,66.191371 C 88.192429,68.22275 84.301257,69.876295 82.139601,72.26488 C 78.106716,76.721134 79.691268,81.653524 81.82237,82.951751 C 85.985459,85.487825 92.170341,83.162056 92.325569,77.684694 C 92.446164,73.429395 88.366934,73.634398 87.07459,75.788901 C 85.372644,78.626261 89.445815,77.594502 86.362109,80.04598 C 85.075589,81.068735 83.160755,79.571118 83.825305,77.893241 C 84.948176,71.426915 93.481615,69.215014 95.157246,66.223804 C 95.858524,63.718543 96.558462,59.383877 96.645304,57.31782 C 96.72957,55.313069 98.008208,51.61732 98.756408,50.047012 C 100.6846,46.000136 99.347728,39.334635 99.347728,39.334635 C 94.491974,40.030627 92.406147,50.608452 92.09667,53.481154 z "
       style="opacity:0.97101452;color:black;fill:#ffee80;fill-opacity:1;fill-rule:evenodd;stroke:black;stroke-width:0.87707853;stroke-linecap:round;stroke-linejoin:round;marker:none;marker-start:none;marker-mid:none;marker-end:none;stroke-miterlimit:4;stroke-dasharray:none;stroke-dashoffset:0;stroke-opacity:1;visibility:visible;display:inline;overflow:visible" />
    <path
       sodipodi:nodetypes="cssssssssssscccc"
       id="path1893"
       d="M 87.54972,55.213289 C 87.194379,60.87859 89.640048,61.394271 88.936889,64.451519 C 88.028424,68.401411 83.67263,70.182617 81.367884,70.288785 C 78.988835,70.398375 74.053778,70.292219 72.049027,72.814375 C 70.284895,75.03381 73.01174,77.270889 74.014115,78.833194 C 75.016491,80.3955 75.453273,82.525274 74.910141,83.501246 C 73.604677,85.847075 72.460309,84.514106 70.556428,85.108283 C 69.016229,85.588959 69.626541,88.229599 73.214352,87.721304 C 74.155346,87.58799 77.691525,87.744358 78.932475,86.065184 C 80.777974,83.567973 80.058985,81.200005 79.05661,79.699291 C 78.054234,78.198576 78.160119,78.221714 76.947327,76.196688 C 75.634855,74.005226 79.284117,72.825598 83.203411,72.450411 C 87.736335,72.016483 92.850419,70.125019 93.78864,66.773299 C 94.766517,61.494725 92.041804,56.824781 94.209455,51.779147 C 96.137649,47.732271 96.722565,41.06677 96.722565,41.06677 C 89.649364,41.762762 87.859197,52.340587 87.54972,55.213289 z "
       style="opacity:0.97101449;color:black;fill:white;fill-opacity:1;fill-rule:evenodd;stroke:black;stroke-width:0.87707853;stroke-linecap:round;stroke-linejoin:round;marker:none;marker-start:none;marker-mid:none;marker-end:none;stroke-miterlimit:4;stroke-dasharray:none;stroke-dashoffset:0;stroke-opacity:1;visibility:visible;display:inline;overflow:visible" />
    <path
       sodipodi:nodetypes="cssscc"
       id="path2791"
       d="M 110.29374,39.611858 C 110.29374,39.611858 108.44091,44.939272 108.62612,46.9151 C 109.02661,51.187709 109.92808,54.193462 108.80286,55.444904 C 107.49583,56.898554 106.0453,55.859669 105.66048,54.934104 C 103.36912,49.422914 105.84626,41.401057 105.84626,41.401057 L 110.29374,39.611858 z "
       style="opacity:1;color:black;fill:white;fill-opacity:1;fill-rule:evenodd;stroke:black;stroke-width:0.87707855;stroke-linecap:round;stroke-linejoin:round;marker:none;marker-start:none;marker-mid:none;marker-end:none;stroke-miterlimit:4;stroke-dasharray:none;stroke-dashoffset:0;stroke-opacity:1;visibility:visible;display:inline;overflow:visible" />
    <path
       sodipodi:nodetypes="cssc"
       id="path2821"
       d="M 105.69843,65.423427 C 105.69843,65.423427 106.73324,65.866917 103.48098,69.119176 C 100.22872,72.371435 99.19391,71.927946 98.306927,73.997565 C 97.419947,76.067185 98.602587,76.067184 98.602587,76.067184"
       style="opacity:1;color:black;fill:none;fill-opacity:1;fill-rule:evenodd;stroke:black;stroke-width:0.87707855;stroke-linecap:round;stroke-linejoin:round;marker:none;marker-start:none;marker-mid:none;marker-end:none;stroke-miterlimit:4;stroke-dasharray:none;stroke-dashoffset:0;stroke-opacity:1;visibility:visible;display:inline;overflow:visible" />
    <path
       sodipodi:nodetypes="csscssssssssscsccccscssccc"
       id="path2803"
       d="M 123.66085,71.722481 C 120.21392,75.77811 123.5548,75.182158 126.06263,76.63554 C 128.24436,77.899936 126.88025,80.24346 125.69506,82.289275 C 124.60086,84.178027 126.98475,86.483345 128.92736,85.40694 C 130.4281,84.331011 133.95882,84.652801 133.61468,86.708956 C 133.10504,89.753998 134.60019,89.377638 136.43477,88.22847 C 137.86643,87.331691 138.0269,86.189467 139.81191,86.268275 C 141.68136,86.35081 141.94857,87.507183 141.12717,89.729858 C 140.50739,91.406984 142.95431,91.71476 144.40204,89.686396 C 145.09449,88.716229 145.14501,85.858719 147.2536,87.786438 C 148.39226,88.827425 146.35606,91.40252 145.70056,92.38184 C 144.68583,93.897841 139.958,94.104162 139.6295,91.804357 C 139.42,90.337584 138.12012,90.216289 136.24103,92.289522 C 134.61513,94.083403 131.90474,91.576228 131.47157,89.712275 C 130.5937,87.963597 128.44167,87.559129 126.95446,88.263949 C 125.17252,89.108449 123.6249,87.475955 122.55194,86.647038 C 120.89651,87.537448 119.92527,87.428962 118.87533,85.148896 C 117.66608,86.491501 115.32728,88.2175 114.13578,85.000588 C 112.77919,85.305602 110.11284,84.445948 110.27492,82.18884 C 110.51144,81.216338 110.63287,83.665102 108.66287,83.521343 C 107.31303,83.42284 108.17578,82.883533 107.6266,81.50395 C 108.02274,83.328662 105.97783,83.602626 104.93746,83.90289 C 103.63335,84.279273 100.88972,83.476579 100.24729,82.382193 C 99.583279,81.251041 99.25806,79.572454 98.077362,78.521788 C 97.179893,76.269962 96.783406,74.514718 95.685379,72.257716 C 94.417739,70.058614 98.677176,63.799823 100.7183,62.699552"
       style="fill:#ffee80;fill-opacity:1;fill-rule:evenodd;stroke:black;stroke-width:0.87707855;stroke-linecap:butt;stroke-linejoin:miter;stroke-opacity:1;opacity:1;stroke-miterlimit:4;stroke-dasharray:none" />
    <path
       inkscape:transform-center-x="0.81462537"
       inkscape:transform-center-y="3.1751894"
       sodipodi:nodetypes="ccssc"
       id="path2837"
       d="M 103.05194,63.554929 C 103.05194,63.554929 94.474541,67.105953 92.031955,69.943626 C 94.970441,74.411971 98.459671,81.580952 99.598633,77.713674 C 100.12927,75.911927 102.48289,74.317174 103.11615,73.371937 C 103.76992,72.396073 107.02648,64.680553 107.02648,64.680553"
       style="opacity:1;color:black;fill:white;fill-opacity:1;fill-rule:evenodd;stroke:none;stroke-width:1.25046337;stroke-linecap:round;stroke-linejoin:round;marker:none;marker-start:none;marker-mid:none;marker-end:none;stroke-miterlimit:4;stroke-dasharray:none;stroke-dashoffset:0;stroke-opacity:1;visibility:visible;display:inline;overflow:visible" />
    <path
       sodipodi:nodetypes="ccsc"
       id="path2841"
       d="M 109.25893,66.96261 C 109.25893,66.96261 113.05728,71.526393 111.01299,76.131819 C 112.68131,76.050699 113.37998,75.821807 114.34955,74.382047 C 114.84496,73.646382 117.42576,68.107418 117.42576,68.107418"
       style="opacity:1;color:black;fill:white;fill-opacity:1;fill-rule:evenodd;stroke:none;stroke-width:1.25046337;stroke-linecap:round;stroke-linejoin:round;marker:none;marker-start:none;marker-mid:none;marker-end:none;stroke-miterlimit:4;stroke-dasharray:none;stroke-dashoffset:0;stroke-opacity:1;visibility:visible;display:inline;overflow:visible" />
    <path
       sodipodi:nodetypes="ccsc"
       id="path2839"
       d="M 99.779726,65.14436 C 99.779726,65.14436 109.44234,69.030187 104.55775,76.285932 C 106.42881,76.185083 109.67855,75.044367 110.5041,73.559243 C 111.02591,72.620513 113.57762,66.60556 113.57762,66.60556"
       style="opacity:1;color:black;fill:white;fill-opacity:1;fill-rule:evenodd;stroke:none;stroke-width:1.25046337;stroke-linecap:round;stroke-linejoin:round;marker:none;marker-start:none;marker-mid:none;marker-end:none;stroke-miterlimit:4;stroke-dasharray:none;stroke-dashoffset:0;stroke-opacity:1;visibility:visible;display:inline;overflow:visible" />
    <path
       inkscape:transform-center-y="2.1203884"
       sodipodi:nodetypes="ccsc"
       id="path2835"
       d="M 103.98601,63.447602 C 103.90255,63.447602 99.108288,65.58371 99.19089,69.925637 C 100.95325,67.626407 103.10949,68.416152 104.46522,67.04735 C 105.15862,66.347263 108.25655,62.953108 108.25655,62.953108"
       style="opacity:1;color:black;fill:#ffd0d0;fill-opacity:1;fill-rule:evenodd;stroke:none;stroke-width:1.25046337;stroke-linecap:round;stroke-linejoin:round;marker:none;marker-start:none;marker-mid:none;marker-end:none;stroke-miterlimit:4;stroke-dasharray:none;stroke-dashoffset:0;stroke-opacity:1;visibility:visible;display:inline;overflow:visible" />
    <g
       id="g2892">
      <path
         style="opacity:1;color:black;fill:#ffee80;fill-opacity:1;fill-rule:evenodd;stroke:black;stroke-width:0.87707853;stroke-linecap:round;stroke-linejoin:round;marker:none;marker-start:none;marker-mid:none;marker-end:none;stroke-miterlimit:4;stroke-dasharray:none;stroke-dashoffset:0;stroke-opacity:1;visibility:visible;display:inline;overflow:visible"
         d="M 96.447423,44.295392 C 96.530607,47.201686 98.926935,52.724297 99.308865,55.831259 C 99.802305,59.845377 99.068876,62.619598 97.649114,63.984355 C 96.102296,65.471245 91.631326,67.335583 90.774032,70.406914 C 90.019634,73.109609 92.966458,74.226901 94.282187,75.328904 C 95.597917,76.430908 96.478673,77.747391 96.338368,78.852897 C 96.001127,81.51007 93.82754,80.746879 92.447498,81.981068 C 91.331073,82.979501 92.175133,85.244756 95.307891,84.213307 C 96.705592,83.753119 99.163726,82.435116 99.657336,80.423757 C 100.39141,77.432534 99.792332,75.932368 98.495959,74.887904 C 97.199581,73.84344 95.623442,73.379574 95.501396,70.938372 C 95.391142,68.733037 97.766212,67.762798 100.5779,65.64474 C 103.87166,63.163529 106.37309,60.576219 106.45188,57.463377 C 106.4951,55.756137 104.75262,50.595876 105.39302,45.981724 C 106.01632,41.490815 107.80565,38.531647 99.799621,38.368647 C 96.022436,40.750862 95.799504,41.501262 96.447423,44.295392 z "
         id="path2785"
         sodipodi:nodetypes="cssssssssssssscc" />
      <path
         style="opacity:1;color:black;fill:none;fill-opacity:1;fill-rule:evenodd;stroke:black;stroke-width:0.87707855;stroke-linecap:round;stroke-linejoin:round;marker:none;marker-start:none;marker-mid:none;marker-end:none;stroke-miterlimit:4;stroke-dasharray:none;stroke-dashoffset:0;stroke-opacity:1;visibility:visible;display:inline;overflow:visible"
         d="M 102.00268,40.735822 C 102.00268,40.735822 100.67221,41.841207 100.82004,44.910349 C 100.96787,47.979491 102.62713,52.875688 102.88966,54.188349 C 103.62881,57.884098 102.92028,64.69308 100.40717,65.735626"
         id="path2793"
         sodipodi:nodetypes="cssc" />
    </g>
    <path
       transform="matrix(0.858579,0,0,0.864018,16.81511,7.020811)"
       d="M 120.00224 51.086853 A 2.0906315 2.7178209 0 1 1  115.82098,51.086853 A 2.0906315 2.7178209 0 1 1  120.00224 51.086853 z"
       sodipodi:ry="2.7178209"
       sodipodi:rx="2.0906315"
       sodipodi:cy="51.086853"
       sodipodi:cx="117.91161"
       id="path2795"
       style="opacity:0.97999999;color:black;fill:green;fill-opacity:1;fill-rule:evenodd;stroke:#00000f;stroke-width:1.01832652;stroke-linecap:square;stroke-linejoin:round;marker:none;marker-start:none;marker-mid:none;marker-end:none;stroke-miterlimit:4;stroke-dasharray:none;stroke-dashoffset:0;stroke-opacity:0.94117647;visibility:visible;display:inline;overflow:visible"
       sodipodi:type="arc" />
    <path
       sodipodi:nodetypes="ccsc"
       id="path2829"
       d="M 120.11893,72.202231 C 120.11893,72.202231 117.46185,73.561112 118.26166,75.922397 C 117.01532,75.37121 116.47332,73.622762 116.55271,72.411294 C 116.60289,71.64554 119.57763,68.986011 119.57763,68.986011"
       style="opacity:1;color:black;fill:#ffd0d0;fill-opacity:1;fill-rule:evenodd;stroke:none;stroke-width:1.25046341;stroke-linecap:round;stroke-linejoin:round;marker:none;marker-start:none;marker-mid:none;marker-end:none;stroke-miterlimit:4;stroke-dasharray:none;stroke-dashoffset:0;stroke-opacity:1;visibility:visible;display:inline;overflow:visible" />
    <path
       sodipodi:nodetypes="ccsc"
       id="path2831"
       d="M 112.1814,69.691224 C 112.1814,69.691224 113.19567,73.465201 111.76045,74.722228 C 112.72099,75.465756 113.75408,74.485816 114.20132,73.361645 C 114.48402,72.651068 117.36679,67.024593 117.36679,67.024593"
       style="opacity:1;color:black;fill:#ffd0d0;fill-opacity:1;fill-rule:evenodd;stroke:none;stroke-width:1.25046337;stroke-linecap:round;stroke-linejoin:round;marker:none;marker-start:none;marker-mid:none;marker-end:none;stroke-miterlimit:4;stroke-dasharray:none;stroke-dashoffset:0;stroke-opacity:1;visibility:visible;display:inline;overflow:visible" />
    <path
       sodipodi:nodetypes="ccsc"
       id="path2833"
       d="M 105.55467,63.360865 C 105.55467,63.360865 109.70071,71.103386 107.67616,73.164409 C 109.25207,73.307962 110.69888,71.752234 111.22766,70.40612 C 111.56189,69.555259 109.80682,64.949304 109.80682,64.949304"
       style="opacity:1;color:black;fill:#ffd0d0;fill-opacity:1;fill-rule:evenodd;stroke:none;stroke-width:1.25046337;stroke-linecap:round;stroke-linejoin:round;marker:none;marker-start:none;marker-mid:none;marker-end:none;stroke-miterlimit:4;stroke-dasharray:none;stroke-dashoffset:0;stroke-opacity:1;visibility:visible;display:inline;overflow:visible" />
    <g
       id="g2880">
      <path
         style="opacity:1;color:black;fill:#ffee80;fill-opacity:1;fill-rule:evenodd;stroke:black;stroke-width:0.87707855;stroke-linecap:round;stroke-linejoin:round;marker:none;marker-start:none;marker-mid:none;marker-end:none;stroke-miterlimit:4;stroke-dasharray:none;stroke-dashoffset:0;stroke-opacity:1;visibility:visible;display:inline;overflow:visible"
         d="M 124.69457,61.358103 C 122.90966,61.299288 121.3684,61.358103 119.59444,61.801593 C 117.82048,62.245083 117.34266,63.407611 117.1254,64.092957 C 116.62594,65.668476 116.70726,66.843811 115.27318,67.049556 C 111.84576,67.54128 112.05923,65.588043 112.70378,64.913425 C 113.94651,63.612715 114.97316,61.348622 112.94209,59.945981 C 111.85947,59.198332 109.83766,59.805888 109.83766,59.805888 C 109.83766,59.805888 111.48365,60.988528 110.57681,63.058148 C 109.66998,65.127767 108.02455,65.997112 108.21154,67.493046 C 108.50719,69.858326 112.0109,69.502329 114.66609,69.587479 C 121.83564,69.817403 123.30983,67.037375 123.65976,66.162576 C 123.65976,66.162576 122.61137,67.877929 122.12534,68.269153 C 124.95468,68.98676 126.00405,67.280141 126.29457,66.028197 C 125.57339,68.21198 125.54536,67.638035 124.93696,68.096819 C 129.01954,69.156659 129.7301,65.139614 128.83382,63.132062 C 127.89792,61.035779 125.55877,61.386579 124.69457,61.358103 z "
         id="path2797"
         sodipodi:nodetypes="cssssscsssccccss" />
      <path
         style="opacity:1;color:black;fill:none;fill-opacity:1;fill-rule:evenodd;stroke:black;stroke-width:0.87707855;stroke-linecap:round;stroke-linejoin:round;marker:none;marker-start:none;marker-mid:none;marker-end:none;stroke-miterlimit:4;stroke-dasharray:none;stroke-dashoffset:0;stroke-opacity:1;visibility:visible;display:inline;overflow:visible"
         d="M 123.3228,64.019042 C 123.98803,64.485861 124.25035,64.820942 123.61845,66.255894"
         id="path2799"
         sodipodi:nodetypes="cs" />
      <path
         style="opacity:1;color:black;fill:none;fill-opacity:1;fill-rule:evenodd;stroke:black;stroke-width:0.87707855;stroke-linecap:round;stroke-linejoin:round;marker:none;marker-start:none;marker-mid:none;marker-end:none;stroke-miterlimit:4;stroke-dasharray:none;stroke-dashoffset:0;stroke-opacity:1;visibility:visible;display:inline;overflow:visible"
         d="M 126.29931,65.960234 C 126.75091,65.089471 126.35557,64.378272 125.90171,64.172744"
         id="path2801"
         sodipodi:nodetypes="cs" />
    </g>
    <path
       sodipodi:nodetypes="csssc"
       id="path2809"
       d="M 119.28268,69.969736 C 119.28268,69.969736 121.28743,68.543626 123.29218,68.543626 C 125.29694,68.543626 126.45632,68.924945 126.29931,70.972111 C 126.1696,72.663267 124.77428,73.770145 122.76952,73.247517 C 120.76477,72.724889 119.8175,72.976862 119.28268,73.979238"
       style="opacity:1;color:black;fill:#ffd0d0;fill-opacity:1;fill-rule:evenodd;stroke:black;stroke-width:1.25;stroke-linecap:round;stroke-linejoin:round;marker:none;marker-start:none;marker-mid:none;marker-end:none;stroke-miterlimit:4;stroke-dasharray:none;stroke-dashoffset:0;stroke-opacity:1;visibility:visible;display:inline;overflow:visible" />
    <g
       id="g2912">
      <path
         style="opacity:1;color:black;fill:none;fill-opacity:1;fill-rule:evenodd;stroke:black;stroke-width:0.87707855;stroke-linecap:round;stroke-linejoin:round;marker:none;marker-start:none;marker-mid:none;marker-end:none;stroke-miterlimit:4;stroke-dasharray:none;stroke-dashoffset:0;stroke-opacity:1;visibility:visible;display:inline;overflow:visible"
         d="M 123.29218,81.401009 C 123.29218,81.401009 122.28981,83.000617 122.28981,84.002993 C 122.28981,85.005368 122.72006,87.010119 122.72006,87.010119"
         id="path2807" />
      <path
         style="opacity:1;color:black;fill:none;fill-opacity:1;fill-rule:evenodd;stroke:black;stroke-width:0.87707853;stroke-linecap:round;stroke-linejoin:round;marker:none;marker-start:none;marker-mid:none;marker-end:none;stroke-miterlimit:4;stroke-dasharray:none;stroke-dashoffset:0;stroke-opacity:1;visibility:visible;display:inline;overflow:visible"
         d="M 120.28506,79.993491 C 120.28506,79.993491 119.00312,81.093403 118.70746,82.571703 C 118.4118,84.050003 118.85529,85.528302 118.85529,85.528302"
         id="path2811"
         sodipodi:nodetypes="csc" />
      <path
         style="opacity:1;color:black;fill:none;fill-opacity:1;fill-rule:evenodd;stroke:black;stroke-width:0.87707853;stroke-linecap:round;stroke-linejoin:round;marker:none;marker-start:none;marker-mid:none;marker-end:none;stroke-miterlimit:4;stroke-dasharray:none;stroke-dashoffset:0;stroke-opacity:1;visibility:visible;display:inline;overflow:visible"
         d="M 116.78567,79.993491 C 116.78567,79.993491 114.6198,81.407955 114.27256,82.276043 C 113.68124,83.754343 114.27256,85.005368 114.27256,85.005368"
         id="path2813"
         sodipodi:nodetypes="csc" />
      <path
         style="opacity:1;color:black;fill:none;fill-opacity:1;fill-rule:evenodd;stroke:black;stroke-width:0.87707853;stroke-linecap:round;stroke-linejoin:round;marker:none;marker-start:none;marker-mid:none;marker-end:none;stroke-miterlimit:4;stroke-dasharray:none;stroke-dashoffset:0;stroke-opacity:1;visibility:visible;display:inline;overflow:visible"
         d="M 116.22279,71.218476 C 114.64399,73.751837 115.21131,76.310037 114.29792,77.588782 C 112.81962,79.658402 110.59254,79.676337 110.36583,82.041616"
         id="path2815"
         sodipodi:nodetypes="css" />
      <path
         style="opacity:1;color:black;fill:none;fill-opacity:1;fill-rule:evenodd;stroke:black;stroke-width:0.87707853;stroke-linecap:round;stroke-linejoin:round;marker:none;marker-start:none;marker-mid:none;marker-end:none;stroke-miterlimit:4;stroke-dasharray:none;stroke-dashoffset:0;stroke-opacity:1;visibility:visible;display:inline;overflow:visible"
         d="M 111.31596,71.927945 C 111.31596,71.927945 111.90728,72.565573 109.98549,75.425103 C 108.0637,78.284634 107.0289,79.780558 107.32456,80.880471"
         id="path2817"
         sodipodi:nodetypes="csc" />
      <path
         style="opacity:1;color:black;fill:none;fill-opacity:1;fill-rule:evenodd;stroke:black;stroke-width:0.87707855;stroke-linecap:round;stroke-linejoin:round;marker:none;marker-start:none;marker-mid:none;marker-end:none;stroke-miterlimit:4;stroke-dasharray:none;stroke-dashoffset:0;stroke-opacity:1;visibility:visible;display:inline;overflow:visible"
         d="M 105.84626,70.375731 C 105.84626,70.375731 107.17673,71.780115 105.69843,74.145395 C 104.22013,76.510674 101.82635,77.77645 102.594,79.993491 C 103.33315,82.128213 107.47239,82.349958 107.47239,81.315148"
         id="path2819"
         sodipodi:nodetypes="cssc" />
    </g>
    <path
       sodipodi:nodetypes="csc"
       id="path2823"
       d="M 122.01915,58.299531 C 120.64484,58.240752 119.70081,59.570795 120.70319,60.57317 C 121.70556,61.575546 123.81484,61.428074 124.81722,59.423323"
       style="opacity:1;color:black;fill:#ffd0d0;fill-opacity:1;fill-rule:evenodd;stroke:black;stroke-width:0.87707853;stroke-linecap:round;stroke-linejoin:round;marker:none;marker-start:none;marker-mid:none;marker-end:none;stroke-miterlimit:4;stroke-dasharray:none;stroke-dashoffset:0;stroke-opacity:1;visibility:visible;display:inline;overflow:visible" />
    <path
       sodipodi:nodetypes="csc"
       id="path2827"
       d="M 119.52418,46.47868 C 119.52418,46.47868 120.01681,45.02494 115.96197,45.494598 C 113.63739,45.763846 112.64124,47.428248 112.64124,47.428248"
       style="opacity:1;color:black;fill:none;fill-opacity:1;fill-rule:evenodd;stroke:black;stroke-width:0.87707855;stroke-linecap:round;stroke-linejoin:round;marker:none;marker-start:none;marker-mid:none;marker-end:none;stroke-miterlimit:4;stroke-dasharray:none;stroke-dashoffset:0;stroke-opacity:1;visibility:visible;display:inline;overflow:visible" />
    <path
       sodipodi:nodetypes="ccccc"
       id="path2864"
       d="M 85.561862,28.003856 L 84.44971,32.538677 L 88.065078,33.887676 L 89.664808,30.048618 L 85.561862,28.003856 z "
       style="opacity:1;color:black;fill:#fe0;fill-opacity:1;fill-rule:nonzero;stroke:black;stroke-width:0.8749997;stroke-linecap:round;stroke-linejoin:round;marker:none;marker-start:none;marker-mid:none;marker-end:none;stroke-miterlimit:4;stroke-dasharray:none;stroke-dashoffset:0;stroke-opacity:1;visibility:visible;display:inline;overflow:visible" />
    <path
       inkscape:transform-center-y="-0.15224085"
       inkscape:transform-center-x="1.2242814"
       sodipodi:nodetypes="ccccc"
       id="path2866"
       d="M 116.53516,21.088942 L 112.73303,23.799161 L 114.59202,27.18071 L 118.30952,25.315866 L 116.53516,21.088942 z "
       style="opacity:1;color:black;fill:#fe0;fill-opacity:1;fill-rule:nonzero;stroke:black;stroke-width:0.8749997;stroke-linecap:round;stroke-linejoin:round;marker:none;marker-start:none;marker-mid:none;marker-end:none;stroke-miterlimit:4;stroke-dasharray:none;stroke-dashoffset:0;stroke-opacity:1;visibility:visible;display:inline;overflow:visible" />
    <g
       id="g2855">
      <g
         id="g2167"
         transform="matrix(1.061975,-0.215937,0.22233,1.027344,-7.721037,25.11754)">
        <path
           sodipodi:nodetypes="ccccc"
           id="path563"
           d="M 96.125663,15.882287 C 98.664522,18.909064 101.38835,21.191092 104.18277,22.922512 C 99.954233,24.568891 98.551041,25.38045 96.569999,26.738506 C 94.269869,25.182114 90.9961,23.787899 88.768972,23.620529 C 90.714032,21.581827 93.842631,19.276855 96.125663,15.882287 z "
           style="font-size:12px;fill:#fe0;fill-rule:evenodd;stroke:black;stroke-width:1.17401719;stroke-linejoin:round;stroke-miterlimit:4;stroke-dasharray:none;stroke-opacity:1" />
        <path
           sodipodi:nodetypes="cccc"
           id="path558"
           d="M 103.4191,31.405533 C 101.35113,30.629975 97.63322,26.239516 96.49465,24.781919 C 94.705164,26.835625 92.974009,29.849319 91.692324,31.172098 L 103.4191,31.405533 z "
           style="font-size:12px;fill:#fe0;fill-rule:evenodd;stroke:black;stroke-width:1.17401719;stroke-miterlimit:4;stroke-dasharray:none;stroke-opacity:1" />
        <path
           sodipodi:nodetypes="cccc"
           id="path560"
           d="M 84.462597,31.833475 C 82.455464,31.677653 77.440218,29.00564 75.349816,28.152817 C 76.4569,28.993241 76.726816,33.149601 77.442309,34.202975 C 78.85582,33.915894 82.815069,32.42183 84.462597,31.833475 z "
           style="font-size:12px;fill:#fe0;fill-rule:evenodd;stroke:black;stroke-width:1.17401719;stroke-miterlimit:4;stroke-dasharray:none;stroke-opacity:1" />
        <path
           sodipodi:nodetypes="cccc"
           id="path559"
           d="M 92.880613,31.5857 C 90.57469,30.735577 86.758209,27.948631 85.062239,27.05061 C 84.29642,28.395261 83.299752,31.696502 82.149714,32.905557 C 84.066328,32.679684 89.959891,31.677791 92.880613,31.5857 z "
           style="font-size:12px;fill:#fe0;fill-rule:evenodd;stroke:black;stroke-width:1.17401719;stroke-miterlimit:4;stroke-dasharray:none;stroke-opacity:1" />
        <path
           sodipodi:nodetypes="cccc"
           id="path556"
           d="M 117.1503,34.144174 C 118.48012,32.925271 118.80629,30.275882 120.69727,29.095697 C 118.34642,29.843162 112.71116,30.756373 108.31881,31.178098 C 109.89852,31.455488 115.9017,34.076657 117.1503,34.144174 z "
           style="font-size:12px;fill:#fe0;fill-rule:evenodd;stroke:black;stroke-width:1.17401719;stroke-miterlimit:4;stroke-dasharray:none;stroke-opacity:1" />
        <path
           sodipodi:nodetypes="cccc"
           id="path557"
           d="M 110.93544,32.151082 C 109.80102,31.153081 110.40889,27.754725 109.56922,26.079708 C 108.13251,27.516053 103.01365,30.495841 101.61707,31.345858 C 104.61772,31.612433 107.50997,31.46756 110.93544,32.151082 z "
           style="font-size:12px;fill:#fe0;fill-rule:evenodd;stroke:black;stroke-width:1.17401719;stroke-miterlimit:4;stroke-dasharray:none;stroke-opacity:1" />
        <path
           sodipodi:nodetypes="cccc"
           id="path561"
           d="M 119.16478,29.826862 C 121.77682,27.89489 127.26096,23.410044 132.82153,21.219853 C 128.91514,20.762643 124.69721,20.587329 120.51658,19.777015 C 121.15584,23.400834 119.42395,26.18469 119.16478,29.826862 z "
           style="font-size:12px;fill:#fe0;fill-rule:evenodd;stroke:black;stroke-width:1.17401719;stroke-linejoin:round;stroke-miterlimit:4;stroke-dasharray:none;stroke-opacity:1" />
        <path
           sodipodi:nodetypes="cccc"
           id="path562"
           d="M 76.607558,29.250114 C 73.441193,27.878499 68.249914,23.933414 62.882459,23.319813 C 63.881283,21.493518 72.982611,20.773467 77.223263,20.572439 C 77.195135,22.630014 76.288677,26.591045 76.607558,29.250114 z "
           style="font-size:12px;fill:#fe0;fill-rule:evenodd;stroke:black;stroke-width:1.17401719;stroke-linejoin:round;stroke-miterlimit:4;stroke-dasharray:none;stroke-opacity:1" />
        <g
           style="stroke:black;stroke-width:1.17401719;stroke-miterlimit:4;stroke-dasharray:none;stroke-opacity:1"
           inkscape:label="#g2800"
           id="gems_2800">
          <path
             style="font-size:12px;fill:red;fill-rule:evenodd;stroke:black;stroke-width:1.17401719;stroke-miterlimit:4;stroke-dasharray:none;stroke-opacity:1"
             d="M 109.53727,23.482951 C 110.89269,23.407057 111.56499,24.191507 111.64097,24.897492 C 111.72478,25.6762 110.80219,26.309348 109.83662,26.315002 C 108.61394,26.346487 108.01411,25.533701 107.91527,24.87705 C 107.86927,24.14851 108.69512,23.530113 109.53727,23.482951 z "
             id="path687"
             sodipodi:nodetypes="cssss" />
          <path
             style="font-size:12px;fill:red;fill-rule:evenodd;stroke:black;stroke-width:1.17401719;stroke-miterlimit:4;stroke-dasharray:none;stroke-opacity:1"
             d="M 95.998278,21.04989 C 97.191987,20.782759 98.697055,21.460218 98.955213,22.235012 C 99.20969,23.096956 98.200248,23.975607 96.983644,24.165212 C 95.448209,24.432517 94.517274,23.636036 94.251791,22.919336 C 94.037274,22.11196 94.945424,21.259403 95.998278,21.04989 z "
             id="path688"
             sodipodi:nodetypes="cssss" />
          <path
             style="font-size:12px;fill:red;fill-rule:evenodd;stroke:black;stroke-width:1.17401719;stroke-miterlimit:4;stroke-dasharray:none;stroke-opacity:1"
             d="M 84.181785,24.111868 C 85.169831,23.833674 86.417177,24.546007 86.632063,25.358404 C 86.844108,26.262237 86.009638,27.181664 85.002476,27.378551 C 83.731535,27.656459 82.959454,26.820262 82.738489,26.068656 C 82.559654,25.222112 83.310365,24.329898 84.181785,24.111868 z "
             id="path689"
             sodipodi:nodetypes="cssss" />
          <path
             style="font-size:12px;fill:red;fill-rule:evenodd;stroke:black;stroke-width:1.17401719;stroke-miterlimit:4;stroke-dasharray:none;stroke-opacity:1"
             d="M 120.34595,27.164165 C 121.36007,26.449663 123.1939,26.285465 123.86891,26.735569 C 124.58808,27.250621 124.08777,28.328888 123.00896,28.997075 C 121.6627,29.860697 120.32188,29.688168 119.67153,29.283383 C 119.02104,28.790558 119.43714,27.775403 120.34595,27.164165 z "
             id="path690"
             sodipodi:nodetypes="cssss"
             inkscape:transform-center-x="0.73739815"
             inkscape:transform-center-y="0.66365834" />
          <path
             style="font-size:12px;fill:red;fill-rule:evenodd;stroke:black;stroke-width:1.17401719;stroke-miterlimit:4;stroke-dasharray:none;stroke-opacity:1"
             d="M 74.298014,26.34713 C 75.467041,26.544308 76.509304,27.600882 76.407702,28.306472 C 76.265672,29.080329 74.999216,29.433424 73.843068,29.16682 C 72.371856,28.852308 71.887931,27.898382 71.95829,27.236338 C 72.112245,26.51961 73.278172,26.15261 74.298014,26.34713 z "
             id="path691"
             sodipodi:nodetypes="cssss" />
        </g>
        <g
           style="stroke:black;stroke-width:1.17401719;stroke-miterlimit:4;stroke-dasharray:none;stroke-opacity:1"
           id="g3921">
          <g
             style="stroke:black;stroke-width:1.17401719;stroke-miterlimit:4;stroke-dasharray:none;stroke-opacity:1"
             id="g3917">
            <path
               sodipodi:nodetypes="ccsccsc"
               id="path774"
               d="M 117.08789,33.611213 C 115.96941,35.498152 115.612,37.801263 115.90557,38.618592 C 113.66377,38.165183 108.58883,36.372347 97.783354,36.357676 C 88.4206,36.270377 78.130816,38.109955 77.472789,38.358142 C 77.884256,37.014485 77.449575,36.191494 76.524041,34.30854 C 80.74249,33.101144 87.080286,31.542522 97.855922,31.595136 C 112.16882,31.665636 116.33122,33.512853 117.08789,33.611213 z "
               style="fill:#fe0;fill-opacity:1;fill-rule:evenodd;stroke:black;stroke-width:1.17401719;stroke-linecap:butt;stroke-linejoin:round;stroke-miterlimit:4;stroke-dasharray:none;stroke-opacity:1" />
            <path
               sodipodi:nodetypes="ccsccsc"
               id="path693"
               d="M 117.9685,34.494392 C 119.95621,34.137107 119.65934,32.601049 117.56143,32.440011 C 110.62046,31.102451 102.26969,30.259745 94.272383,30.585611 C 88.548885,30.854308 79.740172,32.206156 75.376471,33.570753 C 73.670354,34.941172 75.846814,35.670453 78.792951,34.501796 C 83.878148,33.494848 92.908588,32.711175 97.72153,32.67529 C 105.82081,32.445718 111.96932,33.355709 117.9685,34.494392 z "
               style="font-size:12px;fill:#fe0;fill-rule:evenodd;stroke:black;stroke-width:1.17401719;stroke-miterlimit:4;stroke-dasharray:none;stroke-opacity:1" />
          </g>
          <path
             style="font-size:12px;fill:#fe0;fill-rule:evenodd;stroke:black;stroke-width:1.17401719;stroke-miterlimit:4;stroke-dasharray:none;stroke-opacity:1"
             d="M 115.7606,39.717904 C 117.65079,39.360611 117.36849,37.824559 115.37354,37.663544 C 108.77308,36.325988 100.83184,35.483225 93.226887,35.809096 C 87.784135,36.077794 80.672862,36.838372 76.523142,38.202914 C 74.900792,39.573389 76.829823,40.302617 78.788101,39.725333 C 83.623698,38.718328 91.929949,38.082482 96.506841,38.046597 C 104.20878,37.81703 110.05567,38.579186 115.7606,39.717904 z "
             id="path692"
             sodipodi:nodetypes="ccsccsc" />
        </g>
      </g>
      <g
         id="g2851">
        <path
           sodipodi:nodetypes="cssss"
           id="path2847"
           d="M 110.73168,36.891456 C 111.4204,36.540217 112.45481,36.865636 112.73998,37.420272 C 113.0372,38.04144 112.56166,38.832895 111.84616,39.128262 C 110.94783,39.522279 110.24626,39.035102 109.96603,38.525336 C 109.70228,37.940538 110.12,37.181482 110.73168,36.891456 z "
           style="font-size:12px;fill:red;fill-rule:evenodd;stroke:black;stroke-width:0.87707955;stroke-miterlimit:4;stroke-dasharray:none;stroke-opacity:1" />
        <path
           sodipodi:nodetypes="cssss"
           id="path2849"
           d="M 92.672767,40.47784 C 93.366783,40.138546 94.409129,40.452898 94.696472,40.98867 C 94.995982,41.58871 94.516799,42.353247 93.795808,42.638568 C 92.89059,43.019185 92.183632,42.548578 91.901252,42.056149 C 91.635482,41.491241 92.056399,40.758001 92.672767,40.47784 z "
           style="font-size:12px;fill:red;fill-rule:evenodd;stroke:black;stroke-width:0.87707853;stroke-miterlimit:4;stroke-dasharray:none;stroke-opacity:1" />
      </g>
    </g>
    <path
       sodipodi:nodetypes="ccsccc"
       id="path3075"
       d="M 109.68983,149.39085 C 93.206789,149.76042 65.636505,141.40803 65.636505,141.40803 C 65.636505,141.40803 67.558294,155.45188 64.897355,163.13903 C 62.236415,170.82619 52.627468,187.53098 52.627468,187.53098 L 83.671761,189.00928 L 109.68983,149.39085 z "
       style="opacity:1;color:black;fill:red;fill-opacity:1;fill-rule:nonzero;stroke:black;stroke-width:0.69999999;stroke-linecap:round;stroke-linejoin:round;marker:none;marker-start:none;marker-mid:none;marker-end:none;stroke-miterlimit:4;stroke-dasharray:none;stroke-dashoffset:0;stroke-opacity:1;visibility:visible;display:inline;overflow:visible" />
    <path
       sodipodi:nodetypes="cssssscsccsc"
       id="path3000"
       d="M 69.1999,139.72963 C 69.1999,139.72963 68.287358,124.03414 67.527395,118.19612 C 66.44621,109.89048 61.464564,98.544187 59.373933,94.571987 C 57.283301,90.599788 56.875271,89.86389 54.871646,90.460736 C 51.894035,91.347716 53.513159,93.724477 54.529611,95.116931 C 56.721696,98.119906 62.903506,111.79216 64.267426,119.94068 C 65.512253,127.3777 65.357469,134.81424 65.154406,142.23838 C 73.456023,148.30669 83.443985,151.601 93.589035,151.73282 C 98.964711,151.80267 103.37766,151.82786 108.94726,150.90708 L 111.24696,146.72581 C 103.6772,147.68254 98.226032,148.13267 92.120755,147.49032 C 85.27029,146.76957 76.900627,145.1984 69.1999,139.72963 z "
       style="opacity:1;color:black;fill:white;fill-opacity:1;fill-rule:evenodd;stroke:black;stroke-width:0.87707855;stroke-linecap:round;stroke-linejoin:round;marker:none;marker-start:none;marker-mid:none;marker-end:none;stroke-miterlimit:4;stroke-dasharray:none;stroke-dashoffset:0;stroke-opacity:1;visibility:visible;display:inline;overflow:visible" />
    <g
       id="g3027">
      <path
         style="opacity:1;color:black;fill:green;fill-opacity:1;fill-rule:evenodd;stroke:black;stroke-width:0.87707853;stroke-linecap:round;stroke-linejoin:round;marker:none;marker-start:none;marker-mid:none;marker-end:none;stroke-miterlimit:4;stroke-dasharray:none;stroke-dashoffset:0;stroke-opacity:1;visibility:visible;display:inline;overflow:visible"
         d="M 96.732343,121.03285 C 95.814408,122.07318 94.01,123.5779 92.375073,124.83906 C 90.089953,126.60177 87.532553,127.90323 87.532553,127.90323 C 87.532553,127.90323 88.912211,129.15454 89.930625,130.65974 C 90.561524,131.5922 91.340263,133.90303 91.340263,133.90303 C 91.340263,133.90303 93.952486,131.34411 95.74826,129.82502 C 97.42599,128.40579 100.80138,126.3637 100.80138,126.3637 C 100.80138,126.3637 99.052957,125.21917 98.288271,124.09991 C 97.47326,122.90699 97.202735,121.83477 96.732343,121.03285 z "
         id="path3004"
         sodipodi:nodetypes="cscscscsc" />
      <path
         id="path3002"
         style="color:black;fill:none;fill-opacity:1;fill-rule:evenodd;stroke:black;stroke-width:0.87707853;stroke-linecap:round;stroke-linejoin:round;stroke-miterlimit:4;stroke-dashoffset:0;stroke-opacity:1;marker:none;marker-start:none;marker-mid:none;marker-end:none;visibility:visible;display:inline;overflow:visible"
         d="M 71.697534,111.25072 C 71.697534,111.25072 74.770346,122.72349 75.178161,125.10039 C 75.769481,128.54682 75.178161,134.31219 75.178161,134.31219 C 75.178161,134.31219 84.631087,137.56814 92.985049,138.89492 C 101.99468,140.32584 116.04652,139.63407 116.04652,139.63407 C 116.04652,139.63407 116.10501,131.94106 115.75086,128.69465 C 114.86388,120.564 113.08992,117.6074 113.08992,117.6074 C 113.08992,117.6074 101.72596,119.0101 94.019859,117.16391 C 89.003097,115.96202 79.166121,114.38796 71.697534,111.25072 z M 113.67808,120.08851 C 111.32639,122.75391 96.976545,135.13504 91.15153,138.44486M 115.69133,128.38204 C 115.69133,128.38204 111.19193,132.68085 107.18243,135.68797 C 103.17293,138.6951 101.57957,139.73478 101.57957,139.73478M 94.107677,117.42296 C 94.107677,117.42296 79.850237,129.69099 75.187466,133.63641M 86.081745,115.60317 C 83.747084,118.47454 77.414524,123.46717 75.314998,124.70848M 81.306272,128.52564 C 83.001169,129.36667 84.940587,131.06893 86.256557,133.0396 C 87.282837,134.57647 87.624793,137.79579 87.624793,137.79579M 102.2423,118.08376 C 102.2423,118.08376 103.02231,120.63174 104.24705,122.56365 C 105.04785,123.82683 107.14486,126.25024 107.14486,126.25024" />
    </g>
    <g
       id="g3039">
      <path
         style="opacity:1;color:black;fill:none;fill-opacity:1;fill-rule:nonzero;stroke:black;stroke-width:0.875;stroke-linecap:round;stroke-linejoin:round;marker:none;marker-start:none;marker-mid:none;marker-end:none;stroke-miterlimit:4;stroke-dasharray:none;stroke-dashoffset:0;stroke-opacity:1;visibility:visible;display:inline;overflow:visible"
         d="M 132.45565,114.35515 C 131.86433,114.35515 127.36863,115.89959 125.74043,116.27693 C 122.55104,117.01608 119.00312,117.45957 119.00312,117.45957 C 119.00312,117.45957 120.05765,122.85079 120.28506,123.96409 C 120.72855,126.1352 120.87638,132.09474 120.87638,132.09474"
         id="path3031"
         sodipodi:nodetypes="cscsc" />
      <path
         style="opacity:1;color:black;fill:none;fill-opacity:1;fill-rule:nonzero;stroke:black;stroke-width:0.70166284;stroke-linecap:round;stroke-linejoin:round;marker:none;marker-start:none;marker-mid:none;marker-end:none;stroke-miterlimit:4;stroke-dasharray:none;stroke-dashoffset:0;stroke-opacity:1;visibility:visible;display:inline;overflow:visible"
         d="M 120.65463,126.03371 L 123.14236,128.54682"
         id="path3035"
         sodipodi:nodetypes="cc" />
      <path
         style="opacity:1;color:black;fill:none;fill-opacity:1;fill-rule:nonzero;stroke:black;stroke-width:0.69999999;stroke-linecap:round;stroke-linejoin:round;marker:none;marker-start:none;marker-mid:none;marker-end:none;stroke-miterlimit:4;stroke-dasharray:none;stroke-dashoffset:0;stroke-opacity:1;visibility:visible;display:inline;overflow:visible"
         d="M 119.28268,119.08613 L 125.72939,124.55541"
         id="path3037" />
    </g>
    <path
       sodipodi:nodetypes="cscccsc"
       id="path3073"
       d="M 82.193461,167.13044 C 82.193461,167.13044 83.080441,172.15666 82.489121,174.8176 C 81.897801,177.47854 79.236862,181.91344 79.236862,181.91344 L 88.10666,182.80042 L 94.611178,171.56534 C 94.611178,171.56534 88.402319,170.53053 87.21968,169.34789 C 86.03704,168.16525 81.897801,167.13044 82.193461,167.13044 z "
       style="opacity:1;color:black;fill:white;fill-opacity:1;fill-rule:nonzero;stroke:black;stroke-width:0.69999999;stroke-linecap:round;stroke-linejoin:round;marker:none;marker-start:none;marker-mid:none;marker-end:none;stroke-miterlimit:4;stroke-dasharray:none;stroke-dashoffset:0;stroke-opacity:1;visibility:visible;display:inline;overflow:visible" />
    <path
       sodipodi:nodetypes="cscsccsc"
       id="path3044"
       d="M 65.154406,142.59067 C 65.154406,142.59067 64.810758,145.35614 64.071608,146.83444 C 63.332458,148.31274 62.167754,150.47336 62.167754,150.47336 C 62.167754,150.47336 67.575681,157.08051 73.619323,162.10422 C 80.75059,168.03201 94.019858,173.04364 94.019858,173.04364 L 104.36796,157.37367 C 104.36796,157.37367 89.02212,155.911 82.636951,153.53009 C 73.914983,150.27783 67.658474,145.60415 65.154406,142.59067 z "
       style="opacity:1;color:black;fill:black;fill-opacity:1;fill-rule:nonzero;stroke:black;stroke-width:0.87707855;stroke-linecap:round;stroke-linejoin:round;marker:none;marker-start:none;marker-mid:none;marker-end:none;stroke-miterlimit:4;stroke-dasharray:none;stroke-dashoffset:0;stroke-opacity:1;visibility:visible;display:inline;overflow:visible" />
    <path
       sodipodi:nodetypes="csssscc"
       id="path3046"
       d="M 104.36796,157.37367 C 104.36796,157.37367 102.80928,157.59412 98.750417,156.78235 C 94.315518,155.89537 92.0054,155.53133 87.95883,156.78235 C 85.566065,157.52209 83.799061,161.14328 83.671761,163.43469 C 83.523931,166.09563 85.56801,168.97381 87.271536,169.93921 C 90.092278,171.53775 93.199804,172.74798 94.463348,173.04364 L 104.36796,157.37367 z "
       style="opacity:1;color:black;fill:green;fill-opacity:1;fill-rule:nonzero;stroke:black;stroke-width:0.69999999;stroke-linecap:round;stroke-linejoin:round;marker:none;marker-start:none;marker-mid:none;marker-end:none;stroke-miterlimit:4;stroke-dasharray:none;stroke-dashoffset:0;stroke-opacity:1;visibility:visible;display:inline;overflow:visible" />
    <path
       sodipodi:nodetypes="cscscscsc"
       id="path3048"
       d="M 64.897355,148.6517 C 64.897355,148.6517 67.632209,149.76043 70.440979,150.49958 C 73.249748,151.23873 75.688942,151.38655 75.688942,151.38655 C 75.688942,151.38655 77.592499,154.12525 78.645542,155.5258 C 79.620249,156.82216 83.080441,160.552 83.080441,160.552 C 83.080441,160.552 78.313885,159.43226 75.910687,159.29546 C 74.173746,159.19659 71.327959,158.92588 71.327959,158.92588 C 71.327959,158.92588 69.775744,156.0432 69.036594,154.71273 C 68.444577,153.6471 65.340845,149.09519 64.897355,148.6517 z "
       style="opacity:1;color:black;fill:#fe0;fill-opacity:1;fill-rule:nonzero;stroke:black;stroke-width:0.69999999;stroke-linecap:round;stroke-linejoin:round;marker:none;marker-start:none;marker-mid:none;marker-end:none;stroke-miterlimit:4;stroke-dasharray:none;stroke-dashoffset:0;stroke-opacity:1;visibility:visible;display:inline;overflow:visible" />
    <path
       sodipodi:nodetypes="csccsccsccc"
       d="M 80.973105,180.59623 C 57.316985,181.13502 38.466143,189.92398 38.466141,200.67505 C 38.466141,208.72884 49.061145,215.69757 64.308621,218.90575 L 88.80416,180.75285 C 86.992246,180.65259 85.131782,180.59623 83.259773,180.59623 C 82.487104,180.59623 81.736207,180.57885 80.973105,180.59623 z M 81.787535,185.6081 C 60.734204,185.6081 43.665962,192.47035 43.665961,200.95697 C 43.665961,207.32657 53.267727,212.81474 66.97118,215.14684 L 85.807065,185.59755 C 84.37173,185.53139 83.266572,185.6081 81.787535,185.6081 z "
       style="color:black;fill:#fe0;fill-opacity:1;fill-rule:nonzero;stroke:black;stroke-width:0.69999975;stroke-linecap:round;stroke-linejoin:round;stroke-miterlimit:4;stroke-dashoffset:0;stroke-opacity:1;marker:none;marker-start:none;marker-mid:none;marker-end:none;visibility:visible;display:inline;overflow:visible;opacity:0.99"
       id="path3053" />
    <path
       sodipodi:nodetypes="cscsc"
       id="path2862"
       d="M 96.828628,156.63452 C 96.828628,156.63452 96.680793,157.66932 94.906838,160.0346 C 93.576368,161.80856 88.292003,161.80856 88.292003,161.80856 C 88.292003,161.80856 90.684681,163.15911 91.654579,166.98261 C 92.284447,169.46566 91.285004,171.93491 91.285004,171.93491"
       style="opacity:1;color:black;fill:none;fill-opacity:1;fill-rule:nonzero;stroke:black;stroke-width:0.875;stroke-linecap:round;stroke-linejoin:round;marker:none;marker-start:none;marker-mid:none;marker-end:none;stroke-miterlimit:4;stroke-dasharray:none;stroke-dashoffset:0;stroke-opacity:1;visibility:visible;display:inline;overflow:visible" />
    <g
       id="g3683">
      <path
         style="opacity:1;color:black;fill:#fe0;fill-opacity:1;fill-rule:nonzero;stroke:black;stroke-width:0.87500012;stroke-linecap:round;stroke-linejoin:round;marker:none;marker-start:none;marker-mid:none;marker-end:none;stroke-miterlimit:4;stroke-dasharray:none;stroke-dashoffset:0;stroke-opacity:1;visibility:visible;display:inline;overflow:visible"
         d="M 60.751427,204.44867 C 60.751427,204.44867 60.896805,200.87253 63.002229,198.82864 C 65.153877,196.73987 67.856268,196.87831 69.09507,198.24351 C 70.234319,199.49901 69.780086,202.58116 68.192552,203.89242 C 66.267325,205.4826 61.846182,205.66571 61.846182,205.66571"
         id="path3679"
         sodipodi:nodetypes="csssc" />
      <path
         style="opacity:1;color:black;fill:none;fill-opacity:1;fill-rule:nonzero;stroke:black;stroke-width:0.875;stroke-linecap:round;stroke-linejoin:round;marker:none;marker-start:none;marker-mid:none;marker-end:none;stroke-miterlimit:4;stroke-dasharray:none;stroke-dashoffset:0;stroke-opacity:1;visibility:visible;display:inline;overflow:visible"
         d="M 52.770509,210.79842 C 52.770509,210.79842 57.350334,209.09108 60.142529,208.72046 C 64.406306,208.15451 69.408963,210.3023 69.408963,210.3023"
         id="path3673"
         sodipodi:nodetypes="csc" />
      <path
         style="opacity:1;color:black;fill:none;fill-opacity:1;fill-rule:nonzero;stroke:black;stroke-width:0.875;stroke-linecap:round;stroke-linejoin:round;marker:none;marker-start:none;marker-mid:none;marker-end:none;stroke-miterlimit:4;stroke-dasharray:none;stroke-dashoffset:0;stroke-opacity:1;visibility:visible;display:inline;overflow:visible"
         d="M 50.118774,209.13859 C 50.118774,209.13859 57.707638,206.26157 59.582996,206.00264 C 63.238524,205.49792 68.990837,207.04796 71.081469,208.30234"
         id="path3675"
         sodipodi:nodetypes="csc" />
      <path
         style="opacity:1;color:black;fill:#fe0;fill-opacity:1;fill-rule:nonzero;stroke:black;stroke-width:0.87500012;stroke-linecap:round;stroke-linejoin:round;marker:none;marker-start:none;marker-mid:none;marker-end:none;stroke-miterlimit:4;stroke-dasharray:none;stroke-dashoffset:0;stroke-opacity:1;visibility:visible;display:inline;overflow:visible"
         d="M 59.567004,205.50184 C 59.567004,205.50184 56.079173,207.60109 53.367439,206.48002 C 50.596157,205.33434 49.650462,202.79905 50.411718,201.12009 C 51.111815,199.57606 54.12103,198.76945 55.954745,199.70601 C 58.178516,200.8418 60.538025,204.71876 60.538025,204.71876"
         id="path3681"
         sodipodi:nodetypes="csssc" />
      <path
         style="opacity:1;color:black;fill:#fe0;fill-opacity:1;fill-rule:nonzero;stroke:black;stroke-width:0.875;stroke-linecap:round;stroke-linejoin:round;marker:none;marker-start:none;marker-mid:none;marker-end:none;stroke-miterlimit:4;stroke-dasharray:none;stroke-dashoffset:0;stroke-opacity:1;visibility:visible;display:inline;overflow:visible"
         d="M 60.142529,205.73392 C 60.142529,205.73392 57.172181,203.2937 56.533645,200.42968 C 55.881092,197.50279 57.414318,195.27315 59.226103,194.9328 C 60.892292,194.6198 63.280072,196.62094 63.565701,198.66007 C 63.912089,201.13296 62.091753,205.29043 62.091753,205.29043"
         id="path3677"
         sodipodi:nodetypes="csssc" />
    </g>
    <g
       id="g3696">
      <path
         style="opacity:1;color:black;fill:#fe0;fill-opacity:1;fill-rule:nonzero;stroke:black;stroke-width:0.875;stroke-linecap:round;stroke-linejoin:round;marker:none;marker-start:none;marker-mid:none;marker-end:none;stroke-miterlimit:4;stroke-dasharray:none;stroke-dashoffset:0;stroke-opacity:1;visibility:visible;display:inline;overflow:visible"
         d="M 81.897801,190.78324 C 81.897801,190.78324 80.367461,187.79125 78.793372,187.38315 C 76.797667,186.86575 74.801963,187.67881 73.619323,188.71362 C 72.436683,189.74843 71.106214,191.47385 71.697533,193.59201 C 72.272636,195.65208 75.097623,197.43559 78.054222,197.28776"
         id="path3690"
         sodipodi:nodetypes="csssc" />
      <path
         style="opacity:1;color:black;fill:#fe0;fill-opacity:1;fill-rule:nonzero;stroke:black;stroke-width:0.875;stroke-linecap:round;stroke-linejoin:round;marker:none;marker-start:none;marker-mid:none;marker-end:none;stroke-miterlimit:4;stroke-dasharray:none;stroke-dashoffset:0;stroke-opacity:1;visibility:visible;display:inline;overflow:visible"
         d="M 76.871582,193.44418 C 76.871582,193.44418 74.062813,194.40507 72.141023,191.89197 C 71.692026,191.30482 69.184424,192.70503 68.297444,193.73984 C 67.410464,194.77465 66.819145,196.54861 66.819145,196.54861 C 66.819145,196.54861 67.706124,195.26667 69.480084,195.26667 C 71.254044,195.26667 73.16921,196.57399 74.432388,195.88338 C 74.739999,197.32219 72.025145,199.08203 70.810554,199.80087 C 70.810554,199.80087 72.852554,201.51602 74.062813,200.98351 C 75.910688,200.17045 76.945497,199.43129 77.241157,197.87908 C 77.418273,196.94922 76.945497,194.92248 76.871582,193.44418 z "
         id="path3692"
         sodipodi:nodetypes="csscsccssc" />
      <path
         style="opacity:1;color:black;fill:#fe0;fill-opacity:1;fill-rule:nonzero;stroke:black;stroke-width:0.875;stroke-linecap:round;stroke-linejoin:round;marker:none;marker-start:none;marker-mid:none;marker-end:none;stroke-miterlimit:4;stroke-dasharray:none;stroke-dashoffset:0;stroke-opacity:1;visibility:visible;display:inline;overflow:visible"
         d="M 77.995977,188.91981 C 77.6334,188.6132 76.856919,188.64554 76.29141,189.28938 C 75.795005,189.85455 75.738734,190.78765 76.180537,191.25717 C 76.672719,191.78023 77.802034,191.62109 78.254679,191.0309 C 78.847797,190.25755 78.540142,189.37996 77.995977,188.91981 z "
         id="path3694"
         sodipodi:nodetypes="cssss" />
    </g>
  </g>
  <use
     x="0"
     y="0"
     xlink:href="#g18978"
     id="use19091"
     transform="matrix(-1,0,0,-1,206,315)"
     width="206"
     height="315" />
  <path
     style="fill:none;fill-rule:evenodd;stroke:#000000;stroke-width:5.01187741;stroke-linecap:square;stroke-linejoin:miter;stroke-opacity:1;stroke-miterlimit:4;stroke-dasharray:none"
     d="M 58.540665,224.48847 L 145.34444,90.017246"
     id="path19093" />
  <path
     style="fill:none;fill-rule:evenodd;stroke:#ffffff;stroke-width:2.50593871;stroke-linecap:square;stroke-linejoin:miter;stroke-opacity:1;stroke-miterlimit:4;stroke-dasharray:none"
     d="M 58.540665,224.48847 L 145.34444,90.017246"
     id="path19095" />
</svg>
