<?xml version="1.0" encoding="UTF-8" standalone="no"?>
<!-- Created with Sodipodi ("http://www.sodipodi.com/") -->
<svg
   xmlns:dc="http://purl.org/dc/elements/1.1/"
   xmlns:cc="http://web.resource.org/cc/"
   xmlns:rdf="http://www.w3.org/1999/02/22-rdf-syntax-ns#"
   xmlns:svg="http://www.w3.org/2000/svg"
   xmlns="http://www.w3.org/2000/svg"
   xmlns:xlink="http://www.w3.org/1999/xlink"
   xmlns:sodipodi="http://sodipodi.sourceforge.net/DTD/sodipodi-0.dtd"
   xmlns:inkscape="http://www.inkscape.org/namespaces/inkscape"
   viewBox="0 0 206 315"
   id="svg548"
   sodipodi:version="0.32"
   width="205.51181"
   height="315.35434"
   sodipodi:docname="king-of-clubs-work.svg"
   sodipodi:docbase="/home/mikelima/repo/trunk/playground/artwork/carddecks/tigullio"
   inkscape:version="0.45.1"
   version="1.0"
   inkscape:output_extension="org.inkscape.output.svg.inkscape">
  <metadata
     id="metadata52">
    <rdf:RDF>
      <cc:Work
         rdf:about="">
        <dc:format>image/svg+xml</dc:format>
        <dc:type
           rdf:resource="http://purl.org/dc/dcmitype/StillImage" />
      </cc:Work>
    </rdf:RDF>
  </metadata>
  <defs
     id="defs550" />
  <sodipodi:namedview
     id="base"
     showgrid="false"
     showguides="false"
     inkscape:zoom="8"
     inkscape:cx="90.849115"
     inkscape:cy="265.44736"
     inkscape:window-width="951"
     inkscape:window-height="1114"
     inkscape:window-x="74"
     inkscape:window-y="27"
     inkscape:current-layer="svg548"
     inkscape:document-units="mm"
     width="58.000001mm"
     height="89.000005mm"
     units="mm"
     bordercolor="black"
     borderopacity="0.47058824" />
  <image
     xlink:href="clubs-king-and-jack.jpg"
     sodipodi:absref="/home/repo/playground/artwork/carddecks/tigullio/clubs-king-and-jack.jpg"
     width="183.51704"
     height="283.18582"
     id="image707"
     style="opacity:1"
     x="-195.54556"
     y="-301.72977"
     sodipodi:insensitive="true"
     transform="scale(-1,-1)" />
  <path
     style="fill:none;fill-opacity:1;fill-rule:evenodd;stroke:black;stroke-width:1pt;stroke-linecap:butt;stroke-linejoin:miter;stroke-opacity:1"
     d="M 204.1814,4.220791 L 3.535608,311.8187"
     id="path786" />
  <path
     style="fill:none;fill-opacity:1;fill-rule:evenodd;stroke:black;stroke-width:0.875;stroke-linecap:round;stroke-linejoin:miter;stroke-dasharray:none;stroke-opacity:1"
     d=""
     id="path734"
     sodipodi:nodetypes="c" />
  <path
     style="opacity:1;color:#000000;fill:#ffd0ce;fill-opacity:1;fill-rule:evenodd;stroke:#000000;stroke-width:1.25296938;stroke-linecap:round;stroke-linejoin:miter;marker:none;marker-start:none;marker-mid:none;marker-end:none;stroke-miterlimit:4;stroke-dasharray:none;stroke-dashoffset:0;stroke-opacity:1;visibility:visible;overflow:visible"
     d="M 120.94451,38.135164 C 120.94451,38.135164 121.92772,42.713495 121.92772,44.788127 C 121.92772,46.862758 120.40269,47.728161 120.40269,49.802792 C 120.40269,51.877424 123.28644,53.411179 123.62995,57.235913 C 124.00317,61.391435 120.13222,76.798135 110.94523,76.881182 C 99.714461,76.98147 85.097805,73.647729 82.128751,68.646386 C 75.260856,57.077466 80.59962,42.713495 82.751137,38.564232 C 84.902653,34.414968 121.26194,32.086816 120.94451,38.135164 z "
     id="path3967"
     sodipodi:nodetypes="cssssssc" />
  <path
     style="font-size:12px;fill:#ffee00;fill-rule:evenodd;stroke:#000000;stroke-width:1.25296938;stroke-miterlimit:4;stroke-dasharray:none;stroke-opacity:1"
     d="M 108.75654,29.775258 C 106.53717,28.972666 103.00733,24.37354 101.78542,22.865135 C 100.81641,24.73654 97.546764,28.164799 96.171253,29.533686 L 108.75654,29.775258 z "
     id="path558"
     sodipodi:nodetypes="cccc" />
  <path
     style="font-size:12px;fill:#ffee00;fill-rule:evenodd;stroke:#000000;stroke-width:1.25296938;stroke-miterlimit:4;stroke-dasharray:none;stroke-opacity:1"
     d="M 88.41224,30.218117 C 86.25817,30.056864 80.875758,27.291711 78.632321,26.409161 C 79.820449,27.27888 80.11013,31.58012 80.878,32.670212 C 82.394992,32.373124 86.644096,30.826981 88.41224,30.218117 z "
     id="path560"
     sodipodi:nodetypes="cccc" />
  <path
     style="font-size:12px;fill:#ffee00;fill-rule:evenodd;stroke:#000000;stroke-width:1.25296938;stroke-miterlimit:4;stroke-dasharray:none;stroke-opacity:1"
     d="M 97.446537,29.961706 C 94.971792,29.081949 91.392231,26.228049 89.5721,25.298726 C 88.750215,26.690248 87.164259,30.07637 85.930036,31.327569 C 87.98696,31.093823 94.311983,30.057007 97.446537,29.961706 z "
     id="path559"
     sodipodi:nodetypes="cccc" />
  <path
     style="font-size:12px;fill:#ffee00;fill-rule:evenodd;stroke:#000000;stroke-width:1.25296938;stroke-miterlimit:4;stroke-dasharray:none;stroke-opacity:1"
     d="M 123.49298,32.609362 C 124.92015,31.347971 125.2702,28.606231 127.29962,27.384907 C 124.77667,28.158427 118.72886,29.10347 114.01495,29.539896 C 115.71031,29.826955 122.15297,32.539491 123.49298,32.609362 z "
     id="path556"
     sodipodi:nodetypes="cccc" />
  <path
     style="font-size:12px;fill:#ffee00;fill-rule:evenodd;stroke:#000000;stroke-width:1.25296938;stroke-miterlimit:4;stroke-dasharray:none;stroke-opacity:1"
     d="M 116.82314,30.546795 C 115.60567,29.514007 116.25804,25.997192 115.3569,24.263788 C 113.81501,25.750201 108.32141,28.833857 106.82258,29.713503 C 110.0429,29.98937 113.14689,29.839447 116.82314,30.546795 z "
     id="path557"
     sodipodi:nodetypes="cccc" />
  <g
     id="gems_2800"
     inkscape:label="#g2800"
     style="stroke:#000000;stroke-width:1.18893468;stroke-miterlimit:4;stroke-dasharray:none;stroke-opacity:1"
     transform="matrix(1.0732092,0,0,1.0348575,-2.2337959,-2.7249937)">
    <path
       sodipodi:nodetypes="cssss"
       id="path687"
       d="M 109.53727,23.482951 C 110.89269,23.407057 111.56499,24.191507 111.64097,24.897492 C 111.72478,25.6762 110.80219,26.309348 109.83662,26.315002 C 108.61394,26.346487 108.01411,25.533701 107.91527,24.87705 C 107.86927,24.14851 108.69512,23.530113 109.53727,23.482951 z "
       style="font-size:12px;fill:#ff0000;fill-rule:evenodd;stroke:#000000;stroke-width:1.18893468;stroke-miterlimit:4;stroke-dasharray:none;stroke-opacity:1" />
    <path
       sodipodi:nodetypes="cssss"
       id="path688"
       d="M 96.202601,22.137805 C 97.39631,21.870674 98.901378,22.548133 99.159536,23.322927 C 99.414013,24.184871 98.404571,25.063522 97.187967,25.253127 C 95.652532,25.520432 94.721597,24.723951 94.456114,24.007251 C 94.241597,23.199875 95.149747,22.347318 96.202601,22.137805 z "
       style="font-size:12px;fill:#ff0000;fill-rule:evenodd;stroke:#000000;stroke-width:1.18893468;stroke-miterlimit:4;stroke-dasharray:none;stroke-opacity:1" />
    <path
       sodipodi:nodetypes="cssss"
       id="path689"
       d="M 84.738734,24.111212 C 85.72678,23.833018 86.974126,24.545351 87.189012,25.357748 C 87.401057,26.261581 86.566587,27.181008 85.559425,27.377895 C 84.288484,27.655803 83.516403,26.819606 83.295438,26.068 C 83.116603,25.221456 83.867314,24.329242 84.738734,24.111212 z "
       style="font-size:12px;fill:#ff0000;fill-rule:evenodd;stroke:#000000;stroke-width:1.18893468;stroke-miterlimit:4;stroke-dasharray:none;stroke-opacity:1" />
    <path
       inkscape:transform-center-y="0.66365834"
       inkscape:transform-center-x="0.73739815"
       sodipodi:nodetypes="cssss"
       id="path690"
       d="M 120.34595,27.164165 C 121.36007,26.449663 123.1939,26.285465 123.86891,26.735569 C 124.58808,27.250621 124.08777,28.328888 123.00896,28.997075 C 121.6627,29.860697 120.32188,29.688168 119.67153,29.283383 C 119.02104,28.790558 119.43714,27.775403 120.34595,27.164165 z "
       style="font-size:12px;fill:#ff0000;fill-rule:evenodd;stroke:#000000;stroke-width:1.18893468;stroke-miterlimit:4;stroke-dasharray:none;stroke-opacity:1" />
    <path
       sodipodi:nodetypes="cssss"
       id="path691"
       d="M 74.298014,26.34713 C 75.467041,26.544308 76.509304,27.600882 76.407702,28.306472 C 76.265672,29.080329 74.999216,29.433424 73.843068,29.16682 C 72.371856,28.852308 71.887931,27.898382 71.95829,27.236338 C 72.112245,26.51961 73.278172,26.15261 74.298014,26.34713 z "
       style="font-size:12px;fill:#ff0000;fill-rule:evenodd;stroke:#000000;stroke-width:1.18893468;stroke-miterlimit:4;stroke-dasharray:none;stroke-opacity:1" />
  </g>
  <path
     style="fill:#ffffff;fill-opacity:1;fill-rule:evenodd;stroke:none;stroke-width:1px;stroke-linecap:butt;stroke-linejoin:miter;stroke-opacity:1"
     d="M 51.475296,-21.998703 C 51.475296,-21.998703 50.399537,-17.849442 48.24802,-15.774811 C 46.096502,-13.700181 41.793469,-11.62555 40.717711,-11.62555 C 39.641951,-11.62555 40.717711,-9.55092 40.717711,-9.55092 L 51.475296,-11.206267 C 51.475296,-11.206267 54.70257,-16.812132 53.626814,-18.886763 C 52.551054,-20.961393 51.600035,-21.915625 51.475296,-21.998703 z "
     id="path2819" />
  <g
     id="g3921"
     style="stroke:#000000;stroke-width:1.18893468;stroke-miterlimit:4;stroke-dasharray:none;stroke-opacity:1"
     transform="matrix(1.0732092,0,0,1.0348575,-2.2337959,-2.7249937)">
    <g
       id="g3917"
       style="stroke:#000000;stroke-width:1.18893468;stroke-miterlimit:4;stroke-dasharray:none;stroke-opacity:1">
      <path
         style="fill:#ffee00;fill-opacity:1;fill-rule:evenodd;stroke:#000000;stroke-width:1.18893468;stroke-linecap:butt;stroke-linejoin:round;stroke-miterlimit:4;stroke-dasharray:none;stroke-opacity:1"
         d="M 117.08789,33.611213 C 115.96941,35.498152 115.612,37.801263 115.90557,38.618592 C 113.66377,38.165183 108.58883,36.372347 97.783354,36.357676 C 88.4206,36.270377 78.130816,38.109955 77.472789,38.358142 C 77.884256,37.014485 77.449575,36.191494 76.524041,34.30854 C 80.74249,33.101144 87.080286,31.542522 97.855922,31.595136 C 112.16882,31.665636 116.33122,33.512853 117.08789,33.611213 z "
         id="path774"
         sodipodi:nodetypes="ccsccsc" />
      <path
         style="font-size:12px;fill:#ffee00;fill-rule:evenodd;stroke:#000000;stroke-width:1.18893468;stroke-miterlimit:4;stroke-dasharray:none;stroke-opacity:1"
         d="M 117.9685,34.494392 C 119.95621,34.137107 119.65934,32.601049 117.56143,32.440011 C 110.62046,31.102451 102.26969,30.259745 94.272383,30.585611 C 88.548885,30.854308 79.740172,32.206156 75.376471,33.570753 C 73.670354,34.941172 75.846814,35.670453 78.792951,34.501796 C 83.878148,33.494848 92.908588,32.711175 97.72153,32.67529 C 105.82081,32.445718 111.96932,33.355709 117.9685,34.494392 z "
         id="path693"
         sodipodi:nodetypes="ccsccsc" />
    </g>
    <path
       sodipodi:nodetypes="ccsccsc"
       id="path692"
       d="M 115.7606,39.717904 C 117.65079,39.360611 117.36849,37.824559 115.37354,37.663544 C 108.77308,36.325988 100.83184,35.483225 93.226887,35.809096 C 87.784135,36.077794 80.672862,36.838372 76.523142,38.202914 C 74.900792,39.573389 76.829823,40.302617 78.788101,39.725333 C 83.623698,38.718328 91.929949,38.082482 96.506841,38.046597 C 104.20878,37.81703 110.05567,38.579186 115.7606,39.717904 z "
       style="font-size:12px;fill:#ffee00;fill-rule:evenodd;stroke:#000000;stroke-width:1.18893468;stroke-miterlimit:4;stroke-dasharray:none;stroke-opacity:1" />
  </g>
  <path
     style="fill:#ffffff;fill-opacity:1;fill-rule:nonzero;stroke:#000000;stroke-width:0.87707853;stroke-linecap:round;stroke-linejoin:round;stroke-miterlimit:4;stroke-dasharray:none;stroke-opacity:1"
     d="M 82.883563,61.321437 C 80.651051,64.202387 77.295553,66.038928 76.903198,71.25812 C 76.750126,74.417767 83.08137,78.876714 83.633901,79.241884 C 83.737701,78.741655 80.317968,71.563515 82.511328,69.999038 C 82.544726,69.331369 80.974482,73.704594 82.46752,74.91486 C 83.417074,75.684566 87.555461,81.682695 88.536986,82.612608 C 87.022175,75.018856 87.442918,71.983709 87.793642,70.974205 C 87.159065,72.696094 87.263134,76.409918 89.174541,78.382533 C 90.128806,79.367345 93.408974,82.843824 94.109199,84.046805 C 95.373955,82.088782 93.19301,78.952621 94.142941,77.045576 C 94.771347,75.784022 94.212399,74.173333 95.616393,72.454082 C 93.448404,75.349862 94.24806,81.478227 96.226606,82.546324 C 97.626769,83.302183 97.57774,83.722543 98.011372,87.292094 C 103.80928,84.997403 99.344204,75.911924 100.94406,72.641188 C 99.905785,74.872413 101.31949,77.795918 101.59729,80.799103 C 101.87509,83.802288 102.64585,90.017576 95.936295,89.184501 C 98.544014,97.406251 107.50337,87.052615 107.22657,85.760571 C 106.9442,84.442523 107.1877,81.734415 108.3906,80.511715 C 107.99099,83.617159 105.69661,89.362736 108.32204,90.704591 C 109.84353,91.482222 112.62802,92.015839 113.41224,87.20253 C 110.1535,89.652433 111.51527,84.457532 112.50091,83.571688 C 113.48655,82.685844 114.7852,81.661014 114.90854,82.051414 C 117.33677,81.389695 119.08753,78.358731 120.659,76.49845 C 122.23181,74.817273 123.78165,72.022137 123.52785,69.907882 C 123.4505,67.897143 121.99206,66.367785 122.40289,64.388952"
     id="path2828"
     sodipodi:nodetypes="ccccsccscscsccscscscscccs" />
  <path
     style="fill:#ffee80;fill-opacity:1;fill-rule:nonzero;stroke:none;stroke-width:0.87707853;stroke-linecap:round;stroke-linejoin:round;stroke-miterlimit:4;stroke-dasharray:none;stroke-opacity:1"
     d="M 84.529295,61.339839 C 84.62818,62.421503 81.816362,64.528597 80.801117,65.248951 C 79.245403,66.352793 78.521502,69.31026 79.44517,71.641039 C 80.111601,68.989465 82.020389,67.348357 84.033333,65.884747 C 83.27555,67.274095 82.651726,69.573155 85.443165,71.192749 C 85.349903,68.585663 88.194026,65.951827 87.949645,65.133917 C 86.728676,66.380268 87.316011,68.094944 88.513338,70.025057 C 89.211653,65.543099 98.384054,65.65534 98.86858,65.521543 C 100.86594,64.969985 89.583917,60.472028 89.645133,60.518814"
     id="path2855"
     sodipodi:nodetypes="cscccccsc" />
  <path
     style="fill:#ffd0ce;fill-opacity:1;fill-rule:evenodd;stroke:none;stroke-width:0.99986953;stroke-linecap:butt;stroke-linejoin:miter;stroke-miterlimit:4;stroke-dasharray:none;stroke-opacity:1"
     d="M 91.995934,54.696488 L 89.441009,56.706285 C 89.480267,55.788656 89.508245,55.085481 89.508245,55.085481 C 89.508245,55.085481 86.467854,60.91918 83.630772,60.216501 C 85.772587,62.128794 86.260908,64.281173 84.109391,65.890294 C 86.887211,65.265292 88.762204,63.746752 89.477283,61.135372 C 90.402368,62.980916 88.99069,64.79736 88.978605,66.508766 C 93.016963,63.128145 96.385187,65.821859 97.300162,64.119063 C 98.215143,62.416267 91.995934,54.696488 91.995934,54.696488 z "
     id="path2850"
     sodipodi:nodetypes="ccccccccc" />
  <path
     style="fill:#ffee80;fill-opacity:1;fill-rule:nonzero;stroke:none;stroke-width:0.87707853;stroke-linecap:round;stroke-linejoin:round;stroke-miterlimit:4;stroke-dasharray:none;stroke-opacity:1"
     d="M 119.80869,62.67582 C 121.48801,64.997274 120.09847,65.80556 120.72079,68.076524 C 121.2401,69.971648 120.93793,71.640635 119.61763,74.392114 C 120.23061,70.277148 117.29727,69.13034 116.87766,65.265426"
     id="path3368"
     sodipodi:nodetypes="cscc" />
  <path
     style="fill:#ffffff;fill-opacity:1;fill-rule:evenodd;stroke:#000000;stroke-width:0.87707853;stroke-linecap:round;stroke-linejoin:round;stroke-miterlimit:4;stroke-dasharray:none;stroke-opacity:1"
     d="M 113.14516,70.433244 C 112.88581,72.461865 112.67138,76.864676 111.00335,79.206352 C 109.33533,81.548027 108.1282,82.963536 108.1282,82.963536 C 108.1282,82.963536 108.50734,77.887705 108.109,75.831112 C 107.69636,73.700558 107.09048,73.773495 107.33884,71.496808"
     id="path3370"
     sodipodi:nodetypes="czczc" />
  <path
     style="fill:#ffffff;fill-opacity:1;fill-rule:evenodd;stroke:#000000;stroke-width:0.87707853;stroke-linecap:round;stroke-linejoin:round;stroke-miterlimit:4;stroke-dasharray:none;stroke-opacity:1"
     d="M 117.65527,71.491065 C 117.71322,76.352705 120.23437,75.25804 119.43829,79.2544 C 118.64736,83.224936 115.41473,84.158962 115.41473,84.158962 C 115.41473,84.158962 115.31791,79.54208 114.91958,77.485477 C 114.50693,75.354923 114.28407,75.722959 113.89782,75.358565"
     id="path3372"
     sodipodi:nodetypes="czczc" />
  <path
     style="fill:#ffee00;fill-opacity:1;fill-rule:evenodd;stroke:none;stroke-width:1px;stroke-linecap:butt;stroke-linejoin:miter;stroke-opacity:1"
     d="M 104.90217,74.870291 C 104.90217,74.870291 103.19056,75.907601 103.19056,77.982232 C 103.19056,80.056862 104.26632,81.094183 104.26632,81.094183 C 104.26632,81.094183 105.34207,79.019552 105.34207,77.982232 C 105.34207,76.944922 105.01434,74.914769 104.90217,74.870291 z "
     id="path2803" />
  <g
     id="g3798"
     transform="translate(17.666868,92.155897)">
    <g
       transform="matrix(1.0732092,0,0,1.0348575,-19.462125,-93.798057)"
       id="g4003">
      <g
         id="g3991"
         style="opacity:1">
        <path
           sodipodi:nodetypes="csscscssc"
           id="path3989"
           d="M 107.25418,57.941223 C 107.25418,57.941223 110.82433,57.954768 112.26606,59.527848 C 112.87681,60.194244 115.79584,59.884383 116.0049,58.150286 C 116.22497,56.324877 113.26843,56.938848 113.26843,56.938848 C 113.26843,56.938848 112.68503,55.936472 113.73035,54.934097 C 114.77567,53.931721 117.27793,54.934097 117.27793,54.934097 C 117.27793,54.934097 119.28269,55.936472 119.28269,57.941223 C 119.28269,59.945974 118.39431,61.514616 117.70255,62.786978 C 116.13458,65.670922 102.903,66.038697 104.20032,58.040117"
           style="fill:#ffffff;fill-opacity:1;fill-rule:evenodd;stroke:#000000;stroke-width:0.83225417;stroke-linecap:butt;stroke-linejoin:round;stroke-miterlimit:4;stroke-dasharray:none;stroke-opacity:1" />
        <path
           sodipodi:nodetypes="ccssscsss"
           id="path3987"
           d="M 104.26281,58.829305 C 104.04953,57.951488 102.76496,57.463279 102.76496,57.463279 C 102.76496,57.463279 99.026112,56.520722 96.018986,59.527848 C 93.011859,62.534975 90.703634,64.01601 89.691138,62.159788 C 88.917116,60.740763 92.341268,61.487885 91.77872,59.945974 C 91.216171,58.404063 89.21142,59.344847 89.21142,59.344847 C 89.21142,59.344847 87.388394,59.553911 87.492926,62.585326 C 87.597457,65.616742 90.718364,66.904525 92.261487,66.962603 C 97.67002,67.166162 105.93862,65.726488 104.26281,58.829305 z "
           style="fill:#ffffff;fill-opacity:1;fill-rule:evenodd;stroke:#000000;stroke-width:0.83225417;stroke-linecap:round;stroke-linejoin:round;stroke-miterlimit:4;stroke-dasharray:none;stroke-opacity:1" />
      </g>
      <path
         style="fill:#ffffff;fill-opacity:1;fill-rule:evenodd;stroke:#000000;stroke-width:0.82233089;stroke-linecap:round;stroke-linejoin:round;stroke-miterlimit:4;stroke-dasharray:none;stroke-opacity:1"
         d="M 99.653526,62.422102 C 97.876488,63.006351 97.855246,65.638292 96.852866,65.638292 C 95.850493,65.638292 100.14146,67.747575 102.58041,65.742824 C 105.01935,63.738073 104.35745,59.476567 104.35745,59.476567"
         id="path3997"
         sodipodi:nodetypes="cssc" />
      <path
         style="fill:#ffffff;fill-opacity:1;fill-rule:evenodd;stroke:#000000;stroke-width:0.82233089;stroke-linecap:round;stroke-linejoin:round;stroke-miterlimit:4;stroke-dasharray:none;stroke-opacity:1"
         d="M 95.019199,63.746413 C 95.12373,65.375978 93.534516,67.485261 92.532141,67.485261 C 91.529765,67.485261 95.002757,68.500529 97.632488,66.75354 C 99.548772,65.48051 100.04754,63.363119 99.864608,61.692023"
         id="path3995"
         sodipodi:nodetypes="csss" />
      <path
         style="fill:#ffffff;fill-opacity:1;fill-rule:evenodd;stroke:#000000;stroke-width:0.82233089;stroke-linecap:round;stroke-linejoin:round;stroke-miterlimit:4;stroke-dasharray:none;stroke-opacity:1"
         d="M 109.46621,62.343886 C 110.70753,63.20253 111.83864,64.826498 112.71036,65.375289 C 112.71969,65.51902 108.97828,67.669359 106.53933,65.664608 C 104.10039,63.659857 104.41204,58.369201 104.41204,58.369201"
         id="path3999"
         sodipodi:nodetypes="ccsc" />
      <path
         style="fill:#ffffff;fill-opacity:1;fill-rule:evenodd;stroke:#000000;stroke-width:0.82233101;stroke-linecap:round;stroke-linejoin:round;stroke-miterlimit:4;stroke-dasharray:none;stroke-opacity:1"
         d="M 114.02554,61.314353 C 115.77392,63.463347 118.11242,60.062498 118.5256,60.565767 C 119.30331,61.513054 118.12466,65.125683 113.95587,65.452789 C 111.45893,65.648712 110.01895,62.567319 109.55135,62.377866"
         id="path4001"
         sodipodi:nodetypes="csss" />
    </g>
    <g
       id="g3794">
      <path
         style="fill:#ffee00;fill-opacity:1;fill-rule:evenodd;stroke:none;stroke-width:1px;stroke-linecap:butt;stroke-linejoin:miter;stroke-opacity:1"
         d="M 88.625759,-32.494973 C 88.625759,-32.494973 87.515189,-33.404851 85.770029,-32.34199 C 84.024839,-31.279139 83.206709,-30.200228 82.438319,-29.894262 C 81.669929,-29.588296 85.760529,-30.675228 86.404629,-31.279139 C 87.048719,-31.883041 88.467109,-32.34199 88.625759,-32.494973 z "
         id="path2805" />
      <path
         style="fill:#ffee00;fill-opacity:1;fill-rule:evenodd;stroke:none;stroke-width:1px;stroke-linecap:butt;stroke-linejoin:miter;stroke-opacity:1"
         d="M 106.73128,-28.861356 C 105.99682,-27.975084 103.32335,-26.440721 101.51967,-28.257114 C 100.89401,-28.77536 100.32832,-29.610924 98.187979,-30.704841 C 100.61428,-31.41019 102.9125,-29.274823 103.55659,-28.670922 C 104.20067,-28.06701 105.66028,-28.610134 106.73128,-28.861356 z "
         id="path2807"
         sodipodi:nodetypes="cccsc" />
    </g>
  </g>
  <g
     id="g3977"
     transform="matrix(1.0732092,0,0,1.0348575,-1.8794029,-2.0162077)">
    <g
       id="g3851">
      <path
         style="opacity:0.93236712;fill:#88ddff;fill-opacity:1;fill-rule:evenodd;stroke:#000000;stroke-width:0.83225417;stroke-linecap:butt;stroke-linejoin:miter;stroke-miterlimit:4;stroke-dasharray:none;stroke-opacity:1"
         d="M 109.46484,45.014116 C 111.28651,45.087794 111.59,47.271581 111.03705,49.175168 C 110.52875,51.061236 108.16886,50.939341 107.85589,49.059326 C 107.5431,47.316539 107.65453,44.946192 109.46484,45.014116 z "
         id="path815"
         sodipodi:nodetypes="csss" />
      <path
         style="opacity:0.93236712;fill:#88ddff;fill-opacity:1;fill-rule:evenodd;stroke:#000000;stroke-width:0.83225417;stroke-linecap:butt;stroke-linejoin:miter;stroke-miterlimit:4;stroke-dasharray:none;stroke-opacity:1"
         d="M 96.628287,45.536737 C 98.556703,45.609019 98.877993,47.751438 98.292653,49.618966 C 97.754546,51.469306 95.256309,51.34972 94.92501,49.505318 C 94.593824,47.795545 94.711791,45.4701 96.628287,45.536737 z "
         id="path816"
         sodipodi:nodetypes="csss" />
      <path
         style="opacity:0.93236712;fill:none;fill-opacity:1;fill-rule:evenodd;stroke:#000000;stroke-width:0.83225417;stroke-linecap:round;stroke-linejoin:miter;stroke-miterlimit:4;stroke-dasharray:none;stroke-opacity:1"
         d="M 104.65255,41.718111 C 105.55413,40.854791 107.82102,40.479501 108.87477,40.527541 C 110.18852,40.525791 111.30599,41.581341 112.25883,43.166211"
         id="path821"
         sodipodi:nodetypes="csc" />
      <path
         style="opacity:0.93236712;fill:none;fill-opacity:1;fill-rule:evenodd;stroke:#000000;stroke-width:0.83225417;stroke-linecap:round;stroke-linejoin:miter;stroke-miterlimit:4;stroke-dasharray:none;stroke-opacity:1"
         d="M 99.612551,43.210441 C 98.821151,41.828051 97.919061,40.288871 95.887811,40.361041 C 93.958591,40.430071 92.827651,42.223351 91.887251,42.917371"
         id="path822"
         sodipodi:nodetypes="ccc" />
    </g>
    <g
       style="fill:#ffd0ce;fill-opacity:1"
       id="g3847">
      <path
         style="opacity:1;fill:#ffd0ce;fill-opacity:1;fill-rule:evenodd;stroke:#000000;stroke-width:0.83225417;stroke-linecap:round;stroke-linejoin:miter;stroke-miterlimit:4;stroke-dasharray:none;stroke-opacity:1"
         d="M 102.97223,51.9585 C 104.89918,51.1572 109.74912,50.18956 110.49305,51.3074 C 112.41345,54.25475 111.75581,57.56264 108.9336,58.93113 C 107.17092,59.80495 104.21868,59.019146 102.78353,57.433926"
         id="n"
         sodipodi:nodetypes="cssc" />
      <path
         style="fill:#ffd0ce;fill-opacity:1;fill-rule:evenodd;stroke:#000000;stroke-width:0.83225417;stroke-linecap:round;stroke-linejoin:miter;stroke-miterlimit:4;stroke-dasharray:none;stroke-opacity:1"
         d="M 104.24705,46.915092 C 104.24705,46.915092 104.23184,49.507957 104.74063,50.924594"
         id="path3845" />
    </g>
  </g>
  <path
     style="fill:#ffee80;fill-opacity:1;fill-rule:evenodd;stroke:none;stroke-width:1px;stroke-linecap:butt;stroke-linejoin:miter;stroke-opacity:1"
     d="M 101.81551,69.523565 C 101.81551,69.523565 96.822424,73.230425 96.141451,75.198392 C 95.460467,77.166371 98.496292,80.42583 98.496292,80.42583 C 98.496292,80.42583 97.841854,76.730851 98.182354,75.746867 C 98.522838,74.762883 100.33674,72.52073 101.81551,69.523565 z "
     id="path2809"
     inkscape:transform-center-y="-1.4029462"
     inkscape:transform-center-x="-0.67151313"
     sodipodi:nodetypes="cscsc" />
  <path
     style="fill:#ffee80;fill-opacity:1;fill-rule:evenodd;stroke:none;stroke-width:1px;stroke-linecap:butt;stroke-linejoin:miter;stroke-opacity:1"
     d="M 110.93096,67.68009 C 110.93096,67.68009 109.21935,68.717401 109.21935,70.792042 C 109.21935,72.866672 110.2951,73.903982 110.2951,73.903982 C 110.2951,73.903982 111.37086,71.829352 111.37086,70.792042 C 111.37086,69.754721 111.04314,67.724579 110.93096,67.68009 z "
     id="path2811" />
</svg>
