<?xml version="1.0" encoding="UTF-8" standalone="no"?>
<!-- Created with Sodipodi ("http://www.sodipodi.com/") -->
<svg
   xmlns:dc="http://purl.org/dc/elements/1.1/"
   xmlns:cc="http://web.resource.org/cc/"
   xmlns:rdf="http://www.w3.org/1999/02/22-rdf-syntax-ns#"
   xmlns:svg="http://www.w3.org/2000/svg"
   xmlns="http://www.w3.org/2000/svg"
   xmlns:xlink="http://www.w3.org/1999/xlink"
   xmlns:sodipodi="http://sodipodi.sourceforge.net/DTD/sodipodi-0.dtd"
   xmlns:inkscape="http://www.inkscape.org/namespaces/inkscape"
   viewBox="0 0 206 315"
   id="svg548"
   sodipodi:version="0.32"
   width="205.51181"
   height="315.35434"
   sodipodi:docname="king-of-hearts-work.svg"
   sodipodi:docbase="/home/mikelima/repo/trunk/playground/artwork/carddecks/tigullio"
   inkscape:version="0.44.1"
   version="1.0">
  <metadata
     id="metadata52">
    <rdf:RDF>
      <cc:Work
         rdf:about="">
        <dc:format>image/svg+xml</dc:format>
        <dc:type
           rdf:resource="http://purl.org/dc/dcmitype/StillImage" />
      </cc:Work>
    </rdf:RDF>
  </metadata>
  <defs
     id="defs550" />
  <sodipodi:namedview
     id="base"
     showgrid="true"
     showguides="false"
     inkscape:zoom="1.1986517"
     inkscape:cx="95.460473"
     inkscape:cy="236.85845"
     inkscape:window-width="1019"
     inkscape:window-height="1103"
     inkscape:window-x="0"
     inkscape:window-y="37"
     inkscape:current-layer="svg548"
     inkscape:document-units="mm"
     width="58.000001mm"
     height="89.000005mm"
     units="mm"
     gridspacingx="0.28222223mm"
     gridspacingy="0.28222223mm"
     grid_units="mm" />
  <path
     style="fill:#fe0;fill-opacity:1;fill-rule:evenodd;stroke:none;stroke-width:1px;stroke-linecap:butt;stroke-linejoin:miter;stroke-opacity:1"
     d="M 115.30727,68.497819 C 115.30727,68.497819 112.04513,72.686822 119.05009,76.0199 C 122.56161,77.690743 126.37216,77.463426 128.28692,77.566133 C 121.4058,76.04271 124.52016,73.62541 120.79594,71.108848 C 119.18489,70.020215 115.5341,68.42639 115.30727,68.497819 z "
     id="path2818"
     sodipodi:nodetypes="cscsc" />
  <image
     y="15.706076"
     x="11.387186"
     id="image2455"
     height="282.73141"
     width="182.25945"
     sodipodi:absref="/home/mikelima/src/kirulla/src/artwork/hearts-king-and-jack-clipped.jpg"
     xlink:href="/home/mikelima/src/kirulla/src/artwork/hearts-king-and-jack-clipped.jpg"
     style="opacity:0.5"
     sodipodi:insensitive="true" />
  <path
     style="fill:#fe0;fill-opacity:1;fill-rule:evenodd;stroke:black;stroke-width:1.25296935;stroke-linecap:butt;stroke-linejoin:miter;stroke-opacity:1;stroke-miterlimit:4;stroke-dasharray:none"
     d="M 80.567328,36.941865 C 80.567328,36.941865 74.06281,41.031494 73.32366,45.614222 C 73.139812,46.75408 72.131103,53.061728 71.697531,54.934097 C 71.254041,56.849299 69.84748,59.708795 67.482201,60.595775 C 65.116922,61.482755 63.479098,65.904422 63.271223,67.197396 C 62.277394,73.378975 59.811311,77.326952 54.253595,77.545494 C 52.495339,77.614632 48.931717,80.004456 48.931717,82.358763 C 48.931717,83.458692 47.687844,84.706333 45.913884,83.750983 C 44.139925,82.795633 42.554376,86.052326 44.496818,87.450101 C 45.538558,88.199733 49.679705,87.006611 50.118776,85.528312 C 50.557846,84.050012 72.423071,81.901142 73.175831,81.536903 C 77.758559,79.319454 73.32366,73.709669 77.610729,67.197397 C 81.897797,60.685124 75.39328,58.327599 77.315069,50.344781 C 79.236859,42.361963 80.862988,36.892255 80.567328,36.941865 z "
     id="path2815"
     sodipodi:nodetypes="cssssssssssssc" />
  <path
     style="fill:red;fill-opacity:1;fill-rule:evenodd;stroke:black;stroke-width:1.25296935;stroke-linecap:round;stroke-linejoin:round;stroke-opacity:1;stroke-miterlimit:4;stroke-dasharray:none;opacity:1"
     d="M 148.85295,87.881976 C 148.85295,87.881976 113.52129,69.693483 99.514056,69.48442 C 85.506822,69.275357 56.865172,84.11884 51.847657,87.672913 C 46.830142,91.226986 42.230754,95.617312 40.349185,98.544196 C 38.467617,101.47108 36.586048,120.28676 35.540733,125.51334 C 34.495417,130.73992 35.33167,135.9665 33.868228,139.72963 C 32.946393,142.10006 32.404781,144.53809 31.568533,146.21059 C 35.540733,144.32903 39.812125,146.93259 42.185651,148.30122 C 51.622322,153.74263 55.339287,174.83907 55.401731,181.3332 C 55.610794,203.07576 47.039205,217.29206 47.039205,217.29206 C 47.039205,217.29206 48.71171,219.80599 51.638594,220.117 C 56.078283,220.58876 53.102036,219.59175 55.819857,221.05519 C 58.537678,222.51863 59.37393,225.33793 59.37393,225.33793 L 148.85295,87.881976 z "
     id="path2824"
     sodipodi:nodetypes="cssssscsscsscc" />
  <path
     style="fill:none;fill-opacity:0.75;fill-rule:evenodd;stroke:black;stroke-width:0.87707855;stroke-linecap:butt;stroke-linejoin:miter;stroke-opacity:1;stroke-miterlimit:4;stroke-dasharray:none"
     d="M 66.470537,80.197824 C 66.470537,80.197824 65.171196,84.313552 77.670027,87.468657 C 87.466279,89.941545 94.372189,92.377286 99.79406,97.666372 C 104.32895,92.016041 109.16207,90.567938 114.43617,89.111447 C 121.37962,87.19395 127.39553,79.963397 127.39553,79.963397"
     id="path2896"
     sodipodi:nodetypes="cscsc" />
  <path
     sodipodi:type="arc"
     style="opacity:1;color:black;fill:#fe0;fill-opacity:1;fill-rule:nonzero;stroke:black;stroke-width:0.87707853;stroke-linecap:square;stroke-linejoin:round;marker:none;marker-start:none;marker-mid:none;marker-end:none;stroke-miterlimit:4;stroke-dasharray:none;stroke-dashoffset:0;stroke-opacity:1;visibility:visible;display:inline;overflow:visible"
     id="path2843"
     sodipodi:cx="88.95636"
     sodipodi:cy="122.16834"
     sodipodi:rx="12.648319"
     sodipodi:ry="12.961914"
     d="M 101.60468 122.16834 A 12.648319 12.961914 0 1 1  76.308041,122.16834 A 12.648319 12.961914 0 1 1  101.60468 122.16834 z"
     transform="translate(9.858762,15.59313)" />
  <path
     style="opacity:1;color:black;fill:white;fill-opacity:1;fill-rule:nonzero;stroke:black;stroke-width:1.25296915;stroke-linecap:round;stroke-linejoin:round;marker:none;marker-start:none;marker-mid:none;marker-end:none;stroke-miterlimit:4;stroke-dasharray:none;stroke-dashoffset:0;stroke-opacity:1;visibility:visible;display:inline;overflow:visible"
     d="M 47.305533,190.80713 C 47.305533,210.2364 39.845901,226.00507 30.654569,226.00507 C 26.058903,226.00507 24.279985,223.66908 21.960669,215.69208 C 20.429604,210.42617 14.003604,200.52177 14.003604,190.80713 C 14.003604,171.37788 21.463236,155.6092 30.654569,155.6092 C 39.845901,155.6092 47.305533,171.37788 47.305533,190.80713 z "
     id="path2177"
     sodipodi:nodetypes="cssssc" />
  <path
     style="fill:#ffd0d0;fill-opacity:1;fill-rule:evenodd;stroke:black;stroke-width:0.87707853;stroke-linecap:butt;stroke-linejoin:miter;stroke-miterlimit:4;stroke-dasharray:none;stroke-opacity:1"
     d="M 52.704089,169.24464 C 52.704089,169.24464 38.565277,169.51059 35.117744,169.80625 C 31.670211,170.10191 22.457585,169.8587 21.217582,172.32986 C 19.977579,174.80103 20.395224,180.28621 21.859148,182.03284 C 23.971708,184.55336 36.179025,187.78967 40.909583,186.68423 C 45.640142,185.57879 49.460532,180.77538 49.756192,179.00142"
     id="path3075"
     sodipodi:nodetypes="cssssc" />
  <path
     style="opacity:1;color:black;fill:black;fill-opacity:1;fill-rule:nonzero;stroke:black;stroke-width:1.19683588;stroke-linecap:round;stroke-linejoin:round;marker:none;marker-start:none;marker-mid:none;marker-end:none;stroke-miterlimit:4;stroke-dasharray:none;stroke-dashoffset:0;stroke-opacity:1;visibility:visible;display:inline;overflow:visible"
     d="M 35.269379,145.57575 C 23.421801,145.57575 14.213103,163.49575 14.213103,185.69152 C 14.213103,186.56651 13.812549,187.53919 13.855214,188.39596 C 14.45313,170.09365 21.775401,155.5995 30.721504,155.5995 C 40.05833,155.5995 47.617912,171.37868 47.617912,190.80792 C 47.617912,207.56376 41.995792,221.59461 34.456182,225.13927 C 40.22262,225.48418 45.494071,220.46875 49.304541,213.33004 C 53.189344,206.05207 55.569162,196.01687 55.569163,184.91897 C 55.569163,162.7232 47.116955,145.57575 35.269379,145.57575 z "
     id="path2174"
     sodipodi:nodetypes="cscsscssc" />
  <path
     style="fill:white;fill-opacity:1;fill-rule:evenodd;stroke:black;stroke-width:1px;stroke-linecap:butt;stroke-linejoin:miter;stroke-opacity:1"
     d="M 116.75148,138.15578 L 82.784774,138.15578 L 87.515333,183.39175 L 116.75148,138.15578 z "
     id="path3114"
     sodipodi:nodetypes="cccc" />
  <path
     style="fill:#08f;fill-opacity:1;fill-rule:evenodd;stroke:black;stroke-width:0.87707855;stroke-linecap:butt;stroke-linejoin:miter;stroke-opacity:1;stroke-miterlimit:4;stroke-dasharray:none"
     d="M 107.62021,136.67749 C 103.04123,136.32256 97.444851,137.25876 94.01985,136.38183 C 94.463339,146.72992 91.802399,159.22155 94.01985,173.33931 C 98.306919,165.57824 107.62021,152.64312 107.62021,152.64312 C 107.62021,152.64312 108.39705,141.42494 107.62021,136.67749 z "
     id="path2866"
     sodipodi:nodetypes="ccccc" />
  <path
     sodipodi:type="arc"
     style="opacity:1;color:black;fill:#fe0;fill-opacity:1;fill-rule:nonzero;stroke:black;stroke-width:0.87707853;stroke-linecap:square;stroke-linejoin:round;marker:none;marker-start:none;marker-mid:none;marker-end:none;stroke-miterlimit:4;stroke-dasharray:none;stroke-dashoffset:0;stroke-opacity:1;visibility:visible;display:inline;overflow:visible"
     id="path1953"
     sodipodi:cx="88.95636"
     sodipodi:cy="122.16834"
     sodipodi:rx="12.648319"
     sodipodi:ry="14.144554"
     d="M 101.60468 122.16834 A 12.648319 14.144554 0 1 1  76.308041,122.16834 A 12.648319 14.144554 0 1 1  101.60468 122.16834 z"
     transform="matrix(0.786172,0.618008,-0.618008,0.786172,85.74169,-33.87022)" />
  <path
     style="fill:red;fill-opacity:1;fill-rule:evenodd;stroke:black;stroke-width:0.99999934px;stroke-linecap:butt;stroke-linejoin:miter;stroke-opacity:1"
     d="M 104.73596,143.63434 C 104.60088,145.21039 102.64453,145.8276 101.05933,148.55719 C 99.532682,146.57039 98.283981,145.60102 97.791385,144.67597 C 97.361159,143.86804 97.363112,142.4254 98.034536,141.73794 C 98.569081,141.19063 99.9854,140.63821 101.15878,141.88018 C 103.79584,140.06861 104.88548,141.88984 104.73596,143.63434 z "
     id="path2890"
     sodipodi:nodetypes="ccsscs"
     inkscape:transform-center-x="4.319997"
     inkscape:transform-center-y="0.62254762" />
  <path
     style="fill:#0080ff;fill-opacity:1;fill-rule:evenodd;stroke:black;stroke-width:1.25296935;stroke-linecap:round;stroke-linejoin:round;stroke-opacity:1;stroke-miterlimit:4;stroke-dasharray:none"
     d="M 113.73035,130.94898 C 104.92715,132.41242 91.479451,132.72602 83.953177,131.15804 L 84.879632,140.14776 C 92.846582,142.44746 104.94969,141.71574 114.14847,139.93869 L 113.73035,130.94898 z "
     id="path2827"
     sodipodi:nodetypes="ccccc" />
  <path
     style="opacity:1;fill:#fe8;fill-opacity:1;fill-rule:evenodd;stroke:black;stroke-width:1.25296938;stroke-linecap:butt;stroke-linejoin:miter;stroke-miterlimit:4;stroke-dasharray:none;stroke-opacity:1"
     d="M 115.01171,58.763332 C 116.07326,59.455525 120.17055,61.427283 120.27757,62.77176 C 120.43886,64.797938 118.65047,66.053953 119.79433,67.913105 C 120.73553,69.442865 123.90809,70.391881 124.82151,71.750077 C 125.44537,72.677711 125.63221,74.061192 126.84749,74.50981 C 129.12512,75.532173 131.91764,75.752887 134.20442,74.636265 C 135.3766,74.090291 136.24136,72.649454 135.71945,71.385142 C 134.82248,71.025967 133.32156,70.902197 133.35155,69.722706 C 133.38649,68.348399 134.4299,67.491381 135.74681,67.595735 C 138.7397,68.328825 139.44617,70.26291 139.35071,72.844268 C 139.25419,75.454086 138.03977,77.168661 136.82298,77.730043 C 134.90349,78.615624 132.82455,78.751177 130.76086,78.774185 C 124.16847,78.847685 115.71827,78.536161 112.88797,71.957223 C 111.5082,67.183301 111.03921,62.404468 115.01171,58.763332 z "
     id="path2814"
     sodipodi:nodetypes="cssscccscssscc" />
  <path
     style="fill:none;fill-opacity:0.75;fill-rule:evenodd;stroke:black;stroke-width:0.99986954;stroke-linecap:round;stroke-linejoin:round;stroke-opacity:1;stroke-miterlimit:4;stroke-dasharray:none"
     d="M 115.27318,66.962603 C 115.27318,66.962603 114.37534,68.457802 117.38246,70.059343 C 120.38959,71.660885 121.28744,71.97448 122.28981,73.979231 C 123.29219,75.983982 126.87988,78.950211 131.73495,78.630932"
     id="path2820"
     sodipodi:nodetypes="cssc" />
  <path
     sodipodi:type="arc"
     style="opacity:1;color:black;fill:#fe0;fill-opacity:1;fill-rule:nonzero;stroke:black;stroke-width:0.87707853;stroke-linecap:square;stroke-linejoin:round;marker:none;marker-start:none;marker-mid:none;marker-end:none;stroke-miterlimit:4;stroke-dasharray:none;stroke-dashoffset:0;stroke-opacity:1;visibility:visible;display:inline;overflow:visible"
     id="path2841"
     sodipodi:cx="88.95636"
     sodipodi:cy="122.16834"
     sodipodi:rx="12.648319"
     sodipodi:ry="14.144554"
     d="M 101.60468 122.16834 A 12.648319 14.144554 0 1 1  76.308041,122.16834 A 12.648319 14.144554 0 1 1  101.60468 122.16834 z"
     transform="matrix(0.914434,-0.404734,0.404734,0.914434,-16.32046,40.04937)" />
  <path
     sodipodi:type="arc"
     style="opacity:1;color:black;fill:#fe0;fill-opacity:1;fill-rule:nonzero;stroke:black;stroke-width:1.25069261;stroke-linecap:square;stroke-linejoin:round;marker:none;marker-start:none;marker-mid:none;marker-end:none;stroke-miterlimit:4;stroke-dasharray:none;stroke-dashoffset:0;stroke-opacity:1;visibility:visible;display:inline;overflow:visible"
     id="path2845"
     sodipodi:cx="88.95636"
     sodipodi:cy="122.16834"
     sodipodi:rx="12.648319"
     sodipodi:ry="14.144554"
     d="M 101.60468 122.16834 A 12.648319 14.144554 0 1 1  76.308041,122.16834 A 12.648319 14.144554 0 1 1  101.60468 122.16834 z"
     transform="matrix(0.593028,0.402914,-0.466178,0.51255,82.89595,18.69172)" />
  <path
     id="path2898"
     style="fill:#fe0;fill-opacity:1;fill-rule:evenodd;stroke:black;stroke-width:0.87707853;stroke-linecap:butt;stroke-linejoin:miter;stroke-miterlimit:4;stroke-opacity:1"
     d="M 127.69119,87.798385 C 127.69119,87.798385 127.54336,84.398296 127.54336,84.398296 C 127.54336,84.398296 121.52745,91.628849 114.584,93.546346 C 109.3099,95.002837 104.47678,96.45094 99.94189,102.10127 C 94.520019,96.812185 87.614109,94.376444 77.817857,91.903556 C 65.319026,88.748451 66.618367,84.632723 66.618367,84.632723 C 66.618367,84.632723 66.766197,88.032812 66.766197,88.032812 C 66.766197,88.032812 65.466856,92.14854 77.965687,95.303645 C 87.761939,97.776533 94.667849,100.21227 100.08972,105.50136 C 104.62461,99.851029 109.45773,98.402926 114.73183,96.946435 C 121.67528,95.028938 127.69119,87.798385 127.69119,87.798385 z "
     sodipodi:nodetypes="ccscsccscsc" />
  <path
     sodipodi:type="arc"
     style="opacity:1;color:black;fill:#fe0;fill-opacity:1;fill-rule:nonzero;stroke:black;stroke-width:1.19203496;stroke-linecap:square;stroke-linejoin:round;marker:none;marker-start:none;marker-mid:none;marker-end:none;stroke-miterlimit:4;stroke-dasharray:none;stroke-dashoffset:0;stroke-opacity:1;visibility:visible;display:inline;overflow:visible"
     id="path2847"
     sodipodi:cx="88.95636"
     sodipodi:cy="122.16834"
     sodipodi:rx="12.648319"
     sodipodi:ry="14.144554"
     d="M 101.60468 122.16834 A 12.648319 14.144554 0 1 1  76.308041,122.16834 A 12.648319 14.144554 0 1 1  101.60468 122.16834 z"
     transform="matrix(0.684016,-0.292924,0.30275,0.661816,18.39552,61.3249)" />
  <path
     style="fill:green;fill-opacity:1;fill-rule:evenodd;stroke:black;stroke-width:1px;stroke-linecap:butt;stroke-linejoin:miter;stroke-opacity:1;opacity:1"
     d="M 44.21875,93.21875 C 62.603404,95.163659 76.855882,164.16263 78.9375,195.21875 L 90.1875,178.03125 C 87.806017,136.01862 79.521598,90.752647 64.4375,79.71875 C 70.749645,77.36981 81.119863,64.010383 44.21875,93.21875 z M 127.125,77.40625 C 111.78868,88.496506 111.96924,138.96235 111.8125,145 L 129.31846,118.89291 C 131.34276,110.1477 141.5194,87.700677 146.625,86.5625 C 140.82287,83.858773 134.35303,80.376329 127.125,77.40625 z "
     id="path2822"
     sodipodi:nodetypes="cccccccccc"
     transform="matrix(1.002375,0,0,1.002375,0,-0.551729)" />
  <path
     style="fill:#fe0;fill-opacity:1;fill-rule:evenodd;stroke:black;stroke-width:1.25296974;stroke-linecap:butt;stroke-linejoin:miter;stroke-miterlimit:4;stroke-dasharray:none;stroke-opacity:1"
     d="M 72.980869,73.71102 C 72.980869,73.71102 70.449064,79.564789 76.828077,81.864483 C 83.73792,84.355546 95.842155,86.881998 99.947468,91.06326 C 102.34524,86.045745 114.82604,86.547421 118.8217,77.683219 C 118.71366,68.231346 96.9225,65.139432 96.9225,65.139432 L 72.980869,73.71102 z "
     id="path2831"
     sodipodi:nodetypes="cscccc" />
  <path
     style="opacity:1;color:black;fill:#ffd0ce;fill-opacity:1;fill-rule:evenodd;stroke:black;stroke-width:1.25296935;stroke-linecap:round;stroke-linejoin:miter;marker:none;marker-start:none;marker-mid:none;marker-end:none;stroke-miterlimit:4;stroke-dasharray:none;stroke-dashoffset:0;stroke-opacity:1;visibility:visible;overflow:visible"
     d="M 114.77567,39.483849 C 114.77567,39.483849 116.27556,43.907966 116.27556,45.912717 C 116.27556,47.917468 114.27081,48.753721 114.27081,50.758472 C 114.27081,52.763223 116.95785,54.245316 117.27793,57.941223 C 117.62569,61.956769 114.0188,76.844524 105.45849,76.924766 C 94.993832,77.021676 81.374253,73.800225 78.607742,68.967354 C 72.208339,57.788113 77.182914,43.907966 79.187665,39.898464 C 81.192416,35.888962 115.07146,33.63923 114.77567,39.483849 z "
     id="path3967"
     sodipodi:nodetypes="cssssssc" />
  <path
     style="fill:none;fill-opacity:1;fill-rule:evenodd;stroke:black;stroke-width:1pt;stroke-linecap:butt;stroke-linejoin:miter;stroke-opacity:1"
     d="M 204.1814,4.220791 L 3.535608,311.8187"
     id="path786" />
  <path
     style="fill:none;fill-opacity:1;fill-rule:evenodd;stroke:black;stroke-width:0.875;stroke-linecap:round;stroke-linejoin:miter;stroke-dasharray:none;stroke-opacity:1"
     d=""
     id="path734"
     sodipodi:nodetypes="c" />
  <path
     style="font-size:12px;fill:#fe0;fill-rule:evenodd;stroke:black;stroke-width:1.25296935;stroke-miterlimit:4;stroke-dasharray:none;stroke-opacity:1"
     d="M 103.4191,31.405533 C 101.35113,30.629975 98.062082,26.185763 96.923512,24.728166 C 96.020606,26.536536 92.974009,29.849319 91.692324,31.172098 L 103.4191,31.405533 z "
     id="path558"
     sodipodi:nodetypes="cccc" />
  <path
     style="font-size:12px;fill:#fe0;fill-rule:evenodd;stroke:black;stroke-width:1.25296935;stroke-miterlimit:4;stroke-dasharray:none;stroke-opacity:1"
     d="M 84.462597,31.833475 C 82.455464,31.677653 77.440218,29.00564 75.349816,28.152817 C 76.4569,28.993241 76.726816,33.149601 77.442309,34.202975 C 78.85582,33.915894 82.815069,32.42183 84.462597,31.833475 z "
     id="path560"
     sodipodi:nodetypes="cccc" />
  <path
     style="font-size:12px;fill:#fe0;fill-rule:evenodd;stroke:black;stroke-width:1.25296935;stroke-miterlimit:4;stroke-dasharray:none;stroke-opacity:1"
     d="M 92.880613,31.5857 C 90.57469,30.735577 87.239311,27.977806 85.543341,27.079785 C 84.777522,28.424436 83.299752,31.696502 82.149714,32.905557 C 84.066328,32.679684 89.959891,31.677791 92.880613,31.5857 z "
     id="path559"
     sodipodi:nodetypes="cccc" />
  <path
     style="font-size:12px;fill:#fe0;fill-rule:evenodd;stroke:black;stroke-width:1.25296935;stroke-miterlimit:4;stroke-dasharray:none;stroke-opacity:1"
     d="M 117.1503,34.144174 C 118.48012,32.925271 118.80629,30.275882 120.69727,29.095697 C 118.34642,29.843162 112.71116,30.756373 108.31881,31.178098 C 109.89852,31.455488 115.9017,34.076657 117.1503,34.144174 z "
     id="path556"
     sodipodi:nodetypes="cccc" />
  <path
     style="font-size:12px;fill:#fe0;fill-rule:evenodd;stroke:black;stroke-width:1.25296935;stroke-miterlimit:4;stroke-dasharray:none;stroke-opacity:1"
     d="M 110.93544,32.151082 C 109.80102,31.153081 110.40889,27.754725 109.56922,26.079708 C 108.13251,27.516053 103.01365,30.495841 101.61707,31.345858 C 104.61772,31.612433 107.50997,31.46756 110.93544,32.151082 z "
     id="path557"
     sodipodi:nodetypes="cccc" />
  <path
     style="font-size:12px;fill:#fe0;fill-rule:evenodd;stroke:black;stroke-width:1.25296935;stroke-linejoin:round;stroke-miterlimit:4;stroke-dasharray:none;stroke-opacity:1"
     d="M 120.21355,29.471721 C 122.82559,27.539749 127.19231,24.402881 132.75288,22.21269 C 131.00174,20.769539 123.82854,21.412011 120.04395,22.699474 C 116.65544,23.735305 113.66986,25.801188 114.29355,27.731549 C 114.8715,29.524552 118.12857,30.012381 120.21355,29.471721 z "
     id="path561"
     sodipodi:nodetypes="ccssc" />
  <path
     style="font-size:12px;fill:#fe0;fill-rule:evenodd;stroke:black;stroke-width:1.25296935;stroke-linejoin:round;stroke-miterlimit:4;stroke-dasharray:none;stroke-opacity:1"
     d="M 76.607558,29.250114 C 73.441193,27.878499 68.249914,23.933414 62.882459,23.319813 C 63.881283,21.493518 71.649256,20.49321 75.334682,21.614432 C 78.479076,22.472801 81.046857,24.152535 81.272454,26.223234 C 81.48324,28.146294 78.723967,29.340753 76.607558,29.250114 z "
     id="path562"
     sodipodi:nodetypes="ccssc" />
  <path
     style="font-size:12px;fill:#fe0;fill-rule:evenodd;stroke:black;stroke-width:1.25296935;stroke-linejoin:round;stroke-miterlimit:4;stroke-dasharray:none;stroke-opacity:1"
     d="M 96.125663,15.882287 C 98.664522,18.909064 103.06797,19.817387 103.00066,23.249627 C 103.01698,27.227183 98.262486,26.758751 96.725218,25.332179 C 95.285815,26.978504 88.959272,27.532743 88.768972,23.620529 C 88.638374,20.857755 93.842631,19.276855 96.125663,15.882287 z "
     id="path563"
     sodipodi:nodetypes="cscsc" />
  <g
     id="gems_2800"
     inkscape:label="#g2800"
     style="stroke-width:1.25296935;stroke-miterlimit:4;stroke-dasharray:none;stroke:black;stroke-opacity:1">
    <path
       sodipodi:nodetypes="cssss"
       id="path687"
       d="M 109.53727,23.482951 C 110.89269,23.407057 111.56499,24.191507 111.64097,24.897492 C 111.72478,25.6762 110.80219,26.309348 109.83662,26.315002 C 108.61394,26.346487 108.01411,25.533701 107.91527,24.87705 C 107.86927,24.14851 108.69512,23.530113 109.53727,23.482951 z "
       style="font-size:12px;fill:red;fill-rule:evenodd;stroke:black;stroke-width:1.25296935;stroke-miterlimit:4;stroke-dasharray:none;stroke-opacity:1" />
    <path
       sodipodi:nodetypes="cssss"
       id="path688"
       d="M 95.618852,21.532422 C 96.812561,21.265291 98.317629,21.94275 98.575787,22.717544 C 98.830264,23.579488 97.820822,24.458139 96.604218,24.647744 C 95.068783,24.915049 94.137848,24.118568 93.872365,23.401868 C 93.657848,22.594492 94.565998,21.741935 95.618852,21.532422 z "
       style="font-size:12px;fill:red;fill-rule:evenodd;stroke:black;stroke-width:1.25296935;stroke-miterlimit:4;stroke-dasharray:none;stroke-opacity:1" />
    <path
       sodipodi:nodetypes="cssss"
       id="path689"
       d="M 84.738734,24.111212 C 85.72678,23.833018 86.974126,24.545351 87.189012,25.357748 C 87.401057,26.261581 86.566587,27.181008 85.559425,27.377895 C 84.288484,27.655803 83.516403,26.819606 83.295438,26.068 C 83.116603,25.221456 83.867314,24.329242 84.738734,24.111212 z "
       style="font-size:12px;fill:red;fill-rule:evenodd;stroke:black;stroke-width:1.25296935;stroke-miterlimit:4;stroke-dasharray:none;stroke-opacity:1" />
    <path
       inkscape:transform-center-y="0.66365834"
       inkscape:transform-center-x="0.73739815"
       sodipodi:nodetypes="cssss"
       id="path690"
       d="M 120.34595,27.164165 C 121.36007,26.449663 123.1939,26.285465 123.86891,26.735569 C 124.58808,27.250621 124.08777,28.328888 123.00896,28.997075 C 121.6627,29.860697 120.32188,29.688168 119.67153,29.283383 C 119.02104,28.790558 119.43714,27.775403 120.34595,27.164165 z "
       style="font-size:12px;fill:red;fill-rule:evenodd;stroke:black;stroke-width:1.25296935;stroke-miterlimit:4;stroke-dasharray:none;stroke-opacity:1" />
    <path
       sodipodi:nodetypes="cssss"
       id="path691"
       d="M 74.298014,26.34713 C 75.467041,26.544308 76.509304,27.600882 76.407702,28.306472 C 76.265672,29.080329 74.999216,29.433424 73.843068,29.16682 C 72.371856,28.852308 71.887931,27.898382 71.95829,27.236338 C 72.112245,26.51961 73.278172,26.15261 74.298014,26.34713 z "
       style="font-size:12px;fill:red;fill-rule:evenodd;stroke:black;stroke-width:1.25296935;stroke-miterlimit:4;stroke-dasharray:none;stroke-opacity:1" />
  </g>
  <path
     style="fill:white;fill-opacity:1;fill-rule:evenodd;stroke:none;stroke-width:1px;stroke-linecap:butt;stroke-linejoin:miter;stroke-opacity:1"
     d="M 66.156784,70.972105 C 66.156784,70.972105 65.154408,74.981607 63.149657,76.986358 C 61.144906,78.991109 57.135404,80.99586 56.133029,80.99586 C 55.130653,80.99586 56.133029,83.000611 56.133029,83.000611 L 66.156784,81.401019 C 66.156784,81.401019 69.16391,75.983982 68.161535,73.979231 C 67.159159,71.97448 66.273014,71.052394 66.156784,70.972105 z "
     id="path2819" />
  <path
     style="fill:#ffd0ce;fill-opacity:1;fill-rule:evenodd;stroke:black;stroke-width:1.25296935;stroke-linecap:butt;stroke-linejoin:miter;stroke-opacity:1;stroke-miterlimit:4;stroke-dasharray:none"
     d="M 74.635539,72.620367 C 74.635539,72.620367 72.388111,75.547252 77.144297,78.265072 C 83.363925,81.819145 95.541852,83.282587 99.514052,87.463849 C 102.44094,83.49165 113.9102,82.94801 117.7763,74.083808 C 114.83979,69.64945 96.587168,61.540021 96.587168,61.540021 L 74.635539,72.620367 z "
     id="path2826"
     sodipodi:nodetypes="cscccc" />
  <path
     style="fill:#ffee80;fill-opacity:1;fill-rule:evenodd;stroke:black;stroke-width:0.87707855;stroke-linecap:butt;stroke-linejoin:miter;stroke-opacity:1;opacity:1;stroke-miterlimit:4;stroke-dasharray:none"
     d="M 90.324106,34.970465 C 90.12202,35.615394 89.696234,40.16317 88.402316,43.396773 C 87.249543,46.277644 82.869826,48.874418 79.598721,51.37959 C 77.909166,52.673534 78.527493,55.486361 78.645539,56.849299 C 78.962147,60.504815 78.509751,61.396224 76.132429,64.070872 C 75.353955,64.946708 72.63272,65.944807 71.84536,66.901737 C 70.427464,68.624999 71.651581,72.322016 70.367061,77.397664 C 69.409625,81.180873 66.874816,83.995379 64.897352,84.345672 C 58.035024,85.561282 54.695719,84.121075 52.561698,87.318239 C 50.987673,89.676425 49.399665,92.728326 46.862097,93.846478 C 45.013185,94.661181 42.496837,94.021142 41.540219,93.107328 C 39.917346,91.557071 40.03521,90.129766 41.983709,89.51972 C 44.149667,88.841591 42.874021,91.635146 45.106898,91.14585 C 46.219667,90.902006 49.883194,85.565982 50.114356,84.641332 C 54.203428,79.284242 58.861576,83.087338 64.158203,79.319453 C 66.972062,76.474717 65.931974,75.543494 66.523482,70.597486 C 67.114991,65.651477 67.978557,63.265639 71.69753,61.284199 C 73.697452,60.218656 74.270144,52.499162 74.5063,48.718651 C 74.971049,41.278708 87.962415,34.249779 90.324106,34.970465 z "
     id="path2813"
     sodipodi:nodetypes="csssssssssssscczssc" />
  <path
     style="fill:white;fill-opacity:1;fill-rule:evenodd;stroke:none;stroke-width:1px;stroke-linecap:butt;stroke-linejoin:miter;stroke-opacity:1"
     d="M 87.206669,37.893713 C 87.206669,37.893713 87.319892,42.468813 84.740852,44.473564 C 81.515562,46.960205 77.72368,48.654807 76.726171,53.87013 C 76.076007,51.650678 76.014416,48.981435 78.019167,45.974308 C 80.023918,42.967182 81.212336,43.907966 82.684469,41.903215 C 84.156602,39.898464 83.520722,37.789181 83.520722,37.789181 L 87.206669,37.893713 z "
     id="path2817"
     sodipodi:nodetypes="cccsscc" />
  <path
     style="fill:none;fill-opacity:0.75;fill-rule:evenodd;stroke:black;stroke-width:0.87707855;stroke-linecap:butt;stroke-linejoin:miter;stroke-opacity:1;stroke-miterlimit:4;stroke-dasharray:none"
     d="M 87.367506,37.779235 C 87.367506,37.779235 88.697976,42.953283 81.306478,46.944692 C 73.91498,50.936101 77.167239,58.327599 75.984599,60.545048 C 74.801959,62.762497 73.91498,63.161797 70.958381,64.957852 C 68.001782,66.753907 69.332251,72.962765 68.888761,75.919364 C 68.445271,78.875963 66.447847,81.482757 64.897352,82.276053 C 62.265259,83.622739 56.914535,82.128223 53.662276,85.823971"
     id="path2812"
     sodipodi:nodetypes="csssssc" />
  <g
     id="g3921"
     style="stroke-width:1.25296935;stroke-miterlimit:4;stroke-dasharray:none;stroke:black;stroke-opacity:1">
    <g
       id="g3917"
       style="stroke-width:1.25296935;stroke-miterlimit:4;stroke-dasharray:none;stroke:black;stroke-opacity:1">
      <path
         style="fill:#fe0;fill-opacity:1;fill-rule:evenodd;stroke:black;stroke-width:1.25296935;stroke-linecap:butt;stroke-linejoin:round;stroke-miterlimit:4;stroke-dasharray:none;stroke-opacity:1"
         d="M 117.08789,33.611213 C 115.96941,35.498152 115.612,37.801263 115.90557,38.618592 C 113.66377,38.165183 108.58883,36.372347 97.783354,36.357676 C 88.4206,36.270377 78.130816,38.109955 77.472789,38.358142 C 77.884256,37.014485 77.449575,36.191494 76.524041,34.30854 C 80.74249,33.101144 87.080286,31.542522 97.855922,31.595136 C 112.16882,31.665636 116.33122,33.512853 117.08789,33.611213 z "
         id="path774"
         sodipodi:nodetypes="ccsccsc" />
      <path
         style="font-size:12px;fill:#fe0;fill-rule:evenodd;stroke:black;stroke-width:1.25296935;stroke-miterlimit:4;stroke-dasharray:none;stroke-opacity:1"
         d="M 117.9685,34.494392 C 119.95621,34.137107 119.65934,32.601049 117.56143,32.440011 C 110.62046,31.102451 102.26969,30.259745 94.272383,30.585611 C 88.548885,30.854308 79.740172,32.206156 75.376471,33.570753 C 73.670354,34.941172 75.846814,35.670453 78.792951,34.501796 C 83.878148,33.494848 92.908588,32.711175 97.72153,32.67529 C 105.82081,32.445718 111.96932,33.355709 117.9685,34.494392 z "
         id="path693"
         sodipodi:nodetypes="ccsccsc" />
    </g>
    <path
       sodipodi:nodetypes="ccsccsc"
       id="path692"
       d="M 115.7606,39.717904 C 117.65079,39.360611 117.36849,37.824559 115.37354,37.663544 C 108.77308,36.325988 100.83184,35.483225 93.226887,35.809096 C 87.784135,36.077794 80.672862,36.838372 76.523142,38.202914 C 74.900792,39.573389 76.829823,40.302617 78.788101,39.725333 C 83.623698,38.718328 91.929949,38.082482 96.506841,38.046597 C 104.20878,37.81703 110.05567,38.579186 115.7606,39.717904 z "
       style="font-size:12px;fill:#fe0;fill-rule:evenodd;stroke:black;stroke-width:1.25296935;stroke-miterlimit:4;stroke-dasharray:none;stroke-opacity:1" />
  </g>
  <path
     style="fill:white;fill-opacity:1;fill-rule:nonzero;stroke:black;stroke-width:0.87707855;stroke-linecap:round;stroke-linejoin:round;stroke-miterlimit:4;stroke-dasharray:none;stroke-opacity:1"
     d="M 80.361805,61.889133 C 78.281585,64.673037 74.35674,65.611467 73.991145,69.323017 C 73.848518,72.376234 77.277124,75.584019 77.79197,75.936893 C 77.888691,75.453513 76.920473,71.786224 78.964215,70.274435 C 78.995338,69.62926 77.532206,73.855177 78.923402,75.024678 C 79.808174,75.768456 82.037342,76.332876 82.951908,77.23147 C 82.350105,74.131179 83.5594,72.192257 83.8862,71.216757 C 83.294909,72.880646 83.391876,76.469383 85.172898,78.375547 C 86.062067,79.327192 88.379328,80.616954 89.031785,81.779412 C 89.323288,81.069977 88.099994,78.078895 88.98513,76.236089 C 89.570669,75.017031 89.867101,74.308133 91.175322,72.646786 C 89.155214,75.445031 88.849576,78.945435 90.69316,79.977562 C 91.997804,80.707964 94.053621,82.42062 95.391665,83.327327 C 94.913873,80.052751 96.722216,75.687715 98.241044,72.585435 C 96.306156,76.897582 94.364969,83.080216 100.77472,86.071104 C 100.96442,83.79925 101.75071,80.920733 102.21844,79.888167 C 102.86716,81.370576 104.01457,81.653289 105.12576,84.761273 C 109.09336,80.294221 107.85949,80.056941 108.08934,80.811444 C 110.35193,80.17201 113.04537,78.352553 114.50964,76.554926 C 115.97517,74.930375 116.01829,72.713698 115.7818,70.670664 C 115.70972,68.727645 115.75177,66.765496 116.13457,64.85332"
     id="path2828"
     sodipodi:nodetypes="ccccsccscscsccccccccs" />
  <path
     style="fill:#fe0;fill-opacity:1;fill-rule:nonzero;stroke:none;stroke-width:0.87707853;stroke-linecap:round;stroke-linejoin:round;stroke-miterlimit:4;stroke-dasharray:none;stroke-opacity:1"
     d="M 80.84453,61.906907 C 80.936666,62.952137 78.316656,64.988255 77.370665,65.684351 C 75.921075,66.751014 75.246557,69.608859 76.107219,71.861128 C 76.728187,69.298866 78.506764,67.713043 80.382395,66.298732 C 79.676311,67.641283 79.095033,69.862896 81.696058,71.42794 C 81.609153,68.908667 84.259272,66.363551 84.031557,65.573188 C 82.893882,66.77756 83.441146,68.43448 84.556799,70.29958 C 85.207479,65.968594 93.754176,66.077047 94.205655,65.947756 C 96.066762,65.414783 85.554345,61.06833 85.611392,61.113535"
     id="path2855"
     sodipodi:nodetypes="cscccccsc" />
  <path
     style="fill:#ffd0ce;fill-opacity:1;fill-rule:evenodd;stroke:none;stroke-width:0.99986954;stroke-linecap:butt;stroke-linejoin:miter;stroke-opacity:1;stroke-miterlimit:4;stroke-dasharray:none"
     d="M 87.59375,55.90625 L 85.21875,57.84375 C 85.255243,56.959134 85.28125,56.28125 85.28125,56.28125 C 85.28125,56.28125 82.454973,61.905089 79.817693,61.227694 C 81.808668,63.071193 82.262601,65.146147 80.262601,66.697378 C 82.844796,66.094863 84.587754,64.630948 85.25247,62.113506 C 86.11241,63.892663 84.800146,65.643766 84.788912,67.293598 C 88.542871,64.034593 91.673899,66.631406 92.524441,64.989868 C 93.374985,63.348327 87.59375,55.90625 87.59375,55.90625 z "
     transform="matrix(1.002375,0,0,1.002375,0,-0.551729)"
     id="path2850"
     sodipodi:nodetypes="ccccccccc" />
  <path
     style="fill:#fe0;fill-opacity:1;fill-rule:nonzero;stroke:none;stroke-width:0.87707853;stroke-linecap:round;stroke-linejoin:round;stroke-miterlimit:4;stroke-dasharray:none;stroke-opacity:1"
     d="M 113.71734,63.197891 C 115.2821,65.441146 113.98735,66.222208 114.56722,68.416677 C 115.05111,70.247967 114.76954,71.860738 113.53931,74.519539 C 114.11048,70.543184 111.37723,69.435 110.98624,65.700265"
     id="path3368"
     sodipodi:nodetypes="cscc" />
  <g
     id="g4003">
    <g
       style="opacity:1"
       id="g3991">
      <path
         style="fill:white;fill-opacity:1;fill-rule:evenodd;stroke:black;stroke-width:0.87707855;stroke-linecap:butt;stroke-linejoin:round;stroke-opacity:1;stroke-miterlimit:4;stroke-dasharray:none"
         d="M 107.25418,57.941223 C 107.25418,57.941223 110.82433,57.954768 112.26606,59.527848 C 112.87681,60.194244 115.79584,59.884383 116.0049,58.150286 C 116.22497,56.324877 113.26843,56.938848 113.26843,56.938848 C 113.26843,56.938848 112.68503,55.936472 113.73035,54.934097 C 114.77567,53.931721 117.27793,54.934097 117.27793,54.934097 C 117.27793,54.934097 119.28269,55.936472 119.28269,57.941223 C 119.28269,59.945974 118.39431,61.514616 117.70255,62.786978 C 116.13458,65.670922 102.903,66.038697 104.20032,58.040117"
         id="path3989"
         sodipodi:nodetypes="csscscssc" />
      <path
         style="fill:white;fill-opacity:1;fill-rule:evenodd;stroke:black;stroke-width:0.87707855;stroke-linecap:round;stroke-linejoin:round;stroke-opacity:1;stroke-miterlimit:4;stroke-dasharray:none"
         d="M 104.26281,58.829305 C 104.04953,57.951488 102.76496,57.463279 102.76496,57.463279 C 102.76496,57.463279 99.026112,56.520722 96.018986,59.527848 C 93.011859,62.534975 90.703634,64.01601 89.691138,62.159788 C 88.917116,60.740763 92.341268,61.487885 91.77872,59.945974 C 91.216171,58.404063 89.21142,59.344847 89.21142,59.344847 C 89.21142,59.344847 87.388394,59.553911 87.492926,62.585326 C 87.597457,65.616742 90.718364,66.904525 92.261487,66.962603 C 97.67002,67.166162 105.93862,65.726488 104.26281,58.829305 z "
         id="path3987"
         sodipodi:nodetypes="ccssscsss" />
    </g>
    <path
       sodipodi:nodetypes="cssc"
       id="path3997"
       d="M 99.653526,62.422102 C 97.876488,63.006351 97.855246,65.638292 96.852866,65.638292 C 95.850493,65.638292 100.14146,67.747575 102.58041,65.742824 C 105.01935,63.738073 104.35745,59.476567 104.35745,59.476567"
       style="fill:white;fill-opacity:1;fill-rule:evenodd;stroke:black;stroke-width:0.86662072;stroke-linecap:round;stroke-linejoin:round;stroke-miterlimit:4;stroke-dasharray:none;stroke-opacity:1" />
    <path
       sodipodi:nodetypes="csss"
       id="path3995"
       d="M 95.019199,63.746413 C 95.12373,65.375978 93.534516,67.485261 92.532141,67.485261 C 91.529765,67.485261 95.002757,68.500529 97.632488,66.75354 C 99.548772,65.48051 100.04754,63.363119 99.864608,61.692023"
       style="fill:white;fill-opacity:1;fill-rule:evenodd;stroke:black;stroke-width:0.86662069;stroke-linecap:round;stroke-linejoin:round;stroke-opacity:1;stroke-miterlimit:4;stroke-dasharray:none" />
    <path
       sodipodi:nodetypes="ccsc"
       id="path3999"
       d="M 109.46621,62.343886 C 110.70753,63.20253 111.83864,64.826498 112.71036,65.375289 C 112.71969,65.51902 108.97828,67.669359 106.53933,65.664608 C 104.10039,63.659857 104.76229,59.398351 104.76229,59.398351"
       style="fill:white;fill-opacity:1;fill-rule:evenodd;stroke:black;stroke-width:0.86662072;stroke-linecap:round;stroke-linejoin:round;stroke-miterlimit:4;stroke-dasharray:none;stroke-opacity:1" />
    <path
       sodipodi:nodetypes="csss"
       id="path4001"
       d="M 114.02554,61.314353 C 115.77392,63.463347 118.11242,60.062498 118.5256,60.565767 C 119.30331,61.513054 118.12466,65.125683 113.95587,65.452789 C 111.45893,65.648712 110.01895,62.567319 109.55135,62.377866"
       style="fill:white;fill-opacity:1;fill-rule:evenodd;stroke:black;stroke-width:0.86662084;stroke-linecap:round;stroke-linejoin:round;stroke-miterlimit:4;stroke-dasharray:none;stroke-opacity:1" />
  </g>
  <g
     id="g3977">
    <g
       id="g3851">
      <path
         style="opacity:0.93236712;fill:green;fill-opacity:1;fill-rule:evenodd;stroke:black;stroke-width:0.87707855;stroke-linecap:butt;stroke-linejoin:miter;stroke-miterlimit:4;stroke-dasharray:none;stroke-opacity:1"
         d="M 109.46484,45.014116 C 111.28651,45.087794 111.59,47.271581 111.03705,49.175168 C 110.52875,51.061236 108.16886,50.939341 107.85589,49.059326 C 107.5431,47.316539 107.65453,44.946192 109.46484,45.014116 z "
         id="path815"
         sodipodi:nodetypes="csss" />
      <path
         style="opacity:0.93236712;fill:green;fill-opacity:1;fill-rule:evenodd;stroke:black;stroke-width:0.87707855;stroke-linecap:butt;stroke-linejoin:miter;stroke-miterlimit:4;stroke-dasharray:none;stroke-opacity:1"
         d="M 96.628287,45.536737 C 98.556703,45.609019 98.877993,47.751438 98.292653,49.618966 C 97.754546,51.469306 95.256309,51.34972 94.92501,49.505318 C 94.593824,47.795545 94.711791,45.4701 96.628287,45.536737 z "
         id="path816"
         sodipodi:nodetypes="csss" />
      <path
         style="opacity:0.93236712;fill:none;fill-opacity:1;fill-rule:evenodd;stroke:black;stroke-width:0.87707855;stroke-linecap:round;stroke-linejoin:miter;stroke-miterlimit:4;stroke-dasharray:none;stroke-opacity:1"
         d="M 104.65255,41.718111 C 105.55413,40.854791 107.82102,40.479501 108.87477,40.527541 C 110.18852,40.525791 111.30599,41.581341 112.25883,43.166211"
         id="path821"
         sodipodi:nodetypes="csc" />
      <path
         style="opacity:0.93236712;fill:none;fill-opacity:1;fill-rule:evenodd;stroke:black;stroke-width:0.87707855;stroke-linecap:round;stroke-linejoin:miter;stroke-miterlimit:4;stroke-dasharray:none;stroke-opacity:1"
         d="M 99.612551,43.210441 C 98.821151,41.828051 97.919061,40.288871 95.887811,40.361041 C 93.958591,40.430071 92.827651,42.223351 91.887251,42.917371"
         id="path822"
         sodipodi:nodetypes="ccc" />
    </g>
    <g
       style="fill:#ffd0ce;fill-opacity:1"
       id="g3847">
      <path
         style="opacity:1;fill:#ffd0ce;fill-opacity:1;fill-rule:evenodd;stroke:black;stroke-width:0.87707855;stroke-linecap:round;stroke-linejoin:miter;stroke-miterlimit:4;stroke-dasharray:none;stroke-opacity:1"
         d="M 102.97223,51.9585 C 104.89918,51.1572 109.74912,50.18956 110.49305,51.3074 C 112.41345,54.25475 111.75581,57.56264 108.9336,58.93113 C 107.17092,59.80495 104.21868,59.019146 102.78353,57.433926"
         id="n"
         sodipodi:nodetypes="cssc" />
      <path
         style="fill:#ffd0ce;fill-opacity:1;fill-rule:evenodd;stroke:black;stroke-width:0.87707855;stroke-linecap:round;stroke-linejoin:miter;stroke-miterlimit:4;stroke-dasharray:none;stroke-opacity:1"
         d="M 104.24705,46.915092 C 104.24705,46.915092 104.23184,49.507957 104.74063,50.924594"
         id="path3845" />
    </g>
  </g>
  <path
     style="fill:none;fill-opacity:0.75;fill-rule:evenodd;stroke:black;stroke-width:0.87707855;stroke-linecap:round;stroke-linejoin:round;stroke-opacity:1;stroke-miterlimit:4;stroke-dasharray:none"
     d="M 107.50835,69.230579 C 107.26669,71.19087 107.80604,74.839199 106.2518,77.102001 C 104.69756,79.364802 102.2423,79.845654 102.2423,79.845654 C 102.2423,79.845654 103.1869,77.897392 102.81574,75.910067 C 102.43124,73.851275 102.07575,72.876447 102.30717,70.676445"
     id="path3370"
     sodipodi:nodetypes="czczc" />
  <path
     style="fill:none;fill-opacity:0.75;fill-rule:evenodd;stroke:black;stroke-width:0.87707853;stroke-linecap:round;stroke-linejoin:round;stroke-miterlimit:4;stroke-dasharray:none;stroke-opacity:1"
     d="M 111.71081,71.716206 C 111.76481,73.750412 112.74765,75.920441 111.19341,78.183243 C 109.63917,80.446044 107.70131,80.557321 107.70131,80.557321 C 107.70131,80.557321 108.64591,78.609059 108.27475,76.621734 C 107.89025,74.562942 107.68259,75.066413 107.32269,74.714286"
     id="path3372"
     sodipodi:nodetypes="czczc" />
  <path
     style="fill:#fe0;fill-opacity:1;fill-rule:evenodd;stroke:none;stroke-width:1px;stroke-linecap:butt;stroke-linejoin:miter;stroke-opacity:1"
     d="M 99.827647,74.981607 C 99.827647,74.981607 98.2328,75.983982 98.2328,77.988733 C 98.2328,79.993484 99.235175,80.99586 99.235175,80.99586 C 99.235175,80.99586 100.23755,78.991109 100.23755,77.988733 C 100.23755,76.986358 99.932178,75.024593 99.827647,74.981607 z "
     id="path2803" />
  <path
     style="fill:#fe0;fill-opacity:1;fill-rule:evenodd;stroke:none;stroke-width:1px;stroke-linecap:butt;stroke-linejoin:miter;stroke-opacity:1"
     d="M 101.70701,58.771089 C 101.70701,58.771089 100.6722,57.891863 99.046073,58.918919 C 97.419944,59.945974 96.657615,60.988538 95.941644,61.284198 C 95.225673,61.579858 99.037235,60.52954 99.637393,59.945974 C 100.23755,59.362409 101.55918,58.918919 101.70701,58.771089 z "
     id="path2805" />
  <path
     style="fill:#fe0;fill-opacity:1;fill-rule:evenodd;stroke:none;stroke-width:1px;stroke-linecap:butt;stroke-linejoin:miter;stroke-opacity:1"
     d="M 117.46834,62.766619 C 116.78398,63.623039 114.29288,65.105724 112.61225,63.35051 C 112.02927,62.84972 111.50217,62.042295 109.50782,60.985231 C 111.76862,60.303641 113.91005,62.367078 114.51021,62.950644 C 115.11036,63.534209 116.47039,63.009382 117.46834,62.766619 z "
     id="path2807"
     sodipodi:nodetypes="cccsc" />
  <path
     style="fill:#ffee80;fill-opacity:1;fill-rule:evenodd;stroke:none;stroke-width:1px;stroke-linecap:butt;stroke-linejoin:miter;stroke-opacity:1"
     d="M 96.951552,69.814978 C 96.951552,69.814978 92.299081,73.396977 91.664553,75.298661 C 91.030025,77.200345 93.858764,80.350019 93.858764,80.350019 C 93.858764,80.350019 93.248971,76.7795 93.566235,75.828658 C 93.883499,74.877817 95.573661,72.711191 96.951552,69.814978 z "
     id="path2809"
     inkscape:transform-center-y="-1.35569"
     inkscape:transform-center-x="-0.62570306"
     sodipodi:nodetypes="cscsc" />
  <path
     style="fill:#ffee80;fill-opacity:1;fill-rule:evenodd;stroke:none;stroke-width:1px;stroke-linecap:butt;stroke-linejoin:miter;stroke-opacity:1"
     d="M 105.44519,68.033599 C 105.44519,68.033599 103.85034,69.035974 103.85034,71.040725 C 103.85034,73.045476 104.85271,74.047852 104.85271,74.047852 C 104.85271,74.047852 105.85509,72.043101 105.85509,71.040725 C 105.85509,70.03835 105.54972,68.076585 105.44519,68.033599 z "
     id="path2811" />
  <path
     style="fill:#fe0;fill-opacity:1;fill-rule:evenodd;stroke:black;stroke-width:0.99999988px;stroke-linecap:butt;stroke-linejoin:miter;stroke-opacity:1"
     d="M 34.012314,146.83504 C 35.933906,147.37022 36.261638,149.71318 39.28813,152.15456 C 36.487008,153.38181 35.007888,154.54529 33.752384,154.87212 C 32.655855,155.15757 30.869759,154.80407 30.168279,153.88415 C 29.609792,153.15175 29.241774,151.42984 31.041666,150.41714 C 29.386783,147.02042 31.885348,146.24266 34.012314,146.83504 z "
     id="path2868"
     sodipodi:nodetypes="ccsscs" />
  <path
     style="fill:#0080ff;fill-opacity:1;fill-rule:evenodd;stroke:black;stroke-width:1px;stroke-linecap:butt;stroke-linejoin:miter;stroke-opacity:1;opacity:0.99"
     d="M 32.226931,164.80104 C 32.226931,164.80104 31.984544,105.1391 32.076016,100.04099 C 32.165593,95.048487 29.858303,89.660705 27.21161,87.803425 C 24.350603,89.671237 22.007499,94.998559 21.947729,100.32124 C 21.886129,105.73083 22.052261,164.60815 22.052261,164.60815 L 32.226931,164.80104 z "
     id="path2829"
     sodipodi:nodetypes="cscscc" />
  <path
     style="fill:none;fill-opacity:0.75;fill-rule:evenodd;stroke:black;stroke-width:0.87707855;stroke-linecap:round;stroke-linejoin:miter;stroke-opacity:1;stroke-miterlimit:4;stroke-dasharray:none"
     d="M 27.064139,95.029117 L 27.027519,162.44897"
     id="path2832"
     sodipodi:nodetypes="cc" />
  <path
     style="opacity:1;fill:#fe0;fill-opacity:1;fill-rule:evenodd;stroke:black;stroke-width:1.25296938;stroke-linecap:butt;stroke-linejoin:miter;stroke-miterlimit:4;stroke-dasharray:none;stroke-opacity:1"
     d="M 31.63561,169.79139 C 31.93127,188.71363 30.524675,194.03551 27.792031,194.03551 C 23.581088,194.03551 22.765812,189.00929 22.765812,169.79139"
     id="path3066"
     sodipodi:nodetypes="csc" />
  <path
     id="path2861"
     style="fill:#fe0;fill-opacity:1;fill-rule:evenodd;stroke:black;stroke-width:1.00475585px;stroke-linecap:round;stroke-linejoin:round;stroke-opacity:1"
     d="M 26.968825,172.89815 C 26.028367,171.8944 23.537951,170.70669 22.617875,170.06942 C 20.548265,168.94461 17.450957,169.20177 15.760868,168.23408 C 13.035349,166.67356 13.09757,164.56076 13.189491,162.72805 C 13.252694,161.46791 14.083079,159.51806 15.787653,159.43018 C 16.044123,159.41718 16.301598,159.39641 16.537638,159.40149 C 18.189923,159.43705 19.297469,159.952 19.350082,161.29419 C 19.406301,162.75996 18.033157,163.3748 16.832276,162.87144 C 16.769072,164.93946 20.05376,165.1369 21.948246,165.07959 C 24.623852,164.99959 26.174094,162.23378 27.061223,161.10005 C 27.948352,162.28825 28.834949,164.91357 31.510556,164.99355 C 33.405041,165.05086 36.662943,164.82477 36.59974,162.75673 C 35.398859,163.2601 34.0525,162.67392 34.108719,161.20816 C 34.161332,159.86596 35.268878,159.35102 36.921163,159.31546 C 37.157203,159.31038 37.414677,159.30248 37.671148,159.31546 C 39.375722,159.40336 40.206107,161.35319 40.26931,162.61334 C 40.361231,164.44606 40.423451,166.55886 37.697933,168.11937 C 36.007844,169.08706 32.910536,168.82989 30.840926,169.95471 C 29.920851,170.59198 27.909287,171.8944 26.968825,172.89815 z "
     sodipodi:nodetypes="ccssssscscscssssscc" />
  <path
     sodipodi:type="arc"
     style="opacity:1;color:black;fill:#fe0;fill-opacity:1;fill-rule:nonzero;stroke:black;stroke-width:1.25046341;stroke-linecap:round;stroke-linejoin:round;marker:none;marker-start:none;marker-mid:none;marker-end:none;stroke-miterlimit:4;stroke-dasharray:none;stroke-dashoffset:0;stroke-opacity:1;visibility:visible;display:inline;overflow:visible"
     id="path3068"
     sodipodi:cx="26.905052"
     sodipodi:cy="199.06172"
     sodipodi:rx="3.252259"
     sodipodi:ry="3.252259"
     d="M 30.157311 199.06172 A 3.252259 3.252259 0 1 1  23.652793,199.06172 A 3.252259 3.252259 0 1 1  30.157311 199.06172 z"
     transform="translate(0.88698,-1.773959)" />
  <path
     style="fill:#ffd0d0;fill-opacity:1;fill-rule:evenodd;stroke:black;stroke-width:0.99999982px;stroke-linecap:butt;stroke-linejoin:miter;stroke-opacity:1"
     d="M 22.18967,187.03301 C 21.978302,187.05839 20.557605,187.16646 20.527503,187.5736 C 20.455207,188.55144 21.068389,188.97191 21.438133,189.77349 C 22.01781,190.81857 23.350737,190.68351 24.101771,190.46094 C 25.324712,190.09851 25.843262,188.75304 25.552754,187.56949 C 25.478545,187.15338 25.205554,186.23338 24.878432,186.38727 C 24.614409,186.51147 24.049607,186.98991 23.777305,187.01815 C 23.110422,187.08729 22.83848,186.5912 22.18967,187.03301 z "
     id="path3100"
     sodipodi:nodetypes="cscscssc" />
  <path
     style="fill:#ffd0d0;fill-opacity:1;fill-rule:evenodd;stroke:black;stroke-width:1.00000012px;stroke-linecap:butt;stroke-linejoin:miter;stroke-opacity:1"
     d="M 20.451819,181.89717 C 20.083872,181.73231 19.511077,181.28993 19.235831,181.67971 C 18.574779,182.61582 18.645503,183.96692 18.821977,185.12166 C 19.2155,186.71535 21.027243,187.6173 22.61681,187.44032 C 24.966742,187.17868 25.619821,186.95765 25.78697,185.48327 C 25.892497,184.99012 25.782183,184.10759 25.310687,183.6637 C 24.800001,183.18292 23.663956,183.08898 23.192396,182.87202 C 22.037539,182.34066 21.78222,182.03056 20.451819,181.89717 z "
     id="path3098"
     sodipodi:nodetypes="cscscssc" />
  <path
     style="fill:#ffd0d0;fill-opacity:1;fill-rule:evenodd;stroke:black;stroke-width:1.00000012px;stroke-linecap:butt;stroke-linejoin:miter;stroke-opacity:1"
     d="M 20.667969,177.57028 C 20.320532,177.3657 19.800224,176.86264 19.483525,177.21955 C 18.722915,178.07674 18.516867,178.677 18.564436,179.84418 C 18.779134,181.47163 20.074238,182.6564 21.396425,183.25665 C 23.549395,184.23407 25.613636,183.17171 25.94296,181.72489 C 26.102425,181.24646 25.915045,180.07075 25.30144,179.86378 C 24.806201,179.69673 23.605893,179.5429 23.161246,179.27508 C 22.072303,178.61915 21.97543,177.85011 20.667969,177.57028 z "
     id="path3096"
     sodipodi:nodetypes="cscscssc" />
  <path
     style="fill:#ffd0d0;fill-opacity:1;fill-rule:evenodd;stroke:black;stroke-width:0.87707853;stroke-linecap:round;stroke-linejoin:round;stroke-miterlimit:4;stroke-dasharray:none;stroke-opacity:1"
     d="M 43.933937,172.64055 C 38.010027,168.16671 32.298669,172.51674 29.63773,173.21394 C 26.976791,173.91115 24.358456,174.25228 25.059388,176.6066 C 26.313732,180.81975 34.793843,177.49358 34.793843,177.49358 C 34.793843,177.49358 32.873589,178.70067 35.588767,181.87963 C 36.690269,183.16928 40.81375,182.89155 40.81375,182.89155"
     id="path3077"
     sodipodi:nodetypes="csscsc" />
  <path
     style="fill:#ffd0d0;fill-opacity:1;fill-rule:evenodd;stroke:black;stroke-width:0.99999982px;stroke-linecap:butt;stroke-linejoin:miter;stroke-opacity:1"
     d="M 22.600638,170.76544 C 22.738001,170.44216 20.338498,171.65826 19.964059,172.02267 C 19.064774,172.89787 19.144055,174.32337 19.613166,175.64482 C 20.166005,177.66525 21.397237,178.13198 22.682246,178.96509 C 23.964949,179.7967 25.457041,180.29261 26.035252,178.60897 C 26.276234,178.06314 26.157282,176.17759 25.589542,175.79383 C 25.131322,175.48409 23.9841,174.85891 23.562752,174.4854 C 22.555891,173.59283 22.672216,172.54942 22.600638,170.76544 z "
     id="path3079"
     sodipodi:nodetypes="cscscssc" />
  <path
     style="fill:none;fill-opacity:0.75;fill-rule:evenodd;stroke:black;stroke-width:0.87707855;stroke-linecap:round;stroke-linejoin:miter;stroke-opacity:1;stroke-miterlimit:4;stroke-dasharray:none"
     d="M 23.504963,158.17877 L 30.526885,158.17877"
     id="path3102" />
  <path
     style="fill:none;fill-opacity:0.75;fill-rule:evenodd;stroke:black;stroke-width:0.87707855;stroke-linecap:round;stroke-linejoin:miter;stroke-opacity:1;stroke-miterlimit:4;stroke-dasharray:none"
     d="M 60.142531,117.77801 C 63.487541,128.23117 58.537675,134.05016 62.718938,145.14789 C 57.590686,156.85541 60.628307,158.26766 55.192665,180.67172"
     id="path3104"
     sodipodi:nodetypes="ccc" />
  <path
     style="fill:none;fill-opacity:0.75;fill-rule:evenodd;stroke:black;stroke-width:0.99986954;stroke-linecap:round;stroke-linejoin:round;stroke-opacity:1;stroke-miterlimit:4;stroke-dasharray:none"
     d="M 25.505701,206.2928 C 25.505701,206.2928 24.057012,208.29755 26.061763,210.3023 C 28.066514,212.30705 27.064139,214.3118 27.064139,214.3118 C 27.064139,214.3118 31.073641,212.84356 31.073641,211.30468 C 31.073641,209.76579 29.06889,208.79676 30.071265,207.29517"
     id="path3106" />
  <path
     style="fill:none;fill-opacity:0.75;fill-rule:evenodd;stroke:black;stroke-width:0.99986959;stroke-linecap:round;stroke-linejoin:round;stroke-miterlimit:4;stroke-dasharray:none;stroke-opacity:1"
     d="M 37.622522,191.51554 C 37.622522,191.51554 36.040624,193.32923 37.393031,195.65105 C 38.745438,197.97288 37.54276,199.85224 37.54276,199.85224 C 37.54276,199.85224 41.206599,198.95776 41.476016,197.40192 C 41.74544,195.84606 39.166385,194.46685 40.280974,193.09619"
     id="path3108"
     sodipodi:nodetypes="cscsc" />
  <path
     style="fill:none;fill-opacity:0.75;fill-rule:evenodd;stroke:black;stroke-width:0.99986917;stroke-linecap:round;stroke-linejoin:round;stroke-miterlimit:4;stroke-dasharray:none;stroke-opacity:1"
     d="M 16.545606,189.98563 C 16.545606,189.98563 14.326324,192.68517 16.463065,194.16849 C 18.599805,195.6518 18.399842,197.83007 18.399842,197.83007 C 18.399842,197.83007 21.091449,195.47781 20.647048,193.98355 C 20.202644,192.48928 18.992189,192.01166 19.337457,190.32195"
     id="path3110"
     sodipodi:nodetypes="cscsc" />
  <path
     style="fill:none;fill-opacity:0.75;fill-rule:evenodd;stroke:black;stroke-width:0.99986964;stroke-linecap:round;stroke-linejoin:round;stroke-miterlimit:4;stroke-dasharray:none;stroke-opacity:1"
     d="M 34.094736,211.28446 C 34.094736,211.28446 32.16364,213.39374 33.823381,215.39849 C 35.483123,217.40324 34.653253,219.40799 34.653253,219.40799 C 34.653253,219.40799 37.972735,217.93975 37.972735,216.40087 C 37.972735,214.86198 36.312994,213.89295 37.142864,212.39136"
     id="path3112"
     sodipodi:nodetypes="cscsc" />
  <path
     style="fill:none;fill-opacity:0.75;fill-rule:evenodd;stroke:black;stroke-width:0.99986954;stroke-linecap:round;stroke-linejoin:miter;stroke-opacity:1;stroke-miterlimit:4;stroke-dasharray:none"
     d="M 53.311097,219.90793 C 56.656107,219.61983 59.164865,216.76119 62.509875,212.90174"
     id="path3116"
     sodipodi:nodetypes="cc" />
  <path
     style="fill:black;fill-opacity:1;fill-rule:evenodd;stroke:black;stroke-width:0.99986954;stroke-linecap:butt;stroke-linejoin:round;stroke-opacity:1;stroke-miterlimit:4;stroke-dasharray:none"
     d="M 62.718937,145.14789 C 62.718937,145.14789 54.774539,145.37435 51.638592,140.77496 C 48.502645,136.17557 48.43409,130.33266 42.733298,120.83135 C 39.597351,115.60477 36.892213,115.73068 36.892213,115.73068 C 36.892213,115.73068 37.65455,111.48075 38.590081,105.82337 C 41.805877,106.50573 44.477802,107.28197 47.048044,111.77764 C 50.955743,118.61269 51.77215,124.44409 54.251881,129.27649 C 56.505632,133.66851 57.108434,135.36994 60.811232,136.65507 C 61.218473,141.59943 62.718937,143.22275 62.718937,145.14789 z "
     id="path2849"
     sodipodi:nodetypes="cssccsscc" />
  <path
     style="fill:#fe0;fill-opacity:1;fill-rule:evenodd;stroke:black;stroke-width:1px;stroke-linecap:butt;stroke-linejoin:miter;stroke-opacity:1"
     d="M 43.09653,108.64484 C 44.46966,109.41552 44.252253,111.22293 46.094331,113.62652 C 43.690105,113.99723 42.317187,114.57663 41.28435,114.57663 C 40.382293,114.57663 39.077115,113.96744 38.721168,113.1468 C 38.437779,112.49345 38.499592,111.14049 40.089403,110.73547 C 39.495666,107.88657 41.576644,107.79179 43.09653,108.64484 z "
     id="path2856"
     sodipodi:nodetypes="ccsscs" />
  <path
     style="fill:#fe0;fill-opacity:1;fill-rule:evenodd;stroke:black;stroke-width:0.99999952px;stroke-linecap:butt;stroke-linejoin:miter;stroke-opacity:1"
     d="M 48.669331,115.77928 C 49.457776,117.14229 48.349372,118.58639 48.708845,121.59326 C 46.45149,120.68658 44.974995,120.48517 44.086436,119.95866 C 43.310388,119.49881 42.49808,118.30938 42.610194,117.42192 C 42.699452,116.71538 43.442331,115.58292 45.016528,116.04492 C 45.95802,113.29132 47.79662,114.2706 48.669331,115.77928 z "
     id="path2858"
     sodipodi:nodetypes="ccsscs" />
  <path
     style="fill:#fe0;fill-opacity:1;fill-rule:evenodd;stroke:black;stroke-width:0.99999952px;stroke-linecap:butt;stroke-linejoin:miter;stroke-opacity:1"
     d="M 51.676458,123.79828 C 52.464903,125.16129 51.356499,126.60539 51.715972,129.61226 C 49.458617,128.70558 47.982122,128.50417 47.093563,127.97766 C 46.317515,127.51781 45.505207,126.32838 45.617321,125.44092 C 45.706579,124.73438 46.449458,123.60192 48.023655,124.06392 C 48.965147,121.31032 50.803747,122.2896 51.676458,123.79828 z "
     id="path2860"
     sodipodi:nodetypes="ccsscs" />
  <path
     style="fill:#fe0;fill-opacity:1;fill-rule:evenodd;stroke:black;stroke-width:0.99999952px;stroke-linecap:butt;stroke-linejoin:miter;stroke-opacity:1"
     d="M 54.683584,131.24995 C 55.472029,132.61296 54.363625,134.05706 54.723098,137.06393 C 52.465743,136.15725 50.989248,135.95584 50.100689,135.42933 C 49.324641,134.96948 48.512333,133.78005 48.624447,132.89259 C 48.713705,132.18605 49.456584,131.05359 51.030781,131.51559 C 51.972273,128.76199 53.810873,129.74127 54.683584,131.24995 z "
     id="path2862"
     sodipodi:nodetypes="ccsscs" />
  <path
     style="fill:#fe0;fill-opacity:1;fill-rule:evenodd;stroke:black;stroke-width:0.99999952px;stroke-linecap:butt;stroke-linejoin:miter;stroke-opacity:1"
     d="M 59.152387,137.07692 C 60.447257,137.97289 60.061438,139.75197 61.670175,142.3176 C 59.241791,142.46138 57.820622,142.90958 56.792331,142.8128 C 55.894241,142.72826 54.651895,141.99945 54.374412,141.14907 C 54.153497,140.47204 54.341817,139.13082 55.962586,138.87656 C 55.638427,135.98457 57.719127,136.0852 59.152387,137.07692 z "
     id="path2864"
     sodipodi:nodetypes="ccsscs" />
  <path
     style="fill:#fe0;fill-opacity:1;fill-rule:evenodd;stroke:black;stroke-width:0.99999958px;stroke-linecap:butt;stroke-linejoin:miter;stroke-opacity:1"
     d="M 44.759722,150.21769 C 46.374289,151.89335 45.354549,154.3974 46.978079,158.61132 C 43.469909,158.14631 41.320964,158.40854 39.876949,157.98019 C 38.61578,157.60608 37.032264,156.19039 36.859607,154.86489 C 36.722144,153.80958 37.344375,151.89326 39.727495,151.97127 C 40.025633,147.63593 42.972592,148.36293 44.759722,150.21769 z "
     id="path2870"
     sodipodi:nodetypes="ccsscs"
     inkscape:transform-center-y="-6.1371348"
     inkscape:transform-center-x="-3.3553504" />
  <path
     style="fill:#fe0;fill-opacity:1;fill-rule:evenodd;stroke:black;stroke-width:1.00000012px;stroke-linecap:butt;stroke-linejoin:miter;stroke-opacity:1"
     d="M 51.083992,160.59901 C 51.771903,162.82195 49.734501,164.59936 49.288302,169.09312 C 46.364569,167.09931 44.327463,166.36656 43.230623,165.33427 C 42.272672,164.43269 41.495518,162.45589 41.937744,161.19447 C 42.28983,160.19018 43.70778,158.75878 45.800922,159.90076 C 48.017902,156.16323 50.322559,158.13849 51.083992,160.59901 z "
     id="path2872"
     sodipodi:nodetypes="ccsscs"
     inkscape:transform-center-y="-2.9275895"
     inkscape:transform-center-x="-5.2974193" />
  <path
     style="fill:#fe0;fill-opacity:1;fill-rule:evenodd;stroke:black;stroke-width:0.99999988px;stroke-linecap:butt;stroke-linejoin:miter;stroke-opacity:1"
     d="M 54.109479,170.74645 C 54.535422,173.03408 52.305955,174.56367 51.342525,178.97556 C 48.66927,176.65668 46.730691,175.69302 45.760729,174.54071 C 44.913591,173.53429 44.370512,171.48082 44.955796,170.27907 C 45.421778,169.32229 46.995902,168.06467 48.942766,169.44128 C 51.577523,165.98554 53.638013,168.21433 54.109479,170.74645 z "
     id="path2874"
     sodipodi:nodetypes="ccsscs"
     inkscape:transform-center-y="-2.0315918"
     inkscape:transform-center-x="-5.7945447" />
  <path
     style="fill:#fe0;fill-opacity:1;fill-rule:evenodd;stroke:black;stroke-width:1.00000012px;stroke-linecap:butt;stroke-linejoin:miter;stroke-opacity:1"
     d="M 54.627963,181.35774 C 54.711029,183.46714 52.863964,184.56517 51.673488,188.41158 C 49.893098,185.99486 48.526917,184.88772 47.913441,183.73132 C 47.37765,182.72135 47.181456,180.80789 47.750041,179.80028 C 48.202727,178.99807 49.525435,178.0631 50.854696,179.54251 C 53.209904,176.7633 54.536021,179.02289 54.627963,181.35774 z "
     id="path2876"
     sodipodi:nodetypes="ccsscs"
     inkscape:transform-center-y="-0.86374008"
     inkscape:transform-center-x="-4.792727" />
  <path
     style="fill:#fe0;fill-opacity:1;fill-rule:evenodd;stroke:black;stroke-width:0.99999976px;stroke-linecap:butt;stroke-linejoin:miter;stroke-opacity:1"
     d="M 55.259736,190.15597 C 55.340449,192.13505 53.545684,193.16525 52.388915,196.77405 C 50.658937,194.50662 49.331439,193.46788 48.735334,192.38291 C 48.214713,191.43534 48.024075,189.64008 48.576561,188.69472 C 49.016429,187.94207 50.301684,187.06485 51.593308,188.45287 C 53.881828,185.84535 55.170397,187.96535 55.259736,190.15597 z "
     id="path2880"
     sodipodi:nodetypes="ccsscs"
     inkscape:transform-center-y="-0.81044308"
     inkscape:transform-center-x="-4.657008" />
  <path
     style="fill:#fe0;fill-opacity:1;fill-rule:evenodd;stroke:black;stroke-width:1.00000024px;stroke-linecap:butt;stroke-linejoin:miter;stroke-opacity:1"
     d="M 53.873896,200.01831 C 53.513695,201.96601 51.535152,202.57253 49.606857,205.83493 C 48.422809,203.2403 47.358731,201.93302 47.018085,200.74287 C 46.720573,199.70344 46.93282,197.9106 47.681203,197.11131 C 48.277035,196.47495 49.724828,195.90461 50.676466,197.54451 C 53.486274,195.50945 54.2726,197.86243 53.873896,200.01831 z "
     id="path2882"
     sodipodi:nodetypes="ccsscs"
     inkscape:transform-center-y="0.34692822"
     inkscape:transform-center-x="-5.1068446" />
  <path
     style="fill:#fe0;fill-opacity:1;fill-rule:evenodd;stroke:black;stroke-width:1.00000048px;stroke-linecap:butt;stroke-linejoin:miter;stroke-opacity:1"
     d="M 51.520487,208.55069 C 50.947437,210.17907 49.190844,210.42388 47.110645,212.96523 C 46.467107,210.56215 45.747559,209.28568 45.623574,208.21185 C 45.515287,207.27401 45.941886,205.75833 46.68487,205.17448 C 47.276402,204.70964 48.579223,204.42144 49.157847,205.96884 C 51.814243,204.60939 52.154791,206.74826 51.520487,208.55069 z "
     id="path2884"
     sodipodi:nodetypes="ccsscs"
     inkscape:transform-center-y="0.85621374"
     inkscape:transform-center-x="-4.5190114" />
  <path
     style="fill:#fe0;fill-opacity:1;fill-rule:evenodd;stroke:black;stroke-width:0.99999988px;stroke-linecap:butt;stroke-linejoin:miter;stroke-opacity:1"
     d="M 47.728973,215.72486 C 46.954119,216.8989 45.558563,216.77239 43.441259,218.38956 C 43.444447,216.38685 43.156922,215.25453 43.283604,214.38928 C 43.394238,213.6336 44.033695,212.52145 44.723097,212.198 C 45.271971,211.94049 46.329026,211.95063 46.45273,213.27002 C 48.76731,212.68495 48.586647,214.42534 47.728973,215.72486 z "
     id="path2886"
     sodipodi:nodetypes="ccsscs"
     inkscape:transform-center-y="1.244575"
     inkscape:transform-center-x="-3.5662558" />
  <path
     style="fill:#fe0;fill-opacity:1;fill-rule:evenodd;stroke:black;stroke-width:1.00000024px;stroke-linecap:butt;stroke-linejoin:miter;stroke-opacity:1"
     d="M 44.343034,220.81421 C 43.547226,221.70821 42.335754,221.45726 40.31867,222.57892 C 40.519699,220.91607 40.379601,219.94567 40.576355,219.24035 C 40.748186,218.62436 41.419116,217.7676 42.055782,217.57106 C 42.562669,217.41458 43.488772,217.53351 43.466672,218.64214 C 45.554622,218.39822 45.2239,219.82466 44.343034,220.81421 z "
     id="path2888"
     sodipodi:nodetypes="ccsscs"
     inkscape:transform-center-y="1.2556935"
     inkscape:transform-center-x="-2.9912843" />
  <path
     style="fill:red;fill-opacity:1;fill-rule:evenodd;stroke:black;stroke-width:0.99999934px;stroke-linecap:butt;stroke-linejoin:miter;stroke-opacity:1"
     d="M 104.73596,149.8432 C 104.60088,151.41925 102.64453,152.03646 101.05933,154.76605 C 99.532687,152.77925 98.283986,151.80988 97.79139,150.88483 C 97.361164,150.0769 97.363117,148.63426 98.034541,147.9468 C 98.569086,147.39949 99.985405,146.84707 101.15878,148.08904 C 103.79584,146.27747 104.88548,148.0987 104.73596,149.8432 z "
     id="path2892"
     sodipodi:nodetypes="ccsscs"
     inkscape:transform-center-x="4.319997"
     inkscape:transform-center-y="0.62254762" />
  <path
     style="fill:red;fill-opacity:1;fill-rule:evenodd;stroke:black;stroke-width:0.99999934px;stroke-linecap:butt;stroke-linejoin:miter;stroke-opacity:1"
     d="M 104.73596,156.01681 C 104.60088,157.59286 102.64453,158.21007 101.05933,160.93966 C 99.532692,158.95286 98.283991,157.98349 97.791395,157.05844 C 97.361169,156.25051 97.363122,154.80787 98.034546,154.12041 C 98.569091,153.5731 99.98541,153.02068 101.15878,154.26265 C 103.79584,152.45108 104.88548,154.27231 104.73596,156.01681 z "
     id="path2894"
     sodipodi:nodetypes="ccsscs"
     inkscape:transform-center-x="4.319997"
     inkscape:transform-center-y="0.62254762" />
</svg>
