<?xml version="1.0" encoding="UTF-8" standalone="no"?>
<!-- Created with Sodipodi ("http://www.sodipodi.com/") -->
<svg
   xmlns:dc="http://purl.org/dc/elements/1.1/"
   xmlns:cc="http://web.resource.org/cc/"
   xmlns:rdf="http://www.w3.org/1999/02/22-rdf-syntax-ns#"
   xmlns:svg="http://www.w3.org/2000/svg"
   xmlns="http://www.w3.org/2000/svg"
   xmlns:xlink="http://www.w3.org/1999/xlink"
   xmlns:sodipodi="http://sodipodi.sourceforge.net/DTD/sodipodi-0.dtd"
   xmlns:inkscape="http://www.inkscape.org/namespaces/inkscape"
   viewBox="0 0 206 315"
   id="svg548"
   sodipodi:version="0.32"
   width="58mm"
   height="89mm"
   sodipodi:docname="king-of-spears.svg"
   sodipodi:docbase="/home/mikelima/kde4/share/apps/carddecks/svg-tigullio"
   inkscape:version="0.44.1">
  <metadata
     id="metadata52">
    <rdf:RDF>
      <cc:Work
         rdf:about="">
        <dc:format>image/svg+xml</dc:format>
        <dc:type
           rdf:resource="http://purl.org/dc/dcmitype/StillImage" />
      </cc:Work>
    </rdf:RDF>
  </metadata>
  <defs
     id="defs550" />
  <sodipodi:namedview
     id="base"
     showgrid="true"
     showguides="false"
     inkscape:zoom="2.3973032"
     inkscape:cx="34.78761"
     inkscape:cy="100.06163"
     inkscape:window-width="1019"
     inkscape:window-height="1103"
     inkscape:window-x="0"
     inkscape:window-y="37"
     inkscape:current-layer="svg548" />
  <path
     style="fill:none;fill-rule:evenodd;stroke:black;stroke-opacity:1;stroke-width:0.875;stroke-linejoin:miter;stroke-linecap:round;fill-opacity:1;stroke-dasharray:none;"
     d=""
     id="path734"
     sodipodi:nodetypes="c" />
  <g
     id="g2098">
    <path
       sodipodi:nodetypes="ccscscc"
       id="path26262"
       d="M 147.24878,91.561213 L 138.28038,88.432698 C 138.28038,88.432698 95.888994,96.786192 74.458663,111.80306 C 53.028333,126.81994 52.559057,148.50019 52.559057,148.50019 C 52.559057,148.50019 57.564681,151.83727 58.398952,157.05147 C 59.233223,162.26566 52.863704,228.38161 49.582865,240.68711 L 147.24878,91.561213 z "
       style="fill:red;fill-opacity:1;fill-rule:evenodd;stroke:black;stroke-width:1pt;stroke-linecap:butt;stroke-linejoin:miter;stroke-opacity:1;opacity:1;color:black;marker:none;marker-start:none;marker-mid:none;marker-end:none;stroke-miterlimit:4;stroke-dasharray:none;stroke-dashoffset:0;visibility:visible;display:inline;overflow:visible" />
    <path
       sodipodi:nodetypes="ccccc"
       id="path25373"
       d="M 128.26913,82.801371 L 86.972725,90.35434 L 88.984662,181.01145 L 113.46082,143.07743 L 128.26913,82.801371 z "
       style="fill:#fe0;fill-opacity:1;fill-rule:evenodd;stroke:black;stroke-width:1pt;stroke-linecap:butt;stroke-linejoin:miter;stroke-opacity:1;opacity:1;color:black;marker:none;marker-start:none;marker-mid:none;marker-end:none;stroke-miterlimit:4;stroke-dasharray:none;stroke-dashoffset:0;visibility:visible;display:inline;overflow:visible" />
    <g
       id="g26278">
      <path
         style="opacity:0.9;color:black;fill:green;fill-opacity:1;fill-rule:evenodd;stroke:black;stroke-width:1pt;stroke-linecap:butt;stroke-linejoin:miter;marker:none;marker-start:none;marker-mid:none;marker-end:none;stroke-miterlimit:4;stroke-dasharray:none;stroke-dashoffset:0;stroke-opacity:1;visibility:visible;display:inline;overflow:visible"
         d="M 111.32732,144.73043 C 108.68863,147.16617 107.53594,148.29331 100.32732,148.73043 C 93.014416,149.16755 88.223032,145.74904 88.223032,145.74904 C 88.223032,145.74904 88.047999,153.5393 88.805897,162.41457 C 92.692309,163.57283 94.888324,164.16706 100.1061,163.80417 L 111.4748,146.39806 L 111.32732,144.73043 z "
         id="path26266"
         sodipodi:nodetypes="czccccc" />
      <path
         style="opacity:1;color:black;fill:none;fill-opacity:1;fill-rule:evenodd;stroke:black;stroke-width:0.875;stroke-linecap:round;stroke-linejoin:miter;marker:none;marker-start:none;marker-mid:none;marker-end:none;stroke-miterlimit:4;stroke-dasharray:none;stroke-dashoffset:0;stroke-opacity:1;visibility:visible;display:inline;overflow:visible"
         d="M 101.65429,160.93932 C 97.608175,162.16054 92.991373,161.58454 89.710454,160.12818"
         id="path26268"
         sodipodi:nodetypes="cc" />
      <path
         style="opacity:1;color:black;fill:none;fill-opacity:1;fill-rule:evenodd;stroke:black;stroke-width:0.875;stroke-linecap:round;stroke-linejoin:miter;marker:none;marker-start:none;marker-mid:none;marker-end:none;stroke-miterlimit:4;stroke-dasharray:none;stroke-dashoffset:0;stroke-opacity:1;visibility:visible;display:inline;overflow:visible"
         d="M 109.46072,149.43216 C 106.37322,151.02208 102.53519,151.56051 99.091247,151.66479 C 95.6473,151.76907 91.513544,150.59867 88.963063,149.65338"
         id="path26270"
         sodipodi:nodetypes="css" />
    </g>
    <path
       sodipodi:nodetypes="csccc"
       id="path25371"
       d="M 60.901764,94.102934 C 60.901764,94.102934 52.559057,94.272593 52.141921,98.652515 C 51.724786,103.03244 55,109.28947 55,109.28947 L 66.533091,95.524 L 60.901764,94.102934 z "
       style="fill:#0080ff;fill-opacity:1;fill-rule:evenodd;stroke:black;stroke-width:1px;stroke-linecap:butt;stroke-linejoin:miter;stroke-opacity:1;opacity:1;color:black;marker:none;marker-start:none;marker-mid:none;marker-end:none;stroke-miterlimit:4;stroke-dasharray:none;stroke-dashoffset:0;visibility:visible;display:inline;overflow:visible" />
    <path
       sodipodi:nodetypes="csscs"
       id="path1947"
       d="M 65.645826,135.75743 C 69.356697,136.12329 71.727499,138.68252 72.544909,141.19307 C 73.974719,145.58453 72.479247,153.43435 66.482078,155.17165 C 61.834624,156.51796 58.119552,152.27342 58.119552,152.27342 C 58.119552,152.27342 60.790418,135.27872 65.645826,135.75743 z "
       style="fill:#fe0;fill-opacity:1;fill-rule:evenodd;stroke:black;stroke-width:1pt;stroke-linecap:butt;stroke-linejoin:miter;stroke-opacity:1;opacity:1;color:black;marker:none;marker-start:none;marker-mid:none;marker-end:none;stroke-miterlimit:4;stroke-dasharray:none;stroke-dashoffset:0;visibility:visible;display:inline;overflow:visible" />
    <path
       sodipodi:nodetypes="csscs"
       id="path1950"
       d="M 63.797665,138.2645 C 66.677044,138.50993 68.516623,140.2267 69.150877,141.91081 C 70.260311,144.85668 69.099928,150.12245 64.446538,151.28787 C 60.840435,152.191 57.957795,149.34369 57.957795,149.34369 C 57.957795,149.34369 60.030203,137.94338 63.797665,138.2645 z "
       style="opacity:1;color:black;fill:none;fill-opacity:1;fill-rule:evenodd;stroke:black;stroke-width:0.87500006;stroke-linecap:round;stroke-linejoin:miter;marker:none;marker-start:none;marker-mid:none;marker-end:none;stroke-miterlimit:4;stroke-dasharray:none;stroke-dashoffset:0;stroke-opacity:1;visibility:visible;display:inline;overflow:visible" />
    <g
       style="opacity:0.97584541"
       id="g26371">
      <path
         style="opacity:1;color:black;fill:green;fill-opacity:1;fill-rule:evenodd;stroke:black;stroke-width:1pt;stroke-linecap:butt;stroke-linejoin:miter;marker:none;marker-start:none;marker-mid:none;marker-end:none;stroke-miterlimit:4;stroke-dasharray:none;stroke-dashoffset:0;stroke-opacity:1;visibility:visible;display:inline;overflow:visible"
         d="M 121.59698,96.033667 C 121.59698,96.033667 115.71928,105.06317 102.37095,105.4803 C 89.022616,105.89744 86.369656,95.309779 84.973439,93.459285 C 79.335002,94.010915 61.944602,98.235379 61.944602,98.235379 C 61.944602,98.235379 58.398955,101.9896 56.313275,104.90955 C 53.764614,108.47767 51.155327,116.26116 51.724786,127.01772 C 51.983935,131.91282 43.590646,134.10902 43.590646,134.10902 L 56.521843,153.29725 C 56.521843,153.29725 62.592057,150.33669 64.582865,138.90608 C 66.107541,130.15185 69.755748,124.52167 73.207258,122.01209 C 73.207258,122.01209 84.988896,114.04866 85.573838,114.99236 C 88.567999,119.82289 95.765201,122.63345 99.595516,122.70719 C 103.67005,122.78563 111.92749,121.24044 117.03178,114.93127 C 122.13606,108.6221 121.59698,96.033667 121.59698,96.033667 z "
         id="path26260"
         sodipodi:nodetypes="ccccssccscsssc" />
      <path
         style="opacity:1;color:black;fill:none;fill-opacity:1;fill-rule:evenodd;stroke:black;stroke-width:0.87500012;stroke-linecap:round;stroke-linejoin:miter;marker:none;marker-start:none;marker-mid:none;marker-end:none;stroke-miterlimit:4;stroke-dasharray:none;stroke-dashoffset:0;stroke-opacity:1;visibility:visible;display:inline;overflow:visible"
         d="M 119.27678,102.45158 C 113.71121,106.65555 108.11628,108.76495 102.41821,108.7346 C 93.592539,108.6876 89.015057,103.86484 87.128234,102.44571"
         id="path26276"
         sodipodi:nodetypes="css" />
      <path
         style="opacity:1;color:black;fill:none;fill-opacity:1;fill-rule:evenodd;stroke:black;stroke-width:0.875;stroke-linecap:round;stroke-linejoin:miter;marker:none;marker-start:none;marker-mid:none;marker-end:none;stroke-miterlimit:4;stroke-dasharray:none;stroke-dashoffset:0;stroke-opacity:1;visibility:visible;display:inline;overflow:visible"
         d="M 117.08396,110.79184 C 113.84899,114.00404 107.73116,118.74523 100.00941,118.55496 C 95.042388,118.43257 89.087492,114.16365 87.66379,111.89794"
         id="path26274"
         sodipodi:nodetypes="css" />
      <path
         style="opacity:1;color:black;fill:none;fill-opacity:1;fill-rule:evenodd;stroke:black;stroke-width:0.875;stroke-linecap:round;stroke-linejoin:miter;marker:none;marker-start:none;marker-mid:none;marker-end:none;stroke-miterlimit:4;stroke-dasharray:none;stroke-dashoffset:0;stroke-opacity:1;visibility:visible;display:inline;overflow:visible"
         d="M 71.822577,117.2892 C 65.923393,121.41863 64.346655,126.25989 62.088922,134.83927 C 60.982825,139.04244 58.549411,148.4074 55.157379,149.8822"
         id="path26283"
         sodipodi:nodetypes="csc" />
      <path
         style="opacity:1;color:black;fill:none;fill-opacity:1;fill-rule:evenodd;stroke:black;stroke-width:0.875;stroke-linecap:round;stroke-linejoin:miter;marker:none;marker-start:none;marker-mid:none;marker-end:none;stroke-miterlimit:4;stroke-dasharray:none;stroke-dashoffset:0;stroke-opacity:1;visibility:visible;display:inline;overflow:visible"
         d="M 54.115122,108.73539 C 54.115122,108.73539 58.401931,107.55555 62.383881,110.94758 C 66.365831,114.33961 68.135587,120.35434 68.135587,120.35434"
         id="path26285"
         sodipodi:nodetypes="csc" />
      <path
         style="opacity:1;color:black;fill:none;fill-opacity:1;fill-rule:evenodd;stroke:black;stroke-width:0.875;stroke-linecap:round;stroke-linejoin:miter;marker:none;marker-start:none;marker-mid:none;marker-end:none;stroke-miterlimit:4;stroke-dasharray:none;stroke-dashoffset:0;stroke-opacity:1;visibility:visible;display:inline;overflow:visible"
         d="M 53.161454,112.65973 C 53.161454,112.65973 55.973467,111.18493 59.955417,114.57696 C 63.937367,117.96899 65.707123,123.98372 65.707123,123.98372"
         id="path26287"
         sodipodi:nodetypes="csc" />
      <path
         style="opacity:1;color:black;fill:none;fill-opacity:1;fill-rule:evenodd;stroke:black;stroke-width:0.875;stroke-linecap:round;stroke-linejoin:miter;marker:none;marker-start:none;marker-mid:none;marker-end:none;stroke-miterlimit:4;stroke-dasharray:none;stroke-dashoffset:0;stroke-opacity:1;visibility:visible;display:inline;overflow:visible"
         d="M 50.94926,129.91485 C 50.94926,129.91485 53.171354,128.29257 57.153304,131.6846 C 61.135254,135.07663 61.135255,139.02665 61.135255,139.02665"
         id="path26289"
         sodipodi:nodetypes="csc" />
      <path
         style="opacity:1;color:black;fill:none;fill-opacity:1;fill-rule:evenodd;stroke:black;stroke-width:0.875;stroke-linecap:round;stroke-linejoin:miter;marker:none;marker-start:none;marker-mid:none;marker-end:none;stroke-miterlimit:4;stroke-dasharray:none;stroke-dashoffset:0;stroke-opacity:1;visibility:visible;display:inline;overflow:visible"
         d="M 46.426913,132.86444 C 46.426913,132.86444 49.828844,131.83208 53.810794,135.22411 C 57.792744,138.61614 58.825102,143.89347 58.825102,143.89347"
         id="path26291"
         sodipodi:nodetypes="csc" />
      <path
         style="opacity:1;color:black;fill:none;fill-opacity:1;fill-rule:evenodd;stroke:black;stroke-width:0.875;stroke-linecap:round;stroke-linejoin:miter;marker:none;marker-start:none;marker-mid:none;marker-end:none;stroke-miterlimit:4;stroke-dasharray:none;stroke-dashoffset:0;stroke-opacity:1;visibility:visible;display:inline;overflow:visible"
         d="M 59.650358,114.92079 C 59.650358,114.92079 57.668965,116.06792 55.166153,118.1536 C 52.872063,120.06534 52.454773,122.06541 53.810463,123.05493 C 55.601276,124.36205 56.730411,123.47207 56.730411,123.47207 C 56.730411,123.47207 54.644734,126.60058 53.289043,127.852 C 55.855039,127.54585 57.251829,129.39486 58.398951,130.77194 C 57.773249,127.53914 57.543589,126.08384 57.668965,124.09777 C 58.816088,124.41063 60.0243,127.00872 61.631751,125.14061 C 63.561002,122.8985 59.650358,114.92079 59.650358,114.92079 z "
         id="path26293"
         sodipodi:nodetypes="cssccccsc" />
      <path
         style="opacity:1;color:black;fill:none;fill-opacity:1;fill-rule:evenodd;stroke:black;stroke-width:0.875;stroke-linecap:round;stroke-linejoin:miter;marker:none;marker-start:none;marker-mid:none;marker-end:none;stroke-miterlimit:4;stroke-dasharray:none;stroke-dashoffset:0;stroke-opacity:1;visibility:visible;display:inline;overflow:visible"
         d="M 100.63544,111.23895 C 99.512954,111.15595 98.398184,112.18764 98.289056,113.61544 C 98.183893,114.99141 98.672364,116.40856 99.801174,116.53539 C 100.93693,116.66301 102.1997,115.85755 102.35612,114.24115 C 102.51755,112.57309 101.70606,111.31811 100.63544,111.23895 z "
         id="path26299"
         sodipodi:nodetypes="czzzz" />
      <path
         style="opacity:1;color:black;fill:none;fill-opacity:1;fill-rule:evenodd;stroke:black;stroke-width:0.87499982;stroke-linecap:round;stroke-linejoin:miter;marker:none;marker-start:none;marker-mid:none;marker-end:none;stroke-miterlimit:4;stroke-dasharray:none;stroke-dashoffset:0;stroke-opacity:1;visibility:visible;display:inline;overflow:visible"
         d="M 93.669528,109.62143 C 92.713558,109.55685 91.764162,110.3595 91.671226,111.4703 C 91.581664,112.54079 91.997674,113.64331 92.959021,113.74198 C 93.926292,113.84127 95.001732,113.21463 95.134947,111.9571 C 95.272429,110.65937 94.581323,109.68301 93.669528,109.62143 z "
         id="path26301"
         sodipodi:nodetypes="czzzz" />
      <path
         style="opacity:1;color:black;fill:none;fill-opacity:1;fill-rule:evenodd;stroke:black;stroke-width:0.87499988;stroke-linecap:round;stroke-linejoin:miter;marker:none;marker-start:none;marker-mid:none;marker-end:none;stroke-miterlimit:4;stroke-dasharray:none;stroke-dashoffset:0;stroke-opacity:1;visibility:visible;display:inline;overflow:visible"
         d="M 108.00914,109.76926 C 107.00773,109.69777 106.01321,110.58631 105.91586,111.81599 C 105.82204,113.00103 106.25783,114.22154 107.26486,114.33077 C 108.2781,114.44068 109.40466,113.74699 109.5442,112.35488 C 109.68822,110.91827 108.96427,109.83743 108.00914,109.76926 z "
         id="path26303"
         sodipodi:nodetypes="czzzz" />
      <path
         style="opacity:1;color:black;fill:none;fill-opacity:1;fill-rule:evenodd;stroke:black;stroke-width:0.87500006;stroke-linecap:round;stroke-linejoin:miter;marker:none;marker-start:none;marker-mid:none;marker-end:none;stroke-miterlimit:4;stroke-dasharray:none;stroke-dashoffset:0;stroke-opacity:1;visibility:visible;display:inline;overflow:visible"
         d="M 113.85736,107.85078 C 113.02247,107.80233 112.19332,108.40456 112.11217,109.23799 C 112.03395,110.04118 112.39727,110.8684 113.23684,110.94244 C 114.0816,111.01693 115.02082,110.54676 115.13716,109.60324 C 115.25723,108.62955 114.65366,107.89699 113.85736,107.85078 z "
         id="path26305"
         sodipodi:nodetypes="czzzz" />
      <path
         style="opacity:1;color:black;fill:none;fill-opacity:1;fill-rule:evenodd;stroke:black;stroke-width:0.87500006;stroke-linecap:round;stroke-linejoin:miter;marker:none;marker-start:none;marker-mid:none;marker-end:none;stroke-miterlimit:4;stroke-dasharray:none;stroke-dashoffset:0;stroke-opacity:1;visibility:visible;display:inline;overflow:visible"
         d="M 89.012983,106.81752 C 88.178093,106.76907 87.348943,107.3713 87.267793,108.20473 C 87.189573,109.00792 87.552893,109.83514 88.392463,109.90918 C 89.237223,109.98367 90.176443,109.5135 90.292783,108.56998 C 90.412853,107.59629 89.809283,106.86373 89.012983,106.81752 z "
         id="path26307"
         sodipodi:nodetypes="czzzz" />
    </g>
    <path
       style="fill:#0080ff;fill-opacity:1;fill-rule:evenodd;stroke:black;stroke-width:1px;stroke-linecap:butt;stroke-linejoin:miter;stroke-opacity:1"
       d="M 55.231119,95.38848 C 58.918111,91.25905 102.20338,73.340276 102.20338,73.340276 C 102.20338,73.340276 132.24583,77.505179 145.70987,89.563034 C 139.38072,96.084346 129.40787,110.53794 125.80013,124.36822 L 110.14748,148.70236 C 112.10158,129.34566 113.55931,116.77856 120.04842,100.03409 C 126.53752,83.289625 125.80012,85.35434 125.80012,85.35434 L 90.847449,84.843686 C 90.847449,84.843686 86.865499,99.739128 87.307938,112.71733 C 87.750377,125.69554 90.11005,179.5256 90.11005,179.5256 L 83.915907,189.11178 C 83.915907,189.11178 80.242699,149.44534 74.705041,127.17034 C 69.315424,105.49083 62.015183,94.208642 55.231119,95.38848 z "
       id="path8897"
       sodipodi:nodetypes="cccccsccsccsc" />
    <path
       sodipodi:nodetypes="cccccsccsccsc"
       id="path8895"
       d="M 60.413868,92.575887 C 64.10086,88.446457 102.20338,73.340276 102.20338,73.340276 C 102.20338,73.340276 129.05188,76.411734 142.51592,88.469589 C 133.15512,95.28586 124.02703,116.397 121.30416,130.37476 L 112.70307,144.8068 C 114.21474,130.02197 118.08719,110.64931 122.00144,100.77149 C 124.43955,94.61879 129.26373,86.595266 129.26373,86.595266 L 88.416206,84.965862 C 88.416206,84.965862 84.592216,100.03409 85.034655,113.01229 C 85.477094,125.9905 88.045336,180.70544 88.045336,180.70544 L 86.102797,185.4754 C 86.102797,185.4754 83.889563,148.64685 78.351905,126.37185 C 72.962288,104.69234 67.050452,92.575886 60.413868,92.575887 z "
       style="fill:black;fill-opacity:1;fill-rule:evenodd;stroke:black;stroke-width:1px;stroke-linecap:butt;stroke-linejoin:miter;stroke-opacity:1" />
    <g
       style="opacity:1"
       mask="none"
       id="g3883">
      <path
         style="fill:#ffffff;fill-rule:evenodd;stroke:black;stroke-opacity:1;stroke-width:1pt;stroke-linejoin:miter;stroke-linecap:butt;fill-opacity:1"
         d="M 87.03641,79.18739 C 87.03641,79.90694 86.48546,81.84914 86.25153,82.32225 C 85.80299,83.22939 82.80502,84.3765 82.31556,85.82582 C 83.09811,86.08757 86.09677,85.48222 87.89663,83.80399 C 88.36865,83.45171 86.33572,85.39768 85.3129,86.56456 C 84.54108,87.39185 83.11449,87.92272 81.28094,87.37634 C 77.12801,86.39486 79.88748,89.87234 83.3299,90.05955 C 86.6513,90.24492 89.4511,89.14697 89.25967,88.38577 C 89.60175,87.21703 88.23547,89.91811 87.51485,90.46922 C 85.92865,91.58796 84.42348,90.43415 84.34456,94.44843 C 84.30333,96.54607 85.98808,97.06316 86.17826,95.26657 C 89.49802,90.44361 92.98559,95.2306 93.12944,89.31309 C 93.2084,87.88759 93.36866,91.05787 93.29758,91.49246 C 92.69682,94.42766 88.53776,93.04243 88.34442,95.01409 C 87.99596,97.85272 91.21296,99.71578 91.22056,97.85408 C 91.23882,93.38407 92.60164,97.61179 94.87617,94.16093 C 95.50508,93.20676 95.81089,90.25272 96.35766,90.31677 C 96.67628,90.40098 96.58031,90.58557 96.22277,92.67557 C 95.86523,94.76556 93.67015,96.02129 93.34763,97.10085 C 92.69855,98.98159 93.97855,100.0655 94.78188,100.0331 C 95.34198,100.0105 95.1116,98.30877 96.70909,97.08246 C 98.53802,95.75117 100.0873,92.99118 100.0908,91.45227 C 100.0967,88.87554 99.90816,95.22588 99.91296,95.25243 C 100.1561,96.60047 100.8136,98.34852 102.2029,98.9882 C 103.5692,97.62665 102.9405,93.02601 103.4488,93.61755 C 103.7571,93.09284 103.3389,96.51315 106.2759,98.59228 C 110.2388,99.47752 109.8918,99.72702 108.4176,97.26543 C 107.3403,95.46655 106.2047,91.66317 107.0787,91.84658 C 107.2128,93.3432 107.5427,95.54352 108.7663,97.21231 C 109.546,98.19172 111.4008,98.82462 113.5809,99.50693 C 114.8623,94.75845 111.1905,94.93162 112.1737,92.25439 C 113.1292,92.69344 113.3237,94.38654 114.8693,95.97404 C 115.64,96.7806 116.6907,97.21582 118.0573,98.14716 C 118.9878,95.32838 114.9007,90.46959 115.8325,90.30945 C 116.4737,93.4398 118.5255,91.84183 119.6192,94.75668 C 120.5457,94.43199 122.4149,92.58751 120.3646,90.4241 C 118.8097,88.7981 117.5128,85.87099 118.3747,87.0865 C 119.6745,89.00673 121.9882,88.80882 123.5489,92.09081 C 124.8942,92.00334 124.4706,90.00614 124.2483,89.31065 C 123.5411,87.80338 122.4571,85.49576 122.1251,85.0406 C 123.6196,85.78304 124.4162,87.38049 126.3385,88.36868 C 127.6567,84.58385 122.54316,82.503572 123.40836,82.922042 C 124.68176,84.485982 127.3267,84.68727 128.0996,86.61301 C 129.0387,89.04024 130.6035,87.55249 127.6934,82.81036 C 126.5657,81.6798 126.8069,78.88474 126.8335,78.86987 C 127.7225,72.96677 126.1637,71.8742 126.256,70.57926 C 126.267,68.94154 123.2536,68.05466 122.99,67.47976 C 119.7397,60.39083 119.0209,53.96999 112.8855,48.28033 C 107.1949,43.00323 106.6096,42.52632 99.06316,41.79976 C 93.38047,41.25263 90.86637,41.58907 87.35607,46.39874 C 84.16653,50.76893 88.3693,61.01654 89.60198,65.50176 C 90.72591,69.59126 90.62028,72.8961 89.59634,76.94965 C 89.53529,77.19131 88.84176,79.84692 88.05335,79.36185 C 88.04681,79.35783 88.06848,79.35772 87.03641,79.18739 z "
         id="path832"
         sodipodi:nodetypes="ccccscscsccccscccsscscccccscscccccccscccccsccccccccccc" />
      <path
         style="fill:#ffffff;fill-rule:evenodd;stroke:black;stroke-opacity:1;stroke-width:1.25;stroke-linejoin:miter;stroke-linecap:butt;fill-opacity:1;stroke-dasharray:none"
         d="M 86.51551 44.26697 C 84.88702 50.83714 79.90077 56.94639 78.98897 58.10486 C 77.3873 60.13983 76.15952 64.72771 78.32383 66.69903 C 79.54229 67.80885 82.05074 69.37023 82.67713 70.85503 C 82.84967 71.26404 82.22803 70.07478 82.1256 69.64285 C 81.77965 68.1839 83.19747 67.5959 84.41128 66.96899 C 88.00323 65.11383 90.72704 63.42918 89.83964 58.9912 C 89.27638 56.17428 87.29356 54.18434 86.13124 51.69382 C 85.95879 51.32427 86.81799 44.85949 86.51551 44.26697 z "
         id="path828"
         sodipodi:nodetypes="ccccccccc" />
      <path
         style="fill:#ffffff;fill-rule:evenodd;stroke:black;stroke-opacity:1;stroke-width:1pt;stroke-linejoin:miter;stroke-linecap:butt;fill-opacity:1"
         d="M 88.27364,58.09027 C 85.56419,59.63707 82.1273,60.89176 82.51039,64.02048 C 82.80045,65.85903 85.4589,66.76891 85.72144,69.74401 C 85.94029,72.22431 80.67226,71.44722 78.94374,71.44733 C 78.14116,71.44739 75.62973,71.21267 75.05985,71.7003 C 73.79586,72.79783 75.04834,74.40622 75.16577,74.67947 C 76.02092,76.66929 79.58987,78.15311 78.27527,79.2151 C 77.4743,79.81199 76.07623,79.41618 74.37888,79.41618 C 72.141653,79.41618 71.091981,80.843321 71.42828,82.14329 C 71.963449,84.211991 71.54858,84.5017 72.54262,86.26432 C 72.70422,86.55087 72.84352,87.86823 72.48581,88.02753 C 72.36161,88.08285 72.75744,88.0125 72.89341,88.01197 C 74.42795,88.00594 73.90935,87.60587 73.90705,86.26218 C 73.90616,85.74406 73.24094,83.48096 74.07638,83.01813 C 75.32683,82.26415 78.28306,83.31886 80.35267,83.32092 C 83.27858,83.32384 84.19708,83.80914 84.34258,80.53619 C 84.39491,79.35909 80.61487,77.27974 83.25424,77.3652 C 88.15056,77.52377 89.22115,76.8372 89.44164,71.93134 C 89.59599,68.49714 88.94341,64.92184 88.23902,61.56431 C 88.16471,61.21012 88.90901,58.49842 88.27364,58.09027 z "
         id="path829"
         sodipodi:nodetypes="csccscsssccccssccccc" />
      <path
         style="fill:#ffd0d0;fill-rule:evenodd;stroke:none;stroke-opacity:1;stroke-width:1pt;stroke-linejoin:miter;stroke-linecap:butt;fill-opacity:1;opacity:1"
         d="M 86.86223 43.77901 C 85.91618 45.79369 84.42957 51.36171 87.9427 57.58635 C 86.75836 60.51516 85.80005 63.42602 86.99371 66.91536 C 87.94621 69.69965 87.98867 72.62079 88.36594 75.63091 C 88.78091 78.94197 89.54128 72.1376 91.99254 74.85123 C 96.76675 73.24059 108.5442 74.6142 112.5289 77.16917 C 110.8835 74.38886 110.9507 72.76253 109.4756 70.78674 C 111.256 71.33581 112.7648 71.86483 114.0448 73.90984 C 114.6271 71.85593 114.4572 69.39941 113.8398 67.98917 C 118.1932 68.672 117.3025 70.31381 118.9719 71.74734 C 118.9844 67.42493 117.1966 62.37093 117.4886 61.95866 C 118.6566 60.30956 118.6902 60.64478 119.3924 59.10622 C 120.0946 57.56763 120.5062 56.1611 120.5117 55.04013 C 120.5288 51.57057 123.8392 49.32177 123.8396 45.85217 C 123.84 43.32481 118.7655 41.81353 116.8837 41.577 C 107.4441 40.39049 97.68463 40.23438 88.22809 41.2974 "
         id="nose"
         sodipodi:nodetypes="ccccccccccsscccc" />
      <path
         style="fill:#ffffff;fill-rule:evenodd;stroke:black;stroke-opacity:1;stroke-width:1pt;stroke-linejoin:miter;stroke-linecap:butt;fill-opacity:1"
         d="M 126.9413 51.17208 C 127.424 52.89692 127.2829 56.75392 131.9812 61.30732 C 134.0445 63.30542 136.6813 65.5768 136.8118 68.75215 C 136.8708 70.18793 136.1909 72.88305 135.248 73.94857 C 134.3403 74.97433 131.6974 77.4892 131.45 76.65639 C 130.7717 76.69044 133.0744 73.77794 133.2564 71.58731 C 133.3955 69.24427 133.0326 67.20951 131.0434 65.75079 C 129.5115 64.62738 128.3023 63.05384 126.9715 61.71444 C 126.5087 61.2487 125.6237 59.92188 125.6722 60.23888 C 125.4673 60.49311 131.0056 66.49536 131.0144 69.78853 C 131.0169 70.72266 130.9885 71.5728 130.8439 72.48718 C 130.571 74.21253 130.4241 76.60732 131.4141 78.09148 C 132.9686 80.42188 135.4971 81.0379 138.1499 81.45139 C 140.9462 81.88728 141.1669 82.05091 141.1716 84.80104 C 141.1748 86.6531 142.5497 85.70261 145.5773 86.17632 C 147.1162 86.45006 148.3256 89.02521 147.9629 88.94682 C 147.8177 89.11919 146.8352 88.55726 146.4214 88.55726 C 145.3174 88.55726 144.6718 89.14537 143.6562 89.57162 C 142.0293 90.21538 140.894 89.96815 140.1124 89.24089 C 139.6378 88.77552 140.0121 87.05251 139.3551 86.33245 C 137.8951 84.7324 136.7661 85.70518 134.7274 85.70558 C 133.4839 85.70583 131.0332 84.82637 130.0971 84.26884 C 128.2983 83.19752 126.7729 76.91702 126.7348 75.11818 C 126.6996 73.45959 125.7039 68.28539 123.5409 66.38067 C 122.5651 65.54943 118.16 61.36087 117.9355 56.3851 C 117.7924 53.32069 116.3786 49.95399 115.7351 46.75764 C 115.433 45.25749 115.0784 43.80362 115.0058 42.27188 C 115.0057 42.2695 115.9002 42.02061 116.7458 42.04824 C 118.6836 42.11159 123.6642 44.52 123.7581 44.57373 C 123.7123 44.54748 125.9229 47.67529 126.9413 51.17208 z "
         id="path826"
         sodipodi:nodetypes="cssscscccccsccscsssssssssccccs" />
      <path
         style="fill:#ffffff;fill-rule:evenodd;stroke:black;stroke-opacity:1;stroke-width:0.875;stroke-linejoin:miter;stroke-linecap:butt;fill-opacity:1;stroke-dasharray:none"
         d="M 113.9063 42.22916 C 115.0112 45.32837 115.5556 46.24413 116.1188 49.63932 C 117.2251 56.30814 115.6738 60.7408 120.7115 66.01919 C 123.5389 68.9817 126.8023 70.61638 125.84 75.33659 C 125.6742 76.14952 123.5735 76.88112 126.4704 76.35164 C 128.0077 76.07065 127.8143 73.8438 127.8134 72.40415 C 127.8108 68.21603 124.0818 67.07445 121.5749 64.21196 C 119.2455 61.55222 119.7447 53.07053 119.026 49.02756 C 118.6709 47.2254 117.9872 42.1343 117.2716 42.21251 "
         id="path825"
         sodipodi:nodetypes="cscccccsc" />
      <g
         id="crown">
        <g
           id="g781">
          <path
             style="font-size:12;fill:#ffee00;fill-rule:evenodd;stroke:#000000;stroke-width:1.0408;stroke-dasharray:none"
             d="M 110.8865 30.31554 C 112.5606 30.46004 116.1953 29.04690 117.6452 28.26641 C 117.2758 30.12120 117.4759 32.48828 117.5892 34.08285 L 110.8865 30.31554 z "
             id="path558"
             sodipodi:nodetypes="cccc"
             transform="matrix(1.085394,-0.596881,0.666574,0.962458,-39.87608,71.94124)" />
          <path
             style="font-size:12;fill:#ffee00;fill-rule:evenodd;stroke:#000000;stroke-width:1.0269;stroke-dasharray:none"
             d="M 126.0574 31.48874 C 127.8854 31.50152 129.9840 31.18529 131.4450 30.95720 C 131.3570 32.37800 131.0453 33.85112 131.2593 35.27932 C 130.1383 34.45683 127.8734 32.52262 126.0574 31.48874 z "
             id="path559"
             transform="matrix(1.163158,-0.522902,0.570756,1.017261,-54.2561,69.01579)"
             sodipodi:nodetypes="cccc" />
          <path
             style="font-size:12;fill:#ffee00;fill-rule:evenodd;stroke:#000000;stroke-width:1.0269;stroke-dasharray:none"
             d="M 109.3616 25.62088 C 109.0376 24.1254 110.163 22.62121 109.466 20.97621 C 110.64 22.39462 113.22 24.4747 115.83 26.27611 C 114.708 26.0018 110.1836 25.9698 109.3616 25.62088 z "
             id="path556"
             sodipodi:nodetypes="cccc"
             transform="matrix(1.163158,-0.522902,0.570756,1.017261,-54.42616,69.09225)" />
          <path
             style="font-size:12;fill:#ffee00;fill-rule:evenodd;stroke:#000000;stroke-width:1.0269;stroke-dasharray:none"
             d="M 114.161 25.9149 C 115.308 25.4164 117.039 24.8575 118.288 23.6733 C 118.587 25.393 119.281 26.6281 119.805 27.8242 C 117.785 27.0765 116.629 26.4383 114.161 25.9149 z "
             id="path557"
             sodipodi:nodetypes="cccc"
             transform="matrix(1.163158,-0.522902,0.570756,1.017261,-54.42616,69.09225)" />
          <path
             style="font-size:12;fill:#ffee00;fill-rule:evenodd;stroke:#000000;stroke-width:1.0269;stroke-dasharray:none"
             d="M 130.0764 34.35831 C 131.6474 35.0312 136.235 36.37931 138.105 36.6036 C 136.983 36.75309 135.3571 37.97602 134.4592 38.42472 C 133.4872 37.67701 131.1234 35.40491 130.0764 34.35831 z "
             id="path560"
             sodipodi:nodetypes="cccc"
             transform="matrix(1.163158,-0.522902,0.570756,1.017261,-54.42616,69.09225)" />
          <path
             style="font-size:12;fill:#ffee00;fill-rule:evenodd;stroke:#000000;stroke-width:1.0269;stroke-dasharray:none"
             d="M 109.691 21.5736 C 108.345 19.4799 106.0696 16.06543 102.6828 13.38131 C 104.3278 12.25971 109.2888 13.70925 111.649 15.3487 C 113.7939 16.70878 115.371 18.9706 114.401 20.6762 C 113.501 22.2606 111.037 22.3213 109.691 21.5736 z "
             id="path561"
             sodipodi:nodetypes="ccssc"
             transform="matrix(1.163158,-0.522902,0.570756,1.017261,-54.42616,69.09225)" />
          <path
             style="font-size:12;fill:#ffee00;fill-rule:evenodd;stroke:#000000;stroke-width:1.0269;stroke-dasharray:none"
             d="M 109.691 21.5736 C 108.345 19.4799 107.5505 14.16175 104.3442 11.96278 C 105.9892 10.84118 111.1538 13.08127 112.9772 15.14328 C 114.586 16.82507 115.371 18.97059 114.401 20.6762 C 113.501 22.26061 111.037 22.3213 109.691 21.5736 z "
             id="path562"
             sodipodi:nodetypes="ccssc"
             transform="matrix(-0.934159,-0.77707,-0.897801,0.839291,249.1597,101.2316)" />
          <path
             style="font-size:12;fill:#ffee00;fill-rule:evenodd;stroke:#000000;stroke-width:1.0269;stroke-dasharray:none"
             d="M 130.498 16.74869 C 127.5921 18.55498 123.8756 17.63491 122.452 20.64521 C 120.7423 24.10299 124.25 25.5093 125.836 24.7692 C 126.047 26.6726 129.5417 28.95928 131.334 25.6152 C 132.5973 23.2524 130.498 20.44969 130.498 16.74869 z "
             id="path563"
             sodipodi:nodetypes="cscsc"
             transform="matrix(1.163158,-0.522902,0.570756,1.017261,-53.72054,68.91576)" />
        </g>
        <g
           id="g775">
          <path
             style="font-size:12;fill:#ff0000;fill-rule:evenodd;stroke:#000000;stroke-width:0.7285;stroke-dasharray:none"
             d="M 111.0812 23.92497 C 110.5843 23.55892 109.7408 23.63416 109.4553 23.99560 C 109.1527 24.40388 109.4333 25.05886 109.9574 25.38820 C 110.6128 25.81867 111.2153 25.57236 111.4919 25.24303 C 111.7641 24.85614 111.5250 24.23401 111.0812 23.92497 z "
             id="path687"
             sodipodi:nodetypes="cssss"
             transform="matrix(1.085394,-0.596881,0.666574,0.962458,-39.87608,71.94124)" />
          <path
             style="font-size:12;fill:#ff0000;fill-rule:evenodd;stroke:#000000;stroke-width:0.7285;stroke-dasharray:none"
             d="M 120.0002 25.66808 C 119.4569 25.10310 118.3868 25.01780 117.9532 25.41033 C 117.4885 25.85797 117.7001 26.73929 118.2852 27.26401 C 119.0130 27.94356 119.8182 27.76297 120.2337 27.40881 C 120.6561 26.98152 120.4893 26.15026 120.0002 25.66808 z "
             id="path688"
             sodipodi:nodetypes="cssss"
             transform="matrix(1.085394,-0.596881,0.666574,0.962458,-39.87608,71.94124)" />
          <path
             style="font-size:12;fill:#ff0000;fill-rule:evenodd;stroke:#000000;stroke-width:0.7285;stroke-dasharray:none"
             d="M 124.2801 32.70959 C 123.8515 32.26551 123.0073 32.19846 122.6653 32.50698 C 122.2987 32.85884 122.4656 33.55155 122.9272 33.96399 C 123.5013 34.49812 124.1365 34.35618 124.4643 34.07781 C 124.7975 33.74195 124.6659 33.08857 124.2801 32.70959 z "
             id="path689"
             sodipodi:nodetypes="cssss"
             transform="matrix(1.085394,-0.596881,0.666574,0.962458,-39.87608,71.94124)" />
          <path
             style="font-size:12;fill:#ff0000;fill-rule:evenodd;stroke:#000000;stroke-width:0.874962"
             d="M 84.36117 31.43928 C 83.5239 30.95899 82.17177 31.14521 81.74735 31.6912 C 81.30026 32.30611 81.81749 33.22178 82.69497 33.64677 C 83.79426 34.20497 84.74089 33.7952 85.15395 33.29616 C 85.55448 32.71476 85.10731 31.84251 84.36117 31.43928 z "
             id="path690"
             sodipodi:nodetypes="cssss" />
          <path
             style="font-size:12;fill:#ff0000;fill-rule:evenodd;stroke:#000000;stroke-width:0.874962"
             d="M 129.261 31.27556 C 128.2807 31.45949 127.4067 32.44507 127.4919 33.10325 C 127.611 33.82511 128.673 34.15448 129.6425 33.90579 C 130.8762 33.61241 131.282 32.72258 131.223 32.10502 C 131.0939 31.43645 130.1162 31.09411 129.261 31.27556 z "
             id="path691"
             sodipodi:nodetypes="cssss" />
        </g>
        <g
           id="g790">
          <path
             style="fill:#ffee00;fill-rule:evenodd;stroke:black;stroke-opacity:1;stroke-width:1pt;stroke-linejoin:miter;stroke-linecap:butt;fill-opacity:1"
             d="M 87.03662 37.49994 C 88.08315 39.70592 86.2169 41.6041 85.94221 42.55962 C 88.03981 42.02955 94.98898 40.72792 105.0994 40.71077 C 113.8599 40.60871 123.4878 42.75932 124.1035 43.04947 C 123.7185 41.47863 122.9626 40.02462 123.8286 37.8233 C 119.8815 36.41176 115.114 35.08148 105.0315 35.14299 C 91.63927 35.22541 87.74461 37.38495 87.03662 37.49994 z "
             id="path774"
             sodipodi:nodetypes="ccsccsc" />
          <path
             style="font-size:12;fill:#ffee00;fill-rule:evenodd;stroke:#000000;stroke-width:1.25;stroke-dasharray:none"
             d="M 85.7718 44.15178 C 83.88457 43.75551 84.16643 42.05189 86.15824 41.87331 C 92.74833 40.38984 100.6771 39.45514 108.2701 39.81656 C 113.7043 40.11457 120.8044 40.95812 124.9476 42.47152 C 126.5674 43.9915 124.6414 44.80028 122.6862 44.16002 C 117.8582 43.04316 109.565 42.33795 104.9953 42.29815 C 97.30547 42.04354 91.46776 42.88884 85.7718 44.15178 z "
             id="path692"
             sodipodi:nodetypes="ccsccsc" />
          <path
             style="font-size:12;fill:#ffee00;fill-rule:evenodd;stroke:#000000;stroke-width:1.0408;stroke-dasharray:none"
             d="M 99.93443 27.08292 C 98.89046 26.02377 99.86096 24.85556 101.2386 25.52435 C 106.2090 27.06547 111.7961 29.55929 116.5661 32.89298 C 119.9617 35.30844 124.1885 38.80614 126.1830 41.61555 C 126.5339 43.41237 124.9078 43.24431 123.9325 41.97417 C 121.3093 39.18700 116.2429 35.31229 113.2901 33.43972 C 108.4078 30.14735 104.2215 28.42944 99.93443 27.08292 z "
             id="path693"
             sodipodi:nodetypes="ccsccsc"
             transform="matrix(1.085394,-0.596881,0.666574,0.962458,-39.87608,71.94124)" />
        </g>
      </g>
      <path
         style="fill:#008000;fill-rule:evenodd;stroke:black;stroke-opacity:1;stroke-width:1pt;stroke-linejoin:miter;stroke-linecap:butt;fill-opacity:1"
         d="M 93.118 52.65053 C 91.40314 52.71723 91.11744 54.69418 91.63797 56.41747 C 92.11647 58.1249 94.33799 58.01455 94.63261 56.3126 C 94.92706 54.73488 94.82216 52.58904 93.118 52.65053 z "
         id="path815"
         sodipodi:nodetypes="csss" />
      <path
         style="fill:#008000;fill-rule:evenodd;stroke:black;stroke-opacity:1;stroke-width:1pt;stroke-linejoin:miter;stroke-linecap:butt;fill-opacity:1"
         d="M 106.5615 53.14387 C 104.8467 53.21057 104.561 55.18752 105.0815 56.91081 C 105.56 58.61824 107.7815 58.50789 108.0761 56.80594 C 108.3706 55.22822 108.2657 53.08238 106.5615 53.14387 z "
         id="path816"
         sodipodi:nodetypes="csss" />
      <g
         id="g1928">
        <path
           sodipodi:nodetypes="ccssc"
           id="n"
           d="M 98.17474,56.78226 C 98.17474,58.07322 98.29135,59.44702 97.79553,60.71028 C 95.86858,59.90898 93.67958,60.86313 92.93565,61.98097 C 91.01525,64.92832 91.67289,68.23621 94.4951,69.6047 C 96.25778,70.47852 99.15775,69.82338 100.5929,68.23816"
           style="fill:none;fill-opacity:1;fill-rule:evenodd;stroke:black;stroke-width:1pt;stroke-linecap:round;stroke-linejoin:miter;stroke-opacity:1" />
        <path
           sodipodi:nodetypes="csc"
           id="n1"
           d="M 102.4915,65.84737 C 103.3133,65.84737 104.492,66.61736 104.3275,68.2982 C 104.2252,69.97028 101.9259,69.91745 100.7091,69.11577"
           style="fill:none;fill-opacity:1;fill-rule:evenodd;stroke:black;stroke-width:1pt;stroke-linecap:round;stroke-linejoin:miter;stroke-opacity:1" />
      </g>
      <path
         style="fill:none;fill-rule:evenodd;stroke:black;stroke-opacity:1;stroke-width:1pt;stroke-linejoin:miter;stroke-linecap:round;fill-opacity:1"
         d="M 96.26306 49.50548 C 95.36148 48.64216 93.68591 48.26687 92.63216 48.31491 C 91.31841 48.31316 89.60962 49.36871 88.65678 50.95358 "
         id="path821"
         sodipodi:nodetypes="csc" />
      <path
         style="fill:none;fill-rule:evenodd;stroke:black;stroke-opacity:1;stroke-width:1.25;stroke-linejoin:miter;stroke-linecap:round;fill-opacity:1;stroke-dasharray:none"
         d="M 102.9232 49.56713 C 103.7146 48.18474 105.6515 47.8282 106.9436 47.90037 C 108.2815 47.9694 109.7081 48.58004 110.6485 49.27406 "
         id="path822"
         sodipodi:nodetypes="ccc" />
      <path
         style="fill:#ffffff;fill-rule:evenodd;stroke:black;stroke-opacity:1;stroke-width:1.25;stroke-linejoin:miter;stroke-linecap:butt;fill-opacity:1;stroke-dasharray:none"
         d="M 98.12576 69.96765 C 96.41559 69.96765 92.01006 70.71083 90.85969 72.03991 C 89.74493 73.32784 88.29285 77.22993 85.76086 78.40841 C 83.83859 79.25629 81.94229 80.91175 81.37315 82.15355 C 82.50757 82.55909 86.59347 81.32732 87.93862 80.48752 C 90.81278 78.69312 92.29744 74.47105 92.48297 75.08264 C 92.97589 75.19361 90.40449 77.24159 89.45238 80.39684 C 94.00627 80.19853 95.30584 73.99712 95.62432 74.34685 C 95.97997 74.46348 94.35344 76.49361 93.85997 78.40463 C 96.30041 77.4819 96.9437 77.48962 97.74319 75.29428 C 98.04569 74.46354 98.22196 72.33593 98.45798 72.49363 C 98.89404 72.37492 99.04264 74.40777 99.08824 74.979 C 99.28544 76.67885 100.7944 77.09055 102.0468 77.6861 C 101.6049 75.4558 100.9764 74.09863 101.2323 74.03852 C 101.5481 73.82557 101.6974 76.41933 102.535 77.51875 C 103.8088 79.27156 105.2687 79.65595 106.1219 79.61956 C 106.3094 79.08765 105.2434 76.85715 104.9398 76.1364 C 104.3111 74.99771 103.5736 75.10873 104.0482 74.77116 C 104.506 74.56106 105.0764 80.30508 110.5658 80.32749 C 112.1427 80.33392 113.3255 80.74094 114.9121 80.95219 C 114.6499 80.21833 112.5658 78.35355 111.3354 77.99442 C 106.6391 76.62366 108.2216 74.10816 105.3564 71.59429 C 103.7727 70.23893 100.3268 70.13832 98.12576 69.96765 z "
         id="path823"
         sodipodi:nodetypes="ccscsccccccsccscccsccsc" />
      <path
         style="fill:none;fill-rule:evenodd;stroke:black;stroke-opacity:1;stroke-width:1pt;stroke-linejoin:miter;stroke-linecap:butt;fill-opacity:1"
         d="M 87.21085 43.69257 C 85.80662 46.50085 84.63206 51.21622 87.74554 57.60292 C 84.9819 61.71478 88.64403 68.45087 88.87542 74.93061 "
         id="path833"
         sodipodi:nodetypes="ccc" />
      <path
         style="fill:none;fill-rule:evenodd;stroke:black;stroke-opacity:1;stroke-width:0.875;stroke-linejoin:miter;stroke-linecap:round;fill-opacity:1;stroke-dasharray:none"
         d="M 120.1288 43.64614 C 121.9339 47.25657 121.9746 48.43294 121.9782 52.38163 C 121.9787 53.00436 121.998 55.68041 122.598 55.99747 "
         id="path834" />
      <path
         style="fill:none;fill-rule:evenodd;stroke:black;stroke-opacity:1;stroke-width:0.875;stroke-linejoin:miter;stroke-linecap:round;fill-opacity:1;stroke-dasharray:none"
         d="M 114.7831,68.44381 C 118.7619,69.47933 119.4295,72.10897 120.0533,75.60604 C 120.5753,78.65598 121.02912,80.964446 123.29652,83.053636"
         id="path836"
         sodipodi:nodetypes="csc" />
      <path
         style="fill:none;fill-rule:evenodd;stroke:black;stroke-opacity:1;stroke-width:0.875;stroke-linejoin:miter;stroke-linecap:round;fill-opacity:1;stroke-dasharray:none"
         d="M 114.5028 73.86696 C 117.3713 76.65257 116.8479 78.36912 117.4604 80.23855 C 118.5328 83.42449 119.747 83.30831 121.6932 84.71863 "
         id="path838"
         sodipodi:nodetypes="csc" />
      <path
         style="fill:none;fill-rule:evenodd;stroke:black;stroke-opacity:1;stroke-width:0.875;stroke-linejoin:miter;stroke-linecap:round;fill-opacity:1;stroke-dasharray:none"
         d="M 94.53718 79.62185 C 95.16773 77.79039 100.6229 77.8846 102.0556 79.62999 "
         id="path839"
         sodipodi:nodetypes="cc" />
      <path
         style="fill:none;fill-rule:evenodd;stroke:black;stroke-opacity:1;stroke-width:0.875;stroke-linejoin:miter;stroke-linecap:round;fill-opacity:1;stroke-dasharray:none"
         d="M 93.0497,82.78816 C 93.06129,84.36823 91.954871,85.881127 89.563081,87.750462 C 90.682724,84.741781 89.612815,84.109595 90.0444,82.86316"
         id="path846"
         sodipodi:nodetypes="ccs" />
      <path
         style="fill:none;fill-opacity:0.75;fill-rule:evenodd;stroke:black;stroke-width:0.875;stroke-linecap:butt;stroke-linejoin:miter;stroke-opacity:1;stroke-miterlimit:4;stroke-dasharray:none"
         d="M 86.433413,54.060056 C 85.693008,55.478941 84.437752,57.166776 82.586915,58.77698 C 80.339052,60.732592 78.368778,64.00651 81.991875,69.137117"
         id="path2820"
         sodipodi:nodetypes="csc" />
      <path
         style="fill:none;fill-opacity:0.75;fill-rule:evenodd;stroke:black;stroke-width:0.875;stroke-linecap:butt;stroke-linejoin:miter;stroke-miterlimit:4;stroke-dasharray:none;stroke-opacity:1"
         d="M 88.618465,71.787673 C 88.040044,74.616879 84.93004,73.416122 82.617791,73.223362 C 75.523184,72.631921 78.760269,75.756539 80.209327,77.874028 C 81.275257,79.431659 81.487217,82.698781 75.539261,82.84303"
         id="path3707"
         sodipodi:nodetypes="cssc" />
    </g>
    <path
       sodipodi:nodetypes="csccccsc"
       id="path26295"
       d="M 100.04233,124.49948 C 100.04233,124.49948 91.31743,131.41918 92.558346,136.20774 C 93.310408,139.10988 97.339049,136.86508 98.499588,135.84926 C 98.721572,138.79622 97.696336,141.39703 95.949095,143.51139 C 98.613735,143.16027 100.83717,142.18449 104.02016,143.35252 C 100.54746,139.70284 100.75331,138.55847 100.75326,135.77962 C 103.08732,137.01146 106.90241,139.21409 107.68999,135.82713 C 108.81084,131.00694 100.04233,124.49948 100.04233,124.49948 z "
       style="opacity:1;color:black;fill:black;fill-opacity:1;fill-rule:evenodd;stroke:black;stroke-width:0.87500012;stroke-linecap:round;stroke-linejoin:miter;marker:none;marker-start:none;marker-mid:none;marker-end:none;stroke-miterlimit:4;stroke-dasharray:none;stroke-dashoffset:0;stroke-opacity:1;visibility:visible;display:inline;overflow:visible" />
    <path
       sodipodi:nodetypes="csc"
       id="path26387"
       d="M 70.569001,125.2531 C 74.778781,137.93635 75.214608,146.34486 75.509568,160.35434 C 75.804527,174.36382 73.739812,203.56478 73.739812,203.56478"
       style="fill:none;fill-opacity:1;fill-rule:evenodd;stroke:black;stroke-width:0.87500006;stroke-linecap:round;stroke-linejoin:miter;stroke-opacity:1;opacity:1;color:black;marker:none;marker-start:none;marker-mid:none;marker-end:none;stroke-miterlimit:4;stroke-dasharray:none;stroke-dashoffset:0;visibility:visible;display:inline;overflow:visible" />
    <path
       sodipodi:nodetypes="csc"
       id="path26389"
       d="M 75.11061,148.55488 C 75.369378,159.4616 72.795389,168.13745 69.905342,173.18399 C 66.597858,178.95945 56.927135,185.86723 56.927135,185.86723"
       style="fill:none;fill-opacity:1;fill-rule:evenodd;stroke:black;stroke-width:0.87500006;stroke-linecap:round;stroke-linejoin:miter;stroke-opacity:1;opacity:1;color:black;marker:none;marker-start:none;marker-mid:none;marker-end:none;stroke-miterlimit:4;stroke-dasharray:none;stroke-dashoffset:0;visibility:visible;display:inline;overflow:visible" />
    <g
       style="opacity:1"
       id="g26395">
      <path
         style="fill:#0080ff;fill-opacity:1;fill-rule:evenodd;stroke:black;stroke-width:1px;stroke-linecap:butt;stroke-linejoin:miter;stroke-opacity:1;opacity:1;color:black;marker:none;marker-start:none;marker-mid:none;marker-end:none;stroke-miterlimit:4;stroke-dasharray:none;stroke-dashoffset:0;visibility:visible;display:inline;overflow:visible"
         d="M 43.06405,134.10188 C 50.438031,134.61694 56.374087,143.66658 57.812013,155.35434 C 59.267815,167.18739 59.581769,193.53617 54.862421,206.3669 C 50.143073,219.19763 42.842831,233.50315 33.182916,234.53551 C 23.46308,235.57427 19.909749,225.24429 20.794627,213.29844 C 21.679505,201.50007 21.421415,182.95451 26.988771,163.15537 C 32.556127,143.35623 35.690069,133.58682 43.06405,134.10188 z "
         id="path26391"
         sodipodi:nodetypes="czsszzs" />
      <path
         style="fill:white;fill-opacity:1;fill-rule:evenodd;stroke:black;stroke-width:1pt;stroke-linecap:butt;stroke-linejoin:miter;stroke-opacity:1;opacity:1;color:black;marker:none;marker-start:none;marker-mid:none;marker-end:none;stroke-miterlimit:4;stroke-dasharray:none;stroke-dashoffset:0;visibility:visible;display:inline;overflow:visible"
         d="M 41.294295,141.77082 C 48.668276,142.28588 49.986787,152.52292 51.17543,158.59889 C 52.336273,164.53276 49.622518,203.21986 46.013644,213.88836 C 43.052946,222.64073 41.810474,232.61827 32.150559,233.65063 C 22.430723,234.68939 19.909749,225.24429 20.794627,213.29844 C 21.679505,201.50007 21.421415,182.95451 26.988771,163.15537 C 32.556127,143.35623 33.920314,141.25576 41.294295,141.77082 z "
         id="path26393"
         sodipodi:nodetypes="czsszzs" />
    </g>
    <path
       sodipodi:nodetypes="ccc"
       id="path1968"
       d="M 37.902264,179.23065 C 39.377061,182.18024 36.869907,186.89959 36.869907,186.89959 C 36.869907,186.89959 42.621612,184.53992 42.621612,181.0004"
       style="opacity:1;color:black;fill:none;fill-opacity:1;fill-rule:evenodd;stroke:black;stroke-width:0.87500006;stroke-linecap:round;stroke-linejoin:miter;marker:none;marker-start:none;marker-mid:none;marker-end:none;stroke-miterlimit:4;stroke-dasharray:none;stroke-dashoffset:0;stroke-opacity:1;visibility:visible;display:inline;overflow:visible" />
    <path
       sodipodi:nodetypes="ccc"
       id="path1972"
       d="M 31.191941,176.21555 C 32.666738,179.16514 28.537308,181.22986 30.159584,184.91684 C 30.749502,182.55717 36.501207,180.63994 35.32137,176.36302"
       style="opacity:1;color:black;fill:none;fill-opacity:1;fill-rule:evenodd;stroke:black;stroke-width:0.87500006;stroke-linecap:round;stroke-linejoin:miter;marker:none;marker-start:none;marker-mid:none;marker-end:none;stroke-miterlimit:4;stroke-dasharray:none;stroke-dashoffset:0;stroke-opacity:1;visibility:visible;display:inline;overflow:visible" />
    <path
       sodipodi:nodetypes="csssc"
       id="path6193"
       d="M 30.538762,96.929131 C 30.538762,100.67393 28.236637,102.87893 25.143105,102.87893 C 22.049572,102.87893 19.330311,100.67393 19.330311,96.929131 C 19.330311,93.184329 21.841004,90.97934 24.934537,90.97934 C 28.028069,90.97934 30.538762,93.184329 30.538762,96.929131 z "
       style="opacity:1;color:black;fill:#fe0;fill-opacity:1;fill-rule:evenodd;stroke:black;stroke-width:1pt;stroke-linecap:butt;stroke-linejoin:miter;marker:none;marker-start:none;marker-mid:none;marker-end:none;stroke-miterlimit:4;stroke-dasharray:none;stroke-dashoffset:0;stroke-opacity:1;visibility:visible;display:inline;overflow:visible" />
    <path
       sodipodi:nodetypes="csssc"
       id="path1954"
       d="M 27.611878,90.743886 C 27.611878,92.251753 26.555009,93.13961 25.134818,93.13961 C 23.714626,93.13961 22.466257,92.251753 22.466257,90.743886 C 22.466257,89.236019 23.618876,88.348167 25.039068,88.348167 C 26.459259,88.348167 27.611878,89.236019 27.611878,90.743886 z "
       style="opacity:1;color:black;fill:#fe0;fill-opacity:1;fill-rule:evenodd;stroke:black;stroke-width:0.9999999pt;stroke-linecap:butt;stroke-linejoin:miter;marker:none;marker-start:none;marker-mid:none;marker-end:none;stroke-miterlimit:4;stroke-dasharray:none;stroke-dashoffset:0;stroke-opacity:1;visibility:visible;display:inline;overflow:visible" />
    <path
       sodipodi:nodetypes="cccc"
       id="path1964"
       d="M 49.324481,150.15977 C 45.79712,150.45669 41.982849,150.16541 40.095019,150.15977 C 41.970326,159.35291 38.948392,164.3258 35.083142,170.20728 C 39.78948,174.41625 50.557847,174.52194 50.557847,174.52194"
       style="fill:none;fill-opacity:0.75;fill-rule:evenodd;stroke:black;stroke-width:1px;stroke-linecap:butt;stroke-linejoin:miter;stroke-opacity:1" />
    <path
       sodipodi:nodetypes="ccssssssssc"
       id="path1969"
       d="M 40.180722,150.64732 C 42.019115,153.37269 41.34486,163.57513 34.926599,170.37531 C 31.900784,170.5069 23.863216,169.7452 22.369756,168.99847 C 21.506005,168.56659 21.270537,167.88128 20.697251,167.1169 C 19.744149,165.8461 20.183427,163.98142 19.233809,162.51751 C 18.546645,161.4582 18.958097,159.02097 19.233809,157.91812 C 19.607636,156.42281 22.876185,155.49018 24.042261,154.36405 C 25.078538,153.36328 27.75601,152.59936 29.059776,152.27342 C 30.716694,151.85919 32.111443,150.98784 33.659165,150.60091 C 34.761616,150.3253 36.262948,150.60091 37.422302,150.60091 C 38.119179,150.60091 39.483845,150.64732 40.180722,150.64732 z "
       style="fill:#ffd0d0;fill-opacity:1;fill-rule:evenodd;stroke:black;stroke-width:1px;stroke-linecap:butt;stroke-linejoin:miter;stroke-opacity:1;opacity:1;color:black;marker:none;marker-start:none;marker-mid:none;marker-end:none;stroke-miterlimit:4;stroke-dasharray:none;stroke-dashoffset:0;visibility:visible;display:inline;overflow:visible" />
    <path
       sodipodi:nodetypes="czsscc"
       id="path1958"
       d="M 26.551019,108.14781 C 26.551019,108.14781 28.589384,140.98864 28.432587,157.53556 C 28.275789,174.28489 29.26884,183.84872 24.251324,184.05112 C 18.569121,184.28034 18.844009,178.8856 19.233808,157.74462 C 19.450248,146.00591 22.996945,107.74298 22.996945,107.74298 L 26.551019,108.14781 z "
       style="opacity:1;color:black;fill:#fe0;fill-opacity:1;fill-rule:evenodd;stroke:black;stroke-width:1pt;stroke-linecap:butt;stroke-linejoin:miter;marker:none;marker-start:none;marker-mid:none;marker-end:none;stroke-miterlimit:4;stroke-dasharray:none;stroke-dashoffset:0;stroke-opacity:1;visibility:visible;display:inline;overflow:visible" />
    <path
       sodipodi:nodetypes="cccccsc"
       id="path1956"
       d="M 35.749797,98.335128 C 33.816565,96.47981 30.523218,97.498876 28.64165,99.380444 C 27.073677,98.021534 26.2615,97.917002 24.641261,97.289813 C 22.91649,98.021533 21.683252,98.544191 21.219908,99.589507 C 19.293121,98.230596 15.679735,96.244497 13.589104,98.126065 C 15.679735,104.39796 16.447513,108.16111 24.460387,108.1611 C 31.98666,108.16109 32.666718,104.42421 35.749797,98.335128 z "
       style="fill:#fe0;fill-opacity:1;fill-rule:evenodd;stroke:black;stroke-width:0.9999999pt;stroke-linecap:butt;stroke-linejoin:miter;stroke-opacity:1;opacity:1;color:black;marker:none;marker-start:none;marker-mid:none;marker-end:none;stroke-miterlimit:4;stroke-dasharray:none;stroke-dashoffset:0;visibility:visible;display:inline;overflow:visible" />
    <path
       style="opacity:1;fill:none;fill-opacity:1;fill-rule:evenodd;stroke:black;stroke-width:0.87499988;stroke-linecap:round;stroke-linejoin:miter;stroke-dasharray:none;stroke-opacity:1"
       d="M 101.61767,85.442868 C 102.13723,86.935117 101.57667,88.723632 99.913857,91.263347 C 99.743582,87.729758 98.768751,87.996201 98.796449,86.481216"
       id="path1960"
       sodipodi:nodetypes="ccs" />
    <path
       inkscape:transform-center-y="0.51481058"
       inkscape:transform-center-x="1.1767341"
       style="opacity:1;fill:none;fill-opacity:1;fill-rule:evenodd;stroke:black;stroke-width:0.87500042;stroke-linecap:round;stroke-linejoin:miter;stroke-dasharray:none;stroke-opacity:1"
       d="M 110.34029,86.493408 C 111.64698,87.381846 112.26302,89.152021 112.44184,92.182385 C 110.13392,89.360237 108.96983,89.783437 108.27592,88.068047"
       id="path1962"
       sodipodi:nodetypes="ccs" />
    <path
       sodipodi:nodetypes="csssssssc"
       id="path2864"
       d="M 23.627496,170.61494 C 23.217312,170.69011 22.529299,168.97895 21.929205,168.26819 C 21.380358,167.61812 18.884831,166.65433 18.10805,166.42432 C 17.15777,166.14293 16.796077,166.67904 16.539834,167.26244 C 16.215308,168.00131 16.631624,169.54259 16.975856,169.92147 C 17.383387,170.37001 18.705655,173.06732 18.957196,173.46457 C 19.344656,174.07645 22.279978,174.63794 22.919875,174.63794 C 23.924691,174.63794 24.476642,174.30375 24.476642,173.12931 C 24.476642,171.69649 24.392446,171.74747 23.627496,170.61494 z "
       style="opacity:1;color:black;fill:#ffd0d0;fill-opacity:1;fill-rule:evenodd;stroke:black;stroke-width:0.99999982px;stroke-linecap:butt;stroke-linejoin:miter;marker:none;marker-start:none;marker-mid:none;marker-end:none;stroke-miterlimit:4;stroke-dasharray:none;stroke-dashoffset:0;stroke-opacity:1;visibility:visible;display:inline;overflow:visible" />
    <path
       sodipodi:nodetypes="csssssssssc"
       id="path2862"
       d="M 24.774263,162.52989 C 24.350913,162.8921 22.59054,161.67403 21.502,161.3884 C 20.506418,161.12716 19.37124,161.3641 18.561358,161.62196 C 17.334245,162.01265 17.118375,161.91868 16.103791,162.23461 C 14.862591,162.62109 14.757864,163.40734 14.800052,164.16665 C 14.853486,165.12831 18.220343,167.14036 19.009257,167.66385 C 19.600289,168.05602 20.580696,168.41667 21.093754,168.63509 C 21.884033,168.97151 22.950256,168.7935 23.856148,168.51143 C 24.662215,168.26042 25.542085,167.47195 26.269563,167.02342 C 27.411906,166.3191 27.848362,165.60015 27.176987,164.43315 C 26.357905,163.00939 26.291331,163.11907 24.774263,162.52989 z "
       style="opacity:1;color:black;fill:#ffd0d0;fill-opacity:1;fill-rule:evenodd;stroke:black;stroke-width:1.00000048px;stroke-linecap:butt;stroke-linejoin:miter;marker:none;marker-start:none;marker-mid:none;marker-end:none;stroke-miterlimit:4;stroke-dasharray:none;stroke-dashoffset:0;stroke-opacity:1;visibility:visible;display:inline;overflow:visible" />
    <path
       sodipodi:nodetypes="csssssssssc"
       id="path2860"
       d="M 26.100861,158.4264 C 25.53145,158.65382 24.061861,156.80234 22.998981,156.13755 C 22.026867,155.52952 20.742128,155.38538 19.796265,155.37372 C 18.36312,155.35604 18.164641,155.18589 16.982048,155.16399 C 15.535313,155.1372 15.164786,155.90873 14.959295,156.70277 C 14.699049,157.7084 15.729956,159.44353 16.331582,159.78983 C 17.043835,160.1998 19.702596,163.03943 20.175936,163.4388 C 20.905038,164.05395 22.097051,164.23508 23.152952,164.25464 C 24.092501,164.27203 25.287693,163.76276 26.208829,163.55051 C 27.655268,163.21723 28.356221,162.628 28.027333,161.20063 C 27.626087,159.45923 27.519164,159.54912 26.100861,158.4264 z "
       style="opacity:1;color:black;fill:#ffd0d0;fill-opacity:1;fill-rule:evenodd;stroke:black;stroke-width:1.00000024px;stroke-linecap:butt;stroke-linejoin:miter;marker:none;marker-start:none;marker-mid:none;marker-end:none;stroke-miterlimit:4;stroke-dasharray:none;stroke-dashoffset:0;stroke-opacity:1;visibility:visible;display:inline;overflow:visible" />
    <path
       sodipodi:nodetypes="csssssssssc"
       id="path2858"
       d="M 25.342614,152.48248 C 24.73668,152.57624 23.72033,150.44207 22.833856,149.5556 C 22.023085,148.74483 20.803515,148.3159 19.884421,148.09216 C 18.491838,147.75315 18.336631,147.54278 17.189151,147.25591 C 15.785373,146.90496 15.251072,147.5736 14.872543,148.30122 C 14.393145,149.22274 15.008137,151.14504 15.516646,151.61758 C 16.118661,152.17701 18.071947,155.54111 18.44353,156.03656 C 19.015895,156.79971 20.136802,157.24386 21.161351,157.5 C 22.073004,157.72791 23.352027,157.5 24.297298,157.5 C 25.781637,157.5 26.596993,157.0832 26.596993,155.61843 C 26.596993,153.8314 26.472616,153.89499 25.342614,152.48248 z "
       style="opacity:1;color:black;fill:#ffd0d0;fill-opacity:1;fill-rule:evenodd;stroke:black;stroke-width:1px;stroke-linecap:butt;stroke-linejoin:miter;marker:none;marker-start:none;marker-mid:none;marker-end:none;stroke-miterlimit:4;stroke-dasharray:none;stroke-dashoffset:0;stroke-opacity:1;visibility:visible;display:inline;overflow:visible" />
    <path
       sodipodi:nodetypes="csssssssscsc"
       id="path1966"
       d="M 40.095019,150.15977 C 39.636789,150.29932 37.792382,148.47432 35.083142,147.04684 C 34.264424,146.61546 30.349546,144.96671 29.534784,144.96671 C 28.280405,144.96671 25.177657,146.8614 24.561842,147.16931 C 23.894814,147.50282 21.303554,148.26462 20.697251,148.71934 C 19.87642,149.33497 20.04751,150.99487 20.04751,152.27342 C 20.04751,153.81082 20.720913,153.85322 21.742566,154.36405 C 22.72831,154.85692 24.419973,154.57311 25.505703,154.57311 C 26.702648,154.57311 29.039465,151.50738 29.701824,151.93754 C 30.987933,152.77278 31.473264,154.30827 33.323523,154.85827 C 30.266531,156.36362 30.013265,158.65005 29.946756,159.97288 C 29.85896,161.71908 32.70497,163.01707 34.189252,162.94614"
       style="fill:#ffd0d0;fill-opacity:1;fill-rule:evenodd;stroke:black;stroke-width:1px;stroke-linecap:butt;stroke-linejoin:miter;stroke-opacity:1" />
    <path
       sodipodi:nodetypes="ccccssccsccccscscc"
       id="path2878"
       d="M 65.854888,192.6226 C 70.035979,192.81074 71.367161,192.49314 74.426477,189.90478 C 77.302353,187.31102 77.35132,178.54963 75.680856,175.89755 C 72.355235,176.33217 70.511535,174.92623 67.318331,171.71629 C 64.50198,169.24405 58.694294,171.20418 55.560068,172.70037 C 46.13994,177.19727 45.885314,181.44722 36.586049,186.55977 C 33.662553,188.16706 28.240026,191.04473 20.488188,193.66792 C 21.653554,196.9529 22.885961,199.92691 23.31054,200.77607 C 26.038797,209.37042 28.99627,226.63758 29.268839,241.75244 C 29.333521,245.33926 28.820597,251.1757 27.830761,254.63211 C 31.768498,255.16244 36.876231,255.27923 39.833956,255.40277 C 40.804241,253.82033 42.570855,250.92685 45.983384,246.42512 C 42.392999,245.45374 41.515377,245.93984 37.800962,245.30651 C 38.377602,237.97588 36.499191,224.91352 35.645265,219.06909 C 34.693522,212.55519 32.621677,203.37319 29.548606,198.16277 C 33.442027,197.13146 37.867297,195.46753 41.708096,193.66792 C 45.595448,191.84649 53.169787,187.61939 57.283301,185.30539 C 60.05188,190.37509 63.267956,188.87638 65.854888,192.6226 z "
       style="fill:#fe0;fill-opacity:1;fill-rule:evenodd;stroke:black;stroke-width:0.9999999pt;stroke-linecap:butt;stroke-linejoin:miter;stroke-opacity:1;opacity:1;color:black;marker:none;marker-start:none;marker-mid:none;marker-end:none;stroke-miterlimit:4;stroke-dasharray:none;stroke-dashoffset:0;visibility:visible;display:inline;overflow:visible" />
    <path
       id="path2902"
       d="M 33.261742,250.39732 L 38.28796,244.00203"
       style="fill:none;fill-opacity:1;fill-rule:evenodd;stroke:black;stroke-width:0.87500006;stroke-linecap:round;stroke-linejoin:miter;stroke-opacity:1;opacity:1;color:black;marker:none;marker-start:none;marker-mid:none;marker-end:none;stroke-miterlimit:4;stroke-dasharray:none;stroke-dashoffset:0;visibility:visible;display:inline;overflow:visible" />
    <path
       sodipodi:nodetypes="csssc"
       id="path2896"
       d="M 44.613935,245.60265 C 44.613935,248.22702 42.784757,249.77232 40.326759,249.77232 C 37.86876,249.77232 35.708142,248.22702 35.708142,245.60265 C 35.708142,242.97824 37.70304,241.43297 40.16104,241.43297 C 42.619037,241.43297 44.613935,242.97824 44.613935,245.60265 z "
       style="opacity:1;color:black;fill:#fe0;fill-opacity:1;fill-rule:evenodd;stroke:black;stroke-width:1.00000019pt;stroke-linecap:butt;stroke-linejoin:miter;marker:none;marker-start:none;marker-mid:none;marker-end:none;stroke-miterlimit:4;stroke-dasharray:none;stroke-dashoffset:0;stroke-opacity:1;visibility:visible;display:inline;overflow:visible" />
    <path
       inkscape:transform-center-y="-1.478517"
       inkscape:transform-center-x="5.5891128"
       sodipodi:nodetypes="czsscc"
       id="path2868"
       d="M 60.985309,200.13922 C 60.985309,200.13922 56.873529,221.25488 52.664619,231.32802 C 48.405648,241.52478 44.279592,246.93451 40.505309,246.01903 C 36.231036,244.98229 39.792881,235.35154 42.77721,227.9246 C 45.66035,220.74852 58.447443,199.15599 58.447443,199.15599 L 60.985309,200.13922 z "
       style="opacity:1;color:black;fill:#fe0;fill-opacity:1;fill-rule:evenodd;stroke:black;stroke-width:0.99999905pt;stroke-linecap:butt;stroke-linejoin:miter;marker:none;marker-start:none;marker-mid:none;marker-end:none;stroke-miterlimit:4;stroke-dasharray:none;stroke-dashoffset:0;stroke-opacity:1;visibility:visible;display:inline;overflow:visible" />
    <path
       sodipodi:nodetypes="cssss"
       id="path2872"
       d="M 62.749146,198.36777 C 62.393917,199.50972 61.667786,200.25793 59.754681,199.50695 C 58.371307,198.96392 57.621543,198.4839 58.047015,197.0373 C 58.490505,195.52944 59.632557,195.81566 61.002083,196.19162 C 62.348359,196.56119 63.029224,197.46741 62.749146,198.36777 z "
       style="opacity:1;color:black;fill:#fe0;fill-opacity:1;fill-rule:evenodd;stroke:black;stroke-width:0.9999999pt;stroke-linecap:butt;stroke-linejoin:miter;marker:none;marker-start:none;marker-mid:none;marker-end:none;stroke-miterlimit:4;stroke-dasharray:none;stroke-dashoffset:0;stroke-opacity:1;visibility:visible;display:inline;overflow:visible" />
    <path
       sodipodi:nodetypes="csssc"
       id="path2874"
       d="M 26.406008,185.30539 C 26.406008,186.81326 25.349139,187.70112 23.928948,187.70112 C 22.508756,187.70112 21.260387,186.81326 21.260387,185.30539 C 21.260387,183.79752 22.413006,182.90967 23.833198,182.90967 C 25.253389,182.90967 26.406008,183.79752 26.406008,185.30539 z "
       style="opacity:1;color:black;fill:#fe0;fill-opacity:1;fill-rule:evenodd;stroke:black;stroke-width:0.9999999pt;stroke-linecap:butt;stroke-linejoin:miter;marker:none;marker-start:none;marker-mid:none;marker-end:none;stroke-miterlimit:4;stroke-dasharray:none;stroke-dashoffset:0;stroke-opacity:1;visibility:visible;display:inline;overflow:visible" />
    <path
       sodipodi:nodetypes="csssc"
       id="path2870"
       d="M 66.752084,192.83722 C 66.752084,195.46159 64.922906,197.00689 62.464908,197.00689 C 60.006909,197.00689 57.846291,195.46159 57.846291,192.83722 C 57.846291,190.21281 59.841189,188.66754 62.299189,188.66754 C 64.757186,188.66754 66.752084,190.21281 66.752084,192.83722 z "
       style="opacity:1;color:black;fill:#fe0;fill-opacity:1;fill-rule:evenodd;stroke:black;stroke-width:1.00000019pt;stroke-linecap:butt;stroke-linejoin:miter;marker:none;marker-start:none;marker-mid:none;marker-end:none;stroke-miterlimit:4;stroke-dasharray:none;stroke-dashoffset:0;stroke-opacity:1;visibility:visible;display:inline;overflow:visible" />
    <path
       sodipodi:nodetypes="csc"
       id="path2880"
       d="M 67.706123,172.15667 C 67.706123,172.15667 73.557584,178.66461 68.445273,185.31353 C 65.615803,188.99346 59.427645,190.04409 57.505856,185.90485"
       style="fill:none;fill-opacity:0.75;fill-rule:evenodd;stroke:black;stroke-width:1px;stroke-linecap:butt;stroke-linejoin:miter;stroke-opacity:1" />
    <path
       sodipodi:nodetypes="cccc"
       id="path2882"
       d="M 57.178769,180.54463 C 51.620361,181.28418 49.148573,188.27912 26.341956,196.69934 C 31.986661,208.19781 35.814863,237.36212 32.887979,250.32403 C 37.173774,250.42856 43.067007,251.78748 43.067007,251.78748"
       style="fill:none;fill-opacity:0.75;fill-rule:evenodd;stroke:black;stroke-width:1px;stroke-linecap:butt;stroke-linejoin:miter;stroke-opacity:1" />
    <path
       sodipodi:nodetypes="csss"
       id="path2884"
       d="M 57.2833,184.92932 C 57.2833,184.92932 56.544916,179.73295 58.224084,177.46552 C 60.862106,173.90332 65.093888,175.27871 65.95942,177.88365 C 66.850724,180.56616 63.894922,183.99875 62.300815,182.48304"
       style="fill:none;fill-opacity:0.75;fill-rule:evenodd;stroke:black;stroke-width:1px;stroke-linecap:butt;stroke-linejoin:miter;stroke-opacity:1" />
    <path
       sodipodi:nodetypes="cc"
       id="path2886"
       d="M 54.992747,184.35594 L 36.070511,237.49751"
       style="fill:none;fill-opacity:0.75;fill-rule:evenodd;stroke:black;stroke-width:1px;stroke-linecap:round;stroke-linejoin:miter;stroke-opacity:1" />
    <path
       sodipodi:nodetypes="cc"
       id="path2888"
       d="M 50.592369,187.0753 L 35.722773,230.5108"
       style="fill:none;fill-opacity:0.75;fill-rule:evenodd;stroke:black;stroke-width:1px;stroke-linecap:round;stroke-linejoin:miter;stroke-opacity:1" />
    <path
       sodipodi:nodetypes="cc"
       id="path2890"
       d="M 46.955031,189.31815 L 34.797101,224.23024"
       style="fill:none;fill-opacity:0.75;fill-rule:evenodd;stroke:black;stroke-width:1.00037073;stroke-linecap:round;stroke-linejoin:miter;stroke-opacity:1;stroke-miterlimit:4;stroke-dasharray:none" />
    <path
       sodipodi:nodetypes="cc"
       id="path2892"
       d="M 42.94363,191.88375 L 34.259331,217.59961"
       style="fill:none;fill-opacity:0.75;fill-rule:evenodd;stroke:black;stroke-width:1px;stroke-linecap:round;stroke-linejoin:miter;stroke-opacity:1" />
    <path
       sodipodi:nodetypes="cc"
       id="path2894"
       d="M 39.771813,193.2606 L 33.004952,211.95491"
       style="fill:none;fill-opacity:0.75;fill-rule:evenodd;stroke:black;stroke-width:1px;stroke-linecap:round;stroke-linejoin:miter;stroke-opacity:1" />
    <path
       sodipodi:nodetypes="cc"
       id="path2898"
       d="M 36.635866,194.09685 L 31.959636,206.72833"
       style="fill:none;fill-opacity:0.75;fill-rule:evenodd;stroke:black;stroke-width:1px;stroke-linecap:round;stroke-linejoin:miter;stroke-opacity:1" />
    <path
       sodipodi:nodetypes="ccz"
       id="path2900"
       d="M 56.471046,183.24391 C 49.523038,188.30709 36.033554,195.10727 27.939863,197.43559 C 35.220489,211.14682 35.257446,231.32561 35.922681,242.22807"
       style="fill:none;fill-opacity:1;fill-rule:evenodd;stroke:black;stroke-width:0.87500006;stroke-linecap:round;stroke-linejoin:miter;stroke-opacity:1;stroke-miterlimit:4;stroke-dasharray:none;opacity:1;color:black;marker:none;marker-start:none;marker-mid:none;marker-end:none;stroke-dashoffset:0;visibility:visible;display:inline;overflow:visible" />
  </g>
  <use
     x="0"
     y="0"
     xlink:href="#g2098"
     id="use2207"
     transform="matrix(-1,0,0,-1,206,315)"
     width="206"
     height="315" />
  <path
     style="fill:none;fill-opacity:0.75;fill-rule:evenodd;stroke:black;stroke-width:5.01187741;stroke-linecap:square;stroke-linejoin:miter;stroke-opacity:1;stroke-miterlimit:4;stroke-dasharray:none"
     d="M 38.467618,257.01405 L 166.83239,57.149685"
     id="path2209"
     sodipodi:nodetypes="cc" />
  <path
     style="fill:none;fill-opacity:0.75;fill-rule:evenodd;stroke:white;stroke-width:3.00712645;stroke-linecap:square;stroke-linejoin:miter;stroke-opacity:1;stroke-miterlimit:4;stroke-dasharray:none"
     d="M 38.467618,257.01405 L 166.83239,57.149685"
     id="path3098"
     sodipodi:nodetypes="cc" />
</svg>
