<?xml version="1.0" encoding="UTF-8" standalone="no"?>
<!-- Created with Inkscape (http://www.inkscape.org/) -->
<svg
   xmlns:dc="http://purl.org/dc/elements/1.1/"
   xmlns:cc="http://web.resource.org/cc/"
   xmlns:rdf="http://www.w3.org/1999/02/22-rdf-syntax-ns#"
   xmlns:svg="http://www.w3.org/2000/svg"
   xmlns="http://www.w3.org/2000/svg"
   xmlns:sodipodi="http://sodipodi.sourceforge.net/DTD/sodipodi-0.dtd"
   xmlns:inkscape="http://www.inkscape.org/namespaces/inkscape"
   width="744.09448819"
   height="1052.3622047"
   id="svg2"
   sodipodi:version="0.32"
   inkscape:version="0.45.1"
   sodipodi:docbase="/home/mikelima/kde/src/playground/artwork/carddecks/tigullio"
   sodipodi:docname="numbers.svg"
   inkscape:output_extension="org.inkscape.output.svg.inkscape">
  <defs
     id="defs4">
    <pattern
       patternUnits="userSpaceOnUse"
       width="4.96843"
       height="10"
       patternTransform="translate(170.03157,332.36218)"
       id="pattern2216">
      <path
         sodipodi:nodetypes="cccccccccccccc"
         id="i-1"
         d="M 1.97087,0.02232 L 0,10 L 0.98304,10 L 1.55546,7.00198 L 3.37999,7.03355 L 3.99122,10 L 4.96843,10 L 4.96843,9.9376 L 2.99563,-5.6843419e-14 L 1.97087,0.02232 z M 2.4289,2.23024 L 3.09846,5.97266 L 1.83699,5.97266 L 2.4289,2.23024 z "
         style="font-size:12px;font-style:normal;font-weight:normal;fill:#000000;fill-opacity:1;stroke:none;stroke-width:1px;stroke-linecap:butt;stroke-linejoin:miter;stroke-opacity:1;font-family:Loma" />
    </pattern>
  </defs>
  <sodipodi:namedview
     id="base"
     pagecolor="#ffffff"
     bordercolor="#666666"
     borderopacity="1.0"
     gridtolerance="10000"
     guidetolerance="10"
     objecttolerance="10"
     inkscape:pageopacity="0.0"
     inkscape:pageshadow="2"
     inkscape:zoom="11.188163"
     inkscape:cx="5.628167"
     inkscape:cy="1043.4482"
     inkscape:document-units="px"
     inkscape:current-layer="layer1"
     showgrid="true"
     inkscape:window-width="1270"
     inkscape:window-height="747"
     inkscape:window-x="0"
     inkscape:window-y="26"
     showguides="true"
     inkscape:guide-bbox="true">
    <sodipodi:guide
       orientation="horizontal"
       position="1035.4911"
       id="guide2164" />
    <sodipodi:guide
       orientation="horizontal"
       position="1033.0258"
       id="guide2166" />
  </sodipodi:namedview>
  <metadata
     id="metadata7">
    <rdf:RDF>
      <cc:Work
         rdf:about="">
        <dc:format>image/svg+xml</dc:format>
        <dc:type
           rdf:resource="http://purl.org/dc/dcmitype/StillImage" />
      </cc:Work>
    </rdf:RDF>
  </metadata>
  <g
     inkscape:label="Layer 1"
     inkscape:groupmode="layer"
     id="layer1">
    <path
       style="font-size:12px;font-style:normal;font-weight:normal;fill:#000000;fill-opacity:1;stroke:none;stroke-width:1px;stroke-linecap:butt;stroke-linejoin:miter;stroke-opacity:1;font-family:Loma"
       d="M 174.61469,321.63394 L 175.83929,321.63394 L 179.35492,330.13004 L 178.07172,330.13004 L 176.89398,327.37027 L 173.63617,327.37027 L 172.52875,330.13004 L 171.32758,330.13004 L 174.61469,321.63394 M 176.63031,326.30386 L 175.20062,322.88199 L 173.88812,326.30386 L 176.63031,326.30386 M 185.39594,329.11636 L 185.39594,330.13004 L 179.7182,330.13004 C 179.7182,329.23551 180.45062,328.17691 181.91547,326.95425 C 182.17328,326.73551 182.41937,326.53238 182.65375,326.34488 C 182.88812,326.15738 183.10492,325.96402 183.30414,325.7648 C 183.50726,325.56559 183.68109,325.37027 183.82562,325.17886 C 183.97406,324.98356 184.08929,324.77067 184.17133,324.54019 C 184.25726,324.30582 184.30023,324.06168 184.30023,323.80777 C 184.30023,323.37418 184.14593,323.01871 183.83734,322.74136 C 183.52874,322.46012 183.14398,322.3195 182.68304,322.31949 C 182.17523,322.3195 181.76898,322.47575 181.46429,322.78824 C 181.15961,323.09684 181.00531,323.51481 181.0014,324.04214 L 179.91742,324.04214 C 179.90961,323.27262 180.16742,322.64762 180.69086,322.16714 C 181.21429,321.68668 181.88617,321.44645 182.70648,321.44644 C 183.47992,321.44645 184.11859,321.6652 184.6225,322.10269 C 185.1303,322.53629 185.38421,323.11246 185.38422,323.83121 C 185.38421,324.03824 185.36077,324.24137 185.3139,324.44058 C 185.27093,324.6359 185.22015,324.81168 185.16156,324.96793 C 185.10296,325.12027 185.01116,325.28629 184.88617,325.46597 C 184.76507,325.64176 184.6596,325.78629 184.56976,325.89957 C 184.47991,326.00895 184.34515,326.14957 184.16547,326.32144 C 183.98968,326.48941 183.85296,326.61637 183.75531,326.7023 C 183.65765,326.78434 183.50335,326.91324 183.29242,327.08902 C 183.08148,327.2648 182.93304,327.3898 182.84711,327.46402 C 182.76117,327.53824 182.61273,327.65933 182.40179,327.8273 C 182.19476,327.99527 182.03656,328.12808 181.92719,328.22574 C 181.82171,328.31949 181.69476,328.4484 181.54633,328.61246 C 181.40179,328.77652 181.2807,328.94449 181.18304,329.11636 L 185.39594,329.11636 M 186.53851,327.62808 L 187.5932,327.62808 C 187.59711,328.10074 187.75726,328.48355 188.07367,328.77652 C 188.39398,329.06949 188.79437,329.21597 189.27484,329.21597 C 189.78265,329.21597 190.20452,329.05777 190.54047,328.74136 C 190.8764,328.42496 191.04437,328.01871 191.04437,327.52261 C 191.04437,327.03824 190.89593,326.65543 190.59906,326.37418 C 190.30218,326.09293 189.9057,325.95231 189.40961,325.9523 C 189.15179,325.95231 188.88812,325.98941 188.61859,326.06363 L 188.61859,325.13785 C 189.16937,325.19645 189.64593,325.08317 190.04828,324.798 C 190.45452,324.51285 190.65765,324.13199 190.65765,323.65543 C 190.65765,323.27262 190.52679,322.96989 190.26508,322.74722 C 190.00726,322.52457 189.66937,322.41325 189.2514,322.41324 C 188.80609,322.41325 188.45257,322.53825 188.19086,322.78824 C 187.92914,323.03434 187.76507,323.39176 187.69867,323.8605 L 186.64398,323.8605 C 186.66351,323.18082 186.91937,322.60856 187.41156,322.14371 C 187.90765,321.67887 188.51312,321.44645 189.22797,321.44644 C 189.92327,321.44645 190.51507,321.65739 191.00336,322.07925 C 191.49554,322.49723 191.74163,323.03043 191.74164,323.67886 C 191.74163,324.06949 191.62835,324.42887 191.40179,324.75699 C 191.17523,325.08512 190.89398,325.32535 190.55804,325.47769 C 191.62835,325.74723 192.16351,326.42105 192.16351,327.49918 C 192.16351,328.27652 191.88812,328.9191 191.33734,329.42691 C 190.78656,329.93472 190.0971,330.18863 189.26898,330.18863 C 188.76507,330.18863 188.30609,330.08121 187.89203,329.86636 C 187.47796,329.65152 187.14984,329.34879 186.90765,328.95816 C 186.66937,328.56363 186.54633,328.12027 186.53851,327.62808 M 196.5932,330.13004 L 196.5932,328.09683 L 192.86664,328.09683 L 192.86664,327.07144 L 196.5932,321.50504 L 197.64789,321.50504 L 197.64789,327.07144 L 198.80804,327.07144 L 198.80804,328.09683 L 197.64789,328.09683 L 197.64789,330.13004 L 196.5932,330.13004 M 196.5932,327.07144 L 196.5932,323.58511 L 194.185,327.07144 L 196.5932,327.07144 M 199.89203,327.69839 L 200.99945,327.69839 C 201.17523,328.71793 201.72601,329.22769 202.65179,329.22769 C 203.19867,329.22769 203.63812,329.04215 203.97015,328.67105 C 204.30218,328.29605 204.4682,327.81363 204.4682,327.22379 C 204.4682,326.63395 204.30804,326.17301 203.98773,325.84097 C 203.66742,325.50895 203.21624,325.34293 202.63422,325.34293 C 202.05609,325.34293 201.57367,325.59879 201.18695,326.1105 L 200.07953,325.9816 L 200.91156,321.50504 L 205.18304,321.50504 L 205.18304,322.55972 L 201.8725,322.55972 L 201.40961,324.73941 C 201.72601,324.4777 202.20843,324.34684 202.85687,324.34683 C 203.66937,324.34684 204.32757,324.6027 204.83148,325.11441 C 205.33538,325.62613 205.58734,326.29801 205.58734,327.13004 C 205.58734,327.69254 205.46624,328.20621 205.22406,328.67105 C 204.98577,329.13199 204.64007,329.50113 204.18695,329.77847 C 203.73773,330.05191 203.22601,330.18863 202.65179,330.18863 C 201.85492,330.18863 201.21234,329.96597 200.72406,329.52066 C 200.23968,329.07144 199.96234,328.46402 199.89203,327.69839 M 212.04437,323.66714 L 210.99554,323.66714 C 210.89788,323.27262 210.73382,322.9777 210.50336,322.78238 C 210.27679,322.58707 209.95648,322.48746 209.54242,322.48355 C 208.31585,322.48356 207.6889,323.38785 207.66156,325.19644 C 207.88421,324.92301 208.14593,324.72379 208.44672,324.59879 C 208.74749,324.46988 209.11664,324.40543 209.55414,324.40543 C 210.30804,324.40543 210.93695,324.67887 211.44086,325.22574 C 211.94476,325.76871 212.19671,326.44449 212.19672,327.25308 C 212.19671,327.79215 212.08734,328.28433 211.86859,328.72964 C 211.65374,329.17105 211.33929,329.52457 210.92523,329.79019 C 210.51116,330.05582 210.03851,330.18863 209.50726,330.18863 C 209.07367,330.18863 208.68695,330.12027 208.34711,329.98355 C 208.00726,329.84683 207.72406,329.65738 207.4975,329.41519 C 207.27093,329.17301 207.08343,328.87613 206.935,328.52457 C 206.79047,328.1691 206.685,327.78629 206.61859,327.37613 C 206.55609,326.96598 206.52484,326.5148 206.52484,326.02261 C 206.52484,322.97184 207.55218,321.44645 209.60687,321.44644 C 210.27484,321.44645 210.84906,321.65739 211.32953,322.07925 C 211.80999,322.49723 212.04827,323.02653 212.04437,323.66714 M 207.86664,327.25894 C 207.86664,327.81754 208.01117,328.28433 208.30023,328.65933 C 208.58929,329.03433 208.98578,329.22183 209.48969,329.22183 C 210.0014,329.22183 210.39984,329.04215 210.685,328.68277 C 210.97406,328.3234 211.11859,327.86832 211.11859,327.31754 C 211.11859,326.75113 210.97015,326.2902 210.67328,325.93472 C 210.38031,325.57926 209.9721,325.40152 209.44867,325.40152 C 208.95648,325.40152 208.56976,325.57535 208.28851,325.923 C 208.00726,326.27066 207.86664,326.71598 207.86664,327.25894 M 213.32172,322.55972 L 213.32172,321.50504 L 218.88226,321.50504 L 218.88226,322.55972 C 218.00726,323.61051 217.28265,324.78238 216.70844,326.07535 C 216.06781,327.52066 215.74749,328.87222 215.7475,330.13004 L 214.47015,330.13004 C 214.47406,328.75894 214.85101,327.24332 215.60101,325.58316 C 216.13226,324.39567 216.73577,323.38785 217.41156,322.55972 L 213.32172,322.55972 M 221.55414,325.41324 C 220.69476,325.09684 220.26507,324.51285 220.26508,323.66129 C 220.26507,322.98551 220.49945,322.4484 220.9682,322.04996 C 221.43695,321.64762 222.02484,321.44645 222.73187,321.44644 C 223.45062,321.44645 224.04632,321.65348 224.51898,322.06754 C 224.99163,322.4777 225.22796,323.01871 225.22797,323.69058 C 225.22796,324.09684 225.11663,324.4484 224.89398,324.74527 C 224.67523,325.03824 224.36468,325.2609 223.96234,325.41324 C 224.49359,325.60074 224.89593,325.87027 225.16937,326.22183 C 225.4428,326.56949 225.57952,327.02457 225.57953,327.58707 C 225.57952,328.39957 225.32171,329.03629 224.80609,329.49722 C 224.29437,329.95816 223.60882,330.18863 222.74945,330.18863 C 221.93304,330.18863 221.25726,329.94839 220.72211,329.46793 C 220.18695,328.98746 219.91937,328.35074 219.91937,327.55777 C 219.91937,326.97574 220.06195,326.50504 220.34711,326.14566 C 220.63617,325.78629 221.03851,325.54215 221.55414,325.41324 M 221.3432,323.62613 C 221.3432,324.02848 221.4721,324.35465 221.72992,324.60464 C 221.99164,324.85074 222.33343,324.97379 222.75531,324.97379 C 223.16156,324.97379 223.49359,324.8566 223.7514,324.62222 C 224.01312,324.38395 224.14398,324.07145 224.14398,323.68472 C 224.14398,323.28629 224.01507,322.96598 223.75726,322.72379 C 223.49945,322.48161 223.16156,322.36051 222.74359,322.3605 C 222.33734,322.36051 222.0014,322.47379 221.73578,322.70035 C 221.47406,322.92301 221.3432,323.2316 221.3432,323.62613 M 221.00336,327.56363 C 221.00336,328.05972 221.17132,328.46793 221.50726,328.78824 C 221.8432,329.10855 222.26117,329.26871 222.76117,329.26871 C 223.28851,329.26871 223.71038,329.11636 224.02679,328.81168 C 224.3432,328.50699 224.5014,328.10269 224.5014,327.59879 C 224.5014,327.08707 224.33929,326.6984 224.01508,326.43277 C 223.69476,326.16715 223.26507,326.03434 222.72601,326.03433 C 222.20648,326.03434 221.78851,326.16715 221.47211,326.43277 C 221.15961,326.6984 221.00336,327.07535 221.00336,327.56363 M 226.92719,327.96793 L 227.97601,327.96793 C 228.07367,328.36637 228.23578,328.66324 228.46234,328.85855 C 228.69281,329.05386 229.01507,329.15152 229.42914,329.15152 C 230.05413,329.15152 230.51898,328.92691 230.82367,328.47769 C 231.13226,328.02848 231.29437,327.34879 231.31,326.43863 C 231.08734,326.71207 230.82562,326.91324 230.52484,327.04214 C 230.22406,327.16715 229.85492,327.22965 229.41742,327.22964 C 228.68304,327.22965 228.05804,326.95621 227.54242,326.40933 C 227.0307,325.86246 226.77484,325.18668 226.77484,324.38199 C 226.77484,323.54606 227.02289,322.84879 227.51898,322.29019 C 228.01898,321.7277 228.66742,321.44645 229.46429,321.44644 C 229.98382,321.44645 230.43695,321.54801 230.82367,321.75113 C 231.21429,321.95426 231.52484,322.24332 231.75531,322.61832 C 231.98968,322.99332 232.16351,323.43082 232.27679,323.93082 C 232.39007,324.42692 232.44671,324.98746 232.44672,325.61246 C 232.44671,326.14371 232.41351,326.63199 232.34711,327.0773 C 232.2846,327.52262 232.17718,327.94058 232.02484,328.33121 C 231.8764,328.72183 231.68695,329.05191 231.45648,329.32144 C 231.22601,329.59097 230.93304,329.80386 230.57758,329.96011 C 230.2221,330.11246 229.81781,330.18863 229.36469,330.18863 C 228.69671,330.18863 228.1225,329.97964 227.64203,329.56168 C 227.16156,329.1398 226.92328,328.60855 226.92719,327.96793 M 231.10492,324.37613 C 231.11273,323.81364 230.97015,323.34684 230.67719,322.97574 C 230.38812,322.60075 229.98968,322.41325 229.48187,322.41324 C 228.97015,322.41325 228.56976,322.59098 228.2807,322.94644 C 227.99554,323.29801 227.85296,323.75504 227.85297,324.31754 C 227.85296,324.88395 227.99945,325.34488 228.29242,325.70035 C 228.58929,326.05582 228.99945,326.23355 229.52289,326.23355 C 230.0307,326.23355 230.42327,326.06168 230.70062,325.71793 C 230.97796,325.37027 231.11273,324.92301 231.10492,324.37613 M 237.26312,330.13004 L 236.20844,330.13004 L 236.20844,323.47964 C 236.02484,323.77653 235.73382,324.05192 235.33539,324.30582 C 234.93695,324.55973 234.52484,324.72965 234.09906,324.81558 L 234.09906,323.66129 C 234.58343,323.43864 235.01898,323.13785 235.4057,322.75894 C 235.79632,322.38004 236.0639,321.96207 236.20844,321.50504 L 237.26312,321.50504 L 237.26312,330.13004 M 239.97601,325.89371 C 239.97601,325.22184 240.02093,324.63395 240.11078,324.13004 C 240.20453,323.62614 240.35492,323.17887 240.56195,322.78824 C 240.77289,322.39372 241.06195,322.09489 241.42914,321.89175 C 241.80023,321.68473 242.24749,321.58122 242.77094,321.58121 C 244.63421,321.58122 245.56585,323.01871 245.56586,325.89371 C 245.56585,326.41715 245.53655,326.89371 245.47797,327.32339 C 245.41937,327.74918 245.32171,328.14371 245.185,328.50699 C 245.04827,328.86636 244.87249,329.1691 244.65765,329.41519 C 244.44671,329.65738 244.18109,329.84683 243.86078,329.98355 C 243.54437,330.12027 243.18109,330.18863 242.77094,330.18863 C 240.90765,330.18863 239.97601,328.75699 239.97601,325.89371 M 241.05414,325.89371 C 241.05414,328.17105 241.6264,329.30972 242.77094,329.30972 C 243.91546,329.30972 244.48773,328.17105 244.48773,325.89371 C 244.48773,323.60465 243.91156,322.46012 242.75922,322.46011 C 242.52484,322.46012 242.31585,322.50309 242.13226,322.58902 C 241.95257,322.67106 241.80023,322.79215 241.67523,322.9523 C 241.55414,323.11246 241.45062,323.2941 241.36469,323.49722 C 241.28265,323.69645 241.2182,323.93278 241.17133,324.20621 C 241.12836,324.47574 241.09711,324.74332 241.07758,325.00894 C 241.06195,325.27457 241.05414,325.56949 241.05414,325.89371 M 251.22015,321.63394 L 251.22015,327.45816 C 251.22015,327.86051 251.18499,328.21597 251.11469,328.52457 C 251.04437,328.83316 250.94281,329.09293 250.81,329.30386 C 250.68109,329.5109 250.51898,329.68082 250.32367,329.81363 C 250.12835,329.94644 249.91156,330.04214 249.67328,330.10074 C 249.43499,330.15933 249.16546,330.18863 248.86469,330.18863 C 248.48187,330.18863 248.14789,330.13785 247.86273,330.03629 C 247.57757,329.93472 247.35101,329.80191 247.18304,329.63785 C 247.01898,329.47379 246.88617,329.26871 246.78461,329.02261 C 246.68304,328.77652 246.61468,328.53238 246.57953,328.29019 C 246.54437,328.0441 246.52679,327.76871 246.52679,327.46402 L 247.58148,327.46402 C 247.58148,328.05777 247.69086,328.48551 247.90961,328.74722 C 248.12835,329.00504 248.44476,329.13394 248.85883,329.13394 C 249.72992,329.13394 250.16546,328.6691 250.16547,327.73941 L 250.16547,322.63004 L 248.54242,322.63004 L 248.54242,321.63394 L 251.22015,321.63394 M 257.39594,327.34683 C 257.64202,327.35074 257.87249,327.38199 258.08734,327.44058 C 258.30609,327.49918 258.48773,327.57535 258.63226,327.6691 C 258.78069,327.75894 258.89007,327.83316 258.96039,327.89175 C 259.0346,327.94644 259.0971,328.00113 259.14789,328.05582 C 259.54632,327.55973 259.74554,326.82144 259.74554,325.84097 C 259.74554,324.80582 259.49749,323.99528 259.0014,323.40933 C 258.5053,322.8195 257.78851,322.52457 256.85101,322.52457 C 256.40179,322.52457 256.00335,322.59098 255.6557,322.72379 C 255.30804,322.8527 255.02679,323.02457 254.81195,323.23941 C 254.60101,323.45426 254.42718,323.71403 254.29047,324.01871 C 254.15375,324.3234 254.06,324.63395 254.00922,324.95035 C 253.95843,325.26285 253.93304,325.60074 253.93304,325.96402 C 253.93304,327.31559 254.39984,328.25504 255.33344,328.78238 C 255.41546,328.47769 255.56781,328.21402 255.79047,327.99136 C 256.01702,327.7648 256.26702,327.60074 256.54047,327.49918 C 256.81781,327.39762 257.10296,327.34684 257.39594,327.34683 M 260.91742,325.84683 C 260.91741,327.36637 260.5678,328.39566 259.86859,328.93472 C 259.96624,329.04019 260.10882,329.09683 260.29633,329.10464 C 260.601,329.10465 260.8803,329.00113 261.13422,328.7941 L 261.8725,329.60269 C 261.43499,330.00894 260.92718,330.21207 260.34906,330.21207 C 260.07952,330.21207 259.81585,330.16324 259.55804,330.06558 C 259.30022,329.96402 259.08929,329.81363 258.92523,329.61441 C 258.60882,329.81754 258.30218,329.96402 258.00531,330.05386 C 257.70843,330.14371 257.35882,330.18863 256.95648,330.18863 C 255.66351,330.18863 254.64007,329.80191 253.88617,329.02847 C 253.13617,328.25113 252.76117,327.22379 252.76117,325.94644 C 252.76117,324.55973 253.12445,323.46793 253.85101,322.67105 C 254.57757,321.87028 255.57562,321.46989 256.84515,321.46988 C 257.66937,321.46989 258.39007,321.65348 259.00726,322.02066 C 259.62835,322.38786 260.10101,322.90153 260.42523,323.56168 C 260.75335,324.21793 260.91741,324.97965 260.91742,325.84683 M 258.30414,328.80582 C 258.06976,328.52847 257.79241,328.3898 257.47211,328.3898 C 257.39398,328.3898 257.31976,328.39762 257.24945,328.41324 C 257.17913,328.42496 257.11468,328.44254 257.05609,328.46597 C 257.0014,328.48941 256.94866,328.51676 256.89789,328.548 C 256.85101,328.57926 256.80804,328.61246 256.76898,328.64761 C 256.73382,328.67886 256.70062,328.71402 256.66937,328.75308 C 256.63812,328.78824 256.61273,328.8234 256.5932,328.85855 C 256.57367,328.8898 256.55609,328.92301 256.54047,328.95816 C 256.52484,328.98941 256.51117,329.01676 256.49945,329.04019 C 256.49163,329.05972 256.48577,329.07535 256.48187,329.08707 L 256.47601,329.1105 C 256.56976,329.13785 256.69671,329.15152 256.85687,329.15152 C 257.1889,329.14761 257.48382,329.11246 257.74164,329.04605 C 258.00335,328.97574 258.19085,328.89566 258.30414,328.80582 M 262.75726,330.13004 L 262.75726,321.63394 L 263.81195,321.63394 L 263.81195,325.53043 L 268.15961,321.63394 L 269.58929,321.63394 L 265.45258,325.40738 L 269.76508,330.13004 L 268.39984,330.13004 L 264.685,326.20425 L 263.81195,326.97183 L 263.81195,330.13004 L 262.75726,330.13004"
       id="text2176" />
    <rect
       style="fill:none;stroke:none"
       width="4.96843"
       height="10"
       x="170.03157"
       y="332.36218"
       id="rect2219"
       ry="0" />
    <path
       style="font-size:12px;font-style:normal;font-weight:normal;fill:#000000;fill-opacity:1;stroke:none;stroke-width:1px;stroke-linecap:butt;stroke-linejoin:miter;stroke-opacity:1;font-family:Loma"
       d="M 37.134624,2.5590326 C 35.115404,2.5590574 33.5,3.1751428 32.211552,4.4175077 C 30.923076,5.6598727 30.269248,7.2759218 30.288484,9.26568 L 32.980796,9.26568 C 32.9904,7.9021517 33.307752,6.8315238 34.057704,6.0335817 C 34.807712,5.2255695 35.807732,4.821551 37.057708,4.8215262 C 38.192324,4.821551 39.144212,5.2255447 39.903851,5.9527482 C 40.663464,6.6699065 41.057676,7.5789171 41.057704,8.7000442 C 41.057704,9.3566084 41.086517,11.178178 40.875004,11.784218 C 40.673069,12.380163 40.394216,12.976059 40.028844,13.481051 C 39.673076,13.975998 39.221156,14.420396 38.72116,14.935533 C 38.230768,15.45062 37.682696,15.985921 37.105784,16.470773 C 36.528844,16.9556 35.971168,17.440403 35.336548,18.006014 C 31.730764,21.167448 30,25.04919 30,27.362183 L 44,27.362183 L 44,24.77648 L 33.615388,24.77648 C 33.679004,24.273 33.807664,23.604208 34.16346,22.957144 C 34.427528,22.476905 35.076904,21.561347 35.336548,21.318945 C 35.605768,21.066449 35.9808,20.70281 36.4904,20.268532 C 37.009632,19.834204 37.432684,19.571564 37.644252,19.379686 C 37.855764,19.18776 38.201928,18.86455 38.72116,18.410032 C 39.240364,17.955539 39.634604,17.57171 39.875012,17.359619 C 40.115364,17.137432 40.442292,16.824268 40.875004,16.389964 C 41.317292,15.945566 41.653824,15.622357 41.874996,15.339526 C 42.09614,15.046626 42.346153,14.662797 42.64424,14.208279 C 42.951905,13.743692 43.192313,13.309339 43.33654,12.91544 C 43.480768,12.511422 43.61542,12.046809 43.721148,11.541817 C 43.836536,11.026705 43.749988,9.2353706 43.750016,8.7000442 C 43.749988,6.8415939 43.076897,5.3770423 41.826949,4.2559152 C 40.586548,3.1246932 39.038456,2.5590326 37.134624,2.5590326 z "
       id="i-2"
       sodipodi:nodetypes="csccsssssssssccccsssssssssssssc" />
    <path
       style="font-size:12px;font-style:normal;font-weight:normal;fill:#000000;fill-opacity:1;stroke:none;stroke-width:1px;stroke-linecap:butt;stroke-linejoin:miter;stroke-opacity:1;font-family:Loma"
       d="M 50.688892,2.559181 C 48.909716,2.559181 47.4125,3.1132679 46.177784,4.2697213 C 44.952784,5.4264309 44.281904,6.8550753 44.233324,8.5462056 L 46.877784,8.5462056 C 47.04304,7.3797979 47.470824,6.5149524 48.122216,5.9026457 C 48.77358,5.2806269 49.658352,4.9696158 50.766676,4.9696158 C 51.80696,4.9696158 52.613864,5.1930533 53.255568,5.7471472 C 53.906932,6.3012341 54.266704,7.7159313 54.266676,8.6683644 C 54.266676,9.8541792 53.722188,11.391069 52.711108,12.100657 C 51.709716,12.809997 50.504148,13.101595 49.133324,12.955797 L 49.133324,15.210738 C 49.804176,15.025864 50.513864,14.97736 51.155568,14.97736 C 52.390256,14.97736 53.372216,15.288371 54.111108,15.988244 C 54.85,16.6879 55.199972,18.548479 55.2,19.753434 C 55.2,20.987759 54.791648,22.998381 53.955568,23.785593 C 53.119404,24.572808 52.030512,24.951748 50.766676,24.951748 C 49.570824,24.951748 48.608324,24.592229 47.811108,23.86322 C 47.023608,23.134459 46.576392,22.16237 46.566676,20.986514 L 44,20.986514 C 44.01946,22.211155 44.340312,23.348189 44.933324,24.329726 C 45.536108,25.301826 46.313864,26.049982 47.344432,26.584669 C 48.375,27.119093 49.512472,27.362183 50.766676,27.362183 C 52.827756,27.362183 54.529148,26.759585 55.9,25.49613 C 57.270824,24.232693 57.999972,21.609778 58,19.675811 C 58,16.99342 56.61946,14.481728 53.955568,13.811187 C 54.791676,13.432016 55.491704,12.839113 56.055568,12.022782 C 56.619432,11.206441 56.91108,9.7180912 56.911108,8.7459906 C 56.91108,7.1327291 56.347216,5.1542259 55.122216,4.1142086 C 53.906932,3.06476 52.419404,2.559181 50.688892,2.559181 z "
       id="i-3"
       sodipodi:nodetypes="csccsssssccssssssccssssscsssc" />
    <path
       style="fill-opacity:1;stroke:none"
       d="M 20.622217,2.6143972 L 15,27.362183 L 17.804277,27.362183 L 19.414597,20.011285 L 24.641953,20.004417 L 26.385583,27.362183 L 29.173228,27.362183 L 23.545506,2.559033 L 20.622217,2.6143972 z M 21.92882,8.0907552 L 23.838845,17.351775 L 20.217706,17.351775 L 21.92882,8.0907552 z "
       id="i-a"
       sodipodi:nodetypes="ccccccccccccc" />
    <path
       sodipodi:nodetypes="ccccccccccccc"
       id="path2166"
       d="M 185.62222,347.6144 L 180,372.36218 L 182.80428,372.36218 L 184.4146,365.01128 L 189.64195,365.00442 L 191.38558,372.36218 L 194.17323,372.36218 L 188.54551,347.55903 L 185.62222,347.6144 z M 186.92882,353.09075 L 188.83884,362.35177 L 185.21771,362.35177 L 186.92882,353.09075 z "
       style="fill-opacity:1;stroke:none" />
    <path
       style="font-size:12px;font-style:normal;font-weight:normal;fill:#000000;fill-opacity:1;stroke:none;stroke-width:1px;stroke-linecap:butt;stroke-linejoin:miter;stroke-opacity:1;font-family:Loma"
       d="M 1,2.5591818 L 1,27.362183 L 3.7616752,27.362183 L 3.7616752,19.412709 L 5.6231763,16.114524 L 11.152993,27.362183 L 14,27.362183 L 7.2311651,13.589688 L 13.651786,2.5591818 L 10.453309,2.5907824 L 3.7616752,13.675462 L 3.7616752,2.5591818 L 1,2.5591818 z "
       id="i-k"
       inkscape:label="#path2168"
       sodipodi:nodetypes="ccccccccccccc" />
    <rect
       style="opacity:1;fill:#008000;fill-opacity:1;stroke-width:0.875;stroke-linecap:round;stroke-linejoin:round;stroke-miterlimit:4;stroke-dasharray:none;stroke-opacity:1"
       id="rect2176"
       width="25"
       height="3"
       x="-26.053488"
       y="-8.9416618"
       transform="matrix(0.5120491,-0.8589562,0.8589562,0.5120491,0,0)" />
  </g>
</svg>
