<?xml version="1.0" encoding="UTF-8" standalone="no"?>
<!-- Created with Sodipodi ("http://www.sodipodi.com/") -->
<!--
*
* Copyright 2004, 2006 Luciano Montanaro
*
-->
<svg
   xmlns:dc="http://purl.org/dc/elements/1.1/"
   xmlns:cc="http://web.resource.org/cc/"
   xmlns:rdf="http://www.w3.org/1999/02/22-rdf-syntax-ns#"
   xmlns:svg="http://www.w3.org/2000/svg"
   xmlns="http://www.w3.org/2000/svg"
   xmlns:xlink="http://www.w3.org/1999/xlink"
   xmlns:sodipodi="http://sodipodi.sourceforge.net/DTD/sodipodi-0.dtd"
   xmlns:inkscape="http://www.inkscape.org/namespaces/inkscape"
   viewBox="0 0 206 315"
   id="svg548"
   sodipodi:version="0.32"
   sodipodi:docname="queen-of-hearts.svg"
   width="58mm"
   height="88mm"
   sodipodi:docbase="/home/mikelima/kde/src/playground/artwork/carddecks/tigullio"
   inkscape:version="0.45.1"
   inkscape:output_extension="org.inkscape.output.svg.inkscape">
  <metadata
     id="metadata98">
    <rdf:RDF>
      <cc:Work
         rdf:about="">
        <dc:format>image/svg+xml</dc:format>
        <dc:type
           rdf:resource="http://purl.org/dc/dcmitype/StillImage" />
      </cc:Work>
    </rdf:RDF>
  </metadata>
  <defs
     id="defs550" />
  <sodipodi:namedview
     id="base"
     inkscape:zoom="1.7144125"
     inkscape:cx="95.711867"
     inkscape:cy="158.86863"
     inkscape:window-width="951"
     inkscape:window-height="731"
     inkscape:window-x="319"
     inkscape:window-y="26"
     inkscape:current-layer="svg548" />
  <g
     id="g18579">
    <path
       sodipodi:nodetypes="cccccccsc"
       id="path849"
       d="M 77.107153,112.26208 C 74.979553,117.64308 75.51902,131.07408 71.24332,134.17908 C 68.99882,132.92508 69.283153,132.38808 66.465853,133.22108 C 64.627553,133.95208 64.370153,135.53008 64.883453,138.11208 C 58.406053,134.45008 54.544953,136.73108 51.072253,138.11208 C 47.907253,154.03308 36.556353,200.16208 36.829653,200.98208 C 39.027353,208.04208 48.578653,206.59208 58.121653,212.34708 C 62.368053,207.74308 92.425453,143.26008 92.937053,133.65308 C 93.321453,123.75908 82.604153,114.09408 77.107153,112.26208 z "
       style="opacity:0.98999999;fill:green;fill-rule:evenodd;stroke:black;stroke-width:1.26278404;stroke-miterlimit:4;stroke-dasharray:none" />
    <path
       sodipodi:nodetypes="cssccc"
       id="path852"
       d="M 37.26125,201.1251 C 36.24075,200.6941 32.00235,207.9411 31.21885,208.8941 C 28.44835,212.4071 29.22575,214.4861 31.50665,216.8071 C 35.08665,220.2241 50.043027,225.49827 50.831327,225.34827 L 60.397403,212.95277 C 55.481003,209.19777 40.42745,206.9521 37.26125,201.1251 z "
       style="fill:#fe0;fill-rule:evenodd;stroke:black" />
    <path
       sodipodi:nodetypes="ccccc"
       id="path658"
       d="M 35.810243,204.40448 C 34.911443,205.32548 32.789953,208.11588 31.703353,209.57988 C 29.790443,215.66428 48.532796,221.78271 52.445006,222.31051 L 58.91128,215.04771 C 56.15468,213.86311 39.654293,209.85548 35.810243,204.40448 z "
       style="fill-rule:evenodd;stroke:black" />
    <path
       sodipodi:nodetypes="cccccc"
       id="path793"
       d="M 85.514305,139.5292 C 81.276905,143.3652 73.948553,155.56108 69.831653,164.14108 C 66.508453,170.94508 51.345073,209.01948 47.907588,224.60079 C 49.470102,228.72376 52.758514,233.27032 53.207764,232.92982 L 117.22582,136.47975 C 106.50782,138.09675 89.830305,138.8942 85.514305,139.5292 z "
       style="opacity:0.98999999;fill:red;fill-rule:evenodd;stroke:black" />
    <path
       sodipodi:nodetypes="csscsccs"
       id="path851"
       d="M 33.520753,160.12408 C 33.520753,158.82908 34.427153,133.77208 46.756353,134.51608 C 58.220753,135.21608 58.791853,156.70908 58.984853,158.68508 C 59.373853,161.64708 59.423853,180.81008 59.128753,188.60908 C 51.738153,195.27808 45.085953,196.12908 40.243853,200.21108 C 36.560753,203.23208 31.977653,207.96308 29.653453,211.45408 C 29.817553,203.96808 36.700353,185.19408 37.548953,183.71808 C 32.596953,173.59708 33.520753,163.86408 33.520753,160.12408 z "
       style="fill:white;fill-rule:evenodd;stroke:black;stroke-width:1.26278404;stroke-miterlimit:4;stroke-dasharray:none" />
    <g
       transform="translate(1.525879e-4,7.629395e-5)"
       id="g882">
      <path
         transform="matrix(-1,0,0,1,88.96562,-0.994377)"
         sodipodi:nodetypes="cscsc"
         id="path879"
         d="M 40.9376,132.854 C 36.8981,128.888 35.6687,125.532 32.2818,123.925 C 28.5189,122.249 23.3376,124.653 19.7753,126.642 C 22.9859,127.858 26.7389,133.475 29.8137,134.063 C 34.7201,135.036 38.5814,133.211 40.9376,132.854 z "
         style="fill:green;fill-opacity:1;fill-rule:evenodd;stroke:black;stroke-width:1pt;stroke-linecap:butt;stroke-linejoin:miter;stroke-opacity:1" />
      <path
         sodipodi:nodetypes="cc"
         id="path881"
         d="M 49.8291,131.285 C 54.3866,127.075 56.6605,126.172 62.314,126.203"
         style="fill:none;fill-opacity:1;fill-rule:evenodd;stroke:black;stroke-width:0.875;stroke-linecap:round;stroke-linejoin:miter;stroke-dasharray:none;stroke-opacity:1" />
    </g>
    <g
       transform="translate(1.525879e-4,7.629395e-5)"
       id="g885">
      <path
         transform="translate(3.535542,-1.657295)"
         sodipodi:nodetypes="cscsc"
         id="path877"
         d="M 40.9376,132.854 C 42.6434,127.783 42.6582,125.614 41.0102,121.494 C 39.3251,117.391 31.9555,115.814 28.5037,115.814 C 30.8304,118.798 30.6184,124.834 31.692,127.544 C 33.4898,132.362 38.5814,133.211 40.9376,132.854 z "
         style="fill:green;fill-opacity:1;fill-rule:evenodd;stroke:black;stroke-width:1pt;stroke-linecap:butt;stroke-linejoin:miter;stroke-opacity:1" />
      <path
         sodipodi:nodetypes="cc"
         id="path880"
         d="M 35.5764,116.369 C 39.333,119.053 44.0838,124.444 43.3104,129.296"
         style="fill:none;fill-opacity:1;fill-rule:evenodd;stroke:black;stroke-width:0.875;stroke-linecap:round;stroke-linejoin:miter;stroke-dasharray:none;stroke-opacity:1" />
    </g>
    <path
       sodipodi:nodetypes="cc"
       id="path888"
       d="M 64.844153,138.01008 C 69.585453,142.18608 72.804053,158.20508 72.969153,158.94708"
       style="fill:none;fill-rule:evenodd;stroke:black;stroke-width:0.875;stroke-linecap:round" />
    <path
       sodipodi:nodetypes="cc"
       id="path889"
       d="M 71.19832,134.31241 C 73.62822,137.25541 74.804458,138.008 76.531858,145.001"
       style="fill:none;fill-rule:evenodd;stroke:black;stroke-width:0.875;stroke-linecap:round" />
    <g
       transform="translate(-0.441942,0.147314)"
       id="g3834">
      <g
         id="g868"
         transform="translate(1.525879e-4,7.629395e-5)">
        <path
           style="opacity:0.98999999;fill:#ffd0d0;fill-rule:evenodd;stroke:black;stroke-width:1pt"
           d="M 49.0578,138.4 C 46.9753,138.909 45.6471,138.756 44.5804,138.807 C 41.4611,137.642 32.8807,133.799 31.2185,133.798 C 28.9312,133.796 24.6512,135.252 23.8815,135.38 C 22.6975,135.778 21.9565,138.222 22.8744,139.265 C 22.0548,139.271 21.0666,139.653 20.7847,140.465 C 20.4348,141.118 20.1561,143.379 21.6756,144.561 C 19.7393,144.975 19.1545,146.755 20.6568,147.837 C 19.6642,148.489 19.8518,150.61 20.2849,150.977 C 21.5159,152.016 24.9961,152.882 25.8621,152.577 C 26.449,152.044 26.9041,151.041 26.548,150.188 C 27.5277,150.231 29.0827,150.191 30.2115,149.479 C 30.7224,149.682 35.6092,151.978 36.6854,152.356 C 38.116,152.841 40.6317,154.035 43.5138,151.586 C 44.6944,151.939 47.9016,152.669 48.7785,152.722 C 49.4569,150.607 49.7522,144.762 49.7522,143.073 C 49.7522,138.618 49.1437,138.858 49.0578,138.4 z "
           id="path807"
           sodipodi:nodetypes="ccsccsccccccsccsc" />
        <path
           style="fill:green;fill-rule:evenodd;stroke:black;stroke-width:1pt"
           d="M 52.1864,109.762 C 49.7973,120.192 43.7058,127.234 37.6394,132.04 C 28.6512,139.263 23.6069,152.512 21.4646,158.388 C 21.9293,158.659 23.3085,159.18 24.0078,159.711 C 26.0696,153.343 33.3917,138.525 40.4877,133.262 C 45.1164,129.878 52.5656,120.999 54.8314,110.067 C 54.4954,110.067 52.5403,109.824 52.1864,109.762 z "
           id="path823"
           sodipodi:nodetypes="csccscc"
           transform="translate(4.069114,1.729374)" />
        <g
           id="g829">
          <path
             style="fill:#ffd0d0;fill-opacity:1;fill-rule:evenodd;stroke:black;stroke-width:0.875;stroke-linecap:butt;stroke-linejoin:miter;stroke-dasharray:none;stroke-opacity:1"
             d="M 21.8714,144.756 C 19.8538,145.011 19.9647,147.206 20.9569,148.24 C 21.8759,149.103 23.6192,150.469 25.2284,150.657 C 27.9493,150.352 29.4454,150.068 30.3149,149.335 C 31.2779,148.601 31.6142,146.86 30.0097,146.385 C 28.8601,146.722 27.1346,146.886 25.3894,146.998 C 23.6717,146.08 22.7948,145.646 21.8714,144.756 z "
             id="path817"
             sodipodi:nodetypes="csccccc" />
          <path
             style="fill:none;fill-opacity:1;fill-rule:evenodd;stroke:black;stroke-width:0.875;stroke-linecap:butt;stroke-linejoin:miter;stroke-dasharray:none;stroke-opacity:1"
             d="M 22.1551,144.731 C 23.9534,145.978 24.9415,146.674 25.5359,146.745 C 25.871,146.968 27.2373,146.745 27.6939,146.745 C 28.2153,146.745 29.8168,146.668 30.6431,146.026 C 31.0747,145.489 32.7612,143.857 28.9168,143.364 C 27.7712,143.487 24.0626,140.515 23.0903,139.624"
             id="path816"
             sodipodi:nodetypes="cccccc" />
          <path
             style="fill:none;fill-rule:evenodd;stroke:black;stroke-width:0.875;stroke-linecap:round"
             d="M 23.1622,139.48 C 24.1132,140.185 26.2835,142.039 28.7009,143.077 C 30.1985,143.204 31.8895,143.245 33.3046,142.933 C 34.1678,142.381 34.2397,141.542 33.0888,140.487 C 31.0204,139.956 28.8986,139.482 27.9657,138.117"
             id="path814"
             sodipodi:nodetypes="ccccc" />
          <path
             style="fill:#ffd0d0;fill-rule:evenodd;stroke:black;stroke-width:0.875;stroke-linecap:round"
             d="M 41.5557,139.417 C 38.0121,139.366 35.7592,138.86 34.7908,138.705 C 34.0428,138.578 32.6234,138.383 31.9424,138.145 C 31.4039,137.957 29.6426,137.222 29.1958,137.026 C 29.0519,137.314 29.1031,139.272 29.3992,139.773 C 29.7119,140.303 31.1159,141.158 32.0441,141.4 C 34.4804,142.035 38.4861,143.622 38.8599,143.842 C 39.1624,144.848 41.4685,146.354 42.0134,146.487 C 42.5155,146.609 44.0819,146.69 44.3532,146.69"
             id="path811"
             sodipodi:nodetypes="csscsscsc" />
          <path
             style="fill:none;fill-rule:evenodd;stroke:black;stroke-width:0.875;stroke-linecap:round;stroke-dasharray:none"
             d="M 45.4613,149.55 C 44.7608,150.295 44.0511,150.925 43.0876,151.636"
             id="path818"
             sodipodi:nodetypes="cc" />
        </g>
      </g>
      <path
         style="fill:red;fill-rule:evenodd;stroke:black"
         d="M 46.562858,98.634895 C 49.688658,100.51059 48.710558,106.65959 50.312858,109.02559 C 52.706458,112.3286 56.508958,111.78159 57.500358,111.9166 C 59.460358,112.16259 62.208358,113.88659 64.687858,110.8226 C 67.153458,107.9686 65.778658,103.48459 71.875458,101.4476 C 70.937358,100.62459 69.630858,95.778595 66.908058,95.529095 C 64.172058,95.389495 63.489258,96.376295 62.401158,98.034495 C 61.879458,95.206495 61.288358,95.152895 60.038258,92.380595 C 58.127058,94.532295 57.046558,95.624495 56.385458,97.331495 C 55.717658,95.747795 55.211158,94.787995 53.607458,94.546895 C 51.626158,94.359495 47.771658,97.871795 46.562858,98.634895 z "
         id="path894"
         sodipodi:nodetypes="cssscscccsc" />
      <path
         style="fill:#fe0;fill-rule:evenodd;stroke:black"
         d="M 46.562858,98.634895 C 49.688658,100.51059 48.710558,106.65959 50.312858,109.02559 C 52.706458,112.3286 56.508958,111.78159 57.500358,111.9166 C 59.460358,112.16259 62.208358,113.88659 64.687858,110.8226 C 67.153458,107.9686 65.778658,103.48459 71.875458,101.4476 C 70.937358,100.62459 68.967958,98.982595 66.245158,99.285595 C 63.522358,99.588595 62.936758,101.6796 61.406758,104.8846 C 60.885058,102.0566 60.625458,100.2352 59.375358,97.462895 C 57.464158,99.614595 56.052158,102.4746 55.391058,104.1816 C 54.723258,100.9406 55.189658,99.516295 53.828458,98.634795 C 52.620558,97.894995 47.771658,97.871795 46.562858,98.634895 z "
         id="path891"
         sodipodi:nodetypes="cssscscccsc" />
    </g>
    <path
       sodipodi:nodetypes="ccc"
       id="path896"
       d="M 40.962717,181.84466 C 39.178317,185.84866 42.261117,187.51866 42.316717,191.03666 C 44.861217,187.78666 46.455117,186.28666 45.792217,182.63966"
       style="fill:none;fill-rule:evenodd;stroke:black;stroke-width:0.875;stroke-linecap:round" />
    <path
       sodipodi:nodetypes="cssc"
       id="path855"
       d="M 46.57585,138.16496 C 46.652981,136.58965 48.133097,136.14608 48.700997,138.37108 C 49.724697,142.24108 49.225611,149.88702 48.537111,153.41502 C 46.642311,162.72402 44.537453,167.58308 37.675753,183.43508"
       style="fill:none;fill-rule:evenodd;stroke:black;stroke-width:1.26278404;stroke-linecap:round;stroke-miterlimit:4;stroke-dasharray:none" />
    <path
       sodipodi:nodetypes="ccc"
       id="path898"
       d="M 49.028198,160.74184 C 47.243798,164.74584 50.326598,166.41584 50.382198,169.93384 C 52.926698,166.68384 54.520598,165.18384 53.857698,161.53684"
       style="fill:none;fill-rule:evenodd;stroke:black;stroke-width:0.875;stroke-linecap:round" />
    <path
       sodipodi:nodetypes="ccc"
       id="path899"
       d="M 37.86911,157.09579 C 36.08471,161.09979 39.16751,162.76979 39.22311,166.28779 C 41.76761,163.03779 43.36151,161.53779 42.69861,157.89079"
       style="fill:none;fill-rule:evenodd;stroke:black;stroke-width:0.875;stroke-linecap:round" />
    <path
       sodipodi:nodetypes="ccc"
       id="path900"
       d="M 51.569369,176.32037 C 49.784969,180.32437 52.867769,181.99437 52.923369,185.51237 C 55.467869,182.26237 57.061769,180.76237 56.398869,177.11537"
       style="fill:none;fill-rule:evenodd;stroke:black;stroke-width:0.875;stroke-linecap:round" />
    <path
       sodipodi:nodetypes="cc"
       id="path902"
       d="M 71.243386,177.47758 C 67.881399,185.25428 58.165435,216.16817 54.972081,224.87613"
       style="fill:none;fill-rule:evenodd;stroke:black;stroke-width:0.875;stroke-linecap:round" />
    <path
       sodipodi:nodetypes="cc"
       id="path903"
       d="M 76.499053,180.05708 C 75.50312,182.54141 70.446701,203.37093 69.926078,207.23356"
       style="fill:none;fill-rule:evenodd;stroke:black;stroke-width:0.875;stroke-linecap:round" />
    <path
       sodipodi:nodetypes="ccccc"
       id="path5422"
       d="M 76.282842,152.40058 C 80.737208,157.81741 90.005723,160.58008 100.63292,161.33908 C 100.19602,161.77608 95.21572,170.17574 92.74242,173.27574 C 87.017242,172.57547 76.288094,169.97725 70.318719,163.17608 C 72.350549,157.99082 74.293542,154.32158 76.282842,152.40058 z "
       style="fill-rule:evenodd;stroke-width:0.88394883;fill:#08f;stroke:black;stroke-opacity:1;stroke-miterlimit:4;stroke-dasharray:none" />
    <path
       sodipodi:nodetypes="ccccc"
       id="path904"
       d="M 75.093416,154.17143 C 77.814958,159.27074 90.508844,162.78168 99.487082,163.27725 C 99.117976,163.56258 96.808791,169.16832 94.719257,171.19241 C 87.069919,170.11018 75.440893,166.63859 71.152052,160.59496 C 72.868616,157.20934 73.412782,155.4257 75.093416,154.17143 z "
       style="fill-rule:evenodd;stroke-width:1.25" />
    <g
       transform="translate(-4.419417,0)"
       id="g4462">
      <path
         style="fill:#fe0;fill-rule:evenodd;stroke:black"
         d="M 120.69632,135.43475 L 145.35855,100.0454 C 141.97155,91.005998 128.98215,80.479476 126.85915,82.203476 C 120.58815,86.134876 111.37715,120.79008 102.67615,141.39008 C 102.15015,142.77608 115.94532,136.40175 120.69632,135.43475 z "
         id="path805"
         sodipodi:nodetypes="ccccc" />
      <path
         style="fill:green;fill-rule:evenodd;stroke:black"
         d="M 119.60876,138.04772 L 145.87939,100.038 C 142.49239,90.998595 135.70115,87.979466 132.32815,85.328486 C 129.19315,87.294276 135.38915,103.85108 132.08515,116.17208 C 129.30615,126.37908 120.77715,130.30908 112.67615,136.54608 C 115.90015,136.52608 115.63876,137.45272 119.60876,138.04772 z "
         id="path901"
         sodipodi:nodetypes="cccscc" />
      <path
         style="fill-rule:evenodd"
         d="M 135.28715,86.499266 C 138.42915,89.788876 140.88115,105.20775 138.85915,111.09675 L 146.46788,99.43582 C 145.47988,96.16621 140.56915,87.956486 135.28715,86.499266 z "
         id="path640"
         sodipodi:nodetypes="cccc" />
      <path
         style="fill:#80d0ff;fill-rule:evenodd;stroke:black"
         d="M 78.224953,92.723276 C 77.985353,95.227876 80.209653,101.05908 84.633153,104.87608 C 86.493853,103.61408 106.52315,90.370376 102.31115,85.762476 C 93.554053,75.962276 92.307853,57.559276 92.367253,52.395476 C 81.311353,74.382376 82.931353,85.679976 78.224953,92.723276 z "
         id="path698"
         sodipodi:nodetypes="ccscc" />
      <path
         style="fill:#80d0ff;fill-rule:evenodd;stroke:black"
         d="M 129.68915,92.538876 C 134.98015,90.415376 138.20915,93.239276 138.51715,95.273276 C 138.87215,97.617376 139.10215,100.32708 139.37715,102.53908 C 139.56215,104.61508 133.32615,108.88508 130.70515,110.42908"
         id="path695"
         sodipodi:nodetypes="cssc" />
      <path
         style="fill:none;fill-rule:evenodd;stroke:black"
         d="M 85.028153,90.554576 C 85.890853,88.837776 86.726453,86.856476 87.171653,85.488176"
         id="path703"
         sodipodi:nodetypes="cc" />
      <path
         style="opacity:0.98999999;fill:#fe0;fill-rule:evenodd;stroke:black"
         d="M 91.108353,94.236676 C 88.458453,97.250476 78.908053,103.21608 79.169853,114.57808 C 79.328353,121.60408 87.832553,129.38508 88.985253,137.14008 C 91.869753,139.11608 99.261853,145.30808 99.906353,145.09308 C 100.94615,144.05308 104.57715,86.848976 104.57715,85.650676 C 104.57715,84.574276 99.708053,84.311976 91.108353,94.236676 z "
         id="path803"
         sodipodi:nodetypes="cscccs" />
      <path
         style="fill:white;fill-rule:evenodd;stroke:black;stroke-width:0.8839488;stroke-linecap:round;stroke-linejoin:round;stroke-miterlimit:4;stroke-dasharray:none"
         d="M 83.010853,110.63408 C 82.666253,119.15108 86.830953,123.42008 89.772453,128.90508 C 91.858553,132.52608 95.403953,141.08608 95.239353,144.72908 C 99.073853,144.70708 101.02815,144.46208 103.29615,145.30508 C 104.32815,137.89808 116.86248,129.18141 120.52548,126.18641 C 124.98648,122.38741 128.55545,118.23408 128.14845,99.436376 C 128.09845,97.139876 129.10138,93.653677 128.50138,92.121877 C 126.41966,98.007915 114.02715,84.900076 104.73515,83.730276 C 101.11815,86.271976 94.405353,92.930976 90.910353,97.711176 C 87.159153,102.49108 83.253653,106.40008 83.010853,110.63408 z "
         id="path790"
         sodipodi:nodetypes="csccssccss" />
      <path
         style="opacity:0.98000004;fill:white;fill-rule:evenodd;stroke:black;stroke-width:0.8839488;stroke-miterlimit:4;stroke-dasharray:none"
         d="M 105.88515,85.601276 C 101.56915,87.759276 93.800453,95.240276 89.916053,103.44008 C 95.526853,102.43308 102.31515,101.95808 107.75615,102.57708 C 116.43215,103.54808 120.13915,105.88608 122.44115,107.32508 C 123.16115,100.56308 123.14915,95.384076 124.15615,91.787376 L 105.88515,85.601276 z "
         id="path785"
         sodipodi:nodetypes="ccsccc" />
      <g
         id="g4448">
        <path
           sodipodi:nodetypes="cscscc"
           id="path789"
           d="M 90.166453,103.20808 C 90.166453,103.20808 85.166253,108.14808 86.504253,114.31408 C 87.846053,120.49808 96.960553,132.21408 99.669553,140.42608 C 103.67315,132.38208 110.74615,128.18708 113.96915,125.96708 C 119.62015,121.97608 122.60415,116.60208 122.41915,106.27008 C 110.29415,100.68508 97.454253,101.48208 90.166453,103.20808 z "
           style="fill:#80d0ff;fill-rule:evenodd;stroke:black;stroke-width:0.8839488;stroke-miterlimit:4;stroke-dasharray:none" />
        <path
           sodipodi:nodetypes="csscssc"
           id="path788"
           d="M 98.148563,126.65208 C 99.935963,123.66908 103.58449,121.53791 105.98649,116.88691 C 107.64749,113.52991 106.25299,110.43708 103.42699,110.03008 C 99.708296,109.62908 98.503363,113.88791 98.503363,113.88791 C 98.503363,113.88791 98.679963,109.43908 94.660963,109.67608 C 91.746263,109.77408 92.096163,114.03608 92.579963,116.00608 C 93.624963,120.04208 96.326263,123.10308 98.148563,126.65208 z "
           style="fill:red;fill-rule:evenodd;stroke:black;stroke-linejoin:round" />
      </g>
      <path
         style="fill:white;fill-rule:evenodd;stroke:black;stroke-width:0.88394883;stroke-miterlimit:4;stroke-dasharray:none;stroke-linejoin:round"
         d="M 121.71645,135.42624 C 112.59145,134.36024 100.48458,142.19045 99.007193,143.91645 C 96.129883,141.05845 90.422453,137.62108 88.707653,136.88708 C 89.061153,139.74408 88.209465,141.35726 86.824165,142.74226 C 89.509568,143.94314 93.211736,145.17434 98.312583,150.10208 C 103.41949,144.51292 112.64764,141.08237 118.16678,140.72375 C 119.52078,138.69375 119.59545,138.34424 121.71645,135.42624 z "
         id="path797"
         sodipodi:nodetypes="ccccccc" />
      <g
         id="g4275">
        <path
           sodipodi:nodetypes="cscccc"
           id="path1363"
           d="M 121.755,33.17432 C 126.9046,37.55138 132.8108,40.600207 135.0857,47.385337 C 138.2131,56.713337 140.86991,73.90839 147.48121,81.49343 C 150.80591,85.30788 152.20887,87.532201 152.99508,88.506183 L 145.78409,100.04853 C 137.20656,76.892822 127.12309,93.634422 121.755,33.17432 z "
           style="fill:#fe0;fill-rule:evenodd;stroke:black;stroke-width:1.26278404;stroke-miterlimit:4;stroke-dasharray:none" />
        <g
           id="g3959">
          <path
             style="opacity:0.98999999;fill:#80d0ff;fill-rule:evenodd;stroke:black;stroke-width:1.26278404;stroke-linejoin:round;stroke-miterlimit:4;stroke-dasharray:none"
             d="M 139.10315,103.55208 C 138.52615,105.22208 134.07315,108.84208 130.70515,110.51308 C 130.27415,106.45808 129.57315,96.453776 128.71615,92.834976 C 127.48815,93.718876 124.84015,94.093676 124.44615,92.247876 C 122.45715,63.226676 119.57015,62.526976 117.33615,42.895076 C 116.74615,37.922476 110.30115,34.248476 105.73615,34.277176 C 101.36515,34.198776 96.588053,35.848976 93.692553,41.569276 C 93.123553,42.544676 92.366753,46.516676 92.366753,47.535476 C 92.366753,48.566676 92.808653,71.584776 92.808653,72.615976 C 92.808653,73.647176 92.125553,80.051576 91.372353,82.891176 C 90.114853,80.611876 83.468753,78.125176 79.550353,77.808776 C 81.760053,74.825676 84.687053,67.511676 85.985353,63.240176 C 86.975553,60.332376 90.151153,43.189276 93.940353,37.591676 C 95.499053,35.190076 98.029353,30.472876 106.95115,29.968176 C 119.01015,29.824876 128.32415,35.730376 131.25815,41.127276 C 135.05615,48.387576 135.3665,53.08268 136.13333,59.234442 C 137.77099,72.372409 141.62025,78.853447 148.33748,89.048609 C 144.80748,90.218009 135.76715,94.318276 135.12515,100.01708 C 134.87515,102.22908 140.49215,99.796176 139.10315,103.55208 z "
             id="path647"
             sodipodi:nodetypes="ccccsscccccssssscss" />
          <path
             style="fill:none;fill-rule:evenodd;stroke:black;stroke-width:0.8839488;stroke-linecap:round;stroke-linejoin:round;stroke-miterlimit:4;stroke-dasharray:none"
             d="M 128.82915,93.086776 C 128.36015,90.899276 128.04815,88.711676 127.89215,86.602276 M 124.45515,92.539976 C 123.98615,85.438076 131.95915,85.447976 134.37615,85.196176 C 130.19015,80.905376 124.99848,65.934309 124.58448,64.076209 C 123.15048,58.654709 121.56315,51.628176 121.56315,48.398876"
             id="path654"
             sodipodi:nodetypes="cccccc" />
          <path
             style="fill:none;fill-rule:evenodd;stroke:black"
             d="M 135.23615,100.66508 C 133.98615,97.601776 131.87715,89.102076 131.33015,85.508376"
             id="path655"
             sodipodi:nodetypes="cc" />
          <path
             style="fill:none;fill-rule:evenodd;stroke:black"
             d="M 83.217953,85.415676 C 84.519253,83.544076 85.230253,81.929176 85.782653,79.725876"
             id="path702"
             sodipodi:nodetypes="cc" />
          <path
             style="fill:none;fill-rule:evenodd;stroke:black"
             d="M 91.372853,82.447776 C 91.593853,88.229976 83.443653,83.359576 82.800653,86.085976 C 82.239353,87.998176 85.609953,88.143576 85.226753,90.044676 C 84.678353,92.988776 79.204953,90.329676 78.224953,92.833576"
             id="path700"
             sodipodi:nodetypes="cssc" />
          <g
             id="g779"
             transform="translate(1.525879e-4,7.629395e-5)">
            <path
               style="opacity:0.98999999;fill:#fe0;fill-rule:evenodd;stroke:black;stroke-width:0.88394883;stroke-linejoin:round;stroke-miterlimit:4;stroke-dasharray:none"
               d="M 105.898,34.0781 C 101.584,34.1543 95.8204,36.8691 93.6909,40.7921 C 92.6318,42.845 92.291,46.6345 91.4529,49.5407 C 89.2125,57.411 90.734,52.3799 89.0114,58.4927 C 87.1642,65.1496 95.5062,64.6812 94.9117,65.9187 C 88.4108,79.2369 98.6366,75.0951 94.7082,81.4831 C 93.0289,84.2857 87.6814,86.9341 87.881,89.3007 C 87.9509,90.5975 88.0123,92.3353 89.6452,93.5127 C 90.5346,88.3049 93.0422,87.67 95.2457,86.5945 C 92.2037,89.2232 92.285,91.5541 92.9788,93.4243 C 93.3646,90.5841 95.6491,90.1056 97.0109,88.5022 C 95.4284,90.3972 94.476367,92.806767 96.033533,94.138533 C 103.62283,82.418767 122.879,74.924 119.835,57.3736 C 116.944,39.5366 116.479,38.0457 115.461,36.9265 C 112.806,34.0302 108.974,34.0256 105.898,34.0781 z "
               id="path733"
               sodipodi:nodetypes="csssssscccccsss" />
            <path
               style="opacity:0.98999999;fill:#ffff80;fill-rule:evenodd;stroke-width:0.875"
               d="M 105.898,34.0781 C 101.584,34.1543 95.8204,36.8691 93.6909,40.7921 C 92.6318,42.845 93.5117,46.7362 92.6736,49.6424 C 90.4332,57.5127 92.3616,52.3799 90.639,58.4927 C 88.7918,65.1496 98.0494,62.9518 97.4549,64.1893 C 90.954,77.5075 100.061,75.2986 96.1324,81.6866 C 94.4531,84.4892 88.8004,86.9341 89,89.3007 C 89.0699,90.5975 87.7071,89.9956 89.34,91.173 C 90.2294,85.9652 96.2325,85.2373 98.3397,83.9917 C 102.209,81.704 101.748,77.0956 99.286,74.9724 C 96.9633,73.0493 108.316,68.0267 109.457,69.5668 C 116.109,67.6387 122.879,74.924 119.835,57.3736 C 116.944,39.5366 116.479,38.0457 115.461,36.9265 C 112.806,34.0302 108.974,34.0256 105.898,34.0781 z "
               id="path760"
               sodipodi:nodetypes="csssssscsscsss" />
            <path
               style="fill:none;fill-rule:evenodd;stroke:black;stroke-width:0.88394883;stroke-linecap:round;stroke-miterlimit:4;stroke-dasharray:none"
               d="M 100.507,75.6833 C 101.54801,79.045697 100.95915,80.980398 100.23074,82.0778 C 99.28155,83.507841 96.907785,85.928243 94.890885,86.698143"
               id="path761"
               sodipodi:nodetypes="csc" />
            <path
               style="fill:none;fill-rule:evenodd;stroke:black;stroke-width:0.88394883;stroke-linecap:round;stroke-miterlimit:4;stroke-dasharray:none"
               d="M 100.584,74.9712 C 103.573,79.9414 96.636,85.158028 94.6192,86.843328"
               id="path762"
               sodipodi:nodetypes="cc"
               transform="translate(2.339745,1.729374)" />
          </g>
        </g>
        <g
           id="g4246">
          <g
             id="g3932">
            <g
               transform="translate(1.525879e-4,7.629395e-5)"
               style="opacity:0.98999999"
               id="g751">
              <path
                 sodipodi:nodetypes="ccsssccccccsss"
                 id="path740"
                 d="M 93.1823,43.3351 C 92.6696,46.7907 94.541857,49.130472 95.125672,49.8457 C 93.651539,51.420233 92.965247,53.988819 93.0734,56.352 C 93.252235,60.259622 94.8195,66.382 95.9958,68.9253 C 97.7953,72.816 100.559,76.2903 102.433,76.5404 C 103.17,76.5371 105.606,75.3585 106.509,75.0916 C 106.4,79.3147 105.695,82.4422 103.864,87.79 C 103.864,88.7855 96.9349,94.7275 95.8273,99.0817 C 105.39,96.8437 114.439,99.1099 120.75,101.015 C 120.92,98.2677 123.263,91.7171 124.21,90.7401 C 124.311,89.2142 121.768,67.4446 121.768,64.7996 C 121.768,63.172 118.795,45.9194 118.004,42.1144 C 116.943,36.8034 114.894,34.0822 105.796,33.8744 C 96.9876,33.8702 94.3033,35.9848 93.1823,43.3351 z "
                 style="opacity:0.98999999;fill:#ffd0d0;fill-rule:evenodd;stroke:black;stroke-width:1pt;stroke-linejoin:round" />
              <path
                 sodipodi:nodetypes="cc"
                 id="path744"
                 d="M 115.156,69.6819 C 113.143,71.5125 108.645,74.3613 105.797,75.3786"
                 style="fill:none;fill-rule:evenodd;stroke:black;stroke-width:1.25;stroke-linecap:round" />
            </g>
            <g
               transform="translate(1.525879e-4,7.629395e-5)"
               id="g593">
              <path
                 transform="matrix(0.868423,0,0,0.800002,22.49064,11.2982)"
                 sodipodi:ry="2.9908979"
                 sodipodi:rx="2.841362"
                 sodipodi:cy="90.88726"
                 sodipodi:cx="111.26148"
                 d="M 114.10284 90.88726 A 2.841362 2.9908979 0 1 1  108.42012,90.88726 A 2.841362 2.9908979 0 1 1  114.10284 90.88726 z"
                 id="path590"
                 style="fill:#fe0;fill-opacity:1;fill-rule:evenodd;stroke:black;stroke-width:1.49968004;stroke-linecap:butt;stroke-linejoin:miter;stroke-dasharray:none;stroke-opacity:1"
                 sodipodi:type="arc" />
              <path
                 transform="matrix(0.868421,0,0,0.849999,19.2008,10.79182)"
                 sodipodi:ry="2.9908979"
                 sodipodi:rx="2.841362"
                 sodipodi:cy="90.88726"
                 sodipodi:cx="111.26148"
                 d="M 114.10284 90.88726 A 2.841362 2.9908979 0 1 1  108.42012,90.88726 A 2.841362 2.9908979 0 1 1  114.10284 90.88726 z"
                 id="path587"
                 style="fill:#fe0;fill-opacity:1;fill-rule:evenodd;stroke:black;stroke-width:1.45491004;stroke-linecap:butt;stroke-linejoin:miter;stroke-dasharray:none;stroke-opacity:1"
                 sodipodi:type="arc" />
              <path
                 transform="matrix(0.789473,0,0,0.775,15.79673,15.43987)"
                 sodipodi:ry="2.9908979"
                 sodipodi:rx="2.841362"
                 sodipodi:cy="90.88726"
                 sodipodi:cx="111.26148"
                 d="M 114.10284 90.88726 A 2.841362 2.9908979 0 1 1  108.42012,90.88726 A 2.841362 2.9908979 0 1 1  114.10284 90.88726 z"
                 id="path588"
                 style="fill:#fe0;fill-opacity:1;fill-rule:evenodd;stroke:black;stroke-width:1.59805;stroke-linecap:butt;stroke-linejoin:miter;stroke-dasharray:none;stroke-opacity:1"
                 sodipodi:type="arc" />
              <path
                 transform="matrix(0.921053,0,0,0.899999,3.325427,7.294216)"
                 sodipodi:ry="2.9908979"
                 sodipodi:rx="2.841362"
                 sodipodi:cy="90.88726"
                 sodipodi:cx="111.26148"
                 d="M 114.10284 90.88726 A 2.841362 2.9908979 0 1 1  108.42012,90.88726 A 2.841362 2.9908979 0 1 1  114.10284 90.88726 z"
                 id="path592"
                 style="fill:#fe0;fill-opacity:1;fill-rule:evenodd;stroke:black;stroke-width:1.37292004;stroke-linecap:butt;stroke-linejoin:miter;stroke-dasharray:none;stroke-opacity:1"
                 sodipodi:type="arc" />
              <path
                 transform="translate(-0.598169,-0.448666)"
                 sodipodi:ry="2.9908979"
                 sodipodi:rx="2.841362"
                 sodipodi:cy="90.88726"
                 sodipodi:cx="111.26148"
                 d="M 114.10284 90.88726 A 2.841362 2.9908979 0 1 1  108.42012,90.88726 A 2.841362 2.9908979 0 1 1  114.10284 90.88726 z"
                 id="path589"
                 style="fill:#fe0;fill-opacity:1;fill-rule:evenodd;stroke:black;stroke-width:1pt;stroke-linecap:butt;stroke-linejoin:miter;stroke-opacity:1"
                 sodipodi:type="arc" />
            </g>
            <g
               id="g3915">
              <g
                 id="g634"
                 transform="translate(0.294781,2.504413)">
                <path
                   style="fill:none;fill-opacity:1;fill-rule:evenodd;stroke:black;stroke-width:0.875;stroke-linecap:round;stroke-linejoin:miter;stroke-dasharray:none;stroke-opacity:1"
                   d="M 102.15687,47.129217 C 101.11087,49.671517 97.208072,54.525417 99.165872,55.503717 L 100.96187,56.401017"
                   id="path599"
                   sodipodi:nodetypes="csc" />
                <g
                   id="g620">
                  <g
                     id="g2943">
                    <path
                       sodipodi:nodetypes="csc"
                       id="path613"
                       d="M 99.684617,62.769433 C 99.535117,64.408133 100.60992,65.932833 102.73092,66.056133 C 104.95492,66.103433 106.51192,64.329633 106.12492,62.759333"
                       style="fill:red;fill-rule:evenodd;stroke:black;stroke-width:0.8839488;stroke-miterlimit:4;stroke-dasharray:none" />
                    <path
                       sodipodi:nodetypes="ccsccs"
                       id="path609"
                       d="M 99.189633,61.299517 C 100.86883,61.067917 100.05583,58.066417 102.33483,60.560317 C 104.04383,57.617517 104.70283,61.594617 106.52783,61.520517 C 108.24483,61.446517 108.39583,58.349917 109.32883,61.697217 C 105.90283,63.309017 99.756033,63.597517 96.739933,61.127917 C 97.636333,58.340917 97.945033,61.456617 99.189633,61.299517 z "
                       style="opacity:0.98999999;fill:red;fill-rule:evenodd;stroke:black;stroke-width:0.8839488;stroke-linecap:round;stroke-linejoin:round;stroke-miterlimit:4;stroke-dasharray:none" />
                  </g>
                </g>
                <g
                   id="g628">
                  <path
                     style="opacity:0.98999999;fill:#80d0ff;fill-opacity:1;fill-rule:evenodd;stroke:black;stroke-width:0.8839488;stroke-linecap:butt;stroke-linejoin:miter;stroke-miterlimit:4;stroke-dasharray:none;stroke-opacity:1"
                     d="M 108.39794,44.650934 C 107.64594,44.617965 107.03494,45.797308 106.99294,47.033527 C 106.95194,48.308651 107.68794,49.434088 108.51594,49.416284 C 109.44394,49.396997 109.86794,48.156657 109.88294,46.904614 C 109.89794,45.679111 109.29194,44.692312 108.39794,44.650934 z "
                     id="path623"
                     sodipodi:nodetypes="cssss" />
                  <path
                     style="fill:none;fill-opacity:1;fill-rule:evenodd;stroke:black;stroke-width:0.875;stroke-linecap:round;stroke-linejoin:miter;stroke-dasharray:none;stroke-opacity:1"
                     d="M 111.646,43.1169 C 110.283,42.2883 109.184,42.3199 108.497,42.2883 C 107.994,42.3055 107.125,42.4245 105.845,43.1722"
                     id="path625"
                     sodipodi:nodetypes="csc" />
                </g>
                <g
                   id="g631">
                  <path
                     style="opacity:0.98999999;fill:#80d0ff;fill-opacity:1;fill-rule:evenodd;stroke:black;stroke-width:0.8839488;stroke-linecap:butt;stroke-linejoin:miter;stroke-miterlimit:4;stroke-dasharray:none;stroke-opacity:1"
                     d="M 98.306774,44.755137 C 97.554774,44.722168 96.943774,45.901513 96.901774,47.137732 C 96.860774,48.412855 97.596774,49.538294 98.424774,49.52049 C 99.352774,49.501203 99.776774,48.260862 99.791777,47.008819 C 99.806777,45.783314 99.200774,44.796515 98.306774,44.755137 z "
                     id="path624"
                     sodipodi:nodetypes="cssss" />
                  <path
                     style="fill:none;fill-opacity:1;fill-rule:evenodd;stroke:black;stroke-width:0.875;stroke-linecap:round;stroke-linejoin:miter;stroke-dasharray:none;stroke-opacity:1"
                     d="M 100.83236,43.139353 C 99.692056,42.644253 98.386956,42.361253 97.959156,42.365853 C 97.396256,42.427753 96.629556,42.331653 95.639056,43.084053"
                     id="path626"
                     sodipodi:nodetypes="csc" />
                </g>
              </g>
              <g
                 id="g756"
                 transform="translate(1.525879e-4,7.629395e-5)">
                <path
                   style="fill:#ffff80;fill-rule:evenodd;stroke:black;stroke-width:0.8839488;stroke-miterlimit:4;stroke-dasharray:none"
                   d="M 118.20033,43.109167 C 116.19333,42.984267 111.72942,40.99165 109.95042,39.48945 C 108.25842,37.99555 106.73575,36.3082 105.70475,34.0278 C 113.40008,34.0217 117.31733,36.754967 118.20033,43.109167 z "
                   id="path722"
                   sodipodi:nodetypes="cscc" />
                <path
                   style="fill:#ffff80;fill-rule:evenodd;stroke:black;stroke-width:0.8839488;stroke-miterlimit:4;stroke-dasharray:none"
                   d="M 93.379434,41.647733 C 95.505834,41.647733 100.927,40.0794 102.975,38.2718 C 104.23,37.2021 104.88258,35.346117 105.56458,34.195917 C 102.15858,33.559217 94.060317,35.121117 93.379434,41.647733 z "
                   id="path723"
                   sodipodi:nodetypes="cscc" />
              </g>
            </g>
          </g>
          <path
             style="opacity:0.98999999;fill:#ffff80;fill-rule:evenodd;stroke:black;stroke-width:0.8839488;stroke-miterlimit:4;stroke-dasharray:none"
             d="M 119.21915,49.501176 C 117.57615,56.308376 118.18315,60.897276 118.69915,65.027176 C 118.79215,65.753376 122.26715,86.714076 122.42915,87.615676 C 123.44615,92.709376 121.29515,94.493376 116.92115,94.808976 C 118.87115,99.638776 122.28715,98.082776 125.59415,93.801876 C 124.94815,93.338176 124.22515,92.673476 124.25715,89.998876 C 123.53015,83.562776 121.92115,61.455376 119.21915,49.501176 z "
             id="path784"
             sodipodi:nodetypes="csscccc" />
        </g>
        <g
           id="g4176">
          <g
             id="g685"
             transform="matrix(1.012799,-3.083702e-2,3.055458e-2,1.022161,-2.75791,2.906761)">
            <path
               style="fill:#fe0;fill-rule:evenodd;stroke:black;stroke-width:0.98238325pt"
               d="M 119.71,27.4066 C 121.355,27.4066 124.277,26.214 125.623,25.3167 C 125.424,27.186 125.938,29.0297 126.187,30.5999 L 119.71,27.4066 z "
               id="path558"
               sodipodi:nodetypes="cccc"
               transform="translate(0.591488,0.149536)" />
            <path
               style="fill:#fe0;fill-rule:evenodd;stroke:black;stroke-width:0.98238325pt"
               d="M 126.514,31.3696 C 128.342,31.3824 129.984,31.1853 131.445,30.9572 C 131.357,32.378 131.095,33.5304 131.309,34.9586 C 130.188,34.1361 128.33,32.4035 126.514,31.3696 z "
               id="path559"
               transform="translate(0.295754,0.149536)"
               sodipodi:nodetypes="cccc" />
            <path
               style="fill:#fe0;fill-rule:evenodd;stroke:black;stroke-width:1.22797906"
               d="M 111.186,25.7617 C 110.862,24.2662 110.163,22.6212 109.466,20.9762 C 110.64,22.3946 113.22,24.4747 115.83,26.2761 C 114.708,26.0018 112.008,26.1106 111.186,25.7617 z "
               id="path556"
               sodipodi:nodetypes="cccc"
               transform="translate(0.149546,0.149536)" />
            <path
               style="fill:#fe0;fill-rule:evenodd;stroke:black;stroke-width:0.98238325pt"
               d="M 114.161,25.9149 C 115.308,25.4164 117.039,24.8575 118.288,23.6733 C 118.587,25.393 119.281,26.6281 119.805,27.8242 C 117.785,27.0765 116.629,26.4383 114.161,25.9149 z "
               id="path557"
               sodipodi:nodetypes="cccc"
               transform="translate(0.149546,0.149536)" />
            <path
               style="fill:#fe0;fill-rule:evenodd;stroke:black;stroke-width:0.98238325pt"
               d="M 131.206,34.8129 C 132.777,35.4858 136.235,36.3793 138.105,36.6036 C 136.983,36.7531 134.815,37.426 133.917,37.8747 C 132.945,37.127 132.253,35.8595 131.206,34.8129 z "
               id="path560"
               sodipodi:nodetypes="cccc"
               transform="translate(0.149546,0.149536)" />
            <path
               style="fill:#fe0;fill-rule:evenodd;stroke:black;stroke-width:0.98238325pt;stroke-linejoin:round"
               d="M 109.691,21.5736 C 108.345,19.4799 107.224,17.3863 102.887,16.6386 C 104.532,15.517 107.492,15.1111 110.29,15.7413 C 112.815,16.3268 115.371,18.9706 114.401,20.6762 C 113.501,22.2606 111.037,22.3213 109.691,21.5736 z "
               id="path561"
               sodipodi:nodetypes="ccssc"
               transform="translate(0.149546,0.149536)" />
            <path
               style="fill:#fe0;fill-rule:evenodd;stroke:black;stroke-width:0.98238325pt;stroke-linecap:round;stroke-linejoin:round"
               d="M 109.691,21.5736 C 108.345,19.4799 107.224,17.3863 102.887,16.6386 C 104.532,15.517 107.492,15.1111 110.29,15.7413 C 112.815,16.3268 115.371,18.9706 114.401,20.6762 C 113.501,22.2606 111.037,22.3213 109.691,21.5736 z "
               id="path562"
               sodipodi:nodetypes="ccssc"
               transform="matrix(-0.34202,-0.939693,-0.939693,0.34202,196.1982,132.5184)" />
            <path
               style="fill:#fe0;fill-rule:evenodd;stroke:black;stroke-width:0.98238325pt;stroke-linejoin:round"
               d="M 131.123,17.1557 C 127.633,18.3188 124.192,17.8189 122.452,20.6452 C 120.865,23.3945 124.25,25.5093 125.836,24.7692 C 126.047,26.6726 129.11,28.7396 131.334,25.6152 C 132.635,23.6391 131.123,20.8567 131.123,17.1557 z "
               id="path563"
               sodipodi:nodetypes="cscsc"
               transform="translate(0.701981,0.26001)" />
            <path
               style="fill:#fe0;fill-rule:evenodd;stroke:black;stroke-width:1.22797906"
               d="M 110.214,29.5749 C 110.663,28.0795 110.97,26.4421 110.962,25.2382 C 115.142,25.1944 121.025,27.2082 125.08,29.9935 C 128.316,32.132 132.396,35.2395 134.466,37.7049 C 132.836,38.5839 132.095,39.2047 130.614,40.7032 C 128.5,38.1835 124.457,35.1247 121.58,33.6127 C 116.807,30.9293 114.251,30.1731 110.214,29.5749 z "
               id="path553"
               sodipodi:nodetypes="ccsccsc"
               transform="translate(0.149546,0.149536)" />
          </g>
          <g
             id="g4073">
            <path
               transform="matrix(1.322175,0.482337,-0.342714,0.93944,-23.94277,-53.46138)"
               sodipodi:ry="1.2957001"
               sodipodi:rx="1.3455391"
               sodipodi:cy="21.628208"
               sodipodi:cx="119.75294"
               d="M 121.09848 21.628208 A 1.3455391 1.2957001 0 1 1  118.4074,21.628208 A 1.3455391 1.2957001 0 1 1  121.09848 21.628208 z"
               id="path681"
               style="fill:red;fill-rule:evenodd;stroke:black;stroke-width:0.73760003"
               sodipodi:type="arc" />
            <path
               transform="matrix(1.031828,0.957145,-0.680078,0.73314,1.379229,-110.2447)"
               sodipodi:ry="1.2957001"
               sodipodi:rx="1.3455391"
               sodipodi:cy="21.628208"
               sodipodi:cx="119.75294"
               d="M 121.09848 21.628208 A 1.3455391 1.2957001 0 1 1  118.4074,21.628208 A 1.3455391 1.2957001 0 1 1  121.09848 21.628208 z"
               id="path682"
               style="fill:red;fill-rule:evenodd;stroke:black;stroke-width:0.73760003"
               sodipodi:type="arc" />
            <path
               transform="matrix(1.332967,0.451657,-0.320916,0.947108,-12.64993,-38.59092)"
               sodipodi:ry="1.2957001"
               sodipodi:rx="1.3455391"
               sodipodi:cy="21.628208"
               sodipodi:cx="119.75294"
               d="M 121.09848 21.628208 A 1.3455391 1.2957001 0 1 1  118.4074,21.628208 A 1.3455391 1.2957001 0 1 1  121.09848 21.628208 z"
               id="path683"
               style="fill:red;fill-rule:evenodd;stroke:black;stroke-width:0.73760003"
               sodipodi:type="arc" />
          </g>
        </g>
      </g>
    </g>
    <path
       sodipodi:nodetypes="csscc"
       id="path5418"
       d="M 100.68892,161.2701 C 100.54841,156.07099 99.422618,154.9264 97.096862,155.00006 C 94.404171,155.08534 93.417474,155.86696 93.428796,161.75981 C 93.438773,166.953 93.146805,172.7084 93.146805,172.7084 L 100.68892,161.2701 z "
       style="opacity:1;color:black;fill:#fe0;fill-opacity:1;fill-rule:nonzero;stroke:black;stroke-width:0.87499988;stroke-linecap:round;stroke-linejoin:round;marker:none;marker-start:none;marker-mid:none;marker-end:none;stroke-miterlimit:4;stroke-dasharray:none;stroke-dashoffset:0;stroke-opacity:1;visibility:visible;display:inline;overflow:visible" />
    <path
       id="path5420"
       d="M 100.4715,159.73114 L 93.621402,159.8048 L 93.547746,161.13062 L 100.32418,161.05696 L 100.4715,159.73114 z "
       style="opacity:1;color:black;fill:#fe0;fill-opacity:1;fill-rule:nonzero;stroke:black;stroke-width:0.8839488;stroke-linecap:round;stroke-linejoin:round;marker:none;marker-start:none;marker-mid:none;marker-end:none;stroke-miterlimit:4;stroke-dasharray:none;stroke-dashoffset:0;stroke-opacity:1;visibility:visible;display:inline;overflow:visible" />
  </g>
  <use
     x="0"
     y="0"
     xlink:href="#g18579"
     id="use18687"
     transform="matrix(-1,0,0,-1,206,315)"
     width="206"
     height="315" />
  <path
     style="fill:none;fill-rule:evenodd;stroke:#000000;stroke-width:5.05113618;stroke-linecap:butt;stroke-linejoin:miter;stroke-opacity:1;stroke-miterlimit:4;stroke-dasharray:none"
     d="M 52.226194,233.68272 L 152.39965,82.244022"
     id="path18689" />
  <path
     style="fill:none;fill-rule:evenodd;stroke:#ffffff;stroke-width:2.52556809;stroke-linecap:butt;stroke-linejoin:miter;stroke-opacity:1;stroke-miterlimit:4;stroke-dasharray:none"
     d="M 52.226194,233.68272 L 152.39965,82.244022"
     id="path18691" />
</svg>
