<?xml version="1.0" encoding="UTF-8" standalone="no"?>
<!-- Created with Sodipodi ("http://www.sodipodi.com/") -->
<!--
*
* Copyright 2004, 2006 Luciano Montanaro
*
-->
<svg
   xmlns:dc="http://purl.org/dc/elements/1.1/"
   xmlns:cc="http://web.resource.org/cc/"
   xmlns:rdf="http://www.w3.org/1999/02/22-rdf-syntax-ns#"
   xmlns:svg="http://www.w3.org/2000/svg"
   xmlns="http://www.w3.org/2000/svg"
   xmlns:xlink="http://www.w3.org/1999/xlink"
   xmlns:sodipodi="http://sodipodi.sourceforge.net/DTD/sodipodi-0.dtd"
   xmlns:inkscape="http://www.inkscape.org/namespaces/inkscape"
   viewBox="0 0 206 315"
   id="svg548"
   sodipodi:version="0.32"
   sodipodi:docname="queen-of-hearts.svg"
   width="58mm"
   height="88mm"
   sodipodi:docbase="/home/mikelima/src/kirulla/src/artwork"
   inkscape:version="0.44.1">
  <metadata
     id="metadata98">
    <rdf:RDF>
      <cc:Work
         rdf:about="">
        <dc:format>image/svg+xml</dc:format>
        <dc:type
           rdf:resource="http://purl.org/dc/dcmitype/StillImage" />
      </cc:Work>
    </rdf:RDF>
  </metadata>
  <defs
     id="defs550" />
  <sodipodi:namedview
     id="base"
     inkscape:zoom="1.7144125"
     inkscape:cx="102.75591"
     inkscape:cy="43.468635"
     inkscape:window-width="1590"
     inkscape:window-height="1118"
     inkscape:window-x="0"
     inkscape:window-y="26"
     inkscape:current-layer="svg548" />
  <g
     id="g1962">
    <path
       sodipodi:nodetypes="cscccccc"
       id="path1363"
       d="M 121.755 33.17432 C 126.9046 37.55138 133.1233 41.74604 135.3982 48.53117 C 138.5256 57.85917 139.6914 73.90839 146.3027 81.49343 C 149.6274 85.30788 156.6283 89.96288 156.236 91.45246 C 156.1544 91.76228 148.338 100.5381 147.9938 101.3007 C 125.1408 74.05706 141.2296 110.7172 138.3831 112.2038 C 137.5058 112.662 135.1316 107.1589 134.8049 106.2887 C 130.8816 95.83734 120.8315 34.3441 121.755 33.17432 z "
       style="font-size:12;fill:#ffee00;fill-rule:evenodd;stroke:#000000;" />
    <path
       transform="translate(1.525879e-4,7.629395e-5)"
       sodipodi:nodetypes="cccccccsc"
       id="path849"
       d="M 78.982 113.512 C 76.8544 118.893 76.3522 131.699 72.0765 134.804 C 69.832 133.55 69.283 132.388 66.4657 133.221 C 64.6274 133.952 64.37 135.53 64.8833 138.112 C 58.4059 134.45 54.5448 136.731 51.0721 138.112 C 47.9071 154.033 36.5562 200.162 36.8295 200.982 C 39.0272 208.042 48.5785 206.592 58.1215 212.347 C 62.3679 207.743 92.4253 143.26 92.9369 133.653 C 93.3213 123.759 84.479 115.344 78.982 113.512 z "
       style="font-size:12;opacity:0.99;fill:#008000;fill-rule:evenodd;stroke:#000000;" />
    <path
       transform="translate(1.525879e-4,7.629395e-5)"
       sodipodi:nodetypes="ccccc"
       id="path805"
       d="M 121.217 135.643 L 147.647 101.953 C 144.26 92.9136 128.982 80.4794 126.859 82.2034 C 120.588 86.1348 111.377 120.79 102.676 141.39 C 102.15 142.776 116.466 136.61 121.217 135.643 z "
       style="font-size:12;fill:#ffee00;fill-rule:evenodd;stroke:#000000;" />
    <path
       transform="translate(1.525879e-4,7.629395e-5)"
       sodipodi:nodetypes="cccscc"
       id="path901"
       d="M 120.7187 135.5433 L 147.647 101.953 C 144.26 92.9136 135.701 87.97939 132.328 85.32841 C 129.193 87.2942 135.389 103.851 132.085 116.172 C 129.306 126.379 120.777 130.309 112.676 136.546 C 115.9 136.526 116.7487 134.9483 120.7187 135.5433 z "
       style="font-size:12;fill:#008000;fill-rule:evenodd;stroke:#000000;" />
    <path
       transform="translate(1.525879e-4,7.629395e-5)"
       sodipodi:nodetypes="cccc"
       id="path640"
       d="M 135.287 86.49919 C 138.429 89.7888 141.506 106.041 139.484 111.93 L 147.8293 101.275 C 146.8413 98.00539 140.569 87.95641 135.287 86.49919 z "
       style="font-size:12;fill-rule:evenodd;" />
    <g
       style="font-size:12;"
       transform="translate(1.525879e-4,7.629395e-5)"
       id="g685">
      <path
         transform="translate(0.591488,0.149536)"
         sodipodi:nodetypes="cccc"
         id="path558"
         d="M 119.71 27.4066 C 121.355 27.4066 124.277 26.214 125.623 25.3167 C 125.424 27.186 125.938 29.0297 126.187 30.5999 L 119.71 27.4066 z "
         style="font-size:12;fill:#ffee00;fill-rule:evenodd;stroke:#000000;stroke-width:1pt;" />
      <path
         sodipodi:nodetypes="cccc"
         transform="translate(0.295754,0.149536)"
         id="path559"
         d="M 126.514 31.3696 C 128.342 31.3824 129.984 31.1853 131.445 30.9572 C 131.357 32.378 131.095 33.5304 131.309 34.9586 C 130.188 34.1361 128.33 32.4035 126.514 31.3696 z "
         style="font-size:12;fill:#ffee00;fill-rule:evenodd;stroke:#000000;stroke-width:1pt;" />
      <path
         transform="translate(0.149546,0.149536)"
         sodipodi:nodetypes="cccc"
         id="path556"
         d="M 111.186 25.7617 C 110.862 24.2662 110.163 22.6212 109.466 20.9762 C 110.64 22.3946 113.22 24.4747 115.83 26.2761 C 114.708 26.0018 112.008 26.1106 111.186 25.7617 z "
         style="font-size:12;fill:#ffee00;fill-rule:evenodd;stroke:#000000;stroke-width:1.25;" />
      <path
         transform="translate(0.149546,0.149536)"
         sodipodi:nodetypes="cccc"
         id="path557"
         d="M 114.161 25.9149 C 115.308 25.4164 117.039 24.8575 118.288 23.6733 C 118.587 25.393 119.281 26.6281 119.805 27.8242 C 117.785 27.0765 116.629 26.4383 114.161 25.9149 z "
         style="font-size:12;fill:#ffee00;fill-rule:evenodd;stroke:#000000;stroke-width:1pt;" />
      <path
         transform="translate(0.149546,0.149536)"
         sodipodi:nodetypes="cccc"
         id="path560"
         d="M 131.206 34.8129 C 132.777 35.4858 136.235 36.3793 138.105 36.6036 C 136.983 36.7531 134.815 37.426 133.917 37.8747 C 132.945 37.127 132.253 35.8595 131.206 34.8129 z "
         style="font-size:12;fill:#ffee00;fill-rule:evenodd;stroke:#000000;stroke-width:1pt;" />
      <path
         transform="translate(0.149546,0.149536)"
         sodipodi:nodetypes="ccsccsc"
         id="path553"
         d="M 110.214 29.5749 C 110.663 28.0795 110.97 26.4421 110.962 25.2382 C 115.142 25.1944 121.025 27.2082 125.08 29.9935 C 128.316 32.132 132.396 35.2395 134.466 37.7049 C 132.836 38.5839 132.095 39.2047 130.614 40.7032 C 128.5 38.1835 124.457 35.1247 121.58 33.6127 C 116.807 30.9293 114.251 30.1731 110.214 29.5749 z "
         style="font-size:12;fill:#ffee00;fill-rule:evenodd;stroke:#000000;stroke-width:1.25;" />
      <path
         transform="translate(0.149546,0.149536)"
         sodipodi:nodetypes="ccssc"
         id="path561"
         d="M 109.691 21.5736 C 108.345 19.4799 107.224 17.3863 102.887 16.6386 C 104.532 15.517 107.492 15.1111 110.29 15.7413 C 112.815 16.3268 115.371 18.9706 114.401 20.6762 C 113.501 22.2606 111.037 22.3213 109.691 21.5736 z "
         style="font-size:12;fill:#ffee00;fill-rule:evenodd;stroke:#000000;stroke-width:1pt;" />
      <path
         transform="matrix(-0.342020,-0.939693,-0.939693,0.342020,196.1982,132.5184)"
         sodipodi:nodetypes="ccssc"
         id="path562"
         d="M 109.691 21.5736 C 108.345 19.4799 107.224 17.3863 102.887 16.6386 C 104.532 15.517 107.492 15.1111 110.29 15.7413 C 112.815 16.3268 115.371 18.9706 114.401 20.6762 C 113.501 22.2606 111.037 22.3213 109.691 21.5736 z "
         style="font-size:12;fill:#ffee00;fill-rule:evenodd;stroke:#000000;stroke-width:1pt;" />
      <path
         transform="translate(0.701981,0.260010)"
         sodipodi:nodetypes="cscsc"
         id="path563"
         d="M 131.123 17.1557 C 127.633 18.3188 124.192 17.8189 122.452 20.6452 C 120.865 23.3945 124.25 25.5093 125.836 24.7692 C 126.047 26.6726 129.11 28.7396 131.334 25.6152 C 132.635 23.6391 131.123 20.8567 131.123 17.1557 z "
         style="font-size:12;fill:#ffee00;fill-rule:evenodd;stroke:#000000;stroke-width:1pt;" />
    </g>
    <path
       transform="translate(1.525879e-4,7.629395e-5)"
       sodipodi:nodetypes="ccscc"
       id="path698"
       d="M 78.2248 92.7232 C 77.9852 95.2278 80.2095 101.059 84.633 104.876 C 86.4937 103.614 106.523 90.3703 102.311 85.7624 C 93.5539 75.9622 92.3077 57.5592 92.3671 52.3954 C 81.3112 74.3823 82.9312 85.6799 78.2248 92.7232 z "
       style="font-size:12;fill:#80d0ff;fill-rule:evenodd;stroke:#000000;" />
    <path
       transform="translate(1.525879e-4,7.629395e-5)"
       sodipodi:nodetypes="cssc"
       id="path695"
       d="M 129.689 92.5388 C 134.98 90.4153 138.209 93.2392 138.517 95.2732 C 138.872 97.6173 139.102 100.327 139.377 102.539 C 139.562 104.615 133.326 108.885 130.705 110.429 "
       style="font-size:12;fill:#80d0ff;fill-rule:evenodd;stroke:#000000;" />
    <path
       transform="translate(1.525879e-4,7.629395e-5)"
       sodipodi:nodetypes="ccccsscccccssssscss"
       id="path647"
       d="M 139.103 103.552 C 138.526 105.222 134.073 108.842 130.705 110.513 C 130.274 106.458 129.573 96.4537 128.716 92.8349 C 127.488 93.7188 124.84 94.0936 124.446 92.2478 C 122.457 63.2266 119.57 62.5269 117.336 42.895 C 116.746 37.9224 110.301 34.2484 105.736 34.2771 C 101.365 34.1987 96.5879 35.8489 93.6924 41.5692 C 93.1234 42.5446 92.3666 46.5166 92.3666 47.5354 C 92.3666 48.5666 92.8085 71.5847 92.8085 72.6159 C 92.8085 73.6471 92.1254 80.0515 91.3722 82.8911 C 90.1147 80.6118 83.4686 78.1251 79.5502 77.8087 C 81.7599 74.8256 84.6869 67.5116 85.9852 63.2401 C 86.9754 60.3323 90.151 43.1892 93.9402 37.5916 C 95.4989 35.19 98.0292 30.4728 106.951 29.9681 C 119.01 29.8248 128.324 35.7303 131.258 41.1272 C 135.056 48.3875 134.652 54.6994 135.788 60.7938 C 137.009 67.2651 140.269 79.9752 148.754 91.9652 C 145.224 93.1346 135.767 94.3182 135.125 100.017 C 134.875 102.229 140.492 99.7961 139.103 103.552 z "
       style="font-size:12;opacity:0.99;fill:#80d0ff;fill-rule:evenodd;stroke:#000000;" />
    <path
       transform="translate(1.525879e-4,7.629395e-5)"
       sodipodi:nodetypes="cccccc"
       id="path654"
       d="M 128.829 93.0867 C 128.36 90.8992 128.048 88.7116 127.892 86.6022 M 124.455 92.5399 C 123.986 85.438 131.959 85.4479 134.376 85.1961 C 130.19 80.9053 124.165 65.7259 123.751 63.8678 C 122.317 58.4463 120.938 49.1281 120.938 45.8988 "
       style="font-size:12;fill:none;fill-rule:evenodd;stroke:#000000;stroke-width:1.25;stroke-linecap:round;" />
    <path
       transform="translate(1.525879e-4,7.629395e-5)"
       sodipodi:nodetypes="cc"
       id="path655"
       d="M 135.236 100.665 C 133.986 97.6017 131.877 89.102 131.33 85.5083 "
       style="font-size:12;fill:none;fill-rule:evenodd;stroke:#000000;" />
    <path
       transform="translate(1.525879e-4,7.629395e-5)"
       sodipodi:nodetypes="cc"
       id="path702"
       d="M 83.2178 85.4156 C 84.5191 83.544 85.2301 81.9291 85.7825 79.7258 "
       style="font-size:12;fill:none;fill-rule:evenodd;stroke:#000000;" />
    <path
       transform="translate(1.525879e-4,7.629395e-5)"
       sodipodi:nodetypes="cc"
       id="path703"
       d="M 85.028 90.5545 C 85.8907 88.8377 86.7263 86.8564 87.1715 85.4881 "
       style="font-size:12;fill:none;fill-rule:evenodd;stroke:#000000;" />
    <path
       transform="translate(1.525879e-4,7.629395e-5)"
       sodipodi:nodetypes="cssc"
       id="path700"
       d="M 91.3727 82.4477 C 91.5937 88.2299 83.4435 83.3595 82.8005 86.0859 C 82.2392 87.9981 85.6098 88.1435 85.2266 90.0446 C 84.6782 92.9887 79.2048 90.3296 78.2248 92.8335 "
       style="font-size:12;fill:none;fill-rule:evenodd;stroke:#000000;" />
    <path
       sodipodi:nodetypes="cssccc"
       id="path852"
       d="M 37.26125 201.1251 C 36.24075 200.6941 32.00235 207.9411 31.21885 208.8941 C 28.44835 212.4071 29.22575 214.4861 31.50665 216.8071 C 35.08665 220.2241 49.00136 224.7691 49.78966 224.6191 L 59.25157 212.5361 C 54.33517 208.7811 40.42745 206.9521 37.26125 201.1251 z "
       style="font-size:12;fill:#ffee00;fill-rule:evenodd;stroke:#000000;" />
    <path
       transform="translate(1.525879e-4,7.629395e-5)"
       sodipodi:nodetypes="ccccc"
       id="path658"
       d="M 35.81009 204.4044 C 34.91129 205.3254 32.7898 208.1158 31.7032 209.5798 C 29.79029 215.6642 46.44931 220.6368 50.36152 221.1646 L 55.99446 214.2143 C 53.23786 213.0297 39.65414 209.8554 35.81009 204.4044 z "
       style="font-size:12;fill-rule:evenodd;stroke:#000000;" />
    <g
       style="font-size:12;"
       transform="translate(1.525879e-4,7.629395e-5)"
       id="g779">
      <path
         sodipodi:nodetypes="csssssscccccsss"
         id="path733"
         d="M 105.898 34.0781 C 101.584 34.1543 95.8204 36.8691 93.6909 40.7921 C 92.6318 42.845 92.291 46.6345 91.4529 49.5407 C 89.2125 57.411 90.734 52.3799 89.0114 58.4927 C 87.1642 65.1496 95.5062 64.6812 94.9117 65.9187 C 88.4108 79.2369 98.6366 75.0951 94.7082 81.4831 C 93.0289 84.2857 87.6814 86.9341 87.881 89.3007 C 87.9509 90.5975 88.0123 92.3353 89.6452 93.5127 C 90.5346 88.3049 93.0422 87.67 95.2457 86.5945 C 92.2037 89.2232 92.285 91.5541 92.9788 93.4243 C 93.3646 90.5841 95.6491 90.1056 97.0109 88.5022 C 95.4284 90.3972 94.6847 94.5776 95.8252 96.1177 C 102.477 94.1896 122.879 74.924 119.835 57.3736 C 116.944 39.5366 116.479 38.0457 115.461 36.9265 C 112.806 34.0302 108.974 34.0256 105.898 34.0781 z "
         style="font-size:12;opacity:0.99;fill:#ffee00;fill-rule:evenodd;stroke:#000000;stroke-width:1pt;stroke-linejoin:round;" />
      <path
         sodipodi:nodetypes="csssssscsscsss"
         id="path760"
         d="M 105.898 34.0781 C 101.584 34.1543 95.8204 36.8691 93.6909 40.7921 C 92.6318 42.845 93.5117 46.7362 92.6736 49.6424 C 90.4332 57.5127 92.3616 52.3799 90.639 58.4927 C 88.7918 65.1496 98.0494 62.9518 97.4549 64.1893 C 90.954 77.5075 100.061 75.2986 96.1324 81.6866 C 94.4531 84.4892 88.8004 86.9341 89 89.3007 C 89.0699 90.5975 87.7071 89.9956 89.34 91.173 C 90.2294 85.9652 96.2325 85.2373 98.3397 83.9917 C 102.209 81.704 101.748 77.0956 99.286 74.9724 C 96.9633 73.0493 108.316 68.0267 109.457 69.5668 C 116.109 67.6387 122.879 74.924 119.835 57.3736 C 116.944 39.5366 116.479 38.0457 115.461 36.9265 C 112.806 34.0302 108.974 34.0256 105.898 34.0781 z "
         style="font-size:12;opacity:0.99;fill:#ffff80;fill-rule:evenodd;stroke-width:0.875;" />
      <path
         sodipodi:nodetypes="csc"
         id="path761"
         d="M 100.507 75.6833 C 102.169 78.7352 101.632 80.9386 100.82 82.0778 C 99.7612 83.4287 96.5395 86.0019 94.5226 86.7718 "
         style="font-size:12;fill:none;fill-rule:evenodd;stroke:#000000;stroke-width:0.875;stroke-linecap:round;" />
      <path
         transform="translate(2.339745,1.729374)"
         sodipodi:nodetypes="cc"
         id="path762"
         d="M 100.584 74.9712 C 103.573 79.9414 96.636 84.8634 94.6192 86.5487 "
         style="font-size:12;fill:none;fill-rule:evenodd;stroke:#000000;stroke-width:0.875;stroke-linecap:round;" />
    </g>
    <path
       transform="translate(1.525879e-4,7.629395e-5)"
       sodipodi:nodetypes="csccc"
       id="path793"
       d="M 89.197 140.413 C 84.9596 144.249 73.9484 155.561 69.8315 164.141 C 63.1851 177.749 54.40725 217.733 55.30575 217.052 L 120.559 136.063 C 109.841 137.68 93.513 139.778 89.197 140.413 z "
       style="font-size:12;opacity:0.99;fill:#ff0000;fill-rule:evenodd;stroke:#000000;" />
    <path
       transform="translate(1.525879e-4,7.629395e-5)"
       sodipodi:nodetypes="cscccs"
       id="path803"
       d="M 91.1082 94.2366 C 88.4583 97.2504 78.9079 103.216 79.1697 114.578 C 79.3282 121.604 87.8324 129.385 88.9851 137.14 C 91.8696 139.116 99.2617 145.308 99.9062 145.093 C 100.946 144.053 104.577 86.8489 104.577 85.6506 C 104.577 84.5742 99.7079 84.3119 91.1082 94.2366 z "
       style="font-size:12;opacity:0.99;fill:#ffee00;fill-rule:evenodd;stroke:#000000;" />
    <path
       transform="translate(1.525879e-4,7.629395e-5)"
       sodipodi:nodetypes="csccssccss"
       id="path790"
       d="M 83.0107 110.634 C 82.6661 119.151 86.8308 123.42 89.7723 128.905 C 91.8584 132.526 95.4038 141.086 95.2392 144.729 C 99.0737 144.707 101.028 144.462 103.296 145.305 C 104.328 137.898 117.904 129.598 121.567 126.603 C 126.028 122.804 129.094 118.234 128.687 99.4363 C 128.637 97.1398 128.291 94.1692 127.691 92.6374 C 125.241 96.5347 114.027 84.9 104.735 83.7302 C 101.118 86.2719 94.4052 92.9309 90.9102 97.7111 C 87.159 102.491 83.2535 106.4 83.0107 110.634 z "
       style="font-size:12;fill:#ffffff;fill-rule:evenodd;stroke:#000000;" />
    <path
       transform="translate(1.525879e-4,7.629395e-5)"
       sodipodi:nodetypes="ccsccc"
       id="path785"
       d="M 105.885 85.6012 C 101.569 87.7592 93.8003 95.2402 89.9159 103.44 C 95.5267 102.433 102.315 101.958 107.756 102.577 C 116.432 103.548 120.139 105.886 122.441 107.325 C 123.161 100.563 123.149 95.384 124.156 91.7873 L 105.885 85.6012 z "
       style="font-size:12;opacity:0.98;fill:#ffffff;fill-rule:evenodd;stroke:#000000;" />
    <g
       transform="translate(1.525879e-4,7.629395e-5)"
       style="font-size:12;opacity:0.99;"
       id="g751">
      <path
         sodipodi:nodetypes="ccsssccccccsss"
         id="path740"
         d="M 93.1823 43.3351 C 92.6696 46.7907 94.4682 49.4251 95.4203 49.8457 C 94.467 50.5869 92.9601 52.1641 93.0734 56.352 C 93.1266 58.3854 94.8195 66.382 95.9958 68.9253 C 97.7953 72.816 100.559 76.2903 102.433 76.5404 C 103.17 76.5371 105.606 75.3585 106.509 75.0916 C 106.4 79.3147 105.695 82.4422 103.864 87.79 C 103.864 88.7855 96.9349 94.7275 95.8273 99.0817 C 105.39 96.8437 114.439 99.1099 120.75 101.015 C 120.92 98.2677 123.263 91.7171 124.21 90.7401 C 124.311 89.2142 121.768 67.4446 121.768 64.7996 C 121.768 63.172 118.795 45.9194 118.004 42.1144 C 116.943 36.8034 114.894 34.0822 105.796 33.8744 C 96.9876 33.8702 94.3033 35.9848 93.1823 43.3351 z "
         style="font-size:12;opacity:0.990000;fill:#ffd0d0;fill-rule:evenodd;stroke:#000000;stroke-width:1pt;" />
      <path
         sodipodi:nodetypes="cc"
         id="path744"
         d="M 115.156 69.6819 C 113.143 71.5125 108.645 74.3613 105.797 75.3786 "
         style="font-size:12;fill:none;fill-rule:evenodd;stroke:#000000;stroke-width:1.25;stroke-linecap:round;" />
    </g>
    <g
       style="font-size:12;"
       transform="translate(1.525879e-4,7.629395e-5)"
       id="g634">
      <path
         sodipodi:nodetypes="csc"
         id="path599"
         d="M 102.139 45.7245 C 101.093 48.2668 97.1902 53.1207 99.148 54.099 L 100.944 54.9963 "
         style="fill:none;fill-rule:evenodd;stroke:black;stroke-opacity:1;stroke-width:0.875;stroke-linejoin:miter;stroke-linecap:round;fill-opacity:1;stroke-dasharray:none;" />
      <g
         id="g620">
        <path
           sodipodi:nodetypes="csc"
           id="path613"
           d="M 99.7367 62.2486 C 99.5872 63.8873 100.662 65.412 102.783 65.5353 C 105.007 65.5826 106.564 63.8088 106.177 62.2385 "
           style="font-size:12;fill:#ff0000;fill-rule:evenodd;stroke:#000000;stroke-width:0.875;" />
        <path
           sodipodi:nodetypes="ccsccs"
           id="path609"
           d="M 99.2938 61.0391 C 100.973 60.8075 100.16 57.806 102.439 60.2999 C 104.148 57.3571 104.807 61.3342 106.632 61.2601 C 108.349 61.1861 108.5 58.0895 109.433 61.4368 C 106.007 63.0486 99.8602 63.3371 96.8441 60.8675 C 97.7405 58.0805 98.0492 61.1962 99.2938 61.0391 z "
           style="font-size:12;opacity:0.99;fill:#ff0000;fill-rule:evenodd;stroke:#000000;stroke-width:0.875;stroke-linecap:round;" />
      </g>
      <g
         id="g628">
        <path
           transform="translate(-3.906200e-2,0.625000)"
           sodipodi:nodetypes="cssss"
           id="path623"
           d="M 108.437 44.0257 C 107.685 44.0057 107.074 44.7211 107.032 45.471 C 106.991 46.2445 107.727 46.9272 108.555 46.9164 C 109.483 46.9047 109.907 46.1523 109.922 45.3928 C 109.937 44.6494 109.331 44.0508 108.437 44.0257 z "
           style="fill:#80d0ff;fill-rule:evenodd;stroke:black;stroke-opacity:1;stroke-width:0.875;stroke-linejoin:miter;stroke-linecap:butt;fill-opacity:1;stroke-dasharray:none;opacity:0.990000;" />
        <path
           sodipodi:nodetypes="csc"
           id="path625"
           d="M 111.646 43.1169 C 110.283 42.2883 109.184 42.3199 108.497 42.2883 C 107.994 42.3055 107.125 42.4245 105.845 43.1722 "
           style="fill:none;fill-rule:evenodd;stroke:black;stroke-opacity:1;stroke-width:0.875;stroke-linejoin:miter;stroke-linecap:round;fill-opacity:1;stroke-dasharray:none;" />
      </g>
      <g
         id="g631">
        <path
           transform="translate(-9.921893,0.000000)"
           sodipodi:nodetypes="cssss"
           id="path624"
           d="M 108.437 44.0257 C 107.685 44.0057 107.074 44.7211 107.032 45.471 C 106.991 46.2445 107.727 46.9272 108.555 46.9164 C 109.483 46.9047 109.907 46.1523 109.922 45.3928 C 109.937 44.6494 109.331 44.0508 108.437 44.0257 z "
           style="fill:#80d0ff;fill-rule:evenodd;stroke:black;stroke-opacity:1;stroke-width:0.875;stroke-linejoin:miter;stroke-linecap:butt;fill-opacity:1;stroke-dasharray:none;opacity:0.990000;" />
        <path
           transform="translate(0.234385,0.390625)"
           sodipodi:nodetypes="csc"
           id="path626"
           d="M 100.377 42.4541 C 99.2367 41.959 97.9316 41.676 97.5038 41.6806 C 96.9409 41.7425 96.1742 41.6464 95.1837 42.3988 "
           style="fill:none;fill-rule:evenodd;stroke:black;stroke-opacity:1;stroke-width:0.875;stroke-linejoin:miter;stroke-linecap:round;fill-opacity:1;stroke-dasharray:none;" />
      </g>
    </g>
    <g
       style="font-size:12;"
       transform="translate(1.525879e-4,7.629395e-5)"
       id="g593">
      <path
         transform="matrix(0.868423,0.000000,0.000000,0.800002,22.49064,11.29820)"
         sodipodi:ry="2.990898"
         sodipodi:rx="2.841362"
         sodipodi:cy="90.887260"
         sodipodi:cx="111.261482"
         d="M 114.1028 90.88726 A 2.841362 2.990898 0 1 0 108.4201 90.88726 A 2.841362 2.990898 0 1 0  114.1028 90.88726 z"
         id="path590"
         style="fill-rule:evenodd;stroke:#000000;fill:#ffee00;fill-opacity:1;stroke-opacity:1;stroke-width:1.49968;stroke-linejoin:miter;stroke-linecap:butt;stroke-dasharray:none;"
         sodipodi:type="arc" />
      <path
         transform="matrix(0.868421,0.000000,0.000000,0.849999,19.20080,10.79182)"
         sodipodi:ry="2.990898"
         sodipodi:rx="2.841362"
         sodipodi:cy="90.887260"
         sodipodi:cx="111.261482"
         d="M 114.1028 90.88726 A 2.841362 2.990898 0 1 0 108.4201 90.88726 A 2.841362 2.990898 0 1 0  114.1028 90.88726 z"
         id="path587"
         style="fill-rule:evenodd;stroke:#000000;fill:#ffee00;fill-opacity:1;stroke-opacity:1;stroke-width:1.45491;stroke-linejoin:miter;stroke-linecap:butt;stroke-dasharray:none;"
         sodipodi:type="arc" />
      <path
         transform="matrix(0.789473,0.000000,0.000000,0.775000,15.79673,15.43987)"
         sodipodi:ry="2.990898"
         sodipodi:rx="2.841362"
         sodipodi:cy="90.887260"
         sodipodi:cx="111.261482"
         d="M 114.1028 90.88726 A 2.841362 2.990898 0 1 0 108.4201 90.88726 A 2.841362 2.990898 0 1 0  114.1028 90.88726 z"
         id="path588"
         style="fill-rule:evenodd;stroke:#000000;fill:#ffee00;fill-opacity:1;stroke-opacity:1;stroke-width:1.59805;stroke-linejoin:miter;stroke-linecap:butt;stroke-dasharray:none;"
         sodipodi:type="arc" />
      <path
         transform="matrix(0.921053,0.000000,0.000000,0.899999,3.325427,7.294216)"
         sodipodi:ry="2.990898"
         sodipodi:rx="2.841362"
         sodipodi:cy="90.887260"
         sodipodi:cx="111.261482"
         d="M 114.1028 90.88726 A 2.841362 2.990898 0 1 0 108.4201 90.88726 A 2.841362 2.990898 0 1 0  114.1028 90.88726 z"
         id="path592"
         style="fill-rule:evenodd;stroke:#000000;fill:#ffee00;fill-opacity:1;stroke-opacity:1;stroke-width:1.37292;stroke-linejoin:miter;stroke-linecap:butt;stroke-dasharray:none;"
         sodipodi:type="arc" />
      <path
         transform="translate(-0.598169,-0.448666)"
         sodipodi:ry="2.990898"
         sodipodi:rx="2.841362"
         sodipodi:cy="90.887260"
         sodipodi:cx="111.261482"
         d="M 114.1028 90.88726 A 2.841362 2.990898 0 1 0 108.4201 90.88726 A 2.841362 2.990898 0 1 0  114.1028 90.88726 z"
         id="path589"
         style="fill-rule:evenodd;stroke:#000000;fill:#ffee00;fill-opacity:1;stroke-opacity:1;stroke-width:1pt;stroke-linejoin:miter;stroke-linecap:butt;"
         sodipodi:type="arc" />
    </g>
    <g
       style="font-size:12;"
       transform="translate(1.525879e-4,7.629395e-5)"
       id="g756">
      <path
         sodipodi:nodetypes="cscc"
         id="path722"
         d="M 117.992 42.0675 C 115.985 41.9426 112.094 41.1479 110.315 39.6457 C 108.623 38.1518 107.517 36.3082 106.486 34.0278 C 112.723 34.0217 117.109 35.7133 117.992 42.0675 z "
         style="font-size:12;fill:#ffff80;fill-rule:evenodd;stroke:#000000;stroke-width:1pt;" />
      <path
         sodipodi:nodetypes="cscc"
         id="path723"
         d="M 94.4211 40.1894 C 96.5475 40.1894 100.927 40.0794 102.975 38.2718 C 104.23 37.2021 105.143 35.3982 105.825 34.248 C 102.419 33.6113 95.0499 34.2357 94.4211 40.1894 z "
         style="font-size:12;fill:#ffff80;fill-rule:evenodd;stroke:#000000;stroke-width:1pt;" />
    </g>
    <path
       transform="translate(1.525879e-4,7.629395e-5)"
       sodipodi:nodetypes="csscccc"
       id="path784"
       d="M 119.219 49.5011 C 117.576 56.3083 118.183 60.8972 118.699 65.0271 C 118.792 65.7533 122.267 86.714 122.429 87.6156 C 123.446 92.7093 121.295 94.4933 116.921 94.8089 C 118.871 99.6387 122.287 98.0827 125.594 93.8018 C 124.948 93.3381 124.225 92.6734 124.257 89.9988 C 123.53 83.5627 121.921 61.4553 119.219 49.5011 z "
       style="font-size:12;opacity:0.99;fill:#ffff80;fill-rule:evenodd;stroke:#000000;" />
    <path
       transform="translate(1.525879e-4,7.629395e-5)"
       sodipodi:nodetypes="cscscc"
       id="path789"
       d="M 90.1663 103.208 C 90.1663 103.208 85.1661 108.148 86.5041 114.314 C 87.8459 120.498 96.9604 132.214 99.6694 140.426 C 103.673 132.382 110.746 128.187 113.969 125.967 C 119.62 121.976 122.604 116.602 122.419 106.27 C 110.294 100.685 97.4541 101.482 90.1663 103.208 z "
       style="font-size:12;fill:#80d0ff;fill-rule:evenodd;stroke:#000000;" />
    <path
       transform="translate(0.625163,0.625076)"
       sodipodi:nodetypes="csscssc"
       id="path788"
       d="M 97.5234 126.027 C 99.3108 123.044 101.501 121.017 103.903 116.366 C 105.564 113.009 105.107 109.812 102.281 109.405 C 98.5623 109.004 97.2532 113.367 97.2532 113.367 C 97.2532 113.367 98.0548 108.814 94.0358 109.051 C 91.1211 109.149 91.471 113.411 91.9548 115.381 C 92.9998 119.417 95.7011 122.478 97.5234 126.027 z "
       style="font-size:12;fill:#ff0000;fill-rule:evenodd;stroke:#000000;" />
    <path
       transform="translate(1.525879e-4,7.629395e-5)"
       sodipodi:nodetypes="ccccccc"
       id="path797"
       d="M 121.0913 135.322 C 111.9663 134.256 101.221 142.485 99.74361 144.211 C 96.8663 141.353 90.4223 137.621 88.7075 136.887 C 89.061 139.744 87.0308 142.683 85.6455 144.068 C 84.0588 144.385 92.3277 144.585 99.049 150.102 C 100.915 148.343 113.1393 141.557 115.4583 141.557 C 116.8123 139.527 118.9703 138.24 121.0913 135.322 z "
       style="font-size:12;fill:#ffffff;fill-rule:evenodd;stroke:#000000;" />
    <path
       transform="translate(1.525879e-4,7.629395e-5)"
       sodipodi:nodetypes="csscsccs"
       id="path851"
       d="M 33.5206 160.124 C 33.5206 158.829 34.427 133.772 46.7562 134.516 C 58.2206 135.216 58.7917 156.709 58.9847 158.685 C 59.3737 161.647 59.4237 180.81 59.1286 188.609 C 51.738 195.278 45.0858 196.129 40.2437 200.211 C 36.5606 203.232 31.9775 207.963 29.6533 211.454 C 29.8174 203.968 36.7002 185.194 37.5488 183.718 C 32.5968 173.597 33.5206 163.864 33.5206 160.124 z "
       style="font-size:12;fill:#ffffff;fill-rule:evenodd;stroke:#000000;" />
    <path
       transform="translate(1.525879e-4,7.629395e-5)"
       sodipodi:nodetypes="cssc"
       id="path855"
       d="M 45.5445 137.281 C 46.3582 135.853 48.7222 136.146 49.2901 138.371 C 50.3138 142.241 49.6674 149.445 48.9789 152.973 C 47.0841 162.282 44.5373 167.583 37.6756 183.435 "
       style="font-size:12;fill:none;fill-rule:evenodd;stroke:#000000;stroke-width:1.25;stroke-linecap:round;" />
    <g
       style="font-size:12;"
       transform="translate(1.525879e-4,7.629395e-5)"
       id="g868">
      <path
         sodipodi:nodetypes="ccsccsccccccsccsc"
         id="path807"
         d="M 49.0578 138.4 C 46.9753 138.909 45.6471 138.756 44.5804 138.807 C 41.4611 137.642 32.8807 133.799 31.2185 133.798 C 28.9312 133.796 24.6512 135.252 23.8815 135.38 C 22.6975 135.778 21.9565 138.222 22.8744 139.265 C 22.0548 139.271 21.0666 139.653 20.7847 140.465 C 20.4348 141.118 20.1561 143.379 21.6756 144.561 C 19.7393 144.975 19.1545 146.755 20.6568 147.837 C 19.6642 148.489 19.8518 150.61 20.2849 150.977 C 21.5159 152.016 24.9961 152.882 25.8621 152.577 C 26.449 152.044 26.9041 151.041 26.548 150.188 C 27.5277 150.231 29.0827 150.191 30.2115 149.479 C 30.7224 149.682 35.6092 151.978 36.6854 152.356 C 38.116 152.841 40.6317 154.035 43.5138 151.586 C 44.6944 151.939 47.9016 152.669 48.7785 152.722 C 49.4569 150.607 49.7522 144.762 49.7522 143.073 C 49.7522 138.618 49.1437 138.858 49.0578 138.4 z "
         style="font-size:12;opacity:0.99;fill:#ffd0d0;fill-rule:evenodd;stroke:#000000;stroke-width:1pt;" />
      <path
         transform="translate(4.069114,1.729374)"
         sodipodi:nodetypes="csccscc"
         id="path823"
         d="M 52.1864 109.762 C 49.7973 120.192 43.7058 127.234 37.6394 132.04 C 28.6512 139.263 23.6069 152.512 21.4646 158.388 C 21.9293 158.659 23.3085 159.18 24.0078 159.711 C 26.0696 153.343 33.3917 138.525 40.4877 133.262 C 45.1164 129.878 52.5656 120.999 54.8314 110.067 C 54.4954 110.067 52.5403 109.824 52.1864 109.762 z "
         style="font-size:12;fill:#008000;fill-rule:evenodd;stroke:#000000;stroke-width:1pt;" />
      <g
         style="font-size:12;"
         id="g829">
        <path
           sodipodi:nodetypes="csccccc"
           id="path817"
           d="M 21.8714 144.756 C 19.8538 145.011 19.9647 147.206 20.9569 148.24 C 21.8759 149.103 23.6192 150.469 25.2284 150.657 C 27.9493 150.352 29.4454 150.068 30.3149 149.335 C 31.2779 148.601 31.6142 146.86 30.0097 146.385 C 28.8601 146.722 27.1346 146.886 25.3894 146.998 C 23.6717 146.08 22.7948 145.646 21.8714 144.756 z "
           style="fill:#ffd0d0;fill-rule:evenodd;stroke:black;stroke-opacity:1;stroke-width:0.875;stroke-linejoin:miter;stroke-linecap:butt;fill-opacity:1;stroke-dasharray:none;" />
        <path
           sodipodi:nodetypes="cccccc"
           id="path816"
           d="M 22.1551 144.731 C 23.9534 145.978 24.9415 146.674 25.5359 146.745 C 25.871 146.968 27.2373 146.745 27.6939 146.745 C 28.2153 146.745 29.8168 146.668 30.6431 146.026 C 31.0747 145.489 32.7612 143.857 28.9168 143.364 C 27.7712 143.487 24.0626 140.515 23.0903 139.624 "
           style="fill:none;fill-rule:evenodd;stroke:black;stroke-opacity:1;stroke-width:0.875;stroke-linejoin:miter;stroke-linecap:butt;fill-opacity:1;stroke-dasharray:none;" />
        <path
           sodipodi:nodetypes="ccccc"
           id="path814"
           d="M 23.1622 139.48 C 24.1132 140.185 26.2835 142.039 28.7009 143.077 C 30.1985 143.204 31.8895 143.245 33.3046 142.933 C 34.1678 142.381 34.2397 141.542 33.0888 140.487 C 31.0204 139.956 28.8986 139.482 27.9657 138.117 "
           style="font-size:12;fill:none;fill-rule:evenodd;stroke:#000000;stroke-width:0.875;stroke-linecap:round;" />
        <path
           sodipodi:nodetypes="csscsscsc"
           id="path811"
           d="M 41.5557 139.417 C 38.0121 139.366 35.7592 138.86 34.7908 138.705 C 34.0428 138.578 32.6234 138.383 31.9424 138.145 C 31.4039 137.957 29.6426 137.222 29.1958 137.026 C 29.0519 137.314 29.1031 139.272 29.3992 139.773 C 29.7119 140.303 31.1159 141.158 32.0441 141.4 C 34.4804 142.035 38.4861 143.622 38.8599 143.842 C 39.1624 144.848 41.4685 146.354 42.0134 146.487 C 42.5155 146.609 44.0819 146.69 44.3532 146.69 "
           style="font-size:12;fill:#ffd0d0;fill-rule:evenodd;stroke:#000000;stroke-width:0.875;stroke-linecap:round;" />
        <path
           sodipodi:nodetypes="cc"
           id="path818"
           d="M 45.4613 149.55 C 44.7608 150.295 44.0511 150.925 43.0876 151.636 "
           style="font-size:12;fill:none;fill-rule:evenodd;stroke:#000000;stroke-width:0.875;stroke-dasharray:none;stroke-linecap:round;" />
      </g>
    </g>
    <g
       style="font-size:12;"
       transform="translate(1.525879e-4,7.629395e-5)"
       id="g882">
      <path
         transform="matrix(-1.000000,0.000000,0.000000,1.000000,88.96562,-0.994377)"
         sodipodi:nodetypes="cscsc"
         id="path879"
         d="M 40.9376 132.854 C 36.8981 128.888 35.6687 125.532 32.2818 123.925 C 28.5189 122.249 23.3376 124.653 19.7753 126.642 C 22.9859 127.858 26.7389 133.475 29.8137 134.063 C 34.7201 135.036 38.5814 133.211 40.9376 132.854 z "
         style="fill:#008000;fill-rule:evenodd;stroke:black;stroke-opacity:1;stroke-width:1pt;stroke-linejoin:miter;stroke-linecap:butt;fill-opacity:1;" />
      <path
         sodipodi:nodetypes="cc"
         id="path881"
         d="M 49.8291 131.285 C 54.3866 127.075 56.6605 126.172 62.314 126.203 "
         style="fill:none;fill-rule:evenodd;stroke:black;stroke-opacity:1;stroke-width:0.875;stroke-linejoin:miter;stroke-linecap:round;fill-opacity:1;stroke-dasharray:none;" />
    </g>
    <g
       style="font-size:12;"
       transform="translate(1.525879e-4,7.629395e-5)"
       id="g885">
      <path
         transform="translate(3.535542,-1.657295)"
         sodipodi:nodetypes="cscsc"
         id="path877"
         d="M 40.9376 132.854 C 42.6434 127.783 42.6582 125.614 41.0102 121.494 C 39.3251 117.391 31.9555 115.814 28.5037 115.814 C 30.8304 118.798 30.6184 124.834 31.692 127.544 C 33.4898 132.362 38.5814 133.211 40.9376 132.854 z "
         style="fill:#008000;fill-rule:evenodd;stroke:black;stroke-opacity:1;stroke-width:1pt;stroke-linejoin:miter;stroke-linecap:butt;fill-opacity:1;" />
      <path
         sodipodi:nodetypes="cc"
         id="path880"
         d="M 35.5764 116.369 C 39.333 119.053 44.0838 124.444 43.3104 129.296 "
         style="fill:none;fill-rule:evenodd;stroke:black;stroke-opacity:1;stroke-width:0.875;stroke-linejoin:miter;stroke-linecap:round;fill-opacity:1;stroke-dasharray:none;" />
    </g>
    <path
       transform="translate(1.525879e-4,7.629395e-5)"
       sodipodi:nodetypes="cc"
       id="path888"
       d="M 64.844 138.01 C 69.5853 142.186 72.8039 158.205 72.969 158.947 "
       style="font-size:12;fill:none;fill-rule:evenodd;stroke:#000000;stroke-width:0.875;stroke-linecap:round;" />
    <path
       transform="translate(1.525879e-4,7.629395e-5)"
       sodipodi:nodetypes="cc"
       id="path889"
       d="M 72.0315 134.729 C 74.4614 137.672 76.8667 139.923 78.5941 146.916 "
       style="font-size:12;fill:none;fill-rule:evenodd;stroke:#000000;stroke-width:0.875;stroke-linecap:round;" />
    <path
       transform="translate(0.937658,0.312595)"
       sodipodi:nodetypes="cssscscccsc"
       id="path894"
       d="M 45.6252 98.3223 C 48.751 100.198 47.7729 106.347 49.3752 108.713 C 51.7688 112.016 55.5713 111.469 56.5627 111.604 C 58.5227 111.85 61.2707 113.574 63.7502 110.51 C 66.2158 107.656 64.841 103.172 70.9378 101.135 C 69.9997 100.312 68.6932 95.466 65.9704 95.2165 C 63.2344 95.0769 62.5516 96.0637 61.4635 97.7219 C 60.9418 94.8939 60.3507 94.8403 59.1006 92.068 C 57.1894 94.2197 56.1089 95.3119 55.4478 97.0189 C 54.78 95.4352 54.2735 94.4754 52.6698 94.2343 C 50.6885 94.0469 46.834 97.5592 45.6252 98.3223 z "
       style="font-size:12;fill:#ff0000;fill-rule:evenodd;stroke:#000000;" />
    <path
       transform="translate(0.937658,0.312595)"
       sodipodi:nodetypes="cssscscccsc"
       id="path891"
       d="M 45.6252 98.3223 C 48.751 100.198 47.7729 106.347 49.3752 108.713 C 51.7688 112.016 55.5713 111.469 56.5627 111.604 C 58.5227 111.85 61.2707 113.574 63.7502 110.51 C 66.2158 107.656 64.841 103.172 70.9378 101.135 C 69.9997 100.312 68.0303 98.67 65.3075 98.973 C 62.5847 99.276 61.9991 101.367 60.4691 104.572 C 59.9474 101.744 59.6878 99.9226 58.4377 97.1503 C 56.5265 99.302 55.1145 102.162 54.4534 103.869 C 53.7856 100.628 54.252 99.2037 52.8908 98.3222 C 51.6829 97.5824 46.834 97.5592 45.6252 98.3223 z "
       style="font-size:12;fill:#ffee00;fill-rule:evenodd;stroke:#000000;" />
    <path
       transform="translate(-8.396783,11.04866)"
       sodipodi:nodetypes="ccc"
       id="path896"
       d="M 49.3595 170.796 C 47.5751 174.8 50.6579 176.47 50.7135 179.988 C 53.258 176.738 54.8519 175.238 54.189 171.591 "
       style="font-size:12;fill:none;fill-rule:evenodd;stroke:#000000;stroke-width:0.875;stroke-linecap:round;" />
    <path
       transform="translate(-0.331302,-10.05416)"
       sodipodi:nodetypes="ccc"
       id="path898"
       d="M 49.3595 170.796 C 47.5751 174.8 50.6579 176.47 50.7135 179.988 C 53.258 176.738 54.8519 175.238 54.189 171.591 "
       style="font-size:12;fill:none;fill-rule:evenodd;stroke:#000000;stroke-width:0.875;stroke-linecap:round;" />
    <path
       transform="translate(-11.49039,-13.70021)"
       sodipodi:nodetypes="ccc"
       id="path899"
       d="M 49.3595 170.796 C 47.5751 174.8 50.6579 176.47 50.7135 179.988 C 53.258 176.738 54.8519 175.238 54.189 171.591 "
       style="font-size:12;fill:none;fill-rule:evenodd;stroke:#000000;stroke-width:0.875;stroke-linecap:round;" />
    <path
       transform="translate(2.209869,5.524368)"
       sodipodi:nodetypes="ccc"
       id="path900"
       d="M 49.3595 170.796 C 47.5751 174.8 50.6579 176.47 50.7135 179.988 C 53.258 176.738 54.8519 175.238 54.189 171.591 "
       style="font-size:12;fill:none;fill-rule:evenodd;stroke:#000000;stroke-width:0.875;stroke-linecap:round;" />
    <path
       transform="translate(1.525879e-4,7.629395e-5)"
       sodipodi:nodetypes="cc"
       id="path902"
       d="M 69.7849 179.04 C 66.4614 186.809 62.9301 201.009 61.2398 208.083 "
       style="font-size:12;fill:none;fill-rule:evenodd;stroke:#000000;stroke-width:0.875;stroke-linecap:round;" />
    <path
       transform="translate(1.525879e-4,7.629395e-5)"
       sodipodi:nodetypes="cc"
       id="path903"
       d="M 76.4989 180.057 C 76.0238 182.333 73.942 190.493 73.7012 192.811 "
       style="font-size:12;fill:none;fill-rule:evenodd;stroke:#000000;stroke-width:0.875;stroke-linecap:round;" />
    <path
       transform="translate(1.525879e-4,7.629395e-5)"
       sodipodi:nodetypes="ccccc"
       id="path904"
       d="M 75.8987 155.213 C 83.0614 158.234 89.269 160.58 99.8962 161.339 C 99.4593 161.776 93.8614 168.509 91.3881 171.609 C 84.1247 169.81 77.5414 168.685 69.9019 164.426 C 72.6703 159.83 73.9094 157.134 75.8987 155.213 z "
       style="font-size:12;fill-rule:evenodd;stroke-width:1.25;" />
    <path
       transform="matrix(1.322175,0.482337,-0.342714,0.93944,-23.94277,-53.46138)"
       sodipodi:ry="1.29570007"
       sodipodi:rx="1.34553909"
       sodipodi:cy="21.6282082"
       sodipodi:cx="119.752945"
       d="M 121.0985 21.62821 A 1.345539 1.2957 0 1 0 118.4074 21.62821 A 1.345539 1.2957 0 1 0  121.0985 21.62821 z"
       id="path681"
       style="font-size:12;fill:#ff0000;fill-rule:evenodd;stroke:#000000;stroke-width:0.7376;"
       sodipodi:type="arc" />
    <path
       transform="matrix(1.031828,0.957145,-0.680078,0.73314,1.379229,-110.2447)"
       sodipodi:ry="1.29570007"
       sodipodi:rx="1.34553909"
       sodipodi:cy="21.6282082"
       sodipodi:cx="119.752945"
       d="M 121.0985 21.62821 A 1.345539 1.2957 0 1 0 118.4074 21.62821 A 1.345539 1.2957 0 1 0  121.0985 21.62821 z"
       id="path682"
       style="font-size:12;fill:#ff0000;fill-rule:evenodd;stroke:#000000;stroke-width:0.7376;"
       sodipodi:type="arc" />
    <path
       transform="matrix(1.332967,0.451657,-0.320916,0.947108,-12.64993,-38.59092)"
       sodipodi:ry="1.29570007"
       sodipodi:rx="1.34553909"
       sodipodi:cy="21.6282082"
       sodipodi:cx="119.752945"
       d="M 121.0985 21.62821 A 1.345539 1.2957 0 1 0 118.4074 21.62821 A 1.345539 1.2957 0 1 0  121.0985 21.62821 z"
       id="path683"
       style="font-size:12;fill:#ff0000;fill-rule:evenodd;stroke:#000000;stroke-width:0.7376;"
       sodipodi:type="arc" />
  </g>
  <use
     x="0"
     y="0"
     xlink:href="#g1962"
     id="use2056"
     transform="matrix(-1,0,0,-1,206,315)"
     width="206"
     height="315" />
  <path
     style="fill:none;fill-opacity:0.75;fill-rule:evenodd;stroke:black;stroke-width:5.05113618;stroke-linecap:square;stroke-linejoin:miter;stroke-opacity:1;stroke-miterlimit:4;stroke-dasharray:none"
     d="M 49.401519,225.625 L 156.27652,88.958333"
     id="path2060" />
  <path
     style="fill:none;fill-opacity:0.75;fill-rule:evenodd;stroke:white;stroke-width:3.03068171;stroke-linecap:square;stroke-linejoin:miter;stroke-opacity:1;stroke-miterlimit:4;stroke-dasharray:none"
     d="M 49.401519,225.625 L 156.27652,88.958333"
     id="path2949" />
</svg>
