<?xml version="1.0" encoding="UTF-8" standalone="no"?>
<!-- Created with Inkscape (http://www.inkscape.org/) -->
<svg
   xmlns:a="http://ns.adobe.com/AdobeSVGViewerExtensions/3.0/"
   xmlns:svg="http://www.w3.org/2000/svg"
   xmlns="http://www.w3.org/2000/svg"
   version="1.0"
   width="128"
   height="128"
   viewBox="0.5 -3.837 128 128"
   id="svg2"
   xml:space="preserve"><defs
   id="defs45" />
	
		<g
   id="svg1307">
			
				<radialGradient
   cx="265.3931"
   cy="-6078.353"
   r="253.01871"
   fx="267.36481"
   fy="-6071.0229"
   id="path2295_1_"
   gradientUnits="userSpaceOnUse"
   gradientTransform="matrix(0.2944,0,0,-2e-2,-14.8205,-3.968)">
				<stop
   style="stop-color:#000000;stop-opacity:1"
   offset="0"
   id="stop8" />
				<stop
   style="stop-color:#ffffff;stop-opacity:1"
   offset="1"
   id="stop10" />
				<a:midPointStop
   style="stop-color:#000000"
   offset="0" />
				<a:midPointStop
   style="stop-color:#000000"
   offset="0.5" />
				<a:midPointStop
   style="stop-color:#FFFFFF"
   offset="1" />
			</radialGradient>
			
				<path
   d="M 126.622,117.602 C 126.63,120.395 98.29,122.663 63.323,122.663 C 28.356,122.663 0.008,120.399 0,117.602 L 0,117.602 C -0.003,114.803 28.336,112.536 63.303,112.536 C 98.266,112.536 126.617,114.804 126.621,117.598 C 126.622,117.598 126.622,117.598 126.622,117.602 z "
   style="opacity:0.38140001;fill:url(#path2295_1_)"
   id="path2295_24_" />
			<path
   d="M 92.431,0.979 L 29.121,56.375 C 28.259,57.126 27.768,58.21 27.768,59.353 C 27.768,60.495 28.259,61.578 29.121,62.33 L 92.431,117.725 C 94.008,119.108 96.388,119.016 97.856,117.524 L 105.631,109.61 C 106.384,108.846 106.767,107.84 106.767,106.837 C 106.767,105.941 106.465,105.044 105.855,104.31 C 105.855,104.31 72.288,63.886 68.524,59.354 C 72.288,54.821 105.855,14.399 105.855,14.399 C 106.465,13.665 106.767,12.766 106.767,11.872 C 106.767,10.867 106.384,9.864 105.631,9.1 L 97.856,1.186 C 96.388,-0.312 94.008,-0.401 92.431,0.979 z "
   style="fill:#006b33"
   id="path13" />
			
				<linearGradient
   x1="-90.127899"
   y1="248.9536"
   x2="-90.127899"
   y2="177.8696"
   id="XMLID_1_"
   gradientUnits="userSpaceOnUse"
   gradientTransform="matrix(0,-1,1,0,-150.1006,-30.7744)">
				<stop
   style="stop-color:#00ff00;stop-opacity:1"
   offset="0"
   id="stop16" />
				<stop
   style="stop-color:#00ee00;stop-opacity:1"
   offset="0.0776"
   id="stop18" />
				<stop
   style="stop-color:#00a900;stop-opacity:1"
   offset="0.40450001"
   id="stop20" />
				<stop
   style="stop-color:#007700;stop-opacity:1"
   offset="0.67799997"
   id="stop22" />
				<stop
   style="stop-color:#005900;stop-opacity:1"
   offset="0.88450003"
   id="stop24" />
				<stop
   style="stop-color:#004d00;stop-opacity:1"
   offset="1"
   id="stop26" />
				<a:midPointStop
   style="stop-color:#00FF00"
   offset="0" />
				<a:midPointStop
   style="stop-color:#00FF00"
   offset="0.4213" />
				<a:midPointStop
   style="stop-color:#004D00"
   offset="1" />
			</linearGradient>
			<polygon
   points="27.769,59.354 91.079,114.75 98.853,106.836 59.423,59.354 98.853,11.871 91.079,3.957 27.769,59.354 "
   style="fill:url(#XMLID_1_)"
   id="polygon28" />
			
				<linearGradient
   x1="-137.61079"
   y1="208.4653"
   x2="-42.6455"
   y2="208.4653"
   id="XMLID_2_"
   gradientUnits="userSpaceOnUse"
   gradientTransform="matrix(0,-1,1,0,-150.1006,-30.7744)">
				<stop
   style="stop-color:#00cc88;stop-opacity:1"
   offset="0"
   id="stop31" />
				<stop
   style="stop-color:#ffffff;stop-opacity:1"
   offset="1"
   id="stop33" />
				<a:midPointStop
   style="stop-color:#00CC88"
   offset="0" />
				<a:midPointStop
   style="stop-color:#00CC88"
   offset="0.5" />
				<a:midPointStop
   style="stop-color:#FFFFFF"
   offset="1" />
			</linearGradient>
			<path
   d="M 43.596,59.354 L 86.983,11.872 L 30.543,57.77 C 30.041,58.141 29.747,58.727 29.747,59.354 C 29.747,59.972 30.04,60.559 30.543,60.931 L 86.983,106.837 L 43.596,59.354 z "
   style="fill:url(#XMLID_2_)"
   id="path35" />
			
				<linearGradient
   x1="-137.61079"
   y1="223.30321"
   x2="-42.6455"
   y2="223.30321"
   id="XMLID_3_"
   gradientUnits="userSpaceOnUse"
   gradientTransform="matrix(0,-1,1,0,-150.1006,-30.7744)">
				<stop
   style="stop-color:#00ff00;stop-opacity:1"
   offset="0"
   id="stop38" />
				<stop
   style="stop-color:#005133;stop-opacity:1"
   offset="1"
   id="stop40" />
				<a:midPointStop
   style="stop-color:#00FF00"
   offset="0" />
				<a:midPointStop
   style="stop-color:#00FF00"
   offset="0.5" />
				<a:midPointStop
   style="stop-color:#005133"
   offset="1" />
			</linearGradient>
			<polygon
   points="98.853,106.836 59.423,59.354 98.853,11.871 47.553,59.354 98.853,106.836 "
   style="fill:url(#XMLID_3_)"
   id="polygon42" />
		</g>
	</svg>