<?xml version="1.0" encoding="UTF-8" standalone="no"?>
<!-- Created with Inkscape (http://www.inkscape.org/) -->
<svg
   xmlns:dc="http://purl.org/dc/elements/1.1/"
   xmlns:cc="http://web.resource.org/cc/"
   xmlns:rdf="http://www.w3.org/1999/02/22-rdf-syntax-ns#"
   xmlns:svg="http://www.w3.org/2000/svg"
   xmlns="http://www.w3.org/2000/svg"
   xmlns:xlink="http://www.w3.org/1999/xlink"
   xmlns:sodipodi="http://inkscape.sourceforge.net/DTD/sodipodi-0.dtd"
   xmlns:inkscape="http://www.inkscape.org/namespaces/inkscape"
   width="128"
   height="128"
   id="svg3876"
   sodipodi:version="0.32"
   inkscape:version="0.43"
   version="1.0"
   sodipodi:docbase="/Users/David/Documents/Version Cue/Oxygen/documents/FTP/Nuno/oxygen/svg/actions"
   sodipodi:docname="sendmail.svg">
  <defs
     id="defs3878">
    <linearGradient
       inkscape:collect="always"
       id="linearGradient28088">
      <stop
         style="stop-color:#ffffff;stop-opacity:1;"
         offset="0"
         id="stop28090" />
      <stop
         style="stop-color:#ffffff;stop-opacity:0;"
         offset="1"
         id="stop28092" />
    </linearGradient>
    <linearGradient
       id="circle3581_1_"
       gradientUnits="userSpaceOnUse"
       x1="-319.65619"
       y1="-564.94122"
       x2="-308.341"
       y2="-576.25629"
       gradientTransform="matrix(-1,0,0,-1,-170,-666.6001)">
      <stop
         offset="0"
         style="stop-color:#80B3FF"
         id="stop273" />
      <stop
         offset="1"
         style="stop-color:#0066FF"
         id="stop275" />
    </linearGradient>
    <linearGradient
       inkscape:collect="always"
       id="linearGradient5073">
      <stop
         style="stop-color:#000000;stop-opacity:1;"
         offset="0"
         id="stop5075" />
      <stop
         style="stop-color:#000000;stop-opacity:0;"
         offset="1"
         id="stop5077" />
    </linearGradient>
    <linearGradient
       id="polygon3477_1_"
       gradientUnits="userSpaceOnUse"
       x1="503"
       y1="618.32098"
       x2="513"
       y2="618.32098"
       gradientTransform="translate(-484,-714.5996)">
      <stop
         offset="0"
         style="stop-color:#FFFFFF"
         id="stop193" />
      <stop
         offset="0.5413"
         style="stop-color:#FCFCFC"
         id="stop195" />
      <stop
         offset="0.8664"
         style="stop-color:#F4F4F4"
         id="stop197" />
      <stop
         offset="1"
         style="stop-color:#EEEEEE"
         id="stop199" />
    </linearGradient>
    <linearGradient
       id="circle3737_1_"
       gradientUnits="userSpaceOnUse"
       x1="-369.65619"
       y1="-564.94122"
       x2="-358.34109"
       y2="-576.25629"
       gradientTransform="matrix(-1,0,0,-1,-170,-666.6001)">
      <stop
         offset="0"
         style="stop-color:#80B3FF"
         id="stop382" />
      <stop
         offset="1"
         style="stop-color:#0066FF"
         id="stop384" />
    </linearGradient>
    <linearGradient
       id="circle3466_1_"
       gradientUnits="userSpaceOnUse"
       x1="-199.6562"
       y1="-564.94171"
       x2="-188.341"
       y2="-576.25677"
       gradientTransform="matrix(-1,0,0,-1,-170,-666.6001)"
       xlink:href="#path959_2_"
       spreadMethod="pad">
      <stop
         offset="0"
         style="stop-color:#BFF500"
         id="stop187" />
      <stop
         offset="1"
         style="stop-color:#008C00"
         id="stop189" />
    </linearGradient>
    <linearGradient
       id="path986_2_"
       gradientUnits="userSpaceOnUse"
       x1="-2142.8125"
       y1="1818.9382"
       x2="-2106.0225"
       y2="1818.9382"
       gradientTransform="matrix(4.26e-2,-0.2416,0.2416,4.26e-2,-335.1768,-699.178)">
      <stop
         offset="0"
         style="stop-color:#FFFFFF"
         id="stop124" />
      <stop
         offset="0.0019"
         style="stop-color:#FFFFFF"
         id="stop126" />
      <stop
         offset="0.1134"
         style="stop-color:#EBEDEA"
         id="stop128" />
      <stop
         offset="0.2373"
         style="stop-color:#DEE1DB"
         id="stop130" />
      <stop
         offset="0.3831"
         style="stop-color:#D5D9D2"
         id="stop132" />
      <stop
         offset="0.6036"
         style="stop-color:#D3D7CF"
         id="stop134" />
      <stop
         offset="1"
         style="stop-color:#EEEEEC"
         id="stop136" />
    </linearGradient>
    <linearGradient
       id="path971_2_"
       gradientUnits="userSpaceOnUse"
       x1="149.09689"
       y1="375.81711"
       x2="154.6881"
       y2="375.81711"
       gradientTransform="matrix(3.526422e-5,-1.0506,1.0506,3.526747e-5,-190.5464,42.6462)">
      <stop
         offset="0"
         style="stop-color:#FFFFFF"
         id="stop108" />
      <stop
         offset="0.0019"
         style="stop-color:#FFFFFF"
         id="stop110" />
      <stop
         offset="0.1134"
         style="stop-color:#EBEDEA"
         id="stop112" />
      <stop
         offset="0.2373"
         style="stop-color:#DEE1DB"
         id="stop114" />
      <stop
         offset="0.3831"
         style="stop-color:#D5D9D2"
         id="stop116" />
      <stop
         offset="0.6036"
         style="stop-color:#D3D7CF"
         id="stop118" />
      <stop
         offset="1"
         style="stop-color:#EEEEEC"
         id="stop120" />
    </linearGradient>
    <radialGradient
       id="path959_2_"
       cx="-7277.4141"
       cy="11553.372"
       r="141.9108"
       gradientTransform="matrix(1.29e-2,-4.82e-2,4.85e-2,1.16e-2,-450.4789,-600.1945)"
       gradientUnits="userSpaceOnUse">
      <stop
         offset="0"
         style="stop-color:#80b3ff;stop-opacity:1;"
         id="stop100" />
      <stop
         offset="1"
         style="stop-color:#0066ff;stop-opacity:1;"
         id="stop102" />
    </radialGradient>
    <radialGradient
       id="path943_2_"
       cx="-1343.0912"
       cy="-1378.8228"
       r="35.410198"
       gradientTransform="matrix(-4.91e-2,-0.2596,-0.2596,4.91e-2,-223.4503,-398.4097)"
       gradientUnits="userSpaceOnUse">
      <stop
         offset="0.0056"
         style="stop-color:#EEEEEE"
         id="stop82" />
      <stop
         offset="0.0174"
         style="stop-color:#EFEFEF"
         id="stop84" />
      <stop
         offset="0.2428"
         style="stop-color:#FBFBFB"
         id="stop86" />
      <stop
         offset="0.4663"
         style="stop-color:#FFFFFF"
         id="stop88" />
      <stop
         offset="0.5989"
         style="stop-color:#FAFAFA"
         id="stop90" />
      <stop
         offset="0.7515"
         style="stop-color:#ECEDEE"
         id="stop92" />
      <stop
         offset="0.8428"
         style="stop-color:#F3F4F5"
         id="stop94" />
      <stop
         offset="1"
         style="stop-color:#FCFCFC"
         id="stop96" />
    </radialGradient>
    <linearGradient
       id="path3334_1_"
       gradientUnits="userSpaceOnUse"
       x1="-503.80911"
       y1="333.8396"
       x2="-488.72531"
       y2="306.25681"
       gradientTransform="matrix(-4.371139e-8,-1,1,-4.371139e-8,-300.9998,-599.6013)">
      <stop
         offset="0"
         style="stop-color:#DDDDDD"
         id="stop66" />
      <stop
         offset="0.2012"
         style="stop-color:#FFFFFF"
         id="stop68" />
      <stop
         offset="0.3969"
         style="stop-color:#F9F9F9"
         id="stop70" />
      <stop
         offset="0.574"
         style="stop-color:#EEEEEE"
         id="stop72" />
      <stop
         offset="0.7988"
         style="stop-color:#FFFFFF"
         id="stop74" />
    </linearGradient>
    <radialGradient
       id="path2295_1_"
       cx="1544.9883"
       cy="-33691.207"
       r="63.900398"
       fx="1544.9883"
       fy="-33691.207"
       gradientUnits="userSpaceOnUse">
      <stop
         offset="0"
         style="stop-color:#000000"
         id="stop57" />
      <stop
         offset="1"
         style="stop-color:#FFFFFF"
         id="stop59" />
    </radialGradient>
    <radialGradient
       gradientUnits="userSpaceOnUse"
       gradientTransform="matrix(0.2944,0,0,-2e-2,-438.8447,-763.1038)"
       fy="-33691.207"
       fx="1544.9883"
       r="63.900398"
       cy="-33691.207"
       cx="1544.9883"
       id="radialGradient3933">
      <stop
         id="stop3935"
         style="stop-color:#000000"
         offset="0" />
      <stop
         id="stop3937"
         style="stop-color:#FFFFFF"
         offset="1" />
    </radialGradient>
    <linearGradient
       xlink:href="#circle3737_1_"
       gradientTransform="matrix(-1,0,0,-1,-170,-666.6001)"
       y2="-576.25677"
       x2="-188.341"
       y1="-564.94171"
       x1="-199.6562"
       gradientUnits="userSpaceOnUse"
       id="linearGradient4069">
      <stop
         id="stop4071"
         style="stop-color:#BFF500"
         offset="0" />
      <stop
         id="stop4073"
         style="stop-color:#008C00"
         offset="1" />
    </linearGradient>
    <linearGradient
       gradientTransform="translate(-484,-714.5996)"
       y2="618.32098"
       x2="513"
       y1="618.32098"
       x1="503"
       gradientUnits="userSpaceOnUse"
       id="linearGradient4076">
      <stop
         id="stop4078"
         style="stop-color:#FFFFFF"
         offset="0" />
      <stop
         id="stop4080"
         style="stop-color:#FCFCFC"
         offset="0.5413" />
      <stop
         id="stop4082"
         style="stop-color:#F4F4F4"
         offset="0.8664" />
      <stop
         id="stop4084"
         style="stop-color:#EEEEEE"
         offset="1" />
    </linearGradient>
    <radialGradient
       inkscape:collect="always"
       xlink:href="#linearGradient5073"
       id="radialGradient5079"
       cx="80.738739"
       cy="155.37218"
       fx="80.738739"
       fy="177.29686"
       r="64.796692"
       gradientTransform="matrix(1,0,0,0.111111,7.220355e-15,138.1081)"
       gradientUnits="userSpaceOnUse" />
    <radialGradient
       inkscape:collect="always"
       xlink:href="#path959_2_"
       id="radialGradient1468"
       gradientUnits="userSpaceOnUse"
       gradientTransform="matrix(1.29e-2,-4.82e-2,4.85e-2,1.16e-2,-450.4789,-600.1945)"
       cx="-7277.4141"
       cy="11553.372"
       r="141.9108" />
    <linearGradient
       inkscape:collect="always"
       xlink:href="#polygon3477_1_"
       id="linearGradient25309"
       gradientUnits="userSpaceOnUse"
       gradientTransform="translate(-483.7455,-714.9544)"
       x1="503"
       y1="618.32098"
       x2="513"
       y2="618.32098" />
    <linearGradient
       id="linearGradient3943"
       gradientUnits="userSpaceOnUse"
       x1="-503.80911"
       y1="333.8396"
       x2="-488.72531"
       y2="306.25681"
       gradientTransform="matrix(-4.371139e-8,-1,1,-4.371139e-8,-300.9998,-599.6013)">
      <stop
         offset="0"
         style="stop-color:#DDDDDD"
         id="stop3945" />
      <stop
         offset="0.2012"
         style="stop-color:#FFFFFF"
         id="stop3947" />
      <stop
         offset="0.3969"
         style="stop-color:#F9F9F9"
         id="stop3949" />
      <stop
         offset="0.574"
         style="stop-color:#EEEEEE"
         id="stop3951" />
      <stop
         offset="0.7988"
         style="stop-color:#FFFFFF"
         id="stop3953" />
    </linearGradient>
    <linearGradient
       inkscape:collect="always"
       xlink:href="#path3334_1_"
       id="linearGradient25408"
       gradientUnits="userSpaceOnUse"
       gradientTransform="matrix(-1.748456e-7,-4,4,-1.748456e-7,-1202.989,-1918.405)"
       x1="-503.80911"
       y1="333.8396"
       x2="-488.72531"
       y2="306.25681" />
    <linearGradient
       inkscape:collect="always"
       xlink:href="#path971_2_"
       id="linearGradient25424"
       gradientUnits="userSpaceOnUse"
       gradientTransform="matrix(3.526422e-5,-1.0506,1.0506,3.526747e-5,-190.5464,42.6462)"
       x1="149.09689"
       y1="375.81711"
       x2="154.6881"
       y2="375.81711" />
    <radialGradient
       gradientUnits="userSpaceOnUse"
       gradientTransform="matrix(1.29e-2,-4.82e-2,4.85e-2,1.16e-2,-450.4789,-600.1945)"
       r="141.9108"
       cy="11553.372"
       cx="-7277.4141"
       id="radialGradient3979">
      <stop
         id="stop3981"
         style="stop-color:#80B3FF"
         offset="0" />
      <stop
         id="stop3983"
         style="stop-color:#6193CF"
         offset="1" />
    </radialGradient>
    <linearGradient
       gradientTransform="matrix(4.26e-2,-0.2416,0.2416,4.26e-2,-335.1768,-699.178)"
       y2="1818.9382"
       x2="-2106.0225"
       y1="1818.9382"
       x1="-2142.8125"
       gradientUnits="userSpaceOnUse"
       id="linearGradient4005">
      <stop
         id="stop4007"
         style="stop-color:#FFFFFF"
         offset="0" />
      <stop
         id="stop4009"
         style="stop-color:#FFFFFF"
         offset="0.0019" />
      <stop
         id="stop4011"
         style="stop-color:#EBEDEA"
         offset="0.1134" />
      <stop
         id="stop4013"
         style="stop-color:#DEE1DB"
         offset="0.2373" />
      <stop
         id="stop4015"
         style="stop-color:#D5D9D2"
         offset="0.3831" />
      <stop
         id="stop4017"
         style="stop-color:#D3D7CF"
         offset="0.6036" />
      <stop
         id="stop4019"
         style="stop-color:#EEEEEC"
         offset="1" />
    </linearGradient>
    <linearGradient
       inkscape:collect="always"
       xlink:href="#path986_2_"
       id="linearGradient25440"
       gradientUnits="userSpaceOnUse"
       gradientTransform="matrix(0.1704,-0.9664,0.9664,0.1704,-1339.697,-2316.712)"
       x1="-2142.8125"
       y1="1818.9382"
       x2="-2106.0225"
       y2="1818.9382" />
    <radialGradient
       inkscape:collect="always"
       xlink:href="#path959_2_"
       id="radialGradient25454"
       gradientUnits="userSpaceOnUse"
       gradientTransform="matrix(5.16e-2,-0.1928,0.194,4.64e-2,-1800.905,-1920.778)"
       cx="-7277.4141"
       cy="11553.372"
       r="141.9108" />
    <linearGradient
       inkscape:collect="always"
       xlink:href="#linearGradient28088"
       id="linearGradient28094"
       x1="42.77049"
       y1="27.044"
       x2="63.24249"
       y2="27.044"
       gradientUnits="userSpaceOnUse" />
  </defs>
  <sodipodi:namedview
     id="base"
     pagecolor="#ffffff"
     bordercolor="#666666"
     borderopacity="1.0"
     inkscape:pageopacity="0.0"
     inkscape:pageshadow="2"
     inkscape:zoom="0.25"
     inkscape:cx="-848.15305"
     inkscape:cy="72.318022"
     inkscape:current-layer="layer1"
     showgrid="false"
     inkscape:document-units="px"
     inkscape:grid-bbox="true"
     inkscape:window-width="1653"
     inkscape:window-height="753"
     inkscape:window-x="525"
     inkscape:window-y="215"
     showguides="true"
     inkscape:guide-bbox="true" />
  <metadata
     id="metadata3881">
    <rdf:RDF>
      <cc:Work
         rdf:about="">
        <dc:format>image/svg+xml</dc:format>
        <dc:type
           rdf:resource="http://purl.org/dc/dcmitype/StillImage" />
      </cc:Work>
    </rdf:RDF>
  </metadata>
  <g
     id="layer1"
     inkscape:label="Layer 1"
     inkscape:groupmode="layer">
    <path
       sodipodi:type="arc"
       style="opacity:0.33606555;fill:url(#radialGradient5079);fill-opacity:1;fill-rule:nonzero;stroke:none;stroke-width:5.16400003;stroke-linecap:butt;stroke-linejoin:miter;stroke-miterlimit:4;stroke-dasharray:none;stroke-dashoffset:4;stroke-opacity:0.09387758"
       id="path4198"
       sodipodi:cx="80.738739"
       sodipodi:cy="155.37166"
       sodipodi:rx="64.796692"
       sodipodi:ry="7.1996326"
       d="M 145.53543 155.37166 A 64.796692 7.1996326 0 1 1  15.942047,155.37166 A 64.796692 7.1996326 0 1 1  145.53543 155.37166 z"
       transform="matrix(0.78822,0,0,0.917924,2.42607,-21.22798)" />
    <path
       id="path3319"
       d="M 25.01049,116 C 25.01049,118.22 26.79849,120 29.01049,120 L 101.01049,120 C 103.22249,120 105.01049,118.22 105.01049,116 L 105.01049,4 C 105.01049,1.788 103.22249,0 101.01049,0 L 29.01049,0 C 26.79849,0 25.01049,1.788 25.01049,4 L 25.01049,116 z "
       style="fill:#888888;fill-opacity:1" />
    <rect
       id="rect3321"
       x="29.01049"
       y="4"
       width="72"
       height="112"
       style="fill:#ffffff" />
    <path
       id="path3334"
       d="M 33.01049,112 C 39.72649,112 90.29449,112 97.01049,112 C 97.01049,104.836 97.01049,15.164 97.01049,8 C 90.29449,8 39.72649,8 33.01049,8 C 33.01049,15.164 33.01049,104.836 33.01049,112 z "
       style="fill:url(#linearGradient25408)" />
    <path
       style="opacity:0.2;fill:#888888"
       d="M 39.40249,17.76 C 39.40649,17.844 39.43049,17.94 39.46649,18.008 C 39.46649,18.008 39.65849,18.38 39.74249,18.548 C 39.61049,18.78 39.48249,19.008 39.48249,19.008 C 39.38249,19.176 39.39849,19.352 39.48249,19.528 C 39.48249,19.528 39.67449,19.908 39.75849,20.076 C 39.62649,20.3 39.49849,20.524 39.49849,20.524 C 39.40249,20.696 39.42649,20.888 39.51449,21.064 C 39.51449,21.064 39.69049,21.42 39.77449,21.58 C 39.64649,21.796 39.51449,22.028 39.51449,22.028 C 39.42649,22.192 39.38249,22.112 39.45449,22.28 C 39.45449,22.28 39.71049,22.876 39.79849,23.072 C 39.66649,23.312 39.53049,23.548 39.53049,23.548 C 39.43849,23.716 39.45449,23.908 39.54649,24.084 C 39.54649,24.084 39.72649,24.428 39.81449,24.588 C 39.68649,24.82 39.55849,25.052 39.55849,25.052 C 39.46649,25.208 39.41849,25.132 39.49449,25.3 C 39.49449,25.3 39.75049,25.892 39.83849,26.088 C 39.70249,26.328 39.57449,26.568 39.57449,26.568 C 39.48249,26.724 39.43849,26.652 39.51049,26.816 C 39.51049,26.816 39.76649,27.408 39.85049,27.608 C 39.72249,27.836 39.59049,28.072 39.59049,28.072 C 39.49449,28.248 39.51449,28.432 39.60249,28.612 C 39.60249,28.612 39.78649,28.968 39.86249,29.128 C 39.73849,29.36 39.60649,29.584 39.60649,29.584 C 39.51049,29.76 39.52649,29.944 39.61849,30.124 C 39.61849,30.124 39.80249,30.472 39.87849,30.636 C 39.75449,30.864 39.62649,31.096 39.62649,31.096 C 39.53049,31.268 39.54649,31.46 39.63849,31.636 C 39.63849,31.636 39.78649,31.924 39.88249,32.104 C 39.79449,32.288 39.64249,32.6 39.64249,32.6 C 39.56249,32.772 39.57049,32.98 39.65449,33.144 C 39.65449,33.144 39.83449,33.496 39.91449,33.66 C 39.79049,33.892 39.65849,34.112 39.65849,34.112 C 39.57449,34.276 39.53049,34.2 39.60249,34.368 C 39.60249,34.368 39.85049,34.952 39.94249,35.152 C 39.81449,35.384 39.68249,35.612 39.68249,35.612 C 39.59449,35.768 39.54649,35.704 39.62249,35.872 C 39.62249,35.872 39.83449,36.348 39.94249,36.6 C 39.87049,36.712 39.77849,36.848 39.77849,36.848 C 39.47049,37.34 39.48249,37.88 39.81449,38.252 L 40.63449,38.644 L 41.12249,38.528 L 41.71849,38.256 C 41.72649,38.252 41.75449,38.232 41.77449,38.224 C 41.99449,38.308 42.42249,38.492 42.42249,38.492 C 42.49049,38.524 42.56249,38.536 42.63849,38.536 C 42.72249,38.536 42.81049,38.512 42.89849,38.476 L 43.58249,38.172 C 43.50649,38.212 43.42649,38.228 43.34649,38.228 C 43.34249,38.228 43.33449,38.216 43.32249,38.216 C 43.40649,38.216 43.46249,38.168 43.52649,38.14 C 43.77849,38.256 44.23449,38.464 44.23449,38.464 C 44.29849,38.504 44.37449,38.512 44.44649,38.512 C 44.53449,38.512 44.62249,38.492 44.71049,38.452 C 44.71049,38.452 45.40249,38.148 45.40249,38.144 C 45.67049,38.272 46.03849,38.444 46.03849,38.444 C 46.11449,38.476 46.18649,38.492 46.25849,38.492 C 46.34249,38.492 46.41449,38.476 46.49849,38.436 C 46.49849,38.436 47.12649,38.168 47.17849,38.14 C 47.33449,38.216 47.85849,38.424 47.85849,38.424 C 47.92249,38.452 47.99449,38.46 48.07849,38.46 C 48.16249,38.46 48.25049,38.444 48.33449,38.404 C 48.33449,38.404 48.95049,38.14 48.99849,38.12 C 49.18249,38.196 49.66649,38.4 49.66649,38.4 C 49.76249,38.436 49.76249,38.472 49.79849,38.472 C 49.81849,38.472 49.84649,38.46 49.89049,38.444 C 49.89049,38.444 50.84249,38.08 50.84649,38.08 C 51.11449,38.192 51.48249,38.376 51.48249,38.376 C 51.55849,38.408 51.63049,38.428 51.70249,38.428 C 51.78649,38.428 51.87049,38.404 51.95049,38.36 L 52.65849,38.056 C 52.91849,38.168 53.30249,38.348 53.30249,38.348 C 53.37049,38.384 53.43849,38.404 53.51449,38.4 C 53.59849,38.4 53.68249,38.38 53.76249,38.336 C 53.76249,38.336 54.45049,38.028 54.46649,38.02 C 54.73049,38.14 55.10649,38.32 55.10649,38.32 C 55.20249,38.372 55.20649,38.404 55.23449,38.4 C 55.25049,38.4 55.27849,38.396 55.33049,38.376 C 55.33049,38.376 56.16649,38.056 56.24649,38.012 C 56.39849,38.092 56.91449,38.296 56.91449,38.296 C 57.01049,38.336 57.01449,38.376 57.05449,38.376 C 57.07049,38.376 57.10249,38.372 57.14649,38.34 C 57.14649,38.34 57.97049,38.028 58.05049,37.996 C 58.23449,38.08 58.79449,38.32 58.96249,38.32 C 59.04649,38.32 59.15049,38.292 59.22649,38.26 C 59.22649,38.26 59.82649,37.996 59.87449,37.976 C 60.03849,38.056 60.54649,38.252 60.54649,38.252 C 60.63849,38.292 60.64249,38.32 60.68649,38.32 C 60.69849,38.32 60.72649,38.312 60.77449,38.296 L 61.71449,37.94 C 61.71849,37.94 61.72249,37.932 61.72649,37.932 C 61.99449,38.056 62.36249,38.232 62.36249,38.232 C 62.43849,38.264 62.50649,38.284 62.57849,38.284 C 62.65849,38.284 62.73849,38.26 62.81849,38.228 C 62.81849,38.228 63.47849,37.94 63.50249,37.928 C 63.66649,38 64.17449,38.208 64.17449,38.208 C 64.25049,38.236 64.32649,38.256 64.40649,38.252 C 64.48249,38.252 64.54649,38.24 64.61449,38.216 L 65.48249,37.888 C 65.54649,37.852 65.61049,37.812 65.66249,37.776 L 65.82249,37.632 C 66.30649,37.228 66.47449,36.888 66.46649,36.296 L 66.46649,36.296 C 66.46649,36.296 66.23449,35.768 66.13049,35.516 C 66.26249,35.276 66.39049,35.052 66.39049,35.052 C 66.48649,34.88 66.47449,34.708 66.38649,34.52 C 66.38649,34.52 66.19849,34.16 66.11449,33.988 C 66.24249,33.764 66.37049,33.548 66.37049,33.548 C 66.46249,33.38 66.49849,33.46 66.43049,33.292 C 66.43049,33.292 66.17849,32.7 66.09049,32.5 C 66.22249,32.26 66.35049,32.028 66.35049,32.028 C 66.44249,31.868 66.48649,31.944 66.41049,31.78 C 66.41049,31.78 66.15849,31.196 66.07049,31 C 66.19849,30.768 66.33049,30.532 66.33049,30.532 C 66.42649,30.356 66.41449,30.176 66.32249,30.008 C 66.32249,30.008 66.16649,29.704 66.07449,29.52 C 66.15849,29.34 66.31449,29.02 66.31449,29.02 C 66.39049,28.856 66.37049,28.62 66.29449,28.46 C 66.29449,28.46 66.12649,28.124 66.04249,27.964 C 66.17049,27.736 66.29849,27.508 66.29849,27.508 C 66.39449,27.34 66.38249,27.164 66.29049,26.988 C 66.29049,26.988 66.10649,26.616 66.02649,26.456 C 66.14649,26.232 66.27449,26.016 66.27449,26.016 C 66.37049,25.84 66.35449,25.62 66.26649,25.44 C 66.26649,25.44 66.09449,25.108 66.01049,24.94 C 66.13449,24.724 66.25849,24.496 66.25849,24.496 C 66.35849,24.332 66.33449,24.096 66.24249,23.92 C 66.24249,23.92 66.07449,23.596 65.99449,23.432 C 66.12249,23.2 66.25049,22.98 66.25049,22.98 C 66.34649,22.804 66.33049,22.616 66.24249,22.436 C 66.24249,22.436 66.05849,22.084 65.97449,21.92 C 66.10249,21.68 66.23049,21.456 66.23049,21.456 C 66.33049,21.28 66.30649,21.088 66.21449,20.916 C 66.21449,20.916 66.03849,20.568 65.95849,20.412 C 66.08649,20.172 66.21449,19.956 66.21449,19.956 C 66.30649,19.796 66.34649,19.872 66.27449,19.704 C 66.27449,19.704 66.02249,19.12 65.94249,18.928 C 66.07049,18.684 66.19849,18.456 66.19849,18.456 C 66.29849,18.284 66.28249,18.112 66.19849,17.932 C 66.19849,17.932 66.04249,17.636 65.94649,17.452 C 65.99849,17.368 66.03049,17.344 66.09849,17.244 C 66.40249,16.768 66.37849,16.188 66.05049,15.824 C 66.04649,15.824 65.21049,15.424 65.21049,15.424 L 64.71849,15.528 C 64.71849,15.536 64.19449,15.784 64.19449,15.784 C 64.17449,15.792 64.11449,15.832 64.06649,15.86 C 63.81849,15.752 63.47849,15.596 63.47849,15.596 C 63.40649,15.548 63.33049,15.528 63.25049,15.524 C 63.17049,15.528 63.08649,15.548 63.01049,15.596 C 63.01049,15.596 62.37449,15.86 62.32649,15.892 C 62.17449,15.808 61.65849,15.6 61.65849,15.6 C 61.56249,15.564 61.55849,15.52 61.51849,15.52 C 61.50249,15.52 61.47449,15.532 61.42649,15.556 C 61.42649,15.556 60.53049,15.892 60.50649,15.904 C 60.31049,15.82 59.83849,15.624 59.83849,15.624 C 59.74649,15.58 59.74249,15.548 59.71049,15.548 C 59.69049,15.548 59.66249,15.564 59.61849,15.576 C 59.61849,15.576 58.79049,15.892 58.70649,15.928 C 58.53449,15.844 57.97049,15.6 57.79449,15.6 C 57.71049,15.6 57.60649,15.628 57.53049,15.668 C 57.53049,15.668 56.93049,15.932 56.87449,15.956 C 56.68249,15.872 56.21049,15.668 56.21049,15.668 C 56.11849,15.628 56.11049,15.596 56.07849,15.596 C 56.05849,15.596 56.03849,15.604 55.98649,15.624 C 55.98649,15.624 55.12649,15.956 55.06249,15.98 C 54.86649,15.9 54.39449,15.696 54.39449,15.696 C 54.31849,15.656 54.24649,15.644 54.17449,15.644 C 54.09049,15.644 54.00649,15.66 53.93449,15.7 C 53.93449,15.7 53.29049,15.984 53.25449,15.996 C 53.04649,15.916 52.58249,15.728 52.58249,15.728 C 52.51449,15.68 52.44249,15.668 52.36649,15.672 C 52.27849,15.672 52.18649,15.696 52.10649,15.74 L 51.41849,16.036 C 51.14649,15.92 50.77449,15.744 50.77449,15.744 C 50.70649,15.708 50.63049,15.688 50.56249,15.696 C 50.47049,15.696 50.38249,15.72 50.29449,15.756 C 50.29449,15.756 49.65049,16.032 49.63049,16.04 C 49.47449,15.968 48.96649,15.768 48.96649,15.768 C 48.87449,15.732 48.86649,15.696 48.82649,15.688 C 48.81049,15.688 48.78249,15.7 48.73449,15.728 C 48.73449,15.728 47.87849,16.04 47.81849,16.072 C 47.65449,15.996 47.13849,15.792 47.13849,15.792 C 47.07049,15.764 46.99449,15.748 46.91849,15.748 C 46.83049,15.748 46.73849,15.772 46.66249,15.808 C 46.66249,15.808 46.06649,16.068 46.00649,16.096 C 45.85049,16.016 45.33449,15.816 45.33449,15.816 C 45.24249,15.776 45.23449,15.744 45.19449,15.744 C 45.17849,15.744 45.15049,15.756 45.10649,15.772 C 45.10649,15.772 44.26249,16.096 44.19049,16.124 C 44.03449,16.044 43.51449,15.84 43.51449,15.84 C 43.44249,15.812 43.37049,15.796 43.29849,15.796 C 43.20649,15.796 43.11449,15.816 43.03449,15.852 L 42.34249,16.16 C 42.07049,16.036 41.69849,15.864 41.69849,15.864 C 41.62249,15.828 41.55449,15.812 41.48649,15.812 C 41.41449,15.812 41.33849,15.828 41.26649,15.856 L 40.39449,16.168 C 40.33049,16.192 40.26649,16.24 40.21049,16.276 L 40.05449,16.42 C 39.56649,16.82 39.40249,17.168 39.40249,17.76 z M 39.99849,36.52 C 39.99849,36.52 40.00249,36.516 40.00649,36.516 L 39.99849,36.52 z M 42.60249,16.264 C 42.60249,16.264 42.52249,16.228 42.51049,16.216 C 42.51849,16.22 42.54249,16.228 42.55449,16.232 C 42.57849,16.248 42.60249,16.268 42.60249,16.264 z M 43.33049,38.06 C 43.33049,38.06 43.40649,38.096 43.42249,38.104 C 43.40649,38.1 43.38649,38.1 43.36649,38.096 C 43.35049,38.08 43.33049,38.06 43.33049,38.06 z M 45.06649,38.028 C 45.05049,38.02 45.05849,37.996 45.03849,37.988 C 45.06649,38.008 45.10249,38.028 45.13849,38.06 C 45.11849,38.04 45.09049,38.048 45.06649,38.028 z M 45.14249,38.04 C 45.14249,38.04 45.19849,38.076 45.20649,38.08 C 45.19849,38.076 45.18249,38.068 45.17049,38.064 C 45.15849,38.06 45.14249,38.04 45.14249,38.04 z M 46.87849,38.004 C 46.85849,37.996 46.87049,37.972 46.85449,37.964 C 46.88249,37.988 46.91449,38.004 46.94649,38.024 C 46.92649,38.016 46.89849,38.02 46.87849,38.004 z M 48.69049,37.98 C 48.68249,37.972 48.68249,37.948 48.67449,37.94 C 48.70249,37.964 48.73049,37.988 48.76649,38 C 48.73849,37.992 48.71449,37.996 48.69049,37.98 z M 49.85849,16.168 C 49.88649,16.18 49.91449,16.172 49.93049,16.188 C 49.95049,16.196 49.93849,16.228 49.95849,16.24 C 49.92649,16.212 49.89449,16.188 49.85849,16.168 z M 50.58649,37.972 C 50.58649,37.972 50.67049,38.016 50.69449,38.024 C 50.67849,38.02 50.65449,38.02 50.63049,38.008 C 50.61449,37.992 50.58249,37.972 50.58649,37.972 z M 51.67049,16.16 C 51.67049,16.16 51.59849,16.12 51.57849,16.112 C 51.59849,16.112 51.61049,16.116 51.62649,16.12 C 51.65049,16.14 51.67049,16.16 51.67049,16.16 z M 52.39849,37.948 C 52.39849,37.948 52.48249,37.992 52.49849,38 C 52.48249,37.996 52.46249,37.992 52.44249,37.988 C 52.42649,37.968 52.39849,37.948 52.39849,37.948 z M 54.24249,38.096 C 54.23049,38.096 54.23049,38.092 54.21849,38.088 C 54.30249,38.08 54.34649,38.048 54.41449,38.012 C 54.43849,38.02 54.44649,38.028 54.47449,38.048 C 54.39849,38.084 54.32249,38.1 54.24249,38.096 z M 54.21049,37.924 C 54.21049,37.924 54.30249,37.968 54.32249,37.98 C 54.30249,37.972 54.28649,37.968 54.26249,37.964 C 54.23849,37.948 54.21049,37.924 54.21049,37.924 z M 55.07449,15.98 C 55.13049,15.964 55.27449,15.944 55.27449,15.936 C 55.27449,15.936 55.18249,15.972 55.11449,16.004 C 55.10249,15.996 55.09449,15.984 55.07449,15.98 z M 56.03849,38.08 C 56.03849,38.08 56.12649,38.052 56.19449,38.016 C 56.20249,38.016 56.22649,38.032 56.24249,38.048 C 56.17449,38.056 56.03849,38.08 56.03849,38.08 z M 56.88649,15.96 C 56.94249,15.948 57.07849,15.92 57.08649,15.916 C 57.08649,15.916 56.99449,15.952 56.92649,15.976 C 56.91849,15.972 56.90649,15.964 56.88649,15.96 z M 57.86249,38.06 C 57.86249,38.06 57.94649,38.02 58.01449,37.996 C 58.01849,38 58.03849,38.008 58.04649,38.012 C 57.98249,38.032 57.86649,38.06 57.86249,38.06 z M 59.57449,37.86 C 59.56649,37.844 59.56649,37.82 59.55449,37.812 C 59.58249,37.836 59.61849,37.86 59.65049,37.876 C 59.62649,37.868 59.59849,37.872 59.57449,37.86 z M 60.74649,16.036 C 60.77049,16.044 60.79849,16.044 60.81449,16.064 C 60.83449,16.076 60.82249,16.1 60.84249,16.112 C 60.81449,16.084 60.77849,16.056 60.74649,16.036 z M 61.10649,16.568 L 61.10649,16.568 L 61.10649,16.568 z M 61.46249,37.84 C 61.46249,37.84 61.53449,37.872 61.54249,37.876 C 61.52649,37.876 61.51449,37.872 61.49449,37.868 C 61.48649,37.86 61.46249,37.84 61.46249,37.84 z M 62.55449,16.012 C 62.58249,16.024 62.61049,16.024 62.62649,16.032 C 62.64649,16.04 62.63849,16.076 62.65449,16.092 C 62.62649,16.056 62.59049,16.032 62.55449,16.012 z M 63.20649,37.812 C 63.18649,37.804 63.18649,37.772 63.17849,37.768 C 63.20649,37.792 63.24249,37.812 63.27849,37.832 C 63.25049,37.82 63.23049,37.824 63.20649,37.812 z M 65.88249,17.568 C 65.87449,17.588 65.84649,17.58 65.83849,17.592 C 65.85449,17.572 65.87449,17.532 65.89049,17.512 C 65.88249,17.536 65.88249,17.56 65.88249,17.568 z "
       enable-background="new    "
       id="path920_1_" />
    <path
       style="opacity:0.5;fill:#888888"
       d="M 39.97449,17.736 C 39.97449,17.728 39.97049,17.736 39.97449,17.736 z M 39.99449,17.752 L 40.33049,18.412 C 40.41449,18.496 40.41449,18.516 40.41449,18.516 L 40.41449,18.516 C 40.33049,18.6 40.01049,19.264 40.01049,19.264 L 40.34649,19.92 C 40.43049,20.008 40.43049,20.02 40.43049,20.02 C 40.34649,20.104 40.03049,20.772 40.03049,20.772 C 40.03449,20.772 40.36249,21.424 40.36249,21.424 C 40.45049,21.52 40.45049,21.544 40.45049,21.544 L 40.45049,21.544 C 40.36649,21.624 40.04649,22.28 40.04649,22.28 C 40.04649,22.284 40.38649,22.944 40.38649,22.944 C 40.47049,23.032 40.47049,23.052 40.47049,23.052 C 40.38649,23.132 40.07049,23.804 40.07049,23.804 L 40.40649,24.456 C 40.49049,24.54 40.48649,24.56 40.48649,24.56 L 40.48649,24.56 C 40.40649,24.644 40.08649,25.308 40.08649,25.308 L 40.42649,25.964 C 40.50249,26.068 40.49449,26.076 40.49449,26.076 C 40.42249,26.156 40.09849,26.828 40.09849,26.828 L 40.43449,27.484 C 40.51849,27.572 40.51449,27.588 40.51449,27.588 C 40.43449,27.672 40.11849,28.332 40.11849,28.332 C 40.11849,28.34 40.45449,28.992 40.45449,28.992 C 40.53449,29.084 40.53449,29.1 40.53449,29.1 L 40.53449,29.1 C 40.45449,29.184 40.13849,29.848 40.13849,29.848 L 40.47049,30.504 C 40.55449,30.596 40.55449,30.608 40.55449,30.612 L 40.55449,30.612 C 40.47849,30.696 40.15449,31.356 40.15449,31.356 L 40.49449,32.008 C 40.57449,32.116 40.49449,32.204 40.49049,32.204 L 40.17449,32.864 L 40.50649,33.524 C 40.58649,33.612 40.58649,33.632 40.58649,33.632 L 40.58649,33.632 C 40.51049,33.716 40.19049,34.384 40.19049,34.384 C 40.19049,34.388 40.52249,35.028 40.52249,35.028 C 40.61049,35.124 40.60649,35.144 40.60649,35.144 C 40.53049,35.228 40.21049,35.892 40.21049,35.892 L 40.54649,36.548 C 40.63049,36.636 40.48649,36.844 40.48649,36.848 C 40.48249,36.856 40.27449,37.18 40.27449,37.18 C 40.13849,37.408 40.08249,37.68 40.25849,37.884 C 40.36649,37.996 40.49449,38.072 40.63049,38.072 C 40.71049,38.072 40.78649,38.052 40.87449,38 L 41.46649,37.732 L 41.72649,37.564 L 41.92649,37.656 C 41.93049,37.66 42.64249,37.952 42.64249,37.952 L 43.35049,37.636 C 43.34649,37.636 43.54249,37.532 43.54249,37.532 L 43.73849,37.632 C 43.73849,37.636 44.45449,37.928 44.45449,37.928 C 44.44649,37.928 45.15449,37.62 45.15449,37.62 C 45.15849,37.62 45.35849,37.512 45.35849,37.512 L 45.55049,37.608 C 45.55049,37.616 46.26249,37.908 46.26249,37.908 L 46.97049,37.6 C 46.97449,37.596 47.16649,37.492 47.16649,37.492 L 47.36649,37.592 L 48.08649,37.884 C 48.09049,37.88 48.79449,37.572 48.79449,37.572 L 48.99449,37.468 C 48.99049,37.468 49.18649,37.568 49.18649,37.568 C 49.19049,37.568 49.89849,37.852 49.89849,37.852 C 49.90649,37.852 50.60649,37.552 50.60649,37.552 C 50.61049,37.548 50.79849,37.444 50.79849,37.444 C 50.80249,37.444 50.99449,37.544 50.99449,37.544 C 50.99849,37.548 51.71449,37.832 51.71449,37.832 L 52.42249,37.516 L 52.61049,37.424 L 52.81049,37.52 L 53.53049,37.808 L 54.23849,37.492 C 54.23049,37.496 54.42249,37.404 54.42249,37.404 C 54.43049,37.404 54.62649,37.492 54.62649,37.492 L 55.33849,37.792 C 55.34249,37.792 56.05049,37.472 56.05049,37.472 C 56.05049,37.48 56.24249,37.376 56.24249,37.376 L 56.43449,37.468 L 57.15049,37.764 L 57.85849,37.456 L 57.85849,37.456 L 58.05049,37.352 L 58.24249,37.452 C 58.25049,37.456 58.95849,37.744 58.95849,37.744 C 58.95849,37.74 59.66249,37.432 59.66249,37.432 C 59.66649,37.432 59.85849,37.328 59.85849,37.328 L 60.05049,37.432 C 60.05049,37.424 60.77049,37.724 60.77049,37.724 L 61.47049,37.416 C 61.47849,37.412 61.67049,37.308 61.67049,37.308 L 61.86649,37.408 C 61.87049,37.412 62.57849,37.692 62.57849,37.692 L 63.27849,37.396 C 63.28649,37.392 63.48249,37.284 63.48249,37.284 L 63.68649,37.388 C 63.68649,37.38 64.39849,37.668 64.39849,37.668 L 65.26249,37.344 L 65.42649,37.208 C 65.82649,36.876 65.88249,36.688 65.87449,36.308 C 65.87449,36.304 65.54249,35.648 65.54249,35.648 C 65.45849,35.564 65.45849,35.544 65.45849,35.544 C 65.53849,35.46 65.85449,34.792 65.85449,34.792 L 65.53049,34.148 C 65.45049,34.064 65.45049,34.052 65.45049,34.052 C 65.52649,33.968 65.85049,33.3 65.85049,33.3 C 65.85049,33.292 65.51449,32.644 65.51449,32.644 C 65.43049,32.552 65.43049,32.528 65.43049,32.528 C 65.51049,32.448 65.82649,31.784 65.82649,31.784 C 65.82649,31.776 65.49449,31.124 65.49449,31.124 C 65.41049,31.036 65.41049,31.02 65.41049,31.02 C 65.49449,30.936 65.81049,30.272 65.81049,30.272 L 65.47049,29.616 C 65.39049,29.512 65.47449,29.424 65.47449,29.424 C 65.47049,29.428 65.78649,28.752 65.78649,28.752 C 65.78249,28.752 65.45449,28.104 65.45449,28.104 C 65.37049,28.012 65.37049,28 65.37049,28 L 65.37049,28 C 65.45049,27.916 65.77049,27.248 65.77049,27.248 L 65.43449,26.592 C 65.35049,26.496 65.35049,26.48 65.35049,26.48 C 65.43449,26.4 65.74649,25.732 65.74649,25.732 L 65.41449,25.076 C 65.33049,24.992 65.33049,24.976 65.33049,24.976 L 65.33049,24.976 C 65.41449,24.892 65.72649,24.224 65.72649,24.224 L 65.72649,24.224 C 65.72249,24.224 65.39449,23.576 65.39449,23.576 C 65.31049,23.48 65.31049,23.468 65.31049,23.468 L 65.31049,23.468 C 65.38649,23.388 65.70649,22.72 65.70649,22.72 L 65.37049,22.064 C 65.29049,21.968 65.29049,21.952 65.29049,21.952 L 65.29049,21.952 C 65.36249,21.868 65.68649,21.2 65.68649,21.2 L 65.35449,20.56 C 65.27049,20.472 65.27049,20.456 65.27049,20.456 L 65.27049,20.456 C 65.35449,20.368 65.66649,19.704 65.66649,19.704 C 65.67049,19.704 65.33449,19.052 65.33449,19.052 C 65.25049,18.952 65.25049,18.94 65.25049,18.94 C 65.33049,18.856 65.64649,18.188 65.64649,18.188 L 65.33049,17.536 C 65.24649,17.452 65.39449,17.24 65.39049,17.244 L 65.59849,16.928 C 65.73849,16.692 65.77849,16.412 65.59849,16.212 C 65.43049,16.012 65.20249,15.964 64.97049,16.072 L 64.44249,16.32 L 64.10249,16.536 C 64.09049,16.54 63.96249,16.452 63.96249,16.452 L 63.23449,16.132 L 62.52649,16.44 C 62.52649,16.444 62.33049,16.548 62.33049,16.548 L 62.13049,16.448 L 61.42249,16.152 C 61.41449,16.152 60.71849,16.456 60.71849,16.456 C 60.70649,16.468 60.51049,16.568 60.51049,16.568 C 60.51449,16.568 60.31849,16.468 60.31849,16.468 L 59.60249,16.176 L 58.89049,16.488 L 58.69849,16.596 L 58.50249,16.492 C 58.49849,16.488 57.78649,16.2 57.77849,16.2 L 57.07849,16.512 L 56.88649,16.616 L 56.68649,16.516 C 56.68249,16.512 55.97449,16.232 55.97449,16.232 C 55.96649,16.232 55.26249,16.54 55.26249,16.54 C 55.26249,16.536 55.07449,16.64 55.07449,16.64 L 54.87049,16.54 L 54.15449,16.252 L 53.45449,16.556 L 53.25849,16.664 L 53.05849,16.568 C 53.05849,16.556 52.34249,16.272 52.34249,16.272 C 52.34249,16.284 51.63849,16.588 51.63849,16.588 L 51.44649,16.684 C 51.44249,16.684 51.25049,16.592 51.25049,16.592 L 50.53049,16.296 C 50.53049,16.304 49.83849,16.596 49.83849,16.596 C 49.82649,16.608 49.63049,16.704 49.63049,16.704 L 49.43849,16.616 L 48.73049,16.316 C 48.72249,16.316 48.01449,16.624 48.01449,16.624 C 48.01449,16.628 47.82249,16.732 47.82249,16.732 L 47.62649,16.632 C 47.63049,16.632 46.91049,16.336 46.91049,16.336 C 46.91449,16.336 46.20649,16.648 46.20649,16.648 L 46.01449,16.756 L 45.81849,16.652 L 45.10649,16.36 C 45.09849,16.364 44.39849,16.676 44.39849,16.676 L 44.20649,16.776 C 44.20249,16.776 44.00649,16.68 44.00649,16.68 L 43.28649,16.384 C 43.28649,16.388 42.58649,16.696 42.58649,16.696 L 42.39449,16.804 L 42.18249,16.696 C 42.17849,16.696 41.45849,16.416 41.45849,16.416 L 40.59449,16.736 C 40.60249,16.732 40.43849,16.872 40.43849,16.872 C 40.04649,17.196 39.99049,17.376 39.99449,17.752 z "
       enable-background="new    "
       id="path922_1_" />
    <g
       transform="matrix(4.084428,0.357341,-0.357341,4.084428,-830.0095,439.8012)"
       id="g924_1_"
       style="fill:#ffffff;fill-opacity:1">
      <radialGradient
         gradientUnits="userSpaceOnUse"
         gradientTransform="matrix(-4.91e-2,-0.2596,-0.2596,4.91e-2,-223.4503,-398.4097)"
         r="35.410198"
         cy="-1378.8228"
         cx="-1343.0912"
         id="radialGradient3960">
        <stop
           id="stop3962"
           style="stop-color:#EEEEEE"
           offset="0.0056" />
        <stop
           id="stop3964"
           style="stop-color:#EFEFEF"
           offset="0.0174" />
        <stop
           id="stop3966"
           style="stop-color:#FBFBFB"
           offset="0.2428" />
        <stop
           id="stop3968"
           style="stop-color:#FFFFFF"
           offset="0.4663" />
        <stop
           id="stop3970"
           style="stop-color:#FAFAFA"
           offset="0.5989" />
        <stop
           id="stop3972"
           style="stop-color:#ECEDEE"
           offset="0.7515" />
        <stop
           id="stop3974"
           style="stop-color:#F3F4F5"
           offset="0.8428" />
        <stop
           id="stop3976"
           style="stop-color:#FCFCFC"
           offset="1" />
      </radialGradient>
      <path
         style="fill:#ffffff;fill-opacity:1"
         d="M 202.597,-121.001 C 202.627,-120.98 202.668,-120.947 202.675,-120.882 C 202.681,-120.814 202.646,-120.776 202.622,-120.746 C 202.602,-120.72 202.591,-120.711 202.593,-120.686 C 202.597,-120.662 202.607,-120.656 202.634,-120.633 C 202.663,-120.613 202.704,-120.58 202.711,-120.513 C 202.718,-120.445 202.684,-120.404 202.659,-120.377 C 202.638,-120.353 202.629,-120.341 202.631,-120.317 C 202.634,-120.295 202.645,-120.285 202.67,-120.266 C 202.7,-120.242 202.741,-120.211 202.748,-120.144 C 202.755,-120.08 202.72,-120.038 202.696,-120.01 C 202.674,-119.984 202.665,-119.975 202.667,-119.951 C 202.67,-119.927 202.681,-119.919 202.707,-119.897 C 202.737,-119.875 202.778,-119.845 202.784,-119.777 C 202.792,-119.712 202.757,-119.671 202.733,-119.642 C 202.71,-119.619 202.702,-119.608 202.704,-119.585 C 202.706,-119.561 202.717,-119.552 202.742,-119.533 C 202.773,-119.509 202.814,-119.478 202.821,-119.412 C 202.828,-119.347 202.793,-119.304 202.769,-119.276 C 202.746,-119.252 202.738,-119.242 202.74,-119.217 C 202.742,-119.194 202.754,-119.185 202.778,-119.166 C 202.809,-119.143 202.85,-119.112 202.857,-119.043 C 202.864,-118.979 202.829,-118.937 202.805,-118.909 C 202.782,-118.884 202.774,-118.874 202.776,-118.851 C 202.778,-118.827 202.79,-118.819 202.816,-118.798 C 202.846,-118.776 202.887,-118.745 202.893,-118.677 C 202.901,-118.611 202.866,-118.57 202.842,-118.543 C 202.82,-118.517 202.812,-118.508 202.814,-118.483 C 202.816,-118.458 202.827,-118.452 202.852,-118.432 C 202.884,-118.408 202.925,-118.378 202.931,-118.311 C 202.938,-118.242 202.903,-118.203 202.879,-118.175 C 202.856,-118.151 202.848,-118.14 202.85,-118.116 C 202.852,-118.091 202.863,-118.085 202.888,-118.065 C 202.918,-118.043 202.96,-118.01 202.966,-117.944 C 202.972,-117.879 202.94,-117.837 202.914,-117.809 C 202.892,-117.783 202.883,-117.774 202.887,-117.747 C 202.889,-117.725 202.898,-117.715 202.925,-117.699 C 202.955,-117.674 202.997,-117.644 203.003,-117.576 C 203.01,-117.508 202.975,-117.47 202.951,-117.441 C 202.93,-117.415 202.919,-117.406 202.923,-117.381 C 202.926,-117.357 202.936,-117.351 202.962,-117.331 C 202.992,-117.309 203.033,-117.278 203.04,-117.209 C 203.046,-117.142 203.013,-117.104 202.986,-117.074 C 202.966,-117.049 202.956,-117.039 202.959,-117.014 C 202.961,-116.991 202.972,-116.983 202.998,-116.964 C 203.027,-116.941 203.069,-116.909 203.076,-116.843 C 203.082,-116.775 203.047,-116.736 203.023,-116.705 C 203.003,-116.681 202.992,-116.672 202.994,-116.649 C 202.998,-116.624 203.008,-116.617 203.034,-116.595 C 203.063,-116.575 203.104,-116.543 203.111,-116.475 C 203.117,-116.418 203.084,-116.366 203.057,-116.328 C 203.047,-116.313 203.036,-116.295 203.032,-116.282 C 203.037,-116.281 203.039,-116.277 203.044,-116.277 C 203.053,-116.279 203.064,-116.289 203.094,-116.318 C 203.129,-116.355 203.174,-116.399 203.24,-116.404 C 203.314,-116.41 203.358,-116.38 203.389,-116.357 C 203.418,-116.338 203.435,-116.324 203.47,-116.328 L 203.47,-116.328 C 203.506,-116.331 203.52,-116.349 203.543,-116.375 C 203.57,-116.403 203.607,-116.444 203.681,-116.449 C 203.754,-116.455 203.798,-116.427 203.832,-116.401 C 203.858,-116.38 203.875,-116.368 203.911,-116.373 C 203.947,-116.378 203.961,-116.392 203.984,-116.419 C 204.012,-116.447 204.048,-116.49 204.123,-116.495 C 204.196,-116.502 204.24,-116.469 204.272,-116.447 C 204.3,-116.427 204.315,-116.415 204.352,-116.42 C 204.388,-116.423 204.402,-116.438 204.426,-116.464 C 204.452,-116.494 204.489,-116.534 204.564,-116.541 C 204.638,-116.547 204.681,-116.516 204.712,-116.492 C 204.741,-116.473 204.758,-116.461 204.793,-116.463 C 204.829,-116.466 204.843,-116.485 204.866,-116.51 C 204.893,-116.54 204.93,-116.579 205.003,-116.587 C 205.077,-116.593 205.12,-116.562 205.153,-116.54 C 205.181,-116.519 205.198,-116.506 205.234,-116.51 C 205.27,-116.513 205.284,-116.528 205.309,-116.555 C 205.334,-116.583 205.37,-116.624 205.445,-116.631 C 205.518,-116.639 205.562,-116.607 205.594,-116.586 C 205.621,-116.563 205.638,-116.554 205.675,-116.557 C 205.711,-116.561 205.724,-116.575 205.749,-116.601 C 205.775,-116.63 205.811,-116.67 205.885,-116.677 C 205.959,-116.684 206.003,-116.653 206.034,-116.631 C 206.063,-116.612 206.08,-116.6 206.115,-116.603 C 206.151,-116.606 206.166,-116.623 206.189,-116.648 C 206.216,-116.677 206.253,-116.718 206.326,-116.724 C 206.4,-116.73 206.443,-116.7 206.474,-116.678 C 206.503,-116.659 206.519,-116.646 206.556,-116.648 C 206.592,-116.651 206.606,-116.669 206.629,-116.696 C 206.656,-116.722 206.693,-116.765 206.766,-116.771 C 206.84,-116.777 206.883,-116.748 206.916,-116.723 C 206.944,-116.702 206.96,-116.691 206.996,-116.695 C 207.032,-116.699 207.046,-116.716 207.07,-116.741 C 207.096,-116.77 207.133,-116.811 207.207,-116.817 C 207.28,-116.823 207.325,-116.792 207.357,-116.769 C 207.385,-116.749 207.402,-116.737 207.437,-116.742 C 207.474,-116.745 207.487,-116.761 207.511,-116.785 C 207.537,-116.816 207.574,-116.857 207.647,-116.863 C 207.722,-116.871 207.765,-116.838 207.797,-116.815 C 207.825,-116.795 207.842,-116.784 207.877,-116.788 L 207.877,-116.788 C 207.913,-116.79 207.927,-116.808 207.951,-116.834 C 207.978,-116.862 208.013,-116.903 208.088,-116.91 C 208.162,-116.916 208.205,-116.885 208.237,-116.862 C 208.266,-116.842 208.282,-116.831 208.318,-116.834 C 208.354,-116.836 208.368,-116.855 208.391,-116.879 C 208.418,-116.907 208.454,-116.948 208.528,-116.954 C 208.601,-116.962 208.645,-116.931 208.677,-116.908 C 208.705,-116.887 208.721,-116.877 208.757,-116.879 L 208.757,-116.879 C 208.827,-116.886 208.831,-116.889 208.87,-116.933 L 208.907,-116.973 L 208.93,-116.996 C 208.965,-117.031 208.965,-117.031 208.96,-117.088 C 208.957,-117.111 208.946,-117.12 208.921,-117.14 C 208.891,-117.163 208.848,-117.193 208.842,-117.262 C 208.835,-117.328 208.87,-117.368 208.895,-117.396 C 208.916,-117.421 208.925,-117.432 208.922,-117.456 C 208.919,-117.481 208.909,-117.486 208.883,-117.508 C 208.854,-117.529 208.813,-117.562 208.805,-117.628 C 208.799,-117.694 208.834,-117.736 208.858,-117.764 C 208.881,-117.789 208.889,-117.798 208.887,-117.824 C 208.885,-117.846 208.873,-117.854 208.846,-117.875 C 208.817,-117.897 208.776,-117.93 208.769,-117.997 C 208.762,-118.063 208.796,-118.103 208.821,-118.132 C 208.842,-118.155 208.851,-118.167 208.849,-118.191 C 208.847,-118.216 208.835,-118.222 208.81,-118.243 C 208.78,-118.265 208.739,-118.297 208.731,-118.364 C 208.725,-118.429 208.76,-118.471 208.784,-118.498 C 208.806,-118.525 208.815,-118.533 208.813,-118.558 C 208.811,-118.582 208.799,-118.589 208.773,-118.609 C 208.744,-118.632 208.703,-118.663 208.696,-118.729 C 208.689,-118.798 208.723,-118.837 208.748,-118.866 C 208.771,-118.889 208.779,-118.901 208.777,-118.923 C 208.775,-118.948 208.764,-118.955 208.738,-118.976 C 208.707,-118.998 208.666,-119.03 208.66,-119.097 C 208.652,-119.163 208.687,-119.203 208.711,-119.233 C 208.733,-119.257 208.743,-119.266 208.739,-119.292 C 208.737,-119.314 208.726,-119.323 208.701,-119.342 C 208.669,-119.367 208.628,-119.398 208.622,-119.464 C 208.615,-119.531 208.649,-119.571 208.674,-119.6 C 208.696,-119.624 208.704,-119.635 208.702,-119.658 C 208.7,-119.684 208.689,-119.689 208.663,-119.711 C 208.632,-119.733 208.591,-119.764 208.585,-119.831 C 208.577,-119.898 208.612,-119.938 208.636,-119.966 C 208.658,-119.991 208.668,-120.002 208.664,-120.025 C 208.662,-120.05 208.651,-120.058 208.624,-120.078 C 208.595,-120.1 208.553,-120.132 208.547,-120.198 C 208.539,-120.265 208.574,-120.306 208.6,-120.335 C 208.621,-120.359 208.629,-120.37 208.627,-120.394 C 208.625,-120.417 208.615,-120.425 208.588,-120.447 C 208.557,-120.467 208.516,-120.499 208.51,-120.567 C 208.503,-120.631 208.537,-120.673 208.561,-120.702 C 208.584,-120.726 208.591,-120.737 208.589,-120.76 C 208.587,-120.785 208.576,-120.791 208.551,-120.813 C 208.52,-120.836 208.479,-120.866 208.473,-120.933 C 208.466,-121 208.5,-121.04 208.526,-121.068 C 208.546,-121.095 208.555,-121.103 208.552,-121.127 C 208.55,-121.152 208.539,-121.16 208.513,-121.179 C 208.483,-121.202 208.441,-121.233 208.435,-121.301 C 208.428,-121.367 208.463,-121.408 208.487,-121.437 C 208.509,-121.46 208.517,-121.471 208.515,-121.494 C 208.513,-121.519 208.503,-121.527 208.476,-121.547 C 208.446,-121.569 208.404,-121.602 208.398,-121.667 C 208.391,-121.728 208.424,-121.774 208.452,-121.814 C 208.46,-121.829 208.474,-121.848 208.476,-121.859 C 208.47,-121.862 208.465,-121.868 208.46,-121.866 C 208.452,-121.864 208.444,-121.858 208.423,-121.837 C 208.395,-121.809 208.356,-121.768 208.294,-121.744 C 208.279,-121.736 208.263,-121.735 208.25,-121.733 C 208.194,-121.728 208.153,-121.757 208.122,-121.781 C 208.088,-121.806 208.068,-121.818 208.038,-121.815 C 208.001,-121.813 207.988,-121.797 207.963,-121.771 C 207.937,-121.742 207.901,-121.702 207.825,-121.695 C 207.752,-121.689 207.708,-121.718 207.677,-121.742 C 207.648,-121.761 207.631,-121.773 207.596,-121.77 C 207.56,-121.766 207.546,-121.75 207.523,-121.725 C 207.496,-121.695 207.459,-121.655 207.385,-121.648 C 207.312,-121.642 207.268,-121.672 207.237,-121.694 C 207.207,-121.714 207.192,-121.726 207.155,-121.724 C 207.119,-121.721 207.105,-121.704 207.082,-121.677 C 207.055,-121.65 207.018,-121.607 206.945,-121.602 C 206.871,-121.596 206.828,-121.624 206.795,-121.65 C 206.767,-121.67 206.751,-121.683 206.715,-121.677 C 206.679,-121.673 206.664,-121.659 206.64,-121.632 C 206.615,-121.603 206.578,-121.562 206.505,-121.556 C 206.43,-121.548 206.387,-121.58 206.354,-121.604 C 206.326,-121.624 206.31,-121.636 206.273,-121.633 C 206.237,-121.628 206.223,-121.611 206.199,-121.587 C 206.172,-121.557 206.136,-121.516 206.063,-121.51 L 206.063,-121.51 C 205.989,-121.504 205.945,-121.535 205.914,-121.557 C 205.885,-121.577 205.869,-121.589 205.832,-121.587 C 205.796,-121.583 205.782,-121.565 205.759,-121.539 C 205.732,-121.513 205.695,-121.47 205.622,-121.462 C 205.548,-121.457 205.505,-121.487 205.472,-121.511 C 205.444,-121.532 205.428,-121.543 205.392,-121.54 C 205.356,-121.536 205.342,-121.518 205.319,-121.494 C 205.292,-121.466 205.255,-121.424 205.182,-121.418 C 205.109,-121.412 205.064,-121.442 205.032,-121.465 C 205.005,-121.487 204.989,-121.499 204.953,-121.493 C 204.917,-121.49 204.903,-121.474 204.878,-121.449 C 204.852,-121.42 204.817,-121.38 204.742,-121.372 C 204.668,-121.366 204.624,-121.396 204.593,-121.418 C 204.565,-121.438 204.548,-121.45 204.513,-121.447 C 204.476,-121.443 204.463,-121.428 204.439,-121.401 C 204.412,-121.373 204.377,-121.331 204.303,-121.325 C 204.228,-121.317 204.185,-121.349 204.153,-121.373 C 204.124,-121.392 204.108,-121.403 204.072,-121.399 C 204.036,-121.398 204.022,-121.38 203.999,-121.355 C 203.972,-121.326 203.935,-121.285 203.863,-121.279 C 203.789,-121.273 203.745,-121.303 203.714,-121.327 C 203.685,-121.346 203.668,-121.357 203.633,-121.355 C 203.597,-121.351 203.583,-121.334 203.56,-121.308 C 203.533,-121.279 203.497,-121.238 203.422,-121.232 C 203.349,-121.226 203.305,-121.257 203.274,-121.279 C 203.245,-121.299 203.228,-121.313 203.192,-121.309 C 203.156,-121.306 203.142,-121.289 203.119,-121.262 C 203.092,-121.235 203.055,-121.191 202.982,-121.187 L 202.982,-121.187 C 202.908,-121.179 202.865,-121.209 202.833,-121.233 C 202.804,-121.254 202.788,-121.265 202.752,-121.262 C 202.682,-121.255 202.679,-121.252 202.639,-121.209 L 202.603,-121.169 L 202.579,-121.149 C 202.544,-121.112 202.544,-121.112 202.55,-121.057 C 202.56,-121.031 202.572,-121.022 202.597,-121.001 z "
         id="path943_1_" />
    </g>
    <path
       style="fill:url(#radialGradient25454)"
       d="M 42.83849,35.328 C 45.95449,35.292 60.12649,35.116 63.24649,35.084 C 63.21049,32.14 63.05449,18.752 63.05449,18.752 C 63.05449,18.752 45.76249,18.968 42.64249,19 C 42.67849,21.94 42.80249,32.392 42.83849,35.328 z "
       id="path959_1_" />
    <path
       style="opacity:0.1;fill:url(#linearGradient28094);fill-opacity:1.0"
       d="M 63.20649,31.82 L 63.17849,30.188 C 57.44249,30.264 52.71449,25.644 52.64649,19.912 C 52.64649,19.568 52.65849,19.228 52.68249,18.892 L 51.05049,18.912 C 51.03049,19.248 51.01449,19.588 51.01849,19.928 C 51.09849,26.56 56.56649,31.9 63.20649,31.82 z M 63.15049,27.736 L 63.13049,26.1 C 59.64249,26.144 56.77449,23.34 56.72649,19.852 C 56.72649,19.508 56.75049,19.168 56.80249,18.832 L 55.15449,18.852 C 55.11449,19.188 55.09049,19.528 55.09849,19.876 C 55.15449,24.26 58.76249,27.784 63.15049,27.736 z M 63.10249,23.656 L 63.08649,22.024 C 61.84249,22.04 60.82249,21.044 60.81449,19.808 C 60.81049,19.436 60.89849,19.084 61.04649,18.78 L 59.30649,18.804 C 59.22249,19.128 59.17849,19.472 59.17849,19.824 C 59.20249,21.964 60.96649,23.68 63.10249,23.656 z M 58.18249,35.144 L 63.24249,35.084 L 63.23449,34.264 C 55.24649,34.352 48.67049,27.94 48.57049,19.952 C 48.56249,19.612 48.57849,19.268 48.59849,18.932 L 46.96249,18.952 C 46.94649,19.292 46.93449,19.632 46.93449,19.972 C 47.02649,27.096 51.74249,33.096 58.18249,35.144 z M 42.81049,33.172 C 43.30249,33.92 43.83449,34.628 44.40649,35.308 L 46.55849,35.288 C 45.05049,33.676 43.76649,31.848 42.77049,29.848 L 42.81049,33.172 z M 42.85449,20.02 C 42.93449,26.128 45.71849,31.596 50.07049,35.252 L 52.73849,35.224 C 47.83049,31.92 44.56249,26.348 44.48649,20.004 C 44.48649,19.66 44.48649,19.32 44.50649,18.984 L 42.86649,19.004 C 42.85449,19.336 42.85049,19.684 42.85449,20.02 z "
       enable-background="new    "
       id="path961_1_" />
    <g
       style="opacity:0.55"
       enable-background="new    "
       transform="matrix(4.084428,0.357341,-0.357341,4.084428,-818.4067,439.8012)"
       id="g969_1_">
      <linearGradient
         gradientTransform="matrix(3.526422e-5,-1.0506,1.0506,3.526747e-5,-190.5464,42.6462)"
         y2="375.81711"
         x2="154.6881"
         y1="375.81711"
         x1="149.09689"
         gradientUnits="userSpaceOnUse"
         id="linearGradient3988">
        <stop
           id="stop3990"
           style="stop-color:#FFFFFF"
           offset="0" />
        <stop
           id="stop3992"
           style="stop-color:#FFFFFF"
           offset="0.0019" />
        <stop
           id="stop3994"
           style="stop-color:#EBEDEA"
           offset="0.1134" />
        <stop
           id="stop3996"
           style="stop-color:#DEE1DB"
           offset="0.2373" />
        <stop
           id="stop3998"
           style="stop-color:#D5D9D2"
           offset="0.3831" />
        <stop
           id="stop4000"
           style="stop-color:#D3D7CF"
           offset="0.6036" />
        <stop
           id="stop4002"
           style="stop-color:#EEEEEC"
           offset="1" />
      </linearGradient>
      <path
         style="fill:url(#linearGradient25424)"
         d="M 201.344,-116.45 C 201.475,-114.95 202.799,-113.838 204.298,-113.97 C 205.796,-114.1 206.908,-115.426 206.777,-116.924 C 206.646,-118.423 205.321,-119.535 203.823,-119.405 C 202.324,-119.274 201.213,-117.948 201.344,-116.45 z M 201.63,-116.475 C 201.512,-117.815 202.509,-119.001 203.848,-119.118 C 205.188,-119.235 206.374,-118.24 206.492,-116.898 C 206.609,-115.559 205.614,-114.373 204.274,-114.256 C 202.934,-114.14 201.746,-115.135 201.63,-116.475 z "
         id="path971_1_" />
    </g>
    <path
       style="opacity:0.55;fill:url(#linearGradient25440)"
       d="M 60.03849,47.716 C 60.03849,49.832 60.70649,50.96 61.29849,51.944 C 61.85849,52.88 62.39049,53.764 62.39049,55.56 C 62.39049,57.352 61.86249,58.248 61.29849,59.176 C 60.70649,60.16 60.03849,61.272 60.03849,63.412 L 61.21049,63.412 C 61.21049,61.612 61.74249,60.728 62.30249,59.788 C 62.89049,58.808 63.56249,57.688 63.56249,55.56 C 63.56249,53.432 62.89049,52.312 62.30249,51.324 C 61.74249,50.396 61.21049,49.5 61.21049,47.716 C 61.21049,45.916 61.74249,45.02 62.30249,44.092 C 62.85849,43.168 63.47849,42.116 63.55449,40.224 C 64.28249,39.016 64.71049,37.62 64.71049,36.116 C 64.71049,31.74 61.14649,28.172 56.76249,28.172 C 52.37849,28.172 48.81449,31.752 48.81449,36.124 C 48.81449,38.464 49.83849,40.568 51.46249,42.024 C 51.26249,42.584 51.00649,43.032 50.73049,43.492 C 50.14249,44.476 49.47049,45.592 49.47049,47.728 C 49.47049,49.848 50.14249,50.972 50.73049,51.956 C 51.29049,52.892 51.82249,53.776 51.82249,55.572 C 51.82249,57.364 51.29049,58.26 50.73049,59.188 C 50.14249,60.172 49.47049,61.288 49.47049,63.424 L 50.64649,63.424 C 50.64249,61.624 51.17449,60.74 51.73449,59.8 C 52.32649,58.82 52.99449,57.7 52.99849,55.572 C 52.99849,53.448 52.32649,52.324 51.73449,51.336 C 51.17049,50.408 50.64649,49.512 50.64649,47.728 C 50.64649,45.928 51.17849,45.032 51.73849,44.104 C 51.97849,43.7 52.21849,43.284 52.42649,42.784 C 52.96649,43.136 53.55049,43.42 54.17049,43.636 C 53.59449,44.588 52.98649,45.696 52.98649,47.728 C 52.98649,49.844 53.65849,50.972 54.24649,51.952 C 54.80649,52.892 55.33849,53.772 55.33449,55.572 C 55.33449,57.364 54.80649,58.26 54.24649,59.188 C 53.65849,60.172 52.98649,61.284 52.98649,63.42 L 54.16249,63.42 C 54.16249,61.624 54.69049,60.74 55.25049,59.8 C 55.84249,58.82 56.51449,57.7 56.51449,55.572 C 56.51449,53.444 55.84249,52.324 55.25049,51.336 C 54.69049,50.408 54.16249,49.512 54.16249,47.728 C 54.16249,45.928 54.69049,45.032 55.25049,44.1 C 55.28249,44.044 55.31449,44 55.34649,43.944 C 55.80649,44.028 56.27449,44.076 56.75449,44.072 C 56.98649,44.072 57.22649,44.06 57.45449,44.024 C 56.95849,44.908 56.50249,45.96 56.50249,47.728 C 56.50249,49.832 57.17449,50.968 57.76249,51.952 C 58.33049,52.888 58.85449,53.772 58.85449,55.568 C 58.85449,57.356 58.32649,58.256 57.76249,59.176 C 57.17449,60.172 56.50249,61.284 56.50249,63.42 L 57.67849,63.42 C 57.68249,61.624 58.20649,60.732 58.77049,59.796 C 59.35849,58.82 60.03049,57.696 60.03049,55.568 C 60.03049,53.44 59.35849,52.32 58.76649,51.332 C 58.20249,50.404 57.67849,49.512 57.67849,47.708 C 57.68249,45.924 58.20649,45.028 58.76649,44.1 C 58.83449,43.996 58.89849,43.856 58.96649,43.748 C 60.11449,43.42 61.15049,42.82 62.02249,42.056 C 61.81849,42.596 61.55449,43.032 61.28649,43.488 C 60.70249,44.464 60.03849,45.588 60.03849,47.716 z M 55.94249,42.828 C 55.53049,42.776 55.13849,42.7 54.75449,42.58 L 54.75449,42.58 C 54.05049,42.352 53.39849,42.012 52.81049,41.604 C 52.43849,41.324 52.09449,41.02 51.77449,40.676 L 51.77449,40.676 C 50.67049,39.476 49.99049,37.876 49.99049,36.112 C 49.99049,32.384 53.03049,29.352 56.75849,29.352 C 60.48649,29.352 63.52649,32.396 63.52649,36.112 C 63.52649,38.796 61.95849,41.112 59.69049,42.196 C 59.46649,42.308 59.23449,42.408 58.99849,42.488 C 58.97849,42.492 58.97049,42.496 58.95049,42.5 C 58.71049,42.584 58.46249,42.656 58.20649,42.72 L 58.20649,42.72 C 57.73849,42.816 57.25849,42.88 56.76249,42.888 C 56.48249,42.892 56.21049,42.864 55.94249,42.828 L 55.94249,42.828 z "
       enable-background="new    "
       id="path986_1_" />
    <g
       id="g797_1_"
       transform="matrix(4.084428,0.357341,-0.357341,4.084428,-830.0095,439.8012)"
       style="fill:#888888;fill-opacity:1">
      <path
         id="path799_1_"
         d="M 211.339,-104.829 C 211.235,-104.894 211.177,-104.985 211.166,-105.107 C 211.157,-105.21 211.187,-105.296 211.256,-105.369 C 211.325,-105.442 211.417,-105.484 211.531,-105.493 C 211.71,-105.51 211.88,-105.452 212.04,-105.319 C 212.201,-105.19 212.287,-105.036 212.302,-104.862 C 212.313,-104.737 212.281,-104.63 212.205,-104.54 C 212.13,-104.449 212.027,-104.401 211.9,-104.39 C 211.761,-104.378 211.638,-104.414 211.53,-104.497 C 211.422,-104.584 211.359,-104.694 211.339,-104.829 z M 211.423,-104.781 C 211.45,-104.698 211.502,-104.635 211.576,-104.594 C 211.65,-104.553 211.739,-104.535 211.841,-104.544 C 211.955,-104.554 212.047,-104.595 212.115,-104.668 C 212.183,-104.741 212.214,-104.83 212.205,-104.93 C 212.194,-105.053 212.126,-105.156 212.001,-105.241 C 211.876,-105.327 211.737,-105.359 211.583,-105.347 C 211.494,-105.339 211.421,-105.309 211.365,-105.257 C 211.308,-105.205 211.283,-105.147 211.288,-105.075 C 211.295,-105.007 211.329,-104.948 211.389,-104.902 C 211.45,-104.856 211.52,-104.837 211.598,-104.844 C 211.653,-104.849 211.703,-104.866 211.746,-104.896 C 211.741,-104.843 211.731,-104.806 211.713,-104.787 C 211.695,-104.768 211.664,-104.757 211.616,-104.754 C 211.557,-104.746 211.493,-104.756 211.423,-104.781 z "
         style="fill:#888888;fill-opacity:1" />
      <path
         id="path801_1_"
         d="M 211.939,-105.971 C 212.08,-105.886 212.215,-105.836 212.34,-105.824 C 212.31,-105.764 212.277,-105.731 212.241,-105.729 C 212.168,-105.723 212.046,-105.787 211.874,-105.922 C 211.82,-105.884 211.754,-105.845 211.674,-105.808 C 211.594,-105.771 211.535,-105.752 211.499,-105.749 C 211.46,-105.747 211.428,-105.792 211.404,-105.883 C 211.415,-105.881 211.424,-105.88 211.434,-105.881 C 211.519,-105.888 211.631,-105.936 211.767,-106.021 C 211.614,-106.132 211.495,-106.186 211.411,-106.177 L 211.403,-106.174 C 211.402,-106.18 211.399,-106.193 211.397,-106.214 L 211.396,-106.223 C 211.392,-106.274 211.404,-106.301 211.43,-106.303 C 211.498,-106.309 211.631,-106.229 211.827,-106.062 C 211.93,-106.142 211.979,-106.223 211.973,-106.301 C 211.96,-106.443 211.799,-106.583 211.491,-106.723 L 211.52,-106.785 C 211.717,-106.695 211.863,-106.608 211.956,-106.53 C 212.048,-106.448 212.1,-106.363 212.108,-106.275 C 212.116,-106.165 212.061,-106.064 211.939,-105.971 z "
         style="fill:#888888;fill-opacity:1" />
      <path
         id="path803_1_"
         d="M 212.089,-106.938 C 211.964,-106.907 211.841,-106.859 211.721,-106.796 C 211.601,-106.734 211.511,-106.67 211.451,-106.604 C 211.418,-106.636 211.4,-106.668 211.397,-106.706 C 211.394,-106.736 211.406,-106.764 211.434,-106.791 C 211.46,-106.813 211.516,-106.847 211.601,-106.885 C 211.731,-106.948 211.852,-106.995 211.961,-107.027 C 211.693,-107.165 211.463,-107.232 211.272,-107.231 C 211.277,-107.316 211.301,-107.36 211.345,-107.364 C 211.391,-107.368 211.487,-107.338 211.636,-107.277 C 211.785,-107.214 211.921,-107.145 212.048,-107.07 C 212.193,-106.981 212.308,-106.892 212.395,-106.8 C 212.483,-106.709 212.53,-106.628 212.536,-106.558 C 212.543,-106.494 212.518,-106.46 212.465,-106.456 C 212.443,-106.453 212.417,-106.458 212.387,-106.465 C 212.4,-106.492 212.406,-106.525 212.402,-106.564 C 212.387,-106.703 212.285,-106.828 212.089,-106.938 z "
         style="fill:#888888;fill-opacity:1" />
      <path
         id="path805_1_"
         d="M 211.569,-108.021 C 211.668,-107.983 211.757,-107.925 211.837,-107.845 C 211.916,-107.763 211.96,-107.688 211.965,-107.619 C 211.97,-107.568 211.955,-107.524 211.924,-107.488 C 211.891,-107.452 211.847,-107.431 211.792,-107.428 C 211.66,-107.416 211.535,-107.455 211.415,-107.544 C 211.295,-107.635 211.23,-107.738 211.219,-107.856 C 211.214,-107.917 211.225,-107.984 211.253,-108.057 C 211.207,-108.063 211.177,-108.074 211.164,-108.09 C 211.15,-108.108 211.137,-108.152 211.123,-108.226 C 211.2,-108.194 211.382,-108.174 211.665,-108.162 L 211.739,-108.16 C 211.598,-108.353 211.459,-108.502 211.322,-108.601 L 211.355,-108.664 C 211.501,-108.572 211.665,-108.403 211.848,-108.167 C 211.866,-108.167 211.88,-108.168 211.888,-108.168 C 212.008,-108.172 212.097,-108.166 212.155,-108.153 C 212.214,-108.14 212.27,-108.112 212.325,-108.07 C 212.432,-107.987 212.491,-107.879 212.502,-107.747 C 212.508,-107.677 212.497,-107.617 212.468,-107.571 C 212.439,-107.524 212.397,-107.498 212.344,-107.493 C 212.293,-107.489 212.246,-107.504 212.203,-107.538 C 212.16,-107.572 212.106,-107.64 212.042,-107.74 C 212,-107.805 211.936,-107.897 211.852,-108.02 L 211.569,-108.021 z M 211.379,-108.042 C 211.319,-107.976 211.292,-107.904 211.297,-107.83 C 211.303,-107.76 211.354,-107.696 211.447,-107.641 C 211.541,-107.587 211.637,-107.566 211.736,-107.574 C 211.807,-107.58 211.84,-107.609 211.836,-107.66 C 211.832,-107.709 211.784,-107.774 211.693,-107.848 C 211.603,-107.927 211.499,-107.991 211.379,-108.042 z M 211.945,-108.022 C 211.964,-107.996 212.001,-107.944 212.054,-107.864 C 212.161,-107.709 212.25,-107.633 212.321,-107.64 C 212.351,-107.645 212.377,-107.658 212.395,-107.689 C 212.413,-107.715 212.42,-107.75 212.416,-107.793 C 212.403,-107.971 212.244,-108.048 211.945,-108.022 z "
         style="fill:#888888;fill-opacity:1" />
      <path
         id="path807_1_"
         d="M 211.646,-108.634 C 211.785,-108.646 211.85,-108.712 211.839,-108.832 C 211.83,-108.934 211.772,-109.04 211.664,-109.156 C 211.555,-109.271 211.418,-109.372 211.25,-109.455 L 211.278,-109.518 C 211.46,-109.44 211.615,-109.333 211.742,-109.194 C 211.869,-109.055 211.938,-108.919 211.95,-108.788 C 211.957,-108.703 211.937,-108.633 211.884,-108.578 C 211.834,-108.523 211.761,-108.492 211.666,-108.484 C 211.527,-108.472 211.406,-108.503 211.299,-108.587 C 211.194,-108.669 211.135,-108.773 211.124,-108.9 C 211.119,-108.963 211.13,-109.011 211.157,-109.05 C 211.185,-109.091 211.224,-109.111 211.277,-109.116 C 211.362,-109.123 211.442,-109.081 211.516,-108.983 C 211.593,-108.884 211.635,-108.769 211.646,-108.634 z M 211.577,-108.636 C 211.564,-108.735 211.528,-108.818 211.469,-108.884 C 211.412,-108.951 211.35,-108.981 211.281,-108.975 C 211.22,-108.972 211.192,-108.94 211.197,-108.885 C 211.203,-108.82 211.242,-108.765 211.316,-108.716 C 211.392,-108.667 211.478,-108.64 211.577,-108.636 z "
         style="fill:#888888;fill-opacity:1" />
      <path
         id="path809_1_"
         d="M 211.604,-109.586 C 211.233,-109.724 211.042,-109.859 211.03,-109.994 C 211.021,-110.096 211.121,-110.16 211.329,-110.178 L 211.414,-110.185 C 211.514,-110.197 211.582,-110.205 211.62,-110.219 C 211.657,-110.232 211.674,-110.252 211.672,-110.28 C 211.668,-110.321 211.632,-110.365 211.563,-110.411 C 211.494,-110.459 211.355,-110.531 211.15,-110.63 L 211.18,-110.694 C 211.386,-110.606 211.54,-110.525 211.642,-110.451 C 211.744,-110.377 211.799,-110.306 211.804,-110.239 C 211.809,-110.179 211.785,-110.134 211.729,-110.104 C 211.672,-110.075 211.573,-110.054 211.429,-110.041 L 211.368,-110.036 C 211.29,-110.029 211.236,-110.02 211.205,-110.006 C 211.175,-109.994 211.159,-109.973 211.161,-109.951 C 211.166,-109.889 211.301,-109.798 211.563,-109.681 C 211.627,-109.653 211.668,-109.634 211.686,-109.625 C 211.753,-109.595 211.8,-109.581 211.828,-109.582 C 211.84,-109.584 211.85,-109.587 211.86,-109.594 C 211.874,-109.567 211.882,-109.543 211.883,-109.524 C 211.887,-109.477 211.863,-109.451 211.81,-109.446 C 211.795,-109.445 211.726,-109.442 211.603,-109.447 L 211.448,-109.449 C 211.381,-109.451 211.329,-109.449 211.294,-109.446 C 211.244,-109.442 211.205,-109.427 211.178,-109.4 C 211.173,-109.409 211.166,-109.428 211.157,-109.449 C 211.143,-109.476 211.136,-109.501 211.135,-109.519 C 211.132,-109.556 211.158,-109.576 211.211,-109.581 C 211.239,-109.582 211.289,-109.584 211.358,-109.581 C 211.373,-109.58 211.389,-109.581 211.402,-109.581 L 211.604,-109.586 z "
         style="fill:#888888;fill-opacity:1" />
      <path
         id="path811_1_"
         d="M 211.079,-111.832 C 211.276,-111.742 211.432,-111.647 211.548,-111.546 C 211.664,-111.445 211.726,-111.351 211.733,-111.265 C 211.738,-111.213 211.723,-111.169 211.692,-111.132 C 211.66,-111.097 211.616,-111.078 211.561,-111.071 C 211.538,-111.069 211.505,-111.071 211.457,-111.075 L 211.377,-111.085 C 211.262,-111.098 211.181,-111.102 211.137,-111.097 C 211.109,-111.097 211.088,-111.085 211.073,-111.068 C 211.053,-111.127 211.042,-111.167 211.041,-111.182 C 211.038,-111.218 211.061,-111.237 211.111,-111.242 C 211.147,-111.245 211.2,-111.243 211.269,-111.237 L 211.41,-111.223 C 211.478,-111.216 211.522,-111.212 211.543,-111.214 C 211.602,-111.219 211.628,-111.246 211.624,-111.299 C 211.619,-111.359 211.563,-111.433 211.453,-111.522 C 211.345,-111.612 211.21,-111.698 211.049,-111.775 L 211.079,-111.832 z M 210.776,-111.167 L 210.776,-111.178 C 210.772,-111.209 210.751,-111.253 210.716,-111.31 C 210.68,-111.364 210.645,-111.411 210.61,-111.439 C 210.677,-111.424 210.737,-111.392 210.784,-111.342 C 210.859,-111.268 210.897,-111.216 210.9,-111.188 C 210.902,-111.169 210.891,-111.159 210.867,-111.156 C 210.834,-111.156 210.803,-111.159 210.776,-111.167 z "
         style="fill:#888888;fill-opacity:1" />
      <path
         id="path813_1_"
         d="M 211.007,-112.664 C 211.21,-112.566 211.373,-112.458 211.495,-112.338 C 211.616,-112.219 211.683,-112.105 211.692,-111.997 C 211.7,-111.905 211.675,-111.826 211.618,-111.766 C 211.56,-111.704 211.481,-111.668 211.381,-111.659 C 211.25,-111.648 211.13,-111.687 211.024,-111.775 C 210.918,-111.863 210.858,-111.977 210.847,-112.109 C 210.842,-112.163 210.85,-112.208 210.866,-112.244 C 210.884,-112.28 210.909,-112.3 210.941,-112.303 C 210.992,-112.307 211.036,-112.266 211.069,-112.179 C 211.058,-112.184 211.047,-112.185 211.035,-112.184 C 210.959,-112.177 210.924,-112.133 210.931,-112.053 C 210.937,-111.982 210.982,-111.92 211.067,-111.868 C 211.152,-111.815 211.24,-111.793 211.335,-111.802 C 211.411,-111.811 211.472,-111.834 211.516,-111.878 C 211.562,-111.921 211.581,-111.976 211.576,-112.039 C 211.561,-112.213 211.362,-112.402 210.979,-112.607 L 211.007,-112.664 z "
         style="fill:#888888;fill-opacity:1" />
      <path
         id="path815_1_"
         d="M 211.014,-113.235 C 211.025,-113.237 211.037,-113.239 211.044,-113.241 C 211.183,-113.251 211.306,-113.217 211.415,-113.133 C 211.526,-113.049 211.586,-112.945 211.597,-112.819 C 211.605,-112.724 211.582,-112.644 211.526,-112.578 C 211.47,-112.513 211.393,-112.476 211.296,-112.468 C 211.187,-112.458 211.087,-112.488 210.998,-112.56 C 210.911,-112.631 210.862,-112.717 210.853,-112.824 C 210.852,-112.841 210.852,-112.857 210.855,-112.876 C 210.835,-112.862 210.818,-112.857 210.802,-112.854 C 210.779,-112.852 210.758,-112.858 210.734,-112.872 C 210.733,-112.989 210.784,-113.091 210.886,-113.175 C 210.933,-113.259 210.953,-113.344 210.945,-113.429 C 210.94,-113.484 210.916,-113.543 210.872,-113.603 L 210.93,-113.642 C 210.99,-113.573 211.022,-113.497 211.029,-113.417 C 211.037,-113.365 211.031,-113.303 211.014,-113.235 z M 210.967,-113.068 C 210.959,-113.027 210.943,-112.988 210.92,-112.954 C 210.917,-112.929 210.916,-112.909 210.918,-112.893 C 210.925,-112.812 210.967,-112.744 211.045,-112.688 C 211.123,-112.635 211.209,-112.61 211.302,-112.618 C 211.369,-112.624 211.424,-112.649 211.464,-112.689 C 211.504,-112.731 211.521,-112.782 211.516,-112.841 C 211.509,-112.923 211.463,-112.987 211.377,-113.038 C 211.291,-113.088 211.192,-113.11 211.08,-113.1 C 211.041,-113.093 211.004,-113.084 210.967,-113.068 z "
         style="fill:#888888;fill-opacity:1" />
      <path
         id="path817_1_"
         d="M 211.244,-113.709 C 210.873,-113.847 210.682,-113.982 210.67,-114.117 C 210.661,-114.219 210.761,-114.284 210.969,-114.302 L 211.054,-114.31 C 211.154,-114.319 211.222,-114.329 211.26,-114.341 C 211.297,-114.355 211.314,-114.376 211.312,-114.403 C 211.308,-114.446 211.272,-114.488 211.202,-114.533 C 211.134,-114.582 210.996,-114.654 210.79,-114.752 L 210.819,-114.816 C 211.026,-114.729 211.18,-114.65 211.282,-114.573 C 211.384,-114.498 211.438,-114.429 211.444,-114.361 C 211.449,-114.3 211.424,-114.256 211.369,-114.225 C 211.313,-114.197 211.212,-114.176 211.068,-114.163 L 211.007,-114.157 C 210.93,-114.151 210.875,-114.141 210.845,-114.128 C 210.815,-114.117 210.799,-114.095 210.801,-114.073 C 210.806,-114.01 210.941,-113.92 211.203,-113.803 C 211.267,-113.773 211.309,-113.756 211.327,-113.747 C 211.394,-113.717 211.441,-113.702 211.469,-113.705 C 211.48,-113.706 211.491,-113.71 211.502,-113.716 C 211.516,-113.689 211.524,-113.664 211.525,-113.646 C 211.529,-113.6 211.505,-113.573 211.452,-113.57 C 211.437,-113.568 211.368,-113.565 211.245,-113.568 L 211.09,-113.571 C 211.023,-113.574 210.971,-113.572 210.935,-113.569 C 210.886,-113.565 210.847,-113.55 210.82,-113.524 C 210.815,-113.533 210.808,-113.552 210.799,-113.572 C 210.785,-113.6 210.778,-113.626 210.777,-113.643 C 210.774,-113.68 210.8,-113.7 210.853,-113.705 C 210.881,-113.706 210.93,-113.709 211,-113.706 C 211.015,-113.705 211.031,-113.707 211.044,-113.706 L 211.244,-113.709 z "
         style="fill:#888888;fill-opacity:1" />
      <path
         id="path819_1_"
         d="M 211.131,-115.072 C 211.166,-115.09 211.199,-115.101 211.231,-115.106 C 211.304,-115.111 211.368,-115.085 211.429,-115.032 C 211.488,-114.975 211.521,-114.907 211.528,-114.826 C 211.532,-114.778 211.523,-114.736 211.502,-114.697 C 211.48,-114.664 211.452,-114.643 211.417,-114.64 C 211.38,-114.637 211.341,-114.655 211.299,-114.699 C 211.257,-114.741 211.205,-114.815 211.144,-114.919 L 211.057,-114.855 C 210.952,-114.776 210.868,-114.733 210.805,-114.728 C 210.715,-114.72 210.637,-114.768 210.573,-114.866 C 210.592,-114.933 210.621,-114.968 210.659,-114.97 C 210.711,-114.976 210.766,-114.938 210.823,-114.861 L 210.965,-114.955 L 211.074,-115.031 C 211.013,-115.117 210.959,-115.182 210.918,-115.223 C 210.875,-115.267 210.81,-115.32 210.724,-115.382 L 210.753,-115.443 C 210.899,-115.351 211.024,-115.229 211.131,-115.072 z M 211.205,-114.957 C 211.293,-114.823 211.356,-114.759 211.398,-114.763 C 211.438,-114.766 211.454,-114.797 211.449,-114.853 C 211.445,-114.895 211.428,-114.93 211.398,-114.952 C 211.367,-114.975 211.33,-114.985 211.285,-114.981 C 211.257,-114.977 211.231,-114.969 211.205,-114.957 z "
         style="fill:#888888;fill-opacity:1" />
      <path
         id="path821_1_"
         d="M 212.93,-105.102 L 213.918,-104.999 C 213.907,-105.05 213.899,-105.089 213.897,-105.116 C 213.891,-105.181 213.897,-105.221 213.915,-105.244 C 213.933,-105.269 213.97,-105.281 214.027,-105.286 C 214.012,-105.259 214.008,-105.224 214.011,-105.181 C 214.015,-105.134 214.024,-105.077 214.037,-105.011 L 214.059,-104.91 C 214.067,-104.878 214.077,-104.835 214.089,-104.781 C 214.094,-104.763 214.098,-104.745 214.097,-104.728 C 214.102,-104.676 214.061,-104.641 213.972,-104.625 C 213.981,-104.651 213.986,-104.676 213.983,-104.701 C 213.979,-104.752 213.968,-104.803 213.952,-104.855 L 213.147,-104.941 C 213.192,-104.866 213.217,-104.807 213.221,-104.761 C 213.227,-104.694 213.185,-104.656 213.098,-104.648 L 213.077,-104.646 C 213.099,-104.676 213.11,-104.71 213.106,-104.748 C 213.101,-104.81 213.052,-104.912 212.957,-105.052 C 212.953,-105.058 212.944,-105.074 212.93,-105.102 z "
         style="fill:#888888;fill-opacity:1" />
      <path
         id="path823_1_"
         d="M 212.844,-106.085 L 213.832,-105.982 C 213.821,-106.034 213.814,-106.07 213.811,-106.1 C 213.805,-106.164 213.811,-106.204 213.83,-106.227 C 213.847,-106.25 213.884,-106.264 213.941,-106.269 C 213.926,-106.242 213.921,-106.208 213.925,-106.162 C 213.929,-106.115 213.938,-106.059 213.951,-105.992 L 213.973,-105.893 C 213.981,-105.859 213.991,-105.818 214.004,-105.764 C 214.008,-105.746 214.012,-105.728 214.013,-105.711 C 214.016,-105.659 213.975,-105.623 213.886,-105.608 C 213.895,-105.634 213.9,-105.659 213.898,-105.684 C 213.894,-105.735 213.882,-105.787 213.866,-105.838 L 213.061,-105.925 C 213.106,-105.85 213.131,-105.79 213.135,-105.745 C 213.141,-105.677 213.099,-105.639 213.012,-105.631 L 212.991,-105.627 C 213.013,-105.66 213.024,-105.691 213.02,-105.729 C 213.015,-105.793 212.966,-105.894 212.871,-106.033 C 212.868,-106.04 212.859,-106.06 212.844,-106.085 z "
         style="fill:#888888;fill-opacity:1" />
      <path
         id="path825_1_"
         d="M 213.893,-106.841 C 213.901,-106.748 213.872,-106.671 213.807,-106.609 C 213.743,-106.547 213.65,-106.512 213.532,-106.504 C 213.338,-106.487 213.165,-106.525 213.013,-106.625 C 212.861,-106.722 212.778,-106.844 212.764,-106.993 C 212.755,-107.093 212.783,-107.173 212.848,-107.234 C 212.913,-107.293 213.006,-107.332 213.129,-107.343 C 213.324,-107.359 213.496,-107.319 213.646,-107.22 C 213.798,-107.118 213.878,-106.991 213.893,-106.841 z M 213.807,-106.891 C 213.799,-106.983 213.732,-107.059 213.605,-107.118 C 213.477,-107.18 213.336,-107.201 213.177,-107.187 C 212.944,-107.169 212.836,-107.085 212.848,-106.944 C 212.856,-106.851 212.923,-106.777 213.049,-106.72 C 213.175,-106.662 213.318,-106.638 213.479,-106.651 C 213.711,-106.673 213.82,-106.752 213.807,-106.891 z "
         style="fill:#888888;fill-opacity:1" />
      <path
         id="path827_1_"
         d="M 213.807,-107.824 C 213.815,-107.731 213.786,-107.654 213.721,-107.593 C 213.657,-107.532 213.564,-107.495 213.446,-107.485 C 213.252,-107.468 213.079,-107.508 212.927,-107.606 C 212.775,-107.706 212.692,-107.826 212.678,-107.976 C 212.669,-108.074 212.697,-108.154 212.762,-108.215 C 212.827,-108.276 212.922,-108.313 213.043,-108.326 C 213.237,-108.343 213.409,-108.303 213.56,-108.203 C 213.712,-108.101 213.792,-107.976 213.807,-107.824 z M 213.722,-107.875 C 213.714,-107.967 213.647,-108.043 213.52,-108.102 C 213.392,-108.162 213.251,-108.185 213.092,-108.171 C 212.859,-108.153 212.751,-108.07 212.763,-107.927 C 212.771,-107.835 212.838,-107.76 212.963,-107.703 C 213.089,-107.643 213.232,-107.62 213.393,-107.634 C 213.625,-107.657 213.733,-107.735 213.722,-107.875 z "
         style="fill:#888888;fill-opacity:1" />
      <path
         id="path829_1_"
         d="M 213.426,-109 C 213.504,-109.009 213.563,-109.034 213.603,-109.08 C 213.643,-109.126 213.661,-109.186 213.654,-109.26 C 213.648,-109.327 213.623,-109.384 213.578,-109.428 C 213.534,-109.474 213.486,-109.496 213.432,-109.49 C 213.374,-109.485 213.301,-109.423 213.209,-109.307 L 213.144,-109.223 C 213.06,-109.115 212.978,-109.057 212.9,-109.051 C 212.809,-109.043 212.731,-109.073 212.666,-109.139 C 212.6,-109.205 212.564,-109.296 212.554,-109.405 C 212.549,-109.464 212.553,-109.512 212.568,-109.549 C 212.584,-109.588 212.604,-109.608 212.632,-109.61 C 212.66,-109.611 212.693,-109.602 212.733,-109.581 C 212.657,-109.532 212.623,-109.461 212.631,-109.368 C 212.636,-109.31 212.658,-109.263 212.698,-109.227 C 212.737,-109.191 212.784,-109.174 212.835,-109.182 C 212.87,-109.185 212.897,-109.193 212.914,-109.208 C 212.932,-109.223 212.968,-109.265 213.025,-109.34 L 213.078,-109.409 C 213.176,-109.536 213.269,-109.602 213.355,-109.609 C 213.456,-109.62 213.543,-109.583 213.616,-109.511 C 213.689,-109.435 213.731,-109.339 213.742,-109.218 C 213.749,-109.136 213.736,-109.068 213.702,-109.014 C 213.669,-108.958 213.624,-108.927 213.566,-108.922 C 213.526,-108.914 213.479,-108.943 213.426,-109 z "
         style="fill:#888888;fill-opacity:1" />
      <path
         id="path831_1_"
         d="M 213.294,-109.955 C 213.433,-109.967 213.497,-110.032 213.486,-110.15 C 213.477,-110.253 213.419,-110.36 213.311,-110.475 C 213.203,-110.589 213.065,-110.689 212.898,-110.775 L 212.926,-110.839 C 213.108,-110.761 213.262,-110.653 213.389,-110.514 C 213.516,-110.375 213.586,-110.24 213.598,-110.106 C 213.605,-110.021 213.584,-109.951 213.533,-109.896 C 213.482,-109.844 213.409,-109.811 213.314,-109.802 C 213.175,-109.79 213.054,-109.825 212.948,-109.906 C 212.842,-109.989 212.784,-110.092 212.773,-110.22 C 212.767,-110.282 212.779,-110.331 212.807,-110.369 C 212.834,-110.411 212.874,-110.431 212.926,-110.435 C 213.011,-110.442 213.09,-110.4 213.165,-110.302 C 213.241,-110.203 213.282,-110.088 213.294,-109.955 z M 213.225,-109.955 C 213.212,-110.054 213.176,-110.137 213.118,-110.204 C 213.061,-110.272 212.997,-110.301 212.929,-110.296 C 212.867,-110.29 212.84,-110.26 212.845,-110.205 C 212.851,-110.14 212.891,-110.086 212.964,-110.037 C 213.04,-109.986 213.125,-109.96 213.225,-109.955 z "
         style="fill:#888888;fill-opacity:1" />
      <path
         id="path833_1_"
         d="M 213.04,-111.264 C 213.171,-111.213 213.284,-111.148 213.38,-111.067 C 213.475,-110.984 213.527,-110.911 213.532,-110.845 C 213.536,-110.794 213.518,-110.752 213.475,-110.719 C 213.432,-110.687 213.375,-110.664 213.301,-110.658 C 213.151,-110.645 213.017,-110.678 212.896,-110.757 C 212.774,-110.838 212.709,-110.938 212.699,-111.055 C 212.693,-111.125 212.708,-111.207 212.745,-111.292 C 212.7,-111.301 212.674,-111.349 212.666,-111.437 C 212.666,-111.443 212.665,-111.451 212.665,-111.465 C 212.708,-111.442 212.767,-111.426 212.839,-111.418 L 212.901,-111.411 C 212.97,-111.406 213.049,-111.403 213.139,-111.413 C 213.242,-111.422 213.292,-111.449 213.288,-111.5 C 213.284,-111.551 213.235,-111.617 213.14,-111.699 C 213.047,-111.78 212.93,-111.858 212.791,-111.931 L 212.824,-111.99 C 212.989,-111.915 213.127,-111.826 213.242,-111.72 C 213.357,-111.617 213.418,-111.525 213.425,-111.443 C 213.434,-111.34 213.352,-111.282 213.181,-111.267 C 213.149,-111.268 213.099,-111.266 213.04,-111.264 z M 212.867,-111.282 C 212.81,-111.176 212.784,-111.088 212.791,-111.025 C 212.796,-110.953 212.847,-110.894 212.938,-110.848 C 213.03,-110.803 213.136,-110.787 213.255,-110.797 C 213.352,-110.805 213.397,-110.841 213.391,-110.904 C 213.385,-110.972 213.224,-111.088 212.909,-111.256 C 212.904,-111.259 212.89,-111.267 212.867,-111.282 z "
         style="fill:#888888;fill-opacity:1" />
      <path
         id="path835_1_"
         d="M 212.792,-113.053 C 212.804,-113.056 212.814,-113.058 212.823,-113.06 C 212.96,-113.072 213.083,-113.037 213.193,-112.953 C 213.304,-112.869 213.364,-112.764 213.375,-112.64 C 213.383,-112.543 213.359,-112.464 213.303,-112.397 C 213.248,-112.332 213.171,-112.296 213.074,-112.286 C 212.964,-112.277 212.864,-112.308 212.776,-112.379 C 212.689,-112.449 212.64,-112.535 212.631,-112.643 C 212.63,-112.658 212.631,-112.676 212.633,-112.695 C 212.613,-112.682 212.595,-112.674 212.58,-112.672 C 212.557,-112.67 212.535,-112.676 212.512,-112.69 C 212.511,-112.808 212.562,-112.911 212.664,-112.994 C 212.711,-113.078 212.731,-113.162 212.723,-113.248 C 212.718,-113.303 212.694,-113.36 212.65,-113.422 L 212.708,-113.461 C 212.768,-113.392 212.801,-113.314 212.808,-113.236 C 212.816,-113.183 212.808,-113.122 212.792,-113.053 z M 212.747,-112.886 C 212.737,-112.846 212.722,-112.805 212.7,-112.773 C 212.696,-112.748 212.694,-112.727 212.697,-112.712 C 212.703,-112.631 212.747,-112.562 212.825,-112.507 C 212.903,-112.453 212.989,-112.429 213.082,-112.435 C 213.148,-112.443 213.204,-112.467 213.243,-112.506 C 213.283,-112.547 213.301,-112.597 213.296,-112.657 C 213.289,-112.737 213.242,-112.802 213.156,-112.853 C 213.07,-112.904 212.972,-112.925 212.859,-112.914 C 212.82,-112.911 212.783,-112.902 212.747,-112.886 z "
         style="fill:#888888;fill-opacity:1" />
      <path
         id="path837_1_"
         d="M 212.723,-113.369 L 212.725,-113.355 C 212.731,-113.285 212.755,-113.225 212.793,-113.174 C 212.732,-113.18 212.692,-113.194 212.674,-113.212 C 212.656,-113.233 212.643,-113.278 212.637,-113.349 L 212.635,-113.376 L 212.516,-113.39 C 212.354,-113.408 212.233,-113.448 212.157,-113.514 C 212.062,-113.595 212.01,-113.686 212.001,-113.789 C 211.997,-113.832 212.004,-113.869 212.02,-113.897 C 212.036,-113.928 212.058,-113.945 212.084,-113.948 C 212.112,-113.949 212.147,-113.922 212.187,-113.864 C 212.116,-113.841 212.084,-113.799 212.089,-113.739 C 212.098,-113.631 212.223,-113.563 212.461,-113.537 L 212.622,-113.52 L 212.6,-113.771 C 212.59,-113.883 212.576,-113.967 212.56,-114.019 C 212.611,-114.001 212.644,-113.977 212.658,-113.947 C 212.671,-113.918 212.681,-113.846 212.693,-113.722 L 212.712,-113.508 L 213.333,-113.441 C 213.393,-113.434 213.445,-113.432 213.488,-113.433 C 213.516,-113.435 213.541,-113.444 213.562,-113.46 C 213.583,-113.414 213.594,-113.379 213.596,-113.352 C 213.599,-113.313 213.578,-113.291 213.535,-113.287 C 213.501,-113.284 213.442,-113.287 213.362,-113.296 L 212.723,-113.369 z "
         style="fill:#888888;fill-opacity:1" />
      <path
         id="path839_1_"
         d="M 212.538,-115.309 C 212.742,-115.212 212.903,-115.105 213.025,-114.984 C 213.147,-114.865 213.214,-114.75 213.223,-114.641 C 213.231,-114.549 213.205,-114.471 213.148,-114.411 C 213.091,-114.35 213.012,-114.314 212.911,-114.303 C 212.779,-114.291 212.66,-114.332 212.554,-114.42 C 212.448,-114.509 212.388,-114.623 212.377,-114.755 C 212.372,-114.809 212.379,-114.854 212.397,-114.89 C 212.414,-114.926 212.439,-114.946 212.471,-114.949 C 212.523,-114.955 212.565,-114.912 212.599,-114.826 C 212.587,-114.829 212.576,-114.83 212.565,-114.83 C 212.488,-114.823 212.454,-114.779 212.461,-114.699 C 212.467,-114.629 212.513,-114.567 212.597,-114.514 C 212.681,-114.462 212.77,-114.437 212.864,-114.447 C 212.94,-114.456 213.002,-114.479 213.047,-114.523 C 213.091,-114.567 213.111,-114.619 213.106,-114.684 C 213.091,-114.859 212.891,-115.047 212.507,-115.248 L 212.538,-115.309 z "
         style="fill:#888888;fill-opacity:1" />
      <path
         id="path841_1_"
         d="M 212.546,-115.882 C 212.557,-115.884 212.567,-115.886 212.576,-115.887 C 212.713,-115.899 212.836,-115.862 212.947,-115.779 C 213.057,-115.694 213.117,-115.59 213.128,-115.466 C 213.137,-115.37 213.113,-115.292 213.056,-115.224 C 213,-115.16 212.924,-115.124 212.826,-115.115 C 212.716,-115.105 212.616,-115.134 212.528,-115.205 C 212.441,-115.278 212.393,-115.364 212.383,-115.472 C 212.381,-115.488 212.382,-115.503 212.384,-115.524 C 212.364,-115.51 212.346,-115.502 212.331,-115.501 C 212.308,-115.499 212.286,-115.505 212.263,-115.519 C 212.262,-115.636 212.313,-115.737 212.416,-115.823 C 212.462,-115.905 212.482,-115.989 212.474,-116.076 C 212.469,-116.132 212.445,-116.19 212.401,-116.251 L 212.459,-116.291 C 212.519,-116.222 212.552,-116.145 212.559,-116.065 C 212.568,-116.011 212.562,-115.949 212.546,-115.882 z M 212.498,-115.714 C 212.489,-115.674 212.474,-115.635 212.451,-115.601 C 212.448,-115.577 212.446,-115.557 212.448,-115.54 C 212.455,-115.459 212.499,-115.391 212.577,-115.335 C 212.655,-115.279 212.74,-115.255 212.834,-115.263 C 212.9,-115.269 212.956,-115.292 212.994,-115.334 C 213.034,-115.375 213.053,-115.423 213.048,-115.485 C 213.041,-115.566 212.994,-115.629 212.908,-115.679 C 212.822,-115.732 212.723,-115.753 212.61,-115.741 C 212.573,-115.74 212.535,-115.731 212.498,-115.714 z "
         style="fill:#888888;fill-opacity:1" />
      <path
         id="path843_1_"
         d="M 212.403,-116.879 C 212.599,-116.8 212.753,-116.714 212.867,-116.622 C 212.982,-116.533 213.043,-116.449 213.05,-116.372 C 213.055,-116.317 213.037,-116.27 212.997,-116.233 C 212.957,-116.196 212.903,-116.171 212.834,-116.165 C 212.794,-116.162 212.739,-116.164 212.667,-116.172 L 211.943,-116.25 C 211.946,-116.232 211.95,-116.216 211.951,-116.202 C 211.96,-116.094 211.92,-116.036 211.827,-116.028 L 211.81,-116.027 C 211.837,-116.087 211.849,-116.152 211.843,-116.223 C 211.837,-116.294 211.813,-116.356 211.773,-116.404 L 212.643,-116.317 C 212.72,-116.307 212.774,-116.306 212.803,-116.308 C 212.884,-116.315 212.922,-116.348 212.916,-116.407 C 212.911,-116.464 212.875,-116.518 212.805,-116.571 C 212.735,-116.62 212.591,-116.702 212.37,-116.818 L 212.403,-116.879 z "
         style="fill:#888888;fill-opacity:1" />
      <path
         id="path845_1_"
         d="M 212.41,-117.451 C 212.421,-117.454 212.431,-117.455 212.44,-117.456 C 212.577,-117.468 212.7,-117.432 212.811,-117.348 C 212.921,-117.266 212.981,-117.159 212.992,-117.037 C 213,-116.942 212.976,-116.862 212.92,-116.794 C 212.864,-116.729 212.788,-116.693 212.691,-116.684 C 212.581,-116.674 212.481,-116.704 212.394,-116.775 C 212.305,-116.848 212.258,-116.933 212.248,-117.041 C 212.246,-117.057 212.247,-117.071 212.249,-117.093 C 212.229,-117.079 212.211,-117.072 212.198,-117.069 C 212.174,-117.067 212.152,-117.074 212.129,-117.087 C 212.128,-117.205 212.179,-117.306 212.282,-117.392 C 212.328,-117.473 212.348,-117.558 212.34,-117.644 C 212.335,-117.701 212.311,-117.759 212.267,-117.82 L 212.325,-117.86 C 212.385,-117.789 212.418,-117.714 212.425,-117.635 C 212.43,-117.58 212.425,-117.52 212.41,-117.451 z M 212.363,-117.283 C 212.353,-117.244 212.338,-117.204 212.315,-117.171 C 212.312,-117.147 212.31,-117.126 212.312,-117.11 C 212.319,-117.03 212.363,-116.961 212.441,-116.906 C 212.519,-116.849 212.605,-116.826 212.698,-116.834 C 212.764,-116.842 212.82,-116.863 212.859,-116.905 C 212.898,-116.947 212.917,-116.996 212.912,-117.056 C 212.905,-117.137 212.858,-117.2 212.772,-117.252 C 212.685,-117.304 212.587,-117.324 212.474,-117.314 C 212.434,-117.309 212.398,-117.299 212.363,-117.283 z "
         style="fill:#888888;fill-opacity:1" />
      <path
         id="path847_1_"
         d="M 212.893,-117.884 C 212.912,-117.852 212.922,-117.828 212.924,-117.807 C 212.928,-117.759 212.908,-117.733 212.866,-117.729 C 212.844,-117.727 212.789,-117.73 212.702,-117.739 L 212.52,-117.759 C 212.414,-117.773 212.333,-117.776 212.284,-117.772 C 212.255,-117.769 212.233,-117.76 212.216,-117.742 C 212.195,-117.791 212.183,-117.831 212.181,-117.86 C 212.178,-117.893 212.198,-117.911 212.239,-117.917 C 212.266,-117.917 212.335,-117.913 212.449,-117.9 L 212.659,-117.875 C 212.476,-117.952 212.334,-118.028 212.229,-118.11 C 212.124,-118.194 212.069,-118.27 212.062,-118.345 C 212.061,-118.374 212.064,-118.397 212.079,-118.414 C 212.091,-118.435 212.11,-118.445 212.131,-118.447 C 212.164,-118.45 212.211,-118.419 212.273,-118.348 C 212.237,-118.329 212.22,-118.299 212.223,-118.266 C 212.228,-118.206 212.299,-118.135 212.436,-118.052 C 212.521,-118.002 212.608,-117.959 212.697,-117.924 C 212.785,-117.889 212.847,-117.872 212.883,-117.875 L 212.893,-117.884 z "
         style="fill:#888888;fill-opacity:1" />
      <path
         id="path849_1_"
         d="M 212.558,-118.9 C 212.593,-118.919 212.626,-118.933 212.658,-118.936 C 212.731,-118.94 212.797,-118.918 212.857,-118.862 C 212.916,-118.805 212.949,-118.737 212.956,-118.656 C 212.96,-118.608 212.951,-118.565 212.929,-118.528 C 212.907,-118.494 212.88,-118.472 212.845,-118.469 C 212.808,-118.468 212.768,-118.486 212.727,-118.528 C 212.685,-118.571 212.634,-118.645 212.571,-118.751 L 212.485,-118.685 C 212.379,-118.606 212.295,-118.564 212.233,-118.561 C 212.143,-118.549 212.066,-118.598 212.002,-118.699 C 212.021,-118.766 212.049,-118.801 212.087,-118.804 C 212.139,-118.81 212.194,-118.772 212.251,-118.694 L 212.393,-118.788 L 212.503,-118.864 C 212.44,-118.948 212.389,-119.014 212.345,-119.058 C 212.303,-119.099 212.239,-119.152 212.151,-119.216 L 212.181,-119.276 C 212.324,-119.179 212.453,-119.058 212.558,-118.9 z M 212.632,-118.786 C 212.718,-118.652 212.783,-118.588 212.824,-118.591 C 212.863,-118.593 212.88,-118.624 212.875,-118.682 C 212.871,-118.725 212.854,-118.758 212.823,-118.781 C 212.793,-118.803 212.755,-118.813 212.71,-118.808 C 212.686,-118.806 212.658,-118.799 212.632,-118.786 z "
         style="fill:#888888;fill-opacity:1" />
      <path
         id="path851_1_"
         d="M 215.832,-104.854 C 215.783,-104.862 215.718,-104.864 215.64,-104.856 C 215.448,-104.84 215.264,-104.809 215.087,-104.763 C 214.912,-104.717 214.781,-104.666 214.696,-104.612 C 214.68,-104.658 214.671,-104.693 214.669,-104.715 C 214.666,-104.746 214.678,-104.771 214.708,-104.787 C 214.735,-104.805 214.803,-104.83 214.91,-104.86 C 215.075,-104.91 215.302,-104.956 215.593,-104.994 C 215.253,-105.124 214.985,-105.234 214.791,-105.315 C 214.789,-105.322 214.788,-105.325 214.788,-105.328 C 214.782,-105.349 214.779,-105.363 214.779,-105.368 C 214.776,-105.408 214.792,-105.427 214.83,-105.432 C 214.84,-105.433 214.854,-105.434 214.871,-105.432 C 215.026,-105.426 215.141,-105.43 215.214,-105.434 L 215.295,-105.438 L 215.344,-105.442 C 215.521,-105.456 215.608,-105.492 215.604,-105.547 C 215.599,-105.608 215.528,-105.667 215.395,-105.719 C 215.244,-105.778 215.072,-105.799 214.881,-105.78 C 214.797,-105.775 214.721,-105.746 214.653,-105.699 C 214.642,-105.732 214.636,-105.763 214.633,-105.791 C 214.629,-105.835 214.638,-105.867 214.661,-105.885 C 214.684,-105.906 214.725,-105.917 214.786,-105.925 C 214.981,-105.942 215.184,-105.902 215.397,-105.81 C 215.495,-105.765 215.576,-105.715 215.642,-105.655 C 215.708,-105.595 215.743,-105.541 215.747,-105.493 C 215.752,-105.439 215.726,-105.398 215.667,-105.371 C 215.608,-105.343 215.505,-105.321 215.358,-105.31 C 215.298,-105.307 215.207,-105.302 215.084,-105.297 C 215.292,-105.199 215.463,-105.125 215.598,-105.078 L 215.653,-105.06 C 215.725,-105.032 215.77,-105.009 215.785,-104.99 C 215.801,-104.971 215.815,-104.927 215.832,-104.854 z "
         style="fill:#888888;fill-opacity:1" />
      <path
         id="path853_1_"
         d="M 215.098,-106.848 C 215.109,-106.85 215.121,-106.852 215.128,-106.854 C 215.267,-106.864 215.39,-106.83 215.499,-106.746 C 215.61,-106.662 215.67,-106.558 215.681,-106.433 C 215.689,-106.338 215.666,-106.258 215.61,-106.191 C 215.554,-106.129 215.477,-106.089 215.38,-106.081 C 215.27,-106.071 215.171,-106.101 215.082,-106.174 C 214.995,-106.245 214.946,-106.33 214.936,-106.439 C 214.935,-106.455 214.935,-106.471 214.938,-106.492 C 214.917,-106.479 214.901,-106.471 214.886,-106.467 C 214.863,-106.465 214.841,-106.474 214.818,-106.486 C 214.817,-106.605 214.868,-106.706 214.97,-106.79 C 215.016,-106.873 215.038,-106.959 215.029,-107.043 C 215.024,-107.099 215.001,-107.156 214.957,-107.218 L 215.015,-107.257 C 215.074,-107.188 215.106,-107.111 215.114,-107.032 C 215.12,-106.977 215.115,-106.917 215.098,-106.848 z M 215.051,-106.681 C 215.043,-106.641 215.027,-106.601 215.004,-106.567 C 215,-106.542 215,-106.523 215.002,-106.506 C 215.009,-106.425 215.051,-106.357 215.129,-106.301 C 215.208,-106.247 215.293,-106.224 215.386,-106.232 C 215.454,-106.238 215.508,-106.262 215.548,-106.302 C 215.588,-106.345 215.605,-106.395 215.6,-106.454 C 215.593,-106.537 215.547,-106.6 215.461,-106.65 C 215.375,-106.702 215.276,-106.722 215.164,-106.713 C 215.124,-106.705 215.087,-106.696 215.051,-106.681 z "
         style="fill:#888888;fill-opacity:1" />
      <path
         id="path855_1_"
         d="M 215.585,-107.28 C 215.603,-107.249 215.613,-107.223 215.615,-107.204 C 215.619,-107.156 215.6,-107.129 215.557,-107.125 C 215.535,-107.124 215.48,-107.127 215.392,-107.136 L 215.212,-107.157 C 215.104,-107.169 215.025,-107.173 214.974,-107.169 C 214.947,-107.169 214.924,-107.157 214.908,-107.14 C 214.887,-107.188 214.874,-107.228 214.872,-107.259 C 214.869,-107.292 214.889,-107.31 214.931,-107.314 C 214.957,-107.316 215.026,-107.311 215.139,-107.297 L 215.349,-107.274 C 215.168,-107.348 215.024,-107.425 214.919,-107.51 C 214.815,-107.593 214.76,-107.67 214.753,-107.744 C 214.751,-107.771 214.756,-107.794 214.77,-107.812 C 214.784,-107.832 214.801,-107.843 214.823,-107.844 C 214.855,-107.847 214.902,-107.816 214.963,-107.748 C 214.928,-107.726 214.911,-107.698 214.913,-107.665 C 214.919,-107.602 214.99,-107.534 215.127,-107.45 C 215.212,-107.398 215.299,-107.356 215.387,-107.322 C 215.476,-107.287 215.539,-107.269 215.575,-107.272 L 215.585,-107.28 z "
         style="fill:#888888;fill-opacity:1" />
      <path
         id="path857_1_"
         d="M 214.887,-108.636 C 215.082,-108.556 215.236,-108.47 215.351,-108.378 C 215.466,-108.289 215.527,-108.206 215.534,-108.128 C 215.539,-108.073 215.522,-108.026 215.481,-107.988 C 215.441,-107.95 215.387,-107.929 215.317,-107.923 C 215.278,-107.922 215.222,-107.921 215.15,-107.93 L 214.425,-108.008 C 214.43,-107.987 214.433,-107.972 214.434,-107.96 C 214.444,-107.851 214.402,-107.792 214.311,-107.784 L 214.294,-107.783 C 214.32,-107.846 214.332,-107.911 214.325,-107.983 C 214.32,-108.053 214.296,-108.114 214.255,-108.164 L 215.126,-108.076 C 215.204,-108.068 215.258,-108.066 215.287,-108.065 C 215.367,-108.075 215.404,-108.108 215.399,-108.167 C 215.394,-108.224 215.357,-108.278 215.288,-108.328 C 215.219,-108.381 215.073,-108.463 214.852,-108.579 L 214.887,-108.636 z "
         style="fill:#888888;fill-opacity:1" />
      <path
         id="path859_1_"
         d="M 215.014,-109.053 C 215.153,-108.992 215.266,-108.922 215.351,-108.847 C 215.436,-108.774 215.482,-108.705 215.488,-108.641 C 215.492,-108.593 215.474,-108.548 215.432,-108.517 C 215.39,-108.484 215.332,-108.461 215.257,-108.457 C 215.107,-108.444 214.972,-108.477 214.85,-108.556 C 214.73,-108.633 214.664,-108.734 214.654,-108.852 C 214.648,-108.922 214.664,-109.002 214.702,-109.091 L 214.313,-109.133 C 214.325,-109.092 214.332,-109.058 214.334,-109.032 C 214.338,-108.989 214.33,-108.96 214.312,-108.936 C 214.295,-108.915 214.258,-108.896 214.205,-108.881 C 214.226,-108.916 214.233,-108.969 214.226,-109.042 C 214.218,-109.13 214.196,-109.211 214.156,-109.293 L 214.95,-109.205 C 215.039,-109.197 215.114,-109.194 215.174,-109.198 C 215.256,-109.205 215.294,-109.233 215.29,-109.279 C 215.286,-109.326 215.226,-109.398 215.11,-109.495 C 214.994,-109.592 214.875,-109.67 214.751,-109.729 L 214.784,-109.789 C 214.945,-109.719 215.093,-109.626 215.226,-109.51 C 215.36,-109.394 215.429,-109.297 215.436,-109.22 C 215.444,-109.125 215.372,-109.07 215.218,-109.057 C 215.157,-109.048 215.088,-109.048 215.014,-109.053 z M 214.822,-109.075 C 214.765,-108.971 214.74,-108.886 214.746,-108.821 C 214.752,-108.752 214.801,-108.692 214.893,-108.648 C 214.985,-108.602 215.092,-108.587 215.21,-108.597 C 215.306,-108.604 215.351,-108.64 215.345,-108.703 C 215.341,-108.772 215.18,-108.888 214.864,-109.053 C 214.858,-109.056 214.845,-109.062 214.822,-109.075 z "
         style="fill:#888888;fill-opacity:1" />
    </g>
    <polygon
       style="fill:#0066ff;fill-opacity:1"
       points="10.221,-91 8.221,-91 10.221,-92.5 12.221,-92.5 10.221,-91 "
       id="polygon3433"
       transform="matrix(4,0,0,4,1.01049,480)" />
    <polygon
       style="fill:#ff0000;fill-opacity:1"
       points="15.721,-91 13.721,-91 15.721,-92.5 17.721,-92.5 15.721,-91 "
       id="polygon3435"
       transform="matrix(4,0,0,4,1.01049,480)" />
    <polygon
       style="fill:#6193cf"
       points="21.221,-91 19.221,-91 21.221,-92.5 23.221,-92.5 21.221,-91 "
       id="polygon3437"
       transform="matrix(4,0,0,4,1.01049,480)" />
    <polygon
       id="polygon3439"
       points="21.22,-117.498 23.22,-117.498 21.22,-118.998 19.22,-118.998 21.22,-117.498 "
       style="fill:#ff0000;fill-opacity:1"
       transform="matrix(4,0,0,4,1.01049,480)" />
    <polygon
       id="polygon3441"
       points="15.72,-117.498 17.72,-117.498 15.72,-118.998 13.72,-118.998 15.72,-117.498 "
       style="fill:#0066ff;fill-opacity:1"
       transform="matrix(4,0,0,4,1.01049,480)" />
    <polygon
       id="polygon3443"
       points="10.22,-117.498 12.22,-117.498 10.22,-118.998 8.22,-118.998 10.22,-117.498 "
       style="fill:#ff0000;fill-opacity:1"
       transform="matrix(4,0,0,4,1.01049,480)" />
    <polygon
       id="polygon3445"
       points="25,-94 25,-92 23.5,-94 23.5,-96 25,-94 "
       style="fill:#ff8080"
       transform="matrix(4,0,0,4,1.01049,480)" />
    <polygon
       id="polygon3447"
       points="25,-101.334 25,-99.334 23.5,-101.334 23.5,-103.333 25,-101.334 "
       style="fill:#6193cf"
       transform="matrix(4,0,0,4,1.01049,480)" />
    <polygon
       id="polygon3449"
       points="25,-108.667 25,-106.667 23.5,-108.667 23.5,-110.667 25,-108.667 "
       style="fill:#ff0000;fill-opacity:1"
       transform="matrix(4,0,0,4,1.01049,480)" />
    <polygon
       id="polygon3451"
       points="25,-116 25,-114 23.5,-116 23.5,-118 25,-116 "
       style="fill:#0066ff;fill-opacity:1"
       transform="matrix(4,0,0,4,1.01049,480)" />
    <polygon
       id="polygon3453"
       points="8.5,-116 8.5,-118 7,-116 7,-114 8.5,-116 "
       style="fill:#0066ff;fill-opacity:1"
       transform="matrix(4,0,0,4,1.01049,480)" />
    <polygon
       id="polygon3455"
       points="8.5,-101.334 8.5,-103.333 7,-101.334 7,-99.334 8.5,-101.334 "
       style="fill:#0066ff;fill-opacity:1"
       transform="matrix(4,0,0,4,1.01049,480)" />
    <polygon
       id="polygon3457"
       points="8.5,-108.667 8.5,-110.667 7,-108.667 7,-106.667 8.5,-108.667 "
       style="fill:#ff0000;fill-opacity:1"
       transform="matrix(4,0,0,4,1.01049,480)" />
    <polygon
       id="polygon3459"
       points="8.5,-94 8.5,-96 7,-94 7,-92 8.5,-94 "
       style="fill:#ff0000;fill-opacity:1"
       transform="matrix(4,0,0,4,1.01049,480)" />
    <g
       id="g25305"
       transform="translate(-1.00001,1.39438)">
      <circle
         transform="matrix(3.912368,0,0,3.912368,-465.6799,470.894)"
         sodipodi:ry="8.0010004"
         sodipodi:rx="8.0010004"
         sodipodi:cy="-96.000999"
         sodipodi:cx="143.99899"
         style="fill:#0066ff;fill-opacity:1"
         r="8.0010004"
         cy="-96.000999"
         cx="143.99899"
         id="circle3581" />
      <polygon
         transform="matrix(3.92986,0,0,3.92986,3.24455,472.4332)"
         id="polygon3477"
         points="28.167,-94.612 29,-95.446 24,-101.279 19,-95.446 19.833,-94.612 23.167,-97.498 23.167,-91.279 24.833,-91.279 24.833,-97.567 28.167,-94.612 "
         style="fill:url(#linearGradient25309)" />
    </g>
  </g>
</svg>
