<?xml version="1.0" encoding="utf-8"?>
<!-- Generator: Adobe Illustrator 12.0.0, SVG Export Plug-In . SVG Version: 6.00 Build 51448)  -->
<!DOCTYPE svg PUBLIC "-//W3C//DTD SVG 1.1//EN" "http://www.w3.org/Graphics/SVG/1.1/DTD/svg11.dtd" [
	<!ENTITY ns_svg "http://www.w3.org/2000/svg">
	<!ENTITY ns_xlink "http://www.w3.org/1999/xlink">
]>
<svg  version="1.1" id="Livello_1" xmlns="&ns_svg;" xmlns:xlink="&ns_xlink;" width="128" height="128" viewBox="0 0 128 128"
	 overflow="visible" enable-background="new 0 0 128 128" xml:space="preserve">
<path opacity="0.15" fill="#323232" d="M10,4C7.794,4,6,5.794,6,8v112c0,2.206,1.794,4,4,4h112c2.206,0,4-1.794,4-4V8
	c0-2.206-1.794-4-4-4H10z"/>
<path opacity="0.2" fill="#323232" d="M10,5C8.346,5,7,6.346,7,8v112c0,1.654,1.346,3,3,3h112c1.654,0,3-1.346,3-3V8
	c0-1.654-1.346-3-3-3H10z"/>
<path opacity="0.25" fill="#323232" d="M10,6C8.897,6,8,6.897,8,8v112c0,1.103,0.897,2,2,2h112c1.103,0,2-0.897,2-2V8
	c0-1.103-0.897-2-2-2H10z"/>
<path opacity="0.3" fill="#323232" d="M10,7C9.448,7,9,7.448,9,8v112c0,0.553,0.448,1,1,1h112c0.553,0,1-0.447,1-1V8
	c0-0.552-0.447-1-1-1H10z"/>
<radialGradient id="XMLID_2_" cx="10" cy="7.9995" r="156.984" gradientUnits="userSpaceOnUse">
	<stop  offset="0.0765" style="stop-color:#F3C300"/>
	<stop  offset="0.1887" style="stop-color:#F7D21F"/>
	<stop  offset="0.3467" style="stop-color:#FDE446"/>
	<stop  offset="0.4294" style="stop-color:#FFEB55"/>
	<stop  offset="0.6882" style="stop-color:#FFEB55"/>
	<stop  offset="0.7281" style="stop-color:#FEE951"/>
	<stop  offset="0.7641" style="stop-color:#FDE446"/>
	<stop  offset="0.7987" style="stop-color:#FADB34"/>
	<stop  offset="0.8322" style="stop-color:#F7CF1A"/>
	<stop  offset="0.8588" style="stop-color:#F3C300"/>
	<stop  offset="0.9208" style="stop-color:#FBD400"/>
	<stop  offset="0.9706" style="stop-color:#FFDD00"/>
</radialGradient>
<polygon fill="url(#XMLID_2_)" points="124,93.168 122,118 95.167,122 8,122 8,57.5 10,8 59.5,6 124,6 "/>
<rect id="_x3C_Sezione_x3E_" fill="none" width="128" height="128"/>
</svg>
