<?xml version="1.0" encoding="UTF-8" standalone="no"?>
<!-- Generator: Adobe Illustrator 12.0.0, SVG Export Plug-In . SVG Version: 6.00 Build 51448)  -->
<svg
   xmlns:dc="http://purl.org/dc/elements/1.1/"
   xmlns:cc="http://web.resource.org/cc/"
   xmlns:rdf="http://www.w3.org/1999/02/22-rdf-syntax-ns#"
   xmlns:svg="http://www.w3.org/2000/svg"
   xmlns="http://www.w3.org/2000/svg"
   xmlns:xlink="http://www.w3.org/1999/xlink"
   xmlns:sodipodi="http://inkscape.sourceforge.net/DTD/sodipodi-0.dtd"
   xmlns:inkscape="http://www.inkscape.org/namespaces/inkscape"
   version="1.1"
   id="Livello_1"
   width="128"
   height="128"
   viewBox="0 0 128 128"
   overflow="visible"
   enable-background="new 0 0 128 128"
   xml:space="preserve"
   sodipodi:version="0.32"
   inkscape:version="0.43"
   sodipodi:docname="note.svg"
   sodipodi:docbase="/home/pinheiro/artwork/Oxygen/svg/actions"><metadata
   id="metadata42"><rdf:RDF><cc:Work
       rdf:about=""><dc:format>image/svg+xml</dc:format><dc:type
         rdf:resource="http://purl.org/dc/dcmitype/StillImage" /></cc:Work></rdf:RDF></metadata><defs
   id="defs40"><linearGradient
     id="linearGradient2216"><stop
       style="stop-color:#ffffff;stop-opacity:0;"
       offset="0"
       id="stop2218" /><stop
       id="stop2224"
       offset="0.5"
       style="stop-color:#ffffff;stop-opacity:1;" /><stop
       style="stop-color:#ffffff;stop-opacity:0;"
       offset="1"
       id="stop2220" /></linearGradient><linearGradient
     inkscape:collect="always"
     xlink:href="#linearGradient2216"
     id="linearGradient2241"
     x1="29.710941"
     y1="-35.443974"
     x2="126.55885"
     y2="61.403938"
     gradientUnits="userSpaceOnUse" /></defs><sodipodi:namedview
   inkscape:window-height="540"
   inkscape:window-width="835"
   inkscape:pageshadow="2"
   inkscape:pageopacity="0.0"
   borderopacity="1.0"
   bordercolor="#666666"
   pagecolor="#ffffff"
   id="base"
   inkscape:zoom="3.2473636"
   inkscape:cx="86.125522"
   inkscape:cy="89.913695"
   inkscape:window-x="1079"
   inkscape:window-y="634"
   inkscape:current-layer="Livello_1" />
<path
   opacity="0.15"
   fill="#323232"
   d="M10,4C7.794,4,6,5.794,6,8v112c0,2.206,1.794,4,4,4h112c2.206,0,4-1.794,4-4V8  c0-2.206-1.794-4-4-4H10z"
   id="path3" />
<path
   opacity="0.2"
   fill="#323232"
   d="M10,5C8.346,5,7,6.346,7,8v112c0,1.654,1.346,3,3,3h112c1.654,0,3-1.346,3-3V8  c0-1.654-1.346-3-3-3H10z"
   id="path5" />
<path
   opacity="0.25"
   fill="#323232"
   d="M10,6C8.897,6,8,6.897,8,8v112c0,1.103,0.897,2,2,2h112c1.103,0,2-0.897,2-2V8  c0-1.103-0.897-2-2-2H10z"
   id="path7" />
<path
   opacity="0.3"
   fill="#323232"
   d="M10,7C9.448,7,9,7.448,9,8v112c0,0.553,0.448,1,1,1h112c0.553,0,1-0.447,1-1V8  c0-0.552-0.447-1-1-1H10z"
   id="path9" />
<radialGradient
   id="XMLID_2_"
   cx="10"
   cy="7.9995"
   r="156.984"
   gradientUnits="userSpaceOnUse">
	<stop
   offset="0.0765"
   style="stop-color:#F3C300"
   id="stop12" />
	<stop
   offset="0.1887"
   style="stop-color:#F7D21F"
   id="stop14" />
	<stop
   offset="0.3467"
   style="stop-color:#FDE446"
   id="stop16" />
	<stop
   offset="0.4294"
   style="stop-color:#FFEB55"
   id="stop18" />
	<stop
   offset="0.6882"
   style="stop-color:#FFEB55"
   id="stop20" />
	<stop
   offset="0.7281"
   style="stop-color:#FEE951"
   id="stop22" />
	<stop
   offset="0.7641"
   style="stop-color:#FDE446"
   id="stop24" />
	<stop
   offset="0.7987"
   style="stop-color:#FADB34"
   id="stop26" />
	<stop
   offset="0.8322"
   style="stop-color:#F7CF1A"
   id="stop28" />
	<stop
   offset="0.8588"
   style="stop-color:#F3C300"
   id="stop30" />
	<stop
   offset="0.9208"
   style="stop-color:#FBD400"
   id="stop32" />
	<stop
   offset="0.9706"
   style="stop-color:#FFDD00"
   id="stop34" />
</radialGradient>
<polygon
   fill="url(#XMLID_2_)"
   points="124,93.168 122,118 95.167,122 8,122 8,57.5 10,8 59.5,6 124,6 "
   id="polygon36" />
<rect
   id="_x3C_Sezione_x3E_"
   fill="none"
   width="128"
   height="128" />
<path
   style="opacity:0.70491803;fill:url(#linearGradient2241);fill-opacity:1.0;fill-rule:nonzero;stroke:none;stroke-width:0.80199999;stroke-linecap:round;stroke-linejoin:round;stroke-miterlimit:4;stroke-dashoffset:4;stroke-opacity:1"
   d="M 10.26738,10.613903 L 64.066845,7.6139034 L 122.86631,7.6139034 L 122.86631,32.513369 L 66.566845,32.513369 L 9.76738,33.813369 L 10.26738,10.613903 z "
   id="rect1341"
   sodipodi:nodetypes="ccccccc" /></svg>