<?xml version="1.0" encoding="UTF-8" standalone="no"?>
<!-- Created with Inkscape (http://www.inkscape.org/) -->
<svg
   xmlns:a="http://ns.adobe.com/AdobeSVGViewerExtensions/3.0/"
   xmlns:dc="http://purl.org/dc/elements/1.1/"
   xmlns:cc="http://web.resource.org/cc/"
   xmlns:rdf="http://www.w3.org/1999/02/22-rdf-syntax-ns#"
   xmlns:svg="http://www.w3.org/2000/svg"
   xmlns="http://www.w3.org/2000/svg"
   xmlns:xlink="http://www.w3.org/1999/xlink"
   xmlns:sodipodi="http://sodipodi.sourceforge.net/DTD/sodipodi-0.dtd"
   xmlns:inkscape="http://www.inkscape.org/namespaces/inkscape"
   width="128"
   height="128"
   id="svg2"
   sodipodi:version="0.32"
   inkscape:version="0.45+devel"
   version="1.0"
   sodipodi:docname="binocular.svg"
   sodipodi:docbase="/home/kwwii/Desktop"
   inkscape:output_extension="org.inkscape.output.svg.inkscape"
   inkscape:export-filename="/home/kwwii/Desktop/binocular2.png"
   inkscape:export-xdpi="90"
   inkscape:export-ydpi="90"
   sodipodi:modified="true">
  <defs
     id="defs4">
    <linearGradient
       gradientTransform="matrix(1.0735,0,0,-1.0735,383.7799,373.333)"
       y2="288.6256"
       x2="-336.9069"
       y1="303.4795"
       x1="-366.4077"
       gradientUnits="userSpaceOnUse"
       id="linearGradient9528">
      <stop
         id="stop9530"
         style="stop-color:#262626;stop-opacity:1;"
         offset="0" />
      <stop
         offset="0.34996846"
         style="stop-color:#434343;stop-opacity:1;"
         id="stop9532" />
      <stop
         id="stop9534"
         style="stop-color:#484848;stop-opacity:1;"
         offset="0.54346919" />
      <stop
         id="stop9536"
         style="stop-color:#000000;stop-opacity:1;"
         offset="1" />
      <a:midPointStop
         style="stop-color:#BBBBBB"
         offset="0" />
      <a:midPointStop
         style="stop-color:#BBBBBB"
         offset="0.5" />
      <a:midPointStop
         style="stop-color:#141414"
         offset="1" />
    </linearGradient>
    <linearGradient
       id="linearGradient8454"
       gradientUnits="userSpaceOnUse"
       x1="-366.4077"
       y1="303.4795"
       x2="-336.9069"
       y2="288.6256"
       gradientTransform="matrix(1.0735,0,0,-1.0735,383.7799,373.333)">
      <stop
         offset="0"
         style="stop-color:#262626;stop-opacity:1;"
         id="stop8456" />
      <stop
         id="stop8458"
         style="stop-color:#434343;stop-opacity:1;"
         offset="0.34996846" />
      <stop
         offset="0.61963302"
         style="stop-color:#484848;stop-opacity:1;"
         id="stop8460" />
      <stop
         offset="1"
         style="stop-color:#000000;stop-opacity:1;"
         id="stop8462" />
      <a:midPointStop
         offset="0"
         style="stop-color:#BBBBBB" />
      <a:midPointStop
         offset="0.5"
         style="stop-color:#BBBBBB" />
      <a:midPointStop
         offset="1"
         style="stop-color:#141414" />
    </linearGradient>
    <linearGradient
       id="linearGradient8438">
      <stop
         style="stop-color:#121212;stop-opacity:1;"
         offset="0"
         id="stop8440" />
      <stop
         id="stop8442"
         offset="0.39075261"
         style="stop-color:#3e3e3e;stop-opacity:1;" />
      <stop
         style="stop-color:#4a4a4a;stop-opacity:1;"
         offset="0.6368441"
         id="stop8444" />
      <stop
         style="stop-color:#000000;stop-opacity:1;"
         offset="1"
         id="stop8446" />
    </linearGradient>
    <linearGradient
       gradientTransform="matrix(1.0735,0,0,-1.0735,383.7799,373.333)"
       y2="286.7656"
       x2="-330.2898"
       y1="286.7656"
       x1="-351.2896"
       gradientUnits="userSpaceOnUse"
       id="linearGradient16147">
      <stop
         id="stop16149"
         style="stop-color:#000000;stop-opacity:1;"
         offset="0.0112" />
      <stop
         id="stop16151"
         style="stop-color:#434343;stop-opacity:1;"
         offset="0.33551961" />
      <stop
         offset="0.41659951"
         style="stop-color:#626262;stop-opacity:1;"
         id="stop16161" />
      <stop
         offset="0.49767941"
         style="stop-color:#2f2f2f;stop-opacity:1;"
         id="stop16159" />
      <stop
         id="stop16153"
         style="stop-color:#000000;stop-opacity:1;"
         offset="0.65983921" />
      <a:midPointStop
         style="stop-color:#737373"
         offset="0.0112" />
      <a:midPointStop
         style="stop-color:#737373"
         offset="0.5" />
      <a:midPointStop
         style="stop-color:#696969"
         offset="0.1851" />
      <a:midPointStop
         style="stop-color:#696969"
         offset="0.5" />
      <a:midPointStop
         style="stop-color:#5A5A5A"
         offset="0.525" />
      <a:midPointStop
         style="stop-color:#5A5A5A"
         offset="0.5" />
      <a:midPointStop
         style="stop-color:#555555"
         offset="0.809" />
      <a:midPointStop
         style="stop-color:#555555"
         offset="0.5" />
      <a:midPointStop
         style="stop-color:#2B2B2B"
         offset="1" />
    </linearGradient>
    <linearGradient
       id="linearGradient13051">
      <stop
         id="stop13053"
         offset="0"
         style="stop-color:#3b3b3b;stop-opacity:1;" />
      <stop
         style="stop-color:#484848;stop-opacity:1;"
         offset="0.27368826"
         id="stop13055" />
      <stop
         id="stop13057"
         offset="0.6368441"
         style="stop-color:#525252;stop-opacity:1;" />
      <stop
         id="stop13059"
         offset="1"
         style="stop-color:#262626;stop-opacity:1;" />
    </linearGradient>
    <linearGradient
       gradientTransform="matrix(1.0735,0,0,-1.0735,383.7799,373.333)"
       y2="288.6256"
       x2="-336.9069"
       y1="303.4795"
       x1="-366.4077"
       gradientUnits="userSpaceOnUse"
       id="linearGradient13033">
      <stop
         id="stop13035"
         style="stop-color:#000000;stop-opacity:1;"
         offset="0" />
      <stop
         offset="0.34996846"
         style="stop-color:#555555;stop-opacity:1;"
         id="stop13037" />
      <stop
         id="stop13039"
         style="stop-color:#292929;stop-opacity:1;"
         offset="0.54346919" />
      <stop
         id="stop13041"
         style="stop-color:#000000;stop-opacity:1;"
         offset="1" />
      <a:midPointStop
         style="stop-color:#BBBBBB"
         offset="0" />
      <a:midPointStop
         style="stop-color:#BBBBBB"
         offset="0.5" />
      <a:midPointStop
         style="stop-color:#141414"
         offset="1" />
    </linearGradient>
    <linearGradient
       gradientTransform="matrix(1.0735,0,0,-1.0735,383.7799,373.333)"
       y2="288.6256"
       x2="-336.9069"
       y1="303.4795"
       x1="-366.4077"
       gradientUnits="userSpaceOnUse"
       id="linearGradient7161">
      <stop
         id="stop7163"
         style="stop-color:#191919;stop-opacity:1;"
         offset="0" />
      <stop
         offset="0.34996846"
         style="stop-color:#505050;stop-opacity:1;"
         id="stop7165" />
      <stop
         id="stop7167"
         style="stop-color:#383838;stop-opacity:1;"
         offset="0.59028751" />
      <stop
         id="stop7169"
         style="stop-color:#141414"
         offset="1" />
      <a:midPointStop
         style="stop-color:#BBBBBB"
         offset="0" />
      <a:midPointStop
         style="stop-color:#BBBBBB"
         offset="0.5" />
      <a:midPointStop
         style="stop-color:#141414"
         offset="1" />
    </linearGradient>
    <linearGradient
       gradientTransform="matrix(1.0735,0,0,-1.0735,383.7799,373.333)"
       y2="288.6256"
       x2="-336.9069"
       y1="303.4795"
       x1="-366.4077"
       gradientUnits="userSpaceOnUse"
       id="linearGradient6161">
      <stop
         id="stop6163"
         style="stop-color:#262626;stop-opacity:1;"
         offset="0" />
      <stop
         offset="0.34996846"
         style="stop-color:#646464;stop-opacity:1;"
         id="stop6165" />
      <stop
         id="stop6167"
         style="stop-color:#484848;stop-opacity:1;"
         offset="0.54346919" />
      <stop
         id="stop6169"
         style="stop-color:#212121;stop-opacity:1;"
         offset="1" />
      <a:midPointStop
         style="stop-color:#BBBBBB"
         offset="0" />
      <a:midPointStop
         style="stop-color:#BBBBBB"
         offset="0.5" />
      <a:midPointStop
         style="stop-color:#141414"
         offset="1" />
    </linearGradient>
    <linearGradient
       id="linearGradient5376">
      <stop
         id="stop5378"
         offset="0"
         style="stop-color:#121212;stop-opacity:1;" />
      <stop
         style="stop-color:#363636;stop-opacity:1;"
         offset="0.39075261"
         id="stop5380" />
      <stop
         id="stop5382"
         offset="0.6368441"
         style="stop-color:#3d3d3d;stop-opacity:1;" />
      <stop
         id="stop5384"
         offset="1"
         style="stop-color:#000000;stop-opacity:1;" />
    </linearGradient>
    <linearGradient
       id="linearGradient5356">
      <stop
         style="stop-color:#121212;stop-opacity:1;"
         offset="0"
         id="stop5358" />
      <stop
         id="stop5360"
         offset="0.27368826"
         style="stop-color:#363636;stop-opacity:1;" />
      <stop
         style="stop-color:#3d3d3d;stop-opacity:1;"
         offset="0.6368441"
         id="stop5362" />
      <stop
         style="stop-color:#212121;stop-opacity:1;"
         offset="1"
         id="stop5364" />
    </linearGradient>
    <linearGradient
       id="linearGradient5342">
      <stop
         style="stop-color:#070707;stop-opacity:1;"
         offset="0"
         id="stop5344" />
      <stop
         id="stop5346"
         offset="0.3471525"
         style="stop-color:#363636;stop-opacity:1;" />
      <stop
         style="stop-color:#3d3d3d;stop-opacity:1;"
         offset="0.57858753"
         id="stop5348" />
      <stop
         style="stop-color:#000000;stop-opacity:1;"
         offset="1"
         id="stop5350" />
    </linearGradient>
    <linearGradient
       id="linearGradient4806">
      <stop
         id="stop4808"
         offset="0"
         style="stop-color:#121212;stop-opacity:1;" />
      <stop
         style="stop-color:#363636;stop-opacity:1;"
         offset="0.42184544"
         id="stop4810" />
      <stop
         id="stop4812"
         offset="0.68640906"
         style="stop-color:#3d3d3d;stop-opacity:1;" />
      <stop
         id="stop4814"
         offset="1"
         style="stop-color:#212121;stop-opacity:1;" />
    </linearGradient>
    <linearGradient
       id="linearGradient4774">
      <stop
         style="stop-color:#000000;stop-opacity:1;"
         offset="0"
         id="stop4776" />
      <stop
         id="stop4790"
         offset="0.42184544"
         style="stop-color:#454545;stop-opacity:1;" />
      <stop
         style="stop-color:#3d3d3d;stop-opacity:1;"
         offset="0.68640906"
         id="stop4792" />
      <stop
         style="stop-color:#070707;stop-opacity:1;"
         offset="1"
         id="stop4778" />
    </linearGradient>
    <linearGradient
       id="path575_1_"
       gradientUnits="userSpaceOnUse"
       x1="-351.2896"
       y1="286.7656"
       x2="-330.2898"
       y2="286.7656"
       gradientTransform="matrix(1.0735,0,0,-1.0735,383.7799,373.333)">
      <stop
         offset="0.0112"
         style="stop-color:#000000;stop-opacity:1;"
         id="stop2651" />
      <stop
         offset="0.57151997"
         style="stop-color:#3e3e3e;stop-opacity:1;"
         id="stop2657" />
      <stop
         offset="1"
         style="stop-color:#141414;stop-opacity:1;"
         id="stop2659" />
      <a:midPointStop
         offset="0.0112"
         style="stop-color:#737373" />
      <a:midPointStop
         offset="0.5"
         style="stop-color:#737373" />
      <a:midPointStop
         offset="0.1851"
         style="stop-color:#696969" />
      <a:midPointStop
         offset="0.5"
         style="stop-color:#696969" />
      <a:midPointStop
         offset="0.525"
         style="stop-color:#5A5A5A" />
      <a:midPointStop
         offset="0.5"
         style="stop-color:#5A5A5A" />
      <a:midPointStop
         offset="0.809"
         style="stop-color:#555555" />
      <a:midPointStop
         offset="0.5"
         style="stop-color:#555555" />
      <a:midPointStop
         offset="1"
         style="stop-color:#2B2B2B" />
    </linearGradient>
    <linearGradient
       id="path530_1_"
       gradientUnits="userSpaceOnUse"
       x1="-366.4077"
       y1="303.4795"
       x2="-336.9069"
       y2="288.6256"
       gradientTransform="matrix(1.0735,0,0,-1.0735,383.7799,373.333)">
      <stop
         offset="0"
         style="stop-color:#000000;stop-opacity:1;"
         id="stop2615" />
      <stop
         id="stop3200"
         style="stop-color:#363636;stop-opacity:1;"
         offset="0.34996846" />
      <stop
         offset="0.54346919"
         style="stop-color:#2e2e2e;stop-opacity:1;"
         id="stop3202" />
      <stop
         offset="1"
         style="stop-color:#000000;stop-opacity:1;"
         id="stop2617" />
      <a:midPointStop
         offset="0"
         style="stop-color:#BBBBBB" />
      <a:midPointStop
         offset="0.5"
         style="stop-color:#BBBBBB" />
      <a:midPointStop
         offset="1"
         style="stop-color:#141414" />
    </linearGradient>
    <linearGradient
       inkscape:collect="always"
       xlink:href="#path575_1_"
       id="linearGradient4565"
       gradientUnits="userSpaceOnUse"
       gradientTransform="matrix(1.0735,0,0,-1.0735,237.7799,352.333)"
       x1="-351.2896"
       y1="286.7656"
       x2="-330.2898"
       y2="286.7656" />
    <linearGradient
       inkscape:collect="always"
       xlink:href="#path530_1_"
       id="linearGradient4574"
       gradientUnits="userSpaceOnUse"
       gradientTransform="matrix(1.0735,0,0,-1.0735,296.7799,371.333)"
       x1="-366.4077"
       y1="303.4795"
       x2="-336.9069"
       y2="288.6256" />
    <linearGradient
       inkscape:collect="always"
       xlink:href="#linearGradient6161"
       id="linearGradient13173"
       gradientUnits="userSpaceOnUse"
       gradientTransform="matrix(-1.0387103,0,0,1,130.58512,2)"
       x1="34.12648"
       y1="15"
       x2="51.87278"
       y2="15" />
    <linearGradient
       inkscape:collect="always"
       xlink:href="#linearGradient13033"
       id="linearGradient13177"
       gradientUnits="userSpaceOnUse"
       gradientTransform="matrix(-1,0,0,-1,128.96347,128)"
       x1="31"
       y1="15.5"
       x2="56"
       y2="15.5" />
    <linearGradient
       inkscape:collect="always"
       xlink:href="#linearGradient6161"
       id="linearGradient13180"
       gradientUnits="userSpaceOnUse"
       gradientTransform="matrix(1.0387103,0,0,1,-1.638198,2)"
       x1="34.12648"
       y1="15"
       x2="51.87278"
       y2="15" />
    <linearGradient
       inkscape:collect="always"
       xlink:href="#linearGradient13033"
       id="linearGradient13184"
       gradientUnits="userSpaceOnUse"
       gradientTransform="matrix(1,0,0,-1,0,128)"
       x1="31"
       y1="15.5"
       x2="56"
       y2="15.5" />
    <linearGradient
       inkscape:collect="always"
       xlink:href="#linearGradient7161"
       id="linearGradient13195"
       gradientUnits="userSpaceOnUse"
       gradientTransform="matrix(0.8127268,0,0,1.1350718,11.795102,-6.5510591)"
       x1="55.692051"
       y1="48.5"
       x2="74.384766"
       y2="48.5" />
    <linearGradient
       inkscape:collect="always"
       xlink:href="#path575_1_"
       id="linearGradient13198"
       gradientUnits="userSpaceOnUse"
       x1="57.149647"
       y1="43.003159"
       x2="70.110153"
       y2="43.003159" />
    <linearGradient
       inkscape:collect="always"
       xlink:href="#linearGradient5356"
       id="linearGradient13201"
       gradientUnits="userSpaceOnUse"
       gradientTransform="matrix(1,0,0,-1,-83,128)"
       x1="94.239777"
       y1="92.5"
       x2="114.56197"
       y2="92.5" />
    <linearGradient
       inkscape:collect="always"
       xlink:href="#linearGradient13051"
       id="linearGradient13204"
       gradientUnits="userSpaceOnUse"
       gradientTransform="matrix(1,0,0,-1,-83,127)"
       x1="94.239777"
       y1="92.5"
       x2="114.56197"
       y2="92.5" />
    <linearGradient
       inkscape:collect="always"
       xlink:href="#linearGradient4806"
       id="linearGradient13207"
       gradientUnits="userSpaceOnUse"
       gradientTransform="matrix(1,0,0,-1,0,128)"
       x1="96.550545"
       y1="92.5"
       x2="117.24471"
       y2="92.5" />
    <linearGradient
       inkscape:collect="always"
       xlink:href="#linearGradient13051"
       id="linearGradient13210"
       gradientUnits="userSpaceOnUse"
       gradientTransform="matrix(1,0,0,-1,0,127)"
       x1="94.239777"
       y1="92.5"
       x2="114.56197"
       y2="92.5" />
    <linearGradient
       inkscape:collect="always"
       xlink:href="#linearGradient5376"
       id="linearGradient13213"
       gradientUnits="userSpaceOnUse"
       x1="7"
       y1="49.471779"
       x2="47.484772"
       y2="49.471779" />
    <linearGradient
       inkscape:collect="always"
       xlink:href="#linearGradient5342"
       id="linearGradient13216"
       gradientUnits="userSpaceOnUse"
       x1="5.2157359"
       y1="92.5"
       x2="35.951778"
       y2="92.5" />
    <linearGradient
       inkscape:collect="always"
       xlink:href="#linearGradient5376"
       id="linearGradient13219"
       gradientUnits="userSpaceOnUse"
       gradientTransform="matrix(-1,0,0,1,128.46818,0)"
       x1="7"
       y1="49.471779"
       x2="47.484772"
       y2="49.471779" />
    <linearGradient
       inkscape:collect="always"
       xlink:href="#linearGradient4774"
       id="linearGradient13222"
       gradientUnits="userSpaceOnUse"
       x1="88.184059"
       y1="92.5"
       x2="120.3055"
       y2="92.5" />
    <linearGradient
       inkscape:collect="always"
       xlink:href="#path530_1_"
       id="linearGradient13225"
       gradientUnits="userSpaceOnUse"
       x1="73"
       y1="15.5"
       x2="96.199623"
       y2="15.5" />
    <linearGradient
       inkscape:collect="always"
       xlink:href="#path530_1_"
       id="linearGradient13228"
       gradientUnits="userSpaceOnUse"
       x1="31"
       y1="15.5"
       x2="56"
       y2="15.5" />
    <linearGradient
       inkscape:collect="always"
       xlink:href="#linearGradient16147"
       id="linearGradient16155"
       gradientUnits="userSpaceOnUse"
       gradientTransform="matrix(1,0,0,-0.7678643,0,114.18793)"
       x1="58.656105"
       y1="43.003159"
       x2="73.378967"
       y2="43.003159" />
    <linearGradient
       inkscape:collect="always"
       xlink:href="#linearGradient16147"
       id="linearGradient3417"
       gradientUnits="userSpaceOnUse"
       gradientTransform="matrix(1,0,0,-0.7678643,-0.2994924,114.18793)"
       x1="58.656105"
       y1="43.003159"
       x2="73.378967"
       y2="43.003159" />
    <linearGradient
       inkscape:collect="always"
       xlink:href="#linearGradient6161"
       id="linearGradient3441"
       gradientUnits="userSpaceOnUse"
       gradientTransform="matrix(-1.0387103,0,0,1,130.58512,2)"
       x1="34.12648"
       y1="15"
       x2="51.87278"
       y2="15" />
    <linearGradient
       inkscape:collect="always"
       xlink:href="#linearGradient13033"
       id="linearGradient3445"
       gradientUnits="userSpaceOnUse"
       gradientTransform="matrix(-1,0,0,-1,128.96347,128)"
       x1="31"
       y1="15.5"
       x2="56"
       y2="15.5" />
    <linearGradient
       inkscape:collect="always"
       xlink:href="#linearGradient6161"
       id="linearGradient3448"
       gradientUnits="userSpaceOnUse"
       gradientTransform="matrix(1.0387103,0,0,1,-1.638198,2)"
       x1="34.12648"
       y1="15"
       x2="51.87278"
       y2="15" />
    <linearGradient
       inkscape:collect="always"
       xlink:href="#linearGradient13033"
       id="linearGradient3452"
       gradientUnits="userSpaceOnUse"
       gradientTransform="matrix(1,0,0,-1,0,128)"
       x1="31"
       y1="15.5"
       x2="56"
       y2="15.5" />
    <linearGradient
       inkscape:collect="always"
       xlink:href="#linearGradient7161"
       id="linearGradient3463"
       gradientUnits="userSpaceOnUse"
       gradientTransform="matrix(0.8127268,0,0,1.1350718,11.49561,-6.5510591)"
       x1="55.692051"
       y1="48.5"
       x2="74.384766"
       y2="48.5" />
    <linearGradient
       inkscape:collect="always"
       xlink:href="#path575_1_"
       id="linearGradient3466"
       gradientUnits="userSpaceOnUse"
       x1="57.149647"
       y1="43.003159"
       x2="70.110153"
       y2="43.003159"
       gradientTransform="translate(-0.2994924,0)" />
    <linearGradient
       inkscape:collect="always"
       xlink:href="#linearGradient5356"
       id="linearGradient3469"
       gradientUnits="userSpaceOnUse"
       gradientTransform="matrix(1,0,0,-1,-83,128)"
       x1="94.239777"
       y1="92.5"
       x2="114.56197"
       y2="92.5" />
    <linearGradient
       inkscape:collect="always"
       xlink:href="#linearGradient13051"
       id="linearGradient3472"
       gradientUnits="userSpaceOnUse"
       gradientTransform="matrix(1,0,0,-1,-83,127)"
       x1="94.239777"
       y1="92.5"
       x2="114.56197"
       y2="92.5" />
    <linearGradient
       inkscape:collect="always"
       xlink:href="#linearGradient4806"
       id="linearGradient3475"
       gradientUnits="userSpaceOnUse"
       gradientTransform="matrix(1,0,0,-1,0,128)"
       x1="96.550545"
       y1="92.5"
       x2="117.24471"
       y2="92.5" />
    <linearGradient
       inkscape:collect="always"
       xlink:href="#linearGradient13051"
       id="linearGradient3478"
       gradientUnits="userSpaceOnUse"
       gradientTransform="matrix(1,0,0,-1,0,127)"
       x1="94.239777"
       y1="92.5"
       x2="114.56197"
       y2="92.5" />
    <linearGradient
       inkscape:collect="always"
       xlink:href="#linearGradient5376"
       id="linearGradient3481"
       gradientUnits="userSpaceOnUse"
       x1="7"
       y1="49.471779"
       x2="47.484772"
       y2="49.471779" />
    <linearGradient
       inkscape:collect="always"
       xlink:href="#linearGradient5342"
       id="linearGradient3484"
       gradientUnits="userSpaceOnUse"
       x1="5.2157359"
       y1="92.5"
       x2="35.951778"
       y2="92.5" />
    <linearGradient
       inkscape:collect="always"
       xlink:href="#linearGradient5376"
       id="linearGradient3487"
       gradientUnits="userSpaceOnUse"
       gradientTransform="matrix(-1,0,0,1,128.46818,0)"
       x1="7"
       y1="49.471779"
       x2="47.484772"
       y2="49.471779" />
    <linearGradient
       inkscape:collect="always"
       xlink:href="#linearGradient4774"
       id="linearGradient3490"
       gradientUnits="userSpaceOnUse"
       x1="88.184059"
       y1="92.5"
       x2="120.3055"
       y2="92.5" />
    <linearGradient
       inkscape:collect="always"
       xlink:href="#path530_1_"
       id="linearGradient3493"
       gradientUnits="userSpaceOnUse"
       x1="73"
       y1="15.5"
       x2="96.199623"
       y2="15.5" />
    <linearGradient
       inkscape:collect="always"
       xlink:href="#path530_1_"
       id="linearGradient3496"
       gradientUnits="userSpaceOnUse"
       x1="31"
       y1="15.5"
       x2="56"
       y2="15.5" />
    <linearGradient
       inkscape:collect="always"
       xlink:href="#linearGradient5376"
       id="linearGradient7455"
       gradientUnits="userSpaceOnUse"
       x1="7"
       y1="49.471779"
       x2="47.484772"
       y2="49.471779"
       gradientTransform="matrix(1,0,0,-1,0,128)" />
    <linearGradient
       inkscape:collect="always"
       xlink:href="#linearGradient5376"
       id="linearGradient8435"
       gradientUnits="userSpaceOnUse"
       x1="7"
       y1="49.471779"
       x2="47.484772"
       y2="49.471779" />
    <linearGradient
       inkscape:collect="always"
       xlink:href="#linearGradient8438"
       id="linearGradient8448"
       gradientUnits="userSpaceOnUse"
       x1="7"
       y1="49.471779"
       x2="47.484772"
       y2="49.471779" />
    <linearGradient
       inkscape:collect="always"
       xlink:href="#linearGradient8454"
       id="linearGradient8452"
       gradientUnits="userSpaceOnUse"
       x1="9.5049772"
       y1="49.471779"
       x2="49.992073"
       y2="49.471779"
       gradientTransform="translate(0,-1)" />
    <linearGradient
       inkscape:collect="always"
       xlink:href="#linearGradient5376"
       id="linearGradient8496"
       gradientUnits="userSpaceOnUse"
       x1="7"
       y1="49.471779"
       x2="47.484772"
       y2="49.471779" />
    <linearGradient
       inkscape:collect="always"
       xlink:href="#linearGradient5376"
       id="linearGradient8498"
       gradientUnits="userSpaceOnUse"
       gradientTransform="matrix(1,0,0,-1,0,128)"
       x1="7"
       y1="49.471779"
       x2="47.484772"
       y2="49.471779" />
    <linearGradient
       inkscape:collect="always"
       xlink:href="#linearGradient8454"
       id="linearGradient8500"
       gradientUnits="userSpaceOnUse"
       gradientTransform="translate(0,-1)"
       x1="7"
       y1="49.471779"
       x2="47.484772"
       y2="49.471779" />
    <linearGradient
       inkscape:collect="always"
       xlink:href="#linearGradient8438"
       id="linearGradient8502"
       gradientUnits="userSpaceOnUse"
       x1="7"
       y1="49.471779"
       x2="47.484772"
       y2="49.471779" />
    <linearGradient
       inkscape:collect="always"
       xlink:href="#linearGradient8438"
       id="linearGradient8506"
       gradientUnits="userSpaceOnUse"
       x1="7"
       y1="49.471779"
       x2="47.484772"
       y2="49.471779"
       gradientTransform="translate(-70,0)" />
    <linearGradient
       inkscape:collect="always"
       xlink:href="#linearGradient8454"
       id="linearGradient8509"
       gradientUnits="userSpaceOnUse"
       gradientTransform="translate(-70,-1)"
       x1="7"
       y1="49.471779"
       x2="47.484772"
       y2="49.471779" />
    <linearGradient
       inkscape:collect="always"
       xlink:href="#linearGradient5376"
       id="linearGradient8513"
       gradientUnits="userSpaceOnUse"
       gradientTransform="matrix(1,0,0,-1,-70,128)"
       x1="7"
       y1="49.471779"
       x2="47.484772"
       y2="49.471779" />
    <linearGradient
       inkscape:collect="always"
       xlink:href="#linearGradient5376"
       id="linearGradient8517"
       gradientUnits="userSpaceOnUse"
       x1="7"
       y1="49.471779"
       x2="47.484772"
       y2="49.471779"
       gradientTransform="translate(-70,0)" />
    <linearGradient
       inkscape:collect="always"
       xlink:href="#linearGradient5376"
       id="linearGradient8526"
       gradientUnits="userSpaceOnUse"
       gradientTransform="translate(-70,0)"
       x1="7"
       y1="49.471779"
       x2="47.484772"
       y2="49.471779" />
    <linearGradient
       inkscape:collect="always"
       xlink:href="#linearGradient5376"
       id="linearGradient8528"
       gradientUnits="userSpaceOnUse"
       gradientTransform="matrix(1,0,0,-1,-70,128)"
       x1="7"
       y1="49.471779"
       x2="47.484772"
       y2="49.471779" />
    <linearGradient
       inkscape:collect="always"
       xlink:href="#linearGradient8454"
       id="linearGradient8530"
       gradientUnits="userSpaceOnUse"
       gradientTransform="translate(-70,-1)"
       x1="7"
       y1="49.471779"
       x2="47.484772"
       y2="49.471779" />
    <linearGradient
       inkscape:collect="always"
       xlink:href="#linearGradient8438"
       id="linearGradient8532"
       gradientUnits="userSpaceOnUse"
       gradientTransform="translate(-70,0)"
       x1="7"
       y1="49.471779"
       x2="47.484772"
       y2="49.471779" />
    <linearGradient
       inkscape:collect="always"
       xlink:href="#linearGradient8438"
       id="linearGradient8545"
       gradientUnits="userSpaceOnUse"
       gradientTransform="matrix(-1,0,0,1,128.16751,0)"
       x1="7"
       y1="49.471779"
       x2="47.484772"
       y2="49.471779" />
    <linearGradient
       inkscape:collect="always"
       xlink:href="#linearGradient9528"
       id="linearGradient8548"
       gradientUnits="userSpaceOnUse"
       gradientTransform="matrix(-1,0,0,1,128.16751,-1)"
       x1="11.546839"
       y1="49.471779"
       x2="50.675655"
       y2="49.471779" />
    <linearGradient
       inkscape:collect="always"
       xlink:href="#linearGradient5376"
       id="linearGradient8552"
       gradientUnits="userSpaceOnUse"
       gradientTransform="matrix(-1,0,0,-1,128.16751,128)"
       x1="7"
       y1="49.471779"
       x2="47.484772"
       y2="49.471779" />
    <linearGradient
       inkscape:collect="always"
       xlink:href="#linearGradient5376"
       id="linearGradient8555"
       gradientUnits="userSpaceOnUse"
       gradientTransform="matrix(-1,0,0,1,128.16751,0)"
       x1="7"
       y1="49.471779"
       x2="47.484772"
       y2="49.471779" />
  </defs>
  <sodipodi:namedview
     id="base"
     pagecolor="#ffffff"
     bordercolor="#666666"
     borderopacity="1.0"
     gridtolerance="50"
     guidetolerance="10"
     objecttolerance="10"
     inkscape:pageopacity="0.0"
     inkscape:pageshadow="2"
     inkscape:zoom="1"
     inkscape:cx="87.89885"
     inkscape:cy="63.685279"
     inkscape:document-units="px"
     inkscape:current-layer="layer1"
     width="128px"
     height="128px"
     showgrid="false"
     gridempspacing="2"
     inkscape:object-nodes="false"
     inkscape:grid-points="false"
     inkscape:grid-bbox="false"
     inkscape:window-width="746"
     inkscape:window-height="584"
     inkscape:window-x="125"
     inkscape:window-y="99"
     inkscape:guide-bbox="false"
     inkscape:object-paths="false" />
  <metadata
     id="metadata7">
    <rdf:RDF>
      <cc:Work
         rdf:about="">
        <dc:format>image/svg+xml</dc:format>
        <dc:type
           rdf:resource="http://purl.org/dc/dcmitype/StillImage" />
      </cc:Work>
    </rdf:RDF>
  </metadata>
  <g
     inkscape:label="Layer 1"
     inkscape:groupmode="layer"
     id="layer1">
    <path
       style="fill:url(#linearGradient3496);fill-opacity:1;stroke:none;stroke-width:4;stroke-miterlimit:4"
       d="M 34,3 C 35,3 43,3 48,5 C 53,7 56,9 56,11 L 56,26 C 56,27.108 55.108,28 54,28 L 33,28 C 31.892,28 31,27.108 31,26 L 32,5 C 32,3.892 33,3 34,3 z "
       id="rect2460"
       sodipodi:nodetypes="czccccccz" />
    <path
       style="fill:url(#linearGradient3452);fill-opacity:1;stroke:none;stroke-width:4;stroke-miterlimit:4"
       d="M 34,3 C 33,3 32,3.892 32,5 L 31.375,18 C 34.354542,16.957594 37.975516,16.34375 41.875,16.34375 C 47.546264,16.343751 52.617536,17.624202 56,19.65625 L 56,11 C 56,9 53,7 48,5 C 43,3 35,3 34,3 z "
       id="path6141" />
    <path
       style="fill:#000000;fill-opacity:1;stroke:none;stroke-width:4;stroke-miterlimit:4;stroke-dasharray:none"
       d="M 41.84375,12.34375 C 37.920855,12.34375 34.287519,12.963663 31.25,14 C 31.25,14 30.938629,19.918132 30.9375,20 C 30.936365,20.082262 31.28125,20.25 31.28125,20.25 C 34.345585,19.188313 37.828661,18.8125 41.8125,18.8125 C 47.393303,18.8125 52.432611,19.908849 55.9375,21.84375 L 56.535491,21.658927 L 56.53125,15.84375 C 53.017849,13.701671 47.734551,12.34375 41.84375,12.34375 z "
       id="path6148"
       sodipodi:nodetypes="ccscscccc" />
    <path
       style="fill:url(#linearGradient3448);fill-opacity:1;stroke:none;stroke-width:4;stroke-miterlimit:4;stroke-dasharray:none"
       d="M 41.857795,12.34375 C 37.934901,12.34375 34.280993,12.923146 31.243474,13.90625 L 30.951337,20 C 34.046218,18.957594 37.807361,18.34375 41.857795,18.34375 C 47.748596,18.343751 53.016178,19.624202 56.529578,21.65625 L 56.529578,15.65625 C 53.016178,13.624202 47.748596,12.34375 41.857795,12.34375 z "
       id="path6173" />
    <path
       style="fill:url(#linearGradient3481);fill-opacity:1;stroke:none;stroke-width:4;stroke-miterlimit:4"
       d="M 20,27 C 23.29292,25.898774 29.700996,24 35,24 C 40.297933,24 50,22 54,28 L 54,71 C 54,72.108 53.12584,73 52.04,73 L 8.96,73 C 7.87416,73 7,72.108 7,71 L 13,31 C 13,29.892 16.669548,28.113778 20,27 z "
       id="rect2170"
       sodipodi:nodetypes="czccccccz" />
    <path
       style="fill:url(#linearGradient3484);fill-opacity:1;stroke:none;stroke-width:4;stroke-miterlimit:4"
       d="M 9,68 L 37,68 C 38.108,68 39,68.892 39,70 L 44,112 C 44,116 36,117 31,117 C 26,117 18,117 11,117 C 4,117 1,114 1,111 L 7,70 C 7,68.892 7.892,68 9,68 z "
       id="rect2465"
       sodipodi:nodetypes="cccczzccc" />
    <path
       style="fill:url(#linearGradient3472);fill-opacity:1;stroke:none;stroke-width:4;stroke-miterlimit:4"
       d="M 43.4375,106.1875 C 42.26562,108.29688 39.25,110 34,110 C 27,110 19,110 14,110 C 9.751202,110 3.362951,109.26514 1.53125,106.59375 L 1,111 C 1,115 9,116 14,116 C 19,116 27,116 34,116 C 41,116 44,113 44,110 L 43.4375,106.1875 z "
       id="path13047" />
    <path
       style="fill:url(#linearGradient3469);fill-opacity:1;stroke:none;stroke-width:4;stroke-miterlimit:4"
       d="M 43.4375,107.1875 C 42.26562,109.29688 39.25,111 34,111 C 27,111 19,111 14,111 C 9.751202,111 3.362951,110.26514 1.53125,107.59375 L 1,112 C 1,116 9,117 14,117 C 19,117 27,117 34,117 C 41,117 44,114 44,111 L 43.4375,107.1875 z "
       id="path5352" />
    <rect
       style="fill:#0f0f0f;fill-opacity:1;stroke:none;stroke-width:4;stroke-miterlimit:4;stroke-dasharray:none"
       id="rect10114"
       width="0.44023386"
       height="17.005657"
       x="54.859364"
       y="40.008606" />
    <path
       style="fill:url(#linearGradient7455);fill-opacity:1;stroke:none;stroke-width:4;stroke-miterlimit:4"
       d="M 42.28125 23.6875 C 39.588807 23.722656 36.986725 24 35 24 C 29.700996 24 23.29292 25.898774 20 27 C 16.669548 28.113778 13 29.892 13 31 L 7.15625 69.90625 C 9.4909979 69.271838 12.101683 68.814209 14.90625 68.5625 C 14.960877 68.554104 15.007449 68.53956 15.0625 68.53125 C 19.249348 67.89926 24.624312 67.5 30.53125 67.5 C 41.984285 67.5 51.561117 68.925781 54 70.84375 L 54 28 C 51.5 24.25 46.768656 23.628906 42.28125 23.6875 z "
       id="path7421" />
    <path
       style="fill:#000000;fill-opacity:1;stroke:none;stroke-width:4;stroke-miterlimit:4"
       d="M 30.53125,67.5 C 24.624312,67.5 19.249348,67.89926 15.0625,68.53125 C 16.583075,68.399497 18.169038,68.34375 19.78125,68.34375 C 28.148983,68.34375 35.466571,70.200483 39.59375,73 L 52.03125,73 C 53.11709,73 54,72.108 54,71 L 54,70.84375 C 51.561117,68.925781 41.984285,67.5 30.53125,67.5 z "
       id="path7414" />
    <path
       style="fill:url(#linearGradient8452);fill-opacity:1.0;stroke:none;stroke-width:4;stroke-miterlimit:4"
       d="M 30.09375,56.15625 C 22.018387,56.15625 14.597915,57.098845 8.6875,58.65625 L 7.15625,68.90625 C 9.4909979,68.271838 12.101683,67.814209 14.90625,67.5625 C 14.960877,67.554104 15.007449,67.53956 15.0625,67.53125 C 19.249348,66.89926 24.624312,66.5 30.53125,66.5 C 41.984285,66.5 51.561117,67.925781 54,69.84375 L 54,59.375 C 47.756648,57.382585 39.359776,56.156251 30.09375,56.15625 z "
       id="path8450" />
    <path
       style="fill:url(#linearGradient8448);fill-opacity:1.0;stroke:none;stroke-width:4;stroke-miterlimit:4"
       d="M 30.09375 57.15625 C 22.018387 57.15625 14.597915 58.098845 8.6875 59.65625 L 7.15625 69.90625 C 9.4909979 69.271838 12.101683 68.814209 14.90625 68.5625 C 14.960877 68.554104 15.007449 68.53956 15.0625 68.53125 C 19.249348 67.89926 24.624312 67.5 30.53125 67.5 C 41.984285 67.5 51.561117 68.925781 54 70.84375 L 54 60.375 C 47.756648 58.382585 39.359776 57.156251 30.09375 57.15625 z "
       id="path8429" />
    <rect
       style="fill:#000000;fill-opacity:1;stroke:none;stroke-width:4;stroke-miterlimit:4;stroke-dasharray:none"
       id="rect6137"
       width="26.851696"
       height="27.925713"
       x="51.018223"
       y="33.926689"
       rx="1.5148973"
       ry="1.305437" />
    <path
       style="fill:url(#linearGradient3493);fill-opacity:1;stroke:none;stroke-width:4;stroke-miterlimit:4"
       d="M 95,3 C 94,3 86,3 81,5 C 76,7 73,9 73,11 L 73,26 C 73,27.108 73.892,28 75,28 L 96,28 C 97.108,28 98,27.108 98,26 L 97,5 C 97,3.892 96,3 95,3 z "
       id="path2463"
       sodipodi:nodetypes="czccccccz" />
    <path
       style="fill:url(#linearGradient3466);fill-opacity:1;stroke:none;stroke-width:4;stroke-miterlimit:4"
       d="M 59.810154,19.497338 C 61.849277,18.997338 66.780659,18.997338 68.819782,19.497338 C 70.858905,19.997338 71.779782,22.389338 71.779782,23.497338 L 71.779782,68.508981 L 56.850154,68.508981 L 56.850154,23.497338 C 56.850154,22.389338 57.77103,19.997338 59.810154,19.497338 z "
       id="rect2176"
       sodipodi:nodetypes="czccccz" />
    <rect
       style="fill:url(#linearGradient3463);fill-opacity:1;stroke:none;stroke-width:4;stroke-miterlimit:4;stroke-dasharray:none"
       id="rect2179"
       width="18.692717"
       height="17.026077"
       x="54.570129"
       y="39.986885" />
    <rect
       style="fill:#000000;fill-opacity:1;stroke:none;stroke-width:4;stroke-miterlimit:4;stroke-dasharray:none"
       id="rect10118"
       width="19.870081"
       height="5"
       x="45"
       y="34" />
    <rect
       style="fill:#222222;fill-opacity:1;stroke:none;stroke-width:4;stroke-miterlimit:4;stroke-dasharray:none"
       id="rect2181"
       width="19.35607"
       height="5"
       x="45"
       y="33" />
    <rect
       style="fill:#000000;fill-opacity:1;stroke:none;stroke-width:4;stroke-miterlimit:4;stroke-dasharray:none"
       id="rect10120"
       width="19.895651"
       height="5"
       x="65.104347"
       y="34" />
    <rect
       style="fill:#222222;fill-opacity:1;stroke:none;stroke-width:4;stroke-miterlimit:4;stroke-dasharray:none"
       id="rect2183"
       width="19.484455"
       height="5"
       x="65.515549"
       y="33" />
    <rect
       style="fill:#000000;fill-opacity:1;stroke:none;stroke-width:4;stroke-miterlimit:4;stroke-dasharray:none"
       id="rect11091"
       width="19.870081"
       height="5"
       x="45"
       y="59" />
    <rect
       style="fill:#222222;fill-opacity:1;stroke:none;stroke-width:4;stroke-miterlimit:4;stroke-dasharray:none"
       id="rect2185"
       width="19.35607"
       height="5"
       x="45"
       y="58" />
    <rect
       style="fill:#000000;fill-opacity:1;stroke:none;stroke-width:4;stroke-miterlimit:4;stroke-dasharray:none"
       id="rect11093"
       width="19.895651"
       height="5"
       x="65.104347"
       y="59" />
    <rect
       style="fill:#222222;fill-opacity:1;stroke:none;stroke-width:4;stroke-miterlimit:4;stroke-dasharray:none"
       id="rect2187"
       width="19.484455"
       height="5"
       x="65.515549"
       y="58" />
    <path
       style="fill:url(#linearGradient3445);fill-opacity:1;stroke:none;stroke-width:4;stroke-miterlimit:4"
       d="M 94.963471,3 C 95.963471,3 96.963471,3.892 96.963471,5 L 97.588471,18 C 94.608929,16.957594 90.987955,16.34375 87.088471,16.34375 C 81.417207,16.343751 76.345935,17.624202 72.963471,19.65625 L 72.963471,11 C 72.963471,9 75.963471,7 80.963471,5 C 85.963471,3 93.963471,3 94.963471,3 z "
       id="path13043" />
    <path
       style="fill:#000000;fill-opacity:1;stroke:none;stroke-width:4;stroke-miterlimit:4;stroke-dasharray:none"
       d="M 87.10317,12.34375 C 91.026065,12.34375 94.659401,12.963663 97.69692,14 C 97.69692,14 98.008291,19.918132 98.00942,20 C 98.010555,20.082262 97.66567,20.25 97.66567,20.25 C 94.601335,19.188313 91.118259,18.8125 87.13442,18.8125 C 81.553617,18.8125 76.514309,19.908849 73.00942,21.84375 L 72.411429,21.658927 L 72.41567,15.84375 C 75.929071,13.701671 81.212369,12.34375 87.10317,12.34375 z "
       id="path6186"
       sodipodi:nodetypes="ccscscccc" />
    <path
       style="fill:url(#linearGradient3441);fill-opacity:1;stroke:none;stroke-width:4;stroke-miterlimit:4;stroke-dasharray:none"
       d="M 87.089125,12.34375 C 91.012019,12.34375 94.665927,12.923146 97.703446,13.90625 L 97.995583,20 C 94.900702,18.957594 91.139559,18.34375 87.089125,18.34375 C 81.198324,18.343751 75.930742,19.624202 72.417342,21.65625 L 72.417342,15.65625 C 75.930742,13.624202 81.198324,12.34375 87.089125,12.34375 z "
       id="path6188" />
    <rect
       style="fill:#0f0f0f;fill-opacity:1;stroke:none;stroke-width:4;stroke-miterlimit:4;stroke-dasharray:none"
       id="rect8140"
       width="0.44023386"
       height="17.005657"
       x="56.859364"
       y="40.008606" />
    <rect
       style="fill:#0f0f0f;fill-opacity:1;stroke:none;stroke-width:4;stroke-miterlimit:4;stroke-dasharray:none"
       id="rect10080"
       width="0.44023386"
       height="17.005657"
       x="57.859364"
       y="40.008606" />
    <rect
       style="fill:#0f0f0f;fill-opacity:1;stroke:none;stroke-width:4;stroke-miterlimit:4;stroke-dasharray:none"
       id="rect10082"
       width="0.44023386"
       height="17.005657"
       x="58.859364"
       y="40.008606" />
    <rect
       style="fill:#0f0f0f;fill-opacity:1;stroke:none;stroke-width:4;stroke-miterlimit:4;stroke-dasharray:none"
       id="rect10084"
       width="0.44023386"
       height="17.005657"
       x="59.859364"
       y="40.008606" />
    <rect
       style="fill:#0f0f0f;fill-opacity:1;stroke:none;stroke-width:4;stroke-miterlimit:4;stroke-dasharray:none"
       id="rect10086"
       width="0.44023386"
       height="17.005657"
       x="60.859364"
       y="40.008606" />
    <rect
       style="fill:#0f0f0f;fill-opacity:1;stroke:none;stroke-width:4;stroke-miterlimit:4;stroke-dasharray:none"
       id="rect10088"
       width="0.44023386"
       height="17.005657"
       x="61.859364"
       y="40.008606" />
    <rect
       style="fill:#0f0f0f;fill-opacity:1;stroke:none;stroke-width:4;stroke-miterlimit:4;stroke-dasharray:none"
       id="rect10090"
       width="0.44023386"
       height="17.005657"
       x="62.859364"
       y="40.008606" />
    <rect
       style="fill:#0f0f0f;fill-opacity:1;stroke:none;stroke-width:4;stroke-miterlimit:4;stroke-dasharray:none"
       id="rect10092"
       width="0.44023386"
       height="17.005657"
       x="63.859367"
       y="40.008606" />
    <rect
       style="fill:#0f0f0f;fill-opacity:1;stroke:none;stroke-width:4;stroke-miterlimit:4;stroke-dasharray:none"
       id="rect10096"
       width="0.44023386"
       height="17.005657"
       x="64.859367"
       y="40.008606" />
    <rect
       style="fill:#0f0f0f;fill-opacity:1;stroke:none;stroke-width:4;stroke-miterlimit:4;stroke-dasharray:none"
       id="rect10098"
       width="0.44023386"
       height="17.005657"
       x="65.859367"
       y="40.008606" />
    <rect
       style="fill:#0f0f0f;fill-opacity:1;stroke:none;stroke-width:4;stroke-miterlimit:4;stroke-dasharray:none"
       id="rect10100"
       width="0.44023386"
       height="17.005657"
       x="66.859367"
       y="40.008606" />
    <rect
       style="fill:#0f0f0f;fill-opacity:1;stroke:none;stroke-width:4;stroke-miterlimit:4;stroke-dasharray:none"
       id="rect10102"
       width="0.44023386"
       height="17.005657"
       x="67.859367"
       y="40.008606" />
    <rect
       style="fill:#0f0f0f;fill-opacity:1;stroke:none;stroke-width:4;stroke-miterlimit:4;stroke-dasharray:none"
       id="rect10104"
       width="0.44023386"
       height="17.005657"
       x="68.859367"
       y="40.008606" />
    <rect
       style="fill:#0f0f0f;fill-opacity:1;stroke:none;stroke-width:4;stroke-miterlimit:4;stroke-dasharray:none"
       id="rect10106"
       width="0.44023386"
       height="17.005657"
       x="69.859367"
       y="40.008606" />
    <rect
       style="fill:#0f0f0f;fill-opacity:1;stroke:none;stroke-width:4;stroke-miterlimit:4;stroke-dasharray:none"
       id="rect10108"
       width="0.44023386"
       height="17.005657"
       x="70.859367"
       y="40.008606" />
    <rect
       style="fill:#0f0f0f;fill-opacity:1;stroke:none;stroke-width:4;stroke-miterlimit:4;stroke-dasharray:none"
       id="rect10110"
       width="0.44023386"
       height="17.005657"
       x="71.859367"
       y="40.008606" />
    <rect
       style="fill:#0f0f0f;fill-opacity:1;stroke:none;stroke-width:4;stroke-miterlimit:4;stroke-dasharray:none"
       id="rect10112"
       width="0.44023386"
       height="17.005657"
       x="55.859364"
       y="40.008606" />
    <rect
       style="fill:#0f0f0f;fill-opacity:1;stroke:none;stroke-width:4;stroke-miterlimit:4;stroke-dasharray:none"
       id="rect10116"
       width="0.44023386"
       height="17.005657"
       x="72.859367"
       y="40.008606" />
    <path
       style="fill:url(#linearGradient3417);fill-opacity:1;stroke:none;stroke-width:4;stroke-miterlimit:4"
       d="M 56.856758,64.660678 L 56.856758,68.5 L 71.794258,68.5 L 71.794258,64.660678 L 56.856758,64.660678 z "
       id="path15169" />
    <path
       style="fill:#222222;fill-opacity:1;stroke:none;stroke-width:4;stroke-miterlimit:4"
       d="M 45,26 L 60,26 L 60,29 L 45,29 L 45,26 z "
       id="rect2191"
       sodipodi:nodetypes="ccccc" />
    <path
       style="fill:url(#linearGradient8555);fill-opacity:1;stroke:none;stroke-width:4;stroke-miterlimit:4"
       d="M 108.16751,27 C 104.87459,25.898774 98.466517,24 93.167513,24 C 87.86958,24 78.167513,22 74.167513,28 L 74.167513,71 C 74.167513,72.108 75.041673,73 76.127513,73 L 119.20751,73 C 120.29335,73 121.16751,72.108 121.16751,71 L 115.16751,31 C 115.16751,29.892 111.49796,28.113778 108.16751,27 z "
       id="path8464"
       sodipodi:nodetypes="czccccccz" />
    <path
       style="fill:url(#linearGradient8552);fill-opacity:1;stroke:none;stroke-width:4;stroke-miterlimit:4"
       d="M 85.886263,23.6875 C 88.578706,23.722656 91.180788,24 93.167513,24 C 98.466517,24 104.87459,25.898774 108.16751,27 C 111.49796,28.113778 115.16751,29.892 115.16751,31 L 121.01126,69.90625 C 118.67651,69.271838 116.06583,68.814209 113.26126,68.5625 C 113.20664,68.554104 113.16006,68.53956 113.10501,68.53125 C 108.91817,67.89926 103.5432,67.5 97.636263,67.5 C 86.183228,67.5 76.606396,68.925781 74.167513,70.84375 L 74.167513,28 C 76.667513,24.25 81.398857,23.628906 85.886263,23.6875 z "
       id="path8468" />
    <path
       style="fill:url(#linearGradient8548);fill-opacity:1.0;stroke:none;stroke-width:4;stroke-miterlimit:4"
       d="M 98.073763,56.15625 C 106.14913,56.15625 113.5696,57.098845 119.48001,58.65625 L 121.01126,68.90625 C 118.67651,68.271838 116.06583,67.814209 113.26126,67.5625 C 113.20664,67.554104 113.16006,67.53956 113.10501,67.53125 C 108.91817,66.89926 103.5432,66.5 97.636263,66.5 C 86.183228,66.5 76.606396,67.925781 74.167513,69.84375 L 74.167513,59.375 C 80.410865,57.382585 88.807737,56.156251 98.073763,56.15625 z "
       id="path8472" />
    <path
       style="fill:url(#linearGradient8545);fill-opacity:1;stroke:none;stroke-width:4;stroke-miterlimit:4"
       d="M 98.073763,57.15625 C 106.14913,57.15625 113.5696,58.098845 119.48001,59.65625 L 121.01126,69.90625 C 118.67651,69.271838 116.06583,68.814209 113.26126,68.5625 C 113.20664,68.554104 113.16006,68.53956 113.10501,68.53125 C 108.91817,67.89926 103.5432,67.5 97.636263,67.5 C 86.183228,67.5 76.606396,68.925781 74.167513,70.84375 L 74.167513,60.375 C 80.410865,58.382585 88.807737,57.156251 98.073763,57.15625 z "
       id="path8474" />
    <path
       style="fill:url(#linearGradient3490);fill-opacity:1;stroke:none;stroke-width:4;stroke-miterlimit:4"
       d="M 119,68 L 91,68 C 89.892,68 89,68.892 89,70 L 84,112 C 84,116 92,117 97,117 C 102,117 110,117 117,117 C 124,117 127,114 127,111 L 121,70 C 121,68.892 120.108,68 119,68 z "
       id="path2478" />
    <path
       style="fill:url(#linearGradient3478);fill-opacity:1;stroke:none;stroke-width:4;stroke-miterlimit:4"
       d="M 126.4375,106.1875 C 125.26562,108.29688 122.25,110 117,110 C 110,110 102,110 97,110 C 92.751202,110 86.362951,109.26514 84.53125,106.59375 L 84,111 C 84,115 92,116 97,116 C 102,116 110,116 117,116 C 124,116 127,113 127,110 L 126.4375,106.1875 z "
       id="path13065" />
    <path
       style="fill:url(#linearGradient3475);fill-opacity:1;stroke:none;stroke-width:4;stroke-miterlimit:4"
       d="M 126.4375,107.1875 C 125.26562,109.29688 122.25,111 117,111 C 110,111 102,111 97,111 C 92.751202,111 86.362951,110.26514 84.53125,107.59375 L 84,112 C 84,116 92,117 97,117 C 102,117 110,117 117,117 C 124,117 127,114 127,111 L 126.4375,107.1875 z "
       id="path4798" />
    <path
       style="fill:#000000;fill-opacity:1;stroke:none;stroke-width:4;stroke-miterlimit:4"
       d="M 97.636263,67.5 C 103.5432,67.5 108.91817,67.89926 113.10501,68.53125 C 111.58444,68.399497 109.99847,68.34375 108.38626,68.34375 C 100.01853,68.34375 92.700942,70.200483 88.573763,73 L 76.136263,73 C 75.050423,73 74.167513,72.108 74.167513,71 L 74.167513,70.84375 C 76.606396,68.925781 86.183228,67.5 97.636263,67.5 z "
       id="path8470" />
    <path
       style="fill:#222222;fill-opacity:1;stroke:none;stroke-width:4;stroke-miterlimit:4"
       d="M 70,26 L 85,26 L 85,29 L 70,29 L 70,26 z "
       id="rect2193"
       sodipodi:nodetypes="ccccc" />
  </g>
</svg>
