<?xml version="1.0" encoding="utf-8"?>
<!-- Generator: Adobe Illustrator 11 Build 197, SVG Export Plug-In . SVG Version: 6.0.0 Build 78)  -->
<!DOCTYPE svg PUBLIC "-//W3C//DTD SVG 1.0//EN"    "http://www.w3.org/TR/2001/REC-SVG-20010904/DTD/svg10.dtd" [
	<!ENTITY ns_flows "http://ns.adobe.com/Flows/1.0/">
	<!ENTITY ns_extend "http://ns.adobe.com/Extensibility/1.0/">
	<!ENTITY ns_ai "http://ns.adobe.com/AdobeIllustrator/10.0/">
	<!ENTITY ns_graphs "http://ns.adobe.com/Graphs/1.0/">
	<!ENTITY ns_vars "http://ns.adobe.com/Variables/1.0/">
	<!ENTITY ns_imrep "http://ns.adobe.com/ImageReplacement/1.0/">
	<!ENTITY ns_sfw "http://ns.adobe.com/SaveForWeb/1.0/">
	<!ENTITY ns_custom "http://ns.adobe.com/GenericCustomNamespace/1.0/">
	<!ENTITY ns_adobe_xpath "http://ns.adobe.com/XPath/1.0/">
	<!ENTITY ns_svg "http://www.w3.org/2000/svg">
	<!ENTITY ns_xlink "http://www.w3.org/1999/xlink">
]>
<svg 
	 xmlns:x="&ns_extend;" xmlns:i="&ns_ai;" xmlns:graph="&ns_graphs;" i:viewOrigin="-30.5 235" i:rulerOrigin="0 0" i:pageBounds="0 128 128 0"
	 xmlns="&ns_svg;" xmlns:xlink="&ns_xlink;" xmlns:a="http://ns.adobe.com/AdobeSVGViewerExtensions/3.0/"
	 width="189" height="229.25" viewBox="0 0 189 229.25" overflow="visible" enable-background="new 0 0 189 229.25"
	 xml:space="preserve">
	<metadata>
		<variableSets  xmlns="&ns_vars;">
			<variableSet  varSetName="binding1" locked="none">
				<variables></variables>
				<v:sampleDataSets  xmlns="&ns_custom;" xmlns:v="&ns_vars;"></v:sampleDataSets>
			</variableSet>
		</variableSets>
		<sfw  xmlns="&ns_sfw;">
			<slices></slices>
			<sliceSourceBounds  y="5.75" x="-30.5" width="189" height="229.25" bottomLeftOrigin="true"></sliceSourceBounds>
		</sfw>
<?xpacket begin='﻿' id='W5M0MpCehiHzreSzNTczkc9d'?><x:xmpmeta xmlns:x='adobe:ns:meta/' x:xmptk='XMP toolkit 3.0-29, framework 1.6'>
<rdf:RDF xmlns:rdf='http://www.w3.org/1999/02/22-rdf-syntax-ns#' xmlns:iX='http://ns.adobe.com/iX/1.0/'>

 <rdf:Description rdf:about='uuid:cb9e0120-9011-11db-83d2-001451315092'
  xmlns:pdf='http://ns.adobe.com/pdf/1.3/'>
  <pdf:Producer>Adobe PDF library 6.66</pdf:Producer>
 </rdf:Description>

 <rdf:Description rdf:about='uuid:cb9e0120-9011-11db-83d2-001451315092'
  xmlns:tiff='http://ns.adobe.com/tiff/1.0/'>
 </rdf:Description>

 <rdf:Description rdf:about='uuid:cb9e0120-9011-11db-83d2-001451315092'
  xmlns:xap='http://ns.adobe.com/xap/1.0/'
  xmlns:xapGImg='http://ns.adobe.com/xap/1.0/g/img/'>
  <xap:CreateDate>2006-11-25T17:00:30+01:00</xap:CreateDate>
  <xap:ModifyDate>2006-12-20T10:06:56Z</xap:ModifyDate>
  <xap:CreatorTool>Illustrator</xap:CreatorTool>
  <xap:MetadataDate>2006-11-25T17:00:30+01:00</xap:MetadataDate>
  <xap:Thumbnails>
   <rdf:Alt>
    <rdf:li rdf:parseType='Resource'>
     <xapGImg:format>JPEG</xapGImg:format>
     <xapGImg:width>212</xapGImg:width>
     <xapGImg:height>256</xapGImg:height>
     <xapGImg:image>/9j/4AAQSkZJRgABAgEASABIAAD/7QAsUGhvdG9zaG9wIDMuMAA4QklNA+0AAAAAABAASAAAAAEA&#xA;AQBIAAAAAQAB/+4ADkFkb2JlAGTAAAAAAf/bAIQABgQEBAUEBgUFBgkGBQYJCwgGBggLDAoKCwoK&#xA;DBAMDAwMDAwQDA4PEA8ODBMTFBQTExwbGxscHx8fHx8fHx8fHwEHBwcNDA0YEBAYGhURFRofHx8f&#xA;Hx8fHx8fHx8fHx8fHx8fHx8fHx8fHx8fHx8fHx8fHx8fHx8fHx8fHx8fHx8f/8AAEQgBAADUAwER&#xA;AAIRAQMRAf/EAaIAAAAHAQEBAQEAAAAAAAAAAAQFAwIGAQAHCAkKCwEAAgIDAQEBAQEAAAAAAAAA&#xA;AQACAwQFBgcICQoLEAACAQMDAgQCBgcDBAIGAnMBAgMRBAAFIRIxQVEGE2EicYEUMpGhBxWxQiPB&#xA;UtHhMxZi8CRygvElQzRTkqKyY3PCNUQnk6OzNhdUZHTD0uIIJoMJChgZhJRFRqS0VtNVKBry4/PE&#xA;1OT0ZXWFlaW1xdXl9WZ2hpamtsbW5vY3R1dnd4eXp7fH1+f3OEhYaHiImKi4yNjo+Ck5SVlpeYmZ&#xA;qbnJ2en5KjpKWmp6ipqqusra6voRAAICAQIDBQUEBQYECAMDbQEAAhEDBCESMUEFURNhIgZxgZEy&#xA;obHwFMHR4SNCFVJicvEzJDRDghaSUyWiY7LCB3PSNeJEgxdUkwgJChgZJjZFGidkdFU38qOzwygp&#xA;0+PzhJSktMTU5PRldYWVpbXF1eX1RlZmdoaWprbG1ub2R1dnd4eXp7fH1+f3OEhYaHiImKi4yNjo&#xA;+DlJWWl5iZmpucnZ6fkqOkpaanqKmqq6ytrq+v/aAAwDAQACEQMRAD8A9U4q7FXYq7FXyp/zm/K5&#xA;fyvFX4FFywHu3EH/AIjirF7T/nHbQZvylTzYbm7+vSaYNR9UMnpBzD6wT0+NeI+z9qvfFWI/kR+U&#xA;+mfmDf6qmoSzrHpyQlIrdlQs0xk3ZmV9lEXQDviqVfmD+XVn5d/M2Pynazy/Vp5bZEkm4tJGLhgp&#xA;qVChuJO2wxVnf5xfkBofkzyX+nrCa6E0UkSslw6SLIsjBOionFgWB8MVU/yZ/IXQ/O3k6bXL+a6M&#xA;3rSRKsDpGqLGKftJJyY9d8VYP5A/Lqz8xfma/lO5uJPqsE1zG8kXFJJBbsVWlQ4XkQK7HFU3/Pj8&#xA;ptM/L2+0lNPknaPUkmLxXDK5UwmPdWVU2b1OhHbFWYv/AM446EPysHmcXN0L/wDRv1/1Syel6npe&#xA;rx9PhXjX4ftV74qw/wDIb8ptL/MK91dNQknVNOSApFbsqFjMZPiZir7L6XQDviqT+cfy6tNG/NdP&#xA;JltcSfVp7u0t0mlAaRBdFAa0ChuPPwGKs3/Of8hdD8k+UItc0+W6EvrRxMlw6SK6yA/ypHRgae2K&#xA;qv5QfkBoXnLyN+n7+a69aWSZQIHRFjWJig2ZH5N8Nd8VYJ+Xn5dWnmL8zH8p3k8n1e3luUeSGivJ&#xA;9XYqACwYLyI32OKpj+ev5Wab+X+r6bb6fJM0V9C7tFOyuVaMqKqwVNm59CMVZtqn/OOOhWf5WzeZ&#xA;1ubs31vpxv2lLJ6TOkXqMvp8KhSRxHxVGKsU/Ib8odK/MF9WfUJJwth6SxxW7KlTJyJZmKv047AY&#xA;qgbzynD5M/PbSdFtJXkhs9X054Xlp6g5TRPxYqACVJpWmKv0IxV2KuxV2KuxV2KuxV2KuxV8o/8A&#xA;Ob/+9Hlj/Un/AFjFWH6R+eP5gXH5Tr5NttJsDYrZPp6akzP6wgjXiT6YYguE2+dNtwCqkf5R+cfO&#xA;X5ZajeX+m2VnqMGorHBJHNIQhZWARkkQ0qPX6d6+2NqgfOt55781fmA3mm4tbW31J5opLaCF1MSG&#xA;BPVRRzNWoE3r1NfDYWrLPza/Nzz7528tJ5e1PTtN022gU3l1NBK7F1t3WOlXJCgyMKAVJ8fE2qz8&#xA;rvzX/MH8vPLdzoNjo9hqFtNNI8M1xIyMrlxCw2Zea82FPur4C1ec+VvPuu+T/wAwT5ojhhuNShuJ&#xA;nurd94XaRj6i1Q7CvQg4VTH83/zj1r8zdRsLvUbK3sI9OieK3gt+TVMjBnZmc1NeK4qyJ/8AnJrz&#xA;a35aDyN+jbMR/UxYHUhz9X0gONeFeHPjtXp7Yqx78oPzk1r8stQ1C606xt7+PUo0jnhuOa0MRJRl&#xA;ZCKfbNdsVdr2ueb/ADV5yb8wXgtra6aRdQhRDWKNbNlp8NWYhSg5fwxtWafmx+bHn3z/AOW7fRL7&#xA;S7DT7S3l9WWW3kZzK0NU4qzkr8Lhqgb1Hh1bVX/LP81fzG8heWbjyrZ6Tp1/CZJGt555SrI0sfqF&#xA;fhZQ4+Ko6Hf3GC1YX5S1Xzh5J8/HzSI7OfUoWkmu4bh6RP8AWJCriqEUJY1FOnyw2qO/NjzZ51/M&#xA;/V7LUb7TrSxS1iENtBBJT+9lKFmMrcmq0e1B0xtUdqP/ADkx5uufy3k8iS6bZKj2n6Pm1FS5kMX2&#xA;WIWvDky7V6dxirH/AMoPzq1z8srnUJNPsbfUIdRRFlhuCy8WjJKsrIf8o1BxVQg84aj5x/ObSvMe&#xA;oRxw3N/rFi7QwgiNAJ41VVqSdgO+Kv0XxV2KuxV2KuxV2KuxV2KuxV80/wDOW1la3mt+WYbmMSR+&#xA;hctxNRuGTwpirwf/AA1of/LIv/BN/XFW/wDDWh0p9VWnhyf+uKtf4a0OlPqq0/1m/rirv8M6F/yy&#xA;L/wTf1xVseWtDHS1Uf7J/wCuKtf4Z0L/AJZF/wCCb+uKu/wzoX/LIv8AwTf1xV3+GdC/5ZF/4Jv6&#xA;4qlug6HpVzZvJPbh3E0igksNlbYbHFUy/wANaH/yyL/wTf1xV3+GtDpT6qtPDk/9cVd/hrQ/+WRf&#xA;+Cb+uKu/wzoX/LIv/BN/XFXf4a0Mf8eq/wDBP/XFXf4Z0L/lkX/gm/rirv8ADOhf8si/8E39cVRe&#xA;h6Jpdp5m8vzW9uI5V1bTwGBY9bqMHqcVfoHirsVdirsVdirsVdirsVdir5v/AOcqv+Ug8s/8w91/&#xA;xJMVeK4q7FXYq7FXYq7FXYq7FUo8sf8AHPk/4zy/8SxVN8VdirsVdirsVdirsVVdN/5SDQf+2vp/&#xA;/UXHir71xV2KuxV2KuxV2KuxV2KuxV83/wDOVX/KQeWf+Ye6/wCJJirxXFXYq7FXYq7FXYq7FXYq&#xA;lHlj/jnyf8Z5f+JYqm+KuxV2KuxV2KuxV2Kqum/8pBoP/bX0/wD6i48VfeuKuxV2KuxV2KuxV2Ku&#xA;xV2Kvm//AJyq/wCUg8s/8w91/wASTFXiuKuxV2KuxV2KuxV2KuxVKPLH/HPk/wCM8v8AxLFU3xV2&#xA;KuxV2KuxV2KuxVV03/lINB/7a+n/APUXHir71xV2KuxV2KuxV2KuxV2KuxV83/8AOVX/ACkHln/m&#xA;Huv+JJirxXFXYq7FXYq7FXYq7FXYqlHlj/jnyf8AGeX/AIliqb4q7FXYq7FXYq7FXYqq6b/ykGg/&#xA;9tfT/wDqLjxV964q7FXYq7FXYq7FXYq7FXYq+a/+cs7q3ttc8syXEixR+hcjkxoKlkxV4V+nNH/5&#xA;bIv+DGKu/Tmj/wDLZF/wYxV36c0f/lsi/wCDGKu/Tmj/APLZF/wYxV36c0f/AJbIv+DGKu/Tmj/8&#xA;tkX/AAYxV36c0f8A5bIv+DGKu/Tmj/8ALZF/wYxVLPL+q6bBZSJNcxxsZpGAZgDQtscVTP8ATmj/&#xA;APLZF/wYxV36c0f/AJbIv+DGKu/Tmj/8tkX/AAYxV36c0f8A5bIv+DGKu/Tmj/8ALZF/wYxV36c0&#xA;f/lsi/4MYq79OaP/AMtkX/BjFUVo2qadceZNAiguY5JDq2n0RWBO11Hir7/xV2KuxV2KuxV2KuxV&#xA;2KuxV8o/85v/AO9Hlj/Un/WMVeRw/kL5ul8mDzUtxa/VWs/r625aT1DEY/VA5cOHIpvSuKpL+XX5&#xA;Y6757ubyLS5YYVsVRp5Ji1KyluCgIrE14MfoxVBeZfImteX/ADaPK90Y5dQkeJIXjY+m5noE3YKR&#xA;uaGoxVkXnn8jvNXk/Qf01fXFtcWiukcogMnJfUNFb40QFeW2KrfIn5JeZ/OWhvrNhc21vaiRokEx&#xA;kLEoBUn00cAVNN8VY/5a8ia1r/m0+V7Uxx38byxzPIx9NPQJDmqhidxQUGKo38xfyx13yJcWUWqS&#xA;wzLfq7QSQl+sRXmrB1UinNfvxVPG/ILzivk7/E/r2pg+qfXjahpPU9Lh6lOXDhy4duXtiqSfl1+W&#xA;Gu+e572PS5oYFsFjM7zl9zLy4BQiuT/dtiqB17yJrWjech5SmMU2pvNDBC0bH03a44+nuwUj7YrU&#xA;bYqyDz7+SXmfyZoqaxf3FtcWrSrE4hMgZS4PFqSIlRtTbFV/kj8jfNXm/wAvjXLG4tYLV3dIkmMn&#xA;JvTPEseCOFHIEb4qxzyv5E1rzF5rPlm1McN+jSrM0pPBDBUP9kMTuKCgxVF/mH+Wut+Rb21ttUlh&#xA;m+uI0kMkBanwEBlYOqEEchiqfXn5BecbTye/meSa29CK1+uyWwaT1BEE9Rhy4cCypvTliqT/AJdf&#xA;lXr/AJ7N6dMmggjseAlecvUtJWgVUVz0U1OKr9N8ral5W/NzRdD1Eo11a6rYcniJKMrzRurLUKej&#xA;dxir9HcVdirsVdirsVdirsVdirsVfKP/ADm//vR5Y/1J/wBYxVLbP/nIzyFB+SCeUGsr4+YI9K/R&#xA;20cfoGUR+kH9T1K8ab/ZrirCv+cdPza8s/l5q+rS+Ybe5mtNRiiEb2qLIyyQl9irNHswlO9e2KpL&#xA;+Zn5jaP5k/Nn/Ful20yaXBPbSQwzBUldbcqxqFLqvIg03OKvRvz1/wCcgvIvnXyJHoPl+0vUvJJY&#xA;mne6jjjREjIfYpJJyPJaYqp/kN+fvkXyP5HudD1+1vZLwzySwvaxxyIyyDYEtJHQ1xV53+W35i6T&#xA;5c/Nf/FupW0r6ZPcXEk8MXFpUS4csKAlVYr8xiqff85G/m35X/MTVdGk8u29zDa6bDMsz3SJGzST&#xA;Mn2VVpNgIxvXFWby/wDOSPkM/kv/AIVSxvv8Q/owWFDHH6Hq8PTLer6nLjTf7NcVYT/zjj+bflX8&#xA;u9T1qTzFBczW+owwrC1qiSFXhZ9mVmj6iTrXFUg8+fmNpOtfnCfOmm20w02G9tbmC3m4pK6WpQ7h&#xA;SyqW4bbnFXon59/n75F88eSrXQ/L1repdieOSeS6jjiRUjB6cZJCSW9sVVfyQ/5yC8h+TPy8k8va&#xA;7aXz36STtE9tHHJG6yksu7SRlSC1OmKvOPyv/MbSPLf5r/4t1e3mbTp5bmSaGAK8iC4YsKBigahP&#xA;jiqbf85E/mr5Z/MLXtMuvL1vcw2ljA8cjXSJGzPIwJoqNJsAvWuKs81b/nJHyHefkxP5Vjsb4eYL&#xA;jTTYGscfoLI6emzerz5FQpr9jFWIf844/nD5T/LyfWV8x291LDfrEbeS0RJCGjLAhlZ46bNsRiqT&#xA;a15w0/zh+flhr+mxSQ6fdaxYC1SYASemk0agsFLAE06VxV+guKuxV2KuxV2KuxV2KuxV2Ksc8z+T&#xA;dO1+4hmu4Y5jEnBRKiuBuTtyBp1xVJf+VTeX/wDlitv+RMX/ADTirv8AlU3l/wD5Yrb/AJExf804&#xA;q7/lU3l//litv+RMX/NOKu/5VN5f/wCWK2/5Exf804q7/lU3l/8A5Yrb/kTF/wA04q7/AJVN5f8A&#xA;+WK2/wCRMX/NOKu/5VN5f/5Yrb/kTF/zTirv+VTeX/8Alitv+RMX/NOKu/5VN5f/AOWK2/5Exf8A&#xA;NOKu/wCVTeX/APlitv8AkTF/zTirv+VTeX/+WK2/5Exf804q7/lU3l//AJYrb/kTF/zTirv+VTeX&#xA;/wDlitv+RMX/ADTirv8AlU3l/wD5Yrb/AJExf804q7/lU3l//litv+RMX/NOKu/5VN5f/wCWK2/5&#xA;Exf804qvh/KrQYpklS0t0dGDKywxggg1BBAqDirOsVdirsVdirsVdirsVdirsVdirsVdirsVdirs&#xA;VdirsVdirsVdirsVdirsVdirsVdirsVdirsVdirsVdirsVdirsVdirsVdirsVdirsVdirsVdirsV&#xA;dirsVdirsVdirsVdirsVdirsVdirsVdirsVdirsVdirsVdirsVdirsVdirsVdirsVdirsVdirsVd&#xA;irsVdirsVdirsVdirsVdirsVdirsVdirsVdirsVdirsVdirsVdirsVdirsVdirsVdirsVdirsVdi&#xA;rsVdirsVdirsVdirsVY5f/mT+XenXktlqHmnSLO9t24T209/bRSow/ZdHkDKfmMVQ/8Aytj8rP8A&#xA;qctD/wC4laf9VMVd/wArY/Kz/qctD/7iVp/1UxV3/K2Pys/6nLQ/+4laf9VMVd/ytj8rP+py0P8A&#xA;7iVp/wBVMVd/ytj8rP8AqctD/wC4laf9VMVd/wArY/Kz/qctD/7iVp/1UxV3/K2Pys/6nLQ/+4la&#xA;f9VMVd/ytj8rP+py0P8A7iVp/wBVMVd/ytj8rP8AqctD/wC4laf9VMVd/wArY/Kz/qctD/7iVp/1&#xA;UxV3/K2Pys/6nLQ/+4laf9VMVd/ytj8rP+py0P8A7iVp/wBVMVd/ytj8rP8AqctD/wC4laf9VMVd&#xA;/wArY/Kz/qctD/7iVp/1UxV3/K2Pys/6nLQ/+4laf9VMVd/ytj8rP+py0P8A7iVp/wBVMVd/ytj8&#xA;rP8AqctD/wC4laf9VMVd/wArY/Kz/qctD/7iVp/1UxV3/K2Pys/6nLQ/+4laf9VMVd/ytj8rP+py&#xA;0P8A7iVp/wBVMVd/ytj8rP8AqctD/wC4laf9VMVd/wArY/Kz/qctD/7iVp/1UxV3/K2Pys/6nLQ/&#xA;+4laf9VMVd/ytj8rP+py0P8A7iVp/wBVMVd/ytj8rP8AqctD/wC4laf9VMVTr/Efl79Dfpz9KWn6&#xA;E4er+lPXi+q8K05+vy9PjXvXFX52/nDI0v5m+YpG6tdsT/wIxV6r5Z/5xj0m/wBBs73UNRuzd3EK&#xA;TSrbCNYlMihuC81djxrSvfwxV43+YHlI+U/Nl7ofr/WY7co0MxHEtHIgdeQ8QGocVereQP8AnHPT&#xA;df8AK1jrGo6hdLPfRidYrURhEjfdAS6uWam56eHvirzf80/Ia+SfNH6JiuGubaaBLq3kcASBHZ04&#xA;vTbkGjPTFWc/lZ+Qdj5t8rQ67qF9cR/W2k+rwWoQcUikaIl2dW3LIdh2xViv5v8A5Zw+RNWs4La6&#xA;e5tL2Nnj9YASo0ZAdW4gA/aBBpiqeflB+Sdp520e41a/vZoIUma3ggtgvMlFVmdmcMKfHQCmKoH8&#xA;4/yjtvIgsLiyu5bi1vGeJ47gL6iSIA1QUCgqwPhtirX5O/lHb+exfXF5dy21rZskSx24UyvI4LVq&#xA;wIVVA8N/bFUf+b/5J2XknRrfVbC9nnjadbeeC5CcgXVmV0ZAop8BBFMVSL8ofyzj896vdwXF09rZ&#xA;2MavL6IBldpCQiryqB9kkmhxVln5p/kHp/lLyrNrun31xIbRo/rEF0EPJJZFiBQoqUIZx17YqwT8&#xA;rfIY87eaP0S9ybW3ige6uJEHJyiMqcUB25FpB1xV6T5//wCcc9M0Dytfaxp+oXTXFjGZzFdCMo8a&#xA;buAUVCGpuMVeUeQfKT+bPNVloYn+rJcF2lnpyKpGhdqDapIWgxV7L5l/5xj0iw0G9vbHUbwXdvC8&#xA;0IuRG0TFFLcW4KhHICla7Yq8N8r6DLr/AJh0/RopBC99MsPrMKhAT8TU70HbFXvt3/zixoYsHe31&#xA;S9W5KfupZViMXOmxZVUNxr/lYq+ebLTZ7vVoNMQqtxcTpbKWPwh3cIKkdqnFX0On/OLGgfUQ76rf&#xA;GbhvMqxCPnT7XAqW417cvpxV89a1pkulaxf6XMweWwuJbWR1+yWhcoSPYlcVfQWm/wDOLOjtp0Ul&#xA;9qd413wBuGtxGsQenxBAys1B41xV4T5x8uSeW/M2oaG8onNlLwWYDjyUqGU03oeLCoxV7R5Q/wCc&#xA;aNL1Xy5YalqGo3f1q8hjuHS2EaxoJVDqnxq5JAO5xV5L+Y3k3/CHmu50VZzcwxqksEzDixjkFQGA&#xA;25DocVfRf1uX/oUf067fU+H0dcVfPf5t/wDkyfMH/MU3/ERir7t/Kf8ARuo/l9o93byJPFLbR0kQ&#xA;1GygUPgR3BxV8Vf85B3dnc/mzrZtJUmiiaOEuh5KHjjVWWo2+E7HFX1v/wA45tp2oflTo8sMiTGK&#xA;FIJeJqVeKNVZW8CGrir5m/5yuubKX81nhtZUl+qWUcE4Qg8JPWmfgad+LqfpxV7z/wA4lvp97+V1&#xA;tCsqST2bzRzxg1ZGe5lkAYdqo6n6cVeS/wDOZE9iPOel2MEqPPbQSPPEpqUEvp8eVOleJxVnf/OG&#xA;sthdeU9RszKjXNvdSPJBX41WRY+LcetDQ74qkf8AzmnNYQvoNhHKn1ol52gBqwShXkR27Ur1xVb/&#xA;AM4XzWEsut2EkqfWeaTLATRinHjyA7io7dMVZD/zmZJp9r5P0y0EqLdXF2rxwV+NljR+TcetBy64&#xA;q8//AOcOrix/xpqVjPKiTXMMbwxMaFxEJC3HxpyXFXr/APzlo+n2X5VXUTypHcXksEVvGTRpGS4i&#xA;kIUd6KhOKvAf+cVbqyi/NNIbqVIvrdm8EIc05uZ4X4ivfijH6MVfTv8AzkUdO0/8p9blmkSEywPB&#xA;FyNC0kqMqqviScVfIn5A3dpbfmrozXUqwxymWJXc8VLyRMqrU92Ow98VfbP5qjTNO/LzW7y4kSCK&#xA;K1f945AG4oAPEmuwGKvgv8r7y1s/zB0G4upVhgS7QPK5oq8qqKnsKnrir9Cddi0208r3V5NJHDbw&#xA;25ledyFRVC15Fjtir85tEvLaLzhYXssgS1j1CGZ5TUARrOGLH5DfFX6N2lvYP5XiuQ6GJrQS+sCO&#xA;FDHyry6UxV+cvnW6t7vzlr13bSCW2uNRu5YZV3Vked2Vh7EGuKv0V8njTNR8r2d9bSpPbXMZkjnQ&#xA;gqysTQ1+WKvgL84by0vPzM1+e0lWaA3ARZENVJjjVGofZlIxV9v/AJKHTdR/LXRLm3kSdDawoXQ1&#xA;oyRKrKfAqQQRir4+/wCckrqyn/NrVltJUmS3CQOUPIB0rVajaorvir1v/wBdM/6Nv4Yq8C/Nv/yZ&#xA;PmD/AJim/wCIjFVvl7S9Mm0Y3E2sPaTcn5W6TxwgEFQilXINZQT8f2VpvgVpvL/lFbqWBtWb00aB&#xA;YrlWiZJFn2Z+I3X0jUsD28MVV4tG0S3lkjj1h7NRJcKEFzExdYoVeJ+UR4D1GYihPsN8VVT5U8oy&#xA;yzMuuBkA5GQyxEr/AHnJ25cWk+JFHFRXevShLat2vl7y1CyGLzB6Zk/vFSeKOgSJyQW6byqAvsfc&#xA;Y2qTSWGg/VZri5vXe7N68EcayJIxgXgfVJCkNUM29QNsVR2laBpBlVv0wLblPNBWOeBXkijDlG3d&#xA;eHNkUDlsa16UqqhvMujaTa2MV3bav+kbmSZ4mBZWLIrOA4ALMtAi/a68tsVY9FLLE4eJ2jcdGUlT&#xA;94wq3NPPOweaRpWAoGdixp4VOKrUkeNw8bFHXdWU0I+RGKr5rm5nIM8rylfsl2LUr4VxVTVmVgyk&#xA;hgagjYgjFU10eNNV1GO11O+eODi7K0kgFXVSVQNIeCliKVOKpze+W/KVsvJdVMwE6RMiSwFljenK&#xA;WgPxemzFSB1pyrTAqpPpOhzQRctakniaWWOV5LiILEYQQremxLMJSKqV7HxxVbB5X8oyWsLNriJP&#xA;J6Jarx0CssJkPE8acTK2xNfh6GjUVRUnl/y6Q0Fx5iaOFViZrZp45KCp5x1QlGYBVK027Y2qVz6B&#xA;5bivdPh/SIaCcObudZomCcVJAHEHjuKb1r2xVu0sdMuWtoI9Xkis5pLmOZZZ0RY44uHpvRylQ4c0&#xA;UqCSMVRln5P8rzQ2rTa4kbywGSVecPwsPTr+3sE5tVTueJpjasSW8u4kMUVxIsW44qzBSD7V74VU&#xA;MVVoby7gUpDPJEpNSqOyivjQHFVIkk1PXFX1V/66Z/0bfwxV5Z5u0nTr3z55mkuoRK637KpJIoOC&#xA;nsRiqW/4Z0L/AJZF/wCCb+uKu/wzoX/LIv8AwTf1xV3+GdC/5ZF/4Jv64q7/AAzoX/LIv/BN/XFX&#xA;f4Z0L/lkX/gm/rirv8M6F/yyL/wTf1xV3+GdC/5ZF/4Jv64q7/DOhf8ALIv/AATf1xV3+GdC/wCW&#xA;Rf8Agm/rirv8M6F/yyL/AME39cVd/hnQv+WRf+Cb+uKu/wAM6F/yyL/wTf1xVJfKej6be6dJLdQC&#xA;WRZmUMSw2CqabEeOKp1/hnQv+WRf+Cb+uKu/wzoX/LIv/BN/XFXf4Z0L/lkX/gm/rirv8M6F/wAs&#xA;i/8ABN/XFXf4Z0L/AJZF/wCCb+uKu/wzoX/LIv8AwTf1xV3+GdC/5ZF/4Jv64q7/AAzoX/LIv/BN&#xA;/XFXf4Z0L/lkX/gm/rirv8M6F/yyL/wTf1xV3+GdC/5ZF/4Jv64qtl8taGInItVqFJG7eHzxV7P/&#xA;AOumf9G38MVeb+Yv+U580f8AbQb/AJNpiqGxV2KuxV2KuxV2KuxV2KuxV2KuxV2Ksd8j/wDHJl/4&#xA;zt/xBMVZFirsVdirsVdirsVdirsVdirsVdiqyb+5k/1T+rFXqn/rpn/Rt/DFXm/mL/lOfNH/AG0G&#xA;/wCTaYqhsVdirsVdirsVdirsVdirsVdirsVdirHfI/8AxyZf+M7f8QTFWRYq7FXYq7FXYq7FXYq7&#xA;FXYq7FXYqsm/uZP9U/qxV6p/66Z/0bfwxV5v5i/5TnzR/wBtBv8Ak2mKobFXYq7FXYq7FXYq7FXY&#xA;q7FXYq7FXYqx3yP/AMcmX/jO3/EExVkWKuxV2KuxV2KuxV2KuxV2KuxV2KrJv7mT/VP6sVeqf+um&#xA;f9G38MVeb+Yv+U580f8AbQb/AJNpiqGxV2KuxV2KuxV2KuxV2KuxV2KuxV2Ksd8j/wDHJl/4zt/x&#xA;BMVZFirsVdirsVdirsVdirsVdirsVdiqyb+5k/1T+rFXqn/rpn/Rt/DFXm/mL/lOfNH/AG0G/wCT&#xA;aYqhsVdirsVdirsVdirsVdirsVdirsVdirHfI/8AxyZf+M7f8QTFWRYq7FXYq7FXYq7FXYq7FXYq&#xA;7FXYqsm/uZP9U/qxV6p/66Z/0bfwxV5v5i/5TnzR/wBtBv8Ak2mKobFXYq7FXYq7FXYq7FXYq7FX&#xA;Yq7FXYqx3yP/AMcmX/jO3/EExVkWKuxV2KuxV2KuxV2KuxV2KuxV2KrJv7mT/VP6sVeqf+umf9G3&#xA;8MVeb+Yv+U580f8AbQb/AJNpiqGxV2KuxV2KuxV2KuxV2KuxV2KuxV2Ksd8j/wDHJl/4zt/xBMVZ&#xA;FirsVdirsVdirsVdirsVdirsVdiqyb+5k/1T+rFXqn/rpn/Rt/DFXkfnfzDZaZ5/8yxTpIzPfM4M&#xA;YUinBR3ZfDFUo/xxpP8Avqf/AIFP+a8Vd/jjSf8AfU//AAKf814q7/HGk/76n/4FP+a8Vd/jjSf9&#xA;9T/8Cn/NeKu/xxpP++p/+BT/AJrxV3+ONJ/31P8A8Cn/ADXirv8AHGk/76n/AOBT/mvFXf440n/f&#xA;U/8AwKf814q7/HGk/wC+p/8AgU/5rxV3+ONJ/wB9T/8AAp/zXirv8caT/vqf/gU/5rxV3+ONJ/31&#xA;P/wKf814qlXlzzHY6ZYvBOkrO0pcFApFCqjuy/y4qmv+ONJ/31P/AMCn/NeKu/xxpP8Avqf/AIFP&#xA;+a8Vd/jjSf8AfU//AAKf814q7/HGk/76n/4FP+a8Vd/jjSf99T/8Cn/NeKu/xxpP++p/+BT/AJrx&#xA;V3+ONJ/31P8A8Cn/ADXirv8AHGk/76n/AOBT/mvFXf440n/fU/8AwKf814q7/HGk/wC+p/8AgU/5&#xA;rxV3+ONJ/wB9T/8AAp/zXiq2TztpTRsoinqQQPhTuP8AXxV7r/66Z/0bfwxV4F+bf/kyfMH/ADFN&#xA;/wARGKqmkfk/+Y+r6dDqNhozyWdwoeCR5reEsp6MFlkRqHsab4qxfUtMv9Lv5tP1CB7a8t24TQSC&#xA;jKev6txirIvL/wCVXn/zBpqalpOkvPYyEiOdpYIQ3E0JUSvGSKilQKYqkWuaDq+halLpur2r2l7F&#xA;QvC9DsdwQykqwPiDTFU38tflr538zWb3uiaW91aI5jMxkihUsOoUzPHyp3piqXeY/K2v+W78WGt2&#xA;b2V0VEioxVgynbkroWRhUdjiqM8r+QfN/mlJn0LTnvI7chZpOccSBjvx5Ssik+wNcVUfM/kvzP5X&#xA;nhg16weye4BaAlkkRwtOXF42dCRUVFdsVd5Y8meZ/NE8sGg2D3skChpiGSNEDVpyeRkQE0NBXFVb&#xA;zR5A83+Vkhk13TXs4rglYpeccqFhvx5xM6hqdia4qg/LnlfX/Ml/+j9Es3vboIZGRSqhUFAWZ3Ko&#xA;oqabnFUy8y/lr538s2a3ut6W9raOwQTiSKZQx6BjC8nGvauKpPoehavrupRabpNq93ezV4QpQbAV&#xA;JLMQqgeJNMVT3X/yq8/+X9OfUtW0h4LGMgSzJLBMF5GgLCF5Cor3IpirHNN02/1O+hsLCB7m8uG4&#xA;QwRirM3tirKdX/J/8x9I06fUb/Rnjs7ZS88iTW8xVBuWKxSO1ANyabYqxG3t57m4jt7eNpp5mEcU&#xA;SAszOxoqqBuSTirM7r8lfzPtbOS8m0N/RiT1H4TW8j8QK7RpIzk+wWuKsJALEKoqTsAOpOKs3X8k&#xA;vzRa1FyNCk9Mp6gUzW4kpSv90ZPU5f5PGuKsJkjkjkaORSkiEq6MCCCDQgg9CMVZnp/5M/mZf2MN&#xA;9a6I5tp0EkRea3iYqRUH05JEcV9xirELyzurK7mtLuJoLq3cxzQyAqyOpoVIPhirKtE/KP8AMTW9&#xA;Ni1LTdHeWynFYZXlgh5r/MqyyI3E9jShxVjeraTqWkajNp2pW72t7bnjNBIKMpIqOmxBBqCOuKvp&#xA;/wD9dM/6Nv4Yq8C/Nv8A8mT5g/5im/4iMVfcHkDy7BeeTtMnZRVraID2CxgbYq+Ov+ch4hF+a+rR&#xA;fyLAv3QqMVfVP5GaDDffljoUzqDSzgQdP99qx/4lir5y/wCcq7UWv5lW8A6R6bEP+nifFXuH/OMW&#xA;jQ3/AOVWls614fWPvN3N/TFXlf8Azl9YrZeYdDt1GyxXBH0mI/xxVnH/ADiRpUV/5HuVdahL2Zj8&#xA;ykQxVJP+cwtNTT7HQ4lFA07uPpQj/jXFVv8Azh9p0d9Za1EwqPrCMfekf9uKp9/zlvpMen+RLUIK&#xA;CS+hNPcJIP44qwX/AJxDskvPMWtW7CvOK3+4eq3/ABrir1f/AJyd0WKw/KjVZEFOZth913Dirwv/&#xA;AJxWt1ufzJuIWFfU06RfvubcYq+kfzy0CGx/LDX50Wn+hzqfpjJ8PbFXyn/zj3GJPzU0pCOqXAH0&#xA;wsP44q+x/PvlyG08m6rcKtDHay19+SFf44q+HvylAP5keX6iv+lr+AOKvvO/8sww6Q9wBR44+de+&#xA;wrir8/PL6g+e9NUj4f0pAKdqfWFxV+gcPlmF9FW44/G0Il5d915Yq/P38wBTz55kA6fpS9/6iHxV&#xA;+gOjeWoLrSY5iu8gah8KEjb7sVfC351qF/NHX18Jo/8AkymKvs38rfL0F55B0WZlH+8Nso9gIE6Y&#xA;q+Tf+ck4BB+ad7D/AL7ghT/gaj+GKvWf/XTP+jb+GKvCfzYsrx/zG190gkZTdNRgjEH4R3AxVn3k&#xA;7/nKH80/LHly20OPSrS/js09O3urqC49XiBRQ5jkRWp40B8cVeU+adW8y+Z9fvNd1aKSS/vn9SUr&#xA;EyoNqKqrTZVAAGKvS/y5/wCcjfzL8j+Xo9AtdLttRsYCTbtdwz+qgO3DlG6AqKbVG2KsA89+afNv&#xA;nfzHPr+twE3kwCLHDE6RRopJCRqeR41Ynck74qzL8rvz5/MT8vNJl0jTtOgv9Odi8UV5DMWiJJYh&#xA;GjaP4SWJoa74qxn8yvP3nP8AMPXhrGuWwjeNPTt7W2hkSGNP8kMXYk03JbFU5/Kn85fP35bR3Vvp&#xA;NhFe2V23N7W8hlYK9ACyNG0bCvEVrUbYqg/zU/NLzz+ZN/bXOtWaW0NmpS2tLSGRYxyNSzFzIzMf&#xA;n8hirX5Wfmh54/LfULi60WzS5hu1C3FpdxStGSvRl4FGVh8/mOmKo781vzm8/wD5kw2trq1hFZWF&#xA;o3qR2tnDKoaSlOTtI0jGgJpSgxVJPy18+ecvy91/9M6JbCSR09Oe2uYpHhkU1+0FKMCKmhBxVlH5&#xA;o/n3+Yv5h6PHo2oadBYaariSWKzhmDSspqodpGk+EEA0FN8VYX5G80ebPJXmK31/RYCLyCqmOaJ3&#xA;ikQkEpIo4krVQdiDtir0H8xP+cj/AMzPO/l2XQLnS7bTrG4I+staQz+q6j9jlI7gKe9BX3xV5l5Z&#xA;1TzJ5a1201vSopI76yfnEWjZlNRRlZabqykg4q9Z84f85R/mp5l8uXWhvpVpYRXsfpXNzbQXHq8T&#xA;9oJ6kjqtfkT4Yq8c0t9c0rUrbUrGKaG8tJFmgkEbGjoajYihHiDir2zVf+csvzav9Cl0tdIsbWWa&#xA;L0Xvore4MigihZFeR0DfMEe2KvDYYNWhuEuYop0uI3EkcoRuQdTyDVp1rir3OH/nLT82o9BXS/0P&#xA;YNMsItxfG3uOdAvHmUEgTlT2pXt2xV4deRaxe3c95dRTS3NzI008pRqtJIxZmNB3JxV7b5e/5yt/&#xA;NjRtAg0n9E2V69snpxX1xBceqR2aQJIis3uAMVeNa3c6/rerXWrajFLNe3khlnk9MgFj4ADYAbAY&#xA;q9Z8jf8AOTX5oeUvLdvoMOlWuoW9ooS2nuobj1VQCiqxjkRWCgADauKvMfN+u+aPNvmG81/WIne+&#xA;vX5yCOJljUdkRd6KPn88VfRvozf9Co+lwb1fq9PToeVaeHXFXuD+T/jajMBXYV/sxVb/AIQP87fe&#xA;P+acVd/g8/zN94/5pxV3+ED/ADt94/5pxV3+Dz/M33j/AJpxV3+ED/M33j/mnFXf4PP8zfeP+acV&#xA;d/hA/wAzfeP+acVd/hA/zN94/wCacVd/hA/zN94/5pxV3+ED/M33j/mnFXf4PP8AM33j/mnFXf4Q&#xA;P8zfeP8AmnFXf4PP8zfeP+acVd/hA/zt94/5pxV3+Dz/ADN94/5pxV3+ED/O33j/AJpxV3+Dz/M3&#xA;3j/mnFXf4QP87feP+acVd/g8/wAzfeP+acVd/hA/zt94/wCacVd/g8/zN94/5pxV3+ED/O33j/mn&#xA;FXf4PP8AM33j/mnFXf4QP87feP8AmnFXf4PP8zfeP+acVR/+GF/Q/wBWqeXrerXv04+GKv8A/9k=</xapGImg:image>
    </rdf:li>
   </rdf:Alt>
  </xap:Thumbnails>
 </rdf:Description>

 <rdf:Description rdf:about='uuid:cb9e0120-9011-11db-83d2-001451315092'
  xmlns:xapMM='http://ns.adobe.com/xap/1.0/mm/'>
  <xapMM:DocumentID>uuid:cb9dfae9-9011-11db-83d2-001451315092</xapMM:DocumentID>
 </rdf:Description>

 <rdf:Description rdf:about='uuid:cb9e0120-9011-11db-83d2-001451315092'
  xmlns:dc='http://purl.org/dc/elements/1.1/'>
  <dc:format>image/svg+xml</dc:format>
 </rdf:Description>

</rdf:RDF>
</x:xmpmeta>
                                                                                                                                                                                                                                                                                                                                                                                                                                                                                                                                                                                                                                                                                                                                                                                                                                                                                                                                                                                                                                                                                                                                                                                                                                                                                                                                                                                                                                                                                                                                                                                                                                                                                                                                                                                                                                                                                                                                                                                                                                                                                                                                <?xpacket end='w'?>
			</metadata>
		<g id="Ebene_1" i:layer="yes" i:dimmedPercent="50" i:rgbTrio="#4F008000FFFF">
			<path i:knockout="Off" opacity="0.03" d="M32.5,3c-0.552,0-1,0.448-1,1v72c0,0.553,0.448,1,1,1h124c0.553,0,1-0.447,1-1V4
				c0-0.552-0.447-1-1-1H32.5z M37.5,12.395v-4c0-0.551,0.449-1,1-1h2c0.551,0,1,0.449,1,1v4c0,0.551-0.449,1-1,1h-2
				C37.949,13.395,37.5,12.946,37.5,12.395z M47.5,12.395v-4c0-0.551,0.449-1,1-1h2c0.551,0,1,0.449,1,1v4c0,0.551-0.449,1-1,1h-2
				C47.949,13.395,47.5,12.946,47.5,12.395z M57.5,12.395v-4c0-0.551,0.449-1,1-1h2c0.551,0,1,0.449,1,1v4c0,0.551-0.449,1-1,1h-2
				C57.949,13.395,57.5,12.946,57.5,12.395z M67.5,12.395v-4c0-0.551,0.449-1,1-1h2c0.551,0,1,0.449,1,1v4c0,0.551-0.449,1-1,1h-2
				C67.949,13.395,67.5,12.946,67.5,12.395z M77.5,12.395v-4c0-0.551,0.449-1,1-1h2c0.551,0,1,0.449,1,1v4c0,0.551-0.449,1-1,1h-2
				C77.949,13.395,77.5,12.946,77.5,12.395z M87.5,12.395v-4c0-0.551,0.449-1,1-1h2c0.551,0,1,0.449,1,1v4c0,0.551-0.449,1-1,1h-2
				C87.949,13.395,87.5,12.946,87.5,12.395z M97.5,12.395v-4c0-0.551,0.448-1,1-1h2c0.552,0,1,0.449,1,1v4c0,0.551-0.448,1-1,1h-2
				C97.948,13.395,97.5,12.946,97.5,12.395z M107.5,12.395v-4c0-0.551,0.448-1,1-1h2c0.552,0,1,0.449,1,1v4c0,0.551-0.448,1-1,1h-2
				C107.948,13.395,107.5,12.946,107.5,12.395z M117.5,12.395v-4c0-0.551,0.448-1,1-1h2c0.552,0,1,0.449,1,1v4c0,0.551-0.448,1-1,1
				h-2C117.948,13.395,117.5,12.946,117.5,12.395z M127.5,12.395v-4c0-0.551,0.448-1,1-1h2c0.552,0,1,0.449,1,1v4
				c0,0.551-0.448,1-1,1h-2C127.948,13.395,127.5,12.946,127.5,12.395z M137.5,12.395v-4c0-0.551,0.448-1,1-1h2c0.552,0,1,0.449,1,1
				v4c0,0.551-0.448,1-1,1h-2C137.948,13.395,137.5,12.946,137.5,12.395z M147.5,12.395v-4c0-0.551,0.448-1,1-1h2
				c0.552,0,1,0.449,1,1v4c0,0.551-0.448,1-1,1h-2C147.948,13.395,147.5,12.946,147.5,12.395z M37.5,71.395v-4c0-0.552,0.449-1,1-1
				h2c0.551,0,1,0.448,1,1v4c0,0.552-0.449,1-1,1h-2C37.949,72.395,37.5,71.946,37.5,71.395z M47.5,71.395v-4c0-0.552,0.449-1,1-1h2
				c0.551,0,1,0.448,1,1v4c0,0.552-0.449,1-1,1h-2C47.949,72.395,47.5,71.946,47.5,71.395z M57.5,71.395v-4c0-0.552,0.449-1,1-1h2
				c0.551,0,1,0.448,1,1v4c0,0.552-0.449,1-1,1h-2C57.949,72.395,57.5,71.946,57.5,71.395z M67.5,71.395v-4c0-0.552,0.449-1,1-1h2
				c0.551,0,1,0.448,1,1v4c0,0.552-0.449,1-1,1h-2C67.949,72.395,67.5,71.946,67.5,71.395z M77.5,71.395v-4c0-0.552,0.449-1,1-1h2
				c0.551,0,1,0.448,1,1v4c0,0.552-0.449,1-1,1h-2C77.949,72.395,77.5,71.946,77.5,71.395z M87.5,71.395v-4c0-0.552,0.449-1,1-1h2
				c0.551,0,1,0.448,1,1v4c0,0.552-0.449,1-1,1h-2C87.949,72.395,87.5,71.946,87.5,71.395z M97.5,71.395v-4c0-0.552,0.448-1,1-1h2
				c0.552,0,1,0.448,1,1v4c0,0.552-0.448,1-1,1h-2C97.948,72.395,97.5,71.946,97.5,71.395z M107.5,71.395v-4c0-0.552,0.448-1,1-1h2
				c0.552,0,1,0.448,1,1v4c0,0.552-0.448,1-1,1h-2C107.948,72.395,107.5,71.946,107.5,71.395z M117.5,71.395v-4c0-0.552,0.448-1,1-1
				h2c0.552,0,1,0.448,1,1v4c0,0.552-0.448,1-1,1h-2C117.948,72.395,117.5,71.946,117.5,71.395z M127.5,71.395v-4
				c0-0.552,0.448-1,1-1h2c0.552,0,1,0.448,1,1v4c0,0.552-0.448,1-1,1h-2C127.948,72.395,127.5,71.946,127.5,71.395z M137.5,71.395
				v-4c0-0.552,0.448-1,1-1h2c0.552,0,1,0.448,1,1v4c0,0.552-0.448,1-1,1h-2C137.948,72.395,137.5,71.946,137.5,71.395z
				 M147.5,71.395v-4c0-0.552,0.448-1,1-1h2c0.552,0,1,0.448,1,1v4c0,0.552-0.448,1-1,1h-2
				C147.948,72.395,147.5,71.946,147.5,71.395z"/>
			<path i:knockout="Off" opacity="0.05" d="M32.5,2c-0.552,0-1,0.448-1,1v72c0,0.553,0.448,1,1,1h124c0.553,0,1-0.447,1-1V3
				c0-0.552-0.447-1-1-1H32.5z M37.5,11.395v-4c0-0.551,0.449-1,1-1h2c0.551,0,1,0.449,1,1v4c0,0.551-0.449,1-1,1h-2
				C37.949,12.395,37.5,11.946,37.5,11.395z M47.5,11.395v-4c0-0.551,0.449-1,1-1h2c0.551,0,1,0.449,1,1v4c0,0.551-0.449,1-1,1h-2
				C47.949,12.395,47.5,11.946,47.5,11.395z M57.5,11.395v-4c0-0.551,0.449-1,1-1h2c0.551,0,1,0.449,1,1v4c0,0.551-0.449,1-1,1h-2
				C57.949,12.395,57.5,11.946,57.5,11.395z M67.5,11.395v-4c0-0.551,0.449-1,1-1h2c0.551,0,1,0.449,1,1v4c0,0.551-0.449,1-1,1h-2
				C67.949,12.395,67.5,11.946,67.5,11.395z M77.5,11.395v-4c0-0.551,0.449-1,1-1h2c0.551,0,1,0.449,1,1v4c0,0.551-0.449,1-1,1h-2
				C77.949,12.395,77.5,11.946,77.5,11.395z M87.5,11.395v-4c0-0.551,0.449-1,1-1h2c0.551,0,1,0.449,1,1v4c0,0.551-0.449,1-1,1h-2
				C87.949,12.395,87.5,11.946,87.5,11.395z M97.5,11.395v-4c0-0.551,0.448-1,1-1h2c0.552,0,1,0.449,1,1v4c0,0.551-0.448,1-1,1h-2
				C97.948,12.395,97.5,11.946,97.5,11.395z M107.5,11.395v-4c0-0.551,0.448-1,1-1h2c0.552,0,1,0.449,1,1v4c0,0.551-0.448,1-1,1h-2
				C107.948,12.395,107.5,11.946,107.5,11.395z M117.5,11.395v-4c0-0.551,0.448-1,1-1h2c0.552,0,1,0.449,1,1v4c0,0.551-0.448,1-1,1
				h-2C117.948,12.395,117.5,11.946,117.5,11.395z M127.5,11.395v-4c0-0.551,0.448-1,1-1h2c0.552,0,1,0.449,1,1v4
				c0,0.551-0.448,1-1,1h-2C127.948,12.395,127.5,11.946,127.5,11.395z M137.5,11.395v-4c0-0.551,0.448-1,1-1h2c0.552,0,1,0.449,1,1
				v4c0,0.551-0.448,1-1,1h-2C137.948,12.395,137.5,11.946,137.5,11.395z M147.5,11.395v-4c0-0.551,0.448-1,1-1h2
				c0.552,0,1,0.449,1,1v4c0,0.551-0.448,1-1,1h-2C147.948,12.395,147.5,11.946,147.5,11.395z M37.5,70.395v-4c0-0.552,0.449-1,1-1
				h2c0.551,0,1,0.448,1,1v4c0,0.552-0.449,1-1,1h-2C37.949,71.395,37.5,70.946,37.5,70.395z M47.5,70.395v-4c0-0.552,0.449-1,1-1h2
				c0.551,0,1,0.448,1,1v4c0,0.552-0.449,1-1,1h-2C47.949,71.395,47.5,70.946,47.5,70.395z M57.5,70.395v-4c0-0.552,0.449-1,1-1h2
				c0.551,0,1,0.448,1,1v4c0,0.552-0.449,1-1,1h-2C57.949,71.395,57.5,70.946,57.5,70.395z M67.5,70.395v-4c0-0.552,0.449-1,1-1h2
				c0.551,0,1,0.448,1,1v4c0,0.552-0.449,1-1,1h-2C67.949,71.395,67.5,70.946,67.5,70.395z M77.5,70.395v-4c0-0.552,0.449-1,1-1h2
				c0.551,0,1,0.448,1,1v4c0,0.552-0.449,1-1,1h-2C77.949,71.395,77.5,70.946,77.5,70.395z M87.5,70.395v-4c0-0.552,0.449-1,1-1h2
				c0.551,0,1,0.448,1,1v4c0,0.552-0.449,1-1,1h-2C87.949,71.395,87.5,70.946,87.5,70.395z M97.5,70.395v-4c0-0.552,0.448-1,1-1h2
				c0.552,0,1,0.448,1,1v4c0,0.552-0.448,1-1,1h-2C97.948,71.395,97.5,70.946,97.5,70.395z M107.5,70.395v-4c0-0.552,0.448-1,1-1h2
				c0.552,0,1,0.448,1,1v4c0,0.552-0.448,1-1,1h-2C107.948,71.395,107.5,70.946,107.5,70.395z M117.5,70.395v-4c0-0.552,0.448-1,1-1
				h2c0.552,0,1,0.448,1,1v4c0,0.552-0.448,1-1,1h-2C117.948,71.395,117.5,70.946,117.5,70.395z M127.5,70.395v-4
				c0-0.552,0.448-1,1-1h2c0.552,0,1,0.448,1,1v4c0,0.552-0.448,1-1,1h-2C127.948,71.395,127.5,70.946,127.5,70.395z M137.5,70.395
				v-4c0-0.552,0.448-1,1-1h2c0.552,0,1,0.448,1,1v4c0,0.552-0.448,1-1,1h-2C137.948,71.395,137.5,70.946,137.5,70.395z
				 M147.5,70.395v-4c0-0.552,0.448-1,1-1h2c0.552,0,1,0.448,1,1v4c0,0.552-0.448,1-1,1h-2
				C147.948,71.395,147.5,70.946,147.5,70.395z"/>
			<path i:knockout="Off" opacity="0.09" d="M32.5,1c-0.552,0-1,0.448-1,1v72c0,0.553,0.448,1,1,1h124c0.553,0,1-0.447,1-1V2
				c0-0.552-0.447-1-1-1H32.5z M37.5,10.395v-4c0-0.551,0.449-1,1-1h2c0.551,0,1,0.449,1,1v4c0,0.551-0.449,1-1,1h-2
				C37.949,11.395,37.5,10.946,37.5,10.395z M47.5,10.395v-4c0-0.551,0.449-1,1-1h2c0.551,0,1,0.449,1,1v4c0,0.551-0.449,1-1,1h-2
				C47.949,11.395,47.5,10.946,47.5,10.395z M57.5,10.395v-4c0-0.551,0.449-1,1-1h2c0.551,0,1,0.449,1,1v4c0,0.551-0.449,1-1,1h-2
				C57.949,11.395,57.5,10.946,57.5,10.395z M67.5,10.395v-4c0-0.551,0.449-1,1-1h2c0.551,0,1,0.449,1,1v4c0,0.551-0.449,1-1,1h-2
				C67.949,11.395,67.5,10.946,67.5,10.395z M77.5,10.395v-4c0-0.551,0.449-1,1-1h2c0.551,0,1,0.449,1,1v4c0,0.551-0.449,1-1,1h-2
				C77.949,11.395,77.5,10.946,77.5,10.395z M87.5,10.395v-4c0-0.551,0.449-1,1-1h2c0.551,0,1,0.449,1,1v4c0,0.551-0.449,1-1,1h-2
				C87.949,11.395,87.5,10.946,87.5,10.395z M97.5,10.395v-4c0-0.551,0.448-1,1-1h2c0.552,0,1,0.449,1,1v4c0,0.551-0.448,1-1,1h-2
				C97.948,11.395,97.5,10.946,97.5,10.395z M107.5,10.395v-4c0-0.551,0.448-1,1-1h2c0.552,0,1,0.449,1,1v4c0,0.551-0.448,1-1,1h-2
				C107.948,11.395,107.5,10.946,107.5,10.395z M117.5,10.395v-4c0-0.551,0.448-1,1-1h2c0.552,0,1,0.449,1,1v4c0,0.551-0.448,1-1,1
				h-2C117.948,11.395,117.5,10.946,117.5,10.395z M127.5,10.395v-4c0-0.551,0.448-1,1-1h2c0.552,0,1,0.449,1,1v4
				c0,0.551-0.448,1-1,1h-2C127.948,11.395,127.5,10.946,127.5,10.395z M137.5,10.395v-4c0-0.551,0.448-1,1-1h2c0.552,0,1,0.449,1,1
				v4c0,0.551-0.448,1-1,1h-2C137.948,11.395,137.5,10.946,137.5,10.395z M147.5,10.395v-4c0-0.551,0.448-1,1-1h2
				c0.552,0,1,0.449,1,1v4c0,0.551-0.448,1-1,1h-2C147.948,11.395,147.5,10.946,147.5,10.395z M37.5,69.395v-4c0-0.552,0.449-1,1-1
				h2c0.551,0,1,0.448,1,1v4c0,0.552-0.449,1-1,1h-2C37.949,70.395,37.5,69.946,37.5,69.395z M47.5,69.395v-4c0-0.552,0.449-1,1-1h2
				c0.551,0,1,0.448,1,1v4c0,0.552-0.449,1-1,1h-2C47.949,70.395,47.5,69.946,47.5,69.395z M57.5,69.395v-4c0-0.552,0.449-1,1-1h2
				c0.551,0,1,0.448,1,1v4c0,0.552-0.449,1-1,1h-2C57.949,70.395,57.5,69.946,57.5,69.395z M67.5,69.395v-4c0-0.552,0.449-1,1-1h2
				c0.551,0,1,0.448,1,1v4c0,0.552-0.449,1-1,1h-2C67.949,70.395,67.5,69.946,67.5,69.395z M77.5,69.395v-4c0-0.552,0.449-1,1-1h2
				c0.551,0,1,0.448,1,1v4c0,0.552-0.449,1-1,1h-2C77.949,70.395,77.5,69.946,77.5,69.395z M87.5,69.395v-4c0-0.552,0.449-1,1-1h2
				c0.551,0,1,0.448,1,1v4c0,0.552-0.449,1-1,1h-2C87.949,70.395,87.5,69.946,87.5,69.395z M97.5,69.395v-4c0-0.552,0.448-1,1-1h2
				c0.552,0,1,0.448,1,1v4c0,0.552-0.448,1-1,1h-2C97.948,70.395,97.5,69.946,97.5,69.395z M107.5,69.395v-4c0-0.552,0.448-1,1-1h2
				c0.552,0,1,0.448,1,1v4c0,0.552-0.448,1-1,1h-2C107.948,70.395,107.5,69.946,107.5,69.395z M117.5,69.395v-4c0-0.552,0.448-1,1-1
				h2c0.552,0,1,0.448,1,1v4c0,0.552-0.448,1-1,1h-2C117.948,70.395,117.5,69.946,117.5,69.395z M127.5,69.395v-4
				c0-0.552,0.448-1,1-1h2c0.552,0,1,0.448,1,1v4c0,0.552-0.448,1-1,1h-2C127.948,70.395,127.5,69.946,127.5,69.395z M137.5,69.395
				v-4c0-0.552,0.448-1,1-1h2c0.552,0,1,0.448,1,1v4c0,0.552-0.448,1-1,1h-2C137.948,70.395,137.5,69.946,137.5,69.395z
				 M147.5,69.395v-4c0-0.552,0.448-1,1-1h2c0.552,0,1,0.448,1,1v4c0,0.552-0.448,1-1,1h-2
				C147.948,70.395,147.5,69.946,147.5,69.395z"/>
			<path i:knockout="Off" opacity="0.13" d="M32.5,0c-0.552,0-1,0.448-1,1v72c0,0.553,0.448,1,1,1h124c0.553,0,1-0.447,1-1V1
				c0-0.552-0.447-1-1-1H32.5z M37.5,9.395v-4c0-0.551,0.449-1,1-1h2c0.551,0,1,0.449,1,1v4c0,0.551-0.449,1-1,1h-2
				C37.949,10.395,37.5,9.946,37.5,9.395z M47.5,9.395v-4c0-0.551,0.449-1,1-1h2c0.551,0,1,0.449,1,1v4c0,0.551-0.449,1-1,1h-2
				C47.949,10.395,47.5,9.946,47.5,9.395z M57.5,9.395v-4c0-0.551,0.449-1,1-1h2c0.551,0,1,0.449,1,1v4c0,0.551-0.449,1-1,1h-2
				C57.949,10.395,57.5,9.946,57.5,9.395z M67.5,9.395v-4c0-0.551,0.449-1,1-1h2c0.551,0,1,0.449,1,1v4c0,0.551-0.449,1-1,1h-2
				C67.949,10.395,67.5,9.946,67.5,9.395z M77.5,9.395v-4c0-0.551,0.449-1,1-1h2c0.551,0,1,0.449,1,1v4c0,0.551-0.449,1-1,1h-2
				C77.949,10.395,77.5,9.946,77.5,9.395z M87.5,9.395v-4c0-0.551,0.449-1,1-1h2c0.551,0,1,0.449,1,1v4c0,0.551-0.449,1-1,1h-2
				C87.949,10.395,87.5,9.946,87.5,9.395z M97.5,9.395v-4c0-0.551,0.448-1,1-1h2c0.552,0,1,0.449,1,1v4c0,0.551-0.448,1-1,1h-2
				C97.948,10.395,97.5,9.946,97.5,9.395z M107.5,9.395v-4c0-0.551,0.448-1,1-1h2c0.552,0,1,0.449,1,1v4c0,0.551-0.448,1-1,1h-2
				C107.948,10.395,107.5,9.946,107.5,9.395z M117.5,9.395v-4c0-0.551,0.448-1,1-1h2c0.552,0,1,0.449,1,1v4c0,0.551-0.448,1-1,1h-2
				C117.948,10.395,117.5,9.946,117.5,9.395z M127.5,9.395v-4c0-0.551,0.448-1,1-1h2c0.552,0,1,0.449,1,1v4c0,0.551-0.448,1-1,1h-2
				C127.948,10.395,127.5,9.946,127.5,9.395z M137.5,9.395v-4c0-0.551,0.448-1,1-1h2c0.552,0,1,0.449,1,1v4c0,0.551-0.448,1-1,1h-2
				C137.948,10.395,137.5,9.946,137.5,9.395z M147.5,9.395v-4c0-0.551,0.448-1,1-1h2c0.552,0,1,0.449,1,1v4c0,0.551-0.448,1-1,1h-2
				C147.948,10.395,147.5,9.946,147.5,9.395z M37.5,68.395v-4c0-0.552,0.449-1,1-1h2c0.551,0,1,0.448,1,1v4c0,0.552-0.449,1-1,1h-2
				C37.949,69.395,37.5,68.946,37.5,68.395z M47.5,68.395v-4c0-0.552,0.449-1,1-1h2c0.551,0,1,0.448,1,1v4c0,0.552-0.449,1-1,1h-2
				C47.949,69.395,47.5,68.946,47.5,68.395z M57.5,68.395v-4c0-0.552,0.449-1,1-1h2c0.551,0,1,0.448,1,1v4c0,0.552-0.449,1-1,1h-2
				C57.949,69.395,57.5,68.946,57.5,68.395z M67.5,68.395v-4c0-0.552,0.449-1,1-1h2c0.551,0,1,0.448,1,1v4c0,0.552-0.449,1-1,1h-2
				C67.949,69.395,67.5,68.946,67.5,68.395z M77.5,68.395v-4c0-0.552,0.449-1,1-1h2c0.551,0,1,0.448,1,1v4c0,0.552-0.449,1-1,1h-2
				C77.949,69.395,77.5,68.946,77.5,68.395z M87.5,68.395v-4c0-0.552,0.449-1,1-1h2c0.551,0,1,0.448,1,1v4c0,0.552-0.449,1-1,1h-2
				C87.949,69.395,87.5,68.946,87.5,68.395z M97.5,68.395v-4c0-0.552,0.448-1,1-1h2c0.552,0,1,0.448,1,1v4c0,0.552-0.448,1-1,1h-2
				C97.948,69.395,97.5,68.946,97.5,68.395z M107.5,68.395v-4c0-0.552,0.448-1,1-1h2c0.552,0,1,0.448,1,1v4c0,0.552-0.448,1-1,1h-2
				C107.948,69.395,107.5,68.946,107.5,68.395z M117.5,68.395v-4c0-0.552,0.448-1,1-1h2c0.552,0,1,0.448,1,1v4c0,0.552-0.448,1-1,1
				h-2C117.948,69.395,117.5,68.946,117.5,68.395z M127.5,68.395v-4c0-0.552,0.448-1,1-1h2c0.552,0,1,0.448,1,1v4
				c0,0.552-0.448,1-1,1h-2C127.948,69.395,127.5,68.946,127.5,68.395z M137.5,68.395v-4c0-0.552,0.448-1,1-1h2c0.552,0,1,0.448,1,1
				v4c0,0.552-0.448,1-1,1h-2C137.948,69.395,137.5,68.946,137.5,68.395z M147.5,68.395v-4c0-0.552,0.448-1,1-1h2
				c0.552,0,1,0.448,1,1v4c0,0.552-0.448,1-1,1h-2C147.948,69.395,147.5,68.946,147.5,68.395z"/>
			<path i:knockout="Off" d="M32.5,0v72h124V0H32.5z M42.5,67.395c0,1.104-0.896,2-2,2h-2c-1.104,0-2-0.896-2-2v-4
				c0-1.104,0.896-2,2-2h2c1.104,0,2,0.896,2,2V67.395z M42.5,8.395c0,1.104-0.896,2-2,2h-2c-1.104,0-2-0.896-2-2v-4
				c0-1.104,0.896-2,2-2h2c1.104,0,2,0.896,2,2V8.395z M52.5,67.395c0,1.104-0.896,2-2,2h-2c-1.104,0-2-0.896-2-2v-4
				c0-1.104,0.896-2,2-2h2c1.104,0,2,0.896,2,2V67.395z M52.5,8.395c0,1.104-0.896,2-2,2h-2c-1.104,0-2-0.896-2-2v-4
				c0-1.104,0.896-2,2-2h2c1.104,0,2,0.896,2,2V8.395z M62.5,67.395c0,1.104-0.896,2-2,2h-2c-1.104,0-2-0.896-2-2v-4
				c0-1.104,0.896-2,2-2h2c1.104,0,2,0.896,2,2V67.395z M62.5,8.395c0,1.104-0.896,2-2,2h-2c-1.104,0-2-0.896-2-2v-4
				c0-1.104,0.896-2,2-2h2c1.104,0,2,0.896,2,2V8.395z M72.5,67.395c0,1.104-0.896,2-2,2h-2c-1.104,0-2-0.896-2-2v-4
				c0-1.104,0.896-2,2-2h2c1.104,0,2,0.896,2,2V67.395z M72.5,8.395c0,1.104-0.896,2-2,2h-2c-1.104,0-2-0.896-2-2v-4
				c0-1.104,0.896-2,2-2h2c1.104,0,2,0.896,2,2V8.395z M82.5,67.395c0,1.104-0.896,2-2,2h-2c-1.104,0-2-0.896-2-2v-4
				c0-1.104,0.896-2,2-2h2c1.104,0,2,0.896,2,2V67.395z M82.5,8.395c0,1.104-0.896,2-2,2h-2c-1.104,0-2-0.896-2-2v-4
				c0-1.104,0.896-2,2-2h2c1.104,0,2,0.896,2,2V8.395z M92.5,67.395c0,1.104-0.896,2-2,2h-2c-1.104,0-2-0.896-2-2v-4
				c0-1.104,0.896-2,2-2h2c1.104,0,2,0.896,2,2V67.395z M92.5,8.395c0,1.104-0.896,2-2,2h-2c-1.104,0-2-0.896-2-2v-4
				c0-1.104,0.896-2,2-2h2c1.104,0,2,0.896,2,2V8.395z M102.5,67.395c0,1.104-0.896,2-2,2h-2c-1.104,0-2-0.896-2-2v-4
				c0-1.104,0.896-2,2-2h2c1.104,0,2,0.896,2,2V67.395z M102.5,8.395c0,1.104-0.896,2-2,2h-2c-1.104,0-2-0.896-2-2v-4
				c0-1.104,0.896-2,2-2h2c1.104,0,2,0.896,2,2V8.395z M112.5,67.395c0,1.104-0.896,2-2,2h-2c-1.104,0-2-0.896-2-2v-4
				c0-1.104,0.896-2,2-2h2c1.104,0,2,0.896,2,2V67.395z M112.5,8.395c0,1.104-0.896,2-2,2h-2c-1.104,0-2-0.896-2-2v-4
				c0-1.104,0.896-2,2-2h2c1.104,0,2,0.896,2,2V8.395z M122.5,67.395c0,1.104-0.896,2-2,2h-2c-1.104,0-2-0.896-2-2v-4
				c0-1.104,0.896-2,2-2h2c1.104,0,2,0.896,2,2V67.395z M122.5,8.395c0,1.104-0.896,2-2,2h-2c-1.104,0-2-0.896-2-2v-4
				c0-1.104,0.896-2,2-2h2c1.104,0,2,0.896,2,2V8.395z M132.5,67.395c0,1.104-0.896,2-2,2h-2c-1.104,0-2-0.896-2-2v-4
				c0-1.104,0.896-2,2-2h2c1.104,0,2,0.896,2,2V67.395z M132.5,8.395c0,1.104-0.896,2-2,2h-2c-1.104,0-2-0.896-2-2v-4
				c0-1.104,0.896-2,2-2h2c1.104,0,2,0.896,2,2V8.395z M142.5,67.395c0,1.104-0.896,2-2,2h-2c-1.104,0-2-0.896-2-2v-4
				c0-1.104,0.896-2,2-2h2c1.104,0,2,0.896,2,2V67.395z M142.5,8.395c0,1.104-0.896,2-2,2h-2c-1.104,0-2-0.896-2-2v-4
				c0-1.104,0.896-2,2-2h2c1.104,0,2,0.896,2,2V8.395z M152.5,67.395c0,1.104-0.896,2-2,2h-2c-1.104,0-2-0.896-2-2v-4
				c0-1.104,0.896-2,2-2h2c1.104,0,2,0.896,2,2V67.395z M152.5,8.395c0,1.104-0.896,2-2,2h-2c-1.104,0-2-0.896-2-2v-4
				c0-1.104,0.896-2,2-2h2c1.104,0,2,0.896,2,2V8.395z"/>
			<rect x="33.5" y="16" i:knockout="Off" fill="#555555" width="60" height="40"/> 
			<rect x="95.5" y="16" i:knockout="Off" fill="#555555" width="60" height="40"/> 
			<g i:knockout="Off">
				<path i:knockout="Off" fill="#888A85" d="M39.028,14.346c-0.796,0-1.268-0.483-1.268-1.098c0-0.646,0.52-1.129,1.312-1.129
					c0.828,0,1.28,0.496,1.28,1.091c0,0.71-0.532,1.136-1.32,1.136H39.028z M39.056,13.958c0.412,0,0.648-0.311,0.648-0.733
					c0-0.387-0.228-0.72-0.648-0.72s-0.656,0.326-0.656,0.729c0,0.406,0.244,0.723,0.652,0.723H39.056z"/>
				<path i:knockout="Off" fill="#888A85" d="M42.009,14.311l-0.244-0.391c-0.1-0.15-0.164-0.262-0.24-0.387h-0.008
					c-0.056,0.125-0.124,0.237-0.212,0.387l-0.22,0.391h-0.696l0.78-1.091l-0.752-1.065h0.7l0.236,0.394
					c0.08,0.131,0.14,0.237,0.204,0.358h0.008c0.064-0.138,0.116-0.234,0.184-0.358l0.228-0.394h0.696l-0.76,1.053l0.8,1.104H42.009
					z"/>
				<path i:knockout="Off" fill="#888A85" d="M43.712,14.311v-0.883l-0.852-1.273h0.7l0.272,0.518
					c0.084,0.157,0.144,0.272,0.208,0.413h0.008c0.06-0.134,0.124-0.259,0.204-0.413l0.272-0.518h0.684l-0.888,1.257v0.899H43.712z"
					/>
				<path i:knockout="Off" fill="#888A85" d="M47.285,14.253c-0.108,0.042-0.364,0.093-0.688,0.093
					c-0.932,0-1.412-0.467-1.412-1.085c0-0.736,0.656-1.142,1.472-1.142c0.316,0,0.556,0.051,0.664,0.096l-0.128,0.384
					c-0.12-0.042-0.292-0.08-0.512-0.08c-0.48,0-0.856,0.233-0.856,0.717c0,0.432,0.32,0.704,0.86,0.704
					c0.188,0,0.388-0.029,0.512-0.07L47.285,14.253z"/>
				<path i:knockout="Off" fill="#888A85" d="M48.301,12.154v0.832h1.004v-0.832h0.608v2.157h-0.608v-0.899h-1.004v0.899h-0.608
					v-2.157H48.301z"/>
				<path i:knockout="Off" fill="#888A85" d="M50.445,12.186c0.196-0.029,0.484-0.048,0.812-0.048c0.4,0,0.68,0.048,0.872,0.173
					c0.164,0.103,0.252,0.253,0.252,0.451c0,0.272-0.244,0.461-0.476,0.528v0.01c0.188,0.061,0.292,0.202,0.36,0.4
					c0.084,0.247,0.164,0.528,0.216,0.611h-0.624c-0.04-0.061-0.108-0.237-0.184-0.502c-0.076-0.272-0.192-0.342-0.444-0.346h-0.18
					v0.848h-0.604V12.186z M51.049,13.11h0.24c0.304,0,0.484-0.122,0.484-0.31c0-0.195-0.168-0.298-0.448-0.298
					c-0.148,0-0.232,0.006-0.276,0.016V13.11z"/>
				<path i:knockout="Off" fill="#888A85" d="M53.945,14.346c-0.796,0-1.268-0.483-1.268-1.098c0-0.646,0.52-1.129,1.312-1.129
					c0.828,0,1.28,0.496,1.28,1.091c0,0.71-0.532,1.136-1.32,1.136H53.945z M53.973,13.958c0.412,0,0.648-0.311,0.648-0.733
					c0-0.387-0.228-0.72-0.648-0.72s-0.656,0.326-0.656,0.729c0,0.406,0.244,0.723,0.652,0.723H53.973z"/>
				<path i:knockout="Off" fill="#888A85" d="M57.949,13.485c-0.012-0.259-0.024-0.569-0.024-0.886h-0.008
					c-0.088,0.275-0.2,0.583-0.304,0.835l-0.328,0.842h-0.476l-0.288-0.832c-0.088-0.256-0.176-0.56-0.244-0.845h-0.008
					c-0.012,0.291-0.028,0.624-0.044,0.893l-0.052,0.819h-0.564l0.172-2.157h0.812l0.264,0.723c0.088,0.247,0.168,0.515,0.228,0.768
					h0.016c0.072-0.25,0.164-0.531,0.256-0.774l0.284-0.717h0.8l0.144,2.157h-0.592L57.949,13.485z"/>
				<path i:knockout="Off" fill="#888A85" d="M60.657,13.398h-0.992v0.512h1.108v0.4h-1.716v-2.157h1.66v0.4h-1.052v0.448h0.992
					V13.398z"/>
				<path i:knockout="Off" fill="#888A85" d="M62.001,12.154h1.644v0.4h-1.036v0.493h0.968v0.397h-0.968v0.867h-0.608V12.154z"/>
				<path i:knockout="Off" fill="#888A85" d="M64.785,12.663h-0.008l-0.496,0.189l-0.1-0.365l0.692-0.256h0.5v2.08h-0.588V12.663z"
					/>
				<path i:knockout="Off" fill="#888A85" d="M66.233,14.311v-0.294l0.332-0.24c0.572-0.41,0.848-0.644,0.852-0.887
					c0-0.169-0.124-0.304-0.424-0.304c-0.224,0-0.42,0.089-0.556,0.169l-0.172-0.346c0.192-0.118,0.5-0.214,0.848-0.214
					c0.592,0,0.912,0.275,0.912,0.653c0,0.349-0.312,0.627-0.692,0.896l-0.24,0.16v0.006h0.984v0.4H66.233z"/>
				<path i:knockout="Off" fill="#888A85" d="M69.385,14.346c-0.672,0-0.968-0.483-0.972-1.072c0-0.605,0.316-1.079,0.988-1.079
					c0.692,0,0.968,0.496,0.968,1.065c0,0.64-0.324,1.085-0.98,1.085H69.385z M69.393,13.978c0.236,0,0.364-0.237,0.364-0.71
					c0-0.46-0.124-0.704-0.368-0.704c-0.228,0-0.372,0.233-0.372,0.704c-0.004,0.48,0.14,0.71,0.372,0.71H69.393z"/>
				<path i:knockout="Off" fill="#888A85" d="M71.605,14.346c-0.672,0-0.968-0.483-0.972-1.072c0-0.605,0.316-1.079,0.988-1.079
					c0.692,0,0.968,0.496,0.968,1.065c0,0.64-0.324,1.085-0.98,1.085H71.605z M71.613,13.978c0.236,0,0.364-0.237,0.364-0.71
					c0-0.46-0.124-0.704-0.368-0.704c-0.228,0-0.372,0.233-0.372,0.704c-0.004,0.48,0.14,0.71,0.372,0.71H71.613z"/>
			</g>
			<g i:knockout="Off">
				<path i:knockout="Off" fill="#888A85" d="M103.027,14.346c-0.796,0-1.268-0.483-1.268-1.098c0-0.646,0.52-1.129,1.312-1.129
					c0.827,0,1.279,0.496,1.279,1.091c0,0.71-0.531,1.136-1.32,1.136H103.027z M103.056,13.958c0.412,0,0.647-0.311,0.647-0.733
					c0-0.387-0.228-0.72-0.647-0.72s-0.656,0.326-0.656,0.729c0,0.406,0.244,0.723,0.652,0.723H103.056z"/>
				<path i:knockout="Off" fill="#888A85" d="M106.009,14.311l-0.244-0.391c-0.101-0.15-0.164-0.262-0.239-0.387h-0.009
					c-0.056,0.125-0.124,0.237-0.212,0.387l-0.221,0.391h-0.695l0.779-1.091l-0.752-1.065h0.701l0.235,0.394
					c0.08,0.131,0.14,0.237,0.204,0.358h0.008c0.064-0.138,0.116-0.234,0.184-0.358l0.229-0.394h0.696l-0.761,1.053l0.801,1.104
					H106.009z"/>
				<path i:knockout="Off" fill="#888A85" d="M107.713,14.311v-0.883l-0.853-1.273h0.7l0.271,0.518
					c0.084,0.157,0.145,0.272,0.208,0.413h0.009c0.06-0.134,0.123-0.259,0.203-0.413l0.272-0.518h0.684l-0.888,1.257v0.899H107.713z
					"/>
				<path i:knockout="Off" fill="#888A85" d="M111.285,14.253c-0.108,0.042-0.364,0.093-0.688,0.093
					c-0.932,0-1.411-0.467-1.411-1.085c0-0.736,0.655-1.142,1.471-1.142c0.316,0,0.557,0.051,0.664,0.096l-0.127,0.384
					c-0.121-0.042-0.293-0.08-0.513-0.08c-0.479,0-0.856,0.233-0.856,0.717c0,0.432,0.32,0.704,0.861,0.704
					c0.188,0,0.387-0.029,0.512-0.07L111.285,14.253z"/>
				<path i:knockout="Off" fill="#888A85" d="M112.301,12.154v0.832h1.004v-0.832h0.607v2.157h-0.607v-0.899h-1.004v0.899h-0.607
					v-2.157H112.301z"/>
				<path i:knockout="Off" fill="#888A85" d="M114.445,12.186c0.195-0.029,0.483-0.048,0.812-0.048c0.399,0,0.68,0.048,0.872,0.173
					c0.164,0.103,0.252,0.253,0.252,0.451c0,0.272-0.244,0.461-0.477,0.528v0.01c0.188,0.061,0.293,0.202,0.36,0.4
					c0.084,0.247,0.164,0.528,0.216,0.611h-0.624c-0.04-0.061-0.108-0.237-0.184-0.502c-0.076-0.272-0.192-0.342-0.444-0.346h-0.18
					v0.848h-0.604V12.186z M115.049,13.11h0.24c0.304,0,0.483-0.122,0.483-0.31c0-0.195-0.168-0.298-0.448-0.298
					c-0.147,0-0.231,0.006-0.275,0.016V13.11z"/>
				<path i:knockout="Off" fill="#888A85" d="M117.945,14.346c-0.797,0-1.268-0.483-1.268-1.098c0-0.646,0.52-1.129,1.312-1.129
					c0.827,0,1.28,0.496,1.28,1.091c0,0.71-0.532,1.136-1.32,1.136H117.945z M117.973,13.958c0.412,0,0.648-0.311,0.648-0.733
					c0-0.387-0.229-0.72-0.648-0.72s-0.656,0.326-0.656,0.729c0,0.406,0.244,0.723,0.652,0.723H117.973z"/>
				<path i:knockout="Off" fill="#888A85" d="M121.949,13.485c-0.012-0.259-0.023-0.569-0.023-0.886h-0.009
					c-0.088,0.275-0.2,0.583-0.304,0.835l-0.328,0.842h-0.477l-0.287-0.832c-0.088-0.256-0.176-0.56-0.244-0.845h-0.008
					c-0.012,0.291-0.028,0.624-0.045,0.893l-0.051,0.819h-0.564l0.172-2.157h0.812l0.264,0.723c0.088,0.247,0.168,0.515,0.229,0.768
					h0.016c0.072-0.25,0.164-0.531,0.256-0.774l0.283-0.717h0.801l0.145,2.157h-0.593L121.949,13.485z"/>
				<path i:knockout="Off" fill="#888A85" d="M124.657,13.398h-0.992v0.512h1.108v0.4h-1.717v-2.157h1.66v0.4h-1.052v0.448h0.992
					V13.398z"/>
				<path i:knockout="Off" fill="#888A85" d="M126.001,12.154h1.644v0.4h-1.035v0.493h0.967v0.397h-0.967v0.867h-0.608V12.154z"/>
				<path i:knockout="Off" fill="#888A85" d="M128.785,12.663h-0.008l-0.496,0.189l-0.101-0.365l0.692-0.256h0.5v2.08h-0.588V12.663
					z"/>
				<path i:knockout="Off" fill="#888A85" d="M130.232,14.311v-0.294l0.332-0.24c0.572-0.41,0.849-0.644,0.853-0.887
					c0-0.169-0.124-0.304-0.424-0.304c-0.224,0-0.42,0.089-0.556,0.169l-0.172-0.346c0.191-0.118,0.5-0.214,0.848-0.214
					c0.592,0,0.912,0.275,0.912,0.653c0,0.349-0.312,0.627-0.692,0.896l-0.24,0.16v0.006h0.984v0.4H130.232z"/>
				<path i:knockout="Off" fill="#888A85" d="M133.385,14.346c-0.672,0-0.968-0.483-0.972-1.072c0-0.605,0.315-1.079,0.988-1.079
					c0.692,0,0.968,0.496,0.968,1.065c0,0.64-0.324,1.085-0.98,1.085H133.385z M133.393,13.978c0.236,0,0.365-0.237,0.365-0.71
					c0-0.46-0.125-0.704-0.369-0.704c-0.228,0-0.371,0.233-0.371,0.704c-0.004,0.48,0.14,0.71,0.371,0.71H133.393z"/>
				<path i:knockout="Off" fill="#888A85" d="M135.605,14.346c-0.672,0-0.969-0.483-0.973-1.072c0-0.605,0.316-1.079,0.988-1.079
					c0.691,0,0.968,0.496,0.968,1.065c0,0.64-0.323,1.085-0.979,1.085H135.605z M135.613,13.978c0.236,0,0.363-0.237,0.363-0.71
					c0-0.46-0.123-0.704-0.367-0.704c-0.229,0-0.373,0.233-0.373,0.704c-0.004,0.48,0.141,0.71,0.373,0.71H135.613z"/>
			</g>
			<g>
				<path i:knockout="Off" opacity="0.03" d="M1.5,118.25c-0.828,0-1.5,0.671-1.5,1.5v108c0,0.829,0.672,1.5,1.5,1.5h186
					c0.829,0,1.5-0.671,1.5-1.5v-108c0-0.829-0.671-1.5-1.5-1.5H1.5z M9,132.342v-6c0-0.826,0.673-1.5,1.5-1.5h3
					c0.827,0,1.5,0.674,1.5,1.5v6c0,0.826-0.673,1.5-1.5,1.5h-3C9.673,133.842,9,133.168,9,132.342z M24,132.342v-6
					c0-0.826,0.673-1.5,1.5-1.5h3c0.827,0,1.5,0.674,1.5,1.5v6c0,0.826-0.673,1.5-1.5,1.5h-3C24.673,133.842,24,133.168,24,132.342z
					 M39,132.342v-6c0-0.826,0.673-1.5,1.5-1.5h3c0.827,0,1.5,0.674,1.5,1.5v6c0,0.826-0.673,1.5-1.5,1.5h-3
					C39.673,133.842,39,133.168,39,132.342z M54,132.342v-6c0-0.826,0.673-1.5,1.5-1.5h3c0.827,0,1.5,0.674,1.5,1.5v6
					c0,0.826-0.673,1.5-1.5,1.5h-3C54.673,133.842,54,133.168,54,132.342z M69,132.342v-6c0-0.826,0.673-1.5,1.5-1.5h3
					c0.827,0,1.5,0.674,1.5,1.5v6c0,0.826-0.673,1.5-1.5,1.5h-3C69.673,133.842,69,133.168,69,132.342z M84,132.342v-6
					c0-0.826,0.673-1.5,1.5-1.5h3c0.827,0,1.5,0.674,1.5,1.5v6c0,0.826-0.673,1.5-1.5,1.5h-3C84.673,133.842,84,133.168,84,132.342z
					 M99,132.342v-6c0-0.826,0.672-1.5,1.5-1.5h3c0.828,0,1.5,0.674,1.5,1.5v6c0,0.826-0.672,1.5-1.5,1.5h-3
					C99.672,133.842,99,133.168,99,132.342z M114,132.342v-6c0-0.826,0.672-1.5,1.5-1.5h3c0.828,0,1.5,0.674,1.5,1.5v6
					c0,0.826-0.672,1.5-1.5,1.5h-3C114.672,133.842,114,133.168,114,132.342z M129,132.342v-6c0-0.826,0.672-1.5,1.5-1.5h3
					c0.828,0,1.5,0.674,1.5,1.5v6c0,0.826-0.672,1.5-1.5,1.5h-3C129.672,133.842,129,133.168,129,132.342z M144,132.342v-6
					c0-0.826,0.672-1.5,1.5-1.5h3c0.828,0,1.5,0.674,1.5,1.5v6c0,0.826-0.672,1.5-1.5,1.5h-3
					C144.672,133.842,144,133.168,144,132.342z M159,132.342v-6c0-0.826,0.672-1.5,1.5-1.5h3c0.828,0,1.5,0.674,1.5,1.5v6
					c0,0.826-0.672,1.5-1.5,1.5h-3C159.672,133.842,159,133.168,159,132.342z M174,132.342v-6c0-0.826,0.672-1.5,1.5-1.5h3
					c0.828,0,1.5,0.674,1.5,1.5v6c0,0.826-0.672,1.5-1.5,1.5h-3C174.672,133.842,174,133.168,174,132.342z M9,220.842v-6
					c0-0.828,0.673-1.5,1.5-1.5h3c0.827,0,1.5,0.672,1.5,1.5v6c0,0.828-0.673,1.5-1.5,1.5h-3C9.673,222.342,9,221.67,9,220.842z
					 M24,220.842v-6c0-0.828,0.673-1.5,1.5-1.5h3c0.827,0,1.5,0.672,1.5,1.5v6c0,0.828-0.673,1.5-1.5,1.5h-3
					C24.673,222.342,24,221.67,24,220.842z M39,220.842v-6c0-0.828,0.673-1.5,1.5-1.5h3c0.827,0,1.5,0.672,1.5,1.5v6
					c0,0.828-0.673,1.5-1.5,1.5h-3C39.673,222.342,39,221.67,39,220.842z M54,220.842v-6c0-0.828,0.673-1.5,1.5-1.5h3
					c0.827,0,1.5,0.672,1.5,1.5v6c0,0.828-0.673,1.5-1.5,1.5h-3C54.673,222.342,54,221.67,54,220.842z M69,220.842v-6
					c0-0.828,0.673-1.5,1.5-1.5h3c0.827,0,1.5,0.672,1.5,1.5v6c0,0.828-0.673,1.5-1.5,1.5h-3C69.673,222.342,69,221.67,69,220.842z
					 M84,220.842v-6c0-0.828,0.673-1.5,1.5-1.5h3c0.827,0,1.5,0.672,1.5,1.5v6c0,0.828-0.673,1.5-1.5,1.5h-3
					C84.673,222.342,84,221.67,84,220.842z M99,220.842v-6c0-0.828,0.672-1.5,1.5-1.5h3c0.828,0,1.5,0.672,1.5,1.5v6
					c0,0.828-0.672,1.5-1.5,1.5h-3C99.672,222.342,99,221.67,99,220.842z M114,220.842v-6c0-0.828,0.672-1.5,1.5-1.5h3
					c0.828,0,1.5,0.672,1.5,1.5v6c0,0.828-0.672,1.5-1.5,1.5h-3C114.672,222.342,114,221.67,114,220.842z M129,220.842v-6
					c0-0.828,0.672-1.5,1.5-1.5h3c0.828,0,1.5,0.672,1.5,1.5v6c0,0.828-0.672,1.5-1.5,1.5h-3
					C129.672,222.342,129,221.67,129,220.842z M144,220.842v-6c0-0.828,0.672-1.5,1.5-1.5h3c0.828,0,1.5,0.672,1.5,1.5v6
					c0,0.828-0.672,1.5-1.5,1.5h-3C144.672,222.342,144,221.67,144,220.842z M159,220.842v-6c0-0.828,0.672-1.5,1.5-1.5h3
					c0.828,0,1.5,0.672,1.5,1.5v6c0,0.828-0.672,1.5-1.5,1.5h-3C159.672,222.342,159,221.67,159,220.842z M174,220.842v-6
					c0-0.828,0.672-1.5,1.5-1.5h3c0.828,0,1.5,0.672,1.5,1.5v6c0,0.828-0.672,1.5-1.5,1.5h-3
					C174.672,222.342,174,221.67,174,220.842z"/>
				<path i:knockout="Off" opacity="0.05" d="M1.5,116.75c-0.828,0-1.5,0.671-1.5,1.5v108c0,0.829,0.672,1.5,1.5,1.5h186
					c0.829,0,1.5-0.671,1.5-1.5v-108c0-0.829-0.671-1.5-1.5-1.5H1.5z M9,130.842v-6c0-0.826,0.673-1.5,1.5-1.5h3
					c0.827,0,1.5,0.674,1.5,1.5v6c0,0.826-0.673,1.5-1.5,1.5h-3C9.673,132.342,9,131.668,9,130.842z M24,130.842v-6
					c0-0.826,0.673-1.5,1.5-1.5h3c0.827,0,1.5,0.674,1.5,1.5v6c0,0.826-0.673,1.5-1.5,1.5h-3C24.673,132.342,24,131.668,24,130.842z
					 M39,130.842v-6c0-0.826,0.673-1.5,1.5-1.5h3c0.827,0,1.5,0.674,1.5,1.5v6c0,0.826-0.673,1.5-1.5,1.5h-3
					C39.673,132.342,39,131.668,39,130.842z M54,130.842v-6c0-0.826,0.673-1.5,1.5-1.5h3c0.827,0,1.5,0.674,1.5,1.5v6
					c0,0.826-0.673,1.5-1.5,1.5h-3C54.673,132.342,54,131.668,54,130.842z M69,130.842v-6c0-0.826,0.673-1.5,1.5-1.5h3
					c0.827,0,1.5,0.674,1.5,1.5v6c0,0.826-0.673,1.5-1.5,1.5h-3C69.673,132.342,69,131.668,69,130.842z M84,130.842v-6
					c0-0.826,0.673-1.5,1.5-1.5h3c0.827,0,1.5,0.674,1.5,1.5v6c0,0.826-0.673,1.5-1.5,1.5h-3C84.673,132.342,84,131.668,84,130.842z
					 M99,130.842v-6c0-0.826,0.672-1.5,1.5-1.5h3c0.828,0,1.5,0.674,1.5,1.5v6c0,0.826-0.672,1.5-1.5,1.5h-3
					C99.672,132.342,99,131.668,99,130.842z M114,130.842v-6c0-0.826,0.672-1.5,1.5-1.5h3c0.828,0,1.5,0.674,1.5,1.5v6
					c0,0.826-0.672,1.5-1.5,1.5h-3C114.672,132.342,114,131.668,114,130.842z M129,130.842v-6c0-0.826,0.672-1.5,1.5-1.5h3
					c0.828,0,1.5,0.674,1.5,1.5v6c0,0.826-0.672,1.5-1.5,1.5h-3C129.672,132.342,129,131.668,129,130.842z M144,130.842v-6
					c0-0.826,0.672-1.5,1.5-1.5h3c0.828,0,1.5,0.674,1.5,1.5v6c0,0.826-0.672,1.5-1.5,1.5h-3
					C144.672,132.342,144,131.668,144,130.842z M159,130.842v-6c0-0.826,0.672-1.5,1.5-1.5h3c0.828,0,1.5,0.674,1.5,1.5v6
					c0,0.826-0.672,1.5-1.5,1.5h-3C159.672,132.342,159,131.668,159,130.842z M174,130.842v-6c0-0.826,0.672-1.5,1.5-1.5h3
					c0.828,0,1.5,0.674,1.5,1.5v6c0,0.826-0.672,1.5-1.5,1.5h-3C174.672,132.342,174,131.668,174,130.842z M9,219.342v-6
					c0-0.828,0.673-1.5,1.5-1.5h3c0.827,0,1.5,0.672,1.5,1.5v6c0,0.828-0.673,1.5-1.5,1.5h-3C9.673,220.842,9,220.17,9,219.342z
					 M24,219.342v-6c0-0.828,0.673-1.5,1.5-1.5h3c0.827,0,1.5,0.672,1.5,1.5v6c0,0.828-0.673,1.5-1.5,1.5h-3
					C24.673,220.842,24,220.17,24,219.342z M39,219.342v-6c0-0.828,0.673-1.5,1.5-1.5h3c0.827,0,1.5,0.672,1.5,1.5v6
					c0,0.828-0.673,1.5-1.5,1.5h-3C39.673,220.842,39,220.17,39,219.342z M54,219.342v-6c0-0.828,0.673-1.5,1.5-1.5h3
					c0.827,0,1.5,0.672,1.5,1.5v6c0,0.828-0.673,1.5-1.5,1.5h-3C54.673,220.842,54,220.17,54,219.342z M69,219.342v-6
					c0-0.828,0.673-1.5,1.5-1.5h3c0.827,0,1.5,0.672,1.5,1.5v6c0,0.828-0.673,1.5-1.5,1.5h-3C69.673,220.842,69,220.17,69,219.342z
					 M84,219.342v-6c0-0.828,0.673-1.5,1.5-1.5h3c0.827,0,1.5,0.672,1.5,1.5v6c0,0.828-0.673,1.5-1.5,1.5h-3
					C84.673,220.842,84,220.17,84,219.342z M99,219.342v-6c0-0.828,0.672-1.5,1.5-1.5h3c0.828,0,1.5,0.672,1.5,1.5v6
					c0,0.828-0.672,1.5-1.5,1.5h-3C99.672,220.842,99,220.17,99,219.342z M114,219.342v-6c0-0.828,0.672-1.5,1.5-1.5h3
					c0.828,0,1.5,0.672,1.5,1.5v6c0,0.828-0.672,1.5-1.5,1.5h-3C114.672,220.842,114,220.17,114,219.342z M129,219.342v-6
					c0-0.828,0.672-1.5,1.5-1.5h3c0.828,0,1.5,0.672,1.5,1.5v6c0,0.828-0.672,1.5-1.5,1.5h-3
					C129.672,220.842,129,220.17,129,219.342z M144,219.342v-6c0-0.828,0.672-1.5,1.5-1.5h3c0.828,0,1.5,0.672,1.5,1.5v6
					c0,0.828-0.672,1.5-1.5,1.5h-3C144.672,220.842,144,220.17,144,219.342z M159,219.342v-6c0-0.828,0.672-1.5,1.5-1.5h3
					c0.828,0,1.5,0.672,1.5,1.5v6c0,0.828-0.672,1.5-1.5,1.5h-3C159.672,220.842,159,220.17,159,219.342z M174,219.342v-6
					c0-0.828,0.672-1.5,1.5-1.5h3c0.828,0,1.5,0.672,1.5,1.5v6c0,0.828-0.672,1.5-1.5,1.5h-3
					C174.672,220.842,174,220.17,174,219.342z"/>
				<path i:knockout="Off" opacity="0.09" d="M1.5,115.25c-0.828,0-1.5,0.671-1.5,1.5v108c0,0.829,0.672,1.5,1.5,1.5h186
					c0.829,0,1.5-0.671,1.5-1.5v-108c0-0.829-0.671-1.5-1.5-1.5H1.5z M9,129.342v-6c0-0.826,0.673-1.5,1.5-1.5h3
					c0.827,0,1.5,0.674,1.5,1.5v6c0,0.826-0.673,1.5-1.5,1.5h-3C9.673,130.842,9,130.168,9,129.342z M24,129.342v-6
					c0-0.826,0.673-1.5,1.5-1.5h3c0.827,0,1.5,0.674,1.5,1.5v6c0,0.826-0.673,1.5-1.5,1.5h-3C24.673,130.842,24,130.168,24,129.342z
					 M39,129.342v-6c0-0.826,0.673-1.5,1.5-1.5h3c0.827,0,1.5,0.674,1.5,1.5v6c0,0.826-0.673,1.5-1.5,1.5h-3
					C39.673,130.842,39,130.168,39,129.342z M54,129.342v-6c0-0.826,0.673-1.5,1.5-1.5h3c0.827,0,1.5,0.674,1.5,1.5v6
					c0,0.826-0.673,1.5-1.5,1.5h-3C54.673,130.842,54,130.168,54,129.342z M69,129.342v-6c0-0.826,0.673-1.5,1.5-1.5h3
					c0.827,0,1.5,0.674,1.5,1.5v6c0,0.826-0.673,1.5-1.5,1.5h-3C69.673,130.842,69,130.168,69,129.342z M84,129.342v-6
					c0-0.826,0.673-1.5,1.5-1.5h3c0.827,0,1.5,0.674,1.5,1.5v6c0,0.826-0.673,1.5-1.5,1.5h-3C84.673,130.842,84,130.168,84,129.342z
					 M99,129.342v-6c0-0.826,0.672-1.5,1.5-1.5h3c0.828,0,1.5,0.674,1.5,1.5v6c0,0.826-0.672,1.5-1.5,1.5h-3
					C99.672,130.842,99,130.168,99,129.342z M114,129.342v-6c0-0.826,0.672-1.5,1.5-1.5h3c0.828,0,1.5,0.674,1.5,1.5v6
					c0,0.826-0.672,1.5-1.5,1.5h-3C114.672,130.842,114,130.168,114,129.342z M129,129.342v-6c0-0.826,0.672-1.5,1.5-1.5h3
					c0.828,0,1.5,0.674,1.5,1.5v6c0,0.826-0.672,1.5-1.5,1.5h-3C129.672,130.842,129,130.168,129,129.342z M144,129.342v-6
					c0-0.826,0.672-1.5,1.5-1.5h3c0.828,0,1.5,0.674,1.5,1.5v6c0,0.826-0.672,1.5-1.5,1.5h-3
					C144.672,130.842,144,130.168,144,129.342z M159,129.342v-6c0-0.826,0.672-1.5,1.5-1.5h3c0.828,0,1.5,0.674,1.5,1.5v6
					c0,0.826-0.672,1.5-1.5,1.5h-3C159.672,130.842,159,130.168,159,129.342z M174,129.342v-6c0-0.826,0.672-1.5,1.5-1.5h3
					c0.828,0,1.5,0.674,1.5,1.5v6c0,0.826-0.672,1.5-1.5,1.5h-3C174.672,130.842,174,130.168,174,129.342z M9,217.842v-6
					c0-0.828,0.673-1.5,1.5-1.5h3c0.827,0,1.5,0.672,1.5,1.5v6c0,0.828-0.673,1.5-1.5,1.5h-3C9.673,219.342,9,218.67,9,217.842z
					 M24,217.842v-6c0-0.828,0.673-1.5,1.5-1.5h3c0.827,0,1.5,0.672,1.5,1.5v6c0,0.828-0.673,1.5-1.5,1.5h-3
					C24.673,219.342,24,218.67,24,217.842z M39,217.842v-6c0-0.828,0.673-1.5,1.5-1.5h3c0.827,0,1.5,0.672,1.5,1.5v6
					c0,0.828-0.673,1.5-1.5,1.5h-3C39.673,219.342,39,218.67,39,217.842z M54,217.842v-6c0-0.828,0.673-1.5,1.5-1.5h3
					c0.827,0,1.5,0.672,1.5,1.5v6c0,0.828-0.673,1.5-1.5,1.5h-3C54.673,219.342,54,218.67,54,217.842z M69,217.842v-6
					c0-0.828,0.673-1.5,1.5-1.5h3c0.827,0,1.5,0.672,1.5,1.5v6c0,0.828-0.673,1.5-1.5,1.5h-3C69.673,219.342,69,218.67,69,217.842z
					 M84,217.842v-6c0-0.828,0.673-1.5,1.5-1.5h3c0.827,0,1.5,0.672,1.5,1.5v6c0,0.828-0.673,1.5-1.5,1.5h-3
					C84.673,219.342,84,218.67,84,217.842z M99,217.842v-6c0-0.828,0.672-1.5,1.5-1.5h3c0.828,0,1.5,0.672,1.5,1.5v6
					c0,0.828-0.672,1.5-1.5,1.5h-3C99.672,219.342,99,218.67,99,217.842z M114,217.842v-6c0-0.828,0.672-1.5,1.5-1.5h3
					c0.828,0,1.5,0.672,1.5,1.5v6c0,0.828-0.672,1.5-1.5,1.5h-3C114.672,219.342,114,218.67,114,217.842z M129,217.842v-6
					c0-0.828,0.672-1.5,1.5-1.5h3c0.828,0,1.5,0.672,1.5,1.5v6c0,0.828-0.672,1.5-1.5,1.5h-3
					C129.672,219.342,129,218.67,129,217.842z M144,217.842v-6c0-0.828,0.672-1.5,1.5-1.5h3c0.828,0,1.5,0.672,1.5,1.5v6
					c0,0.828-0.672,1.5-1.5,1.5h-3C144.672,219.342,144,218.67,144,217.842z M159,217.842v-6c0-0.828,0.672-1.5,1.5-1.5h3
					c0.828,0,1.5,0.672,1.5,1.5v6c0,0.828-0.672,1.5-1.5,1.5h-3C159.672,219.342,159,218.67,159,217.842z M174,217.842v-6
					c0-0.828,0.672-1.5,1.5-1.5h3c0.828,0,1.5,0.672,1.5,1.5v6c0,0.828-0.672,1.5-1.5,1.5h-3
					C174.672,219.342,174,218.67,174,217.842z"/>
				<path i:knockout="Off" opacity="0.13" d="M1.5,113.75c-0.828,0-1.5,0.671-1.5,1.5v108c0,0.829,0.672,1.5,1.5,1.5h186
					c0.829,0,1.5-0.671,1.5-1.5v-108c0-0.829-0.671-1.5-1.5-1.5H1.5z M9,127.842v-6c0-0.826,0.673-1.5,1.5-1.5h3
					c0.827,0,1.5,0.674,1.5,1.5v6c0,0.826-0.673,1.5-1.5,1.5h-3C9.673,129.342,9,128.668,9,127.842z M24,127.842v-6
					c0-0.826,0.673-1.5,1.5-1.5h3c0.827,0,1.5,0.674,1.5,1.5v6c0,0.826-0.673,1.5-1.5,1.5h-3C24.673,129.342,24,128.668,24,127.842z
					 M39,127.842v-6c0-0.826,0.673-1.5,1.5-1.5h3c0.827,0,1.5,0.674,1.5,1.5v6c0,0.826-0.673,1.5-1.5,1.5h-3
					C39.673,129.342,39,128.668,39,127.842z M54,127.842v-6c0-0.826,0.673-1.5,1.5-1.5h3c0.827,0,1.5,0.674,1.5,1.5v6
					c0,0.826-0.673,1.5-1.5,1.5h-3C54.673,129.342,54,128.668,54,127.842z M69,127.842v-6c0-0.826,0.673-1.5,1.5-1.5h3
					c0.827,0,1.5,0.674,1.5,1.5v6c0,0.826-0.673,1.5-1.5,1.5h-3C69.673,129.342,69,128.668,69,127.842z M84,127.842v-6
					c0-0.826,0.673-1.5,1.5-1.5h3c0.827,0,1.5,0.674,1.5,1.5v6c0,0.826-0.673,1.5-1.5,1.5h-3C84.673,129.342,84,128.668,84,127.842z
					 M99,127.842v-6c0-0.826,0.672-1.5,1.5-1.5h3c0.828,0,1.5,0.674,1.5,1.5v6c0,0.826-0.672,1.5-1.5,1.5h-3
					C99.672,129.342,99,128.668,99,127.842z M114,127.842v-6c0-0.826,0.672-1.5,1.5-1.5h3c0.828,0,1.5,0.674,1.5,1.5v6
					c0,0.826-0.672,1.5-1.5,1.5h-3C114.672,129.342,114,128.668,114,127.842z M129,127.842v-6c0-0.826,0.672-1.5,1.5-1.5h3
					c0.828,0,1.5,0.674,1.5,1.5v6c0,0.826-0.672,1.5-1.5,1.5h-3C129.672,129.342,129,128.668,129,127.842z M144,127.842v-6
					c0-0.826,0.672-1.5,1.5-1.5h3c0.828,0,1.5,0.674,1.5,1.5v6c0,0.826-0.672,1.5-1.5,1.5h-3
					C144.672,129.342,144,128.668,144,127.842z M159,127.842v-6c0-0.826,0.672-1.5,1.5-1.5h3c0.828,0,1.5,0.674,1.5,1.5v6
					c0,0.826-0.672,1.5-1.5,1.5h-3C159.672,129.342,159,128.668,159,127.842z M174,127.842v-6c0-0.826,0.672-1.5,1.5-1.5h3
					c0.828,0,1.5,0.674,1.5,1.5v6c0,0.826-0.672,1.5-1.5,1.5h-3C174.672,129.342,174,128.668,174,127.842z M9,216.342v-6
					c0-0.828,0.673-1.5,1.5-1.5h3c0.827,0,1.5,0.672,1.5,1.5v6c0,0.828-0.673,1.5-1.5,1.5h-3C9.673,217.842,9,217.17,9,216.342z
					 M24,216.342v-6c0-0.828,0.673-1.5,1.5-1.5h3c0.827,0,1.5,0.672,1.5,1.5v6c0,0.828-0.673,1.5-1.5,1.5h-3
					C24.673,217.842,24,217.17,24,216.342z M39,216.342v-6c0-0.828,0.673-1.5,1.5-1.5h3c0.827,0,1.5,0.672,1.5,1.5v6
					c0,0.828-0.673,1.5-1.5,1.5h-3C39.673,217.842,39,217.17,39,216.342z M54,216.342v-6c0-0.828,0.673-1.5,1.5-1.5h3
					c0.827,0,1.5,0.672,1.5,1.5v6c0,0.828-0.673,1.5-1.5,1.5h-3C54.673,217.842,54,217.17,54,216.342z M69,216.342v-6
					c0-0.828,0.673-1.5,1.5-1.5h3c0.827,0,1.5,0.672,1.5,1.5v6c0,0.828-0.673,1.5-1.5,1.5h-3C69.673,217.842,69,217.17,69,216.342z
					 M84,216.342v-6c0-0.828,0.673-1.5,1.5-1.5h3c0.827,0,1.5,0.672,1.5,1.5v6c0,0.828-0.673,1.5-1.5,1.5h-3
					C84.673,217.842,84,217.17,84,216.342z M99,216.342v-6c0-0.828,0.672-1.5,1.5-1.5h3c0.828,0,1.5,0.672,1.5,1.5v6
					c0,0.828-0.672,1.5-1.5,1.5h-3C99.672,217.842,99,217.17,99,216.342z M114,216.342v-6c0-0.828,0.672-1.5,1.5-1.5h3
					c0.828,0,1.5,0.672,1.5,1.5v6c0,0.828-0.672,1.5-1.5,1.5h-3C114.672,217.842,114,217.17,114,216.342z M129,216.342v-6
					c0-0.828,0.672-1.5,1.5-1.5h3c0.828,0,1.5,0.672,1.5,1.5v6c0,0.828-0.672,1.5-1.5,1.5h-3
					C129.672,217.842,129,217.17,129,216.342z M144,216.342v-6c0-0.828,0.672-1.5,1.5-1.5h3c0.828,0,1.5,0.672,1.5,1.5v6
					c0,0.828-0.672,1.5-1.5,1.5h-3C144.672,217.842,144,217.17,144,216.342z M159,216.342v-6c0-0.828,0.672-1.5,1.5-1.5h3
					c0.828,0,1.5,0.672,1.5,1.5v6c0,0.828-0.672,1.5-1.5,1.5h-3C159.672,217.842,159,217.17,159,216.342z M174,216.342v-6
					c0-0.828,0.672-1.5,1.5-1.5h3c0.828,0,1.5,0.672,1.5,1.5v6c0,0.828-0.672,1.5-1.5,1.5h-3
					C174.672,217.842,174,217.17,174,216.342z"/>
				<path i:knockout="Off" d="M1.5,113.75v108h186v-108H1.5z M16.5,214.842c0,1.656-1.344,3-3,3h-3c-1.656,0-3-1.344-3-3v-6
					c0-1.656,1.344-3,3-3h3c1.656,0,3,1.344,3,3V214.842z M16.5,126.342c0,1.656-1.344,3-3,3h-3c-1.656,0-3-1.344-3-3v-6
					c0-1.656,1.344-3,3-3h3c1.656,0,3,1.344,3,3V126.342z M31.5,214.842c0,1.656-1.344,3-3,3h-3c-1.656,0-3-1.344-3-3v-6
					c0-1.656,1.344-3,3-3h3c1.656,0,3,1.344,3,3V214.842z M31.5,126.342c0,1.656-1.344,3-3,3h-3c-1.656,0-3-1.344-3-3v-6
					c0-1.656,1.344-3,3-3h3c1.656,0,3,1.344,3,3V126.342z M46.5,214.842c0,1.656-1.344,3-3,3h-3c-1.656,0-3-1.344-3-3v-6
					c0-1.656,1.344-3,3-3h3c1.656,0,3,1.344,3,3V214.842z M46.5,126.342c0,1.656-1.344,3-3,3h-3c-1.656,0-3-1.344-3-3v-6
					c0-1.656,1.344-3,3-3h3c1.656,0,3,1.344,3,3V126.342z M61.5,214.842c0,1.656-1.344,3-3,3h-3c-1.656,0-3-1.344-3-3v-6
					c0-1.656,1.344-3,3-3h3c1.656,0,3,1.344,3,3V214.842z M61.5,126.342c0,1.656-1.344,3-3,3h-3c-1.656,0-3-1.344-3-3v-6
					c0-1.656,1.344-3,3-3h3c1.656,0,3,1.344,3,3V126.342z M76.5,214.842c0,1.656-1.344,3-3,3h-3c-1.656,0-3-1.344-3-3v-6
					c0-1.656,1.344-3,3-3h3c1.656,0,3,1.344,3,3V214.842z M76.5,126.342c0,1.656-1.344,3-3,3h-3c-1.656,0-3-1.344-3-3v-6
					c0-1.656,1.344-3,3-3h3c1.656,0,3,1.344,3,3V126.342z M91.5,214.842c0,1.656-1.344,3-3,3h-3c-1.656,0-3-1.344-3-3v-6
					c0-1.656,1.344-3,3-3h3c1.656,0,3,1.344,3,3V214.842z M91.5,126.342c0,1.656-1.344,3-3,3h-3c-1.656,0-3-1.344-3-3v-6
					c0-1.656,1.344-3,3-3h3c1.656,0,3,1.344,3,3V126.342z M106.5,214.842c0,1.656-1.344,3-3,3h-3c-1.656,0-3-1.344-3-3v-6
					c0-1.656,1.344-3,3-3h3c1.656,0,3,1.344,3,3V214.842z M106.5,126.342c0,1.656-1.344,3-3,3h-3c-1.656,0-3-1.344-3-3v-6
					c0-1.656,1.344-3,3-3h3c1.656,0,3,1.344,3,3V126.342z M121.5,214.842c0,1.656-1.344,3-3,3h-3c-1.656,0-3-1.344-3-3v-6
					c0-1.656,1.344-3,3-3h3c1.656,0,3,1.344,3,3V214.842z M121.5,126.342c0,1.656-1.344,3-3,3h-3c-1.656,0-3-1.344-3-3v-6
					c0-1.656,1.344-3,3-3h3c1.656,0,3,1.344,3,3V126.342z M136.5,214.842c0,1.656-1.344,3-3,3h-3c-1.656,0-3-1.344-3-3v-6
					c0-1.656,1.344-3,3-3h3c1.656,0,3,1.344,3,3V214.842z M136.5,126.342c0,1.656-1.344,3-3,3h-3c-1.656,0-3-1.344-3-3v-6
					c0-1.656,1.344-3,3-3h3c1.656,0,3,1.344,3,3V126.342z M151.5,214.842c0,1.656-1.344,3-3,3h-3c-1.656,0-3-1.344-3-3v-6
					c0-1.656,1.344-3,3-3h3c1.656,0,3,1.344,3,3V214.842z M151.5,126.342c0,1.656-1.344,3-3,3h-3c-1.656,0-3-1.344-3-3v-6
					c0-1.656,1.344-3,3-3h3c1.656,0,3,1.344,3,3V126.342z M166.5,214.842c0,1.656-1.344,3-3,3h-3c-1.656,0-3-1.344-3-3v-6
					c0-1.656,1.344-3,3-3h3c1.656,0,3,1.344,3,3V214.842z M166.5,126.342c0,1.656-1.344,3-3,3h-3c-1.656,0-3-1.344-3-3v-6
					c0-1.656,1.344-3,3-3h3c1.656,0,3,1.344,3,3V126.342z M181.5,214.842c0,1.656-1.344,3-3,3h-3c-1.656,0-3-1.344-3-3v-6
					c0-1.656,1.344-3,3-3h3c1.656,0,3,1.344,3,3V214.842z M181.5,126.342c0,1.656-1.344,3-3,3h-3c-1.656,0-3-1.344-3-3v-6
					c0-1.656,1.344-3,3-3h3c1.656,0,3,1.344,3,3V126.342z"/>
				<rect x="3" y="137.75" i:knockout="Off" fill="#555555" width="90" height="60"/> 
				<rect x="96" y="137.75" i:knockout="Off" fill="#555555" width="90" height="60"/> 
				<g i:knockout="Off">
					<path i:knockout="Off" fill="#888A85" d="M11.292,135.269c-1.194,0-1.902-0.726-1.902-1.646c0-0.97,0.78-1.693,1.968-1.693
						c1.242,0,1.92,0.744,1.92,1.636c0,1.065-0.798,1.704-1.979,1.704H11.292z M11.334,134.688c0.617,0,0.972-0.466,0.972-1.101
						c0-0.581-0.343-1.079-0.972-1.079c-0.631,0-0.984,0.489-0.984,1.095c0,0.609,0.365,1.085,0.979,1.085H11.334z"/>
					<path i:knockout="Off" fill="#888A85" d="M15.764,135.216l-0.367-0.586c-0.149-0.226-0.246-0.393-0.359-0.58h-0.012
						c-0.085,0.188-0.187,0.354-0.318,0.58l-0.33,0.586h-1.044l1.17-1.638l-1.128-1.597h1.05l0.354,0.589
						c0.119,0.197,0.21,0.355,0.306,0.539h0.012c0.097-0.208,0.175-0.352,0.276-0.539l0.342-0.589h1.045l-1.141,1.579l1.2,1.655
						H15.764z"/>
					<path i:knockout="Off" fill="#888A85" d="M18.318,135.216v-1.324l-1.277-1.91h1.049l0.408,0.776
						c0.126,0.236,0.216,0.408,0.312,0.619h0.012c0.09-0.2,0.187-0.388,0.306-0.619l0.409-0.776h1.025l-1.332,1.886v1.349H18.318z"
						/>
					<path i:knockout="Off" fill="#888A85" d="M23.677,135.129c-0.161,0.063-0.546,0.14-1.032,0.14c-1.396,0-2.117-0.7-2.117-1.628
						c0-1.103,0.984-1.712,2.208-1.712c0.474,0,0.834,0.076,0.996,0.144l-0.192,0.576c-0.18-0.063-0.438-0.121-0.768-0.121
						c-0.721,0-1.284,0.351-1.284,1.076c0,0.648,0.48,1.056,1.29,1.056c0.282,0,0.582-0.044,0.768-0.105L23.677,135.129z"/>
					<path i:knockout="Off" fill="#888A85" d="M25.201,131.981v1.248h1.506v-1.248h0.912v3.234h-0.912v-1.349h-1.506v1.349h-0.912
						v-3.234H25.201z"/>
					<path i:knockout="Off" fill="#888A85" d="M28.417,132.028c0.294-0.044,0.726-0.071,1.218-0.071c0.601,0,1.02,0.071,1.308,0.259
						c0.246,0.153,0.379,0.38,0.379,0.677c0,0.407-0.366,0.691-0.714,0.791v0.015c0.281,0.093,0.438,0.304,0.539,0.601
						c0.127,0.369,0.246,0.793,0.324,0.917h-0.936c-0.061-0.091-0.162-0.354-0.275-0.753c-0.115-0.408-0.289-0.514-0.667-0.519
						h-0.27v1.271h-0.906V132.028z M29.323,133.416h0.359c0.456,0,0.726-0.184,0.726-0.465c0-0.293-0.252-0.448-0.671-0.448
						c-0.222,0-0.349,0.011-0.414,0.024V133.416z"/>
					<path i:knockout="Off" fill="#888A85" d="M33.668,135.269c-1.194,0-1.902-0.726-1.902-1.646c0-0.97,0.78-1.693,1.969-1.693
						c1.241,0,1.919,0.744,1.919,1.636c0,1.065-0.798,1.704-1.979,1.704H33.668z M33.71,134.688c0.618,0,0.972-0.466,0.972-1.101
						c0-0.581-0.342-1.079-0.972-1.079s-0.984,0.489-0.984,1.095c0,0.609,0.366,1.085,0.979,1.085H33.71z"/>
					<path i:knockout="Off" fill="#888A85" d="M39.674,133.977c-0.019-0.389-0.036-0.853-0.036-1.328h-0.013
						c-0.131,0.411-0.299,0.874-0.455,1.252l-0.492,1.263h-0.714l-0.432-1.248c-0.133-0.384-0.265-0.841-0.366-1.267h-0.013
						c-0.018,0.436-0.042,0.936-0.065,1.338l-0.078,1.229h-0.846l0.258-3.234h1.218l0.396,1.084
						c0.132,0.369,0.252,0.773,0.342,1.151h0.023c0.108-0.373,0.246-0.797,0.385-1.16l0.426-1.075h1.2l0.216,3.234H39.74
						L39.674,133.977z"/>
					<path i:knockout="Off" fill="#888A85" d="M43.736,133.848h-1.488v0.768h1.661v0.601h-2.573v-3.234h2.489v0.599h-1.577v0.673
						h1.488V133.848z"/>
					<path i:knockout="Off" fill="#888A85" d="M45.752,131.981h2.466v0.599h-1.555v0.74h1.452v0.595h-1.452v1.301h-0.911V131.981z"
						/>
					<path i:knockout="Off" fill="#888A85" d="M49.927,132.743h-0.012l-0.744,0.284l-0.149-0.548l1.038-0.384h0.749v3.12h-0.882
						V132.743z"/>
					<path i:knockout="Off" fill="#888A85" d="M52.1,135.216v-0.442l0.498-0.359c0.858-0.613,1.271-0.965,1.277-1.33
						c0-0.253-0.186-0.455-0.635-0.455c-0.337,0-0.631,0.135-0.835,0.255l-0.258-0.519c0.288-0.179,0.75-0.322,1.271-0.322
						c0.889,0,1.368,0.413,1.368,0.979c0,0.524-0.468,0.94-1.037,1.345l-0.361,0.24v0.009h1.477v0.601H52.1z"/>
					<path i:knockout="Off" fill="#888A85" d="M56.828,135.269c-1.008,0-1.453-0.726-1.459-1.608c0-0.906,0.475-1.617,1.482-1.617
						c1.038,0,1.452,0.744,1.452,1.598c0,0.96-0.485,1.628-1.47,1.628H56.828z M56.84,134.717c0.354,0,0.546-0.356,0.546-1.065
						c0-0.691-0.186-1.056-0.552-1.056c-0.342,0-0.559,0.35-0.559,1.056c-0.006,0.721,0.211,1.065,0.559,1.065H56.84z"/>
					<path i:knockout="Off" fill="#888A85" d="M60.157,135.269c-1.008,0-1.452-0.726-1.458-1.608c0-0.906,0.474-1.617,1.482-1.617
						c1.038,0,1.451,0.744,1.451,1.598c0,0.96-0.485,1.628-1.47,1.628H60.157z M60.169,134.717c0.354,0,0.547-0.356,0.547-1.065
						c0-0.691-0.187-1.056-0.553-1.056c-0.342,0-0.558,0.35-0.558,1.056c-0.006,0.721,0.21,1.065,0.558,1.065H60.169z"/>
				</g>
				<g i:knockout="Off">
					<path i:knockout="Off" fill="#888A85" d="M107.291,135.269c-1.193,0-1.901-0.726-1.901-1.646c0-0.97,0.779-1.693,1.969-1.693
						c1.241,0,1.919,0.744,1.919,1.636c0,1.065-0.797,1.704-1.98,1.704H107.291z M107.334,134.688c0.617,0,0.971-0.466,0.971-1.101
						c0-0.581-0.342-1.079-0.971-1.079c-0.631,0-0.984,0.489-0.984,1.095c0,0.609,0.365,1.085,0.979,1.085H107.334z"/>
					<path i:knockout="Off" fill="#888A85" d="M111.764,135.216l-0.367-0.586c-0.15-0.226-0.246-0.393-0.358-0.58h-0.013
						c-0.084,0.188-0.187,0.354-0.318,0.58l-0.331,0.586h-1.043l1.169-1.638l-1.128-1.597h1.052l0.354,0.589
						c0.119,0.197,0.209,0.355,0.306,0.539h0.012c0.097-0.208,0.175-0.352,0.275-0.539l0.343-0.589h1.045l-1.142,1.579l1.201,1.655
						H111.764z"/>
					<path i:knockout="Off" fill="#888A85" d="M114.319,135.216v-1.324l-1.278-1.91h1.05l0.407,0.776
						c0.126,0.236,0.217,0.408,0.312,0.619h0.013c0.089-0.2,0.185-0.388,0.305-0.619l0.409-0.776h1.025l-1.332,1.886v1.349H114.319z
						"/>
					<path i:knockout="Off" fill="#888A85" d="M119.678,135.129c-0.162,0.063-0.547,0.14-1.033,0.14c-1.396,0-2.116-0.7-2.116-1.628
						c0-1.103,0.983-1.712,2.206-1.712c0.475,0,0.835,0.076,0.996,0.144l-0.19,0.576c-0.182-0.063-0.439-0.121-0.769-0.121
						c-0.72,0-1.285,0.351-1.285,1.076c0,0.648,0.48,1.056,1.292,1.056c0.281,0,0.58-0.044,0.768-0.105L119.678,135.129z"/>
					<path i:knockout="Off" fill="#888A85" d="M121.201,131.981v1.248h1.506v-1.248h0.911v3.234h-0.911v-1.349h-1.506v1.349h-0.911
						v-3.234H121.201z"/>
					<path i:knockout="Off" fill="#888A85" d="M124.418,132.028c0.293-0.044,0.725-0.071,1.217-0.071c0.6,0,1.02,0.071,1.309,0.259
						c0.246,0.153,0.378,0.38,0.378,0.677c0,0.407-0.366,0.691-0.715,0.791v0.015c0.282,0.093,0.439,0.304,0.54,0.601
						c0.127,0.369,0.246,0.793,0.324,0.917h-0.936c-0.061-0.091-0.163-0.354-0.275-0.753c-0.115-0.408-0.289-0.514-0.667-0.519
						h-0.27v1.271h-0.905V132.028z M125.323,133.416h0.36c0.455,0,0.725-0.184,0.725-0.465c0-0.293-0.252-0.448-0.672-0.448
						c-0.221,0-0.348,0.011-0.413,0.024V133.416z"/>
					<path i:knockout="Off" fill="#888A85" d="M129.668,135.269c-1.195,0-1.901-0.726-1.901-1.646c0-0.97,0.779-1.693,1.968-1.693
						c1.24,0,1.92,0.744,1.92,1.636c0,1.065-0.799,1.704-1.98,1.704H129.668z M129.709,134.688c0.618,0,0.973-0.466,0.973-1.101
						c0-0.581-0.343-1.079-0.973-1.079s-0.984,0.489-0.984,1.095c0,0.609,0.366,1.085,0.979,1.085H129.709z"/>
					<path i:knockout="Off" fill="#888A85" d="M135.674,133.977c-0.018-0.389-0.035-0.853-0.035-1.328h-0.014
						c-0.131,0.411-0.3,0.874-0.455,1.252l-0.492,1.263h-0.715l-0.431-1.248c-0.132-0.384-0.264-0.841-0.366-1.267h-0.012
						c-0.018,0.436-0.043,0.936-0.067,1.338l-0.076,1.229h-0.847l0.258-3.234h1.219l0.396,1.084
						c0.132,0.369,0.252,0.773,0.343,1.151h0.023c0.108-0.373,0.246-0.797,0.384-1.16l0.425-1.075h1.201l0.217,3.234h-0.889
						L135.674,133.977z"/>
					<path i:knockout="Off" fill="#888A85" d="M139.736,133.848h-1.488v0.768h1.662v0.601h-2.575v-3.234h2.49v0.599h-1.577v0.673
						h1.488V133.848z"/>
					<path i:knockout="Off" fill="#888A85" d="M141.752,131.981h2.465v0.599h-1.553v0.74h1.45v0.595h-1.45v1.301h-0.912V131.981z"/>
					<path i:knockout="Off" fill="#888A85" d="M145.928,132.743h-0.012l-0.744,0.284l-0.15-0.548l1.038-0.384h0.75v3.12h-0.882
						V132.743z"/>
					<path i:knockout="Off" fill="#888A85" d="M148.099,135.216v-0.442l0.498-0.359c0.858-0.613,1.272-0.965,1.278-1.33
						c0-0.253-0.186-0.455-0.635-0.455c-0.336,0-0.631,0.135-0.834,0.255l-0.258-0.519c0.287-0.179,0.75-0.322,1.271-0.322
						c0.888,0,1.368,0.413,1.368,0.979c0,0.524-0.469,0.94-1.038,1.345l-0.361,0.24v0.009h1.477v0.601H148.099z"/>
					<path i:knockout="Off" fill="#888A85" d="M152.827,135.269c-1.008,0-1.452-0.726-1.458-1.608c0-0.906,0.474-1.617,1.482-1.617
						c1.039,0,1.452,0.744,1.452,1.598c0,0.96-0.486,1.628-1.471,1.628H152.827z M152.839,134.717c0.354,0,0.548-0.356,0.548-1.065
						c0-0.691-0.188-1.056-0.554-1.056c-0.341,0-0.557,0.35-0.557,1.056c-0.006,0.721,0.21,1.065,0.557,1.065H152.839z"/>
					<path i:knockout="Off" fill="#888A85" d="M156.158,135.269c-1.008,0-1.453-0.726-1.459-1.608c0-0.906,0.475-1.617,1.482-1.617
						c1.037,0,1.451,0.744,1.451,1.598c0,0.96-0.484,1.628-1.469,1.628H156.158z M156.17,134.717c0.354,0,0.545-0.356,0.545-1.065
						c0-0.691-0.185-1.056-0.551-1.056c-0.343,0-0.56,0.35-0.56,1.056c-0.006,0.721,0.211,1.065,0.56,1.065H156.17z"/>
				</g>
			</g>
		</g>
	</svg>
