<?xml version="1.0" encoding="UTF-8" standalone="no"?>
<!-- Created with Inkscape (http://www.inkscape.org/) -->
<svg
   xmlns:i="http://ns.adobe.com/AdobeIllustrator/10.0/"
   xmlns:a="http://ns.adobe.com/AdobeSVGViewerExtensions/3.0/"
   xmlns:dc="http://purl.org/dc/elements/1.1/"
   xmlns:cc="http://web.resource.org/cc/"
   xmlns:rdf="http://www.w3.org/1999/02/22-rdf-syntax-ns#"
   xmlns:svg="http://www.w3.org/2000/svg"
   xmlns="http://www.w3.org/2000/svg"
   xmlns:xlink="http://www.w3.org/1999/xlink"
   xmlns:sodipodi="http://sodipodi.sourceforge.net/DTD/sodipodi-0.dtd"
   xmlns:inkscape="http://www.inkscape.org/namespaces/inkscape"
   width="32px"
   height="32px"
   id="svg2357"
   sodipodi:version="0.32"
   inkscape:version="0.44"
   sodipodi:docbase="/Users/kwwii/kdesvn/artwork/Oxygen/Ken"
   sodipodi:docname="newArrowForward.svg">
  <defs
     id="defs2359">
    <linearGradient
       inkscape:collect="always"
       id="linearGradient3335">
      <stop
         style="stop-color:white;stop-opacity:1;"
         offset="0"
         id="stop3337" />
      <stop
         style="stop-color:white;stop-opacity:0;"
         offset="1"
         id="stop3339" />
    </linearGradient>
    <radialGradient
       id="radialGradient3307"
       cx="2"
       cy="16"
       r="23.0868"
       fx="2"
       fy="16"
       gradientUnits="userSpaceOnUse">
      <stop
         offset="0"
         style="stop-color:#bfffbf;stop-opacity:1"
         id="stop3309" />
      <stop
         offset="0.1227"
         style="stop-color:#A9FEC7"
         id="stop3311" />
      <stop
         offset="0.2629"
         style="stop-color:#9DF9B9"
         id="stop3313" />
      <stop
         offset="0.4116"
         style="stop-color:#8AF2A3"
         id="stop3315" />
      <stop
         offset="0.5662"
         style="stop-color:#6FE883"
         id="stop3317" />
      <stop
         offset="0.7256"
         style="stop-color:#4CDB59"
         id="stop3319" />
      <stop
         offset="0.8864"
         style="stop-color:#22CB28"
         id="stop3321" />
      <stop
         offset="1"
         style="stop-color:#00BF00"
         id="stop3323" />
      <a:midPointStop
         offset="0"
         style="stop-color:#ADFFCC" />
      <a:midPointStop
         offset="0.6798"
         style="stop-color:#ADFFCC" />
      <a:midPointStop
         offset="1"
         style="stop-color:#00BF00" />
    </radialGradient>
    <linearGradient
       y2="15.0332"
       x2="29"
       y1="15.0332"
       x1="23"
       gradientUnits="userSpaceOnUse"
       id="XMLID_8_">
      <stop
         id="stop1901"
         style="stop-color:#00FF00"
         offset="0" />
      <stop
         id="stop1903"
         style="stop-color:#00D600"
         offset="0.6649" />
      <stop
         id="stop1905"
         style="stop-color:#00BF00"
         offset="1" />
      <a:midPointStop
         style="stop-color:#00FF00"
         offset="0" />
      <a:midPointStop
         style="stop-color:#00FF00"
         offset="0.5225" />
      <a:midPointStop
         style="stop-color:#00BF00"
         offset="1" />
    </linearGradient>
    <linearGradient
       inkscape:collect="always"
       xlink:href="#radialGradient3307"
       id="linearGradient2289"
       gradientUnits="userSpaceOnUse"
       x1="24.310083"
       y1="15.0335"
       x2="29"
       y2="15.0332" />
    <radialGradient
       gradientUnits="userSpaceOnUse"
       fy="16"
       fx="2"
       r="23.0868"
       cy="16"
       cx="2"
       id="XMLID_7_">
      <stop
         id="stop1880"
         style="stop-color:#ADFFCC"
         offset="0" />
      <stop
         id="stop1882"
         style="stop-color:#A9FEC7"
         offset="0.1227" />
      <stop
         id="stop1884"
         style="stop-color:#9DF9B9"
         offset="0.2629" />
      <stop
         id="stop1886"
         style="stop-color:#8AF2A3"
         offset="0.4116" />
      <stop
         id="stop1888"
         style="stop-color:#6FE883"
         offset="0.5662" />
      <stop
         id="stop1890"
         style="stop-color:#4CDB59"
         offset="0.7256" />
      <stop
         id="stop1892"
         style="stop-color:#22CB28"
         offset="0.8864" />
      <stop
         id="stop1894"
         style="stop-color:#00BF00"
         offset="1" />
      <a:midPointStop
         style="stop-color:#ADFFCC"
         offset="0" />
      <a:midPointStop
         style="stop-color:#ADFFCC"
         offset="0.6798" />
      <a:midPointStop
         style="stop-color:#00BF00"
         offset="1" />
    </radialGradient>
    <radialGradient
       inkscape:collect="always"
       xlink:href="#XMLID_7_"
       id="radialGradient2287"
       gradientUnits="userSpaceOnUse"
       cx="2"
       cy="16"
       fx="2"
       fy="16"
       r="23.0868" />
    <radialGradient
       gradientUnits="userSpaceOnUse"
       gradientTransform="matrix(0.2944,0,0,-2e-2,-13.8208,-28.1039)"
       fy="-6087.2788"
       fx="267.3615"
       r="253.0349"
       cy="-6094.6094"
       cx="265.3896"
       id="path2295_1_">
      <stop
         id="stop25"
         style="stop-color:#000000"
         offset="0" />
      <stop
         id="stop27"
         style="stop-color:black;stop-opacity:0.19587629;"
         offset="1" />
      <a:midPointStop
         style="stop-color:#000000"
         offset="0" />
      <a:midPointStop
         style="stop-color:#000000"
         offset="0.5" />
      <a:midPointStop
         style="stop-color:#FFFFFF"
         offset="1" />
    </radialGradient>
    <radialGradient
       inkscape:collect="always"
       xlink:href="#path2295_1_"
       id="radialGradient2420"
       gradientUnits="userSpaceOnUse"
       gradientTransform="matrix(7.440254e-2,0,0,-4.780589e-3,-3.745609,1.654975)"
       cx="265.3896"
       cy="-6094.6094"
       fx="267.3615"
       fy="-6087.2788"
       r="253.0349" />
    <linearGradient
       inkscape:collect="always"
       xlink:href="#linearGradient3335"
       id="linearGradient3341"
       x1="6.875"
       y1="12.890625"
       x2="23.875"
       y2="12.890625"
       gradientUnits="userSpaceOnUse"
       gradientTransform="matrix(-1,0,0,-1,34.875,30)" />
  </defs>
  <sodipodi:namedview
     id="base"
     pagecolor="#ffffff"
     bordercolor="#666666"
     borderopacity="1.0"
     inkscape:pageopacity="0.0"
     inkscape:pageshadow="2"
     inkscape:zoom="1"
     inkscape:cx="15.22919"
     inkscape:cy="9.3067275"
     inkscape:current-layer="layer1"
     showgrid="true"
     inkscape:grid-bbox="true"
     inkscape:document-units="px"
     inkscape:object-bbox="true"
     inkscape:object-points="true"
     inkscape:object-nodes="true"
     inkscape:window-width="945"
     inkscape:window-height="896"
     inkscape:window-x="20"
     inkscape:window-y="42" />
  <metadata
     id="metadata2362">
    <rdf:RDF>
      <cc:Work
         rdf:about="">
        <dc:format>image/svg+xml</dc:format>
        <dc:type
           rdf:resource="http://purl.org/dc/dcmitype/StillImage" />
      </cc:Work>
    </rdf:RDF>
  </metadata>
  <g
     id="layer1"
     inkscape:label="Layer 1"
     inkscape:groupmode="layer">
    <path
       style="opacity:0.38140001;fill:url(#radialGradient2420)"
       d="M 32,30.791445 C 32.002022,31.459293 24.840254,32.001412 16.003159,32.001412 C 7.1660651,32.001412 0.0020219886,31.460249 1.0700381e-07,30.791445 L 1.0700381e-07,30.791445 C -0.0010108232,30.122641 7.1612635,29.580521 15.998104,29.580521 C 24.834188,29.580521 31.99899,30.12288 32,30.790489 C 32,30.790489 32,30.790489 32,30.791445 z "
       enable-background="new    "
       a:adobe-blending-mode="multiply"
       i:knockout="Off"
       i:isolated="yes"
       ry="12.641975"
       rx="63.912209"
       cy="115.70919"
       cx="63.912209"
       type="arc"
       id="path2859" />
    <path
       style="fill:#008c00"
       id="path1877"
       d="M 11.333165,0.19141205 L 30.458165,14.190412 C 30.715165,14.379412 30.867165,14.679412 30.867165,14.998412 C 30.867165,15.316412 30.715165,15.616412 30.458165,15.805412 L 11.333165,29.804412 C 11.029165,30.028412 10.626165,30.061412 10.290165,29.889412 C 9.954165,29.719412 9.742165,29.374412 9.742165,28.997412 C 9.742165,28.997412 9.742165,22.816412 9.742165,21.247412 C 8.168165,21.247412 1.867165,21.247412 1.867165,21.247412 C 1.314165,21.247412 0.867165,20.801412 0.867165,20.248412 L 0.867165,9.748412 C 0.867165,9.195412 1.314165,8.748412 1.867165,8.748412 C 1.867165,8.748412 8.168165,8.748412 9.742165,8.748412 C 9.742165,7.179412 9.742165,0.99841205 9.742165,0.99841205 C 9.742165,0.62241205 9.954165,0.27741205 10.290165,0.10641205 C 10.626165,-0.063587952 11.029165,-0.030587952 11.333165,0.19141205 z "
       i:knockout="Off" />
    <polygon
       style="fill:url(#radialGradient2287)"
       id="polygon1896"
       points="29,9.75 20.125,9.75 20.125,1 1,15 20.125,29 20.125,20.25 29,20.25 29,9.75 "
       i:knockout="Off"
       transform="matrix(-1,0,0,1,30.86717,-1.587952e-3)" />
    <polygon
       style="fill:#bfffbf"
       id="polygon1898"
       points="24,11.25 17.66,11.25 17.66,5 4,15 17.66,25 17.66,18.75 24,18.75 24,11.25 "
       i:knockout="Off"
       transform="matrix(-1.029675,0,0,1,31.98586,-1.587952e-3)" />
    <polygon
       style="fill:url(#linearGradient2289);fill-opacity:1"
       id="polygon1907"
       points="24,11.25 24,18.75 29,18.999 28.959,11.068 24,11.25 "
       i:knockout="Off"
       transform="matrix(-0.97343,0,0,1,31.09666,-1.587952e-3)" />
    <path
       style="fill:url(#linearGradient3341);fill-opacity:1"
       d="M 16.40625,23 L 28,15 L 22.5,11.21875 C 19.667288,14.084652 15.578958,15.919914 11,16 L 11,18 L 16.40625,18 L 16.40625,23 z "
       id="polygon3325" />
    <polygon
       style="fill:white;fill-opacity:1"
       id="polygon3327"
       points="24,11.25 17.66,11.25 17.66,5 4,15 17.66,25 17.66,18.75 24,18.75 24,11.25 "
       i:knockout="Off"
       transform="matrix(0.85,0,0,0.8,3.467166,32.99841)" />
  </g>
</svg>
