<?xml version="1.0" encoding="UTF-8" standalone="no"?>
<!-- Created with Inkscape (http://www.inkscape.org/) -->
<svg
   xmlns:svg="http://www.w3.org/2000/svg"
   xmlns="http://www.w3.org/2000/svg"
   xmlns:xlink="http://www.w3.org/1999/xlink"
   version="1.0"
   width="1270"
   height="337"
   viewBox="0 0 225 223.83691"
   id="svg1"
   xml:space="preserve">

<defs
   id="defs300"><linearGradient
   x1="112.49854"
   y1="6.1372099"
   x2="112.49853"
   y2="129.3468"
   id="linearGradient5751"
   gradientUnits="userSpaceOnUse"
   gradientTransform="translate(-150.7424,110.7977)">
					<stop
   style="stop-color:white;stop-opacity:1"
   offset="0"
   id="stop5753" />



					<stop
   style="stop-color:white;stop-opacity:0"
   offset="1"
   id="stop5755" />



					<midPointStop
   offset="0"
   style="stop-color:#FFFFFF"
   id="midPointStop5757" />



					<midPointStop
   offset="0.5"
   style="stop-color:#FFFFFF"
   id="midPointStop5759" />



					<midPointStop
   offset="1"
   style="stop-color:#000000"
   id="midPointStop5761" />



				</linearGradient><linearGradient
   id="linearGradient5739"><stop
     style="stop-color:#2734a7;stop-opacity:0.42352942"
     offset="0"
     id="stop5741" /><stop
     style="stop-color:white;stop-opacity:0"
     offset="1"
     id="stop5743" /></linearGradient><linearGradient
   id="linearGradient5729"><stop
     style="stop-color:#d0d7e2;stop-opacity:1"
     offset="0"
     id="stop5731" /><stop
     style="stop-color:#b8c2d3;stop-opacity:1"
     offset="1"
     id="stop5733" /></linearGradient>
			
		
				<linearGradient
   x1="217.86621"
   y1="217.28516"
   x2="7.1352701"
   y2="6.5542202"
   id="path1065_2_"
   gradientUnits="userSpaceOnUse"
   gradientTransform="translate(-150.7424,110.7977)">
					<stop
   style="stop-color:#3c5c82;stop-opacity:1"
   offset="0"
   id="stop85" />



					<stop
   style="stop-color:#001b7b;stop-opacity:1"
   offset="1"
   id="stop87" />



					<midPointStop
   id="midPointStop89"
   style="stop-color:#0053BD"
   offset="0" />



					<midPointStop
   id="midPointStop91"
   style="stop-color:#0053BD"
   offset="0.5" />



					<midPointStop
   id="midPointStop93"
   style="stop-color:#00008D"
   offset="1" />



				</linearGradient>



				
				<linearGradient
   x1="214.27441"
   y1="213.71484"
   x2="10.72779"
   y2="10.16822"
   id="XMLID_1_"
   gradientUnits="userSpaceOnUse"
   gradientTransform="translate(-150.7424,110.7977)">
					<stop
   style="stop-color:#0068c6;stop-opacity:1"
   offset="0"
   id="stop100" />



					<stop
   style="stop-color:#3c5cb2;stop-opacity:1"
   offset="1"
   id="stop102" />



					<midPointStop
   id="midPointStop104"
   style="stop-color:#0066CC"
   offset="0" />



					<midPointStop
   id="midPointStop106"
   style="stop-color:#0066CC"
   offset="0.5" />



					<midPointStop
   id="midPointStop108"
   style="stop-color:#0053BD"
   offset="1" />



				</linearGradient>



				
				
				<linearGradient
   x1="112.50049"
   y1="211.02246"
   x2="112.50048"
   y2="12.81396"
   id="path1067_2_"
   gradientUnits="userSpaceOnUse"
   gradientTransform="translate(-150.7424,110.7977)">
					<stop
   style="stop-color:#418ade;stop-opacity:1"
   offset="0"
   id="stop117" />



					

					

					

					

					

					

					

					<stop
   style="stop-color:#a4cdec;stop-opacity:1"
   offset="0.5"
   id="stop133" />



					

					

					

					

					

					

					

					<stop
   style="stop-color:#039;stop-opacity:1"
   offset="1"
   id="stop149" />



					<midPointStop
   id="midPointStop151"
   style="stop-color:#0099FF"
   offset="0" />



					<midPointStop
   id="midPointStop153"
   style="stop-color:#0099FF"
   offset="0.25" />



					<midPointStop
   id="midPointStop155"
   style="stop-color:#B0D9FF"
   offset="0.5" />



					<midPointStop
   id="midPointStop157"
   style="stop-color:#B0D9FF"
   offset="0.75" />



					<midPointStop
   id="midPointStop159"
   style="stop-color:#003399"
   offset="1" />



				</linearGradient>



				
				
					<radialGradient
   cx="-1.36621"
   cy="223.93457"
   r="299.15564"
   fx="-1.36621"
   fy="223.93457"
   id="XMLID_2_"
   gradientUnits="userSpaceOnUse"
   gradientTransform="translate(-150.7424,110.7977)">
					<stop
   style="stop-color:white;stop-opacity:1"
   offset="0"
   id="stop166" />



					<stop
   style="stop-color:#418ade;stop-opacity:1"
   offset="0.44999999"
   id="stop168" />



					<stop
   style="stop-color:#3c5cb2;stop-opacity:1"
   offset="0.75"
   id="stop170" />



					<stop
   style="stop-color:#0068c6;stop-opacity:1"
   offset="1"
   id="stop172" />



					<midPointStop
   id="midPointStop174"
   style="stop-color:#FFFFFF"
   offset="0" />



					<midPointStop
   id="midPointStop176"
   style="stop-color:#FFFFFF"
   offset="0.5" />



					<midPointStop
   id="midPointStop178"
   style="stop-color:#0083D7"
   offset="0.45" />



					<midPointStop
   id="midPointStop180"
   style="stop-color:#0083D7"
   offset="0.5" />



					<midPointStop
   id="midPointStop182"
   style="stop-color:#0053BD"
   offset="0.75" />



					<midPointStop
   id="midPointStop184"
   style="stop-color:#0053BD"
   offset="0.5" />



					<midPointStop
   id="midPointStop186"
   style="stop-color:#0066CC"
   offset="1" />



				</radialGradient>



				
				<linearGradient
   x1="112.49854"
   y1="6.1372099"
   x2="112.49853"
   y2="129.3468"
   id="path1082_2_"
   gradientUnits="userSpaceOnUse"
   gradientTransform="translate(-150.7424,110.7977)">
					<stop
   style="stop-color:white;stop-opacity:1"
   offset="0"
   id="stop193" />



					<stop
   style="stop-color:#0093dd;stop-opacity:0"
   offset="1"
   id="stop195" />



					<midPointStop
   id="midPointStop197"
   style="stop-color:#FFFFFF"
   offset="0" />



					<midPointStop
   id="midPointStop199"
   style="stop-color:#FFFFFF"
   offset="0.5" />



					<midPointStop
   id="midPointStop201"
   style="stop-color:#000000"
   offset="1" />



				</linearGradient>



				
				
			
					<linearGradient
   x1="87.310547"
   y1="141.6543"
   x2="193.3839"
   y2="35.58094"
   id="XMLID_3_"
   gradientUnits="userSpaceOnUse"
   gradientTransform="translate(-150.7424,110.7977)">
						<stop
   style="stop-color:#001b7b;stop-opacity:1"
   offset="0.00562"
   id="stop210" />



						

						

						

						

						

						

						<stop
   style="stop-color:#0093dd;stop-opacity:1"
   offset="1"
   id="stop224" />



						<midPointStop
   id="midPointStop226"
   style="stop-color:#003399"
   offset="0.00562" />



						<midPointStop
   id="midPointStop228"
   style="stop-color:#003399"
   offset="0.25" />



						<midPointStop
   id="midPointStop230"
   style="stop-color:#57ADFF"
   offset="1" />



					</linearGradient>



					

					

					<linearGradient
   x1="94.524902"
   y1="133.65625"
   x2="184.72461"
   y2="43.456532"
   id="XMLID_4_"
   gradientUnits="userSpaceOnUse">
						<stop
   style="stop-color:white;stop-opacity:1"
   offset="0"
   id="stop239" />



						<stop
   style="stop-color:#fcfeff;stop-opacity:1"
   offset="0.31658"
   id="stop241" />



						<stop
   style="stop-color:#f2faff;stop-opacity:1"
   offset="0.57076001"
   id="stop243" />



						<stop
   style="stop-color:#e1f3ff;stop-opacity:1"
   offset="0.80255997"
   id="stop245" />



						<stop
   style="stop-color:#ccebff;stop-opacity:1"
   offset="1"
   id="stop247" />



						<midPointStop
   id="midPointStop249"
   style="stop-color:#FFFFFF"
   offset="0" />



						<midPointStop
   id="midPointStop251"
   style="stop-color:#FFFFFF"
   offset="0.75" />



						<midPointStop
   id="midPointStop253"
   style="stop-color:#CCEBFF"
   offset="1" />



					</linearGradient>



					

					<linearGradient
   x1="126.8584"
   y1="102.09082"
   x2="51.48325"
   y2="177.46597"
   id="XMLID_5_"
   gradientUnits="userSpaceOnUse"
   gradientTransform="translate(-150.7424,110.7977)">
						<stop
   style="stop-color:#63b5e8;stop-opacity:1"
   offset="0"
   id="stop260" />



						<stop
   style="stop-color:#001b7b;stop-opacity:1"
   offset="1"
   id="stop262" />



						<midPointStop
   id="midPointStop264"
   style="stop-color:#57ADFF"
   offset="0" />



						<midPointStop
   id="midPointStop266"
   style="stop-color:#57ADFF"
   offset="0.5" />



						<midPointStop
   id="midPointStop268"
   style="stop-color:#003399"
   offset="1" />



					</linearGradient>



					

					

					<linearGradient
   x1="116.01855"
   y1="112.93164"
   x2="56.763809"
   y2="172.18639"
   id="XMLID_6_"
   gradientUnits="userSpaceOnUse">
						<stop
   style="stop-color:white;stop-opacity:1"
   offset="0.44999999"
   id="stop277" />



						

						

						

						<stop
   style="stop-color:#a4cdec;stop-opacity:1"
   offset="1"
   id="stop285" />



						<midPointStop
   id="midPointStop287"
   style="stop-color:#FFFFFF"
   offset="0.45" />



						<midPointStop
   id="midPointStop289"
   style="stop-color:#FFFFFF"
   offset="0.75" />



						<midPointStop
   id="midPointStop291"
   style="stop-color:#D4EEFF"
   offset="1" />



					</linearGradient>



					

				<linearGradient
   x1="92.049637"
   y1="109.93223"
   x2="-35.710068"
   y2="216.77003"
   id="linearGradient3301"
   xlink:href="#XMLID_6_"
   gradientUnits="userSpaceOnUse"
   gradientTransform="translate(-150.7424,110.7977)" />

<linearGradient
   x1="103.71875"
   y1="107.75011"
   x2="223.05583"
   y2="-5.3456044"
   id="linearGradient3302"
   xlink:href="#XMLID_6_"
   gradientUnits="userSpaceOnUse"
   gradientTransform="translate(-150.7424,110.7977)" />

<linearGradient
   x1="152.36154"
   y1="186.26822"
   x2="152.36154"
   y2="208.00636"
   id="linearGradient7849"
   xlink:href="#linearGradient5729"
   gradientUnits="userSpaceOnUse" /><radialGradient
   cx="-1.36621"
   cy="223.93457"
   r="299.15564"
   fx="-1.36621"
   fy="223.93457"
   id="radialGradient7851"
   xlink:href="#XMLID_2_"
   gradientUnits="userSpaceOnUse"
   gradientTransform="matrix(1.128913,0,0,1.128913,-306.7412,-16.66066)" /><linearGradient
   x1="-167.2271"
   y1="212.97203"
   x2="-167.2271"
   y2="88.398766"
   id="linearGradient7853"
   xlink:href="#linearGradient5739"
   gradientUnits="userSpaceOnUse" /><linearGradient
   x1="112.49854"
   y1="6.1372099"
   x2="112.49853"
   y2="129.3468"
   id="linearGradient7855"
   xlink:href="#path1082_2_"
   gradientUnits="userSpaceOnUse"
   gradientTransform="matrix(1.128913,0,0,1.128913,-306.7412,-16.66066)" /><linearGradient
   x1="87.310547"
   y1="141.6543"
   x2="193.3839"
   y2="35.58094"
   id="linearGradient7857"
   xlink:href="#XMLID_3_"
   gradientUnits="userSpaceOnUse"
   gradientTransform="matrix(1.128913,0,0,1.128913,-306.7412,-16.66066)" /><linearGradient
   x1="103.71875"
   y1="107.75011"
   x2="223.05583"
   y2="-5.3456044"
   id="linearGradient7859"
   xlink:href="#XMLID_6_"
   gradientUnits="userSpaceOnUse"
   gradientTransform="matrix(1.128913,0,0,1.128913,-306.7412,-16.66066)" /><linearGradient
   x1="126.8584"
   y1="102.09082"
   x2="51.48325"
   y2="177.46597"
   id="linearGradient7861"
   xlink:href="#XMLID_5_"
   gradientUnits="userSpaceOnUse"
   gradientTransform="matrix(1.128913,0,0,1.128913,-306.7412,-16.66066)" /><linearGradient
   x1="92.049637"
   y1="109.93223"
   x2="-35.710068"
   y2="216.77003"
   id="linearGradient7863"
   xlink:href="#XMLID_6_"
   gradientUnits="userSpaceOnUse"
   gradientTransform="matrix(1.128913,0,0,1.128913,-306.7412,-16.66066)" /><linearGradient
   x1="112.49854"
   y1="6.1372099"
   x2="112.49853"
   y2="129.3468"
   id="linearGradient7865"
   xlink:href="#linearGradient5751"
   gradientUnits="userSpaceOnUse"
   gradientTransform="matrix(3.243591,0,0,1.128913,-113.2545,-16.66066)" /></defs>




	

		































	<g
   id="layer1"><g
     transform="matrix(1.000341,0,0,0.99912,-13.8567,-0.65295)"
     id="g7769"><rect
       width="859.12183"
       height="225.97037"
       rx="11.995913"
       ry="12.010569"
       x="-293.95569"
       y="-2.6535847"
       style="opacity:1;fill:url(#linearGradient7849);fill-opacity:1;fill-rule:nonzero;stroke:none;stroke-width:2.71317458;stroke-linecap:round;stroke-linejoin:round;stroke-miterlimit:10;stroke-dasharray:none;stroke-opacity:1"
       id="rect2835" /><path
       d="M -281.77033,-2.6472845 C -288.51766,-2.6472845 -293.94691,2.7819661 -293.94691,9.5293018 L -293.94691,211.1314 C -293.94691,217.87874 -288.51766,223.30798 -281.77033,223.30799 L -63.775013,223.30799 L -63.775013,-2.6472845 L -281.77033,-2.6472845 z "
       style="opacity:1;fill:#012e8f;fill-opacity:1;fill-rule:nonzero;stroke:none;stroke-width:2.71317458;stroke-linecap:round;stroke-linejoin:round;stroke-miterlimit:10;stroke-dasharray:none;stroke-opacity:1"
       id="rect5672" /><path
       d="M -277.8086,0.6153196 C -284.17913,0.6153196 -289.36122,5.8437084 -289.36122,12.270463 L -289.36122,207.20253 C -289.36122,213.5714 -284.17913,218.75625 -277.8086,218.75625 L -81.664931,218.75625 C -75.294951,218.75625 -70.111212,213.57141 -70.111212,207.20253 L -70.111212,12.270463 C -70.111212,5.8437084 -75.294951,0.6153196 -81.664931,0.6153196 L -277.8086,0.6153196 z "
       style="fill:url(#radialGradient7851);stroke:url(#linearGradient7853);stroke-width:4.07086039;stroke-miterlimit:4;stroke-dasharray:none"
       id="path189" /><path
       d="M -277.8086,3.778815 C -282.43395,3.778815 -286.19717,7.5872464 -286.19717,12.270463 C -286.19717,12.270463 -286.19717,130.31738 -286.19717,139.29357 C -275.91018,129.65923 -242.21035,103.68705 -177.57734,103.68705 C -106.8527,103.68705 -77.041243,72.322792 -73.279663,68.003368 C -73.279663,66.58561 -73.279663,12.271558 -73.279663,12.271558 C -73.279663,7.5888835 -77.041232,3.7804633 -81.667133,3.7804633 L -277.8086,3.7804633 L -277.8086,3.778815 z "
       style="fill:url(#linearGradient7855)"
       id="path1082_1_" /><path
       d="M -166.63107,13.315588 L -198.90321,16.405219 C -199.6242,16.475777 -200.17433,17.081021 -200.17433,17.80533 L -200.17433,150.6731 C -200.17433,151.08101 -199.99574,151.47127 -199.68539,151.73696 C -199.37505,152.00485 -198.9644,152.12282 -198.56034,152.0622 L -166.62885,147.25439 C -165.94313,147.15075 -165.43159,146.55984 -165.43159,145.86419 C -165.43159,145.86419 -165.43159,101.45898 -165.43159,93.764403 C -160.89609,100.40503 -125.08398,152.84051 -125.08398,152.84051 C -124.73561,153.35206 -124.09067,153.57365 -123.49976,153.38624 L -89.855059,142.74315 C -89.425101,142.60645 -89.086653,142.2713 -88.94554,141.84244 C -88.898136,141.69803 -88.873876,141.54919 -88.873876,141.40367 C -88.873876,141.10932 -88.96648,140.82048 -89.143979,140.57683 C -89.143979,140.57683 -131.25994,82.664356 -132.46822,81.004618 C -131.20812,79.384005 -88.82426,24.847264 -88.82426,24.847264 C -88.631328,24.597006 -88.531002,24.293283 -88.531002,23.984594 C -88.531002,23.826388 -88.556358,23.66764 -88.611483,23.513848 C -88.772443,23.061289 -89.152785,22.723382 -89.621329,22.615346 L -123.95066,14.720677 C -124.49307,14.596102 -125.05862,14.80336 -125.39156,15.248749 C -125.39156,15.248749 -160.89389,62.77334 -165.41066,68.81974 C -165.36655,61.482361 -165.09203,14.717912 -165.09203,14.715157 C -165.09203,14.319926 -165.2574,13.943986 -165.54735,13.678297 C -165.84172,13.410405 -166.23309,13.278661 -166.63107,13.315588 z "
       style="fill:url(#linearGradient7857)"
       id="path233" /><polygon
       points="95.6416,148.22559 95.6416,30.53027 124.22754,27.79297 123.9248,79.49414 161.63672,29.01074 192.04785,36.00391 152.81543,86.4873 191.74219,140.01465 161.94043,149.44238 123.92676,93.78662 123.92676,143.96582 95.6416,148.22559 "
       transform="matrix(1.128913,0,0,1.128913,-306.7412,-16.66066)"
       style="fill:white"
       id="path5692_1_" /><path
       d="M -191.74443,24.188543 C -191.74443,35.012988 -191.74443,128.86767 -191.74443,142.51054 C -184.99024,141.49407 -179.3071,140.63857 -173.86208,139.81834 C -173.86208,131.12439 -173.86208,101.56428 -173.86208,94.22028 C -173.86427,94.223589 -173.98885,94.390058 -173.98885,94.390058 C -173.98885,94.390058 -173.86208,72.826061 -173.86208,72.824401 C -173.86208,70.27001 -173.86208,66.475915 -173.86208,66.475915 L -173.82569,66.53104 C -173.77387,57.795749 -173.62614,32.627822 -173.56551,22.449418 C -180.19456,23.082784 -185.99568,23.638424 -191.74443,24.188543 z M -161.21251,77.284927 C -161.21251,77.284927 -163.03488,79.724655 -163.96424,80.969327 C -162.93234,82.479687 -126.17322,136.29709 -121.06665,143.77615 C -116.185,142.23051 -109.44568,140.09837 -101.69764,137.6465 C -110.37065,125.72126 -143.0132,80.835934 -143.0132,80.835934 C -143.0132,80.835934 -111.93723,40.847718 -102.23565,28.364087 C -110.45995,26.473383 -117.04931,24.956949 -121.37645,23.96144 C -126.17652,30.383779 -161.21251,77.284927 -161.21251,77.284927 z "
       style="fill:url(#linearGradient7859);fill-opacity:1"
       id="path256" /><path
       d="M -241.62882,46.574976 C -241.62992,46.576081 -254.29104,59.237212 -254.29104,59.237212 C -254.87921,59.825918 -255.18293,60.604258 -255.18293,61.390309 C -255.18293,61.932165 -255.03907,62.477881 -254.74141,62.969025 C -254.74141,62.969025 -241.08751,85.452477 -240.31966,86.720292 C -242.67946,90.812048 -244.58395,95.152966 -245.99839,99.661443 C -247.43489,99.959105 -272.4606,105.16489 -272.4606,105.16489 C -273.86568,105.45539 -274.88379,106.70943 -274.88379,108.1443 L -274.88379,126.05312 C -274.88379,127.45983 -273.92851,128.67695 -272.56257,129.00769 C -272.56257,129.00769 -248.34993,134.92787 -246.90958,135.27845 C -245.54253,140.61101 -243.53826,145.68673 -240.94144,150.40963 C -241.75781,151.6543 -255.80143,173.07388 -255.80143,173.07388 C -256.13326,173.581 -256.29533,174.1587 -256.29533,174.73638 C -256.29533,175.52574 -255.99049,176.31069 -255.40344,176.89608 L -242.74396,189.55888 C -241.74623,190.5544 -240.20997,190.7385 -239.00774,190.00758 C -239.00774,190.00758 -216.94048,176.60947 -215.6969,175.85538 C -211.29865,178.31717 -206.6474,180.25308 -201.83519,181.62672 C -201.52981,183.0985 -196.40671,207.72842 -196.40671,207.72842 C -196.11731,209.13184 -194.86438,210.15382 -193.42622,210.15382 L -175.51686,210.15382 C -174.11122,210.15382 -172.89522,209.198 -172.56118,207.83095 C -172.56118,207.83095 -166.50209,183.03126 -166.16033,181.62893 C -161.17393,180.21117 -156.37385,178.19148 -151.85269,175.61393 C -150.58155,176.44958 -128.91172,190.65912 -128.91172,190.65912 C -127.71336,191.44407 -126.10708,191.27871 -125.09281,190.26995 L -112.42563,177.60276 C -111.43012,176.60834 -111.2449,175.07263 -111.97694,173.87096 L -120.60033,159.66363 C -120.93767,159.1091 -121.60686,158.85664 -122.22534,159.05398 C -122.22534,159.05398 -124.21086,159.68127 -124.70145,159.83783 C -126.2063,157.63513 -137.11619,141.66166 -137.11619,141.66166 C -137.39621,141.25155 -137.87026,141.02002 -138.36858,141.05201 C -138.86136,141.08286 -139.30346,141.37392 -139.52947,141.8149 C -148.11427,158.61298 -165.1494,169.04772 -183.98813,169.04772 C -197.3201,169.04772 -209.8539,163.85627 -219.28099,154.42808 C -228.70808,145.00099 -233.90009,132.4661 -233.90009,119.1352 C -233.90009,99.530809 -222.33646,81.660583 -204.44141,73.607156 C -203.93648,73.380051 -203.61291,72.878432 -203.61291,72.325003 L -203.61291,59.087823 C -203.61291,58.631957 -203.8334,58.205307 -204.20493,57.942371 C -204.5759,57.678883 -205.05161,57.611081 -205.48101,57.761565 C -208.58718,58.849137 -211.52743,60.15389 -214.28522,61.604169 C -215.52161,60.794412 -237.80608,46.179732 -237.80608,46.179732 C -239.00773,45.392044 -240.61567,45.559609 -241.62882,46.574976 z "
       style="fill:url(#linearGradient7861)"
       id="path271" /><path
       d="M -121.80199,160.39122 L -124.59009,161.2765 C -124.99801,161.40219 -125.43678,161.25114 -125.67931,160.89617 C -125.67931,160.89617 -131.17835,152.84824 -138.27817,142.45431 C -146.76925,159.06938 -164.04362,170.45112 -183.9881,170.45112 C -212.32889,170.45112 -235.30513,147.47598 -235.30513,119.13519 C -235.30513,98.288328 -222.8689,80.358574 -205.01742,72.324992 L -205.01742,59.087823 C -208.26635,60.224999 -211.40502,61.594247 -214.38827,63.219273 C -214.39377,63.215964 -214.39819,63.211008 -214.40371,63.2077 L -238.57557,47.35441 C -239.22602,46.928867 -240.08482,47.017058 -240.63385,47.567189 L -253.29774,60.23052 C -253.83022,60.764654 -253.92999,61.594258 -253.53918,62.240843 L -238.71172,86.660199 C -241.34217,91.08214 -243.44785,95.849708 -244.9516,100.87855 L -272.1756,106.54077 C -272.93299,106.69731 -273.47925,107.36817 -273.47925,108.1443 L -273.47925,126.05312 C -273.47925,126.8105 -272.96331,127.46645 -272.23017,127.64506 L -245.81206,134.10213 C -244.40091,139.92419 -242.22027,145.44749 -239.33459,150.52208 L -254.62564,173.84338 C -255.05229,174.49382 -254.96188,175.35263 -254.41177,175.90165 L -241.75064,188.56554 C -241.2165,189.09803 -240.38415,189.19945 -239.73922,188.80698 L -215.76966,174.25569 C -211.06658,176.97104 -205.98703,179.10978 -200.62304,180.55842 L -195.03029,207.44176 C -194.87376,208.20135 -194.2018,208.74818 -193.42622,208.74818 L -175.51686,208.74818 C -174.76498,208.74818 -174.10572,208.23223 -173.92712,207.49688 L -167.34216,180.55181 C -161.81005,179.06019 -156.58001,176.83764 -151.75567,173.99774 L -128.1411,189.48501 C -127.48955,189.90945 -126.63404,189.82235 -126.08171,189.27334 L -113.41892,176.60946 C -112.88314,176.07476 -112.78502,175.24682 -113.17749,174.60188 L -121.80199,160.39122 z "
       style="fill:white"
       id="path273" /><path
       d="M -245.34133,62.208873 C -242.16075,67.446633 -231.96801,84.231491 -231.32418,85.290952 C -227.20871,79.532289 -222.10987,74.477536 -216.09543,70.498773 C -217.12181,69.825173 -233.48829,59.092237 -238.76353,55.631634 C -241.19389,58.061438 -242.9672,59.835841 -245.34133,62.208873 z M -243.52173,107.75513 C -243.52173,107.75513 -260.36502,111.26038 -266.45442,112.5249 C -266.45442,115.96345 -266.45442,118.47042 -266.45442,121.82409 C -260.58715,123.25728 -242.81395,127.60095 -241.60953,127.8964 C -242.04168,125.01569 -242.32998,122.1008 -242.32998,119.1352 C -242.32998,115.06936 -241.76331,111.10605 -240.94529,107.21988 C -242.14862,107.46958 -243.52173,107.75513 -243.52173,107.75513 z M -233.45963,154.37293 C -233.45963,154.37293 -242.93468,168.82391 -246.34841,174.03189 C -243.91696,176.46391 -242.14476,178.23666 -239.77173,180.60914 C -234.55437,177.44179 -218.33395,167.59357 -217.32025,166.97728 C -220.11387,165.02374 -222.77961,162.8497 -225.24083,160.38793 C -227.78474,157.84567 -230.03099,155.09173 -232.03249,152.19558 C -232.71272,153.23521 -233.45963,154.37293 -233.45963,154.37293 z M -150.23208,166.59694 C -149.15719,167.3014 -133.18151,177.77913 -127.95148,181.20776 C -125.52499,178.78236 -123.75002,177.00632 -121.37644,174.63272 C -122.83389,172.23048 -123.60119,170.96265 -125.21519,168.30464 C -127.69902,168.20431 -130.02629,166.98941 -131.47934,164.85837 C -131.47934,164.85837 -134.84182,159.93923 -138.17564,155.05867 C -141.65498,159.51258 -145.71091,163.37447 -150.23208,166.59694 z M -183.9881,177.47596 C -187.48123,177.47596 -190.91537,177.12649 -194.28502,176.53006 C -194.03035,177.76039 -190.30517,195.66425 -189.04395,201.72334 C -185.60871,201.72334 -183.10282,201.72334 -179.74751,201.72334 C -178.30716,195.823 -173.85325,177.60385 -173.56771,176.43745 C -176.97651,177.04931 -180.4393,177.47596 -183.9881,177.47596 z "
       style="fill:url(#linearGradient7863);fill-opacity:1"
       id="path294" /><path
       d="M -281.96877,-4 C -289.34485,-4 -295.31252,1.9676656 -295.31252,9.34375 L -295.31252,211.3125 C -295.31252,218.68858 -289.34485,224.68749 -281.96877,224.6875 L 553.15623,224.6875 C 560.53231,224.6875 566.53123,218.68858 566.53123,211.3125 L 566.53123,9.34375 C 566.53123,1.9676658 560.53231,-4 553.15623,-4 L -281.96877,-4 z M -281.96877,-1.3125 L 553.15623,-1.3125 C 559.07615,-1.3125 563.81248,3.4238342 563.81248,9.34375 L 563.81248,211.3125 C 563.81248,217.23241 559.07615,221.96875 553.15623,221.96875 L -281.96877,221.96875 C -287.88869,221.96875 -292.59377,217.23242 -292.59377,211.3125 L -292.59377,9.34375 C -292.59377,3.4238339 -287.88869,-1.3125 -281.96877,-1.3125 z "
       style="opacity:1;fill:#676767;fill-opacity:1;fill-rule:nonzero;stroke:none;stroke-width:2.71317458;stroke-linecap:round;stroke-linejoin:round;stroke-miterlimit:10;stroke-dasharray:none;stroke-opacity:1"
       id="rect5723" /><rect
       width="5.4263496"
       height="223.31927"
       x="-64.837334"
       y="-1.3565873"
       style="opacity:1;fill:white;fill-opacity:1;fill-rule:nonzero;stroke:none;stroke-width:4;stroke-linecap:round;stroke-linejoin:round;stroke-miterlimit:10;stroke-dasharray:none;stroke-opacity:1"
       id="rect5737" /><path
       d="M -54.537095,3.778815 C -54.270571,4.4571087 -54.89884,4.8250296 -54.220546,4.809233 C -54.220546,39.461494 -54.220546,130.31738 -54.220546,139.29357 C -24.663987,129.65923 108.79015,103.68705 294.49358,103.68705 C 497.69948,103.68705 557.53365,74.367693 557.53365,41.549915 C 557.53365,40.132157 557.53365,21.089376 557.53365,21.089376 C 557.53365,4.8615269 556.91012,3.7804633 533.43479,3.7804633 L -30.118523,3.7804633 L -54.537095,3.778815 z "
       style="opacity:1;fill:url(#linearGradient7865);fill-opacity:1"
       id="path5747" /><g
       transform="translate(0.678294,1.356588)"
       id="g7708"><path
         d="M 185.60952,74.460287 L 210.708,74.460287 C 218.17073,74.460344 223.89218,76.039948 227.87237,79.199124 C 231.87865,82.333516 233.88181,86.811149 233.88187,92.632039 C 233.88181,98.477882 231.87865,102.98039 227.87237,106.13959 C 223.89218,109.27395 218.17073,110.84113 210.708,110.84111 L 200.73145,110.84111 L 200.73145,130.16959 L 185.60952,130.16959 L 185.60952,74.460287 M 200.73145,84.870796 L 200.73145,100.43059 L 209.09761,100.43059 C 212.03031,100.43063 214.29533,99.758982 215.89266,98.415657 C 217.48992,97.047528 218.28856,95.119655 218.2886,92.632039 C 218.28856,90.144504 217.48992,88.229071 215.89266,86.885734 C 214.29533,85.542485 212.03031,84.870845 209.09761,84.870796 L 200.73145,84.870796"
         style="fill:black;fill-opacity:1"
         id="path6751" /><path
         d="M 272.72755,120.02027 L 249.08235,120.02027 L 245.35096,130.16959 L 230.15048,130.16959 L 251.87107,74.460287 L 269.89955,74.460287 L 291.62015,130.16959 L 276.41966,130.16959 L 272.72755,120.02027 M 252.85301,109.68438 L 268.91761,109.68438 L 260.90495,87.52007 L 252.85301,109.68438"
         style="fill:black;fill-opacity:1"
         id="path6753" /><path
         d="M 286.08198,74.460287 L 340.12815,74.460287 L 340.12815,85.318562 L 320.68567,85.318562 L 320.68567,130.16959 L 305.56374,130.16959 L 305.56374,85.318562 L 286.08198,85.318562 L 286.08198,74.460287"
         style="fill:black;fill-opacity:1"
         id="path6755" /><path
         d="M 369.39007,99.161932 C 372.55844,99.161962 374.82345,98.60226 376.18512,97.482821 C 377.57289,96.363439 378.2668,94.522632 378.26684,91.960391 C 378.2668,89.423103 377.57289,87.607175 376.18512,86.512601 C 374.82345,85.418108 372.55844,84.870845 369.39007,84.870796 L 363.02707,84.870796 L 363.02707,99.161932 L 369.39007,99.161932 M 363.02707,109.08737 L 363.02707,130.16959 L 347.90515,130.16959 L 347.90515,74.460287 L 371.00045,74.460287 C 378.72504,74.460344 384.38103,75.691688 387.96843,78.154334 C 391.58194,80.617086 393.38871,84.510144 393.38877,89.833515 C 393.38871,93.515171 392.44605,96.537569 390.56077,98.900732 C 388.70157,101.26396 385.88667,103.00527 382.11605,104.12465 C 384.18464,104.57244 386.03069,105.59235 387.65421,107.18437 C 389.30383,108.75156 390.96658,111.13963 392.64249,114.34859 L 400.85156,130.16959 L 384.74766,130.16959 L 377.59911,116.32622 C 376.15889,113.54014 374.69253,111.63715 373.2,110.61723 C 371.73361,109.59734 369.76972,109.08738 367.30834,109.08737 L 363.02707,109.08737"
         style="fill:black;fill-opacity:1"
         id="path6757" /><path
         d="M 436.59426,83.863327 C 431.98569,83.863376 428.41142,85.4803 425.87145,88.714109 C 423.33148,91.947991 422.06145,96.500257 422.06154,102.37091 C 422.06145,108.21673 423.33148,112.75656 425.87145,115.99039 C 428.41142,119.22426 431.98569,120.84118 436.59426,120.84117 C 441.229,120.84118 444.8164,119.22426 447.35637,115.99039 C 449.89625,112.75656 451.16628,108.21673 451.16628,102.37091 C 451.16628,96.500257 449.89625,91.947991 447.35637,88.714109 C 444.8164,85.4803 441.229,83.863376 436.59426,83.863327 M 436.59426,73.452818 C 446.02087,73.452875 453.40513,76.015076 458.74689,81.139428 C 464.08864,86.263886 466.75947,93.341041 466.75956,102.37091 C 466.75947,111.37596 464.08864,118.44067 458.74689,123.56507 C 453.40513,128.68948 446.02087,131.25168 436.59426,131.25168 C 427.19374,131.25168 419.80956,128.68948 414.44163,123.56507 C 409.09987,118.44067 406.42896,111.37596 406.42896,102.37091 C 406.42896,93.341041 409.09987,86.263886 414.44163,81.139428 C 419.80956,76.015076 427.19374,73.452875 436.59426,73.452818"
         style="fill:black;fill-opacity:1"
         id="path6759" /><path
         d="M 478.15008,74.460287 L 495.03956,74.460287 L 516.36735,112.66948 L 516.36735,74.460287 L 530.70374,74.460287 L 530.70374,130.16959 L 513.81426,130.16959 L 492.48646,91.960391 L 492.48646,130.16959 L 478.15008,130.16959 L 478.15008,74.460287"
         style="fill:black;fill-opacity:1"
         id="path6761" /><path
         d="M 321.09814,155.95228 C 317.82444,155.95232 315.28548,157.18974 313.48125,159.66454 C 311.67698,162.13941 310.77486,165.62322 310.77488,170.11598 C 310.77486,174.58974 311.67698,178.06404 313.48125,180.53886 C 315.28548,183.01371 317.82444,184.25113 321.09814,184.25113 C 324.3904,184.25113 326.93866,183.01371 328.74293,180.53886 C 330.54715,178.06404 331.44927,174.58974 331.44931,170.11598 C 331.44927,165.62322 330.54715,162.13941 328.74293,159.66454 C 326.93866,157.18974 324.3904,155.95232 321.09814,155.95228 M 321.09814,147.9852 C 327.79428,147.98524 333.03961,149.94608 336.83414,153.8677 C 340.62859,157.78941 342.52584,163.20549 342.52589,170.11598 C 342.52584,177.00747 340.62859,182.41404 336.83414,186.3357 C 333.03961,190.25737 327.79428,192.2182 321.09814,192.2182 C 314.42055,192.2182 309.17523,190.25737 305.36214,186.3357 C 301.56764,182.41404 299.6704,177.00747 299.6704,170.11598 C 299.6704,163.20549 301.56764,157.78941 305.36214,153.8677 C 309.17523,149.94608 314.42055,147.98524 321.09814,147.9852"
         style="fill:black;fill-opacity:1"
         id="path6765" /><path
         d="M 350.61709,148.75621 L 379.60593,148.75621 L 379.60593,157.06596 L 361.35886,157.06596 L 361.35886,165.00448 L 378.5178,165.00448 L 378.5178,173.31424 L 361.35886,173.31424 L 361.35886,191.39009 L 350.61709,191.39009 L 350.61709,148.75621"
         style="fill:black;fill-opacity:1"
         id="path6767" /><path
         d="M 409.54339,148.75621 L 420.28517,148.75621 L 420.28517,164.31915 L 435.77006,148.75621 L 448.24167,148.75621 L 428.18107,168.94519 L 450.30633,191.39009 L 436.85818,191.39009 L 420.28517,174.59925 L 420.28517,191.39009 L 409.54339,191.39009 L 409.54339,148.75621"
         style="fill:black;fill-opacity:1"
         id="path6769" /><path
         d="M 464.59146,157.06596 L 464.59146,183.08033 L 468.44178,183.08033 C 472.83145,183.08034 476.17954,181.96666 478.48602,179.7393 C 480.81108,177.51196 481.97358,174.27563 481.97364,170.03031 C 481.97358,165.80407 480.82035,162.58678 478.51394,160.37844 C 476.20746,158.17015 472.8501,157.06599 468.44178,157.06596 L 464.59146,157.06596 M 453.84971,148.75621 L 465.17738,148.75621 C 471.50156,148.75625 476.20746,149.22266 479.29515,150.15544 C 482.40138,151.06927 485.06128,152.63032 487.27479,154.8386 C 489.22778,156.76139 490.6786,158.97923 491.62727,161.49211 C 492.57587,164.00505 493.05018,166.85112 493.05018,170.03031 C 493.05018,173.24762 492.57587,176.12224 491.62727,178.65418 C 490.6786,181.1671 489.22778,183.38494 487.27479,185.30769 C 485.04268,187.51601 482.36419,189.08658 479.23938,190.01941 C 476.11444,190.93319 471.42713,191.39009 465.17738,191.39009 L 453.84971,191.39009 L 453.84971,148.75621"
         style="fill:black;fill-opacity:1"
         id="path6771" /><path
         d="M 501.28095,148.75621 L 530.26974,148.75621 L 530.26974,157.06596 L 512.02271,157.06596 L 512.02271,165.00448 L 529.18161,165.00448 L 529.18161,173.31424 L 512.02271,173.31424 L 512.02271,183.08033 L 530.88358,183.08033 L 530.88358,191.39009 L 501.28095,191.39009 L 501.28095,148.75621"
         style="fill:black;fill-opacity:1"
         id="path6773" /></g><g
       transform="translate(3.391446,3.39147)"
       style="fill:white;fill-opacity:1"
       id="g7745"><path
         d="M 185.60952,74.460287 L 210.708,74.460287 C 218.17073,74.460344 223.89218,76.039948 227.87237,79.199124 C 231.87865,82.333516 233.88181,86.811149 233.88187,92.632039 C 233.88181,98.477882 231.87865,102.98039 227.87237,106.13959 C 223.89218,109.27395 218.17073,110.84113 210.708,110.84111 L 200.73145,110.84111 L 200.73145,130.16959 L 185.60952,130.16959 L 185.60952,74.460287 M 200.73145,84.870796 L 200.73145,100.43059 L 209.09761,100.43059 C 212.03031,100.43063 214.29533,99.758982 215.89266,98.415657 C 217.48992,97.047528 218.28856,95.119655 218.2886,92.632039 C 218.28856,90.144504 217.48992,88.229071 215.89266,86.885734 C 214.29533,85.542485 212.03031,84.870845 209.09761,84.870796 L 200.73145,84.870796"
         style="fill:white;fill-opacity:1"
         id="path7747" /><path
         d="M 272.72755,120.02027 L 249.08235,120.02027 L 245.35096,130.16959 L 230.15048,130.16959 L 251.87107,74.460287 L 269.89955,74.460287 L 291.62015,130.16959 L 276.41966,130.16959 L 272.72755,120.02027 M 252.85301,109.68438 L 268.91761,109.68438 L 260.90495,87.52007 L 252.85301,109.68438"
         style="fill:white;fill-opacity:1"
         id="path7749" /><path
         d="M 286.08198,74.460287 L 340.12815,74.460287 L 340.12815,85.318562 L 320.68567,85.318562 L 320.68567,130.16959 L 305.56374,130.16959 L 305.56374,85.318562 L 286.08198,85.318562 L 286.08198,74.460287"
         style="fill:white;fill-opacity:1"
         id="path7751" /><path
         d="M 369.39007,99.161932 C 372.55844,99.161962 374.82345,98.60226 376.18512,97.482821 C 377.57289,96.363439 378.2668,94.522632 378.26684,91.960391 C 378.2668,89.423103 377.57289,87.607175 376.18512,86.512601 C 374.82345,85.418108 372.55844,84.870845 369.39007,84.870796 L 363.02707,84.870796 L 363.02707,99.161932 L 369.39007,99.161932 M 363.02707,109.08737 L 363.02707,130.16959 L 347.90515,130.16959 L 347.90515,74.460287 L 371.00045,74.460287 C 378.72504,74.460344 384.38103,75.691688 387.96843,78.154334 C 391.58194,80.617086 393.38871,84.510144 393.38877,89.833515 C 393.38871,93.515171 392.44605,96.537569 390.56077,98.900732 C 388.70157,101.26396 385.88667,103.00527 382.11605,104.12465 C 384.18464,104.57244 386.03069,105.59235 387.65421,107.18437 C 389.30383,108.75156 390.96658,111.13963 392.64249,114.34859 L 400.85156,130.16959 L 384.74766,130.16959 L 377.59911,116.32622 C 376.15889,113.54014 374.69253,111.63715 373.2,110.61723 C 371.73361,109.59734 369.76972,109.08738 367.30834,109.08737 L 363.02707,109.08737"
         style="fill:white;fill-opacity:1"
         id="path7753" /><path
         d="M 436.59426,83.863327 C 431.98569,83.863376 428.41142,85.4803 425.87145,88.714109 C 423.33148,91.947991 422.06145,96.500257 422.06154,102.37091 C 422.06145,108.21673 423.33148,112.75656 425.87145,115.99039 C 428.41142,119.22426 431.98569,120.84118 436.59426,120.84117 C 441.229,120.84118 444.8164,119.22426 447.35637,115.99039 C 449.89625,112.75656 451.16628,108.21673 451.16628,102.37091 C 451.16628,96.500257 449.89625,91.947991 447.35637,88.714109 C 444.8164,85.4803 441.229,83.863376 436.59426,83.863327 M 436.59426,73.452818 C 446.02087,73.452875 453.40513,76.015076 458.74689,81.139428 C 464.08864,86.263886 466.75947,93.341041 466.75956,102.37091 C 466.75947,111.37596 464.08864,118.44067 458.74689,123.56507 C 453.40513,128.68948 446.02087,131.25168 436.59426,131.25168 C 427.19374,131.25168 419.80956,128.68948 414.44163,123.56507 C 409.09987,118.44067 406.42896,111.37596 406.42896,102.37091 C 406.42896,93.341041 409.09987,86.263886 414.44163,81.139428 C 419.80956,76.015076 427.19374,73.452875 436.59426,73.452818"
         style="fill:white;fill-opacity:1"
         id="path7755" /><path
         d="M 478.15008,74.460287 L 495.03956,74.460287 L 516.36735,112.66948 L 516.36735,74.460287 L 530.70374,74.460287 L 530.70374,130.16959 L 513.81426,130.16959 L 492.48646,91.960391 L 492.48646,130.16959 L 478.15008,130.16959 L 478.15008,74.460287"
         style="fill:white;fill-opacity:1"
         id="path7757" /><path
         d="M 321.09814,155.95228 C 317.82444,155.95232 315.28548,157.18974 313.48125,159.66454 C 311.67698,162.13941 310.77486,165.62322 310.77488,170.11598 C 310.77486,174.58974 311.67698,178.06404 313.48125,180.53886 C 315.28548,183.01371 317.82444,184.25113 321.09814,184.25113 C 324.3904,184.25113 326.93866,183.01371 328.74293,180.53886 C 330.54715,178.06404 331.44927,174.58974 331.44931,170.11598 C 331.44927,165.62322 330.54715,162.13941 328.74293,159.66454 C 326.93866,157.18974 324.3904,155.95232 321.09814,155.95228 M 321.09814,147.9852 C 327.79428,147.98524 333.03961,149.94608 336.83414,153.8677 C 340.62859,157.78941 342.52584,163.20549 342.52589,170.11598 C 342.52584,177.00747 340.62859,182.41404 336.83414,186.3357 C 333.03961,190.25737 327.79428,192.2182 321.09814,192.2182 C 314.42055,192.2182 309.17523,190.25737 305.36214,186.3357 C 301.56764,182.41404 299.6704,177.00747 299.6704,170.11598 C 299.6704,163.20549 301.56764,157.78941 305.36214,153.8677 C 309.17523,149.94608 314.42055,147.98524 321.09814,147.9852"
         style="fill:white;fill-opacity:1"
         id="path7759" /><path
         d="M 350.61709,148.75621 L 379.60593,148.75621 L 379.60593,157.06596 L 361.35886,157.06596 L 361.35886,165.00448 L 378.5178,165.00448 L 378.5178,173.31424 L 361.35886,173.31424 L 361.35886,191.39009 L 350.61709,191.39009 L 350.61709,148.75621"
         style="fill:white;fill-opacity:1"
         id="path7761" /><path
         d="M 409.54339,148.75621 L 420.28517,148.75621 L 420.28517,164.31915 L 435.77006,148.75621 L 448.24167,148.75621 L 428.18107,168.94519 L 450.30633,191.39009 L 436.85818,191.39009 L 420.28517,174.59925 L 420.28517,191.39009 L 409.54339,191.39009 L 409.54339,148.75621"
         style="fill:white;fill-opacity:1"
         id="path7763" /><path
         d="M 464.59146,157.06596 L 464.59146,183.08033 L 468.44178,183.08033 C 472.83145,183.08034 476.17954,181.96666 478.48602,179.7393 C 480.81108,177.51196 481.97358,174.27563 481.97364,170.03031 C 481.97358,165.80407 480.82035,162.58678 478.51394,160.37844 C 476.20746,158.17015 472.8501,157.06599 468.44178,157.06596 L 464.59146,157.06596 M 453.84971,148.75621 L 465.17738,148.75621 C 471.50156,148.75625 476.20746,149.22266 479.29515,150.15544 C 482.40138,151.06927 485.06128,152.63032 487.27479,154.8386 C 489.22778,156.76139 490.6786,158.97923 491.62727,161.49211 C 492.57587,164.00505 493.05018,166.85112 493.05018,170.03031 C 493.05018,173.24762 492.57587,176.12224 491.62727,178.65418 C 490.6786,181.1671 489.22778,183.38494 487.27479,185.30769 C 485.04268,187.51601 482.36419,189.08658 479.23938,190.01941 C 476.11444,190.93319 471.42713,191.39009 465.17738,191.39009 L 453.84971,191.39009 L 453.84971,148.75621"
         style="fill:white;fill-opacity:1"
         id="path7765" /><path
         d="M 501.28095,148.75621 L 530.26974,148.75621 L 530.26974,157.06596 L 512.02271,157.06596 L 512.02271,165.00448 L 529.18161,165.00448 L 529.18161,173.31424 L 512.02271,173.31424 L 512.02271,183.08033 L 530.88358,183.08033 L 530.88358,191.39009 L 501.28095,191.39009 L 501.28095,148.75621"
         style="fill:white;fill-opacity:1"
         id="path7767" /></g><g
       style="fill:#3c5fb5;fill-opacity:1"
       id="g6732"><g
         transform="matrix(0.852539,0,0,0.809908,-453.4519,-30.69709)"
         style="fill:#3c5fb5;fill-opacity:1"
         id="g6713"><path
           d="M 751.98472,132.35115 L 781.4244,132.35115 C 790.17794,132.35122 796.88901,134.30157 801.55764,138.20223 C 806.25687,142.07229 808.60651,147.60086 808.60658,154.78796 C 808.60651,162.00587 806.25687,167.56515 801.55764,171.46584 C 796.88901,175.33587 790.17794,177.27087 781.4244,177.27085 L 769.72224,177.27085 L 769.72224,201.13588 L 751.98472,201.13588 L 751.98472,132.35115 M 769.72224,145.20509 L 769.72224,164.4169 L 779.53547,164.4169 C 782.97543,164.41694 785.63222,163.58765 787.50584,161.92904 C 789.37937,160.2398 790.31615,157.85944 790.3162,154.78796 C 790.31615,151.71658 789.37937,149.35158 787.50584,147.69295 C 785.63222,146.03443 782.97543,145.20515 779.53547,145.20509 L 769.72224,145.20509"
           style="fill:#3c5fb5;fill-opacity:1"
           id="path6693" /><path
           d="M 854.17128,188.60443 L 826.43625,188.60443 L 822.05945,201.13588 L 804.22979,201.13588 L 829.70732,132.35115 L 850.85413,132.35115 L 876.33167,201.13588 L 858.502,201.13588 L 854.17128,188.60443 M 830.85911,175.84263 L 849.70235,175.84263 L 840.30376,148.47617 L 830.85911,175.84263"
           style="fill:#3c5fb5;fill-opacity:1"
           id="path6689" /><path
           d="M 869.83558,132.35115 L 933.22995,132.35115 L 933.22995,145.75795 L 910.42457,145.75795 L 910.42457,201.13588 L 892.68704,201.13588 L 892.68704,145.75795 L 869.83558,145.75795 L 869.83558,132.35115"
           style="fill:#3c5fb5;fill-opacity:1"
           id="path6685" /><path
           d="M 967.55321,162.85047 C 971.26961,162.85051 973.92639,162.15944 975.52358,160.77726 C 977.15139,159.39515 977.96532,157.12229 977.96537,153.95867 C 977.96532,150.82586 977.15139,148.58372 975.52358,147.23224 C 973.92639,145.88086 971.26961,145.20515 967.55321,145.20509 L 960.08963,145.20509 L 960.08963,162.85047 L 967.55321,162.85047 M 960.08963,175.10549 L 960.08963,201.13588 L 942.35211,201.13588 L 942.35211,132.35115 L 969.44214,132.35115 C 978.50282,132.35122 985.13711,133.87157 989.34502,136.91222 C 993.58354,139.953 995.70283,144.75979 995.70289,151.3326 C 995.70283,155.87837 994.59711,159.61015 992.38574,162.52797 C 990.20497,165.44587 986.90318,167.59587 982.48037,168.97798 C 984.90675,169.53087 987.07211,170.79016 988.97645,172.75584 C 990.9114,174.69087 992.86175,177.63944 994.82753,181.60157 L 1004.4565,201.13588 L 985.56716,201.13588 L 977.18215,184.04336 C 975.49282,180.60337 973.77282,178.25373 972.02214,176.99442 C 970.30211,175.73516 967.99853,175.10551 965.11142,175.10549 L 960.08963,175.10549"
           style="fill:#3c5fb5;fill-opacity:1"
           id="path6683" /><path
           d="M 1046.3815,143.96116 C 1040.9758,143.96122 1036.7833,145.95765 1033.804,149.95046 C 1030.8247,153.94336 1029.335,159.56408 1029.3351,166.81262 C 1029.335,174.03051 1030.8247,179.63587 1033.804,183.62871 C 1036.7833,187.62159 1040.9758,189.61802 1046.3815,189.61801 C 1051.8179,189.61802 1056.0258,187.62159 1059.0051,183.62871 C 1061.9843,179.63587 1063.474,174.03051 1063.474,166.81262 C 1063.474,159.56408 1061.9843,153.94336 1059.0051,149.95046 C 1056.0258,145.95765 1051.8179,143.96122 1046.3815,143.96116 M 1046.3815,131.10722 C 1057.4386,131.10729 1066.1001,134.27086 1072.3658,140.59794 C 1078.6315,146.92515 1081.7643,155.66337 1081.7644,166.81262 C 1081.7643,177.93123 1078.6315,186.65409 1072.3658,192.98123 C 1066.1001,199.30838 1057.4386,202.47195 1046.3815,202.47195 C 1035.355,202.47195 1026.6936,199.30838 1020.3972,192.98123 C 1014.1315,186.65409 1010.9986,177.93123 1010.9986,166.81262 C 1010.9986,155.66337 1014.1315,146.92515 1020.3972,140.59794 C 1026.6936,134.27086 1035.355,131.10729 1046.3815,131.10722"
           style="fill:#3c5fb5;fill-opacity:1"
           id="path6679" /><path
           d="M 1095.1251,132.35115 L 1114.9359,132.35115 L 1139.9527,179.52835 L 1139.9527,132.35115 L 1156.7688,132.35115 L 1156.7688,201.13588 L 1136.958,201.13588 L 1111.9412,153.95867 L 1111.9412,201.13588 L 1095.1251,201.13588 L 1095.1251,132.35115"
           style="fill:#3c5fb5;fill-opacity:1"
           id="path6675" /></g><g
         transform="matrix(0.605596,0,0,0.619816,-151.2942,-4.345231)"
         style="fill:#3c5fb5;fill-opacity:1"
         id="g6721"><path
           d="M 783.40547,261.90417 C 777.99972,261.90423 773.80722,263.90066 770.82796,267.89346 C 767.84864,271.88637 766.359,277.50709 766.35902,284.75563 C 766.359,291.97352 767.84864,297.57888 770.82796,301.57172 C 773.80722,305.5646 777.99972,307.56103 783.40547,307.56102 C 788.84187,307.56103 793.04972,305.5646 796.02906,301.57172 C 799.0083,297.57888 800.49794,291.97352 800.498,284.75563 C 800.49794,277.50709 799.0083,271.88637 796.02906,267.89346 C 793.04972,263.90066 788.84187,261.90423 783.40547,261.90417 M 783.40547,249.05022 C 794.46258,249.05029 803.12401,252.21387 809.38979,258.54095 C 815.65544,264.86816 818.7883,273.60637 818.78838,284.75563 C 818.7883,295.87424 815.65544,304.5971 809.38979,310.92423 C 803.12401,317.25139 794.46258,320.41496 783.40547,320.41496 C 772.379,320.41496 763.71757,317.25139 757.42116,310.92423 C 751.15543,304.5971 748.02257,295.87424 748.02257,284.75563 C 748.02257,273.60637 751.15543,264.86816 757.42116,258.54095 C 763.71757,252.21387 772.379,249.05029 783.40547,249.05022"
           style="fill:#3c5fb5;fill-opacity:1"
           id="path6673" /><path
           d="M 832.14911,250.29416 L 880.01739,250.29416 L 880.01739,263.70096 L 849.88663,263.70096 L 849.88663,276.50883 L 878.2206,276.50883 L 878.2206,289.91564 L 849.88663,289.91564 L 849.88663,319.07889 L 832.14911,319.07889 L 832.14911,250.29416"
           style="fill:#3c5fb5;fill-opacity:1"
           id="path6669" /><path
           d="M 929.4521,250.29416 L 947.18962,250.29416 L 947.18962,275.40312 L 972.7593,250.29416 L 993.35325,250.29416 L 960.22785,282.8667 L 996.76254,319.07889 L 974.55608,319.07889 L 947.18962,291.98885 L 947.18962,319.07889 L 929.4521,319.07889 L 929.4521,250.29416"
           style="fill:#3c5fb5;fill-opacity:1"
           id="path6667" /><path
           d="M 1020.3511,263.70096 L 1020.3511,305.67208 L 1026.709,305.67208 C 1033.9575,305.6721 1039.4861,303.87531 1043.2947,300.28172 C 1047.134,296.68817 1049.0536,291.46674 1049.0537,284.61741 C 1049.0536,277.79887 1047.1493,272.60816 1043.3408,269.04525 C 1039.5322,265.48244 1033.9883,263.70101 1026.709,263.70096 L 1020.3511,263.70096 M 1002.6136,250.29416 L 1021.3186,250.29416 C 1031.7615,250.29422 1039.5322,251.04672 1044.6308,252.55166 C 1049.76,254.02601 1054.1522,256.54458 1057.8073,260.10738 C 1061.0322,263.20958 1063.4279,266.7878 1064.9944,270.84204 C 1066.5608,274.89637 1067.344,279.48816 1067.344,284.61741 C 1067.344,289.80816 1066.5608,294.44602 1064.9944,298.531 C 1063.4279,302.58531 1061.0322,306.16353 1057.8073,309.26566 C 1054.1215,312.82853 1049.6986,315.36246 1044.5387,316.86746 C 1039.3786,318.34174 1031.6386,319.07889 1021.3186,319.07889 L 1002.6136,319.07889 L 1002.6136,250.29416"
           style="fill:#3c5fb5;fill-opacity:1"
           id="path6665" /><path
           d="M 1080.9352,250.29416 L 1128.8034,250.29416 L 1128.8034,263.70096 L 1098.6727,263.70096 L 1098.6727,276.50883 L 1127.0066,276.50883 L 1127.0066,289.91564 L 1098.6727,289.91564 L 1098.6727,305.67208 L 1129.817,305.67208 L 1129.817,319.07889 L 1080.9352,319.07889 L 1080.9352,250.29416"
           style="fill:#3c5fb5;fill-opacity:1"
           id="flowRoot5765" /></g></g></g></g><g
   id="layer2" /></svg>