<?xml version="1.0" encoding="UTF-8" standalone="no"?>
<!-- Created with Inkscape (http://www.inkscape.org/) -->
<svg
   xmlns:a="http://ns.adobe.com/AdobeSVGViewerExtensions/3.0/"
   xmlns:dc="http://purl.org/dc/elements/1.1/"
   xmlns:cc="http://web.resource.org/cc/"
   xmlns:rdf="http://www.w3.org/1999/02/22-rdf-syntax-ns#"
   xmlns:svg="http://www.w3.org/2000/svg"
   xmlns="http://www.w3.org/2000/svg"
   xmlns:xlink="http://www.w3.org/1999/xlink"
   xmlns:sodipodi="http://sodipodi.sourceforge.net/DTD/sodipodi-0.dtd"
   xmlns:inkscape="http://www.inkscape.org/namespaces/inkscape"
   version="1.0"
   width="1270"
   height="337"
   viewBox="0 0 225 223.83691"
   id="svg1"
   xml:space="preserve"
   sodipodi:version="0.32"
   inkscape:version="0.44"
   sodipodi:docname="supporter_logo.svg"
   sodipodi:docbase="/home/kwwii/kdesvn/artwork/Oxygen/Ken"><metadata
   id="metadata3425"><rdf:RDF><cc:Work
       rdf:about=""><dc:format>image/svg+xml</dc:format><dc:type
         rdf:resource="http://purl.org/dc/dcmitype/StillImage" /></cc:Work></rdf:RDF></metadata><sodipodi:namedview
   inkscape:window-height="577"
   inkscape:window-width="823"
   inkscape:pageshadow="2"
   inkscape:pageopacity="0.0"
   guidetolerance="10.0"
   gridtolerance="10.0"
   objecttolerance="10.0"
   borderopacity="1.0"
   bordercolor="#666666"
   pagecolor="#ffffff"
   id="base"
   inkscape:zoom="0.25"
   inkscape:cx="698.4127"
   inkscape:cy="-12.567439"
   inkscape:window-x="51"
   inkscape:window-y="0"
   inkscape:current-layer="svg1" />

<defs
   id="defs300"><linearGradient
     gradientTransform="matrix(1.5061,0,0,-1.5042,8006.007,2396.467)"
     y2="1381.1388"
     x2="-4884.895"
     y1="1445.4246"
     x1="-4884.895"
     gradientUnits="userSpaceOnUse"
     id="rect2835_1_">
				<stop
   id="stop1877"
   style="stop-color:#d9a80a;stop-opacity:1;"
   offset="0" />
				<stop
   id="stop1879"
   style="stop-color:#f6e45f;stop-opacity:1;"
   offset="1" />
				<a:midPointStop
   style="stop-color:#E3AD00"
   offset="0" />
				<a:midPointStop
   style="stop-color:#E3AD00"
   offset="0.5" />
				<a:midPointStop
   style="stop-color:#FFEB55"
   offset="1" />
			</linearGradient><linearGradient
     x1="112.49854"
     y1="6.1372099"
     x2="112.49853"
     y2="129.3468"
     id="linearGradient5751"
     gradientUnits="userSpaceOnUse"
     gradientTransform="translate(-150.7424,110.7977)">
					<stop
   style="stop-color:white;stop-opacity:1"
   offset="0"
   id="stop5753" />



					<stop
   style="stop-color:white;stop-opacity:0"
   offset="1"
   id="stop5755" />



					<midPointStop
   offset="0"
   style="stop-color:#FFFFFF"
   id="midPointStop5757" />



					<midPointStop
   offset="0.5"
   style="stop-color:#FFFFFF"
   id="midPointStop5759" />



					<midPointStop
   offset="1"
   style="stop-color:#000000"
   id="midPointStop5761" />



				</linearGradient><linearGradient
     id="linearGradient5739"><stop
       style="stop-color:#2734a7;stop-opacity:0.42352942"
       offset="0"
       id="stop5741" /><stop
       style="stop-color:white;stop-opacity:0"
       offset="1"
       id="stop5743" /></linearGradient><linearGradient
     id="linearGradient5729"><stop
       style="stop-color:#eff4fb;stop-opacity:1;"
       offset="0"
       id="stop5731" /><stop
       style="stop-color:#cdd3de;stop-opacity:1;"
       offset="1"
       id="stop5733" /></linearGradient><radialGradient
     cx="-1.36621"
     cy="223.93457"
     r="299.15564"
     fx="-1.36621"
     fy="223.93457"
     id="XMLID_2_"
     gradientUnits="userSpaceOnUse"
     gradientTransform="translate(-150.7424,110.7977)">
					<stop
   style="stop-color:white;stop-opacity:1"
   offset="0"
   id="stop166" />



					<stop
   style="stop-color:#418ade;stop-opacity:1"
   offset="0.44999999"
   id="stop168" />



					<stop
   style="stop-color:#3c5cb2;stop-opacity:1"
   offset="0.75"
   id="stop170" />



					<stop
   style="stop-color:#0068c6;stop-opacity:1"
   offset="1"
   id="stop172" />



					<midPointStop
   id="midPointStop174"
   style="stop-color:#FFFFFF"
   offset="0" />



					<midPointStop
   id="midPointStop176"
   style="stop-color:#FFFFFF"
   offset="0.5" />



					<midPointStop
   id="midPointStop178"
   style="stop-color:#0083D7"
   offset="0.45" />



					<midPointStop
   id="midPointStop180"
   style="stop-color:#0083D7"
   offset="0.5" />



					<midPointStop
   id="midPointStop182"
   style="stop-color:#0053BD"
   offset="0.75" />



					<midPointStop
   id="midPointStop184"
   style="stop-color:#0053BD"
   offset="0.5" />



					<midPointStop
   id="midPointStop186"
   style="stop-color:#0066CC"
   offset="1" />



				</radialGradient><linearGradient
     x1="112.49854"
     y1="6.1372099"
     x2="112.49853"
     y2="129.3468"
     id="path1082_2_"
     gradientUnits="userSpaceOnUse"
     gradientTransform="translate(-150.7424,110.7977)">
					<stop
   style="stop-color:white;stop-opacity:1"
   offset="0"
   id="stop193" />



					<stop
   style="stop-color:#0093dd;stop-opacity:0"
   offset="1"
   id="stop195" />



					<midPointStop
   id="midPointStop197"
   style="stop-color:#FFFFFF"
   offset="0" />



					<midPointStop
   id="midPointStop199"
   style="stop-color:#FFFFFF"
   offset="0.5" />



					<midPointStop
   id="midPointStop201"
   style="stop-color:#000000"
   offset="1" />



				</linearGradient><linearGradient
     x1="87.310547"
     y1="141.6543"
     x2="193.3839"
     y2="35.58094"
     id="XMLID_3_"
     gradientUnits="userSpaceOnUse"
     gradientTransform="translate(-150.7424,110.7977)">
						<stop
   style="stop-color:#001b7b;stop-opacity:1"
   offset="0.00562"
   id="stop210" />



						

						

						

						

						

						

						<stop
   style="stop-color:#0093dd;stop-opacity:1"
   offset="1"
   id="stop224" />



						<midPointStop
   id="midPointStop226"
   style="stop-color:#003399"
   offset="0.00562" />



						<midPointStop
   id="midPointStop228"
   style="stop-color:#003399"
   offset="0.25" />



						<midPointStop
   id="midPointStop230"
   style="stop-color:#57ADFF"
   offset="1" />



					</linearGradient><linearGradient
     x1="126.8584"
     y1="102.09082"
     x2="51.48325"
     y2="177.46597"
     id="XMLID_5_"
     gradientUnits="userSpaceOnUse"
     gradientTransform="translate(-150.7424,110.7977)">
						<stop
   style="stop-color:#63b5e8;stop-opacity:1"
   offset="0"
   id="stop260" />



						<stop
   style="stop-color:#001b7b;stop-opacity:1"
   offset="1"
   id="stop262" />



						<midPointStop
   id="midPointStop264"
   style="stop-color:#57ADFF"
   offset="0" />



						<midPointStop
   id="midPointStop266"
   style="stop-color:#57ADFF"
   offset="0.5" />



						<midPointStop
   id="midPointStop268"
   style="stop-color:#003399"
   offset="1" />



					</linearGradient><linearGradient
     x1="116.01855"
     y1="112.93164"
     x2="56.763809"
     y2="172.18639"
     id="XMLID_6_"
     gradientUnits="userSpaceOnUse">
						<stop
   style="stop-color:white;stop-opacity:1"
   offset="0.44999999"
   id="stop277" />



						

						

						

						<stop
   style="stop-color:#a4cdec;stop-opacity:1"
   offset="1"
   id="stop285" />



						<midPointStop
   id="midPointStop287"
   style="stop-color:#FFFFFF"
   offset="0.45" />



						<midPointStop
   id="midPointStop289"
   style="stop-color:#FFFFFF"
   offset="0.75" />



						<midPointStop
   id="midPointStop291"
   style="stop-color:#D4EEFF"
   offset="1" />



					</linearGradient><linearGradient
     inkscape:collect="always"
     xlink:href="#linearGradient5751"
     id="linearGradient3536"
     gradientUnits="userSpaceOnUse"
     gradientTransform="matrix(3.244697,0,0,1.12792,-127.1498,-17.29895)"
     x1="112.49854"
     y1="6.1372099"
     x2="112.49853"
     y2="129.3468" /><linearGradient
     inkscape:collect="always"
     xlink:href="#XMLID_6_"
     id="linearGradient3541"
     gradientUnits="userSpaceOnUse"
     gradientTransform="matrix(1.129298,0,0,1.12792,-320.7025,-17.29895)"
     x1="92.049637"
     y1="109.93223"
     x2="-35.710068"
     y2="216.77003" /><linearGradient
     inkscape:collect="always"
     xlink:href="#XMLID_5_"
     id="linearGradient3545"
     gradientUnits="userSpaceOnUse"
     gradientTransform="matrix(1.129298,0,0,1.12792,-320.7025,-17.29895)"
     x1="126.8584"
     y1="102.09082"
     x2="51.48325"
     y2="177.46597" /><linearGradient
     inkscape:collect="always"
     xlink:href="#XMLID_6_"
     id="linearGradient3548"
     gradientUnits="userSpaceOnUse"
     gradientTransform="matrix(1.129298,0,0,1.12792,-320.7025,-17.29895)"
     x1="103.71875"
     y1="107.75011"
     x2="223.05583"
     y2="-5.3456044" /><linearGradient
     inkscape:collect="always"
     xlink:href="#XMLID_3_"
     id="linearGradient3552"
     gradientUnits="userSpaceOnUse"
     gradientTransform="matrix(1.129298,0,0,1.12792,-320.7025,-17.29895)"
     x1="87.310547"
     y1="141.6543"
     x2="193.3839"
     y2="35.58094" /><linearGradient
     inkscape:collect="always"
     xlink:href="#path1082_2_"
     id="linearGradient3555"
     gradientUnits="userSpaceOnUse"
     gradientTransform="matrix(1.129298,0,0,1.12792,-320.7025,-17.29895)"
     x1="112.49854"
     y1="6.1372099"
     x2="112.49853"
     y2="129.3468" /><radialGradient
     inkscape:collect="always"
     xlink:href="#XMLID_2_"
     id="radialGradient3558"
     gradientUnits="userSpaceOnUse"
     gradientTransform="matrix(1.129298,0,0,1.12792,-320.7025,-17.29895)"
     cx="-1.36621"
     cy="223.93457"
     fx="-1.36621"
     fy="223.93457"
     r="299.15564" /><linearGradient
     inkscape:collect="always"
     xlink:href="#linearGradient5739"
     id="linearGradient3560"
     gradientUnits="userSpaceOnUse"
     x1="-167.2271"
     y1="212.97203"
     x2="-167.2271"
     y2="88.398766"
     gradientTransform="matrix(1.000341,0,0,0.99912,-13.8567,-0.65295)" /><linearGradient
     inkscape:collect="always"
     xlink:href="#linearGradient5729"
     id="linearGradient3564"
     gradientUnits="userSpaceOnUse"
     x1="234.69482"
     y1="207.54149"
     x2="234.69482"
     y2="157.41179"
     gradientTransform="matrix(1.000341,0,0,0.99912,-13.8567,-0.65295)" /><linearGradient
     inkscape:collect="always"
     xlink:href="#linearGradient5729"
     id="linearGradient10628"
     gradientUnits="userSpaceOnUse"
     gradientTransform="matrix(1.000341,0,0,0.99912,-13.85673,318.1637)"
     x1="234.69482"
     y1="207.54149"
     x2="234.69482"
     y2="157.41179" /><radialGradient
     inkscape:collect="always"
     xlink:href="#XMLID_2_"
     id="radialGradient10630"
     gradientUnits="userSpaceOnUse"
     gradientTransform="matrix(1.129298,0,0,1.12792,-320.7025,301.5178)"
     cx="-1.36621"
     cy="223.93457"
     fx="-1.36621"
     fy="223.93457"
     r="299.15564" /><linearGradient
     inkscape:collect="always"
     xlink:href="#linearGradient5739"
     id="linearGradient10632"
     gradientUnits="userSpaceOnUse"
     gradientTransform="matrix(1.000341,0,0,0.99912,-13.85673,318.1637)"
     x1="-167.2271"
     y1="212.97203"
     x2="-167.2271"
     y2="88.398766" /><linearGradient
     inkscape:collect="always"
     xlink:href="#path1082_2_"
     id="linearGradient10634"
     gradientUnits="userSpaceOnUse"
     gradientTransform="matrix(1.129298,0,0,1.12792,-320.7025,301.5178)"
     x1="112.49854"
     y1="6.1372099"
     x2="112.49853"
     y2="129.3468" /><linearGradient
     inkscape:collect="always"
     xlink:href="#XMLID_3_"
     id="linearGradient10636"
     gradientUnits="userSpaceOnUse"
     gradientTransform="matrix(1.129298,0,0,1.12792,-320.7025,301.5178)"
     x1="87.310547"
     y1="141.6543"
     x2="193.3839"
     y2="35.58094" /><linearGradient
     inkscape:collect="always"
     xlink:href="#XMLID_6_"
     id="linearGradient10638"
     gradientUnits="userSpaceOnUse"
     gradientTransform="matrix(1.129298,0,0,1.12792,-320.7025,301.5178)"
     x1="103.71875"
     y1="107.75011"
     x2="223.05583"
     y2="-5.3456044" /><linearGradient
     inkscape:collect="always"
     xlink:href="#XMLID_5_"
     id="linearGradient10640"
     gradientUnits="userSpaceOnUse"
     gradientTransform="matrix(1.129298,0,0,1.12792,-320.7025,301.5178)"
     x1="126.8584"
     y1="102.09082"
     x2="51.48325"
     y2="177.46597" /><linearGradient
     inkscape:collect="always"
     xlink:href="#XMLID_6_"
     id="linearGradient10642"
     gradientUnits="userSpaceOnUse"
     gradientTransform="matrix(1.129298,0,0,1.12792,-320.7025,301.5178)"
     x1="92.049637"
     y1="109.93223"
     x2="-35.710068"
     y2="216.77003" /><linearGradient
     inkscape:collect="always"
     xlink:href="#linearGradient5751"
     id="linearGradient10644"
     gradientUnits="userSpaceOnUse"
     gradientTransform="matrix(3.244697,0,0,1.12792,-127.1498,301.5178)"
     x1="112.49854"
     y1="6.1372099"
     x2="112.49853"
     y2="129.3468" /><linearGradient
     inkscape:collect="always"
     xlink:href="#rect2835_1_"
     id="linearGradient11550"
     x1="938.9198"
     y1="284.7326"
     x2="938.9198"
     y2="320.41495"
     gradientUnits="userSpaceOnUse" /><linearGradient
     inkscape:collect="always"
     xlink:href="#rect2835_1_"
     id="linearGradient11552"
     x1="954.37677"
     y1="166.78958"
     x2="954.37677"
     y2="202.47195"
     gradientUnits="userSpaceOnUse" /><linearGradient
     inkscape:collect="always"
     xlink:href="#linearGradient5729"
     id="linearGradient11647"
     gradientUnits="userSpaceOnUse"
     gradientTransform="matrix(1.000341,0,0,0.99912,-13.85673,318.1637)"
     x1="234.69482"
     y1="207.54149"
     x2="234.69482"
     y2="157.41179" /><radialGradient
     inkscape:collect="always"
     xlink:href="#XMLID_2_"
     id="radialGradient11649"
     gradientUnits="userSpaceOnUse"
     gradientTransform="matrix(1.129298,0,0,1.12792,-320.7025,301.5178)"
     cx="-1.36621"
     cy="223.93457"
     fx="-1.36621"
     fy="223.93457"
     r="299.15564" /><linearGradient
     inkscape:collect="always"
     xlink:href="#linearGradient5739"
     id="linearGradient11651"
     gradientUnits="userSpaceOnUse"
     gradientTransform="matrix(1.000341,0,0,0.99912,-13.85673,318.1637)"
     x1="-167.2271"
     y1="212.97203"
     x2="-167.2271"
     y2="88.398766" /><linearGradient
     inkscape:collect="always"
     xlink:href="#path1082_2_"
     id="linearGradient11653"
     gradientUnits="userSpaceOnUse"
     gradientTransform="matrix(1.129298,0,0,1.12792,-320.7025,301.5178)"
     x1="112.49854"
     y1="6.1372099"
     x2="112.49853"
     y2="129.3468" /><linearGradient
     inkscape:collect="always"
     xlink:href="#XMLID_3_"
     id="linearGradient11655"
     gradientUnits="userSpaceOnUse"
     gradientTransform="matrix(1.129298,0,0,1.12792,-320.7025,301.5178)"
     x1="87.310547"
     y1="141.6543"
     x2="193.3839"
     y2="35.58094" /><linearGradient
     inkscape:collect="always"
     xlink:href="#XMLID_6_"
     id="linearGradient11657"
     gradientUnits="userSpaceOnUse"
     gradientTransform="matrix(1.129298,0,0,1.12792,-320.7025,301.5178)"
     x1="103.71875"
     y1="107.75011"
     x2="223.05583"
     y2="-5.3456044" /><linearGradient
     inkscape:collect="always"
     xlink:href="#XMLID_5_"
     id="linearGradient11659"
     gradientUnits="userSpaceOnUse"
     gradientTransform="matrix(1.129298,0,0,1.12792,-320.7025,301.5178)"
     x1="126.8584"
     y1="102.09082"
     x2="51.48325"
     y2="177.46597" /><linearGradient
     inkscape:collect="always"
     xlink:href="#XMLID_6_"
     id="linearGradient11661"
     gradientUnits="userSpaceOnUse"
     gradientTransform="matrix(1.129298,0,0,1.12792,-320.7025,301.5178)"
     x1="92.049637"
     y1="109.93223"
     x2="-35.710068"
     y2="216.77003" /><linearGradient
     inkscape:collect="always"
     xlink:href="#linearGradient5729"
     id="linearGradient11663"
     gradientUnits="userSpaceOnUse"
     gradientTransform="matrix(1.000341,0,0,0.99912,-13.8567,-0.65295)"
     x1="234.69482"
     y1="207.54149"
     x2="234.69482"
     y2="157.41179" /><radialGradient
     inkscape:collect="always"
     xlink:href="#XMLID_2_"
     id="radialGradient11665"
     gradientUnits="userSpaceOnUse"
     gradientTransform="matrix(1.129298,0,0,1.12792,-320.7025,-17.29895)"
     cx="-1.36621"
     cy="223.93457"
     fx="-1.36621"
     fy="223.93457"
     r="299.15564" /><linearGradient
     inkscape:collect="always"
     xlink:href="#linearGradient5739"
     id="linearGradient11667"
     gradientUnits="userSpaceOnUse"
     gradientTransform="matrix(1.000341,0,0,0.99912,-13.8567,-0.65295)"
     x1="-167.2271"
     y1="212.97203"
     x2="-167.2271"
     y2="88.398766" /><linearGradient
     inkscape:collect="always"
     xlink:href="#path1082_2_"
     id="linearGradient11669"
     gradientUnits="userSpaceOnUse"
     gradientTransform="matrix(1.129298,0,0,1.12792,-320.7025,-17.29895)"
     x1="112.49854"
     y1="6.1372099"
     x2="112.49853"
     y2="129.3468" /><linearGradient
     inkscape:collect="always"
     xlink:href="#XMLID_3_"
     id="linearGradient11671"
     gradientUnits="userSpaceOnUse"
     gradientTransform="matrix(1.129298,0,0,1.12792,-320.7025,-17.29895)"
     x1="87.310547"
     y1="141.6543"
     x2="193.3839"
     y2="35.58094" /><linearGradient
     inkscape:collect="always"
     xlink:href="#XMLID_6_"
     id="linearGradient11673"
     gradientUnits="userSpaceOnUse"
     gradientTransform="matrix(1.129298,0,0,1.12792,-320.7025,-17.29895)"
     x1="103.71875"
     y1="107.75011"
     x2="223.05583"
     y2="-5.3456044" /><linearGradient
     inkscape:collect="always"
     xlink:href="#XMLID_5_"
     id="linearGradient11675"
     gradientUnits="userSpaceOnUse"
     gradientTransform="matrix(1.129298,0,0,1.12792,-320.7025,-17.29895)"
     x1="126.8584"
     y1="102.09082"
     x2="51.48325"
     y2="177.46597" /><linearGradient
     inkscape:collect="always"
     xlink:href="#XMLID_6_"
     id="linearGradient11677"
     gradientUnits="userSpaceOnUse"
     gradientTransform="matrix(1.129298,0,0,1.12792,-320.7025,-17.29895)"
     x1="92.049637"
     y1="109.93223"
     x2="-35.710068"
     y2="216.77003" /><linearGradient
     inkscape:collect="always"
     xlink:href="#linearGradient5751"
     id="linearGradient11679"
     gradientUnits="userSpaceOnUse"
     gradientTransform="matrix(3.244697,0,0,1.12792,-127.1498,-17.29895)"
     x1="112.49854"
     y1="6.1372099"
     x2="112.49853"
     y2="129.3468" /><linearGradient
     inkscape:collect="always"
     xlink:href="#rect2835_1_"
     id="linearGradient11683"
     gradientUnits="userSpaceOnUse"
     x1="954.37677"
     y1="166.78958"
     x2="954.37677"
     y2="202.47195" /><linearGradient
     inkscape:collect="always"
     xlink:href="#rect2835_1_"
     id="linearGradient11685"
     gradientUnits="userSpaceOnUse"
     x1="954.37677"
     y1="166.78958"
     x2="954.37677"
     y2="202.47195" /><linearGradient
     inkscape:collect="always"
     xlink:href="#rect2835_1_"
     id="linearGradient11687"
     gradientUnits="userSpaceOnUse"
     x1="954.37677"
     y1="166.78958"
     x2="954.37677"
     y2="202.47195" /><linearGradient
     inkscape:collect="always"
     xlink:href="#rect2835_1_"
     id="linearGradient11689"
     gradientUnits="userSpaceOnUse"
     x1="954.37677"
     y1="166.78958"
     x2="954.37677"
     y2="202.47195" /><linearGradient
     inkscape:collect="always"
     xlink:href="#rect2835_1_"
     id="linearGradient11691"
     gradientUnits="userSpaceOnUse"
     x1="954.37677"
     y1="166.78958"
     x2="954.37677"
     y2="202.47195" /><linearGradient
     inkscape:collect="always"
     xlink:href="#rect2835_1_"
     id="linearGradient11693"
     gradientUnits="userSpaceOnUse"
     x1="954.37677"
     y1="166.78958"
     x2="954.37677"
     y2="202.47195" /><linearGradient
     inkscape:collect="always"
     xlink:href="#rect2835_1_"
     id="linearGradient11697"
     gradientUnits="userSpaceOnUse"
     x1="938.9198"
     y1="284.7326"
     x2="938.9198"
     y2="320.41495" /><linearGradient
     inkscape:collect="always"
     xlink:href="#rect2835_1_"
     id="linearGradient11699"
     gradientUnits="userSpaceOnUse"
     x1="938.9198"
     y1="284.7326"
     x2="938.9198"
     y2="320.41495" /><linearGradient
     inkscape:collect="always"
     xlink:href="#rect2835_1_"
     id="linearGradient11701"
     gradientUnits="userSpaceOnUse"
     x1="938.9198"
     y1="284.7326"
     x2="938.9198"
     y2="320.41495" /><linearGradient
     inkscape:collect="always"
     xlink:href="#rect2835_1_"
     id="linearGradient11703"
     gradientUnits="userSpaceOnUse"
     x1="938.9198"
     y1="284.7326"
     x2="938.9198"
     y2="320.41495" /><linearGradient
     inkscape:collect="always"
     xlink:href="#rect2835_1_"
     id="linearGradient11705"
     gradientUnits="userSpaceOnUse"
     x1="938.9198"
     y1="284.7326"
     x2="938.9198"
     y2="320.41495" /><linearGradient
     inkscape:collect="always"
     xlink:href="#linearGradient5751"
     id="linearGradient11707"
     gradientUnits="userSpaceOnUse"
     gradientTransform="matrix(3.244697,0,0,1.12792,-127.1498,301.5178)"
     x1="112.49854"
     y1="6.1372099"
     x2="112.49853"
     y2="129.3468" /><linearGradient
     inkscape:collect="always"
     xlink:href="#linearGradient5751"
     id="linearGradient11710"
     gradientUnits="userSpaceOnUse"
     gradientTransform="matrix(3.244697,0,0,1.12792,-127.1498,301.5178)"
     x1="112.49854"
     y1="6.1372099"
     x2="112.49853"
     y2="129.3468" /><linearGradient
     inkscape:collect="always"
     xlink:href="#linearGradient5751"
     id="linearGradient11750"
     gradientUnits="userSpaceOnUse"
     gradientTransform="matrix(3.244697,0,0,1.12792,-127.1498,-17.29895)"
     x1="112.49854"
     y1="6.1372099"
     x2="112.49853"
     y2="129.3468" /><linearGradient
     inkscape:collect="always"
     xlink:href="#XMLID_6_"
     id="linearGradient11783"
     gradientUnits="userSpaceOnUse"
     gradientTransform="matrix(1.129298,0,0,1.12792,-320.7025,-17.29895)"
     x1="92.049637"
     y1="109.93223"
     x2="-35.710068"
     y2="216.77003" /><linearGradient
     inkscape:collect="always"
     xlink:href="#XMLID_5_"
     id="linearGradient11787"
     gradientUnits="userSpaceOnUse"
     gradientTransform="matrix(1.129298,0,0,1.12792,-320.7025,-17.29895)"
     x1="126.8584"
     y1="102.09082"
     x2="51.48325"
     y2="177.46597" /><linearGradient
     inkscape:collect="always"
     xlink:href="#XMLID_6_"
     id="linearGradient11790"
     gradientUnits="userSpaceOnUse"
     gradientTransform="matrix(1.129298,0,0,1.12792,-320.7025,-17.29895)"
     x1="103.71875"
     y1="107.75011"
     x2="223.05583"
     y2="-5.3456044" /><linearGradient
     inkscape:collect="always"
     xlink:href="#XMLID_3_"
     id="linearGradient11794"
     gradientUnits="userSpaceOnUse"
     gradientTransform="matrix(1.129298,0,0,1.12792,-320.7025,-17.29895)"
     x1="87.310547"
     y1="141.6543"
     x2="193.3839"
     y2="35.58094" /><linearGradient
     inkscape:collect="always"
     xlink:href="#path1082_2_"
     id="linearGradient11797"
     gradientUnits="userSpaceOnUse"
     gradientTransform="matrix(1.129298,0,0,1.12792,-320.7025,-17.29895)"
     x1="112.49854"
     y1="6.1372099"
     x2="112.49853"
     y2="129.3468" /><radialGradient
     inkscape:collect="always"
     xlink:href="#XMLID_2_"
     id="radialGradient11800"
     gradientUnits="userSpaceOnUse"
     gradientTransform="matrix(1.129298,0,0,1.12792,-320.7025,-17.29895)"
     cx="-1.36621"
     cy="223.93457"
     fx="-1.36621"
     fy="223.93457"
     r="299.15564" /><linearGradient
     inkscape:collect="always"
     xlink:href="#linearGradient5739"
     id="linearGradient11802"
     gradientUnits="userSpaceOnUse"
     gradientTransform="matrix(1.000341,0,0,0.99912,-13.8567,-0.65295)"
     x1="-167.2271"
     y1="212.97203"
     x2="-167.2271"
     y2="88.398766" /><linearGradient
     inkscape:collect="always"
     xlink:href="#linearGradient5729"
     id="linearGradient11806"
     gradientUnits="userSpaceOnUse"
     gradientTransform="matrix(1.000341,0,0,0.99912,-13.8567,-0.65295)"
     x1="234.69482"
     y1="207.54149"
     x2="234.69482"
     y2="157.41179" /><linearGradient
     inkscape:collect="always"
     xlink:href="#XMLID_6_"
     id="linearGradient11811"
     gradientUnits="userSpaceOnUse"
     gradientTransform="matrix(1.129298,0,0,1.12792,-320.7025,301.5178)"
     x1="92.049637"
     y1="109.93223"
     x2="-35.710068"
     y2="216.77003" /><linearGradient
     inkscape:collect="always"
     xlink:href="#XMLID_5_"
     id="linearGradient11815"
     gradientUnits="userSpaceOnUse"
     gradientTransform="matrix(1.129298,0,0,1.12792,-320.7025,301.5178)"
     x1="126.8584"
     y1="102.09082"
     x2="51.48325"
     y2="177.46597" /><linearGradient
     inkscape:collect="always"
     xlink:href="#XMLID_6_"
     id="linearGradient11818"
     gradientUnits="userSpaceOnUse"
     gradientTransform="matrix(1.129298,0,0,1.12792,-320.7025,301.5178)"
     x1="103.71875"
     y1="107.75011"
     x2="223.05583"
     y2="-5.3456044" /><linearGradient
     inkscape:collect="always"
     xlink:href="#XMLID_3_"
     id="linearGradient11822"
     gradientUnits="userSpaceOnUse"
     gradientTransform="matrix(1.129298,0,0,1.12792,-320.7025,301.5178)"
     x1="87.310547"
     y1="141.6543"
     x2="193.3839"
     y2="35.58094" /><linearGradient
     inkscape:collect="always"
     xlink:href="#path1082_2_"
     id="linearGradient11825"
     gradientUnits="userSpaceOnUse"
     gradientTransform="matrix(1.129298,0,0,1.12792,-320.7025,301.5178)"
     x1="112.49854"
     y1="6.1372099"
     x2="112.49853"
     y2="129.3468" /><radialGradient
     inkscape:collect="always"
     xlink:href="#XMLID_2_"
     id="radialGradient11828"
     gradientUnits="userSpaceOnUse"
     gradientTransform="matrix(1.129298,0,0,1.12792,-320.7025,301.5178)"
     cx="-1.36621"
     cy="223.93457"
     fx="-1.36621"
     fy="223.93457"
     r="299.15564" /><linearGradient
     inkscape:collect="always"
     xlink:href="#linearGradient5739"
     id="linearGradient11830"
     gradientUnits="userSpaceOnUse"
     gradientTransform="matrix(1.000341,0,0,0.99912,-13.85673,318.1637)"
     x1="-167.2271"
     y1="212.97203"
     x2="-167.2271"
     y2="88.398766" /><linearGradient
     inkscape:collect="always"
     xlink:href="#linearGradient5729"
     id="linearGradient11834"
     gradientUnits="userSpaceOnUse"
     gradientTransform="matrix(1.000341,0,0,0.99912,-13.85673,318.1637)"
     x1="234.69482"
     y1="207.54149"
     x2="234.69482"
     y2="157.41179" /></defs>




	

		































	<g
   id="layer2" /><rect
   width="859.41479"
   height="225.77151"
   rx="12.000003"
   ry="11.999999"
   x="-307.91263"
   y="-3.3041995"
   style="fill:url(#linearGradient11806);fill-opacity:1;fill-rule:nonzero;stroke:none;stroke-width:2.71317458;stroke-linecap:round;stroke-linejoin:round;stroke-miterlimit:10;stroke-dasharray:none;stroke-opacity:1"
   id="rect2835" /><path
   d="M -295.72311,-3.2979049 C -302.47274,-3.2979049 -307.90385,2.126568 -307.90385,8.867966 L -307.90385,210.29265 C -307.90385,217.03406 -302.47274,222.45852 -295.72311,222.45853 L -77.65346,222.45853 L -77.65346,-3.2979049 L -295.72311,-3.2979049 z "
   style="fill:#012e8f;fill-opacity:1;fill-rule:nonzero;stroke:none;stroke-width:2.71317458;stroke-linecap:round;stroke-linejoin:round;stroke-miterlimit:10;stroke-dasharray:none;stroke-opacity:1"
   id="rect5672" /><path
   d="M -291.76003,-0.038171881 C -298.13274,-0.038171881 -303.31659,5.1856159 -303.31659,11.606715 L -303.31659,206.36724 C -303.31659,212.73051 -298.13274,217.91079 -291.76003,217.91079 L -95.549479,217.91079 C -89.177327,217.91079 -83.99182,212.73052 -83.99182,206.36724 L -83.99182,11.606715 C -83.99182,5.1856159 -89.177327,-0.038171881 -95.549479,-0.038171881 L -291.76003,-0.038171881 z "
   style="fill:url(#radialGradient11800);stroke:url(#linearGradient11802);stroke-width:4.06976271;stroke-miterlimit:4;stroke-dasharray:none"
   id="path189" /><path
   d="M -291.76003,3.1225396 C -296.38696,3.1225396 -300.15146,6.9276196 -300.15146,11.606715 C -300.15146,11.606715 -300.15146,129.54975 -300.15146,138.51804 C -289.86097,128.89218 -256.14964,102.94286 -191.49459,102.94286 C -120.74584,102.94286 -90.924214,71.606198 -87.161351,67.290575 C -87.161351,65.874065 -87.161351,11.607809 -87.161351,11.607809 C -87.161351,6.9292553 -90.924203,3.1241865 -95.551681,3.1241865 L -291.76003,3.1241865 L -291.76003,3.1225396 z "
   style="fill:url(#linearGradient11797)"
   id="path1082_1_" /><path
   d="M -180.54459,12.65092 L -212.82774,15.737832 C -213.54897,15.808328 -214.09929,16.41304 -214.09929,17.136711 L -214.09929,149.88756 C -214.09929,150.29511 -213.92064,150.68503 -213.61018,150.95048 C -213.29974,151.21814 -212.88895,151.336 -212.48475,151.27544 L -180.54237,146.47186 C -179.85642,146.36831 -179.3447,145.77792 -179.3447,145.08288 C -179.3447,145.08288 -179.3447,100.71675 -179.3447,93.02894 C -174.80766,99.663724 -138.98333,152.05306 -138.98333,152.05306 C -138.63484,152.56416 -137.98968,152.78556 -137.39857,152.59831 L -103.7424,141.96459 C -103.31229,141.82801 -102.97373,141.49315 -102.83257,141.06467 C -102.78515,140.92039 -102.76088,140.77168 -102.76088,140.62628 C -102.76088,140.33219 -102.85352,140.04361 -103.03108,139.80017 C -103.03108,139.80017 -145.1614,81.938661 -146.37009,80.280384 C -145.10956,78.661197 -102.71125,24.172448 -102.71125,24.172448 C -102.51825,23.922411 -102.41789,23.618955 -102.41789,23.310538 C -102.41789,23.152471 -102.44326,22.993862 -102.4984,22.840206 C -102.65941,22.388045 -103.03989,22.050435 -103.50859,21.942494 L -137.84963,14.054773 C -138.39222,13.930307 -138.95796,14.137383 -139.29102,14.58238 C -139.29102,14.58238 -174.80545,62.065149 -179.32377,68.106229 C -179.27964,60.775307 -179.00503,14.05201 -179.00503,14.049258 C -179.00503,13.654374 -179.17045,13.278765 -179.4605,13.01331 C -179.75497,12.745654 -180.14648,12.614026 -180.54459,12.65092 z "
   style="fill:url(#linearGradient11794)"
   id="path233" /><polygon
   points="95.6416,148.22559 95.6416,30.53027 124.22754,27.79297 123.9248,79.49414 161.63672,29.01074 192.04785,36.00391 152.81543,86.4873 191.74219,140.01465 161.94043,149.44238 123.92676,93.78662 123.92676,143.96582 95.6416,148.22559 "
   transform="matrix(1.129298,0,0,1.12792,-320.7025,-17.29895)"
   style="fill:white"
   id="path5692_1_" /><path
   d="M -205.66651,23.514307 C -205.66651,34.329227 -205.66651,128.10132 -205.66651,141.73218 C -198.91002,140.71661 -193.22494,139.86186 -187.77807,139.04235 C -187.77807,130.35605 -187.77807,100.82195 -187.77807,93.484416 C -187.78026,93.487722 -187.90488,93.654045 -187.90488,93.654045 C -187.90488,93.654045 -187.77807,72.109024 -187.77807,72.107366 C -187.77807,69.555222 -187.77807,65.764466 -187.77807,65.764466 L -187.74166,65.819543 C -187.68983,57.091939 -187.54205,31.94616 -187.4814,21.776713 C -194.11271,22.409521 -199.9158,22.964672 -205.66651,23.514307 z M -175.12418,76.563966 C -175.12418,76.563966 -176.94717,79.001547 -177.87685,80.245124 C -176.8446,81.754155 -140.07295,135.5242 -134.96463,142.99668 C -130.08132,141.4524 -123.3397,139.32213 -115.58902,136.87242 C -124.26499,124.95768 -156.91867,80.111848 -156.91867,80.111848 C -156.91867,80.111848 -125.8321,40.158822 -116.12721,27.686177 C -124.35432,25.797136 -130.94592,24.282037 -135.27454,23.287404 C -140.07625,29.704091 -175.12418,76.563966 -175.12418,76.563966 z "
   style="fill:url(#linearGradient11790);fill-opacity:1"
   id="path256" /><path
   d="M -255.56792,45.88104 C -255.56902,45.882144 -268.23445,58.532133 -268.23445,58.532133 C -268.82282,59.120321 -269.12665,59.897976 -269.12665,60.683336 C -269.12665,61.224715 -268.98274,61.76995 -268.68498,62.260662 C -268.68498,62.260662 -255.02642,84.724329 -254.25831,85.991028 C -256.61891,90.079183 -258.52405,94.416281 -259.93898,98.920791 C -261.37597,99.218191 -286.41021,104.41939 -286.41021,104.41939 C -287.81577,104.70964 -288.83423,105.96258 -288.83423,107.39618 L -288.83423,125.28924 C -288.83423,126.69472 -287.87862,127.91076 -286.51221,128.24121 C -286.51221,128.24121 -262.29132,134.15618 -260.85048,134.50645 C -259.48296,139.83432 -257.47801,144.90558 -254.8803,149.62432 C -255.69695,150.86789 -269.74536,172.26862 -269.74536,172.26862 C -270.0773,172.7753 -270.23943,173.35249 -270.23943,173.92966 C -270.23943,174.71833 -269.93448,175.50259 -269.34723,176.08746 L -256.68344,188.73912 C -255.68537,189.73376 -254.14858,189.9177 -252.94594,189.18742 C -252.94594,189.18742 -230.87116,175.8011 -229.62715,175.04768 C -225.2274,177.5073 -220.57457,179.44151 -215.76072,180.81394 C -215.45523,182.28442 -210.33038,206.89267 -210.33038,206.89267 C -210.04089,208.29485 -208.78753,209.31593 -207.34888,209.31593 L -189.43341,209.31593 C -188.02729,209.31593 -186.81088,208.36096 -186.47672,206.99511 C -186.47672,206.99511 -180.41557,182.21724 -180.07369,180.81615 C -175.08559,179.39963 -170.28387,177.38172 -165.76117,174.80644 C -164.4896,175.64135 -142.81238,189.83839 -142.81238,189.83839 C -141.61361,190.62265 -140.00678,190.45743 -138.99217,189.44956 L -126.32067,176.79352 C -125.32482,175.79997 -125.13953,174.26562 -125.87182,173.065 L -134.49815,158.87018 C -134.83561,158.31613 -135.50503,158.0639 -136.12372,158.26106 C -136.12372,158.26106 -138.10992,158.8878 -138.60067,159.04422 C -140.10604,156.84346 -151.01965,140.88405 -151.01965,140.88405 C -151.29976,140.4743 -151.77397,140.24297 -152.27246,140.27493 C -152.76541,140.30576 -153.20766,140.59656 -153.43375,141.03715 C -162.02148,157.82045 -179.06242,168.24601 -197.90757,168.24601 C -211.24409,168.24601 -223.78216,163.05913 -233.21246,153.63923 C -242.64277,144.22044 -247.83655,131.69658 -247.83655,118.37741 C -247.83655,98.790272 -236.26898,80.935772 -218.36782,72.889432 C -217.86272,72.662527 -217.53904,72.161349 -217.53904,71.608407 L -217.53904,58.382876 C -217.53904,57.927411 -217.75961,57.501136 -218.13126,57.238432 C -218.50236,56.975176 -218.97823,56.907433 -219.40778,57.057785 C -222.51501,58.1444 -225.45626,59.448005 -228.21499,60.897007 C -229.4518,60.087963 -251.74387,45.486144 -251.74387,45.486144 C -252.94593,44.699149 -254.55442,44.866567 -255.56792,45.88104 z "
   style="fill:url(#linearGradient11787)"
   id="path271" /><path
   d="M -135.70022,159.59713 L -138.48928,160.48163 C -138.89733,160.60721 -139.33625,160.45629 -139.57887,160.10163 C -139.57887,160.10163 -145.07978,152.06078 -152.18202,141.676 C -160.676,158.27645 -177.95626,169.64817 -197.90754,169.64817 C -226.25799,169.64817 -249.24207,146.69325 -249.24207,118.3774 C -249.24207,97.548884 -236.8016,79.634908 -218.94403,71.608396 L -218.94403,58.382876 C -222.19407,59.519051 -225.33381,60.887094 -228.31808,62.51069 C -228.32358,62.507384 -228.328,62.502432 -228.33352,62.499127 L -252.51362,46.659788 C -253.1643,46.23462 -254.02339,46.322733 -254.57261,46.87238 L -267.24081,59.524567 C -267.77348,60.058231 -267.87328,60.887105 -267.48234,61.533121 L -252.64982,85.930988 C -255.28117,90.349038 -257.38757,95.11241 -258.89183,100.13683 L -286.12511,105.79406 C -286.88276,105.95047 -287.42921,106.62074 -287.42921,107.39618 L -287.42921,125.28924 C -287.42921,126.04596 -286.91309,126.70133 -286.1797,126.87978 L -259.75258,133.33117 C -258.34095,139.14811 -256.15957,144.66655 -253.2729,149.73667 L -268.56917,173.03745 C -268.99596,173.68732 -268.90552,174.54537 -268.35522,175.09391 L -255.68978,187.74665 C -255.15545,188.27867 -254.32282,188.38 -253.67767,187.98788 L -229.69994,173.44939 C -224.99525,176.16236 -219.91397,178.29921 -214.54815,179.74658 L -208.9535,206.60626 C -208.79691,207.36518 -208.12472,207.91153 -207.34888,207.91153 L -189.43341,207.91153 C -188.68127,207.91153 -188.02179,207.39604 -187.84313,206.66133 L -181.25592,179.73997 C -175.72193,178.24967 -170.4901,176.02907 -165.66412,173.19167 L -142.0415,188.66531 C -141.38972,189.08938 -140.53392,189.00236 -139.9814,188.45383 L -127.3143,175.80109 C -126.77833,175.26686 -126.68018,174.43965 -127.07278,173.79528 L -135.70022,159.59713 z "
   style="fill:white"
   id="path273" /><path
   d="M -259.28169,61.501179 C -256.10003,66.73433 -245.90381,83.504417 -245.25976,84.562946 C -241.14289,78.809351 -236.04231,73.759046 -230.02582,69.783784 C -231.05255,69.110777 -247.42461,58.387286 -252.70165,54.929728 C -255.13284,57.357394 -256.90675,59.130235 -259.28169,61.501179 z M -257.46147,107.00736 C -257.46147,107.00736 -274.3105,110.50952 -280.40198,111.77293 C -280.40198,115.20845 -280.40198,117.71322 -280.40198,121.06393 C -274.53271,122.49586 -256.75345,126.83571 -255.54862,127.1309 C -255.98092,124.25273 -256.26931,121.3404 -256.26931,118.37741 C -256.26931,114.31515 -255.70245,110.35533 -254.88415,106.47258 C -256.08789,106.72206 -257.46147,107.00736 -257.46147,107.00736 z M -247.39594,153.58413 C -247.39594,153.58413 -256.87422,168.02239 -260.28911,173.22579 C -257.85684,175.65567 -256.08403,177.42686 -253.71019,179.79725 C -248.49105,176.63269 -232.2651,166.79314 -231.25106,166.17739 C -234.04563,164.22557 -236.71228,162.05344 -239.17434,159.59384 C -241.71911,157.05382 -243.96613,154.3023 -245.96831,151.4087 C -246.64878,152.44741 -247.39594,153.58413 -247.39594,153.58413 z M -164.14001,165.79738 C -163.06475,166.50122 -147.08362,176.96973 -141.85181,180.39535 C -139.42449,177.97208 -137.64892,176.1976 -135.27453,173.82609 C -136.73248,171.42597 -137.50004,170.15925 -139.11459,167.50358 C -141.59927,167.40334 -143.92733,166.18951 -145.38087,164.06034 C -145.38087,164.06034 -148.7445,159.14553 -152.07946,154.26927 C -155.55998,158.71926 -159.6173,162.57775 -164.14001,165.79738 z M -197.90754,176.66683 C -201.40186,176.66683 -204.83717,176.31767 -208.20797,175.72176 C -207.95321,176.95101 -204.22676,194.83912 -202.96511,200.89287 C -199.5287,200.89287 -197.02196,200.89287 -193.6655,200.89287 C -192.22466,194.99773 -187.76923,176.79461 -187.4836,175.62924 C -190.89356,176.24056 -194.35753,176.66683 -197.90754,176.66683 z "
   style="fill:url(#linearGradient11783);fill-opacity:1"
   id="path294" /><path
   d="M -295.92162,-4.64943 C -303.30022,-4.64943 -309.26992,1.3129841 -309.26992,8.6825775 L -309.26992,210.47359 C -309.26992,217.84318 -303.30022,223.83682 -295.92162,223.83683 L 539.48816,223.83683 C 546.86675,223.83683 552.86772,217.84318 552.86772,210.47359 L 552.86772,8.6825775 C 552.86772,1.3129843 546.86675,-4.64943 539.48816,-4.64943 L -295.92162,-4.64943 z M -295.92162,-1.964295 L 539.48816,-1.964295 C 545.41009,-1.964295 550.14804,2.7678712 550.14804,8.6825775 L 550.14804,210.47359 C 550.14804,216.3883 545.41009,221.12047 539.48816,221.12047 L -295.92162,221.12047 C -301.84356,221.12047 -306.55024,216.38831 -306.55024,210.47359 L -306.55024,8.6825775 C -306.55024,2.7678709 -301.84356,-1.964295 -295.92162,-1.964295 z "
   style="fill:#676767;fill-opacity:1;fill-rule:nonzero;stroke:none;stroke-width:2.71317458;stroke-linecap:round;stroke-linejoin:round;stroke-miterlimit:10;stroke-dasharray:none;stroke-opacity:1"
   id="rect5723" /><rect
   width="5.4282002"
   height="223.12276"
   x="-78.716141"
   y="-2.0083435"
   style="fill:white;fill-opacity:1;fill-rule:nonzero;stroke:none;stroke-width:4;stroke-linecap:round;stroke-linejoin:round;stroke-miterlimit:10;stroke-dasharray:none;stroke-opacity:1"
   id="rect5737" /><path
   id="path6765"
   style="fill:black;fill-opacity:1"
   d="M 308.02946,156.51749 C 304.75465,156.51753 302.21482,157.75386 300.40998,160.22648 C 298.60509,162.69917 297.70266,166.17992 297.70268,170.66872 C 297.70266,175.13855 298.60509,178.60979 300.40998,181.08243 C 302.21482,183.5551 304.75465,184.79143 308.02946,184.79143 C 311.32285,184.79143 313.87198,183.5551 315.67686,181.08243 C 317.4817,178.60979 318.38412,175.13855 318.38416,170.66872 C 318.38412,166.17992 317.4817,162.69917 315.67686,160.22648 C 313.87198,157.75386 311.32285,156.51753 308.02946,156.51749 M 308.02946,148.55742 C 314.72789,148.55746 319.97501,150.51657 323.77083,154.43474 C 327.56657,158.353 329.46447,163.76431 329.46452,170.66872 C 329.46447,177.55415 327.56657,182.95596 323.77083,186.87417 C 319.97501,190.79239 314.72789,192.75149 308.02946,192.75149 C 301.3496,192.75149 296.10249,190.79239 292.2881,186.87417 C 288.4923,182.95596 286.59442,177.55415 286.59442,170.66872 C 286.59442,163.76431 288.4923,158.353 292.2881,154.43474 C 296.10249,150.51657 301.3496,148.55746 308.02946,148.55742" /><path
   id="path6767"
   style="fill:black;fill-opacity:1"
   d="M 337.55848,149.32775 L 366.55721,149.32775 L 366.55721,157.63019 L 348.30391,157.63019 L 348.30391,165.56172 L 365.4687,165.56172 L 365.4687,173.86417 L 348.30391,173.86417 L 348.30391,191.92411 L 337.55848,191.92411 L 337.55848,149.32775" /><path
   id="path6769"
   style="fill:black;fill-opacity:1"
   d="M 396.50487,149.32775 L 407.25032,149.32775 L 407.25032,164.87699 L 422.74049,149.32775 L 435.21635,149.32775 L 415.14891,169.49896 L 437.28171,191.92411 L 423.82898,191.92411 L 407.25032,175.14805 L 407.25032,191.92411 L 396.50487,191.92411 L 396.50487,149.32775" /><path
   id="path6771"
   style="fill:black;fill-opacity:1"
   d="M 451.57172,157.63019 L 451.57172,183.62166 L 455.42335,183.62166 C 459.81452,183.62167 463.16375,182.50897 465.47101,180.28357 C 467.79687,178.05819 468.95976,174.82471 468.95982,170.58313 C 468.95976,166.36061 467.80614,163.14615 465.49894,160.93975 C 463.19168,158.7334 459.83317,157.63022 455.42335,157.63019 L 451.57172,157.63019 M 440.8263,149.32775 L 452.15784,149.32775 C 458.48417,149.32779 463.19168,149.79379 466.28042,150.72575 C 469.38771,151.63877 472.04852,153.19845 474.26278,155.40479 C 476.21644,157.32588 477.66775,159.54177 478.61674,162.05244 C 479.56567,164.56317 480.04014,167.40674 480.04014,170.58313 C 480.04014,173.79761 479.56567,176.6697 478.61674,179.19941 C 477.66775,181.71012 476.21644,183.92601 474.26278,185.84706 C 472.02991,188.05344 469.35051,189.62263 466.22463,190.55464 C 463.09863,191.46761 458.40972,191.92411 452.15784,191.92411 L 440.8263,191.92411 L 440.8263,149.32775" /><path
   id="path6773"
   style="fill:black;fill-opacity:1"
   d="M 488.27372,149.32775 L 517.27239,149.32775 L 517.27239,157.63019 L 499.01914,157.63019 L 499.01914,165.56172 L 516.18389,165.56172 L 516.18389,173.86417 L 499.01914,173.86417 L 499.01914,183.62166 L 517.88644,183.62166 L 517.88644,191.92411 L 488.27372,191.92411 L 488.27372,149.32775" /><path
   id="path7759"
   style="fill:white;fill-opacity:1"
   d="M 310.74353,158.55058 C 307.46872,158.55062 304.92889,159.78695 303.12405,162.25957 C 301.31916,164.73226 300.41673,168.21301 300.41675,172.70181 C 300.41673,177.17164 301.31916,180.64288 303.12405,183.11552 C 304.92889,185.58819 307.46872,186.82453 310.74353,186.82453 C 314.03692,186.82453 316.58605,185.58819 318.39093,183.11552 C 320.19577,180.64288 321.09819,177.17164 321.09823,172.70181 C 321.09819,168.21301 320.19577,164.73226 318.39093,162.25957 C 316.58605,159.78695 314.03692,158.55062 310.74353,158.55058 M 310.74353,150.59051 C 317.44196,150.59055 322.68908,152.54966 326.4849,156.46783 C 330.28064,160.38609 332.17854,165.79741 332.17859,172.70181 C 332.17854,179.58724 330.28064,184.98905 326.4849,188.90726 C 322.68908,192.82548 317.44196,194.78458 310.74353,194.78458 C 304.06367,194.78458 298.81656,192.82548 295.00217,188.90726 C 291.20637,184.98905 289.30849,179.58724 289.30849,172.70181 C 289.30849,165.79741 291.20637,160.38609 295.00217,156.46783 C 298.81656,152.54966 304.06367,150.59055 310.74353,150.59051" /><path
   id="path7761"
   style="fill:white;fill-opacity:1"
   d="M 340.27255,151.36084 L 369.27128,151.36084 L 369.27128,159.66328 L 351.01798,159.66328 L 351.01798,167.59481 L 368.18277,167.59481 L 368.18277,175.89726 L 351.01798,175.89726 L 351.01798,193.9572 L 340.27255,193.9572 L 340.27255,151.36084" /><path
   id="path7763"
   style="fill:white;fill-opacity:1"
   d="M 399.21894,151.36084 L 409.96439,151.36084 L 409.96439,166.91009 L 425.45456,151.36084 L 437.93042,151.36084 L 417.86298,171.53205 L 439.99578,193.9572 L 426.54305,193.9572 L 409.96439,177.18114 L 409.96439,193.9572 L 399.21894,193.9572 L 399.21894,151.36084" /><path
   id="path7765"
   style="fill:white;fill-opacity:1"
   d="M 454.28579,159.66328 L 454.28579,185.65476 L 458.13742,185.65476 C 462.52859,185.65477 465.87782,184.54207 468.18508,182.31667 C 470.51094,180.09129 471.67383,176.8578 471.67389,172.61622 C 471.67383,168.3937 470.52021,165.17924 468.21301,162.97284 C 465.90575,160.7665 462.54724,159.66331 458.13742,159.66328 L 454.28579,159.66328 M 443.54037,151.36084 L 454.87191,151.36084 C 461.19824,151.36088 465.90575,151.82688 468.99449,152.75884 C 472.10178,153.67187 474.76259,155.23154 476.97685,157.43788 C 478.93051,159.35898 480.38182,161.57486 481.33081,164.08553 C 482.27974,166.59626 482.75421,169.43983 482.75421,172.61622 C 482.75421,175.8307 482.27974,178.70279 481.33081,181.2325 C 480.38182,183.74321 478.93051,185.9591 476.97685,187.88016 C 474.74398,190.08653 472.06458,191.65572 468.9387,192.58773 C 465.8127,193.5007 461.12379,193.9572 454.87191,193.9572 L 443.54037,193.9572 L 443.54037,151.36084" /><path
   id="path7767"
   style="fill:white;fill-opacity:1"
   d="M 490.98779,151.36084 L 519.98646,151.36084 L 519.98646,159.66328 L 501.73321,159.66328 L 501.73321,167.59481 L 518.89796,167.59481 L 518.89796,175.89726 L 501.73321,175.89726 L 501.73321,185.65476 L 520.60051,185.65476 L 520.60051,193.9572 L 490.98779,193.9572 L 490.98779,151.36084" /><g
   id="g6721"
   style="fill:#3c5fb5;fill-opacity:1"
   transform="matrix(0.605803,0,0,0.619271,-165.2025,-4.994357)"><path
     id="path6673"
     style="fill:#3c5fb5;fill-opacity:1"
     d="M 783.40547,261.90417 C 777.99972,261.90423 773.80722,263.90066 770.82796,267.89346 C 767.84864,271.88637 766.359,277.50709 766.35902,284.75563 C 766.359,291.97352 767.84864,297.57888 770.82796,301.57172 C 773.80722,305.5646 777.99972,307.56103 783.40547,307.56102 C 788.84187,307.56103 793.04972,305.5646 796.02906,301.57172 C 799.0083,297.57888 800.49794,291.97352 800.498,284.75563 C 800.49794,277.50709 799.0083,271.88637 796.02906,267.89346 C 793.04972,263.90066 788.84187,261.90423 783.40547,261.90417 M 783.40547,249.05022 C 794.46258,249.05029 803.12401,252.21387 809.38979,258.54095 C 815.65544,264.86816 818.7883,273.60637 818.78838,284.75563 C 818.7883,295.87424 815.65544,304.5971 809.38979,310.92423 C 803.12401,317.25139 794.46258,320.41496 783.40547,320.41496 C 772.379,320.41496 763.71757,317.25139 757.42116,310.92423 C 751.15543,304.5971 748.02257,295.87424 748.02257,284.75563 C 748.02257,273.60637 751.15543,264.86816 757.42116,258.54095 C 763.71757,252.21387 772.379,249.05029 783.40547,249.05022" /><path
     id="path6669"
     style="fill:#3c5fb5;fill-opacity:1"
     d="M 832.14911,250.29416 L 880.01739,250.29416 L 880.01739,263.70096 L 849.88663,263.70096 L 849.88663,276.50883 L 878.2206,276.50883 L 878.2206,289.91564 L 849.88663,289.91564 L 849.88663,319.07889 L 832.14911,319.07889 L 832.14911,250.29416" /><path
     id="path6667"
     style="fill:#3c5fb5;fill-opacity:1"
     d="M 929.4521,250.29416 L 947.18962,250.29416 L 947.18962,275.40312 L 972.7593,250.29416 L 993.35325,250.29416 L 960.22785,282.8667 L 996.76254,319.07889 L 974.55608,319.07889 L 947.18962,291.98885 L 947.18962,319.07889 L 929.4521,319.07889 L 929.4521,250.29416" /><path
     id="path6665"
     style="fill:#3c5fb5;fill-opacity:1"
     d="M 1020.3511,263.70096 L 1020.3511,305.67208 L 1026.709,305.67208 C 1033.9575,305.6721 1039.4861,303.87531 1043.2947,300.28172 C 1047.134,296.68817 1049.0536,291.46674 1049.0537,284.61741 C 1049.0536,277.79887 1047.1493,272.60816 1043.3408,269.04525 C 1039.5322,265.48244 1033.9883,263.70101 1026.709,263.70096 L 1020.3511,263.70096 M 1002.6136,250.29416 L 1021.3186,250.29416 C 1031.7615,250.29422 1039.5322,251.04672 1044.6308,252.55166 C 1049.76,254.02601 1054.1522,256.54458 1057.8073,260.10738 C 1061.0322,263.20958 1063.4279,266.7878 1064.9944,270.84204 C 1066.5608,274.89637 1067.344,279.48816 1067.344,284.61741 C 1067.344,289.80816 1066.5608,294.44602 1064.9944,298.531 C 1063.4279,302.58531 1061.0322,306.16353 1057.8073,309.26566 C 1054.1215,312.82853 1049.6986,315.36246 1044.5387,316.86746 C 1039.3786,318.34174 1031.6386,319.07889 1021.3186,319.07889 L 1002.6136,319.07889 L 1002.6136,250.29416" /><path
     id="flowRoot5765"
     style="fill:#3c5fb5;fill-opacity:1"
     d="M 1080.9352,250.29416 L 1128.8034,250.29416 L 1128.8034,263.70096 L 1098.6727,263.70096 L 1098.6727,276.50883 L 1127.0066,276.50883 L 1127.0066,289.91564 L 1098.6727,289.91564 L 1098.6727,305.67208 L 1129.817,305.67208 L 1129.817,319.07889 L 1080.9352,319.07889 L 1080.9352,250.29416" /></g><flowRoot
   xml:space="preserve"
   id="flowRoot7256"
   transform="matrix(6.275634,0,0,6.275634,-155.2546,-412.373)"
   style="font-size:12px;font-style:normal;font-variant:normal;font-weight:bold;font-stretch:normal;text-align:start;line-height:125%;writing-mode:lr-tb;text-anchor:start;fill:#060912;fill-opacity:1;font-family:Bitstream Vera Sans"><flowRegion
     id="flowRegion7258"><rect
       id="rect7260"
       width="372.13477"
       height="120.69235"
       x="27.104212"
       y="75.206512"
       style="font-size:12px;font-style:normal;font-variant:normal;font-weight:bold;font-stretch:normal;text-align:start;line-height:125%;writing-mode:lr-tb;text-anchor:start;fill:#060912;fill-opacity:1;font-family:Bitstream Vera Sans" /></flowRegion><flowPara
     id="flowPara7262">SUPPORTER</flowPara></flowRoot><flowRoot
   xml:space="preserve"
   id="flowRoot7264"
   transform="matrix(6.275634,0,0,6.275634,-152.5978,-411.0446)"
   style="font-size:12px;font-style:normal;font-variant:normal;font-weight:bold;font-stretch:normal;text-align:start;line-height:125%;writing-mode:lr-tb;text-anchor:start;fill:white;fill-opacity:1;font-family:Bitstream Vera Sans"><flowRegion
     id="flowRegion7266"><rect
       id="rect7268"
       width="372.13477"
       height="120.69235"
       x="27.104212"
       y="75.206512"
       style="font-size:12px;font-style:normal;font-variant:normal;font-weight:bold;font-stretch:normal;text-align:start;line-height:125%;writing-mode:lr-tb;text-anchor:start;fill:white;fill-opacity:1;font-family:Bitstream Vera Sans" /></flowRegion><flowPara
     id="flowPara7270">SUPPORTER</flowPara></flowRoot><flowRoot
   xml:space="preserve"
   id="flowRoot7280"
   transform="matrix(6.275634,0,0,6.275634,-153.9262,-411.7088)"
   style="font-size:12px;font-style:normal;font-variant:normal;font-weight:bold;font-stretch:normal;text-align:start;line-height:125%;writing-mode:lr-tb;text-anchor:start;fill:#3c5fb5;fill-opacity:1;font-family:Bitstream Vera Sans"><flowRegion
     id="flowRegion7282"><rect
       id="rect7284"
       width="372.13477"
       height="120.69235"
       x="27.104212"
       y="75.206512"
       style="font-size:12px;font-style:normal;font-variant:normal;font-weight:bold;font-stretch:normal;text-align:start;line-height:125%;writing-mode:lr-tb;text-anchor:start;fill:#3c5fb5;fill-opacity:1;font-family:Bitstream Vera Sans" /></flowRegion><flowPara
     id="flowPara7286">SUPPORTER</flowPara></flowRoot><path
   d="M -68.412392,3.1225396 C -68.145777,3.8002364 -68.774261,4.1678336 -68.095735,4.1520509 C -68.095735,38.773818 -68.095735,129.54975 -68.095735,138.51804 C -38.529097,128.89218 94.970547,102.94286 280.7373,102.94286 C 484.0125,102.94286 543.86707,73.649299 543.86707,40.860401 C 543.86707,39.443891 543.86707,20.417867 543.86707,20.417867 C 543.86707,4.2042988 543.24333,3.1241865 519.75999,3.1241865 L -43.985493,3.1241865 L -68.412392,3.1225396 z "
   style="fill:url(#linearGradient11750);fill-opacity:1"
   id="path5747" /></svg>