<?xml version="1.0" encoding="UTF-8" standalone="no"?>
<!-- Created with Inkscape (http://www.inkscape.org/) -->
<svg
   xmlns:dc="http://purl.org/dc/elements/1.1/"
   xmlns:cc="http://web.resource.org/cc/"
   xmlns:rdf="http://www.w3.org/1999/02/22-rdf-syntax-ns#"
   xmlns:svg="http://www.w3.org/2000/svg"
   xmlns="http://www.w3.org/2000/svg"
   xmlns:xlink="http://www.w3.org/1999/xlink"
   xmlns:sodipodi="http://inkscape.sourceforge.net/DTD/sodipodi-0.dtd"
   xmlns:inkscape="http://www.inkscape.org/namespaces/inkscape"
   width="128"
   height="128"
   id="svg1307"
   sodipodi:version="0.32"
   inkscape:version="0.43"
   version="1.0"
   sodipodi:docbase="/home/pinheiro/Documents/pics/new oxygen/svg"
   sodipodi:docname="pencil.svg">
  <defs
     id="defs1309">
    <linearGradient
       id="linearGradient3325">
      <stop
         id="stop3327"
         offset="0"
         style="stop-color:#ffffff;stop-opacity:1;" />
      <stop
         id="stop3329"
         offset="1"
         style="stop-color:#ffffff;stop-opacity:0;" />
    </linearGradient>
    <linearGradient
       id="linearGradient3311">
      <stop
         style="stop-color:#2d2d2d;stop-opacity:1;"
         offset="0"
         id="stop3313" />
      <stop
         id="stop3319"
         offset="0.5"
         style="stop-color:#000000;stop-opacity:1;" />
      <stop
         style="stop-color:#000000;stop-opacity:1;"
         offset="1"
         id="stop3315" />
    </linearGradient>
    <linearGradient
       id="linearGradient3303">
      <stop
         style="stop-color:#ffffff;stop-opacity:0.68345326;"
         offset="0"
         id="stop3305" />
      <stop
         style="stop-color:#ffffff;stop-opacity:0;"
         offset="1"
         id="stop3307" />
    </linearGradient>
    <linearGradient
       inkscape:collect="always"
       id="linearGradient3291">
      <stop
         style="stop-color:#000000;stop-opacity:1;"
         offset="0"
         id="stop3293" />
      <stop
         style="stop-color:#000000;stop-opacity:0;"
         offset="1"
         id="stop3295" />
    </linearGradient>
    <linearGradient
       id="linearGradient3273">
      <stop
         style="stop-color:#ffffff;stop-opacity:0.55035973;"
         offset="0"
         id="stop3275" />
      <stop
         style="stop-color:#ffffff;stop-opacity:0;"
         offset="1"
         id="stop3277" />
    </linearGradient>
    <linearGradient
       id="linearGradient3259">
      <stop
         id="stop3261"
         offset="0"
         style="stop-color:#ffffff;stop-opacity:0.55035973;" />
      <stop
         id="stop3263"
         offset="1"
         style="stop-color:#000000;stop-opacity:0;" />
    </linearGradient>
    <linearGradient
       id="linearGradient3251">
      <stop
         style="stop-color:#000000;stop-opacity:1;"
         offset="0"
         id="stop3253" />
      <stop
         style="stop-color:#131313;stop-opacity:0;"
         offset="1"
         id="stop3255" />
    </linearGradient>
    <linearGradient
       inkscape:collect="always"
       id="linearGradient3235">
      <stop
         style="stop-color:#ffffff;stop-opacity:1;"
         offset="0"
         id="stop3237" />
      <stop
         style="stop-color:#ffffff;stop-opacity:0;"
         offset="1"
         id="stop3239" />
    </linearGradient>
    <linearGradient
       id="linearGradient3225">
      <stop
         style="stop-color:#ffffff;stop-opacity:1;"
         offset="0"
         id="stop3227" />
      <stop
         style="stop-color:#aeaeae;stop-opacity:1;"
         offset="1"
         id="stop3229" />
    </linearGradient>
    <linearGradient
       inkscape:collect="always"
       id="linearGradient3217">
      <stop
         style="stop-color:#252525;stop-opacity:1;"
         offset="0"
         id="stop3219" />
      <stop
         style="stop-color:#252525;stop-opacity:0;"
         offset="1"
         id="stop3221" />
    </linearGradient>
    <linearGradient
       id="linearGradient3207">
      <stop
         style="stop-color:#ffffff;stop-opacity:1;"
         offset="0"
         id="stop3209" />
      <stop
         style="stop-color:#252525;stop-opacity:0;"
         offset="1"
         id="stop3211" />
    </linearGradient>
    <linearGradient
       id="linearGradient2257">
      <stop
         style="stop-color:#b4942a;stop-opacity:1;"
         offset="0"
         id="stop2259" />
      <stop
         style="stop-color:#e4dcc9;stop-opacity:1"
         offset="1"
         id="stop2261" />
    </linearGradient>
    <radialGradient
       inkscape:collect="always"
       xlink:href="#linearGradient3291"
       id="radialGradient3297"
       cx="63.912209"
       cy="115.70919"
       fx="14.046639"
       fy="115.70919"
       r="63.912209"
       gradientTransform="matrix(1,0,0,0.197802,0,92.82166)"
       gradientUnits="userSpaceOnUse" />
    <radialGradient
       inkscape:collect="always"
       xlink:href="#linearGradient2257"
       id="radialGradient1405"
       gradientUnits="userSpaceOnUse"
       gradientTransform="matrix(1.519831,9.412826e-2,-0.895354,13.78472,115.1882,-1545.166)"
       cx="42.617531"
       cy="120.64188"
       fx="42.617531"
       fy="120.64188"
       r="3.406888" />
    <radialGradient
       inkscape:collect="always"
       xlink:href="#linearGradient3311"
       id="radialGradient1407"
       gradientUnits="userSpaceOnUse"
       gradientTransform="matrix(6.22884e-2,-1.47547e-4,1.889714e-3,0.798624,69.12243,5.487066)"
       cx="95.505852"
       cy="59.591507"
       fx="95.505852"
       fy="59.591507"
       r="47.746404" />
    <radialGradient
       inkscape:collect="always"
       xlink:href="#linearGradient3225"
       id="radialGradient1409"
       gradientUnits="userSpaceOnUse"
       gradientTransform="matrix(1.297066,3.012623e-3,-1.134728e-3,0.488669,7.096503,-13.69501)"
       cx="49.009884"
       cy="8.4953122"
       fx="47.370888"
       fy="6.7701697"
       r="3.9750405" />
    <linearGradient
       inkscape:collect="always"
       xlink:href="#linearGradient3217"
       id="linearGradient1411"
       gradientUnits="userSpaceOnUse"
       gradientTransform="matrix(1.29707,-3.693584e-16,3.693584e-16,1.29707,7.064707,-20.57911)"
       x1="48.914677"
       y1="2.9719031"
       x2="48.913002"
       y2="2.5548496" />
    <radialGradient
       inkscape:collect="always"
       xlink:href="#linearGradient3207"
       id="radialGradient1413"
       gradientUnits="userSpaceOnUse"
       gradientTransform="matrix(1.29707,-4.501275e-16,6.640356e-17,0.1578,7.064707,-17.56653)"
       cx="49.011971"
       cy="2.6743078"
       fx="49.011971"
       fy="2.6743078"
       r="1.7246193" />
    <linearGradient
       inkscape:collect="always"
       xlink:href="#linearGradient3235"
       id="linearGradient1415"
       gradientUnits="userSpaceOnUse"
       gradientTransform="matrix(1.297066,3.012623e-3,-3.012623e-3,1.297066,7.112448,-20.56258)"
       x1="48.498562"
       y1="0.81150496"
       x2="48.732723"
       y2="2.3657269" />
    <linearGradient
       inkscape:collect="always"
       xlink:href="#linearGradient3251"
       id="linearGradient1417"
       gradientUnits="userSpaceOnUse"
       gradientTransform="matrix(1.28993,-5.022494e-16,5.050298e-16,1.29707,7.402337,-20.57911)"
       x1="46.051746"
       y1="3.0999987"
       x2="46.051746"
       y2="2.395859" />
    <radialGradient
       inkscape:collect="always"
       xlink:href="#linearGradient3273"
       id="radialGradient1419"
       gradientUnits="userSpaceOnUse"
       gradientTransform="matrix(0.860164,-2.800126e-16,6.473209e-17,0.1578,24.75801,-17.56653)"
       cx="49.011971"
       cy="2.6743078"
       fx="49.011971"
       fy="2.6743078"
       r="1.7246193" />
    <linearGradient
       inkscape:collect="always"
       xlink:href="#linearGradient3251"
       id="linearGradient1421"
       gradientUnits="userSpaceOnUse"
       gradientTransform="matrix(1.279856,4.983275e-16,-5.050298e-16,1.29707,-133.3868,-20.57911)"
       x1="46.051746"
       y1="3.0999987"
       x2="46.051746"
       y2="2.395859" />
    <radialGradient
       inkscape:collect="always"
       xlink:href="#linearGradient3259"
       id="radialGradient1423"
       gradientUnits="userSpaceOnUse"
       gradientTransform="matrix(0.853446,3.872019e-16,-5.817635e-17,0.1578,-116.1668,-17.56653)"
       cx="49.011971"
       cy="2.6743078"
       fx="49.011971"
       fy="2.6743078"
       r="1.7246193" />
    <radialGradient
       inkscape:collect="always"
       xlink:href="#linearGradient3303"
       id="radialGradient1425"
       gradientUnits="userSpaceOnUse"
       gradientTransform="matrix(1,7.573576e-17,-1.374554e-18,2.608014e-2,-7.697455e-14,7.26766)"
       cx="34.677639"
       cy="7.4622769"
       fx="34.677639"
       fy="7.4622769"
       r="47.595197" />
    <radialGradient
       inkscape:collect="always"
       xlink:href="#linearGradient3325"
       id="radialGradient1427"
       gradientUnits="userSpaceOnUse"
       gradientTransform="matrix(-1.511766,-6.865741e-3,4.187271e-5,-9.110636e-3,87.10184,7.76835)"
       cx="34.677639"
       cy="7.4622769"
       fx="34.677639"
       fy="7.4622769"
       r="47.595196" />
    <radialGradient
       inkscape:collect="always"
       xlink:href="#linearGradient3259"
       id="radialGradient1433"
       gradientUnits="userSpaceOnUse"
       gradientTransform="matrix(0.853446,3.879821e-16,-5.832064e-17,0.1578,-115.9141,-7.300115)"
       cx="49.011971"
       cy="2.6743078"
       fx="49.011971"
       fy="2.6743078"
       r="1.7246193" />
    <linearGradient
       inkscape:collect="always"
       xlink:href="#linearGradient3251"
       id="linearGradient1436"
       gradientUnits="userSpaceOnUse"
       gradientTransform="matrix(1.279856,4.994967e-16,-5.062158e-16,1.29707,-133.1341,-10.31269)"
       x1="46.051746"
       y1="3.0999987"
       x2="46.051746"
       y2="2.395859" />
    <radialGradient
       inkscape:collect="always"
       xlink:href="#linearGradient3273"
       id="radialGradient1439"
       gradientUnits="userSpaceOnUse"
       gradientTransform="matrix(0.860164,-2.80798e-16,6.487638e-17,0.1578,24.50481,-7.300115)"
       cx="49.011971"
       cy="2.6743078"
       fx="49.011971"
       fy="2.6743078"
       r="1.7246193" />
    <linearGradient
       inkscape:collect="always"
       xlink:href="#linearGradient3251"
       id="linearGradient1442"
       gradientUnits="userSpaceOnUse"
       gradientTransform="matrix(1.28993,-5.034291e-16,5.062158e-16,1.29707,7.14915,-10.31269)"
       x1="46.051746"
       y1="3.0999987"
       x2="46.051746"
       y2="2.395859" />
    <linearGradient
       inkscape:collect="always"
       xlink:href="#linearGradient3235"
       id="linearGradient1445"
       gradientUnits="userSpaceOnUse"
       gradientTransform="matrix(1.297068,-1.880044e-3,1.880044e-3,1.297068,6.796523,-10.3225)"
       x1="48.498562"
       y1="0.81150496"
       x2="48.732723"
       y2="2.3657269" />
    <radialGradient
       inkscape:collect="always"
       xlink:href="#linearGradient3207"
       id="radialGradient1448"
       gradientUnits="userSpaceOnUse"
       gradientTransform="matrix(1.29707,-4.513135e-16,6.654785e-17,0.1578,6.81152,-7.300115)"
       cx="49.011971"
       cy="2.6743078"
       fx="49.011971"
       fy="2.6743078"
       r="1.7246193" />
    <linearGradient
       inkscape:collect="always"
       xlink:href="#linearGradient3217"
       id="linearGradient1451"
       gradientUnits="userSpaceOnUse"
       gradientTransform="matrix(1.29707,-3.705444e-16,3.705444e-16,1.29707,6.81152,-10.31269)"
       x1="48.914677"
       y1="2.9719031"
       x2="48.913002"
       y2="2.5548496" />
    <radialGradient
       inkscape:collect="always"
       xlink:href="#linearGradient3225"
       id="radialGradient1455"
       gradientUnits="userSpaceOnUse"
       gradientTransform="matrix(1.297068,-1.880044e-3,7.085819e-4,0.48867,6.806484,-3.45491)"
       cx="49.009884"
       cy="8.4953122"
       fx="47.370888"
       fy="6.7701697"
       r="3.9750405" />
    <radialGradient
       inkscape:collect="always"
       xlink:href="#linearGradient3311"
       id="radialGradient1462"
       gradientUnits="userSpaceOnUse"
       gradientTransform="matrix(6.228741e-2,-3.825032e-4,4.90218e-3,0.798611,68.90433,5.49306)"
       cx="95.505852"
       cy="59.591507"
       fx="95.505852"
       fy="59.591507"
       r="47.746404" />
    <radialGradient
       inkscape:collect="always"
       xlink:href="#linearGradient2257"
       id="radialGradient1466"
       gradientUnits="userSpaceOnUse"
       gradientTransform="matrix(1.520175,8.839467e-2,-0.843351,13.788,109.1206,-1545.323)"
       cx="42.617531"
       cy="120.64188"
       fx="42.617531"
       fy="120.64188"
       r="3.406888" />
    <radialGradient
       inkscape:collect="always"
       xlink:href="#linearGradient3325"
       id="radialGradient1470"
       gradientUnits="userSpaceOnUse"
       gradientTransform="matrix(-1.511766,-6.865741e-3,4.187271e-5,-9.110636e-3,87.10184,7.76835)"
       cx="34.677639"
       cy="7.4622769"
       fx="34.677639"
       fy="7.4622769"
       r="47.595196" />
    <radialGradient
       inkscape:collect="always"
       xlink:href="#linearGradient2257"
       id="radialGradient1495"
       gradientUnits="userSpaceOnUse"
       gradientTransform="matrix(1.520175,8.839467e-2,-0.843351,13.788,109.1206,-1545.323)"
       cx="42.617531"
       cy="120.64188"
       fx="42.617531"
       fy="120.64188"
       r="3.406888" />
    <radialGradient
       inkscape:collect="always"
       xlink:href="#linearGradient3311"
       id="radialGradient1497"
       gradientUnits="userSpaceOnUse"
       gradientTransform="matrix(6.228741e-2,-3.825032e-4,4.90218e-3,0.798611,68.90433,5.49306)"
       cx="95.505852"
       cy="59.591507"
       fx="95.505852"
       fy="59.591507"
       r="47.746404" />
    <radialGradient
       inkscape:collect="always"
       xlink:href="#linearGradient3225"
       id="radialGradient1499"
       gradientUnits="userSpaceOnUse"
       gradientTransform="matrix(1.297068,-1.880044e-3,7.085819e-4,0.48867,6.806484,-3.45491)"
       cx="49.009884"
       cy="8.4953122"
       fx="47.370888"
       fy="6.7701697"
       r="3.9750405" />
    <linearGradient
       inkscape:collect="always"
       xlink:href="#linearGradient3217"
       id="linearGradient1501"
       gradientUnits="userSpaceOnUse"
       gradientTransform="matrix(1.29707,-4.816791e-16,4.816791e-16,1.29707,6.81152,-10.31269)"
       x1="48.914677"
       y1="2.9719031"
       x2="48.913002"
       y2="2.5548496" />
    <radialGradient
       inkscape:collect="always"
       xlink:href="#linearGradient3207"
       id="radialGradient1503"
       gradientUnits="userSpaceOnUse"
       gradientTransform="matrix(1.29707,-5.624482e-16,8.006836e-17,0.1578,6.81152,-7.300115)"
       cx="49.011971"
       cy="2.6743078"
       fx="49.011971"
       fy="2.6743078"
       r="1.7246193" />
    <linearGradient
       inkscape:collect="always"
       xlink:href="#linearGradient3235"
       id="linearGradient1505"
       gradientUnits="userSpaceOnUse"
       gradientTransform="matrix(1.297068,-1.880044e-3,1.880044e-3,1.297068,6.796523,-10.3225)"
       x1="48.498562"
       y1="0.81150496"
       x2="48.732723"
       y2="2.3657269" />
    <linearGradient
       inkscape:collect="always"
       xlink:href="#linearGradient3251"
       id="linearGradient1507"
       gradientUnits="userSpaceOnUse"
       gradientTransform="matrix(1.28993,-6.139521e-16,6.173505e-16,1.29707,7.14915,-10.31269)"
       x1="46.051746"
       y1="3.0999987"
       x2="46.051746"
       y2="2.395859" />
    <radialGradient
       inkscape:collect="always"
       xlink:href="#linearGradient3273"
       id="radialGradient1509"
       gradientUnits="userSpaceOnUse"
       gradientTransform="matrix(0.860164,-3.544979e-16,7.839689e-17,0.1578,24.50481,-7.300115)"
       cx="49.011971"
       cy="2.6743078"
       fx="49.011971"
       fy="2.6743078"
       r="1.7246193" />
    <linearGradient
       inkscape:collect="always"
       xlink:href="#linearGradient3251"
       id="linearGradient1511"
       gradientUnits="userSpaceOnUse"
       gradientTransform="matrix(1.279856,6.091564e-16,-6.173505e-16,1.29707,-133.1341,-10.31269)"
       x1="46.051746"
       y1="3.0999987"
       x2="46.051746"
       y2="2.395859" />
    <radialGradient
       inkscape:collect="always"
       xlink:href="#linearGradient3259"
       id="radialGradient1513"
       gradientUnits="userSpaceOnUse"
       gradientTransform="matrix(0.853446,4.611065e-16,-7.184115e-17,0.1578,-115.9141,-7.300115)"
       cx="49.011971"
       cy="2.6743078"
       fx="49.011971"
       fy="2.6743078"
       r="1.7246193" />
    <radialGradient
       inkscape:collect="always"
       xlink:href="#linearGradient3303"
       id="radialGradient1515"
       gradientUnits="userSpaceOnUse"
       gradientTransform="matrix(1,4.829241e-17,-4.139216e-19,2.608014e-2,-1.206578e-13,7.26766)"
       cx="34.677639"
       cy="7.4622769"
       fx="34.677639"
       fy="7.4622769"
       r="47.595197" />
    <radialGradient
       inkscape:collect="always"
       xlink:href="#linearGradient3325"
       id="radialGradient1517"
       gradientUnits="userSpaceOnUse"
       gradientTransform="matrix(-1.511766,-6.865741e-3,4.187271e-5,-9.110636e-3,87.10184,7.76835)"
       cx="34.677639"
       cy="7.4622769"
       fx="34.677639"
       fy="7.4622769"
       r="47.595196" />
  </defs>
  <sodipodi:namedview
     id="base"
     pagecolor="#ffffff"
     bordercolor="#666666"
     borderopacity="1.0"
     inkscape:pageopacity="0.0"
     inkscape:pageshadow="2"
     inkscape:zoom="5.1359064"
     inkscape:cx="63.912209"
     inkscape:cy="55.896296"
     inkscape:current-layer="layer1"
     showgrid="false"
     inkscape:document-units="px"
     inkscape:grid-bbox="true"
     guidetolerance="0.1px"
     showguides="true"
     inkscape:guide-bbox="true"
     inkscape:window-width="1106"
     inkscape:window-height="958"
     inkscape:window-x="601"
     inkscape:window-y="25">
    <sodipodi:guide
       orientation="horizontal"
       position="32.487481"
       id="guide2204" />
  </sodipodi:namedview>
  <metadata
     id="metadata1312">
    <rdf:RDF>
      <cc:Work
         rdf:about="">
        <dc:format>image/svg+xml</dc:format>
        <dc:type
           rdf:resource="http://purl.org/dc/dcmitype/StillImage" />
        <cc:license
           rdf:resource="http://creativecommons.org/licenses/GPL/2.0/" />
        <dc:contributor>
          <cc:Agent>
            <dc:title>Oxygen team</dc:title>
          </cc:Agent>
        </dc:contributor>
      </cc:Work>
      <cc:License
         rdf:about="http://creativecommons.org/licenses/LGPL/2.1/">
        <cc:permits
           rdf:resource="http://web.resource.org/cc/Reproduction" />
        <cc:permits
           rdf:resource="http://web.resource.org/cc/Distribution" />
        <cc:requires
           rdf:resource="http://web.resource.org/cc/Notice" />
        <cc:permits
           rdf:resource="http://web.resource.org/cc/DerivativeWorks" />
        <cc:requires
           rdf:resource="http://web.resource.org/cc/ShareAlike" />
        <cc:requires
           rdf:resource="http://web.resource.org/cc/SourceCode" />
      </cc:License>
    </rdf:RDF>
  </metadata>
  <g
     id="layer1"
     inkscape:label="Layer 1"
     inkscape:groupmode="layer">
    <path
       sodipodi:nodetypes="ccc"
       id="path2276"
       d="M 50.892799,3.2812959 L 50.892799,0.48658747 L 50.892799,3.2812959 z "
       style="fill:#ffffff;fill-opacity:0.75688076;fill-rule:nonzero;stroke:none;stroke-width:0.5;stroke-linecap:round;stroke-linejoin:round;stroke-miterlimit:4;stroke-dasharray:none;stroke-dashoffset:4;stroke-opacity:1" />
    <path
       sodipodi:type="arc"
       style="opacity:0.38139535;fill:url(#radialGradient3297);fill-opacity:1.0;fill-rule:nonzero;stroke:none;stroke-width:0;stroke-linecap:round;stroke-linejoin:round;stroke-miterlimit:4;stroke-dasharray:none;stroke-dashoffset:4;stroke-opacity:1"
       id="path3289"
       sodipodi:cx="63.912209"
       sodipodi:cy="115.70919"
       sodipodi:rx="63.912209"
       sodipodi:ry="12.641975"
       d="M 127.82442 115.70919 A 63.912209 12.641975 0 1 1  0,115.70919 A 63.912209 12.641975 0 1 1  127.82442 115.70919 z"
       transform="matrix(1,0,0,0.416667,0,74.87151)" />
    <g
       id="g1472"
       transform="matrix(0.764262,0.737862,-0.730204,0.772278,64.83148,-42.32352)">
      <path
         sodipodi:nodetypes="czccccc"
         id="path3180"
         d="M 65.169465,-7.034757 C 65.168687,-7.565057 67.024978,-8.983048 70.354911,-8.987878 C 73.717491,-8.992758 75.545046,-7.714034 75.545991,-7.049789 C 75.546627,-6.61744 75.547256,-6.185087 75.547892,-5.752739 C 72.089034,-5.747715 68.630193,-5.742704 65.171343,-5.737687 C 65.170714,-6.170041 65.170086,-6.602395 65.169465,-7.034757 C 65.169465,-7.034757 65.169465,-7.034757 65.169465,-7.034757"
         style="fill:#000000;fill-opacity:1;fill-rule:evenodd;stroke:none;stroke-width:1px;stroke-linecap:butt;stroke-linejoin:miter;stroke-opacity:1" />
      <path
         style="fill:#000000;fill-opacity:1;fill-rule:evenodd;stroke:#000000;stroke-width:0;stroke-linecap:butt;stroke-linejoin:miter;stroke-miterlimit:4;stroke-dasharray:none;stroke-opacity:1"
         d="M 70.593568,145.60994 L 75.745752,120.70446 L 75.745501,120.53158 L 65.368688,120.36296 L 65.368983,120.59724 L 70.593568,145.60994 z "
         id="path3299"
         sodipodi:nodetypes="cccccc" />
      <path
         sodipodi:nodetypes="cccccc"
         id="path2247"
         d="M 70.65277,143.91392 L 75.463081,120.69459 L 75.46283,120.52172 L 65.65136,120.37282 L 65.651653,120.60711 L 70.65277,143.91392 z "
         style="fill:url(#radialGradient1495);fill-opacity:1;fill-rule:evenodd;stroke:#000000;stroke-width:0;stroke-linecap:butt;stroke-linejoin:miter;stroke-miterlimit:4;stroke-dasharray:none;stroke-opacity:1" />
      <path
         sodipodi:nodetypes="csccccsz"
         id="rect2192"
         d="M 70.558637,121.44462 C 71.838498,121.44276 72.318986,120.5503 72.776478,120.54963 C 72.850408,120.54952 72.923514,120.57527 72.992142,120.61164 L 72.793287,-6.526984 L 67.763349,-6.519689 L 67.96242,120.7747 C 68.076371,120.65026 68.192661,120.55627 68.33736,120.55606 C 68.75553,120.55546 69.27283,121.44648 70.558637,121.44462 z "
         style="fill:#252525;fill-opacity:1;fill-rule:nonzero;stroke:none;stroke-width:0.5;stroke-linecap:round;stroke-linejoin:round;stroke-miterlimit:4;stroke-dasharray:none;stroke-dashoffset:4;stroke-opacity:1" />
      <path
         id="rect2190"
         d="M 72.609651,-6.526708 L 72.808415,120.54959 C 73.244134,120.58517 73.553702,121.35859 74.326279,121.35746 C 75.158885,121.35627 75.207425,120.58818 75.745566,120.58427 L 75.546747,-6.530964 L 72.609651,-6.526708 z "
         style="fill:url(#radialGradient1497);fill-opacity:1;fill-rule:nonzero;stroke:none;stroke-width:0.5;stroke-linecap:round;stroke-linejoin:round;stroke-miterlimit:4;stroke-dasharray:none;stroke-dashoffset:4;stroke-opacity:1"
         sodipodi:nodetypes="ccsccc" />
      <path
         sodipodi:nodetypes="ccsccc"
         style="opacity:0.35348834;fill:#000000;fill-opacity:1;fill-rule:nonzero;stroke:none;stroke-width:0.5;stroke-linecap:round;stroke-linejoin:round;stroke-miterlimit:4;stroke-dasharray:none;stroke-dashoffset:4;stroke-opacity:1"
         d="M 72.803974,117.4852 L 72.808625,120.69816 C 73.242139,120.73373 73.550353,121.65573 74.318997,121.65461 C 75.147364,121.65341 75.195445,120.73679 75.730843,120.73287 L 75.726118,117.48095 L 72.803974,117.4852 z "
         id="path2233" />
      <path
         sodipodi:nodetypes="cccccccccc"
         style="opacity:0.38604653;fill:#252525;fill-opacity:1;fill-rule:nonzero;stroke:none;stroke-width:0.5;stroke-linecap:round;stroke-linejoin:round;stroke-miterlimit:4;stroke-dasharray:none;stroke-dashoffset:4;stroke-opacity:1"
         d="M 68.335802,118.99481 L 68.338192,120.64299 L 68.337574,120.70465 C 68.689775,120.7156 69.035191,121.62405 70.231868,121.73065 L 70.295738,121.73055 L 70.750827,121.72989 L 70.814703,121.7298 C 72.023229,121.61974 72.354907,120.69883 72.812383,120.69816 L 72.805308,118.94772 L 68.335802,118.99481 z "
         id="path2231" />
      <path
         sodipodi:nodetypes="ccsccccccc"
         style="opacity:0.35348834;fill:#131313;fill-opacity:1;fill-rule:nonzero;stroke:none;stroke-width:0.5;stroke-linecap:round;stroke-linejoin:round;stroke-miterlimit:4;stroke-dasharray:none;stroke-dashoffset:4;stroke-opacity:1"
         d="M 65.412913,118.98164 L 65.369653,120.60095 C 65.385655,120.60089 65.386461,120.73772 65.402558,120.7377 C 65.730882,120.73722 66.099284,121.62369 66.750248,121.7357 L 66.80613,121.73561 L 67.053636,121.73526 L 67.085568,121.7352 C 67.758167,121.62592 67.995051,120.76318 68.337574,120.70465 L 68.335073,118.97741 L 65.412913,118.98164 z "
         id="path2229" />
      <path
         sodipodi:nodetypes="cccccsz"
         id="rect1315"
         d="M 66.930113,121.42668 C 67.72734,121.41622 67.910769,120.55668 68.33736,120.55606 L 68.13861,-6.520239 L 65.170213,-6.515926 L 65.369024,120.59932 C 65.385276,120.59925 65.401331,120.59927 65.417687,120.59926 C 65.751207,120.59877 66.126847,121.43713 66.930113,121.42668 z "
         style="fill:#131313;fill-opacity:1;fill-rule:nonzero;stroke:none;stroke-width:0.5;stroke-linecap:round;stroke-linejoin:round;stroke-miterlimit:4;stroke-dasharray:none;stroke-dashoffset:4;stroke-opacity:1" />
      <path
         style="fill:url(#radialGradient1499);fill-opacity:1;fill-rule:nonzero;stroke:none;stroke-width:0.5;stroke-linecap:round;stroke-linejoin:round;stroke-miterlimit:4;stroke-dasharray:none;stroke-dashoffset:4;stroke-opacity:1"
         d="M 65.182329,-1.292825 C 64.852819,-0.068318 64.90463,1.4837179 65.187957,2.5921478 L 73.494702,2.5422895 L 73.489067,-1.342676 L 65.182329,-1.292825 z M 72.612346,-1.341393 L 72.61798,2.5435729 L 75.540359,2.5393267 C 75.844093,1.4906653 75.87073,-0.058624 75.534726,-1.345638 L 72.612346,-1.341393 z "
         id="path2274"
         sodipodi:nodetypes="cccccccccc" />
      <path
         sodipodi:nodetypes="cccc"
         id="path2265"
         d="M 72.829004,134.92196 C 71.717244,135.7698 69.410274,135.0453 68.408864,135.09858 L 70.591227,145.60581 L 72.829004,134.92196 z "
         style="fill:#000000;fill-opacity:1;fill-rule:evenodd;stroke:none;stroke-width:0;stroke-linecap:butt;stroke-linejoin:miter;stroke-miterlimit:4;stroke-dasharray:none;stroke-opacity:1" />
      <rect
         transform="matrix(0.999999,-1.449784e-3,1.449784e-3,0.999999,0,0)"
         style="fill:url(#linearGradient1501);fill-opacity:1;fill-rule:nonzero;stroke:none;stroke-width:0;stroke-linecap:round;stroke-linejoin:round;stroke-miterlimit:4;stroke-dasharray:none;stroke-dashoffset:4;stroke-opacity:1"
         id="rect3215"
         width="4.4739041"
         height="0.62928963"
         x="68.146553"
         y="-6.9210901" />
      <rect
         transform="matrix(0.999999,-1.449784e-3,1.449784e-3,0.999999,0,0)"
         y="-7.2711196"
         x="68.146553"
         height="0.97931457"
         width="4.4739041"
         id="rect3205"
         style="fill:url(#radialGradient1503);fill-opacity:1;fill-rule:nonzero;stroke:none;stroke-width:0;stroke-linecap:round;stroke-linejoin:round;stroke-miterlimit:4;stroke-dasharray:none;stroke-dashoffset:4;stroke-opacity:1" />
      <path
         sodipodi:nodetypes="cszsss"
         id="path3233"
         d="M 69.451496,-8.839782 C 71.464159,-8.995428 73.450274,-8.49738 73.606171,-8.418196 C 73.762061,-8.339004 71.334596,-8.711215 69.769694,-8.473714 C 68.216751,-8.238035 66.839524,-7.027766 66.668495,-7.015304 C 66.497467,-7.002842 65.170665,-7.107678 65.812348,-7.63717 C 66.48352,-8.190995 67.897517,-8.718894 69.451496,-8.839782 z "
         style="fill:url(#linearGradient1505);fill-opacity:1;fill-rule:evenodd;stroke:none;stroke-width:1px;stroke-linecap:butt;stroke-linejoin:miter;stroke-opacity:1" />
      <rect
         transform="matrix(0.999999,-1.449784e-3,1.449784e-3,0.999999,0,0)"
         y="-6.9210901"
         x="65.179703"
         height="0.62928963"
         width="2.9669151"
         id="rect3243"
         style="fill:url(#linearGradient1507);fill-opacity:1;fill-rule:nonzero;stroke:none;stroke-width:0;stroke-linecap:round;stroke-linejoin:round;stroke-miterlimit:4;stroke-dasharray:none;stroke-dashoffset:4;stroke-opacity:1" />
      <rect
         transform="matrix(0.999999,-1.449784e-3,1.449784e-3,0.999999,0,0)"
         style="fill:url(#radialGradient1509);fill-opacity:1;fill-rule:nonzero;stroke:none;stroke-width:0;stroke-linecap:round;stroke-linejoin:round;stroke-miterlimit:4;stroke-dasharray:none;stroke-dashoffset:4;stroke-opacity:1"
         id="rect3245"
         width="2.9669151"
         height="0.97931457"
         x="65.179703"
         y="-7.2711196" />
      <rect
         transform="matrix(-0.999999,1.449784e-3,1.449784e-3,0.999999,0,0)"
         style="fill:url(#linearGradient1511);fill-opacity:1;fill-rule:nonzero;stroke:none;stroke-width:0;stroke-linecap:round;stroke-linejoin:round;stroke-miterlimit:4;stroke-dasharray:none;stroke-dashoffset:4;stroke-opacity:1"
         id="rect3265"
         width="2.9437442"
         height="0.62928963"
         x="-75.556259"
         y="-6.9210901" />
      <rect
         transform="matrix(-0.999999,1.449784e-3,1.449784e-3,0.999999,0,0)"
         y="-7.2711196"
         x="-75.556259"
         height="0.97931457"
         width="2.9437442"
         id="rect3267"
         style="fill:url(#radialGradient1513);fill-opacity:1;fill-rule:nonzero;stroke:none;stroke-width:0;stroke-linecap:round;stroke-linejoin:round;stroke-miterlimit:4;stroke-dasharray:none;stroke-dashoffset:4;stroke-opacity:1" />
      <path
         id="text3284"
         d="M 73.899894,112.63959 C 73.900129,112.89197 73.949695,113.08765 74.048568,113.22664 C 74.147464,113.36565 74.286542,113.43506 74.465819,113.43489 C 74.644338,113.43472 74.78291,113.36504 74.881543,113.22587 C 74.980156,113.08667 75.029359,112.89091 75.029123,112.63854 C 75.028886,112.38472 74.979321,112.18833 74.880437,112.04932 C 74.781545,111.91032 74.642844,111.84092 74.464326,111.84108 C 74.285041,111.84125 74.146099,111.91093 74.047475,112.05011 C 73.948847,112.18929 73.899656,112.38578 73.899894,112.63959 M 73.581972,112.63988 C 73.581497,112.12367 73.659354,111.71923 73.815571,111.42656 C 73.97178,111.1339 74.187778,110.98744 74.463526,110.98718 C 74.738527,110.98693 74.954398,111.13298 75.111164,111.42535 C 75.267927,111.71773 75.346548,112.12202 75.347033,112.63824 C 75.347509,113.15301 75.269653,113.55745 75.113438,113.85156 C 74.957223,114.14422 74.741619,114.29068 74.466616,114.29094 C 74.19087,114.2912 73.974605,114.14514 73.817853,113.85277 C 73.661087,113.55896 73.582465,113.15467 73.581972,112.63988 M 74.442035,108.72876 L 75.309277,107.61378 L 75.31009,108.4763 L 74.729651,109.22749 L 75.311491,109.97116 L 75.312303,110.83796 L 74.442968,109.72463 L 73.611014,110.79655 L 73.610201,109.93189 L 74.157633,109.22804 L 73.608888,108.52736 L 73.608073,107.6584 L 74.442035,108.72876 M 73.607986,107.56806 L 73.60714,106.66254 L 74.212653,105.93067 L 73.605764,105.19993 L 73.604917,104.29226 L 74.590574,105.51519 L 75.307312,105.51451 L 75.308091,106.34262 L 74.591347,106.34328 L 73.607986,107.56806 M 75.176649,101.04939 C 75.230007,101.25583 75.270089,101.47016 75.296886,101.69239 C 75.323687,101.91463 75.337196,102.14405 75.337416,102.38064 C 75.337916,102.9155 75.259309,103.33929 75.101595,103.65204 C 74.943131,103.96479 74.728284,104.12128 74.457089,104.12154 C 74.182844,104.1218 73.966955,103.96283 73.809419,103.64465 C 73.65186,103.32646 73.57284,102.89062 73.572315,102.33713 C 73.572119,102.12347 73.582557,101.91912 73.603647,101.72409 C 73.624732,101.52762 73.656093,101.34263 73.697696,101.16907 L 74.049811,101.16875 C 73.996037,101.34804 73.955942,101.5266 73.929519,101.70443 C 73.903093,101.88082 73.889967,102.05794 73.890136,102.23574 C 73.890443,102.56554 73.939683,102.82001 74.037841,102.99916 C 74.135252,103.17688 74.274736,103.26566 74.456284,103.26548 C 74.636327,103.26532 74.775263,103.17914 74.873102,103.00698 C 74.97093,102.83482 75.0197,102.5903 75.019401,102.27339 C 75.019325,102.18737 75.016587,102.10779 75.011196,102.03465 C 75.005053,101.9601 74.995877,101.89342 74.983662,101.83465 L 74.65321,101.83495 L 74.653685,102.34042 L 74.359706,102.34069 L 74.358497,101.05016 L 75.176649,101.04939 M 73.601197,100.32387 L 73.599102,98.089095 L 73.930679,98.088779 L 73.931999,99.495463 L 74.248779,99.495166 L 74.24754,98.172368 L 74.579127,98.172055 L 74.580367,99.494853 L 74.970078,99.494489 L 74.968717,98.04049 L 75.300306,98.040177 L 75.302447,100.32228 L 73.601197,100.32387 M 73.598371,97.312618 L 73.597501,96.387735 L 74.763237,95.218705 L 73.596407,95.2198 L 73.595673,94.434729 L 75.296923,94.433134 L 75.297792,95.35802 L 74.132047,96.527044 L 75.298888,96.525953 L 75.299621,97.311024 L 73.598371,97.312618 M 73.593482,92.098862 L 73.59262,91.173986 L 74.758347,90.004951 L 73.591524,90.006052 L 73.590783,89.220974 L 75.292033,89.21938 L 75.292904,90.144263 L 74.127157,91.313288 L 75.293999,91.312198 L 75.294733,92.097269 L 73.593482,92.098862 M 73.558475,87.577722 C 73.558198,87.2723 73.600122,87.031359 73.684276,86.854903 C 73.768441,86.677021 73.882677,86.588011 74.027016,86.587873 C 74.171347,86.587741 74.285379,86.675819 74.369105,86.85211 C 74.452839,87.028411 74.494846,87.269985 74.495132,87.576843 C 74.495424,87.883707 74.45387,88.12608 74.370466,88.303963 C 74.287071,88.480414 74.173203,88.56871 74.028872,88.568842 C 73.884534,88.568981 73.770128,88.480896 73.685636,88.304602 C 73.60115,88.126876 73.558771,87.884584 73.558475,87.577722 M 74.638402,88.462876 L 74.636745,86.692696 L 74.864635,86.692481 L 74.866297,88.462668 L 74.638402,88.462876 M 73.752185,87.57754 C 73.752308,87.697993 73.776325,87.791175 73.824236,87.857088 C 73.872156,87.921574 73.940176,87.953772 74.028297,87.953687 C 74.116417,87.953606 74.183997,87.92128 74.231036,87.856707 C 74.278074,87.790706 74.301537,87.697477 74.301414,87.577025 C 74.301312,87.458011 74.277676,87.366264 74.230516,87.301776 C 74.183355,87.235863 74.115712,87.202947 74.027593,87.203027 C 73.939474,87.203112 73.871515,87.236155 73.823715,87.302159 C 73.775927,87.366734 73.752083,87.458527 73.752185,87.57754 M 74.368687,82.758963 C 74.398114,82.54242 74.44962,82.378186 74.523195,82.266269 C 74.596019,82.152922 74.689025,82.096194 74.802216,82.096087 C 74.970855,82.095929 75.09935,82.217691 75.187698,82.461375 C 75.275286,82.705063 75.3193,83.060637 75.319739,83.528093 C 75.319893,83.692996 75.312839,83.858622 75.298554,84.024973 C 75.285039,84.189887 75.264303,84.353373 75.236354,84.515431 L 74.897914,84.515748 C 74.938799,84.360849 74.969795,84.207387 74.990923,84.055372 C 75.011289,83.901923 75.021407,83.751349 75.02127,83.603657 C 75.021062,83.384269 75.000776,83.216514 74.960407,83.100403 C 74.920027,82.982862 74.862242,82.924125 74.787032,82.924193 C 74.709552,82.924268 74.651109,82.984545 74.611721,83.105031 C 74.571572,83.224089 74.551608,83.400478 74.551828,83.634208 L 74.552138,83.965444 L 74.269548,83.965709 L 74.269221,83.617265 C 74.269027,83.409348 74.251792,83.254502 74.217505,83.152722 C 74.18247,83.050948 74.129623,83.000093 74.058983,83.000157 C 73.993642,83.000221 73.943179,83.049735 73.907562,83.148712 C 73.871956,83.247688 73.854235,83.387509 73.854396,83.568184 C 73.85453,83.701541 73.862635,83.836323 73.878705,83.972527 C 73.894793,84.10874 73.918469,84.244221 73.949735,84.37898 L 73.628406,84.37928 C 73.603942,84.215837 73.585561,84.053824 73.573251,83.893231 C 73.560949,83.732646 73.554731,83.574919 73.554577,83.420053 C 73.554195,83.002786 73.590352,82.69087 73.663089,82.484314 C 73.735064,82.276329 73.843976,82.172268 73.989827,82.172127 C 74.089347,82.172039 74.171062,82.221434 74.234965,82.320312 C 74.298098,82.419194 74.342676,82.565414 74.368687,82.758963"
         style="font-size:12px;font-style:normal;font-variant:normal;font-weight:bold;font-stretch:normal;text-align:start;line-height:125%;writing-mode:lr-tb;text-anchor:start;fill:#999999;fill-opacity:1;stroke:none;stroke-width:1px;stroke-linecap:butt;stroke-linejoin:miter;stroke-opacity:1;font-family:Bitstream Vera Sans" />
      <path
         transform="matrix(-1.707371e-3,-0.970486,-0.976293,1.717633e-3,74.01985,74.41449)"
         d="M 82.172836 7.4622769 A 47.495197 1.1412895 0 1 1  -12.817558,7.4622769 A 47.495197 1.1412895 0 1 1  82.172836 7.4622769 z"
         sodipodi:ry="1.1412895"
         sodipodi:rx="47.495197"
         sodipodi:cy="7.4622769"
         sodipodi:cx="34.677639"
         id="path3301"
         style="fill:url(#radialGradient1515);fill-opacity:1;fill-rule:nonzero;stroke:none;stroke-width:0.2;stroke-linecap:round;stroke-linejoin:round;stroke-miterlimit:4;stroke-dasharray:none;stroke-dashoffset:4;stroke-opacity:1"
         sodipodi:type="arc" />
      <path
         sodipodi:open="true"
         sodipodi:end="6.2517655"
         sodipodi:start="0"
         sodipodi:type="arc"
         style="fill:url(#radialGradient1517);fill-opacity:1;fill-rule:nonzero;stroke:none;stroke-width:0.2;stroke-linecap:round;stroke-linejoin:round;stroke-miterlimit:4;stroke-dasharray:none;stroke-dashoffset:4;stroke-opacity:1"
         id="path3321"
         sodipodi:cx="34.677639"
         sodipodi:cy="7.4622769"
         sodipodi:rx="71.883232"
         sodipodi:ry="0.4230493"
         d="M 106.56087,7.4622769 A 71.883232,0.4230493 0 1 1 106.52539,7.448987"
         transform="matrix(-1.707371e-3,-0.904973,-0.976293,1.601684e-3,75.38297,88.46857)" />
    </g>
  </g>
</svg>
