<?xml version="1.0" encoding="UTF-8" standalone="no"?>
<!-- Created with Inkscape (http://www.inkscape.org/) -->
<svg
   xmlns:dc="http://purl.org/dc/elements/1.1/"
   xmlns:cc="http://web.resource.org/cc/"
   xmlns:rdf="http://www.w3.org/1999/02/22-rdf-syntax-ns#"
   xmlns:svg="http://www.w3.org/2000/svg"
   xmlns="http://www.w3.org/2000/svg"
   xmlns:sodipodi="http://inkscape.sourceforge.net/DTD/sodipodi-0.dtd"
   xmlns:inkscape="http://www.inkscape.org/namespaces/inkscape"
   version="1.0"
   width="128"
   height="128"
   viewBox="0 0 128 112.043"
   id="Livello_1"
   xml:space="preserve"
   sodipodi:version="0.32"
   inkscape:version="0.43"
   sodipodi:docname="folder_music.svg"
   sodipodi:docbase="/Users/David/Documents/Version Cue/Oxygen/documents/icons/filesystems"><metadata
   id="metadata102"><rdf:RDF><cc:Work
       rdf:about=""><dc:format>image/svg+xml</dc:format><dc:type
         rdf:resource="http://purl.org/dc/dcmitype/StillImage" /></cc:Work></rdf:RDF></metadata><sodipodi:namedview
   inkscape:window-height="537"
   inkscape:window-width="739"
   inkscape:pageshadow="2"
   inkscape:pageopacity="0.0"
   borderopacity="1.0"
   bordercolor="#666666"
   pagecolor="#ffffff"
   id="base"
   inkscape:zoom="3.3380042"
   inkscape:cx="64"
   inkscape:cy="68.004708"
   inkscape:window-x="861"
   inkscape:window-y="327"
   inkscape:current-layer="Livello_1" /><defs
   id="defs187" />







<g
   id="g1401"
   transform="translate(0,7.97803)"><g
     id="g3">
	<g
   id="g5">
		<path
   id="path7"
   style="opacity:0.05"
   d="M 13.223,85.92 C 10.419,85.92 8.14,88.199 8.14,91.003 C 8.14,93.805 10.419,96.086 13.223,96.086 L 112.781,96.086 C 115.582,96.086 117.863,93.805 117.863,91.003 C 117.863,88.199 115.582,85.92 112.781,85.92 L 13.223,85.92 z " />
		<path
   id="path9"
   style="opacity:0.1"
   d="M 13.223,86.936 C 10.979,86.936 9.156,88.759 9.156,91.003 C 9.156,93.245 10.979,95.07 13.223,95.07 L 112.781,95.07 C 115.023,95.07 116.847,93.245 116.847,91.003 C 116.847,88.759 115.023,86.936 112.781,86.936 L 13.223,86.936 z " />
		<path
   id="path11"
   style="opacity:0.15"
   d="M 13.223,87.951 C 11.54,87.951 10.171,89.32 10.171,91.003 C 10.171,92.686 11.54,94.055 13.223,94.055 L 112.781,94.055 C 114.463,94.055 115.832,92.686 115.832,91.003 C 115.832,89.32 114.463,87.951 112.781,87.951 L 13.223,87.951 L 13.223,87.951 z " />
		<path
   id="path13"
   style="opacity:0.2"
   d="M 13.223,88.967 C 12.1,88.967 11.187,89.88 11.187,91.003 C 11.187,92.124 12.1,93.039 13.223,93.039 L 112.781,93.039 C 113.902,93.039 114.816,92.124 114.816,91.003 C 114.816,89.88 113.902,88.967 112.781,88.967 L 13.223,88.967 z " />
		<path
   id="path15"
   style="opacity:0.25"
   d="M 13.223,89.983 C 12.66,89.983 12.203,90.439 12.203,91.003 C 12.203,91.567 12.659,92.023 13.223,92.023 L 112.781,92.023 C 113.343,92.023 113.801,91.567 113.801,91.003 C 113.801,90.439 113.344,89.983 112.781,89.983 L 13.223,89.983 z " />
	</g>
	<g
   id="g17">
		<radialGradient
   gradientUnits="userSpaceOnUse"
   id="XMLID_12_"
   r="111.0006"
   cy="-24.957001"
   cx="51.9995">
			<stop
   id="stop20"
   offset="0.15000001"
   style="stop-color:#80b3ff;stop-opacity:1" />
			<stop
   id="stop22"
   offset="0.31600001"
   style="stop-color:#69a1f0;stop-opacity:1" />
			<stop
   id="stop24"
   offset="0.60290003"
   style="stop-color:#4888da;stop-opacity:1" />
			<stop
   id="stop26"
   offset="0.84119999"
   style="stop-color:#3378cc;stop-opacity:1" />
			<stop
   id="stop28"
   offset="1"
   style="stop-color:#2c72c7;stop-opacity:1" />
		</radialGradient>
		<path
   id="path30"
   style="fill:url(#XMLID_12_)"
   d="M 13.188,0 C 12.067,0 11.157,0.911 11.157,2.031 L 11.157,87.728 C 11.157,89.534 12.625,91.002 14.43,91.002 L 111.572,91.002 C 113.377,91.002 114.845,89.533 114.845,87.728 L 114.845,2.031 C 114.845,0.911 113.935,0 112.814,0 L 13.188,0 z " />
		<g
   id="g32">
			<path
   id="path34"
   style="opacity:0.05"
   d="M 14.237,12.869 C 13.693,12.869 13.166,13.092 12.787,13.478 C 12.408,13.864 12.195,14.397 12.206,14.938 C 12.206,14.94 13.579,85.603 13.579,85.603 C 13.6,86.701 14.512,87.595 15.61,87.595 L 110.389,87.595 C 111.489,87.595 112.399,86.7 112.42,85.603 L 113.793,14.94 C 113.805,14.396 113.592,13.864 113.213,13.478 C 112.832,13.091 112.305,12.869 111.762,12.869 L 14.237,12.869 L 14.237,12.869 z " />
			<path
   id="path36"
   style="opacity:0.1"
   d="M 14.237,13.885 C 13.964,13.885 13.704,13.994 13.511,14.19 C 13.32,14.385 13.215,14.648 13.221,14.921 L 14.594,85.584 C 14.604,86.138 15.056,86.58 15.61,86.58 L 110.389,86.58 C 110.944,86.58 111.395,86.138 111.405,85.584 L 112.778,14.921 C 112.782,14.648 112.68,14.385 112.487,14.19 C 112.296,13.995 112.034,13.885 111.762,13.885 L 14.237,13.885 L 14.237,13.885 z " />
			
				<radialGradient
   gradientTransform="matrix(1.0151,0,0,1.0491,-1.0186,-0.5628)"
   gradientUnits="userSpaceOnUse"
   id="XMLID_13_"
   fy="8.2027998"
   fx="63.066601"
   r="122.3935"
   cy="-9.9082003"
   cx="42.378899">
				<stop
   id="stop39"
   offset="0"
   style="stop-color:#ffffff;stop-opacity:1" />
				<stop
   id="stop41"
   offset="0.37279999"
   style="stop-color:#dddddd;stop-opacity:1" />
				<stop
   id="stop43"
   offset="0.76920003"
   style="stop-color:#babdb6;stop-opacity:1" />
				<stop
   id="stop45"
   offset="1"
   style="stop-color:#888888;stop-opacity:1" />
			</radialGradient>
			<polygon
   id="polygon47"
   style="fill:url(#XMLID_13_)"
   points="110.39,86.58 15.61,86.58 14.237,15.917 111.763,15.917 110.39,86.58 " />
		</g>
		<path
   id="path49"
   style="opacity:0.4;fill:#ffffff"
   d="M 12.173,1.016 C 12.173,2.487 12.173,7.798 12.173,9.268 C 14.023,9.268 36.657,9.268 37.442,9.268 C 37.906,8.804 43.379,3.33 45.692,1.016 C 41.542,1.016 13.965,1.016 12.173,1.016 z " />
		<g
   id="g51">
			<path
   id="path53"
   style="opacity:0.05"
   d="M 28.919,37.498 L 42.842,29.07 L 114.845,29.07 L 114.845,24.568 L 47.051,24.568 C 46.03,24.568 45.044,24.921 44.275,25.561 C 44.275,25.561 34.573,33.63 34,34.109 C 33.228,34.109 11.745,34.109 11.745,34.109 C 11.547,34.109 11.352,34.143 11.158,34.169 L 11.158,37.498 L 28.919,37.498 L 28.919,37.498 z " />
			<g
   id="g55">
				<path
   id="path57"
   style="opacity:0.1"
   d="M 42.842,29.07 L 43.128,29.07 L 114.845,29.07 L 114.845,25.526 L 47.034,25.526 C 46.268,25.526 45.528,25.792 44.953,26.272 C 44.953,26.272 41.286,29.326 38.263,31.843 L 42.842,29.07 z " />
				<path
   id="path59"
   style="opacity:0.1"
   d="M 32.907,35.084 C 27.878,35.084 11.694,35.084 11.694,35.084 C 11.512,35.084 11.334,35.111 11.157,35.142 L 11.157,37.498 L 28.919,37.498 L 32.907,35.084 z " />
			</g>
			<path
   id="path61"
   style="opacity:0.15"
   d="M 114.845,28.07 L 114.845,26.447 L 47.003,26.447 C 46.747,26.447 46.501,26.536 46.309,26.697 C 46.309,26.697 45.656,27.242 44.663,28.07 L 114.845,28.07 z " />
		</g>
		<g
   id="g63">
			<path
   id="path65"
   style="opacity:0.2"
   d="M 28.919,36.498 L 29.673,36.042 C 22.721,36.042 11.596,36.042 11.596,36.042 C 11.443,36.042 11.294,36.076 11.158,36.133 L 11.158,36.498 L 28.919,36.498 z " />
			<polygon
   id="polygon67"
   style="opacity:0.2"
   points="114.845,28.07 114.845,27.411 46.985,27.411 46.197,28.07 114.845,28.07 " />
		</g>
		<linearGradient
   gradientUnits="userSpaceOnUse"
   id="XMLID_14_"
   y2="141.6749"
   x2="63.9995"
   y1="9.2006998"
   x1="63.9995">
			<stop
   id="stop70"
   offset="0"
   style="stop-color:#bfd9ff;stop-opacity:1" />
			<stop
   id="stop72"
   offset="0.2189"
   style="stop-color:#80b3ff;stop-opacity:1" />
			<stop
   id="stop74"
   offset="0.2933"
   style="stop-color:#6ea5f3;stop-opacity:1" />
			<stop
   id="stop76"
   offset="0.44260001"
   style="stop-color:#3e80d3;stop-opacity:1" />
			<stop
   id="stop78"
   offset="0.4941"
   style="stop-color:#2c72c7;stop-opacity:1" />
			<stop
   id="stop80"
   offset="0.69999999"
   style="stop-color:#00438a;stop-opacity:1" />
		</linearGradient>
		<path
   id="path82"
   style="opacity:0.85;fill:url(#XMLID_14_)"
   d="M 43.18,28.07 C 42.781,28.07 42.39,28.178 42.048,28.385 C 42.048,28.385 29.611,35.914 28.646,36.497 C 27.481,36.497 2.183,36.497 2.183,36.497 C 1.493,36.497 0.842,36.825 0.431,37.38 C 0.147,37.763 0,38.219 0,38.681 C 0,38.894 0.032,39.106 0.094,39.314 C 0.094,39.314 10.288,74.45 10.413,89.452 C 10.692,90.373 11.54,91.004 12.502,91.004 L 112.95,91.004 C 113.913,91.004 114.761,90.373 115.04,89.452 C 115.04,74.45 127.907,30.885 127.907,30.885 C 128.106,30.224 127.981,29.508 127.569,28.952 C 127.159,28.398 126.508,28.071 125.817,28.071 L 43.18,28.071 L 43.18,28.07 z " />
		<linearGradient
   gradientUnits="userSpaceOnUse"
   id="XMLID_15_"
   y2="32.830101"
   x2="230.237"
   y1="32.830101"
   x1="-37.875">
			<stop
   id="stop85"
   offset="0"
   style="stop-color:#2c72c7;stop-opacity:1" />
			<stop
   id="stop87"
   offset="0.29589999"
   style="stop-color:#ffffff;stop-opacity:1" />
			<stop
   id="stop89"
   offset="1"
   style="stop-color:#2c72c7;stop-opacity:1" />
		</linearGradient>
		<path
   id="path91"
   style="fill:url(#XMLID_15_)"
   d="M 41.838,28.509 C 40.249,29.471 29.534,35.959 28.64,36.498 C 27.475,36.498 2.177,36.498 2.177,36.498 C 1.487,36.498 0.836,36.826 0.425,37.381 C 0.377,37.445 0.358,37.523 0.316,37.59 L 28.64,37.59 L 42.563,29.161 L 127.685,29.161 C 127.646,29.092 127.615,29.016 127.564,28.951 C 127.154,28.397 126.503,28.07 125.812,28.07 L 43.174,28.07 C 42.775,28.07 42.384,28.178 42.042,28.385 L 41.838,28.509 z " />
	</g>
</g><path
     id="path93"
     style="opacity:0.1"
     d="M 88.394,87.795 C 88.278,87.82 88.191,87.861 88.09,87.926 L 70.896,98.977 C 70.856,99.004 69.905,100.22 69.905,100.22 C 69.823,100.324 69.784,100.416 69.749,100.544 C 69.515,101.404 69.395,102.274 69.395,103.129 C 69.395,104.749 69.828,106.308 70.646,107.636 C 71.957,109.758 74.154,111.227 76.832,111.771 C 81.258,112.667 86.753,111.317 91.177,108.254 C 95.122,105.526 97.739,101.775 98.358,97.961 C 98.475,97.367 99.501,91.821 97.418,90.225 C 95.042,87.993 91.892,87.702 90.198,87.544 C 90.197,87.544 89.825,87.508 89.825,87.508 C 89.727,87.503 88.394,87.795 88.394,87.795 z " /><path
     id="path95"
     style="opacity:0.15"
     d="M 89.727,88.503 C 89.711,88.503 88.631,88.767 88.631,88.767 L 71.438,99.817 C 71.431,99.822 70.714,100.807 70.714,100.807 C 70.501,101.587 70.396,102.368 70.396,103.128 C 70.396,104.559 70.768,105.925 71.499,107.11 C 72.663,108.995 74.628,110.3 77.032,110.789 C 81.195,111.633 86.396,110.349 90.608,107.431 C 94.332,104.857 96.796,101.346 97.371,97.8 C 97.788,95.687 98.012,91.939 96.809,91.018 C 94.609,88.956 91.68,88.685 90.106,88.539 C 90.104,88.54 89.727,88.503 89.727,88.503 z " /><path
     id="path97"
     style="opacity:0.1"
     d="M 105.258,39.159 L 105.046,38.906 C 99.147,31.842 95.849,28.657 93.064,29.667 C 92.105,30.015 90.961,30.97 90.961,33.547 C 90.961,33.547 90.961,83.355 90.961,85.972 C 87.248,84.714 81.998,84.537 76.786,87.617 C 75.16,88.576 73.691,89.729 72.409,91.003 L 98.298,91.003 C 98.303,90.309 98.304,89.494 98.304,88.511 C 98.304,88.511 98.311,51.183 98.311,50.81 C 101.817,53.059 104.223,55.885 105.333,59.304 C 105.908,61.071 106.199,63.039 106.199,65.157 C 106.199,73.461 101.835,81.284 101.648,81.612 C 101.65,81.609 101.389,82.595 101.389,82.595 C 101.389,83.27 101.725,83.894 102.288,84.266 C 103.166,84.843 104.348,84.641 104.981,83.806 C 106.049,82.398 115.42,69.855 115.42,63.142 C 115.422,51.277 107.771,42.156 105.258,39.159 z " /><path
     id="path99"
     style="opacity:0.15"
     d="M 104.491,39.801 L 104.279,39.548 C 98.923,33.134 95.603,29.81 93.404,30.607 C 92.446,30.954 91.961,31.943 91.961,33.547 C 91.961,33.547 91.961,84.158 91.961,87.35 C 88.182,85.599 82.61,85.337 77.295,88.478 C 76.05,89.212 74.909,90.071 73.87,91.002 L 97.303,91.002 C 97.307,82.38 97.31,55.936 97.311,48.981 C 101.838,51.431 104.91,54.76 106.285,58.995 C 106.892,60.861 107.2,62.934 107.2,65.156 C 107.2,73.721 102.712,81.764 102.52,82.103 C 102.432,82.257 102.39,82.427 102.39,82.594 C 102.39,82.92 102.55,83.239 102.84,83.43 C 103.279,83.719 103.867,83.619 104.186,83.201 C 104.604,82.65 114.422,69.656 114.422,63.141 C 114.422,51.641 106.947,42.729 104.491,39.801 z " /><path
     id="path101"
     style="opacity:0.2"
     d="M 113.422,63.142 C 113.422,51.652 105.657,42.759 103.512,40.19 C 100.08,36.081 92.961,27.585 92.961,33.548 C 92.961,51.338 92.961,87.021 92.961,89.05 C 89.248,86.557 83.17,86.169 77.804,89.34 C 76.956,89.84 76.168,90.405 75.419,91.003 L 96.307,91.003 C 96.308,81.146 96.311,49.047 96.311,47.271 C 101.925,49.873 105.616,53.699 107.236,58.687 C 107.924,60.803 108.2,62.996 108.2,65.157 C 108.2,74.1 103.45,82.491 103.39,82.596 C 103.39,82.596 113.422,69.395 113.422,63.142 z " /><path
     id="path103"
     style="opacity:0.2"
     d="M 89.171,89.608 L 71.979,100.658 C 71.832,100.755 71.725,100.9 71.679,101.069 C 71.139,103.048 71.377,105.007 72.35,106.587 C 73.366,108.232 75.098,109.377 77.231,109.81 C 81.133,110.601 86.043,109.377 90.039,106.61 C 93.542,104.188 95.853,100.919 96.384,97.641 C 96.968,94.679 96.662,92.165 96.201,91.813 C 94.173,89.918 91.462,89.67 90.007,89.536 L 89.63,89.499 C 89.471,89.484 89.305,89.522 89.171,89.608 z " /><g
     id="g105">
	<linearGradient
   gradientUnits="userSpaceOnUse"
   id="XMLID_16_"
   y2="67.042999"
   x2="127.4872"
   y1="67.042999"
   x1="61.419899">
		<stop
   id="stop108"
   offset="0"
   style="stop-color:#004d00;stop-opacity:1" />
		<stop
   id="stop110"
   offset="0.787"
   style="stop-color:#008c00;stop-opacity:1" />
		<stop
   id="stop112"
   offset="1"
   style="stop-color:#004d00;stop-opacity:1" />
	</linearGradient>
	<path
   id="path114"
   style="fill:url(#XMLID_16_)"
   d="M 92.632,23.834 C 92.632,23.834 92.632,86.542 92.632,89.254 C 88.919,86.76 82.841,86.372 77.473,89.542 C 73.337,91.984 70.267,95.719 69.262,99.53 C 68.635,101.907 68.848,104.144 69.878,106.002 C 72.634,110.977 80.526,111.687 87.473,107.584 C 92.261,104.761 95.517,100.313 95.97,95.979 L 95.981,95.81 C 96.008,95.537 96.024,95.249 96.024,94.96 C 96.024,94.659 96.008,94.357 95.977,94.064 C 95.977,94.064 95.981,49.575 95.981,47.473 C 101.594,50.076 105.285,53.902 106.906,58.891 C 107.594,61.006 107.87,63.199 107.87,65.36 C 107.87,74.302 103.12,82.694 103.06,82.798 L 104.135,83.66 C 110.472,77.117 113.09,69.597 113.09,63.345 C 113.09,51.854 105.326,42.961 103.18,40.391 C 99.75,36.283 97.225,31.823 95.981,29.435 C 95.981,29.099 95.981,23.834 95.981,23.834 L 92.632,23.834 L 92.632,23.834 z " />
	<linearGradient
   gradientUnits="userSpaceOnUse"
   id="XMLID_17_"
   y2="104.1534"
   x2="121.6667"
   y1="56.876999"
   x1="74.390602">
		<stop
   id="stop117"
   offset="0.1243"
   style="stop-color:#00bf00;stop-opacity:1" />
		<stop
   id="stop119"
   offset="0.26629999"
   style="stop-color:#80ff80;stop-opacity:1" />
		<stop
   id="stop121"
   offset="0.6627"
   style="stop-color:#008c00;stop-opacity:1" />
	</linearGradient>
	<path
   id="path123"
   style="fill:url(#XMLID_17_)"
   d="M 101.969,40.756 C 98.373,36.551 96.558,31.429 95.221,28.907 L 95.221,24.543 C 95.221,24.543 95.012,24.772 94.106,24.772 C 93.198,24.772 93.198,24.543 93.198,24.543 L 93.198,89.254 C 89.247,86.703 83.285,86.704 77.326,89.449 C 70.543,93.362 67.878,100.735 69.81,104.942 C 72.04,109.796 80.079,110.175 86.866,106.261 C 91.708,103.471 94.793,99.137 95.215,95.195 L 95.222,95.195 L 95.222,95.102 C 95.278,94.539 95.282,93.976 95.222,93.434 L 95.222,45.664 C 119.554,55.691 103.776,82.451 103.776,82.451 C 121.75,64.325 105.279,44.626 101.969,40.756 z " />
	<linearGradient
   gradientUnits="userSpaceOnUse"
   id="XMLID_18_"
   y2="80.711197"
   x2="81.164101"
   y1="99.053703"
   x1="81.164101">
		<stop
   id="stop126"
   offset="0.1243"
   style="stop-color:#00bf00;stop-opacity:1" />
		<stop
   id="stop128"
   offset="0.6627"
   style="stop-color:#008c00;stop-opacity:1" />
	</linearGradient>
	<path
   id="path130"
   style="fill:url(#XMLID_18_)"
   d="M 77.394,90.157 C 83.404,86.72 90.067,86.76 93.402,89.963 L 93.402,89.254 C 90.067,86.052 83.404,86.012 77.394,89.449 C 72.024,92.52 68.794,97.453 68.931,101.678 C 69.152,97.62 72.322,93.059 77.394,90.157 z " />
	<linearGradient
   gradientUnits="userSpaceOnUse"
   id="XMLID_19_"
   y2="87.6548"
   x2="98.129501"
   y1="109.1387"
   x1="67.447304">
		<stop
   id="stop133"
   offset="0"
   style="stop-color:#f0ff80;stop-opacity:1" />
		<stop
   id="stop135"
   offset="0.50300002"
   style="stop-color:#00bf00;stop-opacity:1" />
		<stop
   id="stop137"
   offset="1"
   style="stop-color:#008c00;stop-opacity:1" />
	</linearGradient>
	<path
   id="path139"
   style="fill:url(#XMLID_19_)"
   d="M 87.262,103.868 C 81.136,107.371 74.246,106.844 71.868,102.688 C 70.699,100.644 70.846,98.104 72.019,95.632 C 69.905,98.7 69.312,102.095 70.804,104.703 C 73.247,108.974 80.329,109.515 86.624,105.916 C 91.018,103.405 93.844,99.536 94.331,95.975 C 93.313,98.899 90.811,101.841 87.262,103.868 z " />
	
		<radialGradient
   gradientTransform="matrix(0.6578,0.1436,-0.1641,0.7515,82.48,-51.7882)"
   gradientUnits="userSpaceOnUse"
   id="XMLID_20_"
   fy="180.0407"
   fx="42.477798"
   r="15.1229"
   cy="185.1797"
   cx="45.3027">
		<stop
   id="stop142"
   offset="0"
   style="stop-color:#f0ff80;stop-opacity:1" />
		<stop
   id="stop144"
   offset="0.70410001"
   style="stop-color:#b7c700;stop-opacity:0" />
		<stop
   id="stop146"
   offset="1"
   style="stop-color:#00bf00;stop-opacity:0" />
	</radialGradient>
	<path
   id="path148"
   style="fill:url(#XMLID_20_)"
   d="M 80.878,89.611 C 76.729,91.192 73.842,94.961 74.576,97.84 C 75.307,100.718 79.433,101.814 83.585,100.234 C 86.559,99.099 88.979,96.805 89.751,94.394 C 89.735,94.443 89.726,94.497 89.715,94.547 L 89.729,94.481 C 89.739,94.433 89.752,94.386 89.765,94.339 C 89.815,94.179 89.856,94.023 89.889,93.869 C 89.922,93.721 89.948,93.581 89.964,93.443 C 89.97,93.387 89.981,93.332 89.991,93.281 C 89.991,93.281 90.3,91.86 90.332,91.725 C 90.004,91.656 89.712,91.449 89.523,91.126 C 88.225,88.879 84.508,88.228 80.878,89.611 z " />
	
		<radialGradient
   gradientTransform="matrix(0.9551,0,0,1,3.0708,0)"
   gradientUnits="userSpaceOnUse"
   id="XMLID_21_"
   r="40.668999"
   cy="35.845699"
   cx="106.5527">
		<stop
   id="stop151"
   offset="0"
   style="stop-color:#ffffff;stop-opacity:1" />
		<stop
   id="stop153"
   offset="0.0571"
   style="stop-color:#f9fff9;stop-opacity:1" />
		<stop
   id="stop155"
   offset="0.13160001"
   style="stop-color:#e9ffe9;stop-opacity:1" />
		<stop
   id="stop157"
   offset="0.2155"
   style="stop-color:#ceffce;stop-opacity:1" />
		<stop
   id="stop159"
   offset="0.25440001"
   style="stop-color:#bfffbf;stop-opacity:1" />
		<stop
   id="stop161"
   offset="0.46149999"
   style="stop-color:#80ff80;stop-opacity:1" />
		<stop
   id="stop163"
   offset="0.6864"
   style="stop-color:#00bf00;stop-opacity:1" />
	</radialGradient>
	<path
   id="path165"
   style="fill:url(#XMLID_21_)"
   d="M 101.261,40.756 C 103.941,44.01 115.038,59.625 108.214,75.053 C 116.334,59.152 104.665,43.495 101.904,40.146 C 98.442,35.941 95.927,32.137 94.639,29.616 C 94.64,29.616 97.796,36.55 101.261,40.756 z " />
	<radialGradient
   gradientUnits="userSpaceOnUse"
   id="XMLID_22_"
   r="18.7153"
   cy="36.650902"
   cx="106.6406">
		<stop
   id="stop168"
   offset="0.33140001"
   style="stop-color:#f0ff80;stop-opacity:1" />
		<stop
   id="stop170"
   offset="0.39359999"
   style="stop-color:#e9ff7c;stop-opacity:1" />
		<stop
   id="stop172"
   offset="0.48199999"
   style="stop-color:#d7ff73;stop-opacity:1" />
		<stop
   id="stop174"
   offset="0.58609998"
   style="stop-color:#b8ff62;stop-opacity:1" />
		<stop
   id="stop176"
   offset="0.70209998"
   style="stop-color:#8eff4b;stop-opacity:1" />
		<stop
   id="stop178"
   offset="0.82789999"
   style="stop-color:#57ff2e;stop-opacity:1" />
		<stop
   id="stop180"
   offset="0.9601"
   style="stop-color:#15ff0b;stop-opacity:1" />
		<stop
   id="stop182"
   offset="1"
   style="stop-color:#00ff00;stop-opacity:1" />
	</radialGradient>
	<path
   id="path184"
   style="fill:url(#XMLID_22_)"
   d="M 100.291,40.804 C 96.745,36.458 95.998,33.533 95.165,32.308 C 95.165,45.88 99.582,45.718 95.526,44.939 C 102.721,48.639 108.251,53.738 110.36,59.147 C 107.995,50.243 103.279,44.468 100.291,40.804 z " />
</g></g>
</svg>