<?xml version="1.0" encoding="UTF-8" standalone="no"?>
<!-- Generator: Adobe Illustrator 12.0.0, SVG Export Plug-In . SVG Version: 6.00 Build 51448)  -->
<svg
   xmlns:dc="http://purl.org/dc/elements/1.1/"
   xmlns:cc="http://web.resource.org/cc/"
   xmlns:rdf="http://www.w3.org/1999/02/22-rdf-syntax-ns#"
   xmlns:svg="http://www.w3.org/2000/svg"
   xmlns="http://www.w3.org/2000/svg"
   xmlns:xlink="http://www.w3.org/1999/xlink"
   xmlns:sodipodi="http://sodipodi.sourceforge.net/DTD/sodipodi-0.dtd"
   xmlns:inkscape="http://www.inkscape.org/namespaces/inkscape"
   version="1.0"
   id="Livello_1"
   width="88"
   height="88"
   viewBox="0 0 88 80"
   overflow="visible"
   enable-background="new 0 0 88 80"
   xml:space="preserve"
   sodipodi:version="0.32"
   inkscape:version="0.44"
   sodipodi:docname="month.svg"
   sodipodi:docbase="/home/david/Progetti/oxygen sandbox/calendar actions"><metadata
   id="metadata3497"><rdf:RDF><cc:Work
       rdf:about=""><dc:format>image/svg+xml</dc:format><dc:type
         rdf:resource="http://purl.org/dc/dcmitype/StillImage" /></cc:Work></rdf:RDF></metadata><defs
   id="defs3495"><linearGradient
     id="linearGradient3291"
     inkscape:collect="always"><stop
       id="stop3293"
       offset="0"
       style="stop-color:#000000;stop-opacity:1;" /><stop
       id="stop3295"
       offset="1"
       style="stop-color:#000000;stop-opacity:0;" /></linearGradient><radialGradient
     inkscape:collect="always"
     xlink:href="#linearGradient3291"
     id="radialGradient4418"
     gradientUnits="userSpaceOnUse"
     gradientTransform="matrix(1,0,0,0.197802,0,92.82166)"
     cx="63.912209"
     cy="115.70919"
     fx="63.912209"
     fy="115.7093"
     r="63.912209" /><radialGradient
     inkscape:collect="always"
     xlink:href="#XMLID_7_"
     id="radialGradient3982"
     gradientUnits="userSpaceOnUse"
     gradientTransform="matrix(1,8e-4,-7e-4,0.8192,0.2714,21.433)"
     cx="13.8359"
     cy="-21.810101"
     r="111.2527" /><linearGradient
     inkscape:collect="always"
     xlink:href="#XMLID_8_"
     id="linearGradient3984"
     gradientUnits="userSpaceOnUse"
     gradientTransform="matrix(-1,0,0,-1,330,27.4111)"
     x1="286"
     y1="24.2715"
     x2="286"
     y2="7.2715001" /><linearGradient
     inkscape:collect="always"
     xlink:href="#XMLID_9_"
     id="linearGradient3986"
     gradientUnits="userSpaceOnUse"
     x1="68"
     y1="14"
     x2="68"
     y2="3" /><linearGradient
     inkscape:collect="always"
     xlink:href="#XMLID_10_"
     id="linearGradient3988"
     gradientUnits="userSpaceOnUse"
     x1="68"
     y1="0"
     x2="68"
     y2="12" /><linearGradient
     inkscape:collect="always"
     xlink:href="#XMLID_11_"
     id="linearGradient3990"
     gradientUnits="userSpaceOnUse"
     x1="22"
     y1="14"
     x2="22"
     y2="3" /><linearGradient
     inkscape:collect="always"
     xlink:href="#XMLID_12_"
     id="linearGradient3992"
     gradientUnits="userSpaceOnUse"
     x1="22"
     y1="0"
     x2="22"
     y2="12" /></defs><sodipodi:namedview
   inkscape:window-height="579"
   inkscape:window-width="849"
   inkscape:pageshadow="2"
   inkscape:pageopacity="0.0"
   guidetolerance="10.0"
   gridtolerance="10.0"
   objecttolerance="10.0"
   borderopacity="1.0"
   bordercolor="#666666"
   pagecolor="#ffffff"
   id="base"
   height="88px"
   inkscape:zoom="4.725"
   inkscape:cx="44"
   inkscape:cy="40"
   inkscape:window-x="-68"
   inkscape:window-y="22"
   inkscape:current-layer="g3926" />





<radialGradient
   id="XMLID_7_"
   cx="13.8359"
   cy="-21.810101"
   r="111.2527"
   gradientTransform="matrix(1,8e-4,-7e-4,0.8192,0.2714,21.433)"
   gradientUnits="userSpaceOnUse">
	<stop
   offset="0"
   style="stop-color:#FFFFFF"
   id="stop3309" />
	<stop
   offset="0.6627"
   style="stop-color:#FFFFFF"
   id="stop3311" />
	<stop
   offset="0.75"
   style="stop-color:#FBFBFB"
   id="stop3313" />
	<stop
   offset="0.8289"
   style="stop-color:#F0F0F0"
   id="stop3315" />
	<stop
   offset="0.9047"
   style="stop-color:#DEDEDE"
   id="stop3317" />
	<stop
   offset="0.978"
   style="stop-color:#C4C4C4"
   id="stop3319" />
	<stop
   offset="1"
   style="stop-color:#BBBBBB"
   id="stop3321" />
</radialGradient>

<linearGradient
   id="XMLID_8_"
   gradientUnits="userSpaceOnUse"
   x1="286"
   y1="24.2715"
   x2="286"
   y2="7.2715001"
   gradientTransform="matrix(-1,0,0,-1,330,27.4111)">
	<stop
   offset="0"
   style="stop-color:#008C00"
   id="stop3326" />
	<stop
   offset="0.574"
   style="stop-color:#72D13D"
   id="stop3328" />
</linearGradient>

<linearGradient
   id="XMLID_9_"
   gradientUnits="userSpaceOnUse"
   x1="68"
   y1="14"
   x2="68"
   y2="3">
	<stop
   offset="0"
   style="stop-color:#008C00"
   id="stop3333" />
	<stop
   offset="1"
   style="stop-color:#005333"
   id="stop3335" />
</linearGradient>

<linearGradient
   id="XMLID_10_"
   gradientUnits="userSpaceOnUse"
   x1="68"
   y1="0"
   x2="68"
   y2="12">
	<stop
   offset="0.1"
   style="stop-color:#666666"
   id="stop3340" />
	<stop
   offset="0.1241"
   style="stop-color:#858585"
   id="stop3342" />
	<stop
   offset="0.1581"
   style="stop-color:#AAAAAA"
   id="stop3344" />
	<stop
   offset="0.1938"
   style="stop-color:#C9C9C9"
   id="stop3346" />
	<stop
   offset="0.2309"
   style="stop-color:#E1E1E1"
   id="stop3348" />
	<stop
   offset="0.2703"
   style="stop-color:#F2F2F2"
   id="stop3350" />
	<stop
   offset="0.3133"
   style="stop-color:#FCFCFC"
   id="stop3352" />
	<stop
   offset="0.3669"
   style="stop-color:#FFFFFF"
   id="stop3354" />
	<stop
   offset="0.4614"
   style="stop-color:#FBFBFB"
   id="stop3356" />
	<stop
   offset="0.5648"
   style="stop-color:#EDEDED"
   id="stop3358" />
	<stop
   offset="0.6724"
   style="stop-color:#D8D8D8"
   id="stop3360" />
	<stop
   offset="0.7829"
   style="stop-color:#B9B9B9"
   id="stop3362" />
	<stop
   offset="0.8945"
   style="stop-color:#929292"
   id="stop3364" />
	<stop
   offset="1"
   style="stop-color:#666666"
   id="stop3366" />
</linearGradient>

<linearGradient
   id="XMLID_11_"
   gradientUnits="userSpaceOnUse"
   x1="22"
   y1="14"
   x2="22"
   y2="3">
	<stop
   offset="0"
   style="stop-color:#008C00"
   id="stop3371" />
	<stop
   offset="1"
   style="stop-color:#005333"
   id="stop3373" />
</linearGradient>

<linearGradient
   id="XMLID_12_"
   gradientUnits="userSpaceOnUse"
   x1="22"
   y1="0"
   x2="22"
   y2="12">
	<stop
   offset="0.1"
   style="stop-color:#666666"
   id="stop3378" />
	<stop
   offset="0.1241"
   style="stop-color:#858585"
   id="stop3380" />
	<stop
   offset="0.1581"
   style="stop-color:#AAAAAA"
   id="stop3382" />
	<stop
   offset="0.1938"
   style="stop-color:#C9C9C9"
   id="stop3384" />
	<stop
   offset="0.2309"
   style="stop-color:#E1E1E1"
   id="stop3386" />
	<stop
   offset="0.2703"
   style="stop-color:#F2F2F2"
   id="stop3388" />
	<stop
   offset="0.3133"
   style="stop-color:#FCFCFC"
   id="stop3390" />
	<stop
   offset="0.3669"
   style="stop-color:#FFFFFF"
   id="stop3392" />
	<stop
   offset="0.4614"
   style="stop-color:#FBFBFB"
   id="stop3394" />
	<stop
   offset="0.5648"
   style="stop-color:#EDEDED"
   id="stop3396" />
	<stop
   offset="0.6724"
   style="stop-color:#D8D8D8"
   id="stop3398" />
	<stop
   offset="0.7829"
   style="stop-color:#B9B9B9"
   id="stop3400" />
	<stop
   offset="0.8945"
   style="stop-color:#929292"
   id="stop3402" />
	<stop
   offset="1"
   style="stop-color:#666666"
   id="stop3404" />
</linearGradient>













<g
   id="g3926"
   transform="translate(0,-4)"><polygon
     points="7.92,67.16 7.92,6 80.08,5.74 80.08,77.899 7.92,67.16 "
     id="_x3C_Sezione_x3E_"
     style="fill:none" /><path
     id="path3300"
     d="M 0.881,4.016 L 0.881,4.016 C 0.321,4.575 0,5.349 0,6.139 L 0,77 C 0,78.654 1.346,80 3,80 L 85,80 C 86.654,80 88,78.654 88,77 L 88,6.204 C 88,4.551 86.655,3.205 85.003,3.204 L 3.003,3.139 C 2.201,3.139 1.447,3.45 0.881,4.016 z "
     style="opacity:0.2;fill:#323232" /><path
     id="path3302"
     d="M 1.587,4.724 C 1.587,4.724 1.586,4.724 1.587,4.724 C 1.213,5.097 1,5.612 1,6.139 L 1,77 C 1,78.103 1.897,79 3,79 L 85,79 C 86.103,79 87,78.103 87,77 L 87,6.204 C 87,5.102 86.104,4.205 85.002,4.204 L 3.002,4.139 C 2.467,4.139 1.965,4.347 1.587,4.724 z "
     style="opacity:0.25;fill:#323232" /><path
     id="path3304"
     d="M 2.293,5.432 C 2.105,5.619 2,5.874 2,6.139 L 2,77 C 2,77.553 2.448,78 3,78 L 85,78 C 85.553,78 86,77.553 86,77 L 86,6.204 C 86,5.652 85.553,5.204 85.001,5.204 L 3.001,5.139 C 2.735,5.139 2.481,5.244 2.293,5.432 z "
     style="opacity:0.3;fill:#323232" /><polygon
     id="polygon3306"
     points="85,77 3,77 3,6.139 85,6.204 85,77 "
     style="opacity:0.35;fill:#323232" /><polygon
     id="polygon3323"
     points="85,76 3,76 3,5.139 85,5.204 85,76 "
     style="fill:url(#radialGradient3982)" /><rect
     id="rect3330"
     height="17"
     width="82"
     y="3"
     x="3"
     style="fill:url(#linearGradient3984)" /><rect
     id="rect3337"
     height="11"
     width="16"
     y="3"
     x="60"
     style="fill:url(#linearGradient3986)" /><rect
     id="rect3368"
     height="12"
     width="12"
     x="62"
     y="0"
     style="fill:url(#linearGradient3988)" /><rect
     id="rect3375"
     height="11"
     width="16"
     y="3"
     x="14"
     style="fill:url(#linearGradient3990)" /><rect
     id="rect3406"
     height="12"
     width="12"
     x="16"
     y="0"
     style="fill:url(#linearGradient3992)" /><rect
     id="rect3408"
     height="8"
     width="8"
     y="42"
     x="60"
     style="fill:#bbb" /><rect
     id="rect3410"
     height="8"
     width="8"
     y="42"
     x="70"
     style="fill:#c3b4da" /><rect
     id="rect3412"
     height="8"
     width="8"
     y="62"
     x="10"
     style="fill:#bbb" /><rect
     id="rect3414"
     height="8"
     width="8"
     y="62"
     x="20"
     style="fill:#bbb" /><rect
     id="rect3416"
     height="8"
     width="8"
     y="62"
     x="30"
     style="fill:#bbb" /><rect
     id="rect3418"
     height="8"
     width="8"
     y="62"
     x="40"
     style="fill:#bbb" /><rect
     id="rect3420"
     height="8"
     width="8"
     y="62"
     x="50"
     style="fill:#bbb" /><rect
     id="rect3422"
     height="8"
     width="8"
     y="62"
     x="60"
     style="fill:#bbb" /><g
     id="g3424"
     style="fill:#e20800">
	<rect
   id="rect3426"
   height="12"
   width="12"
   y="40"
   x="38"
   style="fill:#e20800" />
	<rect
   id="rect3428"
   height="12"
   width="12"
   y="40"
   x="8"
   style="fill:#e20800" />
	<rect
   id="rect3430"
   height="12"
   width="12"
   y="40"
   x="18"
   style="fill:#e20800" />
	<rect
   id="rect3432"
   height="12"
   width="12"
   y="40"
   x="28"
   style="fill:#e20800" />
	<rect
   id="rect3434"
   height="12"
   width="12"
   y="40"
   x="48"
   style="fill:#e20800" />
	<rect
   id="rect3436"
   height="12"
   width="12"
   y="40"
   x="58"
   style="fill:#e20800" />
	<rect
   id="rect3438"
   height="12"
   width="12"
   y="40"
   x="68"
   style="fill:#e20800" />
</g><g
     id="g3440"
     style="fill:#e20800">
	<rect
   id="rect3442"
   height="12"
   width="12"
   y="50"
   x="38"
   style="fill:#e20800" />
	<rect
   id="rect3444"
   height="12"
   width="12"
   y="50"
   x="8"
   style="fill:#e20800" />
	<rect
   id="rect3446"
   height="12"
   width="12"
   y="50"
   x="18"
   style="fill:#e20800" />
	<rect
   id="rect3448"
   height="12"
   width="12"
   y="50"
   x="28"
   style="fill:#e20800" />
	<rect
   id="rect3450"
   height="12"
   width="12"
   y="50"
   x="48"
   style="fill:#e20800" />
	<rect
   id="rect3452"
   height="12"
   width="12"
   y="50"
   x="58"
   style="fill:#e20800" />
	<rect
   id="rect3454"
   height="12"
   width="12"
   y="50"
   x="68"
   style="fill:#e20800" />
</g><g
     id="g3456"
     style="fill:#e20800">
	<rect
   id="rect3458"
   height="12"
   width="12"
   y="60"
   x="38"
   style="fill:#e20800" />
	<rect
   id="rect3460"
   height="12"
   width="12"
   y="60"
   x="8"
   style="fill:#e20800" />
	<rect
   id="rect3462"
   height="12"
   width="12"
   y="60"
   x="18"
   style="fill:#e20800" />
	<rect
   id="rect3464"
   height="12"
   width="12"
   y="60"
   x="28"
   style="fill:#e20800" />
	<rect
   id="rect3466"
   height="12"
   width="12"
   y="60"
   x="48"
   style="fill:#e20800" />
	<rect
   id="rect3468"
   height="12"
   width="12"
   y="60"
   x="58"
   style="fill:#e20800" />
</g><g
     id="g3470"
     style="fill:#e20800">
	<rect
   id="rect3472"
   height="12"
   width="12"
   y="30"
   x="38"
   style="fill:#e20800" />
	<rect
   id="rect3474"
   height="12"
   width="12"
   y="30"
   x="8"
   style="fill:#e20800" />
	<rect
   id="rect3476"
   height="12"
   width="12"
   y="30"
   x="18"
   style="fill:#e20800" />
	<rect
   id="rect3478"
   height="12"
   width="12"
   y="30"
   x="28"
   style="fill:#e20800" />
	<rect
   id="rect3480"
   height="12"
   width="12"
   y="30"
   x="48"
   style="fill:#e20800" />
	<rect
   id="rect3482"
   height="12"
   width="12"
   y="30"
   x="58"
   style="fill:#e20800" />
	<rect
   id="rect3484"
   height="12"
   width="12"
   y="30"
   x="68"
   style="fill:#e20800" />
</g><g
     id="g3486"
     style="fill:#e20800">
	<rect
   id="rect3488"
   height="12"
   width="12"
   y="20"
   x="48"
   style="fill:#e20800" />
	<rect
   id="rect3490"
   height="12"
   width="12"
   y="20"
   x="58"
   style="fill:#e20800" />
	<rect
   id="rect3492"
   height="12"
   width="12"
   y="20"
   x="68"
   style="fill:#e20800" />
</g></g>
<path
   sodipodi:type="arc"
   style="opacity:0.38139535;fill:url(#radialGradient4418);fill-opacity:1;fill-rule:nonzero;stroke:none;stroke-width:0;stroke-linecap:round;stroke-linejoin:round;stroke-miterlimit:4;stroke-dasharray:none;stroke-dashoffset:4;stroke-opacity:1"
   id="path4416"
   sodipodi:cx="63.912209"
   sodipodi:cy="115.70919"
   sodipodi:rx="63.912209"
   sodipodi:ry="12.641975"
   d="M 127.82442 115.70919 A 63.912209 12.641975 0 1 1  0,115.70919 A 63.912209 12.641975 0 1 1  127.82442 115.70919 z"
   transform="matrix(0.688444,0,0,0.286851,2.34921e-5,47.18234)" /></svg>