<?xml version="1.0" encoding="UTF-8" standalone="no"?>
<!-- Created with Inkscape (http://www.inkscape.org/) -->
<svg
   xmlns:dc="http://purl.org/dc/elements/1.1/"
   xmlns:cc="http://web.resource.org/cc/"
   xmlns:rdf="http://www.w3.org/1999/02/22-rdf-syntax-ns#"
   xmlns:svg="http://www.w3.org/2000/svg"
   xmlns="http://www.w3.org/2000/svg"
   xmlns:xlink="http://www.w3.org/1999/xlink"
   xmlns:sodipodi="http://inkscape.sourceforge.net/DTD/sodipodi-0.dtd"
   xmlns:inkscape="http://www.inkscape.org/namespaces/inkscape"
   width="128"
   height="128"
   id="svg1307"
   sodipodi:version="0.32"
   inkscape:version="0.43"
   version="1.0"
   sodipodi:docbase="/home/pinheiro/artwork/Oxygen/theme/svg/actions"
   sodipodi:docname="bell.svg">
  <defs
     id="defs1309">
    <linearGradient
       inkscape:collect="always"
       id="linearGradient2247">
      <stop
         style="stop-color:#000000;stop-opacity:1;"
         offset="0"
         id="stop2249" />
      <stop
         style="stop-color:#000000;stop-opacity:0;"
         offset="1"
         id="stop2251" />
    </linearGradient>
    <linearGradient
       inkscape:collect="always"
       id="linearGradient2565">
      <stop
         style="stop-color:#000000;stop-opacity:1;"
         offset="0"
         id="stop2567" />
      <stop
         style="stop-color:#000000;stop-opacity:0;"
         offset="1"
         id="stop2569" />
    </linearGradient>
    <linearGradient
       id="linearGradient2508">
      <stop
         style="stop-color:#000000;stop-opacity:0;"
         offset="0"
         id="stop2510" />
      <stop
         id="stop2516"
         offset="0.5"
         style="stop-color:#000000;stop-opacity:0;" />
      <stop
         style="stop-color:#000000;stop-opacity:1;"
         offset="1"
         id="stop2512" />
    </linearGradient>
    <linearGradient
       id="linearGradient2490">
      <stop
         style="stop-color:#4b6f9a;stop-opacity:1;"
         offset="0"
         id="stop2492" />
      <stop
         id="stop2500"
         offset="0.2577484"
         style="stop-color:#afc2d9;stop-opacity:0.49803922;" />
      <stop
         style="stop-color:#57616c;stop-opacity:0;"
         offset="0.53672314"
         id="stop2502" />
      <stop
         style="stop-color:#000000;stop-opacity:0;"
         offset="1"
         id="stop2494" />
    </linearGradient>
    <linearGradient
       id="linearGradient2426">
      <stop
         style="stop-color:#ffffff;stop-opacity:1;"
         offset="0"
         id="stop2428" />
      <stop
         style="stop-color:#ffffff;stop-opacity:0;"
         offset="1"
         id="stop2430" />
    </linearGradient>
    <linearGradient
       id="linearGradient2418">
      <stop
         style="stop-color:#000000;stop-opacity:0;"
         offset="0"
         id="stop2420" />
      <stop
         style="stop-color:#000000;stop-opacity:0.78623188;"
         offset="1"
         id="stop2422" />
    </linearGradient>
    <linearGradient
       inkscape:collect="always"
       id="linearGradient2368">
      <stop
         style="stop-color:#ffffff;stop-opacity:1;"
         offset="0"
         id="stop2370" />
      <stop
         style="stop-color:#ffffff;stop-opacity:0;"
         offset="1"
         id="stop2372" />
    </linearGradient>
    <linearGradient
       id="linearGradient2327">
      <stop
         style="stop-color:#000000;stop-opacity:1;"
         offset="0"
         id="stop2329" />
      <stop
         id="stop2335"
         offset="0.5"
         style="stop-color:#000000;stop-opacity:1;" />
      <stop
         style="stop-color:#000000;stop-opacity:0;"
         offset="1"
         id="stop2331" />
    </linearGradient>
    <linearGradient
       id="linearGradient3225">
      <stop
         style="stop-color:#ffffff;stop-opacity:1;"
         offset="0"
         id="stop3227" />
      <stop
         id="stop2443"
         offset="0.5"
         style="stop-color:#bbbbbb;stop-opacity:1;" />
      <stop
         style="stop-color:#858585;stop-opacity:1;"
         offset="0.75"
         id="stop2445" />
      <stop
         style="stop-color:#535353;stop-opacity:1;"
         offset="1"
         id="stop3229" />
    </linearGradient>
    <radialGradient
       inkscape:collect="always"
       xlink:href="#linearGradient3225"
       id="radialGradient2414"
       cx="27.933334"
       cy="125.08694"
       fx="27.933334"
       fy="125.08694"
       r="6.5709848"
       gradientUnits="userSpaceOnUse"
       gradientTransform="matrix(1.763354,1.325985e-14,-5.344119e-14,4.478402,-21.32302,-435.1026)" />
    <linearGradient
       inkscape:collect="always"
       xlink:href="#linearGradient2368"
       id="linearGradient2458"
       gradientUnits="userSpaceOnUse"
       gradientTransform="matrix(1.094159,0.368843,-0.145436,0.990098,27.01987,-38.90736)"
       x1="110.99178"
       y1="-106.0146"
       x2="62.569557"
       y2="69.452881" />
    <radialGradient
       inkscape:collect="always"
       xlink:href="#linearGradient3225"
       id="radialGradient2461"
       gradientUnits="userSpaceOnUse"
       gradientTransform="matrix(2.379812,1.790029,-5.854862,8.210539,366.6986,-659.706)"
       cx="62.383995"
       cy="71.678123"
       fx="62.908863"
       fy="68.248749"
       r="6.6973495" />
    <linearGradient
       inkscape:collect="always"
       xlink:href="#linearGradient2426"
       id="linearGradient2471"
       gradientUnits="userSpaceOnUse"
       gradientTransform="matrix(1.262881,0.30291,-0.314735,1.218746,23.70566,-43.00078)"
       x1="57.607845"
       y1="2.8028319"
       x2="12.689066"
       y2="108.06671" />
    <radialGradient
       inkscape:collect="always"
       xlink:href="#linearGradient3225"
       id="radialGradient2474"
       gradientUnits="userSpaceOnUse"
       gradientTransform="matrix(1.391128,1.254597,-1.95509,2.018162,199.0034,-179.3336)"
       cx="51.235405"
       cy="111.06235"
       fx="48.59016"
       fy="95.077065"
       r="32.612133" />
    <linearGradient
       inkscape:collect="always"
       xlink:href="#linearGradient2368"
       id="linearGradient2482"
       x1="22.110399"
       y1="112.98782"
       x2="85.382751"
       y2="112.98782"
       gradientUnits="userSpaceOnUse"
       gradientTransform="matrix(0.936319,0.871701,-0.90401,0.90401,85.67115,-55.6142)" />
    <linearGradient
       inkscape:collect="always"
       xlink:href="#linearGradient2368"
       id="linearGradient2484"
       x1="22.074625"
       y1="113.47271"
       x2="85.436722"
       y2="113.47271"
       gradientUnits="userSpaceOnUse"
       gradientTransform="matrix(0.936319,0.871701,-0.90401,0.90401,85.67115,-55.6142)" />
    <radialGradient
       inkscape:collect="always"
       xlink:href="#linearGradient2327"
       id="radialGradient2486"
       gradientUnits="userSpaceOnUse"
       gradientTransform="matrix(1,1.45272e-16,5.888565e-17,0.5,-1.15713e-14,49.875)"
       cx="10"
       cy="99.75"
       fx="10"
       fy="99.75"
       r="5.5" />
    <radialGradient
       inkscape:collect="always"
       xlink:href="#linearGradient2508"
       id="radialGradient2514"
       cx="53.873707"
       cy="79.98558"
       fx="54.185909"
       fy="99.755486"
       r="31.951889"
       gradientTransform="matrix(1.444823,1.345112,-1.123485,1.123485,73.26837,-96.11072)"
       gradientUnits="userSpaceOnUse" />
    <radialGradient
       inkscape:collect="always"
       xlink:href="#linearGradient2490"
       id="radialGradient2530"
       gradientUnits="userSpaceOnUse"
       gradientTransform="matrix(0.930623,0.866398,-0.913438,0.913438,83.90309,-53.25349)"
       spreadMethod="reflect"
       cx="92.708214"
       cy="109.25349"
       fx="72.956184"
       fy="113.51844"
       r="31.951889" />
    <radialGradient
       inkscape:collect="always"
       xlink:href="#linearGradient2490"
       id="radialGradient2534"
       gradientUnits="userSpaceOnUse"
       gradientTransform="matrix(0.930623,0.866398,-0.909033,0.909033,83.33681,-52.6872)"
       spreadMethod="reflect"
       cx="92.708214"
       cy="109.25349"
       fx="72.956184"
       fy="113.51844"
       r="31.951889" />
    <radialGradient
       inkscape:collect="always"
       xlink:href="#linearGradient2490"
       id="radialGradient2542"
       gradientUnits="userSpaceOnUse"
       gradientTransform="matrix(1.743242,1.512274,-2.476551,2.767954,169.4919,-241.6311)"
       spreadMethod="reflect"
       cx="82.852318"
       cy="69.536186"
       fx="80.93914"
       fy="67.141632"
       r="6.6973495" />
    <radialGradient
       inkscape:collect="always"
       xlink:href="#linearGradient2418"
       id="radialGradient2546"
       gradientUnits="userSpaceOnUse"
       cx="29.3167"
       cy="120.41809"
       fx="26.722891"
       fy="117.9972"
       r="6.5709848" />
    <linearGradient
       inkscape:collect="always"
       xlink:href="#linearGradient3225"
       id="linearGradient2311"
       x1="-0.58578646"
       y1="-117.27312"
       x2="95"
       y2="-117.27312"
       gradientUnits="userSpaceOnUse" />
    <linearGradient
       id="linearGradient2216">
      <stop
         id="stop2218"
         offset="0"
         style="stop-color:#ffffff;stop-opacity:0.46209386;" />
      <stop
         style="stop-color:#ffffff;stop-opacity:1;"
         offset="0.5"
         id="stop2224" />
      <stop
         id="stop2220"
         offset="1"
         style="stop-color:#ffffff;stop-opacity:0.35018051;" />
    </linearGradient>
    <linearGradient
       inkscape:collect="always"
       xlink:href="#linearGradient2565"
       id="linearGradient2571"
       x1="74.188179"
       y1="50.313709"
       x2="84.154022"
       y2="45.688709"
       gradientUnits="userSpaceOnUse"
       gradientTransform="matrix(1.032376,-1.812468e-2,1.812468e-2,0.996127,-1.550866,1.757877)" />
    <radialGradient
       inkscape:collect="always"
       xlink:href="#linearGradient2490"
       id="radialGradient2573"
       gradientUnits="userSpaceOnUse"
       gradientTransform="matrix(0.936319,0.871701,-0.919029,0.919029,83.57425,-54.49005)"
       spreadMethod="reflect"
       cx="92.708214"
       cy="109.25349"
       fx="72.956184"
       fy="113.51844"
       r="31.951889" />
    <radialGradient
       inkscape:collect="always"
       xlink:href="#linearGradient2247"
       id="radialGradient2253"
       cx="61.125"
       cy="120.49996"
       fx="40.625"
       fy="123.16474"
       r="58.625"
       gradientTransform="matrix(1,0,0,9.381663e-2,0,109.1951)"
       gradientUnits="userSpaceOnUse" />
  </defs>
  <sodipodi:namedview
     id="base"
     pagecolor="#ffffff"
     bordercolor="#666666"
     borderopacity="1.0"
     inkscape:pageopacity="0.0"
     inkscape:pageshadow="2"
     inkscape:zoom="4.0000001"
     inkscape:cx="59.526816"
     inkscape:cy="55.940512"
     inkscape:current-layer="layer1"
     showgrid="false"
     inkscape:document-units="px"
     inkscape:grid-bbox="true"
     guidetolerance="0.1px"
     showguides="true"
     inkscape:guide-bbox="true"
     inkscape:window-width="1106"
     inkscape:window-height="958"
     inkscape:window-x="494"
     inkscape:window-y="146">
    <sodipodi:guide
       orientation="horizontal"
       position="32.487481"
       id="guide2204" />
  </sodipodi:namedview>
  <metadata
     id="metadata1312">
    <rdf:RDF>
      <cc:Work
         rdf:about="">
        <dc:format>image/svg+xml</dc:format>
        <dc:type
           rdf:resource="http://purl.org/dc/dcmitype/StillImage" />
        <cc:license
           rdf:resource="http://creativecommons.org/licenses/GPL/2.0/" />
        <dc:contributor>
          <cc:Agent>
            <dc:title>Oxygen team</dc:title>
          </cc:Agent>
        </dc:contributor>
      </cc:Work>
      <cc:License
         rdf:about="http://creativecommons.org/licenses/LGPL/2.1/">
        <cc:permits
           rdf:resource="http://web.resource.org/cc/Reproduction" />
        <cc:permits
           rdf:resource="http://web.resource.org/cc/Distribution" />
        <cc:requires
           rdf:resource="http://web.resource.org/cc/Notice" />
        <cc:permits
           rdf:resource="http://web.resource.org/cc/DerivativeWorks" />
        <cc:requires
           rdf:resource="http://web.resource.org/cc/ShareAlike" />
        <cc:requires
           rdf:resource="http://web.resource.org/cc/SourceCode" />
      </cc:License>
    </rdf:RDF>
  </metadata>
  <g
     id="layer1"
     inkscape:label="Layer 1"
     inkscape:groupmode="layer">
    <path
       sodipodi:type="arc"
       style="opacity:0.23360656;fill:url(#radialGradient2253);fill-opacity:1;fill-rule:nonzero;stroke:none;stroke-width:4;stroke-linecap:round;stroke-linejoin:round;stroke-miterlimit:4;stroke-dasharray:none;stroke-dashoffset:4;stroke-opacity:1"
       id="path1372"
       sodipodi:cx="61.125"
       sodipodi:cy="120.5"
       sodipodi:rx="58.625"
       sodipodi:ry="5.5"
       d="M 119.75 120.5 A 58.625 5.5 0 1 1  2.5,120.5 A 58.625 5.5 0 1 1  119.75 120.5 z"
       transform="translate(-2.25,2)" />
    <path
       id="path2532"
       d="M 121.33111,3.554105 C 120.94895,3.2641738 120.49481,3.0803083 119.98254,2.9428161 C 114.05159,1.3509782 99.713343,9.957113 86.120337,23.550118 C 80.265233,29.405224 75.393111,35.295446 71.934685,40.572421 C 55.966004,33.331579 32.291286,39.334152 13.206027,57.009187 C 11.07742,58.980515 9.3778401,60.747276 7.5118883,62.858053 C 6.3598689,63.237524 5.5423019,64.913307 5.1581807,65.57279 C 2.9635668,72.7319 6.900928,85.424824 17.018089,98.17094 C 15.605479,100.21357 15.093223,102.81645 15.857311,105.36605 C 17.23482,109.96251 22.197729,112.64804 26.9565,111.33834 C 27.687661,111.13713 28.379564,110.82547 29.007951,110.47314 C 41.015525,120.39628 52.960426,123.89717 60.232219,123.13959 C 61.418048,123.01603 64.659221,121.09683 64.890901,119.15139 C 86.6503,98.999804 94.922062,70.626154 85.154786,52.830606 C 85.15724,52.828289 85.177044,52.807792 85.180448,52.804942 C 90.730793,49.216018 96.581175,44.240868 102.79174,38.030307 C 117.72654,23.0955 126.08347,7.7109755 121.49136,3.7033009 C 121.4398,3.6582939 121.38571,3.5955245 121.33111,3.554105 z "
       style="opacity:0.2;fill:url(#radialGradient2534);fill-opacity:1;fill-rule:nonzero;stroke:#000000;stroke-width:4.00000334;stroke-linecap:round;stroke-linejoin:round;stroke-miterlimit:4;stroke-dasharray:none;stroke-dashoffset:4;stroke-opacity:1" />
    <path
       style="opacity:0.3;fill:url(#radialGradient2530);fill-opacity:1;fill-rule:nonzero;stroke:#000000;stroke-width:2.00000286;stroke-linecap:round;stroke-linejoin:round;stroke-miterlimit:4;stroke-dasharray:none;stroke-dashoffset:4;stroke-opacity:1"
       d="M 121.84502,3.0401919 C 121.4627,2.7504263 121.00796,2.5671613 120.49483,2.4305211 C 114.55402,0.84854297 100.16069,9.509769 86.501819,23.168637 C 80.618344,29.052112 75.720061,34.968496 72.240315,40.266793 C 56.252499,33.045085 32.507411,39.118027 13.333216,56.882 C 11.194684,58.863249 9.4867066,60.638409 7.61109,62.758853 C 6.455433,63.141958 5.6317492,64.82386 5.2450827,65.48589 C 3.0273826,72.668085 6.9420865,85.383664 17.050902,98.138131 C 15.629856,100.18919 15.109875,102.79979 15.869358,105.354 C 17.238553,109.95879 22.206316,112.63945 26.979478,111.31537 C 27.712863,111.11192 28.407161,110.79787 29.037903,110.44318 C 41.048627,120.36319 53.012638,123.84494 60.303321,123.06849 C 61.492234,122.94184 64.7458,121.01025 64.982894,119.0594 C 86.8437,98.806405 95.205976,70.342239 85.460538,52.524853 C 85.463005,52.522525 85.482907,52.501929 85.486327,52.499064 C 91.058643,48.888168 96.935176,43.886868 103.17583,37.646214 C 118.183,22.639044 126.59807,7.1963927 122.00529,3.1893886 C 121.9537,3.1443888 121.89965,3.0815871 121.84502,3.0401919 z "
       id="path2522" />
    <path
       sodipodi:type="arc"
       style="opacity:1;fill:url(#radialGradient2414);fill-opacity:1;fill-rule:nonzero;stroke:none;stroke-width:0.02;stroke-linecap:round;stroke-linejoin:round;stroke-miterlimit:4;stroke-dasharray:none;stroke-dashoffset:4;stroke-opacity:1"
       id="path2361"
       sodipodi:cx="29.3167"
       sodipodi:cy="120.41809"
       sodipodi:rx="6.5709848"
       sodipodi:ry="6.5709848"
       d="M 35.887685 120.41809 A 6.5709848 6.5709848 0 1 1  22.745715,120.41809 A 6.5709848 6.5709848 0 1 1  35.887685 120.41809 z"
       transform="matrix(-0.379794,-1.277287,-1.323995,0.367278,195.1117,96.13603)" />
    <path
       transform="matrix(-0.379794,-1.277287,-1.323995,0.367278,195.1117,96.13603)"
       d="M 35.887685 120.41809 A 6.5709848 6.5709848 0 1 1  22.745715,120.41809 A 6.5709848 6.5709848 0 1 1  35.887685 120.41809 z"
       sodipodi:ry="6.5709848"
       sodipodi:rx="6.5709848"
       sodipodi:cy="120.41809"
       sodipodi:cx="29.3167"
       id="path2416"
       style="opacity:1;fill:url(#radialGradient2546);fill-opacity:1;fill-rule:nonzero;stroke:none;stroke-width:0.02;stroke-linecap:round;stroke-linejoin:round;stroke-miterlimit:4;stroke-dasharray:none;stroke-dashoffset:4;stroke-opacity:1"
       sodipodi:type="arc" />
    <path
       style="opacity:0.18852461;fill:url(#radialGradient2514);fill-opacity:1;fill-rule:nonzero;stroke:none;stroke-width:0.02;stroke-linecap:round;stroke-linejoin:round;stroke-miterlimit:4;stroke-dasharray:none;stroke-dashoffset:4;stroke-opacity:1"
       d="M 78.940626,43.727236 C 78.741814,43.565341 78.516429,43.412698 78.313916,43.256871 C 62.652659,31.206369 35.039788,36.421232 13.298051,56.563912 C 11.146432,58.557286 9.4437618,60.318156 7.5566757,62.451564 C 6.3939421,62.837017 5.5456832,64.5512 5.1566472,65.217286 C 2.5522471,73.651814 8.3277163,89.681268 22.640795,104.4885 C 36.711273,119.04477 51.939931,124.07798 60.580665,123.15773 C 61.776835,123.03032 65.049963,121.07092 65.288513,119.10811 C 89.279398,96.881702 97.130817,64.825982 82.783395,47.563993 C 81.606459,46.14797 80.332311,44.860543 78.940626,43.727236 z "
       id="path2504"
       sodipodi:nodetypes="cssccsscsc" />
    <path
       sodipodi:nodetypes="ccc"
       id="path2276"
       d="M 50.892799,3.2812959 L 50.892799,0.48658747 L 50.892799,3.2812959 z "
       style="fill:#ffffff;fill-opacity:0.75688076;fill-rule:nonzero;stroke:none;stroke-width:0.5;stroke-linecap:round;stroke-linejoin:round;stroke-miterlimit:4;stroke-dasharray:none;stroke-dashoffset:4;stroke-opacity:1" />
    <path
       style="fill:url(#radialGradient2474);fill-opacity:1;fill-rule:nonzero;stroke:none;stroke-width:0.02;stroke-linecap:round;stroke-linejoin:round;stroke-miterlimit:4;stroke-dasharray:none;stroke-dashoffset:4;stroke-opacity:1"
       d="M 78.940626,43.727236 C 78.741814,43.565341 78.516429,43.412698 78.313916,43.256871 C 62.652659,31.206369 35.039788,36.421232 13.298051,56.563912 C 11.146432,58.557286 9.4437618,60.318156 7.5566757,62.451564 C 6.3939421,62.837017 5.5456832,64.5512 5.1566472,65.217286 C 2.5522471,73.651814 8.3277163,89.681268 22.640795,104.4885 C 36.711273,119.04477 51.939931,124.07798 60.580665,123.15773 C 61.776835,123.03032 65.049963,121.07092 65.288513,119.10811 C 89.279398,96.881702 97.130817,64.825982 82.783395,47.563993 C 81.606459,46.14797 80.332311,44.860543 78.940626,43.727236 z "
       id="path2299"
       sodipodi:nodetypes="cssccsscsc" />
    <path
       sodipodi:nodetypes="cssccsscsc"
       id="path2488"
       d="M 78.20492,43.490188 C 78.006111,43.328292 77.780724,43.175649 77.578206,43.019823 C 61.916955,30.969319 34.304078,36.184184 12.562342,56.326862 C 10.410721,58.320237 8.7080512,60.081107 6.8209781,62.214511 C 5.6582359,62.599969 4.8099783,64.314154 4.4209482,64.980231 C 1.8165416,73.414767 7.5920085,89.444219 21.905086,104.25145 C 35.975571,118.80772 51.204222,123.84093 59.844948,122.92067 C 61.041133,122.79326 64.314261,120.83386 64.552811,118.87107 C 88.5437,96.644655 96.395112,64.588934 82.047692,47.326942 C 80.870748,45.91092 79.596603,44.623494 78.20492,43.490188 z "
       style="opacity:0.03688528;fill:url(#radialGradient2573);fill-opacity:1;fill-rule:nonzero;stroke:none;stroke-width:0.02;stroke-linecap:round;stroke-linejoin:round;stroke-miterlimit:4;stroke-dasharray:none;stroke-dashoffset:4;stroke-opacity:1" />
    <path
       style="opacity:1;fill:url(#linearGradient2471);fill-opacity:1;fill-rule:nonzero;stroke:none;stroke-width:0.02;stroke-linecap:round;stroke-linejoin:round;stroke-miterlimit:4;stroke-dasharray:none;stroke-dashoffset:4;stroke-opacity:1"
       d="M 77.720674,44.431394 C 77.537531,44.282247 77.329901,44.141632 77.143341,43.998083 C 62.715935,32.896962 33.571098,39.745745 13.542241,58.301521 C 11.560145,60.13784 9.7049223,62.046678 7.9665042,64.012015 L 6.0422501,66.273148 C 3.7754817,70.520521 6.6040708,79.141951 12.671286,85.942387 C 9.8541741,80.807077 6.3140694,72.659594 6.9068279,68.967134 L 8.8310928,66.705983 C 10.569496,64.74066 12.324827,62.725877 14.406821,60.995505 C 35.524433,43.444345 64.802923,36.292107 79.814652,49.01765 C 79.993528,49.169284 83.259076,53.281 84.343285,54.585473 C 85.034323,55.416883 85.657988,56.302262 86.238028,57.204936 C 85.145881,53.807193 83.517931,50.681643 81.2607,47.965872 C 80.176488,46.66141 79.002721,45.475413 77.720674,44.431394 z "
       id="path2320"
       sodipodi:nodetypes="csscccccssscsc" />
    <path
       sodipodi:type="arc"
       style="opacity:0.52049178;fill:url(#radialGradient2486);fill-opacity:1;fill-rule:nonzero;stroke:none;stroke-width:0.02;stroke-linecap:round;stroke-linejoin:round;stroke-miterlimit:4;stroke-dasharray:none;stroke-dashoffset:4;stroke-opacity:1"
       id="path2325"
       sodipodi:cx="10"
       sodipodi:cy="99.75"
       sodipodi:rx="5.5"
       sodipodi:ry="2.75"
       d="M 15.5 99.75 A 5.5 2.75 0 1 1  4.5,99.75 A 5.5 2.75 0 1 1  15.5 99.75 z"
       transform="matrix(1.503381,1.47589,-1.089032,1.089034,171.0035,-75.70105)" />
    <path
       style="opacity:0.63934428;fill:url(#linearGradient2484);fill-opacity:1;fill-rule:nonzero;stroke:none;stroke-width:0.02;stroke-linecap:round;stroke-linejoin:round;stroke-miterlimit:4;stroke-dasharray:none;stroke-dashoffset:4;stroke-opacity:1"
       d="M 10.615027,59.517318 C 9.5826338,60.057287 8.8581723,61.530736 8.5029717,62.141339 C 5.9769756,70.497467 12.045637,86.233715 26.750267,100.64941 C 41.205651,114.82077 56.706764,119.58152 65.451328,118.55743 C 66.397044,118.44668 67.507772,117.03534 66.902509,117.10625 C 58.157961,118.13031 42.656853,113.36955 28.201465,99.198202 C 13.496825,84.78253 7.4281613,69.04628 9.9541761,60.690135 C 10.110711,60.421052 10.317234,59.972385 10.615027,59.517318 z "
       id="path2337"
       sodipodi:nodetypes="ccsssscc" />
    <path
       style="opacity:0.63934428;fill:url(#linearGradient2482);fill-opacity:1;fill-rule:nonzero;stroke:none;stroke-width:0.02;stroke-linecap:round;stroke-linejoin:round;stroke-miterlimit:4;stroke-dasharray:none;stroke-dashoffset:4;stroke-opacity:1"
       d="M 10.540054,59.573979 C 10.524222,59.583305 10.480086,59.566743 10.464399,59.576496 C 10.401704,59.615448 10.37956,59.676436 10.319275,59.72162 C 9.9107455,60.280579 9.6322995,60.853228 9.436945,61.189058 C 6.9109432,69.545183 12.978324,85.282718 27.682972,99.698384 C 42.138391,113.86971 57.64016,118.62981 66.384709,117.60573 C 66.429049,117.60054 66.491132,117.61135 66.535995,117.60073 C 66.595941,117.58433 66.699983,117.5477 66.759825,117.52317 C 66.826985,117.49353 66.918172,117.48326 66.983675,117.4456 C 66.990967,117.44139 67.012703,117.41359 67.019958,117.40932 C 67.024385,117.4002 67.052369,117.38183 67.056233,117.37304 C 67.063982,117.35542 67.047722,117.31924 67.053141,117.30299 C 67.057391,117.28746 67.048357,117.24681 67.050059,117.23294 C 67.050287,117.22643 67.08679,117.20269 67.086345,117.19664 C 67.085245,117.19108 67.048782,117.16795 67.046985,117.16288 C 67.043059,117.15941 67.012328,117.13192 67.007625,117.12909 C 67.001424,117.12747 66.975262,117.09629 66.968268,117.09532 C 66.952642,117.09473 66.911548,117.09559 66.892636,117.0978 C 58.148082,118.12188 42.646265,113.36184 28.190878,99.190484 C 13.486248,84.774793 7.4188537,69.037273 9.9448699,60.681131 C 10.093569,60.425508 10.265708,60.005288 10.540054,59.573979 z "
       id="path2350" />
    <path
       style="fill:url(#radialGradient2461);fill-opacity:1;fill-rule:nonzero;stroke:none;stroke-width:0.02;stroke-linecap:round;stroke-linejoin:round;stroke-miterlimit:4;stroke-dasharray:none;stroke-dashoffset:4;stroke-opacity:1"
       d="M 121.13885,1.7672035 C 115.16169,0.17554428 100.6695,8.8828186 86.927041,22.625283 C 80.716435,28.835891 75.594385,35.098675 72.069804,40.624178 C 72.063963,40.647991 72.065544,40.666384 72.060078,40.690405 C 71.518884,43.068556 72.561622,45.431732 75.373466,48.30714 C 77.828253,50.817418 81.741501,53.095008 84.173424,53.23685 C 90.295807,49.550654 96.753226,44.133479 103.6816,37.205093 C 118.78063,22.106075 127.25781,6.5817641 122.63693,2.5502361 C 122.22177,2.1880279 121.72888,1.9243178 121.13885,1.7672035 z "
       id="path2357"
       sodipodi:nodetypes="cscsscssc" />
    <path
       sodipodi:nodetypes="cscsscssc"
       id="path2518"
       d="M 121.13885,1.7672035 C 115.16169,0.17554428 100.6695,8.8828186 86.927041,22.625283 C 80.716435,28.835891 75.594385,35.098675 72.069804,40.624178 C 72.063963,40.647991 72.065544,40.666384 72.060078,40.690405 C 71.518884,43.068556 72.561622,45.431732 75.373466,48.30714 C 77.828253,50.817418 81.741501,53.095008 84.173424,53.23685 C 90.295807,49.550654 96.753226,44.133479 103.6816,37.205093 C 118.78063,22.106075 127.25781,6.5817641 122.63693,2.5502361 C 122.22177,2.1880279 121.72888,1.9243178 121.13885,1.7672035 z "
       style="opacity:0.04508194;fill:url(#radialGradient2542);fill-opacity:1;fill-rule:nonzero;stroke:none;stroke-width:0.02;stroke-linecap:round;stroke-linejoin:round;stroke-miterlimit:4;stroke-dasharray:none;stroke-dashoffset:4;stroke-opacity:1" />
    <path
       style="fill:url(#linearGradient2458);fill-opacity:1;fill-rule:nonzero;stroke:none;stroke-width:0.02;stroke-linecap:round;stroke-linejoin:round;stroke-miterlimit:4;stroke-dasharray:none;stroke-dashoffset:4;stroke-opacity:1"
       d="M 120.46929,2.5626771 C 115.27969,0.99085518 102.3515,8.8315553 90.091673,21.255459 C 78.510053,32.992088 71.310625,44.995331 72.258514,50.314316 C 73.545958,44.203435 80.186854,34.111399 89.942545,24.225143 C 103.29793,10.691016 117.44065,2.6114083 121.51474,6.1948302 C 122.05582,6.6707523 122.41198,7.3227717 122.55715,8.1373898 C 123.02288,5.8986625 122.75664,4.1863249 121.66386,3.225148 C 121.32967,2.9311972 120.93304,2.7031369 120.46929,2.5626771 z "
       id="path2363" />
    <rect
       style="opacity:0.2;fill:url(#linearGradient2311);fill-opacity:1.0;fill-rule:nonzero;stroke:#000000;stroke-width:4;stroke-linecap:round;stroke-linejoin:round;stroke-miterlimit:4;stroke-dasharray:none;stroke-dashoffset:4;stroke-opacity:1"
       id="rect2303"
       width="91.585785"
       height="63.453758"
       x="1.4142135"
       y="-149" />
    <path
       style="opacity:0.23360656;fill:url(#linearGradient2571);fill-opacity:1;fill-rule:nonzero;stroke:none;stroke-width:0.02;stroke-linecap:round;stroke-linejoin:round;stroke-miterlimit:4;stroke-dasharray:none;stroke-dashoffset:4;stroke-opacity:1"
       d="M 121.13885,1.7672035 C 115.16169,0.17554428 100.6695,8.8828186 86.927041,22.625283 C 80.716435,28.835891 75.594385,35.098675 72.069804,40.624178 C 72.063963,40.647991 72.065544,40.666384 72.060078,40.690405 C 71.518884,43.068556 72.561622,45.431732 75.373466,48.30714 C 77.828253,50.817418 81.741501,53.095008 84.173424,53.23685 C 90.295807,49.550654 96.753226,44.133479 103.6816,37.205093 C 118.78063,22.106075 127.25781,6.5817641 122.63693,2.5502361 C 122.22177,2.1880279 121.72888,1.9243178 121.13885,1.7672035 z "
       id="path2563"
       sodipodi:nodetypes="cscsscssc" />
  </g>
</svg>
