<?xml version="1.0" encoding="UTF-8" standalone="no"?>
<!-- Created with Inkscape (http://www.inkscape.org/) -->
<svg
   xmlns:dc="http://purl.org/dc/elements/1.1/"
   xmlns:cc="http://web.resource.org/cc/"
   xmlns:rdf="http://www.w3.org/1999/02/22-rdf-syntax-ns#"
   xmlns:svg="http://www.w3.org/2000/svg"
   xmlns="http://www.w3.org/2000/svg"
   xmlns:xlink="http://www.w3.org/1999/xlink"
   xmlns:sodipodi="http://sodipodi.sourceforge.net/DTD/sodipodi-0.dtd"
   xmlns:inkscape="http://www.inkscape.org/namespaces/inkscape"
   width="128"
   height="128"
   id="svg1307"
   sodipodi:version="0.32"
   inkscape:version="0.44"
   version="1.0"
   sodipodi:docbase="/home/pinheiro/artwork/Oxygen/theme/svg/apps"
   sodipodi:docname="book.svg">
  <defs
     id="defs1309">
    <linearGradient
       id="linearGradient3773">
      <stop
         style="stop-color:#fafafa;stop-opacity:1;"
         offset="0"
         id="stop3775" />
      <stop
         style="stop-color:#dbdbdb;stop-opacity:1;"
         offset="1"
         id="stop3777" />
    </linearGradient>
    <linearGradient
       inkscape:collect="always"
       id="linearGradient2879">
      <stop
         style="stop-color:#adadad;stop-opacity:1;"
         offset="0"
         id="stop2882" />
      <stop
         style="stop-color:#adadad;stop-opacity:0;"
         offset="1"
         id="stop2884" />
    </linearGradient>
    <linearGradient
       inkscape:collect="always"
       id="linearGradient2889">
      <stop
         style="stop-color:white;stop-opacity:1;"
         offset="0"
         id="stop2891" />
      <stop
         style="stop-color:white;stop-opacity:0;"
         offset="1"
         id="stop2893" />
    </linearGradient>
    <linearGradient
       inkscape:collect="always"
       id="linearGradient2840">
      <stop
         style="stop-color:black;stop-opacity:1;"
         offset="0"
         id="stop2842" />
      <stop
         style="stop-color:black;stop-opacity:0;"
         offset="1"
         id="stop2844" />
    </linearGradient>
    <linearGradient
       id="linearGradient2794">
      <stop
         style="stop-color:black;stop-opacity:1;"
         offset="0"
         id="stop2796" />
      <stop
         id="stop2804"
         offset="0.5"
         style="stop-color:black;stop-opacity:0.27436823;" />
      <stop
         style="stop-color:black;stop-opacity:0.09386282;"
         offset="0.75"
         id="stop2806" />
      <stop
         style="stop-color:black;stop-opacity:0;"
         offset="1"
         id="stop2798" />
    </linearGradient>
    <linearGradient
       inkscape:collect="always"
       id="linearGradient2877">
      <stop
         style="stop-color:black;stop-opacity:1;"
         offset="0"
         id="stop2879" />
      <stop
         style="stop-color:black;stop-opacity:0;"
         offset="1"
         id="stop2881" />
    </linearGradient>
    <linearGradient
       id="linearGradient2780">
      <stop
         style="stop-color:#dcd7d4;stop-opacity:1;"
         offset="0"
         id="stop2782" />
      <stop
         style="stop-color:#faf9f8;stop-opacity:1;"
         offset="1"
         id="stop2784" />
    </linearGradient>
    <linearGradient
       id="linearGradient3149">
      <stop
         style="stop-color:#8e8e8e;stop-opacity:1;"
         offset="0"
         id="stop3151" />
      <stop
         style="stop-color:#f8f8f8;stop-opacity:1;"
         offset="1"
         id="stop3153" />
    </linearGradient>
    <linearGradient
       id="linearGradient3139">
      <stop
         style="stop-color:#000000;stop-opacity:1;"
         offset="0"
         id="stop3141" />
      <stop
         id="stop3162"
         offset="0.40659341"
         style="stop-color:#000000;stop-opacity:0.68235294;" />
      <stop
         style="stop-color:#000000;stop-opacity:0.48736462;"
         offset="0.45329672"
         id="stop3164" />
      <stop
         id="stop3158"
         offset="0.5"
         style="stop-color:#000000;stop-opacity:0.36101082;" />
      <stop
         style="stop-color:#000000;stop-opacity:0.15162455;"
         offset="0.70604396"
         id="stop3160" />
      <stop
         style="stop-color:#000000;stop-opacity:0;"
         offset="1"
         id="stop3143" />
    </linearGradient>
    <linearGradient
       id="linearGradient3075">
      <stop
         style="stop-color:#ffffff;stop-opacity:1;"
         offset="0"
         id="stop3077" />
      <stop
         id="stop3093"
         offset="0.42597079"
         style="stop-color:#ffffff;stop-opacity:1;" />
      <stop
         id="stop3085"
         offset="0.5892781"
         style="stop-color:#f1f1f1;stop-opacity:1;" />
      <stop
         style="stop-color:#eaeaea;stop-opacity:1;"
         offset="0.80219781"
         id="stop3087" />
      <stop
         style="stop-color:#dfdfdf;stop-opacity:1;"
         offset="1"
         id="stop3079" />
    </linearGradient>
    <radialGradient
       inkscape:collect="always"
       xlink:href="#linearGradient2794"
       id="radialGradient2837"
       gradientUnits="userSpaceOnUse"
       gradientTransform="matrix(8.176682e-2,-3.891765e-2,0.304519,0.639803,-237.883,-487.4866)"
       cx="412.65436"
       cy="907.24536"
       fx="427.75644"
       fy="870.92181"
       r="114.14001" />
    <linearGradient
       inkscape:collect="always"
       xlink:href="#linearGradient2889"
       id="linearGradient2843"
       gradientUnits="userSpaceOnUse"
       gradientTransform="matrix(0.290192,0,0,0.290192,-57.22657,-214.1085)"
       x1="216.54648"
       y1="936.5766"
       x2="230.14624"
       y2="933.30359" />
    <linearGradient
       inkscape:collect="always"
       xlink:href="#linearGradient2780"
       id="linearGradient2848"
       gradientUnits="userSpaceOnUse"
       gradientTransform="matrix(0.304061,-1.200495e-2,1.144845e-2,0.289966,-64.88682,-82.23308)"
       x1="312.21188"
       y1="511.61053"
       x2="190.51151"
       y2="629.23712" />
    <linearGradient
       inkscape:collect="always"
       xlink:href="#linearGradient2780"
       id="linearGradient2851"
       gradientUnits="userSpaceOnUse"
       gradientTransform="matrix(0.290192,0,0,0.290192,-51.21834,-88.76673)"
       x1="312.21188"
       y1="511.61053"
       x2="190.51151"
       y2="629.23712" />
    <linearGradient
       inkscape:collect="always"
       xlink:href="#linearGradient2840"
       id="linearGradient2854"
       gradientUnits="userSpaceOnUse"
       gradientTransform="matrix(0.290192,0,0,0.290192,-22.95016,-186.3066)"
       x1="153.14429"
       y1="887.21753"
       x2="184.58871"
       y2="875.40594" />
    <radialGradient
       inkscape:collect="always"
       xlink:href="#linearGradient2794"
       id="radialGradient2857"
       gradientUnits="userSpaceOnUse"
       gradientTransform="matrix(8.242527e-2,-3.750296e-2,0.302286,0.664375,-236.1348,-510.3994)"
       cx="335.02524"
       cy="888.71521"
       fx="350.12732"
       fy="852.39166"
       r="114.14001" />
    <linearGradient
       inkscape:collect="always"
       xlink:href="#linearGradient2780"
       id="linearGradient2860"
       gradientUnits="userSpaceOnUse"
       gradientTransform="matrix(0.290192,0,0,0.290192,-54.93161,-88.48109)"
       x1="430.32816"
       y1="577.55878"
       x2="532.94513"
       y2="509.3501" />
    <linearGradient
       inkscape:collect="always"
       xlink:href="#linearGradient2780"
       id="linearGradient2863"
       gradientUnits="userSpaceOnUse"
       gradientTransform="matrix(0.290192,0,0,0.290192,-54.93161,-88.48109)"
       x1="430.32816"
       y1="577.55878"
       x2="733.39508"
       y2="629.88611" />
    <linearGradient
       inkscape:collect="always"
       xlink:href="#linearGradient2780"
       id="linearGradient2866"
       gradientUnits="userSpaceOnUse"
       gradientTransform="matrix(0.290192,0,0,0.290192,-54.93161,-88.48109)"
       x1="430.32816"
       y1="577.55878"
       x2="337.56326"
       y2="594.50177" />
    <linearGradient
       inkscape:collect="always"
       xlink:href="#linearGradient2780"
       id="linearGradient2869"
       gradientUnits="userSpaceOnUse"
       gradientTransform="matrix(0.290192,0,0,0.290192,-54.93161,-88.48109)"
       x1="430.32816"
       y1="577.55878"
       x2="133.42198"
       y2="508.16797" />
    <linearGradient
       inkscape:collect="always"
       xlink:href="#linearGradient2877"
       id="linearGradient2872"
       gradientUnits="userSpaceOnUse"
       gradientTransform="matrix(0.290192,0,0,0.290192,-22.95016,-186.3066)"
       x1="393.05997"
       y1="1040.4121"
       x2="356.96173"
       y2="934.99768" />
    <linearGradient
       inkscape:collect="always"
       xlink:href="#linearGradient2780"
       id="linearGradient2875"
       gradientUnits="userSpaceOnUse"
       gradientTransform="matrix(0.290192,0,0,0.290192,-54.93161,-88.48109)"
       x1="312.21188"
       y1="511.61053"
       x2="190.51151"
       y2="629.23712" />
    <linearGradient
       inkscape:collect="always"
       xlink:href="#linearGradient2879"
       id="linearGradient2886"
       x1="-27.91856"
       y1="18.495043"
       x2="92.550174"
       y2="45.329494"
       gradientUnits="userSpaceOnUse"
       gradientTransform="translate(9.17853,14.50496)" />
    <linearGradient
       inkscape:collect="always"
       xlink:href="#linearGradient3773"
       id="linearGradient3779"
       x1="39.737278"
       y1="104.12802"
       x2="11.255031"
       y2="57.215538"
       gradientUnits="userSpaceOnUse" />
    <linearGradient
       inkscape:collect="always"
       xlink:href="#linearGradient2879"
       id="linearGradient3783"
       gradientUnits="userSpaceOnUse"
       gradientTransform="matrix(0.79893,0.601424,-0.601424,0.79893,38.90002,24.48588)"
       x1="31.042259"
       y1="47.902847"
       x2="31.087278"
       y2="65.424553" />
  </defs>
  <sodipodi:namedview
     id="base"
     pagecolor="#ffffff"
     bordercolor="#666666"
     borderopacity="1.0"
     inkscape:pageopacity="0.0"
     inkscape:pageshadow="2"
     inkscape:zoom="1.9610984"
     inkscape:cx="36.953567"
     inkscape:cy="68.894625"
     inkscape:current-layer="layer1"
     showgrid="true"
     inkscape:document-units="px"
     inkscape:grid-bbox="true"
     showguides="true"
     inkscape:guide-bbox="true"
     inkscape:window-width="1270"
     inkscape:window-height="731"
     inkscape:window-x="500"
     inkscape:window-y="320" />
  <metadata
     id="metadata1312">
    <rdf:RDF>
      <cc:Work
         rdf:about="">
        <dc:format>image/svg+xml</dc:format>
        <dc:type
           rdf:resource="http://purl.org/dc/dcmitype/StillImage" />
      </cc:Work>
    </rdf:RDF>
  </metadata>
  <g
     id="layer1"
     inkscape:label="Layer 1"
     inkscape:groupmode="layer">
    <rect
       style="opacity:0.57786889;fill:#ffffff;fill-opacity:1;fill-rule:nonzero;stroke:none;stroke-width:3.63199997;stroke-linecap:round;stroke-linejoin:round;stroke-miterlimit:4;stroke-dasharray:none;stroke-dashoffset:4;stroke-opacity:1"
       id="rect1327"
       width="1"
       height="0"
       x="116"
       y="77" />
    <g
       id="g3878"
       transform="matrix(0.938716,0,0,0.938716,-1634.461,-799.2542)"
       style="opacity:0.63934428">
      <path
         sodipodi:nodetypes="cccscccccccccc"
         id="path3752"
         d="M 1827.5536,865.46009 C 1814.8571,868.93863 1797.2691,879.8781 1795.4931,888.05868 L 1794.085,888.51199 C 1788.4144,883.10237 1769.7789,884.25359 1759.835,886.04284 C 1759.4462,886.11281 1758.9348,886.20274 1758.7258,886.07176 L 1758.9759,886.95708 L 1756.1844,887.20934 C 1753.2497,892.00171 1750.4534,896.87711 1749.1068,902.62234 L 1745.7289,903.87061 L 1764.9083,974.61418 L 1872.7603,936.33262 L 1833.8711,875.57785 L 1833.7844,875.60678 L 1827.5536,865.46009 z "
         style="opacity:0.352459;fill:none;fill-opacity:1;fill-rule:evenodd;stroke:black;stroke-width:1;stroke-linecap:butt;stroke-linejoin:round;stroke-miterlimit:4;stroke-dasharray:none;stroke-opacity:1" />
      <path
         style="opacity:0.27459017;fill:none;fill-opacity:1;fill-rule:evenodd;stroke:black;stroke-width:3;stroke-linecap:butt;stroke-linejoin:round;stroke-miterlimit:4;stroke-dasharray:none;stroke-opacity:1"
         d="M 1827.5536,866.46009 C 1814.8571,869.93863 1797.2691,880.8781 1795.4931,889.05868 L 1794.085,889.51199 C 1788.4144,884.10237 1769.7789,885.25359 1759.835,887.04284 C 1759.4462,887.11281 1758.9348,887.20274 1758.7258,887.07176 L 1758.9759,887.95708 L 1756.1844,888.20934 C 1753.2497,893.00171 1750.4534,897.87711 1749.1068,903.62234 L 1745.7289,904.87061 L 1764.9083,975.61418 L 1872.7603,937.33262 L 1833.8711,876.57785 L 1833.7844,876.60678 L 1827.5536,866.46009 z "
         id="path3870"
         sodipodi:nodetypes="cccscccccccccc" />
      <path
         sodipodi:nodetypes="cccscccccccccc"
         id="path3872"
         d="M 1827.5536,867.06009 C 1814.8571,870.53863 1797.2691,881.4781 1795.4931,889.65868 L 1794.085,890.11199 C 1788.4144,884.70237 1769.7789,885.85359 1759.835,887.64284 C 1759.4462,887.71281 1758.9348,887.80274 1758.7258,887.67176 L 1758.9759,888.55708 L 1756.1844,888.80934 C 1753.2497,893.60171 1750.4534,898.47711 1749.1068,904.22234 L 1745.7289,905.47061 L 1764.9083,976.21418 L 1872.7603,937.93262 L 1833.8711,877.17785 L 1833.7844,877.20678 L 1827.5536,867.06009 z "
         style="opacity:0.204918;fill:none;fill-opacity:1;fill-rule:evenodd;stroke:black;stroke-width:5;stroke-linecap:butt;stroke-linejoin:round;stroke-miterlimit:4;stroke-dasharray:none;stroke-opacity:1" />
      <path
         style="opacity:0.12704917;fill:none;fill-opacity:1;fill-rule:evenodd;stroke:black;stroke-width:7;stroke-linecap:butt;stroke-linejoin:round;stroke-miterlimit:4;stroke-dasharray:none;stroke-opacity:1"
         d="M 1827.5536,867.56009 C 1814.8571,871.03863 1797.2691,881.9781 1795.4931,890.15868 L 1794.085,890.61199 C 1788.4144,885.20237 1769.7789,886.35359 1759.835,888.14284 C 1759.4462,888.21281 1758.9348,888.30274 1758.7258,888.17176 L 1758.9759,889.05708 L 1756.1844,889.30934 C 1753.2497,894.10171 1750.4534,898.97711 1749.1068,904.72234 L 1745.7289,905.97061 L 1764.9083,976.71418 L 1872.7603,938.43262 L 1833.8711,877.67785 L 1833.7844,877.70678 L 1827.5536,867.56009 z "
         id="path3874"
         sodipodi:nodetypes="cccscccccccccc" />
      <path
         sodipodi:nodetypes="cccscccccccccc"
         id="path3876"
         d="M 1827.5536,867.86009 C 1814.8571,871.33863 1797.2691,882.2781 1795.4931,890.45868 L 1794.085,890.91199 C 1788.4144,885.50237 1769.7789,886.65359 1759.835,888.44284 C 1759.4462,888.51281 1758.9348,888.60274 1758.7258,888.47176 L 1758.9759,889.35708 L 1756.1844,889.60934 C 1753.2497,894.40171 1750.4534,899.27711 1749.1068,905.02234 L 1745.7289,906.27061 L 1764.9083,977.01418 L 1872.7603,938.73262 L 1833.8711,877.97785 L 1833.7844,878.00678 L 1827.5536,867.86009 z "
         style="opacity:0.0737705;fill:none;fill-opacity:1;fill-rule:evenodd;stroke:black;stroke-width:9;stroke-linecap:butt;stroke-linejoin:round;stroke-miterlimit:4;stroke-dasharray:none;stroke-opacity:1" />
    </g>
    <path
       style="fill:black;fill-opacity:1;fill-rule:evenodd;stroke:black;stroke-width:0.40626881;stroke-linecap:butt;stroke-linejoin:round;stroke-miterlimit:4;stroke-dasharray:none;stroke-opacity:1"
       d="M 21.894784,115.93851 L 123.29578,79.948304 L 86.734289,22.820982 L 4.1853153,49.670822 L 21.894784,115.93851 z "
       id="path1881"
       sodipodi:nodetypes="ccccc" />
    <path
       style="fill:url(#linearGradient3779);fill-opacity:1.0;fill-rule:evenodd;stroke:none;stroke-width:1px;stroke-linecap:butt;stroke-linejoin:miter;stroke-opacity:1"
       d="M 25.352573,111.93874 C 40.626425,106.42573 57.404961,96.774872 70.768796,96.514367 L 82.4799,92.229827 C 95.047332,84.432466 107.30133,81.963136 119.61267,78.519282 L 83.48382,20.849388 L 51.817749,38.05982 L 16.262964,32.811082 L 16.080033,32.690075 L 16.382068,33.742236 L 14.0744,34.072347 L 12.995745,36.069265 L 12.491353,36.488743 L 11.345748,38.226303 L 10.742337,39.731201 L 9.8893525,40.884639 L 9.6345697,42.967799 L 8.6569912,43.779365 L 7.9365693,45.968753 L 7.3574679,48.241792 L 25.352573,111.93874 z "
       id="path2768"
       sodipodi:nodetypes="cccccccccccccccccccc" />
    <path
       style="fill:url(#linearGradient2875);fill-opacity:1;fill-rule:evenodd;stroke:none;stroke-width:1px;stroke-linecap:butt;stroke-linejoin:miter;stroke-opacity:1"
       d="M 35.402366,101.48834 C 43.492924,97.132766 71.06247,89.366764 75.611955,94.155338 L 50.701613,37.147738 C 48.343745,29.381445 24.04959,33.319867 14.066463,34.056578 L 35.402366,101.48834 z "
       id="path2834"
       sodipodi:nodetypes="ccccc" />
    <path
       sodipodi:nodetypes="ccccsc"
       id="path2875"
       d="M 25.352573,111.93874 C 40.626425,106.42573 57.404961,96.774872 70.768796,96.514367 L 82.4799,92.229827 C 95.047332,84.432466 107.30133,81.963136 119.61267,78.519282 L 118.25628,76.367546 C 112.8144,66.94191 47.584487,81.83557 25.352573,111.93874 z "
       style="fill:url(#linearGradient2872);fill-opacity:1;fill-rule:evenodd;stroke:none;stroke-width:1px;stroke-linecap:butt;stroke-linejoin:miter;stroke-opacity:1" />
    <path
       sodipodi:nodetypes="ccccc"
       id="path2810"
       d="M 36.830549,100.06014 C 44.921107,95.704586 70.288209,88.861829 74.837694,93.650404 L 50.701613,37.147738 C 48.343745,29.381445 24.335229,33.177052 14.352102,33.913762 L 36.830549,100.06014 z "
       style="fill:url(#linearGradient2869);fill-opacity:1;fill-rule:evenodd;stroke:none;stroke-width:1px;stroke-linecap:butt;stroke-linejoin:miter;stroke-opacity:1" />
    <path
       style="fill:url(#linearGradient2866);fill-opacity:1;fill-rule:evenodd;stroke:none;stroke-width:1px;stroke-linecap:butt;stroke-linejoin:miter;stroke-opacity:1"
       d="M 39.874645,96.875249 C 40.072547,96.908389 40.494431,96.986219 40.927633,96.820954 C 49.956545,93.376172 71.40539,89.737484 75.746604,94.306818 L 50.701613,37.147738 C 48.410576,29.601547 27.39024,30.790884 16.949811,32.698224 C 16.645295,32.753856 16.220056,32.786358 16.077273,32.689611 L 39.874645,96.875249 z "
       id="path2770"
       sodipodi:nodetypes="csccscc" />
    <path
       style="fill:url(#linearGradient2863);fill-opacity:1;fill-rule:evenodd;stroke:none;stroke-width:1px;stroke-linecap:butt;stroke-linejoin:miter;stroke-opacity:1"
       d="M 118.36345,76.331002 C 107.11334,79.630224 83.332485,80.64816 76.57133,92.909805 L 50.701613,37.147738 C 48.343745,29.381445 67.450915,16.970876 80.795974,13.314617 L 118.36345,76.331002 z "
       id="path2824"
       sodipodi:nodetypes="ccccc" />
    <path
       sodipodi:nodetypes="ccccc"
       id="path2788"
       d="M 116.74763,71.887539 C 105.49755,75.186746 82.50773,82.045173 75.746604,94.306818 L 50.701613,37.147738 C 48.343745,29.381445 67.450915,16.970876 80.795974,13.314617 L 116.74763,71.887539 z "
       style="fill:url(#linearGradient2860);fill-opacity:1;fill-rule:evenodd;stroke:none;stroke-width:1px;stroke-linecap:butt;stroke-linejoin:miter;stroke-opacity:1" />
    <path
       style="fill:url(#linearGradient2886);fill-opacity:1;fill-rule:evenodd;stroke:none;stroke-width:1px;stroke-linecap:butt;stroke-linejoin:miter;stroke-opacity:1"
       d="M 60.425321,58.014875 C 65.500408,39.400794 84.9014,35.431738 92.932613,33 L 101.7287,47.022753 C 85.798123,43.858819 67.695945,53.220005 61.883898,61.937863 C 53.890393,54.661882 40.89109,72.616557 36.354289,87.448877 L 35.826161,86.038181 C 38.699022,68.799345 53.659654,50.966544 60.425321,58.014875 z "
       id="path1945"
       sodipodi:nodetypes="ccccccc" />
    <path
       style="fill:url(#radialGradient2857);fill-opacity:1;fill-rule:evenodd;stroke:none;stroke-width:1px;stroke-linecap:butt;stroke-linejoin:miter;stroke-opacity:1"
       d="M 100.18565,60.980858 C 97.822468,70.339333 82.50773,82.045173 75.746604,94.306818 L 50.701613,37.147738 C 48.343745,29.381445 67.450915,16.970876 80.795974,13.314617 L 100.18565,60.980858 z "
       id="path2792"
       sodipodi:nodetypes="ccccc" />
    <path
       sodipodi:nodetypes="csccscc"
       id="path2838"
       d="M 39.873656,96.872289 C 40.133491,96.984129 40.598175,96.957345 41.108472,96.766369 C 50.251989,93.344425 71.437602,89.771378 75.746604,94.306818 L 50.701613,37.147738 C 48.423083,29.642772 27.619355,30.778151 17.121866,32.667031 C 16.756337,32.732803 16.27239,32.811387 16.075889,32.688229 L 39.873656,96.872289 z "
       style="fill:url(#linearGradient2854);fill-opacity:1;fill-rule:evenodd;stroke:none;stroke-width:1px;stroke-linecap:butt;stroke-linejoin:miter;stroke-opacity:1" />
    <path
       style="opacity:0.83999999;fill:url(#linearGradient2851);fill-opacity:1;fill-rule:evenodd;stroke:none;stroke-width:1px;stroke-linecap:butt;stroke-linejoin:miter;stroke-opacity:1"
       d="M 71.942913,94.404206 C 61.982072,93.33363 37.991348,101.4133 30.608887,105.84807 L 29.694605,106.79062 C 36.982537,102.14856 64.422065,92.595498 73.327042,94.573098 C 72.702171,94.473504 72.727505,94.404816 71.942913,94.404206 z "
       id="path2852"
       sodipodi:nodetypes="ccccc" />
    <path
       sodipodi:nodetypes="ccccc"
       id="path2865"
       d="M 70.911048,95.414568 C 60.431896,94.756906 35.496878,103.97094 27.936538,108.70765 L 27.01871,109.81372 C 34.471822,104.87378 63.326967,94.054525 72.735572,95.662189 C 72.076895,95.588509 71.733162,95.382734 70.911048,95.414568 z "
       style="opacity:0.83999999;fill:url(#linearGradient2848);fill-opacity:1;fill-rule:evenodd;stroke:none;stroke-width:1px;stroke-linecap:butt;stroke-linejoin:miter;stroke-opacity:1" />
    <path
       style="fill:#e1dddb;fill-opacity:1;fill-rule:evenodd;stroke:none;stroke-width:1px;stroke-linecap:butt;stroke-linejoin:miter;stroke-opacity:1"
       d="M 79.586106,93.294948 C 78.630881,90.787021 98.363095,80.583998 119.27671,78.1992 L 119.27671,78.064551 C 97.319072,81.229327 80.195654,88.993373 79.586106,93.294948 z "
       id="path2871"
       sodipodi:nodetypes="cccc" />
    <path
       sodipodi:nodetypes="cccc"
       id="path2873"
       d="M 77.835668,93.294948 C 78.417851,87.040265 97.868231,79.435883 118.94345,77.580308 L 118.94345,77.445659 C 98.053751,80.080341 79.07206,86.81947 77.835668,93.294948 z "
       style="fill:#e1dddb;fill-opacity:1;fill-rule:evenodd;stroke:none;stroke-width:1px;stroke-linecap:butt;stroke-linejoin:miter;stroke-opacity:1" />
    <path
       style="fill:url(#linearGradient2843);fill-opacity:1;fill-rule:evenodd;stroke:none;stroke-width:1px;stroke-linecap:butt;stroke-linejoin:miter;stroke-opacity:1"
       d="M 4.3845292,49.870181 L 14.750784,88.190542 L 22.068899,115.24301 C 17.312664,93.091001 10.738646,73.234468 5.0735205,49.99885 C 5.0173219,49.608565 6.5017033,49.189545 7.2157962,48.784892 L 4.4779362,49.644717 C 4.4048833,49.683338 4.3347903,49.729238 4.3845292,49.870181 z "
       id="path2887"
       sodipodi:nodetypes="ccccccc" />
    <path
       style="fill:#e6e3e0;fill-opacity:1;fill-rule:evenodd;stroke:none;stroke-width:1px;stroke-linecap:butt;stroke-linejoin:miter;stroke-opacity:1"
       d="M 8.2794398,45.576698 L 27.893154,107.08377 L 8.6602878,44.0533 L 8.2794398,45.576698 z "
       id="path2897"
       sodipodi:nodetypes="cccc" />
    <path
       id="path2899"
       d="M 10.445517,40.054388 L 31.158502,105.30576 L 31.404753,105.06699 L 10.945382,39.268884 L 10.445517,40.054388 z "
       style="opacity:0.72000002;fill:#e6e3e0;fill-opacity:1;fill-rule:evenodd;stroke:none;stroke-width:1px;stroke-linecap:butt;stroke-linejoin:miter;stroke-opacity:1"
       sodipodi:nodetypes="ccccc" />
    <path
       style="fill:#9c0f0f;fill-opacity:1;fill-rule:evenodd;stroke:none;stroke-width:1px;stroke-linecap:butt;stroke-linejoin:miter;stroke-opacity:1"
       d="M 47.285095,33.558254 L 58.89945,63.697563 C 60.956215,69.497668 68.1156,76.983737 69.343634,79.770729 C 68.98458,79.41166 68.625496,79.052594 68.266441,78.693525 C 67.154368,76.179673 61.217823,70.733724 58.170139,63.439783 L 46.502448,33.331034 L 47.285095,33.558254 z "
       id="path2920"
       sodipodi:nodetypes="ccccccc" />
    <path
       sodipodi:nodetypes="ccccc"
       id="path1939"
       d="M 50.194357,79.217298 C 47.831179,88.575787 70.510931,90.354751 75.746604,94.306818 L 50.701613,37.147738 C 49.236114,32.345344 40.621182,31.906893 40.515296,31.883803 L 50.194357,79.217298 z "
       style="opacity:0.8;fill:url(#radialGradient2837);fill-opacity:1;fill-rule:evenodd;stroke:none;stroke-width:1px;stroke-linecap:butt;stroke-linejoin:miter;stroke-opacity:1" />
    <path
       sodipodi:nodetypes="ccccccc"
       id="path3781"
       d="M 34.890689,83.253643 C 34.777309,84.438758 32.231366,88.454289 31.560816,89.362753 C 27.92748,90.90871 24.062227,93.241931 20.717115,95.45215 L 20.536356,94.797967 C 23.839378,92.276472 27.543328,90.185395 31.250892,88.587454 C 31.766511,87.566856 34.071743,83.638191 34.523266,82.238734 L 34.890689,83.253643 z "
       style="fill:url(#linearGradient3783);fill-opacity:1;fill-rule:evenodd;stroke:none;stroke-width:1px;stroke-linecap:butt;stroke-linejoin:miter;stroke-opacity:1" />
  </g>
</svg>
