<?xml version="1.0" encoding="UTF-8" standalone="no"?>
<!-- Created with Inkscape (http://www.inkscape.org/) -->
<svg
   xmlns:dc="http://purl.org/dc/elements/1.1/"
   xmlns:cc="http://web.resource.org/cc/"
   xmlns:rdf="http://www.w3.org/1999/02/22-rdf-syntax-ns#"
   xmlns:svg="http://www.w3.org/2000/svg"
   xmlns="http://www.w3.org/2000/svg"
   xmlns:xlink="http://www.w3.org/1999/xlink"
   xmlns:sodipodi="http://inkscape.sourceforge.net/DTD/sodipodi-0.dtd"
   xmlns:inkscape="http://www.inkscape.org/namespaces/inkscape"
   width="128"
   height="128"
   id="svg1307"
   sodipodi:version="0.32"
   inkscape:version="0.43"
   version="1.0"
   sodipodi:docbase="/home/pinheiro/Documents/pics/new oxygen/svg"
   sodipodi:docname="cancel.svg">
  <defs
     id="defs1309">
    <linearGradient
       id="linearGradient4370">
      <stop
         id="stop4372"
         offset="0"
         style="stop-color:#400200;stop-opacity:1;" />
      <stop
         id="stop4374"
         offset="1"
         style="stop-color:#ffffff;stop-opacity:1;" />
    </linearGradient>
    <linearGradient
       inkscape:collect="always"
       id="linearGradient4120">
      <stop
         style="stop-color:#000000;stop-opacity:1;"
         offset="0"
         id="stop4122" />
      <stop
         style="stop-color:#000000;stop-opacity:0;"
         offset="1"
         id="stop4124" />
    </linearGradient>
    <linearGradient
       id="linearGradient2346">
      <stop
         style="stop-color:#740000;stop-opacity:1;"
         offset="0"
         id="stop2348" />
      <stop
         style="stop-color:#de0000;stop-opacity:1;"
         offset="1"
         id="stop2350" />
    </linearGradient>
    <linearGradient
       id="linearGradient3350"
       inkscape:collect="always">
      <stop
         id="stop3352"
         offset="0"
         style="stop-color:#ffffff;stop-opacity:1;" />
      <stop
         id="stop3354"
         offset="1"
         style="stop-color:#ffffff;stop-opacity:0;" />
    </linearGradient>
    <linearGradient
       inkscape:collect="always"
       id="linearGradient3920">
      <stop
         style="stop-color:#ffffff;stop-opacity:1;"
         offset="0"
         id="stop3922" />
      <stop
         style="stop-color:#ffffff;stop-opacity:0;"
         offset="1"
         id="stop3924" />
    </linearGradient>
    <linearGradient
       inkscape:collect="always"
       id="linearGradient3291">
      <stop
         style="stop-color:#000000;stop-opacity:1;"
         offset="0"
         id="stop3293" />
      <stop
         style="stop-color:#000000;stop-opacity:0;"
         offset="1"
         id="stop3295" />
    </linearGradient>
    <radialGradient
       inkscape:collect="always"
       xlink:href="#linearGradient3291"
       id="radialGradient3297"
       cx="63.912209"
       cy="115.70919"
       fx="64.281197"
       fy="122.79655"
       r="63.912209"
       gradientTransform="matrix(1,0,0,0.197802,0,92.82166)"
       gradientUnits="userSpaceOnUse" />
    <linearGradient
       inkscape:collect="always"
       xlink:href="#linearGradient4120"
       id="linearGradient4493"
       gradientUnits="userSpaceOnUse"
       gradientTransform="matrix(0.622426,0,0,0.622426,162.0868,38.69743)"
       x1="-175.4637"
       y1="280.00327"
       x2="-83.016327"
       y2="-1.9146874" />
    <linearGradient
       inkscape:collect="always"
       xlink:href="#linearGradient2346"
       id="linearGradient4495"
       gradientUnits="userSpaceOnUse"
       x1="2.4362936"
       y1="61.291039"
       x2="121.36007"
       y2="61.291039" />
    <radialGradient
       inkscape:collect="always"
       xlink:href="#linearGradient2346"
       id="radialGradient4497"
       gradientUnits="userSpaceOnUse"
       gradientTransform="matrix(1.367708e-3,1.367708e-3,-1.741604e-3,1.741604e-3,38.85438,305.1611)"
       cx="-73165.609"
       cy="-66340.406"
       fx="-73165.609"
       fy="-66340.406"
       r="45243.25" />
    <linearGradient
       inkscape:collect="always"
       xlink:href="#linearGradient4120"
       id="linearGradient4499"
       gradientUnits="userSpaceOnUse"
       gradientTransform="matrix(0.622426,0,0,0.622426,162.0868,38.69743)"
       x1="-175.4637"
       y1="280.00327"
       x2="-83.016327"
       y2="-1.9146874" />
    <linearGradient
       inkscape:collect="always"
       xlink:href="#linearGradient4370"
       id="linearGradient4501"
       gradientUnits="userSpaceOnUse"
       gradientTransform="matrix(0.622426,0,0,0.622426,162.0868,38.69743)"
       x1="-165.96236"
       y1="112.85389"
       x2="-160.9648"
       y2="-22.103186" />
    <linearGradient
       inkscape:collect="always"
       xlink:href="#linearGradient3350"
       id="linearGradient4503"
       gradientUnits="userSpaceOnUse"
       gradientTransform="matrix(2.419264e-3,0,0,2.419264e-3,-261.3969,7.208252)"
       x1="133661.34"
       y1="-8555.0625"
       x2="133661.34"
       y2="26540.242" />
    <linearGradient
       inkscape:collect="always"
       xlink:href="#linearGradient3350"
       id="linearGradient4505"
       gradientUnits="userSpaceOnUse"
       gradientTransform="matrix(2.419264e-3,0,0,2.419264e-3,-261.3969,7.208252)"
       x1="142861.77"
       y1="12163.527"
       x2="112210.09"
       y2="19084.873" />
    <linearGradient
       inkscape:collect="always"
       xlink:href="#linearGradient3920"
       id="linearGradient4507"
       gradientUnits="userSpaceOnUse"
       gradientTransform="matrix(2.419264e-3,0,0,2.419264e-3,-261.1813,6.276611)"
       x1="151657.88"
       y1="-1229.7966"
       x2="150676.53"
       y2="-6.3776054" />
    <radialGradient
       inkscape:collect="always"
       xlink:href="#linearGradient3920"
       id="radialGradient2238"
       cx="20.651289"
       cy="-7.7714982"
       fx="20.651289"
       fy="-7.7714982"
       r="28.000126"
       gradientTransform="matrix(0.184778,-5.081012e-2,3.515115e-2,0.127833,17.10856,2.504871)"
       gradientUnits="userSpaceOnUse" />
    <linearGradient
       inkscape:collect="always"
       xlink:href="#linearGradient3920"
       id="linearGradient2242"
       x1="29.096756"
       y1="8.4931593"
       x2="27.956514"
       y2="9.7499876"
       gradientUnits="userSpaceOnUse" />
  </defs>
  <sodipodi:namedview
     id="base"
     pagecolor="#ffffff"
     bordercolor="#666666"
     borderopacity="1.0"
     inkscape:pageopacity="0.0"
     inkscape:pageshadow="2"
     inkscape:zoom="3.9978359"
     inkscape:cx="83.702148"
     inkscape:cy="90.970396"
     inkscape:current-layer="layer1"
     showgrid="false"
     inkscape:document-units="px"
     inkscape:grid-bbox="true"
     guidetolerance="0.1px"
     showguides="true"
     inkscape:guide-bbox="true"
     inkscape:window-width="1106"
     inkscape:window-height="958"
     inkscape:window-x="597"
     inkscape:window-y="25">
    <sodipodi:guide
       orientation="horizontal"
       position="32.487481"
       id="guide2204" />
  </sodipodi:namedview>
  <metadata
     id="metadata1312">
    <rdf:RDF>
      <cc:Work
         rdf:about="">
        <dc:format>image/svg+xml</dc:format>
        <dc:type
           rdf:resource="http://purl.org/dc/dcmitype/StillImage" />
        <cc:license
           rdf:resource="http://creativecommons.org/licenses/GPL/2.0/" />
        <dc:contributor>
          <cc:Agent>
            <dc:title>Oxygen team</dc:title>
          </cc:Agent>
        </dc:contributor>
      </cc:Work>
      <cc:License
         rdf:about="http://creativecommons.org/licenses/LGPL/2.1/">
        <cc:permits
           rdf:resource="http://web.resource.org/cc/Reproduction" />
        <cc:permits
           rdf:resource="http://web.resource.org/cc/Distribution" />
        <cc:requires
           rdf:resource="http://web.resource.org/cc/Notice" />
        <cc:permits
           rdf:resource="http://web.resource.org/cc/DerivativeWorks" />
        <cc:requires
           rdf:resource="http://web.resource.org/cc/ShareAlike" />
        <cc:requires
           rdf:resource="http://web.resource.org/cc/SourceCode" />
      </cc:License>
    </rdf:RDF>
  </metadata>
  <g
     id="layer1"
     inkscape:label="Layer 1"
     inkscape:groupmode="layer">
    <path
       sodipodi:nodetypes="ccc"
       id="path2276"
       d="M 50.892799,3.2812959 L 50.892799,0.48658747 L 50.892799,3.2812959 z "
       style="fill:#ffffff;fill-opacity:0.75688076;fill-rule:nonzero;stroke:none;stroke-width:0.5;stroke-linecap:round;stroke-linejoin:round;stroke-miterlimit:4;stroke-dasharray:none;stroke-dashoffset:4;stroke-opacity:1" />
    <path
       sodipodi:type="arc"
       style="opacity:0.38139535;fill:url(#radialGradient3297);fill-opacity:1.0;fill-rule:nonzero;stroke:none;stroke-width:0;stroke-linecap:round;stroke-linejoin:round;stroke-miterlimit:4;stroke-dasharray:none;stroke-dashoffset:4;stroke-opacity:1"
       id="path3289"
       sodipodi:cx="63.912209"
       sodipodi:cy="115.70919"
       sodipodi:rx="63.912209"
       sodipodi:ry="12.641975"
       d="M 127.82442 115.70919 A 63.912209 12.641975 0 1 1  0,115.70919 A 63.912209 12.641975 0 1 1  127.82442 115.70919 z"
       transform="matrix(1,0,0,0.416667,0,74.87151)" />
    <g
       id="g4395"
       transform="translate(1.891464,0.465908)">
      <path
         id="path4397"
         d="M 103.9055,1.9424525 C 103.71108,1.7514877 103.34575,1.8074849 103.08411,2.0691242 L 61.898182,43.255047 L 20.712258,2.0691242 C 20.449588,1.8064465 20.08235,1.7509733 19.888625,1.9447017 L 2.5518346,19.281485 C 2.35812,19.47521 2.4135827,19.842439 2.676274,20.105119 L 43.862188,61.29104 L 2.6762634,102.47696 C 2.4135827,102.73963 2.35812,103.10687 2.5518452,103.3006 L 19.888625,120.63737 C 20.08235,120.8311 20.449588,120.77564 20.712258,120.51294 L 61.898182,79.327034 L 103.08411,120.51294 C 103.34679,120.77564 103.71402,120.8311 103.90774,120.63738 L 121.24453,103.3006 C 121.43825,103.10687 121.38278,102.73963 121.1201,102.47695 L 79.934176,61.291041 L 121.1201,20.105119 C 121.38278,19.84244 121.43824,19.475208 121.24452,19.281483 L 103.90774,1.9447017 L 103.90774,1.9447017 C 103.90688,1.9438348 103.90619,1.9431436 103.9055,1.9424525 z "
         style="fill:url(#linearGradient4493);fill-opacity:1;fill-rule:nonzero;stroke:#850000;stroke-width:3.62563276;stroke-linecap:round;stroke-linejoin:round;stroke-miterlimit:4;stroke-dasharray:none;stroke-dashoffset:4;stroke-opacity:1" />
      <path
         id="path4399"
         d="M 103.9055,1.9424525 C 103.71108,1.7514877 103.34575,1.8074849 103.08411,2.0691242 L 61.898182,43.255047 L 20.712258,2.0691242 C 20.449588,1.8064465 20.08235,1.7509733 19.888625,1.9447017 L 2.5518346,19.281485 C 2.35812,19.47521 2.4135827,19.842439 2.676274,20.105119 L 43.862188,61.29104 L 2.6762634,102.47696 C 2.4135827,102.73963 2.35812,103.10687 2.5518452,103.3006 L 19.888625,120.63737 C 20.08235,120.8311 20.449588,120.77564 20.712258,120.51294 L 61.898182,79.327034 L 103.08411,120.51294 C 103.34679,120.77564 103.71402,120.8311 103.90774,120.63738 L 121.24453,103.3006 C 121.43825,103.10687 121.38278,102.73963 121.1201,102.47695 L 79.934176,61.291041 L 121.1201,20.105119 C 121.38278,19.84244 121.43824,19.475208 121.24452,19.281483 L 103.90774,1.9447017 L 103.90774,1.9447017 C 103.90688,1.9438348 103.90619,1.9431436 103.9055,1.9424525 z "
         style="fill:url(#linearGradient4495);fill-opacity:1;fill-rule:nonzero;stroke:none;stroke-width:2.20000005;stroke-linecap:butt;stroke-linejoin:miter;stroke-miterlimit:4;stroke-dasharray:none;stroke-dashoffset:4;stroke-opacity:1" />
      <path
         id="path4401"
         d="M 110.27752,8.3144838 L 110.27735,30.947866 L 120.56813,20.657089 L 120.56829,18.605258 L 110.27752,8.3144838 z M 99.275948,5.8772739 L 88.954245,16.198984 L 88.954245,52.270973 L 99.27596,41.949258 L 99.275948,5.8772739 z M 77.952686,27.200551 L 67.630971,37.522262 L 67.630971,85.059819 L 77.952686,95.38153 L 77.952686,27.200551 z M 25.015531,6.3723886 L 25.015531,42.444377 L 35.306129,52.73498 L 35.306129,16.662992 L 25.015531,6.3723886 z M 46.338624,27.695491 L 46.338624,94.886594 L 56.629402,84.595813 L 56.629402,37.986268 L 46.338624,27.695491 z M 88.954245,70.311109 L 88.954245,106.3831 L 99.27596,116.7048 L 99.27596,80.632822 L 88.954245,70.311109 z M 110.27753,91.634384 L 110.27752,114.26759 L 120.56829,103.97682 L 120.56831,101.92516 L 110.27753,91.634384 z M 14.013952,7.819368 L 3.6922476,18.141078 L 3.6922476,21.1211 L 14.013952,31.442811 L 14.013952,7.819368 z M 35.306129,69.847102 L 25.015521,80.137708 L 25.015351,116.20986 L 35.306129,105.91908 L 35.306129,69.847102 z M 14.013952,91.139267 L 3.6922476,101.46098 L 3.6922476,104.441 L 14.013952,114.76271 L 14.013952,91.139267 z "
         style="fill:url(#radialGradient4497);fill-opacity:1;fill-rule:nonzero;stroke:none;stroke-width:1.70000005;stroke-linecap:butt;stroke-linejoin:miter;stroke-miterlimit:4;stroke-dasharray:none;stroke-dashoffset:4;stroke-opacity:1" />
      <path
         style="fill:url(#linearGradient4499);fill-opacity:1;fill-rule:nonzero;stroke:url(#linearGradient4501);stroke-width:1.44714117;stroke-linecap:butt;stroke-linejoin:miter;stroke-miterlimit:4;stroke-dasharray:none;stroke-dashoffset:4;stroke-opacity:1"
         d="M 103.9055,1.9424525 C 103.71108,1.7514877 103.34575,1.8074849 103.08411,2.0691242 L 61.898182,43.255047 L 20.712258,2.0691242 C 20.449588,1.8064465 20.08235,1.7509733 19.888625,1.9447017 L 2.5518346,19.281485 C 2.35812,19.47521 2.4135827,19.842439 2.676274,20.105119 L 43.862188,61.29104 L 2.6762634,102.47696 C 2.4135827,102.73963 2.35812,103.10687 2.5518452,103.3006 L 19.888625,120.63737 C 20.08235,120.8311 20.449588,120.77564 20.712258,120.51294 L 61.898182,79.327034 L 103.08411,120.51294 C 103.34679,120.77564 103.71402,120.8311 103.90774,120.63738 L 121.24453,103.3006 C 121.43825,103.10687 121.38278,102.73963 121.1201,102.47695 L 79.934176,61.291041 L 121.1201,20.105119 C 121.38278,19.84244 121.43824,19.475208 121.24452,19.281483 L 103.90774,1.9447017 L 103.90774,1.9447017 C 103.90688,1.9438348 103.90619,1.9431436 103.9055,1.9424525 z "
         id="path4403" />
      <path
         sodipodi:nodetypes="csssscccccssssssssccssssssssccscccccsssssssssssssssssccssssssssssc"
         id="path4405"
         d="M 103.54848,2.7113368 C 103.54589,2.7140172 103.52153,2.7378677 103.51877,2.7410429 C 103.51199,2.740976 103.49101,2.7411001 103.48907,2.7410429 C 103.4867,2.7408719 103.46572,2.7409952 103.45936,2.7410429 C 103.45733,2.7433143 103.43625,2.7641131 103.42967,2.7707484 C 103.42212,2.7781914 103.40735,2.7927451 103.39994,2.800454 L 102.80583,3.3945701 C 102.68527,3.5006265 102.57451,3.6258945 102.44937,3.7510391 L 61.920586,44.279817 L 21.42151,3.7510391 C 20.920944,3.2504706 20.416054,2.8933645 20.144161,2.800454 C 20.137385,2.8005018 20.116394,2.8004355 20.114458,2.800454 C 20.112528,2.8004924 20.091531,2.8004161 20.084748,2.800454 C 20.080578,2.8007014 20.058725,2.8003307 20.055046,2.800454 C 20.048429,2.7937239 20.027491,2.7734005 20.025335,2.7707484 C 20.021312,2.770777 20.004504,2.7709003 19.995633,2.7707484 C 19.992185,2.7704634 19.968668,2.7707863 19.965931,2.7707484 C 19.965897,2.77361 19.965758,2.7968897 19.965931,2.800454 C 19.962998,2.8005965 19.939556,2.8008252 19.936221,2.800454 L 4.0733362,18.66334 C 4.0731771,18.666257 4.072965,18.689707 4.0733362,18.693045 C 4.0699084,18.692779 4.0463782,18.693083 4.0436332,18.693045 C 4.0435538,18.695859 4.0434873,18.719204 4.0436332,18.722751 C 4.0437727,18.731619 4.0436598,18.748425 4.0436332,18.752458 C 4.0449527,18.753531 4.066494,18.775242 4.0733362,18.782163 C 4.0730908,18.786336 4.0733296,18.808084 4.0733362,18.811868 C 4.0732699,18.815727 4.0735285,18.836859 4.0733362,18.841574 C 4.0733163,18.843514 4.0733826,18.864511 4.0733362,18.871281 C 4.1803329,19.148205 4.5390018,19.634001 5.0239213,20.118922 L 37.443023,52.56773 C 37.463225,52.578139 37.479861,52.594754 37.502435,52.597436 C 56.068992,54.802981 94.594944,88.344083 99.498394,81.857625 L 78.288466,60.647701 L 118.81725,20.118922 C 118.87454,20.065072 118.97136,19.993977 119.02519,19.940687 L 119.76783,19.168338 C 119.77321,19.163432 119.79226,19.143974 119.79753,19.138632 C 119.79744,19.136056 119.79797,19.111653 119.79753,19.108927 C 119.80028,19.108973 119.82372,19.108556 119.82725,19.108927 C 119.82707,19.105409 119.82721,19.081987 119.82725,19.079221 C 119.83268,19.06881 119.85177,19.030284 119.85694,19.019808 C 119.85674,19.01671 119.85693,18.992812 119.85694,18.990104 C 119.8597,18.98747 119.8832,18.963391 119.88665,18.960398 C 119.88697,18.959142 119.88676,18.937535 119.88665,18.930692 C 119.88656,18.922821 119.88675,18.906784 119.88665,18.900985 C 119.88646,18.898106 119.88653,18.880615 119.88665,18.871281 C 119.88677,18.864435 119.88698,18.842839 119.88665,18.841574 C 119.88318,18.838588 119.85969,18.814502 119.85694,18.811868 C 119.85695,18.809149 119.85673,18.785281 119.85694,18.782163 C 119.85419,18.78221 119.83068,18.781925 119.82725,18.782163 C 119.82752,18.778721 119.82721,18.755204 119.82725,18.752458 C 119.82714,18.746069 119.82696,18.724975 119.82725,18.722751 C 119.82008,18.715668 119.79853,18.694013 119.79753,18.693045 C 119.79558,18.691086 119.77031,18.665716 119.76783,18.66334 L 103.90495,2.800454 C 103.90423,2.8001219 103.87715,2.7727448 103.87524,2.7707484 C 103.87153,2.7668798 103.84928,2.7448452 103.84553,2.7410429 C 103.84434,2.7424784 103.81873,2.7379341 103.81583,2.7410429 C 103.81236,2.7413182 103.78886,2.7410045 103.78612,2.7410429 C 103.78614,2.7382099 103.78593,2.7149017 103.78612,2.7113368 C 103.77569,2.7114985 103.73717,2.7110232 103.72671,2.7113368 C 103.71055,2.7113368 103.67161,2.7116218 103.66729,2.7113368 C 103.66151,2.7112327 103.64339,2.7111564 103.6376,2.7113368 C 103.63375,2.7112897 103.61255,2.7114508 103.60789,2.7113368 C 103.60403,2.7113275 103.57963,2.7110894 103.57818,2.7113368 C 103.57495,2.7110995 103.55116,2.7113752 103.54848,2.7113368 z "
         style="opacity:0.704918;fill:url(#linearGradient4503);fill-opacity:1;fill-rule:nonzero;stroke:none;stroke-width:0.89999998;stroke-linecap:butt;stroke-linejoin:miter;stroke-miterlimit:4;stroke-dasharray:none;stroke-dashoffset:4;stroke-opacity:1" />
      <path
         id="path4407"
         d="M 103.12249,3.1373171 C 103.11991,3.1399975 103.09555,3.163848 103.09279,3.1670232 C 103.08601,3.1669563 103.06503,3.1670803 103.06309,3.1670232 C 103.06072,3.1668522 103.03973,3.1669755 103.03338,3.1670232 C 103.03134,3.1692946 103.01027,3.1900934 103.00369,3.1967287 C 102.99614,3.2041717 102.98137,3.2187254 102.97396,3.2264343 L 102.37985,3.8205504 C 102.2593,3.9266068 102.14854,4.0518747 102.02339,4.1770193 L 61.920586,44.279817 L 21.753749,3.3333441 C 21.253183,2.8327757 20.748293,2.4756695 20.476399,2.3827591 C 20.469623,2.3828069 20.448632,2.3827406 20.446697,2.3827591 C 20.444767,2.3827975 20.423769,2.3827212 20.416986,2.3827591 C 20.412816,2.3830064 20.390964,2.3826357 20.387285,2.3827591 C 20.383975,2.3793942 20.363906,2.3593084 20.357573,2.3530535 C 20.353549,2.3530821 20.336742,2.3532054 20.327871,2.3530535 C 20.324423,2.3527685 20.300906,2.3530914 20.298169,2.3530535 C 20.298135,2.355915 20.297997,2.3791948 20.298169,2.3827591 C 20.291519,2.3827876 20.270136,2.3829494 20.268459,2.3827591 L 4.4993164,19.089319 C 4.49929,19.095964 4.4991241,19.117362 4.4993164,19.119025 C 4.4958887,19.118759 4.4723585,19.119062 4.4696135,19.119025 C 4.469534,19.121839 4.4694676,19.145185 4.4696135,19.148731 C 4.4697529,19.1576 4.4696401,19.174406 4.4696135,19.178438 C 4.470933,19.179511 4.4924743,19.201222 4.4993164,19.208142 C 4.4990711,19.212315 4.4993099,19.234064 4.4993164,19.237848 C 4.4992501,19.241707 4.4995088,19.262839 4.4993164,19.267554 C 4.4992966,19.269494 4.4993629,19.290492 4.4993164,19.297261 C 4.6063132,19.574185 4.964982,20.059981 5.4499016,20.544902 L 37.443023,52.56773 C 37.447777,52.570791 37.467979,52.594545 37.472733,52.597436 C 37.475245,52.598482 37.499777,52.596704 37.502435,52.597436 C 42.326833,53.170533 48.47893,55.877209 55.058549,59.429763 C 68.080878,38.052974 87.684814,17.381776 103.89485,3.6423151 L 103.47897,3.2264343 C 103.47825,3.2261022 103.45117,3.1987251 103.44926,3.1967287 C 103.44555,3.1928601 103.4233,3.1708255 103.41955,3.1670232 C 103.4161,3.1667382 103.39269,3.1669947 103.38985,3.1670232 C 103.38638,3.1672984 103.36288,3.1669848 103.36014,3.1670232 C 103.36016,3.1641902 103.35995,3.140882 103.36014,3.1373171 C 103.34971,3.1374787 103.31119,3.1370034 103.30073,3.1373171 C 103.28457,3.1373171 103.24563,3.1376021 103.24131,3.1373171 C 103.23553,3.137213 103.2174,3.1371367 103.21162,3.1373171 C 103.20776,3.13727 103.18657,3.1374311 103.18191,3.1373171 C 103.17805,3.1373078 103.15365,3.1370696 103.1522,3.1373171 C 103.14897,3.1370797 103.12518,3.1373555 103.12249,3.1373171 z M 108.94482,8.6922975 C 84.792435,32.177106 75.926729,51.871399 72.94143,70.064432 C 85.790632,78.09118 97.002933,85.158702 99.498394,81.857625 L 78.288466,60.647701 L 118.39127,20.544902 C 118.44856,20.491052 118.54538,20.419957 118.59921,20.366667 L 119.34185,19.594318 C 119.34723,19.589413 119.36628,19.569954 119.37155,19.564612 C 119.37161,19.557853 119.37178,19.536265 119.37155,19.534906 C 119.37821,19.534859 119.3995,19.534727 119.40127,19.534906 C 119.40109,19.531389 119.40124,19.507968 119.40127,19.505201 C 119.4067,19.494791 119.42578,19.456264 119.43096,19.445788 C 119.43076,19.442691 119.43095,19.418792 119.43096,19.416083 C 119.4376,19.409362 119.45894,19.387879 119.46067,19.386378 C 119.46099,19.385122 119.46078,19.363516 119.46067,19.356672 C 119.46058,19.348801 119.46077,19.332764 119.46067,19.326965 C 119.46048,19.324086 119.46055,19.306595 119.46067,19.297261 C 119.46074,19.293839 119.46064,19.27397 119.46067,19.267554 C 119.45894,19.266062 119.43761,19.244569 119.43096,19.237848 C 119.43097,19.23513 119.43075,19.211261 119.43096,19.208142 C 119.42821,19.20819 119.40471,19.207905 119.40127,19.208142 C 119.40153,19.204702 119.40124,19.181184 119.40127,19.178438 C 119.40116,19.172049 119.40098,19.150954 119.40127,19.148731 C 119.3941,19.141649 119.37255,19.119994 119.37155,19.119025 C 119.3696,19.117066 119.34433,19.091697 119.34185,19.089319 L 108.94482,8.6922975 z "
         style="opacity:0.19672134;fill:url(#linearGradient4505);fill-opacity:1.0;fill-rule:nonzero;stroke:none;stroke-width:0.89999998;stroke-linecap:butt;stroke-linejoin:miter;stroke-miterlimit:4;stroke-dasharray:none;stroke-dashoffset:4;stroke-opacity:1"
         sodipodi:nodetypes="csssscccccssssssssccssssssssccsscccssssssssssccccccccssssssssssssssssscc" />
      <path
         sodipodi:nodetypes="ccccc"
         id="path4409"
         d="M 119.06199,17.606495 C 118.28841,16.446125 103.39697,2.1348607 103.39697,2.1348607 L 83.670631,21.861197 C 90.05268,16.575053 95.610813,7.1693286 102.81679,6.0027711 C 105.43442,4.7388921 113.64691,13.738583 119.06199,17.606495 z "
         style="fill:url(#linearGradient4507);fill-opacity:1;fill-rule:evenodd;stroke:none;stroke-width:1px;stroke-linecap:butt;stroke-linejoin:miter;stroke-opacity:1" />
      <path
         sodipodi:nodetypes="csssssscsc"
         id="path4411"
         d="M 59.668201,39.918207 C 58.817436,38.990099 48.994972,29.012953 39.3852,19.267834 C 34.580314,14.395274 21.510225,1.153099 21.308905,0.95177823 C 20.775009,0.41788245 20.10765,0.2779041 19.635138,0.74618714 C 19.162626,1.2144702 3.363068,16.870226 3.6724322,16.560854 C 3.9817997,16.251482 7.5243726,13.253183 11.273118,10.290296 C 13.14749,8.8088528 15.073406,7.3362626 16.672486,6.2130682 C 18.271565,5.0898738 19.543809,4.3160751 20.110837,4.2322146 C 21.646964,4.0390791 31.007798,13.463301 40.248853,22.684444 C 49.489909,31.905588 58.611187,40.923654 59.668201,39.918207 z "
         style="fill:url(#radialGradient2238);fill-opacity:1.0;fill-rule:evenodd;stroke:none;stroke-width:1px;stroke-linecap:butt;stroke-linejoin:miter;stroke-opacity:1" />
      <path
         style="fill:url(#linearGradient2242);fill-opacity:1.0;fill-rule:evenodd;stroke:none;stroke-width:1px;stroke-linecap:butt;stroke-linejoin:miter;stroke-opacity:1"
         d="M 59.668201,39.918207 C 58.817436,38.990099 48.994972,29.012953 39.3852,19.267834 C 34.580314,14.395274 21.510225,1.153099 21.308905,0.95177823 C 20.775009,0.41788245 20.10765,0.2779041 19.635138,0.74618714 C 19.162626,1.2144702 3.363068,16.870226 3.6724322,16.560854 C 3.9817997,16.251482 7.5243726,13.253183 11.273118,10.290296 C 13.14749,8.8088528 15.073406,7.3362626 16.672486,6.2130682 C 18.271565,5.0898738 19.543809,4.3160751 20.110837,4.2322146 C 21.646964,4.0390791 31.007798,13.463301 40.248853,22.684444 C 49.489909,31.905588 58.611187,40.923654 59.668201,39.918207 z "
         id="path2240"
         sodipodi:nodetypes="csssssscsc" />
    </g>
  </g>
</svg>
