<?xml version="1.0" encoding="UTF-8" standalone="no"?>
<!-- Created with Inkscape (http://www.inkscape.org/) -->
<svg
   xmlns:dc="http://purl.org/dc/elements/1.1/"
   xmlns:cc="http://web.resource.org/cc/"
   xmlns:rdf="http://www.w3.org/1999/02/22-rdf-syntax-ns#"
   xmlns:svg="http://www.w3.org/2000/svg"
   xmlns="http://www.w3.org/2000/svg"
   xmlns:xlink="http://www.w3.org/1999/xlink"
   xmlns:sodipodi="http://inkscape.sourceforge.net/DTD/sodipodi-0.dtd"
   xmlns:inkscape="http://www.inkscape.org/namespaces/inkscape"
   width="128"
   height="128"
   id="svg1307"
   sodipodi:version="0.32"
   inkscape:version="0.43"
   version="1.0"
   sodipodi:docbase="/home/pinheiro/Documents/pics/new oxygen/svg"
   sodipodi:docname="cancel3.svg">
  <defs
     id="defs1309">
    <linearGradient
       inkscape:collect="always"
       id="linearGradient4120">
      <stop
         style="stop-color:#000000;stop-opacity:1;"
         offset="0"
         id="stop4122" />
      <stop
         style="stop-color:#000000;stop-opacity:0;"
         offset="1"
         id="stop4124" />
    </linearGradient>
    <linearGradient
       id="linearGradient4112">
      <stop
         style="stop-color:#bdbdbd;stop-opacity:1;"
         offset="0"
         id="stop4114" />
      <stop
         style="stop-color:#ffffff;stop-opacity:1;"
         offset="1"
         id="stop4116" />
    </linearGradient>
    <linearGradient
       id="linearGradient2346">
      <stop
         style="stop-color:#740000;stop-opacity:1;"
         offset="0"
         id="stop2348" />
      <stop
         style="stop-color:#de0000;stop-opacity:1;"
         offset="1"
         id="stop2350" />
    </linearGradient>
    <linearGradient
       id="linearGradient3350"
       inkscape:collect="always">
      <stop
         id="stop3352"
         offset="0"
         style="stop-color:#ffffff;stop-opacity:1;" />
      <stop
         id="stop3354"
         offset="1"
         style="stop-color:#ffffff;stop-opacity:0;" />
    </linearGradient>
    <linearGradient
       inkscape:collect="always"
       id="linearGradient3920">
      <stop
         style="stop-color:#ffffff;stop-opacity:1;"
         offset="0"
         id="stop3922" />
      <stop
         style="stop-color:#ffffff;stop-opacity:0;"
         offset="1"
         id="stop3924" />
    </linearGradient>
    <linearGradient
       inkscape:collect="always"
       id="linearGradient3291">
      <stop
         style="stop-color:#000000;stop-opacity:1;"
         offset="0"
         id="stop3293" />
      <stop
         style="stop-color:#000000;stop-opacity:0;"
         offset="1"
         id="stop3295" />
    </linearGradient>
    <radialGradient
       inkscape:collect="always"
       xlink:href="#linearGradient3291"
       id="radialGradient3297"
       cx="63.912209"
       cy="115.70919"
       fx="64.281197"
       fy="122.79655"
       r="63.912209"
       gradientTransform="matrix(1,0,0,0.197802,0,92.82166)"
       gradientUnits="userSpaceOnUse" />
    <linearGradient
       inkscape:collect="always"
       xlink:href="#linearGradient3920"
       id="linearGradient1357"
       gradientUnits="userSpaceOnUse"
       gradientTransform="matrix(2.419264e-3,0,0,2.419264e-3,-259.9378,4.392502)"
       x1="119162.21"
       y1="542.68451"
       x2="118188.3"
       y2="2164.3325" />
    <linearGradient
       inkscape:collect="always"
       xlink:href="#linearGradient3920"
       id="linearGradient1360"
       gradientUnits="userSpaceOnUse"
       gradientTransform="matrix(2.419264e-3,0,0,2.419264e-3,-259.06,6.630164)"
       x1="150441.47"
       y1="-1762.9011"
       x2="150774.64"
       y2="632.06219" />
    <linearGradient
       inkscape:collect="always"
       xlink:href="#linearGradient4120"
       id="linearGradient1378"
       gradientUnits="userSpaceOnUse"
       gradientTransform="matrix(0.622426,0,0,0.622426,164.2081,39.05098)"
       x1="-175.4637"
       y1="280.00327"
       x2="-83.016327"
       y2="-1.9146874" />
    <radialGradient
       inkscape:collect="always"
       xlink:href="#linearGradient2346"
       id="radialGradient2352"
       gradientUnits="userSpaceOnUse"
       gradientTransform="matrix(4.836489,4.836489,-4.884977,4.884977,542.025,13.21383)"
       cx="-42.926815"
       cy="54.094452"
       fx="-42.926815"
       fy="54.094452"
       r="12.75" />
    <linearGradient
       inkscape:collect="always"
       xlink:href="#linearGradient3350"
       id="linearGradient2354"
       gradientUnits="userSpaceOnUse"
       gradientTransform="matrix(2.419264e-3,0,0,2.419264e-3,-259.2756,7.561805)"
       x1="91.960304"
       y1="-43.678783"
       x2="60.390465"
       y2="91.094475" />
    <linearGradient
       inkscape:collect="always"
       xlink:href="#linearGradient3350"
       id="linearGradient2356"
       gradientUnits="userSpaceOnUse"
       gradientTransform="matrix(2.419264e-3,0,0,2.419264e-3,-259.2756,7.561805)"
       x1="133661.34"
       y1="-8555.0625"
       x2="132912.66"
       y2="41042.109" />
    <linearGradient
       inkscape:collect="always"
       xlink:href="#linearGradient4120"
       id="linearGradient2358"
       gradientUnits="userSpaceOnUse"
       gradientTransform="matrix(0.622426,0,0,0.622426,164.2081,39.05098)"
       x1="-175.4637"
       y1="280.00327"
       x2="-83.016327"
       y2="-1.9146874" />
    <linearGradient
       inkscape:collect="always"
       xlink:href="#linearGradient4112"
       id="linearGradient2360"
       gradientUnits="userSpaceOnUse"
       gradientTransform="matrix(0.622426,0,0,0.622426,164.2081,39.05098)"
       x1="-164.64844"
       y1="143.73091"
       x2="-160.9648"
       y2="-22.103186" />
    <linearGradient
       inkscape:collect="always"
       xlink:href="#linearGradient2346"
       id="linearGradient2368"
       x1="40.307846"
       y1="54.693161"
       x2="112.55771"
       y2="82.167877"
       gradientUnits="userSpaceOnUse" />
  </defs>
  <sodipodi:namedview
     id="base"
     pagecolor="#ffffff"
     bordercolor="#666666"
     borderopacity="1.0"
     inkscape:pageopacity="0.0"
     inkscape:pageshadow="2"
     inkscape:zoom="3.9885135"
     inkscape:cx="160.09522"
     inkscape:cy="68.847016"
     inkscape:current-layer="layer1"
     showgrid="false"
     inkscape:document-units="px"
     inkscape:grid-bbox="true"
     guidetolerance="0.1px"
     showguides="true"
     inkscape:guide-bbox="true"
     inkscape:window-width="1106"
     inkscape:window-height="958"
     inkscape:window-x="1006"
     inkscape:window-y="413">
    <sodipodi:guide
       orientation="horizontal"
       position="32.487481"
       id="guide2204" />
  </sodipodi:namedview>
  <metadata
     id="metadata1312">
    <rdf:RDF>
      <cc:Work
         rdf:about="">
        <dc:format>image/svg+xml</dc:format>
        <dc:type
           rdf:resource="http://purl.org/dc/dcmitype/StillImage" />
        <cc:license
           rdf:resource="http://creativecommons.org/licenses/GPL/2.0/" />
        <dc:contributor>
          <cc:Agent>
            <dc:title>Oxygen team</dc:title>
          </cc:Agent>
        </dc:contributor>
      </cc:Work>
      <cc:License
         rdf:about="http://creativecommons.org/licenses/LGPL/2.1/">
        <cc:permits
           rdf:resource="http://web.resource.org/cc/Reproduction" />
        <cc:permits
           rdf:resource="http://web.resource.org/cc/Distribution" />
        <cc:requires
           rdf:resource="http://web.resource.org/cc/Notice" />
        <cc:permits
           rdf:resource="http://web.resource.org/cc/DerivativeWorks" />
        <cc:requires
           rdf:resource="http://web.resource.org/cc/ShareAlike" />
        <cc:requires
           rdf:resource="http://web.resource.org/cc/SourceCode" />
      </cc:License>
    </rdf:RDF>
  </metadata>
  <g
     id="layer1"
     inkscape:label="Layer 1"
     inkscape:groupmode="layer">
    <path
       sodipodi:nodetypes="ccc"
       id="path2276"
       d="M 50.892799,3.2812959 L 50.892799,0.48658747 L 50.892799,3.2812959 z "
       style="fill:#ffffff;fill-opacity:0.75688076;fill-rule:nonzero;stroke:none;stroke-width:0.5;stroke-linecap:round;stroke-linejoin:round;stroke-miterlimit:4;stroke-dasharray:none;stroke-dashoffset:4;stroke-opacity:1" />
    <path
       sodipodi:type="arc"
       style="opacity:0.38139535;fill:url(#radialGradient3297);fill-opacity:1.0;fill-rule:nonzero;stroke:none;stroke-width:0;stroke-linecap:round;stroke-linejoin:round;stroke-miterlimit:4;stroke-dasharray:none;stroke-dashoffset:4;stroke-opacity:1"
       id="path3289"
       sodipodi:cx="63.912209"
       sodipodi:cy="115.70919"
       sodipodi:rx="63.912209"
       sodipodi:ry="12.641975"
       d="M 127.82442 115.70919 A 63.912209 12.641975 0 1 1  0,115.70919 A 63.912209 12.641975 0 1 1  127.82442 115.70919 z"
       transform="matrix(1,0,0,0.416667,0,74.87151)" />
    <path
       style="fill:url(#linearGradient1378);fill-opacity:1;fill-rule:nonzero;stroke:#850000;stroke-width:3.62563276;stroke-linecap:round;stroke-linejoin:round;stroke-miterlimit:4;stroke-dasharray:none;stroke-dashoffset:4;stroke-opacity:1"
       d="M 106.02682,2.2960055 C 105.8324,2.1050407 105.46707,2.1610379 105.20543,2.4226772 L 64.019502,43.6086 L 22.833578,2.4226772 C 22.570908,2.1599995 22.20367,2.1045263 22.009945,2.2982547 L 4.6731546,19.635038 C 4.47944,19.828763 4.5349027,20.195992 4.797594,20.458672 L 45.983508,61.644593 L 4.7975834,102.83051 C 4.5349027,103.09318 4.47944,103.46042 4.6731652,103.65415 L 22.009945,120.99092 C 22.20367,121.18465 22.570908,121.12919 22.833578,120.86649 L 64.019502,79.680587 L 105.20543,120.86649 C 105.46811,121.12919 105.83534,121.18465 106.02906,120.99093 L 123.36585,103.65415 C 123.55957,103.46042 123.5041,103.09318 123.24142,102.8305 L 82.055496,61.644594 L 123.24142,20.458672 C 123.5041,20.195993 123.55956,19.828761 123.36584,19.635036 L 106.02906,2.2982547 L 106.02906,2.2982547 C 106.0282,2.2973878 106.02751,2.2966966 106.02682,2.2960055 z "
       id="path4132" />
    <path
       style="fill:url(#linearGradient2368);fill-opacity:1.0;fill-rule:nonzero;stroke:none;stroke-width:2.20000005;stroke-linecap:butt;stroke-linejoin:miter;stroke-miterlimit:4;stroke-dasharray:none;stroke-dashoffset:4;stroke-opacity:1"
       d="M 106.02682,2.2960055 C 105.8324,2.1050407 105.46707,2.1610379 105.20543,2.4226772 L 64.0195,43.6086 L 22.83358,2.4226772 C 22.57091,2.1599995 22.20367,2.1045263 22.00995,2.2982547 L 4.67315,19.635038 C 4.47944,19.828763 4.5349,20.195992 4.79759,20.458672 L 45.98351,61.644593 L 4.79758,102.83051 C 4.5349,103.09318 4.47944,103.46042 4.67316,103.65415 L 22.00995,120.99092 C 22.20367,121.18465 22.57091,121.12919 22.83358,120.86649 L 64.0195,79.680587 L 105.20543,120.86649 C 105.46811,121.12919 105.83534,121.18465 106.02906,120.99093 L 123.36585,103.65415 C 123.55957,103.46042 123.5041,103.09318 123.24142,102.8305 L 82.0555,61.644594 L 123.24142,20.458672 C 123.5041,20.195993 123.55956,19.828761 123.36584,19.635036 L 106.02906,2.2982547 L 106.02906,2.2982547 C 106.0282,2.2973878 106.02751,2.2966966 106.02682,2.2960055 z "
       id="rect4013" />
    <path
       style="fill:url(#radialGradient2352);fill-opacity:1;fill-rule:nonzero;stroke:none;stroke-width:2.20000005;stroke-linecap:butt;stroke-linejoin:miter;stroke-miterlimit:4;stroke-dasharray:none;stroke-dashoffset:4;stroke-opacity:1"
       d="M 102.30144,5.2498712 L 96.83269,10.718621 L 114.86394,28.749871 L 120.33269,23.281121 L 102.30144,5.2498712 z M 25.86394,5.5623712 L 7.8326908,23.593621 L 13.30144,29.062371 L 31.33269,11.031121 L 25.86394,5.5623712 z M 88.45769,19.093621 L 82.98894,24.531121 L 101.02019,42.562371 L 106.48894,37.124871 L 88.45769,19.093621 z M 39.70769,19.406121 L 21.67644,37.437371 L 27.14519,42.906121 L 45.17644,24.874871 L 39.70769,19.406121 z M 74.61394,32.906121 L 69.17644,38.374871 L 87.20769,56.406121 L 92.64519,50.937371 L 74.61394,32.906121 z M 53.55144,33.249871 L 35.52019,51.281121 L 40.95769,56.718621 L 58.98894,38.687371 L 53.55144,33.249871 z M 64.27019,50.124871 L 52.77019,61.624871 L 64.23894,73.124871 L 64.27019,73.156121 L 75.73894,61.687371 L 75.77019,61.687371 L 75.80144,61.624871 L 75.70769,61.624871 L 64.27019,50.187371 L 64.27019,50.124871 z M 87.58269,66.531121 L 69.55144,84.562371 L 75.02019,90.031121 L 93.05144,71.999871 L 87.58269,66.531121 z M 41.30144,66.906121 L 35.86394,72.343621 L 53.89519,90.374871 L 59.33269,84.937371 L 41.30144,66.906121 z M 101.42644,80.374871 L 83.39519,98.406121 L 88.86394,103.87487 L 106.89519,85.843621 L 101.42644,80.374871 z M 27.48894,80.718621 L 22.02019,86.187371 L 40.05144,104.21862 L 45.52019,98.749871 L 27.48894,80.718621 z M 115.27019,94.218621 L 97.23894,112.24987 L 102.67644,117.68737 L 120.70769,99.656121 L 115.27019,94.218621 z M 13.64519,94.562371 L 8.2076908,100.03112 L 26.23894,118.06237 L 31.67644,112.59362 L 13.64519,94.562371 z "
       id="path2313"
       sodipodi:nodetypes="cccccccccccccccccccccccccccccccccccccccccccccccccccccccccccccccccccccc" />
    <path
       id="path4110"
       d="M 106.02682,2.2960055 C 105.8324,2.1050407 105.46707,2.1610379 105.20543,2.4226772 L 64.0195,43.6086 L 22.83358,2.4226772 C 22.57091,2.1599995 22.20367,2.1045263 22.00995,2.2982547 L 4.67315,19.635038 C 4.47944,19.828763 4.5349,20.195992 4.79759,20.458672 L 45.98351,61.644593 L 4.79758,102.83051 C 4.5349,103.09318 4.47944,103.46042 4.67316,103.65415 L 22.00995,120.99092 C 22.20367,121.18465 22.57091,121.12919 22.83358,120.86649 L 64.0195,79.680587 L 105.20543,120.86649 C 105.46811,121.12919 105.83534,121.18465 106.02906,120.99093 L 123.36585,103.65415 C 123.55957,103.46042 123.5041,103.09318 123.24142,102.8305 L 82.0555,61.644594 L 123.24142,20.458672 C 123.5041,20.195993 123.55956,19.828761 123.36584,19.635036 L 106.02906,2.2982547 L 106.02906,2.2982547 C 106.0282,2.2973878 106.02751,2.2966966 106.02682,2.2960055 z "
       style="fill:url(#linearGradient2358);fill-opacity:1;fill-rule:nonzero;stroke:url(#linearGradient2360);stroke-width:1.44714117;stroke-linecap:butt;stroke-linejoin:miter;stroke-miterlimit:4;stroke-dasharray:none;stroke-dashoffset:4;stroke-opacity:1" />
    <path
       style="opacity:0.704918;fill:url(#linearGradient2356);fill-opacity:1;fill-rule:nonzero;stroke:none;stroke-width:0.89999998;stroke-linecap:butt;stroke-linejoin:miter;stroke-miterlimit:4;stroke-dasharray:none;stroke-dashoffset:4;stroke-opacity:1"
       d="M 105.6698,3.0648898 C 105.66721,3.0675702 105.64285,3.0914207 105.64009,3.0945959 C 105.63331,3.094529 105.61233,3.0946531 105.61039,3.0945959 C 105.60802,3.0944249 105.58704,3.0945482 105.58068,3.0945959 C 105.57865,3.0968673 105.55757,3.1176661 105.55099,3.1243014 C 105.54344,3.1317444 105.52867,3.1462981 105.52126,3.154007 L 104.92715,3.7481231 C 104.80659,3.8541795 104.69583,3.9794475 104.57069,4.1045921 L 64.04191,44.63337 L 23.54283,4.1045921 C 23.04226,3.6040236 22.53737,3.2469175 22.26548,3.154007 C 22.25871,3.1540548 22.23771,3.1539885 22.23578,3.154007 C 22.23385,3.1540454 22.21285,3.1539691 22.20607,3.154007 C 22.2019,3.1542544 22.18005,3.1538837 22.17637,3.154007 C 22.16975,3.1472769 22.14881,3.1269535 22.14665,3.1243014 C 22.14263,3.12433 22.12582,3.1244533 22.11695,3.1243014 C 22.11351,3.1240164 22.08999,3.1243393 22.08725,3.1243014 C 22.08722,3.127163 22.08708,3.1504427 22.08725,3.154007 C 22.08432,3.1541495 22.06088,3.1543782 22.05754,3.154007 L 6.19466,19.016893 C 6.1945,19.01981 6.19428,19.04326 6.19466,19.046598 C 6.19123,19.046332 6.1677,19.046636 6.16495,19.046598 C 6.16487,19.049412 6.16481,19.072757 6.16495,19.076304 C 6.16509,19.085172 6.16498,19.101978 6.16495,19.106011 C 6.16627,19.107084 6.18781,19.128795 6.19466,19.135716 C 6.19441,19.139889 6.19465,19.161637 6.19466,19.165421 C 6.19459,19.16928 6.19485,19.190412 6.19466,19.195127 C 6.19464,19.197067 6.1947,19.218064 6.19466,19.224834 C 6.30165,19.501758 6.66032,19.987554 7.14524,20.472475 L 39.56434,52.921283 C 39.58455,52.931692 39.60118,52.948307 39.62376,52.950989 C 58.19031,55.156534 96.71626,88.697636 101.61971,82.211178 L 80.40979,61.001254 L 120.93857,20.472475 C 120.99586,20.418625 121.09268,20.34753 121.14651,20.29424 L 121.88915,19.521891 C 121.89453,19.516985 121.91358,19.497527 121.91885,19.492185 C 121.91876,19.489609 121.91929,19.465206 121.91885,19.46248 C 121.9216,19.462526 121.94504,19.462109 121.94857,19.46248 C 121.94839,19.458962 121.94853,19.43554 121.94857,19.432774 C 121.954,19.422363 121.97309,19.383837 121.97826,19.373361 C 121.97806,19.370263 121.97825,19.346365 121.97826,19.343657 C 121.98102,19.341023 122.00452,19.316944 122.00797,19.313951 C 122.00829,19.312695 122.00808,19.291088 122.00797,19.284245 C 122.00788,19.276374 122.00807,19.260337 122.00797,19.254538 C 122.00778,19.251659 122.00785,19.234168 122.00797,19.224834 C 122.00809,19.217988 122.0083,19.196392 122.00797,19.195127 C 122.0045,19.192141 121.98101,19.168055 121.97826,19.165421 C 121.97827,19.162702 121.97805,19.138834 121.97826,19.135716 C 121.97551,19.135763 121.952,19.135478 121.94857,19.135716 C 121.94884,19.132274 121.94853,19.108757 121.94857,19.106011 C 121.94846,19.099622 121.94828,19.078528 121.94857,19.076304 C 121.9414,19.069221 121.91985,19.047566 121.91885,19.046598 C 121.9169,19.044639 121.89163,19.019269 121.88915,19.016893 L 106.02627,3.154007 C 106.02555,3.1536749 105.99847,3.1262978 105.99656,3.1243014 C 105.99285,3.1204328 105.9706,3.0983982 105.96685,3.0945959 C 105.96566,3.0960314 105.94005,3.0914871 105.93715,3.0945959 C 105.93368,3.0948712 105.91018,3.0945575 105.90744,3.0945959 C 105.90746,3.0917629 105.90725,3.0684547 105.90744,3.0648898 C 105.89701,3.0650515 105.85849,3.0645762 105.84803,3.0648898 C 105.83187,3.0648898 105.79293,3.0651748 105.78861,3.0648898 C 105.78283,3.0647857 105.76471,3.0647094 105.75892,3.0648898 C 105.75507,3.0648427 105.73387,3.0650038 105.72921,3.0648898 C 105.72535,3.0648805 105.70095,3.0646424 105.6995,3.0648898 C 105.69627,3.0646525 105.67248,3.0649282 105.6698,3.0648898 z "
       id="path4088"
       sodipodi:nodetypes="csssscccccssssssssccssssssssccscccccsssssssssssssssssccssssssssssc" />
    <path
       style="opacity:0.19672134;fill:url(#linearGradient2354);fill-opacity:1;fill-rule:nonzero;stroke:none;stroke-width:0.89999998;stroke-linecap:butt;stroke-linejoin:miter;stroke-miterlimit:4;stroke-dasharray:none;stroke-dashoffset:4;stroke-opacity:1"
       d="M 105.24381,3.4908701 C 105.24123,3.4935505 105.21687,3.517401 105.21411,3.5205762 C 105.20733,3.5205093 105.18635,3.5206333 105.18441,3.5205762 C 105.18204,3.5204052 105.16105,3.5205285 105.1547,3.5205762 C 105.15266,3.5228476 105.13159,3.5436464 105.12501,3.5502817 C 105.11746,3.5577247 105.10269,3.5722784 105.09528,3.5799873 L 104.50117,4.1741034 C 104.38062,4.2801598 104.26986,4.4054277 104.14471,4.5305723 L 64.04191,44.63337 L 23.96881,4.5305723 C 23.46824,4.0300039 22.96336,3.6728977 22.69146,3.5799873 C 22.68469,3.5800351 22.66369,3.5799688 22.66176,3.5799873 C 22.65983,3.5800257 22.63883,3.5799494 22.63205,3.5799873 C 22.62788,3.5802346 22.60603,3.5798639 22.60235,3.5799873 C 22.59904,3.5766224 22.57897,3.5565366 22.57264,3.5502817 C 22.56861,3.5503103 22.5518,3.5504336 22.54293,3.5502817 C 22.53948,3.5499967 22.51597,3.5503196 22.51323,3.5502817 C 22.5132,3.5531432 22.51306,3.576423 22.51323,3.5799873 C 22.50658,3.5800158 22.4852,3.5801776 22.48352,3.5799873 L 6.62064,19.442872 C 6.62061,19.449517 6.62044,19.470915 6.62064,19.472578 C 6.61721,19.472312 6.59368,19.472615 6.59093,19.472578 C 6.59085,19.475392 6.59079,19.498738 6.59093,19.502284 C 6.59107,19.511153 6.59096,19.527959 6.59093,19.531991 C 6.59225,19.533064 6.61379,19.554775 6.62064,19.561695 C 6.62039,19.565868 6.62063,19.587617 6.62064,19.591401 C 6.62057,19.59526 6.62083,19.616392 6.62064,19.621107 C 6.62062,19.623047 6.62068,19.644045 6.62064,19.650814 C 6.72763,19.927738 7.0863,20.413534 7.57122,20.898455 L 39.56434,52.921283 C 39.5691,52.924344 39.5893,52.948098 39.59405,52.950989 C 39.59656,52.952035 39.6211,52.950257 39.62376,52.950989 C 44.44815,53.524086 50.60025,56.230762 57.17987,59.783316 C 70.2022,38.406527 89.80613,17.735329 106.01617,3.9958681 L 105.60029,3.5799873 C 105.59957,3.5796552 105.57249,3.5522781 105.57058,3.5502817 C 105.56687,3.5464131 105.54462,3.5243785 105.54087,3.5205762 C 105.53742,3.5202912 105.51401,3.5205477 105.51117,3.5205762 C 105.5077,3.5208514 105.4842,3.5205378 105.48146,3.5205762 C 105.48148,3.5177432 105.48127,3.494435 105.48146,3.4908701 C 105.47103,3.4910317 105.43251,3.4905564 105.42205,3.4908701 C 105.40589,3.4908701 105.36695,3.4911551 105.36263,3.4908701 C 105.35685,3.490766 105.33872,3.4906897 105.33294,3.4908701 C 105.32908,3.490823 105.30789,3.4909841 105.30323,3.4908701 C 105.29937,3.4908608 105.27497,3.4906226 105.27352,3.4908701 C 105.27029,3.4906327 105.2465,3.4909085 105.24381,3.4908701 z M 111.06614,9.0458505 C 86.91375,32.530659 78.04805,52.224952 75.06275,70.417985 C 87.91195,78.444733 99.12425,85.512255 101.61971,82.211178 L 80.40979,61.001254 L 120.51259,20.898455 C 120.56988,20.844605 120.6667,20.77351 120.72053,20.72022 L 121.46317,19.947871 C 121.46855,19.942966 121.4876,19.923507 121.49287,19.918165 C 121.49293,19.911406 121.4931,19.889818 121.49287,19.888459 C 121.49953,19.888412 121.52082,19.88828 121.52259,19.888459 C 121.52241,19.884942 121.52256,19.861521 121.52259,19.858754 C 121.52802,19.848344 121.5471,19.809817 121.55228,19.799341 C 121.55208,19.796244 121.55227,19.772345 121.55228,19.769636 C 121.55892,19.762915 121.58026,19.741432 121.58199,19.739931 C 121.58231,19.738675 121.5821,19.717069 121.58199,19.710225 C 121.5819,19.702354 121.58209,19.686317 121.58199,19.680518 C 121.5818,19.677639 121.58187,19.660148 121.58199,19.650814 C 121.58206,19.647392 121.58196,19.627523 121.58199,19.621107 C 121.58026,19.619615 121.55893,19.598122 121.55228,19.591401 C 121.55229,19.588683 121.55207,19.564814 121.55228,19.561695 C 121.54953,19.561743 121.52603,19.561458 121.52259,19.561695 C 121.52285,19.558255 121.52256,19.534737 121.52259,19.531991 C 121.52248,19.525602 121.5223,19.504507 121.52259,19.502284 C 121.51542,19.495202 121.49387,19.473547 121.49287,19.472578 C 121.49092,19.470619 121.46565,19.44525 121.46317,19.442872 L 111.06614,9.0458505 z "
       id="path4090" />
    <path
       style="fill:url(#linearGradient1360);fill-opacity:1;fill-rule:evenodd;stroke:none;stroke-width:1px;stroke-linecap:butt;stroke-linejoin:miter;stroke-opacity:1"
       d="M 121.18331,17.960048 C 120.40973,16.799678 105.51829,2.4884137 105.51829,2.4884137 L 85.791951,22.21475 C 92.174,16.928606 97.732133,7.5228816 104.93811,6.3563241 C 107.55574,5.0924451 115.76823,14.092136 121.18331,17.960048 z "
       id="path4092"
       sodipodi:nodetypes="ccccc" />
    <path
       style="fill:url(#linearGradient1357);fill-opacity:1;fill-rule:evenodd;stroke:none;stroke-width:1px;stroke-linecap:butt;stroke-linejoin:miter;stroke-opacity:1"
       d="M 61.578568,40.493265 C 59.877037,38.637048 22.288715,0.58468068 22.288715,0.58468068 C 22.288715,0.58468068 4.9640711,17.754657 5.5827995,17.135912 C 6.2015344,16.517168 20.329969,6.488763 22.598082,6.1533206 C 25.670336,5.7670502 59.464539,42.504159 61.578568,40.493265 z "
       id="path4086"
       sodipodi:nodetypes="ccscc" />
  </g>
</svg>
