<?xml version="1.0" encoding="UTF-8" standalone="no"?>
<!-- Created with Inkscape (http://www.inkscape.org/) -->
<svg
   xmlns:dc="http://purl.org/dc/elements/1.1/"
   xmlns:cc="http://web.resource.org/cc/"
   xmlns:rdf="http://www.w3.org/1999/02/22-rdf-syntax-ns#"
   xmlns:svg="http://www.w3.org/2000/svg"
   xmlns="http://www.w3.org/2000/svg"
   xmlns:xlink="http://www.w3.org/1999/xlink"
   xmlns:sodipodi="http://sodipodi.sourceforge.net/DTD/sodipodi-0.dtd"
   xmlns:inkscape="http://www.inkscape.org/namespaces/inkscape"
   width="128"
   height="128"
   id="svg6645"
   sodipodi:version="0.32"
   inkscape:version="0.44"
   sodipodi:docbase="/home/pinheiro/artwork/Oxygen/Pinheiro"
   sodipodi:docname="finish.svg"
   version="1.0"
   inkscape:r_cx="true"
   inkscape:r_cy="true">
  <defs
     id="defs6647">
    <linearGradient
       id="linearGradient8361">
      <stop
         id="stop8363"
         offset="0"
         style="stop-color:#002246;stop-opacity:0;" />
      <stop
         style="stop-color:#002246;stop-opacity:0;"
         offset="0.78761059"
         id="stop8365" />
      <stop
         id="stop8367"
         offset="1"
         style="stop-color:#00438a;stop-opacity:1;" />
    </linearGradient>
    <linearGradient
       id="linearGradient6728">
      <stop
         style="stop-color:#002246;stop-opacity:0;"
         offset="0"
         id="stop6730" />
      <stop
         id="stop6736"
         offset="0.86725664"
         style="stop-color:#002246;stop-opacity:0;" />
      <stop
         style="stop-color:#002246;stop-opacity:0.71530247;"
         offset="1"
         id="stop6732" />
    </linearGradient>
    <linearGradient
       id="linearGradient4709">
      <stop
         style="stop-color:black;stop-opacity:0.33451957;"
         offset="0"
         id="stop4711" />
      <stop
         style="stop-color:black;stop-opacity:0;"
         offset="1"
         id="stop4713" />
    </linearGradient>
    <linearGradient
       inkscape:collect="always"
       id="linearGradient4632">
      <stop
         style="stop-color:white;stop-opacity:1;"
         offset="0"
         id="stop4634" />
      <stop
         style="stop-color:white;stop-opacity:0;"
         offset="1"
         id="stop4636" />
    </linearGradient>
    <linearGradient
       id="linearGradient4601">
      <stop
         style="stop-color:white;stop-opacity:0"
         offset="0"
         id="stop4603" />
      <stop
         id="stop4609"
         offset="0.60768723"
         style="stop-color:white;stop-opacity:0;" />
      <stop
         style="stop-color:white;stop-opacity:1;"
         offset="0.80807632"
         id="stop4613" />
      <stop
         style="stop-color:white;stop-opacity:0;"
         offset="0.94315338"
         id="stop4611" />
      <stop
         style="stop-color:white;stop-opacity:0"
         offset="1"
         id="stop4605" />
    </linearGradient>
    <linearGradient
       id="linearGradient3701">
      <stop
         style="stop-color:black;stop-opacity:1;"
         offset="0"
         id="stop3703" />
      <stop
         id="stop3709"
         offset="0.76106197"
         style="stop-color:black;stop-opacity:1;" />
      <stop
         style="stop-color:black;stop-opacity:0;"
         offset="1"
         id="stop3705" />
    </linearGradient>
    <radialGradient
       inkscape:collect="always"
       xlink:href="#linearGradient3954"
       id="radialGradient1433"
       gradientUnits="userSpaceOnUse"
       gradientTransform="matrix(0.727637,-0.905638,2.467696,1.982685,-82.85192,-66.54418)"
       cx="-44.788288"
       cy="28.315956"
       fx="-38.324715"
       fy="31.286478"
       r="27.019239" />
    <linearGradient
       id="linearGradient5762">
      <stop
         style="stop-color:#000000;stop-opacity:1;"
         offset="0"
         id="stop5764" />
      <stop
         id="stop6643"
         offset="0.5"
         style="stop-color:#000000;stop-opacity:0.70143884;" />
      <stop
         style="stop-color:#000000;stop-opacity:0;"
         offset="1"
         id="stop5766" />
    </linearGradient>
    <linearGradient
       id="linearGradient3954">
      <stop
         style="stop-color:#b3b3b3;stop-opacity:1;"
         offset="0"
         id="stop3956" />
      <stop
         id="stop3962"
         offset="0.52879584"
         style="stop-color:#ffffff;stop-opacity:1;" />
      <stop
         style="stop-color:#c5c5c5;stop-opacity:1;"
         offset="1"
         id="stop3958" />
    </linearGradient>
    <radialGradient
       inkscape:collect="always"
       xlink:href="#linearGradient3954"
       id="radialGradient1350"
       gradientUnits="userSpaceOnUse"
       gradientTransform="matrix(0.727637,-0.905638,2.467696,1.982685,-82.85192,-66.54418)"
       cx="-44.788288"
       cy="28.315956"
       fx="-38.324715"
       fy="31.286478"
       r="27.019239" />
    <radialGradient
       inkscape:collect="always"
       xlink:href="#linearGradient3954"
       id="radialGradient2249"
       cx="213.73038"
       cy="94.003212"
       fx="210.86234"
       fy="101.23295"
       r="26.5"
       gradientUnits="userSpaceOnUse"
       gradientTransform="matrix(1.082043,1.168144,-0.204352,1.273177,-172.1067,-279.9753)"
       spreadMethod="reflect" />
    <radialGradient
       inkscape:collect="always"
       xlink:href="#linearGradient3954"
       id="radialGradient2303"
       gradientUnits="userSpaceOnUse"
       gradientTransform="matrix(0.711044,1.183934,-0.134285,1.290387,-57.48855,-284.2081)"
       spreadMethod="reflect"
       cx="213.73038"
       cy="94.003212"
       fx="210.86234"
       fy="101.23295"
       r="26.5" />
    <radialGradient
       inkscape:collect="always"
       xlink:href="#linearGradient3954"
       id="radialGradient1421"
       gradientUnits="userSpaceOnUse"
       gradientTransform="matrix(0.727637,-0.905638,2.467696,1.982685,-82.85192,-66.54418)"
       cx="-44.788288"
       cy="28.315956"
       fx="-38.324715"
       fy="31.286478"
       r="27.019239" />
    <linearGradient
       inkscape:collect="always"
       xlink:href="#linearGradient3954"
       id="linearGradient7800"
       gradientUnits="userSpaceOnUse"
       x1="10.955224"
       y1="132.72182"
       x2="134.49483"
       y2="9.1802578" />
    <radialGradient
       inkscape:collect="always"
       xlink:href="#linearGradient3701"
       id="radialGradient8305"
       gradientUnits="userSpaceOnUse"
       cx="64.17112"
       cy="65.540108"
       fx="64.17112"
       fy="81.597778"
       r="63.144386" />
    <radialGradient
       inkscape:collect="always"
       xlink:href="#linearGradient5762"
       id="radialGradient8307"
       gradientUnits="userSpaceOnUse"
       cx="64.17112"
       cy="65.540108"
       fx="64.146858"
       fy="66.287804"
       r="63.144386" />
    <linearGradient
       inkscape:collect="always"
       xlink:href="#linearGradient3954"
       id="linearGradient8309"
       gradientUnits="userSpaceOnUse"
       x1="10.955224"
       y1="132.72182"
       x2="134.49483"
       y2="9.1802578" />
    <radialGradient
       inkscape:collect="always"
       xlink:href="#linearGradient6728"
       id="radialGradient8319"
       gradientUnits="userSpaceOnUse"
       cx="64.17112"
       cy="65.540108"
       fx="60.836517"
       fy="25.623783"
       r="63.144386" />
    <radialGradient
       inkscape:collect="always"
       xlink:href="#linearGradient4601"
       id="radialGradient8326"
       gradientUnits="userSpaceOnUse"
       gradientTransform="matrix(1.706986,0,0,1.478985,-45.24712,0.323337)"
       cx="83.739357"
       cy="23.903526"
       fx="63.813786"
       fy="38.303715"
       r="48.206" />
    <radialGradient
       inkscape:collect="always"
       xlink:href="#linearGradient4601"
       id="radialGradient8329"
       gradientUnits="userSpaceOnUse"
       gradientTransform="matrix(1.706986,0,0,1.478985,-45.24712,0.323337)"
       cx="49.661034"
       cy="15.306388"
       fx="29.735439"
       fy="29.70657"
       r="48.206" />
    <linearGradient
       inkscape:collect="always"
       xlink:href="#linearGradient3954"
       id="linearGradient8332"
       gradientUnits="userSpaceOnUse"
       gradientTransform="translate(1.007221e-4,-127.9688)"
       x1="45.017605"
       y1="216.18004"
       x2="92.593002"
       y2="171.30652" />
    <radialGradient
       inkscape:collect="always"
       xlink:href="#linearGradient8361"
       id="radialGradient8351"
       gradientUnits="userSpaceOnUse"
       cx="64.49144"
       cy="66.580559"
       fx="63.720734"
       fy="15.594903"
       r="63.144386"
       gradientTransform="matrix(0.753726,0,0,0.784203,15.89085,14.14336)" />
    <linearGradient
       inkscape:collect="always"
       xlink:href="#linearGradient3954"
       id="linearGradient11797"
       gradientUnits="userSpaceOnUse"
       gradientTransform="matrix(1.002478,0,0,1,-4.949514e-2,-127.9688)"
       x1="45.017605"
       y1="216.18004"
       x2="92.593002"
       y2="171.30652" />
    <radialGradient
       inkscape:collect="always"
       xlink:href="#linearGradient4632"
       id="radialGradient2815"
       cx="63.219772"
       cy="36.040401"
       fx="64.039261"
       fy="20.222706"
       r="37.190357"
       gradientTransform="matrix(1.14606,0,0,0.725316,-9.126782,9.899718)"
       gradientUnits="userSpaceOnUse" />
  </defs>
  <sodipodi:namedview
     id="base"
     pagecolor="#ffffff"
     bordercolor="#666666"
     borderopacity="1.0"
     inkscape:pageopacity="0.0"
     inkscape:pageshadow="2"
     inkscape:zoom="4.8810985"
     inkscape:cx="69.283016"
     inkscape:cy="90.342842"
     inkscape:current-layer="layer1"
     showgrid="true"
     inkscape:grid-bbox="true"
     inkscape:document-units="px"
     showguides="true"
     inkscape:guide-bbox="true"
     inkscape:window-width="942"
     inkscape:window-height="959"
     inkscape:window-x="637"
     inkscape:window-y="85"
     gridspacingx="4px"
     gridspacingy="4px">
    <sodipodi:guide
       orientation="horizontal"
       position="806.61567"
       id="guide2808" />
  </sodipodi:namedview>
  <metadata
     id="metadata6650">
    <rdf:RDF>
      <cc:Work
         rdf:about="">
        <dc:format>image/svg+xml</dc:format>
        <dc:type
           rdf:resource="http://purl.org/dc/dcmitype/StillImage" />
      </cc:Work>
    </rdf:RDF>
  </metadata>
  <g
     id="layer1"
     inkscape:label="Layer 1"
     inkscape:groupmode="layer"
     inkscape:r_cx="true"
     inkscape:r_cy="true">
    <path
       transform="matrix(0.950203,0,0,0.950203,3.024395,-2.245163)"
       inkscape:r_cy="true"
       inkscape:r_cx="true"
       d="M 127.31551 65.540108 A 63.144386 63.144386 0 1 1  1.0267334,65.540108 A 63.144386 63.144386 0 1 1  127.31551 65.540108 z"
       sodipodi:ry="63.144386"
       sodipodi:rx="63.144386"
       sodipodi:cy="65.540108"
       sodipodi:cx="64.17112"
       id="path6658"
       style="fill:url(#radialGradient8305);fill-opacity:1;fill-rule:nonzero;stroke:none;stroke-width:0.69999999;stroke-linecap:round;stroke-linejoin:round;stroke-miterlimit:4;stroke-dasharray:none;stroke-dashoffset:4;stroke-opacity:0.9908257"
       sodipodi:type="arc" />
    <path
       transform="matrix(0.950204,0,0,-8.127437e-2,3.024495,128.1947)"
       inkscape:r_cy="true"
       inkscape:r_cx="true"
       d="M 127.31551 65.540108 A 63.144386 63.144386 0 1 1  1.0267334,65.540108 A 63.144386 63.144386 0 1 1  127.31551 65.540108 z"
       sodipodi:ry="63.144386"
       sodipodi:rx="63.144386"
       sodipodi:cy="65.540108"
       sodipodi:cx="64.17112"
       id="path6660"
       style="opacity:0.31868131;fill:url(#radialGradient8307);fill-opacity:1;fill-rule:nonzero;stroke:none;stroke-width:0.69999999;stroke-linecap:round;stroke-linejoin:round;stroke-miterlimit:4;stroke-dasharray:none;stroke-dashoffset:4;stroke-opacity:0.9908257"
       sodipodi:type="arc" />
    <path
       sodipodi:type="arc"
       style="fill:url(#linearGradient8309);fill-opacity:1;fill-rule:nonzero;stroke:none;stroke-width:0.69999999;stroke-linecap:round;stroke-linejoin:round;stroke-miterlimit:4;stroke-dasharray:none;stroke-dashoffset:4;stroke-opacity:0.9908257"
       id="path6662"
       sodipodi:cx="64.17112"
       sodipodi:cy="65.540108"
       sodipodi:rx="63.144386"
       sodipodi:ry="63.144386"
       d="M 127.31551 65.540108 A 63.144386 63.144386 0 1 1  1.0267334,65.540108 A 63.144386 63.144386 0 1 1  127.31551 65.540108 z"
       inkscape:r_cx="true"
       inkscape:r_cy="true"
       transform="matrix(0.886856,0,0,0.886856,7.089495,1.906537)" />
    <path
       transform="matrix(0.695094,0,0,0.696816,19.28639,14.36194)"
       inkscape:r_cy="true"
       inkscape:r_cx="true"
       d="M 127.31551 65.540108 A 63.144386 63.144386 0 1 1  1.0267334,65.540108 A 63.144386 63.144386 0 1 1  127.31551 65.540108 z"
       sodipodi:ry="63.144386"
       sodipodi:rx="63.144386"
       sodipodi:cy="65.540108"
       sodipodi:cx="64.17112"
       id="path6664"
       style="fill:#0057ae;fill-opacity:1;fill-rule:nonzero;stroke:none;stroke-width:0.69999999;stroke-linecap:round;stroke-linejoin:round;stroke-miterlimit:4;stroke-dasharray:none;stroke-dashoffset:4;stroke-opacity:0.9908257"
       sodipodi:type="arc" />
    <path
       style="fill:url(#linearGradient11797);fill-opacity:1;stroke:none;stroke-width:67.69140625;stroke-linecap:round;stroke-linejoin:round;stroke-miterlimit:4;stroke-dasharray:none;stroke-dashoffset:4;stroke-opacity:1"
       d="M 32.029734,42.697807 C 32.029506,40.887215 32.780435,39.171269 34.100182,37.906262 C 35.419939,36.641255 37.212569,35.958757 39.056709,36.00193 C 40.203748,36.028875 41.325791,36.32923 42.319234,36.892666 L 72.717179,54.123798 C 74.835627,55.324566 76.136556,57.527812 76.136556,59.928939 C 76.136556,62.330057 74.835625,64.564028 72.717179,65.764795 L 42.319234,82.995927 C 40.200412,84.197356 37.568361,84.196628 35.44911,82.995927 C 33.329869,81.795222 32.029542,79.561839 32.029734,77.160072 L 32.029734,42.697807 z M 84.167385,44.172128 C 84.167385,41.994064 85.95826,40.240604 88.1828,40.240604 C 90.40734,40.240604 92.198215,41.994064 92.198215,44.172128 L 92.198215,75.62432 C 92.198215,77.802384 90.40734,79.555844 88.1828,79.555844 C 85.95826,79.555844 84.167385,77.802384 84.167385,75.62432 L 84.167385,44.172128 z "
       id="path6666" />
    <path
       id="path6668"
       d="M 64.00004,16.031277 C 39.712057,16.031277 20.000085,35.743277 20.000085,60.031297 C 20.000085,64.992027 20.833385,69.761007 22.349041,74.210987 C 33.028227,85.662407 48.235795,92.830787 65.117231,92.830787 C 80.170759,92.830787 93.87805,87.145137 104.24738,77.791717 C 106.64825,72.359807 108,66.348737 108,60.031297 C 108,35.743277 88.288033,16.031277 64.00004,16.031277 z "
       style="opacity:0.13919414;fill:url(#radialGradient8329);fill-opacity:1;stroke:none;stroke-width:0.412;stroke-linecap:round;stroke-linejoin:round;stroke-miterlimit:4;stroke-dasharray:none;stroke-dashoffset:4;stroke-opacity:1" />
    <path
       style="opacity:0.19047618;fill:url(#radialGradient8326);fill-opacity:1;stroke:none;stroke-width:0.412;stroke-linecap:round;stroke-linejoin:round;stroke-miterlimit:4;stroke-dasharray:none;stroke-dashoffset:4;stroke-opacity:1"
       d="M 64.00004,16.031277 C 39.712057,16.031277 20.000085,35.743277 20.000085,60.031297 C 20.000085,64.992027 20.833385,69.761007 22.349041,74.210987 C 33.028227,85.662407 48.235795,92.830787 65.117231,92.830787 C 80.170759,92.830787 93.87805,87.145137 104.24738,77.791717 C 106.64825,72.359807 108,66.348737 108,60.031297 C 108,35.743277 88.288033,16.031277 64.00004,16.031277 z "
       id="path6670" />
    <path
       style="opacity:0.77289381;fill:url(#radialGradient2815);fill-opacity:1;stroke:none;stroke-width:0.412;stroke-linecap:round;stroke-linejoin:round;stroke-miterlimit:4;stroke-dasharray:none;stroke-dashoffset:4;stroke-opacity:1"
       d="M 64.00004,16.031277 C 47.826754,16.031277 33.690263,24.790007 26.044355,37.802127 C 28.652351,48.115437 44.287707,56.049527 63.169317,56.049527 C 83.359812,56.049527 99.802523,46.977357 100.60937,35.625037 C 92.716609,23.813837 79.261943,16.031277 64.00004,16.031277 z "
       id="path6672" />
    <path
       sodipodi:type="arc"
       style="opacity:0.59706936;fill:url(#radialGradient8319);fill-opacity:1;fill-rule:nonzero;stroke:none;stroke-width:0.69999999;stroke-linecap:round;stroke-linejoin:round;stroke-miterlimit:4;stroke-dasharray:none;stroke-dashoffset:4;stroke-opacity:0.9908257"
       id="path6726"
       sodipodi:cx="64.17112"
       sodipodi:cy="65.540108"
       sodipodi:rx="63.144386"
       sodipodi:ry="63.144386"
       d="M 127.31551 65.540108 A 63.144386 63.144386 0 1 1  1.0267334,65.540108 A 63.144386 63.144386 0 1 1  127.31551 65.540108 z"
       inkscape:r_cx="true"
       inkscape:r_cy="true"
       transform="matrix(0.695094,0,0,0.696816,19.28639,14.36194)" />
    <path
       style="opacity:0.34798536;fill:url(#radialGradient8351);fill-opacity:1;fill-rule:nonzero;stroke:none;stroke-width:0.69999999;stroke-linecap:round;stroke-linejoin:round;stroke-miterlimit:4;stroke-dasharray:none;stroke-dashoffset:4;stroke-opacity:0.9908257"
       d="M 64.015042,16.03125 C 63.240818,16.03125 62.461212,16.054101 61.696812,16.09375 C 60.957853,16.131774 60.232809,16.175901 59.503892,16.25 C 59.011634,16.300083 58.51883,16.371272 58.031503,16.4375 C 58.021218,16.438899 58.010458,16.436094 58.000175,16.4375 C 57.036014,16.569226 56.092628,16.744178 55.149379,16.9375 C 54.248642,17.122109 53.366336,17.323622 52.486547,17.5625 C 52.361826,17.596364 52.234897,17.621317 52.110618,17.65625 C 51.255894,17.896502 50.405939,18.178904 49.573096,18.46875 C 48.669011,18.783389 47.786475,19.129032 46.910264,19.5 C 46.901437,19.503729 46.88776,19.496266 46.878937,19.5 C 46.041907,19.855022 45.213685,20.251775 44.404069,20.65625 C 44.324516,20.695994 44.232728,20.709789 44.15345,20.75 C 43.359341,21.152783 42.600766,21.582587 41.83522,22.03125 C 41.165817,22.423566 40.507859,22.855167 39.861592,23.28125 C 39.722049,23.37325 39.561438,23.43771 39.423008,23.53125 C 39.411087,23.539289 39.403593,23.55445 39.39168,23.5625 C 39.224069,23.676 39.056397,23.790511 38.890441,23.90625 C 38.368126,24.269832 37.860887,24.645947 37.355397,25.03125 C 37.178176,25.166523 36.997927,25.299613 36.822831,25.4375 C 36.189993,25.935855 35.578715,26.468393 34.974512,27 C 34.276049,27.614542 33.627774,28.249272 32.969557,28.90625 C 32.953761,28.921998 32.922674,28.921728 32.906902,28.9375 C 32.2546,29.59054 31.606454,30.276065 30.995929,30.96875 C 30.390821,31.655289 29.803631,32.339069 29.241592,33.0625 C 29.21865,33.092031 29.201807,33.126659 29.178937,33.15625 C 28.613611,33.887727 28.069234,34.639382 27.549911,35.40625 C 27.541722,35.418343 27.526761,35.425399 27.518584,35.4375 C 26.999828,36.205131 26.516808,37.01159 26.046194,37.8125 C 26.6742,40.295948 28.085393,42.619801 30.087433,44.75 C 30.380123,44.402809 30.693375,44.062019 30.995929,43.71875 C 31.606454,43.026065 32.2546,42.340538 32.906902,41.6875 C 32.922674,41.671728 32.953761,41.671996 32.969557,41.65625 C 33.627774,40.999272 34.276049,40.36454 34.974512,39.75 C 35.578715,39.218393 36.189993,38.685853 36.822831,38.1875 C 36.997927,38.049613 37.178176,37.916521 37.355397,37.78125 C 37.860887,37.395947 38.368126,37.01983 38.890441,36.65625 C 39.056397,36.540511 39.224069,36.425998 39.39168,36.3125 C 39.403593,36.30445 39.411087,36.289287 39.423008,36.28125 C 39.561438,36.18771 39.722049,36.123248 39.861592,36.03125 C 40.507859,35.605167 41.165817,35.173564 41.83522,34.78125 C 42.600766,34.332587 43.359341,33.902781 44.15345,33.5 C 44.232728,33.459789 44.324516,33.445992 44.404069,33.40625 C 45.213685,33.001775 46.041907,32.60502 46.878937,32.25 C 46.88776,32.246266 46.901437,32.253727 46.910264,32.25 C 47.786475,31.879032 48.669011,31.533389 49.573096,31.21875 C 50.405939,30.928904 51.255894,30.646502 52.110618,30.40625 C 52.234897,30.371317 52.361826,30.346364 52.486547,30.3125 C 53.366336,30.073622 54.248642,29.872109 55.149379,29.6875 C 56.092628,29.494178 57.036014,29.319226 58.000175,29.1875 C 58.010458,29.186094 58.021218,29.188899 58.031503,29.1875 C 58.51883,29.121272 59.011634,29.050083 59.503892,29 C 60.232809,28.925901 60.957853,28.881774 61.696812,28.84375 C 62.461212,28.804101 63.240818,28.78125 64.015042,28.78125 C 64.968911,28.78125 65.895677,28.815115 66.834511,28.875 C 66.981832,28.884372 67.12617,28.89543 67.273095,28.90625 C 67.894446,28.952121 68.507483,29.022304 69.121414,29.09375 C 69.509515,29.138886 69.895567,29.163567 70.280529,29.21875 C 70.41657,29.238251 70.552147,29.260506 70.687785,29.28125 C 70.834595,29.303687 70.98004,29.351114 71.126369,29.375 C 71.704072,29.469429 72.279449,29.570777 72.849378,29.6875 C 73.565238,29.834109 74.276878,29.975298 74.979643,30.15625 C 75.001653,30.161912 75.020303,30.181805 75.042298,30.1875 C 75.722479,30.363778 76.411562,30.542391 77.078581,30.75 C 77.275931,30.811391 77.477652,30.873414 77.673803,30.9375 C 77.812622,30.982908 77.94285,31.047002 78.081059,31.09375 C 78.736839,31.315306 79.381812,31.561263 80.02336,31.8125 C 80.084685,31.836515 80.150134,31.850718 80.211325,31.875 C 80.306123,31.912649 80.398798,31.961712 80.493271,32 C 81.231124,32.298859 81.968837,32.60039 82.686192,32.9375 C 83.457734,33.300352 84.226806,33.688173 84.973094,34.09375 C 85.005948,34.111607 85.034272,34.13831 85.067077,34.15625 C 85.65666,34.478621 86.248571,34.808062 86.821413,35.15625 C 87.008699,35.270095 87.199866,35.383449 87.385307,35.5 C 87.588114,35.627463 87.779962,35.775586 87.980528,35.90625 C 88.522854,36.259645 89.052781,36.623692 89.578227,37 C 90.087177,37.364492 90.589486,37.739666 91.081944,38.125 C 91.287134,38.285555 91.506244,38.429654 91.708492,38.59375 C 92.352991,39.116574 92.974504,39.660986 93.588138,40.21875 C 93.631601,40.258245 93.670144,40.304082 93.713448,40.34375 C 94.365888,40.941391 94.977689,41.551968 95.593094,42.1875 C 96.096802,42.707681 96.587613,43.26706 97.065483,43.8125 C 99.14377,41.306149 100.3977,38.548503 100.60548,35.625 C 100.17045,34.973999 99.726596,34.344645 99.258403,33.71875 C 99.195957,33.635266 99.133463,33.551774 99.070439,33.46875 C 98.705638,32.988228 98.326453,32.527295 97.942651,32.0625 C 97.764812,31.847038 97.591916,31.618244 97.410085,31.40625 C 97.314952,31.295433 97.193022,31.203606 97.096811,31.09375 C 96.609946,30.537843 96.106952,29.968163 95.593094,29.4375 C 94.977689,28.80197 94.365888,28.191391 93.713448,27.59375 C 93.670144,27.554084 93.631601,27.508245 93.588138,27.46875 C 92.974504,26.910988 92.352991,26.366574 91.708492,25.84375 C 91.506244,25.679656 91.287134,25.535555 91.081944,25.375 C 90.589486,24.989668 90.087177,24.614492 89.578227,24.25 C 89.052781,23.873694 88.522854,23.509645 87.980528,23.15625 C 87.779962,23.025588 87.588114,22.877463 87.385307,22.75 C 87.199866,22.633451 87.008699,22.520095 86.821413,22.40625 C 86.248571,22.058064 85.65666,21.728621 85.067077,21.40625 C 85.034272,21.388312 85.005948,21.361607 84.973094,21.34375 C 84.226806,20.938175 83.457734,20.550352 82.686192,20.1875 C 81.968837,19.850392 81.231124,19.548859 80.493271,19.25 C 80.398798,19.211712 80.306123,19.162649 80.211325,19.125 C 80.150134,19.100718 80.084685,19.086515 80.02336,19.0625 C 79.381812,18.811263 78.736839,18.565306 78.081059,18.34375 C 77.94285,18.297002 77.812622,18.232908 77.673803,18.1875 C 77.477652,18.123414 77.275931,18.061391 77.078581,18 C 76.411562,17.792391 75.722479,17.613778 75.042298,17.4375 C 75.020303,17.431805 75.001653,17.411912 74.979643,17.40625 C 74.276878,17.225298 73.565238,17.084109 72.849378,16.9375 C 72.279449,16.820777 71.704072,16.719429 71.126369,16.625 C 70.98004,16.601114 70.834595,16.553687 70.687785,16.53125 C 70.552147,16.510506 70.41657,16.488251 70.280529,16.46875 C 69.895567,16.413567 69.509515,16.388886 69.121414,16.34375 C 68.507483,16.272304 67.894446,16.202121 67.273095,16.15625 C 67.12617,16.14543 66.981832,16.134372 66.834511,16.125 C 65.895677,16.065115 64.968911,16.03125 64.015042,16.03125 z "
       id="path8340" />
  </g>
</svg>
