<?xml version="1.0" encoding="UTF-8" standalone="no"?>
<!-- Created with Inkscape (http://www.inkscape.org/) -->
<svg
   xmlns:dc="http://purl.org/dc/elements/1.1/"
   xmlns:cc="http://web.resource.org/cc/"
   xmlns:rdf="http://www.w3.org/1999/02/22-rdf-syntax-ns#"
   xmlns:svg="http://www.w3.org/2000/svg"
   xmlns="http://www.w3.org/2000/svg"
   xmlns:xlink="http://www.w3.org/1999/xlink"
   xmlns:sodipodi="http://sodipodi.sourceforge.net/DTD/sodipodi-0.dtd"
   xmlns:inkscape="http://www.inkscape.org/namespaces/inkscape"
   width="128"
   height="128"
   id="svg1307"
   sodipodi:version="0.32"
   inkscape:version="0.44"
   version="1.0"
   sodipodi:docbase="/home/pinheiro/artwork/Oxygen/Pinheiro"
   sodipodi:docname="identity.svg">
  <defs
     id="defs1309">
    <linearGradient
       inkscape:collect="always"
       id="linearGradient2871">
      <stop
         style="stop-color:white;stop-opacity:1;"
         offset="0"
         id="stop2873" />
      <stop
         style="stop-color:white;stop-opacity:0;"
         offset="1"
         id="stop2875" />
    </linearGradient>
    <linearGradient
       id="linearGradient2858">
      <stop
         style="stop-color:#110e06;stop-opacity:1;"
         offset="0"
         id="stop2860" />
      <stop
         style="stop-color:#6f5926;stop-opacity:1;"
         offset="1"
         id="stop2862" />
    </linearGradient>
    <linearGradient
       id="linearGradient2598">
      <stop
         style="stop-color:#252525;stop-opacity:1;"
         offset="0"
         id="stop2600" />
      <stop
         id="stop2606"
         offset="0.5"
         style="stop-color:#252525;stop-opacity:1;" />
      <stop
         style="stop-color:#252525;stop-opacity:1;"
         offset="0.75"
         id="stop2608" />
      <stop
         style="stop-color:#000000;stop-opacity:1;"
         offset="1"
         id="stop2602" />
    </linearGradient>
    <linearGradient
       id="linearGradient3325">
      <stop
         id="stop3327"
         offset="0"
         style="stop-color:#ffffff;stop-opacity:1;" />
      <stop
         id="stop3329"
         offset="1"
         style="stop-color:#ffffff;stop-opacity:0;" />
    </linearGradient>
    <linearGradient
       id="linearGradient3311">
      <stop
         style="stop-color:#2d2d2d;stop-opacity:1;"
         offset="0"
         id="stop3313" />
      <stop
         id="stop3319"
         offset="0.5"
         style="stop-color:#000000;stop-opacity:1;" />
      <stop
         style="stop-color:#000000;stop-opacity:1;"
         offset="1"
         id="stop3315" />
    </linearGradient>
    <linearGradient
       id="linearGradient3303">
      <stop
         style="stop-color:#ffffff;stop-opacity:0.68345326;"
         offset="0"
         id="stop3305" />
      <stop
         style="stop-color:#ffffff;stop-opacity:0;"
         offset="1"
         id="stop3307" />
    </linearGradient>
    <linearGradient
       inkscape:collect="always"
       id="linearGradient3291">
      <stop
         style="stop-color:#000000;stop-opacity:1;"
         offset="0"
         id="stop3293" />
      <stop
         style="stop-color:#000000;stop-opacity:0;"
         offset="1"
         id="stop3295" />
    </linearGradient>
    <linearGradient
       id="linearGradient3273">
      <stop
         style="stop-color:#ffffff;stop-opacity:0.55035973;"
         offset="0"
         id="stop3275" />
      <stop
         style="stop-color:#ffffff;stop-opacity:0;"
         offset="1"
         id="stop3277" />
    </linearGradient>
    <linearGradient
       id="linearGradient3259">
      <stop
         id="stop3261"
         offset="0"
         style="stop-color:#ffffff;stop-opacity:0.55035973;" />
      <stop
         id="stop3263"
         offset="1"
         style="stop-color:#000000;stop-opacity:0;" />
    </linearGradient>
    <linearGradient
       id="linearGradient3251">
      <stop
         style="stop-color:#000000;stop-opacity:1;"
         offset="0"
         id="stop3253" />
      <stop
         style="stop-color:#131313;stop-opacity:0;"
         offset="1"
         id="stop3255" />
    </linearGradient>
    <linearGradient
       inkscape:collect="always"
       id="linearGradient3235">
      <stop
         style="stop-color:#ffffff;stop-opacity:1;"
         offset="0"
         id="stop3237" />
      <stop
         style="stop-color:#ffffff;stop-opacity:0;"
         offset="1"
         id="stop3239" />
    </linearGradient>
    <linearGradient
       id="linearGradient3225">
      <stop
         style="stop-color:#ffffff;stop-opacity:1;"
         offset="0"
         id="stop3227" />
      <stop
         style="stop-color:#aeaeae;stop-opacity:1;"
         offset="1"
         id="stop3229" />
    </linearGradient>
    <linearGradient
       inkscape:collect="always"
       id="linearGradient3217">
      <stop
         style="stop-color:#252525;stop-opacity:1;"
         offset="0"
         id="stop3219" />
      <stop
         style="stop-color:#252525;stop-opacity:0;"
         offset="1"
         id="stop3221" />
    </linearGradient>
    <linearGradient
       id="linearGradient3207">
      <stop
         style="stop-color:#ffffff;stop-opacity:1;"
         offset="0"
         id="stop3209" />
      <stop
         style="stop-color:#252525;stop-opacity:0;"
         offset="1"
         id="stop3211" />
    </linearGradient>
    <linearGradient
       id="linearGradient2257">
      <stop
         style="stop-color:#b4942a;stop-opacity:1;"
         offset="0"
         id="stop2259" />
      <stop
         style="stop-color:#e4dcc9;stop-opacity:1"
         offset="1"
         id="stop2261" />
    </linearGradient>
    <radialGradient
       inkscape:collect="always"
       xlink:href="#linearGradient3291"
       id="radialGradient3297"
       cx="63.912209"
       cy="115.70919"
       fx="41.129765"
       fy="115.70919"
       r="63.912209"
       gradientTransform="matrix(1,0,0,0.197802,0,92.82166)"
       gradientUnits="userSpaceOnUse" />
    <radialGradient
       inkscape:collect="always"
       xlink:href="#linearGradient3303"
       id="radialGradient1539"
       gradientUnits="userSpaceOnUse"
       gradientTransform="matrix(1,7.635218e-17,-1.390307e-18,2.608014e-2,-1.139078e-13,7.26766)"
       cx="34.677639"
       cy="7.4622769"
       fx="34.677639"
       fy="7.4622769"
       r="47.595197" />
    <radialGradient
       inkscape:collect="always"
       xlink:href="#linearGradient3325"
       id="radialGradient1541"
       gradientUnits="userSpaceOnUse"
       gradientTransform="matrix(-1.5103,2.641273e-3,-1.167078e-4,-9.110224e-3,87.0522,7.438666)"
       cx="34.677639"
       cy="7.4622769"
       fx="34.677639"
       fy="7.4622769"
       r="47.595196" />
    <radialGradient
       inkscape:collect="always"
       xlink:href="#linearGradient3259"
       id="radialGradient1547"
       gradientUnits="userSpaceOnUse"
       gradientTransform="matrix(0.853446,3.931539e-16,-5.927715e-17,0.1578,-62.04115,15.05256)"
       cx="49.011971"
       cy="2.6743078"
       fx="49.011971"
       fy="2.6743078"
       r="1.7246193" />
    <linearGradient
       inkscape:collect="always"
       xlink:href="#linearGradient3251"
       id="linearGradient1550"
       gradientUnits="userSpaceOnUse"
       x1="46.051746"
       y1="3.0999987"
       x2="46.051746"
       y2="2.395859"
       gradientTransform="translate(53.87194,19.35268)" />
    <radialGradient
       inkscape:collect="always"
       xlink:href="#linearGradient3273"
       id="radialGradient1553"
       gradientUnits="userSpaceOnUse"
       gradientTransform="matrix(0.860164,-2.860046e-16,6.583289e-17,0.1578,-29.37149,15.05256)"
       cx="49.011971"
       cy="2.6743078"
       fx="49.011971"
       fy="2.6743078"
       r="1.7246193" />
    <linearGradient
       inkscape:collect="always"
       xlink:href="#linearGradient3251"
       id="linearGradient1556"
       gradientUnits="userSpaceOnUse"
       gradientTransform="matrix(1.28993,-5.112494e-16,5.140778e-16,1.29707,-46.7271,12.03998)"
       x1="46.051746"
       y1="3.0999987"
       x2="46.051746"
       y2="2.395859" />
    <linearGradient
       inkscape:collect="always"
       xlink:href="#linearGradient3235"
       id="linearGradient1559"
       gradientUnits="userSpaceOnUse"
       gradientTransform="matrix(1.297068,-1.880044e-3,1.880044e-3,1.297068,-47.04731,12.10823)"
       x1="48.498562"
       y1="0.81150496"
       x2="48.732723"
       y2="2.3657269" />
    <radialGradient
       inkscape:collect="always"
       xlink:href="#linearGradient3207"
       id="radialGradient1562"
       gradientUnits="userSpaceOnUse"
       gradientTransform="matrix(1.29707,-4.591755e-16,6.750436e-17,0.1578,-47.06473,15.05256)"
       cx="49.011971"
       cy="2.6743078"
       fx="49.011971"
       fy="2.6743078"
       r="1.7246193" />
    <linearGradient
       inkscape:collect="always"
       xlink:href="#linearGradient3217"
       id="linearGradient1565"
       gradientUnits="userSpaceOnUse"
       gradientTransform="matrix(1.29707,-3.784064e-16,3.784064e-16,1.29707,-47.06473,12.03998)"
       x1="48.914677"
       y1="2.9719031"
       x2="48.913002"
       y2="2.5548496" />
    <radialGradient
       inkscape:collect="always"
       xlink:href="#linearGradient3225"
       id="radialGradient1569"
       gradientUnits="userSpaceOnUse"
       gradientTransform="matrix(1.297068,-1.880044e-3,7.085819e-4,0.48867,-47.03734,18.97582)"
       cx="49.009884"
       cy="8.4953122"
       fx="47.370888"
       fy="6.7701697"
       r="3.9750405" />
    <radialGradient
       inkscape:collect="always"
       xlink:href="#linearGradient3311"
       id="radialGradient1576"
       gradientUnits="userSpaceOnUse"
       gradientTransform="matrix(6.228741e-2,-3.825032e-4,4.90218e-3,0.798611,15.0605,-17.07621)"
       cx="95.505852"
       cy="59.591507"
       fx="95.505852"
       fy="59.591507"
       r="47.746404" />
    <radialGradient
       inkscape:collect="always"
       xlink:href="#linearGradient2257"
       id="radialGradient1580"
       gradientUnits="userSpaceOnUse"
       gradientTransform="matrix(1.520175,8.839467e-2,-0.843351,13.788,55.27677,-1567.892)"
       cx="42.617531"
       cy="120.64188"
       fx="42.617531"
       fy="120.64188"
       r="3.406888" />
    <linearGradient
       inkscape:collect="always"
       xlink:href="#linearGradient2858"
       id="linearGradient2864"
       x1="56.398094"
       y1="107.44585"
       x2="56.398094"
       y2="21.214298"
       gradientUnits="userSpaceOnUse"
       gradientTransform="matrix(0.852452,0,0,0.852452,0.225366,31.95528)" />
    <linearGradient
       inkscape:collect="always"
       xlink:href="#linearGradient2871"
       id="linearGradient2880"
       gradientUnits="userSpaceOnUse"
       gradientTransform="matrix(0.848177,-8.526426e-2,6.455293e-2,0.642149,4.079273,38.32598)"
       x1="52.74865"
       y1="18.669086"
       x2="54.309219"
       y2="95.076866" />
    <linearGradient
       inkscape:collect="always"
       xlink:href="#linearGradient2871"
       id="linearGradient2884"
       gradientUnits="userSpaceOnUse"
       gradientTransform="matrix(0.848177,-8.526426e-2,6.455293e-2,0.642149,4.079273,38.32598)"
       x1="52.74865"
       y1="23.186049"
       x2="52.485348"
       y2="58.941166" />
    <radialGradient
       r="61.196491"
       fy="113.46784"
       fx="70.340134"
       cy="113.46784"
       cx="70.340134"
       gradientTransform="matrix(1,0,0,0.978678,0,1.310253)"
       gradientUnits="userSpaceOnUse"
       id="radialGradient2268"
       xlink:href="#linearGradient7281"
       inkscape:collect="always" />
    <linearGradient
       y2="94.579391"
       x2="8.1947927"
       y1="72.976402"
       x1="54.480171"
       gradientUnits="userSpaceOnUse"
       id="linearGradient2266"
       xlink:href="#linearGradient3345"
       inkscape:collect="always" />
    <radialGradient
       r="19.780952"
       fy="63.797356"
       fx="71.833099"
       cy="63.797356"
       cx="71.833099"
       gradientTransform="matrix(7.235078e-2,-0.180927,0.727882,0.291067,44.18976,78.77205)"
       gradientUnits="userSpaceOnUse"
       id="radialGradient2264"
       xlink:href="#linearGradient3313"
       inkscape:collect="always" />
    <linearGradient
       y2="86.346596"
       x2="95.084343"
       y1="81.455772"
       x1="97.003845"
       gradientUnits="userSpaceOnUse"
       id="linearGradient2262"
       xlink:href="#linearGradient3313"
       inkscape:collect="always" />
    <radialGradient
       r="19.780952"
       fy="63.797356"
       fx="71.833099"
       cy="63.797356"
       cx="71.833099"
       gradientTransform="matrix(7.235078e-2,-0.180927,0.727882,0.291067,44.18976,78.77205)"
       gradientUnits="userSpaceOnUse"
       id="radialGradient2260"
       xlink:href="#linearGradient3313"
       inkscape:collect="always" />
    <linearGradient
       y2="86.346596"
       x2="95.084343"
       y1="81.455772"
       x1="97.003845"
       gradientUnits="userSpaceOnUse"
       id="linearGradient2258"
       xlink:href="#linearGradient3313"
       inkscape:collect="always" />
    <linearGradient
       y2="17.977095"
       x2="69.163208"
       y1="-0.91353309"
       x1="74.919579"
       gradientTransform="translate(-0.319889,0.213259)"
       gradientUnits="userSpaceOnUse"
       id="linearGradient2256"
       xlink:href="#linearGradient3283"
       inkscape:collect="always" />
    <linearGradient
       y2="108.30589"
       x2="89.018158"
       y1="-13.696256"
       x1="82.950089"
       gradientUnits="userSpaceOnUse"
       id="linearGradient2254"
       xlink:href="#linearGradient3263"
       inkscape:collect="always" />
    <linearGradient
       y2="151.13226"
       x2="59.461929"
       y1="-17.918573"
       x1="73.783409"
       gradientUnits="userSpaceOnUse"
       id="linearGradient2252"
       xlink:href="#linearGradient3263"
       inkscape:collect="always" />
    <linearGradient
       y2="133.6398"
       x2="73.938446"
       y1="-4.6484313"
       x1="81.624855"
       gradientUnits="userSpaceOnUse"
       id="linearGradient2250"
       xlink:href="#linearGradient3263"
       inkscape:collect="always" />
    <linearGradient
       id="linearGradient7281">
      <stop
         style="stop-color:#ffffff;stop-opacity:1.0000000"
         offset="0.0000000"
         id="stop7283" />
      <stop
         style="stop-color:#ffffff;stop-opacity:0.0000000"
         offset="1.0000000"
         id="stop7285" />
    </linearGradient>
    <radialGradient
       gradientUnits="userSpaceOnUse"
       gradientTransform="matrix(1,0,0,0.197802,0,92.82166)"
       r="63.912209"
       fy="115.7093"
       fx="63.912209"
       cy="115.70919"
       cx="63.912209"
       id="radialGradient2964"
       xlink:href="#linearGradient3291"
       inkscape:collect="always" />
    <linearGradient
       id="linearGradient3263"
       inkscape:collect="always">
      <stop
         id="stop3265"
         offset="0"
         style="stop-color:#ffffff;stop-opacity:1;" />
      <stop
         id="stop3267"
         offset="1"
         style="stop-color:#ffffff;stop-opacity:0;" />
    </linearGradient>
    <linearGradient
       id="linearGradient3283"
       inkscape:collect="always">
      <stop
         id="stop3285"
         offset="0"
         style="stop-color:#ffffff;stop-opacity:1;" />
      <stop
         id="stop3287"
         offset="1"
         style="stop-color:#ffffff;stop-opacity:0;" />
    </linearGradient>
    <linearGradient
       id="linearGradient3313"
       inkscape:collect="always">
      <stop
         id="stop2949"
         offset="0"
         style="stop-color:#ffffff;stop-opacity:1;" />
      <stop
         id="stop3317"
         offset="1"
         style="stop-color:#ffffff;stop-opacity:0;" />
    </linearGradient>
    <linearGradient
       id="linearGradient3345"
       inkscape:collect="always">
      <stop
         id="stop3347"
         offset="0"
         style="stop-color:#000000;stop-opacity:1;" />
      <stop
         id="stop3349"
         offset="1"
         style="stop-color:#000000;stop-opacity:0;" />
    </linearGradient>
    <radialGradient
       inkscape:collect="always"
       xlink:href="#linearGradient3291"
       id="radialGradient3001"
       gradientUnits="userSpaceOnUse"
       gradientTransform="matrix(1,0,0,0.197802,0,92.82166)"
       cx="63.912209"
       cy="115.70919"
       fx="14.046639"
       fy="115.70919"
       r="63.912209" />
    <linearGradient
       inkscape:collect="always"
       xlink:href="#linearGradient2858"
       id="linearGradient3017"
       x1="77.025185"
       y1="61.614609"
       x2="71.609573"
       y2="36.400505"
       gradientUnits="userSpaceOnUse" />
  </defs>
  <sodipodi:namedview
     id="base"
     pagecolor="#ffffff"
     bordercolor="#666666"
     borderopacity="1.0"
     inkscape:pageopacity="0.0"
     inkscape:pageshadow="2"
     inkscape:zoom="3.1015625"
     inkscape:cx="121.60188"
     inkscape:cy="41.651264"
     inkscape:current-layer="layer1"
     showgrid="false"
     inkscape:document-units="px"
     inkscape:grid-bbox="true"
     guidetolerance="0.1px"
     showguides="true"
     inkscape:guide-bbox="true"
     inkscape:window-width="1106"
     inkscape:window-height="958"
     inkscape:window-x="601"
     inkscape:window-y="25">
    <sodipodi:guide
       orientation="horizontal"
       position="32.487481"
       id="guide2204" />
  </sodipodi:namedview>
  <metadata
     id="metadata1312">
    <rdf:RDF>
      <cc:Work
         rdf:about="">
        <dc:format>image/svg+xml</dc:format>
        <dc:type
           rdf:resource="http://purl.org/dc/dcmitype/StillImage" />
        <cc:license
           rdf:resource="http://creativecommons.org/licenses/GPL/2.0/" />
        <dc:contributor>
          <cc:Agent>
            <dc:title>Oxygen team</dc:title>
          </cc:Agent>
        </dc:contributor>
      </cc:Work>
      <cc:License
         rdf:about="http://creativecommons.org/licenses/LGPL/2.1/">
        <cc:permits
           rdf:resource="http://web.resource.org/cc/Reproduction" />
        <cc:permits
           rdf:resource="http://web.resource.org/cc/Distribution" />
        <cc:requires
           rdf:resource="http://web.resource.org/cc/Notice" />
        <cc:permits
           rdf:resource="http://web.resource.org/cc/DerivativeWorks" />
        <cc:requires
           rdf:resource="http://web.resource.org/cc/ShareAlike" />
        <cc:requires
           rdf:resource="http://web.resource.org/cc/SourceCode" />
      </cc:License>
    </rdf:RDF>
  </metadata>
  <g
     id="layer1"
     inkscape:label="Layer 1"
     inkscape:groupmode="layer">
    <path
       sodipodi:nodetypes="ccc"
       id="path2276"
       d="M 50.892799,3.2812959 L 50.892799,0.48658747 L 50.892799,3.2812959 z "
       style="fill:#ffffff;fill-opacity:0.75688076;fill-rule:nonzero;stroke:none;stroke-width:0.5;stroke-linecap:round;stroke-linejoin:round;stroke-miterlimit:4;stroke-dasharray:none;stroke-dashoffset:4;stroke-opacity:1" />
    <path
       sodipodi:type="arc"
       style="opacity:0.38139535;fill:url(#radialGradient3297);fill-opacity:1.0;fill-rule:nonzero;stroke:none;stroke-width:0;stroke-linecap:round;stroke-linejoin:round;stroke-miterlimit:4;stroke-dasharray:none;stroke-dashoffset:4;stroke-opacity:1"
       id="path3289"
       sodipodi:cx="63.912209"
       sodipodi:cy="115.70919"
       sodipodi:rx="63.912209"
       sodipodi:ry="12.641975"
       d="M 127.82442 115.70919 A 63.912209 12.641975 0 1 1  0,115.70919 A 63.912209 12.641975 0 1 1  127.82442 115.70919 z"
       transform="matrix(1,0,0,0.416667,0,74.87151)" />
    <rect
       style="opacity:1;fill:#dedede;fill-opacity:1;fill-rule:nonzero;stroke:url(#linearGradient2864);stroke-width:0.59245384;stroke-linecap:round;stroke-linejoin:round;stroke-miterlimit:4;stroke-dasharray:none;stroke-dashoffset:4;stroke-opacity:1"
       id="rect1969"
       width="105.54079"
       height="60.878353"
       x="3.3860931"
       y="58.890163"
       rx="4.8362713"
       ry="4.8362713"
       transform="matrix(0.994985,-0.100022,0.100022,0.994985,0,0)" />
    <path
       style="fill:url(#linearGradient2880);fill-opacity:1;fill-rule:nonzero;stroke:none;stroke-width:0.51849616;stroke-linecap:round;stroke-linejoin:round;stroke-miterlimit:4;stroke-dashoffset:4;stroke-opacity:1"
       d="M 14.17358,57.943583 L 109.39297,48.371513 C 111.66549,48.143065 113.67889,49.788652 113.90734,52.061167 L 115.85839,71.46953 C 116.08684,73.742046 114.44126,75.755456 112.16875,75.983904 C 81.025356,85.107457 47.406291,87.091042 16.949356,85.555975 C 14.67684,85.784423 12.663429,84.138837 12.434981,81.866321 L 10.483927,62.457959 C 10.255479,60.185444 11.901064,58.172031 14.17358,57.943583 z "
       id="rect2867"
       sodipodi:nodetypes="ccccccccc" />
    <g
       inkscape:label="Layer 1"
       id="g2979"
       transform="matrix(0.420647,-4.228615e-2,4.228615e-2,0.420647,11.74593,62.95897)">
      <path
         style="fill:white;fill-opacity:0.75688076;fill-rule:nonzero;stroke:none;stroke-width:0.5;stroke-linecap:round;stroke-linejoin:round;stroke-miterlimit:4;stroke-dasharray:none;stroke-dashoffset:4;stroke-opacity:1"
         d="M 50.892799,3.2812959 L 50.892799,0.48658747 L 50.892799,3.2812959 z "
         id="path2981"
         sodipodi:nodetypes="ccc" />
      <path
         transform="matrix(1,0,0,0.416667,0,74.87151)"
         d="M 127.82442 115.70919 A 63.912209 12.641975 0 1 1  0,115.70919 A 63.912209 12.641975 0 1 1  127.82442 115.70919 z"
         sodipodi:ry="12.641975"
         sodipodi:rx="63.912209"
         sodipodi:cy="115.70919"
         sodipodi:cx="63.912209"
         id="path2983"
         style="opacity:0.38139535;fill:url(#radialGradient3001);fill-opacity:1;fill-rule:nonzero;stroke:none;stroke-width:0;stroke-linecap:round;stroke-linejoin:round;stroke-miterlimit:4;stroke-dasharray:none;stroke-dashoffset:4;stroke-opacity:1"
         sodipodi:type="arc" />
      <g
         transform="matrix(1.031183,0,0,1.005307,-2.335207,-0.649344)"
         id="g2233">
        <path
           d="M 62.979183,1.5579898 C 55.005489,2.0458866 47.210018,5.3364692 43.051753,11.813857 C 42.116962,13.269986 41.97364,14.264533 41.637543,15.758422 C 41.301466,17.25231 41.034797,19.059701 40.866161,21.01784 C 40.537873,24.829774 40.480029,29.225676 40.737605,33.903416 C 41.253162,43.266611 42.728921,52.534232 45.494475,58.096744 C 48.256887,63.652946 48.162986,71.815901 46.522979,74.663916 C 44.489121,78.195881 39.852345,81.279399 31.866681,83.604925 C 22.957506,86.199392 15.898754,88.720855 10.782173,93.334852 C 6.2524252,97.419658 3.3254595,102.14229 3.3254595,108.19271 L 3.3254595,117.13372 L 3.3254595,121.34126 L 7.4395127,121.34126 L 121.60438,121.34126 L 125.71844,121.34126 L 125.71844,117.13372 L 125.71844,108.19271 C 125.71845,102.14229 122.79147,97.419658 118.26172,93.334852 C 113.20197,88.772098 106.14367,86.084582 97.177223,83.473439 C 89.132412,81.130686 84.528867,78.150891 82.520916,74.663916 C 80.880909,71.815905 80.787018,63.652946 83.549429,58.096744 C 86.314994,52.534228 87.790743,43.266611 88.3063,33.903416 C 88.563866,29.225675 88.506013,24.829763 88.177734,21.01784 C 88.009108,19.059701 87.742449,17.25231 87.406352,15.758422 C 87.070265,14.264533 86.926933,13.269986 85.992152,11.813857 C 81.854475,5.3685676 74.036736,1.5579898 65.807592,1.5579898 L 63.236304,1.5579898 L 63.107748,1.5579898 L 62.979183,1.5579898 z "
           style="fill:black;fill-opacity:1;stroke:black;stroke-width:2;stroke-miterlimit:4;stroke-dasharray:none;stroke-opacity:0.23170734"
           id="path3293" />
        <path
           d="M 62.979183,1.5579898 C 55.005489,2.0458866 47.210018,5.3364692 43.051753,11.813857 C 42.116962,13.269986 41.97364,14.264533 41.637543,15.758422 C 41.301466,17.25231 41.034797,19.059701 40.866161,21.01784 C 40.537873,24.829774 40.480029,29.225676 40.737605,33.903416 C 41.253162,43.266611 42.728921,52.534232 45.494475,58.096744 C 48.256887,63.652946 48.162986,71.815901 46.522979,74.663916 C 44.489121,78.195881 39.852345,81.279399 31.866681,83.604925 C 22.957506,86.199392 15.898754,88.720855 10.782173,93.334852 C 6.2524252,97.419658 3.3254595,102.14229 3.3254595,108.19271 L 3.3254595,117.13372 L 3.3254595,121.34126 L 7.4395127,121.34126 L 121.60438,121.34126 L 125.71844,121.34126 L 125.71844,117.13372 L 125.71844,108.19271 C 125.71845,102.14229 122.79147,97.419658 118.26172,93.334852 C 113.20197,88.772098 106.14367,86.084582 97.177223,83.473439 C 89.132412,81.130686 84.528867,78.150891 82.520916,74.663916 C 80.880909,71.815905 80.787018,63.652946 83.549429,58.096744 C 86.314994,52.534228 87.790743,43.266611 88.3063,33.903416 C 88.563866,29.225675 88.506013,24.829763 88.177734,21.01784 C 88.009108,19.059701 87.742449,17.25231 87.406352,15.758422 C 87.070265,14.264533 86.926933,13.269986 85.992152,11.813857 C 81.854475,5.3685676 74.036736,1.5579898 65.807592,1.5579898 L 63.236304,1.5579898 L 63.107748,1.5579898 L 62.979183,1.5579898 z "
           style="fill:black;fill-opacity:1;stroke:none;stroke-width:2;stroke-miterlimit:4;stroke-dasharray:none;stroke-opacity:1"
           id="path3220" />
        <path
           id="path2375"
           style="fill:black;fill-opacity:1;stroke:none;stroke-width:2;stroke-miterlimit:4;stroke-dasharray:none;stroke-opacity:1"
           d="M 62.979183,1.5579898 C 55.005489,2.0458866 47.210018,5.3364692 43.051753,11.813857 C 42.116962,13.269986 41.97364,14.264533 41.637543,15.758422 C 41.301466,17.25231 41.034797,19.059701 40.866161,21.01784 C 40.537873,24.829774 40.480029,29.225676 40.737605,33.903416 C 41.253162,43.266611 42.728921,52.534232 45.494475,58.096744 C 48.256887,63.652946 48.162986,71.815901 46.522979,74.663916 C 44.489121,78.195881 39.852345,81.279399 31.866681,83.604925 C 22.957506,86.199392 15.898754,88.720855 10.782173,93.334852 C 6.2524252,97.419658 3.3254595,102.14229 3.3254595,108.19271 L 3.3254595,117.13372 L 3.3254595,121.34126 L 7.4395127,121.34126 L 121.60438,121.34126 L 125.71844,121.34126 L 125.71844,117.13372 L 125.71844,108.19271 C 125.71845,102.14229 122.79147,97.419658 118.26172,93.334852 C 113.20197,88.772098 106.14367,86.084582 97.177223,83.473439 C 89.132412,81.130686 84.528867,78.150891 82.520916,74.663916 C 80.880909,71.815905 80.787018,63.652946 83.549429,58.096744 C 86.314994,52.534228 87.790743,43.266611 88.3063,33.903416 C 88.563866,29.225675 88.506013,24.829763 88.177734,21.01784 C 88.009108,19.059701 87.742449,17.25231 87.406352,15.758422 C 87.070265,14.264533 86.926933,13.269986 85.992152,11.813857 C 81.854475,5.3685676 74.036736,1.5579898 65.807592,1.5579898 L 63.236304,1.5579898 L 63.107748,1.5579898 L 62.979183,1.5579898 z " />
        <path
           style="opacity:0.11885244;fill:url(#linearGradient2250);fill-opacity:1;fill-rule:evenodd;stroke:none;stroke-width:1px;stroke-linecap:butt;stroke-linejoin:miter;stroke-opacity:1"
           d="M 62.78125,1.5625 C 54.872823,2.0900582 47.188279,5.3857168 43.0625,11.8125 C 42.127708,13.268629 41.961097,14.256111 41.625,15.75 C 41.288923,17.243888 41.043636,19.073111 40.875,21.03125 C 40.546712,24.843185 40.492424,29.22851 40.75,33.90625 C 41.265556,43.269445 42.734446,52.531238 45.5,58.09375 C 48.262411,63.649951 48.171257,71.808235 46.53125,74.65625 C 44.497391,78.188213 39.860664,81.268224 31.875,83.59375 C 22.965826,86.188215 15.897831,88.729753 10.78125,93.34375 C 7.9395409,95.906326 5.7219389,98.702526 4.46875,101.9375 C 44.240617,112.58776 110.76371,98.927657 125.3125,104.46875 C 124.37234,100.14287 121.80552,96.550022 118.25,93.34375 C 113.19025,88.780994 106.15395,86.079893 97.1875,83.46875 C 89.142689,81.125994 84.539201,78.143225 82.53125,74.65625 C 80.891239,71.808237 80.800089,63.649952 83.5625,58.09375 C 86.328063,52.531233 87.796943,43.269445 88.3125,33.90625 C 88.570069,29.228509 88.515779,24.843173 88.1875,21.03125 C 88.018874,19.073112 87.742347,17.243888 87.40625,15.75 C 87.070166,14.256111 86.934781,13.268629 86,11.8125 C 81.862326,5.3672105 74.041644,1.5625 65.8125,1.5625 L 63.25,1.5625 L 63.09375,1.5625 L 62.96875,1.5625 C 62.906456,1.5663117 62.843521,1.558346 62.78125,1.5625 z "
           id="path2377" />
        <path
           style="opacity:0.06967211;fill:url(#linearGradient2252);fill-opacity:1;fill-rule:evenodd;stroke:none;stroke-width:1px;stroke-linecap:butt;stroke-linejoin:miter;stroke-opacity:1"
           d="M 62.59375,1.5625 C 54.75078,2.1288723 47.156046,5.435926 43.0625,11.8125 C 42.127708,13.268629 41.961097,14.256111 41.625,15.75 C 41.288923,17.243888 41.043636,19.073111 40.875,21.03125 C 40.546712,24.843185 40.492424,29.22851 40.75,33.90625 C 40.860488,35.912861 41.017313,37.913116 41.21875,39.875 C 49.244807,26.94014 60.510912,15.20298 78.15625,4.625 C 74.492384,2.6307028 70.208814,1.5625 65.8125,1.5625 L 63.25,1.5625 L 63.09375,1.5625 L 62.96875,1.5625 C 62.960963,1.5629765 62.945304,1.5623449 62.9375,1.5625 C 62.906234,1.5622083 62.843761,1.5627061 62.8125,1.5625 C 62.804698,1.5626872 62.789034,1.5619808 62.78125,1.5625 C 62.719465,1.5666215 62.655506,1.5580404 62.59375,1.5625 z M 87.9375,18.71875 C 55.447405,43.382433 51.197565,70.69517 47.71875,106.125 C 81.101114,105.86994 115.36388,100.67969 125.3125,104.46875 C 124.37234,100.14287 121.80552,96.550022 118.25,93.34375 C 113.19025,88.780994 106.15395,86.079893 97.1875,83.46875 C 89.142689,81.125994 84.539201,78.143225 82.53125,74.65625 C 80.891239,71.808237 80.800089,63.649952 83.5625,58.09375 C 86.328063,52.531233 87.796943,43.269445 88.3125,33.90625 C 88.570069,29.228509 88.515779,24.843173 88.1875,21.03125 C 88.118996,20.235756 88.03838,19.457852 87.9375,18.71875 z M 22.4375,86.65625 C 17.829072,88.422737 13.93381,90.500855 10.78125,93.34375 C 7.9395409,95.906326 5.7219389,98.702526 4.46875,101.9375 C 8.4258938,102.99716 12.653252,103.8163 17.0625,104.4375 C 18.981296,98.346997 20.719968,92.419669 22.4375,86.65625 z "
           id="path3271" />
        <path
           id="path3276"
           d="M 62.59375,1.5625 C 54.75078,2.1288723 47.156046,5.435926 43.0625,11.8125 C 42.127708,13.268629 41.961097,14.256111 41.625,15.75 C 41.288923,17.243888 41.043636,19.073111 40.875,21.03125 C 40.546712,24.843185 40.492424,29.22851 40.75,33.90625 C 40.860488,35.912861 41.017313,37.913116 41.21875,39.875 C 49.244807,26.94014 60.510912,15.20298 78.15625,4.625 C 74.492384,2.6307028 70.208814,1.5625 65.8125,1.5625 L 63.25,1.5625 L 63.09375,1.5625 L 62.96875,1.5625 C 62.960963,1.5629765 62.945304,1.5623449 62.9375,1.5625 C 62.906234,1.5622083 62.843761,1.5627061 62.8125,1.5625 C 62.804698,1.5626872 62.789034,1.5619808 62.78125,1.5625 C 62.719465,1.5666215 62.655506,1.5580404 62.59375,1.5625 z M 87.9375,18.71875 C 26.242577,103.15045 115.36388,100.67969 125.3125,104.46875 C 124.37234,100.14287 121.80552,96.550022 118.25,93.34375 C 113.19025,88.780994 106.15395,86.079893 97.1875,83.46875 C 89.142689,81.125994 84.539201,78.143225 82.53125,74.65625 C 80.891239,71.808237 80.800089,63.649952 83.5625,58.09375 C 86.328063,52.531233 87.796943,43.269445 88.3125,33.90625 C 88.570069,29.228509 88.515779,24.843173 88.1875,21.03125 C 88.118996,20.235756 88.03838,19.457852 87.9375,18.71875 z "
           style="opacity:0.06967211;fill:url(#linearGradient2254);fill-opacity:1;fill-rule:evenodd;stroke:none;stroke-width:1px;stroke-linecap:butt;stroke-linejoin:miter;stroke-opacity:1"
           sodipodi:nodetypes="cssssccccccssscccssssssc" />
        <path
           d="M 62.972072,2.7275379 C 55.248886,3.2107181 47.698324,6.4694906 43.670699,12.884261 C 42.765275,14.326314 42.626456,15.311247 42.300919,16.790694 C 41.9754,18.270141 41.717109,20.06006 41.553771,21.999269 C 41.235795,25.774353 41.179769,29.82776 41.429254,34.46028 C 41.928613,43.732961 43.358008,52.610992 46.036678,58.119731 C 48.712303,63.622221 48.621352,72.606264 47.032869,75.426747 C 45.062909,78.924569 40.571805,81.978278 32.837025,84.281323 C 24.207748,86.85071 17.370759,89.347798 12.414925,93.917191 C 8.0274872,97.962509 5.1924775,102.33949 5.1924775,108.33142 L 5.1924775,115.88599 L 5.1924775,120.05286 L 9.1772802,120.05286 L 119.75545,120.05286 L 123.74026,120.05286 L 123.74026,115.88599 L 123.74026,108.33142 C 123.74027,102.33949 120.90525,97.962509 116.51781,93.917191 C 111.61702,89.398545 104.78047,86.73701 96.095719,84.151109 C 88.303651,81.831003 83.844734,78.880014 81.899866,75.426747 C 80.311383,72.606268 80.220442,63.622221 82.896068,58.119731 C 85.574747,52.610988 87.004133,43.732961 87.503493,34.46028 C 87.752967,29.827759 87.696931,25.774342 87.378966,21.999269 C 87.215637,20.06006 86.957356,18.270141 86.631818,16.790694 C 86.30629,15.311247 86.16746,14.326314 85.262048,12.884261 C 81.254364,6.5012787 73.682232,2.7275379 65.711621,2.7275379 L 63.221115,2.7275379 L 63.096598,2.7275379 L 62.972072,2.7275379 z "
           style="fill:none;fill-opacity:1;stroke:black;stroke-width:2.3505547;stroke-miterlimit:4;stroke-dasharray:none;stroke-opacity:1"
           id="path3295"
           sodipodi:nodetypes="cssssssssccccccccsssssssscccc" />
        <path
           style="fill:url(#linearGradient2256);fill-opacity:1;stroke:none;stroke-width:2;stroke-miterlimit:4;stroke-dasharray:none;stroke-opacity:1"
           d="M 62.548315,2.1460989 C 55.172633,2.6381186 47.993569,5.6606747 44.041324,11.562456 C 47.402745,5.7403037 57.13966,4.8003411 58.891598,4.5672103 C 64.597703,3.8078979 68.529864,4.0451772 73.267564,5.2552734 C 80.70221,7.1542195 86.785482,16.085962 86.785482,16.085962 C 86.475848,14.701352 85.953811,13.535763 85.079775,12.174258 C 81.159089,6.0669725 73.218191,2.1460989 65.4206,2.1460989 C 64.611228,2.1460989 63.801855,2.1460989 62.992483,2.1460989 C 62.943131,2.1460989 62.893779,2.1460989 62.844427,2.1460989 C 62.804945,2.1460989 62.765464,2.1460989 62.725982,2.1460989 C 62.666955,2.1497107 62.60732,2.1421627 62.548315,2.1460989 z "
           id="path3278"
           sodipodi:nodetypes="ccsscsccccc" />
        <path
           style="fill:url(#linearGradient2258);fill-opacity:1;fill-rule:evenodd;stroke:none;stroke-width:1px;stroke-linecap:butt;stroke-linejoin:miter;stroke-opacity:1"
           d="M 81.425675,75.451822 C 85.146934,85.658719 110.57411,85.701037 120.98758,97.241362 C 110.28824,88.526911 82.688547,88.201388 81.425675,75.451822 z "
           id="path3303"
           sodipodi:nodetypes="ccc" />
        <path
           sodipodi:nodetypes="ccc"
           id="path3321"
           d="M 81.425675,75.451822 C 85.146934,85.658719 110.57411,85.701037 120.98758,97.241362 C 110.28824,88.526911 82.688547,88.201388 81.425675,75.451822 z "
           style="opacity:0.5;fill:url(#radialGradient2260);fill-opacity:1;fill-rule:evenodd;stroke:none;stroke-width:1px;stroke-linecap:butt;stroke-linejoin:miter;stroke-opacity:1" />
        <g
           id="g3335"
           transform="matrix(-1,0,0,1,128.8699,-0.362283)">
          <path
             style="fill:url(#linearGradient2262);fill-opacity:1;fill-rule:evenodd;stroke:none;stroke-width:1px;stroke-linecap:butt;stroke-linejoin:miter;stroke-opacity:1"
             d="M 81.425675,75.451822 C 85.146934,85.658719 110.57411,85.701037 120.98758,97.241362 C 110.28824,88.526911 82.688547,88.201388 81.425675,75.451822 z "
             id="path3331"
             sodipodi:nodetypes="ccc" />
          <path
             sodipodi:nodetypes="ccc"
             id="path3333"
             d="M 81.425675,75.451822 C 85.146934,85.658719 110.57411,85.701037 120.98758,97.241362 C 110.28824,88.526911 82.688547,88.201388 81.425675,75.451822 z "
             style="opacity:0.5;fill:url(#radialGradient2264);fill-opacity:1;fill-rule:evenodd;stroke:none;stroke-width:1px;stroke-linecap:butt;stroke-linejoin:miter;stroke-opacity:1" />
        </g>
        <path
           style="fill:url(#linearGradient2266);fill-opacity:1;fill-rule:evenodd;stroke:none;stroke-width:1px;stroke-linecap:butt;stroke-linejoin:miter;stroke-opacity:1"
           d="M 47.459075,73.476406 C 47.84727,74.877266 44.989407,79.443511 43.836245,78.367227 C 43.836245,78.367227 40.032273,81.627774 38.945424,81.627774 C 37.858575,81.627774 21.193557,87.967727 21.193557,87.967727 L 12.861047,92.315123 L 8.6947924,96.119094 L 45.487693,87.84229 L 51.62533,74.925538 L 47.459075,73.476406 z "
           id="path3343"
           sodipodi:nodetypes="ccscccccc" />
        <path
           d="M 62.979183,1.5579898 C 55.005489,2.0458866 47.210018,5.3364692 43.051753,11.813857 C 42.116962,13.269986 41.97364,14.264533 41.637543,15.758422 C 41.301466,17.25231 41.034797,19.059701 40.866161,21.01784 C 40.537873,24.829774 40.480029,29.225676 40.737605,33.903416 C 41.253162,43.266611 42.728921,52.534232 45.494475,58.096744 C 48.256887,63.652946 48.162986,71.815901 46.522979,74.663916 C 44.489121,78.195881 39.852345,81.279399 31.866681,83.604925 C 22.957506,86.199392 15.898754,88.720855 10.782173,93.334852 C 6.2524252,97.419658 3.3254595,102.14229 3.3254595,108.19271 L 3.3254595,117.13372 L 3.3254595,121.34126 L 7.4395127,121.34126 L 121.60438,121.34126 L 125.71844,121.34126 L 125.71844,117.13372 L 125.71844,108.19271 C 125.71845,102.14229 122.79147,97.419658 118.26172,93.334852 C 113.20197,88.772098 106.14367,86.084582 97.177223,83.473439 C 89.132412,81.130686 84.528867,78.150891 82.520916,74.663916 C 80.880909,71.815905 80.787018,63.652946 83.549429,58.096744 C 86.314994,52.534228 87.790743,43.266611 88.3063,33.903416 C 88.563866,29.225675 88.506013,24.829763 88.177734,21.01784 C 88.009108,19.059701 87.742449,17.25231 87.406352,15.758422 C 87.070265,14.264533 86.926933,13.269986 85.992152,11.813857 C 81.854475,5.3685676 74.036736,1.5579898 65.807592,1.5579898 L 63.236304,1.5579898 L 63.107748,1.5579898 L 62.979183,1.5579898 z "
           style="opacity:0.25819672;fill:url(#radialGradient2268);fill-opacity:1;stroke:none;stroke-width:2;stroke-miterlimit:4;stroke-dasharray:none;stroke-opacity:1"
           id="path1350" />
      </g>
    </g>
    <path
       sodipodi:nodetypes="ccccccccc"
       id="path2882"
       d="M 14.17358,57.943583 L 109.39297,48.371513 C 111.66549,48.143065 113.67889,49.788652 113.90734,52.061167 L 115.85839,71.46953 C 116.08684,73.742046 114.44126,75.755456 112.16875,75.983904 C 81.025356,85.107457 47.406291,87.091042 16.949356,85.555975 C 14.67684,85.784423 12.663429,84.138837 12.434981,81.866321 L 10.483927,62.457959 C 10.255479,60.185444 11.901064,58.172031 14.17358,57.943583 z "
       style="fill:url(#linearGradient2884);fill-opacity:1;fill-rule:nonzero;stroke:none;stroke-width:0.51849616;stroke-linecap:round;stroke-linejoin:round;stroke-miterlimit:4;stroke-dashoffset:4;stroke-opacity:1" />
    <rect
       style="opacity:0.53688528;fill:#00438a;fill-opacity:1;fill-rule:nonzero;stroke:none;stroke-width:0.69499999;stroke-linecap:round;stroke-linejoin:round;stroke-miterlimit:4;stroke-dasharray:none;stroke-dashoffset:4;stroke-opacity:1"
       id="rect2886"
       width="42.051414"
       height="5.7717624"
       x="59.866913"
       y="69.222649"
       rx="3.0629718"
       ry="3.0629718"
       transform="matrix(0.994985,-0.100022,0.100022,0.994985,0,0)" />
    <rect
       ry="3.0629718"
       rx="3.0629718"
       y="85.845444"
       x="59.866913"
       height="5.7717624"
       width="42.051414"
       id="rect2888"
       style="opacity:0.53688528;fill:#00438a;fill-opacity:1;fill-rule:nonzero;stroke:none;stroke-width:0.69499999;stroke-linecap:round;stroke-linejoin:round;stroke-miterlimit:4;stroke-dasharray:none;stroke-dashoffset:4;stroke-opacity:1"
       transform="matrix(0.994985,-0.100022,0.100022,0.994985,0,0)" />
    <rect
       style="opacity:0.53688528;fill:#00438a;fill-opacity:1;fill-rule:nonzero;stroke:none;stroke-width:0.69499999;stroke-linecap:round;stroke-linejoin:round;stroke-miterlimit:4;stroke-dasharray:none;stroke-dashoffset:4;stroke-opacity:1"
       id="rect2890"
       width="42.051414"
       height="5.7717624"
       x="59.866913"
       y="102.46825"
       rx="3.0629718"
       ry="3.0629718"
       transform="matrix(0.994985,-0.100022,0.100022,0.994985,0,0)" />
    <path
       sodipodi:type="arc"
       style="opacity:0.78278689;fill:black;fill-opacity:1;fill-rule:nonzero;stroke:none;stroke-width:0.69499999;stroke-linecap:round;stroke-linejoin:round;stroke-miterlimit:4;stroke-dasharray:none;stroke-dashoffset:4;stroke-opacity:1"
       id="path3003"
       sodipodi:cx="10.031299"
       sodipodi:cy="36.35041"
       sodipodi:rx="3.1917768"
       sodipodi:ry="3.1917768"
       d="M 13.223075 36.35041 A 3.1917768 3.1917768 0 1 1  6.8395219,36.35041 A 3.1917768 3.1917768 0 1 1  13.223075 36.35041 z"
       transform="matrix(0.676819,-6.803821e-2,6.803821e-2,0.676819,7.425377,39.54899)" />
    <path
       transform="matrix(0.676819,-6.803821e-2,6.803821e-2,0.676819,99.9657,30.74361)"
       d="M 13.223075 36.35041 A 3.1917768 3.1917768 0 1 1  6.8395219,36.35041 A 3.1917768 3.1917768 0 1 1  13.223075 36.35041 z"
       sodipodi:ry="3.1917768"
       sodipodi:rx="3.1917768"
       sodipodi:cy="36.35041"
       sodipodi:cx="10.031299"
       id="path3005"
       style="opacity:0.78278689;fill:black;fill-opacity:1;fill-rule:nonzero;stroke:none;stroke-width:0.69499999;stroke-linecap:round;stroke-linejoin:round;stroke-miterlimit:4;stroke-dasharray:none;stroke-dashoffset:4;stroke-opacity:1"
       sodipodi:type="arc" />
    <path
       style="fill:none;fill-opacity:0.75;fill-rule:evenodd;stroke:url(#linearGradient3017);stroke-width:2;stroke-linecap:round;stroke-linejoin:round;stroke-opacity:1;stroke-miterlimit:4;stroke-dasharray:none"
       d="M 17.055757,63.122435 C 20.412337,50.842456 50.472439,1.7755651 60.292192,1.2896726 C 71.138458,1.3343576 102.26858,40.621522 109.27684,54.456261"
       id="path3009"
       sodipodi:nodetypes="ccc" />
  </g>
</svg>
