<?xml version="1.0" encoding="UTF-8" standalone="no"?>
<!-- Created with Inkscape (http://www.inkscape.org/) -->
<svg
   xmlns:dc="http://purl.org/dc/elements/1.1/"
   xmlns:cc="http://web.resource.org/cc/"
   xmlns:rdf="http://www.w3.org/1999/02/22-rdf-syntax-ns#"
   xmlns:svg="http://www.w3.org/2000/svg"
   xmlns="http://www.w3.org/2000/svg"
   xmlns:xlink="http://www.w3.org/1999/xlink"
   xmlns:sodipodi="http://sodipodi.sourceforge.net/DTD/sodipodi-0.dtd"
   xmlns:inkscape="http://www.inkscape.org/namespaces/inkscape"
   width="128"
   height="128"
   id="svg2606"
   sodipodi:version="0.32"
   inkscape:version="0.45"
   version="1.0"
   sodipodi:docname="imagefoldeless.svg"
   inkscape:output_extension="org.inkscape.output.svg.inkscape"
   sodipodi:docbase="/home/pinheiro/pics/oxygen/scalable/mimetypes"
   inkscape:export-filename="/home/pinheiro/pics/oxygen/scalable/mimetypes/imagefoldeless16.png"
   inkscape:export-xdpi="11.25"
   inkscape:export-ydpi="11.25"
   sodipodi:modified="TRUE">
  <defs
     id="defs2608">
    <linearGradient
       inkscape:collect="always"
       xlink:href="#linearGradient4526"
       id="linearGradient4670"
       gradientUnits="userSpaceOnUse"
       gradientTransform="matrix(0.616893,0,0,0.359632,55.77949,-173.6434)"
       x1="322.5351"
       y1="671.36499"
       x2="305.54623"
       y2="703.1059" />
    <linearGradient
       inkscape:collect="always"
       xlink:href="#linearGradient4526"
       id="linearGradient4668"
       gradientUnits="userSpaceOnUse"
       gradientTransform="matrix(0.544849,0,0,0.407185,55.77949,-173.6434)"
       x1="388.85477"
       y1="581.20758"
       x2="355.6568"
       y2="561.59204" />
    <linearGradient
       inkscape:collect="always"
       xlink:href="#linearGradient4526"
       id="linearGradient4666"
       gradientUnits="userSpaceOnUse"
       gradientTransform="matrix(0.544849,0,0,0.407185,55.77949,-173.6434)"
       x1="391.99573"
       y1="490.36765"
       x2="343.76462"
       y2="472.65836" />
    <linearGradient
       inkscape:collect="always"
       xlink:href="#linearGradient4526"
       id="linearGradient4664"
       gradientUnits="userSpaceOnUse"
       gradientTransform="matrix(0.414913,0,0,0.534701,55.77949,-173.6434)"
       x1="336.97562"
       y1="514.06415"
       x2="402.90091"
       y2="491.13419" />
    <linearGradient
       id="linearGradient2797">
      <stop
         style="stop-color:#000000;stop-opacity:1.0000000;"
         offset="0.0000000"
         id="stop2799" />
      <stop
         style="stop-color:#484848;stop-opacity:1.0000000;"
         offset="1.0000000"
         id="stop2801" />
    </linearGradient>
    <linearGradient
       inkscape:collect="always"
       xlink:href="#linearGradient2797"
       id="linearGradient4662"
       gradientUnits="userSpaceOnUse"
       gradientTransform="matrix(0.470374,0,0,0.471655,55.77949,-173.6434)"
       x1="313.85675"
       y1="561.1123"
       x2="355.78586"
       y2="553.29712" />
    <linearGradient
       inkscape:collect="always"
       xlink:href="#linearGradient4526"
       id="linearGradient4660"
       gradientUnits="userSpaceOnUse"
       gradientTransform="matrix(0.616893,0,0,0.359632,55.77949,-173.6434)"
       x1="306.2883"
       y1="672.46191"
       x2="333.49854"
       y2="707.75031" />
    <linearGradient
       inkscape:collect="always"
       xlink:href="#linearGradient4526"
       id="linearGradient4658"
       gradientUnits="userSpaceOnUse"
       gradientTransform="matrix(0.544849,0,0,0.407185,55.77949,-173.6434)"
       x1="391.99573"
       y1="490.36765"
       x2="343.76462"
       y2="472.65836" />
    <linearGradient
       id="linearGradient4526">
      <stop
         id="stop4528"
         offset="0.0000000"
         style="stop-color:#ffffff;stop-opacity:0.69902915;" />
      <stop
         id="stop4530"
         offset="1.0000000"
         style="stop-color:#ffffff;stop-opacity:0.0000000;" />
    </linearGradient>
    <linearGradient
       inkscape:collect="always"
       xlink:href="#linearGradient4526"
       id="linearGradient4656"
       gradientUnits="userSpaceOnUse"
       gradientTransform="matrix(0.544849,0,0,0.407185,55.77949,-173.6434)"
       x1="388.85477"
       y1="581.20758"
       x2="355.6568"
       y2="561.59204" />
    <linearGradient
       id="linearGradient4255"
       inkscape:collect="always">
      <stop
         id="stop4257"
         offset="0"
         style="stop-color:#000000;stop-opacity:1;" />
      <stop
         id="stop4259"
         offset="1"
         style="stop-color:#000000;stop-opacity:0;" />
    </linearGradient>
    <linearGradient
       inkscape:collect="always"
       xlink:href="#linearGradient4255"
       id="linearGradient4654"
       gradientUnits="userSpaceOnUse"
       gradientTransform="matrix(0.44753,0,0,0.49573,55.77949,-173.6434)"
       x1="390.90793"
       y1="442.95132"
       x2="419.73016"
       y2="470.11917" />
    <linearGradient
       id="linearGradient4516">
      <stop
         id="stop4518"
         offset="0"
         style="stop-color:#62004f;stop-opacity:1;" />
      <stop
         style="stop-color:#8d2778;stop-opacity:1;"
         offset="0.14563107"
         id="stop7294" />
      <stop
         id="stop4520"
         offset="1"
         style="stop-color:#ff00bf;stop-opacity:1;" />
    </linearGradient>
    <linearGradient
       inkscape:collect="always"
       xlink:href="#linearGradient4516"
       id="linearGradient4652"
       gradientUnits="userSpaceOnUse"
       gradientTransform="matrix(0.480452,0,0,0.461761,55.77949,-173.6434)"
       x1="299.42841"
       y1="480.61096"
       x2="419.73056"
       y2="503.82071" />
    <linearGradient
       id="linearGradient2373">
      <stop
         id="stop2375"
         offset="0.0000000"
         style="stop-color:#083e20;stop-opacity:1.0000000;" />
      <stop
         id="stop2377"
         offset="1.0000000"
         style="stop-color:#245e3e;stop-opacity:1.0000000;" />
    </linearGradient>
    <linearGradient
       inkscape:collect="always"
       xlink:href="#linearGradient2373"
       id="linearGradient4650"
       gradientUnits="userSpaceOnUse"
       gradientTransform="matrix(0.852829,0,0,1.172568,-0.505078,0.252536)"
       x1="249.71024"
       y1="470.67639"
       x2="268.70541"
       y2="444.59937" />
    <linearGradient
       id="linearGradient2367">
      <stop
         id="stop2369"
         offset="0.0000000"
         style="stop-color:#957d16;stop-opacity:1.0000000;" />
      <stop
         id="stop2371"
         offset="1.0000000"
         style="stop-color:#927b16;stop-opacity:1.0000000;" />
    </linearGradient>
    <linearGradient
       inkscape:collect="always"
       xlink:href="#linearGradient2367"
       id="linearGradient4648"
       gradientUnits="userSpaceOnUse"
       gradientTransform="scale(0.852829,1.172568)"
       x1="249.71024"
       y1="470.67639"
       x2="268.70541"
       y2="444.59937" />
    <linearGradient
       id="linearGradient2330">
      <stop
         id="stop2332"
         offset="0.0000000"
         style="stop-color:#54250d;stop-opacity:1.0000000;" />
      <stop
         id="stop2344"
         offset="1.0000000"
         style="stop-color:#9f4f19;stop-opacity:1.0000000;" />
    </linearGradient>
    <linearGradient
       inkscape:collect="always"
       xlink:href="#linearGradient2330"
       id="linearGradient4646"
       gradientUnits="userSpaceOnUse"
       gradientTransform="matrix(0.852829,0,0,1.172568,-4.61104,-5.494924)"
       x1="249.71024"
       y1="470.67639"
       x2="268.70541"
       y2="444.59937" />
    <linearGradient
       id="linearGradient2307">
      <stop
         id="stop2309"
         offset="0"
         style="stop-color:#8a1e51;stop-opacity:1;" />
      <stop
         id="stop2311"
         offset="1.0000000"
         style="stop-color:#7e1b4a;stop-opacity:1.0000000;" />
    </linearGradient>
    <linearGradient
       inkscape:collect="always"
       xlink:href="#linearGradient2307"
       id="linearGradient4644"
       gradientUnits="userSpaceOnUse"
       gradientTransform="scale(0.852829,1.172568)"
       x1="249.71024"
       y1="470.67639"
       x2="285.55072"
       y2="455.34595" />
    <linearGradient
       id="linearGradient4498">
      <stop
         id="stop4500"
         offset="0.0000000"
         style="stop-color:#1a3b23;stop-opacity:1.0000000;" />
      <stop
         id="stop4510"
         offset="0.34000000"
         style="stop-color:#255431;stop-opacity:1.0000000;" />
      <stop
         id="stop4508"
         offset="0.42000002"
         style="stop-color:#306d40;stop-opacity:1.0000000;" />
      <stop
         id="stop4506"
         offset="0.62000000"
         style="stop-color:#58c977;stop-opacity:1.0000000;" />
      <stop
         id="stop4504"
         offset="0.63999999"
         style="stop-color:#2f6a3f;stop-opacity:1.0000000;" />
      <stop
         id="stop4502"
         offset="1.0000000"
         style="stop-color:#86ffa7;stop-opacity:1.0000000;" />
    </linearGradient>
    <linearGradient
       inkscape:collect="always"
       xlink:href="#linearGradient4498"
       id="linearGradient4642"
       gradientUnits="userSpaceOnUse"
       gradientTransform="matrix(0.402062,0,0,0.551792,55.77949,-173.6434)"
       x1="410.68747"
       y1="351.94495"
       x2="496.01123"
       y2="446.42474" />
    <linearGradient
       id="linearGradient4472">
      <stop
         id="stop4474"
         offset="0.0000000"
         style="stop-color:#6a5000;stop-opacity:1.0000000;" />
      <stop
         id="stop4486"
         offset="0.36499998"
         style="stop-color:#b49b1d;stop-opacity:1.0000000;" />
      <stop
         id="stop4484"
         offset="0.47000000"
         style="stop-color:#ffe63b;stop-opacity:1.0000000;" />
      <stop
         id="stop4480"
         offset="0.62000000"
         style="stop-color:#fde55f;stop-opacity:1.0000000;" />
      <stop
         id="stop4482"
         offset="0.65999997"
         style="stop-color:#af8800;stop-opacity:1.0000000;" />
      <stop
         id="stop4476"
         offset="1.0000000"
         style="stop-color:#fcff96;stop-opacity:1.0000000;" />
    </linearGradient>
    <linearGradient
       inkscape:collect="always"
       xlink:href="#linearGradient4472"
       id="linearGradient4640"
       gradientUnits="userSpaceOnUse"
       gradientTransform="matrix(0.410011,0,0,0.541094,55.77949,-173.6434)"
       x1="407.20193"
       y1="340.1315"
       x2="509.36542"
       y2="443.40552" />
    <linearGradient
       id="linearGradient4440">
      <stop
         id="stop4442"
         offset="0.0000000"
         style="stop-color:#7c2b00;stop-opacity:1.0000000;" />
      <stop
         id="stop4458"
         offset="0.35250002"
         style="stop-color:#a56116;stop-opacity:1.0000000;" />
      <stop
         id="stop4456"
         offset="0.42500001"
         style="stop-color:#cf982c;stop-opacity:1.0000000;" />
      <stop
         id="stop4452"
         offset="0.61000001"
         style="stop-color:#ffdb59;stop-opacity:1.0000000;" />
      <stop
         id="stop4448"
         offset="0.63999999"
         style="stop-color:#d07100;stop-opacity:1.0000000;" />
      <stop
         id="stop4444"
         offset="1.0000000"
         style="stop-color:#fff77c;stop-opacity:1.0000000;" />
    </linearGradient>
    <linearGradient
       inkscape:collect="always"
       xlink:href="#linearGradient4440"
       id="linearGradient4638"
       gradientUnits="userSpaceOnUse"
       gradientTransform="matrix(0.395673,0,0,0.560701,55.96081,-173.4701)"
       x1="426.25494"
       y1="315.43689"
       x2="542.82642"
       y2="426.81122" />
    <linearGradient
       id="linearGradient4402">
      <stop
         id="stop4404"
         offset="0.0000000"
         style="stop-color:#540d0d;stop-opacity:1.0000000;" />
      <stop
         id="stop4462"
         offset="0.34999999"
         style="stop-color:#7e2316;stop-opacity:1.0000000;" />
      <stop
         id="stop4460"
         offset="0.43000001"
         style="stop-color:#a93a1f;stop-opacity:1.0000000;" />
      <stop
         id="stop4410"
         offset="0.62000000"
         style="stop-color:#ff6731;stop-opacity:1.0000000;" />
      <stop
         id="stop4412"
         offset="0.66000003"
         style="stop-color:#9f2819;stop-opacity:1.0000000;" />
      <stop
         id="stop4436"
         offset="0.77000004"
         style="stop-color:#e1734d;stop-opacity:1.0000000;" />
      <stop
         id="stop4406"
         offset="1.0000000"
         style="stop-color:#ffb47c;stop-opacity:1.0000000;" />
    </linearGradient>
    <linearGradient
       inkscape:collect="always"
       xlink:href="#linearGradient4402"
       id="linearGradient4636"
       gradientUnits="userSpaceOnUse"
       gradientTransform="matrix(0.400366,0,0,0.554129,55.74058,-173.7136)"
       x1="438.62411"
       y1="302.29001"
       x2="560.68457"
       y2="400.81851" />
    <linearGradient
       id="linearGradient4352">
      <stop
         id="stop4354"
         offset="0.0000000"
         style="stop-color:#833c0b;stop-opacity:1.0000000;" />
      <stop
         id="stop4356"
         offset="1.0000000"
         style="stop-color:#723409;stop-opacity:1.0000000;" />
    </linearGradient>
    <linearGradient
       inkscape:collect="always"
       xlink:href="#linearGradient4352"
       id="linearGradient4633"
       gradientUnits="userSpaceOnUse"
       gradientTransform="matrix(0.476543,0,0,0.46555,55.77949,-173.6434)"
       x1="178.40228"
       y1="433.92719"
       x2="274.36346"
       y2="433.92719" />
    <linearGradient
       id="linearGradient4392">
      <stop
         id="stop4394"
         offset="0.0000000"
         style="stop-color:#214b2c;stop-opacity:1.0000000;" />
      <stop
         id="stop4396"
         offset="1.0000000"
         style="stop-color:#1a3b23;stop-opacity:1.0000000;" />
    </linearGradient>
    <linearGradient
       inkscape:collect="always"
       xlink:href="#linearGradient4392"
       id="linearGradient4631"
       gradientUnits="userSpaceOnUse"
       gradientTransform="matrix(0.534168,0,0,0.415327,55.82726,-173.6161)"
       x1="170.54399"
       y1="569.89191"
       x2="233.7466"
       y2="533.10059" />
    <linearGradient
       id="linearGradient4360">
      <stop
         id="stop4362"
         offset="0"
         style="stop-color:#83190b;stop-opacity:1;" />
      <stop
         id="stop4364"
         offset="1.0000000"
         style="stop-color:#721509;stop-opacity:1.0000000;" />
    </linearGradient>
    <linearGradient
       inkscape:collect="always"
       xlink:href="#linearGradient4360"
       id="linearGradient4629"
       gradientUnits="userSpaceOnUse"
       gradientTransform="matrix(0.465924,0,0,0.47616,55.77949,-173.6434)"
       x1="177.6402"
       y1="411.45197"
       x2="275.48526"
       y2="411.45197" />
    <linearGradient
       id="linearGradient4382">
      <stop
         id="stop4384"
         offset="0.0000000"
         style="stop-color:#7e5c08;stop-opacity:1.0000000;" />
      <stop
         id="stop4386"
         offset="1.0000000"
         style="stop-color:#6e4b11;stop-opacity:1.0000000;" />
    </linearGradient>
    <linearGradient
       inkscape:collect="always"
       xlink:href="#linearGradient4382"
       id="linearGradient4627"
       gradientUnits="userSpaceOnUse"
       gradientTransform="matrix(0.484895,0,0,0.457531,55.82726,-173.6161)"
       x1="185.36516"
       y1="498.74353"
       x2="246.5347"
       y2="442.2757" />
    <linearGradient
       id="linearGradient4321">
      <stop
         id="stop4323"
         offset="0.0000000"
         style="stop-color:#b20033;stop-opacity:1.0000000;" />
      <stop
         id="stop4337"
         offset="0.46000001"
         style="stop-color:#ff7cba;stop-opacity:1.0000000;" />
      <stop
         id="stop4339"
         offset="0.55000001"
         style="stop-color:#9c225b;stop-opacity:1.0000000;" />
      <stop
         id="stop4325"
         offset="1.0000000"
         style="stop-color:#ff7ca1;stop-opacity:1.0000000;" />
    </linearGradient>
    <linearGradient
       inkscape:collect="always"
       xlink:href="#linearGradient4321"
       id="linearGradient4625"
       gradientUnits="userSpaceOnUse"
       gradientTransform="matrix(0.310584,0,0,0.714313,55.77949,-173.6434)"
       x1="683.10022"
       y1="231.87573"
       x2="720.63422"
       y2="271.91464" />
    <linearGradient
       id="linearGradient4368">
      <stop
         id="stop4370"
         offset="0"
         style="stop-color:#8a1e51;stop-opacity:1;" />
      <stop
         id="stop4372"
         offset="1.0000000"
         style="stop-color:#7e1b4a;stop-opacity:1.0000000;" />
    </linearGradient>
    <linearGradient
       inkscape:collect="always"
       xlink:href="#linearGradient4368"
       id="linearGradient4623"
       gradientUnits="userSpaceOnUse"
       gradientTransform="matrix(0.441119,0,0,0.502935,55.77949,-173.6434)"
       x1="185.72665"
       y1="378.45386"
       x2="266.98257"
       y2="378.45386" />
    <linearGradient
       id="linearGradient4273">
      <stop
         id="stop4275"
         offset="0.0000000"
         style="stop-color:#590012;stop-opacity:1.0000000;" />
      <stop
         id="stop4466"
         offset="0.93000001"
         style="stop-color:#a3211f;stop-opacity:1.0000000;" />
      <stop
         id="stop4468"
         offset="0.94000000"
         style="stop-color:#650014;stop-opacity:1.0000000;" />
      <stop
         id="stop4277"
         offset="1.0000000"
         style="stop-color:#ee6c68;stop-opacity:1.0000000;" />
    </linearGradient>
    <linearGradient
       inkscape:collect="always"
       xlink:href="#linearGradient4273"
       id="linearGradient4621"
       gradientUnits="userSpaceOnUse"
       gradientTransform="matrix(0.811924,0,0,0.273245,55.77949,-173.6434)"
       x1="105.41402"
       y1="673.69873"
       x2="274.53336"
       y2="691.37091" />
    <linearGradient
       id="linearGradient2441">
      <stop
         id="stop2443"
         offset="0.0000000"
         style="stop-color:#b0e9c0;stop-opacity:1.0000000;" />
      <stop
         id="stop2445"
         offset="1.0000000"
         style="stop-color:#75df92;stop-opacity:1.0000000;" />
    </linearGradient>
    <linearGradient
       inkscape:collect="always"
       xlink:href="#linearGradient2441"
       id="linearGradient4619"
       gradientUnits="userSpaceOnUse"
       gradientTransform="scale(0.852829,1.172568)"
       x1="273.20914"
       y1="455.33145"
       x2="276.42776"
       y2="474.10953" />
    <linearGradient
       id="linearGradient2447">
      <stop
         id="stop2449"
         offset="0.0000000"
         style="stop-color:#ffd625;stop-opacity:1.0000000;" />
      <stop
         id="stop2451"
         offset="1.0000000"
         style="stop-color:#fff0ab;stop-opacity:1.0000000;" />
    </linearGradient>
    <linearGradient
       inkscape:collect="always"
       xlink:href="#linearGradient2447"
       id="linearGradient4617"
       gradientUnits="userSpaceOnUse"
       gradientTransform="scale(0.852829,1.172568)"
       x1="269.87866"
       y1="468.31586"
       x2="274.6358"
       y2="450.71976" />
    <linearGradient
       id="linearGradient2453">
      <stop
         id="stop2455"
         offset="0.0000000"
         style="stop-color:#f6b94e;stop-opacity:1.0000000;" />
      <stop
         id="stop2457"
         offset="1.0000000"
         style="stop-color:#ffc340;stop-opacity:1.0000000;" />
    </linearGradient>
    <linearGradient
       inkscape:collect="always"
       xlink:href="#linearGradient2453"
       id="linearGradient4615"
       gradientUnits="userSpaceOnUse"
       gradientTransform="scale(0.852829,1.172568)"
       x1="262.95721"
       y1="463.82385"
       x2="271.31601"
       y2="446.71695" />
    <linearGradient
       id="linearGradient2463">
      <stop
         id="stop2465"
         offset="0.0000000"
         style="stop-color:#fda5cf;stop-opacity:1.0000000;" />
      <stop
         id="stop2467"
         offset="1.0000000"
         style="stop-color:#ce2c79;stop-opacity:1.0000000;" />
    </linearGradient>
    <linearGradient
       inkscape:collect="always"
       xlink:href="#linearGradient2463"
       id="linearGradient4613"
       gradientUnits="userSpaceOnUse"
       gradientTransform="scale(0.852829,1.172568)"
       x1="258.13016"
       y1="442.66943"
       x2="247.02499"
       y2="456.03308" />
    <linearGradient
       id="linearGradient2469">
      <stop
         id="stop2471"
         offset="0.0000000"
         style="stop-color:#f6754e;stop-opacity:1.0000000;" />
      <stop
         id="stop2473"
         offset="1.0000000"
         style="stop-color:#ffa879;stop-opacity:1.0000000;" />
    </linearGradient>
    <linearGradient
       inkscape:collect="always"
       xlink:href="#linearGradient2469"
       id="linearGradient4611"
       gradientUnits="userSpaceOnUse"
       gradientTransform="matrix(0.852829,0,0,1.172568,-12.28101,22.44028)"
       x1="257.99484"
       y1="431.38104"
       x2="274.71591"
       y2="420.00296" />
    <linearGradient
       id="linearGradient2785">
      <stop
         style="stop-color:#000000;stop-opacity:0.0000000;"
         offset="0.0000000"
         id="stop2787" />
      <stop
         style="stop-color:#000000;stop-opacity:0.49803922;"
         offset="0.36000001"
         id="stop2793" />
      <stop
         style="stop-color:#000000;stop-opacity:0;"
         offset="1"
         id="stop2789" />
    </linearGradient>
    <linearGradient
       inkscape:collect="always"
       xlink:href="#linearGradient2785"
       id="linearGradient4609"
       gradientUnits="userSpaceOnUse"
       gradientTransform="matrix(0.453732,0,0,0.488954,57.57699,-173.4241)"
       x1="277.5726"
       y1="521.61127"
       x2="316.56882"
       y2="527.43481" />
    <linearGradient
       id="linearGradient2713">
      <stop
         id="stop2715"
         offset="0.0000000"
         style="stop-color:#b20033;stop-opacity:1.0000000;" />
      <stop
         id="stop2721"
         offset="1.0000000"
         style="stop-color:#ffe77c;stop-opacity:1.0000000;" />
    </linearGradient>
    <linearGradient
       inkscape:collect="always"
       xlink:href="#linearGradient2713"
       id="linearGradient4607"
       gradientUnits="userSpaceOnUse"
       gradientTransform="scale(0.625932,1.597617)"
       x1="542.85187"
       y1="330.59"
       x2="554.73236"
       y2="359.37115" />
    <linearGradient
       inkscape:collect="always"
       xlink:href="#linearGradient2823"
       id="linearGradient4605"
       gradientUnits="userSpaceOnUse"
       gradientTransform="scale(1.121629,0.891561)"
       x1="229.5614"
       y1="692.33807"
       x2="276.19287"
       y2="715.24652" />
    <linearGradient
       inkscape:collect="always"
       xlink:href="#linearGradient2823"
       id="linearGradient4603"
       gradientUnits="userSpaceOnUse"
       gradientTransform="scale(1.121629,0.891561)"
       x1="229.5614"
       y1="692.33807"
       x2="276.19287"
       y2="715.24652" />
    <linearGradient
       inkscape:collect="always"
       xlink:href="#linearGradient2823"
       id="linearGradient4601"
       gradientUnits="userSpaceOnUse"
       gradientTransform="scale(1.121629,0.891561)"
       x1="229.5614"
       y1="692.33807"
       x2="276.19287"
       y2="715.24652" />
    <linearGradient
       inkscape:collect="always"
       xlink:href="#linearGradient2823"
       id="linearGradient4599"
       gradientUnits="userSpaceOnUse"
       gradientTransform="scale(1.121629,0.891561)"
       x1="229.5614"
       y1="692.33807"
       x2="276.19287"
       y2="715.24652" />
    <linearGradient
       inkscape:collect="always"
       xlink:href="#linearGradient2823"
       id="linearGradient4597"
       gradientUnits="userSpaceOnUse"
       gradientTransform="scale(1.121629,0.891561)"
       x1="229.5614"
       y1="692.33807"
       x2="276.19287"
       y2="715.24652" />
    <linearGradient
       id="linearGradient2823">
      <stop
         style="stop-color:#4d3719;stop-opacity:1;"
         offset="0"
         id="stop2825" />
      <stop
         style="stop-color:#ddae66;stop-opacity:1;"
         offset="0.69999999"
         id="stop2866" />
      <stop
         style="stop-color:#b2731c;stop-opacity:1;"
         offset="1"
         id="stop2827" />
    </linearGradient>
    <linearGradient
       inkscape:collect="always"
       xlink:href="#linearGradient2823"
       id="linearGradient4595"
       gradientUnits="userSpaceOnUse"
       gradientTransform="scale(1.121629,0.891561)"
       x1="261.13171"
       y1="710.77112"
       x2="267.06235"
       y2="710.77136" />
    <linearGradient
       id="linearGradient3185">
      <stop
         id="stop3187"
         offset="0"
         style="stop-color:#50a3f7;stop-opacity:1;" />
      <stop
         id="stop3189"
         offset="1"
         style="stop-color:#002ea8;stop-opacity:1;" />
    </linearGradient>
    <linearGradient
       inkscape:collect="always"
       xlink:href="#linearGradient3185"
       id="linearGradient5341"
       gradientUnits="userSpaceOnUse"
       gradientTransform="matrix(1.3457951,0,0,2.1229785,538.33426,-11.05243)"
       x1="-263.28992"
       y1="56.713814"
       x2="-263.14236"
       y2="8.8705559" />
    <linearGradient
       id="linearGradient10207">
      <stop
         style="stop-color:#a2a2a2;stop-opacity:1;"
         offset="0"
         id="stop10209" />
      <stop
         style="stop-color:#ffffff;stop-opacity:1;"
         offset="1"
         id="stop10211" />
    </linearGradient>
    <linearGradient
       id="XMLID_12_"
       gradientUnits="userSpaceOnUse"
       x1="96"
       y1="104"
       x2="88.000198"
       y2="96.000198">
      <stop
         offset="0"
         style="stop-color:#888A85"
         id="stop83" />
      <stop
         offset="0.0072"
         style="stop-color:#8C8E89"
         id="stop85" />
      <stop
         offset="0.0673"
         style="stop-color:#ABACA9"
         id="stop87" />
      <stop
         offset="0.1347"
         style="stop-color:#C5C6C4"
         id="stop89" />
      <stop
         offset="0.2652576"
         style="stop-color:#DBDBDA"
         id="stop91" />
      <stop
         offset="0.37646064"
         style="stop-color:#EBEBEB"
         id="stop93" />
      <stop
         offset="0.48740286"
         style="stop-color:#F7F7F6"
         id="stop95" />
      <stop
         offset="0.6324091"
         style="stop-color:#FDFDFD"
         id="stop97" />
      <stop
         offset="1"
         style="stop-color:#FFFFFF"
         id="stop99" />
    </linearGradient>
    <radialGradient
       id="XMLID_8_"
       cx="102"
       cy="112.3047"
       r="139.55859"
       gradientUnits="userSpaceOnUse">
      <stop
         offset="0"
         style="stop-color:#b7b8b9;stop-opacity:1;"
         id="stop41" />
      <stop
         offset="0.18851049"
         style="stop-color:#ECECEC"
         id="stop47" />
      <stop
         offset="0.25718147"
         style="stop-color:#FAFAFA"
         id="stop49" />
      <stop
         offset="0.30111277"
         style="stop-color:#FFFFFF"
         id="stop51" />
      <stop
         offset="0.5313"
         style="stop-color:#FAFAFA"
         id="stop53" />
      <stop
         offset="0.8449"
         style="stop-color:#EBECEC"
         id="stop55" />
      <stop
         offset="1"
         style="stop-color:#E1E2E3"
         id="stop57" />
    </radialGradient>
    <clipPath
       clipPathUnits="userSpaceOnUse"
       id="clipPath7084">
      <path
         style="fill:#000000;fill-opacity:1;fill-rule:evenodd;stroke:none;stroke-width:1px;stroke-linecap:butt;stroke-linejoin:miter;stroke-opacity:1"
         d="M 72,88 L 40,120 L 32,120 L 32,80 L 72,80 L 72,88 z"
         id="path7086" />
    </clipPath>
    <radialGradient
       inkscape:collect="always"
       xlink:href="#XMLID_8_"
       id="radialGradient9437"
       gradientUnits="userSpaceOnUse"
       gradientTransform="matrix(1,0,0,0.9996653,2e-6,3.0160848e-3)"
       cx="113.66726"
       cy="127.51259"
       r="139.55859"
       fx="113.66726"
       fy="127.51259" />
    <filter
       inkscape:collect="always"
       id="filter2770">
      <feGaussianBlur
         inkscape:collect="always"
         stdDeviation="2.0786429"
         id="feGaussianBlur2772" />
    </filter>
    <linearGradient
       inkscape:collect="always"
       xlink:href="#linearGradient3185"
       id="linearGradient4882"
       gradientUnits="userSpaceOnUse"
       gradientTransform="matrix(1.3457951,0,0,2.1229785,538.33426,-11.05243)"
       x1="-263.28992"
       y1="70.346497"
       x2="-263.28992"
       y2="-13.123501" />
    <linearGradient
       inkscape:collect="always"
       xlink:href="#linearGradient2823"
       id="linearGradient4884"
       gradientUnits="userSpaceOnUse"
       gradientTransform="scale(1.121629,0.891561)"
       x1="261.13171"
       y1="710.77112"
       x2="267.06235"
       y2="710.77136" />
    <linearGradient
       inkscape:collect="always"
       xlink:href="#linearGradient2823"
       id="linearGradient4886"
       gradientUnits="userSpaceOnUse"
       gradientTransform="scale(1.121629,0.891561)"
       x1="229.5614"
       y1="692.33807"
       x2="276.19287"
       y2="715.24652" />
    <linearGradient
       inkscape:collect="always"
       xlink:href="#linearGradient2823"
       id="linearGradient4888"
       gradientUnits="userSpaceOnUse"
       gradientTransform="scale(1.121629,0.891561)"
       x1="229.5614"
       y1="692.33807"
       x2="276.19287"
       y2="715.24652" />
    <linearGradient
       inkscape:collect="always"
       xlink:href="#linearGradient2823"
       id="linearGradient4890"
       gradientUnits="userSpaceOnUse"
       gradientTransform="scale(1.121629,0.891561)"
       x1="229.5614"
       y1="692.33807"
       x2="276.19287"
       y2="715.24652" />
    <linearGradient
       inkscape:collect="always"
       xlink:href="#linearGradient2823"
       id="linearGradient4892"
       gradientUnits="userSpaceOnUse"
       gradientTransform="scale(1.121629,0.891561)"
       x1="229.5614"
       y1="692.33807"
       x2="276.19287"
       y2="715.24652" />
    <linearGradient
       inkscape:collect="always"
       xlink:href="#linearGradient2823"
       id="linearGradient4894"
       gradientUnits="userSpaceOnUse"
       gradientTransform="scale(1.121629,0.891561)"
       x1="229.5614"
       y1="692.33807"
       x2="276.19287"
       y2="715.24652" />
    <linearGradient
       inkscape:collect="always"
       xlink:href="#linearGradient2713"
       id="linearGradient4896"
       gradientUnits="userSpaceOnUse"
       gradientTransform="scale(0.625932,1.597617)"
       x1="542.85187"
       y1="330.59"
       x2="554.73236"
       y2="359.37115" />
    <linearGradient
       inkscape:collect="always"
       xlink:href="#linearGradient2785"
       id="linearGradient4898"
       gradientUnits="userSpaceOnUse"
       gradientTransform="matrix(0.453732,0,0,0.488954,57.57699,-173.4241)"
       x1="277.5726"
       y1="521.61127"
       x2="316.56882"
       y2="527.43481" />
    <linearGradient
       inkscape:collect="always"
       xlink:href="#linearGradient2469"
       id="linearGradient4900"
       gradientUnits="userSpaceOnUse"
       gradientTransform="matrix(0.852829,0,0,1.172568,-12.28101,22.44028)"
       x1="257.99484"
       y1="431.38104"
       x2="274.71591"
       y2="420.00296" />
    <linearGradient
       inkscape:collect="always"
       xlink:href="#linearGradient2463"
       id="linearGradient4902"
       gradientUnits="userSpaceOnUse"
       gradientTransform="scale(0.852829,1.172568)"
       x1="258.13016"
       y1="442.66943"
       x2="247.02499"
       y2="456.03308" />
    <linearGradient
       inkscape:collect="always"
       xlink:href="#linearGradient2453"
       id="linearGradient4904"
       gradientUnits="userSpaceOnUse"
       gradientTransform="scale(0.852829,1.172568)"
       x1="262.95721"
       y1="463.82385"
       x2="271.31601"
       y2="446.71695" />
    <linearGradient
       inkscape:collect="always"
       xlink:href="#linearGradient2447"
       id="linearGradient4906"
       gradientUnits="userSpaceOnUse"
       gradientTransform="scale(0.852829,1.172568)"
       x1="269.87866"
       y1="468.31586"
       x2="274.6358"
       y2="450.71976" />
    <linearGradient
       inkscape:collect="always"
       xlink:href="#linearGradient2441"
       id="linearGradient4908"
       gradientUnits="userSpaceOnUse"
       gradientTransform="scale(0.852829,1.172568)"
       x1="273.20914"
       y1="455.33145"
       x2="276.42776"
       y2="474.10953" />
    <linearGradient
       inkscape:collect="always"
       xlink:href="#linearGradient4273"
       id="linearGradient4910"
       gradientUnits="userSpaceOnUse"
       gradientTransform="matrix(0.811924,0,0,0.273245,55.77949,-173.6434)"
       x1="105.41402"
       y1="673.69873"
       x2="274.53336"
       y2="691.37091" />
    <linearGradient
       inkscape:collect="always"
       xlink:href="#linearGradient4368"
       id="linearGradient4912"
       gradientUnits="userSpaceOnUse"
       gradientTransform="matrix(0.441119,0,0,0.502935,55.77949,-173.6434)"
       x1="185.72665"
       y1="378.45386"
       x2="266.98257"
       y2="378.45386" />
    <linearGradient
       inkscape:collect="always"
       xlink:href="#linearGradient4321"
       id="linearGradient4914"
       gradientUnits="userSpaceOnUse"
       gradientTransform="matrix(0.310584,0,0,0.714313,55.77949,-173.6434)"
       x1="683.10022"
       y1="231.87573"
       x2="720.63422"
       y2="271.91464" />
    <linearGradient
       inkscape:collect="always"
       xlink:href="#linearGradient4382"
       id="linearGradient4916"
       gradientUnits="userSpaceOnUse"
       gradientTransform="matrix(0.484895,0,0,0.457531,55.82726,-173.6161)"
       x1="185.36516"
       y1="498.74353"
       x2="246.5347"
       y2="442.2757" />
    <linearGradient
       inkscape:collect="always"
       xlink:href="#linearGradient4360"
       id="linearGradient4918"
       gradientUnits="userSpaceOnUse"
       gradientTransform="matrix(0.465924,0,0,0.47616,55.77949,-173.6434)"
       x1="177.6402"
       y1="411.45197"
       x2="275.48526"
       y2="411.45197" />
    <linearGradient
       inkscape:collect="always"
       xlink:href="#linearGradient4392"
       id="linearGradient4920"
       gradientUnits="userSpaceOnUse"
       gradientTransform="matrix(0.534168,0,0,0.415327,55.82726,-173.6161)"
       x1="170.54399"
       y1="569.89191"
       x2="233.7466"
       y2="533.10059" />
    <linearGradient
       inkscape:collect="always"
       xlink:href="#linearGradient4352"
       id="linearGradient4922"
       gradientUnits="userSpaceOnUse"
       gradientTransform="matrix(0.476543,0,0,0.46555,55.77949,-173.6434)"
       x1="178.40228"
       y1="433.92719"
       x2="274.36346"
       y2="433.92719" />
    <linearGradient
       inkscape:collect="always"
       xlink:href="#linearGradient4402"
       id="linearGradient4924"
       gradientUnits="userSpaceOnUse"
       gradientTransform="matrix(0.400366,0,0,0.554129,55.74058,-173.7136)"
       x1="438.62411"
       y1="302.29001"
       x2="560.68457"
       y2="400.81851" />
    <linearGradient
       inkscape:collect="always"
       xlink:href="#linearGradient4440"
       id="linearGradient4926"
       gradientUnits="userSpaceOnUse"
       gradientTransform="matrix(0.395673,0,0,0.560701,55.96081,-173.4701)"
       x1="426.25494"
       y1="315.43689"
       x2="542.82642"
       y2="426.81122" />
    <linearGradient
       inkscape:collect="always"
       xlink:href="#linearGradient4472"
       id="linearGradient4928"
       gradientUnits="userSpaceOnUse"
       gradientTransform="matrix(0.410011,0,0,0.541094,55.77949,-173.6434)"
       x1="407.20193"
       y1="340.1315"
       x2="509.36542"
       y2="443.40552" />
    <linearGradient
       inkscape:collect="always"
       xlink:href="#linearGradient4498"
       id="linearGradient4930"
       gradientUnits="userSpaceOnUse"
       gradientTransform="matrix(0.402062,0,0,0.551792,55.77949,-173.6434)"
       x1="410.68747"
       y1="351.94495"
       x2="496.01123"
       y2="446.42474" />
    <linearGradient
       inkscape:collect="always"
       xlink:href="#linearGradient2307"
       id="linearGradient4932"
       gradientUnits="userSpaceOnUse"
       gradientTransform="scale(0.852829,1.172568)"
       x1="249.71024"
       y1="470.67639"
       x2="285.55072"
       y2="455.34595" />
    <linearGradient
       inkscape:collect="always"
       xlink:href="#linearGradient2330"
       id="linearGradient4934"
       gradientUnits="userSpaceOnUse"
       gradientTransform="matrix(0.852829,0,0,1.172568,-4.61104,-5.494924)"
       x1="249.71024"
       y1="470.67639"
       x2="268.70541"
       y2="444.59937" />
    <linearGradient
       inkscape:collect="always"
       xlink:href="#linearGradient2367"
       id="linearGradient4936"
       gradientUnits="userSpaceOnUse"
       gradientTransform="scale(0.852829,1.172568)"
       x1="249.71024"
       y1="470.67639"
       x2="268.70541"
       y2="444.59937" />
    <linearGradient
       inkscape:collect="always"
       xlink:href="#linearGradient2373"
       id="linearGradient4938"
       gradientUnits="userSpaceOnUse"
       gradientTransform="matrix(0.852829,0,0,1.172568,-0.505078,0.252536)"
       x1="249.71024"
       y1="470.67639"
       x2="268.70541"
       y2="444.59937" />
    <linearGradient
       inkscape:collect="always"
       xlink:href="#linearGradient4516"
       id="linearGradient4940"
       gradientUnits="userSpaceOnUse"
       gradientTransform="matrix(0.480452,0,0,0.461761,55.77949,-173.6434)"
       x1="299.42841"
       y1="480.61096"
       x2="419.73056"
       y2="503.82071" />
    <linearGradient
       inkscape:collect="always"
       xlink:href="#linearGradient4255"
       id="linearGradient4942"
       gradientUnits="userSpaceOnUse"
       gradientTransform="matrix(0.44753,0,0,0.49573,55.77949,-173.6434)"
       x1="390.90793"
       y1="442.95132"
       x2="419.73016"
       y2="470.11917" />
    <linearGradient
       inkscape:collect="always"
       xlink:href="#linearGradient4526"
       id="linearGradient4944"
       gradientUnits="userSpaceOnUse"
       gradientTransform="matrix(0.544849,0,0,0.407185,55.77949,-173.6434)"
       x1="388.85477"
       y1="581.20758"
       x2="355.6568"
       y2="561.59204" />
    <linearGradient
       inkscape:collect="always"
       xlink:href="#linearGradient4526"
       id="linearGradient4946"
       gradientUnits="userSpaceOnUse"
       gradientTransform="matrix(0.544849,0,0,0.407185,55.77949,-173.6434)"
       x1="391.99573"
       y1="490.36765"
       x2="343.76462"
       y2="472.65836" />
    <linearGradient
       inkscape:collect="always"
       xlink:href="#linearGradient4526"
       id="linearGradient4948"
       gradientUnits="userSpaceOnUse"
       gradientTransform="matrix(0.616893,0,0,0.359632,55.77949,-173.6434)"
       x1="306.2883"
       y1="672.46191"
       x2="333.49854"
       y2="707.75031" />
    <linearGradient
       inkscape:collect="always"
       xlink:href="#linearGradient2797"
       id="linearGradient4950"
       gradientUnits="userSpaceOnUse"
       gradientTransform="matrix(0.470374,0,0,0.471655,55.77949,-173.6434)"
       x1="313.85675"
       y1="561.1123"
       x2="355.78586"
       y2="553.29712" />
    <linearGradient
       inkscape:collect="always"
       xlink:href="#linearGradient4526"
       id="linearGradient4952"
       gradientUnits="userSpaceOnUse"
       gradientTransform="matrix(0.414913,0,0,0.534701,55.77949,-173.6434)"
       x1="336.97562"
       y1="514.06415"
       x2="402.90091"
       y2="491.13419" />
    <linearGradient
       inkscape:collect="always"
       xlink:href="#linearGradient4526"
       id="linearGradient4954"
       gradientUnits="userSpaceOnUse"
       gradientTransform="matrix(0.544849,0,0,0.407185,55.77949,-173.6434)"
       x1="391.99573"
       y1="490.36765"
       x2="343.76462"
       y2="472.65836" />
    <linearGradient
       inkscape:collect="always"
       xlink:href="#linearGradient4526"
       id="linearGradient4956"
       gradientUnits="userSpaceOnUse"
       gradientTransform="matrix(0.544849,0,0,0.407185,55.77949,-173.6434)"
       x1="388.85477"
       y1="581.20758"
       x2="355.6568"
       y2="561.59204" />
    <linearGradient
       inkscape:collect="always"
       xlink:href="#linearGradient4526"
       id="linearGradient4958"
       gradientUnits="userSpaceOnUse"
       gradientTransform="matrix(0.616893,0,0,0.359632,55.77949,-173.6434)"
       x1="322.5351"
       y1="671.36499"
       x2="305.54623"
       y2="703.1059" />
  </defs>
  <sodipodi:namedview
     id="base"
     pagecolor="#ffffff"
     bordercolor="#666666"
     borderopacity="1.0"
     inkscape:pageopacity="0.0"
     inkscape:pageshadow="2"
     inkscape:zoom="2.8284271"
     inkscape:cx="65.761149"
     inkscape:cy="69.386486"
     inkscape:document-units="px"
     inkscape:current-layer="layer1"
     width="128px"
     height="128px"
     gridspacingx="4px"
     gridspacingy="4px"
     gridempspacing="2"
     showgrid="true"
     inkscape:grid-points="true"
     showguides="true"
     inkscape:guide-bbox="true"
     inkscape:window-width="1016"
     inkscape:window-height="692"
     inkscape:window-x="178"
     inkscape:window-y="378">
    <sodipodi:guide
       orientation="horizontal"
       position="40.875"
       id="guide5004" />
  </sodipodi:namedview>
  <metadata
     id="metadata2611">
    <rdf:RDF>
      <cc:Work
         rdf:about="">
        <dc:format>image/svg+xml</dc:format>
        <dc:type
           rdf:resource="http://purl.org/dc/dcmitype/StillImage" />
      </cc:Work>
    </rdf:RDF>
  </metadata>
  <g
     inkscape:label="Livello 1"
     inkscape:groupmode="layer"
     id="layer1">
    <path
       style="opacity:0.5;fill:#000000;fill-opacity:1;filter:url(#filter2770)"
       d="M 16,8 L 16,116.10435 C 16,116.10435 79.15625,116.10435 79.15625,116.10435 L 79.1875,116.10435 L 112,116.11272 L 112,116.08147 L 112,8 L 16,8 z "
       id="path7865"
       sodipodi:nodetypes="cscccccc"
       transform="matrix(1.0416667,0,0,1.0267857,-2.6666667,-1.2142891)" />
    <path
       style="fill:#ffffff;fill-opacity:1"
       d="M 16.000001,8 L 16,116 C 16,116 79.146418,116 79.146418,116 L 112,116.14642 L 112,8 L 16.000001,8 z "
       id="path34"
       sodipodi:nodetypes="cccccc" />
    <path
       style="fill:url(#radialGradient9437);fill-opacity:1"
       d="M 18.000002,9.0000034 C 17.449002,9.0000034 17.000002,9.4488534 17.000002,9.9996684 L 17.000002,113.96352 C 17.000002,114.51533 17.449002,114.96318 18.000002,114.96318 L 77.171999,114.96318 L 111,114.94651 L 111,9.9996684 C 111,9.4488534 110.552,9.0000034 110,9.0000034 L 18.000002,9.0000034 z "
       id="path59"
       sodipodi:nodetypes="ccccccccc" />
    <g
       id="g4805"
       transform="matrix(0.9166667,0,0,0.9161982,-104.66667,-2.6591706)">
      <path
         sodipodi:nodetypes="cccccc"
         id="rect3183"
         d="M 136,16 L 232,16 L 232,112.04909 L 208.85965,112 L 136,112 L 136,16 z "
         style="fill:url(#linearGradient4882);fill-opacity:1;fill-rule:nonzero;stroke:none;stroke-width:3.20000005;stroke-linecap:round;stroke-linejoin:round;stroke-miterlimit:4;stroke-dashoffset:4;stroke-opacity:1" />
      <g
         transform="matrix(0.5620693,0,0,0.6015749,58.600837,15.161068)"
         id="g4460">
        <path
           style="fill:none;fill-opacity:0.75;fill-rule:evenodd;stroke:#000000;stroke-width:0.51396483px;stroke-linecap:butt;stroke-linejoin:miter;stroke-opacity:1"
           d="M 187.22261,104.20627 C 187.22261,104.20627 187.22261,102.23277 187.22261,104.20627 z "
           id="path4462" />
        <path
           style="fill:#422f17;fill-opacity:1;fill-rule:evenodd;stroke:#000000;stroke-width:0.51396483px;stroke-linecap:butt;stroke-linejoin:miter;stroke-opacity:1"
           d="M 183.201,113.07522 C 193.37175,108.10319 193.63086,108.52844 200.46351,113.69314 L 200.29499,105.21496 C 200.35117,105.10532 201.41844,103.68002 201.41844,105.21496 C 201.41844,106.7499 201.64313,115.74027 201.64313,115.74027 C 201.64313,115.74027 201.13758,128.18425 199.34006,129.171 C 197.99193,129.60955 189.06054,134.37883 189.06054,134.37883 C 189.06054,134.37883 187.26303,135.25594 185.91489,134.37883 C 184.56675,133.50173 176.92733,128.0198 176.92733,128.0198 C 176.92733,128.0198 175.80388,126.92341 176.47795,125.60775 C 177.15201,124.29208 186.54379,99.322577 188.7681,101.64836"
           id="path4464"
           sodipodi:nodetypes="ccccccccccz" />
        <g
           id="g4466"
           style="fill:url(#linearGradient4884);fill-opacity:1"
           transform="matrix(0.476791,0,0,0.465307,56.04458,-173.9504)">
          <path
             style="fill:url(#linearGradient4886);fill-rule:evenodd;stroke:none;stroke-width:1px;stroke-linecap:butt;stroke-linejoin:miter;stroke-opacity:1"
             d="M 263.1947,617.63145 L 282.04481,607.26389 C 282.04481,607.26389 286.52172,604.90763 291.23424,608.2064 C 295.94677,611.50517 305.37183,619.28084 305.37183,619.28084 L 306.19652,623.28649 L 290.0847,610.59125 C 289.08502,610.42464 286.38369,608.94186 283.45857,609.85578 C 280.86668,611.26954 261.20025,622.17737 261.20025,622.17737 L 263.1947,617.63145 z "
             id="path4468"
             sodipodi:nodetypes="ccccccccc" />
          <path
             style="fill:url(#linearGradient4888);fill-rule:evenodd;stroke:none;stroke-width:1px;stroke-linecap:butt;stroke-linejoin:miter;stroke-opacity:1"
             d="M 260.84963,623.11423 L 282.16544,611.73514 C 282.16544,611.73514 286.1711,608.90763 290.88362,612.2064 C 295.59615,615.50517 306.90623,624.6946 305.96372,624.22335 L 305.6995,630.43604 L 287.34923,616.32704 C 287.34923,616.32704 283.81483,614.67765 281.22294,616.09141 C 278.63105,617.50517 258.13155,628.57961 258.13155,628.57961 L 260.84963,623.11423 z "
             id="path4471"
             sodipodi:nodetypes="ccccccccc" />
          <path
             style="fill:url(#linearGradient4890);fill-rule:evenodd;stroke:none;stroke-width:1px;stroke-linecap:butt;stroke-linejoin:miter;stroke-opacity:1"
             d="M 257.89592,629.40713 L 280.0448,617.86143 C 280.0448,617.86143 284.05046,615.03392 288.76298,618.33269 C 293.47551,621.63146 306.35759,631.99903 305.41508,631.52778 L 304.9236,637.22041 L 285.22859,622.45333 C 285.22859,622.45333 281.69419,620.80394 279.1023,622.2177 C 276.51041,623.63146 256.01091,634.7059 256.01091,634.7059 L 257.89592,629.40713 z "
             id="path4473"
             sodipodi:nodetypes="ccccccccc" />
          <path
             style="fill:url(#linearGradient4892);fill-rule:evenodd;stroke:none;stroke-width:1px;stroke-linecap:butt;stroke-linejoin:miter;stroke-opacity:1"
             d="M 255.53966,635.29779 L 277.68854,623.75209 C 277.68854,623.75209 281.6942,620.92458 286.40672,624.22335 C 291.11925,627.52212 305.67931,638.38115 304.7368,637.9099 L 303.84308,644.36659 L 282.87233,628.34399 C 282.87233,628.34399 279.33793,626.6946 276.74604,628.10836 C 274.15415,629.52212 253.65465,640.59656 253.65465,640.59656 L 255.53966,635.29779 z "
             id="path4475"
             sodipodi:nodetypes="ccccccccc" />
          <path
             style="fill:url(#linearGradient4894);fill-rule:evenodd;stroke:none;stroke-width:1px;stroke-linecap:butt;stroke-linejoin:miter;stroke-opacity:1"
             d="M 253.29839,641.66534 L 275.44727,629.41277 C 275.44727,629.41277 279.92418,626.22344 284.6367,630.35528 C 289.34923,633.65405 303.72244,644.96412 303.72244,644.96412 C 303.80098,647.32038 302.70139,649.79446 301.13055,651.32603 C 301.44472,649.51956 304.11515,648.41997 300.42367,645.55318 L 282.32022,632.57352 C 281.32055,632.07368 278.78582,630.92413 276.19393,632.33789 C 273.60204,633.75165 253.76964,644.49286 253.76964,644.49286 L 253.29839,641.66534 z "
             id="path4477"
             sodipodi:nodetypes="cccccccccc" />
        </g>
        <path
           style="fill:none;fill-opacity:0.75;fill-rule:evenodd;stroke:#ffffff;stroke-width:0.51396483px;stroke-linecap:butt;stroke-linejoin:miter;stroke-opacity:0.55940594"
           d="M 202.05456,103.14424 C 202.05456,103.14424 216.03593,126.86726 225.09204,93.530989"
           id="path4479"
           sodipodi:nodetypes="cc" />
        <g
           id="g4481"
           transform="matrix(0.476791,0,0,0.465307,55.77949,-173.6434)">
          <path
             style="fill:url(#linearGradient4896);fill-opacity:1;fill-rule:evenodd;stroke:none;stroke-width:1px;stroke-linecap:butt;stroke-linejoin:miter;stroke-opacity:1"
             d="M 338.22446,521.19983 C 338.22446,521.19983 377.21191,565.18567 333.22607,578.18149 C 329.89381,579.18117 338.22446,521.19983 338.22446,521.19983 z "
             id="path4483"
             sodipodi:nodetypes="ccc" />
          <path
             style="fill:#0b6c46;fill-opacity:1;fill-rule:evenodd;stroke:none;stroke-opacity:1"
             d="M 275.0748,560.94594 L 275.21707,570.0003 C 283.27792,574.86011 293.10363,578.29621 303.96622,579.55254 C 314.81983,580.80783 325.18449,579.70093 334.1368,576.81477 L 333.99453,567.76041 C 325.93737,562.90699 284.03215,558.05439 275.0748,560.94594 z "
             id="path4485"
             sodipodi:nodetypes="cccccc" />
          <path
             style="fill:#bea613;fill-opacity:1;fill-rule:evenodd;stroke:none;stroke-opacity:1"
             d="M 275.68002,559.47428 L 275.57592,566.89757 C 283.50748,571.92005 293.36967,575.46859 304.29245,576.73188 C 315.20005,577.99342 325.63274,576.80211 334.49332,573.73219 L 334.60208,566.26861 C 326.67617,561.25722 284.54863,556.39486 275.68002,559.47428 z "
             id="path4487"
             sodipodi:nodetypes="cccccc" />
          <path
             style="fill:#b37711;fill-opacity:1;fill-rule:evenodd;stroke:none;stroke-opacity:1"
             d="M 276.88308,547.60287 L 276.00468,563.19042 C 283.77731,568.47998 293.58498,572.288 304.65829,573.56871 C 315.7236,574.84849 326.15339,573.37529 334.92441,570.00489 L 335.80281,554.41734 C 328.03268,549.13385 285.65791,544.22713 276.88308,547.60287 z "
             id="path4489"
             sodipodi:nodetypes="cccccc" />
          <path
             style="fill:#ac182a;fill-opacity:1;fill-rule:evenodd;stroke:none;stroke-opacity:1"
             d="M 277.50759,547.18114 L 276.67811,557.36777 C 284.00502,563.19427 293.8856,567.44309 305.21521,568.75344 C 316.54212,570.06348 327.13535,568.18047 335.59784,564.18225 L 336.42732,553.99561 C 329.10088,548.17129 285.97104,543.1809 277.50759,547.18114 z "
             id="path4491"
             sodipodi:nodetypes="cccccc" />
          <path
             style="fill:#be2873;fill-opacity:1;fill-rule:evenodd;stroke:none;stroke-opacity:1"
             d="M 278.81487,540.62031 L 277.33523,551.68616 C 284.05502,558.16146 294.04935,562.94986 305.73019,564.30083 C 317.38774,565.64911 328.23427,563.29207 336.2503,558.54093 L 337.73926,547.39449 C 331.01935,540.93903 286.83532,535.84983 278.81487,540.62031 z "
             id="path4493"
             sodipodi:nodetypes="cccccc" />
          <path
             style="fill:#ab0d2d;fill-opacity:1;fill-rule:evenodd;stroke:none;stroke-opacity:1"
             d="M 279.47201,530.46825 L 278.30926,543.26448 C 283.43866,551.13384 293.77039,557.26207 306.37566,558.71996 C 318.97018,560.1766 330.43404,556.57932 337.22666,550.0991 L 338.39407,537.26258 C 333.25996,529.40295 286.26227,523.97748 279.47201,530.46825 z "
             id="path4495"
             sodipodi:nodetypes="cccccc" />
          <path
             style="fill:#8d0b1e;fill-opacity:1;fill-rule:evenodd;stroke:none;stroke-opacity:1"
             d="M 280.98901,520.09478 L 279.05493,536.81726 C 283.24905,544.62442 293.92558,550.97115 307.09569,552.49436 C 320.24075,554.01468 332.09271,550.29201 337.97,543.67203 L 339.9134,526.86896 C 335.70236,519.08219 286.85447,513.45108 280.98901,520.09478 z "
             id="path4497"
             sodipodi:nodetypes="cccccc" />
          <path
             style="fill:#790a59;fill-opacity:1;fill-rule:evenodd;stroke:none;stroke-opacity:1"
             d="M 281.88381,512.35812 L 279.94973,529.0806 C 284.14385,536.88776 294.82038,543.23448 307.9905,544.7577 C 321.13555,546.27801 332.98752,542.55535 338.8648,535.93536 L 340.8082,519.1323 C 336.59716,511.34553 287.74927,505.71442 281.88381,512.35812 z "
             id="path4499"
             sodipodi:nodetypes="cccccc" />
          <path
             style="fill:#002c91;fill-opacity:1;fill-rule:evenodd;stroke:none;stroke-opacity:1"
             d="M 282.92775,503.33201 L 280.99367,520.05449 C 285.18778,527.86165 295.86432,534.20837 309.03443,535.73159 C 322.17949,537.25191 334.03145,533.52924 339.90874,526.90926 L 341.85214,510.10619 C 337.6411,502.31942 288.79321,496.68831 282.92775,503.33201 z "
             id="path4501"
             sodipodi:nodetypes="cccccc" />
          <path
             style="fill:#0b6c46;fill-opacity:1;fill-rule:evenodd;stroke:none;stroke-opacity:1"
             d="M 248.40625,547.75 L 253.90625,562.53125 L 267.34375,573.6875 C 270.1161,572.87512 272.81821,571.85611 275.375,570.46875 L 277.1875,555.125 C 273.53213,551.65247 260.03014,548.67004 248.40625,547.75 z "
             id="path4503" />
          <path
             style="fill:#bea613;fill-opacity:1;fill-rule:evenodd;stroke:none;stroke-opacity:1"
             d="M 247.0625,544.125 L 253.90625,562.53125 L 264.21875,571.09375 C 268.30846,570.26259 272.21002,568.75831 275.84375,566.65625 L 277.4375,551.75 C 273.68372,547.98759 259.044,544.83986 247.0625,544.125 z "
             id="path4505" />
          <path
             style="fill:#9f690f;fill-opacity:1;fill-rule:evenodd;stroke:none;stroke-opacity:1"
             d="M 247.5,545.3125 L 253.90625,562.53125 L 260.09375,567.65625 C 265.91841,567.12148 271.4714,565.18231 276.4375,562.03125 L 277.25,553.15625 C 273.64896,549.24433 259.39196,546.0513 247.5,545.3125 z "
             id="path4507" />
          <path
             style="fill:#a01728;fill-opacity:1;fill-rule:evenodd;stroke:none;stroke-opacity:1"
             d="M 242.34375,533.09375 C 238.15485,533.3011 234.78501,534.0274 233.0625,535.34375 L 232.8125,537.59375 L 243.25,533.875 L 253.5625,561.59375 C 262.23387,562.6764 270.53733,560.01218 277.34375,554.8125 L 278.75,541.53125 C 274.73183,536.34031 254.91044,532.4717 242.34375,533.09375 z "
             id="path4509" />
          <path
             style="fill:#ae055a;fill-opacity:1;fill-rule:evenodd;stroke:none;stroke-opacity:1"
             d="M 233.90026,527.51949 L 232.5274,541.56434 C 237.36729,549.31327 244.88205,554.85296 253.9423,556.07987 C 262.9845,557.30434 271.63361,553.97964 278.22229,547.80305 L 279.60771,533.65824 C 274.76644,525.93383 240.49366,521.31884 233.90026,527.51949 z "
             id="path4511"
             sodipodi:nodetypes="cccccc" />
          <path
             style="fill:#9e0c2a;fill-opacity:1;fill-rule:evenodd;stroke:none;stroke-opacity:1"
             d="M 235.3218,518.43899 L 233.84056,531.11784 C 237.34375,540.65021 245.03521,547.83318 254.81251,549.15719 C 264.58147,550.48008 273.79512,545.59896 279.53859,537.33156 L 281.02611,524.60272 C 277.51859,515.08257 241.06411,510.15862 235.3218,518.43899 z "
             id="path4513"
             sodipodi:nodetypes="cccccc" />
          <path
             style="fill:#720818;fill-opacity:1;fill-rule:evenodd;stroke:none;stroke-opacity:1"
             d="M 237.45332,502.37747 L 234.84585,523.12052 C 237.62058,532.61147 245.56782,540.05144 255.78324,541.43478 C 265.97922,542.81549 275.50503,537.76468 280.54074,529.35923 L 283.16077,508.51621 C 280.37145,499.05111 242.48132,493.94315 237.45332,502.37747 z "
             id="path4515"
             sodipodi:nodetypes="cccccc" />
          <path
             style="fill:#67094d;fill-opacity:1;fill-rule:evenodd;stroke:none;stroke-opacity:1"
             d="M 238.65967,492.78069 L 236.0522,513.52374 C 238.82693,523.01468 246.77417,530.45465 256.98959,531.838 C 267.18557,533.21871 276.71138,528.1679 281.74708,519.76244 L 284.36712,498.91943 C 281.5778,489.45433 243.68766,484.34636 238.65967,492.78069 z "
             id="path4517"
             sodipodi:nodetypes="cccccc" />
          <path
             style="fill:#0035a8;fill-opacity:1;fill-rule:evenodd;stroke:none;stroke-opacity:1"
             d="M 240.06707,481.58444 L 237.4596,502.32749 C 240.23433,511.81844 248.18158,519.25841 258.397,520.64175 C 268.59297,522.02246 278.11878,516.97165 283.15449,508.5662 L 285.77453,487.72318 C 282.98521,478.25808 245.09507,473.15011 240.06707,481.58444 z "
             id="path4519"
             sodipodi:nodetypes="cccccc" />
          <path
             style="fill:#00a867;fill-opacity:1;fill-rule:evenodd;stroke:none;stroke-opacity:1"
             d="M 240.87131,475.18658 L 238.26383,495.92963 C 241.03856,505.42058 248.31935,510.86119 258.53477,512.24454 C 268.73075,513.62525 278.92301,510.5738 283.95872,502.16834 L 286.57876,481.32533 C 283.78944,471.86023 245.8993,466.75226 240.87131,475.18658 z "
             id="path4521"
             sodipodi:nodetypes="cccccc" />
          <path
             style="fill:#006145;fill-opacity:1;fill-rule:evenodd;stroke:none;stroke-opacity:1"
             d="M 284.92775,491.33201 L 282.99367,508.05449 C 287.18778,515.86165 297.86432,522.20837 311.03443,523.73159 C 324.17949,525.25191 336.03145,521.52924 341.90874,514.90926 L 343.85214,498.10619 C 339.6411,490.31942 290.79321,484.68831 284.92775,491.33201 z "
             id="path4523"
             sodipodi:nodetypes="cccccc" />
        </g>
        <path
           style="fill:url(#linearGradient4898);fill-opacity:1;fill-rule:evenodd;stroke:none;stroke-width:1px;stroke-linecap:butt;stroke-linejoin:miter;stroke-opacity:1"
           d="M 190.03122,64.297807 C 190.03122,64.297807 182.72882,69.231546 180.36959,90.17252 C 184.97572,95.764091 211.15199,97.518308 211.15199,97.518308 C 211.15199,97.518308 205.42243,73.836368 208.90511,64.736364"
           id="path4525"
           sodipodi:nodetypes="cccc" />
        <g
           id="g4527"
           transform="matrix(-0.774175,-0.401016,-0.348567,0.890665,597.6601,-302.2593)">
          <path
             style="fill:url(#linearGradient4900);fill-opacity:1;fill-rule:evenodd;stroke:none;stroke-width:1px;stroke-linecap:butt;stroke-linejoin:miter;stroke-opacity:1"
             d="M 207.7583,506.50835 C 206.40141,508.14027 202.6659,520.80791 217.80808,536.11211 C 209.99845,521.01422 210.25164,515.35549 212.77702,513.84026 C 211.26179,512.57757 211.79891,504.74058 207.7583,506.50835 z "
             id="path4529"
             sodipodi:nodetypes="cccc" />
          <path
             style="fill:url(#linearGradient4902);fill-opacity:1;fill-rule:evenodd;stroke:none;stroke-width:1px;stroke-linecap:butt;stroke-linejoin:miter;stroke-opacity:1"
             d="M 210.95084,511.50794 C 210.95084,511.50794 205.53158,526.18807 221.81423,540.68643 C 214.0046,525.58854 214.65742,520.7694 217.1828,519.25417 C 215.66757,517.99148 214.99145,509.74017 210.95084,511.50794 z "
             id="path4531"
             sodipodi:nodetypes="cccc" />
          <path
             style="fill:url(#linearGradient4904);fill-opacity:1;fill-rule:evenodd;stroke:none;stroke-width:1px;stroke-linecap:butt;stroke-linejoin:miter;stroke-opacity:1"
             d="M 215.63896,514.69258 C 214.26567,516.28385 212.37855,522.69625 221.02957,539.78214 C 224.42558,543.33631 225.80981,544.21794 228.40596,546.12917 C 225.88057,540.57332 225.18702,531.44512 225.18702,531.44512 C 225.18702,531.44511 222.30922,521.66678 215.63896,514.69258 z "
             id="path4533"
             sodipodi:nodetypes="ccccc" />
          <path
             style="fill:url(#linearGradient4906);fill-opacity:1;fill-rule:evenodd;stroke:none;stroke-width:1px;stroke-linecap:butt;stroke-linejoin:miter;stroke-opacity:1"
             d="M 220.25,520.1875 C 218.87671,521.77877 217.69273,527.32036 226.34375,544.40625 C 226.73044,544.6265 227.16007,545.21026 234.57596,551.27054 C 232.05057,545.71469 229.79806,536.94004 229.79806,536.94004 C 229.79806,536.94003 226.92026,527.1617 220.25,520.1875 z "
             id="path4535"
             sodipodi:nodetypes="ccccc" />
          <path
             style="fill:url(#linearGradient4908);fill-opacity:1;fill-rule:evenodd;stroke:none;stroke-width:1px;stroke-linecap:butt;stroke-linejoin:miter;stroke-opacity:1"
             d="M 226.43242,527.87754 C 225.19989,531.53305 222.40285,535.39769 233.4082,550.0827 C 236.39784,552.68732 237.75066,552.31339 241.50027,554.94898 C 238.97488,549.39313 233.83867,536.94004 233.83867,536.94004 C 233.83867,536.94003 230.56317,532.74151 226.43242,527.87754 z "
             id="path4537"
             sodipodi:nodetypes="ccccc" />
        </g>
        <path
           style="fill:url(#linearGradient4910);fill-opacity:1;fill-rule:evenodd;stroke:none;stroke-width:1px;stroke-linecap:butt;stroke-linejoin:miter;stroke-opacity:1"
           d="M 147.23396,1.5882927 C 147.13465,2.646801 146.98467,5.018187 147.77035,8.3934076 C 146.71944,8.7518336 142.71094,10.274486 139.09871,21.320218 C 141.74768,16.6199 141.9984,15.68199 148.50043,10.981678 C 148.72205,9.0350846 149.12685,6.368708 151.61447,1.5882927 L 147.23396,1.5882927 z M 266.35721,1.5882927 C 267.93182,4.3792274 271.22943,10.952536 270.11194,15.67837 C 269.87112,16.383427 269.32225,18.148541 269.32225,18.324804 C 271.12838,19.441122 277.62699,22.665569 280.03515,37.824075 C 280.45658,31.654914 282.6271,21.609411 270.82712,13.0901 C 272.37122,8.9999353 272.85313,6.0215192 272.37669,1.5882927 L 266.35721,1.5882927 z "
           id="path4539" />
        <path
           style="fill:url(#linearGradient4912);fill-opacity:1;fill-rule:evenodd;stroke:none;stroke-width:1px;stroke-linecap:butt;stroke-linejoin:miter;stroke-opacity:1"
           d="M 151.33138,1.5882927 C 150.48086,3.2294259 148.16646,7.8677178 148.47063,10.923514 C 143.724,13.810912 141.42889,16.685518 139.20301,21.291136 L 139.21791,21.203891 C 139.21791,21.203896 136.26512,28.807398 138.60702,37.126115 C 138.99068,33.147428 137.3331,25.956979 148.85802,14.558725 C 148.80375,14.543877 150.01326,17.8718 151.25688,20.49139 C 151.54908,19.347051 149.72571,9.4677224 164.91992,1.5882927 L 151.33138,1.5882927 z "
           id="path4541" />
        <path
           style="fill:url(#linearGradient4914);fill-opacity:1;fill-rule:evenodd;stroke:none;stroke-width:1px;stroke-linecap:butt;stroke-linejoin:miter;stroke-opacity:1"
           d="M 257.78987,1.5882927 C 267.38505,10.987587 266.20821,24.155682 266.20821,24.155682 C 266.20821,24.155682 267.57261,21.334763 267.74288,21.334758 C 281.53576,34.296881 273.18127,52.408537 273.18128,52.408542 C 273.18128,52.408542 277.96196,48.41812 280.00535,38.114892 C 279.32422,24.654226 271.48484,19.4673 269.44145,18.179395 C 269.44145,18.179395 270.46314,16.357639 270.63343,13.366376 C 269.43017,7.1595205 267.60358,3.4581243 266.49131,1.5882927 L 257.78987,1.5882927 z "
           id="path4543" />
        <path
           sodipodi:nodetypes="ccccccccc"
           id="path4545"
           d="M 153.27873,24.934713 C 153.27873,24.934713 140.44556,34.402142 145.39585,50.498089 C 147.26897,55.31734 151.52603,59.471866 151.52603,59.471866 C 151.52603,59.471866 143.35247,47.340646 155.95337,32.051988 C 155.95337,32.051988 158.67789,38.865409 164.12693,48.836277 C 166.68117,44.183203 172.98162,38.865414 185.58253,31.553445 C 198.18343,24.241475 184.56083,18.258958 184.56083,18.258958 C 184.56083,18.258958 159.01846,24.687886 159.5293,40.028681 C 158.50761,38.865414 154.07171,26.714033 153.27873,24.934713 z "
           style="fill:url(#linearGradient4916);fill-opacity:1;fill-rule:evenodd;stroke:none;stroke-width:1px;stroke-linecap:butt;stroke-linejoin:miter;stroke-opacity:1" />
        <path
           style="fill:url(#linearGradient4918);fill-opacity:1;fill-rule:evenodd;stroke:none;stroke-width:1px;stroke-linecap:butt;stroke-linejoin:miter;stroke-opacity:1"
           d="M 164.57723,1.5882927 C 158.84878,4.5412985 150.6096,10.478388 151.22708,20.229654 C 151.14194,20.229659 148.91762,14.427858 148.91762,14.427858 C 148.91762,14.427858 137.51508,22.973719 138.62192,36.849839 C 139.47333,41.419819 142.00415,45.574345 142.00415,45.574345 C 142.00415,45.574345 137.00423,29.785064 150.54169,19.066387 C 151.91856,23.362762 154.14866,27.917015 155.7268,31.382482 C 155.64166,30.883942 151.04828,16.316092 183.82766,6.0959543 C 183.96763,4.234824 183.90823,2.8077135 183.76807,1.5882927 L 164.57723,1.5882927 z "
           id="path4547" />
        <path
           sodipodi:nodetypes="ccccccccc"
           id="path4549"
           d="M 151.52603,59.638046 C 151.52603,59.638046 155.00221,63.86141 156.19419,64.692318 C 156.96046,65.523221 150.06402,54.085235 160.11069,40.624567 C 161.91681,46.147436 169.98707,60.322932 169.98707,60.322932 C 169.98707,60.322932 176.55756,50.498089 186.77451,46.509742 C 191.37213,33.54762 187.28535,34.877067 185.41224,31.553445 C 183.36885,31.885804 164.12693,45.014111 163.95665,48.503913 C 163.61608,48.420823 157.18062,34.137601 156.07378,32.060336 C 155.05208,31.063253 143.69303,46.675922 151.52603,59.638046 z "
           style="fill:url(#linearGradient4920);fill-opacity:1;fill-rule:evenodd;stroke:none;stroke-width:1px;stroke-linecap:butt;stroke-linejoin:miter;stroke-opacity:1" />
        <path
           sodipodi:nodetypes="ccccccccc"
           id="path4551"
           d="M 184.25763,6.2665591 C 183.30647,5.2576619 150.9578,16.177952 155.56502,30.778266 C 151.47825,22.30303 150.71197,19.145591 150.71197,19.145591 C 150.47116,18.205527 137.51508,28.202457 141.94243,45.48529 C 143.04926,47.811825 144.6755,50.165138 145.59923,50.960911 C 144.74781,47.969652 142.45327,34.018795 153.09593,25.128109 C 156.07587,32.606258 157.72277,35.774491 159.6372,39.737785 C 160.48861,38.906882 157.43814,27.537734 185.0239,18.065414 C 188.25927,9.8394515 184.25763,6.2665591 184.25763,6.2665591 z "
           style="fill:url(#linearGradient4922);fill-opacity:1;fill-rule:evenodd;stroke:none;stroke-width:1px;stroke-linecap:butt;stroke-linejoin:miter;stroke-opacity:1" />
        <path
           style="fill:url(#linearGradient4924);fill-opacity:1;fill-rule:evenodd;stroke:none;stroke-width:1px;stroke-linecap:butt;stroke-linejoin:miter;stroke-opacity:1"
           d="M 241.40018,1.5882927 C 263.39065,16.032799 261.37514,29.427117 261.6191,32.284014 C 263.40706,30.123659 264.89064,27.475154 265.65692,26.394972 C 276.12929,39.440189 270.04808,56.04583 269.36695,56.959828 C 270.04808,56.959828 272.50441,53.646586 273.27068,52.234051 C 282.55107,30.713603 269.19028,20.896463 267.74288,21.145728 C 266.97661,22.059725 266.46151,23.563663 266.46151,23.646753 C 266.51992,10.990844 261.44708,4.4820603 258.22196,1.5882927 L 241.40018,1.5882927 z "
           id="path4553" />
        <path
           style="fill:url(#linearGradient4926);fill-opacity:1;fill-rule:evenodd;stroke:none;stroke-width:1px;stroke-linecap:butt;stroke-linejoin:miter;stroke-opacity:1"
           d="M 224.71249,1.5882927 C 222.34772,2.9998434 222.30409,5.0218024 229.22711,7.9717232 C 246.68625,17.137326 254.14503,30.950826 256.55319,39.176374 C 257.03482,38.588835 261.42603,32.608072 261.87239,32.109524 C 271.24429,49.356086 263.52626,62.589205 262.33428,63.503207 C 262.33428,63.503207 267.99535,60.040574 269.56065,57.337889 C 276.96574,38.125366 265.59733,26.191405 265.59732,26.1914 C 265.59732,26.1914 265.34932,27.249262 261.85749,31.949574 C 262.54736,16.549025 249.498,6.2501757 241.98127,1.5882927 L 224.71249,1.5882927 z "
           id="path4555" />
        <path
           sodipodi:nodetypes="ccccccccc"
           id="path4557"
           d="M 229.8082,7.9283659 C 229.8082,7.9283659 253.00764,20.094222 256.49947,38.660451 C 261.5566,31.844997 260.59334,32.716861 261.67701,32.129318 C 262.76068,31.541779 271.79128,50.343025 262.51987,63.503896 C 255.29539,69.849315 254.57294,69.614298 252.76682,70.554362 C 253.24845,69.379281 264.32598,61.956136 256.13825,39.042119 C 254.09131,42.919871 249.90625,47.129992 249.90625,47.129992 C 249.90625,47.129992 246.74643,31.306767 224.9526,19.673496 C 210.14242,13.915615 229.79813,7.1606466 229.96841,7.4930107"
           style="fill:url(#linearGradient4928);fill-opacity:1;fill-rule:evenodd;stroke:none;stroke-width:1px;stroke-linecap:butt;stroke-linejoin:miter;stroke-opacity:1" />
        <path
           sodipodi:nodetypes="ccccccccc"
           id="path4559"
           d="M 225.073,19.604663 L 219.54392,33.539412 C 219.88449,33.871776 234.70564,40.589879 240.96685,56.570938 C 241.60874,56.598614 248.91377,48.697914 249.63622,47.287819 C 250.35867,45.87773 255.35559,66.73536 246.98725,74.432115 C 250.84825,72.119418 252.80814,71.640445 253.9709,69.966819 C 254.45254,68.791742 263.90456,60.037415 256.19845,39.12103 C 254.07389,42.133 251.22218,45.137552 249.99745,46.465268 C 248.56966,41.118961 242.5165,29.216678 225.073,19.604663 z "
           style="fill:url(#linearGradient4930);fill-opacity:1;fill-rule:evenodd;stroke:none;stroke-width:1px;stroke-linecap:butt;stroke-linejoin:miter;stroke-opacity:1" />
        <path
           style="fill:#1f4a2a;fill-opacity:1;fill-rule:evenodd;stroke:none;stroke-width:1px;stroke-linecap:butt;stroke-linejoin:miter;stroke-opacity:1"
           d="M 183.54457,1.5882927 L 183.82766,6.9247824 C 183.82767,6.9247778 203.772,-4.7868273 230.16579,8.175295 C 231.62859,6.1193267 233.0947,3.6616496 234.32281,1.5882927 L 183.54457,1.5882927 z "
           id="path4561" />
        <g
           id="g4563"
           transform="matrix(0.476791,0,0,0.465307,55.77949,-173.6434)">
          <path
             style="fill:url(#linearGradient4932);fill-opacity:1;fill-rule:evenodd;stroke:none;stroke-width:1px;stroke-linecap:butt;stroke-linejoin:miter;stroke-opacity:1"
             d="M 210.6168,512.94073 C 210.6168,512.94073 209.80617,527.05721 224.94835,542.36141 C 217.13872,527.26352 214.65742,520.7694 217.1828,519.25417 C 215.66757,517.99148 214.65741,511.17296 210.6168,512.94073 z "
             id="path4565"
             sodipodi:nodetypes="cccc" />
          <path
             style="fill:url(#linearGradient4934);fill-opacity:1;fill-rule:evenodd;stroke:none;stroke-width:1px;stroke-linecap:butt;stroke-linejoin:miter;stroke-opacity:1"
             d="M 215.63896,514.69258 C 214.26567,516.28385 213.08169,521.82544 221.73271,538.91133 C 226.65449,544.60372 227.44153,545.08454 234.78918,551.64182 C 232.26379,546.08597 225.18702,531.44512 225.18702,531.44512 C 225.18702,531.44511 222.30922,521.66678 215.63896,514.69258 z "
             id="path4567"
             sodipodi:nodetypes="ccccc" />
          <path
             style="fill:url(#linearGradient4936);fill-opacity:1;fill-rule:evenodd;stroke:none;stroke-width:1px;stroke-linecap:butt;stroke-linejoin:miter;stroke-opacity:1"
             d="M 220.25,520.1875 C 218.87671,521.77877 217.69273,527.32036 226.34375,544.40625 C 231.26553,550.09864 232.05257,550.57946 239.40022,557.13674 C 236.87483,551.58089 229.79806,536.94004 229.79806,536.94004 C 229.79806,536.94003 226.92026,527.1617 220.25,520.1875 z "
             id="path4569"
             sodipodi:nodetypes="ccccc" />
          <path
             style="fill:url(#linearGradient4938);fill-opacity:1;fill-rule:evenodd;stroke:none;stroke-width:1px;stroke-linecap:butt;stroke-linejoin:miter;stroke-opacity:1"
             d="M 226.43242,527.87754 C 225.19989,531.53305 224.73957,539.88003 235.74492,554.56504 C 238.73456,557.16966 242.85692,559.62588 246.60653,562.26147 C 244.08114,556.70562 233.83867,536.94004 233.83867,536.94004 C 233.83867,536.94003 230.56317,532.74151 226.43242,527.87754 z "
             id="path4571"
             sodipodi:nodetypes="ccccc" />
        </g>
        <path
           sodipodi:nodetypes="ccccccccccccccccccccc"
           id="path4573"
           d="M 176.85034,88.193825 C 176.85034,88.193825 174.12582,88.692369 173.27441,87.861466 C 172.423,87.030558 167.65509,81.214225 167.31452,76.893514 C 165.10084,74.068435 157.26785,66.590287 156.41644,64.928475 C 154.8839,62.768125 150.79711,52.365184 159.82209,40.067786 C 163.73859,47.712114 169.18763,58.846252 169.86875,59.677155 C 170.89046,59.012427 172.59328,53.528454 186.55644,45.884123 C 185.87531,36.910347 183.66164,7.9283659 184.17248,6.5989186 C 184.68333,5.2694714 204.94695,-5.366116 230.14876,8.26073 C 222.9969,25.377378 220.27238,31.858444 219.93181,33.686435 C 220.1021,34.018795 234.40583,38.339505 241.38741,55.954699 C 245.47419,51.633987 247.00673,49.473636 249.90153,46.316193 C 252.28549,52.631075 253.98832,67.753554 247.00673,74.566979 C 239.68458,80.050957 230.31905,84.205483 229.46763,85.368751 C 228.61622,86.532018 222.65633,93.843983 216.35588,95.17343 C 216.35588,95.00725 220.44266,91.683628 220.78323,90.35418 C 221.12379,89.024733 222.65633,77.724418 222.65633,77.724418 L 209.3743,65.09466 L 189.11068,64.097572 C 189.11068,64.097572 178.2126,70.744813 175.65836,73.736076 C 175.3178,76.561155 176.85034,88.193825 176.85034,88.193825 z "
           style="fill:url(#linearGradient4940);fill-opacity:1;fill-rule:evenodd;stroke:none;stroke-width:1px;stroke-linecap:butt;stroke-linejoin:miter;stroke-opacity:1" />
        <path
           sodipodi:nodetypes="ccccc"
           id="path4575"
           d="M 270.62287,13.502604 C 269.42734,27.183314 242.50914,55.097143 223.14083,76.429747 C 223.14083,76.429747 222.41838,77.134795 222.41838,77.134795 C 222.6592,77.134795 240.25709,62.968732 251.73862,59.871179 C 280.07812,68.073941 288.57012,22.015298 270.62287,13.502604 z "
           style="fill:url(#linearGradient4942);fill-opacity:1;fill-rule:evenodd;stroke:none;stroke-width:1px;stroke-linecap:butt;stroke-linejoin:miter;stroke-opacity:1" />
        <path
           id="path4577"
           d="M 279.49738,40.589879 C 279.49738,40.589879 255.4158,61.741276 233.01993,71.611931 C 210.62406,81.482581 228.68524,83.597723 228.68524,83.597723 C 228.68524,83.597723 272.75454,64.561464 279.49738,40.589879 z "
           style="opacity:0.39999994;fill:url(#linearGradient4944);fill-opacity:1;fill-rule:evenodd;stroke:none;stroke-width:1px;stroke-linecap:butt;stroke-linejoin:miter;stroke-opacity:1" />
        <path
           sodipodi:nodetypes="cccc"
           id="path4579"
           d="M 272.27788,4.7043653 C 272.27788,1.048383 261.13777,30.50883 227.84381,49.685626 C 205.44794,59.556278 216.35727,70.977559 222.48744,74.633541 C 237.13174,59.01252 269.96238,31.002484 272.27788,4.7043653 z "
           style="opacity:0.39999994;fill:url(#linearGradient4946);fill-opacity:1;fill-rule:evenodd;stroke:none;stroke-width:1px;stroke-linecap:butt;stroke-linejoin:miter;stroke-opacity:1" />
        <path
           style="opacity:0.69999994;fill:url(#linearGradient4948);fill-opacity:1;fill-rule:evenodd;stroke:none;stroke-width:1px;stroke-linecap:butt;stroke-linejoin:miter;stroke-opacity:1"
           d="M 260.28034,66.231116 C 260.28034,66.231116 238.12529,82.917216 227.52939,86.207434 C 247.10271,85.274289 257.39056,81.977156 260.28034,66.231116 z "
           id="path4581"
           sodipodi:nodetypes="ccc" />
        <path
           style="fill:#000000;fill-opacity:1;fill-rule:evenodd;stroke:none;stroke-width:1px;stroke-linecap:butt;stroke-linejoin:miter;stroke-opacity:1"
           d="M 177.1116,88.199027 L 181.83007,92.365293 C 183.06586,92.474933 185.4251,92.146017 187.22261,91.378549 C 187.22261,91.378549 199.35581,100.58819 218.90377,93.461682 C 206.43353,102.23277 198.12003,97.956864 190.81764,98.505056 C 186.32385,94.777342 174.41533,88.199027 173.74126,88.199027 C 173.06719,88.199027 177.1116,88.199027 177.1116,88.199027 z "
           id="path4583"
           sodipodi:nodetypes="ccccccc" />
        <path
           style="fill:url(#linearGradient4950);fill-opacity:1;fill-rule:evenodd;stroke:none;stroke-width:1px;stroke-linecap:butt;stroke-linejoin:miter;stroke-opacity:1"
           d="M 209.24214,66.052029 C 210.1409,77.381351 205.19774,100.11309 205.19774,100.04 L 190.36826,99.162889 L 180.48194,91.926741 L 194.41266,108.59181 L 219.80253,92.146017 C 219.80253,92.146017 220.02722,81.620712 222.04942,79.866491 C 224.07162,78.112274 221.82473,77.235166 221.82473,77.235166 C 221.82473,77.235166 212.38779,70.656846 209.24214,66.052029 z "
           id="path4585"
           sodipodi:nodetypes="ccccccccc" />
        <path
           style="fill:url(#linearGradient4952);fill-opacity:1;fill-rule:evenodd;stroke:none;stroke-width:1px;stroke-linecap:butt;stroke-linejoin:miter;stroke-opacity:1"
           d="M 205.42243,100.25928 L 222.94818,77.673718 C 222.94818,77.673718 220.02722,82.059264 219.80253,91.926741 C 219.80253,91.926741 205.42243,100.25928 205.42243,100.25928 z "
           id="path4587"
           sodipodi:nodetypes="cccc" />
        <path
           sodipodi:nodetypes="cccc"
           id="path4589"
           d="M 272.27788,6.5655933 C 272.27788,2.9096111 261.13777,32.370058 227.84381,51.546854 C 205.44794,61.417506 216.35727,70.977559 222.48744,74.633541 C 237.13174,59.01252 269.96238,32.863712 272.27788,6.5655933 z "
           style="opacity:0.39999994;fill:url(#linearGradient4954);fill-opacity:1;fill-rule:evenodd;stroke:none;stroke-width:1px;stroke-linecap:butt;stroke-linejoin:miter;stroke-opacity:1" />
        <path
           id="path4591"
           d="M 278.5438,42.451107 C 278.5438,42.451107 255.4158,63.602504 233.01993,73.473159 C 210.62406,83.343809 228.68524,83.597723 228.68524,83.597723 C 228.68524,83.597723 268.94113,65.492376 278.5438,42.451107 z "
           style="opacity:0.59999988;fill:url(#linearGradient4956);fill-opacity:1;fill-rule:evenodd;stroke:none;stroke-width:1px;stroke-linecap:butt;stroke-linejoin:miter;stroke-opacity:1"
           sodipodi:nodetypes="cccc" />
        <path
           style="opacity:0.69999994;fill:url(#linearGradient4958);fill-opacity:1;fill-rule:evenodd;stroke:none;stroke-width:1px;stroke-linecap:butt;stroke-linejoin:miter;stroke-opacity:1"
           d="M 260.28034,66.231116 C 260.28034,66.231116 238.12529,82.917216 227.52939,86.207434 C 244.56065,83.723765 257.39056,81.977156 260.28034,66.231116 z "
           id="path4593"
           sodipodi:nodetypes="ccc" />
      </g>
      <rect
         y="77"
         x="236"
         height="0"
         width="1"
         id="rect1327"
         style="opacity:0.57786889;fill:#ffffff;fill-opacity:1;fill-rule:nonzero;stroke:none;stroke-width:3.63199997;stroke-linecap:round;stroke-linejoin:round;stroke-miterlimit:4;stroke-dasharray:none;stroke-dashoffset:4;stroke-opacity:1" />
      <path
         style="fill:#ffffff;fill-opacity:0.75688076;fill-rule:nonzero;stroke:none;stroke-width:0.5;stroke-linecap:round;stroke-linejoin:round;stroke-miterlimit:4;stroke-dasharray:none;stroke-dashoffset:4;stroke-opacity:1"
         d="M 77.062579,3.7839329 L 77.062579,0.98922447 L 77.062579,3.7839329 z "
         id="path2276"
         sodipodi:nodetypes="ccc" />
      <g
         id="g4640"
         transform="matrix(-0.782995,0,0,0.650879,-2245.796,690.3016)"
         style="opacity:0.40163933" />
      <g
         style="opacity:0.40163933"
         transform="matrix(-0.782995,0,0,0.650879,-2245.796,690.3016)"
         id="g4646" />
      <g
         style="opacity:0.40163933"
         transform="matrix(1,0,0,0.650879,955.167,697.6294)"
         id="g4730" />
      <g
         id="g4748"
         transform="matrix(1,0,0,0.650879,955.167,697.6294)"
         style="opacity:0.40163933" />
      <path
         style="fill:#ffffff;fill-opacity:0.75688076;fill-rule:nonzero;stroke:none;stroke-width:0.5;stroke-linecap:round;stroke-linejoin:round;stroke-miterlimit:4;stroke-dasharray:none;stroke-dashoffset:4;stroke-opacity:1"
         d="M 181.23105,2.6244365 L 181.23105,0.41896716 L 181.23105,2.6244365 z "
         id="path2408"
         sodipodi:nodetypes="ccc" />
    </g>
    <path
       style="font-size:28px;font-style:normal;font-weight:normal;fill:#408de8;fill-opacity:1;stroke:none;stroke-width:1px;stroke-linecap:butt;stroke-linejoin:miter;stroke-opacity:1;font-family:Scriptina;opacity:0.53113553"
       d="M 98.506701,104 C 97.986493,104.41133 97.491888,104.91803 97.007979,105.49872 C 96.536162,106.06732 96.131536,106.67637 95.792799,107.34175 C 95.466156,108.00713 95.282261,108.68142 95.245967,109.34679 C 95.23387,109.58875 95.287013,109.81764 95.407991,110.0354 C 95.52897,110.24106 95.67209,110.4047 95.853558,110.56197 C 96.035022,110.71924 96.243386,110.84184 96.461148,110.92653 C 96.678907,110.99911 96.887269,111.02358 97.068738,110.98729 C 97.286495,110.95099 97.507227,110.8897 97.737087,110.80501 C 97.979041,110.70823 98.207926,110.61009 98.425689,110.50121 C 98.643446,110.39233 98.831555,110.28605 99.013026,110.17717 C 99.194491,110.05619 99.366018,109.9499 99.499098,109.85312 C 99.595876,109.79263 99.608244,109.72739 99.559857,109.69109 C 99.511462,109.6427 99.433853,109.65086 99.337074,109.71135 C 99.010429,109.89281 98.622113,110.06856 98.1624,110.23793 C 97.714778,110.4073 97.305939,110.52174 96.906714,110.58223 C 96.749439,110.59432 96.577911,110.58617 96.420642,110.56197 C 96.275468,110.52568 96.156811,110.46438 96.035835,110.3797 C 95.926952,110.28292 95.824879,110.16426 95.752293,109.99489 C 95.691801,109.82552 95.659182,109.61295 95.67128,109.34679 C 95.683375,109.05645 95.756775,108.76232 95.853558,108.49617 C 95.950338,108.21792 96.064782,107.96035 96.197859,107.7063 C 96.330933,107.45225 96.457744,107.21521 96.602919,106.99744 C 96.76019,106.76759 96.915407,106.55108 97.048485,106.3696 C 97.411415,106.36961 97.820257,106.36961 98.304171,106.3696 C 98.788079,106.36961 99.278472,106.3817 99.762387,106.3696 C 100.24629,106.35751 100.69985,106.3412 101.09909,106.3291 C 101.51041,106.317 101.8048,106.28438 102.01047,106.24808 C 102.29164,106.20792 102.54892,106.11666 102.78008,105.98479 C 102.64465,106.16059 102.52036,106.30917 102.37502,106.51137 C 102.09677,106.88641 101.79843,107.3034 101.48389,107.78731 C 100.81851,108.80353 100.34443,109.62489 100.06618,110.21767 C 99.993596,110.36285 99.977285,110.45282 100.02568,110.50121 C 100.03777,110.5738 100.11538,110.58617 100.24846,110.56197 C 100.74447,110.45309 101.05912,110.33444 101.1801,110.17717 C 101.89387,109.34242 102.58868,108.60262 103.26616,107.94934 C 103.95573,107.29606 104.64238,106.71174 105.33196,106.22783 C 105.42874,106.16734 105.51872,106.14683 105.61551,106.14682 C 105.83326,106.14683 105.93955,106.2368 105.93955,106.43036 C 105.93955,106.50295 105.93534,106.56425 105.89905,106.61264 C 105.54821,107.09655 105.20093,107.59116 104.8864,108.11136 C 104.58395,108.61947 104.29376,109.15485 104.01552,109.71135 C 103.32594,111.03001 102.95393,112.14155 102.88135,113.01259 C 102.8302,113.66722 102.93063,114.15072 103.16489,114.51131 L 104.31931,114.51131 C 104.1884,114.44689 104.07938,114.35736 103.97501,114.24802 C 103.69676,113.94557 103.58232,113.52858 103.63071,112.97208 C 103.6791,112.12523 104.01848,110.97687 104.68387,109.54932 C 105.37344,108.10969 106.15402,106.84266 107.01297,105.74176 C 107.19443,105.524 107.20258,105.37694 107.03322,105.31645 C 106.87594,105.24387 106.67152,105.27648 106.40538,105.39746 C 106.27229,105.44586 106.10892,105.53583 105.93955,105.681 C 105.62501,105.80199 105.02411,106.23108 104.11678,106.95694 C 103.72965,107.27149 103.33739,107.60245 102.96236,107.92908 C 102.59942,108.24363 102.24794,108.55433 101.90921,108.88097 C 101.83662,108.96566 101.77926,109.00249 101.70668,109.00249 C 101.60989,109.00249 101.54465,108.9533 101.54465,108.82022 C 101.54465,108.72344 101.57727,108.63767 101.62566,108.57718 C 101.86762,108.03278 102.14965,107.4974 102.47629,106.97719 C 102.81503,106.4449 103.2115,105.90951 103.67122,105.3772 C 103.70751,105.34092 103.73197,105.30409 103.73198,105.25569 C 103.71988,105.24359 103.68304,105.24359 103.61046,105.25569 C 103.58502,105.26031 103.57293,105.27087 103.5497,105.27594 C 103.54442,105.26905 103.53875,105.26034 103.52945,105.25569 C 103.50222,105.23755 103.46901,105.25309 103.42818,105.29619 C 103.38438,105.30985 103.31843,105.32069 103.28641,105.3367 C 103.22592,105.373 103.18093,105.43824 103.14464,105.49872 C 103.13077,105.51536 103.11812,105.54253 103.10413,105.55948 C 103.00649,105.6214 102.90392,105.67984 102.78008,105.74176 C 102.52602,105.87484 102.26452,105.9606 102.01047,105.98479 C 101.8169,106.00899 101.57986,106.01321 101.30162,106.0253 C 101.03546,106.0374 100.74527,106.05371 100.43074,106.06581 C 100.11619,106.06581 99.789171,106.06581 99.438339,106.06581 C 99.099596,106.06581 98.772579,106.06581 98.445942,106.06581 C 99.050828,105.96903 99.574111,105.80959 100.04593,105.57973 C 100.51774,105.34988 100.85685,105.06786 101.03833,104.72911 C 101.1472,104.54765 101.18403,104.33929 101.15984,104.12152 C 101.15744,104.07824 101.14582,104.04136 101.13959,104 L 100.79529,104 C 100.79536,104.01996 100.79709,104.0392 100.79529,104.06076 C 100.78319,104.20594 100.71373,104.37352 100.59276,104.56708 C 100.44758,104.78485 100.25947,104.97296 100.00542,105.15442 C 99.763465,105.33589 99.477491,105.51558 99.17505,105.66075 C 98.8726,105.79383 98.561894,105.89196 98.223159,105.96454 C 97.884417,106.03713 97.565555,106.06581 97.251015,106.06581 C 97.662337,105.61819 98.087488,105.2012 98.547207,104.78987 C 98.881544,104.48192 99.211663,104.21836 99.539604,104 L 98.506701,104 z M 75.053721,104.87088 C 74.787565,104.88298 74.530002,105.02189 74.263854,105.27594 C 74.179168,105.32434 74.109712,105.33671 74.061324,105.3367 C 74.049223,105.33671 73.820337,105.34486 73.372722,105.35695 C 73.09447,105.36906 72.922941,105.41799 72.88665,105.47847 C 72.850355,105.53896 72.846142,105.58395 72.846144,105.62024 C 72.846141,105.69283 72.899285,105.75834 73.008168,105.84302 C 73.117046,105.91562 73.223333,105.98507 73.332216,106.04555 C 73.4048,106.06975 73.42111,106.1229 73.372722,106.20758 C 71.775812,108.16742 70.966557,109.65912 70.942361,110.66324 C 70.94236,110.76002 70.954729,110.84184 71.00312,110.92653 C 71.063609,111.01121 71.133063,111.08882 71.20565,111.14931 C 71.290335,111.2098 71.392409,111.24664 71.489193,111.27083 C 71.585973,111.30712 71.667796,111.32343 71.752482,111.31134 C 72.817085,111.15407 74.063589,110.4674 75.479035,109.24553 C 76.204896,108.62855 76.72818,108.06448 77.079022,107.54428 C 77.44195,107.01198 77.650312,106.50527 77.686612,106.04555 C 77.686604,106.02136 77.67845,106.00084 77.666359,105.96454 C 77.654255,105.92825 77.637944,105.87932 77.625853,105.84302 C 77.601651,105.80674 77.601651,105.77806 77.625853,105.74176 C 77.725717,105.60861 77.950153,105.53 78.273949,105.51898 C 78.286045,105.70045 78.318667,105.94143 78.354961,106.20758 C 78.391253,106.47373 78.428087,106.73945 78.476479,107.0177 C 78.524869,107.29595 78.569858,107.56982 78.61825,107.84807 C 78.678738,108.11422 78.752134,108.33495 78.800527,108.51642 C 78.510178,108.75838 78.179218,109.04435 77.828383,109.34679 C 77.477546,109.63714 77.117907,109.93969 76.754974,110.27843 C 76.392041,110.61717 76.032401,110.9605 75.681565,111.31134 C 75.318633,111.67427 74.991614,112.03391 74.689167,112.38474 C 74.410922,112.73558 74.161511,113.07891 73.919553,113.41765 C 73.6776,113.76848 73.493703,114.11181 73.372722,114.45055 C 73.364922,114.47111 73.35973,114.49078 73.352469,114.51131 L 73.69677,114.51131 C 73.725321,114.44308 73.743909,114.37653 73.777782,114.30878 C 73.947154,113.97004 74.155517,113.65933 74.385372,113.35689 C 74.615232,113.05444 74.803342,112.80109 74.972709,112.60753 C 75.311449,112.2204 75.662933,111.83629 76.025866,111.47336 C 76.388799,111.12253 76.740283,110.7955 77.079022,110.48096 C 77.429856,110.16641 77.777128,109.88439 78.091672,109.63034 C 78.406214,109.37628 78.688243,109.16371 78.942298,108.98224 C 79.014883,109.2121 79.10486,109.47782 79.22584,109.79236 C 79.346817,110.09481 79.477569,110.40946 79.610648,110.724 C 79.755818,111.02644 79.890784,111.30847 80.035961,111.57462 C 80.18113,111.84078 80.311884,112.02889 80.420768,112.16196 C 80.553841,112.29503 80.66407,112.34818 80.724563,112.32399 C 80.797146,112.29979 80.748214,112.20166 80.603045,112.02019 C 80.469965,111.86292 80.331057,111.63404 80.197985,111.33159 C 80.064906,111.04124 79.954406,110.72659 79.833431,110.39995 C 79.724549,110.07332 79.606162,109.76261 79.509383,109.44806 C 79.412597,109.13352 79.363396,108.87201 79.327105,108.67844 C 79.581155,108.48488 79.908174,108.25178 80.319503,107.94934 C 80.730825,107.6469 81.159917,107.3404 81.595442,107.03795 C 82.030956,106.72342 82.439798,106.43323 82.851128,106.16707 C 83.262446,105.90092 83.59762,105.70887 83.863779,105.59999 C 83.960552,105.5516 84.021852,105.4903 84.046056,105.41771 C 84.070244,105.33303 84.062089,105.25542 84.025803,105.19493 C 84.001599,105.13444 83.964766,105.08946 83.904285,105.05316 C 83.843787,105.01687 83.766179,105.02502 83.681502,105.07341 C 83.439539,105.19439 83.120676,105.3946 82.709357,105.66075 C 82.310126,105.92691 81.881031,106.21709 81.433418,106.53163 C 80.985796,106.84617 80.5688,107.14872 80.157479,107.46326 C 79.746151,107.76571 79.41519,108.01091 79.185334,108.19237 C 79.124844,108.02301 79.071699,107.82674 79.02331,107.58478 C 78.987015,107.33073 78.950181,107.06923 78.901792,106.81517 C 78.865496,106.54902 78.836819,106.27936 78.800527,106.0253 C 78.764231,105.75915 78.715301,105.53027 78.679009,105.3367 C 78.666911,105.22782 78.646387,105.16653 78.597997,105.15442 C 78.549605,105.13023 78.504616,105.13839 78.456226,105.17467 C 78.407834,105.19887 78.350747,105.24387 78.314455,105.31645 C 78.311326,105.32166 78.317225,105.33139 78.314455,105.3367 C 77.824657,105.32497 77.385316,105.32819 76.99801,105.31645 C 76.610876,105.30435 76.283857,105.28805 76.005613,105.27594 C 75.981411,105.26385 75.948791,105.24754 75.924601,105.23543 C 75.912499,105.22334 75.888032,105.20703 75.863842,105.19493 C 75.513001,104.96507 75.247281,104.85879 75.053721,104.87088 z M 85.078959,105.47847 C 84.982174,105.49058 84.724609,105.5887 84.289092,105.78226 C 83.877766,105.96374 83.648879,106.10264 83.60049,106.18732 C 83.564195,106.25992 83.547884,106.37436 83.559984,106.53163 C 83.584178,106.6889 83.584177,106.78703 83.559984,106.83542 C 82.531671,108.69848 81.971823,109.75294 81.899237,109.99489 C 81.87504,110.07958 81.907662,110.15324 81.980249,110.23793 C 82.052835,110.32261 82.134657,110.3797 82.243538,110.3797 C 82.279831,110.3797 82.332975,110.36338 82.405562,110.33919 C 83.095136,110.07304 84.018833,109.54582 85.180224,108.75946 C 86.063359,108.16667 86.815257,107.59866 87.408054,107.07846 C 87.383854,107.24783 87.326767,107.48881 87.266283,107.76706 C 87.217887,108.04531 87.16053,108.38864 87.063753,108.79996 C 86.845987,109.74359 86.62947,110.47524 86.43591,111.00754 C 84.621239,111.35837 82.867762,111.79562 81.149876,112.30373 C 79.419894,112.81184 77.707463,113.39221 76.025866,114.04549 C 75.622434,114.20466 75.247872,114.35048 74.871444,114.51131 L 75.823336,114.51131 C 78.908354,113.1912 82.423751,112.12357 86.375151,111.31134 C 86.108998,112.12189 85.82697,112.91273 85.524525,113.68094 C 84.733548,113.94167 83.949248,114.21676 83.175176,114.51131 L 84.106815,114.51131 C 84.51887,114.35787 84.935999,114.19138 85.362501,114.04549 C 85.299049,114.20218 85.224959,114.35641 85.159971,114.51131 L 85.747308,114.51131 C 85.83663,114.29524 85.922137,114.06464 86.010597,113.84296 C 88.093865,113.16009 90.338189,112.56946 92.754848,112.0607 C 92.48176,112.89857 92.195265,113.72119 91.883969,114.51131 L 92.451053,114.51131 C 92.771893,113.70311 93.073222,112.86193 93.382691,111.97968 C 93.744699,111.89854 94.147052,111.83575 94.557365,111.77715 C 94.472378,112.24422 94.159872,112.773 93.544715,113.35689 C 93.423723,113.44157 93.362426,113.50708 93.362438,113.57967 C 93.362428,113.59177 93.358484,113.59992 93.382691,113.59992 C 93.455268,113.59992 93.549186,113.55493 93.64598,113.45815 C 94.275051,112.96214 94.66337,112.56567 94.820654,112.26323 C 94.893226,112.15435 94.942159,112.01544 94.942172,111.85817 C 94.942168,111.81539 94.927291,111.77853 94.921919,111.73665 C 95.200406,111.70232 95.473211,111.65998 95.772546,111.63538 C 96.667774,111.57489 97.669081,111.55437 98.76999,111.55437 C 99.048227,111.55437 99.281326,111.55437 99.499098,111.55437 C 99.728946,111.56647 99.937307,111.58278 100.10669,111.59488 C 100.69947,111.64326 100.99781,111.86821 100.99782,112.30373 C 100.99781,112.83603 100.63817,113.44087 99.924412,114.10625 C 99.80342,114.19093 99.742122,114.27669 99.742134,114.34929 C 99.74212,114.36138 99.758433,114.36953 99.78264,114.36954 C 99.855213,114.36953 99.937037,114.32455 100.04593,114.22777 C 100.675,113.73175 101.06332,113.31503 101.2206,113.01259 C 101.28108,112.89161 101.32185,112.77295 101.32187,112.62778 C 101.32185,112.47051 101.29318,112.30713 101.2206,112.16196 C 101.148,112.01679 101.03777,111.88997 100.91681,111.7569 C 100.80791,111.63592 100.67716,111.51754 100.532,111.43285 C 100.39891,111.34817 100.28026,111.29502 100.14719,111.27083 C 99.977813,111.24664 99.76945,111.23426 99.539604,111.21007 C 99.321834,111.19797 99.072424,111.18982 98.76999,111.18982 C 97.523996,111.18982 96.204837,111.28603 94.840907,111.47336 C 94.83243,111.45353 94.830454,111.4322 94.820654,111.4126 C 94.748053,111.26743 94.658077,111.12852 94.537112,111.00754 C 94.428221,110.88656 94.297466,110.78843 94.152305,110.70374 C 94.065615,110.64859 93.975696,110.61172 93.889016,110.58223 C 94.094689,109.97331 94.312128,109.32781 94.476353,108.82022 C 94.754595,107.99757 94.991636,107.2946 95.185208,106.7139 C 95.294079,106.56874 95.363535,106.41352 95.387738,106.26834 C 95.387729,106.17156 95.350897,106.08973 95.26622,106.00505 C 95.193625,105.92037 95.099706,105.86722 95.002931,105.84302 C 94.978731,105.81884 94.950051,105.80252 94.901666,105.80252 C 93.667687,105.79042 92.327262,106.21558 90.911824,107.09871 C 89.49638,107.99394 88.523481,109.03603 87.954886,110.19742 C 87.846006,110.40309 87.772609,110.57488 87.772609,110.74425 C 87.772609,110.77278 87.77074,110.79861 87.772609,110.82526 C 87.549015,110.86178 87.330227,110.8849 87.104259,110.92653 C 87.624458,109.36591 87.996466,108.15203 88.238428,107.28099 C 88.298909,107.17211 88.343899,107.09844 88.380199,107.03795 C 88.428583,106.96537 88.473572,106.89591 88.52197,106.83542 C 88.546159,106.71445 88.509325,106.60001 88.400452,106.49112 C 88.303662,106.38225 88.160541,106.33726 87.954886,106.34935 C 87.870193,106.36145 87.776275,106.40644 87.691597,106.49112 C 87.619005,106.56371 87.549549,106.64554 87.489066,106.75441 C 87.319692,106.91168 87.090806,107.10374 86.800464,107.32149 C 86.522208,107.53925 86.187037,107.79261 85.787814,108.07085 C 85.279701,108.42169 84.830087,108.71188 84.430863,108.94173 C 84.043734,109.15949 83.716713,109.31893 83.438465,109.42781 C 83.341682,109.4641 83.215141,109.4641 83.094164,109.42781 C 82.99738,109.39151 82.952392,109.30575 82.952393,109.18477 C 82.952393,109.12428 82.976858,109.05877 83.013152,108.96199 C 83.24301,108.50227 83.610803,107.90559 84.106815,107.17972 C 84.699604,106.34497 85.108444,105.8709 85.362501,105.76201 C 85.338303,105.55636 85.248325,105.46638 85.078959,105.47847 z M 75.904348,105.70125 C 76.040448,105.70125 76.184485,105.70336 76.329661,105.72151 C 76.874056,105.782 77.102941,106.00667 77.018263,106.3696 C 76.836791,107.25274 76.141977,108.22959 74.932203,109.30629 C 73.782909,110.3588 72.797913,110.95548 71.975265,111.08855 C 71.588135,111.16114 71.387927,111.0346 71.387928,110.74425 C 71.387928,110.61118 71.416605,110.49252 71.489193,110.35944 C 72.190862,108.68995 73.192171,107.24324 74.486637,106.04555 C 74.6681,105.92458 74.786485,105.87144 74.810685,105.88353 C 75.028442,105.79886 75.245229,105.74571 75.499288,105.72151 C 75.626311,105.70337 75.768247,105.70125 75.904348,105.70125 z M 93.868763,106.24808 C 94.007888,106.23296 94.106017,106.22389 94.172558,106.24808 C 94.257234,106.26018 94.29407,106.37463 94.294076,106.59238 C 94.281971,106.60448 94.273817,106.63711 94.273823,106.6734 C 94.273815,106.6855 94.273817,106.69366 94.273823,106.69365 C 94.285913,106.69366 94.29407,106.70181 94.294076,106.7139 C 94.257775,107.14943 94.09019,107.47645 93.787751,107.7063 C 93.545791,107.92407 93.231139,108.18557 92.856113,108.47591 C 92.493172,108.75416 92.076179,109.05672 91.580173,109.40755 C 90.750494,110.00134 90.144087,110.36743 89.757403,110.56197 C 89.53028,110.58414 89.298539,110.61519 89.068801,110.64299 C 88.959089,110.5513 88.906776,110.39488 88.906777,110.15691 C 88.906776,110.09643 88.906776,110.05144 88.906777,110.01514 C 88.918874,109.97885 88.935184,109.91361 88.947283,109.85312 C 89.201335,109.10306 89.78986,108.37141 90.709294,107.64554 C 91.58033,106.98017 92.459041,106.55502 93.342185,106.34935 C 93.553893,106.29491 93.729638,106.2632 93.868763,106.24808 z M 94.091546,107.76706 C 94.043147,107.91224 93.99816,108.09192 93.949775,108.27338 C 93.913478,108.44275 93.868487,108.61456 93.808004,108.82022 C 93.630971,109.45411 93.457145,110.00612 93.301679,110.48096 C 93.036252,110.45299 92.738021,110.4202 92.370041,110.4202 C 91.680426,110.4202 90.979791,110.4645 90.263728,110.52147 C 90.732136,110.22573 91.252941,109.89692 91.863716,109.46831 C 92.40811,109.08118 92.857728,108.74207 93.220667,108.47591 C 93.595692,108.19767 93.885877,107.96063 94.091546,107.76706 z M 109.70661,109.89362 C 109.62192,109.89362 109.51169,109.92625 109.40282,109.97464 C 109.30603,110.02303 109.26104,110.08433 109.26105,110.15691 C 109.26104,110.19321 109.29366,110.21767 109.34206,110.21767 C 109.40254,110.21767 109.472,110.21373 109.54459,110.23793 C 109.61717,110.25003 109.67847,110.29896 109.72687,110.35944 C 109.78735,110.40784 109.80787,110.4815 109.80788,110.60248 C 109.80787,111.19527 109.23566,111.99216 108.08637,112.97208 C 107.12314,113.7897 106.31852,114.28474 105.65601,114.51131 L 106.44588,114.51131 C 107.07497,114.1877 107.68795,113.74925 108.26865,113.17461 C 108.69207,112.75118 109.04355,112.34656 109.32181,111.95943 C 109.60005,111.5723 109.80025,111.19635 109.90914,110.84552 C 109.98172,110.62776 110.0104,110.45201 110.01041,110.31894 C 110.0104,110.04069 109.91227,109.89362 109.70661,109.89362 z M 92.370041,110.78476 C 92.648281,110.78476 92.901631,110.79291 93.119402,110.80501 C 93.150014,110.80501 93.170874,110.8048 93.200414,110.80501 C 93.071113,111.17936 92.949122,111.52108 92.83586,111.77715 C 90.55259,112.21098 88.3314,112.7956 86.172621,113.47841 C 86.456387,112.75338 86.728194,112.01374 87.002994,111.23032 C 87.261765,111.17632 87.546973,111.13251 87.833368,111.08855 C 87.923999,111.30483 88.134047,111.4126 88.440958,111.4126 C 88.574031,111.4126 88.688475,111.38813 88.785259,111.35184 C 89.038463,111.23833 89.341264,111.07515 89.676391,110.88602 C 90.50001,110.82724 91.384761,110.78476 92.370041,110.78476 z M 93.808004,110.84552 C 94.321172,110.90853 94.580111,111.1273 94.597871,111.51387 C 94.239781,111.5657 93.890599,111.61127 93.524462,111.67589 C 93.633778,111.35852 93.707938,111.14028 93.808004,110.84552 z "
       id="text2455" />
  </g>
</svg>
