<?xml version="1.0" encoding="UTF-8" standalone="no"?>
<!-- Created with Inkscape (http://www.inkscape.org/) -->
<svg
   xmlns:dc="http://purl.org/dc/elements/1.1/"
   xmlns:cc="http://web.resource.org/cc/"
   xmlns:rdf="http://www.w3.org/1999/02/22-rdf-syntax-ns#"
   xmlns:svg="http://www.w3.org/2000/svg"
   xmlns="http://www.w3.org/2000/svg"
   xmlns:xlink="http://www.w3.org/1999/xlink"
   xmlns:sodipodi="http://sodipodi.sourceforge.net/DTD/sodipodi-0.dtd"
   xmlns:inkscape="http://www.inkscape.org/namespaces/inkscape"
   width="128"
   height="128"
   id="svg1877"
   sodipodi:version="0.32"
   inkscape:version="0.44"
   version="1.0"
   sodipodi:docbase="/home/pinheiro/artwork/Oxygen/theme/svg/apps"
   sodipodi:docname="okular.svg">
  <defs
     id="defs1879">
    <linearGradient
       inkscape:collect="always"
       id="linearGradient3106">
      <stop
         style="stop-color:white;stop-opacity:1;"
         offset="0"
         id="stop3108" />
      <stop
         style="stop-color:white;stop-opacity:0;"
         offset="1"
         id="stop3110" />
    </linearGradient>
    <linearGradient
       inkscape:collect="always"
       id="linearGradient3083">
      <stop
         style="stop-color:white;stop-opacity:1;"
         offset="0"
         id="stop3085" />
      <stop
         style="stop-color:white;stop-opacity:0;"
         offset="1"
         id="stop3087" />
    </linearGradient>
    <linearGradient
       inkscape:collect="always"
       id="linearGradient3058">
      <stop
         style="stop-color:white;stop-opacity:1;"
         offset="0"
         id="stop3060" />
      <stop
         style="stop-color:white;stop-opacity:0;"
         offset="1"
         id="stop3062" />
    </linearGradient>
    <linearGradient
       id="linearGradient5477">
      <stop
         style="stop-color:black;stop-opacity:1;"
         offset="0"
         id="stop5479" />
      <stop
         style="stop-color:white;stop-opacity:1;"
         offset="1"
         id="stop5481" />
    </linearGradient>
    <linearGradient
       inkscape:collect="always"
       id="linearGradient3880">
      <stop
         style="stop-color:black;stop-opacity:1;"
         offset="0"
         id="stop3882" />
      <stop
         style="stop-color:black;stop-opacity:0;"
         offset="1"
         id="stop3884" />
    </linearGradient>
    <linearGradient
       inkscape:collect="always"
       id="linearGradient3853">
      <stop
         style="stop-color:black;stop-opacity:1;"
         offset="0"
         id="stop3855" />
      <stop
         style="stop-color:black;stop-opacity:0;"
         offset="1"
         id="stop3857" />
    </linearGradient>
    <linearGradient
       id="linearGradient3837">
      <stop
         style="stop-color:black;stop-opacity:1;"
         offset="0"
         id="stop3839" />
      <stop
         id="stop3849"
         offset="0.25"
         style="stop-color:black;stop-opacity:0.59927797;" />
      <stop
         id="stop3847"
         offset="0.5"
         style="stop-color:black;stop-opacity:0.27797833;" />
      <stop
         style="stop-color:black;stop-opacity:0;"
         offset="1"
         id="stop3841" />
    </linearGradient>
    <linearGradient
       id="linearGradient3814">
      <stop
         style="stop-color:white;stop-opacity:0;"
         offset="0"
         id="stop3816" />
      <stop
         id="stop3824"
         offset="0.18531764"
         style="stop-color:white;stop-opacity:0;" />
      <stop
         id="stop3822"
         offset="0.28106508"
         style="stop-color:white;stop-opacity:0.33574006;" />
      <stop
         style="stop-color:white;stop-opacity:0.1696751;"
         offset="0.45126861"
         id="stop3829" />
      <stop
         id="stop3831"
         offset="0.47940481"
         style="stop-color:white;stop-opacity:0;" />
      <stop
         style="stop-color:white;stop-opacity:0.3068592;"
         offset="0.65610015"
         id="stop3833" />
      <stop
         style="stop-color:white;stop-opacity:0;"
         offset="1"
         id="stop3818" />
    </linearGradient>
    <linearGradient
       inkscape:collect="always"
       id="linearGradient3804">
      <stop
         style="stop-color:white;stop-opacity:1;"
         offset="0"
         id="stop3806" />
      <stop
         style="stop-color:white;stop-opacity:0;"
         offset="1"
         id="stop3808" />
    </linearGradient>
    <linearGradient
       inkscape:collect="always"
       id="linearGradient3783">
      <stop
         style="stop-color:white;stop-opacity:1;"
         offset="0"
         id="stop3785" />
      <stop
         style="stop-color:white;stop-opacity:0;"
         offset="1"
         id="stop3787" />
    </linearGradient>
    <linearGradient
       inkscape:collect="always"
       id="linearGradient3771">
      <stop
         style="stop-color:#f7fafe;stop-opacity:1;"
         offset="0"
         id="stop3773" />
      <stop
         style="stop-color:#f7fafe;stop-opacity:0;"
         offset="1"
         id="stop3775" />
    </linearGradient>
    <linearGradient
       inkscape:collect="always"
       id="linearGradient3756">
      <stop
         style="stop-color:black;stop-opacity:1;"
         offset="0"
         id="stop3758" />
      <stop
         style="stop-color:black;stop-opacity:0;"
         offset="1"
         id="stop3760" />
    </linearGradient>
    <linearGradient
       inkscape:collect="always"
       id="linearGradient3742">
      <stop
         style="stop-color:white;stop-opacity:1;"
         offset="0"
         id="stop3744" />
      <stop
         style="stop-color:white;stop-opacity:0;"
         offset="1"
         id="stop3746" />
    </linearGradient>
    <linearGradient
       inkscape:collect="always"
       id="linearGradient3710">
      <stop
         style="stop-color:white;stop-opacity:1;"
         offset="0"
         id="stop3712" />
      <stop
         style="stop-color:white;stop-opacity:0;"
         offset="1"
         id="stop3714" />
    </linearGradient>
    <linearGradient
       id="linearGradient3695">
      <stop
         style="stop-color:#626262;stop-opacity:1;"
         offset="0"
         id="stop3697" />
      <stop
         style="stop-color:#efefef;stop-opacity:1;"
         offset="1"
         id="stop3699" />
    </linearGradient>
    <linearGradient
       inkscape:collect="always"
       xlink:href="#linearGradient3880"
       id="linearGradient3886"
       x1="53.777279"
       y1="53.014202"
       x2="34.243549"
       y2="148.6344"
       gradientUnits="userSpaceOnUse" />
    <linearGradient
       inkscape:collect="always"
       xlink:href="#linearGradient3771"
       id="linearGradient4014"
       gradientUnits="userSpaceOnUse"
       x1="28.138407"
       y1="5.6195269"
       x2="29.138409"
       y2="16.588285"
       gradientTransform="matrix(2.695388,0.213097,-0.213097,2.695388,14.72041,-36.629)" />
    <linearGradient
       inkscape:collect="always"
       xlink:href="#linearGradient3771"
       id="linearGradient4017"
       gradientUnits="userSpaceOnUse"
       x1="28.138407"
       y1="5.6195269"
       x2="29.138409"
       y2="16.588285"
       gradientTransform="matrix(2.695388,0.213097,-0.213097,2.695388,14.72041,-36.629)" />
    <linearGradient
       inkscape:collect="always"
       xlink:href="#linearGradient3771"
       id="linearGradient4020"
       gradientUnits="userSpaceOnUse"
       x1="28.138407"
       y1="5.6195269"
       x2="29.138409"
       y2="16.588285"
       gradientTransform="matrix(2.695388,0.213097,-0.213097,2.695388,14.72041,-36.629)" />
    <radialGradient
       inkscape:collect="always"
       xlink:href="#linearGradient3853"
       id="radialGradient4027"
       gradientUnits="userSpaceOnUse"
       gradientTransform="matrix(0.933029,-0.126122,13.99076,108.242,-969.0881,-8033.763)"
       cx="-36.857941"
       cy="75.225319"
       fx="-36.857941"
       fy="75.225319"
       r="0.9722718" />
    <linearGradient
       inkscape:collect="always"
       xlink:href="#linearGradient3710"
       id="linearGradient4031"
       gradientUnits="userSpaceOnUse"
       gradientTransform="matrix(2.838573,0.224418,-0.224418,2.838573,15.70712,-18.07678)"
       x1="4.9107008"
       y1="44.649334"
       x2="58.884792"
       y2="36.866131" />
    <linearGradient
       inkscape:collect="always"
       xlink:href="#linearGradient3710"
       id="linearGradient4034"
       gradientUnits="userSpaceOnUse"
       gradientTransform="matrix(2.838573,0.224418,-0.224418,2.838573,15.70712,-18.07678)"
       x1="4.9107008"
       y1="44.649334"
       x2="58.884792"
       y2="36.866131" />
    <linearGradient
       inkscape:collect="always"
       xlink:href="#linearGradient3710"
       id="linearGradient4037"
       gradientUnits="userSpaceOnUse"
       gradientTransform="matrix(2.838573,0.224418,-0.224418,2.838573,15.70712,-18.07678)"
       x1="4.9107008"
       y1="44.649334"
       x2="58.884792"
       y2="36.866131" />
    <linearGradient
       inkscape:collect="always"
       xlink:href="#linearGradient3837"
       id="linearGradient4042"
       gradientUnits="userSpaceOnUse"
       x1="20.606983"
       y1="54.213417"
       x2="14.043751"
       y2="16.4375"
       gradientTransform="matrix(2.695388,0.213097,-0.213097,2.695388,14.72041,-36.629)" />
    <linearGradient
       inkscape:collect="always"
       xlink:href="#linearGradient3804"
       id="linearGradient4045"
       gradientUnits="userSpaceOnUse"
       x1="6.28125"
       y1="35.763672"
       x2="14.3125"
       y2="35.763672"
       gradientTransform="matrix(2.695388,0.213097,-0.213097,2.695388,14.72041,-36.629)" />
    <linearGradient
       inkscape:collect="always"
       xlink:href="#linearGradient3783"
       id="linearGradient4048"
       gradientUnits="userSpaceOnUse"
       x1="5.323966"
       y1="55.630238"
       x2="16.25"
       y2="54.984375"
       gradientTransform="matrix(2.695388,0.213097,-0.213097,2.695388,14.72041,-36.629)" />
    <linearGradient
       inkscape:collect="always"
       xlink:href="#linearGradient3783"
       id="linearGradient4051"
       gradientUnits="userSpaceOnUse"
       x1="15.6875"
       y1="48.890625"
       x2="16.753466"
       y2="55.4375"
       gradientTransform="matrix(2.695388,0.213097,-0.213097,2.695388,14.72041,-36.629)" />
    <linearGradient
       inkscape:collect="always"
       xlink:href="#linearGradient3783"
       id="linearGradient4054"
       gradientUnits="userSpaceOnUse"
       x1="15.6875"
       y1="48.890625"
       x2="16.25"
       y2="54.984375"
       gradientTransform="matrix(2.695388,0.213097,-0.213097,2.695388,14.72041,-36.629)" />
    <linearGradient
       inkscape:collect="always"
       xlink:href="#linearGradient3756"
       id="linearGradient4057"
       gradientUnits="userSpaceOnUse"
       x1="11.967802"
       y1="50.304192"
       x2="15.346087"
       y2="57.638905"
       gradientTransform="matrix(2.695388,0.213097,-0.213097,2.695388,14.72041,-36.629)" />
    <linearGradient
       inkscape:collect="always"
       xlink:href="#linearGradient3710"
       id="linearGradient4061"
       gradientUnits="userSpaceOnUse"
       gradientTransform="matrix(2.838573,0.224418,-0.224418,2.838573,15.09863,-9.622281)"
       x1="4.9107008"
       y1="44.649334"
       x2="58.884792"
       y2="36.866131" />
    <linearGradient
       inkscape:collect="always"
       xlink:href="#linearGradient3710"
       id="linearGradient4064"
       gradientUnits="userSpaceOnUse"
       gradientTransform="matrix(2.838573,0.224418,-0.224418,2.838573,15.09863,-9.622281)"
       x1="4.9107008"
       y1="44.649334"
       x2="58.884792"
       y2="36.866131" />
    <linearGradient
       inkscape:collect="always"
       xlink:href="#linearGradient3695"
       id="linearGradient4068"
       gradientUnits="userSpaceOnUse"
       gradientTransform="matrix(2.838573,0.224418,-0.224418,2.838573,15.70712,-18.07678)"
       x1="32.438522"
       y1="40"
       x2="33.050251"
       y2="42.76342" />
    <linearGradient
       inkscape:collect="always"
       xlink:href="#linearGradient3814"
       id="linearGradient4071"
       gradientUnits="userSpaceOnUse"
       x1="4.5181999"
       y1="41.236893"
       x2="18.826626"
       y2="38.015541"
       gradientTransform="matrix(2.695388,0.213097,-0.213097,2.695388,14.72041,-36.629)" />
    <linearGradient
       inkscape:collect="always"
       xlink:href="#linearGradient3742"
       id="linearGradient4075"
       gradientUnits="userSpaceOnUse"
       gradientTransform="matrix(2.838573,0.224418,-0.224418,2.838573,15.70712,-18.07678)"
       x1="36.10664"
       y1="42.068642"
       x2="38.780388"
       y2="40.875401" />
    <linearGradient
       inkscape:collect="always"
       xlink:href="#linearGradient3880"
       id="linearGradient4078"
       gradientUnits="userSpaceOnUse"
       x1="53.777279"
       y1="53.014202"
       x2="34.243549"
       y2="148.6344" />
    <linearGradient
       inkscape:collect="always"
       xlink:href="#linearGradient3880"
       id="linearGradient4080"
       gradientUnits="userSpaceOnUse"
       x1="53.777279"
       y1="53.014202"
       x2="34.243549"
       y2="148.6344" />
    <linearGradient
       inkscape:collect="always"
       xlink:href="#XMLID_5_"
       id="linearGradient5127"
       x1="92.956825"
       y1="-8.9549065"
       x2="59.82354"
       y2="206.72591"
       gradientUnits="userSpaceOnUse"
       gradientTransform="matrix(0.965146,0,0,0.965146,2.355023,1.471211)" />
    <radialGradient
       id="XMLID_5_"
       cx="51.9995"
       cy="-9"
       r="111.0006"
       gradientUnits="userSpaceOnUse">
      <stop
         offset="0.15000001"
         style="stop-color:#c20600;stop-opacity:1;"
         id="stop4094" />
      <stop
         id="stop2886"
         style="stop-color:#860202;stop-opacity:1;"
         offset="0.57499999" />
      <stop
         offset="1"
         style="stop-color:#760101;stop-opacity:1;"
         id="stop4102" />
    </radialGradient>
    <linearGradient
       inkscape:collect="always"
       xlink:href="#linearGradient5477"
       id="linearGradient5483"
       x1="74.0625"
       y1="85.125"
       x2="108.0625"
       y2="126.0625"
       gradientUnits="userSpaceOnUse" />
    <linearGradient
       inkscape:collect="always"
       xlink:href="#linearGradient5477"
       id="linearGradient5487"
       gradientUnits="userSpaceOnUse"
       x1="39.8125"
       y1="79.125"
       x2="45.3125"
       y2="138.875"
       gradientTransform="translate(0,-1)" />
    <linearGradient
       inkscape:collect="always"
       xlink:href="#linearGradient5477"
       id="linearGradient5491"
       gradientUnits="userSpaceOnUse"
       gradientTransform="translate(0,-2)"
       x1="34.5625"
       y1="99.375"
       x2="44.0625"
       y2="125.125" />
    <linearGradient
       inkscape:collect="always"
       xlink:href="#linearGradient5477"
       id="linearGradient5495"
       gradientUnits="userSpaceOnUse"
       x1="82.3125"
       y1="61.875"
       x2="36.3125"
       y2="128.3125"
       gradientTransform="translate(0,0.7)" />
    <linearGradient
       inkscape:collect="always"
       xlink:href="#linearGradient5477"
       id="linearGradient5499"
       gradientUnits="userSpaceOnUse"
       gradientTransform="translate(0,-3.3)"
       x1="82.3125"
       y1="61.875"
       x2="72.327019"
       y2="133.3125" />
    <linearGradient
       inkscape:collect="always"
       xlink:href="#linearGradient5477"
       id="linearGradient5503"
       gradientUnits="userSpaceOnUse"
       gradientTransform="translate(0,1.7)"
       x1="82.3125"
       y1="61.875"
       x2="72.327019"
       y2="133.3125" />
    <linearGradient
       inkscape:collect="always"
       xlink:href="#linearGradient3058"
       id="linearGradient3070"
       gradientUnits="userSpaceOnUse"
       gradientTransform="matrix(1.556306,0,0,1.556306,50.77552,-229.5802)"
       x1="37.761684"
       y1="-113.79204"
       x2="198.91217"
       y2="195.86526" />
    <linearGradient
       inkscape:collect="always"
       xlink:href="#linearGradient3083"
       id="linearGradient3089"
       x1="-34.184532"
       y1="36.065971"
       x2="183.04672"
       y2="46.516651"
       gradientUnits="userSpaceOnUse" />
    <linearGradient
       inkscape:collect="always"
       xlink:href="#linearGradient3106"
       id="linearGradient2033"
       gradientUnits="userSpaceOnUse"
       gradientTransform="translate(1,9.75)"
       x1="5.5"
       y1="23.5"
       x2="118.81155"
       y2="14.357233" />
    <linearGradient
       inkscape:collect="always"
       xlink:href="#linearGradient3106"
       id="linearGradient2044"
       gradientUnits="userSpaceOnUse"
       gradientTransform="matrix(0.743717,-5.185456e-3,5.51366e-3,0.790789,49.17392,85.52182)"
       x1="-50.616333"
       y1="26.287924"
       x2="115.02144"
       y2="11.479097" />
  </defs>
  <sodipodi:namedview
     id="base"
     pagecolor="#ffffff"
     bordercolor="#666666"
     borderopacity="1.0"
     inkscape:pageopacity="0.0"
     inkscape:pageshadow="2"
     inkscape:zoom="0.70710682"
     inkscape:cx="173.01036"
     inkscape:cy="169.80105"
     inkscape:current-layer="layer1"
     showgrid="false"
     inkscape:document-units="px"
     inkscape:grid-bbox="true"
     width="128px"
     height="128px"
     showguides="true"
     inkscape:guide-bbox="true"
     inkscape:window-width="1095"
     inkscape:window-height="1012"
     inkscape:window-x="818"
     inkscape:window-y="54" />
  <metadata
     id="metadata1882">
    <rdf:RDF>
      <cc:Work
         rdf:about="">
        <dc:format>image/svg+xml</dc:format>
        <dc:type
           rdf:resource="http://purl.org/dc/dcmitype/StillImage" />
      </cc:Work>
    </rdf:RDF>
  </metadata>
  <g
     id="layer1"
     inkscape:label="Layer 1"
     inkscape:groupmode="layer">
    <path
       id="path5469"
       d="M 97.792404,4.0756182 L 35.902429,10.228423 L 29.448017,10.922122 L 28.332067,11.314212 L 27.366921,11.133247 L 20.641061,11.917428 C 19.226177,12.076011 18.190257,13.367828 18.348841,14.782704 L 17.59482,23.257891 L 28.577641,119.78887 C 29.023519,122.19945 30.773829,124.06002 32.830315,123.67962 L 47.971039,121.68901 L 48.0012,121.68901 L 114.32569,113.46028 C 116.31062,113.23781 117.68491,111.43383 117.46242,109.4489 L 116.16122,105.11949 C 117.14889,104.37034 117.72795,103.13281 117.57878,101.8018 L 101.74347,7.2123421 C 101.52101,5.2274127 99.777338,3.8531444 97.792404,4.0756182 z "
       style="opacity:0.3;fill:none;fill-opacity:1;fill-rule:nonzero;stroke:black;stroke-width:0.96514583;stroke-linecap:round;stroke-linejoin:round;stroke-miterlimit:4;stroke-dasharray:none;stroke-dashoffset:4;stroke-opacity:1"
       sodipodi:nodetypes="cccccccccccccccccc" />
    <path
       id="path5437"
       d="M 97.792404,4.0756182 L 35.902429,10.228423 L 29.448017,10.922122 L 28.332067,11.314212 L 27.366921,11.133247 L 19.977523,11.887267 C 18.562639,12.04585 17.526719,13.337667 17.685302,14.752544 L 17.021765,23.257891 L 28.151102,120.55665 C 28.59698,122.96722 30.347291,124.82779 32.403776,124.4474 L 47.544501,122.45678 L 47.574661,122.45678 L 114.41101,114.31336 C 116.39593,114.09089 117.77021,112.28692 117.54773,110.30198 L 116.67307,105.2048 C 117.66074,104.45566 118.2398,103.21811 118.09063,101.88711 L 101.74347,7.2123421 C 101.52101,5.2274127 99.777338,3.8531444 97.792404,4.0756182 z "
       style="opacity:0.2;fill:none;fill-opacity:1;fill-rule:nonzero;stroke:black;stroke-width:2.89543724;stroke-linecap:round;stroke-linejoin:round;stroke-miterlimit:4;stroke-dasharray:none;stroke-dashoffset:4;stroke-opacity:1" />
    <path
       style="opacity:0.1;fill:none;fill-opacity:1;fill-rule:nonzero;stroke:black;stroke-width:4.82572889;stroke-linecap:round;stroke-linejoin:round;stroke-miterlimit:4;stroke-dasharray:none;stroke-dashoffset:4;stroke-opacity:1"
       d="M 97.792404,4.0756182 L 35.902429,10.228423 L 29.448017,10.922122 L 28.332067,11.314212 L 27.366921,11.133247 L 19.977523,11.887267 C 18.562639,12.04585 17.526719,13.337667 17.685302,14.752544 L 17.021765,23.257891 L 28.151102,120.55665 C 28.59698,122.96722 30.347291,124.82779 32.403776,124.4474 L 114.41101,114.31336 C 116.39593,114.09089 117.77021,112.28692 117.54773,110.30198 L 116.67307,105.2048 C 117.66074,104.45566 118.2398,103.21811 118.09063,101.88711 L 101.74347,7.2123421 C 101.52101,5.2274127 99.777338,3.8531444 97.792404,4.0756182 z "
       id="path5439"
       sodipodi:nodetypes="cccccccccccccccc" />
    <path
       id="path5441"
       d="M 97.792404,4.0756182 L 35.902429,10.228423 L 29.448017,10.922122 L 28.332067,11.314212 L 27.366921,11.133247 L 19.977523,11.887267 C 18.562639,12.04585 17.526719,13.337667 17.685302,14.752544 L 17.021765,23.257891 L 28.151102,120.55665 C 28.59698,122.96722 30.347291,124.82779 32.403776,124.4474 L 114.41101,114.31336 C 116.39593,114.09089 117.77021,112.28692 117.54773,110.30198 L 116.67307,105.2048 C 117.66074,104.45566 118.2398,103.21811 118.09063,101.88711 L 101.74347,7.2123421 C 101.52101,5.2274127 99.777338,3.8531444 97.792404,4.0756182 z "
       style="opacity:0.05;fill:none;fill-opacity:1;fill-rule:nonzero;stroke:black;stroke-width:6.75602055;stroke-linecap:round;stroke-linejoin:round;stroke-miterlimit:4;stroke-dasharray:none;stroke-dashoffset:4;stroke-opacity:1"
       sodipodi:nodetypes="cccccccccccccccc" />
    <path
       style="opacity:0.3;fill:black;fill-opacity:1;fill-rule:nonzero;stroke:none;stroke-width:1;stroke-linecap:round;stroke-linejoin:round;stroke-miterlimit:4;stroke-dasharray:none;stroke-dashoffset:4;stroke-opacity:1"
       d="M 97.753653,3.5824674 L 29.409266,10.42897 C 29.367919,10.433779 29.327369,10.443917 29.288623,10.459131 L 28.263155,10.821061 L 27.448813,10.670257 C 27.410068,10.655042 27.369517,10.644905 27.328171,10.640096 L 19.938773,11.394117 C 18.292654,11.578617 17.060824,13.070326 17.194139,14.711805 C 17.196661,14.742855 17.190647,14.77113 17.194139,14.802287 L 16.530602,23.217152 C 16.527768,23.247246 16.527768,23.277541 16.530602,23.307635 L 27.65994,120.60639 C 27.669543,120.61689 27.679607,120.62695 27.6901,120.63656 C 27.929541,121.93106 28.511123,123.09123 29.348944,123.89393 C 30.179324,124.68949 31.276595,125.12604 32.455507,124.91939 L 32.485668,124.91939 L 114.46274,114.78536 C 116.71012,114.53347 118.2723,112.49695 118.02172,110.26124 C 118.02204,110.2512 118.02204,110.24112 118.02172,110.23108 L 117.17721,105.31487 C 118.13134,104.45457 118.71898,103.22367 118.56461,101.84638 C 118.56492,101.83633 118.56492,101.82626 118.56461,101.81621 L 102.21745,7.1716033 C 102.21633,7.1616167 102.21863,7.1514028 102.21745,7.1414425 C 101.95227,4.9195406 99.97831,3.3331253 97.753653,3.5824674 z "
       id="path5301"
       sodipodi:nodetypes="cccccccscccccscccsccsccsc" />
    <path
       sodipodi:nodetypes="ccccccc"
       id="path2792"
       d="M 36.570581,17.536448 L 48.216306,121.43988 L 115.10747,113.29155 C 117.09241,113.06908 118.46075,111.25447 118.23827,109.26953 L 100.9342,9.4970363 C 100.71172,7.5121023 98.985556,6.1338725 97.000595,6.3563475 L 36.570581,17.536448 z "
       style="fill:#721919;fill-opacity:1;fill-rule:nonzero;stroke:none;stroke-width:0.1;stroke-linecap:round;stroke-linejoin:round;stroke-miterlimit:4;stroke-dasharray:none;stroke-dashoffset:4;stroke-opacity:0.1300813" />
    <path
       style="fill:url(#linearGradient4075);fill-opacity:1;fill-rule:evenodd;stroke:none;stroke-width:1px;stroke-linecap:butt;stroke-linejoin:miter;stroke-opacity:1"
       d="M 113.81669,111.18694 C 117.30402,110.55608 116.28874,105.36648 116.97441,102.10651 L 108.79051,101.83818 L 113.81669,111.18694 z "
       id="path3740"
       sodipodi:nodetypes="cccc" />
    <path
       style="fill:black;fill-opacity:1;fill-rule:nonzero;stroke:none;stroke-width:0.1;stroke-linecap:round;stroke-linejoin:round;stroke-miterlimit:4;stroke-dasharray:none;stroke-dashoffset:4;stroke-opacity:0.1300813"
       d="M 36.808077,9.1846991 L 30.133175,9.8837085 L 29.025475,10.295044 L 28.044943,10.102391 L 20.648087,10.877005 C 19.233209,11.035587 18.210835,12.316812 18.369417,13.731689 L 17.696163,22.247406 L 28.839539,119.52079 C 29.285421,121.93137 31.034018,123.81589 33.090509,123.43549 L 48.267083,121.42809 L 49.322706,112.82291 C 50.238172,112.34747 50.80839,111.34249 50.686266,110.25292 L 39.574054,11.456353 C 39.415472,10.041478 38.222953,9.0261168 36.808077,9.1846991 z "
       id="rect2790"
       sodipodi:nodetypes="cccccccccccccc" />
    <path
       style="fill:url(#linearGradient4071);fill-opacity:1;fill-rule:nonzero;stroke:none;stroke-width:0.1;stroke-linecap:round;stroke-linejoin:round;stroke-miterlimit:4;stroke-dasharray:none;stroke-dashoffset:4;stroke-opacity:0.1300813"
       d="M 37.329177,9.7408259 L 30.659279,10.484863 L 29.524323,10.903677 L 28.52687,10.655304 L 21.176466,11.430298 C 19.76159,11.588883 18.672378,12.88125 18.83096,14.296127 L 18.158371,22.803445 L 28.768047,117.38389 C 28.785919,115.90815 31.437141,112.24478 33.179731,111.96917 L 50.039585,109.91182 C 44.231532,77.479745 41.127561,43.78341 37.329177,9.7408259 z "
       id="path3812"
       sodipodi:nodetypes="ccccccccccc" />
    <path
       style="fill:url(#linearGradient4068);fill-opacity:1;fill-rule:evenodd;stroke:none;stroke-width:1px;stroke-linecap:butt;stroke-linejoin:miter;stroke-opacity:1"
       d="M 114.40208,105.05163 L 113.93985,111.16633 L 33.519749,121.11393 C 30.338857,121.7023 30.177401,115.08211 33.805396,114.69493 L 114.40208,105.05163 z "
       id="path2797"
       sodipodi:nodetypes="ccccc" />
    <path
       sodipodi:nodetypes="cccccc"
       id="path3724"
       d="M 48.266235,121.35946 L 115.05385,113.32883 C 116.94715,113.11662 118.28212,111.43694 118.20799,109.5615 C 117.90098,111.03949 116.70429,112.26465 115.12396,112.44177 L 48.176746,120.51557 L 48.266235,121.35946 z "
       style="fill:black;fill-opacity:0.47560975;fill-rule:nonzero;stroke:none;stroke-width:0.1;stroke-linecap:round;stroke-linejoin:round;stroke-miterlimit:4;stroke-dasharray:none;stroke-dashoffset:4;stroke-opacity:0.1300813" />
    <path
       sodipodi:nodetypes="cccccc"
       id="path3726"
       d="M 48.240405,120.68826 L 115.05608,112.50205 C 116.9494,112.28984 118.28437,110.61018 118.21024,108.73474 C 117.90324,110.21273 116.70653,111.43789 115.12622,111.615 L 48.03265,119.81204 L 48.240405,120.68826 z "
       style="opacity:0.49180328;fill:url(#linearGradient4064);fill-opacity:1;fill-rule:nonzero;stroke:none;stroke-width:0.1;stroke-linecap:round;stroke-linejoin:round;stroke-miterlimit:4;stroke-dasharray:none;stroke-dashoffset:4;stroke-opacity:0.1300813" />
    <path
       style="opacity:0.34426228;fill:url(#linearGradient4061);fill-opacity:1;fill-rule:nonzero;stroke:none;stroke-width:0.1;stroke-linecap:round;stroke-linejoin:round;stroke-miterlimit:4;stroke-dasharray:none;stroke-dashoffset:4;stroke-opacity:0.1300813"
       d="M 48.1876,120.55786 L 115.05608,112.50205 C 116.9494,112.28984 118.28437,110.61018 118.21024,108.73474 C 117.90324,110.21273 116.66272,111.99229 115.08238,112.16942 L 48.092715,119.98179 L 48.1876,120.55786 z "
       id="path3728"
       sodipodi:nodetypes="cccccc" />
    <g
       id="g5505"
       style="opacity:0.39754098">
      <path
         sodipodi:nodetypes="cc"
         id="path5475"
         d="M 30.625,118.75 C 32.625,118.75 114.11742,108.58839 114.11742,108.58839"
         style="fill:none;fill-opacity:0.75;fill-rule:evenodd;stroke:url(#linearGradient5483);stroke-width:0.1;stroke-linecap:butt;stroke-linejoin:miter;stroke-opacity:1;stroke-miterlimit:4;stroke-dasharray:none" />
      <path
         style="fill:none;fill-opacity:0.75;fill-rule:evenodd;stroke:url(#linearGradient5487);stroke-width:0.1;stroke-linecap:butt;stroke-linejoin:miter;stroke-miterlimit:4;stroke-dasharray:none;stroke-opacity:1"
         d="M 31.066942,117.61742 C 33.066942,117.61742 114.25,107.5 114.25,107.5"
         id="path5485"
         sodipodi:nodetypes="cc" />
      <path
         sodipodi:nodetypes="cc"
         id="path5489"
         d="M 31.464689,116.79419 C 33.464689,116.79419 114.25,106.5 114.25,106.5"
         style="fill:none;fill-opacity:0.75;fill-rule:evenodd;stroke:url(#linearGradient5491);stroke-width:0.1;stroke-linecap:butt;stroke-linejoin:miter;stroke-miterlimit:4;stroke-dasharray:none;stroke-opacity:1" />
      <path
         style="fill:none;fill-opacity:0.75;fill-rule:evenodd;stroke:url(#linearGradient5495);stroke-width:0.1;stroke-linecap:butt;stroke-linejoin:miter;stroke-miterlimit:4;stroke-dasharray:none;stroke-opacity:1"
         d="M 31.332107,119.81742 C 33.332107,119.81742 114.02903,109.7 114.02903,109.7"
         id="path5493"
         sodipodi:nodetypes="cc" />
      <path
         sodipodi:nodetypes="cc"
         id="path5497"
         d="M 31.906631,115.81742 C 33.906631,115.81742 114.02903,105.7 114.02903,105.7"
         style="fill:none;fill-opacity:0.75;fill-rule:evenodd;stroke:url(#linearGradient5499);stroke-width:0.1;stroke-linecap:butt;stroke-linejoin:miter;stroke-miterlimit:4;stroke-dasharray:none;stroke-opacity:1" />
      <path
         style="fill:none;fill-opacity:0.75;fill-rule:evenodd;stroke:url(#linearGradient5503);stroke-width:0.1;stroke-linecap:butt;stroke-linejoin:miter;stroke-miterlimit:4;stroke-dasharray:none;stroke-opacity:1"
         d="M 32.039214,120.90581 C 34.039214,120.90581 114.02903,110.7 114.02903,110.7"
         id="path5501"
         sodipodi:nodetypes="cc" />
    </g>
    <path
       style="opacity:0.68999999;fill:black;fill-opacity:0.47560975;fill-rule:nonzero;stroke:none;stroke-width:0.1;stroke-linecap:round;stroke-linejoin:round;stroke-miterlimit:4;stroke-dasharray:none;stroke-dashoffset:4;stroke-opacity:0.1300813"
       d="M 48.266235,121.35946 L 115.05385,113.32883 C 116.94715,113.11662 118.28212,111.43694 118.20799,109.5615 C 117.92019,111.64351 116.62134,112.74903 115.04103,112.92614 L 48.283162,120.9658 L 48.266235,121.35946 z "
       id="path3732"
       sodipodi:nodetypes="cccccc" />
    <path
       sodipodi:nodetypes="ccccc"
       id="path3754"
       d="M 114.40208,105.05163 L 113.93985,111.16633 L 33.519749,121.11393 C 30.338857,121.7023 30.177401,115.08211 33.805396,114.69493 L 114.40208,105.05163 z "
       style="fill:url(#linearGradient4057);fill-opacity:1;fill-rule:evenodd;stroke:none;stroke-width:1px;stroke-linecap:butt;stroke-linejoin:miter;stroke-opacity:1" />
    <path
       style="opacity:0.42213117;fill:url(#linearGradient4054);fill-opacity:1;fill-rule:evenodd;stroke:none;stroke-width:1px;stroke-linecap:butt;stroke-linejoin:miter;stroke-opacity:1"
       d="M 30.323763,116.57455 C 30.408002,115.85521 31.699233,114.27239 32.130588,114.08992 C 37.659649,113.48171 43.188711,112.87349 48.717771,112.26527 C 48.690475,111.89584 48.663177,111.5264 48.63588,111.15695 C 43.02037,111.78658 37.404856,112.41622 31.789345,113.04585 C 31.122266,113.06924 30.413377,115.51661 30.323763,116.57455 z "
       id="path3781"
       sodipodi:nodetypes="cccccc" />
    <path
       sodipodi:nodetypes="ccccsc"
       id="path3791"
       d="M 30.323763,116.57455 C 30.408002,115.85521 32.162414,114.09924 32.59377,113.91677 C 38.122831,113.30856 42.868192,112.75825 48.397253,112.15004 C 48.369957,111.7806 48.276764,111.64356 48.249468,111.27411 C 42.633958,111.90374 38.821907,112.47936 32.746139,113.12663 C 31.067199,113.3055 30.413377,115.51661 30.323763,116.57455 z "
       style="opacity:0.42213117;fill:url(#linearGradient4051);fill-opacity:1;fill-rule:evenodd;stroke:none;stroke-width:1px;stroke-linecap:butt;stroke-linejoin:miter;stroke-opacity:1" />
    <path
       style="opacity:0.42213117;fill:url(#linearGradient4048);fill-opacity:1;fill-rule:evenodd;stroke:none;stroke-width:1px;stroke-linecap:butt;stroke-linejoin:miter;stroke-opacity:1"
       d="M 30.323763,116.57455 C 30.456774,116.58919 30.543259,116.1674 30.693915,115.87939 C 31.12948,115.04669 31.926993,113.95817 32.861792,113.93796 C 38.390852,113.32974 42.868192,112.75825 48.397253,112.15004 C 48.369957,111.7806 48.218,111.85079 48.190705,111.48137 C 42.575193,112.11098 38.3617,112.8215 32.74619,113.45112 C 31.589698,113.62771 30.769537,114.79846 30.442076,115.79649 C 30.346984,116.08632 30.240555,116.57197 30.323763,116.57455 z "
       id="path3793"
       sodipodi:nodetypes="csccccsc" />
    <path
       style="opacity:0.36885244;fill:url(#linearGradient4045);fill-opacity:1;fill-rule:nonzero;stroke:none;stroke-width:0.1;stroke-linecap:round;stroke-linejoin:round;stroke-miterlimit:4;stroke-dasharray:none;stroke-dashoffset:4;stroke-opacity:0.1300813"
       d="M 28.146,10.648501 L 40.465125,113.73176 L 41.664336,113.5723 L 29.12739,10.832036 L 28.146,10.648501 z "
       id="path3799"
       sodipodi:nodetypes="ccccc" />
    <path
       sodipodi:nodetypes="ccccccccccc"
       id="path3835"
       d="M 37.726641,13.669124 L 31.056744,14.413162 L 29.921786,14.831976 L 28.924334,14.583602 L 21.573931,15.358596 C 20.159054,15.517181 19.069842,16.809548 19.228425,18.224425 L 18.555835,26.731743 L 28.768047,117.38389 C 28.785919,115.90815 30.687928,112.24548 33.179731,111.96917 L 50.039585,109.91182 C 44.231532,77.479745 41.525027,47.711708 37.726641,13.669124 z "
       style="fill:url(#linearGradient4042);fill-opacity:1;fill-rule:nonzero;stroke:none;stroke-width:0.1;stroke-linecap:round;stroke-linejoin:round;stroke-miterlimit:4;stroke-dasharray:none;stroke-dashoffset:4;stroke-opacity:0.1300813" />
    <path
       style="fill:url(#linearGradient5127);fill-opacity:1.0;fill-rule:nonzero;stroke:none;stroke-width:0.1;stroke-linecap:round;stroke-linejoin:round;stroke-miterlimit:4;stroke-dasharray:none;stroke-dashoffset:4;stroke-opacity:0.1300813"
       d="M 36.576034,9.2019109 L 48.88956,112.92418 L 115.64536,104.89136 C 117.6303,104.66889 118.99861,102.85427 118.77615,100.86935 L 102.41452,6.1915657 C 102.19207,4.2066339 100.46587,2.8284046 98.480939,3.0508791 L 36.576034,9.2019109 z "
       id="rect1887"
       sodipodi:nodetypes="ccccccc" />
    <path
       style="fill:black;fill-opacity:0.47560975;fill-rule:nonzero;stroke:none;stroke-width:0.1;stroke-linecap:round;stroke-linejoin:round;stroke-miterlimit:4;stroke-dasharray:none;stroke-dashoffset:4;stroke-opacity:0.1300813"
       d="M 48.87475,112.90496 L 115.66234,104.87432 C 117.55566,104.66211 118.89061,102.98245 118.8165,101.10701 C 118.50951,102.58499 117.31279,103.81015 115.73246,103.98727 L 48.785261,112.06107 L 48.87475,112.90496 z "
       id="path3703"
       sodipodi:nodetypes="cccccc" />
    <path
       style="opacity:0.49180328;fill:url(#linearGradient4037);fill-opacity:1;fill-rule:nonzero;stroke:none;stroke-width:0.1;stroke-linecap:round;stroke-linejoin:round;stroke-miterlimit:4;stroke-dasharray:none;stroke-dashoffset:4;stroke-opacity:0.1300813"
       d="M 48.84892,112.23377 L 115.66459,104.04756 C 117.55792,103.83533 118.89288,102.15566 118.81874,100.28023 C 118.51177,101.75823 117.31503,102.98337 115.73473,103.1605 L 48.656735,110.89261 L 48.84892,112.23377 z "
       id="path3718"
       sodipodi:nodetypes="cccccc" />
    <path
       style="fill:url(#radialGradient4027);fill-opacity:1;fill-rule:nonzero;stroke:none;stroke-width:0.1;stroke-linecap:round;stroke-linejoin:round;stroke-miterlimit:4;stroke-dasharray:none;stroke-dashoffset:4;stroke-opacity:0.1300813"
       d="M 36.634848,8.038675 C 35.586835,8.1747479 40.177098,55.096612 46.959072,112.91665 L 50.820869,112.41523 C 44.023618,54.597181 37.682863,7.9025997 36.634848,8.038675 z "
       id="path3851" />
    <path
       sodipodi:nodetypes="cccccc"
       id="path3708"
       d="M 48.582846,112.01805 L 115.66459,104.04756 C 117.55792,103.83533 118.89288,102.15566 118.81874,100.28023 C 118.51177,101.75823 117.2712,103.53779 115.69089,103.7149 L 48.48796,111.44198 L 48.582846,112.01805 z "
       style="opacity:0.34426228;fill:url(#linearGradient4034);fill-opacity:1;fill-rule:nonzero;stroke:none;stroke-width:0.1;stroke-linecap:round;stroke-linejoin:round;stroke-miterlimit:4;stroke-dasharray:none;stroke-dashoffset:4;stroke-opacity:0.1300813" />
    <path
       style="opacity:0.34426228;fill:url(#linearGradient4031);fill-opacity:1;fill-rule:nonzero;stroke:none;stroke-width:0.1;stroke-linecap:round;stroke-linejoin:round;stroke-miterlimit:4;stroke-dasharray:none;stroke-dashoffset:4;stroke-opacity:0.1300813"
       d="M 48.96673,112.10335 L 115.66459,104.04756 C 117.55792,103.83533 118.89288,102.15566 118.81874,100.28023 C 118.51177,101.75823 117.32144,103.18473 115.74112,103.36185 L 48.865275,111.21118 L 48.96673,112.10335 z "
       id="path3720"
       sodipodi:nodetypes="cccccc" />
    <path
       sodipodi:nodetypes="cccccc"
       id="path3722"
       d="M 48.87475,112.90496 L 115.66234,104.87432 C 117.55566,104.66211 118.89061,102.98245 118.8165,101.10701 C 118.5287,103.18901 117.22988,104.29453 115.64956,104.47164 L 48.891675,112.51131 L 48.87475,112.90496 z "
       style="fill:black;fill-opacity:0.47560975;fill-rule:nonzero;stroke:none;stroke-width:0.1;stroke-linecap:round;stroke-linejoin:round;stroke-miterlimit:4;stroke-dasharray:none;stroke-dashoffset:4;stroke-opacity:0.1300813" />
    <g
       id="g3876"
       transform="matrix(2.695388,0.213097,-0.213097,2.695388,19.14573,-249.2679)"
       style="fill:url(#linearGradient3886);fill-opacity:1">
      <path
         id="path3866"
         d="M 36.885155,90.664517 C 36.83568,90.66421 36.77929,90.690488 36.728905,90.695767 C 37.282468,90.760801 37.74132,91.14319 37.853905,91.727017 L 46.635155,126.16452 C 46.775035,126.88988 46.329267,127.61838 45.603905,127.75827 L 21.541405,132.60202 L 21.541405,132.66452 L 45.916405,127.75827 C 46.641764,127.61838 47.087535,126.88988 46.947655,126.16452 L 38.166405,91.727017 C 38.044008,91.092326 37.502511,90.668354 36.885155,90.664517 z "
         style="opacity:0.46311472;fill:url(#linearGradient4078);fill-opacity:1;fill-rule:nonzero;stroke:none;stroke-width:0.1;stroke-linecap:round;stroke-linejoin:round;stroke-miterlimit:4;stroke-dasharray:none;stroke-dashoffset:4;stroke-opacity:0.1300813" />
      <path
         id="path3870"
         d="M 36.886996,90.668449 C 36.808482,90.667961 36.717555,90.685951 36.636996,90.699699 C 37.139864,90.803452 37.563335,91.186929 37.668246,91.730949 L 46.449496,126.16844 C 46.589376,126.89381 46.143604,127.62231 45.418246,127.76219 L 21.511996,132.57469 L 21.543246,132.66844 L 45.918246,127.76219 C 46.643604,127.62231 47.089376,126.89381 46.949496,126.16844 L 38.168246,91.730949 C 38.04585,91.096259 37.504352,90.672286 36.886996,90.668449 z "
         style="opacity:0.46311472;fill:url(#linearGradient4080);fill-opacity:1;fill-rule:nonzero;stroke:none;stroke-width:0.1;stroke-linecap:round;stroke-linejoin:round;stroke-miterlimit:4;stroke-dasharray:none;stroke-dashoffset:4;stroke-opacity:0.1300813" />
    </g>
    <path
       sodipodi:nodetypes="cccccccc"
       id="path3769"
       d="M 99.156878,2.9957048 C 98.919279,2.9754335 98.640257,2.9921919 98.39214,3.0200019 L 36.561008,9.1924588 L 36.580894,9.744954 L 98.352186,3.5253872 C 100.33711,3.3029127 102.11486,4.7372755 102.33732,6.7222019 L 102.38393,6.1325858 C 102.18928,4.3957681 100.82008,3.137604 99.156878,2.9957048 z "
       style="opacity:0.34836067;fill:black;fill-opacity:1;fill-rule:nonzero;stroke:none;stroke-width:0.1;stroke-linecap:round;stroke-linejoin:round;stroke-miterlimit:4;stroke-dasharray:none;stroke-dashoffset:4;stroke-opacity:0.1300813" />
    <path
       sodipodi:nodetypes="cccccccc"
       id="path3779"
       d="M 99.151088,3.3409238 C 98.913487,3.3206529 98.634464,3.337411 98.386349,3.365221 L 36.62588,9.4479135 L 36.743375,11.116353 L 98.524697,4.4161465 C 100.50964,4.1936721 102.22659,5.3015509 102.44905,7.2864771 L 102.37813,6.4778049 C 102.18349,4.7409874 100.81429,3.4828232 99.151088,3.3409238 z "
       style="fill:url(#linearGradient4020);fill-opacity:1;fill-rule:nonzero;stroke:none;stroke-width:0.1;stroke-linecap:round;stroke-linejoin:round;stroke-miterlimit:4;stroke-dasharray:none;stroke-dashoffset:4;stroke-opacity:0.1300813" />
    <path
       style="fill:url(#linearGradient4017);fill-opacity:1;fill-rule:nonzero;stroke:none;stroke-width:0.1;stroke-linecap:round;stroke-linejoin:round;stroke-miterlimit:4;stroke-dasharray:none;stroke-dashoffset:4;stroke-opacity:0.1300813"
       d="M 99.151088,3.3409238 C 98.913487,3.3206529 98.634464,3.337411 98.386349,3.365221 L 36.612021,9.4891965 L 36.661831,10.065245 L 98.544259,4.0210965 C 100.52919,3.798622 102.20818,5.3450444 102.43063,7.3299706 L 102.37813,6.4778049 C 102.18349,4.7409874 100.81429,3.4828232 99.151088,3.3409238 z "
       id="path3764"
       sodipodi:nodetypes="cccccccc" />
    <path
       sodipodi:nodetypes="cccccccc"
       id="path3888"
       d="M 99.151088,3.3409238 C 98.913487,3.3206529 98.634464,3.337411 98.386349,3.365221 L 36.612021,9.4891965 L 36.708099,10.600346 L 98.530341,4.1971431 C 100.51527,3.9746686 102.20818,5.3450444 102.43063,7.3299706 L 102.37813,6.4778049 C 102.18349,4.7409874 100.81429,3.4828232 99.151088,3.3409238 z "
       style="fill:url(#linearGradient4014);fill-opacity:1;fill-rule:nonzero;stroke:none;stroke-width:0.1;stroke-linecap:round;stroke-linejoin:round;stroke-miterlimit:4;stroke-dasharray:none;stroke-dashoffset:4;stroke-opacity:0.1300813" />
    <path
       style="fill:url(#linearGradient3089);fill-opacity:1.0;fill-rule:nonzero;stroke:none;stroke-width:0.1;stroke-linecap:round;stroke-linejoin:round;stroke-miterlimit:4;stroke-dasharray:none;stroke-dashoffset:4;stroke-opacity:0.1300813"
       d="M 72.25,5.65625 L 69.71875,5.90625 C 75.22069,8.6395007 77.553177,19.195391 77.6875,32.59375 C 78.677555,33.295344 79.711054,33.953583 80.75,34.65625 C 80.424238,20.82116 77.872533,9.5105328 72.25,5.65625 z M 80.75,34.65625 L 78.042034,32.207187 L 77.267717,33.162522 L 77.223574,39.702167 L 77.879121,40.801571 L 80.6875,42.40625 C 90.046257,48.858216 100.97777,54.850462 111.59375,59.375 L 110.25,51.59375 C 100.02585,46.58506 89.580788,40.628752 80.75,34.65625 z M 80.6875,42.40625 C 79.612026,41.66481 78.56119,40.907095 77.53125,40.15625 C 76.930554,53.994364 74.448825,69.626243 71.0625,82.59375 L 68.340616,89.327174 L 68.10029,94.269615 L 72.817502,89.51756 L 74.765243,87.589082 L 75.65625,79.78125 C 78.453635,68.111309 80.306792,54.696326 80.6875,42.40625 z M 75.65625,79.78125 C 74.867939,83.069867 74.052917,86.185255 73.125,89.125 C 84.558643,82.030571 99.241317,74.186452 113.0625,67.8125 L 112.15625,62.59375 C 99.722845,67.160903 86.559636,73.295581 75.65625,79.78125 z M 73.125,89.125 C 71.399719,90.195506 69.749055,91.286753 68.1875,92.3125 C 64.566814,102.94583 60.343943,110.07974 56.3125,109.78125 C 62.539754,112.90118 68.607342,103.43742 73.125,89.125 z M 56.3125,109.78125 C 46.80819,103.9814 63.68913,95.403563 68.1875,92.3125 C 69.207217,89.317767 70.156976,86.061344 71.0625,82.59375 C 56.882829,91.727523 48.022484,101.16757 52.78125,107.4375 C 53.928042,108.94845 55.109457,109.69217 56.3125,109.78125 z M 77.53125,40.15625 C 77.643859,37.562228 77.71191,35.029316 77.6875,32.59375 C 62.530892,21.85316 53.417176,11.390307 61.53125,6.71875 L 60.15625,6.84375 C 49.790261,13.875014 60.264777,27.56859 77.53125,40.15625 z "
       id="path3066"
       sodipodi:nodetypes="cccccccccccccccccccccccccccccccccccscccccc" />
    <path
       style="opacity:0.59836067;fill:url(#linearGradient2033);fill-opacity:1;fill-rule:nonzero;stroke:none;stroke-width:0.1;stroke-linecap:round;stroke-linejoin:round;stroke-miterlimit:4;stroke-dasharray:none;stroke-dashoffset:4;stroke-opacity:1"
       d="M 102.46875 18 L 92.34375 19.03125 C 91.412321 19.576808 90.415554 20.137274 89.3125 20.6875 C 87.343154 21.685394 85.328418 22.571957 83.28125 23.375 C 81.248398 24.176596 79.16768 24.8929 77.03125 25.53125 C 76.856398 26.2299 76.720851 26.955761 76.625 27.71875 C 76.542017 28.465949 76.51678 29.129556 76.5625 29.71875 C 76.602673 30.395424 76.754214 30.877191 77 31.15625 C 77.260117 31.433849 77.540897 31.584436 77.875 31.59375 C 78.22343 31.601602 78.597818 31.509733 78.96875 31.3125 C 79.352547 31.099469 79.713571 30.855686 80.03125 30.5625 C 80.174082 30.427415 80.293172 30.288297 80.40625 30.15625 C 80.700451 29.347641 81.294631 28.377356 82.1875 27.28125 C 82.843876 26.475471 83.462833 25.822804 84.0625 25.3125 C 84.660695 24.787875 85.214372 24.380243 85.75 24.09375 C 85.874614 24.037571 86.015828 23.980826 86.15625 23.9375 C 86.309534 23.878391 86.467306 23.859872 86.625 23.84375 C 86.797013 23.826181 86.979831 23.818331 87.15625 23.84375 C 87.331192 23.854851 87.509613 23.897745 87.6875 23.9375 C 87.934116 23.941277 88.066535 23.923523 88.09375 23.90625 C 88.347376 23.836888 88.524963 23.717576 88.625 23.5625 C 88.650732 23.530909 88.692649 23.505869 88.75 23.5 C 88.807331 23.49415 88.855913 23.526479 88.90625 23.59375 C 88.95657 23.661039 88.980144 23.719875 88.96875 23.75 C 88.618943 24.437558 88.257507 25.108042 87.90625 25.78125 C 87.567849 26.438672 87.25862 27.127884 86.9375 27.8125 C 86.687726 28.344987 86.43806 28.936301 86.21875 29.625 C 85.99796 30.29937 85.799842 30.988859 85.625 31.6875 C 85.504 32.19757 85.404769 32.681443 85.3125 33.15625 L 92.78125 32.40625 C 93.098967 31.977486 93.417333 31.53988 93.65625 31.15625 C 93.770603 30.999719 93.831983 30.910646 93.875 30.90625 C 93.890786 30.919122 93.903303 30.940081 93.90625 30.96875 C 93.912095 31.026091 93.890822 31.112548 93.84375 31.21875 C 93.648972 31.581341 93.417589 31.977553 93.15625 32.375 L 104.21875 31.25 L 102.46875 18 z M 91.25 19.125 L 78.8125 20.40625 C 78.246161 21.809796 77.69291 23.238653 77.21875 24.75 L 77.25 24.75 C 77.228652 24.824612 77.208846 24.894153 77.1875 24.96875 C 77.166152 25.043362 77.129431 25.111439 77.09375 25.1875 C 79.661379 24.374729 82.093257 23.502212 84.34375 22.5625 C 86.594226 21.622808 88.698619 20.612575 90.65625 19.5 C 90.867441 19.380519 91.046447 19.244267 91.25 19.125 z M 78.0625 20.46875 L 77.4375 20.53125 C 72.984714 22.776776 68.490077 24.163013 63.96875 24.625 C 63.768055 24.645517 63.558768 24.665538 63.34375 24.6875 C 63.128721 24.709481 62.920898 24.712589 62.71875 24.71875 C 62.664335 24.753289 62.601456 24.790851 62.53125 24.8125 C 62.475371 24.832704 62.429407 24.840481 62.375 24.875 C 62.226726 25.26676 62.022574 25.782257 61.75 26.375 C 61.490289 26.95196 61.160867 27.647799 60.78125 28.46875 C 63.289876 26.228032 65.042135 25.038578 66.03125 24.9375 C 66.446955 24.895032 66.673295 25.049701 66.75 25.375 C 66.777822 25.647373 66.736154 25.988418 66.59375 26.4375 C 66.281401 27.208138 65.558762 27.943253 64.4375 28.59375 C 63.370636 29.20973 62.313362 29.550792 61.28125 29.65625 C 61.771663 30.344858 62.351547 31.051771 63.03125 31.75 C 63.723814 32.432434 64.543882 33.124837 65.46875 33.8125 C 66.077402 34.271604 66.659619 34.657138 67.21875 35 L 84.84375 33.21875 C 84.888634 32.937148 84.942065 32.676826 85 32.375 C 85.114889 31.798361 85.231433 31.204571 85.375 30.625 C 85.518558 30.045433 85.686995 29.544307 85.84375 29.09375 C 86.034707 28.552795 86.22229 28.030324 86.40625 27.5625 C 86.60453 27.093221 86.794382 26.678864 87 26.28125 C 87.084225 26.113319 87.08342 26.019539 86.96875 26.03125 C 86.954408 26.032721 86.93198 26.062157 86.90625 26.09375 C 86.604683 26.544623 86.221756 27.022736 85.78125 27.53125 C 85.355064 28.038309 84.856325 28.609577 84.28125 29.21875 C 83.128165 30.408436 82.130151 31.314828 81.28125 31.9375 C 81.106613 32.071222 80.95585 32.141603 80.8125 32.15625 C 80.454126 32.192869 80.238764 31.939222 80.1875 31.4375 C 80.16436 31.211044 80.166017 30.981642 80.21875 30.71875 C 79.76243 31.214401 79.275332 31.607246 78.78125 31.875 C 78.287161 32.142756 77.827821 32.264862 77.40625 32.25 C 76.984676 32.235139 76.618553 32.083123 76.3125 31.78125 C 76.004981 31.465043 75.801928 30.953529 75.71875 30.28125 C 75.613912 29.538766 75.631338 28.760767 75.75 27.9375 C 75.867197 27.099908 76.070333 26.243052 76.34375 25.375 L 76.34375 25.3125 C 76.904454 23.583056 77.464622 21.979315 78.0625 20.46875 z M 75.9375 20.6875 L 63.875 21.90625 C 63.474151 22.687298 63.075848 23.497533 62.6875 24.34375 C 62.932654 24.333194 63.178 24.293291 63.4375 24.28125 C 63.709858 24.25343 63.994546 24.248055 64.28125 24.21875 C 66.660841 23.97561 69.081213 23.423493 71.53125 22.59375 C 73.0722 22.042249 74.52685 21.410285 75.9375 20.6875 z M 63.1875 21.96875 L 62.65625 22.03125 C 61.871465 22.45273 61.272274 22.941636 60.875 23.53125 C 60.770571 23.643324 60.73242 23.796741 60.75 23.96875 C 60.773434 24.198119 60.930236 24.30173 61.25 24.3125 C 61.45508 24.335008 61.633853 24.372393 61.75 24.375 C 61.880476 24.376162 61.956991 24.348155 62 24.34375 C 62.228417 23.885882 62.470479 23.459005 62.6875 23.03125 C 62.858288 22.680977 63.016705 22.319038 63.1875 21.96875 z M 62 22.09375 L 59.96875 22.3125 C 60.078262 22.674353 60.180008 23.027163 60.21875 23.40625 C 60.228985 23.506607 60.222815 23.616953 60.21875 23.71875 C 60.227521 23.804772 60.225744 23.864372 60.21875 23.9375 C 60.16944 25.014409 59.955774 26.069531 59.59375 27.0625 C 59.246024 28.054022 58.7498 29.018158 58.09375 29.96875 C 56.952997 31.562747 55.469389 32.913493 53.625 34 C 51.945284 34.997259 50.287461 35.517173 48.6875 35.59375 C 47.203673 35.672946 45.913768 35.369343 44.8125 34.65625 C 43.554694 33.828792 42.844227 32.627593 42.6875 31.09375 C 42.62598 30.491688 42.675145 29.881405 42.78125 29.21875 C 42.997541 27.79165 43.693521 26.331513 44.90625 24.875 C 44.829866 24.694516 44.773432 24.510621 44.75 24.28125 C 44.73563 24.14062 44.773058 23.989798 44.78125 23.84375 L 38.21875 24.5 L 39.9375 37.75 L 66.34375 35.09375 C 64.523047 33.997681 62.52547 32.357149 60.3125 30.125 C 60.072672 30.613017 59.825938 31.20175 59.59375 31.90625 C 59.360094 32.596419 59.114237 33.384535 58.84375 34.28125 C 58.822403 34.355854 58.776088 34.400392 58.71875 34.40625 C 58.647075 34.413574 58.56386 34.315787 58.46875 34.09375 C 58.461426 34.022076 58.490059 33.950719 58.5 33.90625 C 58.787439 32.891927 59.015229 32.045325 59.21875 31.34375 C 59.435139 30.626382 59.639952 30.031439 59.8125 29.59375 C 59.659735 29.232765 59.624576 28.962413 59.71875 28.75 C 59.827256 28.536134 59.982416 28.415009 60.1875 28.4375 C 60.518567 27.708416 60.841014 27.060395 61.125 26.4375 C 61.40898 25.814622 61.655015 25.236907 61.90625 24.71875 L 61.8125 24.71875 C 61.739357 24.711749 61.645925 24.707041 61.53125 24.71875 C 61.429437 24.714678 61.319441 24.702997 61.1875 24.6875 C 60.982414 24.665012 60.804651 24.573922 60.625 24.375 C 60.445342 24.176099 60.333006 23.981951 60.3125 23.78125 C 60.296386 23.623577 60.347407 23.485609 60.4375 23.375 C 60.757787 22.965684 61.152219 22.593487 61.65625 22.28125 C 61.762871 22.211971 61.885754 22.158594 62 22.09375 z M 59.6875 22.34375 L 46.25 23.6875 C 45.811524 24.108306 45.45673 24.533612 45.25 24.90625 C 45.303568 25.147025 45.443875 25.349264 45.625 25.5625 C 45.804652 25.761422 46.017046 25.949222 46.28125 26.125 C 46.852652 26.472192 47.443512 26.622564 48.03125 26.5625 C 48.188928 26.546397 48.270989 26.587164 48.28125 26.6875 C 48.295892 26.830859 48.171247 26.894578 47.9375 26.875 C 47.620661 26.892899 47.328199 26.883558 47.03125 26.8125 C 46.732829 26.727125 46.417866 26.579118 46.125 26.40625 C 45.582261 26.056149 45.204555 25.661366 45 25.21875 C 44.81835 25.425622 44.639028 25.672961 44.4375 25.96875 C 44.250304 26.263095 44.047892 26.619316 43.84375 27.03125 C 43.467058 27.880887 43.238426 28.596533 43.125 29.1875 C 43.085549 29.510199 43.043496 29.819579 43.03125 30.125 C 43.01754 30.416099 43.033204 30.713307 43.0625 31 C 43.198722 32.333153 43.766336 33.366362 44.75 34.0625 C 45.732195 34.744308 47.01216 35.029879 48.625 34.9375 C 50.325303 34.850669 52.087891 34.199727 53.90625 33 C 54.828282 32.384342 55.651014 31.711303 56.375 31 C 57.111827 30.272907 57.762308 29.509128 58.3125 28.65625 C 59.515795 26.824119 60.019504 25.032703 59.84375 23.3125 C 59.808958 22.972049 59.770449 22.659366 59.6875 22.34375 z M 45.8125 23.71875 L 45.09375 23.8125 C 45.094381 23.882983 45.086629 23.961568 45.09375 24.03125 C 45.108395 24.174611 45.144181 24.297091 45.1875 24.4375 C 45.388076 24.19127 45.579714 23.957106 45.8125 23.71875 z M 94.5625 23.71875 C 94.729549 23.723408 94.856108 23.742067 94.96875 23.78125 C 94.984542 23.794128 94.99853 23.829422 95 23.84375 C 95.004387 23.886763 94.986042 23.939388 94.9375 24.03125 C 94.901812 24.107326 94.845591 24.171008 94.78125 24.25 C 94.729762 24.313206 94.692275 24.387179 94.625 24.4375 C 94.556248 24.473501 94.48343 24.461782 94.4375 24.4375 C 94.137612 24.337788 93.742263 24.442177 93.28125 24.75 C 91.279786 26.142255 89.603298 28.293953 88.21875 31.1875 C 88.223144 31.230505 88.171322 31.305942 88.0625 31.375 C 87.952214 31.429723 87.824987 31.490512 87.6875 31.5625 C 87.551474 31.648822 87.393386 31.741279 87.21875 31.875 C 87.155864 31.968333 87.116873 31.990794 87.09375 31.90625 C 87.057757 31.837505 87.058072 31.76357 87.09375 31.6875 C 88.264524 29.395179 89.054422 27.61865 89.4375 26.40625 C 89.501536 26.182443 89.514643 26.018355 89.5 25.875 C 89.497069 25.846336 89.462433 25.749625 89.40625 25.625 C 89.386054 25.569131 89.396306 25.544477 89.40625 25.5 C 89.572408 25.425089 90.058805 25.043265 90.90625 24.40625 C 90.917652 24.376123 90.956993 24.379401 91 24.375 C 91.086006 24.366219 91.151503 24.400013 91.1875 24.46875 C 91.253625 24.548908 91.251843 24.608509 91.1875 24.6875 C 90.793228 25.365116 90.437616 25.962013 90.15625 26.46875 C 89.887751 26.959697 89.719211 27.387273 89.59375 27.71875 C 89.559532 27.809158 89.52539 27.880163 89.53125 27.9375 C 89.538572 28.009178 89.629424 28.010955 89.78125 27.9375 C 89.904403 27.866981 89.962849 27.780487 90 27.71875 C 90.490216 26.987887 91.153218 26.213818 91.96875 25.40625 C 92.810013 24.567095 93.47466 24.017763 93.96875 23.75 C 94.190206 23.720133 94.395451 23.714092 94.5625 23.71875 z M 86.03125 24.5 C 85.87356 24.51612 85.698872 24.564426 85.53125 24.625 C 84.87508 24.865871 84.103893 25.605833 83.1875 26.84375 C 82.75577 27.438284 82.386523 27.994378 82.09375 28.53125 C 81.815311 29.066666 81.591314 29.583279 81.4375 30.0625 C 81.396271 30.226045 81.388672 30.390482 81.40625 30.5625 C 81.441403 30.90654 81.585721 31.057616 81.84375 31.03125 C 81.944093 31.020998 82.048891 30.989645 82.15625 30.90625 C 82.907737 30.322502 83.697653 29.56158 84.5 28.625 C 85.300875 27.674093 86.137967 26.541223 87.03125 25.21875 C 87.069854 25.171358 87.068352 25.119846 87.0625 25.0625 C 87.046381 24.904823 86.949527 24.76623 86.75 24.65625 C 86.548992 24.53195 86.317941 24.470713 86.03125 24.5 z M 69.9375 24.84375 C 69.99089 24.834674 70.049278 24.833814 70.09375 24.84375 C 70.182685 24.86364 70.25666 24.932379 70.28125 25.03125 C 70.304369 25.115804 70.236434 25.252306 70.125 25.4375 C 69.836306 25.872576 69.537261 26.369031 69.21875 26.9375 C 68.91457 27.504518 68.617787 28.077839 68.34375 28.65625 C 68.069705 29.234672 67.844632 29.799866 67.625 30.34375 C 67.419701 30.886176 67.279545 31.352706 67.21875 31.75 C 67.106785 32.355311 67.154154 32.751809 67.34375 32.90625 C 67.546215 33.044893 67.818382 32.987309 68.15625 32.75 C 68.680156 32.348837 69.221969 31.840799 69.78125 31.21875 C 70.353393 30.580906 70.898416 29.927925 71.4375 29.25 C 71.990912 28.570618 72.532233 27.894863 73.03125 27.25 C 73.53025 26.605149 73.953241 26.055994 74.34375 25.625 C 74.459573 25.482811 74.582751 25.436008 74.6875 25.46875 C 74.79223 25.50151 74.866965 25.595602 74.9375 25.71875 C 75.006549 25.827578 75.047841 25.950408 75.0625 26.09375 C 75.090009 26.221307 75.09817 26.298939 75.0625 26.375 C 74.892562 26.696547 74.69974 27.107558 74.5 27.5625 C 74.300241 28.017455 74.119976 28.4866 73.9375 28.96875 C 73.767876 29.435109 73.596818 29.896128 73.46875 30.34375 C 73.340666 30.791378 73.29495 31.14641 73.28125 31.4375 C 73.264604 31.699925 73.272104 31.88825 73.3125 32 C 73.367216 32.110287 73.425385 32.166156 73.5 32.1875 C 73.573132 32.194513 73.652577 32.195174 73.75 32.15625 C 73.861742 32.115864 73.965081 32.070176 74.0625 32.03125 C 74.159907 31.992329 74.3 31.946989 74.4375 31.875 C 74.573517 31.78868 74.669839 31.69113 74.75 31.625 C 74.963238 31.443882 75.066223 31.434953 75.09375 31.5625 C 75.134129 31.674252 75.093398 31.82474 74.9375 32 C 74.810254 32.172334 74.637865 32.334682 74.4375 32.5 C 74.249986 32.649522 74.085269 32.753034 73.90625 32.84375 C 73.823162 32.881209 73.697367 32.887907 73.5625 32.84375 C 73.427619 32.799594 73.312427 32.744879 73.1875 32.65625 C 73.07543 32.551825 72.974183 32.432725 72.875 32.3125 C 72.788671 32.176476 72.733392 32.01835 72.71875 31.875 C 72.690913 31.602638 72.692166 31.338145 72.71875 31.03125 C 72.759658 30.722896 72.803946 30.421955 72.875 30.125 C 72.946043 29.828052 73.038147 29.534086 73.125 29.25 C 73.224712 28.950123 73.299547 28.660203 73.375 28.40625 C 73.439031 28.182443 73.411686 28.026482 73.3125 27.90625 C 73.211836 27.771695 73.044158 27.84061 72.8125 28.125 C 72.503609 28.504198 72.098613 28.974987 71.59375 29.5625 C 71.101749 30.134222 70.600079 30.70807 70.09375 31.28125 C 69.585951 31.840101 69.133869 32.361319 68.6875 32.8125 C 68.253994 33.247881 67.909536 33.49864 67.6875 33.59375 C 67.313638 33.762313 66.98734 33.750043 66.71875 33.53125 C 66.44869 33.298123 66.320447 32.986305 66.3125 32.625 C 66.30748 32.292368 66.338093 31.913448 66.4375 31.46875 C 66.551241 31.022592 66.722296 30.561573 66.90625 30.09375 C 67.103071 29.610135 67.305756 29.111554 67.53125 28.625 C 67.76961 28.122657 68.00578 27.663764 68.25 27.21875 C 68.494218 26.773749 68.72749 26.385863 68.9375 26.03125 C 69.160372 25.660854 69.366861 25.327824 69.53125 25.09375 C 69.594133 25.000425 69.6695 24.946647 69.78125 24.90625 C 69.843558 24.878161 69.88411 24.852826 69.9375 24.84375 z M 65.03125 25.78125 C 64.938584 25.778044 64.838763 25.782133 64.71875 25.8125 C 64.294555 25.913791 63.561795 26.389224 62.53125 27.21875 C 61.69113 27.927439 61.138296 28.466028 60.84375 28.84375 C 60.879741 28.912501 60.914025 29.01472 60.96875 29.125 C 61.022005 29.220956 61.11809 29.334195 61.21875 29.46875 C 61.263217 29.478696 61.356646 29.452152 61.5 29.4375 C 61.729356 29.414069 61.950777 29.383341 62.21875 29.3125 C 62.50105 29.240205 62.807009 29.117125 63.125 28.96875 C 63.457315 28.818922 63.770601 28.673765 64.03125 28.53125 C 64.29189 28.388746 64.484539 28.256149 64.65625 28.09375 C 65.317329 27.475791 65.604514 26.847681 65.5 26.25 C 65.468136 25.938222 65.309248 25.790869 65.03125 25.78125 z "
       id="rect3099" />
    <path
       style="opacity:0.59836067;fill:url(#linearGradient2044);fill-opacity:1;fill-rule:nonzero;stroke:none;stroke-width:0.1;stroke-linecap:round;stroke-linejoin:round;stroke-miterlimit:4;stroke-dasharray:none;stroke-dashoffset:4;stroke-opacity:1"
       d="M 108.57062,94.003717 C 108.47948,94.008282 108.38992,94.032373 108.29221,94.075386 C 107.93562,94.265269 107.54126,94.565985 107.11323,94.990055 C 106.69469,95.402321 106.30826,95.881358 105.93797,96.439271 C 105.57718,96.985374 105.27802,97.570153 105.04373,98.188677 C 104.82009,98.806038 104.72218,99.414158 104.75423,100.0036 C 104.76685,100.21783 104.84013,100.42628 104.96761,100.60641 C 105.09393,100.77589 105.23734,100.92387 105.41227,101.04491 C 105.5872,101.16596 105.77193,101.24305 105.97184,101.29667 C 106.17059,101.33965 106.35008,101.34237 106.50639,101.29295 C 106.69466,101.24004 106.89153,101.15317 107.0858,101.05648 C 107.28956,100.94798 107.48327,100.84389 107.66456,100.72706 C 107.84585,100.61023 108.00086,100.48838 108.15019,100.37504 C 108.29836,100.25105 108.43514,100.14494 108.54302,100.04691 C 108.62243,99.984328 108.63464,99.934438 108.58853,99.907128 C 108.54125,99.869178 108.48233,99.892338 108.40293,99.954908 C 108.13274,100.14614 107.79599,100.3263 107.40744,100.51967 C 107.02955,100.71187 106.66378,100.85396 106.31803,100.94563 C 106.18069,100.97141 106.04067,100.97797 105.89985,100.97179 C 105.76852,100.95379 105.6651,100.92095 105.55043,100.85801 C 105.44523,100.78325 105.34948,100.67675 105.26926,100.53458 C 105.1997,100.39125 105.14071,100.19006 105.12576,99.954518 C 105.10848,99.697668 105.13067,99.454008 105.1903,99.210318 C 105.24877,98.955978 105.32493,98.724748 105.41769,98.488219 C 105.51044,98.251699 105.60822,98.017852 105.71513,97.81212 C 105.83151,97.594581 105.95995,97.401268 106.05969,97.22866 C 106.3793,97.193755 106.74832,97.151229 107.17445,97.104676 C 107.60059,97.05813 108.02677,97.013522 108.45174,96.956316 C 108.87671,96.899122 109.26227,96.834586 109.61267,96.785527 C 109.97372,96.735311 110.24752,96.692156 110.42514,96.640407 C 110.67342,96.576833 110.88019,96.452862 111.07363,96.310494 C 110.96854,96.482388 110.86342,96.626582 110.75181,96.824068 C 110.54285,97.181095 110.31669,97.580913 110.08624,98.037308 C 109.59805,98.996208 109.26736,99.750038 109.07935,100.29883 C 109.0294,100.43366 109.03403,100.53977 109.08129,100.57773 C 109.09894,100.64048 109.15269,100.65701 109.26755,100.62291 C 109.69387,100.47932 109.96326,100.32595 110.05467,100.17582 C 110.60293,99.372068 111.13272,98.643508 111.66648,98.003048 C 112.21089,97.36143 112.7673,96.787253 113.32801,96.294776 C 113.40742,96.232202 113.49779,96.209344 113.58302,96.200029 C 113.77478,96.179089 113.86815,96.259881 113.88677,96.430334 C 113.89375,96.494261 113.89197,96.547083 113.86467,96.593184 C 113.60226,97.053077 113.35779,97.527724 113.13083,98.01608 C 112.91337,98.492625 112.7052,98.991068 112.5137,99.507888 C 112.03328,100.73546 111.8175,101.73682 111.83737,102.51086 C 111.85142,102.96636 111.92644,103.32186 112.07739,103.60157 L 112.91343,103.50278 C 112.63929,103.2632 112.49821,102.88483 112.48731,102.39012 C 112.44846,101.63972 112.64463,100.61579 113.09327,99.294668 C 113.56204,97.960566 114.11441,96.755799 114.76492,95.7037 C 114.90377,95.49449 114.89404,95.368986 114.73908,95.332003 C 114.5936,95.283217 114.42824,95.343046 114.20551,95.475178 C 114.09296,95.530599 113.97077,95.612535 113.83559,95.756664 C 113.57023,95.893463 113.06318,96.342217 112.33399,97.068702 C 112.02333,97.382938 111.70982,97.704354 111.41099,98.028071 C 111.12163,98.339974 110.84767,98.643328 110.58079,98.963548 C 110.52501,99.045108 110.45976,99.097318 110.39583,99.104298 C 110.31061,99.113608 110.26805,99.059768 110.25525,98.942578 C 110.24594,98.857358 110.26331,98.767768 110.30011,98.709838 C 110.46082,98.207165 110.65657,97.730962 110.89418,97.241437 C 111.14126,96.740103 111.43625,96.214183 111.78989,95.701201 C 111.81836,95.665756 111.84021,95.627291 111.83556,95.584671 C 111.82374,95.575185 111.78226,95.591093 111.71952,95.608722 C 111.69827,95.615031 111.69258,95.625814 111.6732,95.632287 C 111.6678,95.626407 111.68202,95.612378 111.67303,95.609046 C 111.63874,95.591234 111.57934,95.622596 111.53424,95.702983 C 111.51482,95.712791 111.4804,95.716576 111.46467,95.72671 C 111.4149,95.764496 111.37558,95.810214 111.34944,95.866968 C 111.33615,95.878301 111.34055,95.902198 111.32652,95.913612 C 111.32447,95.916734 111.30533,95.910641 111.30328,95.913774 C 111.22227,95.978754 111.15396,96.057142 111.04908,96.124727 C 110.83815,96.266357 110.62167,96.362419 110.40028,96.408158 C 110.23214,96.448088 110.01728,96.468084 109.77341,96.505498 C 109.54019,96.541759 109.28309,96.586147 109.00727,96.627051 C 108.73027,96.657313 108.4337,96.692431 108.12475,96.726174 C 107.82645,96.758764 107.52988,96.793881 107.24224,96.825296 C 107.7656,96.68189 108.23927,96.482351 108.63265,96.234545 C 109.02603,95.986748 109.28979,95.708113 109.41702,95.392353 C 109.49544,95.222082 109.50203,95.046925 109.45977,94.857483 C 109.42816,94.666889 109.35921,94.486319 109.24704,94.347636 C 109.14435,94.19715 109.01778,94.105382 108.84984,94.048255 C 108.76527,94.014372 108.66175,93.999153 108.57062,94.003717 z M 108.73654,94.467406 C 108.86322,94.442796 108.94385,94.4676 109.01593,94.535185 C 109.08682,94.592128 109.13076,94.68427 109.13408,94.813269 C 109.13739,94.942283 109.08578,95.096977 108.99787,95.279064 C 108.89096,95.484799 108.74336,95.679099 108.5371,95.863334 C 108.34148,96.046415 108.11903,96.222409 107.86667,96.379339 C 107.61312,96.525624 107.34713,96.660369 107.05582,96.756869 C 106.7645,96.853379 106.47419,96.918542 106.19719,96.948794 C 106.51635,96.515054 106.86902,96.092926 107.2343,95.68648 C 107.59839,95.26939 107.94975,94.923041 108.3195,94.656252 C 108.46999,94.553573 108.61935,94.480214 108.73654,94.467406 z M 104.10516,96.916895 C 103.01734,97.024948 101.884,97.537372 100.72249,98.451229 C 99.562135,99.375748 98.785033,100.38827 98.396033,101.46571 C 98.319933,101.65729 98.290341,101.82851 98.306633,101.97766 C 98.308844,101.99789 98.327038,102.00493 98.330198,102.02398 C 98.129004,102.07962 97.929989,102.13011 97.727063,102.19088 C 98.035044,100.76654 98.248756,99.676268 98.378046,98.885938 C 98.420837,98.784238 98.466321,98.686238 98.492469,98.629478 C 98.528093,98.560898 98.570577,98.500658 98.607379,98.442734 C 98.617041,98.333876 98.549096,98.250388 98.442746,98.164975 C 98.347041,98.078407 98.226939,98.044333 98.046998,98.074765 C 97.973585,98.093567 97.905224,98.132954 97.8388,98.21567 C 97.781857,98.28658 97.720684,98.370761 97.677894,98.472458 C 97.543868,98.627248 97.358729,98.814448 97.123995,99.034138 C 96.899905,99.252668 96.617459,99.523498 96.292662,99.806928 C 95.878955,100.16476 95.512698,100.45705 95.183244,100.69787 C 94.863276,100.92687 94.584683,101.09237 94.350127,101.21501 C 94.268389,101.25628 94.181582,101.28376 94.071557,101.26343 C 93.982838,101.24079 93.919047,101.16194 93.907411,101.0554 C 93.901591,101.00214 93.929783,100.93463 93.952435,100.84591 C 94.110632,100.41896 94.363992,99.853958 94.730967,99.167028 C 95.172694,98.37492 95.507684,97.9324 95.720938,97.812076 C 95.679844,97.633297 95.588407,97.554668 95.440423,97.581609 C 95.356355,97.601576 95.110526,97.722742 94.745619,97.935087 C 94.400853,98.134463 94.225216,98.278092 94.190748,98.357317 C 94.165768,98.424732 94.167072,98.522128 94.192855,98.659448 C 94.229288,98.795628 94.23453,98.870008 94.217879,98.914938 C 93.491538,100.65451 93.117048,101.65462 93.076401,101.87467 C 93.06324,101.95157 93.075515,102.01576 93.147583,102.08336 C 93.219649,102.15095 93.308002,102.18501 93.403884,102.17454 C 93.435845,102.17105 93.481412,102.15537 93.543006,102.12709 C 94.124656,101.82637 94.885274,101.26511 95.832375,100.46092 C 96.55306,99.853948 97.16153,99.290048 97.633519,98.774918 C 97.628499,98.926398 97.617748,99.128668 97.591249,99.379508 C 97.575394,99.629208 97.527183,99.938438 97.481525,100.30997 C 97.380528,101.16189 97.289497,101.84685 97.170247,102.33422 C 95.605962,102.81773 94.090088,103.35692 92.626162,103.96962 C 91.151582,104.58347 89.688767,105.26178 88.270761,105.99882 C 88.010833,106.13566 87.775731,106.26293 87.529798,106.39911 L 88.342591,106.30047 C 90.882846,104.89104 93.817503,103.65544 97.125548,102.5902 C 96.969137,103.32958 96.798677,104.073 96.606233,104.77859 C 96.054235,105.03002 95.501195,105.28659 94.961459,105.55705 L 95.820733,105.45809 C 96.04204,105.3496 96.265858,105.23444 96.492458,105.12802 C 96.467309,105.21663 96.427003,105.29625 96.401276,105.38432 L 96.935498,105.33411 C 96.978913,105.18333 97.005787,105.02202 97.048463,104.86847 C 98.819654,104.06526 100.73777,103.32503 102.82028,102.64346 C 102.67265,103.34897 102.50362,104.0427 102.3234,104.71549 L 102.83422,104.6422 C 103.0195,103.96019 103.20621,103.25864 103.37726,102.52337 C 103.68473,102.41829 104.02352,102.32771 104.37469,102.2375 C 104.33879,102.65316 104.1198,103.14171 103.64118,103.70688 C 103.54278,103.79309 103.49619,103.8531 103.50319,103.91702 C 103.50434,103.92767 103.50527,103.94243 103.52659,103.9401 C 103.5905,103.93312 103.6587,103.87049 103.73463,103.77596 C 104.24089,103.27865 104.54692,102.91212 104.65633,102.63066 C 104.70977,102.5278 104.73858,102.3968 104.72347,102.25831 C 104.71928,102.22003 104.70839,102.17921 104.69942,102.14227 C 104.94157,102.08519 105.18051,102.02491 105.442,101.97439 C 106.22453,101.83501 107.09633,101.71336 108.06581,101.60746 C 108.31084,101.5807 108.52447,101.57739 108.71625,101.55645 C 108.91982,101.54499 109.1003,101.53511 109.25063,101.52948 C 109.7773,101.51508 110.0493,101.6979 110.0912,102.08143 C 110.1424,102.55019 109.90045,103.10554 109.33591,103.76015 C 109.26779,103.81983 109.23845,103.87464 109.22083,103.92364 L 109.38336,103.89927 C 109.40587,103.8794 109.42848,103.87914 109.45276,103.8523 C 109.95902,103.35499 110.26489,102.96522 110.37431,102.68376 C 110.41593,102.5714 110.43215,102.43942 110.4182,102.31157 C 110.40305,102.17307 110.35387,102.03831 110.27599,101.91744 C 110.1981,101.79659 110.09091,101.69973 109.97159,101.59418 C 109.86407,101.49811 109.75717,101.40157 109.62119,101.34095 C 109.49584,101.27919 109.36819,101.25909 109.24869,101.25058 C 109.0972,101.24557 108.91871,101.23027 108.71398,101.23107 C 108.52104,101.24136 108.28356,101.27656 108.01722,101.30566 C 106.91757,101.42577 105.7907,101.6133 104.60483,101.91051 C 104.59607,101.89512 104.591,101.87929 104.58127,101.86419 C 104.50337,101.74333 104.39502,101.63581 104.27686,101.54091 C 104.16933,101.44485 104.0626,101.37154 103.92662,101.31094 C 103.83998,101.26824 103.75417,101.237 103.67032,101.21975 C 103.79138,100.67022 103.93616,100.07169 104.031,99.613518 C 104.19689,98.862318 104.32144,98.23482 104.43605,97.704826 C 104.51797,97.566515 104.56523,97.415688 104.57258,97.285513 C 104.56327,97.200291 104.51423,97.120508 104.43151,97.054074 C 104.35944,96.986485 104.28584,96.951492 104.19829,96.939489 C 104.17465,96.920515 104.14777,96.912246 104.10516,96.916895 z M 94.276421,97.310817 C 94.244751,97.316971 94.195497,97.332732 94.160539,97.35811 C 93.959101,97.487926 93.687926,97.694113 93.351312,97.968051 C 93.025341,98.240835 92.698779,98.538298 92.334859,98.858348 C 91.970932,99.178398 91.604371,99.502128 91.27241,99.818688 C 90.93928,100.1246 90.695435,100.3626 90.510475,100.54451 C 90.440914,100.40118 90.363465,100.21984 90.297578,100.01142 C 90.241177,99.791188 90.174162,99.581038 90.107111,99.361968 C 90.049548,99.131078 89.99612,98.909348 89.939724,98.689108 C 89.882161,98.458225 89.823401,98.252941 89.772822,98.085971 C 89.751694,97.991259 89.7225,97.929935 89.678723,97.923931 C 89.63378,97.907286 89.601964,97.934613 89.562842,97.971223 C 89.522553,97.997188 89.495827,98.043911 89.470849,98.111318 C 89.032604,98.148618 88.632181,98.185335 88.286198,98.212547 C 87.944117,98.239137 87.649711,98.272323 87.403521,98.288428 C 87.381046,98.28011 87.379181,98.250602 87.356715,98.242271 C 87.344894,98.232789 87.309296,98.227848 87.286829,98.219515 C 86.955763,98.05085 86.710943,97.986264 86.541653,98.01553 C 86.308437,98.051794 86.080514,98.189251 85.870577,98.438571 C 85.800655,98.489334 85.751148,98.528018 85.708537,98.532668 C 85.697881,98.533838 85.497768,98.552898 85.104753,98.606608 C 84.860882,98.644028 84.736767,98.692058 84.710626,98.748808 C 84.684484,98.805568 84.661623,98.856628 84.665116,98.888578 C 84.672096,98.952508 84.725071,99.009278 84.8291,99.073378 C 84.931963,99.126828 85.030505,99.167928 85.132208,99.210718 C 85.198454,99.225038 85.214291,99.293848 85.179824,99.373078 C 83.962076,101.25256 83.390301,102.63559 83.465581,103.52216 C 83.47489,103.60739 83.509406,103.684 83.560167,103.75392 C 83.62158,103.82268 83.700731,103.86886 83.770471,103.91515 C 83.850864,103.96028 83.915975,103.9945 84.003531,104.0065 C 84.09225,104.02914 84.185772,104.02352 84.259184,104.00471 C 85.181566,103.7638 86.206253,103.0339 87.335187,101.82173 C 87.915046,101.20859 88.319786,100.65471 88.578704,100.16286 C 88.847101,99.659198 88.97666,99.220448 88.964405,98.812118 C 88.962073,98.790818 88.954655,98.750118 88.940516,98.719318 C 88.926365,98.688518 88.930765,98.657318 88.916627,98.626518 C 88.891822,98.596888 88.874916,98.568008 88.892737,98.533708 C 88.967263,98.407872 89.16879,98.338623 89.448905,98.29741 C 89.477021,98.452752 89.513733,98.655308 89.569161,98.877628 C 89.626724,99.108518 89.690572,99.333198 89.759952,99.573568 C 89.82933,99.813948 89.904765,100.05221 89.974146,100.29259 C 90.053015,100.52115 90.127297,100.71701 90.187367,100.87215 C 89.954955,101.11315 89.70594,101.39086 89.426081,101.69095 C 89.145055,101.98038 88.859663,102.29338 88.57264,102.62659 C 88.285618,102.9598 87.994892,103.28926 87.719685,103.63195 C 87.434992,103.98647 87.169208,104.32203 86.936616,104.66007 C 86.725332,104.99579 86.543044,105.34191 86.362555,105.6635 C 86.192621,105.97833 86.072326,106.27767 85.997016,106.57249 L 86.298989,106.54714 C 86.309462,106.51571 86.309926,106.48548 86.321582,106.45402 C 86.43815,106.13942 86.583522,105.83298 86.756844,105.54453 C 86.930172,105.25608 87.086115,105.00756 87.216644,104.82082 C 87.477706,104.44732 87.761177,104.1004 88.045872,103.74589 C 88.331731,103.40202 88.607705,103.0735 88.875748,102.76393 C 89.154443,102.45319 89.407558,102.17572 89.660113,101.92174 C 89.912667,101.66776 90.14654,101.45036 90.352811,101.26612 C 90.43884,101.46156 90.546092,101.6725 90.682886,101.93785 C 90.818511,102.19254 90.959289,102.46094 91.106736,102.72513 C 91.263667,102.9775 91.423136,103.22195 91.576583,103.44236 C 91.730022,103.66278 91.8664,103.82096 91.975086,103.92767 C 92.10507,104.03206 92.203846,104.06906 92.25479,104.04194 C 92.31638,104.01365 92.258855,103.93309 92.11356,103.78725 C 91.98124,103.66156 91.837446,103.46268 91.691168,103.20914 C 91.546049,102.96626 91.40527,102.69787 91.267318,102.42186 C 91.140013,102.14469 91.028511,101.87853 90.913029,101.61085 C 90.797543,101.34317 90.703416,101.12885 90.652839,100.96188 C 90.857943,100.76698 91.127964,100.5184 91.461094,100.21249 C 91.794218,99.906588 92.146188,99.607028 92.500626,99.298788 C 92.853893,98.979918 93.203697,98.682288 93.540321,98.408337 C 93.876933,98.134399 94.148879,97.919722 94.372789,97.798233 C 94.453357,97.746313 94.496771,97.700827 94.511102,97.634573 C 94.524257,97.557678 94.524337,97.498588 94.486564,97.448806 C 94.459431,97.39787 94.403059,97.359721 94.346306,97.333572 C 94.317924,97.320503 94.308091,97.304663 94.276421,97.310817 z M 103.50414,97.385932 C 103.57987,97.388444 103.62474,97.495335 103.64569,97.687095 C 103.6362,97.698916 103.64268,97.724862 103.64617,97.756819 C 103.65682,97.755658 103.66841,97.769248 103.66958,97.779897 C 103.67951,98.16692 103.54842,98.48063 103.3042,98.712138 C 103.11207,98.927178 102.868,99.169278 102.56567,99.461038 C 102.27282,99.740988 101.92951,100.06456 101.52646,100.42122 C 100.89184,100.98913 100.43921,101.37523 100.11685,101.59316 C 99.895527,101.6387 99.667357,101.68524 99.443829,101.73731 C 99.344162,101.6651 99.277323,101.54655 99.255145,101.3435 C 99.249327,101.29024 99.234422,101.23618 99.230932,101.20422 C 99.238094,101.1711 99.248365,101.11905 99.253201,101.06461 C 99.404775,100.37965 99.846757,99.691168 100.58661,98.963508 C 101.28966,98.293778 102.02686,97.819708 102.78479,97.553643 C 103.14719,97.417036 103.38229,97.356123 103.50414,97.385932 z M 87.754569,98.634618 C 88.239793,98.635518 88.448545,98.813638 88.408886,99.141388 C 88.334028,99.936548 87.809551,100.85357 86.847771,101.9181 C 85.936925,102.95551 85.131889,103.57484 84.420252,103.77117 C 84.086321,103.87233 83.912012,103.79817 83.884084,103.54248 C 83.871282,103.4253 83.877015,103.31771 83.928136,103.19355 C 84.385449,101.65587 85.129445,100.28984 86.15417,99.110618 C 86.302334,98.986628 86.386214,98.937828 86.408688,98.946148 C 86.592303,98.850628 86.81334,98.778358 87.034741,98.732608 C 87.25497,98.676208 87.495388,98.630588 87.754569,98.634618 z M 103.58326,98.733428 C 103.5546,98.865938 103.54193,99.034288 103.51677,99.198738 C 103.5011,99.351388 103.46069,99.500528 103.42721,99.687458 C 103.33397,100.25252 103.24837,100.74893 103.15869,101.17683 C 102.92002,101.17722 102.65146,101.21646 102.32249,101.25239 C 101.71814,101.3184 101.11022,101.40262 100.48823,101.52085 C 100.87271,101.21507 101.28484,100.87958 101.78228,100.44268 C 102.22444,100.0494 102.59704,99.728058 102.89105,99.458768 C 103.19454,99.177668 103.42076,98.923678 103.58326,98.733428 z M 117.5312,99.101028 C 117.45661,99.109178 117.39064,99.142528 117.29943,99.195618 C 117.21885,99.247538 117.17753,99.318438 117.18452,99.382358 C 117.188,99.414318 117.21195,99.433008 117.25457,99.428348 C 117.30783,99.422528 117.351,99.412888 117.41726,99.427218 C 117.48233,99.430888 117.55539,99.470268 117.60384,99.518888 C 117.66174,99.555678 117.68661,99.620868 117.69825,99.727408 C 117.75527,100.24943 117.33013,100.99415 116.41231,101.96763 C 115.86683,102.54364 115.37479,102.95628 114.93378,103.25626 L 115.51449,103.20574 C 115.89412,102.90604 116.2573,102.55045 116.59937,102.12902 C 116.93151,101.71542 117.19691,101.32898 117.40471,100.9613 C 117.61249,100.59362 117.73038,100.23212 117.79251,99.912688 C 117.83548,99.713948 117.87179,99.564568 117.859,99.447378 C 117.83223,99.202348 117.71229,99.081248 117.5312,99.101028 z M 103.62546,101.45249 C 104.07943,101.45713 104.31403,101.65288 104.3729,101.98185 C 104.07059,102.06013 103.7529,102.15429 103.44504,102.24398 C 103.51297,101.9443 103.5639,101.72996 103.62546,101.45249 z M 103.02151,101.50318 C 103.04771,101.50032 103.06591,101.50528 103.09124,101.5027 C 103.01378,101.84254 102.93971,102.15227 102.86498,102.38749 C 100.89004,102.99097 98.979544,103.70718 97.138997,104.51921 C 97.319475,103.8524 97.515605,103.18764 97.682525,102.4701 C 97.908686,102.39652 98.149294,102.3231 98.401543,102.2559 C 98.503076,102.43228 98.694399,102.51355 98.96095,102.48443 C 99.078136,102.47163 99.180862,102.45386 99.2626,102.4126 C 99.461911,102.29575 99.722887,102.07889 99.979507,101.89627 C 100.7025,101.7643 101.49834,101.64953 102.37108,101.5542 C 102.61611,101.52744 102.82857,101.51348 103.02151,101.50318 z "
       id="path2024" />
  </g>
</svg>
