<?xml version="1.0" encoding="UTF-8" standalone="no"?>
<!-- Created with Inkscape (http://www.inkscape.org/) -->
<svg
   xmlns:dc="http://purl.org/dc/elements/1.1/"
   xmlns:cc="http://web.resource.org/cc/"
   xmlns:rdf="http://www.w3.org/1999/02/22-rdf-syntax-ns#"
   xmlns:svg="http://www.w3.org/2000/svg"
   xmlns="http://www.w3.org/2000/svg"
   xmlns:xlink="http://www.w3.org/1999/xlink"
   xmlns:sodipodi="http://sodipodi.sourceforge.net/DTD/sodipodi-0.dtd"
   xmlns:inkscape="http://www.inkscape.org/namespaces/inkscape"
   id="svg2"
   sodipodi:version="0.32"
   inkscape:version="0.45.1"
   width="1281"
   height="800"
   sodipodi:docbase="/home/pinheiro/artwork/Oxygen/Pinheiro"
   sodipodi:docname="wallpaper1.svg"
   inkscape:output_extension="org.inkscape.output.svg.inkscape"
   version="1.0">
  <metadata
     id="metadata7">
    <rdf:RDF>
      <cc:Work
         rdf:about="">
        <dc:format>image/svg+xml</dc:format>
        <dc:type
           rdf:resource="http://purl.org/dc/dcmitype/StillImage" />
      </cc:Work>
    </rdf:RDF>
  </metadata>
  <defs
     id="defs5">
    <linearGradient
       inkscape:collect="always"
       id="linearGradient3267">
      <stop
         style="stop-color:#ffffff;stop-opacity:1;"
         offset="0"
         id="stop3269" />
      <stop
         style="stop-color:#ffffff;stop-opacity:0;"
         offset="1"
         id="stop3271" />
    </linearGradient>
    <linearGradient
       id="linearGradient3463">
      <stop
         style="stop-color:#ffffff;stop-opacity:1;"
         offset="0"
         id="stop3465" />
      <stop
         style="stop-color:#ffffff;stop-opacity:0;"
         offset="1"
         id="stop3467" />
    </linearGradient>
    <linearGradient
       id="linearGradient3445">
      <stop
         style="stop-color:#ff0000;stop-opacity:1;"
         offset="0"
         id="stop3447" />
      <stop
         id="stop3455"
         offset="0.25"
         style="stop-color:#ecfc18;stop-opacity:1;" />
      <stop
         id="stop3453"
         offset="0.5"
         style="stop-color:#00d105;stop-opacity:1;" />
      <stop
         style="stop-color:#08ffe2;stop-opacity:1;"
         offset="0.75"
         id="stop3457" />
      <stop
         style="stop-color:#00a4ee;stop-opacity:1;"
         offset="1"
         id="stop3449" />
    </linearGradient>
    <linearGradient
       id="linearGradient3401">
      <stop
         style="stop-color:#ffffff;stop-opacity:0.74733096;"
         offset="0"
         id="stop3403" />
      <stop
         id="stop3425"
         offset="0.34234235"
         style="stop-color:#ffffff;stop-opacity:0.37254902;" />
      <stop
         style="stop-color:#ffffff;stop-opacity:0.08540925;"
         offset="0.68894571"
         id="stop3427" />
      <stop
         style="stop-color:#ffffff;stop-opacity:0;"
         offset="1"
         id="stop3405" />
    </linearGradient>
    <linearGradient
       gradientTransform="translate(0,2)"
       gradientUnits="userSpaceOnUse"
       y2="78.850853"
       x2="67.629204"
       y1="-2.1941743"
       x1="67.629204"
       id="linearGradient2802"
       xlink:href="#XMLID_25_"
       inkscape:collect="always" />
    <radialGradient
       r="81.292717"
       fy="123.17536"
       fx="110.74259"
       cy="123.17536"
       cx="110.74259"
       gradientTransform="matrix(0.4136693,-0.5587442,-0.4989925,-0.3694316,79.652783,167.07706)"
       gradientUnits="userSpaceOnUse"
       id="radialGradient2247"
       xlink:href="#XMLID_27_"
       inkscape:collect="always" />
    <linearGradient
       y2="102.0937"
       x2="115.9771"
       y1="72.341148"
       x1="108.00493"
       gradientUnits="userSpaceOnUse"
       id="linearGradient2243"
       xlink:href="#XMLID_23_"
       inkscape:collect="always" />
    <linearGradient
       y2="102.0937"
       x2="115.9771"
       y1="72.341148"
       x1="108.00493"
       gradientUnits="userSpaceOnUse"
       id="linearGradient2241"
       xlink:href="#XMLID_23_"
       inkscape:collect="always" />
    <radialGradient
       r="141"
       cy="145.3999"
       cx="69.600098"
       gradientTransform="translate(-5.5999998,-4.4)"
       gradientUnits="userSpaceOnUse"
       id="radialGradient2239"
       xlink:href="#XMLID_21_"
       inkscape:collect="always" />
    <radialGradient
       r="85"
       cy="68.399902"
       cx="69.600098"
       gradientTransform="matrix(0.9824561,0,0,0.9824561,-4.3789474,-3.2)"
       gradientUnits="userSpaceOnUse"
       id="radialGradient2237"
       xlink:href="#XMLID_20_"
       inkscape:collect="always" />
    <linearGradient
       y2="68.399902"
       x2="129.6001"
       y1="68.399902"
       x1="9.5995998"
       gradientTransform="matrix(-1,-4.371139e-8,4.371139e-8,-1,133.6007,132.4)"
       gradientUnits="userSpaceOnUse"
       id="linearGradient2235"
       xlink:href="#XMLID_18_"
       inkscape:collect="always" />
    <filter
       id="filter2904"
       inkscape:collect="always">
      <feGaussianBlur
         id="feGaussianBlur2906"
         stdDeviation="2.32"
         inkscape:collect="always" />
    </filter>
    <linearGradient
       y2="155.16769"
       x2="193.5"
       y1="6.7293491"
       x1="193.5"
       gradientUnits="userSpaceOnUse"
       id="linearGradient2263"
       xlink:href="#linearGradient3215"
       inkscape:collect="always" />
    <linearGradient
       y2="155.16769"
       x2="193.5"
       y1="6.7293491"
       x1="193.5"
       gradientUnits="userSpaceOnUse"
       id="linearGradient2255"
       xlink:href="#linearGradient3215"
       inkscape:collect="always" />
    <radialGradient
       gradientTransform="matrix(1.0727282,0,0,-0.7852748,-88.140453,159.47421)"
       gradientUnits="userSpaceOnUse"
       xlink:href="#XMLID_27_"
       id="radialGradient2370"
       fy="123.17536"
       fx="110.74259"
       r="81.292717"
       cy="123.17536"
       cx="110.74259" />
    <linearGradient
       gradientUnits="userSpaceOnUse"
       xlink:href="#linearGradient3215"
       id="linearGradient2368"
       y2="155.16769"
       x2="193.5"
       y1="6.7293491"
       x1="193.5" />
    <linearGradient
       gradientUnits="userSpaceOnUse"
       xlink:href="#linearGradient3215"
       id="linearGradient2366"
       y2="155.16769"
       x2="193.5"
       y1="6.7293491"
       x1="193.5" />
    <linearGradient
       gradientUnits="userSpaceOnUse"
       xlink:href="#linearGradient3215"
       id="linearGradient2364"
       y2="155.16769"
       x2="193.5"
       y1="6.7293491"
       x1="193.5" />
    <radialGradient
       gradientTransform="matrix(0.9459,0,0,1,1051.1319,-330.17143)"
       gradientUnits="userSpaceOnUse"
       xlink:href="#XMLID_25_"
       id="radialGradient2362"
       r="81.971497"
       cy="0.75440001"
       cx="66.136703" />
    <linearGradient
       gradientUnits="userSpaceOnUse"
       xlink:href="#XMLID_23_"
       id="linearGradient2360"
       y2="102.0937"
       x2="115.9771"
       y1="72.341148"
       x1="108.00493" />
    <linearGradient
       gradientUnits="userSpaceOnUse"
       xlink:href="#XMLID_23_"
       id="linearGradient2358"
       y2="102.0937"
       x2="115.9771"
       y1="72.341148"
       x1="108.00493" />
    <radialGradient
       gradientTransform="translate(1047.3429,-330.17143)"
       gradientUnits="userSpaceOnUse"
       xlink:href="#XMLID_21_"
       id="radialGradient2356"
       r="141"
       cy="145.3999"
       cx="69.600098" />
    <radialGradient
       gradientTransform="translate(1047.3429,-330.17143)"
       gradientUnits="userSpaceOnUse"
       xlink:href="#XMLID_20_"
       id="radialGradient2354"
       r="85"
       cy="68.399902"
       cx="69.600098" />
    <linearGradient
       gradientTransform="matrix(-1,-4.371139e-8,4.371139e-8,-1,1186.5436,-193.37143)"
       gradientUnits="userSpaceOnUse"
       xlink:href="#XMLID_18_"
       id="linearGradient2352"
       y2="68.399902"
       x2="129.6001"
       y1="68.399902"
       x1="9.5995998" />
    <linearGradient
       gradientUnits="userSpaceOnUse"
       xlink:href="#linearGradient3215"
       id="linearGradient2330"
       y2="155.16769"
       x2="193.5"
       y1="6.7293491"
       x1="193.5" />
    <linearGradient
       gradientUnits="userSpaceOnUse"
       xlink:href="#linearGradient3215"
       id="linearGradient2328"
       y2="155.16769"
       x2="193.5"
       y1="6.7293491"
       x1="193.5" />
    <filter
       id="filter4466">
      <feGaussianBlur
         id="feGaussianBlur4468"
         stdDeviation="2.32"
         inkscape:collect="always" />
    </filter>
    <linearGradient
       gradientTransform="matrix(-1,-4.371139e-8,4.371139e-8,-1,1186.5436,-193.37143)"
       gradientUnits="userSpaceOnUse"
       id="XMLID_18_"
       y2="68.399902"
       x2="129.6001"
       y1="68.399902"
       x1="9.5995998">
      <stop
         id="stop13"
         offset="0"
         style="stop-color:#003685;stop-opacity:1" />
      <stop
         id="stop15"
         offset="0.0105"
         style="stop-color:#083c8f;stop-opacity:1" />
      <stop
         id="stop17"
         offset="0.0533"
         style="stop-color:#2451b1;stop-opacity:1" />
      <stop
         id="stop19"
         offset="0.099"
         style="stop-color:#3b63cd;stop-opacity:1" />
      <stop
         id="stop21"
         offset="0.1477"
         style="stop-color:#4d71e3;stop-opacity:1" />
      <stop
         id="stop23"
         offset="0.20100001"
         style="stop-color:#597bf3;stop-opacity:1" />
      <stop
         id="stop25"
         offset="0.2622"
         style="stop-color:#6180fc;stop-opacity:1" />
      <stop
         id="stop27"
         offset="0.34909999"
         style="stop-color:#6382ff;stop-opacity:1" />
      <stop
         id="stop31"
         offset="0.58579999"
         style="stop-color:#6382ff;stop-opacity:1" />
      <stop
         id="stop33"
         offset="1"
         style="stop-color:#003685;stop-opacity:1" />
    </linearGradient>
    <radialGradient
       gradientTransform="translate(1047.3429,-330.17143)"
       gradientUnits="userSpaceOnUse"
       id="XMLID_20_"
       r="85"
       cy="68.399902"
       cx="69.600098">
      <stop
         id="stop47"
         offset="0.5"
         style="stop-color:#6193ff;stop-opacity:1" />
      <stop
         id="stop49"
         offset="0.78109998"
         style="stop-color:#003685;stop-opacity:1" />
      <stop
         id="stop51"
         offset="1"
         style="stop-color:#709dff;stop-opacity:1" />
    </radialGradient>
    <radialGradient
       gradientTransform="translate(1047.3429,-330.17143)"
       gradientUnits="userSpaceOnUse"
       id="XMLID_21_"
       r="141"
       cy="145.3999"
       cx="69.600098">
      <stop
         id="stop58"
         offset="0.3373"
         style="stop-color:#2c72c7;stop-opacity:0" />
      <stop
         id="stop60"
         offset="0.57990003"
         style="stop-color:#2c72c7;stop-opacity:1" />
      <stop
         id="stop62"
         offset="1"
         style="stop-color:#2c72c7;stop-opacity:0" />
    </radialGradient>
    <filter
       id="AI_Sfocatura_4">
      <feGaussianBlur
         id="feGaussianBlur6"
         stdDeviation="4" />
    </filter>
    <clipPath
       id="clipPath4458">
      <use
         xlink:href="#XMLID_10_"
         height="1"
         width="1"
         y="0"
         x="0"
         id="use4460" />
    </clipPath>
    <linearGradient
       gradientUnits="userSpaceOnUse"
       xlink:href="#XMLID_23_"
       id="linearGradient4454"
       y2="102.0937"
       x2="115.9771"
       y1="72.341148"
       x1="108.00493" />
    <linearGradient
       gradientUnits="userSpaceOnUse"
       id="XMLID_23_"
       y2="120.3999"
       x2="115.9771"
       y1="72.399902"
       x1="115.9771">
      <stop
         id="stop79"
         offset="0"
         style="stop-color:#00316e;stop-opacity:0" />
      <stop
         id="stop81"
         offset="1"
         style="stop-color:#00316e;stop-opacity:1" />
    </linearGradient>
    <filter
       id="filter4442"
       height="1.1148686"
       y="-0.057434313"
       width="1.5844299"
       x="-0.29221493">
      <feGaussianBlur
         id="feGaussianBlur4444"
         stdDeviation="2.4087233"
         inkscape:collect="always" />
    </filter>
    <linearGradient
       gradientUnits="userSpaceOnUse"
       xlink:href="#XMLID_23_"
       id="linearGradient4456"
       y2="102.0937"
       x2="115.9771"
       y1="72.341148"
       x1="108.00493" />
    <filter
       id="filter4446"
       height="1.1148686"
       y="-0.057434313"
       width="1.5844299"
       x="-0.29221493">
      <feGaussianBlur
         id="feGaussianBlur4448"
         stdDeviation="2.4087233"
         inkscape:collect="always" />
    </filter>
    <radialGradient
       gradientTransform="matrix(0.9459,0,0,1,1051.1319,-330.17143)"
       gradientUnits="userSpaceOnUse"
       id="XMLID_25_"
       r="81.971497"
       cy="0.75440001"
       cx="66.136703">
      <stop
         id="stop95"
         offset="0.1302"
         style="stop-color:#ffffff;stop-opacity:1;" />
      <stop
         id="stop97"
         offset="0.5"
         style="stop-color:#ffffff;stop-opacity:0.16862746;" />
    </radialGradient>
    <linearGradient
       gradientUnits="userSpaceOnUse"
       xlink:href="#linearGradient3215"
       id="linearGradient3213"
       y2="155.16769"
       x2="193.5"
       y1="6.7293491"
       x1="193.5" />
    <linearGradient
       gradientTransform="matrix(-1,-4.371139e-8,4.371139e-8,-1,139.2007,136.8)"
       gradientUnits="userSpaceOnUse"
       id="linearGradient3215"
       y2="68.399902"
       x2="129.6001"
       y1="68.399902"
       x1="9.5995998">
      <stop
         id="stop3221"
         offset="0"
         style="stop-color:#2451b1;stop-opacity:1" />
      <stop
         id="stop3227"
         offset="0.5"
         style="stop-color:#c5d1fb;stop-opacity:0" />
      <stop
         id="stop3233"
         offset="1"
         style="stop-color:#7ab4ff;stop-opacity:1" />
    </linearGradient>
    <radialGradient
       gradientTransform="matrix(1.0727282,0,0,-0.7852748,-88.140453,159.47421)"
       gradientUnits="userSpaceOnUse"
       xlink:href="#XMLID_27_"
       id="radialGradient5096"
       fy="123.17536"
       fx="110.74259"
       r="81.292717"
       cy="123.17536"
       cx="110.74259" />
    <radialGradient
       gradientTransform="matrix(0.9397,0,0,0.9397,4.2153,4.1331)"
       gradientUnits="userSpaceOnUse"
       id="XMLID_27_"
       r="66.164497"
       cy="58.0625"
       cx="76.764198">
      <stop
         id="stop107"
         offset="0"
         style="stop-color:#ffffff;stop-opacity:1" />
      <stop
         id="stop109"
         offset="0.32780001"
         style="stop-color:#fdfdfc;stop-opacity:1" />
      <stop
         id="stop111"
         offset="0.6773591"
         style="stop-color:#f4f5f4;stop-opacity:1" />
      <stop
         id="stop113"
         offset="1"
         style="stop-color:#cacfd0;stop-opacity:1;" />
    </radialGradient>
    <linearGradient
       inkscape:collect="always"
       xlink:href="#XMLID_18_"
       id="linearGradient3377"
       gradientUnits="userSpaceOnUse"
       gradientTransform="matrix(-1,-4.371139e-8,4.371139e-8,-1,133.6007,132.4)"
       x1="9.5995998"
       y1="68.399902"
       x2="129.6001"
       y2="68.399902" />
    <radialGradient
       inkscape:collect="always"
       xlink:href="#XMLID_20_"
       id="radialGradient3379"
       gradientUnits="userSpaceOnUse"
       gradientTransform="matrix(0.9824561,0,0,0.9824561,-4.3789474,-3.2)"
       cx="69.600098"
       cy="68.399902"
       r="85" />
    <radialGradient
       inkscape:collect="always"
       xlink:href="#XMLID_21_"
       id="radialGradient3381"
       gradientUnits="userSpaceOnUse"
       gradientTransform="translate(-5.5999998,-4.4)"
       cx="69.600098"
       cy="145.3999"
       r="141" />
    <linearGradient
       inkscape:collect="always"
       xlink:href="#XMLID_23_"
       id="linearGradient3383"
       gradientUnits="userSpaceOnUse"
       x1="108.00493"
       y1="72.341148"
       x2="115.9771"
       y2="102.0937" />
    <linearGradient
       inkscape:collect="always"
       xlink:href="#XMLID_23_"
       id="linearGradient3385"
       gradientUnits="userSpaceOnUse"
       x1="108.00493"
       y1="72.341148"
       x2="115.9771"
       y2="102.0937" />
    <radialGradient
       inkscape:collect="always"
       xlink:href="#XMLID_27_"
       id="radialGradient3387"
       gradientUnits="userSpaceOnUse"
       gradientTransform="matrix(0.4136693,-0.5587442,-0.4989925,-0.3694316,79.652783,167.07706)"
       cx="110.74259"
       cy="123.17536"
       fx="110.74259"
       fy="123.17536"
       r="81.292717" />
    <linearGradient
       inkscape:collect="always"
       xlink:href="#XMLID_25_"
       id="linearGradient3389"
       gradientUnits="userSpaceOnUse"
       gradientTransform="translate(0,2)"
       x1="67.629204"
       y1="-2.1941743"
       x2="67.629204"
       y2="78.850853" />
    <linearGradient
       inkscape:collect="always"
       xlink:href="#linearGradient3401"
       id="linearGradient3413"
       gradientUnits="userSpaceOnUse"
       x1="352.65955"
       y1="829.62781"
       x2="352.65955"
       y2="893.5022"
       gradientTransform="matrix(1.8032454,0,0,1.7202016,-603.12768,-1544.3324)" />
    <mask
       maskUnits="userSpaceOnUse"
       id="mask3409">
      <rect
         style="opacity:1;fill:url(#linearGradient3413);fill-opacity:1;stroke:none;stroke-width:0.80000001;stroke-linecap:round;stroke-linejoin:round;stroke-miterlimit:4;stroke-dasharray:none;stroke-dashoffset:1.08779998;stroke-opacity:1"
         id="rect3411"
         width="170.39409"
         height="164.24022"
         x="-24.497778"
         y="-137.03845"
         rx="0.52811074"
         ry="0.44137073"
         transform="scale(1,-1)" />
    </mask>
    <linearGradient
       inkscape:collect="always"
       xlink:href="#XMLID_18_"
       id="linearGradient3451"
       x1="-22.308195"
       y1="762.9649"
       x2="270.52579"
       y2="762.9649"
       gradientUnits="userSpaceOnUse" />
    <linearGradient
       inkscape:collect="always"
       xlink:href="#linearGradient3463"
       id="linearGradient3469"
       x1="157.26154"
       y1="758.01141"
       x2="157.26154"
       y2="830.27576"
       gradientUnits="userSpaceOnUse"
       gradientTransform="matrix(0.4384134,0,0,0.4384134,1069.2535,389.84936)" />
    <linearGradient
       inkscape:collect="always"
       xlink:href="#linearGradient3267"
       id="linearGradient3273"
       x1="252.55669"
       y1="-950.5061"
       x2="252.55669"
       y2="-989.99939"
       gradientUnits="userSpaceOnUse"
       gradientTransform="matrix(0.6969639,0,0,0.6969639,931.2754,-123.42607)" />
    <linearGradient
       inkscape:collect="always"
       xlink:href="#linearGradient3463"
       id="linearGradient3279"
       gradientUnits="userSpaceOnUse"
       gradientTransform="matrix(0.3616008,0,0,0.3616008,881.91485,-1214.969)"
       x1="157.08252"
       y1="860.3269"
       x2="157.08252"
       y2="744.39136" />
  </defs>
  <sodipodi:namedview
     inkscape:window-height="584"
     inkscape:window-width="796"
     inkscape:pageshadow="2"
     inkscape:pageopacity="0.0"
     guidetolerance="10.0"
     gridtolerance="10.0"
     objecttolerance="10.0"
     borderopacity="1.0"
     bordercolor="#666666"
     pagecolor="#ffffff"
     id="base"
     inkscape:zoom="0.25398705"
     inkscape:cx="240.36494"
     inkscape:cy="126.45049"
     inkscape:window-x="206"
     inkscape:window-y="378"
     inkscape:current-layer="svg2"
     height="800px"
     width="1281px" />
  <image
     y="-4.5698357"
     x="0"
     id="image2166"
     height="826.19775"
     width="1281"
     sodipodi:absref="/home/pinheiro/artwork/Oxygen/Pinheiro/wallpaper.png"
     xlink:href="wallpaper.png" />
  <g
     id="g3328"
     transform="matrix(0.2431247,0,0,0.2431247,1216.3203,719.57452)"
     inkscape:export-filename="/home/pinheiro/artwork/Oxygen/Pinheiro/rect341.png"
     inkscape:export-xdpi="137.30096"
     inkscape:export-ydpi="137.30096">
    <g
       id="g8"
       style="opacity:0.8;filter:url(#filter2904)"
       transform="matrix(1.0517241,0,0,1.0172414,-7.5172423,-7.0379241)">
      <path
         id="path10"
         d="M 126,113.8 C 126,122.6 118.8,129.8 110,129.8 L 26,129.8 C 17.2,129.8 10,122.6 10,113.8 L 10,29.800002 C 10,21.000002 17.2,13.800002 26,13.800002 L 110,13.800002 C 118.8,13.800002 126,21.000002 126,29.800002 L 126,113.8 z " />
    </g>
    <g
       transform="translate(0,-4)"
       id="g2221">
      <path
         d="M 4.000002,20 C 4.000002,11.2 11.200002,4 20.000002,4 L 108,4 C 116.8,4 124,11.2 124,20 L 124,108 C 124,116.8 116.8,124 108,124 L 20.000002,124 C 11.200002,124 4.000002,116.8 4.000002,108 L 4.000002,20 z "
         style="fill:url(#linearGradient2235)"
         id="path35" />
      <path
         d="M 20.77193,8 C 13.729684,8 8,13.729684 8,20.77193 L 8,107.22807 C 8,114.27032 13.729684,120 20.77193,120 L 107.22807,120 C 114.27032,120 120,114.27032 120,107.22807 L 120,20.77193 C 120,13.729684 114.27032,8 107.22807,8 L 20.77193,8 L 20.77193,8 z "
         style="fill:url(#radialGradient2237)"
         id="path53" />
      <path
         d="M 64.026001,7.014 L 63.973001,7.014 C 40.952001,6.718 16.897001,11.145 16.657001,11.19 C 14.202001,11.648 11.647001,14.202 11.190001,16.657 C 11.145001,16.898 6.7180002,40.952 7.0140002,63.973 C 6.7180002,87.047 11.145001,111.102 11.190001,111.342 C 11.647001,113.796 14.203001,116.352 16.658001,116.811 C 16.898001,116.855 40.952001,121.281 63.974001,120.985 C 87.049001,121.281 111.103,116.855 111.343,116.811 C 113.797,116.353 116.354,113.796 116.812,111.341 C 116.856,111.102 121.282,87.048 120.986,64.026 C 121.282,40.952 116.856,16.898 116.812,16.657 C 116.353,14.202 113.797,11.647 111.343,11.19 C 111.103,11.145 87.048001,6.718 64.026001,7.014 z "
         style="fill:url(#radialGradient2239);filter:url(#AI_Sfocatura_4)"
         id="path64" />
      <g
         transform="translate(-5.5999858,-4.4)"
         style="opacity:0.6"
         id="g66">
        <defs
           id="defs68">
          <path
             d="M 69.626,12.145 L 69.574,12.145 C 46.847,11.853 23.102,16.222 22.865,16.267 C 20.441,16.718 17.919,19.241 17.468,21.664 C 17.424,21.901 13.054,45.647 13.346,68.374 C 13.054,91.151 17.424,114.897 17.468,115.135 C 17.919,117.558 20.442,120.08 22.866,120.533 C 23.103,120.577 46.848,124.946 69.575,124.654 C 92.354,124.946 116.099,120.577 116.336,120.533 C 118.759,120.081 121.282,117.557 121.734,115.134 C 121.778,114.898 126.147,91.153 125.855,68.425 C 126.147,45.648 121.778,21.902 121.734,21.664 C 121.281,19.241 118.758,16.718 116.336,16.267 C 116.098,16.222 92.352,11.853 69.626,12.145 z "
             id="XMLID_10_" />
        </defs>
        <g
           clip-path="url(#clipPath4458)"
           id="g4450">
          <path
             d="M 119.344,21.665 C 118.967,20.387 117.669,19.089 115.977,18.074 C 114.284,19.089 112.988,20.386 112.612,21.665 C 112.542,21.902 105.647,45.648 106.108,68.375 C 105.647,91.152 112.542,114.898 112.612,115.136 C 112.988,116.414 114.286,117.712 115.977,118.727 C 117.671,117.711 118.968,116.415 119.344,115.135 C 119.413,114.899 126.307,91.154 125.847,68.426 C 126.307,45.648 119.414,21.902 119.344,21.665 z "
             style="opacity:0.8;fill:url(#linearGradient2241);filter:url(#filter4442)"
             id="path83" />
          <path
             d="M 119.344,21.665 C 118.967,20.387 117.669,19.089 115.977,18.074 C 114.284,19.089 112.988,20.386 112.612,21.665 C 112.542,21.902 105.647,45.648 106.108,68.375 C 105.647,91.152 112.542,114.898 112.612,115.136 C 112.988,116.414 114.286,117.712 115.977,118.727 C 117.671,117.711 118.968,116.415 119.344,115.135 C 119.413,114.899 126.307,91.154 125.847,68.426 C 126.307,45.648 119.414,21.902 119.344,21.665 z "
             transform="matrix(-1,0,0,1,139.2,0)"
             style="opacity:0.8;fill:url(#linearGradient2243);filter:url(#filter4446)"
             id="path4438" />
        </g>
      </g>
      <path
         d=""
         style="fill:url(#XMLID_29_);stroke:#2c72c7;stroke-width:2;stroke-linejoin:round"
         id="path159" />
      <path
         id="path5692_1_"
         style="fill:url(#radialGradient2247);fill-opacity:1"
         d="M 70.906252,21.510199 L 56.281252,22.916449 L 56.281252,83.166449 L 70.750002,80.978949 L 70.750002,55.291449 L 90.218752,83.791449 L 105.46875,78.947699 L 85.531252,51.541449 L 105.625,25.697699 L 90.062502,22.135199 L 70.750002,47.978949 L 70.906252,21.510199 z M 37.750002,36.197699 C 37.584628,36.214762 37.405752,36.260447 37.281252,36.385199 L 31.531252,42.135199 C 31.289753,42.377445 31.260254,42.748202 31.437502,43.041449 L 38.156252,54.135199 C 36.963258,56.140686 35.994498,58.291961 35.312502,60.572699 L 22.968752,63.135199 C 22.625253,63.206197 22.375002,63.533201 22.375002,63.885199 L 22.375002,72.010199 C 22.375002,72.353697 22.636251,72.647946 22.968752,72.728949 L 34.937502,75.635199 C 35.577498,78.275685 36.566261,80.802462 37.875002,83.103949 L 30.937502,93.666449 C 30.744003,93.961449 30.781756,94.35495 31.031252,94.603949 L 36.781252,100.35395 C 37.023498,100.59544 37.395003,100.62569 37.687502,100.4477 L 48.562502,93.853949 C 50.695492,95.085442 53.004768,96.071949 55.437502,96.728949 L 57.968752,108.91645 C 58.03975,109.26095 58.335755,109.5102 58.687502,109.5102 L 66.812502,109.5102 C 67.153501,109.5102 67.450254,109.2812 67.531252,108.9477 L 70.531252,96.697699 C 73.040237,96.021203 75.405763,95.016938 77.593752,93.728949 L 88.312502,100.7602 C 88.608,100.9527 88.999503,100.91545 89.250002,100.66645 L 94.968752,94.916449 C 95.21175,94.673953 95.271748,94.302698 95.093752,94.010199 L 91.187502,87.572699 L 89.906252,87.978949 C 89.72125,88.035951 89.516249,87.952445 89.406252,87.791449 C 89.406251,87.791448 86.938738,84.16167 83.718752,79.447699 C 79.867775,86.983153 72.014199,92.135199 62.968752,92.135199 C 50.115326,92.135197 39.687502,81.707375 39.687502,68.853949 C 39.687502,59.399254 45.341297,51.278678 53.437502,47.635199 L 53.437502,41.635199 C 51.964011,42.150945 50.540496,42.7732 49.187502,43.510199 C 49.185004,43.508699 49.190001,43.480449 49.187502,43.478949 L 38.218752,36.291449 C 38.071253,36.194951 37.915376,36.180636 37.750002,36.197699 z " />
      <path
         d="M 118,45.413803 C 116.80377,31.931381 114.92663,22.614985 114.8968,22.458943 C 114.4504,20.049615 110.93474,16.560752 108.54743,16.112254 C 108.31292,16.068091 85.938401,11.723449 63.538173,12.013943 L 63.486744,12.013943 C 41.087544,11.723449 18.712001,16.068091 18.477486,16.112254 C 16.089144,16.561733 12.574515,20.049615 12.130172,22.458943 C 12.108572,22.57573 11.03783,27.464065 10.000001,36.102315 C 10.000001,41.887646 10.000001,47.671996 10.000001,53.457327 C 10.000001,57.06494 12.396572,61.237837 15.328001,62.747224 C 15.325943,62.645159 19.962744,76 59.337487,76 C 98.71326,76 112.9744,55.324924 112.97029,55.554571 C 115.73714,53.696788 118,49.2491 118,45.640505 C 118,45.564938 118,45.48937 118,45.413803 z "
         style="opacity:0.7;fill:url(#linearGradient2802);fill-opacity:1"
         id="path99" />
    </g>
  </g>
  <g
     transform="matrix(0.2431247,0,0,-0.2313627,1216.3203,779.31678)"
     id="g3345"
     mask="url(#mask3409)"
     style="opacity:0.75824178"
     inkscape:export-filename="/home/pinheiro/artwork/Oxygen/Pinheiro/rect341.png"
     inkscape:export-xdpi="137.30096"
     inkscape:export-ydpi="137.30096">
    <g
       transform="matrix(1.0517241,0,0,1.0172414,-7.5172423,-7.0379241)"
       style="opacity:0.8;filter:url(#filter2904)"
       id="g3347">
      <path
         d="M 126,113.8 C 126,122.6 118.8,129.8 110,129.8 L 26,129.8 C 17.2,129.8 10,122.6 10,113.8 L 10,29.800002 C 10,21.000002 17.2,13.800002 26,13.800002 L 110,13.800002 C 118.8,13.800002 126,21.000002 126,29.800002 L 126,113.8 z "
         id="path3349" />
    </g>
    <g
       id="g3351"
       transform="translate(0,-4)">
      <path
         id="path3353"
         style="fill:url(#linearGradient3377)"
         d="M 4.000002,20 C 4.000002,11.2 11.200002,4 20.000002,4 L 108,4 C 116.8,4 124,11.2 124,20 L 124,108 C 124,116.8 116.8,124 108,124 L 20.000002,124 C 11.200002,124 4.000002,116.8 4.000002,108 L 4.000002,20 z " />
      <path
         id="path3355"
         style="fill:url(#radialGradient3379)"
         d="M 20.77193,8 C 13.729684,8 8,13.729684 8,20.77193 L 8,107.22807 C 8,114.27032 13.729684,120 20.77193,120 L 107.22807,120 C 114.27032,120 120,114.27032 120,107.22807 L 120,20.77193 C 120,13.729684 114.27032,8 107.22807,8 L 20.77193,8 L 20.77193,8 z " />
      <path
         id="path3357"
         style="fill:url(#radialGradient3381);filter:url(#AI_Sfocatura_4)"
         d="M 64.026001,7.014 L 63.973001,7.014 C 40.952001,6.718 16.897001,11.145 16.657001,11.19 C 14.202001,11.648 11.647001,14.202 11.190001,16.657 C 11.145001,16.898 6.7180002,40.952 7.0140002,63.973 C 6.7180002,87.047 11.145001,111.102 11.190001,111.342 C 11.647001,113.796 14.203001,116.352 16.658001,116.811 C 16.898001,116.855 40.952001,121.281 63.974001,120.985 C 87.049001,121.281 111.103,116.855 111.343,116.811 C 113.797,116.353 116.354,113.796 116.812,111.341 C 116.856,111.102 121.282,87.048 120.986,64.026 C 121.282,40.952 116.856,16.898 116.812,16.657 C 116.353,14.202 113.797,11.647 111.343,11.19 C 111.103,11.145 87.048001,6.718 64.026001,7.014 z " />
      <g
         id="g3359"
         style="opacity:0.6"
         transform="translate(-5.5999858,-4.4)">
        <defs
           id="defs3361">
          <path
             id="path3363"
             d="M 69.626,12.145 L 69.574,12.145 C 46.847,11.853 23.102,16.222 22.865,16.267 C 20.441,16.718 17.919,19.241 17.468,21.664 C 17.424,21.901 13.054,45.647 13.346,68.374 C 13.054,91.151 17.424,114.897 17.468,115.135 C 17.919,117.558 20.442,120.08 22.866,120.533 C 23.103,120.577 46.848,124.946 69.575,124.654 C 92.354,124.946 116.099,120.577 116.336,120.533 C 118.759,120.081 121.282,117.557 121.734,115.134 C 121.778,114.898 126.147,91.153 125.855,68.425 C 126.147,45.648 121.778,21.902 121.734,21.664 C 121.281,19.241 118.758,16.718 116.336,16.267 C 116.098,16.222 92.352,11.853 69.626,12.145 z " />
        </defs>
        <g
           id="g3365"
           clip-path="url(#clipPath4458)">
          <path
             id="path3367"
             style="opacity:0.8;fill:url(#linearGradient3383);filter:url(#filter4442)"
             d="M 119.344,21.665 C 118.967,20.387 117.669,19.089 115.977,18.074 C 114.284,19.089 112.988,20.386 112.612,21.665 C 112.542,21.902 105.647,45.648 106.108,68.375 C 105.647,91.152 112.542,114.898 112.612,115.136 C 112.988,116.414 114.286,117.712 115.977,118.727 C 117.671,117.711 118.968,116.415 119.344,115.135 C 119.413,114.899 126.307,91.154 125.847,68.426 C 126.307,45.648 119.414,21.902 119.344,21.665 z " />
          <path
             id="path3369"
             style="opacity:0.8;fill:url(#linearGradient3385);filter:url(#filter4446)"
             transform="matrix(-1,0,0,1,139.2,0)"
             d="M 119.344,21.665 C 118.967,20.387 117.669,19.089 115.977,18.074 C 114.284,19.089 112.988,20.386 112.612,21.665 C 112.542,21.902 105.647,45.648 106.108,68.375 C 105.647,91.152 112.542,114.898 112.612,115.136 C 112.988,116.414 114.286,117.712 115.977,118.727 C 117.671,117.711 118.968,116.415 119.344,115.135 C 119.413,114.899 126.307,91.154 125.847,68.426 C 126.307,45.648 119.414,21.902 119.344,21.665 z " />
        </g>
      </g>
      <path
         id="path3371"
         style="fill:url(#XMLID_29_);stroke:#2c72c7;stroke-width:2;stroke-linejoin:round"
         d="" />
      <path
         d="M 70.906252,21.510199 L 56.281252,22.916449 L 56.281252,83.166449 L 70.750002,80.978949 L 70.750002,55.291449 L 90.218752,83.791449 L 105.46875,78.947699 L 85.531252,51.541449 L 105.625,25.697699 L 90.062502,22.135199 L 70.750002,47.978949 L 70.906252,21.510199 z M 37.750002,36.197699 C 37.584628,36.214762 37.405752,36.260447 37.281252,36.385199 L 31.531252,42.135199 C 31.289753,42.377445 31.260254,42.748202 31.437502,43.041449 L 38.156252,54.135199 C 36.963258,56.140686 35.994498,58.291961 35.312502,60.572699 L 22.968752,63.135199 C 22.625253,63.206197 22.375002,63.533201 22.375002,63.885199 L 22.375002,72.010199 C 22.375002,72.353697 22.636251,72.647946 22.968752,72.728949 L 34.937502,75.635199 C 35.577498,78.275685 36.566261,80.802462 37.875002,83.103949 L 30.937502,93.666449 C 30.744003,93.961449 30.781756,94.35495 31.031252,94.603949 L 36.781252,100.35395 C 37.023498,100.59544 37.395003,100.62569 37.687502,100.4477 L 48.562502,93.853949 C 50.695492,95.085442 53.004768,96.071949 55.437502,96.728949 L 57.968752,108.91645 C 58.03975,109.26095 58.335755,109.5102 58.687502,109.5102 L 66.812502,109.5102 C 67.153501,109.5102 67.450254,109.2812 67.531252,108.9477 L 70.531252,96.697699 C 73.040237,96.021203 75.405763,95.016938 77.593752,93.728949 L 88.312502,100.7602 C 88.608,100.9527 88.999503,100.91545 89.250002,100.66645 L 94.968752,94.916449 C 95.21175,94.673953 95.271748,94.302698 95.093752,94.010199 L 91.187502,87.572699 L 89.906252,87.978949 C 89.72125,88.035951 89.516249,87.952445 89.406252,87.791449 C 89.406251,87.791448 86.938738,84.16167 83.718752,79.447699 C 79.867775,86.983153 72.014199,92.135199 62.968752,92.135199 C 50.115326,92.135197 39.687502,81.707375 39.687502,68.853949 C 39.687502,59.399254 45.341297,51.278678 53.437502,47.635199 L 53.437502,41.635199 C 51.964011,42.150945 50.540496,42.7732 49.187502,43.510199 C 49.185004,43.508699 49.190001,43.480449 49.187502,43.478949 L 38.218752,36.291449 C 38.071253,36.194951 37.915376,36.180636 37.750002,36.197699 z "
         style="fill:url(#radialGradient3387);fill-opacity:1"
         id="path3373" />
      <path
         id="path3375"
         style="opacity:0.7;fill:url(#linearGradient3389);fill-opacity:1"
         d="M 118,45.413803 C 116.80377,31.931381 114.92663,22.614985 114.8968,22.458943 C 114.4504,20.049615 110.93474,16.560752 108.54743,16.112254 C 108.31292,16.068091 85.938401,11.723449 63.538173,12.013943 L 63.486744,12.013943 C 41.087544,11.723449 18.712001,16.068091 18.477486,16.112254 C 16.089144,16.561733 12.574515,20.049615 12.130172,22.458943 C 12.108572,22.57573 11.03783,27.464065 10.000001,36.102315 C 10.000001,41.887646 10.000001,47.671996 10.000001,53.457327 C 10.000001,57.06494 12.396572,61.237837 15.328001,62.747224 C 15.325943,62.645159 19.962744,76 59.337487,76 C 98.71326,76 112.9744,55.324924 112.97029,55.554571 C 115.73714,53.696788 118,49.2491 118,45.640505 C 118,45.564938 118,45.48937 118,45.413803 z " />
    </g>
  </g>
  <text
     id="text3441"
     y="744.6767"
     x="1151.0667"
     style="font-size:14.52244377px;font-style:normal;font-weight:normal;fill:#ffffff;fill-opacity:1;stroke:none;stroke-width:1px;stroke-linecap:butt;stroke-linejoin:miter;stroke-opacity:1;font-family:Bitstream Vera Sans Mono"
     xml:space="preserve"
     inkscape:export-filename="/home/pinheiro/artwork/Oxygen/Pinheiro/rect341.png"
     inkscape:export-xdpi="137.30096"
     inkscape:export-ydpi="137.30096"><tspan
       style="fill:#ffffff;fill-opacity:1;font-family:Bitstream Vera Sans"
       y="744.6767"
       x="1151.0667"
       id="tspan3443"
       sodipodi:role="line">KDE 4.0</tspan></text>
  <text
     id="text3459"
     y="727.28015"
     x="1058.4286"
     style="font-size:10.64525032px;font-style:normal;font-weight:normal;fill:url(#linearGradient3469);fill-opacity:1;stroke:none;stroke-width:1px;stroke-linecap:butt;stroke-linejoin:miter;stroke-opacity:1;font-family:Bitstream Vera Sans Mono"
     xml:space="preserve"
     inkscape:export-filename="/home/pinheiro/artwork/Oxygen/Pinheiro/rect341.png"
     inkscape:export-xdpi="137.30096"
     inkscape:export-ydpi="137.30096"><tspan
       style="fill:url(#linearGradient3469);fill-opacity:1;font-family:Bitstream Vera Sans"
       y="727.28015"
       x="1058.4286"
       id="tspan3461"
       sodipodi:role="line">Discover a New Desktop</tspan></text>
  <rect
     style="opacity:0.75824178;fill:none;fill-opacity:1;stroke:none;stroke-width:0.80000001;stroke-linecap:round;stroke-linejoin:round;stroke-miterlimit:4;stroke-dasharray:none;stroke-dashoffset:1.08779998;stroke-opacity:1"
     id="rect3471"
     width="1191.4128"
     height="953.13025"
     x="44.225098"
     y="-38"
     rx="0.27259788"
     ry="0.23882318"
     inkscape:export-xdpi="96.691933"
     inkscape:export-ydpi="96.691933" />
  <text
     inkscape:export-ydpi="137.30096"
     inkscape:export-xdpi="137.30096"
     inkscape:export-filename="/home/pinheiro/artwork/Oxygen/Pinheiro/rect341.png"
     xml:space="preserve"
     style="font-size:13.68138313px;font-style:normal;font-weight:normal;opacity:0.31135535;fill:url(#linearGradient3273);fill-opacity:1;stroke:none;stroke-width:1px;stroke-linecap:butt;stroke-linejoin:miter;stroke-opacity:1;font-family:Bitstream Vera Sans Mono"
     x="1084.4032"
     y="-803.20557"
     id="text3263"
     transform="scale(1.0614748,-0.9420855)"><tspan
       sodipodi:role="line"
       id="tspan3265"
       x="1084.4032"
       y="-803.20557"
       style="fill:url(#linearGradient3273);fill-opacity:1;font-family:Bitstream Vera Sans">KDE 4.0</tspan></text>
  <text
     inkscape:export-ydpi="137.30096"
     inkscape:export-xdpi="137.30096"
     inkscape:export-filename="/home/pinheiro/artwork/Oxygen/Pinheiro/rect341.png"
     xml:space="preserve"
     style="font-size:8.78014088px;font-style:normal;font-weight:normal;opacity:0.12087911;fill:url(#linearGradient3279);fill-opacity:1;stroke:none;stroke-width:1px;stroke-linecap:butt;stroke-linejoin:miter;stroke-opacity:1;font-family:Bitstream Vera Sans Mono"
     x="872.98572"
     y="-936.6579"
     id="text3275"
     transform="scale(1.2124237,-0.8247942)"><tspan
       sodipodi:role="line"
       id="tspan3277"
       x="872.98572"
       y="-936.6579"
       style="fill:url(#linearGradient3279);fill-opacity:1;font-family:Bitstream Vera Sans">Discover a New Desktop</tspan></text>
  <rect
     style="opacity:0.12087911;fill:none;fill-opacity:1;stroke:none;stroke-width:0.80000001;stroke-linecap:round;stroke-linejoin:round;stroke-miterlimit:4;stroke-dasharray:none;stroke-dashoffset:1.08779998;stroke-opacity:1"
     id="rect3349"
     width="1258.549"
     height="786.59308"
     x="19.062561"
     y="18.995354"
     rx="0.17868634"
     ry="0.15654722"
     inkscape:export-filename="/home/pinheiro/artwork/Oxygen/Pinheiro/rect341.png"
     inkscape:export-xdpi="137.30096"
     inkscape:export-ydpi="137.30096" />
</svg>
