<?xml version="1.0" encoding="UTF-8" standalone="no"?>
<!-- Created with Inkscape (http://www.inkscape.org/) -->
<svg
   xmlns:dc="http://purl.org/dc/elements/1.1/"
   xmlns:cc="http://web.resource.org/cc/"
   xmlns:rdf="http://www.w3.org/1999/02/22-rdf-syntax-ns#"
   xmlns:svg="http://www.w3.org/2000/svg"
   xmlns="http://www.w3.org/2000/svg"
   xmlns:xlink="http://www.w3.org/1999/xlink"
   xmlns:sodipodi="http://sodipodi.sourceforge.net/DTD/sodipodi-0.dtd"
   xmlns:inkscape="http://www.inkscape.org/namespaces/inkscape"
   width="128"
   height="128"
   id="svg2"
   sodipodi:version="0.32"
   inkscape:version="0.45.1"
   version="1.0"
   sodipodi:docbase="/home/david/Oxygen/David/emotes/16"
   sodipodi:docname="face-devil-grin.svg"
   inkscape:output_extension="org.inkscape.output.svg.inkscape"
   inkscape:export-filename="/home/david/Oxygen/David/emotes/16/face-devil-grin.png"
   inkscape:export-xdpi="11.25"
   inkscape:export-ydpi="11.25">
  <defs
     id="defs4">
    <linearGradient
       id="linearGradient3255">
      <stop
         style="stop-color:#ff7e00;stop-opacity:1;"
         offset="0"
         id="stop3257" />
      <stop
         style="stop-color:#cc6500;stop-opacity:1;"
         offset="1"
         id="stop3259" />
    </linearGradient>
    <linearGradient
       id="linearGradient3240">
      <stop
         style="stop-color:#ff3333;stop-opacity:1;"
         offset="0"
         id="stop3242" />
      <stop
         style="stop-color:#bf0000;stop-opacity:1;"
         offset="1"
         id="stop3244" />
    </linearGradient>
    <linearGradient
       id="linearGradient3227">
      <stop
         style="stop-color:#e05900;stop-opacity:1;"
         offset="0"
         id="stop3229" />
      <stop
         style="stop-color:#ff0000;stop-opacity:1;"
         offset="1"
         id="stop3231" />
    </linearGradient>
    <linearGradient
       inkscape:collect="always"
       id="linearGradient3312">
      <stop
         style="stop-color:#000000;stop-opacity:1;"
         offset="0"
         id="stop3314" />
      <stop
         style="stop-color:#000000;stop-opacity:0;"
         offset="1"
         id="stop3316" />
    </linearGradient>
    <linearGradient
       id="linearGradient3287">
      <stop
         style="stop-color:#949494;stop-opacity:1;"
         offset="0"
         id="stop3289" />
      <stop
         style="stop-color:#ffffff;stop-opacity:1;"
         offset="1"
         id="stop3291" />
    </linearGradient>
    <linearGradient
       id="linearGradient3279">
      <stop
         style="stop-color:#ffffff;stop-opacity:1;"
         offset="0"
         id="stop3281" />
      <stop
         style="stop-color:#ffffff;stop-opacity:0;"
         offset="1"
         id="stop3283" />
    </linearGradient>
    <linearGradient
       inkscape:collect="always"
       id="linearGradient3436">
      <stop
         style="stop-color:#803f00;stop-opacity:1;"
         offset="0"
         id="stop3438" />
      <stop
         style="stop-color:#803f00;stop-opacity:0;"
         offset="1"
         id="stop3440" />
    </linearGradient>
    <linearGradient
       inkscape:collect="always"
       id="linearGradient3424">
      <stop
         style="stop-color:#803f00;stop-opacity:1;"
         offset="0"
         id="stop3426" />
      <stop
         style="stop-color:#803f00;stop-opacity:0;"
         offset="1"
         id="stop3428" />
    </linearGradient>
    <linearGradient
       id="linearGradient3416">
      <stop
         style="stop-color:#803f00;stop-opacity:1;"
         offset="0"
         id="stop3418" />
      <stop
         style="stop-color:#803f00;stop-opacity:0;"
         offset="1"
         id="stop3420" />
    </linearGradient>
    <linearGradient
       inkscape:collect="always"
       id="linearGradient3378">
      <stop
         style="stop-color:#ffffff;stop-opacity:1;"
         offset="0"
         id="stop3380" />
      <stop
         style="stop-color:#ffffff;stop-opacity:0;"
         offset="1"
         id="stop3382" />
    </linearGradient>
    <linearGradient
       id="linearGradient3269">
      <stop
         style="stop-color:#4d2600;stop-opacity:1;"
         offset="0"
         id="stop3271" />
      <stop
         style="stop-color:#ffa955;stop-opacity:1;"
         offset="1"
         id="stop3273" />
    </linearGradient>
    <linearGradient
       id="linearGradient3232">
      <stop
         style="stop-color:#ffa000;stop-opacity:1;"
         offset="0"
         id="stop3234" />
      <stop
         style="stop-color:#f80000;stop-opacity:1;"
         offset="1"
         id="stop3236" />
    </linearGradient>
    <linearGradient
       y2="59.9995"
       x2="46.590199"
       y1="59.9995"
       x1="100.936"
       gradientUnits="userSpaceOnUse"
       id="linearGradient16291"
       xlink:href="#XMLID_4_"
       inkscape:collect="always" />
    <linearGradient
       y2="60.0005"
       x2="3.9985001"
       y1="60.0005"
       x1="47.998501"
       gradientTransform="translate(-617.1419,-943.4291)"
       gradientUnits="userSpaceOnUse"
       id="linearGradient16289"
       xlink:href="#XMLID_3_"
       inkscape:collect="always" />
    <linearGradient
       y2="60"
       x2="47.998501"
       y1="60"
       x1="3.9985001"
       gradientUnits="userSpaceOnUse"
       id="linearGradient16287"
       xlink:href="#XMLID_2_"
       inkscape:collect="always" />
    <linearGradient
       y2="60.0005"
       x2="47.999001"
       y1="60.0005"
       x1="84.965302"
       gradientUnits="userSpaceOnUse"
       id="linearGradient16285"
       xlink:href="#XMLID_1_"
       inkscape:collect="always" />
    <linearGradient
       y2="-543.35211"
       x2="645.99847"
       y1="-532.10211"
       x1="645.99847"
       gradientTransform="matrix(0,-4,-4,0,-2060.408,2643.994)"
       gradientUnits="userSpaceOnUse"
       id="linearGradient16283"
       xlink:href="#polygon3293_12_"
       inkscape:collect="always" />
    <linearGradient
       y2="-17.9995"
       x2="181.9985"
       y1="-85.999496"
       x1="181.9985"
       gradientTransform="matrix(0,-1,1,0,-483.1434,-701.4306)"
       gradientUnits="userSpaceOnUse"
       id="linearGradient16281"
       xlink:href="#rect3244_12_"
       inkscape:collect="always" />
    <linearGradient
       y2="59.9995"
       x2="46.590199"
       y1="59.9995"
       x1="100.936"
       gradientUnits="userSpaceOnUse"
       id="XMLID_4_">
      <stop
         id="stop227"
         style="stop-color:#A4C0E4"
         offset="0" />
      <stop
         id="stop229"
         style="stop-color:#FFFFFF"
         offset="1" />
    </linearGradient>
    <linearGradient
       gradientTransform="translate(-617.1419,-943.4291)"
       y2="60.0005"
       x2="3.9985001"
       y1="60.0005"
       x1="47.998501"
       gradientUnits="userSpaceOnUse"
       id="XMLID_3_">
      <stop
         id="stop212"
         style="stop-color:#A4C0E4"
         offset="0" />
      <stop
         id="stop214"
         style="stop-color:#FFFFFF"
         offset="0.7" />
    </linearGradient>
    <linearGradient
       y2="60"
       x2="47.998501"
       y1="60"
       x1="3.9985001"
       gradientUnits="userSpaceOnUse"
       id="XMLID_2_">
      <stop
         id="stop197"
         style="stop-color:#6193CF"
         offset="0" />
      <stop
         id="stop199"
         style="stop-color:#6897D1"
         offset="0.1543" />
      <stop
         id="stop201"
         style="stop-color:#7AA4D7"
         offset="0.3722" />
      <stop
         id="stop203"
         style="stop-color:#98B9E0"
         offset="0.6277" />
      <stop
         id="stop205"
         style="stop-color:#C2D5EC"
         offset="0.9098" />
      <stop
         id="stop207"
         style="stop-color:#D1DFF1"
         offset="1" />
    </linearGradient>
    <linearGradient
       y2="60.0005"
       x2="47.999001"
       y1="60.0005"
       x1="84.965302"
       gradientUnits="userSpaceOnUse"
       id="XMLID_1_">
      <stop
         id="stop188"
         style="stop-color:#2C72C7"
         offset="0" />
      <stop
         id="stop190"
         style="stop-color:#6193CF"
         offset="0.15" />
      <stop
         id="stop192"
         style="stop-color:#A4C0E4"
         offset="1" />
    </linearGradient>
    <linearGradient
       gradientTransform="matrix(0,-4,-4,0,-2060.408,2643.994)"
       y2="-543.35211"
       x2="645.99847"
       y1="-532.10211"
       x1="645.99847"
       gradientUnits="userSpaceOnUse"
       id="polygon3293_12_">
      <stop
         id="stop182"
         style="stop-color:#6193CF"
         offset="0" />
      <stop
         id="stop184"
         style="stop-color:#EEEEEE"
         offset="1" />
    </linearGradient>
    <linearGradient
       gradientTransform="matrix(0,-1,1,0,-483.1434,-701.4306)"
       y2="-17.9995"
       x2="181.9985"
       y1="-85.999496"
       x1="181.9985"
       gradientUnits="userSpaceOnUse"
       id="rect3244_12_">
      <stop
         id="stop174"
         style="stop-color:#A4C0E4"
         offset="0" />
      <stop
         id="stop176"
         style="stop-color:#D1DFF1"
         offset="0.25" />
      <stop
         id="stop178"
         style="stop-color:#FFFFFF"
         offset="0.85" />
    </linearGradient>
    <radialGradient
       r="63.912209"
       fy="115.7093"
       fx="63.912209"
       cy="115.70919"
       cx="63.912209"
       gradientTransform="matrix(1,0,0,0.197802,0,92.82166)"
       gradientUnits="userSpaceOnUse"
       id="radialGradient3336"
       xlink:href="#linearGradient3291"
       inkscape:collect="always" />
    <linearGradient
       id="linearGradient3291"
       inkscape:collect="always">
      <stop
         id="stop3293"
         offset="0"
         style="stop-color:#000000;stop-opacity:1;" />
      <stop
         id="stop3295"
         offset="1"
         style="stop-color:#000000;stop-opacity:0;" />
    </linearGradient>
    <filter
       inkscape:collect="always"
       id="filter3360">
      <feGaussianBlur
         inkscape:collect="always"
         stdDeviation="1.5342545"
         id="feGaussianBlur3362" />
    </filter>
    <radialGradient
       inkscape:collect="always"
       xlink:href="#linearGradient3232"
       id="radialGradient3375"
       gradientUnits="userSpaceOnUse"
       gradientTransform="matrix(4.601811,0,0,4.601811,-230.5159,-231.44061)"
       cx="64"
       cy="64.200943"
       fx="64"
       fy="53.045429"
       r="55.962322" />
    <radialGradient
       inkscape:collect="always"
       xlink:href="#linearGradient3378"
       id="radialGradient3384"
       cx="33.189972"
       cy="-60.041557"
       fx="33.189972"
       fy="-60.041557"
       r="55.09375"
       gradientTransform="matrix(3.8448919,0,0,2.2255884,-94.421881,115.76551)"
       gradientUnits="userSpaceOnUse" />
    <linearGradient
       inkscape:collect="always"
       xlink:href="#linearGradient3416"
       id="linearGradient3422"
       x1="54.756672"
       y1="42.700157"
       x2="54.756672"
       y2="85.449837"
       gradientUnits="userSpaceOnUse"
       spreadMethod="reflect" />
    <linearGradient
       inkscape:collect="always"
       xlink:href="#linearGradient3424"
       id="linearGradient3430"
       x1="44.207222"
       y1="42.700157"
       x2="54.756672"
       y2="55.861851"
       gradientUnits="userSpaceOnUse"
       spreadMethod="reflect" />
    <linearGradient
       inkscape:collect="always"
       xlink:href="#linearGradient3416"
       id="linearGradient3434"
       gradientUnits="userSpaceOnUse"
       spreadMethod="reflect"
       x1="54.756672"
       y1="42.700157"
       x2="54.756672"
       y2="85.521683" />
    <linearGradient
       inkscape:collect="always"
       xlink:href="#linearGradient3436"
       id="linearGradient4586"
       gradientUnits="userSpaceOnUse"
       spreadMethod="reflect"
       x1="64"
       y1="84"
       x2="135.98589"
       y2="84"
       gradientTransform="matrix(1,0,0,1.1507065,0,-10.248037)" />
    <linearGradient
       inkscape:collect="always"
       xlink:href="#linearGradient3416"
       id="linearGradient2234"
       gradientUnits="userSpaceOnUse"
       spreadMethod="reflect"
       x1="54.756672"
       y1="42.700157"
       x2="54.756672"
       y2="85.449837" />
    <linearGradient
       inkscape:collect="always"
       xlink:href="#linearGradient3416"
       id="linearGradient2238"
       gradientUnits="userSpaceOnUse"
       spreadMethod="reflect"
       x1="54.756672"
       y1="42.700157"
       x2="54.756672"
       y2="85.449837" />
    <linearGradient
       inkscape:collect="always"
       xlink:href="#linearGradient3416"
       id="linearGradient2246"
       gradientUnits="userSpaceOnUse"
       spreadMethod="reflect"
       x1="54.756672"
       y1="42.700157"
       x2="54.756672"
       y2="85.449837" />
    <linearGradient
       inkscape:collect="always"
       xlink:href="#linearGradient3416"
       id="linearGradient2248"
       gradientUnits="userSpaceOnUse"
       spreadMethod="reflect"
       x1="54.756672"
       y1="42.700157"
       x2="54.756672"
       y2="85.449837" />
    <filter
       inkscape:collect="always"
       x="-0.065349845"
       width="1.1306997"
       y="-0.10311676"
       height="1.2062335"
       id="filter3248">
      <feGaussianBlur
         inkscape:collect="always"
         stdDeviation="2.7484375"
         id="feGaussianBlur3250" />
    </filter>
    <linearGradient
       inkscape:collect="always"
       xlink:href="#linearGradient3287"
       id="linearGradient3293"
       x1="-104.42951"
       y1="84.301414"
       x2="63.999996"
       y2="84.301414"
       gradientUnits="userSpaceOnUse"
       spreadMethod="reflect" />
    <linearGradient
       inkscape:collect="always"
       xlink:href="#linearGradient3287"
       id="linearGradient3297"
       gradientUnits="userSpaceOnUse"
       spreadMethod="reflect"
       x1="-104.42951"
       y1="84.301414"
       x2="63.999996"
       y2="84.301414"
       gradientTransform="translate(0,22.907378)" />
    <linearGradient
       inkscape:collect="always"
       xlink:href="#linearGradient3287"
       id="linearGradient3309"
       gradientUnits="userSpaceOnUse"
       gradientTransform="translate(0,22.907378)"
       spreadMethod="reflect"
       x1="-104.42951"
       y1="84.301414"
       x2="63.999996"
       y2="84.301414" />
    <radialGradient
       inkscape:collect="always"
       xlink:href="#linearGradient3312"
       id="radialGradient3318"
       cx="64.03125"
       cy="150.58279"
       fx="64.03125"
       fy="150.58279"
       r="44.03125"
       gradientTransform="matrix(2.6229697,0,0,1.1435729,-103.92078,-54.572241)"
       gradientUnits="userSpaceOnUse" />
    <radialGradient
       inkscape:collect="always"
       xlink:href="#linearGradient3232"
       id="radialGradient3233"
       cx="64"
       cy="64.200943"
       fx="63.596817"
       fy="39.405109"
       r="55.962322"
       gradientUnits="userSpaceOnUse" />
    <radialGradient
       inkscape:collect="always"
       xlink:href="#linearGradient3255"
       id="radialGradient3261"
       cx="22.578248"
       cy="20.211773"
       fx="22.578248"
       fy="20.211773"
       r="22.671137"
       gradientTransform="matrix(1,0,0,0.8921509,0,2.1798207)"
       gradientUnits="userSpaceOnUse" />
    <radialGradient
       inkscape:collect="always"
       xlink:href="#linearGradient3255"
       id="radialGradient3263"
       cx="105.36632"
       cy="20.211773"
       fx="105.36632"
       fy="20.211773"
       r="22.671139"
       gradientTransform="matrix(1,0,0,0.8921509,0,2.1798219)"
       gradientUnits="userSpaceOnUse" />
    <radialGradient
       inkscape:collect="always"
       xlink:href="#linearGradient3255"
       id="radialGradient3267"
       gradientUnits="userSpaceOnUse"
       gradientTransform="matrix(0.8509781,0,0,0.7592009,15.701891,4.8669778)"
       cx="105.36632"
       cy="20.211773"
       fx="105.36632"
       fy="20.211773"
       r="22.671139" />
    <radialGradient
       inkscape:collect="always"
       xlink:href="#linearGradient3255"
       id="radialGradient3271"
       gradientUnits="userSpaceOnUse"
       gradientTransform="matrix(0.8509781,0,0,0.7592009,18.314136,7.0773389)"
       cx="105.36632"
       cy="20.211773"
       fx="105.36632"
       fy="20.211773"
       r="22.671139" />
    <radialGradient
       inkscape:collect="always"
       xlink:href="#linearGradient3255"
       id="radialGradient3276"
       gradientUnits="userSpaceOnUse"
       gradientTransform="matrix(0.8509781,0,0,0.7592009,15.701891,4.8669778)"
       cx="105.36632"
       cy="20.211773"
       fx="105.36632"
       fy="20.211773"
       r="22.671139" />
    <filter
       inkscape:collect="always"
       x="-0.10129082"
       width="1.2025816"
       y="-0.11264512"
       height="1.2252902"
       id="filter3335">
      <feGaussianBlur
         inkscape:collect="always"
         stdDeviation="0.9827564"
         id="feGaussianBlur3337" />
    </filter>
    <radialGradient
       inkscape:collect="always"
       xlink:href="#linearGradient3255"
       id="radialGradient3343"
       gradientUnits="userSpaceOnUse"
       gradientTransform="matrix(-1,0,0,0.8921509,127.94457,2.1798219)"
       cx="105.36632"
       cy="20.211773"
       fx="105.36632"
       fy="20.211773"
       r="22.671139" />
  </defs>
  <sodipodi:namedview
     id="base"
     pagecolor="#ffffff"
     bordercolor="#666666"
     borderopacity="1.0"
     gridtolerance="10000"
     guidetolerance="10"
     objecttolerance="10"
     inkscape:pageopacity="0.0"
     inkscape:pageshadow="2"
     inkscape:zoom="0.125"
     inkscape:cx="64"
     inkscape:cy="64"
     inkscape:document-units="px"
     inkscape:current-layer="layer1"
     width="128px"
     height="128px"
     showgrid="false"
     gridspacingx="4px"
     gridspacingy="4px"
     gridempspacing="2"
     showborder="false"
     inkscape:window-width="743"
     inkscape:window-height="745"
     inkscape:window-x="0"
     inkscape:window-y="0" />
  <metadata
     id="metadata7">
    <rdf:RDF>
      <cc:Work
         rdf:about="">
        <dc:format>image/svg+xml</dc:format>
        <dc:type
           rdf:resource="http://purl.org/dc/dcmitype/StillImage" />
      </cc:Work>
    </rdf:RDF>
  </metadata>
  <g
     inkscape:label="Layer 1"
     inkscape:groupmode="layer"
     id="layer1">
    <path
       transform="matrix(0.9967745,0,0,0.9967745,0.2064289,6.1344497e-3)"
       d="M 119.96232 64.200943 A 55.962322 55.962322 0 1 1  8.0376778,64.200943 A 55.962322 55.962322 0 1 1  119.96232 64.200943 z"
       sodipodi:ry="55.962322"
       sodipodi:rx="55.962322"
       sodipodi:cy="64.200943"
       sodipodi:cx="64"
       id="path3248"
       style="opacity:0.2;fill:none;fill-opacity:1;stroke:#bf0000;stroke-width:16.05177307;stroke-linecap:round;stroke-linejoin:round;stroke-miterlimit:4;stroke-dasharray:none;stroke-opacity:1"
       sodipodi:type="arc" />
    <path
       sodipodi:type="arc"
       style="opacity:0.25;fill:none;fill-opacity:1;stroke:#bf0000;stroke-width:12.03883076;stroke-linecap:round;stroke-linejoin:round;stroke-miterlimit:4;stroke-dasharray:none;stroke-opacity:1"
       id="path3246"
       sodipodi:cx="64"
       sodipodi:cy="64.200943"
       sodipodi:rx="55.962322"
       sodipodi:ry="55.962322"
       d="M 119.96232 64.200943 A 55.962322 55.962322 0 1 1  8.0376778,64.200943 A 55.962322 55.962322 0 1 1  119.96232 64.200943 z"
       transform="matrix(0.9967745,0,0,0.9967745,0.2064289,6.1344497e-3)" />
    <path
       transform="matrix(0.9967745,0,0,0.9967745,0.2064289,6.1344497e-3)"
       d="M 119.96232 64.200943 A 55.962322 55.962322 0 1 1  8.0376778,64.200943 A 55.962322 55.962322 0 1 1  119.96232 64.200943 z"
       sodipodi:ry="55.962322"
       sodipodi:rx="55.962322"
       sodipodi:cy="64.200943"
       sodipodi:cx="64"
       id="path3244"
       style="opacity:0.3;fill:none;fill-opacity:1;stroke:#bf0000;stroke-width:8.02588654;stroke-linecap:round;stroke-linejoin:round;stroke-miterlimit:4;stroke-dasharray:none;stroke-opacity:1"
       sodipodi:type="arc" />
    <path
       sodipodi:type="arc"
       style="opacity:0.35;fill:none;fill-opacity:1;stroke:#bf0000;stroke-width:4.01294327;stroke-linecap:round;stroke-linejoin:round;stroke-miterlimit:4;stroke-dasharray:none;stroke-opacity:1"
       id="path3206"
       sodipodi:cx="64"
       sodipodi:cy="64.200943"
       sodipodi:rx="55.962322"
       sodipodi:ry="55.962322"
       d="M 119.96232 64.200943 A 55.962322 55.962322 0 1 1  8.0376778,64.200943 A 55.962322 55.962322 0 1 1  119.96232 64.200943 z"
       transform="matrix(0.9967745,0,0,0.9967745,0.2064289,6.1344497e-3)" />
    <path
       style="opacity:1;fill:url(#radialGradient3343);fill-opacity:1;stroke:none;stroke-width:8;stroke-linecap:round;stroke-linejoin:round;stroke-miterlimit:4;stroke-dasharray:none;stroke-opacity:1"
       d="M 10.402557,-0.014303611 C 0.29798695,6.1135149 -3.1100131,26.911552 2.8277066,37.195971 C 8.8452966,47.618741 22.194321,51.160642 32.617091,45.143054 C 35.007361,43.76303 43.612491,21.29872 45.249391,19.271748 C 34.246511,20.148511 16.634207,24.468051 12.227507,20.052488 C 8.3456066,16.162769 8.2980066,6.8126538 10.402557,-0.014303611 z "
       id="path3339"
       sodipodi:nodetypes="csscsc" />
    <path
       sodipodi:nodetypes="csscsc"
       id="path3251"
       d="M 117.54201,-0.014303611 C 127.64658,6.1135149 131.05458,26.911552 125.11686,37.195971 C 119.09927,47.618741 105.75025,51.160642 95.327475,45.143054 C 92.937204,43.76303 84.332072,21.29872 82.695179,19.271748 C 93.698053,20.148511 111.31036,24.468051 115.71706,20.052488 C 119.59896,16.162769 119.64656,6.8126538 117.54201,-0.014303611 z "
       style="opacity:1;fill:url(#radialGradient3263);fill-opacity:1.0;stroke:none;stroke-width:8;stroke-linecap:round;stroke-linejoin:round;stroke-miterlimit:4;stroke-dasharray:none;stroke-opacity:1" />
    <path
       style="opacity:0.58888889;fill:#ffd500;fill-opacity:1;stroke:none;stroke-width:8;stroke-linecap:round;stroke-linejoin:round;stroke-miterlimit:4;stroke-dasharray:none;stroke-opacity:1;filter:url(#filter3335)"
       d="M 119.97594,6.0141287 C 122.03315,11.82372 122.0116,19.766563 118.21701,23.076629 C 115.67547,25.293645 108.61701,24.904157 101.05848,24.076629 L 101.05848,25.951629 C 109.67983,26.984008 118.31907,27.805317 121.19642,25.295379 C 124.99101,21.985312 125.04846,14.04247 122.99125,8.2328787 C 123.39702,8.4471047 123.75644,8.6865318 124.13994,8.9203787 C 122.91534,7.829325 121.53836,6.8389985 119.97594,6.0141287 z "
       id="path3265" />
    <path
       transform="matrix(0.9967746,0,0,0.9967746,0.2064283,6.1332697e-3)"
       d="M 119.96232 64.200943 A 55.962322 55.962322 0 1 1  8.0376778,64.200943 A 55.962322 55.962322 0 1 1  119.96232 64.200943 z"
       sodipodi:ry="55.962322"
       sodipodi:rx="55.962322"
       sodipodi:cy="64.200943"
       sodipodi:cx="64"
       id="path3208"
       style="opacity:1;fill:url(#radialGradient3233);fill-opacity:1.0;stroke:none;stroke-width:0.5;stroke-linecap:round;stroke-linejoin:round;stroke-miterlimit:4;stroke-dasharray:none;stroke-opacity:1"
       sodipodi:type="arc" />
    <path
       id="path3341"
       d="M 119.97594,6.0141287 C 122.03315,11.82372 122.0116,19.766563 118.21701,23.076629 C 115.67547,25.293645 108.61701,24.904157 101.05848,24.076629 L 101.05848,25.951629 C 109.67983,26.984008 118.31907,27.805317 121.19642,25.295379 C 124.99101,21.985312 125.04846,14.04247 122.99125,8.2328787 C 123.39702,8.4471047 123.75644,8.6865318 124.13994,8.9203787 C 122.91534,7.829325 121.53836,6.8389985 119.97594,6.0141287 z "
       style="opacity:0.58888891;fill:#ffd500;fill-opacity:1;stroke:none;stroke-width:8;stroke-linecap:round;stroke-linejoin:round;stroke-miterlimit:4;stroke-dasharray:none;stroke-opacity:1;filter:url(#filter3335)"
       transform="matrix(-1,0,0,1,127.94457,0)" />
    <path
       style="opacity:1;fill:url(#radialGradient3384);fill-opacity:1.0;stroke:none;stroke-width:0.5;stroke-linecap:round;stroke-linejoin:round;stroke-miterlimit:4;stroke-dasharray:none;stroke-opacity:1"
       d="M 64 8.21875 C 33.208435 8.21875 8.2187497 33.208437 8.21875 64 C 8.21875 65.486277 8.2919588 66.949164 8.40625 68.40625 C 19.218459 70.693974 31.274456 71.999999 44 72 C 76.317481 72 104.35981 63.735382 118.40625 51.65625 C 112.78516 26.796405 90.551359 8.2187496 64 8.21875 z "
       id="path3368" />
    <path
       style="opacity:1;fill:#8c0000;fill-opacity:1;stroke:none;stroke-width:0.5;stroke-linecap:round;stroke-linejoin:round;stroke-miterlimit:4;stroke-dasharray:none;stroke-opacity:1"
       d="M 43.875,24.009782 C 43.191201,23.979416 42.510239,24.016992 41.84375,24.161415 C 36.51184,25.316799 34.057859,31.869557 36.34375,38.768679 C 36.911257,40.481492 37.712288,42.061798 38.6875,43.444014 C 37.300686,39.189059 40.725722,34.853629 46.40625,33.714262 C 49.807557,33.032048 53.262752,33.649928 55.84375,35.154771 C 55.786555,34.959898 55.721048,34.769083 55.65625,34.573513 C 53.656096,28.536781 48.661596,24.222345 43.875,24.009782 z "
       id="path3230" />
    <path
       style="opacity:0.78888885;fill:#ffffff;fill-opacity:1;stroke:none;stroke-width:0.5;stroke-linecap:round;stroke-linejoin:round;stroke-miterlimit:4;stroke-dasharray:none;stroke-opacity:1;filter:url(#filter3360)"
       d="M 64,8.463737 C 35.354082,8.463737 11.931208,30.972784 10.495588,59.263954 C 12.016056,32.578728 35.411398,11.361087 64,11.361087 C 92.5886,11.361087 115.98394,32.57873 117.50441,59.263954 C 116.06879,30.972787 92.645914,8.463737 64,8.463737 z "
       id="path3250"
       sodipodi:nodetypes="ccscc" />
    <path
       style="opacity:1;fill:#bf0000;fill-opacity:1;stroke:none;stroke-width:0.5;stroke-linecap:round;stroke-linejoin:round;stroke-miterlimit:4;stroke-dasharray:none;stroke-opacity:1"
       d="M 15.045015,50.900296 C 14.712628,52.972935 14.529699,55.075063 14.529699,57.229647 C 14.529699,81.686261 29.316367,114.88935 63.999999,114.88935 C 98.416055,114.88935 113.4703,81.686259 113.4703,57.229647 C 113.4703,55.075063 113.28736,52.972935 112.95498,50.900296 C 98.462655,58.690059 88.901855,58.132291 63.999999,58.132291 C 39.098144,58.132291 30.140168,60.096649 15.045015,50.900296 z "
       id="path3300"
       sodipodi:nodetypes="cssscsc" />
    <path
       style="opacity:1;fill:#8c0000;fill-opacity:1;stroke:none;stroke-width:0.5;stroke-linecap:round;stroke-linejoin:round;stroke-miterlimit:4;stroke-dasharray:none;stroke-opacity:1"
       d="M 84.125,24.009782 C 79.338404,24.222346 74.343906,28.536781 72.34375,34.573513 C 72.279576,34.767197 72.244216,34.961768 72.1875,35.154771 C 74.740094,33.667335 78.116952,33.035669 81.46875,33.714262 C 87.175575,34.869646 90.560391,39.308968 89.03125,43.620919 C 88.984861,43.75173 88.929258,43.872465 88.875,44 C 90.04241,42.484599 91.007722,40.726021 91.65625,38.768679 C 93.94214,31.869556 91.488157,25.3168 86.15625,24.161415 C 85.489761,24.016992 84.808799,23.979416 84.125,24.009782 z "
       id="path3432" />
    <path
       style="opacity:0.73333333;fill:#ffffff;fill-opacity:1;stroke:none;stroke-width:0.5;stroke-linecap:round;stroke-linejoin:round;stroke-miterlimit:4;stroke-dasharray:none;stroke-opacity:1;filter:url(#filter3248)"
       d="M 14.0625 55.53125 C 13.723363 57.603888 13.53125 59.689166 13.53125 61.84375 C 13.53125 86.300364 28.611966 119.5 64 119.5 C 99.115023 119.5 114.46875 86.300362 114.46875 61.84375 C 114.46875 59.689166 114.27663 57.603889 113.9375 55.53125 C 113.76715 55.620992 113.60655 55.69371 113.4375 55.78125 C 113.45572 56.262037 113.46875 56.732892 113.46875 57.21875 C 113.46875 81.675362 98.416055 114.875 64 114.875 C 29.316368 114.875 14.53125 81.675362 14.53125 57.21875 C 14.53125 56.74345 14.545055 56.282941 14.5625 55.8125 C 14.393185 55.713229 14.233324 55.633249 14.0625 55.53125 z "
       id="path2238" />
    <path
       sodipodi:nodetypes="cssscsc"
       id="path3252"
       d="M 16.834654,54.883101 C 16.514418,56.879971 16.338176,56.092065 16.338176,58.167884 C 16.338176,81.730442 30.584291,113.71973 63.999999,113.71973 C 97.157913,113.71973 111.66182,81.73044 111.66182,58.167884 C 111.66182,56.092065 111.48557,56.879971 111.16534,54.883101 C 97.20281,62.388095 87.991522,61.850718 63.999999,61.850718 C 40.008477,61.850718 31.377976,63.743265 16.834654,54.883101 z "
       style="opacity:1;fill:#eeeeee;fill-opacity:1;stroke:none;stroke-width:0.5;stroke-linecap:round;stroke-linejoin:round;stroke-miterlimit:4;stroke-dasharray:none;stroke-opacity:1" />
    <path
       style="opacity:1;fill:url(#linearGradient3293);fill-opacity:1.0;stroke:none;stroke-width:0.5;stroke-linecap:round;stroke-linejoin:round;stroke-miterlimit:4;stroke-dasharray:none;stroke-opacity:1"
       d="M 16.834654,54.883101 C 16.514418,56.879971 16.338176,56.092065 16.338176,58.167884 C 16.338176,81.730442 30.584291,113.71973 63.999999,113.71973 C 97.157913,113.71973 111.66182,81.73044 111.66182,58.167884 C 111.66182,56.092065 111.48557,56.879971 111.16534,54.883101 C 97.20281,62.388095 87.991522,61.850718 63.999999,61.850718 C 40.008477,61.850718 31.377976,63.743265 16.834654,54.883101 z "
       id="path3277"
       sodipodi:nodetypes="cssscsc" />
    <path
       style="opacity:0.28888889;fill:url(#radialGradient3318);fill-opacity:1.0;stroke:none;stroke-width:0.5;stroke-linecap:round;stroke-linejoin:round;stroke-miterlimit:4;stroke-dasharray:none;stroke-opacity:1"
       d="M 108.0625 79.34375 C 95.723429 85.1954 86.169105 84.75 64 84.75 C 41.800527 84.750001 32.749497 86.371022 20 79.59375 C 26.12095 97.465972 40.178017 113.71875 64 113.71875 C 87.75006 113.71875 101.92804 97.315568 108.0625 79.34375 z "
       id="path3295" />
  </g>
</svg>
