<?xml version="1.0" encoding="UTF-8" standalone="no"?>
<!-- Created with Inkscape (http://www.inkscape.org/) -->
<svg
   xmlns:dc="http://purl.org/dc/elements/1.1/"
   xmlns:cc="http://web.resource.org/cc/"
   xmlns:rdf="http://www.w3.org/1999/02/22-rdf-syntax-ns#"
   xmlns:svg="http://www.w3.org/2000/svg"
   xmlns="http://www.w3.org/2000/svg"
   xmlns:xlink="http://www.w3.org/1999/xlink"
   xmlns:sodipodi="http://sodipodi.sourceforge.net/DTD/sodipodi-0.dtd"
   xmlns:inkscape="http://www.inkscape.org/namespaces/inkscape"
   width="297mm"
   height="210mm"
   id="svg1872"
   sodipodi:version="0.32"
   inkscape:version="0.45.1"
   sodipodi:docbase="/home/me/svn/oxygen-playground/release-event/shirts"
   sodipodi:docname="launch3-b.svg"
   inkscape:output_extension="org.inkscape.output.svg.inkscape"
   inkscape:export-filename="/home/me/svn/oxygen-playground/release-event/website/launch3-b.png"
   inkscape:export-xdpi="90"
   inkscape:export-ydpi="90">
  <defs
     id="defs1874">
    <linearGradient
       id="linearGradient3280">
      <stop
         style="stop-color:#000000;stop-opacity:0;"
         offset="0"
         id="stop3282" />
      <stop
         id="stop3292"
         offset="0.24123366"
         style="stop-color:#000000;stop-opacity:0;" />
      <stop
         id="stop3290"
         offset="0.57567126"
         style="stop-color:#000000;stop-opacity:0.24705882;" />
      <stop
         id="stop3288"
         offset="0.83229023"
         style="stop-color:#000000;stop-opacity:0.49803922;" />
      <stop
         style="stop-color:#000000;stop-opacity:1;"
         offset="1"
         id="stop3284" />
    </linearGradient>
    <linearGradient
       id="linearGradient4591">
      <stop
         style="stop-color:white;stop-opacity:1;"
         offset="0"
         id="stop4593" />
      <stop
         style="stop-color:black;stop-opacity:1;"
         offset="1"
         id="stop4595" />
    </linearGradient>
    <linearGradient
       y2="49.456421"
       x2="937.9624"
       y1="49.456421"
       x1="-22.560558"
       gradientTransform="matrix(0.8879681,0,0,1.4566291,122.79193,331.85586)"
       gradientUnits="userSpaceOnUse"
       id="linearGradient3288"
       xlink:href="#linearGradient4406"
       inkscape:collect="always" />
    <linearGradient
       y2="368.95126"
       x2="952.95911"
       y1="413.45978"
       x1="952.95911"
       gradientTransform="matrix(1,0,0,1.1285714,-795.31846,-62.521768)"
       gradientUnits="userSpaceOnUse"
       id="linearGradient5138"
       xlink:href="#linearGradient4640"
       inkscape:collect="always" />
    <linearGradient
       y2="368.95126"
       x2="952.95911"
       y1="413.45978"
       x1="952.95911"
       gradientUnits="userSpaceOnUse"
       id="linearGradient5136"
       xlink:href="#linearGradient4640"
       inkscape:collect="always" />
    <linearGradient
       y2="49.456421"
       x2="937.9624"
       y1="49.456421"
       x1="-22.560558"
       gradientTransform="matrix(0.8879681,0,0,1.4566291,122.79193,331.85586)"
       gradientUnits="userSpaceOnUse"
       id="linearGradient5134"
       xlink:href="#linearGradient4406"
       inkscape:collect="always" />
    <linearGradient
       y2="49.456421"
       x2="937.9624"
       y1="49.456421"
       x1="-22.560558"
       gradientTransform="matrix(0.8879681,0,0,1.4566291,122.79193,331.85586)"
       gradientUnits="userSpaceOnUse"
       id="linearGradient5116"
       xlink:href="#linearGradient4406"
       inkscape:collect="always" />
    <linearGradient
       y2="368.95126"
       x2="952.95911"
       y1="413.45978"
       x1="952.95911"
       gradientTransform="matrix(1,0,0,1.1285714,-795.31846,-62.521768)"
       gradientUnits="userSpaceOnUse"
       id="linearGradient5093"
       xlink:href="#linearGradient4640"
       inkscape:collect="always" />
    <linearGradient
       y2="368.95126"
       x2="952.95911"
       y1="413.45978"
       x1="952.95911"
       gradientUnits="userSpaceOnUse"
       id="linearGradient5091"
       xlink:href="#linearGradient4640"
       inkscape:collect="always" />
    <linearGradient
       y2="49.456421"
       x2="937.9624"
       y1="49.456421"
       x1="-22.560558"
       gradientTransform="matrix(0.8879681,0,0,1.4566291,122.79193,331.85586)"
       gradientUnits="userSpaceOnUse"
       id="linearGradient5089"
       xlink:href="#linearGradient4406"
       inkscape:collect="always" />
    <linearGradient
       y2="49.456421"
       x2="937.9624"
       y1="49.456421"
       x1="-22.560558"
       gradientTransform="matrix(0.8879681,0,0,1.4566291,122.79193,331.85586)"
       gradientUnits="userSpaceOnUse"
       id="linearGradient5070"
       xlink:href="#linearGradient4406"
       inkscape:collect="always" />
    <radialGradient
       cx="76.764198"
       cy="58.0625"
       r="66.164497"
       id="XMLID_27_"
       gradientUnits="userSpaceOnUse"
       gradientTransform="matrix(0.9397,0,0,0.9397,4.2153,4.1331)">
      <stop
         style="stop-color:#ffffff;stop-opacity:1"
         offset="0"
         id="stop107" />
      <stop
         style="stop-color:#fdfdfc;stop-opacity:1"
         offset="0.32780001"
         id="stop109" />
      <stop
         style="stop-color:#f4f5f4;stop-opacity:1"
         offset="0.6773591"
         id="stop111" />
      <stop
         style="stop-color:#cacfd0;stop-opacity:1;"
         offset="1"
         id="stop113" />
    </radialGradient>
    <radialGradient
       cx="110.74259"
       cy="123.17536"
       r="81.292717"
       fx="110.74259"
       fy="123.17536"
       id="radialGradient5096"
       xlink:href="#XMLID_27_"
       gradientUnits="userSpaceOnUse"
       gradientTransform="matrix(1.0727282,0,0,-0.7852748,-88.140453,159.47421)" />
    <linearGradient
       x1="9.5995998"
       y1="68.399902"
       x2="129.6001"
       y2="68.399902"
       id="linearGradient3215"
       gradientUnits="userSpaceOnUse"
       gradientTransform="matrix(-1,-4.371139e-8,4.371139e-8,-1,139.2007,136.8)">
      <stop
         style="stop-color:#2451b1;stop-opacity:1"
         offset="0"
         id="stop3221" />
      <stop
         style="stop-color:#c5d1fb;stop-opacity:0"
         offset="0.5"
         id="stop3227" />
      <stop
         style="stop-color:#7ab4ff;stop-opacity:1"
         offset="1"
         id="stop3233" />
    </linearGradient>
    <linearGradient
       x1="193.5"
       y1="6.7293491"
       x2="193.5"
       y2="155.16769"
       id="linearGradient3213"
       xlink:href="#linearGradient3215"
       gradientUnits="userSpaceOnUse" />
    <radialGradient
       cx="66.136703"
       cy="0.75440001"
       r="81.971497"
       id="XMLID_25_"
       gradientUnits="userSpaceOnUse"
       gradientTransform="matrix(0.9459,0,0,1,1051.1319,-330.17143)">
      <stop
         style="stop-color:#ffffff;stop-opacity:1;"
         offset="0.1302"
         id="stop95" />
      <stop
         style="stop-color:#ffffff;stop-opacity:0.16862746;"
         offset="0.5"
         id="stop97" />
    </radialGradient>
    <filter
       x="-0.29221493"
       width="1.5844299"
       y="-0.057434313"
       height="1.1148686"
       id="filter4446">
      <feGaussianBlur
         inkscape:collect="always"
         stdDeviation="2.4087233"
         id="feGaussianBlur4448" />
    </filter>
    <linearGradient
       x1="108.00493"
       y1="72.341148"
       x2="115.9771"
       y2="102.0937"
       id="linearGradient4456"
       xlink:href="#XMLID_23_"
       gradientUnits="userSpaceOnUse" />
    <filter
       x="-0.29221493"
       width="1.5844299"
       y="-0.057434313"
       height="1.1148686"
       id="filter4442">
      <feGaussianBlur
         inkscape:collect="always"
         stdDeviation="2.4087233"
         id="feGaussianBlur4444" />
    </filter>
    <linearGradient
       x1="115.9771"
       y1="72.399902"
       x2="115.9771"
       y2="120.3999"
       id="XMLID_23_"
       gradientUnits="userSpaceOnUse">
      <stop
         style="stop-color:#00316e;stop-opacity:0"
         offset="0"
         id="stop79" />
      <stop
         style="stop-color:#00316e;stop-opacity:1"
         offset="1"
         id="stop81" />
    </linearGradient>
    <linearGradient
       x1="108.00493"
       y1="72.341148"
       x2="115.9771"
       y2="102.0937"
       id="linearGradient4454"
       xlink:href="#XMLID_23_"
       gradientUnits="userSpaceOnUse" />
    <clipPath
       id="clipPath4458">
      <use
         id="use4460"
         x="0"
         y="0"
         width="1"
         height="1"
         xlink:href="#XMLID_10_" />
    </clipPath>
    <filter
       id="AI_Sfocatura_4">
      <feGaussianBlur
         stdDeviation="4"
         id="feGaussianBlur6" />
    </filter>
    <radialGradient
       cx="69.600098"
       cy="145.3999"
       r="141"
       id="XMLID_21_"
       gradientUnits="userSpaceOnUse"
       gradientTransform="translate(1047.3429,-330.17143)">
      <stop
         style="stop-color:#2c72c7;stop-opacity:0"
         offset="0.3373"
         id="stop58" />
      <stop
         style="stop-color:#2c72c7;stop-opacity:1"
         offset="0.57990003"
         id="stop60" />
      <stop
         style="stop-color:#2c72c7;stop-opacity:0"
         offset="1"
         id="stop62" />
    </radialGradient>
    <radialGradient
       cx="69.600098"
       cy="68.399902"
       r="85"
       id="XMLID_20_"
       gradientUnits="userSpaceOnUse"
       gradientTransform="translate(1047.3429,-330.17143)">
      <stop
         style="stop-color:#6193ff;stop-opacity:1"
         offset="0.5"
         id="stop47" />
      <stop
         style="stop-color:#003685;stop-opacity:1"
         offset="0.78109998"
         id="stop49" />
      <stop
         style="stop-color:#709dff;stop-opacity:1"
         offset="1"
         id="stop51" />
    </radialGradient>
    <linearGradient
       x1="9.5995998"
       y1="68.399902"
       x2="129.6001"
       y2="68.399902"
       id="XMLID_18_"
       gradientUnits="userSpaceOnUse"
       gradientTransform="matrix(-1,-4.371139e-8,4.371139e-8,-1,1186.5436,-193.37143)">
      <stop
         style="stop-color:#003685;stop-opacity:1"
         offset="0"
         id="stop13" />
      <stop
         style="stop-color:#083c8f;stop-opacity:1"
         offset="0"
         id="stop15" />
      <stop
         style="stop-color:#2451b1;stop-opacity:1"
         offset="0.0533"
         id="stop17" />
      <stop
         style="stop-color:#3b63cd;stop-opacity:1"
         offset="0.099"
         id="stop19" />
      <stop
         style="stop-color:#4d71e3;stop-opacity:1"
         offset="0.1477"
         id="stop21" />
      <stop
         style="stop-color:#597bf3;stop-opacity:1"
         offset="0.20100001"
         id="stop23" />
      <stop
         style="stop-color:#6180fc;stop-opacity:1"
         offset="0.2622"
         id="stop25" />
      <stop
         style="stop-color:#6382ff;stop-opacity:1"
         offset="0.34909999"
         id="stop27" />
      <stop
         style="stop-color:#6382ff;stop-opacity:1"
         offset="0.58579999"
         id="stop31" />
      <stop
         style="stop-color:#003685;stop-opacity:1"
         offset="1"
         id="stop33" />
    </linearGradient>
    <filter
       id="filter4466">
      <feGaussianBlur
         inkscape:collect="always"
         stdDeviation="2.32"
         id="feGaussianBlur4468" />
    </filter>
    <linearGradient
       x1="193.5"
       y1="6.7293491"
       x2="193.5"
       y2="155.16769"
       id="linearGradient2328"
       xlink:href="#linearGradient3215"
       gradientUnits="userSpaceOnUse" />
    <linearGradient
       x1="193.5"
       y1="6.7293491"
       x2="193.5"
       y2="155.16769"
       id="linearGradient2330"
       xlink:href="#linearGradient3215"
       gradientUnits="userSpaceOnUse" />
    <linearGradient
       x1="9.5995998"
       y1="68.399902"
       x2="129.6001"
       y2="68.399902"
       id="linearGradient2352"
       xlink:href="#XMLID_18_"
       gradientUnits="userSpaceOnUse"
       gradientTransform="matrix(-1,-4.371139e-8,4.371139e-8,-1,1186.5436,-193.37143)" />
    <radialGradient
       cx="69.600098"
       cy="68.399902"
       r="85"
       id="radialGradient2354"
       xlink:href="#XMLID_20_"
       gradientUnits="userSpaceOnUse"
       gradientTransform="translate(1047.3429,-330.17143)" />
    <radialGradient
       cx="69.600098"
       cy="145.3999"
       r="141"
       id="radialGradient2356"
       xlink:href="#XMLID_21_"
       gradientUnits="userSpaceOnUse"
       gradientTransform="translate(1047.3429,-330.17143)" />
    <linearGradient
       x1="108.00493"
       y1="72.341148"
       x2="115.9771"
       y2="102.0937"
       id="linearGradient2358"
       xlink:href="#XMLID_23_"
       gradientUnits="userSpaceOnUse" />
    <linearGradient
       x1="108.00493"
       y1="72.341148"
       x2="115.9771"
       y2="102.0937"
       id="linearGradient2360"
       xlink:href="#XMLID_23_"
       gradientUnits="userSpaceOnUse" />
    <radialGradient
       cx="66.136703"
       cy="0.75440001"
       r="81.971497"
       id="radialGradient2362"
       xlink:href="#XMLID_25_"
       gradientUnits="userSpaceOnUse"
       gradientTransform="matrix(0.9459,0,0,1,1051.1319,-330.17143)" />
    <linearGradient
       x1="193.5"
       y1="6.7293491"
       x2="193.5"
       y2="155.16769"
       id="linearGradient2364"
       xlink:href="#linearGradient3215"
       gradientUnits="userSpaceOnUse" />
    <linearGradient
       x1="193.5"
       y1="6.7293491"
       x2="193.5"
       y2="155.16769"
       id="linearGradient2366"
       xlink:href="#linearGradient3215"
       gradientUnits="userSpaceOnUse" />
    <linearGradient
       x1="193.5"
       y1="6.7293491"
       x2="193.5"
       y2="155.16769"
       id="linearGradient2368"
       xlink:href="#linearGradient3215"
       gradientUnits="userSpaceOnUse" />
    <radialGradient
       cx="110.74259"
       cy="123.17536"
       r="81.292717"
       fx="110.74259"
       fy="123.17536"
       id="radialGradient2370"
       xlink:href="#XMLID_27_"
       gradientUnits="userSpaceOnUse"
       gradientTransform="matrix(1.0727282,0,0,-0.7852748,-88.140453,159.47421)" />
    <linearGradient
       inkscape:collect="always"
       xlink:href="#linearGradient3215"
       id="linearGradient2255"
       gradientUnits="userSpaceOnUse"
       x1="193.5"
       y1="6.7293491"
       x2="193.5"
       y2="155.16769" />
    <linearGradient
       inkscape:collect="always"
       xlink:href="#linearGradient3215"
       id="linearGradient2263"
       gradientUnits="userSpaceOnUse"
       x1="193.5"
       y1="6.7293491"
       x2="193.5"
       y2="155.16769" />
    <filter
       inkscape:collect="always"
       id="filter2904">
      <feGaussianBlur
         inkscape:collect="always"
         stdDeviation="2.32"
         id="feGaussianBlur2906" />
    </filter>
    <linearGradient
       y2="368.95126"
       x2="952.95911"
       y1="413.45978"
       x1="952.95911"
       gradientTransform="matrix(1,0,0,1.1285714,-795.31846,-62.521768)"
       gradientUnits="userSpaceOnUse"
       id="linearGradient4666"
       xlink:href="#linearGradient4640"
       inkscape:collect="always" />
    <linearGradient
       y2="368.95126"
       x2="952.95911"
       y1="413.45978"
       x1="952.95911"
       gradientUnits="userSpaceOnUse"
       id="linearGradient4664"
       xlink:href="#linearGradient4640"
       inkscape:collect="always" />
    <linearGradient
       y2="49.456421"
       x2="937.9624"
       y1="49.456421"
       x1="-22.560558"
       gradientTransform="matrix(0.8879681,0,0,1.4566291,122.79193,331.85586)"
       gradientUnits="userSpaceOnUse"
       id="linearGradient4662"
       xlink:href="#linearGradient4406"
       inkscape:collect="always" />
    <linearGradient
       y2="49.456421"
       x2="937.9624"
       y1="49.456421"
       x1="-22.560558"
       gradientTransform="matrix(0.8879681,0,0,1.4566291,122.79193,331.85586)"
       gradientUnits="userSpaceOnUse"
       id="linearGradient4564"
       xlink:href="#linearGradient4406"
       inkscape:collect="always" />
    <mask
       id="mask4546"
       maskUnits="userSpaceOnUse">
      <path
         sodipodi:nodetypes="cccccccccccccccccccccccccccccccccccccccccccccccccccccc"
         id="path4548"
         d="M 948.20716,375.07998 L 906.38682,438.53041 L 873.02718,395.24002 L 769.97919,452.6789 L 795.82138,374.80551 L 713.90761,451.57976 L 692.29722,399.81853 L 614.54782,450.79717 L 585.56717,400.15277 L 568.26298,419.37823 L 540.78638,403.29788 L 512.21362,445.788 L 465.04844,401.37951 L 444.6547,439.27217 L 414.24852,423.5206 L 387.88209,450.51049 L 347.1522,409.9863 L 328.6186,452.48863 L 257.4097,375.08126 L 266.93863,460.7435 L 212.51793,430.75924 L 189.97541,449.73884 L 167.74126,401.40812 L 126.18448,453.29564 C 126.12591,504.88427 126.05608,556.47291 125.99945,608.06154 C 134.27196,610.08444 129.50261,599.45583 130.76021,594.67122 C 130.80771,548.15377 130.85519,501.63632 130.90268,455.11888 L 166.41524,409.83685 L 188.27932,457.33067 L 212.9805,436.40828 L 272.70533,469.74012 L 263.63897,388.32214 L 330.09881,460.76792 L 348.63241,418.26558 L 387.91294,457.17576 L 415.29701,429.25931 L 446.75168,445.48911 L 466.65202,408.79202 L 513.32378,452.75217 L 542.23577,409.66427 L 569.0956,425.11694 L 584.54952,407.83427 L 612.88258,457.37278 L 690.13856,406.72291 L 711.96483,459.38081 L 785.98408,389.89952 L 761.80714,462.60209 L 871.91701,401.27763 L 906.81854,446.51081 L 946.97364,385.42162 L 938.96689,605.81985 L 943.89777,593.41688 L 951.84604,369.49071 L 948.20716,375.07998 z "
         style="fill:url(#linearGradient4550);fill-opacity:1;fill-rule:evenodd;stroke:none;stroke-width:0.79371345px;stroke-linecap:butt;stroke-linejoin:miter;stroke-opacity:1;filter:url(#filter4535)" />
    </mask>
    <linearGradient
       y2="606.72491"
       x2="538.52533"
       y1="362.33755"
       x1="538.52533"
       gradientTransform="translate(-4.7687697,1.5895899)"
       gradientUnits="userSpaceOnUse"
       id="linearGradient4550"
       xlink:href="#linearGradient4475"
       inkscape:collect="always" />
    <linearGradient
       y2="49.456436"
       x2="1004.1977"
       y1="49.456436"
       x1="-87.005703"
       gradientTransform="matrix(0.8879681,0,0,1.4566291,122.79193,331.85586)"
       gradientUnits="userSpaceOnUse"
       id="linearGradient4462"
       xlink:href="#linearGradient4406"
       inkscape:collect="always" />
    <radialGradient
       spreadMethod="pad"
       gradientUnits="userSpaceOnUse"
       gradientTransform="matrix(0.5670176,-1.7092377e-2,1.6306761e-2,0.5409565,219.4295,151.95177)"
       r="520.35455"
       fy="655.34149"
       fx="466.43359"
       cy="655.34149"
       cx="466.43359"
       id="radialGradient2638"
       xlink:href="#linearGradient4591"
       inkscape:collect="always" />
    <linearGradient
       id="linearGradient2632">
      <stop
         id="stop2634"
         offset="0"
         style="stop-color:#ffffff;stop-opacity:1;" />
      <stop
         id="stop2636"
         offset="1"
         style="stop-color:#ffffff;stop-opacity:0" />
    </linearGradient>
    <linearGradient
       id="linearGradient4406">
      <stop
         id="stop4408"
         offset="0"
         style="stop-color:#000000;stop-opacity:1;" />
      <stop
         style="stop-color:#ffffff;stop-opacity:1;"
         offset="0.5"
         id="stop4414" />
      <stop
         id="stop4410"
         offset="1"
         style="stop-color:#000000;stop-opacity:1;" />
    </linearGradient>
    <linearGradient
       id="linearGradient4475"
       inkscape:collect="always">
      <stop
         id="stop4477"
         offset="0"
         style="stop-color:#ffffff;stop-opacity:1;" />
      <stop
         id="stop4479"
         offset="1"
         style="stop-color:#ffffff;stop-opacity:0;" />
    </linearGradient>
    <linearGradient
       id="linearGradient4640"
       inkscape:collect="always">
      <stop
         id="stop4642"
         offset="0"
         style="stop-color:#000000;stop-opacity:1;" />
      <stop
         id="stop4644"
         offset="1"
         style="stop-color:#000000;stop-opacity:0;" />
    </linearGradient>
    <linearGradient
       id="linearGradient3377"
       inkscape:collect="always">
      <stop
         id="stop3379"
         offset="0"
         style="stop-color:#000000;stop-opacity:1;" />
      <stop
         id="stop3381"
         offset="1"
         style="stop-color:#000000;stop-opacity:0;" />
    </linearGradient>
    <linearGradient
       inkscape:collect="always"
       xlink:href="#linearGradient4406"
       id="linearGradient2839"
       gradientUnits="userSpaceOnUse"
       gradientTransform="matrix(0.8879681,0,0,1.4566291,122.79193,331.85586)"
       x1="-22.560558"
       y1="49.456421"
       x2="937.9624"
       y2="49.456421" />
    <linearGradient
       inkscape:collect="always"
       xlink:href="#linearGradient3377"
       id="linearGradient2859"
       gradientUnits="userSpaceOnUse"
       gradientTransform="matrix(1,0,0,1.2485714,22.97817,-45.612107)"
       x1="-1.4142135"
       y1="307.80962"
       x2="165.46298"
       y2="307.80962" />
    <linearGradient
       inkscape:collect="always"
       xlink:href="#linearGradient3377"
       id="linearGradient2861"
       gradientUnits="userSpaceOnUse"
       gradientTransform="matrix(1,0,0,1.2485714,-1030.192,-45.612107)"
       x1="-12.082316"
       y1="283.06088"
       x2="84.669983"
       y2="283.06088" />
    <linearGradient
       inkscape:collect="always"
       xlink:href="#linearGradient3377"
       id="linearGradient2863"
       gradientUnits="userSpaceOnUse"
       gradientTransform="matrix(1,0,0,1.2485714,-1030.192,-45.612107)"
       x1="-139.88103"
       y1="304.81848"
       x2="76.760071"
       y2="303.32291" />
    <radialGradient
       inkscape:collect="always"
       xlink:href="#linearGradient3280"
       id="radialGradient3286"
       cx="483.32422"
       cy="310.22672"
       fx="478.82819"
       fy="-31.081305"
       r="654.17371"
       gradientTransform="matrix(1,0,0,0.5532646,0,138.58926)"
       gradientUnits="userSpaceOnUse" />
    <defs
       id="defs68">
      <path
         d="M 69.626,12.145 L 69.574,12.145 C 46.847,11.853 23.102,16.222 22.865,16.267 C 20.441,16.718 17.919,19.241 17.468,21.664 C 17.424,21.901 13.054,45.647 13.346,68.374 C 13.054,91.151 17.424,114.897 17.468,115.135 C 17.919,117.558 20.442,120.08 22.866,120.533 C 23.103,120.577 46.848,124.946 69.575,124.654 C 92.354,124.946 116.099,120.577 116.336,120.533 C 118.759,120.081 121.282,117.557 121.734,115.134 C 121.778,114.898 126.147,91.153 125.855,68.425 C 126.147,45.648 121.778,21.902 121.734,21.664 C 121.281,19.241 118.758,16.718 116.336,16.267 C 116.098,16.222 92.352,11.853 69.626,12.145 z "
         id="XMLID_10_" />
    </defs>
    <clipPath
       clipPathUnits="userSpaceOnUse"
       id="clipPath3419">
      <rect
         style="opacity:0.78445231;fill:none;fill-opacity:1;fill-rule:nonzero;stroke:#ffffff;stroke-width:5;stroke-linecap:round;stroke-linejoin:miter;stroke-miterlimit:4;stroke-dasharray:none;stroke-opacity:1"
         id="rect3421"
         width="664"
         height="812"
         x="196"
         y="-215.90552" />
    </clipPath>
    <clipPath
       clipPathUnits="userSpaceOnUse"
       id="clipPath3496">
      <rect
         style="opacity:1;fill:none;fill-opacity:1;fill-rule:nonzero;stroke:#828282;stroke-width:5;stroke-linecap:round;stroke-linejoin:miter;stroke-miterlimit:4;stroke-dasharray:none;stroke-opacity:1"
         id="rect3498"
         width="528.91583"
         height="605.28326"
         x="-42.426403"
         y="110.52681" />
    </clipPath>
  </defs>
  <sodipodi:namedview
     inkscape:document-units="mm"
     pagecolor="#ffffff"
     bordercolor="#666666"
     borderopacity="1.0"
     inkscape:pageopacity="0.0"
     inkscape:pageshadow="2"
     inkscape:zoom="0.35355339"
     inkscape:cx="543.58249"
     inkscape:cy="378.8809"
     inkscape:current-layer="layer3"
     id="namedview1876"
     inkscape:window-width="1280"
     inkscape:window-height="686"
     inkscape:window-x="0"
     inkscape:window-y="0"
     showguides="true"
     inkscape:guide-bbox="true" />
  <metadata
     id="metadata1878">
    <rdf:RDF>
      <cc:Work
         rdf:about="">
        <dc:format>image/svg+xml</dc:format>
        <dc:type
           rdf:resource="http://purl.org/dc/dcmitype/StillImage" />
      </cc:Work>
    </rdf:RDF>
  </metadata>
  <g
     inkscape:groupmode="layer"
     id="layer3"
     inkscape:label="background"
     style="display:inline">
    <path
       id="path159"
       style="fill:url(#XMLID_29_);stroke:#2c72c7;stroke-width:3.16993809;stroke-linejoin:round"
       d="" />
    <g
       id="g3486"
       clip-path="url(#clipPath3496)"
       transform="translate(49.497475,-171.11984)">
      <g
         transform="matrix(0.7399103,0,0,0.7399103,-140.21404,295.07366)"
         style="display:inline"
         inkscape:label="background"
         id="g2745">
        <rect
           y="-4.526897"
           x="-0.45966128"
           height="756.24847"
           width="1058.5704"
           id="rect3704"
           style="opacity:1;fill:#000000;fill-opacity:1;stroke:#000000;stroke-width:1.01189446;stroke-miterlimit:4;stroke-dasharray:none;stroke-dashoffset:0;stroke-opacity:0.52247189" />
      </g>
      <path
         d="M 168.98238,447.79273 L 140.07244,450.57253 L 140.07244,569.67159 L 168.67351,565.34745 L 168.67351,514.56973 L 207.15833,570.90704 L 237.30373,561.33218 L 197.89231,507.15692 L 237.6126,456.07036 L 206.84946,449.02819 L 168.67351,500.11477 L 168.98238,447.79273 z M 103.44083,476.8262 C 103.11394,476.85993 102.76034,476.95025 102.51425,477.19685 L 91.147943,488.56316 C 90.670563,489.04201 90.612243,489.77491 90.962623,490.35458 L 104.2439,512.28413 C 101.88564,516.24846 99.970643,520.501 98.622513,525.00944 L 74.222043,530.07485 C 73.543023,530.21522 73.048333,530.8616 73.048333,531.55741 L 73.048333,547.6185 C 73.048333,548.29751 73.564783,548.87915 74.222043,549.03927 L 97.881243,554.78421 C 99.146333,560.00378 101.10088,564.99858 103.68792,569.54804 L 89.974253,590.42743 C 89.591733,591.01058 89.666383,591.78842 90.159563,592.28063 L 101.52586,603.64694 C 102.00472,604.1243 102.7391,604.1841 103.31729,603.83226 L 124.81442,590.79807 C 129.03079,593.23242 133.59566,595.18249 138.40456,596.48122 L 143.40821,620.57284 C 143.54855,621.25383 144.13367,621.74655 144.82898,621.74655 L 160.89006,621.74655 C 161.56415,621.74655 162.15075,621.29387 162.31086,620.63462 L 168.2411,596.41946 C 173.20072,595.08218 177.87677,593.09702 182.20188,590.55098 L 203.39014,604.44999 C 203.97426,604.83051 204.74817,604.75689 205.24336,604.26467 L 216.54787,592.89837 C 217.02822,592.41903 217.14683,591.68515 216.79496,591.10694 L 209.07328,578.38163 L 206.54059,579.18468 C 206.17488,579.29736 205.76965,579.13229 205.55221,578.81405 C 205.55221,578.81405 200.67456,571.63889 194.30948,562.32055 C 186.69706,577.21625 171.1725,587.40054 153.29194,587.40054 C 127.88396,587.40054 107.27079,566.78736 107.27079,541.37938 C 107.27079,522.68984 118.44691,506.63751 134.45106,499.43526 L 134.45106,487.57477 C 131.53835,488.59429 128.7244,489.82431 126.04988,491.28118 C 126.04494,491.27821 126.05482,491.22237 126.04988,491.21941 L 104.36745,477.01153 C 104.07587,476.82077 103.76775,476.79247 103.44083,476.8262 z "
         style="fill:#ffffff;fill-opacity:1;display:inline"
         id="path3474" />
      <path
         style="fill:#000000;fill-opacity:1;fill-rule:evenodd;stroke:none;stroke-width:0.79371345px;stroke-linecap:butt;stroke-linejoin:miter;stroke-opacity:1;display:inline"
         d="M 556.35031,522.73792 L 511.83937,561.83641 L 494.30757,526.37184 L 476.65472,534.00719 L 463.38701,504.30327 L 442.48285,490.01583 L 427.76685,550.99028 L 397.49031,530.72044 L 377.7993,546.77065 L 353.03065,503.15294 L 327.1679,561.62731 L 300.98285,533.35075 L 288.70115,540.6652 L 264.76986,509.29478 L 240.67949,576.78215 L 229.31217,564.29476 L 202.39616,585.6428 L 180.81613,552.65256 L 152.02606,543.4392 L 124.202,491.57978 L 102.33793,560.54704 L 80.455858,523.78171 L 69.653812,477.43491 L 64.067356,485.02513 L 54.615986,476.27939 L 45.145726,490.4301 L 40.116615,508.0467 L 23.978268,481.0294 L 4.4183547,539.83658 L -7.0315279,526.40521 L -25.78363,547.74696 L -52.171909,521.40682 L -83.13574,530.74486 L -93.395375,515.20245 L -101.22897,518.20537 L -109.58178,508.17774 L -122.61109,512.91502 L -140.93274,497.53428 L -140.92814,851.51151 L 637.40436,851.50492 L 637.40761,528.37737 L 598.7931,564.02499 L 570.07535,552.83384 L 556.35031,522.73792 z "
         id="path2379"
         sodipodi:nodetypes="cccccccccccccccccccccccccccccccccccccccccccc" />
      <path
         sodipodi:nodetypes="cccccccccccccccccccccccccccccccccccccccccccc"
         id="path3358"
         d="M 556.35031,522.73792 L 511.83937,561.83641 L 494.30757,526.37184 L 476.65472,534.00719 L 463.38701,504.30327 L 442.48285,490.01583 L 427.76685,550.99028 L 397.49031,530.72044 L 377.7993,546.77065 L 353.03065,503.15294 L 327.1679,561.62731 L 300.98285,533.35075 L 288.70115,540.6652 L 264.76986,509.29478 L 240.67949,576.78215 L 229.31217,564.29476 L 202.39616,585.6428 L 180.81613,552.65256 L 152.02606,543.4392 L 124.202,491.57978 L 102.33793,560.54704 L 80.455858,523.78171 L 69.653812,477.43491 L 64.067356,485.02513 L 54.615986,476.27939 L 45.145726,490.4301 L 40.116615,508.0467 L 23.978268,481.0294 L 4.4183547,539.83658 L -7.0315279,526.40521 L -25.78363,547.74696 L -52.171909,521.40682 L -83.13574,530.74486 L -93.395375,515.20245 L -101.22897,518.20537 L -109.58178,508.17774 L -122.61109,512.91502 L -140.93274,497.53428 L -140.92814,851.51151 L 637.40436,851.50492 L 637.40761,528.37737 L 598.7931,564.02499 L 570.07535,552.83384 L 556.35031,522.73792 z "
         style="fill:none;fill-opacity:1;fill-rule:evenodd;stroke:#828282;stroke-width:6.2892375;stroke-linecap:butt;stroke-linejoin:miter;stroke-miterlimit:4;stroke-dasharray:none;stroke-opacity:1" />
      <rect
         y="736.82544"
         x="515.36768"
         height="17.757847"
         width="11.838565"
         id="rect3407"
         style="opacity:0.78445231;fill:none;fill-opacity:1;fill-rule:nonzero;stroke:#ffffff;stroke-width:3.69955158;stroke-linecap:round;stroke-linejoin:miter;stroke-miterlimit:4;stroke-dasharray:none;stroke-opacity:1" />
    </g>
    <g
       transform="matrix(0.7399103,0,0,0.7399103,402.32735,299.68825)"
       clip-path="url(#clipPath3419)"
       id="g3425">
      <g
         id="g3427"
         inkscape:label="background"
         style="display:inline"
         transform="translate(1.97133,-8.9397146)">
        <rect
           style="opacity:1;fill:#000000;fill-opacity:1;stroke:#000000;stroke-width:1.01189446;stroke-miterlimit:4;stroke-dasharray:none;stroke-dashoffset:0;stroke-opacity:0.52247189"
           id="rect3429"
           width="1058.5704"
           height="756.24847"
           x="-0.45966128"
           y="-4.526897" />
      </g>
      <path
         sodipodi:nodetypes="cccccccccccccccccccccccccccccccccccccccccccc"
         id="path3431"
         d="M 943.38862,298.75198 L 883.23142,351.59418 L 859.53692,303.66328 L 835.67882,313.98258 L 817.74732,273.83728 L 789.49502,254.52758 L 769.60612,336.93548 L 728.68692,309.54048 L 702.07422,331.23258 L 668.59902,272.28258 L 633.64512,351.31158 L 598.25562,313.09538 L 581.65672,322.98098 L 549.31322,280.58338 L 516.75472,371.79358 L 501.39162,354.91668 L 465.01422,383.76888 L 435.84848,339.18208 L 396.93827,326.73008 L 359.33363,256.64128 L 329.784,349.85158 L 300.21005,300.16268 L 285.61092,237.52428 L 278.06074,247.78258 L 265.28707,235.96258 L 252.48787,255.08748 L 245.69095,278.89658 L 223.87973,242.38228 L 197.44421,321.86108 L 181.96952,303.70838 L 156.62577,332.55208 L 120.96161,296.95298 L 79.113522,309.57348 L 65.24747,288.56768 L 54.66025,292.62618 L 43.3713,279.07368 L 25.76199,285.47618 L 1,264.68888 L 1.00622,743.09448 L 1052.9344,743.08558 L 1052.9388,306.37378 L 1000.7507,354.55208 L 961.93822,339.42708 L 943.38862,298.75198 z "
         style="fill:#000000;fill-opacity:1;fill-rule:evenodd;stroke:none;stroke-width:0.79371345px;stroke-linecap:butt;stroke-linejoin:miter;stroke-opacity:1;display:inline" />
      <path
         style="opacity:0.8;filter:url(#filter2904)"
         d="M 126,113.8 C 126,122.6 118.8,129.8 110,129.8 L 26,129.8 C 17.2,129.8 10,122.6 10,113.8 L 10,29.800002 C 10,21.000002 17.2,13.800002 26,13.800002 L 110,13.800002 C 118.8,13.800002 126,21.000002 126,29.800002 L 126,113.8 z "
         id="path3433"
         transform="matrix(1.6669501,0,0,1.6122961,419.91838,36.525815)" />
      <path
         d="M 457.53356,32.592843 L 402.36516,37.897518 L 402.36516,265.17245 L 456.94416,256.92076 L 456.94416,160.02242 L 530.38415,267.53006 L 587.91015,249.25848 L 512.70196,145.87667 L 588.49956,48.388928 L 529.79472,34.950478 L 456.94416,132.43822 L 457.53356,32.592843 z M 332.46161,87.996995 C 331.83779,88.061375 331.16304,88.233715 330.69341,88.704305 L 309.00327,110.39444 C 308.09228,111.30823 307.98099,112.70681 308.64963,113.813 L 333.99408,155.66082 C 329.49387,163.2259 325.8395,171.34095 323.26688,179.94433 L 276.70382,189.6106 C 275.40806,189.87842 274.46406,191.11194 274.46406,192.43973 L 274.46406,223.08887 C 274.46406,224.38459 275.44956,225.49457 276.70382,225.80011 L 321.85232,236.76307 C 324.2665,246.72352 327.99632,256.25501 332.93313,264.93668 L 306.76351,304.78051 C 306.0336,305.89333 306.17601,307.37767 307.11715,308.31696 L 328.80729,330.00709 C 329.72111,330.91805 331.12249,331.03215 332.22585,330.36074 L 373.24851,305.4878 C 381.29456,310.13324 390.00561,313.85453 399.18237,316.33288 L 408.73074,362.30655 C 408.99856,363.60606 410.11515,364.5463 411.44202,364.5463 L 442.09112,364.5463 C 443.37745,364.5463 444.49685,363.68247 444.80239,362.42442 L 456.119,316.215 C 465.58338,313.66311 474.50662,309.87485 482.76013,305.01628 L 523.19339,331.53956 C 524.30806,332.26569 525.78489,332.12518 526.72984,331.18592 L 548.30209,309.49576 C 549.21872,308.58101 549.44505,307.18058 548.77361,306.07722 L 534.03845,281.7937 L 529.20533,283.32614 C 528.50746,283.54117 527.73416,283.22616 527.31923,282.61886 C 527.31923,282.61886 518.01127,268.92661 505.86486,251.14457 C 491.33822,279.56981 461.71296,299.00435 427.59174,299.00435 C 379.10607,299.00435 339.77025,259.66853 339.77025,211.18286 C 339.77025,175.51787 361.09748,144.88545 391.63797,131.14153 L 391.63797,108.50833 C 386.07969,110.45385 380.7099,112.8011 375.60615,115.58121 C 375.59672,115.57554 375.61556,115.46899 375.60615,115.46332 L 334.22984,88.350665 C 333.67345,87.986655 333.08545,87.932645 332.46161,87.996995 z "
         style="fill:#ffffff;fill-opacity:1"
         id="path3437" />
      <rect
         style="opacity:0.78445231;fill:none;fill-opacity:1;fill-rule:nonzero;stroke:#ffffff;stroke-width:5;stroke-linecap:round;stroke-linejoin:miter;stroke-miterlimit:4;stroke-dasharray:none;stroke-opacity:1"
         id="rect3441"
         width="16"
         height="24"
         x="888"
         y="588.09448" />
    </g>
    <text
       xml:space="preserve"
       style="font-size:24.49648094px;font-style:normal;font-weight:normal;text-align:center;text-anchor:middle;fill:#ffffff;fill-opacity:1;stroke:none;stroke-width:1px;stroke-linecap:butt;stroke-linejoin:miter;stroke-opacity:1;font-family:Bitstream Vera Sans"
       x="843.28766"
       y="719.58417"
       id="text3449"><tspan
         sodipodi:role="line"
         x="843.28766"
         y="719.58417"
         id="tspan3528">...the beginning of a new era.</tspan></text>
    <rect
       style="opacity:1;fill:#000000;fill-opacity:1;fill-rule:nonzero;stroke:none;stroke-width:5;stroke-linecap:round;stroke-linejoin:miter;stroke-miterlimit:4;stroke-dasharray:none;stroke-opacity:1"
       id="rect3500"
       width="530.33008"
       height="178.1909"
       x="5.6568542"
       y="517.82031" />
    <text
       xml:space="preserve"
       style="font-size:64.31771851px;font-style:normal;font-weight:normal;text-align:center;text-anchor:middle;fill:#ffffff;fill-opacity:1;stroke:none;stroke-width:1px;stroke-linecap:butt;stroke-linejoin:miter;stroke-opacity:1;font-family:Bitstream Vera Sans"
       x="203.93297"
       y="656.20746"
       id="text3502"><tspan
         sodipodi:role="line"
         x="203.93297"
         y="656.20746"
         id="tspan3506">KDE 4.0!</tspan></text>
    <text
       id="text3508"
       y="558.68799"
       x="384.01013"
       style="font-size:32.14645386px;font-style:normal;font-weight:normal;text-align:center;text-anchor:middle;fill:#ffffff;fill-opacity:1;stroke:none;stroke-width:1px;stroke-linecap:butt;stroke-linejoin:miter;stroke-opacity:1;font-family:Bitstream Vera Sans"
       xml:space="preserve"><tspan
         id="tspan3512"
         y="558.68799"
         x="384.01014"
         sodipodi:role="line">...Release Event...</tspan></text>
    <text
       id="text3516"
       y="479.27707"
       x="183.80486"
       style="font-size:22.55651665px;font-style:normal;font-weight:normal;text-align:center;text-anchor:middle;fill:#ffffff;fill-opacity:1;stroke:none;stroke-width:1px;stroke-linecap:butt;stroke-linejoin:miter;stroke-opacity:1;font-family:Bitstream Vera Sans"
       xml:space="preserve"><tspan
         y="479.27707"
         x="183.80486"
         id="tspan3518"
         sodipodi:role="line">...Mountain View, California...</tspan><tspan
         id="tspan3520"
         y="507.47271"
         x="183.80486"
         sodipodi:role="line" /></text>
    <text
       id="text3524"
       y="674.5506"
       x="671.74329"
       style="font-size:64.31771851px;font-style:normal;font-weight:normal;text-align:center;text-anchor:middle;fill:#ffffff;fill-opacity:1;stroke:none;stroke-width:1px;stroke-linecap:butt;stroke-linejoin:miter;stroke-opacity:1;font-family:Bitstream Vera Sans"
       xml:space="preserve"><tspan
         id="tspan3526"
         y="674.5506"
         x="671.74329"
         sodipodi:role="line">KDE 4</tspan></text>
  </g>
  <g
     inkscape:groupmode="layer"
     id="layer2"
     inkscape:label="logo"
     style="opacity:1;display:inline" />
  <g
     inkscape:label="mountains"
     inkscape:groupmode="layer"
     id="layer1"
     style="display:inline" />
  <g
     inkscape:groupmode="layer"
     id="layer4"
     inkscape:label="text"
     style="display:inline" />
</svg>
