#define round_relief_lr_width 5
#define round_relief_lr_height 7
static unsigned char round_relief_lr_bits[] = {
   0x18, 0x1c, 0x1e, 0x1f, 0x1f, 0x1f, 0x1f };
