#define round_ll_width 5
#define round_ll_height 5
static unsigned char round_ll_bits[] = {
   0x03, 0x07, 0x0f, 0x1f, 0x1f };
