<?xml version="1.0" encoding="utf-8"?>
<!-- Generator: Adobe Illustrator 12.0.0, SVG Export Plug-In . SVG Version: 6.00 Build 51448)  -->
<!DOCTYPE svg PUBLIC "-//W3C//DTD SVG 1.1//EN" "http://www.w3.org/Graphics/SVG/1.1/DTD/svg11.dtd" [
	<!ENTITY ns_extend "http://ns.adobe.com/Extensibility/1.0/">
	<!ENTITY ns_ai "http://ns.adobe.com/AdobeIllustrator/10.0/">
	<!ENTITY ns_graphs "http://ns.adobe.com/Graphs/1.0/">
	<!ENTITY ns_vars "http://ns.adobe.com/Variables/1.0/">
	<!ENTITY ns_imrep "http://ns.adobe.com/ImageReplacement/1.0/">
	<!ENTITY ns_sfw "http://ns.adobe.com/SaveForWeb/1.0/">
	<!ENTITY ns_custom "http://ns.adobe.com/GenericCustomNamespace/1.0/">
	<!ENTITY ns_adobe_xpath "http://ns.adobe.com/XPath/1.0/">
	<!ENTITY ns_svg "http://www.w3.org/2000/svg">
	<!ENTITY ns_xlink "http://www.w3.org/1999/xlink">
]>
<svg  version="1.1" id="Livello_1" xmlns:x="&ns_extend;" xmlns:i="&ns_ai;" xmlns:graph="&ns_graphs;"
	 xmlns="&ns_svg;" xmlns:xlink="&ns_xlink;" width="112" height="96" viewBox="0 0 112 96"
	 overflow="visible" enable-background="new 0 0 112 96" xml:space="preserve">
<metadata>
	<sfw  xmlns="&ns_sfw;">
		<slices></slices>
		<sliceSourceBounds  x="8" y="16" height="96" width="112" bottomLeftOrigin="true"></sliceSourceBounds>
	</sfw>
</metadata>
<linearGradient id="XMLID_4_" gradientUnits="userSpaceOnUse" x1="56.0005" y1="96" x2="56.0005" y2="9.765625e-04">
	<stop  offset="0" style="stop-color:#555555"/>
	<stop  offset="0.0546" style="stop-color:#494949"/>
	<stop  offset="0.2495" style="stop-color:#212121"/>
	<stop  offset="0.4048" style="stop-color:#090909"/>
	<stop  offset="0.5" style="stop-color:#000000"/>
	<stop  offset="1" style="stop-color:#888888"/>
</linearGradient>
<path fill="url(#XMLID_4_)" d="M106.1,0.338L2.565,44.157C1.009,44.815,0,46.327,0,47.999c0,1.674,1.009,3.184,2.565,3.843
	l103.536,43.82c1.308,0.554,2.81,0.421,3.997-0.352c1.188-0.773,1.902-2.085,1.902-3.49V4.18c0-1.405-0.715-2.716-1.902-3.49
	C108.91-0.083,107.408-0.215,106.1,0.338z"/>
<linearGradient id="XMLID_5_" gradientUnits="userSpaceOnUse" x1="56.0005" y1="96" x2="56.0005" y2="9.765625e-04">
	<stop  offset="0" style="stop-color:#BBBBBB"/>
	<stop  offset="0.0063" style="stop-color:#B6B6B6"/>
	<stop  offset="0.0713" style="stop-color:#868686"/>
	<stop  offset="0.1381" style="stop-color:#5D5D5D"/>
	<stop  offset="0.2059" style="stop-color:#3B3B3B"/>
	<stop  offset="0.2749" style="stop-color:#212121"/>
	<stop  offset="0.3457" style="stop-color:#0F0F0F"/>
	<stop  offset="0.4192" style="stop-color:#040404"/>
	<stop  offset="0.5" style="stop-color:#000000"/>
	<stop  offset="1" style="stop-color:#BBBBBB"/>
</linearGradient>
<path fill="url(#XMLID_5_)" d="M107.656,4.022c0.001,0,0.002,0,0.002-0.001L4.124,47.84C4.049,47.872,4,47.935,4,47.999
	c0,0.066,0.048,0.127,0.125,0.16l103.534,43.82c0.083,0.035,0.184,0.026,0.257-0.021c0.052-0.034,0.084-0.086,0.084-0.138V4.18
	c0-0.052-0.032-0.104-0.086-0.139C107.842,3.995,107.74,3.987,107.656,4.022z"/>
<linearGradient id="XMLID_6_" gradientUnits="userSpaceOnUse" x1="57.3779" y1="2.8633" x2="57.3779" y2="53.0936">
	<stop  offset="0" style="stop-color:#FFFFFF"/>
	<stop  offset="1" style="stop-color:#000000"/>
</linearGradient>
<path opacity="0.5" fill="url(#XMLID_6_)" d="M48.421,50.759C52.724,50.911,57.081,51,61.5,51c16.419,0,32.105-1.076,46.5-3.034
	V4.956C92.445,10.208,70.107,22.424,48.421,50.759z M6.756,46.727c7.865,1.3,16.193,2.318,24.858,3.041
	c8.142-9.137,17.67-18.037,28.648-25.687L6.756,46.727z"/>
</svg>
