<?xml version="1.0" encoding="UTF-8" standalone="no"?>
<!-- Created with Inkscape (http://www.inkscape.org/) -->
<svg
   xmlns:svg="http://www.w3.org/2000/svg"
   xmlns="http://www.w3.org/2000/svg"
   xmlns:xlink="http://www.w3.org/1999/xlink"
   version="1.0"
   width="88"
   height="88"
   id="svg8301">
  <defs
     id="defs8303">
    <linearGradient
       x1="803"
       y1="43.9995"
       x2="765"
       y2="43.9995"
       id="XMLID_10_"
       gradientUnits="userSpaceOnUse">
	<stop
   style="stop-color:#a4c0e4;stop-opacity:1"
   offset="0"
   id="stop6538" />

	<stop
   style="stop-color:white;stop-opacity:1"
   offset="1"
   id="stop6540" />

</linearGradient>
    <linearGradient
       x1="765.54303"
       y1="44.0005"
       x2="733.71002"
       y2="44.0005"
       id="XMLID_9_"
       gradientUnits="userSpaceOnUse">
	<stop
   style="stop-color:#a4c0e4;stop-opacity:1"
   offset="0"
   id="stop6525" />

	<stop
   style="stop-color:white;stop-opacity:1"
   offset="0.69999999"
   id="stop6527" />

</linearGradient>
    <linearGradient
       x1="612.00049"
       y1="214"
       x2="612.00049"
       y2="210"
       id="polygon3303_19_"
       gradientUnits="userSpaceOnUse"
       gradientTransform="matrix(0,-1,1,0,600,686)">
	<stop
   style="stop-color:#0057ae;stop-opacity:1"
   offset="0"
   id="stop6519" />

	<stop
   style="stop-color:#06f;stop-opacity:1"
   offset="1"
   id="stop6521" />

</linearGradient>
    <linearGradient
       x1="626"
       y1="212"
       x2="638"
       y2="212"
       id="polygon3301_63_"
       gradientUnits="userSpaceOnUse"
       gradientTransform="matrix(0,-1,1,0,600,686)">
	<stop
   style="stop-color:#bf0000;stop-opacity:1"
   offset="0"
   id="stop6513" />

	<stop
   style="stop-color:red;stop-opacity:1"
   offset="1"
   id="stop6515" />

</linearGradient>
    <linearGradient
       x1="652"
       y1="214"
       x2="652"
       y2="210"
       id="polygon3299_21_"
       gradientUnits="userSpaceOnUse"
       gradientTransform="matrix(0,-1,1,0,600,686)">
	<stop
   style="stop-color:#0057ae;stop-opacity:1"
   offset="0"
   id="stop6507" />

	<stop
   style="stop-color:#06f;stop-opacity:1"
   offset="1"
   id="stop6509" />

</linearGradient>
    <linearGradient
       x1="666"
       y1="212"
       x2="678"
       y2="212"
       id="polygon3297_28_"
       gradientUnits="userSpaceOnUse"
       gradientTransform="matrix(0,-1,1,0,600,686)">
	<stop
   style="stop-color:#bf0000;stop-opacity:1"
   offset="0"
   id="stop6501" />

	<stop
   style="stop-color:red;stop-opacity:1"
   offset="1"
   id="stop6503" />

</linearGradient>
    <linearGradient
       x1="791.83301"
       y1="44.0005"
       x2="765.54303"
       y2="44.0005"
       id="polygon3295_12_"
       gradientUnits="userSpaceOnUse">
	<stop
   style="stop-color:#2c72c7;stop-opacity:1"
   offset="0"
   id="stop6491" />

	<stop
   style="stop-color:#6193cf;stop-opacity:1"
   offset="0.15000001"
   id="stop6493" />

	<stop
   style="stop-color:#a4c0e4;stop-opacity:1"
   offset="1"
   id="stop6495" />

</linearGradient>
    <linearGradient
       x1="1196"
       y1="-618.5293"
       x2="1196"
       y2="-626.51862"
       id="polygon3293_18_"
       gradientUnits="userSpaceOnUse"
       gradientTransform="matrix(0,-4,-4,0,-1694.406,4828)">
	<stop
   style="stop-color:#888;stop-opacity:1"
   offset="0"
   id="stop6475" />

	<stop
   style="stop-color:#8b8b8b;stop-opacity:1"
   offset="0.2375"
   id="stop6477" />

	<stop
   style="stop-color:#959595;stop-opacity:1"
   offset="0.42809999"
   id="stop6479" />

	<stop
   style="stop-color:#a6a6a6;stop-opacity:1"
   offset="0.60259998"
   id="stop6481" />

	<stop
   style="stop-color:#bebebe;stop-opacity:1"
   offset="0.76740003"
   id="stop6483" />

	<stop
   style="stop-color:#dcdcdc;stop-opacity:1"
   offset="0.92390001"
   id="stop6485" />

	<stop
   style="stop-color:#eee;stop-opacity:1"
   offset="1"
   id="stop6487" />

</linearGradient>
    <linearGradient
       x1="682.00098"
       y1="196.99899"
       x2="678.00098"
       y2="196.99899"
       id="polygon3301_62_"
       gradientUnits="userSpaceOnUse"
       gradientTransform="matrix(0,-1,1,0,600,686)">
		<stop
   style="stop-color:#0057ae;stop-opacity:1"
   offset="0"
   id="stop6469" />

		<stop
   style="stop-color:#06f;stop-opacity:1"
   offset="1"
   id="stop6471" />

	</linearGradient>
    <linearGradient
       x1="682.00098"
       y1="180.99899"
       x2="678.00098"
       y2="180.99899"
       id="polygon3301_61_"
       gradientUnits="userSpaceOnUse"
       gradientTransform="matrix(0,-1,1,0,600,686)">
		<stop
   style="stop-color:#bf0000;stop-opacity:1"
   offset="0"
   id="stop6463" />

		<stop
   style="stop-color:red;stop-opacity:1"
   offset="1"
   id="stop6465" />

	</linearGradient>
    <linearGradient
       x1="602"
       y1="197"
       x2="606"
       y2="197"
       id="polygon3301_60_"
       gradientUnits="userSpaceOnUse"
       gradientTransform="matrix(0,-1,1,0,600,686)">
		<stop
   style="stop-color:#bf0000;stop-opacity:1"
   offset="0"
   id="stop6455" />

		<stop
   style="stop-color:red;stop-opacity:1"
   offset="1"
   id="stop6457" />

	</linearGradient>
    <linearGradient
       x1="602"
       y1="181"
       x2="606"
       y2="181"
       id="polygon3301_59_"
       gradientUnits="userSpaceOnUse"
       gradientTransform="matrix(0,-1,1,0,600,686)">
		<stop
   style="stop-color:#0057ae;stop-opacity:1"
   offset="0"
   id="stop6449" />

		<stop
   style="stop-color:#06f;stop-opacity:1"
   offset="1"
   id="stop6451" />

	</linearGradient>
    <linearGradient
       x1="733.71002"
       y1="44"
       x2="814"
       y2="44"
       id="XMLID_1_"
       gradientUnits="userSpaceOnUse">
	<stop
   style="stop-color:#6193cf;stop-opacity:1"
   offset="0"
   id="stop5473" />

	<stop
   style="stop-color:white;stop-opacity:1"
   offset="0.5"
   id="stop5475" />

</linearGradient>
    <linearGradient
       id="linearGradient3291">
      <stop
         style="stop-color:black;stop-opacity:1"
         offset="0"
         id="stop3293" />
      <stop
         style="stop-color:black;stop-opacity:0"
         offset="1"
         id="stop3295" />
    </linearGradient>
    <radialGradient
       cx="63.912209"
       cy="115.70919"
       r="63.912209"
       fx="63.912209"
       fy="115.7093"
       id="radialGradient4418"
       xlink:href="#linearGradient3291"
       gradientUnits="userSpaceOnUse"
       gradientTransform="matrix(0.688444,0,0,5.67397e-2,1.5e-5,77.80829)" />
    <linearGradient
       x1="1229.8545"
       y1="-280.94821"
       x2="1231.6117"
       y2="-393.9523"
       id="path4399_1_"
       gradientUnits="userSpaceOnUse"
       gradientTransform="matrix(0.9579,0,0,-0.9579,-1135.012,-285.1991)">
	<stop
   style="stop-color:#740000;stop-opacity:1"
   offset="0"
   id="stop6608" />

	<stop
   style="stop-color:#de0000;stop-opacity:1"
   offset="1"
   id="stop6610" />

</linearGradient>
  </defs>
  <g
     id="layer1">
    <path
       d="M 87.999975,84.37363 C 87.999975,86.37642 68.300515,88 44.000005,88 C 19.699485,88 2.5e-05,86.37642 2.5e-05,84.37363 C 2.5e-05,82.37085 19.699485,80.74727 44.000005,80.74727 C 68.300515,80.74727 87.999975,82.37085 87.999975,84.37363 L 87.999975,84.37363 z "
       style="opacity:0.38139535;fill:url(#radialGradient4418);fill-opacity:1;fill-rule:nonzero;stroke:none;stroke-width:0;stroke-linecap:round;stroke-linejoin:round;stroke-miterlimit:4;stroke-dasharray:none;stroke-dashoffset:4;stroke-opacity:1"
       id="path4416" />
    <g
       transform="matrix(0.996761,0,0,1,-727.3505,0)"
       id="g8338">
      <path
         d="M 761.167,0 C 759.849,0 758.616,0.649 757.87,1.736 C 757.87,1.736 730.413,41.734 730.413,41.734 C 729.481,43.088 729.481,44.908 730.413,46.263 L 757.87,86.264 C 758.613,87.351 759.846,88 761.167,88 L 814,88 C 816.206,88 818,86.206 818,84 L 818,4 C 818,1.794 816.206,0 814,0 L 761.167,0 z "
         style="opacity:0.1"
         id="path5464" />
      <path
         d="M 761.167,1 C 760.178,1 759.254,1.487 758.694,2.302 C 758.693,2.303 731.237,42.3 731.237,42.3 C 730.539,43.315 730.538,44.68 731.237,45.697 L 758.694,85.698 C 759.252,86.513 760.176,87.001 761.167,87.001 L 814,87.001 C 815.654,87.001 817,85.655 817,84.001 L 817,4 C 817,2.346 815.654,1 814,1 L 761.167,1 z "
         style="opacity:0.15"
         id="path5466" />
      <path
         d="M 761.167,2 C 760.508,2 759.892,2.324 759.519,2.868 L 732.062,42.866 C 731.596,43.543 731.596,44.453 732.062,45.131 L 759.519,85.132 C 759.891,85.676 760.507,86.001 761.167,86.001 L 814,86.001 C 815.103,86.001 816,85.104 816,84.001 L 816,4 C 816,2.897 815.103,2 814,2 L 761.167,2 z "
         style="opacity:0.2"
         id="path5468" />
      <path
         d="M 761.167,3 C 760.838,3 760.529,3.163 760.343,3.434 L 732.886,43.431 C 732.652,43.772 732.652,44.222 732.886,44.563 L 760.343,84.565 C 760.53,84.837 760.838,85 761.167,85 L 814,85 C 814.553,85 815,84.553 815,84 L 815,4 C 815,3.448 814.553,3 814,3 L 761.167,3 z "
         style="opacity:0.25"
         id="path5470" />
      <polygon
         points="761.167,4 733.71,43.997 761.167,84 814,84 814,4 761.167,4 "
         style="fill:url(#XMLID_1_)"
         id="polygon5477" />
      <g
         id="g6446">
	
		<linearGradient
   x1="602"
   y1="181"
   x2="606"
   y2="181"
   id="linearGradient8430"
   gradientUnits="userSpaceOnUse"
   gradientTransform="matrix(0,-1,1,0,600,686)">
		<stop
   style="stop-color:#0057ae;stop-opacity:1"
   offset="0"
   id="stop8432" />

		<stop
   style="stop-color:#06f;stop-opacity:1"
   offset="1"
   id="stop8434" />

	</linearGradient>

	<polygon
   points="781,80 775,80 781,84 787,84 781,80 "
   style="fill:url(#polygon3301_59_)"
   id="polygon3301_32_" />

	
		<linearGradient
   x1="602"
   y1="197"
   x2="606"
   y2="197"
   id="linearGradient8437"
   gradientUnits="userSpaceOnUse"
   gradientTransform="matrix(0,-1,1,0,600,686)">
		<stop
   style="stop-color:#bf0000;stop-opacity:1"
   offset="0"
   id="stop8439" />

		<stop
   style="stop-color:red;stop-opacity:1"
   offset="1"
   id="stop8441" />

	</linearGradient>

	<polygon
   points="797,80 791,80 797,84 803,84 797,80 "
   style="fill:url(#polygon3301_60_)"
   id="polygon3301_31_" />

</g>
      <g
         id="g6460">
	
		<linearGradient
   x1="682.00098"
   y1="180.99899"
   x2="678.00098"
   y2="180.99899"
   id="linearGradient8445"
   gradientUnits="userSpaceOnUse"
   gradientTransform="matrix(0,-1,1,0,600,686)">
		<stop
   style="stop-color:#bf0000;stop-opacity:1"
   offset="0"
   id="stop8447" />

		<stop
   style="stop-color:red;stop-opacity:1"
   offset="1"
   id="stop8449" />

	</linearGradient>

	<polygon
   points="781,4 775,4 781,8 787,8 781,4 "
   style="fill:url(#polygon3301_61_)"
   id="polygon3301_30_" />

	
		<linearGradient
   x1="682.00098"
   y1="196.99899"
   x2="678.00098"
   y2="196.99899"
   id="linearGradient8452"
   gradientUnits="userSpaceOnUse"
   gradientTransform="matrix(0,-1,1,0,600,686)">
		<stop
   style="stop-color:#0057ae;stop-opacity:1"
   offset="0"
   id="stop8454" />

		<stop
   style="stop-color:#06f;stop-opacity:1"
   offset="1"
   id="stop8456" />

	</linearGradient>

	<polygon
   points="797,4 791,4 797,8 803,8 797,4 "
   style="fill:url(#polygon3301_62_)"
   id="polygon3301_22_" />

</g>
      <polygon
         points="811.666,4 808.834,4 779.709,44.002 808.834,84 811.666,84 782.543,44.002 811.666,4 "
         style="fill:url(#polygon3293_18_)"
         id="polygon3293_3_" />
      <polygon
         points="765.543,84 768.376,84 791.833,43.997 768.376,4 765.543,4 765.543,84 "
         style="fill:url(#polygon3295_12_)"
         id="polygon3295_10_" />
      <polygon
         points="768.376,4 789.833,43.997 768.376,84 791.833,43.997 768.376,4 "
         style="opacity:0.25;fill:#0057ae"
         id="polygon6498" />
      <polygon
         points="814,13.999 814,8 810,13.999 810,20 814,13.999 "
         style="fill:url(#polygon3297_28_)"
         id="polygon3297_8_" />
      <polygon
         points="814,34 814,28 810,34 810,40 814,34 "
         style="fill:url(#polygon3299_21_)"
         id="polygon3299_6_" />
      <polygon
         points="814,54 814,48 810,54 810,60 814,54 "
         style="fill:url(#polygon3301_63_)"
         id="polygon3301_18_" />
      <polygon
         points="814,74 814,68 810,74 810,80 814,74 "
         style="fill:url(#polygon3303_19_)"
         id="polygon3303_6_" />
      <path
         d="M 765.543,80 L 763.273,80 C 761.22,77.01 741.2,47.842 738.561,43.997 C 741.2,40.153 761.221,10.989 763.272,8 L 765.543,8 L 765.543,4 L 761.167,4 L 733.71,43.997 L 761.167,84 L 765.543,84 L 765.543,80 L 765.543,80 z "
         style="fill:url(#XMLID_9_)"
         id="path6529" />
      <path
         d="M 770.722,80 L 791.833,43.997 L 770.722,8 L 768.963,5 L 752,5 C 750.346,5 749,6.346 749,8 L 749,80 C 749,81.654 750.346,83 752,83 L 768.963,83 L 770.722,80 z "
         style="opacity:0.15"
         id="path6531" />
      <path
         d="M 770.722,80 L 791.833,43.997 L 770.722,8 L 769.549,6 L 752,6 C 750.897,6 750,6.897 750,8 L 750,80 C 750,81.103 750.897,82 752,82 L 769.549,82 L 770.722,80 z "
         style="opacity:0.2"
         id="path6533" />
      <path
         d="M 770.722,80 L 791.833,43.997 L 770.722,8 L 770.135,7 L 752,7 C 751.447,7 751,7.448 751,8 L 751,80 C 751,80.553 751.447,81 752,81 L 770.135,81 L 770.722,80 z "
         style="opacity:0.25"
         id="path6535" />
      <polygon
         points="752,80 770.722,80 791.833,43.997 770.722,8 752,8 752,80 "
         style="fill:url(#XMLID_10_)"
         id="polygon6542" />
      <path
         d="M 791.833,43.997 L 768.376,4 L 765.543,4 L 765.543,4.787 L 765.646,5.193 C 765.667,5.272 765.696,5.349 765.735,5.421 C 765.735,5.421 785.934,43.075 786.429,43.998 C 785.934,44.921 765.734,82.583 765.734,82.583 C 765.695,82.655 765.663,82.741 765.643,82.82 L 765.543,83.214 L 765.543,84 L 768.376,84 L 791.833,43.997 z "
         style="opacity:0.1;fill:#00224d"
         id="path6544" />
      <path
         d="M 791.833,43.997 L 768.376,4 L 766.376,4 C 766.376,4 766.376,4 766.376,4 L 766.615,4.947 C 766.615,4.947 785.179,39.554 787.563,43.997 C 787.068,44.92 766.614,83.055 766.614,83.055 C 766.614,83.057 766.376,83.999 766.376,83.999 L 766.376,84 L 768.376,84 L 791.833,43.997 z "
         style="opacity:0.15;fill:#00224d"
         id="path6546" />
      <path
         d="M 791.833,43.997 L 768.376,4 L 767.376,4 C 767.376,4 767.376,4 767.376,4 C 767.376,4.16 767.414,4.322 767.495,4.472 C 767.495,4.472 788.203,43.073 788.698,43.996 C 788.203,44.919 767.495,83.526 767.495,83.526 C 767.414,83.676 767.376,83.838 767.376,83.998 L 767.376,84 L 768.376,84 L 791.833,43.997 z "
         style="opacity:0.2;fill:#00224d"
         id="path6548" />
    </g>
  </g>
</svg>
