<?xml version="1.0" encoding="UTF-8" standalone="no"?>
<!-- Created with Inkscape (http://www.inkscape.org/) -->
<svg
   xmlns:dc="http://purl.org/dc/elements/1.1/"
   xmlns:cc="http://web.resource.org/cc/"
   xmlns:rdf="http://www.w3.org/1999/02/22-rdf-syntax-ns#"
   xmlns:svg="http://www.w3.org/2000/svg"
   xmlns="http://www.w3.org/2000/svg"
   xmlns:xlink="http://www.w3.org/1999/xlink"
   xmlns:sodipodi="http://sodipodi.sourceforge.net/DTD/sodipodi-0.dtd"
   xmlns:inkscape="http://www.inkscape.org/namespaces/inkscape"
   width="88"
   height="88"
   id="svg1912"
   sodipodi:version="0.32"
   inkscape:version="0.44.1"
   version="1.0"
   sodipodi:docbase="/Users/david/Progetti/oxygen-svn/davigno"
   sodipodi:docname="mail_previous.svg">
  <defs
     id="defs1914">
    <linearGradient
       id="linearGradient3291"
       inkscape:collect="always">
      <stop
         id="stop3293"
         offset="0"
         style="stop-color:#000000;stop-opacity:1;" />
      <stop
         id="stop3295"
         offset="1"
         style="stop-color:#000000;stop-opacity:0;" />
    </linearGradient>
    <radialGradient
       inkscape:collect="always"
       xlink:href="#linearGradient3291"
       id="radialGradient4418"
       gradientUnits="userSpaceOnUse"
       gradientTransform="matrix(1,0,0,0.197802,0,92.82166)"
       cx="63.912209"
       cy="115.70919"
       fx="63.912209"
       fy="115.7093"
       r="63.912209" />
    <linearGradient
       id="polygon3477_1_"
       gradientUnits="userSpaceOnUse"
       x1="-48"
       y1="44"
       x2="0"
       y2="44"
       gradientTransform="matrix(-1,0,0,1,32,0)">
		<stop
   offset="0"
   style="stop-color:#888888"
   id="stop40" />

		<stop
   offset="1"
   style="stop-color:#000000"
   id="stop42" />

	</linearGradient>
    <linearGradient
       id="XMLID_2_"
       gradientUnits="userSpaceOnUse"
       x1="-40.8159"
       y1="80.6201"
       x2="-14.6918"
       y2="40.5223"
       gradientTransform="matrix(-1,0,0,1,32,0)">
		<stop
   offset="0"
   style="stop-color:#FFFFFF"
   id="stop27" />

		<stop
   offset="0.5"
   style="stop-color:#BFD9FF"
   id="stop29" />

		<stop
   offset="0.6006"
   style="stop-color:#ACCAF5"
   id="stop31" />

		<stop
   offset="0.8665"
   style="stop-color:#7EA4DD"
   id="stop33" />

		<stop
   offset="1"
   style="stop-color:#6C96D4"
   id="stop35" />

	</linearGradient>
    <linearGradient
       id="XMLID_1_"
       gradientUnits="userSpaceOnUse"
       x1="67.001"
       y1="73.001"
       x2="5.0007"
       y2="11.0007">
		<stop
   offset="0"
   style="stop-color:#FFFFFF"
   id="stop16" />

		<stop
   offset="0.5"
   style="stop-color:#E0F0FF"
   id="stop18" />

		<stop
   offset="1"
   style="stop-color:#FFFFFF"
   id="stop20" />

	</linearGradient>
    <linearGradient
       inkscape:collect="always"
       xlink:href="#XMLID_1_"
       id="linearGradient1994"
       gradientUnits="userSpaceOnUse"
       x1="67.001"
       y1="73.001"
       x2="5.0007"
       y2="11.0007" />
    <linearGradient
       inkscape:collect="always"
       xlink:href="#XMLID_2_"
       id="linearGradient1996"
       gradientUnits="userSpaceOnUse"
       gradientTransform="matrix(-1,0,0,1,32,0)"
       x1="-40.8159"
       y1="80.6201"
       x2="-14.6918"
       y2="40.5223" />
    <linearGradient
       inkscape:collect="always"
       xlink:href="#polygon3477_1_"
       id="linearGradient1998"
       gradientUnits="userSpaceOnUse"
       gradientTransform="matrix(-1,0,0,1,32,0)"
       x1="-48"
       y1="44"
       x2="0"
       y2="44" />
  </defs>
  <sodipodi:namedview
     id="base"
     pagecolor="#ffffff"
     bordercolor="#666666"
     borderopacity="1.0"
     gridtolerance="10000"
     guidetolerance="10"
     objecttolerance="10"
     inkscape:pageopacity="0.0"
     inkscape:pageshadow="2"
     inkscape:zoom="4.2954545"
     inkscape:cx="44"
     inkscape:cy="44"
     inkscape:document-units="px"
     inkscape:current-layer="layer1"
     width="88px"
     height="88px"
     inkscape:showpageshadow="false"
     inkscape:window-width="823"
     inkscape:window-height="577"
     inkscape:window-x="788"
     inkscape:window-y="576" />
  <metadata
     id="metadata1917">
    <rdf:RDF>
      <cc:Work
         rdf:about="">
        <dc:format>image/svg+xml</dc:format>
        <dc:type
           rdf:resource="http://purl.org/dc/dcmitype/StillImage" />
      </cc:Work>
    </rdf:RDF>
  </metadata>
  <g
     inkscape:label="Layer 1"
     inkscape:groupmode="layer"
     id="layer1">
    <path
       sodipodi:type="arc"
       style="opacity:0.38139535;fill:url(#radialGradient4418);fill-opacity:1;fill-rule:nonzero;stroke:none;stroke-width:0;stroke-linecap:round;stroke-linejoin:round;stroke-miterlimit:4;stroke-dasharray:none;stroke-dashoffset:4;stroke-opacity:1"
       id="path4416"
       sodipodi:cx="63.912209"
       sodipodi:cy="115.70919"
       sodipodi:rx="63.912209"
       sodipodi:ry="12.641975"
       d="M 127.82442 115.70919 A 63.912209 12.641975 0 1 1  0,115.70919 A 63.912209 12.641975 0 1 1  127.82442 115.70919 z"
       transform="matrix(0.688444,0,0,0.286851,2.34921e-5,51.18234)" />
    <g
       id="g1969"
       transform="translate(-566.2857,222.5714)">
      <g
         transform="translate(574.2857,-222.5714)"
         id="g3">
	<path
   style="opacity:0.1"
   id="path5"
   d="M 4,0 C 1.794,0 0,1.794 0,4 L 0,80 C 0,82.206 1.794,84 4,84 L 68,84 C 70.206,84 72,82.206 72,80 L 72,4 C 72,1.794 70.206,0 68,0 L 4,0 z " />

	<path
   style="opacity:0.15"
   id="path7"
   d="M 4,1 C 2.346,1 1,2.346 1,4 L 1,80 C 1,81.654 2.346,83 4,83 L 68,83 C 69.654,83 71,81.654 71,80 L 71,4 C 71,2.346 69.654,1 68,1 L 4,1 z " />

	<path
   style="opacity:0.2"
   id="path9"
   d="M 4,2 C 2.897,2 2,2.897 2,4 L 2,80 C 2,81.103 2.897,82 4,82 L 68,82 C 69.103,82 70,81.103 70,80 L 70,4 C 70,2.897 69.103,2 68,2 L 4,2 z " />

	<path
   style="opacity:0.25"
   id="path11"
   d="M 4,3 C 3.448,3 3,3.448 3,4 L 3,80 C 3,80.553 3.448,81 4,81 L 68,81 C 68.553,81 69,80.553 69,80 L 69,4 C 69,3.448 68.553,3 68,3 L 4,3 z " />

	<rect
   style="fill:white"
   id="rect13"
   height="76"
   width="64"
   y="4"
   x="4" />

	<linearGradient
   y2="11.0007"
   x2="5.0007"
   y1="73.000999"
   x1="67.000999"
   gradientUnits="userSpaceOnUse"
   id="linearGradient1939">
		<stop
   id="stop1941"
   style="stop-color:#FFFFFF"
   offset="0" />

		<stop
   id="stop1943"
   style="stop-color:#E0F0FF"
   offset="0.5" />

		<stop
   id="stop1945"
   style="stop-color:#FFFFFF"
   offset="1" />

	</linearGradient>

	<path
   style="fill:url(#linearGradient1994)"
   id="path22"
   d="M 8,8 C 8,14.84 8,69.16 8,76 C 14.562,76 57.438,76 64,76 C 64,69.16 64,14.84 64,8 C 57.438,8 14.562,8 8,8 z " />

</g>
      <g
         transform="translate(574.2857,-222.5714)"
         id="g24">
	
		<linearGradient
   gradientTransform="matrix(-1,0,0,1,32,0)"
   y2="40.522301"
   x2="-14.6918"
   y1="80.620102"
   x1="-40.815899"
   gradientUnits="userSpaceOnUse"
   id="linearGradient1949">
		<stop
   id="stop1951"
   style="stop-color:#FFFFFF"
   offset="0" />

		<stop
   id="stop1953"
   style="stop-color:#BFD9FF"
   offset="0.5" />

		<stop
   id="stop1955"
   style="stop-color:#ACCAF5"
   offset="0.6006" />

		<stop
   id="stop1957"
   style="stop-color:#7EA4DD"
   offset="0.8665" />

		<stop
   id="stop1959"
   style="stop-color:#6C96D4"
   offset="1" />

	</linearGradient>

	<polygon
   style="fill:url(#linearGradient1996)"
   id="polygon37"
   points="43.429,42.286 68,47.199 68,58.801 52.429,51.429 60.461,66.13 56.814,68.407 32,44 43.429,42.286 " />

	
		<linearGradient
   gradientTransform="matrix(-1,0,0,1,32,0)"
   y2="44"
   x2="0"
   y1="44"
   x1="-48"
   gradientUnits="userSpaceOnUse"
   id="linearGradient1962">
		<stop
   id="stop1964"
   style="stop-color:#888888"
   offset="0" />

		<stop
   id="stop1966"
   style="stop-color:#000000"
   offset="1" />

	</linearGradient>

	<polygon
   style="fill:url(#linearGradient1998)"
   points="56,60.668 52,64 32,44 52,24 56,27.333 48,40 80,40 80,48 48,48 56,60.668 "
   id="polygon3477_4_" />

</g>
    </g>
  </g>
</svg>
