<?xml version="1.0" encoding="UTF-8" standalone="no"?>
<!-- Created with Inkscape (http://www.inkscape.org/) -->
<svg
   xmlns:svg="http://www.w3.org/2000/svg"
   xmlns="http://www.w3.org/2000/svg"
   xmlns:xlink="http://www.w3.org/1999/xlink"
   version="1.0"
   width="88"
   height="88"
   id="svg6804">
  <defs
     id="defs6806">
    <linearGradient
       x1="1163.3115"
       y1="-556.51068"
       x2="1172.2559"
       y2="-556.51068"
       id="polygon3477_12_"
       gradientUnits="userSpaceOnUse"
       gradientTransform="matrix(0,-3.9299,-3.9299,0,-1832.138,4648.502)">
			<stop
   style="stop-color:white;stop-opacity:1"
   offset="0"
   id="stop6007" />

			<stop
   style="stop-color:#fcfcfc;stop-opacity:1"
   offset="0.5413"
   id="stop6009" />

			<stop
   style="stop-color:#f4f4f4;stop-opacity:1"
   offset="0.8664"
   id="stop6011" />

			<stop
   style="stop-color:#eee;stop-opacity:1"
   offset="1"
   id="stop6013" />

		</linearGradient>
    <linearGradient
       x1="491.99899"
       y1="164.0029"
       x2="547.99847"
       y2="164.0029"
       id="circle3581_12_"
       gradientUnits="userSpaceOnUse"
       gradientTransform="matrix(0,1,-1,0,520.0029,-459.9985)">
			<stop
   style="stop-color:#2c72c7;stop-opacity:1"
   offset="0"
   id="stop6001" />

			<stop
   style="stop-color:#00438a;stop-opacity:1"
   offset="1"
   id="stop6003" />

		</linearGradient>
    <linearGradient
       x1="1163.3115"
       y1="-518.34229"
       x2="1172.2559"
       y2="-518.34229"
       id="polygon3477_10_"
       gradientUnits="userSpaceOnUse"
       gradientTransform="matrix(0,-3.9299,-3.9299,0,-1832.138,4648.502)">
		<stop
   style="stop-color:white;stop-opacity:1"
   offset="0"
   id="stop5717" />

		<stop
   style="stop-color:#fcfcfc;stop-opacity:1"
   offset="0.5413"
   id="stop5719" />

		<stop
   style="stop-color:#f4f4f4;stop-opacity:1"
   offset="0.8664"
   id="stop5721" />

		<stop
   style="stop-color:#eee;stop-opacity:1"
   offset="1"
   id="stop5723" />

	</linearGradient>
    <linearGradient
       x1="491.99899"
       y1="314.0029"
       x2="547.99847"
       y2="314.0029"
       id="circle3581_10_"
       gradientUnits="userSpaceOnUse"
       gradientTransform="matrix(0,1,-1,0,520.0029,-459.9985)">
		<stop
   style="stop-color:#008cff;stop-opacity:1"
   offset="0"
   id="stop5711" />

		<stop
   style="stop-color:#0063cc;stop-opacity:1"
   offset="1"
   id="stop5713" />

	</linearGradient>
    <linearGradient
       x1="150"
       y1="50"
       x2="154"
       y2="50"
       id="polygon3301_33_"
       gradientUnits="userSpaceOnUse">
		<stop
   style="stop-color:#bf0000;stop-opacity:1"
   offset="0"
   id="stop5602" />

		<stop
   style="stop-color:red;stop-opacity:1"
   offset="1"
   id="stop5604" />

	</linearGradient>
    <linearGradient
       x1="150"
       y1="34"
       x2="154"
       y2="34"
       id="polygon3301_20_"
       gradientUnits="userSpaceOnUse">
		<stop
   style="stop-color:#0057ae;stop-opacity:1"
   offset="0"
   id="stop5596" />

		<stop
   style="stop-color:#06f;stop-opacity:1"
   offset="1"
   id="stop5598" />

	</linearGradient>
    <linearGradient
       x1="230"
       y1="50"
       x2="226"
       y2="50"
       id="polygon3301_35_"
       gradientUnits="userSpaceOnUse">
		<stop
   style="stop-color:#0057ae;stop-opacity:1"
   offset="0"
   id="stop5616" />

		<stop
   style="stop-color:#06f;stop-opacity:1"
   offset="1"
   id="stop5618" />

	</linearGradient>
    <linearGradient
       x1="230"
       y1="34"
       x2="226"
       y2="34"
       id="polygon3301_34_"
       gradientUnits="userSpaceOnUse">
		<stop
   style="stop-color:#bf0000;stop-opacity:1"
   offset="0"
   id="stop5610" />

		<stop
   style="stop-color:red;stop-opacity:1"
   offset="1"
   id="stop5612" />

	</linearGradient>
    <linearGradient
       x1="230"
       y1="58.000999"
       x2="226"
       y2="58.000999"
       id="polygon3297_9_"
       gradientUnits="userSpaceOnUse">
	<stop
   style="stop-color:#0057ae;stop-opacity:1"
   offset="0"
   id="stop5622" />

	<stop
   style="stop-color:#06f;stop-opacity:1"
   offset="1"
   id="stop5624" />

</linearGradient>
    <linearGradient
       x1="1083"
       y1="-585.51813"
       x2="1083"
       y2="-578.94531"
       id="polygon3286_10_"
       gradientUnits="userSpaceOnUse"
       gradientTransform="matrix(4,0,0,-4,-4142,-2294.406)">
	<stop
   style="stop-color:#888a85;stop-opacity:1"
   offset="0"
   id="stop5628" />

	<stop
   style="stop-color:#8b8d88;stop-opacity:1"
   offset="0.23459999"
   id="stop5630" />

	<stop
   style="stop-color:#959792;stop-opacity:1"
   offset="0.42300001"
   id="stop5632" />

	<stop
   style="stop-color:#a5a7a3;stop-opacity:1"
   offset="0.59539998"
   id="stop5634" />

	<stop
   style="stop-color:#bcbdbb;stop-opacity:1"
   offset="0.75819999"
   id="stop5636" />

	<stop
   style="stop-color:#dadad9;stop-opacity:1"
   offset="0.91289997"
   id="stop5638" />

	<stop
   style="stop-color:#eee;stop-opacity:1"
   offset="1"
   id="stop5640" />

</linearGradient>
    <linearGradient
       x1="1083"
       y1="-581.7793"
       x2="1083"
       y2="-589.76862"
       id="polygon3293_10_"
       gradientUnits="userSpaceOnUse"
       gradientTransform="matrix(4,0,0,-4,-4142,-2294.406)">
	<stop
   style="stop-color:#888;stop-opacity:1"
   offset="0"
   id="stop5644" />

	<stop
   style="stop-color:#8b8b8b;stop-opacity:1"
   offset="0.2375"
   id="stop5646" />

	<stop
   style="stop-color:#959595;stop-opacity:1"
   offset="0.42809999"
   id="stop5648" />

	<stop
   style="stop-color:#a6a6a6;stop-opacity:1"
   offset="0.60259998"
   id="stop5650" />

	<stop
   style="stop-color:#bebebe;stop-opacity:1"
   offset="0.76740003"
   id="stop5652" />

	<stop
   style="stop-color:#dcdcdc;stop-opacity:1"
   offset="0.92390001"
   id="stop5654" />

	<stop
   style="stop-color:#eee;stop-opacity:1"
   offset="1"
   id="stop5656" />

</linearGradient>
    <linearGradient
       x1="220"
       y1="17"
       x2="220"
       y2="21"
       id="polygon3297_11_"
       gradientUnits="userSpaceOnUse">
	<stop
   style="stop-color:#0057ae;stop-opacity:1"
   offset="0"
   id="stop5661" />

	<stop
   style="stop-color:#06f;stop-opacity:1"
   offset="1"
   id="stop5663" />

</linearGradient>
    <linearGradient
       x1="200"
       y1="17"
       x2="200"
       y2="21"
       id="polygon3299_10_"
       gradientUnits="userSpaceOnUse">
	<stop
   style="stop-color:#bf0000;stop-opacity:1"
   offset="0"
   id="stop5667" />

	<stop
   style="stop-color:red;stop-opacity:1"
   offset="1"
   id="stop5669" />

</linearGradient>
    <linearGradient
       x1="174"
       y1="19"
       x2="186"
       y2="19"
       id="polygon3301_36_"
       gradientUnits="userSpaceOnUse">
	<stop
   style="stop-color:#0057ae;stop-opacity:1"
   offset="0"
   id="stop5673" />

	<stop
   style="stop-color:#06f;stop-opacity:1"
   offset="1"
   id="stop5675" />

</linearGradient>
    <linearGradient
       x1="160"
       y1="17"
       x2="160"
       y2="21"
       id="polygon3303_10_"
       gradientUnits="userSpaceOnUse">
	<stop
   style="stop-color:#bf0000;stop-opacity:1"
   offset="0"
   id="stop5679" />

	<stop
   style="stop-color:red;stop-opacity:1"
   offset="1"
   id="stop5681" />

</linearGradient>
    <linearGradient
       x1="214"
       y1="65"
       x2="226"
       y2="65"
       id="polygon3297_15_"
       gradientUnits="userSpaceOnUse">
	<stop
   style="stop-color:#bf0000;stop-opacity:1"
   offset="0"
   id="stop5685" />

	<stop
   style="stop-color:red;stop-opacity:1"
   offset="1"
   id="stop5687" />

</linearGradient>
    <linearGradient
       x1="200"
       y1="67"
       x2="200"
       y2="63"
       id="polygon3299_11_"
       gradientUnits="userSpaceOnUse">
	<stop
   style="stop-color:#0057ae;stop-opacity:1"
   offset="0"
   id="stop5691" />

	<stop
   style="stop-color:#06f;stop-opacity:1"
   offset="1"
   id="stop5693" />

</linearGradient>
    <linearGradient
       x1="174"
       y1="65"
       x2="186"
       y2="65"
       id="polygon3301_37_"
       gradientUnits="userSpaceOnUse">
	<stop
   style="stop-color:#bf0000;stop-opacity:1"
   offset="0"
   id="stop5697" />

	<stop
   style="stop-color:red;stop-opacity:1"
   offset="1"
   id="stop5699" />

</linearGradient>
    <linearGradient
       x1="160"
       y1="67"
       x2="160"
       y2="63"
       id="polygon3303_11_"
       gradientUnits="userSpaceOnUse">
	<stop
   style="stop-color:#0057ae;stop-opacity:1"
   offset="0"
   id="stop5703" />

	<stop
   style="stop-color:#06f;stop-opacity:1"
   offset="1"
   id="stop5705" />

</linearGradient>
    <linearGradient
       id="linearGradient3291">
      <stop
         style="stop-color:black;stop-opacity:1"
         offset="0"
         id="stop3293" />
      <stop
         style="stop-color:black;stop-opacity:0"
         offset="1"
         id="stop3295" />
    </linearGradient>
    <radialGradient
       cx="63.912209"
       cy="115.70919"
       r="63.912209"
       fx="63.912209"
       fy="115.7093"
       id="radialGradient4418"
       xlink:href="#linearGradient3291"
       gradientUnits="userSpaceOnUse"
       gradientTransform="matrix(1,0,0,0.197802,0,92.82166)" />
    <linearGradient
       x1="150"
       y1="34"
       x2="154"
       y2="34"
       id="linearGradient6958"
       xlink:href="#polygon3301_20_"
       gradientUnits="userSpaceOnUse" />
    <linearGradient
       x1="150"
       y1="50"
       x2="154"
       y2="50"
       id="linearGradient6960"
       xlink:href="#polygon3301_33_"
       gradientUnits="userSpaceOnUse" />
    <linearGradient
       x1="230"
       y1="34"
       x2="226"
       y2="34"
       id="linearGradient6962"
       xlink:href="#polygon3301_34_"
       gradientUnits="userSpaceOnUse" />
    <linearGradient
       x1="230"
       y1="50"
       x2="226"
       y2="50"
       id="linearGradient6964"
       xlink:href="#polygon3301_35_"
       gradientUnits="userSpaceOnUse" />
    <linearGradient
       x1="230"
       y1="58.000999"
       x2="226"
       y2="58.000999"
       id="linearGradient6966"
       xlink:href="#polygon3297_9_"
       gradientUnits="userSpaceOnUse" />
    <linearGradient
       x1="1083"
       y1="-585.51813"
       x2="1083"
       y2="-578.94531"
       id="linearGradient6968"
       xlink:href="#polygon3286_10_"
       gradientUnits="userSpaceOnUse"
       gradientTransform="matrix(4,0,0,-4,-4142,-2294.406)" />
    <linearGradient
       x1="1083"
       y1="-581.7793"
       x2="1083"
       y2="-589.76862"
       id="linearGradient6970"
       xlink:href="#polygon3293_10_"
       gradientUnits="userSpaceOnUse"
       gradientTransform="matrix(4,0,0,-4,-4142,-2294.406)" />
    <linearGradient
       x1="220"
       y1="17"
       x2="220"
       y2="21"
       id="linearGradient6972"
       xlink:href="#polygon3297_11_"
       gradientUnits="userSpaceOnUse" />
    <linearGradient
       x1="200"
       y1="17"
       x2="200"
       y2="21"
       id="linearGradient6974"
       xlink:href="#polygon3299_10_"
       gradientUnits="userSpaceOnUse" />
    <linearGradient
       x1="174"
       y1="19"
       x2="186"
       y2="19"
       id="linearGradient6976"
       xlink:href="#polygon3301_36_"
       gradientUnits="userSpaceOnUse" />
    <linearGradient
       x1="160"
       y1="17"
       x2="160"
       y2="21"
       id="linearGradient6978"
       xlink:href="#polygon3303_10_"
       gradientUnits="userSpaceOnUse" />
    <linearGradient
       x1="214"
       y1="65"
       x2="226"
       y2="65"
       id="linearGradient6980"
       xlink:href="#polygon3297_15_"
       gradientUnits="userSpaceOnUse" />
    <linearGradient
       x1="200"
       y1="67"
       x2="200"
       y2="63"
       id="linearGradient6982"
       xlink:href="#polygon3299_11_"
       gradientUnits="userSpaceOnUse" />
    <linearGradient
       x1="174"
       y1="65"
       x2="186"
       y2="65"
       id="linearGradient6984"
       xlink:href="#polygon3301_37_"
       gradientUnits="userSpaceOnUse" />
    <linearGradient
       x1="160"
       y1="67"
       x2="160"
       y2="63"
       id="linearGradient6986"
       xlink:href="#polygon3303_11_"
       gradientUnits="userSpaceOnUse" />
  </defs>
  <g
     id="layer1">
    <path
       d="M 127.82442 115.70919 A 63.912209 12.641975 0 1 1  0,115.70919 A 63.912209 12.641975 0 1 1  127.82442 115.70919 z"
       transform="matrix(0.688444,0,0,0.286851,2.34921e-5,51.18234)"
       style="opacity:0.38139535;fill:url(#radialGradient4418);fill-opacity:1;fill-rule:nonzero;stroke:none;stroke-width:0;stroke-linecap:round;stroke-linejoin:round;stroke-miterlimit:4;stroke-dasharray:none;stroke-dashoffset:4;stroke-opacity:1"
       id="path4416" />
    <g
       transform="translate(-581.7143,392.8571)"
       id="g6920">
      <g
         transform="translate(435.7143,-396.8571)"
         id="g5582">
	<path
   d="M 150,13 C 147.794,13 146,14.794 146,17 L 146,67 C 146,69.206 147.794,71 150,71 L 230,71 C 232.206,71 234,69.206 234,67 L 234,17 C 234,14.794 232.206,13 230,13 L 150,13 z "
   style="opacity:0.1"
   id="path5584" />

	<path
   d="M 150,14 C 148.346,14 147,15.346 147,17 L 147,67 C 147,68.654 148.346,70 150,70 L 230,70 C 231.654,70 233,68.654 233,67 L 233,17 C 233,15.346 231.654,14 230,14 L 150,14 z "
   style="opacity:0.15"
   id="path5586" />

	<path
   d="M 150,15 C 148.897,15 148,15.897 148,17 L 148,67 C 148,68.103 148.897,69 150,69 L 230,69 C 231.103,69 232,68.103 232,67 L 232,17 C 232,15.897 231.103,15 230,15 L 150,15 z "
   style="opacity:0.2"
   id="path5588" />

	<path
   d="M 150,16 C 149.448,16 149,16.448 149,17 L 149,67 C 149,67.553 149.448,68 150,68 L 230,68 C 230.553,68 231,67.553 231,67 L 231,17 C 231,16.448 230.553,16 230,16 L 150,16 z "
   style="opacity:0.25"
   id="path5590" />

</g>
      <rect
         width="80"
         height="50"
         x="585.71429"
         y="-379.85715"
         style="fill:white"
         id="rect3244" />
      <g
         transform="translate(435.7143,-396.8571)"
         id="g5593">
	<linearGradient
   x1="150"
   y1="34"
   x2="154"
   y2="34"
   id="linearGradient6879"
   gradientUnits="userSpaceOnUse">
		<stop
   style="stop-color:#0057ae;stop-opacity:1"
   offset="0"
   id="stop6881" />

		<stop
   style="stop-color:#06f;stop-opacity:1"
   offset="1"
   id="stop6883" />

	</linearGradient>

	<polygon
   points="154,34 154,28 150,34 150,40 154,34 "
   style="fill:url(#linearGradient6958)"
   id="polygon3301_2_" />

	<linearGradient
   x1="150"
   y1="50"
   x2="154"
   y2="50"
   id="linearGradient6886"
   gradientUnits="userSpaceOnUse">
		<stop
   style="stop-color:#bf0000;stop-opacity:1"
   offset="0"
   id="stop6888" />

		<stop
   style="stop-color:red;stop-opacity:1"
   offset="1"
   id="stop6890" />

	</linearGradient>

	<polygon
   points="154,50 154,44 150,50 150,56 154,50 "
   style="fill:url(#linearGradient6960)"
   id="polygon3301_3_" />

</g>
      <g
         transform="translate(435.7143,-396.8571)"
         id="g5607">
	<linearGradient
   x1="230"
   y1="34"
   x2="226"
   y2="34"
   id="linearGradient6894"
   gradientUnits="userSpaceOnUse">
		<stop
   style="stop-color:#bf0000;stop-opacity:1"
   offset="0"
   id="stop6896" />

		<stop
   style="stop-color:red;stop-opacity:1"
   offset="1"
   id="stop6898" />

	</linearGradient>

	<polygon
   points="230,34 230,28 226,34 226,40 230,34 "
   style="fill:url(#linearGradient6962)"
   id="polygon3301_6_" />

	<linearGradient
   x1="230"
   y1="50"
   x2="226"
   y2="50"
   id="linearGradient6901"
   gradientUnits="userSpaceOnUse">
		<stop
   style="stop-color:#0057ae;stop-opacity:1"
   offset="0"
   id="stop6903" />

		<stop
   style="stop-color:#06f;stop-opacity:1"
   offset="1"
   id="stop6905" />

	</linearGradient>

	<polygon
   points="230,50 230,44 226,50 226,56 230,50 "
   style="fill:url(#linearGradient6964)"
   id="polygon3301_5_" />

</g>
      <polygon
         points="150,21.376 150,24.209 190.003,47.667 230,24.209 230,21.376 190.003,44.833 150,21.376 "
         transform="translate(435.7143,-396.8571)"
         style="fill:url(#linearGradient6968)"
         id="polygon3286" />
      <polygon
         points="230,64.666 230,61.834 189.998,32.709 150,61.834 150,64.666 189.998,35.542 230,64.666 "
         transform="translate(435.7143,-396.8571)"
         style="fill:url(#linearGradient6970)"
         id="polygon3293" />
      <polygon
         points="150,18.542 150,21.376 190.003,44.833 230,21.376 230,18.542 150,18.542 "
         transform="translate(435.7143,-396.8571)"
         style="fill:white"
         id="polygon3295" />
      <polygon
         points="220.001,21 226,21 220.001,17 214,17 220.001,21 "
         transform="translate(435.7143,-396.8571)"
         style="fill:url(#linearGradient6972)"
         id="polygon3297" />
      <polygon
         points="200,21 206,21 200,17 194,17 200,21 "
         transform="translate(435.7143,-396.8571)"
         style="fill:url(#linearGradient6974)"
         id="polygon3299" />
      <polygon
         points="180,21 186,21 180,17 174,17 180,21 "
         transform="translate(435.7143,-396.8571)"
         style="fill:url(#linearGradient6976)"
         id="polygon3301" />
      <polygon
         points="160,21 166,21 160,17 154,17 160,21 "
         transform="translate(435.7143,-396.8571)"
         style="fill:url(#linearGradient6978)"
         id="polygon3303" />
      <polygon
         points="220.001,67 226,67 220.001,63 214,63 220.001,67 "
         transform="translate(435.7143,-396.8571)"
         style="fill:url(#linearGradient6980)"
         id="polygon3297_1_" />
      <polygon
         points="200,67 206,67 200,63 194,63 200,67 "
         transform="translate(435.7143,-396.8571)"
         style="fill:url(#linearGradient6982)"
         id="polygon3299_1_" />
      <polygon
         points="180,67 186,67 180,63 174,63 180,67 "
         transform="translate(435.7143,-396.8571)"
         style="fill:url(#linearGradient6984)"
         id="polygon3301_1_" />
      <polygon
         points="160,67 166,67 160,63 154,63 160,67 "
         transform="translate(435.7143,-396.8571)"
         style="fill:url(#linearGradient6986)"
         id="polygon3303_1_" />
    </g>
    <g
       transform="translate(-296,0)"
       id="g5998">
		
			<linearGradient
   x1="491.99899"
   y1="164.0029"
   x2="547.99847"
   y2="164.0029"
   id="linearGradient7453"
   gradientUnits="userSpaceOnUse"
   gradientTransform="matrix(0,1,-1,0,520.0029,-459.9985)">
			<stop
   style="stop-color:#2c72c7;stop-opacity:1"
   offset="0"
   id="stop7455" />

			<stop
   style="stop-color:#00438a;stop-opacity:1"
   offset="1"
   id="stop7457" />

		</linearGradient>

		
			<circle
   cx="356"
   cy="60"
   r="28"
   style="fill:url(#circle3581_12_)"
   id="circle3581_2_" />

		
			<linearGradient
   x1="1163.3115"
   y1="-556.51068"
   x2="1172.2559"
   y2="-556.51068"
   id="linearGradient7460"
   gradientUnits="userSpaceOnUse"
   gradientTransform="matrix(0,-3.9299,-3.9299,0,-1832.138,4648.502)">
			<stop
   style="stop-color:white;stop-opacity:1"
   offset="0"
   id="stop7462" />

			<stop
   style="stop-color:#fcfcfc;stop-opacity:1"
   offset="0.5413"
   id="stop7464" />

			<stop
   style="stop-color:#f4f4f4;stop-opacity:1"
   offset="0.8664"
   id="stop7466" />

			<stop
   style="stop-color:#eee;stop-opacity:1"
   offset="1"
   id="stop7468" />

		</linearGradient>

		<polygon
   points="360.757,45.474 357.826,42.546 337.321,60.122 357.826,77.698 360.757,74.77 350.612,63.05 372.474,63.05 372.474,57.193 350.369,57.193 360.757,45.474 "
   style="fill:url(#polygon3477_12_)"
   id="polygon3477_2_" />

	</g>
  </g>
</svg>
