<?xml version="1.0" encoding="UTF-8" standalone="no"?>
<!-- Created with Inkscape (http://www.inkscape.org/) -->
<svg
   xmlns:dc="http://purl.org/dc/elements/1.1/"
   xmlns:cc="http://web.resource.org/cc/"
   xmlns:rdf="http://www.w3.org/1999/02/22-rdf-syntax-ns#"
   xmlns:svg="http://www.w3.org/2000/svg"
   xmlns="http://www.w3.org/2000/svg"
   xmlns:xlink="http://www.w3.org/1999/xlink"
   xmlns:sodipodi="http://sodipodi.sourceforge.net/DTD/sodipodi-0.dtd"
   xmlns:inkscape="http://www.inkscape.org/namespaces/inkscape"
   width="88"
   height="88"
   id="svg4873"
   sodipodi:version="0.32"
   inkscape:version="0.44.1"
   version="1.0"
   sodipodi:docbase="/Users/david/Progetti/oxygen-svn/davigno"
   sodipodi:docname="mail_new.svg">
  <defs
     id="defs4875">
    <radialGradient
       inkscape:collect="always"
       xlink:href="#linearGradient3291"
       id="radialGradient4418"
       gradientUnits="userSpaceOnUse"
       gradientTransform="matrix(1,0,0,0.197802,0,92.82166)"
       cx="63.912209"
       cy="115.70919"
       fx="63.912209"
       fy="115.7093"
       r="63.912209" />
    <linearGradient
       inkscape:collect="always"
       id="linearGradient3291">
      <stop
         style="stop-color:#000000;stop-opacity:1;"
         offset="0"
         id="stop3293" />
      <stop
         style="stop-color:#000000;stop-opacity:0;"
         offset="1"
         id="stop3295" />
    </linearGradient>
    <linearGradient
       id="XMLID_13_"
       gradientUnits="userSpaceOnUse"
       x1="924.417"
       y1="-314.7354"
       x2="918.1201"
       y2="-314.7354"
       gradientTransform="matrix(0.7071,0.7071,-0.7071,0.7071,156.5728,-356.0948)">
			<stop
   offset="0.2663"
   style="stop-color:#2E3436"
   id="stop4743" />

			<stop
   offset="0.347"
   style="stop-color:#373C3D"
   id="stop4745" />

			<stop
   offset="0.481"
   style="stop-color:#515350"
   id="stop4747" />

			<stop
   offset="0.5"
   style="stop-color:#555753"
   id="stop4749" />

			<stop
   offset="0.6041"
   style="stop-color:#50534F"
   id="stop4751" />

			<stop
   offset="0.7279"
   style="stop-color:#424645"
   id="stop4753" />

			<stop
   offset="0.8402"
   style="stop-color:#2E3436"
   id="stop4755" />

		</linearGradient>
    <linearGradient
       id="XMLID_12_"
       gradientUnits="userSpaceOnUse"
       x1="973.9199"
       y1="-319.3267"
       x2="958.1816"
       y2="-319.3267"
       gradientTransform="matrix(0.6118,0.6118,-0.7071,0.7071,217.0207,-295.6461)">
			<stop
   offset="0"
   style="stop-color:#B39C78"
   id="stop4718" />

			<stop
   offset="0.1387"
   style="stop-color:#BCA37B"
   id="stop4720" />

			<stop
   offset="0.3688"
   style="stop-color:#D6B683"
   id="stop4722" />

			<stop
   offset="0.432"
   style="stop-color:#DEBC85"
   id="stop4724" />

			<stop
   offset="0.5"
   style="stop-color:#DEBC85"
   id="stop4726" />

			<stop
   offset="0.5416"
   style="stop-color:#E3C088"
   id="stop4728" />

			<stop
   offset="0.5621"
   style="stop-color:#E8C58B"
   id="stop4730" />

			<stop
   offset="0.6744"
   style="stop-color:#E3C087"
   id="stop4732" />

			<stop
   offset="0.8081"
   style="stop-color:#D5B27A"
   id="stop4734" />

			<stop
   offset="0.9522"
   style="stop-color:#BD9B65"
   id="stop4736" />

			<stop
   offset="1"
   style="stop-color:#B3925D"
   id="stop4738" />

		</linearGradient>
    <linearGradient
       id="XMLID_11_"
       gradientUnits="userSpaceOnUse"
       x1="929.1553"
       y1="-319.3374"
       x2="913.4189"
       y2="-319.3374"
       gradientTransform="matrix(0.7071,0.7071,-0.7071,0.7071,156.5728,-356.0948)">
			<stop
   offset="0"
   style="stop-color:#A18353"
   id="stop4709" />

			<stop
   offset="0.6154"
   style="stop-color:#AA8B58"
   id="stop4711" />

			<stop
   offset="1"
   style="stop-color:#B3925D"
   id="stop4713" />

		</linearGradient>
    <linearGradient
       id="XMLID_10_"
       gradientUnits="userSpaceOnUse"
       x1="918.6484"
       y1="-357.3716"
       x2="923.8945"
       y2="-357.3716"
       gradientTransform="matrix(0.7071,0.7071,-0.7071,0.7071,156.5728,-356.0948)">
			<stop
   offset="0"
   style="stop-color:#FFFFFF"
   id="stop4682" />

			<stop
   offset="0.0217"
   style="stop-color:#FFFEFA"
   id="stop4684" />

			<stop
   offset="0.0476"
   style="stop-color:#FFFDEB"
   id="stop4686" />

			<stop
   offset="0.0756"
   style="stop-color:#FFFAD3"
   id="stop4688" />

			<stop
   offset="0.105"
   style="stop-color:#FFF6B2"
   id="stop4690" />

			<stop
   offset="0.1354"
   style="stop-color:#FFF187"
   id="stop4692" />

			<stop
   offset="0.1657"
   style="stop-color:#FFEB55"
   id="stop4694" />

			<stop
   offset="0.3286"
   style="stop-color:#FFEA50"
   id="stop4696" />

			<stop
   offset="0.5227"
   style="stop-color:#FFE841"
   id="stop4698" />

			<stop
   offset="0.7327"
   style="stop-color:#FFE42A"
   id="stop4700" />

			<stop
   offset="0.9525"
   style="stop-color:#FFDE08"
   id="stop4702" />

			<stop
   offset="1"
   style="stop-color:#FFDD00"
   id="stop4704" />

		</linearGradient>
    <linearGradient
       id="XMLID_9_"
       gradientUnits="userSpaceOnUse"
       x1="912.8467"
       y1="-357.2373"
       x2="929.723"
       y2="-357.5319"
       gradientTransform="matrix(0.7071,0.7071,-0.7071,0.7071,156.5728,-356.0948)">
			<stop
   offset="0"
   style="stop-color:#E3AD00"
   id="stop4665" />

			<stop
   offset="0.5"
   style="stop-color:#FFDD00"
   id="stop4667" />

			<stop
   offset="0.858"
   style="stop-color:#E39700"
   id="stop4669" />

			<stop
   offset="0.8683"
   style="stop-color:#DD9300"
   id="stop4671" />

			<stop
   offset="0.9063"
   style="stop-color:#CC8800"
   id="stop4673" />

			<stop
   offset="0.9481"
   style="stop-color:#C28200"
   id="stop4675" />

			<stop
   offset="1"
   style="stop-color:#BF8000"
   id="stop4677" />

		</linearGradient>
    <linearGradient
       id="XMLID_8_"
       gradientUnits="userSpaceOnUse"
       x1="1075.2441"
       y1="62.4395"
       x2="1048.502"
       y2="55.2739">
			<stop
   offset="0"
   style="stop-color:#FFFFFF"
   id="stop4644" />

			<stop
   offset="0.0311"
   style="stop-color:#F5F9FF"
   id="stop4646" />

			<stop
   offset="0.1193"
   style="stop-color:#DDEBFF"
   id="stop4648" />

			<stop
   offset="0.2133"
   style="stop-color:#CCE1FF"
   id="stop4650" />

			<stop
   offset="0.3159"
   style="stop-color:#C2DBFF"
   id="stop4652" />

			<stop
   offset="0.4438"
   style="stop-color:#BFD9FF"
   id="stop4654" />

			<stop
   offset="0.5557"
   style="stop-color:#ACCAF5"
   id="stop4656" />

			<stop
   offset="0.8515"
   style="stop-color:#7EA4DD"
   id="stop4658" />

			<stop
   offset="1"
   style="stop-color:#6C96D4"
   id="stop4660" />

		</linearGradient>
    <linearGradient
       id="XMLID_7_"
       gradientUnits="userSpaceOnUse"
       x1="1074.001"
       y1="76"
       x2="1010.0009"
       y2="11.9999">
			<stop
   offset="0"
   style="stop-color:#FFFFFF"
   id="stop4631" />

			<stop
   offset="0.5"
   style="stop-color:#E0F0FF"
   id="stop4633" />

			<stop
   offset="1"
   style="stop-color:#FFFFFF"
   id="stop4635" />

		</linearGradient>
  </defs>
  <sodipodi:namedview
     id="base"
     pagecolor="#ffffff"
     bordercolor="#666666"
     borderopacity="1.0"
     gridtolerance="10000"
     guidetolerance="10"
     objecttolerance="10"
     inkscape:pageopacity="0.0"
     inkscape:pageshadow="2"
     inkscape:zoom="1"
     inkscape:cx="44"
     inkscape:cy="44"
     inkscape:document-units="px"
     inkscape:current-layer="layer1"
     height="88px"
     width="88px"
     inkscape:showpageshadow="false"
     inkscape:window-width="823"
     inkscape:window-height="577"
     inkscape:window-x="555"
     inkscape:window-y="209" />
  <metadata
     id="metadata4878">
    <rdf:RDF>
      <cc:Work
         rdf:about="">
        <dc:format>image/svg+xml</dc:format>
        <dc:type
           rdf:resource="http://purl.org/dc/dcmitype/StillImage" />
      </cc:Work>
    </rdf:RDF>
  </metadata>
  <g
     inkscape:label="Layer 1"
     inkscape:groupmode="layer"
     id="layer1">
    <path
       sodipodi:type="arc"
       style="opacity:0.38139535;fill:url(#radialGradient4418);fill-opacity:1;fill-rule:nonzero;stroke:none;stroke-width:0;stroke-linecap:round;stroke-linejoin:round;stroke-miterlimit:4;stroke-dasharray:none;stroke-dashoffset:4;stroke-opacity:1"
       id="path4416"
       sodipodi:cx="63.912209"
       sodipodi:cy="115.70919"
       sodipodi:rx="63.912209"
       sodipodi:ry="12.641975"
       d="M 127.82442 115.70919 A 63.912209 12.641975 0 1 1  0,115.70919 A 63.912209 12.641975 0 1 1  127.82442 115.70919 z"
       transform="matrix(0.688444,0,0,0.286851,2.34921e-5,51.18234)" />
    <g
       id="g4616"
       transform="translate(-1002,0)">
	<g
   id="g4618">
		<path
   d="M 1010,0 C 1007.795,0 1006,1.795 1006,4 L 1006,84 C 1006,86.206 1007.795,88 1010,88 L 1074,88 C 1076.206,88 1078,86.206 1078,84 L 1078,4 C 1078,1.795 1076.206,0 1074,0 L 1010,0 z "
   id="path4620"
   style="opacity:0.1" />

		<path
   d="M 1010,1 C 1008.346,1 1007,2.346 1007,4 L 1007,84 C 1007,85.654 1008.346,87 1010,87 L 1074,87 C 1075.654,87 1077,85.654 1077,84 L 1077,4 C 1077,2.346 1075.654,1 1074,1 L 1010,1 z "
   id="path4622"
   style="opacity:0.15" />

		<path
   d="M 1010,2 C 1008.896,2 1008,2.896 1008,4 L 1008,84 C 1008,85.103 1008.896,86 1010,86 L 1074,86 C 1075.103,86 1076,85.103 1076,84 L 1076,4 C 1076,2.896 1075.103,2 1074,2 L 1010,2 z "
   id="path4624"
   style="opacity:0.2" />

		<path
   d="M 1010,3 C 1009.447,3 1009,3.447 1009,4 L 1009,84 C 1009,84.553 1009.447,85 1010,85 L 1074,85 C 1074.553,85 1075,84.553 1075,84 L 1075,4 C 1075,3.447 1074.553,3 1074,3 L 1010,3 z "
   id="path4626"
   style="opacity:0.25" />

		<rect
   x="1010"
   y="4"
   width="64"
   height="80"
   id="rect4628"
   style="fill:white" />

		<linearGradient
   id="linearGradient4947"
   gradientUnits="userSpaceOnUse"
   x1="1074.001"
   y1="76"
   x2="1010.0009"
   y2="11.9999">
			<stop
   offset="0"
   style="stop-color:#FFFFFF"
   id="stop4949" />

			<stop
   offset="0.5"
   style="stop-color:#E0F0FF"
   id="stop4951" />

			<stop
   offset="1"
   style="stop-color:#FFFFFF"
   id="stop4953" />

		</linearGradient>

		<path
   d="M 1014,8 C 1014,14.84 1014,73.16 1014,80 C 1020.562,80 1063.438,80 1070,80 C 1070,73.16 1070,14.84 1070,8 C 1063.438,8 1020.562,8 1014,8 z "
   id="path4637"
   style="fill:url(#XMLID_7_)" />

	</g>

	<g
   id="g4639">
		
			<ellipse
   transform="matrix(0.7071,0.7071,-0.7071,0.7071,331.0383,-761.1913)"
   cx="1084.358"
   cy="19.003"
   rx="7.868"
   ry="1.311"
   id="ellipse4641"
   sodipodi:cx="1084.358"
   sodipodi:cy="19.003"
   sodipodi:rx="7.868"
   sodipodi:ry="1.311"
   style="fill:#ec7331" />

		<linearGradient
   id="linearGradient4958"
   gradientUnits="userSpaceOnUse"
   x1="1075.2441"
   y1="62.439499"
   x2="1048.502"
   y2="55.273899">
			<stop
   offset="0"
   style="stop-color:#FFFFFF"
   id="stop4960" />

			<stop
   offset="0.0311"
   style="stop-color:#F5F9FF"
   id="stop4962" />

			<stop
   offset="0.1193"
   style="stop-color:#DDEBFF"
   id="stop4964" />

			<stop
   offset="0.2133"
   style="stop-color:#CCE1FF"
   id="stop4966" />

			<stop
   offset="0.3159"
   style="stop-color:#C2DBFF"
   id="stop4968" />

			<stop
   offset="0.4438"
   style="stop-color:#BFD9FF"
   id="stop4970" />

			<stop
   offset="0.5557"
   style="stop-color:#ACCAF5"
   id="stop4972" />

			<stop
   offset="0.8515"
   style="stop-color:#7EA4DD"
   id="stop4974" />

			<stop
   offset="1"
   style="stop-color:#6C96D4"
   id="stop4976" />

		</linearGradient>

		<polygon
   points="1074,50.842 1074,37.439 1032.427,65.624 1028.712,74.639 1043.549,72.392 1043.538,72.385 1043.555,72.388 1074,50.842 "
   id="polygon4662"
   style="fill:url(#XMLID_8_)" />

		
			<linearGradient
   id="linearGradient4979"
   gradientUnits="userSpaceOnUse"
   x1="912.84668"
   y1="-357.2373"
   x2="929.72302"
   y2="-357.53189"
   gradientTransform="matrix(0.7071,0.7071,-0.7071,0.7071,156.5728,-356.0948)">
			<stop
   offset="0"
   style="stop-color:#E3AD00"
   id="stop4981" />

			<stop
   offset="0.5"
   style="stop-color:#FFDD00"
   id="stop4983" />

			<stop
   offset="0.858"
   style="stop-color:#E39700"
   id="stop4985" />

			<stop
   offset="0.8683"
   style="stop-color:#DD9300"
   id="stop4987" />

			<stop
   offset="0.9063"
   style="stop-color:#CC8800"
   id="stop4989" />

			<stop
   offset="0.9481"
   style="stop-color:#C28200"
   id="stop4991" />

			<stop
   offset="1"
   style="stop-color:#BF8000"
   id="stop4993" />

		</linearGradient>

		<polygon
   points="1043.555,70.936 1041.005,70.239 1033.51,62.744 1032.427,59.808 1078.795,13.439 1089.922,24.566 1043.555,70.936 "
   id="polygon4679"
   style="fill:url(#XMLID_9_)" />

		
			<linearGradient
   id="linearGradient4996"
   gradientUnits="userSpaceOnUse"
   x1="918.64838"
   y1="-357.37161"
   x2="923.89447"
   y2="-357.37161"
   gradientTransform="matrix(0.7071,0.7071,-0.7071,0.7071,156.5728,-356.0948)">
			<stop
   offset="0"
   style="stop-color:#FFFFFF"
   id="stop4998" />

			<stop
   offset="0.0217"
   style="stop-color:#FFFEFA"
   id="stop5000" />

			<stop
   offset="0.0476"
   style="stop-color:#FFFDEB"
   id="stop5002" />

			<stop
   offset="0.0756"
   style="stop-color:#FFFAD3"
   id="stop5004" />

			<stop
   offset="0.105"
   style="stop-color:#FFF6B2"
   id="stop5006" />

			<stop
   offset="0.1354"
   style="stop-color:#FFF187"
   id="stop5008" />

			<stop
   offset="0.1657"
   style="stop-color:#FFEB55"
   id="stop5010" />

			<stop
   offset="0.3286"
   style="stop-color:#FFEA50"
   id="stop5012" />

			<stop
   offset="0.5227"
   style="stop-color:#FFE841"
   id="stop5014" />

			<stop
   offset="0.7327"
   style="stop-color:#FFE42A"
   id="stop5016" />

			<stop
   offset="0.9525"
   style="stop-color:#FFDE08"
   id="stop5018" />

			<stop
   offset="1"
   style="stop-color:#FFDD00"
   id="stop5020" />

		</linearGradient>

		<polygon
   points="1038.919,68.152 1035.209,64.443 1082.504,17.148 1086.213,20.857 1038.919,68.152 "
   id="polygon4706"
   style="fill:url(#XMLID_10_)" />

		
			<linearGradient
   id="linearGradient5023"
   gradientUnits="userSpaceOnUse"
   x1="929.15527"
   y1="-319.3374"
   x2="913.41888"
   y2="-319.3374"
   gradientTransform="matrix(0.7071,0.7071,-0.7071,0.7071,156.5728,-356.0948)">
			<stop
   offset="0"
   style="stop-color:#A18353"
   id="stop5025" />

			<stop
   offset="0.6154"
   style="stop-color:#AA8B58"
   id="stop5027" />

			<stop
   offset="1"
   style="stop-color:#B3925D"
   id="stop5029" />

		</linearGradient>

		<path
   d="M 1043.555,70.936 C 1044.068,70.423 1044.117,69.641 1043.091,68.618 C 1042.068,67.594 1039.431,67.641 1038.919,68.153 C 1038.917,68.156 1038.917,68.155 1038.919,68.153 C 1039.431,67.641 1039.943,65.468 1038.919,64.444 C 1037.895,63.421 1035.721,63.932 1035.209,64.444 C 1035.209,64.445 1035.206,64.446 1035.206,64.446 C 1035.207,64.444 1035.209,64.445 1035.209,64.444 C 1035.721,63.932 1035.77,61.296 1034.746,60.272 C 1033.722,59.247 1032.939,59.295 1032.427,59.808 L 1028.712,74.639 L 1043.549,70.942 L 1043.503,70.895 C 1043.535,70.92 1043.555,70.936 1043.555,70.936 z "
   id="path4715"
   style="fill:url(#XMLID_11_)" />

		
			<linearGradient
   id="linearGradient5032"
   gradientUnits="userSpaceOnUse"
   x1="973.91992"
   y1="-319.32669"
   x2="958.18158"
   y2="-319.32669"
   gradientTransform="matrix(0.6118,0.6118,-0.7071,0.7071,217.0207,-295.6461)">
			<stop
   offset="0"
   style="stop-color:#B39C78"
   id="stop5034" />

			<stop
   offset="0.1387"
   style="stop-color:#BCA37B"
   id="stop5036" />

			<stop
   offset="0.3688"
   style="stop-color:#D6B683"
   id="stop5038" />

			<stop
   offset="0.432"
   style="stop-color:#DEBC85"
   id="stop5040" />

			<stop
   offset="0.5"
   style="stop-color:#DEBC85"
   id="stop5042" />

			<stop
   offset="0.5416"
   style="stop-color:#E3C088"
   id="stop5044" />

			<stop
   offset="0.5621"
   style="stop-color:#E8C58B"
   id="stop5046" />

			<stop
   offset="0.6744"
   style="stop-color:#E3C087"
   id="stop5048" />

			<stop
   offset="0.8081"
   style="stop-color:#D5B27A"
   id="stop5050" />

			<stop
   offset="0.9522"
   style="stop-color:#BD9B65"
   id="stop5052" />

			<stop
   offset="1"
   style="stop-color:#B3925D"
   id="stop5054" />

		</linearGradient>

		<path
   d="M 1042.805,70.186 C 1043.318,69.673 1043.416,68.941 1042.529,68.055 C 1041.643,67.168 1039.181,67.391 1038.67,67.903 C 1038.668,67.906 1038.668,67.905 1038.67,67.903 C 1039.182,67.391 1039.806,65.331 1038.92,64.444 C 1038.034,63.558 1035.972,64.182 1035.46,64.694 C 1035.46,64.695 1035.457,64.696 1035.457,64.696 C 1035.458,64.694 1035.46,64.695 1035.46,64.694 C 1035.972,64.182 1036.194,61.72 1035.31,60.835 C 1034.423,59.947 1033.691,60.046 1033.178,60.559 L 1028.714,74.641 L 1042.8,70.193 L 1042.761,70.152 C 1042.787,70.172 1042.805,70.186 1042.805,70.186 z "
   id="path4740"
   style="fill:url(#XMLID_12_)" />

		
			<linearGradient
   id="linearGradient5057"
   gradientUnits="userSpaceOnUse"
   x1="924.41699"
   y1="-314.73541"
   x2="918.12012"
   y2="-314.73541"
   gradientTransform="matrix(0.7071,0.7071,-0.7071,0.7071,156.5728,-356.0948)">
			<stop
   offset="0.2663"
   style="stop-color:#2E3436"
   id="stop5059" />

			<stop
   offset="0.347"
   style="stop-color:#373C3D"
   id="stop5061" />

			<stop
   offset="0.481"
   style="stop-color:#515350"
   id="stop5063" />

			<stop
   offset="0.5"
   style="stop-color:#555753"
   id="stop5065" />

			<stop
   offset="0.6041"
   style="stop-color:#50534F"
   id="stop5067" />

			<stop
   offset="0.7279"
   style="stop-color:#424645"
   id="stop5069" />

			<stop
   offset="0.8402"
   style="stop-color:#2E3436"
   id="stop5071" />

		</linearGradient>

		<path
   d="M 1034.651,73.157 C 1034.651,73.157 1033.731,72.24 1032.427,70.935 C 1031.122,69.63 1030.198,68.705 1030.198,68.705 L 1028.712,74.639 L 1034.651,73.157 z "
   id="path4757"
   style="fill:url(#XMLID_13_)" />

	</g>

</g>
  </g>
</svg>
