<?xml version="1.0" encoding="UTF-8" standalone="no"?>
<!-- Created with Inkscape (http://www.inkscape.org/) -->
<svg
   xmlns:svg="http://www.w3.org/2000/svg"
   xmlns="http://www.w3.org/2000/svg"
   xmlns:xlink="http://www.w3.org/1999/xlink"
   version="1.0"
   width="128"
   height="128"
   id="svg2097">
  <defs
     id="defs2099">
    <radialGradient
       cx="26.570299"
       cy="111.2939"
       r="4.71"
       id="XMLID_34_"
       gradientUnits="userSpaceOnUse"
       gradientTransform="matrix(0.9176,-0.2459,0.2459,0.9176,-1.714,-70.8569)">
		<stop
   style="stop-color:white;stop-opacity:1"
   offset="0"
   id="stop132" />

		<stop
   style="stop-color:white;stop-opacity:1"
   offset="0.1893"
   id="stop134" />

		<stop
   style="stop-color:#fbfbfb;stop-opacity:1"
   offset="0.23019999"
   id="stop136" />

		<stop
   style="stop-color:#eeeff0;stop-opacity:1"
   offset="0.27399999"
   id="stop138" />

		<stop
   style="stop-color:#d8dbde;stop-opacity:1"
   offset="0.31909999"
   id="stop140" />

		<stop
   style="stop-color:#bac0c4;stop-opacity:1"
   offset="0.36520001"
   id="stop142" />

		<stop
   style="stop-color:#949ca3;stop-opacity:1"
   offset="0.41190001"
   id="stop144" />

		<stop
   style="stop-color:#65717b;stop-opacity:1"
   offset="0.45860001"
   id="stop146" />

		<stop
   style="stop-color:#55626d;stop-opacity:1"
   offset="0.4734"
   id="stop148" />

		<stop
   style="stop-color:#717a82;stop-opacity:1"
   offset="0.52770001"
   id="stop150" />

		<stop
   style="stop-color:#8c9297;stop-opacity:1"
   offset="0.5959"
   id="stop152" />

		<stop
   style="stop-color:#a1a4a7;stop-opacity:1"
   offset="0.67040002"
   id="stop154" />

		<stop
   style="stop-color:#b0b1b2;stop-opacity:1"
   offset="0.75309998"
   id="stop156" />

		<stop
   style="stop-color:#b8b9b9;stop-opacity:1"
   offset="0.85070002"
   id="stop158" />

		<stop
   style="stop-color:#bbb;stop-opacity:1"
   offset="1"
   id="stop160" />

	</radialGradient>
    <radialGradient
       cx="72.828598"
       cy="194.33591"
       r="106.8406"
       id="XMLID_33_"
       gradientUnits="userSpaceOnUse"
       gradientTransform="matrix(0.9176,-0.2459,0.2459,0.9176,-1.714,-70.8569)">
	<stop
   style="stop-color:#4b4a57;stop-opacity:1"
   offset="0"
   id="stop121" />

	<stop
   style="stop-color:black;stop-opacity:1"
   offset="1"
   id="stop123" />

</radialGradient>
    <radialGradient
       cx="72.809601"
       cy="194.3154"
       r="106.8356"
       id="XMLID_32_"
       gradientUnits="userSpaceOnUse"
       gradientTransform="matrix(0.9176,-0.2459,0.2459,0.9176,-1.714,-70.8569)">
	<stop
   style="stop-color:#4b4a57;stop-opacity:1"
   offset="0"
   id="stop114" />

	<stop
   style="stop-color:black;stop-opacity:1"
   offset="1"
   id="stop116" />

</radialGradient>
    <radialGradient
       cx="72.806198"
       cy="194.2939"
       r="106.8102"
       id="XMLID_31_"
       gradientUnits="userSpaceOnUse"
       gradientTransform="matrix(0.9176,-0.2459,0.2459,0.9176,-1.714,-70.8569)">
	<stop
   style="stop-color:#4b4a57;stop-opacity:1"
   offset="0"
   id="stop107" />

	<stop
   style="stop-color:black;stop-opacity:1"
   offset="1"
   id="stop109" />

</radialGradient>
    <radialGradient
       cx="72.807098"
       cy="194.31351"
       r="106.8361"
       id="XMLID_30_"
       gradientUnits="userSpaceOnUse"
       gradientTransform="matrix(0.9176,-0.2459,0.2459,0.9176,-1.714,-70.8569)">
	<stop
   style="stop-color:#4b4a57;stop-opacity:1"
   offset="0"
   id="stop100" />

	<stop
   style="stop-color:black;stop-opacity:1"
   offset="1"
   id="stop102" />

</radialGradient>
    <radialGradient
       cx="72.838898"
       cy="194.31351"
       r="106.8525"
       id="XMLID_29_"
       gradientUnits="userSpaceOnUse"
       gradientTransform="matrix(0.9176,-0.2459,0.2459,0.9176,-1.714,-70.8569)">
	<stop
   style="stop-color:#4b4a57;stop-opacity:1"
   offset="0"
   id="stop93" />

	<stop
   style="stop-color:black;stop-opacity:1"
   offset="1"
   id="stop95" />

</radialGradient>
    <linearGradient
       x1="92.216797"
       y1="39.273899"
       x2="92.216797"
       y2="37.061501"
       id="XMLID_28_"
       gradientUnits="userSpaceOnUse"
       gradientTransform="translate(45.58115,-31.86652)">
	<stop
   style="stop-color:#4b4a57;stop-opacity:1"
   offset="0"
   id="stop2819" />

	<stop
   style="stop-color:black;stop-opacity:1"
   offset="1"
   id="stop2821" />

</linearGradient>
    <radialGradient
       cx="6.0088"
       cy="21.862301"
       r="108.3227"
       id="XMLID_27_"
       gradientUnits="userSpaceOnUse"
       gradientTransform="matrix(0.95,0,0,0.95,4.9004,3.8325)">
		<stop
   style="stop-color:#4b4a57;stop-opacity:1"
   offset="0"
   id="stop77" />

		<stop
   style="stop-color:black;stop-opacity:1"
   offset="1"
   id="stop79" />

	</radialGradient>
    <radialGradient
       cx="6.0282998"
       cy="21.862301"
       r="108.3082"
       id="XMLID_26_"
       gradientUnits="userSpaceOnUse"
       gradientTransform="matrix(0.95,0,0,0.95,4.9004,3.8325)">
		<stop
   style="stop-color:#4b4a57;stop-opacity:1"
   offset="0"
   id="stop70" />

		<stop
   style="stop-color:black;stop-opacity:1"
   offset="1"
   id="stop72" />

	</radialGradient>
    <radialGradient
       cx="6.0644999"
       cy="21.862301"
       r="108.2629"
       id="XMLID_25_"
       gradientUnits="userSpaceOnUse"
       gradientTransform="matrix(0.95,0,0,0.95,4.9004,3.8325)">
		<stop
   style="stop-color:#4b4a57;stop-opacity:1"
   offset="0"
   id="stop2808" />

		<stop
   style="stop-color:black;stop-opacity:1"
   offset="1"
   id="stop2810" />

	</radialGradient>
    <radialGradient
       cx="6.0288"
       cy="21.862301"
       r="108.3102"
       id="XMLID_24_"
       gradientUnits="userSpaceOnUse"
       gradientTransform="matrix(0.95,0,0,0.95,4.9004,3.8325)">
		<stop
   style="stop-color:#4b4a57;stop-opacity:1"
   offset="0"
   id="stop56" />

		<stop
   style="stop-color:black;stop-opacity:1"
   offset="1"
   id="stop58" />

	</radialGradient>
    <radialGradient
       cx="6.0474"
       cy="21.862301"
       r="108.2659"
       id="XMLID_23_"
       gradientUnits="userSpaceOnUse"
       gradientTransform="matrix(0.95,0,0,0.95,4.9004,3.8325)">
		<stop
   style="stop-color:#4b4a57;stop-opacity:1"
   offset="0"
   id="stop49" />

		<stop
   style="stop-color:black;stop-opacity:1"
   offset="1"
   id="stop51" />

	</radialGradient>
    <linearGradient
       x1="87.701202"
       y1="21.459499"
       x2="108.6021"
       y2="75.720901"
       id="XMLID_22_"
       gradientUnits="userSpaceOnUse"
       gradientTransform="translate(45.58115,-31.86652)">
	<stop
   style="stop-color:white;stop-opacity:1"
   offset="0"
   id="stop40" />

	<stop
   style="stop-color:#a4c0e4;stop-opacity:1"
   offset="1"
   id="stop42" />

</linearGradient>
    <radialGradient
       cx="55.106899"
       cy="8.4487"
       r="125.8389"
       id="XMLID_21_"
       gradientUnits="userSpaceOnUse"
       gradientTransform="matrix(0.95,0,0,0.8769,50.48155,-19.69432)">
	<stop
   style="stop-color:#4b4a57;stop-opacity:1"
   offset="0"
   id="stop33" />

	<stop
   style="stop-color:black;stop-opacity:1"
   offset="0.7396"
   id="stop35" />

</radialGradient>
    <linearGradient
       x1="92.857399"
       y1="23.583"
       x2="83.1623"
       y2="-2.1935999"
       id="XMLID_18_"
       gradientUnits="userSpaceOnUse">
	<stop
   style="stop-color:white;stop-opacity:1"
   offset="0"
   id="stop4" />

	<stop
   style="stop-color:#a4c0e4;stop-opacity:1"
   offset="1"
   id="stop6" />

</linearGradient>
    <radialGradient
       cx="54.212399"
       cy="18.0903"
       r="26.416201"
       id="XMLID_14_"
       gradientUnits="userSpaceOnUse">
	<stop
   style="stop-color:#f0ff80;stop-opacity:1"
   offset="0.33140001"
   id="stop74" />

	<stop
   style="stop-color:#e9ff7c;stop-opacity:1"
   offset="0.39359999"
   id="stop76" />

	<stop
   style="stop-color:#d7ff73;stop-opacity:1"
   offset="0.48199999"
   id="stop78" />

	<stop
   style="stop-color:#b8ff62;stop-opacity:1"
   offset="0.58609998"
   id="stop80" />

	<stop
   style="stop-color:#8eff4b;stop-opacity:1"
   offset="0.70209998"
   id="stop82" />

	<stop
   style="stop-color:#57ff2e;stop-opacity:1"
   offset="0.82789999"
   id="stop84" />

	<stop
   style="stop-color:#15ff0b;stop-opacity:1"
   offset="0.9601"
   id="stop86" />

	<stop
   style="stop-color:lime;stop-opacity:1"
   offset="1"
   id="stop88" />

</radialGradient>
    <radialGradient
       cx="52.402802"
       cy="16.9541"
       r="57.403198"
       id="XMLID_13_"
       gradientUnits="userSpaceOnUse"
       gradientTransform="matrix(0.9551,0,0,1,1.6189,0)">
	<stop
   style="stop-color:white;stop-opacity:1"
   offset="0"
   id="stop57" />

	<stop
   style="stop-color:#f9fff9;stop-opacity:1"
   offset="0.0571"
   id="stop59" />

	<stop
   style="stop-color:#e9ffe9;stop-opacity:1"
   offset="0.13160001"
   id="stop61" />

	<stop
   style="stop-color:#ceffce;stop-opacity:1"
   offset="0.2155"
   id="stop63" />

	<stop
   style="stop-color:#bfffbf;stop-opacity:1"
   offset="0.25440001"
   id="stop65" />

	<stop
   style="stop-color:#80ff80;stop-opacity:1"
   offset="0.46149999"
   id="stop67" />

	<stop
   style="stop-color:#00bf00;stop-opacity:0"
   offset="0.6864"
   id="stop69" />

</radialGradient>
    <radialGradient
       cx="-34.284698"
       cy="195.728"
       r="21.344999"
       fx="-38.2719"
       fy="188.4747"
       id="XMLID_12_"
       gradientUnits="userSpaceOnUse"
       gradientTransform="matrix(0.6578,0.1436,-0.1641,0.7515,73.9516,-43.2983)">
	<stop
   style="stop-color:#f0ff80;stop-opacity:1"
   offset="0"
   id="stop48" />

	<stop
   style="stop-color:#d5ca00;stop-opacity:0"
   offset="0.70410001"
   id="stop50" />

	<stop
   style="stop-color:#00a700;stop-opacity:0"
   offset="1"
   id="stop52" />

</radialGradient>
    <linearGradient
       x1="-1.1073999"
       y1="120.4058"
       x2="42.2001"
       y2="90.081497"
       id="XMLID_11_"
       gradientUnits="userSpaceOnUse">
	<stop
   style="stop-color:#f0ff80;stop-opacity:1"
   offset="0"
   id="stop39" />

	<stop
   style="stop-color:#00bf00;stop-opacity:1"
   offset="0.50300002"
   id="stop41" />

	<stop
   style="stop-color:#008c00;stop-opacity:1"
   offset="1"
   id="stop43" />

</linearGradient>
    <linearGradient
       x1="18.252399"
       y1="106.1704"
       x2="18.252399"
       y2="80.280197"
       id="XMLID_10_"
       gradientUnits="userSpaceOnUse">
	<stop
   style="stop-color:#00bf00;stop-opacity:1"
   offset="0.1243"
   id="stop32" />

	<stop
   style="stop-color:#008c00;stop-opacity:1"
   offset="0.6627"
   id="stop34" />

</linearGradient>
    <linearGradient
       x1="8.6924"
       y1="46.639599"
       x2="75.421898"
       y2="113.3696"
       id="XMLID_9_"
       gradientUnits="userSpaceOnUse">
	<stop
   style="stop-color:#00bf00;stop-opacity:1"
   offset="0.1243"
   id="stop23" />

	<stop
   style="stop-color:#80ff80;stop-opacity:1"
   offset="0.26629999"
   id="stop25" />

	<stop
   style="stop-color:#008c00;stop-opacity:1"
   offset="0.6627"
   id="stop27" />

</linearGradient>
    <linearGradient
       x1="-9.6152"
       y1="60.987801"
       x2="83.6371"
       y2="60.987801"
       id="XMLID_8_"
       gradientUnits="userSpaceOnUse">
	<stop
   style="stop-color:#004d00;stop-opacity:1"
   offset="0"
   id="stop14" />

	<stop
   style="stop-color:#008c00;stop-opacity:1"
   offset="0.787"
   id="stop16" />

	<stop
   style="stop-color:#004d00;stop-opacity:1"
   offset="1"
   id="stop18" />

</linearGradient>
    <linearGradient
       x1="92.857399"
       y1="23.583"
       x2="83.1623"
       y2="-2.1935999"
       id="linearGradient2979"
       xlink:href="#XMLID_18_"
       gradientUnits="userSpaceOnUse" />
    <linearGradient
       x1="92.857399"
       y1="23.583"
       x2="83.1623"
       y2="-2.1935999"
       id="linearGradient2981"
       xlink:href="#XMLID_18_"
       gradientUnits="userSpaceOnUse" />
    <linearGradient
       x1="92.857399"
       y1="23.583"
       x2="83.1623"
       y2="-2.1935999"
       id="linearGradient2983"
       xlink:href="#XMLID_18_"
       gradientUnits="userSpaceOnUse" />
    <linearGradient
       x1="-9.6152"
       y1="60.987801"
       x2="83.6371"
       y2="60.987801"
       id="linearGradient3006"
       xlink:href="#XMLID_8_"
       gradientUnits="userSpaceOnUse" />
    <linearGradient
       x1="8.6924"
       y1="46.639599"
       x2="75.421898"
       y2="113.3696"
       id="linearGradient3008"
       xlink:href="#XMLID_9_"
       gradientUnits="userSpaceOnUse" />
    <linearGradient
       x1="18.252399"
       y1="106.1704"
       x2="18.252399"
       y2="80.280197"
       id="linearGradient3010"
       xlink:href="#XMLID_10_"
       gradientUnits="userSpaceOnUse" />
    <linearGradient
       x1="-1.1073999"
       y1="120.4058"
       x2="42.2001"
       y2="90.081497"
       id="linearGradient3012"
       xlink:href="#XMLID_11_"
       gradientUnits="userSpaceOnUse" />
    <radialGradient
       cx="-34.284698"
       cy="195.728"
       r="21.344999"
       fx="-38.2719"
       fy="188.4747"
       id="radialGradient3014"
       xlink:href="#XMLID_12_"
       gradientUnits="userSpaceOnUse"
       gradientTransform="matrix(0.6578,0.1436,-0.1641,0.7515,73.9516,-43.2983)" />
    <radialGradient
       cx="52.402802"
       cy="16.9541"
       r="57.403198"
       id="radialGradient3016"
       xlink:href="#XMLID_13_"
       gradientUnits="userSpaceOnUse"
       gradientTransform="matrix(0.9551,0,0,1,1.6189,0)" />
    <radialGradient
       cx="54.212399"
       cy="18.0903"
       r="26.416201"
       id="radialGradient3018"
       xlink:href="#XMLID_14_"
       gradientUnits="userSpaceOnUse" />
    <linearGradient
       x1="92.857399"
       y1="23.583"
       x2="83.1623"
       y2="-2.1935999"
       id="linearGradient3112"
       xlink:href="#XMLID_18_"
       gradientUnits="userSpaceOnUse" />
    <linearGradient
       x1="92.857399"
       y1="23.583"
       x2="83.1623"
       y2="-2.1935999"
       id="linearGradient3114"
       xlink:href="#XMLID_18_"
       gradientUnits="userSpaceOnUse" />
    <linearGradient
       x1="92.857399"
       y1="23.583"
       x2="83.1623"
       y2="-2.1935999"
       id="linearGradient3116"
       xlink:href="#XMLID_18_"
       gradientUnits="userSpaceOnUse" />
    <radialGradient
       cx="55.106899"
       cy="8.4487"
       r="125.8389"
       id="radialGradient3118"
       xlink:href="#XMLID_21_"
       gradientUnits="userSpaceOnUse"
       gradientTransform="matrix(0.95,0,0,0.8769,50.48155,-19.69432)" />
    <linearGradient
       x1="87.701202"
       y1="21.459499"
       x2="108.6021"
       y2="75.720901"
       id="linearGradient3120"
       xlink:href="#XMLID_22_"
       gradientUnits="userSpaceOnUse"
       gradientTransform="translate(45.58115,-31.86652)" />
    <radialGradient
       cx="6.0474"
       cy="21.862301"
       r="108.2659"
       id="radialGradient3122"
       xlink:href="#XMLID_23_"
       gradientUnits="userSpaceOnUse"
       gradientTransform="matrix(0.95,0,0,0.95,4.9004,3.8325)" />
    <radialGradient
       cx="6.0288"
       cy="21.862301"
       r="108.3102"
       id="radialGradient3124"
       xlink:href="#XMLID_24_"
       gradientUnits="userSpaceOnUse"
       gradientTransform="matrix(0.95,0,0,0.95,4.9004,3.8325)" />
    <radialGradient
       cx="6.0644999"
       cy="21.862301"
       r="108.2629"
       id="radialGradient3126"
       xlink:href="#XMLID_25_"
       gradientUnits="userSpaceOnUse"
       gradientTransform="matrix(0.95,0,0,0.95,4.9004,3.8325)" />
    <radialGradient
       cx="6.0282998"
       cy="21.862301"
       r="108.3082"
       id="radialGradient3128"
       xlink:href="#XMLID_26_"
       gradientUnits="userSpaceOnUse"
       gradientTransform="matrix(0.95,0,0,0.95,4.9004,3.8325)" />
    <radialGradient
       cx="6.0088"
       cy="21.862301"
       r="108.3227"
       id="radialGradient3130"
       xlink:href="#XMLID_27_"
       gradientUnits="userSpaceOnUse"
       gradientTransform="matrix(0.95,0,0,0.95,4.9004,3.8325)" />
    <linearGradient
       x1="92.216797"
       y1="39.273899"
       x2="92.216797"
       y2="37.061501"
       id="linearGradient3132"
       xlink:href="#XMLID_28_"
       gradientUnits="userSpaceOnUse"
       gradientTransform="translate(45.58115,-31.86652)" />
    <radialGradient
       cx="72.838898"
       cy="194.31351"
       r="106.8525"
       id="radialGradient3134"
       xlink:href="#XMLID_29_"
       gradientUnits="userSpaceOnUse"
       gradientTransform="matrix(0.9176,-0.2459,0.2459,0.9176,-1.714,-70.8569)" />
    <radialGradient
       cx="72.807098"
       cy="194.31351"
       r="106.8361"
       id="radialGradient3136"
       xlink:href="#XMLID_30_"
       gradientUnits="userSpaceOnUse"
       gradientTransform="matrix(0.9176,-0.2459,0.2459,0.9176,-1.714,-70.8569)" />
    <radialGradient
       cx="72.806198"
       cy="194.2939"
       r="106.8102"
       id="radialGradient3138"
       xlink:href="#XMLID_31_"
       gradientUnits="userSpaceOnUse"
       gradientTransform="matrix(0.9176,-0.2459,0.2459,0.9176,-1.714,-70.8569)" />
    <radialGradient
       cx="72.809601"
       cy="194.3154"
       r="106.8356"
       id="radialGradient3140"
       xlink:href="#XMLID_32_"
       gradientUnits="userSpaceOnUse"
       gradientTransform="matrix(0.9176,-0.2459,0.2459,0.9176,-1.714,-70.8569)" />
    <radialGradient
       cx="72.828598"
       cy="194.33591"
       r="106.8406"
       id="radialGradient3142"
       xlink:href="#XMLID_33_"
       gradientUnits="userSpaceOnUse"
       gradientTransform="matrix(0.9176,-0.2459,0.2459,0.9176,-1.714,-70.8569)" />
    <radialGradient
       cx="26.570299"
       cy="111.2939"
       r="4.71"
       id="radialGradient3144"
       xlink:href="#XMLID_34_"
       gradientUnits="userSpaceOnUse"
       gradientTransform="matrix(0.9176,-0.2459,0.2459,0.9176,-1.714,-70.8569)" />
    <linearGradient
       x1="92.857399"
       y1="23.583"
       x2="83.1623"
       y2="-2.1935999"
       id="linearGradient3253"
       xlink:href="#XMLID_18_"
       gradientUnits="userSpaceOnUse" />
    <linearGradient
       x1="92.857399"
       y1="23.583"
       x2="83.1623"
       y2="-2.1935999"
       id="linearGradient3255"
       xlink:href="#XMLID_18_"
       gradientUnits="userSpaceOnUse" />
    <linearGradient
       x1="92.857399"
       y1="23.583"
       x2="83.1623"
       y2="-2.1935999"
       id="linearGradient3257"
       xlink:href="#XMLID_18_"
       gradientUnits="userSpaceOnUse" />
    <radialGradient
       cx="55.106899"
       cy="8.4487"
       r="125.8389"
       id="radialGradient3259"
       xlink:href="#XMLID_21_"
       gradientUnits="userSpaceOnUse"
       gradientTransform="matrix(0.95,0,0,0.8769,50.48155,-19.69432)" />
    <linearGradient
       x1="87.701202"
       y1="21.459499"
       x2="108.6021"
       y2="75.720901"
       id="linearGradient3261"
       xlink:href="#XMLID_22_"
       gradientUnits="userSpaceOnUse"
       gradientTransform="translate(45.58115,-31.86652)" />
    <radialGradient
       cx="6.0474"
       cy="21.862301"
       r="108.2659"
       id="radialGradient3263"
       xlink:href="#XMLID_23_"
       gradientUnits="userSpaceOnUse"
       gradientTransform="matrix(0.95,0,0,0.95,4.9004,3.8325)" />
    <radialGradient
       cx="6.0288"
       cy="21.862301"
       r="108.3102"
       id="radialGradient3265"
       xlink:href="#XMLID_24_"
       gradientUnits="userSpaceOnUse"
       gradientTransform="matrix(0.95,0,0,0.95,4.9004,3.8325)" />
    <radialGradient
       cx="6.0644999"
       cy="21.862301"
       r="108.2629"
       id="radialGradient3267"
       xlink:href="#XMLID_25_"
       gradientUnits="userSpaceOnUse"
       gradientTransform="matrix(0.95,0,0,0.95,4.9004,3.8325)" />
    <radialGradient
       cx="6.0282998"
       cy="21.862301"
       r="108.3082"
       id="radialGradient3269"
       xlink:href="#XMLID_26_"
       gradientUnits="userSpaceOnUse"
       gradientTransform="matrix(0.95,0,0,0.95,4.9004,3.8325)" />
    <radialGradient
       cx="6.0088"
       cy="21.862301"
       r="108.3227"
       id="radialGradient3271"
       xlink:href="#XMLID_27_"
       gradientUnits="userSpaceOnUse"
       gradientTransform="matrix(0.95,0,0,0.95,4.9004,3.8325)" />
    <linearGradient
       x1="92.216797"
       y1="39.273899"
       x2="92.216797"
       y2="37.061501"
       id="linearGradient3273"
       xlink:href="#XMLID_28_"
       gradientUnits="userSpaceOnUse"
       gradientTransform="translate(45.58115,-31.86652)" />
    <radialGradient
       cx="72.838898"
       cy="194.31351"
       r="106.8525"
       id="radialGradient3275"
       xlink:href="#XMLID_29_"
       gradientUnits="userSpaceOnUse"
       gradientTransform="matrix(0.9176,-0.2459,0.2459,0.9176,-1.714,-70.8569)" />
    <radialGradient
       cx="72.807098"
       cy="194.31351"
       r="106.8361"
       id="radialGradient3277"
       xlink:href="#XMLID_30_"
       gradientUnits="userSpaceOnUse"
       gradientTransform="matrix(0.9176,-0.2459,0.2459,0.9176,-1.714,-70.8569)" />
    <radialGradient
       cx="72.806198"
       cy="194.2939"
       r="106.8102"
       id="radialGradient3279"
       xlink:href="#XMLID_31_"
       gradientUnits="userSpaceOnUse"
       gradientTransform="matrix(0.9176,-0.2459,0.2459,0.9176,-1.714,-70.8569)" />
    <radialGradient
       cx="72.809601"
       cy="194.3154"
       r="106.8356"
       id="radialGradient3281"
       xlink:href="#XMLID_32_"
       gradientUnits="userSpaceOnUse"
       gradientTransform="matrix(0.9176,-0.2459,0.2459,0.9176,-1.714,-70.8569)" />
    <radialGradient
       cx="72.828598"
       cy="194.33591"
       r="106.8406"
       id="radialGradient3283"
       xlink:href="#XMLID_33_"
       gradientUnits="userSpaceOnUse"
       gradientTransform="matrix(0.9176,-0.2459,0.2459,0.9176,-1.714,-70.8569)" />
    <radialGradient
       cx="26.570299"
       cy="111.2939"
       r="4.71"
       id="radialGradient3285"
       xlink:href="#XMLID_34_"
       gradientUnits="userSpaceOnUse"
       gradientTransform="matrix(0.9176,-0.2459,0.2459,0.9176,-1.714,-70.8569)" />
    <linearGradient
       x1="-9.6152"
       y1="60.987801"
       x2="83.6371"
       y2="60.987801"
       id="linearGradient3287"
       xlink:href="#XMLID_8_"
       gradientUnits="userSpaceOnUse" />
    <linearGradient
       x1="8.6924"
       y1="46.639599"
       x2="75.421898"
       y2="113.3696"
       id="linearGradient3289"
       xlink:href="#XMLID_9_"
       gradientUnits="userSpaceOnUse" />
    <linearGradient
       x1="18.252399"
       y1="106.1704"
       x2="18.252399"
       y2="80.280197"
       id="linearGradient3291"
       xlink:href="#XMLID_10_"
       gradientUnits="userSpaceOnUse" />
    <linearGradient
       x1="-1.1073999"
       y1="120.4058"
       x2="42.2001"
       y2="90.081497"
       id="linearGradient3293"
       xlink:href="#XMLID_11_"
       gradientUnits="userSpaceOnUse" />
    <radialGradient
       cx="-34.284698"
       cy="195.728"
       r="21.344999"
       fx="-38.2719"
       fy="188.4747"
       id="radialGradient3295"
       xlink:href="#XMLID_12_"
       gradientUnits="userSpaceOnUse"
       gradientTransform="matrix(0.6578,0.1436,-0.1641,0.7515,73.9516,-43.2983)" />
    <radialGradient
       cx="52.402802"
       cy="16.9541"
       r="57.403198"
       id="radialGradient3297"
       xlink:href="#XMLID_13_"
       gradientUnits="userSpaceOnUse"
       gradientTransform="matrix(0.9551,0,0,1,1.6189,0)" />
    <radialGradient
       cx="54.212399"
       cy="18.0903"
       r="26.416201"
       id="radialGradient3299"
       xlink:href="#XMLID_14_"
       gradientUnits="userSpaceOnUse" />
    <linearGradient
       x1="-9.6152"
       y1="60.987801"
       x2="83.6371"
       y2="60.987801"
       id="linearGradient3406"
       xlink:href="#XMLID_8_"
       gradientUnits="userSpaceOnUse" />
    <linearGradient
       x1="8.6924"
       y1="46.639599"
       x2="75.421898"
       y2="113.3696"
       id="linearGradient3408"
       xlink:href="#XMLID_9_"
       gradientUnits="userSpaceOnUse" />
    <linearGradient
       x1="18.252399"
       y1="106.1704"
       x2="18.252399"
       y2="80.280197"
       id="linearGradient3410"
       xlink:href="#XMLID_10_"
       gradientUnits="userSpaceOnUse" />
    <linearGradient
       x1="-1.1073999"
       y1="120.4058"
       x2="42.2001"
       y2="90.081497"
       id="linearGradient3412"
       xlink:href="#XMLID_11_"
       gradientUnits="userSpaceOnUse" />
    <radialGradient
       cx="-34.284698"
       cy="195.728"
       r="21.344999"
       fx="-38.2719"
       fy="188.4747"
       id="radialGradient3414"
       xlink:href="#XMLID_12_"
       gradientUnits="userSpaceOnUse"
       gradientTransform="matrix(0.6578,0.1436,-0.1641,0.7515,73.9516,-43.2983)" />
    <radialGradient
       cx="52.402802"
       cy="16.9541"
       r="57.403198"
       id="radialGradient3416"
       xlink:href="#XMLID_13_"
       gradientUnits="userSpaceOnUse"
       gradientTransform="matrix(0.9551,0,0,1,1.6189,0)" />
    <radialGradient
       cx="54.212399"
       cy="18.0903"
       r="26.416201"
       id="radialGradient3418"
       xlink:href="#XMLID_14_"
       gradientUnits="userSpaceOnUse" />
  </defs>
  <g
     id="layer1">
    <g
       transform="translate(-60.71515,39.67502)"
       id="g3020">
      <polygon
         points="45.154,23.422 132.569,0 134.422,7.409 47.002,30.834 45.154,23.422 "
         transform="translate(45.58115,-31.86652)"
         style="fill:url(#linearGradient3253)"
         id="polygon8" />
      <polygon
         points="45.154,23.422 132.569,0 134.422,7.409 47.002,30.834 45.154,23.422 "
         transform="translate(45.58115,-31.86652)"
         style="fill:url(#linearGradient3255)"
         id="polygon10" />
      <polygon
         points="45.154,27.422 134.422,7.409 134.422,11.409 47.002,34.834 45.154,27.422 "
         transform="translate(45.58115,-31.86652)"
         style="opacity:0.1;fill:#1a171b"
         id="polygon12" />
      <polygon
         points="45.154,26.422 134.37,7.202 134.422,10.409 47.002,33.834 45.154,26.422 "
         transform="translate(45.58115,-31.86652)"
         style="opacity:0.15;fill:#1a171b"
         id="polygon14" />
      <polygon
         points="45.154,25.422 134.422,7.409 134.422,9.409 47.002,32.834 45.154,25.422 "
         transform="translate(45.58115,-31.86652)"
         style="opacity:0.2;fill:#1a171b"
         id="polygon16" />
      <polygon
         points="45.154,24.422 134.422,7.409 134.422,8.409 47.002,31.834 45.154,24.422 "
         transform="translate(45.58115,-31.86652)"
         style="opacity:0.25;fill:#1a171b"
         id="polygon18" />
      <polygon
         points="45.154,23.422 132.569,0 134.422,7.409 47.002,30.834 45.154,23.422 "
         transform="translate(45.58115,-31.86652)"
         style="fill:url(#linearGradient3257)"
         id="polygon20" />
      <g
         transform="translate(45.58115,-31.86652)"
         id="g22">
	<path
   d="M 48.048,103.617 C 45.853,103.617 44.134,105.542 44.134,108 C 44.134,110.458 45.853,112.383 48.048,112.383 L 137.221,112.383 C 139.415,112.383 141.134,110.458 141.134,108 C 141.134,105.542 139.415,103.617 137.221,103.617 L 48.048,103.617 z "
   style="opacity:0.1"
   id="path24" />

	<path
   d="M 48.048,104.617 C 46.414,104.617 45.134,106.103 45.134,108 C 45.134,109.897 46.414,111.383 48.048,111.383 L 137.221,111.383 C 138.855,111.383 140.134,109.897 140.134,108 C 140.134,106.103 138.855,104.617 137.221,104.617 L 48.048,104.617 z "
   style="opacity:0.15"
   id="path26" />

	<path
   d="M 48.048,105.617 C 46.975,105.617 46.134,106.664 46.134,108 C 46.134,109.336 46.975,110.383 48.048,110.383 L 137.221,110.383 C 138.294,110.383 139.134,109.336 139.134,108 C 139.134,106.664 138.294,105.617 137.221,105.617 L 48.048,105.617 z "
   style="opacity:0.2"
   id="path28" />

	<path
   d="M 48.048,106.617 C 47.542,106.617 47.134,107.235 47.134,108 C 47.134,108.765 47.542,109.383 48.048,109.383 L 137.221,109.383 C 137.725,109.383 138.134,108.765 138.134,108 C 138.134,107.235 137.725,106.617 137.221,106.617 L 48.048,106.617 z "
   style="opacity:0.25"
   id="path30" />

</g>
      <rect
         width="90.630997"
         height="72.344002"
         x="92.583145"
         y="3.7894826"
         style="fill:url(#radialGradient3259)"
         id="rect37" />
      <rect
         width="90.630997"
         height="7.638"
         x="92.583145"
         y="-2.2405162"
         style="fill:url(#linearGradient3261)"
         id="rect44" />
      <g
         transform="translate(45.58115,-31.86652)"
         id="g46">
	
		<radialGradient
   cx="6.0474"
   cy="21.862301"
   r="108.2659"
   id="radialGradient2869"
   gradientUnits="userSpaceOnUse"
   gradientTransform="matrix(0.95,0,0,0.95,4.9004,3.8325)">
		<stop
   style="stop-color:#4b4a57;stop-opacity:1"
   offset="0"
   id="stop2871" />

		<stop
   style="stop-color:black;stop-opacity:1"
   offset="1"
   id="stop2873" />

	</radialGradient>

	<polygon
   points="47.002,37.265 47.136,37.265 50.418,29.628 50.418,29.626 47.002,29.626 47.002,37.265 "
   style="fill:url(#radialGradient3263)"
   id="polygon53" />

	
		<radialGradient
   cx="6.0288"
   cy="21.862301"
   r="108.3102"
   id="radialGradient2876"
   gradientUnits="userSpaceOnUse"
   gradientTransform="matrix(0.95,0,0,0.95,4.9004,3.8325)">
		<stop
   style="stop-color:#4b4a57;stop-opacity:1"
   offset="0"
   id="stop2878" />

		<stop
   style="stop-color:black;stop-opacity:1"
   offset="1"
   id="stop2880" />

	</radialGradient>

	<polygon
   points="67.099,29.628 63.815,37.265 71.045,37.265 74.331,29.628 74.331,29.626 67.099,29.626 67.099,29.628 "
   style="fill:url(#radialGradient3265)"
   id="polygon60" />

	
		<radialGradient
   cx="6.0644999"
   cy="21.862301"
   r="108.2629"
   id="radialGradient2883"
   gradientUnits="userSpaceOnUse"
   gradientTransform="matrix(0.95,0,0,0.95,4.9004,3.8325)">
		<stop
   style="stop-color:#4b4a57;stop-opacity:1"
   offset="0"
   id="stop2885" />

		<stop
   style="stop-color:black;stop-opacity:1"
   offset="1"
   id="stop2887" />

	</radialGradient>

	<polygon
   points="90.683,29.628 87.399,37.265 94.629,37.265 97.909,29.628 97.909,29.626 90.683,29.626 90.683,29.628 "
   style="fill:url(#radialGradient3267)"
   id="polygon67" />

	
		<radialGradient
   cx="6.0282998"
   cy="21.862301"
   r="108.3082"
   id="radialGradient2890"
   gradientUnits="userSpaceOnUse"
   gradientTransform="matrix(0.95,0,0,0.95,4.9004,3.8325)">
		<stop
   style="stop-color:#4b4a57;stop-opacity:1"
   offset="0"
   id="stop2892" />

		<stop
   style="stop-color:black;stop-opacity:1"
   offset="1"
   id="stop2894" />

	</radialGradient>

	<polygon
   points="114.44,29.628 111.159,37.265 118.392,37.265 121.674,29.628 121.674,29.626 114.44,29.626 114.44,29.628 "
   style="fill:url(#radialGradient3269)"
   id="polygon74" />

	
		<radialGradient
   cx="6.0088"
   cy="21.862301"
   r="108.3227"
   id="radialGradient2897"
   gradientUnits="userSpaceOnUse"
   gradientTransform="matrix(0.95,0,0,0.95,4.9004,3.8325)">
		<stop
   style="stop-color:#4b4a57;stop-opacity:1"
   offset="0"
   id="stop2899" />

		<stop
   style="stop-color:black;stop-opacity:1"
   offset="1"
   id="stop2901" />

	</radialGradient>

	<polygon
   points="137.505,29.628 134.22,37.265 137.634,37.265 137.634,29.626 137.505,29.626 137.505,29.628 "
   style="fill:url(#radialGradient3271)"
   id="polygon81" />

</g>
      <rect
         width="90.429001"
         height="2.2119999"
         x="92.583145"
         y="5.1954846"
         style="fill:url(#linearGradient3273)"
         id="rect88" />
      <rect
         width="90.630997"
         height="1.2079999"
         x="92.583145"
         y="-2.2405162"
         style="opacity:0.2;fill:white"
         id="rect90" />
      <polygon
         points="45.154,23.422 45.026,23.458 47.002,30.834 50.304,29.947 45.154,23.422 "
         transform="translate(45.58115,-31.86652)"
         style="fill:url(#radialGradient3275)"
         id="polygon97" />
      <polygon
         points="68.25,17.235 61.266,19.105 66.414,25.631 73.399,23.761 68.25,17.235 "
         transform="translate(45.58115,-31.86652)"
         style="fill:url(#radialGradient3277)"
         id="polygon104" />
      <polygon
         points="91.029,11.131 84.045,13.003 89.193,19.528 96.177,17.657 91.029,11.131 "
         transform="translate(45.58115,-31.86652)"
         style="fill:url(#radialGradient3279)"
         id="polygon111" />
      <polygon
         points="113.981,4.98 106.998,6.854 112.143,13.379 119.131,11.506 113.981,4.98 "
         transform="translate(45.58115,-31.86652)"
         style="fill:url(#radialGradient3281)"
         id="polygon118" />
      <polygon
         points="134.422,7.409 134.546,7.377 132.569,0 129.272,0.884 134.422,7.409 "
         transform="translate(45.58115,-31.86652)"
         style="fill:url(#radialGradient3283)"
         id="polygon125" />
      <g
         transform="translate(45.58115,-31.86652)"
         id="g127">
	<path
   d="M 50.237,26.012 C 50.472,26.897 51.384,27.422 52.267,27.187 C 53.15,26.951 53.676,26.041 53.438,25.155 C 53.202,24.272 52.293,23.746 51.409,23.984 C 50.524,24.22 50,25.132 50.237,26.012 z "
   style="fill:#55626d"
   id="path129" />

	
		<radialGradient
   cx="26.570299"
   cy="111.2939"
   r="4.71"
   id="radialGradient2913"
   gradientUnits="userSpaceOnUse"
   gradientTransform="matrix(0.9176,-0.2459,0.2459,0.9176,-1.714,-70.8569)">
		<stop
   style="stop-color:white;stop-opacity:1"
   offset="0"
   id="stop2915" />

		<stop
   style="stop-color:white;stop-opacity:1"
   offset="0.1893"
   id="stop2917" />

		<stop
   style="stop-color:#fbfbfb;stop-opacity:1"
   offset="0.23019999"
   id="stop2919" />

		<stop
   style="stop-color:#eeeff0;stop-opacity:1"
   offset="0.27399999"
   id="stop2921" />

		<stop
   style="stop-color:#d8dbde;stop-opacity:1"
   offset="0.31909999"
   id="stop2923" />

		<stop
   style="stop-color:#bac0c4;stop-opacity:1"
   offset="0.36520001"
   id="stop2925" />

		<stop
   style="stop-color:#949ca3;stop-opacity:1"
   offset="0.41190001"
   id="stop2927" />

		<stop
   style="stop-color:#65717b;stop-opacity:1"
   offset="0.45860001"
   id="stop2929" />

		<stop
   style="stop-color:#55626d;stop-opacity:1"
   offset="0.4734"
   id="stop2931" />

		<stop
   style="stop-color:#717a82;stop-opacity:1"
   offset="0.52770001"
   id="stop2933" />

		<stop
   style="stop-color:#8c9297;stop-opacity:1"
   offset="0.5959"
   id="stop2935" />

		<stop
   style="stop-color:#a1a4a7;stop-opacity:1"
   offset="0.67040002"
   id="stop2937" />

		<stop
   style="stop-color:#b0b1b2;stop-opacity:1"
   offset="0.75309998"
   id="stop2939" />

		<stop
   style="stop-color:#b8b9b9;stop-opacity:1"
   offset="0.85070002"
   id="stop2941" />

		<stop
   style="stop-color:#bbb;stop-opacity:1"
   offset="1"
   id="stop2943" />

	</radialGradient>

	<circle
   cx="51.839001"
   cy="25.584"
   r="1.054"
   style="fill:url(#radialGradient3285)"
   id="circle162" />

</g>
      <g
         transform="translate(45.58115,-31.86652)"
         id="g164">
	<rect
   width="90.630997"
   height="1.421"
   x="47.001999"
   y="50.403"
   style="fill:white"
   id="rect166" />

</g>
      <g
         transform="translate(45.58115,-31.86652)"
         id="g168">
	<rect
   width="90.630997"
   height="1.423"
   x="47.001999"
   y="75.980003"
   style="fill:white"
   id="rect170" />

</g>
      <g
         transform="translate(45.58115,-31.86652)"
         id="g172">
	<rect
   width="90.630997"
   height="1.424"
   x="47.001999"
   y="93.032997"
   style="fill:white"
   id="rect174" />

</g>
      <g
         transform="translate(45.58115,-31.86652)"
         id="g176">
	<rect
   width="90.630997"
   height="1.424"
   x="47.001999"
   y="101"
   style="fill:white"
   id="rect178" />

</g>
      <g
         transform="translate(45.58115,-31.86652)"
         id="g180">
	<rect
   width="49.433998"
   height="1.419"
   x="47.001999"
   y="83.087997"
   style="fill:white"
   id="rect182" />

</g>
      <g
         transform="translate(45.58115,-31.86652)"
         id="g184">
	<rect
   width="1.4220001"
   height="15.678"
   x="96.500999"
   y="77.250999"
   style="fill:white"
   id="rect186" />

</g>
      <g
         transform="translate(45.58115,-31.86652)"
         id="g188">
	<rect
   width="1.42"
   height="25.318001"
   x="107.87"
   y="51.932999"
   style="fill:white"
   id="rect190" />

</g>
      <g
         transform="translate(45.58115,-31.86652)"
         id="g192">
	<rect
   width="1.4220001"
   height="25.318001"
   x="76.606003"
   y="51.932999"
   style="fill:white"
   id="rect194" />

</g>
      <g
         transform="translate(45.58115,-31.86652)"
         id="g196">
	<path
   d="M 59.077,71.67 L 59.399,69.929 L 62.171,67.748 C 65.608,64.888 67.693,62.894 67.693,60.787 C 67.693,59.732 67.027,58.77 65.54,58.77 C 64.212,58.77 63.156,59.254 62.424,59.757 L 61.828,57.83 C 62.95,57.074 64.601,56.524 66.159,56.524 C 69.068,56.524 70.464,58.334 70.464,60.398 C 70.464,63.488 67.808,65.895 64.784,68.324 L 63.408,69.354 L 63.408,69.4 L 69.159,69.4 L 68.724,71.67 L 59.077,71.67 L 59.077,71.67 z "
   style="fill:white"
   id="path198" />

</g>
      <g
         transform="translate(45.58115,-31.86652)"
         id="g200">
	<path
   d="M 95.758,71.67 L 96.49,67.843 L 90.123,67.843 L 90.466,66.056 L 97.936,56.778 L 101.097,56.778 L 99.4,65.757 L 101.256,65.757 L 100.862,67.844 L 99.012,67.844 L 98.278,71.671 L 95.758,71.671 L 95.758,71.67 z M 96.881,65.756 L 97.702,61.748 C 97.887,60.877 98.141,59.938 98.348,59.092 L 98.255,59.092 C 97.615,60.052 97.109,60.877 96.421,61.794 L 93.214,65.712 L 93.193,65.756 L 96.881,65.756 z "
   style="fill:white"
   id="path202" />

</g>
      <g
         transform="translate(45.58115,-31.86652)"
         id="g204">
	<path
   d="M 131.887,59.067 L 126.707,59.067 L 125.794,62.045 C 126.045,62.002 126.227,62.002 126.481,62.002 C 127.234,62.002 128.451,62.208 129.343,62.827 C 130.467,63.514 131.04,64.771 131.04,66.124 C 131.04,69.791 128.017,71.919 124.513,71.919 C 122.861,71.919 121.487,71.485 120.938,71.072 L 121.671,68.944 C 122.242,69.284 123.364,69.677 124.599,69.677 C 126.456,69.677 128.266,68.438 128.266,66.608 C 128.266,65.163 127.441,64.059 124.625,64.059 C 123.936,64.059 123.458,64.108 122.86,64.154 L 124.967,56.777 L 132.344,56.777 L 131.887,59.067 z "
   style="fill:white"
   id="path206" />

</g>
      <g
         transform="translate(45.58115,-31.86652)"
         id="g208">
	<path
   d="M 103.396,82.257 C 103.396,82.961 103.152,83.64 102.712,84.074 C 102.352,84.42 101.866,84.626 101.286,84.626 C 100.288,84.626 99.729,83.921 99.729,83.022 C 99.729,82.325 99.984,81.632 100.434,81.2 C 100.797,80.856 101.286,80.65 101.844,80.65 C 102.86,80.65 103.396,81.334 103.396,82.257 z M 101.082,81.627 C 100.775,81.936 100.603,82.534 100.603,82.993 C 100.603,83.537 100.848,83.942 101.411,83.942 C 101.65,83.942 101.878,83.834 102.057,83.661 C 102.36,83.357 102.525,82.725 102.525,82.279 C 102.525,81.8 102.353,81.334 101.749,81.334 C 101.488,81.334 101.261,81.448 101.082,81.627 z "
   style="fill:white"
   id="path210" />

	<path
   d="M 105.494,84.567 L 105.233,83.787 C 105.158,83.553 105.097,83.368 105.027,83.131 L 105.015,83.131 C 104.891,83.347 104.788,83.542 104.62,83.819 L 104.17,84.568 L 103.178,84.568 L 104.62,82.598 L 103.947,80.713 L 104.815,80.713 L 105.048,81.448 C 105.117,81.693 105.167,81.862 105.227,82.089 L 105.243,82.089 C 105.386,81.828 105.482,81.644 105.608,81.438 L 106.055,80.713 L 107.037,80.713 L 105.633,82.603 L 106.369,84.568 L 105.494,84.568 L 105.494,84.567 z "
   style="fill:white"
   id="path212" />

	<path
   d="M 107.658,84.567 L 107.956,82.993 L 107.204,80.713 L 108.087,80.713 L 108.331,81.693 C 108.4,82.011 108.439,82.192 108.482,82.387 L 108.493,82.387 C 108.607,82.181 108.721,81.964 108.884,81.683 L 109.463,80.712 L 110.446,80.712 L 108.781,82.977 L 108.482,84.567 L 107.658,84.567 L 107.658,84.567 z "
   style="fill:white"
   id="path214" />

	<path
   d="M 113.096,84.388 C 112.802,84.486 112.337,84.605 111.855,84.605 C 111.322,84.605 110.884,84.47 110.565,84.183 C 110.255,83.911 110.083,83.489 110.083,82.994 C 110.083,82.274 110.38,81.649 110.868,81.233 C 111.303,80.873 111.898,80.673 112.565,80.673 C 113.07,80.673 113.444,80.771 113.59,80.845 L 113.346,81.54 C 113.166,81.46 112.869,81.385 112.528,81.385 C 112.143,81.385 111.8,81.492 111.545,81.694 C 111.213,81.955 110.988,82.409 110.988,82.936 C 110.988,83.584 111.373,83.911 111.979,83.911 C 112.168,83.911 112.304,83.881 112.397,83.84 L 112.549,83.028 L 111.957,83.028 L 112.081,82.371 L 113.48,82.371 L 113.096,84.388 z "
   style="fill:white"
   id="path216" />

	<path
   d="M 116.262,82.93 L 114.892,82.93 L 114.717,83.861 L 116.252,83.861 L 116.121,84.568 L 113.763,84.568 L 114.493,80.714 L 116.772,80.714 L 116.636,81.417 L 115.183,81.417 L 115.026,82.242 L 116.397,82.242 L 116.262,82.93 z "
   style="fill:white"
   id="path218" />

	<path
   d="M 116.716,84.567 L 117.448,80.713 L 118.414,80.713 L 118.924,82.182 C 119.075,82.674 119.18,83.076 119.271,83.499 L 119.289,83.499 C 119.305,83.103 119.357,82.679 119.466,82.114 L 119.729,80.713 L 120.495,80.713 L 119.771,84.567 L 118.919,84.567 L 118.378,83.027 C 118.208,82.506 118.107,82.16 118.003,81.683 L 117.986,81.693 C 117.938,82.068 117.846,82.609 117.731,83.217 L 117.482,84.567 L 116.716,84.567 L 116.716,84.567 z "
   style="fill:white"
   id="path220" />

</g>
    </g>
    <g
       transform="translate(34.03205,2.263521)"
       id="g2991">
      <g
         transform="translate(-72.12698,42.66667)"
         id="g2985">
        <path
           d="M 56.756148,53.909484 C 49.968148,58.302484 45.581148,65.090484 45.581148,71.202484 L 45.581148,71.202484 C 45.581148,73.460484 46.162148,75.504484 47.309148,77.276484 C 48.964148,79.835484 51.621148,81.569484 54.994148,82.292484 C 60.278148,83.424484 66.821148,81.906484 72.496148,78.237484 C 78.152148,74.577484 82.208148,69.220484 83.347148,63.907484 C 84.070148,60.533484 83.585148,57.408484 81.944148,54.870484 C 80.288148,52.311484 77.631148,50.577484 74.259148,49.854484 C 68.975148,48.721484 62.433148,50.237484 56.756148,53.909484 z "
           style="opacity:0.1;fill:#1a171b"
           id="path222" />
        <path
           d="M 57.300148,54.749484 L 57.300148,54.749484 C 50.788148,58.962484 46.581148,65.420484 46.581148,71.202484 C 46.581148,73.264484 47.108148,75.125484 48.148148,76.733484 C 49.656148,79.064484 52.095148,80.648484 55.203148,81.314484 C 60.235148,82.392484 66.494148,80.929484 71.953148,77.397484 C 77.391148,73.878484 81.285148,68.757484 82.370148,63.697484 C 83.037148,60.588484 82.599148,57.724484 81.104148,55.413484 C 79.596148,53.082484 77.157148,51.498484 74.050148,50.832484 C 69.021148,49.753484 62.758148,51.218484 57.300148,54.749484 z "
           style="opacity:0.15;fill:#1a171b"
           id="path224" />
        <path
           d="M 57.843148,55.589484 C 51.423148,59.742484 47.581148,65.927484 47.581148,71.202484 C 47.581148,73.012484 48.033148,74.714484 48.988148,76.190484 C 50.349148,78.294484 52.571148,79.727484 55.412148,80.336484 C 60.189148,81.359484 66.168148,79.946484 71.409148,76.557484 C 80.032148,70.979484 84.004148,61.737484 80.263148,55.955484 C 78.902148,53.851484 76.681148,52.418484 73.839148,51.809484 C 69.063148,50.785484 63.083148,52.199484 57.843148,55.589484 z "
           style="opacity:0.2;fill:#1a171b"
           id="path226" />
        <ellipse
           cx="19.045"
           cy="97.940002"
           rx="17.625"
           ry="11.487"
           transform="matrix(-0.8396,0.5432,-0.5432,-0.8396,133.8189,137.9585)"
           style="opacity:0.25;fill:#1a171b"
           id="ellipse228" />
      </g>
      <g
         transform="matrix(1.007604,0,0,1.007604,-28.99493,-1.853877)"
         id="g2739">
        <path
           d="M 34.439,0 C 34.439,0 34.439,88.512 34.439,92.339 C 29.198,88.818 20.619,88.272 13.043,92.745 C 7.204,96.193 2.87,101.465 1.453,106.845 C 0.568,110.199 0.868,113.358 2.321,115.979 C 6.212,123 17.353,124.002 27.158,118.212 C 33.915,114.227 38.511,107.949 39.15,101.831 L 39.166,101.593 C 39.205,101.206 39.227,100.801 39.227,100.393 C 39.227,99.969 39.206,99.542 39.161,99.128 C 39.161,99.128 39.167,36.333 39.167,33.366 C 47.091,37.04 52.3,42.44 54.587,49.481 C 55.558,52.467 55.948,55.562 55.948,58.612 C 55.948,71.235 49.243,83.079 49.159,83.227 L 50.677,84.444 C 59.622,75.21 63.318,64.594 63.318,55.769 C 63.318,39.55 52.359,26.998 49.33,23.371 C 44.488,17.572 40.924,11.277 39.168,7.906 C 39.168,7.431 39.168,0.001 39.168,0.001 L 34.439,0.001 L 34.439,0 z "
           style="fill:url(#linearGradient3406)"
           id="path20" />
        <path
           d="M 47.619,23.884 C 42.543,17.948 39.98,10.719 38.094,7.16 L 38.094,1 C 38.094,1 37.799,1.323 36.52,1.323 C 35.238,1.323 35.238,1 35.238,1 L 35.238,92.338 C 29.659,88.737 21.246,88.738 12.833,92.613 C 3.259,98.136 -0.503,108.544 2.226,114.482 C 5.374,121.333 16.721,121.869 26.3,116.343 C 33.134,112.405 37.488,106.287 38.084,100.723 L 38.094,100.723 L 38.094,100.592 C 38.172,99.797 38.178,99.003 38.094,98.238 L 38.094,30.812 C 72.438,44.965 50.168,82.736 50.168,82.736 C 75.539,57.151 52.291,29.347 47.619,23.884 z "
           style="fill:url(#linearGradient3408)"
           id="path29" />
        <path
           d="M 12.931,93.614 C 21.414,88.762 30.819,88.818 35.525,93.339 L 35.525,92.339 C 30.818,87.818 21.414,87.763 12.931,92.614 C 5.352,96.949 0.793,103.911 0.986,109.875 C 1.299,104.147 5.772,97.708 12.931,93.614 z "
           style="fill:url(#linearGradient3410)"
           id="path36" />
        <path
           d="M 26.858,112.966 C 18.212,117.91 8.487,117.165 5.132,111.3 C 3.482,108.416 3.688,104.83 5.345,101.342 C 2.361,105.673 1.525,110.464 3.63,114.146 C 7.078,120.173 17.074,120.939 25.959,115.858 C 32.16,112.314 36.151,106.853 36.838,101.826 C 35.402,105.953 31.868,110.104 26.858,112.966 z "
           style="fill:url(#linearGradient3412)"
           id="path45" />
        <path
           d="M 17.849,92.843 C 11.992,95.073 7.918,100.394 8.954,104.458 C 9.986,108.52 15.81,110.066 21.669,107.836 C 25.867,106.235 29.283,102.997 30.372,99.594 C 30.351,99.663 30.338,99.739 30.321,99.81 L 30.341,99.717 C 30.356,99.649 30.375,99.582 30.393,99.517 C 30.463,99.29 30.522,99.071 30.568,98.854 C 30.615,98.645 30.65,98.447 30.673,98.252 C 30.682,98.174 30.696,98.096 30.712,98.023 C 30.712,98.023 31.149,96.017 31.192,95.828 C 30.729,95.73 30.317,95.437 30.052,94.983 C 28.218,91.809 22.972,90.89 17.849,92.843 z "
           style="fill:url(#radialGradient3414)"
           id="path54" />
        <path
           d="M 46.619,23.884 C 50.402,28.478 66.066,50.518 56.433,72.294 C 67.894,49.85 51.423,27.751 47.527,23.024 C 42.64,17.088 39.091,11.719 37.273,8.16 C 37.273,8.16 41.728,17.947 46.619,23.884 z "
           style="fill:url(#radialGradient3416)"
           id="path71" />
        <path
           d="M 45.25,23.952 C 40.246,17.817 39.191,13.689 38.016,11.961 C 38.016,31.117 44.25,30.889 38.526,29.789 C 48.682,35.012 56.487,42.209 59.464,49.844 C 56.125,37.275 49.468,29.123 45.25,23.952 z "
           style="fill:url(#radialGradient3418)"
           id="path90" />
      </g>
    </g>
  </g>
</svg>
