<?xml version="1.0" encoding="UTF-8" standalone="no"?>
<!-- Created with Inkscape (http://www.inkscape.org/) -->
<svg
   xmlns:dc="http://purl.org/dc/elements/1.1/"
   xmlns:cc="http://web.resource.org/cc/"
   xmlns:rdf="http://www.w3.org/1999/02/22-rdf-syntax-ns#"
   xmlns:svg="http://www.w3.org/2000/svg"
   xmlns="http://www.w3.org/2000/svg"
   xmlns:xlink="http://www.w3.org/1999/xlink"
   xmlns:sodipodi="http://sodipodi.sourceforge.net/DTD/sodipodi-0.dtd"
   xmlns:inkscape="http://www.inkscape.org/namespaces/inkscape"
   width="128"
   height="128"
   id="svg2606"
   sodipodi:version="0.32"
   inkscape:version="0.45.1"
   version="1.0"
   sodipodi:docname="source_c3.svg"
   inkscape:output_extension="org.inkscape.output.svg.inkscape"
   sodipodi:docbase="/home/me/KDE_SVN/trunk/playground/artwork/Oxygen/davigno"
   inkscape:export-filename="/home/me/KDE_SVN/trunk/playground/artwork/Oxygen/davigno/source_c35.png"
   inkscape:export-xdpi="45"
   inkscape:export-ydpi="45">
  <defs
     id="defs2608">
    <linearGradient
       id="linearGradient3216">
      <stop
         style="stop-color:#000000;stop-opacity:1;"
         offset="0"
         id="stop3218" />
      <stop
         style="stop-color:#000000;stop-opacity:0;"
         offset="1"
         id="stop3220" />
    </linearGradient>
    <linearGradient
       id="linearGradient3204">
      <stop
         style="stop-color:#000000;stop-opacity:0;"
         offset="0"
         id="stop3206" />
      <stop
         id="stop3212"
         offset="0.25"
         style="stop-color:#000000;stop-opacity:0.70588237;" />
      <stop
         id="stop3210"
         offset="0.5"
         style="stop-color:#000000;stop-opacity:1;" />
      <stop
         style="stop-color:#000000;stop-opacity:0.70588237;"
         offset="0.75"
         id="stop3214" />
      <stop
         style="stop-color:#000000;stop-opacity:0;"
         offset="1"
         id="stop3208" />
    </linearGradient>
    <linearGradient
       id="linearGradient10207">
      <stop
         style="stop-color:#a2a2a2;stop-opacity:1;"
         offset="0"
         id="stop10209" />
      <stop
         style="stop-color:#ffffff;stop-opacity:1;"
         offset="1"
         id="stop10211" />
    </linearGradient>
    <linearGradient
       id="XMLID_12_"
       gradientUnits="userSpaceOnUse"
       x1="96"
       y1="104"
       x2="88.000198"
       y2="96.000198">
      <stop
         offset="0"
         style="stop-color:#888A85"
         id="stop83" />
      <stop
         offset="0.0072"
         style="stop-color:#8C8E89"
         id="stop85" />
      <stop
         offset="0.0673"
         style="stop-color:#ABACA9"
         id="stop87" />
      <stop
         offset="0.1347"
         style="stop-color:#C5C6C4"
         id="stop89" />
      <stop
         offset="0.2652576"
         style="stop-color:#DBDBDA"
         id="stop91" />
      <stop
         offset="0.37646064"
         style="stop-color:#EBEBEB"
         id="stop93" />
      <stop
         offset="0.48740286"
         style="stop-color:#F7F7F6"
         id="stop95" />
      <stop
         offset="0.6324091"
         style="stop-color:#FDFDFD"
         id="stop97" />
      <stop
         offset="1"
         style="stop-color:#FFFFFF"
         id="stop99" />
    </linearGradient>
    <radialGradient
       id="XMLID_8_"
       cx="102"
       cy="112.3047"
       r="139.55859"
       gradientUnits="userSpaceOnUse">
      <stop
         offset="0"
         style="stop-color:#b7b8b9;stop-opacity:1;"
         id="stop41" />
      <stop
         offset="0.18851049"
         style="stop-color:#ECECEC"
         id="stop47" />
      <stop
         offset="0.25718147"
         style="stop-color:#FAFAFA"
         id="stop49" />
      <stop
         offset="0.30111277"
         style="stop-color:#FFFFFF"
         id="stop51" />
      <stop
         offset="0.5313"
         style="stop-color:#FAFAFA"
         id="stop53" />
      <stop
         offset="0.8449"
         style="stop-color:#EBECEC"
         id="stop55" />
      <stop
         offset="1"
         style="stop-color:#E1E2E3"
         id="stop57" />
    </radialGradient>
    <filter
       inkscape:collect="always"
       x="-0.19200002"
       width="1.3839999"
       y="-0.19199999"
       height="1.3839999"
       id="filter6697">
      <feGaussianBlur
         inkscape:collect="always"
         stdDeviation="1.9447689"
         id="feGaussianBlur6699" />
    </filter>
    <clipPath
       clipPathUnits="userSpaceOnUse"
       id="clipPath7084">
      <path
         style="fill:#000000;fill-opacity:1;fill-rule:evenodd;stroke:none;stroke-width:1px;stroke-linecap:butt;stroke-linejoin:miter;stroke-opacity:1"
         d="M 72,88 L 40,120 L 32,120 L 32,80 L 72,80 L 72,88 z"
         id="path7086" />
    </clipPath>
    <radialGradient
       inkscape:collect="always"
       xlink:href="#XMLID_8_"
       id="radialGradient9437"
       gradientUnits="userSpaceOnUse"
       gradientTransform="matrix(1,0,0,0.9996653,2e-6,3.0160848e-3)"
       cx="102"
       cy="112.3047"
       r="139.55859" />
    <linearGradient
       inkscape:collect="always"
       xlink:href="#linearGradient10207"
       id="linearGradient10213"
       x1="98.617439"
       y1="106.41443"
       x2="91.228737"
       y2="99.254974"
       gradientUnits="userSpaceOnUse"
       gradientTransform="translate(10,0)" />
    <filter
       inkscape:collect="always"
       id="filter2770">
      <feGaussianBlur
         inkscape:collect="always"
         stdDeviation="2.0786429"
         id="feGaussianBlur2772" />
    </filter>
    <linearGradient
       inkscape:collect="always"
       xlink:href="#linearGradient3216"
       id="linearGradient3222"
       x1="89.402939"
       y1="26.192825"
       x2="109.28223"
       y2="26.192825"
       gradientUnits="userSpaceOnUse" />
    <linearGradient
       inkscape:collect="always"
       xlink:href="#linearGradient3216"
       id="linearGradient3255"
       x1="96.093086"
       y1="74.796387"
       x2="109.25262"
       y2="74.796387"
       gradientUnits="userSpaceOnUse"
       gradientTransform="translate(0,-16)" />
    <linearGradient
       inkscape:collect="always"
       xlink:href="#linearGradient3216"
       id="linearGradient3285"
       gradientUnits="userSpaceOnUse"
       x1="89.402939"
       y1="26.192825"
       x2="109.28223"
       y2="26.192825"
       gradientTransform="translate(0,-3)" />
    <linearGradient
       inkscape:collect="always"
       xlink:href="#linearGradient3216"
       id="linearGradient3327"
       gradientUnits="userSpaceOnUse"
       gradientTransform="translate(0,-16)"
       x1="96.093086"
       y1="74.796387"
       x2="109.25262"
       y2="74.796387" />
    <linearGradient
       inkscape:collect="always"
       xlink:href="#linearGradient10207"
       id="linearGradient3333"
       gradientUnits="userSpaceOnUse"
       gradientTransform="translate(10,0)"
       x1="98.617439"
       y1="106.41443"
       x2="91.228737"
       y2="99.254974" />
  </defs>
  <sodipodi:namedview
     id="base"
     pagecolor="#ffffff"
     bordercolor="#666666"
     borderopacity="1.0"
     inkscape:pageopacity="0.0"
     inkscape:pageshadow="2"
     inkscape:zoom="4"
     inkscape:cx="61.382413"
     inkscape:cy="62.588957"
     inkscape:document-units="px"
     inkscape:current-layer="layer1"
     width="128px"
     height="128px"
     gridspacingx="4px"
     gridspacingy="4px"
     gridempspacing="2"
     showgrid="true"
     inkscape:grid-points="true"
     showguides="true"
     inkscape:guide-bbox="true"
     inkscape:window-width="1016"
     inkscape:window-height="692"
     inkscape:window-x="242"
     inkscape:window-y="125" />
  <metadata
     id="metadata2611">
    <rdf:RDF>
      <cc:Work
         rdf:about="">
        <dc:format>image/svg+xml</dc:format>
        <dc:type
           rdf:resource="http://purl.org/dc/dcmitype/StillImage" />
      </cc:Work>
    </rdf:RDF>
  </metadata>
  <g
     inkscape:label="Livello 1"
     inkscape:groupmode="layer"
     id="layer1">
    <path
       style="opacity:0.5;fill:#000000;fill-opacity:1;filter:url(#filter2770)"
       d="M 16,8 L 16,120 C 16,120 79.15625,120 79.15625,120 L 79.1875,120 C 79.187503,120 91.09375,110.09375 96.59375,104.59375 C 102.09375,99.09375 112,87.1875 112,87.1875 L 112,87.15625 L 112,8 L 16,8 z"
       id="path7865"
       sodipodi:nodetypes="csccscccc"
       transform="matrix(1.0416667,0,0,1.0267857,-2.6666667,-1.2142891)" />
    <path
       style="fill:#ffffff;fill-opacity:1"
       d="M 16.000001,8 L 16,120 C 16,120 79.146418,120 79.146418,120 L 112,87.14642 L 112,8 L 16.000001,8 z"
       id="path34"
       sodipodi:nodetypes="cccccc" />
    <path
       style="fill:url(#radialGradient9437);fill-opacity:1"
       d="M 18.000002,9.0000034 C 17.449002,9.0000034 17.000002,9.4488534 17.000002,9.9996684 L 17.000002,117.96352 C 17.000002,118.51533 17.449002,118.96318 18.000002,118.96318 L 77.171999,118.96318 C 77.434999,118.96318 79.934679,119.08131 80.12068,118.89438 L 110.707,88.094202 C 110.894,87.907264 111,85.40942 111,85.146508 L 111,9.9996684 C 111,9.4488534 110.552,9.0000034 110,9.0000034 L 18.000002,9.0000034 z "
       id="path59"
       sodipodi:nodetypes="ccccccccccc"
       transform="translate(-1.5,0)" />
    <text
       xml:space="preserve"
       style="font-size:6px;font-style:normal;font-weight:normal;opacity:0.6;fill:url(#linearGradient3285);fill-opacity:1;stroke:none;stroke-width:1px;stroke-linecap:butt;stroke-linejoin:miter;stroke-opacity:1;font-family:Bitstream Vera Sans"
       x="23.516602"
       y="20.261185"
       id="text4154"><tspan
         sodipodi:role="line"
         id="tspan4156"
         x="23.516602"
         y="20.261185"
         style="font-size:5px;font-weight:normal;fill:url(#linearGradient3285);fill-opacity:1;font-family:Liberation Mono">#include &lt;stdio.h&gt;</tspan><tspan
         sodipodi:role="line"
         x="23.516602"
         y="26.511185"
         style="font-size:5px;font-weight:normal;fill:url(#linearGradient3285);fill-opacity:1;font-family:Liberation Mono"
         id="tspan4175" /><tspan
         sodipodi:role="line"
         x="23.516602"
         y="32.761185"
         style="font-size:5px;font-weight:normal;fill:url(#linearGradient3285);fill-opacity:1;font-family:Liberation Mono"
         id="tspan4177">void main(int argc, char</tspan><tspan
         sodipodi:role="line"
         x="23.516602"
         y="39.011185"
         id="tspan4158"
         style="font-size:5px;font-weight:normal;fill:url(#linearGradient3285);fill-opacity:1;font-family:Liberation Mono">{</tspan><tspan
         sodipodi:role="line"
         x="23.516602"
         y="45.261185"
         style="font-size:5px;font-weight:normal;fill:url(#linearGradient3285);fill-opacity:1;font-family:Liberation Mono"
         id="tspan4161">  int i;</tspan><tspan
         sodipodi:role="line"
         x="23.516602"
         y="51.511185"
         style="font-size:5px;font-weight:normal;fill:url(#linearGradient3285);fill-opacity:1;font-family:Liberation Mono"
         id="tspan4165">  for (i=0; i=&lt;100; i++) </tspan><tspan
         sodipodi:role="line"
         x="23.516602"
         y="57.761185"
         style="font-size:5px;font-weight:normal;fill:url(#linearGradient3285);fill-opacity:1;font-family:Liberation Mono"
         id="tspan4173">  {</tspan><tspan
         sodipodi:role="line"
         x="23.516602"
         y="64.011185"
         style="font-size:5px;font-weight:normal;fill:url(#linearGradient3285);fill-opacity:1;font-family:Liberation Mono"
         id="tspan4169">    printf(&quot;Hello World!&quot;;</tspan><tspan
         sodipodi:role="line"
         x="23.516602"
         y="70.261185"
         style="font-size:5px;font-weight:normal;fill:url(#linearGradient3285);fill-opacity:1;font-family:Liberation Mono"
         id="tspan4171">  }</tspan><tspan
         sodipodi:role="line"
         x="23.516602"
         y="76.511185"
         style="font-size:5px;font-weight:normal;fill:url(#linearGradient3285);fill-opacity:1;font-family:Liberation Mono"
         id="tspan4181">  if (i = 100)</tspan><tspan
         sodipodi:role="line"
         x="23.516602"
         y="82.761185"
         style="font-size:5px;font-weight:normal;fill:url(#linearGradient3285);fill-opacity:1;font-family:Liberation Mono"
         id="tspan4183">  {</tspan><tspan
         sodipodi:role="line"
         x="23.516602"
         y="89.011185"
         style="font-size:5px;font-weight:normal;fill:url(#linearGradient3285);fill-opacity:1;font-family:Liberation Mono"
         id="tspan4189">    printf(&quot;Oxygen r</tspan><tspan
         sodipodi:role="line"
         x="23.516602"
         y="95.261185"
         style="font-size:5px;font-weight:normal;fill:url(#linearGradient3285);fill-opacity:1;font-family:Liberation Mono"
         id="tspan4199">    if (rocks)</tspan><tspan
         sodipodi:role="line"
         x="23.516602"
         y="101.51118"
         style="font-size:5px;font-weight:normal;fill:url(#linearGradient3285);fill-opacity:1;font-family:Liberation Mono"
         id="tspan4203">    {</tspan><tspan
         sodipodi:role="line"
         x="23.516602"
         y="107.76118"
         style="font-size:5px;font-weight:normal;fill:url(#linearGradient3285);fill-opacity:1;font-family:Liberation Mono"
         id="tspan4205">      printf(&quot;It does r</tspan><tspan
         sodipodi:role="line"
         x="23.516602"
         y="114.01118"
         style="font-size:5px;font-weight:normal;fill:url(#linearGradient3285);fill-opacity:1;font-family:Liberation Mono"
         id="tspan4209">    }</tspan></text>
    <path
       style="font-size:5.02191591px;font-style:normal;font-weight:normal;fill:#0f92e9;fill-opacity:1;stroke:none;stroke-width:1px;stroke-linecap:butt;stroke-linejoin:miter;stroke-opacity:1;font-family:Bitstream Vera Sans"
       d="M 65.831723,85.759999 C 68.273984,85.760009 70.37789,85.421618 72.143447,84.744827 C 73.938347,84.038631 75.483173,83.126448 76.77793,82.008275 C 78.102021,80.890128 79.190755,79.624842 80.044137,78.212413 C 80.926846,76.800017 81.647764,75.372892 82.206896,73.931033 L 93.550344,78.212413 C 92.638099,80.448749 91.446376,82.640931 89.975172,84.788965 C 88.50385,86.937019 86.664771,88.834948 84.45793,90.482758 C 82.250982,92.130577 79.617422,93.469426 76.557241,94.49931 C 73.526393,95.499769 69.951224,95.999999 65.831723,96 C 60.446865,95.999999 55.782962,95.205517 51.839998,93.616551 C 47.896993,91.998163 44.630789,89.761844 42.041377,86.907585 C 39.481369,84.023918 37.568727,80.610588 36.303446,76.667585 C 35.06758,72.724619 34.449649,68.413819 34.449653,63.735171 C 34.449649,58.880035 35.06758,54.495671 36.303446,50.582067 C 37.568727,46.668552 39.466656,43.343498 41.997239,40.606894 C 44.5278,37.840975 47.720441,35.722356 51.575171,34.251032 C 55.459284,32.750405 60.020199,32.000061 65.25793,31.999998 C 69.318581,32.000061 72.864325,32.426727 75.895172,33.279998 C 78.955353,34.133392 81.588914,35.339828 83.795861,36.899308 C 86.032128,38.42948 87.871207,40.253846 89.313103,42.372412 C 90.784307,44.461658 91.931892,46.771541 92.755862,49.302067 L 81.279999,52.43586 C 80.867995,51.111766 80.235352,49.84648 79.382068,48.639998 C 78.528687,47.404184 77.439952,46.315449 76.115861,45.373791 C 74.821104,44.432233 73.290991,43.681888 71.525516,43.122757 C 69.75996,42.534303 67.759042,42.240051 65.522757,42.239998 C 62.37422,42.240051 59.667096,42.754993 57.401378,43.784826 C 55.135606,44.785336 53.267102,46.227173 51.79586,48.110343 C 50.354002,49.993607 49.27998,52.259351 48.573791,54.907585 C 47.896993,57.526473 47.558602,60.468999 47.558619,63.735171 C 47.558602,66.971981 47.896993,69.943932 48.573791,72.651033 C 49.27998,75.328754 50.368714,77.638637 51.839998,79.580689 C 53.31124,81.522771 55.194457,83.038172 57.489654,84.126896 C 59.814222,85.215641 62.594909,85.760009 65.831723,85.759999"
       id="text2209" />
    <g
       id="g3329"
       transform="translate(-10,0)">
      <path
         transform="translate(50,0)"
         clip-path="url(#clipPath7084)"
         sodipodi:nodetypes="cccc"
         style="opacity:0.4;fill:#000000;fill-opacity:1;filter:url(#filter6697)"
         id="path5540"
         d="M 41.879531,115.98249 C 41.879531,115.98249 66.18914,91.672876 66.18914,91.672876 C 66.18914,91.672876 56.836,94.586 46.586,94.586 C 46.586,104.836 41.879531,115.98249 41.879531,115.98249 z " />
      <path
         sodipodi:nodetypes="csccc"
         d="M 89.172,120 C 89.172,120 101.086,110.086 106.586,104.586 C 112.086,99.086 122,87.172 122,87.172 C 122,87.172 108.25,96 98,96 C 98,106.25 89.172,120 89.172,120 z "
         id="path14523"
         style="fill:url(#linearGradient3333);fill-opacity:1" />
    </g>
  </g>
</svg>
