<?xml version="1.0" encoding="UTF-8" standalone="no"?>
<!-- Created with Inkscape (http://www.inkscape.org/) -->
<svg
   xmlns:dc="http://purl.org/dc/elements/1.1/"
   xmlns:cc="http://web.resource.org/cc/"
   xmlns:rdf="http://www.w3.org/1999/02/22-rdf-syntax-ns#"
   xmlns:svg="http://www.w3.org/2000/svg"
   xmlns="http://www.w3.org/2000/svg"
   xmlns:xlink="http://www.w3.org/1999/xlink"
   xmlns:sodipodi="http://sodipodi.sourceforge.net/DTD/sodipodi-0.dtd"
   xmlns:inkscape="http://www.inkscape.org/namespaces/inkscape"
   width="128"
   height="128"
   id="svg2606"
   sodipodi:version="0.32"
   inkscape:version="0.45.1"
   version="1.0"
   sodipodi:docname="source_cpp7.svg"
   inkscape:output_extension="org.inkscape.output.svg.inkscape"
   sodipodi:docbase="/home/me/KDE_SVN/trunk/playground/artwork/Oxygen/davigno"
   inkscape:export-filename="/home/me/KDE_SVN/trunk/playground/artwork/Oxygen/davigno/source_cpp7.png"
   inkscape:export-xdpi="45"
   inkscape:export-ydpi="45">
  <defs
     id="defs2608">
    <linearGradient
       inkscape:collect="always"
       id="linearGradient3206">
      <stop
         style="stop-color:#000000;stop-opacity:1;"
         offset="0"
         id="stop3208" />
      <stop
         style="stop-color:#000000;stop-opacity:0;"
         offset="1"
         id="stop3210" />
    </linearGradient>
    <linearGradient
       id="linearGradient10207">
      <stop
         style="stop-color:#a2a2a2;stop-opacity:1;"
         offset="0"
         id="stop10209" />
      <stop
         style="stop-color:#ffffff;stop-opacity:1;"
         offset="1"
         id="stop10211" />
    </linearGradient>
    <linearGradient
       id="XMLID_12_"
       gradientUnits="userSpaceOnUse"
       x1="96"
       y1="104"
       x2="88.000198"
       y2="96.000198">
      <stop
         offset="0"
         style="stop-color:#888A85"
         id="stop83" />
      <stop
         offset="0.0072"
         style="stop-color:#8C8E89"
         id="stop85" />
      <stop
         offset="0.0673"
         style="stop-color:#ABACA9"
         id="stop87" />
      <stop
         offset="0.1347"
         style="stop-color:#C5C6C4"
         id="stop89" />
      <stop
         offset="0.2652576"
         style="stop-color:#DBDBDA"
         id="stop91" />
      <stop
         offset="0.37646064"
         style="stop-color:#EBEBEB"
         id="stop93" />
      <stop
         offset="0.48740286"
         style="stop-color:#F7F7F6"
         id="stop95" />
      <stop
         offset="0.6324091"
         style="stop-color:#FDFDFD"
         id="stop97" />
      <stop
         offset="1"
         style="stop-color:#FFFFFF"
         id="stop99" />
    </linearGradient>
    <radialGradient
       id="XMLID_8_"
       cx="102"
       cy="112.3047"
       r="139.55859"
       gradientUnits="userSpaceOnUse">
      <stop
         offset="0"
         style="stop-color:#b7b8b9;stop-opacity:1;"
         id="stop41" />
      <stop
         offset="0.18851049"
         style="stop-color:#ECECEC"
         id="stop47" />
      <stop
         offset="0.25718147"
         style="stop-color:#FAFAFA"
         id="stop49" />
      <stop
         offset="0.30111277"
         style="stop-color:#FFFFFF"
         id="stop51" />
      <stop
         offset="0.5313"
         style="stop-color:#FAFAFA"
         id="stop53" />
      <stop
         offset="0.8449"
         style="stop-color:#EBECEC"
         id="stop55" />
      <stop
         offset="1"
         style="stop-color:#E1E2E3"
         id="stop57" />
    </radialGradient>
    <filter
       inkscape:collect="always"
       x="-0.19200002"
       width="1.3839999"
       y="-0.19199999"
       height="1.3839999"
       id="filter6697">
      <feGaussianBlur
         inkscape:collect="always"
         stdDeviation="1.9447689"
         id="feGaussianBlur6699" />
    </filter>
    <clipPath
       clipPathUnits="userSpaceOnUse"
       id="clipPath7084">
      <path
         style="fill:#000000;fill-opacity:1;fill-rule:evenodd;stroke:none;stroke-width:1px;stroke-linecap:butt;stroke-linejoin:miter;stroke-opacity:1"
         d="M 72,88 L 40,120 L 32,120 L 32,80 L 72,80 L 72,88 z"
         id="path7086" />
    </clipPath>
    <radialGradient
       inkscape:collect="always"
       xlink:href="#XMLID_8_"
       id="radialGradient9437"
       gradientUnits="userSpaceOnUse"
       gradientTransform="matrix(1,0,0,0.9996653,2e-6,3.0160848e-3)"
       cx="102"
       cy="112.3047"
       r="139.55859" />
    <linearGradient
       inkscape:collect="always"
       xlink:href="#linearGradient10207"
       id="linearGradient10213"
       x1="98.617439"
       y1="106.41443"
       x2="91.228737"
       y2="99.254974"
       gradientUnits="userSpaceOnUse" />
    <filter
       inkscape:collect="always"
       id="filter2770">
      <feGaussianBlur
         inkscape:collect="always"
         stdDeviation="2.0786429"
         id="feGaussianBlur2772" />
    </filter>
    <linearGradient
       inkscape:collect="always"
       xlink:href="#linearGradient3206"
       id="linearGradient3212"
       x1="79.96946"
       y1="64.425735"
       x2="107.12988"
       y2="64.425735"
       gradientUnits="userSpaceOnUse" />
  </defs>
  <sodipodi:namedview
     id="base"
     pagecolor="#ffffff"
     bordercolor="#666666"
     borderopacity="1.0"
     inkscape:pageopacity="0.0"
     inkscape:pageshadow="2"
     inkscape:zoom="5.4027377"
     inkscape:cx="111.7138"
     inkscape:cy="60.746105"
     inkscape:document-units="px"
     inkscape:current-layer="layer1"
     width="128px"
     height="128px"
     gridspacingx="4px"
     gridspacingy="4px"
     gridempspacing="2"
     showgrid="true"
     inkscape:grid-points="true"
     showguides="true"
     inkscape:guide-bbox="true"
     inkscape:window-width="1276"
     inkscape:window-height="942"
     inkscape:window-x="0"
     inkscape:window-y="30" />
  <metadata
     id="metadata2611">
    <rdf:RDF>
      <cc:Work
         rdf:about="">
        <dc:format>image/svg+xml</dc:format>
        <dc:type
           rdf:resource="http://purl.org/dc/dcmitype/StillImage" />
      </cc:Work>
    </rdf:RDF>
  </metadata>
  <g
     inkscape:label="Livello 1"
     inkscape:groupmode="layer"
     id="layer1">
    <path
       style="opacity:0.5;fill:#000000;fill-opacity:1;filter:url(#filter2770)"
       d="M 16,8 L 16,120 C 16,120 79.15625,120 79.15625,120 L 79.1875,120 C 79.187503,120 91.09375,110.09375 96.59375,104.59375 C 102.09375,99.09375 112,87.1875 112,87.1875 L 112,87.15625 L 112,8 L 16,8 z"
       id="path7865"
       sodipodi:nodetypes="csccscccc"
       transform="matrix(1.0416667,0,0,1.0267857,-2.6666667,-1.2142891)" />
    <path
       style="fill:#ffffff;fill-opacity:1"
       d="M 16.000001,8 L 16,120 C 16,120 79.146418,120 79.146418,120 L 112,87.14642 L 112,8 L 16.000001,8 z"
       id="path34"
       sodipodi:nodetypes="cccccc" />
    <path
       style="fill:url(#radialGradient9437);fill-opacity:1"
       d="M 18.000002,9.0000034 C 17.449002,9.0000034 17.000002,9.4488534 17.000002,9.9996684 L 17.000002,117.96352 C 17.000002,118.51533 17.449002,118.96318 18.000002,118.96318 L 77.171999,118.96318 C 77.434999,118.96318 79.934679,119.08131 80.12068,118.89438 L 110.707,88.094202 C 110.894,87.907264 111,85.40942 111,85.146508 L 111,9.9996684 C 111,9.4488534 110.552,9.0000034 110,9.0000034 L 18.000002,9.0000034 z"
       id="path59"
       sodipodi:nodetypes="ccccccccccc" />
    <path
       d="M 41.879531,115.98249 C 41.879531,115.98249 66.18914,91.672876 66.18914,91.672876 C 66.18914,91.672876 56.836,94.586 46.586,94.586 C 46.586,104.836 41.879531,115.98249 41.879531,115.98249 z"
       id="path5540"
       style="opacity:0.4;fill:#000000;fill-opacity:1;filter:url(#filter6697)"
       sodipodi:nodetypes="cccc"
       clip-path="url(#clipPath7084)"
       transform="translate(40,0)" />
    <text
       xml:space="preserve"
       style="font-size:4px;font-style:normal;font-weight:normal;opacity:0.6;fill:url(#linearGradient3212);fill-opacity:1;stroke:none;stroke-width:1px;stroke-linecap:butt;stroke-linejoin:miter;stroke-opacity:1;font-family:Bitstream Vera Sans"
       x="23.516602"
       y="23.261185"
       id="text4154"
       transform="translate(0.3701827,-3.6381378)"><tspan
         sodipodi:role="line"
         id="tspan4156"
         x="23.516602"
         y="23.261185"
         style="font-size:5px;font-weight:normal;fill:url(#linearGradient3212);fill-opacity:1;font-family:Liberation Mono">#include &lt;iostream&gt;</tspan><tspan
         sodipodi:role="line"
         x="23.516602"
         y="29.511185"
         style="font-size:5px;font-weight:normal;fill:url(#linearGradient3212);fill-opacity:1;font-family:Liberation Mono"
         id="tspan2199" /><tspan
         sodipodi:role="line"
         x="23.516602"
         y="35.761185"
         style="font-size:5px;font-weight:normal;fill:url(#linearGradient3212);fill-opacity:1;font-family:Liberation Mono"
         id="tspan3216">class Oxygen {</tspan><tspan
         sodipodi:role="line"
         x="23.516602"
         y="42.011185"
         style="font-size:5px;font-weight:normal;fill:url(#linearGradient3212);fill-opacity:1;font-family:Liberation Mono"
         id="tspan3218">public:</tspan><tspan
         sodipodi:role="line"
         x="23.516602"
         y="48.261185"
         style="font-size:5px;font-weight:normal;fill:url(#linearGradient3212);fill-opacity:1;font-family:Liberation Mono"
         id="tspan3222">  void sayHiToAll();</tspan><tspan
         sodipodi:role="line"
         x="23.516602"
         y="54.511185"
         style="font-size:5px;font-weight:normal;fill:url(#linearGradient3212);fill-opacity:1;font-family:Liberation Mono"
         id="tspan3220">};</tspan><tspan
         sodipodi:role="line"
         x="23.516602"
         y="60.761185"
         style="font-size:5px;font-weight:normal;fill:url(#linearGradient3212);fill-opacity:1;font-family:Liberation Mono"
         id="tspan2201" /><tspan
         sodipodi:role="line"
         x="23.516602"
         y="67.011185"
         style="font-size:5px;font-weight:normal;fill:url(#linearGradient3212);fill-opacity:1;font-family:Liberation Mono"
         id="tspan3214">int main(int argc, char **argv</tspan><tspan
         sodipodi:role="line"
         x="23.516602"
         y="73.261185"
         style="font-size:5px;font-weight:normal;fill:url(#linearGradient3212);fill-opacity:1;font-family:Liberation Mono"
         id="tspan2209">{</tspan><tspan
         sodipodi:role="line"
         x="23.516602"
         y="79.511185"
         style="font-size:5px;font-weight:normal;fill:url(#linearGradient3212);fill-opacity:1;font-family:Liberation Mono"
         id="tspan2213">  Oxygen o;</tspan><tspan
         sodipodi:role="line"
         x="23.516602"
         y="85.761185"
         style="font-size:5px;font-weight:normal;fill:url(#linearGradient3212);fill-opacity:1;font-family:Liberation Mono"
         id="tspan2215">  o.sayHiToAll();</tspan><tspan
         sodipodi:role="line"
         x="23.516602"
         y="92.011185"
         style="font-size:5px;font-weight:normal;fill:url(#linearGradient3212);fill-opacity:1;font-family:Liberation Mono"
         id="tspan3226">  return EXIT_SUCCESS;</tspan><tspan
         sodipodi:role="line"
         x="23.516602"
         y="98.261185"
         style="font-size:5px;font-weight:normal;fill:url(#linearGradient3212);fill-opacity:1;font-family:Liberation Mono"
         id="tspan3228">}</tspan><tspan
         sodipodi:role="line"
         x="23.516602"
         y="104.51118"
         style="font-size:5px;font-weight:normal;fill:url(#linearGradient3212);fill-opacity:1;font-family:Liberation Mono"
         id="tspan3230">void Oxygen::sayHiToAll()</tspan><tspan
         sodipodi:role="line"
         x="23.516602"
         y="110.76118"
         style="font-size:5px;font-weight:normal;fill:url(#linearGradient3212);fill-opacity:1;font-family:Liberation Mono"
         id="tspan3234">{</tspan><tspan
         sodipodi:role="line"
         x="23.516602"
         y="117.01118"
         style="font-size:5px;font-weight:normal;fill:url(#linearGradient3212);fill-opacity:1;font-family:Liberation Mono"
         id="tspan3238">  std::cout &lt;&lt; &quot;Hi ev</tspan><tspan
         sodipodi:role="line"
         x="23.516602"
         y="123.26118"
         style="font-size:10px;font-weight:normal;fill:url(#linearGradient3212);fill-opacity:1;font-family:Liberation Mono"
         id="tspan2205" /></text>
    <path
       style="fill:url(#linearGradient10213);fill-opacity:1"
       id="path14523"
       d="M 79.172,120 C 79.172,120 91.086,110.086 96.586,104.586 C 102.086,99.086 112,87.172 112,87.172 C 112,87.172 98.25,96 88,96 C 88,106.25 79.172,120 79.172,120 z"
       sodipodi:nodetypes="csccc" />
    <path
       style="font-size:8.51162624px;font-style:normal;font-weight:normal;fill:#45b009;fill-opacity:1;stroke:none;stroke-width:1px;stroke-linecap:butt;stroke-linejoin:miter;stroke-opacity:1;font-family:Bitstream Vera Sans"
       d="M 49.101503,83.679998 C 51.054987,83.680005 52.737832,83.405063 54.150044,82.85517 C 55.585727,82.281386 56.821384,81.540238 57.857017,80.631723 C 58.916115,79.723228 59.786959,78.695182 60.469551,77.547584 C 61.175599,76.400013 61.752239,75.240474 62.199473,74.068963 L 71.272728,77.547584 C 70.543054,79.364608 69.589831,81.145756 68.413064,82.891033 C 67.2362,84.636326 65.765182,86.178394 64.000003,87.51724 C 62.234735,88.856092 60.128234,89.943907 57.680493,90.780688 C 55.256217,91.59356 52.396557,91.999997 49.101503,91.999998 C 44.79433,91.999997 41.063825,91.354481 37.909974,90.063446 C 34.756091,88.748507 32.143559,86.931497 30.072374,84.612412 C 28.024705,82.269432 26.494845,79.496102 25.482789,76.292412 C 24.49426,73.088751 23.999996,69.586226 24,65.784826 C 23.999996,61.840028 24.49426,58.277732 25.482789,55.097929 C 26.494845,51.918198 28.012937,49.216591 30.03707,46.993101 C 32.061184,44.745791 34.614872,43.024415 37.698147,41.828963 C 40.80492,40.609704 44.453051,40.000049 48.642542,39.999998 C 51.890526,40.000049 54.726652,40.346715 57.150928,41.039998 C 59.598668,41.733381 61.705168,42.71361 63.470432,43.980688 C 65.259152,45.223952 66.730172,46.70625 67.883495,48.427584 C 69.060267,50.125096 69.978181,52.001877 70.637247,54.057929 L 61.458076,56.604136 C 61.128526,55.52831 60.622497,54.500264 59.939983,53.519998 C 59.25739,52.515899 58.386547,51.631302 57.32745,50.866205 C 56.291817,50.101189 55.067928,49.491534 53.655782,49.03724 C 52.24357,48.559121 50.643102,48.320041 48.854369,48.319998 C 46.335955,48.320041 44.170616,48.738431 42.358344,49.57517 C 40.546024,50.388085 39.051469,51.559578 37.874671,53.089653 C 36.721373,54.619805 35.862297,56.460722 35.297441,58.612411 C 34.756091,60.740258 34.485424,63.131061 34.485438,65.784826 C 34.485424,68.414734 34.756091,70.829444 35.297441,73.028963 C 35.862297,75.204611 36.733141,77.081392 37.909974,78.659308 C 39.086772,80.237251 40.593096,81.468514 42.42895,82.353101 C 44.288296,83.237706 46.512479,83.680005 49.101503,83.679998"
       id="path7097" />
    <path
       style="font-size:8.51162624px;font-style:normal;font-weight:normal;fill:#45b009;fill-opacity:1;stroke:none;stroke-width:1px;stroke-linecap:butt;stroke-linejoin:miter;stroke-opacity:1;font-family:Bitstream Vera Sans"
       d="M 80,68 L 80,76 L 76,76 L 76,68 L 68,68 L 68,64 L 76,64 L 76,56 L 80.176205,56 L 80,64 L 88,64 L 88,68"
       id="path7095"
       sodipodi:nodetypes="cccccccccccc" />
    <use
       x="0"
       y="0"
       xlink:href="#path7095"
       id="use7099"
       transform="translate(20,0)"
       width="128"
       height="128" />
  </g>
</svg>
