<?xml version="1.0" encoding="UTF-8" standalone="no"?>
<!-- Created with Inkscape (http://www.inkscape.org/) -->
<svg
   xmlns:dc="http://purl.org/dc/elements/1.1/"
   xmlns:cc="http://web.resource.org/cc/"
   xmlns:rdf="http://www.w3.org/1999/02/22-rdf-syntax-ns#"
   xmlns:svg="http://www.w3.org/2000/svg"
   xmlns="http://www.w3.org/2000/svg"
   xmlns:xlink="http://www.w3.org/1999/xlink"
   xmlns:sodipodi="http://sodipodi.sourceforge.net/DTD/sodipodi-0.dtd"
   xmlns:inkscape="http://www.inkscape.org/namespaces/inkscape"
   width="128"
   height="128"
   id="svg2606"
   sodipodi:version="0.32"
   inkscape:version="0.45.1"
   version="1.0"
   sodipodi:docname="source_cpp3.svg"
   inkscape:output_extension="org.inkscape.output.svg.inkscape"
   sodipodi:docbase="/Users/david/Desktop/OXYTODO">
  <defs
     id="defs2608">
    <linearGradient
       id="linearGradient10207">
      <stop
         style="stop-color:#a2a2a2;stop-opacity:1;"
         offset="0"
         id="stop10209" />
      <stop
         style="stop-color:#ffffff;stop-opacity:1;"
         offset="1"
         id="stop10211" />
    </linearGradient>
    <linearGradient
       id="XMLID_12_"
       gradientUnits="userSpaceOnUse"
       x1="96"
       y1="104"
       x2="88.000198"
       y2="96.000198">
      <stop
         offset="0"
         style="stop-color:#888A85"
         id="stop83" />
      <stop
         offset="0.0072"
         style="stop-color:#8C8E89"
         id="stop85" />
      <stop
         offset="0.0673"
         style="stop-color:#ABACA9"
         id="stop87" />
      <stop
         offset="0.1347"
         style="stop-color:#C5C6C4"
         id="stop89" />
      <stop
         offset="0.2652576"
         style="stop-color:#DBDBDA"
         id="stop91" />
      <stop
         offset="0.37646064"
         style="stop-color:#EBEBEB"
         id="stop93" />
      <stop
         offset="0.48740286"
         style="stop-color:#F7F7F6"
         id="stop95" />
      <stop
         offset="0.6324091"
         style="stop-color:#FDFDFD"
         id="stop97" />
      <stop
         offset="1"
         style="stop-color:#FFFFFF"
         id="stop99" />
    </linearGradient>
    <radialGradient
       id="XMLID_8_"
       cx="102"
       cy="112.3047"
       r="139.55859"
       gradientUnits="userSpaceOnUse">
      <stop
         offset="0"
         style="stop-color:#b7b8b9;stop-opacity:1;"
         id="stop41" />
      <stop
         offset="0.18851049"
         style="stop-color:#ECECEC"
         id="stop47" />
      <stop
         offset="0.25718147"
         style="stop-color:#FAFAFA"
         id="stop49" />
      <stop
         offset="0.30111277"
         style="stop-color:#FFFFFF"
         id="stop51" />
      <stop
         offset="0.5313"
         style="stop-color:#FAFAFA"
         id="stop53" />
      <stop
         offset="0.8449"
         style="stop-color:#EBECEC"
         id="stop55" />
      <stop
         offset="1"
         style="stop-color:#E1E2E3"
         id="stop57" />
    </radialGradient>
    <filter
       inkscape:collect="always"
       x="-0.19200002"
       width="1.3839999"
       y="-0.19199999"
       height="1.3839999"
       id="filter6697">
      <feGaussianBlur
         inkscape:collect="always"
         stdDeviation="1.9447689"
         id="feGaussianBlur6699" />
    </filter>
    <clipPath
       clipPathUnits="userSpaceOnUse"
       id="clipPath7084">
      <path
         style="fill:#000000;fill-opacity:1;fill-rule:evenodd;stroke:none;stroke-width:1px;stroke-linecap:butt;stroke-linejoin:miter;stroke-opacity:1"
         d="M 72,88 L 40,120 L 32,120 L 32,80 L 72,80 L 72,88 z"
         id="path7086" />
    </clipPath>
    <radialGradient
       inkscape:collect="always"
       xlink:href="#XMLID_8_"
       id="radialGradient9437"
       gradientUnits="userSpaceOnUse"
       gradientTransform="matrix(1,0,0,0.9996653,2e-6,3.0160848e-3)"
       cx="102"
       cy="112.3047"
       r="139.55859" />
    <linearGradient
       inkscape:collect="always"
       xlink:href="#linearGradient10207"
       id="linearGradient10213"
       x1="98.617439"
       y1="106.41443"
       x2="91.228737"
       y2="99.254974"
       gradientUnits="userSpaceOnUse" />
    <filter
       inkscape:collect="always"
       id="filter2770">
      <feGaussianBlur
         inkscape:collect="always"
         stdDeviation="2.0786429"
         id="feGaussianBlur2772" />
    </filter>
  </defs>
  <sodipodi:namedview
     id="base"
     pagecolor="#ffffff"
     bordercolor="#666666"
     borderopacity="1.0"
     inkscape:pageopacity="0.0"
     inkscape:pageshadow="2"
     inkscape:zoom="5.4027377"
     inkscape:cx="64"
     inkscape:cy="64"
     inkscape:document-units="px"
     inkscape:current-layer="layer1"
     width="128px"
     height="128px"
     gridspacingx="4px"
     gridspacingy="4px"
     gridempspacing="2"
     showgrid="true"
     inkscape:grid-points="true"
     showguides="true"
     inkscape:guide-bbox="true"
     inkscape:window-width="1311"
     inkscape:window-height="997"
     inkscape:window-x="200"
     inkscape:window-y="31" />
  <metadata
     id="metadata2611">
    <rdf:RDF>
      <cc:Work
         rdf:about="">
        <dc:format>image/svg+xml</dc:format>
        <dc:type
           rdf:resource="http://purl.org/dc/dcmitype/StillImage" />
      </cc:Work>
    </rdf:RDF>
  </metadata>
  <g
     inkscape:label="Livello 1"
     inkscape:groupmode="layer"
     id="layer1">
    <path
       style="opacity:0.5;fill:#000000;fill-opacity:1;filter:url(#filter2770)"
       d="M 16,8 L 16,120 C 16,120 79.15625,120 79.15625,120 L 79.1875,120 C 79.187503,120 91.09375,110.09375 96.59375,104.59375 C 102.09375,99.09375 112,87.1875 112,87.1875 L 112,87.15625 L 112,8 L 16,8 z"
       id="path7865"
       sodipodi:nodetypes="csccscccc"
       transform="matrix(1.0416667,0,0,1.0267857,-2.6666667,-1.2142891)" />
    <path
       style="fill:#ffffff;fill-opacity:1"
       d="M 16.000001,8 L 16,120 C 16,120 79.146418,120 79.146418,120 L 112,87.14642 L 112,8 L 16.000001,8 z"
       id="path34"
       sodipodi:nodetypes="cccccc" />
    <path
       style="fill:url(#radialGradient9437);fill-opacity:1"
       d="M 18.000002,9.0000034 C 17.449002,9.0000034 17.000002,9.4488534 17.000002,9.9996684 L 17.000002,117.96352 C 17.000002,118.51533 17.449002,118.96318 18.000002,118.96318 L 77.171999,118.96318 C 77.434999,118.96318 79.934679,119.08131 80.12068,118.89438 L 110.707,88.094202 C 110.894,87.907264 111,85.40942 111,85.146508 L 111,9.9996684 C 111,9.4488534 110.552,9.0000034 110,9.0000034 L 18.000002,9.0000034 z"
       id="path59"
       sodipodi:nodetypes="ccccccccccc" />
    <path
       d="M 41.879531,115.98249 C 41.879531,115.98249 66.18914,91.672876 66.18914,91.672876 C 66.18914,91.672876 56.836,94.586 46.586,94.586 C 46.586,104.836 41.879531,115.98249 41.879531,115.98249 z"
       id="path5540"
       style="opacity:0.4;fill:#000000;fill-opacity:1;filter:url(#filter6697)"
       sodipodi:nodetypes="cccc"
       clip-path="url(#clipPath7084)"
       transform="translate(40,0)" />
    <path
       style="fill:url(#linearGradient10213);fill-opacity:1"
       id="path14523"
       d="M 79.172,120 C 79.172,120 91.086,110.086 96.586,104.586 C 102.086,99.086 112,87.172 112,87.172 C 112,87.172 98.25,96 88,96 C 88,106.25 79.172,120 79.172,120 z"
       sodipodi:nodetypes="csccc" />
    <path
       style="font-size:8.51162624px;font-style:normal;font-weight:normal;fill:#45b009;fill-opacity:1;stroke:none;stroke-width:1px;stroke-linecap:butt;stroke-linejoin:miter;stroke-opacity:1;font-family:Bitstream Vera Sans"
       d="M 45.239733,80.959998 C 46.892681,80.960004 48.316627,80.727361 49.511576,80.262067 C 50.726384,79.776557 51.77194,79.149432 52.648245,78.380688 C 53.544405,77.611962 54.281273,76.742077 54.858851,75.771032 C 55.456276,74.800011 55.944202,73.818862 56.322631,72.827584 L 64.000001,75.771032 C 63.382584,77.308514 62.576011,78.815639 61.580285,80.292412 C 60.584477,81.769199 59.339769,83.074025 57.846156,84.206895 C 56.352468,85.33977 54.570044,86.260229 52.498879,86.968274 C 50.447568,87.656089 48.027856,87.999997 45.239733,87.999998 C 41.595202,87.999997 38.438621,87.453791 35.769978,86.361377 C 33.101308,85.248736 30.890704,83.711266 29.138163,81.748964 C 27.40552,79.766442 26.111023,77.419778 25.254668,74.708964 C 24.41822,71.998174 23.999997,69.034499 24,65.817929 C 23.999997,62.480023 24.41822,59.465773 25.254668,56.77517 C 26.111023,54.084629 27.395562,51.798654 29.10829,49.917239 C 30.821002,48.015669 32.981815,46.55912 35.59074,45.547584 C 38.219548,44.515903 41.306428,44.000041 44.851382,43.999998 C 47.599676,44.000041 49.999475,44.293374 52.050785,44.879998 C 54.12195,45.466707 55.904373,46.296131 57.398058,47.368274 C 58.91159,48.420267 60.156299,49.674519 61.132188,51.131032 C 62.127918,52.567389 62.904615,54.155434 63.462286,55.89517 L 55.695295,58.049653 C 55.416445,57.139339 54.988267,56.269454 54.410755,55.439998 C 53.833176,54.590376 53.096309,53.841871 52.20015,53.194481 C 51.323845,52.54716 50.288247,52.031298 49.093354,51.646895 C 47.898405,51.242333 46.544163,51.040034 45.03062,51.039998 C 42.899654,51.040034 41.067444,51.394057 39.533983,52.102067 C 38.000482,52.789918 36.735858,53.781181 35.740106,55.07586 C 34.764239,56.370604 34.037328,57.928303 33.559373,59.748963 C 33.101308,61.549449 32.872282,63.572436 32.872294,65.817929 C 32.872282,68.043236 33.101308,70.086452 33.559373,71.947584 C 34.037328,73.788517 34.774196,75.376562 35.769978,76.711722 C 36.76573,78.046904 38.040312,79.088742 39.593727,79.837239 C 41.16702,80.585751 43.049021,80.960004 45.239733,80.959998"
       id="path7097" />
    <path
       style="font-size:8.51162624px;font-style:normal;font-weight:normal;fill:#45b009;fill-opacity:1;stroke:none;stroke-width:1px;stroke-linecap:butt;stroke-linejoin:miter;stroke-opacity:1;font-family:Bitstream Vera Sans"
       d="M 76,68 L 76,76 L 72,76 L 72,68 L 64,68 L 64,64 L 72,64 L 72,56 L 76.176205,56 L 76,64 L 84,64 L 84,68"
       id="path7095"
       sodipodi:nodetypes="cccccccccccc" />
    <text
       xml:space="preserve"
       style="font-size:4px;font-style:normal;font-weight:normal;fill:#000000;fill-opacity:1;stroke:none;stroke-width:1px;stroke-linecap:butt;stroke-linejoin:miter;stroke-opacity:1;font-family:Bitstream Vera Sans"
       x="23.516602"
       y="23.261185"
       id="text4154"><tspan
         sodipodi:role="line"
         id="tspan4156"
         x="23.516602"
         y="23.261185"
         style="font-size:10;font-family:Liberation Mono;font-weight:normal">main()</tspan><tspan
         sodipodi:role="line"
         x="23.516602"
         y="35.761185"
         id="tspan4158"
         style="font-size:10;font-family:Liberation Mono;font-weight:normal">{</tspan></text>
    <text
       id="text4178"
       y="101.26118"
       x="23.18457"
       style="font-size:4px;font-style:normal;font-weight:normal;fill:#000000;fill-opacity:1;stroke:none;stroke-width:1px;stroke-linecap:butt;stroke-linejoin:miter;stroke-opacity:1;font-family:Bitstream Vera Sans"
       xml:space="preserve"><tspan
         style="font-size:10px;font-family:Liberation Mono"
         y="101.26118"
         x="23.18457"
         sodipodi:role="line"
         id="tspan4186">}</tspan></text>
    <use
       x="0"
       y="0"
       xlink:href="#path7095"
       id="use7099"
       transform="translate(24,0)"
       width="128"
       height="128" />
  </g>
</svg>
