<?xml version="1.0" encoding="UTF-8" standalone="no"?>
<!-- Created with Inkscape (http://www.inkscape.org/) -->
<svg
   xmlns:dc="http://purl.org/dc/elements/1.1/"
   xmlns:cc="http://web.resource.org/cc/"
   xmlns:rdf="http://www.w3.org/1999/02/22-rdf-syntax-ns#"
   xmlns:svg="http://www.w3.org/2000/svg"
   xmlns="http://www.w3.org/2000/svg"
   xmlns:xlink="http://www.w3.org/1999/xlink"
   xmlns:sodipodi="http://inkscape.sourceforge.net/DTD/sodipodi-0.dtd"
   xmlns:inkscape="http://www.inkscape.org/namespaces/inkscape"
   width="128"
   height="128"
   id="svg11465"
   sodipodi:version="0.32"
   inkscape:version="0.43"
   version="1.0"
   sodipodi:docbase="/home/pinheiro/Documents/pics/new oxygen/svg"
   sodipodi:docname="contact.svg">
  <defs
     id="defs11467">
    <radialGradient
       gradientTransform="matrix(0.238899,-6.401268e-2,6.401268e-2,0.238899,-49.5543,-73.38964)"
       gradientUnits="userSpaceOnUse"
       r="40.7109"
       cy="8.7803"
       cx="62.292"
       id="radialGradient11445">
	<stop
   id="stop11447"
   style="stop-color:#79B5E5"
   offset="0" />

	<stop
   id="stop11449"
   style="stop-color:#4A8CD9"
   offset="0.7303" />

	<stop
   id="stop11451"
   style="stop-color:#4788D5"
   offset="0.88876778" />

	
	
	<stop
   id="stop11457"
   style="stop-color:#79b5e5;stop-opacity:1;"
   offset="1" />

</radialGradient>
    <radialGradient
       inkscape:collect="always"
       xlink:href="#radialGradient11445"
       id="radialGradient11375"
       gradientUnits="userSpaceOnUse"
       gradientTransform="matrix(0.433565,-9.814901e-2,5.364137e-2,0.236958,77.43783,86.90994)"
       cx="62.292"
       cy="8.7803001"
       r="40.710899"
       fx="62.292"
       fy="8.7803001" />
    <radialGradient
       gradientUnits="userSpaceOnUse"
       gradientTransform="matrix(0.198406,0,-5.256355e-3,-0.198406,-93.84279,22.97293)"
       r="130.5231"
       cy="-319.7261"
       cx="336.8938"
       id="radialGradient4035">
      <stop
         id="stop4037"
         style="stop-color:#A4C0E4"
         offset="0" />
      <stop
         id="stop4039"
         style="stop-color:#6193CF"
         offset="0.6036" />
      <stop
         id="stop4041"
         style="stop-color:#A4C0E4"
         offset="1" />
    </radialGradient>
    <linearGradient
       inkscape:collect="always"
       xlink:href="#radialGradient4035"
       id="linearGradient7294"
       gradientUnits="userSpaceOnUse"
       gradientTransform="matrix(0.216453,-3.884327e-2,3.645922e-2,0.245359,12.2174,59.70296)"
       x1="73.783409"
       y1="-17.918573"
       x2="59.461929"
       y2="151.13226" />
    <radialGradient
       gradientUnits="userSpaceOnUse"
       gradientTransform="matrix(0.198406,0,-5.256355e-3,-0.198406,-452.9859,-58.52922)"
       r="130.5231"
       cy="-319.7261"
       cx="336.8938"
       id="radialGradient4029">
      <stop
         id="stop4031"
         style="stop-color:#A4C0E4"
         offset="0" />
      <stop
         id="stop4033"
         style="stop-color:#6193CF"
         offset="1" />
    </radialGradient>
    <linearGradient
       inkscape:collect="always"
       xlink:href="#radialGradient4029"
       id="linearGradient7297"
       gradientUnits="userSpaceOnUse"
       gradientTransform="matrix(0.216453,-3.884327e-2,3.645922e-2,0.245359,12.10493,59.60872)"
       x1="81.624855"
       y1="-4.6484313"
       x2="73.938446"
       y2="133.6398" />
    <radialGradient
       id="XMLID_12_"
       cx="336.8938"
       cy="-319.7261"
       r="130.5231"
       gradientTransform="matrix(0.198406,0,-5.256355e-3,-0.198406,-93.84279,22.97293)"
       gradientUnits="userSpaceOnUse">
      <stop
         offset="0"
         style="stop-color:#A4C0E4"
         id="stop44" />
      <stop
         offset="0.6036"
         style="stop-color:#6193CF"
         id="stop46" />
      <stop
         offset="1"
         style="stop-color:#A4C0E4"
         id="stop48" />
    </radialGradient>
    <linearGradient
       inkscape:collect="always"
       xlink:href="#XMLID_12_"
       id="linearGradient7300"
       gradientUnits="userSpaceOnUse"
       gradientTransform="matrix(0.209908,-3.766857e-2,3.62667e-2,0.244064,5.491511,21.36935)"
       x1="8.207305"
       y1="219.11998"
       x2="134.41685"
       y2="219.11998" />
    <linearGradient
       id="XMLID_7_"
       gradientUnits="userSpaceOnUse"
       x1="290.9375"
       y1="27.1499"
       x2="233.8198"
       y2="184.0795"
       gradientTransform="matrix(0.9659,-0.2588,0.2588,0.9659,-368.9027,-26.63475)">
      <stop
         offset="0"
         style="stop-color:#EEEEEE"
         id="stop785" />
      <stop
         offset="0.2012"
         style="stop-color:#FFFFFF"
         id="stop787" />
      <stop
         offset="0.3969"
         style="stop-color:#F9F9F9"
         id="stop789" />
      <stop
         offset="0.574"
         style="stop-color:#EEEEEE"
         id="stop791" />
      <stop
         offset="0.7988"
         style="stop-color:#FFFFFF"
         id="stop793" />
    </linearGradient>
    <linearGradient
       inkscape:collect="always"
       xlink:href="#XMLID_7_"
       id="linearGradient2869"
       gradientUnits="userSpaceOnUse"
       gradientTransform="matrix(1.063194,-0.187457,0.187457,1.063194,-241.7565,23.70027)"
       x1="290.9375"
       y1="27.1499"
       x2="233.8198"
       y2="184.0795" />
  </defs>
  <sodipodi:namedview
     id="base"
     pagecolor="#ffffff"
     bordercolor="#666666"
     borderopacity="1.0"
     inkscape:pageopacity="0.0"
     inkscape:pageshadow="2"
     inkscape:zoom="1.375"
     inkscape:cx="-23.878447"
     inkscape:cy="53.232349"
     inkscape:current-layer="layer1"
     showgrid="true"
     inkscape:document-units="px"
     inkscape:grid-bbox="true"
     inkscape:window-width="839"
     inkscape:window-height="543"
     inkscape:window-x="0"
     inkscape:window-y="631" />
  <metadata
     id="metadata11470">
    <rdf:RDF>
      <cc:Work
         rdf:about="">
        <dc:format>image/svg+xml</dc:format>
        <dc:type
           rdf:resource="http://purl.org/dc/dcmitype/StillImage" />
      </cc:Work>
    </rdf:RDF>
  </metadata>
  <g
     id="layer1"
     inkscape:label="Layer 1"
     inkscape:groupmode="layer">
    <g
       id="g11473"
       transform="translate(-0.158665,-0.558216)">
      <path
         style="fill:none;stroke:#353535;stroke-width:2.74901986;stroke-linecap:round;stroke-linejoin:round;stroke-miterlimit:4;stroke-dasharray:none;stroke-opacity:0.17959182"
         d="M 110.21332,14.672847 C 109.79169,14.747218 104.03928,15.761186 95.884162,17.199189 L 96.652248,21.601451 C 99.838981,22.062687 102.49525,24.512249 103.07055,27.855844 C 103.7855,32.01096 101.00568,35.962597 96.850538,36.677544 C 92.695405,37.392489 88.743779,34.611351 88.028833,30.456215 C 87.52055,27.502173 88.791106,24.642939 91.057539,22.984262 L 90.208808,18.199946 C 81.358199,19.760582 70.754834,21.630638 59.652102,23.588418 L 60.436024,28.079254 C 63.622767,28.540488 66.279037,30.988732 66.854352,34.332311 C 67.569295,38.487449 64.78815,42.439077 60.633006,43.154033 C 56.477889,43.868968 52.527584,41.087821 51.812632,36.932694 C 51.304343,33.978653 52.573564,31.119419 54.840009,29.460742 L 53.975435,24.59049 C 43.036892,26.519309 32.295271,28.412471 23.418704,29.977642 L 24.218505,34.555734 C 27.405248,35.016967 30.061525,37.465209 30.636812,40.808792 C 31.351764,44.963928 28.571953,48.915556 24.416803,49.630512 C 20.261686,50.345457 16.310034,47.56431 15.595113,43.409173 C 15.086824,40.455132 16.357362,37.595899 18.623806,35.937222 L 17.744666,30.978403 C 8.9556752,32.528135 2.7134923,33.628105 2.2732958,33.705693 C 2.6057772,35.591228 17.429382,117.25841 17.761862,119.14395 C 19.671707,118.80603 123.7922,100.44689 125.70188,100.1111 C 125.3695,98.224492 110.54569,16.559454 110.21332,14.672847 z "
         id="path5301" />
      <path
         id="path5299"
         d="M 110.21332,14.672847 C 109.79169,14.747218 104.03928,15.761186 95.884162,17.199189 L 96.652248,21.601451 C 99.838981,22.062687 102.49525,24.512249 103.07055,27.855844 C 103.7855,32.01096 101.00568,35.962597 96.850538,36.677544 C 92.695405,37.392489 88.743779,34.611351 88.028833,30.456215 C 87.52055,27.502173 88.791106,24.642939 91.057539,22.984262 L 90.208808,18.199946 C 81.358199,19.760582 70.754834,21.630638 59.652102,23.588418 L 60.436024,28.079254 C 63.622767,28.540488 66.279037,30.988732 66.854352,34.332311 C 67.569295,38.487449 64.78815,42.439077 60.633006,43.154033 C 56.477889,43.868968 52.527584,41.087821 51.812632,36.932694 C 51.304343,33.978653 52.573564,31.119419 54.840009,29.460742 L 53.975435,24.59049 C 43.036892,26.519309 32.295271,28.412471 23.418704,29.977642 L 24.218505,34.555734 C 27.405248,35.016967 30.061525,37.465209 30.636812,40.808792 C 31.351764,44.963928 28.571953,48.915556 24.416803,49.630512 C 20.261686,50.345457 16.310034,47.56431 15.595113,43.409173 C 15.086824,40.455132 16.357362,37.595899 18.623806,35.937222 L 17.744666,30.978403 C 8.9556752,32.528135 2.7134923,33.628105 2.2732958,33.705693 C 2.6057772,35.591228 17.429382,117.25841 17.761862,119.14395 C 19.671707,118.80603 123.7922,100.44689 125.70188,100.1111 C 125.3695,98.224492 110.54569,16.559454 110.21332,14.672847 z "
         style="fill:none;stroke:#353535;stroke-width:4.2292614;stroke-linecap:round;stroke-linejoin:round;stroke-miterlimit:4;stroke-dasharray:none;stroke-opacity:0.17959182" />
      <path
         style="fill:none;stroke:#292929;stroke-width:2.1146307;stroke-linecap:round;stroke-linejoin:round;stroke-miterlimit:4;stroke-dasharray:none;stroke-opacity:0.26938776"
         d="M 109.7904,14.249921 C 109.36877,14.324293 103.61635,15.33826 95.461236,16.776263 L 96.229323,21.178525 C 99.41605,21.639761 102.07231,24.089323 102.64763,27.432917 C 103.36256,31.588033 100.58275,35.539671 96.427611,36.254617 C 92.272479,36.969562 88.320853,34.188425 87.605907,30.033289 C 87.097623,27.079246 88.368181,24.220013 90.634612,22.561335 L 89.785881,17.777019 C 80.935273,19.337655 70.331908,21.207711 59.229176,23.165492 L 60.013097,27.656327 C 63.199841,28.117561 65.856111,30.565805 66.431426,33.909386 C 67.146369,38.064522 64.365225,42.016151 60.210081,42.731106 C 56.054962,43.446042 52.104658,40.664894 51.389707,36.509768 C 50.881417,33.555727 52.150638,30.696494 54.417084,29.037815 L 53.552509,24.167565 C 42.613966,26.096382 31.872345,27.989544 22.995777,29.554717 L 23.795579,34.132807 C 26.982321,34.59404 29.638599,37.042284 30.213887,40.385865 C 30.928837,44.541002 28.149027,48.49263 23.993877,49.207586 C 19.838759,49.922531 15.887107,47.141383 15.172188,42.986247 C 14.663898,40.032207 15.934435,37.172972 18.20088,35.514296 L 17.32174,30.555476 C 8.5327499,32.105208 2.2905662,33.205181 1.8503697,33.282767 C 2.182851,35.168301 17.006455,116.83548 17.338936,118.72102 C 19.248781,118.3831 123.36928,100.02396 125.27895,99.688177 C 124.94656,97.801562 110.12278,16.136527 109.7904,14.249921 z "
         id="path5297" />
      <path
         id="path4422"
         d="M 109.7904,14.249921 C 109.36877,14.324293 103.61635,15.33826 95.461236,16.776263 L 96.229323,21.178525 C 99.41605,21.639761 102.07231,24.089323 102.64763,27.432917 C 103.36256,31.588033 100.58275,35.539671 96.427611,36.254617 C 92.272479,36.969562 88.320853,34.188425 87.605907,30.033289 C 87.097623,27.079246 88.368181,24.220013 90.634612,22.561335 L 89.785881,17.777019 C 80.935273,19.337655 70.331908,21.207711 59.229176,23.165492 L 60.013097,27.656327 C 63.199841,28.117561 65.856111,30.565805 66.431426,33.909386 C 67.146369,38.064522 64.365225,42.016151 60.210081,42.731106 C 56.054962,43.446042 52.104658,40.664894 51.389707,36.509768 C 50.881417,33.555727 52.150638,30.696494 54.417084,29.037815 L 53.552509,24.167565 C 42.613966,26.096382 31.872345,27.989544 22.995777,29.554717 L 23.795579,34.132807 C 26.982321,34.59404 29.638599,37.042284 30.213887,40.385865 C 30.928837,44.541002 28.149027,48.49263 23.993877,49.207586 C 19.838759,49.922531 15.887107,47.141383 15.172188,42.986247 C 14.663898,40.032207 15.934435,37.172972 18.20088,35.514296 L 17.32174,30.555476 C 8.5327499,32.105208 2.2905662,33.205181 1.8503697,33.282767 C 2.182851,35.168301 17.006455,116.83548 17.338936,118.72102 C 19.248781,118.3831 123.36928,100.02396 125.27895,99.688177 C 124.94656,97.801562 110.12278,16.136527 109.7904,14.249921 z "
         style="fill:none;stroke:#9c9c9c;stroke-width:1.05731535;stroke-linecap:round;stroke-linejoin:round;stroke-miterlimit:4;stroke-dasharray:none;stroke-opacity:0.26938776" />
      <path
         style="fill:url(#linearGradient2869);stroke:#ffffff;stroke-width:1.05731535;stroke-miterlimit:4;stroke-dasharray:none;stroke-opacity:1"
         d="M 109.36747,13.826994 C 108.94584,13.901366 103.19342,14.915333 95.038309,16.353336 L 95.806396,20.7556 C 98.993127,21.216835 101.64939,23.666397 102.2247,27.00999 C 102.93965,31.165107 100.15983,35.116745 96.004684,35.831691 C 91.849553,36.546635 87.897927,33.765499 87.18298,29.610363 C 86.674697,26.656322 87.945254,23.797086 90.211685,22.13841 L 89.362956,17.354093 C 80.512348,18.914729 69.908982,20.784785 58.806251,22.742567 L 59.590171,27.233401 C 62.776915,27.694635 65.433184,30.142878 66.0085,33.48646 C 66.723443,37.641596 63.942298,41.593224 59.787155,42.30818 C 55.632037,43.023116 51.681732,40.241968 50.96678,36.086841 C 50.45849,33.1328 51.727712,30.273567 53.994158,28.61489 L 53.129582,23.744639 C 42.191039,25.673457 31.449418,27.566619 22.57285,29.13179 L 23.372653,33.709881 C 26.559395,34.171115 29.215673,36.619357 29.79096,39.962939 C 30.505911,44.118075 27.726102,48.069705 23.570951,48.78466 C 19.415834,49.499604 15.464181,46.718457 14.749262,42.563321 C 14.240972,39.60928 15.511509,36.750047 17.777954,35.091369 L 16.898815,30.13255 C 8.1098234,31.682281 1.8676401,32.782254 1.4274435,32.85984 C 1.7599249,34.745375 16.583529,116.41256 16.916009,118.2981 C 18.825856,117.96016 122.94636,99.601045 124.85603,99.265246 C 124.52364,97.378641 109.69984,15.713601 109.36747,13.826994 z "
         id="path2867" />
      <g
         transform="matrix(1.047024,9.160257e-2,-9.160257e-2,1.047024,-203.8419,-35.50036)"
         id="g797">
        <path
           style="fill:#bbbbbb"
           id="path799"
           d="M 248.974,73.904 C 249.146,73.47 249.454,73.194 249.895,73.076 C 250.273,72.975 250.62,73.029 250.939,73.237 C 251.257,73.446 251.473,73.761 251.586,74.182 C 251.762,74.838 251.658,75.507 251.275,76.19 C 250.892,76.872 250.38,77.297 249.74,77.468 C 249.278,77.593 248.857,77.541 248.474,77.317 C 248.091,77.091 247.837,76.745 247.712,76.276 C 247.576,75.768 247.63,75.284 247.874,74.825 C 248.12,74.366 248.486,74.059 248.974,73.904 z M 248.851,74.242 C 248.56,74.4 248.36,74.633 248.248,74.938 C 248.139,75.244 248.133,75.585 248.232,75.959 C 248.346,76.379 248.56,76.693 248.876,76.899 C 249.193,77.106 249.541,77.16 249.918,77.058 C 250.371,76.937 250.712,76.615 250.944,76.095 C 251.174,75.574 251.215,75.033 251.065,74.47 C 250.977,74.143 250.818,73.89 250.586,73.713 C 250.356,73.537 250.114,73.483 249.862,73.549 C 249.607,73.619 249.413,73.782 249.282,74.04 C 249.15,74.298 249.122,74.569 249.199,74.855 C 249.253,75.057 249.35,75.231 249.492,75.375 C 249.291,75.392 249.15,75.375 249.068,75.324 C 248.987,75.273 248.922,75.162 248.876,74.989 C 248.816,74.767 248.807,74.518 248.851,74.242 z " />
        <path
           style="fill:#bbbbbb"
           id="path801"
           d="M 253.63,75.386 C 253.403,75.97 253.309,76.499 253.345,76.978 C 253.101,76.906 252.962,76.803 252.927,76.673 C 252.855,76.404 253.016,75.905 253.406,75.177 C 253.225,75.001 253.041,74.778 252.85,74.504 C 252.66,74.232 252.546,74.028 252.51,73.895 C 252.472,73.751 252.618,73.604 252.952,73.452 C 252.95,73.493 252.953,73.529 252.962,73.561 C 253.047,73.878 253.294,74.262 253.704,74.713 C 254.016,74.07 254.131,73.595 254.049,73.286 L 254.037,73.253 C 254.057,73.246 254.104,73.23 254.179,73.203 L 254.21,73.195 C 254.398,73.144 254.507,73.17 254.534,73.27 C 254.6,73.521 254.389,74.066 253.898,74.907 C 254.265,75.241 254.596,75.369 254.89,75.291 C 255.414,75.15 255.829,74.46 256.136,73.22 L 256.388,73.286 C 256.185,74.083 255.964,74.682 255.723,75.083 C 255.481,75.482 255.195,75.728 254.862,75.816 C 254.469,75.923 254.058,75.779 253.63,75.386 z " />
        <path
           style="fill:#bbbbbb"
           id="path803"
           d="M 257.331,75.314 C 257.132,74.867 256.875,74.44 256.561,74.035 C 256.249,73.628 255.95,73.335 255.664,73.153 C 255.764,73.009 255.881,72.92 256.018,72.883 C 256.134,72.852 256.245,72.879 256.351,72.964 C 256.456,73.048 256.611,73.235 256.813,73.522 C 257.13,73.973 257.388,74.39 257.587,74.772 C 257.926,73.682 258.026,72.783 257.888,72.073 C 258.205,72.036 258.384,72.097 258.427,72.256 C 258.472,72.423 258.427,72.804 258.292,73.399 C 258.157,73.994 257.989,74.549 257.789,75.068 C 257.558,75.667 257.3,76.158 257.017,76.543 C 256.735,76.928 256.463,77.154 256.204,77.224 C 255.971,77.287 255.827,77.22 255.775,77.025 C 255.753,76.944 255.749,76.844 255.762,76.725 C 255.873,76.758 255.999,76.756 256.14,76.719 C 256.65,76.58 257.048,76.113 257.331,75.314 z " />
        <path
           style="fill:#bbbbbb"
           id="path805"
           d="M 261.026,72.657 C 260.951,73.052 260.79,73.422 260.541,73.771 C 260.29,74.121 260.04,74.329 259.787,74.396 C 259.597,74.448 259.424,74.424 259.27,74.328 C 259.116,74.231 259.01,74.079 258.956,73.874 C 258.827,73.394 258.891,72.899 259.146,72.393 C 259.402,71.887 259.746,71.575 260.177,71.459 C 260.4,71.399 260.657,71.398 260.948,71.456 C 260.939,71.279 260.962,71.16 261.015,71.099 C 261.071,71.037 261.227,70.957 261.491,70.858 C 261.428,71.167 261.471,71.856 261.624,72.919 L 261.662,73.195 C 262.288,72.545 262.743,71.93 263.023,71.353 L 263.279,71.432 C 263.03,72.035 262.52,72.756 261.75,73.597 C 261.763,73.666 261.773,73.717 261.78,73.75 C 261.871,74.194 261.912,74.529 261.901,74.754 C 261.89,74.98 261.824,75.209 261.703,75.441 C 261.462,75.895 261.099,76.187 260.616,76.317 C 260.358,76.386 260.13,76.381 259.936,76.301 C 259.741,76.222 259.618,76.085 259.565,75.89 C 259.515,75.701 259.54,75.516 259.642,75.335 C 259.742,75.153 259.958,74.909 260.288,74.601 C 260.508,74.399 260.814,74.102 261.208,73.711 L 261.026,72.657 z M 260.979,71.941 C 260.689,71.76 260.408,71.707 260.136,71.779 C 259.879,71.848 259.681,72.076 259.539,72.461 C 259.398,72.845 259.376,73.219 259.474,73.584 C 259.543,73.843 259.673,73.946 259.862,73.895 C 260.047,73.846 260.251,73.626 260.474,73.237 C 260.696,72.847 260.864,72.416 260.979,71.941 z M 261.276,74.065 C 261.191,74.153 261.018,74.324 260.758,74.579 C 260.249,75.08 260.029,75.459 260.099,75.72 C 260.13,75.835 260.204,75.917 260.321,75.966 C 260.439,76.015 260.572,76.019 260.723,75.979 C 261.387,75.801 261.57,75.163 261.276,74.065 z " />
        <path
           style="fill:#bbbbbb"
           id="path807"
           d="M 263.368,72.547 C 263.505,73.057 263.789,73.254 264.221,73.138 C 264.596,73.037 264.961,72.748 265.317,72.272 C 265.673,71.794 265.954,71.215 266.161,70.536 L 266.415,70.598 C 266.244,71.328 265.942,71.974 265.509,72.539 C 265.074,73.103 264.613,73.451 264.124,73.582 C 263.811,73.666 263.536,73.632 263.3,73.478 C 263.063,73.325 262.898,73.072 262.805,72.722 C 262.669,72.216 262.719,71.74 262.952,71.293 C 263.185,70.845 263.535,70.559 264,70.435 C 264.226,70.374 264.42,70.382 264.586,70.46 C 264.751,70.536 264.859,70.67 264.91,70.859 C 264.993,71.171 264.88,71.497 264.569,71.838 C 264.256,72.181 263.856,72.416 263.368,72.547 z M 263.322,72.29 C 263.681,72.174 263.967,71.985 264.176,71.727 C 264.386,71.467 264.458,71.212 264.392,70.965 C 264.332,70.742 264.204,70.656 264.003,70.71 C 263.766,70.773 263.581,70.959 263.447,71.267 C 263.317,71.574 263.273,71.916 263.322,72.29 z " />
        <path
           style="fill:#bbbbbb"
           id="path809"
           d="M 266.88,71.764 C 267.148,70.291 267.528,69.491 268.022,69.358 C 268.407,69.255 268.702,69.586 268.907,70.35 L 268.997,70.664 C 269.096,71.029 269.181,71.277 269.256,71.407 C 269.331,71.538 269.418,71.588 269.518,71.562 C 269.668,71.521 269.806,71.358 269.933,71.069 C 270.059,70.78 270.243,70.219 270.478,69.387 L 270.733,69.456 C 270.543,70.279 270.343,70.907 270.134,71.339 C 269.924,71.769 269.699,72.017 269.459,72.08 C 269.237,72.14 269.054,72.074 268.906,71.886 C 268.76,71.695 268.616,71.336 268.474,70.81 L 268.414,70.586 C 268.337,70.3 268.266,70.105 268.197,69.999 C 268.13,69.893 268.051,69.853 267.961,69.877 C 267.731,69.938 267.482,70.496 267.218,71.55 C 267.154,71.807 267.111,71.973 267.091,72.047 C 267.02,72.317 266.997,72.502 267.026,72.607 C 267.038,72.649 267.059,72.685 267.091,72.718 C 267.002,72.788 266.921,72.831 266.852,72.85 C 266.675,72.897 266.561,72.824 266.509,72.628 C 266.494,72.572 266.449,72.316 266.375,71.858 L 266.28,71.277 C 266.242,71.029 266.205,70.839 266.17,70.708 C 266.12,70.522 266.04,70.39 265.928,70.306 C 265.961,70.284 266.016,70.246 266.093,70.194 C 266.191,70.126 266.272,70.084 266.336,70.066 C 266.472,70.03 266.565,70.112 266.618,70.309 C 266.646,70.413 266.681,70.595 266.723,70.856 C 266.733,70.914 266.743,70.966 266.75,71.019 L 266.88,71.764 z " />
        <path
           style="fill:#bbbbbb"
           id="path811"
           d="M 274.909,68.331 C 274.7,69.126 274.447,69.772 274.148,70.269 C 273.85,70.766 273.541,71.058 273.221,71.143 C 273.025,71.196 272.851,71.174 272.698,71.08 C 272.545,70.984 272.44,70.834 272.385,70.627 C 272.364,70.548 272.348,70.419 272.337,70.239 L 272.317,69.936 C 272.291,69.498 272.255,69.196 272.211,69.028 C 272.184,68.929 272.134,68.856 272.057,68.809 C 272.27,68.697 272.405,68.632 272.461,68.617 C 272.59,68.583 272.679,68.656 272.727,68.838 C 272.763,68.972 272.789,69.17 272.807,69.435 L 272.842,69.97 C 272.859,70.229 272.875,70.394 272.896,70.466 C 272.954,70.683 273.073,70.767 273.256,70.717 C 273.474,70.659 273.715,70.399 273.979,69.935 C 274.243,69.472 274.469,68.914 274.659,68.262 L 274.909,68.331 z M 272.231,67.64 L 272.268,67.633 C 272.383,67.597 272.535,67.492 272.723,67.321 C 272.911,67.149 273.051,66.989 273.143,66.839 C 273.131,67.1 273.049,67.339 272.899,67.552 C 272.67,67.879 272.503,68.056 272.399,68.084 C 272.329,68.102 272.283,68.068 272.26,67.984 C 272.228,67.862 272.218,67.748 272.231,67.64 z " />
        <path
           style="fill:#bbbbbb"
           id="path813"
           d="M 277.96,67.515 C 277.728,68.335 277.431,69.013 277.068,69.545 C 276.705,70.078 276.321,70.399 275.917,70.508 C 275.581,70.598 275.277,70.557 275.007,70.382 C 274.736,70.208 274.552,69.938 274.453,69.57 C 274.323,69.086 274.391,68.616 274.654,68.16 C 274.919,67.704 275.293,67.41 275.778,67.28 C 275.975,67.226 276.147,67.222 276.294,67.262 C 276.44,67.306 276.529,67.384 276.56,67.501 C 276.612,67.691 276.487,67.879 276.187,68.063 C 276.194,68.017 276.191,67.974 276.181,67.936 C 276.105,67.653 275.917,67.552 275.619,67.632 C 275.361,67.701 275.161,67.91 275.021,68.259 C 274.88,68.607 274.856,68.954 274.949,69.3 C 275.024,69.58 275.158,69.789 275.351,69.927 C 275.542,70.066 275.756,70.103 275.99,70.041 C 276.63,69.868 277.202,69.002 277.706,67.442 L 277.96,67.515 z " />
        <path
           style="fill:#bbbbbb"
           id="path815"
           d="M 280.093,67.17 C 280.11,67.211 280.122,67.247 280.131,67.28 C 280.266,67.783 280.213,68.267 279.971,68.733 C 279.731,69.2 279.381,69.493 278.922,69.616 C 278.572,69.71 278.258,69.675 277.978,69.51 C 277.698,69.345 277.509,69.084 277.414,68.728 C 277.306,68.322 277.352,67.932 277.559,67.557 C 277.763,67.184 278.059,66.945 278.446,66.841 C 278.506,66.825 278.57,66.816 278.64,66.815 C 278.576,66.748 278.536,66.687 278.522,66.633 C 278.5,66.55 278.507,66.463 278.544,66.37 C 278.979,66.291 279.39,66.413 279.779,66.737 C 280.121,66.857 280.449,66.875 280.761,66.791 C 280.965,66.736 281.166,66.608 281.365,66.406 L 281.555,66.594 C 281.33,66.863 281.073,67.035 280.783,67.113 C 280.591,67.165 280.359,67.185 280.093,67.17 z M 279.44,67.106 C 279.284,67.1 279.131,67.067 278.983,67.002 C 278.889,67.008 278.813,67.018 278.754,67.033 C 278.458,67.112 278.232,67.316 278.074,67.643 C 277.916,67.971 277.883,68.306 277.974,68.649 C 278.04,68.895 278.164,69.082 278.345,69.203 C 278.527,69.326 278.726,69.358 278.944,69.3 C 279.239,69.221 279.453,69.004 279.585,68.651 C 279.718,68.297 279.73,67.914 279.62,67.503 C 279.581,67.36 279.521,67.228 279.44,67.106 z " />
        <path
           style="fill:#bbbbbb"
           id="path817"
           d="M 282.012,67.709 C 282.281,66.236 282.661,65.435 283.155,65.303 C 283.54,65.2 283.835,65.531 284.04,66.296 L 284.13,66.61 C 284.228,66.974 284.314,67.222 284.389,67.352 C 284.464,67.482 284.551,67.534 284.651,67.506 C 284.8,67.467 284.938,67.303 285.065,67.013 C 285.191,66.725 285.375,66.165 285.611,65.331 L 285.865,65.4 C 285.676,66.225 285.476,66.852 285.266,67.283 C 285.057,67.714 284.832,67.961 284.592,68.026 C 284.37,68.085 284.187,68.019 284.039,67.831 C 283.893,67.641 283.749,67.281 283.607,66.755 L 283.546,66.531 C 283.47,66.245 283.399,66.05 283.33,65.944 C 283.263,65.838 283.184,65.797 283.094,65.821 C 282.864,65.883 282.615,66.44 282.351,67.494 C 282.286,67.751 282.243,67.918 282.224,67.992 C 282.153,68.262 282.13,68.447 282.159,68.552 C 282.171,68.593 282.192,68.63 282.224,68.663 C 282.134,68.732 282.054,68.776 281.985,68.795 C 281.808,68.843 281.694,68.769 281.642,68.573 C 281.626,68.517 281.582,68.261 281.508,67.803 L 281.412,67.222 C 281.375,66.974 281.338,66.784 281.303,66.652 C 281.253,66.467 281.172,66.334 281.061,66.251 C 281.094,66.229 281.149,66.191 281.226,66.139 C 281.324,66.071 281.405,66.029 281.469,66.011 C 281.604,65.975 281.698,66.056 281.751,66.253 C 281.779,66.357 281.813,66.54 281.856,66.801 C 281.866,66.859 281.876,66.911 281.883,66.964 L 282.012,67.709 z " />
        <path
           style="fill:#bbbbbb"
           id="path819"
           d="M 287.019,66.392 C 287.114,66.509 287.177,66.627 287.21,66.746 C 287.281,67.014 287.231,67.275 287.061,67.533 C 286.891,67.789 286.657,67.959 286.356,68.039 C 286.18,68.087 286.018,68.081 285.87,68.023 C 285.723,67.966 285.632,67.874 285.598,67.747 C 285.561,67.611 285.61,67.451 285.742,67.267 C 285.875,67.082 286.116,66.839 286.464,66.541 L 286.164,66.26 C 285.801,65.92 285.588,65.634 285.527,65.405 C 285.437,65.074 285.558,64.757 285.889,64.451 C 286.151,64.478 286.3,64.56 286.336,64.699 C 286.389,64.893 286.288,65.121 286.034,65.381 L 286.478,65.85 L 286.825,66.209 C 287.105,65.923 287.309,65.685 287.439,65.498 C 287.571,65.31 287.725,65.036 287.903,64.671 L 288.147,64.742 C 287.906,65.343 287.53,65.893 287.019,66.392 z M 286.638,66.745 C 286.199,67.158 285.999,67.44 286.04,67.592 C 286.078,67.735 286.201,67.779 286.408,67.723 C 286.562,67.681 286.672,67.596 286.741,67.468 C 286.808,67.339 286.821,67.192 286.777,67.028 C 286.751,66.931 286.704,66.837 286.638,66.745 z " />
        <path
           style="fill:#bbbbbb"
           id="path821"
           d="M 251.039,79.649 L 251.305,83.399 C 251.487,83.324 251.628,83.272 251.729,83.246 C 251.958,83.184 252.12,83.178 252.215,83.227 C 252.31,83.278 252.386,83.408 252.443,83.619 C 252.335,83.583 252.201,83.585 252.046,83.628 C 251.872,83.674 251.668,83.744 251.43,83.84 L 251.065,83.988 C 250.953,84.035 250.799,84.1 250.604,84.187 C 250.541,84.215 250.477,84.238 250.412,84.254 C 250.222,84.306 250.065,84.172 249.946,83.853 C 250.049,83.873 250.145,83.872 250.236,83.846 C 250.424,83.795 250.608,83.723 250.789,83.626 L 250.586,80.569 C 250.337,80.788 250.129,80.919 249.962,80.964 C 249.711,81.031 249.543,80.902 249.455,80.578 L 249.436,80.505 C 249.565,80.568 249.698,80.583 249.835,80.546 C 250.063,80.484 250.409,80.233 250.876,79.789 C 250.895,79.772 250.949,79.725 251.039,79.649 z " />
        <path
           style="fill:#bbbbbb"
           id="path823"
           d="M 254.648,78.683 L 254.914,82.433 C 255.097,82.357 255.237,82.306 255.339,82.279 C 255.568,82.217 255.729,82.212 255.824,82.261 C 255.919,82.311 255.995,82.441 256.052,82.652 C 255.943,82.616 255.811,82.619 255.654,82.661 C 255.482,82.708 255.277,82.778 255.039,82.873 L 254.675,83.022 C 254.562,83.069 254.407,83.134 254.213,83.221 C 254.15,83.248 254.085,83.271 254.022,83.288 C 253.83,83.339 253.674,83.206 253.555,82.886 C 253.658,82.907 253.754,82.905 253.846,82.88 C 254.034,82.829 254.218,82.756 254.398,82.66 L 254.195,79.603 C 253.946,79.821 253.737,79.953 253.571,79.997 C 253.321,80.064 253.152,79.936 253.064,79.611 L 253.044,79.538 C 253.174,79.602 253.308,79.617 253.443,79.58 C 253.671,79.518 254.019,79.267 254.485,78.823 C 254.504,78.805 254.559,78.757 254.648,78.683 z " />
        <path
           style="fill:#bbbbbb"
           id="path825"
           d="M 258.15,82.096 C 257.809,82.188 257.502,82.132 257.23,81.929 C 256.958,81.726 256.765,81.409 256.649,80.975 C 256.458,80.263 256.493,79.59 256.756,78.959 C 257.019,78.327 257.425,77.938 257.975,77.791 C 258.334,77.694 258.65,77.747 258.921,77.948 C 259.193,78.149 259.39,78.475 259.511,78.925 C 259.701,79.638 259.662,80.307 259.393,80.932 C 259.125,81.558 258.711,81.946 258.15,82.096 z M 258.287,81.749 C 258.624,81.659 258.862,81.357 259.001,80.846 C 259.139,80.334 259.131,79.786 258.975,79.207 C 258.746,78.356 258.372,78.001 257.851,78.142 C 257.514,78.232 257.279,78.532 257.144,79.038 C 257.01,79.545 257.022,80.093 257.178,80.68 C 257.406,81.529 257.775,81.887 258.287,81.749 z " />
        <path
           style="fill:#bbbbbb"
           id="path827"
           d="M 261.76,81.129 C 261.419,81.221 261.112,81.164 260.84,80.962 C 260.569,80.759 260.375,80.441 260.259,80.007 C 260.068,79.295 260.103,78.623 260.366,77.992 C 260.629,77.36 261.036,76.971 261.585,76.823 C 261.943,76.727 262.259,76.779 262.532,76.981 C 262.803,77.182 263.001,77.508 263.12,77.958 C 263.311,78.67 263.272,79.34 263.003,79.965 C 262.734,80.591 262.319,80.979 261.76,81.129 z M 261.896,80.782 C 262.233,80.692 262.47,80.39 262.609,79.878 C 262.748,79.366 262.739,78.819 262.584,78.24 C 262.356,77.388 261.982,77.034 261.459,77.175 C 261.123,77.265 260.888,77.564 260.753,78.071 C 260.619,78.578 260.63,79.126 260.788,79.713 C 261.016,80.562 261.385,80.919 261.896,80.782 z " />
        <path
           style="fill:#bbbbbb"
           id="path829"
           d="M 265.902,78.938 C 265.977,79.222 266.115,79.423 266.314,79.543 C 266.513,79.663 266.752,79.687 267.026,79.612 C 267.271,79.548 267.464,79.417 267.604,79.222 C 267.744,79.027 267.788,78.832 267.736,78.636 C 267.679,78.425 267.403,78.188 266.909,77.924 L 266.551,77.735 C 266.092,77.492 265.824,77.226 265.747,76.94 C 265.657,76.605 265.715,76.295 265.918,76.009 C 266.121,75.723 266.425,75.527 266.827,75.418 C 267.042,75.36 267.224,75.347 267.374,75.377 C 267.524,75.407 267.612,75.474 267.641,75.578 C 267.668,75.681 267.654,75.812 267.596,75.973 C 267.366,75.722 267.081,75.642 266.74,75.733 C 266.528,75.79 266.367,75.904 266.257,76.075 C 266.148,76.245 266.118,76.427 266.17,76.619 C 266.205,76.748 266.255,76.841 266.32,76.895 C 266.386,76.952 266.575,77.059 266.884,77.221 L 267.177,77.374 C 267.711,77.658 268.021,77.959 268.106,78.275 C 268.206,78.645 268.141,78.99 267.915,79.311 C 267.686,79.632 267.352,79.853 266.906,79.972 C 266.608,80.051 266.344,80.048 266.113,79.96 C 265.881,79.873 265.736,79.723 265.679,79.511 C 265.64,79.367 265.715,79.176 265.902,78.938 z " />
        <path
           style="fill:#bbbbbb"
           id="path831"
           d="M 269.369,77.819 C 269.505,78.328 269.789,78.525 270.221,78.409 C 270.597,78.309 270.962,78.019 271.318,77.543 C 271.673,77.065 271.955,76.486 272.161,75.807 L 272.416,75.87 C 272.245,76.599 271.942,77.246 271.509,77.81 C 271.076,78.374 270.613,78.722 270.124,78.853 C 269.811,78.938 269.536,78.903 269.3,78.749 C 269.064,78.595 268.899,78.344 268.805,77.994 C 268.669,77.488 268.719,77.012 268.953,76.564 C 269.186,76.116 269.536,75.83 270.001,75.706 C 270.227,75.645 270.421,75.654 270.586,75.731 C 270.752,75.807 270.86,75.941 270.911,76.131 C 270.994,76.442 270.881,76.768 270.569,77.11 C 270.257,77.452 269.856,77.688 269.369,77.819 z M 269.322,77.562 C 269.681,77.445 269.968,77.257 270.177,76.999 C 270.387,76.739 270.459,76.484 270.393,76.235 C 270.333,76.013 270.204,75.928 270.004,75.982 C 269.766,76.045 269.582,76.231 269.448,76.538 C 269.316,76.847 269.274,77.188 269.322,77.562 z " />
        <path
           style="fill:#bbbbbb"
           id="path833"
           d="M 274.077,76.012 C 273.976,76.533 273.806,77.001 273.566,77.411 C 273.326,77.822 273.084,78.06 272.841,78.125 C 272.656,78.175 272.486,78.132 272.332,77.997 C 272.177,77.862 272.062,77.657 271.989,77.385 C 271.843,76.839 271.88,76.315 272.098,75.812 C 272.318,75.308 272.644,74.999 273.078,74.882 C 273.342,74.812 273.648,74.817 274,74.897 C 274.002,74.724 274.165,74.593 274.488,74.507 C 274.509,74.501 274.543,74.493 274.591,74.483 C 274.532,74.661 274.512,74.888 274.531,75.166 L 274.545,75.399 C 274.562,75.66 274.613,75.956 274.702,76.287 C 274.804,76.668 274.944,76.835 275.122,76.787 C 275.31,76.736 275.524,76.511 275.768,76.108 C 276.009,75.707 276.223,75.22 276.409,74.65 L 276.65,74.736 C 276.482,75.398 276.242,75.976 275.931,76.471 C 275.619,76.966 275.315,77.254 275.017,77.333 C 274.64,77.434 274.369,77.171 274.201,76.544 C 274.167,76.413 274.125,76.235 274.077,76.012 z M 274.031,75.354 C 273.6,75.213 273.265,75.176 273.023,75.241 C 272.759,75.311 272.575,75.533 272.468,75.904 C 272.362,76.276 272.368,76.681 272.486,77.121 C 272.581,77.474 272.744,77.619 272.974,77.558 C 273.223,77.492 273.552,76.815 273.963,75.531 C 273.969,75.514 273.991,75.454 274.031,75.354 z " />
        <path
           style="fill:#bbbbbb"
           id="path835"
           d="M 280.585,73.917 C 280.603,73.958 280.615,73.995 280.623,74.028 C 280.758,74.531 280.705,75.015 280.464,75.48 C 280.223,75.947 279.874,76.241 279.415,76.364 C 279.064,76.458 278.75,76.422 278.47,76.257 C 278.19,76.093 278.002,75.832 277.906,75.476 C 277.798,75.07 277.844,74.679 278.052,74.305 C 278.255,73.931 278.552,73.692 278.939,73.588 C 278.998,73.573 279.062,73.564 279.132,73.563 C 279.069,73.496 279.028,73.435 279.014,73.381 C 278.992,73.298 278.999,73.211 279.036,73.118 C 279.47,73.039 279.882,73.161 280.271,73.484 C 280.614,73.605 280.941,73.622 281.253,73.539 C 281.457,73.484 281.658,73.356 281.857,73.154 L 282.048,73.342 C 281.822,73.61 281.565,73.783 281.275,73.861 C 281.082,73.913 280.853,73.932 280.585,73.917 z M 279.933,73.854 C 279.777,73.849 279.624,73.814 279.477,73.751 C 279.382,73.756 279.305,73.766 279.247,73.782 C 278.951,73.861 278.725,74.065 278.568,74.392 C 278.41,74.72 278.377,75.055 278.467,75.398 C 278.533,75.644 278.658,75.83 278.839,75.952 C 279.021,76.075 279.219,76.107 279.437,76.049 C 279.732,75.97 279.946,75.753 280.078,75.399 C 280.211,75.046 280.224,74.663 280.112,74.252 C 280.074,74.108 280.014,73.976 279.933,73.854 z " />
        <path
           style="fill:#bbbbbb"
           id="path837"
           d="M 281.718,73.447 L 281.665,73.462 C 281.406,73.531 281.197,73.656 281.037,73.838 C 281.02,73.604 281.044,73.445 281.108,73.363 C 281.173,73.282 281.336,73.207 281.596,73.137 L 281.695,73.11 L 281.666,72.657 C 281.627,72.041 281.702,71.567 281.89,71.241 C 282.121,70.836 282.429,70.581 282.814,70.478 C 282.964,70.438 283.102,70.438 283.229,70.478 C 283.355,70.52 283.432,70.589 283.458,70.688 C 283.485,70.791 283.404,70.936 283.215,71.127 C 283.081,70.877 282.903,70.782 282.68,70.842 C 282.284,70.947 282.117,71.454 282.176,72.36 L 282.216,72.971 L 283.126,72.727 C 283.541,72.615 283.841,72.511 284.023,72.414 C 283.989,72.621 283.923,72.757 283.827,72.823 C 283.729,72.889 283.459,72.981 283.015,73.1 L 282.235,73.309 L 282.387,75.668 C 282.401,75.897 282.429,76.091 282.473,76.253 C 282.499,76.357 282.547,76.442 282.615,76.515 C 282.457,76.619 282.331,76.684 282.237,76.708 C 282.092,76.747 281.999,76.685 281.956,76.523 C 281.922,76.396 281.894,76.179 281.874,75.873 L 281.718,73.447 z " />
        <path
           style="fill:#bbbbbb"
           id="path839"
           d="M 288.831,71.48 C 288.6,72.3 288.302,72.977 287.939,73.511 C 287.576,74.044 287.192,74.365 286.789,74.474 C 286.452,74.564 286.148,74.522 285.878,74.348 C 285.608,74.174 285.423,73.903 285.325,73.536 C 285.195,73.052 285.262,72.581 285.526,72.125 C 285.79,71.669 286.164,71.376 286.649,71.246 C 286.847,71.192 287.018,71.187 287.165,71.229 C 287.311,71.27 287.4,71.35 287.433,71.467 C 287.483,71.657 287.36,71.845 287.059,72.029 C 287.065,71.983 287.062,71.94 287.052,71.901 C 286.977,71.619 286.789,71.517 286.49,71.597 C 286.231,71.667 286.031,71.876 285.891,72.225 C 285.75,72.573 285.726,72.919 285.819,73.266 C 285.895,73.546 286.029,73.755 286.221,73.893 C 286.413,74.031 286.626,74.069 286.86,74.006 C 287.501,73.834 288.073,72.968 288.577,71.408 L 288.831,71.48 z " />
        <path
           style="fill:#bbbbbb"
           id="path841"
           d="M 290.965,71.137 C 290.981,71.177 290.993,71.213 291.002,71.247 C 291.138,71.75 291.084,72.234 290.844,72.7 C 290.602,73.166 290.253,73.46 289.794,73.583 C 289.444,73.678 289.129,73.642 288.849,73.477 C 288.569,73.312 288.381,73.051 288.286,72.695 C 288.177,72.289 288.224,71.899 288.43,71.524 C 288.635,71.151 288.931,70.912 289.318,70.808 C 289.377,70.791 289.442,70.783 289.512,70.781 C 289.447,70.715 289.408,70.654 289.393,70.6 C 289.372,70.517 289.378,70.429 289.415,70.337 C 289.85,70.258 290.262,70.38 290.65,70.704 C 290.992,70.824 291.32,70.842 291.632,70.758 C 291.836,70.703 292.038,70.576 292.237,70.374 L 292.426,70.562 C 292.202,70.831 291.945,71.002 291.654,71.081 C 291.462,71.132 291.231,71.151 290.965,71.137 z M 290.312,71.072 C 290.157,71.067 290.004,71.033 289.855,70.969 C 289.761,70.974 289.685,70.985 289.626,71 C 289.329,71.079 289.104,71.283 288.945,71.611 C 288.789,71.938 288.754,72.273 288.846,72.615 C 288.912,72.862 289.035,73.048 289.217,73.17 C 289.398,73.292 289.597,73.325 289.816,73.267 C 290.111,73.188 290.324,72.971 290.456,72.618 C 290.59,72.264 290.602,71.881 290.491,71.469 C 290.452,71.327 290.393,71.194 290.312,71.072 z " />
        <path
           style="fill:#bbbbbb"
           id="path843"
           d="M 294.595,69.946 C 294.417,70.727 294.199,71.361 293.94,71.846 C 293.68,72.333 293.411,72.614 293.13,72.689 C 292.927,72.744 292.741,72.709 292.573,72.585 C 292.405,72.461 292.288,72.273 292.219,72.018 C 292.181,71.875 292.153,71.666 292.135,71.392 L 291.952,68.639 C 291.887,68.667 291.829,68.689 291.778,68.702 C 291.379,68.809 291.133,68.694 291.044,68.356 L 291.027,68.294 C 291.268,68.356 291.519,68.353 291.782,68.282 C 292.045,68.211 292.257,68.085 292.419,67.902 L 292.655,71.206 C 292.676,71.502 292.702,71.703 292.73,71.81 C 292.809,72.104 292.957,72.223 293.172,72.164 C 293.381,72.108 293.56,71.935 293.708,71.643 C 293.856,71.351 294.069,70.754 294.345,69.858 L 294.595,69.946 z " />
        <path
           style="fill:#bbbbbb"
           id="path845"
           d="M 296.724,69.594 C 296.741,69.634 296.753,69.67 296.762,69.703 C 296.896,70.206 296.844,70.691 296.602,71.157 C 296.362,71.623 296.012,71.917 295.553,72.04 C 295.203,72.134 294.889,72.098 294.609,71.934 C 294.328,71.769 294.14,71.508 294.045,71.152 C 293.937,70.745 293.984,70.355 294.189,69.982 C 294.394,69.607 294.69,69.369 295.077,69.265 C 295.137,69.248 295.2,69.24 295.271,69.238 C 295.207,69.172 295.167,69.111 295.153,69.057 C 295.131,68.974 295.138,68.886 295.175,68.794 C 295.609,68.715 296.021,68.837 296.41,69.161 C 296.752,69.281 297.079,69.299 297.391,69.215 C 297.595,69.16 297.796,69.032 297.996,68.83 L 298.186,69.018 C 297.96,69.287 297.703,69.458 297.414,69.537 C 297.221,69.589 296.99,69.608 296.724,69.594 z M 296.071,69.529 C 295.914,69.524 295.762,69.49 295.614,69.426 C 295.52,69.431 295.443,69.442 295.385,69.457 C 295.089,69.536 294.863,69.74 294.705,70.067 C 294.547,70.395 294.514,70.73 294.605,71.072 C 294.671,71.319 294.795,71.505 294.976,71.627 C 295.158,71.749 295.357,71.782 295.574,71.724 C 295.87,71.644 296.084,71.428 296.216,71.074 C 296.348,70.72 296.361,70.338 296.25,69.926 C 296.212,69.784 296.152,69.651 296.071,69.529 z " />
        <path
           style="fill:#bbbbbb"
           id="path847"
           d="M 298.658,71.118 C 298.554,71.206 298.466,71.259 298.394,71.279 C 298.215,71.327 298.106,71.271 298.063,71.115 C 298.042,71.035 298.02,70.827 297.998,70.491 L 297.954,69.805 C 297.931,69.397 297.893,69.099 297.844,68.912 C 297.818,68.811 297.766,68.733 297.69,68.682 C 297.856,68.571 297.997,68.499 298.111,68.469 C 298.234,68.437 298.315,68.497 298.356,68.652 C 298.382,68.749 298.406,69.012 298.429,69.442 L 298.485,70.242 C 298.642,69.515 298.84,68.93 299.079,68.486 C 299.316,68.043 299.572,67.784 299.843,67.711 C 299.939,67.686 300.029,67.69 300.114,67.727 C 300.198,67.762 300.252,67.821 300.272,67.899 C 300.304,68.02 300.215,68.217 300.005,68.49 C 299.901,68.371 299.789,68.327 299.667,68.359 C 299.446,68.419 299.228,68.729 299.011,69.293 C 298.877,69.643 298.775,69.994 298.701,70.348 C 298.627,70.701 298.608,70.944 298.644,71.076 L 298.658,71.118 z " />
        <path
           style="fill:#bbbbbb"
           id="path849"
           d="M 302.229,69.196 C 302.324,69.312 302.387,69.43 302.419,69.55 C 302.49,69.817 302.441,70.078 302.271,70.336 C 302.101,70.594 301.866,70.762 301.566,70.843 C 301.39,70.89 301.227,70.884 301.08,70.827 C 300.932,70.769 300.841,70.678 300.807,70.551 C 300.771,70.415 300.82,70.254 300.952,70.07 C 301.084,69.886 301.326,69.644 301.675,69.344 L 301.375,69.064 C 301.011,68.723 300.798,68.439 300.736,68.209 C 300.647,67.879 300.768,67.561 301.099,67.255 C 301.361,67.282 301.509,67.364 301.546,67.502 C 301.598,67.696 301.498,67.925 301.244,68.185 L 301.688,68.654 L 302.035,69.014 C 302.314,68.726 302.519,68.489 302.649,68.301 C 302.78,68.114 302.935,67.839 303.114,67.474 L 303.356,67.546 C 303.115,68.147 302.741,68.697 302.229,69.196 z M 301.848,69.551 C 301.409,69.962 301.209,70.244 301.249,70.396 C 301.288,70.54 301.41,70.583 301.618,70.528 C 301.77,70.487 301.883,70.402 301.95,70.272 C 302.018,70.143 302.03,69.996 301.986,69.833 C 301.96,69.734 301.914,69.641 301.848,69.551 z " />
        <path
           style="fill:#bbbbbb"
           id="path851"
           d="M 252.022,90.632 C 252.021,90.443 251.982,90.204 251.904,89.916 C 251.716,89.21 251.478,88.543 251.191,87.916 C 250.906,87.291 250.631,86.836 250.37,86.554 C 250.536,86.463 250.658,86.407 250.738,86.386 C 250.853,86.355 250.953,86.386 251.033,86.479 C 251.116,86.572 251.251,86.807 251.44,87.186 C 251.732,87.769 252.05,88.588 252.395,89.645 C 252.656,88.291 252.879,87.224 253.064,86.446 C 253.085,86.436 253.102,86.428 253.112,86.425 C 253.181,86.39 253.228,86.369 253.255,86.362 C 253.401,86.323 253.49,86.373 253.527,86.51 C 253.538,86.55 253.547,86.601 253.553,86.662 C 253.636,87.246 253.714,87.674 253.786,87.943 L 253.858,88.244 L 253.903,88.423 C 254.078,89.075 254.265,89.375 254.464,89.321 C 254.691,89.26 254.86,88.962 254.97,88.425 C 255.092,87.826 255.058,87.173 254.868,86.466 C 254.787,86.161 254.634,85.899 254.409,85.677 C 254.526,85.613 254.637,85.567 254.739,85.539 C 254.899,85.496 255.025,85.51 255.115,85.582 C 255.205,85.654 255.28,85.801 255.339,86.021 C 255.53,86.737 255.52,87.52 255.307,88.375 C 255.208,88.767 255.07,89.105 254.892,89.389 C 254.712,89.675 254.535,89.841 254.358,89.889 C 254.159,89.942 253.99,89.868 253.848,89.669 C 253.709,89.469 253.566,89.098 253.42,88.555 C 253.362,88.337 253.283,87.999 253.185,87.542 C 252.96,88.384 252.801,89.071 252.707,89.605 L 252.671,89.819 C 252.616,90.107 252.559,90.288 252.501,90.362 C 252.443,90.435 252.284,90.524 252.022,90.632 z " />
        <path
           style="fill:#bbbbbb"
           id="path853"
           d="M 258.972,86.589 C 258.989,86.629 259.001,86.666 259.01,86.698 C 259.145,87.202 259.092,87.686 258.851,88.152 C 258.61,88.618 258.26,88.912 257.801,89.035 C 257.451,89.129 257.137,89.094 256.857,88.929 C 256.577,88.764 256.388,88.504 256.293,88.146 C 256.185,87.74 256.231,87.351 256.438,86.977 C 256.642,86.603 256.938,86.364 257.325,86.26 C 257.385,86.243 257.449,86.235 257.519,86.233 C 257.455,86.167 257.415,86.106 257.401,86.052 C 257.379,85.97 257.386,85.881 257.423,85.789 C 257.857,85.71 258.269,85.832 258.658,86.156 C 259,86.275 259.328,86.294 259.639,86.21 C 259.843,86.156 260.044,86.028 260.244,85.826 L 260.434,86.014 C 260.209,86.283 259.951,86.455 259.662,86.533 C 259.469,86.584 259.238,86.603 258.972,86.589 z M 258.319,86.524 C 258.163,86.52 258.01,86.485 257.862,86.421 C 257.768,86.426 257.692,86.437 257.633,86.451 C 257.337,86.531 257.111,86.735 256.953,87.063 C 256.795,87.39 256.762,87.725 256.853,88.067 C 256.919,88.315 257.043,88.5 257.224,88.623 C 257.406,88.744 257.605,88.776 257.822,88.719 C 258.118,88.64 258.332,88.423 258.464,88.07 C 258.597,87.716 258.609,87.334 258.499,86.922 C 258.46,86.778 258.4,86.646 258.319,86.524 z " />
        <path
           style="fill:#bbbbbb"
           id="path855"
           d="M 260.906,88.113 C 260.802,88.201 260.714,88.255 260.642,88.274 C 260.464,88.321 260.354,88.266 260.312,88.11 C 260.291,88.03 260.268,87.821 260.246,87.486 L 260.202,86.8 C 260.179,86.391 260.141,86.094 260.092,85.908 C 260.066,85.806 260.014,85.729 259.939,85.677 C 260.104,85.566 260.245,85.494 260.36,85.464 C 260.482,85.432 260.563,85.492 260.606,85.648 C 260.63,85.744 260.655,86.006 260.677,86.438 L 260.734,87.237 C 260.89,86.509 261.088,85.924 261.327,85.48 C 261.566,85.036 261.82,84.778 262.091,84.706 C 262.187,84.681 262.278,84.685 262.362,84.721 C 262.446,84.758 262.5,84.816 262.52,84.895 C 262.552,85.016 262.464,85.213 262.253,85.486 C 262.149,85.366 262.037,85.322 261.916,85.354 C 261.694,85.414 261.476,85.725 261.26,86.287 C 261.125,86.638 261.023,86.989 260.949,87.342 C 260.875,87.696 260.857,87.939 260.892,88.071 L 260.906,88.113 z " />
        <path
           style="fill:#bbbbbb"
           id="path857"
           d="M 265.495,84.623 C 265.318,85.404 265.099,86.037 264.84,86.523 C 264.581,87.01 264.312,87.291 264.031,87.366 C 263.827,87.421 263.642,87.386 263.474,87.262 C 263.306,87.138 263.189,86.95 263.12,86.695 C 263.083,86.552 263.055,86.343 263.037,86.069 L 262.853,83.316 C 262.789,83.344 262.731,83.366 262.68,83.379 C 262.28,83.486 262.035,83.371 261.945,83.033 L 261.928,82.971 C 262.169,83.033 262.421,83.03 262.683,82.959 C 262.946,82.889 263.159,82.762 263.32,82.579 L 263.557,85.883 C 263.578,86.179 263.604,86.38 263.632,86.487 C 263.711,86.781 263.858,86.9 264.074,86.841 C 264.283,86.785 264.462,86.612 264.609,86.32 C 264.758,86.028 264.97,85.431 265.247,84.535 L 265.495,84.623 z " />
        <path
           style="fill:#bbbbbb"
           id="path859"
           d="M 267.139,84.824 C 266.998,85.386 266.819,85.851 266.599,86.217 C 266.378,86.583 266.152,86.798 265.919,86.861 C 265.732,86.911 265.563,86.869 265.409,86.735 C 265.256,86.602 265.142,86.398 265.069,86.125 C 264.921,85.574 264.956,85.048 265.173,84.546 C 265.389,84.045 265.713,83.736 266.147,83.621 C 266.407,83.551 266.711,83.558 267.062,83.641 L 266.967,82.163 C 266.822,82.235 266.699,82.285 266.598,82.312 C 266.445,82.353 266.323,82.346 266.232,82.292 C 266.141,82.239 266.046,82.117 265.95,81.929 C 266.098,81.983 266.303,81.973 266.562,81.903 C 266.885,81.818 267.18,81.674 267.448,81.476 L 267.644,84.493 C 267.665,84.83 267.706,85.111 267.765,85.337 C 267.845,85.636 267.972,85.763 268.142,85.717 C 268.309,85.672 268.535,85.402 268.818,84.905 C 269.103,84.407 269.318,83.91 269.462,83.412 L 269.713,83.491 C 269.555,84.142 269.305,84.754 268.96,85.326 C 268.616,85.899 268.306,86.222 268.029,86.296 C 267.677,86.391 267.425,86.155 267.274,85.59 C 267.211,85.356 267.166,85.101 267.139,84.824 z M 267.091,84.094 C 266.665,83.951 266.333,83.912 266.092,83.978 C 265.832,84.047 265.65,84.268 265.545,84.64 C 265.44,85.012 265.447,85.417 265.564,85.855 C 265.659,86.208 265.821,86.353 266.05,86.292 C 266.297,86.227 266.625,85.551 267.034,84.267 C 267.041,84.243 267.061,84.187 267.091,84.094 z " />
      </g>
      <polygon
         style="fill:#ff8080"
         transform="matrix(1.079633,9.445546e-2,-9.445546e-2,1.079633,-143.9426,-20.41174)"
         id="polygon889"
         points="223.791,44.298 219.147,45.542 220.681,41.309 225.323,40.065 223.791,44.298 " />
      <rect
         transform="matrix(0.983651,-0.180084,0.180084,0.983651,0,0)"
         y="56.89275"
         x="-0.081969962"
         height="57.67049"
         width="99.878296"
         id="rect5303"
         style="fill:none;fill-opacity:1;fill-rule:nonzero;stroke:#d4d4d4;stroke-width:1.05731452;stroke-linecap:butt;stroke-linejoin:miter;stroke-miterlimit:4;stroke-dasharray:none;stroke-dashoffset:4;stroke-opacity:1" />
      <rect
         style="fill:#ffffff;fill-opacity:1;fill-rule:nonzero;stroke:#d4d4d4;stroke-width:1.36456347;stroke-linecap:round;stroke-linejoin:miter;stroke-miterlimit:4;stroke-dasharray:none;stroke-dashoffset:4;stroke-opacity:1"
         id="rect5305"
         width="28.938486"
         height="34.7085"
         x="0.0062060175"
         y="57.208241"
         transform="matrix(0.983651,-0.180084,0.180084,0.983651,0,0)" />
      <path
         id="path3220"
         style="fill:url(#linearGradient7300);fill-opacity:1;stroke:none;stroke-width:2;stroke-miterlimit:4;stroke-dasharray:none;stroke-opacity:1"
         d="M 25.889622,57.5275 C 24.181489,57.956936 22.614113,59.067116 21.950209,60.817918 C 21.80096,61.211517 21.806196,61.461098 21.787918,61.840707 C 21.769636,62.220291 21.777813,62.674106 21.812701,63.161112 C 21.880626,64.109166 22.028374,65.189977 22.254676,66.327713 C 22.707644,68.605046 23.364964,70.821618 24.166379,72.079011 C 24.966883,73.334989 25.244175,75.341506 24.993027,76.103991 C 24.681568,77.049602 23.790348,77.986265 22.14662,78.867052 C 20.312803,79.849692 18.87685,80.742551 17.937577,82.073371 C 17.106031,83.25157 16.64467,84.524015 16.865264,86.008542 L 17.191246,88.202306 L 17.344648,89.234672 L 18.235145,89.074869 L 42.94638,84.640346 L 43.836875,84.480544 L 43.683471,83.448177 L 43.35749,81.254415 C 43.136898,79.769885 42.331165,78.724827 41.201759,77.898528 C 39.940212,76.975552 38.314441,76.590305 36.278438,76.29793 C 34.451703,76.035595 33.346616,75.483284 32.784859,74.705718 C 32.32604,74.070638 32.008102,72.071416 32.403456,70.600839 C 32.799264,69.128598 32.780804,66.797377 32.551023,64.479995 C 32.436224,63.322251 32.263431,62.24592 32.053394,61.323382 C 31.945503,60.849476 31.821887,60.416376 31.694676,60.062903 C 31.56746,59.709402 31.500176,59.470957 31.24475,59.149978 C 30.114152,57.729287 28.283054,57.09799 26.501839,57.417635 L 25.945278,57.517513 L 25.917451,57.522507 L 25.889622,57.5275 z " />
      <path
         id="path2377"
         d="M 25.75104,57.553493 C 24.05848,57.990143 22.515297,59.097251 21.856582,60.834385 C 21.707334,61.22797 21.707271,61.476723 21.688987,61.856321 C 21.67071,62.235915 21.684309,62.694256 21.7192,63.181263 C 21.78712,64.129318 21.935256,65.207411 22.161556,66.345133 C 22.614522,68.622463 23.270143,70.837873 24.071563,72.095279 C 24.872065,73.35124 25.14978,75.356506 24.898632,76.11899 C 24.587173,77.064602 23.695836,78.000415 22.052113,78.881202 C 20.218294,79.863843 18.781071,80.761972 17.8418,82.092807 C 17.320134,82.831934 16.942079,83.60415 16.788765,84.446562 C 25.785775,85.514848 39.686808,79.57924 43.037948,80.373685 C 42.676732,79.348801 41.990143,78.566959 41.103645,77.918383 C 39.842094,76.995394 38.220595,76.605969 36.184585,76.313583 C 34.357855,76.051245 33.25267,75.498213 32.690911,74.720637 C 32.232092,74.085557 31.914916,72.087375 32.310275,70.616809 C 32.706079,69.144557 32.686344,66.815037 32.456564,64.497656 C 32.341768,63.339924 32.170132,62.266049 31.960094,61.343496 C 31.852202,60.86959 31.725654,60.431518 31.598438,60.078032 C 31.471228,59.724545 31.405923,59.487524 31.150496,59.166558 C 30.019901,57.745869 28.188375,57.116103 26.407159,57.435748 L 25.8525,57.535285 L 25.818681,57.541354 L 25.791623,57.54621 C 25.778281,57.54958 25.764368,57.55007 25.75104,57.553493 z "
         style="opacity:0.17213117;fill:url(#linearGradient7297);fill-opacity:1;fill-rule:evenodd;stroke:none;stroke-width:1px;stroke-linecap:butt;stroke-linejoin:miter;stroke-opacity:1" />
      <path
         id="path3271"
         d="M 25.822926,57.655083 C 24.14595,58.098703 22.622625,59.205112 21.969056,60.928691 C 21.819806,61.322276 21.819743,61.571028 21.801462,61.950625 C 21.783184,62.330221 21.796782,62.788563 21.831675,63.275568 C 21.899593,64.223611 22.047731,65.301703 22.274029,66.439438 C 22.371105,66.927489 22.477977,67.412173 22.593106,67.885716 C 23.85877,64.400272 25.869416,61.08282 29.303125,57.802005 C 28.43736,57.455003 27.471225,57.359287 26.519633,57.530055 L 25.964973,57.62959 L 25.931153,57.63566 L 25.904098,57.640517 C 25.902429,57.640936 25.899019,57.6414 25.897333,57.641729 C 25.890557,57.642878 25.87705,57.645435 25.870277,57.646585 C 25.868596,57.646938 25.865177,57.647365 25.863512,57.647798 C 25.850292,57.651217 25.836132,57.651587 25.822926,57.655083 z M 31.934144,60.88012 C 25.80081,68.193618 25.876722,75.060144 26.415467,83.888344 C 33.631857,82.529086 40.858872,79.924725 43.150425,80.46799 C 42.789204,79.443106 42.102618,78.661263 41.216117,78.012674 C 39.954572,77.089697 38.333068,76.700275 36.297059,76.407888 C 34.470327,76.14555 33.365142,75.592507 32.803385,74.814942 C 32.344562,74.179851 32.027388,72.181669 32.422747,70.711116 C 32.818554,69.238864 32.79882,66.909343 32.569039,64.591961 C 32.454241,63.434215 32.282602,62.36034 32.072568,61.437801 C 32.028738,61.245281 31.982925,61.057545 31.934144,60.88012 z M 20.233473,80.093497 C 19.300374,80.705925 18.533002,81.36711 17.954272,82.187097 C 17.432608,82.92624 17.054551,83.698456 16.901241,84.540868 C 17.796407,84.647152 18.741294,84.683943 19.718333,84.665083 C 19.911606,83.096183 20.071837,81.574314 20.233473,80.093497 z "
         style="opacity:0.24590167;fill:url(#linearGradient7294);fill-opacity:1;fill-rule:evenodd;stroke:none;stroke-width:1px;stroke-linecap:butt;stroke-linejoin:miter;stroke-opacity:1" />
      <polygon
         points="223.791,44.298 219.147,45.542 220.681,41.309 225.323,40.065 223.791,44.298 "
         id="polygon5493"
         transform="matrix(1.079633,9.445546e-2,-9.445546e-2,1.079633,-155.6831,-18.36763)"
         style="fill:#ff8080" />
      <polygon
         style="fill:#ff8080"
         transform="matrix(1.079633,9.445546e-2,-9.445546e-2,1.079633,-167.4235,-16.32353)"
         id="polygon5495"
         points="223.791,44.298 219.147,45.542 220.681,41.309 225.323,40.065 223.791,44.298 " />
      <polygon
         points="223.791,44.298 219.147,45.542 220.681,41.309 225.323,40.065 223.791,44.298 "
         id="polygon5497"
         transform="matrix(1.079633,9.445546e-2,-9.445546e-2,1.079633,-190.9045,-12.23531)"
         style="fill:#ff8080" />
      <polygon
         style="fill:#ff8080"
         transform="matrix(1.079633,9.445546e-2,-9.445546e-2,1.079633,-132.2021,-22.45584)"
         id="polygon5499"
         points="223.791,44.298 219.147,45.542 220.681,41.309 225.323,40.065 223.791,44.298 " />
      <polygon
         points="223.791,44.298 219.147,45.542 220.681,41.309 225.323,40.065 223.791,44.298 "
         id="polygon7286"
         transform="matrix(1.079633,9.445546e-2,-9.445546e-2,1.079633,-179.164,-14.27942)"
         style="fill:#ff8080" />
      <path
         id="path8923"
         d="M 108.14738,81.247168 C 107.08943,81.300471 105.91528,81.461052 104.69185,81.685966 C 101.65936,82.243459 99.142252,83.217778 98.000191,84.1542 C 97.998044,84.154142 97.983587,84.154224 97.981908,84.1542 C 97.978637,84.157617 97.966901,84.16909 97.963625,84.172484 C 97.96194,84.17246 97.947489,84.172542 97.945341,84.172484 C 97.938859,84.175397 97.915035,84.187508 97.908775,84.190767 C 97.904949,84.194488 97.892001,84.207312 97.890492,84.20905 C 97.888187,84.211531 97.877082,84.222612 97.872209,84.227333 C 97.868885,84.23006 97.856681,84.242241 97.853925,84.245616 C 97.851187,84.249016 97.838918,84.261109 97.835642,84.2639 C 97.831476,84.263958 97.81819,84.264087 97.817359,84.2639 C 97.389455,84.525698 97.065892,84.928549 96.903198,85.397459 C 96.90115,85.3975 96.8866,85.397471 96.884915,85.397459 C 96.884839,85.401748 96.88485,85.415058 96.884915,85.415743 C 96.883259,85.417416 96.868685,85.431908 96.866631,85.434026 C 96.866807,85.435752 96.866585,85.450735 96.866631,85.452309 C 96.866772,85.458651 96.866468,85.482527 96.866631,85.488875 C 96.863449,85.492023 96.851724,85.504023 96.848348,85.507159 C 96.848436,85.509253 96.848313,85.523774 96.848348,85.525442 C 96.848196,85.526975 96.848301,85.54221 96.848348,85.543725 C 96.848407,85.545246 96.848477,85.56047 96.848348,85.562008 C 96.845183,85.565162 96.833458,85.577161 96.830065,85.580292 C 96.830153,85.582386 96.83003,85.596907 96.830065,85.598575 C 96.82993,85.600113 96.83003,85.615343 96.830065,85.616858 C 96.830118,85.618379 96.830176,85.633597 96.830065,85.635141 C 96.826923,85.638301 96.815193,85.6503 96.811782,85.653424 C 96.81187,85.655519 96.811747,85.67004 96.811782,85.671708 C 96.811671,85.672954 96.811758,85.686007 96.811782,85.689991 C 96.811717,85.694063 96.811665,85.707256 96.811782,85.708274 C 96.811875,85.710486 96.811928,85.724047 96.811782,85.726557 C 96.808476,85.729904 96.796798,85.741494 96.793499,85.74484 C 96.793376,85.747046 96.793475,85.760813 96.793499,85.763124 C 96.793943,85.77032 96.79375,85.793056 96.793499,85.79969 C 96.793633,85.800901 96.793458,85.816528 96.793499,85.817973 C 96.793586,85.819518 96.793475,85.83473 96.793499,85.836257 C 96.793545,85.842569 96.793428,85.866504 96.793499,85.872823 C 96.790193,85.876199 96.778515,85.88773 96.775215,85.891106 C 96.775268,85.892797 96.775204,85.907822 96.775215,85.909389 C 96.775297,85.912871 96.775367,85.92549 96.775215,85.927673 C 96.775256,85.931113 96.775215,85.943668 96.775215,85.945956 C 96.775479,85.955171 96.775631,85.973507 96.775215,85.982522 C 96.775303,85.984898 96.775362,85.996412 96.775215,86.000806 C 96.775268,86.003871 96.775303,86.016076 96.775215,86.019089 C 96.775098,86.023488 96.775303,86.032972 96.775215,86.037372 C 96.774853,86.055486 96.77511,86.074032 96.775215,86.092222 C 96.775262,86.101062 96.775057,86.101647 96.775215,86.110505 C 96.775479,86.128718 96.774466,86.147077 96.775215,86.165355 C 96.775163,86.166531 96.775221,86.182199 96.775215,86.183638 C 96.775133,86.18668 96.77504,86.198867 96.775215,86.201921 C 96.775145,86.205379 96.775063,86.217975 96.775215,86.220204 C 96.775163,86.221725 96.775227,86.236966 96.775215,86.238487 C 96.775174,86.240155 96.775303,86.254676 96.775215,86.256771 C 96.7769,86.256724 96.791346,86.256952 96.793499,86.256771 C 96.793411,86.258865 96.79354,86.273381 96.793499,86.275054 C 96.79344,86.27678 96.79351,86.291763 96.793499,86.293337 C 96.793417,86.294852 96.793516,86.310099 96.793499,86.31162 C 96.793434,86.313346 96.79351,86.32833 96.793499,86.329904 C 96.79358,86.332197 96.793551,86.345905 96.793499,86.348187 C 96.793036,86.355009 96.793107,86.377867 96.793499,86.384753 C 96.793329,86.385917 96.793534,86.401603 96.793499,86.403036 C 96.794569,86.403715 96.81077,86.420623 96.811782,86.42132 C 96.811706,86.423157 96.811799,86.438 96.811782,86.439603 C 96.811741,86.441124 96.811922,86.456371 96.811782,86.457886 C 96.905363,86.966932 97.283249,88.016289 97.65281,88.322775 C 97.704196,88.365385 97.764247,88.404672 97.817359,88.432474 C 97.834308,88.440916 97.870553,88.459995 97.890492,88.46904 C 97.910361,88.475072 97.946213,88.482315 97.963625,88.487324 C 97.988566,88.493964 98.029725,88.501453 98.055041,88.505607 C 98.237838,88.532075 98.437368,88.500991 98.640104,88.432474 C 98.842296,88.364144 99.05881,88.256288 99.280017,88.158226 C 99.319772,88.140603 99.350634,88.122016 99.389716,88.103376 C 99.416284,88.090703 99.454904,88.079944 99.481136,88.066809 C 99.493996,88.060374 99.504926,88.055079 99.517696,88.048526 C 99.549896,88.031905 99.595796,88.011006 99.627396,87.993677 C 99.633696,87.990722 99.657706,87.978588 99.663966,87.975393 C 99.681846,87.961902 99.719206,87.93266 99.737096,87.920544 C 99.737866,87.920602 99.751196,87.920614 99.755376,87.920544 C 99.774796,87.908924 99.791096,87.895877 99.810226,87.883977 C 99.813546,87.881181 99.825756,87.869011 99.828516,87.865694 C 99.831266,87.862365 99.843516,87.850237 99.846796,87.847411 C 99.853106,87.844345 99.877066,87.832205 99.883366,87.829128 C 99.887526,87.829069 99.900776,87.828946 99.901646,87.829128 C 99.920326,87.816806 99.938126,87.805158 99.956496,87.792561 C 99.962736,87.789583 99.986846,87.777279 99.993066,87.774278 C 99.996476,87.771113 100.00806,87.759259 100.01135,87.755995 C 100.01132,87.754321 100.01143,87.739788 100.01135,87.737712 C 100.01549,87.737659 100.02871,87.737554 100.02963,87.737712 C 100.03265,87.734593 100.04491,87.722553 100.04792,87.719428 C 100.05091,87.716327 100.06322,87.704252 100.0662,87.701145 C 100.06828,87.70111 100.08281,87.701133 100.08448,87.701145 C 100.0874,87.69812 100.09986,87.685904 100.10277,87.682862 C 100.14083,87.653591 100.17619,87.622033 100.21246,87.591446 C 100.22662,87.578247 100.25347,87.550006 100.26731,87.536596 C 100.3377,87.47393 100.40631,87.40333 100.46843,87.335481 C 100.47255,87.335422 100.48575,87.335293 100.48671,87.335481 C 100.51708,87.301898 100.55163,87.263032 100.57813,87.225781 C 100.56268,88.332089 100.60357,89.850152 100.81581,91.668604 C 100.81586,91.672448 100.81591,91.685179 100.81581,91.686887 C 100.81585,91.68883 100.81565,91.703216 100.81581,91.70517 C 100.81573,91.707206 100.81582,91.721792 100.81581,91.723454 C 100.8191,91.729778 100.83085,91.753555 100.83409,91.76002 C 100.92168,92.494883 101.03003,93.276457 101.18148,94.100272 C 101.18351,94.114372 101.18801,94.149511 101.19976,94.191688 C 101.19972,94.193291 101.19992,94.208251 101.19976,94.209972 C 101.20357,94.217332 101.2145,94.238751 101.21804,94.246538 C 101.22108,94.252599 101.23308,94.276903 101.23633,94.283104 C 101.23609,94.289487 101.23648,94.313247 101.23633,94.319671 C 101.2374,94.319519 101.25052,94.319624 101.25461,94.319671 C 101.25452,94.321584 101.25464,94.336316 101.25461,94.337954 C 101.25795,94.344396 101.26951,94.368073 101.27289,94.374521 C 101.27287,94.376194 101.27296,94.390703 101.27289,94.392804 C 101.27394,94.392646 101.28707,94.392757 101.29117,94.392804 C 101.29983,94.406547 101.31649,94.430891 101.32774,94.447653 C 101.34153,94.467493 101.36684,94.501754 101.38259,94.520786 C 101.38524,94.523583 101.39817,94.536413 101.40087,94.539069 C 101.40462,94.542867 101.41668,94.55486 101.41916,94.557353 C 101.42556,94.560436 101.44956,94.572605 101.45572,94.575636 C 101.45577,94.577701 101.45574,94.59224 101.45572,94.593919 C 101.46194,94.597055 101.48594,94.609166 101.49229,94.612202 C 101.49426,94.612039 101.50894,94.612243 101.51057,94.612202 C 101.51356,94.615455 101.52581,94.627285 101.52886,94.630486 C 101.53081,94.630333 101.54551,94.630527 101.54714,94.630486 C 101.58921,94.64802 101.64167,94.658797 101.69341,94.667052 C 101.69982,94.67044 101.72352,94.681995 101.72997,94.685335 C 101.77975,94.690414 101.83562,94.690642 101.89452,94.685335 C 101.89662,94.685446 101.91114,94.685318 101.9128,94.685335 C 101.91276,94.68365 101.91299,94.669205 101.9128,94.667052 C 101.9149,94.66714 101.92942,94.667011 101.93109,94.667052 C 101.93721,94.667198 101.96146,94.667005 101.96765,94.667052 C 101.9694,94.667134 101.98435,94.667034 101.98594,94.667052 C 101.9875,94.667181 102.00268,94.667029 102.00422,94.667052 C 102.1568,94.638998 102.63608,94.552924 103.0098,94.48422 C 104.49205,94.208965 106.92241,93.752891 106.92241,93.752891 C 106.92241,93.752891 108.12234,93.530046 109.09811,93.35066 C 109.41653,93.292704 109.71837,93.242968 110.03056,93.186111 C 110.36304,93.124984 110.48204,93.109573 110.76189,93.058129 C 111.25797,92.967707 111.65389,92.891339 111.8406,92.857013 C 111.84227,92.857048 111.8568,92.856925 111.85888,92.857013 C 111.85884,92.855328 111.85904,92.840901 111.85888,92.83873 C 111.86097,92.838824 111.87548,92.838695 111.87716,92.83873 C 111.98377,92.815848 112.06296,92.789479 112.13313,92.747314 C 112.14869,92.73766 112.17218,92.723613 112.18798,92.710747 C 112.19947,92.700971 112.21504,92.683197 112.22454,92.674181 C 112.22854,92.670214 112.23908,92.659771 112.24283,92.655898 C 112.24933,92.649562 112.27304,92.625714 112.27939,92.619331 C 112.28128,92.617588 112.29606,92.602663 112.29768,92.601048 C 112.30085,92.594583 112.313,92.570613 112.31596,92.564482 C 112.33477,92.535691 112.35814,92.502787 112.37081,92.473066 C 112.37406,92.466905 112.38602,92.442642 112.38909,92.436499 C 112.38913,92.43231 112.38921,92.418988 112.38909,92.418216 C 112.3889,92.416601 112.38914,92.401477 112.38909,92.399933 C 112.39006,92.399307 112.40637,92.38224 112.40738,92.381649 C 112.40736,92.380017 112.40745,92.365315 112.40738,92.363366 C 112.40735,92.361828 112.40751,92.346645 112.40738,92.345083 C 112.40729,92.343234 112.40738,92.328426 112.40738,92.3268 C 112.41055,92.320481 112.42228,92.296757 112.42566,92.290233 C 112.42565,92.288578 112.42575,92.273957 112.42566,92.27195 C 112.42566,92.270312 112.42571,92.255533 112.42566,92.253667 C 112.4257,92.244271 112.42549,92.22473 112.42566,92.217101 C 112.42582,92.212373 112.42557,92.203433 112.42566,92.198817 C 112.42587,92.192621 112.42578,92.16854 112.42566,92.162251 C 112.42195,92.149104 112.41108,92.119383 112.40738,92.107401 C 112.40738,92.105769 112.4073,92.090955 112.40738,92.089118 C 112.4074,92.087527 112.40729,92.072414 112.40738,92.070835 C 112.4074,92.06922 112.40726,92.054178 112.40738,92.052552 C 112.40739,92.050896 112.40729,92.036076 112.40738,92.034268 C 112.25894,91.226893 112.0711,90.473092 111.89544,89.767149 C 111.89546,89.765581 111.89539,89.750486 111.89544,89.748866 C 111.89207,89.700452 111.88136,89.660486 111.87716,89.639166 C 111.87712,89.637277 111.87706,89.622685 111.87716,89.620883 C 111.43257,87.860984 110.93176,86.436309 110.5242,85.415743 C 110.95826,85.664032 111.50267,85.787995 112.05999,85.817973 C 112.73247,85.854054 113.33369,85.906868 113.63235,85.379176 C 113.86834,84.961365 113.85392,83.858784 113.76033,83.349739 C 113.58828,82.413826 112.82963,81.720825 111.93201,81.612833 C 111.93059,81.61267 111.91522,81.612876 111.91373,81.612833 C 111.90728,81.612785 111.88361,81.612878 111.87716,81.612833 C 111.87565,81.612798 111.86033,81.612985 111.85888,81.612833 C 111.12471,81.356043 110.02885,81.221063 108.69588,81.247168 C 108.62163,81.248623 108.5522,81.244717 108.47648,81.247168 C 108.4055,81.249466 108.32933,81.243957 108.25708,81.247168 C 108.22321,81.248674 108.18151,81.245449 108.14738,81.247168 z M 107.72687,83.002357 C 107.74484,82.999485 107.76421,83.005025 107.78172,83.002357 C 107.77798,83.004674 107.78548,83.018318 107.78172,83.020641 C 107.71547,83.060606 107.65003,83.108131 107.5806,83.148623 C 107.53946,83.173085 107.49446,83.197523 107.45262,83.221756 C 107.44056,83.228619 107.42815,83.233212 107.41606,83.240039 C 107.40798,83.244673 107.40586,83.253706 107.39777,83.258323 C 107.37244,83.272563 107.33175,83.280859 107.30636,83.294889 C 107.29014,83.303969 107.28601,83.322492 107.26979,83.331455 C 107.23712,83.349306 107.21092,83.35071 107.17837,83.368022 C 107.14676,83.384837 107.10001,83.406689 107.06867,83.422872 C 107.04674,83.434198 107.03556,83.448474 107.01383,83.459438 C 106.99287,83.47001 106.9797,83.485813 106.95898,83.496004 C 106.95514,83.497894 106.94452,83.494132 106.94069,83.496004 C 106.92514,83.503645 106.90124,83.506898 106.88584,83.514288 C 106.85553,83.528815 106.82399,83.537339 106.79443,83.550854 C 106.26316,83.596501 105.67886,83.677672 105.0758,83.788536 C 104.4843,83.897276 103.93385,84.026276 103.43031,84.172484 C 103.06815,84.151293 102.62312,84.09336 102.2419,84.026218 C 102.80642,83.9048 103.62262,83.793 105.03923,83.532571 C 106.38974,83.284293 107.16986,83.091328 107.72687,83.002357 z M 108.80558,83.002357 C 109.0323,83.049941 109.2803,83.131101 109.59176,83.258323 C 109.59456,83.255701 109.60692,83.242643 109.61004,83.240039 C 109.58572,83.343677 109.56323,83.45952 109.55519,83.569137 C 109.44223,83.558056 109.2697,83.545729 109.04326,83.532571 L 108.97013,83.349739 L 108.80558,83.002357 z M 101.32774,84.355316 L 101.29117,84.940379 C 101.08067,85.032234 100.91742,85.107625 100.81581,85.159777 C 100.76929,85.061774 100.71033,84.973499 100.65126,84.885529 C 100.91165,84.64271 101.11582,84.48204 101.32774,84.355316 z "
         style="fill:url(#radialGradient11375);fill-opacity:1" />
      <path
         d="M 100.80859,91.647951 C 100.7533,91.173512 100.70994,90.719538 100.67623,90.28813 C 100.70994,90.719538 100.75326,91.173243 100.80859,91.647951 z "
         id="path9129"
         style="opacity:0.71311472;fill:#ffffff;fill-opacity:1" />
      <path
         d="M 105.99331,85.989607 C 106.03373,86.18114 105.83217,86.38212 105.5424,86.43539 C 105.25275,86.488637 104.99276,86.372508 104.96242,86.179127 C 104.93287,85.990099 105.13598,85.797555 105.41568,85.746133 C 105.69539,85.694712 105.95356,85.802452 105.99331,85.989607 z "
         id="path9254"
         style="opacity:0.71311472;fill:#ffffff;fill-opacity:1" />
      <path
         d="M 106.78879,89.857377 C 106.84333,90.114273 106.61513,90.377703 106.27853,90.439585 C 105.94193,90.501462 105.63514,90.336667 105.59429,90.076969 C 105.55436,89.823017 105.78523,89.573306 106.10835,89.513904 C 106.43175,89.45445 106.7359,89.60566 106.78879,89.857377 z "
         id="path9270"
         style="opacity:0.71311472;fill:#ffffff;fill-opacity:1" />
      <path
         d="M 109.18734,87.855257 C 109.26027,88.082039 109.05499,88.318603 108.72791,88.37873 C 108.40085,88.438857 108.0857,88.298255 108.02551,88.068846 C 107.96588,87.843982 108.17426,87.618107 108.4888,87.560279 C 108.80381,87.502651 109.11603,87.632681 109.18734,87.855257 z "
         id="path9286"
         style="opacity:0.71311472;fill:#ffffff;fill-opacity:1" />
      <path
         d="M 103.80301,88.845113 C 103.8279,89.08073 103.58342,89.324496 103.25648,89.3846 C 102.92955,89.444703 102.65373,89.296869 102.64092,89.058755 C 102.62824,88.825256 102.87391,88.59253 103.18887,88.534626 C 103.5036,88.477044 103.77839,88.613955 103.80301,88.845113 z "
         id="path9302"
         style="opacity:0.71311472;fill:#ffffff;fill-opacity:1" />
      <path
         d="M 108.80498,86.738248 C 108.87441,86.954417 108.67886,87.17962 108.36744,87.236874 C 108.05588,87.294146 107.75575,87.160213 107.69841,86.941681 C 107.64176,86.727665 107.84003,86.512654 108.13988,86.457529 C 108.43975,86.402539 108.73719,86.52642 108.80498,86.738248 z "
         id="path9318"
         style="opacity:0.71311472;fill:#ffffff;fill-opacity:1" />
      <path
         d="M 103.70784,87.675309 C 103.73154,87.899885 103.49869,88.131945 103.18728,88.189193 C 102.87572,88.246471 102.61302,88.105652 102.601,87.878788 C 102.589,87.656563 102.82279,87.435023 103.12277,87.379875 C 103.42265,87.324885 103.68443,87.455319 103.70784,87.675309 z "
         id="path9334"
         style="opacity:0.71311472;fill:#ffffff;fill-opacity:1" />
      <path
         d="M 104.36079,86.400468 C 104.58276,86.501918 104.61463,86.730344 104.42669,86.912778 C 104.23576,87.097313 103.89603,87.159769 103.67292,87.051351 C 103.45323,86.943992 103.43468,86.712979 103.62607,86.535542 C 103.81514,86.360777 104.1418,86.300721 104.36079,86.400468 z "
         id="path9350"
         style="opacity:0.71311472;fill:#ffffff;fill-opacity:1" />
      <path
         d="M 107.36892,85.847449 C 107.61104,85.945195 107.67571,86.16759 107.50859,86.346198 C 107.3389,86.52683 106.99848,86.589408 106.75509,86.484723 C 106.51431,86.381243 106.46309,86.156233 106.63407,85.982546 C 106.8034,85.811409 107.13006,85.751358 107.36892,85.847449 z "
         id="path9366"
         style="opacity:0.71311472;fill:#ffffff;fill-opacity:1" />
      <path
         d="M 104.60784,89.422793 C 104.85648,89.551419 104.89567,89.833513 104.68907,90.053713 C 104.47927,90.277178 104.10129,90.346666 103.85159,90.207678 C 103.60604,90.070598 103.58304,89.785532 103.79377,89.572452 C 104.00106,89.362116 104.36322,89.295395 104.60784,89.422793 z "
         id="path9382"
         style="opacity:0.71311472;fill:#ffffff;fill-opacity:1" />
    </g>
  </g>
</svg>
