<?xml version="1.0" encoding="UTF-8" standalone="no"?>
<!-- Created with Inkscape (http://www.inkscape.org/) -->
<svg
   xmlns:a="http://ns.adobe.com/AdobeSVGViewerExtensions/3.0/"
   xmlns:i="http://ns.adobe.com/AdobeIllustrator/10.0/"
   xmlns:dc="http://purl.org/dc/elements/1.1/"
   xmlns:cc="http://web.resource.org/cc/"
   xmlns:rdf="http://www.w3.org/1999/02/22-rdf-syntax-ns#"
   xmlns:svg="http://www.w3.org/2000/svg"
   xmlns="http://www.w3.org/2000/svg"
   xmlns:xlink="http://www.w3.org/1999/xlink"
   xmlns:sodipodi="http://sodipodi.sourceforge.net/DTD/sodipodi-0.dtd"
   xmlns:inkscape="http://www.inkscape.org/namespaces/inkscape"
   width="128"
   height="128"
   id="svg2131"
   sodipodi:version="0.32"
   inkscape:version="0.44"
   version="1.0"
   sodipodi:docbase="/home/pinheiro/artwork/Oxygen/theme/svg/devices"
   sodipodi:docname="joystik.svg">
  <defs
     id="defs2133">
    <linearGradient
       gradientTransform="matrix(0.982207,3.899471e-2,3.899471e-2,1.091195,-9.197196,-15.50957)"
       y2="88.8259"
       x2="38.9692"
       y1="80.9912"
       x1="12.1074"
       gradientUnits="userSpaceOnUse"
       id="XMLID_47_">
				<stop
   id="stop4066"
   style="stop-color:#000000"
   offset="0" />

				<stop
   id="stop4068"
   style="stop-color:#666666"
   offset="0.3876" />

				<stop
   id="stop4070"
   style="stop-color:#494949"
   offset="0.5406" />

				<stop
   id="stop4072"
   style="stop-color:#151515"
   offset="0.8493" />

				<stop
   id="stop4074"
   style="stop-color:#000000"
   offset="1" />

				<a:midPointStop
   style="stop-color:#000000"
   offset="0" />

				<a:midPointStop
   style="stop-color:#000000"
   offset="0.5" />

				<a:midPointStop
   style="stop-color:#666666"
   offset="0.3876" />

				<a:midPointStop
   style="stop-color:#666666"
   offset="0.4551" />

				<a:midPointStop
   style="stop-color:#000000"
   offset="1" />

			</linearGradient>
    <linearGradient
       gradientTransform="matrix(-0.982207,3.899471e-2,-3.899471e-2,1.091195,49.8968,-15.50957)"
       y2="92.0181"
       x2="-50.3747"
       y1="84.1836"
       x1="-77.2358"
       gradientUnits="userSpaceOnUse"
       id="XMLID_48_">
				<stop
   id="stop4079"
   style="stop-color:#3c3c3c;stop-opacity:1;"
   offset="0" />

				<stop
   id="stop4081"
   style="stop-color:#3c3c3c;stop-opacity:1;"
   offset="0.00897741" />

				<stop
   id="stop4083"
   style="stop-color:#222;stop-opacity:1;"
   offset="0.15710466" />

				<stop
   id="stop4085"
   style="stop-color:#2c2c2c;stop-opacity:1;"
   offset="0.56256211" />

				<stop
   id="stop4087"
   style="stop-color:#474747;stop-opacity:1;"
   offset="0.90399998" />

				<stop
   id="stop4089"
   style="stop-color:#373737;stop-opacity:1;"
   offset="1" />

				<a:midPointStop
   style="stop-color:#4D4D4D"
   offset="0" />

				<a:midPointStop
   style="stop-color:#4D4D4D"
   offset="0.5" />

				<a:midPointStop
   style="stop-color:#000000"
   offset="0.2416" />

				<a:midPointStop
   style="stop-color:#000000"
   offset="0.5" />

				<a:midPointStop
   style="stop-color:#1A1A1A"
   offset="0.6966" />

				<a:midPointStop
   style="stop-color:#1A1A1A"
   offset="0.4551" />

				<a:midPointStop
   style="stop-color:#666666"
   offset="1" />

			</linearGradient>
    <linearGradient
       id="linearGradient5903">
      <stop
         style="stop-color:black;stop-opacity:0.50515461;"
         offset="0"
         id="stop5905" />
      <stop
         style="stop-color:black;stop-opacity:0;"
         offset="1"
         id="stop5907" />
    </linearGradient>
    <radialGradient
       inkscape:collect="always"
       xlink:href="#linearGradient5903"
       id="radialGradient5909"
       cx="15.955973"
       cy="90.300949"
       fx="15.955973"
       fy="90.300949"
       r="19.728425"
       gradientTransform="matrix(1.219534,0.246851,-0.468056,2.312372,32.9784,-109.9974)"
       gradientUnits="userSpaceOnUse" />
    <linearGradient
       id="linearGradient5914">
      <stop
         id="stop5916"
         offset="0"
         style="stop-color:black;stop-opacity:1;" />
      <stop
         id="stop5918"
         offset="1"
         style="stop-color:black;stop-opacity:0;" />
    </linearGradient>
    <radialGradient
       inkscape:collect="always"
       xlink:href="#linearGradient5914"
       id="radialGradient5911"
       cx="113.90564"
       cy="68.69001"
       fx="113.90564"
       fy="68.69001"
       r="19.728413"
       gradientTransform="matrix(-0.955168,7.004586e-2,-0.142545,-1.943802,246.2975,217.8499)"
       gradientUnits="userSpaceOnUse" />
    <radialGradient
       gradientUnits="userSpaceOnUse"
       fy="82"
       fx="64.9985"
       r="38.002"
       cy="82"
       cx="64.9985"
       id="XMLID_39_"
       gradientTransform="matrix(1.095357,0,0,1.095357,-5.836681,-14.21748)">
				<stop
   id="stop3972"
   style="stop-color:#666;stop-opacity:1;"
   offset="0" />
<stop
   offset="0.30379999"
   style="stop-color:#888;stop-opacity:1;"
   id="stop5920" />

				<stop
   id="stop3974"
   style="stop-color:#3a3a3a;stop-opacity:1;"
   offset="1" />

				
				
				<a:midPointStop
   style="stop-color:#888888"
   offset="0" />

				<a:midPointStop
   style="stop-color:#888888"
   offset="0.5169" />

				<a:midPointStop
   style="stop-color:#404040"
   offset="0.7809" />

				<a:midPointStop
   style="stop-color:#404040"
   offset="0.5" />

				<a:midPointStop
   style="stop-color:#292929"
   offset="1" />

			</radialGradient>
    <linearGradient
       inkscape:collect="always"
       xlink:href="#XMLID_39_"
       id="linearGradient5586"
       x1="66.853043"
       y1="70.186836"
       x2="66.853043"
       y2="40.543758"
       gradientUnits="userSpaceOnUse"
       gradientTransform="translate(-0.113896,0)" />
    <linearGradient
       inkscape:collect="always"
       xlink:href="#XMLID_40_"
       id="linearGradient5583"
       gradientUnits="userSpaceOnUse"
       x1="58.8481"
       y1="66.3291"
       x2="50.2752"
       y2="56.8993"
       gradientTransform="matrix(1.095357,0,0,1.095357,-5.950496,-19.21748)" />
    <linearGradient
       y2="51.6638"
       x2="78.4736"
       y1="67.0938"
       x1="69.0439"
       gradientUnits="userSpaceOnUse"
       id="XMLID_41_"
       gradientTransform="matrix(1.095357,0,0,1.095357,-5.950496,-19.21748)">
				<stop
   id="stop4002"
   style="stop-color:#707070"
   offset="0" />

				<stop
   id="stop4004"
   style="stop-color:#393939"
   offset="0.7586" />

				<stop
   id="stop4006"
   style="stop-color:#262626"
   offset="1" />

				<a:midPointStop
   style="stop-color:#707070"
   offset="0" />

				<a:midPointStop
   style="stop-color:#707070"
   offset="0.5169" />

				<a:midPointStop
   style="stop-color:#262626"
   offset="1" />

			</linearGradient>
    <linearGradient
       y2="51.7832"
       x2="107.9581"
       y1="51.7832"
       x1="85.6621"
       gradientUnits="userSpaceOnUse"
       id="XMLID_42_"
       gradientTransform="translate(0,2)">
				<stop
   id="stop4011"
   style="stop-color:#808080"
   offset="0" />

				<stop
   id="stop4013"
   style="stop-color:#636363"
   offset="0.2498" />

				<stop
   id="stop4015"
   style="stop-color:#2E2E2E"
   offset="0.7538" />

				<stop
   id="stop4017"
   style="stop-color:#1A1A1A"
   offset="1" />

				<a:midPointStop
   style="stop-color:#808080"
   offset="0" />

				<a:midPointStop
   style="stop-color:#808080"
   offset="0.4551" />

				<a:midPointStop
   style="stop-color:#1A1A1A"
   offset="1" />

			</linearGradient>
    <linearGradient
       inkscape:collect="always"
       xlink:href="#XMLID_42_"
       id="linearGradient5579"
       gradientUnits="userSpaceOnUse"
       x1="85.6621"
       y1="51.7832"
       x2="107.9581"
       y2="51.7832"
       gradientTransform="matrix(1.095357,0,0,1.095357,-6.950496,-13.21748)" />
    <linearGradient
       y2="49.3265"
       x2="95.0806"
       y1="40.3594"
       x1="93.0879"
       gradientUnits="userSpaceOnUse"
       id="XMLID_43_"
       gradientTransform="translate(0,2)">
				<stop
   id="stop4022"
   style="stop-color:#404040"
   offset="0" />

				<stop
   id="stop4024"
   style="stop-color:#343434"
   offset="0.2594" />

				<stop
   id="stop4026"
   style="stop-color:#161616"
   offset="0.7209" />

				<stop
   id="stop4028"
   style="stop-color:#000000"
   offset="1" />

				<a:midPointStop
   style="stop-color:#404040"
   offset="0" />

				<a:midPointStop
   style="stop-color:#404040"
   offset="0.5787" />

				<a:midPointStop
   style="stop-color:#000000"
   offset="1" />

			</linearGradient>
    <linearGradient
       inkscape:collect="always"
       xlink:href="#XMLID_43_"
       id="linearGradient5576"
       gradientUnits="userSpaceOnUse"
       x1="93.0879"
       y1="40.3594"
       x2="95.0806"
       y2="49.3265"
       gradientTransform="matrix(1.095357,0,0,1.095357,-6.950496,-13.21748)" />
    <linearGradient
       y2="51.7954"
       x2="41.7461"
       y1="51.7954"
       x1="20.5317"
       gradientUnits="userSpaceOnUse"
       id="XMLID_44_"
       gradientTransform="translate(0,2)">
				<stop
   id="stop4033"
   style="stop-color:#808080"
   offset="0" />

				<stop
   id="stop4035"
   style="stop-color:#636363"
   offset="0.2498" />

				<stop
   id="stop4037"
   style="stop-color:#2E2E2E"
   offset="0.7538" />

				<stop
   id="stop4039"
   style="stop-color:#1A1A1A"
   offset="1" />

				<a:midPointStop
   style="stop-color:#808080"
   offset="0" />

				<a:midPointStop
   style="stop-color:#808080"
   offset="0.4551" />

				<a:midPointStop
   style="stop-color:#1A1A1A"
   offset="1" />

			</linearGradient>
    <linearGradient
       inkscape:collect="always"
       xlink:href="#XMLID_44_"
       id="linearGradient5573"
       gradientUnits="userSpaceOnUse"
       x1="28.252529"
       y1="39.591"
       x2="30.164858"
       y2="47.52137"
       gradientTransform="matrix(1.095357,0,0,1.095357,-4.950496,-13.21748)" />
    <linearGradient
       y2="53.241"
       x2="30.3307"
       y1="41.3462"
       x1="25.3745"
       gradientUnits="userSpaceOnUse"
       id="XMLID_45_"
       gradientTransform="translate(0,2)">
				<stop
   id="stop4044"
   style="stop-color:#404040"
   offset="0" />

				<stop
   id="stop4046"
   style="stop-color:#343434"
   offset="0.2594" />

				<stop
   id="stop4048"
   style="stop-color:#161616"
   offset="0.7209" />

				<stop
   id="stop4050"
   style="stop-color:#000000"
   offset="1" />

				<a:midPointStop
   style="stop-color:#404040"
   offset="0" />

				<a:midPointStop
   style="stop-color:#404040"
   offset="0.5787" />

				<a:midPointStop
   style="stop-color:#000000"
   offset="1" />

			</linearGradient>
    <linearGradient
       inkscape:collect="always"
       xlink:href="#XMLID_45_"
       id="linearGradient5570"
       gradientUnits="userSpaceOnUse"
       x1="25.3745"
       y1="41.3462"
       x2="30.3307"
       y2="53.241"
       gradientTransform="matrix(1.095357,0,0,1.095357,-4.950496,-13.21748)" />
    <linearGradient
       y2="80.9993"
       x2="64.8091"
       y1="78.999"
       x1="64.8091"
       gradientUnits="userSpaceOnUse"
       id="XMLID_46_"
       gradientTransform="matrix(1.095357,0,0,1.095357,-5.950496,-14.21748)">
				<stop
   id="stop4055"
   style="stop-color:#666666"
   offset="0" />

				<stop
   id="stop4057"
   style="stop-color:#494949"
   offset="0.2498" />

				<stop
   id="stop4059"
   style="stop-color:#151515"
   offset="0.7538" />

				<stop
   id="stop4061"
   style="stop-color:#000000"
   offset="1" />

				<a:midPointStop
   style="stop-color:#666666"
   offset="0" />

				<a:midPointStop
   style="stop-color:#666666"
   offset="0.4551" />

				<a:midPointStop
   style="stop-color:#000000"
   offset="1" />

			</linearGradient>
    <linearGradient
       y2="83.735519"
       x2="59.793941"
       y1="83.735519"
       x1="32.080151"
       gradientUnits="userSpaceOnUse"
       id="XMLID_49_"
       gradientTransform="matrix(1.095357,0,0,1.095357,-5.950496,-14.21748)">
				<stop
   id="stop4094"
   style="stop-color:#000000"
   offset="0" />

				<stop
   id="stop4096"
   style="stop-color:#404040"
   offset="0.3876" />

				<stop
   id="stop4098"
   style="stop-color:#151515"
   offset="0.7727" />

				<stop
   id="stop4100"
   style="stop-color:#000000"
   offset="1" />

				<a:midPointStop
   style="stop-color:#000000"
   offset="0" />

				<a:midPointStop
   style="stop-color:#000000"
   offset="0.5" />

				<a:midPointStop
   style="stop-color:#404040"
   offset="0.3876" />

				<a:midPointStop
   style="stop-color:#404040"
   offset="0.4551" />

				<a:midPointStop
   style="stop-color:#000000"
   offset="1" />

			</linearGradient>
    <linearGradient
       y2="83.949516"
       x2="96.537323"
       y1="83.949516"
       x1="66.645958"
       gradientUnits="userSpaceOnUse"
       id="XMLID_50_"
       gradientTransform="matrix(1.095357,0,0,1.095357,-5.950496,-14.21748)">
				<stop
   id="stop4105"
   style="stop-color:#000000"
   offset="0" />

				<stop
   id="stop4107"
   style="stop-color:#404040"
   offset="0.3876" />

				<stop
   id="stop4109"
   style="stop-color:#151515"
   offset="0.7727" />

				<stop
   id="stop4111"
   style="stop-color:#000000"
   offset="1" />

				<a:midPointStop
   style="stop-color:#000000"
   offset="0" />

				<a:midPointStop
   style="stop-color:#000000"
   offset="0.5" />

				<a:midPointStop
   style="stop-color:#404040"
   offset="0.3876" />

				<a:midPointStop
   style="stop-color:#404040"
   offset="0.4551" />

				<a:midPointStop
   style="stop-color:#000000"
   offset="1" />

			</linearGradient>
    <linearGradient
       y2="54.6873"
       x2="34.6827"
       y1="75.2607"
       x1="18.936"
       gradientUnits="userSpaceOnUse"
       id="XMLID_51_"
       gradientTransform="matrix(1.095357,0,0,1.095357,-5.950496,-14.21748)">
				<stop
   id="stop4116"
   style="stop-color:#444;stop-opacity:1;"
   offset="0" />

				<stop
   id="stop4118"
   style="stop-color:#636363"
   offset="0.46875429" />

				<stop
   id="stop4120"
   style="stop-color:#2E2E2E"
   offset="0.6836" />

				<stop
   id="stop4122"
   style="stop-color:#1A1A1A"
   offset="1" />

				<a:midPointStop
   style="stop-color:#666666"
   offset="0" />

				<a:midPointStop
   style="stop-color:#666666"
   offset="0.4551" />

				<a:midPointStop
   style="stop-color:#1A1A1A"
   offset="1" />

			</linearGradient>
    <linearGradient
       y2="75.9603"
       x2="108.4544"
       y1="49.667"
       x1="88.9775"
       gradientUnits="userSpaceOnUse"
       id="XMLID_52_"
       gradientTransform="matrix(1.095357,0,0,1.095357,-5.950496,-14.21748)">
				<stop
   id="stop4127"
   style="stop-color:#666666"
   offset="0" />

				<stop
   id="stop4129"
   style="stop-color:#494949"
   offset="0.2498" />

				<stop
   id="stop4131"
   style="stop-color:#151515"
   offset="0.7538" />

				<stop
   id="stop4133"
   style="stop-color:#1d1d1d;stop-opacity:1;"
   offset="1" />

				<a:midPointStop
   style="stop-color:#666666"
   offset="0" />

				<a:midPointStop
   style="stop-color:#666666"
   offset="0.4551" />

				<a:midPointStop
   style="stop-color:#000000"
   offset="1" />

			</linearGradient>
    <linearGradient
       y2="76.5957"
       x2="57.9189"
       y1="76.5957"
       x1="34.1431"
       gradientUnits="userSpaceOnUse"
       id="XMLID_53_"
       gradientTransform="matrix(1.095357,0,0,1.095357,-5.950496,-14.21748)">
				<stop
   id="stop4138"
   style="stop-color:#666666"
   offset="0.0056" />

				<stop
   id="stop4140"
   style="stop-color:#494949"
   offset="0.254" />

				<stop
   id="stop4142"
   style="stop-color:#151515"
   offset="0.7552" />

				<stop
   id="stop4144"
   style="stop-color:#000000"
   offset="1" />

				<a:midPointStop
   style="stop-color:#666666"
   offset="0.0056" />

				<a:midPointStop
   style="stop-color:#666666"
   offset="0.4551" />

				<a:midPointStop
   style="stop-color:#000000"
   offset="1" />

			</linearGradient>
    <radialGradient
       gradientUnits="userSpaceOnUse"
       fy="71.849953"
       fx="38.27985"
       r="25.2394"
       cy="71.849953"
       cx="38.27985"
       id="XMLID_54_"
       gradientTransform="matrix(0.987994,-0.472942,0.635487,1.327554,-51.4537,-15.2526)">
				<stop
   id="stop4149"
   style="stop-color:#5E5E5E"
   offset="0" />

				<stop
   id="stop4151"
   style="stop-color:#3B3B3B"
   offset="0.585" />

				<stop
   id="stop4153"
   style="stop-color:#474747;stop-opacity:1;"
   offset="1" />

				<a:midPointStop
   style="stop-color:#5E5E5E"
   offset="0" />

				<a:midPointStop
   style="stop-color:#5E5E5E"
   offset="0.4551" />

				<a:midPointStop
   style="stop-color:#262626"
   offset="1" />

			</radialGradient>
    <linearGradient
       y2="79.46"
       x2="92.7635"
       y1="74.4736"
       x1="73.8154"
       gradientUnits="userSpaceOnUse"
       id="XMLID_55_"
       gradientTransform="matrix(1.095357,0,0,1.095357,-5.950496,-14.21748)">
				<stop
   id="stop4158"
   style="stop-color:#666666"
   offset="0.0056" />

				<stop
   id="stop4160"
   style="stop-color:#494949"
   offset="0.254" />

				<stop
   id="stop4162"
   style="stop-color:#151515"
   offset="1" />

				
				<a:midPointStop
   style="stop-color:#666666"
   offset="0.0056" />

				<a:midPointStop
   style="stop-color:#666666"
   offset="0.4551" />

				<a:midPointStop
   style="stop-color:#000000"
   offset="1" />

			</linearGradient>
    <radialGradient
       gradientUnits="userSpaceOnUse"
       fy="69.643127"
       fx="86.152992"
       r="28.7648"
       cy="69.643127"
       cx="86.152992"
       id="XMLID_56_"
       gradientTransform="matrix(1.095357,0,0,1.095357,-5.950496,-14.21748)">
				<stop
   id="stop4169"
   style="stop-color:#5E5E5E"
   offset="0" />

				<stop
   id="stop4171"
   style="stop-color:#3B3B3B"
   offset="0.585" />

				<stop
   id="stop4173"
   style="stop-color:#373737;stop-opacity:1;"
   offset="1" />

				<a:midPointStop
   style="stop-color:#5E5E5E"
   offset="0" />

				<a:midPointStop
   style="stop-color:#5E5E5E"
   offset="0.4551" />

				<a:midPointStop
   style="stop-color:#262626"
   offset="1" />

			</radialGradient>
    <linearGradient
       y2="55.914"
       x2="95.7646"
       y1="68.4648"
       x1="102.5225"
       gradientUnits="userSpaceOnUse"
       id="XMLID_57_"
       gradientTransform="matrix(1.095357,0,0,1.095357,-5.950496,-14.21748)">
				<stop
   id="stop4178"
   style="stop-color:#575757;stop-opacity:1;"
   offset="0" />

				<stop
   id="stop4180"
   style="stop-color:#2c2c2c;stop-opacity:1;"
   offset="1" />

				<a:midPointStop
   style="stop-color:#4D4D4D"
   offset="0" />

				<a:midPointStop
   style="stop-color:#4D4D4D"
   offset="0.4551" />

				<a:midPointStop
   style="stop-color:#404040"
   offset="1" />

			</linearGradient>
    <linearGradient
       y2="81.6229"
       x2="98.5"
       y1="47.0815"
       x1="98.5"
       gradientUnits="userSpaceOnUse"
       id="XMLID_58_">
				<stop
   id="stop4185"
   style="stop-color:#595959"
   offset="0" />

				<stop
   id="stop4187"
   style="stop-color:#3B3B3B"
   offset="0.5489" />

				<stop
   id="stop4189"
   style="stop-color:#262626"
   offset="1" />

				<a:midPointStop
   style="stop-color:#595959"
   offset="0" />

				<a:midPointStop
   style="stop-color:#595959"
   offset="0.4551" />

				<a:midPointStop
   style="stop-color:#262626"
   offset="1" />

			</linearGradient>
    <linearGradient
       y2="55.9135"
       x2="25.7638"
       y1="68.4658"
       x1="32.5225"
       gradientUnits="userSpaceOnUse"
       id="XMLID_59_"
       gradientTransform="matrix(1.095357,0,0,1.095357,-5.950496,-14.21748)">
				<stop
   id="stop4194"
   style="stop-color:#666;stop-opacity:1;"
   offset="0" />

				<stop
   id="stop4196"
   style="stop-color:#272727;stop-opacity:1;"
   offset="1" />

				<a:midPointStop
   style="stop-color:#4D4D4D"
   offset="0" />

				<a:midPointStop
   style="stop-color:#4D4D4D"
   offset="0.4551" />

				<a:midPointStop
   style="stop-color:#404040"
   offset="1" />

			</linearGradient>
    <linearGradient
       y2="81.6229"
       x2="28.5"
       y1="47.0815"
       x1="28.5"
       gradientUnits="userSpaceOnUse"
       id="XMLID_60_">
				<stop
   id="stop4201"
   style="stop-color:#595959"
   offset="0" />

				<stop
   id="stop4203"
   style="stop-color:#3B3B3B"
   offset="0.5489" />

				<stop
   id="stop4205"
   style="stop-color:#262626"
   offset="1" />

				<a:midPointStop
   style="stop-color:#595959"
   offset="0" />

				<a:midPointStop
   style="stop-color:#595959"
   offset="0.4551" />

				<a:midPointStop
   style="stop-color:#262626"
   offset="1" />

			</linearGradient>
    <radialGradient
       gradientUnits="userSpaceOnUse"
       gradientTransform="matrix(1.095357,0,0,1.544564,-5.950496,-42.47704)"
       fy="71.7764"
       fx="68.4658"
       r="15.97"
       cy="71.7764"
       cx="68.4658"
       id="XMLID_61_">
				<stop
   id="stop4210"
   style="stop-color:#888888"
   offset="0" />

				<stop
   id="stop4212"
   style="stop-color:#7E7E7E"
   offset="0.0538" />

				<stop
   id="stop4214"
   style="stop-color:#484848"
   offset="0.3719" />

				<stop
   id="stop4216"
   style="stop-color:#212121"
   offset="0.6469" />

				<stop
   id="stop4218"
   style="stop-color:#090909"
   offset="0.8654" />

				<stop
   id="stop4220"
   style="stop-color:#000000"
   offset="1" />

				<a:midPointStop
   style="stop-color:#888888"
   offset="0" />

				<a:midPointStop
   style="stop-color:#888888"
   offset="0.3989" />

				<a:midPointStop
   style="stop-color:#000000"
   offset="1" />

			</radialGradient>
    <radialGradient
       gradientUnits="userSpaceOnUse"
       gradientTransform="matrix(1,0,0,1.281242,0,-21.63224)"
       fy="79.798798"
       fx="82.455002"
       r="10.6212"
       cy="79.798798"
       cx="82.455002"
       id="XMLID_62_">
				<stop
   id="stop4225"
   style="stop-color:#888888"
   offset="0" />

				<stop
   id="stop4227"
   style="stop-color:#505050"
   offset="0.4704" />

				<stop
   id="stop4229"
   style="stop-color:#1f1f1f;stop-opacity:1;"
   offset="1" />

				<a:midPointStop
   style="stop-color:#888888"
   offset="0" />

				<a:midPointStop
   style="stop-color:#888888"
   offset="0.5169" />

				<a:midPointStop
   style="stop-color:#0D0D0D"
   offset="1" />

			</radialGradient>
    <radialGradient
       gradientUnits="userSpaceOnUse"
       gradientTransform="matrix(1.095357,0,0,1.544564,-6.950496,-42.47704)"
       fy="71.7764"
       fx="32.4648"
       r="15.9707"
       cy="71.7764"
       cx="32.4648"
       id="XMLID_63_">
				<stop
   id="stop4234"
   style="stop-color:#888888"
   offset="0" />

				<stop
   id="stop4236"
   style="stop-color:#7E7E7E"
   offset="0.0538" />

				<stop
   id="stop4238"
   style="stop-color:#484848"
   offset="0.3719" />

				<stop
   id="stop4240"
   style="stop-color:#212121"
   offset="0.6469" />

				<stop
   id="stop4242"
   style="stop-color:#090909"
   offset="0.8654" />

				<stop
   id="stop4244"
   style="stop-color:#000000"
   offset="1" />

				<a:midPointStop
   style="stop-color:#888888"
   offset="0" />

				<a:midPointStop
   style="stop-color:#888888"
   offset="0.3989" />

				<a:midPointStop
   style="stop-color:#000000"
   offset="1" />

			</radialGradient>
    <radialGradient
       gradientUnits="userSpaceOnUse"
       gradientTransform="matrix(1,0,0,1.281169,0,-21.62646)"
       fy="79.798798"
       fx="46.455002"
       r="10.6218"
       cy="79.798798"
       cx="46.455002"
       id="XMLID_64_">
				<stop
   id="stop4249"
   style="stop-color:#888888"
   offset="0" />

				<stop
   id="stop4251"
   style="stop-color:#505050"
   offset="0.4704" />

				<stop
   id="stop4253"
   style="stop-color:#1f1f1f;stop-opacity:1;"
   offset="1" />

				<a:midPointStop
   style="stop-color:#888888"
   offset="0" />

				<a:midPointStop
   style="stop-color:#888888"
   offset="0.5169" />

				<a:midPointStop
   style="stop-color:#0D0D0D"
   offset="1" />

			</radialGradient>
    <radialGradient
       gradientUnits="userSpaceOnUse"
       fy="56"
       fx="98"
       r="5.099"
       cy="56"
       cx="98"
       id="XMLID_66_">
				<stop
   id="stop4265"
   style="stop-color:#5E5E5E"
   offset="0" />

				<stop
   id="stop4267"
   style="stop-color:#3B3B3B"
   offset="0.585" />

				<stop
   id="stop4269"
   style="stop-color:#262626"
   offset="1" />

				<a:midPointStop
   style="stop-color:#5E5E5E"
   offset="0" />

				<a:midPointStop
   style="stop-color:#5E5E5E"
   offset="0.4551" />

				<a:midPointStop
   style="stop-color:#262626"
   offset="1" />

			</radialGradient>
    <radialGradient
       inkscape:collect="always"
       xlink:href="#XMLID_66_"
       id="radialGradient5937"
       gradientUnits="userSpaceOnUse"
       cx="98"
       cy="56"
       fx="98"
       fy="56"
       r="5.099" />
    <radialGradient
       gradientUnits="userSpaceOnUse"
       fy="62.5"
       fx="107"
       r="4"
       cy="62.5"
       cx="107"
       id="XMLID_70_">
				<stop
   id="stop4301"
   style="stop-color:#5E5E5E"
   offset="0" />

				<stop
   id="stop4303"
   style="stop-color:#3B3B3B"
   offset="0.585" />

				<stop
   id="stop4305"
   style="stop-color:#262626"
   offset="1" />

				<a:midPointStop
   style="stop-color:#5E5E5E"
   offset="0" />

				<a:midPointStop
   style="stop-color:#5E5E5E"
   offset="0.4551" />

				<a:midPointStop
   style="stop-color:#262626"
   offset="1" />

			</radialGradient>
    <radialGradient
       gradientUnits="userSpaceOnUse"
       fy="62.5"
       fx="90"
       r="5.099"
       cy="62.5"
       cx="90"
       id="XMLID_72_">
				<stop
   id="stop4319"
   style="stop-color:#5E5E5E"
   offset="0" />

				<stop
   id="stop4321"
   style="stop-color:#3B3B3B"
   offset="0.585" />

				<stop
   id="stop4323"
   style="stop-color:#262626"
   offset="1" />

				<a:midPointStop
   style="stop-color:#5E5E5E"
   offset="0" />

				<a:midPointStop
   style="stop-color:#5E5E5E"
   offset="0.4551" />

				<a:midPointStop
   style="stop-color:#262626"
   offset="1" />

			</radialGradient>
    <radialGradient
       gradientUnits="userSpaceOnUse"
       fy="52"
       fx="18"
       r="23.3448"
       cy="52"
       cx="18"
       id="XMLID_73_"
       gradientTransform="matrix(1.095357,0,0,1.095357,-5.950496,-14.21748)">
				<stop
   id="stop4332"
   style="stop-color:#999999"
   offset="0" />

				<stop
   id="stop4334"
   style="stop-color:#626262"
   offset="0.7344" />

				<stop
   id="stop4336"
   style="stop-color:#4D4D4D"
   offset="1" />

				<a:midPointStop
   style="stop-color:#999999"
   offset="0" />

				<a:midPointStop
   style="stop-color:#999999"
   offset="0.5169" />

				<a:midPointStop
   style="stop-color:#4D4D4D"
   offset="1" />

			</radialGradient>
    <radialGradient
       gradientUnits="userSpaceOnUse"
       gradientTransform="matrix(-1.095357,0,0,-1.095357,71.82202,119.416)"
       fy="70"
       fx="53.002"
       r="23.345"
       cy="70"
       cx="53.002"
       id="XMLID_74_">
				<stop
   id="stop4343"
   style="stop-color:#999999"
   offset="0" />

				<stop
   id="stop4345"
   style="stop-color:#626262"
   offset="0.7344" />

				<stop
   id="stop4347"
   style="stop-color:#4D4D4D"
   offset="1" />

				<a:midPointStop
   style="stop-color:#999999"
   offset="0" />

				<a:midPointStop
   style="stop-color:#999999"
   offset="0.5169" />

				<a:midPointStop
   style="stop-color:#4D4D4D"
   offset="1" />

			</radialGradient>
    <radialGradient
       gradientUnits="userSpaceOnUse"
       gradientTransform="matrix(0,1.095357,-1.095357,0,100.8426,14.80948)"
       fy="79.4961"
       fx="25.5"
       r="23.3444"
       cy="79.4961"
       cx="25.5"
       id="XMLID_75_">
				<stop
   id="stop4354"
   style="stop-color:#999999"
   offset="0" />

				<stop
   id="stop4356"
   style="stop-color:#626262"
   offset="0.7344" />

				<stop
   id="stop4358"
   style="stop-color:#4D4D4D"
   offset="1" />

				<a:midPointStop
   style="stop-color:#999999"
   offset="0" />

				<a:midPointStop
   style="stop-color:#999999"
   offset="0.5169" />

				<a:midPointStop
   style="stop-color:#4D4D4D"
   offset="1" />

			</radialGradient>
    <radialGradient
       gradientUnits="userSpaceOnUse"
       gradientTransform="matrix(0,-1.095357,1.095357,0,-49.2129,76.14949)"
       fy="57.4961"
       fx="30.5005"
       r="23.3449"
       cy="57.4961"
       cx="30.5005"
       id="XMLID_76_">
				<stop
   id="stop4365"
   style="stop-color:#999999"
   offset="0" />

				<stop
   id="stop4367"
   style="stop-color:#626262"
   offset="0.7344" />

				<stop
   id="stop4369"
   style="stop-color:#4D4D4D"
   offset="1" />

				<a:midPointStop
   style="stop-color:#999999"
   offset="0" />

				<a:midPointStop
   style="stop-color:#999999"
   offset="0.5169" />

				<a:midPointStop
   style="stop-color:#4D4D4D"
   offset="1" />

			</radialGradient>
    <linearGradient
       y2="56.8993"
       x2="50.2752"
       y1="66.3291"
       x1="58.8481"
       gradientUnits="userSpaceOnUse"
       id="XMLID_40_">
				<stop
   id="stop3991"
   style="stop-color:#707070"
   offset="0" />

				<stop
   id="stop3993"
   style="stop-color:#393939"
   offset="0.9087" />

				<stop
   id="stop3995"
   style="stop-color:#333333"
   offset="1" />

				<a:midPointStop
   style="stop-color:#707070"
   offset="0" />

				<a:midPointStop
   style="stop-color:#707070"
   offset="0.5169" />

				<a:midPointStop
   style="stop-color:#333333"
   offset="1" />

			</linearGradient>
    <linearGradient
       inkscape:collect="always"
       xlink:href="#XMLID_40_"
       id="linearGradient5553"
       gradientUnits="userSpaceOnUse"
       x1="58.8481"
       y1="66.3291"
       x2="50.2752"
       y2="56.8993"
       gradientTransform="matrix(1.095357,0,0,1.095357,2.812304,-9.549982)" />
    <linearGradient
       id="linearGradient5939">
      <stop
         style="stop-color:#a0a0a0;stop-opacity:1;"
         offset="0"
         id="stop5941" />
      <stop
         style="stop-color:#1d1d1d;stop-opacity:1;"
         offset="1"
         id="stop5943" />
    </linearGradient>
    <radialGradient
       inkscape:collect="always"
       xlink:href="#linearGradient5939"
       id="radialGradient5945"
       cx="98.446861"
       cy="53.874084"
       fx="98.446861"
       fy="53.874084"
       r="1.5"
       gradientUnits="userSpaceOnUse"
       gradientTransform="matrix(1.361533,-6.02118e-7,4.988395e-7,1.249736,-35.53866,-13.40074)" />
    <radialGradient
       gradientUnits="userSpaceOnUse"
       fy="70"
       fx="98.5"
       r="4.0312"
       cy="70"
       cx="98.5"
       id="XMLID_68_">
				<stop
   id="stop4283"
   style="stop-color:#5E5E5E"
   offset="0" />

				<stop
   id="stop4285"
   style="stop-color:#3B3B3B"
   offset="0.585" />

				<stop
   id="stop4287"
   style="stop-color:#262626"
   offset="1" />

				<a:midPointStop
   style="stop-color:#5E5E5E"
   offset="0" />

				<a:midPointStop
   style="stop-color:#5E5E5E"
   offset="0.4551" />

				<a:midPointStop
   style="stop-color:#262626"
   offset="1" />

			</radialGradient>
  </defs>
  <sodipodi:namedview
     id="base"
     pagecolor="#ffffff"
     bordercolor="#666666"
     borderopacity="1.0"
     inkscape:pageopacity="0.0"
     inkscape:pageshadow="2"
     inkscape:zoom="3.8890873"
     inkscape:cx="65.001332"
     inkscape:cy="93.992588"
     inkscape:current-layer="layer1"
     showgrid="true"
     inkscape:document-units="px"
     inkscape:grid-bbox="true"
     width="128px"
     height="128px"
     inkscape:window-width="876"
     inkscape:window-height="575"
     inkscape:window-x="1038"
     inkscape:window-y="599" />
  <metadata
     id="metadata2136">
    <rdf:RDF>
      <cc:Work
         rdf:about="">
        <dc:format>image/svg+xml</dc:format>
        <dc:type
           rdf:resource="http://purl.org/dc/dcmitype/StillImage" />
      </cc:Work>
    </rdf:RDF>
  </metadata>
  <g
     id="layer1"
     inkscape:label="Layer 1"
     inkscape:groupmode="layer">
    <g
       id="g5879"
       transform="translate(-0.113896,0)">
      <path
         i:knockout="Off"
         d="M 86.982799,50.708724 C 86.009026,50.708724 85.042921,50.902604 84.190733,51.268452 C 84.362704,51.195064 84.546724,51.181918 84.729649,51.200541 C 84.348464,51.208207 83.902654,51.383466 83.421793,51.578438 C 81.48301,52.608074 80.824701,53.942219 80.603438,55.024432 C 80.595771,55.047435 80.571673,55.056198 80.566196,55.080295 C 80.566196,55.080295 80.34603,55.955486 80.167487,56.670754 C 78.59784,56.670754 49.693551,56.670754 48.014369,56.670754 C 47.89607,56.035448 47.769009,55.351944 47.769009,55.351944 C 47.554318,53.881976 46.66927,52.610265 45.25845,51.78108 C 44.160902,51.135915 42.81909,50.795258 41.380885,50.795258 L 35.11325,50.795258 C 32.557782,50.795258 29.403153,51.93662 28.110633,54.484421 C 28.109536,54.486612 27.767785,55.163543 27.555285,55.583066 C 21.961296,57.771589 17.631349,61.642581 15.966405,66.061252 C 15.933545,66.168598 15.542502,67.714146 15.465828,68.018656 C 15.358483,68.232251 2.2065278,94.43867 2.2065278,94.43867 C 1.3291467,96.19124 0.88443159,98.02817 0.88443159,99.90122 C 0.88443159,101.42158 1.1812734,102.91017 1.7672895,104.32537 C 3.1748236,107.72645 6.1782931,110.41008 10.008758,111.68727 C 17.230448,114.10034 27.502708,110.40241 31.144771,104.07891 C 31.186396,104.00771 31.184205,103.93651 31.205016,103.86531 C 31.718739,103.14896 32.887485,101.51796 32.887485,101.51796 C 32.887485,101.51796 37.098038,95.29853 38.05538,93.88442 C 40.418066,95.39602 43.153173,96.23396 46.079968,96.23396 C 52.406751,96.23396 58.22748,92.654331 60.587975,87.47001 C 61.643899,87.47001 66.839179,87.47001 67.911534,87.47001 C 70.228215,92.76716 76.082899,96.42346 82.507169,96.42346 L 82.507169,96.42346 C 85.464634,96.42346 88.221648,95.57127 90.595288,94.02901 C 91.610684,95.52746 97.534377,104.28046 97.534377,104.28046 C 101.01871,110.35641 111.44761,114.05981 118.54661,111.68727 C 122.37598,110.41008 125.37945,107.72755 126.78699,104.32756 C 127.373,102.91017 127.67094,101.42158 127.67094,99.90122 C 127.67094,98.02925 127.22732,96.19234 126.35213,94.44196 L 112.02485,65.896949 C 112.00624,65.861898 111.0489,64.276916 111.0489,64.276916 C 109.26893,60.916359 105.70794,57.89427 101.30241,55.954391 C 101.07019,55.534869 100.37354,54.276304 100.37354,54.276304 C 99.587077,52.85672 97.986759,51.718644 95.98335,51.15563 C 95.302038,50.883981 94.309645,50.709821 93.361064,50.709821 L 86.982799,50.709821 L 86.982799,50.708724 z M 84.854521,51.224638 C 84.913669,51.237783 84.973915,51.235592 85.030872,51.258595 C 85.041826,51.262975 85.044018,51.278311 85.053875,51.282692 C 84.989249,51.258595 84.925718,51.23121 84.854521,51.224638 z M 29.905923,102.71082 C 29.667134,102.77216 29.411916,102.81815 29.244326,102.98794 C 29.244326,102.98794 29.304572,102.9266 29.351672,102.8784 C 29.528023,102.78529 29.710949,102.70752 29.905923,102.71082 z "
         id="path3963"
         style="opacity:0.05" />
      <path
         i:knockout="Off"
         d="M 86.982799,51.804083 C 86.1569,51.804083 85.340858,51.966195 84.6234,52.275086 C 84.644212,52.266323 83.831456,52.593834 83.831456,52.593834 C 82.468831,53.323342 81.727275,54.370504 81.596928,55.589637 C 81.599118,55.509675 81.607881,55.427523 81.627598,55.346468 C 81.627598,55.346468 81.168643,57.17681 81.021865,57.760635 C 81.021865,57.760635 81.015292,57.766113 81.014198,57.766113 C 80.34822,57.766113 48.201675,57.766113 47.101936,57.766113 C 46.962827,57.014696 46.690082,55.552395 46.690082,55.552395 C 46.686796,55.533774 46.668175,55.527201 46.663793,55.50858 C 46.51592,54.395698 45.840085,53.393445 44.702009,52.724182 C 43.77205,52.1776 42.62302,51.88952 41.37979,51.88952 L 35.112156,51.88952 C 32.96416,51.88952 30.162237,52.855625 29.087691,54.978427 C 29.084404,54.985 28.526867,56.08912 28.366945,56.404583 C 22.860585,58.439756 18.611694,62.147541 16.992756,66.445723 C 16.992756,66.445723 16.62581,67.900357 16.499845,68.400936 C 16.411121,68.577288 3.1857773,94.9283 3.1857773,94.9283 C 2.3861664,96.52643 1.9797888,98.19903 1.9797888,99.90012 C 1.9797888,101.27699 2.2492467,102.62319 2.7793996,103.90584 C 4.0653491,107.01337 6.8267444,109.47027 10.355986,110.64667 C 17.139533,112.91296 26.780868,109.45711 30.196191,103.53014 C 30.152377,103.60681 30.0527,103.61996 29.992456,103.68349 C 30.40212,103.21687 30.97061,102.39425 31.98053,100.90237 C 31.98053,100.90237 36.99836,93.49229 37.743204,92.390355 C 40.044549,94.13744 42.933007,95.13642 46.079968,95.13642 C 52.316932,95.13642 57.956927,91.486685 59.907758,86.372462 C 61.071028,86.372462 67.421909,86.372462 68.602705,86.372462 C 70.504245,91.597316 76.174909,95.32591 82.507169,95.32591 C 85.6848,95.32591 88.595165,94.30832 90.904179,92.529464 C 92.007204,94.15935 98.441332,103.66487 98.441332,103.66487 C 101.72302,109.38264 111.53085,112.87463 118.19829,110.64667 C 121.72753,109.47027 124.48892,107.01337 125.77487,103.90695 C 126.30503,102.62427 126.57449,101.27589 126.57449,99.90012 C 126.57449,98.19794 126.16921,96.52643 125.37069,94.93049 C 125.3685,94.9261 111.04342,66.387669 111.04342,66.387669 C 111.0007,66.309898 110.11017,64.845405 110.11017,64.845405 C 108.35103,61.526473 104.84041,58.598584 100.5017,56.773719 C 100.25196,56.324622 99.41291,54.806456 99.41291,54.806456 C 98.767748,53.642091 97.409505,52.694608 95.685413,52.209365 C 95.043533,51.959623 94.184774,51.805177 93.359969,51.805177 L 86.982799,51.805177 L 86.982799,51.804083 z "
         id="path3965"
         style="opacity:0.1" />
      <path
         i:knockout="Off"
         d="M 86.982799,52.899439 C 86.297105,52.899439 85.632223,53.034168 85.053875,53.281719 C 84.898335,53.344154 84.240024,53.60923 84.240024,53.60923 C 83.299113,54.118573 82.739385,54.877655 82.664901,55.747369 C 82.669282,55.689314 82.67695,55.667406 82.690094,55.611543 C 82.690094,55.611543 82.138034,57.817593 81.98578,58.421135 C 81.730561,58.600775 81.598023,58.692784 81.361426,58.859278 C 80.698735,58.859278 47.215853,58.859278 46.52797,58.859278 C 46.365856,58.74098 46.318756,58.705929 46.139116,58.575581 C 46.019723,57.932607 45.614441,55.750654 45.614441,55.750654 C 45.626491,55.8109 45.630871,55.873334 45.631967,55.934674 C 45.629776,55.04634 45.09086,54.221536 44.147758,53.66619 C 43.386484,53.219285 42.429142,52.982688 41.380885,52.982688 L 35.11325,52.982688 C 33.231427,52.982688 30.892839,53.837065 30.065845,55.471338 C 30.065845,55.471338 29.476543,56.636799 29.174224,57.235959 C 23.834356,59.090398 19.570131,62.711649 18.019106,66.830194 C 17.783604,67.455642 17.637921,68.112856 17.525099,68.799645 C 17.444044,68.961759 4.166122,95.41793 4.166122,95.41793 C 3.4409954,96.86598 3.0773368,98.38963 3.0773368,99.89903 C 3.0773368,101.11926 3.3150293,102.33072 3.7937005,103.48524 C 4.9580652,106.29921 7.4773866,108.53044 10.704309,109.60718 C 16.940178,111.69054 26.128035,108.40996 29.249803,102.98246 C 29.218038,103.03394 35.357516,93.96329 37.485794,90.819613 C 39.646935,92.846028 42.665739,94.03887 46.083254,94.03887 C 52.266546,94.03887 57.685279,90.320131 59.17825,85.274915 C 60.468581,85.274915 68.039691,85.274915 69.350833,85.274915 C 70.76932,90.356277 76.314019,94.22836 82.511551,94.22836 C 85.960831,94.22836 88.999352,93.01362 91.163779,90.951056 C 92.39715,92.77264 99.352671,103.04928 99.352671,103.04928 C 102.43281,108.40886 111.61848,111.69054 117.85654,109.60609 C 121.08346,108.53044 123.60279,106.29921 124.76824,103.48524 C 125.24691,102.32963 125.48461,101.11816 125.48461,99.89793 C 125.48461,98.38853 125.12095,96.86489 124.39692,95.41793 C 124.39582,95.41682 110.07075,66.876198 110.07075,66.876198 C 110.07075,66.876198 109.34781,65.685544 109.18131,65.41061 C 107.43422,62.120158 103.98931,59.306183 99.714136,57.598522 C 99.45125,57.122042 98.459953,55.333323 98.459953,55.333323 C 97.956088,54.421987 96.838823,53.667285 95.394047,53.259811 C 94.798173,53.031977 94.065379,52.896154 93.364351,52.896154 L 86.982799,52.896154 L 86.982799,52.899439 z "
         id="path3967"
         style="opacity:0.15" />
      <path
         i:knockout="Off"
         d="M 123.41329,95.90974 L 109.0882,67.369109 C 108.82422,66.840052 108.52629,66.374524 108.21739,65.937478 C 106.47797,62.651406 102.98707,59.971066 98.922193,58.43647 L 97.498228,55.865666 C 97.122521,55.186546 96.184895,54.623532 95.095016,54.316832 C 94.560481,54.116381 93.958034,53.994796 93.36216,53.994796 L 86.983894,53.994796 C 86.414308,53.994796 85.896205,54.106524 85.472302,54.290544 C 85.220369,54.367218 84.976105,54.457038 84.763605,54.57205 C 84.157873,54.899561 83.79969,55.346468 83.756973,55.841569 C 83.756973,55.851428 83.756973,55.860191 83.755876,55.868954 C 83.751496,55.887574 83.382359,57.361925 82.95298,59.079446 C 82.508265,59.349998 82.090934,59.641363 81.704272,59.955731 L 46.174169,59.955731 C 45.848848,59.68956 45.509287,59.43434 45.141247,59.202126 C 44.810449,57.42217 44.537706,55.9522 44.537706,55.9522 C 44.542086,55.459289 44.200335,54.970761 43.592412,54.612578 C 43.00311,54.266444 42.222119,54.080235 41.37979,54.080235 L 35.112156,54.080235 C 33.395731,54.080235 31.585105,54.895181 31.041808,55.968631 L 29.973834,58.080479 C 24.948335,59.701608 20.603053,63.073117 19.043265,67.217949 C 18.790237,67.891594 18.634697,68.555381 18.543782,69.210404 L 5.1431801,95.90974 C 2.5778539,101.0382 5.273528,106.64314 11.049347,108.56988 C 16.783542,110.48566 25.478489,107.34308 28.299033,102.43697 L 37.30287,89.133858 C 39.150738,91.440681 42.307558,92.944607 46.081063,92.944607 C 52.21835,92.944607 57.428965,89.018846 58.374258,84.180653 L 70.164684,84.180653 C 71.019063,89.106474 76.291016,93.1341 82.50936,93.1341 C 86.317917,93.1341 89.494454,91.599507 91.337939,89.256538 L 100.25853,102.43588 C 103.08017,107.34197 111.77402,110.48456 117.50821,108.56877 C 123.28294,106.64314 125.97861,101.0382 123.41329,95.90974 z "
         id="path3969"
         style="opacity:0.2" />
    </g>
    <path
       style="fill:url(#XMLID_47_)"
       id="path4076"
       d="M 0.74429471,94.32367 C -0.19771529,100.31417 4.3994947,106.49636 10.783244,108.54029 L 10.783244,108.54029 C 16.997204,110.53167 25.006454,107.2434 26.910184,101.89039 L 39.299774,74.358583 C 42.510264,65.339413 35.321434,51.59706 26.406324,47.4588 L 26.406324,47.4588 C 17.134124,43.159523 8.8280243,43.283298 7.1937547,53.694669 L 0.74429471,94.32367 z "
       i:knockout="Off" />
    <path
       style="fill:url(#XMLID_48_)"
       id="path4091"
       d="M 127.58446,94.32367 C 128.52647,100.31417 123.92816,106.49636 117.54552,108.54029 L 117.54552,108.54029 C 111.33155,110.53167 103.3223,107.2434 101.41747,101.89148 L 89.028991,74.358583 C 85.818499,65.339413 93.00733,51.59706 101.92244,47.4588 L 101.92244,47.4588 C 111.19354,43.159523 119.50072,43.283298 121.13391,53.694669 L 127.58446,94.32367 z "
       i:knockout="Off" />
    <path
       style="fill:url(#radialGradient5909);fill-opacity:1"
       id="path5895"
       d="M 0.74429471,94.32367 C -0.19771529,100.31417 4.3994947,106.49636 10.783244,108.54029 L 10.783244,108.54029 C 16.997204,110.53167 25.006454,107.2434 26.910184,101.89039 L 39.299774,74.358583 C 42.510264,65.339413 35.321434,51.59706 26.406324,47.4588 L 26.406324,47.4588 C 17.134124,43.159523 8.8280243,43.283298 7.1937547,53.694669 L 0.74429471,94.32367 z "
       i:knockout="Off" />
    <path
       style="opacity:0.74431817;fill:url(#radialGradient5911);fill-opacity:1"
       id="path5897"
       d="M 127.58446,94.32367 C 128.52647,100.31417 123.92816,106.49636 117.54552,108.54029 L 117.54552,108.54029 C 111.33155,110.53167 103.3223,107.2434 101.41747,101.89148 L 89.028988,74.358583 C 85.818498,65.339413 93.007328,51.59706 101.92244,47.4588 L 101.92244,47.4588 C 111.19354,43.159523 119.50072,43.283298 121.13391,53.694669 L 127.58446,94.32367 z "
       i:knockout="Off" />
    <rect
       style="fill:url(#linearGradient5586);fill-opacity:1"
       id="rect3980"
       height="31.487141"
       width="58.799877"
       i:knockout="Off"
       y="40.550377"
       x="33.953335" />
    <path
       style="fill:#313131;fill-opacity:1"
       id="path3988"
       d="M 50.221578,46.714263 C 49.70238,46.714263 49.282858,47.13488 49.282858,47.652985 L 49.282858,52.348781 C 49.282858,52.867981 49.703475,53.286407 50.221578,53.286407 L 60.550799,53.286407 C 61.068901,53.286407 61.489519,52.866884 61.489519,52.348781 L 61.489519,47.652985 C 61.489519,47.133785 61.068901,46.714263 60.550799,46.714263 L 50.221578,46.714263 L 50.221578,46.714263 z "
       i:knockout="Off" />
    <rect
       style="fill:url(#linearGradient5583)"
       id="rect3997"
       height="4.6957974"
       width="10.32922"
       i:knockout="Off"
       y="47.652981"
       x="50.221577" />
    <path
       style="fill:#313131;fill-opacity:1"
       id="path3999"
       d="M 67.124037,46.714263 C 66.604837,46.714263 66.185316,47.13488 66.185316,47.652985 L 66.185316,52.348781 C 66.185316,52.867981 66.605933,53.286407 67.124037,53.286407 L 77.453256,53.286407 C 77.972455,53.286407 78.391977,52.866884 78.391977,52.348781 L 78.391977,47.652985 C 78.391977,47.133785 77.97136,46.714263 77.453256,46.714263 L 67.124037,46.714263 L 67.124037,46.714263 z "
       i:knockout="Off" />
    <rect
       style="fill:url(#XMLID_41_)"
       id="rect4008"
       height="4.6957974"
       width="10.32922"
       i:knockout="Off"
       y="47.652981"
       x="67.124023" />
    <path
       style="fill:url(#linearGradient5579)"
       id="path4019"
       d="M 94.808158,30.121423 C 93.624077,30.121423 92.479428,30.479606 91.569186,31.140106 C 90.666612,31.79732 90.084978,32.685656 89.932723,33.666 C 89.930532,33.684621 89.929437,33.702146 89.92615,33.720768 C 89.903147,33.806206 85.701357,49.375614 85.701357,49.375614 C 85.689309,49.417237 85.680546,49.456671 85.673973,49.498294 C 85.671783,49.509248 85.669593,49.521297 85.667402,49.533346 C 85.089053,53.349571 90.231755,56.885383 93.797144,56.885383 L 107.22293,56.885383 C 108.99741,56.885383 110.532,56.094535 111.51892,54.697956 C 112.49707,53.310137 112.79063,51.535658 112.38972,49.7327 L 108.81119,33.715292 C 108.35772,31.677926 106.04433,30.120329 103.62796,30.120329 L 94.808158,30.120329 L 94.808158,30.121423 z M 89.920673,33.754724 L 89.920673,33.754724 C 89.920673,33.761295 89.919578,33.768963 89.917387,33.776632 C 89.920673,33.768963 89.920673,33.762392 89.920673,33.754724 z "
       i:knockout="Off" />
    <path
       style="fill:url(#linearGradient5576)"
       id="path4030"
       d="M 111.13444,49.584828 C 111.75442,52.670449 109.95804,55.37379 107.07067,55.37379 L 93.893535,55.37379 C 91.005078,55.37379 86.530544,52.338555 86.935825,49.278126 L 90.949215,32.980307 C 91.12228,31.281408 92.832133,29.977932 94.777488,29.977932 L 103.65754,29.977932 C 105.6029,29.977932 107.44419,31.280311 107.78594,32.980307 L 111.13444,49.584828 z "
       i:knockout="Off" />
    <path
       style="fill:url(#linearGradient5573)"
       id="path4041"
       d="M 24.579204,30.148809 C 22.189134,30.148809 19.933794,31.787462 19.527414,33.915741 L 16.463704,50.027351 C 16.130714,51.775541 16.457134,53.482108 17.413374,54.808587 C 18.371814,56.137255 19.826444,56.885383 21.487014,56.885383 L 34.049664,56.885383 C 37.621624,56.885383 42.422574,55.014513 41.944994,51.10847 C 41.920904,50.962787 38.055384,33.882881 38.055384,33.882881 C 37.967754,32.909107 37.401454,31.936431 36.487934,31.221162 C 35.598494,30.525611 34.471374,30.148809 33.300444,30.148809 L 24.579204,30.148809 z "
       i:knockout="Off" />
    <path
       style="fill:url(#linearGradient5570)"
       id="path4052"
       d="M 40.758724,51.333018 C 41.087334,54.404399 36.705904,55.898466 33.987224,55.898466 L 21.584494,55.898466 C 18.866914,55.898466 17.111054,53.30028 17.626974,50.301191 L 20.516524,33.521412 C 20.823224,31.741457 22.620704,30.36788 24.546344,30.36788 L 33.332204,30.36788 C 35.256744,30.36788 36.930454,31.740362 37.076134,33.521412 L 40.758724,51.333018 z "
       i:knockout="Off" />
    <rect
       style="fill:url(#XMLID_46_)"
       id="rect4063"
       height="7.3235588"
       width="23.679434"
       i:knockout="Off"
       y="71.949898"
       x="53.198765" />
    <path
       style="fill:url(#XMLID_49_)"
       id="path4102"
       d="M 57.477225,69.559824 L 57.528707,77.502258 C 57.528707,84.794052 51.61816,90.705696 44.325271,90.705696 C 37.032384,90.705696 31.121834,84.795147 31.121834,77.502258 C 31.121834,75.570048 31.406624,70.98598 31.406624,70.98598 C 33.475754,66.398623 38.964594,64.299919 44.325271,64.299919 C 47.797554,64.299919 55.121112,67.369109 57.477225,69.559824 z "
       i:knockout="Off" />
    <path
       style="fill:url(#XMLID_50_)"
       id="path4113"
       d="M 97.013051,71.220385 L 97.220074,77.736666 C 97.220074,85.028458 91.309525,90.940102 84.016637,90.940102 C 76.723748,90.940102 70.8132,85.029555 70.8132,77.736666 L 70.724477,69.02967 C 72.994056,65.035999 79.095196,64.534325 84.017732,64.534325 C 87.308185,64.534325 94.701847,69.231216 97.013051,71.220385 z "
       i:knockout="Off" />
    <path
       style="fill:url(#XMLID_51_)"
       id="path4124"
       d="M 45.026299,53.43945 C 44.818182,63.995408 35.860354,72.731978 25.025074,72.731978 C 14.188704,72.731978 5.9439547,63.994314 6.5978847,53.43945 C 7.2364747,43.12447 16.171304,34.931199 26.567344,34.931199 C 36.963374,34.931199 45.22894,43.123376 45.026299,53.43945 z "
       i:knockout="Off" />
    <path
       style="fill:url(#XMLID_52_)"
       id="path4135"
       d="M 120.82501,53.43945 C 121.47894,63.995408 113.23419,72.731978 102.39782,72.731978 C 91.562552,72.731978 82.604722,63.994314 82.396603,53.43945 C 82.192868,43.12447 90.459528,34.931199 100.85555,34.931199 C 111.25159,34.931199 120.18643,43.123376 120.82501,53.43945 z "
       i:knockout="Off" />
    <path
       style="fill:url(#XMLID_53_)"
       id="path4146"
       d="M 57.491465,69.507247 C 57.448747,76.46167 51.502051,82.177243 44.210258,82.177243 C 36.918464,82.177243 31.209464,76.460575 31.455914,69.507247 C 31.699084,62.662358 37.640304,57.188859 44.729457,57.188859 C 51.8208,57.187762 57.534184,62.662358 57.491465,69.507247 z "
       i:knockout="Off" />
    <path
       style="fill:url(#XMLID_54_)"
       id="path4155"
       d="M 52.831816,60.862687 C 50.654245,58.799035 47.776741,57.663148 44.730553,57.663148 C 44.190542,57.663148 43.661484,57.711344 43.137903,57.780351 C 43.611098,56.18332 43.896986,54.509615 43.930943,52.773474 C 44.025143,47.894752 42.221094,43.35121 38.850674,39.979701 C 35.596374,36.723203 31.233564,34.930104 26.566244,34.930104 C 16.756224,34.930104 8.2880147,42.972216 7.6899547,52.85672 C 7.3843447,57.904127 9.0920143,62.638261 12.496384,66.185027 C 15.760544,69.586112 20.209884,71.458077 25.025074,71.458077 C 27.696654,71.458077 30.244454,70.874252 32.561134,69.843521 C 32.603854,72.898473 33.801074,75.729971 35.998364,77.869203 C 38.182504,79.994196 41.099444,81.166229 44.211354,81.166229 C 50.890843,81.166229 56.35777,75.809933 56.397203,69.22793 C 56.415825,66.031678 55.149591,63.059974 52.831816,60.862687 z "
       i:knockout="Off" />
    <path
       style="fill:url(#XMLID_55_)"
       id="path4166"
       d="M 96.760023,69.507247 C 97.013051,76.460575 91.309525,82.177243 84.017732,82.177243 C 76.725938,82.177243 70.773768,76.460575 70.724477,69.507247 C 70.67628,62.662358 76.385283,57.188859 83.47553,57.188859 C 90.565778,57.188859 96.511377,62.662358 96.760023,69.507247 z "
       i:knockout="Off" />
    <path
       style="fill:url(#XMLID_56_)"
       id="path4175"
       d="M 119.73185,52.857816 C 119.13378,42.973312 110.66558,34.931199 100.85555,34.931199 C 96.188247,34.931199 91.826535,36.724298 88.572228,39.979701 C 85.202909,43.35121 83.39776,47.895846 83.491961,52.773474 C 83.524821,54.481135 83.804138,56.128553 84.261997,57.701485 C 84.001301,57.683959 83.739512,57.663148 83.474435,57.663148 C 80.428246,57.663148 77.552934,58.799035 75.376459,60.862687 C 73.060873,63.058878 71.795736,66.031678 71.818739,69.230121 C 71.864743,75.813219 77.336053,81.16842 84.016637,81.16842 C 87.128547,81.16842 90.044388,79.997483 92.22634,77.871395 C 94.343665,75.806645 95.534318,73.100018 95.650426,70.169938 C 97.753513,70.992551 100.02418,71.460268 102.39672,71.460268 C 107.21191,71.460268 111.66125,69.588304 114.92542,66.187218 C 118.33088,62.640452 120.03745,57.906318 119.73185,52.857816 z "
       i:knockout="Off" />
    <path
       style="fill:url(#XMLID_57_)"
       id="path4182"
       d="M 98.108407,39.455024 C 97.502676,39.455024 97.013051,39.926028 97.013051,40.505472 C 97.013051,40.505472 97.013051,46.751199 97.013051,48.387663 C 95.336058,48.387663 89.345551,48.387663 89.345551,48.387663 C 88.739817,48.387663 88.250192,48.858666 88.250192,49.438111 L 88.250192,55.744083 C 88.250192,56.324622 88.739817,56.79453 89.345551,56.79453 C 89.345551,56.79453 95.336058,56.79453 97.013051,56.79453 C 97.013051,58.432089 97.013051,64.676722 97.013051,64.676722 C 97.013051,65.258356 97.502676,65.729358 98.108407,65.729358 L 105.7759,65.729358 C 106.38163,65.729358 106.87126,65.258356 106.87126,64.676722 C 106.87126,64.676722 106.87126,58.432089 106.87126,56.79453 C 108.54825,56.79453 114.53876,56.79453 114.53876,56.79453 C 115.14449,56.79453 115.63412,56.324622 115.63412,55.744083 L 115.63412,49.438111 C 115.63412,48.857571 115.14449,48.387663 114.53876,48.387663 C 114.53876,48.387663 108.54825,48.387663 106.87126,48.387663 C 106.87126,46.751199 106.87126,40.505472 106.87126,40.505472 C 106.87126,39.924932 106.38163,39.455024 105.7759,39.455024 L 98.108407,39.455024 L 98.108407,39.455024 z "
       i:knockout="Off" />
    <polygon
       style="fill:url(#XMLID_58_)"
       id="polygon4191"
       points="110,58.115 102,58.115 102,49.959 95,49.959 95,58.115 87,58.115 87,63.873 95,63.873 95,72.027 102,72.027 102,63.873 110,63.873 110,58.115 "
       i:knockout="Off"
       transform="matrix(1.095357,0,0,1.095357,-5.950496,-14.21748)" />
    <path
       style="fill:url(#XMLID_59_)"
       id="path4198"
       d="M 21.433404,39.455024 C 20.827664,39.455024 20.338044,39.926028 20.338044,40.505472 C 20.338044,40.505472 20.338044,46.751199 20.338044,48.387663 C 18.661054,48.387663 12.670544,48.387663 12.670544,48.387663 C 12.064804,48.387663 11.575184,48.858666 11.575184,49.438111 L 11.575184,55.744083 C 11.575184,56.324622 12.064804,56.79453 12.670544,56.79453 C 12.670544,56.79453 18.661054,56.79453 20.338044,56.79453 C 20.338044,58.432089 20.338044,64.676722 20.338044,64.676722 C 20.338044,65.258356 20.827664,65.729358 21.433404,65.729358 L 29.100904,65.729358 C 29.706634,65.729358 30.196254,65.258356 30.196254,64.676722 C 30.196254,64.676722 30.196254,58.432089 30.196254,56.79453 C 31.873254,56.79453 37.863764,56.79453 37.863764,56.79453 C 38.469494,56.79453 38.959114,56.324622 38.959114,55.744083 L 38.959114,49.438111 C 38.959114,48.857571 38.469494,48.387663 37.863764,48.387663 C 37.863764,48.387663 31.873254,48.387663 30.196254,48.387663 C 30.196254,46.751199 30.196254,40.505472 30.196254,40.505472 C 30.196254,39.926028 29.706634,39.455024 29.100904,39.455024 L 21.433404,39.455024 z "
       i:knockout="Off" />
    <polygon
       style="fill:url(#XMLID_60_)"
       id="polygon4207"
       points="40,58.115 32,58.115 32,49.959 25,49.959 25,58.115 17,58.115 17,63.873 25,63.873 25,72.027 32,72.027 32,63.873 40,63.873 40,58.115 "
       i:knockout="Off"
       transform="matrix(1.095357,0,0,1.095357,-5.950496,-14.21748)" />
    <path
       style="fill:url(#XMLID_61_)"
       id="path4222"
       d="M 77.127935,72.119673 C 77.127935,74.795631 80.22451,77.791434 84.367152,77.791434 C 88.508697,77.791434 91.605272,74.796726 91.605272,72.119673 C 91.605272,69.442621 88.508697,66.450104 84.367152,66.450104 C 80.22451,66.4512 77.127935,69.443715 77.127935,72.119673 z "
       i:knockout="Off" />
    <ellipse
       sodipodi:ry="7.6680002"
       sodipodi:rx="9.5450001"
       sodipodi:cy="74.668999"
       sodipodi:cx="82.455002"
       style="fill:url(#XMLID_62_)"
       id="ellipse4231"
       ry="7.6680002"
       rx="9.5450001"
       cy="74.668999"
       cx="82.455002"
       i:knockout="Off"
       transform="matrix(1.095357,0,0,1.095357,-5.950496,-14.21748)" />
    <path
       style="fill:url(#XMLID_63_)"
       id="path4246"
       d="M 36.695074,72.119673 C 36.695074,74.795631 39.791644,77.791434 43.934289,77.791434 C 48.075836,77.791434 51.172411,74.796726 51.172411,72.119673 C 51.172411,69.442621 48.075836,66.450104 43.934289,66.450104 C 39.791644,66.4512 36.695074,69.443715 36.695074,72.119673 z "
       i:knockout="Off" />
    <ellipse
       sodipodi:ry="7.6680002"
       sodipodi:rx="9.5450001"
       sodipodi:cy="74.668999"
       sodipodi:cx="46.455002"
       style="fill:url(#XMLID_64_)"
       id="ellipse4255"
       ry="7.6680002"
       rx="9.5450001"
       cy="74.668999"
       cx="46.455002"
       i:knockout="Off"
       transform="matrix(1.095357,0,0,1.095357,-6.950496,-14.21748)" />
    <circle
       sodipodi:ry="2.5"
       sodipodi:rx="2.5"
       sodipodi:cy="53.5"
       sodipodi:cx="98.5"
       style="fill:url(#radialGradient5937)"
       id="circle4271"
       r="2.5"
       cy="53.5"
       cx="98.5"
       i:knockout="Off"
       transform="matrix(1.239899,0,0,1.239899,-20.1879,-21.95048)" />
    <circle
       style="fill:yellow;fill-opacity:1"
       sodipodi:ry="1.5"
       sodipodi:rx="1.5"
       sodipodi:cy="53.5"
       sodipodi:cx="98.5"
       id="circle4273"
       r="1.5"
       cy="53.5"
       cx="98.5"
       i:knockout="Off"
       transform="matrix(1.239899,0,0,1.239899,-20.1879,-21.95048)" />
    <circle
       sodipodi:ry="2.5"
       sodipodi:rx="2.5"
       sodipodi:cy="60"
       sodipodi:cx="106.5"
       style="fill:url(#XMLID_70_)"
       id="circle4307"
       r="2.5"
       cy="60"
       cx="106.5"
       i:knockout="Off"
       transform="matrix(1.259179,0,0,1.259179,-23.8071,-22.96864)" />
    <circle
       style="fill:#3b70ff;fill-opacity:1"
       sodipodi:ry="1.5"
       sodipodi:rx="1.5"
       sodipodi:cy="60"
       sodipodi:cx="106.5"
       id="circle4309"
       r="1.5"
       cy="60"
       cx="106.5"
       i:knockout="Off"
       transform="matrix(1.259179,0,0,1.259179,-23.8071,-22.96864)" />
    <circle
       sodipodi:ry="2.5"
       sodipodi:rx="2.5"
       sodipodi:cy="60"
       sodipodi:cx="90.5"
       style="fill:url(#XMLID_72_)"
       id="circle4325"
       r="2.5"
       cy="60"
       cx="90.5"
       i:knockout="Off"
       transform="matrix(1.254151,0,0,1.254151,-19.9622,-22.7188)" />
    <circle
       style="fill:lime"
       sodipodi:ry="1.5"
       sodipodi:rx="1.5"
       sodipodi:cy="60"
       sodipodi:cx="90.5"
       id="circle4327"
       r="1.5"
       cy="60"
       cx="90.5"
       i:knockout="Off"
       transform="matrix(1.254151,0,0,1.254151,-19.9622,-22.7188)" />
    <path
       style="fill:#313131;fill-opacity:1"
       id="path4329"
       d="M 18.147324,49.313239 L 13.765894,49.313239 C 13.161264,49.313239 12.670544,49.803959 12.670544,50.408596 L 12.670544,54.790026 C 12.670544,55.394663 13.161264,55.885383 13.765894,55.885383 L 18.147324,55.885383 C 18.359824,55.885383 18.572324,55.824043 18.755254,55.701363 L 22.041324,53.510648 C 22.345834,53.306913 22.528754,52.965162 22.528754,52.599311 C 22.528754,52.233463 22.345834,51.891711 22.041324,51.687975 L 18.755254,49.497259 C 18.571234,49.374579 18.359824,49.313239 18.147324,49.313239 z "
       i:knockout="Off" />
    <path
       style="fill:url(#XMLID_73_)"
       id="path4338"
       d="M 13.765894,54.790026 L 18.147324,54.790026 L 18.147324,50.408596 L 13.765894,50.408596 L 13.765894,54.790026 z M 18.147324,50.408596 L 18.147324,54.790026 L 21.433404,52.599311 L 18.147324,50.408596 z "
       i:knockout="Off" />
    <path
       style="fill:#313131;fill-opacity:1"
       id="path4340"
       d="M 32.386974,49.313239 L 32.386974,49.313239 C 32.174474,49.313239 31.961974,49.374579 31.779054,49.497259 L 28.492974,51.687975 C 28.188464,51.891711 28.005544,52.233463 28.005544,52.599311 C 28.005544,52.965162 28.188464,53.306913 28.492974,53.510648 L 31.779054,55.701363 C 31.961974,55.824043 32.174474,55.885383 32.386974,55.885383 L 36.768404,55.885383 C 37.373034,55.885383 37.863764,55.394663 37.863764,54.790026 L 37.863764,50.408596 C 37.863764,49.803959 37.373034,49.313239 36.768404,49.313239 L 32.386974,49.313239 z "
       i:knockout="Off" />
    <path
       style="fill:url(#XMLID_74_)"
       id="path4349"
       d="M 36.768404,50.408596 L 32.386974,50.408596 L 32.386974,54.790026 L 36.768404,54.790026 L 36.768404,50.408596 z M 32.386974,54.790026 L 32.386974,50.408596 L 29.100904,52.599311 L 32.386974,54.790026 z "
       i:knockout="Off" />
    <path
       style="fill:#313131;fill-opacity:1"
       id="path4351"
       d="M 22.528754,40.550381 C 21.924124,40.550381 21.433404,41.041102 21.433404,41.645739 L 21.433404,46.027168 C 21.433404,46.278005 21.519934,46.527747 21.687524,46.728196 L 24.425914,50.014268 C 24.634034,50.265105 24.941834,50.408596 25.267154,50.408596 C 25.592474,50.408596 25.900264,50.26401 26.108384,50.014268 L 28.846774,46.728196 C 29.014364,46.528841 29.100904,46.279099 29.100904,46.027168 L 29.100904,41.645739 C 29.100904,41.041102 28.610184,40.550381 28.005544,40.550381 L 22.528754,40.550381 z "
       i:knockout="Off" />
    <path
       style="fill:url(#XMLID_75_)"
       id="path4360"
       d="M 22.528754,41.645739 L 22.528754,46.027168 L 28.005544,46.027168 L 28.005544,41.645739 L 22.528754,41.645739 z M 28.005544,46.027168 L 22.528754,46.027168 L 25.267154,49.313239 L 28.005544,46.027168 z "
       i:knockout="Off" />
    <path
       style="fill:#313131;fill-opacity:1"
       id="path4362"
       d="M 24.425914,55.18326 L 21.687524,58.470427 C 21.519934,58.670878 21.433404,58.919523 21.433404,59.17036 L 21.433404,63.552885 C 21.433404,64.158617 21.924124,64.648242 22.528754,64.648242 L 28.005544,64.648242 C 28.610184,64.648242 29.100904,64.158617 29.100904,63.552885 L 29.100904,59.17036 C 29.100904,58.919523 29.014364,58.670878 28.847874,58.470427 L 26.109484,55.18326 C 25.900264,54.933518 25.592474,54.790026 25.267154,54.790026 C 24.941834,54.790026 24.634034,54.933518 24.425914,55.18326 z "
       i:knockout="Off" />
    <path
       style="fill:url(#XMLID_76_)"
       id="path4371"
       d="M 28.005544,63.552885 L 28.005544,59.171455 L 22.528754,59.171455 L 22.528754,63.552885 L 28.005544,63.552885 z M 22.528754,59.171455 L 28.005544,59.171455 L 25.267154,55.885383 L 22.528754,59.171455 z "
       i:knockout="Off" />
    <g
       id="g4373"
       i:knockout="Off"
       transform="matrix(1.095357,0,0,1.095357,-5.950496,-19.21748)"
       style="fill:#80b3ff">
				<path
   style="fill:#80b3ff"
   id="path4375"
   d="M 52.376,63.855 C 52.48,63.917 52.658,63.986 52.829,63.986 C 53.073,63.986 53.189,63.866 53.189,63.708 C 53.189,63.545 53.092,63.457 52.845,63.364 C 52.505,63.24 52.346,63.058 52.346,62.834 C 52.346,62.532 52.594,62.285 52.992,62.285 C 53.181,62.285 53.347,62.335 53.448,62.401 L 53.367,62.645 C 53.294,62.602 53.158,62.537 52.984,62.537 C 52.783,62.537 52.674,62.653 52.674,62.792 C 52.674,62.95 52.782,63.02 53.026,63.113 C 53.347,63.233 53.517,63.395 53.517,63.678 C 53.517,64.011 53.258,64.242 52.821,64.242 C 52.616,64.242 52.426,64.188 52.295,64.111 L 52.376,63.855 z "
   i:knockout="Off" />

				<path
   style="fill:#80b3ff"
   id="path4377"
   d="M 54.365,61.878 L 54.365,62.327 L 54.852,62.327 L 54.852,62.586 L 54.365,62.586 L 54.365,63.595 C 54.365,63.827 54.431,63.959 54.62,63.959 C 54.713,63.959 54.767,63.951 54.817,63.936 L 54.832,64.195 C 54.767,64.218 54.662,64.241 54.531,64.241 C 54.372,64.241 54.244,64.187 54.163,64.098 C 54.07,63.994 54.032,63.827 54.032,63.607 L 54.032,62.586 L 53.742,62.586 L 53.742,62.327 L 54.032,62.327 L 54.032,61.983 L 54.365,61.878 z "
   i:knockout="Off" />

				<path
   style="fill:#80b3ff"
   id="path4379"
   d="M 56.554,63.75 C 56.554,63.913 56.562,64.071 56.581,64.199 L 56.275,64.199 L 56.244,63.963 L 56.232,63.963 C 56.131,64.11 55.926,64.241 55.66,64.241 C 55.281,64.241 55.087,63.974 55.087,63.703 C 55.087,63.25 55.489,63.003 56.212,63.007 L 56.212,62.968 C 56.212,62.813 56.17,62.531 55.787,62.535 C 55.609,62.535 55.427,62.585 55.296,62.674 L 55.219,62.446 C 55.373,62.349 55.602,62.283 55.838,62.283 C 56.414,62.283 56.553,62.674 56.553,63.049 L 56.553,63.75 L 56.554,63.75 z M 56.221,63.244 C 55.85,63.237 55.428,63.302 55.428,63.666 C 55.428,63.89 55.575,63.991 55.745,63.991 C 55.993,63.991 56.151,63.836 56.205,63.678 C 56.217,63.643 56.221,63.604 56.221,63.57 L 56.221,63.244 z "
   i:knockout="Off" />

				<path
   style="fill:#80b3ff"
   id="path4381"
   d="M 57.103,62.911 C 57.103,62.691 57.099,62.501 57.087,62.327 L 57.385,62.327 L 57.401,62.695 L 57.413,62.695 C 57.498,62.444 57.707,62.285 57.935,62.285 C 57.97,62.285 57.997,62.289 58.028,62.297 L 58.028,62.614 C 57.989,62.61 57.955,62.606 57.908,62.606 C 57.668,62.606 57.498,62.788 57.451,63.04 C 57.443,63.09 57.439,63.144 57.439,63.202 L 57.439,64.2 L 57.099,64.2 L 57.103,62.911 z "
   i:knockout="Off" />

				<path
   style="fill:#80b3ff"
   id="path4383"
   d="M 58.866,61.878 L 58.866,62.327 L 59.353,62.327 L 59.353,62.586 L 58.866,62.586 L 58.866,63.595 C 58.866,63.827 58.932,63.959 59.121,63.959 C 59.214,63.959 59.268,63.951 59.318,63.936 L 59.333,64.195 C 59.268,64.218 59.163,64.241 59.031,64.241 C 58.873,64.241 58.745,64.187 58.664,64.098 C 58.571,63.994 58.533,63.827 58.533,63.607 L 58.533,62.586 L 58.243,62.586 L 58.243,62.327 L 58.533,62.327 L 58.533,61.983 L 58.866,61.878 z "
   i:knockout="Off" />

			</g>
    <g
       id="g4385"
       i:knockout="Off"
       transform="matrix(1.095357,0,0,1.095357,-5.950496,-19.21748)"
       style="fill:#e85752">
				<path
   style="fill:#e85752"
   id="path4387"
   d="M 68.226,63.855 C 68.33,63.917 68.508,63.986 68.678,63.986 C 68.922,63.986 69.037,63.866 69.037,63.708 C 69.037,63.545 68.94,63.457 68.693,63.364 C 68.352,63.24 68.194,63.058 68.194,62.834 C 68.194,62.532 68.441,62.285 68.84,62.285 C 69.029,62.285 69.196,62.335 69.297,62.401 L 69.216,62.645 C 69.142,62.602 69.007,62.537 68.832,62.537 C 68.631,62.537 68.523,62.653 68.523,62.792 C 68.523,62.95 68.63,63.02 68.875,63.113 C 69.196,63.233 69.366,63.395 69.366,63.678 C 69.366,64.011 69.107,64.242 68.67,64.242 C 68.465,64.242 68.275,64.188 68.144,64.111 L 68.226,63.855 z "
   i:knockout="Off" />

				<path
   style="fill:#e85752"
   id="path4389"
   d="M 70.213,61.878 L 70.213,62.327 L 70.7,62.327 L 70.7,62.586 L 70.213,62.586 L 70.213,63.595 C 70.213,63.827 70.278,63.959 70.468,63.959 C 70.561,63.959 70.615,63.951 70.665,63.936 L 70.681,64.195 C 70.616,64.218 70.511,64.241 70.379,64.241 C 70.221,64.241 70.093,64.187 70.012,64.098 C 69.919,63.994 69.88,63.827 69.88,63.607 L 69.88,62.586 L 69.59,62.586 L 69.59,62.327 L 69.88,62.327 L 69.88,61.983 L 70.213,61.878 z "
   i:knockout="Off" />

				<path
   style="fill:#e85752"
   id="path4391"
   d="M 71.822,64.242 C 71.319,64.242 70.926,63.871 70.926,63.279 C 70.926,62.652 71.339,62.285 71.854,62.285 C 72.392,62.285 72.755,62.676 72.755,63.244 C 72.755,63.94 72.272,64.242 71.826,64.242 L 71.822,64.242 z M 71.834,63.986 C 72.159,63.986 72.402,63.681 72.402,63.255 C 72.402,62.938 72.244,62.54 71.841,62.54 C 71.443,62.54 71.269,62.911 71.269,63.267 C 71.269,63.677 71.501,63.986 71.83,63.986 L 71.834,63.986 L 71.834,63.986 z "
   i:knockout="Off" />

				<path
   style="fill:#e85752"
   id="path4393"
   d="M 73.184,62.938 C 73.184,62.698 73.18,62.504 73.168,62.327 L 73.474,62.327 L 73.494,62.648 L 73.502,62.648 C 73.638,62.416 73.861,62.284 74.163,62.284 C 74.62,62.284 74.96,62.667 74.96,63.236 C 74.96,63.909 74.546,64.241 74.109,64.241 C 73.857,64.241 73.644,64.133 73.533,63.947 L 73.525,63.947 L 73.525,64.964 L 73.184,64.964 L 73.184,62.938 z M 73.524,63.438 C 73.524,63.484 73.528,63.535 73.539,63.577 C 73.598,63.813 73.807,63.975 74.046,63.975 C 74.406,63.975 74.615,63.681 74.615,63.251 C 74.615,62.876 74.422,62.555 74.061,62.555 C 73.83,62.555 73.609,62.718 73.542,62.973 C 73.535,63.019 73.523,63.07 73.523,63.112 L 73.523,63.438 L 73.524,63.438 z "
   i:knockout="Off" />

			</g>
    <path
       style="fill:#313131;fill-opacity:1"
       id="path5537"
       d="M 58.984437,56.381763 C 58.465238,56.381763 58.045715,56.80238 58.045715,57.320485 L 58.045715,62.016282 C 58.045715,62.535481 58.466333,62.953907 58.984437,62.953907 L 69.313656,62.953907 C 69.83176,62.953907 70.252377,62.534387 70.252377,62.016282 L 70.252377,57.320485 C 70.252377,56.801286 69.83176,56.381763 69.313656,56.381763 L 58.984437,56.381763 L 58.984437,56.381763 z "
       i:knockout="Off" />
    <rect
       style="fill:url(#linearGradient5553)"
       id="rect5539"
       height="4.6957974"
       width="10.32922"
       i:knockout="Off"
       y="57.320477"
       x="58.98444" />
    <g
       id="g5541"
       i:knockout="Off"
       transform="matrix(1.095357,0,0,1.095357,2.812304,-9.549982)"
       style="fill:#80ff80">
				<path
   style="fill:#80ff80"
   id="path5543"
   d="M 52.376,63.855 C 52.48,63.917 52.658,63.986 52.829,63.986 C 53.073,63.986 53.189,63.866 53.189,63.708 C 53.189,63.545 53.092,63.457 52.845,63.364 C 52.505,63.24 52.346,63.058 52.346,62.834 C 52.346,62.532 52.594,62.285 52.992,62.285 C 53.181,62.285 53.347,62.335 53.448,62.401 L 53.367,62.645 C 53.294,62.602 53.158,62.537 52.984,62.537 C 52.783,62.537 52.674,62.653 52.674,62.792 C 52.674,62.95 52.782,63.02 53.026,63.113 C 53.347,63.233 53.517,63.395 53.517,63.678 C 53.517,64.011 53.258,64.242 52.821,64.242 C 52.616,64.242 52.426,64.188 52.295,64.111 L 52.376,63.855 z "
   i:knockout="Off" />

				<path
   style="fill:#80ff80"
   id="path5545"
   d="M 54.365,61.878 L 54.365,62.327 L 54.852,62.327 L 54.852,62.586 L 54.365,62.586 L 54.365,63.595 C 54.365,63.827 54.431,63.959 54.62,63.959 C 54.713,63.959 54.767,63.951 54.817,63.936 L 54.832,64.195 C 54.767,64.218 54.662,64.241 54.531,64.241 C 54.372,64.241 54.244,64.187 54.163,64.098 C 54.07,63.994 54.032,63.827 54.032,63.607 L 54.032,62.586 L 53.742,62.586 L 53.742,62.327 L 54.032,62.327 L 54.032,61.983 L 54.365,61.878 z "
   i:knockout="Off" />

				<path
   style="fill:#80ff80"
   id="path5547"
   d="M 56.554,63.75 C 56.554,63.913 56.562,64.071 56.581,64.199 L 56.275,64.199 L 56.244,63.963 L 56.232,63.963 C 56.131,64.11 55.926,64.241 55.66,64.241 C 55.281,64.241 55.087,63.974 55.087,63.703 C 55.087,63.25 55.489,63.003 56.212,63.007 L 56.212,62.968 C 56.212,62.813 56.17,62.531 55.787,62.535 C 55.609,62.535 55.427,62.585 55.296,62.674 L 55.219,62.446 C 55.373,62.349 55.602,62.283 55.838,62.283 C 56.414,62.283 56.553,62.674 56.553,63.049 L 56.553,63.75 L 56.554,63.75 z M 56.221,63.244 C 55.85,63.237 55.428,63.302 55.428,63.666 C 55.428,63.89 55.575,63.991 55.745,63.991 C 55.993,63.991 56.151,63.836 56.205,63.678 C 56.217,63.643 56.221,63.604 56.221,63.57 L 56.221,63.244 z "
   i:knockout="Off" />

				<path
   style="fill:#80ff80"
   id="path5549"
   d="M 57.103,62.911 C 57.103,62.691 57.099,62.501 57.087,62.327 L 57.385,62.327 L 57.401,62.695 L 57.413,62.695 C 57.498,62.444 57.707,62.285 57.935,62.285 C 57.97,62.285 57.997,62.289 58.028,62.297 L 58.028,62.614 C 57.989,62.61 57.955,62.606 57.908,62.606 C 57.668,62.606 57.498,62.788 57.451,63.04 C 57.443,63.09 57.439,63.144 57.439,63.202 L 57.439,64.2 L 57.099,64.2 L 57.103,62.911 z "
   i:knockout="Off" />

				<path
   style="fill:#80ff80"
   id="path5551"
   d="M 58.866,61.878 L 58.866,62.327 L 59.353,62.327 L 59.353,62.586 L 58.866,62.586 L 58.866,63.595 C 58.866,63.827 58.932,63.959 59.121,63.959 C 59.214,63.959 59.268,63.951 59.318,63.936 L 59.333,64.195 C 59.268,64.218 59.163,64.241 59.031,64.241 C 58.873,64.241 58.745,64.187 58.664,64.098 C 58.571,63.994 58.533,63.827 58.533,63.607 L 58.533,62.586 L 58.243,62.586 L 58.243,62.327 L 58.533,62.327 L 58.533,61.983 L 58.866,61.878 z "
   i:knockout="Off" />

			</g>
    <circle
       sodipodi:ry="2.5"
       sodipodi:rx="2.5"
       sodipodi:cy="53.5"
       sodipodi:cx="98.5"
       style="fill:#313131;fill-opacity:1"
       id="circle5929"
       r="2.5"
       cy="53.5"
       cx="98.5"
       i:knockout="Off"
       transform="matrix(1.814381,0,0,1.814381,-76.8948,-44.56297)" />
    <circle
       style="fill:url(#radialGradient5945);fill-opacity:1"
       sodipodi:ry="1.5"
       sodipodi:rx="1.5"
       sodipodi:cy="53.5"
       sodipodi:cx="98.5"
       id="circle5931"
       r="1.5"
       cy="53.5"
       cx="98.5"
       i:knockout="Off"
       transform="matrix(2.273817,0,0,2.273817,-122.1492,-69.14276)" />
    <circle
       sodipodi:ry="2.5"
       sodipodi:rx="2.5"
       sodipodi:cy="67.5"
       sodipodi:cx="98.5"
       style="fill:url(#XMLID_68_)"
       id="circle4289"
       r="2.5"
       cy="67.5"
       cx="98.5"
       i:knockout="Off"
       transform="matrix(1.239899,0,0,1.239899,-20.1879,-23.3718)" />
    <circle
       style="fill:#ff3b3b;fill-opacity:1"
       sodipodi:ry="1.5"
       sodipodi:rx="1.5"
       sodipodi:cy="67.5"
       sodipodi:cx="98.5"
       id="circle4291"
       r="1.5"
       cy="67.5"
       cx="98.5"
       i:knockout="Off"
       transform="matrix(1.239899,0,0,1.239899,-20.1879,-23.3718)" />
  </g>
</svg>
