<?xml version="1.0" encoding="UTF-8" standalone="no"?>
<!-- Created with Inkscape (http://www.inkscape.org/) -->
<svg
   xmlns:dc="http://purl.org/dc/elements/1.1/"
   xmlns:cc="http://web.resource.org/cc/"
   xmlns:rdf="http://www.w3.org/1999/02/22-rdf-syntax-ns#"
   xmlns:svg="http://www.w3.org/2000/svg"
   xmlns="http://www.w3.org/2000/svg"
   xmlns:xlink="http://www.w3.org/1999/xlink"
   xmlns:sodipodi="http://sodipodi.sourceforge.net/DTD/sodipodi-0.dtd"
   xmlns:inkscape="http://www.inkscape.org/namespaces/inkscape"
   id="svg2"
   sodipodi:version="0.32"
   inkscape:version="0.44"
   width="128"
   height="128"
   sodipodi:docbase="/home/pinheiro/Desktop"
   sodipodi:docname="projector.svg"
   version="1.0"
   inkscape:export-filename="/home/pinheiro/Desktop/projector.png"
   inkscape:export-xdpi="24.313776"
   inkscape:export-ydpi="24.313776">
  <metadata
     id="metadata7">
    <rdf:RDF>
      <cc:Work
         rdf:about="">
        <dc:format>image/svg+xml</dc:format>
        <dc:type
           rdf:resource="http://purl.org/dc/dcmitype/StillImage" />
      </cc:Work>
    </rdf:RDF>
  </metadata>
  <defs
     id="defs5">
    <linearGradient
       id="linearGradient3529">
      <stop
         id="stop3531"
         offset="0"
         style="stop-color:#4a4a4a;stop-opacity:1;" />
      <stop
         id="stop3533"
         offset="1"
         style="stop-color:#323232;stop-opacity:1;" />
    </linearGradient>
    <linearGradient
       inkscape:collect="always"
       id="linearGradient3513">
      <stop
         style="stop-color:black;stop-opacity:1;"
         offset="0"
         id="stop3515" />
      <stop
         style="stop-color:black;stop-opacity:0;"
         offset="1"
         id="stop3517" />
    </linearGradient>
    <linearGradient
       inkscape:collect="always"
       id="linearGradient3201">
      <stop
         style="stop-color:black;stop-opacity:1;"
         offset="0"
         id="stop3203" />
      <stop
         style="stop-color:black;stop-opacity:0;"
         offset="1"
         id="stop3205" />
    </linearGradient>
    <linearGradient
       inkscape:collect="always"
       id="linearGradient3005">
      <stop
         style="stop-color:#1f1f1e;stop-opacity:1;"
         offset="0"
         id="stop3007" />
      <stop
         style="stop-color:#1f1f1e;stop-opacity:0;"
         offset="1"
         id="stop3009" />
    </linearGradient>
    <linearGradient
       inkscape:collect="always"
       id="linearGradient2995">
      <stop
         style="stop-color:#bebebb;stop-opacity:1;"
         offset="0"
         id="stop2997" />
      <stop
         style="stop-color:#bebebb;stop-opacity:0;"
         offset="1"
         id="stop2999" />
    </linearGradient>
    <linearGradient
       inkscape:collect="always"
       id="linearGradient3135">
      <stop
         style="stop-color:black;stop-opacity:1;"
         offset="0"
         id="stop3137" />
      <stop
         style="stop-color:black;stop-opacity:0;"
         offset="1"
         id="stop3139" />
    </linearGradient>
    <linearGradient
       id="linearGradient3116">
      <stop
         style="stop-color:#f5f5f5;stop-opacity:1;"
         offset="0"
         id="stop3118" />
      <stop
         style="stop-color:#c5c5c5;stop-opacity:1;"
         offset="1"
         id="stop3120" />
    </linearGradient>
    <linearGradient
       id="linearGradient3105">
      <stop
         style="stop-color:#646464;stop-opacity:1;"
         offset="0"
         id="stop3107" />
      <stop
         style="stop-color:#d5d5d5;stop-opacity:1;"
         offset="1"
         id="stop3109" />
    </linearGradient>
    <linearGradient
       id="linearGradient3061">
      <stop
         id="stop3063"
         offset="0"
         style="stop-color:black;stop-opacity:1;" />
      <stop
         style="stop-color:black;stop-opacity:1;"
         offset="0.73451328"
         id="stop3067" />
      <stop
         id="stop3065"
         offset="1"
         style="stop-color:black;stop-opacity:0;" />
    </linearGradient>
    <linearGradient
       inkscape:collect="always"
       id="linearGradient3021">
      <stop
         style="stop-color:white;stop-opacity:1;"
         offset="0"
         id="stop3023" />
      <stop
         style="stop-color:white;stop-opacity:0;"
         offset="1"
         id="stop3025" />
    </linearGradient>
    <linearGradient
       id="linearGradient2973">
      <stop
         id="stop2975"
         offset="0"
         style="stop-color:#cf79d5;stop-opacity:1;" />
      <stop
         id="stop2977"
         offset="1"
         style="stop-color:#a7a7a7;stop-opacity:0;" />
    </linearGradient>
    <linearGradient
       inkscape:collect="always"
       id="linearGradient2963">
      <stop
         style="stop-color:white;stop-opacity:1;"
         offset="0"
         id="stop2965" />
      <stop
         style="stop-color:white;stop-opacity:0;"
         offset="1"
         id="stop2967" />
    </linearGradient>
    <linearGradient
       id="linearGradient2953">
      <stop
         style="stop-color:#d5d079;stop-opacity:1;"
         offset="0"
         id="stop2955" />
      <stop
         style="stop-color:#a7a7a7;stop-opacity:0;"
         offset="1"
         id="stop2957" />
    </linearGradient>
    <linearGradient
       id="linearGradient2925">
      <stop
         style="stop-color:black;stop-opacity:1;"
         offset="0"
         id="stop2927" />
      <stop
         style="stop-color:#3b3b3b;stop-opacity:1;"
         offset="1"
         id="stop2929" />
    </linearGradient>
    <linearGradient
       id="linearGradient2896">
      <stop
         style="stop-color:#434343;stop-opacity:1;"
         offset="0"
         id="stop2898" />
      <stop
         id="stop2906"
         offset="0.40044248"
         style="stop-color:#737473;stop-opacity:1;" />
      <stop
         id="stop2904"
         offset="0.5"
         style="stop-color:#cfd1cf;stop-opacity:1;" />
      <stop
         style="stop-color:#9b9c9b;stop-opacity:1;"
         offset="0.6238938"
         id="stop2908" />
      <stop
         style="stop-color:#828282;stop-opacity:1;"
         offset="1"
         id="stop2900" />
    </linearGradient>
    <linearGradient
       inkscape:collect="always"
       id="linearGradient2819">
      <stop
         style="stop-color:white;stop-opacity:1;"
         offset="0"
         id="stop2821" />
      <stop
         style="stop-color:white;stop-opacity:0;"
         offset="1"
         id="stop2823" />
    </linearGradient>
    <linearGradient
       id="linearGradient2804">
      <stop
         style="stop-color:#dedfd9;stop-opacity:0;"
         offset="0"
         id="stop2806" />
      <stop
         id="stop2812"
         offset="0.69469029"
         style="stop-color:#dedfd9;stop-opacity:0;" />
      <stop
         style="stop-color:#a3a3a3;stop-opacity:1;"
         offset="1"
         id="stop2808" />
    </linearGradient>
    <linearGradient
       id="linearGradient2788">
      <stop
         style="stop-color:#b2b3ae;stop-opacity:1;"
         offset="0"
         id="stop2790" />
      <stop
         id="stop2798"
         offset="0.11283186"
         style="stop-color:#e1e1e0;stop-opacity:1;" />
      <stop
         id="stop2796"
         offset="0.24874696"
         style="stop-color:#f7f7f7;stop-opacity:1;" />
      <stop
         style="stop-color:#e9e9e7;stop-opacity:1;"
         offset="0.90044248"
         id="stop2800" />
      <stop
         style="stop-color:#b2b3ae;stop-opacity:1;"
         offset="1"
         id="stop2792" />
    </linearGradient>
    <linearGradient
       inkscape:collect="always"
       xlink:href="#linearGradient2788"
       id="linearGradient3194"
       gradientUnits="userSpaceOnUse"
       gradientTransform="translate(-114.1791,21.65465)"
       x1="-406.45703"
       y1="467.33371"
       x2="34.806725"
       y2="467.33371" />
    <radialGradient
       inkscape:collect="always"
       xlink:href="#linearGradient2804"
       id="radialGradient3196"
       gradientUnits="userSpaceOnUse"
       gradientTransform="matrix(1.367921,0,0,0.867589,-45.8102,5.256311)"
       cx="-185.82515"
       cy="671.47583"
       fx="-185.82515"
       fy="671.47583"
       r="220.63188" />
    <linearGradient
       inkscape:collect="always"
       xlink:href="#linearGradient2819"
       id="linearGradient3198"
       gradientUnits="userSpaceOnUse"
       gradientTransform="translate(-114.1791,21.65465)"
       x1="-438.51868"
       y1="485.4386"
       x2="-68.19693"
       y2="467.34244" />
    <radialGradient
       inkscape:collect="always"
       xlink:href="#linearGradient2995"
       id="radialGradient3003"
       cx="132.8766"
       cy="299.78281"
       fx="132.8766"
       fy="299.78281"
       r="57.807114"
       gradientTransform="matrix(0.965926,-0.658653,7.059542e-2,0.670478,-16.63563,117.0856)"
       gradientUnits="userSpaceOnUse" />
    <radialGradient
       inkscape:collect="always"
       xlink:href="#linearGradient2995"
       id="radialGradient3018"
       gradientUnits="userSpaceOnUse"
       gradientTransform="matrix(0.965926,-0.658653,7.059542e-2,0.670478,-16.63563,117.0856)"
       cx="132.8766"
       cy="299.78281"
       fx="132.8766"
       fy="299.78281"
       r="57.807114" />
    <radialGradient
       inkscape:collect="always"
       xlink:href="#linearGradient2995"
       id="radialGradient3100"
       gradientUnits="userSpaceOnUse"
       gradientTransform="matrix(0.965926,-0.658653,7.059542e-2,0.670478,-16.63563,117.0856)"
       cx="132.8766"
       cy="299.78281"
       fx="132.8766"
       fy="299.78281"
       r="57.807114" />
    <radialGradient
       inkscape:collect="always"
       xlink:href="#linearGradient2995"
       id="radialGradient3139"
       gradientUnits="userSpaceOnUse"
       gradientTransform="matrix(0.897416,-0.611937,6.558835e-2,0.622923,-379.9641,137.396)"
       cx="132.8766"
       cy="299.78281"
       fx="132.8766"
       fy="299.78281"
       r="57.807114" />
    <linearGradient
       inkscape:collect="always"
       xlink:href="#linearGradient3201"
       id="linearGradient3303"
       gradientUnits="userSpaceOnUse"
       x1="-390.22708"
       y1="532.16144"
       x2="-378.66989"
       y2="-36.765205" />
    <linearGradient
       inkscape:collect="always"
       xlink:href="#linearGradient3201"
       id="linearGradient3305"
       gradientUnits="userSpaceOnUse"
       x1="-390.22708"
       y1="532.16144"
       x2="-378.66989"
       y2="-36.765205" />
    <linearGradient
       inkscape:collect="always"
       xlink:href="#linearGradient3201"
       id="linearGradient3307"
       gradientUnits="userSpaceOnUse"
       x1="-390.22708"
       y1="532.16144"
       x2="-378.66989"
       y2="-36.765205" />
    <linearGradient
       inkscape:collect="always"
       xlink:href="#linearGradient3201"
       id="linearGradient3309"
       gradientUnits="userSpaceOnUse"
       x1="-390.22708"
       y1="532.16144"
       x2="-378.66989"
       y2="-36.765205" />
    <linearGradient
       inkscape:collect="always"
       xlink:href="#linearGradient3201"
       id="linearGradient3311"
       gradientUnits="userSpaceOnUse"
       x1="-270.14221"
       y1="475.0719"
       x2="-284.17688"
       y2="-42.671017" />
    <linearGradient
       inkscape:collect="always"
       xlink:href="#linearGradient3201"
       id="linearGradient3313"
       gradientUnits="userSpaceOnUse"
       x1="-455.19101"
       y1="433.7312"
       x2="-469.22568"
       y2="-125.35239" />
    <linearGradient
       inkscape:collect="always"
       xlink:href="#linearGradient3201"
       id="linearGradient3315"
       gradientUnits="userSpaceOnUse"
       x1="-226.83292"
       y1="469.16608"
       x2="-388.51291"
       y2="-62.357048" />
    <linearGradient
       inkscape:collect="always"
       xlink:href="#linearGradient3201"
       id="linearGradient3317"
       gradientUnits="userSpaceOnUse"
       x1="-226.83292"
       y1="469.16608"
       x2="-388.51291"
       y2="-62.357048" />
    <linearGradient
       inkscape:collect="always"
       xlink:href="#linearGradient3105"
       id="linearGradient3319"
       gradientUnits="userSpaceOnUse"
       gradientTransform="matrix(1.041787,0,0,1.196131,530.9144,-643.8965)"
       x1="-265.7616"
       y1="843.69012"
       x2="-261.82437"
       y2="672.38837" />
    <radialGradient
       inkscape:collect="always"
       xlink:href="#linearGradient3116"
       id="radialGradient3321"
       gradientUnits="userSpaceOnUse"
       gradientTransform="matrix(-1.092226,0,0,-0.107364,-64.65186,400.3212)"
       cx="-278.34338"
       cy="588.7876"
       fx="-278.34338"
       fy="588.7876"
       r="220.62515" />
    <linearGradient
       inkscape:collect="always"
       xlink:href="#linearGradient3135"
       id="linearGradient3323"
       gradientUnits="userSpaceOnUse"
       gradientTransform="matrix(-1.032416,0,0,1.196131,-48.40731,-643.2851)"
       x1="-548.46332"
       y1="751.69611"
       x2="-475.65253"
       y2="751.69611" />
    <linearGradient
       inkscape:collect="always"
       xlink:href="#linearGradient3135"
       id="linearGradient3325"
       gradientUnits="userSpaceOnUse"
       gradientTransform="matrix(1.032416,0,0,1.196131,527.2631,-643.8965)"
       x1="-548.46332"
       y1="751.69611"
       x2="-475.65253"
       y2="751.69611" />
    <radialGradient
       inkscape:collect="always"
       xlink:href="#linearGradient3116"
       id="radialGradient3327"
       gradientUnits="userSpaceOnUse"
       gradientTransform="matrix(1.032416,0,0,9.656751e-2,527.2631,117.2655)"
       cx="-278.34338"
       cy="588.7876"
       fx="-278.34338"
       fy="588.7876"
       r="220.62515" />
    <linearGradient
       inkscape:collect="always"
       xlink:href="#linearGradient2788"
       id="linearGradient3329"
       gradientUnits="userSpaceOnUse"
       gradientTransform="matrix(1.032416,0,0,1.196131,431.743,-493.1952)"
       x1="-406.45703"
       y1="467.33371"
       x2="34.806725"
       y2="467.33371" />
    <radialGradient
       inkscape:collect="always"
       xlink:href="#linearGradient2804"
       id="radialGradient3331"
       gradientUnits="userSpaceOnUse"
       gradientTransform="matrix(1.412264,0,0,1.03775,502.3281,-512.8098)"
       cx="-185.82515"
       cy="671.47583"
       fx="-185.82515"
       fy="671.47583"
       r="220.63188" />
    <radialGradient
       inkscape:collect="always"
       xlink:href="#linearGradient2995"
       id="radialGradient3333"
       gradientUnits="userSpaceOnUse"
       gradientTransform="matrix(0.965926,-0.658653,7.059542e-2,0.670478,-16.63563,117.0856)"
       cx="132.8766"
       cy="299.78281"
       fx="132.8766"
       fy="299.78281"
       r="57.807114" />
    <radialGradient
       inkscape:collect="always"
       xlink:href="#linearGradient3005"
       id="radialGradient3335"
       gradientUnits="userSpaceOnUse"
       gradientTransform="matrix(2.082311,0,0,0.259171,-229.2127,133.1824)"
       cx="215.19121"
       cy="-71.861473"
       fx="215.19121"
       fy="-71.861473"
       r="91.875" />
    <linearGradient
       inkscape:collect="always"
       xlink:href="#linearGradient2819"
       id="linearGradient3337"
       gradientUnits="userSpaceOnUse"
       gradientTransform="matrix(1.032416,0,0,1.196131,431.743,-493.1952)"
       x1="-438.51868"
       y1="485.4386"
       x2="-68.19693"
       y2="467.34244" />
    <radialGradient
       inkscape:collect="always"
       xlink:href="#linearGradient3061"
       id="radialGradient3339"
       gradientUnits="userSpaceOnUse"
       gradientTransform="matrix(1,0,0,0.848214,0,95.18508)"
       cx="315.98706"
       cy="627.10205"
       fx="315.98706"
       fy="627.10205"
       r="77.952751" />
    <linearGradient
       inkscape:collect="always"
       xlink:href="#linearGradient2896"
       id="linearGradient3341"
       gradientUnits="userSpaceOnUse"
       gradientTransform="matrix(0.939412,0,0,0.939412,187.3822,192.2571)"
       x1="66.12059"
       y1="561.67743"
       x2="186.6562"
       y2="572.11749" />
    <linearGradient
       inkscape:collect="always"
       xlink:href="#linearGradient2925"
       id="linearGradient3343"
       gradientUnits="userSpaceOnUse"
       x1="302.69025"
       y1="671.46991"
       x2="313.55103"
       y2="600.60718" />
    <linearGradient
       inkscape:collect="always"
       xlink:href="#linearGradient2896"
       id="linearGradient3345"
       gradientUnits="userSpaceOnUse"
       x1="447.28278"
       y1="699.44855"
       x2="540.11981"
       y2="596.67487" />
    <radialGradient
       inkscape:collect="always"
       xlink:href="#linearGradient2953"
       id="radialGradient3347"
       gradientUnits="userSpaceOnUse"
       gradientTransform="matrix(1,0,0,0.842105,0,102.313)"
       cx="500.77686"
       cy="666.13513"
       fx="501.6261"
       fy="686.30499"
       r="46.284447" />
    <radialGradient
       inkscape:collect="always"
       xlink:href="#linearGradient2973"
       id="radialGradient3349"
       gradientUnits="userSpaceOnUse"
       gradientTransform="matrix(1,0,0,0.842105,0,102.313)"
       cx="500.77686"
       cy="647.98248"
       fx="482.0932"
       fy="618.73627"
       r="46.284447" />
    <linearGradient
       inkscape:collect="always"
       xlink:href="#linearGradient2963"
       id="linearGradient3351"
       gradientUnits="userSpaceOnUse"
       x1="476.4166"
       y1="590.21368"
       x2="476.4166"
       y2="641.7182" />
    <radialGradient
       inkscape:collect="always"
       xlink:href="#linearGradient3021"
       id="radialGradient3353"
       gradientUnits="userSpaceOnUse"
       gradientTransform="matrix(1.021097,0,0,0.853609,-3.60272,113.3443)"
       cx="282.06351"
       cy="739.40558"
       fx="282.06351"
       fy="739.40558"
       r="69.0625" />
    <radialGradient
       inkscape:collect="always"
       xlink:href="#linearGradient3061"
       id="radialGradient3355"
       gradientUnits="userSpaceOnUse"
       gradientTransform="matrix(1,0,0,0.848214,0,95.18508)"
       cx="315.98706"
       cy="627.10205"
       fx="315.98706"
       fy="627.10205"
       r="77.952751" />
    <linearGradient
       inkscape:collect="always"
       xlink:href="#linearGradient2896"
       id="linearGradient3357"
       gradientUnits="userSpaceOnUse"
       gradientTransform="matrix(0.304401,0,0,0.351733,29.68376,45.64151)"
       x1="-13.409908"
       y1="525.72382"
       x2="293.14871"
       y2="596.81226" />
    <linearGradient
       inkscape:collect="always"
       xlink:href="#linearGradient2896"
       id="linearGradient3361"
       gradientUnits="userSpaceOnUse"
       gradientTransform="matrix(0.324034,0,0,0.374418,-91.50146,31.065)"
       x1="528.5863"
       y1="615.79791"
       x2="576.89996"
       y2="550.20227" />
    <linearGradient
       inkscape:collect="always"
       xlink:href="#linearGradient2963"
       id="linearGradient3363"
       gradientUnits="userSpaceOnUse"
       x1="476.4166"
       y1="590.21368"
       x2="476.4166"
       y2="641.7182" />
    <radialGradient
       inkscape:collect="always"
       xlink:href="#linearGradient3021"
       id="radialGradient3365"
       gradientUnits="userSpaceOnUse"
       gradientTransform="matrix(0.33087,0,0,0.319607,-32.20174,16.09514)"
       cx="282.06351"
       cy="739.40558"
       fx="282.06351"
       fy="739.40558"
       r="69.0625" />
    <radialGradient
       inkscape:collect="always"
       xlink:href="#linearGradient3021"
       id="radialGradient3369"
       gradientUnits="userSpaceOnUse"
       gradientTransform="matrix(8.734273e-2,0,0,8.436954e-2,-7.911901,20.22423)"
       cx="282.06351"
       cy="739.40558"
       fx="282.06351"
       fy="739.40558"
       r="69.0625" />
    <linearGradient
       inkscape:collect="always"
       xlink:href="#linearGradient2896"
       id="linearGradient3373"
       gradientUnits="userSpaceOnUse"
       gradientTransform="matrix(8.553817e-2,0,0,9.883849e-2,-23.56578,24.17596)"
       x1="528.5863"
       y1="615.79791"
       x2="576.89996"
       y2="550.20227" />
    <linearGradient
       inkscape:collect="always"
       xlink:href="#linearGradient2896"
       id="linearGradient3377"
       gradientUnits="userSpaceOnUse"
       gradientTransform="matrix(8.035547e-2,0,0,9.285013e-2,8.424571,28.02385)"
       x1="-13.409908"
       y1="525.72382"
       x2="293.14871"
       y2="596.81226" />
    <linearGradient
       inkscape:collect="always"
       xlink:href="#linearGradient2819"
       id="linearGradient3395"
       gradientUnits="userSpaceOnUse"
       gradientTransform="matrix(0.272536,0,0,0.315753,114.5598,-114.2177)"
       x1="-438.51868"
       y1="485.4386"
       x2="-68.19693"
       y2="467.34244" />
    <radialGradient
       inkscape:collect="always"
       xlink:href="#linearGradient2804"
       id="radialGradient3402"
       gradientUnits="userSpaceOnUse"
       gradientTransform="matrix(0.372808,0,0,0.273944,133.1928,-119.3956)"
       cx="-185.82515"
       cy="671.47583"
       fx="-185.82515"
       fy="671.47583"
       r="220.63188" />
    <linearGradient
       inkscape:collect="always"
       xlink:href="#linearGradient2788"
       id="linearGradient3405"
       gradientUnits="userSpaceOnUse"
       gradientTransform="matrix(0.272536,0,0,0.315753,114.5598,-114.2177)"
       x1="-406.45703"
       y1="467.33371"
       x2="34.806725"
       y2="467.33371" />
    <radialGradient
       inkscape:collect="always"
       xlink:href="#linearGradient3116"
       id="radialGradient3408"
       gradientUnits="userSpaceOnUse"
       gradientTransform="matrix(0.272536,0,0,2.549179e-2,139.7751,46.93108)"
       cx="-278.34338"
       cy="588.7876"
       fx="-278.34338"
       fy="588.7876"
       r="220.62515" />
    <linearGradient
       inkscape:collect="always"
       xlink:href="#linearGradient3135"
       id="linearGradient3411"
       gradientUnits="userSpaceOnUse"
       gradientTransform="matrix(0.272536,0,0,0.315753,139.7751,-153.9997)"
       x1="-548.46332"
       y1="751.69611"
       x2="-475.65253"
       y2="751.69611" />
    <linearGradient
       inkscape:collect="always"
       xlink:href="#linearGradient3135"
       id="linearGradient3415"
       gradientUnits="userSpaceOnUse"
       gradientTransform="matrix(-0.272536,0,0,0.315753,-12.18983,-153.8383)"
       x1="-548.46332"
       y1="751.69611"
       x2="-475.65253"
       y2="751.69611" />
    <radialGradient
       inkscape:collect="always"
       xlink:href="#linearGradient3116"
       id="radialGradient3418"
       gradientUnits="userSpaceOnUse"
       gradientTransform="matrix(-0.288325,0,0,-2.834184e-2,-16.47805,121.6518)"
       cx="-278.34338"
       cy="588.7876"
       fx="-278.34338"
       fy="588.7876"
       r="220.62515" />
    <linearGradient
       inkscape:collect="always"
       xlink:href="#linearGradient3105"
       id="linearGradient3421"
       gradientUnits="userSpaceOnUse"
       gradientTransform="matrix(0.27501,0,0,0.315753,140.7389,-153.9997)"
       x1="-265.7616"
       y1="843.69012"
       x2="-261.82437"
       y2="672.38837" />
    <radialGradient
       inkscape:collect="always"
       xlink:href="#linearGradient3061"
       id="radialGradient3432"
       gradientUnits="userSpaceOnUse"
       gradientTransform="matrix(1,0,0,0.848214,0,95.18508)"
       cx="315.98706"
       cy="627.10205"
       fx="315.98706"
       fy="627.10205"
       r="77.952751" />
    <linearGradient
       inkscape:collect="always"
       xlink:href="#linearGradient2896"
       id="linearGradient3434"
       gradientUnits="userSpaceOnUse"
       gradientTransform="matrix(0.939412,0,0,0.939412,187.3822,192.2571)"
       x1="66.12059"
       y1="561.67743"
       x2="186.6562"
       y2="572.11749" />
    <linearGradient
       inkscape:collect="always"
       xlink:href="#linearGradient2925"
       id="linearGradient3436"
       gradientUnits="userSpaceOnUse"
       x1="302.69025"
       y1="671.46991"
       x2="313.55103"
       y2="600.60718" />
    <linearGradient
       inkscape:collect="always"
       xlink:href="#linearGradient2896"
       id="linearGradient3438"
       gradientUnits="userSpaceOnUse"
       x1="447.28278"
       y1="699.44855"
       x2="540.11981"
       y2="596.67487" />
    <radialGradient
       inkscape:collect="always"
       xlink:href="#linearGradient2953"
       id="radialGradient3440"
       gradientUnits="userSpaceOnUse"
       gradientTransform="matrix(1,0,0,0.842105,0,102.313)"
       cx="500.77686"
       cy="666.13513"
       fx="501.6261"
       fy="686.30499"
       r="46.284447" />
    <radialGradient
       inkscape:collect="always"
       xlink:href="#linearGradient2973"
       id="radialGradient3442"
       gradientUnits="userSpaceOnUse"
       gradientTransform="matrix(1,0,0,0.842105,0,102.313)"
       cx="500.77686"
       cy="647.98248"
       fx="482.0932"
       fy="618.73627"
       r="46.284447" />
    <linearGradient
       inkscape:collect="always"
       xlink:href="#linearGradient2963"
       id="linearGradient3444"
       gradientUnits="userSpaceOnUse"
       x1="476.4166"
       y1="590.21368"
       x2="476.4166"
       y2="641.7182" />
    <radialGradient
       inkscape:collect="always"
       xlink:href="#linearGradient3021"
       id="radialGradient3446"
       gradientUnits="userSpaceOnUse"
       gradientTransform="matrix(1.021097,0,0,0.853609,-3.60272,113.3443)"
       cx="282.06351"
       cy="739.40558"
       fx="282.06351"
       fy="739.40558"
       r="69.0625" />
    <linearGradient
       inkscape:collect="always"
       xlink:href="#linearGradient2896"
       id="linearGradient3460"
       gradientUnits="userSpaceOnUse"
       gradientTransform="matrix(0.939412,0,0,0.939412,187.3822,192.2571)"
       x1="66.12059"
       y1="561.67743"
       x2="186.6562"
       y2="572.11749" />
    <linearGradient
       inkscape:collect="always"
       xlink:href="#linearGradient2925"
       id="linearGradient3462"
       gradientUnits="userSpaceOnUse"
       x1="302.69025"
       y1="671.46991"
       x2="313.55103"
       y2="600.60718" />
    <linearGradient
       inkscape:collect="always"
       xlink:href="#linearGradient2896"
       id="linearGradient3464"
       gradientUnits="userSpaceOnUse"
       x1="447.28278"
       y1="699.44855"
       x2="540.11981"
       y2="596.67487" />
    <radialGradient
       inkscape:collect="always"
       xlink:href="#linearGradient2953"
       id="radialGradient3466"
       gradientUnits="userSpaceOnUse"
       gradientTransform="matrix(1,0,0,0.842105,0,102.313)"
       cx="500.77686"
       cy="666.13513"
       fx="501.6261"
       fy="686.30499"
       r="46.284447" />
    <radialGradient
       inkscape:collect="always"
       xlink:href="#linearGradient2973"
       id="radialGradient3468"
       gradientUnits="userSpaceOnUse"
       gradientTransform="matrix(1,0,0,0.842105,0,102.313)"
       cx="500.77686"
       cy="647.98248"
       fx="482.0932"
       fy="618.73627"
       r="46.284447" />
    <linearGradient
       inkscape:collect="always"
       xlink:href="#linearGradient2963"
       id="linearGradient3470"
       gradientUnits="userSpaceOnUse"
       x1="476.4166"
       y1="590.21368"
       x2="476.4166"
       y2="641.7182" />
    <radialGradient
       inkscape:collect="always"
       xlink:href="#linearGradient3021"
       id="radialGradient3472"
       gradientUnits="userSpaceOnUse"
       gradientTransform="matrix(1.021097,0,0,0.853609,-3.60272,113.3443)"
       cx="282.06351"
       cy="739.40558"
       fx="282.06351"
       fy="739.40558"
       r="69.0625" />
    <radialGradient
       inkscape:collect="always"
       xlink:href="#linearGradient3021"
       id="radialGradient3475"
       gradientUnits="userSpaceOnUse"
       gradientTransform="matrix(0.340578,0,0,0.296491,-34.44984,-142.2383)"
       cx="282.06351"
       cy="739.40558"
       fx="282.06351"
       fy="739.40558"
       r="69.0625" />
    <linearGradient
       inkscape:collect="always"
       xlink:href="#linearGradient2896"
       id="linearGradient3486"
       gradientUnits="userSpaceOnUse"
       gradientTransform="matrix(0.313332,0,0,0.326293,29.25146,-114.8289)"
       x1="66.12059"
       y1="561.67743"
       x2="186.6562"
       y2="572.11749" />
    <linearGradient
       inkscape:collect="always"
       xlink:href="#linearGradient2925"
       id="linearGradient3488"
       gradientUnits="userSpaceOnUse"
       x1="302.69025"
       y1="671.46991"
       x2="313.55103"
       y2="600.60718" />
    <linearGradient
       inkscape:collect="always"
       xlink:href="#linearGradient2896"
       id="linearGradient3490"
       gradientUnits="userSpaceOnUse"
       x1="447.28278"
       y1="699.44855"
       x2="540.11981"
       y2="596.67487" />
    <radialGradient
       inkscape:collect="always"
       xlink:href="#linearGradient2953"
       id="radialGradient3492"
       gradientUnits="userSpaceOnUse"
       gradientTransform="matrix(1,0,0,0.842105,0,102.313)"
       cx="500.77686"
       cy="666.13513"
       fx="501.6261"
       fy="686.30499"
       r="46.284447" />
    <radialGradient
       inkscape:collect="always"
       xlink:href="#linearGradient2973"
       id="radialGradient3494"
       gradientUnits="userSpaceOnUse"
       gradientTransform="matrix(1,0,0,0.842105,0,102.313)"
       cx="500.77686"
       cy="647.98248"
       fx="482.0932"
       fy="618.73627"
       r="46.284447" />
    <linearGradient
       inkscape:collect="always"
       xlink:href="#linearGradient2963"
       id="linearGradient3496"
       gradientUnits="userSpaceOnUse"
       x1="476.4166"
       y1="590.21368"
       x2="476.4166"
       y2="641.7182" />
    <linearGradient
       inkscape:collect="always"
       xlink:href="#linearGradient2896"
       id="linearGradient3504"
       gradientUnits="userSpaceOnUse"
       x1="447.28278"
       y1="699.44855"
       x2="540.11981"
       y2="596.67487"
       gradientTransform="matrix(0.333541,0,0,0.347338,-95.48938,-128.3512)" />
    <linearGradient
       inkscape:collect="always"
       xlink:href="#linearGradient2963"
       id="linearGradient3507"
       gradientUnits="userSpaceOnUse"
       x1="476.4166"
       y1="590.21368"
       x2="476.4166"
       y2="641.7182" />
    <radialGradient
       inkscape:collect="always"
       xlink:href="#linearGradient2973"
       id="radialGradient3509"
       gradientUnits="userSpaceOnUse"
       gradientTransform="matrix(1,0,0,0.842105,0,102.313)"
       cx="500.77686"
       cy="647.98248"
       fx="482.0932"
       fy="618.73627"
       r="46.284447" />
    <radialGradient
       inkscape:collect="always"
       xlink:href="#linearGradient2953"
       id="radialGradient3511"
       gradientUnits="userSpaceOnUse"
       gradientTransform="matrix(1,0,0,0.842105,0,102.313)"
       cx="500.77686"
       cy="666.13513"
       fx="501.6261"
       fy="686.30499"
       r="46.284447" />
    <radialGradient
       inkscape:collect="always"
       xlink:href="#linearGradient3513"
       id="radialGradient3519"
       cx="60.777565"
       cy="104.56356"
       fx="60.777565"
       fy="104.56356"
       r="15.612851"
       gradientTransform="matrix(1,0,0,0.497541,0,48.67302)"
       gradientUnits="userSpaceOnUse" />
    <linearGradient
       inkscape:collect="always"
       xlink:href="#linearGradient3529"
       id="linearGradient3527"
       x1="56.332405"
       y1="105.08697"
       x2="76.052719"
       y2="74.226662"
       gradientUnits="userSpaceOnUse" />
  </defs>
  <sodipodi:namedview
     inkscape:window-height="571"
     inkscape:window-width="849"
     inkscape:pageshadow="2"
     inkscape:pageopacity="0.0"
     guidetolerance="10.0"
     gridtolerance="10.0"
     objecttolerance="10.0"
     borderopacity="1.0"
     bordercolor="#666666"
     pagecolor="#ffffff"
     id="base"
     showguides="true"
     inkscape:guide-bbox="true"
     inkscape:zoom="2.0318964"
     inkscape:cx="10.524333"
     inkscape:cy="65.060856"
     inkscape:window-x="220"
     inkscape:window-y="98"
     inkscape:current-layer="svg2"
     width="128px"
     height="128px" />
  <g
     id="g3232"
     transform="matrix(0.258666,0,0,0.25588,156.9663,18.63089)"
     style="opacity:0.74358975">
    <path
       id="path3020"
       d="M -359.28125,11.21875 C -390.45412,11.343639 -421.71573,12.63256 -452.56899,17.328185 C -472.25547,20.411246 -491.9001,24.826289 -510.27884,32.68554 C -522.45421,37.958615 -534.17941,44.884761 -543.32503,54.624678 C -546.66466,58.322947 -548.83811,62.979599 -549.80924,67.850164 C -555.64726,91.431313 -562.91938,114.62832 -570.47509,137.70699 C -575.45863,152.80701 -580.61216,167.85176 -586,182.8125 C -586.2595,184.21154 -586.39544,185.63954 -586.3125,187.0625 C -586.62757,188.12475 -586.67191,189.33969 -586.9375,190.28276 C -586.9375,229.63642 -586.9375,268.99009 -586.9375,308.34375 C -586.21127,308.29873 -586.43396,308.9642 -586.40625,309.44202 C -586.40625,312.06551 -586.40625,314.68901 -586.40625,317.3125 C -544.93397,330.0363 -502.34758,339.20519 -459.24492,344.1893 C -450.70839,345.21096 -442.14439,345.97896 -433.58399,346.76088 C -422.40864,347.98488 -411.19716,348.88022 -399.96875,349.4375 C -376.32223,358.61748 -349.19885,358.48444 -325.65625,349.03125 C -288.04333,347.81725 -250.47105,344.22168 -213.45224,337.37001 C -185.6401,332.26138 -158.15484,325.42172 -131.125,317.125 C -131.125,275.95833 -131.125,234.79167 -131.125,193.625 C -130.74682,191.68683 -130.71864,189.69606 -130.85728,187.73631 C -130.69776,185.99333 -130.77699,184.1895 -131.23844,182.49943 C -140.582,156.42256 -149.39955,130.15198 -157.41891,103.6365 C -161.2713,90.869243 -164.85589,78.018817 -168.01789,65.062911 C -169.43258,60.167461 -172.32049,55.764918 -176.06889,52.333923 C -186.9957,41.76972 -200.78984,34.710287 -214.92939,29.472502 C -235.3025,22.035899 -256.76455,18.093106 -278.23409,15.457832 C -305.11822,12.249375 -332.22271,11.266589 -359.28125,11.21875 z "
       style="opacity:0.3992674;fill:none;fill-opacity:1;stroke:url(#linearGradient3303);stroke-width:40;stroke-linecap:round;stroke-linejoin:round;stroke-miterlimit:4;stroke-dasharray:none;stroke-dashoffset:4;stroke-opacity:1" />
    <path
       style="opacity:0.3992674;fill:none;fill-opacity:1;stroke:url(#linearGradient3305);stroke-width:32.5;stroke-linecap:round;stroke-linejoin:round;stroke-miterlimit:4;stroke-dasharray:none;stroke-dashoffset:4;stroke-opacity:1"
       d="M -359.28125,11.21875 C -390.45412,11.343639 -421.71573,12.63256 -452.56899,17.328185 C -472.25547,20.411246 -491.9001,24.826289 -510.27884,32.68554 C -522.45421,37.958615 -534.17941,44.884761 -543.32503,54.624678 C -546.66466,58.322947 -548.83811,62.979599 -549.80924,67.850164 C -555.64726,91.431313 -562.91938,114.62832 -570.47509,137.70699 C -575.45863,152.80701 -580.61216,167.85176 -586,182.8125 C -586.2595,184.21154 -586.39544,185.63954 -586.3125,187.0625 C -586.62757,188.12475 -586.67191,189.33969 -586.9375,190.28276 C -586.9375,229.63642 -586.9375,268.99009 -586.9375,308.34375 C -586.21127,308.29873 -586.43396,308.9642 -586.40625,309.44202 C -586.40625,312.06551 -586.40625,314.68901 -586.40625,317.3125 C -544.93397,330.0363 -502.34758,339.20519 -459.24492,344.1893 C -450.70839,345.21096 -442.14439,345.97896 -433.58399,346.76088 C -422.40864,347.98488 -411.19716,348.88022 -399.96875,349.4375 C -376.32223,358.61748 -349.19885,358.48444 -325.65625,349.03125 C -288.04333,347.81725 -250.47105,344.22168 -213.45224,337.37001 C -185.6401,332.26138 -158.15484,325.42172 -131.125,317.125 C -131.125,275.95833 -131.125,234.79167 -131.125,193.625 C -130.74682,191.68683 -130.71864,189.69606 -130.85728,187.73631 C -130.69776,185.99333 -130.77699,184.1895 -131.23844,182.49943 C -140.582,156.42256 -149.39955,130.15198 -157.41891,103.6365 C -161.2713,90.869243 -164.85589,78.018817 -168.01789,65.062911 C -169.43258,60.167461 -172.32049,55.764918 -176.06889,52.333923 C -186.9957,41.76972 -200.78984,34.710287 -214.92939,29.472502 C -235.3025,22.035899 -256.76455,18.093106 -278.23409,15.457832 C -305.11822,12.249375 -332.22271,11.266589 -359.28125,11.21875 z "
       id="path3212" />
    <path
       id="path3214"
       d="M -359.28125,11.21875 C -390.45412,11.343639 -421.71573,12.63256 -452.56899,17.328185 C -472.25547,20.411246 -491.9001,24.826289 -510.27884,32.68554 C -522.45421,37.958615 -534.17941,44.884761 -543.32503,54.624678 C -546.66466,58.322947 -548.83811,62.979599 -549.80924,67.850164 C -555.64726,91.431313 -562.91938,114.62832 -570.47509,137.70699 C -575.45863,152.80701 -580.61216,167.85176 -586,182.8125 C -586.2595,184.21154 -586.39544,185.63954 -586.3125,187.0625 C -586.62757,188.12475 -586.67191,189.33969 -586.9375,190.28276 C -586.9375,229.63642 -586.9375,268.99009 -586.9375,308.34375 C -586.21127,308.29873 -586.43396,308.9642 -586.40625,309.44202 C -586.40625,312.06551 -586.40625,314.68901 -586.40625,317.3125 C -544.93397,330.0363 -502.34758,339.20519 -459.24492,344.1893 C -450.70839,345.21096 -442.14439,345.97896 -433.58399,346.76088 C -422.40864,347.98488 -411.19716,348.88022 -399.96875,349.4375 C -376.32223,358.61748 -349.19885,358.48444 -325.65625,349.03125 C -288.04333,347.81725 -250.47105,344.22168 -213.45224,337.37001 C -185.6401,332.26138 -158.15484,325.42172 -131.125,317.125 C -131.125,275.95833 -131.125,234.79167 -131.125,193.625 C -130.74682,191.68683 -130.71864,189.69606 -130.85728,187.73631 C -130.69776,185.99333 -130.77699,184.1895 -131.23844,182.49943 C -140.582,156.42256 -149.39955,130.15198 -157.41891,103.6365 C -161.2713,90.869243 -164.85589,78.018817 -168.01789,65.062911 C -169.43258,60.167461 -172.32049,55.764918 -176.06889,52.333923 C -186.9957,41.76972 -200.78984,34.710287 -214.92939,29.472502 C -235.3025,22.035899 -256.76455,18.093106 -278.23409,15.457832 C -305.11822,12.249375 -332.22271,11.266589 -359.28125,11.21875 z "
       style="opacity:0.3992674;fill:none;fill-opacity:1;stroke:url(#linearGradient3307);stroke-width:28.5;stroke-linecap:round;stroke-linejoin:round;stroke-miterlimit:4;stroke-dasharray:none;stroke-dashoffset:4;stroke-opacity:1" />
    <path
       style="opacity:0.3992674;fill:none;fill-opacity:1;stroke:url(#linearGradient3309);stroke-width:21.70000076;stroke-linecap:round;stroke-linejoin:round;stroke-miterlimit:4;stroke-dasharray:none;stroke-dashoffset:4;stroke-opacity:1"
       d="M -359.28125,11.21875 C -390.45412,11.343639 -421.71573,12.63256 -452.56899,17.328185 C -472.25547,20.411246 -491.9001,24.826289 -510.27884,32.68554 C -522.45421,37.958615 -534.17941,44.884761 -543.32503,54.624678 C -546.66466,58.322947 -548.83811,62.979599 -549.80924,67.850164 C -555.64726,91.431313 -562.91938,114.62832 -570.47509,137.70699 C -575.45863,152.80701 -580.61216,167.85176 -586,182.8125 C -586.2595,184.21154 -586.39544,185.63954 -586.3125,187.0625 C -586.62757,188.12475 -586.67191,189.33969 -586.9375,190.28276 C -586.9375,229.63642 -586.9375,268.99009 -586.9375,308.34375 C -586.21127,308.29873 -586.43396,308.9642 -586.40625,309.44202 C -586.40625,312.06551 -586.40625,314.68901 -586.40625,317.3125 C -544.93397,330.0363 -502.34758,339.20519 -459.24492,344.1893 C -450.70839,345.21096 -442.14439,345.97896 -433.58399,346.76088 C -422.40864,347.98488 -411.19716,348.88022 -399.96875,349.4375 C -376.32223,358.61748 -349.19885,358.48444 -325.65625,349.03125 C -288.04333,347.81725 -250.47105,344.22168 -213.45224,337.37001 C -185.6401,332.26138 -158.15484,325.42172 -131.125,317.125 C -131.125,275.95833 -131.125,234.79167 -131.125,193.625 C -130.74682,191.68683 -130.71864,189.69606 -130.85728,187.73631 C -130.69776,185.99333 -130.77699,184.1895 -131.23844,182.49943 C -140.582,156.42256 -149.39955,130.15198 -157.41891,103.6365 C -161.2713,90.869243 -164.85589,78.018817 -168.01789,65.062911 C -169.43258,60.167461 -172.32049,55.764918 -176.06889,52.333923 C -186.9957,41.76972 -200.78984,34.710287 -214.92939,29.472502 C -235.3025,22.035899 -256.76455,18.093106 -278.23409,15.457832 C -305.11822,12.249375 -332.22271,11.266589 -359.28125,11.21875 z "
       id="path3216" />
    <path
       id="path3218"
       d="M -359.28125,11.21875 C -390.45412,11.343639 -421.71573,12.63256 -452.56899,17.328185 C -472.25547,20.411246 -491.9001,24.826289 -510.27884,32.68554 C -522.45421,37.958615 -534.17941,44.884761 -543.32503,54.624678 C -546.66466,58.322947 -548.83811,62.979599 -549.80924,67.850164 C -555.64726,91.431313 -562.91938,114.62832 -570.47509,137.70699 C -575.45863,152.80701 -580.61216,167.85176 -586,182.8125 C -586.2595,184.21154 -586.39544,185.63954 -586.3125,187.0625 C -586.62757,188.12475 -586.67191,189.33969 -586.9375,190.28276 C -586.9375,229.63642 -586.9375,268.99009 -586.9375,308.34375 C -586.21127,308.29873 -586.43396,308.9642 -586.40625,309.44202 C -586.40625,312.06551 -586.40625,314.68901 -586.40625,317.3125 C -544.93397,330.0363 -502.34758,339.20519 -459.24492,344.1893 C -450.70839,345.21096 -442.14439,345.97896 -433.58399,346.76088 C -422.40864,347.98488 -411.19716,348.88022 -399.96875,349.4375 C -376.32223,358.61748 -349.19885,358.48444 -325.65625,349.03125 C -288.04333,347.81725 -250.47105,344.22168 -213.45224,337.37001 C -185.6401,332.26138 -158.15484,325.42172 -131.125,317.125 C -131.125,275.95833 -131.125,234.79167 -131.125,193.625 C -130.74682,191.68683 -130.71864,189.69606 -130.85728,187.73631 C -130.69776,185.99333 -130.77699,184.1895 -131.23844,182.49943 C -140.582,156.42256 -149.39955,130.15198 -157.41891,103.6365 C -161.2713,90.869243 -164.85589,78.018817 -168.01789,65.062911 C -169.43258,60.167461 -172.32049,55.764918 -176.06889,52.333923 C -186.9957,41.76972 -200.78984,34.710287 -214.92939,29.472502 C -235.3025,22.035899 -256.76455,18.093106 -278.23409,15.457832 C -305.11822,12.249375 -332.22271,11.266589 -359.28125,11.21875 z "
       style="opacity:0.3992674;fill:none;fill-opacity:1;stroke:url(#linearGradient3311);stroke-width:13.5;stroke-linecap:round;stroke-linejoin:round;stroke-miterlimit:4;stroke-dasharray:none;stroke-dashoffset:4;stroke-opacity:1" />
    <path
       style="opacity:0.3992674;fill:none;fill-opacity:1;stroke:url(#linearGradient3313);stroke-width:10.60000038;stroke-linecap:round;stroke-linejoin:round;stroke-miterlimit:4;stroke-dasharray:none;stroke-dashoffset:4;stroke-opacity:1"
       d="M -359.28125,11.21875 C -390.45412,11.343639 -421.71573,12.63256 -452.56899,17.328185 C -472.25547,20.411246 -491.9001,24.826289 -510.27884,32.68554 C -522.45421,37.958615 -534.17941,44.884761 -543.32503,54.624678 C -546.66466,58.322947 -548.83811,62.979599 -549.80924,67.850164 C -555.64726,91.431313 -562.91938,114.62832 -570.47509,137.70699 C -575.45863,152.80701 -580.61216,167.85176 -586,182.8125 C -586.2595,184.21154 -586.39544,185.63954 -586.3125,187.0625 C -586.62757,188.12475 -586.67191,189.33969 -586.9375,190.28276 C -586.9375,229.63642 -586.9375,268.99009 -586.9375,308.34375 C -586.21127,308.29873 -586.43396,308.9642 -586.40625,309.44202 C -586.40625,312.06551 -586.40625,314.68901 -586.40625,317.3125 C -544.93397,330.0363 -502.34758,339.20519 -459.24492,344.1893 C -450.70839,345.21096 -442.14439,345.97896 -433.58399,346.76088 C -422.40864,347.98488 -411.19716,348.88022 -399.96875,349.4375 C -376.32223,358.61748 -349.19885,358.48444 -325.65625,349.03125 C -288.04333,347.81725 -250.47105,344.22168 -213.45224,337.37001 C -185.6401,332.26138 -158.15484,325.42172 -131.125,317.125 C -131.125,275.95833 -131.125,234.79167 -131.125,193.625 C -130.74682,191.68683 -130.71864,189.69606 -130.85728,187.73631 C -130.69776,185.99333 -130.77699,184.1895 -131.23844,182.49943 C -140.582,156.42256 -149.39955,130.15198 -157.41891,103.6365 C -161.2713,90.869243 -164.85589,78.018817 -168.01789,65.062911 C -169.43258,60.167461 -172.32049,55.764918 -176.06889,52.333923 C -186.9957,41.76972 -200.78984,34.710287 -214.92939,29.472502 C -235.3025,22.035899 -256.76455,18.093106 -278.23409,15.457832 C -305.11822,12.249375 -332.22271,11.266589 -359.28125,11.21875 z "
       id="path3222" />
    <path
       id="path3226"
       d="M -359.28125,11.21875 C -390.45412,11.343639 -421.71573,12.63256 -452.56899,17.328185 C -472.25547,20.411246 -491.9001,24.826289 -510.27884,32.68554 C -522.45421,37.958615 -534.17941,44.884761 -543.32503,54.624678 C -546.66466,58.322947 -548.83811,62.979599 -549.80924,67.850164 C -555.64726,91.431313 -562.91938,114.62832 -570.47509,137.70699 C -575.45863,152.80701 -580.61216,167.85176 -586,182.8125 C -586.2595,184.21154 -586.39544,185.63954 -586.3125,187.0625 C -586.62757,188.12475 -586.67191,189.33969 -586.9375,190.28276 C -586.9375,229.63642 -586.9375,268.99009 -586.9375,308.34375 C -586.21127,308.29873 -586.43396,308.9642 -586.40625,309.44202 C -586.40625,312.06551 -586.40625,314.68901 -586.40625,317.3125 C -544.93397,330.0363 -502.34758,339.20519 -459.24492,344.1893 C -450.70839,345.21096 -442.14439,345.97896 -433.58399,346.76088 C -422.40864,347.98488 -411.19716,348.88022 -399.96875,349.4375 C -376.32223,358.61748 -349.19885,358.48444 -325.65625,349.03125 C -288.04333,347.81725 -250.47105,344.22168 -213.45224,337.37001 C -185.6401,332.26138 -158.15484,325.42172 -131.125,317.125 C -131.125,275.95833 -131.125,234.79167 -131.125,193.625 C -130.74682,191.68683 -130.71864,189.69606 -130.85728,187.73631 C -130.69776,185.99333 -130.77699,184.1895 -131.23844,182.49943 C -140.582,156.42256 -149.39955,130.15198 -157.41891,103.6365 C -161.2713,90.869243 -164.85589,78.018817 -168.01789,65.062911 C -169.43258,60.167461 -172.32049,55.764918 -176.06889,52.333923 C -186.9957,41.76972 -200.78984,34.710287 -214.92939,29.472502 C -235.3025,22.035899 -256.76455,18.093106 -278.23409,15.457832 C -305.11822,12.249375 -332.22271,11.266589 -359.28125,11.21875 z "
       style="opacity:0.3992674;fill:none;fill-opacity:1;stroke:url(#linearGradient3315);stroke-width:7.5999999;stroke-linecap:round;stroke-linejoin:round;stroke-miterlimit:4;stroke-dasharray:none;stroke-dashoffset:4;stroke-opacity:1" />
    <path
       style="opacity:0.3992674;fill:none;fill-opacity:1;stroke:url(#linearGradient3317);stroke-width:4.5999999;stroke-linecap:round;stroke-linejoin:round;stroke-miterlimit:4;stroke-dasharray:none;stroke-dashoffset:4;stroke-opacity:1"
       d="M -359.28125,11.21875 C -390.45412,11.343639 -421.71573,12.63256 -452.56899,17.328185 C -472.25547,20.411246 -491.9001,24.826289 -510.27884,32.68554 C -522.45421,37.958615 -534.17941,44.884761 -543.32503,54.624678 C -546.66466,58.322947 -548.83811,62.979599 -549.80924,67.850164 C -555.64726,91.431313 -562.91938,114.62832 -570.47509,137.70699 C -575.45863,152.80701 -580.61216,167.85176 -586,182.8125 C -586.2595,184.21154 -586.39544,185.63954 -586.3125,187.0625 C -586.62757,188.12475 -586.67191,189.33969 -586.9375,190.28276 C -586.9375,229.63642 -586.9375,268.99009 -586.9375,308.34375 C -586.21127,308.29873 -586.43396,308.9642 -586.40625,309.44202 C -586.40625,312.06551 -586.40625,314.68901 -586.40625,317.3125 C -544.93397,330.0363 -502.34758,339.20519 -459.24492,344.1893 C -450.70839,345.21096 -442.14439,345.97896 -433.58399,346.76088 C -422.40864,347.98488 -411.19716,348.88022 -399.96875,349.4375 C -376.32223,358.61748 -349.19885,358.48444 -325.65625,349.03125 C -288.04333,347.81725 -250.47105,344.22168 -213.45224,337.37001 C -185.6401,332.26138 -158.15484,325.42172 -131.125,317.125 C -131.125,275.95833 -131.125,234.79167 -131.125,193.625 C -130.74682,191.68683 -130.71864,189.69606 -130.85728,187.73631 C -130.69776,185.99333 -130.77699,184.1895 -131.23844,182.49943 C -140.582,156.42256 -149.39955,130.15198 -157.41891,103.6365 C -161.2713,90.869243 -164.85589,78.018817 -168.01789,65.062911 C -169.43258,60.167461 -172.32049,55.764918 -176.06889,52.333923 C -186.9957,41.76972 -200.78984,34.710287 -214.92939,29.472502 C -235.3025,22.035899 -256.76455,18.093106 -278.23409,15.457832 C -305.11822,12.249375 -332.22271,11.266589 -359.28125,11.21875 z "
       id="path3230" />
  </g>
  <path
     style="fill:url(#linearGradient3421);fill-opacity:1;stroke:none;stroke-width:0.30000001;stroke-linecap:round;stroke-linejoin:round;stroke-miterlimit:4;stroke-dashoffset:4;stroke-opacity:1"
     d="M 59.310198,58.314828 C 41.141931,58.469018 22.666111,59.194475 3.7667645,66.903142 L 3.7667645,71.102837 L 3.7667645,95.613194 L 3.7667645,97.211695 C 45.475663,114.22395 85.120267,109.90191 123.95474,97.211695 L 123.95474,95.613194 L 123.95474,71.102837 L 123.95474,65.961568 C 102.71714,59.021608 81.237416,58.128736 59.310198,58.314828 z "
     id="path3102"
     sodipodi:nodetypes="cccccccccc" />
  <path
     style="fill:url(#radialGradient3418);fill-opacity:1;fill-rule:evenodd;stroke:none;stroke-width:0.99070024px;stroke-linecap:butt;stroke-linejoin:miter;stroke-opacity:1"
     d="M 123.95093,96.175631 C 100.43251,103.39043 81.640596,104.65775 63.97594,104.77005 C 63.843964,104.76933 63.707761,104.77088 63.575653,104.77005 C 45.951694,104.65802 27.213345,103.39584 3.7710024,96.224966 L 3.7710024,99.737721 C 27.213343,106.90859 45.951689,108.17077 63.575653,108.2828 C 63.707764,108.28364 63.843961,108.28208 63.97594,108.2828 C 81.640599,108.17051 100.43251,106.90319 123.95093,99.688383 L 123.95093,96.175631 z "
     id="path3124" />
  <path
     style="fill:url(#linearGradient3415);fill-opacity:1;stroke:none;stroke-width:0.30000001;stroke-linecap:round;stroke-linejoin:round;stroke-miterlimit:4;stroke-dashoffset:4;stroke-opacity:1"
     d="M 68.275041,58.476235 C 86.443309,58.630423 104.91913,59.355879 123.81847,67.064549 L 123.81847,71.264244 L 123.81847,95.774604 L 123.81847,99.58338 C 81.438929,112.08908 42.464972,110.06332 3.6304964,97.373105 L 3.6304964,95.774604 L 3.6304964,71.264244 L 3.6304964,66.122976 C 24.868102,59.183018 46.347821,58.290141 68.275041,58.476235 z "
     id="path3143"
     sodipodi:nodetypes="cccccccccc" />
  <rect
     style="opacity:0.69597072;fill:black;fill-opacity:1;stroke:none;stroke-width:1.60000002;stroke-linecap:round;stroke-linejoin:round;stroke-miterlimit:4;stroke-dasharray:none;stroke-dashoffset:4;stroke-opacity:0.29435485"
     id="rect3423"
     width="92.187881"
     height="4.0442519"
     x="5.4766693"
     y="82.805"
     rx="1.7071829"
     ry="2.022126" />
  <path
     sodipodi:nodetypes="cccccccccc"
     id="path3133"
     d="M 59.310198,58.314828 C 41.141931,58.469018 22.666111,59.194475 3.7667645,66.903142 L 3.7667645,71.102837 L 3.7667645,95.613194 L 3.7667645,99.421973 C 46.14631,111.92767 85.120267,109.90191 123.95474,97.211695 L 123.95474,95.613194 L 123.95474,71.102837 L 123.95474,65.961568 C 102.71714,59.021608 81.237416,58.128736 59.310198,58.314828 z "
     style="fill:url(#linearGradient3411);fill-opacity:1;stroke:none;stroke-width:0.30000001;stroke-linecap:round;stroke-linejoin:round;stroke-miterlimit:4;stroke-dashoffset:4;stroke-opacity:1" />
  <path
     style="fill:url(#radialGradient3408);fill-opacity:1;fill-rule:evenodd;stroke:none;stroke-width:0.99070024px;stroke-linecap:butt;stroke-linejoin:miter;stroke-opacity:1"
     d="M 63.729209,58.953623 C 46.892262,59.055463 28.971577,60.213449 6.4795867,66.847458 C 4.7915059,67.733298 4.1210589,63.609634 3.7397098,65.60243 C 3.1881158,68.577532 5.3410152,70.45806 6.4795867,70.004993 C 28.971577,63.370984 46.892262,62.212995 63.729209,62.111158 C 63.853963,62.111804 63.979071,62.110405 64.103946,62.111158 C 80.940896,62.213001 98.853067,63.370981 121.34505,70.004993 C 122.48363,70.458065 124.50277,68.083049 123.95118,65.10795 C 123.75756,63.376784 122.94141,67.314799 121.34505,66.847458 C 98.853067,60.213447 80.940896,59.055466 64.103946,58.953623 C 63.979071,58.952868 63.853963,58.954267 63.729209,58.953623 z "
     id="path2874"
     sodipodi:nodetypes="cccccscccsc" />
  <path
     sodipodi:nodetypes="csscccsccsssc"
     style="fill:url(#linearGradient3405);fill-opacity:1;fill-rule:evenodd;stroke:none;stroke-width:0.99070024px;stroke-linecap:butt;stroke-linejoin:miter;stroke-opacity:1"
     d="M 63.727789,18.938967 C 43.598239,18.99036 23.987624,21.248562 15.322441,30.207536 C 14.355883,31.206868 13.783953,32.402503 13.533677,33.444151 C 10.550513,45.859982 3.8793542,64.230919 3.8793542,64.230919 C 3.32776,67.206021 5.3403441,67.328536 6.4789156,66.875469 C 28.970907,60.241458 46.890839,59.083128 63.727789,58.981288 C 63.852545,58.981929 63.979055,58.980533 64.10393,58.981288 C 80.940878,59.083128 98.852455,60.241458 121.34444,66.875469 C 122.48302,67.328536 124.50395,67.206021 123.95236,64.230919 C 123.95236,64.230919 117.28121,45.859982 114.29804,33.444151 C 114.04776,32.402503 113.46748,31.206868 112.50092,30.207536 C 103.83573,21.248562 84.23348,18.99036 64.10393,18.938967 C 63.978463,18.938649 63.853295,18.938967 63.727789,18.938967 z "
     id="path1883" />
  <path
     sodipodi:nodetypes="csscccsccsssc"
     id="path2802"
     d="M 63.727789,19.646903 C 43.598239,19.698295 23.987624,21.956497 15.322441,30.915471 C 14.355883,31.914803 13.783953,33.110438 13.533677,34.152086 C 10.550513,46.567916 3.8793542,64.230919 3.8793542,64.230919 C 3.32776,67.206021 5.3403441,67.328536 6.4789156,66.875469 C 28.970907,60.241458 46.890839,59.083128 63.727789,58.981288 C 63.852545,58.981929 63.979055,58.980533 64.10393,58.981288 C 80.940878,59.083128 98.852455,60.241458 121.34444,66.875469 C 122.48302,67.328536 124.50395,67.206021 123.95236,64.230919 C 123.95236,64.230919 117.28121,46.567916 114.29804,34.152086 C 114.04776,33.110438 113.46748,31.914803 112.50092,30.915471 C 103.83573,21.956497 84.23348,19.698295 64.10393,19.646903 C 63.978463,19.646584 63.853295,19.646903 63.727789,19.646903 z "
     style="fill:url(#radialGradient3402);fill-opacity:1;fill-rule:evenodd;stroke:none;stroke-width:0.99070024px;stroke-linecap:butt;stroke-linejoin:miter;stroke-opacity:1" />
  <g
     id="g3013"
     transform="matrix(0.245256,0,0,0.245256,5.068828,20.71057)">
    <text
       transform="scale(1.595255,0.626859)"
       id="text2068"
       y="216.32094"
       x="89.95269"
       style="font-size:33.47157669px;font-style:normal;font-weight:normal;fill:url(#radialGradient3333);fill-opacity:1;stroke:none;stroke-width:1px;stroke-linecap:butt;stroke-linejoin:miter;stroke-opacity:1;font-family:Bitstream Vera Sans Mono"
       xml:space="preserve"><tspan
         style="fill:url(#radialGradient3333);fill-opacity:1"
         y="216.32094"
         x="89.95269"
         id="tspan2070"
         sodipodi:role="line">oxygen</tspan></text>
    <path
       id="text2093"
       d="M 159.68553,123.96678 C 155.63565,123.96679 152.54218,124.49795 150.40428,125.52928 C 148.26636,126.56063 147.18552,128.04464 147.18553,129.99803 C 147.18553,131.4682 147.79545,132.67536 148.99803,133.62303 C 148.45414,132.87064 148.18553,131.98673 148.18553,130.99803 C 148.18553,129.04463 149.26636,127.56063 151.40428,126.52928 C 153.54219,125.49795 156.63565,124.96679 160.68553,124.96678 C 164.73538,124.96679 167.82884,125.49795 169.96678,126.52928 C 170.48191,126.77578 170.91852,127.0426 171.31053,127.34178 C 170.77226,126.62657 170.00997,126.02847 168.96678,125.52928 C 166.82884,124.49795 163.73538,123.96679 159.68553,123.96678 z M 254.40428,123.96678 C 250.99751,123.96679 248.28165,124.51947 246.24803,125.59178 C 244.2144,126.66411 243.18552,128.10115 243.18553,129.90428 C 243.18553,131.31782 243.83249,132.50156 245.09178,133.46678 C 244.50449,132.71054 244.18553,131.8696 244.18553,130.90428 C 244.18553,129.10116 245.2144,127.66411 247.24803,126.59178 C 249.28164,125.51947 251.99751,124.96679 255.40428,124.96678 C 257.28146,124.96679 258.88191,125.1106 260.18553,125.40428 C 261.48912,125.69798 262.52483,126.16458 263.34178,126.77928 L 263.34178,125.27928 L 267.15428,125.27928 L 267.15428,124.27928 L 262.34178,124.27928 L 262.34178,125.77928 C 261.52483,125.16458 260.48913,124.69799 259.18553,124.40428 C 257.88191,124.1106 256.28145,123.96679 254.40428,123.96678 z M 289.09178,123.96678 C 284.92023,123.96679 281.56345,124.53023 279.06053,125.62303 C 276.5576,126.71585 275.31054,128.16758 275.31053,129.99803 C 275.31053,131.2629 275.90181,132.34866 277.06053,133.24803 C 276.5667,132.57805 276.31053,131.82378 276.31053,130.99803 C 276.31053,129.16757 277.5576,127.71585 280.06053,126.62303 C 282.56344,125.53023 285.92023,124.96679 290.09178,124.96678 C 293.81138,124.96679 296.73509,125.47643 298.87303,126.46678 C 299.45433,126.73389 299.94851,127.022 300.37303,127.34178 C 299.83615,126.61348 299.01537,125.9917 297.87303,125.46678 C 295.73509,124.47643 292.81139,123.96679 289.09178,123.96678 z M 322.74803,123.96678 C 320.74915,123.96679 319.02057,124.15654 317.56053,124.49803 C 316.59102,124.72027 315.79304,125.00926 315.09178,125.37303 L 315.09178,126.96678 C 315.94346,126.3111 317.10048,125.83271 318.56053,125.49803 C 320.02056,125.15654 321.74915,124.96679 323.74803,124.96678 C 326.72023,124.96679 328.94422,125.35124 330.40428,126.12303 C 330.58896,126.21865 330.77394,126.32753 330.93553,126.43553 C 330.56936,125.9256 330.07434,125.46998 329.40428,125.12303 C 327.94422,124.35124 325.72024,123.96679 322.74803,123.96678 z M 178.74803,124.24803 L 180.65428,125.24803 L 185.06053,125.24803 L 192.81053,129.40428 L 200.49803,125.24803 L 202.99803,125.24803 L 204.90428,124.24803 L 199.49803,124.24803 L 191.81053,128.40428 L 184.06053,124.24803 L 178.74803,124.24803 z M 210.56053,124.24803 L 211.56053,125.24803 L 216.62303,125.24803 L 215.65428,124.24803 L 210.56053,124.24803 z M 232.84178,124.24803 L 224.34178,133.18553 L 225.31053,134.21678 L 233.84178,125.24803 L 236.93553,125.24803 L 237.93553,124.24803 L 232.84178,124.24803 z M 309.31053,124.24803 L 309.31053,135.71678 L 310.31053,135.71678 L 310.31053,125.24803 L 314.09178,125.24803 L 314.09178,124.24803 L 309.31053,124.24803 z M 326.49803,127.40428 C 326.68673,127.75913 326.81051,128.15626 326.81053,128.62303 L 326.81053,135.71678 L 327.81053,135.71678 L 327.81053,129.62303 C 327.81052,128.62283 327.36444,127.89058 326.49803,127.40428 z M 261.74803,127.77928 C 262.14801,128.37061 262.34176,129.08182 262.34178,129.90428 C 262.34176,131.31128 261.7737,132.37856 260.59178,133.12303 C 259.42721,133.86751 257.7367,134.24803 255.52928,134.24803 C 253.16539,134.24803 251.34323,133.86068 250.09178,133.12303 C 250.00435,133.07029 249.92302,133.02288 249.84178,132.96678 C 250.14548,133.4206 250.55187,133.79732 251.09178,134.12303 C 252.34323,134.86068 254.16539,135.24803 256.52928,135.24803 C 258.73669,135.24803 260.42721,134.86751 261.59178,134.12303 C 262.7737,133.37855 263.34176,132.31128 263.34178,130.90428 C 263.34175,129.55551 262.82371,128.50646 261.74803,127.77928 z M 295.96678,127.84178 C 296.16151,128.18179 296.28445,128.55186 296.31053,128.96678 L 281.99803,128.96678 C 281.76073,129.27677 281.59311,129.6025 281.49803,129.96678 L 297.31053,129.96678 C 297.25513,129.08554 296.7829,128.38509 295.96678,127.84178 z M 166.52928,127.87303 C 166.92174,128.46665 167.12301,129.17952 167.12303,129.99803 C 167.12301,131.45284 166.49947,132.55922 165.24803,133.31053 C 163.99655,134.05501 162.13629,134.43553 159.68553,134.43553 C 157.25212,134.43553 155.40574,134.055 154.15428,133.31053 C 154.05598,133.25152 153.96361,133.18638 153.87303,133.12303 C 154.18045,133.58162 154.61113,133.98445 155.15428,134.31053 C 156.40573,135.05501 158.25212,135.43553 160.68553,135.43553 C 163.13629,135.43553 164.99655,135.05501 166.24803,134.31053 C 167.49947,133.55923 168.12301,132.45284 168.12303,130.99803 C 168.12301,129.6512 167.59185,128.61094 166.52928,127.87303 z M 188.74803,129.99803 L 177.71678,135.71678 L 180.62303,135.71678 L 190.18553,130.74803 L 188.74803,129.99803 z M 195.90428,130.49803 L 195.43553,130.74803 L 204.99803,135.71678 L 205.90428,135.71678 L 195.90428,130.49803 z M 281.71678,132.84178 C 282.11252,133.45794 282.78578,133.99334 283.77928,134.40428 C 285.44789,135.08729 287.8174,135.43553 290.84178,135.43553 C 292.37132,135.43553 293.95439,135.31427 295.62303,135.12303 C 296.98793,134.9666 298.45064,134.75575 299.96678,134.46678 L 299.96678,133.27928 C 298.07218,133.6686 296.29162,133.93179 294.62303,134.12303 C 292.95439,134.31427 291.37132,134.43553 289.84178,134.43553 C 286.8174,134.43553 284.44787,134.08729 282.77928,133.40428 C 282.36647,133.23353 282.02639,133.04796 281.71678,132.84178 z M 263.34178,134.90428 C 263.04374,135.15447 262.69302,135.36013 262.31053,135.56053 C 262.21686,136.60691 261.67115,137.39904 260.59178,137.90428 C 259.40982,138.45751 257.52534,138.71678 254.93553,138.71678 C 253.77096,138.71678 252.48229,138.64829 251.09178,138.49803 C 249.70126,138.34777 248.13889,138.12471 246.43553,137.81053 L 246.43553,139.68553 C 246.76507,139.72765 247.10599,139.74179 247.43553,139.77928 L 247.43553,138.81053 C 249.1389,139.12471 250.70126,139.34777 252.09178,139.49803 C 253.48228,139.6483 254.77096,139.71678 255.93553,139.71678 C 258.52535,139.71677 260.40982,139.45751 261.59178,138.90428 C 262.7737,138.35104 263.34176,137.48137 263.34178,136.27928 L 263.34178,136.18553 L 263.34178,134.90428 z M 221.87303,135.52928 C 220.63894,136.86797 219.61007,137.70827 218.81053,138.02928 C 218.01097,138.35029 216.90592,138.49803 215.49803,138.49803 L 212.65428,138.49803 L 212.65428,140.09178 L 213.65428,140.09178 L 213.65428,139.49803 L 216.49803,139.49803 C 217.90591,139.49803 219.01097,139.35029 219.81053,139.02928 C 220.61006,138.70827 221.63894,137.86797 222.87303,136.52928 L 221.87303,135.52928 z "
       style="font-size:33.47157669px;font-style:normal;font-weight:normal;opacity:0.26739927;fill:url(#radialGradient3335);fill-opacity:1;stroke:none;stroke-width:1px;stroke-linecap:butt;stroke-linejoin:miter;stroke-opacity:1;font-family:Bitstream Vera Sans Mono" />
  </g>
  <path
     style="fill:url(#linearGradient3395);fill-opacity:1;fill-rule:evenodd;stroke:none;stroke-width:0.99070024px;stroke-linecap:butt;stroke-linejoin:miter;stroke-opacity:1"
     d="M 63.731783,20.340263 C 54.019515,20.365059 44.428527,21.276156 36.12898,23.296909 C 30.008051,35.570925 39.84474,34.479349 44.952338,59.713096 C 51.457261,59.196388 57.670374,59.019578 63.731783,58.982917 C 63.856539,58.983566 63.981644,58.982162 64.10652,58.982917 C 80.94347,59.084765 98.855638,60.242741 121.34763,66.876755 C 122.4862,67.329827 124.50534,67.20742 123.95375,64.232319 C 123.95375,64.232326 117.27892,49.10266 114.29575,36.686829 C 114.04548,35.645183 113.46528,34.449687 112.49872,33.450356 C 103.83354,24.491379 84.236069,20.391654 64.10652,20.340263 C 63.981056,20.339944 63.857289,20.340263 63.731783,20.340263 z "
     id="path2814"
     sodipodi:nodetypes="ccccscssssc" />
  <path
     sodipodi:type="arc"
     style="fill:url(#radialGradient3432);fill-opacity:1;stroke:none;stroke-width:0.30000001;stroke-linecap:round;stroke-linejoin:round;stroke-miterlimit:4;stroke-dasharray:none;stroke-dashoffset:4;stroke-opacity:1"
     id="path3043"
     sodipodi:cx="315.98706"
     sodipodi:cy="627.10205"
     sodipodi:rx="77.952751"
     sodipodi:ry="66.120644"
     d="M 393.93981 627.10205 A 77.952751 66.120644 0 1 1  238.03431,627.10205 A 77.952751 66.120644 0 1 1  393.93981 627.10205 z"
     transform="matrix(0.355797,0,0,0.357883,-50.39924,-140.0839)" />
  <path
     style="fill:url(#linearGradient3486);fill-opacity:1;stroke:none;stroke-width:0.30000001;stroke-linecap:round;stroke-linejoin:round;stroke-miterlimit:4;stroke-dasharray:none;stroke-dashoffset:4;stroke-opacity:1"
     d="M 62.454896,64.132896 C 48.499537,64.132896 37.172885,74.017993 37.172885,86.198494 C 37.172885,93.174795 40.893608,99.386313 46.690357,103.43087 C 43.051518,100.05108 40.815373,95.512032 40.815373,90.511685 C 40.815373,80.08622 50.510319,71.617251 62.454896,71.617251 C 74.399473,71.617241 84.094419,80.08622 84.094419,90.511685 C 84.094419,95.507333 81.862002,100.04187 78.229227,103.42067 C 84.018315,99.375879 87.736907,93.169435 87.736907,86.198494 C 87.736907,74.017986 76.410255,64.132903 62.454896,64.132896 z "
     id="path2914" />
  <path
     transform="matrix(0.4201,0,0,0.366671,-68.04787,-143.6383)"
     d="M 361.92349 635.10614 A 48.372467 48.372467 0 1 1  265.17856,635.10614 A 48.372467 48.372467 0 1 1  361.92349 635.10614 z"
     sodipodi:ry="48.372467"
     sodipodi:rx="48.372467"
     sodipodi:cy="635.10614"
     sodipodi:cx="313.55103"
     id="path2921"
     style="fill:url(#linearGradient3488);fill-opacity:1;stroke:none;stroke-width:0.30000001;stroke-linecap:round;stroke-linejoin:round;stroke-miterlimit:4;stroke-dasharray:none;stroke-dashoffset:4;stroke-opacity:1"
     sodipodi:type="arc" />
  <path
     style="fill:url(#linearGradient3504);fill-opacity:1;stroke:none;stroke-width:0.30000001;stroke-linecap:round;stroke-linejoin:round;stroke-miterlimit:4;stroke-dasharray:none;stroke-dashoffset:4;stroke-opacity:1"
     d="M 62.66117,69.403519 C 49.654448,69.403519 39.09441,78.502504 39.094413,89.711938 C 39.094413,100.92138 49.654448,110.0095 62.66117,110.0095 C 75.667891,110.0095 86.227933,100.92139 86.227926,89.711938 C 86.227926,78.502493 75.667895,69.403523 62.66117,69.403519 z M 62.66117,74.233688 C 72.70054,74.233685 80.849577,81.350991 80.849577,90.113548 C 80.849584,98.8761 72.700537,105.98255 62.66117,105.98255 C 52.621802,105.98255 44.472762,98.876104 44.472762,90.113548 C 44.472759,81.350988 52.621802,74.233688 62.66117,74.233688 z "
     id="path1881" />
  <path
     sodipodi:type="arc"
     style="fill:url(#radialGradient3511);fill-opacity:1;stroke:none;stroke-width:0.30000001;stroke-linecap:round;stroke-linejoin:round;stroke-miterlimit:4;stroke-dasharray:none;stroke-dashoffset:4;stroke-opacity:1"
     id="path2951"
     sodipodi:cx="500.77686"
     sodipodi:cy="647.9823"
     sodipodi:rx="46.284447"
     sodipodi:ry="38.976376"
     d="M 547.0613 647.9823 A 46.284447 38.976376 0 1 1  454.49241,647.9823 A 46.284447 38.976376 0 1 1  547.0613 647.9823 z"
     transform="matrix(0.3189,0,0,0.332092,-96.52446,-125.6436)" />
  <path
     transform="matrix(0.3189,0,0,0.332092,-96.52446,-125.6436)"
     d="M 547.0613 647.9823 A 46.284447 38.976376 0 1 1  454.49241,647.9823 A 46.284447 38.976376 0 1 1  547.0613 647.9823 z"
     sodipodi:ry="38.976376"
     sodipodi:rx="46.284447"
     sodipodi:cy="647.9823"
     sodipodi:cx="500.77686"
     id="path2971"
     style="fill:url(#radialGradient3509);fill-opacity:1;stroke:none;stroke-width:0.30000001;stroke-linecap:round;stroke-linejoin:round;stroke-miterlimit:4;stroke-dasharray:none;stroke-dashoffset:4;stroke-opacity:1"
     sodipodi:type="arc" />
  <path
     style="fill:url(#linearGradient3527);fill-opacity:1.0;stroke:none;stroke-width:0.30000001;stroke-linecap:round;stroke-linejoin:round;stroke-miterlimit:4;stroke-dasharray:none;stroke-dashoffset:4;stroke-opacity:1"
     d="M 63.233575,75.84832 C 53.988104,75.84832 46.489379,82.391687 46.489382,90.461313 C 46.489382,98.530941 53.988104,105.08696 63.233575,105.08697 C 72.479047,105.08697 79.989928,98.530941 79.989928,90.461313 C 79.989928,82.391682 72.479043,75.848311 63.233575,75.84832 z M 63.233575,78.520193 C 70.517013,78.520181 76.427075,83.686297 76.427075,90.043436 C 76.427075,96.400583 70.517022,101.55402 63.233575,101.55402 C 55.950125,101.55401 50.040075,96.400575 50.040075,90.043436 C 50.040075,83.686301 55.950129,78.520193 63.233575,78.520193 z "
     id="path2933" />
  <path
     style="fill:url(#radialGradient3519);fill-opacity:1.0;stroke:none;stroke-width:0.30000001;stroke-linecap:round;stroke-linejoin:round;stroke-miterlimit:4;stroke-dasharray:none;stroke-dashoffset:4;stroke-opacity:1"
     d="M 77.955599,91.550518 C 77.907931,92.357454 77.785378,93.16155 77.569917,93.965658 C 75.607426,101.28976 67.202106,105.41361 58.810785,103.16517 C 51.667616,101.25116 46.824089,95.336623 46.751856,89.101608 C 46.36533,95.64457 51.316046,102.02238 58.786094,104.02398 C 67.177418,106.27243 75.582736,102.14856 77.545228,94.824465 C 77.837136,93.735049 77.968219,92.639987 77.955599,91.550518 z "
     id="path2942" />
  <path
     sodipodi:type="arc"
     style="fill:url(#linearGradient3507);fill-opacity:1;stroke:none;stroke-width:0.30000001;stroke-linecap:round;stroke-linejoin:round;stroke-miterlimit:4;stroke-dasharray:none;stroke-dashoffset:4;stroke-opacity:1"
     id="path2961"
     sodipodi:cx="476.4166"
     sodipodi:cy="618.75"
     sodipodi:rx="23.316225"
     sodipodi:ry="17.400167"
     d="M 499.73282 618.75 A 23.316225 17.400167 0 1 1  453.10037,618.75 A 23.316225 17.400167 0 1 1  499.73282 618.75 z"
     transform="matrix(0.389117,0,0,0.405213,-122.3341,-164.8317)" />
  <path
     style="fill:url(#radialGradient3475);fill-opacity:1;stroke:none;stroke-width:0.30000001;stroke-linecap:round;stroke-linejoin:round;stroke-miterlimit:4;stroke-dasharray:none;stroke-dashoffset:4;stroke-opacity:1"
     d="M 63.036942,68.607953 C 50.053748,68.607953 39.515797,77.80224 39.515797,89.134229 C 39.515797,99.049722 47.586195,107.32406 58.300783,109.23934 C 47.821705,107.33018 39.941519,99.210456 39.941519,89.49998 C 39.941519,78.372389 50.287914,69.339451 63.036942,69.339451 C 75.785969,69.339457 86.132364,78.372382 86.132364,89.49998 C 86.132364,99.210459 78.252178,107.33017 67.7731,109.23934 C 78.487688,107.32406 86.55809,99.049722 86.558086,89.134229 C 86.558086,77.80224 76.020135,68.607946 63.036942,68.607953 z M 58.385929,109.25043 C 59.124009,109.37988 59.870377,109.49322 60.631611,109.56076 C 59.869976,109.49195 59.123829,109.38233 58.385929,109.25043 z M 67.687954,109.25043 C 66.950178,109.38231 66.203777,109.49195 65.442273,109.56076 C 66.20377,109.49319 66.949634,109.37995 67.687954,109.25043 z "
     id="path3004" />
  <rect
     y="82.805"
     x="-112.73845"
     height="4.0442519"
     width="5.3112354"
     id="rect4310"
     style="opacity:0.69597072;fill:black;fill-opacity:1;stroke:none;stroke-width:1.60000002;stroke-linecap:round;stroke-linejoin:round;stroke-miterlimit:4;stroke-dasharray:none;stroke-dashoffset:4;stroke-opacity:0.29435485"
     rx="1.7071829"
     ry="2.022126"
     transform="scale(-1,1)" />
  <path
     transform="matrix(9.124566e-2,0,0,0.101839,-12.00221,20.83729)"
     d="M 393.93981 627.10205 A 77.952751 66.120644 0 1 1  238.03431,627.10205 A 77.952751 66.120644 0 1 1  393.93981 627.10205 z"
     sodipodi:ry="66.120644"
     sodipodi:rx="77.952751"
     sodipodi:cy="627.10205"
     sodipodi:cx="315.98706"
     id="path1965"
     style="fill:url(#radialGradient3355);fill-opacity:1;stroke:none;stroke-width:0.30000001;stroke-linecap:round;stroke-linejoin:round;stroke-miterlimit:4;stroke-dasharray:none;stroke-dashoffset:4;stroke-opacity:1"
     sodipodi:type="arc" />
  <path
     id="path1969"
     d="M 16.939754,78.949214 C 13.360837,78.949214 10.456064,81.762116 10.456064,85.2282 C 10.456064,87.213375 11.410262,88.980925 12.896865,90.131845 C 11.963669,89.170093 11.390197,87.878459 11.390197,86.45556 C 11.390197,83.48889 13.876512,81.078962 16.939754,81.078962 C 20.002994,81.078959 22.489307,83.48889 22.489307,86.45556 C 22.489307,87.877121 21.916795,89.167469 20.985153,90.128941 C 22.46979,88.977955 23.42344,87.211849 23.42344,85.2282 C 23.42344,81.762113 20.518668,78.949216 16.939754,78.949214 z "
     style="fill:url(#linearGradient3377);fill-opacity:1;stroke:none;stroke-width:0.30000001;stroke-linecap:round;stroke-linejoin:round;stroke-miterlimit:4;stroke-dasharray:none;stroke-dashoffset:4;stroke-opacity:1" />
  <path
     sodipodi:type="arc"
     style="fill:#00316e;fill-opacity:1;stroke:none;stroke-width:0.30000001;stroke-linecap:round;stroke-linejoin:round;stroke-miterlimit:4;stroke-dasharray:none;stroke-dashoffset:4;stroke-opacity:1"
     id="path1973"
     sodipodi:cx="313.55103"
     sodipodi:cy="635.10614"
     sodipodi:rx="48.372467"
     sodipodi:ry="48.372467"
     d="M 361.92349 635.10614 A 48.372467 48.372467 0 1 1  265.17856,635.10614 A 48.372467 48.372467 0 1 1  361.92349 635.10614 z"
     transform="matrix(0.107736,0,0,0.10434,-16.52828,19.82585)" />
  <path
     id="path1975"
     d="M 16.992659,80.449034 C 13.657026,80.449034 10.948855,83.038241 10.948857,86.227996 C 10.948857,89.417755 13.657026,92.00387 16.992659,92.00387 C 20.328293,92.00387 23.036464,89.417758 23.036462,86.227996 C 23.036462,83.038238 20.328293,80.449034 16.992659,80.449034 z M 16.992659,81.823507 C 19.567301,81.823504 21.65716,83.848807 21.65716,86.342278 C 21.65716,88.83575 19.567301,90.857961 16.992659,90.857961 C 14.418018,90.857961 12.328158,88.835753 12.328158,86.342278 C 12.328158,83.848804 14.418018,81.823507 16.992659,81.823507 z "
     style="fill:url(#linearGradient3373);fill-opacity:1;stroke:none;stroke-width:0.30000001;stroke-linecap:round;stroke-linejoin:round;stroke-miterlimit:4;stroke-dasharray:none;stroke-dashoffset:4;stroke-opacity:1" />
  <path
     transform="matrix(0.174636,0,0,0.20179,-66.1007,-39.49873)"
     d="M 499.73282 618.75 A 23.316225 17.400167 0 1 1  453.10037,618.75 A 23.316225 17.400167 0 1 1  499.73282 618.75 z"
     sodipodi:ry="17.400167"
     sodipodi:rx="23.316225"
     sodipodi:cy="618.75"
     sodipodi:cx="476.4166"
     id="path1985"
     style="fill:url(#linearGradient3363);fill-opacity:1;stroke:none;stroke-width:0.30000001;stroke-linecap:round;stroke-linejoin:round;stroke-miterlimit:4;stroke-dasharray:none;stroke-dashoffset:4;stroke-opacity:1"
     sodipodi:type="arc" />
  <path
     id="path1987"
     d="M 17.089021,80.222635 C 13.759421,80.222635 11.056917,82.83896 11.056917,86.063593 C 11.056917,88.885143 13.126606,91.239691 15.874411,91.784702 C 13.187003,91.24143 11.166094,88.930883 11.166094,86.167669 C 11.166094,83.001202 13.819476,80.430791 17.089021,80.430791 C 20.358569,80.430793 23.011948,83.001202 23.011948,86.167669 C 23.011948,88.930883 20.991039,91.24143 18.303632,91.784702 C 21.051436,91.239688 23.121128,88.885143 23.121126,86.063593 C 23.121126,82.83896 20.418621,80.222633 17.089021,80.222635 z M 15.896248,91.787856 C 16.085531,91.824694 16.276941,91.856945 16.472163,91.876165 C 16.276839,91.856586 16.085486,91.825391 15.896248,91.787856 z M 18.281794,91.787856 C 18.092589,91.825386 17.90117,91.856586 17.705879,91.876165 C 17.90117,91.856937 18.092449,91.824713 18.281794,91.787856 z "
     style="fill:url(#radialGradient3369);fill-opacity:1;stroke:none;stroke-width:0.30000001;stroke-linecap:round;stroke-linejoin:round;stroke-miterlimit:4;stroke-dasharray:none;stroke-dashoffset:4;stroke-opacity:1" />
</svg>
