<?xml version="1.0" encoding="UTF-8" standalone="no"?>
<!-- Generator: Adobe Illustrator 12.0.0, SVG Export Plug-In . SVG Version: 6.00 Build 51448)  -->
<svg
   xmlns:ns="http://ns.adobe.com/SaveForWeb/1.0/"
   xmlns:a="http://ns.adobe.com/AdobeSVGViewerExtensions/3.0/"
   xmlns:dc="http://purl.org/dc/elements/1.1/"
   xmlns:cc="http://web.resource.org/cc/"
   xmlns:rdf="http://www.w3.org/1999/02/22-rdf-syntax-ns#"
   xmlns:svg="http://www.w3.org/2000/svg"
   xmlns="http://www.w3.org/2000/svg"
   xmlns:xlink="http://www.w3.org/1999/xlink"
   xmlns:sodipodi="http://sodipodi.sourceforge.net/DTD/sodipodi-0.dtd"
   xmlns:inkscape="http://www.inkscape.org/namespaces/inkscape"
   version="1.0"
   id="Layer_1"
   width="128"
   height="128"
   viewBox="0 0 109.547 119"
   overflow="visible"
   enable-background="new 0 0 109.547 119"
   xml:space="preserve"
   sodipodi:version="0.32"
   inkscape:version="0.44"
   sodipodi:docname="2downarrow.svg"
   sodipodi:docbase="/home/pinheiro/artwork/Oxygen/theme/svg/actions"><defs
   id="defs155"><linearGradient
   inkscape:collect="always"
   id="linearGradient2855"><stop
     style="stop-color:white;stop-opacity:1;"
     offset="0"
     id="stop2857" /><stop
     style="stop-color:white;stop-opacity:0;"
     offset="1"
     id="stop2859" /></linearGradient><linearGradient
   inkscape:collect="always"
   id="linearGradient2948"><stop
     style="stop-color:white;stop-opacity:1;"
     offset="0"
     id="stop2950" /><stop
     style="stop-color:white;stop-opacity:0;"
     offset="1"
     id="stop2952" /></linearGradient><radialGradient
   gradientTransform="matrix(0.238979,0,0,-1.859374e-2,-8.649588,1.2728)"
   gradientUnits="userSpaceOnUse"
   id="path2295_1_"
   fy="-6071.0229"
   fx="267.36481"
   r="253.01871"
   cy="-6078.353"
   cx="265.3931">
				<stop
   id="stop8"
   offset="0"
   style="stop-color:#000000;stop-opacity:1" />
				<stop
   id="stop10"
   offset="1"
   style="stop-color:#ffffff;stop-opacity:1" />
				<a:midPointStop
   offset="0"
   style="stop-color:#000000" />
				<a:midPointStop
   offset="0.5"
   style="stop-color:#000000" />
				<a:midPointStop
   offset="1"
   style="stop-color:#FFFFFF" />
			</radialGradient><linearGradient
   inkscape:collect="always"
   xlink:href="#XMLID_14_"
   id="linearGradient1503"
   gradientUnits="userSpaceOnUse"
   gradientTransform="matrix(1.064774,0,0,1.069314,-645.21,-752.5038)"
   x1="538.77338"
   y1="677.87701"
   x2="538.77338"
   y2="789.12207" /><radialGradient
   inkscape:collect="always"
   xlink:href="#XMLID_15_"
   id="radialGradient1961"
   gradientUnits="userSpaceOnUse"
   gradientTransform="matrix(1.064774,0,0,1.069314,-645.2101,-752.5037)"
   cx="538.77338"
   cy="651.10352"
   r="126.0234" /><radialGradient
   inkscape:collect="always"
   xlink:href="#XMLID_13_"
   id="radialGradient1965"
   gradientUnits="userSpaceOnUse"
   gradientTransform="matrix(1.064774,0,0,1.069314,-645.2101,-752.5037)"
   cx="538.77252"
   cy="792.99609"
   r="121.5466" /><linearGradient
   inkscape:collect="always"
   xlink:href="#XMLID_9_"
   id="linearGradient1985"
   gradientUnits="userSpaceOnUse"
   gradientTransform="matrix(1.064774,0,0,1.069314,-645.2101,-752.5037)"
   x1="538.77338"
   y1="793"
   x2="538.77338"
   y2="674" />
	
		<linearGradient
   gradientTransform="matrix(0.93352,0,0,0.9375,-448.183,-628.1562)"
   y2="678.3681"
   x2="538.77338"
   y1="674"
   x1="538.77338"
   gradientUnits="userSpaceOnUse"
   id="XMLID_10_">
		<stop
   id="stop54"
   style="stop-color:#094422"
   offset="0" />
		<stop
   id="stop56"
   style="stop-color:#9ED676"
   offset="1" />
	</linearGradient>
	
	
		<linearGradient
   gradientTransform="matrix(1.064774,0,0,1.069314,-645.2101,-752.5037)"
   y2="736.55688"
   x2="579.72852"
   y1="732.41022"
   x1="579.72852"
   gradientUnits="userSpaceOnUse"
   id="XMLID_11_">
		<stop
   id="stop61"
   style="stop-color:#094422"
   offset="0" />
		<stop
   id="stop63"
   style="stop-color:#9ED676"
   offset="1" />
	</linearGradient>
	
	
		<linearGradient
   gradientTransform="matrix(1.064774,0,0,1.069314,-645.2101,-752.5037)"
   y2="736.62341"
   x2="497.81451"
   y1="732.4082"
   x1="497.81451"
   gradientUnits="userSpaceOnUse"
   id="XMLID_12_">
		<stop
   id="stop68"
   style="stop-color:#094422"
   offset="0" />
		<stop
   id="stop70"
   style="stop-color:#9ED676"
   offset="1" />
	</linearGradient>
	
<linearGradient
   inkscape:collect="always"
   xlink:href="#XMLID_9_"
   id="linearGradient2958"
   gradientUnits="userSpaceOnUse"
   gradientTransform="matrix(-1.064774,0,0,-1.069314,814.067,885.1436)"
   x1="540.99591"
   y1="732.40765"
   x2="540.99591"
   y2="857.71112" /><linearGradient
   inkscape:collect="always"
   xlink:href="#XMLID_9_"
   id="linearGradient2962"
   gradientUnits="userSpaceOnUse"
   gradientTransform="matrix(-0.831433,0,0,-0.776394,688.349,655.6476)"
   x1="540.99591"
   y1="732.40765"
   x2="540.99591"
   y2="857.71112" /><linearGradient
   inkscape:collect="always"
   xlink:href="#XMLID_9_"
   id="linearGradient2967"
   gradientUnits="userSpaceOnUse"
   gradientTransform="matrix(-0.831433,0,0,-0.767764,688.349,648.8038)"
   x1="540.99591"
   y1="732.40765"
   x2="540.99591"
   y2="857.71112" /><radialGradient
   inkscape:collect="always"
   xlink:href="#linearGradient2948"
   id="radialGradient2127"
   gradientUnits="userSpaceOnUse"
   gradientTransform="matrix(1,0,0,1.149425e-2,0,99.50279)"
   cx="11.83884"
   cy="100.6598"
   fx="11.83884"
   fy="100.6598"
   r="51.470882" /><linearGradient
   inkscape:collect="always"
   xlink:href="#XMLID_15_"
   id="linearGradient2141"
   gradientUnits="userSpaceOnUse"
   gradientTransform="matrix(0.929687,0,0,-0.929687,-4.7265,96.92027)"
   x1="50.359013"
   y1="247.19028"
   x2="50.359013"
   y2="-31.210726" /><radialGradient
   inkscape:collect="always"
   xlink:href="#XMLID_13_"
   id="radialGradient2144"
   gradientUnits="userSpaceOnUse"
   gradientTransform="matrix(1.680248,0,0,-1.845833,-844.6183,1292.555)"
   cx="535.27002"
   cy="653.00073"
   fx="535.27002"
   fy="653.00073"
   r="121.5466" /><linearGradient
   inkscape:collect="always"
   xlink:href="#XMLID_14_"
   id="linearGradient2147"
   gradientUnits="userSpaceOnUse"
   gradientTransform="matrix(-0.989907,0,0,0.994127,579.5319,-712.7857)"
   x1="538.77338"
   y1="677.87701"
   x2="538.77338"
   y2="789.12207" /><linearGradient
   inkscape:collect="always"
   xlink:href="#XMLID_9_"
   id="linearGradient2150"
   gradientUnits="userSpaceOnUse"
   gradientTransform="matrix(-0.989907,0,0,0.994127,579.5319,-712.7856)"
   x1="541.29474"
   y1="647.45032"
   x2="540.99591"
   y2="889.8454" /><linearGradient
   inkscape:collect="always"
   xlink:href="#XMLID_9_"
   id="linearGradient2162"
   gradientUnits="userSpaceOnUse"
   gradientTransform="matrix(-0.989907,0,0,0.994127,469.5089,-711.8559)"
   x1="541.29474"
   y1="647.45032"
   x2="540.99591"
   y2="889.8454" /><radialGradient
   inkscape:collect="always"
   xlink:href="#linearGradient2855"
   id="radialGradient2861"
   cx="63.995117"
   cy="-32.145504"
   fx="63.995117"
   fy="-32.145504"
   r="62.723634"
   gradientTransform="matrix(2.541082,0,0,2.090119,-107.6134,76.24579)"
   gradientUnits="userSpaceOnUse" /></defs><sodipodi:namedview
   inkscape:window-height="654"
   inkscape:window-width="1124"
   inkscape:pageshadow="2"
   inkscape:pageopacity="0.0"
   borderopacity="1.0"
   bordercolor="#666666"
   pagecolor="#ffffff"
   id="base"
   inkscape:showpageshadow="false"
   inkscape:zoom="2.2223356"
   inkscape:cx="169.38739"
   inkscape:cy="27.27039"
   inkscape:window-x="565"
   inkscape:window-y="512"
   inkscape:current-layer="Layer_1"
   showguides="true"
   inkscape:guide-bbox="true" />
<metadata
   id="metadata3">
	<ns:sfw>
		<ns:slices />
		<ns:sliceSourceBounds
   x="0"
   y="0"
   height="128"
   width="128"
   bottomLeftOrigin="true" />
	</ns:sfw>
<rdf:RDF><cc:Work
     rdf:about=""><dc:format>image/svg+xml</dc:format><dc:type
       rdf:resource="http://purl.org/dc/dcmitype/StillImage" /></cc:Work></rdf:RDF></metadata>

<linearGradient
   id="XMLID_9_"
   gradientUnits="userSpaceOnUse"
   x1="538.77338"
   y1="793"
   x2="538.77338"
   y2="674"
   gradientTransform="translate(-484,-674)">
	<stop
   offset="0"
   style="stop-color:#094422"
   id="stop7" />
	<stop
   offset="0.1124"
   style="stop-color:#095A22"
   id="stop9" />
	<stop
   offset="0.4045"
   style="stop-color:#1E7D27"
   id="stop11" />
	<stop
   offset="0.4231"
   style="stop-color:#217F29"
   id="stop13" />
	<stop
   offset="0.4369"
   style="stop-color:#2A8531"
   id="stop15" />
	<stop
   offset="0.4491"
   style="stop-color:#3A8F3D"
   id="stop17" />
	<stop
   offset="0.4605"
   style="stop-color:#519D4E"
   id="stop19" />
	<stop
   offset="0.4712"
   style="stop-color:#6EAF64"
   id="stop21" />
	<stop
   offset="0.4814"
   style="stop-color:#92C680"
   id="stop23" />
	<stop
   offset="0.4911"
   style="stop-color:#BCE0A0"
   id="stop25" />
	<stop
   offset="0.4944"
   style="stop-color:#CCEAAC"
   id="stop27" />
	<stop
   offset="0.5124"
   style="stop-color:#A4CD90"
   id="stop29" />
	<stop
   offset="0.5326"
   style="stop-color:#80B276"
   id="stop31" />
	<stop
   offset="0.5552"
   style="stop-color:#609A5F"
   id="stop33" />
	<stop
   offset="0.5803"
   style="stop-color:#44864C"
   id="stop35" />
	<stop
   offset="0.6086"
   style="stop-color:#2E763C"
   id="stop37" />
	<stop
   offset="0.6416"
   style="stop-color:#1D6931"
   id="stop39" />
	<stop
   offset="0.6825"
   style="stop-color:#126028"
   id="stop41" />
	<stop
   offset="0.7398"
   style="stop-color:#0B5B23"
   id="stop43" />
	<stop
   offset="0.8989"
   style="stop-color:#095A22"
   id="stop45" />
	<stop
   offset="1"
   style="stop-color:#9ED676"
   id="stop47" />
</linearGradient>






<radialGradient
   id="XMLID_13_"
   cx="538.77252"
   cy="792.99609"
   r="121.5466"
   gradientTransform="translate(-484,-674)"
   gradientUnits="userSpaceOnUse">
	<stop
   offset="0"
   style="stop-color:#FFFAB3"
   id="stop83" />
	<stop
   offset="0.0494"
   style="stop-color:#DFEE9F"
   id="stop85" />
	<stop
   offset="0.1049"
   style="stop-color:#C3E48D"
   id="stop87" />
	<stop
   offset="0.1605"
   style="stop-color:#AEDC80"
   id="stop89" />
	<stop
   offset="0.2156"
   style="stop-color:#A2D879"
   id="stop91" />
	<stop
   offset="0.2697"
   style="stop-color:#9ED676"
   id="stop93" />
	<stop
   offset="0.3989"
   style="stop-color:#3BA42A"
   id="stop95" />
	<stop
   offset="0.3995"
   style="stop-color:#3BA42A"
   id="stop97" />
	<stop
   offset="0.4484"
   style="stop-color:#258426"
   id="stop99" />
	<stop
   offset="0.4956"
   style="stop-color:#166D24"
   id="stop101" />
	<stop
   offset="0.54"
   style="stop-color:#0C5F23"
   id="stop103" />
	<stop
   offset="0.5787"
   style="stop-color:#095A22"
   id="stop105" />
	<stop
   offset="0.5948"
   style="stop-color:#166727"
   id="stop107" />
	<stop
   offset="0.6456"
   style="stop-color:#388B33"
   id="stop109" />
	<stop
   offset="0.6932"
   style="stop-color:#51A53C"
   id="stop111" />
	<stop
   offset="0.7359"
   style="stop-color:#61B542"
   id="stop113" />
	<stop
   offset="0.7697"
   style="stop-color:#66BA44"
   id="stop115" />
	<stop
   offset="1"
   style="stop-color:#095A22"
   id="stop117" />
</radialGradient>

<linearGradient
   id="XMLID_14_"
   gradientUnits="userSpaceOnUse"
   x1="538.77338"
   y1="677.87701"
   x2="538.77338"
   y2="789.12207"
   gradientTransform="translate(-484,-674)">
	<stop
   offset="0.0056"
   style="stop-color:#1E7D27"
   id="stop122" />
	<stop
   offset="0.1348"
   style="stop-color:#3BA42A"
   id="stop124" />
	<stop
   offset="0.4831"
   style="stop-color:#B8E57F"
   id="stop126" />
	<stop
   offset="0.6299"
   style="stop-color:#A9E66E"
   id="stop128" />
	<stop
   offset="0.8528"
   style="stop-color:#97E859"
   id="stop130" />
	<stop
   offset="1"
   style="stop-color:#91E851"
   id="stop132" />
</linearGradient>

<radialGradient
   id="XMLID_15_"
   cx="538.77338"
   cy="651.10352"
   r="126.0234"
   gradientTransform="translate(-484,-674)"
   gradientUnits="userSpaceOnUse">
	<stop
   offset="0"
   style="stop-color:#CCEAAC"
   id="stop137" />
	<stop
   offset="0.5393"
   style="stop-color:#3BA42A"
   id="stop139" />
	<stop
   offset="1"
   style="stop-color:#91E851"
   id="stop141" />
</radialGradient>

<linearGradient
   id="XMLID_16_"
   gradientUnits="userSpaceOnUse"
   x1="538.77338"
   y1="675.48541"
   x2="538.77338"
   y2="677.06049"
   gradientTransform="translate(-484,-674)">
	<stop
   offset="0"
   style="stop-color:#FFFFFF"
   id="stop146" />
	<stop
   offset="1"
   style="stop-color:#00BF00"
   id="stop148" />
</linearGradient>

<path
   id="path2295_24_"
   style="opacity:0.38140001;fill:url(#path2295_1_)"
   d="M 113.63292,114.29485 C 113.64035,116.89147 87.293015,119 54.784655,119 C 22.276287,119 -4.0784797,116.89519 -4.0859167,114.29485 L -4.0859167,114.29485 C -4.0887057,111.69266 22.257694,109.58506 54.766055,109.58506 C 87.270705,109.58506 113.62827,111.69359 113.63199,114.29113 C 113.63292,114.29113 113.63292,114.29113 113.63292,114.29485 z " />
<path
   style="fill:url(#linearGradient2150)"
   d="M 54.773468,108.16342 C 53.656524,108.16342 52.584182,107.69136 51.810091,106.8851 L -2.4022825,50.406619 C -3.5533018,49.205782 -3.8652583,47.437913 -3.2157586,45.903448 C -2.5641089,44.367919 -1.0677117,43.375861 0.59014753,43.375861 C 0.59014772,43.375857 19.583715,43.375861 24.587693,43.375861 L -2.4022825,15.252829 C -3.5533018,14.05199 -3.8652583,12.284125 -3.2157586,10.749658 C -2.5641089,9.2141311 -1.0677117,8.2511241 0.59014753,8.2511241 C 0.59014772,8.2511241 22.337352,8.2511241 25.866013,8.2511241 L 83.680923,8.2511241 C 87.209581,8.2511241 108.95679,8.2511241 108.95679,8.2511241 C 110.61677,8.2511241 112.11426,9.2162601 112.76269,10.749658 C 112.76376,10.753934 113.08227,12.37661 113.08227,12.37661 C 113.08227,13.455549 112.69457,14.477582 111.94922,15.252829 L 84.959243,43.375861 C 89.963218,43.37586 108.95679,43.375861 108.95679,43.375861 C 110.61677,43.375859 112.11426,44.370053 112.76269,45.903448 C 112.76376,45.90773 113.08227,47.5304 113.08227,47.5304 C 113.08227,48.60934 112.69457,49.631367 111.94922,50.406619 L 57.736845,106.8851 C 56.963818,107.69136 55.889352,108.16342 54.773468,108.16342 z "
   id="path2022" /><path
   style="fill:url(#linearGradient2147)"
   d="M 54.773468,104.00889 L 0.59014753,47.5304 L 29.991499,47.5304 L 34.291301,47.5304 L 0.59014753,12.37661 L 29.991499,12.37661 L 79.555437,12.37661 L 108.95679,12.37661 L 75.255635,47.5304 L 79.555437,47.5304 L 108.95679,47.5304 L 54.773468,104.00889 z "
   id="path2038" /><path
   style="fill:url(#radialGradient2144)"
   d="M 54.773468,106.10068 C 54.213394,106.10068 53.68042,105.86893 53.291779,105.46152 L -0.89154112,48.953983 C -1.4654409,48.35303 -1.6478316,47.480413 -1.3273319,46.716924 C -1.001512,45.952363 -0.23718205,45.467657 0.59014753,45.467657 C 0.59014772,45.46766 24.360699,45.467657 27.928756,45.467657 L 29.439497,45.467657 L -0.89154112,13.829246 C -1.4654409,13.228287 -1.6478316,12.326621 -1.3273319,11.563134 C -1.001512,10.798569 -0.23718205,10.313867 0.59014753,10.313867 C 0.59014772,10.313867 24.360699,10.313867 27.928756,10.313867 L 81.61818,10.313867 C 85.18837,10.313867 108.95679,10.313867 108.95679,10.313867 C 109.78412,10.313867 110.55058,10.798578 110.87427,11.563134 C 110.98499,11.824051 111.01953,12.100726 111.01953,12.37661 C 111.01953,12.900572 110.84446,13.436807 110.46753,13.829246 L 80.136491,45.438604 L 81.61818,45.438604 C 85.18837,45.438603 108.95679,45.438604 108.95679,45.438604 C 109.78412,45.438603 110.55058,45.952365 110.87427,46.716924 C 110.98499,46.977839 111.01953,47.254517 111.01953,47.5304 C 111.01953,48.054361 110.84446,48.561545 110.46753,48.953983 L 56.255157,105.46152 C 55.86545,105.86893 55.333537,106.10068 54.773468,106.10068 z "
   id="path2036" /><path
   style="fill:url(#linearGradient2141);fill-opacity:1"
   d="M 54.773468,96.542336 C 49.400624,90.940202 23.742574,64.210802 12.705131,52.701784 L 46.406285,52.701784 C 36.747968,42.632692 21.547787,26.797506 12.705131,17.577047 L 96.841805,17.577047 C 87.998297,26.797506 72.798731,42.632692 63.140651,52.701784 L 96.841805,52.701784 C 85.803298,64.210804 60.146315,90.940202 54.773468,96.542336 z "
   id="path2040" /><path
   sodipodi:type="arc"
   style="opacity:0.88999999;fill:url(#radialGradient2127);fill-opacity:1;fill-rule:nonzero;stroke:none;stroke-width:0.30000001;stroke-linecap:round;stroke-linejoin:round;stroke-miterlimit:4;stroke-dasharray:none;stroke-dashoffset:4;stroke-opacity:1"
   id="path2946"
   sodipodi:cx="11.83884"
   sodipodi:cy="100.6598"
   sodipodi:rx="51.470882"
   sodipodi:ry="0.59161931"
   d="M 63.309722 100.6598 A 51.470882 0.59161931 0 1 1  -39.632043,100.6598 A 51.470882 0.59161931 0 1 1  63.309722 100.6598 z"
   transform="matrix(1.056851,0,0,-0.922335,42.362,102.8306)" /><path
   style="fill:url(#radialGradient2861);fill-opacity:1"
   d="M 1.9927353,9.0578505 C 0.37061905,9.0578505 -1.0935182,10.000094 -1.7311184,11.502516 C -2.0684924,12.299574 -2.1334993,13.167007 -1.9585294,13.97561 C -1.9057431,13.753345 -1.8222017,13.53699 -1.7311184,13.321803 C -1.0935182,11.819383 0.37061905,10.877136 1.9927353,10.877136 C 1.9927353,10.877136 23.271088,10.877136 26.723672,10.877136 L 83.292138,10.877136 C 86.744719,10.877136 108.02307,10.877136 108.02307,10.877136 C 109.64725,10.877136 111.11248,11.821466 111.74692,13.321803 C 111.74747,13.323974 111.83661,13.73434 111.91748,14.146168 C 112.00707,13.80198 112.05961,13.4596 112.05961,13.094393 C 112.05961,13.094393 111.74797,11.506699 111.74692,11.502516 C 111.11248,10.002178 109.64725,9.0578509 108.02307,9.0578505 C 108.02307,9.0578505 86.744719,9.0578509 83.292138,9.0578505 L 26.723672,9.0578505 C 23.271088,9.0578505 1.9927353,9.0578509 1.9927353,9.0578505 z M 1.9927353,44.262043 C 0.37061905,44.262043 -1.0935182,45.232713 -1.7311184,46.735136 C -2.0684924,47.532193 -2.1334993,48.399626 -1.9585294,49.20823 C -1.9057431,48.985965 -1.8222017,48.769611 -1.7311184,48.554423 C -1.0935182,47.052 0.37061905,46.08133 1.9927353,46.08133 C 1.9927353,46.081328 22.343225,46.08133 27.239317,46.08133 L 25.505309,44.262043 C 19.261391,44.262043 1.9927353,44.26204 1.9927353,44.262043 z M 84.231593,44.262043 L 82.497586,46.08133 C 87.393678,46.081331 108.02307,46.08133 108.02307,46.08133 C 109.64725,46.081328 111.11248,47.054088 111.74692,48.554423 C 111.74747,48.556597 111.83661,48.96696 111.91748,49.378788 C 112.00707,49.034601 112.05961,48.69222 112.05961,48.327012 C 112.05961,48.327012 111.74797,46.739326 111.74692,46.735136 C 111.11248,45.234801 109.64725,44.262042 108.02307,44.262043 C 108.02307,44.262043 90.475514,44.262043 84.231593,44.262043 z "
   id="path1959"
   sodipodi:nodetypes="cscsccccsccscccccscssccccccsccscc" /></svg>