<?xml version="1.0" encoding="UTF-8" standalone="no"?>
<!-- Created with Inkscape (http://www.inkscape.org/) -->
<svg
   xmlns:dc="http://purl.org/dc/elements/1.1/"
   xmlns:cc="http://web.resource.org/cc/"
   xmlns:rdf="http://www.w3.org/1999/02/22-rdf-syntax-ns#"
   xmlns:svg="http://www.w3.org/2000/svg"
   xmlns="http://www.w3.org/2000/svg"
   xmlns:xlink="http://www.w3.org/1999/xlink"
   xmlns:sodipodi="http://inkscape.sourceforge.net/DTD/sodipodi-0.dtd"
   xmlns:inkscape="http://www.inkscape.org/namespaces/inkscape"
   width="128"
   height="128"
   id="svg1307"
   sodipodi:version="0.32"
   inkscape:version="0.43"
   version="1.0"
   sodipodi:docbase="/home/pinheiro/artwork/Oxygen/theme/svg/actions"
   sodipodi:docname="away_kopete.svg"
   inkscape:export-filename="/home/pinheiro/Documents/pics/new oxygen/svg/pen.png"
   inkscape:export-xdpi="90"
   inkscape:export-ydpi="90">
  <defs
     id="defs1309">
    <linearGradient
       inkscape:collect="always"
       id="linearGradient3551">
      <stop
         style="stop-color:#000000;stop-opacity:1;"
         offset="0"
         id="stop3553" />
      <stop
         style="stop-color:#000000;stop-opacity:0;"
         offset="1"
         id="stop3555" />
    </linearGradient>
    <linearGradient
       id="linearGradient3291"
       inkscape:collect="always">
      <stop
         id="stop3293"
         offset="0"
         style="stop-color:#000000;stop-opacity:1;" />
      <stop
         id="stop3295"
         offset="1"
         style="stop-color:#000000;stop-opacity:0;" />
    </linearGradient>
    <radialGradient
       id="radialGradient5323"
       cx="336.8938"
       cy="-319.7261"
       r="130.5231"
       gradientTransform="matrix(0.198406,0,-5.256355e-3,-0.198406,-93.84279,22.97293)"
       gradientUnits="userSpaceOnUse">
      <stop
         offset="0"
         style="stop-color:#A4C0E4"
         id="stop5325" />
      <stop
         offset="1"
         style="stop-color:#4684d2;stop-opacity:1"
         id="stop5327" />
    </radialGradient>
    <radialGradient
       inkscape:collect="always"
       xlink:href="#linearGradient3291"
       id="radialGradient5518"
       gradientUnits="userSpaceOnUse"
       gradientTransform="matrix(1,0,0,0.197802,-2.554293e-14,92.82166)"
       cx="63.912209"
       cy="115.70919"
       fx="62.27319"
       fy="123.44514"
       r="63.912209" />
    <linearGradient
       id="linearGradient3149">
      <stop
         id="stop3151"
         offset="0"
         style="stop-color:#8e8e8e;stop-opacity:1;" />
      <stop
         id="stop3153"
         offset="1"
         style="stop-color:#f8f8f8;stop-opacity:1;" />
    </linearGradient>
    <linearGradient
       id="linearGradient5076"
       inkscape:collect="always">
      <stop
         id="stop5078"
         offset="0"
         style="stop-color:#ffffff;stop-opacity:1;" />
      <stop
         id="stop5080"
         offset="1"
         style="stop-color:#ffffff;stop-opacity:0;" />
    </linearGradient>
    <linearGradient
       id="linearGradient3954">
      <stop
         id="stop3956"
         offset="0"
         style="stop-color:#b3b3b3;stop-opacity:1;" />
      <stop
         style="stop-color:#ffffff;stop-opacity:1;"
         offset="0.52879584"
         id="stop3962" />
      <stop
         id="stop3958"
         offset="1"
         style="stop-color:#c5c5c5;stop-opacity:1;" />
    </linearGradient>
    <linearGradient
       inkscape:collect="always"
       xlink:href="#linearGradient3954"
       id="linearGradient3530"
       gradientUnits="userSpaceOnUse"
       x1="-52.628616"
       y1="51.966648"
       x2="195.62982"
       y2="118.4873"
       gradientTransform="translate(-1.171875,0)" />
    <linearGradient
       inkscape:collect="always"
       xlink:href="#radialGradient5323"
       id="linearGradient3533"
       gradientUnits="userSpaceOnUse"
       x1="44.040764"
       y1="4.8570843"
       x2="97.805557"
       y2="131.68027"
       gradientTransform="translate(-1.171875,0)" />
    <linearGradient
       inkscape:collect="always"
       xlink:href="#linearGradient3149"
       id="linearGradient3536"
       gradientUnits="userSpaceOnUse"
       gradientTransform="matrix(0.972634,0,0,0.972634,0.611638,3.252313)"
       x1="5.2936263"
       y1="-21.83477"
       x2="120.33112"
       y2="146.57463" />
    <radialGradient
       inkscape:collect="always"
       xlink:href="#linearGradient3551"
       id="radialGradient3557"
       cx="1.0022582"
       cy="20.468914"
       fx="1.0022582"
       fy="20.468914"
       r="6.71875"
       gradientTransform="matrix(1.082499,1.797863e-17,2.234873e-17,0.980629,41.69143,2.874405)"
       gradientUnits="userSpaceOnUse" />
    <linearGradient
       inkscape:collect="always"
       xlink:href="#linearGradient5076"
       id="linearGradient3561"
       x1="41.562416"
       y1="47.524242"
       x2="41.562416"
       y2="23.373201"
       gradientUnits="userSpaceOnUse" />
  </defs>
  <sodipodi:namedview
     id="base"
     pagecolor="#ffffff"
     bordercolor="#666666"
     borderopacity="1.0"
     inkscape:pageopacity="0.0"
     inkscape:pageshadow="2"
     inkscape:zoom="3.0159604"
     inkscape:cx="43.320377"
     inkscape:cy="98.653886"
     inkscape:current-layer="layer1"
     showgrid="false"
     inkscape:document-units="px"
     inkscape:grid-bbox="true"
     guidetolerance="0.1px"
     showguides="true"
     inkscape:guide-bbox="true"
     inkscape:window-width="1566"
     inkscape:window-height="1043"
     inkscape:window-x="353"
     inkscape:window-y="111"
     fill="#d3d7cf">
    <sodipodi:guide
       orientation="horizontal"
       position="32.487481"
       id="guide2204" />
    <sodipodi:guide
       orientation="vertical"
       position="-47.775389"
       id="guide5419" />
    <sodipodi:guide
       orientation="horizontal"
       position="92.61042"
       id="guide1711" />
  </sodipodi:namedview>
  <metadata
     id="metadata1312">
    <rdf:RDF>
      <cc:Work
         rdf:about="">
        <dc:format>image/svg+xml</dc:format>
        <dc:type
           rdf:resource="http://purl.org/dc/dcmitype/StillImage" />
        <cc:license
           rdf:resource="http://creativecommons.org/licenses/GPL/2.0/" />
        <dc:contributor>
          <cc:Agent>
            <dc:title>Oxygen team</dc:title>
          </cc:Agent>
        </dc:contributor>
      </cc:Work>
      <cc:License
         rdf:about="http://creativecommons.org/licenses/LGPL/2.1/">
        <cc:permits
           rdf:resource="http://web.resource.org/cc/Reproduction" />
        <cc:permits
           rdf:resource="http://web.resource.org/cc/Distribution" />
        <cc:requires
           rdf:resource="http://web.resource.org/cc/Notice" />
        <cc:permits
           rdf:resource="http://web.resource.org/cc/DerivativeWorks" />
        <cc:requires
           rdf:resource="http://web.resource.org/cc/ShareAlike" />
        <cc:requires
           rdf:resource="http://web.resource.org/cc/SourceCode" />
      </cc:License>
    </rdf:RDF>
  </metadata>
  <g
     id="layer1"
     inkscape:label="Layer 1"
     inkscape:groupmode="layer">
    <path
       sodipodi:nodetypes="ccc"
       id="path2276"
       d="M 50.892799,3.2812959 L 50.892799,0.48658747 L 50.892799,3.2812959 z "
       style="fill:#ffffff;fill-opacity:0.75688076;fill-rule:nonzero;stroke:none;stroke-width:0.5;stroke-linecap:round;stroke-linejoin:round;stroke-miterlimit:4;stroke-dasharray:none;stroke-dashoffset:4;stroke-opacity:1" />
    <path
       sodipodi:nodetypes="ccc"
       id="path1987"
       d="M -21.591741,-220.6239 L -21.591741,-223.41861 L -21.591741,-220.6239 z "
       style="fill:#ffffff;fill-opacity:0.75688076;fill-rule:nonzero;stroke:none;stroke-width:0.5;stroke-linecap:round;stroke-linejoin:round;stroke-miterlimit:4;stroke-dasharray:none;stroke-dashoffset:4;stroke-opacity:1" />
    <path
       sodipodi:nodetypes="ccc"
       id="path1747"
       d="M 26.204559,-335.9479 L 26.204559,-338.74261 L 26.204559,-335.9479 z "
       style="fill:#ffffff;fill-opacity:0.75688076;fill-rule:nonzero;stroke:none;stroke-width:0.5;stroke-linecap:round;stroke-linejoin:round;stroke-miterlimit:4;stroke-dasharray:none;stroke-dashoffset:4;stroke-opacity:1" />
    <rect
       style="opacity:0.57786889;fill:#ffffff;fill-opacity:1;fill-rule:nonzero;stroke:none;stroke-width:3.63199997;stroke-linecap:round;stroke-linejoin:round;stroke-miterlimit:4;stroke-dasharray:none;stroke-dashoffset:4;stroke-opacity:1"
       id="rect1327"
       width="1"
       height="0"
       x="15.057414"
       y="-308.20486" />
    <path
       sodipodi:type="arc"
       style="opacity:0.38139535;fill:url(#radialGradient5518);fill-opacity:1;fill-rule:nonzero;stroke:none;stroke-width:0;stroke-linecap:round;stroke-linejoin:round;stroke-miterlimit:4;stroke-dasharray:none;stroke-dashoffset:4;stroke-opacity:1"
       id="path3289"
       sodipodi:cx="63.912209"
       sodipodi:cy="115.70919"
       sodipodi:rx="63.912209"
       sodipodi:ry="12.641975"
       d="M 127.82442 115.70919 A 63.912209 12.641975 0 1 1  0,115.70919 A 63.912209 12.641975 0 1 1  127.82442 115.70919 z"
       transform="matrix(0.536858,0,0,0.417239,31.81533,75.76612)" />
    <path
       id="path3502"
       d="M 63.080394,4.3443335 C 47.489074,4.8348613 35.072724,17.540832 35.072724,33.255475 L 35.072724,90.529221 C 35.072724,106.55691 47.988452,119.44036 64.016133,119.44036 C 80.043819,119.44036 92.927276,106.55691 92.927276,90.529221 L 92.927276,33.255475 C 92.927276,17.22779 80.043823,4.3443335 64.016133,4.3443335 C 63.703093,4.3443335 63.390977,4.3345621 63.080394,4.3443335 z M 63.01586,15.92815 C 63.348001,15.909187 63.67927,15.92815 64.016133,15.92815 C 73.598024,15.92815 81.375725,23.673581 81.375725,33.255475 C 81.375728,42.837369 73.598029,50.615068 64.016133,50.615068 C 54.434236,50.615067 46.656542,42.83737 46.656542,33.255475 C 46.656543,24.010443 53.900421,16.448599 63.01586,15.92815 z "
       style="opacity:0.1;fill:none;fill-opacity:1;fill-rule:nonzero;stroke:#000000;stroke-width:6;stroke-linecap:round;stroke-linejoin:round;stroke-miterlimit:4;stroke-dasharray:none;stroke-dashoffset:4;stroke-opacity:1" />
    <path
       style="opacity:0.2;fill:none;fill-opacity:1;fill-rule:nonzero;stroke:#000000;stroke-width:4;stroke-linecap:round;stroke-linejoin:round;stroke-miterlimit:4;stroke-dasharray:none;stroke-dashoffset:4;stroke-opacity:1"
       d="M 63.080394,4.3443335 C 47.489074,4.8348613 35.072724,17.540832 35.072724,33.255475 L 35.072724,90.529221 C 35.072724,106.55691 47.988452,119.44036 64.016133,119.44036 C 80.043819,119.44036 92.927276,106.55691 92.927276,90.529221 L 92.927276,33.255475 C 92.927276,17.22779 80.043823,4.3443335 64.016133,4.3443335 C 63.703093,4.3443335 63.390977,4.3345621 63.080394,4.3443335 z M 63.01586,15.92815 C 63.348001,15.909187 63.67927,15.92815 64.016133,15.92815 C 73.598024,15.92815 81.375725,23.673581 81.375725,33.255475 C 81.375728,42.837369 73.598029,50.615068 64.016133,50.615068 C 54.434236,50.615067 46.656542,42.83737 46.656542,33.255475 C 46.656543,24.010443 53.900421,16.448599 63.01586,15.92815 z "
       id="path3500" />
    <path
       id="path3498"
       d="M 63.080394,4.3443335 C 47.489074,4.8348613 35.072724,17.540832 35.072724,33.255475 L 35.072724,90.529221 C 35.072724,106.55691 47.988452,119.44036 64.016133,119.44036 C 80.043819,119.44036 92.927276,106.55691 92.927276,90.529221 L 92.927276,33.255475 C 92.927276,17.22779 80.043823,4.3443335 64.016133,4.3443335 C 63.703093,4.3443335 63.390977,4.3345621 63.080394,4.3443335 z M 63.01586,15.92815 C 63.348001,15.909187 63.67927,15.92815 64.016133,15.92815 C 73.598024,15.92815 81.375725,23.673581 81.375725,33.255475 C 81.375728,42.837369 73.598029,50.615068 64.016133,50.615068 C 54.434236,50.615067 46.656542,42.83737 46.656542,33.255475 C 46.656543,24.010443 53.900421,16.448599 63.01586,15.92815 z "
       style="opacity:0.3;fill:none;fill-opacity:1;fill-rule:nonzero;stroke:#000000;stroke-width:2;stroke-linecap:round;stroke-linejoin:round;stroke-miterlimit:4;stroke-dasharray:none;stroke-dashoffset:4;stroke-opacity:1" />
    <path
       style="fill:url(#linearGradient3536);fill-opacity:1;fill-rule:nonzero;stroke:none;stroke-width:7.5;stroke-linecap:round;stroke-linejoin:round;stroke-miterlimit:4;stroke-dasharray:none;stroke-dashoffset:4;stroke-opacity:1"
       d="M 63.078742,3.5409553 C 47.459413,4.0323643 35.020758,16.761161 35.020758,32.504034 L 35.020758,89.88067 C 35.020758,105.93715 47.959688,118.84375 64.016162,118.84375 C 80.072641,118.84375 92.979242,105.93715 92.979242,89.88067 L 92.979242,32.504034 C 92.979242,16.447556 80.072645,3.5409553 64.016162,3.5409553 C 63.70256,3.5409553 63.389883,3.5311663 63.078742,3.5409553 z M 63.014092,15.145582 C 63.34683,15.126584 63.678694,15.145582 64.016162,15.145582 C 73.615266,15.145582 81.40694,22.904927 81.40694,32.504034 C 81.406943,42.103142 73.615271,49.894813 64.016162,49.894813 C 54.417052,49.894812 46.625385,42.103143 46.625385,32.504034 C 46.625386,23.242394 53.882278,15.666966 63.014092,15.145582 z "
       id="rect1707" />
    <path
       id="path3480"
       d="M 63.078742,3.5409553 C 47.459413,4.0323643 35.020758,16.761161 35.020758,32.504034 L 35.020758,89.88067 C 35.020758,105.93715 47.959688,118.84375 64.016162,118.84375 C 80.072641,118.84375 92.979242,105.93715 92.979242,89.88067 L 92.979242,32.504034 C 92.979242,16.447556 80.072645,3.5409553 64.016162,3.5409553 C 63.70256,3.5409553 63.389883,3.5311663 63.078742,3.5409553 z "
       style="fill:none;fill-opacity:1;fill-rule:nonzero;stroke:url(#linearGradient3533);stroke-width:2;stroke-linecap:round;stroke-linejoin:round;stroke-miterlimit:4;stroke-dasharray:none;stroke-dashoffset:4;stroke-opacity:1"
       sodipodi:nodetypes="cccsccsc" />
    <rect
       style="opacity:0.91701247;fill:url(#linearGradient3530);fill-opacity:1;fill-rule:nonzero;stroke:none;stroke-width:10;stroke-linecap:round;stroke-linejoin:round;stroke-miterlimit:4;stroke-dasharray:none;stroke-dashoffset:4;stroke-opacity:1"
       id="rect2664"
       width="40.40646"
       height="35.516701"
       x="43.068775"
       y="60.164337"
       ry="4.4240646"
       rx="4.4240646" />
    <path
       style="fill:url(#radialGradient3557);fill-opacity:1;fill-rule:nonzero;stroke:none;stroke-width:7.5;stroke-linecap:round;stroke-linejoin:round;stroke-miterlimit:4;stroke-dasharray:none;stroke-dashoffset:4;stroke-opacity:1;opacity:1"
       d="M 46.427357,33.291736 C 46.427357,30.276187 47.126541,27.429525 48.389387,24.902367 C 46.712127,27.612245 43.192045,28.635064 40.270643,27.202677 C 37.491917,25.840241 36.067988,22.700682 36.887832,19.828151 C 34.957075,23.902992 33.843303,28.467447 33.843303,33.291736 C 33.843303,33.291736 46.427357,43.682764 46.427357,33.291736 z "
       id="path3541"
       sodipodi:nodetypes="ccsccs" />
    <path
       sodipodi:nodetypes="cscc"
       id="path3559"
       d="M 48.389387,24.902367 C 46.712127,27.612245 43.192045,28.635064 40.270643,27.202677 C 37.491917,25.840241 36.067988,22.700682 36.887832,19.828151 C 37.536079,17.895085 52.899994,19.106375 48.389387,24.902367 z "
       style="fill:url(#linearGradient3561);fill-opacity:1.0;fill-rule:nonzero;stroke:none;stroke-width:7.5;stroke-linecap:round;stroke-linejoin:round;stroke-miterlimit:4;stroke-dasharray:none;stroke-dashoffset:4;stroke-opacity:1;opacity:1" />
  </g>
</svg>
