<?xml version="1.0" encoding="UTF-8" standalone="no"?>
<!-- Created with Inkscape (http://www.inkscape.org/) -->
<svg
   xmlns:dc="http://purl.org/dc/elements/1.1/"
   xmlns:cc="http://web.resource.org/cc/"
   xmlns:rdf="http://www.w3.org/1999/02/22-rdf-syntax-ns#"
   xmlns:svg="http://www.w3.org/2000/svg"
   xmlns="http://www.w3.org/2000/svg"
   xmlns:xlink="http://www.w3.org/1999/xlink"
   xmlns:sodipodi="http://sodipodi.sourceforge.net/DTD/sodipodi-0.dtd"
   xmlns:inkscape="http://www.inkscape.org/namespaces/inkscape"
   width="128"
   height="128"
   id="svg1307"
   sodipodi:version="0.32"
   inkscape:version="0.44"
   version="1.0"
   sodipodi:docbase="/home/pinheiro/artwork/Oxygen/theme/svg/actions"
   sodipodi:docname="battery.svg"
   inkscape:export-filename="/home/pinheiro/artwork/Oxygen/theme/svg/actions/small/battery22-100.png"
   inkscape:export-xdpi="90"
   inkscape:export-ydpi="90">
  <defs
     id="defs1309">
    <linearGradient
       inkscape:collect="always"
       id="linearGradient2852">
      <stop
         style="stop-color:black;stop-opacity:1;"
         offset="0"
         id="stop2854" />
      <stop
         style="stop-color:black;stop-opacity:0;"
         offset="1"
         id="stop2856" />
    </linearGradient>
    <linearGradient
       inkscape:collect="always"
       id="linearGradient2889">
      <stop
         style="stop-color:black;stop-opacity:1;"
         offset="0"
         id="stop2891" />
      <stop
         style="stop-color:black;stop-opacity:0;"
         offset="1"
         id="stop2893" />
    </linearGradient>
    <linearGradient
       inkscape:collect="always"
       id="linearGradient3832">
      <stop
         style="stop-color:white;stop-opacity:1;"
         offset="0"
         id="stop3834" />
      <stop
         style="stop-color:white;stop-opacity:0;"
         offset="1"
         id="stop3836" />
    </linearGradient>
    <linearGradient
       inkscape:collect="always"
       id="linearGradient3822">
      <stop
         style="stop-color:white;stop-opacity:1;"
         offset="0"
         id="stop3824" />
      <stop
         style="stop-color:white;stop-opacity:0;"
         offset="1"
         id="stop3826" />
    </linearGradient>
    <linearGradient
       inkscape:collect="always"
       id="linearGradient2919">
      <stop
         style="stop-color:white;stop-opacity:1;"
         offset="0"
         id="stop2921" />
      <stop
         style="stop-color:white;stop-opacity:0;"
         offset="1"
         id="stop2923" />
    </linearGradient>
    <linearGradient
       id="linearGradient2895">
      <stop
         style="stop-color:white;stop-opacity:1;"
         offset="0"
         id="stop2897" />
      <stop
         style="stop-color:white;stop-opacity:0;"
         offset="1"
         id="stop2899" />
    </linearGradient>
    <linearGradient
       inkscape:collect="always"
       id="linearGradient4081">
      <stop
         style="stop-color:#2e3436;stop-opacity:1;"
         offset="0"
         id="stop4083" />
      <stop
         style="stop-color:#2e3436;stop-opacity:0;"
         offset="1"
         id="stop4085" />
    </linearGradient>
    <linearGradient
       inkscape:collect="always"
       id="linearGradient3140">
      <stop
         style="stop-color:white;stop-opacity:1;"
         offset="0"
         id="stop3142" />
      <stop
         style="stop-color:white;stop-opacity:0;"
         offset="1"
         id="stop3144" />
    </linearGradient>
    <linearGradient
       inkscape:collect="always"
       xlink:href="#linearGradient2916"
       id="linearGradient3005"
       gradientUnits="userSpaceOnUse"
       gradientTransform="matrix(0.107489,0,0,1.017614,-43.15318,3.651065e-2)"
       x1="26.446152"
       y1="65.760353"
       x2="64.747475"
       y2="65.760353" />
    <linearGradient
       inkscape:collect="always"
       xlink:href="#linearGradient2916"
       id="linearGradient3008"
       gradientUnits="userSpaceOnUse"
       gradientTransform="matrix(0.67926,0,0,1.017614,17.32428,3.651065e-2)"
       x1="26.446152"
       y1="65.760353"
       x2="52.304092"
       y2="65.760254" />
    <linearGradient
       inkscape:collect="always"
       xlink:href="#linearGradient2874"
       id="linearGradient3011"
       gradientUnits="userSpaceOnUse"
       gradientTransform="matrix(1.068261,0,0,0.906718,15.68449,-131.9927)"
       x1="43.918915"
       y1="7.8450942"
       x2="43.918915"
       y2="15.315003" />
    <linearGradient
       inkscape:collect="always"
       xlink:href="#linearGradient2874"
       id="linearGradient3014"
       gradientUnits="userSpaceOnUse"
       gradientTransform="matrix(1.068261,0,0,0.883896,15.68449,-131.7351)"
       x1="68.395218"
       y1="-36.376503"
       x2="43.918915"
       y2="54.970299" />
    <linearGradient
       inkscape:collect="always"
       xlink:href="#linearGradient2874"
       id="linearGradient3020"
       gradientUnits="userSpaceOnUse"
       gradientTransform="matrix(1.068261,0,0,1.017614,15.68449,-0.130603)"
       x1="69.07917"
       y1="1.0128831"
       x2="63.575024"
       y2="39.769947" />
    <linearGradient
       inkscape:collect="always"
       xlink:href="#linearGradient3082"
       id="linearGradient3096"
       gradientUnits="userSpaceOnUse"
       x1="5.6568542"
       y1="6.0850325"
       x2="5.6568542"
       y2="1.4639859"
       gradientTransform="matrix(5.383907,0,0,5.700416,44.14056,0.666451)" />
    <linearGradient
       inkscape:collect="always"
       xlink:href="#linearGradient3082"
       id="linearGradient3092"
       gradientUnits="userSpaceOnUse"
       x1="5.5593128"
       y1="-0.25962076"
       x2="5.5593128"
       y2="0.43399933"
       gradientTransform="matrix(5.383907,0,0,5.700416,44.14056,0.666451)" />
    <linearGradient
       inkscape:collect="always"
       id="linearGradient3082">
      <stop
         style="stop-color:black;stop-opacity:1;"
         offset="0"
         id="stop3084" />
      <stop
         style="stop-color:black;stop-opacity:0;"
         offset="1"
         id="stop3086" />
    </linearGradient>
    <linearGradient
       id="linearGradient3041">
      <stop
         id="stop3043"
         offset="0"
         style="stop-color:#303030;stop-opacity:1;" />
      <stop
         style="stop-color:#ddd;stop-opacity:1;"
         offset="0.11538462"
         id="stop3045" />
      <stop
         id="stop2848"
         offset="0.21628143"
         style="stop-color:silver;stop-opacity:1;" />
      <stop
         id="stop3053"
         offset="0.26590282"
         style="stop-color:#868686;stop-opacity:1;" />
      <stop
         style="stop-color:#a8a8a8;stop-opacity:1;"
         offset="0.28553563"
         id="stop3057" />
      <stop
         style="stop-color:#b4b4b4;stop-opacity:1;"
         offset="0.43724003"
         id="stop3055" />
      <stop
         style="stop-color:#e9e9e9;stop-opacity:1;"
         offset="0.69156802"
         id="stop3047" />
      <stop
         id="stop3049"
         offset="0.90384614"
         style="stop-color:#c1c1c1;stop-opacity:1;" />
      <stop
         id="stop3051"
         offset="1"
         style="stop-color:#5d5d5d;stop-opacity:1;" />
    </linearGradient>
    <linearGradient
       inkscape:collect="always"
       xlink:href="#linearGradient3041"
       id="linearGradient3077"
       x1="1.1209211"
       y1="1.022699"
       x2="5.8979483"
       y2="1.022699"
       gradientUnits="userSpaceOnUse"
       gradientTransform="matrix(5.383907,0,0,5.700416,44.14056,0.666451)" />
    <linearGradient
       inkscape:collect="always"
       id="linearGradient2916">
      <stop
         style="stop-color:white;stop-opacity:1;"
         offset="0"
         id="stop2918" />
      <stop
         style="stop-color:white;stop-opacity:0;"
         offset="1"
         id="stop2920" />
    </linearGradient>
    <linearGradient
       inkscape:collect="always"
       id="linearGradient2874">
      <stop
         style="stop-color:#414141;stop-opacity:1;"
         offset="0"
         id="stop2876" />
      <stop
         style="stop-color:#414141;stop-opacity:0;"
         offset="1"
         id="stop2878" />
    </linearGradient>
    <linearGradient
       inkscape:collect="always"
       id="linearGradient3291">
      <stop
         style="stop-color:#000000;stop-opacity:1;"
         offset="0"
         id="stop3293" />
      <stop
         style="stop-color:#000000;stop-opacity:0;"
         offset="1"
         id="stop3295" />
    </linearGradient>
    <radialGradient
       inkscape:collect="always"
       xlink:href="#linearGradient3291"
       id="radialGradient3297"
       cx="63.912209"
       cy="115.70919"
       fx="66.022942"
       fy="115.70919"
       r="63.912209"
       gradientTransform="matrix(1,0,0,0.197802,0,92.82166)"
       gradientUnits="userSpaceOnUse" />
    <radialGradient
       inkscape:collect="always"
       xlink:href="#linearGradient3140"
       id="radialGradient3146"
       cx="68.000046"
       cy="-117.34602"
       fx="68.000046"
       fy="-117.34602"
       r="27.999956"
       gradientTransform="matrix(1.039419,0,0,1.753606,-6.652297,83.97952)"
       gradientUnits="userSpaceOnUse" />
    <linearGradient
       inkscape:collect="always"
       xlink:href="#linearGradient4081"
       id="linearGradient4087"
       x1="58.922195"
       y1="67.719147"
       x2="67.528694"
       y2="67.719147"
       gradientUnits="userSpaceOnUse"
       gradientTransform="matrix(1.039419,0,0,1.066307,-14.96767,-5.720918)" />
    <linearGradient
       inkscape:collect="always"
       xlink:href="#linearGradient2895"
       id="linearGradient2909"
       gradientUnits="userSpaceOnUse"
       x1="11.972158"
       y1="1.8372642"
       x2="10.88339"
       y2="5.9006019"
       gradientTransform="matrix(5.820761,0,0,6.162951,0,-7.186)" />
    <linearGradient
       inkscape:collect="always"
       xlink:href="#linearGradient2919"
       id="linearGradient2925"
       x1="16.153557"
       y1="11.921875"
       x2="15.121005"
       y2="11.921875"
       gradientUnits="userSpaceOnUse"
       gradientTransform="matrix(5.820761,0,0,6.162951,0,-7.186)" />
    <linearGradient
       inkscape:collect="always"
       xlink:href="#linearGradient3822"
       id="linearGradient3828"
       x1="11.434079"
       y1="1.0289581"
       x2="11.174653"
       y2="2.2792649"
       gradientUnits="userSpaceOnUse"
       gradientTransform="matrix(6.070472,0,0,6.162951,-2.208001,-7.186)" />
    <radialGradient
       inkscape:collect="always"
       xlink:href="#linearGradient3832"
       id="radialGradient3838"
       cx="12.308078"
       cy="3.0406888"
       fx="13.944797"
       fy="3.0406888"
       r="2.9831069"
       gradientTransform="matrix(1,0,0,2.962963e-2,0,2.950605)"
       gradientUnits="userSpaceOnUse" />
    <radialGradient
       inkscape:collect="always"
       xlink:href="#linearGradient3832"
       id="radialGradient3842"
       gradientUnits="userSpaceOnUse"
       gradientTransform="matrix(1,0,0,2.962963e-2,0,2.950605)"
       cx="12.308078"
       cy="3.0406888"
       fx="13.944797"
       fy="3.0406888"
       r="2.9831069" />
    <linearGradient
       inkscape:collect="always"
       xlink:href="#linearGradient2916"
       id="linearGradient1990"
       gradientUnits="userSpaceOnUse"
       gradientTransform="matrix(0.54455,0,0,0.961112,79.25267,6.41365)"
       x1="38.875084"
       y1="67.528122"
       x2="90.409752"
       y2="67.528122" />
    <linearGradient
       inkscape:collect="always"
       xlink:href="#linearGradient2889"
       id="linearGradient1997"
       gradientUnits="userSpaceOnUse"
       gradientTransform="translate(32.30306,-0.25)"
       x1="78.436058"
       y1="119.18198"
       x2="78.436058"
       y2="30.719795" />
    <linearGradient
       inkscape:collect="always"
       xlink:href="#linearGradient2852"
       id="linearGradient2858"
       x1="59.375"
       y1="10.718748"
       x2="67.375"
       y2="21.718748"
       gradientUnits="userSpaceOnUse" />
  </defs>
  <sodipodi:namedview
     id="base"
     pagecolor="#ffffff"
     bordercolor="#666666"
     borderopacity="1.0"
     inkscape:pageopacity="0.0"
     inkscape:pageshadow="2"
     inkscape:zoom="2.8284271"
     inkscape:cx="133.20649"
     inkscape:cy="14.581315"
     inkscape:current-layer="layer1"
     showgrid="true"
     inkscape:document-units="px"
     inkscape:grid-bbox="true"
     guidetolerance="0.1px"
     showguides="true"
     inkscape:guide-bbox="true"
     inkscape:window-width="1106"
     inkscape:window-height="958"
     inkscape:window-x="482"
     inkscape:window-y="121"
     width="128px"
     height="128px">
    <sodipodi:guide
       orientation="horizontal"
       position="32.487481"
       id="guide2204" />
  </sodipodi:namedview>
  <metadata
     id="metadata1312">
    <rdf:RDF>
      <cc:Work
         rdf:about="">
        <dc:format>image/svg+xml</dc:format>
        <dc:type
           rdf:resource="http://purl.org/dc/dcmitype/StillImage" />
        <cc:license
           rdf:resource="http://creativecommons.org/licenses/GPL/2.0/" />
        <dc:contributor>
          <cc:Agent>
            <dc:title>Oxygen team</dc:title>
          </cc:Agent>
        </dc:contributor>
      </cc:Work>
      <cc:License
         rdf:about="http://creativecommons.org/licenses/LGPL/2.1/">
        <cc:permits
           rdf:resource="http://web.resource.org/cc/Reproduction" />
        <cc:permits
           rdf:resource="http://web.resource.org/cc/Distribution" />
        <cc:requires
           rdf:resource="http://web.resource.org/cc/Notice" />
        <cc:permits
           rdf:resource="http://web.resource.org/cc/DerivativeWorks" />
        <cc:requires
           rdf:resource="http://web.resource.org/cc/ShareAlike" />
        <cc:requires
           rdf:resource="http://web.resource.org/cc/SourceCode" />
      </cc:License>
    </rdf:RDF>
  </metadata>
  <g
     id="layer1"
     inkscape:label="Layer 1"
     inkscape:groupmode="layer">
    <path
       sodipodi:type="arc"
       style="opacity:0.38139535;fill:url(#radialGradient3297);fill-opacity:1;fill-rule:nonzero;stroke:none;stroke-width:0;stroke-linecap:round;stroke-linejoin:round;stroke-miterlimit:4;stroke-dasharray:none;stroke-dashoffset:4;stroke-opacity:1"
       id="path3289"
       sodipodi:cx="63.912209"
       sodipodi:cy="115.70919"
       sodipodi:rx="63.912209"
       sodipodi:ry="12.641975"
       d="M 127.82442 115.70919 A 63.912209 12.641975 0 1 1  0,115.70919 A 63.912209 12.641975 0 1 1  127.82442 115.70919 z"
       transform="matrix(0.595487,0,0,0.416919,28.01696,74.98275)" />
    <rect
       y="11.340002"
       x="34.924564"
       height="110.89598"
       width="58.207611"
       id="rect4079"
       style="opacity:1;fill:#d3d7cf;fill-opacity:1;fill-rule:nonzero;stroke:none;stroke-width:0.04;stroke-linecap:round;stroke-linejoin:round;stroke-miterlimit:4;stroke-dasharray:none;stroke-dashoffset:4;stroke-opacity:1"
       rx="1.5089753"
       ry="1.5480068" />
    <rect
       style="opacity:1;fill:black;fill-opacity:1;fill-rule:nonzero;stroke:none;stroke-width:0.04;stroke-linecap:round;stroke-linejoin:round;stroke-miterlimit:4;stroke-dasharray:none;stroke-dashoffset:4;stroke-opacity:1"
       id="rect1970"
       width="58"
       height="110.64334"
       x="35"
       y="11.342789"
       rx="1.5026019"
       ry="1.5909367" />
    <rect
       style="opacity:1;fill:#babdb6;fill-opacity:1;fill-rule:nonzero;stroke:none;stroke-width:0.04;stroke-linecap:round;stroke-linejoin:round;stroke-miterlimit:4;stroke-dasharray:none;stroke-dashoffset:4;stroke-opacity:1"
       id="rect1982"
       width="57.5"
       height="20"
       x="35"
       y="81.375"
       rx="0"
       ry="0" />
    <path
       id="path1980"
       d="M 35.672046,89.794506 L 36.216992,89.794506 L 35.877561,92.757583 C 35.830773,93.165905 35.825581,93.458348 35.861967,93.63491 C 35.89955,93.809277 35.982988,93.896461 36.112261,93.896461 C 36.242497,93.896461 36.34589,93.809277 36.422478,93.63491 C 36.500263,93.458348 36.562539,93.165905 36.609327,92.757583 L 36.94876,89.794506 L 37.493697,89.794506 L 37.154264,92.757583 C 37.074115,93.457245 36.939413,93.97813 36.75019,94.320236 C 36.560966,94.662342 36.312547,94.833386 36.004931,94.833386 C 35.698238,94.833386 35.489493,94.662342 35.378647,94.320236 C 35.267812,93.97813 35.252454,93.457245 35.332604,92.757583 L 35.672046,89.794506"
       style="font-size:3.37224936px;font-style:normal;font-variant:normal;font-weight:bold;font-stretch:normal;text-align:start;line-height:125%;writing-mode:lr-tb;text-anchor:start;fill:#00438a;fill-opacity:1;stroke:none;stroke-width:1px;stroke-linecap:butt;stroke-linejoin:miter;stroke-opacity:1;font-family:Bitstream Vera Sans" />
    <g
       transform="matrix(1,0,0,1.058788,-32.27941,-7.455428)"
       id="g1984">
      <rect
         style="opacity:0.46000001;fill:url(#linearGradient1990);fill-opacity:1;fill-rule:nonzero;stroke:none;stroke-width:0.04;stroke-linecap:round;stroke-linejoin:round;stroke-miterlimit:4;stroke-dasharray:none;stroke-dashoffset:4;stroke-opacity:1"
         id="rect1986"
         width="14.021738"
         height="102.85503"
         x="100.48913"
         y="18.254469"
         rx="0"
         ry="0" />
      <path
         style="fill:url(#linearGradient1997);fill-opacity:1;fill-rule:nonzero;stroke:none;stroke-width:0.04;stroke-linecap:round;stroke-linejoin:round;stroke-miterlimit:4;stroke-dasharray:none;stroke-dashoffset:4;stroke-opacity:1"
         d="M 12.21875,11.875 L 12.21875,81.375 L 26.21875,81.375 L 26.21875,11.875 L 12.21875,11.875 z M 12.21875,101.375 L 12.21875,120.78125 L 26.21875,120.78125 L 26.21875,101.375 L 12.21875,101.375 z "
         transform="matrix(1,0,0,0.944476,88.27941,7.041474)"
         id="rect1988" />
    </g>
    <rect
       style="opacity:0.62999998;fill:url(#linearGradient4087);fill-opacity:1;fill-rule:nonzero;stroke:none;stroke-width:0.04;stroke-linecap:round;stroke-linejoin:round;stroke-miterlimit:4;stroke-dasharray:none;stroke-dashoffset:4;stroke-opacity:1"
       id="rect4077"
       width="8.9457817"
       height="110.46001"
       x="46.277328"
       y="11.258511" />
    <path
       sodipodi:nodetypes="ccc"
       id="path2276"
       d="M 50.892799,3.2812959 L 50.892799,0.48658747 L 50.892799,3.2812959 z "
       style="fill:white;fill-opacity:0.75688076;fill-rule:nonzero;stroke:none;stroke-width:0.5;stroke-linecap:round;stroke-linejoin:round;stroke-miterlimit:4;stroke-dasharray:none;stroke-dashoffset:4;stroke-opacity:1" />
    <path
       style="fill:url(#linearGradient3077);fill-opacity:1.0;fill-rule:nonzero;stroke:none;stroke-width:0.04;stroke-linecap:round;stroke-linejoin:round;stroke-miterlimit:4;stroke-dashoffset:4;stroke-opacity:1"
       d="M 52.022794,0.66648068 L 74.120633,0.66648068 C 75.504717,0.66648068 76.618967,1.8462433 76.618967,3.3116946 L 76.618967,12.091882 L 49.524453,12.091882 L 49.524453,3.3116946 C 49.524453,1.8462433 50.638711,0.66648068 52.022794,0.66648068 z "
       id="rect3069"
       sodipodi:nodetypes="ccccccc" />
    <path
       style="fill:url(#linearGradient3092);fill-opacity:1;fill-rule:nonzero;stroke:none;stroke-width:0.04;stroke-linecap:round;stroke-linejoin:round;stroke-miterlimit:4;stroke-dashoffset:4;stroke-opacity:1"
       d="M 52.022794,0.66648068 L 74.120633,0.66648068 C 75.504717,0.66648068 76.618967,1.8462433 76.618967,3.3116946 L 76.618967,6.6433928 L 49.524453,6.6433928 L 49.524453,3.3116946 C 49.524453,1.8462433 50.638711,0.66648068 52.022794,0.66648068 z "
       id="path3090"
       sodipodi:nodetypes="ccccccc" />
    <path
       sodipodi:nodetypes="ccccccc"
       id="path3080"
       d="M 53.700551,1.5331457 L 73.438376,1.5331457 C 74.674647,1.5331457 75.669892,2.5435652 75.669892,3.7986647 L 75.669892,5.0700678 C 58.440405,8.9598662 70.468839,5.3424336 51.469029,5.0700678 L 51.469029,3.7986647 C 51.469029,2.5435652 52.464286,1.5331457 53.700551,1.5331457 z "
       style="fill:url(#linearGradient3828);fill-opacity:1;fill-rule:nonzero;stroke:none;stroke-width:0.04;stroke-linecap:round;stroke-linejoin:round;stroke-miterlimit:4;stroke-dashoffset:4;stroke-opacity:1" />
    <path
       sodipodi:nodetypes="ccccc"
       id="path3094"
       d="M 76.618967,9.0121079 L 76.618967,12.040971 L 49.524453,12.040971 L 49.524453,9.0121079 L 76.618967,9.0121079 z "
       style="fill:url(#linearGradient3096);fill-opacity:1;fill-rule:nonzero;stroke:none;stroke-width:0.04;stroke-linecap:round;stroke-linejoin:round;stroke-miterlimit:4;stroke-dashoffset:4;stroke-opacity:1" />
    <rect
       ry="1.5119978"
       rx="1.6015977"
       y="11.340073"
       x="34.924656"
       height="39.207966"
       width="58.207516"
       id="rect2872"
       style="fill:url(#linearGradient3020);fill-opacity:1;fill-rule:nonzero;stroke:none;stroke-width:0.04;stroke-linecap:round;stroke-linejoin:round;stroke-miterlimit:4;stroke-dasharray:none;stroke-dashoffset:4;stroke-opacity:1" />
    <rect
       style="fill:url(#linearGradient3014);fill-opacity:1;fill-rule:nonzero;stroke:none;stroke-width:0.04;stroke-linecap:round;stroke-linejoin:round;stroke-miterlimit:4;stroke-dasharray:none;stroke-dashoffset:4;stroke-opacity:1"
       id="rect2882"
       width="58.207516"
       height="62.871948"
       x="34.924656"
       y="-121.77199"
       rx="1.6015977"
       ry="1.5119978"
       transform="scale(1,-1)" />
    <path
       id="path1982"
       d="M 40.2,89.950109 L 40.037635,90.996289 C 39.899217,90.874902 39.760035,90.783307 39.620067,90.721503 C 39.480075,90.659705 39.343611,90.628807 39.210649,90.628802 C 39.03425,90.628807 38.897331,90.670743 38.799922,90.754609 C 38.702561,90.838484 38.640154,90.968704 38.612749,91.145271 C 38.592211,91.277702 38.60422,91.381439 38.648827,91.456477 C 38.695054,91.529315 38.788841,91.59222 38.930191,91.645188 L 39.227736,91.75444 C 39.5289,91.864799 39.729154,92.032541 39.828447,92.257667 C 39.927739,92.482795 39.945179,92.802831 39.880796,93.217769 C 39.796159,93.762937 39.639202,94.169039 39.409808,94.436121 C 39.182055,94.700976 38.87579,94.833386 38.490989,94.833386 C 38.309464,94.833386 38.131896,94.803589 37.958356,94.743994 C 37.784789,94.684399 37.615704,94.59612 37.451026,94.479139 L 37.618016,93.40317 C 37.774782,93.570914 37.9315,93.697828 38.088172,93.783915 C 38.246486,93.867776 38.404872,93.909715 38.563403,93.909715 C 38.724482,93.909715 38.855036,93.863341 38.95509,93.77066 C 39.055123,93.677963 39.118481,93.545535 39.145218,93.373372 C 39.169165,93.218876 39.1583,93.099691 39.1125,93.015818 C 39.067966,92.931948 38.963932,92.856906 38.800327,92.790691 L 38.531616,92.681437 C 38.261689,92.575496 38.07821,92.406652 37.981229,92.1749 C 37.88551,91.943154 37.868165,91.630844 37.929117,91.23797 C 38.005534,90.745784 38.156296,90.36726 38.381497,90.102401 C 38.606699,89.837548 38.891876,89.70512 39.237051,89.705117 C 39.394295,89.70512 39.552753,89.72609 39.712427,89.768019 C 39.872457,89.807754 40.034989,89.86845 40.2,89.950109"
       style="font-size:3.37224936px;font-style:normal;font-variant:normal;font-weight:bold;font-stretch:normal;text-align:start;line-height:125%;writing-mode:lr-tb;text-anchor:start;fill:#00438a;fill-opacity:1;stroke:none;stroke-width:1px;stroke-linecap:butt;stroke-linejoin:miter;stroke-opacity:1;font-family:Bitstream Vera Sans" />
    <g
       id="g2015"
       transform="matrix(1.7125,0,0,1.7125,-65.55001,-77.73791)">
      <path
         id="path1999"
         d="M 83.76188,97.813644 L 82.93655,100.71217 L 83.72257,100.71217 L 84.03698,99.721532 L 84.5479,99.721532 C 84.94134,99.721533 85.27396,99.627099 85.53043,99.464701 C 85.78862,99.30102 85.95441,99.070467 86.04135,98.767588 C 86.12792,98.466003 86.08805,98.232874 85.92344,98.070475 C 85.76057,97.906796 85.49157,97.813646 85.09812,97.813644 L 83.76188,97.813644 z M 84.42999,98.363996 L 84.8623,98.363996 C 85.01694,98.363999 85.11247,98.404474 85.17672,98.474067 C 85.24095,98.543666 85.25302,98.638706 85.21602,98.767588 C 85.17904,98.896474 85.12406,98.990223 85.01951,99.061109 C 84.91531,99.130708 84.78112,99.171183 84.6265,99.17118 L 84.1942,99.17118 L 84.42999,98.363996 z "
         style="font-size:3.37224936px;font-style:normal;font-variant:normal;font-weight:bold;font-stretch:normal;text-align:start;line-height:125%;writing-mode:lr-tb;text-anchor:start;fill:#00438a;fill-opacity:1;stroke:none;stroke-width:1px;stroke-linecap:butt;stroke-linejoin:miter;stroke-opacity:1;font-family:Bitstream Vera Sans" />
      <path
         id="path2005"
         d="M 74.421411,97.776954 C 73.844468,97.776956 73.375583,97.915051 72.957405,98.180545 C 72.540852,98.446048 72.244464,98.813407 72.088152,99.28125 C 71.932265,99.747809 71.986258,100.11646 72.225403,100.38196 C 72.466159,100.64745 72.883708,100.78555 73.460661,100.78555 C 74.039201,100.78555 74.50811,100.64745 74.924661,100.38196 C 75.341211,100.11645 75.63803,99.747812 75.79392,99.28125 C 75.95023,98.813404 75.89581,98.446052 75.65666,98.180545 C 75.417536,97.915047 74.999963,97.776952 74.421411,97.776954 z M 74.238411,98.327306 C 74.522849,98.327308 74.733244,98.416587 74.833161,98.584137 C 74.933053,98.751687 74.934761,98.977088 74.833161,99.28125 C 74.731947,99.584128 74.587503,99.810814 74.375661,99.978363 C 74.163782,100.14591 73.882349,100.23519 73.597911,100.23519 C 73.315045,100.23519 73.14881,100.14591 73.048907,99.978363 C 72.948987,99.810816 72.947699,99.58413 73.048907,99.28125 C 73.150523,98.977086 73.294533,98.751684 73.506411,98.584137 C 73.718278,98.41659 73.955544,98.327313 74.238411,98.327306 z "
         style="font-size:3.37224936px;font-style:normal;font-variant:normal;font-weight:bold;font-stretch:normal;text-align:start;line-height:125%;writing-mode:lr-tb;text-anchor:start;fill:#00438a;fill-opacity:1;stroke:none;stroke-width:1px;stroke-linecap:butt;stroke-linejoin:miter;stroke-opacity:1;font-family:Bitstream Vera Sans" />
      <path
         id="path2003"
         d="M 78.30124,99.242358 L 79.04912,100.7155 L 78.09348,100.7155 L 77.58742,99.729538 L 76.43721,100.7155 L 75.476803,100.7155 L 77.19785,99.242358 L 76.47782,97.829148 L 77.43585,97.829148 L 77.90799,98.759044 L 78.99203,97.829148 L 79.95483,97.829148 L 78.30124,99.242358"
         style="font-size:3.37224936px;font-style:normal;font-variant:normal;font-weight:bold;font-stretch:normal;text-align:start;line-height:125%;writing-mode:lr-tb;text-anchor:start;fill:#00438a;fill-opacity:1;stroke:none;stroke-width:1px;stroke-linecap:butt;stroke-linejoin:miter;stroke-opacity:1;font-family:Bitstream Vera Sans" />
      <path
         id="path2001"
         d="M 80.0549,97.829148 L 80.99899,97.829148 L 81.44179,98.85764 L 82.52392,97.829148 L 83.47023,97.829148 L 81.67512,99.499481 L 81.29716,100.7155 L 80.43378,100.7155 L 80.81174,99.499481 L 80.0549,97.829148"
         style="font-size:3.37224936px;font-style:normal;font-variant:normal;font-weight:bold;font-stretch:normal;text-align:start;line-height:125%;writing-mode:lr-tb;text-anchor:start;fill:#00438a;fill-opacity:1;stroke:none;stroke-width:1px;stroke-linecap:butt;stroke-linejoin:miter;stroke-opacity:1;font-family:Bitstream Vera Sans" />
      <path
         id="path1995"
         d="M 86.78477,97.829148 L 87.49298,97.829148 L 86.90053,100.15293 L 88.14402,100.15293 L 88.0006,100.7155 L 86.04889,100.7155 L 86.78477,97.829148"
         style="font-size:3.37224936px;font-style:normal;font-variant:normal;font-weight:bold;font-stretch:normal;text-align:start;line-height:125%;writing-mode:lr-tb;text-anchor:start;fill:#00438a;fill-opacity:1;stroke:none;stroke-width:1px;stroke-linecap:butt;stroke-linejoin:miter;stroke-opacity:1;font-family:Bitstream Vera Sans" />
      <path
         id="path1993"
         d="M 88.95815,97.829148 L 89.53655,97.829148 L 89.17628,99.559412 C 89.12662,99.797848 89.12111,99.968618 89.15973,100.07172 C 89.19962,100.17354 89.28818,100.22445 89.42539,100.22445 C 89.56362,100.22445 89.67336,100.17354 89.75465,100.07172 C 89.83721,99.968618 89.90331,99.797848 89.95297,99.559412 L 90.31324,97.829148 L 90.89163,97.829148 L 90.53136,99.559412 C 90.44629,99.967974 90.30332,100.27214 90.10248,100.47191 C 89.90164,100.67168 89.63797,100.77156 89.31147,100.77156 C 88.98595,100.77156 88.76439,100.67168 88.64674,100.47191 C 88.5291,100.27214 88.5128,99.967974 88.59787,99.559412 L 88.95815,97.829148"
         style="font-size:3.37224936px;font-style:normal;font-variant:normal;font-weight:bold;font-stretch:normal;text-align:start;line-height:125%;writing-mode:lr-tb;text-anchor:start;fill:#00438a;fill-opacity:1;stroke:none;stroke-width:1px;stroke-linecap:butt;stroke-linejoin:miter;stroke-opacity:1;font-family:Bitstream Vera Sans" />
      <path
         id="text1986"
         d="M 92,97.920011 L 91.93186,98.530919 C 91.87377,98.460036 91.81536,98.40655 91.75662,98.37046 C 91.69787,98.334374 91.6406,98.316331 91.5848,98.316328 C 91.51077,98.316331 91.45331,98.340819 91.41243,98.389792 C 91.37157,98.43877 91.34538,98.514811 91.33388,98.617916 C 91.32526,98.695248 91.3303,98.755824 91.34902,98.799642 C 91.36842,98.842175 91.40778,98.878908 91.4671,98.909838 L 91.59197,98.973635 C 91.71836,99.038078 91.8024,99.13603 91.84407,99.26749 C 91.88574,99.398952 91.89306,99.585834 91.86604,99.828134 C 91.83052,100.14648 91.76465,100.38362 91.66838,100.53958 C 91.5728,100.69424 91.44427,100.77156 91.28278,100.77156 C 91.2066,100.77156 91.13208,100.75416 91.05925,100.71936 C 90.98641,100.68456 90.91545,100.63301 90.84634,100.5647 L 90.91642,99.936397 C 90.98221,100.03435 91.04798,100.10846 91.11373,100.15873 C 91.18017,100.2077 91.24664,100.23219 91.31317,100.23219 C 91.38077,100.23219 91.43556,100.20511 91.47755,100.15099 C 91.51953,100.09686 91.54612,100.01953 91.55734,99.918997 C 91.56739,99.82878 91.56283,99.759183 91.54361,99.710206 C 91.52492,99.661231 91.48126,99.617411 91.4126,99.578745 L 91.29983,99.514947 C 91.18655,99.453084 91.10955,99.354489 91.06885,99.219159 C 91.02868,99.083833 91.0214,98.901462 91.04698,98.672047 C 91.07905,98.384639 91.14232,98.163603 91.23683,98.008941 C 91.33134,97.854282 91.45102,97.776952 91.59588,97.77695 C 91.66187,97.776952 91.72837,97.789197 91.79538,97.813681 C 91.86254,97.836884 91.93075,97.872327 92,97.920011"
         style="font-size:3.37224936px;font-style:normal;font-variant:normal;font-weight:bold;font-stretch:normal;text-align:start;line-height:125%;writing-mode:lr-tb;text-anchor:start;fill:#00438a;fill-opacity:1;stroke:none;stroke-width:1px;stroke-linecap:butt;stroke-linejoin:miter;stroke-opacity:1;font-family:Bitstream Vera Sans" />
    </g>
    <rect
       transform="scale(1,-1)"
       ry="1.5119978"
       rx="1.6015977"
       y="-121.77199"
       x="34.924656"
       height="64.495941"
       width="58.207516"
       id="rect2886"
       style="opacity:1;fill:url(#linearGradient3011);fill-opacity:1;fill-rule:nonzero;stroke:none;stroke-width:0.04;stroke-linecap:round;stroke-linejoin:round;stroke-miterlimit:4;stroke-dasharray:none;stroke-dashoffset:4;stroke-opacity:1" />
    <rect
       ry="0"
       rx="0"
       y="12.435211"
       x="39.62431"
       height="109.03988"
       width="21.680555"
       id="rect2928"
       style="fill:url(#linearGradient3008);fill-opacity:1;fill-rule:nonzero;stroke:none;stroke-width:0.04;stroke-linecap:round;stroke-linejoin:round;stroke-miterlimit:4;stroke-dasharray:none;stroke-dashoffset:4;stroke-opacity:1" />
    <rect
       transform="scale(-1,1)"
       style="fill:url(#linearGradient3005);fill-opacity:1;fill-rule:nonzero;stroke:none;stroke-width:0.04;stroke-linecap:round;stroke-linejoin:round;stroke-miterlimit:4;stroke-dasharray:none;stroke-dashoffset:4;stroke-opacity:1"
       id="rect2930"
       width="3.4308002"
       height="109.03988"
       x="-39.62431"
       y="12.435211"
       rx="0"
       ry="0" />
    <rect
       style="opacity:0.52459011;fill:url(#radialGradient3146);fill-opacity:1;fill-rule:nonzero;stroke:none;stroke-width:0.04;stroke-linecap:round;stroke-linejoin:round;stroke-miterlimit:4;stroke-dasharray:none;stroke-dashoffset:4;stroke-opacity:1"
       id="rect3136"
       width="58.207516"
       height="64.495941"
       x="34.924656"
       y="-121.77199"
       rx="1.6015977"
       ry="1.5119978"
       transform="scale(1,-1)" />
    <path
       style="font-size:30.7476635px;font-style:normal;font-variant:normal;font-weight:normal;font-stretch:normal;text-align:start;line-height:125%;writing-mode:lr-tb;text-anchor:start;fill:#babdb6;fill-opacity:1;stroke:none;stroke-width:1px;stroke-linecap:butt;stroke-linejoin:miter;stroke-opacity:1;font-family:Bitstream Vera Sans"
       d="M 62.34375,22.501274 L 62.34375,31.168623 L 54,31.168623 L 54,33.84868 L 62.34375,33.84868 L 62.34375,42.516029 L 64.875,42.516029 L 64.875,33.84868 L 73.25,33.84868 L 73.25,31.168623 L 64.875,31.168623 L 64.875,22.501274 L 62.34375,22.501274 z M 54,111.79529 L 54,114.47535 L 73.25,114.47535 L 73.25,111.79529 L 54,111.79529 z "
       id="text2857"
       sodipodi:nodetypes="cccccccccccccccccc" />
    <path
       style="opacity:1;fill:url(#linearGradient2909);fill-opacity:1;fill-rule:nonzero;stroke:none;stroke-width:0.04;stroke-linecap:round;stroke-linejoin:round;stroke-miterlimit:4;stroke-dasharray:none;stroke-dashoffset:4;stroke-opacity:1"
       d="M 38.926339,13.999146 C 38.372094,13.999146 38.016845,14.567871 38.016845,15.154699 L 38.016845,18.428768 C 49.605628,38.156201 73.368026,27.290237 89.676098,23.82135 L 89.676098,15.154699 C 89.676098,14.567871 89.320852,13.999146 88.766605,13.999146 L 38.926339,13.999146 z "
       id="rect2885"
       sodipodi:nodetypes="ccccccc" />
    <rect
       style="opacity:1;fill:url(#linearGradient2925);fill-opacity:1;fill-rule:nonzero;stroke:none;stroke-width:0.04;stroke-linecap:round;stroke-linejoin:round;stroke-miterlimit:4;stroke-dasharray:none;stroke-dashoffset:4;stroke-opacity:1"
       id="rect2917"
       width="4.6566262"
       height="106.88869"
       x="87.311417"
       y="12.843593" />
    <path
       sodipodi:type="arc"
       style="opacity:1;fill:url(#radialGradient3838);fill-opacity:1;fill-rule:nonzero;stroke:none;stroke-width:0.04;stroke-linecap:round;stroke-linejoin:round;stroke-miterlimit:4;stroke-dasharray:none;stroke-dashoffset:4;stroke-opacity:1"
       id="path3830"
       sodipodi:cx="12.308078"
       sodipodi:cy="3.0406995"
       sodipodi:rx="2.9831069"
       sodipodi:ry="0.088388346"
       d="M 15.291185 3.0406995 A 2.9831069 0.088388346 0 1 1  9.324971,3.0406995 A 2.9831069 0.088388346 0 1 1  15.291185 3.0406995 z"
       transform="matrix(5.820761,0,0,6.162951,-1.467542,-6.603207)" />
    <path
       transform="matrix(3.47564,0,0,6.162951,19.9766,-17.09948)"
       d="M 15.291185 3.0406995 A 2.9831069 0.088388346 0 1 1  9.324971,3.0406995 A 2.9831069 0.088388346 0 1 1  15.291185 3.0406995 z"
       sodipodi:ry="0.088388346"
       sodipodi:rx="2.9831069"
       sodipodi:cy="3.0406995"
       sodipodi:cx="12.308078"
       id="path3840"
       style="opacity:1;fill:url(#radialGradient3842);fill-opacity:1;fill-rule:nonzero;stroke:none;stroke-width:0.04;stroke-linecap:round;stroke-linejoin:round;stroke-miterlimit:4;stroke-dasharray:none;stroke-dashoffset:4;stroke-opacity:1"
       sodipodi:type="arc" />
    <path
       transform="matrix(-1,0,0,-1,127.25,24.4375)"
       style="fill:url(#linearGradient2858);fill-opacity:1;fill-rule:nonzero;stroke:none;stroke-width:0.04;stroke-linecap:round;stroke-linejoin:round;stroke-miterlimit:4;stroke-dashoffset:4;stroke-opacity:1"
       d="M 76.5,13.037498 C 76.5,14.313998 74.732,15.249998 67.625,15.249998 C 60.518,15.249998 50.75,14.313998 50.75,13.037498 C 50.75,13.037498 50.75,13.037498 50.75,13.037498 L 63.625,13.037498 L 76.5,13.037498 z "
       id="path2850"
       sodipodi:nodetypes="cscccc" />
  </g>
</svg>
