<?xml version="1.0" encoding="UTF-8" standalone="no"?>
<!-- Generator: Adobe Illustrator 12.0.0, SVG Export Plug-In . SVG Version: 6.00 Build 51448)  -->
<svg
   xmlns:ns="http://ns.adobe.com/SaveForWeb/1.0/"
   xmlns:a="http://ns.adobe.com/AdobeSVGViewerExtensions/3.0/"
   xmlns:dc="http://purl.org/dc/elements/1.1/"
   xmlns:cc="http://web.resource.org/cc/"
   xmlns:rdf="http://www.w3.org/1999/02/22-rdf-syntax-ns#"
   xmlns:svg="http://www.w3.org/2000/svg"
   xmlns="http://www.w3.org/2000/svg"
   xmlns:xlink="http://www.w3.org/1999/xlink"
   xmlns:sodipodi="http://sodipodi.sourceforge.net/DTD/sodipodi-0.dtd"
   xmlns:inkscape="http://www.inkscape.org/namespaces/inkscape"
   version="1.0"
   id="Layer_1"
   width="128"
   height="128"
   viewBox="0 0 109.547 119"
   overflow="visible"
   enable-background="new 0 0 109.547 119"
   xml:space="preserve"
   sodipodi:version="0.32"
   inkscape:version="0.44"
   sodipodi:docname="bell.svg"
   sodipodi:docbase="/home/pinheiro/artwork/Oxygen/theme/svg/actions"><defs
   id="defs155"><linearGradient
   id="linearGradient2933"><stop
     style="stop-color:#d0d0d0;stop-opacity:1;"
     offset="0"
     id="stop2935" /><stop
     style="stop-color:#636363;stop-opacity:0;"
     offset="1"
     id="stop2937" /></linearGradient><linearGradient
   inkscape:collect="always"
   id="linearGradient4852"><stop
     style="stop-color:white;stop-opacity:1;"
     offset="0"
     id="stop4854" /><stop
     style="stop-color:white;stop-opacity:0;"
     offset="1"
     id="stop4856" /></linearGradient><radialGradient
   gradientTransform="matrix(0.2737,0,0,-1.859374e-2,-172.8686,-12.33444)"
   gradientUnits="userSpaceOnUse"
   id="path2295_1_"
   fy="-6071.0229"
   fx="267.36481"
   r="253.01871"
   cy="-6078.353"
   cx="265.3931">
				<stop
   id="stop8"
   offset="0"
   style="stop-color:#000000;stop-opacity:1" />
				<stop
   id="stop10"
   offset="1"
   style="stop-color:#ffffff;stop-opacity:1" />
				<a:midPointStop
   offset="0"
   style="stop-color:#000000" />
				<a:midPointStop
   offset="0.5"
   style="stop-color:#000000" />
				<a:midPointStop
   offset="1"
   style="stop-color:#FFFFFF" />
			</radialGradient>
	
		<linearGradient
   gradientTransform="matrix(0.93352,0,0,0.9375,-448.183,-628.1562)"
   y2="678.3681"
   x2="538.77338"
   y1="674"
   x1="538.77338"
   gradientUnits="userSpaceOnUse"
   id="XMLID_10_">
		<stop
   id="stop54"
   style="stop-color:#094422"
   offset="0" />
		<stop
   id="stop56"
   style="stop-color:#9ED676"
   offset="1" />
	</linearGradient>
	
	
		<linearGradient
   gradientTransform="matrix(1.064774,0,0,1.069314,-673.9037,-766.1109)"
   y2="736.55688"
   x2="579.72852"
   y1="732.41022"
   x1="579.72852"
   gradientUnits="userSpaceOnUse"
   id="XMLID_11_">
		<stop
   id="stop61"
   style="stop-color:#094422"
   offset="0" />
		<stop
   id="stop63"
   style="stop-color:#9ED676"
   offset="1" />
	</linearGradient>
	
	
		<linearGradient
   gradientTransform="matrix(1.064774,0,0,1.069314,-673.9037,-766.1109)"
   y2="736.62341"
   x2="497.81451"
   y1="732.4082"
   x1="497.81451"
   gradientUnits="userSpaceOnUse"
   id="XMLID_12_">
		<stop
   id="stop68"
   style="stop-color:#094422"
   offset="0" />
		<stop
   id="stop70"
   style="stop-color:#9ED676"
   offset="1" />
	</linearGradient>
	
<radialGradient
   gradientUnits="userSpaceOnUse"
   gradientTransform="matrix(1,0,0,0.197802,0,92.82166)"
   r="63.912209"
   fy="115.7093"
   fx="63.912209"
   cy="115.70919"
   cx="63.912209"
   id="radialGradient3297"
   xlink:href="#linearGradient3291"
   inkscape:collect="always" /><linearGradient
   id="linearGradient3225"><stop
     id="stop3227"
     offset="0"
     style="stop-color:white;stop-opacity:1;" /><stop
     style="stop-color:#e8e8e8;stop-opacity:1;"
     offset="0.5"
     id="stop4846" /><stop
     id="stop3229"
     offset="1"
     style="stop-color:#aeaeae;stop-opacity:1;" /></linearGradient><linearGradient
   id="linearGradient3291"
   inkscape:collect="always"><stop
     id="stop3293"
     offset="0"
     style="stop-color:#000000;stop-opacity:1;" /><stop
     id="stop3295"
     offset="1"
     style="stop-color:#000000;stop-opacity:0;" /></linearGradient><linearGradient
   id="linearGradient2911"><stop
     id="stop2913"
     offset="0"
     style="stop-color:white;stop-opacity:1;" /><stop
     style="stop-color:white;stop-opacity:0.50541514;"
     offset="0.15384616"
     id="stop2923" /><stop
     style="stop-color:white;stop-opacity:0.37184116;"
     offset="0.5"
     id="stop2921" /><stop
     id="stop2915"
     offset="1"
     style="stop-color:white;stop-opacity:0;" /></linearGradient><linearGradient
   id="linearGradient2938"
   inkscape:collect="always"><stop
     id="stop2940"
     offset="0"
     style="stop-color:#d1d1d1;stop-opacity:1;" /><stop
     id="stop2942"
     offset="1"
     style="stop-color:#d1d1d1;stop-opacity:0;" /></linearGradient><linearGradient
   id="linearGradient2964"
   inkscape:collect="always"><stop
     id="stop2966"
     offset="0"
     style="stop-color:white;stop-opacity:1;" /><stop
     id="stop2968"
     offset="1"
     style="stop-color:white;stop-opacity:0;" /></linearGradient><linearGradient
   id="linearGradient3001"><stop
     style="stop-color:white;stop-opacity:0;"
     offset="0"
     id="stop3003" /><stop
     id="stop3009"
     offset="0.67582417"
     style="stop-color:#7f7f7f;stop-opacity:0;" /><stop
     style="stop-color:black;stop-opacity:1;"
     offset="1"
     id="stop3005" /></linearGradient><linearGradient
   id="linearGradient3017"
   inkscape:collect="always"><stop
     id="stop3019"
     offset="0"
     style="stop-color:white;stop-opacity:1;" /><stop
     id="stop3021"
     offset="1"
     style="stop-color:white;stop-opacity:0;" /></linearGradient><linearGradient
   id="linearGradient3098"
   inkscape:collect="always"><stop
     id="stop3100"
     offset="0"
     style="stop-color:#282828;stop-opacity:1;" /><stop
     id="stop3102"
     offset="1"
     style="stop-color:#282828;stop-opacity:0;" /></linearGradient><linearGradient
   id="linearGradient3115"
   inkscape:collect="always"><stop
     id="stop3117"
     offset="0"
     style="stop-color:#282828;stop-opacity:1;" /><stop
     id="stop3119"
     offset="1"
     style="stop-color:#282828;stop-opacity:0;" /></linearGradient><linearGradient
   id="linearGradient3171"><stop
     id="stop3173"
     offset="0"
     style="stop-color:#2b2b2b;stop-opacity:1;" /><stop
     id="stop3175"
     offset="1"
     style="stop-color:black;stop-opacity:1;" /></linearGradient><linearGradient
   id="linearGradient2885"><stop
     id="stop2887"
     offset="0"
     style="stop-color:#28cf13;stop-opacity:1;" /><stop
     id="stop2889"
     offset="1"
     style="stop-color:#2ccf13;stop-opacity:0;" /></linearGradient><radialGradient
   inkscape:collect="always"
   xlink:href="#linearGradient3115"
   id="radialGradient3841"
   gradientUnits="userSpaceOnUse"
   gradientTransform="matrix(1.039273,0,0,0.200429,-9.286467,51.72552)"
   cx="79.215528"
   cy="86.08176"
   fx="79.215528"
   fy="86.08176"
   r="25.467844" /><linearGradient
   inkscape:collect="always"
   xlink:href="#linearGradient3098"
   id="linearGradient3853"
   gradientUnits="userSpaceOnUse"
   gradientTransform="matrix(0.807205,0,0,0.627643,4.391099,-2.828608)"
   x1="57.317684"
   y1="52.326759"
   x2="59.424088"
   y2="52.326759" /><linearGradient
   inkscape:collect="always"
   xlink:href="#linearGradient3098"
   id="linearGradient3856"
   gradientUnits="userSpaceOnUse"
   gradientTransform="matrix(0.807205,0,0,0.627643,4.391099,-2.828608)"
   x1="62.179413"
   y1="43.047058"
   x2="62.179413"
   y2="52.258823" /><linearGradient
   inkscape:collect="always"
   xlink:href="#linearGradient3098"
   id="linearGradient3860"
   gradientUnits="userSpaceOnUse"
   gradientTransform="matrix(0.807205,0,-0.296934,-0.714359,20.36442,71.6895)"
   x1="62.508877"
   y1="57.376545"
   x2="70.142273"
   y2="30.846529" /><radialGradient
   inkscape:collect="always"
   xlink:href="#linearGradient3225"
   id="radialGradient3904"
   gradientUnits="userSpaceOnUse"
   gradientTransform="matrix(1,0,0,0.484285,-246.0732,49.37548)"
   cx="187.24454"
   cy="61.146954"
   fx="187.24454"
   fy="61.146954"
   r="54.829174" /><radialGradient
   inkscape:collect="always"
   xlink:href="#linearGradient3001"
   id="radialGradient3906"
   gradientUnits="userSpaceOnUse"
   gradientTransform="matrix(1.085181,-3.733736e-2,2.828132e-2,0.821975,-262.3779,34.39202)"
   cx="192.72668"
   cy="55.537872"
   fx="192.72668"
   fy="78.644714"
   r="54.829174" /><radialGradient
   inkscape:collect="always"
   xlink:href="#linearGradient3001"
   id="radialGradient3908"
   gradientUnits="userSpaceOnUse"
   gradientTransform="matrix(1.270715,2.554783e-7,-1.070124e-7,0.532265,-296.2088,41.90812)"
   cx="186.80836"
   cy="37.935295"
   fx="186.80836"
   fy="61.042164"
   r="54.829174" /><linearGradient
   inkscape:collect="always"
   xlink:href="#linearGradient2964"
   id="linearGradient3910"
   gradientUnits="userSpaceOnUse"
   gradientTransform="translate(-246.0732,35.82536)"
   x1="138.87874"
   y1="11.188437"
   x2="171.31325"
   y2="32.21191" /><linearGradient
   inkscape:collect="always"
   xlink:href="#linearGradient2964"
   id="linearGradient3912"
   gradientUnits="userSpaceOnUse"
   gradientTransform="translate(-246.0732,35.82536)"
   x1="107.87319"
   y1="-19.988091"
   x2="171.31325"
   y2="32.21191" /><linearGradient
   inkscape:collect="always"
   xlink:href="#linearGradient2964"
   id="linearGradient3914"
   gradientUnits="userSpaceOnUse"
   gradientTransform="translate(-246.0732,35.82536)"
   x1="152.70868"
   y1="10.61757"
   x2="159.03088"
   y2="15.735216" /><radialGradient
   inkscape:collect="always"
   xlink:href="#linearGradient3017"
   id="radialGradient3916"
   gradientUnits="userSpaceOnUse"
   gradientTransform="matrix(1,0,0,0.120267,-246.0732,58.93986)"
   cx="187.24454"
   cy="-194.50902"
   fx="187.24454"
   fy="-194.50902"
   r="54.829175" /><linearGradient
   inkscape:collect="always"
   xlink:href="#linearGradient3171"
   id="linearGradient3932"
   gradientUnits="userSpaceOnUse"
   x1="-59.104649"
   y1="85.751129"
   x2="-59.104649"
   y2="91.598488" /><radialGradient
   inkscape:collect="always"
   xlink:href="#linearGradient2911"
   id="radialGradient3934"
   gradientUnits="userSpaceOnUse"
   gradientTransform="matrix(0.580608,0.155573,-0.108849,0.406231,-116.3609,67.07435)"
   cx="-10.33372"
   cy="88.294983"
   fx="11.760489"
   fy="79.203735"
   r="64.140811" /><linearGradient
   inkscape:collect="always"
   xlink:href="#linearGradient2938"
   id="linearGradient3936"
   gradientUnits="userSpaceOnUse"
   gradientTransform="translate(-130.6359,0)"
   x1="-2.6522288"
   y1="85.824081"
   x2="40.627037"
   y2="96.443199" /><radialGradient
   inkscape:collect="always"
   xlink:href="#linearGradient3017"
   id="radialGradient3938"
   gradientUnits="userSpaceOnUse"
   gradientTransform="matrix(6.035355e-2,1.237781e-2,-0.153592,0.462273,0.901225,66.91836)"
   cx="-574.94067"
   cy="110.82843"
   fx="-574.94067"
   fy="110.82843"
   r="64.156357" /><radialGradient
   inkscape:collect="always"
   xlink:href="#linearGradient3017"
   id="radialGradient4826"
   gradientUnits="userSpaceOnUse"
   gradientTransform="matrix(0.902338,0,0,0.108521,-114.1502,54.66058)"
   cx="187.24454"
   cy="-194.50902"
   fx="187.24454"
   fy="-194.50902"
   r="54.829175" /><linearGradient
   inkscape:collect="always"
   xlink:href="#linearGradient2964"
   id="linearGradient4829"
   gradientUnits="userSpaceOnUse"
   gradientTransform="matrix(0.916387,0,0,0.916387,-116.7811,33.34235)"
   x1="152.70868"
   y1="10.61757"
   x2="159.03088"
   y2="15.735216" /><linearGradient
   inkscape:collect="always"
   xlink:href="#linearGradient2964"
   id="linearGradient4832"
   gradientUnits="userSpaceOnUse"
   gradientTransform="matrix(0.916387,0,0,0.916387,-116.7811,33.34235)"
   x1="107.87319"
   y1="-19.988091"
   x2="171.31325"
   y2="32.21191" /><linearGradient
   inkscape:collect="always"
   xlink:href="#linearGradient2964"
   id="linearGradient4835"
   gradientUnits="userSpaceOnUse"
   gradientTransform="matrix(0.916387,0,0,0.916387,-116.7811,33.34235)"
   x1="138.87874"
   y1="11.188437"
   x2="171.31325"
   y2="32.21191" /><radialGradient
   inkscape:collect="always"
   xlink:href="#linearGradient3001"
   id="radialGradient4838"
   gradientUnits="userSpaceOnUse"
   gradientTransform="matrix(1.386001,-1.101258e-2,3.814922e-3,0.480132,-204.3826,41.37842)"
   cx="186.8083"
   cy="32.903229"
   fx="186.8083"
   fy="56.010098"
   r="54.829174" /><radialGradient
   inkscape:collect="always"
   xlink:href="#linearGradient3001"
   id="radialGradient4841"
   gradientUnits="userSpaceOnUse"
   gradientTransform="matrix(0.995034,3.794303e-8,-4.55084e-8,0.834761,-130.4697,21.25279)"
   cx="189.53003"
   cy="52.643681"
   fx="189.53003"
   fy="75.750496"
   r="54.829174" /><radialGradient
   inkscape:collect="always"
   xlink:href="#linearGradient3225"
   id="radialGradient4844"
   gradientUnits="userSpaceOnUse"
   gradientTransform="matrix(0.916387,0,0,0.79987,-116.7811,23.98645)"
   cx="187.24454"
   cy="61.146954"
   fx="187.24454"
   fy="61.146954"
   r="54.829174" /><linearGradient
   inkscape:collect="always"
   xlink:href="#linearGradient4852"
   id="linearGradient4858"
   x1="60.638329"
   y1="125.98119"
   x2="78.452301"
   y2="87.570221"
   gradientUnits="userSpaceOnUse" /><linearGradient
   inkscape:collect="always"
   xlink:href="#linearGradient4852"
   id="linearGradient4862"
   gradientUnits="userSpaceOnUse"
   x1="60.638329"
   y1="125.98119"
   x2="74.824165"
   y2="90.81234" /><linearGradient
   inkscape:collect="always"
   xlink:href="#linearGradient4852"
   id="linearGradient4866"
   gradientUnits="userSpaceOnUse"
   x1="60.638329"
   y1="125.98119"
   x2="71.268295"
   y2="94.36821" /><linearGradient
   inkscape:collect="always"
   xlink:href="#linearGradient4852"
   id="linearGradient4870"
   gradientUnits="userSpaceOnUse"
   x1="60.638329"
   y1="125.98119"
   x2="68.653679"
   y2="95.727806" /><radialGradient
   inkscape:collect="always"
   xlink:href="#linearGradient2933"
   id="radialGradient2939"
   cx="-20.718805"
   cy="125.06297"
   fx="-51.515453"
   fy="111.10216"
   r="54.031599"
   gradientTransform="matrix(1.061831,-8.499287e-7,1.96686e-7,0.245723,75.03782,51.4067)"
   gradientUnits="userSpaceOnUse" /></defs><sodipodi:namedview
   inkscape:window-height="654"
   inkscape:window-width="1124"
   inkscape:pageshadow="2"
   inkscape:pageopacity="0.0"
   borderopacity="1.0"
   bordercolor="#666666"
   pagecolor="#ffffff"
   id="base"
   inkscape:showpageshadow="false"
   inkscape:zoom="4.4446712"
   inkscape:cx="102.18138"
   inkscape:cy="29.439195"
   inkscape:window-x="75"
   inkscape:window-y="233"
   inkscape:current-layer="Layer_1"
   showguides="true"
   inkscape:guide-bbox="true" />
<metadata
   id="metadata3">
	<ns:sfw>
		<ns:slices />
		<ns:sliceSourceBounds
   x="0"
   y="0"
   height="128"
   width="128"
   bottomLeftOrigin="true" />
	</ns:sfw>
<rdf:RDF><cc:Work
     rdf:about=""><dc:format>image/svg+xml</dc:format><dc:type
       rdf:resource="http://purl.org/dc/dcmitype/StillImage" /></cc:Work></rdf:RDF></metadata>

<linearGradient
   id="XMLID_9_"
   gradientUnits="userSpaceOnUse"
   x1="538.77338"
   y1="793"
   x2="538.77338"
   y2="674"
   gradientTransform="translate(-484,-674)">
	<stop
   offset="0"
   style="stop-color:#094422"
   id="stop7" />
	<stop
   offset="0.1124"
   style="stop-color:#095A22"
   id="stop9" />
	<stop
   offset="0.4045"
   style="stop-color:#1E7D27"
   id="stop11" />
	<stop
   offset="0.4231"
   style="stop-color:#217F29"
   id="stop13" />
	<stop
   offset="0.4369"
   style="stop-color:#2A8531"
   id="stop15" />
	<stop
   offset="0.4491"
   style="stop-color:#3A8F3D"
   id="stop17" />
	<stop
   offset="0.4605"
   style="stop-color:#519D4E"
   id="stop19" />
	<stop
   offset="0.4712"
   style="stop-color:#6EAF64"
   id="stop21" />
	<stop
   offset="0.4814"
   style="stop-color:#92C680"
   id="stop23" />
	<stop
   offset="0.4911"
   style="stop-color:#BCE0A0"
   id="stop25" />
	<stop
   offset="0.4944"
   style="stop-color:#CCEAAC"
   id="stop27" />
	<stop
   offset="0.5124"
   style="stop-color:#A4CD90"
   id="stop29" />
	<stop
   offset="0.5326"
   style="stop-color:#80B276"
   id="stop31" />
	<stop
   offset="0.5552"
   style="stop-color:#609A5F"
   id="stop33" />
	<stop
   offset="0.5803"
   style="stop-color:#44864C"
   id="stop35" />
	<stop
   offset="0.6086"
   style="stop-color:#2E763C"
   id="stop37" />
	<stop
   offset="0.6416"
   style="stop-color:#1D6931"
   id="stop39" />
	<stop
   offset="0.6825"
   style="stop-color:#126028"
   id="stop41" />
	<stop
   offset="0.7398"
   style="stop-color:#0B5B23"
   id="stop43" />
	<stop
   offset="0.8989"
   style="stop-color:#095A22"
   id="stop45" />
	<stop
   offset="1"
   style="stop-color:#9ED676"
   id="stop47" />
</linearGradient>






<radialGradient
   id="XMLID_13_"
   cx="538.77252"
   cy="792.99609"
   r="121.5466"
   gradientTransform="translate(-484,-674)"
   gradientUnits="userSpaceOnUse">
	<stop
   offset="0"
   style="stop-color:#FFFAB3"
   id="stop83" />
	<stop
   offset="0.0494"
   style="stop-color:#DFEE9F"
   id="stop85" />
	<stop
   offset="0.1049"
   style="stop-color:#C3E48D"
   id="stop87" />
	<stop
   offset="0.1605"
   style="stop-color:#AEDC80"
   id="stop89" />
	<stop
   offset="0.2156"
   style="stop-color:#A2D879"
   id="stop91" />
	<stop
   offset="0.2697"
   style="stop-color:#9ED676"
   id="stop93" />
	<stop
   offset="0.3989"
   style="stop-color:#3BA42A"
   id="stop95" />
	<stop
   offset="0.3995"
   style="stop-color:#3BA42A"
   id="stop97" />
	<stop
   offset="0.4484"
   style="stop-color:#258426"
   id="stop99" />
	<stop
   offset="0.4956"
   style="stop-color:#166D24"
   id="stop101" />
	<stop
   offset="0.54"
   style="stop-color:#0C5F23"
   id="stop103" />
	<stop
   offset="0.5787"
   style="stop-color:#095A22"
   id="stop105" />
	<stop
   offset="0.5948"
   style="stop-color:#166727"
   id="stop107" />
	<stop
   offset="0.6456"
   style="stop-color:#388B33"
   id="stop109" />
	<stop
   offset="0.6932"
   style="stop-color:#51A53C"
   id="stop111" />
	<stop
   offset="0.7359"
   style="stop-color:#61B542"
   id="stop113" />
	<stop
   offset="0.7697"
   style="stop-color:#66BA44"
   id="stop115" />
	<stop
   offset="1"
   style="stop-color:#095A22"
   id="stop117" />
</radialGradient>

<linearGradient
   id="XMLID_14_"
   gradientUnits="userSpaceOnUse"
   x1="538.77338"
   y1="677.87701"
   x2="538.77338"
   y2="789.12207"
   gradientTransform="translate(-484,-674)">
	<stop
   offset="0.0056"
   style="stop-color:#1E7D27"
   id="stop122" />
	<stop
   offset="0.1348"
   style="stop-color:#3BA42A"
   id="stop124" />
	<stop
   offset="0.4831"
   style="stop-color:#B8E57F"
   id="stop126" />
	<stop
   offset="0.6299"
   style="stop-color:#A9E66E"
   id="stop128" />
	<stop
   offset="0.8528"
   style="stop-color:#97E859"
   id="stop130" />
	<stop
   offset="1"
   style="stop-color:#91E851"
   id="stop132" />
</linearGradient>

<radialGradient
   id="XMLID_15_"
   cx="538.77338"
   cy="651.10352"
   r="126.0234"
   gradientTransform="translate(-484,-674)"
   gradientUnits="userSpaceOnUse">
	<stop
   offset="0"
   style="stop-color:#CCEAAC"
   id="stop137" />
	<stop
   offset="0.5393"
   style="stop-color:#3BA42A"
   id="stop139" />
	<stop
   offset="1"
   style="stop-color:#91E851"
   id="stop141" />
</radialGradient>

<linearGradient
   id="XMLID_16_"
   gradientUnits="userSpaceOnUse"
   x1="538.77338"
   y1="675.48541"
   x2="538.77338"
   y2="677.06049"
   gradientTransform="translate(-484,-674)">
	<stop
   offset="0"
   style="stop-color:#FFFFFF"
   id="stop146" />
	<stop
   offset="1"
   style="stop-color:#00BF00"
   id="stop148" />
</linearGradient>


<path
   sodipodi:nodetypes="ccc"
   id="path2276"
   d="M 42.615699,-0.84844335 L 42.615699,-3.4491264 L 42.615699,-0.84844335 z "
   style="fill:white;fill-opacity:0.75688076;fill-rule:nonzero;stroke:none;stroke-width:0.5;stroke-linecap:round;stroke-linejoin:round;stroke-miterlimit:4;stroke-dasharray:none;stroke-dashoffset:4;stroke-opacity:1" /><path
   sodipodi:type="arc"
   style="opacity:0.38139535;fill:url(#radialGradient3297);fill-opacity:1;fill-rule:nonzero;stroke:none;stroke-width:0;stroke-linecap:round;stroke-linejoin:round;stroke-miterlimit:4;stroke-dasharray:none;stroke-dashoffset:4;stroke-opacity:1"
   id="path3289"
   sodipodi:cx="63.912209"
   sodipodi:cy="115.70919"
   sodipodi:rx="63.912209"
   sodipodi:ry="12.641975"
   d="M 127.82442 115.70919 A 63.912209 12.641975 0 1 1  0,115.70919 A 63.912209 12.641975 0 1 1  127.82442 115.70919 z"
   transform="matrix(0.930574,0,0,0.387739,-4.743817,69.32127)" /><g
   id="g3042"
   transform="matrix(0.916387,0,0,1.136313,108.9701,-15.95981)"><path
     style="fill:url(#linearGradient3932);fill-opacity:1;fill-rule:nonzero;stroke:none;stroke-width:0.1;stroke-linecap:round;stroke-linejoin:round;stroke-miterlimit:4;stroke-dashoffset:4;stroke-opacity:1"
     d="M -113.7609,85.109336 L -123.92697,97.412497 L -124.04215,104.20309 C -102.6318,109.17184 -84.078115,110.18768 -59.385898,110.20309 C -59.193503,110.20321 -59.016547,110.20309 -58.823398,110.20309 C -34.131184,110.18768 -15.878742,108.99021 5.5316081,104.02146 L 5.8328525,97.940427 L 5.6243786,97.110184 L -4.4171475,85.109336 C -13.699949,79.765683 -100.47398,78.494114 -113.7609,85.109336 z "
     id="path3027"
     sodipodi:nodetypes="cccssccccc" /><path
     sodipodi:nodetypes="ccccsssccccssc"
     id="rect1979"
     d="M -113.7609,85.109336 L -123.92408,97.218661 C -124.01041,97.305781 -124.03704,97.414731 -124.04215,97.532861 L -124.04215,104.20309 C -102.6318,109.17184 -84.078115,110.18768 -59.385898,110.20309 C -59.193503,110.20321 -59.016547,110.20309 -58.823398,110.20309 C -34.260109,110.18776 -15.771413,109.18242 5.4977168,104.2806 C 5.6461947,104.24638 5.8318922,104.11323 5.8328525,103.96974 L 5.8328525,97.674623 C 5.8230775,97.483507 5.7657739,97.310214 5.6614909,97.154538 L -4.4171475,85.109336 C -22.440068,89.29196 -38.069104,90.158868 -58.854648,90.171836 C -59.017238,90.171836 -59.16144,90.171939 -59.323398,90.171836 C -80.108941,90.158866 -95.737982,89.291959 -113.7609,85.109336 z "
     style="fill:black;fill-opacity:1;fill-rule:nonzero;stroke:none;stroke-width:0.1;stroke-linecap:round;stroke-linejoin:round;stroke-miterlimit:4;stroke-dashoffset:4;stroke-opacity:1" /><path
     sodipodi:nodetypes="csscscssscc"
     id="path2879"
     d="M 5.9330934,97.237018 C -15.477257,102.20577 -34.030943,103.22161 -58.723157,103.23702 C -58.916306,103.23702 -59.093262,103.23714 -59.285657,103.23702 C -82.544016,103.2225 -100.37127,102.30669 -120.25441,98.049518 C -120.81969,97.966531 -121.35663,98.149962 -121.75036,98.54143 C -122.77149,99.556684 -122.24907,102.51153 -122.22316,104.36202 C -101.53602,108.99035 -83.309853,109.97203 -59.285657,109.98702 C -59.093262,109.98714 -58.916306,109.98702 -58.723157,109.98702 C -34.230789,109.97173 -15.777987,108.97215 5.4137979,104.10689 L 5.9330934,103.78255 L 5.9330934,97.237018 z "
     style="opacity:0.81557378;fill:url(#radialGradient3934);fill-opacity:1;fill-rule:nonzero;stroke:none;stroke-width:0.1;stroke-linecap:round;stroke-linejoin:round;stroke-miterlimit:4;stroke-dashoffset:4;stroke-opacity:1" /><path
     sodipodi:nodetypes="czccczz"
     id="path2927"
     d="M -112.32818,87.940441 C -114.95379,90.080475 -115.90854,92.380314 -116.89399,94.414338 C -117.86695,96.422602 -120.41481,97.885331 -121.06467,98.296507 C -120.82674,98.226714 -120.61605,98.211625 -120.35465,98.25 C -107.44662,101.01373 -95.390742,102.35386 -82.167148,102.96875 C -71.812276,90.001641 -96.319653,89.161602 -100.64582,88.221691 C -105.0331,87.268505 -109.70256,85.800407 -112.32818,87.940441 z "
     style="fill:url(#linearGradient3936);fill-opacity:1;fill-rule:nonzero;stroke:none;stroke-width:0.1;stroke-linecap:round;stroke-linejoin:round;stroke-miterlimit:4;stroke-dashoffset:4;stroke-opacity:1" /><path
     style="opacity:0.69098361;fill:url(#radialGradient3938);fill-opacity:1;fill-rule:nonzero;stroke:none;stroke-width:0.1;stroke-linecap:round;stroke-linejoin:round;stroke-miterlimit:4;stroke-dashoffset:4;stroke-opacity:1"
     d="M 5.9330934,97.237018 C -11.088697,101.18731 -26.304885,102.63909 -44.235641,103.07602 C -46.591807,102.76976 -49.018518,102.51139 -51.712051,103.2017 C -53.996936,103.22465 -56.331246,103.23553 -58.723157,103.23702 C -58.916306,103.23702 -59.093262,103.23714 -59.285657,103.23702 C -82.544016,103.2225 -100.37127,102.30669 -120.25441,98.049518 C -120.81969,97.966531 -121.35663,98.149962 -121.75036,98.54143 C -122.77149,99.556684 -122.24907,102.51153 -122.22316,104.36202 C -101.53602,108.99035 -83.309853,109.97203 -59.285657,109.98702 C -59.093262,109.98714 -58.916306,109.98702 -58.723157,109.98702 C -34.230789,109.97173 -15.777987,108.97215 5.4137979,104.10689 L 5.9330934,103.78255 L 5.9330934,97.237018 z "
     id="path1994"
     sodipodi:nodetypes="cccsscscssscc" /></g><path
   style="fill:url(#radialGradient4844);fill-opacity:1;fill-rule:evenodd;stroke:none;stroke-width:0.09790357;stroke-linecap:butt;stroke-linejoin:miter;stroke-miterlimit:4;stroke-dasharray:none;stroke-opacity:1"
   d="M 53.18939,31.22903 C 25.427703,31.716868 12.15665,41.734733 9.9751903,63.42098 C 4.2392767,65.885814 4.6111282,69.921044 4.5626696,73.769042 C 19.206003,81.367261 33.009431,81.666679 53.647593,81.725005 L 53.647593,81.752454 C 54.055761,81.752454 54.41887,81.752983 54.821732,81.752454 C 55.214899,81.752956 55.569028,81.752454 55.967234,81.752454 L 55.967234,81.725005 C 76.605397,81.666679 90.408824,81.367261 105.05216,73.769042 C 105.00371,69.921044 105.4042,65.885814 99.668283,63.42098 C 97.474223,41.60955 84.028736,31.630978 55.938597,31.22903 C 55.022192,31.224008 54.105768,31.225218 53.18939,31.22903 z "
   id="path2949"
   sodipodi:nodetypes="cccccscccccc" /><path
   style="fill:url(#radialGradient4841);fill-opacity:1;fill-rule:evenodd;stroke:none;stroke-width:0.09790357;stroke-linecap:butt;stroke-linejoin:miter;stroke-miterlimit:4;stroke-dasharray:none;stroke-opacity:1"
   d="M 53.189392,31.22903 C 25.427703,31.716868 12.15665,41.734733 9.9751902,63.42098 C 4.2392772,65.885814 4.6111282,69.921044 4.5626692,73.769042 C 19.206003,81.367261 33.009432,81.666679 53.647592,81.725005 L 53.647592,81.752454 C 54.055762,81.752454 54.418872,81.752983 54.821732,81.752454 C 55.214902,81.752956 55.569032,81.752454 55.967232,81.752454 L 55.967232,81.725005 C 76.605392,81.666679 90.408822,81.367261 105.05216,73.769042 C 105.00371,69.921044 105.4042,65.885814 99.668282,63.42098 C 97.474222,41.60955 84.028732,31.630978 55.938592,31.22903 C 55.022192,31.224008 54.105772,31.225218 53.189392,31.22903 z "
   id="path3011"
   sodipodi:nodetypes="cccccscccccc" /><path
   sodipodi:nodetypes="cccccscccccc"
   id="path2999"
   d="M 53.041482,31.229031 C 25.279798,31.716869 12.008745,41.734733 9.8272852,63.42098 C 4.0913722,65.885814 4.4632232,69.921044 4.4147652,73.769042 C 19.058098,81.367261 32.861522,82.583066 53.499692,82.641392 L 53.499692,82.668841 C 53.907852,82.668841 54.270962,82.66937 54.673832,82.668841 C 55.066992,82.669343 55.421122,82.668841 55.819332,82.668841 L 55.819332,82.641392 C 76.457492,82.583066 90.260922,81.367261 104.90425,73.769042 C 104.8558,69.921044 105.25629,65.885814 99.520382,63.42098 C 97.326322,41.60955 83.880832,31.630979 55.790692,31.229031 C 54.874292,31.224009 53.957862,31.225219 53.041482,31.229031 z "
   style="fill:url(#radialGradient4838);fill-opacity:1;fill-rule:evenodd;stroke:none;stroke-width:0.09790357;stroke-linecap:butt;stroke-linejoin:miter;stroke-miterlimit:4;stroke-dasharray:none;stroke-opacity:1" /><path
   style="fill:url(#linearGradient4835);fill-opacity:1;fill-rule:evenodd;stroke:none;stroke-width:1px;stroke-linecap:butt;stroke-linejoin:miter;stroke-opacity:1"
   d="M 59.161219,36.82934 C 46.29126,36.975943 18.890491,30.429005 12.773167,64.289954 C 12.743641,65.73146 17.254951,64.88603 17.580159,65.345147 C 17.905366,65.804263 18.490296,66.41679 17.814644,66.45896 C 15.705047,66.825657 8.7960843,65.602425 8.1420406,72.438386 C 8.0412197,74.052893 13.855787,76.194738 18.518108,77.010888 C 20.410026,77.459148 19.612375,72.946441 20.159513,70.914218 C 20.51837,69.953863 27.565405,69.292348 27.66311,68.569346 C 27.529583,67.661794 24.233733,66.354744 22.504392,65.286525 C 26.451161,40.363239 40.393008,38.115389 59.161219,36.82934 z "
   id="path2958"
   sodipodi:nodetypes="cczccccccc" /><path
   sodipodi:nodetypes="cczccccccc"
   id="path2960"
   d="M 59.436135,36.737701 C 47.035146,36.41533 18.615575,30.429005 12.498251,64.289954 C 12.468725,65.73146 16.980034,64.88603 17.305243,65.345147 C 17.63045,65.804263 18.21538,66.41679 17.539728,66.45896 C 15.430131,66.825657 8.5211682,65.602425 7.8671245,72.438386 C 7.7663036,74.052893 15.497201,76.546469 20.159513,77.362619 C 22.051431,77.810879 20.784819,73.53266 21.331957,71.500437 C 21.690805,70.540081 30.965466,69.409592 31.063171,68.68659 C 30.929645,67.779038 25.875147,66.471988 24.145797,65.403768 C 28.092575,40.480482 41.136895,39.665161 59.436135,36.737701 z "
   style="fill:url(#linearGradient4832);fill-opacity:1;fill-rule:evenodd;stroke:none;stroke-width:1px;stroke-linecap:butt;stroke-linejoin:miter;stroke-opacity:1" /><path
   style="fill:url(#linearGradient4829);fill-opacity:1;fill-rule:evenodd;stroke:none;stroke-width:1px;stroke-linecap:butt;stroke-linejoin:miter;stroke-opacity:1"
   d="M 59.436135,36.737701 C 48.442075,36.532573 18.432298,30.429005 12.314974,64.289954 C 12.285448,65.73146 16.796757,64.88603 17.121965,65.345147 C 17.447173,65.804263 18.032102,66.41679 17.35645,66.45896 C 15.246853,66.825657 8.3378908,65.602425 7.6838471,72.438386 C 7.5830262,74.052893 17.021363,77.249931 21.683685,78.066081 C 23.575602,78.514341 22.426224,74.236121 22.973362,72.203898 C 23.332219,71.243543 37.413871,69.292348 37.511576,68.569346 C 37.378049,67.661794 26.813088,67.175449 25.083746,66.10723 C 29.030524,41.183944 41.136895,39.665161 59.436135,36.737701 z "
   id="path2962"
   sodipodi:nodetypes="cczccccccc" /><path
   style="fill:url(#radialGradient4826);fill-opacity:1;fill-rule:evenodd;stroke:none;stroke-width:0.09790357;stroke-linecap:butt;stroke-linejoin:miter;stroke-miterlimit:4;stroke-dasharray:none;stroke-opacity:1"
   d="M 53.214416,31.722563 C 25.878341,32.202921 12.810748,42.067203 10.662728,63.42098 L 98.980743,63.42098 C 96.82032,41.943939 83.580966,32.118348 55.921475,31.722563 C 55.019118,31.717618 54.116745,31.71881 53.214416,31.722563 z "
   id="path3015"
   sodipodi:nodetypes="ccccc" /><path
   style="fill:url(#linearGradient3860);fill-opacity:1;fill-rule:nonzero;stroke:none;stroke-width:0.1;stroke-linecap:round;stroke-linejoin:round;stroke-miterlimit:4;stroke-dashoffset:4;stroke-opacity:1"
   d="M 68.874512,66.331372 L 78.493958,53.728872 C 73.275011,40.013551 65.562965,33.314477 58.388828,32.976636 L 50.539939,32.976636 C 52.696315,35.139209 68.874512,33.195876 68.874512,66.331372 z "
   id="rect3123"
   sodipodi:nodetypes="ccccc" /><path
   style="fill:#c1c1c1;fill-opacity:1;fill-rule:nonzero;stroke:none;stroke-width:0.1;stroke-linecap:round;stroke-linejoin:round;stroke-miterlimit:4;stroke-dashoffset:4;stroke-opacity:1"
   d="M 50.658234,24.189618 L 58.507123,24.189618 L 58.507123,33.183389 C 56.857703,34.062586 52.038686,34.238048 50.658234,33.183389 L 50.658234,24.189618 z "
   id="rect3106"
   sodipodi:nodetypes="ccccc" /><rect
   style="fill:url(#linearGradient3856);fill-opacity:1;fill-rule:nonzero;stroke:none;stroke-width:0.1;stroke-linecap:round;stroke-linejoin:round;stroke-miterlimit:4;stroke-dasharray:none;stroke-dashoffset:4;stroke-opacity:1"
   id="rect3096"
   width="7.8488889"
   height="8.9937696"
   x="50.658237"
   y="24.189619" /><path
   sodipodi:nodetypes="ccccc"
   id="rect3833"
   d="M 50.658238,24.189619 L 58.507127,24.189619 L 58.507127,33.183389 C 55.89083,33.183389 52.942587,34.776737 50.658238,33.183389 L 50.658238,24.189619 z "
   style="fill:url(#linearGradient3853);fill-opacity:1;fill-rule:nonzero;stroke:none;stroke-width:0.1;stroke-linecap:round;stroke-linejoin:round;stroke-miterlimit:4;stroke-dashoffset:4;stroke-opacity:1" /><g
   transform="matrix(0.15421,0,0,0.198796,63.93876,8.955461)"
   id="g3066"><path
     style="fill:url(#radialGradient3904);fill-opacity:1;fill-rule:evenodd;stroke:none;stroke-width:0.09790357;stroke-linecap:butt;stroke-linejoin:miter;stroke-miterlimit:4;stroke-dasharray:none;stroke-opacity:1"
     d="M -60.594279,35.550473 C -90.888999,36.082822 -105.37093,44.983476 -107.75143,68.64842 C -114.0107,71.338151 -113.60492,75.741563 -113.6578,79.94066 C -97.678379,88.232156 -82.615499,88.558894 -60.094269,88.622542 L -60.094269,88.652495 C -59.648859,88.652495 -59.252619,88.653072 -58.812999,88.652495 C -58.383959,88.653043 -57.997519,88.652495 -57.562979,88.652495 L -57.562979,88.622542 C -35.041749,88.558894 -19.978869,88.232156 -3.9994487,79.94066 C -4.0523187,75.741563 -3.6152887,71.338151 -9.8745587,68.64842 C -12.268809,44.846871 -26.941089,35.989095 -57.594229,35.550473 C -58.594249,35.544993 -59.594289,35.546313 -60.594279,35.550473 z "
     id="path3068"
     sodipodi:nodetypes="cccccscccccc" /><path
     style="fill:url(#radialGradient3906);fill-opacity:1;fill-rule:evenodd;stroke:none;stroke-width:0.09790357;stroke-linecap:butt;stroke-linejoin:miter;stroke-miterlimit:4;stroke-dasharray:none;stroke-opacity:1"
     d="M -60.594279,35.550473 C -90.888999,36.082822 -105.37093,44.983476 -107.75143,68.64842 C -114.0107,71.338151 -113.60492,75.741563 -113.6578,79.94066 C -97.678379,88.232156 -82.615499,88.558894 -60.094269,88.622542 L -60.094269,88.652495 C -59.648859,88.652495 -59.252619,88.653072 -58.812999,88.652495 C -58.383959,88.653043 -57.997519,88.652495 -57.562979,88.652495 L -57.562979,88.622542 C -35.041749,88.558894 -19.978869,88.232156 -3.9994487,79.94066 C -4.0523187,75.741563 -3.6152887,71.338151 -9.8745587,68.64842 C -12.268809,44.846871 -26.941089,35.989095 -57.594229,35.550473 C -58.594249,35.544993 -59.594289,35.546313 -60.594279,35.550473 z "
     id="path3070"
     sodipodi:nodetypes="cccccscccccc" /><path
     sodipodi:nodetypes="cccccscccccc"
     id="path3072"
     d="M -60.594279,35.550473 C -90.888999,36.082822 -105.37093,44.983476 -107.75143,68.64842 C -114.0107,71.338151 -113.60492,75.741563 -113.6578,79.94066 C -97.678379,88.232156 -82.615499,89.558894 -60.094269,89.622542 L -60.094269,89.652495 C -59.648859,89.652495 -59.252619,89.653072 -58.812999,89.652495 C -58.383959,89.653043 -57.997519,89.652495 -57.562979,89.652495 L -57.562979,89.622542 C -35.041749,89.558894 -19.978869,88.232156 -3.9994487,79.94066 C -4.0523187,75.741563 -3.6152887,71.338151 -9.8745587,68.64842 C -12.268809,44.846871 -26.941089,35.989095 -57.594229,35.550473 C -58.594249,35.544993 -59.594289,35.546313 -60.594279,35.550473 z "
     style="fill:url(#radialGradient3908);fill-opacity:1;fill-rule:evenodd;stroke:none;stroke-width:0.09790357;stroke-linecap:butt;stroke-linejoin:miter;stroke-miterlimit:4;stroke-dasharray:none;stroke-opacity:1" /><path
     style="fill:url(#linearGradient3910);fill-opacity:1;fill-rule:evenodd;stroke:none;stroke-width:1px;stroke-linecap:butt;stroke-linejoin:miter;stroke-opacity:1"
     d="M -54.077569,39.630505 C -68.121809,39.790485 -98.022679,32.646191 -104.69816,69.596681 C -104.73038,71.169713 -99.807449,70.247145 -99.452569,70.748152 C -99.097689,71.249159 -98.459389,71.917574 -99.196689,71.963592 C -101.49877,72.363747 -109.03812,71.028905 -109.75184,78.488593 C -109.86186,80.250411 -103.51676,82.587682 -98.429039,83.478299 C -96.364499,83.967459 -97.234929,79.043004 -96.637869,76.825357 C -96.246269,75.777377 -88.556249,75.055504 -88.449629,74.266534 C -88.595339,73.276175 -92.191909,71.849867 -94.079039,70.684181 C -89.772159,43.486844 -74.558229,41.033896 -54.077569,39.630505 z "
     id="path3074"
     sodipodi:nodetypes="cczccccccc" /><path
     sodipodi:nodetypes="cczccccccc"
     id="path3076"
     d="M -53.777569,39.530505 C -67.310049,39.17872 -98.322679,32.646191 -104.99816,69.596681 C -105.03038,71.169713 -100.10745,70.247145 -99.752569,70.748152 C -99.397689,71.249159 -98.759389,71.917574 -99.496689,71.963592 C -101.79877,72.363747 -109.33812,71.028905 -110.05184,78.488593 C -110.16186,80.250411 -101.72558,82.971506 -96.637869,83.862123 C -94.573329,84.351283 -95.955509,79.68271 -95.358449,77.465063 C -94.966859,76.417083 -84.845959,75.183445 -84.739339,74.394475 C -84.885049,73.404116 -90.400729,71.977808 -92.287869,70.812122 C -87.980979,43.614785 -73.746469,42.725072 -53.777569,39.530505 z "
     style="fill:url(#linearGradient3912);fill-opacity:1;fill-rule:evenodd;stroke:none;stroke-width:1px;stroke-linecap:butt;stroke-linejoin:miter;stroke-opacity:1" /><path
     style="fill:url(#linearGradient3914);fill-opacity:1;fill-rule:evenodd;stroke:none;stroke-width:1px;stroke-linecap:butt;stroke-linejoin:miter;stroke-opacity:1"
     d="M -53.777569,39.530505 C -65.774749,39.306661 -98.522679,32.646191 -105.19816,69.596681 C -105.23038,71.169713 -100.30745,70.247145 -99.952569,70.748152 C -99.597689,71.249159 -98.959389,71.917574 -99.696689,71.963592 C -101.99877,72.363747 -109.53812,71.028905 -110.25184,78.488593 C -110.36186,80.250411 -100.06235,83.739153 -94.974629,84.62977 C -92.910089,85.11893 -94.164339,80.450357 -93.567279,78.23271 C -93.175679,77.18473 -77.809189,75.055504 -77.702569,74.266534 C -77.848279,73.276175 -89.377209,72.745455 -91.264339,71.579769 C -86.957449,44.382432 -73.746469,42.725072 -53.777569,39.530505 z "
     id="path3078"
     sodipodi:nodetypes="cczccccccc" /><path
     style="fill:url(#radialGradient3916);fill-opacity:1;fill-rule:evenodd;stroke:none;stroke-width:0.09790357;stroke-linecap:butt;stroke-linejoin:miter;stroke-miterlimit:4;stroke-dasharray:none;stroke-opacity:1"
     d="M -60.594279,35.550473 C -90.888999,36.082822 -105.37093,44.983476 -107.75143,68.64842 L -9.8745587,68.64842 C -12.268809,44.846871 -26.941089,35.989095 -57.594229,35.550473 C -58.594249,35.544993 -59.594289,35.546313 -60.594279,35.550473 z "
     id="path3080"
     sodipodi:nodetypes="ccccc" /></g><path
   style="fill:#282828;fill-opacity:0.35365852;fill-rule:evenodd;stroke:none;stroke-width:1px;stroke-linecap:butt;stroke-linejoin:miter;stroke-opacity:1"
   d="M 99.492965,63.918264 C 99.128834,63.29057 88.777824,69.561396 76.240158,71.266161 C 62.673044,73.110904 46.973915,72.178599 46.598138,72.792409 C 45.80629,74.085847 63.161953,74.799109 76.418902,73.012713 C 89.675857,71.226315 99.956078,64.716568 99.492965,63.918264 z "
   id="path3111"
   sodipodi:nodetypes="cssss" /><path
   sodipodi:nodetypes="cssss"
   id="path3113"
   d="M 98.97333,64.333973 C 98.609199,63.706279 88.777824,69.665323 76.240158,71.370088 C 62.673044,73.214831 48.221042,72.178599 47.845265,72.792409 C 47.053418,74.085847 63.161953,74.591256 76.418902,72.804858 C 89.675857,71.01846 99.436443,65.132276 98.97333,64.333973 z "
   style="fill:url(#radialGradient3841);fill-opacity:1;fill-rule:evenodd;stroke:none;stroke-width:1px;stroke-linecap:butt;stroke-linejoin:miter;stroke-opacity:1" /><path
   style="fill:url(#linearGradient4858);fill-opacity:1.0;fill-rule:evenodd;stroke:none;stroke-width:1px;stroke-linecap:butt;stroke-linejoin:miter;stroke-opacity:1;opacity:0.55737705"
   d="M 61.735061,101.20362 C 60.668935,93.53625 66.274931,91.546818 69.66963,88.161843 L 86.974494,86.017223 C 81.460891,93.920901 71.606369,92.874716 68.328745,101.17299 C 67.433002,101.87351 63.471197,101.91507 61.735061,101.20362 z "
   id="path4850"
   sodipodi:nodetypes="ccccc" /><path
   style="fill:url(#radialGradient2939);fill-opacity:1;fill-rule:evenodd;stroke:none;stroke-width:0.09790357;stroke-linecap:butt;stroke-linejoin:miter;stroke-miterlimit:4;stroke-dasharray:none;stroke-opacity:1"
   d="M 2.8058869,72.317463 C 2.804048,72.626799 2.8097637,72.93931 2.8058869,73.24715 C 17.449211,80.845365 31.23777,82.049903 51.875929,82.108229 L 51.875929,82.137282 C 52.284088,82.137284 52.66422,82.137811 53.06709,82.137282 C 53.46025,82.137786 53.801936,82.137282 54.200146,82.137282 L 54.200146,82.108229 C 74.838294,82.049906 88.626868,80.845365 103.27019,73.24715 C 103.26631,72.93931 103.27169,72.626799 103.27019,72.317463 C 88.626868,79.915678 74.78283,80.288254 54.144682,80.346577 L 54.144682,80.37563 C 53.746472,80.37563 53.404786,80.376134 53.011626,80.37563 C 52.608756,80.376159 52.228624,80.375633 51.820465,80.37563 L 51.820465,80.346577 C 31.182306,80.288252 17.449211,79.915678 2.8058869,72.317463 z "
   id="path2032"
   sodipodi:nodetypes="ccccsccccccsccc" /></svg>