<?xml version="1.0" encoding="UTF-8" standalone="no"?>
<!-- Created with Inkscape (http://www.inkscape.org/) -->
<svg
   xmlns:dc="http://purl.org/dc/elements/1.1/"
   xmlns:cc="http://web.resource.org/cc/"
   xmlns:rdf="http://www.w3.org/1999/02/22-rdf-syntax-ns#"
   xmlns:svg="http://www.w3.org/2000/svg"
   xmlns="http://www.w3.org/2000/svg"
   xmlns:xlink="http://www.w3.org/1999/xlink"
   xmlns:sodipodi="http://sodipodi.sourceforge.net/DTD/sodipodi-0.dtd"
   xmlns:inkscape="http://www.inkscape.org/namespaces/inkscape"
   width="128"
   height="128"
   id="svg1307"
   sodipodi:version="0.32"
   inkscape:version="0.44"
   version="1.0"
   sodipodi:docbase="/home/pinheiro/artwork/Oxygen/theme/svg/actions"
   sodipodi:docname="bell.svg">
  <defs
     id="defs1309">
    <linearGradient
       inkscape:collect="always"
       id="linearGradient3537">
      <stop
         style="stop-color:#cf4913;stop-opacity:1;"
         offset="0"
         id="stop3539" />
      <stop
         style="stop-color:#cf4913;stop-opacity:0;"
         offset="1"
         id="stop3541" />
    </linearGradient>
    <linearGradient
       id="linearGradient3531"
       inkscape:collect="always">
      <stop
         id="stop3533"
         offset="0"
         style="stop-color:white;stop-opacity:1;" />
      <stop
         id="stop3535"
         offset="1"
         style="stop-color:#cf4913;stop-opacity:0" />
    </linearGradient>
    <linearGradient
       id="linearGradient3171">
      <stop
         style="stop-color:#2b2b2b;stop-opacity:1;"
         offset="0"
         id="stop3173" />
      <stop
         style="stop-color:black;stop-opacity:1;"
         offset="1"
         id="stop3175" />
    </linearGradient>
    <linearGradient
       inkscape:collect="always"
       id="linearGradient3115">
      <stop
         style="stop-color:#282828;stop-opacity:1;"
         offset="0"
         id="stop3117" />
      <stop
         style="stop-color:#282828;stop-opacity:0;"
         offset="1"
         id="stop3119" />
    </linearGradient>
    <linearGradient
       inkscape:collect="always"
       id="linearGradient3098">
      <stop
         style="stop-color:#282828;stop-opacity:1;"
         offset="0"
         id="stop3100" />
      <stop
         style="stop-color:#282828;stop-opacity:0;"
         offset="1"
         id="stop3102" />
    </linearGradient>
    <linearGradient
       inkscape:collect="always"
       id="linearGradient3017">
      <stop
         style="stop-color:white;stop-opacity:1;"
         offset="0"
         id="stop3019" />
      <stop
         style="stop-color:white;stop-opacity:0;"
         offset="1"
         id="stop3021" />
    </linearGradient>
    <linearGradient
       id="linearGradient3001">
      <stop
         id="stop3003"
         offset="0"
         style="stop-color:white;stop-opacity:0;" />
      <stop
         style="stop-color:#7f7f7f;stop-opacity:0;"
         offset="0.67582417"
         id="stop3009" />
      <stop
         id="stop3005"
         offset="1"
         style="stop-color:black;stop-opacity:1;" />
    </linearGradient>
    <linearGradient
       inkscape:collect="always"
       id="linearGradient2964">
      <stop
         style="stop-color:white;stop-opacity:1;"
         offset="0"
         id="stop2966" />
      <stop
         style="stop-color:white;stop-opacity:0;"
         offset="1"
         id="stop2968" />
    </linearGradient>
    <linearGradient
       inkscape:collect="always"
       id="linearGradient2938">
      <stop
         style="stop-color:#d1d1d1;stop-opacity:1;"
         offset="0"
         id="stop2940" />
      <stop
         style="stop-color:#d1d1d1;stop-opacity:0;"
         offset="1"
         id="stop2942" />
    </linearGradient>
    <linearGradient
       id="linearGradient2911">
      <stop
         style="stop-color:white;stop-opacity:1;"
         offset="0"
         id="stop2913" />
      <stop
         id="stop2923"
         offset="0.15384616"
         style="stop-color:white;stop-opacity:0.50541514;" />
      <stop
         id="stop2921"
         offset="0.5"
         style="stop-color:white;stop-opacity:0.37184116;" />
      <stop
         style="stop-color:white;stop-opacity:0;"
         offset="1"
         id="stop2915" />
    </linearGradient>
    <linearGradient
       inkscape:collect="always"
       id="linearGradient3291">
      <stop
         style="stop-color:#000000;stop-opacity:1;"
         offset="0"
         id="stop3293" />
      <stop
         style="stop-color:#000000;stop-opacity:0;"
         offset="1"
         id="stop3295" />
    </linearGradient>
    <linearGradient
       id="linearGradient3225">
      <stop
         style="stop-color:#ddd;stop-opacity:1;"
         offset="0"
         id="stop3227" />
      <stop
         style="stop-color:#aeaeae;stop-opacity:1;"
         offset="1"
         id="stop3229" />
    </linearGradient>
    <radialGradient
       inkscape:collect="always"
       xlink:href="#linearGradient3291"
       id="radialGradient3297"
       cx="63.912209"
       cy="115.70919"
       fx="63.912209"
       fy="115.7093"
       r="63.912209"
       gradientTransform="matrix(1,0,0,0.197802,0,92.82166)"
       gradientUnits="userSpaceOnUse" />
    <radialGradient
       inkscape:collect="always"
       xlink:href="#linearGradient3225"
       id="radialGradient3048"
       gradientUnits="userSpaceOnUse"
       gradientTransform="matrix(1,0,0,0.484285,-246.0732,49.37548)"
       cx="187.24454"
       cy="61.146954"
       fx="187.24454"
       fy="61.146954"
       r="54.829174" />
    <radialGradient
       inkscape:collect="always"
       xlink:href="#linearGradient3001"
       id="radialGradient3050"
       gradientUnits="userSpaceOnUse"
       gradientTransform="matrix(1.085181,-3.733736e-2,2.828132e-2,0.821975,-262.3779,34.39202)"
       cx="192.72668"
       cy="55.537872"
       fx="192.72668"
       fy="78.644714"
       r="54.829174" />
    <radialGradient
       inkscape:collect="always"
       xlink:href="#linearGradient3001"
       id="radialGradient3052"
       gradientUnits="userSpaceOnUse"
       gradientTransform="matrix(1.270715,2.554783e-7,-1.070124e-7,0.532265,-296.2088,41.90812)"
       cx="186.80836"
       cy="37.935295"
       fx="186.80836"
       fy="61.042164"
       r="54.829174" />
    <linearGradient
       inkscape:collect="always"
       xlink:href="#linearGradient2964"
       id="linearGradient3054"
       gradientUnits="userSpaceOnUse"
       gradientTransform="translate(-246.0732,35.82536)"
       x1="138.87874"
       y1="11.188437"
       x2="171.31325"
       y2="32.21191" />
    <linearGradient
       inkscape:collect="always"
       xlink:href="#linearGradient2964"
       id="linearGradient3056"
       gradientUnits="userSpaceOnUse"
       gradientTransform="translate(-246.0732,35.82536)"
       x1="107.87319"
       y1="-19.988091"
       x2="171.31325"
       y2="32.21191" />
    <linearGradient
       inkscape:collect="always"
       xlink:href="#linearGradient2964"
       id="linearGradient3058"
       gradientUnits="userSpaceOnUse"
       gradientTransform="translate(-246.0732,35.82536)"
       x1="152.70868"
       y1="10.61757"
       x2="159.03088"
       y2="15.735216" />
    <radialGradient
       inkscape:collect="always"
       xlink:href="#linearGradient3017"
       id="radialGradient3060"
       gradientUnits="userSpaceOnUse"
       gradientTransform="matrix(0.984669,0,0,0.118423,-243.2023,59.0887)"
       cx="187.24454"
       cy="-194.50902"
       fx="187.24454"
       fy="-194.50902"
       r="54.829175" />
    <radialGradient
       inkscape:collect="always"
       xlink:href="#linearGradient2911"
       id="radialGradient3062"
       gradientUnits="userSpaceOnUse"
       gradientTransform="matrix(0.580608,0.155573,-0.108849,0.406231,-116.3609,67.07435)"
       cx="-10.33372"
       cy="88.294983"
       fx="11.760489"
       fy="79.203735"
       r="64.140811" />
    <linearGradient
       inkscape:collect="always"
       xlink:href="#linearGradient2938"
       id="linearGradient3064"
       gradientUnits="userSpaceOnUse"
       gradientTransform="translate(-130.6359,0)"
       x1="-2.6522288"
       y1="85.824081"
       x2="40.627037"
       y2="96.443199" />
    <radialGradient
       inkscape:collect="always"
       xlink:href="#linearGradient3225"
       id="radialGradient3082"
       gradientUnits="userSpaceOnUse"
       gradientTransform="matrix(1,0,0,0.484285,-246.0732,49.37548)"
       cx="187.24454"
       cy="61.146954"
       fx="187.24454"
       fy="61.146954"
       r="54.829174" />
    <radialGradient
       inkscape:collect="always"
       xlink:href="#linearGradient3001"
       id="radialGradient3084"
       gradientUnits="userSpaceOnUse"
       gradientTransform="matrix(1.085181,-3.733736e-2,2.828132e-2,0.821975,-262.3779,34.39202)"
       cx="192.72668"
       cy="55.537872"
       fx="192.72668"
       fy="78.644714"
       r="54.829174" />
    <radialGradient
       inkscape:collect="always"
       xlink:href="#linearGradient3001"
       id="radialGradient3086"
       gradientUnits="userSpaceOnUse"
       gradientTransform="matrix(1.270715,2.554783e-7,-1.070124e-7,0.532265,-296.2088,41.90812)"
       cx="186.80836"
       cy="37.935295"
       fx="186.80836"
       fy="61.042164"
       r="54.829174" />
    <linearGradient
       inkscape:collect="always"
       xlink:href="#linearGradient2964"
       id="linearGradient3088"
       gradientUnits="userSpaceOnUse"
       gradientTransform="translate(-246.0732,35.82536)"
       x1="138.87874"
       y1="11.188437"
       x2="171.31325"
       y2="32.21191" />
    <linearGradient
       inkscape:collect="always"
       xlink:href="#linearGradient2964"
       id="linearGradient3090"
       gradientUnits="userSpaceOnUse"
       gradientTransform="translate(-246.0732,35.82536)"
       x1="107.87319"
       y1="-19.988091"
       x2="171.31325"
       y2="32.21191" />
    <linearGradient
       inkscape:collect="always"
       xlink:href="#linearGradient2964"
       id="linearGradient3092"
       gradientUnits="userSpaceOnUse"
       gradientTransform="translate(-246.0732,35.82536)"
       x1="152.70868"
       y1="10.61757"
       x2="159.03088"
       y2="15.735216" />
    <radialGradient
       inkscape:collect="always"
       xlink:href="#linearGradient3017"
       id="radialGradient3094"
       gradientUnits="userSpaceOnUse"
       gradientTransform="matrix(1,0,0,0.120267,-246.0732,58.93986)"
       cx="187.24454"
       cy="-194.50902"
       fx="187.24454"
       fy="-194.50902"
       r="54.829175" />
    <linearGradient
       inkscape:collect="always"
       xlink:href="#linearGradient3098"
       id="linearGradient3104"
       x1="62.179413"
       y1="43.047058"
       x2="62.179413"
       y2="52.258823"
       gradientUnits="userSpaceOnUse"
       gradientTransform="matrix(0.8673,0,0,0.67437,9.814995,-8.336795)" />
    <radialGradient
       inkscape:collect="always"
       xlink:href="#linearGradient3115"
       id="radialGradient3121"
       cx="79.215528"
       cy="86.08176"
       fx="79.215528"
       fy="86.08176"
       r="25.467844"
       gradientTransform="matrix(1.116644,0,0,0.21535,-4.880836,50.27877)"
       gradientUnits="userSpaceOnUse" />
    <linearGradient
       inkscape:collect="always"
       xlink:href="#linearGradient3098"
       id="linearGradient3125"
       gradientUnits="userSpaceOnUse"
       gradientTransform="matrix(0.8673,0,-0.31904,-0.767541,26.97749,71.72902)"
       x1="62.508877"
       y1="57.376545"
       x2="71.446335"
       y2="40.731449" />
    <linearGradient
       inkscape:collect="always"
       xlink:href="#linearGradient3171"
       id="linearGradient3177"
       x1="-59.104649"
       y1="85.751129"
       x2="-59.104649"
       y2="91.598488"
       gradientUnits="userSpaceOnUse" />
    <linearGradient
       id="linearGradient2288"
       inkscape:collect="always">
      <stop
         id="stop2290"
         offset="0"
         style="stop-color:#ffffff;stop-opacity:1;" />
      <stop
         id="stop2292"
         offset="1"
         style="stop-color:#ffffff;stop-opacity:0;" />
    </linearGradient>
    <linearGradient
       id="linearGradient3201"
       inkscape:collect="always">
      <stop
         id="stop3203"
         offset="0"
         style="stop-color:#ffffff;stop-opacity:1;" />
      <stop
         id="stop3205"
         offset="1"
         style="stop-color:#ffffff;stop-opacity:0;" />
    </linearGradient>
    <linearGradient
       id="linearGradient30549"
       inkscape:collect="always">
      <stop
         id="stop30551"
         offset="0"
         style="stop-color:#ffffff;stop-opacity:1;" />
      <stop
         id="stop30553"
         offset="1"
         style="stop-color:#ffffff;stop-opacity:0;" />
    </linearGradient>
    <linearGradient
       id="linearGradient30539"
       inkscape:collect="always">
      <stop
         id="stop30541"
         offset="0"
         style="stop-color:#ffffff;stop-opacity:1;" />
      <stop
         id="stop30543"
         offset="1"
         style="stop-color:#ffffff;stop-opacity:0;" />
    </linearGradient>
    <radialGradient
       inkscape:collect="always"
       xlink:href="#linearGradient2288"
       id="radialGradient3487"
       gradientUnits="userSpaceOnUse"
       gradientTransform="matrix(0.941643,-5.561611e-3,-2.729983e-2,10.25429,-90.27747,-623.9918)"
       cx="49.157429"
       cy="62.380642"
       fx="45.900455"
       fy="62.298256"
       r="8.3332365" />
    <radialGradient
       inkscape:collect="always"
       xlink:href="#linearGradient2288"
       id="radialGradient3489"
       gradientUnits="userSpaceOnUse"
       gradientTransform="matrix(0.941643,-5.561611e-3,-2.729983e-2,10.25429,-90.27747,-623.9918)"
       cx="32.489605"
       cy="69.225014"
       fx="29.738691"
       fy="69.225014"
       r="8.3332365" />
    <radialGradient
       inkscape:collect="always"
       xlink:href="#linearGradient3201"
       id="radialGradient3491"
       gradientUnits="userSpaceOnUse"
       gradientTransform="matrix(1,0,0,0.350763,0,33.62806)"
       cx="53.82272"
       cy="51.796238"
       fx="53.363365"
       fy="53.704475"
       r="5.2844129" />
    <radialGradient
       inkscape:collect="always"
       xlink:href="#linearGradient3201"
       id="radialGradient3493"
       gradientUnits="userSpaceOnUse"
       gradientTransform="matrix(1,0,0,0.350763,0,33.62806)"
       cx="53.82272"
       cy="51.796238"
       fx="53.363365"
       fy="53.704475"
       r="5.2844129" />
    <linearGradient
       inkscape:collect="always"
       xlink:href="#linearGradient30539"
       id="linearGradient3495"
       gradientUnits="userSpaceOnUse"
       x1="-742.43384"
       y1="195.60983"
       x2="-739.79175"
       y2="217.92102" />
    <radialGradient
       inkscape:collect="always"
       xlink:href="#linearGradient30549"
       id="radialGradient3497"
       gradientUnits="userSpaceOnUse"
       gradientTransform="matrix(1,0,0,0.928571,0,40.41772)"
       cx="-633.63702"
       cy="565.84845"
       fx="-634.81256"
       fy="578.65271"
       r="18.908777" />
    <linearGradient
       inkscape:collect="always"
       xlink:href="#linearGradient3531"
       id="linearGradient3529"
       x1="63.25"
       y1="71.25"
       x2="97"
       y2="58.25"
       gradientUnits="userSpaceOnUse" />
    <radialGradient
       inkscape:collect="always"
       xlink:href="#linearGradient3537"
       id="radialGradient3545"
       cx="82.741241"
       cy="85.108742"
       fx="84.286263"
       fy="85.545609"
       r="4.4019789"
       gradientTransform="matrix(8.042287,-2.044531,0.281992,1.109233,-622.3282,160.33)"
       gradientUnits="userSpaceOnUse" />
  </defs>
  <sodipodi:namedview
     id="base"
     pagecolor="#ffffff"
     bordercolor="#666666"
     borderopacity="1.0"
     inkscape:pageopacity="0.0"
     inkscape:pageshadow="2"
     inkscape:zoom="7.9999999"
     inkscape:cx="93.385815"
     inkscape:cy="47.211757"
     inkscape:current-layer="layer1"
     showgrid="false"
     inkscape:document-units="px"
     inkscape:grid-bbox="true"
     guidetolerance="0.1px"
     showguides="true"
     inkscape:guide-bbox="true"
     inkscape:window-width="1106"
     inkscape:window-height="958"
     inkscape:window-x="591"
     inkscape:window-y="104">
    <sodipodi:guide
       orientation="horizontal"
       position="32.487481"
       id="guide2204" />
  </sodipodi:namedview>
  <metadata
     id="metadata1312">
    <rdf:RDF>
      <cc:Work
         rdf:about="">
        <dc:format>image/svg+xml</dc:format>
        <dc:type
           rdf:resource="http://purl.org/dc/dcmitype/StillImage" />
        <cc:license
           rdf:resource="http://creativecommons.org/licenses/GPL/2.0/" />
        <dc:contributor>
          <cc:Agent>
            <dc:title>Oxygen team</dc:title>
          </cc:Agent>
        </dc:contributor>
      </cc:Work>
      <cc:License
         rdf:about="http://creativecommons.org/licenses/LGPL/2.1/">
        <cc:permits
           rdf:resource="http://web.resource.org/cc/Reproduction" />
        <cc:permits
           rdf:resource="http://web.resource.org/cc/Distribution" />
        <cc:requires
           rdf:resource="http://web.resource.org/cc/Notice" />
        <cc:permits
           rdf:resource="http://web.resource.org/cc/DerivativeWorks" />
        <cc:requires
           rdf:resource="http://web.resource.org/cc/ShareAlike" />
        <cc:requires
           rdf:resource="http://web.resource.org/cc/SourceCode" />
      </cc:License>
    </rdf:RDF>
  </metadata>
  <g
     id="layer1"
     inkscape:label="Layer 1"
     inkscape:groupmode="layer">
    <path
       sodipodi:nodetypes="ccc"
       id="path2276"
       d="M 50.892799,3.2812959 L 50.892799,0.48658747 L 50.892799,3.2812959 z "
       style="fill:#ffffff;fill-opacity:0.75688076;fill-rule:nonzero;stroke:none;stroke-width:0.5;stroke-linecap:round;stroke-linejoin:round;stroke-miterlimit:4;stroke-dasharray:none;stroke-dashoffset:4;stroke-opacity:1" />
    <path
       sodipodi:type="arc"
       style="opacity:0.38139535;fill:url(#radialGradient3297);fill-opacity:1.0;fill-rule:nonzero;stroke:none;stroke-width:0;stroke-linecap:round;stroke-linejoin:round;stroke-miterlimit:4;stroke-dasharray:none;stroke-dashoffset:4;stroke-opacity:1"
       id="path3289"
       sodipodi:cx="63.912209"
       sodipodi:cy="115.70919"
       sodipodi:rx="63.912209"
       sodipodi:ry="12.641975"
       d="M 127.82442 115.70919 A 63.912209 12.641975 0 1 1  0,115.70919 A 63.912209 12.641975 0 1 1  127.82442 115.70919 z"
       transform="matrix(1,0,0,0.416667,0,74.87151)" />
    <g
       id="g2013"
       transform="matrix(0.863532,0,0,0.863532,6.35379e-3,17.48527)">
      <g
         transform="matrix(0.98461,0,0,0.98461,122.1797,-3.397062)"
         id="g3042">
        <path
           sodipodi:nodetypes="cccssccccc"
           id="path3027"
           d="M -113.7609,85.109336 L -123.92697,97.412497 L -124.04215,104.20309 C -102.6318,109.17184 -84.078115,110.18768 -59.385898,110.20309 C -59.193503,110.20321 -59.016547,110.20309 -58.823398,110.20309 C -34.131184,110.18768 -15.878742,108.99021 5.5316081,104.02146 L 5.8328525,97.940427 L 5.6243786,97.110184 L -4.4171475,85.109336 C -13.699949,79.765683 -100.47398,78.494114 -113.7609,85.109336 z "
           style="fill:url(#linearGradient3177);fill-opacity:1;fill-rule:nonzero;stroke:none;stroke-width:0.1;stroke-linecap:round;stroke-linejoin:round;stroke-miterlimit:4;stroke-dashoffset:4;stroke-opacity:1" />
        <path
           style="fill:black;fill-opacity:1;fill-rule:nonzero;stroke:none;stroke-width:0.1;stroke-linecap:round;stroke-linejoin:round;stroke-miterlimit:4;stroke-dashoffset:4;stroke-opacity:1"
           d="M -113.7609,85.109336 L -123.92408,97.218661 C -124.01041,97.305781 -124.03704,97.414731 -124.04215,97.532861 L -124.04215,104.20309 C -102.6318,109.17184 -84.078115,110.18768 -59.385898,110.20309 C -59.193503,110.20321 -59.016547,110.20309 -58.823398,110.20309 C -34.260109,110.18776 -15.771413,109.18242 5.4977168,104.2806 C 5.6461947,104.24638 5.8318922,104.11323 5.8328525,103.96974 L 5.8328525,97.674623 C 5.8230775,97.483507 5.7657739,97.310214 5.6614909,97.154538 L -4.4171475,85.109336 C -22.440068,89.29196 -38.069104,90.158868 -58.854648,90.171836 C -59.017238,90.171836 -59.16144,90.171939 -59.323398,90.171836 C -80.108941,90.158866 -95.737982,89.291959 -113.7609,85.109336 z "
           id="rect1979"
           sodipodi:nodetypes="ccccsssccccssc" />
        <path
           style="opacity:0.81557378;fill:url(#radialGradient3062);fill-opacity:1;fill-rule:nonzero;stroke:none;stroke-width:0.1;stroke-linecap:round;stroke-linejoin:round;stroke-miterlimit:4;stroke-dashoffset:4;stroke-opacity:1"
           d="M 5.9330934,97.237018 C -15.477257,102.20577 -34.030943,103.22161 -58.723157,103.23702 C -58.916306,103.23702 -59.093262,103.23714 -59.285657,103.23702 C -82.544016,103.2225 -100.37127,102.30669 -120.25441,98.049518 C -120.81969,97.966531 -121.35663,98.149962 -121.75036,98.54143 C -122.77149,99.556684 -122.24907,102.51153 -122.22316,104.36202 C -101.53602,108.99035 -83.309853,109.97203 -59.285657,109.98702 C -59.093262,109.98714 -58.916306,109.98702 -58.723157,109.98702 C -34.230789,109.97173 -15.777987,108.97215 5.4137979,104.10689 L 5.9330934,103.78255 L 5.9330934,97.237018 z "
           id="path2879"
           sodipodi:nodetypes="csscscssscc" />
        <path
           style="fill:url(#linearGradient3064);fill-opacity:1;fill-rule:nonzero;stroke:none;stroke-width:0.1;stroke-linecap:round;stroke-linejoin:round;stroke-miterlimit:4;stroke-dashoffset:4;stroke-opacity:1"
           d="M -112.32818,87.940441 C -114.95379,90.080475 -115.90854,92.380314 -116.89399,94.414338 C -117.86695,96.422602 -120.41481,97.885331 -121.06467,98.296507 C -120.82674,98.226714 -120.61605,98.211625 -120.35465,98.25 C -107.44662,101.01373 -95.390742,102.35386 -82.167148,102.96875 C -71.812276,90.001641 -96.319653,89.161602 -100.64582,88.221691 C -105.0331,87.268505 -109.70256,85.800407 -112.32818,87.940441 z "
           id="path2927"
           sodipodi:nodetypes="czccczz" />
      </g>
      <g
         transform="matrix(0.98461,0,0,0.98461,121.9079,-4.746992)"
         id="g3033">
        <path
           style="fill:url(#radialGradient3048);fill-opacity:1;fill-rule:evenodd;stroke:none;stroke-width:0.09790357;stroke-linecap:butt;stroke-linejoin:miter;stroke-miterlimit:4;stroke-dasharray:none;stroke-opacity:1"
           d="M -60.594279,33.519212 C -90.888999,34.051561 -105.37093,44.983476 -107.75143,68.64842 C -114.0107,71.338151 -113.60492,75.741563 -113.6578,79.94066 C -97.678379,88.232156 -82.615499,88.558894 -60.094269,88.622542 L -60.094269,88.652495 C -59.648859,88.652495 -59.252619,88.653072 -58.812999,88.652495 C -58.383959,88.653043 -57.997519,88.652495 -57.562979,88.652495 L -57.562979,88.622542 C -35.041749,88.558894 -19.978869,88.232156 -3.9994487,79.94066 C -4.0523187,75.741563 -3.6152887,71.338151 -9.8745587,68.64842 C -12.268809,44.846871 -26.941089,33.957834 -57.594229,33.519212 C -58.594249,33.513732 -59.594289,33.515052 -60.594279,33.519212 z "
           id="path2949"
           sodipodi:nodetypes="cccccscccccc" />
        <path
           style="fill:url(#radialGradient3050);fill-opacity:1;fill-rule:evenodd;stroke:none;stroke-width:0.09790357;stroke-linecap:butt;stroke-linejoin:miter;stroke-miterlimit:4;stroke-dasharray:none;stroke-opacity:1"
           d="M -60.594279,33.519212 C -90.888999,34.051561 -105.37093,44.983476 -107.75143,68.64842 C -114.0107,71.338151 -113.60492,75.741563 -113.6578,79.94066 C -97.678379,88.232156 -82.615499,88.558894 -60.094269,88.622542 L -60.094269,88.652495 C -59.648859,88.652495 -59.252619,88.653072 -58.812999,88.652495 C -58.383959,88.653043 -57.997519,88.652495 -57.562979,88.652495 L -57.562979,88.622542 C -35.041749,88.558894 -19.978869,88.232156 -3.9994487,79.94066 C -4.0523187,75.741563 -3.6152887,71.338151 -9.8745587,68.64842 C -12.268809,44.846871 -26.941089,33.957834 -57.594229,33.519212 C -58.594249,33.513732 -59.594289,33.515052 -60.594279,33.519212 z "
           id="path3011"
           sodipodi:nodetypes="cccccscccccc" />
        <path
           sodipodi:nodetypes="cccccscccccc"
           id="path2999"
           d="M -60.594279,33.519213 C -90.888999,34.051562 -105.37093,44.983476 -107.75143,68.64842 C -114.0107,71.338151 -113.60492,75.741563 -113.6578,79.94066 C -97.678379,88.232156 -82.615499,89.558894 -60.094269,89.622542 L -60.094269,89.652495 C -59.648859,89.652495 -59.252619,89.653072 -58.812999,89.652495 C -58.383959,89.653043 -57.997519,89.652495 -57.562979,89.652495 L -57.562979,89.622542 C -35.041749,89.558894 -19.978869,88.232156 -3.9994487,79.94066 C -4.0523187,75.741563 -3.6152887,71.338151 -9.8745587,68.64842 C -12.268809,44.846871 -26.941089,33.957835 -57.594229,33.519213 C -58.594249,33.513733 -59.594289,33.515053 -60.594279,33.519213 z "
           style="fill:url(#radialGradient3052);fill-opacity:1;fill-rule:evenodd;stroke:none;stroke-width:0.09790357;stroke-linecap:butt;stroke-linejoin:miter;stroke-miterlimit:4;stroke-dasharray:none;stroke-opacity:1" />
        <path
           style="fill:url(#linearGradient3054);fill-opacity:1;fill-rule:evenodd;stroke:none;stroke-width:1px;stroke-linecap:butt;stroke-linejoin:miter;stroke-opacity:1"
           d="M -54.077569,39.630505 C -68.121809,39.790485 -98.022679,32.646191 -104.69816,69.596681 C -104.73038,71.169713 -99.807449,70.247145 -99.452569,70.748152 C -99.097689,71.249159 -98.459389,71.917574 -99.196689,71.963592 C -101.49877,72.363747 -109.03812,71.028905 -109.75184,78.488593 C -109.86186,80.250411 -103.51676,82.587682 -98.429039,83.478299 C -96.364499,83.967459 -97.234929,79.043004 -96.637869,76.825357 C -96.246269,75.777377 -88.556249,75.055504 -88.449629,74.266534 C -88.595339,73.276175 -92.191909,71.849867 -94.079039,70.684181 C -89.772159,43.486844 -74.558229,41.033896 -54.077569,39.630505 z "
           id="path2958"
           sodipodi:nodetypes="cczccccccc" />
        <path
           sodipodi:nodetypes="cczccccccc"
           id="path2960"
           d="M -53.777569,39.530505 C -67.310049,39.17872 -98.322679,32.646191 -104.99816,69.596681 C -105.03038,71.169713 -100.10745,70.247145 -99.752569,70.748152 C -99.397689,71.249159 -98.759389,71.917574 -99.496689,71.963592 C -101.79877,72.363747 -109.33812,71.028905 -110.05184,78.488593 C -110.16186,80.250411 -101.72558,82.971506 -96.637869,83.862123 C -94.573329,84.351283 -95.955509,79.68271 -95.358449,77.465063 C -94.966859,76.417083 -84.845959,75.183445 -84.739339,74.394475 C -84.885049,73.404116 -90.400729,71.977808 -92.287869,70.812122 C -87.980979,43.614785 -73.746469,42.725072 -53.777569,39.530505 z "
           style="fill:url(#linearGradient3056);fill-opacity:1;fill-rule:evenodd;stroke:none;stroke-width:1px;stroke-linecap:butt;stroke-linejoin:miter;stroke-opacity:1" />
        <path
           style="fill:url(#linearGradient3058);fill-opacity:1;fill-rule:evenodd;stroke:none;stroke-width:1px;stroke-linecap:butt;stroke-linejoin:miter;stroke-opacity:1"
           d="M -53.777569,39.530505 C -65.774749,39.306661 -98.522679,32.646191 -105.19816,69.596681 C -105.23038,71.169713 -100.30745,70.247145 -99.952569,70.748152 C -99.597689,71.249159 -98.959389,71.917574 -99.696689,71.963592 C -101.99877,72.363747 -109.53812,71.028905 -110.25184,78.488593 C -110.36186,80.250411 -100.06235,83.739153 -94.974629,84.62977 C -92.910089,85.11893 -94.164339,80.450357 -93.567279,78.23271 C -93.175679,77.18473 -77.809189,75.055504 -77.702569,74.266534 C -77.848279,73.276175 -89.377209,72.745455 -91.264339,71.579769 C -86.957449,44.382432 -73.746469,42.725072 -53.777569,39.530505 z "
           id="path2962"
           sodipodi:nodetypes="cczccccccc" />
        <path
           style="fill:url(#radialGradient3060);fill-opacity:1;fill-rule:evenodd;stroke:none;stroke-width:0.09790357;stroke-linecap:butt;stroke-linejoin:miter;stroke-miterlimit:4;stroke-dasharray:none;stroke-opacity:1"
           d="M -60.56697,34.057776 C -90.397244,34.581963 -104.65715,45.346282 -107.00116,68.64842 L -10.624831,68.64842 C -12.982375,45.211771 -27.429715,34.489673 -57.612914,34.057776 C -58.597603,34.05238 -59.582311,34.05368 -60.56697,34.057776 z "
           id="path3015"
           sodipodi:nodetypes="ccccc" />
      </g>
      <path
         sodipodi:nodetypes="ccccc"
         id="rect3123"
         d="M 79.099059,40.465975 L 85.389311,35.800419 C 85.175613,31.626859 75.540976,30.497065 67.832738,30.134072 L 59.399517,30.134072 C 61.71643,32.457644 78.670986,37.261197 79.099059,40.465975 z "
         style="fill:url(#linearGradient3125);fill-opacity:1;fill-rule:nonzero;stroke:none;stroke-width:0.1;stroke-linecap:round;stroke-linejoin:round;stroke-miterlimit:4;stroke-dashoffset:4;stroke-opacity:1" />
      <path
         sodipodi:nodetypes="ccccc"
         id="rect3106"
         d="M 59.526619,20.692879 L 67.959841,20.692879 L 67.959841,30.356217 C 66.187625,31.300868 61.009842,31.489394 59.526619,30.356217 L 59.526619,20.692879 z "
         style="fill:#c1c1c1;fill-opacity:1;fill-rule:nonzero;stroke:none;stroke-width:0.1;stroke-linecap:round;stroke-linejoin:round;stroke-miterlimit:4;stroke-dashoffset:4;stroke-opacity:1" />
      <rect
         y="20.692881"
         x="59.526623"
         height="9.6633368"
         width="8.4332218"
         id="rect3096"
         style="opacity:1;fill:url(#linearGradient3104);fill-opacity:1;fill-rule:nonzero;stroke:none;stroke-width:0.1;stroke-linecap:round;stroke-linejoin:round;stroke-miterlimit:4;stroke-dasharray:none;stroke-dashoffset:4;stroke-opacity:1" />
      <g
         id="g3066"
         transform="matrix(0.165691,0,0,0.213595,73.79585,4.324573)">
        <path
           sodipodi:nodetypes="cccccscccccc"
           id="path3068"
           d="M -60.594279,35.550473 C -90.888999,36.082822 -105.37093,44.983476 -107.75143,68.64842 C -114.0107,71.338151 -113.60492,75.741563 -113.6578,79.94066 C -97.678379,88.232156 -82.615499,88.558894 -60.094269,88.622542 L -60.094269,88.652495 C -59.648859,88.652495 -59.252619,88.653072 -58.812999,88.652495 C -58.383959,88.653043 -57.997519,88.652495 -57.562979,88.652495 L -57.562979,88.622542 C -35.041749,88.558894 -19.978869,88.232156 -3.9994487,79.94066 C -4.0523187,75.741563 -3.6152887,71.338151 -9.8745587,68.64842 C -12.268809,44.846871 -26.941089,35.989095 -57.594229,35.550473 C -58.594249,35.544993 -59.594289,35.546313 -60.594279,35.550473 z "
           style="fill:url(#radialGradient3082);fill-opacity:1;fill-rule:evenodd;stroke:none;stroke-width:0.09790357;stroke-linecap:butt;stroke-linejoin:miter;stroke-miterlimit:4;stroke-dasharray:none;stroke-opacity:1" />
        <path
           sodipodi:nodetypes="cccccscccccc"
           id="path3070"
           d="M -60.594279,35.550473 C -90.888999,36.082822 -105.37093,44.983476 -107.75143,68.64842 C -114.0107,71.338151 -113.60492,75.741563 -113.6578,79.94066 C -97.678379,88.232156 -82.615499,88.558894 -60.094269,88.622542 L -60.094269,88.652495 C -59.648859,88.652495 -59.252619,88.653072 -58.812999,88.652495 C -58.383959,88.653043 -57.997519,88.652495 -57.562979,88.652495 L -57.562979,88.622542 C -35.041749,88.558894 -19.978869,88.232156 -3.9994487,79.94066 C -4.0523187,75.741563 -3.6152887,71.338151 -9.8745587,68.64842 C -12.268809,44.846871 -26.941089,35.989095 -57.594229,35.550473 C -58.594249,35.544993 -59.594289,35.546313 -60.594279,35.550473 z "
           style="fill:url(#radialGradient3084);fill-opacity:1;fill-rule:evenodd;stroke:none;stroke-width:0.09790357;stroke-linecap:butt;stroke-linejoin:miter;stroke-miterlimit:4;stroke-dasharray:none;stroke-opacity:1" />
        <path
           style="fill:url(#radialGradient3086);fill-opacity:1;fill-rule:evenodd;stroke:none;stroke-width:0.09790357;stroke-linecap:butt;stroke-linejoin:miter;stroke-miterlimit:4;stroke-dasharray:none;stroke-opacity:1"
           d="M -60.594279,35.550473 C -90.888999,36.082822 -105.37093,44.983476 -107.75143,68.64842 C -114.0107,71.338151 -113.60492,75.741563 -113.6578,79.94066 C -97.678379,88.232156 -82.615499,89.558894 -60.094269,89.622542 L -60.094269,89.652495 C -59.648859,89.652495 -59.252619,89.653072 -58.812999,89.652495 C -58.383959,89.653043 -57.997519,89.652495 -57.562979,89.652495 L -57.562979,89.622542 C -35.041749,89.558894 -19.978869,88.232156 -3.9994487,79.94066 C -4.0523187,75.741563 -3.6152887,71.338151 -9.8745587,68.64842 C -12.268809,44.846871 -26.941089,35.989095 -57.594229,35.550473 C -58.594249,35.544993 -59.594289,35.546313 -60.594279,35.550473 z "
           id="path3072"
           sodipodi:nodetypes="cccccscccccc" />
        <path
           sodipodi:nodetypes="cczccccccc"
           id="path3074"
           d="M -54.077569,39.630505 C -68.121809,39.790485 -98.022679,32.646191 -104.69816,69.596681 C -104.73038,71.169713 -99.807449,70.247145 -99.452569,70.748152 C -99.097689,71.249159 -98.459389,71.917574 -99.196689,71.963592 C -101.49877,72.363747 -109.03812,71.028905 -109.75184,78.488593 C -109.86186,80.250411 -103.51676,82.587682 -98.429039,83.478299 C -96.364499,83.967459 -97.234929,79.043004 -96.637869,76.825357 C -96.246269,75.777377 -88.556249,75.055504 -88.449629,74.266534 C -88.595339,73.276175 -92.191909,71.849867 -94.079039,70.684181 C -89.772159,43.486844 -74.558229,41.033896 -54.077569,39.630505 z "
           style="fill:url(#linearGradient3088);fill-opacity:1;fill-rule:evenodd;stroke:none;stroke-width:1px;stroke-linecap:butt;stroke-linejoin:miter;stroke-opacity:1" />
        <path
           style="fill:url(#linearGradient3090);fill-opacity:1;fill-rule:evenodd;stroke:none;stroke-width:1px;stroke-linecap:butt;stroke-linejoin:miter;stroke-opacity:1"
           d="M -53.777569,39.530505 C -67.310049,39.17872 -98.322679,32.646191 -104.99816,69.596681 C -105.03038,71.169713 -100.10745,70.247145 -99.752569,70.748152 C -99.397689,71.249159 -98.759389,71.917574 -99.496689,71.963592 C -101.79877,72.363747 -109.33812,71.028905 -110.05184,78.488593 C -110.16186,80.250411 -101.72558,82.971506 -96.637869,83.862123 C -94.573329,84.351283 -95.955509,79.68271 -95.358449,77.465063 C -94.966859,76.417083 -84.845959,75.183445 -84.739339,74.394475 C -84.885049,73.404116 -90.400729,71.977808 -92.287869,70.812122 C -87.980979,43.614785 -73.746469,42.725072 -53.777569,39.530505 z "
           id="path3076"
           sodipodi:nodetypes="cczccccccc" />
        <path
           sodipodi:nodetypes="cczccccccc"
           id="path3078"
           d="M -53.777569,39.530505 C -65.774749,39.306661 -98.522679,32.646191 -105.19816,69.596681 C -105.23038,71.169713 -100.30745,70.247145 -99.952569,70.748152 C -99.597689,71.249159 -98.959389,71.917574 -99.696689,71.963592 C -101.99877,72.363747 -109.53812,71.028905 -110.25184,78.488593 C -110.36186,80.250411 -100.06235,83.739153 -94.974629,84.62977 C -92.910089,85.11893 -94.164339,80.450357 -93.567279,78.23271 C -93.175679,77.18473 -77.809189,75.055504 -77.702569,74.266534 C -77.848279,73.276175 -89.377209,72.745455 -91.264339,71.579769 C -86.957449,44.382432 -73.746469,42.725072 -53.777569,39.530505 z "
           style="fill:url(#linearGradient3092);fill-opacity:1;fill-rule:evenodd;stroke:none;stroke-width:1px;stroke-linecap:butt;stroke-linejoin:miter;stroke-opacity:1" />
        <path
           sodipodi:nodetypes="ccccc"
           id="path3080"
           d="M -60.594279,35.550473 C -90.888999,36.082822 -105.37093,44.983476 -107.75143,68.64842 L -9.8745587,68.64842 C -12.268809,44.846871 -26.941089,35.989095 -57.594229,35.550473 C -58.594249,35.544993 -59.594289,35.546313 -60.594279,35.550473 z "
           style="fill:url(#radialGradient3094);fill-opacity:1;fill-rule:evenodd;stroke:none;stroke-width:0.09790357;stroke-linecap:butt;stroke-linejoin:miter;stroke-miterlimit:4;stroke-dasharray:none;stroke-opacity:1" />
      </g>
      <path
         sodipodi:nodetypes="cssss"
         id="path3111"
         d="M 111.99699,63.379238 C 111.60575,62.704814 100.48413,69.442489 87.013062,71.274169 C 72.435906,73.256249 55.568011,72.254537 55.164257,72.914043 C 54.313459,74.303775 72.961212,75.070139 87.205113,73.150749 C 101.44902,71.231357 112.49458,64.236973 111.99699,63.379238 z "
         style="fill:#282828;fill-opacity:0.35365852;fill-rule:evenodd;stroke:none;stroke-width:1px;stroke-linecap:butt;stroke-linejoin:miter;stroke-opacity:1" />
      <path
         style="fill:url(#radialGradient3121);fill-opacity:1;fill-rule:evenodd;stroke:none;stroke-width:1px;stroke-linecap:butt;stroke-linejoin:miter;stroke-opacity:1"
         d="M 111.43867,63.825895 C 111.04743,63.151471 100.48413,69.554153 87.013062,71.385833 C 72.435906,73.367913 56.907983,72.254537 56.50423,72.914043 C 55.653432,74.303775 72.961212,74.846811 87.205113,72.92742 C 101.44902,71.008028 111.93626,64.683631 111.43867,63.825895 z "
         id="path3113"
         sodipodi:nodetypes="cssss" />
    </g>
    <g
       id="g3472"
       transform="translate(29,3)">
      <g
         transform="matrix(1.123343,0,0,-1.123343,145.383,98.7974)"
         id="g3450">
        <path
           style="fill:#cf4913;fill-opacity:1;fill-rule:nonzero;stroke:none;stroke-width:5.90653419;stroke-linecap:round;stroke-linejoin:round;stroke-miterlimit:4;stroke-dashoffset:4;stroke-opacity:1"
           d="M -57.65456,13.945092 C -52.573117,14.662421 -47.730207,14.631446 -42.975706,13.85839 C -42.42671,42.149127 -42.826812,59.259229 -42.484799,82.577512 C -48.101437,83.201523 -53.46296,82.878959 -58.615757,82.502376 C -57.867023,59.177886 -58.999741,50.837912 -57.65456,13.945092 z "
           id="rect1410"
           sodipodi:nodetypes="ccccc" />
        <path
           sodipodi:nodetypes="ccccc"
           id="path2286"
           d="M -57.239688,14.412778 C -52.874414,14.820282 -48.167536,14.763124 -43.680904,14.332692 C -43.097213,36.424764 -43.600422,60.485371 -43.346033,81.747643 C -49.000533,82.233079 -51.424862,82.804892 -57.934241,82.101409 C -57.194746,59.094047 -57.940564,36.51211 -57.239688,14.412778 z "
           style="opacity:0.8558139;fill:url(#radialGradient3487);fill-opacity:1;fill-rule:nonzero;stroke:none;stroke-width:5.90653419;stroke-linecap:round;stroke-linejoin:round;stroke-miterlimit:4;stroke-dashoffset:4;stroke-opacity:1" />
        <path
           style="opacity:0.74418604;fill:url(#radialGradient3489);fill-opacity:1;fill-rule:nonzero;stroke:none;stroke-width:5.90653419;stroke-linecap:round;stroke-linejoin:round;stroke-miterlimit:4;stroke-dashoffset:4;stroke-opacity:1"
           d="M -56.50563,16.306174 L -48.262729,19.462574 C -47.679038,41.554647 -46.422918,60.187836 -44.848554,81.991651 C -50.429422,83.590975 -51.776171,82.505618 -57.934241,82.101409 C -57.126221,59.383215 -57.206506,38.405505 -56.50563,16.306174 z "
           id="path2296"
           sodipodi:nodetypes="ccccc" />
        <path
           style="fill:#cf4913;fill-opacity:1;fill-rule:nonzero;stroke:none;stroke-width:5.90653419;stroke-linecap:round;stroke-linejoin:round;stroke-miterlimit:4;stroke-dashoffset:4;stroke-opacity:1"
           d="M -42.983267,13.659555 C -48.064711,12.942228 -52.918576,12.973267 -57.67308,13.746322 L -57.673711,13.983542 C -52.592267,14.700871 -47.738402,14.66983 -42.983899,13.896775 L -42.983267,13.659555 z "
           id="path2300" />
        <path
           sodipodi:type="arc"
           style="fill:url(#radialGradient3491);fill-opacity:1;fill-rule:nonzero;stroke:none;stroke-width:3.80500007;stroke-linecap:round;stroke-linejoin:round;stroke-miterlimit:4;stroke-dasharray:none;stroke-dashoffset:4;stroke-opacity:1"
           id="path3199"
           sodipodi:cx="53.82272"
           sodipodi:cy="51.796238"
           sodipodi:rx="5.2844129"
           sodipodi:ry="1.8535739"
           d="M 59.107132 51.796238 A 5.2844129 1.8535739 0 1 1  48.538307,51.796238 A 5.2844129 1.8535739 0 1 1  59.107132 51.796238 z"
           transform="matrix(1.045131,-2.239348e-2,4.630812e-3,0.249975,-104.7429,2.679151)" />
        <path
           transform="matrix(1.044707,-3.738172e-2,9.526677e-3,0.249834,-104.3719,71.08782)"
           d="M 59.107132 51.796238 A 5.2844129 1.8535739 0 1 1  48.538307,51.796238 A 5.2844129 1.8535739 0 1 1  59.107132 51.796238 z"
           sodipodi:ry="1.8535739"
           sodipodi:rx="5.2844129"
           sodipodi:cy="51.796238"
           sodipodi:cx="53.82272"
           id="path3209"
           style="opacity:0.65116278;fill:url(#radialGradient3493);fill-opacity:1;fill-rule:nonzero;stroke:none;stroke-width:3.80500007;stroke-linecap:round;stroke-linejoin:round;stroke-miterlimit:4;stroke-dasharray:none;stroke-dashoffset:4;stroke-opacity:1"
           sodipodi:type="arc" />
      </g>
      <g
         transform="matrix(1.176446,0,0,1.176446,148.0624,105.7159)"
         id="g3445">
        <path
           sodipodi:type="arc"
           style="fill:#cf4913;fill-opacity:1;fill-rule:nonzero;stroke:none;stroke-width:1;stroke-linecap:round;stroke-linejoin:miter;stroke-miterlimit:4;stroke-dasharray:none;stroke-dashoffset:4;stroke-opacity:1"
           id="path29662"
           sodipodi:cx="-633.63702"
           sodipodi:cy="565.84845"
           sodipodi:rx="18.908777"
           sodipodi:ry="17.558151"
           d="M -614.72825 565.84845 A 18.908777 17.558151 0 1 1  -652.5458,565.84845 A 18.908777 17.558151 0 1 1  -614.72825 565.84845 z"
           transform="matrix(0.474588,0,0,0.532454,250.2581,-299.4056)" />
        <path
           sodipodi:type="arc"
           style="fill:url(#linearGradient3495);fill-opacity:1;fill-rule:nonzero;stroke:none;stroke-width:1;stroke-linecap:round;stroke-linejoin:miter;stroke-miterlimit:4;stroke-dasharray:none;stroke-dashoffset:4;stroke-opacity:1"
           id="path29664"
           sodipodi:cx="-737.44324"
           sodipodi:cy="207.9397"
           sodipodi:rx="7.3392043"
           sodipodi:ry="6.6052842"
           d="M -730.10403 207.9397 A 7.3392043 6.6052842 0 1 1  -744.78244,207.9397 A 7.3392043 6.6052842 0 1 1  -730.10403 207.9397 z"
           transform="matrix(0.701112,0,0,0.520326,466.6761,-111.1504)" />
        <path
           transform="matrix(0.430029,0,0,0.472467,222.025,-265.4616)"
           d="M -614.72825 565.84845 A 18.908777 17.558151 0 1 1  -652.5458,565.84845 A 18.908777 17.558151 0 1 1  -614.72825 565.84845 z"
           sodipodi:ry="17.558151"
           sodipodi:rx="18.908777"
           sodipodi:cy="565.84845"
           sodipodi:cx="-633.63702"
           id="path30547"
           style="opacity:0.70232556;fill:url(#radialGradient3497);fill-opacity:1;fill-rule:nonzero;stroke:none;stroke-width:1;stroke-linecap:round;stroke-linejoin:miter;stroke-miterlimit:4;stroke-dasharray:none;stroke-dashoffset:4;stroke-opacity:1"
           sodipodi:type="arc" />
      </g>
    </g>
    <path
       style="fill:url(#linearGradient3529);fill-opacity:1.0;fill-rule:evenodd;stroke:none;stroke-width:1px;stroke-linecap:butt;stroke-linejoin:miter;stroke-opacity:1"
       d="M 73.15625,46.9375 C 70.031328,53.552406 78.640361,69.551014 80.375,78.125 C 82.785397,77.52363 85.082391,76.837805 87.234375,76.0625 C 87.200278,66.662415 75.536046,55.834382 75,50 L 73.15625,46.9375 z "
       id="path3499"
       sodipodi:nodetypes="ccccc" />
    <path
       sodipodi:nodetypes="ccccc"
       id="path3550"
       d="M 80.636062,79.6096 C 82.706577,81.714159 81.693428,84.824009 81.052116,87.606525 C 83.615378,87.345536 86.17864,87.008019 88.741902,86.2807 C 89.822377,82.613301 89.632104,79.347328 87.888808,77.327128 C 85.654913,78.168653 83.745177,78.914511 80.636062,79.6096 z "
       style="fill:url(#radialGradient3545);fill-opacity:1.0;fill-rule:evenodd;stroke:none;stroke-width:1px;stroke-linecap:butt;stroke-linejoin:miter;stroke-opacity:1;opacity:0.37295082" />
    <path
       style="fill:url(#radialGradient3545);fill-opacity:1.0;fill-rule:evenodd;stroke:none;stroke-width:1px;stroke-linecap:butt;stroke-linejoin:miter;stroke-opacity:1;opacity:0.25819672"
       d="M 80.698562,79.8596 C 82.769077,81.964159 81.693428,84.824009 81.052116,87.606525 C 83.615378,87.345536 86.17864,87.008019 88.741902,86.2807 C 89.822377,82.613301 89.866479,79.581703 88.123183,77.561503 C 85.851717,78.463141 83.652434,79.4129 80.698562,79.8596 z "
       id="path3519"
       sodipodi:nodetypes="ccccc" />
  </g>
</svg>
