<?xml version="1.0" encoding="UTF-8" standalone="no"?>
<!-- Generator: Adobe Illustrator 12.0.0, SVG Export Plug-In . SVG Version: 6.00 Build 51448)  -->
<svg
   xmlns:ns="http://ns.adobe.com/SaveForWeb/1.0/"
   xmlns:a="http://ns.adobe.com/AdobeSVGViewerExtensions/3.0/"
   xmlns:dc="http://purl.org/dc/elements/1.1/"
   xmlns:cc="http://web.resource.org/cc/"
   xmlns:rdf="http://www.w3.org/1999/02/22-rdf-syntax-ns#"
   xmlns:svg="http://www.w3.org/2000/svg"
   xmlns="http://www.w3.org/2000/svg"
   xmlns:xlink="http://www.w3.org/1999/xlink"
   xmlns:sodipodi="http://sodipodi.sourceforge.net/DTD/sodipodi-0.dtd"
   xmlns:inkscape="http://www.inkscape.org/namespaces/inkscape"
   version="1.0"
   id="Layer_1"
   width="128"
   height="128"
   viewBox="0 0 109.547 119"
   overflow="visible"
   enable-background="new 0 0 109.547 119"
   xml:space="preserve"
   sodipodi:version="0.32"
   inkscape:version="0.44"
   sodipodi:docname="1downarrow.svg"
   sodipodi:docbase="/home/pinheiro/artwork/Oxygen/theme/svg/actions"><defs
   id="defs155"><radialGradient
   gradientTransform="matrix(0.2737,0,0,-1.859374e-2,-172.8686,-12.33444)"
   gradientUnits="userSpaceOnUse"
   id="path2295_1_"
   fy="-6071.0229"
   fx="267.36481"
   r="253.01871"
   cy="-6078.353"
   cx="265.3931">
				<stop
   id="stop8"
   offset="0"
   style="stop-color:#000000;stop-opacity:1" />
				<stop
   id="stop10"
   offset="1"
   style="stop-color:#ffffff;stop-opacity:1" />
				<a:midPointStop
   offset="0"
   style="stop-color:#000000" />
				<a:midPointStop
   offset="0.5"
   style="stop-color:#000000" />
				<a:midPointStop
   offset="1"
   style="stop-color:#FFFFFF" />
			</radialGradient>
	
		<linearGradient
   gradientTransform="matrix(0.93352,0,0,0.9375,-448.183,-628.1562)"
   y2="678.3681"
   x2="538.77338"
   y1="674"
   x1="538.77338"
   gradientUnits="userSpaceOnUse"
   id="XMLID_10_">
		<stop
   id="stop54"
   style="stop-color:#094422"
   offset="0" />
		<stop
   id="stop56"
   style="stop-color:#9ED676"
   offset="1" />
	</linearGradient>
	
	
		<linearGradient
   gradientTransform="matrix(1.064774,0,0,1.069314,-673.9037,-766.1109)"
   y2="736.55688"
   x2="579.72852"
   y1="732.41022"
   x1="579.72852"
   gradientUnits="userSpaceOnUse"
   id="XMLID_11_">
		<stop
   id="stop61"
   style="stop-color:#094422"
   offset="0" />
		<stop
   id="stop63"
   style="stop-color:#9ED676"
   offset="1" />
	</linearGradient>
	
	
		<linearGradient
   gradientTransform="matrix(1.064774,0,0,1.069314,-673.9037,-766.1109)"
   y2="736.62341"
   x2="497.81451"
   y1="732.4082"
   x1="497.81451"
   gradientUnits="userSpaceOnUse"
   id="XMLID_12_">
		<stop
   id="stop68"
   style="stop-color:#094422"
   offset="0" />
		<stop
   id="stop70"
   style="stop-color:#9ED676"
   offset="1" />
	</linearGradient>
	
<radialGradient
   gradientUnits="userSpaceOnUse"
   gradientTransform="matrix(6.22199e-2,-2.139143e-3,1.917326e-2,0.557675,-17.17308,47.99867)"
   r="64.156355"
   fy="99.649117"
   fx="-19.41374"
   cy="99.649117"
   cx="-19.41374"
   id="radialGradient2891"
   xlink:href="#linearGradient2885"
   inkscape:collect="always" /><radialGradient
   r="18.908777"
   fy="578.65271"
   fx="-634.81256"
   cy="565.84845"
   cx="-633.63702"
   gradientTransform="matrix(1,0,0,0.928571,0,40.41772)"
   gradientUnits="userSpaceOnUse"
   id="radialGradient3497"
   xlink:href="#linearGradient30549"
   inkscape:collect="always" /><linearGradient
   y2="217.92102"
   x2="-739.79175"
   y1="195.60983"
   x1="-742.43384"
   gradientUnits="userSpaceOnUse"
   id="linearGradient3495"
   xlink:href="#linearGradient30539"
   inkscape:collect="always" /><radialGradient
   r="5.2844129"
   fy="53.704475"
   fx="53.363365"
   cy="51.796238"
   cx="53.82272"
   gradientTransform="matrix(1,0,0,0.350763,0,33.62806)"
   gradientUnits="userSpaceOnUse"
   id="radialGradient3493"
   xlink:href="#linearGradient3201"
   inkscape:collect="always" /><radialGradient
   r="5.2844129"
   fy="53.704475"
   fx="53.363365"
   cy="51.796238"
   cx="53.82272"
   gradientTransform="matrix(1,0,0,0.350763,0,33.62806)"
   gradientUnits="userSpaceOnUse"
   id="radialGradient3491"
   xlink:href="#linearGradient3201"
   inkscape:collect="always" /><radialGradient
   r="8.3332365"
   fy="69.225014"
   fx="29.738691"
   cy="69.225014"
   cx="32.489605"
   gradientTransform="matrix(0.941643,-5.561611e-3,-2.729983e-2,10.25429,-90.27747,-623.9918)"
   gradientUnits="userSpaceOnUse"
   id="radialGradient3489"
   xlink:href="#linearGradient2288"
   inkscape:collect="always" /><radialGradient
   r="8.3332365"
   fy="62.298256"
   fx="45.900455"
   cy="62.380642"
   cx="49.157429"
   gradientTransform="matrix(0.941643,-5.561611e-3,-2.729983e-2,10.25429,-90.27747,-623.9918)"
   gradientUnits="userSpaceOnUse"
   id="radialGradient3487"
   xlink:href="#linearGradient2288"
   inkscape:collect="always" /><linearGradient
   inkscape:collect="always"
   id="linearGradient30539"><stop
     style="stop-color:#ffffff;stop-opacity:1;"
     offset="0"
     id="stop30541" /><stop
     style="stop-color:#ffffff;stop-opacity:0;"
     offset="1"
     id="stop30543" /></linearGradient><linearGradient
   inkscape:collect="always"
   id="linearGradient30549"><stop
     style="stop-color:#ffffff;stop-opacity:1;"
     offset="0"
     id="stop30551" /><stop
     style="stop-color:#ffffff;stop-opacity:0;"
     offset="1"
     id="stop30553" /></linearGradient><linearGradient
   inkscape:collect="always"
   id="linearGradient3201"><stop
     style="stop-color:#ffffff;stop-opacity:1;"
     offset="0"
     id="stop3203" /><stop
     style="stop-color:#ffffff;stop-opacity:0;"
     offset="1"
     id="stop3205" /></linearGradient><linearGradient
   inkscape:collect="always"
   id="linearGradient2288"><stop
     style="stop-color:#ffffff;stop-opacity:1;"
     offset="0"
     id="stop2290" /><stop
     style="stop-color:#ffffff;stop-opacity:0;"
     offset="1"
     id="stop2292" /></linearGradient><linearGradient
   gradientUnits="userSpaceOnUse"
   y2="91.598488"
   x2="-59.104649"
   y1="85.751129"
   x1="-59.104649"
   id="linearGradient3177"
   xlink:href="#linearGradient3171"
   inkscape:collect="always" /><linearGradient
   y2="40.731449"
   x2="71.446335"
   y1="57.376545"
   x1="62.508877"
   gradientTransform="matrix(0.8673,0,-0.31904,-0.767541,26.97749,71.72902)"
   gradientUnits="userSpaceOnUse"
   id="linearGradient3125"
   xlink:href="#linearGradient3098"
   inkscape:collect="always" /><radialGradient
   gradientUnits="userSpaceOnUse"
   gradientTransform="matrix(1.116644,0,0,0.21535,-4.880836,50.27877)"
   r="25.467844"
   fy="86.08176"
   fx="79.215528"
   cy="86.08176"
   cx="79.215528"
   id="radialGradient3121"
   xlink:href="#linearGradient3115"
   inkscape:collect="always" /><linearGradient
   gradientTransform="matrix(0.8673,0,0,0.67437,9.814995,-8.336795)"
   gradientUnits="userSpaceOnUse"
   y2="52.258823"
   x2="62.179413"
   y1="43.047058"
   x1="62.179413"
   id="linearGradient3104"
   xlink:href="#linearGradient3098"
   inkscape:collect="always" /><radialGradient
   r="54.829175"
   fy="-194.50902"
   fx="187.24454"
   cy="-194.50902"
   cx="187.24454"
   gradientTransform="matrix(1,0,0,0.120267,-246.0732,58.93986)"
   gradientUnits="userSpaceOnUse"
   id="radialGradient3094"
   xlink:href="#linearGradient3017"
   inkscape:collect="always" /><linearGradient
   y2="15.735216"
   x2="159.03088"
   y1="10.61757"
   x1="152.70868"
   gradientTransform="translate(-246.0732,35.82536)"
   gradientUnits="userSpaceOnUse"
   id="linearGradient3092"
   xlink:href="#linearGradient2964"
   inkscape:collect="always" /><linearGradient
   y2="32.21191"
   x2="171.31325"
   y1="-19.988091"
   x1="107.87319"
   gradientTransform="translate(-246.0732,35.82536)"
   gradientUnits="userSpaceOnUse"
   id="linearGradient3090"
   xlink:href="#linearGradient2964"
   inkscape:collect="always" /><linearGradient
   y2="32.21191"
   x2="171.31325"
   y1="11.188437"
   x1="138.87874"
   gradientTransform="translate(-246.0732,35.82536)"
   gradientUnits="userSpaceOnUse"
   id="linearGradient3088"
   xlink:href="#linearGradient2964"
   inkscape:collect="always" /><radialGradient
   r="54.829174"
   fy="61.042164"
   fx="186.80836"
   cy="37.935295"
   cx="186.80836"
   gradientTransform="matrix(1.270715,2.554783e-7,-1.070124e-7,0.532265,-296.2088,41.90812)"
   gradientUnits="userSpaceOnUse"
   id="radialGradient3086"
   xlink:href="#linearGradient3001"
   inkscape:collect="always" /><radialGradient
   r="54.829174"
   fy="78.644714"
   fx="192.72668"
   cy="55.537872"
   cx="192.72668"
   gradientTransform="matrix(1.085181,-3.733736e-2,2.828132e-2,0.821975,-262.3779,34.39202)"
   gradientUnits="userSpaceOnUse"
   id="radialGradient3084"
   xlink:href="#linearGradient3001"
   inkscape:collect="always" /><radialGradient
   r="54.829174"
   fy="61.146954"
   fx="187.24454"
   cy="61.146954"
   cx="187.24454"
   gradientTransform="matrix(1,0,0,0.484285,-246.0732,49.37548)"
   gradientUnits="userSpaceOnUse"
   id="radialGradient3082"
   xlink:href="#linearGradient3225"
   inkscape:collect="always" /><linearGradient
   y2="96.443199"
   x2="40.627037"
   y1="85.824081"
   x1="-2.6522288"
   gradientTransform="translate(-130.6359,0)"
   gradientUnits="userSpaceOnUse"
   id="linearGradient3064"
   xlink:href="#linearGradient2938"
   inkscape:collect="always" /><radialGradient
   r="64.140811"
   fy="79.203735"
   fx="11.760489"
   cy="88.294983"
   cx="-10.33372"
   gradientTransform="matrix(0.580608,0.155573,-0.108849,0.406231,-116.3609,67.07435)"
   gradientUnits="userSpaceOnUse"
   id="radialGradient3062"
   xlink:href="#linearGradient2911"
   inkscape:collect="always" /><radialGradient
   r="54.829175"
   fy="-194.50902"
   fx="187.24454"
   cy="-194.50902"
   cx="187.24454"
   gradientTransform="matrix(0.984669,0,0,0.118423,-243.2023,59.0887)"
   gradientUnits="userSpaceOnUse"
   id="radialGradient3060"
   xlink:href="#linearGradient3017"
   inkscape:collect="always" /><linearGradient
   y2="15.735216"
   x2="159.03088"
   y1="10.61757"
   x1="152.70868"
   gradientTransform="translate(-246.0732,35.82536)"
   gradientUnits="userSpaceOnUse"
   id="linearGradient3058"
   xlink:href="#linearGradient2964"
   inkscape:collect="always" /><linearGradient
   y2="32.21191"
   x2="171.31325"
   y1="-19.988091"
   x1="107.87319"
   gradientTransform="translate(-246.0732,35.82536)"
   gradientUnits="userSpaceOnUse"
   id="linearGradient3056"
   xlink:href="#linearGradient2964"
   inkscape:collect="always" /><linearGradient
   y2="32.21191"
   x2="171.31325"
   y1="11.188437"
   x1="138.87874"
   gradientTransform="translate(-246.0732,35.82536)"
   gradientUnits="userSpaceOnUse"
   id="linearGradient3054"
   xlink:href="#linearGradient2964"
   inkscape:collect="always" /><radialGradient
   r="54.829174"
   fy="61.042164"
   fx="186.80836"
   cy="37.935295"
   cx="186.80836"
   gradientTransform="matrix(1.270715,2.554783e-7,-1.070124e-7,0.532265,-296.2088,41.90812)"
   gradientUnits="userSpaceOnUse"
   id="radialGradient3052"
   xlink:href="#linearGradient3001"
   inkscape:collect="always" /><radialGradient
   r="54.829174"
   fy="78.644714"
   fx="192.72668"
   cy="55.537872"
   cx="192.72668"
   gradientTransform="matrix(1.085181,-3.733736e-2,2.828132e-2,0.821975,-262.3779,34.39202)"
   gradientUnits="userSpaceOnUse"
   id="radialGradient3050"
   xlink:href="#linearGradient3001"
   inkscape:collect="always" /><radialGradient
   r="54.829174"
   fy="61.146954"
   fx="187.24454"
   cy="61.146954"
   cx="187.24454"
   gradientTransform="matrix(1,0,0,0.484285,-246.0732,49.37548)"
   gradientUnits="userSpaceOnUse"
   id="radialGradient3048"
   xlink:href="#linearGradient3225"
   inkscape:collect="always" /><radialGradient
   gradientUnits="userSpaceOnUse"
   gradientTransform="matrix(1,0,0,0.197802,0,92.82166)"
   r="63.912209"
   fy="115.7093"
   fx="63.912209"
   cy="115.70919"
   cx="63.912209"
   id="radialGradient3297"
   xlink:href="#linearGradient3291"
   inkscape:collect="always" /><linearGradient
   id="linearGradient3225"><stop
     id="stop3227"
     offset="0"
     style="stop-color:#ddd;stop-opacity:1;" /><stop
     id="stop3229"
     offset="1"
     style="stop-color:#aeaeae;stop-opacity:1;" /></linearGradient><linearGradient
   id="linearGradient3291"
   inkscape:collect="always"><stop
     id="stop3293"
     offset="0"
     style="stop-color:#000000;stop-opacity:1;" /><stop
     id="stop3295"
     offset="1"
     style="stop-color:#000000;stop-opacity:0;" /></linearGradient><linearGradient
   id="linearGradient2911"><stop
     id="stop2913"
     offset="0"
     style="stop-color:white;stop-opacity:1;" /><stop
     style="stop-color:white;stop-opacity:0.50541514;"
     offset="0.15384616"
     id="stop2923" /><stop
     style="stop-color:white;stop-opacity:0.37184116;"
     offset="0.5"
     id="stop2921" /><stop
     id="stop2915"
     offset="1"
     style="stop-color:white;stop-opacity:0;" /></linearGradient><linearGradient
   id="linearGradient2938"
   inkscape:collect="always"><stop
     id="stop2940"
     offset="0"
     style="stop-color:#d1d1d1;stop-opacity:1;" /><stop
     id="stop2942"
     offset="1"
     style="stop-color:#d1d1d1;stop-opacity:0;" /></linearGradient><linearGradient
   id="linearGradient2964"
   inkscape:collect="always"><stop
     id="stop2966"
     offset="0"
     style="stop-color:white;stop-opacity:1;" /><stop
     id="stop2968"
     offset="1"
     style="stop-color:white;stop-opacity:0;" /></linearGradient><linearGradient
   id="linearGradient3001"><stop
     style="stop-color:white;stop-opacity:0;"
     offset="0"
     id="stop3003" /><stop
     id="stop3009"
     offset="0.67582417"
     style="stop-color:#7f7f7f;stop-opacity:0;" /><stop
     style="stop-color:black;stop-opacity:1;"
     offset="1"
     id="stop3005" /></linearGradient><linearGradient
   id="linearGradient3017"
   inkscape:collect="always"><stop
     id="stop3019"
     offset="0"
     style="stop-color:white;stop-opacity:1;" /><stop
     id="stop3021"
     offset="1"
     style="stop-color:white;stop-opacity:0;" /></linearGradient><linearGradient
   id="linearGradient3098"
   inkscape:collect="always"><stop
     id="stop3100"
     offset="0"
     style="stop-color:#282828;stop-opacity:1;" /><stop
     id="stop3102"
     offset="1"
     style="stop-color:#282828;stop-opacity:0;" /></linearGradient><linearGradient
   id="linearGradient3115"
   inkscape:collect="always"><stop
     id="stop3117"
     offset="0"
     style="stop-color:#282828;stop-opacity:1;" /><stop
     id="stop3119"
     offset="1"
     style="stop-color:#282828;stop-opacity:0;" /></linearGradient><linearGradient
   id="linearGradient3171"><stop
     id="stop3173"
     offset="0"
     style="stop-color:#2b2b2b;stop-opacity:1;" /><stop
     id="stop3175"
     offset="1"
     style="stop-color:black;stop-opacity:1;" /></linearGradient><linearGradient
   id="linearGradient3537"
   inkscape:collect="always"><stop
     id="stop3539"
     offset="0"
     style="stop-color:#cf4913;stop-opacity:1;" /><stop
     id="stop3541"
     offset="1"
     style="stop-color:#cf4913;stop-opacity:0;" /></linearGradient><linearGradient
   id="linearGradient2885"><stop
     id="stop2887"
     offset="0"
     style="stop-color:#28cf13;stop-opacity:1;" /><stop
     id="stop2889"
     offset="1"
     style="stop-color:#2ccf13;stop-opacity:0;" /></linearGradient><radialGradient
   inkscape:collect="always"
   xlink:href="#XMLID_14_"
   id="radialGradient2219"
   gradientUnits="userSpaceOnUse"
   gradientTransform="matrix(7.522207,-1.976912,0.100323,0.381734,-573.237,206.809)"
   cx="82.741241"
   cy="85.108742"
   fx="84.286263"
   fy="85.545609"
   r="4.401979" /><radialGradient
   inkscape:collect="always"
   xlink:href="#linearGradient3537"
   id="radialGradient2222"
   gradientUnits="userSpaceOnUse"
   gradientTransform="matrix(7.483943,-1.902587,0.262414,1.032223,-583.8663,145.297)"
   cx="82.741241"
   cy="85.108742"
   fx="84.286263"
   fy="85.545609"
   r="4.4019789" /><linearGradient
   inkscape:collect="always"
   xlink:href="#XMLID_14_"
   id="linearGradient2225"
   gradientUnits="userSpaceOnUse"
   x1="63.25"
   y1="71.25"
   x2="97"
   y2="58.25"
   gradientTransform="matrix(0.930574,0,0,0.930574,-4.743817,-3.901932)" /><linearGradient
   inkscape:collect="always"
   xlink:href="#XMLID_9_"
   id="linearGradient3170"
   x1="-52.571316"
   y1="15.480895"
   x2="-52.571316"
   y2="11.088505"
   gradientUnits="userSpaceOnUse" /></defs><sodipodi:namedview
   inkscape:window-height="654"
   inkscape:window-width="1124"
   inkscape:pageshadow="2"
   inkscape:pageopacity="0.0"
   borderopacity="1.0"
   bordercolor="#666666"
   pagecolor="#ffffff"
   id="base"
   inkscape:showpageshadow="false"
   inkscape:zoom="1.1111678"
   inkscape:cx="-261.74663"
   inkscape:cy="-5.9111996"
   inkscape:window-x="75"
   inkscape:window-y="233"
   inkscape:current-layer="Layer_1"
   showguides="true"
   inkscape:guide-bbox="true" />
<metadata
   id="metadata3">
	<ns:sfw>
		<ns:slices />
		<ns:sliceSourceBounds
   x="0"
   y="0"
   height="128"
   width="128"
   bottomLeftOrigin="true" />
	</ns:sfw>
<rdf:RDF><cc:Work
     rdf:about=""><dc:format>image/svg+xml</dc:format><dc:type
       rdf:resource="http://purl.org/dc/dcmitype/StillImage" /></cc:Work></rdf:RDF></metadata>

<linearGradient
   id="XMLID_9_"
   gradientUnits="userSpaceOnUse"
   x1="538.77338"
   y1="793"
   x2="538.77338"
   y2="674"
   gradientTransform="translate(-484,-674)">
	<stop
   offset="0"
   style="stop-color:#094422"
   id="stop7" />
	<stop
   offset="0.1124"
   style="stop-color:#095A22"
   id="stop9" />
	<stop
   offset="0.4045"
   style="stop-color:#1E7D27"
   id="stop11" />
	<stop
   offset="0.4231"
   style="stop-color:#217F29"
   id="stop13" />
	<stop
   offset="0.4369"
   style="stop-color:#2A8531"
   id="stop15" />
	<stop
   offset="0.4491"
   style="stop-color:#3A8F3D"
   id="stop17" />
	<stop
   offset="0.4605"
   style="stop-color:#519D4E"
   id="stop19" />
	<stop
   offset="0.4712"
   style="stop-color:#6EAF64"
   id="stop21" />
	<stop
   offset="0.4814"
   style="stop-color:#92C680"
   id="stop23" />
	<stop
   offset="0.4911"
   style="stop-color:#BCE0A0"
   id="stop25" />
	<stop
   offset="0.4944"
   style="stop-color:#CCEAAC"
   id="stop27" />
	<stop
   offset="0.5124"
   style="stop-color:#A4CD90"
   id="stop29" />
	<stop
   offset="0.5326"
   style="stop-color:#80B276"
   id="stop31" />
	<stop
   offset="0.5552"
   style="stop-color:#609A5F"
   id="stop33" />
	<stop
   offset="0.5803"
   style="stop-color:#44864C"
   id="stop35" />
	<stop
   offset="0.6086"
   style="stop-color:#2E763C"
   id="stop37" />
	<stop
   offset="0.6416"
   style="stop-color:#1D6931"
   id="stop39" />
	<stop
   offset="0.6825"
   style="stop-color:#126028"
   id="stop41" />
	<stop
   offset="0.7398"
   style="stop-color:#0B5B23"
   id="stop43" />
	<stop
   offset="0.8989"
   style="stop-color:#095A22"
   id="stop45" />
	<stop
   offset="1"
   style="stop-color:#9ED676"
   id="stop47" />
</linearGradient>






<radialGradient
   id="XMLID_13_"
   cx="538.77252"
   cy="792.99609"
   r="121.5466"
   gradientTransform="translate(-484,-674)"
   gradientUnits="userSpaceOnUse">
	<stop
   offset="0"
   style="stop-color:#FFFAB3"
   id="stop83" />
	<stop
   offset="0.0494"
   style="stop-color:#DFEE9F"
   id="stop85" />
	<stop
   offset="0.1049"
   style="stop-color:#C3E48D"
   id="stop87" />
	<stop
   offset="0.1605"
   style="stop-color:#AEDC80"
   id="stop89" />
	<stop
   offset="0.2156"
   style="stop-color:#A2D879"
   id="stop91" />
	<stop
   offset="0.2697"
   style="stop-color:#9ED676"
   id="stop93" />
	<stop
   offset="0.3989"
   style="stop-color:#3BA42A"
   id="stop95" />
	<stop
   offset="0.3995"
   style="stop-color:#3BA42A"
   id="stop97" />
	<stop
   offset="0.4484"
   style="stop-color:#258426"
   id="stop99" />
	<stop
   offset="0.4956"
   style="stop-color:#166D24"
   id="stop101" />
	<stop
   offset="0.54"
   style="stop-color:#0C5F23"
   id="stop103" />
	<stop
   offset="0.5787"
   style="stop-color:#095A22"
   id="stop105" />
	<stop
   offset="0.5948"
   style="stop-color:#166727"
   id="stop107" />
	<stop
   offset="0.6456"
   style="stop-color:#388B33"
   id="stop109" />
	<stop
   offset="0.6932"
   style="stop-color:#51A53C"
   id="stop111" />
	<stop
   offset="0.7359"
   style="stop-color:#61B542"
   id="stop113" />
	<stop
   offset="0.7697"
   style="stop-color:#66BA44"
   id="stop115" />
	<stop
   offset="1"
   style="stop-color:#095A22"
   id="stop117" />
</radialGradient>

<linearGradient
   id="XMLID_14_"
   gradientUnits="userSpaceOnUse"
   x1="538.77338"
   y1="677.87701"
   x2="538.77338"
   y2="789.12207"
   gradientTransform="translate(-484,-674)">
	<stop
   offset="0.0056"
   style="stop-color:#1E7D27"
   id="stop122" />
	<stop
   offset="0.1348"
   style="stop-color:#3BA42A"
   id="stop124" />
	<stop
   offset="0.4831"
   style="stop-color:#B8E57F"
   id="stop126" />
	<stop
   offset="0.6299"
   style="stop-color:#A9E66E"
   id="stop128" />
	<stop
   offset="0.8528"
   style="stop-color:#97E859"
   id="stop130" />
	<stop
   offset="1"
   style="stop-color:#91E851"
   id="stop132" />
</linearGradient>

<radialGradient
   id="XMLID_15_"
   cx="538.77338"
   cy="651.10352"
   r="126.0234"
   gradientTransform="translate(-484,-674)"
   gradientUnits="userSpaceOnUse">
	<stop
   offset="0"
   style="stop-color:#CCEAAC"
   id="stop137" />
	<stop
   offset="0.5393"
   style="stop-color:#3BA42A"
   id="stop139" />
	<stop
   offset="1"
   style="stop-color:#91E851"
   id="stop141" />
</radialGradient>

<linearGradient
   id="XMLID_16_"
   gradientUnits="userSpaceOnUse"
   x1="538.77338"
   y1="675.48541"
   x2="538.77338"
   y2="677.06049"
   gradientTransform="translate(-484,-674)">
	<stop
   offset="0"
   style="stop-color:#FFFFFF"
   id="stop146" />
	<stop
   offset="1"
   style="stop-color:#00BF00"
   id="stop148" />
</linearGradient>


<path
   sodipodi:nodetypes="ccc"
   id="path2276"
   d="M 42.615699,-0.84844335 L 42.615699,-3.4491264 L 42.615699,-0.84844335 z "
   style="fill:white;fill-opacity:0.75688076;fill-rule:nonzero;stroke:none;stroke-width:0.5;stroke-linecap:round;stroke-linejoin:round;stroke-miterlimit:4;stroke-dasharray:none;stroke-dashoffset:4;stroke-opacity:1" /><path
   sodipodi:type="arc"
   style="opacity:0.38139535;fill:url(#radialGradient3297);fill-opacity:1;fill-rule:nonzero;stroke:none;stroke-width:0;stroke-linecap:round;stroke-linejoin:round;stroke-miterlimit:4;stroke-dasharray:none;stroke-dashoffset:4;stroke-opacity:1"
   id="path3289"
   sodipodi:cx="63.912209"
   sodipodi:cy="115.70919"
   sodipodi:rx="63.912209"
   sodipodi:ry="12.641975"
   d="M 127.82442 115.70919 A 63.912209 12.641975 0 1 1  0,115.70919 A 63.912209 12.641975 0 1 1  127.82442 115.70919 z"
   transform="matrix(0.930574,0,0,0.387739,-4.743817,65.77155)" /><g
   id="g2013"
   transform="matrix(0.80358,0,0,0.80358,-4.737904,12.36941)"><g
     transform="matrix(0.98461,0,0,0.98461,122.1797,-3.397062)"
     id="g3042"><path
       sodipodi:nodetypes="cccssccccc"
       id="path3027"
       d="M -113.7609,85.109336 L -123.92697,97.412497 L -124.04215,104.20309 C -102.6318,109.17184 -84.078115,110.18768 -59.385898,110.20309 C -59.193503,110.20321 -59.016547,110.20309 -58.823398,110.20309 C -34.131184,110.18768 -15.878742,108.99021 5.5316081,104.02146 L 5.8328525,97.940427 L 5.6243786,97.110184 L -4.4171475,85.109336 C -13.699949,79.765683 -100.47398,78.494114 -113.7609,85.109336 z "
       style="fill:url(#linearGradient3177);fill-opacity:1;fill-rule:nonzero;stroke:none;stroke-width:0.1;stroke-linecap:round;stroke-linejoin:round;stroke-miterlimit:4;stroke-dashoffset:4;stroke-opacity:1" /><path
       style="fill:black;fill-opacity:1;fill-rule:nonzero;stroke:none;stroke-width:0.1;stroke-linecap:round;stroke-linejoin:round;stroke-miterlimit:4;stroke-dashoffset:4;stroke-opacity:1"
       d="M -113.7609,85.109336 L -123.92408,97.218661 C -124.01041,97.305781 -124.03704,97.414731 -124.04215,97.532861 L -124.04215,104.20309 C -102.6318,109.17184 -84.078115,110.18768 -59.385898,110.20309 C -59.193503,110.20321 -59.016547,110.20309 -58.823398,110.20309 C -34.260109,110.18776 -15.771413,109.18242 5.4977168,104.2806 C 5.6461947,104.24638 5.8318922,104.11323 5.8328525,103.96974 L 5.8328525,97.674623 C 5.8230775,97.483507 5.7657739,97.310214 5.6614909,97.154538 L -4.4171475,85.109336 C -22.440068,89.29196 -38.069104,90.158868 -58.854648,90.171836 C -59.017238,90.171836 -59.16144,90.171939 -59.323398,90.171836 C -80.108941,90.158866 -95.737982,89.291959 -113.7609,85.109336 z "
       id="rect1979"
       sodipodi:nodetypes="ccccsssccccssc" /><path
       style="opacity:0.81557378;fill:url(#radialGradient3062);fill-opacity:1;fill-rule:nonzero;stroke:none;stroke-width:0.1;stroke-linecap:round;stroke-linejoin:round;stroke-miterlimit:4;stroke-dashoffset:4;stroke-opacity:1"
       d="M 5.9330934,97.237018 C -15.477257,102.20577 -34.030943,103.22161 -58.723157,103.23702 C -58.916306,103.23702 -59.093262,103.23714 -59.285657,103.23702 C -82.544016,103.2225 -100.37127,102.30669 -120.25441,98.049518 C -120.81969,97.966531 -121.35663,98.149962 -121.75036,98.54143 C -122.77149,99.556684 -122.24907,102.51153 -122.22316,104.36202 C -101.53602,108.99035 -83.309853,109.97203 -59.285657,109.98702 C -59.093262,109.98714 -58.916306,109.98702 -58.723157,109.98702 C -34.230789,109.97173 -15.777987,108.97215 5.4137979,104.10689 L 5.9330934,103.78255 L 5.9330934,97.237018 z "
       id="path2879"
       sodipodi:nodetypes="csscscssscc" /><path
       style="fill:url(#linearGradient3064);fill-opacity:1;fill-rule:nonzero;stroke:none;stroke-width:0.1;stroke-linecap:round;stroke-linejoin:round;stroke-miterlimit:4;stroke-dashoffset:4;stroke-opacity:1"
       d="M -112.32818,87.940441 C -114.95379,90.080475 -115.90854,92.380314 -116.89399,94.414338 C -117.86695,96.422602 -120.41481,97.885331 -121.06467,98.296507 C -120.82674,98.226714 -120.61605,98.211625 -120.35465,98.25 C -107.44662,101.01373 -95.390742,102.35386 -82.167148,102.96875 C -71.812276,90.001641 -96.319653,89.161602 -100.64582,88.221691 C -105.0331,87.268505 -109.70256,85.800407 -112.32818,87.940441 z "
       id="path2927"
       sodipodi:nodetypes="czccczz" /><path
       sodipodi:nodetypes="csscscssscc"
       id="path1994"
       d="M 5.9330934,97.237018 C -15.477257,102.20577 -34.030943,103.22161 -58.723157,103.23702 C -58.916306,103.23702 -59.093262,103.23714 -59.285657,103.23702 C -82.544016,103.2225 -100.37127,102.30669 -120.25441,98.049518 C -120.81969,97.966531 -121.35663,98.149962 -121.75036,98.54143 C -122.77149,99.556684 -122.24907,102.51153 -122.22316,104.36202 C -101.53602,108.99035 -83.309853,109.97203 -59.285657,109.98702 C -59.093262,109.98714 -58.916306,109.98702 -58.723157,109.98702 C -34.230789,109.97173 -15.777987,108.97215 5.4137979,104.10689 L 5.9330934,103.78255 L 5.9330934,97.237018 z "
       style="opacity:0.29098361;fill:url(#radialGradient2891);fill-opacity:1;fill-rule:nonzero;stroke:none;stroke-width:0.1;stroke-linecap:round;stroke-linejoin:round;stroke-miterlimit:4;stroke-dashoffset:4;stroke-opacity:1" /></g><g
     transform="matrix(0.98461,0,0,0.98461,121.9079,-4.746992)"
     id="g3033"><path
       style="fill:url(#radialGradient3048);fill-opacity:1;fill-rule:evenodd;stroke:none;stroke-width:0.09790357;stroke-linecap:butt;stroke-linejoin:miter;stroke-miterlimit:4;stroke-dasharray:none;stroke-opacity:1"
       d="M -60.594279,33.519212 C -90.888999,34.051561 -105.37093,44.983476 -107.75143,68.64842 C -114.0107,71.338151 -113.60492,75.741563 -113.6578,79.94066 C -97.678379,88.232156 -82.615499,88.558894 -60.094269,88.622542 L -60.094269,88.652495 C -59.648859,88.652495 -59.252619,88.653072 -58.812999,88.652495 C -58.383959,88.653043 -57.997519,88.652495 -57.562979,88.652495 L -57.562979,88.622542 C -35.041749,88.558894 -19.978869,88.232156 -3.9994487,79.94066 C -4.0523187,75.741563 -3.6152887,71.338151 -9.8745587,68.64842 C -12.268809,44.846871 -26.941089,33.957834 -57.594229,33.519212 C -58.594249,33.513732 -59.594289,33.515052 -60.594279,33.519212 z "
       id="path2949"
       sodipodi:nodetypes="cccccscccccc" /><path
       style="fill:url(#radialGradient3050);fill-opacity:1;fill-rule:evenodd;stroke:none;stroke-width:0.09790357;stroke-linecap:butt;stroke-linejoin:miter;stroke-miterlimit:4;stroke-dasharray:none;stroke-opacity:1"
       d="M -60.594279,33.519212 C -90.888999,34.051561 -105.37093,44.983476 -107.75143,68.64842 C -114.0107,71.338151 -113.60492,75.741563 -113.6578,79.94066 C -97.678379,88.232156 -82.615499,88.558894 -60.094269,88.622542 L -60.094269,88.652495 C -59.648859,88.652495 -59.252619,88.653072 -58.812999,88.652495 C -58.383959,88.653043 -57.997519,88.652495 -57.562979,88.652495 L -57.562979,88.622542 C -35.041749,88.558894 -19.978869,88.232156 -3.9994487,79.94066 C -4.0523187,75.741563 -3.6152887,71.338151 -9.8745587,68.64842 C -12.268809,44.846871 -26.941089,33.957834 -57.594229,33.519212 C -58.594249,33.513732 -59.594289,33.515052 -60.594279,33.519212 z "
       id="path3011"
       sodipodi:nodetypes="cccccscccccc" /><path
       sodipodi:nodetypes="cccccscccccc"
       id="path2999"
       d="M -60.594279,33.519213 C -90.888999,34.051562 -105.37093,44.983476 -107.75143,68.64842 C -114.0107,71.338151 -113.60492,75.741563 -113.6578,79.94066 C -97.678379,88.232156 -82.615499,89.558894 -60.094269,89.622542 L -60.094269,89.652495 C -59.648859,89.652495 -59.252619,89.653072 -58.812999,89.652495 C -58.383959,89.653043 -57.997519,89.652495 -57.562979,89.652495 L -57.562979,89.622542 C -35.041749,89.558894 -19.978869,88.232156 -3.9994487,79.94066 C -4.0523187,75.741563 -3.6152887,71.338151 -9.8745587,68.64842 C -12.268809,44.846871 -26.941089,33.957835 -57.594229,33.519213 C -58.594249,33.513733 -59.594289,33.515053 -60.594279,33.519213 z "
       style="fill:url(#radialGradient3052);fill-opacity:1;fill-rule:evenodd;stroke:none;stroke-width:0.09790357;stroke-linecap:butt;stroke-linejoin:miter;stroke-miterlimit:4;stroke-dasharray:none;stroke-opacity:1" /><path
       style="fill:url(#linearGradient3054);fill-opacity:1;fill-rule:evenodd;stroke:none;stroke-width:1px;stroke-linecap:butt;stroke-linejoin:miter;stroke-opacity:1"
       d="M -54.077569,39.630505 C -68.121809,39.790485 -98.022679,32.646191 -104.69816,69.596681 C -104.73038,71.169713 -99.807449,70.247145 -99.452569,70.748152 C -99.097689,71.249159 -98.459389,71.917574 -99.196689,71.963592 C -101.49877,72.363747 -109.03812,71.028905 -109.75184,78.488593 C -109.86186,80.250411 -103.51676,82.587682 -98.429039,83.478299 C -96.364499,83.967459 -97.234929,79.043004 -96.637869,76.825357 C -96.246269,75.777377 -88.556249,75.055504 -88.449629,74.266534 C -88.595339,73.276175 -92.191909,71.849867 -94.079039,70.684181 C -89.772159,43.486844 -74.558229,41.033896 -54.077569,39.630505 z "
       id="path2958"
       sodipodi:nodetypes="cczccccccc" /><path
       sodipodi:nodetypes="cczccccccc"
       id="path2960"
       d="M -53.777569,39.530505 C -67.310049,39.17872 -98.322679,32.646191 -104.99816,69.596681 C -105.03038,71.169713 -100.10745,70.247145 -99.752569,70.748152 C -99.397689,71.249159 -98.759389,71.917574 -99.496689,71.963592 C -101.79877,72.363747 -109.33812,71.028905 -110.05184,78.488593 C -110.16186,80.250411 -101.72558,82.971506 -96.637869,83.862123 C -94.573329,84.351283 -95.955509,79.68271 -95.358449,77.465063 C -94.966859,76.417083 -84.845959,75.183445 -84.739339,74.394475 C -84.885049,73.404116 -90.400729,71.977808 -92.287869,70.812122 C -87.980979,43.614785 -73.746469,42.725072 -53.777569,39.530505 z "
       style="fill:url(#linearGradient3056);fill-opacity:1;fill-rule:evenodd;stroke:none;stroke-width:1px;stroke-linecap:butt;stroke-linejoin:miter;stroke-opacity:1" /><path
       style="fill:url(#linearGradient3058);fill-opacity:1;fill-rule:evenodd;stroke:none;stroke-width:1px;stroke-linecap:butt;stroke-linejoin:miter;stroke-opacity:1"
       d="M -53.777569,39.530505 C -65.774749,39.306661 -98.522679,32.646191 -105.19816,69.596681 C -105.23038,71.169713 -100.30745,70.247145 -99.952569,70.748152 C -99.597689,71.249159 -98.959389,71.917574 -99.696689,71.963592 C -101.99877,72.363747 -109.53812,71.028905 -110.25184,78.488593 C -110.36186,80.250411 -100.06235,83.739153 -94.974629,84.62977 C -92.910089,85.11893 -94.164339,80.450357 -93.567279,78.23271 C -93.175679,77.18473 -77.809189,75.055504 -77.702569,74.266534 C -77.848279,73.276175 -89.377209,72.745455 -91.264339,71.579769 C -86.957449,44.382432 -73.746469,42.725072 -53.777569,39.530505 z "
       id="path2962"
       sodipodi:nodetypes="cczccccccc" /><path
       style="fill:url(#radialGradient3060);fill-opacity:1;fill-rule:evenodd;stroke:none;stroke-width:0.09790357;stroke-linecap:butt;stroke-linejoin:miter;stroke-miterlimit:4;stroke-dasharray:none;stroke-opacity:1"
       d="M -60.56697,34.057776 C -90.397244,34.581963 -104.65715,45.346282 -107.00116,68.64842 L -10.624831,68.64842 C -12.982375,45.211771 -27.429715,34.489673 -57.612914,34.057776 C -58.597603,34.05238 -59.582311,34.05368 -60.56697,34.057776 z "
       id="path3015"
       sodipodi:nodetypes="ccccc" /></g><path
     sodipodi:nodetypes="ccccc"
     id="rect3123"
     d="M 79.099059,40.465975 L 85.389311,35.800419 C 85.175613,31.626859 75.540976,30.497065 67.832738,30.134072 L 59.399517,30.134072 C 61.71643,32.457644 78.670986,37.261197 79.099059,40.465975 z "
     style="fill:url(#linearGradient3125);fill-opacity:1;fill-rule:nonzero;stroke:none;stroke-width:0.1;stroke-linecap:round;stroke-linejoin:round;stroke-miterlimit:4;stroke-dashoffset:4;stroke-opacity:1" /><path
     sodipodi:nodetypes="ccccc"
     id="rect3106"
     d="M 59.526619,20.692879 L 67.959841,20.692879 L 67.959841,30.356217 C 66.187625,31.300868 61.009842,31.489394 59.526619,30.356217 L 59.526619,20.692879 z "
     style="fill:#c1c1c1;fill-opacity:1;fill-rule:nonzero;stroke:none;stroke-width:0.1;stroke-linecap:round;stroke-linejoin:round;stroke-miterlimit:4;stroke-dashoffset:4;stroke-opacity:1" /><rect
     y="20.692881"
     x="59.526623"
     height="9.6633368"
     width="8.4332218"
     id="rect3096"
     style="opacity:1;fill:url(#linearGradient3104);fill-opacity:1;fill-rule:nonzero;stroke:none;stroke-width:0.1;stroke-linecap:round;stroke-linejoin:round;stroke-miterlimit:4;stroke-dasharray:none;stroke-dashoffset:4;stroke-opacity:1" /><g
     id="g3066"
     transform="matrix(0.165691,0,0,0.213595,73.79585,4.324573)"><path
       sodipodi:nodetypes="cccccscccccc"
       id="path3068"
       d="M -60.594279,35.550473 C -90.888999,36.082822 -105.37093,44.983476 -107.75143,68.64842 C -114.0107,71.338151 -113.60492,75.741563 -113.6578,79.94066 C -97.678379,88.232156 -82.615499,88.558894 -60.094269,88.622542 L -60.094269,88.652495 C -59.648859,88.652495 -59.252619,88.653072 -58.812999,88.652495 C -58.383959,88.653043 -57.997519,88.652495 -57.562979,88.652495 L -57.562979,88.622542 C -35.041749,88.558894 -19.978869,88.232156 -3.9994487,79.94066 C -4.0523187,75.741563 -3.6152887,71.338151 -9.8745587,68.64842 C -12.268809,44.846871 -26.941089,35.989095 -57.594229,35.550473 C -58.594249,35.544993 -59.594289,35.546313 -60.594279,35.550473 z "
       style="fill:url(#radialGradient3082);fill-opacity:1;fill-rule:evenodd;stroke:none;stroke-width:0.09790357;stroke-linecap:butt;stroke-linejoin:miter;stroke-miterlimit:4;stroke-dasharray:none;stroke-opacity:1" /><path
       sodipodi:nodetypes="cccccscccccc"
       id="path3070"
       d="M -60.594279,35.550473 C -90.888999,36.082822 -105.37093,44.983476 -107.75143,68.64842 C -114.0107,71.338151 -113.60492,75.741563 -113.6578,79.94066 C -97.678379,88.232156 -82.615499,88.558894 -60.094269,88.622542 L -60.094269,88.652495 C -59.648859,88.652495 -59.252619,88.653072 -58.812999,88.652495 C -58.383959,88.653043 -57.997519,88.652495 -57.562979,88.652495 L -57.562979,88.622542 C -35.041749,88.558894 -19.978869,88.232156 -3.9994487,79.94066 C -4.0523187,75.741563 -3.6152887,71.338151 -9.8745587,68.64842 C -12.268809,44.846871 -26.941089,35.989095 -57.594229,35.550473 C -58.594249,35.544993 -59.594289,35.546313 -60.594279,35.550473 z "
       style="fill:url(#radialGradient3084);fill-opacity:1;fill-rule:evenodd;stroke:none;stroke-width:0.09790357;stroke-linecap:butt;stroke-linejoin:miter;stroke-miterlimit:4;stroke-dasharray:none;stroke-opacity:1" /><path
       style="fill:url(#radialGradient3086);fill-opacity:1;fill-rule:evenodd;stroke:none;stroke-width:0.09790357;stroke-linecap:butt;stroke-linejoin:miter;stroke-miterlimit:4;stroke-dasharray:none;stroke-opacity:1"
       d="M -60.594279,35.550473 C -90.888999,36.082822 -105.37093,44.983476 -107.75143,68.64842 C -114.0107,71.338151 -113.60492,75.741563 -113.6578,79.94066 C -97.678379,88.232156 -82.615499,89.558894 -60.094269,89.622542 L -60.094269,89.652495 C -59.648859,89.652495 -59.252619,89.653072 -58.812999,89.652495 C -58.383959,89.653043 -57.997519,89.652495 -57.562979,89.652495 L -57.562979,89.622542 C -35.041749,89.558894 -19.978869,88.232156 -3.9994487,79.94066 C -4.0523187,75.741563 -3.6152887,71.338151 -9.8745587,68.64842 C -12.268809,44.846871 -26.941089,35.989095 -57.594229,35.550473 C -58.594249,35.544993 -59.594289,35.546313 -60.594279,35.550473 z "
       id="path3072"
       sodipodi:nodetypes="cccccscccccc" /><path
       sodipodi:nodetypes="cczccccccc"
       id="path3074"
       d="M -54.077569,39.630505 C -68.121809,39.790485 -98.022679,32.646191 -104.69816,69.596681 C -104.73038,71.169713 -99.807449,70.247145 -99.452569,70.748152 C -99.097689,71.249159 -98.459389,71.917574 -99.196689,71.963592 C -101.49877,72.363747 -109.03812,71.028905 -109.75184,78.488593 C -109.86186,80.250411 -103.51676,82.587682 -98.429039,83.478299 C -96.364499,83.967459 -97.234929,79.043004 -96.637869,76.825357 C -96.246269,75.777377 -88.556249,75.055504 -88.449629,74.266534 C -88.595339,73.276175 -92.191909,71.849867 -94.079039,70.684181 C -89.772159,43.486844 -74.558229,41.033896 -54.077569,39.630505 z "
       style="fill:url(#linearGradient3088);fill-opacity:1;fill-rule:evenodd;stroke:none;stroke-width:1px;stroke-linecap:butt;stroke-linejoin:miter;stroke-opacity:1" /><path
       style="fill:url(#linearGradient3090);fill-opacity:1;fill-rule:evenodd;stroke:none;stroke-width:1px;stroke-linecap:butt;stroke-linejoin:miter;stroke-opacity:1"
       d="M -53.777569,39.530505 C -67.310049,39.17872 -98.322679,32.646191 -104.99816,69.596681 C -105.03038,71.169713 -100.10745,70.247145 -99.752569,70.748152 C -99.397689,71.249159 -98.759389,71.917574 -99.496689,71.963592 C -101.79877,72.363747 -109.33812,71.028905 -110.05184,78.488593 C -110.16186,80.250411 -101.72558,82.971506 -96.637869,83.862123 C -94.573329,84.351283 -95.955509,79.68271 -95.358449,77.465063 C -94.966859,76.417083 -84.845959,75.183445 -84.739339,74.394475 C -84.885049,73.404116 -90.400729,71.977808 -92.287869,70.812122 C -87.980979,43.614785 -73.746469,42.725072 -53.777569,39.530505 z "
       id="path3076"
       sodipodi:nodetypes="cczccccccc" /><path
       sodipodi:nodetypes="cczccccccc"
       id="path3078"
       d="M -53.777569,39.530505 C -65.774749,39.306661 -98.522679,32.646191 -105.19816,69.596681 C -105.23038,71.169713 -100.30745,70.247145 -99.952569,70.748152 C -99.597689,71.249159 -98.959389,71.917574 -99.696689,71.963592 C -101.99877,72.363747 -109.53812,71.028905 -110.25184,78.488593 C -110.36186,80.250411 -100.06235,83.739153 -94.974629,84.62977 C -92.910089,85.11893 -94.164339,80.450357 -93.567279,78.23271 C -93.175679,77.18473 -77.809189,75.055504 -77.702569,74.266534 C -77.848279,73.276175 -89.377209,72.745455 -91.264339,71.579769 C -86.957449,44.382432 -73.746469,42.725072 -53.777569,39.530505 z "
       style="fill:url(#linearGradient3092);fill-opacity:1;fill-rule:evenodd;stroke:none;stroke-width:1px;stroke-linecap:butt;stroke-linejoin:miter;stroke-opacity:1" /><path
       sodipodi:nodetypes="ccccc"
       id="path3080"
       d="M -60.594279,35.550473 C -90.888999,36.082822 -105.37093,44.983476 -107.75143,68.64842 L -9.8745587,68.64842 C -12.268809,44.846871 -26.941089,35.989095 -57.594229,35.550473 C -58.594249,35.544993 -59.594289,35.546313 -60.594279,35.550473 z "
       style="fill:url(#radialGradient3094);fill-opacity:1;fill-rule:evenodd;stroke:none;stroke-width:0.09790357;stroke-linecap:butt;stroke-linejoin:miter;stroke-miterlimit:4;stroke-dasharray:none;stroke-opacity:1" /></g><path
     sodipodi:nodetypes="cssss"
     id="path3111"
     d="M 111.99699,63.379238 C 111.60575,62.704814 100.48413,69.442489 87.013062,71.274169 C 72.435906,73.256249 55.568011,72.254537 55.164257,72.914043 C 54.313459,74.303775 72.961212,75.070139 87.205113,73.150749 C 101.44902,71.231357 112.49458,64.236973 111.99699,63.379238 z "
     style="fill:#282828;fill-opacity:0.35365852;fill-rule:evenodd;stroke:none;stroke-width:1px;stroke-linecap:butt;stroke-linejoin:miter;stroke-opacity:1" /><path
     style="fill:url(#radialGradient3121);fill-opacity:1;fill-rule:evenodd;stroke:none;stroke-width:1px;stroke-linecap:butt;stroke-linejoin:miter;stroke-opacity:1"
     d="M 111.43867,63.825895 C 111.04743,63.151471 100.48413,69.554153 87.013062,71.385833 C 72.435906,73.367913 56.907983,72.254537 56.50423,72.914043 C 55.653432,74.303775 72.961212,74.846811 87.205113,72.92742 C 101.44902,71.008028 111.93626,64.683631 111.43867,63.825895 z "
     id="path3113"
     sodipodi:nodetypes="cssss" /></g><g
   id="g3472"
   transform="matrix(0.930574,0,0,0.930574,20.38168,-1.11021)"><g
     transform="matrix(1.123343,0,0,-1.123343,145.383,98.7974)"
     id="g3450"><path
       style="fill:#49942c;fill-opacity:1;fill-rule:nonzero;stroke:none;stroke-width:5.90653419;stroke-linecap:round;stroke-linejoin:round;stroke-miterlimit:4;stroke-dashoffset:4;stroke-opacity:1"
       d="M -57.65456,13.945092 C -52.573117,14.662421 -47.730207,14.631446 -42.975706,13.85839 C -42.42671,42.149127 -42.826812,59.259229 -42.484799,82.577512 C -48.101437,83.201523 -53.46296,82.878959 -58.615757,82.502376 C -57.867023,59.177886 -58.999741,50.837912 -57.65456,13.945092 z "
       id="rect1410"
       sodipodi:nodetypes="ccccc" /><path
       sodipodi:nodetypes="ccccc"
       id="path2286"
       d="M -57.239688,14.412778 C -52.874414,14.820282 -48.167536,14.763124 -43.680904,14.332692 C -43.097213,36.424764 -43.600422,60.485371 -43.346033,81.747643 C -49.000533,82.233079 -51.424862,82.804892 -57.934241,82.101409 C -57.194746,59.094047 -57.940564,36.51211 -57.239688,14.412778 z "
       style="opacity:0.8558139;fill:url(#radialGradient3487);fill-opacity:1;fill-rule:nonzero;stroke:none;stroke-width:5.90653419;stroke-linecap:round;stroke-linejoin:round;stroke-miterlimit:4;stroke-dashoffset:4;stroke-opacity:1" /><path
       style="opacity:0.74418604;fill:url(#radialGradient3489);fill-opacity:1;fill-rule:nonzero;stroke:none;stroke-width:5.90653419;stroke-linecap:round;stroke-linejoin:round;stroke-miterlimit:4;stroke-dashoffset:4;stroke-opacity:1"
       d="M -56.50563,16.306174 L -48.262729,19.462574 C -47.679038,41.554647 -46.422918,60.187836 -44.848554,81.991651 C -50.429422,83.590975 -51.776171,82.505618 -57.934241,82.101409 C -57.126221,59.383215 -57.206506,38.405505 -56.50563,16.306174 z "
       id="path2296"
       sodipodi:nodetypes="ccccc" /><path
       style="fill:url(#linearGradient3170);fill-opacity:1.0;fill-rule:nonzero;stroke:none;stroke-width:5.90653419;stroke-linecap:round;stroke-linejoin:round;stroke-miterlimit:4;stroke-dashoffset:4;stroke-opacity:1"
       d="M -42.983267,13.659555 C -48.064711,12.942228 -52.918576,12.973267 -57.67308,13.746322 L -57.673711,13.983542 C -52.592267,14.700871 -47.738402,14.66983 -42.983899,13.896775 L -42.983267,13.659555 z "
       id="path2300" /><path
       sodipodi:type="arc"
       style="fill:url(#radialGradient3491);fill-opacity:1;fill-rule:nonzero;stroke:none;stroke-width:3.80500007;stroke-linecap:round;stroke-linejoin:round;stroke-miterlimit:4;stroke-dasharray:none;stroke-dashoffset:4;stroke-opacity:1"
       id="path3199"
       sodipodi:cx="53.82272"
       sodipodi:cy="51.796238"
       sodipodi:rx="5.2844129"
       sodipodi:ry="1.8535739"
       d="M 59.107132 51.796238 A 5.2844129 1.8535739 0 1 1  48.538307,51.796238 A 5.2844129 1.8535739 0 1 1  59.107132 51.796238 z"
       transform="matrix(1.045131,-2.239348e-2,4.630812e-3,0.249975,-104.7429,2.679151)" /><path
       transform="matrix(1.044707,-3.738172e-2,9.526677e-3,0.249834,-104.3719,71.08782)"
       d="M 59.107132 51.796238 A 5.2844129 1.8535739 0 1 1  48.538307,51.796238 A 5.2844129 1.8535739 0 1 1  59.107132 51.796238 z"
       sodipodi:ry="1.8535739"
       sodipodi:rx="5.2844129"
       sodipodi:cy="51.796238"
       sodipodi:cx="53.82272"
       id="path3209"
       style="opacity:0.65116278;fill:url(#radialGradient3493);fill-opacity:1;fill-rule:nonzero;stroke:none;stroke-width:3.80500007;stroke-linecap:round;stroke-linejoin:round;stroke-miterlimit:4;stroke-dasharray:none;stroke-dashoffset:4;stroke-opacity:1"
       sodipodi:type="arc" /></g><g
     transform="matrix(1.176446,0,0,1.176446,148.0624,105.7159)"
     id="g3445"><path
       sodipodi:type="arc"
       style="fill:#49942c;fill-opacity:1;fill-rule:nonzero;stroke:none;stroke-width:1;stroke-linecap:round;stroke-linejoin:miter;stroke-miterlimit:4;stroke-dasharray:none;stroke-dashoffset:4;stroke-opacity:1"
       id="path29662"
       sodipodi:cx="-633.63702"
       sodipodi:cy="565.84845"
       sodipodi:rx="18.908777"
       sodipodi:ry="17.558151"
       d="M -614.72825 565.84845 A 18.908777 17.558151 0 1 1  -652.5458,565.84845 A 18.908777 17.558151 0 1 1  -614.72825 565.84845 z"
       transform="matrix(0.474588,0,0,0.532454,250.2581,-299.4056)" /><path
       sodipodi:type="arc"
       style="fill:url(#linearGradient3495);fill-opacity:1;fill-rule:nonzero;stroke:none;stroke-width:1;stroke-linecap:round;stroke-linejoin:miter;stroke-miterlimit:4;stroke-dasharray:none;stroke-dashoffset:4;stroke-opacity:1"
       id="path29664"
       sodipodi:cx="-737.44324"
       sodipodi:cy="207.9397"
       sodipodi:rx="7.3392043"
       sodipodi:ry="6.6052842"
       d="M -730.10403 207.9397 A 7.3392043 6.6052842 0 1 1  -744.78244,207.9397 A 7.3392043 6.6052842 0 1 1  -730.10403 207.9397 z"
       transform="matrix(0.701112,0,0,0.520326,466.6761,-111.1504)" /><path
       transform="matrix(0.430029,0,0,0.472467,222.025,-265.4616)"
       d="M -614.72825 565.84845 A 18.908777 17.558151 0 1 1  -652.5458,565.84845 A 18.908777 17.558151 0 1 1  -614.72825 565.84845 z"
       sodipodi:ry="17.558151"
       sodipodi:rx="18.908777"
       sodipodi:cy="565.84845"
       sodipodi:cx="-633.63702"
       id="path30547"
       style="opacity:0.70232556;fill:url(#radialGradient3497);fill-opacity:1;fill-rule:nonzero;stroke:none;stroke-width:1;stroke-linecap:round;stroke-linejoin:miter;stroke-miterlimit:4;stroke-dasharray:none;stroke-dashoffset:4;stroke-opacity:1"
       sodipodi:type="arc" /></g></g><path
   style="fill:url(#linearGradient2225);fill-opacity:1.0;fill-rule:evenodd;stroke:none;stroke-width:1px;stroke-linecap:butt;stroke-linejoin:miter;stroke-opacity:1;opacity:0.45081967"
   d="M 63.333487,39.776885 C 60.425516,45.932545 68.436858,60.820433 70.051068,68.799162 C 72.294121,68.239542 74.431644,67.601332 76.434224,66.879853 C 76.402494,58.132378 65.548063,48.056092 65.049233,42.626768 L 63.333487,39.776885 z "
   id="path3499"
   sodipodi:nodetypes="ccccc" /><path
   sodipodi:nodetypes="ccccc"
   id="path3550"
   d="M 70.294006,70.180692 C 72.220773,72.13914 71.277963,75.033085 70.681175,77.622422 C 73.06648,77.379553 75.451785,77.065468 77.83709,76.388644 C 78.842552,72.975858 78.665489,69.936628 77.043223,68.056683 C 74.964418,68.839784 73.187267,69.53386 70.294006,70.180692 z "
   style="opacity:0.37295083;fill:url(#radialGradient2222);fill-opacity:1;fill-rule:evenodd;stroke:none;stroke-width:1px;stroke-linecap:butt;stroke-linejoin:miter;stroke-opacity:1" /><path
   style="opacity:0.36885246;fill:url(#radialGradient2219);fill-opacity:1.0;fill-rule:evenodd;stroke:none;stroke-width:1px;stroke-linecap:butt;stroke-linejoin:miter;stroke-opacity:1"
   d="M 70.352167,70.413335 C 72.278934,72.371783 71.277963,75.033085 70.681175,77.622422 C 73.06648,77.379553 75.451785,77.065468 77.83709,76.388644 C 78.842552,72.975858 78.883592,70.154732 77.261326,68.274786 C 75.147559,69.113827 73.100963,69.997648 70.352167,70.413335 z "
   id="path3519"
   sodipodi:nodetypes="ccccc" /></svg>