<?xml version="1.0" encoding="UTF-8" standalone="no"?>
<!-- Created with Inkscape (http://www.inkscape.org/) -->
<svg
   xmlns:dc="http://purl.org/dc/elements/1.1/"
   xmlns:cc="http://web.resource.org/cc/"
   xmlns:rdf="http://www.w3.org/1999/02/22-rdf-syntax-ns#"
   xmlns:svg="http://www.w3.org/2000/svg"
   xmlns="http://www.w3.org/2000/svg"
   xmlns:xlink="http://www.w3.org/1999/xlink"
   xmlns:sodipodi="http://inkscape.sourceforge.net/DTD/sodipodi-0.dtd"
   xmlns:inkscape="http://www.inkscape.org/namespaces/inkscape"
   width="128"
   height="128"
   id="svg1307"
   sodipodi:version="0.32"
   inkscape:version="0.43"
   version="1.0"
   sodipodi:docbase="/home/pinheiro/Documents/pics/new oxygen/svg"
   sodipodi:docname="burn.svg">
  <defs
     id="defs1309">
    <linearGradient
       inkscape:collect="always"
       id="linearGradient4524">
      <stop
         style="stop-color:#ffae17;stop-opacity:1;"
         offset="0"
         id="stop4526" />
      <stop
         style="stop-color:#ffae17;stop-opacity:0;"
         offset="1"
         id="stop4528" />
    </linearGradient>
    <linearGradient
       inkscape:collect="always"
       id="linearGradient3570">
      <stop
         style="stop-color:#000000;stop-opacity:1;"
         offset="0"
         id="stop3572" />
      <stop
         style="stop-color:#000000;stop-opacity:0;"
         offset="1"
         id="stop3574" />
    </linearGradient>
    <linearGradient
       id="linearGradient2677">
      <stop
         style="stop-color:#fff017;stop-opacity:1;"
         offset="0"
         id="stop2679" />
      <stop
         id="stop2685"
         offset="0.48351648"
         style="stop-color:#ebb100;stop-opacity:0.49803922;" />
      <stop
         style="stop-color:#ebb100;stop-opacity:0;"
         offset="1"
         id="stop2681" />
    </linearGradient>
    <linearGradient
       id="linearGradient2592">
      <stop
         id="stop2594"
         offset="0"
         style="stop-color:#ff0d0d;stop-opacity:1;" />
      <stop
         id="stop2596"
         offset="1"
         style="stop-color:#ad0000;stop-opacity:1;" />
    </linearGradient>
    <linearGradient
       inkscape:collect="always"
       id="linearGradient2512">
      <stop
         style="stop-color:#ffffff;stop-opacity:1;"
         offset="0"
         id="stop2514" />
      <stop
         style="stop-color:#ffffff;stop-opacity:0;"
         offset="1"
         id="stop2516" />
    </linearGradient>
    <linearGradient
       inkscape:collect="always"
       id="linearGradient2430">
      <stop
         style="stop-color:#000000;stop-opacity:1;"
         offset="0"
         id="stop2432" />
      <stop
         style="stop-color:#000000;stop-opacity:0;"
         offset="1"
         id="stop2434" />
    </linearGradient>
    <linearGradient
       id="linearGradient2369">
      <stop
         style="stop-color:#ffffff;stop-opacity:0;"
         offset="0"
         id="stop2371" />
      <stop
         id="stop2385"
         offset="0.29734492"
         style="stop-color:#ffffff;stop-opacity:0;" />
      <stop
         id="stop2383"
         offset="0.4831855"
         style="stop-color:#ff6dff;stop-opacity:1;" />
      <stop
         id="stop2377"
         offset="0.50018114"
         style="stop-color:#ff0000;stop-opacity:1;" />
      <stop
         style="stop-color:#00ff00;stop-opacity:1;"
         offset="0.51648355"
         id="stop2381" />
      <stop
         style="stop-color:#0000ff;stop-opacity:1;"
         offset="0.53395635"
         id="stop2379" />
      <stop
         id="stop2387"
         offset="0.55754495"
         style="stop-color:#00ffff;stop-opacity:1;" />
      <stop
         style="stop-color:#ffffff;stop-opacity:0;"
         offset="0.55754495"
         id="stop2389" />
      <stop
         style="stop-color:#000000;stop-opacity:0;"
         offset="1"
         id="stop2373" />
    </linearGradient>
    <linearGradient
       id="linearGradient3325">
      <stop
         id="stop3327"
         offset="0"
         style="stop-color:#ffffff;stop-opacity:1;" />
      <stop
         id="stop3329"
         offset="1"
         style="stop-color:#ffffff;stop-opacity:0;" />
    </linearGradient>
    <linearGradient
       id="linearGradient3225">
      <stop
         style="stop-color:#ffffff;stop-opacity:1;"
         offset="0"
         id="stop3227" />
      <stop
         style="stop-color:#aeaeae;stop-opacity:1;"
         offset="1"
         id="stop3229" />
    </linearGradient>
    <radialGradient
       inkscape:collect="always"
       xlink:href="#linearGradient2369"
       id="radialGradient2494"
       gradientUnits="userSpaceOnUse"
       gradientTransform="matrix(0.946086,-1.58605,1.489114,0.888263,-91.31393,132.5003)"
       spreadMethod="repeat"
       cx="86.040627"
       cy="68.49028"
       fx="80.437614"
       fy="103.6857"
       r="59.778126" />
    <radialGradient
       inkscape:collect="always"
       xlink:href="#linearGradient2369"
       id="radialGradient2496"
       gradientUnits="userSpaceOnUse"
       gradientTransform="matrix(-0.946086,1.58605,-1.489114,-0.888263,222.0631,-16.25204)"
       spreadMethod="repeat"
       cx="86.040627"
       cy="68.49028"
       fx="80.437614"
       fy="103.6857"
       r="59.778126" />
    <linearGradient
       inkscape:collect="always"
       xlink:href="#linearGradient2512"
       id="linearGradient2504"
       gradientUnits="userSpaceOnUse"
       x1="102.0625"
       y1="-2.7058048"
       x2="59.8125"
       y2="75.044197" />
    <linearGradient
       inkscape:collect="always"
       xlink:href="#linearGradient2512"
       id="linearGradient2507"
       gradientUnits="userSpaceOnUse"
       x1="102.0625"
       y1="-2.7058048"
       x2="59.8125"
       y2="75.044197" />
    <linearGradient
       inkscape:collect="always"
       xlink:href="#linearGradient2512"
       id="linearGradient2509"
       gradientUnits="userSpaceOnUse"
       x1="102.0625"
       y1="-2.7058048"
       x2="59.8125"
       y2="75.044197" />
    <linearGradient
       inkscape:collect="always"
       xlink:href="#linearGradient2512"
       id="linearGradient2511"
       gradientUnits="userSpaceOnUse"
       x1="102.0625"
       y1="-2.7058048"
       x2="59.8125"
       y2="75.044197" />
    <linearGradient
       inkscape:collect="always"
       xlink:href="#linearGradient2512"
       id="linearGradient2513"
       gradientUnits="userSpaceOnUse"
       x1="102.0625"
       y1="-2.7058048"
       x2="59.8125"
       y2="75.044197" />
    <linearGradient
       inkscape:collect="always"
       xlink:href="#linearGradient2512"
       id="linearGradient2515"
       gradientUnits="userSpaceOnUse"
       x1="102.0625"
       y1="-2.7058048"
       x2="59.8125"
       y2="75.044197" />
    <linearGradient
       inkscape:collect="always"
       xlink:href="#linearGradient2677"
       id="linearGradient2683"
       x1="56.534222"
       y1="46.239582"
       x2="52.236702"
       y2="131.76482"
       gradientUnits="userSpaceOnUse"
       gradientTransform="matrix(0.957859,0,0,0.962007,1.539352,3.10021e-2)" />
    <linearGradient
       inkscape:collect="always"
       xlink:href="#linearGradient2677"
       id="linearGradient2689"
       gradientUnits="userSpaceOnUse"
       x1="12.483196"
       y1="97.813164"
       x2="45.947456"
       y2="88.946091"
       gradientTransform="matrix(0.957859,0,0,0.962007,1.539352,3.10021e-2)" />
    <linearGradient
       inkscape:collect="always"
       xlink:href="#linearGradient2677"
       id="linearGradient2693"
       gradientUnits="userSpaceOnUse"
       x1="120.97394"
       y1="98.822746"
       x2="66.11348"
       y2="82.490723"
       gradientTransform="matrix(0.957859,0,0,0.962007,1.539352,3.10021e-2)" />
    <radialGradient
       inkscape:collect="always"
       xlink:href="#linearGradient3570"
       id="radialGradient3576"
       cx="64.707626"
       cy="120.47038"
       fx="64.707626"
       fy="120.47038"
       r="63.766422"
       gradientTransform="matrix(1,0,0,0.140221,0,103.5779)"
       gradientUnits="userSpaceOnUse" />
    <radialGradient
       inkscape:collect="always"
       xlink:href="#linearGradient4524"
       id="radialGradient5405"
       cx="64.707634"
       cy="154.35374"
       fx="64.707634"
       fy="154.35374"
       r="59.531021"
       gradientTransform="matrix(1.837945,-6.12304e-17,-6.360841e-17,1.130435,-54.22141,-46.01622)"
       gradientUnits="userSpaceOnUse" />
    <linearGradient
       inkscape:collect="always"
       xlink:href="#linearGradient3325"
       id="linearGradient5442"
       gradientUnits="userSpaceOnUse"
       gradientTransform="matrix(0.961958,0,0,0.961958,-128.9733,21.44861)"
       x1="95.239143"
       y1="-52.086468"
       x2="53.753468"
       y2="102.74017" />
    <linearGradient
       inkscape:collect="always"
       xlink:href="#linearGradient3325"
       id="linearGradient5445"
       gradientUnits="userSpaceOnUse"
       gradientTransform="matrix(0.961958,0,0,0.961958,-128.9733,21.44861)"
       x1="95.239143"
       y1="-52.086468"
       x2="53.753468"
       y2="102.74017" />
    <linearGradient
       inkscape:collect="always"
       xlink:href="#linearGradient3225"
       id="linearGradient5461"
       gradientUnits="userSpaceOnUse"
       gradientTransform="matrix(1.030255,0,0,1.030255,-133.0663,19.3224)"
       x1="-16.63065"
       y1="-37.966259"
       x2="61.224335"
       y2="406.26038" />
    <linearGradient
       inkscape:collect="always"
       xlink:href="#linearGradient2430"
       id="linearGradient5463"
       gradientUnits="userSpaceOnUse"
       gradientTransform="matrix(1.030255,0,0,1.030255,-133.6657,18.41521)"
       x1="73.640358"
       y1="232.70004"
       x2="72.251587"
       y2="-64.937431" />
    <linearGradient
       inkscape:collect="always"
       xlink:href="#linearGradient3325"
       id="linearGradient5466"
       gradientUnits="userSpaceOnUse"
       gradientTransform="matrix(0.961958,0,0,0.961958,-128.9733,21.44861)"
       x1="95.239143"
       y1="-52.086468"
       x2="53.753468"
       y2="102.74017" />
    <radialGradient
       inkscape:collect="always"
       xlink:href="#linearGradient2592"
       id="radialGradient5472"
       gradientUnits="userSpaceOnUse"
       gradientTransform="matrix(1.109009,-8.639663e-8,1.442062e-7,1.851067,-138.8315,-31.58313)"
       cx="65.765625"
       cy="59.856506"
       fx="65.765625"
       fy="95.100655"
       r="59.778126" />
    <linearGradient
       inkscape:collect="always"
       xlink:href="#linearGradient3225"
       id="linearGradient5475"
       gradientUnits="userSpaceOnUse"
       gradientTransform="matrix(1.030255,0,0,1.030255,-133.0663,19.3224)"
       x1="76.869347"
       y1="73.033737"
       x2="61.224335"
       y2="406.26038" />
    <linearGradient
       inkscape:collect="always"
       xlink:href="#linearGradient2430"
       id="linearGradient5477"
       gradientUnits="userSpaceOnUse"
       gradientTransform="matrix(1.030255,0,0,1.030255,-133.6657,18.41521)"
       x1="73.640358"
       y1="232.70004"
       x2="72.251587"
       y2="-64.937431" />
    <radialGradient
       inkscape:collect="always"
       xlink:href="#linearGradient2677"
       id="radialGradient2269"
       cx="68.800293"
       cy="81.301689"
       fx="68.800293"
       fy="81.301689"
       r="54.341198"
       gradientTransform="matrix(0.497848,-0.133398,0.114002,0.42546,31.25714,48.88401)"
       gradientUnits="userSpaceOnUse" />
  </defs>
  <sodipodi:namedview
     id="base"
     pagecolor="#ffffff"
     bordercolor="#666666"
     borderopacity="1.0"
     inkscape:pageopacity="0.0"
     inkscape:pageshadow="2"
     inkscape:zoom="4.4430622"
     inkscape:cx="55.060306"
     inkscape:cy="49.638164"
     inkscape:current-layer="layer1"
     showgrid="false"
     inkscape:document-units="px"
     inkscape:grid-bbox="true"
     guidetolerance="0.1px"
     showguides="true"
     inkscape:guide-bbox="true"
     inkscape:window-width="1106"
     inkscape:window-height="958"
     inkscape:window-x="997"
     inkscape:window-y="228" />
  <metadata
     id="metadata1312">
    <rdf:RDF>
      <cc:Work
         rdf:about="">
        <dc:format>image/svg+xml</dc:format>
        <dc:type
           rdf:resource="http://purl.org/dc/dcmitype/StillImage" />
        <cc:license
           rdf:resource="http://creativecommons.org/licenses/GPL/2.0/" />
        <dc:contributor>
          <cc:Agent>
            <dc:title>Oxygen team</dc:title>
          </cc:Agent>
        </dc:contributor>
      </cc:Work>
      <cc:License
         rdf:about="http://creativecommons.org/licenses/LGPL/2.1/">
        <cc:permits
           rdf:resource="http://web.resource.org/cc/Reproduction" />
        <cc:permits
           rdf:resource="http://web.resource.org/cc/Distribution" />
        <cc:requires
           rdf:resource="http://web.resource.org/cc/Notice" />
        <cc:permits
           rdf:resource="http://web.resource.org/cc/DerivativeWorks" />
        <cc:requires
           rdf:resource="http://web.resource.org/cc/ShareAlike" />
        <cc:requires
           rdf:resource="http://web.resource.org/cc/SourceCode" />
      </cc:License>
    </rdf:RDF>
  </metadata>
  <g
     id="layer1"
     inkscape:label="Layer 1"
     inkscape:groupmode="layer">
    <rect
       style="opacity:0.23770492;fill:url(#radialGradient5405);fill-opacity:1;fill-rule:nonzero;stroke:none;stroke-width:7.5;stroke-linecap:round;stroke-linejoin:round;stroke-miterlimit:4;stroke-dasharray:none;stroke-dashoffset:4;stroke-opacity:1"
       id="rect4522"
       width="119.53265"
       height="65.413528"
       x="5.17661"
       y="61.174671"
       rx="1.5233082"
       ry="2.2849619" />
    <path
       sodipodi:type="arc"
       style="opacity:0.4713115;fill:url(#radialGradient3576);fill-opacity:1;fill-rule:nonzero;stroke:none;stroke-width:7.5;stroke-linecap:round;stroke-linejoin:round;stroke-miterlimit:4;stroke-dasharray:none;stroke-dashoffset:4;stroke-opacity:1"
       id="path2695"
       sodipodi:cx="64.707626"
       sodipodi:cy="120.47038"
       sodipodi:rx="63.766422"
       sodipodi:ry="8.9414167"
       d="M 128.47405 120.47038 A 63.766422 8.9414167 0 1 1  0.94120407,120.47038 A 63.766422 8.9414167 0 1 1  128.47405 120.47038 z"
       transform="matrix(1,0,0,0.789474,0,27.24459)" />
    <path
       sodipodi:nodetypes="ccc"
       id="path2276"
       d="M 50.892799,3.2812959 L 50.892799,0.48658747 L 50.892799,3.2812959 z "
       style="fill:#ffffff;fill-opacity:0.75688076;fill-rule:nonzero;stroke:none;stroke-width:0.5;stroke-linecap:round;stroke-linejoin:round;stroke-miterlimit:4;stroke-dasharray:none;stroke-dashoffset:4;stroke-opacity:1" />
    <text
       xml:space="preserve"
       style="font-size:3px;font-style:normal;font-variant:normal;font-weight:normal;font-stretch:normal;text-align:start;line-height:125%;writing-mode:lr-tb;text-anchor:start;opacity:0.17213117;fill:#000000;fill-opacity:1;stroke:none;stroke-width:1px;stroke-linecap:butt;stroke-linejoin:miter;stroke-opacity:1;font-family:Bitstream Vera Sans"
       id="text2478"
       sodipodi:linespacing="125%"
       transform="matrix(1.030255,0,0,1.030255,-126.5527,19.2566)"><textPath
         xlink:href="#path2482"
         id="textPath2484"><tspan
   id="tspan2480"
   style="font-size:3px;font-style:normal;font-variant:normal;font-weight:normal;font-stretch:normal;text-align:start;line-height:125%;writing-mode:lr-tb;text-anchor:start;font-family:Bitstream Vera Sans">oxygen nยบ 13                   kde 4 2007</tspan></textPath></text>
    <g
       id="g5486"
       transform="translate(129.4152,-19.29464)">
      <path
         id="path2571"
         d="M -67.773808,20.095089 C -99.516263,21.098687 -125.01735,47.226435 -125.01735,79.205972 C -125.01735,111.82026 -98.520759,138.34904 -65.906471,138.34904 C -33.292172,138.34904 -6.7955909,111.81899 -6.7955909,79.205972 C -6.7955909,46.592941 -33.293439,20.095089 -65.906471,20.095089 C -66.365686,20.095089 -66.862805,20.080965 -67.419658,20.095089 C -67.544329,20.098251 -67.649322,20.091153 -67.773808,20.095089 z M -67.645026,24.087327 C -67.528823,24.083655 -67.439449,24.090279 -67.323071,24.087327 C -66.900409,24.076607 -66.432714,24.087327 -65.906471,24.087327 C -35.449938,24.087327 -10.787829,48.74944 -10.787829,79.205972 C -10.787829,109.66249 -35.451205,134.3568 -65.906471,134.3568 C -96.361725,134.3568 -121.02511,109.66123 -121.02511,79.205972 C -121.02511,49.343928 -97.275747,25.02363 -67.645026,24.087327 z "
         style="fill:url(#linearGradient5475);fill-opacity:1;fill-rule:nonzero;stroke:url(#linearGradient5477);stroke-width:0.89760965;stroke-linecap:round;stroke-linejoin:round;stroke-miterlimit:4;stroke-dasharray:none;stroke-dashoffset:4;stroke-opacity:1" />
      <path
         id="path1410"
         d="M -67.350012,22.092181 C -98.204573,22.874756 -123.02268,48.161072 -123.02268,79.203118 C -123.02268,110.73789 -97.416562,136.34401 -65.881786,136.34401 C -34.347009,136.34401 -8.7708679,110.73789 -8.7708679,79.203118 C -8.7708679,47.668342 -34.347009,22.092181 -65.881786,22.092181 C -66.374515,22.092181 -66.86026,22.079759 -67.350012,22.092181 z M -66.630884,66.378628 C -66.385127,66.364596 -66.131035,66.378628 -65.881786,66.378628 C -58.792014,66.378628 -53.057295,72.113346 -53.057295,79.203118 C -53.057295,86.29289 -58.792014,92.057569 -65.881786,92.057569 C -72.971558,92.057569 -78.736246,86.29289 -78.736246,79.203118 C -78.736246,72.362596 -73.375521,66.763716 -66.630884,66.378628 z "
         style="fill:url(#radialGradient5472);fill-opacity:1;fill-rule:nonzero;stroke:none;stroke-width:0.99675924;stroke-linecap:round;stroke-linejoin:round;stroke-miterlimit:4;stroke-dasharray:none;stroke-dashoffset:4;stroke-opacity:1" />
      <g
         transform="matrix(0.980399,0.316613,-0.316613,0.980399,-111.5845,0.564776)"
         id="g2410">
        <path
           style="opacity:0.0737705;fill:url(#radialGradient2494);fill-opacity:1;fill-rule:nonzero;stroke:none;stroke-width:0.99675924;stroke-linecap:round;stroke-linejoin:round;stroke-miterlimit:4;stroke-dasharray:none;stroke-dashoffset:4;stroke-opacity:1"
           d="M 38.259887,8.699794 L 59.227197,46.241396 C 65.220003,42.960297 72.73065,45.104389 76.06871,51.081127 C 79.40677,57.057862 77.308303,64.604181 71.37178,67.986059 L 92.33909,105.52766 C 118.98288,90.572867 128.48877,56.817515 113.58303,30.129055 C 98.677293,3.440594 64.966657,-6.142254 38.259887,8.699794 z "
           id="path2391" />
        <path
           id="path2406"
           d="M 92.489293,107.54841 L 71.521983,70.006812 C 65.529173,73.287914 58.01853,71.143819 54.68047,65.167081 C 51.342411,59.190345 53.440875,51.644028 59.3774,48.262149 L 38.41009,10.720546 C 11.766295,25.675341 2.2604141,59.430693 17.166151,86.119153 C 32.071887,112.80761 65.782525,122.39046 92.489293,107.54841 z "
           style="opacity:0.0737705;fill:url(#radialGradient2496);fill-opacity:1;fill-rule:nonzero;stroke:none;stroke-width:0.99675924;stroke-linecap:round;stroke-linejoin:round;stroke-miterlimit:4;stroke-dasharray:none;stroke-dashoffset:4;stroke-opacity:1" />
      </g>
      <g
         style="opacity:0.31557378"
         transform="matrix(1.030225,7.767934e-3,-7.767934e-3,1.030225,-132.5438,19.22968)"
         id="g2549">
        <g
           id="g2530">
          <path
             id="path2499"
             d="M 63.4375,2.6875 C 62.216778,2.7260835 61.012215,2.7898661 59.8125,2.90625 L 64.40625,45.6875 C 64.431781,45.685886 64.443177,45.68896 64.46875,45.6875 C 64.707288,45.67388 64.976821,45.6875 65.21875,45.6875 C 69.627257,45.6875 73.476216,47.955074 75.6875,51.40625 L 111.15625,27.09375 C 101.18999,12.367851 84.333867,2.6875 65.21875,2.6875 C 64.740488,2.6875 64.256623,2.675443 63.78125,2.6875 C 63.664264,2.6904672 63.554306,2.6838081 63.4375,2.6875 z "
             style="opacity:0.48360656;fill:url(#linearGradient2504);fill-opacity:1;fill-rule:nonzero;stroke:none;stroke-width:0.99675924;stroke-linecap:round;stroke-linejoin:round;stroke-miterlimit:4;stroke-dasharray:none;stroke-dashoffset:4;stroke-opacity:1" />
          <path
             id="path2520"
             d="M 63.21875,2.6875 C 62.990235,2.6953451 62.758753,2.7088321 62.53125,2.71875 C 63.15624,15.384522 64.03264,32.985837 64.5625,45.6875 C 64.7772,45.680983 65.007062,45.6875 65.21875,45.6875 C 69.627257,45.6875 73.476216,47.955074 75.6875,51.40625 L 85.53125,44.65625 C 93.150564,38.38778 101.81483,31.292617 109.59375,24.875 C 99.480707,11.394662 83.363177,2.6875 65.21875,2.6875 C 64.740488,2.6875 64.256623,2.675443 63.78125,2.6875 C 63.664264,2.6904672 63.554306,2.6838081 63.4375,2.6875 C 63.361205,2.6899115 63.294922,2.684885 63.21875,2.6875 z "
             style="opacity:0.48360656;fill:url(#linearGradient2507);fill-opacity:1;fill-rule:nonzero;stroke:none;stroke-width:0.99675924;stroke-linecap:round;stroke-linejoin:round;stroke-miterlimit:4;stroke-dasharray:none;stroke-dashoffset:4;stroke-opacity:1" />
          <path
             id="path2525"
             d="M 66.96875,2.71875 L 66.4375,45.75 C 70.249044,46.118933 73.54589,48.194895 75.5625,51.21875 L 106.96875,21.625 C 97.1647,10.420682 82.903548,3.2138183 66.96875,2.71875 z "
             style="opacity:0.48360656;fill:url(#linearGradient2509);fill-opacity:1;fill-rule:nonzero;stroke:none;stroke-width:0.99675924;stroke-linecap:round;stroke-linejoin:round;stroke-miterlimit:4;stroke-dasharray:none;stroke-dashoffset:4;stroke-opacity:1" />
        </g>
        <g
           id="g2535"
           transform="matrix(-0.99779,6.64481e-2,-6.64481e-2,-0.99779,134.6643,111.1093)">
          <path
             style="opacity:0.48360656;fill:url(#linearGradient2511);fill-opacity:1;fill-rule:nonzero;stroke:none;stroke-width:0.99675924;stroke-linecap:round;stroke-linejoin:round;stroke-miterlimit:4;stroke-dasharray:none;stroke-dashoffset:4;stroke-opacity:1"
             d="M 63.4375,2.6875 C 62.216778,2.7260835 61.012215,2.7898661 59.8125,2.90625 L 64.40625,45.6875 C 64.431781,45.685886 64.443177,45.68896 64.46875,45.6875 C 64.707288,45.67388 64.976821,45.6875 65.21875,45.6875 C 69.627257,45.6875 73.476216,47.955074 75.6875,51.40625 L 111.15625,27.09375 C 101.18999,12.367851 84.333867,2.6875 65.21875,2.6875 C 64.740488,2.6875 64.256623,2.675443 63.78125,2.6875 C 63.664264,2.6904672 63.554306,2.6838081 63.4375,2.6875 z "
             id="path2537" />
          <path
             style="opacity:0.48360656;fill:url(#linearGradient2513);fill-opacity:1;fill-rule:nonzero;stroke:none;stroke-width:0.99675924;stroke-linecap:round;stroke-linejoin:round;stroke-miterlimit:4;stroke-dasharray:none;stroke-dashoffset:4;stroke-opacity:1"
             d="M 63.21875,2.6875 C 62.990235,2.6953451 62.758753,2.7088321 62.53125,2.71875 C 63.15624,15.384522 64.03264,32.985837 64.5625,45.6875 C 64.7772,45.680983 65.007062,45.6875 65.21875,45.6875 C 69.627257,45.6875 73.476216,47.955074 75.6875,51.40625 L 85.53125,44.65625 C 93.150564,38.38778 101.81483,31.292617 109.59375,24.875 C 99.480707,11.394662 83.363177,2.6875 65.21875,2.6875 C 64.740488,2.6875 64.256623,2.675443 63.78125,2.6875 C 63.664264,2.6904672 63.554306,2.6838081 63.4375,2.6875 C 63.361205,2.6899115 63.294922,2.684885 63.21875,2.6875 z "
             id="path2539" />
          <path
             style="opacity:0.48360656;fill:url(#linearGradient2515);fill-opacity:1;fill-rule:nonzero;stroke:none;stroke-width:0.99675924;stroke-linecap:round;stroke-linejoin:round;stroke-miterlimit:4;stroke-dasharray:none;stroke-dashoffset:4;stroke-opacity:1"
             d="M 66.96875,2.71875 L 66.4375,45.75 C 70.249044,46.118933 73.54589,48.194895 75.5625,51.21875 L 106.96875,21.625 C 97.1647,10.420682 82.903548,3.2138183 66.96875,2.71875 z "
             id="path2541" />
        </g>
      </g>
      <g
         style="opacity:0.72540989"
         id="g5479">
        <path
           style="opacity:0.26639344;fill:url(#linearGradient5466);fill-opacity:1;fill-rule:nonzero;stroke:none;stroke-width:0.99675924;stroke-linecap:round;stroke-linejoin:round;stroke-miterlimit:4;stroke-dasharray:none;stroke-dashoffset:4;stroke-opacity:1"
           d="M -67.347808,22.079891 C -98.202369,22.862466 -123.02113,48.154097 -123.02113,79.196144 C -123.02113,80.704921 -122.98589,82.195783 -122.87082,83.67526 C -122.45714,84.214691 -121.97367,84.731652 -121.48801,85.238445 C -117.15216,89.762933 -107.99601,79.699598 -77.568617,84.577093 C -78.322795,82.94248 -78.741006,81.111831 -78.741006,79.196144 C -78.741006,72.355621 -73.370977,66.775163 -66.626341,66.390074 C -66.380594,66.376042 -66.12406,66.390074 -65.874811,66.390074 C -58.785039,66.390074 -53.068751,72.106372 -53.068751,79.196144 C -53.068751,83.087211 -54.787083,86.577096 -57.517805,88.935968 C -28.899041,95.40223 -15.512733,95.689434 -9.2996669,86.951934 C -9.2981421,86.940694 -9.2711289,86.933111 -9.2696041,86.921871 C -8.9285897,84.397963 -8.7585667,81.81295 -8.7585667,79.196144 C -8.7585667,47.661367 -34.340034,22.079891 -65.874811,22.079891 C -66.367541,22.079891 -66.858055,22.067469 -67.347808,22.079891 z "
           id="path2298" />
        <path
           style="fill:url(#linearGradient5461);fill-opacity:1;fill-rule:nonzero;stroke:url(#linearGradient5463);stroke-width:0.89760965;stroke-linecap:round;stroke-linejoin:round;stroke-miterlimit:4;stroke-dasharray:none;stroke-dashoffset:4;stroke-opacity:1"
           d="M -67.001116,64.396057 C -74.655963,64.974452 -80.748582,71.415957 -80.748582,79.205972 C -80.748582,87.376729 -74.077227,94.048083 -65.906471,94.048083 C -57.735714,94.048083 -51.064359,87.371104 -51.064359,79.205972 C -51.064359,71.04083 -57.741329,64.396057 -65.906471,64.396057 C -66.080872,64.396057 -66.344154,64.373247 -66.743553,64.396057 C -66.834751,64.401259 -66.910341,64.389195 -67.001116,64.396057 z M -66.775748,68.388295 C -66.687167,68.381083 -66.607343,68.393384 -66.518184,68.388295 C -66.426069,68.38303 -66.230558,68.388295 -65.906471,68.388295 C -59.892058,68.388295 -55.056598,73.19155 -55.056598,79.205972 C -55.056587,85.220385 -59.897673,90.055845 -65.906471,90.055845 C -71.915268,90.055845 -76.756343,85.214759 -76.756343,79.205972 C -76.756333,73.497906 -72.356073,68.842575 -66.775748,68.388295 z "
           id="path2426" />
        <path
           sodipodi:type="arc"
           style="opacity:0.0737705;fill:none;fill-opacity:1;fill-rule:nonzero;stroke:#000000;stroke-width:0.37125;stroke-linecap:round;stroke-linejoin:round;stroke-miterlimit:4;stroke-dasharray:none;stroke-dashoffset:4;stroke-opacity:1"
           id="path2482"
           sodipodi:cx="-59.489868"
           sodipodi:cy="161.47501"
           sodipodi:rx="38.065865"
           sodipodi:ry="38.065865"
           d="M -21.424004 161.47501 A 38.065865 38.065865 0 1 1  -97.555733,161.47501 A 38.065865 38.065865 0 1 1  -21.424004 161.47501 z"
           transform="matrix(0.310175,0,0,0.310175,-47.45765,29.0537)" />
        <path
           id="path2358"
           d="M -67.708541,22.079891 C -98.395315,23.049853 -123.02113,48.275358 -123.02113,79.196144 C -123.02113,80.704921 -122.98589,82.195783 -122.87082,83.67526 C -122.45714,84.214691 -121.97367,84.731652 -121.48801,85.238445 C -118.26139,88.605432 -57.863527,39.419145 -33.67928,32.000082 C -42.844346,25.73631 -53.940584,22.079891 -65.874811,22.079891 C -66.367541,22.079891 -66.858055,22.067469 -67.347808,22.079891 C -67.468337,22.082947 -67.588207,22.076087 -67.708541,22.079891 z M -25.89345,38.433175 C -43.472627,47.082168 -49.308455,82.523053 -43.164993,86.54383 C -33.387625,92.942939 -15.512733,95.689434 -9.2996669,86.951934 C -9.2963083,86.949544 -9.272973,86.924251 -9.2696041,86.921871 C -8.9285897,84.397963 -8.7585667,81.81295 -8.7585667,79.196144 C -8.7585667,63.228582 -15.324042,48.799871 -25.89345,38.433175 z "
           style="opacity:0.51639344;fill:url(#linearGradient5445);fill-opacity:1;fill-rule:nonzero;stroke:none;stroke-width:0.99675924;stroke-linecap:round;stroke-linejoin:round;stroke-miterlimit:4;stroke-dasharray:none;stroke-dashoffset:4;stroke-opacity:1"
           sodipodi:nodetypes="cscscssccscssc" />
        <path
           style="opacity:0.82377044;fill:url(#linearGradient5442);fill-opacity:1;fill-rule:nonzero;stroke:none;stroke-width:0.99675924;stroke-linecap:round;stroke-linejoin:round;stroke-miterlimit:4;stroke-dasharray:none;stroke-dashoffset:4;stroke-opacity:1"
           d="M -67.708541,22.079891 C -98.395315,23.049853 -123.02113,48.275358 -123.02113,79.196144 C -123.02113,80.704921 -122.98589,82.195783 -122.87082,83.67526 C -122.45714,84.214691 -121.97367,84.731652 -121.48801,85.238445 C -118.26139,88.605432 -112.36335,83.875418 -97.018204,83.2544 C -80.735085,62.422387 -57.863527,39.419145 -33.67928,32.000082 C -42.844346,25.73631 -53.940584,22.079891 -65.874811,22.079891 C -66.367541,22.079891 -66.858055,22.067469 -67.347808,22.079891 C -67.468337,22.082947 -67.588207,22.076087 -67.708541,22.079891 z M -25.89345,38.433175 C -43.472627,47.082168 -51.573254,58.400117 -56.345416,70.628708 C -54.307612,72.895382 -53.068751,75.897185 -53.068751,79.196144 C -53.068751,83.087211 -54.787083,86.577096 -57.517805,88.935968 C -28.899041,95.40223 -15.512733,95.689434 -9.2996669,86.951934 C -9.2963083,86.949544 -9.272973,86.924251 -9.2696041,86.921871 C -8.9285897,84.397963 -8.7585667,81.81295 -8.7585667,79.196144 C -8.7585667,63.228582 -15.324042,48.799871 -25.89345,38.433175 z "
           id="path2353" />
      </g>
    </g>
    <path
       style="fill:url(#linearGradient2683);fill-opacity:1;fill-rule:evenodd;stroke:none;stroke-width:1px;stroke-linecap:butt;stroke-linejoin:miter;stroke-opacity:1"
       d="M 27.111308,17.777232 C 26.45945,18.346349 25.810511,18.943227 25.185633,19.541595 C 33.764679,30.552878 39.237148,38.602909 37.643687,48.627544 C 36.037715,58.730886 30.983282,69.46565 21.630178,66.610476 C 12.563506,63.842741 19.135754,57.692493 8.7667181,49.875068 C 8.7416143,50.010317 8.7570705,50.146642 8.7329343,50.282229 C 12.432499,55.470893 11.459412,66.229633 10.185637,76.340515 C 17.089115,99.519898 38.485051,116.41191 63.800485,116.41191 C 89.104854,116.41191 110.5022,99.538209 117.41533,76.374445 C 117.32547,63.226867 113.17737,47.037715 113.9356,35.251213 C 113.06233,33.487126 112.11045,31.780814 111.06398,30.127774 C 105.79444,39.578541 112.77635,51.140143 106.6721,52.284103 C 101.16278,53.316569 90.145668,38.596282 94.509936,32.231438 C 81.262376,42.944814 107.45045,64.630055 107.71939,81.972905 C 107.98832,99.734099 100.837,101.98644 95.726151,95.850298 C 91.764175,91.093534 105.77042,51.109621 81.334264,47.466034 C 97.99174,54.842598 88.713298,84.000684 80.118048,82.617575 C 71.914751,81.297544 61.478697,67.931185 69.341024,53.980605 C 52.55029,72.652529 63.07676,90.570913 69.341024,101.99164 C 75.607306,113.41602 53.321827,117.20026 41.739682,93.576985 C 37.43027,84.787386 57.347817,73.964915 54.949137,58.289723 C 51.874743,36.023648 38.473979,23.794404 27.111308,17.777232 z "
       id="path2648"
       sodipodi:nodetypes="ccsscccscccsccscscsscc" />
    <path
       id="path2687"
       d="M 27.111308,17.777232 C 26.45945,18.346349 25.810511,18.943227 25.185633,19.541595 C 33.764679,30.552878 42.163058,34.551649 38.769037,52.003594 C 36.816084,62.045637 32.108632,72.8417 22.755528,69.986526 C 13.688856,67.218791 19.135754,57.692493 8.7667181,49.875068 C 8.7416143,50.010317 8.7570705,50.146642 8.7329343,50.282229 C 12.432499,55.470893 11.459412,66.229633 10.185637,76.340515 C 24.586266,108.93192 53.321827,117.20026 41.739682,93.576985 C 37.43027,84.787386 57.347817,73.964915 54.949137,58.289723 C 51.874743,36.023648 38.473979,23.794404 27.111308,17.777232 z "
       style="fill:url(#linearGradient2689);fill-opacity:1;fill-rule:evenodd;stroke:none;stroke-width:1px;stroke-linecap:butt;stroke-linejoin:miter;stroke-opacity:1"
       sodipodi:nodetypes="ccsscccscc" />
    <path
       id="path2691"
       d="M 63.800485,116.41191 C 89.104854,116.41191 110.5022,99.538209 117.41533,76.374445 C 117.32547,63.226867 113.17737,47.037715 113.9356,35.251213 C 113.06233,33.487126 112.11045,31.780814 111.06398,30.127774 C 105.79444,39.578541 112.77635,51.140143 106.6721,52.284103 C 101.16278,53.316569 90.145668,38.596282 94.509936,32.231438 C 81.262376,42.944814 107.45045,57.571041 107.71939,74.913891 C 107.98832,92.675084 100.837,94.927427 95.726151,88.791284 C 91.764175,84.03452 105.77042,51.109621 81.334264,47.466034 C 97.99174,54.842598 88.713298,84.000684 80.118048,82.617575 C 71.914751,81.297544 38.485051,116.41191 63.800485,116.41191 z "
       style="fill:url(#linearGradient2693);fill-opacity:1;fill-rule:evenodd;stroke:none;stroke-width:1px;stroke-linecap:butt;stroke-linejoin:miter;stroke-opacity:1"
       sodipodi:nodetypes="ccccsccscss" />
    <path
       sodipodi:nodetypes="ccsscccscccsccscscsscc"
       id="path2267"
       d="M 27.111308,17.777232 C 26.45945,18.346349 25.810511,18.943227 25.185633,19.541595 C 33.764679,30.552878 39.237148,38.602909 37.643687,48.627544 C 36.037715,58.730886 30.983282,69.46565 21.630178,66.610476 C 12.563506,63.842741 19.135754,57.692493 8.7667181,49.875068 C 8.7416143,50.010317 8.7570705,50.146642 8.7329343,50.282229 C 12.432499,55.470893 11.459412,66.229633 10.185637,76.340515 C 17.089115,99.519898 38.485051,116.41191 63.800485,116.41191 C 89.104854,116.41191 110.5022,99.538209 117.41533,76.374445 C 117.32547,63.226867 113.17737,47.037715 113.9356,35.251213 C 113.06233,33.487126 112.11045,31.780814 111.06398,30.127774 C 105.79444,39.578541 112.77635,51.140143 106.6721,52.284103 C 101.16278,53.316569 90.145668,38.596282 94.509936,32.231438 C 81.262376,42.944814 107.45045,64.630055 107.71939,81.972905 C 107.98832,99.734099 100.837,101.98644 95.726151,95.850298 C 91.764175,91.093534 105.77042,51.109621 81.334264,47.466034 C 97.99174,54.842598 88.713298,84.000684 80.118048,82.617575 C 71.914751,81.297544 61.478697,67.931185 69.341024,53.980605 C 52.55029,72.652529 63.07676,90.570913 69.341024,101.99164 C 75.607306,113.41602 53.321827,117.20026 41.739682,93.576985 C 37.43027,84.787386 57.347817,73.964915 54.949137,58.289723 C 51.874743,36.023648 38.473979,23.794404 27.111308,17.777232 z "
       style="fill:url(#radialGradient2269);fill-opacity:1.0;fill-rule:evenodd;stroke:none;stroke-width:1px;stroke-linecap:butt;stroke-linejoin:miter;stroke-opacity:1" />
  </g>
</svg>
