<?xml version="1.0" encoding="UTF-8" standalone="no"?>
<!-- Created with Inkscape (http://www.inkscape.org/) -->
<svg
   xmlns:dc="http://purl.org/dc/elements/1.1/"
   xmlns:cc="http://web.resource.org/cc/"
   xmlns:rdf="http://www.w3.org/1999/02/22-rdf-syntax-ns#"
   xmlns:svg="http://www.w3.org/2000/svg"
   xmlns="http://www.w3.org/2000/svg"
   xmlns:xlink="http://www.w3.org/1999/xlink"
   xmlns:sodipodi="http://inkscape.sourceforge.net/DTD/sodipodi-0.dtd"
   xmlns:inkscape="http://www.inkscape.org/namespaces/inkscape"
   width="128"
   height="128"
   id="svg1793"
   sodipodi:version="0.32"
   inkscape:version="0.43"
   sodipodi:docbase="/home/pinheiro/Documents/pics/new oxygen/svg"
   sodipodi:docname="cd recordable.svg"
   version="1.0">
  <defs
     id="defs1795">
    <linearGradient
       inkscape:collect="always"
       id="linearGradient3291">
      <stop
         style="stop-color:#000000;stop-opacity:1;"
         offset="0"
         id="stop3293" />
      <stop
         style="stop-color:#000000;stop-opacity:0;"
         offset="1"
         id="stop3295" />
    </linearGradient>
    <radialGradient
       inkscape:collect="always"
       xlink:href="#linearGradient3291"
       id="radialGradient3297"
       cx="63.912209"
       cy="115.70919"
       fx="63.912209"
       fy="115.7093"
       r="63.912209"
       gradientTransform="matrix(1,0,0,0.197802,0,92.82166)"
       gradientUnits="userSpaceOnUse" />
    <linearGradient
       inkscape:collect="always"
       xlink:href="#linearGradient2430"
       id="linearGradient1707"
       gradientUnits="userSpaceOnUse"
       gradientTransform="translate(-0.579975,-1.231745)"
       x1="73.640358"
       y1="232.70004"
       x2="72.251587"
       y2="-64.937431" />
    <linearGradient
       inkscape:collect="always"
       xlink:href="#linearGradient3225"
       id="linearGradient1705"
       gradientUnits="userSpaceOnUse"
       x1="76.869347"
       y1="73.033737"
       x2="61.224335"
       y2="406.26038"
       gradientTransform="translate(1.875013e-3,-0.351205)" />
    <linearGradient
       id="linearGradient2328">
      <stop
         style="stop-color:#ffffff;stop-opacity:1;"
         offset="0"
         id="stop2330" />
      <stop
         style="stop-color:#92a164;stop-opacity:1;"
         offset="1"
         id="stop2332" />
    </linearGradient>
    <radialGradient
       inkscape:collect="always"
       xlink:href="#linearGradient2328"
       id="radialGradient1702"
       gradientUnits="userSpaceOnUse"
       gradientTransform="matrix(1.076441,-8.385946e-8,1.399714e-7,1.796708,-5.594095,-49.76181)"
       cx="65.765625"
       cy="59.856506"
       fx="65.765625"
       fy="95.100655"
       r="59.778126" />
    <radialGradient
       inkscape:collect="always"
       xlink:href="#linearGradient2369"
       id="radialGradient1647"
       gradientUnits="userSpaceOnUse"
       gradientTransform="matrix(-0.946086,1.58605,-1.489114,-0.888263,222.0631,-16.25204)"
       spreadMethod="repeat"
       cx="86.040627"
       cy="68.49028"
       fx="80.437614"
       fy="103.6857"
       r="59.778126" />
    <linearGradient
       id="linearGradient2369">
      <stop
         style="stop-color:#ffffff;stop-opacity:0;"
         offset="0"
         id="stop2371" />
      <stop
         id="stop2385"
         offset="0.29734492"
         style="stop-color:#ffffff;stop-opacity:0;" />
      <stop
         id="stop2383"
         offset="0.4831855"
         style="stop-color:#ff6dff;stop-opacity:1;" />
      <stop
         id="stop2377"
         offset="0.50018114"
         style="stop-color:#ff0000;stop-opacity:1;" />
      <stop
         style="stop-color:#00ff00;stop-opacity:1;"
         offset="0.51648355"
         id="stop2381" />
      <stop
         style="stop-color:#0000ff;stop-opacity:1;"
         offset="0.53395635"
         id="stop2379" />
      <stop
         id="stop2387"
         offset="0.55754495"
         style="stop-color:#00ffff;stop-opacity:1;" />
      <stop
         style="stop-color:#ffffff;stop-opacity:0;"
         offset="0.55754495"
         id="stop2389" />
      <stop
         style="stop-color:#000000;stop-opacity:0;"
         offset="1"
         id="stop2373" />
    </linearGradient>
    <radialGradient
       inkscape:collect="always"
       xlink:href="#linearGradient2369"
       id="radialGradient1645"
       gradientUnits="userSpaceOnUse"
       gradientTransform="matrix(0.946086,-1.58605,1.489114,0.888263,-90.73811,134.2833)"
       spreadMethod="repeat"
       cx="86.040627"
       cy="68.49028"
       fx="80.437614"
       fy="103.6857"
       r="59.778126" />
    <linearGradient
       inkscape:collect="always"
       xlink:href="#linearGradient3325"
       id="linearGradient1696"
       gradientUnits="userSpaceOnUse"
       gradientTransform="matrix(0.933709,0,0,0.933709,3.974655,1.712565)"
       x1="95.239143"
       y1="-52.086468"
       x2="53.753468"
       y2="102.74017" />
    <linearGradient
       inkscape:collect="always"
       id="linearGradient2430">
      <stop
         style="stop-color:#000000;stop-opacity:1;"
         offset="0"
         id="stop2432" />
      <stop
         style="stop-color:#000000;stop-opacity:0;"
         offset="1"
         id="stop2434" />
    </linearGradient>
    <linearGradient
       inkscape:collect="always"
       xlink:href="#linearGradient2430"
       id="linearGradient1693"
       gradientUnits="userSpaceOnUse"
       gradientTransform="translate(-0.579975,-1.231745)"
       x1="73.640358"
       y1="232.70004"
       x2="72.251587"
       y2="-64.937431" />
    <linearGradient
       id="linearGradient3225">
      <stop
         style="stop-color:#ffffff;stop-opacity:1;"
         offset="0"
         id="stop3227" />
      <stop
         style="stop-color:#aca386;stop-opacity:1;"
         offset="1"
         id="stop3229" />
    </linearGradient>
    <linearGradient
       inkscape:collect="always"
       xlink:href="#linearGradient3225"
       id="linearGradient1691"
       gradientUnits="userSpaceOnUse"
       x1="-16.63065"
       y1="-37.966259"
       x2="61.224335"
       y2="406.26038"
       gradientTransform="translate(1.875013e-3,-0.351205)" />
    <linearGradient
       inkscape:collect="always"
       xlink:href="#linearGradient2512"
       id="linearGradient1665"
       gradientUnits="userSpaceOnUse"
       x1="102.0625"
       y1="-2.7058048"
       x2="59.8125"
       y2="75.044197" />
    <linearGradient
       inkscape:collect="always"
       xlink:href="#linearGradient2512"
       id="linearGradient1663"
       gradientUnits="userSpaceOnUse"
       x1="102.0625"
       y1="-2.7058048"
       x2="59.8125"
       y2="75.044197" />
    <linearGradient
       inkscape:collect="always"
       xlink:href="#linearGradient2512"
       id="linearGradient1661"
       gradientUnits="userSpaceOnUse"
       x1="102.0625"
       y1="-2.7058048"
       x2="59.8125"
       y2="75.044197" />
    <linearGradient
       inkscape:collect="always"
       xlink:href="#linearGradient2512"
       id="linearGradient1659"
       gradientUnits="userSpaceOnUse"
       x1="102.0625"
       y1="-2.7058048"
       x2="59.8125"
       y2="75.044197" />
    <linearGradient
       inkscape:collect="always"
       xlink:href="#linearGradient2512"
       id="linearGradient1657"
       gradientUnits="userSpaceOnUse"
       x1="102.0625"
       y1="-2.7058048"
       x2="59.8125"
       y2="75.044197" />
    <linearGradient
       inkscape:collect="always"
       id="linearGradient2512">
      <stop
         style="stop-color:#ffffff;stop-opacity:1;"
         offset="0"
         id="stop2514" />
      <stop
         style="stop-color:#ffffff;stop-opacity:0;"
         offset="1"
         id="stop2516" />
    </linearGradient>
    <linearGradient
       inkscape:collect="always"
       xlink:href="#linearGradient2512"
       id="linearGradient1655"
       gradientUnits="userSpaceOnUse"
       x1="102.0625"
       y1="-2.7058048"
       x2="59.8125"
       y2="75.044197" />
    <linearGradient
       inkscape:collect="always"
       xlink:href="#linearGradient3325"
       id="linearGradient1675"
       gradientUnits="userSpaceOnUse"
       gradientTransform="matrix(0.933709,0,0,0.933709,3.974655,1.712565)"
       x1="95.239143"
       y1="-52.086468"
       x2="53.753468"
       y2="102.74017" />
    <linearGradient
       id="linearGradient3325">
      <stop
         id="stop3327"
         offset="0"
         style="stop-color:#ffffff;stop-opacity:1;" />
      <stop
         id="stop3329"
         offset="1"
         style="stop-color:#ffffff;stop-opacity:0;" />
    </linearGradient>
    <linearGradient
       inkscape:collect="always"
       xlink:href="#linearGradient3325"
       id="linearGradient1672"
       gradientUnits="userSpaceOnUse"
       gradientTransform="matrix(0.933709,0,0,0.933709,3.974655,1.712565)"
       x1="95.239143"
       y1="-52.086468"
       x2="53.753468"
       y2="102.74017" />
  </defs>
  <sodipodi:namedview
     id="base"
     pagecolor="#ffffff"
     bordercolor="#666666"
     borderopacity="1.0"
     inkscape:pageopacity="0.0"
     inkscape:pageshadow="2"
     inkscape:zoom="7.5609192"
     inkscape:cx="116.64355"
     inkscape:cy="94.804717"
     inkscape:current-layer="layer1"
     showgrid="true"
     inkscape:document-units="px"
     inkscape:grid-bbox="true"
     inkscape:window-width="840"
     inkscape:window-height="540"
     inkscape:window-x="0"
     inkscape:window-y="25" />
  <metadata
     id="metadata1798">
    <rdf:RDF>
      <cc:Work
         rdf:about="">
        <dc:format>image/svg+xml</dc:format>
        <dc:type
           rdf:resource="http://purl.org/dc/dcmitype/StillImage" />
      </cc:Work>
    </rdf:RDF>
  </metadata>
  <g
     id="layer1"
     inkscape:label="Layer 1"
     inkscape:groupmode="layer">
    <path
       sodipodi:type="arc"
       style="opacity:0.38139535;fill:url(#radialGradient3297);fill-opacity:1;fill-rule:nonzero;stroke:none;stroke-width:0;stroke-linecap:round;stroke-linejoin:round;stroke-miterlimit:4;stroke-dasharray:none;stroke-dashoffset:4;stroke-opacity:1"
       id="path3289"
       sodipodi:cx="63.912209"
       sodipodi:cy="115.70919"
       sodipodi:rx="63.912209"
       sodipodi:ry="12.641975"
       d="M 127.82442 115.70919 A 63.912209 12.641975 0 1 1  0,115.70919 A 63.912209 12.641975 0 1 1  127.82442 115.70919 z"
       transform="matrix(1,0,0,0.416667,1.875013e-3,74.5203)" />
    <path
       style="fill:url(#linearGradient1705);fill-opacity:1;fill-rule:nonzero;stroke:url(#linearGradient1707);stroke-width:0.87124997;stroke-linecap:round;stroke-linejoin:round;stroke-miterlimit:4;stroke-dasharray:none;stroke-dashoffset:4;stroke-opacity:1"
       d="M 63.376876,0.39879781 C 32.56658,1.3729238 7.814376,26.733388 7.814376,57.773798 C 7.814377,89.430325 33.532849,115.18004 65.189376,115.18004 C 96.845895,115.18004 122.56438,89.429095 122.56438,57.773798 C 122.56438,26.118502 96.844675,0.39879781 65.189376,0.39879781 C 64.743645,0.39879781 64.261126,0.38508881 63.720626,0.39879781 C 63.599616,0.40186681 63.497701,0.39497781 63.376876,0.39879781 z M 63.501876,4.2737978 C 63.614663,4.2702338 63.701414,4.2766628 63.814376,4.2737978 C 64.224623,4.2633928 64.678582,4.2737978 65.189376,4.2737978 C 94.751505,4.2737978 118.68938,28.211675 118.68938,57.773798 C 118.68938,87.335925 94.750275,111.30504 65.189376,111.30504 C 35.628478,111.30504 11.689376,87.334695 11.689376,57.773798 C 11.689376,28.788705 34.741303,5.1826048 63.501876,4.2737978 z "
       id="path2571" />
    <path
       style="fill:url(#radialGradient1702);fill-opacity:1;fill-rule:nonzero;stroke:none;stroke-width:0.99675924;stroke-linecap:round;stroke-linejoin:round;stroke-miterlimit:4;stroke-dasharray:none;stroke-dashoffset:4;stroke-opacity:1"
       d="M 63.788223,2.3372418 C 33.839757,3.0968358 9.75046,27.640581 9.75046,57.77103 C 9.75046,88.379735 34.604618,113.23389 65.213331,113.23389 C 95.822045,113.23389 120.64711,88.379735 120.64711,57.77103 C 120.64711,27.162319 95.822045,2.3372418 65.213331,2.3372418 C 64.73507,2.3372418 64.263596,2.3251848 63.788223,2.3372418 z M 64.486236,45.323149 C 64.724774,45.309529 64.971402,45.323149 65.213331,45.323149 C 72.094904,45.323149 77.661215,50.889456 77.661215,57.77103 C 77.661215,64.6526 72.094905,70.247995 65.213331,70.247995 C 58.331758,70.247995 52.736366,64.652602 52.736366,57.77103 C 52.736367,51.131386 57.939665,45.696926 64.486236,45.323149 z "
       id="path1410" />
    <path
       style="opacity:0.77049178;fill:#a6b281;fill-opacity:1;fill-rule:nonzero;stroke:none;stroke-width:0.83622044;stroke-linecap:round;stroke-linejoin:round;stroke-miterlimit:4;stroke-dasharray:none;stroke-dashoffset:4;stroke-opacity:1"
       d="M 64.791076,36.88428 C 53.441776,37.100164 44.302646,46.386323 44.302646,57.786945 C 44.302646,69.322752 53.637636,78.689614 65.173446,78.68961 C 76.709245,78.68961 86.076105,69.322754 86.076105,57.786945 C 86.076105,46.251137 76.709255,36.884279 65.173446,36.88428 C 65.038256,36.88428 64.925656,36.88172 64.791076,36.88428 z M 64.472436,42.587903 C 64.710106,42.583109 64.933826,42.619767 65.173446,42.619767 C 73.561996,42.619768 80.372485,49.398387 80.372485,57.786945 C 80.372485,66.175502 73.561996,72.985986 65.173446,72.985986 C 56.784886,72.985989 49.974406,66.175501 49.974406,57.786945 C 49.974396,49.693298 56.332926,43.075398 64.313116,42.619767 C 64.367636,42.616654 64.417596,42.58901 64.472436,42.587903 z "
       id="path1375" />
    <g
       id="g2410"
       transform="matrix(0.951608,0.307315,-0.307315,0.951608,20.44411,-19.37515)">
      <path
         id="path2391"
         d="M 38.835707,10.482836 L 59.803017,48.024438 C 65.795823,44.743339 73.306468,46.887431 76.64453,52.864169 C 79.982594,58.840904 77.884118,66.387223 71.9476,69.769101 L 92.914906,107.3107 C 119.5587,92.355909 129.06459,58.600557 114.15885,31.912097 C 99.253112,5.2236362 65.542477,-4.3592119 38.835707,10.482836 z "
         style="opacity:0.0737705;fill:url(#radialGradient1645);fill-opacity:1;fill-rule:nonzero;stroke:none;stroke-width:0.99675924;stroke-linecap:round;stroke-linejoin:round;stroke-miterlimit:4;stroke-dasharray:none;stroke-dashoffset:4;stroke-opacity:1" />
      <path
         style="opacity:0.0737705;fill:url(#radialGradient1647);fill-opacity:1;fill-rule:nonzero;stroke:none;stroke-width:0.99675924;stroke-linecap:round;stroke-linejoin:round;stroke-miterlimit:4;stroke-dasharray:none;stroke-dashoffset:4;stroke-opacity:1"
         d="M 92.489293,107.54841 L 71.521983,70.006812 C 65.529173,73.287914 58.01853,71.143819 54.68047,65.167081 C 51.342411,59.190345 53.440875,51.644028 59.3774,48.262149 L 38.41009,10.720546 C 11.766295,25.675341 2.2604141,59.430693 17.166151,86.119153 C 32.071887,112.80761 65.782525,122.39046 92.489293,107.54841 z "
         id="path2406" />
    </g>
    <path
       style="opacity:0.26639344;fill:url(#linearGradient1696);fill-opacity:1;fill-rule:nonzero;stroke:none;stroke-width:0.99675924;stroke-linecap:round;stroke-linejoin:round;stroke-miterlimit:4;stroke-dasharray:none;stroke-dashoffset:4;stroke-opacity:1"
       d="M 63.790359,2.3253128 C 33.841894,3.0849068 9.751973,27.633812 9.751973,57.764261 C 9.751973,59.22873 9.786169,60.675811 9.897865,62.111842 C 10.299407,62.635427 10.768668,63.137206 11.240072,63.629118 C 15.448595,68.020739 24.335852,58.252934 53.869705,62.987194 C 53.137671,61.400581 52.731747,59.623694 52.731747,57.764261 C 52.731747,51.124618 57.944069,45.708043 64.49064,45.334265 C 64.729176,45.320645 64.97817,45.334265 65.2201,45.334265 C 72.101671,45.334265 77.650095,50.882688 77.650095,57.764261 C 77.650095,61.541061 75.982215,64.928459 73.331693,67.218061 C 101.11003,73.494429 114.10323,73.773201 120.13384,65.292287 C 120.13532,65.28138 120.16154,65.274017 120.16302,65.263108 C 120.49402,62.813318 120.65905,60.304216 120.65905,57.764261 C 120.65905,27.155552 95.828815,2.3253128 65.2201,2.3253128 C 64.741838,2.3253128 64.265731,2.3132558 63.790359,2.3253128 z "
       id="path2298" />
    <path
       style="fill:url(#linearGradient1691);fill-opacity:1;fill-rule:nonzero;stroke:url(#linearGradient1693);stroke-width:0.87124997;stroke-linecap:round;stroke-linejoin:round;stroke-miterlimit:4;stroke-dasharray:none;stroke-dashoffset:4;stroke-opacity:1"
       d="M 64.126876,43.398798 C 56.69682,43.960214 50.783127,50.212551 50.783126,57.773798 C 50.783127,65.704606 57.258566,72.180047 65.189376,72.180048 C 73.120186,72.180049 79.595625,65.699151 79.595625,57.773798 C 79.595625,49.848444 73.114728,43.398798 65.189376,43.398798 C 65.020095,43.398799 64.764545,43.376662 64.376876,43.398798 C 64.288349,43.403852 64.214979,43.392141 64.126876,43.398798 z M 64.345626,47.273798 C 64.431601,47.266799 64.509081,47.278739 64.595626,47.273798 C 64.685033,47.268694 64.8748,47.273798 65.189376,47.273798 C 71.027167,47.273799 75.720626,51.936005 75.720626,57.773798 C 75.720628,63.611588 71.021715,68.305048 65.189376,68.305048 C 59.357036,68.305048 54.658126,63.606135 54.658126,57.773798 C 54.658128,52.233361 58.929172,47.71474 64.345626,47.273798 z "
       id="path2426" />
    <text
       xml:space="preserve"
       style="font-size:3px;font-style:normal;font-variant:normal;font-weight:normal;font-stretch:normal;text-align:start;line-height:125%;writing-mode:lr-tb;text-anchor:start;opacity:0.17213117;fill:#000000;fill-opacity:1;stroke:none;stroke-width:1px;stroke-linecap:butt;stroke-linejoin:miter;stroke-opacity:1;font-family:Bitstream Vera Sans"
       id="text2478"
       sodipodi:linespacing="125%"><textPath
         xlink:href="#path2482"
         id="textPath2484"><tspan
   id="tspan2480"
   style="font-size:3px;font-style:normal;font-variant:normal;font-weight:normal;font-stretch:normal;text-align:start;line-height:125%;writing-mode:lr-tb;text-anchor:start;font-family:Bitstream Vera Sans">oxygen nยบ 13                   kde 4 2007</tspan></textPath></text>
    <path
       sodipodi:type="arc"
       style="opacity:0.0737705;fill:none;fill-opacity:1;fill-rule:nonzero;stroke:#000000;stroke-width:0.37125;stroke-linecap:round;stroke-linejoin:round;stroke-miterlimit:4;stroke-dasharray:none;stroke-dashoffset:4;stroke-opacity:1"
       id="path2482"
       sodipodi:cx="-59.489868"
       sodipodi:cy="161.47501"
       sodipodi:rx="38.065865"
       sodipodi:ry="38.065865"
       d="M -21.424004 161.47501 A 38.065865 38.065865 0 1 1  -97.555733,161.47501 A 38.065865 38.065865 0 1 1  -21.424004 161.47501 z"
       transform="matrix(0.301066,0,0,0.301066,83.09639,9.094325)" />
    <g
       id="g2549"
       transform="matrix(0.999971,7.539817e-3,-7.539817e-3,0.999971,0.508915,-0.441195)"
       style="opacity:0.68032789">
      <g
         id="g2530">
        <path
           style="opacity:0.48360656;fill:url(#linearGradient1655);fill-opacity:1;fill-rule:nonzero;stroke:none;stroke-width:0.99675924;stroke-linecap:round;stroke-linejoin:round;stroke-miterlimit:4;stroke-dasharray:none;stroke-dashoffset:4;stroke-opacity:1"
           d="M 63.4375,2.6875 C 62.216778,2.7260835 61.012215,2.7898661 59.8125,2.90625 L 64.40625,45.6875 C 64.431781,45.685886 64.443177,45.68896 64.46875,45.6875 C 64.707288,45.67388 64.976821,45.6875 65.21875,45.6875 C 69.627257,45.6875 73.476216,47.955074 75.6875,51.40625 L 111.15625,27.09375 C 101.18999,12.367851 84.333867,2.6875 65.21875,2.6875 C 64.740488,2.6875 64.256623,2.675443 63.78125,2.6875 C 63.664264,2.6904672 63.554306,2.6838081 63.4375,2.6875 z "
           id="path2499" />
        <path
           style="opacity:0.48360656;fill:url(#linearGradient1657);fill-opacity:1;fill-rule:nonzero;stroke:none;stroke-width:0.99675924;stroke-linecap:round;stroke-linejoin:round;stroke-miterlimit:4;stroke-dasharray:none;stroke-dashoffset:4;stroke-opacity:1"
           d="M 63.21875,2.6875 C 62.990235,2.6953451 62.758753,2.7088321 62.53125,2.71875 C 63.15624,15.384522 64.03264,32.985837 64.5625,45.6875 C 64.7772,45.680983 65.007062,45.6875 65.21875,45.6875 C 69.627257,45.6875 73.476216,47.955074 75.6875,51.40625 L 85.53125,44.65625 C 93.150564,38.38778 101.81483,31.292617 109.59375,24.875 C 99.480707,11.394662 83.363177,2.6875 65.21875,2.6875 C 64.740488,2.6875 64.256623,2.675443 63.78125,2.6875 C 63.664264,2.6904672 63.554306,2.6838081 63.4375,2.6875 C 63.361205,2.6899115 63.294922,2.684885 63.21875,2.6875 z "
           id="path2520" />
        <path
           style="opacity:0.48360656;fill:url(#linearGradient1659);fill-opacity:1;fill-rule:nonzero;stroke:none;stroke-width:0.99675924;stroke-linecap:round;stroke-linejoin:round;stroke-miterlimit:4;stroke-dasharray:none;stroke-dashoffset:4;stroke-opacity:1"
           d="M 66.96875,2.71875 L 66.4375,45.75 C 70.249044,46.118933 73.54589,48.194895 75.5625,51.21875 L 106.96875,21.625 C 97.1647,10.420682 82.903548,3.2138183 66.96875,2.71875 z "
           id="path2525" />
      </g>
      <g
         transform="matrix(-0.99779,6.64481e-2,-6.64481e-2,-0.99779,134.6643,111.1093)"
         id="g2535">
        <path
           id="path2537"
           d="M 63.4375,2.6875 C 62.216778,2.7260835 61.012215,2.7898661 59.8125,2.90625 L 64.40625,45.6875 C 64.431781,45.685886 64.443177,45.68896 64.46875,45.6875 C 64.707288,45.67388 64.976821,45.6875 65.21875,45.6875 C 69.627257,45.6875 73.476216,47.955074 75.6875,51.40625 L 111.15625,27.09375 C 101.18999,12.367851 84.333867,2.6875 65.21875,2.6875 C 64.740488,2.6875 64.256623,2.675443 63.78125,2.6875 C 63.664264,2.6904672 63.554306,2.6838081 63.4375,2.6875 z "
           style="opacity:0.48360656;fill:url(#linearGradient1661);fill-opacity:1;fill-rule:nonzero;stroke:none;stroke-width:0.99675924;stroke-linecap:round;stroke-linejoin:round;stroke-miterlimit:4;stroke-dasharray:none;stroke-dashoffset:4;stroke-opacity:1" />
        <path
           id="path2539"
           d="M 63.21875,2.6875 C 62.990235,2.6953451 62.758753,2.7088321 62.53125,2.71875 C 63.15624,15.384522 64.03264,32.985837 64.5625,45.6875 C 64.7772,45.680983 65.007062,45.6875 65.21875,45.6875 C 69.627257,45.6875 73.476216,47.955074 75.6875,51.40625 L 85.53125,44.65625 C 93.150564,38.38778 101.81483,31.292617 109.59375,24.875 C 99.480707,11.394662 83.363177,2.6875 65.21875,2.6875 C 64.740488,2.6875 64.256623,2.675443 63.78125,2.6875 C 63.664264,2.6904672 63.554306,2.6838081 63.4375,2.6875 C 63.361205,2.6899115 63.294922,2.684885 63.21875,2.6875 z "
           style="opacity:0.48360656;fill:url(#linearGradient1663);fill-opacity:1;fill-rule:nonzero;stroke:none;stroke-width:0.99675924;stroke-linecap:round;stroke-linejoin:round;stroke-miterlimit:4;stroke-dasharray:none;stroke-dashoffset:4;stroke-opacity:1" />
        <path
           id="path2541"
           d="M 66.96875,2.71875 L 66.4375,45.75 C 70.249044,46.118933 73.54589,48.194895 75.5625,51.21875 L 106.96875,21.625 C 97.1647,10.420682 82.903548,3.2138183 66.96875,2.71875 z "
           style="opacity:0.48360656;fill:url(#linearGradient1665);fill-opacity:1;fill-rule:nonzero;stroke:none;stroke-width:0.99675924;stroke-linecap:round;stroke-linejoin:round;stroke-miterlimit:4;stroke-dasharray:none;stroke-dashoffset:4;stroke-opacity:1" />
      </g>
    </g>
    <path
       id="path2358"
       d="M 63.440218,2.3253128 C 33.654608,3.2667908 9.751973,27.751509 9.751973,57.764261 C 9.751973,59.22873 9.786169,60.675811 9.897865,62.111842 C 10.299407,62.635427 10.768668,63.137206 11.240072,63.629118 C 14.371931,66.897234 72.996125,19.155374 96.470155,11.954183 C 87.574245,5.8743558 76.803865,2.3253128 65.2201,2.3253128 C 64.741838,2.3253128 64.265731,2.3132558 63.790359,2.3253128 C 63.673372,2.3282798 63.557024,2.3216208 63.440218,2.3253128 z M 104.02736,18.198359 C 86.964415,26.593359 81.299965,60.993467 87.263015,64.896174 C 96.753255,71.107362 114.10323,73.773201 120.13384,65.292287 C 120.1371,65.289975 120.15975,65.26542 120.16302,65.263108 C 120.49402,62.813318 120.65905,60.304216 120.65905,57.764261 C 120.65905,42.265612 114.28638,28.260619 104.02736,18.198359 z "
       style="opacity:0.51639344;fill:url(#linearGradient1675);fill-opacity:1;fill-rule:nonzero;stroke:none;stroke-width:0.99675924;stroke-linecap:round;stroke-linejoin:round;stroke-miterlimit:4;stroke-dasharray:none;stroke-dashoffset:4;stroke-opacity:1"
       sodipodi:nodetypes="cscscssccscssc" />
    <path
       style="opacity:0.82377044;fill:url(#linearGradient1672);fill-opacity:1;fill-rule:nonzero;stroke:none;stroke-width:0.99675924;stroke-linecap:round;stroke-linejoin:round;stroke-miterlimit:4;stroke-dasharray:none;stroke-dashoffset:4;stroke-opacity:1"
       d="M 63.440218,2.3253128 C 33.654608,3.2667908 9.751973,27.751509 9.751973,57.764261 C 9.751973,59.22873 9.786169,60.675811 9.897865,62.111842 C 10.299407,62.635427 10.768668,63.137206 11.240072,63.629118 C 14.371931,66.897234 20.096769,62.306117 34.991284,61.703344 C 50.796224,41.483087 72.996125,19.155374 96.470155,11.954183 C 87.574245,5.8743558 76.803865,2.3253128 65.2201,2.3253128 C 64.741838,2.3253128 64.265731,2.3132558 63.790359,2.3253128 C 63.673372,2.3282798 63.557024,2.3216208 63.440218,2.3253128 z M 104.02736,18.198359 C 86.964415,26.593359 79.101675,37.578937 74.469651,49.448419 C 76.447615,51.648527 77.650095,54.562179 77.650095,57.764261 C 77.650095,61.541061 75.982215,64.928459 73.331693,67.218061 C 101.11003,73.494429 114.10323,73.773201 120.13384,65.292287 C 120.1371,65.289975 120.15975,65.26542 120.16302,65.263108 C 120.49402,62.813318 120.65905,60.304216 120.65905,57.764261 C 120.65905,42.265612 114.28638,28.260619 104.02736,18.198359 z "
       id="path2353" />
  </g>
</svg>
