<?xml version="1.0" encoding="UTF-8" standalone="no"?>
<!-- Created with Inkscape (http://www.inkscape.org/) -->
<svg
   xmlns:dc="http://purl.org/dc/elements/1.1/"
   xmlns:cc="http://web.resource.org/cc/"
   xmlns:rdf="http://www.w3.org/1999/02/22-rdf-syntax-ns#"
   xmlns:svg="http://www.w3.org/2000/svg"
   xmlns="http://www.w3.org/2000/svg"
   xmlns:xlink="http://www.w3.org/1999/xlink"
   xmlns:sodipodi="http://sodipodi.sourceforge.net/DTD/sodipodi-0.dtd"
   xmlns:inkscape="http://www.inkscape.org/namespaces/inkscape"
   width="128"
   height="128"
   id="svg1307"
   sodipodi:version="0.32"
   inkscape:version="0.44"
   version="1.0"
   sodipodi:docbase="/home/pinheiro/artwork/Oxygen/theme/svg/actions"
   sodipodi:docname="cd_data.svg">
  <defs
     id="defs1309">
    <linearGradient
       inkscape:collect="always"
       id="linearGradient2887">
      <stop
         style="stop-color:black;stop-opacity:1;"
         offset="0"
         id="stop2889" />
      <stop
         style="stop-color:black;stop-opacity:0;"
         offset="1"
         id="stop2891" />
    </linearGradient>
    <linearGradient
       id="linearGradient2322">
      <stop
         id="stop2324"
         offset="0"
         style="stop-color:#ffffff;stop-opacity:1;" />
      <stop
         id="stop2326"
         offset="1"
         style="stop-color:#999999;stop-opacity:1;" />
    </linearGradient>
    <linearGradient
       inkscape:collect="always"
       id="linearGradient2512">
      <stop
         style="stop-color:#ffffff;stop-opacity:1;"
         offset="0"
         id="stop2514" />
      <stop
         style="stop-color:#ffffff;stop-opacity:0;"
         offset="1"
         id="stop2516" />
    </linearGradient>
    <linearGradient
       inkscape:collect="always"
       id="linearGradient2430">
      <stop
         style="stop-color:#000000;stop-opacity:1;"
         offset="0"
         id="stop2432" />
      <stop
         style="stop-color:#000000;stop-opacity:0;"
         offset="1"
         id="stop2434" />
    </linearGradient>
    <linearGradient
       id="linearGradient2369">
      <stop
         style="stop-color:#ffffff;stop-opacity:0;"
         offset="0"
         id="stop2371" />
      <stop
         id="stop2385"
         offset="0.29734492"
         style="stop-color:#ffffff;stop-opacity:0;" />
      <stop
         id="stop2383"
         offset="0.4831855"
         style="stop-color:#ff6dff;stop-opacity:1;" />
      <stop
         id="stop2377"
         offset="0.50018114"
         style="stop-color:#ff0000;stop-opacity:1;" />
      <stop
         style="stop-color:#00ff00;stop-opacity:1;"
         offset="0.51648355"
         id="stop2381" />
      <stop
         style="stop-color:#0000ff;stop-opacity:1;"
         offset="0.53395635"
         id="stop2379" />
      <stop
         id="stop2387"
         offset="0.55754495"
         style="stop-color:#00ffff;stop-opacity:1;" />
      <stop
         style="stop-color:#ffffff;stop-opacity:0;"
         offset="0.55754495"
         id="stop2389" />
      <stop
         style="stop-color:#000000;stop-opacity:0;"
         offset="1"
         id="stop2373" />
    </linearGradient>
    <linearGradient
       id="linearGradient3325">
      <stop
         id="stop3327"
         offset="0"
         style="stop-color:#ffffff;stop-opacity:1;" />
      <stop
         id="stop3329"
         offset="1"
         style="stop-color:#ffffff;stop-opacity:0;" />
    </linearGradient>
    <linearGradient
       inkscape:collect="always"
       id="linearGradient3291">
      <stop
         style="stop-color:#000000;stop-opacity:1;"
         offset="0"
         id="stop3293" />
      <stop
         style="stop-color:#000000;stop-opacity:0;"
         offset="1"
         id="stop3295" />
    </linearGradient>
    <linearGradient
       id="linearGradient3225">
      <stop
         style="stop-color:#ffffff;stop-opacity:1;"
         offset="0"
         id="stop3227" />
      <stop
         style="stop-color:#aca386;stop-opacity:1;"
         offset="1"
         id="stop3229" />
    </linearGradient>
    <radialGradient
       inkscape:collect="always"
       xlink:href="#linearGradient3291"
       id="radialGradient3297"
       cx="63.912209"
       cy="115.70919"
       fx="63.912209"
       fy="115.7093"
       r="63.912209"
       gradientTransform="matrix(1,0,0,0.197802,0,92.82166)"
       gradientUnits="userSpaceOnUse" />
    <radialGradient
       inkscape:collect="always"
       xlink:href="#linearGradient2369"
       id="radialGradient2349"
       gradientUnits="userSpaceOnUse"
       gradientTransform="matrix(0.946086,-1.58605,1.489114,0.888263,-90.73811,134.2833)"
       spreadMethod="repeat"
       cx="86.040627"
       cy="68.49028"
       fx="80.437614"
       fy="103.6857"
       r="59.778126" />
    <radialGradient
       inkscape:collect="always"
       xlink:href="#linearGradient2369"
       id="radialGradient2351"
       gradientUnits="userSpaceOnUse"
       gradientTransform="matrix(-0.946086,1.58605,-1.489114,-0.888263,222.0631,-16.25204)"
       spreadMethod="repeat"
       cx="86.040627"
       cy="68.49028"
       fx="80.437614"
       fy="103.6857"
       r="59.778126" />
    <linearGradient
       inkscape:collect="always"
       xlink:href="#linearGradient2512"
       id="linearGradient2359"
       gradientUnits="userSpaceOnUse"
       x1="102.0625"
       y1="-2.7058048"
       x2="59.8125"
       y2="75.044197" />
    <linearGradient
       inkscape:collect="always"
       xlink:href="#linearGradient2512"
       id="linearGradient2361"
       gradientUnits="userSpaceOnUse"
       x1="102.0625"
       y1="-2.7058048"
       x2="59.8125"
       y2="75.044197" />
    <linearGradient
       inkscape:collect="always"
       xlink:href="#linearGradient2512"
       id="linearGradient2363"
       gradientUnits="userSpaceOnUse"
       x1="102.0625"
       y1="-2.7058048"
       x2="59.8125"
       y2="75.044197" />
    <linearGradient
       inkscape:collect="always"
       xlink:href="#linearGradient2512"
       id="linearGradient2365"
       gradientUnits="userSpaceOnUse"
       x1="102.0625"
       y1="-2.7058048"
       x2="59.8125"
       y2="75.044197" />
    <linearGradient
       inkscape:collect="always"
       xlink:href="#linearGradient2512"
       id="linearGradient2367"
       gradientUnits="userSpaceOnUse"
       x1="102.0625"
       y1="-2.7058048"
       x2="59.8125"
       y2="75.044197" />
    <linearGradient
       inkscape:collect="always"
       xlink:href="#linearGradient2512"
       id="linearGradient2370"
       gradientUnits="userSpaceOnUse"
       x1="102.0625"
       y1="-2.7058048"
       x2="59.8125"
       y2="75.044197" />
    <linearGradient
       inkscape:collect="always"
       xlink:href="#linearGradient3325"
       id="linearGradient2377"
       gradientUnits="userSpaceOnUse"
       gradientTransform="matrix(0.933709,0,0,0.933709,3.972776,2.063769)"
       x1="95.239143"
       y1="-52.086468"
       x2="53.753468"
       y2="102.74017" />
    <linearGradient
       inkscape:collect="always"
       xlink:href="#linearGradient3325"
       id="linearGradient2380"
       gradientUnits="userSpaceOnUse"
       gradientTransform="matrix(0.933709,0,0,0.933709,3.972776,2.063769)"
       x1="95.239143"
       y1="-52.086468"
       x2="53.753468"
       y2="102.74017" />
    <linearGradient
       inkscape:collect="always"
       xlink:href="#linearGradient3225"
       id="linearGradient2396"
       gradientUnits="userSpaceOnUse"
       x1="-16.63065"
       y1="-37.966259"
       x2="61.224335"
       y2="406.26038" />
    <linearGradient
       inkscape:collect="always"
       xlink:href="#linearGradient2430"
       id="linearGradient2398"
       gradientUnits="userSpaceOnUse"
       gradientTransform="translate(-0.581855,-0.880546)"
       x1="73.640358"
       y1="232.70004"
       x2="72.251587"
       y2="-64.937431" />
    <linearGradient
       inkscape:collect="always"
       xlink:href="#linearGradient3325"
       id="linearGradient2401"
       gradientUnits="userSpaceOnUse"
       gradientTransform="matrix(0.933709,0,0,0.933709,3.972776,2.063769)"
       x1="95.239143"
       y1="-52.086468"
       x2="53.753468"
       y2="102.74017" />
    <radialGradient
       inkscape:collect="always"
       xlink:href="#linearGradient2322"
       id="radialGradient2407"
       gradientUnits="userSpaceOnUse"
       gradientTransform="matrix(1.076441,-8.385946e-8,1.399714e-7,1.796708,-5.595973,-49.4106)"
       cx="65.765625"
       cy="59.856506"
       fx="65.765625"
       fy="95.100655"
       r="59.778126" />
    <linearGradient
       inkscape:collect="always"
       xlink:href="#linearGradient3225"
       id="linearGradient2410"
       gradientUnits="userSpaceOnUse"
       x1="76.869347"
       y1="73.033737"
       x2="61.224335"
       y2="406.26038" />
    <linearGradient
       inkscape:collect="always"
       xlink:href="#linearGradient2430"
       id="linearGradient2412"
       gradientUnits="userSpaceOnUse"
       gradientTransform="translate(-0.581855,-0.880546)"
       x1="73.640358"
       y1="232.70004"
       x2="72.251587"
       y2="-64.937431" />
    <linearGradient
       inkscape:collect="always"
       xlink:href="#linearGradient2887"
       id="linearGradient2893"
       x1="99.085281"
       y1="97.271309"
       x2="128.02901"
       y2="97.271309"
       gradientUnits="userSpaceOnUse" />
  </defs>
  <sodipodi:namedview
     id="base"
     pagecolor="#ffffff"
     bordercolor="#666666"
     borderopacity="1.0"
     inkscape:pageopacity="0.0"
     inkscape:pageshadow="2"
     inkscape:zoom="3.0754618"
     inkscape:cx="50.482028"
     inkscape:cy="74.066751"
     inkscape:current-layer="layer1"
     showgrid="false"
     inkscape:document-units="px"
     inkscape:grid-bbox="true"
     guidetolerance="0.1px"
     showguides="true"
     inkscape:guide-bbox="true"
     inkscape:window-width="1106"
     inkscape:window-height="958"
     inkscape:window-x="211"
     inkscape:window-y="74">
    <sodipodi:guide
       orientation="horizontal"
       position="32.49"
       id="guide2204" />
  </sodipodi:namedview>
  <metadata
     id="metadata1312">
    <rdf:RDF>
      <cc:Work
         rdf:about="">
        <dc:format>image/svg+xml</dc:format>
        <dc:type
           rdf:resource="http://purl.org/dc/dcmitype/StillImage" />
        <cc:license
           rdf:resource="http://creativecommons.org/licenses/GPL/2.0/" />
        <dc:contributor>
          <cc:Agent>
            <dc:title>Oxygen team</dc:title>
          </cc:Agent>
        </dc:contributor>
      </cc:Work>
      <cc:License
         rdf:about="http://creativecommons.org/licenses/LGPL/2.1/">
        <cc:permits
           rdf:resource="http://web.resource.org/cc/Reproduction" />
        <cc:permits
           rdf:resource="http://web.resource.org/cc/Distribution" />
        <cc:requires
           rdf:resource="http://web.resource.org/cc/Notice" />
        <cc:permits
           rdf:resource="http://web.resource.org/cc/DerivativeWorks" />
        <cc:requires
           rdf:resource="http://web.resource.org/cc/ShareAlike" />
        <cc:requires
           rdf:resource="http://web.resource.org/cc/SourceCode" />
      </cc:License>
    </rdf:RDF>
  </metadata>
  <g
     id="layer1"
     inkscape:label="Layer 1"
     inkscape:groupmode="layer">
    <path
       sodipodi:nodetypes="ccc"
       id="path2276"
       d="M 50.892799,3.2812959 L 50.892799,0.48658747 L 50.892799,3.2812959 z "
       style="fill:#ffffff;fill-opacity:0.75688076;fill-rule:nonzero;stroke:none;stroke-width:0.5;stroke-linecap:round;stroke-linejoin:round;stroke-miterlimit:4;stroke-dasharray:none;stroke-dashoffset:4;stroke-opacity:1" />
    <path
       sodipodi:type="arc"
       style="opacity:0.38139535;fill:url(#radialGradient3297);fill-opacity:1.0;fill-rule:nonzero;stroke:none;stroke-width:0;stroke-linecap:round;stroke-linejoin:round;stroke-miterlimit:4;stroke-dasharray:none;stroke-dashoffset:4;stroke-opacity:1"
       id="path3289"
       sodipodi:cx="63.912209"
       sodipodi:cy="115.70919"
       sodipodi:rx="63.912209"
       sodipodi:ry="12.641975"
       d="M 127.82442 115.70919 A 63.912209 12.641975 0 1 1  0,115.70919 A 63.912209 12.641975 0 1 1  127.82442 115.70919 z"
       transform="matrix(1,0,0,0.416667,0,74.87151)" />
    <path
       style="fill:url(#linearGradient2410);fill-opacity:1;fill-rule:nonzero;stroke:url(#linearGradient2412);stroke-width:0.87124997;stroke-linecap:round;stroke-linejoin:round;stroke-miterlimit:4;stroke-dasharray:none;stroke-dashoffset:4;stroke-opacity:1"
       d="M 63.375,0.75 C 32.564704,1.724126 7.8125,27.08459 7.8125,58.125 C 7.8125002,89.781525 33.530973,115.53125 65.1875,115.53125 C 96.844023,115.53125 122.5625,89.780297 122.5625,58.125 C 122.5625,26.469704 96.842801,0.75 65.1875,0.75 C 64.741769,0.74999987 64.25925,0.7362912 63.71875,0.75 C 63.59774,0.75306923 63.495825,0.7461799 63.375,0.75 z M 63.5,4.625 C 63.612787,4.621436 63.699538,4.6278651 63.8125,4.625 C 64.222747,4.6145949 64.676706,4.6249999 65.1875,4.625 C 94.749628,4.6250001 118.6875,28.562877 118.6875,58.125 C 118.6875,87.687124 94.748395,111.65625 65.1875,111.65625 C 35.626602,111.65625 11.6875,87.685897 11.6875,58.125 C 11.6875,29.139907 34.739427,5.5338073 63.5,4.625 z "
       id="path2571" />
    <path
       style="fill:url(#radialGradient2407);fill-opacity:1;fill-rule:nonzero;stroke:none;stroke-width:0.99675924;stroke-linecap:round;stroke-linejoin:round;stroke-miterlimit:4;stroke-dasharray:none;stroke-dashoffset:4;stroke-opacity:1"
       d="M 63.786347,2.6884446 C 33.837881,3.4480385 9.748584,27.991783 9.748584,58.122232 C 9.748584,88.730942 34.602742,113.5851 65.211455,113.5851 C 95.820166,113.5851 120.64523,88.730942 120.64523,58.122232 C 120.64523,27.513521 95.820169,2.6884446 65.211455,2.6884446 C 64.733194,2.6884446 64.26172,2.6763876 63.786347,2.6884446 z M 64.48436,45.674351 C 64.722898,45.660731 64.969526,45.674351 65.211455,45.674351 C 72.093028,45.674351 77.659336,51.240658 77.659336,58.122232 C 77.659334,65.003802 72.093029,70.599197 65.211455,70.599197 C 58.329882,70.599197 52.73449,65.003804 52.73449,58.122232 C 52.734491,51.482588 57.937789,46.048128 64.48436,45.674351 z "
       id="path1410" />
    <path
       style="opacity:0.7704918;fill:#a0a0a0;fill-opacity:1;fill-rule:nonzero;stroke:none;stroke-width:0.83622044;stroke-linecap:round;stroke-linejoin:round;stroke-miterlimit:4;stroke-dasharray:none;stroke-dashoffset:4;stroke-opacity:1"
       d="M 64.745764,37.217106 C 53.39646,37.43299 44.257332,46.719149 44.257329,58.119771 C 44.257329,69.655578 53.592325,79.02244 65.12813,79.022436 C 76.663938,79.022436 86.030795,69.65558 86.030795,58.119771 C 86.030795,46.583963 76.663939,37.217105 65.12813,37.217106 C 64.992945,37.217106 64.880341,37.214546 64.745764,37.217106 z M 64.427126,42.920729 C 64.664793,42.915935 64.888515,42.952593 65.12813,42.952593 C 73.516686,42.952594 80.327172,49.731213 80.327172,58.119771 C 80.327172,66.508328 73.516688,73.318812 65.12813,73.318812 C 56.73957,73.318815 49.929089,66.508327 49.929089,58.119771 C 49.929086,50.026124 56.287613,43.408224 64.267807,42.952593 C 64.322327,42.94948 64.372281,42.921836 64.427126,42.920729 z "
       id="path1375" />
    <g
       id="g2410"
       transform="matrix(0.951608,0.307315,-0.307315,0.951608,21.25941,-18.61536)">
      <path
         id="path2391"
         d="M 38.835707,10.482836 L 59.803017,48.024438 C 65.795823,44.743339 73.30647,46.887431 76.64453,52.864169 C 79.98259,58.840904 77.884123,66.387223 71.9476,69.769101 L 92.91491,107.3107 C 119.5587,92.355909 129.06459,58.600557 114.15885,31.912097 C 99.253113,5.2236362 65.542477,-4.359212 38.835707,10.482836 z "
         style="opacity:0.0737705;fill:url(#radialGradient2349);fill-opacity:1;fill-rule:nonzero;stroke:none;stroke-width:0.99675924;stroke-linecap:round;stroke-linejoin:round;stroke-miterlimit:4;stroke-dasharray:none;stroke-dashoffset:4;stroke-opacity:1" />
      <path
         style="opacity:0.0737705;fill:url(#radialGradient2351);fill-opacity:1;fill-rule:nonzero;stroke:none;stroke-width:0.99675924;stroke-linecap:round;stroke-linejoin:round;stroke-miterlimit:4;stroke-dasharray:none;stroke-dashoffset:4;stroke-opacity:1"
         d="M 92.489293,107.54841 L 71.521983,70.006812 C 65.529173,73.287914 58.01853,71.143819 54.68047,65.167081 C 51.342411,59.190345 53.440875,51.644028 59.3774,48.262149 L 38.41009,10.720546 C 11.766295,25.675341 2.2604141,59.430693 17.166151,86.119153 C 32.071887,112.80761 65.782525,122.39046 92.489293,107.54841 z "
         id="path2406" />
    </g>
    <path
       style="opacity:0.26639344;fill:url(#linearGradient2401);fill-opacity:1;fill-rule:nonzero;stroke:none;stroke-width:0.99675924;stroke-linecap:round;stroke-linejoin:round;stroke-miterlimit:4;stroke-dasharray:none;stroke-dashoffset:4;stroke-opacity:1"
       d="M 63.788483,2.6765154 C 33.840018,3.4361094 9.750097,27.985014 9.750097,58.115463 C 9.750097,59.579932 9.784293,61.027013 9.895989,62.463044 C 10.297531,62.986629 10.766792,63.488408 11.238196,63.98032 C 15.446719,68.371941 24.333976,58.604136 53.867829,63.338396 C 53.135795,61.751783 52.729871,59.974896 52.729871,58.115463 C 52.729871,51.47582 57.942193,46.059245 64.488764,45.685467 C 64.7273,45.671847 64.976294,45.685467 65.218224,45.685467 C 72.099795,45.685467 77.64822,51.23389 77.64822,58.115463 C 77.648216,61.892263 75.980342,65.279661 73.329817,67.569263 C 101.10815,73.845631 114.10135,74.124403 120.13196,65.643489 C 120.13344,65.632582 120.15966,65.625219 120.16114,65.61431 C 120.49214,63.16452 120.65717,60.655418 120.65717,58.115463 C 120.65717,27.506754 95.826938,2.6765154 65.218224,2.6765154 C 64.739962,2.6765154 64.263855,2.6644584 63.788483,2.6765154 z "
       id="path2298" />
    <path
       style="fill:url(#linearGradient2396);fill-opacity:1;fill-rule:nonzero;stroke:url(#linearGradient2398);stroke-width:0.87124997;stroke-linecap:round;stroke-linejoin:round;stroke-miterlimit:4;stroke-dasharray:none;stroke-dashoffset:4;stroke-opacity:1"
       d="M 64.125,43.75 C 56.694944,44.311416 50.781251,50.563753 50.78125,58.125 C 50.781251,66.055808 57.25669,72.531249 65.1875,72.53125 C 73.11831,72.531251 79.593751,66.050353 79.59375,58.125 C 79.593751,50.199646 73.112852,43.75 65.1875,43.75 C 65.018219,43.750001 64.762669,43.727864 64.375,43.75 C 64.286473,43.755054 64.213103,43.743343 64.125,43.75 z M 64.34375,47.625 C 64.429725,47.618001 64.507205,47.629941 64.59375,47.625 C 64.683157,47.619896 64.872924,47.625 65.1875,47.625 C 71.025291,47.625001 75.71875,52.287207 75.71875,58.125 C 75.718752,63.96279 71.019839,68.65625 65.1875,68.65625 C 59.35516,68.65625 54.65625,63.957337 54.65625,58.125 C 54.656252,52.584563 58.927296,48.065942 64.34375,47.625 z "
       id="path2426" />
    <text
       xml:space="preserve"
       style="font-size:3px;font-style:normal;font-variant:normal;font-weight:normal;font-stretch:normal;text-align:start;line-height:125%;writing-mode:lr-tb;text-anchor:start;opacity:0.17213117;fill:#000000;fill-opacity:1;stroke:none;stroke-width:1px;stroke-linecap:butt;stroke-linejoin:miter;stroke-opacity:1;font-family:Bitstream Vera Sans"
       id="text2478"
       sodipodi:linespacing="125%"><textPath
         xlink:href="#path2482"
         id="textPath2484"><tspan
   id="tspan2480"
   style="font-size:3px;font-style:normal;font-variant:normal;font-weight:normal;font-stretch:normal;text-align:start;line-height:125%;writing-mode:lr-tb;text-anchor:start;font-family:Bitstream Vera Sans">oxygen nยบ 13                   kde 4 2007</tspan></textPath></text>
    <path
       sodipodi:type="arc"
       style="opacity:0.0737705;fill:none;fill-opacity:1;fill-rule:nonzero;stroke:#000000;stroke-width:0.37125;stroke-linecap:round;stroke-linejoin:round;stroke-miterlimit:4;stroke-dasharray:none;stroke-dashoffset:4;stroke-opacity:1"
       id="path2482"
       sodipodi:cx="-59.489868"
       sodipodi:cy="161.47501"
       sodipodi:rx="38.065865"
       sodipodi:ry="38.065865"
       d="M -21.424004 161.47501 A 38.065865 38.065865 0 1 1  -97.555733,161.47501 A 38.065865 38.065865 0 1 1  -21.424004 161.47501 z"
       transform="matrix(0.301066,0,0,0.301066,83.09454,9.445531)" />
    <g
       id="g2549"
       transform="matrix(0.999971,7.539817e-3,-7.539817e-3,0.999971,0.50704,-8.999716e-2)"
       style="opacity:0.68032789">
      <g
         id="g2530">
        <path
           style="opacity:0.48360656;fill:url(#linearGradient2359);fill-opacity:1;fill-rule:nonzero;stroke:none;stroke-width:0.99675924;stroke-linecap:round;stroke-linejoin:round;stroke-miterlimit:4;stroke-dasharray:none;stroke-dashoffset:4;stroke-opacity:1"
           d="M 63.4375,2.6875 C 62.216778,2.7260835 61.012215,2.7898661 59.8125,2.90625 L 64.40625,45.6875 C 64.431781,45.685886 64.443177,45.68896 64.46875,45.6875 C 64.707288,45.67388 64.976821,45.6875 65.21875,45.6875 C 69.627257,45.6875 73.476216,47.955074 75.6875,51.40625 L 111.15625,27.09375 C 101.18999,12.367851 84.333867,2.6875 65.21875,2.6875 C 64.740488,2.6875 64.256623,2.675443 63.78125,2.6875 C 63.664264,2.6904672 63.554306,2.6838081 63.4375,2.6875 z "
           id="path2499" />
        <path
           style="opacity:0.48360656;fill:url(#linearGradient2361);fill-opacity:1;fill-rule:nonzero;stroke:none;stroke-width:0.99675924;stroke-linecap:round;stroke-linejoin:round;stroke-miterlimit:4;stroke-dasharray:none;stroke-dashoffset:4;stroke-opacity:1"
           d="M 63.21875,2.6875 C 62.990235,2.6953451 62.758753,2.7088321 62.53125,2.71875 C 63.15624,15.384522 64.03264,32.985837 64.5625,45.6875 C 64.7772,45.680983 65.007062,45.6875 65.21875,45.6875 C 69.627257,45.6875 73.476216,47.955074 75.6875,51.40625 L 85.53125,44.65625 C 93.150564,38.38778 101.81483,31.292617 109.59375,24.875 C 99.480707,11.394662 83.363177,2.6875 65.21875,2.6875 C 64.740488,2.6875 64.256623,2.675443 63.78125,2.6875 C 63.664264,2.6904672 63.554306,2.6838081 63.4375,2.6875 C 63.361205,2.6899115 63.294922,2.684885 63.21875,2.6875 z "
           id="path2520" />
        <path
           style="opacity:0.48360656;fill:url(#linearGradient2363);fill-opacity:1;fill-rule:nonzero;stroke:none;stroke-width:0.99675924;stroke-linecap:round;stroke-linejoin:round;stroke-miterlimit:4;stroke-dasharray:none;stroke-dashoffset:4;stroke-opacity:1"
           d="M 66.96875,2.71875 L 66.4375,45.75 C 70.249044,46.118933 73.54589,48.194895 75.5625,51.21875 L 106.96875,21.625 C 97.1647,10.420682 82.903548,3.2138183 66.96875,2.71875 z "
           id="path2525" />
      </g>
      <g
         transform="matrix(-0.99779,6.64481e-2,-6.64481e-2,-0.99779,134.6643,111.1093)"
         id="g2535">
        <path
           id="path2537"
           d="M 63.4375,2.6875 C 62.216778,2.7260835 61.012215,2.7898661 59.8125,2.90625 L 64.40625,45.6875 C 64.431781,45.685886 64.443177,45.68896 64.46875,45.6875 C 64.707288,45.67388 64.976821,45.6875 65.21875,45.6875 C 69.627257,45.6875 73.476216,47.955074 75.6875,51.40625 L 111.15625,27.09375 C 101.18999,12.367851 84.333867,2.6875 65.21875,2.6875 C 64.740488,2.6875 64.256623,2.675443 63.78125,2.6875 C 63.664264,2.6904672 63.554306,2.6838081 63.4375,2.6875 z "
           style="opacity:0.48360656;fill:url(#linearGradient2365);fill-opacity:1;fill-rule:nonzero;stroke:none;stroke-width:0.99675924;stroke-linecap:round;stroke-linejoin:round;stroke-miterlimit:4;stroke-dasharray:none;stroke-dashoffset:4;stroke-opacity:1" />
        <path
           id="path2539"
           d="M 63.21875,2.6875 C 62.990235,2.6953451 62.758753,2.7088321 62.53125,2.71875 C 63.15624,15.384522 64.03264,32.985837 64.5625,45.6875 C 64.7772,45.680983 65.007062,45.6875 65.21875,45.6875 C 69.627257,45.6875 73.476216,47.955074 75.6875,51.40625 L 85.53125,44.65625 C 93.150564,38.38778 101.81483,31.292617 109.59375,24.875 C 99.480707,11.394662 83.363177,2.6875 65.21875,2.6875 C 64.740488,2.6875 64.256623,2.675443 63.78125,2.6875 C 63.664264,2.6904672 63.554306,2.6838081 63.4375,2.6875 C 63.361205,2.6899115 63.294922,2.684885 63.21875,2.6875 z "
           style="opacity:0.48360656;fill:url(#linearGradient2367);fill-opacity:1;fill-rule:nonzero;stroke:none;stroke-width:0.99675924;stroke-linecap:round;stroke-linejoin:round;stroke-miterlimit:4;stroke-dasharray:none;stroke-dashoffset:4;stroke-opacity:1" />
        <path
           id="path2541"
           d="M 66.96875,2.71875 L 66.4375,45.75 C 70.249044,46.118933 73.54589,48.194895 75.5625,51.21875 L 106.96875,21.625 C 97.1647,10.420682 82.903548,3.2138183 66.96875,2.71875 z "
           style="opacity:0.48360656;fill:url(#linearGradient2370);fill-opacity:1;fill-rule:nonzero;stroke:none;stroke-width:0.99675924;stroke-linecap:round;stroke-linejoin:round;stroke-miterlimit:4;stroke-dasharray:none;stroke-dashoffset:4;stroke-opacity:1" />
      </g>
    </g>
    <path
       id="path2358"
       d="M 63.438342,2.6765154 C 33.652732,3.6179935 9.750097,28.102711 9.750097,58.115463 C 9.750097,59.579932 9.784293,61.027013 9.895989,62.463044 C 10.297531,62.986629 10.766792,63.488408 11.238196,63.98032 C 14.370055,67.248436 72.994249,19.506576 96.468283,12.305385 C 87.572367,6.2255582 76.80199,2.6765154 65.218224,2.6765154 C 64.739962,2.6765154 64.263855,2.6644584 63.788483,2.6765154 C 63.671496,2.6794826 63.555148,2.6728233 63.438342,2.6765154 z M 104.02548,18.549561 C 86.962541,26.944561 81.298089,61.344669 87.261137,65.247376 C 96.751376,71.458564 114.10135,74.124403 120.13196,65.643489 C 120.13522,65.641177 120.15787,65.616622 120.16114,65.61431 C 120.49214,63.16452 120.65717,60.655418 120.65717,58.115463 C 120.65717,42.616814 114.2845,28.611821 104.02548,18.549561 z "
       style="opacity:0.51639344;fill:url(#linearGradient2380);fill-opacity:1;fill-rule:nonzero;stroke:none;stroke-width:0.99675924;stroke-linecap:round;stroke-linejoin:round;stroke-miterlimit:4;stroke-dasharray:none;stroke-dashoffset:4;stroke-opacity:1"
       sodipodi:nodetypes="cscscssccscssc" />
    <path
       style="opacity:0.82377044;fill:url(#linearGradient2377);fill-opacity:1;fill-rule:nonzero;stroke:none;stroke-width:0.99675924;stroke-linecap:round;stroke-linejoin:round;stroke-miterlimit:4;stroke-dasharray:none;stroke-dashoffset:4;stroke-opacity:1"
       d="M 63.438342,2.6765154 C 33.652732,3.6179935 9.750097,28.102711 9.750097,58.115463 C 9.750097,59.579932 9.784293,61.027013 9.895989,62.463044 C 10.297531,62.986629 10.766792,63.488408 11.238196,63.98032 C 14.370055,67.248436 20.094893,62.657319 34.989408,62.054546 C 50.794348,41.834289 72.994249,19.506576 96.468283,12.305385 C 87.572367,6.2255582 76.80199,2.6765154 65.218224,2.6765154 C 64.739962,2.6765154 64.263855,2.6644584 63.788483,2.6765154 C 63.671496,2.6794826 63.555148,2.6728233 63.438342,2.6765154 z M 104.02548,18.549561 C 86.962541,26.944561 79.099799,37.930139 74.467775,49.799621 C 76.445738,51.999729 77.64822,54.913381 77.64822,58.115463 C 77.648216,61.892263 75.980342,65.279661 73.329817,67.569263 C 101.10815,73.845631 114.10135,74.124403 120.13196,65.643489 C 120.13522,65.641177 120.15787,65.616622 120.16114,65.61431 C 120.49214,63.16452 120.65717,60.655418 120.65717,58.115463 C 120.65717,42.616814 114.2845,28.611821 104.02548,18.549561 z "
       id="path2353" />
    <g
       id="g1975">
      <path
         id="path1950"
         d="M 93.96875 68.375 C 91.875161 68.375018 90.265596 69.215161 89.15625 70.875 C 88.055241 72.526527 87.53125 74.940876 87.53125 78.09375 C 87.531247 81.23831 88.055239 83.6214 89.15625 85.28125 C 90.265598 86.932766 91.875154 87.749996 93.96875 87.75 C 96.062329 87.75 97.648982 86.932766 98.75 85.28125 C 99.859333 83.6214 100.40623 81.238309 100.40625 78.09375 C 100.40623 74.940876 99.85934 72.526525 98.75 70.875 C 97.648975 69.215161 96.062322 68.375017 93.96875 68.375 z M 28 68.75 L 23.5625 69.625 L 23.5625 71.9375 L 28 71.03125 L 28 85.28125 L 23.90625 85.28125 L 23.90625 87.40625 L 34.625 87.40625 L 34.625 85.28125 L 30.53125 85.28125 L 30.53125 68.75 L 28 68.75 z M 44.28125 68.75 L 39.8125 69.625 L 39.8125 71.9375 L 44.28125 71.03125 L 44.28125 85.28125 L 40.15625 85.28125 L 40.15625 87.40625 L 50.9375 87.40625 L 50.9375 85.28125 L 46.78125 85.28125 L 46.78125 68.75 L 44.28125 68.75 z M 109.40625 68.75 L 104.96875 69.625 L 104.96875 71.9375 L 109.46875 71.03125 L 109.46875 85.28125 L 105.3125 85.28125 L 105.3125 87.40625 L 113.9375 87.40625 C 114.30388 86.707136 114.69697 85.998493 115.03125 85.28125 L 111.96875 85.28125 L 111.96875 68.75 L 109.40625 68.75 z M 93.5 70.40625 C 93.652616 70.386181 93.8061 70.406252 93.96875 70.40625 C 95.278278 70.40627 96.255641 71.028005 96.90625 72.3125 C 97.565179 73.588682 97.906237 75.524744 97.90625 78.09375 C 97.906239 80.654441 97.565173 82.590492 96.90625 83.875 C 96.255646 85.151175 95.27827 85.78125 93.96875 85.78125 C 92.667554 85.781247 91.690185 85.15117 91.03125 83.875 C 90.380652 82.590497 90.031244 80.654442 90.03125 78.09375 C 90.031243 75.524744 90.380652 73.588684 91.03125 72.3125 C 91.607818 71.188566 92.431695 70.546757 93.5 70.40625 z M 79.375 72.96875 C 78.590395 73.711171 77.770151 74.418063 76.875 75.03125 L 76.875 85.28125 L 72.75 85.28125 L 72.75 87.40625 L 83.5 87.40625 L 83.5 85.28125 L 79.375 85.28125 L 79.375 72.96875 z M 55.03125 75.9375 C 54.965215 76.615976 54.9375 77.328634 54.9375 78.09375 C 54.937498 81.23831 55.492741 83.6214 56.59375 85.28125 C 57.703096 86.932766 59.281406 87.749996 61.375 87.75 C 63.468576 87.75 65.086475 86.932766 66.1875 85.28125 C 67.251899 83.688642 67.831801 81.427051 67.875 78.46875 C 67.740683 78.486184 67.603867 78.485148 67.46875 78.5 C 67.364455 78.510929 67.260862 78.522168 67.15625 78.53125 C 66.855504 78.557359 66.554202 78.581105 66.25 78.59375 C 65.930336 78.609814 65.604585 78.623568 65.28125 78.625 C 65.236022 80.911964 64.923102 82.684694 64.3125 83.875 C 63.661894 85.151175 62.684522 85.78125 61.375 85.78125 C 60.073801 85.781247 59.096432 85.15117 58.4375 83.875 C 57.786899 82.590497 57.499996 80.654442 57.5 78.09375 C 57.499999 77.761459 57.520932 77.467096 57.53125 77.15625 C 57.214834 77.030234 56.90217 76.890917 56.59375 76.75 C 56.382267 76.650832 56.176299 76.543543 55.96875 76.4375 C 55.651509 76.279451 55.338853 76.111067 55.03125 75.9375 z M 60.625 100.75 L 56.1875 101.65625 L 56.1875 103.9375 L 60.625 103.0625 L 60.625 114.9375 C 61.458592 115.04286 62.310908 115.1524 63.15625 115.21875 L 63.15625 100.75 L 60.625 100.75 z M 76.90625 100.75 L 72.4375 101.65625 L 72.4375 103.9375 L 76.9375 103.0625 L 76.9375 114.5 C 77.772958 114.34827 78.58516 114.19023 79.40625 114 L 79.40625 100.75 L 76.90625 100.75 z M 93.15625 100.75 L 88.6875 101.65625 L 88.6875 103.9375 L 93.1875 103.0625 L 93.1875 108.65625 C 94.024771 108.18881 94.879786 107.72941 95.6875 107.21875 L 95.6875 100.75 L 93.15625 100.75 z "
         style="opacity:0.27;fill:#555753;fill-opacity:1;fill-rule:nonzero;stroke:none;stroke-width:6;stroke-linecap:round;stroke-linejoin:round;stroke-miterlimit:4;stroke-dasharray:none;stroke-dashoffset:4;stroke-opacity:1" />
      <path
         style="opacity:0.7;fill:#bfcbc0;fill-opacity:1;fill-rule:nonzero;stroke:none;stroke-width:6;stroke-linecap:round;stroke-linejoin:round;stroke-miterlimit:4;stroke-dasharray:none;stroke-dashoffset:4;stroke-opacity:1"
         d="M 76.46875 68.71875 C 75.436195 69.829069 74.23204 70.804646 72.875 71.5625 L 76.375 70.875 L 76.375 75.34375 C 77.214857 74.803091 78.000674 74.184007 78.75 73.53125 L 78.75 68.71875 L 76.46875 68.71875 z M 57.125 71.1875 C 56.399643 72.498452 55.977375 74.243398 55.875 76.40625 C 56.637131 76.790431 57.436868 77.116995 58.25 77.40625 C 58.255044 75.12787 58.508223 73.401522 59.0625 72.21875 C 58.388236 71.924924 57.739783 71.569285 57.125 71.1875 z M 67.5 73.34375 C 66.779199 73.444868 66.063174 73.5 65.3125 73.5 C 65.249956 73.5 65.187362 73.500725 65.125 73.5 C 65.399523 74.564241 65.562493 75.874928 65.5625 77.46875 C 65.562499 77.879239 65.549496 78.249254 65.53125 78.625 C 66.349731 78.61171 67.144843 78.542935 67.9375 78.4375 C 67.951013 78.120351 67.968749 77.804291 67.96875 77.46875 C 67.968741 75.893182 67.797161 74.519725 67.5 73.34375 z "
         id="path1966" />
    </g>
    <path
       style="font-size:22.60426903px;font-style:normal;font-variant:normal;font-weight:normal;font-stretch:normal;text-align:start;line-height:125%;writing-mode:lr-tb;text-anchor:start;fill:url(#linearGradient2893);fill-opacity:1.0;stroke:none;stroke-width:1px;stroke-linecap:butt;stroke-linejoin:miter;stroke-opacity:1;font-family:Bitstream Vera Sans"
       d="M 31.773241,89.495572 L 35.41553,89.495572 L 35.41553,76.924154 L 31.453161,77.718836 L 31.453161,75.687983 L 35.393456,74.893302 L 37.622979,74.893302 L 37.622979,89.495572 L 41.265268,89.495572 L 41.265268,91.371902 L 31.773241,91.371902 L 31.773241,89.495572 M 46.121654,89.495572 L 49.763943,89.495572 L 49.763943,76.924154 L 45.801574,77.718836 L 45.801574,75.687983 L 49.741868,74.893302 L 51.971391,74.893302 L 51.971391,89.495572 L 55.613681,89.495572 L 55.613681,91.371902 L 46.121654,91.371902 L 46.121654,89.495572 M 64.851851,76.361255 C 63.703972,76.36127 62.839389,76.927848 62.258099,78.06099 C 61.684159,79.186801 61.397191,80.882855 61.397194,83.149158 C 61.397191,85.408119 61.684159,87.104174 62.258099,88.237326 C 62.839389,89.363127 63.703972,89.926025 64.851851,89.926024 C 66.007073,89.926025 66.871656,89.363127 67.445602,88.237326 C 68.026887,87.104174 68.317534,85.408119 68.317544,83.149158 C 68.317534,80.882855 68.026887,79.186801 67.445602,78.06099 C 66.871656,76.927848 66.007073,76.36127 64.851851,76.361255 M 64.851851,74.595297 C 66.69874,74.595313 68.107826,75.32745 69.079114,76.791707 C 70.057737,78.248636 70.547054,80.367784 70.547067,83.149158 C 70.547054,85.92319 70.057737,88.042338 69.079114,89.506609 C 68.107826,90.963525 66.69874,91.691982 64.851851,91.691982 C 63.004947,91.691982 61.592182,90.963525 60.61355,89.506609 C 59.642271,88.042338 59.156633,85.92319 59.156634,83.149158 C 59.156633,80.367784 59.642271,78.248636 60.61355,76.791707 C 61.592182,75.32745 63.004947,74.595313 64.851851,74.595297 M 74.862627,89.495572 L 78.504916,89.495572 L 78.504916,76.924154 L 74.542547,77.718836 L 74.542547,75.687983 L 78.482842,74.893302 L 80.712365,74.893302 L 80.712365,89.495572 L 84.354654,89.495572 L 84.354654,91.371902 L 74.862627,91.371902 L 74.862627,89.495572 M 93.592823,76.361255 C 92.444944,76.36127 91.580361,76.927848 90.999072,78.06099 C 90.425131,79.186801 90.138163,80.882855 90.138167,83.149158 C 90.138164,84.899142 90.310383,86.311304 90.654826,87.385648 C 90.755006,87.698117 90.869755,87.98201 90.999072,88.237326 C 91.580361,89.363127 92.444944,89.926025 93.592823,89.926024 C 94.748046,89.926025 95.612629,89.363127 96.186575,88.237326 C 96.767859,87.104174 97.058506,85.408119 97.058517,83.149158 C 97.058506,80.882855 96.767859,79.186801 96.186575,78.06099 C 95.612629,76.927848 94.748046,76.36127 93.592823,76.361255 M 93.592823,74.595297 C 95.439712,74.595313 96.848799,75.32745 97.820086,76.791707 C 98.798709,78.248636 99.288026,80.367784 99.288039,83.149158 C 99.288026,85.92319 98.798709,88.042338 97.820086,89.506609 C 96.848799,90.963525 95.439712,91.691982 93.592823,91.691982 C 91.74592,91.691982 90.333154,90.963525 89.354523,89.506609 C 88.383244,88.042338 87.897605,85.92319 87.897607,83.149158 C 87.897605,80.367784 88.383244,78.248636 89.354523,76.791707 C 90.333154,75.32745 91.74592,74.595313 93.592823,74.595297 M 103.6036,89.495572 L 107.24589,89.495572 L 107.24589,76.924154 L 103.28352,77.718836 L 103.28352,75.687983 L 107.22382,74.893302 L 109.45334,74.893302 L 109.45334,89.495572 L 113.09563,89.495572 L 113.09563,91.371902 L 103.6036,91.371902 L 103.6036,89.495572 M 122.3338,76.361255 C 121.18592,76.36127 120.32134,76.927848 119.74005,78.06099 C 119.16611,79.186801 118.87914,80.882855 118.87914,83.149158 C 118.87914,85.408119 119.16611,87.104174 119.74005,88.237326 C 120.32134,89.363127 121.18592,89.926025 122.3338,89.926024 C 123.48902,89.926025 124.3536,89.363127 124.92755,88.237326 C 125.50883,87.104174 125.79948,85.408119 125.79949,83.149158 C 125.79948,80.882855 125.50883,79.186801 124.92755,78.06099 C 124.3536,76.927848 123.48902,76.36127 122.3338,76.361255 M 122.3338,74.595297 C 124.18069,74.595313 125.58977,75.32745 126.56106,76.791707 C 127.53968,78.248636 128.029,80.367784 128.02901,83.149158 C 128.029,85.92319 127.53968,88.042338 126.56106,89.506609 C 125.58977,90.963525 124.18069,91.691982 122.3338,91.691982 C 120.48689,91.691982 119.07413,90.963525 118.0955,89.506609 C 117.12422,88.042338 116.63858,85.92319 116.63858,83.149158 C 116.63858,80.367784 117.12422,78.248636 118.0955,76.791707 C 119.07413,75.32745 120.48689,74.595313 122.3338,74.595297 M 60.558365,117.75091 L 64.200654,117.75091 L 64.200654,105.17949 L 60.238285,105.97417 L 60.238285,103.94332 L 64.17858,103.14864 L 66.408102,103.14864 L 66.408102,117.75091 L 70.050392,117.75091 L 70.050392,119.62724 L 60.558365,119.62724 L 60.558365,117.75091 M 74.906778,117.75091 L 78.549068,117.75091 L 78.549068,105.17949 L 74.586698,105.97417 L 74.586698,103.94332 L 78.526993,103.14864 L 80.756516,103.14864 L 80.756516,117.75091 L 84.398805,117.75091 L 84.398805,119.62724 L 74.906778,119.62724 L 74.906778,117.75091 M 89.25519,117.75091 L 92.897479,117.75091 L 92.897479,105.17949 L 88.93511,105.97417 L 88.93511,103.94332 L 92.875405,103.14864 L 95.104927,103.14864 L 95.104927,117.75091 L 98.747217,117.75091 L 98.747217,119.62724 L 89.25519,119.62724 L 89.25519,117.75091 M 107.98539,104.61659 C 106.83751,104.61661 105.97292,105.18318 105.39163,106.31633 C 104.81769,107.44214 104.53073,109.13819 104.53073,111.40449 C 104.53073,113.66346 104.81769,115.35951 105.39163,116.49266 C 105.97292,117.61846 106.83751,118.18136 107.98539,118.18136 C 109.14061,118.18136 110.00519,117.61846 110.57914,116.49266 C 111.16042,115.35951 111.45107,113.66346 111.45108,111.40449 C 111.45107,109.13819 111.16042,107.44214 110.57914,106.31633 C 110.00519,105.18318 109.14061,104.61661 107.98539,104.61659 M 107.98539,102.85063 C 109.83228,102.85065 111.24136,103.58279 112.21265,105.04704 C 113.19127,106.50397 113.68059,108.62312 113.6806,111.40449 C 113.68059,114.17853 113.19127,116.29767 112.21265,117.76195 C 111.24136,119.21886 109.83228,119.94732 107.98539,119.94732 C 106.13848,119.94732 104.72572,119.21886 103.74709,117.76195 C 102.77581,116.29767 102.29017,114.17853 102.29017,111.40449 C 102.29017,108.62312 102.77581,106.50397 103.74709,105.04704 C 104.72572,103.58279 106.13848,102.85065 107.98539,102.85063 M 117.99616,117.75091 L 121.63845,117.75091 L 121.63845,105.17949 L 117.67608,105.97417 L 117.67608,103.94332 L 121.61638,103.14864 L 123.8459,103.14864 L 123.8459,117.75091 L 127.48819,117.75091 L 127.48819,119.62724 L 117.99616,119.62724 L 117.99616,117.75091"
       id="text1940"
       sodipodi:nodetypes="cccccccccccccccccccccccccsscsssccccssscssccccccccccccccssscsssccccssscssccccccccccccccsscsssccccssscssccccccccccccccccccccccccccccccccccccccsscsssccccssscssccccccccccccc" />
  </g>
</svg>
