<?xml version="1.0" encoding="UTF-8" standalone="no"?>
<!-- Created with Inkscape (http://www.inkscape.org/) -->
<svg
   xmlns:dc="http://purl.org/dc/elements/1.1/"
   xmlns:cc="http://web.resource.org/cc/"
   xmlns:rdf="http://www.w3.org/1999/02/22-rdf-syntax-ns#"
   xmlns:svg="http://www.w3.org/2000/svg"
   xmlns="http://www.w3.org/2000/svg"
   xmlns:xlink="http://www.w3.org/1999/xlink"
   xmlns:sodipodi="http://sodipodi.sourceforge.net/DTD/sodipodi-0.dtd"
   xmlns:inkscape="http://www.inkscape.org/namespaces/inkscape"
   width="128"
   height="128"
   id="svg1307"
   sodipodi:version="0.32"
   inkscape:version="0.43+0.44pre3"
   version="1.0"
   sodipodi:docbase="/home/pinheiro/artwork/Oxygen/theme/svg/actions"
   sodipodi:docname="cdcopy.svg">
  <defs
     id="defs1309">
    <linearGradient
       id="linearGradient2916">
      <stop
         style="stop-color:#fbfcfa;stop-opacity:1;"
         offset="0"
         id="stop2918" />
      <stop
         id="stop2999"
         offset="0.49018571"
         style="stop-color:#e6edc0;stop-opacity:1;" />
      <stop
         id="stop2997"
         offset="0.74969578"
         style="stop-color:#d2df86;stop-opacity:1;" />
      <stop
         style="stop-color:#a9c312;stop-opacity:1;"
         offset="1"
         id="stop2920" />
    </linearGradient>
    <linearGradient
       id="linearGradient2322">
      <stop
         id="stop2324"
         offset="0"
         style="stop-color:#ffffff;stop-opacity:1;" />
      <stop
         id="stop2326"
         offset="1"
         style="stop-color:#999999;stop-opacity:1;" />
    </linearGradient>
    <linearGradient
       inkscape:collect="always"
       id="linearGradient2512">
      <stop
         style="stop-color:#ffffff;stop-opacity:1;"
         offset="0"
         id="stop2514" />
      <stop
         style="stop-color:#ffffff;stop-opacity:0;"
         offset="1"
         id="stop2516" />
    </linearGradient>
    <linearGradient
       inkscape:collect="always"
       id="linearGradient2430">
      <stop
         style="stop-color:#000000;stop-opacity:1;"
         offset="0"
         id="stop2432" />
      <stop
         style="stop-color:#000000;stop-opacity:0;"
         offset="1"
         id="stop2434" />
    </linearGradient>
    <linearGradient
       id="linearGradient2369">
      <stop
         style="stop-color:#ffffff;stop-opacity:0;"
         offset="0"
         id="stop2371" />
      <stop
         id="stop2385"
         offset="0.29734492"
         style="stop-color:#ffffff;stop-opacity:0;" />
      <stop
         id="stop2383"
         offset="0.4831855"
         style="stop-color:#ff6dff;stop-opacity:1;" />
      <stop
         id="stop2377"
         offset="0.50018114"
         style="stop-color:#ff0000;stop-opacity:1;" />
      <stop
         style="stop-color:#00ff00;stop-opacity:1;"
         offset="0.51648355"
         id="stop2381" />
      <stop
         style="stop-color:#0000ff;stop-opacity:1;"
         offset="0.53395635"
         id="stop2379" />
      <stop
         id="stop2387"
         offset="0.55754495"
         style="stop-color:#00ffff;stop-opacity:1;" />
      <stop
         style="stop-color:#ffffff;stop-opacity:0;"
         offset="0.55754495"
         id="stop2389" />
      <stop
         style="stop-color:#000000;stop-opacity:0;"
         offset="1"
         id="stop2373" />
    </linearGradient>
    <linearGradient
       id="linearGradient3325">
      <stop
         id="stop3327"
         offset="0"
         style="stop-color:#ffffff;stop-opacity:1;" />
      <stop
         id="stop3329"
         offset="1"
         style="stop-color:#ffffff;stop-opacity:0;" />
    </linearGradient>
    <linearGradient
       inkscape:collect="always"
       id="linearGradient3291">
      <stop
         style="stop-color:#000000;stop-opacity:1;"
         offset="0"
         id="stop3293" />
      <stop
         style="stop-color:#000000;stop-opacity:0;"
         offset="1"
         id="stop3295" />
    </linearGradient>
    <linearGradient
       id="linearGradient3225">
      <stop
         style="stop-color:#ffffff;stop-opacity:1;"
         offset="0"
         id="stop3227" />
      <stop
         style="stop-color:#aca386;stop-opacity:1;"
         offset="1"
         id="stop3229" />
    </linearGradient>
    <radialGradient
       inkscape:collect="always"
       xlink:href="#linearGradient2369"
       id="radialGradient2349"
       gradientUnits="userSpaceOnUse"
       gradientTransform="matrix(0.946086,-1.58605,1.489114,0.888263,-90.73811,134.2833)"
       spreadMethod="repeat"
       cx="86.040627"
       cy="68.49028"
       fx="80.437614"
       fy="103.6857"
       r="59.778126" />
    <radialGradient
       inkscape:collect="always"
       xlink:href="#linearGradient2369"
       id="radialGradient2351"
       gradientUnits="userSpaceOnUse"
       gradientTransform="matrix(-0.946086,1.58605,-1.489114,-0.888263,222.0631,-16.25204)"
       spreadMethod="repeat"
       cx="86.040627"
       cy="68.49028"
       fx="80.437614"
       fy="103.6857"
       r="59.778126" />
    <linearGradient
       inkscape:collect="always"
       xlink:href="#linearGradient2512"
       id="linearGradient2359"
       gradientUnits="userSpaceOnUse"
       x1="102.0625"
       y1="-2.7058048"
       x2="59.8125"
       y2="75.044197" />
    <linearGradient
       inkscape:collect="always"
       xlink:href="#linearGradient2512"
       id="linearGradient2361"
       gradientUnits="userSpaceOnUse"
       x1="102.0625"
       y1="-2.7058048"
       x2="59.8125"
       y2="75.044197" />
    <linearGradient
       inkscape:collect="always"
       xlink:href="#linearGradient2512"
       id="linearGradient2363"
       gradientUnits="userSpaceOnUse"
       x1="102.0625"
       y1="-2.7058048"
       x2="59.8125"
       y2="75.044197" />
    <linearGradient
       inkscape:collect="always"
       xlink:href="#linearGradient2512"
       id="linearGradient2365"
       gradientUnits="userSpaceOnUse"
       x1="102.0625"
       y1="-2.7058048"
       x2="59.8125"
       y2="75.044197" />
    <linearGradient
       inkscape:collect="always"
       xlink:href="#linearGradient2512"
       id="linearGradient2367"
       gradientUnits="userSpaceOnUse"
       x1="102.0625"
       y1="-2.7058048"
       x2="59.8125"
       y2="75.044197" />
    <linearGradient
       inkscape:collect="always"
       xlink:href="#linearGradient2512"
       id="linearGradient2370"
       gradientUnits="userSpaceOnUse"
       x1="102.0625"
       y1="-2.7058048"
       x2="59.8125"
       y2="75.044197" />
    <linearGradient
       inkscape:collect="always"
       xlink:href="#linearGradient3325"
       id="linearGradient2377"
       gradientUnits="userSpaceOnUse"
       gradientTransform="matrix(0.952041,0,0,0.952041,-1.51268,8.853871)"
       x1="95.239143"
       y1="-52.086468"
       x2="53.753468"
       y2="102.74017" />
    <linearGradient
       inkscape:collect="always"
       xlink:href="#linearGradient3325"
       id="linearGradient2380"
       gradientUnits="userSpaceOnUse"
       gradientTransform="matrix(0.952041,0,0,0.952041,-1.51268,8.853871)"
       x1="95.239143"
       y1="-52.086468"
       x2="53.753468"
       y2="102.74017" />
    <linearGradient
       inkscape:collect="always"
       xlink:href="#linearGradient3225"
       id="linearGradient2396"
       gradientUnits="userSpaceOnUse"
       x1="-16.63065"
       y1="-37.966259"
       x2="61.224335"
       y2="406.26038"
       gradientTransform="matrix(1.019634,0,0,1.019634,-5.56348,6.749581)" />
    <linearGradient
       inkscape:collect="always"
       xlink:href="#linearGradient2430"
       id="linearGradient2398"
       gradientUnits="userSpaceOnUse"
       gradientTransform="matrix(1.019634,0,0,1.019634,-6.15668,5.851761)"
       x1="73.640358"
       y1="232.70004"
       x2="72.251587"
       y2="-64.937431" />
    <linearGradient
       inkscape:collect="always"
       xlink:href="#linearGradient3325"
       id="linearGradient2401"
       gradientUnits="userSpaceOnUse"
       gradientTransform="matrix(0.952041,0,0,0.952041,-1.51268,8.853871)"
       x1="95.239143"
       y1="-52.086468"
       x2="53.753468"
       y2="102.74017" />
    <radialGradient
       inkscape:collect="always"
       xlink:href="#linearGradient2322"
       id="radialGradient2407"
       gradientUnits="userSpaceOnUse"
       gradientTransform="matrix(1.097576,-8.550595e-8,1.427196e-7,1.831984,-11.26928,-43.63114)"
       cx="65.765625"
       cy="59.856506"
       fx="65.765625"
       fy="95.100655"
       r="59.778126" />
    <linearGradient
       inkscape:collect="always"
       xlink:href="#linearGradient3225"
       id="linearGradient2410"
       gradientUnits="userSpaceOnUse"
       x1="76.869347"
       y1="73.033737"
       x2="61.224335"
       y2="406.26038"
       gradientTransform="matrix(1.019634,0,0,1.019634,-5.56348,6.749581)" />
    <linearGradient
       inkscape:collect="always"
       xlink:href="#linearGradient2430"
       id="linearGradient2412"
       gradientUnits="userSpaceOnUse"
       gradientTransform="matrix(1.019634,0,0,1.019634,-6.15668,5.851761)"
       x1="73.640358"
       y1="232.70004"
       x2="72.251587"
       y2="-64.937431" />
    <radialGradient
       inkscape:collect="always"
       xlink:href="#linearGradient3291"
       id="radialGradient1994"
       gradientUnits="userSpaceOnUse"
       gradientTransform="matrix(1,0,0,0.197802,0,92.82166)"
       cx="63.912209"
       cy="115.70919"
       fx="86.809189"
       fy="115.70919"
       r="63.912209" />
    <linearGradient
       inkscape:collect="always"
       xlink:href="#linearGradient3225"
       id="linearGradient1996"
       gradientUnits="userSpaceOnUse"
       gradientTransform="matrix(1.019634,0,0,1.019634,42.17802,43.55036)"
       x1="76.869347"
       y1="73.033737"
       x2="61.224335"
       y2="406.26038" />
    <linearGradient
       inkscape:collect="always"
       xlink:href="#linearGradient2430"
       id="linearGradient1998"
       gradientUnits="userSpaceOnUse"
       gradientTransform="matrix(1.019634,0,0,1.019634,41.58482,42.65253)"
       x1="73.640358"
       y1="232.70004"
       x2="72.251587"
       y2="-64.937431" />
    <radialGradient
       inkscape:collect="always"
       xlink:href="#linearGradient2916"
       id="radialGradient2000"
       gradientUnits="userSpaceOnUse"
       gradientTransform="matrix(1.097576,-8.550595e-8,1.427196e-7,1.831984,36.47222,-6.830379)"
       cx="65.765625"
       cy="59.856506"
       fx="65.765625"
       fy="95.100655"
       r="59.778126" />
    <radialGradient
       inkscape:collect="always"
       xlink:href="#linearGradient2369"
       id="radialGradient2002"
       gradientUnits="userSpaceOnUse"
       gradientTransform="matrix(0.946086,-1.58605,1.489114,0.888263,-91.3575,134.4834)"
       spreadMethod="repeat"
       cx="86.040627"
       cy="68.49028"
       fx="80.437614"
       fy="103.6857"
       r="59.778126" />
    <radialGradient
       inkscape:collect="always"
       xlink:href="#linearGradient2369"
       id="radialGradient2004"
       gradientUnits="userSpaceOnUse"
       gradientTransform="matrix(-0.946086,1.58605,-1.489114,-0.888263,222.0631,-16.25204)"
       spreadMethod="repeat"
       cx="86.040627"
       cy="68.49028"
       fx="80.437614"
       fy="103.6857"
       r="59.778126" />
    <linearGradient
       inkscape:collect="always"
       xlink:href="#linearGradient3325"
       id="linearGradient2006"
       gradientUnits="userSpaceOnUse"
       gradientTransform="matrix(0.952041,0,0,0.952041,46.22882,45.65464)"
       x1="95.239143"
       y1="-52.086468"
       x2="53.753468"
       y2="102.74017" />
    <linearGradient
       inkscape:collect="always"
       xlink:href="#linearGradient3225"
       id="linearGradient2008"
       gradientUnits="userSpaceOnUse"
       gradientTransform="matrix(1.019634,0,0,1.019634,42.17802,43.55036)"
       x1="-16.63065"
       y1="-37.966259"
       x2="61.224335"
       y2="406.26038" />
    <linearGradient
       inkscape:collect="always"
       xlink:href="#linearGradient2430"
       id="linearGradient2010"
       gradientUnits="userSpaceOnUse"
       gradientTransform="matrix(1.019634,0,0,1.019634,41.58482,42.65253)"
       x1="73.640358"
       y1="232.70004"
       x2="72.251587"
       y2="-64.937431" />
    <linearGradient
       inkscape:collect="always"
       xlink:href="#linearGradient2512"
       id="linearGradient2012"
       gradientUnits="userSpaceOnUse"
       x1="102.0625"
       y1="-2.7058048"
       x2="59.8125"
       y2="75.044197" />
    <linearGradient
       inkscape:collect="always"
       xlink:href="#linearGradient2512"
       id="linearGradient2014"
       gradientUnits="userSpaceOnUse"
       x1="102.0625"
       y1="-2.7058048"
       x2="59.8125"
       y2="75.044197" />
    <linearGradient
       inkscape:collect="always"
       xlink:href="#linearGradient2512"
       id="linearGradient2016"
       gradientUnits="userSpaceOnUse"
       x1="102.0625"
       y1="-2.7058048"
       x2="59.8125"
       y2="75.044197" />
    <linearGradient
       inkscape:collect="always"
       xlink:href="#linearGradient2512"
       id="linearGradient2018"
       gradientUnits="userSpaceOnUse"
       x1="102.0625"
       y1="-2.7058048"
       x2="59.8125"
       y2="75.044197" />
    <linearGradient
       inkscape:collect="always"
       xlink:href="#linearGradient2512"
       id="linearGradient2020"
       gradientUnits="userSpaceOnUse"
       x1="102.0625"
       y1="-2.7058048"
       x2="59.8125"
       y2="75.044197" />
    <linearGradient
       inkscape:collect="always"
       xlink:href="#linearGradient2512"
       id="linearGradient2022"
       gradientUnits="userSpaceOnUse"
       x1="102.0625"
       y1="-2.7058048"
       x2="59.8125"
       y2="75.044197" />
    <linearGradient
       inkscape:collect="always"
       xlink:href="#linearGradient3325"
       id="linearGradient2024"
       gradientUnits="userSpaceOnUse"
       gradientTransform="matrix(0.952041,0,0,0.952041,46.22882,45.65464)"
       x1="95.239143"
       y1="-52.086468"
       x2="55.626785"
       y2="67.391754" />
    <linearGradient
       inkscape:collect="always"
       xlink:href="#linearGradient3325"
       id="linearGradient2026"
       gradientUnits="userSpaceOnUse"
       gradientTransform="matrix(0.952041,0,0,0.952041,46.22882,45.65464)"
       x1="95.239143"
       y1="-52.086468"
       x2="53.753468"
       y2="102.74017" />
  </defs>
  <sodipodi:namedview
     id="base"
     pagecolor="#ffffff"
     bordercolor="#666666"
     borderopacity="1.0"
     inkscape:pageopacity="0.0"
     inkscape:pageshadow="2"
     inkscape:zoom="6.1509236"
     inkscape:cx="72.69573"
     inkscape:cy="35.835826"
     inkscape:current-layer="layer1"
     showgrid="false"
     inkscape:document-units="px"
     inkscape:grid-bbox="true"
     guidetolerance="0.1px"
     showguides="true"
     inkscape:guide-bbox="true"
     inkscape:window-width="1106"
     inkscape:window-height="958"
     inkscape:window-x="564"
     inkscape:window-y="73">
    <sodipodi:guide
       orientation="horizontal"
       position="32.487481"
       id="guide2204" />
  </sodipodi:namedview>
  <metadata
     id="metadata1312">
    <rdf:RDF>
      <cc:Work
         rdf:about="">
        <dc:format>image/svg+xml</dc:format>
        <dc:type
           rdf:resource="http://purl.org/dc/dcmitype/StillImage" />
        <cc:license
           rdf:resource="http://creativecommons.org/licenses/GPL/2.0/" />
        <dc:contributor>
          <cc:Agent>
            <dc:title>Oxygen team</dc:title>
          </cc:Agent>
        </dc:contributor>
      </cc:Work>
      <cc:License
         rdf:about="http://creativecommons.org/licenses/LGPL/2.1/">
        <cc:permits
           rdf:resource="http://web.resource.org/cc/Reproduction" />
        <cc:permits
           rdf:resource="http://web.resource.org/cc/Distribution" />
        <cc:requires
           rdf:resource="http://web.resource.org/cc/Notice" />
        <cc:permits
           rdf:resource="http://web.resource.org/cc/DerivativeWorks" />
        <cc:requires
           rdf:resource="http://web.resource.org/cc/ShareAlike" />
        <cc:requires
           rdf:resource="http://web.resource.org/cc/SourceCode" />
      </cc:License>
    </rdf:RDF>
  </metadata>
  <g
     id="layer1"
     inkscape:label="Layer 1"
     inkscape:groupmode="layer">
    <path
       sodipodi:nodetypes="ccc"
       id="path2276"
       d="M 50.892799,3.2812959 L 50.892799,0.48658747 L 50.892799,3.2812959 z "
       style="fill:#ffffff;fill-opacity:0.75688076;fill-rule:nonzero;stroke:none;stroke-width:0.5;stroke-linecap:round;stroke-linejoin:round;stroke-miterlimit:4;stroke-dasharray:none;stroke-dashoffset:4;stroke-opacity:1" />
    <g
       id="g2922"
       transform="matrix(0.773498,0,0,0.772018,-1.507386,-5.542953)">
      <path
         id="path2571"
         d="M 59.05581,7.5143075 C 27.64058,8.5075585 2.4024,34.365948 2.4024,66.015801 C 2.4024,98.293871 28.62583,124.54915 60.9039,124.54915 C 93.18196,124.54915 119.40539,98.292611 119.40539,66.015801 C 119.40539,33.738989 93.18071,7.5143075 60.9039,7.5143075 C 60.44941,7.5143075 59.95742,7.5003285 59.40631,7.5143075 C 59.28292,7.5174365 59.179,7.5104125 59.05581,7.5143075 z M 59.18326,11.465389 C 59.29826,11.461755 59.38671,11.46831 59.5019,11.465389 C 59.92019,11.45478 60.38307,11.465389 60.9039,11.465389 C 91.04644,11.465389 115.45431,35.873259 115.45431,66.015801 C 115.45431,96.158341 91.04518,120.59807 60.9039,120.59807 C 30.7626,120.59807 6.35348,96.157091 6.35348,66.015801 C 6.35348,36.461618 29.858,12.392039 59.18326,11.465389 z "
         style="fill:url(#linearGradient2410);fill-opacity:1;fill-rule:nonzero;stroke:url(#linearGradient2412);stroke-width:0.88835597;stroke-linecap:round;stroke-linejoin:round;stroke-miterlimit:4;stroke-dasharray:none;stroke-dashoffset:4;stroke-opacity:1" />
      <path
         id="path1410"
         d="M 59.47523,9.4908105 C 28.93876,10.265319 4.3765,35.290952 4.3765,66.012981 C 4.3765,97.222661 29.71864,122.56479 60.92832,122.56479 C 92.13799,122.56479 117.45048,97.222661 117.45048,66.012981 C 117.45048,34.8033 92.138,9.4908105 60.92832,9.4908105 C 60.44067,9.4908105 59.95994,9.4785165 59.47523,9.4908105 z M 60.18695,53.320691 C 60.43016,53.306801 60.68164,53.320691 60.92832,53.320691 C 67.945,53.320691 73.6206,58.996291 73.6206,66.012981 C 73.6206,73.029661 67.94501,78.734911 60.92832,78.734911 C 53.91163,78.734911 48.20639,73.029661 48.20639,66.012981 C 48.20639,59.242971 53.51185,53.701811 60.18695,53.320691 z "
         style="fill:url(#radialGradient2407);fill-opacity:1;fill-rule:nonzero;stroke:none;stroke-width:0.99675924;stroke-linecap:round;stroke-linejoin:round;stroke-miterlimit:4;stroke-dasharray:none;stroke-dashoffset:4;stroke-opacity:1" />
      <path
         id="path1375"
         d="M 60.45348,44.697404 C 48.88135,44.917527 39.56279,54.386001 39.56279,66.010461 C 39.56279,77.772771 49.08106,87.323531 60.84336,87.323531 C 72.60565,87.323531 82.15642,77.772771 82.15642,66.010461 C 82.15642,54.248171 72.60566,44.697403 60.84336,44.697404 C 60.70552,44.697404 60.59071,44.694794 60.45348,44.697404 z M 60.12859,50.513011 C 60.37092,50.508121 60.59904,50.545501 60.84336,50.545501 C 69.39661,50.545501 76.34082,57.457211 76.34082,66.010461 C 76.34082,74.563721 69.39661,81.507931 60.84336,81.507931 C 52.2901,81.507931 45.3459,74.563721 45.3459,66.010461 C 45.34589,57.757911 51.82927,51.010081 59.96614,50.545501 C 60.02173,50.542321 60.07267,50.514141 60.12859,50.513011 z "
         style="opacity:0.77049178;fill:#a0a0a0;fill-opacity:1;fill-rule:nonzero;stroke:none;stroke-width:0.83622044;stroke-linecap:round;stroke-linejoin:round;stroke-miterlimit:4;stroke-dasharray:none;stroke-dashoffset:4;stroke-opacity:1" />
      <g
         transform="matrix(0.970292,0.313349,-0.313349,0.970292,16.11332,-12.23127)"
         id="g2410">
        <path
           style="opacity:0.0737705;fill:url(#radialGradient2349);fill-opacity:1;fill-rule:nonzero;stroke:none;stroke-width:0.99675924;stroke-linecap:round;stroke-linejoin:round;stroke-miterlimit:4;stroke-dasharray:none;stroke-dashoffset:4;stroke-opacity:1"
           d="M 38.835707,10.482836 L 59.803017,48.024438 C 65.795823,44.743339 73.30647,46.887431 76.64453,52.864169 C 79.98259,58.840904 77.884123,66.387223 71.9476,69.769101 L 92.91491,107.3107 C 119.5587,92.355909 129.06459,58.600557 114.15885,31.912097 C 99.253113,5.2236362 65.542477,-4.359212 38.835707,10.482836 z "
           id="path2391" />
        <path
           id="path2406"
           d="M 92.489293,107.54841 L 71.521983,70.006812 C 65.529173,73.287914 58.01853,71.143819 54.68047,65.167081 C 51.342411,59.190345 53.440875,51.644028 59.3774,48.262149 L 38.41009,10.720546 C 11.766295,25.675341 2.2604141,59.430693 17.166151,86.119153 C 32.071887,112.80761 65.782525,122.39046 92.489293,107.54841 z "
           style="opacity:0.0737705;fill:url(#radialGradient2351);fill-opacity:1;fill-rule:nonzero;stroke:none;stroke-width:0.99675924;stroke-linecap:round;stroke-linejoin:round;stroke-miterlimit:4;stroke-dasharray:none;stroke-dashoffset:4;stroke-opacity:1" />
      </g>
      <path
         id="path2298"
         d="M 59.47741,9.4786475 C 28.94093,10.253155 4.37804,35.28405 4.37804,66.006081 C 4.37804,67.499301 4.41291,68.974791 4.5268,70.439021 C 4.93622,70.972881 5.4147,71.484511 5.89535,71.986081 C 10.18651,76.463921 19.24825,66.504341 49.36198,71.331561 C 48.61556,69.713791 48.20167,67.902021 48.20167,66.006081 C 48.20167,59.236071 53.51633,53.713151 60.19144,53.332031 C 60.43466,53.318141 60.68854,53.332031 60.93522,53.332031 C 67.9519,53.332031 73.60927,58.989391 73.60927,66.006081 C 73.60926,69.857031 71.90864,73.310931 69.20607,75.645491 C 97.52981,82.045081 110.77811,82.329341 116.92713,73.681901 C 116.92864,73.670791 116.95537,73.663271 116.95688,73.652151 C 117.29438,71.154261 117.46265,68.595901 117.46265,66.006081 C 117.46265,34.7964 92.1449,9.4786475 60.93522,9.4786475 C 60.44757,9.4786475 59.96211,9.4663535 59.47741,9.4786475 z "
         style="opacity:0.26639344;fill:url(#linearGradient2401);fill-opacity:1;fill-rule:nonzero;stroke:none;stroke-width:0.99675924;stroke-linecap:round;stroke-linejoin:round;stroke-miterlimit:4;stroke-dasharray:none;stroke-dashoffset:4;stroke-opacity:1" />
      <path
         id="path2426"
         d="M 59.82054,51.358561 C 52.24459,51.931001 46.2148,58.306101 46.2148,66.015801 C 46.2148,74.102321 52.81737,80.704901 60.9039,80.704901 C 68.99042,80.704901 75.593,74.096761 75.593,66.015801 C 75.593,57.934841 68.98485,51.358561 60.9039,51.358561 C 60.73129,51.358561 60.47073,51.335991 60.07544,51.358561 C 59.98518,51.363721 59.91037,51.351781 59.82054,51.358561 z M 60.04358,55.309641 C 60.13124,55.302501 60.21024,55.314681 60.29849,55.309641 C 60.38964,55.304441 60.58314,55.309641 60.9039,55.309641 C 66.8563,55.309641 71.64192,60.063391 71.64192,66.015801 C 71.64192,71.968201 66.85075,76.753821 60.9039,76.753821 C 54.95704,76.753821 50.16588,71.962651 50.16588,66.015801 C 50.16588,60.366591 54.52077,55.759251 60.04358,55.309641 z "
         style="fill:url(#linearGradient2396);fill-opacity:1;fill-rule:nonzero;stroke:url(#linearGradient2398);stroke-width:0.88835597;stroke-linecap:round;stroke-linejoin:round;stroke-miterlimit:4;stroke-dasharray:none;stroke-dashoffset:4;stroke-opacity:1" />
      <text
         sodipodi:linespacing="125%"
         id="text2478"
         style="font-size:3px;font-style:normal;font-variant:normal;font-weight:normal;font-stretch:normal;text-align:start;line-height:125%;writing-mode:lr-tb;text-anchor:start;opacity:0.17213117;fill:black;fill-opacity:1;stroke:none;stroke-width:1px;stroke-linecap:butt;stroke-linejoin:miter;stroke-opacity:1;font-family:Bitstream Vera Sans"
         xml:space="preserve"><textPath
           id="textPath2484"
           xlink:href="#path2482"><tspan
   style="font-size:3px;font-style:normal;font-variant:normal;font-weight:normal;font-stretch:normal;text-align:start;line-height:125%;writing-mode:lr-tb;text-anchor:start;font-family:Bitstream Vera Sans"
   id="tspan2480">oxygen nº 13                   kde 4 2007</tspan></textPath></text>
      <path
         transform="matrix(0.306977,0,0,0.306977,79.16252,16.38056)"
         d="M -21.424004 161.47501 A 38.065865 38.065865 0 1 1  -97.555733,161.47501 A 38.065865 38.065865 0 1 1  -21.424004 161.47501 z"
         sodipodi:ry="38.065865"
         sodipodi:rx="38.065865"
         sodipodi:cy="161.47501"
         sodipodi:cx="-59.489868"
         id="path2482"
         style="opacity:0.0737705;fill:none;fill-opacity:1;fill-rule:nonzero;stroke:black;stroke-width:0.37125;stroke-linecap:round;stroke-linejoin:round;stroke-miterlimit:4;stroke-dasharray:none;stroke-dashoffset:4;stroke-opacity:1"
         sodipodi:type="arc" />
      <g
         style="opacity:0.68032789"
         transform="matrix(1.019604,7.687853e-3,-7.687853e-3,1.019604,-5.04648,6.657821)"
         id="g2549">
        <g
           id="g2530">
          <path
             id="path2499"
             d="M 63.4375,2.6875 C 62.216778,2.7260835 61.012215,2.7898661 59.8125,2.90625 L 64.40625,45.6875 C 64.431781,45.685886 64.443177,45.68896 64.46875,45.6875 C 64.707288,45.67388 64.976821,45.6875 65.21875,45.6875 C 69.627257,45.6875 73.476216,47.955074 75.6875,51.40625 L 111.15625,27.09375 C 101.18999,12.367851 84.333867,2.6875 65.21875,2.6875 C 64.740488,2.6875 64.256623,2.675443 63.78125,2.6875 C 63.664264,2.6904672 63.554306,2.6838081 63.4375,2.6875 z "
             style="opacity:0.48360656;fill:url(#linearGradient2359);fill-opacity:1;fill-rule:nonzero;stroke:none;stroke-width:0.99675924;stroke-linecap:round;stroke-linejoin:round;stroke-miterlimit:4;stroke-dasharray:none;stroke-dashoffset:4;stroke-opacity:1" />
          <path
             id="path2520"
             d="M 63.21875,2.6875 C 62.990235,2.6953451 62.758753,2.7088321 62.53125,2.71875 C 63.15624,15.384522 64.03264,32.985837 64.5625,45.6875 C 64.7772,45.680983 65.007062,45.6875 65.21875,45.6875 C 69.627257,45.6875 73.476216,47.955074 75.6875,51.40625 L 85.53125,44.65625 C 93.150564,38.38778 101.81483,31.292617 109.59375,24.875 C 99.480707,11.394662 83.363177,2.6875 65.21875,2.6875 C 64.740488,2.6875 64.256623,2.675443 63.78125,2.6875 C 63.664264,2.6904672 63.554306,2.6838081 63.4375,2.6875 C 63.361205,2.6899115 63.294922,2.684885 63.21875,2.6875 z "
             style="opacity:0.48360656;fill:url(#linearGradient2361);fill-opacity:1;fill-rule:nonzero;stroke:none;stroke-width:0.99675924;stroke-linecap:round;stroke-linejoin:round;stroke-miterlimit:4;stroke-dasharray:none;stroke-dashoffset:4;stroke-opacity:1" />
          <path
             id="path2525"
             d="M 66.96875,2.71875 L 66.4375,45.75 C 70.249044,46.118933 73.54589,48.194895 75.5625,51.21875 L 106.96875,21.625 C 97.1647,10.420682 82.903548,3.2138183 66.96875,2.71875 z "
             style="opacity:0.48360656;fill:url(#linearGradient2363);fill-opacity:1;fill-rule:nonzero;stroke:none;stroke-width:0.99675924;stroke-linecap:round;stroke-linejoin:round;stroke-miterlimit:4;stroke-dasharray:none;stroke-dashoffset:4;stroke-opacity:1" />
        </g>
        <g
           id="g2535"
           transform="matrix(-0.99779,6.64481e-2,-6.64481e-2,-0.99779,134.6643,111.1093)">
          <path
             style="opacity:0.48360656;fill:url(#linearGradient2365);fill-opacity:1;fill-rule:nonzero;stroke:none;stroke-width:0.99675924;stroke-linecap:round;stroke-linejoin:round;stroke-miterlimit:4;stroke-dasharray:none;stroke-dashoffset:4;stroke-opacity:1"
             d="M 63.4375,2.6875 C 62.216778,2.7260835 61.012215,2.7898661 59.8125,2.90625 L 64.40625,45.6875 C 64.431781,45.685886 64.443177,45.68896 64.46875,45.6875 C 64.707288,45.67388 64.976821,45.6875 65.21875,45.6875 C 69.627257,45.6875 73.476216,47.955074 75.6875,51.40625 L 111.15625,27.09375 C 101.18999,12.367851 84.333867,2.6875 65.21875,2.6875 C 64.740488,2.6875 64.256623,2.675443 63.78125,2.6875 C 63.664264,2.6904672 63.554306,2.6838081 63.4375,2.6875 z "
             id="path2537" />
          <path
             style="opacity:0.48360656;fill:url(#linearGradient2367);fill-opacity:1;fill-rule:nonzero;stroke:none;stroke-width:0.99675924;stroke-linecap:round;stroke-linejoin:round;stroke-miterlimit:4;stroke-dasharray:none;stroke-dashoffset:4;stroke-opacity:1"
             d="M 63.21875,2.6875 C 62.990235,2.6953451 62.758753,2.7088321 62.53125,2.71875 C 63.15624,15.384522 64.03264,32.985837 64.5625,45.6875 C 64.7772,45.680983 65.007062,45.6875 65.21875,45.6875 C 69.627257,45.6875 73.476216,47.955074 75.6875,51.40625 L 85.53125,44.65625 C 93.150564,38.38778 101.81483,31.292617 109.59375,24.875 C 99.480707,11.394662 83.363177,2.6875 65.21875,2.6875 C 64.740488,2.6875 64.256623,2.675443 63.78125,2.6875 C 63.664264,2.6904672 63.554306,2.6838081 63.4375,2.6875 C 63.361205,2.6899115 63.294922,2.684885 63.21875,2.6875 z "
             id="path2539" />
          <path
             style="opacity:0.48360656;fill:url(#linearGradient2370);fill-opacity:1;fill-rule:nonzero;stroke:none;stroke-width:0.99675924;stroke-linecap:round;stroke-linejoin:round;stroke-miterlimit:4;stroke-dasharray:none;stroke-dashoffset:4;stroke-opacity:1"
             d="M 66.96875,2.71875 L 66.4375,45.75 C 70.249044,46.118933 73.54589,48.194895 75.5625,51.21875 L 106.96875,21.625 C 97.1647,10.420682 82.903548,3.2138183 66.96875,2.71875 z "
             id="path2541" />
        </g>
      </g>
      <path
         sodipodi:nodetypes="cscscssccscssc"
         style="opacity:0.51639344;fill:url(#linearGradient2380);fill-opacity:1;fill-rule:nonzero;stroke:none;stroke-width:0.99675924;stroke-linecap:round;stroke-linejoin:round;stroke-miterlimit:4;stroke-dasharray:none;stroke-dashoffset:4;stroke-opacity:1"
         d="M 59.12039,9.4786475 C 28.74998,10.43861 4.37804,35.404058 4.37804,66.006081 C 4.37804,67.499301 4.41291,68.974791 4.5268,70.439021 C 4.93622,70.972881 5.4147,71.484511 5.89535,71.986081 C 9.0887,75.318361 68.86392,26.639148 92.79884,19.29657 C 83.72826,13.097372 72.74642,9.4786475 60.93522,9.4786475 C 60.44757,9.4786475 59.96211,9.4663535 59.47741,9.4786475 C 59.35812,9.4816725 59.23949,9.4748825 59.12039,9.4786475 z M 100.50442,25.663343 C 83.10646,34.223169 77.3308,69.298681 83.41092,73.278021 C 93.08749,79.611161 110.77811,82.329341 116.92713,73.681901 C 116.93045,73.679551 116.95355,73.654521 116.95688,73.652151 C 117.29438,71.154261 117.46265,68.595901 117.46265,66.006081 C 117.46265,50.203131 110.96486,35.923164 100.50442,25.663343 z "
         id="path2358" />
      <path
         id="path2353"
         d="M 59.12039,9.4786475 C 28.74998,10.43861 4.37804,35.404058 4.37804,66.006081 C 4.37804,67.499301 4.41291,68.974791 4.5268,70.439021 C 4.93622,70.972881 5.4147,71.484511 5.89535,71.986081 C 9.0887,75.318361 14.92594,70.637101 30.11289,70.022501 C 46.22814,49.405241 68.86392,26.639148 92.79884,19.29657 C 83.72826,13.097372 72.74642,9.4786475 60.93522,9.4786475 C 60.44757,9.4786475 59.96211,9.4663535 59.47741,9.4786475 C 59.35812,9.4816725 59.23949,9.4748825 59.12039,9.4786475 z M 100.50442,25.663343 C 83.10646,34.223169 75.08935,45.424437 70.36637,57.526961 C 72.38317,59.770261 73.60927,62.741121 73.60927,66.006081 C 73.60926,69.857031 71.90864,73.310931 69.20607,75.645491 C 97.52981,82.045081 110.77811,82.329341 116.92713,73.681901 C 116.93045,73.679551 116.95355,73.654521 116.95688,73.652151 C 117.29438,71.154261 117.46265,68.595901 117.46265,66.006081 C 117.46265,50.203131 110.96486,35.923164 100.50442,25.663343 z "
         style="opacity:0.82377044;fill:url(#linearGradient2377);fill-opacity:1;fill-rule:nonzero;stroke:none;stroke-width:0.99675924;stroke-linecap:round;stroke-linejoin:round;stroke-miterlimit:4;stroke-dasharray:none;stroke-dashoffset:4;stroke-opacity:1" />
      <path
         sodipodi:type="arc"
         style="opacity:0.28;fill:url(#radialGradient1994);fill-opacity:1;fill-rule:nonzero;stroke:none;stroke-width:0;stroke-linecap:round;stroke-linejoin:round;stroke-miterlimit:4;stroke-dasharray:none;stroke-dashoffset:4;stroke-opacity:1"
         id="path1946"
         sodipodi:cx="63.912209"
         sodipodi:cy="115.70919"
         sodipodi:rx="63.912209"
         sodipodi:ry="12.641975"
         d="M 127.82442 115.70919 A 63.912209 12.641975 0 1 1  0,115.70919 A 63.912209 12.641975 0 1 1  127.82442 115.70919 z"
         transform="matrix(1.266579,0,0,0.543726,2.6878,102.5114)" />
      <path
         style="fill:url(#linearGradient1996);fill-opacity:1;fill-rule:nonzero;stroke:url(#linearGradient1998);stroke-width:0.88835597;stroke-linecap:round;stroke-linejoin:round;stroke-miterlimit:4;stroke-dasharray:none;stroke-dashoffset:4;stroke-opacity:1"
         d="M 106.79735,44.315077 C 75.38213,45.308329 50.14394,71.166711 50.14394,102.81656 C 50.14394,135.09463 76.36737,161.34992 108.64544,161.34992 C 140.9235,161.34992 167.14693,135.09338 167.14693,102.81656 C 167.14693,70.539761 140.92225,44.315077 108.64544,44.315077 C 108.19096,44.315077 107.69896,44.301099 107.14785,44.315077 C 107.02447,44.318206 106.92054,44.311182 106.79735,44.315077 z M 106.92481,48.266158 C 107.0398,48.262524 107.12825,48.26908 107.24344,48.266158 C 107.66174,48.255549 108.12461,48.266158 108.64544,48.266158 C 138.78798,48.266158 163.19585,72.674031 163.19585,102.81656 C 163.19585,132.95911 138.78672,157.39884 108.64544,157.39884 C 78.50414,157.39884 54.09503,132.95786 54.09503,102.81656 C 54.09503,73.262381 77.59954,49.192809 106.92481,48.266158 z "
         id="path1948" />
      <path
         style="fill:url(#radialGradient2000);fill-opacity:1;fill-rule:nonzero;stroke:none;stroke-width:0.99675924;stroke-linecap:round;stroke-linejoin:round;stroke-miterlimit:4;stroke-dasharray:none;stroke-dashoffset:4;stroke-opacity:1"
         d="M 107.21677,46.29158 C 76.6803,47.066088 52.11804,72.091721 52.11804,102.81375 C 52.11804,134.02343 77.46018,159.36556 108.66986,159.36556 C 139.87954,159.36556 165.19202,134.02343 165.19202,102.81375 C 165.19202,71.604071 139.87955,46.29158 108.66986,46.29158 C 108.18221,46.29158 107.70148,46.279286 107.21677,46.29158 z M 107.92849,90.121461 C 108.17171,90.107571 108.42318,90.121461 108.66986,90.121461 C 115.68654,90.121461 121.36214,95.797061 121.36214,102.81375 C 121.36214,109.83043 115.68655,115.53568 108.66986,115.53568 C 101.65318,115.53568 95.94793,109.83043 95.94793,102.81375 C 95.94793,96.043741 101.25339,90.502581 107.92849,90.121461 z "
         id="path1950" />
      <path
         style="opacity:0.77049178;fill:#b1d28f;fill-opacity:1;fill-rule:nonzero;stroke:none;stroke-width:0.83622044;stroke-linecap:round;stroke-linejoin:round;stroke-miterlimit:4;stroke-dasharray:none;stroke-dashoffset:4;stroke-opacity:1"
         d="M 108.19503,81.498171 C 96.62289,81.718291 87.30433,91.186771 87.30433,102.81123 C 87.30433,114.57353 96.8226,124.1243 108.5849,124.1243 C 120.34719,124.1243 129.89796,114.57353 129.89796,102.81123 C 129.89796,91.048941 120.34721,81.498171 108.5849,81.498171 C 108.44706,81.498171 108.33225,81.495561 108.19503,81.498171 z M 107.87013,87.313781 C 108.11247,87.308891 108.34058,87.346271 108.5849,87.346271 C 117.13815,87.346271 124.08236,94.257981 124.08236,102.81123 C 124.08236,111.36449 117.13815,118.3087 108.5849,118.3087 C 100.03164,118.3087 93.08745,111.36449 93.08745,102.81123 C 93.08744,94.558681 99.57081,87.810851 107.70768,87.346271 C 107.76327,87.343091 107.81421,87.314911 107.87013,87.313781 z "
         id="path1952" />
      <g
         id="g1954"
         transform="matrix(0.970292,0.313349,-0.313349,0.970292,63.85482,24.56949)">
        <path
           id="path1956"
           d="M 38.216315,10.682864 L 59.183625,48.224466 C 65.176435,44.943367 72.687075,47.087459 76.025138,53.064197 C 79.363198,59.040932 77.264738,66.587251 71.328205,69.969129 L 92.295518,107.51073 C 118.93931,92.555937 128.4452,58.800585 113.53946,32.112125 C 98.633728,5.4236635 64.923085,-4.1591847 38.216315,10.682864 z "
           style="opacity:0.0737705;fill:url(#radialGradient2002);fill-opacity:1;fill-rule:nonzero;stroke:none;stroke-width:0.99675924;stroke-linecap:round;stroke-linejoin:round;stroke-miterlimit:4;stroke-dasharray:none;stroke-dashoffset:4;stroke-opacity:1" />
        <path
           style="opacity:0.0737705;fill:url(#radialGradient2004);fill-opacity:1;fill-rule:nonzero;stroke:none;stroke-width:0.99675924;stroke-linecap:round;stroke-linejoin:round;stroke-miterlimit:4;stroke-dasharray:none;stroke-dashoffset:4;stroke-opacity:1"
           d="M 92.489293,107.54841 L 71.521983,70.006812 C 65.529173,73.287914 58.01853,71.143819 54.68047,65.167081 C 51.342411,59.190345 53.440875,51.644028 59.3774,48.262149 L 38.41009,10.720546 C 11.766295,25.675341 2.2604141,59.430693 17.166151,86.119153 C 32.071887,112.80761 65.782525,122.39046 92.489293,107.54841 z "
           id="path1958" />
      </g>
      <path
         style="opacity:0.26639344;fill:url(#linearGradient2006);fill-opacity:1;fill-rule:nonzero;stroke:none;stroke-width:0.99675924;stroke-linecap:round;stroke-linejoin:round;stroke-miterlimit:4;stroke-dasharray:none;stroke-dashoffset:4;stroke-opacity:1"
         d="M 107.21895,46.279417 C 76.68248,47.053925 52.11958,72.084821 52.11958,102.80685 C 52.11958,104.30007 52.15445,105.77556 52.26834,107.23979 C 52.67777,107.77365 53.15624,108.28528 53.63689,108.78685 C 57.92805,113.26469 66.9898,103.30511 97.10352,108.13232 C 96.35711,106.51456 95.94322,104.70279 95.94322,102.80685 C 95.94322,96.036841 101.25787,90.513921 107.93298,90.132801 C 108.1762,90.118911 108.43008,90.132801 108.67676,90.132801 C 115.69344,90.132801 121.35081,95.790161 121.35081,102.80685 C 121.3508,106.6578 119.65018,110.1117 116.94761,112.44626 C 145.27135,118.84585 158.51966,119.1301 164.66867,110.48267 C 164.67018,110.47156 164.69691,110.46404 164.69842,110.45292 C 165.03592,107.95503 165.20419,105.39667 165.20419,102.80685 C 165.20419,71.597171 139.88644,46.279417 108.67676,46.279417 C 108.18911,46.279417 107.70365,46.267123 107.21895,46.279417 z "
         id="path1960" />
      <path
         style="fill:url(#linearGradient2008);fill-opacity:1;fill-rule:nonzero;stroke:url(#linearGradient2010);stroke-width:0.88835597;stroke-linecap:round;stroke-linejoin:round;stroke-miterlimit:4;stroke-dasharray:none;stroke-dashoffset:4;stroke-opacity:1"
         d="M 107.56208,88.159331 C 99.98614,88.731771 93.95634,95.106871 93.95634,102.81656 C 93.95634,110.90309 100.55892,117.50566 108.64544,117.50566 C 116.73196,117.50566 123.33454,110.89753 123.33454,102.81656 C 123.33454,94.735611 116.72639,88.159331 108.64544,88.159331 C 108.47283,88.159331 108.21227,88.136761 107.81699,88.159331 C 107.72672,88.164491 107.65191,88.152551 107.56208,88.159331 z M 107.78512,92.110411 C 107.87278,92.103271 107.95178,92.115451 108.04003,92.110411 C 108.13119,92.105211 108.32468,92.110411 108.64544,92.110411 C 114.59785,92.110411 119.38346,96.864161 119.38346,102.81656 C 119.38346,108.76897 114.59229,113.55458 108.64544,113.55458 C 102.69859,113.55458 97.90742,108.76342 97.90742,102.81656 C 97.90742,97.167351 102.26232,92.560021 107.78512,92.110411 z "
         id="path1962" />
      <text
         transform="translate(46.82224,36.09214)"
         xml:space="preserve"
         style="font-size:3px;font-style:normal;font-variant:normal;font-weight:normal;font-stretch:normal;text-align:start;line-height:125%;writing-mode:lr-tb;text-anchor:start;opacity:0.17213117;fill:black;fill-opacity:1;stroke:none;stroke-width:1px;stroke-linecap:butt;stroke-linejoin:miter;stroke-opacity:1;font-family:Bitstream Vera Sans"
         id="text1964"
         sodipodi:linespacing="125%"><textPath
           xlink:href="#path2482"
           id="textPath1966"><tspan
   id="tspan1968"
   style="font-size:3px;font-style:normal;font-variant:normal;font-weight:normal;font-stretch:normal;text-align:start;line-height:125%;writing-mode:lr-tb;text-anchor:start;font-family:Bitstream Vera Sans">oxygen nº 13                   kde 4 2007</tspan></textPath></text>
      <path
         sodipodi:type="arc"
         style="opacity:0.0737705;fill:none;fill-opacity:1;fill-rule:nonzero;stroke:black;stroke-width:0.37125;stroke-linecap:round;stroke-linejoin:round;stroke-miterlimit:4;stroke-dasharray:none;stroke-dashoffset:4;stroke-opacity:1"
         id="path1970"
         sodipodi:cx="-59.489868"
         sodipodi:cy="161.47501"
         sodipodi:rx="38.065865"
         sodipodi:ry="38.065865"
         d="M -21.424004 161.47501 A 38.065865 38.065865 0 1 1  -97.555733,161.47501 A 38.065865 38.065865 0 1 1  -21.424004 161.47501 z"
         transform="matrix(0.306977,0,0,0.306977,126.904,53.18131)" />
      <g
         id="g1972"
         transform="matrix(1.019604,7.687853e-3,-7.687853e-3,1.019604,42.69502,43.45859)"
         style="opacity:0.68032789">
        <g
           id="g1974">
          <path
             style="opacity:0.48360656;fill:url(#linearGradient2012);fill-opacity:1;fill-rule:nonzero;stroke:none;stroke-width:0.99675924;stroke-linecap:round;stroke-linejoin:round;stroke-miterlimit:4;stroke-dasharray:none;stroke-dashoffset:4;stroke-opacity:1"
             d="M 63.4375,2.6875 C 62.216778,2.7260835 61.012215,2.7898661 59.8125,2.90625 L 64.40625,45.6875 C 64.431781,45.685886 64.443177,45.68896 64.46875,45.6875 C 64.707288,45.67388 64.976821,45.6875 65.21875,45.6875 C 69.627257,45.6875 73.476216,47.955074 75.6875,51.40625 L 111.15625,27.09375 C 101.18999,12.367851 84.333867,2.6875 65.21875,2.6875 C 64.740488,2.6875 64.256623,2.675443 63.78125,2.6875 C 63.664264,2.6904672 63.554306,2.6838081 63.4375,2.6875 z "
             id="path1976" />
          <path
             style="opacity:0.48360656;fill:url(#linearGradient2014);fill-opacity:1;fill-rule:nonzero;stroke:none;stroke-width:0.99675924;stroke-linecap:round;stroke-linejoin:round;stroke-miterlimit:4;stroke-dasharray:none;stroke-dashoffset:4;stroke-opacity:1"
             d="M 63.21875,2.6875 C 62.990235,2.6953451 62.758753,2.7088321 62.53125,2.71875 C 63.15624,15.384522 64.03264,32.985837 64.5625,45.6875 C 64.7772,45.680983 65.007062,45.6875 65.21875,45.6875 C 69.627257,45.6875 73.476216,47.955074 75.6875,51.40625 L 85.53125,44.65625 C 93.150564,38.38778 101.81483,31.292617 109.59375,24.875 C 99.480707,11.394662 83.363177,2.6875 65.21875,2.6875 C 64.740488,2.6875 64.256623,2.675443 63.78125,2.6875 C 63.664264,2.6904672 63.554306,2.6838081 63.4375,2.6875 C 63.361205,2.6899115 63.294922,2.684885 63.21875,2.6875 z "
             id="path1978" />
          <path
             style="opacity:0.48360656;fill:url(#linearGradient2016);fill-opacity:1;fill-rule:nonzero;stroke:none;stroke-width:0.99675924;stroke-linecap:round;stroke-linejoin:round;stroke-miterlimit:4;stroke-dasharray:none;stroke-dashoffset:4;stroke-opacity:1"
             d="M 66.96875,2.71875 L 66.4375,45.75 C 70.249044,46.118933 73.54589,48.194895 75.5625,51.21875 L 106.96875,21.625 C 97.1647,10.420682 82.903548,3.2138183 66.96875,2.71875 z "
             id="path1980" />
        </g>
        <g
           transform="matrix(-0.99779,6.64481e-2,-6.64481e-2,-0.99779,134.6643,111.1093)"
           id="g1982">
          <path
             id="path1984"
             d="M 63.4375,2.6875 C 62.216778,2.7260835 61.012215,2.7898661 59.8125,2.90625 L 64.40625,45.6875 C 64.431781,45.685886 64.443177,45.68896 64.46875,45.6875 C 64.707288,45.67388 64.976821,45.6875 65.21875,45.6875 C 69.627257,45.6875 73.476216,47.955074 75.6875,51.40625 L 111.15625,27.09375 C 101.18999,12.367851 84.333867,2.6875 65.21875,2.6875 C 64.740488,2.6875 64.256623,2.675443 63.78125,2.6875 C 63.664264,2.6904672 63.554306,2.6838081 63.4375,2.6875 z "
             style="opacity:0.48360656;fill:url(#linearGradient2018);fill-opacity:1;fill-rule:nonzero;stroke:none;stroke-width:0.99675924;stroke-linecap:round;stroke-linejoin:round;stroke-miterlimit:4;stroke-dasharray:none;stroke-dashoffset:4;stroke-opacity:1" />
          <path
             id="path1986"
             d="M 63.21875,2.6875 C 62.990235,2.6953451 62.758753,2.7088321 62.53125,2.71875 C 63.15624,15.384522 64.03264,32.985837 64.5625,45.6875 C 64.7772,45.680983 65.007062,45.6875 65.21875,45.6875 C 69.627257,45.6875 73.476216,47.955074 75.6875,51.40625 L 85.53125,44.65625 C 93.150564,38.38778 101.81483,31.292617 109.59375,24.875 C 99.480707,11.394662 83.363177,2.6875 65.21875,2.6875 C 64.740488,2.6875 64.256623,2.675443 63.78125,2.6875 C 63.664264,2.6904672 63.554306,2.6838081 63.4375,2.6875 C 63.361205,2.6899115 63.294922,2.684885 63.21875,2.6875 z "
             style="opacity:0.48360656;fill:url(#linearGradient2020);fill-opacity:1;fill-rule:nonzero;stroke:none;stroke-width:0.99675924;stroke-linecap:round;stroke-linejoin:round;stroke-miterlimit:4;stroke-dasharray:none;stroke-dashoffset:4;stroke-opacity:1" />
          <path
             id="path1988"
             d="M 66.96875,2.71875 L 66.4375,45.75 C 70.249044,46.118933 73.54589,48.194895 75.5625,51.21875 L 106.96875,21.625 C 97.1647,10.420682 82.903548,3.2138183 66.96875,2.71875 z "
             style="opacity:0.48360656;fill:url(#linearGradient2022);fill-opacity:1;fill-rule:nonzero;stroke:none;stroke-width:0.99675924;stroke-linecap:round;stroke-linejoin:round;stroke-miterlimit:4;stroke-dasharray:none;stroke-dashoffset:4;stroke-opacity:1" />
        </g>
      </g>
      <path
         style="opacity:0.4;fill:url(#linearGradient2026);fill-opacity:1;fill-rule:nonzero;stroke:none;stroke-width:0.99675924;stroke-linecap:round;stroke-linejoin:round;stroke-miterlimit:4;stroke-dasharray:none;stroke-dashoffset:4;stroke-opacity:1"
         d="M 106.86194,46.279417 C 76.49152,47.23938 52.11958,72.204831 52.11958,102.80685 C 52.11958,104.30007 52.15445,105.77556 52.26834,107.23979 C 52.67777,107.77365 53.15624,108.28528 53.63689,108.78685 C 56.83024,112.11913 62.66749,107.43787 77.85443,106.82327 C 93.96968,86.206001 116.60546,63.439921 140.54038,56.097341 C 131.4698,49.898141 120.48797,46.279417 108.67676,46.279417 C 108.18911,46.279417 107.70365,46.267123 107.21895,46.279417 C 107.09966,46.282442 106.98103,46.275653 106.86194,46.279417 z M 148.24596,62.464121 C 130.84801,71.023941 122.83089,82.225201 118.10792,94.327721 C 120.12471,96.571031 121.35081,99.541891 121.35081,102.80685 C 121.3508,106.6578 119.65018,110.1117 116.94761,112.44626 C 145.27135,118.84585 158.51966,119.1301 164.66867,110.48267 C 164.67199,110.48032 164.69509,110.45528 164.69842,110.45292 C 165.03592,107.95503 165.20419,105.39667 165.20419,102.80685 C 165.20419,87.003901 158.7064,72.723941 148.24596,62.464121 z "
         id="path1992" />
      <path
         id="path1990"
         d="M 106.86194,46.279417 C 76.49152,47.23938 52.11958,72.204831 52.11958,102.80685 C 52.11958,104.30007 52.15445,105.77556 52.26834,107.23979 C 52.67777,107.77365 53.15624,108.28528 53.63689,108.78685 C 56.83024,112.11913 116.60546,63.439921 140.54038,56.097341 C 131.4698,49.898141 120.48797,46.279417 108.67676,46.279417 C 108.18911,46.279417 107.70365,46.267123 107.21895,46.279417 C 107.09966,46.282442 106.98103,46.275653 106.86194,46.279417 z M 148.24596,62.464121 C 130.84801,71.023941 125.07234,106.09945 131.15246,110.07878 C 140.82903,116.41192 158.51966,119.1301 164.66867,110.48267 C 164.67199,110.48032 164.69509,110.45528 164.69842,110.45292 C 165.03592,107.95503 165.20419,105.39667 165.20419,102.80685 C 165.20419,87.003901 158.7064,72.723941 148.24596,62.464121 z "
         style="opacity:0.41000001;fill:url(#linearGradient2024);fill-opacity:1;fill-rule:nonzero;stroke:none;stroke-width:0.99675924;stroke-linecap:round;stroke-linejoin:round;stroke-miterlimit:4;stroke-dasharray:none;stroke-dashoffset:4;stroke-opacity:1"
         sodipodi:nodetypes="cscscssccscssc" />
    </g>
  </g>
</svg>
