<?xml version="1.0" encoding="UTF-8" standalone="no"?>
<!-- Created with Inkscape (http://www.inkscape.org/) -->
<svg
   xmlns:dc="http://purl.org/dc/elements/1.1/"
   xmlns:cc="http://web.resource.org/cc/"
   xmlns:rdf="http://www.w3.org/1999/02/22-rdf-syntax-ns#"
   xmlns:svg="http://www.w3.org/2000/svg"
   xmlns="http://www.w3.org/2000/svg"
   xmlns:xlink="http://www.w3.org/1999/xlink"
   xmlns:sodipodi="http://sodipodi.sourceforge.net/DTD/sodipodi-0.dtd"
   xmlns:inkscape="http://www.inkscape.org/namespaces/inkscape"
   width="128"
   height="128"
   id="svg1307"
   sodipodi:version="0.32"
   inkscape:version="0.43+0.44pre3"
   version="1.0"
   sodipodi:docbase="/home/pinheiro/artwork/Oxygen/theme/svg/actions"
   sodipodi:docname="cdsmall_kscd.svg">
  <defs
     id="defs1309">
    <linearGradient
       inkscape:collect="always"
       id="linearGradient3942">
      <stop
         style="stop-color:white;stop-opacity:1;"
         offset="0"
         id="stop3944" />
      <stop
         style="stop-color:white;stop-opacity:0;"
         offset="1"
         id="stop3946" />
    </linearGradient>
    <linearGradient
       inkscape:collect="always"
       id="linearGradient3932">
      <stop
         style="stop-color:white;stop-opacity:1;"
         offset="0"
         id="stop3934" />
      <stop
         style="stop-color:white;stop-opacity:0;"
         offset="1"
         id="stop3936" />
    </linearGradient>
    <linearGradient
       id="linearGradient2322">
      <stop
         id="stop2324"
         offset="0"
         style="stop-color:#ffffff;stop-opacity:1;" />
      <stop
         id="stop2326"
         offset="1"
         style="stop-color:#999999;stop-opacity:1;" />
    </linearGradient>
    <linearGradient
       inkscape:collect="always"
       id="linearGradient2512">
      <stop
         style="stop-color:#ffffff;stop-opacity:1;"
         offset="0"
         id="stop2514" />
      <stop
         style="stop-color:#ffffff;stop-opacity:0;"
         offset="1"
         id="stop2516" />
    </linearGradient>
    <linearGradient
       inkscape:collect="always"
       id="linearGradient2430">
      <stop
         style="stop-color:#000000;stop-opacity:1;"
         offset="0"
         id="stop2432" />
      <stop
         style="stop-color:#000000;stop-opacity:0;"
         offset="1"
         id="stop2434" />
    </linearGradient>
    <linearGradient
       id="linearGradient2369">
      <stop
         style="stop-color:#ffffff;stop-opacity:0;"
         offset="0"
         id="stop2371" />
      <stop
         id="stop2385"
         offset="0.29734492"
         style="stop-color:#ffffff;stop-opacity:0;" />
      <stop
         id="stop2383"
         offset="0.4831855"
         style="stop-color:#ff6dff;stop-opacity:1;" />
      <stop
         id="stop2377"
         offset="0.50018114"
         style="stop-color:#ff0000;stop-opacity:1;" />
      <stop
         style="stop-color:#00ff00;stop-opacity:1;"
         offset="0.51648355"
         id="stop2381" />
      <stop
         style="stop-color:#0000ff;stop-opacity:1;"
         offset="0.53395635"
         id="stop2379" />
      <stop
         id="stop2387"
         offset="0.55754495"
         style="stop-color:#00ffff;stop-opacity:1;" />
      <stop
         style="stop-color:#ffffff;stop-opacity:0;"
         offset="0.55754495"
         id="stop2389" />
      <stop
         style="stop-color:#000000;stop-opacity:0;"
         offset="1"
         id="stop2373" />
    </linearGradient>
    <linearGradient
       id="linearGradient3325">
      <stop
         id="stop3327"
         offset="0"
         style="stop-color:#ffffff;stop-opacity:1;" />
      <stop
         id="stop3329"
         offset="1"
         style="stop-color:#ffffff;stop-opacity:0;" />
    </linearGradient>
    <linearGradient
       inkscape:collect="always"
       id="linearGradient3291">
      <stop
         style="stop-color:#000000;stop-opacity:1;"
         offset="0"
         id="stop3293" />
      <stop
         style="stop-color:#000000;stop-opacity:0;"
         offset="1"
         id="stop3295" />
    </linearGradient>
    <linearGradient
       id="linearGradient3225">
      <stop
         style="stop-color:#ffffff;stop-opacity:1;"
         offset="0"
         id="stop3227" />
      <stop
         style="stop-color:#aca386;stop-opacity:1;"
         offset="1"
         id="stop3229" />
    </linearGradient>
    <radialGradient
       inkscape:collect="always"
       xlink:href="#linearGradient3291"
       id="radialGradient3297"
       cx="63.912209"
       cy="115.70919"
       fx="63.912209"
       fy="115.7093"
       r="63.912209"
       gradientTransform="matrix(1,0,0,0.197802,0,92.82166)"
       gradientUnits="userSpaceOnUse" />
    <radialGradient
       inkscape:collect="always"
       xlink:href="#linearGradient2369"
       id="radialGradient2349"
       gradientUnits="userSpaceOnUse"
       gradientTransform="matrix(0.946086,-1.58605,1.489114,0.888263,-90.73811,134.2833)"
       spreadMethod="repeat"
       cx="86.040627"
       cy="68.49028"
       fx="80.437614"
       fy="103.6857"
       r="59.778126" />
    <radialGradient
       inkscape:collect="always"
       xlink:href="#linearGradient2369"
       id="radialGradient2351"
       gradientUnits="userSpaceOnUse"
       gradientTransform="matrix(-0.946086,1.58605,-1.489114,-0.888263,222.0631,-16.25204)"
       spreadMethod="repeat"
       cx="86.040627"
       cy="68.49028"
       fx="80.437614"
       fy="103.6857"
       r="59.778126" />
    <linearGradient
       inkscape:collect="always"
       xlink:href="#linearGradient2512"
       id="linearGradient2359"
       gradientUnits="userSpaceOnUse"
       x1="102.0625"
       y1="-2.7058048"
       x2="59.8125"
       y2="75.044197" />
    <linearGradient
       inkscape:collect="always"
       xlink:href="#linearGradient2512"
       id="linearGradient2361"
       gradientUnits="userSpaceOnUse"
       x1="102.0625"
       y1="-2.7058048"
       x2="59.8125"
       y2="75.044197" />
    <linearGradient
       inkscape:collect="always"
       xlink:href="#linearGradient2512"
       id="linearGradient2363"
       gradientUnits="userSpaceOnUse"
       x1="102.0625"
       y1="-2.7058048"
       x2="59.8125"
       y2="75.044197" />
    <linearGradient
       inkscape:collect="always"
       xlink:href="#linearGradient2512"
       id="linearGradient2365"
       gradientUnits="userSpaceOnUse"
       x1="102.0625"
       y1="-2.7058048"
       x2="59.8125"
       y2="75.044197" />
    <linearGradient
       inkscape:collect="always"
       xlink:href="#linearGradient2512"
       id="linearGradient2367"
       gradientUnits="userSpaceOnUse"
       x1="102.0625"
       y1="-2.7058048"
       x2="59.8125"
       y2="75.044197" />
    <linearGradient
       inkscape:collect="always"
       xlink:href="#linearGradient2512"
       id="linearGradient2370"
       gradientUnits="userSpaceOnUse"
       x1="102.0625"
       y1="-2.7058048"
       x2="59.8125"
       y2="75.044197" />
    <linearGradient
       inkscape:collect="always"
       xlink:href="#linearGradient3325"
       id="linearGradient2377"
       gradientUnits="userSpaceOnUse"
       gradientTransform="matrix(0.933709,0,0,0.933709,2.972776,2.063769)"
       x1="95.239143"
       y1="-52.086468"
       x2="53.753468"
       y2="102.74017" />
    <linearGradient
       inkscape:collect="always"
       xlink:href="#linearGradient3325"
       id="linearGradient2380"
       gradientUnits="userSpaceOnUse"
       gradientTransform="matrix(0.933709,0,0,0.933709,2.972776,2.063769)"
       x1="95.239143"
       y1="-52.086468"
       x2="53.753468"
       y2="102.74017" />
    <linearGradient
       inkscape:collect="always"
       xlink:href="#linearGradient3225"
       id="linearGradient2396"
       gradientUnits="userSpaceOnUse"
       x1="-16.63065"
       y1="-37.966259"
       x2="61.224335"
       y2="406.26038"
       gradientTransform="translate(-1,0)" />
    <linearGradient
       inkscape:collect="always"
       xlink:href="#linearGradient2430"
       id="linearGradient2398"
       gradientUnits="userSpaceOnUse"
       gradientTransform="translate(-1.581855,-0.880546)"
       x1="73.640358"
       y1="232.70004"
       x2="72.251587"
       y2="-64.937431" />
    <linearGradient
       inkscape:collect="always"
       xlink:href="#linearGradient3325"
       id="linearGradient2401"
       gradientUnits="userSpaceOnUse"
       gradientTransform="matrix(0.933709,0,0,0.933709,2.972776,2.063769)"
       x1="95.239143"
       y1="-52.086468"
       x2="53.753468"
       y2="102.74017" />
    <radialGradient
       inkscape:collect="always"
       xlink:href="#linearGradient2322"
       id="radialGradient2407"
       gradientUnits="userSpaceOnUse"
       gradientTransform="matrix(1.076441,-8.385946e-8,1.399714e-7,1.796708,-6.59597,-49.4106)"
       cx="65.765625"
       cy="59.856506"
       fx="65.765625"
       fy="95.100655"
       r="59.778126" />
    <linearGradient
       inkscape:collect="always"
       xlink:href="#linearGradient3225"
       id="linearGradient2410"
       gradientUnits="userSpaceOnUse"
       x1="76.869347"
       y1="73.033737"
       x2="61.224335"
       y2="406.26038"
       gradientTransform="translate(-1,0)" />
    <linearGradient
       inkscape:collect="always"
       xlink:href="#linearGradient2430"
       id="linearGradient2412"
       gradientUnits="userSpaceOnUse"
       gradientTransform="translate(-1.581855,-0.880546)"
       x1="73.640358"
       y1="232.70004"
       x2="72.251587"
       y2="-64.937431" />
    <radialGradient
       inkscape:collect="always"
       xlink:href="#linearGradient3942"
       id="radialGradient3960"
       gradientUnits="userSpaceOnUse"
       gradientTransform="matrix(0.826555,-0.332283,0.133996,0.333315,9.033941,76.02622)"
       cx="90.645248"
       cy="76.943771"
       fx="85.750229"
       fy="81.143517"
       r="11.762947" />
    <linearGradient
       inkscape:collect="always"
       xlink:href="#linearGradient3932"
       id="linearGradient3962"
       gradientUnits="userSpaceOnUse"
       gradientTransform="translate(4.045691,1.494473)"
       x1="103.51649"
       y1="43.015373"
       x2="91.706108"
       y2="66.926941" />
    <linearGradient
       inkscape:collect="always"
       xlink:href="#linearGradient3932"
       id="linearGradient3987"
       gradientUnits="userSpaceOnUse"
       gradientTransform="translate(4.045691,1.494473)"
       x1="103.51649"
       y1="43.015373"
       x2="91.706108"
       y2="66.926941" />
    <radialGradient
       inkscape:collect="always"
       xlink:href="#linearGradient3942"
       id="radialGradient3989"
       gradientUnits="userSpaceOnUse"
       gradientTransform="matrix(0.826555,-0.332283,0.133996,0.333315,9.033941,76.02622)"
       cx="90.645248"
       cy="76.943771"
       fx="85.750229"
       fy="81.143517"
       r="11.762947" />
  </defs>
  <sodipodi:namedview
     id="base"
     pagecolor="#ffffff"
     bordercolor="#666666"
     borderopacity="1.0"
     inkscape:pageopacity="0.0"
     inkscape:pageshadow="2"
     inkscape:zoom="1.08734"
     inkscape:cx="255.61859"
     inkscape:cy="51.071415"
     inkscape:current-layer="layer1"
     showgrid="false"
     inkscape:document-units="px"
     inkscape:grid-bbox="true"
     guidetolerance="0.1px"
     showguides="true"
     inkscape:guide-bbox="true"
     inkscape:window-width="1106"
     inkscape:window-height="958"
     inkscape:window-x="779"
     inkscape:window-y="103">
    <sodipodi:guide
       orientation="horizontal"
       position="32.487481"
       id="guide2204" />
  </sodipodi:namedview>
  <metadata
     id="metadata1312">
    <rdf:RDF>
      <cc:Work
         rdf:about="">
        <dc:format>image/svg+xml</dc:format>
        <dc:type
           rdf:resource="http://purl.org/dc/dcmitype/StillImage" />
        <cc:license
           rdf:resource="http://creativecommons.org/licenses/GPL/2.0/" />
        <dc:contributor>
          <cc:Agent>
            <dc:title>Oxygen team</dc:title>
          </cc:Agent>
        </dc:contributor>
      </cc:Work>
      <cc:License
         rdf:about="http://creativecommons.org/licenses/LGPL/2.1/">
        <cc:permits
           rdf:resource="http://web.resource.org/cc/Reproduction" />
        <cc:permits
           rdf:resource="http://web.resource.org/cc/Distribution" />
        <cc:requires
           rdf:resource="http://web.resource.org/cc/Notice" />
        <cc:permits
           rdf:resource="http://web.resource.org/cc/DerivativeWorks" />
        <cc:requires
           rdf:resource="http://web.resource.org/cc/ShareAlike" />
        <cc:requires
           rdf:resource="http://web.resource.org/cc/SourceCode" />
      </cc:License>
    </rdf:RDF>
  </metadata>
  <g
     id="layer1"
     inkscape:label="Layer 1"
     inkscape:groupmode="layer">
    <path
       sodipodi:nodetypes="ccc"
       id="path2276"
       d="M 50.892799,3.2812959 L 50.892799,0.48658747 L 50.892799,3.2812959 z "
       style="fill:#ffffff;fill-opacity:0.75688076;fill-rule:nonzero;stroke:none;stroke-width:0.5;stroke-linecap:round;stroke-linejoin:round;stroke-miterlimit:4;stroke-dasharray:none;stroke-dashoffset:4;stroke-opacity:1" />
    <path
       sodipodi:type="arc"
       style="opacity:0.38139535;fill:url(#radialGradient3297);fill-opacity:1;fill-rule:nonzero;stroke:none;stroke-width:0;stroke-linecap:round;stroke-linejoin:round;stroke-miterlimit:4;stroke-dasharray:none;stroke-dashoffset:4;stroke-opacity:1"
       id="path3289"
       sodipodi:cx="63.912209"
       sodipodi:cy="115.70919"
       sodipodi:rx="63.912209"
       sodipodi:ry="12.641975"
       d="M 127.82442 115.70919 A 63.912209 12.641975 0 1 1  0,115.70919 A 63.912209 12.641975 0 1 1  127.82442 115.70919 z"
       transform="matrix(1,0,0,0.416667,-1,74.87151)" />
    <path
       style="fill:url(#linearGradient2410);fill-opacity:1;fill-rule:nonzero;stroke:url(#linearGradient2412);stroke-width:0.87124997;stroke-linecap:round;stroke-linejoin:round;stroke-miterlimit:4;stroke-dasharray:none;stroke-dashoffset:4;stroke-opacity:1"
       d="M 62.375,0.75 C 31.564704,1.724126 6.8125,27.08459 6.8125,58.125 C 6.8125002,89.781525 32.530973,115.53125 64.1875,115.53125 C 95.844023,115.53125 121.5625,89.780297 121.5625,58.125 C 121.5625,26.469704 95.842801,0.75 64.1875,0.75 C 63.741769,0.74999987 63.25925,0.7362912 62.71875,0.75 C 62.59774,0.75306923 62.495825,0.7461799 62.375,0.75 z M 62.5,4.625 C 62.612787,4.621436 62.699538,4.6278651 62.8125,4.625 C 63.222747,4.6145949 63.676706,4.6249999 64.1875,4.625 C 93.749628,4.6250001 117.6875,28.562877 117.6875,58.125 C 117.6875,87.687124 93.748395,111.65625 64.1875,111.65625 C 34.626602,111.65625 10.6875,87.685897 10.6875,58.125 C 10.6875,29.139907 33.739427,5.5338073 62.5,4.625 z "
       id="path2571" />
    <path
       style="fill:url(#radialGradient2407);fill-opacity:1;fill-rule:nonzero;stroke:none;stroke-width:0.99675924;stroke-linecap:round;stroke-linejoin:round;stroke-miterlimit:4;stroke-dasharray:none;stroke-dashoffset:4;stroke-opacity:1"
       d="M 62.786347,2.6884446 C 32.837881,3.4480385 8.748584,27.991783 8.748584,58.122232 C 8.748584,88.730942 33.602742,113.5851 64.211455,113.5851 C 94.820166,113.5851 119.64523,88.730942 119.64523,58.122232 C 119.64523,27.513521 94.820169,2.6884446 64.211455,2.6884446 C 63.733194,2.6884446 63.26172,2.6763876 62.786347,2.6884446 z M 63.48436,45.674351 C 63.722898,45.660731 63.969526,45.674351 64.211455,45.674351 C 71.093028,45.674351 76.659336,51.240658 76.659336,58.122232 C 76.659334,65.003802 71.093029,70.599197 64.211455,70.599197 C 57.329882,70.599197 51.73449,65.003804 51.73449,58.122232 C 51.734491,51.482588 56.937789,46.048128 63.48436,45.674351 z "
       id="path1410" />
    <path
       style="opacity:0.77049178;fill:#a0a0a0;fill-opacity:1;fill-rule:nonzero;stroke:none;stroke-width:0.83622044;stroke-linecap:round;stroke-linejoin:round;stroke-miterlimit:4;stroke-dasharray:none;stroke-dashoffset:4;stroke-opacity:1"
       d="M 63.745764,37.217106 C 52.39646,37.43299 43.257332,46.719149 43.257329,58.119771 C 43.257329,69.655578 52.592325,79.02244 64.12813,79.022436 C 75.663938,79.022436 85.030795,69.65558 85.030795,58.119771 C 85.030795,46.583963 75.663939,37.217105 64.12813,37.217106 C 63.992945,37.217106 63.880341,37.214546 63.745764,37.217106 z M 63.427126,42.920729 C 63.664793,42.915935 63.888515,42.952593 64.12813,42.952593 C 72.516686,42.952594 79.327172,49.731213 79.327172,58.119771 C 79.327172,66.508328 72.516688,73.318812 64.12813,73.318812 C 55.73957,73.318815 48.929089,66.508327 48.929089,58.119771 C 48.929086,50.026124 55.287613,43.408224 63.267807,42.952593 C 63.322327,42.94948 63.372281,42.921836 63.427126,42.920729 z "
       id="path1375" />
    <g
       id="g2410"
       transform="matrix(0.951608,0.307315,-0.307315,0.951608,20.25941,-18.61536)">
      <path
         id="path2391"
         d="M 38.835707,10.482836 L 59.803017,48.024438 C 65.795823,44.743339 73.30647,46.887431 76.64453,52.864169 C 79.98259,58.840904 77.884123,66.387223 71.9476,69.769101 L 92.91491,107.3107 C 119.5587,92.355909 129.06459,58.600557 114.15885,31.912097 C 99.253113,5.2236362 65.542477,-4.359212 38.835707,10.482836 z "
         style="opacity:0.0737705;fill:url(#radialGradient2349);fill-opacity:1;fill-rule:nonzero;stroke:none;stroke-width:0.99675924;stroke-linecap:round;stroke-linejoin:round;stroke-miterlimit:4;stroke-dasharray:none;stroke-dashoffset:4;stroke-opacity:1" />
      <path
         style="opacity:0.0737705;fill:url(#radialGradient2351);fill-opacity:1;fill-rule:nonzero;stroke:none;stroke-width:0.99675924;stroke-linecap:round;stroke-linejoin:round;stroke-miterlimit:4;stroke-dasharray:none;stroke-dashoffset:4;stroke-opacity:1"
         d="M 92.489293,107.54841 L 71.521983,70.006812 C 65.529173,73.287914 58.01853,71.143819 54.68047,65.167081 C 51.342411,59.190345 53.440875,51.644028 59.3774,48.262149 L 38.41009,10.720546 C 11.766295,25.675341 2.2604141,59.430693 17.166151,86.119153 C 32.071887,112.80761 65.782525,122.39046 92.489293,107.54841 z "
         id="path2406" />
    </g>
    <path
       style="opacity:0.26639344;fill:url(#linearGradient2401);fill-opacity:1;fill-rule:nonzero;stroke:none;stroke-width:0.99675924;stroke-linecap:round;stroke-linejoin:round;stroke-miterlimit:4;stroke-dasharray:none;stroke-dashoffset:4;stroke-opacity:1"
       d="M 62.788483,2.6765154 C 32.840018,3.4361094 8.750097,27.985014 8.750097,58.115463 C 8.750097,59.579932 8.784293,61.027013 8.895989,62.463044 C 9.297531,62.986629 9.766792,63.488408 10.238196,63.98032 C 14.446719,68.371941 23.333976,58.604136 52.867829,63.338396 C 52.135795,61.751783 51.729871,59.974896 51.729871,58.115463 C 51.729871,51.47582 56.942193,46.059245 63.488764,45.685467 C 63.7273,45.671847 63.976294,45.685467 64.218224,45.685467 C 71.099795,45.685467 76.64822,51.23389 76.64822,58.115463 C 76.648216,61.892263 74.980342,65.279661 72.329817,67.569263 C 100.10815,73.845631 113.10135,74.124403 119.13196,65.643489 C 119.13344,65.632582 119.15966,65.625219 119.16114,65.61431 C 119.49214,63.16452 119.65717,60.655418 119.65717,58.115463 C 119.65717,27.506754 94.826938,2.6765154 64.218224,2.6765154 C 63.739962,2.6765154 63.263855,2.6644584 62.788483,2.6765154 z "
       id="path2298" />
    <path
       style="fill:url(#linearGradient2396);fill-opacity:1;fill-rule:nonzero;stroke:url(#linearGradient2398);stroke-width:0.87124997;stroke-linecap:round;stroke-linejoin:round;stroke-miterlimit:4;stroke-dasharray:none;stroke-dashoffset:4;stroke-opacity:1"
       d="M 63.125,43.75 C 55.694944,44.311416 49.781251,50.563753 49.78125,58.125 C 49.781251,66.055808 56.25669,72.531249 64.1875,72.53125 C 72.11831,72.531251 78.593751,66.050353 78.59375,58.125 C 78.593751,50.199646 72.112852,43.75 64.1875,43.75 C 64.018219,43.750001 63.762669,43.727864 63.375,43.75 C 63.286473,43.755054 63.213103,43.743343 63.125,43.75 z M 63.34375,47.625 C 63.429725,47.618001 63.507205,47.629941 63.59375,47.625 C 63.683157,47.619896 63.872924,47.625 64.1875,47.625 C 70.025291,47.625001 74.71875,52.287207 74.71875,58.125 C 74.718752,63.96279 70.019839,68.65625 64.1875,68.65625 C 58.35516,68.65625 53.65625,63.957337 53.65625,58.125 C 53.656252,52.584563 57.927296,48.065942 63.34375,47.625 z "
       id="path2426" />
    <text
       xml:space="preserve"
       style="font-size:3px;font-style:normal;font-variant:normal;font-weight:normal;font-stretch:normal;text-align:start;line-height:125%;writing-mode:lr-tb;text-anchor:start;opacity:0.17213117;fill:#000000;fill-opacity:1;stroke:none;stroke-width:1px;stroke-linecap:butt;stroke-linejoin:miter;stroke-opacity:1;font-family:Bitstream Vera Sans"
       id="text2478"
       sodipodi:linespacing="125%"><textPath
         xlink:href="#path2482"
         id="textPath2484"><tspan
   id="tspan2480"
   style="font-size:3px;font-style:normal;font-variant:normal;font-weight:normal;font-stretch:normal;text-align:start;line-height:125%;writing-mode:lr-tb;text-anchor:start;font-family:Bitstream Vera Sans">oxygen nยบ 13                   kde 4 2007</tspan></textPath></text>
    <path
       sodipodi:type="arc"
       style="opacity:0.0737705;fill:none;fill-opacity:1;fill-rule:nonzero;stroke:black;stroke-width:0.37125;stroke-linecap:round;stroke-linejoin:round;stroke-miterlimit:4;stroke-dasharray:none;stroke-dashoffset:4;stroke-opacity:1"
       id="path2482"
       sodipodi:cx="-59.489868"
       sodipodi:cy="161.47501"
       sodipodi:rx="38.065865"
       sodipodi:ry="38.065865"
       d="M -21.424004 161.47501 A 38.065865 38.065865 0 1 1  -97.555733,161.47501 A 38.065865 38.065865 0 1 1  -21.424004 161.47501 z"
       transform="matrix(0.301066,0,0,0.301066,82.09454,9.445531)" />
    <g
       id="g2549"
       transform="matrix(0.999971,7.539817e-3,-7.539817e-3,0.999971,-0.49296,-8.999716e-2)"
       style="opacity:0.68032789">
      <g
         id="g2530">
        <path
           style="opacity:0.48360656;fill:url(#linearGradient2359);fill-opacity:1;fill-rule:nonzero;stroke:none;stroke-width:0.99675924;stroke-linecap:round;stroke-linejoin:round;stroke-miterlimit:4;stroke-dasharray:none;stroke-dashoffset:4;stroke-opacity:1"
           d="M 63.4375,2.6875 C 62.216778,2.7260835 61.012215,2.7898661 59.8125,2.90625 L 64.40625,45.6875 C 64.431781,45.685886 64.443177,45.68896 64.46875,45.6875 C 64.707288,45.67388 64.976821,45.6875 65.21875,45.6875 C 69.627257,45.6875 73.476216,47.955074 75.6875,51.40625 L 111.15625,27.09375 C 101.18999,12.367851 84.333867,2.6875 65.21875,2.6875 C 64.740488,2.6875 64.256623,2.675443 63.78125,2.6875 C 63.664264,2.6904672 63.554306,2.6838081 63.4375,2.6875 z "
           id="path2499" />
        <path
           style="opacity:0.48360656;fill:url(#linearGradient2361);fill-opacity:1;fill-rule:nonzero;stroke:none;stroke-width:0.99675924;stroke-linecap:round;stroke-linejoin:round;stroke-miterlimit:4;stroke-dasharray:none;stroke-dashoffset:4;stroke-opacity:1"
           d="M 63.21875,2.6875 C 62.990235,2.6953451 62.758753,2.7088321 62.53125,2.71875 C 63.15624,15.384522 64.03264,32.985837 64.5625,45.6875 C 64.7772,45.680983 65.007062,45.6875 65.21875,45.6875 C 69.627257,45.6875 73.476216,47.955074 75.6875,51.40625 L 85.53125,44.65625 C 93.150564,38.38778 101.81483,31.292617 109.59375,24.875 C 99.480707,11.394662 83.363177,2.6875 65.21875,2.6875 C 64.740488,2.6875 64.256623,2.675443 63.78125,2.6875 C 63.664264,2.6904672 63.554306,2.6838081 63.4375,2.6875 C 63.361205,2.6899115 63.294922,2.684885 63.21875,2.6875 z "
           id="path2520" />
        <path
           style="opacity:0.48360656;fill:url(#linearGradient2363);fill-opacity:1;fill-rule:nonzero;stroke:none;stroke-width:0.99675924;stroke-linecap:round;stroke-linejoin:round;stroke-miterlimit:4;stroke-dasharray:none;stroke-dashoffset:4;stroke-opacity:1"
           d="M 66.96875,2.71875 L 66.4375,45.75 C 70.249044,46.118933 73.54589,48.194895 75.5625,51.21875 L 106.96875,21.625 C 97.1647,10.420682 82.903548,3.2138183 66.96875,2.71875 z "
           id="path2525" />
      </g>
      <g
         transform="matrix(-0.99779,6.64481e-2,-6.64481e-2,-0.99779,134.6643,111.1093)"
         id="g2535">
        <path
           id="path2537"
           d="M 63.4375,2.6875 C 62.216778,2.7260835 61.012215,2.7898661 59.8125,2.90625 L 64.40625,45.6875 C 64.431781,45.685886 64.443177,45.68896 64.46875,45.6875 C 64.707288,45.67388 64.976821,45.6875 65.21875,45.6875 C 69.627257,45.6875 73.476216,47.955074 75.6875,51.40625 L 111.15625,27.09375 C 101.18999,12.367851 84.333867,2.6875 65.21875,2.6875 C 64.740488,2.6875 64.256623,2.675443 63.78125,2.6875 C 63.664264,2.6904672 63.554306,2.6838081 63.4375,2.6875 z "
           style="opacity:0.48360656;fill:url(#linearGradient2365);fill-opacity:1;fill-rule:nonzero;stroke:none;stroke-width:0.99675924;stroke-linecap:round;stroke-linejoin:round;stroke-miterlimit:4;stroke-dasharray:none;stroke-dashoffset:4;stroke-opacity:1" />
        <path
           id="path2539"
           d="M 63.21875,2.6875 C 62.990235,2.6953451 62.758753,2.7088321 62.53125,2.71875 C 63.15624,15.384522 64.03264,32.985837 64.5625,45.6875 C 64.7772,45.680983 65.007062,45.6875 65.21875,45.6875 C 69.627257,45.6875 73.476216,47.955074 75.6875,51.40625 L 85.53125,44.65625 C 93.150564,38.38778 101.81483,31.292617 109.59375,24.875 C 99.480707,11.394662 83.363177,2.6875 65.21875,2.6875 C 64.740488,2.6875 64.256623,2.675443 63.78125,2.6875 C 63.664264,2.6904672 63.554306,2.6838081 63.4375,2.6875 C 63.361205,2.6899115 63.294922,2.684885 63.21875,2.6875 z "
           style="opacity:0.48360656;fill:url(#linearGradient2367);fill-opacity:1;fill-rule:nonzero;stroke:none;stroke-width:0.99675924;stroke-linecap:round;stroke-linejoin:round;stroke-miterlimit:4;stroke-dasharray:none;stroke-dashoffset:4;stroke-opacity:1" />
        <path
           id="path2541"
           d="M 66.96875,2.71875 L 66.4375,45.75 C 70.249044,46.118933 73.54589,48.194895 75.5625,51.21875 L 106.96875,21.625 C 97.1647,10.420682 82.903548,3.2138183 66.96875,2.71875 z "
           style="opacity:0.48360656;fill:url(#linearGradient2370);fill-opacity:1;fill-rule:nonzero;stroke:none;stroke-width:0.99675924;stroke-linecap:round;stroke-linejoin:round;stroke-miterlimit:4;stroke-dasharray:none;stroke-dashoffset:4;stroke-opacity:1" />
      </g>
    </g>
    <path
       id="path2358"
       d="M 62.438342,2.6765154 C 32.652732,3.6179935 8.750097,28.102711 8.750097,58.115463 C 8.750097,59.579932 8.784293,61.027013 8.895989,62.463044 C 9.297531,62.986629 9.766792,63.488408 10.238196,63.98032 C 13.370055,67.248436 71.994249,19.506576 95.468283,12.305385 C 86.572367,6.2255582 75.80199,2.6765154 64.218224,2.6765154 C 63.739962,2.6765154 63.263855,2.6644584 62.788483,2.6765154 C 62.671496,2.6794826 62.555148,2.6728233 62.438342,2.6765154 z M 103.02548,18.549561 C 85.962541,26.944561 80.298089,61.344669 86.261137,65.247376 C 95.751376,71.458564 113.10135,74.124403 119.13196,65.643489 C 119.13522,65.641177 119.15787,65.616622 119.16114,65.61431 C 119.49214,63.16452 119.65717,60.655418 119.65717,58.115463 C 119.65717,42.616814 113.2845,28.611821 103.02548,18.549561 z "
       style="opacity:0.51639344;fill:url(#linearGradient2380);fill-opacity:1;fill-rule:nonzero;stroke:none;stroke-width:0.99675924;stroke-linecap:round;stroke-linejoin:round;stroke-miterlimit:4;stroke-dasharray:none;stroke-dashoffset:4;stroke-opacity:1"
       sodipodi:nodetypes="cscscssccscssc" />
    <path
       style="opacity:0.82377044;fill:url(#linearGradient2377);fill-opacity:1;fill-rule:nonzero;stroke:none;stroke-width:0.99675924;stroke-linecap:round;stroke-linejoin:round;stroke-miterlimit:4;stroke-dasharray:none;stroke-dashoffset:4;stroke-opacity:1"
       d="M 62.438342,2.6765154 C 32.652732,3.6179935 8.750097,28.102711 8.750097,58.115463 C 8.750097,59.579932 8.784293,61.027013 8.895989,62.463044 C 9.297531,62.986629 9.766792,63.488408 10.238196,63.98032 C 13.370055,67.248436 19.094893,62.657319 33.989408,62.054546 C 49.794348,41.834289 71.994249,19.506576 95.468283,12.305385 C 86.572367,6.2255582 75.80199,2.6765154 64.218224,2.6765154 C 63.739962,2.6765154 63.263855,2.6644584 62.788483,2.6765154 C 62.671496,2.6794826 62.555148,2.6728233 62.438342,2.6765154 z M 103.02548,18.549561 C 85.962541,26.944561 78.099799,37.930139 73.467775,49.799621 C 75.445738,51.999729 76.64822,54.913381 76.64822,58.115463 C 76.648216,61.892263 74.980342,65.279661 72.329817,67.569263 C 100.10815,73.845631 113.10135,74.124403 119.13196,65.643489 C 119.13522,65.641177 119.15787,65.616622 119.16114,65.61431 C 119.49214,63.16452 119.65717,60.655418 119.65717,58.115463 C 119.65717,42.616814 113.2845,28.611821 103.02548,18.549561 z "
       id="path2353" />
    <g
       id="g3982"
       transform="translate(-4.598378,-0.919676)">
      <path
         style="fill:black;fill-opacity:1"
         d="M 112.72511,15.862084 C 109.51399,12.140138 107.18371,8.1456355 105.9924,5.9128295 L 105.9924,1.4219473 L 104.18739,1.4219473 L 104.18739,59.337724 C 101.23437,56.503847 95.335581,56.467747 90.014392,59.511005 C 83.958562,62.976638 80.953207,69.117306 83.305142,73.229135 C 85.657082,77.340963 92.472822,77.860808 98.532261,74.395176 C 102.85528,71.924107 105.60974,68.088447 105.98518,64.597543 L 105.9924,64.597543 L 105.9924,64.516318 C 106.04114,64.016328 106.04475,63.518143 105.9924,63.039813 L 105.9924,20.748264 C 127.71578,29.625338 113.62762,53.316187 113.62762,53.316187 C 129.67422,37.269586 115.67811,19.289811 112.72511,15.862084 z "
         id="path2025" />
      <path
         style="fill:url(#linearGradient3987);fill-opacity:1"
         d="M 104.20194,59.338223 C 103.68006,58.8374 103.04463,58.412729 102.35819,58.088223 C 96.111601,56.599972 88.345531,67.518887 83.42069,73.431973 C 85.532993,76.816328 90.790197,77.604542 96.014441,75.588223 C 97.607231,70.219708 94.264091,61.632992 104.20194,59.338223 z "
         id="path3042"
         sodipodi:nodetypes="ccccc" />
      <path
         sodipodi:nodetypes="ccssccccc"
         id="path3940"
         d="M 104.18739,59.337724 C 101.23437,56.503847 95.335581,56.467747 90.014392,59.511005 C 83.958562,62.976638 80.953207,69.117306 83.305142,73.229135 C 85.657082,77.340963 92.472822,77.860808 98.532261,74.395176 C 102.85528,71.924107 105.60974,68.088447 105.98518,64.597543 L 105.9924,64.597543 L 105.9924,64.516318 C 106.04114,64.016328 106.04475,63.518143 105.9924,63.039813 L 104.18739,59.337724 z "
         style="opacity:0.38114756;fill:url(#radialGradient3989);fill-opacity:1" />
    </g>
  </g>
</svg>
