<?xml version="1.0" encoding="UTF-8" standalone="no"?>
<!-- Created with Inkscape (http://www.inkscape.org/) -->
<svg
   xmlns:dc="http://purl.org/dc/elements/1.1/"
   xmlns:cc="http://web.resource.org/cc/"
   xmlns:rdf="http://www.w3.org/1999/02/22-rdf-syntax-ns#"
   xmlns:svg="http://www.w3.org/2000/svg"
   xmlns="http://www.w3.org/2000/svg"
   xmlns:xlink="http://www.w3.org/1999/xlink"
   xmlns:sodipodi="http://sodipodi.sourceforge.net/DTD/sodipodi-0.dtd"
   xmlns:inkscape="http://www.inkscape.org/namespaces/inkscape"
   width="128"
   height="128"
   id="svg1307"
   sodipodi:version="0.32"
   inkscape:version="0.44"
   version="1.0"
   sodipodi:docbase="/home/pinheiro/artwork/Oxygen/theme/svg/actions"
   sodipodi:docname="cdsmall_kscd.svg">
  <defs
     id="defs1309">
    <linearGradient
       inkscape:collect="always"
       id="linearGradient3942">
      <stop
         style="stop-color:white;stop-opacity:1;"
         offset="0"
         id="stop3944" />
      <stop
         style="stop-color:white;stop-opacity:0;"
         offset="1"
         id="stop3946" />
    </linearGradient>
    <linearGradient
       inkscape:collect="always"
       id="linearGradient3932">
      <stop
         style="stop-color:white;stop-opacity:1;"
         offset="0"
         id="stop3934" />
      <stop
         style="stop-color:white;stop-opacity:0;"
         offset="1"
         id="stop3936" />
    </linearGradient>
    <linearGradient
       id="linearGradient2322">
      <stop
         id="stop2324"
         offset="0"
         style="stop-color:#ffffff;stop-opacity:1;" />
      <stop
         id="stop2326"
         offset="1"
         style="stop-color:#999999;stop-opacity:1;" />
    </linearGradient>
    <linearGradient
       inkscape:collect="always"
       id="linearGradient2512">
      <stop
         style="stop-color:#ffffff;stop-opacity:1;"
         offset="0"
         id="stop2514" />
      <stop
         style="stop-color:#ffffff;stop-opacity:0;"
         offset="1"
         id="stop2516" />
    </linearGradient>
    <linearGradient
       inkscape:collect="always"
       id="linearGradient2430">
      <stop
         style="stop-color:#000000;stop-opacity:1;"
         offset="0"
         id="stop2432" />
      <stop
         style="stop-color:#000000;stop-opacity:0;"
         offset="1"
         id="stop2434" />
    </linearGradient>
    <linearGradient
       id="linearGradient2369">
      <stop
         style="stop-color:#ffffff;stop-opacity:0;"
         offset="0"
         id="stop2371" />
      <stop
         id="stop2385"
         offset="0.29734492"
         style="stop-color:#ffffff;stop-opacity:0;" />
      <stop
         id="stop2383"
         offset="0.4831855"
         style="stop-color:#ff6dff;stop-opacity:1;" />
      <stop
         id="stop2377"
         offset="0.50018114"
         style="stop-color:#ff0000;stop-opacity:1;" />
      <stop
         style="stop-color:#00ff00;stop-opacity:1;"
         offset="0.51648355"
         id="stop2381" />
      <stop
         style="stop-color:#0000ff;stop-opacity:1;"
         offset="0.53395635"
         id="stop2379" />
      <stop
         id="stop2387"
         offset="0.55754495"
         style="stop-color:#00ffff;stop-opacity:1;" />
      <stop
         style="stop-color:#ffffff;stop-opacity:0;"
         offset="0.55754495"
         id="stop2389" />
      <stop
         style="stop-color:#000000;stop-opacity:0;"
         offset="1"
         id="stop2373" />
    </linearGradient>
    <linearGradient
       id="linearGradient3325">
      <stop
         id="stop3327"
         offset="0"
         style="stop-color:#ffffff;stop-opacity:1;" />
      <stop
         id="stop3329"
         offset="1"
         style="stop-color:#ffffff;stop-opacity:0;" />
    </linearGradient>
    <linearGradient
       inkscape:collect="always"
       id="linearGradient3291">
      <stop
         style="stop-color:#000000;stop-opacity:1;"
         offset="0"
         id="stop3293" />
      <stop
         style="stop-color:#000000;stop-opacity:0;"
         offset="1"
         id="stop3295" />
    </linearGradient>
    <linearGradient
       id="linearGradient3225">
      <stop
         style="stop-color:#ffffff;stop-opacity:1;"
         offset="0"
         id="stop3227" />
      <stop
         style="stop-color:#aca386;stop-opacity:1;"
         offset="1"
         id="stop3229" />
    </linearGradient>
    <radialGradient
       inkscape:collect="always"
       xlink:href="#linearGradient3291"
       id="radialGradient3297"
       cx="63.912209"
       cy="115.70919"
       fx="63.912209"
       fy="115.7093"
       r="63.912209"
       gradientTransform="matrix(1,0,0,0.197802,0,92.82166)"
       gradientUnits="userSpaceOnUse" />
    <radialGradient
       inkscape:collect="always"
       xlink:href="#linearGradient2369"
       id="radialGradient2349"
       gradientUnits="userSpaceOnUse"
       gradientTransform="matrix(0.946086,-1.58605,1.489114,0.888263,-90.73811,134.2833)"
       spreadMethod="repeat"
       cx="86.040627"
       cy="68.49028"
       fx="80.437614"
       fy="103.6857"
       r="59.778126" />
    <radialGradient
       inkscape:collect="always"
       xlink:href="#linearGradient2369"
       id="radialGradient2351"
       gradientUnits="userSpaceOnUse"
       gradientTransform="matrix(-0.946086,1.58605,-1.489114,-0.888263,222.0631,-16.25204)"
       spreadMethod="repeat"
       cx="86.040627"
       cy="68.49028"
       fx="80.437614"
       fy="103.6857"
       r="59.778126" />
    <linearGradient
       inkscape:collect="always"
       xlink:href="#linearGradient2512"
       id="linearGradient2359"
       gradientUnits="userSpaceOnUse"
       x1="102.0625"
       y1="-2.7058048"
       x2="59.8125"
       y2="75.044197" />
    <linearGradient
       inkscape:collect="always"
       xlink:href="#linearGradient2512"
       id="linearGradient2361"
       gradientUnits="userSpaceOnUse"
       x1="102.0625"
       y1="-2.7058048"
       x2="59.8125"
       y2="75.044197" />
    <linearGradient
       inkscape:collect="always"
       xlink:href="#linearGradient2512"
       id="linearGradient2363"
       gradientUnits="userSpaceOnUse"
       x1="102.0625"
       y1="-2.7058048"
       x2="59.8125"
       y2="75.044197" />
    <linearGradient
       inkscape:collect="always"
       xlink:href="#linearGradient2512"
       id="linearGradient2365"
       gradientUnits="userSpaceOnUse"
       x1="102.0625"
       y1="-2.7058048"
       x2="59.8125"
       y2="75.044197" />
    <linearGradient
       inkscape:collect="always"
       xlink:href="#linearGradient2512"
       id="linearGradient2367"
       gradientUnits="userSpaceOnUse"
       x1="102.0625"
       y1="-2.7058048"
       x2="59.8125"
       y2="75.044197" />
    <linearGradient
       inkscape:collect="always"
       xlink:href="#linearGradient2512"
       id="linearGradient2370"
       gradientUnits="userSpaceOnUse"
       x1="102.0625"
       y1="-2.7058048"
       x2="59.8125"
       y2="75.044197" />
    <linearGradient
       inkscape:collect="always"
       xlink:href="#linearGradient3325"
       id="linearGradient2377"
       gradientUnits="userSpaceOnUse"
       gradientTransform="matrix(0.933709,0,0,0.933709,2.972776,2.063769)"
       x1="95.239143"
       y1="-52.086468"
       x2="53.753468"
       y2="102.74017" />
    <linearGradient
       inkscape:collect="always"
       xlink:href="#linearGradient3325"
       id="linearGradient2380"
       gradientUnits="userSpaceOnUse"
       gradientTransform="matrix(0.933709,0,0,0.933709,2.972776,2.063769)"
       x1="95.239143"
       y1="-52.086468"
       x2="53.753468"
       y2="102.74017" />
    <linearGradient
       inkscape:collect="always"
       xlink:href="#linearGradient3225"
       id="linearGradient2396"
       gradientUnits="userSpaceOnUse"
       x1="-16.63065"
       y1="-37.966259"
       x2="61.224335"
       y2="406.26038"
       gradientTransform="translate(-1,0)" />
    <linearGradient
       inkscape:collect="always"
       xlink:href="#linearGradient2430"
       id="linearGradient2398"
       gradientUnits="userSpaceOnUse"
       gradientTransform="translate(-1.581855,-0.880546)"
       x1="73.640358"
       y1="232.70004"
       x2="72.251587"
       y2="-64.937431" />
    <linearGradient
       inkscape:collect="always"
       xlink:href="#linearGradient3325"
       id="linearGradient2401"
       gradientUnits="userSpaceOnUse"
       gradientTransform="matrix(0.933709,0,0,0.933709,2.972776,2.063769)"
       x1="95.239143"
       y1="-52.086468"
       x2="53.753468"
       y2="102.74017" />
    <radialGradient
       inkscape:collect="always"
       xlink:href="#linearGradient2322"
       id="radialGradient2407"
       gradientUnits="userSpaceOnUse"
       gradientTransform="matrix(1.076441,-8.385946e-8,1.399714e-7,1.796708,-6.59597,-49.4106)"
       cx="65.765625"
       cy="59.856506"
       fx="65.765625"
       fy="95.100655"
       r="59.778126" />
    <linearGradient
       inkscape:collect="always"
       xlink:href="#linearGradient3225"
       id="linearGradient2410"
       gradientUnits="userSpaceOnUse"
       x1="76.869347"
       y1="73.033737"
       x2="61.224335"
       y2="406.26038"
       gradientTransform="translate(-1,0)" />
    <linearGradient
       inkscape:collect="always"
       xlink:href="#linearGradient2430"
       id="linearGradient2412"
       gradientUnits="userSpaceOnUse"
       gradientTransform="translate(-1.581855,-0.880546)"
       x1="73.640358"
       y1="232.70004"
       x2="72.251587"
       y2="-64.937431" />
    <radialGradient
       inkscape:collect="always"
       xlink:href="#linearGradient3942"
       id="radialGradient3960"
       gradientUnits="userSpaceOnUse"
       gradientTransform="matrix(0.826555,-0.332283,0.133996,0.333315,9.033941,76.02622)"
       cx="90.645248"
       cy="76.943771"
       fx="85.750229"
       fy="81.143517"
       r="11.762947" />
    <linearGradient
       inkscape:collect="always"
       xlink:href="#linearGradient3932"
       id="linearGradient3962"
       gradientUnits="userSpaceOnUse"
       gradientTransform="translate(4.045691,1.494473)"
       x1="103.51649"
       y1="43.015373"
       x2="91.706108"
       y2="66.926941" />
    <linearGradient
       inkscape:collect="always"
       xlink:href="#linearGradient3932"
       id="linearGradient3987"
       gradientUnits="userSpaceOnUse"
       gradientTransform="translate(4.045691,1.494473)"
       x1="103.51649"
       y1="43.015373"
       x2="91.706108"
       y2="66.926941" />
    <radialGradient
       inkscape:collect="always"
       xlink:href="#linearGradient3942"
       id="radialGradient3989"
       gradientUnits="userSpaceOnUse"
       gradientTransform="matrix(0.826555,-0.332283,0.133996,0.333315,9.033941,76.02622)"
       cx="90.645248"
       cy="76.943771"
       fx="85.750229"
       fy="81.143517"
       r="11.762947" />
  </defs>
  <sodipodi:namedview
     id="base"
     pagecolor="#ffffff"
     bordercolor="#666666"
     borderopacity="1.0"
     inkscape:pageopacity="0.0"
     inkscape:pageshadow="2"
     inkscape:zoom="1.08734"
     inkscape:cx="255.61859"
     inkscape:cy="51.071415"
     inkscape:current-layer="layer1"
     showgrid="false"
     inkscape:document-units="px"
     inkscape:grid-bbox="true"
     guidetolerance="0.1px"
     showguides="true"
     inkscape:guide-bbox="true"
     inkscape:window-width="1106"
     inkscape:window-height="958"
     inkscape:window-x="779"
     inkscape:window-y="103">
    <sodipodi:guide
       orientation="horizontal"
       position="32.487481"
       id="guide2204" />
  </sodipodi:namedview>
  <metadata
     id="metadata1312">
    <rdf:RDF>
      <cc:Work
         rdf:about="">
        <dc:format>image/svg+xml</dc:format>
        <dc:type
           rdf:resource="http://purl.org/dc/dcmitype/StillImage" />
        <cc:license
           rdf:resource="http://creativecommons.org/licenses/GPL/2.0/" />
        <dc:contributor>
          <cc:Agent>
            <dc:title>Oxygen team</dc:title>
          </cc:Agent>
        </dc:contributor>
      </cc:Work>
      <cc:License
         rdf:about="http://creativecommons.org/licenses/LGPL/2.1/">
        <cc:permits
           rdf:resource="http://web.resource.org/cc/Reproduction" />
        <cc:permits
           rdf:resource="http://web.resource.org/cc/Distribution" />
        <cc:requires
           rdf:resource="http://web.resource.org/cc/Notice" />
        <cc:permits
           rdf:resource="http://web.resource.org/cc/DerivativeWorks" />
        <cc:requires
           rdf:resource="http://web.resource.org/cc/ShareAlike" />
        <cc:requires
           rdf:resource="http://web.resource.org/cc/SourceCode" />
      </cc:License>
    </rdf:RDF>
  </metadata>
  <g
     id="layer1"
     inkscape:label="Layer 1"
     inkscape:groupmode="layer">
    <path
       sodipodi:nodetypes="ccc"
       id="path2276"
       d="M 50.892799,3.2812959 L 50.892799,0.48658747 L 50.892799,3.2812959 z "
       style="fill:#ffffff;fill-opacity:0.75688076;fill-rule:nonzero;stroke:none;stroke-width:0.5;stroke-linecap:round;stroke-linejoin:round;stroke-miterlimit:4;stroke-dasharray:none;stroke-dashoffset:4;stroke-opacity:1" />
    <path
       sodipodi:type="arc"
       style="opacity:0.38139535;fill:url(#radialGradient3297);fill-opacity:1;fill-rule:nonzero;stroke:none;stroke-width:0;stroke-linecap:round;stroke-linejoin:round;stroke-miterlimit:4;stroke-dasharray:none;stroke-dashoffset:4;stroke-opacity:1"
       id="path3289"
       sodipodi:cx="63.912209"
       sodipodi:cy="115.70919"
       sodipodi:rx="63.912209"
       sodipodi:ry="12.641975"
       d="M 127.82442 115.70919 A 63.912209 12.641975 0 1 1  0,115.70919 A 63.912209 12.641975 0 1 1  127.82442 115.70919 z"
       transform="matrix(1,0,0,0.416667,-1,74.87151)" />
    <path
       style="fill:url(#linearGradient2410);fill-opacity:1;fill-rule:nonzero;stroke:url(#linearGradient2412);stroke-width:0.87124997;stroke-linecap:round;stroke-linejoin:round;stroke-miterlimit:4;stroke-dasharray:none;stroke-dashoffset:4;stroke-opacity:1"
       d="M 62.375,0.75 C 31.564704,1.724126 6.8125,27.08459 6.8125,58.125 C 6.8125002,89.781525 32.530973,115.53125 64.1875,115.53125 C 95.844023,115.53125 121.5625,89.780297 121.5625,58.125 C 121.5625,26.469704 95.842801,0.75 64.1875,0.75 C 63.741769,0.74999987 63.25925,0.7362912 62.71875,0.75 C 62.59774,0.75306923 62.495825,0.7461799 62.375,0.75 z M 62.5,4.625 C 62.612787,4.621436 62.699538,4.6278651 62.8125,4.625 C 63.222747,4.6145949 63.676706,4.6249999 64.1875,4.625 C 93.749628,4.6250001 117.6875,28.562877 117.6875,58.125 C 117.6875,87.687124 93.748395,111.65625 64.1875,111.65625 C 34.626602,111.65625 10.6875,87.685897 10.6875,58.125 C 10.6875,29.139907 33.739427,5.5338073 62.5,4.625 z "
       id="path2571" />
    <path
       style="fill:url(#radialGradient2407);fill-opacity:1;fill-rule:nonzero;stroke:none;stroke-width:0.99675924;stroke-linecap:round;stroke-linejoin:round;stroke-miterlimit:4;stroke-dasharray:none;stroke-dashoffset:4;stroke-opacity:1"
       d="M 62.786347,2.6884446 C 32.837881,3.4480385 8.748584,27.991783 8.748584,58.122232 C 8.748584,88.730942 33.602742,113.5851 64.211455,113.5851 C 94.820166,113.5851 119.64523,88.730942 119.64523,58.122232 C 119.64523,27.513521 94.820169,2.6884446 64.211455,2.6884446 C 63.733194,2.6884446 63.26172,2.6763876 62.786347,2.6884446 z M 63.48436,45.674351 C 63.722898,45.660731 63.969526,45.674351 64.211455,45.674351 C 71.093028,45.674351 76.659336,51.240658 76.659336,58.122232 C 76.659334,65.003802 71.093029,70.599197 64.211455,70.599197 C 57.329882,70.599197 51.73449,65.003804 51.73449,58.122232 C 51.734491,51.482588 56.937789,46.048128 63.48436,45.674351 z "
       id="path1410" />
    <path
       style="opacity:0.77049178;fill:#a0a0a0;fill-opacity:1;fill-rule:nonzero;stroke:none;stroke-width:0.83622044;stroke-linecap:round;stroke-linejoin:round;stroke-miterlimit:4;stroke-dasharray:none;stroke-dashoffset:4;stroke-opacity:1"
       d="M 63.745764,37.217106 C 52.39646,37.43299 43.257332,46.719149 43.257329,58.119771 C 43.257329,69.655578 52.592325,79.02244 64.12813,79.022436 C 75.663938,79.022436 85.030795,69.65558 85.030795,58.119771 C 85.030795,46.583963 75.663939,37.217105 64.12813,37.217106 C 63.992945,37.217106 63.880341,37.214546 63.745764,37.217106 z M 63.427126,42.920729 C 63.664793,42.915935 63.888515,42.952593 64.12813,42.952593 C 72.516686,42.952594 79.327172,49.731213 79.327172,58.119771 C 79.327172,66.508328 72.516688,73.318812 64.12813,73.318812 C 55.73957,73.318815 48.929089,66.508327 48.929089,58.119771 C 48.929086,50.026124 55.287613,43.408224 63.267807,42.952593 C 63.322327,42.94948 63.372281,42.921836 63.427126,42.920729 z "
       id="path1375" />
    <g
       id="g2410"
       transform="matrix(0.951608,0.307315,-0.307315,0.951608,20.25941,-18.61536)">
      <path
         id="path2391"
         d="M 38.835707,10.482836 L 59.803017,48.024438 C 65.795823,44.743339 73.30647,46.887431 76.64453,52.864169 C 79.98259,58.840904 77.884123,66.387223 71.9476,69.769101 L 92.91491,107.3107 C 119.5587,92.355909 129.06459,58.600557 114.15885,31.912097 C 99.253113,5.2236362 65.542477,-4.359212 38.835707,10.482836 z "
         style="opacity:0.0737705;fill:url(#radialGradient2349);fill-opacity:1;fill-rule:nonzero;stroke:none;stroke-width:0.99675924;stroke-linecap:round;stroke-linejoin:round;stroke-miterlimit:4;stroke-dasharray:none;stroke-dashoffset:4;stroke-opacity:1" />
      <path
         style="opacity:0.0737705;fill:url(#radialGradient2351);fill-opacity:1;fill-rule:nonzero;stroke:none;stroke-width:0.99675924;stroke-linecap:round;stroke-linejoin:round;stroke-miterlimit:4;stroke-dasharray:none;stroke-dashoffset:4;stroke-opacity:1"
         d="M 92.489293,107.54841 L 71.521983,70.006812 C 65.529173,73.287914 58.01853,71.143819 54.68047,65.167081 C 51.342411,59.190345 53.440875,51.644028 59.3774,48.262149 L 38.41009,10.720546 C 11.766295,25.675341 2.2604141,59.430693 17.166151,86.119153 C 32.071887,112.80761 65.782525,122.39046 92.489293,107.54841 z "
         id="path2406" />
    </g>
    <path
       style="opacity:0.26639344;fill:url(#linearGradient2401);fill-opacity:1;fill-rule:nonzero;stroke:none;stroke-width:0.99675924;stroke-linecap:round;stroke-linejoin:round;stroke-miterlimit:4;stroke-dasharray:none;stroke-dashoffset:4;stroke-opacity:1"
       d="M 62.788483,2.6765154 C 32.840018,3.4361094 8.750097,27.985014 8.750097,58.115463 C 8.750097,59.579932 8.784293,61.027013 8.895989,62.463044 C 9.297531,62.986629 9.766792,63.488408 10.238196,63.98032 C 14.446719,68.371941 23.333976,58.604136 52.867829,63.338396 C 52.135795,61.751783 51.729871,59.974896 51.729871,58.115463 C 51.729871,51.47582 56.942193,46.059245 63.488764,45.685467 C 63.7273,45.671847 63.976294,45.685467 64.218224,45.685467 C 71.099795,45.685467 76.64822,51.23389 76.64822,58.115463 C 76.648216,61.892263 74.980342,65.279661 72.329817,67.569263 C 100.10815,73.845631 113.10135,74.124403 119.13196,65.643489 C 119.13344,65.632582 119.15966,65.625219 119.16114,65.61431 C 119.49214,63.16452 119.65717,60.655418 119.65717,58.115463 C 119.65717,27.506754 94.826938,2.6765154 64.218224,2.6765154 C 63.739962,2.6765154 63.263855,2.6644584 62.788483,2.6765154 z "
       id="path2298" />
    <path
       style="fill:url(#linearGradient2396);fill-opacity:1;fill-rule:nonzero;stroke:url(#linearGradient2398);stroke-width:0.87124997;stroke-linecap:round;stroke-linejoin:round;stroke-miterlimit:4;stroke-dasharray:none;stroke-dashoffset:4;stroke-opacity:1"
       d="M 63.125,43.75 C 55.694944,44.311416 49.781251,50.563753 49.78125,58.125 C 49.781251,66.055808 56.25669,72.531249 64.1875,72.53125 C 72.11831,72.531251 78.593751,66.050353 78.59375,58.125 C 78.593751,50.199646 72.112852,43.75 64.1875,43.75 C 64.018219,43.750001 63.762669,43.727864 63.375,43.75 C 63.286473,43.755054 63.213103,43.743343 63.125,43.75 z M 63.34375,47.625 C 63.429725,47.618001 63.507205,47.629941 63.59375,47.625 C 63.683157,47.619896 63.872924,47.625 64.1875,47.625 C 70.025291,47.625001 74.71875,52.287207 74.71875,58.125 C 74.718752,63.96279 70.019839,68.65625 64.1875,68.65625 C 58.35516,68.65625 53.65625,63.957337 53.65625,58.125 C 53.656252,52.584563 57.927296,48.065942 63.34375,47.625 z "
       id="path2426" />
    <path
       style="font-size:3px;font-style:normal;font-variant:normal;font-weight:normal;font-stretch:normal;text-align:start;line-height:125%;writing-mode:lr-tb;text-anchor:start;opacity:0.17213117;fill:black;fill-opacity:1;stroke:none;stroke-width:1px;stroke-linecap:butt;stroke-linejoin:miter;stroke-opacity:1;font-family:Bitstream Vera Sans"
       d="M 77.055908,59.08667 C 77.066753,58.942545 77.018847,58.824359 76.912189,58.732111 C 76.806503,58.639934 76.655793,58.586481 76.460058,58.57175 C 76.264322,58.557019 76.106859,58.58679 75.987668,58.661062 C 75.869377,58.736381 75.804771,58.846589 75.793852,58.991688 C 75.783078,59.134836 75.831021,59.252536 75.93768,59.344786 C 76.044339,59.437033 76.195049,59.490487 76.389811,59.505146 C 76.583598,59.519729 76.740124,59.489398 76.85939,59.414153 C 76.979627,59.338979 77.045133,59.229818 77.055908,59.08667 M 77.283779,59.103819 C 77.266188,59.337532 77.176416,59.515378 77.014463,59.637358 C 76.852507,59.759335 76.637144,59.810211 76.368374,59.789985 C 76.100576,59.769829 75.895254,59.687293 75.752407,59.542376 C 75.610533,59.39753 75.548391,59.208251 75.56598,58.974538 C 75.583643,58.739849 75.673452,58.561516 75.835406,58.439538 C 75.998261,58.318606 76.213587,58.268218 76.481385,58.288372 C 76.750155,58.3086 76.955514,58.390649 77.097462,58.53452 C 77.239334,58.679364 77.30144,58.86913 77.283779,59.103819 M 76.772514,61.776498 L 76.129474,61.01768 L 75.16764,61.434482 L 75.239711,61.124889 L 75.975729,60.80592 L 75.456254,60.194683 L 75.528325,59.88509 L 76.219896,60.700326 L 77.113936,60.309855 L 77.041866,60.619448 L 76.373973,60.91066 L 76.844585,61.466905 L 76.772514,61.776498 M 74.640711,62.371138 C 74.488272,62.227222 74.398009,62.110594 74.369919,62.021252 C 74.341832,61.93191 74.350514,61.83112 74.395968,61.718881 L 74.476795,61.519294 L 74.685886,61.603971 L 74.626502,61.750606 C 74.598644,61.819397 74.593309,61.8794 74.610499,61.930613 C 74.627689,61.981825 74.687582,62.055073 74.790177,62.150356 L 74.886082,62.241348 L 76.631383,62.232228 L 76.524163,62.496986 L 75.142343,62.490525 L 76.139269,63.447398 L 76.032049,63.712155 L 74.640711,62.371138 M 74.490656,64.784981 C 74.657589,64.886372 74.808,64.930312 74.941892,64.916803 C 75.075275,64.904125 75.179735,64.835604 75.255274,64.711241 C 75.330303,64.587709 75.342951,64.463423 75.293217,64.338381 C 75.242974,64.214172 75.134387,64.101372 74.967455,63.99998 C 74.801357,63.899094 74.651616,63.854989 74.518232,63.867666 C 74.384341,63.881177 74.279881,63.949697 74.20485,64.073228 C 74.129313,64.197592 74.116665,64.321878 74.166907,64.446088 C 74.216642,64.571129 74.324558,64.684094 74.490656,64.784981 M 73.807369,64.685315 C 73.568656,64.540322 73.423482,64.379592 73.371847,64.203123 C 73.31938,64.026145 73.359558,63.828316 73.492381,63.609634 C 73.541557,63.528672 73.594204,63.456102 73.650322,63.391926 C 73.705607,63.327242 73.766301,63.268701 73.832404,63.216302 L 74.056511,63.352422 C 73.978722,63.397723 73.911039,63.44802 73.85346,63.503312 C 73.795883,63.558604 73.746309,63.620471 73.704737,63.688914 C 73.612977,63.839988 73.583931,63.977165 73.617596,64.100447 C 73.650428,64.22322 73.746555,64.333022 73.905975,64.429853 L 74.019906,64.499054 C 73.966172,64.401287 73.941415,64.302842 73.945636,64.203717 C 73.949857,64.104589 73.9834,64.003277 74.046263,63.89978 C 74.150697,63.727839 74.300374,63.629081 74.495293,63.603507 C 74.690213,63.577933 74.895761,63.630797 75.111939,63.762101 C 75.328951,63.89391 75.471039,64.052196 75.538205,64.236958 C 75.605369,64.421717 75.586734,64.600068 75.482301,64.77201 C 75.419437,64.875506 75.344996,64.951977 75.258978,65.001423 C 75.17296,65.050865 75.074186,65.07428 74.962658,65.071668 L 75.175497,65.200944 L 75.035576,65.431311 L 73.807369,64.685315 M 73.063931,66.672059 L 72.963832,66.586265 L 73.770302,65.645326 C 73.621794,65.533475 73.478055,65.483589 73.339084,65.49567 C 73.20022,65.509125 73.072638,65.583699 72.956338,65.71939 C 72.888974,65.797986 72.833473,65.88225 72.789835,65.972181 C 72.745562,66.062851 72.711564,66.161043 72.687839,66.266756 L 72.494313,66.100886 C 72.526088,66.000787 72.566865,65.90519 72.616646,65.814096 C 72.666427,65.723 72.725318,65.637783 72.793318,65.558445 C 72.963636,65.359728 73.156519,65.251734 73.371966,65.234462 C 73.586777,65.217931 73.7928,65.29419 73.990034,65.463238 C 74.19394,65.638004 74.308555,65.831416 74.333877,66.043474 C 74.359304,66.256907 74.291943,66.45705 74.131794,66.643905 C 73.988167,66.811478 73.820599,66.897439 73.629091,66.90179 C 73.437688,66.907513 73.249302,66.830936 73.063931,66.672059 M 73.299394,66.518888 C 73.412628,66.613366 73.528986,66.658433 73.648467,66.654088 C 73.767313,66.650481 73.86995,66.598258 73.956381,66.497419 C 74.05425,66.383229 74.100482,66.264011 74.095077,66.139765 C 74.089035,66.016258 74.031886,65.899109 73.92363,65.788318 L 73.299394,66.518888 M 71.66722,68.033944 L 71.029355,67.276519 L 71.235518,67.102899 L 71.867721,67.853601 C 71.967742,67.972367 72.065755,68.041755 72.161763,68.061766 C 72.25777,68.081773 72.352086,68.052776 72.44471,67.974775 C 72.556008,67.881043 72.613896,67.771648 72.618375,67.646589 C 72.622854,67.521527 72.57351,67.397745 72.470345,67.275244 L 71.873055,66.565998 L 72.080338,66.391434 L 73.137155,67.64634 L 72.929872,67.820903 L 72.765688,67.625945 C 72.779922,67.742905 72.769526,67.848053 72.734499,67.941389 C 72.698725,68.035351 72.63714,68.119132 72.549745,68.192734 C 72.405581,68.31414 72.25878,68.361164 72.109343,68.333807 C 71.960536,68.307193 71.813161,68.207238 71.66722,68.033944 M 68.974422,69.57558 L 68.543002,68.684266 L 68.785608,68.566838 L 69.213199,69.450241 C 69.280848,69.590002 69.358728,69.681414 69.446837,69.724479 C 69.534948,69.76754 69.633501,69.762692 69.742498,69.709937 C 69.87347,69.646541 69.956544,69.554796 69.991719,69.434702 C 70.026895,69.314605 70.009595,69.182479 69.939819,69.038323 L 69.535841,68.203705 L 69.779766,68.085639 L 70.494545,69.562372 L 70.25062,69.680438 L 70.139574,69.451017 C 70.124531,69.567876 70.088531,69.667214 70.031572,69.749033 C 69.973735,69.831273 69.893394,69.897283 69.79055,69.947065 C 69.620902,70.029177 69.467039,70.038554 69.328961,69.975196 C 69.19131,69.912713 69.07313,69.779508 68.974422,69.57558 M 68.36801,69.669454 L 67.406767,69.972271 L 67.35263,69.800421 L 68.313873,69.497604 L 68.36801,69.669454 M 68.29584,71.117423 C 68.129113,71.169944 67.981495,71.159622 67.852986,71.086458 C 67.724772,71.014221 67.632642,70.889152 67.576597,70.711249 C 67.520553,70.533343 67.524361,70.37805 67.588021,70.245371 C 67.651976,70.11362 67.767317,70.021483 67.934044,69.968961 C 68.100771,69.916436 68.248708,69.926145 68.377854,69.998088 C 68.507,70.070028 68.599449,70.194486 68.655201,70.37146 C 68.711245,70.549363 68.706971,70.704802 68.642379,70.837778 C 68.57808,70.971682 68.462567,71.064897 68.29584,71.117423 M 68.245224,70.95675 C 68.343024,70.925938 68.409381,70.863567 68.444294,70.769637 C 68.4795,70.676634 68.477151,70.566796 68.437245,70.440122 C 68.398219,70.316239 68.337628,70.226284 68.255474,70.170257 C 68.172388,70.11452 68.08241,70.10191 67.98554,70.132428 C 67.88774,70.163237 67.821702,70.224995 67.787427,70.317704 C 67.752221,70.410704 67.754131,70.519144 67.793156,70.643027 C 67.833356,70.770632 67.894067,70.862597 67.97529,70.918921 C 68.056514,70.975241 68.146492,70.987851 68.245224,70.95675 M 65.665075,69.690933 L 65.183086,69.727818 L 65.310394,71.391411 L 65.826692,71.246123 L 65.847258,71.514869 L 65.333881,71.659933 L 65.038845,71.682511 L 64.890971,69.750172 L 64.408982,69.787057 L 64.389981,69.538759 L 65.646074,69.442636 L 65.665075,69.690933 M 62.797406,70.627041 C 62.659021,70.584418 62.554643,70.511959 62.484273,70.409665 C 62.412932,70.307283 62.383452,70.186053 62.39583,70.045975 C 62.414832,69.830992 62.503463,69.671182 62.661726,69.566545 C 62.819991,69.461908 63.035311,69.421625 63.307685,69.445698 C 63.399126,69.453779 63.492668,69.47136 63.588311,69.49844 C 63.683069,69.524461 63.780413,69.560024 63.880346,69.60513 L 63.855199,69.889665 C 63.777699,69.834778 63.691385,69.790876 63.596257,69.757959 C 63.50113,69.725043 63.40055,69.703899 63.294517,69.694528 C 63.109692,69.678193 62.965902,69.702249 62.863149,69.766695 C 62.759425,69.831056 62.701416,69.932789 62.68912,70.071895 C 62.677773,70.200301 62.714152,70.304494 62.798256,70.384475 C 62.881304,70.465341 63.003081,70.512868 63.163587,70.527054 L 63.417481,70.549493 L 63.396073,70.791713 L 63.130507,70.768242 C 62.985565,70.755431 62.872133,70.774327 62.790211,70.82493 C 62.708205,70.876503 62.662387,70.956765 62.652756,71.065717 C 62.642871,71.177584 62.675189,71.266713 62.74971,71.333103 C 62.823176,71.400377 62.933838,71.440548 63.081698,71.453618 C 63.162439,71.460752 63.249789,71.459649 63.343749,71.450308 C 63.437711,71.440964 63.541772,71.42271 63.655935,71.395548 L 63.632722,71.658196 C 63.518103,71.679436 63.411467,71.69354 63.312813,71.700509 C 63.213189,71.707388 63.120088,71.707003 63.03351,71.699354 C 62.809774,71.679578 62.637244,71.61286 62.515918,71.499201 C 62.39451,71.386511 62.341456,71.24359 62.356758,71.070438 C 62.36742,70.949813 62.410981,70.850725 62.487439,70.773172 C 62.563815,70.696589 62.667137,70.647879 62.797406,70.627041 M 50.752051,55.098895 L 50.821706,54.837004 L 52.122669,55.183019 L 51.645625,54.223983 L 51.734106,53.89131 L 52.252247,54.929486 L 53.329023,54.277613 L 53.23866,54.617364 L 52.250076,55.216905 L 53.024425,55.422857 L 52.95477,55.684748 L 50.752051,55.098895 M 52.610032,52.454855 L 51.799424,52.09303 L 51.909285,51.846905 L 53.990649,52.775947 L 53.880788,53.022072 L 53.656065,52.921764 C 53.722153,53.013292 53.759333,53.108491 53.767603,53.207361 C 53.775379,53.304943 53.754588,53.409022 53.705231,53.519599 C 53.624427,53.700627 53.486318,53.815971 53.290903,53.865632 C 53.095887,53.914402 52.880666,53.886244 52.645242,53.78116 C 52.409818,53.676076 52.24515,53.534665 52.151236,53.356928 C 52.057723,53.1783 52.051367,52.998472 52.132169,52.817444 C 52.181528,52.706868 52.245569,52.622094 52.324292,52.563121 C 52.402524,52.502863 52.49777,52.466774 52.610032,52.454855 M 52.758685,53.527008 C 52.939712,53.607813 53.098467,53.634293 53.234948,53.60645 C 53.370936,53.577319 53.467988,53.497654 53.526103,53.367457 C 53.584217,53.237261 53.578717,53.111821 53.509601,52.991137 C 53.439593,52.870057 53.314075,52.769115 53.133048,52.68831 C 52.952022,52.607508 52.793514,52.581672 52.657526,52.610803 C 52.520647,52.639539 52.423149,52.719004 52.365034,52.849199 C 52.30692,52.979397 52.312866,53.105036 52.382873,53.226116 C 52.452388,53.345908 52.577659,53.446206 52.758685,53.527008 M 54.294267,50.628712 L 54.404294,50.70134 L 53.72159,51.735591 C 53.882898,51.828029 54.03174,51.859581 54.168116,51.830248 C 54.304215,51.799563 54.42149,51.709646 54.519941,51.560498 C 54.576967,51.474108 54.621516,51.383575 54.653586,51.2889 C 54.686194,51.193413 54.707669,51.091745 54.718012,50.983897 L 54.93073,51.124312 C 54.911699,51.227595 54.883174,51.327534 54.845155,51.42413 C 54.807134,51.520728 54.759341,51.612629 54.701778,51.699835 C 54.557597,51.918259 54.379704,52.049486 54.168099,52.093516 C 53.957031,52.136733 53.743101,52.086789 53.526307,51.943684 C 53.302179,51.795739 53.164318,51.618147 53.112722,51.410909 C 53.06085,51.20232 53.1027,50.995333 53.238272,50.789948 C 53.359857,50.605757 53.515384,50.499551 53.704851,50.471328 C 53.894042,50.441756 54.090514,50.494218 54.294267,50.628712 M 54.079767,50.810079 C 53.955624,50.730475 53.834551,50.700285 53.716547,50.719511 C 53.599081,50.737925 53.503765,50.802552 53.430599,50.913392 C 53.34775,51.038905 53.316762,51.162962 53.337634,51.285561 C 53.359046,51.407348 53.430372,51.516447 53.551612,51.612858 L 54.079767,50.810079 M 55.273402,48.066764 L 55.511685,49.432174 L 56.062357,48.927323 L 55.273402,48.066764 M 55.041952,47.929193 L 55.316208,47.677757 L 56.279386,48.728352 L 56.509372,48.517502 L 56.675676,48.6989 L 56.44569,48.90975 L 56.794137,49.289821 L 56.577107,49.488792 L 56.228661,49.10872 L 55.500911,49.775916 L 55.307879,49.565366 L 55.041952,47.929193 M 58.318467,47.918264 L 59.228068,47.429259 L 59.345984,47.648596 L 58.122861,48.306151 L 58.004945,48.086814 C 58.048834,47.93128 58.109691,47.721719 58.187516,47.458132 C 58.265739,47.193224 58.313374,47.024033 58.330421,46.95056 C 58.363452,46.811952 58.378969,46.701606 58.376974,46.619522 C 58.375375,46.536118 58.357698,46.463021 58.323942,46.400228 C 58.268914,46.297873 58.187934,46.233861 58.081001,46.208191 C 57.974928,46.182063 57.864262,46.19998 57.749003,46.261941 C 57.667289,46.305873 57.588475,46.366538 57.512559,46.443937 C 57.437504,46.520877 57.363859,46.615906 57.291623,46.729024 L 57.150124,46.46582 C 57.232404,46.36726 57.313351,46.28272 57.392965,46.212198 C 57.47258,46.14168 57.550234,46.086074 57.625926,46.045379 C 57.825479,45.938101 58.011426,45.902443 58.183766,45.938404 C 58.356105,45.974369 58.487129,46.075785 58.576839,46.24265 C 58.61938,46.321785 58.644789,46.40514 58.653065,46.492714 C 58.661738,46.57897 58.652833,46.691305 58.626351,46.829719 C 58.618257,46.866225 58.588719,46.975239 58.537736,47.156761 C 58.48629,47.337426 58.4132,47.59126 58.318467,47.918264 M 59.87599,45.313605 C 59.731669,45.362392 59.647046,45.470373 59.62212,45.637548 C 59.597807,45.803488 59.633811,46.028928 59.730131,46.313868 C 59.826138,46.597885 59.934303,46.798932 60.054624,46.91701 C 60.175556,47.03385 60.308183,47.067878 60.452505,47.019092 C 60.59775,46.969994 60.68253,46.862476 60.706844,46.696536 C 60.731768,46.529361 60.696227,46.303765 60.600221,46.019747 C 60.5039,45.734807 60.395273,45.533916 60.274341,45.417074 C 60.154019,45.298998 60.021236,45.264509 59.87599,45.313605 M 59.800935,45.091572 C 60.033144,45.01308 60.241424,45.045243 60.425775,45.188063 C 60.610737,45.329649 60.762324,45.575291 60.880537,45.92499 C 60.998434,46.273768 61.026978,46.561003 60.96617,46.786697 C 60.905971,47.011154 60.759767,47.16263 60.52756,47.241124 C 60.29535,47.319619 60.086764,47.288075 59.901801,47.14649 C 59.717451,47.003669 59.566326,46.75787 59.448427,46.409094 C 59.330216,46.059394 59.30121,45.772315 59.361407,45.547857 C 59.422217,45.322164 59.568727,45.170069 59.800935,45.091572 M 62.052253,44.776133 C 61.901812,44.80014 61.800348,44.892477 61.747861,45.053143 C 61.696184,45.212695 61.694043,45.440982 61.741438,45.738004 C 61.788678,46.034064 61.861757,46.250348 61.960675,46.386857 C 62.060403,46.522248 62.185487,46.577941 62.335928,46.553936 C 62.487332,46.529777 62.588873,46.437923 62.640551,46.278372 C 62.693037,46.117705 62.69566,45.889341 62.648421,45.593281 C 62.601025,45.296259 62.527464,45.080052 62.427737,44.944659 C 62.328818,44.808151 62.203657,44.751976 62.052253,44.776133 M 62.015322,44.544686 C 62.257376,44.506065 62.457363,44.572551 62.615281,44.744145 C 62.774008,44.914625 62.882455,45.182128 62.940623,45.546656 C 62.998634,45.910221 62.978821,46.198191 62.881184,46.410564 C 62.784354,46.62182 62.614913,46.74676 62.372859,46.785383 C 62.130803,46.824007 61.930412,46.75808 61.771684,46.587601 C 61.613766,46.416006 61.505801,46.148425 61.447789,45.78486 C 61.389623,45.420332 61.408954,45.13244 61.505782,44.921182 C 61.60342,44.708811 61.773267,44.583312 62.015322,44.544686 M 63.577859,44.40792 L 64.984071,44.418382 L 64.983133,44.544355 L 64.173877,46.599427 L 63.864803,46.597127 L 64.626271,44.66475 L 63.576007,44.656937 L 63.577859,44.40792"
       id="text2478" />
    <path
       sodipodi:type="arc"
       style="opacity:0.0737705;fill:none;fill-opacity:1;fill-rule:nonzero;stroke:black;stroke-width:0.37125;stroke-linecap:round;stroke-linejoin:round;stroke-miterlimit:4;stroke-dasharray:none;stroke-dashoffset:4;stroke-opacity:1"
       id="path2482"
       sodipodi:cx="-59.489868"
       sodipodi:cy="161.47501"
       sodipodi:rx="38.065865"
       sodipodi:ry="38.065865"
       d="M -21.424004 161.47501 A 38.065865 38.065865 0 1 1  -97.555733,161.47501 A 38.065865 38.065865 0 1 1  -21.424004 161.47501 z"
       transform="matrix(0.301066,0,0,0.301066,82.09454,9.445531)" />
    <g
       id="g2549"
       transform="matrix(0.999971,7.539817e-3,-7.539817e-3,0.999971,-0.49296,-8.999716e-2)"
       style="opacity:0.68032789">
      <g
         id="g2530">
        <path
           style="opacity:0.48360656;fill:url(#linearGradient2359);fill-opacity:1;fill-rule:nonzero;stroke:none;stroke-width:0.99675924;stroke-linecap:round;stroke-linejoin:round;stroke-miterlimit:4;stroke-dasharray:none;stroke-dashoffset:4;stroke-opacity:1"
           d="M 63.4375,2.6875 C 62.216778,2.7260835 61.012215,2.7898661 59.8125,2.90625 L 64.40625,45.6875 C 64.431781,45.685886 64.443177,45.68896 64.46875,45.6875 C 64.707288,45.67388 64.976821,45.6875 65.21875,45.6875 C 69.627257,45.6875 73.476216,47.955074 75.6875,51.40625 L 111.15625,27.09375 C 101.18999,12.367851 84.333867,2.6875 65.21875,2.6875 C 64.740488,2.6875 64.256623,2.675443 63.78125,2.6875 C 63.664264,2.6904672 63.554306,2.6838081 63.4375,2.6875 z "
           id="path2499" />
        <path
           style="opacity:0.48360656;fill:url(#linearGradient2361);fill-opacity:1;fill-rule:nonzero;stroke:none;stroke-width:0.99675924;stroke-linecap:round;stroke-linejoin:round;stroke-miterlimit:4;stroke-dasharray:none;stroke-dashoffset:4;stroke-opacity:1"
           d="M 63.21875,2.6875 C 62.990235,2.6953451 62.758753,2.7088321 62.53125,2.71875 C 63.15624,15.384522 64.03264,32.985837 64.5625,45.6875 C 64.7772,45.680983 65.007062,45.6875 65.21875,45.6875 C 69.627257,45.6875 73.476216,47.955074 75.6875,51.40625 L 85.53125,44.65625 C 93.150564,38.38778 101.81483,31.292617 109.59375,24.875 C 99.480707,11.394662 83.363177,2.6875 65.21875,2.6875 C 64.740488,2.6875 64.256623,2.675443 63.78125,2.6875 C 63.664264,2.6904672 63.554306,2.6838081 63.4375,2.6875 C 63.361205,2.6899115 63.294922,2.684885 63.21875,2.6875 z "
           id="path2520" />
        <path
           style="opacity:0.48360656;fill:url(#linearGradient2363);fill-opacity:1;fill-rule:nonzero;stroke:none;stroke-width:0.99675924;stroke-linecap:round;stroke-linejoin:round;stroke-miterlimit:4;stroke-dasharray:none;stroke-dashoffset:4;stroke-opacity:1"
           d="M 66.96875,2.71875 L 66.4375,45.75 C 70.249044,46.118933 73.54589,48.194895 75.5625,51.21875 L 106.96875,21.625 C 97.1647,10.420682 82.903548,3.2138183 66.96875,2.71875 z "
           id="path2525" />
      </g>
      <g
         transform="matrix(-0.99779,6.64481e-2,-6.64481e-2,-0.99779,134.6643,111.1093)"
         id="g2535">
        <path
           id="path2537"
           d="M 63.4375,2.6875 C 62.216778,2.7260835 61.012215,2.7898661 59.8125,2.90625 L 64.40625,45.6875 C 64.431781,45.685886 64.443177,45.68896 64.46875,45.6875 C 64.707288,45.67388 64.976821,45.6875 65.21875,45.6875 C 69.627257,45.6875 73.476216,47.955074 75.6875,51.40625 L 111.15625,27.09375 C 101.18999,12.367851 84.333867,2.6875 65.21875,2.6875 C 64.740488,2.6875 64.256623,2.675443 63.78125,2.6875 C 63.664264,2.6904672 63.554306,2.6838081 63.4375,2.6875 z "
           style="opacity:0.48360656;fill:url(#linearGradient2365);fill-opacity:1;fill-rule:nonzero;stroke:none;stroke-width:0.99675924;stroke-linecap:round;stroke-linejoin:round;stroke-miterlimit:4;stroke-dasharray:none;stroke-dashoffset:4;stroke-opacity:1" />
        <path
           id="path2539"
           d="M 63.21875,2.6875 C 62.990235,2.6953451 62.758753,2.7088321 62.53125,2.71875 C 63.15624,15.384522 64.03264,32.985837 64.5625,45.6875 C 64.7772,45.680983 65.007062,45.6875 65.21875,45.6875 C 69.627257,45.6875 73.476216,47.955074 75.6875,51.40625 L 85.53125,44.65625 C 93.150564,38.38778 101.81483,31.292617 109.59375,24.875 C 99.480707,11.394662 83.363177,2.6875 65.21875,2.6875 C 64.740488,2.6875 64.256623,2.675443 63.78125,2.6875 C 63.664264,2.6904672 63.554306,2.6838081 63.4375,2.6875 C 63.361205,2.6899115 63.294922,2.684885 63.21875,2.6875 z "
           style="opacity:0.48360656;fill:url(#linearGradient2367);fill-opacity:1;fill-rule:nonzero;stroke:none;stroke-width:0.99675924;stroke-linecap:round;stroke-linejoin:round;stroke-miterlimit:4;stroke-dasharray:none;stroke-dashoffset:4;stroke-opacity:1" />
        <path
           id="path2541"
           d="M 66.96875,2.71875 L 66.4375,45.75 C 70.249044,46.118933 73.54589,48.194895 75.5625,51.21875 L 106.96875,21.625 C 97.1647,10.420682 82.903548,3.2138183 66.96875,2.71875 z "
           style="opacity:0.48360656;fill:url(#linearGradient2370);fill-opacity:1;fill-rule:nonzero;stroke:none;stroke-width:0.99675924;stroke-linecap:round;stroke-linejoin:round;stroke-miterlimit:4;stroke-dasharray:none;stroke-dashoffset:4;stroke-opacity:1" />
      </g>
    </g>
    <path
       id="path2358"
       d="M 62.438342,2.6765154 C 32.652732,3.6179935 8.750097,28.102711 8.750097,58.115463 C 8.750097,59.579932 8.784293,61.027013 8.895989,62.463044 C 9.297531,62.986629 9.766792,63.488408 10.238196,63.98032 C 13.370055,67.248436 71.994249,19.506576 95.468283,12.305385 C 86.572367,6.2255582 75.80199,2.6765154 64.218224,2.6765154 C 63.739962,2.6765154 63.263855,2.6644584 62.788483,2.6765154 C 62.671496,2.6794826 62.555148,2.6728233 62.438342,2.6765154 z M 103.02548,18.549561 C 85.962541,26.944561 80.298089,61.344669 86.261137,65.247376 C 95.751376,71.458564 113.10135,74.124403 119.13196,65.643489 C 119.13522,65.641177 119.15787,65.616622 119.16114,65.61431 C 119.49214,63.16452 119.65717,60.655418 119.65717,58.115463 C 119.65717,42.616814 113.2845,28.611821 103.02548,18.549561 z "
       style="opacity:0.51639344;fill:url(#linearGradient2380);fill-opacity:1;fill-rule:nonzero;stroke:none;stroke-width:0.99675924;stroke-linecap:round;stroke-linejoin:round;stroke-miterlimit:4;stroke-dasharray:none;stroke-dashoffset:4;stroke-opacity:1"
       sodipodi:nodetypes="cscscssccscssc" />
    <path
       style="opacity:0.82377044;fill:url(#linearGradient2377);fill-opacity:1;fill-rule:nonzero;stroke:none;stroke-width:0.99675924;stroke-linecap:round;stroke-linejoin:round;stroke-miterlimit:4;stroke-dasharray:none;stroke-dashoffset:4;stroke-opacity:1"
       d="M 62.438342,2.6765154 C 32.652732,3.6179935 8.750097,28.102711 8.750097,58.115463 C 8.750097,59.579932 8.784293,61.027013 8.895989,62.463044 C 9.297531,62.986629 9.766792,63.488408 10.238196,63.98032 C 13.370055,67.248436 19.094893,62.657319 33.989408,62.054546 C 49.794348,41.834289 71.994249,19.506576 95.468283,12.305385 C 86.572367,6.2255582 75.80199,2.6765154 64.218224,2.6765154 C 63.739962,2.6765154 63.263855,2.6644584 62.788483,2.6765154 C 62.671496,2.6794826 62.555148,2.6728233 62.438342,2.6765154 z M 103.02548,18.549561 C 85.962541,26.944561 78.099799,37.930139 73.467775,49.799621 C 75.445738,51.999729 76.64822,54.913381 76.64822,58.115463 C 76.648216,61.892263 74.980342,65.279661 72.329817,67.569263 C 100.10815,73.845631 113.10135,74.124403 119.13196,65.643489 C 119.13522,65.641177 119.15787,65.616622 119.16114,65.61431 C 119.49214,63.16452 119.65717,60.655418 119.65717,58.115463 C 119.65717,42.616814 113.2845,28.611821 103.02548,18.549561 z "
       id="path2353" />
    <g
       id="g3982"
       transform="translate(-4.598378,-0.919676)">
      <path
         style="fill:black;fill-opacity:1"
         d="M 112.72511,15.862084 C 109.51399,12.140138 107.18371,8.1456355 105.9924,5.9128295 L 105.9924,1.4219473 L 104.18739,1.4219473 L 104.18739,59.337724 C 101.23437,56.503847 95.335581,56.467747 90.014392,59.511005 C 83.958562,62.976638 80.953207,69.117306 83.305142,73.229135 C 85.657082,77.340963 92.472822,77.860808 98.532261,74.395176 C 102.85528,71.924107 105.60974,68.088447 105.98518,64.597543 L 105.9924,64.597543 L 105.9924,64.516318 C 106.04114,64.016328 106.04475,63.518143 105.9924,63.039813 L 105.9924,20.748264 C 127.71578,29.625338 113.62762,53.316187 113.62762,53.316187 C 129.67422,37.269586 115.67811,19.289811 112.72511,15.862084 z "
         id="path2025" />
      <path
         style="fill:url(#linearGradient3987);fill-opacity:1"
         d="M 104.20194,59.338223 C 103.68006,58.8374 103.04463,58.412729 102.35819,58.088223 C 96.111601,56.599972 88.345531,67.518887 83.42069,73.431973 C 85.532993,76.816328 90.790197,77.604542 96.014441,75.588223 C 97.607231,70.219708 94.264091,61.632992 104.20194,59.338223 z "
         id="path3042"
         sodipodi:nodetypes="ccccc" />
      <path
         sodipodi:nodetypes="ccssccccc"
         id="path3940"
         d="M 104.18739,59.337724 C 101.23437,56.503847 95.335581,56.467747 90.014392,59.511005 C 83.958562,62.976638 80.953207,69.117306 83.305142,73.229135 C 85.657082,77.340963 92.472822,77.860808 98.532261,74.395176 C 102.85528,71.924107 105.60974,68.088447 105.98518,64.597543 L 105.9924,64.597543 L 105.9924,64.516318 C 106.04114,64.016328 106.04475,63.518143 105.9924,63.039813 L 104.18739,59.337724 z "
         style="opacity:0.38114756;fill:url(#radialGradient3989);fill-opacity:1" />
    </g>
  </g>
</svg>
