<?xml version="1.0" encoding="UTF-8" standalone="no"?>
<!-- Created with Inkscape (http://www.inkscape.org/) -->
<svg
   xmlns:i="http://ns.adobe.com/AdobeIllustrator/10.0/"
   xmlns:a="http://ns.adobe.com/AdobeSVGViewerExtensions/3.0/"
   xmlns:dc="http://purl.org/dc/elements/1.1/"
   xmlns:cc="http://web.resource.org/cc/"
   xmlns:rdf="http://www.w3.org/1999/02/22-rdf-syntax-ns#"
   xmlns:svg="http://www.w3.org/2000/svg"
   xmlns="http://www.w3.org/2000/svg"
   xmlns:xlink="http://www.w3.org/1999/xlink"
   xmlns:sodipodi="http://sodipodi.sourceforge.net/DTD/sodipodi-0.dtd"
   xmlns:inkscape="http://www.inkscape.org/namespaces/inkscape"
   width="32px"
   height="32px"
   id="svg2357"
   sodipodi:version="0.32"
   inkscape:version="0.44"
   sodipodi:docbase="/Users/kwwii/kdesvn/artwork/Oxygen/Ken"
   sodipodi:docname="newArrowDown.svg">
  <defs
     id="defs2359">
    <linearGradient
       id="linearGradient2853">
      <stop
         style="stop-color:white;stop-opacity:1;"
         offset="0"
         id="stop2855" />
      <stop
         style="stop-color:white;stop-opacity:0;"
         offset="1"
         id="stop2857" />
    </linearGradient>
    <radialGradient
       id="radialGradient3307"
       cx="2"
       cy="16"
       r="23.0868"
       fx="2"
       fy="16"
       gradientUnits="userSpaceOnUse">
      <stop
         offset="0"
         style="stop-color:white;stop-opacity:1;"
         id="stop3309" />
      <stop
         offset="0.1227"
         style="stop-color:#e5ffee;stop-opacity:1;"
         id="stop3311" />
      <stop
         offset="0.26289999"
         style="stop-color:#abfac3;stop-opacity:1;"
         id="stop3313" />
      <stop
         offset="0.4116"
         style="stop-color:#8AF2A3"
         id="stop3315" />
      <stop
         offset="0.5662"
         style="stop-color:#6FE883"
         id="stop3317" />
      <stop
         offset="0.7256"
         style="stop-color:#4CDB59"
         id="stop3319" />
      <stop
         offset="0.8864"
         style="stop-color:#22CB28"
         id="stop3321" />
      <stop
         offset="1"
         style="stop-color:#00BF00"
         id="stop3323" />
      <a:midPointStop
         offset="0"
         style="stop-color:#ADFFCC" />
      <a:midPointStop
         offset="0.6798"
         style="stop-color:#ADFFCC" />
      <a:midPointStop
         offset="1"
         style="stop-color:#00BF00" />
    </radialGradient>
    <linearGradient
       y2="15.0332"
       x2="29"
       y1="15.0332"
       x1="23"
       gradientUnits="userSpaceOnUse"
       id="XMLID_8_">
      <stop
         id="stop1901"
         style="stop-color:#00FF00"
         offset="0" />
      <stop
         id="stop1903"
         style="stop-color:#00D600"
         offset="0.6649" />
      <stop
         id="stop1905"
         style="stop-color:#00BF00"
         offset="1" />
      <a:midPointStop
         style="stop-color:#00FF00"
         offset="0" />
      <a:midPointStop
         style="stop-color:#00FF00"
         offset="0.5225" />
      <a:midPointStop
         style="stop-color:#00BF00"
         offset="1" />
    </linearGradient>
    <linearGradient
       inkscape:collect="always"
       xlink:href="#radialGradient3307"
       id="linearGradient2289"
       gradientUnits="userSpaceOnUse"
       x1="24.310083"
       y1="15.0335"
       x2="29"
       y2="15.0332" />
    <radialGradient
       gradientUnits="userSpaceOnUse"
       fy="16"
       fx="2"
       r="23.0868"
       cy="16"
       cx="2"
       id="XMLID_7_">
      <stop
         id="stop1880"
         style="stop-color:#ADFFCC"
         offset="0" />
      <stop
         id="stop1882"
         style="stop-color:#A9FEC7"
         offset="0.1227" />
      <stop
         id="stop1884"
         style="stop-color:#9DF9B9"
         offset="0.2629" />
      <stop
         id="stop1886"
         style="stop-color:#8AF2A3"
         offset="0.4116" />
      <stop
         id="stop1888"
         style="stop-color:#6FE883"
         offset="0.5662" />
      <stop
         id="stop1890"
         style="stop-color:#4CDB59"
         offset="0.7256" />
      <stop
         id="stop1892"
         style="stop-color:#22CB28"
         offset="0.8864" />
      <stop
         id="stop1894"
         style="stop-color:#00BF00"
         offset="1" />
      <a:midPointStop
         style="stop-color:#ADFFCC"
         offset="0" />
      <a:midPointStop
         style="stop-color:#ADFFCC"
         offset="0.6798" />
      <a:midPointStop
         style="stop-color:#00BF00"
         offset="1" />
    </radialGradient>
    <radialGradient
       inkscape:collect="always"
       xlink:href="#XMLID_7_"
       id="radialGradient2287"
       gradientUnits="userSpaceOnUse"
       cx="2"
       cy="16"
       fx="2"
       fy="16"
       r="23.0868" />
    <radialGradient
       gradientUnits="userSpaceOnUse"
       gradientTransform="matrix(0.2944,0,0,-2e-2,-13.8208,-28.1039)"
       fy="-6087.2788"
       fx="267.3615"
       r="253.0349"
       cy="-6094.6094"
       cx="265.3896"
       id="path2295_1_">
      <stop
         id="stop25"
         style="stop-color:#000000"
         offset="0" />
      <stop
         id="stop27"
         style="stop-color:black;stop-opacity:0.19587629;"
         offset="1" />
      <a:midPointStop
         style="stop-color:#000000"
         offset="0" />
      <a:midPointStop
         style="stop-color:#000000"
         offset="0.5" />
      <a:midPointStop
         style="stop-color:#FFFFFF"
         offset="1" />
    </radialGradient>
    <radialGradient
       inkscape:collect="always"
       xlink:href="#path2295_1_"
       id="radialGradient2420"
       gradientUnits="userSpaceOnUse"
       gradientTransform="matrix(7.440254e-2,0,0,-4.780589e-3,-3.745609,1.654975)"
       cx="265.3896"
       cy="-6094.6094"
       fx="267.3615"
       fy="-6087.2788"
       r="253.0349" />
    <linearGradient
       inkscape:collect="always"
       xlink:href="#linearGradient2853"
       id="linearGradient2859"
       x1="15.158744"
       y1="6.40625"
       x2="15.158744"
       y2="19.905756"
       gradientUnits="userSpaceOnUse" />
  </defs>
  <sodipodi:namedview
     id="base"
     pagecolor="#ffffff"
     bordercolor="#666666"
     borderopacity="1.0"
     inkscape:pageopacity="0.0"
     inkscape:pageshadow="2"
     inkscape:zoom="8.2735849"
     inkscape:cx="31"
     inkscape:cy="12"
     inkscape:current-layer="layer1"
     showgrid="true"
     inkscape:grid-bbox="true"
     inkscape:document-units="px"
     inkscape:object-bbox="true"
     inkscape:object-points="true"
     inkscape:object-nodes="true"
     inkscape:window-width="945"
     inkscape:window-height="896"
     inkscape:window-x="20"
     inkscape:window-y="42" />
  <metadata
     id="metadata2362">
    <rdf:RDF>
      <cc:Work
         rdf:about="">
        <dc:format>image/svg+xml</dc:format>
        <dc:type
           rdf:resource="http://purl.org/dc/dcmitype/StillImage" />
      </cc:Work>
    </rdf:RDF>
  </metadata>
  <g
     id="layer1"
     inkscape:label="Layer 1"
     inkscape:groupmode="layer">
    <path
       style="opacity:0.38140001;fill:url(#radialGradient2420)"
       d="M 32,30.791445 C 32.002022,31.459293 24.840254,32.001412 16.003159,32.001412 C 7.1660651,32.001412 0.0020219886,31.460249 1.0700381e-07,30.791445 L 1.0700381e-07,30.791445 C -0.0010108232,30.122641 7.1612635,29.580521 15.998104,29.580521 C 24.834188,29.580521 31.99899,30.12288 32,30.790489 C 32,30.790489 32,30.790489 32,30.791445 z "
       enable-background="new    "
       a:adobe-blending-mode="multiply"
       i:knockout="Off"
       i:isolated="yes"
       ry="12.641975"
       rx="63.912209"
       cy="115.70919"
       cx="63.912209"
       type="arc"
       id="path2859" />
    <path
       style="fill:#008c00"
       id="path1877"
       d="M 30.674398,10.464645 L 16.675398,29.589645 C 16.486398,29.846645 16.186398,29.998645 15.867398,29.998645 C 15.549398,29.998645 15.249398,29.846645 15.060398,29.589645 L 1.0613983,10.464645 C 0.83739829,10.160645 0.80439829,9.7576453 0.97639829,9.4216453 C 1.1463983,9.0856453 1.4913983,8.8736453 1.8683983,8.8736453 C 1.8683983,8.8736453 8.0493983,8.8736453 9.6183983,8.8736453 C 9.6183983,7.2996453 9.6183983,0.99864529 9.6183983,0.99864529 C 9.6183983,0.44564529 10.064398,-0.0013547052 10.617398,-0.0013547052 L 21.117398,-0.0013547052 C 21.670398,-0.0013547052 22.117398,0.44564529 22.117398,0.99864529 C 22.117398,0.99864529 22.117398,7.2996453 22.117398,8.8736453 C 23.686398,8.8736453 29.867398,8.8736453 29.867398,8.8736453 C 30.243398,8.8736453 30.588398,9.0856453 30.759398,9.4216453 C 30.929398,9.7576453 30.896398,10.160645 30.674398,10.464645 z "
       i:knockout="Off" />
    <polygon
       style="fill:url(#radialGradient2287)"
       id="polygon1896"
       points="29,9.75 20.125,9.75 20.125,1 1,15 20.125,29 20.125,20.25 29,20.25 29,9.75 "
       i:knockout="Off"
       transform="matrix(0,-1,-1,0,30.8674,29.99864)" />
    <polygon
       style="fill:#b3fec3;fill-opacity:1"
       id="polygon1898"
       points="24,11.25 17.66,11.25 17.66,5 4,15 17.66,25 17.66,18.75 24,18.75 24,11.25 "
       i:knockout="Off"
       transform="matrix(0,-1.029675,-1,0,30.8674,31.11734)" />
    <polygon
       style="fill:url(#linearGradient2289);fill-opacity:1"
       id="polygon1907"
       points="24,11.25 24,18.75 29,18.999 28.959,11.068 24,11.25 "
       i:knockout="Off"
       transform="matrix(0,-0.97343,-1,0,30.8674,30.22814)" />
    <polygon
       style="fill:white;fill-opacity:1"
       id="polygon3327"
       points="24,11.25 17.66,11.25 17.66,5 4,15 17.66,25 17.66,18.75 24,18.75 24,11.25 "
       i:knockout="Off"
       transform="matrix(0.85,0,0,0.8,3.467166,32.99841)" />
    <path
       style="fill:url(#linearGradient2859);fill-opacity:1.0"
       d="M 12.125,6.40625 L 12.125,12.9375 L 6.09375,12.9375 C 8.627752,14.827062 12.135997,16 16,16 C 19.836457,16 23.314168,14.834622 25.84375,12.96875 L 25.875,12.9375 L 19.625,12.9375 L 19.625,6.40625 L 12.125,6.40625 z "
       id="polygon1961" />
  </g>
</svg>
