<?xml version="1.0" encoding="UTF-8" standalone="no"?>
<!-- Created with Inkscape (http://www.inkscape.org/) -->
<svg
   xmlns:dc="http://purl.org/dc/elements/1.1/"
   xmlns:cc="http://web.resource.org/cc/"
   xmlns:rdf="http://www.w3.org/1999/02/22-rdf-syntax-ns#"
   xmlns:svg="http://www.w3.org/2000/svg"
   xmlns="http://www.w3.org/2000/svg"
   xmlns:xlink="http://www.w3.org/1999/xlink"
   xmlns:sodipodi="http://inkscape.sourceforge.net/DTD/sodipodi-0.dtd"
   xmlns:inkscape="http://www.inkscape.org/namespaces/inkscape"
   width="128"
   height="128"
   id="svg1390"
   sodipodi:version="0.32"
   inkscape:version="0.43"
   version="1.0"
   sodipodi:docbase="/var/tmp/kdecache-pinheiro/krun"
   sodipodi:docname="5014.0.cut.svg">
  <defs
     id="defs1392">
    <linearGradient
       inkscape:collect="always"
       id="linearGradient2588">
      <stop
         style="stop-color:#000000;stop-opacity:1;"
         offset="0"
         id="stop2590" />
      <stop
         style="stop-color:#000000;stop-opacity:0;"
         offset="1"
         id="stop2592" />
    </linearGradient>
    <linearGradient
       inkscape:collect="always"
       id="linearGradient2526">
      <stop
         style="stop-color:#ffffff;stop-opacity:1;"
         offset="0"
         id="stop2528" />
      <stop
         style="stop-color:#ffffff;stop-opacity:0;"
         offset="1"
         id="stop2530" />
    </linearGradient>
    <linearGradient
       inkscape:collect="always"
       id="linearGradient2511">
      <stop
         style="stop-color:#ffffff;stop-opacity:1;"
         offset="0"
         id="stop2513" />
      <stop
         style="stop-color:#ffffff;stop-opacity:0;"
         offset="1"
         id="stop2515" />
    </linearGradient>
    <linearGradient
       inkscape:collect="always"
       id="linearGradient2498">
      <stop
         style="stop-color:#ffffff;stop-opacity:1;"
         offset="0"
         id="stop2500" />
      <stop
         style="stop-color:#ffffff;stop-opacity:0;"
         offset="1"
         id="stop2502" />
    </linearGradient>
    <linearGradient
       id="linearGradient2476">
      <stop
         style="stop-color:#000000;stop-opacity:1;"
         offset="0"
         id="stop2478" />
      <stop
         id="stop2484"
         offset="0.5"
         style="stop-color:#000000;stop-opacity:1;" />
      <stop
         style="stop-color:#414141;stop-opacity:1;"
         offset="0.75"
         id="stop2486" />
      <stop
         style="stop-color:#ffffff;stop-opacity:1;"
         offset="1"
         id="stop2480" />
    </linearGradient>
    <linearGradient
       inkscape:collect="always"
       id="linearGradient2460">
      <stop
         style="stop-color:#000000;stop-opacity:1;"
         offset="0"
         id="stop2462" />
      <stop
         style="stop-color:#000000;stop-opacity:0;"
         offset="1"
         id="stop2464" />
    </linearGradient>
    <linearGradient
       id="linearGradient2448">
      <stop
         style="stop-color:#ffffff;stop-opacity:0;"
         offset="0"
         id="stop2450" />
      <stop
         id="stop2456"
         offset="0.5"
         style="stop-color:#ffffff;stop-opacity:0;" />
      <stop
         style="stop-color:#ffffff;stop-opacity:1;"
         offset="1"
         id="stop2452" />
    </linearGradient>
    <linearGradient
       inkscape:collect="always"
       id="linearGradient2431">
      <stop
         style="stop-color:#ffffff;stop-opacity:1;"
         offset="0"
         id="stop2433" />
      <stop
         style="stop-color:#ffffff;stop-opacity:0;"
         offset="1"
         id="stop2435" />
    </linearGradient>
    <linearGradient
       inkscape:collect="always"
       id="linearGradient2421">
      <stop
         style="stop-color:#ffffff;stop-opacity:1;"
         offset="0"
         id="stop2423" />
      <stop
         style="stop-color:#ffffff;stop-opacity:0;"
         offset="1"
         id="stop2425" />
    </linearGradient>
    <linearGradient
       inkscape:collect="always"
       id="linearGradient2361">
      <stop
         style="stop-color:#ffffff;stop-opacity:1;"
         offset="0"
         id="stop2363" />
      <stop
         style="stop-color:#ffffff;stop-opacity:0;"
         offset="1"
         id="stop2365" />
    </linearGradient>
    <linearGradient
       id="linearGradient3084">
      <stop
         id="stop3086"
         offset="0"
         style="stop-color:#ffffff;stop-opacity:0.74820143;" />
      <stop
         style="stop-color:#ffffff;stop-opacity:0.2627451;"
         offset="0"
         id="stop3098" />
      <stop
         id="stop3088"
         offset="1"
         style="stop-color:#ffffff;stop-opacity:0;" />
    </linearGradient>
    <linearGradient
       id="linearGradient3102">
      <stop
         id="stop3104"
         offset="0"
         style="stop-color:#ffffff;stop-opacity:1;" />
      <stop
         id="stop3106"
         offset="1"
         style="stop-color:#000000;stop-opacity:1;" />
    </linearGradient>
    <linearGradient
       id="linearGradient3128">
      <stop
         id="stop3130"
         offset="0"
         style="stop-color:#242424;stop-opacity:1;" />
      <stop
         style="stop-color:#121212;stop-opacity:1;"
         offset="0.5"
         id="stop3154" />
      <stop
         id="stop3132"
         offset="1"
         style="stop-color:#242424;stop-opacity:0;" />
    </linearGradient>
    <linearGradient
       id="linearGradient3146"
       inkscape:collect="always">
      <stop
         id="stop3148"
         offset="0"
         style="stop-color:#ffffff;stop-opacity:1;" />
      <stop
         id="stop3150"
         offset="1"
         style="stop-color:#ffffff;stop-opacity:0;" />
    </linearGradient>
    <radialGradient
       inkscape:collect="always"
       xlink:href="#linearGradient2460"
       id="radialGradient2466"
       cx="74.380951"
       cy="122.09524"
       fx="94.140305"
       fy="111.24316"
       r="51.523811"
       gradientTransform="matrix(1,0,0,7.763401e-2,6.666542e-15,112.6165)"
       gradientUnits="userSpaceOnUse" />
    <linearGradient
       inkscape:collect="always"
       xlink:href="#linearGradient2476"
       id="linearGradient1427"
       gradientUnits="userSpaceOnUse"
       x1="88.124672"
       y1="45.672295"
       x2="85.171585"
       y2="154.92773" />
    <radialGradient
       inkscape:collect="always"
       xlink:href="#linearGradient3084"
       id="radialGradient1429"
       gradientUnits="userSpaceOnUse"
       gradientTransform="matrix(1.83408,0.633004,-0.398955,1.155946,-32.53465,-53.07059)"
       cx="67.223068"
       cy="60.220661"
       fx="67.223068"
       fy="60.220661"
       r="12.049401" />
    <radialGradient
       inkscape:collect="always"
       xlink:href="#linearGradient3128"
       id="radialGradient1431"
       gradientUnits="userSpaceOnUse"
       gradientTransform="matrix(1,-1.680783e-16,1.86018e-16,0.837037,-1.011013e-14,8.632521)"
       cx="60.591831"
       cy="52.972309"
       fx="60.591831"
       fy="52.972309"
       r="1.3782471" />
    <linearGradient
       inkscape:collect="always"
       xlink:href="#linearGradient3102"
       id="linearGradient1433"
       gradientUnits="userSpaceOnUse"
       x1="59.738506"
       y1="50.701153"
       x2="60.976448"
       y2="53.458496" />
    <linearGradient
       inkscape:collect="always"
       xlink:href="#linearGradient3146"
       id="linearGradient1435"
       gradientUnits="userSpaceOnUse"
       gradientTransform="translate(-4.866119e-3,3.125e-2)"
       x1="0.98285532"
       y1="13.795786"
       x2="43.895859"
       y2="52.84375" />
    <linearGradient
       inkscape:collect="always"
       xlink:href="#linearGradient2361"
       id="linearGradient1437"
       gradientUnits="userSpaceOnUse"
       gradientTransform="translate(-2.00502,1.031345)"
       x1="66.154953"
       y1="51.387379"
       x2="53.277599"
       y2="44.732384" />
    <linearGradient
       inkscape:collect="always"
       xlink:href="#linearGradient2361"
       id="linearGradient1439"
       gradientUnits="userSpaceOnUse"
       gradientTransform="translate(-2.00502,1.031345)"
       x1="66.154953"
       y1="51.387379"
       x2="51.531567"
       y2="50.700638" />
    <linearGradient
       inkscape:collect="always"
       xlink:href="#linearGradient2361"
       id="linearGradient1441"
       gradientUnits="userSpaceOnUse"
       gradientTransform="translate(-2.00502,1.031345)"
       x1="66.154953"
       y1="51.387379"
       x2="53.277599"
       y2="44.732384" />
    <linearGradient
       inkscape:collect="always"
       xlink:href="#linearGradient2421"
       id="linearGradient1443"
       gradientUnits="userSpaceOnUse"
       x1="68.282471"
       y1="27.008877"
       x2="68.581604"
       y2="49.440205" />
    <radialGradient
       inkscape:collect="always"
       xlink:href="#linearGradient2431"
       id="radialGradient1445"
       gradientUnits="userSpaceOnUse"
       gradientTransform="matrix(0.897143,-0.441741,1.176942,2.39028,-46.4721,-37.78196)"
       cx="53.440988"
       cy="44.15589"
       fx="53.440453"
       fy="44.43008"
       r="0.49049713" />
    <linearGradient
       inkscape:collect="always"
       xlink:href="#linearGradient2421"
       id="linearGradient1447"
       gradientUnits="userSpaceOnUse"
       x1="87.139626"
       y1="47.199352"
       x2="68.581604"
       y2="49.440205" />
    <radialGradient
       inkscape:collect="always"
       xlink:href="#linearGradient2448"
       id="radialGradient1449"
       gradientUnits="userSpaceOnUse"
       gradientTransform="matrix(3.176096,1.243234,-0.161979,0.413806,-178.5732,-75.86145)"
       cx="86.189568"
       cy="69.750397"
       fx="84.11425"
       fy="69.448006"
       r="14.095847" />
    <linearGradient
       inkscape:collect="always"
       xlink:href="#linearGradient2498"
       id="linearGradient1451"
       gradientUnits="userSpaceOnUse"
       x1="78.023369"
       y1="83.577705"
       x2="80.790154"
       y2="92.923302" />
    <radialGradient
       inkscape:collect="always"
       xlink:href="#linearGradient2511"
       id="radialGradient1453"
       gradientUnits="userSpaceOnUse"
       gradientTransform="matrix(1.130874,-8.724915e-3,4.339824e-3,0.562503,-11.77955,48.92933)"
       cx="85.515541"
       cy="107.11197"
       fx="85.39257"
       fy="110.28107"
       r="7.0469614" />
    <radialGradient
       inkscape:collect="always"
       xlink:href="#linearGradient2526"
       id="radialGradient1455"
       gradientUnits="userSpaceOnUse"
       gradientTransform="matrix(1.391592,1.875084e-2,-1.257938e-2,0.933579,-44.96183,2.317641)"
       cx="117"
       cy="67.921875"
       fx="118.24641"
       fy="69.529068"
       r="6.8125" />
    <linearGradient
       inkscape:collect="always"
       xlink:href="#linearGradient2526"
       id="linearGradient1457"
       gradientUnits="userSpaceOnUse"
       x1="111.75835"
       y1="46.732578"
       x2="111.01785"
       y2="52.409061" />
    <linearGradient
       inkscape:collect="always"
       xlink:href="#linearGradient2526"
       id="linearGradient1459"
       gradientUnits="userSpaceOnUse"
       x1="101.19637"
       y1="50.827087"
       x2="104.08511"
       y2="54.270203" />
    <linearGradient
       inkscape:collect="always"
       xlink:href="#linearGradient2526"
       id="linearGradient1461"
       gradientUnits="userSpaceOnUse"
       x1="104.244"
       y1="45.493752"
       x2="107.32321"
       y2="54.805279" />
    <radialGradient
       inkscape:collect="always"
       xlink:href="#linearGradient2448"
       id="radialGradient1463"
       gradientUnits="userSpaceOnUse"
       gradientTransform="matrix(2.384964,2.43827,-0.317677,0.310731,-100.9967,-141.9994)"
       cx="86.189568"
       cy="69.750397"
       fx="84.11425"
       fy="69.448006"
       r="14.095847" />
    <linearGradient
       inkscape:collect="always"
       xlink:href="#linearGradient2588"
       id="linearGradient1465"
       gradientUnits="userSpaceOnUse"
       x1="74.493172"
       y1="75.06472"
       x2="82.54422"
       y2="85.049599" />
    <linearGradient
       inkscape:collect="always"
       xlink:href="#linearGradient3146"
       id="linearGradient1467"
       gradientUnits="userSpaceOnUse"
       gradientTransform="translate(-4.866119e-3,3.125e-2)"
       x1="0.98285532"
       y1="13.795786"
       x2="43.895859"
       y2="52.84375" />
  </defs>
  <sodipodi:namedview
     id="base"
     pagecolor="#ffffff"
     bordercolor="#666666"
     borderopacity="1.0"
     inkscape:pageopacity="0.0"
     inkscape:pageshadow="2"
     inkscape:zoom="5.2356595"
     inkscape:cx="63.99762"
     inkscape:cy="63.984358"
     inkscape:current-layer="layer1"
     showgrid="true"
     inkscape:document-units="px"
     inkscape:grid-bbox="true"
     inkscape:window-width="1011"
     inkscape:window-height="836"
     inkscape:window-x="470"
     inkscape:window-y="118" />
  <metadata
     id="metadata1395">
    <rdf:RDF>
      <cc:Work
         rdf:about="">
        <dc:format>image/svg+xml</dc:format>
        <dc:type
           rdf:resource="http://purl.org/dc/dcmitype/StillImage" />
      </cc:Work>
    </rdf:RDF>
  </metadata>
  <g
     id="layer1"
     inkscape:label="Layer 1"
     inkscape:groupmode="layer">
    <rect
       style="fill:#242424;fill-opacity:0.52752291;fill-rule:nonzero;stroke:none;stroke-width:0.5;stroke-linecap:round;stroke-linejoin:round;stroke-miterlimit:4;stroke-dasharray:none;stroke-dashoffset:4;stroke-opacity:1"
       id="rect3138"
       width="1"
       height="0"
       x="-3.999846"
       y="19.999905"
       rx="8.6193495"
       ry="0" />
    <path
       sodipodi:type="arc"
       style="opacity:0.42790701;fill:url(#radialGradient2466);fill-opacity:1;fill-rule:nonzero;stroke:none;stroke-width:0.5;stroke-linecap:round;stroke-linejoin:round;stroke-miterlimit:4;stroke-dasharray:none;stroke-dashoffset:4;stroke-opacity:1"
       id="path2458"
       sodipodi:cx="74.380951"
       sodipodi:cy="122.09524"
       sodipodi:rx="51.523811"
       sodipodi:ry="4"
       d="M 125.90476 122.09524 A 51.523811 4 0 1 1  22.85714,122.09524 A 51.523811 4 0 1 1  125.90476 122.09524 z"
       transform="matrix(1.242144,0,0,1.428571,-28.39186,-52.13606)" />
    <g
       id="g1402"
       transform="scale(1.000039,1)">
      <path
         id="path1309"
         d="M 19.45539,0.1239682 C 20.127479,3.6738296 42.228552,36.923426 55.100038,54.284048 C 66.125763,69.155176 70.349146,76.899787 79.883823,87.265843 C 75.666681,88.909892 72.749621,90.639892 71.282315,93.261612 C 67.403644,100.19186 78.239909,114.23557 85.638342,114.45274 C 94.492054,114.7126 105.30435,106.47903 90.824081,91.290882 C 76.486674,76.258881 74.390453,73.111249 70.469917,62.135402 C 68.270593,56.831677 70.662935,55.277819 63.87301,46.222812 C 54.929771,34.296151 30.544672,6.2091361 19.45539,0.1239682 z M 79.67614,92.282172 C 80.360086,92.042559 81.128971,91.923008 81.998855,91.973806 C 84.476333,92.118491 87.314382,93.395887 89.149486,95.271228 C 99.54089,105.89047 90.35491,111.23722 84.408386,110.58545 C 79.439286,110.04081 72.898893,100.00651 75.883336,95.549793 C 76.699227,94.33141 77.894026,92.906513 79.67614,92.282172 z "
         style="fill:url(#linearGradient1427);fill-opacity:1;fill-rule:evenodd;stroke:#000000;stroke-width:0.18524641px;stroke-linecap:butt;stroke-linejoin:miter;stroke-opacity:1" />
      <path
         id="path1307"
         d="M 0.087876281,25.017394 C 2.6419418,29.107678 7.2286688,34.49276 12.959065,37.729024 C 25.808769,44.985938 42.043299,50.823331 55.827328,56.500244 C 66.292491,60.810294 67.199006,58.103411 72.884191,58.906687 C 84.491691,59.9582 88.065472,61.200456 106.20499,71.323699 C 124.53142,81.546235 129.79821,69.022362 127.33274,60.514878 C 125.27253,53.405768 108.97206,46.422715 103.23181,51.911065 C 101.06027,53.987313 99.87887,56.832969 99.57792,61.742175 C 87.157033,55.102386 78.595713,52.945759 61.440036,45.988767 C 41.412414,37.867143 3.6930222,24.7805 0.087876281,25.017394 z M 108.38977,53.747671 C 113.1135,52.232597 121.69581,56.369413 122.9133,60.570556 C 124.5784,66.316279 120.89345,76.285242 108.64478,67.875741 C 106.48169,66.390643 104.73697,63.812757 104.16821,61.397113 C 103.44817,58.338911 105.16984,56.160512 106.63644,54.758269 C 107.12104,54.294933 107.71496,53.964109 108.38977,53.747671 z "
         style="fill:#000000;fill-opacity:1;fill-rule:evenodd;stroke:#000000;stroke-width:0.18524641px;stroke-linecap:butt;stroke-linejoin:miter;stroke-opacity:1" />
      <path
         sodipodi:nodetypes="cccccccc"
         id="path2204"
         d="M 53.995134,45.03125 L 50.552581,52.916357 L 66.651384,59 L 66.682634,59 C 68.664946,58.907637 70.260723,58.537559 72.870134,58.90625 C 73.482597,58.961732 74.080334,59.035929 74.651384,59.09375 L 71.995134,52.03125 L 53.995134,45.03125 z "
         style="fill:url(#radialGradient1429);fill-opacity:1;fill-rule:evenodd;stroke:none;stroke-width:1px;stroke-linecap:butt;stroke-linejoin:miter;stroke-opacity:1" />
      <g
         transform="translate(0,-0.571429)"
         id="g2548">
        <path
           sodipodi:type="arc"
           style="fill:url(#radialGradient1431);fill-opacity:1;fill-rule:nonzero;stroke:none;stroke-width:0.5;stroke-linecap:round;stroke-linejoin:round;stroke-miterlimit:4;stroke-dasharray:none;stroke-dashoffset:4;stroke-opacity:1"
           id="path3118"
           sodipodi:cx="60.591831"
           sodipodi:cy="52.972305"
           sodipodi:rx="1.3782471"
           sodipodi:ry="1.153644"
           d="M 61.970078 52.972305 A 1.3782471 1.153644 0 1 1  59.213584,52.972305 A 1.3782471 1.153644 0 1 1  61.970078 52.972305 z"
           transform="matrix(0.820758,1.303264,-1.50418,0.554397,91.01519,-54.87731)" />
        <path
           sodipodi:type="arc"
           style="fill:#ffffff;fill-opacity:0.52752291;fill-rule:nonzero;stroke:url(#linearGradient1433);stroke-width:0.5;stroke-linecap:round;stroke-linejoin:round;stroke-miterlimit:4;stroke-dasharray:none;stroke-dashoffset:4;stroke-opacity:1"
           id="path3100"
           sodipodi:cx="60.408524"
           sodipodi:cy="52.028355"
           sodipodi:rx="1.1063832"
           sodipodi:ry="1.180142"
           d="M 61.514907 52.028355 A 1.1063832 1.180142 0 1 1  59.30214,52.028355 A 1.1063832 1.180142 0 1 1  61.514907 52.028355 z"
           transform="matrix(1.434042,0,0,1.391402,-25.68812,-19.77113)" />
      </g>
      <path
         sodipodi:nodetypes="csccc"
         id="path3136"
         d="M 0.97798923,25.305642 C 3.7622866,29.269889 7.2162483,33.198468 12.588494,36.232465 C 23.375589,42.324513 37.919215,48.036581 50.026384,52.875 L 52.838884,42.59375 C 32.450948,34.779225 4.7518065,25.368172 0.97798923,25.305642 z "
         style="opacity:0.92558139;fill:url(#linearGradient1435);fill-opacity:1;fill-rule:evenodd;stroke:none;stroke-width:0.18524641px;stroke-linecap:butt;stroke-linejoin:miter;stroke-opacity:1" />
      <path
         sodipodi:nodetypes="ccccc"
         id="path3159"
         d="M 52.938707,43.315708 L 51.354297,49.158017 L 50.52623,53.031345 L 53.628035,44.804972 L 52.938707,43.315708 z "
         style="fill:url(#linearGradient1437);fill-opacity:1;fill-rule:evenodd;stroke:none;stroke-width:1px;stroke-linecap:butt;stroke-linejoin:miter;stroke-opacity:1" />
      <path
         style="fill:url(#linearGradient1439);fill-opacity:1;fill-rule:evenodd;stroke:none;stroke-width:1px;stroke-linecap:butt;stroke-linejoin:miter;stroke-opacity:1"
         d="M 52.938707,43.315708 L 51.354297,49.158017 L 50.52623,53.031345 L 53.747451,44.924388 L 52.938707,43.315708 z "
         id="path2373"
         sodipodi:nodetypes="ccccc" />
      <path
         sodipodi:nodetypes="ccccc"
         id="path2375"
         d="M 52.938707,43.315708 L 50.578093,52.830059 L 50.615792,53.091053 L 53.866867,44.924388 L 52.938707,43.315708 z "
         style="fill:url(#linearGradient1441);fill-opacity:1;fill-rule:evenodd;stroke:none;stroke-width:1px;stroke-linecap:butt;stroke-linejoin:miter;stroke-opacity:1" />
      <path
         style="fill:url(#linearGradient1443);fill-opacity:1;fill-rule:evenodd;stroke:none;stroke-width:1px;stroke-linecap:butt;stroke-linejoin:miter;stroke-opacity:1"
         d="M 53.864647,44.946684 L 52.957608,43.315247 L 72.736229,50.198706 C 72.736229,50.198706 75.003927,58.058007 74.651384,59.09375 L 71.995134,52.03125 L 53.864647,44.946684 z "
         id="path2399"
         sodipodi:nodetypes="cccccc" />
      <path
         sodipodi:nodetypes="csssc"
         id="path2429"
         d="M 52.950491,43.303193 C 52.950491,43.303193 53.606921,44.315198 53.856387,44.724207 C 53.951861,44.88074 53.952972,45.002858 53.87859,45.008409 C 53.804209,45.013959 53.645455,44.889621 53.558862,44.74641 C 53.310975,44.336442 52.950491,43.303193 52.950491,43.303193 z "
         style="opacity:0.65581396;fill:url(#radialGradient1445);fill-opacity:1;fill-rule:evenodd;stroke:none;stroke-width:1px;stroke-linecap:butt;stroke-linejoin:miter;stroke-opacity:1" />
      <path
         sodipodi:nodetypes="cccccc"
         id="path2439"
         d="M 53.864647,44.946684 L 52.957608,43.315247 L 72.736229,50.198706 C 72.736229,50.198706 75.003927,58.058007 74.651384,59.09375 L 71.995134,52.03125 L 53.864647,44.946684 z "
         style="opacity:1;fill:url(#linearGradient1447);fill-opacity:1;fill-rule:evenodd;stroke:none;stroke-width:1px;stroke-linecap:butt;stroke-linejoin:miter;stroke-opacity:1" />
      <path
         sodipodi:nodetypes="cccccc"
         id="path2443"
         d="M 72.886476,50.710325 C 73.115067,51.551481 73.340164,52.388731 73.563103,53.229887 C 74.22345,53.231852 77.257428,58.958997 78.071712,59.07405 C 88.480316,60.016955 87.072036,58.953046 100.85608,66.46875 L 99.50411,62.21712 C 89.031779,56.618962 82.437132,54.210426 72.886476,50.710325 z "
         style="opacity:0.72558139;fill:url(#radialGradient1449);fill-opacity:1;fill-rule:evenodd;stroke:none;stroke-width:0.18524641px;stroke-linecap:butt;stroke-linejoin:miter;stroke-opacity:1" />
      <path
         sodipodi:nodetypes="cccsc"
         id="path2488"
         d="M 83.433972,89.756868 C 82.245279,89.121532 81.671427,88.609164 80.421249,87.543439 C 78.023368,88.383722 72.612764,91.191497 72.059407,93.138495 C 73.268595,92.728601 76.07637,90.59715 78.36153,89.80298 C 80.646691,89.00881 81.855879,89.490436 83.433972,89.756868 z "
         style="opacity:0.81395353;fill:url(#linearGradient1451);fill-opacity:1;fill-rule:evenodd;stroke:none;stroke-width:1px;stroke-linecap:butt;stroke-linejoin:miter;stroke-opacity:1" />
      <path
         id="path2506"
         d="M 78.345782,106.49898 C 78.345393,106.52211 78.345782,106.53828 78.345782,106.56148 C 78.345782,109.53116 81.533829,111.96773 85.470782,111.96773 C 88.884857,111.96773 91.741057,110.13582 92.439532,107.71773 C 90.575647,109.96363 87.064908,110.96011 84.283282,110.65523 C 82.320487,110.4401 80.115045,108.74677 78.345782,106.49898 z "
         style="opacity:0.77674417;fill:url(#radialGradient1453);fill-opacity:1;fill-rule:nonzero;stroke:none;stroke-width:0.5;stroke-linecap:round;stroke-linejoin:round;stroke-miterlimit:4;stroke-dasharray:none;stroke-dashoffset:4;stroke-opacity:1" />
      <path
         id="path2521"
         d="M 123.28125,63.65625 C 123.12909,68.821414 119.30644,74.3152 110.1875,68.875 C 111.40403,70.83171 113.79223,72.187503 116.5625,72.1875 C 120.55793,72.1875 123.8125,69.417146 123.8125,66 C 123.8125,65.172411 123.62628,64.378063 123.28125,63.65625 z "
         style="opacity:0.79534882;fill:url(#radialGradient1455);fill-opacity:1;fill-rule:nonzero;stroke:none;stroke-width:0.5;stroke-linecap:round;stroke-linejoin:round;stroke-miterlimit:4;stroke-dasharray:none;stroke-dashoffset:4;stroke-opacity:1" />
      <path
         sodipodi:nodetypes="ccssc"
         style="opacity:0.76744187;fill:url(#linearGradient1457);fill-opacity:1;fill-rule:nonzero;stroke:none;stroke-width:0.5;stroke-linecap:round;stroke-linejoin:round;stroke-miterlimit:4;stroke-dasharray:none;stroke-dashoffset:4;stroke-opacity:1"
         d="M 99.979259,59.358074 C 103.70446,50.454096 111.00252,51.220446 118.18324,52.450438 C 116.02059,51.308417 110.91068,49.867886 107.47702,50.347042 C 103.51993,50.899239 101.35049,54.015462 100.48269,57.396601 L 99.979259,59.358074 z "
         id="path2534" />
      <path
         id="path2540"
         d="M 99.979259,59.358074 C 103.70446,50.454096 111.00252,51.220446 118.18324,52.450438 C 116.02059,51.308417 110.91068,49.867886 107.47702,50.347042 C 103.51993,50.899239 101.35049,54.015462 100.48269,57.396601 L 99.979259,59.358074 z "
         style="opacity:0.76744187;fill:url(#linearGradient1459);fill-opacity:1;fill-rule:nonzero;stroke:none;stroke-width:0.5;stroke-linecap:round;stroke-linejoin:round;stroke-miterlimit:4;stroke-dasharray:none;stroke-dashoffset:4;stroke-opacity:1"
         sodipodi:nodetypes="ccssc" />
      <path
         sodipodi:nodetypes="ccssc"
         style="opacity:0.76744187;fill:url(#linearGradient1461);fill-opacity:1;fill-rule:nonzero;stroke:none;stroke-width:0.5;stroke-linecap:round;stroke-linejoin:round;stroke-miterlimit:4;stroke-dasharray:none;stroke-dashoffset:4;stroke-opacity:1"
         d="M 99.979259,59.358074 C 103.70446,50.454096 111.00252,51.220446 118.18324,52.450438 C 116.02059,51.308417 110.91068,49.867886 107.47702,50.347042 C 103.51993,50.899239 101.35049,54.015462 100.48269,57.396601 L 99.979259,59.358074 z "
         id="path2544" />
      <path
         style="opacity:0.6;fill:url(#radialGradient1463);fill-opacity:1;fill-rule:evenodd;stroke:none;stroke-width:0.18524641px;stroke-linecap:butt;stroke-linejoin:miter;stroke-opacity:1"
         d="M 76.365502,75.064721 L 73.340676,77.9616 C 74.155341,78.399633 87.268779,90.65138 95.292591,102.55971 L 97.262394,106.4381 C 99.052373,95.758152 83.574455,86.728708 76.365502,75.064721 z "
         id="path2556"
         sodipodi:nodetypes="ccccc" />
      <path
         sodipodi:nodetypes="ccccc"
         id="path2562"
         d="M 76.183529,74.700775 L 73.340676,77.9616 C 74.155341,78.399633 87.268779,90.65138 95.292591,102.55971 L 97.262394,106.4381 C 99.052373,95.758152 83.392482,86.364762 76.183529,74.700775 z "
         style="opacity:1;fill:url(#linearGradient1465);fill-opacity:1;fill-rule:evenodd;stroke:none;stroke-width:0.18524641px;stroke-linecap:butt;stroke-linejoin:miter;stroke-opacity:1" />
      <path
         id="path1402"
         d="M 0.96875,25.3125 C 3.7530473,29.276748 7.2215043,33.184753 12.59375,36.21875 C 15.056815,37.609774 17.718954,38.998224 20.5,40.34375 C 24.039875,38.865282 27.311457,36.958635 30.75,34.5 C 16.391836,29.459324 3.4600591,25.35378 0.96875,25.3125 z M 34.78125,35.9375 C 31.676948,38.366933 28.961129,40.732859 26.09375,42.96875 C 34.016813,46.533952 42.503409,49.86663 50.03125,52.875 L 52.84375,42.59375 C 47.167564,40.418115 40.916761,38.12444 34.78125,35.9375 z "
         style="opacity:0.26046514;fill:url(#linearGradient1467);fill-opacity:1;fill-rule:evenodd;stroke:none;stroke-width:0.18524641px;stroke-linecap:butt;stroke-linejoin:miter;stroke-opacity:1" />
    </g>
  </g>
</svg>
