<?xml version="1.0" encoding="UTF-8" standalone="no"?>
<!-- Created with Inkscape (http://www.inkscape.org/) -->
<svg
   xmlns:dc="http://purl.org/dc/elements/1.1/"
   xmlns:cc="http://web.resource.org/cc/"
   xmlns:rdf="http://www.w3.org/1999/02/22-rdf-syntax-ns#"
   xmlns:svg="http://www.w3.org/2000/svg"
   xmlns="http://www.w3.org/2000/svg"
   xmlns:xlink="http://www.w3.org/1999/xlink"
   xmlns:sodipodi="http://sodipodi.sourceforge.net/DTD/sodipodi-0.dtd"
   xmlns:inkscape="http://www.inkscape.org/namespaces/inkscape"
   width="128"
   height="128"
   id="svg1307"
   sodipodi:version="0.32"
   inkscape:version="0.44"
   version="1.0"
   sodipodi:docbase="/home/pinheiro/artwork/Oxygen/theme/svg/actions"
   sodipodi:docname="exec.svg">
  <defs
     id="defs1309">
    <linearGradient
       id="linearGradient3149">
      <stop
         style="stop-color:#8e8e8e;stop-opacity:1;"
         offset="0"
         id="stop3151" />
      <stop
         style="stop-color:#f8f8f8;stop-opacity:1;"
         offset="1"
         id="stop3153" />
    </linearGradient>
    <linearGradient
       id="linearGradient3139">
      <stop
         style="stop-color:#000000;stop-opacity:1;"
         offset="0"
         id="stop3141" />
      <stop
         id="stop3162"
         offset="0.40659341"
         style="stop-color:#000000;stop-opacity:0.68235294;" />
      <stop
         style="stop-color:#000000;stop-opacity:0.48736462;"
         offset="0.45329672"
         id="stop3164" />
      <stop
         id="stop3158"
         offset="0.5"
         style="stop-color:#000000;stop-opacity:0.36101082;" />
      <stop
         style="stop-color:#000000;stop-opacity:0.15162455;"
         offset="0.70604396"
         id="stop3160" />
      <stop
         style="stop-color:#000000;stop-opacity:0;"
         offset="1"
         id="stop3143" />
    </linearGradient>
    <linearGradient
       id="linearGradient3075">
      <stop
         style="stop-color:#ffffff;stop-opacity:1;"
         offset="0"
         id="stop3077" />
      <stop
         id="stop3093"
         offset="0.42597079"
         style="stop-color:#ffffff;stop-opacity:1;" />
      <stop
         id="stop3085"
         offset="0.5892781"
         style="stop-color:#f1f1f1;stop-opacity:1;" />
      <stop
         style="stop-color:#eaeaea;stop-opacity:1;"
         offset="0.80219781"
         id="stop3087" />
      <stop
         style="stop-color:#dfdfdf;stop-opacity:1;"
         offset="1"
         id="stop3079" />
    </linearGradient>
    <linearGradient
       id="linearGradient3291"
       inkscape:collect="always">
      <stop
         id="stop3293"
         offset="0"
         style="stop-color:#000000;stop-opacity:1;" />
      <stop
         id="stop3295"
         offset="1"
         style="stop-color:#000000;stop-opacity:0;" />
    </linearGradient>
    <linearGradient
       id="linearGradient2287">
      <stop
         style="stop-color:#000000;stop-opacity:0;"
         offset="0"
         id="stop2299" />
      <stop
         id="stop2307"
         offset="0.4375"
         style="stop-color:#000000;stop-opacity:0;" />
      <stop
         style="stop-color:#000000;stop-opacity:0;"
         offset="0.58240438"
         id="stop2309" />
      <stop
         id="stop2419"
         offset="0.76442307"
         style="stop-color:#000000;stop-opacity:0.49803922;" />
      <stop
         style="stop-color:#000000;stop-opacity:1;"
         offset="0.875"
         id="stop2303" />
      <stop
         id="stop2413"
         offset="0.91826922"
         style="stop-color:#000000;stop-opacity:0.49803922;" />
      <stop
         style="stop-color:#000000;stop-opacity:0;"
         offset="0.96048182"
         id="stop2417" />
      <stop
         id="stop2291"
         offset="1"
         style="stop-color:#000000;stop-opacity:0;" />
    </linearGradient>
    <linearGradient
       id="linearGradient2321">
      <stop
         id="stop2323"
         offset="0"
         style="stop-color:#c3c3c3;stop-opacity:1;" />
      <stop
         id="stop2325"
         offset="1"
         style="stop-color:#ffffff;stop-opacity:1;" />
    </linearGradient>
    <linearGradient
       id="linearGradient2362"
       inkscape:collect="always">
      <stop
         id="stop2364"
         offset="0"
         style="stop-color:#ffffff;stop-opacity:1;" />
      <stop
         id="stop2366"
         offset="1"
         style="stop-color:#ffffff;stop-opacity:0;" />
    </linearGradient>
    <linearGradient
       id="linearGradient2389">
      <stop
         id="stop2391"
         offset="0"
         style="stop-color:#000000;stop-opacity:0;" />
      <stop
         style="stop-color:#000000;stop-opacity:0;"
         offset="0.4375"
         id="stop2393" />
      <stop
         id="stop2395"
         offset="0.56588125"
         style="stop-color:#000000;stop-opacity:0;" />
      <stop
         style="stop-color:#000000;stop-opacity:0.24705882;"
         offset="0.76237977"
         id="stop2423" />
      <stop
         style="stop-color:#000000;stop-opacity:0.49803922;"
         offset="0.77884614"
         id="stop2421" />
      <stop
         id="stop2397"
         offset="0.875"
         style="stop-color:#000000;stop-opacity:1;" />
      <stop
         style="stop-color:#000000;stop-opacity:0.49803922;"
         offset="0.875"
         id="stop2411" />
      <stop
         style="stop-color:#000000;stop-opacity:0;"
         offset="1"
         id="stop2399" />
    </linearGradient>
    <radialGradient
       inkscape:collect="always"
       xlink:href="#linearGradient2287"
       id="radialGradient1976"
       gradientUnits="userSpaceOnUse"
       cx="95.796135"
       cy="56.931728"
       fx="95.990845"
       fy="39.602753"
       r="47.11924" />
    <radialGradient
       inkscape:collect="always"
       xlink:href="#linearGradient3291"
       id="radialGradient1978"
       gradientUnits="userSpaceOnUse"
       gradientTransform="matrix(1,0,0,0.197802,0,92.82166)"
       cx="63.912209"
       cy="115.70919"
       fx="63.912209"
       fy="115.7093"
       r="63.912209" />
    <linearGradient
       inkscape:collect="always"
       xlink:href="#linearGradient2321"
       id="linearGradient1980"
       gradientUnits="userSpaceOnUse"
       x1="-42.789177"
       y1="82.913582"
       x2="229.1772"
       y2="81.155327" />
    <radialGradient
       inkscape:collect="always"
       xlink:href="#linearGradient2389"
       id="radialGradient1982"
       gradientUnits="userSpaceOnUse"
       gradientTransform="matrix(1.165294,0,0,1.180294,-9.816118,-9.597466)"
       cx="59.385818"
       cy="52.046673"
       fx="59.385818"
       fy="52.046673"
       r="43.225086" />
    <linearGradient
       inkscape:collect="always"
       xlink:href="#linearGradient2362"
       id="linearGradient1988"
       gradientUnits="userSpaceOnUse"
       gradientTransform="matrix(1.255319,0,0,1.234629,-15.25875,-11.03777)"
       x1="74.514832"
       y1="17.232468"
       x2="52.587749"
       y2="99.06546" />
  </defs>
  <sodipodi:namedview
     id="base"
     pagecolor="#ffffff"
     bordercolor="#666666"
     borderopacity="1.0"
     inkscape:pageopacity="0.0"
     inkscape:pageshadow="2"
     inkscape:zoom="3.9221969"
     inkscape:cx="21.776688"
     inkscape:cy="38.629535"
     inkscape:current-layer="layer1"
     showgrid="true"
     inkscape:document-units="px"
     inkscape:grid-bbox="true"
     showguides="true"
     inkscape:guide-bbox="true"
     inkscape:window-width="1270"
     inkscape:window-height="1011"
     inkscape:window-x="643"
     inkscape:window-y="81">
    <sodipodi:guide
       orientation="vertical"
       position="202.69253"
       id="guide2829" />
  </sodipodi:namedview>
  <metadata
     id="metadata1312">
    <rdf:RDF>
      <cc:Work
         rdf:about="">
        <dc:format>image/svg+xml</dc:format>
        <dc:type
           rdf:resource="http://purl.org/dc/dcmitype/StillImage" />
      </cc:Work>
    </rdf:RDF>
  </metadata>
  <g
     id="layer1"
     inkscape:label="Layer 1"
     inkscape:groupmode="layer">
    <rect
       style="opacity:0.57786889;fill:#ffffff;fill-opacity:1;fill-rule:nonzero;stroke:none;stroke-width:3.63199997;stroke-linecap:round;stroke-linejoin:round;stroke-miterlimit:4;stroke-dasharray:none;stroke-dashoffset:4;stroke-opacity:1"
       id="rect1327"
       width="1"
       height="0"
       x="116"
       y="77" />
    <path
       sodipodi:nodetypes="ccc"
       id="path2276"
       d="M -42.937421,3.7839329 L -42.937421,0.98922447 L -42.937421,3.7839329 z "
       style="fill:#ffffff;fill-opacity:0.75688076;fill-rule:nonzero;stroke:none;stroke-width:0.5;stroke-linecap:round;stroke-linejoin:round;stroke-miterlimit:4;stroke-dasharray:none;stroke-dashoffset:4;stroke-opacity:1" />
    <g
       style="opacity:0.40163933"
       transform="matrix(-0.782995,0,0,0.650879,-2365.796,690.3016)"
       id="g4640" />
    <g
       id="g4646"
       transform="matrix(-0.782995,0,0,0.650879,-2365.796,690.3016)"
       style="opacity:0.40163933" />
    <g
       id="g4730"
       transform="matrix(1,0,0,0.650879,835.167,697.6294)"
       style="opacity:0.40163933" />
    <g
       style="opacity:0.40163933"
       transform="matrix(1,0,0,0.650879,835.167,697.6294)"
       id="g4748" />
    <path
       sodipodi:nodetypes="ccc"
       id="path2709"
       d="M -106.61571,43.366819 L -106.61571,40.57211 L -106.61571,43.366819 z "
       style="fill:white;fill-opacity:0.75688076;fill-rule:nonzero;stroke:none;stroke-width:0.5;stroke-linecap:round;stroke-linejoin:round;stroke-miterlimit:4;stroke-dasharray:none;stroke-dashoffset:4;stroke-opacity:1" />
    <path
       sodipodi:nodetypes="ccc"
       id="path7919"
       d="M 128.55579,63.703439 L 128.55579,60.90873 L 128.55579,63.703439 z "
       style="fill:white;fill-opacity:0.75688076;fill-rule:nonzero;stroke:none;stroke-width:0.5;stroke-linecap:round;stroke-linejoin:round;stroke-miterlimit:4;stroke-dasharray:none;stroke-dashoffset:4;stroke-opacity:1" />
    <path
       sodipodi:nodetypes="ccc"
       id="path3206"
       d="M 9.053588,-22.926811 L 9.053588,-25.72152 L 9.053588,-22.926811 z "
       style="fill:white;fill-opacity:0.75688076;fill-rule:nonzero;stroke:none;stroke-width:0.5;stroke-linecap:round;stroke-linejoin:round;stroke-miterlimit:4;stroke-dasharray:none;stroke-dashoffset:4;stroke-opacity:1" />
    <path
       sodipodi:nodetypes="ccc"
       id="path3946"
       d="M 255.64499,42.828459 L 255.64499,40.03375 L 255.64499,42.828459 z "
       style="fill:white;fill-opacity:0.75688076;fill-rule:nonzero;stroke:none;stroke-width:0.5;stroke-linecap:round;stroke-linejoin:round;stroke-miterlimit:4;stroke-dasharray:none;stroke-dashoffset:4;stroke-opacity:1" />
    <path
       sodipodi:nodetypes="ccc"
       id="path1561"
       d="M 163.02054,116.72214 L 163.02054,115.1954 L 163.02054,116.72214 z "
       style="fill:white;fill-opacity:0.75688076;fill-rule:nonzero;stroke:none;stroke-width:0.5;stroke-linecap:round;stroke-linejoin:round;stroke-miterlimit:4;stroke-dasharray:none;stroke-dashoffset:4;stroke-opacity:1" />
    <rect
       style="opacity:0.57786889;fill:white;fill-opacity:1;fill-rule:nonzero;stroke:none;stroke-width:3.63199997;stroke-linecap:round;stroke-linejoin:round;stroke-miterlimit:4;stroke-dasharray:none;stroke-dashoffset:4;stroke-opacity:1"
       id="rect2732"
       width="1"
       height="0"
       x="105.5358"
       y="60.122154" />
    <rect
       style="opacity:0.57786889;fill:white;fill-opacity:1;fill-rule:nonzero;stroke:none;stroke-width:3.63199997;stroke-linecap:round;stroke-linejoin:round;stroke-miterlimit:4;stroke-dasharray:none;stroke-dashoffset:4;stroke-opacity:1"
       id="rect2482"
       width="1"
       height="0"
       x="70.408981"
       y="32.594543" />
    <path
       sodipodi:nodetypes="ccc"
       id="path4845"
       d="M -88.528432,-40.621527 L -88.528432,-43.416237 L -88.528432,-40.621527 z "
       style="fill:white;fill-opacity:0.75688076;fill-rule:nonzero;stroke:none;stroke-width:0.5;stroke-linecap:round;stroke-linejoin:round;stroke-miterlimit:4;stroke-dasharray:none;stroke-dashoffset:4;stroke-opacity:1" />
    <path
       sodipodi:nodetypes="ccc"
       id="path3898"
       d="M -79.826501,-67.179254 L -79.826501,-69.973963 L -79.826501,-67.179254 z "
       style="fill:white;fill-opacity:0.75688076;fill-rule:nonzero;stroke:none;stroke-width:0.5;stroke-linecap:round;stroke-linejoin:round;stroke-miterlimit:4;stroke-dasharray:none;stroke-dashoffset:4;stroke-opacity:1" />
    <text
       xml:space="preserve"
       style="font-size:3px;font-style:normal;font-variant:normal;font-weight:normal;font-stretch:normal;text-align:start;line-height:125%;writing-mode:lr-tb;text-anchor:start;opacity:0.17213117;fill:black;fill-opacity:1;stroke:none;stroke-width:1px;stroke-linecap:butt;stroke-linejoin:miter;stroke-opacity:1;font-family:Bitstream Vera Sans"
       id="text2478"
       sodipodi:linespacing="125%"
       transform="translate(-130.7193,-70.46055)"
       x="-209.68655"
       y="-96.51318"><tspan
         style="font-size:3px;font-style:normal;font-variant:normal;font-weight:normal;font-stretch:normal;text-align:start;line-height:125%;writing-mode:lr-tb;text-anchor:start;font-family:Bitstream Vera Sans"
         id="tspan2480">oxygen nยบ 13                   kde 4 2007</tspan></text>
    <path
       sodipodi:type="arc"
       style="opacity:0.38934422;fill:url(#radialGradient1976);fill-opacity:1;fill-rule:nonzero;stroke:none;stroke-width:0.71249998;stroke-linecap:square;stroke-linejoin:miter;stroke-miterlimit:4;stroke-dasharray:none;stroke-dashoffset:4;stroke-opacity:1"
       id="path1410"
       sodipodi:cx="95.796135"
       sodipodi:cy="56.931728"
       sodipodi:rx="47.11924"
       sodipodi:ry="47.11924"
       d="M 142.91537 56.931728 A 47.11924 47.11924 0 1 1  48.676895,56.931728 A 47.11924 47.11924 0 1 1  142.91537 56.931728 z"
       transform="matrix(1.351283,0,0,1.329013,-65.63669,-12.92546)" />
    <path
       sodipodi:type="arc"
       style="opacity:0.38139535;fill:url(#radialGradient1978);fill-opacity:1;fill-rule:nonzero;stroke:none;stroke-width:0;stroke-linecap:round;stroke-linejoin:round;stroke-miterlimit:4;stroke-dasharray:none;stroke-dashoffset:4;stroke-opacity:1"
       id="path4837"
       sodipodi:cx="63.912209"
       sodipodi:cy="115.70919"
       sodipodi:rx="63.912209"
       sodipodi:ry="12.641975"
       d="M 127.82442 115.70919 A 63.912209 12.641975 0 1 1  0,115.70919 A 63.912209 12.641975 0 1 1  127.82442 115.70919 z"
       transform="matrix(0.997649,0,0,0.408837,1.198884e-4,75.16483)" />
    <path
       sodipodi:type="arc"
       style="fill:url(#linearGradient1980);fill-opacity:1;fill-rule:nonzero;stroke:none;stroke-width:0.71249998;stroke-linecap:square;stroke-linejoin:miter;stroke-miterlimit:4;stroke-dasharray:none;stroke-dashoffset:4;stroke-opacity:1"
       id="path2311"
       sodipodi:cx="59.385818"
       sodipodi:cy="53.232281"
       sodipodi:rx="43.225086"
       sodipodi:ry="43.809208"
       d="M 102.6109 53.232281 A 43.225086 43.809208 0 1 1  16.160732,53.232281 A 43.225086 43.809208 0 1 1  102.6109 53.232281 z"
       transform="matrix(1.299952,0,0,1.300479,-13.26542,-9.013924)" />
    <path
       transform="matrix(1.299952,0,0,1.305585,-13.26542,-8.894231)"
       d="M 102.6109 53.232281 A 43.225086 43.809208 0 1 1  16.160732,53.232281 A 43.225086 43.809208 0 1 1  102.6109 53.232281 z"
       sodipodi:ry="43.809208"
       sodipodi:rx="43.225086"
       sodipodi:cy="53.232281"
       sodipodi:cx="59.385818"
       id="path2338"
       style="opacity:0.38114756;fill:url(#radialGradient1982);fill-opacity:1;fill-rule:nonzero;stroke:none;stroke-width:0.71249998;stroke-linecap:square;stroke-linejoin:miter;stroke-miterlimit:4;stroke-dasharray:none;stroke-dashoffset:4;stroke-opacity:1"
       sodipodi:type="arc" />
    <path
       style="fill:#8eb700;fill-opacity:1;fill-rule:nonzero;stroke:none;stroke-width:0.30000001;stroke-linecap:round;stroke-linejoin:round;stroke-miterlimit:4;stroke-dasharray:none;stroke-dashoffset:4;stroke-opacity:1"
       d="M 63.980504,16.713722 C 61.951375,16.732346 59.89918,16.926184 57.905065,17.249791 L 56.058606,31.544944 C 54.187086,32.149367 52.342553,32.945247 50.578798,33.987033 C 48.815063,35.028801 47.246483,36.273112 45.813747,37.620384 L 32.352477,32.319264 C 31.119435,33.899441 29.971857,35.583972 28.957378,37.382132 C 27.936475,39.191594 27.113666,41.03685 26.396164,42.921503 L 37.891849,51.736848 C 37.072812,55.578545 37.099173,59.611902 38.010975,63.53035 L 26.693979,72.524383 C 28.202556,76.275382 30.29653,79.820491 32.888546,83.007491 L 46.290251,77.527688 C 49.23551,80.168854 52.665127,82.105772 56.356422,83.245743 L 58.679385,97.60046 C 62.747537,98.171069 66.839611,98.129719 70.830265,97.481334 L 72.676723,83.186179 C 74.560596,82.580637 76.381569,81.732935 78.156532,80.684528 C 79.931494,79.636141 81.541452,78.408791 82.981146,77.051182 L 96.382852,82.411859 C 97.624987,80.823134 98.757068,79.158492 99.777951,77.348998 C 100.79243,75.550879 101.62423,73.682099 102.33916,71.809626 L 90.903044,62.994281 C 91.72206,59.152586 91.695737,55.119213 90.783917,51.20078 L 102.04135,42.147183 C 100.533,38.398848 98.496686,34.908603 95.906347,31.723633 L 82.623768,37.322568 C 79.565024,34.536973 75.951266,32.512154 72.081092,31.366254 L 70.055944,17.130665 C 68.023136,16.845559 66.009615,16.695098 63.980504,16.713722 z M 64.397445,43.934077 C 71.794959,43.934077 77.799152,49.938252 77.799152,57.335783 C 77.799152,64.733314 71.794978,70.737489 64.397445,70.737489 C 56.999894,70.737487 50.995741,64.733316 50.995741,57.335783 C 50.995721,49.938252 56.999914,43.934077 64.397445,43.934077 z "
       id="path2827" />
    <path
       style="opacity:0.84426228;fill:url(#linearGradient1988);fill-opacity:1;fill-rule:nonzero;stroke:none;stroke-width:0.71249998;stroke-linecap:square;stroke-linejoin:miter;stroke-miterlimit:4;stroke-dashoffset:4;stroke-opacity:1"
       d="M 62.570969,4.4337173 C 34.188896,5.1317583 11.377484,27.668943 11.377484,52.15992 C 11.377484,55.950183 11.917772,59.637979 12.946639,63.155843 C 47.190574,56.634286 81.239919,56.715201 115.17668,62.229875 C 116.03704,58.995868 116.47125,55.616447 116.47125,52.15992 C 116.47125,27.280198 92.951754,4.4337173 63.943971,4.4337173 C 63.490722,4.4337173 63.02147,4.422637 62.570969,4.4337173 z "
       id="path2342" />
    <path
       id="path1965"
       d="M 63.980504,16.713722 C 61.951375,16.732346 59.89918,16.926184 57.905065,17.249791 L 56.058606,31.544944 C 54.187086,32.149367 52.342553,32.945247 50.578798,33.987033 C 48.815063,35.028801 47.246483,36.273112 45.813747,37.620384 L 32.352477,32.319264 C 31.119435,33.899441 29.971857,35.583972 28.957378,37.382132 C 27.936475,39.191594 27.113666,41.03685 26.396164,42.921503 L 37.891849,51.736848 C 37.072812,55.578545 37.099173,59.611902 38.010975,63.53035 L 26.693979,72.524383 C 28.202556,76.275382 30.29653,79.820491 32.888546,83.007491 L 46.290251,77.527688 C 49.23551,80.168854 52.665127,82.105772 56.356422,83.245743 L 58.679385,97.60046 C 62.747537,98.171069 66.839611,98.129719 70.830265,97.481334 L 72.676723,83.186179 C 74.560596,82.580637 76.381569,81.732935 78.156532,80.684528 C 79.931494,79.636141 81.541452,78.408791 82.981146,77.051182 L 96.382852,82.411859 C 97.624987,80.823134 98.757068,79.158492 99.777951,77.348998 C 100.79243,75.550879 101.62423,73.682099 102.33916,71.809626 L 90.903044,62.994281 C 91.72206,59.152586 91.695737,55.119213 90.783917,51.20078 L 102.04135,42.147183 C 100.533,38.398848 98.496686,34.908603 95.906347,31.723633 L 82.623768,37.322568 C 79.565024,34.536973 75.951266,32.512154 72.081092,31.366254 L 70.055944,17.130665 C 68.023136,16.845559 66.009615,16.695098 63.980504,16.713722 z M 64.397445,43.934077 C 71.794959,43.934077 77.799152,49.938252 77.799152,57.335783 C 77.799152,64.733314 71.794978,70.737489 64.397445,70.737489 C 56.999894,70.737487 50.995741,64.733316 50.995741,57.335783 C 50.995721,49.938252 56.999914,43.934077 64.397445,43.934077 z "
       style="opacity:0.47999998;fill:#8eb700;fill-opacity:1;fill-rule:nonzero;stroke:none;stroke-width:0.30000001;stroke-linecap:round;stroke-linejoin:round;stroke-miterlimit:4;stroke-dasharray:none;stroke-dashoffset:4;stroke-opacity:1" />
    <path
       style="opacity:0.75;fill:#84aa00;fill-opacity:1;fill-rule:nonzero;stroke:none;stroke-width:0.30000001;stroke-linecap:round;stroke-linejoin:round;stroke-miterlimit:4;stroke-dasharray:none;stroke-dashoffset:4;stroke-opacity:1"
       d="M 65.061321,16.730764 C 65.568004,16.741761 66.057259,16.753768 66.565608,16.783151 C 66.06569,16.753747 65.562167,16.740586 65.061321,16.730764 z M 66.565608,16.783151 C 67.073957,16.812535 67.593076,16.849815 68.104128,16.896456 C 67.593049,16.847041 67.076536,16.813204 66.565608,16.783151 z M 68.104128,16.896456 L 70.821439,31.031685 C 71.311566,31.151385 71.797049,31.283123 72.279906,31.430441 C 72.266962,31.426496 72.260132,31.404663 72.247183,31.400737 L 70.307191,17.165338 C 69.567068,17.056634 68.841059,16.967708 68.104128,16.896456 z M 32.515931,32.102263 C 32.058724,32.680415 31.626267,33.27994 31.194358,33.886944 L 44.87282,38.544061 C 45.214314,38.190332 45.556905,37.832574 45.916982,37.492389 L 32.515931,32.102263 z M 29.504752,36.471588 C 29.367076,36.7005 29.201565,36.916962 29.068253,37.149718 C 28.952305,37.352146 28.864679,37.556014 28.753589,37.759381 C 28.997433,37.319181 29.246363,36.89918 29.504752,36.471588 z M 100.58384,38.978112 C 100.81094,39.428051 101.03387,39.89515 101.24483,40.354036 C 101.03279,39.891655 100.81297,39.432006 100.58384,38.978112 z M 101.24483,40.354036 L 90.44428,49.918239 C 90.579042,50.392306 90.718943,50.891946 90.827372,51.370177 L 102.12481,42.376385 C 101.85189,41.685251 101.55375,41.027651 101.24483,40.354036 z M 64.500456,43.945888 C 64.836602,43.948837 65.17405,43.963946 65.503817,43.991217 C 65.171554,43.963965 64.83862,43.948245 64.500456,43.945888 z M 62.379447,44.079762 C 62.202107,44.1065 62.028222,44.165501 61.853346,44.199068 C 62.134238,44.144807 62.404801,44.101053 62.691582,44.064665 C 62.589292,44.077695 62.480964,44.064456 62.379447,44.079762 z M 60.276555,44.588199 C 59.994633,44.678892 59.71904,44.770251 59.445868,44.878669 C 59.718851,44.769947 59.995142,44.679131 60.276555,44.588199 z M 67.427468,44.3049 C 67.659525,44.358837 67.89749,44.42436 68.124733,44.490181 C 67.895331,44.423337 67.661559,44.359574 67.427468,44.3049 z M 56.974942,46.18707 C 56.676218,46.386045 56.377887,46.571178 56.096926,46.792695 C 56.380812,46.568468 56.673209,46.388137 56.974942,46.18707 z M 73.955545,47.962543 C 74.225063,48.237362 74.472023,48.535941 74.717238,48.833011 C 74.469421,48.532512 74.227984,48.240031 73.955545,47.962543 z M 75.620391,50.040789 C 75.821698,50.349902 75.990831,50.65828 76.166609,50.984253 C 75.994069,50.66498 75.817291,50.343519 75.620391,50.040789 z M 76.200841,51.04517 C 76.38878,51.398197 76.56702,51.77537 76.723394,52.146211 C 76.564522,51.768772 76.392175,51.40365 76.200841,51.04517 z M 51.571343,53.487898 C 51.480014,53.792082 51.403987,54.094206 51.334204,54.406677 C 51.402965,54.100643 51.482039,53.785594 51.571343,53.487898 z M 51.047205,56.235178 C 51.02206,56.544231 51.002489,56.861934 50.998856,57.176112 C 51.002456,56.853707 51.021215,56.551699 51.047205,56.235178 z M 77.734228,56.227141 C 77.759277,56.535563 77.775766,56.849654 77.77952,57.163547 C 77.777369,57.007176 77.795701,56.851252 77.788087,56.693834 C 77.780474,56.536416 77.747179,56.38299 77.734228,56.227141 z M 51.08793,59.017709 C 51.123614,59.303308 51.20032,59.57501 51.253546,59.854435 C 51.200892,59.57861 51.123362,59.299191 51.08793,59.017709 z M 77.679802,58.982989 C 77.652293,59.207036 77.625082,59.424039 77.586652,59.644511 C 77.625211,59.42404 77.652232,59.206813 77.679802,58.982989 z M 37.969121,63.344044 L 26.575019,72.279938 C 26.846556,72.967961 27.146223,73.659942 27.456507,74.333501 L 38.320999,64.797491 C 38.183494,64.313764 38.079211,63.832093 37.969121,63.344044 z M 58.118819,69.189918 C 58.437686,69.358846 58.777501,69.499314 59.110593,69.642532 C 58.779143,69.499717 58.435783,69.358063 58.118819,69.189918 z M 71.546667,68.665592 C 71.27274,68.838866 70.980646,68.991377 70.693825,69.144854 C 70.984566,68.989332 71.26947,68.841322 71.546667,68.665592 z M 70.693825,69.144854 C 70.353968,69.32671 70.01018,69.480575 69.653702,69.633173 C 70.008096,69.481375 70.356315,69.325393 70.693825,69.144854 z M 62.032057,70.533684 C 62.279151,70.57748 62.535914,70.592338 62.78722,70.622305 C 62.537795,70.592336 62.277055,70.577165 62.032057,70.533684 z M 64.575448,70.723532 C 64.73182,70.721381 64.887743,70.739714 65.045161,70.7321 C 65.202579,70.724486 65.356005,70.691191 65.511854,70.67824 C 65.203626,70.703986 64.88917,70.719058 64.575448,70.723532 z M 83.890949,76.140456 C 83.547843,76.49685 83.210383,76.82052 82.845278,77.160915 L 96.218134,82.614977 C 96.678706,82.033704 97.108803,81.435726 97.539707,80.830297 L 83.890949,76.140456 z M 55.086314,82.821088 C 55.444124,82.951214 55.805497,83.09199 56.168709,83.206746 L 58.395661,97.553412 C 59.131602,97.661509 59.892912,97.75278 60.629937,97.820784 L 57.595963,83.607012 C 56.73746,83.386697 55.918616,83.125539 55.086314,82.821088 z M 60.629937,97.820784 C 61.14338,97.868158 61.655101,97.906152 62.168457,97.934089 C 61.657507,97.906529 61.141308,97.867461 60.629937,97.820784 z M 62.168457,97.934089 C 62.672507,97.96152 63.169259,97.977769 63.672745,97.986476 C 63.162704,97.97799 62.679407,97.961648 62.168457,97.934089 z M 70.563382,97.496761 C 70.297823,97.537887 70.022833,97.593855 69.75636,97.629654 C 70.02755,97.593096 70.294555,97.5701 70.564892,97.527974 L 70.563382,97.496761 z "
       id="path2007" />
  </g>
</svg>
