<?xml version="1.0" encoding="UTF-8" standalone="no"?>
<!-- Created with Inkscape (http://www.inkscape.org/) -->
<svg
   xmlns:dc="http://purl.org/dc/elements/1.1/"
   xmlns:cc="http://web.resource.org/cc/"
   xmlns:rdf="http://www.w3.org/1999/02/22-rdf-syntax-ns#"
   xmlns:svg="http://www.w3.org/2000/svg"
   xmlns="http://www.w3.org/2000/svg"
   xmlns:xlink="http://www.w3.org/1999/xlink"
   xmlns:sodipodi="http://sodipodi.sourceforge.net/DTD/sodipodi-0.dtd"
   xmlns:inkscape="http://www.inkscape.org/namespaces/inkscape"
   width="128"
   height="128"
   id="svg1307"
   sodipodi:version="0.32"
   inkscape:version="0.43+0.44pre3"
   version="1.0"
   sodipodi:docbase="/home/pinheiro/artwork/Oxygen/theme/svg/actions"
   sodipodi:docname="fill.svg">
  <defs
     id="defs1309">
    <linearGradient
       inkscape:collect="always"
       id="linearGradient8864">
      <stop
         style="stop-color:#393a38;stop-opacity:1;"
         offset="0"
         id="stop8866" />
      <stop
         style="stop-color:#393a38;stop-opacity:0;"
         offset="1"
         id="stop8868" />
    </linearGradient>
    <linearGradient
       inkscape:collect="always"
       id="linearGradient8817">
      <stop
         style="stop-color:black;stop-opacity:1;"
         offset="0"
         id="stop8819" />
      <stop
         style="stop-color:black;stop-opacity:0;"
         offset="1"
         id="stop8821" />
    </linearGradient>
    <linearGradient
       inkscape:collect="always"
       id="linearGradient8807">
      <stop
         style="stop-color:white;stop-opacity:1;"
         offset="0"
         id="stop8809" />
      <stop
         style="stop-color:white;stop-opacity:0;"
         offset="1"
         id="stop8811" />
    </linearGradient>
    <linearGradient
       inkscape:collect="always"
       id="linearGradient7882">
      <stop
         style="stop-color:white;stop-opacity:1;"
         offset="0"
         id="stop7884" />
      <stop
         style="stop-color:white;stop-opacity:0;"
         offset="1"
         id="stop7886" />
    </linearGradient>
    <linearGradient
       id="linearGradient5895">
      <stop
         style="stop-color:white;stop-opacity:0;"
         offset="0"
         id="stop5897" />
      <stop
         id="stop5901"
         offset="0.5"
         style="stop-color:#7f7f7f;stop-opacity:0;" />
      <stop
         style="stop-color:black;stop-opacity:1;"
         offset="1"
         id="stop5899" />
    </linearGradient>
    <linearGradient
       inkscape:collect="always"
       id="linearGradient3141">
      <stop
         style="stop-color:black;stop-opacity:1;"
         offset="0"
         id="stop3144" />
      <stop
         style="stop-color:black;stop-opacity:0;"
         offset="1"
         id="stop3146" />
    </linearGradient>
    <linearGradient
       id="linearGradient3075">
      <stop
         style="stop-color:#ffffff;stop-opacity:1;"
         offset="0"
         id="stop3077" />
      <stop
         id="stop3093"
         offset="0.42597079"
         style="stop-color:#ffffff;stop-opacity:1;" />
      <stop
         id="stop3085"
         offset="0.5892781"
         style="stop-color:#f1f1f1;stop-opacity:1;" />
      <stop
         style="stop-color:#eaeaea;stop-opacity:1;"
         offset="0.80219781"
         id="stop3087" />
      <stop
         style="stop-color:#dfdfdf;stop-opacity:1;"
         offset="1"
         id="stop3079" />
    </linearGradient>
    <linearGradient
       id="linearGradient2257">
      <stop
         id="stop2259"
         offset="0"
         style="stop-color:#b4942a;stop-opacity:1;" />
      <stop
         id="stop2261"
         offset="1"
         style="stop-color:#e4dcc9;stop-opacity:1" />
    </linearGradient>
    <linearGradient
       id="linearGradient3325">
      <stop
         style="stop-color:#ffffff;stop-opacity:1;"
         offset="0"
         id="stop3327" />
      <stop
         style="stop-color:#ffffff;stop-opacity:0;"
         offset="1"
         id="stop3329" />
    </linearGradient>
    <linearGradient
       id="linearGradient2221">
      <stop
         id="stop2223"
         offset="0"
         style="stop-color:#000000;stop-opacity:1;" />
      <stop
         style="stop-color:#000000;stop-opacity:0.68235294;"
         offset="0.40659341"
         id="stop2225" />
      <stop
         id="stop2227"
         offset="0.45329672"
         style="stop-color:#000000;stop-opacity:0.48736462;" />
      <stop
         style="stop-color:#000000;stop-opacity:0.36101082;"
         offset="0.5"
         id="stop2229" />
      <stop
         id="stop2231"
         offset="0.70604396"
         style="stop-color:#000000;stop-opacity:0.15162455;" />
      <stop
         id="stop2233"
         offset="1"
         style="stop-color:#000000;stop-opacity:0;" />
    </linearGradient>
    <linearGradient
       id="linearGradient2215">
      <stop
         id="stop2217"
         offset="0"
         style="stop-color:#8e8e8e;stop-opacity:1;" />
      <stop
         id="stop2219"
         offset="1"
         style="stop-color:#f8f8f8;stop-opacity:1;" />
    </linearGradient>
    <linearGradient
       inkscape:collect="always"
       xlink:href="#linearGradient2221"
       id="linearGradient7829"
       gradientUnits="userSpaceOnUse"
       x1="-82.509743"
       y1="64.065186"
       x2="-118.91476"
       y2="63.447075" />
    <linearGradient
       inkscape:collect="always"
       xlink:href="#linearGradient2221"
       id="linearGradient7831"
       gradientUnits="userSpaceOnUse"
       x1="-146.75171"
       y1="74.959991"
       x2="-123.66653"
       y2="73.415115" />
    <linearGradient
       inkscape:collect="always"
       xlink:href="#linearGradient3141"
       id="linearGradient7833"
       gradientUnits="userSpaceOnUse"
       x1="-113.6435"
       y1="78.293831"
       x2="-118.30019"
       y2="33.764427" />
    <linearGradient
       inkscape:collect="always"
       xlink:href="#linearGradient3325"
       id="linearGradient7864"
       x1="28.0625"
       y1="112.9214"
       x2="28.0625"
       y2="121.76962"
       gradientUnits="userSpaceOnUse"
       gradientTransform="matrix(1.163884,2.871041e-2,-0.11448,1.056909,8.391942,-7.990272)" />
    <radialGradient
       inkscape:collect="always"
       xlink:href="#linearGradient7882"
       id="radialGradient7906"
       cx="29.085136"
       cy="136.92204"
       fx="29.085136"
       fy="136.92204"
       r="23.094908"
       gradientTransform="matrix(2.768502,-0.31374,1.582489e-2,0.260064,-54.71912,98.14085)"
       gradientUnits="userSpaceOnUse" />
    <radialGradient
       inkscape:collect="always"
       xlink:href="#linearGradient8817"
       id="radialGradient8823"
       cx="63.84724"
       cy="121.47017"
       fx="95.480644"
       fy="121.47017"
       r="63.84724"
       gradientTransform="matrix(1,0,0,0.102273,0,109.0471)"
       gradientUnits="userSpaceOnUse" />
    <radialGradient
       inkscape:collect="always"
       xlink:href="#linearGradient8807"
       id="radialGradient8832"
       gradientUnits="userSpaceOnUse"
       gradientTransform="matrix(1,0,0,6.810044,39.90452,-424.4238)"
       cx="-16.60284"
       cy="73.863823"
       fx="-16.60284"
       fy="73.863823"
       r="4.390625" />
    <radialGradient
       inkscape:collect="always"
       xlink:href="#linearGradient3325"
       id="radialGradient8840"
       gradientUnits="userSpaceOnUse"
       gradientTransform="matrix(0.478562,-0.286424,1.158304,1.935308,-55.30272,-64.5776)"
       cx="92.505867"
       cy="67.043999"
       fx="80.994736"
       fy="66.893723"
       r="32.176178" />
    <linearGradient
       inkscape:collect="always"
       xlink:href="#linearGradient2215"
       id="linearGradient8842"
       gradientUnits="userSpaceOnUse"
       x1="52.075424"
       y1="69.254128"
       x2="148.7818"
       y2="61.99876"
       gradientTransform="translate(-2.321718,0.870644)" />
    <linearGradient
       inkscape:collect="always"
       xlink:href="#linearGradient2257"
       id="linearGradient8845"
       gradientUnits="userSpaceOnUse"
       x1="63.834015"
       y1="95.663666"
       x2="116.99839"
       y2="69.254128"
       gradientTransform="translate(-2.321718,0.870644)" />
    <linearGradient
       inkscape:collect="always"
       xlink:href="#linearGradient3141"
       id="linearGradient8853"
       gradientUnits="userSpaceOnUse"
       gradientTransform="matrix(1.173779,-3.627284e-2,3.627284e-2,1.173779,154.9866,-23.3776)"
       x1="-116.78745"
       y1="116.55856"
       x2="-84.77729"
       y2="93.56797" />
    <radialGradient
       inkscape:collect="always"
       xlink:href="#linearGradient5895"
       id="radialGradient8856"
       gradientUnits="userSpaceOnUse"
       gradientTransform="matrix(1.180913,-0.683744,0.714179,1.233479,-59.92964,21.99038)"
       cx="70.623695"
       cy="53.380299"
       fx="70.964447"
       fy="76.702087"
       r="53.565186" />
    <linearGradient
       inkscape:collect="always"
       xlink:href="#linearGradient3075"
       id="linearGradient8859"
       gradientUnits="userSpaceOnUse"
       gradientTransform="matrix(1.173779,-3.627284e-2,3.627284e-2,1.173779,154.9866,-23.3776)"
       x1="-70.057068"
       y1="95.781326"
       x2="-27.8897"
       y2="66.671455" />
    <linearGradient
       inkscape:collect="always"
       xlink:href="#linearGradient8864"
       id="linearGradient8870"
       x1="95.84687"
       y1="117.20569"
       x2="76.361786"
       y2="88.409065"
       gradientUnits="userSpaceOnUse" />
    <linearGradient
       inkscape:collect="always"
       xlink:href="#linearGradient8864"
       id="linearGradient8872"
       x1="87.068436"
       y1="146.89471"
       x2="105.05599"
       y2="58.65321"
       gradientUnits="userSpaceOnUse" />
  </defs>
  <sodipodi:namedview
     id="base"
     pagecolor="#ffffff"
     bordercolor="#666666"
     borderopacity="1.0"
     inkscape:pageopacity="0.0"
     inkscape:pageshadow="2"
     inkscape:zoom="0.6091238"
     inkscape:cx="-131.08388"
     inkscape:cy="-15.658633"
     inkscape:current-layer="layer1"
     showgrid="false"
     inkscape:document-units="px"
     inkscape:grid-bbox="true"
     showguides="true"
     inkscape:guide-bbox="true"
     inkscape:window-width="1270"
     inkscape:window-height="731"
     inkscape:window-x="54"
     inkscape:window-y="283">
    <sodipodi:guide
       orientation="horizontal"
       position="88.703233"
       id="guide3188" />
  </sodipodi:namedview>
  <metadata
     id="metadata1312">
    <rdf:RDF>
      <cc:Work
         rdf:about="">
        <dc:format>image/svg+xml</dc:format>
        <dc:type
           rdf:resource="http://purl.org/dc/dcmitype/StillImage" />
      </cc:Work>
    </rdf:RDF>
  </metadata>
  <g
     id="layer1"
     inkscape:label="Layer 1"
     inkscape:groupmode="layer">
    <path
       sodipodi:type="arc"
       style="opacity:0.3647541;fill:url(#radialGradient8823);fill-opacity:1.0;fill-rule:nonzero;stroke:none;stroke-width:0.30000001;stroke-linecap:round;stroke-linejoin:round;stroke-miterlimit:4;stroke-dasharray:none;stroke-dashoffset:4;stroke-opacity:0.33333333"
       id="path8815"
       sodipodi:cx="63.84724"
       sodipodi:cy="121.47017"
       sodipodi:rx="63.84724"
       sodipodi:ry="6.5298314"
       d="M 127.69448 121.47017 A 63.84724 6.5298314 0 1 1  0,121.47017 A 63.84724 6.5298314 0 1 1  127.69448 121.47017 z" />
    <rect
       style="opacity:0.57786889;fill:#ffffff;fill-opacity:1;fill-rule:nonzero;stroke:none;stroke-width:3.63199997;stroke-linecap:round;stroke-linejoin:round;stroke-miterlimit:4;stroke-dasharray:none;stroke-dashoffset:4;stroke-opacity:1"
       id="rect1327"
       width="1"
       height="0"
       x="116"
       y="77" />
    <rect
       style="opacity:0.57786889;fill:white;fill-opacity:1;fill-rule:nonzero;stroke:none;stroke-width:3.63199997;stroke-linecap:round;stroke-linejoin:round;stroke-miterlimit:4;stroke-dasharray:none;stroke-dashoffset:4;stroke-opacity:1"
       id="rect2306"
       width="1"
       height="0"
       x="-141.37"
       y="33.53812" />
    <path
       sodipodi:nodetypes="ccc"
       id="path2318"
       d="M -300.30742,-39.677947 L -300.30742,-42.472656 L -300.30742,-39.677947 z "
       style="fill:white;fill-opacity:0.75688076;fill-rule:nonzero;stroke:none;stroke-width:0.5;stroke-linecap:round;stroke-linejoin:round;stroke-miterlimit:4;stroke-dasharray:none;stroke-dashoffset:4;stroke-opacity:1" />
    <g
       style="opacity:0.40163933"
       transform="matrix(-0.782995,0,0,0.650879,-2623.166,646.8397)"
       id="g4640" />
    <g
       id="g4646"
       transform="matrix(-0.782995,0,0,0.650879,-2623.166,646.8397)"
       style="opacity:0.40163933" />
    <g
       id="g4730"
       transform="matrix(1,0,0,0.650879,577.797,654.1675)"
       style="opacity:0.40163933" />
    <g
       style="opacity:0.40163933"
       transform="matrix(1,0,0,0.650879,577.797,654.1675)"
       id="g4748" />
    <path
       sodipodi:nodetypes="ccssccs"
       id="path7761"
       d="M 88.06347,7.5301087 C 93.023056,15.538427 118.96545,57.428161 123.92502,65.436476 C 128.8846,73.444794 117.46733,89.507787 98.434232,101.29503 C 79.401122,113.08228 59.93359,116.14631 54.974012,108.13799 C 50.014447,100.12969 24.072048,58.239945 19.112458,50.231632 C 14.152881,42.223319 25.570148,26.160325 44.603263,14.373079 C 63.636361,2.5858317 83.103904,-0.4782113 88.06347,7.5301087 z "
       style="opacity:0.1;fill:none;fill-opacity:1;fill-rule:nonzero;stroke:black;stroke-width:6;stroke-linecap:round;stroke-linejoin:round;stroke-miterlimit:4;stroke-dasharray:none;stroke-dashoffset:4;stroke-opacity:0.33333333" />
    <path
       style="opacity:0.25;fill:none;fill-opacity:1;fill-rule:nonzero;stroke:black;stroke-width:3;stroke-linecap:round;stroke-linejoin:round;stroke-miterlimit:4;stroke-dasharray:none;stroke-dashoffset:4;stroke-opacity:0.33333333"
       d="M 88.06347,7.5301087 C 93.023056,15.538427 118.96545,57.428161 123.92502,65.436476 C 128.8846,73.444794 117.46733,89.507787 98.434232,101.29503 C 79.401122,113.08228 59.93359,116.14631 54.974012,108.13799 C 50.014447,100.12969 24.072048,58.239945 19.112458,50.231632 C 14.152881,42.223319 25.570148,26.160325 44.603263,14.373079 C 63.636361,2.5858317 83.103904,-0.4782113 88.06347,7.5301087 z "
       id="path7759"
       sodipodi:nodetypes="ccssccs" />
    <path
       sodipodi:nodetypes="ccssccs"
       id="path7757"
       d="M 88.06347,7.5301087 C 93.023056,15.538427 118.96545,57.428161 123.92502,65.436476 C 128.8846,73.444794 117.46733,89.507787 98.434232,101.29503 C 79.401122,113.08228 59.93359,116.14631 54.974012,108.13799 C 50.014447,100.12969 24.072048,58.239945 19.112458,50.231632 C 14.152881,42.223319 25.570148,26.160325 44.603263,14.373079 C 63.636361,2.5858317 83.103904,-0.4782113 88.06347,7.5301087 z "
       style="opacity:0.3;fill:none;fill-opacity:1;fill-rule:nonzero;stroke:black;stroke-width:2;stroke-linecap:round;stroke-linejoin:round;stroke-miterlimit:4;stroke-dasharray:none;stroke-dashoffset:4;stroke-opacity:0.33333333" />
    <path
       style="fill:url(#linearGradient8859);fill-opacity:1;fill-rule:nonzero;stroke:none;stroke-width:10;stroke-linecap:round;stroke-linejoin:round;stroke-miterlimit:4;stroke-dasharray:none;stroke-dashoffset:4;stroke-opacity:1"
       d="M 88.06347,7.2301087 C 93.023056,15.238427 118.96545,57.128161 123.92502,65.136476 C 128.8846,73.144794 117.46733,89.207787 98.434232,100.99503 C 79.401122,112.78228 59.93359,115.84631 54.974012,107.83799 C 50.014447,99.829687 24.072048,57.939945 19.112458,49.931632 C 14.152881,41.923319 25.570148,25.860325 44.603263,14.073079 C 63.636361,2.2858317 83.103904,-0.7782113 88.06347,7.2301087 z "
       id="path3115"
       sodipodi:nodetypes="ccssccs" />
    <path
       style="opacity:0.40573772;fill:url(#radialGradient8856);fill-opacity:1;fill-rule:nonzero;stroke:none;stroke-width:10;stroke-linecap:round;stroke-linejoin:round;stroke-miterlimit:4;stroke-dasharray:none;stroke-dashoffset:4;stroke-opacity:1"
       d="M 88.06347,7.2301087 C 93.023056,15.238427 118.96545,57.128161 123.92502,65.136476 C 128.8846,73.144794 117.46733,89.207787 98.434232,100.99503 C 79.401122,112.78228 59.93359,115.84631 54.974012,107.83799 C 50.014447,99.829687 24.072048,57.939945 19.112458,49.931632 C 14.152881,41.923319 25.570148,25.860325 44.603263,14.073079 C 63.636361,2.2858317 83.103904,-0.7782113 88.06347,7.2301087 z "
       id="path5889"
       sodipodi:nodetypes="ccssccs" />
    <path
       sodipodi:nodetypes="ccssccs"
       id="path3139"
       d="M 88.06347,7.2301087 C 93.023056,15.238427 118.96545,57.128161 123.92502,65.136476 C 128.8846,73.144794 117.46733,89.207787 98.434232,100.99503 C 79.401122,112.78228 59.93359,115.84631 54.974012,107.83799 C 50.014447,99.829687 24.072048,57.939945 19.112458,49.931632 C 14.152881,41.923319 25.570148,25.860325 44.603263,14.073079 C 63.636361,2.2858317 83.103904,-0.7782113 88.06347,7.2301087 z "
       style="fill:url(#linearGradient8853);fill-opacity:1;fill-rule:nonzero;stroke:none;stroke-width:10;stroke-linecap:round;stroke-linejoin:round;stroke-miterlimit:4;stroke-dasharray:none;stroke-dashoffset:4;stroke-opacity:1" />
    <path
       transform="matrix(1.029375,-0.637493,0.376219,0.607488,158.1607,-75.89298)"
       d="M -84.361111 47.980999 A 33.496326 23.881639 0 1 1  -151.35376,47.980999 A 33.496326 23.881639 0 1 1  -84.361111 47.980999 z"
       sodipodi:ry="23.881639"
       sodipodi:rx="33.496326"
       sodipodi:cy="47.980999"
       sodipodi:cx="-117.85744"
       id="path4993"
       style="opacity:0.4;fill:url(#linearGradient7831);fill-opacity:1;fill-rule:nonzero;stroke:none;stroke-width:10;stroke-linecap:round;stroke-linejoin:round;stroke-miterlimit:4;stroke-dasharray:none;stroke-dashoffset:4;stroke-opacity:1"
       sodipodi:type="arc" />
    <path
       sodipodi:type="arc"
       style="opacity:0.4;fill:url(#linearGradient7829);fill-opacity:1;fill-rule:nonzero;stroke:none;stroke-width:10;stroke-linecap:round;stroke-linejoin:round;stroke-miterlimit:4;stroke-dasharray:none;stroke-dashoffset:4;stroke-opacity:1"
       id="path2223"
       sodipodi:cx="-117.85744"
       sodipodi:cy="47.980999"
       sodipodi:rx="33.496326"
       sodipodi:ry="23.881639"
       d="M -84.361111 47.980999 A 33.496326 23.881639 0 1 1  -151.35376,47.980999 A 33.496326 23.881639 0 1 1  -84.361111 47.980999 z"
       transform="matrix(1.029375,-0.637493,0.376219,0.607488,157.1607,-75.89298)" />
    <path
       sodipodi:type="arc"
       style="opacity:0.4;fill:url(#linearGradient7833);fill-opacity:1;fill-rule:nonzero;stroke:none;stroke-width:10;stroke-linecap:round;stroke-linejoin:round;stroke-miterlimit:4;stroke-dasharray:none;stroke-dashoffset:4;stroke-opacity:1"
       id="path4997"
       sodipodi:cx="-117.85744"
       sodipodi:cy="47.980999"
       sodipodi:rx="33.496326"
       sodipodi:ry="23.881639"
       d="M -84.361111 47.980999 A 33.496326 23.881639 0 1 1  -151.35376,47.980999 A 33.496326 23.881639 0 1 1  -84.361111 47.980999 z"
       transform="matrix(1.029375,-0.637493,0.376219,0.607488,157.1607,-75.89298)" />
    <path
       style="fill:#cacaca;fill-opacity:1;fill-rule:nonzero;stroke:none;stroke-width:1.26253247;stroke-linecap:round;stroke-linejoin:round;stroke-miterlimit:4;stroke-dasharray:none;stroke-dashoffset:4;stroke-opacity:1"
       d="M 88.161215,7.4000047 C 88.464674,7.8900107 89.560746,9.6338527 89.783415,9.9933987 C 94.742986,18.00172 83.342295,34.056781 64.309193,45.844031 C 45.276082,57.631276 25.825589,60.7022 20.866012,52.693883 C 20.597954,52.261051 19.317381,50.179437 18.933366,49.559349 C 19.042372,50.897962 19.401545,52.110228 20.073775,53.195669 C 22.643663,57.345338 28.990027,58.599292 37.01744,57.334946 C 45.044852,56.070601 54.828765,52.287577 64.47065,46.316343 C 74.112535,40.345101 81.845662,33.311789 86.554348,26.688642 C 91.263033,20.065494 92.93114,13.831488 90.361234,9.6818187 C 89.800999,8.7771897 89.057457,8.0319067 88.161215,7.4000047 z "
       id="path3169" />
    <path
       style="opacity:0.4;fill:#babdb6;fill-opacity:1;fill-rule:nonzero;stroke:none;stroke-width:10;stroke-linecap:round;stroke-linejoin:round;stroke-miterlimit:4;stroke-dasharray:none;stroke-dashoffset:4;stroke-opacity:1"
       d="M 78.398776,3.8049757 C 69.810329,3.7843277 57.731972,7.7504567 45.836276,15.117476 C 26.803156,26.904704 15.376706,42.984166 20.336276,50.992476 C 20.708396,51.593346 21.182066,52.109056 21.711276,52.586226 C 21.437676,52.276166 21.179806,51.970336 20.961276,51.617476 C 16.001706,43.609165 27.428156,27.529704 46.461276,15.742476 C 64.058459,4.8445187 82.02372,1.4022427 88.555026,7.2737257 C 86.49868,4.9517407 82.939837,3.8158927 78.398776,3.8049757 z "
       id="path4984" />
    <path
       style="fill:url(#linearGradient8845);fill-opacity:1;fill-rule:nonzero;stroke:none;stroke-width:1;stroke-linecap:round;stroke-linejoin:round;stroke-miterlimit:4;stroke-dasharray:none;stroke-dashoffset:4;stroke-opacity:1"
       d="M 49.903707,63.77638 L 75.848578,102.16218 L 75.906576,102.24799 C 83.341689,99.779067 91.662221,95.515117 99.803352,89.638227 C 105.55897,85.483374 110.56365,80.997866 114.67667,76.501767 L 114.46401,76.187129 L 114.406,76.10132 L 88.65447,38.001543 C 84.538017,42.504478 79.536236,47.024784 73.77188,51.185939 C 65.642268,57.054515 57.33082,61.305788 49.903707,63.77638 z "
       id="rect5907" />
    <path
       id="path5944"
       d="M 49.903707,63.77638 L 75.848578,102.16218 L 75.906576,102.24799 C 83.341689,99.779067 91.662221,95.515117 99.803352,89.638227 C 105.55897,85.483374 110.56365,80.997866 114.67667,76.501767 L 114.46401,76.187129 L 114.406,76.10132 L 88.65447,38.001543 C 84.538017,42.504478 79.536236,47.024784 73.77188,51.185939 C 65.642268,57.054515 57.33082,61.305788 49.903707,63.77638 z "
       style="opacity:0.84426228;fill:url(#radialGradient8840);fill-opacity:1;fill-rule:nonzero;stroke:url(#linearGradient8842);stroke-width:0.30000001;stroke-linecap:round;stroke-linejoin:round;stroke-miterlimit:4;stroke-dasharray:none;stroke-dashoffset:4;stroke-opacity:0.33333333" />
    <path
       transform="matrix(1.02795,-0.637506,0.375698,0.6075,156.9678,-75.89505)"
       d="M -84.361111 47.980999 A 33.496326 23.881639 0 1 1  -151.35376,47.980999 A 33.496326 23.881639 0 1 1  -84.361111 47.980999 z"
       sodipodi:ry="23.881639"
       sodipodi:rx="33.496326"
       sodipodi:cy="47.980999"
       sodipodi:cx="-117.85744"
       id="path6842"
       style="fill:none;fill-opacity:1;fill-rule:nonzero;stroke:white;stroke-width:1.61265159;stroke-linecap:round;stroke-linejoin:round;stroke-miterlimit:4;stroke-dasharray:none;stroke-dashoffset:4;stroke-opacity:1"
       sodipodi:type="arc" />
    <path
       style="fill:black;fill-opacity:1;fill-rule:evenodd;stroke:none;stroke-width:1px;stroke-linecap:butt;stroke-linejoin:miter;stroke-opacity:1"
       d="M 35.206573,53.490534 C 29.055241,52.353314 26.975887,58.686376 26.52234,63.105221 C 25.166672,76.3133 27.489289,85.115171 26.52234,95.671087 C 26.326222,97.812057 22.267034,100.35622 21.870073,95.671087 C 20.948892,84.798881 22.938649,76.902393 21.870073,61.864616 C 21.517123,56.897643 19.957474,52.24993 18.613486,46.667209 C 23.782672,49.148418 30.037387,51.009325 35.206573,53.490534 z "
       id="path3206"
       sodipodi:nodetypes="csssscc" />
    <path
       id="path3195"
       d="M 18.392697,43.683246 C 18.068177,45.984713 18.348417,48.063973 19.363644,49.759889 C 24.157664,57.768199 42.482596,53.816011 61.374297,42.896912 C 66.425941,39.977143 70.613973,36.647837 71.719114,35.681157 C 63.979795,31.865395 21.463225,32.050007 18.392697,43.683246 z "
       style="fill:black;fill-opacity:1;fill-rule:nonzero;stroke:none;stroke-width:10;stroke-linecap:round;stroke-linejoin:round;stroke-miterlimit:4;stroke-dasharray:none;stroke-dashoffset:4;stroke-opacity:1"
       sodipodi:nodetypes="csscc" />
    <path
       style="fill:black;fill-opacity:0.39430895;fill-rule:nonzero;stroke:none;stroke-width:1.61265159;stroke-linecap:round;stroke-linejoin:round;stroke-miterlimit:4;stroke-dasharray:none;stroke-dashoffset:4;stroke-opacity:0.33333333"
       d="M 77.583723,2.7376227 C 75.922757,2.7365757 74.121691,2.9046507 72.208723,3.2063727 C 64.556855,4.4132607 55.145983,8.0367877 45.802473,13.831373 C 36.458962,19.625958 29.009628,26.446702 24.521223,32.768873 C 23.540992,34.149583 22.710665,35.518012 22.021223,36.831373 C 22.649503,35.694092 23.398397,34.54803 24.239973,33.362623 C 28.728379,27.040448 36.177712,20.188458 45.521223,14.393873 C 54.864732,8.5992857 64.275605,4.9757607 71.927473,3.7688727 C 79.579344,2.5619837 85.44107,3.7317577 87.802473,7.5501227 C 89.425939,10.175248 89.211685,13.748386 87.458723,17.768873 C 89.44457,13.514701 89.783518,9.7361707 88.083723,6.9876227 C 86.312671,4.1238487 82.566622,2.7407637 77.583723,2.7376227 z M 88.208723,19.425123 C 87.543145,20.636667 86.751512,21.863884 85.864973,23.112623 C 81.136766,29.772565 73.403227,36.83849 63.739973,42.831373 C 54.076718,48.824253 44.300654,52.622503 36.239973,53.893873 C 28.179291,55.165243 21.800022,53.896477 19.208723,49.706373 C 17.427206,46.825677 17.682867,42.943004 19.552473,38.643873 C 17.442925,43.1807 17.064183,47.255951 18.927473,50.268873 C 21.518772,54.458978 27.898041,55.727743 35.958723,54.456373 C 44.019405,53.185007 53.795468,49.386753 63.458723,43.393873 C 73.121978,37.40099 80.855516,30.366315 85.583723,23.706373 C 86.608723,22.262603 87.480845,20.81678 88.208723,19.425123 z "
       id="path7732" />
    <path
       style="fill:black;fill-opacity:0.39430895;fill-rule:nonzero;stroke:none;stroke-width:1.61265159;stroke-linecap:round;stroke-linejoin:round;stroke-miterlimit:4;stroke-dasharray:none;stroke-dashoffset:4;stroke-opacity:0.33333333"
       d="M 78.142074,2.4537767 C 76.481108,2.4527297 74.680042,2.5895557 72.767074,2.8912767 C 65.115205,4.0981647 55.704334,7.7216907 46.360824,13.516277 C 40.383778,17.223074 35.20037,21.362235 31.048324,25.516277 C 35.050306,21.649429 39.94736,17.845459 45.517074,14.391277 C 54.860585,8.5966887 64.271456,4.9731647 71.923324,3.7662767 C 79.575195,2.5593877 85.55422,3.7438027 87.76707,7.6501331 C 89.871964,11.36589 88.09923,17.162852 83.61082,23.485027 C 82.0523,25.680294 80.309471,27.746552 78.084255,29.998564 C 80.686841,27.458059 82.69483,25.088725 84.45457,22.610027 C 88.94298,16.287852 90.900874,10.727356 88.539464,6.9089895 C 86.768414,4.0452155 83.12497,2.4569187 78.142074,2.4537767 z M 29.298324,25.547527 C 26.733585,28.08619 24.508902,30.643797 22.735824,33.141277 C 18.007616,39.801217 16.300776,46.076177 18.892074,50.266277 C 21.483372,54.456387 27.862642,55.725147 35.923324,54.453777 C 43.984004,53.182407 53.791319,49.384157 63.454574,43.391277 C 69.911933,39.386597 75.479834,34.909827 79.89207,30.391277 C 75.623481,34.610987 70.337859,38.770727 64.298324,42.516277 C 54.635068,48.509157 44.859007,52.338657 36.798324,53.610027 C 28.737642,54.881397 22.358371,53.581377 19.767074,49.391277 C 17.175776,45.201167 18.882615,38.926227 23.610824,32.266277 C 25.180772,30.054917 27.102453,27.798448 29.298324,25.547527 z "
       id="path7745"
       sodipodi:nodetypes="csscsssscssccsssscssssc" />
    <path
       id="path7908"
       d="M 20.217025,50.868466 C 21.293342,54.981228 22.314936,58.687806 22.592025,62.587216 C 23.660601,77.624993 21.670844,85.527508 22.592025,96.399716 C 22.644907,97.02386 22.770697,97.514124 22.935775,97.899716 C 23.401894,97.412403 23.726967,96.81722 23.779525,96.243466 C 24.746474,85.68755 22.423856,76.889045 23.779525,63.680966 C 24.13432,60.224246 25.482688,55.61308 28.998275,54.305966 C 26.05998,53.162988 23.035364,52.081667 20.217025,50.868466 z "
       style="fill:url(#radialGradient8832);fill-opacity:1;fill-rule:evenodd;stroke:none;stroke-width:1px;stroke-linecap:butt;stroke-linejoin:miter;stroke-opacity:1" />
    <path
       id="path8825"
       d="M 122.41916,63.511485 C 122.71895,63.995561 123.80175,65.718297 124.02173,66.073491 C 128.92127,73.984888 117.65857,89.845636 98.855823,101.49022 C 80.053067,113.13481 60.837982,116.16856 55.93843,108.25716 C 55.673616,107.82957 54.408542,105.77315 54.029175,105.16057 C 54.136861,106.48298 54.491687,107.68058 55.155781,108.75288 C 57.694566,112.85233 63.964121,114.0911 71.894379,112.84206 C 79.824636,111.59301 89.490135,107.85578 99.015329,101.95682 C 108.54051,96.057849 116.18005,89.109661 120.83174,82.566673 C 125.48344,76.023685 127.13136,69.865128 124.59256,65.765683 C 124.0391,64.872002 123.30456,64.135739 122.41916,63.511485 z "
       style="fill:url(#linearGradient8872);fill-opacity:1;fill-rule:nonzero;stroke:none;stroke-width:1.26253247;stroke-linecap:round;stroke-linejoin:round;stroke-miterlimit:4;stroke-dasharray:none;stroke-dashoffset:4;stroke-opacity:1;opacity:0.78278689" />
    <path
       style="fill:url(#linearGradient8870);fill-opacity:1;fill-rule:nonzero;stroke:none;stroke-width:1.26253247;stroke-linecap:round;stroke-linejoin:round;stroke-miterlimit:4;stroke-dasharray:none;stroke-dashoffset:4;stroke-opacity:1;opacity:0.78278689"
       d="M 121.96302,63.055344 C 122.26281,63.53942 123.34561,65.262156 123.56559,65.617351 C 128.46513,73.528748 117.20242,89.389496 98.399682,101.03408 C 79.596926,112.67866 60.381841,115.71242 55.482289,107.80102 C 55.217476,107.37343 53.952401,105.31701 53.573034,104.70443 C 53.680721,106.02684 54.035547,107.22443 54.699641,108.29674 C 57.238426,112.39618 63.50798,113.63496 71.438238,112.38592 C 79.368495,111.13687 89.033994,107.39964 98.559188,101.50068 C 108.08437,95.601709 115.72391,88.65352 120.3756,82.110533 C 125.0273,75.567544 126.67522,69.408988 124.13641,65.309542 C 123.58296,64.415861 122.84841,63.679599 121.96302,63.055344 z "
       id="path8827" />
    <path
       style="fill:black;fill-opacity:1;fill-rule:evenodd;stroke:black;stroke-width:0.75208664px;stroke-linecap:butt;stroke-linejoin:miter;stroke-opacity:1"
       d="M 15.373706,125.69402 C 22.221465,125.74933 27.996107,124.98911 29.405976,125.0239 C 38.732442,125.25394 61.077222,120.9265 52.141073,115.60666 C 42.378446,109.79479 15.545252,109.95091 5.0973772,115.55487 C -6.3045902,121.67058 8.5270618,125.63869 15.373706,125.69402 z "
       id="path7755"
       sodipodi:nodetypes="csssz" />
    <path
       style="opacity:0.65163933;fill:url(#linearGradient7864);fill-opacity:1;fill-rule:nonzero;stroke:none;stroke-width:0.30000001;stroke-linecap:round;stroke-linejoin:round;stroke-miterlimit:4;stroke-dasharray:none;stroke-dashoffset:4;stroke-opacity:0.33333333"
       d="M 32.334534,111.35675 C 24.424273,111.05867 16.065579,111.84656 9.9494195,113.65259 C 11.530723,116.80181 18.50736,119.29483 27.111961,119.50709 C 36.895764,119.74844 45.178072,116.9489 46.027479,113.21789 C 42.082898,112.16921 37.314308,111.5444 32.334534,111.35675 z "
       id="path7853" />
    <path
       sodipodi:nodetypes="csssz"
       id="path7898"
       d="M 15.373706,125.69402 C 22.221465,125.74933 27.996107,124.98911 29.405976,125.0239 C 38.732442,125.25394 61.077222,120.9265 52.141073,115.60666 C 42.378446,109.79479 15.545252,109.95091 5.0973772,115.55487 C -6.3045902,121.67058 8.5270618,125.63869 15.373706,125.69402 z "
       style="opacity:0.88524625;fill:url(#radialGradient7906);fill-opacity:1;fill-rule:evenodd;stroke:none;stroke-width:0.67719597px;stroke-linecap:butt;stroke-linejoin:miter;stroke-opacity:1" />
  </g>
</svg>
