<?xml version="1.0" encoding="UTF-8" standalone="no"?>
<!-- Created with Inkscape (http://www.inkscape.org/) -->
<svg
   xmlns:dc="http://purl.org/dc/elements/1.1/"
   xmlns:cc="http://web.resource.org/cc/"
   xmlns:rdf="http://www.w3.org/1999/02/22-rdf-syntax-ns#"
   xmlns:svg="http://www.w3.org/2000/svg"
   xmlns="http://www.w3.org/2000/svg"
   xmlns:xlink="http://www.w3.org/1999/xlink"
   xmlns:sodipodi="http://sodipodi.sourceforge.net/DTD/sodipodi-0.dtd"
   xmlns:inkscape="http://www.inkscape.org/namespaces/inkscape"
   width="128"
   height="128"
   id="svg1307"
   sodipodi:version="0.32"
   inkscape:version="0.44"
   version="1.0"
   sodipodi:docbase="/home/pinheiro/artwork/Oxygen/theme/svg/actions"
   sodipodi:docname="goto.svg">
  <defs
     id="defs1309">
    <radialGradient
       id="XMLID_15_"
       cx="538.77338"
       cy="651.10352"
       r="126.0234"
       gradientTransform="translate(-484,-674)"
       gradientUnits="userSpaceOnUse">
      <stop
         offset="0"
         style="stop-color:#cbcbcb;stop-opacity:1;"
         id="stop137" />
      <stop
         offset="0.53930002"
         style="stop-color:#1d1d1d;stop-opacity:1;"
         id="stop139" />
      <stop
         offset="1"
         style="stop-color:#555;stop-opacity:1;"
         id="stop141" />
    </radialGradient>
    <linearGradient
       inkscape:collect="always"
       id="linearGradient2995">
      <stop
         style="stop-color:white;stop-opacity:1;"
         offset="0"
         id="stop2997" />
      <stop
         style="stop-color:white;stop-opacity:0;"
         offset="1"
         id="stop2999" />
    </linearGradient>
    <linearGradient
       inkscape:collect="always"
       id="linearGradient3291">
      <stop
         style="stop-color:#000000;stop-opacity:1;"
         offset="0"
         id="stop3293" />
      <stop
         style="stop-color:#000000;stop-opacity:0;"
         offset="1"
         id="stop3295" />
    </linearGradient>
    <radialGradient
       inkscape:collect="always"
       xlink:href="#linearGradient3291"
       id="radialGradient3297"
       cx="63.912209"
       cy="115.70919"
       fx="63.912209"
       fy="115.7093"
       r="63.912209"
       gradientTransform="matrix(1,0,0,0.197802,0,92.82166)"
       gradientUnits="userSpaceOnUse" />
    <linearGradient
       y2="29.0005"
       x2="64.000504"
       y1="113"
       x1="64.000504"
       gradientUnits="userSpaceOnUse"
       id="XMLID_2_">
      <stop
         id="stop20"
         style="stop-color:#5f5f5f;stop-opacity:1;"
         offset="0" />
      <stop
         id="stop22"
         style="stop-color:#2b2b2b;stop-opacity:1;"
         offset="1" />
    </linearGradient>
    <linearGradient
       inkscape:collect="always"
       xlink:href="#XMLID_2_"
       id="linearGradient3455"
       x1="24.392714"
       y1="26.10339"
       x2="97.413643"
       y2="26.10339"
       gradientUnits="userSpaceOnUse"
       gradientTransform="matrix(-1.507231,0.8702,0.830106,1.437785,124.5926,-38.67976)" />
    <linearGradient
       inkscape:collect="always"
       xlink:href="#linearGradient2995"
       id="linearGradient3001"
       x1="127.99593"
       y1="-6.8906326"
       x2="115.5625"
       y2="91.609367"
       gradientUnits="userSpaceOnUse"
       gradientTransform="matrix(1.11851,0,0,1.11851,-78.91956,-13.44646)" />
    <linearGradient
       inkscape:collect="always"
       xlink:href="#XMLID_15_"
       id="linearGradient2961"
       x1="174.61247"
       y1="29.71216"
       x2="250.35867"
       y2="29.71216"
       gradientUnits="userSpaceOnUse" />
    <radialGradient
       inkscape:collect="always"
       xlink:href="#linearGradient2995"
       id="radialGradient2813"
       gradientUnits="userSpaceOnUse"
       gradientTransform="matrix(1.779821,1.02758,-0.710503,1.230628,-12.99346,-44.7)"
       cx="56.670975"
       cy="-27.623009"
       fx="56.670975"
       fy="-27.623009"
       r="61.600002" />
  </defs>
  <sodipodi:namedview
     id="base"
     pagecolor="#ffffff"
     bordercolor="#666666"
     borderopacity="1.0"
     inkscape:pageopacity="0.0"
     inkscape:pageshadow="2"
     inkscape:zoom="2.0000001"
     inkscape:cx="135.79524"
     inkscape:cy="67.338894"
     inkscape:current-layer="layer1"
     showgrid="false"
     inkscape:document-units="px"
     inkscape:grid-bbox="true"
     guidetolerance="0.1px"
     showguides="true"
     inkscape:guide-bbox="true"
     inkscape:window-width="1106"
     inkscape:window-height="958"
     inkscape:window-x="601"
     inkscape:window-y="25">
    <sodipodi:guide
       orientation="horizontal"
       position="32.487481"
       id="guide2204" />
  </sodipodi:namedview>
  <metadata
     id="metadata1312">
    <rdf:RDF>
      <cc:Work
         rdf:about="">
        <dc:format>image/svg+xml</dc:format>
        <dc:type
           rdf:resource="http://purl.org/dc/dcmitype/StillImage" />
        <cc:license
           rdf:resource="http://creativecommons.org/licenses/GPL/2.0/" />
        <dc:contributor>
          <cc:Agent>
            <dc:title>Oxygen team</dc:title>
          </cc:Agent>
        </dc:contributor>
      </cc:Work>
      <cc:License
         rdf:about="http://creativecommons.org/licenses/LGPL/2.1/">
        <cc:permits
           rdf:resource="http://web.resource.org/cc/Reproduction" />
        <cc:permits
           rdf:resource="http://web.resource.org/cc/Distribution" />
        <cc:requires
           rdf:resource="http://web.resource.org/cc/Notice" />
        <cc:permits
           rdf:resource="http://web.resource.org/cc/DerivativeWorks" />
        <cc:requires
           rdf:resource="http://web.resource.org/cc/ShareAlike" />
        <cc:requires
           rdf:resource="http://web.resource.org/cc/SourceCode" />
      </cc:License>
    </rdf:RDF>
  </metadata>
  <g
     id="layer1"
     inkscape:label="Layer 1"
     inkscape:groupmode="layer">
    <path
       sodipodi:nodetypes="ccc"
       id="path2276"
       d="M 50.892799,3.2812959 L 50.892799,0.48658747 L 50.892799,3.2812959 z "
       style="fill:#ffffff;fill-opacity:0.75688076;fill-rule:nonzero;stroke:none;stroke-width:0.5;stroke-linecap:round;stroke-linejoin:round;stroke-miterlimit:4;stroke-dasharray:none;stroke-dashoffset:4;stroke-opacity:1" />
    <path
       sodipodi:type="arc"
       style="opacity:0.38139535;fill:url(#radialGradient3297);fill-opacity:1.0;fill-rule:nonzero;stroke:none;stroke-width:0;stroke-linecap:round;stroke-linejoin:round;stroke-miterlimit:4;stroke-dasharray:none;stroke-dashoffset:4;stroke-opacity:1"
       id="path3289"
       sodipodi:cx="63.912209"
       sodipodi:cy="115.70919"
       sodipodi:rx="63.912209"
       sodipodi:ry="12.641975"
       d="M 127.82442 115.70919 A 63.912209 12.641975 0 1 1  0,115.70919 A 63.912209 12.641975 0 1 1  127.82442 115.70919 z"
       transform="matrix(1,0,0,0.416667,0,74.87151)" />
    <path
       sodipodi:nodetypes="ccc"
       id="path2985"
       d="M -106.1155,-66.353804 L -106.1155,-69.148513 L -106.1155,-66.353804 z "
       style="fill:white;fill-opacity:0.75688076;fill-rule:nonzero;stroke:none;stroke-width:0.5;stroke-linecap:round;stroke-linejoin:round;stroke-miterlimit:4;stroke-dasharray:none;stroke-dashoffset:4;stroke-opacity:1" />
    <path
       sodipodi:nodetypes="ccc"
       id="path3206"
       d="M -225.6177,-152.98405 L -225.6177,-155.77876 L -225.6177,-152.98405 z "
       style="fill:white;fill-opacity:0.75688076;fill-rule:nonzero;stroke:none;stroke-width:0.5;stroke-linecap:round;stroke-linejoin:round;stroke-miterlimit:4;stroke-dasharray:none;stroke-dashoffset:4;stroke-opacity:1" />
    <g
       id="layer4"
       inkscape:label="box"
       style="display:inline"
       transform="translate(-42.6661,-8.40242)" />
    <g
       id="layer5"
       inkscape:label="zip_app"
       style="display:inline"
       transform="translate(-42.6661,-8.40242)" />
    <path
       sodipodi:nodetypes="ccc"
       id="path3946"
       d="M 20.9737,-87.228784 L 20.9737,-90.023493 L 20.9737,-87.228784 z "
       style="fill:white;fill-opacity:0.75688076;fill-rule:nonzero;stroke:none;stroke-width:0.5;stroke-linecap:round;stroke-linejoin:round;stroke-miterlimit:4;stroke-dasharray:none;stroke-dashoffset:4;stroke-opacity:1" />
    <path
       sodipodi:nodetypes="ccc"
       id="path1561"
       d="M -71.650746,-13.335104 L -71.650746,-14.86184 L -71.650746,-13.335104 z "
       style="fill:white;fill-opacity:0.75688076;fill-rule:nonzero;stroke:none;stroke-width:0.5;stroke-linecap:round;stroke-linejoin:round;stroke-miterlimit:4;stroke-dasharray:none;stroke-dashoffset:4;stroke-opacity:1" />
    <rect
       style="opacity:0.57786889;fill:white;fill-opacity:1;fill-rule:nonzero;stroke:none;stroke-width:3.63199997;stroke-linecap:round;stroke-linejoin:round;stroke-miterlimit:4;stroke-dasharray:none;stroke-dashoffset:4;stroke-opacity:1"
       id="rect1327"
       width="1"
       height="0"
       x="-129.13548"
       y="-69.935089" />
    <rect
       style="opacity:0.57786889;fill:white;fill-opacity:1;fill-rule:nonzero;stroke:none;stroke-width:3.63199997;stroke-linecap:round;stroke-linejoin:round;stroke-miterlimit:4;stroke-dasharray:none;stroke-dashoffset:4;stroke-opacity:1"
       id="rect2482"
       width="1"
       height="0"
       x="-164.2623"
       y="-97.4627" />
    <path
       sodipodi:nodetypes="ccc"
       id="path2494"
       d="M -323.19972,-170.67877 L -323.19972,-173.47348 L -323.19972,-170.67877 z "
       style="fill:white;fill-opacity:0.75688076;fill-rule:nonzero;stroke:none;stroke-width:0.5;stroke-linecap:round;stroke-linejoin:round;stroke-miterlimit:4;stroke-dasharray:none;stroke-dashoffset:4;stroke-opacity:1" />
    <g
       style="opacity:0.40163933"
       transform="matrix(-0.782995,0,0,0.650879,-2646.058,515.8389)"
       id="g4640" />
    <g
       id="g4646"
       transform="matrix(-0.782995,0,0,0.650879,-2646.058,515.8389)"
       style="opacity:0.40163933" />
    <g
       id="g4730"
       transform="matrix(1,0,0,0.650879,554.9047,523.1667)"
       style="opacity:0.40163933" />
    <g
       style="opacity:0.40163933"
       transform="matrix(1,0,0,0.650879,554.9047,523.1667)"
       id="g4748" />
    <path
       sodipodi:nodetypes="ccc"
       id="path3256"
       d="M 135.11597,-101.9101 L 135.11597,-104.70481 L 135.11597,-101.9101 z "
       style="fill:white;fill-opacity:0.75688076;fill-rule:nonzero;stroke:none;stroke-width:0.5;stroke-linecap:round;stroke-linejoin:round;stroke-miterlimit:4;stroke-dasharray:none;stroke-dashoffset:4;stroke-opacity:1" />
    <path
       sodipodi:nodetypes="ccc"
       id="path3258"
       d="M 15.613769,-188.54035 L 15.613769,-191.33506 L 15.613769,-188.54035 z "
       style="fill:white;fill-opacity:0.75688076;fill-rule:nonzero;stroke:none;stroke-width:0.5;stroke-linecap:round;stroke-linejoin:round;stroke-miterlimit:4;stroke-dasharray:none;stroke-dashoffset:4;stroke-opacity:1" />
    <g
       id="g3260"
       inkscape:label="box"
       style="display:inline"
       transform="translate(198.5654,-43.95872)" />
    <g
       id="g3262"
       inkscape:label="zip_app"
       style="display:inline"
       transform="translate(198.5654,-43.95872)" />
    <path
       sodipodi:nodetypes="ccc"
       id="path3264"
       d="M 262.20517,-122.78508 L 262.20517,-125.57979 L 262.20517,-122.78508 z "
       style="fill:white;fill-opacity:0.75688076;fill-rule:nonzero;stroke:none;stroke-width:0.5;stroke-linecap:round;stroke-linejoin:round;stroke-miterlimit:4;stroke-dasharray:none;stroke-dashoffset:4;stroke-opacity:1" />
    <path
       sodipodi:nodetypes="ccc"
       id="path3279"
       d="M 169.58072,-48.891404 L 169.58072,-50.41814 L 169.58072,-48.891404 z "
       style="fill:white;fill-opacity:0.75688076;fill-rule:nonzero;stroke:none;stroke-width:0.5;stroke-linecap:round;stroke-linejoin:round;stroke-miterlimit:4;stroke-dasharray:none;stroke-dashoffset:4;stroke-opacity:1" />
    <rect
       style="opacity:0.57786889;fill:white;fill-opacity:1;fill-rule:nonzero;stroke:none;stroke-width:3.63199997;stroke-linecap:round;stroke-linejoin:round;stroke-miterlimit:4;stroke-dasharray:none;stroke-dashoffset:4;stroke-opacity:1"
       id="rect3286"
       width="1"
       height="0"
       x="112.09598"
       y="-105.49139" />
    <rect
       style="opacity:0.57786889;fill:white;fill-opacity:1;fill-rule:nonzero;stroke:none;stroke-width:3.63199997;stroke-linecap:round;stroke-linejoin:round;stroke-miterlimit:4;stroke-dasharray:none;stroke-dashoffset:4;stroke-opacity:1"
       id="rect3288"
       width="1"
       height="0"
       x="76.96917"
       y="-133.019" />
    <path
       sodipodi:nodetypes="ccc"
       id="path3290"
       d="M -81.96825,-206.23507 L -81.96825,-209.02978 L -81.96825,-206.23507 z "
       style="fill:white;fill-opacity:0.75688076;fill-rule:nonzero;stroke:none;stroke-width:0.5;stroke-linecap:round;stroke-linejoin:round;stroke-miterlimit:4;stroke-dasharray:none;stroke-dashoffset:4;stroke-opacity:1" />
    <g
       style="opacity:0.40163933"
       transform="matrix(-0.782995,0,0,0.650879,-2404.827,480.2826)"
       id="g3292" />
    <g
       id="g3294"
       transform="matrix(-0.782995,0,0,0.650879,-2404.827,480.2826)"
       style="opacity:0.40163933" />
    <g
       id="g3296"
       transform="matrix(1,0,0,0.650879,796.1362,487.6104)"
       style="opacity:0.40163933" />
    <g
       style="opacity:0.40163933"
       transform="matrix(1,0,0,0.650879,796.1362,487.6104)"
       id="g3298" />
    <rect
       id="_x3C_Sezione_x3E_"
       width="128"
       height="128"
       x="-23.874781"
       y="-101.5164"
       style="fill:none" />
    <path
       style="opacity:1;fill:url(#linearGradient3455);fill-opacity:1;fill-rule:nonzero;stroke:none;stroke-width:5;stroke-linecap:round;stroke-linejoin:round;stroke-miterlimit:4;stroke-dasharray:none;stroke-dashoffset:4;stroke-opacity:1"
       d="M 76.092259,43.777119 C 55.313213,39.358792 32.838724,48.632401 21.410679,67.534883 C 12.008675,83.086204 12.42567,101.39945 20.792628,115.82192 C 1.0514292,97.112521 -3.490401,66.528917 11.699141,41.404754 C 17.456286,31.882188 25.324045,24.28495 34.367017,18.922237 C 34.625043,18.768977 34.910758,18.655487 35.170642,18.505842 C 35.866684,18.105741 36.577443,17.713477 37.286174,17.339471 C 37.578564,17.18486 37.850991,16.981186 38.145441,16.831045 C 39.112057,16.339182 40.085832,15.880243 41.073172,15.436955 C 41.919472,15.056694 42.798422,14.75055 43.658489,14.406378 C 45.512535,13.664444 47.372776,12.98114 49.280709,12.409692 C 50.015717,12.189549 50.754199,11.983096 51.49579,11.788644 C 51.794619,11.710372 52.082014,11.614304 52.381822,11.540228 C 52.765698,11.445223 53.149997,11.343117 53.535381,11.255017 C 54.017078,11.145022 54.51861,11.057482 55.002478,10.958334 C 56.923637,10.564469 58.876744,10.272947 60.823794,10.052302 C 61.819498,9.9394646 62.803089,9.857083 63.802952,9.7902699 C 66.737822,9.5941503 69.686286,9.591599 72.627032,9.8002761 C 73.61605,9.870457 74.599585,9.9620541 75.585883,10.078959 C 76.58941,10.197895 77.582198,10.332502 78.581128,10.500298 C 79.559739,10.664329 80.520342,10.848308 81.492914,11.059686 C 82.460965,11.269765 83.406877,11.524991 84.36725,11.782437 C 85.345751,12.044742 86.309205,12.33589 87.277978,12.647848 C 88.233451,12.955327 89.18868,13.249063 90.133072,13.605293 C 91.07282,13.959405 91.995834,14.369259 92.9229,14.772108 C 93.859024,15.1789 94.781605,15.599322 95.703101,16.056278 C 96.47693,16.440008 97.25111,16.78523 98.01352,17.204643 C 112.09979,24.953804 121.63618,37.43644 125.852,51.589822 C 115.54323,53.295459 102.31435,52.655542 88.649634,48.10974 C 82.495796,46.062563 81.83806,44.998867 76.092259,43.777119 z "
       id="path3431"
       sodipodi:nodetypes="csccssssssssssssssssssssssscss" />
    <path
       style="opacity:0.38934426;fill:url(#radialGradient2813);fill-opacity:1.0;fill-rule:nonzero;stroke:none;stroke-width:5;stroke-linecap:round;stroke-linejoin:round;stroke-miterlimit:4;stroke-dasharray:none;stroke-dashoffset:4;stroke-opacity:1"
       d="M 68.21875 9.65625 C 66.747182 9.6553181 65.279935 9.6831902 63.8125 9.78125 C 62.812637 9.8480631 61.808203 9.9496622 60.8125 10.0625 C 58.86545 10.283145 56.921157 10.574885 55 10.96875 C 54.516132 11.067898 54.012947 11.140005 53.53125 11.25 C 53.145866 11.3381 52.758877 11.436245 52.375 11.53125 C 52.075192 11.605326 51.79883 11.702978 51.5 11.78125 C 50.758409 11.975702 50.016259 12.186107 49.28125 12.40625 C 47.373317 12.977698 45.510296 13.664316 43.65625 14.40625 C 42.796183 14.750422 41.908798 15.057239 41.0625 15.4375 C 40.07516 15.880788 39.122868 16.351887 38.15625 16.84375 C 37.8618 16.993891 37.573639 17.189138 37.28125 17.34375 C 36.572519 17.717756 35.852291 18.099899 35.15625 18.5 C 34.896366 18.649645 34.633027 18.78424 34.375 18.9375 C 25.332028 24.300213 17.444645 31.883683 11.6875 41.40625 C -3.502042 66.530413 1.0400519 97.103099 20.78125 115.8125 C 12.414292 101.39003 12.004246 83.082572 21.40625 67.53125 C 28.536399 55.737674 39.98937 47.716512 52.625 44.40625 C 60.693904 32.482548 69.4992 21.056098 79.71875 10.71875 C 79.343528 10.648831 78.972629 10.563507 78.59375 10.5 C 77.59482 10.332204 76.597276 10.212686 75.59375 10.09375 C 74.607452 9.9768451 73.614021 9.8826812 72.625 9.8125 C 71.154627 9.7081615 69.690318 9.6571819 68.21875 9.65625 z M 92.75 14.71875 C 85.02434 23.409223 78.925227 32.985789 75.3125 43.625 C 75.571127 43.675669 75.835622 43.726363 76.09375 43.78125 C 81.839551 45.002998 82.502411 46.077822 88.65625 48.125 C 102.32097 52.670802 115.53498 53.299388 125.84375 51.59375 C 121.62793 37.440368 112.08627 24.967911 98 17.21875 C 97.23759 16.799337 96.461328 16.44623 95.6875 16.0625 C 94.766004 15.605544 93.873627 15.188042 92.9375 14.78125 C 92.878244 14.755501 92.809228 14.74454 92.75 14.71875 z "
       id="path3021" />
    <path
       style="opacity:1;fill:url(#linearGradient3001);fill-opacity:1;fill-rule:nonzero;stroke:none;stroke-width:5;stroke-linecap:round;stroke-linejoin:round;stroke-miterlimit:4;stroke-dasharray:none;stroke-dashoffset:4;stroke-opacity:1"
       d="M 68.199503,9.9373932 C 66.727935,9.9364614 65.262798,9.9791471 63.795368,10.077207 C 62.79551,10.14402 61.820023,10.209044 60.824325,10.321881 C 58.877267,10.542526 56.908253,10.836807 54.9871,11.230671 C 54.503232,11.329819 54.000753,11.435256 53.519055,11.545252 C 53.133672,11.633351 52.749464,11.729875 52.365591,11.824879 C 52.065786,11.898955 51.790576,11.991281 51.491755,12.069553 C 50.75016,12.264005 50.024695,12.478572 49.289688,12.698715 C 47.381755,13.270163 45.516226,13.949127 43.662183,14.691062 C 42.802116,15.035234 41.921938,15.324452 41.075628,15.704712 C 40.088297,16.148 39.106155,16.610987 38.139538,17.10285 C 37.845079,17.252991 37.593045,17.472541 37.300656,17.627151 C 36.591923,18.001158 35.864533,18.380515 35.168495,18.780615 C 34.90861,18.930261 34.622595,19.046797 34.364566,19.200057 C 25.321595,24.56277 17.471877,32.152557 11.714733,41.675123 C 5.3857875,52.143473 2.467461,63.561068 2.6617899,74.671177 C 2.7742259,64.094133 5.704403,53.294236 11.714733,43.352888 C 17.471877,33.830322 25.321595,26.240535 34.364566,20.877822 C 34.622595,20.724563 34.90861,20.608026 35.168495,20.458381 C 35.864533,20.058281 36.591923,19.678923 37.300656,19.304917 C 37.593045,19.150306 37.845079,18.930756 38.139538,18.780615 C 39.106155,18.288753 40.088297,17.825765 41.075628,17.382477 C 41.921938,17.002217 42.802116,16.713 43.662183,16.368827 C 45.516226,15.626893 47.381755,14.947929 49.289688,14.376481 C 50.024695,14.156338 50.75016,13.941771 51.491755,13.747319 C 51.790576,13.669047 52.065786,13.57672 52.365591,13.502645 C 52.749464,13.407641 53.133672,13.311117 53.519055,13.223017 C 54.000753,13.113022 54.503232,13.007584 54.9871,12.908436 C 56.908253,12.514573 58.877267,12.220292 60.824325,11.999647 C 61.820023,11.886809 62.79551,11.821785 63.795368,11.754972 C 66.730239,11.558853 69.697837,11.546295 72.63859,11.754972 C 73.6276,11.825153 74.588378,11.917696 75.57468,12.0346 C 76.578196,12.153537 77.581746,12.286246 78.580676,12.454041 C 79.559295,12.618072 80.509234,12.801918 81.481813,13.013296 C 82.449861,13.223375 83.422584,13.489872 84.382949,13.747319 C 85.361455,14.009623 86.315309,14.309197 87.284085,14.621155 C 88.239561,14.928636 89.205876,15.208668 90.150267,15.564898 C 91.090006,15.919011 91.984524,16.315512 92.91159,16.718362 C 93.847704,17.125155 94.786369,17.554684 95.707865,18.011639 C 96.4817,18.39537 97.25238,18.74569 98.01479,19.165103 C 111.56663,26.620256 120.87022,38.461256 125.31343,51.951436 C 125.48741,51.924239 125.66539,51.910046 125.83774,51.881529 C 121.62191,37.728147 112.10107,25.2365 98.01479,17.487338 C 97.25238,17.067924 96.4817,16.717605 95.707865,16.333874 C 94.786369,15.876919 93.847704,15.44739 92.91159,15.040596 C 91.984524,14.637747 91.090006,14.241245 90.150267,13.887133 C 89.205876,13.530903 88.239561,13.25087 87.284085,12.94339 C 86.315309,12.631431 85.361455,12.331858 84.382949,12.069553 C 83.422584,11.812107 82.449861,11.54561 81.481813,11.335531 C 80.509234,11.124153 79.559295,10.940307 78.580676,10.776276 C 77.581746,10.60848 76.578196,10.475771 75.57468,10.356835 C 74.588378,10.23993 73.6276,10.147388 72.63859,10.077207 C 71.168219,9.972869 69.671071,9.9383249 68.199503,9.9373932 z "
       id="path2986"
       sodipodi:nodetypes="csssssssssssssscssssssssssssssssssssssssccssssssssssc" />
  </g>
</svg>
