<?xml version="1.0" encoding="UTF-8" standalone="no"?>
<!-- Created with Inkscape (http://www.inkscape.org/) -->
<svg
   xmlns:dc="http://purl.org/dc/elements/1.1/"
   xmlns:cc="http://web.resource.org/cc/"
   xmlns:rdf="http://www.w3.org/1999/02/22-rdf-syntax-ns#"
   xmlns:svg="http://www.w3.org/2000/svg"
   xmlns="http://www.w3.org/2000/svg"
   xmlns:xlink="http://www.w3.org/1999/xlink"
   xmlns:sodipodi="http://sodipodi.sourceforge.net/DTD/sodipodi-0.dtd"
   xmlns:inkscape="http://www.inkscape.org/namespaces/inkscape"
   width="128"
   height="128"
   id="svg1307"
   sodipodi:version="0.32"
   inkscape:version="0.44"
   version="1.0"
   sodipodi:docbase="/home/pinheiro/artwork/Oxygen/theme/svg/actions"
   sodipodi:docname="kgpg_key1_kgpg.svg">
  <defs
     id="defs1309">
    <linearGradient
       id="linearGradient3541">
      <stop
         style="stop-color:black;stop-opacity:1;"
         offset="0"
         id="stop3543" />
      <stop
         id="stop3588"
         offset="0.5"
         style="stop-color:#46758f;stop-opacity:0.79422385;" />
      <stop
         style="stop-color:black;stop-opacity:0;"
         offset="1"
         id="stop3545" />
    </linearGradient>
    <linearGradient
       id="linearGradient3529">
      <stop
         style="stop-color:black;stop-opacity:1;"
         offset="0"
         id="stop3531" />
      <stop
         id="stop3537"
         offset="0.80219781"
         style="stop-color:black;stop-opacity:1;" />
      <stop
         style="stop-color:black;stop-opacity:0;"
         offset="1"
         id="stop3533" />
    </linearGradient>
    <linearGradient
       id="linearGradient3306">
      <stop
         id="stop3308"
         offset="0"
         style="stop-color:#bbb;stop-opacity:1;" />
      <stop
         style="stop-color:#f0f0f0;stop-opacity:1;"
         offset="0.4642857"
         id="stop3316" />
      <stop
         style="stop-color:#cacaca;stop-opacity:1;"
         offset="0.5"
         id="stop3312" />
      <stop
         id="stop3314"
         offset="0.54395604"
         style="stop-color:#e4e4e4;stop-opacity:1;" />
      <stop
         id="stop3310"
         offset="1"
         style="stop-color:#ddd;stop-opacity:1;" />
    </linearGradient>
    <linearGradient
       inkscape:collect="always"
       id="linearGradient3205">
      <stop
         style="stop-color:black;stop-opacity:1;"
         offset="0"
         id="stop3207" />
      <stop
         style="stop-color:black;stop-opacity:0;"
         offset="1"
         id="stop3210" />
    </linearGradient>
    <linearGradient
       inkscape:collect="always"
       id="linearGradient3189">
      <stop
         style="stop-color:white;stop-opacity:1;"
         offset="0"
         id="stop3191" />
      <stop
         style="stop-color:white;stop-opacity:0;"
         offset="1"
         id="stop3193" />
    </linearGradient>
    <linearGradient
       id="linearGradient3160">
      <stop
         style="stop-color:#656565;stop-opacity:1;"
         offset="0"
         id="stop3162" />
      <stop
         style="stop-color:#a6a6a6;stop-opacity:1;"
         offset="1"
         id="stop3164" />
    </linearGradient>
    <linearGradient
       id="linearGradient3146">
      <stop
         style="stop-color:white;stop-opacity:1;"
         offset="0"
         id="stop3148" />
      <stop
         id="stop3183"
         offset="0"
         style="stop-color:white;stop-opacity:0.49803922;" />
      <stop
         style="stop-color:#ccc;stop-opacity:0.24705882;"
         offset="0.75"
         id="stop3185" />
      <stop
         style="stop-color:white;stop-opacity:0;"
         offset="1"
         id="stop3150" />
    </linearGradient>
    <linearGradient
       inkscape:collect="always"
       id="linearGradient3134">
      <stop
         style="stop-color:white;stop-opacity:1;"
         offset="0"
         id="stop3136" />
      <stop
         style="stop-color:white;stop-opacity:0;"
         offset="1"
         id="stop3138" />
    </linearGradient>
    <linearGradient
       inkscape:collect="always"
       id="linearGradient3092">
      <stop
         style="stop-color:white;stop-opacity:1;"
         offset="0"
         id="stop3094" />
      <stop
         style="stop-color:white;stop-opacity:0;"
         offset="1"
         id="stop3096" />
    </linearGradient>
    <linearGradient
       id="linearGradient2930">
      <stop
         style="stop-color:black;stop-opacity:0.50180507;"
         offset="0"
         id="stop2932" />
      <stop
         id="stop2938"
         offset="0.13736264"
         style="stop-color:black;stop-opacity:0;" />
      <stop
         style="stop-color:white;stop-opacity:0;"
         offset="0.29486871"
         id="stop2940" />
      <stop
         id="stop2942"
         offset="0.58544481"
         style="stop-color:white;stop-opacity:0.79061371;" />
      <stop
         style="stop-color:black;stop-opacity:0;"
         offset="1"
         id="stop2934" />
    </linearGradient>
    <linearGradient
       inkscape:collect="always"
       id="linearGradient2917">
      <stop
         style="stop-color:black;stop-opacity:1;"
         offset="0"
         id="stop2919" />
      <stop
         style="stop-color:black;stop-opacity:0;"
         offset="1"
         id="stop2921" />
    </linearGradient>
    <linearGradient
       id="linearGradient2890">
      <stop
         style="stop-color:#434542;stop-opacity:1;"
         offset="0"
         id="stop2892" />
      <stop
         id="stop2898"
         offset="0.07692308"
         style="stop-color:#cecfce;stop-opacity:1;" />
      <stop
         style="stop-color:white;stop-opacity:1;"
         offset="1"
         id="stop2894" />
    </linearGradient>
    <linearGradient
       id="linearGradient2598">
      <stop
         style="stop-color:#252525;stop-opacity:1;"
         offset="0"
         id="stop2600" />
      <stop
         id="stop2606"
         offset="0.5"
         style="stop-color:#252525;stop-opacity:1;" />
      <stop
         style="stop-color:#252525;stop-opacity:1;"
         offset="0.75"
         id="stop2608" />
      <stop
         style="stop-color:#000000;stop-opacity:1;"
         offset="1"
         id="stop2602" />
    </linearGradient>
    <linearGradient
       id="linearGradient3325">
      <stop
         id="stop3327"
         offset="0"
         style="stop-color:#ffffff;stop-opacity:1;" />
      <stop
         id="stop3329"
         offset="1"
         style="stop-color:#ffffff;stop-opacity:0;" />
    </linearGradient>
    <linearGradient
       id="linearGradient3311">
      <stop
         style="stop-color:#2d2d2d;stop-opacity:1;"
         offset="0"
         id="stop3313" />
      <stop
         id="stop3319"
         offset="0.5"
         style="stop-color:#000000;stop-opacity:1;" />
      <stop
         style="stop-color:#000000;stop-opacity:1;"
         offset="1"
         id="stop3315" />
    </linearGradient>
    <linearGradient
       id="linearGradient3303">
      <stop
         style="stop-color:#ffffff;stop-opacity:0.68345326;"
         offset="0"
         id="stop3305" />
      <stop
         style="stop-color:#ffffff;stop-opacity:0;"
         offset="1"
         id="stop3307" />
    </linearGradient>
    <linearGradient
       inkscape:collect="always"
       id="linearGradient3291">
      <stop
         style="stop-color:#000000;stop-opacity:1;"
         offset="0"
         id="stop3293" />
      <stop
         style="stop-color:#000000;stop-opacity:0;"
         offset="1"
         id="stop3295" />
    </linearGradient>
    <linearGradient
       id="linearGradient3273">
      <stop
         style="stop-color:#ffffff;stop-opacity:0.55035973;"
         offset="0"
         id="stop3275" />
      <stop
         style="stop-color:#ffffff;stop-opacity:0;"
         offset="1"
         id="stop3277" />
    </linearGradient>
    <linearGradient
       id="linearGradient3259">
      <stop
         id="stop3261"
         offset="0"
         style="stop-color:#ffffff;stop-opacity:0.55035973;" />
      <stop
         id="stop3263"
         offset="1"
         style="stop-color:#000000;stop-opacity:0;" />
    </linearGradient>
    <linearGradient
       id="linearGradient3251">
      <stop
         style="stop-color:#000000;stop-opacity:1;"
         offset="0"
         id="stop3253" />
      <stop
         style="stop-color:#131313;stop-opacity:0;"
         offset="1"
         id="stop3255" />
    </linearGradient>
    <linearGradient
       inkscape:collect="always"
       id="linearGradient3235">
      <stop
         style="stop-color:#ffffff;stop-opacity:1;"
         offset="0"
         id="stop3237" />
      <stop
         style="stop-color:#ffffff;stop-opacity:0;"
         offset="1"
         id="stop3239" />
    </linearGradient>
    <linearGradient
       id="linearGradient3225">
      <stop
         style="stop-color:#ffffff;stop-opacity:1;"
         offset="0"
         id="stop3227" />
      <stop
         style="stop-color:#aeaeae;stop-opacity:1;"
         offset="1"
         id="stop3229" />
    </linearGradient>
    <linearGradient
       inkscape:collect="always"
       id="linearGradient3217">
      <stop
         style="stop-color:#252525;stop-opacity:1;"
         offset="0"
         id="stop3219" />
      <stop
         style="stop-color:#252525;stop-opacity:0;"
         offset="1"
         id="stop3221" />
    </linearGradient>
    <linearGradient
       id="linearGradient3207">
      <stop
         style="stop-color:#ffffff;stop-opacity:1;"
         offset="0"
         id="stop3209" />
      <stop
         style="stop-color:#252525;stop-opacity:0;"
         offset="1"
         id="stop3211" />
    </linearGradient>
    <linearGradient
       id="linearGradient2257">
      <stop
         style="stop-color:#b4942a;stop-opacity:1;"
         offset="0"
         id="stop2259" />
      <stop
         style="stop-color:#e4dcc9;stop-opacity:1"
         offset="1"
         id="stop2261" />
    </linearGradient>
    <radialGradient
       inkscape:collect="always"
       xlink:href="#linearGradient3291"
       id="radialGradient3297"
       cx="63.912209"
       cy="115.70919"
       fx="63.912209"
       fy="115.7093"
       r="63.912209"
       gradientTransform="matrix(1,0,0,0.197802,0,92.82166)"
       gradientUnits="userSpaceOnUse" />
    <radialGradient
       inkscape:collect="always"
       xlink:href="#linearGradient3303"
       id="radialGradient1539"
       gradientUnits="userSpaceOnUse"
       gradientTransform="matrix(1,7.635218e-17,-1.390307e-18,2.608014e-2,-1.139078e-13,7.26766)"
       cx="34.677639"
       cy="7.4622769"
       fx="34.677639"
       fy="7.4622769"
       r="47.595197" />
    <radialGradient
       inkscape:collect="always"
       xlink:href="#linearGradient3325"
       id="radialGradient1541"
       gradientUnits="userSpaceOnUse"
       gradientTransform="matrix(-1.5103,2.641273e-3,-1.167078e-4,-9.110224e-3,87.0522,7.438666)"
       cx="34.677639"
       cy="7.4622769"
       fx="34.677639"
       fy="7.4622769"
       r="47.595196" />
    <radialGradient
       inkscape:collect="always"
       xlink:href="#linearGradient3259"
       id="radialGradient1547"
       gradientUnits="userSpaceOnUse"
       gradientTransform="matrix(0.853446,3.931539e-16,-5.927715e-17,0.1578,-62.04115,15.05256)"
       cx="49.011971"
       cy="2.6743078"
       fx="49.011971"
       fy="2.6743078"
       r="1.7246193" />
    <linearGradient
       inkscape:collect="always"
       xlink:href="#linearGradient3251"
       id="linearGradient1550"
       gradientUnits="userSpaceOnUse"
       x1="46.051746"
       y1="3.0999987"
       x2="46.051746"
       y2="2.395859"
       gradientTransform="translate(53.87194,19.35268)" />
    <radialGradient
       inkscape:collect="always"
       xlink:href="#linearGradient3273"
       id="radialGradient1553"
       gradientUnits="userSpaceOnUse"
       gradientTransform="matrix(0.860164,-2.860046e-16,6.583289e-17,0.1578,-29.37149,15.05256)"
       cx="49.011971"
       cy="2.6743078"
       fx="49.011971"
       fy="2.6743078"
       r="1.7246193" />
    <linearGradient
       inkscape:collect="always"
       xlink:href="#linearGradient3251"
       id="linearGradient1556"
       gradientUnits="userSpaceOnUse"
       gradientTransform="matrix(1.28993,-5.112494e-16,5.140778e-16,1.29707,-46.7271,12.03998)"
       x1="46.051746"
       y1="3.0999987"
       x2="46.051746"
       y2="2.395859" />
    <linearGradient
       inkscape:collect="always"
       xlink:href="#linearGradient3235"
       id="linearGradient1559"
       gradientUnits="userSpaceOnUse"
       gradientTransform="matrix(1.297068,-1.880044e-3,1.880044e-3,1.297068,-47.04731,12.10823)"
       x1="48.498562"
       y1="0.81150496"
       x2="48.732723"
       y2="2.3657269" />
    <radialGradient
       inkscape:collect="always"
       xlink:href="#linearGradient3207"
       id="radialGradient1562"
       gradientUnits="userSpaceOnUse"
       gradientTransform="matrix(1.29707,-4.591755e-16,6.750436e-17,0.1578,-47.06473,15.05256)"
       cx="49.011971"
       cy="2.6743078"
       fx="49.011971"
       fy="2.6743078"
       r="1.7246193" />
    <linearGradient
       inkscape:collect="always"
       xlink:href="#linearGradient3217"
       id="linearGradient1565"
       gradientUnits="userSpaceOnUse"
       gradientTransform="matrix(1.29707,-3.784064e-16,3.784064e-16,1.29707,-47.06473,12.03998)"
       x1="48.914677"
       y1="2.9719031"
       x2="48.913002"
       y2="2.5548496" />
    <radialGradient
       inkscape:collect="always"
       xlink:href="#linearGradient3225"
       id="radialGradient1569"
       gradientUnits="userSpaceOnUse"
       gradientTransform="matrix(1.297068,-1.880044e-3,7.085819e-4,0.48867,-47.03734,18.97582)"
       cx="49.009884"
       cy="8.4953122"
       fx="47.370888"
       fy="6.7701697"
       r="3.9750405" />
    <radialGradient
       inkscape:collect="always"
       xlink:href="#linearGradient3311"
       id="radialGradient1576"
       gradientUnits="userSpaceOnUse"
       gradientTransform="matrix(6.228741e-2,-3.825032e-4,4.90218e-3,0.798611,15.0605,-17.07621)"
       cx="95.505852"
       cy="59.591507"
       fx="95.505852"
       fy="59.591507"
       r="47.746404" />
    <radialGradient
       inkscape:collect="always"
       xlink:href="#linearGradient2257"
       id="radialGradient1580"
       gradientUnits="userSpaceOnUse"
       gradientTransform="matrix(1.520175,8.839467e-2,-0.843351,13.788,55.27677,-1567.892)"
       cx="42.617531"
       cy="120.64188"
       fx="42.617531"
       fy="120.64188"
       r="3.406888" />
    <linearGradient
       inkscape:collect="always"
       xlink:href="#linearGradient3134"
       id="linearGradient3140"
       x1="26.241974"
       y1="50.778923"
       x2="55.263794"
       y2="75.174103"
       gradientUnits="userSpaceOnUse"
       gradientTransform="matrix(1.113305,0,0,1.113305,-27.75162,24.90727)" />
    <radialGradient
       inkscape:collect="always"
       xlink:href="#linearGradient3146"
       id="radialGradient3176"
       cx="92.454208"
       cy="71.239235"
       fx="92.454208"
       fy="71.239235"
       r="29.344931"
       gradientTransform="matrix(1,0,0,0.173814,0,65.56385)"
       gradientUnits="userSpaceOnUse" />
    <linearGradient
       inkscape:collect="always"
       xlink:href="#linearGradient3160"
       id="linearGradient3236"
       x1="13.012782"
       y1="68.636307"
       x2="31.868282"
       y2="68.636307"
       gradientUnits="userSpaceOnUse"
       gradientTransform="translate(0,31.5)" />
    <radialGradient
       inkscape:collect="always"
       xlink:href="#linearGradient3189"
       id="radialGradient3272"
       gradientUnits="userSpaceOnUse"
       gradientTransform="matrix(1,0,0,0.534483,0,41.66379)"
       cx="39"
       cy="89.5"
       fx="39"
       fy="89.5"
       r="29" />
    <linearGradient
       inkscape:collect="always"
       xlink:href="#linearGradient2890"
       id="linearGradient3274"
       gradientUnits="userSpaceOnUse"
       gradientTransform="matrix(1.088583,0,0,1.088583,-11.08559,-36.9904)"
       x1="63.498344"
       y1="49.15625"
       x2="124.625"
       y2="49.15625" />
    <linearGradient
       inkscape:collect="always"
       xlink:href="#linearGradient2890"
       id="linearGradient3276"
       gradientUnits="userSpaceOnUse"
       gradientTransform="matrix(1.088583,0,0,1.088583,-11.08559,-36.9904)"
       x1="64.15625"
       y1="63.796875"
       x2="127.31514"
       y2="63.796875" />
    <linearGradient
       inkscape:collect="always"
       xlink:href="#linearGradient2917"
       id="linearGradient3278"
       gradientUnits="userSpaceOnUse"
       gradientTransform="matrix(1.088583,0,0,1.088583,-11.08559,-36.9904)"
       x1="94.478127"
       y1="67.146591"
       x2="94.478127"
       y2="64.642754" />
    <linearGradient
       inkscape:collect="always"
       xlink:href="#linearGradient2930"
       id="linearGradient3280"
       gradientUnits="userSpaceOnUse"
       gradientTransform="matrix(1.088583,0,0,1.088583,-11.08559,-36.9904)"
       x1="94.15625"
       y1="58.84375"
       x2="94.15625"
       y2="50.607132" />
    <linearGradient
       inkscape:collect="always"
       xlink:href="#linearGradient3092"
       id="linearGradient3282"
       gradientUnits="userSpaceOnUse"
       gradientTransform="matrix(0.911332,0,0,0.911332,0.757746,-26.41314)"
       x1="34.760506"
       y1="35.675571"
       x2="27.73057"
       y2="85.991692" />
    <linearGradient
       inkscape:collect="always"
       xlink:href="#linearGradient3134"
       id="linearGradient3284"
       gradientUnits="userSpaceOnUse"
       gradientTransform="matrix(1.113305,0,0,1.113305,-27.75162,-38.84273)"
       x1="26.241974"
       y1="50.778923"
       x2="55.263794"
       y2="75.174103" />
    <linearGradient
       inkscape:collect="always"
       xlink:href="#linearGradient3160"
       id="linearGradient3286"
       gradientUnits="userSpaceOnUse"
       x1="13.012782"
       y1="68.636307"
       x2="31.868282"
       y2="68.636307"
       gradientTransform="translate(0,-32.25)" />
    <linearGradient
       inkscape:collect="always"
       xlink:href="#linearGradient3160"
       id="linearGradient3288"
       gradientUnits="userSpaceOnUse"
       x1="34.981007"
       y1="89.296867"
       x2="34.981007"
       y2="6.8746934"
       gradientTransform="translate(0,-32.25)" />
    <radialGradient
       inkscape:collect="always"
       xlink:href="#linearGradient3146"
       id="radialGradient3290"
       gradientUnits="userSpaceOnUse"
       gradientTransform="matrix(0.929333,0,1.322225e-7,0.156312,-2.766704,10.32209)"
       cx="98.227898"
       cy="44.293781"
       fx="98.227898"
       fy="44.293781"
       r="63.893538" />
    <radialGradient
       inkscape:collect="always"
       xlink:href="#linearGradient3146"
       id="radialGradient3292"
       gradientUnits="userSpaceOnUse"
       gradientTransform="matrix(0.929333,0,1.322225e-7,0.156312,-2.766704,10.32209)"
       cx="98.227898"
       cy="44.293781"
       fx="98.227898"
       fy="44.293781"
       r="63.893538" />
    <radialGradient
       inkscape:collect="always"
       xlink:href="#linearGradient3146"
       id="radialGradient3294"
       gradientUnits="userSpaceOnUse"
       gradientTransform="matrix(0.837949,0.162001,-2.967029e-2,0.15347,6.604647,-4.73853)"
       cx="40.082912"
       cy="3.6800315"
       fx="40.082912"
       fy="3.6800315"
       r="63.893538" />
    <radialGradient
       inkscape:collect="always"
       xlink:href="#linearGradient3146"
       id="radialGradient3296"
       gradientUnits="userSpaceOnUse"
       gradientTransform="matrix(1.460461,0,0,0.173814,-42.57157,33.31385)"
       cx="92.454208"
       cy="71.239235"
       fx="109.07122"
       fy="64.119919"
       r="29.344931" />
    <radialGradient
       inkscape:collect="always"
       xlink:href="#linearGradient3205"
       id="radialGradient3298"
       gradientUnits="userSpaceOnUse"
       gradientTransform="matrix(1,0,0,3.457205e-3,0,30.0091)"
       cx="96.094643"
       cy="62.475086"
       fx="96.094643"
       fy="62.475086"
       r="30.94986" />
    <radialGradient
       inkscape:collect="always"
       xlink:href="#linearGradient3146"
       id="radialGradient3300"
       gradientUnits="userSpaceOnUse"
       gradientTransform="matrix(1,0,0,8.834941e-3,-0.140625,34.20637)"
       cx="96.350143"
       cy="66.806999"
       fx="96.350143"
       fy="66.806999"
       r="31.649858" />
    <radialGradient
       inkscape:collect="always"
       xlink:href="#linearGradient3306"
       id="radialGradient3302"
       cx="149.14813"
       cy="132.84563"
       fx="207.57301"
       fy="94.598503"
       r="63.399036"
       gradientTransform="matrix(1.339956,1.944969e-2,-1.864776e-2,1.284707,-42.50005,-66.23018)"
       gradientUnits="userSpaceOnUse"
       spreadMethod="reflect" />
    <linearGradient
       inkscape:collect="always"
       xlink:href="#linearGradient3160"
       id="linearGradient3378"
       gradientUnits="userSpaceOnUse"
       x1="34.981007"
       y1="89.296867"
       x2="34.981007"
       y2="6.8746934" />
    <linearGradient
       inkscape:collect="always"
       xlink:href="#linearGradient3134"
       id="linearGradient3380"
       gradientUnits="userSpaceOnUse"
       gradientTransform="matrix(1.113305,0,0,1.113305,-27.75162,5.40727)"
       x1="26.241974"
       y1="50.778923"
       x2="55.263794"
       y2="75.174103" />
    <linearGradient
       inkscape:collect="always"
       xlink:href="#linearGradient3160"
       id="linearGradient3382"
       gradientUnits="userSpaceOnUse"
       gradientTransform="translate(0,12)"
       x1="13.012782"
       y1="68.636307"
       x2="31.868282"
       y2="68.636307" />
    <radialGradient
       inkscape:collect="always"
       xlink:href="#linearGradient3189"
       id="radialGradient3394"
       gradientUnits="userSpaceOnUse"
       gradientTransform="matrix(1,0,0,0.534483,0,41.66379)"
       cx="39"
       cy="89.5"
       fx="39"
       fy="89.5"
       r="29" />
    <linearGradient
       inkscape:collect="always"
       xlink:href="#linearGradient3225"
       id="linearGradient3396"
       gradientUnits="userSpaceOnUse"
       gradientTransform="matrix(1.088583,0,0,1.088583,-11.08559,-4.7404)"
       x1="132.77945"
       y1="22.707912"
       x2="-20.653816"
       y2="91.103127" />
    <linearGradient
       inkscape:collect="always"
       xlink:href="#linearGradient3134"
       id="linearGradient3444"
       gradientUnits="userSpaceOnUse"
       gradientTransform="matrix(1.113305,0,0,1.113305,-43.84526,0.955735)"
       x1="26.241974"
       y1="50.778923"
       x2="55.263794"
       y2="75.174103" />
    <linearGradient
       inkscape:collect="always"
       xlink:href="#linearGradient3160"
       id="linearGradient3446"
       gradientUnits="userSpaceOnUse"
       gradientTransform="translate(-16.09364,7.548466)"
       x1="13.012782"
       y1="68.636307"
       x2="31.868282"
       y2="68.636307" />
    <linearGradient
       inkscape:collect="always"
       xlink:href="#linearGradient3225"
       id="linearGradient3480"
       gradientUnits="userSpaceOnUse"
       gradientTransform="matrix(1.05149,-0.281746,0.281746,1.05149,-25.52633,9.74688)"
       x1="132.77945"
       y1="22.707912"
       x2="-20.653816"
       y2="91.103127" />
    <radialGradient
       inkscape:collect="always"
       xlink:href="#linearGradient3189"
       id="radialGradient3482"
       gradientUnits="userSpaceOnUse"
       gradientTransform="matrix(1,0,0,0.534483,0,41.66379)"
       cx="39"
       cy="89.5"
       fx="39"
       fy="89.5"
       r="29" />
    <linearGradient
       inkscape:collect="always"
       xlink:href="#linearGradient2890"
       id="linearGradient3484"
       gradientUnits="userSpaceOnUse"
       gradientTransform="matrix(1.05149,-0.281746,0.281746,1.05149,-25.52633,9.74688)"
       x1="63.498344"
       y1="49.15625"
       x2="124.625"
       y2="49.15625" />
    <linearGradient
       inkscape:collect="always"
       xlink:href="#linearGradient2890"
       id="linearGradient3486"
       gradientUnits="userSpaceOnUse"
       gradientTransform="matrix(1.05149,-0.281746,0.281746,1.05149,-25.52633,9.74688)"
       x1="64.15625"
       y1="63.796875"
       x2="127.31514"
       y2="63.796875" />
    <linearGradient
       inkscape:collect="always"
       xlink:href="#linearGradient2917"
       id="linearGradient3488"
       gradientUnits="userSpaceOnUse"
       gradientTransform="matrix(1.05149,-0.281746,0.281746,1.05149,-25.52633,9.74688)"
       x1="94.478127"
       y1="67.146591"
       x2="94.478127"
       y2="64.642754" />
    <linearGradient
       inkscape:collect="always"
       xlink:href="#linearGradient2930"
       id="linearGradient3490"
       gradientUnits="userSpaceOnUse"
       gradientTransform="matrix(1.05149,-0.281746,0.281746,1.05149,-25.52633,9.74688)"
       x1="94.15625"
       y1="58.84375"
       x2="94.15625"
       y2="50.607132" />
    <linearGradient
       inkscape:collect="always"
       xlink:href="#linearGradient3092"
       id="linearGradient3492"
       gradientUnits="userSpaceOnUse"
       gradientTransform="matrix(0.880279,-0.23587,0.23587,0.880279,-11.34895,16.89844)"
       x1="34.760506"
       y1="35.675571"
       x2="27.73057"
       y2="85.991692" />
    <linearGradient
       inkscape:collect="always"
       xlink:href="#linearGradient3134"
       id="linearGradient3494"
       gradientUnits="userSpaceOnUse"
       gradientTransform="matrix(1.113305,0,0,1.113305,-43.84526,0.955735)"
       x1="26.241974"
       y1="50.778923"
       x2="55.263794"
       y2="75.174103" />
    <linearGradient
       inkscape:collect="always"
       xlink:href="#linearGradient3160"
       id="linearGradient3496"
       gradientUnits="userSpaceOnUse"
       gradientTransform="translate(-16.09364,7.548466)"
       x1="13.012782"
       y1="68.636307"
       x2="31.868282"
       y2="68.636307" />
    <linearGradient
       inkscape:collect="always"
       xlink:href="#linearGradient3160"
       id="linearGradient3498"
       gradientUnits="userSpaceOnUse"
       gradientTransform="matrix(0.965926,-0.258819,0.258819,0.965926,-13.59157,11.45659)"
       x1="34.981007"
       y1="89.296867"
       x2="34.981007"
       y2="6.8746934" />
    <radialGradient
       inkscape:collect="always"
       xlink:href="#linearGradient3146"
       id="radialGradient3500"
       gradientUnits="userSpaceOnUse"
       gradientTransform="matrix(0.897667,-0.240529,4.045665e-2,0.150986,-5.245533,53.29415)"
       cx="98.227898"
       cy="44.293781"
       fx="98.227898"
       fy="44.293781"
       r="63.893538" />
    <radialGradient
       inkscape:collect="always"
       xlink:href="#linearGradient3146"
       id="radialGradient3502"
       gradientUnits="userSpaceOnUse"
       gradientTransform="matrix(0.897667,-0.240529,4.045665e-2,0.150986,-5.245533,53.29415)"
       cx="98.227898"
       cy="44.293781"
       fx="98.227898"
       fy="44.293781"
       r="63.893538" />
    <radialGradient
       inkscape:collect="always"
       xlink:href="#linearGradient3146"
       id="radialGradient3504"
       gradientUnits="userSpaceOnUse"
       gradientTransform="matrix(0.851326,-6.039621e-2,1.106166e-2,0.15592,-9.1478e-2,36.32122)"
       cx="40.082912"
       cy="3.6800315"
       fx="40.082912"
       fy="3.6800315"
       r="63.893538" />
    <radialGradient
       inkscape:collect="always"
       xlink:href="#linearGradient3146"
       id="radialGradient3506"
       gradientUnits="userSpaceOnUse"
       gradientTransform="matrix(1.410697,-0.377995,4.498637e-2,0.167891,-37.74338,85.8047)"
       cx="92.454208"
       cy="71.239235"
       fx="109.07122"
       fy="64.119919"
       r="29.344931" />
    <radialGradient
       inkscape:collect="always"
       xlink:href="#linearGradient3205"
       id="radialGradient3508"
       gradientUnits="userSpaceOnUse"
       gradientTransform="matrix(0.965926,-0.258819,8.947905e-4,3.339404e-3,2.522271,71.59426)"
       cx="96.094643"
       cy="62.475086"
       fx="96.094643"
       fy="62.475086"
       r="30.94986" />
    <radialGradient
       inkscape:collect="always"
       xlink:href="#linearGradient3146"
       id="radialGradient3510"
       gradientUnits="userSpaceOnUse"
       gradientTransform="matrix(0.965926,-0.258819,2.286651e-3,8.533898e-3,3.472771,75.68491)"
       cx="96.350143"
       cy="66.806999"
       fx="96.350143"
       fy="66.806999"
       r="31.649858" />
    <radialGradient
       inkscape:collect="always"
       xlink:href="#linearGradient3529"
       id="radialGradient3535"
       cx="10.25"
       cy="58.75"
       fx="10.25"
       fy="58.75"
       r="17.5625"
       gradientUnits="userSpaceOnUse" />
    <linearGradient
       inkscape:collect="always"
       xlink:href="#linearGradient3541"
       id="linearGradient3547"
       x1="45.155617"
       y1="72.396973"
       x2="47.853844"
       y2="41.896976"
       gradientUnits="userSpaceOnUse" />
    <radialGradient
       inkscape:collect="always"
       xlink:href="#linearGradient3146"
       id="radialGradient3553"
       gradientUnits="userSpaceOnUse"
       gradientTransform="matrix(1,0,0,8.834941e-3,-0.140625,66.45637)"
       cx="96.350143"
       cy="66.806999"
       fx="96.350143"
       fy="66.806999"
       r="31.649858" />
    <radialGradient
       inkscape:collect="always"
       xlink:href="#linearGradient3205"
       id="radialGradient3556"
       gradientUnits="userSpaceOnUse"
       gradientTransform="matrix(1,0,0,3.457205e-3,0,62.2591)"
       cx="96.094643"
       cy="62.475086"
       fx="96.094643"
       fy="62.475086"
       r="30.94986" />
    <radialGradient
       inkscape:collect="always"
       xlink:href="#linearGradient3146"
       id="radialGradient3559"
       gradientUnits="userSpaceOnUse"
       gradientTransform="matrix(1.460461,0,0,0.173814,-42.57157,65.56385)"
       cx="92.454208"
       cy="71.239235"
       fx="109.07122"
       fy="64.119919"
       r="29.344931" />
    <radialGradient
       inkscape:collect="always"
       xlink:href="#linearGradient3146"
       id="radialGradient3562"
       gradientUnits="userSpaceOnUse"
       gradientTransform="matrix(0.837949,0.162001,-2.967029e-2,0.15347,6.604647,27.51147)"
       cx="40.082912"
       cy="3.6800315"
       fx="40.082912"
       fy="3.6800315"
       r="63.893538" />
    <radialGradient
       inkscape:collect="always"
       xlink:href="#linearGradient3146"
       id="radialGradient3565"
       gradientUnits="userSpaceOnUse"
       gradientTransform="matrix(0.929333,0,1.322225e-7,0.156312,-2.766704,42.57209)"
       cx="98.227898"
       cy="44.293781"
       fx="98.227898"
       fy="44.293781"
       r="63.893538" />
    <radialGradient
       inkscape:collect="always"
       xlink:href="#linearGradient3146"
       id="radialGradient3568"
       gradientUnits="userSpaceOnUse"
       gradientTransform="matrix(0.929333,0,1.322225e-7,0.156312,-2.766704,42.57209)"
       cx="98.227898"
       cy="44.293781"
       fx="98.227898"
       fy="44.293781"
       r="63.893538" />
    <linearGradient
       inkscape:collect="always"
       xlink:href="#linearGradient3134"
       id="linearGradient3571"
       gradientUnits="userSpaceOnUse"
       gradientTransform="matrix(1.737405,0,0,1.737405,-50.63849,-48.76485)"
       x1="26.241974"
       y1="50.778923"
       x2="55.263794"
       y2="75.174103" />
    <linearGradient
       inkscape:collect="always"
       xlink:href="#linearGradient3092"
       id="linearGradient3574"
       gradientUnits="userSpaceOnUse"
       gradientTransform="matrix(0.911332,0,0,0.911332,0.757746,5.83686)"
       x1="34.760506"
       y1="35.675571"
       x2="27.73057"
       y2="85.991692" />
    <linearGradient
       inkscape:collect="always"
       xlink:href="#linearGradient2930"
       id="linearGradient3577"
       gradientUnits="userSpaceOnUse"
       gradientTransform="matrix(1.088583,0,0,1.088583,-11.08559,-4.7404)"
       x1="94.15625"
       y1="58.84375"
       x2="94.15625"
       y2="50.607132" />
    <linearGradient
       inkscape:collect="always"
       xlink:href="#linearGradient2917"
       id="linearGradient3580"
       gradientUnits="userSpaceOnUse"
       gradientTransform="matrix(1.088583,0,0,1.088583,-11.08559,-4.7404)"
       x1="94.478127"
       y1="67.146591"
       x2="94.478127"
       y2="64.642754" />
    <linearGradient
       inkscape:collect="always"
       xlink:href="#linearGradient2890"
       id="linearGradient3583"
       gradientUnits="userSpaceOnUse"
       gradientTransform="matrix(1.088583,0,0,1.088583,-11.08559,-4.7404)"
       x1="64.15625"
       y1="63.796875"
       x2="127.31514"
       y2="63.796875" />
    <linearGradient
       inkscape:collect="always"
       xlink:href="#linearGradient2890"
       id="linearGradient3586"
       gradientUnits="userSpaceOnUse"
       gradientTransform="matrix(1.088583,0,0,1.088583,-11.08559,-4.7404)"
       x1="63.498344"
       y1="49.15625"
       x2="124.625"
       y2="49.15625" />
  </defs>
  <sodipodi:namedview
     id="base"
     pagecolor="#ffffff"
     bordercolor="#666666"
     borderopacity="1.0"
     inkscape:pageopacity="0.0"
     inkscape:pageshadow="2"
     inkscape:zoom="4"
     inkscape:cx="58.850719"
     inkscape:cy="74.44733"
     inkscape:current-layer="layer1"
     showgrid="false"
     inkscape:document-units="px"
     inkscape:grid-bbox="true"
     guidetolerance="0.1px"
     showguides="true"
     inkscape:guide-bbox="true"
     inkscape:window-width="1106"
     inkscape:window-height="958"
     inkscape:window-x="165"
     inkscape:window-y="15">
    <sodipodi:guide
       orientation="horizontal"
       position="157.34005"
       id="guide2204" />
    <sodipodi:guide
       orientation="vertical"
       position="30.184621"
       id="guide3119" />
    <sodipodi:guide
       orientation="horizontal"
       position="76.809474"
       id="guide3121" />
  </sodipodi:namedview>
  <metadata
     id="metadata1312">
    <rdf:RDF>
      <cc:Work
         rdf:about="">
        <dc:format>image/svg+xml</dc:format>
        <dc:type
           rdf:resource="http://purl.org/dc/dcmitype/StillImage" />
        <cc:license
           rdf:resource="http://creativecommons.org/licenses/GPL/2.0/" />
        <dc:contributor>
          <cc:Agent>
            <dc:title>Oxygen team</dc:title>
          </cc:Agent>
        </dc:contributor>
      </cc:Work>
      <cc:License
         rdf:about="http://creativecommons.org/licenses/LGPL/2.1/">
        <cc:permits
           rdf:resource="http://web.resource.org/cc/Reproduction" />
        <cc:permits
           rdf:resource="http://web.resource.org/cc/Distribution" />
        <cc:requires
           rdf:resource="http://web.resource.org/cc/Notice" />
        <cc:permits
           rdf:resource="http://web.resource.org/cc/DerivativeWorks" />
        <cc:requires
           rdf:resource="http://web.resource.org/cc/ShareAlike" />
        <cc:requires
           rdf:resource="http://web.resource.org/cc/SourceCode" />
      </cc:License>
    </rdf:RDF>
  </metadata>
  <g
     id="layer1"
     inkscape:label="Layer 1"
     inkscape:groupmode="layer">
    <path
       sodipodi:nodetypes="ccc"
       id="path2276"
       d="M 50.892799,3.2812959 L 50.892799,0.48658747 L 50.892799,3.2812959 z "
       style="fill:#ffffff;fill-opacity:0.75688076;fill-rule:nonzero;stroke:none;stroke-width:0.5;stroke-linecap:round;stroke-linejoin:round;stroke-miterlimit:4;stroke-dasharray:none;stroke-dashoffset:4;stroke-opacity:1" />
    <path
       sodipodi:type="arc"
       style="opacity:0.38139535;fill:url(#radialGradient3297);fill-opacity:1.0;fill-rule:nonzero;stroke:none;stroke-width:0;stroke-linecap:round;stroke-linejoin:round;stroke-miterlimit:4;stroke-dasharray:none;stroke-dashoffset:4;stroke-opacity:1"
       id="path3289"
       sodipodi:cx="63.912209"
       sodipodi:cy="115.70919"
       sodipodi:rx="63.912209"
       sodipodi:ry="12.641975"
       d="M 127.82442 115.70919 A 63.912209 12.641975 0 1 1  0,115.70919 A 63.912209 12.641975 0 1 1  127.82442 115.70919 z"
       transform="matrix(1,0,0,0.416667,0,74.87151)" />
    <path
       style="opacity:1;fill:url(#linearGradient3396);fill-opacity:1;fill-rule:nonzero;stroke:none;stroke-width:0.48889723;stroke-linecap:round;stroke-linejoin:round;stroke-miterlimit:4;stroke-dasharray:none;stroke-dashoffset:4;stroke-opacity:1"
       d="M 30.436834,32.352941 C 14.045766,32.352941 0.72550509,45.673202 0.72550509,62.06427 C 0.72550509,78.45534 14.045767,91.74081 30.436834,91.74081 C 37.828253,91.74081 44.588848,89.03896 49.78051,84.57391 C 49.81806,84.54161 49.847496,84.50201 49.884883,84.46953 C 49.950122,84.39751 50.028992,84.33337 50.093627,84.26079 C 51.548638,82.6269 52.830794,80.86277 53.955404,78.97259 L 111.53415,78.97259 C 111.99814,78.97259 112.46409,78.9377 112.89099,78.83343 C 114.20755,78.82611 115.55525,78.29141 116.61361,77.23305 L 125.90275,67.909122 C 127.91234,65.89952 128.08199,62.817091 126.25065,60.985756 L 119.36208,54.131971 C 119.08805,54.406006 118.73831,54.584252 118.31835,54.584252 L 116.99631,54.584252 L 114.0043,51.592245 C 113.41037,50.99832 112.44118,50.99832 111.84726,51.592245 L 109.69024,53.818854 L 106.38512,50.51373 C 106.21916,50.347783 106.00029,50.239036 105.79367,50.165823 C 105.72429,50.136567 105.6592,50.115034 105.58493,50.096241 C 105.56144,50.091671 105.53898,50.099685 105.51534,50.096241 C 105.41647,50.076111 105.34202,50.06145 105.23702,50.06145 L 101.27087,50.06145 C 101.21197,50.06145 101.15403,50.089768 101.09692,50.096241 C 100.66209,50.053766 100.21389,50.179081 99.879239,50.51373 L 95.843509,54.584252 L 88.676607,54.584252 L 84.606085,50.51373 C 84.012172,49.919817 83.042975,49.919817 82.449057,50.51373 L 80.118074,52.844712 L 76.986904,49.713542 C 76.392989,49.11963 75.423783,49.119629 74.829875,49.713542 L 69.993956,54.584252 L 66.445296,54.584252 C 65.605382,54.584256 64.949292,53.893376 64.949292,53.053458 L 64.949292,50.618102 C 64.949294,49.256846 64.016909,48.774191 63.035799,48.774191 L 56.321178,48.774191 C 55.690414,47.183668 54.945348,45.646014 54.094567,44.181807 C 54.065447,44.131689 54.019561,44.092602 53.990196,44.042644 C 48.564859,36.953166 40.046772,32.35294 30.436834,32.352941 z M 22.535903,41.328963 C 27.185678,41.328967 30.955273,45.06377 30.955273,49.713542 C 30.955273,54.363315 27.185677,58.167703 22.535903,58.167703 C 17.886132,58.167699 14.116534,54.363314 14.116534,49.713542 C 14.116534,45.063773 17.886131,41.328963 22.535903,41.328963 z "
       id="path1969"
       sodipodi:nodetypes="cssssscccccccccccccsssccsccccccccccccccscccsssc" />
    <path
       sodipodi:type="arc"
       style="opacity:0.41393445;fill:url(#radialGradient3394);fill-opacity:1;fill-rule:nonzero;stroke:none;stroke-width:0.78899997;stroke-linecap:round;stroke-linejoin:round;stroke-miterlimit:4;stroke-dasharray:none;stroke-dashoffset:4;stroke-opacity:1"
       id="path3187"
       sodipodi:cx="39"
       sodipodi:cy="65.25"
       sodipodi:rx="29"
       sodipodi:ry="29"
       d="M 68 65.25 A 29 29 0 1 1  10,65.25 A 29 29 0 1 1  68 65.25 z"
       transform="matrix(0.75431,0,0,0.75431,0.831897,20.65625)" />
    <path
       sodipodi:nodetypes="cssscccccccccccccsssccsccccccccccccccscccsssc"
       id="path3142"
       d="M 30.436834,32.352941 C 14.045766,32.352941 0.72550509,45.673202 0.72550509,62.06427 C 0.72550509,78.45534 14.045767,91.74081 30.436834,91.74081 C 37.828253,91.74081 44.938502,89.41592 49.78051,84.57391 C 51.508075,82.84634 52.728602,80.95117 53.955404,78.97259 L 111.53415,78.97259 C 111.99814,78.97259 112.46409,78.9377 112.89099,78.83343 C 114.20755,78.82611 115.55525,78.29141 116.61361,77.23305 L 125.90275,67.909122 C 127.91234,65.89952 128.08199,62.817091 126.25065,60.985756 L 119.36208,54.131971 C 119.08805,54.406006 118.73831,54.584252 118.31835,54.584252 L 116.99631,54.584252 L 114.0043,51.592245 C 113.41037,50.99832 112.44118,50.99832 111.84726,51.592245 L 109.69024,53.818854 L 106.38512,50.51373 C 106.21916,50.347783 106.00029,50.239036 105.79367,50.165823 C 105.72429,50.136567 105.6592,50.115034 105.58493,50.096241 C 105.56144,50.091671 105.53898,50.099685 105.51534,50.096241 C 105.41647,50.076111 105.34202,50.06145 105.23702,50.06145 L 101.27087,50.06145 C 101.21197,50.06145 101.15403,50.089768 101.09692,50.096241 C 100.66209,50.053766 100.21389,50.179081 99.879239,50.51373 L 95.843509,54.584252 L 88.676607,54.584252 L 84.606085,50.51373 C 84.012172,49.919817 83.042975,49.919817 82.449057,50.51373 L 80.118074,52.844712 L 76.986904,49.713542 C 76.392989,49.11963 75.423783,49.119629 74.829875,49.713542 L 69.993956,54.584252 L 66.445296,54.584252 C 65.605382,54.584256 64.949292,53.893376 64.949292,53.053458 L 64.949292,50.618102 C 64.949294,49.256846 64.016909,48.774191 63.035799,48.774191 L 56.321178,48.774191 C 55.690414,47.183668 54.945348,45.646014 54.094567,44.181807 C 54.065447,44.131689 54.019561,44.092602 53.990196,44.042644 C 48.564859,36.953166 40.046772,32.35294 30.436834,32.352941 z M 22.535903,41.328963 C 27.185678,41.328967 30.955273,45.06377 30.955273,49.713542 C 30.955273,54.363315 27.185677,58.167703 22.535903,58.167703 C 17.886132,58.167699 14.116534,54.363314 14.116534,49.713542 C 14.116534,45.063773 17.886131,41.328963 22.535903,41.328963 z "
       style="opacity:1;fill:none;fill-opacity:1;fill-rule:nonzero;stroke:url(#linearGradient3378);stroke-width:0.98900002;stroke-linecap:round;stroke-linejoin:round;stroke-miterlimit:4;stroke-dasharray:none;stroke-dashoffset:4;stroke-opacity:1" />
    <path
       id="path2944"
       d="M 58.277592,48.77029 C 58.257461,48.869164 58.243574,48.971461 58.243574,49.076454 L 58.243574,57.785122 C 58.243574,58.625058 58.900441,59.315944 59.740376,59.315943 L 124.57914,59.315943 L 119.37435,54.145171 C 119.10032,54.419206 118.73973,54.587408 118.31978,54.587408 L 116.99306,54.587408 L 113.99946,51.593803 C 113.40554,50.999879 112.45023,50.999879 111.85632,51.593803 L 109.67915,53.804988 L 106.37938,50.50522 C 106.21343,50.339272 106.00768,50.23825 105.80106,50.165037 C 105.73167,50.135781 105.67124,50.115795 105.59697,50.097002 C 105.57347,50.092432 105.55256,50.100445 105.52891,50.097002 C 105.43004,50.076871 105.32776,50.062983 105.22276,50.062983 L 101.27665,50.062983 C 101.21774,50.062983 101.16366,50.090528 101.10655,50.097002 C 100.67172,50.054526 100.21655,50.17057 99.881899,50.50522 L 95.833726,54.587408 L 88.689895,54.587408 L 84.607707,50.50522 C 84.013793,49.911306 83.058476,49.911308 82.464558,50.50522 L 80.117301,52.852478 L 76.987622,49.722801 C 76.39371,49.128889 75.438382,49.128888 74.844474,49.722801 L 69.979865,54.587408 L 66.441969,54.587408 C 65.602052,54.58741 64.945166,53.896507 64.945166,53.056588 L 64.945166,50.607274 C 64.945166,49.246018 64.021256,48.77029 63.040146,48.77029 L 58.277592,48.77029 z "
       style="fill:url(#linearGradient3586);fill-opacity:1;fill-rule:nonzero;stroke:none;stroke-width:0.2;stroke-linecap:round;stroke-linejoin:round;stroke-miterlimit:4;stroke-dasharray:none;stroke-dashoffset:4;stroke-opacity:1" />
    <path
       style="fill:url(#linearGradient3583);fill-opacity:1;fill-rule:nonzero;stroke:none;stroke-width:0.2;stroke-linecap:round;stroke-linejoin:round;stroke-miterlimit:4;stroke-dasharray:none;stroke-dashoffset:4;stroke-opacity:1"
       d="M 63.892058,62.479639 C 63.052122,62.479639 58.753848,62.482194 58.753848,64.339503 L 58.753848,64.956629 C 58.753848,66.696086 62.964377,66.936027 63.804313,66.936027 L 126.57942,66.936027 C 127.46416,65.542836 127.62927,63.884681 127.08968,62.479639 L 63.892058,62.479639 z "
       id="path2900"
       sodipodi:nodetypes="ccccccc" />
    <path
       sodipodi:nodetypes="ccccccc"
       id="path2915"
       d="M 63.892058,64.656806 C 63.052122,64.656806 58.753848,63.192301 58.753848,64.690481 L 58.753848,64.956629 C 58.753848,66.674011 62.964377,66.936027 63.804313,66.936027 L 126.68828,66.936027 C 127.57302,65.542836 127.73813,63.884681 127.19854,62.479639 L 63.892058,64.656806 z "
       style="fill:url(#linearGradient3580);fill-opacity:1;fill-rule:nonzero;stroke:none;stroke-width:0.2;stroke-linecap:round;stroke-linejoin:round;stroke-miterlimit:4;stroke-dasharray:none;stroke-dashoffset:4;stroke-opacity:1" />
    <path
       style="fill:url(#linearGradient3577);fill-opacity:1;fill-rule:nonzero;stroke:none;stroke-width:0.2;stroke-linecap:round;stroke-linejoin:round;stroke-miterlimit:4;stroke-dasharray:none;stroke-dashoffset:4;stroke-opacity:1"
       d="M 58.277592,48.77029 C 58.257461,48.869164 58.243574,48.971461 58.243574,49.076454 L 58.243574,57.785122 C 58.243574,58.625058 58.900441,59.315944 59.740376,59.315943 L 124.57914,59.315943 L 119.37435,54.145171 C 119.10032,54.419206 118.73973,54.587408 118.31978,54.587408 L 116.99306,54.587408 L 113.99946,51.593803 C 113.40554,50.999879 112.45023,50.999879 111.85632,51.593803 L 109.67915,53.804988 L 106.37938,50.50522 C 106.21343,50.339272 106.00768,50.23825 105.80106,50.165037 C 105.73167,50.135781 105.67124,50.115795 105.59697,50.097002 C 105.57347,50.092432 105.55256,50.100445 105.52891,50.097002 C 105.43004,50.076871 105.32776,50.062983 105.22276,50.062983 L 101.27665,50.062983 C 101.21774,50.062983 101.16366,50.090528 101.10655,50.097002 C 100.67172,50.054526 100.21655,50.17057 99.881899,50.50522 L 95.833726,54.587408 L 88.689895,54.587408 L 84.607707,50.50522 C 84.013793,49.911306 83.058476,49.911308 82.464558,50.50522 L 80.117301,52.852478 L 76.987622,49.722801 C 76.39371,49.128889 75.438382,49.128888 74.844474,49.722801 L 69.979865,54.587408 L 66.441969,54.587408 C 65.602052,54.58741 64.945166,53.896507 64.945166,53.056588 L 64.945166,50.607274 C 64.945166,49.246018 64.021256,48.77029 63.040146,48.77029 L 58.277592,48.77029 z "
       id="path2927" />
    <path
       style="fill:url(#linearGradient3574);fill-opacity:1;fill-rule:nonzero;stroke:none;stroke-width:0.2;stroke-linecap:round;stroke-linejoin:round;stroke-miterlimit:4;stroke-dasharray:none;stroke-dashoffset:4;stroke-opacity:1"
       d="M 29.114785,38.336956 C 28.822659,38.351133 28.534291,38.41723 28.245015,38.441328 L 28.245015,39.206725 L 29.706229,38.371747 L 29.706229,38.336956 C 29.510019,38.341933 29.309793,38.327493 29.114785,38.336956 z M 30.993488,38.336956 L 30.332462,38.719654 L 30.332462,40.73752 L 32.072001,39.763377 L 32.072001,38.406537 C 31.712343,38.382155 31.357309,38.345989 30.993488,38.336956 z M 32.698235,38.476118 L 32.698235,39.380679 L 34.020286,38.615282 C 33.577295,38.549985 33.148815,38.51789 32.698235,38.476118 z M 27.618781,38.51091 C 27.315148,38.543879 27.017404,38.56731 26.714221,38.615282 C 27.028289,38.731312 27.317534,38.892106 27.618781,39.032772 L 27.618781,38.51091 z M 34.994428,38.789236 L 34.785682,38.893608 L 34.785682,40.563565 L 36.525222,39.554633 L 36.525222,39.137144 C 36.019835,39.008802 35.512275,38.886253 34.994428,38.789236 z M 29.706229,39.102353 L 28.766877,39.624215 C 29.089864,39.819666 29.40382,40.026655 29.706229,40.250449 L 29.706229,39.102353 z M 34.159448,39.276306 L 32.698235,40.076494 L 32.698235,41.781243 L 34.159448,40.911474 L 34.159448,39.276306 z M 37.882063,39.485052 L 37.151456,39.902541 L 37.151456,41.955197 L 38.577878,41.120218 L 38.577878,39.728587 C 38.341424,39.645756 38.121923,39.560899 37.882063,39.485052 z M 39.204112,39.937332 L 39.204112,40.73752 L 40.0043,40.28524 C 39.740817,40.174249 39.472437,40.039426 39.204112,39.937332 z M 36.525222,40.28524 L 34.785682,41.294172 L 34.785682,43.312038 L 36.525222,42.303105 L 36.525222,40.28524 z M 32.072001,40.459194 L 30.819534,41.1898 C 31.178679,41.528144 31.512622,41.888792 31.828466,42.268314 L 32.072001,42.129151 L 32.072001,40.459194 z M 40.734907,40.598357 L 39.204112,41.468126 L 39.204112,43.138084 L 40.943651,42.129151 L 40.943651,40.702729 C 40.866144,40.666114 40.81288,40.634189 40.734907,40.598357 z M 41.569886,41.015846 L 41.569886,41.781243 L 42.265701,41.363753 C 42.040117,41.240084 41.79998,41.132643 41.569886,41.015846 z M 34.159448,41.64208 L 32.698235,42.477059 L 32.698235,43.381619 C 32.874214,43.65163 33.03081,43.932311 33.185306,44.216598 L 34.159448,43.694736 L 34.159448,41.64208 z M 42.926726,41.711662 L 41.569886,42.477059 L 41.569886,44.494924 L 43.031098,43.694736 L 43.031098,41.781243 C 42.990287,41.756916 42.967699,41.735759 42.926726,41.711662 z M 38.577878,41.816034 L 37.151456,42.651013 L 37.151456,44.320971 L 38.577878,43.485992 L 38.577878,41.816034 z M 43.657333,42.198733 L 43.657333,43.312038 L 44.561893,42.790176 C 44.272708,42.587071 43.956159,42.389557 43.657333,42.198733 z M 40.943651,42.859758 L 39.204112,43.8339 L 39.204112,45.886556 L 40.943651,44.877623 L 40.943651,42.859758 z M 36.525222,43.033712 L 34.785682,44.007853 L 34.785682,45.712602 L 36.525222,44.668878 L 36.525222,43.033712 z M 45.083755,43.207665 L 43.657333,44.007853 L 43.657333,45.712602 L 45.396872,44.668878 L 45.396872,43.41641 C 45.295055,43.338012 45.186927,43.284499 45.083755,43.207665 z M 46.023106,43.938272 L 46.023106,44.320971 L 46.301432,44.147017 C 46.207402,44.06687 46.118449,44.017021 46.023106,43.938272 z M 38.577878,44.216598 L 37.151456,45.051577 L 37.151456,47.069442 L 38.577878,46.234464 L 38.577878,44.216598 z M 34.159448,44.390552 L 33.463633,44.773251 C 33.672273,45.20814 33.829045,45.668434 33.985494,46.130091 L 34.159448,46.025719 L 34.159448,44.390552 z M 43.031098,44.390552 L 41.569886,45.225531 L 41.569886,46.895488 L 43.031098,46.025719 L 43.031098,44.390552 z M 46.788504,44.599297 L 46.023106,45.051577 L 46.023106,47.069442 L 47.484319,46.199673 L 47.484319,45.225531 C 47.266109,45.013364 47.015134,44.803266 46.788504,44.599297 z M 36.525222,45.399485 L 34.785682,46.408418 L 34.785682,48.426283 L 36.525222,47.452142 L 36.525222,45.399485 z M 45.396872,45.399485 L 43.657333,46.408418 L 43.657333,48.426283 L 45.396872,47.452142 L 45.396872,45.399485 z M 40.943651,45.573439 L 39.204112,46.582371 L 39.204112,48.25233 L 40.943651,47.243396 L 40.943651,45.573439 z M 48.528042,46.338836 L 48.110553,46.582371 L 48.110553,48.25233 L 49.502185,47.452142 C 49.19395,47.063253 48.860998,46.707825 48.528042,46.338836 z M 43.031098,46.791116 L 41.569886,47.591304 L 41.569886,49.64396 L 43.031098,48.808982 L 43.031098,46.791116 z M 47.484319,46.930279 L 46.023106,47.765259 L 46.023106,49.470006 L 47.484319,48.600237 L 47.484319,46.930279 z M 38.577878,46.965071 L 37.151456,47.765259 L 37.151456,49.470006 L 38.577878,48.600237 L 38.577878,46.965071 z M 49.850092,47.939212 L 48.110553,48.982935 L 48.110553,51.000801 L 49.850092,49.957077 L 49.850092,47.939212 z M 40.943651,47.974003 L 39.204112,48.982935 L 39.204112,51.000801 L 40.943651,49.991869 L 40.943651,47.974003 z M 36.525222,48.147957 L 34.785682,49.156889 L 34.785682,50.826847 L 36.525222,49.817914 L 36.525222,48.147957 z M 45.396872,48.147957 L 43.657333,49.156889 L 43.657333,50.826847 L 45.396872,49.817914 L 45.396872,48.147957 z M 50.476327,48.7394 L 50.476327,49.64396 L 50.893815,49.365635 C 50.7589,49.15396 50.61813,48.946502 50.476327,48.7394 z M 38.577878,49.330843 L 37.151456,50.165823 L 37.151456,52.183688 L 38.577878,51.383499 L 38.577878,49.330843 z M 47.484319,49.330843 L 46.023106,50.165823 L 46.023106,52.183688 L 47.484319,51.348709 L 47.484319,49.330843 z M 9.8754813,49.400425 C 9.7306057,49.628704 9.5599027,49.862831 9.4232011,50.096241 L 9.8754813,49.817914 L 9.8754813,49.400425 z M 43.031098,49.504797 L 41.569886,50.339777 L 41.569886,52.009734 L 43.031098,51.174755 L 43.031098,49.504797 z M 51.206932,49.922287 L 50.476327,50.339777 L 50.476327,52.009734 L 51.937539,51.174755 C 51.717197,50.746907 51.453794,50.334621 51.206932,49.922287 z M 9.8754813,50.548521 L 8.8665486,51.105173 C 8.5980149,51.623952 8.3637387,52.165486 8.1359421,52.70555 L 8.1359421,53.575319 L 9.8754813,52.566387 L 9.8754813,50.548521 z M 36.525222,50.548521 L 34.785682,51.522663 L 34.785682,53.575319 L 36.525222,52.566387 L 36.525222,50.548521 z M 45.396872,50.548521 L 43.657333,51.522663 L 43.657333,53.575319 L 45.396872,52.566387 L 45.396872,50.548521 z M 49.850092,50.687684 L 48.110553,51.696617 L 48.110553,53.401365 L 49.850092,52.357641 L 49.850092,50.687684 z M 40.943651,50.722475 L 39.204112,51.696617 L 39.204112,53.401365 L 40.943651,52.357641 L 40.943651,50.722475 z M 10.501715,51.731407 L 10.501715,52.183688 L 10.571297,52.148897 C 10.546877,52.011834 10.521487,51.870016 10.501715,51.731407 z M 51.937539,51.87057 L 50.476327,52.740341 L 50.476327,54.758205 L 51.937539,53.888436 L 51.937539,51.87057 z M 43.031098,51.905361 L 41.569886,52.740341 L 41.569886,54.758205 L 43.031098,53.923227 L 43.031098,51.905361 z M 47.484319,52.044524 L 46.023106,52.914294 L 46.023106,54.584252 L 47.484319,53.714482 L 47.484319,52.044524 z M 38.577878,52.079316 L 37.151456,52.914294 L 37.151456,54.584252 L 38.577878,53.714482 L 38.577878,52.079316 z M 52.563774,52.566387 L 52.563774,53.575319 L 52.876891,53.366575 C 52.77225,53.094981 52.678737,52.833053 52.563774,52.566387 z M 10.71046,52.809922 L 10.501715,52.914294 L 10.501715,54.584252 L 11.127949,54.201553 C 10.9603,53.747765 10.823527,53.287323 10.71046,52.809922 z M 40.943651,53.088248 L 39.204112,54.097181 L 39.204112,56.115046 L 40.943651,55.140905 L 40.943651,53.088248 z M 49.850092,53.088248 L 48.110553,54.131971 L 48.110553,56.115046 L 49.850092,55.106114 L 49.850092,53.088248 z M 9.8754813,53.262202 L 8.1359421,54.271134 L 8.1359421,55.941093 L 9.8754813,54.966951 L 9.8754813,53.262202 z M 36.525222,53.262202 L 34.785682,54.271134 L 34.785682,55.941093 L 36.525222,54.932159 L 36.525222,53.262202 z M 45.396872,53.262202 L 43.657333,54.271134 L 43.657333,55.941093 L 45.396872,54.966951 L 45.396872,53.262202 z M 34.159448,53.366575 C 34.09155,53.602156 34.032265,53.832914 33.950704,54.06239 L 34.159448,53.923227 L 34.159448,53.366575 z M 53.120426,53.923227 L 52.563774,54.271134 L 52.563774,55.941093 L 53.537915,55.349649 C 53.403866,54.870337 53.285569,54.389659 53.120426,53.923227 z M 38.577878,54.47988 L 37.151456,55.314858 L 37.151456,57.332723 L 38.577878,56.497745 L 38.577878,54.47988 z M 47.484319,54.47988 L 46.023106,55.314858 L 46.023106,57.332723 L 47.484319,56.462954 L 47.484319,54.47988 z M 51.937539,54.619042 L 50.476327,55.454022 L 50.476327,57.158769 L 51.937539,56.289 L 51.937539,54.619042 z M 7.509708,54.653834 L 7.3705448,54.688624 C 7.1689308,55.333233 7.0260526,56.004678 6.8834738,56.671699 L 7.509708,56.323791 L 7.509708,54.653834 z M 34.159448,54.653834 L 33.602796,54.966951 C 33.344789,55.54166 33.038897,56.078931 32.698235,56.602117 L 32.698235,57.158769 L 34.159448,56.289 L 34.159448,54.653834 z M 43.031098,54.653834 L 41.569886,55.454022 L 41.569886,57.158769 L 43.031098,56.323791 L 43.031098,54.653834 z M 11.371485,54.792997 L 10.501715,55.314858 L 10.501715,57.332723 L 11.928137,56.497745 L 11.928137,55.906302 C 11.729101,55.549181 11.534341,55.1711 11.371485,54.792997 z M 9.8754813,55.662766 L 8.1359421,56.671699 L 8.1359421,58.689564 L 9.8754813,57.680632 L 9.8754813,55.662766 z M 36.525222,55.662766 L 34.785682,56.671699 L 34.785682,58.689564 L 36.525222,57.680632 L 36.525222,55.662766 z M 45.396872,55.662766 L 43.657333,56.70649 L 43.657333,58.689564 L 45.396872,57.680632 L 45.396872,55.662766 z M 49.850092,55.801929 L 48.110553,56.845652 L 48.110553,58.515611 L 49.850092,57.506678 L 49.850092,55.801929 z M 40.943651,55.83672 L 39.204112,56.845652 L 39.204112,58.515611 L 40.943651,57.506678 L 40.943651,55.83672 z M 53.711869,56.010674 L 52.563774,56.70649 L 52.563774,58.689564 L 54.094567,57.819795 C 53.997901,57.215684 53.856843,56.598343 53.711869,56.010674 z M 12.554371,56.915235 L 12.554371,58.515611 L 13.424142,58.02854 C 13.113954,57.677613 12.82282,57.300501 12.554371,56.915235 z M 7.509708,57.019607 L 6.70952,57.506678 C 6.5852773,58.219167 6.4851812,58.930647 6.4311936,59.663706 L 7.509708,59.072263 L 7.509708,57.019607 z M 34.159448,57.019607 L 32.698235,57.854586 L 32.698235,59.872451 L 34.159448,59.072263 L 34.159448,57.019607 z M 43.031098,57.019607 L 41.569886,57.889376 L 41.569886,59.872451 L 43.031098,59.072263 L 43.031098,57.019607 z M 51.937539,57.019607 L 50.476327,57.889376 L 50.476327,59.872451 L 51.937539,59.072263 L 51.937539,57.019607 z M 11.928137,57.193561 L 10.501715,58.02854 L 10.501715,59.698497 L 11.928137,58.898309 L 11.928137,57.193561 z M 38.577878,57.193561 L 37.151456,58.02854 L 37.151456,59.698497 L 38.577878,58.898309 L 38.577878,57.193561 z M 47.484319,57.193561 L 46.023106,58.02854 L 46.023106,59.698497 L 47.484319,58.863518 L 47.484319,57.193561 z M 32.072001,57.437096 C 32.046867,57.469342 32.027871,57.509485 32.00242,57.541469 L 32.072001,57.506678 L 32.072001,57.437096 z M 32.072001,58.237284 L 30.541207,59.107054 C 30.474365,59.166135 30.400602,59.223387 30.332462,59.281008 L 30.332462,61.264082 L 32.072001,60.25515 L 32.072001,58.237284 z M 40.943651,58.237284 L 39.204112,59.246216 L 39.204112,61.264082 L 40.943651,60.25515 L 40.943651,58.237284 z M 49.850092,58.237284 L 48.110553,59.246216 L 48.110553,61.264082 L 49.850092,60.25515 L 49.850092,58.237284 z M 9.8754813,58.411238 L 8.1359421,59.38538 L 8.1359421,61.090128 L 9.8754813,60.081196 L 9.8754813,58.411238 z M 36.525222,58.411238 L 34.785682,59.38538 L 34.785682,61.090128 L 36.525222,60.081196 L 36.525222,58.411238 z M 45.396872,58.411238 L 43.657333,59.38538 L 43.657333,61.090128 L 45.396872,60.081196 L 45.396872,58.411238 z M 54.16415,58.446028 L 52.563774,59.38538 L 52.563774,61.090128 L 54.303313,60.081196 L 54.303313,59.524543 C 54.274066,59.160536 54.210973,58.805096 54.16415,58.446028 z M 13.84163,58.48082 L 12.554371,59.211426 L 12.554371,61.264082 L 14.293911,60.25515 L 14.293911,58.9331 C 14.136823,58.788259 13.990891,58.633674 13.84163,58.48082 z M 14.920145,59.489752 L 14.920145,59.872451 L 15.233262,59.698497 C 15.133306,59.623285 15.017671,59.567946 14.920145,59.489752 z M 11.928137,59.594125 L 10.501715,60.429104 L 10.501715,62.44697 L 11.928137,61.61199 L 11.928137,59.594125 z M 38.577878,59.594125 L 37.151456,60.463894 L 37.151456,62.44697 L 38.577878,61.61199 L 38.577878,59.594125 z M 47.484319,59.594125 L 46.023106,60.463894 L 46.023106,62.44697 L 47.484319,61.61199 L 47.484319,59.594125 z M 51.937539,59.733288 L 50.476327,60.603058 L 50.476327,62.307806 L 51.937539,61.438036 L 51.937539,59.733288 z M 7.509708,59.768079 L 6.3964029,60.394313 C 6.3845206,60.691037 6.3964029,60.964582 6.3964029,61.264082 C 6.3964029,61.528183 6.3871536,61.802322 6.3964029,62.06427 L 7.509708,61.438036 L 7.509708,59.768079 z M 29.706229,59.768079 C 29.245444,60.109076 28.752459,60.398562 28.245015,60.672639 L 28.245015,62.44697 L 29.706229,61.61199 L 29.706229,59.768079 z M 34.159448,59.768079 L 32.698235,60.603058 L 32.698235,62.273015 L 34.159448,61.438036 L 34.159448,59.768079 z M 43.031098,59.768079 L 41.569886,60.603058 L 41.569886,62.273015 L 43.031098,61.438036 L 43.031098,59.768079 z M 15.789914,60.115987 L 14.920145,60.603058 L 14.920145,62.273015 L 16.381358,61.438036 L 16.381358,60.463894 C 16.18371,60.347725 15.980208,60.242821 15.789914,60.115987 z M 9.8754813,60.777011 L 8.1359421,61.785944 L 8.1359421,63.80381 L 9.8754813,62.829668 L 9.8754813,60.777011 z M 36.525222,60.777011 L 34.785682,61.820735 L 34.785682,63.80381 L 36.525222,62.829668 L 36.525222,60.777011 z M 54.303313,60.777011 L 52.563774,61.820735 L 52.563774,63.80381 L 54.303313,62.829668 L 54.303313,60.777011 z M 17.007592,60.811802 L 17.007592,61.090128 L 17.251128,60.950965 C 17.166204,60.910093 17.091405,60.854579 17.007592,60.811802 z M 45.396872,60.811802 L 43.657333,61.820735 L 43.657333,63.80381 L 45.396872,62.829668 L 45.396872,60.811802 z M 14.293911,60.950965 L 12.554371,61.959898 L 12.554371,63.629856 L 14.293911,62.655714 L 14.293911,60.950965 z M 32.072001,60.950965 L 30.332462,61.959898 L 30.332462,63.629856 L 32.072001,62.655714 L 32.072001,60.950965 z M 40.943651,60.950965 L 39.204112,61.959898 L 39.204112,63.629856 L 40.943651,62.655714 L 40.943651,60.950965 z M 49.850092,60.950965 L 48.110553,61.959898 L 48.110553,63.664646 L 49.850092,62.655714 L 49.850092,60.950965 z M 27.618781,61.020547 C 27.190269,61.219961 26.750584,61.393338 26.296731,61.542409 L 25.879242,61.785944 L 25.879242,63.80381 L 27.618781,62.829668 L 27.618781,61.020547 z M 17.912153,61.264082 L 17.007592,61.785944 L 17.007592,63.80381 L 18.747131,62.829668 L 18.747131,61.542409 C 18.475256,61.453236 18.175198,61.371573 17.912153,61.264082 z M 19.373365,61.716363 L 19.373365,62.44697 L 20.277926,61.925107 C 19.968672,61.867291 19.673904,61.797178 19.373365,61.716363 z M 24.278866,61.994689 C 24.127873,62.016702 23.979322,62.082667 23.826586,62.099061 L 23.826586,62.273015 L 24.278866,61.994689 z M 21.460812,62.099061 L 21.460812,63.629856 L 23.200352,62.655714 L 23.200352,62.099061 C 22.9708,62.112014 22.73731,62.133852 22.504535,62.133852 C 22.145572,62.133852 21.811887,62.129637 21.460812,62.099061 z M 7.509708,62.168643 L 6.4311936,62.760086 C 6.4737809,63.406127 6.5426455,64.043108 6.6399383,64.673579 L 7.509708,64.186508 L 7.509708,62.168643 z M 16.381358,62.168643 L 14.920145,63.003622 L 14.920145,64.986696 L 14.989726,64.986696 L 16.381358,64.186508 L 16.381358,62.168643 z M 25.253008,62.168643 L 23.826586,63.003622 L 23.826586,64.986696 L 23.896167,64.986696 L 25.253008,64.186508 L 25.253008,62.168643 z M 34.159448,62.168643 L 32.698235,63.003622 L 32.698235,64.986696 L 32.767817,64.986696 L 34.159448,64.186508 L 34.159448,62.168643 z M 51.937539,62.168643 L 50.476327,63.003622 L 50.476327,65.021487 L 51.937539,64.186508 L 51.937539,62.168643 z M 43.031098,62.203434 L 41.569886,63.003622 L 41.569886,64.986696 L 41.639467,64.986696 L 43.031098,64.186508 L 43.031098,62.203434 z M 47.484319,62.307806 L 46.023106,63.142785 L 46.023106,64.882324 L 47.484319,64.012554 L 47.484319,62.307806 z M 11.928137,62.342597 L 10.501715,63.142785 L 10.501715,64.847534 L 11.928137,64.012554 L 11.928137,62.342597 z M 20.834578,62.342597 L 19.373365,63.142785 L 19.373365,64.847534 L 20.834578,64.012554 L 20.834578,62.342597 z M 29.706229,62.342597 L 28.245015,63.142785 L 28.245015,64.847534 L 29.706229,64.012554 L 29.706229,62.342597 z M 38.577878,62.342597 L 37.151456,63.142785 L 37.151456,64.847534 L 38.577878,64.012554 L 38.577878,62.342597 z M 14.293911,63.351529 L 12.554371,64.360462 L 12.554371,64.986696 C 12.665673,64.961487 12.783135,64.986696 12.902279,64.986696 L 14.293911,64.986696 L 14.293911,63.351529 z M 23.200352,63.351529 L 21.460812,64.360462 L 21.460812,64.986696 L 23.200352,64.986696 L 23.200352,63.351529 z M 32.072001,63.351529 L 30.332462,64.395253 L 30.332462,64.986696 L 32.072001,64.986696 L 32.072001,63.351529 z M 49.850092,63.351529 L 48.110553,64.395253 L 48.110553,64.986696 L 48.945532,64.986696 C 49.300505,64.986696 49.589293,65.100613 49.850092,65.299813 L 49.850092,63.351529 z M 40.943651,63.38632 L 39.204112,64.395253 L 39.204112,64.986696 L 40.943651,64.986696 L 40.943651,63.38632 z M 9.8754813,63.525483 L 8.1359421,64.534417 L 8.1359421,66.204374 L 9.8754813,65.195441 L 9.8754813,63.525483 z M 18.747131,63.525483 L 17.007592,64.534417 L 17.007592,64.986696 L 18.747131,64.986696 L 18.747131,63.525483 z M 27.618781,63.525483 L 25.879242,64.534417 L 25.879242,64.986696 L 27.618781,64.986696 L 27.618781,63.525483 z M 36.525222,63.525483 L 34.785682,64.534417 L 34.785682,64.986696 L 36.525222,64.986696 L 36.525222,63.525483 z M 45.396872,63.525483 L 43.657333,64.534417 L 43.657333,64.986696 L 45.396872,64.986696 L 45.396872,63.525483 z M 54.233731,63.560274 L 52.563774,64.534417 L 52.563774,66.239164 L 53.990196,65.369395 C 54.103673,64.767316 54.170456,64.17765 54.233731,63.560274 z M 11.928137,64.70837 L 10.501715,65.543349 L 10.501715,67.561215 L 11.336695,67.108934 L 11.336695,66.517491 C 11.336695,66.029875 11.578332,65.618439 11.928137,65.334605 L 11.928137,64.70837 z M 20.834578,64.70837 L 20.347507,64.986696 L 20.834578,64.986696 L 20.834578,64.70837 z M 29.706229,64.70837 L 29.253948,64.986696 L 29.706229,64.986696 L 29.706229,64.70837 z M 47.484319,64.70837 L 47.032039,64.986696 L 47.484319,64.986696 L 47.484319,64.70837 z M 38.577878,64.743161 L 38.160388,64.986696 L 38.577878,64.986696 L 38.577878,64.743161 z M 7.509708,64.882324 L 6.7443107,65.334605 C 6.8363555,65.831354 6.932565,66.310637 7.0574277,66.795817 L 7.509708,66.587072 L 7.509708,64.882324 z M 16.381358,64.882324 L 16.207404,64.986696 L 16.381358,64.986696 L 16.381358,64.882324 z M 25.253008,64.882324 L 25.079054,64.986696 L 25.253008,64.986696 L 25.253008,64.882324 z M 34.159448,64.882324 L 33.985494,64.986696 L 34.159448,64.986696 L 34.159448,64.882324 z M 43.031098,64.882324 L 42.857145,64.986696 L 43.031098,64.986696 L 43.031098,64.882324 z M 51.937539,64.882324 L 50.476327,65.717303 L 50.476327,66.517491 L 50.476327,67.422051 L 51.937539,66.587072 L 51.937539,64.882324 z M 9.8754813,65.926047 L 8.1359421,66.900189 L 8.1359421,68.95284 L 9.8754813,67.943913 L 9.8754813,65.926047 z M 53.816242,66.204374 L 52.563774,66.934981 L 52.563774,68.95284 L 53.120426,68.63973 C 53.398877,67.850231 53.627976,67.029602 53.816242,66.204374 z M 7.509708,67.282888 L 7.2313817,67.422051 C 7.3064775,67.68179 7.4254008,67.931491 7.509708,68.187448 L 7.509708,67.282888 z M 51.937539,67.282888 L 50.476327,68.152657 L 50.476327,70.17052 L 51.937539,69.30075 L 51.937539,67.282888 z M 11.336695,67.80475 L 10.501715,68.291821 L 10.501715,69.96178 L 11.336695,69.47471 L 11.336695,67.80475 z M 9.8754813,68.63973 L 8.1359421,69.64866 L 8.1359421,69.8922 C 8.2977855,70.27589 8.4404733,70.63242 8.623013,71.0055 L 9.8754813,70.34448 L 9.8754813,68.63973 z M 52.737727,69.57908 L 52.563774,69.68345 L 52.563774,70.03136 C 52.629689,69.87847 52.67519,69.7336 52.737727,69.57908 z M 51.937539,70.03136 L 50.476327,70.86634 L 50.476327,72.57109 L 51.694003,71.84048 C 51.770165,71.70002 51.864341,71.56512 51.937539,71.42299 L 51.937539,70.03136 z M 11.336695,70.20531 L 10.501715,70.69238 L 10.501715,72.71025 L 11.858556,71.91006 C 11.548671,71.62693 11.336695,71.25153 11.336695,70.79676 L 11.336695,70.20531 z M 9.8754813,71.04029 L 8.9361301,71.59694 C 9.208665,72.11623 9.4943613,72.59711 9.8058997,73.09295 L 9.8754813,73.05816 L 9.8754813,71.04029 z M 49.850092,72.01443 C 49.589293,72.21363 49.300505,72.32755 48.945532,72.32755 L 48.110553,72.32755 L 48.110553,73.92793 L 49.850092,72.8842 L 49.850092,72.01443 z M 12.554371,72.32755 L 12.554371,73.89314 L 14.293911,72.8842 L 14.293911,72.32755 L 12.902279,72.32755 C 12.783135,72.32755 12.665673,72.35276 12.554371,72.32755 z M 14.920145,72.32755 L 14.920145,72.5363 L 15.268053,72.32755 L 14.920145,72.32755 z M 17.007592,72.32755 L 17.007592,74.06709 L 18.747131,73.05816 L 18.747131,72.32755 L 17.007592,72.32755 z M 19.373365,72.32755 L 19.373365,72.71025 L 20.03439,72.32755 L 19.373365,72.32755 z M 21.460812,72.32755 L 21.460812,73.89314 L 23.200352,72.8842 L 23.200352,72.32755 L 21.460812,72.32755 z M 23.826586,72.32755 L 23.826586,72.5363 L 24.174494,72.32755 L 23.826586,72.32755 z M 25.879242,72.32755 L 25.879242,74.06709 L 27.618781,73.05816 L 27.618781,72.32755 L 25.879242,72.32755 z M 28.245015,72.32755 L 28.245015,72.71025 L 28.906041,72.32755 L 28.245015,72.32755 z M 30.332462,72.32755 L 30.332462,73.92793 L 32.072001,72.91899 L 32.072001,72.32755 L 30.332462,72.32755 z M 32.698235,72.32755 L 32.698235,72.57109 L 33.115725,72.32755 L 32.698235,72.32755 z M 34.785682,72.32755 L 34.785682,74.06709 L 36.525222,73.05816 L 36.525222,72.32755 L 34.785682,72.32755 z M 37.151456,72.32755 L 37.151456,72.71025 L 37.81248,72.32755 L 37.151456,72.32755 z M 39.204112,72.32755 L 39.204112,73.92793 L 40.943651,72.91899 L 40.943651,72.32755 L 39.204112,72.32755 z M 41.569886,72.32755 L 41.569886,72.57109 L 41.987374,72.32755 L 41.569886,72.32755 z M 43.657333,72.32755 L 43.657333,74.10188 L 45.396872,73.09295 L 45.396872,72.32755 L 43.657333,72.32755 z M 46.023106,72.32755 L 46.023106,72.71025 L 46.684131,72.32755 L 46.023106,72.32755 z M 16.381358,72.43192 L 14.920145,73.2669 L 14.920145,75.24998 L 16.381358,74.44979 L 16.381358,72.43192 z M 25.253008,72.43192 L 23.826586,73.2669 L 23.826586,75.24998 L 25.253008,74.44979 L 25.253008,72.43192 z M 34.159448,72.43192 L 32.698235,73.2669 L 32.698235,75.24998 L 34.159448,74.44979 L 34.159448,72.43192 z M 43.031098,72.43192 L 41.569886,73.30169 L 41.569886,75.28477 L 43.031098,74.44979 L 43.031098,72.43192 z M 11.928137,72.57109 L 10.501715,73.40607 L 10.501715,74.13667 C 10.662495,74.36452 10.784996,74.57577 10.953995,74.7977 L 11.928137,74.27584 L 11.928137,72.57109 z M 20.834578,72.57109 L 19.373365,73.40607 L 19.373365,75.07602 L 20.834578,74.27584 L 20.834578,72.57109 z M 29.706229,72.57109 L 28.245015,73.40607 L 28.245015,75.11081 L 29.706229,74.31063 L 29.706229,72.57109 z M 38.577878,72.57109 L 37.151456,73.40607 L 37.151456,75.11081 L 38.577878,74.31063 L 38.577878,72.57109 z M 47.484319,72.57109 L 46.023106,73.44086 L 46.023106,75.11081 L 47.484319,74.27584 L 47.484319,72.57109 z M 51.032979,72.91899 L 50.476327,73.2669 L 50.476327,73.82356 C 50.67415,73.534 50.848672,73.21741 51.032979,72.91899 z M 49.850092,73.61481 L 48.110553,74.62374 L 48.110553,76.64161 L 48.284507,76.53724 C 48.840651,75.94104 49.360587,75.34283 49.850092,74.69332 L 49.850092,73.61481 z M 14.293911,73.6496 L 12.554371,74.62374 L 12.554371,76.64161 L 14.293911,75.63268 L 14.293911,73.6496 z M 23.200352,73.6496 L 21.460812,74.62374 L 21.460812,76.64161 L 23.200352,75.63268 L 23.200352,73.6496 z M 32.072001,73.6496 L 30.332462,74.62374 L 30.332462,76.64161 L 32.072001,75.63268 L 32.072001,73.6496 z M 40.943651,73.6496 L 39.204112,74.65853 L 39.204112,76.64161 L 40.943651,75.66747 L 40.943651,73.6496 z M 18.747131,73.78876 L 17.007592,74.76291 L 17.007592,76.46765 L 18.747131,75.45872 L 18.747131,73.78876 z M 27.618781,73.78876 L 25.879242,74.76291 L 25.879242,76.50245 L 27.618781,75.49351 L 27.618781,73.78876 z M 36.525222,73.78876 L 34.785682,74.76291 L 34.785682,76.50245 L 36.525222,75.49351 L 36.525222,73.78876 z M 45.396872,73.82356 L 43.657333,74.7977 L 43.657333,76.50245 L 45.396872,75.49351 L 45.396872,73.82356 z M 47.484319,74.97165 L 46.023106,75.84142 L 46.023106,77.85929 L 47.484319,76.98952 L 47.484319,74.97165 z M 11.928137,75.00644 L 11.371485,75.31956 C 11.554863,75.5468 11.736175,75.76022 11.928137,75.98058 L 11.928137,75.00644 z M 20.834578,75.00644 L 19.373365,75.84142 L 19.373365,77.8245 L 20.834578,76.98952 L 20.834578,75.00644 z M 29.706229,75.00644 L 28.245015,75.84142 L 28.245015,77.8245 L 29.706229,76.98952 L 29.706229,75.00644 z M 38.577878,75.00644 L 37.151456,75.87621 L 37.151456,77.85929 L 38.577878,77.02431 L 38.577878,75.00644 z M 16.381358,75.1456 L 14.920145,75.98058 L 14.920145,77.65054 L 16.381358,76.81556 L 16.381358,75.1456 z M 25.253008,75.1456 L 23.826586,75.98058 L 23.826586,77.68533 L 25.253008,76.85035 L 25.253008,75.1456 z M 34.159448,75.1456 L 32.698235,75.98058 L 32.698235,77.68533 L 34.159448,76.85035 L 34.159448,75.1456 z M 43.031098,75.1804 L 41.569886,76.01537 L 41.569886,77.68533 L 43.031098,76.85035 L 43.031098,75.1804 z M 18.747131,76.18933 L 17.007592,77.19826 L 17.007592,79.18134 L 18.747131,78.20719 L 18.747131,76.18933 z M 27.618781,76.18933 L 25.879242,77.19826 L 25.879242,79.18134 L 27.618781,78.20719 L 27.618781,76.18933 z M 36.525222,76.18933 L 34.785682,77.23305 L 34.785682,79.21613 L 36.525222,78.20719 L 36.525222,76.18933 z M 45.396872,76.18933 L 43.657333,77.19826 L 43.657333,79.21613 L 45.396872,78.20719 L 45.396872,76.18933 z M 14.293911,76.32849 L 13.006652,77.12868 C 13.357341,77.48085 13.711911,77.80731 14.085166,78.13761 L 14.293911,78.03324 L 14.293911,76.32849 z M 23.200352,76.32849 L 21.460812,77.33742 L 21.460812,79.04217 L 23.200352,78.06803 L 23.200352,76.32849 z M 32.072001,76.32849 L 30.332462,77.33742 L 30.332462,79.04217 L 32.072001,78.06803 L 32.072001,76.32849 z M 40.943651,76.36328 L 39.204112,77.37221 L 39.204112,79.04217 L 40.943651,78.06803 L 40.943651,76.36328 z M 16.381358,77.58096 L 14.920145,78.38115 L 14.920145,78.83343 C 15.29886,79.13854 15.704843,79.45541 16.103031,79.73799 L 16.381358,79.56403 L 16.381358,77.58096 z M 25.253008,77.58096 L 23.826586,78.38115 L 23.826586,80.39901 L 25.253008,79.56403 L 25.253008,77.58096 z M 34.159448,77.58096 L 32.698235,78.41594 L 32.698235,80.39901 L 34.159448,79.59883 L 34.159448,77.58096 z M 43.031098,77.58096 L 41.569886,78.38115 L 41.569886,80.39901 L 43.031098,79.59883 L 43.031098,77.58096 z M 20.834578,77.72012 L 19.373365,78.52031 L 19.373365,80.25985 L 20.834578,79.42487 L 20.834578,77.72012 z M 29.706229,77.72012 L 28.245015,78.52031 L 28.245015,80.25985 L 29.706229,79.42487 L 29.706229,77.72012 z M 38.577878,77.75491 L 37.151456,78.5551 L 37.151456,80.25985 L 38.577878,79.42487 L 38.577878,77.75491 z M 46.440595,78.34636 L 46.023106,78.5551 L 46.023106,78.65947 C 46.155642,78.55001 46.310612,78.45852 46.440595,78.34636 z M 23.200352,78.76385 L 21.460812,79.77278 L 21.460812,81.75585 L 23.200352,80.74692 L 23.200352,78.76385 z M 32.072001,78.76385 L 30.332462,79.77278 L 30.332462,81.79064 L 32.072001,80.78171 L 32.072001,78.76385 z M 40.943651,78.76385 L 39.204112,79.77278 L 39.204112,81.79064 L 40.943651,80.78171 L 40.943651,78.76385 z M 18.747131,78.90301 L 17.007592,79.91194 L 17.007592,80.36422 C 17.356059,80.58833 17.690208,80.8185 18.051316,81.02525 L 18.747131,80.60776 L 18.747131,78.90301 z M 27.618781,78.90301 L 25.879242,79.91194 L 25.879242,81.61669 L 27.618781,80.60776 L 27.618781,78.90301 z M 36.525222,78.9378 L 34.785682,79.94673 L 34.785682,81.61669 L 36.525222,80.60776 L 36.525222,78.9378 z M 45.396872,78.9378 L 43.657333,79.94673 L 43.657333,80.39901 C 44.254029,80.01798 44.839435,79.57577 45.396872,79.14654 L 45.396872,78.9378 z M 20.834578,80.12069 L 19.373365,80.95567 L 19.373365,81.68627 C 19.774059,81.88431 20.177579,82.10104 20.591042,82.27772 L 20.834578,82.13855 L 20.834578,80.12069 z M 29.706229,80.12069 L 28.245015,80.99046 L 28.245015,82.97353 L 29.706229,82.13855 L 29.706229,80.12069 z M 38.577878,80.12069 L 37.151456,80.95567 L 37.151456,82.97353 L 38.577878,82.13855 L 38.577878,80.12069 z M 25.253008,80.25985 L 23.826586,81.09483 L 23.826586,82.79958 L 25.253008,81.99939 L 25.253008,80.25985 z M 34.159448,80.29464 L 32.698235,81.12962 L 32.698235,82.79958 L 34.159448,81.99939 L 34.159448,80.29464 z M 43.031098,80.29464 L 41.569886,81.12962 L 41.569886,81.54711 C 42.057247,81.29941 42.564386,81.0599 43.031098,80.78171 L 43.031098,80.29464 z M 18.747131,81.33836 L 18.677549,81.37315 C 18.696486,81.38326 18.728159,81.36309 18.747131,81.37315 L 18.747131,81.33836 z M 36.525222,81.33836 L 34.785682,82.31251 L 34.785682,83.8433 C 35.244001,83.76131 35.693728,83.67152 36.142523,83.56497 L 36.525222,83.35623 L 36.525222,81.33836 z M 27.618781,81.37315 L 25.879242,82.3473 L 25.879242,83.8433 C 26.108827,83.88466 26.343215,83.91263 26.575058,83.94767 L 27.618781,83.35623 L 27.618781,81.37315 z M 23.200352,81.47753 L 21.460812,82.45167 L 21.460812,82.62562 C 22.022278,82.8408 22.584065,83.00747 23.165561,83.18228 L 23.200352,83.18228 L 23.200352,81.47753 z M 32.072001,81.51232 L 30.332462,82.48646 L 30.332462,84.19121 L 32.072001,83.18228 L 32.072001,81.51232 z M 40.943651,81.51232 L 39.204112,82.48646 L 39.204112,82.62562 C 39.795059,82.40077 40.376802,82.16244 40.943651,81.89502 L 40.943651,81.51232 z M 34.159448,82.6952 L 32.698235,83.53018 L 32.698235,84.12163 C 33.188873,84.07615 33.677855,84.02101 34.159448,83.94767 L 34.159448,82.6952 z M 25.253008,82.73 L 24.00054,83.42581 C 24.411324,83.53326 24.833738,83.61738 25.253008,83.70414 L 25.253008,82.73 z M 29.706229,82.86916 L 28.245015,83.70414 L 28.245015,84.15642 C 28.727169,84.19657 29.216321,84.17878 29.706229,84.19121 L 29.706229,82.86916 z M 32.072001,83.87809 L 31.515349,84.19121 C 31.695975,84.18285 31.892433,84.20337 32.072001,84.19121 L 32.072001,83.87809 z "
       id="path2967" />
    <path
       id="text3130"
       d="M 15.531268,66.469574 C 15.010729,66.469579 14.596666,66.663597 14.289078,67.051629 C 13.983853,67.439668 13.831242,67.968486 13.831244,68.638082 C 13.831242,69.305317 13.983853,69.832952 14.289078,70.220988 C 14.596666,70.609024 15.010729,70.803043 15.531268,70.803041 C 16.051802,70.803043 16.463498,70.609024 16.76636,70.220988 C 17.071579,69.832952 17.224192,69.305317 17.224196,68.638082 C 17.224192,67.968486 17.071579,67.439668 16.76636,67.051629 C 16.463498,66.663597 16.051802,66.469579 15.531268,66.469574 M 15.531268,65.88752 C 16.274213,65.887525 16.868098,66.137145 17.312923,66.636383 C 17.757741,67.133262 17.980152,67.800495 17.980157,68.638082 C 17.980152,69.473309 17.757741,70.140541 17.312923,70.639783 C 16.868098,71.136658 16.274213,71.385097 15.531268,71.385097 C 14.785952,71.385097 14.189702,71.136658 13.742515,70.639783 C 13.297693,70.142909 13.075282,69.475675 13.075282,68.638082 C 13.075282,67.800495 13.297693,67.133262 13.742515,66.636383 C 14.189702,66.137145 14.785952,65.887525 15.531268,65.88752 M 18.377658,65.983346 L 19.147816,65.983346 L 20.464536,67.953103 L 21.788356,65.983346 L 22.558514,65.983346 L 20.85494,68.528059 L 22.672086,71.282172 L 21.901929,71.282172 L 20.4113,69.028485 L 18.910026,71.282172 L 18.136318,71.282172 L 20.027996,68.453529 L 18.377658,65.983346 M 22.888581,65.983346 L 23.658739,65.983346 L 25.128072,68.162501 L 26.586758,65.983346 L 27.356915,65.983346 L 25.482983,68.758753 L 25.482983,71.282172 L 24.762513,71.282172 L 24.762513,68.758753 L 22.888581,65.983346 M 31.672637,70.526211 L 31.672637,69.103016 L 30.501431,69.103016 L 30.501431,68.513863 L 32.382461,68.513863 L 32.382461,70.788845 C 32.105624,70.98523 31.800401,71.134292 31.466789,71.236033 C 31.133169,71.335409 30.777075,71.385097 30.398506,71.385097 C 29.570377,71.385097 28.922074,71.143757 28.453592,70.661077 C 27.987473,70.176034 27.754416,69.501702 27.754416,68.638082 C 27.754416,67.772102 27.987473,67.097771 28.453592,66.615087 C 28.922074,66.130047 29.570377,65.887525 30.398506,65.88752 C 30.74395,65.887525 31.071651,65.930115 31.38161,66.015288 C 31.693928,66.100471 31.981406,66.225873 32.244045,66.391493 L 32.244045,67.154553 C 31.979041,66.929781 31.697477,66.760606 31.399356,66.647029 C 31.101227,66.533463 30.787721,66.476678 30.458841,66.476673 C 29.810534,66.476678 29.323122,66.657682 28.996606,67.019687 C 28.672452,67.3817 28.510376,67.921164 28.510378,68.638082 C 28.510376,69.352639 28.672452,69.890921 28.996606,70.25293 C 29.323122,70.61494 29.810534,70.795944 30.458841,70.795944 C 30.712008,70.795944 30.937968,70.77465 31.136722,70.73206 C 31.335469,70.687104 31.514107,70.618488 31.672637,70.526211 M 33.695632,65.983346 L 37.045995,65.983346 L 37.045995,66.586694 L 34.412553,66.586694 L 34.412553,68.155403 L 36.935972,68.155403 L 36.935972,68.758753 L 34.412553,68.758753 L 34.412553,70.678822 L 37.109879,70.678822 L 37.109879,71.282172 L 33.695632,71.282172 L 33.695632,65.983346 M 38.295283,65.983346 L 39.260643,65.983346 L 41.610155,70.416189 L 41.610155,65.983346 L 42.305782,65.983346 L 42.305782,71.282172 L 41.340422,71.282172 L 38.99091,66.849329 L 38.99091,71.282172 L 38.295283,71.282172 L 38.295283,65.983346"
       style="font-size:4.65760851px;font-style:normal;font-variant:normal;font-weight:normal;font-stretch:normal;text-align:start;line-height:125%;writing-mode:lr-tb;text-anchor:start;fill:url(#linearGradient3571);fill-opacity:1;stroke:none;stroke-width:0;stroke-linecap:butt;stroke-linejoin:miter;stroke-miterlimit:4;stroke-opacity:1;font-family:Bitstream Vera Sans" />
    <path
       sodipodi:nodetypes="cscccccccccsssccsccccccccccccccscccsssc"
       id="path3154"
       d="M 30.436834,32.352941 C 14.045766,32.352941 0.72550509,45.673202 0.72550509,62.06427 L 125.90275,67.909122 C 127.91234,65.89952 128.08199,63.317091 126.25065,61.485756 L 119.36208,54.631971 C 119.08805,54.906006 118.73831,55.084252 118.31835,55.084252 L 116.99631,55.084252 L 114.0043,52.092245 C 113.41037,51.49832 112.44118,51.49832 111.84726,52.092245 L 109.69024,54.318854 L 106.38512,51.01373 C 106.21916,50.847783 106.00029,50.739036 105.79367,50.665823 C 105.72429,50.636567 105.6592,50.615034 105.58493,50.596241 C 105.56144,50.591671 105.53898,50.599685 105.51534,50.596241 C 105.41647,50.576111 105.34202,50.56145 105.23702,50.56145 L 101.27087,50.56145 C 101.21197,50.56145 101.15403,50.589768 101.09692,50.596241 C 100.66209,50.553766 100.21389,50.679081 99.879239,51.01373 L 95.843509,55.084252 L 88.676607,55.084252 L 84.606085,51.01373 C 84.012172,50.419817 83.042975,50.419817 82.449057,51.01373 L 80.118074,53.344712 L 76.986904,50.213542 C 76.392989,49.61963 75.423783,49.619629 74.829875,50.213542 L 69.993956,55.084252 L 66.445296,55.084252 C 65.605382,55.084256 64.949292,54.393376 64.949292,53.553458 L 64.949292,51.118102 C 64.949294,49.756846 64.016909,49.274191 63.035799,49.274191 L 56.321178,48.774191 C 55.690414,47.183668 54.945348,45.646014 54.094567,44.181807 C 54.065447,44.131689 54.019561,44.092602 53.990196,44.042644 C 48.564859,36.953166 40.046772,32.35294 30.436834,32.352941 z M 22.535903,41.328963 C 27.185678,41.328967 30.955273,45.06377 30.955273,49.713542 C 30.955273,54.363315 27.185677,58.167703 22.535903,58.167703 C 17.886132,58.167699 14.116534,54.363314 14.116534,49.713542 C 14.116534,45.063773 17.886131,41.328963 22.535903,41.328963 z "
       style="opacity:0.65163933;fill:none;fill-opacity:1;fill-rule:nonzero;stroke:url(#radialGradient3568);stroke-width:1.48899996;stroke-linecap:round;stroke-linejoin:round;stroke-miterlimit:4;stroke-dasharray:none;stroke-dashoffset:4;stroke-opacity:1" />
    <path
       style="opacity:0.84836067;fill:none;fill-opacity:1;fill-rule:nonzero;stroke:url(#radialGradient3565);stroke-width:0.58899999;stroke-linecap:round;stroke-linejoin:round;stroke-miterlimit:4;stroke-dasharray:none;stroke-dashoffset:4;stroke-opacity:1"
       d="M 30.436834,32.352941 C 14.045766,32.352941 0.72550509,45.673202 0.72550509,62.06427 L 125.90275,67.909122 C 127.91234,65.89952 128.08199,62.817091 126.25065,60.985756 L 119.36208,54.131971 C 119.08805,54.406006 118.73831,54.584252 118.31835,54.584252 L 116.99631,54.584252 L 114.0043,51.592245 C 113.41037,50.99832 112.44118,50.99832 111.84726,51.592245 L 109.69024,53.818854 L 106.38512,50.51373 C 106.21916,50.347783 106.00029,50.239036 105.79367,50.165823 C 105.72429,50.136567 105.6592,50.115034 105.58493,50.096241 C 105.56144,50.091671 105.53898,50.099685 105.51534,50.096241 C 105.41647,50.076111 105.34202,50.06145 105.23702,50.06145 L 101.27087,50.06145 C 101.21197,50.06145 101.15403,50.089768 101.09692,50.096241 C 100.66209,50.053766 100.21389,50.179081 99.879239,50.51373 L 95.843509,54.584252 L 88.676607,54.584252 L 84.606085,50.51373 C 84.012172,49.919817 83.042975,49.919817 82.449057,50.51373 L 80.118074,52.844712 L 76.986904,49.713542 C 76.392989,49.11963 75.423783,49.119629 74.829875,49.713542 L 69.993956,54.584252 L 66.445296,54.584252 C 65.605382,54.584256 64.949292,53.893376 64.949292,53.053458 L 64.949292,50.618102 C 64.949294,49.256846 64.016909,48.774191 63.035799,48.774191 L 56.321178,48.774191 C 55.690414,47.183668 54.945348,45.646014 54.094567,44.181807 C 54.065447,44.131689 54.019561,44.092602 53.990196,44.042644 C 48.564859,36.953166 40.046772,32.35294 30.436834,32.352941 z M 22.535903,41.328963 C 27.185678,41.328967 30.955273,45.06377 30.955273,49.713542 C 30.955273,54.363315 27.185677,58.167703 22.535903,58.167703 C 17.886132,58.167699 14.116534,54.363314 14.116534,49.713542 C 14.116534,45.063773 17.886131,41.328963 22.535903,41.328963 z "
       id="path3158"
       sodipodi:nodetypes="cscccccccccsssccsccccccccccccccscccsssc" />
    <path
       style="fill:none;fill-opacity:1;fill-rule:nonzero;stroke:url(#radialGradient3562);stroke-width:0.78899997;stroke-linecap:round;stroke-linejoin:round;stroke-miterlimit:4;stroke-dasharray:none;stroke-dashoffset:4;stroke-opacity:1"
       d="M 30.436834,32.452941 C 14.045766,32.452941 0.72550509,45.773202 0.72550509,62.16427 L 125.90275,68.009122 C 127.91234,65.99952 128.08199,62.917091 126.25065,61.085756 L 119.36208,54.231971 C 119.08805,54.506006 118.73831,54.684252 118.31835,54.684252 L 116.99631,54.684252 L 114.0043,51.692245 C 113.41037,51.09832 112.44118,51.09832 111.84726,51.692245 L 109.69024,53.918854 L 106.38512,50.61373 C 106.21916,50.447783 106.00029,50.339036 105.79367,50.265823 C 105.72429,50.236567 105.6592,50.215034 105.58493,50.196241 C 105.56144,50.191671 105.53898,50.199685 105.51534,50.196241 C 105.41647,50.176111 105.34202,50.16145 105.23702,50.16145 L 101.27087,50.16145 C 101.21197,50.16145 101.15403,50.189768 101.09692,50.196241 C 100.66209,50.153766 100.21389,50.279081 99.879239,50.61373 L 95.843509,54.684252 L 88.676607,54.684252 L 84.606085,50.61373 C 84.012172,50.019817 83.042975,50.019817 82.449057,50.61373 L 80.118074,52.944712 L 76.986904,49.813542 C 76.392989,49.21963 75.423783,49.219629 74.829875,49.813542 L 69.993956,54.684252 L 66.445296,54.684252 C 65.605382,54.684256 64.949292,53.993376 64.949292,53.153458 L 64.949292,50.718102 C 64.949294,49.356846 64.016909,48.874191 63.035799,48.874191 L 56.321178,48.874191 C 55.690414,47.283668 54.945348,45.746014 54.094567,44.281807 C 54.065447,44.231689 54.019561,44.192602 53.990196,44.142644 C 48.564859,37.053166 40.046772,32.45294 30.436834,32.452941 z M 22.535903,41.428963 C 27.185678,41.428967 30.955273,45.16377 30.955273,49.813542 C 30.955273,54.463315 27.185677,58.267703 22.535903,58.267703 C 17.886132,58.267699 14.116534,54.463314 14.116534,49.813542 C 14.116534,45.163773 17.886131,41.428963 22.535903,41.428963 z "
       id="path3144"
       sodipodi:nodetypes="cscccccccccsssccsccccccccccccccscccsssc" />
    <path
       style="opacity:0.63934428;fill:url(#radialGradient3559);fill-opacity:1;fill-rule:nonzero;stroke:none;stroke-width:0.78899997;stroke-linecap:round;stroke-linejoin:round;stroke-miterlimit:4;stroke-dasharray:none;stroke-dashoffset:4;stroke-opacity:1"
       d="M 89.28125,72.0625 C 72.995248,72.0625 59.496696,75.05941 57.15625,78.96875 L 111.53125,78.96875 C 111.99524,78.96875 112.47935,78.94802 112.90625,78.84375 C 114.22281,78.83644 115.56664,78.2771 116.625,77.21875 L 117.625,76.21875 C 112.06296,73.73842 101.45703,72.0625 89.28125,72.0625 z "
       id="path3168" />
    <path
       style="fill:none;fill-opacity:0.75;fill-rule:evenodd;stroke:url(#radialGradient3556);stroke-width:0.214;stroke-linecap:butt;stroke-linejoin:miter;stroke-miterlimit:4;stroke-dasharray:none;stroke-opacity:1"
       d="M 65.251783,62.475087 L 126.9375,62.475087"
       id="path3203" />
    <path
       id="path3214"
       d="M 65.366658,67.046623 L 127.05238,67.046623"
       style="fill:none;fill-opacity:0.75;fill-rule:evenodd;stroke:url(#radialGradient3553);stroke-width:0.65574688;stroke-linecap:butt;stroke-linejoin:miter;stroke-miterlimit:4;stroke-dasharray:none;stroke-opacity:1" />
  </g>
</svg>
