<?xml version="1.0" encoding="UTF-8" standalone="no"?>
<!-- Generator: Adobe Illustrator 12.0.0, SVG Export Plug-In . SVG Version: 6.00 Build 51448)  -->
<svg
   xmlns:dc="http://purl.org/dc/elements/1.1/"
   xmlns:cc="http://web.resource.org/cc/"
   xmlns:rdf="http://www.w3.org/1999/02/22-rdf-syntax-ns#"
   xmlns:svg="http://www.w3.org/2000/svg"
   xmlns="http://www.w3.org/2000/svg"
   xmlns:xlink="http://www.w3.org/1999/xlink"
   xmlns:sodipodi="http://sodipodi.sourceforge.net/DTD/sodipodi-0.dtd"
   xmlns:inkscape="http://www.inkscape.org/namespaces/inkscape"
   version="1.1"
   id="Livello_1"
   width="128"
   height="128"
   viewBox="0 0 128 128"
   overflow="visible"
   enable-background="new 0 0 128 128"
   xml:space="preserve"
   sodipodi:version="0.32"
   inkscape:version="0.44"
   sodipodi:docname="knotes_delete_knotes.svg"
   sodipodi:docbase="/home/pinheiro/artwork/Oxygen/theme/svg/actions"><metadata
   id="metadata42"><rdf:RDF><cc:Work
       rdf:about=""><dc:format>image/svg+xml</dc:format><dc:type
         rdf:resource="http://purl.org/dc/dcmitype/StillImage" /></cc:Work></rdf:RDF></metadata><defs
   id="defs40"><linearGradient
     id="linearGradient2216"><stop
       style="stop-color:#ffffff;stop-opacity:0.46209386;"
       offset="0"
       id="stop2218" /><stop
       id="stop2224"
       offset="0.5"
       style="stop-color:#ffffff;stop-opacity:1;" /><stop
       style="stop-color:#ffffff;stop-opacity:0.35018051;"
       offset="1"
       id="stop2220" /></linearGradient><radialGradient
     inkscape:collect="always"
     xlink:href="#XMLID_2_"
     id="radialGradient2815"
     gradientUnits="userSpaceOnUse"
     cx="10"
     cy="7.9995"
     r="156.984" /><linearGradient
     inkscape:collect="always"
     xlink:href="#linearGradient2216"
     id="linearGradient2817"
     gradientUnits="userSpaceOnUse"
     gradientTransform="translate(151.1996,28.94656)"
     x1="72.822838"
     y1="-7.7291837"
     x2="126.55885"
     y2="61.403938" /><linearGradient
     inkscape:collect="always"
     id="linearGradient3291"><stop
       style="stop-color:#000000;stop-opacity:1;"
       offset="0"
       id="stop3293" /><stop
       style="stop-color:#000000;stop-opacity:0;"
       offset="1"
       id="stop3295" /></linearGradient><linearGradient
     id="linearGradient2287"><stop
       style="stop-color:#000000;stop-opacity:0;"
       offset="0"
       id="stop2299" /><stop
       id="stop2307"
       offset="0.4375"
       style="stop-color:#000000;stop-opacity:0;" /><stop
       style="stop-color:#000000;stop-opacity:0;"
       offset="0.58240438"
       id="stop2309" /><stop
       id="stop2419"
       offset="0.76442307"
       style="stop-color:#000000;stop-opacity:0.49803922;" /><stop
       style="stop-color:#000000;stop-opacity:1;"
       offset="0.875"
       id="stop3918" /><stop
       id="stop3920"
       offset="0.91826922"
       style="stop-color:#000000;stop-opacity:0.49803922;" /><stop
       style="stop-color:#000000;stop-opacity:0;"
       offset="0.96048182"
       id="stop2417" /><stop
       id="stop2291"
       offset="1"
       style="stop-color:#000000;stop-opacity:0;" /></linearGradient><linearGradient
     id="linearGradient2321"><stop
       id="stop2323"
       offset="0"
       style="stop-color:#c3c3c3;stop-opacity:1;" /><stop
       id="stop2325"
       offset="1"
       style="stop-color:#ffffff;stop-opacity:1;" /></linearGradient><linearGradient
     id="linearGradient2362"
     inkscape:collect="always"><stop
       id="stop2364"
       offset="0"
       style="stop-color:#ffffff;stop-opacity:1;" /><stop
       id="stop2366"
       offset="1"
       style="stop-color:#ffffff;stop-opacity:0;" /></linearGradient><linearGradient
     id="linearGradient2389"><stop
       id="stop2391"
       offset="0"
       style="stop-color:#000000;stop-opacity:0;" /><stop
       style="stop-color:#000000;stop-opacity:0;"
       offset="0.4375"
       id="stop2393" /><stop
       id="stop2395"
       offset="0.56588125"
       style="stop-color:#000000;stop-opacity:0;" /><stop
       style="stop-color:#000000;stop-opacity:0.24705882;"
       offset="0.76237977"
       id="stop2423" /><stop
       style="stop-color:#000000;stop-opacity:0.49803922;"
       offset="0.77884614"
       id="stop2421" /><stop
       id="stop2397"
       offset="0.875"
       style="stop-color:#000000;stop-opacity:1;" /><stop
       style="stop-color:#000000;stop-opacity:0.49803922;"
       offset="0.875"
       id="stop2411" /><stop
       style="stop-color:#000000;stop-opacity:0;"
       offset="1"
       id="stop3938" /></linearGradient><radialGradient
     inkscape:collect="always"
     xlink:href="#linearGradient2287"
     id="radialGradient2118"
     gradientUnits="userSpaceOnUse"
     cx="95.796135"
     cy="56.931728"
     fx="95.990845"
     fy="39.602753"
     r="47.11924" /><radialGradient
     inkscape:collect="always"
     xlink:href="#linearGradient3291"
     id="radialGradient2120"
     gradientUnits="userSpaceOnUse"
     gradientTransform="matrix(1,0,0,0.197802,0,92.82166)"
     cx="63.912209"
     cy="115.70919"
     fx="63.912209"
     fy="115.7093"
     r="63.912209" /><linearGradient
     inkscape:collect="always"
     xlink:href="#linearGradient2321"
     id="linearGradient2122"
     gradientUnits="userSpaceOnUse"
     x1="-42.789177"
     y1="82.913582"
     x2="229.1772"
     y2="81.155327" /><radialGradient
     inkscape:collect="always"
     xlink:href="#linearGradient2389"
     id="radialGradient2124"
     gradientUnits="userSpaceOnUse"
     gradientTransform="matrix(1.165294,0,0,1.180294,-9.816118,-9.597466)"
     cx="59.385818"
     cy="52.046673"
     fx="59.385818"
     fy="52.046673"
     r="43.225086" /><linearGradient
     inkscape:collect="always"
     xlink:href="#linearGradient2362"
     id="linearGradient2126"
     gradientUnits="userSpaceOnUse"
     gradientTransform="matrix(0.698909,0,0,0.68739,181.4258,47.37735)"
     x1="74.514832"
     y1="17.232468"
     x2="52.587749"
     y2="99.06546" /></defs><sodipodi:namedview
   inkscape:window-height="577"
   inkscape:window-width="933"
   inkscape:pageshadow="2"
   inkscape:pageopacity="0.0"
   borderopacity="1.0"
   bordercolor="#666666"
   pagecolor="#ffffff"
   id="base"
   inkscape:zoom="2.2962328"
   inkscape:cx="48.384491"
   inkscape:cy="55.433763"
   inkscape:window-x="83"
   inkscape:window-y="438"
   inkscape:current-layer="Livello_1" />




<radialGradient
   id="XMLID_2_"
   cx="10"
   cy="7.9995"
   r="156.984"
   gradientUnits="userSpaceOnUse">
	<stop
   offset="0.0765"
   style="stop-color:#F3C300"
   id="stop12" />
	<stop
   offset="0.1887"
   style="stop-color:#F7D21F"
   id="stop14" />
	<stop
   offset="0.3467"
   style="stop-color:#FDE446"
   id="stop16" />
	<stop
   offset="0.4294"
   style="stop-color:#FFEB55"
   id="stop18" />
	<stop
   offset="0.6882"
   style="stop-color:#FFEB55"
   id="stop20" />
	<stop
   offset="0.7281"
   style="stop-color:#FEE951"
   id="stop22" />
	<stop
   offset="0.7641"
   style="stop-color:#FDE446"
   id="stop24" />
	<stop
   offset="0.7987"
   style="stop-color:#FADB34"
   id="stop26" />
	<stop
   offset="0.8322"
   style="stop-color:#F7CF1A"
   id="stop28" />
	<stop
   offset="0.8588"
   style="stop-color:#F3C300"
   id="stop30" />
	<stop
   offset="0.9208"
   style="stop-color:#FBD400"
   id="stop32" />
	<stop
   offset="0.9706"
   style="stop-color:#FFDD00"
   id="stop34" />
</radialGradient>


<g
   id="g2807"
   transform="matrix(0.891642,0,0,0.882936,-139.2452,-27.55325)"><path
     style="opacity:0.15;fill:#323232"
     id="path3"
     d="M 161.19958,32.946558 C 158.99358,32.946558 157.19958,34.740558 157.19958,36.946558 L 157.19958,148.94656 C 157.19958,151.15256 158.99358,152.94656 161.19958,152.94656 L 273.19958,152.94656 C 275.40558,152.94656 277.19958,151.15256 277.19958,148.94656 L 277.19958,36.946558 C 277.19958,34.740558 275.40558,32.946558 273.19958,32.946558 L 161.19958,32.946558 z " /><path
     style="opacity:0.2;fill:#323232"
     id="path5"
     d="M 161.19958,33.946558 C 159.54558,33.946558 158.19958,35.292558 158.19958,36.946558 L 158.19958,148.94656 C 158.19958,150.60056 159.54558,151.94656 161.19958,151.94656 L 273.19958,151.94656 C 274.85358,151.94656 276.19958,150.60056 276.19958,148.94656 L 276.19958,36.946558 C 276.19958,35.292558 274.85358,33.946558 273.19958,33.946558 L 161.19958,33.946558 z " /><path
     style="opacity:0.25;fill:#323232"
     id="path7"
     d="M 161.19958,34.946558 C 160.09658,34.946558 159.19958,35.843558 159.19958,36.946558 L 159.19958,148.94656 C 159.19958,150.04956 160.09658,150.94656 161.19958,150.94656 L 273.19958,150.94656 C 274.30258,150.94656 275.19958,150.04956 275.19958,148.94656 L 275.19958,36.946558 C 275.19958,35.843558 274.30258,34.946558 273.19958,34.946558 L 161.19958,34.946558 z " /><path
     style="opacity:0.3;fill:#323232"
     id="path9"
     d="M 161.19958,35.946558 C 160.64758,35.946558 160.19958,36.394558 160.19958,36.946558 L 160.19958,148.94656 C 160.19958,149.49956 160.64758,149.94656 161.19958,149.94656 L 273.19958,149.94656 C 273.75258,149.94656 274.19958,149.49956 274.19958,148.94656 L 274.19958,36.946558 C 274.19958,36.394558 273.75258,35.946558 273.19958,35.946558 L 161.19958,35.946558 z " /><polygon
     transform="translate(151.1996,28.94656)"
     style="fill:url(#radialGradient2815)"
     id="polygon36"
     points="124,93.168 122,118 95.167,122 8,122 8,57.5 10,8 59.5,6 124,6 124,93.168 " /><path
     sodipodi:nodetypes="ccccccc"
     id="rect1341"
     d="M 161.46696,39.560461 L 215.26642,36.560462 L 274.06589,36.560462 L 274.06589,61.459927 L 217.76642,61.459927 L 160.96696,62.759927 L 161.46696,39.560461 z "
     style="opacity:0.61885244;fill:url(#linearGradient2817);fill-opacity:1;fill-rule:nonzero;stroke:none;stroke-width:0.80199999;stroke-linecap:round;stroke-linejoin:round;stroke-miterlimit:4;stroke-dashoffset:4;stroke-opacity:1" /></g><path
   sodipodi:nodetypes="ccc"
   id="path2276"
   d="M 339.5553,-60.998764 L 339.5553,-63.793473 L 339.5553,-60.998764 z "
   style="fill:white;fill-opacity:0.75688076;fill-rule:nonzero;stroke:none;stroke-width:0.5;stroke-linecap:round;stroke-linejoin:round;stroke-miterlimit:4;stroke-dasharray:none;stroke-dashoffset:4;stroke-opacity:1" /><path
   sodipodi:nodetypes="ccc"
   id="path3206"
   d="M 220.0531,-147.62901 L 220.0531,-150.42372 L 220.0531,-147.62901 z "
   style="fill:white;fill-opacity:0.75688076;fill-rule:nonzero;stroke:none;stroke-width:0.5;stroke-linecap:round;stroke-linejoin:round;stroke-miterlimit:4;stroke-dasharray:none;stroke-dashoffset:4;stroke-opacity:1" /><g
   id="layer4"
   inkscape:label="box"
   style="display:inline"
   transform="translate(403.0047,-3.04738)" /><g
   id="layer5"
   inkscape:label="zip_app"
   style="display:inline"
   transform="translate(403.0047,-3.04738)" /><path
   sodipodi:nodetypes="ccc"
   id="path3946"
   d="M 466.6445,-81.873744 L 466.6445,-84.668453 L 466.6445,-81.873744 z "
   style="fill:white;fill-opacity:0.75688076;fill-rule:nonzero;stroke:none;stroke-width:0.5;stroke-linecap:round;stroke-linejoin:round;stroke-miterlimit:4;stroke-dasharray:none;stroke-dashoffset:4;stroke-opacity:1" /><path
   sodipodi:nodetypes="ccc"
   id="path1561"
   d="M 374.02005,-7.980064 L 374.02005,-9.5068 L 374.02005,-7.980064 z "
   style="fill:white;fill-opacity:0.75688076;fill-rule:nonzero;stroke:none;stroke-width:0.5;stroke-linecap:round;stroke-linejoin:round;stroke-miterlimit:4;stroke-dasharray:none;stroke-dashoffset:4;stroke-opacity:1" /><g
   id="g2110"
   transform="translate(-132.8263,3.510589)"><path
     transform="matrix(0.752338,0,0,0.739939,153.3775,46.32636)"
     d="M 142.91537 56.931728 A 47.11924 47.11924 0 1 1  48.676895,56.931728 A 47.11924 47.11924 0 1 1  142.91537 56.931728 z"
     sodipodi:ry="47.11924"
     sodipodi:rx="47.11924"
     sodipodi:cy="56.931728"
     sodipodi:cx="95.796135"
     id="path1410"
     style="opacity:0.38934422;fill:url(#radialGradient2118);fill-opacity:1;fill-rule:nonzero;stroke:none;stroke-width:0.71249998;stroke-linecap:square;stroke-linejoin:miter;stroke-miterlimit:4;stroke-dasharray:none;stroke-dashoffset:4;stroke-opacity:1"
     sodipodi:type="arc" /><path
     transform="matrix(0.555449,0,0,0.227623,189.9213,95.37136)"
     d="M 127.82442 115.70919 A 63.912209 12.641975 0 1 1  0,115.70919 A 63.912209 12.641975 0 1 1  127.82442 115.70919 z"
     sodipodi:ry="12.641975"
     sodipodi:rx="63.912209"
     sodipodi:cy="115.70919"
     sodipodi:cx="63.912209"
     id="path1563"
     style="opacity:0.38139535;fill:url(#radialGradient2120);fill-opacity:1;fill-rule:nonzero;stroke:none;stroke-width:0;stroke-linecap:round;stroke-linejoin:round;stroke-miterlimit:4;stroke-dasharray:none;stroke-dashoffset:4;stroke-opacity:1"
     sodipodi:type="arc" /><path
     transform="matrix(0.723759,0,0,0.724052,182.5356,48.50414)"
     d="M 102.6109 53.232281 A 43.225086 43.809208 0 1 1  16.160732,53.232281 A 43.225086 43.809208 0 1 1  102.6109 53.232281 z"
     sodipodi:ry="43.809208"
     sodipodi:rx="43.225086"
     sodipodi:cy="53.232281"
     sodipodi:cx="59.385818"
     id="path2311"
     style="fill:url(#linearGradient2122);fill-opacity:1;fill-rule:nonzero;stroke:none;stroke-width:0.71249998;stroke-linecap:square;stroke-linejoin:miter;stroke-miterlimit:4;stroke-dasharray:none;stroke-dashoffset:4;stroke-opacity:1"
     sodipodi:type="arc" /><path
     sodipodi:type="arc"
     style="opacity:0.38114756;fill:url(#radialGradient2124);fill-opacity:1;fill-rule:nonzero;stroke:none;stroke-width:0.71249998;stroke-linecap:square;stroke-linejoin:miter;stroke-miterlimit:4;stroke-dasharray:none;stroke-dashoffset:4;stroke-opacity:1"
     id="path2338"
     sodipodi:cx="59.385818"
     sodipodi:cy="53.232281"
     sodipodi:rx="43.225086"
     sodipodi:ry="43.809208"
     d="M 102.6109 53.232281 A 43.225086 43.809208 0 1 1  16.160732,53.232281 A 43.225086 43.809208 0 1 1  102.6109 53.232281 z"
     transform="matrix(0.723759,0,0,0.726895,182.5356,48.57078)" /><path
     sodipodi:nodetypes="cccccccccccccccccccccc"
     id="rect2372"
     d="M 237.16582,67.127812 C 236.86681,66.881554 236.43513,66.895919 236.1668,67.164259 L 226.1369,77.194152 L 215.93894,66.996192 C 215.64791,66.705165 215.17387,66.708443 214.88,67.002308 L 207.35934,74.522975 C 207.06546,74.816846 207.06959,75.2835 207.36061,75.574523 L 217.55857,85.772482 L 207.52128,95.809771 C 207.23505,96.096002 207.24621,96.570165 207.545,96.868955 L 215.19168,104.51563 C 215.49048,104.81443 215.95713,104.81806 216.24335,104.53184 L 226.28064,94.494555 L 236.47859,104.6925 C 236.76962,104.98351 237.23627,104.98766 237.53015,104.69378 L 245.05081,97.173115 C 245.34468,96.879255 245.34793,96.405205 245.05693,96.114176 L 234.85897,85.916224 L 244.88887,75.886332 C 245.1751,75.600103 245.17146,75.133457 244.87265,74.83466 L 237.22598,67.187978 C 237.2073,67.1693 237.18575,67.144232 237.16582,67.127812 z "
     style="fill:#bf0303;fill-opacity:1;fill-rule:nonzero;stroke:none;stroke-width:0.71249998;stroke-linecap:square;stroke-linejoin:miter;stroke-miterlimit:4;stroke-dasharray:none;stroke-dashoffset:4;stroke-opacity:1" /><path
     id="path2342"
     d="M 224.75822,55.991225 C 208.95627,56.379865 196.25583,68.927626 196.25583,82.563177 C 196.25583,84.67344 196.55664,86.726648 197.12947,88.685251 C 216.19506,85.054319 235.1523,85.099371 254.04687,88.169708 C 254.52588,86.369149 254.76763,84.48763 254.76763,82.563177 C 254.76763,68.711189 241.67296,55.991225 225.52265,55.991225 C 225.2703,55.991225 225.00904,55.985056 224.75822,55.991225 z "
     style="opacity:0.84426228;fill:url(#linearGradient2126);fill-opacity:1;fill-rule:nonzero;stroke:none;stroke-width:0.71249998;stroke-linecap:square;stroke-linejoin:miter;stroke-miterlimit:4;stroke-dashoffset:4;stroke-opacity:1" /></g><rect
   style="opacity:0.57786889;fill:white;fill-opacity:1;fill-rule:nonzero;stroke:none;stroke-width:3.63199997;stroke-linecap:round;stroke-linejoin:round;stroke-miterlimit:4;stroke-dasharray:none;stroke-dashoffset:4;stroke-opacity:1"
   id="rect1327"
   width="1"
   height="0"
   x="316.53531"
   y="-64.580048" /><rect
   style="opacity:0.57786889;fill:white;fill-opacity:1;fill-rule:nonzero;stroke:none;stroke-width:3.63199997;stroke-linecap:round;stroke-linejoin:round;stroke-miterlimit:4;stroke-dasharray:none;stroke-dashoffset:4;stroke-opacity:1"
   id="rect2482"
   width="1"
   height="0"
   x="281.40851"
   y="-92.107658" /><path
   sodipodi:nodetypes="ccc"
   id="path2494"
   d="M 122.47108,-165.32373 L 122.47108,-168.11844 L 122.47108,-165.32373 z "
   style="fill:white;fill-opacity:0.75688076;fill-rule:nonzero;stroke:none;stroke-width:0.5;stroke-linecap:round;stroke-linejoin:round;stroke-miterlimit:4;stroke-dasharray:none;stroke-dashoffset:4;stroke-opacity:1" /><g
   style="opacity:0.40163933"
   transform="matrix(-0.782995,0,0,0.650879,-2200.388,521.1939)"
   id="g4640" /><g
   id="g4646"
   transform="matrix(-0.782995,0,0,0.650879,-2200.388,521.1939)"
   style="opacity:0.40163933" /><g
   id="g4730"
   transform="matrix(1,0,0,0.650879,1000.576,528.5217)"
   style="opacity:0.40163933" /><g
   style="opacity:0.40163933"
   transform="matrix(1,0,0,0.650879,1000.576,528.5217)"
   id="g4748" /></svg>