<?xml version="1.0" encoding="UTF-8" standalone="no"?>
<!-- Created with Inkscape (http://www.inkscape.org/) -->
<svg
   xmlns:dc="http://purl.org/dc/elements/1.1/"
   xmlns:cc="http://web.resource.org/cc/"
   xmlns:rdf="http://www.w3.org/1999/02/22-rdf-syntax-ns#"
   xmlns:svg="http://www.w3.org/2000/svg"
   xmlns="http://www.w3.org/2000/svg"
   xmlns:xlink="http://www.w3.org/1999/xlink"
   xmlns:sodipodi="http://sodipodi.sourceforge.net/DTD/sodipodi-0.dtd"
   xmlns:inkscape="http://www.inkscape.org/namespaces/inkscape"
   width="128"
   height="128"
   id="svg16209"
   sodipodi:version="0.32"
   inkscape:version="0.44"
   version="1.0"
   sodipodi:docbase="/home/david/Progetti/oxygen-svn/Oxygen/theme/svg/actions"
   sodipodi:docname="mail_send.svg">
  <defs
     id="defs16211">
    <linearGradient
       inkscape:collect="always"
       id="linearGradient3291">
      <stop
         style="stop-color:#000000;stop-opacity:1;"
         offset="0"
         id="stop3293" />
      <stop
         style="stop-color:#000000;stop-opacity:0;"
         offset="1"
         id="stop3295" />
    </linearGradient>
    <radialGradient
       inkscape:collect="always"
       xlink:href="#linearGradient3291"
       id="radialGradient3336"
       gradientUnits="userSpaceOnUse"
       gradientTransform="matrix(1,0,0,0.197802,0,92.82166)"
       cx="63.912209"
       cy="115.70919"
       fx="63.912209"
       fy="115.7093"
       r="63.912209" />
    <linearGradient
       id="rect3244_12_"
       gradientUnits="userSpaceOnUse"
       x1="181.9985"
       y1="-85.999496"
       x2="181.9985"
       y2="-17.9995"
       gradientTransform="matrix(0,-1,1,0,-483.1434,-701.4306)">
      <stop
         offset="0"
         style="stop-color:#A4C0E4"
         id="stop174" />
      <stop
         offset="0.25"
         style="stop-color:#D1DFF1"
         id="stop176" />
      <stop
         offset="0.85"
         style="stop-color:#FFFFFF"
         id="stop178" />
    </linearGradient>
    <linearGradient
       id="polygon3293_12_"
       gradientUnits="userSpaceOnUse"
       x1="645.99847"
       y1="-532.10211"
       x2="645.99847"
       y2="-543.35211"
       gradientTransform="matrix(0,-4,-4,0,-2060.408,2643.994)">
      <stop
         offset="0"
         style="stop-color:#6193CF"
         id="stop182" />
      <stop
         offset="1"
         style="stop-color:#EEEEEE"
         id="stop184" />
    </linearGradient>
    <linearGradient
       id="XMLID_1_"
       gradientUnits="userSpaceOnUse"
       x1="84.965302"
       y1="60.0005"
       x2="47.999001"
       y2="60.0005">
      <stop
         offset="0"
         style="stop-color:#2C72C7"
         id="stop188" />
      <stop
         offset="0.15"
         style="stop-color:#6193CF"
         id="stop190" />
      <stop
         offset="1"
         style="stop-color:#A4C0E4"
         id="stop192" />
    </linearGradient>
    <linearGradient
       id="XMLID_2_"
       gradientUnits="userSpaceOnUse"
       x1="3.9985001"
       y1="60"
       x2="47.998501"
       y2="60">
      <stop
         offset="0"
         style="stop-color:#6193CF"
         id="stop197" />
      <stop
         offset="0.1543"
         style="stop-color:#6897D1"
         id="stop199" />
      <stop
         offset="0.3722"
         style="stop-color:#7AA4D7"
         id="stop201" />
      <stop
         offset="0.6277"
         style="stop-color:#98B9E0"
         id="stop203" />
      <stop
         offset="0.9098"
         style="stop-color:#C2D5EC"
         id="stop205" />
      <stop
         offset="1"
         style="stop-color:#D1DFF1"
         id="stop207" />
    </linearGradient>
    <linearGradient
       id="XMLID_3_"
       gradientUnits="userSpaceOnUse"
       x1="47.998501"
       y1="60.0005"
       x2="3.9985001"
       y2="60.0005"
       gradientTransform="translate(-617.1419,-943.4291)">
      <stop
         offset="0"
         style="stop-color:#A4C0E4"
         id="stop212" />
      <stop
         offset="0.7"
         style="stop-color:#FFFFFF"
         id="stop214" />
    </linearGradient>
    <linearGradient
       id="XMLID_4_"
       gradientUnits="userSpaceOnUse"
       x1="100.936"
       y1="59.9995"
       x2="46.590199"
       y2="59.9995">
      <stop
         offset="0"
         style="stop-color:#A4C0E4"
         id="stop227" />
      <stop
         offset="1"
         style="stop-color:#FFFFFF"
         id="stop229" />
    </linearGradient>
    <linearGradient
       inkscape:collect="always"
       xlink:href="#rect3244_12_"
       id="linearGradient16281"
       gradientUnits="userSpaceOnUse"
       gradientTransform="matrix(0,-1,1,0,-483.1434,-701.4306)"
       x1="181.9985"
       y1="-85.999496"
       x2="181.9985"
       y2="-17.9995" />
    <linearGradient
       inkscape:collect="always"
       xlink:href="#polygon3293_12_"
       id="linearGradient16283"
       gradientUnits="userSpaceOnUse"
       gradientTransform="matrix(0,-4,-4,0,-2060.408,2643.994)"
       x1="645.99847"
       y1="-532.10211"
       x2="645.99847"
       y2="-543.35211" />
    <linearGradient
       inkscape:collect="always"
       xlink:href="#XMLID_1_"
       id="linearGradient16285"
       gradientUnits="userSpaceOnUse"
       x1="84.965302"
       y1="60.0005"
       x2="47.999001"
       y2="60.0005" />
    <linearGradient
       inkscape:collect="always"
       xlink:href="#XMLID_2_"
       id="linearGradient16287"
       gradientUnits="userSpaceOnUse"
       x1="3.9985001"
       y1="60"
       x2="47.998501"
       y2="60" />
    <linearGradient
       inkscape:collect="always"
       xlink:href="#XMLID_3_"
       id="linearGradient16289"
       gradientUnits="userSpaceOnUse"
       gradientTransform="translate(-617.1419,-943.4291)"
       x1="47.998501"
       y1="60.0005"
       x2="3.9985001"
       y2="60.0005" />
    <linearGradient
       inkscape:collect="always"
       xlink:href="#XMLID_4_"
       id="linearGradient16291"
       gradientUnits="userSpaceOnUse"
       x1="100.936"
       y1="59.9995"
       x2="46.590199"
       y2="59.9995" />
  </defs>
  <sodipodi:namedview
     id="base"
     pagecolor="#ffffff"
     bordercolor="#666666"
     borderopacity="1.0"
     gridtolerance="10000"
     guidetolerance="10"
     objecttolerance="10"
     inkscape:pageopacity="0.0"
     inkscape:pageshadow="2"
     inkscape:zoom="2.953125"
     inkscape:cx="64"
     inkscape:cy="64"
     inkscape:document-units="px"
     inkscape:current-layer="layer1"
     width="128px"
     height="128px"
     inkscape:showpageshadow="false"
     inkscape:window-width="849"
     inkscape:window-height="579"
     inkscape:window-x="168"
     inkscape:window-y="114" />
  <metadata
     id="metadata16214">
    <rdf:RDF>
      <cc:Work
         rdf:about="">
        <dc:format>image/svg+xml</dc:format>
        <dc:type
           rdf:resource="http://purl.org/dc/dcmitype/StillImage" />
      </cc:Work>
    </rdf:RDF>
  </metadata>
  <g
     inkscape:label="Layer 1"
     inkscape:groupmode="layer"
     id="layer1">
    <path
       sodipodi:type="arc"
       style="opacity:0.38139535;fill:url(#radialGradient3336);fill-opacity:1;fill-rule:nonzero;stroke:none;stroke-width:0;stroke-linecap:round;stroke-linejoin:round;stroke-miterlimit:4;stroke-dasharray:none;stroke-dashoffset:4;stroke-opacity:1"
       id="path1563"
       sodipodi:cx="63.912209"
       sodipodi:cy="115.70919"
       sodipodi:rx="63.912209"
       sodipodi:ry="12.641975"
       d="M 127.82442 115.70919 A 63.912209 12.641975 0 1 1  0,115.70919 A 63.912209 12.641975 0 1 1  127.82442 115.70919 z"
       transform="matrix(1.001374,0,0,0.410363,-2.393169e-5,75.32943)" />
    <g
       id="g16260"
       transform="matrix(1.000017,0,0,0.999992,621.152,943.4212)">
      <g
         id="g163"
         transform="translate(-617.1419,-943.4291)">
        <path
           style="opacity:0.1"
           id="path165"
           d="M 39.999,0 C 38.632,0 37.374,0.687 36.635,1.836 C 36.574,1.931 36.568,2.031 36.546,2.13 C 35.775,3.175 34.347,5.395 31.01,10.586 L 0.633,57.832 C 0.219,58.48 0,59.228 0,59.997 C 0,60.767 0.219,61.515 0.633,62.16 L 36.633,118.165 C 37.374,119.314 38.632,120.001 39.998,120.001 L 115.998,120.001 C 118.204,120.001 119.998,118.207 119.998,116.001 L 119.998,4 C 119.998,1.794 118.204,0 115.998,0 L 39.999,0 z M 38.315,2.919 L 38.272,2.967 C 38.23,2.985 38.188,2.982 38.146,2.994 C 38.197,2.955 38.273,2.966 38.315,2.919 z " />
        <path
           style="opacity:0.15"
           id="path167"
           d="M 39.999,1 C 38.974,1 38.03,1.515 37.476,2.377 C 37.599,2.187 37.788,2.073 37.995,2 C 37.524,2.304 36.565,3.793 31.851,11.126 L 1.475,58.373 C 1.158,58.867 1,59.432 1,59.997 C 1,60.562 1.158,61.126 1.475,61.619 L 37.475,117.624 C 38.03,118.486 38.974,119.001 39.999,119.001 L 115.999,119.001 C 117.653,119.001 118.999,117.655 118.999,116.001 L 118.999,4 C 118.999,2.346 117.653,1 115.999,1 L 39.999,1 z " />
        <path
           style="opacity:0.2"
           id="path169"
           d="M 39.999,2 C 39.315,2 38.687,2.343 38.317,2.918 L 2.317,58.914 C 1.895,59.572 1.895,60.421 2.317,61.077 L 38.317,117.082 C 38.687,117.657 39.316,118 40,118 L 116,118 C 117.103,118 118,117.103 118,116 L 118,4 C 118,2.897 117.103,2 116,2 L 39.999,2 z " />
        <path
           style="opacity:0.25"
           id="path171"
           d="M 39.999,3 C 39.659,3 39.342,3.173 39.158,3.459 L 3.158,59.455 C 2.947,59.785 2.947,60.207 3.158,60.537 L 39.158,116.541 C 39.342,116.827 39.659,117 39.999,117 L 115.999,117 C 116.552,117 116.999,116.553 116.999,116 L 116.999,4 C 116.999,3.448 116.552,3 115.999,3 L 39.999,3 z " />
      </g>
      <rect
         style="fill:url(#linearGradient16281)"
         height="112"
         width="68"
         y="-939.42908"
         x="-569.14288"
         id="rect3244_5_" />
      <polygon
         style="fill:url(#linearGradient16283)"
         points="112.999,4 108.999,4 67.999,60.003 108.999,116 112.999,116 71.999,60.003 112.999,4 "
         id="polygon3293_5_"
         transform="translate(-617.1419,-943.4291)" />
      <polygon
         style="fill:url(#linearGradient16285)"
         id="polygon194"
         points="51.999,116 84.965,59.996 51.999,4 47.999,4 47.999,116 51.999,116 "
         transform="translate(-617.1419,-943.4291)" />
      <polygon
         style="fill:url(#linearGradient16287)"
         id="polygon209"
         points="39.999,116 3.999,59.996 39.999,4 47.999,4 47.999,116 39.999,116 "
         transform="translate(-617.1419,-943.4291)" />
      <path
         style="fill:url(#linearGradient16289)"
         id="path216"
         d="M -574.95886,-831.42907 C -577.08086,-834.72907 -605.90486,-879.57107 -608.38786,-883.43307 C -605.90586,-887.29507 -577.08086,-932.13007 -574.95986,-935.42907 C -574.47286,-935.42907 -571.38086,-935.42907 -569.14386,-935.42907 L -569.14386,-939.42907 L -577.14386,-939.42907 L -613.14386,-883.43307 L -577.14386,-827.42907 L -569.14386,-827.42907 L -569.14386,-831.42907 C -571.38086,-831.42907 -574.47286,-831.42907 -574.95886,-831.42907 z " />
      <path
         style="opacity:0.1"
         id="path218"
         d="M -565.14286,-939.42907 L -589.14286,-939.42907 C -591.34886,-939.42907 -593.14286,-937.63507 -593.14286,-935.42907 L -593.14286,-831.42907 C -593.14286,-829.22307 -591.34886,-827.42907 -589.14286,-827.42907 L -565.14286,-827.42907 L -532.17586,-883.43307 L -565.14286,-939.42907 z " />
      <path
         style="opacity:0.15"
         id="path220"
         d="M -532.17686,-883.43307 L -564.55486,-938.42907 L -589.14286,-938.42907 C -590.79686,-938.42907 -592.14286,-937.08307 -592.14286,-935.42907 L -592.14286,-831.42907 C -592.14286,-829.77507 -590.79686,-828.42907 -589.14286,-828.42907 L -564.55386,-828.42907 L -532.17686,-883.43307 z " />
      <path
         style="opacity:0.2"
         id="path222"
         d="M -532.17686,-883.43307 L -563.96586,-937.42907 L -589.14286,-937.42907 C -590.24586,-937.42907 -591.14286,-936.53207 -591.14286,-935.42907 L -591.14286,-831.42907 C -591.14286,-830.32607 -590.24586,-829.42907 -589.14286,-829.42907 L -563.96586,-829.42907 L -532.17686,-883.43307 z " />
      <path
         style="opacity:0.25"
         id="path224"
         d="M -532.17686,-883.43307 L -563.37686,-936.42907 L -589.14286,-936.42907 C -589.69486,-936.42907 -590.14286,-935.98107 -590.14286,-935.42907 L -590.14286,-831.42907 C -590.14286,-830.87607 -589.69486,-830.42907 -589.14286,-830.42907 L -563.37686,-830.42907 L -532.17686,-883.43307 z " />
      <polygon
         style="fill:url(#linearGradient16291)"
         id="polygon231"
         points="84.965,59.996 54.354,8 27.999,8 27.999,112 54.353,112 84.965,59.996 "
         transform="translate(-617.1419,-943.4291)" />
      <path
         style="opacity:0.1;fill:#00224d"
         id="path233"
         d="M -568.79986,-828.95707 L -569.07286,-827.95607 C -569.07286,-827.95307 -569.14286,-827.42907 -569.14286,-827.42907 L -565.14286,-827.42907 L -532.17586,-883.43307 L -565.14286,-939.42907 L -569.14286,-939.42907 L -569.07286,-938.90307 L -568.79586,-937.88707 L -568.58886,-937.39807 C -568.58886,-937.39807 -537.40386,-884.42907 -536.81686,-883.43307 C -537.40386,-882.43707 -568.58986,-829.45607 -568.58986,-829.45607 L -568.79986,-828.95707 z " />
      <path
         style="opacity:0.15;fill:#00224d"
         id="path235"
         d="M -567.83286,-828.70007 L -568.10786,-827.69307 C -568.13086,-827.60607 -568.14286,-827.51807 -568.14286,-827.42907 L -565.14286,-827.42907 L -532.17586,-883.43307 L -565.14286,-939.42907 L -568.14286,-939.42907 C -568.14286,-939.34107 -568.13086,-939.25207 -568.10786,-939.16607 L -567.83086,-938.15007 C -567.80786,-938.06407 -567.77286,-937.98207 -567.72786,-937.90607 C -567.72786,-937.90607 -536.24386,-884.42907 -535.65686,-883.43307 C -536.24386,-882.43607 -567.72886,-828.95007 -567.72886,-828.95007 C -567.77386,-828.87307 -567.80986,-828.78507 -567.83286,-828.70007 z " />
      <path
         style="opacity:0.2;fill:#00224d"
         id="path237"
         d="M -567.14286,-827.42907 L -565.14286,-827.42907 L -532.17586,-883.43307 L -565.14286,-939.42907 L -567.14286,-939.42907 L -566.86586,-938.41307 C -566.86586,-938.41307 -535.08386,-884.43007 -534.49686,-883.43307 C -535.08386,-882.43607 -566.86686,-828.44307 -566.86686,-828.44307 C -566.86686,-828.44207 -567.14286,-827.42907 -567.14286,-827.42907 z " />
      <path
         style="opacity:0.25;fill:#00224d"
         id="path239"
         d="M -566.14286,-827.42907 L -565.14286,-827.42907 L -532.17586,-883.43307 L -565.14286,-939.42907 L -566.14286,-939.42907 C -566.14286,-939.25407 -566.09686,-939.07807 -566.00486,-938.92207 C -566.00486,-938.92207 -533.92286,-884.42907 -533.33686,-883.43307 C -533.92386,-882.43607 -566.00486,-827.93607 -566.00486,-827.93607 C -566.09786,-827.78007 -566.14286,-827.60507 -566.14286,-827.42907 z " />
    </g>
  </g>
</svg>
