<?xml version="1.0" encoding="UTF-8" standalone="no"?>
<!-- Created with Inkscape (http://www.inkscape.org/) -->
<svg
   xmlns:dc="http://purl.org/dc/elements/1.1/"
   xmlns:cc="http://web.resource.org/cc/"
   xmlns:rdf="http://www.w3.org/1999/02/22-rdf-syntax-ns#"
   xmlns:svg="http://www.w3.org/2000/svg"
   xmlns="http://www.w3.org/2000/svg"
   xmlns:xlink="http://www.w3.org/1999/xlink"
   xmlns:sodipodi="http://sodipodi.sourceforge.net/DTD/sodipodi-0.dtd"
   xmlns:inkscape="http://www.inkscape.org/namespaces/inkscape"
   width="128"
   height="128"
   id="svg3876"
   sodipodi:version="0.32"
   inkscape:version="0.44"
   version="1.0"
   sodipodi:docbase="/Users/David/Progetti/oxygen-svn/artwork/Oxygen/theme/svg/actions"
   sodipodi:docname="mail_replyall.svg">
  <defs
     id="defs3878">
    <linearGradient
       inkscape:collect="always"
       xlink:href="#polygon3477_1_"
       id="linearGradient6677"
       gradientUnits="userSpaceOnUse"
       gradientTransform="matrix(-3.9299,0,0,3.9299,2273.809,2297.625)"
       x1="557.27148"
       y1="-568.40808"
       x2="567.27148"
       y2="-568.40808" />
    <linearGradient
       id="linearGradient5763">
      <stop
         style="stop-color:#0057ae;stop-opacity:1;"
         offset="0"
         id="stop5765" />
      <stop
         id="stop5767"
         offset="1"
         style="stop-color:#06f;stop-opacity:1;" />
    </linearGradient>
    <linearGradient
       inkscape:collect="always"
       xlink:href="#linearGradient5763"
       id="linearGradient6675"
       gradientUnits="userSpaceOnUse"
       x1="67.355637"
       y1="84.424911"
       x2="67.041977"
       y2="23.704058" />
    <linearGradient
       id="polygon3293_1_"
       gradientUnits="userSpaceOnUse"
       x1="560"
       y1="606.321"
       x2="560"
       y2="617.5994"
       gradientTransform="translate(-484,-714.5996)">
      <stop
         offset="0"
         style="stop-color:#BBBBBB"
         id="stop43" />
      <stop
         offset="1"
         style="stop-color:#EEEEEE"
         id="stop45" />
    </linearGradient>
    <linearGradient
       id="polygon3286_1_"
       gradientUnits="userSpaceOnUse"
       x1="559.998"
       y1="611.6003"
       x2="559.998"
       y2="602.322"
       gradientTransform="translate(-484,-714.5996)">
      <stop
         offset="0"
         style="stop-color:#BBBBBB"
         id="stop37" />
      <stop
         offset="1"
         style="stop-color:#EEEEEE"
         id="stop39" />
    </linearGradient>
    <linearGradient
       id="path3257_1_"
       gradientUnits="userSpaceOnUse"
       x1="550.79"
       y1="626.4421"
       x2="565.8746"
       y2="598.8582"
       gradientTransform="translate(-484,-714.5996)">
      <stop
         offset="0"
         style="stop-color:#DDDDDD"
         id="stop14" />
      <stop
         offset="0.2012"
         style="stop-color:#FFFFFF"
         id="stop16" />
      <stop
         offset="0.3969"
         style="stop-color:#F9F9F9"
         id="stop18" />
      <stop
         offset="0.574"
         style="stop-color:#EEEEEE"
         id="stop20" />
      <stop
         offset="0.7988"
         style="stop-color:#FFFFFF"
         id="stop22" />
    </linearGradient>
    <linearGradient
       id="circle3484_1_"
       gradientUnits="userSpaceOnUse"
       x1="-259.6558"
       y1="-564.9407"
       x2="-248.3406"
       y2="-576.2559"
       gradientTransform="matrix(-1,0,0,-1,-170,-666.6001)">
      <stop
         offset="0"
         style="stop-color:#BABDB6"
         id="stop203" />
      <stop
         offset="1"
         style="stop-color:#555753"
         id="stop205" />
    </linearGradient>
    <linearGradient
       id="polygon3495_1_"
       gradientUnits="userSpaceOnUse"
       x1="562.999"
       y1="618.5984"
       x2="572.999"
       y2="618.5984"
       gradientTransform="translate(-484,-714.5996)">
      <stop
         offset="0"
         style="stop-color:#FFFFFF"
         id="stop209" />
      <stop
         offset="0.5413"
         style="stop-color:#FCFCFC"
         id="stop211" />
      <stop
         offset="0.8664"
         style="stop-color:#F4F4F4"
         id="stop213" />
      <stop
         offset="1"
         style="stop-color:#EEEEEE"
         id="stop215" />
    </linearGradient>
    <linearGradient
       id="circle3581_1_"
       gradientUnits="userSpaceOnUse"
       x1="-319.65619"
       y1="-564.94122"
       x2="-308.341"
       y2="-576.25629"
       gradientTransform="matrix(-1,0,0,-1,-170,-666.6001)">
      <stop
         offset="0"
         style="stop-color:#80B3FF"
         id="stop273" />
      <stop
         offset="1"
         style="stop-color:#0066FF"
         id="stop275" />
    </linearGradient>
    <linearGradient
       inkscape:collect="always"
       id="linearGradient5073">
      <stop
         style="stop-color:#000000;stop-opacity:1;"
         offset="0"
         id="stop5075" />
      <stop
         style="stop-color:#000000;stop-opacity:0;"
         offset="1"
         id="stop5077" />
    </linearGradient>
    <linearGradient
       id="polygon3477_1_"
       gradientUnits="userSpaceOnUse"
       x1="503"
       y1="618.32098"
       x2="513"
       y2="618.32098"
       gradientTransform="translate(-484,-714.5996)">
      <stop
         offset="0"
         style="stop-color:#FFFFFF"
         id="stop193" />
      <stop
         offset="0.5413"
         style="stop-color:#FCFCFC"
         id="stop195" />
      <stop
         offset="0.8664"
         style="stop-color:#F4F4F4"
         id="stop197" />
      <stop
         offset="1"
         style="stop-color:#EEEEEE"
         id="stop199" />
    </linearGradient>
    <linearGradient
       id="circle3737_1_"
       gradientUnits="userSpaceOnUse"
       x1="-369.65619"
       y1="-564.94122"
       x2="-358.34109"
       y2="-576.25629"
       gradientTransform="matrix(-1,0,0,-1,-170,-666.6001)">
      <stop
         offset="0"
         style="stop-color:#80B3FF"
         id="stop382" />
      <stop
         offset="1"
         style="stop-color:#0066FF"
         id="stop384" />
    </linearGradient>
    <linearGradient
       id="circle3466_1_"
       gradientUnits="userSpaceOnUse"
       x1="-199.6562"
       y1="-564.94171"
       x2="-188.341"
       y2="-576.25677"
       gradientTransform="matrix(-1,0,0,-1,-170,-666.6001)"
       xlink:href="#path959_2_"
       spreadMethod="pad">
      <stop
         offset="0"
         style="stop-color:#BFF500"
         id="stop187" />
      <stop
         offset="1"
         style="stop-color:#008C00"
         id="stop189" />
    </linearGradient>
    <linearGradient
       id="path986_2_"
       gradientUnits="userSpaceOnUse"
       x1="-2142.8125"
       y1="1818.9382"
       x2="-2106.0225"
       y2="1818.9382"
       gradientTransform="matrix(4.26e-2,-0.2416,0.2416,4.26e-2,-335.1768,-699.178)">
      <stop
         offset="0"
         style="stop-color:#FFFFFF"
         id="stop124" />
      <stop
         offset="0.0019"
         style="stop-color:#FFFFFF"
         id="stop126" />
      <stop
         offset="0.1134"
         style="stop-color:#EBEDEA"
         id="stop128" />
      <stop
         offset="0.2373"
         style="stop-color:#DEE1DB"
         id="stop130" />
      <stop
         offset="0.3831"
         style="stop-color:#D5D9D2"
         id="stop132" />
      <stop
         offset="0.6036"
         style="stop-color:#D3D7CF"
         id="stop134" />
      <stop
         offset="1"
         style="stop-color:#EEEEEC"
         id="stop136" />
    </linearGradient>
    <linearGradient
       id="path971_2_"
       gradientUnits="userSpaceOnUse"
       x1="149.09689"
       y1="375.81711"
       x2="154.6881"
       y2="375.81711"
       gradientTransform="matrix(3.526422e-5,-1.0506,1.0506,3.526747e-5,-190.5464,42.6462)">
      <stop
         offset="0"
         style="stop-color:#FFFFFF"
         id="stop108" />
      <stop
         offset="0.0019"
         style="stop-color:#FFFFFF"
         id="stop110" />
      <stop
         offset="0.1134"
         style="stop-color:#EBEDEA"
         id="stop112" />
      <stop
         offset="0.2373"
         style="stop-color:#DEE1DB"
         id="stop114" />
      <stop
         offset="0.3831"
         style="stop-color:#D5D9D2"
         id="stop116" />
      <stop
         offset="0.6036"
         style="stop-color:#D3D7CF"
         id="stop118" />
      <stop
         offset="1"
         style="stop-color:#EEEEEC"
         id="stop120" />
    </linearGradient>
    <radialGradient
       id="path959_2_"
       cx="-7277.4141"
       cy="11553.372"
       r="141.9108"
       gradientTransform="matrix(1.29e-2,-4.82e-2,4.85e-2,1.16e-2,-450.4789,-600.1945)"
       gradientUnits="userSpaceOnUse">
      <stop
         offset="0"
         style="stop-color:#80B3FF"
         id="stop100" />
      <stop
         offset="1"
         style="stop-color:#6193CF"
         id="stop102" />
    </radialGradient>
    <radialGradient
       id="path943_2_"
       cx="-1343.0912"
       cy="-1378.8228"
       r="35.410198"
       gradientTransform="matrix(-4.91e-2,-0.2596,-0.2596,4.91e-2,-223.4503,-398.4097)"
       gradientUnits="userSpaceOnUse">
      <stop
         offset="0.0056"
         style="stop-color:#EEEEEE"
         id="stop82" />
      <stop
         offset="0.0174"
         style="stop-color:#EFEFEF"
         id="stop84" />
      <stop
         offset="0.2428"
         style="stop-color:#FBFBFB"
         id="stop86" />
      <stop
         offset="0.4663"
         style="stop-color:#FFFFFF"
         id="stop88" />
      <stop
         offset="0.5989"
         style="stop-color:#FAFAFA"
         id="stop90" />
      <stop
         offset="0.7515"
         style="stop-color:#ECEDEE"
         id="stop92" />
      <stop
         offset="0.8428"
         style="stop-color:#F3F4F5"
         id="stop94" />
      <stop
         offset="1"
         style="stop-color:#FCFCFC"
         id="stop96" />
    </radialGradient>
    <linearGradient
       id="path3334_1_"
       gradientUnits="userSpaceOnUse"
       x1="-503.80911"
       y1="333.8396"
       x2="-488.72531"
       y2="306.25681"
       gradientTransform="matrix(-4.371139e-8,-1,1,-4.371139e-8,-300.9998,-599.6013)">
      <stop
         offset="0"
         style="stop-color:#DDDDDD"
         id="stop66" />
      <stop
         offset="0.2012"
         style="stop-color:#FFFFFF"
         id="stop68" />
      <stop
         offset="0.3969"
         style="stop-color:#F9F9F9"
         id="stop70" />
      <stop
         offset="0.574"
         style="stop-color:#EEEEEE"
         id="stop72" />
      <stop
         offset="0.7988"
         style="stop-color:#FFFFFF"
         id="stop74" />
    </linearGradient>
    <radialGradient
       id="path2295_1_"
       cx="1544.9883"
       cy="-33691.207"
       r="63.900398"
       fx="1544.9883"
       fy="-33691.207"
       gradientUnits="userSpaceOnUse">
      <stop
         offset="0"
         style="stop-color:#000000"
         id="stop57" />
      <stop
         offset="1"
         style="stop-color:#FFFFFF"
         id="stop59" />
    </radialGradient>
    <radialGradient
       gradientUnits="userSpaceOnUse"
       gradientTransform="matrix(0.2944,0,0,-2e-2,-438.8447,-763.1038)"
       fy="-33691.207"
       fx="1544.9883"
       r="63.900398"
       cy="-33691.207"
       cx="1544.9883"
       id="radialGradient3933">
      <stop
         id="stop3935"
         style="stop-color:#000000"
         offset="0" />
      <stop
         id="stop3937"
         style="stop-color:#FFFFFF"
         offset="1" />
    </radialGradient>
    <linearGradient
       xlink:href="#circle3737_1_"
       gradientTransform="matrix(-1,0,0,-1,-170,-666.6001)"
       y2="-576.25677"
       x2="-188.341"
       y1="-564.94171"
       x1="-199.6562"
       gradientUnits="userSpaceOnUse"
       id="linearGradient4069">
      <stop
         id="stop4071"
         style="stop-color:#BFF500"
         offset="0" />
      <stop
         id="stop4073"
         style="stop-color:#008C00"
         offset="1" />
    </linearGradient>
    <linearGradient
       gradientTransform="translate(-484,-714.5996)"
       y2="618.32098"
       x2="513"
       y1="618.32098"
       x1="503"
       gradientUnits="userSpaceOnUse"
       id="linearGradient4076">
      <stop
         id="stop4078"
         style="stop-color:#FFFFFF"
         offset="0" />
      <stop
         id="stop4080"
         style="stop-color:#FCFCFC"
         offset="0.5413" />
      <stop
         id="stop4082"
         style="stop-color:#F4F4F4"
         offset="0.8664" />
      <stop
         id="stop4084"
         style="stop-color:#EEEEEE"
         offset="1" />
    </linearGradient>
    <radialGradient
       inkscape:collect="always"
       xlink:href="#linearGradient5073"
       id="radialGradient5079"
       cx="80.738739"
       cy="155.37218"
       fx="80.738739"
       fy="177.29686"
       r="64.796692"
       gradientTransform="matrix(1,0,0,0.111111,8.762958e-15,138.1081)"
       gradientUnits="userSpaceOnUse" />
    <radialGradient
       inkscape:collect="always"
       xlink:href="#path959_2_"
       id="radialGradient1468"
       gradientUnits="userSpaceOnUse"
       gradientTransform="matrix(1.29e-2,-4.82e-2,4.85e-2,1.16e-2,-450.4789,-600.1945)"
       cx="-7277.4141"
       cy="11553.372"
       r="141.9108" />
    <linearGradient
       inkscape:collect="always"
       xlink:href="#path3334_1_"
       id="linearGradient2541"
       gradientUnits="userSpaceOnUse"
       gradientTransform="matrix(-4.371139e-8,-1,1,-4.371139e-8,-300.9998,-599.6013)"
       x1="-503.80911"
       y1="333.8396"
       x2="-488.72531"
       y2="306.25681" />
    <radialGradient
       inkscape:collect="always"
       xlink:href="#path943_2_"
       id="radialGradient2543"
       gradientUnits="userSpaceOnUse"
       gradientTransform="matrix(-4.91e-2,-0.2596,-0.2596,4.91e-2,-223.4503,-398.4097)"
       cx="-1343.0912"
       cy="-1378.8228"
       r="35.410198" />
    <radialGradient
       inkscape:collect="always"
       xlink:href="#path959_2_"
       id="radialGradient2545"
       gradientUnits="userSpaceOnUse"
       gradientTransform="matrix(1.29e-2,-4.82e-2,4.85e-2,1.16e-2,-450.4789,-600.1945)"
       cx="-7277.4141"
       cy="11553.372"
       r="141.9108" />
    <linearGradient
       inkscape:collect="always"
       xlink:href="#path971_2_"
       id="linearGradient2547"
       gradientUnits="userSpaceOnUse"
       gradientTransform="matrix(3.526422e-5,-1.0506,1.0506,3.526747e-5,-190.5464,42.6462)"
       x1="149.09689"
       y1="375.81711"
       x2="154.6881"
       y2="375.81711" />
    <linearGradient
       inkscape:collect="always"
       xlink:href="#path986_2_"
       id="linearGradient2549"
       gradientUnits="userSpaceOnUse"
       gradientTransform="matrix(4.26e-2,-0.2416,0.2416,4.26e-2,-335.1768,-699.178)"
       x1="-2142.8125"
       y1="1818.9382"
       x2="-2106.0225"
       y2="1818.9382" />
    <linearGradient
       inkscape:collect="always"
       xlink:href="#polygon3495_1_"
       id="linearGradient9564"
       gradientUnits="userSpaceOnUse"
       gradientTransform="translate(-484,-714.5996)"
       x1="562.999"
       y1="618.5984"
       x2="572.999"
       y2="618.5984" />
    <linearGradient
       inkscape:collect="always"
       xlink:href="#polygon3495_1_"
       id="linearGradient10812"
       gradientUnits="userSpaceOnUse"
       gradientTransform="translate(-484,-714.5996)"
       x1="562.999"
       y1="618.5984"
       x2="572.999"
       y2="618.5984" />
    <linearGradient
       inkscape:collect="always"
       xlink:href="#path3257_1_"
       id="linearGradient10888"
       gradientUnits="userSpaceOnUse"
       gradientTransform="translate(-484,-714.5996)"
       x1="550.79"
       y1="626.4421"
       x2="565.8746"
       y2="598.8582" />
    <linearGradient
       inkscape:collect="always"
       xlink:href="#polygon3286_1_"
       id="linearGradient10890"
       gradientUnits="userSpaceOnUse"
       gradientTransform="translate(-484,-714.5996)"
       x1="559.998"
       y1="611.6003"
       x2="559.998"
       y2="602.322" />
    <linearGradient
       inkscape:collect="always"
       xlink:href="#polygon3293_1_"
       id="linearGradient10892"
       gradientUnits="userSpaceOnUse"
       gradientTransform="translate(-484,-714.5996)"
       x1="560"
       y1="606.321"
       x2="560"
       y2="617.5994" />
    <linearGradient
       inkscape:collect="always"
       xlink:href="#path3257_1_"
       id="linearGradient4632"
       gradientUnits="userSpaceOnUse"
       gradientTransform="translate(-484,-714.5996)"
       x1="550.79"
       y1="626.4421"
       x2="565.8746"
       y2="598.8582" />
    <linearGradient
       inkscape:collect="always"
       xlink:href="#polygon3286_1_"
       id="linearGradient4634"
       gradientUnits="userSpaceOnUse"
       gradientTransform="translate(-484,-714.5996)"
       x1="559.998"
       y1="611.6003"
       x2="559.998"
       y2="602.322" />
    <linearGradient
       inkscape:collect="always"
       xlink:href="#polygon3293_1_"
       id="linearGradient4636"
       gradientUnits="userSpaceOnUse"
       gradientTransform="translate(-484,-714.5996)"
       x1="560"
       y1="606.321"
       x2="560"
       y2="617.5994" />
    <radialGradient
       gradientUnits="userSpaceOnUse"
       gradientTransform="matrix(0.2944,0,0,-2e-2,-438.8447,-763.1038)"
       fy="-33689.352"
       fx="1749.2916"
       r="63.909401"
       cy="-33691.207"
       cx="1748.793"
       id="path2295_10_">
      <stop
         id="stop6"
         style="stop-color:#000000"
         offset="0" />
      <stop
         id="stop8"
         style="stop-color:#FFFFFF"
         offset="1" />
    </radialGradient>
    <linearGradient
       gradientTransform="translate(-484,-714.5996)"
       y2="598.85822"
       x2="565.87457"
       y1="626.44208"
       x1="550.78998"
       gradientUnits="userSpaceOnUse"
       id="linearGradient9513">
      <stop
         id="stop9515"
         style="stop-color:#DDDDDD"
         offset="0" />
      <stop
         id="stop9517"
         style="stop-color:#FFFFFF"
         offset="0.2012" />
      <stop
         id="stop9519"
         style="stop-color:#F9F9F9"
         offset="0.3969" />
      <stop
         id="stop9521"
         style="stop-color:#EEEEEE"
         offset="0.574" />
      <stop
         id="stop9523"
         style="stop-color:#FFFFFF"
         offset="0.7988" />
    </linearGradient>
    <linearGradient
       gradientTransform="translate(-484,-714.5996)"
       y2="602.32202"
       x2="559.99799"
       y1="611.60028"
       x1="559.99799"
       gradientUnits="userSpaceOnUse"
       id="linearGradient9537">
      <stop
         id="stop9539"
         style="stop-color:#BBBBBB"
         offset="0" />
      <stop
         id="stop9541"
         style="stop-color:#EEEEEE"
         offset="1" />
    </linearGradient>
    <linearGradient
       gradientTransform="translate(-484,-714.5996)"
       y2="617.59943"
       x2="560"
       y1="606.32098"
       x1="560"
       gradientUnits="userSpaceOnUse"
       id="linearGradient9544">
      <stop
         id="stop9546"
         style="stop-color:#BBBBBB"
         offset="0" />
      <stop
         id="stop9548"
         style="stop-color:#EEEEEE"
         offset="1" />
    </linearGradient>
    <linearGradient
       inkscape:collect="always"
       xlink:href="#path3257_1_"
       id="linearGradient4672"
       gradientUnits="userSpaceOnUse"
       gradientTransform="matrix(4,0,0,3.999999,-2172,-2374.398)"
       x1="550.79"
       y1="626.4421"
       x2="565.8746"
       y2="598.8582" />
    <radialGradient
       id="radialGradient10816"
       cx="1748.793"
       cy="-33691.207"
       r="63.909401"
       fx="1749.2916"
       fy="-33689.352"
       gradientTransform="matrix(0.2944,0,0,-2e-2,-438.8447,-763.1038)"
       gradientUnits="userSpaceOnUse">
      <stop
         offset="0"
         style="stop-color:#000000"
         id="stop10818" />
      <stop
         offset="1"
         style="stop-color:#FFFFFF"
         id="stop10820" />
    </radialGradient>
    <linearGradient
       id="linearGradient10826"
       gradientUnits="userSpaceOnUse"
       x1="550.78998"
       y1="626.44208"
       x2="565.87457"
       y2="598.85822"
       gradientTransform="translate(-484,-714.5996)">
      <stop
         offset="0"
         style="stop-color:#DDDDDD"
         id="stop10828" />
      <stop
         offset="0.2012"
         style="stop-color:#FFFFFF"
         id="stop10830" />
      <stop
         offset="0.3969"
         style="stop-color:#F9F9F9"
         id="stop10832" />
      <stop
         offset="0.574"
         style="stop-color:#EEEEEE"
         id="stop10834" />
      <stop
         offset="0.7988"
         style="stop-color:#FFFFFF"
         id="stop10836" />
    </linearGradient>
    <linearGradient
       id="linearGradient10862"
       gradientUnits="userSpaceOnUse"
       x1="559.99799"
       y1="611.60028"
       x2="559.99799"
       y2="602.32202"
       gradientTransform="translate(-484,-714.5996)">
      <stop
         offset="0"
         style="stop-color:#BBBBBB"
         id="stop10864" />
      <stop
         offset="1"
         style="stop-color:#EEEEEE"
         id="stop10866" />
    </linearGradient>
    <linearGradient
       id="linearGradient10870"
       gradientUnits="userSpaceOnUse"
       x1="560"
       y1="606.32098"
       x2="560"
       y2="617.59943"
       gradientTransform="translate(-484,-714.5996)">
      <stop
         offset="0"
         style="stop-color:#BBBBBB"
         id="stop10872" />
      <stop
         offset="1"
         style="stop-color:#EEEEEE"
         id="stop10874" />
    </linearGradient>
    <linearGradient
       inkscape:collect="always"
       xlink:href="#path3257_1_"
       id="linearGradient4710"
       gradientUnits="userSpaceOnUse"
       gradientTransform="matrix(4,0,0,3.999999,-2180,-2398.398)"
       x1="550.79"
       y1="626.4421"
       x2="565.8746"
       y2="598.8582" />
    <linearGradient
       inkscape:collect="always"
       xlink:href="#path3257_1_"
       id="linearGradient4863"
       gradientUnits="userSpaceOnUse"
       gradientTransform="matrix(4,0,0,3.999999,-2180,-2398.398)"
       x1="550.79"
       y1="626.4421"
       x2="565.8746"
       y2="598.8582" />
    <linearGradient
       inkscape:collect="always"
       xlink:href="#polygon3286_1_"
       id="linearGradient4865"
       gradientUnits="userSpaceOnUse"
       gradientTransform="translate(-484,-714.5996)"
       x1="559.998"
       y1="611.6003"
       x2="559.998"
       y2="602.322" />
    <linearGradient
       inkscape:collect="always"
       xlink:href="#polygon3293_1_"
       id="linearGradient4867"
       gradientUnits="userSpaceOnUse"
       gradientTransform="translate(-484,-714.5996)"
       x1="560"
       y1="606.321"
       x2="560"
       y2="617.5994" />
    <linearGradient
       inkscape:collect="always"
       xlink:href="#path3257_1_"
       id="linearGradient4869"
       gradientUnits="userSpaceOnUse"
       gradientTransform="matrix(4,0,0,3.999999,-2172,-2374.398)"
       x1="550.79"
       y1="626.4421"
       x2="565.8746"
       y2="598.8582" />
    <linearGradient
       inkscape:collect="always"
       xlink:href="#polygon3286_1_"
       id="linearGradient4871"
       gradientUnits="userSpaceOnUse"
       gradientTransform="translate(-484,-714.5996)"
       x1="559.998"
       y1="611.6003"
       x2="559.998"
       y2="602.322" />
    <linearGradient
       inkscape:collect="always"
       xlink:href="#polygon3293_1_"
       id="linearGradient4873"
       gradientUnits="userSpaceOnUse"
       gradientTransform="translate(-484,-714.5996)"
       x1="560"
       y1="606.321"
       x2="560"
       y2="617.5994" />
    <linearGradient
       inkscape:collect="always"
       xlink:href="#polygon3477_1_"
       id="linearGradient5806"
       gradientUnits="userSpaceOnUse"
       gradientTransform="matrix(-3.9299,0,0,3.9299,2273.809,2297.625)"
       x1="557.27148"
       y1="-568.40808"
       x2="567.27148"
       y2="-568.40808" />
    <linearGradient
       inkscape:collect="always"
       xlink:href="#linearGradient5763"
       id="linearGradient5812"
       gradientUnits="userSpaceOnUse"
       x1="67.355637"
       y1="84.424911"
       x2="67.041977"
       y2="23.704058" />
    <linearGradient
       inkscape:collect="always"
       xlink:href="#polygon3477_1_"
       id="linearGradient5814"
       gradientUnits="userSpaceOnUse"
       gradientTransform="matrix(-3.9299,0,0,3.9299,2273.809,2297.625)"
       x1="557.27148"
       y1="-568.40808"
       x2="567.27148"
       y2="-568.40808" />
  </defs>
  <sodipodi:namedview
     id="base"
     pagecolor="#ffffff"
     bordercolor="#666666"
     borderopacity="1.0"
     inkscape:pageopacity="0.0"
     inkscape:pageshadow="2"
     inkscape:zoom="1"
     inkscape:cx="150.03365"
     inkscape:cy="7.3412879"
     inkscape:current-layer="layer1"
     showgrid="false"
     inkscape:document-units="px"
     inkscape:grid-bbox="true"
     inkscape:window-width="1440"
     inkscape:window-height="753"
     inkscape:window-x="43"
     inkscape:window-y="136"
     showguides="true"
     inkscape:guide-bbox="true" />
  <metadata
     id="metadata3881">
    <rdf:RDF>
      <cc:Work
         rdf:about="">
        <dc:format>image/svg+xml</dc:format>
        <dc:type
           rdf:resource="http://purl.org/dc/dcmitype/StillImage" />
      </cc:Work>
    </rdf:RDF>
  </metadata>
  <g
     id="layer1"
     inkscape:label="Layer 1"
     inkscape:groupmode="layer">
    <g
       id="g4821"
       transform="translate(0,-1.5e-5)">
      <path
         style="fill:#888888;fill-opacity:1"
         d="M 4,1.5e-05 C 1.792,1.5e-05 0,1.7880146 0,4.000014 L 0,75.999996 C 0,78.219995 1.792,79.999995 4,79.999995 L 116,79.999995 C 118.212,79.999995 120,78.219995 120,75.999996 L 120,4.000014 C 120,1.7880146 118.212,1.5e-05 116,1.5e-05 L 4,1.5e-05 z "
         id="path10822" />
      <rect
         style="fill:#ffffff"
         height="71.999985"
         width="112"
         y="4.0000138"
         x="4"
         id="rect10824" />
      <path
         style="fill:url(#linearGradient4863)"
         d="M 8,8.000013 C 8,14.724011 8,65.283999 8,71.999997 C 15.164,71.999997 104.836,71.999997 112,71.999997 C 112,65.283999 112,14.724011 112,8.000013 C 104.836,8.000013 15.164,8.000013 8,8.000013 z "
         id="path10838" />
      <polygon
         transform="matrix(4,0,0,3.999999,-244,459.9999)"
         id="polygon10842"
         points="62,-110.779 62,-112.779 63.5,-110.779 63.5,-108.779 62,-110.779 "
         style="fill:#0066ff;fill-opacity:1" />
      <polygon
         transform="matrix(4,0,0,3.999999,-244,459.9999)"
         id="polygon10844"
         points="62,-105.279 62,-107.279 63.5,-105.279 63.5,-103.279 62,-105.279 "
         style="fill:#ff0000;fill-opacity:1" />
      <polygon
         transform="matrix(4,0,0,3.999999,-244,459.9999)"
         id="polygon10846"
         points="62,-99.779 62,-101.779 63.5,-99.779 63.5,-97.779 62,-99.779 "
         style="fill:#0066ff;fill-opacity:1" />
      <polygon
         transform="matrix(4,0,0,3.999999,-244,459.9999)"
         style="fill:#ff8080"
         points="89.998,-99.78 89.998,-97.78 88.498,-99.78 88.498,-101.78 89.998,-99.78 "
         id="polygon10848" />
      <polygon
         transform="matrix(4,0,0,3.999999,-244,459.9999)"
         style="fill:#6193cf"
         points="89.998,-105.28 89.998,-103.28 88.498,-105.28 88.498,-107.28 89.998,-105.28 "
         id="polygon10850" />
      <polygon
         transform="matrix(4,0,0,3.999999,-244,459.9999)"
         style="fill:#ff0000;fill-opacity:1"
         points="89.998,-110.78 89.998,-108.78 88.498,-110.78 88.498,-112.78 89.998,-110.78 "
         id="polygon10852" />
      <polygon
         transform="matrix(4,0,0,3.999999,-244,459.9999)"
         style="fill:#ff8080"
         points="65,-96 63,-96 65,-97.5 67,-97.5 65,-96 "
         id="polygon10854" />
      <polygon
         transform="matrix(4,0,0,3.999999,-244,459.9999)"
         style="fill:#6193cf"
         points="72.333,-96 70.333,-96 72.333,-97.5 74.333,-97.5 72.333,-96 "
         id="polygon10856" />
      <polygon
         transform="matrix(4,0,0,3.999999,-244,459.9999)"
         style="fill:#ff8080"
         points="79.666,-96 77.666,-96 79.666,-97.5 81.666,-97.5 79.666,-96 "
         id="polygon10858" />
      <polygon
         transform="matrix(4,0,0,3.999999,-244,459.9999)"
         style="fill:#6193cf"
         points="87,-96 85,-96 87,-97.5 89,-97.5 87,-96 "
         id="polygon10860" />
      <polygon
         transform="matrix(4,0,0,3.999999,-244,459.9999)"
         style="fill:url(#linearGradient4865)"
         points="62,-112.279 62,-111.279 76,-103 89.998,-111.279 89.998,-112.279 76,-104 62,-112.279 "
         id="polygon10868" />
      <polygon
         transform="matrix(4,0,0,3.999999,-244,459.9999)"
         style="fill:url(#linearGradient4867)"
         points="89.998,-97 89.998,-98 75.998,-108.279 62,-98 62,-97 75.998,-107.279 89.998,-97 "
         id="polygon10876" />
      <polygon
         transform="matrix(4,0,0,3.999999,-244,459.9999)"
         style="fill:#ffffff"
         points="62,-113.279 62,-112.279 76,-104 89.998,-112.279 89.998,-113.279 62,-113.279 "
         id="polygon10878" />
      <polygon
         transform="matrix(4,0,0,3.999999,-244,459.9999)"
         style="fill:#0066ff;fill-opacity:1"
         points="87,-112.5 89,-112.5 87,-114 85,-114 87,-112.5 "
         id="polygon10880" />
      <polygon
         transform="matrix(4,0,0,3.999999,-244,459.9999)"
         style="fill:#ff0000;fill-opacity:1"
         points="79.666,-112.5 81.666,-112.5 79.666,-114 77.666,-114 79.666,-112.5 "
         id="polygon10882" />
      <polygon
         transform="matrix(4,0,0,3.999999,-244,459.9999)"
         style="fill:#0066ff;fill-opacity:1"
         points="72.333,-112.5 74.333,-112.5 72.333,-114 70.333,-114 72.333,-112.5 "
         id="polygon10884" />
      <polygon
         transform="matrix(4,0,0,3.999999,-244,459.9999)"
         style="fill:#ff0000;fill-opacity:1"
         points="65,-112.5 67,-112.5 65,-114 63,-114 65,-112.5 "
         id="polygon10886" />
      <path
         id="path3242"
         d="M 12,24.000015 C 9.792,24.000015 8,25.788015 8,28.000014 L 8,99.999996 C 8,102.22 9.792,104 12,104 L 124,104 C 126.212,104 128,102.22 128,99.999996 L 128,28.000014 C 128,25.788015 126.212,24.000015 124,24.000015 L 12,24.000015 z "
         style="fill:#888888;fill-opacity:1" />
      <rect
         id="rect3244"
         x="12"
         y="28.000013"
         width="112"
         height="71.999985"
         style="fill:#ffffff" />
      <path
         id="path3257"
         d="M 16,32.000013 C 16,38.724011 16,89.283999 16,95.999997 C 23.164,95.999997 112.836,95.999997 120,95.999997 C 120,89.283999 120,38.724011 120,32.000013 C 112.836,32.000013 23.164,32.000013 16,32.000013 z "
         style="fill:url(#linearGradient4869)" />
      <polygon
         transform="matrix(4,0,0,3.999999,-236,483.9999)"
         style="fill:#0066ff;fill-opacity:1"
         points="62,-110.779 62,-112.779 63.5,-110.779 63.5,-108.779 62,-110.779 "
         id="polygon3261" />
      <polygon
         transform="matrix(4,0,0,3.999999,-236,483.9999)"
         style="fill:#ff0000;fill-opacity:1"
         points="62,-105.279 62,-107.279 63.5,-105.279 63.5,-103.279 62,-105.279 "
         id="polygon3263" />
      <polygon
         transform="matrix(4,0,0,3.999999,-236,483.9999)"
         style="fill:#0066ff;fill-opacity:1"
         points="62,-99.779 62,-101.779 63.5,-99.779 63.5,-97.779 62,-99.779 "
         id="polygon3265" />
      <polygon
         transform="matrix(4,0,0,3.999999,-236,483.9999)"
         id="polygon3267"
         points="89.998,-99.78 89.998,-97.78 88.498,-99.78 88.498,-101.78 89.998,-99.78 "
         style="fill:#ff8080" />
      <polygon
         transform="matrix(4,0,0,3.999999,-236,483.9999)"
         id="polygon3269"
         points="89.998,-105.28 89.998,-103.28 88.498,-105.28 88.498,-107.28 89.998,-105.28 "
         style="fill:#0066ff;fill-opacity:1" />
      <polygon
         transform="matrix(4,0,0,3.999999,-236,483.9999)"
         id="polygon3271"
         points="89.998,-110.78 89.998,-108.78 88.498,-110.78 88.498,-112.78 89.998,-110.78 "
         style="fill:#ff0000;fill-opacity:1" />
      <polygon
         transform="matrix(4,0,0,3.999999,-236,483.9999)"
         id="polygon3273"
         points="65,-96 63,-96 65,-97.5 67,-97.5 65,-96 "
         style="fill:#ff0000;fill-opacity:1" />
      <polygon
         transform="matrix(4,0,0,3.999999,-236,483.9999)"
         id="polygon3275"
         points="72.333,-96 70.333,-96 72.333,-97.5 74.333,-97.5 72.333,-96 "
         style="fill:#0066ff;fill-opacity:1" />
      <polygon
         transform="matrix(4,0,0,3.999999,-236,483.9999)"
         id="polygon3277"
         points="79.666,-96 77.666,-96 79.666,-97.5 81.666,-97.5 79.666,-96 "
         style="fill:#ff8080" />
      <polygon
         transform="matrix(4,0,0,3.999999,-236,483.9999)"
         id="polygon3279"
         points="87,-96 85,-96 87,-97.5 89,-97.5 87,-96 "
         style="fill:#6193cf" />
      <polygon
         transform="matrix(4,0,0,3.999999,-236,483.9999)"
         id="polygon3286"
         points="62,-112.279 62,-111.279 76,-103 89.998,-111.279 89.998,-112.279 76,-104 62,-112.279 "
         style="fill:url(#linearGradient4871)" />
      <polygon
         transform="matrix(4,0,0,3.999999,-236,483.9999)"
         id="polygon3293"
         points="89.998,-97 89.998,-98 75.998,-108.279 62,-98 62,-97 75.998,-107.279 89.998,-97 "
         style="fill:url(#linearGradient4873)" />
      <polygon
         transform="matrix(4,0,0,3.999999,-236,483.9999)"
         id="polygon3295"
         points="62,-113.279 62,-112.279 76,-104 89.998,-112.279 89.998,-113.279 62,-113.279 "
         style="fill:#ffffff" />
      <polygon
         transform="matrix(4,0,0,3.999999,-236,483.9999)"
         id="polygon3297"
         points="87,-112.5 89,-112.5 87,-114 85,-114 87,-112.5 "
         style="fill:#0066ff;fill-opacity:1" />
      <polygon
         transform="matrix(4,0,0,3.999999,-236,483.9999)"
         id="polygon3299"
         points="79.666,-112.5 81.666,-112.5 79.666,-114 77.666,-114 79.666,-112.5 "
         style="fill:#ff0000;fill-opacity:1" />
      <polygon
         transform="matrix(4,0,0,3.999999,-238,483.9999)"
         id="polygon3301"
         points="72.333,-112.5 74.333,-112.5 72.333,-114 70.333,-114 72.333,-112.5 "
         style="fill:#0066ff;fill-opacity:1" />
      <polygon
         transform="matrix(4,0,0,3.999999,-236,483.9999)"
         id="polygon3303"
         points="65,-112.5 67,-112.5 65,-114 63,-114 65,-112.5 "
         style="fill:#ff0000;fill-opacity:1" />
    </g>
    <path
       sodipodi:type="arc"
       style="opacity:0.33606555;fill:url(#radialGradient5079);fill-opacity:1;fill-rule:nonzero;stroke:none;stroke-width:5.16400003;stroke-linecap:butt;stroke-linejoin:miter;stroke-miterlimit:4;stroke-dasharray:none;stroke-dashoffset:4;stroke-opacity:0.09387758"
       id="path4198"
       sodipodi:cx="80.738739"
       sodipodi:cy="155.37166"
       sodipodi:rx="64.796692"
       sodipodi:ry="7.1996326"
       d="M 145.53543 155.37166 A 64.796692 7.1996326 0 1 1  15.942047,155.37166 A 64.796692 7.1996326 0 1 1  145.53543 155.37166 z"
       transform="matrix(0.988723,0,0,0.917924,-15.76227,-21.22798)" />
    <g
       id="g5808"
       transform="translate(-231.303,-66.303)">
      <circle
         inkscape:r_cy="true"
         inkscape:r_cx="true"
         style="fill:url(#linearGradient5812);fill-opacity:1"
         sodipodi:ry="31.302999"
         sodipodi:rx="31.302999"
         sodipodi:cy="62.605999"
         sodipodi:cx="65"
         id="circle6671"
         cy="62.605999"
         cx="65"
         rx="8.0010004"
         ry="8.0010004"
         r="31.302999"
         transform="translate(263,100.394)" />
      <polygon
         transform="matrix(0,-1,-1,0,391.8385,228.1355)"
         inkscape:r_cy="true"
         inkscape:r_cx="true"
         style="fill:url(#linearGradient5814)"
         id="polygon6673"
         points="48.76,57.287 45.486,60.565 65.136,83.487 84.785,60.565 81.512,57.287 68.409,68.629 68.409,44.19 61.862,44.19 61.862,68.9 48.76,57.287 " />
    </g>
  </g>
</svg>
