<?xml version="1.0" encoding="UTF-8" standalone="no"?>
<!-- Generator: Adobe Illustrator 12.0.0, SVG Export Plug-In . SVG Version: 6.00 Build 51448)  -->
<svg
   xmlns:ns="http://ns.adobe.com/SaveForWeb/1.0/"
   xmlns:dc="http://purl.org/dc/elements/1.1/"
   xmlns:cc="http://web.resource.org/cc/"
   xmlns:rdf="http://www.w3.org/1999/02/22-rdf-syntax-ns#"
   xmlns:svg="http://www.w3.org/2000/svg"
   xmlns="http://www.w3.org/2000/svg"
   xmlns:xlink="http://www.w3.org/1999/xlink"
   xmlns:sodipodi="http://sodipodi.sourceforge.net/DTD/sodipodi-0.dtd"
   xmlns:inkscape="http://www.inkscape.org/namespaces/inkscape"
   version="1.0"
   id="Livello_1"
   width="128"
   height="128"
   viewBox="0 0 112 116"
   overflow="visible"
   enable-background="new 0 0 112 116"
   xml:space="preserve"
   sodipodi:version="0.32"
   inkscape:version="0.45"
   sodipodi:docname="next.svg"
   sodipodi:docbase="/home/david/Progetti/oxygen-svn/Oxygen/theme/svg/actions"
   inkscape:output_extension="org.inkscape.output.svg.inkscape"
   sodipodi:modified="true"><defs
   id="defs22"><linearGradient
     id="linearGradient3291"><stop
       style="stop-color:black;stop-opacity:1"
       offset="0"
       id="stop3293" /><stop
       style="stop-color:black;stop-opacity:0"
       offset="1"
       id="stop3295" /></linearGradient><radialGradient
     inkscape:collect="always"
     xlink:href="#linearGradient3291"
     id="radialGradient3336"
     gradientUnits="userSpaceOnUse"
     gradientTransform="matrix(0.7619049,-1.2561704e-5,5.4771697e-7,0.197802,15.217123,92.822463)"
     cx="63.912209"
     cy="115.71336"
     fx="63.912209"
     fy="115.71346"
     r="63.912209" /><linearGradient
     id="linearGradient5108"><stop
       style="stop-color:#ffffff;stop-opacity:1;"
       offset="0"
       id="stop5110" /><stop
       style="stop-color:#a4c0e4;stop-opacity:0;"
       offset="1"
       id="stop5112" /></linearGradient><linearGradient
     inkscape:collect="always"
     xlink:href="#XMLID_4_"
     id="linearGradient3154"
     gradientUnits="userSpaceOnUse"
     x1="76.351051"
     y1="-0.079502821"
     x2="76.351051"
     y2="59.811054"
     gradientTransform="matrix(0.7767937,0,0,0.7463278,12.500306,-3.8620683e-8)" /><linearGradient
     inkscape:collect="always"
     xlink:href="#XMLID_3_"
     id="linearGradient4130"
     x1="56.210979"
     y1="36.192463"
     x2="56.210979"
     y2="101.57672"
     gradientUnits="userSpaceOnUse" /><linearGradient
     inkscape:collect="always"
     xlink:href="#XMLID_3_"
     id="linearGradient5106"
     gradientUnits="userSpaceOnUse"
     x1="56.210979"
     y1="36.192463"
     x2="56.210979"
     y2="101.57672"
     gradientTransform="matrix(0.9717223,0,0,0.9990389,1.3785357,2.0903527e-2)" /><linearGradient
     inkscape:collect="always"
     xlink:href="#XMLID_3_"
     id="linearGradient5212"
     gradientUnits="userSpaceOnUse"
     gradientTransform="matrix(0.9717223,0,0,0.9990389,1.3785357,2.0903527e-2)"
     x1="56.210979"
     y1="36.192463"
     x2="56.210979"
     y2="101.57672" /><linearGradient
     inkscape:collect="always"
     xlink:href="#XMLID_4_"
     id="linearGradient5214"
     gradientUnits="userSpaceOnUse"
     gradientTransform="matrix(0.7767937,0,0,0.7463278,12.500306,-3.8620683e-8)"
     x1="76.351051"
     y1="-0.079502821"
     x2="76.351051"
     y2="59.811054" /><linearGradient
     inkscape:collect="always"
     xlink:href="#XMLID_4_"
     id="linearGradient5217"
     gradientUnits="userSpaceOnUse"
     gradientTransform="matrix(0.7767937,0,0,0.7463278,12.500306,7.25)"
     x1="76.351051"
     y1="-0.079502821"
     x2="76.351051"
     y2="59.811054" /><linearGradient
     inkscape:collect="always"
     xlink:href="#XMLID_3_"
     id="linearGradient5220"
     gradientUnits="userSpaceOnUse"
     gradientTransform="matrix(0.9717223,0,0,0.9990389,1.3785357,7.2709035)"
     x1="56.210979"
     y1="36.192463"
     x2="56.210979"
     y2="101.57672" /><linearGradient
     inkscape:collect="always"
     xlink:href="#XMLID_4_"
     id="linearGradient5229"
     gradientUnits="userSpaceOnUse"
     gradientTransform="matrix(0.7767937,0,0,0.7463278,12.500306,7.25)"
     x1="76.351051"
     y1="-0.079502821"
     x2="76.351051"
     y2="59.811054" /><radialGradient
     inkscape:collect="always"
     xlink:href="#linearGradient5108"
     id="radialGradient6213"
     cx="63.984375"
     cy="15.937865"
     fx="63.984375"
     fy="15.937865"
     r="26.234375"
     gradientTransform="matrix(1.5421216,0,0,0.7628522,-34.687314,3.8800689)"
     gradientUnits="userSpaceOnUse" /></defs><sodipodi:namedview
   inkscape:window-height="581"
   inkscape:window-width="792"
   inkscape:pageshadow="2"
   inkscape:pageopacity="0.0"
   guidetolerance="10.0"
   gridtolerance="10.0"
   objecttolerance="10.0"
   borderopacity="1.0"
   bordercolor="#666666"
   pagecolor="#ffffff"
   id="base"
   width="128px"
   height="128px"
   showguides="true"
   inkscape:guide-bbox="true"
   showgrid="true"
   gridspacingx="8px"
   gridspacingy="8px"
   gridempspacing="0"
   inkscape:zoom="2.953125"
   inkscape:cx="64"
   inkscape:cy="64"
   inkscape:window-x="0"
   inkscape:window-y="113"
   inkscape:current-layer="Livello_1" />
<metadata
   id="metadata3">
	<ns:sfw>
		<ns:slices />
		<ns:sliceSourceBounds
   y="8"
   x="8"
   height="116"
   width="112"
   bottomLeftOrigin="true" />
	</ns:sfw>
<rdf:RDF><cc:Work
     rdf:about=""><dc:format>image/svg+xml</dc:format><dc:type
       rdf:resource="http://purl.org/dc/dcmitype/StillImage" /></cc:Work></rdf:RDF></metadata>
<linearGradient
   id="XMLID_3_"
   gradientUnits="userSpaceOnUse"
   x1="55.9995"
   y1="26.105"
   x2="55.9995"
   y2="116.0005">
	<stop
   offset="0"
   style="stop-color:#2C72C7"
   id="stop6" /><stop
   id="stop5117"
   style="stop-color:#568cd0;stop-opacity:1;"
   offset="0.34999999" />
	<stop
   offset="0.69999999"
   style="stop-color:#80a7da;stop-opacity:1;"
   id="stop8" />
	<stop
   offset="1"
   style="stop-color:#bdd2ec;stop-opacity:0.47826087;"
   id="stop10" />
</linearGradient>

<linearGradient
   id="XMLID_4_"
   gradientUnits="userSpaceOnUse"
   x1="56.0005"
   y1="69.249001"
   x2="56.0005"
   y2="-1.8726">
	<stop
   offset="0"
   style="stop-color:#2C72C7"
   id="stop15" />
	<stop
   offset="1"
   style="stop-color:#A4C0E4"
   id="stop17" />
</linearGradient>

<path
   sodipodi:type="arc"
   style="opacity:0.38139535;fill:url(#radialGradient3336);fill-opacity:1;fill-rule:nonzero;stroke:none;stroke-width:0;stroke-linecap:round;stroke-linejoin:round;stroke-miterlimit:4;stroke-dasharray:none;stroke-dashoffset:4;stroke-opacity:1"
   id="path1563"
   sodipodi:cx="63.912209"
   sodipodi:cy="115.70919"
   sodipodi:rx="63.912209"
   sodipodi:ry="12.641975"
   d="M 127.82442 115.70919 A 63.912209 12.641975 0 1 1  0,115.70919 A 63.912209 12.641975 0 1 1  127.82442 115.70919 z"
   transform="matrix(0.9074952,0,0,0.371906,-2.0000225,68.265431)" /><rect
   style="opacity:1;fill:url(#linearGradient4130);fill-opacity:1.0;fill-rule:nonzero;stroke:none;stroke-width:16;stroke-linecap:round;stroke-linejoin:round;stroke-miterlimit:4;stroke-dasharray:none;stroke-opacity:1"
   id="rect4128"
   width="14.921958"
   height="79.826721"
   x="48.75"
   y="21.75"
   rx="4.0188799"
   ry="4.0188799" /><path
   style="fill:url(#linearGradient5220);fill-opacity:1;fill-rule:nonzero;stroke:none;stroke-width:16;stroke-linecap:round;stroke-linejoin:round;stroke-miterlimit:4;stroke-opacity:1"
   d="M 52.655235,29 L 59.344765,29 C 61.508265,29 63.25,30.790697 63.25,33.015018 L 63.25,104.73498 C 63.25,106.9593 61.508265,108.75 59.344765,108.75 L 52.655235,108.75 C 50.491735,108.75 48.75,106.9593 48.75,104.73498 L 48.75,33.015018 C 48.75,30.790697 50.491735,29 52.655235,29 z "
   id="rect5101" /><path
   style="fill:url(#linearGradient5217)"
   d="M 53.792326,8.1888804 L 13.270107,51.062432 C 12.184927,52.211029 12.254838,53.97908 13.427797,55.045583 L 15.814883,57.215905 C 16.895404,58.198072 18.567841,58.265988 19.730702,57.371888 C 19.730702,57.371888 52.627136,32.083314 55.999973,29.489824 C 59.373588,32.083314 92.269247,57.371888 92.269247,57.371888 C 93.431329,58.265988 95.103764,58.198072 96.184287,57.215905 L 98.57215,55.045583 C 99.745886,53.97908 99.815024,52.211029 98.728286,51.063177 L 58.209175,8.1881342 C 57.644446,7.5910718 56.84124,7.25 56.000749,7.25 C 55.159483,7.25 54.357055,7.5910718 53.792326,8.1888804 z "
   id="path19" /><path
   style="fill:url(#radialGradient6213);fill-opacity:1.0;opacity:0.5"
   d="M 63.84375 10.25 C 63.749936 10.246117 63.679479 10.24178 63.59375 10.28125 C 55.032525 19.228803 46.355983 28.312634 37.75 37.4375 C 41.903899 38.333611 46.502229 38.997732 51.40625 39.4375 C 55.604505 36.209972 59.80195 32.977794 64 29.75 C 68.217082 32.924884 72.403977 36.186239 76.59375 39.4375 C 81.486142 38.998774 86.072614 38.33051 90.21875 37.4375 C 81.583493 28.199136 72.939382 18.975869 64.125 10.25 C 64.034262 10.260544 63.937564 10.253883 63.84375 10.25 z "
   transform="matrix(0.90625,0,0,0.90625,-2,0)"
   id="path5227" /></svg>