<?xml version="1.0" encoding="UTF-8" standalone="no"?>
<!-- Generator: Adobe Illustrator 12.0.0, SVG Export Plug-In . SVG Version: 6.00 Build 51448)  -->
<svg
   xmlns:ns="http://ns.adobe.com/SaveForWeb/1.0/"
   xmlns:a="http://ns.adobe.com/AdobeSVGViewerExtensions/3.0/"
   xmlns:dc="http://purl.org/dc/elements/1.1/"
   xmlns:cc="http://web.resource.org/cc/"
   xmlns:rdf="http://www.w3.org/1999/02/22-rdf-syntax-ns#"
   xmlns:svg="http://www.w3.org/2000/svg"
   xmlns="http://www.w3.org/2000/svg"
   xmlns:xlink="http://www.w3.org/1999/xlink"
   xmlns:sodipodi="http://sodipodi.sourceforge.net/DTD/sodipodi-0.dtd"
   xmlns:inkscape="http://www.inkscape.org/namespaces/inkscape"
   version="1.0"
   id="Layer_1"
   width="128"
   height="128"
   viewBox="0 0 109.547 119"
   overflow="visible"
   enable-background="new 0 0 109.547 119"
   xml:space="preserve"
   sodipodi:version="0.32"
   inkscape:version="0.44"
   sodipodi:docname="next.svg"
   sodipodi:docbase="/home/pinheiro/artwork/Oxygen/theme/svg/actions"><defs
   id="defs155"><linearGradient
     inkscape:collect="always"
     id="linearGradient3291"><stop
       style="stop-color:#000000;stop-opacity:1;"
       offset="0"
       id="stop3293" /><stop
       style="stop-color:#000000;stop-opacity:0;"
       offset="1"
       id="stop3295" /></linearGradient><radialGradient
     inkscape:collect="always"
     xlink:href="#linearGradient3291"
     id="radialGradient3394"
     gradientUnits="userSpaceOnUse"
     gradientTransform="matrix(1,0,0,0.197802,0,92.82166)"
     cx="63.912209"
     cy="115.70919"
     fx="98.520187"
     fy="119.62119"
     r="63.912209" /><radialGradient
     gradientUnits="userSpaceOnUse"
     r="109.9218"
     cy="104.4307"
     cx="46.633801"
     id="XMLID_1_"
     gradientTransform="matrix(1.008788,0,0,1.00774,-4.974887,-9.500515)">
				<stop
   id="stop18"
   style="stop-color:#555555"
   offset="0" />
				<stop
   id="stop20"
   style="stop-color:#888888"
   offset="0.1243" />
				<stop
   id="stop22"
   style="stop-color:#DDDDDD"
   offset="0.2012" />
				<stop
   id="stop24"
   style="stop-color:#F5F5F5"
   offset="0.2781" />
				<stop
   id="stop26"
   style="stop-color:#FDFDFD"
   offset="0.3586" />
				<stop
   id="stop28"
   style="stop-color:#FFFFFF"
   offset="0.503" />
				<stop
   id="stop30"
   style="stop-color:#EEEEEE"
   offset="1" />
			</radialGradient><linearGradient
     gradientTransform="matrix(-3.992281,0,0,-4.03096,-1210.722,-2223.697)"
     y2="-574.71301"
     x2="-314.2587"
     y1="-572.55469"
     x1="-316.41699"
     gradientUnits="userSpaceOnUse"
     id="path684_1_">
				<stop
   id="stop3838"
   style="stop-color:#FFFFFF"
   offset="0.3" />
				<stop
   id="stop3840"
   style="stop-color:#EEEEEC"
   offset="0.5148" />
				<stop
   id="stop3842"
   style="stop-color:#E3E3E2"
   offset="0.6604" />
				<stop
   id="stop3844"
   style="stop-color:#C6C6C6"
   offset="0.9147" />
				<stop
   id="stop3846"
   style="stop-color:#BBBBBB"
   offset="1" />
			</linearGradient><linearGradient
     inkscape:collect="always"
     id="linearGradient3115"><stop
       style="stop-color:white;stop-opacity:1;"
       offset="0"
       id="stop3117" /><stop
       style="stop-color:white;stop-opacity:0;"
       offset="1"
       id="stop3119" /></linearGradient><linearGradient
     inkscape:collect="always"
     id="linearGradient2972"><stop
       style="stop-color:white;stop-opacity:1;"
       offset="0"
       id="stop2974" /><stop
       style="stop-color:white;stop-opacity:0;"
       offset="1"
       id="stop2976" /></linearGradient><linearGradient
     inkscape:collect="always"
     id="linearGradient2948"><stop
       style="stop-color:white;stop-opacity:1;"
       offset="0"
       id="stop2950" /><stop
       style="stop-color:white;stop-opacity:0;"
       offset="1"
       id="stop2952" /></linearGradient><radialGradient
     gradientTransform="matrix(0.170706,0,0,-1.360102e-2,3.426686,31.62039)"
     gradientUnits="userSpaceOnUse"
     id="path2295_1_"
     fy="-6078.353"
     fx="369.5242"
     r="253.01871"
     cy="-6078.353"
     cx="265.3931">
				<stop
   id="stop8"
   offset="0"
   style="stop-color:#000000;stop-opacity:1" />
				<stop
   id="stop10"
   offset="1"
   style="stop-color:#ffffff;stop-opacity:1" />
				<a:midPointStop
   offset="0"
   style="stop-color:#000000" />
				<a:midPointStop
   offset="0.5"
   style="stop-color:#000000" />
				<a:midPointStop
   offset="1"
   style="stop-color:#FFFFFF" />
			</radialGradient><linearGradient
     inkscape:collect="always"
     xlink:href="#XMLID_14_"
     id="linearGradient1503"
     gradientUnits="userSpaceOnUse"
     gradientTransform="matrix(1.064774,0,0,1.069314,-645.21,-752.5038)"
     x1="538.77338"
     y1="677.87701"
     x2="538.77338"
     y2="789.12207" /><radialGradient
     inkscape:collect="always"
     xlink:href="#XMLID_15_"
     id="radialGradient1961"
     gradientUnits="userSpaceOnUse"
     gradientTransform="matrix(1.064774,0,0,1.069314,-645.2101,-752.5037)"
     cx="538.77338"
     cy="651.10352"
     r="126.0234" /><radialGradient
     inkscape:collect="always"
     xlink:href="#XMLID_13_"
     id="radialGradient1965"
     gradientUnits="userSpaceOnUse"
     gradientTransform="matrix(1.064774,0,0,1.069314,-645.2101,-752.5037)"
     cx="538.77252"
     cy="792.99609"
     r="121.5466" /><linearGradient
     inkscape:collect="always"
     xlink:href="#XMLID_9_"
     id="linearGradient1985"
     gradientUnits="userSpaceOnUse"
     gradientTransform="matrix(1.064774,0,0,1.069314,-645.2101,-752.5037)"
     x1="538.77338"
     y1="793"
     x2="538.77338"
     y2="674" /><linearGradient
     gradientTransform="matrix(1.064774,0,0,1.069314,-645.2101,-752.5037)"
     y2="736.55688"
     x2="579.72852"
     y1="732.41022"
     x1="579.72852"
     gradientUnits="userSpaceOnUse"
     id="XMLID_11_">
		<stop
   id="stop61"
   style="stop-color:#094422"
   offset="0" />
		<stop
   id="stop63"
   style="stop-color:#9ED676"
   offset="1" />
	</linearGradient><linearGradient
     gradientTransform="matrix(1.064774,0,0,1.069314,-645.2101,-752.5037)"
     y2="736.62341"
     x2="497.81451"
     y1="732.4082"
     x1="497.81451"
     gradientUnits="userSpaceOnUse"
     id="XMLID_12_">
		<stop
   id="stop68"
   style="stop-color:#094422"
   offset="0" />
		<stop
   id="stop70"
   style="stop-color:#9ED676"
   offset="1" />
	</linearGradient><linearGradient
     inkscape:collect="always"
     xlink:href="#XMLID_9_"
     id="linearGradient2044"
     gradientUnits="userSpaceOnUse"
     gradientTransform="matrix(-1.064774,0,0,-1.069314,756.8278,870.9447)"
     x1="540.99591"
     y1="721.8396"
     x2="540.99591"
     y2="889.8454" /><radialGradient
     inkscape:collect="always"
     xlink:href="#XMLID_13_"
     id="radialGradient2050"
     gradientUnits="userSpaceOnUse"
     gradientTransform="matrix(-2.632086,0,0,-0.961931,1601.251,792.0882)"
     cx="538.77216"
     cy="734.34766"
     r="121.5466"
     fx="538.77216"
     fy="734.34766" /><linearGradient
     inkscape:collect="always"
     xlink:href="#XMLID_14_"
     id="linearGradient2052"
     gradientUnits="userSpaceOnUse"
     gradientTransform="matrix(-1.064774,0,0,-1.069314,756.8277,870.9448)"
     x1="538.77338"
     y1="677.87701"
     x2="538.77338"
     y2="789.12207" /><linearGradient
     inkscape:collect="always"
     xlink:href="#XMLID_15_"
     id="linearGradient2944"
     x1="51.477333"
     y1="-2.2780347"
     x2="51.477333"
     y2="83.417892"
     gradientUnits="userSpaceOnUse"
     gradientTransform="translate(128.3814,0)" /><radialGradient
     inkscape:collect="always"
     xlink:href="#linearGradient2948"
     id="radialGradient2954"
     cx="11.83884"
     cy="100.6598"
     fx="11.83884"
     fy="100.6598"
     r="51.470882"
     gradientTransform="matrix(1,0,0,1.149425e-2,0,99.50279)"
     gradientUnits="userSpaceOnUse" /><linearGradient
     inkscape:collect="always"
     xlink:href="#linearGradient2972"
     id="linearGradient2978"
     x1="51.330795"
     y1="11.17368"
     x2="51.330795"
     y2="66.080238"
     gradientUnits="userSpaceOnUse"
     gradientTransform="translate(128.3814,0)" /><linearGradient
     inkscape:collect="always"
     xlink:href="#linearGradient2972"
     id="linearGradient3008"
     gradientUnits="userSpaceOnUse"
     x1="51.330795"
     y1="11.17368"
     x2="51.330795"
     y2="66.080238"
     gradientTransform="translate(128.3814,0)" /><linearGradient
     inkscape:collect="always"
     xlink:href="#XMLID_9_"
     id="linearGradient3953"
     gradientUnits="userSpaceOnUse"
     gradientTransform="matrix(0,1.035607,-1.040022,0,836.7803,-501.2228)"
     x1="600.92871"
     y1="751.39087"
     x2="364.56064"
     y2="743.43958" /><linearGradient
     inkscape:collect="always"
     xlink:href="#linearGradient3115"
     id="linearGradient3955"
     gradientUnits="userSpaceOnUse"
     gradientTransform="matrix(0.98666,0,0,1,236.366,5.834322)"
     x1="-170.70047"
     y1="-39.182831"
     x2="-180.69461"
     y2="24.089455" /><linearGradient
     inkscape:collect="always"
     xlink:href="#linearGradient3115"
     id="linearGradient3957"
     gradientUnits="userSpaceOnUse"
     gradientTransform="matrix(0.98666,0,0,1,236.366,5.834322)"
     x1="-170.70047"
     y1="-39.182831"
     x2="-180.69461"
     y2="24.089455" /><radialGradient
     inkscape:collect="always"
     xlink:href="#XMLID_13_"
     id="radialGradient3959"
     gradientUnits="userSpaceOnUse"
     gradientTransform="matrix(0,0.755614,-1.040022,0,836.7803,-336.2847)"
     cx="589.07928"
     cy="739.42639"
     fx="589.07928"
     fy="739.42639"
     r="121.5466" /><linearGradient
     inkscape:collect="always"
     xlink:href="#XMLID_14_"
     id="linearGradient3961"
     gradientUnits="userSpaceOnUse"
     gradientTransform="matrix(0,1.035607,-1.040022,0,836.7804,-501.2227)"
     x1="482.60889"
     y1="734.46405"
     x2="595.60168"
     y2="734.46405" /><radialGradient
     inkscape:collect="always"
     xlink:href="#XMLID_15_"
     id="radialGradient3963"
     gradientUnits="userSpaceOnUse"
     gradientTransform="matrix(0,1.035607,-1.040022,0,836.7803,-501.2228)"
     cx="447.07568"
     cy="769.36194"
     fx="447.07568"
     fy="769.36194"
     r="126.0234" /></defs><sodipodi:namedview
   inkscape:window-height="804"
   inkscape:window-width="1349"
   inkscape:pageshadow="2"
   inkscape:pageopacity="0.0"
   borderopacity="1.0"
   bordercolor="#666666"
   pagecolor="#ffffff"
   id="base"
   inkscape:showpageshadow="false"
   inkscape:zoom="3.6203867"
   inkscape:cx="136.00961"
   inkscape:cy="22.554567"
   inkscape:window-x="565"
   inkscape:window-y="362"
   inkscape:current-layer="Layer_1"
   showguides="true"
   inkscape:guide-bbox="true" />
<metadata
   id="metadata3">
	<ns:sfw>
		<ns:slices />
		<ns:sliceSourceBounds
   x="0"
   y="0"
   height="128"
   width="128"
   bottomLeftOrigin="true" />
	</ns:sfw>
<rdf:RDF><cc:Work
     rdf:about=""><dc:format>image/svg+xml</dc:format><dc:type
       rdf:resource="http://purl.org/dc/dcmitype/StillImage" /></cc:Work></rdf:RDF></metadata>

<linearGradient
   id="XMLID_9_"
   gradientUnits="userSpaceOnUse"
   x1="538.77338"
   y1="793"
   x2="538.77338"
   y2="674"
   gradientTransform="translate(-484,-674)">
	<stop
   offset="0"
   style="stop-color:#094422"
   id="stop7" />
	<stop
   offset="0.1124"
   style="stop-color:#095A22"
   id="stop9" />
	<stop
   offset="0.4045"
   style="stop-color:#1E7D27"
   id="stop11" />
	<stop
   offset="0.4231"
   style="stop-color:#217F29"
   id="stop13" />
	<stop
   offset="0.4369"
   style="stop-color:#2A8531"
   id="stop15" />
	<stop
   offset="0.4491"
   style="stop-color:#3A8F3D"
   id="stop17" />
	<stop
   offset="0.4605"
   style="stop-color:#519D4E"
   id="stop19" />
	<stop
   offset="0.4712"
   style="stop-color:#6EAF64"
   id="stop21" />
	<stop
   offset="0.4814"
   style="stop-color:#92C680"
   id="stop23" />
	<stop
   offset="0.4911"
   style="stop-color:#BCE0A0"
   id="stop25" />
	<stop
   offset="0.4944"
   style="stop-color:#CCEAAC"
   id="stop27" />
	<stop
   offset="0.5124"
   style="stop-color:#A4CD90"
   id="stop29" />
	<stop
   offset="0.5326"
   style="stop-color:#80B276"
   id="stop31" />
	<stop
   offset="0.5552"
   style="stop-color:#609A5F"
   id="stop33" />
	<stop
   offset="0.5803"
   style="stop-color:#44864C"
   id="stop35" />
	<stop
   offset="0.6086"
   style="stop-color:#2E763C"
   id="stop37" />
	<stop
   offset="0.6416"
   style="stop-color:#1D6931"
   id="stop39" />
	<stop
   offset="0.6825"
   style="stop-color:#126028"
   id="stop41" />
	<stop
   offset="0.7398"
   style="stop-color:#0B5B23"
   id="stop43" />
	<stop
   offset="0.8989"
   style="stop-color:#095A22"
   id="stop45" />
	<stop
   offset="1"
   style="stop-color:#9ED676"
   id="stop47" />
</linearGradient>






<radialGradient
   id="XMLID_13_"
   cx="538.77252"
   cy="792.99609"
   r="121.5466"
   gradientTransform="translate(-484,-674)"
   gradientUnits="userSpaceOnUse">
	<stop
   offset="0"
   style="stop-color:#FFFAB3"
   id="stop83" />
	<stop
   offset="0.0494"
   style="stop-color:#DFEE9F"
   id="stop85" />
	<stop
   offset="0.1049"
   style="stop-color:#C3E48D"
   id="stop87" />
	<stop
   offset="0.1605"
   style="stop-color:#AEDC80"
   id="stop89" />
	<stop
   offset="0.2156"
   style="stop-color:#A2D879"
   id="stop91" />
	<stop
   offset="0.2697"
   style="stop-color:#9ED676"
   id="stop93" />
	<stop
   offset="0.3989"
   style="stop-color:#3BA42A"
   id="stop95" />
	<stop
   offset="0.3995"
   style="stop-color:#3BA42A"
   id="stop97" />
	<stop
   offset="0.4484"
   style="stop-color:#258426"
   id="stop99" />
	<stop
   offset="0.4956"
   style="stop-color:#166D24"
   id="stop101" />
	<stop
   offset="0.54"
   style="stop-color:#0C5F23"
   id="stop103" />
	<stop
   offset="0.5787"
   style="stop-color:#095A22"
   id="stop105" />
	<stop
   offset="0.5948"
   style="stop-color:#166727"
   id="stop107" />
	<stop
   offset="0.6456"
   style="stop-color:#388B33"
   id="stop109" />
	<stop
   offset="0.6932"
   style="stop-color:#51A53C"
   id="stop111" />
	<stop
   offset="0.7359"
   style="stop-color:#61B542"
   id="stop113" />
	<stop
   offset="0.7697"
   style="stop-color:#66BA44"
   id="stop115" />
	<stop
   offset="1"
   style="stop-color:#095A22"
   id="stop117" />
</radialGradient>

<linearGradient
   id="XMLID_14_"
   gradientUnits="userSpaceOnUse"
   x1="538.77338"
   y1="677.87701"
   x2="538.77338"
   y2="789.12207"
   gradientTransform="translate(-484,-674)">
	<stop
   offset="0.0056"
   style="stop-color:#1E7D27"
   id="stop122" />
	<stop
   offset="0.1348"
   style="stop-color:#3BA42A"
   id="stop124" />
	<stop
   offset="0.4831"
   style="stop-color:#B8E57F"
   id="stop126" />
	<stop
   offset="0.6299"
   style="stop-color:#A9E66E"
   id="stop128" />
	<stop
   offset="0.8528"
   style="stop-color:#97E859"
   id="stop130" />
	<stop
   offset="1"
   style="stop-color:#91E851"
   id="stop132" />
</linearGradient>

<radialGradient
   id="XMLID_15_"
   cx="538.77338"
   cy="651.10352"
   r="126.0234"
   gradientTransform="translate(-484,-674)"
   gradientUnits="userSpaceOnUse">
	<stop
   offset="0"
   style="stop-color:#CCEAAC"
   id="stop137" />
	<stop
   offset="0.5393"
   style="stop-color:#3BA42A"
   id="stop139" />
	<stop
   offset="1"
   style="stop-color:#91E851"
   id="stop141" />
</radialGradient>

<linearGradient
   id="XMLID_16_"
   gradientUnits="userSpaceOnUse"
   x1="538.77338"
   y1="675.48541"
   x2="538.77338"
   y2="677.06049"
   gradientTransform="translate(-484,-674)">
	<stop
   offset="0"
   style="stop-color:#FFFFFF"
   id="stop146" />
	<stop
   offset="1"
   style="stop-color:#00BF00"
   id="stop148" />
</linearGradient>


<path
   id="path1442"
   d="M 110.25051,5.237996 L 110.25051,106.0579 L 57.341942,106.0579 L 32.215862,78.942444 L 32.215862,5.237996 L 110.25051,5.237996 z "
   style="fill:white;fill-opacity:1;fill-rule:nonzero;stroke:black;stroke-width:5.75326109;stroke-linecap:round;stroke-linejoin:round;stroke-miterlimit:4;stroke-dasharray:none;stroke-dashoffset:4;stroke-opacity:0.11788617"
   sodipodi:nodetypes="cccccc" /><path
   id="path1440"
   d="M 110.25051,5.237996 L 110.25051,106.0579 L 57.341942,106.0579 L 32.215862,78.942444 L 32.215862,5.237996 L 110.25051,5.237996 z "
   style="fill:white;fill-opacity:1;fill-rule:nonzero;stroke:black;stroke-width:7.67101526;stroke-linecap:round;stroke-linejoin:round;stroke-miterlimit:4;stroke-dasharray:none;stroke-dashoffset:4;stroke-opacity:0.11788617"
   sodipodi:nodetypes="cccccc" /><path
   id="path1444"
   d="M 110.25051,5.237996 L 110.25051,106.0579 L 57.341942,106.0579 L 32.215862,78.942444 L 32.215862,5.237996 L 110.25051,5.237996 z "
   style="fill:white;fill-opacity:1;fill-rule:nonzero;stroke:black;stroke-width:3.83550763;stroke-linecap:round;stroke-linejoin:round;stroke-miterlimit:4;stroke-dasharray:none;stroke-dashoffset:4;stroke-opacity:0.11788617"
   sodipodi:nodetypes="cccccc" /><path
   id="path1446"
   d="M 110.25051,5.237996 L 110.25051,106.0579 L 57.341942,106.0579 L 32.215862,78.942444 L 32.215862,5.237996 L 110.25051,5.237996 z "
   style="fill:#818181;fill-opacity:1;fill-rule:nonzero;stroke:black;stroke-width:1.91775382;stroke-linecap:round;stroke-linejoin:round;stroke-miterlimit:4;stroke-dasharray:none;stroke-dashoffset:4;stroke-opacity:0.19512191"
   sodipodi:nodetypes="cccccc" /><path
   sodipodi:type="arc"
   style="opacity:0.38139535;fill:url(#radialGradient3394);fill-opacity:1;fill-rule:nonzero;stroke:none;stroke-width:0;stroke-linecap:round;stroke-linejoin:round;stroke-miterlimit:4;stroke-dasharray:none;stroke-dashoffset:4;stroke-opacity:1"
   id="path3289"
   sodipodi:cx="63.912209"
   sodipodi:cy="115.70919"
   sodipodi:rx="63.912209"
   sodipodi:ry="12.641975"
   d="M 127.82442 115.70919 A 63.912209 12.641975 0 1 1  0,115.70919 A 63.912209 12.641975 0 1 1  127.82442 115.70919 z"
   transform="matrix(0.930965,0,0,0.38737,-4.726587,69.28059)" /><rect
   id="_x3C_Sezione_x3E_"
   width="118.99994"
   height="118.99994"
   x="-4.7264938"
   y="9.5367432e-06"
   style="fill:none" /><polygon
   style="fill:white"
   points="36,13 116,13 116,115 62.051,115 36,87.611 36,13 "
   id="polygon5"
   transform="matrix(1.008789,0,0,1.00774,-4.974888,-9.500525)" /><path
   style="fill:url(#XMLID_1_)"
   id="path32"
   d="M 35.739812,7.631063 C 35.739812,14.689275 35.739812,74.290048 35.739812,77.188308 C 35.800342,77.251796 35.877013,77.334431 35.970822,77.433189 C 36.918082,78.437906 39.540922,81.217253 42.711553,84.576055 C 49.252533,91.509305 58.132903,100.9206 59.489722,102.35864 C 62.498932,102.35864 100.97917,102.35864 107.64524,102.35864 C 107.64524,95.220815 107.64524,14.768886 107.64524,7.631063 C 100.75622,7.631063 42.628832,7.631063 35.739812,7.631063 z " /><g
   id="g34"
   transform="matrix(1.008789,0,0,1.00774,-4.974888,-9.500525)">
				<path
   style="fill:#bbb"
   d="M 51.523,29.995 C 51.449,30.224 51.359,30.396 51.25,30.505 C 51.146,30.61 50.879,30.702 50.453,30.778 C 50.023,30.858 49.573,30.898 49.101,30.898 C 48.357,30.898 47.982,30.644 47.982,30.129 C 47.982,29.983 48.021,29.714 48.1,29.302 L 48.785,25.842 C 48.824,25.638 48.847,25.496 48.847,25.419 C 48.847,25.34 48.817,25.263 48.76,25.194 C 49.072,25.085 49.289,25.016 49.412,25.016 C 49.557,25.016 49.633,25.099 49.633,25.271 C 49.633,25.311 49.592,25.507 49.517,25.886 L 48.901,28.986 C 48.815,29.431 48.768,29.74 48.768,29.919 C 48.768,30.21 49.085,30.353 49.737,30.353 C 50.316,30.355 50.908,30.231 51.523,29.995 z "
   id="path41" />
				<path
   style="fill:#bbb"
   d="M 55.924,28.173 C 55.931,28.235 55.936,28.275 55.936,28.322 C 55.936,29.003 55.708,29.593 55.248,30.096 C 54.789,30.606 54.253,30.85 53.636,30.85 C 53.171,30.85 52.786,30.701 52.491,30.402 C 52.194,30.103 52.048,29.71 52.048,29.229 C 52.048,28.683 52.238,28.21 52.62,27.805 C 52.999,27.404 53.452,27.201 53.971,27.201 C 54.048,27.201 54.134,27.209 54.225,27.234 C 54.17,27.129 54.142,27.038 54.142,26.968 C 54.142,26.855 54.181,26.742 54.257,26.64 C 54.825,26.687 55.299,26.983 55.676,27.522 C 56.063,27.78 56.469,27.916 56.89,27.916 C 57.165,27.916 57.46,27.828 57.777,27.631 L 57.955,27.937 C 57.583,28.193 57.201,28.324 56.809,28.324 C 56.552,28.333 56.256,28.275 55.924,28.173 z M 55.127,27.871 C 54.938,27.813 54.76,27.718 54.595,27.591 C 54.48,27.566 54.377,27.55 54.302,27.55 C 53.906,27.55 53.553,27.729 53.25,28.086 C 52.943,28.447 52.785,28.858 52.785,29.314 C 52.785,29.649 52.879,29.915 53.062,30.14 C 53.246,30.355 53.488,30.461 53.779,30.461 C 54.169,30.461 54.508,30.261 54.793,29.86 C 55.077,29.47 55.222,28.989 55.222,28.425 C 55.222,28.242 55.193,28.053 55.127,27.871 z "
   id="path50" />
				<path
   style="fill:#bbb"
   d="M 57.837,30.745 C 57.679,30.818 57.549,30.851 57.455,30.851 C 57.214,30.851 57.095,30.753 57.095,30.538 C 57.095,30.433 57.138,30.159 57.221,29.722 L 57.399,28.847 C 57.505,28.319 57.56,27.936 57.56,27.688 C 57.56,27.55 57.525,27.437 57.445,27.342 C 57.693,27.262 57.896,27.215 58.051,27.215 C 58.217,27.215 58.299,27.317 58.299,27.532 C 58.299,27.663 58.238,28.006 58.118,28.548 L 57.913,29.569 C 58.351,28.716 58.8,28.035 59.246,27.558 C 59.696,27.077 60.1,26.841 60.465,26.841 C 60.594,26.841 60.706,26.877 60.799,26.953 C 60.894,27.026 60.942,27.114 60.942,27.216 C 60.942,27.387 60.76,27.595 60.411,27.879 C 60.321,27.689 60.195,27.598 60.029,27.598 C 59.732,27.598 59.351,27.915 58.893,28.56 C 58.608,28.946 58.36,29.364 58.148,29.784 C 57.935,30.199 57.831,30.497 57.831,30.68 L 57.837,30.745 z "
   id="path59" />
				<path
   style="fill:#bbb"
   d="M 61.581,29.302 C 61.581,29.987 61.871,30.333 62.454,30.333 C 62.951,30.333 63.506,30.096 64.111,29.607 C 64.716,29.127 65.263,28.489 65.75,27.709 L 66.047,27.877 C 65.593,28.733 64.994,29.454 64.259,30.016 C 63.529,30.58 62.832,30.861 62.177,30.861 C 61.758,30.861 61.428,30.726 61.182,30.453 C 60.937,30.18 60.814,29.801 60.814,29.331 C 60.814,28.646 61.035,28.056 61.481,27.585 C 61.921,27.097 62.457,26.856 63.081,26.856 C 63.385,26.856 63.622,26.932 63.807,27.082 C 63.988,27.238 64.079,27.439 64.079,27.698 C 64.079,28.114 63.828,28.493 63.326,28.817 C 62.814,29.139 62.233,29.302 61.581,29.302 z M 61.61,28.96 C 62.095,28.938 62.518,28.796 62.869,28.541 C 63.218,28.29 63.394,27.995 63.394,27.655 C 63.394,27.357 63.26,27.208 62.995,27.208 C 62.681,27.208 62.382,27.378 62.111,27.721 C 61.841,28.064 61.672,28.472 61.61,28.96 z "
   id="path68" />
				<path
   style="fill:#bbb"
   d="M 66.234,29.524 C 67.077,27.743 67.82,26.851 68.472,26.851 C 68.751,26.851 68.896,27.059 68.896,27.466 C 68.896,27.648 68.833,28.039 68.709,28.657 L 68.493,29.725 C 68.903,28.865 69.327,28.162 69.77,27.648 C 70.214,27.116 70.595,26.851 70.92,26.851 C 71.277,26.851 71.45,27.065 71.45,27.48 C 71.45,27.629 71.399,27.976 71.3,28.512 L 71.191,29.061 C 71.127,29.39 71.093,29.634 71.093,29.79 C 71.093,30.074 71.195,30.212 71.392,30.212 C 71.839,30.212 72.528,29.378 73.46,27.706 L 73.756,27.87 C 72.741,29.863 71.861,30.85 71.101,30.85 C 70.619,30.85 70.377,30.537 70.377,29.899 C 70.377,29.68 70.422,29.352 70.514,28.879 L 70.61,28.383 C 70.676,28.06 70.708,27.851 70.708,27.778 C 70.708,27.676 70.655,27.621 70.559,27.621 C 70.305,27.621 69.854,28.132 69.203,29.137 C 68.612,30.054 68.316,30.579 68.316,30.721 C 68.316,30.732 68.32,30.758 68.328,30.794 C 68.295,30.801 68.237,30.815 68.158,30.849 C 68.121,30.856 68.068,30.863 68.003,30.863 C 67.783,30.863 67.676,30.761 67.676,30.55 C 67.676,30.481 67.711,30.299 67.78,29.978 C 67.805,29.862 67.83,29.741 67.858,29.599 L 68.007,28.852 C 68.118,28.32 68.172,27.999 68.172,27.879 C 68.172,27.722 68.113,27.653 67.998,27.653 C 67.746,27.653 67.376,28.109 66.882,29.02 C 66.392,29.923 66.151,30.462 66.151,30.626 C 66.151,30.684 66.17,30.724 66.208,30.768 C 66.075,30.833 65.956,30.848 65.849,30.848 C 65.611,30.848 65.485,30.723 65.485,30.458 C 65.485,30.425 65.521,30.079 65.589,29.435 L 65.667,28.688 C 65.697,28.43 65.708,28.178 65.708,27.96 C 65.708,27.682 65.65,27.464 65.542,27.336 C 65.809,27.245 65.999,27.19 66.115,27.19 C 66.319,27.19 66.421,27.314 66.421,27.558 C 66.421,27.646 66.393,27.967 66.338,28.531 L 66.234,29.524 z "
   id="path77" />
				<path
   style="fill:#bbb"
   d="M 79.359,27.878 C 78.833,28.811 78.296,29.543 77.758,30.071 C 77.217,30.603 76.734,30.865 76.302,30.865 C 76.043,30.865 75.829,30.782 75.671,30.61 C 75.512,30.435 75.429,30.213 75.429,29.932 C 75.429,29.823 75.45,29.655 75.502,29.415 L 75.577,29.036 C 75.689,28.475 75.749,28.071 75.749,27.855 C 75.749,27.72 75.711,27.615 75.631,27.527 C 75.934,27.451 76.125,27.425 76.204,27.425 C 76.381,27.425 76.468,27.541 76.468,27.793 C 76.468,27.976 76.431,28.234 76.364,28.573 L 76.224,29.258 C 76.15,29.59 76.121,29.8 76.121,29.909 C 76.121,30.198 76.24,30.343 76.486,30.343 C 76.78,30.343 77.167,30.099 77.653,29.603 C 78.139,29.104 78.611,28.478 79.068,27.716 L 79.359,27.878 z M 76.238,26.107 L 76.288,26.107 C 76.442,26.1 76.666,26.031 76.965,25.878 C 77.257,25.729 77.488,25.572 77.65,25.415 C 77.552,25.744 77.366,26.005 77.109,26.231 C 76.71,26.569 76.439,26.734 76.298,26.734 C 76.21,26.734 76.158,26.672 76.158,26.563 C 76.154,26.384 76.184,26.235 76.238,26.107 z "
   id="path86" />
				<path
   style="fill:#bbb"
   d="M 79.056,30.545 L 78.797,31.845 C 78.735,32.137 78.709,32.391 78.709,32.61 C 78.709,32.752 78.742,32.876 78.804,32.988 C 78.566,33.065 78.385,33.105 78.264,33.105 C 78.068,33.105 77.972,32.992 77.972,32.767 C 77.972,32.596 78.011,32.312 78.089,31.933 L 79.113,26.756 C 78.914,26.799 78.737,26.821 78.604,26.821 C 78.396,26.821 78.244,26.77 78.147,26.676 C 78.049,26.585 77.971,26.395 77.917,26.129 C 78.089,26.239 78.346,26.308 78.702,26.308 C 79.135,26.308 79.549,26.228 79.953,26.068 L 79.686,27.43 C 80.082,27.048 80.494,26.851 80.912,26.851 C 81.287,26.851 81.593,26.997 81.842,27.276 C 82.093,27.557 82.217,27.911 82.217,28.337 C 82.217,29 81.993,29.568 81.538,30.053 C 81.077,30.534 80.536,30.767 79.914,30.767 C 79.561,30.767 79.276,30.694 79.056,30.545 z M 79.163,30.001 C 79.398,30.282 79.689,30.42 80.032,30.42 C 80.44,30.42 80.796,30.246 81.084,29.892 C 81.372,29.538 81.52,29.113 81.52,28.613 C 81.52,28.253 81.442,27.954 81.276,27.742 C 81.113,27.517 80.9,27.4 80.642,27.4 C 80.313,27.4 79.957,27.59 79.571,27.954 L 79.163,30.001 z "
   id="path95" />
				<path
   style="fill:#bbb"
   d="M 84.865,29.528 C 84.939,29.707 84.983,29.882 84.983,30.042 C 84.983,30.41 84.829,30.723 84.533,30.981 C 84.234,31.247 83.881,31.382 83.485,31.382 C 83.25,31.382 83.044,31.312 82.878,31.195 C 82.713,31.075 82.634,30.926 82.634,30.755 C 82.634,30.569 82.745,30.38 82.97,30.205 C 83.2,30.013 83.581,29.797 84.115,29.527 L 83.835,29.072 C 83.493,28.522 83.322,28.085 83.322,27.779 C 83.322,27.331 83.578,26.967 84.097,26.698 C 84.415,26.821 84.576,26.97 84.576,27.16 C 84.576,27.422 84.371,27.684 83.971,27.921 L 84.367,28.661 L 84.679,29.233 C 85.123,28.963 85.462,28.73 85.683,28.541 C 85.908,28.352 86.202,28.053 86.547,27.663 L 86.824,27.834 C 86.328,28.505 85.68,29.073 84.865,29.528 z M 84.263,29.849 C 83.581,30.221 83.243,30.512 83.243,30.709 C 83.243,30.906 83.381,31 83.66,31 C 83.862,31 84.033,30.923 84.158,30.781 C 84.284,30.639 84.356,30.46 84.356,30.246 C 84.346,30.114 84.321,29.983 84.263,29.849 z "
   id="path104" />
				<path
   style="fill:#bbb"
   d="M 89.034,28.588 C 88.71,29.262 88.353,29.808 87.956,30.224 C 87.557,30.64 87.203,30.85 86.886,30.85 C 86.634,30.85 86.421,30.766 86.26,30.584 C 86.099,30.402 86.025,30.169 86.025,29.881 C 86.025,29.505 86.149,28.832 86.4,27.833 C 86.466,27.564 86.495,27.396 86.495,27.316 C 86.495,27.243 86.474,27.167 86.419,27.09 L 86.912,27.086 C 87.125,27.086 87.23,27.163 87.23,27.327 C 87.23,27.418 87.157,27.709 87.024,28.191 C 86.976,28.329 86.948,28.431 86.941,28.485 L 86.883,28.711 C 86.786,29.133 86.734,29.465 86.734,29.694 C 86.734,30.044 86.847,30.215 87.088,30.215 C 87.481,30.215 87.974,29.731 88.576,28.765 C 89.069,27.972 89.311,27.414 89.311,27.075 C 89.311,27.02 89.296,26.984 89.268,26.937 C 89.457,26.879 89.623,26.857 89.754,26.857 C 89.963,26.857 90.065,26.926 90.065,27.054 C 90.065,27.083 90.05,27.131 90.037,27.185 C 90.02,27.225 90.006,27.302 89.964,27.44 C 89.961,27.462 89.935,27.556 89.888,27.72 C 89.867,27.829 89.838,27.931 89.822,27.993 L 89.789,28.164 C 89.713,28.543 89.673,28.911 89.673,29.249 C 89.673,29.77 89.796,30.025 90.045,30.025 C 90.593,30.025 91.29,29.249 92.127,27.704 L 92.431,27.875 C 91.466,29.733 90.588,30.662 89.801,30.662 C 89.275,30.662 88.996,30.192 88.996,29.26 C 89.006,29.076 89.02,28.858 89.034,28.588 z "
   id="path113" />
				<path
   style="fill:#bbb"
   d="M 92.634,29.524 C 93.473,27.743 94.22,26.851 94.867,26.851 C 95.142,26.851 95.292,27.059 95.292,27.466 C 95.292,27.648 95.226,28.039 95.102,28.657 L 94.891,29.725 C 95.294,28.865 95.716,28.162 96.162,27.648 C 96.612,27.116 96.987,26.851 97.311,26.851 C 97.667,26.851 97.84,27.065 97.84,27.48 C 97.84,27.629 97.788,27.976 97.686,28.512 L 97.575,29.061 C 97.511,29.39 97.485,29.634 97.485,29.79 C 97.485,30.074 97.585,30.212 97.781,30.212 C 98.229,30.212 98.92,29.378 99.844,27.706 L 100.143,27.87 C 99.135,29.863 98.248,30.85 97.49,30.85 C 97.006,30.85 96.771,30.537 96.771,29.899 C 96.771,29.68 96.814,29.352 96.904,28.879 L 96.999,28.383 C 97.065,28.06 97.092,27.851 97.092,27.778 C 97.092,27.676 97.037,27.621 96.938,27.621 C 96.686,27.621 96.234,28.132 95.579,29.137 C 94.996,30.054 94.7,30.579 94.7,30.721 C 94.7,30.732 94.7,30.758 94.714,30.794 C 94.679,30.801 94.624,30.815 94.539,30.849 C 94.503,30.856 94.455,30.863 94.382,30.863 C 94.159,30.863 94.053,30.761 94.053,30.55 C 94.053,30.481 94.088,30.299 94.157,29.978 C 94.185,29.862 94.214,29.741 94.232,29.599 L 94.379,28.852 C 94.487,28.32 94.54,27.999 94.54,27.879 C 94.54,27.722 94.487,27.653 94.372,27.653 C 94.125,27.653 93.748,28.109 93.255,29.02 C 92.764,29.923 92.523,30.462 92.523,30.626 C 92.523,30.684 92.537,30.724 92.577,30.768 C 92.461,30.826 92.343,30.848 92.226,30.848 C 91.987,30.848 91.856,30.723 91.856,30.458 C 91.856,30.425 91.896,30.079 91.967,29.435 L 92.043,28.688 C 92.069,28.43 92.083,28.178 92.083,27.96 C 92.083,27.682 92.026,27.464 91.917,27.336 C 92.183,27.245 92.377,27.19 92.486,27.19 C 92.695,27.19 92.797,27.314 92.797,27.558 C 92.797,27.646 92.764,27.967 92.717,28.531 L 92.634,29.524 z "
   id="path122" />
				<path
   style="fill:#bbb"
   d="M 50.744,41.086 C 50.382,41.753 50,42.274 49.6,42.664 C 49.2,43.047 48.847,43.244 48.533,43.244 C 48.282,43.244 48.083,43.138 47.935,42.909 C 47.79,42.691 47.715,42.392 47.715,42.032 C 47.715,41.284 47.935,40.633 48.373,40.075 C 48.816,39.525 49.326,39.241 49.91,39.241 C 50.256,39.241 50.639,39.351 51.045,39.576 L 51.423,37.678 C 51.221,37.718 51.049,37.736 50.91,37.736 C 50.705,37.736 50.555,37.685 50.46,37.59 C 50.363,37.495 50.285,37.313 50.227,37.047 C 50.392,37.157 50.653,37.223 51.001,37.223 C 51.438,37.223 51.855,37.146 52.259,36.982 L 51.492,40.847 C 51.405,41.28 51.361,41.648 51.361,41.961 C 51.361,42.355 51.477,42.565 51.704,42.565 C 51.928,42.565 52.303,42.303 52.822,41.768 C 53.343,41.236 53.779,40.682 54.129,40.103 L 54.413,40.289 C 54,41.058 53.476,41.736 52.857,42.344 C 52.234,42.948 51.736,43.255 51.366,43.255 C 50.896,43.255 50.659,42.876 50.659,42.119 C 50.654,41.779 50.688,41.447 50.744,41.086 z M 50.93,40.154 C 50.444,39.83 50.039,39.666 49.718,39.666 C 49.365,39.666 49.063,39.885 48.808,40.318 C 48.551,40.747 48.421,41.262 48.421,41.852 C 48.421,42.326 48.576,42.561 48.883,42.561 C 49.218,42.561 49.856,41.825 50.805,40.351 C 50.818,40.325 50.861,40.256 50.93,40.154 z "
   id="path131" />
				<path
   style="fill:#bbb"
   d="M 57.199,40.548 C 57.204,40.613 57.211,40.654 57.211,40.704 C 57.211,41.385 56.979,41.975 56.523,42.471 C 56.064,42.989 55.528,43.232 54.912,43.232 C 54.447,43.232 54.061,43.079 53.766,42.777 C 53.469,42.474 53.323,42.092 53.323,41.614 C 53.323,41.064 53.514,40.59 53.899,40.183 C 54.278,39.786 54.731,39.579 55.251,39.579 C 55.329,39.579 55.412,39.586 55.503,39.612 C 55.442,39.51 55.417,39.415 55.417,39.346 C 55.417,39.233 55.453,39.12 55.528,39.021 C 56.097,39.068 56.574,39.36 56.951,39.9 C 57.342,40.162 57.744,40.296 58.167,40.296 C 58.44,40.296 58.732,40.209 59.057,40.012 L 59.231,40.318 C 58.858,40.569 58.477,40.704 58.087,40.704 C 57.823,40.719 57.526,40.665 57.199,40.548 z M 56.407,40.249 C 56.208,40.187 56.032,40.1 55.866,39.972 C 55.748,39.943 55.649,39.931 55.57,39.925 C 55.174,39.932 54.821,40.108 54.517,40.464 C 54.216,40.821 54.06,41.236 54.06,41.695 C 54.06,42.03 54.154,42.303 54.337,42.526 C 54.521,42.741 54.763,42.847 55.05,42.847 C 55.444,42.847 55.783,42.643 56.068,42.242 C 56.352,41.853 56.493,41.371 56.497,40.81 C 56.493,40.624 56.464,40.435 56.407,40.249 z "
   id="path140" />
				<path
   style="fill:#bbb"
   d="M 62.144,40.281 C 61.658,41.202 61.171,41.921 60.686,42.452 C 60.199,42.984 59.762,43.243 59.387,43.243 C 59.116,43.243 58.898,43.145 58.728,42.922 C 58.562,42.703 58.476,42.43 58.476,42.088 C 58.476,41.891 58.511,41.625 58.578,41.261 L 59.276,37.726 C 59.182,37.745 59.106,37.748 59.038,37.748 C 58.502,37.748 58.234,37.523 58.234,37.063 L 58.234,36.986 C 58.516,37.147 58.829,37.227 59.182,37.227 C 59.535,37.227 59.846,37.14 60.108,36.961 L 59.294,41.209 C 59.219,41.588 59.186,41.858 59.186,42.004 C 59.186,42.4 59.331,42.601 59.622,42.601 C 59.904,42.601 60.184,42.437 60.467,42.121 C 60.751,41.804 61.216,41.122 61.862,40.074 L 62.144,40.281 z "
   id="path149" />
				<path
   style="fill:#bbb"
   d="M 64.93,40.548 C 64.937,40.613 64.937,40.654 64.937,40.704 C 64.937,41.385 64.709,41.975 64.249,42.471 C 63.792,42.989 63.258,43.232 62.642,43.232 C 62.172,43.232 61.79,43.079 61.492,42.777 C 61.197,42.474 61.049,42.092 61.049,41.614 C 61.049,41.064 61.243,40.59 61.623,40.183 C 62.005,39.786 62.457,39.579 62.977,39.579 C 63.057,39.579 63.143,39.586 63.23,39.612 C 63.171,39.51 63.143,39.411 63.143,39.346 C 63.143,39.233 63.179,39.12 63.259,39.021 C 63.828,39.068 64.3,39.36 64.677,39.9 C 65.069,40.162 65.472,40.296 65.894,40.296 C 66.171,40.296 66.465,40.209 66.783,40.012 L 66.96,40.318 C 66.585,40.569 66.21,40.704 65.814,40.704 C 65.554,40.719 65.261,40.665 64.93,40.548 z M 64.133,40.249 C 63.943,40.187 63.759,40.1 63.6,39.972 C 63.481,39.943 63.384,39.931 63.301,39.925 C 62.907,39.932 62.555,40.108 62.248,40.464 C 61.942,40.821 61.79,41.233 61.79,41.692 C 61.79,42.024 61.88,42.3 62.067,42.519 C 62.253,42.737 62.489,42.84 62.781,42.84 C 63.175,42.84 63.512,42.636 63.799,42.242 C 64.083,41.848 64.223,41.367 64.223,40.807 C 64.223,40.624 64.194,40.435 64.133,40.249 z "
   id="path158" />
				<path
   style="fill:#bbb"
   d="M 66.839,43.13 C 66.681,43.203 66.552,43.236 66.457,43.236 C 66.22,43.236 66.102,43.137 66.102,42.919 C 66.102,42.813 66.144,42.54 66.227,42.106 L 66.404,41.229 C 66.512,40.704 66.567,40.318 66.567,40.067 C 66.567,39.932 66.526,39.826 66.451,39.724 C 66.699,39.644 66.901,39.597 67.053,39.597 C 67.219,39.597 67.302,39.699 67.302,39.917 C 67.302,40.041 67.24,40.387 67.122,40.93 L 66.915,41.957 C 67.359,41.094 67.803,40.42 68.249,39.942 C 68.7,39.454 69.103,39.224 69.467,39.224 C 69.598,39.224 69.709,39.265 69.803,39.337 C 69.892,39.41 69.944,39.501 69.944,39.596 C 69.944,39.767 69.764,39.974 69.411,40.263 C 69.321,40.066 69.195,39.982 69.031,39.982 C 68.737,39.982 68.355,40.302 67.897,40.936 C 67.612,41.33 67.364,41.745 67.154,42.161 C 66.942,42.58 66.838,42.878 66.838,43.06 L 66.839,43.13 z "
   id="path167" />
				<path
   style="fill:#bbb"
   d="M 74.378,41.914 C 74.453,42.092 74.498,42.267 74.498,42.427 C 74.498,42.788 74.346,43.105 74.047,43.367 C 73.747,43.633 73.402,43.764 72.998,43.764 C 72.76,43.764 72.561,43.695 72.395,43.575 C 72.23,43.459 72.147,43.309 72.147,43.138 C 72.147,42.949 72.259,42.763 72.489,42.588 C 72.717,42.399 73.095,42.181 73.628,41.915 L 73.348,41.459 C 73.009,40.909 72.836,40.472 72.836,40.166 C 72.836,39.718 73.092,39.354 73.611,39.084 C 73.927,39.204 74.087,39.361 74.087,39.546 C 74.087,39.809 73.884,40.067 73.484,40.307 L 73.883,41.046 L 74.19,41.614 C 74.641,41.348 74.976,41.112 75.202,40.926 C 75.428,40.737 75.719,40.438 76.065,40.041 L 76.346,40.216 C 75.845,40.883 75.186,41.458 74.378,41.914 z M 73.784,42.227 C 73.096,42.602 72.758,42.89 72.758,43.094 C 72.758,43.29 72.893,43.382 73.17,43.382 C 73.376,43.382 73.546,43.305 73.668,43.171 C 73.798,43.033 73.86,42.851 73.86,42.632 C 73.862,42.5 73.834,42.369 73.784,42.227 z "
   id="path176" />
				<path
   style="fill:#bbb"
   d="M 79.527,40.264 C 79.001,41.196 78.465,41.921 77.926,42.453 C 77.39,42.981 76.901,43.244 76.47,43.244 C 76.209,43.244 75.998,43.16 75.84,42.989 C 75.683,42.814 75.599,42.595 75.599,42.304 C 75.599,42.202 75.62,42.031 75.671,41.794 L 75.746,41.411 C 75.861,40.861 75.92,40.457 75.92,40.239 C 75.92,40.108 75.876,39.998 75.801,39.907 C 76.104,39.834 76.294,39.809 76.374,39.809 C 76.546,39.809 76.637,39.925 76.637,40.176 C 76.637,40.363 76.601,40.617 76.532,40.956 L 76.392,41.641 C 76.328,41.98 76.29,42.184 76.29,42.294 C 76.29,42.585 76.413,42.731 76.658,42.731 C 76.95,42.731 77.34,42.484 77.828,41.988 C 78.319,41.492 78.784,40.866 79.242,40.104 L 79.527,40.264 z M 76.407,38.486 L 76.457,38.489 C 76.613,38.482 76.838,38.409 77.13,38.253 C 77.424,38.103 77.654,37.954 77.82,37.797 C 77.719,38.122 77.53,38.384 77.274,38.613 C 76.876,38.948 76.605,39.116 76.463,39.116 C 76.37,39.116 76.32,39.054 76.32,38.941 C 76.324,38.766 76.354,38.621 76.407,38.486 z "
   id="path185" />
				<path
   style="fill:#bbb"
   d="M 81.206,41.765 C 81.272,41.871 81.298,41.979 81.298,42.064 C 81.298,42.29 81.106,42.548 80.713,42.825 C 80.331,43.098 79.982,43.237 79.665,43.237 C 79.384,43.237 79.152,43.112 78.979,42.857 C 78.799,42.61 78.713,42.286 78.713,41.881 C 78.713,41.432 78.824,40.806 79.062,39.986 L 79.216,39.396 L 78.625,39.396 C 78.381,39.396 78.182,39.433 78.042,39.502 C 78.175,39.258 78.28,39.101 78.369,39.039 C 78.457,38.967 78.603,38.944 78.821,38.944 L 79.345,38.944 L 79.421,38.7 C 79.519,38.332 79.652,38.088 79.801,37.945 C 79.955,37.821 80.178,37.741 80.478,37.741 C 80.51,37.741 80.565,37.744 80.65,37.748 C 80.461,37.985 80.275,38.387 80.079,38.943 L 81.926,38.943 C 82.266,38.943 82.51,38.9 82.673,38.816 C 82.618,39.052 82.548,39.209 82.449,39.29 C 82.36,39.366 82.168,39.395 81.908,39.395 L 79.934,39.395 C 79.908,39.471 79.898,39.529 79.879,39.566 C 79.594,40.546 79.449,41.274 79.449,41.766 C 79.449,42.309 79.648,42.593 80.033,42.593 C 80.239,42.593 80.463,42.513 80.697,42.338 C 80.94,42.177 81.105,41.979 81.206,41.765 z "
   id="path194" />
				<path
   style="fill:#bbb"
   d="M 87.146,41 C 86.847,41.63 86.476,42.147 86.033,42.596 C 85.594,43.033 85.211,43.255 84.887,43.255 C 84.645,43.255 84.444,43.153 84.296,42.917 C 84.151,42.691 84.072,42.399 84.072,42.032 C 84.072,41.299 84.296,40.647 84.746,40.09 C 85.188,39.532 85.701,39.256 86.291,39.256 C 86.645,39.256 87.023,39.368 87.434,39.587 C 87.496,39.368 87.742,39.259 88.173,39.259 C 88.212,39.259 88.249,39.259 88.311,39.259 C 88.177,39.47 88.079,39.751 88.002,40.1 L 87.941,40.395 C 87.874,40.741 87.845,41.12 87.845,41.568 C 87.845,42.086 87.962,42.34 88.211,42.34 C 88.453,42.34 88.798,42.128 89.239,41.699 C 89.676,41.28 90.104,40.733 90.524,40.081 L 90.799,40.278 C 90.362,41.061 89.876,41.703 89.315,42.216 C 88.762,42.737 88.283,42.996 87.887,42.996 C 87.378,42.996 87.125,42.573 87.125,41.714 C 87.12,41.535 87.131,41.297 87.146,41 z M 87.312,40.154 C 86.817,39.83 86.411,39.666 86.079,39.666 C 85.729,39.666 85.416,39.885 85.16,40.314 C 84.904,40.747 84.777,41.257 84.777,41.852 C 84.777,42.326 84.932,42.561 85.242,42.561 C 85.579,42.561 86.219,41.825 87.163,40.351 C 87.177,40.333 87.229,40.264 87.312,40.154 z "
   id="path203" />
				<path
   style="fill:#bbb"
   d="M 90.983,41.914 C 91.82,40.128 92.574,39.236 93.221,39.236 C 93.503,39.236 93.636,39.444 93.636,39.851 C 93.636,40.026 93.576,40.42 93.45,41.042 L 93.234,42.11 C 93.64,41.247 94.067,40.548 94.51,40.023 C 94.953,39.499 95.335,39.236 95.656,39.236 C 96.009,39.236 96.182,39.447 96.182,39.866 C 96.182,40.015 96.132,40.362 96.028,40.896 L 95.924,41.439 C 95.853,41.771 95.826,42.015 95.826,42.172 C 95.826,42.456 95.924,42.598 96.125,42.598 C 96.576,42.598 97.261,41.764 98.19,40.092 L 98.482,40.256 C 97.476,42.249 96.585,43.236 95.834,43.236 C 95.348,43.236 95.108,42.919 95.108,42.281 C 95.108,42.07 95.16,41.731 95.246,41.261 L 95.341,40.772 C 95.404,40.444 95.431,40.24 95.431,40.156 C 95.431,40.058 95.379,40.007 95.275,40.007 C 95.028,40.007 94.573,40.513 93.925,41.522 C 93.325,42.437 93.035,42.965 93.035,43.104 C 93.035,43.118 93.035,43.145 93.043,43.181 C 93.015,43.184 92.965,43.199 92.874,43.224 C 92.839,43.236 92.791,43.243 92.721,43.243 C 92.5,43.243 92.389,43.141 92.389,42.93 C 92.389,42.86 92.431,42.678 92.495,42.354 C 92.525,42.245 92.552,42.125 92.573,41.983 L 92.727,41.235 C 92.835,40.703 92.888,40.376 92.888,40.266 C 92.888,40.102 92.831,40.03 92.72,40.03 C 92.458,40.03 92.091,40.485 91.603,41.396 C 91.115,42.299 90.868,42.839 90.868,43.01 C 90.868,43.061 90.885,43.101 90.925,43.149 C 90.8,43.214 90.681,43.232 90.568,43.232 C 90.328,43.232 90.198,43.101 90.198,42.842 C 90.198,42.809 90.238,42.464 90.302,41.819 L 90.377,41.068 C 90.406,40.806 90.418,40.558 90.418,40.34 C 90.418,40.063 90.363,39.848 90.247,39.72 C 90.522,39.621 90.717,39.571 90.828,39.571 C 91.034,39.571 91.132,39.695 91.132,39.946 C 91.132,40.023 91.108,40.351 91.056,40.915 L 90.983,41.914 z "
   id="path212" />
				<path
   style="fill:#bbb"
   d="M 98.241,41.681 C 98.241,42.369 98.535,42.715 99.116,42.715 C 99.622,42.715 100.169,42.475 100.776,41.994 C 101.38,41.513 101.928,40.875 102.41,40.089 L 102.707,40.264 C 102.249,41.117 101.658,41.838 100.924,42.399 C 100.191,42.963 99.498,43.244 98.844,43.244 C 98.417,43.244 98.087,43.105 97.841,42.84 C 97.607,42.566 97.474,42.184 97.474,41.711 C 97.474,41.026 97.697,40.442 98.145,39.966 C 98.588,39.47 99.122,39.237 99.741,39.237 C 100.045,39.237 100.282,39.314 100.469,39.463 C 100.65,39.612 100.733,39.823 100.733,40.075 C 100.733,40.491 100.489,40.869 99.981,41.2 C 99.481,41.52 98.898,41.681 98.241,41.681 z M 98.277,41.338 C 98.763,41.316 99.177,41.181 99.539,40.92 C 99.888,40.665 100.065,40.373 100.065,40.031 C 100.065,39.732 99.927,39.583 99.669,39.583 C 99.344,39.583 99.055,39.754 98.789,40.1 C 98.507,40.438 98.344,40.854 98.277,41.338 z "
   id="path221" />
				<path
   style="fill:#bbb"
   d="M 104.383,41.765 C 104.449,41.871 104.476,41.979 104.476,42.064 C 104.476,42.29 104.284,42.548 103.895,42.825 C 103.513,43.098 103.16,43.237 102.847,43.237 C 102.567,43.237 102.334,43.112 102.159,42.857 C 101.981,42.61 101.895,42.286 101.895,41.881 C 101.895,41.432 102.006,40.806 102.234,39.986 L 102.4,39.396 L 101.815,39.396 C 101.575,39.396 101.374,39.433 101.229,39.502 C 101.359,39.258 101.473,39.101 101.561,39.039 C 101.646,38.967 101.793,38.944 102.011,38.944 L 102.532,38.944 L 102.608,38.7 C 102.719,38.332 102.845,38.088 102.99,37.945 C 103.151,37.821 103.367,37.741 103.668,37.741 C 103.706,37.741 103.761,37.744 103.842,37.748 C 103.656,37.985 103.465,38.387 103.273,38.943 L 105.127,38.943 C 105.456,38.943 105.7,38.9 105.874,38.816 C 105.805,39.052 105.736,39.209 105.639,39.29 C 105.542,39.37 105.365,39.395 105.101,39.395 L 103.128,39.395 C 103.107,39.471 103.083,39.529 103.075,39.566 C 102.789,40.546 102.646,41.274 102.646,41.766 C 102.646,42.309 102.845,42.593 103.232,42.593 C 103.436,42.593 103.649,42.513 103.893,42.338 C 104.115,42.177 104.288,41.979 104.383,41.765 z "
   id="path230" />
				<path
   style="fill:#bbb"
   d="M 104.632,43.892 C 104.706,43.907 104.773,43.914 104.822,43.914 C 104.99,43.914 105.133,43.837 105.246,43.692 C 105.369,43.553 105.424,43.379 105.424,43.182 C 105.424,42.883 105.279,42.643 104.99,42.435 C 105.229,42.267 105.452,42.188 105.654,42.188 C 105.979,42.188 106.14,42.377 106.14,42.749 C 106.14,43.12 106.014,43.452 105.763,43.772 C 105.501,44.096 105.229,44.252 104.938,44.252 C 104.758,44.263 104.663,44.14 104.632,43.892 z "
   id="path239" />
				<path
   style="fill:#bbb"
   d="M 52.854,52.657 C 52.284,53.618 51.69,54.373 51.052,54.915 C 50.421,55.461 49.834,55.746 49.289,55.746 C 48.84,55.746 48.471,55.589 48.191,55.283 C 47.908,54.969 47.773,54.565 47.773,54.066 C 47.773,53.407 48.017,52.839 48.496,52.351 C 48.98,51.862 49.55,51.622 50.201,51.622 C 50.467,51.622 50.683,51.676 50.849,51.782 C 51.019,51.873 51.105,52.009 51.105,52.165 C 51.105,52.424 50.885,52.617 50.458,52.748 C 50.479,52.693 50.49,52.639 50.49,52.584 C 50.49,52.206 50.287,52.012 49.884,52.012 C 49.535,52.012 49.211,52.213 48.919,52.602 C 48.623,52.981 48.478,53.422 48.478,53.892 C 48.478,54.271 48.577,54.577 48.771,54.821 C 48.969,55.054 49.221,55.182 49.536,55.182 C 50.397,55.182 51.406,54.286 52.559,52.491 L 52.854,52.657 z "
   id="path248" />
				<path
   style="fill:#bbb"
   d="M 55.636,52.941 C 55.643,52.999 55.647,53.042 55.647,53.09 C 55.647,53.775 55.42,54.364 54.961,54.867 C 54.504,55.37 53.967,55.625 53.348,55.625 C 52.879,55.625 52.497,55.472 52.202,55.169 C 51.907,54.87 51.759,54.477 51.759,54 C 51.759,53.454 51.95,52.98 52.332,52.572 C 52.712,52.172 53.165,51.97 53.684,51.97 C 53.76,51.97 53.845,51.982 53.933,52 C 53.874,51.897 53.845,51.803 53.845,51.734 C 53.845,51.621 53.886,51.508 53.964,51.409 C 54.53,51.456 55.006,51.748 55.389,52.287 C 55.773,52.55 56.181,52.68 56.603,52.68 C 56.874,52.68 57.172,52.597 57.49,52.408 L 57.666,52.707 C 57.291,52.958 56.913,53.093 56.52,53.093 C 56.263,53.105 55.968,53.042 55.636,52.941 z M 54.843,52.639 C 54.648,52.577 54.468,52.486 54.309,52.362 C 54.188,52.333 54.091,52.322 54.015,52.319 C 53.614,52.322 53.266,52.502 52.959,52.858 C 52.656,53.219 52.5,53.627 52.497,54.082 C 52.497,54.421 52.59,54.694 52.778,54.909 C 52.965,55.127 53.199,55.233 53.49,55.233 C 53.885,55.233 54.225,55.025 54.508,54.632 C 54.793,54.238 54.933,53.761 54.933,53.2 C 54.933,53.007 54.904,52.824 54.843,52.639 z "
   id="path257" />
				<path
   style="fill:#bbb"
   d="M 57.856,54.263 C 58.683,52.501 59.432,51.607 60.1,51.607 C 60.619,51.607 60.874,52.131 60.874,53.163 L 60.881,53.585 C 60.881,54.081 60.907,54.419 60.957,54.606 C 61.008,54.795 61.102,54.89 61.234,54.89 C 61.433,54.89 61.663,54.729 61.915,54.405 C 62.176,54.089 62.593,53.436 63.169,52.475 L 63.466,52.651 C 62.946,53.634 62.488,54.347 62.081,54.829 C 61.674,55.299 61.307,55.529 60.985,55.529 C 60.691,55.529 60.481,55.383 60.359,55.095 C 60.241,54.815 60.178,54.305 60.178,53.594 L 60.178,53.3 C 60.178,52.917 60.153,52.637 60.103,52.481 C 60.053,52.324 59.965,52.255 59.846,52.255 C 59.537,52.255 59.035,52.874 58.348,54.112 C 58.182,54.414 58.071,54.608 58.02,54.695 C 57.839,55.012 57.75,55.228 57.75,55.376 C 57.75,55.442 57.764,55.489 57.793,55.544 C 57.66,55.606 57.547,55.627 57.45,55.627 C 57.217,55.627 57.097,55.492 57.097,55.233 C 57.097,55.156 57.125,54.829 57.19,54.224 L 57.266,53.455 C 57.301,53.131 57.323,52.879 57.323,52.701 C 57.323,52.461 57.266,52.253 57.154,52.118 C 57.204,52.097 57.284,52.064 57.399,52.035 C 57.546,51.976 57.662,51.958 57.745,51.958 C 57.93,51.958 58.019,52.093 58.019,52.353 C 58.019,52.491 58.004,52.731 57.965,53.077 C 57.958,53.154 57.953,53.223 57.945,53.292 L 57.856,54.263 z "
   id="path266" />
				<path
   style="fill:#bbb"
   d="M 64.569,54.3 C 64.647,54.479 64.691,54.653 64.691,54.81 C 64.691,55.177 64.541,55.491 64.242,55.761 C 63.942,56.019 63.589,56.155 63.189,56.155 C 62.954,56.155 62.748,56.089 62.586,55.965 C 62.42,55.845 62.337,55.699 62.337,55.525 C 62.337,55.343 62.448,55.156 62.68,54.978 C 62.911,54.792 63.288,54.566 63.82,54.301 L 63.538,53.842 C 63.196,53.288 63.025,52.859 63.025,52.553 C 63.025,52.105 63.286,51.741 63.8,51.474 C 64.118,51.591 64.277,51.744 64.277,51.929 C 64.277,52.196 64.076,52.458 63.675,52.694 L 64.071,53.43 L 64.384,54.002 C 64.832,53.736 65.166,53.503 65.394,53.314 C 65.624,53.124 65.914,52.825 66.254,52.436 L 66.536,52.607 C 66.035,53.28 65.38,53.84 64.569,54.3 z M 63.974,54.617 C 63.294,54.992 62.948,55.284 62.948,55.48 C 62.948,55.673 63.088,55.772 63.363,55.772 C 63.572,55.772 63.733,55.696 63.863,55.557 C 63.989,55.414 64.054,55.229 64.054,55.017 C 64.057,54.882 64.028,54.755 63.974,54.617 z "
   id="path275" />
				<path
   style="fill:#bbb"
   d="M 66.281,54.066 C 66.281,54.751 66.573,55.093 67.149,55.093 C 67.649,55.093 68.204,54.86 68.81,54.372 C 69.411,53.883 69.958,53.249 70.443,52.47 L 70.742,52.637 C 70.284,53.5 69.69,54.214 68.959,54.779 C 68.224,55.343 67.531,55.624 66.872,55.624 C 66.45,55.624 66.118,55.485 65.877,55.212 C 65.632,54.942 65.506,54.567 65.506,54.093 C 65.506,53.409 65.729,52.822 66.172,52.345 C 66.619,51.856 67.15,51.619 67.776,51.619 C 68.075,51.619 68.313,51.696 68.496,51.845 C 68.677,51.998 68.767,52.202 68.767,52.461 C 68.767,52.879 68.518,53.255 68.018,53.583 C 67.517,53.903 66.936,54.066 66.281,54.066 z M 66.31,53.728 C 66.8,53.706 67.218,53.564 67.567,53.313 C 67.919,53.058 68.093,52.766 68.093,52.424 C 68.093,52.125 67.96,51.976 67.697,51.976 C 67.379,51.976 67.088,52.147 66.814,52.49 C 66.54,52.824 66.379,53.24 66.31,53.728 z "
   id="path284" />
				<path
   style="fill:#bbb"
   d="M 74.839,52.657 C 74.273,53.618 73.675,54.373 73.037,54.915 C 72.404,55.461 71.819,55.746 71.275,55.746 C 70.825,55.746 70.457,55.589 70.179,55.283 C 69.895,54.969 69.757,54.565 69.757,54.066 C 69.757,53.407 69.999,52.839 70.483,52.351 C 70.964,51.862 71.534,51.622 72.187,51.622 C 72.45,51.622 72.666,51.676 72.835,51.782 C 73.004,51.873 73.091,52.009 73.091,52.165 C 73.091,52.424 72.87,52.617 72.439,52.748 C 72.46,52.693 72.475,52.639 72.475,52.584 C 72.475,52.206 72.27,52.012 71.87,52.012 C 71.519,52.012 71.199,52.213 70.9,52.602 C 70.609,52.981 70.461,53.422 70.461,53.892 C 70.461,54.271 70.56,54.577 70.754,54.821 C 70.948,55.058 71.204,55.182 71.513,55.182 C 72.374,55.182 73.384,54.286 74.536,52.491 L 74.839,52.657 z "
   id="path293" />
				<path
   style="fill:#bbb"
   d="M 76.522,54.147 C 76.586,54.26 76.615,54.365 76.615,54.449 C 76.615,54.675 76.421,54.933 76.037,55.206 C 75.65,55.483 75.297,55.625 74.979,55.625 C 74.699,55.625 74.471,55.494 74.298,55.246 C 74.122,54.995 74.031,54.674 74.031,54.266 C 74.031,53.826 74.145,53.195 74.374,52.372 L 74.532,51.786 L 73.944,51.786 C 73.7,51.786 73.506,51.822 73.353,51.884 C 73.49,51.644 73.602,51.487 73.688,51.422 C 73.776,51.356 73.926,51.331 74.136,51.331 L 74.662,51.331 L 74.736,51.091 C 74.844,50.727 74.969,50.475 75.122,50.341 C 75.273,50.207 75.497,50.137 75.8,50.137 C 75.836,50.137 75.889,50.137 75.966,50.137 C 75.786,50.37 75.59,50.778 75.398,51.331 L 77.249,51.331 C 77.577,51.331 77.821,51.284 77.992,51.207 C 77.932,51.441 77.859,51.597 77.761,51.673 C 77.662,51.75 77.48,51.786 77.217,51.786 L 75.246,51.786 C 75.225,51.862 75.206,51.917 75.194,51.957 C 74.911,52.934 74.767,53.665 74.767,54.158 C 74.767,54.704 74.963,54.989 75.352,54.989 C 75.555,54.989 75.775,54.906 76.009,54.73 C 76.248,54.558 76.421,54.358 76.522,54.147 z "
   id="path302" />
				<path
   style="fill:#bbb"
   d="M 77.737,54.066 C 77.737,54.751 78.028,55.093 78.604,55.093 C 79.106,55.093 79.661,54.86 80.265,54.372 C 80.871,53.883 81.411,53.249 81.905,52.47 L 82.201,52.637 C 81.744,53.5 81.144,54.214 80.414,54.779 C 79.676,55.343 78.986,55.624 78.331,55.624 C 77.91,55.624 77.583,55.485 77.336,55.212 C 77.092,54.942 76.973,54.567 76.973,54.093 C 76.973,53.409 77.193,52.822 77.635,52.345 C 78.078,51.856 78.613,51.619 79.234,51.619 C 79.535,51.619 79.777,51.696 79.958,51.845 C 80.141,51.998 80.228,52.202 80.228,52.461 C 80.228,52.879 79.972,53.255 79.472,53.583 C 78.978,53.903 78.396,54.066 77.737,54.066 z M 77.766,53.728 C 78.252,53.706 78.676,53.564 79.023,53.313 C 79.374,53.058 79.549,52.766 79.549,52.424 C 79.549,52.125 79.409,51.976 79.153,51.976 C 78.83,51.976 78.542,52.147 78.267,52.49 C 78,52.824 77.829,53.24 77.766,53.728 z "
   id="path311" />
				<path
   style="fill:#bbb"
   d="M 83.884,54.147 C 83.95,54.26 83.967,54.365 83.967,54.449 C 83.967,54.675 83.774,54.933 83.388,55.206 C 83.012,55.483 82.653,55.625 82.335,55.625 C 82.053,55.625 81.823,55.494 81.653,55.246 C 81.469,54.995 81.393,54.674 81.393,54.266 C 81.393,53.826 81.497,53.195 81.737,52.372 L 81.891,51.786 L 81.304,51.786 C 81.059,51.786 80.86,51.822 80.719,51.884 C 80.852,51.644 80.956,51.487 81.051,51.422 C 81.137,51.356 81.286,51.331 81.502,51.331 L 82.028,51.331 L 82.103,51.091 C 82.207,50.727 82.34,50.475 82.485,50.341 C 82.637,50.207 82.86,50.137 83.161,50.137 C 83.199,50.137 83.246,50.137 83.332,50.137 C 83.147,50.37 82.958,50.778 82.764,51.331 L 84.622,51.331 C 84.946,51.331 85.191,51.284 85.359,51.207 C 85.302,51.441 85.226,51.597 85.134,51.673 C 85.039,51.75 84.853,51.786 84.593,51.786 L 82.622,51.786 C 82.592,51.862 82.577,51.917 82.567,51.957 C 82.283,52.934 82.134,53.665 82.134,54.158 C 82.134,54.704 82.332,54.989 82.721,54.989 C 82.927,54.989 83.143,54.906 83.388,54.73 C 83.599,54.558 83.773,54.358 83.884,54.147 z "
   id="path320" />
				<path
   style="fill:#bbb"
   d="M 87.552,53.356 C 87.232,54.033 86.875,54.576 86.48,54.991 C 86.08,55.407 85.726,55.625 85.402,55.625 C 85.154,55.625 84.944,55.534 84.783,55.351 C 84.621,55.169 84.549,54.943 84.549,54.652 C 84.549,54.273 84.671,53.603 84.92,52.605 C 84.992,52.336 85.025,52.168 85.025,52.092 C 85.025,52.019 84.999,51.95 84.951,51.866 L 85.446,51.866 C 85.658,51.866 85.758,51.942 85.758,52.107 C 85.758,52.198 85.684,52.486 85.551,52.97 C 85.505,53.109 85.477,53.21 85.47,53.269 L 85.416,53.487 C 85.311,53.913 85.261,54.241 85.261,54.471 C 85.261,54.824 85.373,55.002 85.617,55.002 C 86.007,55.002 86.505,54.507 87.109,53.545 C 87.596,52.751 87.84,52.191 87.84,51.855 C 87.84,51.8 87.821,51.76 87.793,51.712 C 87.987,51.658 88.154,51.636 88.278,51.636 C 88.492,51.636 88.593,51.701 88.593,51.828 C 88.593,51.861 88.581,51.905 88.56,51.964 C 88.553,52.001 88.532,52.081 88.492,52.212 C 88.485,52.249 88.464,52.332 88.421,52.496 C 88.381,52.612 88.366,52.711 88.353,52.769 L 88.312,52.94 C 88.237,53.322 88.198,53.69 88.198,54.025 C 88.198,54.552 88.317,54.804 88.566,54.804 C 89.122,54.804 89.821,54.025 90.656,52.477 L 90.952,52.655 C 89.984,54.516 89.114,55.442 88.325,55.442 C 87.794,55.442 87.52,54.979 87.52,54.036 C 87.528,53.845 87.535,53.626 87.552,53.356 z "
   id="path329" />
				<path
   style="fill:#bbb"
   d="M 90.696,54.066 C 90.696,54.751 90.987,55.093 91.566,55.093 C 92.071,55.093 92.617,54.86 93.221,54.372 C 93.83,53.883 94.373,53.249 94.852,52.47 L 95.156,52.637 C 94.699,53.5 94.101,54.214 93.378,54.779 C 92.646,55.343 91.948,55.624 91.289,55.624 C 90.872,55.624 90.537,55.485 90.295,55.212 C 90.059,54.942 89.928,54.567 89.928,54.093 C 89.928,53.409 90.151,52.822 90.592,52.345 C 91.037,51.856 91.567,51.619 92.191,51.619 C 92.494,51.619 92.736,51.696 92.919,51.845 C 93.104,51.994 93.187,52.202 93.187,52.461 C 93.187,52.879 92.938,53.255 92.426,53.583 C 91.932,53.903 91.357,54.066 90.696,54.066 z M 90.727,53.728 C 91.218,53.706 91.633,53.564 91.994,53.313 C 92.341,53.058 92.514,52.766 92.514,52.424 C 92.514,52.125 92.383,51.976 92.116,51.976 C 91.801,51.976 91.509,52.147 91.246,52.49 C 90.962,52.824 90.793,53.24 90.727,53.728 z "
   id="path338" />
				<path
   style="fill:#bbb"
   d="M 95.038,55.513 C 94.877,55.59 94.751,55.626 94.656,55.626 C 94.422,55.626 94.296,55.521 94.296,55.309 C 94.296,55.2 94.343,54.931 94.417,54.49 L 94.602,53.619 C 94.706,53.087 94.761,52.709 94.761,52.461 C 94.761,52.322 94.72,52.213 94.65,52.111 C 94.899,52.034 95.095,51.99 95.254,51.99 C 95.42,51.99 95.498,52.089 95.498,52.304 C 95.498,52.43 95.438,52.773 95.313,53.32 L 95.114,54.34 C 95.552,53.484 96.001,52.81 96.444,52.33 C 96.889,51.845 97.298,51.608 97.66,51.608 C 97.796,51.608 97.9,51.655 98,51.718 C 98.09,51.794 98.14,51.885 98.14,51.987 C 98.14,52.155 97.964,52.366 97.611,52.647 C 97.526,52.458 97.388,52.37 97.237,52.37 C 96.943,52.37 96.558,52.694 96.106,53.328 C 95.814,53.715 95.572,54.133 95.363,54.552 C 95.138,54.971 95.044,55.27 95.044,55.449 L 95.038,55.513 L 95.038,55.513 z "
   id="path347" />
				<path
   style="fill:#bbb"
   d="M 50.792,65.763 C 50.493,66.382 50.121,66.907 49.683,67.355 C 49.245,67.79 48.862,68.016 48.539,68.016 C 48.288,68.016 48.089,67.906 47.938,67.677 C 47.787,67.453 47.714,67.154 47.714,66.791 C 47.714,66.054 47.938,65.403 48.38,64.853 C 48.823,64.288 49.339,64.008 49.919,64.008 C 50.273,64.008 50.658,64.12 51.069,64.343 C 51.13,64.124 51.374,64.015 51.811,64.015 C 51.836,64.015 51.883,64.015 51.948,64.015 C 51.815,64.222 51.714,64.503 51.645,64.852 L 51.584,65.15 C 51.512,65.489 51.482,65.873 51.482,66.319 C 51.482,66.843 51.597,67.095 51.837,67.095 C 52.091,67.095 52.438,66.879 52.871,66.452 C 53.314,66.035 53.743,65.484 54.163,64.836 L 54.436,65.033 C 54.006,65.809 53.51,66.457 52.956,66.97 C 52.397,67.495 51.921,67.754 51.52,67.754 C 51.018,67.754 50.768,67.331 50.768,66.476 C 50.771,66.302 50.774,66.061 50.792,65.763 z M 50.953,64.922 C 50.465,64.598 50.054,64.438 49.724,64.438 C 49.37,64.438 49.066,64.657 48.807,65.086 C 48.55,65.516 48.42,66.03 48.42,66.626 C 48.42,67.097 48.575,67.329 48.882,67.329 C 49.217,67.329 49.857,66.593 50.81,65.119 C 50.825,65.102 50.871,65.031 50.953,64.922 z "
   id="path356" />
				<path
   style="fill:#bbb"
   d="M 56.429,65.854 C 56.062,66.523 55.682,67.041 55.283,67.433 C 54.886,67.817 54.533,68.015 54.217,68.015 C 53.967,68.015 53.766,67.905 53.617,67.679 C 53.469,67.456 53.398,67.161 53.398,66.797 C 53.398,66.053 53.617,65.399 54.057,64.852 C 54.495,64.287 55.007,64.007 55.588,64.007 C 55.937,64.007 56.317,64.119 56.731,64.346 L 57.106,62.448 C 56.897,62.488 56.731,62.51 56.589,62.51 C 56.38,62.51 56.227,62.463 56.136,62.365 C 56.039,62.27 55.963,62.087 55.902,61.822 C 56.075,61.931 56.331,61.992 56.684,61.992 C 57.121,61.992 57.534,61.916 57.939,61.753 L 57.17,65.62 C 57.083,66.045 57.037,66.422 57.037,66.724 C 57.037,67.127 57.151,67.332 57.384,67.332 C 57.607,67.332 57.981,67.07 58.503,66.537 C 59.022,66.007 59.458,65.448 59.8,64.873 L 60.093,65.059 C 59.679,65.824 59.159,66.507 58.531,67.112 C 57.912,67.716 57.412,68.024 57.044,68.024 C 56.572,68.024 56.333,67.645 56.333,66.883 C 56.339,66.549 56.37,66.21 56.429,65.854 z M 56.616,64.922 C 56.13,64.598 55.721,64.438 55.402,64.438 C 55.05,64.438 54.745,64.657 54.494,65.086 C 54.232,65.52 54.107,66.037 54.107,66.626 C 54.107,67.097 54.262,67.329 54.569,67.329 C 54.9,67.329 55.542,66.593 56.485,65.119 C 56.5,65.094 56.547,65.023 56.616,64.922 z "
   id="path365" />
				<path
   style="fill:#bbb"
   d="M 63.274,65.031 C 62.748,65.964 62.215,66.691 61.674,67.219 C 61.137,67.751 60.652,68.015 60.222,68.015 C 59.963,68.015 59.75,67.931 59.591,67.755 C 59.432,67.583 59.35,67.364 59.35,67.073 C 59.35,66.97 59.375,66.797 59.423,66.567 L 59.501,66.185 C 59.612,65.627 59.672,65.226 59.672,65.007 C 59.672,64.876 59.634,64.767 59.552,64.676 C 59.855,64.599 60.049,64.573 60.125,64.573 C 60.298,64.573 60.384,64.694 60.384,64.945 C 60.384,65.124 60.353,65.382 60.279,65.729 L 60.144,66.413 C 60.071,66.744 60.039,66.953 60.039,67.06 C 60.039,67.352 60.161,67.495 60.41,67.495 C 60.702,67.495 61.091,67.251 61.574,66.751 C 62.058,66.257 62.532,65.627 62.987,64.873 L 63.274,65.031 z M 60.159,63.258 L 60.209,63.261 C 60.364,63.254 60.587,63.181 60.882,63.025 C 61.179,62.882 61.405,62.726 61.571,62.562 C 61.467,62.89 61.282,63.155 61.019,63.381 C 60.625,63.72 60.353,63.884 60.215,63.884 C 60.122,63.884 60.075,63.825 60.075,63.713 C 60.078,63.534 60.104,63.389 60.159,63.258 z "
   id="path374" />
				<path
   style="fill:#bbb"
   d="M 62.976,67.702 L 62.718,69.006 C 62.659,69.297 62.63,69.555 62.63,69.774 C 62.63,69.913 62.659,70.04 62.72,70.153 C 62.487,70.23 62.306,70.263 62.184,70.263 C 61.993,70.263 61.893,70.159 61.893,69.923 C 61.893,69.76 61.93,69.475 62.007,69.09 L 63.037,63.917 C 62.836,63.964 62.663,63.986 62.522,63.986 C 62.316,63.986 62.169,63.931 62.072,63.837 C 61.975,63.743 61.894,63.557 61.838,63.295 C 62.007,63.404 62.27,63.47 62.62,63.47 C 63.056,63.47 63.469,63.394 63.873,63.229 L 63.6,64.59 C 63.994,64.204 64.404,64.004 64.829,64.004 C 65.203,64.004 65.511,64.15 65.758,64.43 C 66.005,64.714 66.131,65.068 66.131,65.486 C 66.131,66.153 65.903,66.724 65.45,67.205 C 64.995,67.684 64.452,67.924 63.821,67.924 C 63.48,67.921 63.198,67.852 62.976,67.702 z M 63.085,67.153 C 63.322,67.433 63.61,67.569 63.956,67.569 C 64.368,67.569 64.717,67.388 65.006,67.041 C 65.297,66.687 65.443,66.266 65.443,65.763 C 65.443,65.404 65.36,65.105 65.194,64.893 C 65.031,64.667 64.819,64.555 64.558,64.555 C 64.231,64.555 63.877,64.744 63.492,65.105 L 63.085,67.153 z "
   id="path383" />
				<path
   style="fill:#bbb"
   d="M 70.846,65.031 C 70.32,65.964 69.786,66.691 69.25,67.219 C 68.71,67.751 68.224,68.015 67.798,68.015 C 67.536,68.015 67.326,67.931 67.163,67.755 C 67.005,67.583 66.927,67.364 66.927,67.073 C 66.927,66.97 66.951,66.797 66.997,66.567 L 67.073,66.185 C 67.189,65.627 67.246,65.226 67.246,65.007 C 67.246,64.876 67.206,64.767 67.123,64.676 C 67.427,64.599 67.621,64.573 67.7,64.573 C 67.87,64.573 67.96,64.694 67.96,64.945 C 67.96,65.124 67.927,65.382 67.856,65.729 L 67.719,66.413 C 67.65,66.744 67.617,66.96 67.617,67.06 C 67.617,67.352 67.739,67.495 67.985,67.495 C 68.276,67.495 68.662,67.247 69.149,66.751 C 69.635,66.257 70.108,65.63 70.561,64.869 L 70.846,65.031 z M 67.729,63.258 L 67.783,63.261 C 67.934,63.254 68.162,63.181 68.458,63.025 C 68.75,62.882 68.979,62.726 69.146,62.562 C 69.042,62.89 68.857,63.155 68.598,63.381 C 68.202,63.72 67.932,63.884 67.791,63.884 C 67.7,63.884 67.649,63.825 67.649,63.713 C 67.649,63.534 67.676,63.389 67.729,63.258 z "
   id="path392" />
				<path
   style="fill:#bbb"
   d="M 71.968,66.673 C 72.044,66.856 72.081,67.03 72.081,67.194 C 72.081,67.552 71.933,67.876 71.636,68.132 C 71.337,68.402 70.987,68.532 70.583,68.532 C 70.35,68.532 70.146,68.464 69.981,68.344 C 69.815,68.226 69.734,68.08 69.734,67.905 C 69.734,67.718 69.847,67.53 70.075,67.35 C 70.298,67.162 70.679,66.947 71.214,66.672 L 70.934,66.216 C 70.595,65.671 70.422,65.231 70.422,64.928 C 70.422,64.481 70.68,64.119 71.196,63.85 C 71.509,63.97 71.671,64.123 71.671,64.309 C 71.671,64.575 71.47,64.837 71.07,65.067 L 71.466,65.81 L 71.776,66.38 C 72.227,66.114 72.562,65.879 72.789,65.692 C 73.014,65.504 73.306,65.202 73.651,64.812 L 73.931,64.987 C 73.434,65.658 72.774,66.217 71.968,66.673 z M 71.365,66.997 C 70.684,67.369 70.342,67.661 70.342,67.859 C 70.342,68.054 70.479,68.15 70.756,68.15 C 70.962,68.15 71.131,68.073 71.254,67.931 C 71.385,67.792 71.448,67.613 71.448,67.395 C 71.452,67.263 71.422,67.128 71.365,66.997 z "
   id="path401" />
				<path
   style="fill:#bbb"
   d="M 78.032,65.039 C 77.467,65.996 76.869,66.746 76.231,67.293 C 75.595,67.837 75.008,68.12 74.464,68.12 C 74.013,68.12 73.646,67.967 73.368,67.654 C 73.087,67.346 72.946,66.947 72.946,66.443 C 72.946,65.788 73.187,65.22 73.672,64.728 C 74.154,64.241 74.724,64 75.38,64 C 75.644,64 75.859,64.058 76.027,64.157 C 76.193,64.255 76.281,64.383 76.281,64.547 C 76.281,64.798 76.06,64.994 75.629,65.127 C 75.652,65.068 75.665,65.017 75.665,64.963 C 75.665,64.584 75.463,64.391 75.06,64.391 C 74.714,64.391 74.389,64.591 74.094,64.977 C 73.798,65.366 73.651,65.804 73.651,66.266 C 73.651,66.644 73.748,66.955 73.942,67.195 C 74.14,67.432 74.394,67.556 74.707,67.556 C 75.568,67.556 76.574,66.663 77.73,64.871 L 78.032,65.039 z "
   id="path410" />
				<path
   style="fill:#bbb"
   d="M 81.218,65.031 C 80.687,65.964 80.144,66.691 79.617,67.219 C 79.077,67.751 78.591,68.015 78.161,68.015 C 77.903,68.015 77.687,67.931 77.53,67.755 C 77.369,67.583 77.289,67.364 77.289,67.073 C 77.289,66.97 77.308,66.797 77.357,66.567 L 77.438,66.185 C 77.549,65.627 77.606,65.226 77.606,65.007 C 77.606,64.876 77.566,64.767 77.488,64.676 C 77.79,64.599 77.981,64.573 78.06,64.573 C 78.237,64.573 78.32,64.694 78.32,64.945 C 78.32,65.124 78.285,65.382 78.218,65.729 L 78.077,66.413 C 78.01,66.744 77.973,66.96 77.973,67.06 C 77.973,67.352 78.098,67.495 78.344,67.495 C 78.639,67.495 79.021,67.247 79.504,66.751 C 79.997,66.257 80.471,65.63 80.927,64.869 L 81.218,65.031 z M 78.1,63.258 L 78.148,63.261 C 78.303,63.254 78.527,63.181 78.823,63.025 C 79.114,62.882 79.347,62.726 79.507,62.562 C 79.41,62.89 79.225,63.155 78.971,63.381 C 78.567,63.72 78.297,63.884 78.156,63.884 C 78.069,63.884 78.016,63.825 78.016,63.713 C 78.021,63.534 78.039,63.389 78.1,63.258 z "
   id="path419" />
				<path
   style="fill:#bbb"
   d="M 81.412,66.648 C 82.24,64.893 82.99,64 83.653,64 C 84.173,64 84.428,64.521 84.428,65.552 L 84.438,65.978 C 84.438,66.477 84.468,66.812 84.514,66.997 C 84.561,67.184 84.648,67.277 84.788,67.277 C 84.99,67.277 85.216,67.121 85.465,66.791 C 85.725,66.478 86.14,65.825 86.716,64.871 L 87.02,65.043 C 86.5,66.023 86.041,66.739 85.63,67.212 C 85.22,67.688 84.86,67.921 84.534,67.921 C 84.233,67.921 84.024,67.778 83.906,67.486 C 83.786,67.197 83.728,66.695 83.728,65.985 L 83.728,65.686 C 83.728,65.306 83.7,65.027 83.652,64.871 C 83.595,64.718 83.515,64.639 83.393,64.639 C 83.082,64.639 82.578,65.261 81.901,66.499 C 81.724,66.798 81.62,67.001 81.574,67.081 C 81.386,67.395 81.297,67.618 81.297,67.767 C 81.297,67.827 81.311,67.881 81.347,67.932 C 81.212,67.99 81.105,68.011 81.001,68.011 C 80.771,68.011 80.65,67.881 80.65,67.622 C 80.65,67.546 80.678,67.208 80.738,66.607 L 80.82,65.842 C 80.856,65.515 80.871,65.264 80.871,65.085 C 80.871,64.841 80.816,64.641 80.702,64.499 C 80.752,64.481 80.831,64.452 80.942,64.415 C 81.087,64.36 81.205,64.339 81.293,64.339 C 81.476,64.339 81.57,64.477 81.57,64.739 C 81.57,64.881 81.549,65.118 81.508,65.463 C 81.501,65.536 81.493,65.612 81.487,65.679 L 81.412,66.648 z "
   id="path428" />
				<path
   style="fill:#bbb"
   d="M 88.903,65.801 C 88.677,66.266 88.348,66.673 87.924,67.034 C 87.487,67.395 87.107,67.567 86.772,67.567 C 86.512,67.567 86.299,67.486 86.144,67.31 C 85.983,67.132 85.907,66.914 85.907,66.629 C 85.907,65.978 86.144,65.376 86.642,64.834 C 87.124,64.281 87.657,64 88.24,64 C 88.543,64 88.86,64.083 89.212,64.255 C 89.267,64.03 89.318,63.88 89.42,63.829 C 89.503,63.771 89.735,63.728 90.099,63.687 C 89.914,64.058 89.744,64.936 89.575,66.328 L 89.53,66.695 C 90.524,66.09 91.297,65.464 91.849,64.838 L 92.145,65.023 C 91.626,65.702 90.747,66.432 89.511,67.223 C 89.503,67.315 89.499,67.39 89.499,67.439 C 89.463,68.029 89.401,68.459 89.309,68.736 C 89.221,69.012 89.063,69.282 88.828,69.545 C 88.378,70.036 87.823,70.274 87.169,70.274 C 86.815,70.274 86.538,70.198 86.324,70.029 C 86.101,69.866 85.994,69.651 85.994,69.384 C 85.994,69.125 86.087,68.901 86.274,68.707 C 86.466,68.507 86.811,68.276 87.337,68.004 C 87.686,67.817 88.162,67.549 88.788,67.184 L 88.903,65.801 z M 89.084,64.881 C 88.781,64.561 88.443,64.39 88.085,64.39 C 87.73,64.39 87.408,64.612 87.103,65.049 C 86.8,65.482 86.654,65.949 86.654,66.44 C 86.654,66.791 86.772,66.971 87.028,66.971 C 87.273,66.971 87.604,66.752 88.015,66.342 C 88.422,65.919 88.781,65.436 89.084,64.881 z M 88.746,67.65 C 88.616,67.726 88.342,67.882 87.921,68.123 C 87.113,68.583 86.717,68.987 86.717,69.341 C 86.717,69.494 86.782,69.624 86.916,69.718 C 87.042,69.815 87.21,69.867 87.412,69.867 C 88.299,69.867 88.746,69.129 88.746,67.65 z "
   id="path437" />
				<path
   style="fill:#bbb"
   d="M 94.296,66.451 C 94.296,67.135 94.587,67.483 95.164,67.483 C 95.671,67.483 96.219,67.246 96.818,66.761 C 97.43,66.276 97.978,65.644 98.464,64.863 L 98.753,65.019 C 98.295,65.883 97.702,66.603 96.972,67.168 C 96.24,67.73 95.544,68.01 94.898,68.01 C 94.468,68.01 94.143,67.88 93.899,67.606 C 93.655,67.329 93.525,66.95 93.525,66.473 C 93.525,65.796 93.743,65.209 94.196,64.728 C 94.637,64.241 95.171,64 95.794,64 C 96.098,64 96.33,64.077 96.516,64.226 C 96.696,64.382 96.788,64.586 96.788,64.845 C 96.788,65.261 96.534,65.638 96.036,65.961 C 95.531,66.287 94.95,66.451 94.296,66.451 z M 94.324,66.113 C 94.822,66.087 95.234,65.945 95.591,65.689 C 95.942,65.432 96.117,65.144 96.117,64.805 C 96.117,64.499 95.981,64.35 95.719,64.35 C 95.399,64.35 95.107,64.532 94.839,64.874 C 94.552,65.207 94.393,65.62 94.324,66.113 z "
   id="path446" />
				<path
   style="fill:#bbb"
   d="M 101.673,65.05 C 101.182,65.975 100.703,66.696 100.219,67.22 C 99.726,67.752 99.294,68.016 98.927,68.016 C 98.65,68.016 98.417,67.912 98.251,67.696 C 98.083,67.48 98.012,67.198 98.012,66.86 C 98.012,66.664 98.04,66.393 98.109,66.041 L 98.804,62.501 C 98.709,62.516 98.635,62.527 98.567,62.527 C 98.034,62.527 97.763,62.3 97.763,61.841 L 97.763,61.758 C 98.045,61.922 98.358,61.998 98.706,61.998 C 99.066,61.998 99.385,61.915 99.636,61.732 L 98.823,65.982 C 98.748,66.36 98.721,66.63 98.721,66.773 C 98.721,67.169 98.864,67.37 99.15,67.37 C 99.432,67.37 99.71,67.209 99.995,66.89 C 100.274,66.573 100.744,65.897 101.396,64.851 L 101.673,65.05 z "
   id="path455" />
				<path
   style="fill:#bbb"
   d="M 104.857,65.031 C 104.331,65.964 103.79,66.691 103.254,67.219 C 102.718,67.751 102.227,68.015 101.8,68.015 C 101.544,68.015 101.325,67.931 101.176,67.755 C 101.008,67.583 100.937,67.364 100.937,67.073 C 100.937,66.97 100.954,66.797 101.003,66.567 L 101.081,66.185 C 101.192,65.627 101.257,65.226 101.257,65.007 C 101.257,64.876 101.214,64.767 101.139,64.676 C 101.44,64.599 101.632,64.573 101.703,64.573 C 101.885,64.573 101.966,64.694 101.966,64.945 C 101.966,65.124 101.931,65.382 101.866,65.729 L 101.728,66.413 C 101.652,66.744 101.624,66.96 101.624,67.06 C 101.624,67.352 101.75,67.495 101.994,67.495 C 102.291,67.495 102.673,67.247 103.158,66.751 C 103.649,66.257 104.121,65.63 104.574,64.869 L 104.857,65.031 z M 101.741,63.258 L 101.791,63.261 C 101.945,63.254 102.171,63.181 102.465,63.025 C 102.764,62.882 102.991,62.726 103.153,62.562 C 103.056,62.89 102.869,63.155 102.613,63.381 C 102.217,63.72 101.939,63.884 101.8,63.884 C 101.705,63.884 101.659,63.825 101.659,63.713 C 101.651,63.534 101.683,63.389 101.741,63.258 z "
   id="path464" />
				<path
   style="fill:#bbb"
   d="M 106.541,66.53 C 106.603,66.641 106.631,66.742 106.631,66.829 C 106.631,67.056 106.432,67.315 106.05,67.584 C 105.668,67.868 105.313,68.001 104.995,68.001 C 104.718,68.001 104.482,67.876 104.309,67.622 C 104.133,67.369 104.05,67.048 104.05,66.642 C 104.05,66.204 104.162,65.569 104.397,64.751 L 104.553,64.157 L 103.96,64.157 C 103.728,64.157 103.523,64.194 103.384,64.262 C 103.517,64.018 103.621,63.862 103.714,63.8 C 103.801,63.731 103.948,63.705 104.164,63.705 L 104.69,63.705 L 104.766,63.465 C 104.87,63.097 105,62.849 105.148,62.718 C 105.299,62.584 105.522,62.507 105.826,62.507 C 105.866,62.507 105.912,62.507 105.997,62.515 C 105.805,62.751 105.62,63.148 105.431,63.705 L 107.285,63.705 C 107.61,63.705 107.859,63.661 108.032,63.581 C 107.969,63.813 107.892,63.974 107.796,64.051 C 107.705,64.127 107.518,64.156 107.257,64.156 L 105.273,64.156 C 105.247,64.232 105.233,64.29 105.218,64.335 C 104.939,65.306 104.789,66.036 104.789,66.534 C 104.789,67.077 104.99,67.356 105.379,67.356 C 105.583,67.356 105.801,67.281 106.041,67.103 C 106.264,66.947 106.432,66.746 106.541,66.53 z "
   id="path473" />
				<path
   style="fill:#bbb"
   d="M 107.235,67.074 L 107.48,67.027 C 107.655,66.985 107.776,66.971 107.854,66.971 C 108.06,66.971 108.163,67.074 108.163,67.292 C 108.163,67.372 108.148,67.482 108.125,67.602 L 108.087,67.836 L 107.926,67.867 C 107.692,67.911 107.549,67.933 107.514,67.933 C 107.348,67.933 107.269,67.85 107.269,67.675 C 107.269,67.627 107.272,67.589 107.279,67.536 L 107.3,67.455 C 107.307,67.408 107.315,67.375 107.315,67.327 C 107.307,67.224 107.285,67.135 107.235,67.074 z "
   id="path482" />
				<path
   style="fill:#bbb"
   d="M 47.527,89.354 C 47.47,89.23 47.441,89.103 47.441,88.975 C 47.441,88.556 47.766,88.163 48.406,87.837 C 49.052,87.499 49.775,87.327 50.591,87.327 C 51.449,87.327 52.117,87.523 52.612,87.902 C 53.101,88.282 53.35,88.797 53.35,89.473 C 53.35,90.357 52.968,91.133 52.204,91.808 C 51.8,92.171 51.296,92.453 50.69,92.675 C 50.085,92.901 49.501,93.016 48.95,93.016 C 48.42,93.016 48.154,92.817 48.154,92.408 C 48.154,92.271 48.196,91.969 48.29,91.51 L 48.745,89.204 C 48.784,89 48.802,88.866 48.802,88.778 C 48.802,88.701 48.777,88.622 48.719,88.551 C 49.032,88.431 49.25,88.372 49.37,88.372 C 49.516,88.372 49.591,88.448 49.591,88.621 C 49.591,88.671 49.556,88.865 49.48,89.236 L 49.093,91.17 C 49.001,91.662 48.95,91.976 48.95,92.098 C 48.95,92.241 48.996,92.335 49.093,92.386 C 49.184,92.439 49.364,92.462 49.627,92.462 C 50.474,92.462 51.187,92.205 51.761,91.677 C 52.333,91.156 52.618,90.522 52.622,89.744 C 52.622,89.151 52.409,88.671 51.995,88.309 C 51.581,87.947 51.026,87.778 50.333,87.773 C 49.771,87.781 49.245,87.922 48.755,88.184 C 48.262,88.474 47.852,88.862 47.527,89.354 z "
   id="path491" />
				<path
   style="fill:#bbb"
   d="M 57.754,90.094 C 57.762,90.149 57.762,90.195 57.762,90.243 C 57.762,90.925 57.534,91.514 57.077,92.009 C 56.619,92.528 56.086,92.77 55.471,92.77 C 55.001,92.77 54.619,92.621 54.321,92.315 C 54.025,92.024 53.878,91.631 53.878,91.151 C 53.878,90.613 54.073,90.13 54.45,89.726 C 54.833,89.33 55.284,89.112 55.805,89.112 C 55.884,89.112 55.968,89.135 56.057,89.158 C 55.996,89.049 55.968,88.955 55.968,88.892 C 55.968,88.776 56.004,88.665 56.086,88.557 C 56.656,88.608 57.128,88.903 57.505,89.449 C 57.896,89.71 58.302,89.832 58.721,89.832 C 58.998,89.832 59.29,89.747 59.607,89.561 L 59.785,89.867 C 59.41,90.124 59.031,90.252 58.638,90.252 C 58.378,90.25 58.081,90.194 57.754,90.094 z M 56.955,89.799 C 56.763,89.733 56.583,89.639 56.422,89.511 C 56.303,89.486 56.201,89.475 56.123,89.467 C 55.729,89.475 55.376,89.654 55.07,89.999 C 54.763,90.37 54.608,90.775 54.608,91.24 C 54.608,91.567 54.699,91.836 54.885,92.06 C 55.07,92.284 55.306,92.377 55.603,92.377 C 55.996,92.377 56.333,92.179 56.616,91.782 C 56.9,91.38 57.045,90.909 57.045,90.343 C 57.048,90.157 57.016,89.973 56.955,89.799 z "
   id="path500" />
				<path
   style="fill:#bbb"
   d="M 59.972,91.418 C 60.804,89.656 61.548,88.764 62.216,88.764 C 62.735,88.764 62.99,89.283 62.99,90.316 L 62.997,90.735 C 62.997,91.246 63.023,91.568 63.073,91.759 C 63.12,91.95 63.214,92.042 63.347,92.042 C 63.549,92.042 63.779,91.886 64.035,91.559 C 64.286,91.246 64.705,90.593 65.282,89.632 L 65.577,89.799 C 65.066,90.778 64.603,91.504 64.193,91.981 C 63.786,92.451 63.422,92.68 63.101,92.68 C 62.801,92.68 62.592,92.537 62.474,92.249 C 62.355,91.963 62.29,91.46 62.29,90.75 L 62.29,90.451 C 62.29,90.064 62.268,89.792 62.218,89.632 C 62.168,89.479 62.08,89.399 61.958,89.399 C 61.648,89.399 61.148,90.025 60.459,91.267 C 60.29,91.566 60.178,91.762 60.131,91.838 C 59.955,92.163 59.86,92.378 59.86,92.524 C 59.86,92.586 59.875,92.633 59.911,92.687 C 59.775,92.749 59.659,92.763 59.568,92.763 C 59.332,92.763 59.212,92.644 59.212,92.374 C 59.212,92.298 59.244,91.966 59.306,91.373 L 59.382,90.603 C 59.417,90.271 59.436,90.031 59.436,89.849 C 59.436,89.605 59.378,89.402 59.267,89.26 C 59.318,89.245 59.401,89.207 59.512,89.176 C 59.656,89.119 59.771,89.099 59.861,89.099 C 60.042,89.099 60.132,89.234 60.132,89.495 C 60.132,89.638 60.117,89.874 60.082,90.22 C 60.075,90.297 60.067,90.369 60.061,90.44 L 59.972,91.418 z "
   id="path509" />
				<path
   style="fill:#bbb"
   d="M 65.315,91.224 C 65.315,91.909 65.603,92.253 66.184,92.253 C 66.688,92.253 67.239,92.024 67.843,91.529 C 68.449,91.051 68.993,90.414 69.48,89.632 L 69.779,89.806 C 69.319,90.662 68.727,91.376 67.992,91.937 C 67.259,92.498 66.566,92.775 65.909,92.775 C 65.487,92.775 65.156,92.647 64.911,92.375 C 64.669,92.104 64.548,91.723 64.548,91.253 C 64.548,90.568 64.768,89.978 65.214,89.508 C 65.658,89.016 66.192,88.78 66.815,88.78 C 67.114,88.78 67.355,88.859 67.537,89.005 C 67.716,89.165 67.809,89.366 67.809,89.629 C 67.809,90.037 67.558,90.419 67.052,90.738 C 66.547,91.059 65.967,91.224 65.315,91.224 z M 65.345,90.88 C 65.831,90.856 66.248,90.713 66.602,90.463 C 66.952,90.209 67.128,89.911 67.128,89.567 C 67.128,89.278 66.99,89.121 66.725,89.121 C 66.408,89.121 66.116,89.292 65.845,89.643 C 65.575,89.98 65.409,90.393 65.345,90.88 z "
   id="path518" />
				<path
   style="fill:#bbb"
   d="M 73.874,89.806 C 73.308,90.769 72.71,91.523 72.074,92.069 C 71.445,92.607 70.853,92.896 70.312,92.896 C 69.862,92.896 69.494,92.74 69.214,92.425 C 68.932,92.115 68.792,91.71 68.792,91.216 C 68.792,90.56 69.028,89.986 69.52,89.504 C 70.003,89.012 70.573,88.772 71.22,88.772 C 71.484,88.772 71.699,88.83 71.872,88.925 C 72.043,89.024 72.126,89.157 72.126,89.314 C 72.126,89.567 71.908,89.77 71.474,89.896 C 71.497,89.836 71.509,89.789 71.509,89.733 C 71.509,89.355 71.308,89.162 70.904,89.162 C 70.559,89.162 70.234,89.362 69.937,89.747 C 69.642,90.139 69.494,90.579 69.494,91.037 C 69.494,91.417 69.592,91.723 69.786,91.964 C 69.985,92.199 70.236,92.32 70.552,92.32 C 71.413,92.32 72.421,91.438 73.575,89.635 L 73.874,89.806 z "
   id="path527" />
				<path
   style="fill:#bbb"
   d="M 78.335,90.534 C 78.032,91.154 77.661,91.679 77.218,92.126 C 76.78,92.556 76.4,92.777 76.076,92.777 C 75.827,92.777 75.624,92.676 75.477,92.447 C 75.329,92.22 75.253,91.926 75.253,91.56 C 75.253,90.822 75.477,90.177 75.92,89.622 C 76.366,89.058 76.878,88.781 77.462,88.781 C 77.819,88.781 78.196,88.89 78.604,89.11 C 78.673,88.89 78.922,88.79 79.351,88.79 C 79.379,88.79 79.426,88.79 79.492,88.79 C 79.351,89 79.255,89.276 79.18,89.634 L 79.12,89.93 C 79.05,90.26 79.021,90.65 79.021,91.088 C 79.021,91.619 79.14,91.873 79.386,91.873 C 79.63,91.873 79.984,91.655 80.419,91.23 C 80.856,90.805 81.285,90.259 81.702,89.619 L 81.984,89.808 C 81.547,90.586 81.049,91.237 80.495,91.746 C 79.94,92.271 79.46,92.526 79.067,92.526 C 78.556,92.526 78.307,92.111 78.307,91.254 C 78.316,91.074 78.324,90.833 78.335,90.534 z M 78.496,89.687 C 78.004,89.366 77.597,89.206 77.267,89.206 C 76.914,89.206 76.608,89.433 76.349,89.859 C 76.093,90.287 75.962,90.8 75.962,91.398 C 75.962,91.875 76.114,92.1 76.427,92.1 C 76.759,92.1 77.405,91.373 78.348,89.896 C 78.366,89.872 78.418,89.799 78.496,89.687 z "
   id="path536" />
				<path
   style="fill:#bbb"
   d="M 84.894,89.816 C 84.408,90.742 83.929,91.462 83.433,91.992 C 82.949,92.523 82.518,92.777 82.148,92.777 C 81.877,92.777 81.647,92.679 81.477,92.464 C 81.316,92.249 81.233,91.97 81.233,91.631 C 81.233,91.444 81.261,91.168 81.337,90.814 L 82.029,87.283 C 81.934,87.3 81.859,87.3 81.794,87.3 C 81.259,87.3 80.988,87.074 80.988,86.615 L 80.988,86.53 C 81.267,86.698 81.589,86.77 81.934,86.77 C 82.294,86.77 82.605,86.686 82.864,86.504 L 82.052,90.763 C 81.979,91.146 81.941,91.415 81.941,91.545 C 81.941,91.942 82.09,92.143 82.378,92.143 C 82.66,92.143 82.934,91.987 83.218,91.666 C 83.503,91.35 83.967,90.675 84.623,89.627 L 84.894,89.816 z "
   id="path545" />
				<path
   style="fill:#bbb"
   d="M 88.078,89.799 C 87.552,90.735 87.016,91.463 86.482,91.992 C 85.941,92.519 85.456,92.777 85.031,92.777 C 84.767,92.777 84.554,92.701 84.399,92.527 C 84.236,92.359 84.161,92.141 84.161,91.842 C 84.161,91.742 84.184,91.567 84.234,91.338 L 84.31,90.955 C 84.421,90.398 84.478,89.994 84.478,89.78 C 84.478,89.644 84.435,89.539 84.36,89.447 C 84.662,89.376 84.858,89.345 84.936,89.345 C 85.107,89.345 85.188,89.465 85.188,89.721 C 85.188,89.902 85.157,90.156 85.09,90.499 L 84.949,91.184 C 84.875,91.513 84.849,91.727 84.849,91.83 C 84.849,92.122 84.97,92.268 85.219,92.268 C 85.508,92.268 85.905,92.027 86.383,91.525 C 86.873,91.036 87.346,90.403 87.804,89.645 L 88.078,89.799 z M 84.958,88.036 L 85.005,88.036 C 85.16,88.02 85.387,87.95 85.68,87.798 C 85.983,87.653 86.205,87.491 86.368,87.328 C 86.27,87.66 86.086,87.932 85.828,88.148 C 85.437,88.492 85.157,88.648 85.012,88.648 C 84.926,88.648 84.879,88.592 84.879,88.483 C 84.879,88.305 84.904,88.155 84.958,88.036 z "
   id="path554" />
				<path
   style="fill:#bbb"
   d="M 90.077,90.619 C 89.266,92.06 88.533,92.777 87.86,92.777 C 87.614,92.777 87.408,92.676 87.264,92.447 C 87.116,92.22 87.041,91.926 87.041,91.553 C 87.041,90.822 87.259,90.17 87.7,89.619 C 88.147,89.057 88.663,88.781 89.239,88.781 C 89.593,88.781 89.96,88.89 90.37,89.11 C 90.441,88.901 90.702,88.79 91.162,88.79 L 91.265,88.79 C 91.132,89.014 91.035,89.298 90.968,89.619 L 90.143,93.793 C 90.083,94.085 90.058,94.344 90.058,94.562 C 90.058,94.701 90.091,94.828 90.148,94.943 C 89.916,95.018 89.733,95.047 89.607,95.047 C 89.416,95.047 89.318,94.946 89.318,94.717 C 89.318,94.545 89.368,94.262 89.436,93.882 L 90.077,90.619 z M 90.26,89.687 C 89.767,89.366 89.366,89.206 89.045,89.206 C 88.688,89.206 88.377,89.433 88.133,89.859 C 87.874,90.292 87.749,90.807 87.749,91.398 C 87.749,91.875 87.899,92.1 88.212,92.1 C 88.55,92.1 89.188,91.373 90.127,89.889 C 90.144,89.865 90.184,89.799 90.26,89.687 z "
   id="path563" />
				<path
   style="fill:#bbb"
   d="M 94.844,90.508 C 94.526,91.183 94.165,91.717 93.765,92.142 C 93.373,92.556 93.013,92.77 92.696,92.77 C 92.444,92.77 92.236,92.687 92.077,92.501 C 91.913,92.314 91.845,92.09 91.845,91.798 C 91.845,91.434 91.959,90.75 92.212,89.751 C 92.286,89.489 92.312,89.317 92.312,89.241 C 92.312,89.164 92.291,89.092 92.246,89.014 L 92.739,89.011 C 92.946,89.011 93.057,89.088 93.057,89.252 C 93.057,89.346 92.981,89.638 92.841,90.114 C 92.801,90.257 92.765,90.357 92.765,90.409 L 92.708,90.635 C 92.597,91.058 92.549,91.389 92.549,91.615 C 92.549,91.969 92.663,92.14 92.912,92.14 C 93.294,92.14 93.799,91.655 94.39,90.69 C 94.892,89.894 95.129,89.342 95.129,89 C 95.129,88.953 95.115,88.908 95.086,88.861 C 95.283,88.803 95.447,88.781 95.572,88.781 C 95.776,88.781 95.883,88.85 95.883,88.977 C 95.883,89.006 95.876,89.054 95.85,89.11 C 95.843,89.149 95.817,89.226 95.784,89.356 C 95.775,89.389 95.754,89.477 95.711,89.644 C 95.678,89.76 95.656,89.857 95.643,89.917 L 95.595,90.089 C 95.519,90.468 95.491,90.839 95.491,91.173 C 95.491,91.692 95.61,91.945 95.866,91.945 C 96.411,91.945 97.106,91.173 97.941,89.633 L 98.239,89.808 C 97.279,91.655 96.406,92.588 95.614,92.588 C 95.081,92.588 94.81,92.117 94.81,91.184 C 94.829,90.997 94.836,90.783 94.844,90.508 z "
   id="path572" />
				<path
   style="fill:#bbb"
   d="M 97.988,91.224 C 97.988,91.909 98.284,92.253 98.863,92.253 C 99.36,92.253 99.918,92.024 100.522,91.529 C 101.126,91.051 101.668,90.414 102.156,89.632 L 102.45,89.806 C 101.995,90.662 101.402,91.376 100.67,91.937 C 99.94,92.498 99.242,92.775 98.588,92.775 C 98.173,92.775 97.834,92.647 97.592,92.375 C 97.353,92.104 97.222,91.723 97.222,91.253 C 97.222,90.568 97.445,89.978 97.893,89.508 C 98.33,89.016 98.871,88.78 99.49,88.78 C 99.791,88.78 100.033,88.859 100.211,89.005 C 100.391,89.165 100.482,89.366 100.482,89.629 C 100.482,90.037 100.237,90.419 99.727,90.738 C 99.219,91.059 98.643,91.224 97.988,91.224 z M 98.014,90.88 C 98.507,90.856 98.922,90.713 99.281,90.463 C 99.63,90.209 99.798,89.911 99.798,89.567 C 99.798,89.278 99.673,89.121 99.404,89.121 C 99.082,89.121 98.793,89.292 98.527,89.643 C 98.256,89.98 98.083,90.393 98.014,90.88 z "
   id="path581" />
				<path
   style="fill:#bbb"
   d="M 104.127,91.304 C 104.193,91.411 104.22,91.515 104.22,91.599 C 104.22,91.828 104.026,92.082 103.646,92.36 C 103.262,92.635 102.904,92.77 102.588,92.77 C 102.306,92.77 102.076,92.651 101.91,92.392 C 101.734,92.144 101.646,91.817 101.646,91.423 C 101.646,90.975 101.762,90.349 101.985,89.525 L 102.144,88.936 L 101.561,88.936 C 101.314,88.936 101.124,88.976 100.975,89.035 C 101.106,88.794 101.214,88.638 101.307,88.576 C 101.39,88.508 101.544,88.481 101.757,88.481 L 102.283,88.481 L 102.352,88.244 C 102.463,87.868 102.593,87.632 102.746,87.489 C 102.892,87.358 103.121,87.278 103.422,87.278 C 103.457,87.278 103.512,87.278 103.593,87.285 C 103.407,87.522 103.218,87.93 103.024,88.481 L 104.878,88.481 C 105.207,88.481 105.449,88.437 105.62,88.353 C 105.558,88.59 105.487,88.749 105.397,88.827 C 105.299,88.903 105.122,88.936 104.856,88.936 L 102.878,88.936 C 102.852,89.012 102.835,89.067 102.818,89.107 C 102.531,90.087 102.398,90.812 102.398,91.307 C 102.398,91.853 102.592,92.126 102.989,92.126 C 103.186,92.126 103.397,92.049 103.643,91.874 C 103.852,91.71 104.025,91.522 104.127,91.304 z "
   id="path590" />
				<path
   style="fill:#bbb"
   d="M 57.593,102.185 C 57.067,103.122 56.533,103.842 55.992,104.372 C 55.452,104.9 54.968,105.161 54.537,105.161 C 54.277,105.161 54.068,105.081 53.906,104.91 C 53.746,104.737 53.668,104.521 53.668,104.225 C 53.668,104.124 53.689,103.956 53.737,103.723 L 53.812,103.332 C 53.926,102.782 53.984,102.379 53.984,102.161 C 53.984,102.028 53.945,101.924 53.865,101.825 C 54.169,101.751 54.361,101.728 54.439,101.728 C 54.612,101.728 54.699,101.847 54.699,102.101 C 54.699,102.284 54.667,102.539 54.595,102.876 L 54.453,103.564 C 54.385,103.901 54.353,104.101 54.353,104.207 C 54.353,104.498 54.474,104.647 54.719,104.647 C 55.012,104.647 55.397,104.399 55.887,103.908 C 56.373,103.408 56.843,102.782 57.299,102.018 L 57.593,102.185 z M 54.479,100.411 L 54.529,100.411 C 54.68,100.404 54.909,100.332 55.203,100.175 C 55.494,100.026 55.726,99.876 55.891,99.712 C 55.791,100.04 55.606,100.306 55.348,100.526 C 54.947,100.87 54.681,101.037 54.537,101.037 C 54.446,101.037 54.396,100.975 54.396,100.866 C 54.392,100.683 54.422,100.541 54.479,100.411 z "
   id="path608" />
				<path
   style="fill:#bbb"
   d="M 59.632,102.922 C 59.334,103.543 58.961,104.072 58.523,104.517 C 58.082,104.947 57.7,105.165 57.377,105.165 C 57.128,105.165 56.929,105.059 56.782,104.833 C 56.634,104.608 56.559,104.312 56.559,103.952 C 56.559,103.214 56.777,102.56 57.225,102.004 C 57.67,101.452 58.183,101.169 58.766,101.169 C 59.12,101.169 59.501,101.28 59.916,101.503 C 59.978,101.28 60.222,101.176 60.654,101.176 C 60.684,101.176 60.729,101.176 60.791,101.176 C 60.662,101.383 60.561,101.656 60.488,102.012 L 60.427,102.318 C 60.359,102.647 60.325,103.038 60.325,103.482 C 60.325,103.999 60.448,104.255 60.683,104.255 C 60.934,104.255 61.28,104.042 61.719,103.613 C 62.159,103.194 62.589,102.646 63.009,101.997 L 63.283,102.191 C 62.847,102.975 62.356,103.62 61.799,104.13 C 61.246,104.658 60.768,104.908 60.368,104.908 C 59.864,104.908 59.61,104.497 59.61,103.634 C 59.613,103.453 59.62,103.221 59.632,102.922 z M 59.798,102.076 C 59.308,101.742 58.898,101.586 58.572,101.586 C 58.218,101.586 57.913,101.806 57.654,102.24 C 57.398,102.669 57.271,103.182 57.271,103.776 C 57.271,104.25 57.421,104.483 57.736,104.483 C 58.067,104.483 58.714,103.752 59.657,102.275 C 59.664,102.258 59.711,102.185 59.798,102.076 z "
   id="path617" />
				<path
   style="fill:#bbb"
   d="M 63.477,103.833 C 64.321,102.058 65.068,101.165 65.712,101.165 C 65.997,101.165 66.137,101.376 66.137,101.784 C 66.137,101.956 66.075,102.356 65.953,102.975 L 65.736,104.038 C 66.147,103.171 66.568,102.473 67.011,101.951 C 67.459,101.429 67.836,101.164 68.164,101.164 C 68.514,101.164 68.694,101.375 68.694,101.794 C 68.694,101.944 68.644,102.29 68.539,102.825 L 68.432,103.369 C 68.368,103.706 68.334,103.946 68.334,104.1 C 68.334,104.383 68.432,104.526 68.633,104.526 C 69.083,104.526 69.771,103.691 70.7,102.019 L 70.993,102.183 C 69.98,104.176 69.097,105.159 68.341,105.159 C 67.858,105.159 67.616,104.84 67.616,104.203 C 67.616,103.99 67.663,103.668 67.753,103.19 L 67.848,102.698 C 67.91,102.373 67.941,102.167 67.941,102.09 C 67.941,101.988 67.891,101.934 67.791,101.934 C 67.536,101.934 67.085,102.452 66.44,103.449 C 65.839,104.367 65.548,104.892 65.548,105.026 C 65.548,105.042 65.555,105.072 65.562,105.102 C 65.531,105.105 65.472,105.124 65.389,105.142 C 65.359,105.157 65.304,105.16 65.235,105.16 C 65.014,105.16 64.911,105.058 64.911,104.848 C 64.911,104.782 64.944,104.611 65.015,104.274 C 65.041,104.17 65.07,104.047 65.096,103.902 L 65.246,103.155 C 65.354,102.624 65.409,102.303 65.409,102.185 C 65.409,102.029 65.351,101.956 65.235,101.956 C 64.983,101.956 64.617,102.404 64.121,103.318 C 63.635,104.221 63.391,104.759 63.391,104.93 C 63.391,104.982 63.409,105.019 63.446,105.072 C 63.315,105.132 63.199,105.149 63.092,105.149 C 62.847,105.149 62.725,105.019 62.725,104.759 C 62.725,104.728 62.755,104.381 62.825,103.744 L 62.905,102.993 C 62.934,102.726 62.948,102.475 62.948,102.264 C 62.948,101.981 62.893,101.773 62.782,101.637 C 63.053,101.54 63.245,101.491 63.356,101.491 C 63.56,101.491 63.662,101.616 63.662,101.87 C 63.662,101.947 63.636,102.271 63.581,102.837 L 63.477,103.833 z "
   id="path626" />
				<path
   style="fill:#bbb"
   d="M 75.624,102.899 C 75.304,103.573 74.941,104.112 74.543,104.534 C 74.145,104.949 73.791,105.16 73.474,105.16 C 73.221,105.16 73.013,105.08 72.855,104.892 C 72.696,104.713 72.616,104.483 72.616,104.195 C 72.616,103.818 72.739,103.147 72.992,102.149 C 73.056,101.883 73.093,101.707 73.093,101.634 C 73.093,101.557 73.072,101.488 73.024,101.407 L 73.51,101.407 C 73.724,101.407 73.828,101.484 73.828,101.64 C 73.828,101.739 73.759,102.032 73.619,102.508 C 73.579,102.65 73.551,102.744 73.536,102.807 L 73.485,103.029 C 73.381,103.452 73.33,103.783 73.33,104.009 C 73.33,104.369 73.453,104.54 73.69,104.54 C 74.079,104.54 74.577,104.053 75.174,103.091 C 75.669,102.289 75.913,101.732 75.913,101.392 C 75.913,101.345 75.899,101.297 75.87,101.25 C 76.06,101.191 76.226,101.174 76.357,101.174 C 76.56,101.174 76.666,101.247 76.666,101.367 C 76.666,101.396 76.659,101.443 76.642,101.497 C 76.631,101.534 76.609,101.618 76.569,101.749 C 76.566,101.782 76.545,101.867 76.498,102.033 C 76.47,102.151 76.443,102.245 76.433,102.308 L 76.398,102.471 C 76.323,102.86 76.283,103.225 76.283,103.562 C 76.283,104.083 76.409,104.338 76.657,104.338 C 77.202,104.338 77.893,103.562 78.739,102.016 L 79.031,102.197 C 78.073,104.049 77.198,104.973 76.405,104.973 C 75.872,104.973 75.601,104.507 75.601,103.577 C 75.596,103.385 75.603,103.158 75.624,102.899 z "
   id="path635" />
				<path
   style="fill:#bbb"
   d="M 80.703,103.686 C 80.774,103.795 80.792,103.909 80.792,103.985 C 80.792,104.214 80.595,104.473 80.213,104.746 C 79.831,105.02 79.473,105.158 79.16,105.158 C 78.879,105.158 78.645,105.031 78.479,104.779 C 78.302,104.532 78.21,104.201 78.21,103.807 C 78.21,103.366 78.33,102.728 78.558,101.909 L 78.713,101.319 L 78.13,101.319 C 77.883,101.319 77.687,101.354 77.54,101.427 C 77.677,101.18 77.786,101.027 77.876,100.958 C 77.966,100.884 78.113,100.862 78.326,100.862 L 78.852,100.862 L 78.928,100.626 C 79.028,100.258 79.165,100.007 79.31,99.871 C 79.46,99.748 79.685,99.664 79.987,99.664 C 80.024,99.664 80.074,99.668 80.157,99.671 C 79.973,99.904 79.782,100.313 79.588,100.862 L 81.441,100.862 C 81.773,100.862 82.014,100.822 82.183,100.742 C 82.125,100.971 82.052,101.136 81.955,101.208 C 81.862,101.285 81.677,101.318 81.414,101.318 L 79.443,101.318 C 79.415,101.393 79.4,101.452 79.386,101.492 C 79.105,102.462 78.956,103.194 78.956,103.692 C 78.956,104.232 79.158,104.52 79.547,104.52 C 79.748,104.52 79.969,104.437 80.211,104.257 C 80.429,104.094 80.602,103.901 80.703,103.686 z "
   id="path644" />
				<path
   style="fill:#bbb"
   d="M 84.339,103.606 C 84.339,104.29 84.627,104.632 85.21,104.632 C 85.712,104.632 86.26,104.395 86.871,103.915 C 87.471,103.434 88.015,102.795 88.504,102.011 L 88.799,102.184 C 88.342,103.041 87.751,103.762 87.011,104.318 C 86.288,104.885 85.586,105.16 84.929,105.16 C 84.515,105.16 84.178,105.022 83.943,104.76 C 83.702,104.49 83.571,104.102 83.571,103.631 C 83.571,102.945 83.796,102.363 84.235,101.886 C 84.685,101.392 85.211,101.157 85.838,101.157 C 86.135,101.157 86.377,101.233 86.556,101.391 C 86.746,101.532 86.827,101.742 86.827,101.996 C 86.827,102.406 86.585,102.795 86.074,103.12 C 85.571,103.438 84.998,103.606 84.339,103.606 z M 84.367,103.259 C 84.861,103.238 85.275,103.095 85.629,102.845 C 85.983,102.587 86.15,102.291 86.15,101.956 C 86.15,101.648 86.028,101.499 85.757,101.499 C 85.445,101.499 85.153,101.675 84.875,102.019 C 84.602,102.356 84.438,102.775 84.367,103.259 z "
   id="path653" />
				<path
   style="fill:#bbb"
   d="M 88.987,103.803 C 89.823,102.042 90.573,101.154 91.232,101.154 C 91.755,101.154 92.014,101.671 92.014,102.707 L 92.014,103.133 C 92.014,103.625 92.042,103.968 92.09,104.149 C 92.14,104.342 92.23,104.431 92.367,104.431 C 92.568,104.431 92.791,104.267 93.043,103.949 C 93.304,103.626 93.721,102.985 94.297,102.022 L 94.599,102.193 C 94.079,103.167 93.621,103.899 93.214,104.369 C 92.806,104.835 92.439,105.067 92.113,105.067 C 91.819,105.067 91.605,104.924 91.487,104.641 C 91.368,104.358 91.299,103.851 91.299,103.145 L 91.299,102.843 C 91.299,102.453 91.273,102.179 91.223,102.022 C 91.173,101.864 91.083,101.793 90.972,101.793 C 90.661,101.793 90.154,102.409 89.471,103.655 C 89.302,103.958 89.191,104.149 89.141,104.237 C 88.963,104.547 88.873,104.776 88.873,104.918 C 88.873,104.984 88.892,105.024 88.921,105.09 C 88.783,105.145 88.672,105.167 88.574,105.167 C 88.344,105.167 88.218,105.039 88.218,104.78 C 88.218,104.703 88.254,104.373 88.311,103.771 L 88.387,103.006 C 88.431,102.674 88.446,102.423 88.446,102.252 C 88.446,102.001 88.387,101.803 88.276,101.657 C 88.331,101.642 88.409,101.605 88.52,101.577 C 88.669,101.518 88.776,101.5 88.874,101.5 C 89.062,101.5 89.142,101.639 89.142,101.905 C 89.142,102.041 89.121,102.285 89.088,102.619 C 89.08,102.696 89.075,102.768 89.065,102.846 L 88.987,103.803 z "
   id="path662" />
				<path
   style="fill:#bbb"
   d="M 97.77,102.185 C 97.244,103.122 96.71,103.842 96.167,104.372 C 95.641,104.9 95.145,105.161 94.725,105.161 C 94.462,105.161 94.253,105.081 94.09,104.91 C 93.928,104.737 93.855,104.521 93.855,104.225 C 93.855,104.124 93.875,103.956 93.933,103.723 L 94.007,103.332 C 94.115,102.782 94.18,102.379 94.18,102.161 C 94.18,102.028 94.14,101.924 94.061,101.825 C 94.365,101.751 94.562,101.728 94.63,101.728 C 94.808,101.728 94.894,101.847 94.894,102.101 C 94.894,102.284 94.853,102.539 94.79,102.876 L 94.652,103.564 C 94.576,103.901 94.554,104.101 94.554,104.207 C 94.554,104.498 94.673,104.647 94.922,104.647 C 95.214,104.647 95.605,104.399 96.084,103.908 C 96.572,103.408 97.049,102.782 97.507,102.018 L 97.77,102.185 z M 94.656,100.411 L 94.711,100.411 C 94.865,100.404 95.088,100.332 95.387,100.175 C 95.678,100.026 95.913,99.876 96.068,99.712 C 95.973,100.04 95.788,100.306 95.529,100.526 C 95.135,100.87 94.858,101.037 94.718,101.037 C 94.63,101.037 94.575,100.975 94.575,100.866 C 94.573,100.683 94.602,100.541 94.656,100.411 z "
   id="path671" />
			</g><path
   style="fill:url(#path684_1_)"
   d="M 44.276183,93.255715 C 49.288852,98.588675 57.492323,106.38959 57.492323,106.38959 C 57.492323,106.38959 52.633993,95.204695 52.048892,83.785985 C 52.048892,83.785985 41.886721,83.894943 31.34085,78.794771 C 31.34085,78.787718 39.258463,87.916705 44.276183,93.255715 z "
   id="path684"
   sodipodi:nodetypes="ccccc" /><path
   style="fill:white"
   d="M 51.825952,84.740315 C 51.825952,84.740315 44.217672,84.817905 34.849052,81.144696 L 31.705662,78.789608 C 42.249523,83.896835 53.658922,82.888086 53.658922,82.888086 C 54.247042,94.308805 58.219652,106.38254 58.219652,106.38254 L 56.024532,103.20816 C 54.537573,99.077435 52.222402,92.406195 51.825952,84.740315 z "
   id="path686" /><g
   id="g3943"
   transform="matrix(-0.675435,0,0,0.675435,54.37377,18.41411)"><path
     style="fill:url(#linearGradient3953)"
     d="M 75.059905,28.623765 C 75.059905,25.191765 75.059905,4.0270685 75.059905,4.0270685 C 75.059905,2.4125603 74.10485,0.94087233 72.604414,0.33202751 C 71.70688,-0.03217235 71.026699,0.010989396 71.026699,0.010989396 C 69.977317,0.010989396 68.983056,0.40969018 68.22904,1.1346228 L 13.278429,53.841829 C 12.494255,54.593679 12.042888,55.648962 12.042888,56.734279 C 12.042888,57.820629 12.494255,58.873842 13.278429,59.626728 L 68.22904,112.33498 C 69.396985,113.45447 71.111982,113.77032 72.604414,113.13861 C 74.097884,112.50481 75.058865,111.05497 75.058865,109.44252 C 75.058865,109.44252 75.058865,88.277827 75.058865,84.845826 L 75.059905,28.623765 z "
     id="path3010"
     sodipodi:nodetypes="ccscccsccsccc" /><path
     sodipodi:nodetypes="cscccccccc"
     id="path3104"
     d="M 72.954506,1.0982529 C 72.78705,0.99658756 72.58957,0.91962496 72.404522,0.84352006 C 71.518955,0.47932106 70.845155,0.50134966 70.845155,0.50134966 C 69.809774,0.50135066 68.948308,1.1153131 68.204356,1.8402488 L 44.45658,26.596211 L 69.181015,2.9678317 C 70.887787,1.3858642 73.00952,2.2071728 73.00952,4.9408466 L 73.142079,29.024422 C 73.142069,25.559735 74.516528,4.5193776 74.516528,4.5193776 C 74.516538,3.1066877 74.126628,1.8098954 72.954506,1.0982529 z "
     style="fill:url(#linearGradient3955);fill-opacity:1" /><path
     style="fill:url(#linearGradient3957);fill-opacity:1"
     d="M 72.954506,1.0982529 C 72.78705,0.99658756 72.58957,0.91962496 72.404522,0.84352006 C 71.518955,0.47932106 70.845155,0.50134966 70.845155,0.50134966 C 69.809774,0.50135066 68.948308,1.1153131 68.204356,1.8402488 L 44.45658,26.596211 L 68.893408,2.3104434 C 69.963824,1.240027 71.337825,1.2226333 72.398361,1.7647858 C 73.307356,2.2294693 73.831255,3.0628767 73.831255,4.5710657 L 73.142079,29.024422 C 73.142069,25.559735 74.516528,4.5193776 74.516528,4.5193776 C 74.516538,3.1066877 74.126628,1.8098954 72.954506,1.0982529 z "
     id="path3125"
     sodipodi:nodetypes="csccccscccc" /><path
     style="fill:url(#radialGradient3959)"
     d="M 73.042262,30.631808 C 73.042262,27.159417 73.042262,4.0270685 73.042262,4.0270685 C 73.042262,3.2224015 72.558652,2.4943663 71.815036,2.1795431 C 71.561271,2.0718464 71.292945,2.0190241 71.024619,2.0190241 C 70.515009,2.0190241 70.006439,2.2137206 69.62475,2.5803253 L 14.674149,55.287537 C 14.2779,55.666568 14.054288,56.188514 14.054288,56.733242 C 14.054288,57.277972 14.2779,57.800955 14.674149,58.178949 L 69.62475,110.8872 C 70.209242,111.44538 71.07038,111.60073 71.812956,111.28901 C 72.556572,110.97211 73.040182,110.24616 73.040182,109.44149 C 73.040182,109.44149 73.040182,86.308104 73.040182,82.837784 L 73.042262,30.631808 z "
     id="path3024"
     sodipodi:nodetypes="ccssccsccsccc" /><path
     style="fill:url(#linearGradient3961)"
     d="M 71.026699,4.0260375 L 16.076094,56.734279 L 71.026699,109.44149 L 71.026699,4.0260375 z "
     id="path3026"
     sodipodi:nodetypes="cccc" /><path
     style="fill:url(#radialGradient3963)"
     d="M 65.984673,15.832991 C 54.790914,26.569123 28.79036,51.509642 23.341683,56.735314 C 28.79036,61.960985 54.790914,86.902541 65.984673,97.637641 L 65.984673,15.832991 z "
     id="path3028"
     sodipodi:nodetypes="cccc" /><path
     sodipodi:nodetypes="ccscccsccc"
     id="path3097"
     d="M 74.675547,29.275921 C 74.675547,25.843931 74.675548,4.6973217 74.675547,4.6973217 C 74.675547,3.0848717 73.728589,1.6414218 72.235119,1.0076318 C 70.742688,0.37591178 69.016103,0.73065725 67.848158,1.8501573 L 53.093687,15.671102 L 68.167738,1.2109918 C 69.341944,0.085521734 71.141425,-0.31021011 72.641857,0.32488994 C 74.143332,0.96207996 75.02418,2.4951717 75.02418,4.1162717 C 75.024179,4.1162717 74.68215,25.814971 74.68215,29.265361 L 74.675547,29.275921 z "
     style="fill:#0d4824;fill-opacity:1" /><path
     sodipodi:nodetypes="ccscccsccc"
     id="path3127"
     d="M 72.831967,88.610792 C 72.811179,91.309632 72.029314,109.0909 72.029314,109.0909 C 72.02448,109.71668 71.656372,110.10263 71.229937,110.26796 C 70.801282,110.43415 70.278159,110.3862 69.79845,109.94838 L 54.238227,96.106394 L 69.665221,110.89423 C 70.249715,111.4524 71.101596,111.61269 71.844174,111.30097 C 72.587794,110.98406 73.093441,110.24626 73.093441,109.44159 C 73.093441,109.44159 73.093441,86.299619 73.093441,82.829301 L 72.831967,88.610792 z "
     style="fill:#eeeeec" /></g></svg>