<?xml version="1.0" encoding="UTF-8" standalone="no"?>
<!-- Created with Inkscape (http://www.inkscape.org/) -->
<svg
   xmlns:dc="http://purl.org/dc/elements/1.1/"
   xmlns:cc="http://web.resource.org/cc/"
   xmlns:rdf="http://www.w3.org/1999/02/22-rdf-syntax-ns#"
   xmlns:svg="http://www.w3.org/2000/svg"
   xmlns="http://www.w3.org/2000/svg"
   xmlns:xlink="http://www.w3.org/1999/xlink"
   xmlns:sodipodi="http://inkscape.sourceforge.net/DTD/sodipodi-0.dtd"
   xmlns:inkscape="http://www.inkscape.org/namespaces/inkscape"
   width="128"
   height="128"
   id="svg1307"
   sodipodi:version="0.32"
   inkscape:version="0.43"
   version="1.0"
   sodipodi:docbase="/home/pinheiro/Documents/pics/new oxygen/svg"
   sodipodi:docname="pencil.svg">
  <defs
     id="defs1309">
    <linearGradient
       id="linearGradient3325">
      <stop
         id="stop3327"
         offset="0"
         style="stop-color:#ffffff;stop-opacity:1;" />
      <stop
         id="stop3329"
         offset="1"
         style="stop-color:#ffffff;stop-opacity:0;" />
    </linearGradient>
    <linearGradient
       id="linearGradient3311">
      <stop
         style="stop-color:#2d2d2d;stop-opacity:1;"
         offset="0"
         id="stop3313" />
      <stop
         id="stop3319"
         offset="0.5"
         style="stop-color:#000000;stop-opacity:1;" />
      <stop
         style="stop-color:#000000;stop-opacity:1;"
         offset="1"
         id="stop3315" />
    </linearGradient>
    <linearGradient
       id="linearGradient3303">
      <stop
         style="stop-color:#ffffff;stop-opacity:0.68345326;"
         offset="0"
         id="stop3305" />
      <stop
         style="stop-color:#ffffff;stop-opacity:0;"
         offset="1"
         id="stop3307" />
    </linearGradient>
    <linearGradient
       inkscape:collect="always"
       id="linearGradient3291">
      <stop
         style="stop-color:#000000;stop-opacity:1;"
         offset="0"
         id="stop3293" />
      <stop
         style="stop-color:#000000;stop-opacity:0;"
         offset="1"
         id="stop3295" />
    </linearGradient>
    <linearGradient
       id="linearGradient3273">
      <stop
         style="stop-color:#ffffff;stop-opacity:0.55035973;"
         offset="0"
         id="stop3275" />
      <stop
         style="stop-color:#ffffff;stop-opacity:0;"
         offset="1"
         id="stop3277" />
    </linearGradient>
    <linearGradient
       id="linearGradient3259">
      <stop
         id="stop3261"
         offset="0"
         style="stop-color:#ffffff;stop-opacity:0.55035973;" />
      <stop
         id="stop3263"
         offset="1"
         style="stop-color:#000000;stop-opacity:0;" />
    </linearGradient>
    <linearGradient
       id="linearGradient3251">
      <stop
         style="stop-color:#000000;stop-opacity:1;"
         offset="0"
         id="stop3253" />
      <stop
         style="stop-color:#131313;stop-opacity:0;"
         offset="1"
         id="stop3255" />
    </linearGradient>
    <linearGradient
       inkscape:collect="always"
       id="linearGradient3235">
      <stop
         style="stop-color:#ffffff;stop-opacity:1;"
         offset="0"
         id="stop3237" />
      <stop
         style="stop-color:#ffffff;stop-opacity:0;"
         offset="1"
         id="stop3239" />
    </linearGradient>
    <linearGradient
       id="linearGradient3225">
      <stop
         style="stop-color:#ffffff;stop-opacity:1;"
         offset="0"
         id="stop3227" />
      <stop
         style="stop-color:#aeaeae;stop-opacity:1;"
         offset="1"
         id="stop3229" />
    </linearGradient>
    <linearGradient
       inkscape:collect="always"
       id="linearGradient3217">
      <stop
         style="stop-color:#252525;stop-opacity:1;"
         offset="0"
         id="stop3219" />
      <stop
         style="stop-color:#252525;stop-opacity:0;"
         offset="1"
         id="stop3221" />
    </linearGradient>
    <linearGradient
       id="linearGradient3207">
      <stop
         style="stop-color:#ffffff;stop-opacity:1;"
         offset="0"
         id="stop3209" />
      <stop
         style="stop-color:#252525;stop-opacity:0;"
         offset="1"
         id="stop3211" />
    </linearGradient>
    <linearGradient
       id="linearGradient2257">
      <stop
         style="stop-color:#b4942a;stop-opacity:1;"
         offset="0"
         id="stop2259" />
      <stop
         style="stop-color:#e4dcc9;stop-opacity:1"
         offset="1"
         id="stop2261" />
    </linearGradient>
    <radialGradient
       inkscape:collect="always"
       xlink:href="#linearGradient2257"
       id="radialGradient3193"
       gradientUnits="userSpaceOnUse"
       gradientTransform="matrix(1.051485,1.10142,-10.02032,9.508599,1194.683,-1087.401)"
       cx="42.617531"
       cy="120.64188"
       fx="42.617531"
       fy="120.64188"
       r="3.406888" />
    <radialGradient
       inkscape:collect="always"
       xlink:href="#linearGradient3207"
       id="radialGradient3213"
       cx="49.011971"
       cy="2.6743078"
       fx="49.011971"
       fy="2.6743078"
       r="1.7246193"
       gradientTransform="matrix(1.29707,-3.690111e-16,5.653505e-17,0.1578,29.9062,-81.99256)"
       gradientUnits="userSpaceOnUse" />
    <linearGradient
       inkscape:collect="always"
       xlink:href="#linearGradient3217"
       id="linearGradient3223"
       x1="48.914677"
       y1="2.9719031"
       x2="48.913002"
       y2="2.5548496"
       gradientUnits="userSpaceOnUse"
       gradientTransform="matrix(1.29707,-2.882421e-16,2.882421e-16,1.29707,29.9062,-85.00514)" />
    <radialGradient
       inkscape:collect="always"
       xlink:href="#linearGradient3225"
       id="radialGradient3231"
       cx="49.009884"
       cy="8.4953122"
       fx="47.370888"
       fy="6.7701697"
       r="3.9750405"
       gradientTransform="matrix(0.949885,0.883237,-0.332759,0.357869,75.10881,-36.85803)"
       gradientUnits="userSpaceOnUse" />
    <linearGradient
       inkscape:collect="always"
       xlink:href="#linearGradient3235"
       id="linearGradient3241"
       x1="48.498562"
       y1="0.81150496"
       x2="48.732723"
       y2="2.3657269"
       gradientUnits="userSpaceOnUse"
       gradientTransform="matrix(0.949885,0.883237,-0.883237,0.949885,79.78528,-41.88739)" />
    <linearGradient
       inkscape:collect="always"
       xlink:href="#linearGradient3251"
       id="linearGradient3257"
       x1="46.051746"
       y1="3.0999987"
       x2="46.051746"
       y2="2.395859"
       gradientUnits="userSpaceOnUse"
       gradientTransform="matrix(1.28993,-4.215799e-16,4.239134e-16,1.29707,30.24383,-85.00514)" />
    <linearGradient
       inkscape:collect="always"
       xlink:href="#linearGradient3251"
       id="linearGradient3269"
       gradientUnits="userSpaceOnUse"
       gradientTransform="matrix(1.279856,4.182878e-16,-4.239134e-16,1.29707,-156.2283,-85.00514)"
       x1="46.051746"
       y1="3.0999987"
       x2="46.051746"
       y2="2.395859" />
    <radialGradient
       inkscape:collect="always"
       xlink:href="#linearGradient3259"
       id="radialGradient3271"
       gradientUnits="userSpaceOnUse"
       gradientTransform="matrix(0.853446,3.338291e-16,-4.830784e-17,0.1578,-139.0083,-81.99256)"
       cx="49.011971"
       cy="2.6743078"
       fx="49.011971"
       fy="2.6743078"
       r="1.7246193" />
    <radialGradient
       inkscape:collect="always"
       xlink:href="#linearGradient3273"
       id="radialGradient3282"
       gradientUnits="userSpaceOnUse"
       gradientTransform="matrix(0.860164,-2.262197e-16,5.486358e-17,0.1578,47.5995,-81.99256)"
       cx="49.011971"
       cy="2.6743078"
       fx="49.011971"
       fy="2.6743078"
       r="1.7246193" />
    <radialGradient
       inkscape:collect="always"
       xlink:href="#linearGradient3291"
       id="radialGradient3297"
       cx="63.912209"
       cy="115.70919"
       fx="14.046639"
       fy="115.70919"
       r="63.912209"
       gradientTransform="matrix(1,0,0,0.197802,0,92.82166)"
       gradientUnits="userSpaceOnUse" />
    <radialGradient
       inkscape:collect="always"
       xlink:href="#linearGradient3303"
       id="radialGradient3309"
       cx="34.677639"
       cy="7.4622769"
       fx="34.677639"
       fy="7.4622769"
       r="47.595197"
       gradientTransform="matrix(1,6.423898e-17,-3.845556e-19,2.608014e-2,-9.252624e-15,7.26766)"
       gradientUnits="userSpaceOnUse" />
    <radialGradient
       inkscape:collect="always"
       xlink:href="#linearGradient3311"
       id="radialGradient3317"
       cx="95.505852"
       cy="59.591507"
       fx="95.505852"
       fy="59.591507"
       r="47.746404"
       gradientTransform="matrix(4.581438e-2,4.220082e-2,-0.541075,0.587403,107.601,19.35073)"
       gradientUnits="userSpaceOnUse" />
    <radialGradient
       inkscape:collect="always"
       xlink:href="#linearGradient3325"
       id="radialGradient3323"
       gradientUnits="userSpaceOnUse"
       gradientTransform="matrix(-1.511766,-6.865741e-3,4.187271e-5,-9.110636e-3,87.10184,7.76835)"
       cx="34.677639"
       cy="7.4622769"
       fx="34.677639"
       fy="7.4622769"
       r="47.595196" />
  </defs>
  <sodipodi:namedview
     id="base"
     pagecolor="#ffffff"
     bordercolor="#666666"
     borderopacity="1.0"
     inkscape:pageopacity="0.0"
     inkscape:pageshadow="2"
     inkscape:zoom="5.6953125"
     inkscape:cx="64"
     inkscape:cy="64"
     inkscape:current-layer="layer1"
     showgrid="false"
     inkscape:document-units="px"
     inkscape:grid-bbox="true"
     guidetolerance="0.1px"
     showguides="true"
     inkscape:guide-bbox="true"
     inkscape:window-width="938"
     inkscape:window-height="893"
     inkscape:window-x="601"
     inkscape:window-y="90">
    <sodipodi:guide
       orientation="horizontal"
       position="32.487481"
       id="guide2204" />
  </sodipodi:namedview>
  <metadata
     id="metadata1312">
    <rdf:RDF>
      <cc:Work
         rdf:about="">
        <dc:format>image/svg+xml</dc:format>
        <dc:type
           rdf:resource="http://purl.org/dc/dcmitype/StillImage" />
        <cc:license
           rdf:resource="http://creativecommons.org/licenses/GPL/2.0/" />
        <dc:contributor>
          <cc:Agent>
            <dc:title>Oxygen team</dc:title>
          </cc:Agent>
        </dc:contributor>
      </cc:Work>
      <cc:License
         rdf:about="http://creativecommons.org/licenses/LGPL/2.1/">
        <cc:permits
           rdf:resource="http://web.resource.org/cc/Reproduction" />
        <cc:permits
           rdf:resource="http://web.resource.org/cc/Distribution" />
        <cc:requires
           rdf:resource="http://web.resource.org/cc/Notice" />
        <cc:permits
           rdf:resource="http://web.resource.org/cc/DerivativeWorks" />
        <cc:requires
           rdf:resource="http://web.resource.org/cc/ShareAlike" />
        <cc:requires
           rdf:resource="http://web.resource.org/cc/SourceCode" />
      </cc:License>
    </rdf:RDF>
  </metadata>
  <g
     id="layer1"
     inkscape:label="Layer 1"
     inkscape:groupmode="layer">
    <path
       style="fill:#000000;fill-opacity:1;fill-rule:evenodd;stroke:none;stroke-width:1px;stroke-linecap:butt;stroke-linejoin:miter;stroke-opacity:1"
       d="M 120.2337,0.3279406 C 120.5948,-0.060421283 122.91947,0.16854638 125.35809,2.4360577 C 127.82062,4.7257983 128.28509,6.9073927 127.83276,7.3938298 C 127.53836,7.7104587 127.24395,8.0270866 126.94955,8.3437156 C 124.41651,5.9884183 121.88349,3.6331227 119.35046,1.2778257 C 119.64487,0.96119689 119.93928,0.64456944 120.2337,0.3279406 C 120.2337,0.3279406 120.2337,0.3279406 120.2337,0.3279406"
       id="path3180"
       sodipodi:nodetypes="czccccc" />
    <path
       sodipodi:nodetypes="cccccc"
       id="path3299"
       d="M 13.275464,122.97642 L 34.029245,108.27578 L 34.146962,108.14918 L 26.672948,100.94878 L 26.513382,101.12032 L 13.275464,122.97642 z "
       style="fill:#000000;fill-opacity:1;fill-rule:evenodd;stroke:#000000;stroke-width:0;stroke-linecap:butt;stroke-linejoin:miter;stroke-miterlimit:4;stroke-dasharray:none;stroke-opacity:1" />
    <path
       style="fill:url(#radialGradient3193);fill-opacity:1;fill-rule:evenodd;stroke:#000000;stroke-width:0;stroke-linecap:butt;stroke-linejoin:miter;stroke-miterlimit:4;stroke-dasharray:none;stroke-opacity:1"
       d="M 14.475464,121.77642 L 33.829245,108.07578 L 33.946962,107.94918 L 26.872948,101.14878 L 26.713382,101.32032 L 14.475464,121.77642 z "
       id="path2247"
       sodipodi:nodetypes="cccccc" />
    <path
       style="fill:#252525;fill-opacity:1;fill-rule:nonzero;stroke:none;stroke-width:0.5;stroke-linecap:round;stroke-linejoin:round;stroke-miterlimit:4;stroke-dasharray:none;stroke-dashoffset:4;stroke-opacity:1"
       d="M 29.730879,105.27944 C 30.668163,106.15096 31.628241,105.82595 31.963276,106.13748 C 32.017419,106.18782 32.053324,106.25651 32.078713,106.32991 L 125.46303,5.8988116 L 121.77944,2.4736831 L 28.289048,103.01885 C 28.457251,103.00556 28.606403,103.01613 28.712364,103.11467 C 29.018606,103.39942 28.789242,104.40387 29.730879,105.27944 z "
       id="rect2192"
       sodipodi:nodetypes="csccccsz" />
    <path
       sodipodi:nodetypes="ccsccc"
       style="fill:url(#radialGradient3317);fill-opacity:1.0;fill-rule:nonzero;stroke:none;stroke-width:0.5;stroke-linecap:round;stroke-linejoin:round;stroke-miterlimit:4;stroke-dasharray:none;stroke-dashoffset:4;stroke-opacity:1"
       d="M 125.32854,5.7737715 L 31.986662,106.15923 C 32.28106,106.48241 31.979978,107.25918 32.545765,107.78526 C 33.155502,108.35223 33.714843,107.8236 34.111073,108.18776 L 127.47947,7.7737841 L 125.32854,5.7737715 z "
       id="rect2190" />
    <path
       id="path2233"
       d="M 34.073353,103.91508 L 31.885488,106.26803 C 32.178271,106.58971 31.774874,107.47421 32.337783,107.99761 C 32.944419,108.56169 33.604731,107.92411 33.998965,108.28639 L 36.213344,105.9049 L 34.073353,103.91508 z "
       style="opacity:0.35348834;fill:#000000;fill-opacity:1;fill-rule:nonzero;stroke:none;stroke-width:0.5;stroke-linecap:round;stroke-linejoin:round;stroke-miterlimit:4;stroke-dasharray:none;stroke-dashoffset:4;stroke-opacity:1"
       sodipodi:nodetypes="ccsccc" />
    <path
       id="path2231"
       d="M 29.776017,101.97179 L 28.653689,103.17881 L 28.611187,103.22348 C 28.8613,103.47169 28.494344,104.37166 29.296829,105.26576 L 29.343606,105.30925 L 29.676883,105.61914 L 29.723659,105.66264 C 30.682573,106.40637 31.553207,105.95908 31.888239,106.27059 L 33.076881,104.98559 L 29.776017,101.97179 z "
       style="opacity:0.38604653;fill:#252525;fill-opacity:1;fill-rule:nonzero;stroke:none;stroke-width:0.5;stroke-linecap:round;stroke-linejoin:round;stroke-miterlimit:4;stroke-dasharray:none;stroke-dashoffset:4;stroke-opacity:1"
       sodipodi:nodetypes="cccccccccc" />
    <path
       id="path2229"
       d="M 27.647358,99.968727 L 26.511342,101.12349 C 26.523086,101.13436 26.430356,101.23498 26.442145,101.24594 C 26.682588,101.46951 26.347435,102.36908 26.747121,102.89496 L 26.788049,102.93301 L 26.969305,103.10155 L 26.992693,103.12329 C 27.559131,103.50208 28.320768,103.03268 28.611187,103.22348 L 29.787349,101.95857 L 27.647358,99.968727 z "
       style="opacity:0.35348834;fill:#131313;fill-opacity:1;fill-rule:nonzero;stroke:none;stroke-width:0.5;stroke-linecap:round;stroke-linejoin:round;stroke-miterlimit:4;stroke-dasharray:none;stroke-dashoffset:4;stroke-opacity:1"
       sodipodi:nodetypes="ccsccccccc" />
    <path
       style="fill:#131313;fill-opacity:1;fill-rule:nonzero;stroke:none;stroke-width:0.5;stroke-linecap:round;stroke-linejoin:round;stroke-miterlimit:4;stroke-dasharray:none;stroke-dashoffset:4;stroke-opacity:1"
       d="M 27.08942,102.79163 C 27.679597,103.3277 28.39996,102.82418 28.712364,103.11467 L 122.05426,2.7292135 L 119.8804,0.7078949 L 26.511992,101.12187 C 26.523928,101.1329 26.535652,101.14387 26.547628,101.15501 C 26.791874,101.38212 26.494827,102.25144 27.08942,102.79163 z "
       id="rect1315"
       sodipodi:nodetypes="cccccsz" />
    <path
       sodipodi:nodetypes="ccc"
       id="path2276"
       d="M 50.892799,3.2812959 L 50.892799,0.48658747 L 50.892799,3.2812959 z "
       style="fill:#ffffff;fill-opacity:0.75688076;fill-rule:nonzero;stroke:none;stroke-width:0.5;stroke-linecap:round;stroke-linejoin:round;stroke-miterlimit:4;stroke-dasharray:none;stroke-dashoffset:4;stroke-opacity:1" />
    <path
       sodipodi:nodetypes="cccccccccc"
       id="path2274"
       d="M 116.32706,4.536041 C 115.25095,5.2068466 114.23034,6.3772552 113.68159,7.3811295 L 119.79068,13.009939 L 122.43614,10.164851 L 116.32706,4.536041 z M 121.79408,9.5678581 L 119.14862,12.412946 L 121.28878,14.402929 C 122.22611,13.843146 123.30222,12.728249 123.93424,11.557841 L 121.79408,9.5678581 z "
       style="fill:url(#radialGradient3231);fill-opacity:1;fill-rule:nonzero;stroke:none;stroke-width:0.5;stroke-linecap:round;stroke-linejoin:round;stroke-miterlimit:4;stroke-dasharray:none;stroke-dashoffset:4;stroke-opacity:1;opacity:1" />
    <path
       style="fill:#000000;fill-opacity:1;fill-rule:evenodd;stroke:none;stroke-width:0;stroke-linecap:butt;stroke-linejoin:miter;stroke-miterlimit:4;stroke-dasharray:none;stroke-opacity:1"
       d="M 22.199642,116.68441 C 20.808321,116.54625 19.615246,114.44302 18.846539,113.79901 L 13.276572,122.9718 L 22.199642,116.68441 z "
       id="path2265"
       sodipodi:nodetypes="cccc" />
    <rect
       y="-81.613525"
       x="91.241226"
       height="0.62928885"
       width="4.4739032"
       id="rect3215"
       style="opacity:1;fill:url(#linearGradient3223);fill-opacity:1;fill-rule:nonzero;stroke:none;stroke-width:0;stroke-linecap:round;stroke-linejoin:round;stroke-miterlimit:4;stroke-dasharray:none;stroke-dashoffset:4;stroke-opacity:1"
       transform="matrix(0.732332,0.680948,-0.680948,0.732332,0,0)" />
    <rect
       style="opacity:1;fill:url(#radialGradient3213);fill-opacity:1;fill-rule:nonzero;stroke:none;stroke-width:0;stroke-linecap:round;stroke-linejoin:round;stroke-miterlimit:4;stroke-dasharray:none;stroke-dashoffset:4;stroke-opacity:1"
       id="rect3205"
       width="4.4739032"
       height="0.97931373"
       x="91.241226"
       y="-81.963554"
       transform="matrix(0.732332,0.680948,-0.680948,0.732332,0,0)" />
    <path
       style="fill:url(#linearGradient3241);fill-opacity:1;fill-rule:evenodd;stroke:none;stroke-width:1px;stroke-linecap:butt;stroke-linejoin:miter;stroke-opacity:1"
       d="M 124.59638,1.9282306 C 126.17448,3.1870529 127.28734,4.9058444 127.34735,5.0700792 C 127.40735,5.2343141 125.88589,3.3065467 124.57943,2.4129659 C 123.28296,1.5262067 121.45032,1.4720488 121.31674,1.3645193 C 121.18316,1.256991 120.28431,0.27542874 121.11472,0.32582119 C 121.98329,0.37853021 123.37744,0.95681281 124.59638,1.9282306 z "
       id="path3233"
       sodipodi:nodetypes="cszsss" />
    <rect
       style="opacity:1;fill:url(#linearGradient3257);fill-opacity:1;fill-rule:nonzero;stroke:none;stroke-width:0;stroke-linecap:round;stroke-linejoin:round;stroke-miterlimit:4;stroke-dasharray:none;stroke-dashoffset:4;stroke-opacity:1"
       id="rect3243"
       width="2.966912"
       height="0.62928885"
       x="88.274376"
       y="-81.613525"
       transform="matrix(0.732332,0.680948,-0.680948,0.732332,0,0)" />
    <rect
       y="-81.963554"
       x="88.274376"
       height="0.97931373"
       width="2.966912"
       id="rect3245"
       style="opacity:1;fill:url(#radialGradient3282);fill-opacity:1;fill-rule:nonzero;stroke:none;stroke-width:0;stroke-linecap:round;stroke-linejoin:round;stroke-miterlimit:4;stroke-dasharray:none;stroke-dashoffset:4;stroke-opacity:1"
       transform="matrix(0.732332,0.680948,-0.680948,0.732332,0,0)" />
    <rect
       y="-81.613525"
       x="-98.650932"
       height="0.62928885"
       width="2.9437411"
       id="rect3265"
       style="opacity:1;fill:url(#linearGradient3269);fill-opacity:1;fill-rule:nonzero;stroke:none;stroke-width:0;stroke-linecap:round;stroke-linejoin:round;stroke-miterlimit:4;stroke-dasharray:none;stroke-dashoffset:4;stroke-opacity:1"
       transform="matrix(-0.732332,-0.680948,-0.680948,0.732332,0,0)" />
    <rect
       style="opacity:1;fill:url(#radialGradient3271);fill-opacity:1;fill-rule:nonzero;stroke:none;stroke-width:0;stroke-linecap:round;stroke-linejoin:round;stroke-miterlimit:4;stroke-dasharray:none;stroke-dashoffset:4;stroke-opacity:1"
       id="rect3267"
       width="2.9437411"
       height="0.97931373"
       x="-98.650932"
       y="-81.963554"
       transform="matrix(-0.732332,-0.680948,-0.680948,0.732332,0,0)" />
    <path
       style="font-size:12px;font-style:normal;font-variant:normal;font-weight:bold;font-stretch:normal;text-align:start;line-height:125%;writing-mode:lr-tb;text-anchor:start;fill:#999999;fill-opacity:1;stroke:none;stroke-width:1px;stroke-linecap:butt;stroke-linejoin:miter;stroke-opacity:1;font-family:Bitstream Vera Sans"
       d="M 38.179597,101.1187 C 38.007649,101.30343 37.910439,101.48035 37.887958,101.64943 C 37.865481,101.81854 37.919852,101.96416 38.051084,102.0863 C 38.181756,102.20793 38.33062,102.25148 38.497678,102.21696 C 38.664725,102.18242 38.834227,102.0728 39.006174,101.88807 C 39.179096,101.70229 39.276795,101.52485 39.299279,101.35575 C 39.321753,101.18665 39.267654,101.04129 39.136983,100.91966 C 39.00575,100.79751 38.856613,100.75371 38.689559,100.78824 C 38.522508,100.82276 38.352518,100.93292 38.179597,101.1187 M 37.946885,100.90209 C 38.298597,100.52424 38.631374,100.28155 38.945224,100.17405 C 39.259064,100.06655 39.516919,100.10675 39.718766,100.29462 C 39.920057,100.48199 39.978325,100.73603 39.893575,101.05677 C 39.80882,101.37751 39.590585,101.72681 39.238878,102.10467 C 38.888147,102.48147 38.555372,102.72416 38.240545,102.83271 C 37.926697,102.94021 37.669128,102.90028 37.467834,102.71291 C 37.26599,102.52504 37.207436,102.27073 37.292196,101.95 C 37.377926,101.62821 37.596159,101.27891 37.946885,100.90209 M 41.24331,98.628282 L 42.637986,98.404318 L 42.050341,99.035664 L 41.113514,99.189186 L 41.031853,100.12988 L 40.441276,100.76437 L 40.564806,99.357237 L 39.225299,99.573782 L 39.81441,98.940864 L 40.694805,98.799459 L 40.77135,97.912776 L 41.363391,97.276714 L 41.24331,98.628282 M 41.42494,97.210584 L 42.041895,96.547759 L 42.983877,96.425473 L 43.038401,95.47715 L 43.656821,94.812753 L 43.543626,96.379363 L 44.068266,96.867693 L 43.504067,97.473848 L 42.979426,96.985509 L 41.42494,97.210584 M 47.01796,93.513039 C 46.916195,93.700403 46.79933,93.884491 46.667366,94.065294 C 46.535396,94.246106 46.388811,94.423103 46.227613,94.596283 C 45.863203,94.987788 45.516683,95.244117 45.188044,95.365279 C 44.858854,95.485934 44.594997,95.453856 44.396485,95.269087 C 44.195745,95.082235 44.14627,94.818739 44.248059,94.478599 C 44.349835,94.138439 44.58929,93.765798 44.966394,93.360646 C 45.111966,93.204256 45.258965,93.061929 45.407405,92.933674 C 45.556818,92.804368 45.705923,92.690462 45.854716,92.591906 L 46.112455,92.831813 C 45.950848,92.926264 45.799744,93.02951 45.659138,93.141543 C 45.51951,93.252525 45.389122,93.373099 45.267983,93.503247 C 45.043276,93.74466 44.905732,93.964352 44.855341,94.162313 C 44.805375,94.358724 44.84684,94.518778 44.979735,94.642466 C 45.111518,94.765138 45.271898,94.796873 45.460868,94.737691 C 45.64983,94.6785 45.852268,94.532928 46.068181,94.300957 C 46.126798,94.23799 46.17907,94.177921 46.225005,94.120759 C 46.271355,94.062048 46.310116,94.00703 46.341272,93.955708 L 46.099389,93.730563 L 45.755008,94.100552 L 45.539819,93.900258 L 46.419089,92.955611 L 47.01796,93.513039 M 46.360578,91.907958 L 47.883181,90.272142 L 48.125893,90.49805 L 47.167488,91.52772 L 47.399365,91.743548 L 48.300619,90.775283 L 48.543337,91.0012 L 47.642084,91.969466 L 47.927345,92.234986 L 48.917989,91.170685 L 49.160708,91.396602 L 47.605864,93.06706 L 46.360578,91.907958 M 48.41221,89.703772 L 49.042353,89.026771 L 50.692195,88.966851 L 49.838094,88.171863 L 50.372983,87.597206 L 51.618269,88.756307 L 50.988125,89.433309 L 49.338279,89.493219 L 50.192385,90.288217 L 49.657496,90.862874 L 48.41221,89.703772 M 51.964462,85.88739 L 52.594605,85.210399 L 54.244445,85.150469 L 53.390345,84.355491 L 53.925233,83.780824 L 55.170519,84.939925 L 54.540377,85.616927 L 52.89053,85.676836 L 53.744637,86.471835 L 53.209748,87.046492 L 51.964462,85.88739 M 55.022317,82.557007 C 55.230415,82.33345 55.4254,82.185832 55.607291,82.114175 C 55.790161,82.041483 55.934412,82.054297 56.040068,82.152636 C 56.145713,82.250975 56.16904,82.393161 56.11004,82.579192 C 56.051041,82.765236 55.917006,82.970559 55.707936,83.195173 C 55.498865,83.419795 55.303174,83.568712 55.12086,83.641924 C 54.939528,83.714094 54.796033,83.70101 54.690387,83.602671 C 54.584732,83.504333 54.561136,83.361888 54.619577,83.175331 C 54.678999,82.987732 54.813252,82.781631 55.022317,82.557007 M 55.208432,83.940878 L 56.4145,82.645138 L 56.581312,82.800404 L 55.375244,84.096153 L 55.208432,83.940878 M 55.16411,82.688985 C 55.08205,82.777162 55.036063,82.86169 55.02615,82.942571 C 55.017217,83.022414 55.045003,83.092353 55.109508,83.152389 C 55.174008,83.212429 55.245479,83.234878 55.323921,83.219734 C 55.403335,83.203545 55.484077,83.151364 55.566137,83.063188 C 55.64723,82.976079 55.692517,82.89286 55.702008,82.813534 C 55.71247,82.733164 55.68545,82.662958 55.620949,82.602919 C 55.556445,82.542883 55.484209,82.5207 55.404236,82.536372 C 55.325245,82.551006 55.245203,82.601877 55.16411,82.688985 M 58.901297,79.58541 C 59.070503,79.447111 59.22018,79.362128 59.350317,79.330456 C 59.48088,79.297227 59.587589,79.319171 59.670443,79.396289 C 59.793884,79.511188 59.804815,79.687872 59.703234,79.926343 C 59.601093,80.164299 59.390778,80.454363 59.072289,80.796534 C 58.959937,80.917239 58.84182,81.033558 58.71792,81.145475 C 58.595563,81.256867 58.468898,81.362289 58.337933,81.461748 L 58.090201,81.23116 C 58.225744,81.14576 58.353076,81.054666 58.472203,80.9579 C 58.591752,80.859566 58.701844,80.756346 58.802471,80.648238 C 58.951944,80.487649 59.051518,80.351127 59.101183,80.238677 C 59.151815,80.125175 59.149613,80.042808 59.094563,79.991565 C 59.037847,79.938777 58.953996,79.943001 58.843017,80.004255 C 58.732456,80.063946 58.597556,80.179331 58.438311,80.350418 L 58.212632,80.592877 L 58.005781,80.400342 L 58.243184,80.145286 C 58.384843,79.993095 58.477845,79.868095 58.522184,79.770276 C 58.565972,79.671949 58.562006,79.598714 58.5103,79.550584 C 58.462471,79.506068 58.391795,79.507864 58.298244,79.555958 C 58.204701,79.60406 58.096382,79.694232 57.973277,79.826477 C 57.882425,79.924098 57.796431,80.028198 57.71529,80.13877 C 57.634158,80.24936 57.559074,80.364591 57.490033,80.48447 L 57.254826,80.26554 C 57.348405,80.129322 57.445456,79.998298 57.545979,79.872454 C 57.646503,79.746622 57.749526,79.627029 57.855033,79.513663 C 58.139334,79.208237 58.378507,79.004779 58.572575,78.903322 C 58.767062,78.800301 58.917684,78.798476 59.024447,78.897844 C 59.097291,78.965653 59.123365,79.057509 59.102665,79.173405 C 59.081398,79.288779 59.014276,79.426118 58.901297,79.58541"
       id="text3284" />
    <path
       sodipodi:type="arc"
       style="opacity:0.38139535;fill:url(#radialGradient3297);fill-opacity:1.0;fill-rule:nonzero;stroke:none;stroke-width:0;stroke-linecap:round;stroke-linejoin:round;stroke-miterlimit:4;stroke-dasharray:none;stroke-dashoffset:4;stroke-opacity:1"
       id="path3289"
       sodipodi:cx="63.912209"
       sodipodi:cy="115.70919"
       sodipodi:rx="63.912209"
       sodipodi:ry="12.641975"
       d="M 127.82442 115.70919 A 63.912209 12.641975 0 1 1  0,115.70919 A 63.912209 12.641975 0 1 1  127.82442 115.70919 z"
       transform="matrix(1,0,0,0.416667,0,74.87151)" />
    <path
       sodipodi:type="arc"
       style="opacity:1;fill:url(#radialGradient3309);fill-opacity:1;fill-rule:nonzero;stroke:none;stroke-width:0.2;stroke-linecap:round;stroke-linejoin:round;stroke-miterlimit:4;stroke-dasharray:none;stroke-dashoffset:4;stroke-opacity:1"
       id="path3301"
       sodipodi:cx="34.677639"
       sodipodi:cy="7.4622769"
       sodipodi:rx="47.495197"
       sodipodi:ry="1.1412895"
       d="M 82.172836 7.4622769 A 47.495197 1.1412895 0 1 1  -12.817558,7.4622769 A 47.495197 1.1412895 0 1 1  82.172836 7.4622769 z"
       transform="matrix(0.660631,-0.710923,-0.715177,-0.664584,64.33718,73.24482)" />
    <path
       transform="matrix(0.660631,-0.710923,-0.715177,-0.664584,56.67117,83.37656)"
       d="M 106.56087 7.4622769 A 71.883232 0.4230493 0 1 1  -37.205593,7.4622769 A 71.883232 0.4230493 0 1 1  106.56087 7.4622769 z"
       sodipodi:ry="0.4230493"
       sodipodi:rx="71.883232"
       sodipodi:cy="7.4622769"
       sodipodi:cx="34.677639"
       id="path3321"
       style="opacity:1;fill:url(#radialGradient3323);fill-opacity:1.0;fill-rule:nonzero;stroke:none;stroke-width:0.2;stroke-linecap:round;stroke-linejoin:round;stroke-miterlimit:4;stroke-dasharray:none;stroke-dashoffset:4;stroke-opacity:1"
       sodipodi:type="arc" />
  </g>
</svg>
