<?xml version="1.0" encoding="UTF-8" standalone="no"?>
<!-- Created with Inkscape (http://www.inkscape.org/) -->
<svg
   xmlns:dc="http://purl.org/dc/elements/1.1/"
   xmlns:cc="http://web.resource.org/cc/"
   xmlns:rdf="http://www.w3.org/1999/02/22-rdf-syntax-ns#"
   xmlns:svg="http://www.w3.org/2000/svg"
   xmlns="http://www.w3.org/2000/svg"
   xmlns:xlink="http://www.w3.org/1999/xlink"
   xmlns:sodipodi="http://sodipodi.sourceforge.net/DTD/sodipodi-0.dtd"
   xmlns:inkscape="http://www.inkscape.org/namespaces/inkscape"
   width="128"
   height="128"
   id="svg1307"
   sodipodi:version="0.32"
   inkscape:version="0.43+0.44pre3"
   version="1.0"
   sodipodi:docbase="/home/pinheiro/artwork/Oxygen/theme/svg/actions"
   sodipodi:docname="piece.svg">
  <defs
     id="defs1309">
    <linearGradient
       id="linearGradient2793">
      <stop
         style="stop-color:black;stop-opacity:1;"
         offset="0"
         id="stop2795" />
      <stop
         style="stop-color:#424242;stop-opacity:1;"
         offset="1"
         id="stop2797" />
    </linearGradient>
    <linearGradient
       id="linearGradient3291">
      <stop
         style="stop-color:#000000;stop-opacity:1;"
         offset="0"
         id="stop3293" />
      <stop
         style="stop-color:#000000;stop-opacity:0;"
         offset="1"
         id="stop3295" />
    </linearGradient>
    <linearGradient
       inkscape:collect="always"
       id="linearGradient3235">
      <stop
         style="stop-color:#ffffff;stop-opacity:1;"
         offset="0"
         id="stop3237" />
      <stop
         style="stop-color:#ffffff;stop-opacity:0;"
         offset="1"
         id="stop3239" />
    </linearGradient>
    <linearGradient
       id="linearGradient3207">
      <stop
         style="stop-color:#ffffff;stop-opacity:1;"
         offset="0"
         id="stop3209" />
      <stop
         style="stop-color:#252525;stop-opacity:0;"
         offset="1"
         id="stop3211" />
    </linearGradient>
    <radialGradient
       inkscape:collect="always"
       xlink:href="#linearGradient3291"
       id="radialGradient3297"
       cx="63.912209"
       cy="115.70919"
       fx="63.912209"
       fy="115.70919"
       r="63.912209"
       gradientTransform="matrix(1,0,0,0.197802,0,92.82166)"
       gradientUnits="userSpaceOnUse" />
    <radialGradient
       inkscape:collect="always"
       xlink:href="#linearGradient3207"
       id="radialGradient2890"
       cx="51.695004"
       cy="106.3835"
       fx="43.883301"
       fy="118.25562"
       r="57.757904"
       gradientTransform="matrix(1.03089,0,0,1.004945,-2.286205,-0.596843)"
       gradientUnits="userSpaceOnUse" />
    <linearGradient
       inkscape:collect="always"
       xlink:href="#linearGradient3235"
       id="linearGradient2899"
       x1="-17.186007"
       y1="26.805698"
       x2="-22.116655"
       y2="101.92913"
       gradientUnits="userSpaceOnUse"
       gradientTransform="matrix(1.03089,0,0,1.03089,94.43571,-27.75142)" />
    <linearGradient
       inkscape:collect="always"
       xlink:href="#linearGradient3235"
       id="linearGradient2910"
       gradientUnits="userSpaceOnUse"
       x1="-26.905739"
       y1="-18.65526"
       x2="-30.177109"
       y2="108.05508"
       gradientTransform="matrix(1.03089,0,0,1.03089,94.43571,-27.75142)" />
    <linearGradient
       inkscape:collect="always"
       xlink:href="#linearGradient3235"
       id="linearGradient2914"
       gradientUnits="userSpaceOnUse"
       x1="-37.592728"
       y1="-33.486488"
       x2="-30.177109"
       y2="108.05508"
       gradientTransform="matrix(1.03089,0,0,1.03089,94.43571,-27.75142)" />
    <linearGradient
       inkscape:collect="always"
       xlink:href="#linearGradient2793"
       id="linearGradient2799"
       x1="24.052145"
       y1="124.84029"
       x2="57.973221"
       y2="-6.7063022"
       gradientUnits="userSpaceOnUse" />
    <linearGradient
       inkscape:collect="always"
       xlink:href="#linearGradient2793"
       id="linearGradient2807"
       x1="56.381203"
       y1="93.091942"
       x2="101.35826"
       y2="-39.138809"
       gradientUnits="userSpaceOnUse" />
  </defs>
  <sodipodi:namedview
     id="base"
     pagecolor="#ffffff"
     bordercolor="#666666"
     borderopacity="1.0"
     inkscape:pageopacity="0.0"
     inkscape:pageshadow="2"
     inkscape:zoom="2.1931359"
     inkscape:cx="85.500538"
     inkscape:cy="116.67642"
     inkscape:current-layer="layer1"
     showgrid="false"
     inkscape:document-units="px"
     inkscape:grid-bbox="true"
     guidetolerance="0.1px"
     showguides="true"
     inkscape:guide-bbox="true"
     inkscape:window-width="1106"
     inkscape:window-height="958"
     inkscape:window-x="814"
     inkscape:window-y="78">
    <sodipodi:guide
       orientation="horizontal"
       position="32.487481"
       id="guide2204" />
  </sodipodi:namedview>
  <metadata
     id="metadata1312">
    <rdf:RDF>
      <cc:Work
         rdf:about="">
        <dc:format>image/svg+xml</dc:format>
        <dc:type
           rdf:resource="http://purl.org/dc/dcmitype/StillImage" />
        <cc:license
           rdf:resource="http://creativecommons.org/licenses/GPL/2.0/" />
        <dc:contributor>
          <cc:Agent>
            <dc:title>Oxygen team</dc:title>
          </cc:Agent>
        </dc:contributor>
      </cc:Work>
      <cc:License
         rdf:about="http://creativecommons.org/licenses/LGPL/2.1/">
        <cc:permits
           rdf:resource="http://web.resource.org/cc/Reproduction" />
        <cc:permits
           rdf:resource="http://web.resource.org/cc/Distribution" />
        <cc:requires
           rdf:resource="http://web.resource.org/cc/Notice" />
        <cc:permits
           rdf:resource="http://web.resource.org/cc/DerivativeWorks" />
        <cc:requires
           rdf:resource="http://web.resource.org/cc/ShareAlike" />
        <cc:requires
           rdf:resource="http://web.resource.org/cc/SourceCode" />
      </cc:License>
    </rdf:RDF>
  </metadata>
  <g
     id="layer1"
     inkscape:label="Layer 1"
     inkscape:groupmode="layer">
    <path
       sodipodi:nodetypes="ccc"
       id="path2276"
       d="M 50.892799,3.2812959 L 50.892799,0.48658747 L 50.892799,3.2812959 z "
       style="fill:#ffffff;fill-opacity:0.75688076;fill-rule:nonzero;stroke:none;stroke-width:0.5;stroke-linecap:round;stroke-linejoin:round;stroke-miterlimit:4;stroke-dasharray:none;stroke-dashoffset:4;stroke-opacity:1" />
    <path
       sodipodi:type="arc"
       style="opacity:0.38139535;fill:url(#radialGradient3297);fill-opacity:1.0;fill-rule:nonzero;stroke:none;stroke-width:0;stroke-linecap:round;stroke-linejoin:round;stroke-miterlimit:4;stroke-dasharray:none;stroke-dashoffset:4;stroke-opacity:1"
       id="path3289"
       sodipodi:cx="63.912209"
       sodipodi:cy="115.70919"
       sodipodi:rx="63.912209"
       sodipodi:ry="12.641975"
       d="M 127.82442 115.70919 A 63.912209 12.641975 0 1 1  0,115.70919 A 63.912209 12.641975 0 1 1  127.82442 115.70919 z"
       transform="matrix(1,0,0,0.416667,0,74.87151)" />
    <path
       style="opacity:1;fill:url(#linearGradient2807);fill-opacity:1.0;fill-rule:nonzero;stroke:url(#linearGradient2799);stroke-width:0.9;stroke-linecap:round;stroke-linejoin:round;stroke-miterlimit:4;stroke-dasharray:none;stroke-dashoffset:4;stroke-opacity:1"
       d="M 53.682924,0.85445486 C 44.025969,0.85445486 36.15779,8.7226338 36.15779,18.379589 C 36.157791,21.157679 36.934797,23.687463 38.090709,26.01462 C 28.668526,27.095015 18.927063,27.225964 8.7103377,25.917974 C 8.0985508,25.845393 7.5407134,26.274498 7.4539403,26.884433 C 5.9589404,37.506409 6.2721444,47.510262 7.4539403,57.199049 C 7.4994396,57.566576 7.7215171,57.888737 8.0488134,58.062011 C 8.3761087,58.235286 8.7673893,58.237843 9.0969216,58.068863 C 11.5717,56.820644 14.434387,56.071513 17.472905,56.071513 C 26.967968,56.071512 34.547024,62.979452 34.547024,71.341574 C 34.547022,79.70369 26.967966,86.579418 17.472905,86.579418 C 14.433332,86.579418 11.572144,85.830899 9.0969216,84.582068 C 8.7266763,84.393385 8.2828832,84.422301 7.9402535,84.657437 C 7.5976247,84.892573 7.4110346,85.29628 7.4539403,85.709605 C 8.5520054,96.854971 8.9730271,107.73324 7.4539403,117.89271 C 7.3987722,118.22313 7.4925018,118.56102 7.7099969,118.81581 C 7.9274921,119.07058 8.246499,119.21617 8.5814765,119.21353 L 41.151165,119.21353 C 41.544215,119.22543 41.915375,119.03286 42.131982,118.70467 C 42.348591,118.37647 42.37973,117.9595 42.21427,117.60277 C 41.230536,115.34373 40.635719,112.86721 40.635719,110.19324 C 40.635718,100.69819 47.546938,93.086913 55.905781,93.086913 C 64.264619,93.086913 71.143627,100.69819 71.143627,110.19324 C 71.143628,112.86371 70.579197,115.34541 69.597292,117.60277 C 69.434479,117.95425 69.462322,118.36452 69.671129,118.69078 C 69.879937,119.01705 70.240824,119.21416 70.628182,119.21353 L 99.58975,119.21353 C 100.13105,119.20348 100.58977,118.81223 100.68507,118.27929 C 102.51109,108.8975 102.31033,99.040572 100.91058,88.931137 C 103.25972,89.845289 105.77155,90.477472 108.48118,90.477472 C 119.0815,90.477472 127.81037,82.676066 127.81037,72.95234 C 127.81038,63.228613 119.07853,55.459422 108.48118,55.459422 C 105.65981,55.459422 103.0464,56.114782 100.62064,57.102403 C 99.668665,47.415634 99.198239,37.63165 100.68507,27.206586 C 100.73851,26.8923 100.6572,26.570035 100.46105,26.318723 C 100.2649,26.06741 99.972035,25.910259 99.654181,25.885758 C 89.661428,25.188922 79.557023,24.297437 69.371784,25.692466 C 70.441839,23.450084 71.175842,21.039789 71.175842,18.379589 C 71.175843,8.7226338 63.339881,0.85445383 53.682924,0.85445486 z "
       id="path2870"
       sodipodi:nodetypes="csccsssssssssccsccscssscsccccsssccsccsc" />
    <path
       style="opacity:0.62999998;fill:url(#radialGradient2890);fill-opacity:1;fill-rule:nonzero;stroke:none;stroke-width:2.20000005;stroke-linecap:round;stroke-linejoin:round;stroke-miterlimit:4;stroke-dasharray:none;stroke-dashoffset:4;stroke-opacity:1"
       d="M 53.668286,1.8409889 C 44.625364,1.8409889 37.280452,9.1859003 37.280452,18.228822 C 37.280452,21.42087 38.208518,24.373594 39.789595,26.893204 C 29.809335,28.15988 19.448338,28.284342 8.5821404,26.893204 C 7.1038561,37.396396 7.4088172,47.305174 8.5821404,56.924497 C 11.209586,55.599277 14.257563,54.807408 17.481753,54.807408 C 27.529446,54.807407 35.673033,62.15232 35.673033,71.195243 C 35.673033,80.238167 27.529444,87.583085 17.481753,87.583085 C 14.256712,87.583074 11.210067,86.791866 8.5821404,85.465987 C 9.6844135,96.654094 10.123281,107.62105 8.5821404,117.92801 L 41.161782,117.92801 C 40.119699,115.53498 39.515157,112.8829 39.515157,110.04773 C 39.515155,100.00004 46.860069,91.81726 55.90299,91.81726 C 64.945909,91.81726 72.290824,100.00004 72.290824,110.04773 C 72.290824,112.88007 71.684334,115.53678 70.6442,117.92801 L 99.57774,117.92801 C 101.48421,108.13284 101.21226,97.793052 99.57774,87.112617 C 102.21128,88.446084 105.2424,89.1905 108.47736,89.1905 C 118.52506,89.1905 126.66864,81.845593 126.66864,72.802661 C 126.66864,63.759739 118.52504,56.454033 108.47736,56.454033 C 105.2424,56.454033 102.21128,57.19845 99.57774,58.531917 C 98.520187,48.338196 97.99854,37.965841 99.57774,26.893204 C 88.88775,26.147747 78.197761,25.07874 67.507773,26.893204 C 69.091252,24.372274 70.056119,21.423502 70.05612,18.228822 C 70.05612,9.1858993 62.71121,1.8409889 53.668286,1.8409889 z "
       id="rect1968"
       sodipodi:nodetypes="cscccssscccssscccssscccsc" />
    <path
       style="opacity:0.62999998;fill:url(#linearGradient2899);fill-opacity:1;fill-rule:nonzero;stroke:none;stroke-width:2.20000005;stroke-linecap:round;stroke-linejoin:round;stroke-miterlimit:4;stroke-dasharray:none;stroke-dashoffset:4;stroke-opacity:1"
       d="M 53.68333,1.8544596 C 44.640405,1.8544596 37.285732,9.1769202 37.285732,18.219842 C 37.285733,21.411887 38.217451,24.366153 39.798527,26.885763 C 29.818266,28.152441 19.44808,28.276901 8.5818826,26.885763 C 7.1035964,37.388956 7.4085595,47.291118 8.5818826,56.910441 C 11.209326,55.585222 14.249121,54.816445 17.473311,54.816445 C 26.378914,54.816444 33.783383,60.577568 35.352813,68.185803 C 65.796859,69.655986 95.852748,69.019754 125.81343,67.831434 C 123.47704,61.222784 116.60552,56.459426 108.48159,56.459426 C 105.24663,56.459428 102.22371,57.18774 99.590162,58.521207 C 98.532609,48.327484 98.010962,37.9584 99.590162,26.885763 C 88.900172,26.140307 78.19369,25.071299 67.503702,26.885763 C 69.087182,24.364834 70.048711,21.414521 70.048712,18.219842 C 70.048711,9.1769172 62.726254,1.8544596 53.68333,1.8544596 z "
       id="path2892" />
    <path
       style="opacity:0.62999998;fill:url(#linearGradient2910);fill-opacity:1;fill-rule:nonzero;stroke:none;stroke-width:2.20000005;stroke-linecap:round;stroke-linejoin:round;stroke-miterlimit:4;stroke-dasharray:none;stroke-dashoffset:4;stroke-opacity:1"
       d="M 53.68333,1.8544596 C 44.640405,1.8544596 37.285732,9.1769202 37.285732,18.219842 C 37.285733,21.411887 38.217451,24.366153 39.798527,26.885763 C 29.818266,28.152441 19.44808,28.276901 8.5818826,26.885763 C 7.1035964,37.388956 7.4085595,47.291118 8.5818826,56.910441 C 11.209326,55.585222 14.249121,54.816445 17.473311,54.816445 C 23.831764,54.816444 29.396154,57.776824 32.646726,62.225969 C 38.626444,37.632438 50.231202,20.529362 62.703619,4.5927617 C 60.115228,2.8770501 57.023467,1.8544596 53.68333,1.8544596 z M 79.971031,25.887088 C 67.771956,36.962691 58.125017,50.456008 53.715545,68.830109 C 77.909963,69.376638 101.88957,68.780317 125.81343,67.831434 C 123.47704,61.222784 116.60552,56.459426 108.48159,56.459426 C 105.24663,56.459428 102.22371,57.18774 99.590162,58.521207 C 98.532609,48.327484 98.010962,37.9584 99.590162,26.885763 C 93.058568,26.430289 86.507414,25.852618 79.971031,25.887088 z "
       id="path2901" />
    <path
       id="path2912"
       d="M 53.68333,1.8544596 C 44.640405,1.8544596 37.285732,9.1769202 37.285732,18.219842 C 37.285733,21.411887 38.217451,24.366153 39.798527,26.885763 C 29.818266,28.152441 19.44808,28.276901 8.5818826,26.885763 C 7.1035964,37.388956 7.4085595,47.291118 8.5818826,56.910441 C 31.053477,48.948996 39.674092,29.597102 62.703619,4.5927617 C 60.115228,2.8770501 57.023467,1.8544596 53.68333,1.8544596 z M 79.971031,25.887088 C 64.389357,46.984835 60.965397,67.309941 78.026982,68.004045 C 88.973626,68.44938 102.09079,68.185781 125.81343,67.831434 C 123.47704,61.222784 116.60552,56.459426 108.48159,56.459426 C 105.24663,56.459428 102.22371,57.18774 99.590162,58.521207 C 98.532609,48.327484 98.010962,37.9584 99.590162,26.885763 C 93.058568,26.430289 86.507414,25.852618 79.971031,25.887088 z "
       style="opacity:0.62999998;fill:url(#linearGradient2914);fill-opacity:1;fill-rule:nonzero;stroke:none;stroke-width:2.20000005;stroke-linecap:round;stroke-linejoin:round;stroke-miterlimit:4;stroke-dasharray:none;stroke-dashoffset:4;stroke-opacity:1"
       sodipodi:nodetypes="csccccccscsccc" />
  </g>
</svg>
