<?xml version="1.0" encoding="UTF-8" standalone="no"?>
<!-- Created with Inkscape (http://www.inkscape.org/) -->
<svg
   xmlns:svg="http://www.w3.org/2000/svg"
   xmlns="http://www.w3.org/2000/svg"
   xmlns:xlink="http://www.w3.org/1999/xlink"
   version="1.0"
   width="128"
   height="128"
   viewBox="0 0 122.113 43.102"
   id="Livello_1"
   xml:space="preserve"><defs
   id="defs11"><linearGradient
     id="linearGradient3291"><stop
       style="stop-color:black;stop-opacity:1"
       offset="0"
       id="stop3293" /><stop
       style="stop-color:black;stop-opacity:0"
       offset="1"
       id="stop3295" /></linearGradient><radialGradient
     cx="63.912209"
     cy="115.70919"
     r="63.912209"
     fx="63.912209"
     fy="115.7093"
     id="radialGradient3336"
     xlink:href="#linearGradient3291"
     gradientUnits="userSpaceOnUse"
     gradientTransform="matrix(1,0,0,0.197802,0,92.82166)" /></defs>
<linearGradient
   x1="61.057098"
   y1="43.101601"
   x2="61.057098"
   y2="0.00048828119"
   id="XMLID_2_"
   gradientUnits="userSpaceOnUse"
   gradientTransform="matrix(0.953125,0,0,-0.953125,2.861995,42.09132)">
	<stop
   style="stop-color:#555;stop-opacity:1"
   offset="0"
   id="stop4" />
	<stop
   style="stop-color:#323232;stop-opacity:1"
   offset="1"
   id="stop6" />
</linearGradient>
<path
   d="M 119.25097,42.091322 L 75.200405,41.973135 L 86.606453,25.377321 C 85.60853,26.827977 84.611561,28.27768 83.614593,29.728336 C 62.546717,15.250366 33.728027,20.588821 19.247195,41.658603 C 13.785795,37.905197 8.323435,34.150837 2.862025,30.398383 C 23.562949,0.2805843 64.756061,-7.3548997 94.876719,13.344116 L 103.35382,1.0106783 L 119.25097,42.091322 z "
   style="fill:url(#XMLID_2_)"
   id="path8" />
<path
   d="M 127.82442 115.70919 A 63.912209 12.641975 0 1 1  0,115.70919 A 63.912209 12.641975 0 1 1  127.82442 115.70919 z"
   transform="matrix(0.955287,0,0,0.391477,1.998024e-3,32.36097)"
   style="opacity:0.38139535;fill:url(#radialGradient3336);fill-opacity:1;fill-rule:nonzero;stroke:none;stroke-width:0;stroke-linecap:round;stroke-linejoin:round;stroke-miterlimit:4;stroke-dasharray:none;stroke-dashoffset:4;stroke-opacity:1"
   id="path1563" /></svg>