<?xml version="1.0" encoding="UTF-8" standalone="no"?>
<!-- Created with Inkscape (http://www.inkscape.org/) -->
<svg
   xmlns:dc="http://purl.org/dc/elements/1.1/"
   xmlns:cc="http://web.resource.org/cc/"
   xmlns:rdf="http://www.w3.org/1999/02/22-rdf-syntax-ns#"
   xmlns:svg="http://www.w3.org/2000/svg"
   xmlns="http://www.w3.org/2000/svg"
   xmlns:xlink="http://www.w3.org/1999/xlink"
   xmlns:sodipodi="http://sodipodi.sourceforge.net/DTD/sodipodi-0.dtd"
   xmlns:inkscape="http://www.inkscape.org/namespaces/inkscape"
   width="128"
   height="128"
   id="svg1886"
   sodipodi:version="0.32"
   inkscape:version="0.44.1"
   version="1.0"
   sodipodi:docbase="/Users/david/Progetti/oxygen-svn/theme/svg/actions"
   sodipodi:docname="rotate_cw.svg">
  <defs
     id="defs1888">
    <linearGradient
       id="linearGradient3291"
       inkscape:collect="always">
      <stop
         id="stop3293"
         offset="0"
         style="stop-color:#000000;stop-opacity:1;" />
      <stop
         id="stop3295"
         offset="1"
         style="stop-color:#000000;stop-opacity:0;" />
    </linearGradient>
    <radialGradient
       inkscape:collect="always"
       xlink:href="#linearGradient3291"
       id="radialGradient3743"
       gradientUnits="userSpaceOnUse"
       gradientTransform="matrix(1,0,0,0.197802,0,92.82166)"
       cx="63.912209"
       cy="115.70919"
       fx="63.975182"
       fy="116.88514"
       r="63.912209" />
    <linearGradient
       id="XMLID_4_"
       gradientUnits="userSpaceOnUse"
       x1="38.7852"
       y1="108.9014"
       x2="77.3233"
       y2="26.256">
	<stop
   offset="0"
   style="stop-color:#644A9B"
   id="stop13" />

	<stop
   offset="0.8166"
   style="stop-color:#462886"
   id="stop15" />

	<stop
   offset="1"
   style="stop-color:#1D0A55"
   id="stop17" />

</linearGradient>
    <linearGradient
       id="XMLID_3_"
       gradientUnits="userSpaceOnUse"
       x1="82.0801"
       y1="9.4399"
       x2="43.0398"
       y2="38.7201">
	<stop
   offset="0"
   style="stop-color:#8E79B9"
   id="stop6" />

	<stop
   offset="1"
   style="stop-color:#462886"
   id="stop8" />

</linearGradient>
  </defs>
  <sodipodi:namedview
     id="base"
     pagecolor="#ffffff"
     bordercolor="#666666"
     borderopacity="1.0"
     gridtolerance="10000"
     guidetolerance="10"
     objecttolerance="10"
     inkscape:pageopacity="0.0"
     inkscape:pageshadow="2"
     inkscape:zoom="2.953125"
     inkscape:cx="64"
     inkscape:cy="64"
     inkscape:document-units="px"
     inkscape:current-layer="layer1"
     width="128px"
     height="128px"
     inkscape:showpageshadow="true"
     showgrid="true"
     gridspacingx="8px"
     gridspacingy="8px"
     inkscape:window-width="823"
     inkscape:window-height="577"
     inkscape:window-x="439"
     inkscape:window-y="114" />
  <metadata
     id="metadata1891">
    <rdf:RDF>
      <cc:Work
         rdf:about="">
        <dc:format>image/svg+xml</dc:format>
        <dc:type
           rdf:resource="http://purl.org/dc/dcmitype/StillImage" />
      </cc:Work>
    </rdf:RDF>
  </metadata>
  <g
     inkscape:label="Layer 1"
     inkscape:groupmode="layer"
     id="layer1">
    <path
       sodipodi:type="arc"
       style="opacity:0.38139535;fill:url(#radialGradient3743);fill-opacity:1;fill-rule:nonzero;stroke:none;stroke-width:0;stroke-linecap:round;stroke-linejoin:round;stroke-miterlimit:4;stroke-dasharray:none;stroke-dashoffset:4;stroke-opacity:1"
       id="path3289"
       sodipodi:cx="63.912209"
       sodipodi:cy="115.70919"
       sodipodi:rx="63.912209"
       sodipodi:ry="12.641975"
       d="M 127.82442 115.70919 A 63.912209 12.641975 0 1 1  0,115.70919 A 63.912209 12.641975 0 1 1  127.82442 115.70919 z"
       transform="matrix(-1.001374,0,0,0.410379,128,75.32738)" />
    <g
       transform="matrix(-1,0,0,1,119.8983,0)"
       id="g1894">
      <polygon
         id="polygon10"
         points="96,28 56,56 56,0 96,28 "
         style="fill:url(#XMLID_3_)" />
      <path
         id="path19"
         d="M 51.694,16.214 C 22.707,18.438 0,42.941 0,72 C 0,102.879 25.122,128 56,128 C 85.06,128 109.563,105.293 111.785,76.306 C 111.87,75.196 111.488,74.099 110.731,73.283 C 109.974,72.466 108.911,72.001 107.796,72.001 L 91.764,72.001 C 89.726,72.001 88.014,73.533 87.788,75.559 C 85.985,91.772 72.319,104 56,104 C 38.355,104 24,89.645 24,72 C 24,55.68 36.228,42.014 52.442,40.211 C 54.468,39.986 56,40 56,40 L 56,16 C 56,16 52.805,16.129 51.694,16.214 z "
         style="fill:url(#XMLID_4_)" />
    </g>
  </g>
</svg>
