<?xml version="1.0" encoding="UTF-8" standalone="no"?>
<!-- Created with Inkscape (http://www.inkscape.org/) -->
<svg
   xmlns:dc="http://purl.org/dc/elements/1.1/"
   xmlns:cc="http://web.resource.org/cc/"
   xmlns:rdf="http://www.w3.org/1999/02/22-rdf-syntax-ns#"
   xmlns:svg="http://www.w3.org/2000/svg"
   xmlns="http://www.w3.org/2000/svg"
   xmlns:xlink="http://www.w3.org/1999/xlink"
   xmlns:sodipodi="http://sodipodi.sourceforge.net/DTD/sodipodi-0.dtd"
   xmlns:inkscape="http://www.inkscape.org/namespaces/inkscape"
   width="128"
   height="128"
   id="svg1307"
   sodipodi:version="0.32"
   inkscape:version="0.43+0.44pre3"
   version="1.0"
   sodipodi:docbase="/home/pinheiro/artwork/Oxygen/theme/svg/actions"
   sodipodi:docname="show_offliners.svg">
  <defs
     id="defs1309">
    <linearGradient
       id="linearGradient3533">
      <stop
         id="stop3535"
         offset="0"
         style="stop-color:black;stop-opacity:0.8736462;" />
      <stop
         style="stop-color:black;stop-opacity:0.3068592;"
         offset="0.38461539"
         id="stop3539" />
      <stop
         id="stop3537"
         offset="1"
         style="stop-color:black;stop-opacity:0;" />
    </linearGradient>
    <linearGradient
       inkscape:collect="always"
       id="linearGradient3313">
      <stop
         style="stop-color:#ffffff;stop-opacity:1;"
         offset="0"
         id="stop3315" />
      <stop
         style="stop-color:#ffffff;stop-opacity:0;"
         offset="1"
         id="stop3317" />
    </linearGradient>
    <linearGradient
       inkscape:collect="always"
       id="linearGradient3283">
      <stop
         style="stop-color:#ffffff;stop-opacity:1;"
         offset="0"
         id="stop3285" />
      <stop
         style="stop-color:#ffffff;stop-opacity:0;"
         offset="1"
         id="stop3287" />
    </linearGradient>
    <linearGradient
       inkscape:collect="always"
       id="linearGradient3263">
      <stop
         style="stop-color:#ffffff;stop-opacity:1;"
         offset="0"
         id="stop3265" />
      <stop
         style="stop-color:#ffffff;stop-opacity:0;"
         offset="1"
         id="stop3267" />
    </linearGradient>
    <linearGradient
       inkscape:collect="always"
       id="linearGradient3291">
      <stop
         style="stop-color:#000000;stop-opacity:1;"
         offset="0"
         id="stop3293" />
      <stop
         style="stop-color:#000000;stop-opacity:0;"
         offset="1"
         id="stop3295" />
    </linearGradient>
    <radialGradient
       inkscape:collect="always"
       xlink:href="#linearGradient3291"
       id="radialGradient3297"
       cx="63.912209"
       cy="115.70919"
       fx="85.288132"
       fy="122.03507"
       r="63.912209"
       gradientTransform="matrix(1,0,0,0.197802,0,92.82166)"
       gradientUnits="userSpaceOnUse" />
    <linearGradient
       id="linearGradient7281">
      <stop
         id="stop7283"
         offset="0.0000000"
         style="stop-color:#ffffff;stop-opacity:1.0000000" />
      <stop
         id="stop7285"
         offset="1.0000000"
         style="stop-color:#ffffff;stop-opacity:0.0000000" />
    </linearGradient>
    <radialGradient
       inkscape:collect="always"
       xlink:href="#linearGradient3313"
       id="radialGradient2033"
       gradientUnits="userSpaceOnUse"
       gradientTransform="matrix(5.852183e-2,-0.142673,0.588757,0.229526,60.54592,89.09277)"
       cx="71.833099"
       cy="63.797356"
       fx="71.833099"
       fy="63.797356"
       r="19.780952" />
    <linearGradient
       inkscape:collect="always"
       xlink:href="#linearGradient3313"
       id="linearGradient2036"
       gradientUnits="userSpaceOnUse"
       x1="97.003845"
       y1="81.455772"
       x2="95.084343"
       y2="86.346596"
       gradientTransform="matrix(0.808862,0,0,0.788565,24.80252,26.97587)" />
    <linearGradient
       inkscape:collect="always"
       xlink:href="#linearGradient3283"
       id="linearGradient2039"
       gradientUnits="userSpaceOnUse"
       gradientTransform="matrix(0.808862,0,0,0.788565,24.54372,27.14404)"
       x1="74.919579"
       y1="-0.91353309"
       x2="69.163208"
       y2="17.977095" />
    <linearGradient
       inkscape:collect="always"
       xlink:href="#linearGradient3263"
       id="linearGradient2043"
       gradientUnits="userSpaceOnUse"
       x1="79.082703"
       y1="9.4441843"
       x2="71.292625"
       y2="90.124115"
       gradientTransform="matrix(0.808862,0,0,0.788565,24.80252,26.97587)" />
    <linearGradient
       inkscape:collect="always"
       xlink:href="#linearGradient3263"
       id="linearGradient2046"
       gradientUnits="userSpaceOnUse"
       x1="73.783409"
       y1="-17.918573"
       x2="59.461929"
       y2="151.13226"
       gradientTransform="matrix(0.808862,0,0,0.788565,24.80252,26.97587)" />
    <linearGradient
       inkscape:collect="always"
       xlink:href="#linearGradient3263"
       id="linearGradient2049"
       gradientUnits="userSpaceOnUse"
       x1="81.624855"
       y1="-4.6484313"
       x2="73.938446"
       y2="133.6398"
       gradientTransform="matrix(0.808862,0,0,0.788565,24.80252,26.97587)" />
    <linearGradient
       inkscape:collect="always"
       xlink:href="#linearGradient3533"
       id="linearGradient3558"
       gradientUnits="userSpaceOnUse"
       gradientTransform="translate(0.319102,0)"
       x1="44.092007"
       y1="75.929581"
       x2="43.201363"
       y2="7.6679063" />
    <linearGradient
       inkscape:collect="always"
       xlink:href="#linearGradient3263"
       id="linearGradient3560"
       gradientUnits="userSpaceOnUse"
       gradientTransform="matrix(0.808862,0,0,0.788565,-59.34989,-79.94094)"
       x1="81.624855"
       y1="-4.6484313"
       x2="73.938446"
       y2="133.6398" />
    <linearGradient
       inkscape:collect="always"
       xlink:href="#linearGradient3263"
       id="linearGradient3562"
       gradientUnits="userSpaceOnUse"
       gradientTransform="matrix(0.808862,0,0,0.788565,-59.34989,-79.94094)"
       x1="73.783409"
       y1="-17.918573"
       x2="59.461929"
       y2="151.13226" />
    <linearGradient
       inkscape:collect="always"
       xlink:href="#linearGradient3263"
       id="linearGradient3564"
       gradientUnits="userSpaceOnUse"
       gradientTransform="matrix(0.808862,0,0,0.788565,-59.34989,-79.94094)"
       x1="82.950089"
       y1="-13.696256"
       x2="89.018158"
       y2="108.30589" />
    <linearGradient
       inkscape:collect="always"
       xlink:href="#linearGradient3283"
       id="linearGradient3566"
       gradientUnits="userSpaceOnUse"
       gradientTransform="matrix(0.808862,0,0,0.788565,-59.60864,-79.77277)"
       x1="74.919579"
       y1="-0.91353309"
       x2="69.163208"
       y2="17.977095" />
    <linearGradient
       inkscape:collect="always"
       xlink:href="#linearGradient3313"
       id="linearGradient3568"
       gradientUnits="userSpaceOnUse"
       gradientTransform="matrix(0.808862,0,0,0.788565,-59.34989,-79.94094)"
       x1="97.003845"
       y1="81.455772"
       x2="95.084343"
       y2="86.346596" />
    <radialGradient
       inkscape:collect="always"
       xlink:href="#linearGradient3313"
       id="radialGradient3570"
       gradientUnits="userSpaceOnUse"
       gradientTransform="matrix(5.852183e-2,-0.142673,0.588757,0.229526,-23.60646,-17.82404)"
       cx="71.833099"
       cy="63.797356"
       fx="71.833099"
       fy="63.797356"
       r="19.780952" />
    <linearGradient
       inkscape:collect="always"
       xlink:href="#linearGradient3313"
       id="linearGradient3572"
       gradientUnits="userSpaceOnUse"
       x1="97.003845"
       y1="81.455772"
       x2="95.084343"
       y2="86.346596" />
    <radialGradient
       inkscape:collect="always"
       xlink:href="#linearGradient3313"
       id="radialGradient3574"
       gradientUnits="userSpaceOnUse"
       gradientTransform="matrix(7.235078e-2,-0.180927,0.727882,0.291067,44.18976,78.77205)"
       cx="71.833099"
       cy="63.797356"
       fx="71.833099"
       fy="63.797356"
       r="19.780952" />
    <radialGradient
       inkscape:collect="always"
       xlink:href="#linearGradient3291"
       id="radialGradient3578"
       gradientUnits="userSpaceOnUse"
       gradientTransform="matrix(1,0,0,0.197802,0,92.82166)"
       cx="63.912209"
       cy="115.70919"
       fx="63.912209"
       fy="139.92738"
       r="63.912209" />
  </defs>
  <sodipodi:namedview
     id="base"
     pagecolor="#ffffff"
     bordercolor="#666666"
     borderopacity="1.0"
     inkscape:pageopacity="0.0"
     inkscape:pageshadow="2"
     inkscape:zoom="3.8360913"
     inkscape:cx="73.868138"
     inkscape:cy="62.562956"
     inkscape:current-layer="layer1"
     showgrid="true"
     inkscape:document-units="px"
     inkscape:grid-bbox="true"
     guidetolerance="0.1px"
     showguides="true"
     inkscape:guide-bbox="true"
     inkscape:window-width="1106"
     inkscape:window-height="958"
     inkscape:window-x="686"
     inkscape:window-y="25">
    <sodipodi:guide
       orientation="horizontal"
       position="32.487481"
       id="guide2204" />
  </sodipodi:namedview>
  <metadata
     id="metadata1312">
    <rdf:RDF>
      <cc:Work
         rdf:about="">
        <dc:format>image/svg+xml</dc:format>
        <dc:type
           rdf:resource="http://purl.org/dc/dcmitype/StillImage" />
        <cc:license
           rdf:resource="http://creativecommons.org/licenses/GPL/2.0/" />
        <dc:contributor>
          <cc:Agent>
            <dc:title>Oxygen team</dc:title>
          </cc:Agent>
        </dc:contributor>
      </cc:Work>
      <cc:License
         rdf:about="http://creativecommons.org/licenses/LGPL/2.1/">
        <cc:permits
           rdf:resource="http://web.resource.org/cc/Reproduction" />
        <cc:permits
           rdf:resource="http://web.resource.org/cc/Distribution" />
        <cc:requires
           rdf:resource="http://web.resource.org/cc/Notice" />
        <cc:permits
           rdf:resource="http://web.resource.org/cc/DerivativeWorks" />
        <cc:requires
           rdf:resource="http://web.resource.org/cc/ShareAlike" />
        <cc:requires
           rdf:resource="http://web.resource.org/cc/SourceCode" />
      </cc:License>
    </rdf:RDF>
  </metadata>
  <g
     id="layer1"
     inkscape:label="Layer 1"
     inkscape:groupmode="layer">
    <path
       transform="matrix(0.540628,0,0,0.416667,0.894519,23.62777)"
       d="M 127.82442 115.70919 A 63.912209 12.641975 0 1 1  0,115.70919 A 63.912209 12.641975 0 1 1  127.82442 115.70919 z"
       sodipodi:ry="12.641975"
       sodipodi:rx="63.912209"
       sodipodi:cy="115.70919"
       sodipodi:cx="63.912209"
       id="path3576"
       style="opacity:0.38139535;fill:url(#radialGradient3578);fill-opacity:1;fill-rule:nonzero;stroke:none;stroke-width:0;stroke-linecap:round;stroke-linejoin:round;stroke-miterlimit:4;stroke-dasharray:none;stroke-dashoffset:4;stroke-opacity:1"
       sodipodi:type="arc" />
    <g
       id="g3543"
       transform="translate(-0.52136,-2.23816)">
      <path
         d="M 38.386231,3.0126372 C 33.407383,3.3096392 28.539814,5.3127512 25.943354,9.2558002 C 25.359664,10.142205 25.270174,10.747627 25.060314,11.657018 C 24.850464,12.566408 24.683954,13.666641 24.578654,14.85864 C 24.373664,17.179119 24.337554,19.855084 24.498384,22.702614 C 24.820304,28.402372 25.741774,34.04395 27.468614,37.430077 C 29.193493,40.812363 29.13486,45.781486 28.110824,47.515189 C 26.840864,49.66524 23.945614,51.542303 18.959294,52.957945 C 13.396324,54.537303 8.9887737,56.07222 5.7939337,58.88095 C 2.9655137,61.367533 1.1378937,64.242396 1.1378937,67.925525 L 1.1378937,73.368281 L 1.1378937,75.929582 L 3.7067437,75.929582 L 74.992353,75.929582 L 77.561212,75.929582 L 77.561212,73.368281 L 77.561212,67.925525 C 77.561219,64.242396 75.733581,61.367533 72.905167,58.88095 C 69.745813,56.103414 65.33854,54.467413 59.739806,52.877905 C 54.716551,51.451775 51.842055,49.637853 50.588271,47.515189 C 49.564236,45.781489 49.505609,40.812363 51.230485,37.430077 C 52.957329,34.043948 53.8788,28.402372 54.200719,22.702614 C 54.361545,19.855083 54.325422,17.179113 54.120441,14.85864 C 54.015149,13.666641 53.848645,12.566408 53.638783,11.657018 C 53.428928,10.747627 53.33943,10.142205 52.755743,9.2558002 C 50.17214,5.3322912 45.290671,3.0126372 40.152316,3.0126372 L 38.54678,3.0126372 L 38.466509,3.0126372 L 38.386231,3.0126372 z "
         style="opacity:1;fill:url(#linearGradient3558);fill-opacity:1;stroke:none;stroke-width:2;stroke-miterlimit:4;stroke-dasharray:none;stroke-opacity:1"
         id="path2062" />
      <path
         d="M 38.416499,3.7245882 C 33.59407,4.0187202 28.879429,6.0024672 26.364538,9.9073992 C 25.799188,10.785236 25.712508,11.384805 25.509238,12.285404 C 25.305978,13.186004 25.144698,14.2756 25.042708,15.456075 C 24.844168,17.754122 24.809178,20.221596 24.964958,23.0416 C 25.276768,28.686258 26.169298,34.090677 27.841878,37.44407 C 29.512567,40.793659 29.455776,46.262612 28.463908,47.979556 C 27.233848,50.108822 24.429568,51.967739 19.599898,53.369696 C 14.211698,54.933787 9.9426182,56.453866 6.8481482,59.235442 C 4.1085882,61.697993 2.3383782,64.362436 2.3383782,68.009969 L 2.3383782,72.608742 L 2.3383782,75.145287 L 4.8265282,75.145287 L 73.872569,75.145287 L 76.360727,75.145287 L 76.360727,72.608742 L 76.360727,68.009969 C 76.360735,64.362436 74.590515,61.697993 71.850961,59.235442 C 68.790858,56.484757 64.522051,54.864573 59.099214,53.290429 C 54.233773,51.878086 51.449583,50.081699 50.23519,47.979556 C 49.243327,46.262614 49.186542,40.793659 50.857228,37.44407 C 52.52982,34.090674 53.422342,28.686258 53.734147,23.0416 C 53.889921,20.221595 53.854931,17.754115 53.656391,15.456075 C 53.554407,14.2756 53.393134,13.186004 53.189865,12.285404 C 52.986603,11.384805 52.899916,10.785236 52.334567,9.9073992 C 49.832133,6.0218182 45.104023,3.7245882 40.127099,3.7245882 L 38.572004,3.7245882 L 38.494255,3.7245882 L 38.416499,3.7245882 z "
         style="fill:none;fill-opacity:1;stroke:black;stroke-width:1.44917631;stroke-miterlimit:4;stroke-dasharray:none;stroke-opacity:1"
         id="path2072"
         sodipodi:nodetypes="cssssssssccccccccsssssssscccc" />
      <g
         transform="matrix(0.77196,0,0,0.77196,44.87718,63.77542)"
         id="g2106">
        <path
           id="path2060"
           style="opacity:0;fill:black;fill-opacity:1;stroke:black;stroke-width:1.59729886;stroke-miterlimit:4;stroke-dasharray:none;stroke-opacity:0.23170734"
           d="M -8.4083966,-78.712363 C -14.858018,-78.327625 -21.163482,-75.732786 -24.526946,-70.624943 C -25.283064,-69.47669 -25.398992,-68.692425 -25.670847,-67.514396 C -25.942688,-66.336368 -26.158386,-64.911122 -26.29479,-63.367001 C -26.56033,-60.361043 -26.607117,-56.894587 -26.398774,-53.205884 C -25.981759,-45.822394 -24.788073,-38.51427 -22.551121,-34.127867 C -20.316709,-29.746439 -20.392662,-23.309416 -21.719202,-21.063571 C -23.364314,-18.278385 -27.114827,-15.84683 -33.574131,-14.013002 C -40.780428,-11.967095 -46.489987,-9.978757 -50.628597,-6.340316 C -54.29254,-3.119186 -56.660053,0.604924 -56.660053,5.376064 L -56.660053,12.426634 L -56.660053,15.744554 L -53.33235,15.744554 L 39.011323,15.744554 L 42.339033,15.744554 L 42.339033,12.426634 L 42.339033,5.376064 C 42.339043,0.604924 39.971513,-3.119186 36.307573,-6.340316 C 32.214933,-9.938348 26.505735,-12.05763 19.253113,-14.116686 C 12.745968,-15.9641 9.0223344,-18.313863 7.3981774,-21.063571 C 6.0716374,-23.309413 5.9956924,-29.746439 8.2301034,-34.127867 C 10.467064,-38.514273 11.660742,-45.822394 12.077757,-53.205884 C 12.286092,-56.894588 12.239297,-60.361051 11.973764,-63.367001 C 11.837369,-64.911122 11.621679,-66.336368 11.349823,-67.514396 C 11.077975,-68.692425 10.962039,-69.47669 10.205929,-70.624943 C 6.8591184,-75.707474 0.53564341,-78.712363 -6.1206026,-78.712363 L -8.2004206,-78.712363 L -8.3044046,-78.712363 L -8.4083966,-78.712363 z " />
        <path
           id="path2066"
           d="M -8.5684966,-78.708806 C -14.965327,-78.292792 -21.181066,-75.693951 -24.518254,-70.626013 C -25.274372,-69.47776 -25.409137,-68.699066 -25.680994,-67.521037 C -25.952834,-66.343009 -26.151237,-64.900547 -26.28764,-63.356427 C -26.55318,-60.350467 -26.597092,-56.892352 -26.388748,-53.20365 C -25.971734,-45.820159 -24.783604,-38.516631 -22.546652,-34.130227 C -20.312241,-29.748801 -20.385972,-23.315462 -21.712512,-21.069615 C -23.357624,-18.284432 -27.108099,-15.855643 -33.567402,-14.021814 C -40.773699,-11.975909 -46.490734,-9.97174 -50.629344,-6.333306 C -52.927896,-4.312546 -54.721631,-2.107556 -55.735288,0.443434 C -23.565319,8.841854 30.242713,-1.930026 42.010683,2.439484 C 41.250223,-0.971756 39.174013,-3.804946 36.298093,-6.333306 C 32.205443,-9.931333 26.514049,-12.061328 19.261426,-14.120384 C 12.75428,-15.9678 9.0306924,-18.319908 7.4065364,-21.069615 C 6.0799934,-23.31546 6.0062654,-29.7488 8.2406754,-34.130227 C 10.477635,-38.516635 11.665757,-45.820159 12.082772,-53.20365 C 12.291109,-56.892353 12.247197,-60.350477 11.981664,-63.356427 C 11.845269,-64.900546 11.621597,-66.343009 11.34974,-67.521037 C 11.077895,-68.699066 10.968386,-69.47776 10.212277,-70.626013 C 6.8654684,-75.708544 0.53961341,-78.708806 -6.1166326,-78.708806 L -8.1893426,-78.708806 L -8.3157276,-78.708806 L -8.4168346,-78.708806 C -8.4672226,-78.705801 -8.5181276,-78.712082 -8.5684966,-78.708806 z "
           style="opacity:0.11885244;fill:url(#linearGradient3560);fill-opacity:1;fill-rule:evenodd;stroke:none;stroke-width:1px;stroke-linecap:butt;stroke-linejoin:miter;stroke-opacity:1" />
        <path
           id="path2068"
           d="M -8.7201586,-78.708806 C -15.064043,-78.262185 -21.207138,-75.654357 -24.518254,-70.626013 C -25.274372,-69.47776 -25.409137,-68.699066 -25.680994,-67.521037 C -25.952834,-66.343009 -26.151237,-64.900547 -26.28764,-63.356427 C -26.55318,-60.350467 -26.597092,-56.892352 -26.388748,-53.20365 C -26.299378,-51.621305 -26.172528,-50.043974 -26.009594,-48.4969 C -19.517618,-58.696882 -10.404888,-67.952398 3.8677624,-76.293825 C 0.90419941,-77.866459 -2.5606196,-78.708806 -6.1166326,-78.708806 L -8.1893426,-78.708806 L -8.3157276,-78.708806 L -8.4168346,-78.708806 C -8.4231336,-78.708431 -8.4358006,-78.708929 -8.4421126,-78.708806 C -8.4674026,-78.709036 -8.5179346,-78.708644 -8.5432206,-78.708806 C -8.5495306,-78.708659 -8.5622006,-78.709216 -8.5684966,-78.708806 C -8.6184726,-78.705556 -8.6702066,-78.712323 -8.7201586,-78.708806 z M 11.779448,-65.179984 C -14.500569,-45.73106 -17.938105,-24.193186 -20.751988,3.745544 C 6.2497534,3.544414 33.963613,-0.548436 42.010683,2.439484 C 41.250223,-0.971756 39.174013,-3.804946 36.298093,-6.333306 C 32.205443,-9.931333 26.514049,-12.061328 19.261426,-14.120384 C 12.75428,-15.9678 9.0306924,-18.319908 7.4065364,-21.069615 C 6.0799934,-23.31546 6.0062654,-29.7488 8.2406754,-34.130227 C 10.477635,-38.516635 11.665757,-45.820159 12.082772,-53.20365 C 12.291109,-56.892353 12.247197,-60.350477 11.981664,-63.356427 C 11.926254,-63.983726 11.861047,-64.597154 11.779448,-65.179984 z M -41.201041,-11.606833 C -44.928626,-10.213843 -48.079356,-8.575111 -50.629344,-6.333306 C -52.927896,-4.312546 -54.721631,-2.107556 -55.735288,0.443434 C -52.534503,1.279044 -49.115152,1.924984 -45.548677,2.414844 C -43.996635,-2.387916 -42.590288,-7.062001 -41.201041,-11.606833 z "
           style="opacity:0.06967211;fill:url(#linearGradient3562);fill-opacity:1;fill-rule:evenodd;stroke:none;stroke-width:1px;stroke-linecap:butt;stroke-linejoin:miter;stroke-opacity:1" />
        <path
           sodipodi:nodetypes="cssssccccccssscccssssssc"
           style="opacity:0.06967211;fill:url(#linearGradient3564);fill-opacity:1;fill-rule:evenodd;stroke:none;stroke-width:1px;stroke-linecap:butt;stroke-linejoin:miter;stroke-opacity:1"
           d="M -8.7201586,-78.708806 C -15.064043,-78.262185 -21.207138,-75.654357 -24.518254,-70.626013 C -25.274372,-69.47776 -25.409137,-68.699066 -25.680994,-67.521037 C -25.952834,-66.343009 -26.151237,-64.900547 -26.28764,-63.356427 C -26.55318,-60.350467 -26.597092,-56.892352 -26.388748,-53.20365 C -26.299378,-51.621305 -26.172528,-50.043974 -26.009594,-48.4969 C -19.517618,-58.696882 -10.404888,-67.952398 3.8677624,-76.293825 C 0.90419941,-77.866459 -2.5606196,-78.708806 -6.1166326,-78.708806 L -8.1893426,-78.708806 L -8.3157276,-78.708806 L -8.4168346,-78.708806 C -8.4231336,-78.708431 -8.4358006,-78.708929 -8.4421126,-78.708806 C -8.4674026,-78.709036 -8.5179346,-78.708644 -8.5432206,-78.708806 C -8.5495306,-78.708659 -8.5622006,-78.709216 -8.5684966,-78.708806 C -8.6184726,-78.705556 -8.6702066,-78.712323 -8.7201586,-78.708806 z M 11.779448,-65.179984 C -38.123258,1.399924 33.963613,-0.548436 42.010683,2.439484 C 41.250223,-0.971756 39.174013,-3.804946 36.298093,-6.333306 C 32.205443,-9.931333 26.514049,-12.061328 19.261426,-14.120384 C 12.75428,-15.9678 9.0306924,-18.319908 7.4065364,-21.069615 C 6.0799934,-23.31546 6.0062654,-29.7488 8.2406754,-34.130227 C 10.477635,-38.516635 11.665757,-45.820159 12.082772,-53.20365 C 12.291109,-56.892353 12.247197,-60.350477 11.981664,-63.356427 C 11.926254,-63.983726 11.861047,-64.597154 11.779448,-65.179984 z "
           id="path2070" />
        <path
           sodipodi:nodetypes="ccsscsccccc"
           id="path2074"
           d="M -8.7569096,-78.248601 C -14.722822,-77.860611 -20.529697,-75.477128 -23.726519,-70.823189 C -21.007592,-75.414336 -13.131768,-76.155557 -11.714691,-76.339396 C -7.0992366,-76.938164 -3.9186586,-76.751053 -0.086511592,-75.796814 C 5.9270944,-74.299371 10.847625,-67.256109 10.847625,-67.256109 C 10.597173,-68.347964 10.174917,-69.267108 9.4679424,-70.340743 C 6.2966464,-75.156736 -0.12644759,-78.248601 -6.4336256,-78.248601 C -7.0882966,-78.248601 -7.7429676,-78.248601 -8.3976386,-78.248601 C -8.4375576,-78.248601 -8.4774766,-78.248601 -8.5173956,-78.248601 C -8.5493306,-78.248601 -8.5812656,-78.248601 -8.6132016,-78.248601 C -8.6609456,-78.245752 -8.7091826,-78.251705 -8.7569096,-78.248601 z "
           style="fill:url(#linearGradient3566);fill-opacity:1;stroke:none;stroke-width:2;stroke-miterlimit:4;stroke-dasharray:none;stroke-opacity:1" />
        <path
           sodipodi:nodetypes="ccc"
           id="path2076"
           d="M 6.5122784,-20.442255 C 9.5222654,-12.393451 30.089353,-12.360081 38.512423,-3.259786 C 29.858123,-10.131695 7.5337684,-10.38839 6.5122784,-20.442255 z "
           style="fill:url(#linearGradient3568);fill-opacity:1;fill-rule:evenodd;stroke:none;stroke-width:1px;stroke-linecap:butt;stroke-linejoin:miter;stroke-opacity:1" />
        <path
           style="opacity:0.5;fill:url(#radialGradient3570);fill-opacity:1;fill-rule:evenodd;stroke:none;stroke-width:1px;stroke-linecap:butt;stroke-linejoin:miter;stroke-opacity:1"
           d="M 6.5122784,-20.442255 C 9.5222654,-12.393451 30.089353,-12.360081 38.512423,-3.259786 C 29.858123,-10.131695 7.5337684,-10.38839 6.5122784,-20.442255 z "
           id="path2078"
           sodipodi:nodetypes="ccc" />
        <g
           transform="matrix(-0.808862,0,0,0.788565,44.88815,-80.22663)"
           id="g2080">
          <path
             sodipodi:nodetypes="ccc"
             id="path2082"
             d="M 81.425675,75.451822 C 85.146934,85.658719 110.57411,85.701037 120.98758,97.241362 C 110.28824,88.526911 82.688547,88.201388 81.425675,75.451822 z "
             style="fill:url(#linearGradient3572);fill-opacity:1;fill-rule:evenodd;stroke:none;stroke-width:1px;stroke-linecap:butt;stroke-linejoin:miter;stroke-opacity:1" />
          <path
             style="opacity:0.5;fill:url(#radialGradient3574);fill-opacity:1;fill-rule:evenodd;stroke:none;stroke-width:1px;stroke-linecap:butt;stroke-linejoin:miter;stroke-opacity:1"
             d="M 81.425675,75.451822 C 85.146934,85.658719 110.57411,85.701037 120.98758,97.241362 C 110.28824,88.526911 82.688547,88.201388 81.425675,75.451822 z "
             id="path2084"
             sodipodi:nodetypes="ccc" />
        </g>
      </g>
    </g>
    <path
       sodipodi:nodetypes="ccc"
       id="path2276"
       d="M 50.892799,3.2812959 L 50.892799,0.48658747 L 50.892799,3.2812959 z "
       style="fill:#ffffff;fill-opacity:0.75688076;fill-rule:nonzero;stroke:none;stroke-width:0.5;stroke-linecap:round;stroke-linejoin:round;stroke-miterlimit:4;stroke-dasharray:none;stroke-dashoffset:4;stroke-opacity:1" />
    <path
       sodipodi:type="arc"
       style="opacity:0.38139535;fill:url(#radialGradient3297);fill-opacity:1;fill-rule:nonzero;stroke:none;stroke-width:0;stroke-linecap:round;stroke-linejoin:round;stroke-miterlimit:4;stroke-dasharray:none;stroke-dashoffset:4;stroke-opacity:1"
       id="path3289"
       sodipodi:cx="63.912209"
       sodipodi:cy="115.70919"
       sodipodi:rx="63.912209"
       sodipodi:ry="12.641975"
       d="M 127.82442 115.70919 A 63.912209 12.641975 0 1 1  0,115.70919 A 63.912209 12.641975 0 1 1  127.82442 115.70919 z"
       transform="matrix(0.877637,0,0,0.416667,15.64092,74.87151)" />
    <path
       d="M 75.743982,28.204443 C 69.294361,28.589181 62.988897,31.18402 59.625433,36.291863 C 58.869315,37.440116 58.753387,38.224381 58.481532,39.40241 C 58.209691,40.580438 57.993993,42.005684 57.857589,43.549805 C 57.592049,46.555763 57.545262,50.022219 57.753605,53.710922 C 58.17062,61.094412 59.364306,68.402536 61.601258,72.788939 C 63.83567,77.170367 63.759717,83.60739 62.433177,85.853235 C 60.788065,88.638421 57.037552,91.069976 50.578248,92.903804 C 43.371951,94.949711 37.662392,96.938049 33.523782,100.57649 C 29.859839,103.79762 27.492322,107.52173 27.492322,112.29287 L 27.492322,119.34344 L 27.492322,122.66136 L 30.820029,122.66136 L 123.1637,122.66136 L 126.49141,122.66136 L 126.49141,119.34344 L 126.49141,112.29287 C 126.49142,107.52173 124.12389,103.79762 120.45995,100.57649 C 116.36731,96.978458 110.65811,94.859176 103.40549,92.80012 C 96.898347,90.952706 93.174713,88.602943 91.550556,85.853235 C 90.224016,83.607393 90.148071,77.170367 92.382482,72.788939 C 94.619443,68.402533 95.813121,61.094412 96.230136,53.710922 C 96.438471,50.022218 96.391676,46.555755 96.126143,43.549805 C 95.989748,42.005684 95.774058,40.580438 95.502202,39.40241 C 95.230354,38.224381 95.114418,37.440116 94.358308,36.291863 C 91.011497,31.209332 84.688022,28.204443 78.031776,28.204443 L 75.951958,28.204443 L 75.847974,28.204443 L 75.743982,28.204443 z "
       style="fill:black;fill-opacity:1;stroke:black;stroke-width:1.59729886;stroke-miterlimit:4;stroke-dasharray:none;stroke-opacity:0.23170734"
       id="path3293" />
    <path
       d="M 75.743982,28.204443 C 69.294361,28.589181 62.988897,31.18402 59.625433,36.291863 C 58.869315,37.440116 58.753387,38.224381 58.481532,39.40241 C 58.209691,40.580438 57.993993,42.005684 57.857589,43.549805 C 57.592049,46.555763 57.545262,50.022219 57.753605,53.710922 C 58.17062,61.094412 59.364306,68.402536 61.601258,72.788939 C 63.83567,77.170367 63.759717,83.60739 62.433177,85.853235 C 60.788065,88.638421 57.037552,91.069976 50.578248,92.903804 C 43.371951,94.949711 37.662392,96.938049 33.523782,100.57649 C 29.859839,103.79762 27.492322,107.52173 27.492322,112.29287 L 27.492322,119.34344 L 27.492322,122.66136 L 30.820029,122.66136 L 123.1637,122.66136 L 126.49141,122.66136 L 126.49141,119.34344 L 126.49141,112.29287 C 126.49142,107.52173 124.12389,103.79762 120.45995,100.57649 C 116.36731,96.978458 110.65811,94.859176 103.40549,92.80012 C 96.898347,90.952706 93.174713,88.602943 91.550556,85.853235 C 90.224016,83.607393 90.148071,77.170367 92.382482,72.788939 C 94.619443,68.402533 95.813121,61.094412 96.230136,53.710922 C 96.438471,50.022218 96.391676,46.555755 96.126143,43.549805 C 95.989748,42.005684 95.774058,40.580438 95.502202,39.40241 C 95.230354,38.224381 95.114418,37.440116 94.358308,36.291863 C 91.011497,31.209332 84.688022,28.204443 78.031776,28.204443 L 75.951958,28.204443 L 75.847974,28.204443 L 75.743982,28.204443 z "
       style="fill:black;fill-opacity:1;stroke:none;stroke-width:2;stroke-miterlimit:4;stroke-dasharray:none;stroke-opacity:1"
       id="path3220" />
    <path
       id="path2375"
       style="fill:black;fill-opacity:1;stroke:none;stroke-width:2;stroke-miterlimit:4;stroke-dasharray:none;stroke-opacity:1"
       d="M 75.743982,28.204443 C 69.294361,28.589181 62.988897,31.18402 59.625433,36.291863 C 58.869315,37.440116 58.753387,38.224381 58.481532,39.40241 C 58.209691,40.580438 57.993993,42.005684 57.857589,43.549805 C 57.592049,46.555763 57.545262,50.022219 57.753605,53.710922 C 58.17062,61.094412 59.364306,68.402536 61.601258,72.788939 C 63.83567,77.170367 63.759717,83.60739 62.433177,85.853235 C 60.788065,88.638421 57.037552,91.069976 50.578248,92.903804 C 43.371951,94.949711 37.662392,96.938049 33.523782,100.57649 C 29.859839,103.79762 27.492322,107.52173 27.492322,112.29287 L 27.492322,119.34344 L 27.492322,122.66136 L 30.820029,122.66136 L 123.1637,122.66136 L 126.49141,122.66136 L 126.49141,119.34344 L 126.49141,112.29287 C 126.49142,107.52173 124.12389,103.79762 120.45995,100.57649 C 116.36731,96.978458 110.65811,94.859176 103.40549,92.80012 C 96.898347,90.952706 93.174713,88.602943 91.550556,85.853235 C 90.224016,83.607393 90.148071,77.170367 92.382482,72.788939 C 94.619443,68.402533 95.813121,61.094412 96.230136,53.710922 C 96.438471,50.022218 96.391676,46.555755 96.126143,43.549805 C 95.989748,42.005684 95.774058,40.580438 95.502202,39.40241 C 95.230354,38.224381 95.114418,37.440116 94.358308,36.291863 C 91.011497,31.209332 84.688022,28.204443 78.031776,28.204443 L 75.951958,28.204443 L 75.847974,28.204443 L 75.743982,28.204443 z " />
    <path
       style="opacity:0.11885244;fill:url(#linearGradient2049);fill-opacity:1;fill-rule:evenodd;stroke:none;stroke-width:1px;stroke-linecap:butt;stroke-linejoin:miter;stroke-opacity:1"
       d="M 75.583882,28.208 C 69.187052,28.624014 62.971313,31.222855 59.634125,36.290793 C 58.878007,37.439046 58.743242,38.21774 58.471385,39.395769 C 58.199545,40.573797 58.001142,42.016259 57.864739,43.560379 C 57.599199,46.566339 57.555287,50.024454 57.763631,53.713156 C 58.180645,61.096647 59.368775,68.400175 61.605727,72.786579 C 63.840138,77.168005 63.766407,83.601344 62.439867,85.847191 C 60.794755,88.632374 57.04428,91.061163 50.584977,92.894992 C 43.37868,94.940897 37.661645,96.945066 33.523035,100.5835 C 31.224483,102.60426 29.430748,104.80925 28.417091,107.36024 C 60.58706,115.75866 114.39509,104.98678 126.16306,109.35629 C 125.4026,105.94505 123.32639,103.11186 120.45047,100.5835 C 116.35782,96.985473 110.66642,94.855478 103.4138,92.796422 C 96.906659,90.949006 93.183071,88.596898 91.558915,85.847191 C 90.232372,83.601346 90.158644,77.168006 92.393054,72.786579 C 94.630014,68.400171 95.818136,61.096647 96.235151,53.713156 C 96.443488,50.024453 96.399576,46.566329 96.134043,43.560379 C 95.997648,42.01626 95.773976,40.573797 95.502119,39.395769 C 95.230274,38.21774 95.120765,37.439046 94.364656,36.290793 C 91.017847,31.208262 84.691992,28.208 78.035746,28.208 L 75.963036,28.208 L 75.836651,28.208 L 75.735544,28.208 C 75.685156,28.211005 75.634251,28.204724 75.583882,28.208 z "
       id="path2377" />
    <path
       style="opacity:0.13;fill:url(#linearGradient2046);fill-opacity:1;fill-rule:evenodd;stroke:none;stroke-width:1px;stroke-linecap:butt;stroke-linejoin:miter;stroke-opacity:1"
       d="M 75.43222,28.208 C 69.088336,28.654621 62.945241,31.262449 59.634125,36.290793 C 58.878007,37.439046 58.743242,38.21774 58.471385,39.395769 C 58.199545,40.573797 58.001142,42.016259 57.864739,43.560379 C 57.599199,46.566339 57.555287,50.024454 57.763631,53.713156 C 57.853001,55.295501 57.979851,56.872832 58.142785,58.419906 C 64.634761,48.219924 73.747491,38.964408 88.020141,30.622981 C 85.056578,29.050347 81.591759,28.208 78.035746,28.208 L 75.963036,28.208 L 75.836651,28.208 L 75.735544,28.208 C 75.729245,28.208375 75.716578,28.207877 75.710266,28.208 C 75.684976,28.20777 75.634444,28.208162 75.609158,28.208 C 75.602848,28.208147 75.590178,28.20759 75.583882,28.208 C 75.533906,28.21125 75.482172,28.204483 75.43222,28.208 z M 95.931827,41.736822 C 69.65181,61.185746 66.214274,82.72362 63.400391,110.66235 C 90.402132,110.46122 118.11599,106.36837 126.16306,109.35629 C 125.4026,105.94505 123.32639,103.11186 120.45047,100.5835 C 116.35782,96.985473 110.66642,94.855478 103.4138,92.796422 C 96.906659,90.949006 93.183071,88.596898 91.558915,85.847191 C 90.232372,83.601346 90.158644,77.168006 92.393054,72.786579 C 94.630014,68.400171 95.818136,61.096647 96.235151,53.713156 C 96.443488,50.024453 96.399576,46.566329 96.134043,43.560379 C 96.078633,42.93308 96.013426,42.319652 95.931827,41.736822 z M 42.951338,95.309973 C 39.223753,96.702963 36.073023,98.341695 33.523035,100.5835 C 31.224483,102.60426 29.430748,104.80925 28.417091,107.36024 C 31.617876,108.19585 35.037227,108.84179 38.603702,109.33165 C 40.155744,104.52889 41.562091,99.854805 42.951338,95.309973 z "
       id="path3271" />
    <path
       id="path3276"
       d="M 75.43222,28.208 C 69.088336,28.654621 62.945241,31.262449 59.634125,36.290793 C 58.878007,37.439046 58.743242,38.21774 58.471385,39.395769 C 58.199545,40.573797 58.001142,42.016259 57.864739,43.560379 C 57.599199,46.566339 57.555287,50.024454 57.763631,53.713156 C 57.853001,55.295501 57.979851,56.872832 58.142785,58.419906 C 64.634761,48.219924 73.747491,38.964408 88.020141,30.622981 C 85.056578,29.050347 81.591759,28.208 78.035746,28.208 L 75.963036,28.208 L 75.836651,28.208 L 75.735544,28.208 C 75.729245,28.208375 75.716578,28.207877 75.710266,28.208 C 75.684976,28.20777 75.634444,28.208162 75.609158,28.208 C 75.602848,28.208147 75.590178,28.20759 75.583882,28.208 C 75.533906,28.21125 75.482172,28.204483 75.43222,28.208 z M 95.931827,41.736822 C 46.029121,108.31673 118.11599,106.36837 126.16306,109.35629 C 125.4026,105.94505 123.32639,103.11186 120.45047,100.5835 C 116.35782,96.985473 110.66642,94.855478 103.4138,92.796422 C 96.906659,90.949006 93.183071,88.596898 91.558915,85.847191 C 90.232372,83.601346 90.158644,77.168006 92.393054,72.786579 C 94.630014,68.400171 95.818136,61.096647 96.235151,53.713156 C 96.443488,50.024453 96.399576,46.566329 96.134043,43.560379 C 96.078633,42.93308 96.013426,42.319652 95.931827,41.736822 z "
       style="opacity:0.14;fill:url(#linearGradient2043);fill-opacity:1;fill-rule:evenodd;stroke:none;stroke-width:1px;stroke-linecap:butt;stroke-linejoin:miter;stroke-opacity:1"
       sodipodi:nodetypes="cssssccccccssscccssssssc" />
    <path
       d="M 75.73823,29.126708 C 69.491235,29.507727 63.383869,32.077482 60.126074,37.135947 C 59.393712,38.2731 59.281426,39.049784 59.018112,40.216424 C 58.754811,41.383065 58.545889,42.794533 58.413771,44.323725 C 58.156573,47.300625 58.111255,50.497001 58.313054,54.150046 C 58.716967,61.46216 59.873151,68.463066 62.039827,72.807066 C 64.204039,77.146138 64.130472,84.230642 62.845608,86.454778 C 61.252181,89.213039 57.619496,91.621087 51.363123,93.437188 C 44.383225,95.463318 38.853041,97.432435 34.844454,101.0357 C 31.29562,104.2257 29.002487,107.67723 29.002487,112.40226 L 29.002487,118.35953 L 29.002487,121.64538 L 32.225644,121.64538 L 121.66817,121.64538 L 124.89134,121.64538 L 124.89134,118.35953 L 124.89134,112.40226 C 124.89135,107.67723 122.5982,104.2257 119.04937,101.0357 C 115.0853,97.472452 109.55547,95.373658 102.5307,93.334506 C 96.227993,91.504951 92.621342,89.177904 91.048212,86.454778 C 89.763348,84.230645 89.689789,77.146138 91.854002,72.807066 C 94.020685,68.463063 95.176862,61.46216 95.580775,54.150046 C 95.782566,50.497 95.73724,47.300616 95.48005,44.323725 C 95.347939,42.794533 95.139026,41.383065 94.87571,40.216424 C 94.612403,39.049784 94.500109,38.2731 93.767754,37.135947 C 90.52609,32.102549 84.401277,29.126708 77.954148,29.126708 L 75.939672,29.126708 L 75.838955,29.126708 L 75.73823,29.126708 z "
       style="fill:none;fill-opacity:1;stroke:black;stroke-width:1.87726903;stroke-miterlimit:4;stroke-dasharray:none;stroke-opacity:1"
       id="path3295"
       sodipodi:nodetypes="cssssssssccccccccsssssssscccc" />
    <path
       style="fill:url(#linearGradient2039);fill-opacity:1;stroke:none;stroke-width:2;stroke-miterlimit:4;stroke-dasharray:none;stroke-opacity:1"
       d="M 75.395469,28.668205 C 69.429557,29.056195 63.622682,31.439678 60.42586,36.093617 C 63.144787,31.50247 71.020611,30.761249 72.437688,30.57741 C 77.053142,29.978642 80.23372,30.165753 84.065867,31.119992 C 90.079473,32.617435 95.000004,39.660697 95.000004,39.660697 C 94.749552,38.568842 94.327296,37.649698 93.620321,36.576063 C 90.449025,31.76007 84.025931,28.668205 77.718753,28.668205 C 77.064082,28.668205 76.409411,28.668205 75.75474,28.668205 C 75.714821,28.668205 75.674902,28.668205 75.634983,28.668205 C 75.603048,28.668205 75.571113,28.668205 75.539177,28.668205 C 75.491433,28.671054 75.443196,28.665101 75.395469,28.668205 z "
       id="path3278"
       sodipodi:nodetypes="ccsscsccccc" />
    <path
       style="fill:url(#linearGradient2036);fill-opacity:1;fill-rule:evenodd;stroke:none;stroke-width:1px;stroke-linecap:butt;stroke-linejoin:miter;stroke-opacity:1"
       d="M 90.664657,86.474551 C 93.674644,94.523355 114.24173,94.556725 122.6648,103.65702 C 114.0105,96.785111 91.686147,96.528416 90.664657,86.474551 z "
       id="path3303"
       sodipodi:nodetypes="ccc" />
    <path
       sodipodi:nodetypes="ccc"
       id="path3321"
       d="M 90.664657,86.474551 C 93.674644,94.523355 114.24173,94.556725 122.6648,103.65702 C 114.0105,96.785111 91.686147,96.528416 90.664657,86.474551 z "
       style="opacity:0.5;fill:url(#radialGradient2033);fill-opacity:1;fill-rule:evenodd;stroke:none;stroke-width:1px;stroke-linecap:butt;stroke-linejoin:miter;stroke-opacity:1" />
    <path
       sodipodi:nodetypes="ccc"
       id="path3415"
       d="M 443.4468,95.309976 L 443.4468,92.515267 L 443.4468,95.309976 z "
       style="fill:white;fill-opacity:0.75688076;fill-rule:nonzero;stroke:none;stroke-width:0.5;stroke-linecap:round;stroke-linejoin:round;stroke-miterlimit:4;stroke-dasharray:none;stroke-dashoffset:4;stroke-opacity:1" />
    <path
       sodipodi:nodetypes="ccc"
       id="path1561"
       d="M 85.756654,60.674986 L 85.756654,59.14825 L 85.756654,60.674986 z "
       style="fill:white;fill-opacity:0.75688076;fill-rule:nonzero;stroke:none;stroke-width:0.5;stroke-linecap:round;stroke-linejoin:round;stroke-miterlimit:4;stroke-dasharray:none;stroke-dashoffset:4;stroke-opacity:1" />
  </g>
</svg>
