<?xml version="1.0" encoding="UTF-8" standalone="no"?>
<!-- Created with Inkscape (http://www.inkscape.org/) -->
<svg
   xmlns:dc="http://purl.org/dc/elements/1.1/"
   xmlns:cc="http://web.resource.org/cc/"
   xmlns:rdf="http://www.w3.org/1999/02/22-rdf-syntax-ns#"
   xmlns:svg="http://www.w3.org/2000/svg"
   xmlns="http://www.w3.org/2000/svg"
   xmlns:xlink="http://www.w3.org/1999/xlink"
   xmlns:sodipodi="http://sodipodi.sourceforge.net/DTD/sodipodi-0.dtd"
   xmlns:inkscape="http://www.inkscape.org/namespaces/inkscape"
   width="128"
   height="128"
   id="svg6645"
   sodipodi:version="0.32"
   inkscape:version="0.44"
   sodipodi:docbase="/home/pinheiro/artwork/Oxygen/theme/svg/actions"
   sodipodi:docname="start.svg"
   version="1.0"
   inkscape:r_cx="true"
   inkscape:r_cy="true">
  <defs
     id="defs6647">
    <linearGradient
       id="linearGradient8361">
      <stop
         id="stop8363"
         offset="0"
         style="stop-color:#002246;stop-opacity:0;" />
      <stop
         style="stop-color:#002246;stop-opacity:0;"
         offset="0.78761059"
         id="stop8365" />
      <stop
         id="stop8367"
         offset="1"
         style="stop-color:#00438a;stop-opacity:1;" />
    </linearGradient>
    <linearGradient
       id="linearGradient6728">
      <stop
         style="stop-color:#002246;stop-opacity:0;"
         offset="0"
         id="stop6730" />
      <stop
         id="stop6736"
         offset="0.86725664"
         style="stop-color:#002246;stop-opacity:0;" />
      <stop
         style="stop-color:#002246;stop-opacity:0.71530247;"
         offset="1"
         id="stop6732" />
    </linearGradient>
    <linearGradient
       id="linearGradient4709">
      <stop
         style="stop-color:black;stop-opacity:0.33451957;"
         offset="0"
         id="stop4711" />
      <stop
         style="stop-color:black;stop-opacity:0;"
         offset="1"
         id="stop4713" />
    </linearGradient>
    <linearGradient
       inkscape:collect="always"
       id="linearGradient4632">
      <stop
         style="stop-color:white;stop-opacity:1;"
         offset="0"
         id="stop4634" />
      <stop
         style="stop-color:white;stop-opacity:0;"
         offset="1"
         id="stop4636" />
    </linearGradient>
    <linearGradient
       id="linearGradient4601">
      <stop
         style="stop-color:white;stop-opacity:0"
         offset="0"
         id="stop4603" />
      <stop
         id="stop4609"
         offset="0.60768723"
         style="stop-color:white;stop-opacity:0;" />
      <stop
         style="stop-color:white;stop-opacity:1;"
         offset="0.80807632"
         id="stop4613" />
      <stop
         style="stop-color:white;stop-opacity:0;"
         offset="0.94315338"
         id="stop4611" />
      <stop
         style="stop-color:white;stop-opacity:0"
         offset="1"
         id="stop4605" />
    </linearGradient>
    <linearGradient
       id="linearGradient3701">
      <stop
         style="stop-color:black;stop-opacity:1;"
         offset="0"
         id="stop3703" />
      <stop
         id="stop3709"
         offset="0.76106197"
         style="stop-color:black;stop-opacity:1;" />
      <stop
         style="stop-color:black;stop-opacity:0;"
         offset="1"
         id="stop3705" />
    </linearGradient>
    <radialGradient
       inkscape:collect="always"
       xlink:href="#linearGradient3954"
       id="radialGradient1433"
       gradientUnits="userSpaceOnUse"
       gradientTransform="matrix(0.727637,-0.905638,2.467696,1.982685,-82.85192,-66.54418)"
       cx="-44.788288"
       cy="28.315956"
       fx="-38.324715"
       fy="31.286478"
       r="27.019239" />
    <linearGradient
       id="linearGradient5762">
      <stop
         style="stop-color:#000000;stop-opacity:1;"
         offset="0"
         id="stop5764" />
      <stop
         id="stop6643"
         offset="0.5"
         style="stop-color:#000000;stop-opacity:0.70143884;" />
      <stop
         style="stop-color:#000000;stop-opacity:0;"
         offset="1"
         id="stop5766" />
    </linearGradient>
    <linearGradient
       id="linearGradient3954">
      <stop
         style="stop-color:#b3b3b3;stop-opacity:1;"
         offset="0"
         id="stop3956" />
      <stop
         id="stop3962"
         offset="0.52879584"
         style="stop-color:#ffffff;stop-opacity:1;" />
      <stop
         style="stop-color:#c5c5c5;stop-opacity:1;"
         offset="1"
         id="stop3958" />
    </linearGradient>
    <radialGradient
       inkscape:collect="always"
       xlink:href="#linearGradient3954"
       id="radialGradient1350"
       gradientUnits="userSpaceOnUse"
       gradientTransform="matrix(0.727637,-0.905638,2.467696,1.982685,-82.85192,-66.54418)"
       cx="-44.788288"
       cy="28.315956"
       fx="-38.324715"
       fy="31.286478"
       r="27.019239" />
    <radialGradient
       inkscape:collect="always"
       xlink:href="#linearGradient3954"
       id="radialGradient2249"
       cx="213.73038"
       cy="94.003212"
       fx="210.86234"
       fy="101.23295"
       r="26.5"
       gradientUnits="userSpaceOnUse"
       gradientTransform="matrix(1.082043,1.168144,-0.204352,1.273177,-172.1067,-279.9753)"
       spreadMethod="reflect" />
    <radialGradient
       inkscape:collect="always"
       xlink:href="#linearGradient3954"
       id="radialGradient2303"
       gradientUnits="userSpaceOnUse"
       gradientTransform="matrix(0.711044,1.183934,-0.134285,1.290387,-57.48855,-284.2081)"
       spreadMethod="reflect"
       cx="213.73038"
       cy="94.003212"
       fx="210.86234"
       fy="101.23295"
       r="26.5" />
    <radialGradient
       inkscape:collect="always"
       xlink:href="#linearGradient3954"
       id="radialGradient1421"
       gradientUnits="userSpaceOnUse"
       gradientTransform="matrix(0.727637,-0.905638,2.467696,1.982685,-82.85192,-66.54418)"
       cx="-44.788288"
       cy="28.315956"
       fx="-38.324715"
       fy="31.286478"
       r="27.019239" />
    <linearGradient
       inkscape:collect="always"
       xlink:href="#linearGradient3954"
       id="linearGradient7800"
       gradientUnits="userSpaceOnUse"
       x1="10.955224"
       y1="132.72182"
       x2="134.49483"
       y2="9.1802578" />
    <radialGradient
       inkscape:collect="always"
       xlink:href="#linearGradient3701"
       id="radialGradient8305"
       gradientUnits="userSpaceOnUse"
       cx="64.17112"
       cy="65.540108"
       fx="64.17112"
       fy="81.597778"
       r="63.144386" />
    <radialGradient
       inkscape:collect="always"
       xlink:href="#linearGradient5762"
       id="radialGradient8307"
       gradientUnits="userSpaceOnUse"
       cx="64.17112"
       cy="65.540108"
       fx="64.146858"
       fy="66.287804"
       r="63.144386" />
    <linearGradient
       inkscape:collect="always"
       xlink:href="#linearGradient3954"
       id="linearGradient8309"
       gradientUnits="userSpaceOnUse"
       x1="10.955224"
       y1="132.72182"
       x2="134.49483"
       y2="9.1802578" />
    <radialGradient
       inkscape:collect="always"
       xlink:href="#linearGradient6728"
       id="radialGradient8319"
       gradientUnits="userSpaceOnUse"
       cx="64.17112"
       cy="65.540108"
       fx="60.836517"
       fy="25.623783"
       r="63.144386" />
    <linearGradient
       inkscape:collect="always"
       xlink:href="#linearGradient4632"
       id="linearGradient8323"
       gradientUnits="userSpaceOnUse"
       gradientTransform="matrix(0.914399,0,0,0.916667,5.369695,5.031241)"
       x1="39.238892"
       y1="-12.986332"
       x2="47.066605"
       y2="68.505501" />
    <radialGradient
       inkscape:collect="always"
       xlink:href="#linearGradient4601"
       id="radialGradient8326"
       gradientUnits="userSpaceOnUse"
       gradientTransform="matrix(1.702767,0,0,1.478985,-45.08585,0.323337)"
       cx="83.739357"
       cy="23.903526"
       fx="63.813786"
       fy="38.303715"
       r="48.206" />
    <radialGradient
       inkscape:collect="always"
       xlink:href="#linearGradient4601"
       id="radialGradient8329"
       gradientUnits="userSpaceOnUse"
       gradientTransform="matrix(1.702767,0,0,1.478985,-45.08585,0.323337)"
       cx="49.661034"
       cy="15.306388"
       fx="29.735439"
       fy="29.70657"
       r="48.206" />
    <linearGradient
       inkscape:collect="always"
       xlink:href="#linearGradient3954"
       id="linearGradient8332"
       gradientUnits="userSpaceOnUse"
       gradientTransform="translate(1.007221e-4,-127.9688)"
       x1="45.017605"
       y1="216.18004"
       x2="92.593002"
       y2="171.30652" />
    <radialGradient
       inkscape:collect="always"
       xlink:href="#linearGradient8361"
       id="radialGradient8351"
       gradientUnits="userSpaceOnUse"
       cx="64.49144"
       cy="66.580559"
       fx="63.720734"
       fy="15.594903"
       r="63.144386"
       gradientTransform="matrix(0.751863,0,0,0.784203,15.90101,14.14336)" />
    <linearGradient
       inkscape:collect="always"
       xlink:href="#linearGradient3954"
       id="linearGradient11797"
       gradientUnits="userSpaceOnUse"
       gradientTransform="translate(6.194842e-5,-127.9688)"
       x1="45.017605"
       y1="216.18004"
       x2="92.593002"
       y2="171.30652" />
  </defs>
  <sodipodi:namedview
     id="base"
     pagecolor="#ffffff"
     bordercolor="#666666"
     borderopacity="1.0"
     inkscape:pageopacity="0.0"
     inkscape:pageshadow="2"
     inkscape:zoom="4.8810985"
     inkscape:cx="46.477357"
     inkscape:cy="98.157523"
     inkscape:current-layer="layer1"
     showgrid="true"
     inkscape:grid-bbox="true"
     inkscape:document-units="px"
     showguides="true"
     inkscape:guide-bbox="true"
     inkscape:window-width="942"
     inkscape:window-height="959"
     inkscape:window-x="637"
     inkscape:window-y="85"
     gridspacingx="4px"
     gridspacingy="4px">
    <sodipodi:guide
       orientation="horizontal"
       position="806.61567"
       id="guide2808" />
  </sodipodi:namedview>
  <metadata
     id="metadata6650">
    <rdf:RDF>
      <cc:Work
         rdf:about="">
        <dc:format>image/svg+xml</dc:format>
        <dc:type
           rdf:resource="http://purl.org/dc/dcmitype/StillImage" />
      </cc:Work>
    </rdf:RDF>
  </metadata>
  <g
     id="layer1"
     inkscape:label="Layer 1"
     inkscape:groupmode="layer"
     inkscape:r_cx="true"
     inkscape:r_cy="true">
    <path
       transform="matrix(0.950203,0,0,0.950203,3.024395,-2.245163)"
       inkscape:r_cy="true"
       inkscape:r_cx="true"
       d="M 127.31551 65.540108 A 63.144386 63.144386 0 1 1  1.0267334,65.540108 A 63.144386 63.144386 0 1 1  127.31551 65.540108 z"
       sodipodi:ry="63.144386"
       sodipodi:rx="63.144386"
       sodipodi:cy="65.540108"
       sodipodi:cx="64.17112"
       id="path6658"
       style="fill:url(#radialGradient8305);fill-opacity:1;fill-rule:nonzero;stroke:none;stroke-width:0.69999999;stroke-linecap:round;stroke-linejoin:round;stroke-miterlimit:4;stroke-dasharray:none;stroke-dashoffset:4;stroke-opacity:0.9908257"
       sodipodi:type="arc" />
    <path
       transform="matrix(0.950204,0,0,-8.127437e-2,3.024495,128.1947)"
       inkscape:r_cy="true"
       inkscape:r_cx="true"
       d="M 127.31551 65.540108 A 63.144386 63.144386 0 1 1  1.0267334,65.540108 A 63.144386 63.144386 0 1 1  127.31551 65.540108 z"
       sodipodi:ry="63.144386"
       sodipodi:rx="63.144386"
       sodipodi:cy="65.540108"
       sodipodi:cx="64.17112"
       id="path6660"
       style="opacity:0.31868131;fill:url(#radialGradient8307);fill-opacity:1;fill-rule:nonzero;stroke:none;stroke-width:0.69999999;stroke-linecap:round;stroke-linejoin:round;stroke-miterlimit:4;stroke-dasharray:none;stroke-dashoffset:4;stroke-opacity:0.9908257"
       sodipodi:type="arc" />
    <path
       sodipodi:type="arc"
       style="fill:url(#linearGradient8309);fill-opacity:1;fill-rule:nonzero;stroke:none;stroke-width:0.69999999;stroke-linecap:round;stroke-linejoin:round;stroke-miterlimit:4;stroke-dasharray:none;stroke-dashoffset:4;stroke-opacity:0.9908257"
       id="path6662"
       sodipodi:cx="64.17112"
       sodipodi:cy="65.540108"
       sodipodi:rx="63.144386"
       sodipodi:ry="63.144386"
       d="M 127.31551 65.540108 A 63.144386 63.144386 0 1 1  1.0267334,65.540108 A 63.144386 63.144386 0 1 1  127.31551 65.540108 z"
       inkscape:r_cx="true"
       inkscape:r_cy="true"
       transform="matrix(0.886856,0,0,0.886856,7.089495,1.906537)" />
    <path
       transform="matrix(0.695094,0,0,0.696816,19.28639,14.36194)"
       inkscape:r_cy="true"
       inkscape:r_cx="true"
       d="M 127.31551 65.540108 A 63.144386 63.144386 0 1 1  1.0267334,65.540108 A 63.144386 63.144386 0 1 1  127.31551 65.540108 z"
       sodipodi:ry="63.144386"
       sodipodi:rx="63.144386"
       sodipodi:cy="65.540108"
       sodipodi:cx="64.17112"
       id="path6664"
       style="fill:#00438a;fill-opacity:1;fill-rule:nonzero;stroke:none;stroke-width:0.69999999;stroke-linecap:round;stroke-linejoin:round;stroke-miterlimit:4;stroke-dasharray:none;stroke-dashoffset:4;stroke-opacity:0.9908257"
       sodipodi:type="arc" />
    <path
       style="fill:url(#linearGradient11797);fill-opacity:1;stroke:none;stroke-width:67.69140625;stroke-linecap:round;stroke-linejoin:round;stroke-miterlimit:4;stroke-dasharray:none;stroke-dashoffset:4;stroke-opacity:1"
       d="M 92.019762,42.697807 C 92.019989,40.887215 91.270916,39.171269 89.954431,37.906262 C 88.637936,36.641255 86.849737,35.958757 85.010155,36.00193 C 83.865952,36.028875 82.746682,36.32923 81.755694,36.892666 L 51.432884,54.123798 C 49.319672,55.324566 48.021959,57.527812 48.021959,59.928939 C 48.021959,62.330057 49.319674,64.564028 51.432884,65.764795 L 81.755694,82.995927 C 83.869279,84.197356 86.494825,84.196628 88.608837,82.995927 C 90.72284,81.795222 92.019953,79.561839 92.019762,77.160072 L 92.019762,42.697807 z M 40.01098,44.172128 C 40.01098,41.994064 38.224531,40.240604 36.00549,40.240604 C 33.786448,40.240604 32,41.994064 32,44.172128 L 32,75.62432 C 32,77.802384 33.786448,79.555844 36.00549,79.555844 C 38.224531,79.555844 40.01098,77.802384 40.01098,75.62432 L 40.01098,44.172128 z "
       id="path6666" />
    <path
       id="path6668"
       d="M 63.891285,16.031277 C 39.663335,16.031277 20.000085,35.743277 20.000085,60.031297 C 20.000085,64.992027 20.831325,69.761007 22.343235,74.210987 C 32.996025,85.662407 48.166005,92.830787 65.005715,92.830787 C 80.022035,92.830787 93.695445,87.145137 104.03915,77.791717 C 106.43408,72.359807 107.78249,66.348737 107.78249,60.031297 C 107.78249,35.743277 88.119245,16.031277 63.891285,16.031277 z "
       style="opacity:0.13919414;fill:url(#radialGradient8329);fill-opacity:1;stroke:none;stroke-width:0.412;stroke-linecap:round;stroke-linejoin:round;stroke-miterlimit:4;stroke-dasharray:none;stroke-dashoffset:4;stroke-opacity:1" />
    <path
       style="opacity:0.19047618;fill:url(#radialGradient8326);fill-opacity:1;stroke:none;stroke-width:0.412;stroke-linecap:round;stroke-linejoin:round;stroke-miterlimit:4;stroke-dasharray:none;stroke-dashoffset:4;stroke-opacity:1"
       d="M 63.891285,16.031277 C 39.663335,16.031277 20.000085,35.743277 20.000085,60.031297 C 20.000085,64.992027 20.831325,69.761007 22.343235,74.210987 C 32.996025,85.662407 48.166005,92.830787 65.005715,92.830787 C 80.022035,92.830787 93.695445,87.145137 104.03915,77.791717 C 106.43408,72.359807 107.78249,66.348737 107.78249,60.031297 C 107.78249,35.743277 88.119245,16.031277 63.891285,16.031277 z "
       id="path6670" />
    <path
       style="opacity:0.77289381;fill:url(#linearGradient8323);fill-opacity:1;stroke:none;stroke-width:0.412;stroke-linecap:round;stroke-linejoin:round;stroke-miterlimit:4;stroke-dasharray:none;stroke-dashoffset:4;stroke-opacity:1"
       d="M 63.891285,16.031277 C 47.757975,16.031277 33.656425,24.790007 26.029415,37.802127 C 28.630965,48.115437 44.227675,56.049527 63.062615,56.049527 C 83.203205,56.049527 99.605275,46.977357 100.41013,35.625037 C 92.536875,23.813837 79.115465,16.031277 63.891285,16.031277 z "
       id="path6672" />
    <path
       sodipodi:type="arc"
       style="opacity:0.59706941;fill:url(#radialGradient8319);fill-opacity:1;fill-rule:nonzero;stroke:none;stroke-width:0.69999999;stroke-linecap:round;stroke-linejoin:round;stroke-miterlimit:4;stroke-dasharray:none;stroke-dashoffset:4;stroke-opacity:0.9908257"
       id="path6726"
       sodipodi:cx="64.17112"
       sodipodi:cy="65.540108"
       sodipodi:rx="63.144386"
       sodipodi:ry="63.144386"
       d="M 127.31551 65.540108 A 63.144386 63.144386 0 1 1  1.0267334,65.540108 A 63.144386 63.144386 0 1 1  127.31551 65.540108 z"
       inkscape:r_cx="true"
       inkscape:r_cy="true"
       transform="matrix(0.695094,0,0,0.696816,19.28639,14.36194)" />
    <path
       style="opacity:0.34798535;fill:url(#radialGradient8351);fill-opacity:1.0;fill-rule:nonzero;stroke:none;stroke-width:0.69999999;stroke-linecap:round;stroke-linejoin:round;stroke-miterlimit:4;stroke-dasharray:none;stroke-dashoffset:4;stroke-opacity:0.9908257"
       d="M 63.90625 16.03125 C 63.13394 16.03125 62.356261 16.054101 61.59375 16.09375 C 60.856617 16.131774 60.133365 16.175901 59.40625 16.25 C 58.915209 16.300083 58.423623 16.371272 57.9375 16.4375 C 57.927241 16.438899 57.916507 16.436094 57.90625 16.4375 C 56.944472 16.569226 56.003418 16.744178 55.0625 16.9375 C 54.16399 17.122109 53.283864 17.323622 52.40625 17.5625 C 52.281837 17.596364 52.155222 17.621317 52.03125 17.65625 C 51.178639 17.896502 50.330785 18.178904 49.5 18.46875 C 48.59815 18.783389 47.717795 19.129032 46.84375 19.5 C 46.834945 19.503729 46.821302 19.496266 46.8125 19.5 C 45.977539 19.855022 45.151364 20.251775 44.34375 20.65625 C 44.264393 20.695994 44.172832 20.709789 44.09375 20.75 C 43.301604 21.152783 42.544904 21.582587 41.78125 22.03125 C 41.113502 22.423566 40.45717 22.855167 39.8125 23.28125 C 39.673302 23.37325 39.513088 23.43771 39.375 23.53125 C 39.363109 23.539289 39.355633 23.55445 39.34375 23.5625 C 39.176553 23.676 39.009295 23.790511 38.84375 23.90625 C 38.322726 24.269832 37.81674 24.645947 37.3125 25.03125 C 37.135717 25.166523 36.955913 25.299613 36.78125 25.4375 C 36.149976 25.935855 35.540209 26.468393 34.9375 27 C 34.240763 27.614542 33.59409 28.249272 32.9375 28.90625 C 32.921743 28.921998 32.890733 28.921728 32.875 28.9375 C 32.22431 29.59054 31.577766 30.276065 30.96875 30.96875 C 30.365138 31.655289 29.7794 32.339069 29.21875 33.0625 C 29.195864 33.092031 29.179063 33.126659 29.15625 33.15625 C 28.592321 33.887727 28.049289 34.639382 27.53125 35.40625 C 27.523081 35.418343 27.508157 35.425399 27.5 35.4375 C 26.982527 36.205131 26.500701 37.01159 26.03125 37.8125 C 26.657704 40.295948 28.065408 42.619801 30.0625 44.75 C 30.354467 44.402809 30.666944 44.062019 30.96875 43.71875 C 31.577766 43.026065 32.22431 42.340538 32.875 41.6875 C 32.890733 41.671728 32.921743 41.671996 32.9375 41.65625 C 33.59409 40.999272 34.240763 40.36454 34.9375 39.75 C 35.540209 39.218393 36.149976 38.685853 36.78125 38.1875 C 36.955913 38.049613 37.135717 37.916521 37.3125 37.78125 C 37.81674 37.395947 38.322726 37.01983 38.84375 36.65625 C 39.009295 36.540511 39.176553 36.425998 39.34375 36.3125 C 39.355633 36.30445 39.363109 36.289287 39.375 36.28125 C 39.513088 36.18771 39.673302 36.123248 39.8125 36.03125 C 40.45717 35.605167 41.113502 35.173564 41.78125 34.78125 C 42.544904 34.332587 43.301604 33.902781 44.09375 33.5 C 44.172832 33.459789 44.264393 33.445992 44.34375 33.40625 C 45.151364 33.001775 45.977539 32.60502 46.8125 32.25 C 46.821302 32.246266 46.834945 32.253727 46.84375 32.25 C 47.717795 31.879032 48.59815 31.533389 49.5 31.21875 C 50.330785 30.928904 51.178639 30.646502 52.03125 30.40625 C 52.155222 30.371317 52.281837 30.346364 52.40625 30.3125 C 53.283864 30.073622 54.16399 29.872109 55.0625 29.6875 C 56.003418 29.494178 56.944472 29.319226 57.90625 29.1875 C 57.916507 29.186094 57.927241 29.188899 57.9375 29.1875 C 58.423623 29.121272 58.915209 29.050083 59.40625 29 C 60.133365 28.925901 60.856617 28.881774 61.59375 28.84375 C 62.356261 28.804101 63.13394 28.78125 63.90625 28.78125 C 64.857761 28.78125 65.782237 28.815115 66.71875 28.875 C 66.865707 28.884372 67.009688 28.89543 67.15625 28.90625 C 67.776065 28.952121 68.387587 29.022304 69 29.09375 C 69.387142 29.138886 69.77224 29.163567 70.15625 29.21875 C 70.291955 29.238251 70.427197 29.260506 70.5625 29.28125 C 70.708947 29.303687 70.854032 29.351114 71 29.375 C 71.576275 29.469429 72.15023 29.570777 72.71875 29.6875 C 73.432841 29.834109 74.142722 29.975298 74.84375 30.15625 C 74.865705 30.161912 74.884309 30.181805 74.90625 30.1875 C 75.58475 30.363778 76.272129 30.542391 76.9375 30.75 C 77.134362 30.811391 77.335584 30.873414 77.53125 30.9375 C 77.669726 30.982908 77.799632 31.047002 77.9375 31.09375 C 78.591659 31.315306 79.235038 31.561263 79.875 31.8125 C 79.936173 31.836515 80.001461 31.850718 80.0625 31.875 C 80.157064 31.912649 80.24951 31.961712 80.34375 32 C 81.079779 32.298859 81.815668 32.60039 82.53125 32.9375 C 83.300885 33.300352 84.068056 33.688173 84.8125 34.09375 C 84.845273 34.111607 84.873527 34.13831 84.90625 34.15625 C 85.494376 34.478621 86.084824 34.808062 86.65625 35.15625 C 86.843073 35.270095 87.033768 35.383449 87.21875 35.5 C 87.421056 35.627463 87.61243 35.775586 87.8125 35.90625 C 88.353486 36.259645 88.882103 36.623692 89.40625 37 C 89.913942 37.364492 90.41501 37.739666 90.90625 38.125 C 91.110933 38.285555 91.329502 38.429654 91.53125 38.59375 C 92.174156 39.116574 92.794133 39.660986 93.40625 40.21875 C 93.449605 40.258245 93.488053 40.304082 93.53125 40.34375 C 94.182078 40.941391 94.792366 41.551968 95.40625 42.1875 C 95.908713 42.707681 96.398311 43.26706 96.875 43.8125 C 98.94815 41.306149 100.19898 38.548503 100.40625 35.625 C 99.972297 34.973999 99.529535 34.344645 99.0625 33.71875 C 99.000208 33.635266 98.937868 33.551774 98.875 33.46875 C 98.511101 32.988228 98.132853 32.527295 97.75 32.0625 C 97.5726 31.847038 97.400132 31.618244 97.21875 31.40625 C 97.123852 31.295433 97.002224 31.203606 96.90625 31.09375 C 96.420589 30.537843 95.918838 29.968163 95.40625 29.4375 C 94.792366 28.80197 94.182078 28.191391 93.53125 27.59375 C 93.488053 27.554084 93.449605 27.508245 93.40625 27.46875 C 92.794133 26.910988 92.174156 26.366574 91.53125 25.84375 C 91.329502 25.679656 91.110933 25.535555 90.90625 25.375 C 90.41501 24.989668 89.913942 24.614492 89.40625 24.25 C 88.882103 23.873694 88.353486 23.509645 87.8125 23.15625 C 87.61243 23.025588 87.421056 22.877463 87.21875 22.75 C 87.033768 22.633451 86.843073 22.520095 86.65625 22.40625 C 86.084824 22.058064 85.494376 21.728621 84.90625 21.40625 C 84.873527 21.388312 84.845273 21.361607 84.8125 21.34375 C 84.068056 20.938175 83.300885 20.550352 82.53125 20.1875 C 81.815668 19.850392 81.079779 19.548859 80.34375 19.25 C 80.24951 19.211712 80.157064 19.162649 80.0625 19.125 C 80.001461 19.100718 79.936173 19.086515 79.875 19.0625 C 79.235038 18.811263 78.591659 18.565306 77.9375 18.34375 C 77.799632 18.297002 77.669726 18.232908 77.53125 18.1875 C 77.335584 18.123414 77.134362 18.061391 76.9375 18 C 76.272129 17.792391 75.58475 17.613778 74.90625 17.4375 C 74.884309 17.431805 74.865705 17.411912 74.84375 17.40625 C 74.142722 17.225298 73.432841 17.084109 72.71875 16.9375 C 72.15023 16.820777 71.576275 16.719429 71 16.625 C 70.854032 16.601114 70.708947 16.553687 70.5625 16.53125 C 70.427197 16.510506 70.291955 16.488251 70.15625 16.46875 C 69.77224 16.413567 69.387142 16.388886 69 16.34375 C 68.387587 16.272304 67.776065 16.202121 67.15625 16.15625 C 67.009688 16.14543 66.865707 16.134372 66.71875 16.125 C 65.782237 16.065115 64.857761 16.03125 63.90625 16.03125 z "
       id="path8340" />
  </g>
</svg>
