<?xml version="1.0" encoding="UTF-8" standalone="no"?>
<!-- Created with Inkscape (http://www.inkscape.org/) -->
<svg
   xmlns:dc="http://purl.org/dc/elements/1.1/"
   xmlns:cc="http://web.resource.org/cc/"
   xmlns:rdf="http://www.w3.org/1999/02/22-rdf-syntax-ns#"
   xmlns:svg="http://www.w3.org/2000/svg"
   xmlns="http://www.w3.org/2000/svg"
   xmlns:xlink="http://www.w3.org/1999/xlink"
   xmlns:sodipodi="http://inkscape.sourceforge.net/DTD/sodipodi-0.dtd"
   xmlns:inkscape="http://www.inkscape.org/namespaces/inkscape"
   width="128"
   height="128"
   id="svg1307"
   sodipodi:version="0.32"
   inkscape:version="0.43"
   version="1.0"
   sodipodi:docbase="/home/pinheiro/Documents/pics/new oxygen/svg"
   sodipodi:docname="text.svg">
  <defs
     id="defs1309">
    <linearGradient
       inkscape:collect="always"
       id="linearGradient3291">
      <stop
         style="stop-color:#000000;stop-opacity:1;"
         offset="0"
         id="stop3293" />
      <stop
         style="stop-color:#000000;stop-opacity:0;"
         offset="1"
         id="stop3295" />
    </linearGradient>
    <linearGradient
       id="linearGradient3259">
      <stop
         id="stop3261"
         offset="0"
         style="stop-color:#ffffff;stop-opacity:0.55035973;" />
      <stop
         id="stop3263"
         offset="1"
         style="stop-color:#000000;stop-opacity:0;" />
    </linearGradient>
    <radialGradient
       inkscape:collect="always"
       xlink:href="#linearGradient3291"
       id="radialGradient3297"
       cx="63.912209"
       cy="115.70919"
       fx="14.046639"
       fy="115.70919"
       r="63.912209"
       gradientTransform="matrix(1,0,0,0.197802,0,92.82166)"
       gradientUnits="userSpaceOnUse" />
    <linearGradient
       inkscape:collect="always"
       xlink:href="#linearGradient3259"
       id="linearGradient2321"
       gradientUnits="userSpaceOnUse"
       x1="-7.5180016"
       y1="161.45293"
       x2="52.636906"
       y2="82.139984"
       gradientTransform="matrix(1,0,5.336625e-2,1,-3.301854,1.20937e-15)" />
    <linearGradient
       inkscape:collect="always"
       xlink:href="#linearGradient3259"
       id="linearGradient2332"
       gradientUnits="userSpaceOnUse"
       x1="92.75872"
       y1="-15.341576"
       x2="79.540413"
       y2="67.115944"
       gradientTransform="matrix(1,0,5.336625e-2,1,-3.301854,1.20937e-15)" />
    <linearGradient
       inkscape:collect="always"
       xlink:href="#linearGradient3259"
       id="linearGradient2334"
       gradientUnits="userSpaceOnUse"
       x1="65.855209"
       y1="-12.895796"
       x2="45.299587"
       y2="91.92308"
       gradientTransform="matrix(1,0,5.336625e-2,1,-3.3205,-0.349396)" />
  </defs>
  <sodipodi:namedview
     id="base"
     pagecolor="#ffffff"
     bordercolor="#666666"
     borderopacity="1.0"
     inkscape:pageopacity="0.0"
     inkscape:pageshadow="2"
     inkscape:zoom="5.271552"
     inkscape:cx="70.053947"
     inkscape:cy="83.947646"
     inkscape:current-layer="layer1"
     showgrid="false"
     inkscape:document-units="px"
     inkscape:grid-bbox="true"
     guidetolerance="0.1px"
     showguides="true"
     inkscape:guide-bbox="true"
     inkscape:window-width="1106"
     inkscape:window-height="958"
     inkscape:window-x="601"
     inkscape:window-y="25">
    <sodipodi:guide
       orientation="horizontal"
       position="32.487481"
       id="guide2204" />
  </sodipodi:namedview>
  <metadata
     id="metadata1312">
    <rdf:RDF>
      <cc:Work
         rdf:about="">
        <dc:format>image/svg+xml</dc:format>
        <dc:type
           rdf:resource="http://purl.org/dc/dcmitype/StillImage" />
        <cc:license
           rdf:resource="http://creativecommons.org/licenses/GPL/2.0/" />
        <dc:contributor>
          <cc:Agent>
            <dc:title>Oxygen team</dc:title>
          </cc:Agent>
        </dc:contributor>
      </cc:Work>
      <cc:License
         rdf:about="http://creativecommons.org/licenses/LGPL/2.1/">
        <cc:permits
           rdf:resource="http://web.resource.org/cc/Reproduction" />
        <cc:permits
           rdf:resource="http://web.resource.org/cc/Distribution" />
        <cc:requires
           rdf:resource="http://web.resource.org/cc/Notice" />
        <cc:permits
           rdf:resource="http://web.resource.org/cc/DerivativeWorks" />
        <cc:requires
           rdf:resource="http://web.resource.org/cc/ShareAlike" />
        <cc:requires
           rdf:resource="http://web.resource.org/cc/SourceCode" />
      </cc:License>
    </rdf:RDF>
  </metadata>
  <g
     id="layer1"
     inkscape:label="Layer 1"
     inkscape:groupmode="layer">
    <path
       sodipodi:nodetypes="ccc"
       id="path2276"
       d="M 50.892799,3.2812959 L 50.892799,0.48658747 L 50.892799,3.2812959 z "
       style="fill:#ffffff;fill-opacity:0.75688076;fill-rule:nonzero;stroke:none;stroke-width:0.5;stroke-linecap:round;stroke-linejoin:round;stroke-miterlimit:4;stroke-dasharray:none;stroke-dashoffset:4;stroke-opacity:1" />
    <path
       sodipodi:type="arc"
       style="opacity:0.38139535;fill:url(#radialGradient3297);fill-opacity:1.0;fill-rule:nonzero;stroke:none;stroke-width:0;stroke-linecap:round;stroke-linejoin:round;stroke-miterlimit:4;stroke-dasharray:none;stroke-dashoffset:4;stroke-opacity:1"
       id="path3289"
       sodipodi:cx="63.912209"
       sodipodi:cy="115.70919"
       sodipodi:rx="63.912209"
       sodipodi:ry="12.641975"
       d="M 127.82442 115.70919 A 63.912209 12.641975 0 1 1  0,115.70919 A 63.912209 12.641975 0 1 1  127.82442 115.70919 z"
       transform="matrix(1,0,0,0.416667,0,74.87151)" />
    <path
       style="font-size:155.42581177px;font-style:italic;font-variant:normal;font-weight:normal;font-stretch:normal;text-align:start;line-height:125%;writing-mode:lr-tb;text-anchor:start;fill:#000000;fill-opacity:1;stroke:none;stroke-width:1px;stroke-linecap:butt;stroke-linejoin:miter;stroke-opacity:1;font-family:Nimbus Roman No9 L"
       d="M 120.84446,2.2412155 L 15.064849,2.2412155 L 8.8403972,28.188512 L 12.478925,28.914728 C 21.410106,9.3069408 26.404261,11.395899 56.855571,11.759005 L 37.360474,104.45599 C 34.967757,114.07832 30.433804,116.98319 17.385178,117.89095 L 17.623253,120.79582 L 75.285076,120.79582 L 75.046999,117.89095 C 71.65195,117.70942 68.639677,117.34631 67.446675,117.34631 C 59.44869,116.80163 56.928756,115.16765 56.482366,109.72104 C 56.288931,107.36083 69.276319,41.778337 76.93779,11.759005 L 87.873656,11.759005 C 102.18968,11.759005 110.03998,11.122468 110.87324,21.289468 C 111.06668,23.649665 111.09106,26.372979 110.94632,29.459388 L 114.35627,29.822495 L 120.84446,2.2412155"
       id="text1410"
       sodipodi:nodetypes="cccccccccccsccsccc" />
    <g
       id="g2336"
       style="opacity:0.69672134"
       transform="matrix(1.101742,0,6.938275e-2,1.005992,-3.715856,-0.723773)">
      <path
         style="font-size:155.42581177px;font-style:italic;font-variant:normal;font-weight:normal;font-stretch:normal;text-align:start;line-height:125%;writing-mode:lr-tb;text-anchor:start;fill:url(#linearGradient2321);fill-opacity:1;stroke:none;stroke-width:1px;stroke-linecap:butt;stroke-linejoin:miter;stroke-opacity:1;font-family:Nimbus Roman No9 L"
         d="M 18.097879,4.5625 L 11.606553,27.5625 L 11.955306,27.65625 C 14.077577,23.333403 16.020671,19.920693 18.12872,17.4375 C 20.426571,14.730729 22.980552,12.985549 26.086873,11.96875 C 32.299516,9.9351513 40.349715,10.632539 54.118919,10.8125 L 56.276836,10.84375 L 55.760236,12.875 L 32.24077,105.03125 L 32.242438,105.0625 C 30.808043,110.00821 28.858595,113.53604 25.597375,115.8125 C 22.777369,117.78097 18.9089,118.65984 14.058736,119.1875 L 60.089986,119.1875 C 59.180953,119.1033 57.598109,118.96875 57.297062,118.96875 L 57.234562,118.96875 L 57.172062,118.96875 C 53.451217,118.68993 50.789201,118.17301 48.828235,116.625 C 46.86727,115.07699 46.150551,112.63862 46.115924,109.71875 C 46.108584,109.09975 46.1974,108.88649 46.318793,108.25 C 46.440186,107.61351 46.61542,106.79014 46.841627,105.75 C 47.294042,103.66971 47.954775,100.80273 48.768017,97.34375 C 50.394503,90.425791 52.664102,81.103894 55.202564,70.9375 C 60.27949,50.604712 66.462622,26.846456 70.89437,11.875 L 71.212669,10.8125 L 72.337669,10.8125 L 82.275169,10.8125 C 88.7462,10.8125 93.805169,10.577318 97.736452,11.84375 C 99.702095,12.476966 101.44593,13.583628 102.57782,15.3125 C 103.7097,17.041372 104.21167,19.222119 104.24387,21.9375 C 104.26691,23.881485 104.08764,26.211598 103.88034,28.59375 L 104.03825,28.625 L 110.72288,4.5625 L 18.097879,4.5625 z "
         id="path2319" />
      <path
         id="path2308"
         d="M 18.079233,4.2131038 L 11.587907,27.213104 L 11.93666,27.306854 C 14.058931,22.984007 16.002025,19.571297 18.110074,17.088104 C 20.407925,14.381333 22.961906,12.636153 26.068227,11.619354 C 30.790467,10.073612 36.571419,10.092214 45.121516,10.275604 C 47.543532,8.2446539 49.987134,6.2263656 52.422983,4.2131038 L 18.079233,4.2131038 z M 110.49259,4.9318538 C 107.1167,7.5314548 103.7562,10.135923 100.41118,12.775604 C 101.25373,13.353029 101.98261,14.08246 102.55917,14.963104 C 103.69105,16.691976 104.19302,18.872723 104.22522,21.588104 C 104.24827,23.532089 104.06899,25.862202 103.86169,28.244354 L 104.01961,28.275604 L 110.49259,4.9318538 z M 61.796396,44.588104 C 55.639541,49.870569 49.533917,55.23192 43.464424,60.619354 L 32.222124,104.68185 L 32.223792,104.7131 C 30.789397,109.65881 28.839949,113.18664 25.578729,115.4631 C 22.758723,117.43157 18.890254,118.31044 14.04009,118.8381 L 60.07134,118.8381 C 59.162307,118.7539 57.579466,118.61935 57.278416,118.61935 L 57.215916,118.61935 L 57.153416,118.61935 C 53.432567,118.34053 50.77055,117.82361 48.809589,116.2756 C 46.848623,114.72759 46.131905,112.28922 46.097278,109.36935 C 46.089938,108.75035 46.178754,108.53709 46.300147,107.9006 C 46.42154,107.26411 46.596773,106.44074 46.822981,105.4006 C 47.275396,103.32031 47.936134,100.45333 48.749371,96.994354 C 50.375856,90.076395 52.645461,80.754498 55.183919,70.588104 C 57.273769,62.218397 59.530989,53.266865 61.796396,44.588104 z "
         style="font-size:155.42581177px;font-style:italic;font-variant:normal;font-weight:normal;font-stretch:normal;text-align:start;line-height:125%;writing-mode:lr-tb;text-anchor:start;fill:url(#linearGradient2334);fill-opacity:1;stroke:none;stroke-width:1px;stroke-linecap:butt;stroke-linejoin:miter;stroke-opacity:1;font-family:Nimbus Roman No9 L" />
      <path
         sodipodi:nodetypes="cccsscccsccccssscccc"
         id="path2330"
         d="M 18.097879,4.5625 L 11.606553,27.5625 L 11.955306,27.65625 C 14.077577,23.333403 16.020671,19.920693 18.12872,17.4375 C 20.426571,14.730729 22.980552,12.985549 26.086873,11.96875 C 32.299516,9.9351513 40.349715,10.632539 54.118919,10.8125 L 56.276836,10.84375 L 55.760236,12.875 C 33.366781,101.0997 51.363879,86.226452 55.202564,70.9375 C 60.305928,50.611506 66.462622,26.846456 70.89437,11.875 L 71.212669,10.8125 L 72.337669,10.8125 L 82.275169,10.8125 C 88.7462,10.8125 93.805169,10.577318 97.736452,11.84375 C 99.702095,12.476966 101.44593,13.583628 102.57782,15.3125 C 103.7097,17.041372 104.21167,19.222119 104.24387,21.9375 C 104.26691,23.881485 104.08764,26.211598 103.88034,28.59375 L 104.03825,28.625 L 110.72288,4.5625 L 18.097879,4.5625 z "
         style="font-size:155.42581177px;font-style:italic;font-variant:normal;font-weight:normal;font-stretch:normal;text-align:start;line-height:125%;writing-mode:lr-tb;text-anchor:start;fill:url(#linearGradient2332);fill-opacity:1;stroke:none;stroke-width:1px;stroke-linecap:butt;stroke-linejoin:miter;stroke-opacity:1;font-family:Nimbus Roman No9 L" />
    </g>
  </g>
</svg>
