<?xml version="1.0" encoding="UTF-8" standalone="no"?>
<!-- Created with Inkscape (http://www.inkscape.org/) -->
<svg
   xmlns:dc="http://purl.org/dc/elements/1.1/"
   xmlns:cc="http://web.resource.org/cc/"
   xmlns:rdf="http://www.w3.org/1999/02/22-rdf-syntax-ns#"
   xmlns:svg="http://www.w3.org/2000/svg"
   xmlns="http://www.w3.org/2000/svg"
   xmlns:xlink="http://www.w3.org/1999/xlink"
   xmlns:sodipodi="http://sodipodi.sourceforge.net/DTD/sodipodi-0.dtd"
   xmlns:inkscape="http://www.inkscape.org/namespaces/inkscape"
   width="128"
   height="128"
   id="svg1307"
   sodipodi:version="0.32"
   inkscape:version="0.44"
   version="1.0"
   sodipodi:docbase="/home/david/Progetti/sandbox"
   sodipodi:docname="wizard.svg">
  <defs
     id="defs1309">
    <linearGradient
       id="linearGradient2833">
      <stop
         style="stop-color:#fa0;stop-opacity:1;"
         offset="0"
         id="stop2835" />
      <stop
         style="stop-color:#ffde01;stop-opacity:1;"
         offset="1"
         id="stop2837" />
    </linearGradient>
    <linearGradient
       id="linearGradient3303">
      <stop
         style="stop-color:#ffffff;stop-opacity:0.68345326;"
         offset="0"
         id="stop3305" />
      <stop
         style="stop-color:#ffffff;stop-opacity:0;"
         offset="1"
         id="stop3307" />
    </linearGradient>
    <linearGradient
       inkscape:collect="always"
       id="linearGradient3291">
      <stop
         style="stop-color:#000000;stop-opacity:1;"
         offset="0"
         id="stop3293" />
      <stop
         style="stop-color:#000000;stop-opacity:0;"
         offset="1"
         id="stop3295" />
    </linearGradient>
    <linearGradient
       id="linearGradient3273">
      <stop
         style="stop-color:#ffffff;stop-opacity:0.55035973;"
         offset="0"
         id="stop3275" />
      <stop
         style="stop-color:#ffffff;stop-opacity:0;"
         offset="1"
         id="stop3277" />
    </linearGradient>
    <linearGradient
       id="linearGradient3259">
      <stop
         id="stop3261"
         offset="0"
         style="stop-color:#ffffff;stop-opacity:0.55035973;" />
      <stop
         id="stop3263"
         offset="1"
         style="stop-color:#000000;stop-opacity:0;" />
    </linearGradient>
    <linearGradient
       inkscape:collect="always"
       id="linearGradient3235">
      <stop
         style="stop-color:#ffffff;stop-opacity:1;"
         offset="0"
         id="stop3237" />
      <stop
         style="stop-color:#ffffff;stop-opacity:0;"
         offset="1"
         id="stop3239" />
    </linearGradient>
    <linearGradient
       id="linearGradient3225">
      <stop
         style="stop-color:#ffffff;stop-opacity:1;"
         offset="0"
         id="stop3227" />
      <stop
         style="stop-color:#aeaeae;stop-opacity:1;"
         offset="1"
         id="stop3229" />
    </linearGradient>
    <linearGradient
       id="linearGradient3207">
      <stop
         style="stop-color:#ffffff;stop-opacity:1;"
         offset="0"
         id="stop3209" />
      <stop
         style="stop-color:#252525;stop-opacity:0;"
         offset="1"
         id="stop3211" />
    </linearGradient>
    <radialGradient
       inkscape:collect="always"
       xlink:href="#linearGradient3291"
       id="radialGradient3297"
       cx="63.912209"
       cy="115.70919"
       fx="14.046639"
       fy="115.70919"
       r="63.912209"
       gradientTransform="matrix(1,0,0,0.197802,0,92.82166)"
       gradientUnits="userSpaceOnUse" />
    <radialGradient
       inkscape:collect="always"
       xlink:href="#linearGradient3225"
       id="radialGradient2489"
       gradientUnits="userSpaceOnUse"
       gradientTransform="matrix(0.769753,1.181802,-7.650992,7.762471,62.39291,-29.03898)"
       cx="49.009884"
       cy="8.4953122"
       fx="47.370888"
       fy="6.7701697"
       r="3.9750405" />
    <linearGradient
       inkscape:collect="always"
       xlink:href="#linearGradient3235"
       id="linearGradient2491"
       gradientUnits="userSpaceOnUse"
       gradientTransform="matrix(0.981227,0.967355,-1.189872,1.227494,77.89405,-44.83244)"
       x1="48.498562"
       y1="0.81150496"
       x2="48.732723"
       y2="2.3657269" />
    <radialGradient
       inkscape:collect="always"
       xlink:href="#linearGradient3273"
       id="radialGradient2493"
       gradientUnits="userSpaceOnUse"
       gradientTransform="matrix(0.913761,-3.672698e-16,1.208824e-16,0.207981,43.52233,-82.64466)"
       cx="49.011971"
       cy="2.6743078"
       fx="49.011971"
       fy="2.6743078"
       r="1.7246193" />
    <radialGradient
       inkscape:collect="always"
       xlink:href="#linearGradient3207"
       id="radialGradient2495"
       gradientUnits="userSpaceOnUse"
       gradientTransform="matrix(3.15491,3.762832e-16,3.099781e-16,0.208011,-61.469,-82.65113)"
       cx="49.011971"
       cy="2.6743078"
       fx="49.011971"
       fy="2.6743078"
       r="1.7246193" />
    <radialGradient
       inkscape:collect="always"
       xlink:href="#linearGradient3259"
       id="radialGradient2497"
       gradientUnits="userSpaceOnUse"
       gradientTransform="matrix(0.906625,5.085604e-16,-1.13918e-16,0.207981,-140.6272,-82.64466)"
       cx="49.011971"
       cy="2.6743078"
       fx="49.011971"
       fy="2.6743078"
       r="1.7246193" />
    <radialGradient
       inkscape:collect="always"
       xlink:href="#linearGradient3303"
       id="radialGradient2499"
       gradientUnits="userSpaceOnUse"
       gradientTransform="matrix(1.135556,3.256486e-3,-1.156204e-5,2.608447e-2,-4.700669,7.1547)"
       cx="34.677639"
       cy="7.4622769"
       fx="34.672806"
       fy="32.105339"
       r="47.595197" />
    <linearGradient
       inkscape:collect="always"
       xlink:href="#linearGradient3235"
       id="linearGradient2501"
       gradientUnits="userSpaceOnUse"
       gradientTransform="matrix(1.37789,1.262983e-4,1.423919e-2,1.378513,65.76164,-93.88427)"
       x1="48.498562"
       y1="0.81150496"
       x2="48.732723"
       y2="2.3657269" />
    <radialGradient
       inkscape:collect="always"
       xlink:href="#linearGradient3273"
       id="radialGradient2503"
       gradientUnits="userSpaceOnUse"
       gradientTransform="matrix(0.913761,-8.897521e-16,1.905581e-16,0.167717,85.52731,-90.69359)"
       cx="49.011971"
       cy="2.6743078"
       fx="49.011971"
       fy="2.6743078"
       r="1.7246193" />
    <radialGradient
       inkscape:collect="always"
       xlink:href="#linearGradient3207"
       id="radialGradient2505"
       gradientUnits="userSpaceOnUse"
       gradientTransform="matrix(3.15491,-1.998601e-15,3.027633e-16,0.167755,-19.14379,-90.70726)"
       cx="49.011971"
       cy="2.6743078"
       fx="49.011971"
       fy="2.6743078"
       r="1.7246193" />
    <radialGradient
       inkscape:collect="always"
       xlink:href="#linearGradient3259"
       id="radialGradient2507"
       gradientUnits="userSpaceOnUse"
       gradientTransform="matrix(0.906625,9.990566e-16,-1.835939e-16,0.167717,-182.6324,-90.69359)"
       cx="49.011971"
       cy="2.6743078"
       fx="49.011971"
       fy="2.6743078"
       r="1.7246193" />
    <linearGradient
       inkscape:collect="always"
       xlink:href="#linearGradient2833"
       id="linearGradient2823"
       x1="0.95059792"
       y1="36.652409"
       x2="8.8294275"
       y2="36.652409"
       gradientUnits="userSpaceOnUse" />
    <linearGradient
       inkscape:collect="always"
       xlink:href="#linearGradient2833"
       id="linearGradient2831"
       x1="32.031194"
       y1="41.11224"
       x2="40.132478"
       y2="41.11224"
       gradientUnits="userSpaceOnUse" />
    <linearGradient
       inkscape:collect="always"
       xlink:href="#linearGradient2833"
       id="linearGradient2839"
       x1="14.329465"
       y1="60.59749"
       x2="29.877026"
       y2="60.59749"
       gradientUnits="userSpaceOnUse" />
    <linearGradient
       inkscape:collect="always"
       xlink:href="#linearGradient2833"
       id="linearGradient2847"
       x1="9.9485382"
       y1="87.204194"
       x2="26.466325"
       y2="87.204194"
       gradientUnits="userSpaceOnUse" />
    <linearGradient
       inkscape:collect="always"
       xlink:href="#linearGradient2833"
       id="linearGradient2855"
       x1="-63.503117"
       y1="57.607771"
       x2="5.6835036"
       y2="57.607771"
       gradientUnits="userSpaceOnUse" />
  </defs>
  <sodipodi:namedview
     id="base"
     pagecolor="#ffffff"
     bordercolor="#666666"
     borderopacity="1.0"
     inkscape:pageopacity="0.0"
     inkscape:pageshadow="2"
     inkscape:zoom="1.3900891"
     inkscape:cx="23.23525"
     inkscape:cy="90.626624"
     inkscape:current-layer="layer1"
     showgrid="false"
     inkscape:document-units="px"
     inkscape:grid-bbox="true"
     guidetolerance="0.1px"
     showguides="true"
     inkscape:guide-bbox="true"
     inkscape:window-width="1018"
     inkscape:window-height="694"
     inkscape:window-x="0"
     inkscape:window-y="0">
    <sodipodi:guide
       orientation="horizontal"
       position="32.487481"
       id="guide2204" />
  </sodipodi:namedview>
  <metadata
     id="metadata1312">
    <rdf:RDF>
      <cc:Work
         rdf:about="">
        <dc:format>image/svg+xml</dc:format>
        <dc:type
           rdf:resource="http://purl.org/dc/dcmitype/StillImage" />
        <cc:license
           rdf:resource="http://creativecommons.org/licenses/GPL/2.0/" />
        <dc:contributor>
          <cc:Agent>
            <dc:title>Oxygen team</dc:title>
          </cc:Agent>
        </dc:contributor>
      </cc:Work>
      <cc:License
         rdf:about="http://creativecommons.org/licenses/LGPL/2.1/">
        <cc:permits
           rdf:resource="http://web.resource.org/cc/Reproduction" />
        <cc:permits
           rdf:resource="http://web.resource.org/cc/Distribution" />
        <cc:requires
           rdf:resource="http://web.resource.org/cc/Notice" />
        <cc:permits
           rdf:resource="http://web.resource.org/cc/DerivativeWorks" />
        <cc:requires
           rdf:resource="http://web.resource.org/cc/ShareAlike" />
        <cc:requires
           rdf:resource="http://web.resource.org/cc/SourceCode" />
      </cc:License>
    </rdf:RDF>
  </metadata>
  <g
     id="layer1"
     inkscape:label="Layer 1"
     inkscape:groupmode="layer">
    <path
       sodipodi:nodetypes="ccc"
       id="path2276"
       d="M 50.892799,3.2812959 L 50.892799,0.48658747 L 50.892799,3.2812959 z "
       style="fill:#ffffff;fill-opacity:0.75688076;fill-rule:nonzero;stroke:none;stroke-width:0.5;stroke-linecap:round;stroke-linejoin:round;stroke-miterlimit:4;stroke-dasharray:none;stroke-dashoffset:4;stroke-opacity:1" />
    <path
       sodipodi:type="arc"
       style="opacity:0.38139535;fill:url(#radialGradient3297);fill-opacity:1.0;fill-rule:nonzero;stroke:none;stroke-width:0;stroke-linecap:round;stroke-linejoin:round;stroke-miterlimit:4;stroke-dasharray:none;stroke-dashoffset:4;stroke-opacity:1"
       id="path3289"
       sodipodi:cx="63.912209"
       sodipodi:cy="115.70919"
       sodipodi:rx="63.912209"
       sodipodi:ry="12.641975"
       d="M 127.82442 115.70919 A 63.912209 12.641975 0 1 1  0,115.70919 A 63.912209 12.641975 0 1 1  127.82442 115.70919 z"
       transform="matrix(1,0,0,0.416667,0,74.87151)" />
    <g
       id="g2473"
       transform="matrix(1.011666,0,0,1.011666,-1.482893,-0.575672)">
      <path
         sodipodi:nodetypes="czccccc"
         id="path3180"
         d="M 118.78907,2.0588973 C 119.32091,1.5110023 122.14616,1.4347064 124.66522,3.9182038 C 127.20897,6.426046 127.30497,9.1115512 126.63876,9.7978191 C 126.20515,10.244528 30.668446,107.18002 30.234832,107.62671 C 27.618242,105.04707 25.001673,102.46745 22.385097,99.887812 C 22.818716,99.441109 118.35543,2.5056202 118.78907,2.0588973 C 118.78907,2.0588973 118.78907,2.0588973 118.78907,2.0588973"
         style="fill:#000000;fill-opacity:1;fill-rule:evenodd;stroke:none;stroke-width:1px;stroke-linecap:butt;stroke-linejoin:miter;stroke-opacity:1" />
      <path
         style="fill:url(#radialGradient2489);fill-opacity:1;fill-rule:nonzero;stroke:none;stroke-width:0.5;stroke-linecap:round;stroke-linejoin:round;stroke-miterlimit:4;stroke-dasharray:none;stroke-dashoffset:4;stroke-opacity:1"
         d="M 42.529815,79.422833 C 41.154594,80.330809 30.189224,91.548774 29.382098,92.806737 L 35.679835,98.987588 L 48.827527,85.603693 L 42.529815,79.422833 z M 48.166512,84.947594 L 35.018815,98.331478 L 37.222167,100.5185 C 38.416108,99.757068 49.437991,88.600492 50.36985,87.134608 L 48.166512,84.947594 z "
         id="path2274"
         sodipodi:nodetypes="cccccccccc" />
      <path
         sodipodi:nodetypes="cszsss"
         id="path3233"
         d="M 123.84698,3.3831922 C 125.50983,4.7398693 126.55223,6.6946315 126.59723,6.8859586 C 126.64222,7.0772922 125.15094,4.9117298 123.75104,3.9669671 C 122.36185,3.0294454 120.21026,3.1444571 120.06965,3.0284446 C 119.92906,2.9124394 119.0234,1.8219912 119.99428,1.8009265 C 121.00978,1.7788877 122.56243,2.336377 123.84698,3.3831922 z "
         style="fill:url(#linearGradient2491);fill-opacity:1;fill-rule:evenodd;stroke:none;stroke-width:1px;stroke-linecap:butt;stroke-linejoin:miter;stroke-opacity:1" />
      <rect
         transform="matrix(0.712123,0.702055,-0.696017,0.718025,0,0)"
         style="fill:url(#radialGradient2493);fill-opacity:1;fill-rule:nonzero;stroke:none;stroke-width:0;stroke-linecap:round;stroke-linejoin:round;stroke-miterlimit:4;stroke-dasharray:none;stroke-dashoffset:4;stroke-opacity:1"
         id="rect3245"
         width="3.1517863"
         height="1.2907414"
         x="86.731697"
         y="-82.606361" />
      <rect
         transform="matrix(0.712168,0.702009,-0.688266,0.725459,0,0)"
         y="-82.612938"
         x="87.71843"
         height="1.2909347"
         width="10.88204"
         id="rect3205"
         style="fill:url(#radialGradient2495);fill-opacity:1;fill-rule:nonzero;stroke:none;stroke-width:0;stroke-linecap:round;stroke-linejoin:round;stroke-miterlimit:4;stroke-dasharray:none;stroke-dashoffset:4;stroke-opacity:1" />
      <rect
         transform="matrix(-0.712123,-0.702055,-0.696017,0.718025,0,0)"
         y="-82.606361"
         x="-97.754829"
         height="1.2907414"
         width="3.1271715"
         id="rect3267"
         style="fill:url(#radialGradient2497);fill-opacity:1;fill-rule:nonzero;stroke:none;stroke-width:0;stroke-linecap:round;stroke-linejoin:round;stroke-miterlimit:4;stroke-dasharray:none;stroke-dashoffset:4;stroke-opacity:1" />
      <path
         id="text3284"
         d="M 39.4289,97.1653 C 39.374413,97.220568 39.342856,97.274199 39.334219,97.326188 C 39.325583,97.378186 39.340683,97.423726 39.379519,97.462818 C 39.418191,97.501743 39.463238,97.516743 39.514657,97.507821 C 39.566079,97.498889 39.61903,97.466798 39.673514,97.411532 C 39.728311,97.355948 39.760022,97.302162 39.768661,97.250167 C 39.777296,97.198172 39.762275,97.152715 39.723606,97.113788 C 39.684768,97.074695 39.639641,97.059615 39.588221,97.06854 C 39.5368,97.077465 39.483695,97.109718 39.4289,97.1653 M 39.360033,97.095975 C 39.471479,96.982931 39.575725,96.911438 39.672777,96.881502 C 39.769825,96.851565 39.84822,96.866664 39.907953,96.926792 C 39.967523,96.986757 39.982681,97.065827 39.95343,97.164008 C 39.924175,97.262192 39.853826,97.367804 39.742381,97.480852 C 39.631246,97.593581 39.527,97.665074 39.429637,97.695327 C 39.332588,97.725261 39.254278,97.710248 39.194706,97.650284 C 39.134973,97.590157 39.119732,97.511 39.148986,97.412821 C 39.178549,97.314324 39.248898,97.208711 39.360033,97.095975 M 40.391329,96.427989 L 40.819955,96.373329 L 40.633747,96.562213 L 40.345803,96.599879 L 40.311023,96.889574 L 40.12389,97.079395 L 40.176331,96.646076 L 39.764647,96.699018 L 39.951317,96.509665 L 40.221888,96.475153 L 40.25454,96.202086 L 40.44214,96.011792 L 40.391329,96.427989 M 40.461643,95.992008 L 40.657135,95.793707 L 40.946331,95.765741 L 40.972896,95.473408 L 41.168852,95.274637 L 41.117902,95.757324 L 41.273165,95.913608 L 41.094386,96.094957 L 40.939126,95.938667 L 40.461643,95.992008 M 42.209764,94.908183 C 42.176702,94.964994 42.139061,95.020635 42.096838,95.075105 C 42.054614,95.129577 42.007962,95.18272 41.956884,95.23453 C 41.841414,95.35166 41.732824,95.427222 41.631109,95.461226 C 41.529232,95.495066 41.448918,95.482412 41.39017,95.423278 C 41.330762,95.363479 41.318391,95.28158 41.353054,95.177583 C 41.387713,95.073579 41.464794,94.960977 41.584285,94.839766 C 41.630412,94.792977 41.67683,94.750547 41.723539,94.71248 C 41.770558,94.674096 41.81732,94.640468 41.863828,94.611575 L 41.940102,94.688357 C 41.889721,94.715847 41.842458,94.746162 41.798312,94.779302 C 41.754476,94.812126 41.713362,94.848013 41.674977,94.88695 C 41.603776,94.959172 41.559444,95.025594 41.541974,95.086213 C 41.524652,95.146357 41.535654,95.196224 41.574984,95.235808 C 41.613983,95.275069 41.662674,95.286538 41.721051,95.270225 C 41.779425,95.253911 41.842819,95.211058 41.911236,95.141656 C 41.929808,95.12282 41.946412,95.104811 41.96105,95.087633 C 41.97583,95.069982 41.988253,95.05339 41.998309,95.037866 L 41.926728,94.965808 L 41.817603,95.076502 L 41.753922,95.012398 L 42.032534,94.729784 L 42.209764,94.908183 M 42.025585,94.405596 L 42.508048,93.9162 L 42.579876,93.9885 L 42.276189,94.296552 L 42.34481,94.365626 L 42.630388,94.075945 L 42.702218,94.148248 L 42.41664,94.437929 L 42.50106,94.522906 L 42.814963,94.204494 L 42.886793,94.276797 L 42.394112,94.776557 L 42.025585,94.405596 M 42.675681,93.746158 L 42.875352,93.543617 L 43.380258,93.542278 L 43.127497,93.28785 L 43.296985,93.115926 L 43.665514,93.486887 L 43.465841,93.689429 L 42.960935,93.690764 L 43.213697,93.945196 L 43.044208,94.117118 L 42.675681,93.746158 M 43.801274,92.604393 L 44.000945,92.401854 L 44.50585,92.400513 L 44.253089,92.146087 L 44.422578,91.974161 L 44.791106,92.345121 L 44.591435,92.547663 L 44.086527,92.548998 L 44.33929,92.80343 L 44.169801,92.975353 L 43.801274,92.604393 M 44.770679,91.607588 C 44.836619,91.540705 44.897757,91.497141 44.954101,91.476902 C 45.010755,91.456354 45.054712,91.461812 45.085979,91.493285 C 45.117244,91.524757 45.12289,91.568916 45.102914,91.62576 C 45.082939,91.682608 45.039828,91.744629 44.97358,91.811828 C 44.907332,91.879029 44.845964,91.922987 44.789475,91.943703 C 44.733297,91.964106 44.689574,91.958571 44.658309,91.927099 C 44.627042,91.895627 44.621317,91.851385 44.641127,91.794373 C 44.661248,91.73705 44.704433,91.67479 44.770679,91.607588 M 44.813122,92.036949 L 45.195285,91.649296 L 45.244651,91.698988 L 44.862488,92.086643 L 44.813122,92.036949 M 44.812641,91.649827 C 44.786639,91.676207 44.771701,91.701836 44.767827,91.726714 C 44.764263,91.751281 44.772026,91.773172 44.791115,91.792386 C 44.810203,91.811601 44.831815,91.819278 44.855948,91.815417 C 44.880391,91.811243 44.905615,91.795967 44.931616,91.769587 C 44.957312,91.743526 44.972023,91.718295 44.975752,91.693893 C 44.979789,91.669178 44.972262,91.647213 44.953174,91.627998 C 44.934085,91.608784 44.912237,91.601181 44.887629,91.605189 C 44.863333,91.608887 44.838337,91.623766 44.812641,91.649827 M 45.98732,90.730144 C 46.040482,90.68919 46.087119,90.664499 46.127226,90.656071 C 46.16748,90.647167 46.199867,90.655055 46.224387,90.679736 C 46.260917,90.716508 46.262415,90.771193 46.228877,90.84379 C 46.195173,90.916223 46.127862,91.003623 46.026943,91.105992 C 45.991343,91.142104 45.954026,91.176801 45.914987,91.210079 C 45.876425,91.24321 45.836609,91.274453 45.795542,91.303809 L 45.722228,91.230011 C 45.764549,91.205045 45.804419,91.178235 45.841841,91.149587 C 45.879407,91.12046 45.914135,91.089725 45.94602,91.057382 C 45.993383,91.009337 46.025244,90.968207 46.041598,90.933993 C 46.058258,90.899464 46.058445,90.874001 46.042153,90.8576 C 46.025369,90.840706 45.999695,90.841139 45.965135,90.858902 C 45.930719,90.876188 45.888282,90.910422 45.837822,90.961607 L 45.766312,91.034145 L 45.705097,90.972525 L 45.780322,90.896219 C 45.825209,90.850688 45.85494,90.813048 45.869513,90.783296 C 45.883924,90.753383 45.883476,90.730723 45.868174,90.715319 C 45.854019,90.701071 45.832399,90.700891 45.803302,90.714772 C 45.774209,90.728655 45.740159,90.755379 45.701152,90.794943 C 45.672363,90.824149 45.644992,90.855406 45.619037,90.888713 C 45.593084,90.922026 45.568932,90.956835 45.546578,90.993142 L 45.476972,90.923076 C 45.506996,90.881977 45.538028,90.842519 45.570066,90.804697 C 45.602105,90.766878 45.634843,90.731012 45.668275,90.697096 C 45.75836,90.605721 45.833588,90.545369 45.893965,90.516053 C 45.954485,90.486258 46.000543,90.487261 46.032138,90.519063 C 46.053695,90.540765 46.060706,90.569407 46.053169,90.604987 C 46.045465,90.6404 46.023515,90.682121 45.98732,90.730144"
         style="font-size:12px;font-style:normal;font-variant:normal;font-weight:bold;font-stretch:normal;text-align:start;line-height:125%;writing-mode:lr-tb;text-anchor:start;fill:#999999;fill-opacity:1;stroke:none;stroke-width:1px;stroke-linecap:butt;stroke-linejoin:miter;stroke-opacity:1;font-family:Bitstream Vera Sans" />
      <path
         transform="matrix(1.032406,-1.036404,-1.861463,-1.9626,52.02282,103.6246)"
         d="M 82.172836 7.4622769 A 47.495197 1.1412895 0 1 1  -12.817558,7.4622769 A 47.495197 1.1412895 0 1 1  82.172836 7.4622769 z"
         sodipodi:ry="1.1412895"
         sodipodi:rx="47.495197"
         sodipodi:cy="7.4622769"
         sodipodi:cx="34.677639"
         id="path3301"
         style="fill:url(#radialGradient2499);fill-opacity:1;fill-rule:nonzero;stroke:none;stroke-width:0.2;stroke-linecap:round;stroke-linejoin:round;stroke-miterlimit:4;stroke-dasharray:none;stroke-dashoffset:4;stroke-opacity:1"
         sodipodi:type="arc" />
      <g
         transform="matrix(0.712202,0.701974,0.870513,-0.883197,9.637176,-69.26202)"
         id="g1463">
        <path
           sodipodi:nodetypes="czccccc"
           id="path1453"
           d="M 127.80368,-90.294455 C 127.79785,-90.858049 129.75645,-92.36204 133.29388,-92.36172 C 136.86598,-92.361388 138.81951,-90.999381 138.82678,-90.293428 C 138.83154,-89.83393 138.83629,-90.374434 138.84104,-89.914936 C 135.16666,-89.915264 131.4923,-89.9156 127.81793,-89.915935 C 127.81318,-90.375439 127.80843,-89.834936 127.80368,-90.294455 C 127.80368,-90.294455 127.80368,-90.294455 127.80368,-90.294455"
           style="fill:#000000;fill-opacity:1;fill-rule:evenodd;stroke:none;stroke-width:1px;stroke-linecap:butt;stroke-linejoin:miter;stroke-opacity:1" />
        <path
           sodipodi:nodetypes="cszsss"
           id="path1455"
           d="M 132.33556,-92.205799 C 134.4722,-92.367921 136.58679,-91.835344 136.75315,-91.750937 C 136.9195,-91.666517 134.33724,-92.066072 132.67703,-91.816225 C 131.02953,-91.568286 129.5779,-90.284284 129.39632,-90.271327 C 129.21475,-90.258361 127.80427,-90.37195 128.48095,-90.933642 C 129.18872,-91.521135 130.68587,-92.079865 132.33556,-92.205799 z "
           style="fill:url(#linearGradient2501);fill-opacity:1;fill-rule:evenodd;stroke:none;stroke-width:1px;stroke-linecap:butt;stroke-linejoin:miter;stroke-opacity:1" />
        <rect
           transform="matrix(1,9.166562e-5,1.032906e-2,0.999947,0,0)"
           style="fill:url(#radialGradient2503);fill-opacity:1;fill-rule:nonzero;stroke:none;stroke-width:0;stroke-linecap:round;stroke-linejoin:round;stroke-miterlimit:4;stroke-dasharray:none;stroke-dashoffset:4;stroke-opacity:1"
           id="rect1457"
           width="3.1517863"
           height="1.0408629"
           x="128.73668"
           y="-90.662788" />
        <rect
           transform="matrix(1,4.00345e-5,2.364474e-2,0.99972,0,0)"
           y="-90.676453"
           x="130.04366"
           height="1.0410988"
           width="10.882042"
           id="rect1459"
           style="fill:url(#radialGradient2505);fill-opacity:1;fill-rule:nonzero;stroke:none;stroke-width:0;stroke-linecap:round;stroke-linejoin:round;stroke-miterlimit:4;stroke-dasharray:none;stroke-dashoffset:4;stroke-opacity:1" />
        <rect
           transform="matrix(-1,-9.166562e-5,1.032906e-2,0.999947,0,0)"
           y="-90.662788"
           x="-139.75981"
           height="1.0408629"
           width="3.1271715"
           id="rect1461"
           style="fill:url(#radialGradient2507);fill-opacity:1;fill-rule:nonzero;stroke:none;stroke-width:0;stroke-linecap:round;stroke-linejoin:round;stroke-miterlimit:4;stroke-dasharray:none;stroke-dashoffset:4;stroke-opacity:1" />
      </g>
    </g>
    <path
       sodipodi:type="star"
       style="fill:url(#linearGradient2855);fill-opacity:1;fill-rule:nonzero;stroke:none;stroke-width:0.1;stroke-linecap:round;stroke-linejoin:round;stroke-miterlimit:4;stroke-dasharray:none;stroke-dashoffset:4;stroke-opacity:1"
       id="path1583"
       sodipodi:sides="5"
       sodipodi:cx="-27.306458"
       sodipodi:cy="59.176582"
       sodipodi:r1="36.590714"
       sodipodi:r2="21.246437"
       sodipodi:arg1="2.040309"
       sodipodi:arg2="2.6686275"
       inkscape:flatsided="false"
       inkscape:rounded="0.27927222"
       inkscape:randomized="0"
       d="M -43.86199,91.807774 C -49.608538,88.892246 -43.285142,74.591376 -46.220492,68.854928 C -49.155843,63.118479 -64.453557,59.881169 -63.456506,53.514928 C -62.459455,47.148688 -46.904483,48.743384 -42.355869,44.179039 C -37.807256,39.614695 -39.455644,24.065321 -33.092884,23.046296 C -26.730124,22.027272 -23.440019,37.313717 -17.693471,40.229246 C -11.946922,43.144774 2.3320317,36.772043 5.2673826,42.508491 C 8.2027334,48.24494 -5.3188419,56.097787 -6.3158931,62.464027 C -7.3129443,68.830267 3.1603225,80.441077 -1.3882909,85.005422 C -5.9369041,89.569766 -17.583803,79.136647 -23.946562,80.155672 C -30.309322,81.174696 -38.115441,94.723302 -43.86199,91.807774 z "
       transform="matrix(0.225179,-0.124688,0.124688,0.225179,54.2279,94.59107)" />
    <path
       sodipodi:type="star"
       style="fill:url(#linearGradient2847);fill-opacity:1;fill-rule:nonzero;stroke:none;stroke-width:0.1;stroke-linecap:round;stroke-linejoin:round;stroke-miterlimit:4;stroke-dasharray:none;stroke-dashoffset:4;stroke-opacity:1"
       id="path2458"
       sodipodi:sides="5"
       sodipodi:cx="17.554152"
       sodipodi:cy="87.318954"
       sodipodi:r1="8.9207468"
       sodipodi:r2="5.179841"
       sodipodi:arg1="2.4668517"
       sodipodi:arg2="3.0951702"
       inkscape:flatsided="false"
       inkscape:rounded="0.27927222"
       inkscape:randomized="0"
       d="M 10.588219,92.891701 C 9.6068246,91.664958 12.452794,89.128634 12.379891,87.559329 C 12.306988,85.990024 9.2381291,83.728478 10.101563,82.416032 C 10.964997,81.103586 14.256638,83.026497 15.726607,82.47222 C 17.196576,81.917943 18.399106,78.300429 19.914131,78.716035 C 21.429157,79.131642 20.617534,82.856391 21.598928,84.083133 C 22.580322,85.309876 26.392384,85.335676 26.465288,86.904981 C 26.538191,88.474285 22.744939,88.853396 21.881505,90.165841 C 21.018071,91.478287 22.171526,95.111747 20.701557,95.666024 C 19.231588,96.220301 17.698852,92.729855 16.183827,92.314249 C 14.668801,91.898642 11.569613,94.118443 10.588219,92.891701 z "
       transform="matrix(1.056174,0,0,1.056174,-0.558849,-5.377285)" />
    <path
       sodipodi:type="star"
       style="fill:url(#linearGradient2839);fill-opacity:1;fill-rule:nonzero;stroke:none;stroke-width:0.1;stroke-linecap:round;stroke-linejoin:round;stroke-miterlimit:4;stroke-dasharray:none;stroke-dashoffset:4;stroke-opacity:1"
       id="path2460"
       sodipodi:sides="5"
       sodipodi:cx="22.569622"
       sodipodi:cy="60.848408"
       sodipodi:r1="8.284483"
       sodipodi:r2="4.8103938"
       sodipodi:arg1="0.73781506"
       sodipodi:arg2="1.3661336"
       inkscape:flatsided="false"
       inkscape:rounded="0.27927222"
       inkscape:randomized="0"
       d="M 28.699643,66.421154 C 27.718249,67.500687 24.97577,65.261895 23.547272,65.558407 C 22.118773,65.854919 20.493871,69.000244 19.163906,68.400477 C 17.833941,67.80071 19.115687,64.500633 18.392257,63.233678 C 17.668827,61.966722 14.175322,61.393307 14.334753,59.943097 C 14.494183,58.492887 18.028825,58.69212 19.010219,57.612587 C 19.991613,56.533053 19.457411,53.033337 20.885909,52.736825 C 22.314407,52.440313 23.21719,55.863524 24.547155,56.463291 C 25.877119,57.063058 29.04047,55.473529 29.763899,56.740485 C 30.487329,58.00744 27.510638,59.923867 27.351208,61.374077 C 27.191777,62.824287 29.681037,65.341621 28.699643,66.421154 z "
       transform="matrix(1.0291,0,0,1.0291,-0.416992,-1.992684)" />
    <path
       sodipodi:type="star"
       style="fill:url(#linearGradient2831);fill-opacity:1;fill-rule:nonzero;stroke:none;stroke-width:0.1;stroke-linecap:round;stroke-linejoin:round;stroke-miterlimit:4;stroke-dasharray:none;stroke-dashoffset:4;stroke-opacity:1"
       id="path2462"
       sodipodi:sides="5"
       sodipodi:cx="35.944214"
       sodipodi:cy="41.343796"
       sodipodi:r1="4.2623315"
       sodipodi:r2="2.4749272"
       sodipodi:arg1="-0.19739556"
       sodipodi:arg2="0.43092297"
       inkscape:flatsided="false"
       inkscape:rounded="0.27927222"
       inkscape:randomized="0"
       d="M 40.123774,40.507884 C 40.270983,41.243929 38.506427,41.695596 38.192885,42.377597 C 37.879343,43.059597 38.685299,44.693028 38.030768,45.060482 C 37.376238,45.427937 36.401399,43.889317 35.655888,43.801871 C 34.910377,43.714424 33.605947,44.985692 33.054216,44.476746 C 32.502484,43.9678 33.664557,42.565214 33.517348,41.829169 C 33.370139,41.093123 31.758,40.24538 32.071542,39.563379 C 32.385084,38.881378 34.078123,39.553153 34.732654,39.185698 C 35.387185,38.818243 35.695258,37.023041 36.440769,37.110487 C 37.18628,37.197934 37.070563,39.015699 37.622294,39.524645 C 38.174026,40.033591 39.976565,39.771838 40.123774,40.507884 z "
       transform="matrix(1.481247,0,0,1.481247,-15.4149,-21.71244)" />
    <path
       sodipodi:type="star"
       style="fill:url(#linearGradient2823);fill-opacity:1;fill-rule:nonzero;stroke:none;stroke-width:0.1;stroke-linecap:round;stroke-linejoin:round;stroke-miterlimit:4;stroke-dasharray:none;stroke-dashoffset:4;stroke-opacity:1"
       id="path2464"
       sodipodi:sides="5"
       sodipodi:cx="5.0154715"
       sodipodi:cy="36.885597"
       sodipodi:r1="4.1422415"
       sodipodi:r2="2.4051969"
       sodipodi:arg1="0.83298127"
       sodipodi:arg2="1.4612998"
       inkscape:flatsided="false"
       inkscape:rounded="0.27927222"
       inkscape:randomized="0"
       d="M 7.8018446,39.950608 C 7.2620779,40.441305 6.0034111,39.196675 5.2783062,39.27639 C 4.5532013,39.356105 3.5949876,40.844451 2.9615099,40.482736 C 2.3280323,40.121021 3.1227963,38.539346 2.8229128,37.874364 C 2.5230293,37.209381 0.8114243,36.75799 0.95968028,36.043741 C 1.1079363,35.329492 2.8577942,35.596593 3.3975609,35.105896 C 3.9373277,34.615199 3.8377113,32.847878 4.5628162,32.768163 C 5.2879211,32.688447 5.5746287,34.4352 6.2081064,34.796915 C 6.8415841,35.15863 8.4916228,34.517757 8.7915063,35.182739 C 9.0913898,35.847722 7.5187269,36.660173 7.3704709,37.374422 C 7.2222149,38.088671 8.3416113,39.459911 7.8018446,39.950608 z "
       transform="matrix(1.015379,0,0,1.015379,-1.461948e-2,-0.623464)" />
  </g>
</svg>
