<?xml version="1.0" encoding="UTF-8" standalone="no"?>
<!-- Generator: Adobe Illustrator 12.0.0, SVG Export Plug-In . SVG Version: 6.00 Build 51448)  -->
<svg
   xmlns:ns="http://ns.adobe.com/SaveForWeb/1.0/"
   xmlns:dc="http://purl.org/dc/elements/1.1/"
   xmlns:cc="http://web.resource.org/cc/"
   xmlns:rdf="http://www.w3.org/1999/02/22-rdf-syntax-ns#"
   xmlns:svg="http://www.w3.org/2000/svg"
   xmlns="http://www.w3.org/2000/svg"
   xmlns:xlink="http://www.w3.org/1999/xlink"
   xmlns:sodipodi="http://sodipodi.sourceforge.net/DTD/sodipodi-0.dtd"
   xmlns:inkscape="http://www.inkscape.org/namespaces/inkscape"
   version="1.1"
   id="Layer_1"
   width="128"
   height="128"
   viewBox="0 0 128 128"
   overflow="visible"
   enable-background="new 0 0 128 128"
   xml:space="preserve"
   sodipodi:version="0.32"
   inkscape:version="0.44"
   sodipodi:docname="file_broken.svg"
   sodipodi:docbase="/home/pinheiro/artwork/Oxygen/theme/svg/filesystems"><defs
   id="defs105"><radialGradient
   inkscape:collect="always"
   xlink:href="#XMLID_7_"
   id="radialGradient1998"
   gradientUnits="userSpaceOnUse"
   cx="102"
   cy="112.3047"
   r="139.5585" /><radialGradient
   inkscape:collect="always"
   xlink:href="#XMLID_8_"
   id="radialGradient2000"
   gradientUnits="userSpaceOnUse"
   cx="102"
   cy="112.3047"
   r="139.55859" /><linearGradient
   inkscape:collect="always"
   xlink:href="#XMLID_9_"
   id="linearGradient2002"
   gradientUnits="userSpaceOnUse"
   x1="94.3438"
   y1="102.3447"
   x2="86.5356"
   y2="94.5366" /><linearGradient
   inkscape:collect="always"
   xlink:href="#XMLID_10_"
   id="linearGradient2004"
   gradientUnits="userSpaceOnUse"
   x1="95"
   y1="103"
   x2="86.5865"
   y2="94.5865" /><linearGradient
   inkscape:collect="always"
   xlink:href="#XMLID_11_"
   id="linearGradient2006"
   gradientUnits="userSpaceOnUse"
   x1="95"
   y1="103"
   x2="87.293"
   y2="95.293" /><linearGradient
   inkscape:collect="always"
   xlink:href="#XMLID_12_"
   id="linearGradient2008"
   gradientUnits="userSpaceOnUse"
   x1="96"
   y1="104"
   x2="88.0002"
   y2="96.0002" /><radialGradient
   inkscape:collect="always"
   xlink:href="#XMLID_7_"
   id="radialGradient2010"
   gradientUnits="userSpaceOnUse"
   cx="102"
   cy="112.3047"
   r="139.5585" /><radialGradient
   inkscape:collect="always"
   xlink:href="#XMLID_8_"
   id="radialGradient2012"
   gradientUnits="userSpaceOnUse"
   cx="102"
   cy="112.3047"
   r="139.55859" /><linearGradient
   inkscape:collect="always"
   xlink:href="#XMLID_9_"
   id="linearGradient2014"
   gradientUnits="userSpaceOnUse"
   x1="94.3438"
   y1="102.3447"
   x2="86.5356"
   y2="94.5366" /><linearGradient
   inkscape:collect="always"
   xlink:href="#XMLID_10_"
   id="linearGradient2016"
   gradientUnits="userSpaceOnUse"
   x1="95"
   y1="103"
   x2="86.5865"
   y2="94.5865" /><linearGradient
   inkscape:collect="always"
   xlink:href="#XMLID_11_"
   id="linearGradient2018"
   gradientUnits="userSpaceOnUse"
   x1="95"
   y1="103"
   x2="87.293"
   y2="95.293" /><linearGradient
   inkscape:collect="always"
   xlink:href="#XMLID_12_"
   id="linearGradient2020"
   gradientUnits="userSpaceOnUse"
   x1="96"
   y1="104"
   x2="88.0002"
   y2="96.0002" /><radialGradient
   inkscape:collect="always"
   xlink:href="#XMLID_7_"
   id="radialGradient2952"
   gradientUnits="userSpaceOnUse"
   cx="102"
   cy="112.3047"
   r="139.5585" /><radialGradient
   inkscape:collect="always"
   xlink:href="#XMLID_8_"
   id="radialGradient2954"
   gradientUnits="userSpaceOnUse"
   cx="102"
   cy="112.3047"
   r="139.55859" /><linearGradient
   inkscape:collect="always"
   xlink:href="#XMLID_9_"
   id="linearGradient2956"
   gradientUnits="userSpaceOnUse"
   x1="94.3438"
   y1="102.3447"
   x2="86.5356"
   y2="94.5366" /><linearGradient
   inkscape:collect="always"
   xlink:href="#XMLID_10_"
   id="linearGradient2958"
   gradientUnits="userSpaceOnUse"
   x1="95"
   y1="103"
   x2="86.5865"
   y2="94.5865" /><linearGradient
   inkscape:collect="always"
   xlink:href="#XMLID_11_"
   id="linearGradient2960"
   gradientUnits="userSpaceOnUse"
   x1="95"
   y1="103"
   x2="87.293"
   y2="95.293" /><linearGradient
   inkscape:collect="always"
   xlink:href="#XMLID_12_"
   id="linearGradient2962"
   gradientUnits="userSpaceOnUse"
   x1="96"
   y1="104"
   x2="88.0002"
   y2="96.0002" />
	
	
	
	
<radialGradient
   inkscape:collect="always"
   xlink:href="#XMLID_7_"
   id="radialGradient3001"
   gradientUnits="userSpaceOnUse"
   cx="102"
   cy="112.3047"
   r="139.5585" /><radialGradient
   inkscape:collect="always"
   xlink:href="#XMLID_8_"
   id="radialGradient3003"
   gradientUnits="userSpaceOnUse"
   cx="102"
   cy="112.3047"
   r="139.55859" /><radialGradient
   inkscape:collect="always"
   xlink:href="#XMLID_8_"
   id="radialGradient3006"
   gradientUnits="userSpaceOnUse"
   cx="102"
   cy="112.3047"
   r="139.55859"
   gradientTransform="translate(-145.6085,4)" /><radialGradient
   inkscape:collect="always"
   xlink:href="#XMLID_7_"
   id="radialGradient3009"
   gradientUnits="userSpaceOnUse"
   cx="102"
   cy="112.3047"
   r="139.5585"
   gradientTransform="translate(-145.6085,4)" /><radialGradient
   inkscape:collect="always"
   xlink:href="#XMLID_8_"
   id="radialGradient3013"
   gradientUnits="userSpaceOnUse"
   gradientTransform="translate(-145.6085,4)"
   cx="102"
   cy="112.3047"
   r="139.55859" /><radialGradient
   inkscape:collect="always"
   xlink:href="#XMLID_7_"
   id="radialGradient3015"
   gradientUnits="userSpaceOnUse"
   gradientTransform="translate(-145.6085,4)"
   cx="102"
   cy="112.3047"
   r="139.5585" /><radialGradient
   inkscape:collect="always"
   xlink:href="#XMLID_7_"
   id="radialGradient3054"
   gradientUnits="userSpaceOnUse"
   gradientTransform="translate(-145.6085,4)"
   cx="102"
   cy="112.3047"
   r="139.5585" /><radialGradient
   inkscape:collect="always"
   xlink:href="#XMLID_8_"
   id="radialGradient3056"
   gradientUnits="userSpaceOnUse"
   gradientTransform="translate(-145.6085,4)"
   cx="102"
   cy="112.3047"
   r="139.55859" /></defs><sodipodi:namedview
   inkscape:window-height="579"
   inkscape:window-width="849"
   inkscape:pageshadow="2"
   inkscape:pageopacity="0.0"
   guidetolerance="10.0"
   gridtolerance="10.0"
   objecttolerance="10.0"
   borderopacity="1.0"
   bordercolor="#666666"
   pagecolor="#ffffff"
   id="base"
   inkscape:zoom="2.0881747"
   inkscape:cx="56.636675"
   inkscape:cy="34.242393"
   inkscape:window-x="169"
   inkscape:window-y="0"
   inkscape:current-layer="Layer_1"
   showgrid="true"
   gridspacingx="4px"
   gridspacingy="4px" />
<metadata
   id="metadata3">
	<ns:sfw>
		<ns:slices>
			<ns:slice
   y="0"
   x="0"
   height="128"
   width="128"
   sliceID="1316743234" />
		</ns:slices>
		<ns:sliceSourceBounds
   y="0"
   x="0"
   height="128"
   width="128"
   bottomLeftOrigin="true" />
		<ns:optimizationSettings>
			<ns:targetSettings
   targetSettingsID="0"
   fileFormat="PNG24Format">
				<ns:PNG24Format
   transparency="true"
   filtered="false"
   matteColor="#FFFFFF"
   noMatteColor="false"
   interlaced="false">
					</ns:PNG24Format>
			</ns:targetSettings>
			<ns:targetSettings
   targetSettingsID="1696735251"
   fileFormat="PNG24Format">
				<ns:PNG24Format
   transparency="true"
   filtered="false"
   matteColor="#FFFFFF"
   noMatteColor="false"
   interlaced="false">
					</ns:PNG24Format>
			</ns:targetSettings>
		</ns:optimizationSettings>
	</ns:sfw>
<rdf:RDF><cc:Work
     rdf:about=""><dc:format>image/svg+xml</dc:format><dc:type
       rdf:resource="http://purl.org/dc/dcmitype/StillImage" /></cc:Work></rdf:RDF></metadata>

<radialGradient
   id="XMLID_7_"
   cx="102"
   cy="112.3047"
   r="139.5585"
   gradientUnits="userSpaceOnUse">
	<stop
   offset="0"
   style="stop-color:#00537D"
   id="stop16" />
	<stop
   offset="0.0151"
   style="stop-color:#186389"
   id="stop18" />
	<stop
   offset="0.0558"
   style="stop-color:#558CA8"
   id="stop20" />
	<stop
   offset="0.0964"
   style="stop-color:#89AFC3"
   id="stop22" />
	<stop
   offset="0.1357"
   style="stop-color:#B3CCD8"
   id="stop24" />
	<stop
   offset="0.1737"
   style="stop-color:#D4E2E9"
   id="stop26" />
	<stop
   offset="0.2099"
   style="stop-color:#ECF2F5"
   id="stop28" />
	<stop
   offset="0.2435"
   style="stop-color:#FAFCFD"
   id="stop30" />
	<stop
   offset="0.2722"
   style="stop-color:#FFFFFF"
   id="stop32" />
</radialGradient>

<radialGradient
   id="XMLID_8_"
   cx="102"
   cy="112.3047"
   r="139.55859"
   gradientUnits="userSpaceOnUse">
	<stop
   offset="0"
   style="stop-color:#535557"
   id="stop37" />
	
	<stop
   offset="0.11366145"
   style="stop-color:#898A8C"
   id="stop41" />
	
	
	<stop
   offset="0.20296688"
   style="stop-color:#ECECEC"
   id="stop47" />
	<stop
   offset="0.2363"
   style="stop-color:#FAFAFA"
   id="stop49" />
	<stop
   offset="0.2722"
   style="stop-color:#FFFFFF"
   id="stop51" />
	<stop
   offset="0.5313"
   style="stop-color:#FAFAFA"
   id="stop53" />
	<stop
   offset="0.8449"
   style="stop-color:#EBECEC"
   id="stop55" />
	<stop
   offset="1"
   style="stop-color:#E1E2E3"
   id="stop57" />
</radialGradient>

<linearGradient
   id="XMLID_9_"
   gradientUnits="userSpaceOnUse"
   x1="94.3438"
   y1="102.3447"
   x2="86.5356"
   y2="94.5366">
	<stop
   offset="0"
   style="stop-color:#FFFFFF"
   id="stop62" />
	<stop
   offset="1"
   style="stop-color:#555753"
   id="stop64" />
</linearGradient>

<linearGradient
   id="XMLID_10_"
   gradientUnits="userSpaceOnUse"
   x1="95"
   y1="103"
   x2="86.5865"
   y2="94.5865">
	<stop
   offset="0"
   style="stop-color:#FFFFFF"
   id="stop69" />
	<stop
   offset="1"
   style="stop-color:#555753"
   id="stop71" />
</linearGradient>

<linearGradient
   id="XMLID_11_"
   gradientUnits="userSpaceOnUse"
   x1="95"
   y1="103"
   x2="87.293"
   y2="95.293">
	<stop
   offset="0"
   style="stop-color:#FFFFFF"
   id="stop76" />
	<stop
   offset="1"
   style="stop-color:#393B38"
   id="stop78" />
</linearGradient>

<linearGradient
   id="XMLID_12_"
   gradientUnits="userSpaceOnUse"
   x1="96"
   y1="104"
   x2="88.0002"
   y2="96.0002">
	<stop
   offset="0"
   style="stop-color:#888A85"
   id="stop83" />
	<stop
   offset="0.0072"
   style="stop-color:#8C8E89"
   id="stop85" />
	<stop
   offset="0.0673"
   style="stop-color:#ABACA9"
   id="stop87" />
	<stop
   offset="0.1347"
   style="stop-color:#C5C6C4"
   id="stop89" />
	<stop
   offset="0.2115"
   style="stop-color:#DBDBDA"
   id="stop91" />
	<stop
   offset="0.3012"
   style="stop-color:#EBEBEB"
   id="stop93" />
	<stop
   offset="0.4122"
   style="stop-color:#F7F7F6"
   id="stop95" />
	<stop
   offset="0.5679"
   style="stop-color:#FDFDFD"
   id="stop97" />
	<stop
   offset="1"
   style="stop-color:#FFFFFF"
   id="stop99" />
</linearGradient>
<g
   id="g5"
   transform="translate(0,4)">
	<path
   style="opacity:0.1"
   d="M 83,47.5625 L 61.28125,73.3125 L 47.5625,59.59375 L 27.5625,84.15625 L 21.84375,73.15625 L 12,77.75 L 12,122 C 12,125.309 14.691,128 18,128 L 77.1875,128 C 78.486503,128 79.7165,127.52325 80.8125,126.65625 C 80.940496,126.60325 81.0625,126.53125 81.0625,126.53125 C 81.1605,126.45825 93.21875,116.4375 98.84375,110.8125 C 104.21775,105.4415 113.43275,94.39825 114.46875,93.15625 C 115.38175,92.274247 116,90.7375 116,89.1875 L 116,63.25 L 83,47.5625 z "
   transform="translate(0,-4)"
   id="path7"
   sodipodi:nodetypes="cccccccccccccccc" />
	<path
   style="opacity:0.15"
   d="M 83,48.5625 L 61.28125,74.3125 L 47.5625,60.59375 L 27.5625,84.15625 L 21.84375,74.15625 L 13,78.28125 L 13,122 C 13,124.757 15.243,127 18,127 L 77.1875,127 C 78.376503,127 79.44375,126.54025 80.34375,125.78125 C 80.385754,125.76025 80.42975,125.74675 80.46875,125.71875 C 80.547748,125.65875 92.503,115.747 98.125,110.125 C 103.437,104.815 112.68375,93.77425 113.71875,92.53125 C 114.50375,91.767253 115,89.46225 115,88.15625 L 115,63.75 L 83,48.5625 z "
   transform="translate(0,-4)"
   id="path9"
   sodipodi:nodetypes="ccccccccccsccccc" />
	<path
   style="opacity:0.2"
   d="M 83,49.5625 L 61.28125,75.3125 L 47.5625,61.59375 L 27.5625,85.15625 L 21.84375,75.15625 L 14,78.8125 L 14,122 C 14,124.206 15.794,126 18,126 L 77.1875,126 C 78.19815,126 79.134895,125.61814 79.875,124.9375 C 79.915,124.9065 79.965,124.8485 80,124.8125 C 80.460403,124.43512 91.93195,114.88153 97.40625,109.40625 C 102.67125,104.14225 111.9035,92.115 112.9375,90.875 C 113.5925,90.231003 114,90.2455 114,89.1875 L 114,64.28125 L 83,49.5625 z "
   transform="translate(0,-4)"
   id="path11"
   sodipodi:nodetypes="cccccccccssccccc" />
	<path
   style="opacity:0.25"
   d="M 83,50.5625 L 61.28125,76.3125 L 47.5625,62.59375 L 27.5625,86.15625 L 21.84375,76.15625 L 15,79.34375 L 15,122 C 15,123.654 16.346,125 18,125 L 77.1875,125 C 77.988503,125 78.71525,124.692 79.28125,124.125 C 79.333251,124.087 91.24975,114.18775 96.71875,108.71875 C 102.18775,103.24975 112.0875,91.33775 112.1875,91.21875 C 112.6925,90.719752 113,89.9885 113,89.1875 L 113,64.8125 L 83,50.5625 z "
   transform="translate(0,-4)"
   id="path13"
   sodipodi:nodetypes="cccccccccsscccc" />
</g><g
   id="g1969"
   transform="translate(0,4)"><path
     style="fill:url(#radialGradient2010)"
     d="M 83,50.5625 L 61.28125,76.3125 L 47.5625,62.59375 L 27.5625,86.15625 L 21.84375,76.15625 L 16,78.875 L 16,122 C 16,123.104 16.896,124 18,124 L 77.1875,124 C 77.717503,124 78.21875,123.78125 78.59375,123.40625 L 111.40625,90.59375 C 111.78125,90.218751 112,89.7175 112,89.1875 L 112,64.34375 L 83,50.5625 z "
     transform="translate(0,-4)"
     id="path34"
     sodipodi:nodetypes="cccccccccccccc" /><path
     style="fill:url(#radialGradient2012);fill-opacity:1"
     d="M 83,50.5625 L 61.28125,76.3125 L 47.5625,62.59375 L 27.5625,86.15625 L 21.84375,76.15625 L 17,78.40625 L 17,122 C 17,122.552 17.449,123 18,123 L 77.1875,123 C 77.450503,123 77.689,122.90575 77.875,122.71875 L 110.71875,89.875 C 110.90575,89.688002 111,89.4505 111,89.1875 L 111,63.875 L 83,50.5625 z "
     transform="translate(0,-4)"
     id="path59"
     sodipodi:nodetypes="cccccccccccccc" /></g><g
   id="g1973"
   transform="translate(0,4)"><path
     style="opacity:0.1;fill:url(#linearGradient2014)"
     id="path66"
     d="M 111.414,86.586 C 111.664,86.336 93.035,93 88,93 C 86.346,93 85,94.346 85,96 C 85,101.035 78.336,119.664 78.586,119.414 L 111.414,86.586 z " /><path
     style="opacity:0.1;fill:url(#linearGradient2016)"
     id="path73"
     d="M 111.414,86.586 C 111.789,86.211 97.444,94 88,94 C 86.897,94 86,94.897 86,96 C 86,105.444 78.211,119.789 78.586,119.414 L 111.414,86.586 z " /><path
     style="opacity:0.1;fill:url(#linearGradient2018)"
     id="path80"
     d="M 111.414,86.586 C 111.653,86.347 97.807,95 88,95 C 87.447,95 87,95.447 87,96 C 87,105.807 78.347,119.653 78.586,119.414 L 111.414,86.586 z " /><path
     style="fill:url(#linearGradient2020)"
     id="path101"
     d="M 78.586,119.414 C 78.586,119.414 90.5,109.5 96,104 C 101.5,98.5 111.414,86.586 111.414,86.586 C 111.414,86.586 98.25,96 88,96 C 88,106.25 78.586,119.414 78.586,119.414 z " /></g>

<g
   id="g3046"
   transform="translate(145.5937,2)"><path
     sodipodi:nodetypes="cccccccccccc"
     id="path2924"
     d="M -129.59375,-2 C -131.79974,-2 -133.59375,-0.206 -133.59375,2 L -133.59375,64.75 L -123.78125,60.15625 L -118.03125,72.15625 L -98.0625,51.59375 L -84.34375,65.3125 L -62.59375,39.5625 L -29.59375,48.55 L -29.59375,2 C -29.59375,-0.206 -31.38775,-2 -33.59375,-2 L -129.59375,-2 z "
     style="opacity:0.1" /><path
     sodipodi:nodetypes="cccccccccccc"
     id="path2926"
     d="M -129.59375,-1 C -131.24774,-1 -132.59375,0.346 -132.59375,2 L -132.59375,63.28125 L -123.78125,59.15625 L -118.03125,71.15625 L -98.0625,50.59375 L -84.34375,64.3125 L -62.59375,38.5625 L -30.59375,47.15 L -30.59375,2 C -30.59375,0.346 -31.93975,-1 -33.59375,-1 L -129.59375,-1 z "
     style="opacity:0.15" /><path
     sodipodi:nodetypes="cccccccccccc"
     id="path2928"
     d="M -129.59375,0 C -130.69674,0 -131.59375,0.897 -131.59375,2 L -131.59375,61.8125 L -123.78125,58.15625 L -118.03125,70.15625 L -98.0625,49.59375 L -84.34375,63.3125 L -62.59375,37.5625 L -31.59375,45.68125 L -31.59375,2 C -31.59375,0.897 -32.49075,0 -33.59375,0 L -129.59375,0 z "
     style="opacity:0.2" /><path
     sodipodi:nodetypes="cccccccccccc"
     id="path2930"
     d="M -129.59375,1 C -130.14574,1 -130.59375,1.448 -130.59375,2 L -130.59375,60.34375 L -123.78125,57.15625 L -118.03125,70.15625 L -98.0625,48.59375 L -84.34375,62.3125 L -62.59375,36.5625 L -32.59375,44.8125 L -32.59375,2 C -32.593749,1.448 -33.04075,1 -33.59375,1 L -129.59375,1 z "
     style="opacity:0.25" /><path
     id="path2934"
     d="M -129.59375,2 L -129.59375,59.875 L -123.78125,57.15625 L -118.03125,69.15625 L -98.0625,48.59375 L -84.34375,62.3125 L -62.59375,36.5625 L -33.59375,44.34375 L -33.59375,2 L -129.59375,2 z "
     style="fill:url(#radialGradient3054)"
     sodipodi:nodetypes="cccccccccc" /><path
     id="path2936"
     d="M -127.59375,3 C -128.14475,3 -128.59375,3.449 -128.59375,4 L -128.59375,59.40625 L -123.78125,57.15625 L -118.03125,69.15625 L -98.0625,48.59375 L -84.34375,62.3125 L -62.59375,36.5625 L -34.59375,43.875 L -34.59375,4 C -34.593749,3.449 -35.04175,3 -35.59375,3 L -127.59375,3 z "
     style="fill:url(#radialGradient3056);fill-opacity:1"
     sodipodi:nodetypes="cccccccccccc" /></g></svg>