<?xml version="1.0" encoding="UTF-8" standalone="no"?>
<!-- Created with Inkscape (http://www.inkscape.org/) -->
<svg
   xmlns:dc="http://purl.org/dc/elements/1.1/"
   xmlns:cc="http://web.resource.org/cc/"
   xmlns:rdf="http://www.w3.org/1999/02/22-rdf-syntax-ns#"
   xmlns:svg="http://www.w3.org/2000/svg"
   xmlns="http://www.w3.org/2000/svg"
   xmlns:xlink="http://www.w3.org/1999/xlink"
   xmlns:sodipodi="http://sodipodi.sourceforge.net/DTD/sodipodi-0.dtd"
   xmlns:inkscape="http://www.inkscape.org/namespaces/inkscape"
   width="128"
   height="128.08452"
   id="svg4538"
   sodipodi:version="0.32"
   inkscape:version="0.44"
   version="1.0"
   sodipodi:docbase="/home/pinheiro/artwork/Oxygen/theme/svg/filesystems"
   sodipodi:docname="network_local.svg">
  <defs
     id="defs4540">
    <linearGradient
       id="linearGradient5214">
      <stop
         style="stop-color:#87b7ff;stop-opacity:0;"
         offset="0"
         id="stop5216" />
      <stop
         id="stop6576"
         offset="0.40384614"
         style="stop-color:#87b7ff;stop-opacity:0;" />
      <stop
         id="stop6574"
         offset="0"
         style="stop-color:#87b7ff;stop-opacity:0.49803922;" />
      <stop
         style="stop-color:#87b7ff;stop-opacity:0;"
         offset="1"
         id="stop5218" />
    </linearGradient>
    <radialGradient
       r="12.247135"
       fy="105.81721"
       fx="64.709709"
       cy="105.81721"
       cx="64.709709"
       gradientTransform="matrix(1.615856,-9.775493e-3,2.770937e-3,0.458027,-40.17482,62.97287)"
       gradientUnits="userSpaceOnUse"
       id="radialGradient2581"
       xlink:href="#linearGradient5214"
       inkscape:collect="always" />
    <linearGradient
       inkscape:collect="always"
       id="linearGradient4196">
      <stop
         style="stop-color:#2b2b2b;stop-opacity:1;"
         offset="0"
         id="stop4198" />
      <stop
         style="stop-color:#2b2b2b;stop-opacity:0;"
         offset="1"
         id="stop4200" />
    </linearGradient>
    <linearGradient
       y2="-16.792545"
       x2="-117.58483"
       y1="-13.913545"
       x1="-117.58483"
       gradientTransform="matrix(0.865892,0,0,1,-15.18654,-4.970156)"
       gradientUnits="userSpaceOnUse"
       id="linearGradient2584"
       xlink:href="#linearGradient4196"
       inkscape:collect="always" />
    <linearGradient
       inkscape:collect="always"
       id="linearGradient4186">
      <stop
         style="stop-color:white;stop-opacity:1;"
         offset="0"
         id="stop4188" />
      <stop
         style="stop-color:white;stop-opacity:0;"
         offset="1"
         id="stop4190" />
    </linearGradient>
    <linearGradient
       y2="-111.31748"
       x2="-121.06381"
       y1="-116.70495"
       x1="-120.916"
       gradientTransform="matrix(0.865892,0,0,1,-15.18654,7.029844)"
       gradientUnits="userSpaceOnUse"
       id="linearGradient2587"
       xlink:href="#linearGradient4186"
       inkscape:collect="always" />
    <linearGradient
       inkscape:collect="always"
       id="linearGradient4176">
      <stop
         style="stop-color:white;stop-opacity:1;"
         offset="0"
         id="stop4178" />
      <stop
         style="stop-color:white;stop-opacity:0;"
         offset="1"
         id="stop4180" />
    </linearGradient>
    <linearGradient
       y2="-80.228065"
       x2="-116.7804"
       y1="-83.868286"
       x1="-116.85363"
       gradientTransform="matrix(1.099322,0,0,1.099322,12.79076,6.518344)"
       gradientUnits="userSpaceOnUse"
       id="linearGradient2590"
       xlink:href="#linearGradient4176"
       inkscape:collect="always" />
    <linearGradient
       id="linearGradient2285">
      <stop
         id="stop2287"
         offset="0"
         style="stop-color:#5e5e5e;stop-opacity:1;" />
      <stop
         style="stop-color:#dedede;stop-opacity:1;"
         offset="0.75901806"
         id="stop2293" />
      <stop
         id="stop2295"
         offset="0.93379617"
         style="stop-color:#8d8d8d;stop-opacity:1;" />
      <stop
         id="stop2289"
         offset="1"
         style="stop-color:#616161;stop-opacity:1;" />
    </linearGradient>
    <linearGradient
       y2="86.916695"
       x2="48.092773"
       y1="86.916695"
       x1="38.357395"
       gradientTransform="matrix(1.924928,0,0,7.896575e-2,-201.8348,-56.17646)"
       gradientUnits="userSpaceOnUse"
       id="linearGradient2593"
       xlink:href="#linearGradient2285"
       inkscape:collect="always" />
    <linearGradient
       inkscape:collect="always"
       id="linearGradient6566">
      <stop
         style="stop-color:black;stop-opacity:1;"
         offset="0"
         id="stop6568" />
      <stop
         style="stop-color:black;stop-opacity:0;"
         offset="1"
         id="stop6570" />
    </linearGradient>
    <linearGradient
       y2="-105.82124"
       x2="-112.72134"
       y1="-110.7662"
       x1="-112.72134"
       gradientTransform="matrix(0.865892,0,0,1,-15.87924,-0.106156)"
       gradientUnits="userSpaceOnUse"
       id="linearGradient2596"
       xlink:href="#linearGradient6566"
       inkscape:collect="always" />
    <linearGradient
       y2="86.916695"
       x2="48.092773"
       y1="86.916695"
       x1="38.357395"
       gradientTransform="matrix(1.104934,0,0,7.183132e-2,-166.6228,-81.98216)"
       gradientUnits="userSpaceOnUse"
       id="linearGradient2599"
       xlink:href="#XMLID_6_"
       inkscape:collect="always" />
    <linearGradient
       inkscape:collect="always"
       id="linearGradient4153">
      <stop
         style="stop-color:#1f1f1f;stop-opacity:1;"
         offset="0"
         id="stop4155" />
      <stop
         style="stop-color:#1f1f1f;stop-opacity:0;"
         offset="1"
         id="stop4157" />
    </linearGradient>
    <linearGradient
       y2="119.69429"
       x2="46.901009"
       y1="119.69429"
       x1="49.834194"
       gradientTransform="matrix(1,0,0,0.865892,-1.629844,15.18654)"
       gradientUnits="userSpaceOnUse"
       id="linearGradient2602"
       xlink:href="#linearGradient4153"
       inkscape:collect="always" />
    <linearGradient
       inkscape:collect="always"
       id="linearGradient4166">
      <stop
         style="stop-color:#1f1f1f;stop-opacity:1;"
         offset="0"
         id="stop4168" />
      <stop
         style="stop-color:#1f1f1f;stop-opacity:0;"
         offset="1"
         id="stop4170" />
    </linearGradient>
    <linearGradient
       y2="114.82433"
       x2="47.910881"
       y1="132.17882"
       x1="46.449074"
       gradientTransform="matrix(1,0,0,0.865892,-2.98441e-2,15.87924)"
       gradientUnits="userSpaceOnUse"
       id="linearGradient2605"
       xlink:href="#linearGradient4166"
       inkscape:collect="always" />
    <linearGradient
       y2="86.916695"
       x2="48.092773"
       y1="86.916695"
       x1="38.357395"
       gradientTransform="matrix(1.104934,0,0,7.183132e-2,-166.6228,-29.63396)"
       gradientUnits="userSpaceOnUse"
       id="linearGradient2608"
       xlink:href="#XMLID_6_"
       inkscape:collect="always" />
    <linearGradient
       y2="70.875"
       x2="107"
       y1="70.875"
       x1="21"
       gradientUnits="userSpaceOnUse"
       id="XMLID_6_">
      <stop
         id="stop2596"
         style="stop-color:#747474;stop-opacity:1;"
         offset="0" />
      <stop
         id="stop2598"
         style="stop-color:#B6B6B6"
         offset="0.1224" />
      <stop
         id="stop34"
         style="stop-color:#F3F3F3"
         offset="0.27856848" />
      <stop
         id="stop36"
         style="stop-color:#cbcbcb;stop-opacity:1;"
         offset="0.47811708" />
      <stop
         id="stop38"
         style="stop-color:#FFFFFF"
         offset="0.6568" />
      <stop
         id="stop40"
         style="stop-color:#F1F1F1"
         offset="0.7202" />
      <stop
         id="stop2604"
         style="stop-color:#bbbbbb;stop-opacity:1;"
         offset="0.8387" />
      <stop
         id="stop46"
         style="stop-color:#646464;stop-opacity:1;"
         offset="1" />
    </linearGradient>
    <linearGradient
       y2="86.916695"
       x2="48.092773"
       y1="86.916695"
       x1="38.357395"
       gradientTransform="matrix(1.083448,0,0,4.134705e-2,18.10486,-102.0187)"
       gradientUnits="userSpaceOnUse"
       id="linearGradient2611"
       xlink:href="#XMLID_6_"
       inkscape:collect="always" />
    <radialGradient
       cx="63.722698"
       cy="13.2764"
       r="54.140999"
       id="path4982_1_"
       gradientUnits="userSpaceOnUse"
       gradientTransform="matrix(1,0,0,-1,-3.135027,91.43)">
	<stop
   style="stop-color:#eeeeee;stop-opacity:1"
   offset="0.27810001"
   id="stop18" />

	<stop
   style="stop-color:#bbbbbb;stop-opacity:1"
   offset="0.60729998"
   id="stop20" />

	<stop
   style="stop-color:#ffffff;stop-opacity:1"
   offset="1"
   id="stop22" />

</radialGradient>
    <radialGradient
       cx="-378.3623"
       cy="1429.1943"
       r="11.8227"
       id="path4988_1_"
       gradientUnits="userSpaceOnUse"
       gradientTransform="matrix(0.711264,0,0,0.202139,329.2561,-234.7863)">
	<stop
   style="stop-color:#000000;stop-opacity:1"
   offset="0"
   id="stop26" />

	<stop
   style="stop-color:#bbbbbb;stop-opacity:1"
   offset="1"
   id="stop28" />

</radialGradient>
    <linearGradient
       x1="68.667999"
       y1="88.911102"
       x2="43.854"
       y2="95.723602"
       id="path4994_1_"
       gradientUnits="userSpaceOnUse"
       gradientTransform="translate(-3.272727,-36.4059)">
	<stop
   style="stop-color:#555555;stop-opacity:1"
   offset="0.2485"
   id="stop33" />

	<stop
   style="stop-color:#323232;stop-opacity:1"
   offset="0.60729998"
   id="stop35" />

	<stop
   style="stop-color:#888888;stop-opacity:1"
   offset="1"
   id="stop37" />

</linearGradient>
    <linearGradient
       x1="63.913601"
       y1="117.9434"
       x2="63.913601"
       y2="61.304001"
       id="rect5002_1_"
       gradientUnits="userSpaceOnUse"
       gradientTransform="translate(-3.272727,-36.4059)">
	<stop
   style="stop-color:#555555;stop-opacity:1"
   offset="0.3373"
   id="stop42" />

	<stop
   style="stop-color:#eeeeee;stop-opacity:1"
   offset="0.86979997"
   id="stop44" />

</linearGradient>
    <linearGradient
       id="linearGradient3185">
      <stop
         style="stop-color:#0057ae;stop-opacity:1;"
         offset="0"
         id="stop3187" />
      <stop
         id="stop3193"
         offset="0.95604396"
         style="stop-color:#0057ae;stop-opacity:1;" />
      <stop
         style="stop-color:#0057ae;stop-opacity:0;"
         offset="1"
         id="stop3189" />
    </linearGradient>
    <linearGradient
       inkscape:collect="always"
       xlink:href="#linearGradient3185"
       id="linearGradient4116"
       gradientUnits="userSpaceOnUse"
       gradientTransform="matrix(1.457667,0,0,1.507692,444.5638,-49.67153)"
       x1="-263.14236"
       y1="57.962109"
       x2="-263.14236"
       y2="11.619458" />
    <linearGradient
       inkscape:collect="always"
       id="linearGradient4645">
      <stop
         style="stop-color:#a4c0e4;stop-opacity:1;"
         offset="0"
         id="stop4647" />
      <stop
         style="stop-color:#a4c0e4;stop-opacity:0;"
         offset="1"
         id="stop4649" />
    </linearGradient>
    <radialGradient
       inkscape:collect="always"
       xlink:href="#linearGradient4645"
       id="radialGradient4113"
       gradientUnits="userSpaceOnUse"
       gradientTransform="matrix(1.157296,0,0,1.366204,449.1416,-44.67345)"
       spreadMethod="reflect"
       cx="-326.17645"
       cy="20.49044"
       fx="-324.23087"
       fy="32.982586"
       r="17.759607" />
    <linearGradient
       inkscape:collect="always"
       id="linearGradient4367">
      <stop
         style="stop-color:white;stop-opacity:1;"
         offset="0"
         id="stop4369" />
      <stop
         style="stop-color:white;stop-opacity:0;"
         offset="1"
         id="stop4371" />
    </linearGradient>
    <linearGradient
       inkscape:collect="always"
       xlink:href="#linearGradient4367"
       id="linearGradient4110"
       gradientUnits="userSpaceOnUse"
       gradientTransform="matrix(1.190353,0,0,1.186185,426.2588,-35.46487)"
       x1="-316.04785"
       y1="-10.521996"
       x2="-307.11139"
       y2="65.016281" />
    <linearGradient
       id="linearGradient7248"
       inkscape:collect="always">
      <stop
         id="stop7250"
         offset="0"
         style="stop-color:#5fa0d3;stop-opacity:1;" />
      <stop
         id="stop7252"
         offset="1"
         style="stop-color:#5fa0d3;stop-opacity:0;" />
    </linearGradient>
    <linearGradient
       inkscape:collect="always"
       xlink:href="#linearGradient7248"
       id="linearGradient4100"
       gradientUnits="userSpaceOnUse"
       gradientTransform="matrix(1.129301,0,0,1.11103,-10.4837,-35.78907)"
       x1="73.493965"
       y1="61.673164"
       x2="73.493965"
       y2="40.421654" />
    <linearGradient
       inkscape:collect="always"
       id="linearGradient4635">
      <stop
         style="stop-color:#a4c0e4;stop-opacity:1;"
         offset="0"
         id="stop4637" />
      <stop
         style="stop-color:#a4c0e4;stop-opacity:0;"
         offset="1"
         id="stop4639" />
    </linearGradient>
    <linearGradient
       inkscape:collect="always"
       xlink:href="#linearGradient4635"
       id="linearGradient4097"
       gradientUnits="userSpaceOnUse"
       gradientTransform="matrix(1.457667,0,0,1.507692,536.4465,-49.67153)"
       x1="-313.55511"
       y1="64.938179"
       x2="-268.89709"
       y2="12.583951" />
    <linearGradient
       x1="64.000504"
       y1="79.968803"
       x2="64.000504"
       y2="0.50050002"
       id="XMLID_1_"
       gradientUnits="userSpaceOnUse"
       gradientTransform="translate(-3.272727,-36.4059)">
	<stop
   style="stop-color:#888a85;stop-opacity:1"
   offset="0"
   id="stop66" />

	<stop
   style="stop-color:#969892;stop-opacity:1"
   offset="0.0087"
   id="stop68" />

	<stop
   style="stop-color:#a6a9a2;stop-opacity:1"
   offset="0.0238"
   id="stop70" />

	<stop
   style="stop-color:#b2b4ae;stop-opacity:1"
   offset="0.0426"
   id="stop72" />

	<stop
   style="stop-color:#b8bbb4;stop-opacity:1"
   offset="0.0689"
   id="stop74" />

	<stop
   style="stop-color:#babdb6;stop-opacity:1"
   offset="0.142"
   id="stop76" />

</linearGradient>
    <radialGradient
       cx="-384.9321"
       cy="4509.3428"
       r="72.543503"
       id="rect5012_1_"
       gradientUnits="userSpaceOnUse"
       gradientTransform="matrix(0.8245,0,0,5.6e-2,378.1619,-287.0932)">
	<stop
   style="stop-color:#ffffff;stop-opacity:1"
   offset="0"
   id="stop81" />

	<stop
   style="stop-color:#babdb6;stop-opacity:1"
   offset="1"
   id="stop83" />

</radialGradient>
    <linearGradient
       x1="-363.21289"
       y1="274.17969"
       x2="-363.21289"
       y2="276.59119"
       id="rect5014_1_"
       gradientUnits="userSpaceOnUse"
       gradientTransform="matrix(0.7671,0,0,0.6198,339.407,-204.5137)">
	<stop
   style="stop-color:#ffffff;stop-opacity:1"
   offset="0"
   id="stop87" />

	<stop
   style="stop-color:#dddddd;stop-opacity:1"
   offset="0.59170002"
   id="stop89" />

</linearGradient>
    <linearGradient
       x1="-332.67139"
       y1="287.6348"
       x2="-332.67139"
       y2="290.79071"
       id="rect5016_1_"
       gradientUnits="userSpaceOnUse"
       gradientTransform="matrix(0.6972,0,0,0.5888,292.6829,-130.0692)">
	<stop
   style="stop-color:#ffffff;stop-opacity:1"
   offset="0"
   id="stop93" />

	<stop
   style="stop-color:#bbbbbb;stop-opacity:1"
   offset="1"
   id="stop95" />

</linearGradient>
    <radialGradient
       cx="-356.52341"
       cy="4626.2236"
       r="72.5868"
       id="rect5018_1_"
       gradientUnits="userSpaceOnUse"
       gradientTransform="matrix(0.7493,0,0,6.95e-2,327.8875,-283.1956)">
	<stop
   style="stop-color:#ffffff;stop-opacity:1"
   offset="0"
   id="stop99" />

	<stop
   style="stop-color:#babdb6;stop-opacity:1"
   offset="1"
   id="stop101" />

</radialGradient>
    <linearGradient
       x1="18.2651"
       y1="-651.11432"
       x2="18.2651"
       y2="-647.95728"
       id="rect5020_1_"
       gradientUnits="userSpaceOnUse"
       gradientTransform="matrix(0,0.512525,-0.675336,0,-432.5771,-5.436787)">
	<stop
   style="stop-color:#ffffff;stop-opacity:1"
   offset="0"
   id="stop105" />

	<stop
   style="stop-color:#babdb6;stop-opacity:1"
   offset="1"
   id="stop107" />

</linearGradient>
    <radialGradient
       cx="39.346699"
       cy="-3726.5532"
       r="65.172997"
       id="rect5022_1_"
       gradientUnits="userSpaceOnUse"
       gradientTransform="matrix(0,1.6541,-4.07e-2,0,-34.34823,-94.3053)">
	<stop
   style="stop-color:#ffffff;stop-opacity:1"
   offset="0"
   id="stop111" />

	<stop
   style="stop-color:#babdb6;stop-opacity:1"
   offset="1"
   id="stop113" />

</radialGradient>
  </defs>
  <sodipodi:namedview
     id="base"
     pagecolor="#ffffff"
     bordercolor="#666666"
     borderopacity="1.0"
     inkscape:pageopacity="0.0"
     inkscape:pageshadow="2"
     inkscape:zoom="5.5"
     inkscape:cx="32"
     inkscape:cy="32"
     inkscape:current-layer="layer1"
     showgrid="true"
     inkscape:document-units="px"
     inkscape:grid-bbox="true"
     inkscape:window-width="876"
     inkscape:window-height="575"
     inkscape:window-x="0"
     inkscape:window-y="599" />
  <metadata
     id="metadata4543">
    <rdf:RDF>
      <cc:Work
         rdf:about="">
        <dc:format>image/svg+xml</dc:format>
        <dc:type
           rdf:resource="http://purl.org/dc/dcmitype/StillImage" />
      </cc:Work>
    </rdf:RDF>
  </metadata>
  <g
     id="layer1"
     inkscape:label="Layer 1"
     inkscape:groupmode="layer"
     transform="translate(3.272727,36.4059)">
    <g
       inkscape:r_cy="true"
       inkscape:r_cx="true"
       inkscape:label="Layer 1"
       id="g4654"
       transform="translate(-4.878863,-36.32138)">
      <path
         style="fill:white;fill-opacity:0.75688076;fill-rule:nonzero;stroke:none;stroke-width:0.5;stroke-linecap:round;stroke-linejoin:round;stroke-miterlimit:4;stroke-dasharray:none;stroke-dashoffset:4;stroke-opacity:1"
         d="M 280.3165,-83.001784 L 280.3165,-85.796493 L 280.3165,-83.001784 z "
         id="path2276"
         sodipodi:nodetypes="ccc" />
      <rect
         y="-97.21608"
         x="285.44962"
         height="0"
         width="1"
         id="rect1327"
         style="opacity:0.57786889;fill:white;fill-opacity:1;fill-rule:nonzero;stroke:none;stroke-width:3.63199997;stroke-linecap:round;stroke-linejoin:round;stroke-miterlimit:4;stroke-dasharray:none;stroke-dashoffset:4;stroke-opacity:1" />
      <rect
         inkscape:transform-center-y="-34.821701"
         rx="1.0974592"
         style="fill:url(#linearGradient2611);fill-opacity:1;fill-rule:nonzero;stroke:none;stroke-width:0.71249998;stroke-linecap:square;stroke-linejoin:miter;stroke-miterlimit:4;stroke-dasharray:none;stroke-dashoffset:4;stroke-opacity:1"
         id="rect4143"
         width="10.547784"
         height="19.928551"
         x="59.662952"
         y="-116.75951"
         ry="0.07224831"
         transform="scale(1,-1)" />
      <rect
         inkscape:transform-center-x="60.494966"
         transform="matrix(0,-1,-1,0,0,0)"
         ry="0.9759205"
         y="-55.242786"
         x="-124.24075"
         height="34.621429"
         width="10.756957"
         id="rect4135"
         style="fill:url(#linearGradient2608);fill-opacity:1;fill-rule:nonzero;stroke:none;stroke-width:0.71249998;stroke-linecap:square;stroke-linejoin:miter;stroke-miterlimit:4;stroke-dasharray:none;stroke-dashoffset:4;stroke-opacity:1"
         rx="0.84504205" />
      <path
         id="rect4161"
         d="M 45.4452,113.49237 C 44.58451,118.29913 42.02485,122.23587 36.4452,124.23484 L 49.0077,124.23484 C 49.74235,124.23484 50.35145,123.73449 50.35145,123.09836 L 50.35145,114.62885 C 50.35145,113.99272 49.74235,113.49237 49.0077,113.49237 L 45.4452,113.49237 z "
         style="opacity:0.27459017;fill:url(#linearGradient2605);fill-opacity:1;fill-rule:nonzero;stroke:none;stroke-width:0.71249998;stroke-linecap:square;stroke-linejoin:miter;stroke-miterlimit:4;stroke-dasharray:none;stroke-dashoffset:4;stroke-opacity:1" />
      <rect
         ry="0"
         rx="10.979105"
         y="113.45121"
         x="45.271229"
         height="10.755365"
         width="1.3468701"
         id="rect4151"
         style="fill:url(#linearGradient2602);fill-opacity:1;fill-rule:nonzero;stroke:none;stroke-width:0.69999999;stroke-linecap:round;stroke-linejoin:round;stroke-miterlimit:4;stroke-dasharray:none;stroke-dashoffset:4;stroke-opacity:1" />
      <rect
         inkscape:transform-center-x="60.494976"
         rx="1.1192229"
         style="fill:url(#linearGradient2599);fill-opacity:1;fill-rule:nonzero;stroke:none;stroke-width:0.71249998;stroke-linecap:square;stroke-linejoin:miter;stroke-miterlimit:4;stroke-dasharray:none;stroke-dashoffset:4;stroke-opacity:1"
         id="rect3230"
         width="10.756957"
         height="34.621429"
         x="-124.24075"
         y="-107.59094"
         ry="1.2574254"
         transform="matrix(0,-1,-1,0,0,0)" />
      <rect
         inkscape:transform-center-x="60.494976"
         transform="matrix(0,-1,-1,0,0,0)"
         ry="1.2574254"
         y="-107.59094"
         x="-124.24075"
         height="5.8882017"
         width="10.756957"
         id="rect6564"
         style="fill:url(#linearGradient2596);fill-opacity:1;fill-rule:nonzero;stroke:none;stroke-width:0.71249998;stroke-linecap:square;stroke-linejoin:miter;stroke-miterlimit:4;stroke-dasharray:none;stroke-dashoffset:4;stroke-opacity:1"
         rx="1.1192229" />
      <rect
         transform="matrix(0,-1,-1,0,0,0)"
         ry="1.8489406"
         y="-84.328857"
         x="-128"
         height="38.060101"
         width="18.739916"
         id="rect2332"
         style="fill:url(#linearGradient2593);fill-opacity:1;fill-rule:nonzero;stroke:none;stroke-width:0.71249998;stroke-linecap:square;stroke-linejoin:miter;stroke-miterlimit:4;stroke-dasharray:none;stroke-dashoffset:4;stroke-opacity:1"
         rx="1.9498214" />
      <rect
         rx="1.9498214"
         style="fill:url(#linearGradient2590);fill-opacity:1;fill-rule:nonzero;stroke:none;stroke-width:0.71249998;stroke-linecap:square;stroke-linejoin:miter;stroke-miterlimit:4;stroke-dasharray:none;stroke-dashoffset:4;stroke-opacity:1"
         id="rect4174"
         width="18.281679"
         height="4.5223866"
         x="-127.81673"
         y="-83.956604"
         ry="1.7182906"
         transform="matrix(0,-1,-1,0,0,0)" />
      <rect
         inkscape:transform-center-x="60.494976"
         rx="0.86005741"
         style="fill:url(#linearGradient2587);fill-opacity:1;fill-rule:nonzero;stroke:none;stroke-width:0.71249998;stroke-linecap:square;stroke-linejoin:miter;stroke-miterlimit:4;stroke-dasharray:none;stroke-dashoffset:4;stroke-opacity:1"
         id="rect4184"
         width="9.9276323"
         height="3.1318662"
         x="-123.72241"
         y="-107.11206"
         ry="0.97988796"
         transform="matrix(0,-1,-1,0,0,0)" />
      <rect
         inkscape:transform-center-x="60.49498"
         transform="matrix(0,-1,-1,0,0,0)"
         ry="1.3260874"
         y="-27.826479"
         x="-124.24075"
         height="7.2051492"
         width="10.756957"
         id="rect4194"
         style="fill:url(#linearGradient2584);fill-opacity:1;fill-rule:nonzero;stroke:none;stroke-width:0.71249998;stroke-linecap:square;stroke-linejoin:miter;stroke-miterlimit:4;stroke-dasharray:none;stroke-dashoffset:4;stroke-opacity:1"
         rx="1.1482488" />
      <path
         id="path4327"
         d="M 53.39468,109.26831 C 52.77503,109.94531 52.43278,110.68596 52.43278,111.46695 C 52.43278,114.59092 57.94062,117.13533 64.69709,117.13533 C 71.45356,117.13533 76.92705,114.59092 76.92705,111.46695 C 76.92705,110.68596 76.58479,109.94531 75.96514,109.26831 L 53.39468,109.26831 z "
         style="opacity:0.36065578;fill:url(#radialGradient2581);fill-opacity:1;fill-rule:nonzero;stroke:none;stroke-width:0.71249998;stroke-linecap:square;stroke-linejoin:miter;stroke-miterlimit:4;stroke-dasharray:none;stroke-dashoffset:4;stroke-opacity:1" />
    </g>
    <g
       id="g5"
       transform="translate(-3.272727,-36.4059)">
	<path
   d="M 31.916,93.965 C 31.916,93.996 31.917,94.028 31.92,94.061 L 31.956,94.436 C 31.949,94.364 31.95,94.295 31.959,94.223 C 31.955,94.257 31.953,94.29 31.953,94.325 C 31.953,94.638 32.111,94.955 32.111,95.139 C 32.111,95.196 32.041,95.203 32.001,95.231 C 32.891,104.629 56.507,105.389 63.859,105.389 C 71.353,105.389 95.803,104.621 95.803,94.758 C 95.801,94.694 95.785,94.451 95.785,94.451 C 95.783,94.428 95.777,94.375 95.771,94.327 C 95.783,94.213 95.798,94.062 95.798,94.061 C 95.798,84.097 71.352,83.331 63.859,83.331 C 56.366,83.331 31.916,84.098 31.916,93.965 z "
   style="opacity:0.1"
   id="path7" />

	<path
   d="M 32.916,93.965 C 32.916,93.965 32.952,94.342 32.952,94.343 C 32.941,94.432 32.931,94.523 32.931,94.523 C 32.931,94.529 32.917,94.758 32.917,94.758 C 32.917,103.924 58.693,104.389 63.86,104.389 C 69.027,104.389 94.804,103.924 94.804,94.758 L 94.788,94.516 C 94.788,94.516 94.777,94.424 94.767,94.334 C 94.775,94.267 94.805,93.965 94.805,93.965 C 94.805,84.795 69.028,84.331 63.861,84.331 C 58.693,84.331 32.916,84.795 32.916,93.965 z "
   style="opacity:0.15"
   id="path9" />

	<path
   d="M 33.916,93.965 C 33.916,94.027 33.922,94.09 33.934,94.152 C 33.934,94.152 33.949,94.229 33.964,94.307 C 33.947,94.452 33.924,94.641 33.924,94.641 C 33.92,94.68 33.917,94.719 33.917,94.758 C 33.917,101.57 52.739,103.389 63.86,103.389 C 74.982,103.389 93.804,101.571 93.804,94.758 C 93.804,94.717 93.801,94.677 93.796,94.637 C 93.796,94.637 93.774,94.45 93.756,94.303 C 93.77,94.235 93.784,94.166 93.784,94.166 C 93.798,94.099 93.805,94.033 93.805,93.965 C 93.805,87.15 74.983,85.331 63.861,85.331 C 52.739,85.331 33.916,87.149 33.916,93.965 z "
   style="opacity:0.2"
   id="path11" />

	<path
   d="M 34.916,93.965 C 34.916,93.965 34.947,94.127 34.975,94.272 C 34.956,94.432 34.917,94.758 34.917,94.758 C 34.917,99.768 49.477,102.389 63.86,102.389 C 78.244,102.389 92.804,99.768 92.804,94.758 C 92.804,94.758 92.763,94.422 92.743,94.261 C 92.768,94.141 92.805,93.965 92.805,93.965 C 92.805,88.953 78.244,86.331 63.861,86.331 C 49.478,86.331 34.916,88.953 34.916,93.965 z M 36.775,93.801 L 36.931,94.125 C 36.745,93.739 36.316,93.381 35.893,93.418 C 36.267,93.353 36.596,93.429 36.775,93.801 z M 35.65,93.461 C 35.708,93.442 35.76,93.444 35.817,93.432 C 35.729,93.448 35.665,93.494 35.586,93.522 C 35.612,93.508 35.621,93.471 35.65,93.461 z "
   style="opacity:0.25"
   id="path13" />

	<path
   d="M 91.665,94.627 C 91.757,94.41 91.805,94.189 91.805,93.965 C 91.805,90.302 79.294,87.331 63.861,87.331 C 48.427,87.331 35.916,90.302 35.916,93.965 C 35.916,94.878 36.693,95.748 38.099,96.539 C 36.902,95.867 36.159,95.138 35.963,94.373 C 35.933,94.5 35.918,94.629 35.918,94.758 C 35.918,98.42 48.436,101.389 63.861,101.389 C 79.286,101.389 91.805,98.42 91.805,94.758 C 91.805,94.629 91.789,94.5 91.758,94.373 C 91.735,94.459 91.701,94.543 91.665,94.627 z M 38.634,96.822 C 38.523,96.767 38.421,96.711 38.317,96.655 C 38.421,96.711 38.523,96.768 38.634,96.822 z M 41.268,97.868 C 41.266,97.867 41.263,97.867 41.261,97.865 C 41.263,97.867 41.265,97.867 41.268,97.868 z M 40.541,97.619 C 40.518,97.611 40.497,97.603 40.474,97.596 C 40.496,97.604 40.518,97.611 40.541,97.619 z M 39.858,97.363 C 39.812,97.344 39.77,97.326 39.725,97.308 C 39.77,97.326 39.812,97.345 39.858,97.363 z M 39.221,97.097 C 39.151,97.066 39.086,97.034 39.017,97.002 C 39.086,97.033 39.151,97.065 39.221,97.097 z M 90.115,96.242 C 90.738,95.838 91.2,95.414 91.482,94.976 C 91.2,95.414 90.74,95.838 90.115,96.242 z M 87.882,97.355 C 87.883,97.354 87.884,97.354 87.885,97.353 C 87.884,97.354 87.883,97.355 87.882,97.355 z M 88.516,97.09 C 88.536,97.08 88.553,97.072 88.573,97.063 C 88.553,97.072 88.535,97.08 88.516,97.09 z M 89.1,96.815 C 89.145,96.793 89.186,96.769 89.23,96.747 C 89.186,96.77 89.145,96.793 89.1,96.815 z M 89.635,96.532 C 89.727,96.48 89.81,96.428 89.896,96.375 C 89.809,96.428 89.727,96.48 89.635,96.532 z M 91.658,94.646 C 91.611,94.755 91.554,94.863 91.485,94.97 C 91.554,94.863 91.611,94.756 91.658,94.646 z "
   style="opacity:0.3"
   id="path15" />

</g>
    <path
       d="M 88.532273,55.801103 C 88.532273,60.334103 76.021273,64.008103 60.588273,64.008103 C 45.154273,64.008103 32.643273,60.333103 32.643273,55.801103 C 32.643273,51.270103 45.154273,47.596103 60.588273,47.596103 C 76.021273,47.596103 88.532273,51.270103 88.532273,55.801103 L 88.532273,55.801103 z "
       style="fill:url(#path4982_1_)"
       id="path4982_3_" />
    <path
       d="M 68.542274,54.11953 C 68.547566,55.438067 64.790609,56.507176 60.149974,56.508103 C 55.509339,56.509958 51.744446,55.44363 51.738272,54.125094 C 51.738272,54.123239 51.738272,54.121385 51.738272,54.11953 C 51.73298,52.799139 55.489937,51.73003 60.130572,51.729103 C 64.771207,51.727248 68.5361,52.793576 68.542274,54.112112 C 68.542274,54.113967 68.542274,54.117676 68.542274,54.11953 z "
       style="opacity:0.3;fill:url(#path4988_1_)"
       id="path4988" />
    <path
       d="M 32.689273,56.307103 C 32.659273,56.463103 32.644273,56.623103 32.644273,56.782103 C 32.644273,61.311103 45.162273,64.983103 60.587273,64.983103 C 76.012273,64.983103 88.531273,61.311103 88.531273,56.782103 C 88.531273,56.624103 88.515273,56.464103 88.484273,56.307103 C 87.593273,60.601103 75.434273,64.000103 60.587273,64.000103 C 45.740273,64.000103 33.581273,60.601103 32.689273,56.307103 z "
       style="fill:#555"
       id="path4992" />
    <path
       d="M 67.054273,52.098103 C 67.560273,53.996103 61.324273,57.311103 53.125273,59.502103 C 44.924273,61.693103 37.866273,61.934103 37.359273,60.037103 C 36.852273,58.140103 43.088273,54.826103 51.289273,52.634103 C 59.490273,50.442103 66.547273,50.201103 67.054273,52.098103 z "
       style="opacity:0.3;fill:url(#path4994_1_)"
       id="path4994" />
    <path
       d="M 54.641273,34.397103 L 66.640273,34.397103 C 66.833273,34.397103 66.991273,34.497103 66.991273,34.624103 L 66.991273,54.253103 C 66.991273,54.378103 66.834273,54.480103 66.640273,54.480103 C 62.780796,55.181053 58.207391,55.562358 54.641273,54.480103 C 54.448273,54.480103 54.289273,54.378103 54.289273,54.253103 L 54.289273,34.621103 C 54.290273,34.496103 54.448273,34.397103 54.641273,34.397103 z "
       style="fill:url(#rect5002_1_)"
       id="rect5002"
       sodipodi:nodetypes="ccccccccc" />
    <rect
       height="68.349998"
       width="104.42011"
       y="-30.559858"
       x="8.553607"
       id="screen" />
    <rect
       style="fill:url(#linearGradient4116);fill-opacity:1;fill-rule:nonzero;stroke:none;stroke-width:3.20000005;stroke-linecap:round;stroke-linejoin:round;stroke-miterlimit:4;stroke-dasharray:none;stroke-dashoffset:4;stroke-opacity:1"
       id="rect3183"
       width="104.07053"
       height="68.260002"
       x="8.6943207"
       y="-30.542498"
       rx="0"
       ry="0" />
    <rect
       ry="0"
       rx="0"
       y="-30.542498"
       x="8.6943207"
       height="68.149231"
       width="104.07056"
       id="rect4643"
       style="opacity:0.18442622;fill:url(#radialGradient4113);fill-opacity:1;fill-rule:nonzero;stroke:none;stroke-width:3.20000005;stroke-linecap:round;stroke-linejoin:round;stroke-miterlimit:4;stroke-dasharray:none;stroke-dashoffset:4;stroke-opacity:1" />
    <path
       style="opacity:0.18852461;fill:url(#linearGradient4110);fill-opacity:1;fill-rule:nonzero;stroke:none;stroke-width:0.40000001;stroke-linecap:round;stroke-linejoin:round;stroke-miterlimit:4;stroke-dasharray:none;stroke-dashoffset:4;stroke-opacity:1"
       d="M 10.979819,-29.627108 C 10.046707,-29.627108 9.3020637,-28.849513 9.3020637,-27.919658 L 9.3020637,35.398461 C 9.3020637,36.328304 10.046707,37.105911 10.979819,37.105911 L 40.822458,37.105911 C 54.864034,10.739765 70.671414,-10.4017 110.93124,-29.520395 C 110.75778,-29.58025 110.55448,-29.627108 110.36008,-29.627108 L 10.979819,-29.627108 z M 112.07355,-24.329481 C 81.245681,-9.4213474 66.742626,16.056661 62.021881,37.105911 L 110.36008,37.105911 C 111.2932,37.105911 112.07355,36.328304 112.07355,35.398461 L 112.07355,-24.329481 z "
       id="rect4365"
       sodipodi:nodetypes="ccccccccccccc" />
    <rect
       style="fill:url(#linearGradient4100);fill-opacity:1;fill-rule:nonzero;stroke:none;stroke-width:0.745;stroke-linecap:square;stroke-linejoin:round;stroke-miterlimit:4;stroke-dasharray:none;stroke-dashoffset:4;stroke-opacity:1"
       id="rect6361"
       width="103.74609"
       height="28.578897"
       x="8.8821993"
       y="9.1205692" />
    <path
       style="fill:url(#linearGradient4097);fill-opacity:1;fill-rule:nonzero;stroke:none;stroke-width:1px;stroke-linecap:butt;stroke-linejoin:miter;stroke-opacity:1"
       d="M 112.77183,-24.457024 C 112.64368,-24.181994 112.51335,-23.912941 112.38512,-23.637013 C 108.90759,-21.142906 105.40676,-18.729247 101.94405,-16.211403 C 97.257463,-12.569346 92.834232,-8.5038394 89.225677,-3.6379694 C 86.539303,0.099553636 84.106828,4.0309716 81.921227,8.1154546 C 76.552978,14.163999 71.775884,20.743416 67.484164,27.704495 C 65.446696,30.876998 63.408373,34.037522 61.339824,37.180121 C 61.687586,37.526597 62.154753,37.726792 62.671828,37.726792 L 63.144467,37.726792 C 65.571311,33.969065 67.921871,30.168427 70.320019,26.383372 C 73.050064,21.896706 76.031906,17.6011 79.214268,13.491049 C 78.82287,14.359183 78.459641,15.249635 78.097131,16.133294 C 75.444866,22.950052 72.940449,29.81459 70.749697,36.815674 C 70.652281,37.121317 70.547943,37.4222 70.448917,37.726792 L 72.941043,37.726792 C 73.187107,36.940689 73.434563,36.148633 73.671476,35.357887 C 75.751117,28.376014 78.207969,21.529045 80.847052,14.766613 C 81.94718,12.104354 83.190633,9.4955466 84.54225,6.9765556 C 84.966981,6.4998426 85.398611,6.0340576 85.831281,5.5643286 C 91.664092,-0.49741336 98.264763,-5.5900384 105.20957,-10.106915 C 105.27897,-10.134325 105.35501,-10.17061 105.42442,-10.19802 L 107.22904,-11.701367 C 107.05982,-11.27769 106.88039,-10.850719 106.71344,-10.425803 C 102.66337,-1.2310684 97.864423,7.5102766 93.350563,16.452182 C 90.057433,23.369367 87.01803,30.409004 84.628174,37.726792 L 86.991392,37.726792 C 89.343825,29.934051 92.51473,22.484976 95.971564,15.176618 C 100.4846,6.2146986 105.32958,-2.5541044 109.42038,-11.746925 C 110.48421,-14.424886 111.61056,-17.05385 112.77183,-19.673658 L 112.77183,-24.457024 z M 111.74064,-22.315891 C 110.18155,-18.904428 108.71462,-15.422915 107.31498,-11.929149 C 105.65445,-10.921917 103.99129,-9.9296904 102.33075,-8.9224574 C 96.804003,-5.2847844 91.520813,-1.2327104 86.647639,3.3320766 C 88.345979,0.48044664 90.156333,-2.2897544 92.104506,-4.9590914 C 95.762763,-9.8229054 100.21805,-13.816542 104.95175,-17.441408 C 107.2133,-19.065125 109.46925,-20.708348 111.74064,-22.315891 z "
       id="path4622" />
    <path
       d="M 114.84027,-35.905897 L 6.6142727,-35.905897 C 4.5092727,-35.905897 2.7962727,-34.192897 2.7962727,-32.087897 L 2.7962727,39.744103 C 2.7962727,41.849103 4.5092727,43.562103 6.6142727,43.562103 L 114.84127,43.562103 C 116.94627,43.562103 118.65927,41.849103 118.65927,39.744103 L 118.65927,-32.087897 C 118.65927,-34.192897 116.94627,-35.905897 114.84027,-35.905897 z M 8.4312727,37.926103 C 8.4312727,36.947103 8.4312727,-29.291897 8.4312727,-30.269897 C 9.4172727,-30.269897 112.03727,-30.269897 113.02327,-30.269897 C 113.02327,-29.290897 113.02327,36.948103 113.02327,37.926103 C 112.03827,37.926103 9.4172727,37.926103 8.4312727,37.926103 z "
       style="fill:url(#XMLID_1_)"
       id="path78" />
    <path
       d="M 5.4372727,-34.572897 L 116.13427,-34.572897 C 116.31527,-34.572897 116.46027,-34.462897 116.46027,-34.324897 L 116.46027,-32.113897 C 116.46027,-31.976897 116.31427,-31.865897 116.13427,-31.865897 L 5.4372727,-31.865897 C 5.2572727,-31.865897 5.1102727,-31.975897 5.1102727,-32.113897 L 5.1102727,-34.323897 C 5.1102727,-34.461897 5.2572727,-34.572897 5.4372727,-34.572897 z "
       style="opacity:0.71120001;fill:url(#rect5012_1_)"
       id="rect5012" />
    <path
       d="M 5.5402727,-34.572897 L 116.03227,-34.572897 C 116.26927,-34.572897 116.46227,-34.511897 116.46227,-34.436897 L 116.46227,-33.219897 C 116.46227,-33.144897 116.27027,-33.083897 116.03227,-33.083897 L 5.5402727,-33.083897 C 5.3032727,-33.083897 5.1092727,-33.144897 5.1092727,-33.219897 L 5.1092727,-34.435897 C 5.1102727,-34.510897 5.3022727,-34.572897 5.5402727,-34.572897 z "
       style="opacity:0.71120001;fill:url(#rect5014_1_)"
       id="rect5014" />
    <path
       d="M 11.442273,39.291103 L 110.04627,39.291103 C 110.76427,39.291103 111.34627,39.707103 111.34627,40.217103 L 111.34627,40.217103 C 111.34627,40.729103 110.76427,41.143103 110.04627,41.143103 L 11.442273,41.143103 C 10.725273,41.143103 10.143273,40.729103 10.143273,40.217103 L 10.143273,40.217103 C 10.143273,39.707103 10.725273,39.291103 11.442273,39.291103 z "
       style="opacity:0.71120001;fill:url(#rect5016_1_)"
       id="rect5016" />
    <path
       d="M 10.624273,38.291103 L 110.86327,38.291103 C 111.13027,38.291103 111.34427,38.430103 111.34427,38.600103 L 111.34427,41.348103 C 111.34427,41.520103 111.12927,41.657103 110.86327,41.657103 L 10.624273,41.657103 C 10.358273,41.657103 10.143273,41.518103 10.143273,41.348103 L 10.143273,38.600103 C 10.143273,38.430103 10.358273,38.291103 10.624273,38.291103 z "
       style="opacity:0.71120001;fill:url(#rect5018_1_)"
       id="rect5018" />
    <path
       d="M 7.1763547,-28.960746 L 7.1763547,36.810685 C 7.1763547,36.992022 7.0985347,37.13749 7.0017587,37.13749 L 5.2268706,37.13749 C 5.1310924,37.13749 5.0532727,36.992022 5.0532727,36.810685 L 5.0532727,-28.960746 C 5.0532727,-29.141087 5.1310924,-29.287551 5.2268706,-29.287551 L 7.0017587,-29.287551 C 7.0985347,-29.287551 7.1763547,-29.141087 7.1763547,-28.960746 z "
       style="opacity:0.22840002;fill:url(#rect5020_1_)"
       id="rect5020" />
    <path
       d="M 117.34727,-31.342897 L 117.34727,40.684103 C 117.34727,40.916103 117.16327,41.780103 116.51127,42.051103 C 115.85927,42.322103 115.11827,42.051103 115.11827,42.051103 C 114.99427,42.051103 114.89327,40.916103 114.89327,40.684103 L 114.89327,-23.758897 C 114.89327,-23.990897 116.82827,-31.761897 116.95227,-31.761897 L 117.12227,-31.761897 C 117.24727,-31.761897 117.34727,-31.574897 117.34727,-31.342897 z "
       style="opacity:0.64659998;fill:url(#rect5022_1_)"
       id="rect5022" />
    <rect
       width="128"
       height="128"
       x="-3.2727273"
       y="-36.405899"
       style="fill:none"
       id="_x3C_Sezione_x3E_" />
    <g
       transform="matrix(0.718608,0,0,0.992282,326.5875,-79.21044)"
       id="g4653">
      <path
         id="path4655"
         d="M -315.36088,115.31408 C -316.17507,115.31408 -316.65805,114.9285 -316.65805,114.43823 C -316.65805,113.92243 -316.12619,113.53685 -315.31601,113.53685 C -314.46898,113.53685 -314.00643,113.93264 -314.00643,114.40759 C -314.00643,114.97446 -314.55069,115.31408 -315.35686,115.31408 L -315.36088,115.31408 z M -315.33242,115.00511 C -314.9111,115.00511 -314.66961,114.75742 -314.66961,114.42036 C -314.66961,114.11138 -314.90271,113.84582 -315.33242,113.84582 C -315.76214,113.84582 -316.00363,114.10628 -316.00363,114.42802 C -316.00363,114.75231 -315.75411,115.00511 -315.33644,115.00511 L -315.33242,115.00511 z "
         style="fill:#ddd" />
      <path
         id="path4657"
         d="M -312.07454,115.28599 L -312.32441,114.97446 C -312.42655,114.85445 -312.49185,114.76508 -312.56991,114.66549 L -312.57794,114.66549 C -312.63521,114.76508 -312.70488,114.85445 -312.79462,114.97446 L -313.01969,115.28599 L -313.73175,115.28599 L -312.93397,114.41525 L -313.7033,113.56494 L -312.98723,113.56494 L -312.74574,113.87902 C -312.66366,113.98371 -312.60238,114.06797 -312.53708,114.16501 L -312.52906,114.16501 C -312.46376,114.05521 -312.4105,113.9786 -312.34083,113.87902 L -312.10773,113.56494 L -311.39567,113.56494 L -312.17303,114.40504 L -311.35482,115.28599 L -312.07454,115.28599 z "
         style="fill:#ddd" />
      <path
         id="path4659"
         d="M -310.10981,115.28599 L -310.10981,114.58123 L -310.98128,113.56494 L -310.26521,113.56494 L -309.98688,113.9786 C -309.90079,114.10372 -309.83951,114.19565 -309.77421,114.308 L -309.76618,114.308 C -309.7049,114.20076 -309.63924,114.10117 -309.55753,113.9786 L -309.2792,113.56494 L -308.57954,113.56494 L -309.48785,114.56846 L -309.48785,115.28599 L -310.10981,115.28599 z "
         style="fill:#ddd" />
      <path
         id="path4661"
         d="M -305.97061,115.20683 C -306.16285,115.24769 -306.5269,115.30386 -306.89132,115.30386 C -307.39436,115.30386 -307.75878,115.2247 -308.0123,115.07405 C -308.26218,114.92339 -308.40116,114.69869 -308.40116,114.44589 C -308.39715,113.87391 -307.72996,113.54706 -306.82566,113.54706 C -306.46963,113.54706 -306.19531,113.59047 -306.06034,113.62877 L -306.1913,113.94285 C -306.34269,113.89944 -306.5269,113.8688 -306.82967,113.8688 C -307.34949,113.8688 -307.74637,114.05265 -307.74637,114.42546 C -307.74637,114.78295 -307.38633,114.98978 -306.87491,114.98978 C -306.73592,114.98978 -306.62102,114.97957 -306.57214,114.9668 L -306.57214,114.60421 L -306.99784,114.60421 L -306.99784,114.30034 L -305.97097,114.30034 L -305.97097,115.20683 L -305.97061,115.20683 z "
         style="fill:#ddd" />
      <path
         id="path4663"
         d="M -303.84246,114.55824 L -304.85729,114.55824 L -304.85729,114.9668 L -303.7239,114.9668 L -303.7239,115.28599 L -305.47924,115.28599 L -305.47924,113.56494 L -303.78117,113.56494 L -303.78117,113.88412 L -304.85729,113.88412 L -304.85729,114.24161 L -303.84246,114.24161 L -303.84246,114.55824 L -303.84246,114.55824 z "
         style="fill:#ddd" />
      <path
         id="path4665"
         d="M -302.86411,115.28599 L -302.86411,113.56494 L -302.13563,113.56494 L -301.56292,114.19565 C -301.39913,114.37695 -301.23972,114.59144 -301.11278,114.78551 L -301.10475,114.78551 C -301.1416,114.55824 -301.154,114.32588 -301.154,114.06542 L -301.154,113.56494 L -300.58092,113.56494 L -300.58092,115.28599 L -301.23571,115.28599 L -301.82484,114.62208 C -301.98862,114.43568 -302.17284,114.21608 -302.30343,114.01435 L -302.31985,114.01435 C -302.29942,114.24417 -302.29103,114.48675 -302.29103,114.76763 L -302.29103,115.28599 L -302.86411,115.28599 z "
         style="fill:#ddd" />
    </g>
  </g>
</svg>
