#define round_ur_width 5
#define round_ur_height 5
static unsigned char round_ur_bits[] = {
   0x1f, 0x1f, 0x1e, 0x1c, 0x18 };
