<?xml version="1.0" encoding="UTF-8" standalone="no"?>
<!-- Created with Inkscape (http://www.inkscape.org/) -->
<svg
   xmlns:dc="http://purl.org/dc/elements/1.1/"
   xmlns:cc="http://web.resource.org/cc/"
   xmlns:rdf="http://www.w3.org/1999/02/22-rdf-syntax-ns#"
   xmlns:svg="http://www.w3.org/2000/svg"
   xmlns="http://www.w3.org/2000/svg"
   xmlns:xlink="http://www.w3.org/1999/xlink"
   xmlns:sodipodi="http://sodipodi.sourceforge.net/DTD/sodipodi-0.dtd"
   xmlns:inkscape="http://www.inkscape.org/namespaces/inkscape"
   width="128"
   height="128"
   id="svg2606"
   sodipodi:version="0.32"
   inkscape:version="0.45.1"
   version="1.0"
   sodipodi:docname="go-next128.svg"
   inkscape:output_extension="org.inkscape.output.svg.inkscape"
   sodipodi:docbase="/home/pinheiro/artwork/Oxygen/scribus/scalable"
   inkscape:export-filename="/home/pinheiro/artwork/Oxygen/scribus/scalable/go-next128.png"
   inkscape:export-xdpi="90"
   inkscape:export-ydpi="90">
  <defs
     id="defs2608">
    <linearGradient
       inkscape:collect="always"
       id="linearGradient3449">
      <stop
         style="stop-color:#000000;stop-opacity:1;"
         offset="0"
         id="stop3451" />
      <stop
         style="stop-color:#000000;stop-opacity:0;"
         offset="1"
         id="stop3453" />
    </linearGradient>
    <linearGradient
       id="linearGradient3295">
      <stop
         style="stop-color:#baff63;stop-opacity:1;"
         offset="0"
         id="stop3297" />
      <stop
         style="stop-color:#ffffff;stop-opacity:0;"
         offset="1"
         id="stop3299" />
    </linearGradient>
    <linearGradient
       inkscape:collect="always"
       id="linearGradient3260">
      <stop
         style="stop-color:#ffffff;stop-opacity:1;"
         offset="0"
         id="stop3262" />
      <stop
         style="stop-color:#ffffff;stop-opacity:0;"
         offset="1"
         id="stop3264" />
    </linearGradient>
    <linearGradient
       id="linearGradient3202">
      <stop
         style="stop-color:#cbff9c;stop-opacity:1;"
         offset="0"
         id="stop3204" />
      <stop
         style="stop-color:#65c171;stop-opacity:0"
         offset="1"
         id="stop3206" />
    </linearGradient>
    <linearGradient
       id="linearGradient3647">
      <stop
         style="stop-color:#c2ebab;stop-opacity:1;"
         offset="0"
         id="stop3649" />
      <stop
         style="stop-color:#71d03c;stop-opacity:0;"
         offset="1"
         id="stop3651" />
    </linearGradient>
    <radialGradient
       id="XMLID_4_"
       cx="48"
       cy="-0.2148"
       r="55.148"
       gradientTransform="matrix(0.9792,0,0,0.9725,133.0002,20.8762)"
       gradientUnits="userSpaceOnUse">
      <stop
         offset="0"
         style="stop-color:#72D13D"
         id="stop3082" />
      <stop
         offset="0.3553"
         style="stop-color:#35AC1C"
         id="stop3084" />
      <stop
         offset="0.6194"
         style="stop-color:#0F9508"
         id="stop3086" />
      <stop
         offset="0.7574"
         style="stop-color:#008C00"
         id="stop3088" />
      <stop
         offset="1"
         style="stop-color:#007A00"
         id="stop3090" />
    </radialGradient>
    <linearGradient
       inkscape:collect="always"
       xlink:href="#XMLID_4_"
       id="linearGradient3470"
       x1="123.5"
       y1="76"
       x2="220.5"
       y2="76"
       gradientUnits="userSpaceOnUse" />
    <radialGradient
       inkscape:collect="always"
       xlink:href="#XMLID_4_"
       id="radialGradient3482"
       cx="172"
       cy="76"
       fx="172"
       fy="76"
       r="56"
       gradientTransform="matrix(1,0,0,1.1383929,0,-10.517857)"
       gradientUnits="userSpaceOnUse" />
    <radialGradient
       inkscape:collect="always"
       xlink:href="#XMLID_4_"
       id="radialGradient3575"
       gradientUnits="userSpaceOnUse"
       gradientTransform="matrix(1,0,0,1.1383929,0,-10.517857)"
       cx="172"
       cy="76"
       fx="172"
       fy="76"
       r="56" />
    <radialGradient
       inkscape:collect="always"
       xlink:href="#XMLID_4_"
       id="radialGradient3592"
       gradientUnits="userSpaceOnUse"
       gradientTransform="matrix(1,0,0,1.1383929,-108,-22.517857)"
       cx="172"
       cy="76"
       fx="175"
       fy="103.23137"
       r="56" />
    <radialGradient
       inkscape:collect="always"
       xlink:href="#XMLID_4_"
       id="radialGradient3629"
       gradientUnits="userSpaceOnUse"
       gradientTransform="matrix(1,0,0,1.1383929,0,-10.517857)"
       cx="172"
       cy="76"
       fx="172"
       fy="76"
       r="56" />
    <linearGradient
       inkscape:collect="always"
       xlink:href="#XMLID_4_"
       id="linearGradient3633"
       gradientUnits="userSpaceOnUse"
       x1="123.5"
       y1="76"
       x2="220.5"
       y2="76" />
    <linearGradient
       inkscape:collect="always"
       xlink:href="#linearGradient3647"
       id="linearGradient3653"
       x1="174.5"
       y1="36.566975"
       x2="174.5"
       y2="93.199982"
       gradientUnits="userSpaceOnUse" />
    <linearGradient
       inkscape:collect="always"
       xlink:href="#linearGradient3647"
       id="linearGradient3953"
       gradientUnits="userSpaceOnUse"
       x1="174.5"
       y1="36.566975"
       x2="174.5"
       y2="93.199982" />
    <radialGradient
       inkscape:collect="always"
       xlink:href="#XMLID_4_"
       id="radialGradient3184"
       gradientUnits="userSpaceOnUse"
       gradientTransform="matrix(1,0,0,1.1383929,0,-10.517857)"
       cx="172"
       cy="76"
       fx="172"
       fy="76"
       r="56" />
    <radialGradient
       inkscape:collect="always"
       xlink:href="#XMLID_4_"
       id="radialGradient3213"
       gradientUnits="userSpaceOnUse"
       gradientTransform="matrix(1,0,0,1.1383929,0,-10.517857)"
       cx="172"
       cy="76"
       fx="188.88173"
       fy="121.44213"
       r="56" />
    <linearGradient
       inkscape:collect="always"
       xlink:href="#XMLID_4_"
       id="linearGradient3286"
       gradientUnits="userSpaceOnUse"
       x1="123.5"
       y1="76"
       x2="220.5"
       y2="76" />
    <linearGradient
       inkscape:collect="always"
       xlink:href="#linearGradient3260"
       id="linearGradient3301"
       x1="73.742638"
       y1="15.336544"
       x2="78.939339"
       y2="16.750759"
       gradientUnits="userSpaceOnUse"
       spreadMethod="reflect" />
    <filter
       inkscape:collect="always"
       x="-0.10207015"
       width="1.2041403"
       y="-0.12495601"
       height="1.249912"
       id="filter3387">
      <feGaussianBlur
         inkscape:collect="always"
         stdDeviation="0.44655691"
         id="feGaussianBlur3389" />
    </filter>
    <linearGradient
       inkscape:collect="always"
       xlink:href="#linearGradient3295"
       id="linearGradient3393"
       gradientUnits="userSpaceOnUse"
       spreadMethod="reflect"
       x1="74.75"
       y1="14.275884"
       x2="78.939339"
       y2="16.750759" />
    <linearGradient
       inkscape:collect="always"
       xlink:href="#XMLID_4_"
       id="linearGradient3409"
       gradientUnits="userSpaceOnUse"
       x1="108"
       y1="76"
       x2="212"
       y2="108.51858"
       gradientTransform="matrix(-1,0,0,0.8610463,236,-1.4361867)" />
    <filter
       inkscape:collect="always"
       x="-0.11573034"
       width="1.2314607"
       y="-0.12753956"
       height="1.2550791"
       id="filter3443">
      <feGaussianBlur
         inkscape:collect="always"
         stdDeviation="0.32549158"
         id="feGaussianBlur3445" />
    </filter>
    <radialGradient
       inkscape:collect="always"
       xlink:href="#linearGradient3449"
       id="radialGradient3455"
       cx="72.020813"
       cy="66.344505"
       fx="72.020813"
       fy="66.344505"
       r="60"
       gradientTransform="matrix(-0.5816285,1.767767e-2,2.6986249e-2,0.8878982,96.078154,5.9419094)"
       gradientUnits="userSpaceOnUse" />
    <radialGradient
       inkscape:collect="always"
       xlink:href="#XMLID_4_"
       id="radialGradient3465"
       gradientUnits="userSpaceOnUse"
       gradientTransform="matrix(1,0,0,1.1383929,0,-10.517857)"
       cx="172"
       cy="76"
       fx="172"
       fy="76"
       r="56" />
    <radialGradient
       inkscape:collect="always"
       xlink:href="#XMLID_4_"
       id="radialGradient3467"
       gradientUnits="userSpaceOnUse"
       gradientTransform="matrix(1,0,0,1.1383929,0,-10.517857)"
       cx="172"
       cy="76"
       fx="180.75"
       fy="125.04931"
       r="56" />
    <filter
       inkscape:collect="always"
       id="filter3495">
      <feGaussianBlur
         inkscape:collect="always"
         stdDeviation="0.84521433"
         id="feGaussianBlur3497" />
    </filter>
    <linearGradient
       inkscape:collect="always"
       xlink:href="#linearGradient3295"
       id="linearGradient3517"
       x1="179.17224"
       y1="123.75864"
       x2="173.98071"
       y2="65.448112"
       gradientUnits="userSpaceOnUse" />
    <linearGradient
       inkscape:collect="always"
       xlink:href="#linearGradient3202"
       id="linearGradient3521"
       gradientUnits="userSpaceOnUse"
       gradientTransform="matrix(1,0,0,0.8610463,-108.16138,-1.4361867)"
       spreadMethod="reflect"
       x1="223.32712"
       y1="53.784153"
       x2="226.659"
       y2="57.279232" />
    <linearGradient
       inkscape:collect="always"
       xlink:href="#linearGradient3295"
       id="linearGradient2220"
       gradientUnits="userSpaceOnUse"
       x1="179.17224"
       y1="123.75864"
       x2="173.98071"
       y2="65.448112" />
    <linearGradient
       inkscape:collect="always"
       xlink:href="#linearGradient3295"
       id="linearGradient2226"
       gradientUnits="userSpaceOnUse"
       x1="179.17224"
       y1="123.75864"
       x2="173.98071"
       y2="65.448112" />
    <linearGradient
       inkscape:collect="always"
       xlink:href="#linearGradient3295"
       id="linearGradient2228"
       gradientUnits="userSpaceOnUse"
       x1="179.17224"
       y1="123.75864"
       x2="173.98071"
       y2="65.448112"
       gradientTransform="translate(98,0)" />
    <radialGradient
       inkscape:collect="always"
       xlink:href="#XMLID_4_"
       id="radialGradient2236"
       gradientUnits="userSpaceOnUse"
       gradientTransform="matrix(1,0,0,1.1383929,0,-10.517857)"
       cx="172"
       cy="76"
       fx="172"
       fy="76"
       r="56" />
    <radialGradient
       inkscape:collect="always"
       xlink:href="#XMLID_4_"
       id="radialGradient2238"
       gradientUnits="userSpaceOnUse"
       gradientTransform="matrix(1,0,0,1.1383929,0,-10.517857)"
       cx="172"
       cy="76"
       fx="180.75"
       fy="125.04931"
       r="56" />
    <linearGradient
       inkscape:collect="always"
       xlink:href="#linearGradient3202"
       id="linearGradient3253"
       x1="47.968472"
       y1="16.138517"
       x2="47.968472"
       y2="86.177559"
       gradientUnits="userSpaceOnUse"
       gradientTransform="translate(-0.5,0)" />
    <linearGradient
       y2="57.279232"
       x2="226.659"
       y1="53.784153"
       x1="223.32712"
       spreadMethod="reflect"
       gradientTransform="matrix(1,0,0,0.8610463,-108.16138,-1.4361867)"
       gradientUnits="userSpaceOnUse"
       id="linearGradient3418"
       xlink:href="#linearGradient3202"
       inkscape:collect="always" />
    <linearGradient
       gradientUnits="userSpaceOnUse"
       y2="65.448112"
       x2="173.98071"
       y1="123.75864"
       x1="179.17224"
       id="linearGradient3415"
       xlink:href="#linearGradient3295"
       inkscape:collect="always" />
    <radialGradient
       r="56"
       fy="125.04931"
       fx="180.75"
       cy="76"
       cx="172"
       gradientTransform="matrix(1,0,0,1.1383929,0,-10.517857)"
       gradientUnits="userSpaceOnUse"
       id="radialGradient3409"
       xlink:href="#XMLID_4_"
       inkscape:collect="always" />
    <radialGradient
       r="56"
       fy="76"
       fx="172"
       cy="76"
       cx="172"
       gradientTransform="matrix(1,0,0,1.1383929,0,-10.517857)"
       gradientUnits="userSpaceOnUse"
       id="radialGradient3407"
       xlink:href="#XMLID_4_"
       inkscape:collect="always" />
    <radialGradient
       gradientUnits="userSpaceOnUse"
       gradientTransform="matrix(0.5816285,1.767767e-2,-2.6986249e-2,0.8878982,31.921846,5.9419094)"
       r="60"
       fy="66.344505"
       fx="72.020813"
       cy="66.344505"
       cx="72.020813"
       id="radialGradient3405"
       xlink:href="#linearGradient3449"
       inkscape:collect="always" />
    <linearGradient
       spreadMethod="reflect"
       y2="57.279232"
       x2="226.659"
       y1="53.784153"
       x1="223.32712"
       gradientTransform="matrix(1,0,0,0.8610463,-108.16138,-1.4361867)"
       gradientUnits="userSpaceOnUse"
       id="linearGradient3399"
       xlink:href="#linearGradient3260"
       inkscape:collect="always" />
    <linearGradient
       gradientTransform="matrix(1,0,0,0.8610463,-108,-1.4361867)"
       y2="108.51858"
       x2="212"
       y1="76"
       x1="108"
       gradientUnits="userSpaceOnUse"
       id="linearGradient3397"
       xlink:href="#XMLID_4_"
       inkscape:collect="always" />
    <linearGradient
       y2="16.750759"
       x2="78.939339"
       y1="14.275884"
       x1="74.75"
       spreadMethod="reflect"
       gradientUnits="userSpaceOnUse"
       id="linearGradient3395"
       xlink:href="#linearGradient3295"
       inkscape:collect="always" />
    <linearGradient
       spreadMethod="reflect"
       gradientUnits="userSpaceOnUse"
       y2="16.750759"
       x2="78.939339"
       y1="15.336544"
       x1="73.742638"
       id="linearGradient3389"
       xlink:href="#linearGradient3260"
       inkscape:collect="always" />
    <linearGradient
       y2="76"
       x2="220.5"
       y1="76"
       x1="123.5"
       gradientUnits="userSpaceOnUse"
       id="linearGradient3387"
       xlink:href="#XMLID_4_"
       inkscape:collect="always" />
    <linearGradient
       gradientUnits="userSpaceOnUse"
       y2="76.455902"
       x2="67.73996"
       y1="13.043323"
       x1="79.589897"
       id="linearGradient3385"
       xlink:href="#linearGradient3260"
       inkscape:collect="always" />
    <radialGradient
       r="56"
       fy="125.04931"
       fx="180.75"
       cy="76"
       cx="172"
       gradientTransform="matrix(1,0,0,1.1383929,0,-10.517857)"
       gradientUnits="userSpaceOnUse"
       id="radialGradient3383"
       xlink:href="#XMLID_4_"
       inkscape:collect="always" />
    <linearGradient
       gradientUnits="userSpaceOnUse"
       y2="83.235832"
       x2="75.957108"
       y1="16.154284"
       x1="74.03466"
       id="linearGradient3381"
       xlink:href="#linearGradient3202"
       inkscape:collect="always" />
    <radialGradient
       r="56"
       fy="76"
       fx="172"
       cy="76"
       cx="172"
       gradientTransform="matrix(1,0,0,1.1383929,0,-10.517857)"
       gradientUnits="userSpaceOnUse"
       id="radialGradient3379"
       xlink:href="#XMLID_4_"
       inkscape:collect="always" />
    <linearGradient
       y2="93.199982"
       x2="174.5"
       y1="36.566975"
       x1="174.5"
       gradientUnits="userSpaceOnUse"
       id="linearGradient3377"
       xlink:href="#linearGradient3647"
       inkscape:collect="always" />
    <linearGradient
       gradientUnits="userSpaceOnUse"
       y2="93.199982"
       x2="174.5"
       y1="36.566975"
       x1="174.5"
       id="linearGradient3375"
       xlink:href="#linearGradient3647"
       inkscape:collect="always" />
    <linearGradient
       y2="76"
       x2="220.5"
       y1="76"
       x1="123.5"
       gradientUnits="userSpaceOnUse"
       id="linearGradient3373"
       xlink:href="#XMLID_4_"
       inkscape:collect="always" />
    <radialGradient
       r="56"
       fy="76"
       fx="172"
       cy="76"
       cx="172"
       gradientTransform="matrix(1,0,0,1.1383929,0,-10.517857)"
       gradientUnits="userSpaceOnUse"
       id="radialGradient3371"
       xlink:href="#XMLID_4_"
       inkscape:collect="always" />
    <radialGradient
       r="56"
       fy="103.23137"
       fx="175"
       cy="76"
       cx="172"
       gradientTransform="matrix(1,0,0,1.1383929,-108,-22.517857)"
       gradientUnits="userSpaceOnUse"
       id="radialGradient3369"
       xlink:href="#XMLID_4_"
       inkscape:collect="always" />
    <radialGradient
       r="56"
       fy="76"
       fx="172"
       cy="76"
       cx="172"
       gradientTransform="matrix(1,0,0,1.1383929,0,-10.517857)"
       gradientUnits="userSpaceOnUse"
       id="radialGradient3367"
       xlink:href="#XMLID_4_"
       inkscape:collect="always" />
    <radialGradient
       gradientUnits="userSpaceOnUse"
       gradientTransform="matrix(1,0,0,1.1383929,0,-10.517857)"
       r="56"
       fy="76"
       fx="172"
       cy="76"
       cx="172"
       id="radialGradient3365"
       xlink:href="#XMLID_4_"
       inkscape:collect="always" />
    <linearGradient
       gradientUnits="userSpaceOnUse"
       y2="76"
       x2="220.5"
       y1="76"
       x1="123.5"
       id="linearGradient3363"
       xlink:href="#XMLID_4_"
       inkscape:collect="always" />
    <radialGradient
       gradientUnits="userSpaceOnUse"
       gradientTransform="matrix(0.9792,0,0,0.9725,133.0002,20.8762)"
       r="55.148"
       cy="-0.2148"
       cx="48"
       id="radialGradient3351">
      <stop
         id="stop3353"
         style="stop-color:#72D13D"
         offset="0" />
      <stop
         id="stop3355"
         style="stop-color:#35AC1C"
         offset="0.3553" />
      <stop
         id="stop3357"
         style="stop-color:#0F9508"
         offset="0.6194" />
      <stop
         id="stop3359"
         style="stop-color:#008C00"
         offset="0.7574" />
      <stop
         id="stop3361"
         style="stop-color:#007A00"
         offset="1" />
    </radialGradient>
    <linearGradient
       id="linearGradient3345">
      <stop
         id="stop3347"
         offset="0"
         style="stop-color:#c2ebab;stop-opacity:1;" />
      <stop
         id="stop3349"
         offset="1"
         style="stop-color:#71d03c;stop-opacity:0;" />
    </linearGradient>
    <linearGradient
       id="linearGradient3339">
      <stop
         id="stop3341"
         offset="0"
         style="stop-color:#cbff9c;stop-opacity:1;" />
      <stop
         id="stop3343"
         offset="1"
         style="stop-color:#65c171;stop-opacity:0" />
    </linearGradient>
    <linearGradient
       id="linearGradient3327">
      <stop
         id="stop3329"
         offset="0"
         style="stop-color:#baff63;stop-opacity:1;" />
      <stop
         id="stop3331"
         offset="1"
         style="stop-color:#ffffff;stop-opacity:0;" />
    </linearGradient>
    <radialGradient
       inkscape:collect="always"
       xlink:href="#XMLID_4_"
       id="radialGradient3453"
       gradientUnits="userSpaceOnUse"
       gradientTransform="matrix(1,0,0,1.1383929,0,-10.517857)"
       cx="172"
       cy="76"
       fx="172"
       fy="76"
       r="56" />
    <linearGradient
       inkscape:collect="always"
       xlink:href="#linearGradient3295"
       id="linearGradient3458"
       gradientUnits="userSpaceOnUse"
       x1="179.17224"
       y1="123.75864"
       x2="173.98071"
       y2="65.448112" />
    <linearGradient
       inkscape:collect="always"
       xlink:href="#linearGradient3260"
       id="linearGradient3504"
       gradientUnits="userSpaceOnUse"
       gradientTransform="translate(-0.2125256,-0.1385179)"
       x1="87.468468"
       y1="-0.36148256"
       x2="116.71847"
       y2="106.42756" />
    <linearGradient
       inkscape:collect="always"
       xlink:href="#linearGradient3260"
       id="linearGradient3526"
       gradientUnits="userSpaceOnUse"
       gradientTransform="translate(-0.2125256,-0.1385179)"
       x1="196.46846"
       y1="63.138515"
       x2="52.218468"
       y2="66.224457" />
    <linearGradient
       inkscape:collect="always"
       xlink:href="#linearGradient3260"
       id="linearGradient3530"
       gradientUnits="userSpaceOnUse"
       gradientTransform="matrix(1,0,0,0.8610463,-108.16138,-1.4361867)"
       spreadMethod="reflect"
       x1="223.32712"
       y1="53.784153"
       x2="226.659"
       y2="57.279232" />
    <radialGradient
       inkscape:collect="always"
       xlink:href="#linearGradient3449"
       id="radialGradient3534"
       gradientUnits="userSpaceOnUse"
       gradientTransform="matrix(-0.2586607,-0.5212474,-0.8274344,0.4106011,163.53945,50.055595)"
       cx="-16.668488"
       cy="86.826965"
       fx="-16.668488"
       fy="86.826965"
       r="60" />
  </defs>
  <sodipodi:namedview
     id="base"
     pagecolor="#ffffff"
     bordercolor="#666666"
     borderopacity="1.0"
     inkscape:pageopacity="0.0"
     inkscape:pageshadow="2"
     inkscape:zoom="2.8284271"
     inkscape:cx="86.862921"
     inkscape:cy="43.776979"
     inkscape:document-units="px"
     inkscape:current-layer="layer1"
     width="128px"
     height="128px"
     gridspacingx="4px"
     gridspacingy="4px"
     gridempspacing="2"
     showgrid="false"
     inkscape:grid-points="true"
     showguides="true"
     inkscape:guide-bbox="true"
     inkscape:window-width="1016"
     inkscape:window-height="692"
     inkscape:window-x="502"
     inkscape:window-y="30" />
  <metadata
     id="metadata2611">
    <rdf:RDF>
      <cc:Work
         rdf:about="">
        <dc:format>image/svg+xml</dc:format>
        <dc:type
           rdf:resource="http://purl.org/dc/dcmitype/StillImage" />
      </cc:Work>
    </rdf:RDF>
  </metadata>
  <g
     inkscape:label="Livello 1"
     inkscape:groupmode="layer"
     id="layer1">
    <path
       sodipodi:nodetypes="ccsccccccccccc"
       id="path2488"
       d="M 58.78125,12.165446 L 126.44806,61.147784 C 127.4314,61.853052 128,62.898046 128,64 C 128,65.101954 127.4314,66.146948 126.44806,66.852216 L 58.09375,115.82531 C 53.95063,118.4557 48,118.82842 48,113 L 48,88.000004 L 12,88.000004 C 9.61796,88.000658 7.9992403,86.051051 8.0000003,84 L 8.0000003,44 C 7.9992403,41.94895 9.61796,39.999344 12,40 L 48,40 L 48,15.999999 C 48,12.108863 55.02052,9.4467058 58.78125,12.165446 z "
       style="fill:url(#linearGradient3409);fill-opacity:1;fill-rule:evenodd;stroke:none;stroke-width:8.6213789;stroke-linecap:round;stroke-linejoin:round;stroke-miterlimit:4;stroke-dasharray:none;stroke-opacity:1" />
    <path
       sodipodi:nodetypes="ccsccccccccccc"
       id="path3532"
       d="M 58.78125,12.165446 L 126.44806,61.147784 C 127.4314,61.853052 128,62.898046 128,64 C 128,65.101954 127.4314,66.146948 126.44806,66.852216 L 58.09375,115.82531 C 53.95063,118.4557 48,118.82842 48,113 L 48,88.000004 L 12,88.000004 C 9.61796,88.000658 7.9992403,86.051051 8.0000003,84 L 8.0000003,44 C 7.9992403,41.94895 9.61796,39.999344 12,40 L 48,40 L 48,15.999999 C 48,12.108863 55.02052,9.4467058 58.78125,12.165446 z "
       style="fill:url(#radialGradient3534);fill-opacity:1;fill-rule:evenodd;stroke:none;stroke-width:8.6213789;stroke-linecap:round;stroke-linejoin:round;stroke-miterlimit:4;stroke-dasharray:none;stroke-opacity:1;opacity:0.25468165" />
    <path
       style="fill:url(#linearGradient3301);fill-opacity:1;fill-rule:evenodd;stroke:none;stroke-width:1px;stroke-linecap:butt;stroke-linejoin:miter;stroke-opacity:1;filter:url(#filter3387)"
       d="M 72.5,11.0625 C 71.422912,11.127783 70.386099,11.439286 69.5,12 L 71.875,19.625 L 80,16.46875 L 80,16 C 80,13.081648 76.061079,10.84666 72.5,11.0625 z "
       id="path3272"
       transform="matrix(-1,0,0,1,128,0)" />
    <path
       id="path3519"
       d="M 115.65112,40 C 115.31168,41.154561 113.08862,46.125 113.08862,46.125 L 119.83862,46.09375 L 119.83862,44 C 119.83938,41.94895 118.22066,39.999344 115.83862,40 L 115.65112,40 z "
       style="opacity:0.6142322;fill:url(#linearGradient3521);fill-opacity:1;fill-rule:evenodd;stroke:none;stroke-width:8.6213789;stroke-linecap:round;stroke-linejoin:round;stroke-miterlimit:4;stroke-dasharray:none;stroke-opacity:1;filter:url(#filter3443)"
       transform="matrix(-1,0,0,-1,128,128.125)" />
    <path
       style="fill:url(#radialGradient3455);fill-opacity:1;fill-rule:evenodd;stroke:none;stroke-width:8.6213789;stroke-linecap:round;stroke-linejoin:round;stroke-miterlimit:4;stroke-dasharray:none;stroke-opacity:1"
       d="M 58.78125,12.165446 L 126.44806,61.147784 C 127.4314,61.853052 128,62.898046 128,64 C 128,65.101954 127.4314,66.146948 126.44806,66.852216 L 58.09375,115.82531 C 53.95063,118.4557 48,118.82842 48,113 L 48,88.000004 L 12,88.000004 C 9.61796,88.000658 7.9992403,86.051051 8.0000003,84 L 8.0000003,44 C 7.9992403,41.94895 9.61796,39.999344 12,40 L 48,40 L 48,15.999999 C 48,12.108863 55.02052,9.4467058 58.78125,12.165446 z "
       id="path3447"
       sodipodi:nodetypes="ccsccccccccccc" />
    <path
       id="path3391"
       d="M 72.5,11.0625 C 71.422912,11.127783 70.386099,11.439286 69.5,12 L 71.875,19.625 L 80,16.46875 L 80,16 C 80,13.081648 76.061079,10.84666 72.5,11.0625 z "
       style="opacity:0.70411987;fill:url(#linearGradient3393);fill-opacity:1;fill-rule:evenodd;stroke:none;stroke-width:1px;stroke-linecap:butt;stroke-linejoin:miter;stroke-opacity:1;filter:url(#filter3387)"
       transform="matrix(-0.8316412,0,0,-1,114.5313,128.78415)" />
    <path
       transform="matrix(2.8382138e-2,-0.9995972,0.9995972,2.8382138e-2,-35.118048,158.48653)"
       style="opacity:0.74906365;fill:url(#linearGradient3530);fill-opacity:1;fill-rule:evenodd;stroke:none;stroke-width:8.6213789;stroke-linecap:round;stroke-linejoin:round;stroke-miterlimit:4;stroke-dasharray:none;stroke-opacity:1;filter:url(#filter3443)"
       d="M 115.65112,40 C 115.31168,41.154561 113.08862,46.125 113.08862,46.125 L 119.83862,46.09375 L 119.83862,44 C 119.83938,41.94895 118.22066,39.999344 115.83862,40 L 115.65112,40 z "
       id="path3528"
       inkscape:export-xdpi="90"
       inkscape:export-ydpi="90" />
    <g
       style="fill:url(#radialGradient3629);fill-opacity:1;stroke:none;stroke-width:16;stroke-linecap:round;stroke-linejoin:round;stroke-miterlimit:4;stroke-dasharray:none"
       transform="matrix(-1,0,0,0.8609865,236,-1.4349776)"
       id="g3472">
      <path
         sodipodi:nodetypes="ccccccccccc"
         id="path3474"
         d="M 177.55044,21.46494 L 113.50547,73.806959 C 112.11967,75.416501 112.3415,76.828137 113.40303,78.061061 L 176,129.07866 C 180,132.6608 184,132.85189 184,129.07866 L 184,99.229172 L 224,99.229172 L 224,52.770836 L 184,52.770836 L 184,23.929232 C 184,20.738359 180.84713,19.254283 177.55044,21.46494 z "
         style="fill:url(#radialGradient3213);fill-opacity:1;fill-rule:evenodd;stroke:none;stroke-width:16;stroke-linecap:round;stroke-linejoin:round;stroke-miterlimit:4;stroke-dasharray:none;stroke-opacity:1" />
    </g>
    <g
       style="fill:none;fill-opacity:1;stroke:url(#linearGradient2226);stroke-width:1.07770979;stroke-linecap:round;stroke-linejoin:round;stroke-miterlimit:4;stroke-dasharray:none;stroke-opacity:1;filter:url(#filter3495)"
       transform="matrix(-1,0,0,0.8609865,333.40303,-1.4349776)"
       id="g3469">
      <path
         sodipodi:nodetypes="ccccccccccc"
         id="path3471"
         d="M 275.55044,21.46494 L 211.50547,73.806959 C 210.11967,75.416501 210.3415,76.828137 211.40303,78.061061 L 274,129.07866 C 278,132.6608 282,132.85189 282,129.07866 L 282,99.229172 L 322,99.229172 L 322,52.770836 L 282,52.770836 L 282,23.929232 C 282,20.738359 278.84713,19.254283 275.55044,21.46494 z "
         style="fill:none;fill-opacity:1;fill-rule:evenodd;stroke:url(#linearGradient2228);stroke-width:1.07770979;stroke-linecap:round;stroke-linejoin:round;stroke-miterlimit:4;stroke-dasharray:none;stroke-opacity:1" />
    </g>
    <path
       style="fill:url(#linearGradient3253);fill-opacity:1;fill-rule:evenodd;stroke:none;stroke-width:16;stroke-linecap:round;stroke-linejoin:round;stroke-miterlimit:4;stroke-dasharray:none;stroke-opacity:1"
       d="M 54.96875,16.15625 C 53.240202,16.307374 52,17.439188 52,19.15625 L 52,44 L 12,44 L 12,65.15625 C 21.939409,66.360551 32.451562,67.000001 43.3125,67 C 70.254354,67 94.98579,63.028043 114.375,56.40625 L 58.4375,17.03125 C 57.201241,16.317495 56.005879,16.065575 54.96875,16.15625 z "
       id="path2232" />
    <path
       style="fill:url(#linearGradient3504);fill-opacity:1.0;fill-rule:evenodd;stroke:none;stroke-width:16;stroke-linecap:round;stroke-linejoin:round;stroke-miterlimit:4;stroke-dasharray:none;stroke-opacity:1"
       d="M 54.96875,16.117187 C 54.09558,16.193525 53.37078,16.528828 52.84375,17.054687 C 52.58829,17.309579 52.35908,17.58696 52.21875,17.929687 C 52.21509,17.938382 52.22233,17.952189 52.21875,17.960937 C 52.15242,18.127922 52.09786,18.306702 52.0625,18.492187 C 52.06048,18.502221 52.06442,18.51335 52.0625,18.523437 C 52.02875,18.710259 52,18.913179 52,19.117187 C 51.99991,19.127767 52,19.137812 52,19.148437 L 52,20.148437 L 52,43.742187 L 52.03125,43.742187 L 53.13125,18.998437 C 53.502929,16.724737 56.430578,16.81446 58.4375,18.023437 L 113.2875,56.042187 C 99.76171,60.964822 82.06048,64.465479 64.3125,66.085937 C 82.61652,64.639265 99.35134,61.359487 113.375,56.679687 L 113.40625,56.710937 C 113.72671,56.603896 114.05739,56.506907 114.375,56.398437 L 114.34375,56.367187 L 83.90625,34.929687 L 58.4375,17.023437 C 57.37955,16.412627 56.36202,16.157535 55.4375,16.148437 C 55.45997,16.140063 55.47725,16.12513 55.5,16.117187 C 55.32253,16.113177 55.13828,16.102367 54.96875,16.117187 z M 12,43.960937 L 12,43.992187 L 12,44.992187 L 12,65.117187 L 12.9375,44.992187 L 52,43.992187 L 52,43.992187 L 13,43.992187 L 13,43.960937 L 12,43.960937 z "
       id="path3462"
       sodipodi:nodetypes="cssssssccccccccccccccssccccccccccc" />
    <path
       sodipodi:nodetypes="cssssssccccccccccccccssccccccccccc"
       id="path3524"
       d="M 54.96875,16.117187 C 54.09558,16.193525 53.37078,16.528828 52.84375,17.054687 C 52.58829,17.309579 52.35908,17.58696 52.21875,17.929687 C 52.21509,17.938382 52.22233,17.952189 52.21875,17.960937 C 52.15242,18.127922 52.09786,18.306702 52.0625,18.492187 C 52.06048,18.502221 52.06442,18.51335 52.0625,18.523437 C 52.02875,18.710259 52,18.913179 52,19.117187 C 51.99991,19.127767 52,19.137812 52,19.148437 L 52,20.148437 L 52,43.742187 L 52.03125,43.742187 L 53.13125,18.998437 C 53.502929,16.724737 56.430578,16.81446 58.4375,18.023437 L 113.2875,56.042187 C 99.76171,60.964822 82.06048,64.465479 64.3125,66.085937 C 82.61652,64.639265 99.35134,61.359487 113.375,56.679687 L 113.40625,56.710937 C 113.72671,56.603896 114.05739,56.506907 114.375,56.398437 L 114.34375,56.367187 L 83.90625,34.929687 L 58.4375,17.023437 C 57.37955,16.412627 56.36202,16.157535 55.4375,16.148437 C 55.45997,16.140063 55.47725,16.12513 55.5,16.117187 C 55.32253,16.113177 55.13828,16.102367 54.96875,16.117187 z M 12,43.960937 L 12,43.992187 L 12,44.992187 L 12,65.117187 L 12.9375,44.992187 L 52,43.992187 L 52,43.992187 L 13,43.992187 L 13,43.960937 L 12,43.960937 z "
       style="fill:url(#linearGradient3526);fill-opacity:1.0;fill-rule:evenodd;stroke:none;stroke-width:16;stroke-linecap:round;stroke-linejoin:round;stroke-miterlimit:4;stroke-dasharray:none;stroke-opacity:1" />
  </g>
</svg>
