<?xml version="1.0" encoding="UTF-8" standalone="no"?>
<!-- Created with Inkscape (http://www.inkscape.org/) -->
<svg
   xmlns:dc="http://purl.org/dc/elements/1.1/"
   xmlns:cc="http://web.resource.org/cc/"
   xmlns:rdf="http://www.w3.org/1999/02/22-rdf-syntax-ns#"
   xmlns:svg="http://www.w3.org/2000/svg"
   xmlns="http://www.w3.org/2000/svg"
   xmlns:sodipodi="http://sodipodi.sourceforge.net/DTD/sodipodi-0.dtd"
   xmlns:inkscape="http://www.inkscape.org/namespaces/inkscape"
   width="128"
   height="128"
   id="svg4236"
   sodipodi:version="0.32"
   inkscape:version="0.44"
   version="1.0"
   sodipodi:docbase="/home/me/KDE_SVN/trunk/playground/artwork/Oxygen/theme/svg/mimetypes"
   sodipodi:docname="vectorgfx2.svg">
  <defs
     id="defs4238">
    <linearGradient
       id="XMLID_6_"
       gradientUnits="userSpaceOnUse"
       x1="95.695297"
       y1="67.5205"
       x2="43.148399"
       y2="67.5205">
				<stop
   offset="0"
   style="stop-color:#EDE0FF"
   id="stop4013" />

				<stop
   offset="0.7929"
   style="stop-color:#8000FF"
   id="stop4015" />

			</linearGradient>
    <linearGradient
       y2="105.4987"
       x2="95.420601"
       y1="95.725601"
       x1="85.647499"
       gradientUnits="userSpaceOnUse"
       id="XMLID_4_">
			<stop
   id="stop50"
   style="stop-color:#FFFFFF"
   offset="0.3" />

			<stop
   id="stop52"
   style="stop-color:#f3f3f3;stop-opacity:1;"
   offset="0.60360003" />

			<stop
   id="stop54"
   style="stop-color:#eeeeee;stop-opacity:0.94509804;"
   offset="0.74790001" />

			<stop
   id="stop56"
   style="stop-color:#dcdcdc;stop-opacity:0.90588236;"
   offset="0.84619999" />

			<stop
   id="stop58"
   style="stop-color:#cacaca;stop-opacity:1;"
   offset="0.87629998" />

			<stop
   id="stop60"
   style="stop-color:#d6d6d6;stop-opacity:0.98431373;"
   offset="0.94819999" />

			<stop
   id="stop62"
   style="stop-color:#cccccc;stop-opacity:1;"
   offset="1" />

		</linearGradient>
    <radialGradient
       gradientUnits="userSpaceOnUse"
       r="137.8933"
       cy="111.1299"
       cx="101.1562"
       id="XMLID_3_">
			<stop
   id="stop23"
   style="stop-color:#555555;stop-opacity:0.87628865;"
   offset="0.1006" />

			<stop
   id="stop25"
   style="stop-color:#676767;stop-opacity:0.78350514;"
   offset="0.115" />

			<stop
   id="stop27"
   style="stop-color:#9b9b9b;stop-opacity:0.86597937;"
   offset="0.16140001" />

			<stop
   id="stop29"
   style="stop-color:#c0c0c0;stop-opacity:0.85567009;"
   offset="0.2018" />

			<stop
   id="stop31"
   style="stop-color:#d8d8d8;stop-opacity:0.90721649;"
   offset="0.2341" />

			<stop
   id="stop33"
   style="stop-color:#e0e0e0;stop-opacity:0.85567009;"
   offset="0.25440001" />

			<stop
   id="stop35"
   style="stop-color:#ededed;stop-opacity:0.85567009;"
   offset="0.31150001" />

			<stop
   id="stop37"
   style="stop-color:#fafafa;stop-opacity:0.8041237;"
   offset="0.4005" />

			<stop
   id="stop39"
   style="stop-color:#ffffff;stop-opacity:0.86597937;"
   offset="0.47929999" />

			<stop
   id="stop41"
   style="stop-color:#fafafa;stop-opacity:0.94845361;"
   offset="0.59969997" />

			<stop
   id="stop43"
   style="stop-color:#EEEEEE"
   offset="0.7219" />

			<stop
   id="stop45"
   style="stop-color:#dddddd;stop-opacity:1;"
   offset="0.8876" />

		</radialGradient>
  </defs>
  <sodipodi:namedview
     id="base"
     pagecolor="#ffffff"
     bordercolor="#666666"
     borderopacity="1.0"
     gridtolerance="10000"
     guidetolerance="10"
     objecttolerance="10"
     inkscape:pageopacity="0.0"
     inkscape:pageshadow="2"
     inkscape:zoom="4.0264699"
     inkscape:cx="68.246123"
     inkscape:cy="62.140141"
     inkscape:document-units="px"
     inkscape:current-layer="layer1"
     height="128px"
     width="128px"
     inkscape:window-width="1274"
     inkscape:window-height="727"
     inkscape:window-x="0"
     inkscape:window-y="0" />
  <metadata
     id="metadata4241">
    <rdf:RDF>
      <cc:Work
         rdf:about="">
        <dc:format>image/svg+xml</dc:format>
        <dc:type
           rdf:resource="http://purl.org/dc/dcmitype/StillImage" />
      </cc:Work>
    </rdf:RDF>
  </metadata>
  <g
     inkscape:label="Layer 1"
     inkscape:groupmode="layer"
     id="layer1">
    <g
       id="g1346"
       transform="translate(1.714271,1e-2)">
      <path
         d="M 18,2 C 15.794,2 14,3.794 14,6 L 14,122 C 14,124.206 15.794,126 18,126 L 79.888,126 C 80.964,126 82.01,125.558 82.759,124.785 L 112.871,93.76 C 113.6,93.008 114,92.02 114,90.975 L 114,6 C 114,3.794 112.206,2 110,2 L 18,2 z "
         id="path12"
         style="opacity:0.15;fill:#323232" />
      <path
         d="M 18,3 C 16.346,3 15,4.346 15,6 L 15,122 C 15,123.654 16.346,125 18,125 L 79.888,125 C 80.695,125 81.48,124.668 82.041,124.089 L 112.153,93.064 C 112.699,92.5 113,91.758 113,90.975 L 113,6 C 113,4.346 111.654,3 110,3 L 18,3 z "
         id="path14"
         style="opacity:0.2;fill:#323232" />
      <path
         d="M 18,4 C 16.897,4 16,4.897 16,6 L 16,122 C 16,123.103 16.897,124 18,124 L 79.888,124 C 80.426,124 80.95,123.778 81.324,123.393 L 111.436,92.368 C 111.8,91.992 112,91.498 112,90.975 L 112,6 C 112,4.897 111.103,4 110,4 L 18,4 z "
         id="path16"
         style="opacity:0.25;fill:#323232" />
      <path
         d="M 18,5 C 17.448,5 17,5.448 17,6 L 17,122 C 17,122.553 17.448,123 18,123 L 79.888,123 C 80.159,123 80.417,122.891 80.606,122.696 L 110.718,91.671 C 110.899,91.484 111,91.234 111,90.975 L 111,6 C 111,5.448 110.553,5 110,5 L 18,5 z "
         id="path18"
         style="opacity:0.3;fill:#323232" />
      <path
         d="M 18,121 C 21.858,121 78.218,121 79.888,121 C 81.049,119.804 108.895,91.114 110,89.975 C 110,88.366 110,8.925 110,5 C 106.09,5 21.911,5 18,5 C 18,8.944 18,117.056 18,121 z "
         id="path20"
         style="fill:white" />
      <path
         d="M 19,6 C 19,7.949 19,118.052 19,120 C 20.922,120 78.644,120 79.465,120 C 80.037,119.41 108.451,90.134 109,89.569 C 109,88.775 109,7.944 109,6 C 107.064,6 20.935,6 19,6 z "
         id="path47"
         style="fill:url(#XMLID_3_)" />
      <path
         sodipodi:nodetypes="ccccc"
         d="M 94.969,105.834 C 89.302,111.834 79.881658,120.99606 79.881658,120.99606 C 79.881658,120.99606 85.518,108.033 86.182,95.189 C 86.182,95.189 98.08,95.706165 110,89.962165 C 110,89.962165 100.636,99.834 94.969,105.834 z "
         id="path64"
         style="fill:url(#XMLID_4_)" />
    </g>
    <g
       id="g3998"
       transform="translate(-2.288818e-7,3.295898e-6)">
			<rect
   x="47.678001"
   y="100.756"
   enable-background="new    "
   width="6"
   height="6"
   id="rect4000"
   style="fill:white" />

			<rect
   x="92.428001"
   y="36.756001"
   enable-background="new    "
   width="6"
   height="6"
   id="rect4002"
   style="fill:white" />

			<g
   id="g4004">
				
					<rect
   x="46.082001"
   y="16.690001"
   transform="matrix(-0.7071,-0.7071,0.7071,-0.7071,51.896,99.6298)"
   width="1"
   height="44.752998"
   id="rect4006"
   style="fill:#400080" />

			</g>

			<circle
   cx="62.403999"
   cy="23.243999"
   r="2"
   id="circle4008"
   sodipodi:cx="62.403999"
   sodipodi:cy="23.243999"
   sodipodi:rx="2"
   sodipodi:ry="2"
   style="fill:#400080" />

			<circle
   cx="30.76"
   cy="54.889"
   r="2"
   id="circle4010"
   sodipodi:cx="30.76"
   sodipodi:cy="54.889"
   sodipodi:rx="2"
   sodipodi:ry="2"
   style="fill:#400080" />

			<linearGradient
   id="linearGradient4406"
   gradientUnits="userSpaceOnUse"
   x1="95.695297"
   y1="67.5205"
   x2="43.148399"
   y2="67.5205">
				<stop
   offset="0"
   style="stop-color:#EDE0FF"
   id="stop4408" />

				<stop
   offset="0.7929"
   style="stop-color:#8000FF"
   id="stop4410" />

			</linearGradient>

			<path
   enable-background="new    "
   d="M 50.379,103.117 C 50.379,103.117 74.746,105.586 74.746,85.079 C 74.746,64.573 30.76,54.89 46.582,39.066 C 62.404,23.244 95.695,38.306 95.695,38.306"
   id="path4017"
   style="opacity:0.3;fill:url(#XMLID_6_)" />

			<path
   d="M 46.225,38.709 C 43.651,41.283 42.484,43.811 42.659,46.438 C 43.03,52.02 49.591,57.032 56.535,62.337 C 64.835,68.678 74.241,75.865 74.241,85.079 C 74.241,90.359 72.577,94.54 69.298,97.506 C 62.406,103.739 50.551,102.626 50.431,102.614 L 50.329,103.621 C 50.833,103.672 62.745,104.796 69.974,98.261 C 73.478,95.095 75.254,90.659 75.254,85.079 C 75.254,75.364 65.636,68.017 57.15,61.532 C 50.393,56.37 44.011,51.494 43.67,46.371 C 43.516,44.052 44.586,41.78 46.941,39.425 C 62.334,24.033 95.159,38.618 95.489,38.769 L 95.906,37.846 C 95.568,37.694 62.11,22.822 46.225,38.709 z "
   id="path4019"
   style="fill:#5a00b3" />

			<rect
   x="92.657997"
   y="35.27"
   enable-background="new    "
   width="6.0760002"
   height="6.0749998"
   id="rect4021"
   style="fill:white" />

			<rect
   x="47.341999"
   y="100.079"
   enable-background="new    "
   width="6.0760002"
   height="6.0760002"
   id="rect4023"
   style="fill:white" />

			<path
   d="M 92.152,34.763 L 92.152,41.852 L 99.24,41.852 L 99.24,34.763 L 92.152,34.763 z M 98.228,40.839 C 97.455,40.839 93.938,40.839 93.165,40.839 C 93.165,40.066 93.165,36.549 93.165,35.776 C 93.938,35.776 97.455,35.776 98.228,35.776 C 98.228,36.549 98.228,40.065 98.228,40.839 z "
   id="path4025"
   style="fill:#5a00b3" />

			<path
   d="M 46.835,99.573 L 46.835,106.662 L 53.924,106.662 L 53.924,99.573 L 46.835,99.573 z M 52.911,100.586 C 52.911,101.359 52.911,104.876 52.911,105.649 C 52.138,105.649 48.621,105.649 47.848,105.649 C 47.848,104.876 47.848,101.359 47.848,100.586 C 48.621,100.586 52.138,100.586 52.911,100.586 z "
   id="path4027"
   style="fill:#5a00b3" />

			<rect
   x="43.543999"
   y="36.028"
   width="6.0760002"
   height="6.0760002"
   id="rect4029"
   style="fill:#400080" />

		</g>
  </g>
</svg>
