<?xml version="1.0" encoding="UTF-8" standalone="no"?>
<!DOCTYPE svg PUBLIC "-//W3C//DTD SVG 20010904//EN"
"http://www.w3.org/TR/2001/REC-SVG-20010904/DTD/svg10.dtd">
<!-- Created with Inkscape (http://www.inkscape.org/) -->
<svg
   width="64pt"
   height="64pt"
   id="svg3854"
   sodipodi:version="0.32"
   inkscape:version="0.40"
   sodipodi:docbase="/home/nuno/kdeplayground-artwork/oooicons/crystalsvg"
   sodipodi:docname="addecimal.svg"
   inkscape:export-filename="/home/nuno/kdeplayground-artwork/oooicons/crystalsvg/addecimal.png"
   inkscape:export-xdpi="36.000000"
   inkscape:export-ydpi="36.000000"
   xmlns="http://www.w3.org/2000/svg"
   xmlns:cc="http://web.resource.org/cc/"
   xmlns:inkscape="http://www.inkscape.org/namespaces/inkscape"
   xmlns:sodipodi="http://sodipodi.sourceforge.net/DTD/sodipodi-0.dtd"
   xmlns:rdf="http://www.w3.org/1999/02/22-rdf-syntax-ns#"
   xmlns:dc="http://purl.org/dc/elements/1.1/"
   xmlns:xlink="http://www.w3.org/1999/xlink">
  <defs
     id="defs3">
    <linearGradient
       inkscape:collect="always"
       xlink:href="#shadow100to0"
       id="linearGradient3104"
       gradientTransform="scale(0.910048,1.098844)"
       x1="87.501610"
       y1="26.795559"
       x2="59.600544"
       y2="46.132683"
       gradientUnits="userSpaceOnUse" />
    <linearGradient
       id="shadow100to0">
      <stop
         style="stop-color:#000000;stop-opacity:1.0000000;"
         offset="0.0000000"
         id="stop3425" />
      <stop
         style="stop-color:#000000;stop-opacity:0.0000000;"
         offset="1.0000000"
         id="stop3426" />
    </linearGradient>
    <linearGradient
       inkscape:collect="always"
       xlink:href="#shadow100to0"
       id="linearGradient2472"
       gradientTransform="matrix(0.189509,0.000000,0.000000,0.228824,-0.221696,0.765534)"
       x1="235.03880"
       y1="268.74088"
       x2="412.48419"
       y2="145.57393"
       gradientUnits="userSpaceOnUse" />
    <linearGradient
       id="light75to0">
      <stop
         style="stop-color:#ffffff;stop-opacity:0.72916669;"
         offset="0.0000000"
         id="stop2769" />
      <stop
         style="stop-color:#ffffff;stop-opacity:0.0000000;"
         offset="1.0000000"
         id="stop2770" />
    </linearGradient>
    <linearGradient
       inkscape:collect="always"
       xlink:href="#light75to0"
       id="linearGradient2479"
       gradientTransform="matrix(0.284815,0.000000,0.000000,0.152253,-0.221696,-0.641169)"
       x1="133.08537"
       y1="381.45816"
       x2="78.253143"
       y2="152.16801"
       gradientUnits="userSpaceOnUse" />
    <linearGradient
       inkscape:collect="always"
       xlink:href="#light100to0"
       id="linearGradient4390"
       gradientTransform="matrix(1.048333,0.000000,0.000000,0.953895,3.135114,2.949073)"
       x1="23.488348"
       y1="34.215549"
       x2="261.13272"
       y2="362.30255"
       gradientUnits="userSpaceOnUse" />
    <linearGradient
       id="light100to0">
      <stop
         style="stop-color:#ffffff;stop-opacity:1.0000000;"
         offset="0.0000000"
         id="stop2764" />
      <stop
         style="stop-color:#ffffff;stop-opacity:0.0000000;"
         offset="1.0000000"
         id="stop2765" />
    </linearGradient>
    <radialGradient
       inkscape:collect="always"
       xlink:href="#light100to0"
       id="radialGradient3143"
       gradientTransform="scale(0.999851,1.000149)"
       cx="232.06880"
       cy="333.00150"
       fx="232.06880"
       fy="333.00150"
       r="105.99626"
       gradientUnits="userSpaceOnUse" />
    <linearGradient
       id="greandarktobgrean">
      <stop
         style="stop-color:#00ad01;stop-opacity:1.0000000;"
         offset="0.0000000"
         id="stop4492" />
      <stop
         style="stop-color:#15720f;stop-opacity:1.0000000;"
         offset="1.0000000"
         id="stop4493" />
    </linearGradient>
    <radialGradient
       inkscape:collect="always"
       xlink:href="#greandarktobgrean"
       id="radialGradient9371"
       gradientTransform="scale(0.999855,1.000145)"
       cx="78.732162"
       cy="52.096363"
       fx="78.732162"
       fy="52.096363"
       r="219.06058"
       gradientUnits="userSpaceOnUse" />
    <linearGradient
       id="greantodarkgrean">
      <stop
         style="stop-color:#00ff01;stop-opacity:1.0000000;"
         offset="0.0000000"
         id="stop5123" />
      <stop
         style="stop-color:#15980f;stop-opacity:1.0000000;"
         offset="1.0000000"
         id="stop5124" />
    </linearGradient>
    <linearGradient
       inkscape:collect="always"
       xlink:href="#greantodarkgrean"
       id="linearGradient2518"
       gradientTransform="scale(0.999857,1.000143)"
       x1="351.57092"
       y1="50.663139"
       x2="176.99603"
       y2="218.63310"
       gradientUnits="userSpaceOnUse" />
    <linearGradient
       inkscape:collect="always"
       xlink:href="#light100to0"
       id="linearGradient1227"
       x1="49.780750"
       y1="160.22720"
       x2="70.678881"
       y2="241.50660"
       gradientTransform="scale(1.339018,0.746816)"
       gradientUnits="userSpaceOnUse" />
    <linearGradient
       inkscape:collect="always"
       xlink:href="#light100to0"
       id="linearGradient1226"
       x1="214.37532"
       y1="19.013562"
       x2="265.88350"
       y2="101.60663"
       gradientTransform="scale(0.850935,1.175177)"
       gradientUnits="userSpaceOnUse" />
    <linearGradient
       inkscape:collect="always"
       xlink:href="#light100to25to0"
       id="linearGradient1225"
       x1="89.736715"
       y1="468.66684"
       x2="137.61585"
       y2="259.21799"
       gradientTransform="scale(1.338966,0.746845)"
       gradientUnits="userSpaceOnUse" />
    <linearGradient
       inkscape:collect="always"
       xlink:href="#bluelignonlinblu"
       id="linearGradient1224"
       x1="248.91714"
       y1="199.90064"
       x2="151.15762"
       y2="326.93205"
       gradientTransform="scale(1.339071,0.746786)"
       gradientUnits="userSpaceOnUse" />
    <linearGradient
       inkscape:collect="always"
       xlink:href="#bluelignonlinblu"
       id="linearGradient1223"
       spreadMethod="reflect"
       x1="93.937141"
       y1="40.809427"
       x2="296.05616"
       y2="273.11305"
       gradientTransform="scale(0.946821,1.056166)"
       gradientUnits="userSpaceOnUse" />
    <linearGradient
       inkscape:collect="always"
       xlink:href="#bluedarktoblackblue"
       id="linearGradient1222"
       x1="503.70489"
       y1="-122.49414"
       x2="-14.071008"
       y2="349.71447"
       gradientTransform="scale(0.948689,1.054087)"
       gradientUnits="userSpaceOnUse" />
    <linearGradient
       inkscape:collect="always"
       xlink:href="#bluelignonlinblu"
       id="linearGradient1221"
       spreadMethod="reflect"
       x1="90.207012"
       y1="35.683938"
       x2="299.89447"
       y2="276.68628"
       gradientTransform="scale(0.948689,1.054087)"
       gradientUnits="userSpaceOnUse" />
    <linearGradient
       inkscape:collect="always"
       xlink:href="#light100to0"
       id="linearGradient7948"
       x1="49.780750"
       y1="160.22720"
       x2="70.678881"
       y2="241.50660"
       gradientTransform="scale(1.339018,0.746816)"
       gradientUnits="userSpaceOnUse" />
    <linearGradient
       inkscape:collect="always"
       xlink:href="#light100to0"
       id="linearGradient7324"
       x1="214.37532"
       y1="19.013562"
       x2="265.88350"
       y2="101.60663"
       gradientTransform="scale(0.850935,1.175177)"
       gradientUnits="userSpaceOnUse" />
    <linearGradient
       inkscape:collect="always"
       xlink:href="#light100to25to0"
       id="linearGradient6699"
       x1="89.736715"
       y1="468.66684"
       x2="137.61585"
       y2="259.21799"
       gradientTransform="scale(1.338966,0.746845)"
       gradientUnits="userSpaceOnUse" />
    <linearGradient
       inkscape:collect="always"
       xlink:href="#bluelignonlinblu"
       id="linearGradient3579"
       x1="248.91714"
       y1="199.90064"
       x2="151.15762"
       y2="326.93205"
       gradientTransform="scale(1.339071,0.746786)"
       gradientUnits="userSpaceOnUse" />
    <linearGradient
       inkscape:collect="always"
       xlink:href="#bluelignonlinblu"
       id="linearGradient2331"
       x1="90.207012"
       y1="35.683938"
       x2="299.89447"
       y2="276.68628"
       spreadMethod="reflect"
       gradientTransform="scale(0.948689,1.054087)"
       gradientUnits="userSpaceOnUse" />
    <linearGradient
       inkscape:collect="always"
       xlink:href="#bluedarktoblackblue"
       id="linearGradient1705"
       x1="503.70489"
       y1="-122.49414"
       x2="-14.071008"
       y2="349.71447"
       gradientTransform="scale(0.948689,1.054087)"
       gradientUnits="userSpaceOnUse" />
    <linearGradient
       id="linearGradient581"
       xlink:href="#bluedarktoblackblue"
       x1="4.3021142e-16"
       y1="0.50000000"
       x2="1.0000000"
       y2="0.50000000" />
    <linearGradient
       x1="0.016544119"
       y1="0.46428570"
       x2="0.99264705"
       y2="0.46428570"
       id="linearGradient9077"
       collect="always"
       xlink:href="#blacktowhite" />
    <linearGradient
       x1="0.016544119"
       y1="0.46428570"
       x2="0.99264705"
       y2="0.46428570"
       id="linearGradient5108"
       collect="always"
       xlink:href="#garylighttowite" />
    <linearGradient
       x1="0.016544119"
       y1="0.46428570"
       x2="0.99264705"
       y2="0.46428570"
       id="linearGradient5103"
       collect="always"
       xlink:href="#graytolightgray" />
    <linearGradient
       x1="0.016544119"
       y1="0.46428570"
       x2="0.99264705"
       y2="0.46428570"
       id="linearGradient782"
       xlink:href="#graytoblack" />
    <linearGradient
       x1="-3.4965520e-17"
       y1="0.50000000"
       x2="1.0000000"
       y2="0.50000000"
       id="linearGradient4473"
       collect="always"
       xlink:href="#reddarktoblack" />
    <linearGradient
       x1="-2.0979312e-17"
       y1="0.50000000"
       x2="1.0000000"
       y2="0.50000000"
       id="linearGradient4471"
       collect="always"
       xlink:href="#redtodarkred" />
    <linearGradient
       x1="-6.9931040e-18"
       y1="0.50000000"
       x2="1.0000000"
       y2="0.50000000"
       id="linearGradient3704"
       collect="always"
       xlink:href="#greandarktobgrean" />
    <linearGradient
       x1="-5.4454054e-17"
       y1="0.50000000"
       x2="1.0000000"
       y2="0.50000000"
       id="linearGradient3080"
       collect="always"
       xlink:href="#greantodarkgrean" />
    <linearGradient
       x1="-4.7460950e-17"
       y1="0.50000000"
       x2="1.0000000"
       y2="0.50000000"
       id="linearGradient3471"
       collect="always"
       xlink:href="#bluelightlesstoblue" />
    <linearGradient
       x1="-3.3474742e-17"
       y1="0.50000000"
       x2="1.0000000"
       y2="0.50000000"
       id="linearGradient3464"
       collect="always"
       xlink:href="#blueligtmoretoblue" />
    <linearGradient
       x1="-5.0968344e-16"
       y1="0.50000000"
       x2="1.0000000"
       y2="0.50000000"
       id="linearGradient3445"
       collect="always"
       xlink:href="#shadow25tolineto0" />
    <linearGradient
       x1="-3.1582809e-16"
       y1="0.50000000"
       x2="1.0000000"
       y2="0.50000000"
       id="linearGradient3440"
       collect="always"
       xlink:href="#shadow0wto25to0" />
    <linearGradient
       x1="-3.5182360e-16"
       y1="0.50000000"
       x2="1.0000000"
       y2="0.50000000"
       id="linearGradient3435"
       collect="always"
       xlink:href="#shadow25to25w" />
    <linearGradient
       x1="-0.0092250919"
       y1="0.55782312"
       x2="0.99077493"
       y2="0.55782312"
       id="linearGradient3431"
       collect="always"
       xlink:href="#sadow75to0w" />
    <linearGradient
       x1="6.8293895e-16"
       y1="0.50000000"
       x2="1.0000000"
       y2="0.50000000"
       id="linearGradient3427"
       collect="always"
       xlink:href="#shadow100to0" />
    <linearGradient
       x1="0.0036900369"
       y1="0.57142860"
       x2="1.0000000"
       y2="0.56802720"
       id="linearGradient2794"
       collect="always"
       xlink:href="#light50to25to7" />
    <linearGradient
       x1="-6.5594231e-17"
       y1="0.50000000"
       x2="1.0000000"
       y2="0.50000000"
       id="linearGradient2788"
       collect="always"
       xlink:href="#light100to25to0" />
    <linearGradient
       x1="1.2826112e-16"
       y1="0.50000000"
       x2="1.0000000"
       y2="0.50000000"
       id="linearGradient2781"
       collect="always"
       xlink:href="#light100to75to0" />
    <linearGradient
       x1="9.2265605e-17"
       y1="0.50000000"
       x2="1.0000000"
       y2="0.50000000"
       id="linearGradient2776"
       collect="always"
       xlink:href="#light75to25" />
    <linearGradient
       x1="5.6270093e-17"
       y1="0.50000000"
       x2="1.0000000"
       y2="0.50000000"
       id="linearGradient2771"
       collect="always"
       xlink:href="#light75to0" />
    <linearGradient
       x1="2.0274581e-17"
       y1="0.50000000"
       x2="1.0000000"
       y2="0.50000000"
       id="linearGradient2766"
       collect="always"
       xlink:href="#light100to0" />
    <linearGradient
       x1="-6.9931040e-18"
       y1="0.50000000"
       x2="1.0000000"
       y2="0.50000000"
       id="linearGradient2757"
       collect="always"
       xlink:href="#orangelesstoyelow" />
    <linearGradient
       x1="-1.3227267e-17"
       y1="0.50000000"
       x2="1.0000000"
       y2="0.50000000"
       id="linearGradient2756"
       collect="always"
       xlink:href="#orangemoretoyelow" />
    <linearGradient
       x1="-3.3718688e-17"
       y1="0.50000000"
       x2="1.0000000"
       y2="0.50000000"
       id="linearGradient2755"
       collect="always"
       xlink:href="#orangetoyelow" />
    <linearGradient
       id="linearGradient2754"
       collect="always"
       xlink:href="#bluelignonlinblu"
       x1="93.937141"
       y1="40.809427"
       x2="296.05616"
       y2="273.11305"
       spreadMethod="reflect"
       gradientTransform="scale(0.946821,1.056166)"
       gradientUnits="userSpaceOnUse" />
    <linearGradient
       id="orangetoyelow">
      <stop
         style="stop-color:#ff7d00;stop-opacity:1.0000000;"
         offset="0.0000000"
         id="stop2661" />
      <stop
         style="stop-color:#ffff00;stop-opacity:1.0000000;"
         offset="1.0000000"
         id="stop2662" />
    </linearGradient>
    <linearGradient
       id="orangemoretoyelow">
      <stop
         style="stop-color:#ff7d00;stop-opacity:1.0000000;"
         offset="0.0000000"
         id="stop2671" />
      <stop
         style="stop-color:#ffbe00;stop-opacity:1.0000000;"
         offset="0.74641621"
         id="stop2679" />
      <stop
         style="stop-color:#ffff00;stop-opacity:1.0000000;"
         offset="1.0000000"
         id="stop2672" />
    </linearGradient>
    <linearGradient
       id="orangelesstoyelow">
      <stop
         style="stop-color:#ff7d00;stop-opacity:1.0000000;"
         offset="0.0000000"
         id="stop2689" />
      <stop
         style="stop-color:#ffbe00;stop-opacity:1.0000000;"
         offset="0.25358382"
         id="stop2690" />
      <stop
         style="stop-color:#ffff00;stop-opacity:1.0000000;"
         offset="1.0000000"
         id="stop2691" />
    </linearGradient>
    <linearGradient
       id="orangetoblackorange">
      <stop
         style="stop-color:#ff8b00;stop-opacity:1.0000000;"
         offset="0.0000000"
         id="stop4207" />
      <stop
         style="stop-color:#4d0200;stop-opacity:1.0000000;"
         offset="1.0000000"
         id="stop4209" />
    </linearGradient>
    <linearGradient
       id="reddarktoblack">
      <stop
         style="stop-color:#8e0000;stop-opacity:1.0000000;"
         offset="0.0000000"
         id="stop3230" />
      <stop
         style="stop-color:#000000;stop-opacity:1.0000000;"
         offset="1.0000000"
         id="stop3231" />
    </linearGradient>
    <linearGradient
       id="redtodarkred">
      <stop
         style="stop-color:#ff0000;stop-opacity:1.0000000;"
         offset="0.0000000"
         id="stop3856" />
      <stop
         style="stop-color:#920000;stop-opacity:1.0000000;"
         offset="1.0000000"
         id="stop3855" />
    </linearGradient>
    <linearGradient
       id="linearGradient2483">
      <stop
         style="stop-color:#00ad01;stop-opacity:1.0000000;"
         offset="0.0000000"
         id="stop2484" />
      <stop
         style="stop-color:#15720f;stop-opacity:1.0000000;"
         offset="1.0000000"
         id="stop2485" />
    </linearGradient>
    <linearGradient
       id="greandraktoblack">
      <stop
         style="stop-color:#007c00;stop-opacity:1.0000000;"
         offset="0.0000000"
         id="stop7328" />
      <stop
         style="stop-color:#025a00;stop-opacity:1.0000000;"
         offset="1.0000000"
         id="stop7329" />
    </linearGradient>
    <linearGradient
       id="linearGradient2477">
      <stop
         style="stop-color:#00ff01;stop-opacity:1.0000000;"
         offset="0.0000000"
         id="stop2478" />
      <stop
         style="stop-color:#15980f;stop-opacity:1.0000000;"
         offset="1.0000000"
         id="stop2479" />
    </linearGradient>
    <radialGradient
       cx="38.797401"
       cy="112.96090"
       r="67.358803"
       fx="38.797401"
       fy="112.96090"
       id="bluedarktoblackblue"
       gradientUnits="userSpaceOnUse">
      <stop
         style="stop-color:#0356fe;stop-opacity:1.0000000;"
         offset="0.0000000"
         id="stop2959" />
      <stop
         style="stop-color:#032442;stop-opacity:1.0000000;"
         offset="1.0000000"
         id="stop2960" />
    </radialGradient>
    <radialGradient
       cx="38.797401"
       cy="112.96090"
       r="67.358803"
       fx="38.797401"
       fy="112.96090"
       id="blueligtmoretoblue"
       gradientUnits="userSpaceOnUse">
      <stop
         style="stop-color:#d9ffff;stop-opacity:1.0000000;"
         offset="0.0055999998"
         id="stop3457" />
      <stop
         style="stop-color:#6eaafe;stop-opacity:1.0000000;"
         offset="0.74217570"
         id="stop3465" />
      <stop
         style="stop-color:#0356fe;stop-opacity:1.0000000;"
         offset="1.0000000"
         id="stop3463" />
    </radialGradient>
    <radialGradient
       cx="38.797401"
       cy="112.96090"
       r="67.358803"
       fx="38.797401"
       fy="112.96090"
       id="bluelignonlinblu"
       gradientUnits="userSpaceOnUse">
      <stop
         style="stop-color:#d9ffff;stop-opacity:1.0000000;"
         offset="0.0055999998"
         id="stop84" />
      <stop
         style="stop-color:#95d9ff;stop-opacity:1.0000000;"
         offset="0.13480000"
         id="stop86" />
      <stop
         style="stop-color:#68b9ff;stop-opacity:1.0000000;"
         offset="0.32049999"
         id="stop88" />
      <stop
         style="stop-color:#3293fe;stop-opacity:1.0000000;"
         offset="0.56800002"
         id="stop90" />
      <stop
         style="stop-color:#107bfe;stop-opacity:1.0000000;"
         offset="0.75340003"
         id="stop92" />
      <stop
         style="stop-color:#0372fe;stop-opacity:1.0000000;"
         offset="0.85390002"
         id="stop94" />
      <stop
         style="stop-color:#0356fe;stop-opacity:1.0000000;"
         offset="1.0000000"
         id="stop96" />
    </radialGradient>
    <radialGradient
       cx="38.797401"
       cy="112.96090"
       r="67.358803"
       fx="38.797401"
       fy="112.96090"
       id="bluelightlesstoblue"
       gradientUnits="userSpaceOnUse">
      <stop
         style="stop-color:#d9ffff;stop-opacity:1.0000000;"
         offset="0.0055999998"
         id="stop3468" />
      <stop
         style="stop-color:#6eaafe;stop-opacity:1.0000000;"
         offset="0.24089479"
         id="stop3469" />
      <stop
         style="stop-color:#0356fe;stop-opacity:1.0000000;"
         offset="1.0000000"
         id="stop3470" />
    </radialGradient>
    <radialGradient
       cx="38.797401"
       cy="112.96090"
       r="67.358803"
       fx="38.797401"
       fy="112.96090"
       id="bluelighttowhite"
       gradientUnits="userSpaceOnUse">
      <stop
         style="stop-color:#69d3ff;stop-opacity:1.0000000;"
         offset="0.0055999998"
         id="stop6078" />
      <stop
         style="stop-color:#edffff;stop-opacity:1.0000000;"
         offset="1.0000000"
         id="stop6080" />
    </radialGradient>
    <linearGradient
       id="linearGradient2452">
      <stop
         style="stop-color:#ffffff;stop-opacity:1.0000000;"
         offset="0.0000000"
         id="stop2453" />
      <stop
         style="stop-color:#ffffff;stop-opacity:0.0000000;"
         offset="1.0000000"
         id="stop2454" />
    </linearGradient>
    <linearGradient
       id="linearGradient2449">
      <stop
         style="stop-color:#ffffff;stop-opacity:0.72916669;"
         offset="0.0000000"
         id="stop2450" />
      <stop
         style="stop-color:#ffffff;stop-opacity:0.0000000;"
         offset="1.0000000"
         id="stop2451" />
    </linearGradient>
    <linearGradient
       id="light75to25">
      <stop
         style="stop-color:#ffffff;stop-opacity:0.72941178;"
         offset="0.0000000"
         id="stop2774" />
      <stop
         style="stop-color:#ffffff;stop-opacity:0.26249999;"
         offset="1.0000000"
         id="stop2775" />
    </linearGradient>
    <linearGradient
       id="light100to75to0">
      <stop
         style="stop-color:#ffffff;stop-opacity:1.0000000;"
         offset="0.0000000"
         id="stop2779" />
      <stop
         style="stop-color:#ffffff;stop-opacity:0.77499998;"
         offset="0.50000000"
         id="stop2782" />
      <stop
         style="stop-color:#ffffff;stop-opacity:0.0000000;"
         offset="1.0000000"
         id="stop2780" />
    </linearGradient>
    <linearGradient
       id="light100to25to0">
      <stop
         style="stop-color:#ffffff;stop-opacity:1.0000000;"
         offset="0.0000000"
         id="stop2785" />
      <stop
         style="stop-color:#ffffff;stop-opacity:0.28749999;"
         offset="0.50000000"
         id="stop2786" />
      <stop
         style="stop-color:#ffffff;stop-opacity:0.0000000;"
         offset="1.0000000"
         id="stop2787" />
    </linearGradient>
    <linearGradient
       id="light50to25to7">
      <stop
         style="stop-color:#ffffff;stop-opacity:0.47450981;"
         offset="0.0000000"
         id="stop2791" />
      <stop
         style="stop-color:#ffffff;stop-opacity:0.25833333;"
         offset="0.50000000"
         id="stop2795" />
      <stop
         style="stop-color:#ffffff;stop-opacity:0.10833333;"
         offset="1.0000000"
         id="stop2793" />
    </linearGradient>
    <linearGradient
       id="linearGradient2431">
      <stop
         style="stop-color:#000000;stop-opacity:1.0000000;"
         offset="0.0000000"
         id="stop2432" />
      <stop
         style="stop-color:#000000;stop-opacity:0.0000000;"
         offset="1.0000000"
         id="stop2433" />
    </linearGradient>
    <linearGradient
       id="sadow75to0w">
      <stop
         style="stop-color:#000000;stop-opacity:0.72941178;"
         offset="0.0000000"
         id="stop3429" />
      <stop
         style="stop-color:#ffffff;stop-opacity:0.0000000;"
         offset="1.0000000"
         id="stop3430" />
    </linearGradient>
    <linearGradient
       id="shadow25to25w">
      <stop
         style="stop-color:#000000;stop-opacity:0.25416666;"
         offset="0.0000000"
         id="stop3433" />
      <stop
         style="stop-color:#ffffff;stop-opacity:0.26274511;"
         offset="1.0000000"
         id="stop3434" />
    </linearGradient>
    <linearGradient
       id="shadow0wto25to0">
      <stop
         style="stop-color:#ffffff;stop-opacity:0.0000000;"
         offset="0.0000000"
         id="stop3437" />
      <stop
         style="stop-color:#000000;stop-opacity:0.27916667;"
         offset="0.50000000"
         id="stop3438" />
      <stop
         style="stop-color:#000000;stop-opacity:0.0000000;"
         offset="1.0000000"
         id="stop3439" />
    </linearGradient>
    <linearGradient
       id="shadow25tolineto0">
      <stop
         style="stop-color:#000000;stop-opacity:0.25490198;"
         offset="0.0000000"
         id="stop3442" />
      <stop
         style="stop-color:#000000;stop-opacity:0.029166667;"
         offset="0.45393065"
         id="stop3450" />
      <stop
         style="stop-color:#000000;stop-opacity:0.37083334;"
         offset="0.50000000"
         id="stop3449" />
      <stop
         style="stop-color:#000000;stop-opacity:0.062745102;"
         offset="0.53497112"
         id="stop3451" />
      <stop
         style="stop-color:#000000;stop-opacity:0.0000000;"
         offset="1.0000000"
         id="stop3444" />
    </linearGradient>
    <linearGradient
       id="graytoblack">
      <stop
         style="stop-color:#7d7d7d;stop-opacity:1.0000000;"
         offset="0.0000000"
         id="stop5097" />
      <stop
         style="stop-color:#000000;stop-opacity:1.0000000;"
         offset="1.0000000"
         id="stop5098" />
    </linearGradient>
    <linearGradient
       id="graytolightgray">
      <stop
         style="stop-color:#d4d3d3;stop-opacity:1.0000000;"
         offset="0.0000000"
         id="stop5101" />
      <stop
         style="stop-color:#ffffff;stop-opacity:1.0000000;"
         offset="1.0000000"
         id="stop5102" />
    </linearGradient>
    <linearGradient
       id="garylighttowite">
      <stop
         style="stop-color:#7d7d7d;stop-opacity:1.0000000;"
         offset="0.0000000"
         id="stop5106" />
      <stop
         style="stop-color:#d3d4d4;stop-opacity:1.0000000;"
         offset="1.0000000"
         id="stop5107" />
    </linearGradient>
    <linearGradient
       id="blacktowhite">
      <stop
         style="stop-color:#000000;stop-opacity:1.0000000;"
         offset="0.0000000"
         id="stop2476" />
      <stop
         style="stop-color:#ffffff;stop-opacity:1.0000000;"
         offset="1.0000000"
         id="stop2475" />
    </linearGradient>
  </defs>
  <sodipodi:namedview
     id="base"
     pagecolor="#ffffff"
     bordercolor="#666666"
     borderopacity="1.0"
     inkscape:pageopacity="0.0"
     inkscape:pageshadow="2"
     inkscape:zoom="5.9218750"
     inkscape:cx="32.000000"
     inkscape:cy="32.000000"
     inkscape:current-layer="svg3854"
     showgrid="false"
     inkscape:grid-bbox="false"
     gridspacingy="1.0000000pt"
     gridspacingx="1.0000000pt"
     gridoriginy="0.0000000pt"
     gridoriginx="0.0000000pt"
     inkscape:window-width="1280"
     inkscape:window-height="904"
     inkscape:window-x="0"
     inkscape:window-y="25" />
  <metadata
     id="metadata4">
    <rdf:RDF
       id="RDF5">
      <cc:Work
         rdf:about=""
         id="Work6">
        <dc:format
           id="format7">image/svg+xml</dc:format>
        <dc:type
           id="type9"
           rdf:resource="http://purl.org/dc/dcmitype/StillImage" />
      </cc:Work>
    </rdf:RDF>
  </metadata>
  <g
     id="layer1"
     inkscape:label="Layer 1"
     inkscape:groupmode="layer">
    <g
       id="g9372"
       transform="matrix(8.119923e-2,0.000000,0.000000,8.099856e-2,42.33554,49.46790)">
      <path
         style="fill:url(#linearGradient2518);fill-opacity:1.0000000;stroke:url(#radialGradient9371);stroke-width:9.5625000;stroke-linecap:butt;stroke-linejoin:round;stroke-miterlimit:4.0000000;stroke-dashoffset:0.0000000;stroke-opacity:1.0000000"
         d="M 142.81029,27.138041 C 136.85424,27.138041 132.06029,32.533741 132.06029,39.231791 L 132.06029,128.16929 L 34.935285,128.16929 C 28.979239,128.16929 24.185285,133.53373 24.185285,140.23179 L 24.185285,223.04429 C 24.185285,229.74234 28.979240,235.13804 34.935285,235.13804 L 132.06029,235.13804 L 132.06029,329.20054 C 132.06029,335.89859 136.85424,341.29428 142.81029,341.29429 L 221.27904,341.29429 C 227.23509,341.29429 232.02904,335.89859 232.02904,329.20054 L 232.02904,235.13804 L 327.49779,235.13804 C 333.45384,235.13804 338.24777,229.74234 338.24779,223.04429 L 338.24779,140.23179 C 338.24779,133.53374 333.45384,128.16929 327.49779,128.16929 L 232.02904,128.16929 L 232.02904,39.231791 C 232.02904,32.533739 227.23509,27.138041 221.27904,27.138041 L 142.81029,27.138041 z "
         id="rect1266" />
      <path
         style="fill:url(#radialGradient3143);fill-opacity:1.0000000;stroke:none;stroke-width:12.937500;stroke-linecap:butt;stroke-linejoin:round;stroke-miterlimit:4.0000000;stroke-dashoffset:0.0000000;stroke-opacity:1.0000000"
         d="M 142.81028,27.138041 C 136.85423,27.138041 132.06028,32.533741 132.06028,39.231791 L 132.06028,128.16929 L 34.935285,128.16929 C 28.979239,128.16929 24.185285,133.53373 24.185285,140.23179 L 24.185285,223.04429 C 24.185285,229.74234 28.979240,235.13804 34.935285,235.13804 L 136.13160,235.13804 L 136.13160,326.75775 C 136.13160,333.45580 140.92555,338.85149 146.88160,338.85150 L 218.83624,339.66576 C 224.79229,339.66576 229.58624,334.27006 229.58624,327.57201 L 231.21477,234.32378 L 327.49778,235.13804 C 333.45383,235.13804 338.24776,229.74234 338.24778,223.04429 L 338.24778,140.23179 C 338.24778,133.53374 333.45383,128.16929 327.49778,128.16929 L 232.02903,128.16929 L 232.02903,39.231791 C 232.02903,32.533739 227.23508,27.138041 221.27903,27.138041 L 142.81028,27.138041 z "
         id="path2519"
         sodipodi:nodetypes="ccccccccccccccccccccc" />
      <path
         style="fill:url(#linearGradient4390);fill-opacity:1.0000000;fill-rule:evenodd;stroke:none;stroke-width:0.25000000pt;stroke-linecap:butt;stroke-linejoin:miter;stroke-opacity:1.0000000"
         d="M 231.94349,127.15556 C 231.63142,98.548663 231.31935,69.941780 231.00728,41.334896 C 232.94788,36.828352 226.74583,29.879013 222.17231,30.258057 C 195.58974,30.529478 171.44996,30.800900 144.86739,31.072321 C 138.06511,30.421856 133.70562,36.285508 134.23172,41.334896 C 134.50314,70.862454 133.96031,100.39002 134.23173,129.91758 C 102.07246,129.91758 70.727455,129.91758 38.568185,129.91758 C 30.828485,130.93751 26.345843,140.91434 27.563054,147.63412 C 27.834476,171.25617 28.105897,172.89306 28.377319,196.51511 C 30.277271,232.02232 235.74339,170.63203 231.94349,127.15556 z "
         id="path3765"
         sodipodi:nodetypes="cccccccccc" />
    </g>
    <path
       style="font-size:12.000000;font-style:normal;font-weight:normal;fill:url(#linearGradient2479);fill-opacity:1.0000000;stroke:none;stroke-width:2.8029814;stroke-linecap:butt;stroke-linejoin:round;stroke-miterlimit:4.0000000;stroke-opacity:1.0000000;font-family:Bitstream Vera Sans"
       d="M 2.7248795,45.382817 C 4.1420988,45.382817 5.5593180,45.382817 6.9765373,45.382817 C 6.9765373,46.312175 6.9765373,47.241532 6.9765373,48.170889 L 3.6719255,53.358020 L 1.0725850,53.358020 L 2.7248795,48.170889 C 2.7248795,47.241532 2.7248795,46.312175 2.7248795,45.382817 M 19.889715,27.279770 C 17.794103,27.279799 16.215689,28.111903 15.154461,29.776069 C 14.106655,31.429501 13.582758,33.920397 13.582758,37.248785 C 13.582758,40.566383 14.106655,43.057279 15.154461,44.721473 C 16.215689,46.374863 17.794103,47.201565 19.889715,47.201565 C 21.998737,47.201565 23.577151,46.374863 24.624968,44.721473 C 25.686184,43.057279 26.216793,40.566383 26.216816,37.248785 C 26.216793,33.920397 25.686184,31.429501 24.624968,29.776069 C 23.577151,28.111903 21.998737,27.279799 19.889715,27.279770 M 19.889715,24.686219 C 23.261472,24.686248 25.833945,25.761478 27.607167,27.911966 C 29.393777,30.051664 30.287099,33.163937 30.287122,37.248785 C 30.287099,41.322814 29.393777,44.435087 27.607167,46.585604 C 25.833945,48.725274 23.261472,49.795116 19.889715,49.795116 C 16.517945,49.795116 13.938738,48.725274 12.152105,46.585604 C 10.378906,44.435087 9.4923060,41.322814 9.4923060,37.248785 C 9.4923060,33.163937 10.378906,30.051664 12.152105,27.911966 C 13.938738,25.761478 16.517945,24.686248 19.889715,24.686219 M 44.310746,27.279770 C 42.215134,27.279799 40.636721,28.111903 39.575492,29.776069 C 38.527687,31.429501 38.003790,33.920397 38.003790,37.248785 C 38.003790,40.566383 38.527687,43.057279 39.575492,44.721473 C 40.636721,46.374863 42.215134,47.201565 44.310746,47.201565 C 46.419768,47.201565 47.998182,46.374863 49.045999,44.721473 C 50.107216,43.057279 50.637836,40.566383 50.637847,37.248785 C 50.637836,33.920397 50.107216,31.429501 49.045999,29.776069 C 47.998182,28.111903 46.419768,27.279799 44.310746,27.279770 M 44.310746,24.686219 C 47.682504,24.686248 50.254977,25.761478 52.028199,27.911966 C 53.814808,30.051664 54.708131,33.163937 54.708154,37.248785 C 54.708131,41.322814 53.814808,44.435087 52.028199,46.585604 C 50.254977,48.725274 47.682504,49.795116 44.310746,49.795116 C 40.938965,49.795116 38.359769,48.725274 36.573148,46.585604 C 34.799938,44.435087 33.913338,41.322814 33.913338,37.248785 C 33.913338,33.163937 34.799938,30.051664 36.573148,27.911966 C 38.359769,25.761478 40.938965,24.686248 44.310746,24.686219"
       id="path2473"
       sodipodi:nodetypes="ccccccccccccccccccccccccccccccccccccccccccc" />
    <path
       style="font-size:12.000000;font-style:normal;font-weight:normal;fill:url(#linearGradient2472);fill-opacity:1.0000000;stroke:url(#linearGradient3104);stroke-width:0.58369237;stroke-linecap:butt;stroke-linejoin:round;stroke-miterlimit:4.0000000;stroke-opacity:1.0000000;font-family:Bitstream Vera Sans"
       d="M 68.941382,27.885411 C 66.845771,27.885440 65.267345,28.717544 64.206129,30.381709 C 63.158323,32.035142 62.634415,34.526038 62.634426,37.854426 C 62.634415,41.172024 63.158323,43.662920 64.206129,45.327114 C 65.267345,46.980503 66.845771,47.807205 68.941382,47.807205 C 71.050393,47.807205 72.628818,46.980503 73.676624,45.327114 C 74.737841,43.662920 75.268460,41.172024 75.268483,37.854426 C 75.268460,34.526038 74.737841,32.035142 73.676624,30.381709 C 72.628818,28.717544 71.050393,27.885440 68.941382,27.885411 M 68.941382,25.291846 C 72.313129,25.291874 74.885613,26.367119 76.658835,28.517607 C 78.445445,30.657305 79.338755,33.769578 79.338790,37.854426 C 79.338755,41.928455 78.445445,45.040728 76.658835,47.191245 C 74.885613,49.330915 72.313129,50.400757 68.941382,50.400757 C 65.569601,50.400757 62.990406,49.330915 61.203773,47.191245 C 59.430574,45.040728 58.543963,41.928455 58.543974,37.854426 C 58.543963,33.769578 59.430574,30.657305 61.203773,28.517607 C 62.990406,26.367119 65.569601,25.291874 68.941382,25.291846"
       id="path1841"
       sodipodi:nodetypes="cccccccccccccccccc" />
    <path
       style="font-size:12.000000;font-style:normal;font-weight:normal;fill:#000000;fill-opacity:1.0000000;stroke:#000000;stroke-width:0.58369237;stroke-linecap:butt;stroke-linejoin:round;stroke-miterlimit:4.0000000;stroke-opacity:1.0000000;font-family:Bitstream Vera Sans"
       d="M 2.7248795,45.382817 C 4.1420988,45.382817 5.5593180,45.382817 6.9765373,45.382817 C 6.9765373,46.312175 6.9765373,47.241532 6.9765373,48.170889 L 3.6719255,53.358020 L 1.0725850,53.358020 L 2.7248795,48.170889 C 2.7248795,47.241532 2.7248795,46.312175 2.7248795,45.382817 M 19.889715,27.279770 C 17.794103,27.279799 16.215689,28.111903 15.154461,29.776069 C 14.106655,31.429501 13.582758,33.920397 13.582758,37.248785 C 13.582758,40.566383 14.106655,43.057279 15.154461,44.721473 C 16.215689,46.374863 17.794103,47.201565 19.889715,47.201565 C 21.998737,47.201565 23.577151,46.374863 24.624968,44.721473 C 25.686184,43.057279 26.216793,40.566383 26.216816,37.248785 C 26.216793,33.920397 25.686184,31.429501 24.624968,29.776069 C 23.577151,28.111903 21.998737,27.279799 19.889715,27.279770 M 19.889715,24.686219 C 23.261472,24.686248 25.833945,25.761478 27.607167,27.911966 C 29.393777,30.051664 30.287099,33.163937 30.287122,37.248785 C 30.287099,41.322814 29.393777,44.435087 27.607167,46.585604 C 25.833945,48.725274 23.261472,49.795116 19.889715,49.795116 C 16.517945,49.795116 13.938738,48.725274 12.152105,46.585604 C 10.378906,44.435087 9.4923060,41.322814 9.4923060,37.248785 C 9.4923060,33.163937 10.378906,30.051664 12.152105,27.911966 C 13.938738,25.761478 16.517945,24.686248 19.889715,24.686219 M 44.310746,27.279770 C 42.215134,27.279799 40.636721,28.111903 39.575492,29.776069 C 38.527687,31.429501 38.003790,33.920397 38.003790,37.248785 C 38.003790,40.566383 38.527687,43.057279 39.575492,44.721473 C 40.636721,46.374863 42.215134,47.201565 44.310746,47.201565 C 46.419768,47.201565 47.998182,46.374863 49.045999,44.721473 C 50.107216,43.057279 50.637836,40.566383 50.637847,37.248785 C 50.637836,33.920397 50.107216,31.429501 49.045999,29.776069 C 47.998182,28.111903 46.419768,27.279799 44.310746,27.279770 M 44.310746,24.686219 C 47.682504,24.686248 50.254977,25.761478 52.028199,27.911966 C 53.814808,30.051664 54.708131,33.163937 54.708154,37.248785 C 54.708131,41.322814 53.814808,44.435087 52.028199,46.585604 C 50.254977,48.725274 47.682504,49.795116 44.310746,49.795116 C 40.938965,49.795116 38.359769,48.725274 36.573148,46.585604 C 34.799938,44.435087 33.913338,41.322814 33.913338,37.248785 C 33.913338,33.163937 34.799938,30.051664 36.573148,27.911966 C 38.359769,25.761478 40.938965,24.686248 44.310746,24.686219"
       id="text1214"
       sodipodi:nodetypes="ccccccccccccccccccccccccccccccccccccccccccc" />
  </g>
</svg>
