<?xml version="1.0" encoding="UTF-8" standalone="no"?>
<!-- Created with Inkscape (http://www.inkscape.org/) -->
<svg
   xmlns:dc="http://purl.org/dc/elements/1.1/"
   xmlns:cc="http://web.resource.org/cc/"
   xmlns:rdf="http://www.w3.org/1999/02/22-rdf-syntax-ns#"
   xmlns:svg="http://www.w3.org/2000/svg"
   xmlns="http://www.w3.org/2000/svg"
   xmlns:xlink="http://www.w3.org/1999/xlink"
   xmlns:sodipodi="http://inkscape.sourceforge.net/DTD/sodipodi-0.dtd"
   xmlns:inkscape="http://www.inkscape.org/namespaces/inkscape"
   inkscape:export-ydpi="45.000000"
   inkscape:export-xdpi="45.000000"
   inkscape:export-filename="/home/pinheiro/kdeplayground-artwork/oooicons/crystalsvg/addons.png"
   sodipodi:docname="addons.svg"
   sodipodi:docbase="/home/pinheiro/kdeplayground-artwork/oooicons/crystalsvg"
   inkscape:version="0.41"
   sodipodi:version="0.32"
   id="svg13489"
   height="64px"
   width="64px">
  <defs
     id="defs3">
    <linearGradient
       y2="63.798473"
       x2="24.747580"
       y1="53.844978"
       x1="23.703415"
       gradientTransform="matrix(1.262628,0.000000,0.000000,0.471567,7.495518,9.392633)"
       gradientUnits="userSpaceOnUse"
       id="linearGradient13472"
       xlink:href="#light100to0"
       inkscape:collect="always" />
    <linearGradient
       y2="91.407700"
       x2="33.332001"
       y1="10.305200"
       x1="33.332001"
       gradientUnits="userSpaceOnUse"
       id="bludraktowhite">
      <linearGradient
         xlink:href="#linearGradient8046"
         spreadMethod="pad"
         y2="91.407700"
         x2="33.332001"
         y1="10.305200"
         x1="33.332001"
         gradientUnits="userSpaceOnUse"
         id="bluedrklighttowite" />
      <stop
         id="stop7271"
         style="stop-color:rgb(255,255,255)"
         offset="0" />
      <stop
         id="stop7273"
         style="stop-color:rgb(84,84,119)"
         offset="1" />
    </linearGradient>
    <linearGradient
       y2="40.287086"
       x2="40.370377"
       y1="46.674038"
       x1="42.046078"
       spreadMethod="reflect"
       gradientTransform="scale(1.004811,0.995212)"
       gradientUnits="userSpaceOnUse"
       id="linearGradient13470"
       xlink:href="#bludraktowhite"
       inkscape:collect="always" />
    <radialGradient
       r="7.4279656"
       fy="48.339390"
       fx="35.641743"
       cy="48.339390"
       cx="35.641743"
       gradientTransform="scale(1.107565,0.902882)"
       gradientUnits="userSpaceOnUse"
       id="radialGradient13468"
       xlink:href="#light100to0"
       inkscape:collect="always" />
    <radialGradient
       r="13.804911"
       fy="54.907635"
       fx="34.972626"
       cy="54.987625"
       cx="34.972641"
       spreadMethod="pad"
       gradientTransform="scale(1.107565,0.902882)"
       gradientUnits="userSpaceOnUse"
       id="radialGradient13466"
       xlink:href="#linearGradient8046"
       inkscape:collect="always" />
    <linearGradient
       id="light100to0">
      <stop
         id="stop2764"
         offset="0.0000000"
         style="stop-color:#ffffff;stop-opacity:1.0000000;" />
      <stop
         id="stop2765"
         offset="1.0000000"
         style="stop-color:#ffffff;stop-opacity:0.0000000;" />
    </linearGradient>
    <radialGradient
       r="4.7245793"
       fy="42.695652"
       fx="37.279381"
       cy="42.695652"
       cx="37.279381"
       gradientTransform="matrix(0.966527,0.000000,0.000000,1.005880,2.211771e-15,1.113306)"
       gradientUnits="userSpaceOnUse"
       id="radialGradient13464"
       xlink:href="#light100to0"
       inkscape:collect="always" />
    <linearGradient
       y2="42.939236"
       x2="35.016563"
       y1="39.639702"
       x1="44.882698"
       gradientTransform="matrix(0.966527,0.000000,0.000000,1.005880,2.211771e-15,1.113306)"
       gradientUnits="userSpaceOnUse"
       id="linearGradient13462"
       xlink:href="#linearGradient8046"
       inkscape:collect="always" />
    <linearGradient
       id="linearGradient8046">
      <stop
         id="stop8050"
         style="stop-color:#ffffff;stop-opacity:1.0000000;"
         offset="0.0000000" />
      <stop
         id="stop8048"
         style="stop-color:#a9a9bb;stop-opacity:1.0000000;"
         offset="1.0000000" />
    </linearGradient>
    <linearGradient
       y2="41.449829"
       x2="41.643684"
       y1="41.000168"
       x1="39.784161"
       gradientTransform="scale(1.004811,0.995212)"
       gradientUnits="userSpaceOnUse"
       id="linearGradient13460"
       xlink:href="#linearGradient8046"
       inkscape:collect="always" />
  </defs>
  <sodipodi:namedview
     inkscape:window-y="71"
     inkscape:window-x="339"
     inkscape:window-height="630"
     inkscape:window-width="822"
     inkscape:grid-bbox="true"
     inkscape:document-units="px"
     showgrid="true"
     inkscape:current-layer="layer1"
     inkscape:cy="24.392095"
     inkscape:cx="32.000000"
     inkscape:zoom="5.5000000"
     inkscape:pageshadow="2"
     inkscape:pageopacity="0.0"
     borderopacity="1.0"
     bordercolor="#666666"
     pagecolor="#ffffff"
     id="base" />
  <metadata
     id="metadata4">
    <rdf:RDF
       id="RDF5">
      <cc:Work
         id="Work6"
         rdf:about="">
        <dc:format
           id="format7">image/svg+xml</dc:format>
        <dc:type
           rdf:resource="http://purl.org/dc/dcmitype/StillImage"
           id="type9" />
      </cc:Work>
    </rdf:RDF>
  </metadata>
  <g
     inkscape:groupmode="layer"
     inkscape:label="Layer 1"
     id="layer1">
    <g
       transform="matrix(5.117284,0.000000,0.000000,4.505390,-182.8548,-157.4539)"
       id="g13474">
      <path
         sodipodi:nodetypes="ccccccc"
         id="path11919"
         d="M 41.562500,36.031250 C 40.126384,37.451161 37.561343,38.821464 36.312500,40.125000 C 36.276848,40.532180 36.308666,41.378156 36.312500,41.750000 C 38.117264,43.749375 41.038987,45.250548 42.843750,47.187500 C 44.478792,45.493057 45.615335,42.475694 47.562500,40.781250 C 47.563042,40.520400 47.533831,39.786886 47.562500,39.250000 C 45.309112,38.360486 43.566190,36.746199 41.562500,36.031250 z "
         style="fill:none;fill-opacity:1.0000000;fill-rule:evenodd;stroke:#000000;stroke-width:0.80000001;stroke-linecap:round;stroke-linejoin:round;stroke-miterlimit:4.0000000;stroke-opacity:0.072398193" />
      <path
         sodipodi:nodetypes="ccccccc"
         id="path11917"
         d="M 41.562500,36.031250 C 40.126384,37.451161 37.561343,38.821464 36.312500,40.125000 C 36.276848,40.532180 36.308666,41.378156 36.312500,41.750000 C 38.117264,43.749375 41.038987,45.250548 42.843750,47.187500 C 44.478792,45.493057 45.615335,42.475694 47.562500,40.781250 C 47.563042,40.520400 47.533831,39.786886 47.562500,39.250000 C 45.309112,38.360486 43.566190,36.746199 41.562500,36.031250 z "
         style="fill:none;fill-opacity:1.0000000;fill-rule:evenodd;stroke:#400045;stroke-width:0.89999998;stroke-linecap:round;stroke-linejoin:round;stroke-miterlimit:4.0000000;stroke-opacity:0.072398193" />
      <path
         sodipodi:nodetypes="ccccccc"
         id="path11915"
         d="M 41.562500,36.031250 C 40.126384,37.451161 37.561343,38.821464 36.312500,40.125000 C 36.276848,40.532180 36.308666,41.378156 36.312500,41.750000 C 38.117264,43.749375 41.038987,45.250548 42.843750,47.187500 C 44.478792,45.493057 45.615335,42.475694 47.562500,40.781250 C 47.563042,40.520400 47.533831,39.786886 47.562500,39.250000 C 45.309112,38.360486 43.566190,36.746199 41.562500,36.031250 z "
         style="fill:none;fill-opacity:1.0000000;fill-rule:evenodd;stroke:#5c2d7b;stroke-width:1.0000000;stroke-linecap:round;stroke-linejoin:round;stroke-miterlimit:4.0000000;stroke-opacity:0.072398193" />
      <path
         sodipodi:nodetypes="ccccccc"
         id="path11145"
         d="M 41.562500,36.031250 C 40.126384,37.451161 37.561343,38.821464 36.312500,40.125000 C 36.276848,40.532180 36.308666,41.378156 36.312500,41.750000 C 38.117264,43.749375 41.038987,45.250548 42.843750,47.187500 C 44.478792,45.493057 45.615335,42.475694 47.562500,40.781250 C 47.563042,40.520400 47.533831,39.786886 47.562500,39.250000 C 45.309112,38.360486 43.566190,36.746199 41.562500,36.031250 z "
         style="fill:none;fill-opacity:1.0000000;fill-rule:evenodd;stroke:#5c2d7b;stroke-width:1.2000000;stroke-linecap:round;stroke-linejoin:round;stroke-miterlimit:4.0000000;stroke-opacity:0.072398193" />
      <path
         sodipodi:nodetypes="ccccccc"
         id="path11921"
         d="M 41.562500,36.031250 C 40.126384,37.451161 37.561343,38.821464 36.312500,40.125000 C 36.276848,40.532180 36.308666,41.378156 36.312500,41.750000 C 38.117264,43.749375 41.038987,45.250548 42.843750,47.187500 C 44.478792,45.493057 45.615335,42.475694 47.562500,40.781250 C 47.563042,40.520400 47.533831,39.786886 47.562500,39.250000 C 45.309112,38.360486 43.566190,36.746199 41.562500,36.031250 z "
         style="fill:none;fill-opacity:1.0000000;fill-rule:evenodd;stroke:#000000;stroke-width:0.69999999;stroke-linecap:round;stroke-linejoin:round;stroke-miterlimit:4.0000000;stroke-opacity:0.072398193" />
      <path
         sodipodi:nodetypes="ccccccc"
         id="path11923"
         d="M 41.562500,36.031250 C 40.126384,37.451161 37.561343,38.821464 36.312500,40.125000 C 36.276848,40.532180 36.308666,41.378156 36.312500,41.750000 C 38.117264,43.749375 41.038987,45.250548 42.843750,47.187500 C 44.478792,45.493057 45.615335,42.475694 47.562500,40.781250 C 47.563042,40.520400 47.533831,39.786886 47.562500,39.250000 C 45.309112,38.360486 43.566190,36.746199 41.562500,36.031250 z "
         style="fill:none;fill-opacity:1.0000000;fill-rule:evenodd;stroke:#000000;stroke-width:0.60000002;stroke-linecap:round;stroke-linejoin:round;stroke-miterlimit:4.0000000;stroke-opacity:0.072398193" />
      <path
         sodipodi:nodetypes="ccccccc"
         id="path12683"
         d="M 41.562500,36.031250 C 40.126384,37.451161 37.561343,38.821464 36.312500,40.125000 C 36.276848,40.532180 36.308666,41.378156 36.312500,41.750000 C 38.117264,43.749375 41.038987,45.250548 42.843750,47.187500 C 44.478792,45.493057 45.615335,42.475694 47.562500,40.781250 C 47.563042,40.520400 47.533831,39.786886 47.562500,39.250000 C 45.309112,38.360486 43.566190,36.746199 41.562500,36.031250 z "
         style="fill:none;fill-opacity:1.0000000;fill-rule:evenodd;stroke:#000000;stroke-width:0.50000000;stroke-linecap:round;stroke-linejoin:round;stroke-miterlimit:4.0000000;stroke-opacity:0.072398193" />
      <g
         transform="translate(3.882160,-0.151253)"
         id="g13453">
        <path
           sodipodi:nodetypes="ccccccc"
           id="path5712"
           d="M 37.562500,36.031250 C 36.126384,37.451161 33.561343,38.821464 32.312500,40.125000 C 32.276848,40.532180 32.308666,41.378156 32.312500,41.750000 C 34.117264,43.749375 37.038987,45.250548 38.843750,47.187500 C 40.478792,45.493057 41.615335,42.475694 43.562500,40.781250 C 43.563042,40.520400 43.533831,39.786886 43.562500,39.250000 C 41.309112,38.360486 39.566190,36.746199 37.562500,36.031250 z "
           style="fill:url(#linearGradient13460);fill-opacity:1.0000000;fill-rule:evenodd;stroke:#000000;stroke-width:0.30000001;stroke-linecap:round;stroke-linejoin:round;stroke-miterlimit:4.0000000;stroke-opacity:1.0000000" />
        <path
           sodipodi:nodetypes="ccccc"
           id="path5724"
           d="M 38.838255,45.171702 C 38.348109,44.183127 33.718256,41.893437 32.304324,40.121888 C 32.271867,40.525908 32.303245,41.323724 32.307005,41.678282 C 34.111768,43.622093 37.033492,45.444750 38.838255,46.964673 C 38.862732,46.068905 38.862733,45.796951 38.838255,45.171702 z "
           style="stroke-dasharray:none;stroke-opacity:1.0000000;stroke-miterlimit:4.0000000;stroke-linejoin:round;stroke-linecap:round;stroke-width:0.27074310;stroke:url(#radialGradient13464);fill-rule:evenodd;fill-opacity:1.0000000;fill:url(#linearGradient13462)" />
        <path
           sodipodi:nodetypes="ccccc"
           id="path5707"
           d="M 37.551216,36.045781 C 39.554906,36.760729 41.308897,38.348503 43.562285,39.238017 C 41.615121,40.817475 40.479476,43.618888 38.844434,45.198346 C 37.039670,43.392837 34.111263,41.994647 32.306499,40.130950 C 33.555342,38.827415 36.115100,37.465692 37.551216,36.045781 z "
           style="fill:url(#radialGradient13466);fill-opacity:1.0000000;fill-rule:evenodd;stroke:url(#radialGradient13468);stroke-width:0.090000004;stroke-linecap:round;stroke-linejoin:round;stroke-miterlimit:4.0000000;stroke-opacity:1.0000000" />
        <path
           sodipodi:nodetypes="ccccccc"
           id="path8851"
           d="M 37.562500,36.031250 C 36.126384,37.451161 33.561343,38.821464 32.312500,40.125000 C 32.276848,40.532180 32.308666,41.378156 32.312500,41.750000 C 34.117264,43.749375 37.038987,45.250548 38.843750,47.187500 C 40.478792,45.493057 41.615335,42.475694 43.562500,40.781250 C 43.563042,40.520400 43.533831,39.786886 43.562500,39.250000 C 41.309112,38.360486 39.566190,36.746199 37.562500,36.031250 z "
           style="fill:none;fill-opacity:1.0000000;fill-rule:evenodd;stroke:url(#linearGradient13470);stroke-width:0.30000001;stroke-linecap:round;stroke-linejoin:round;stroke-miterlimit:4.0000000;stroke-opacity:1.0000000" />
        <path
           sodipodi:nodetypes="cssczc"
           id="path9619"
           d="M 42.207680,38.587178 C 40.740730,37.856478 39.240188,36.675291 37.889784,36.221523 C 37.753201,36.175628 37.490670,36.195869 37.403619,36.292498 C 36.753811,37.013795 34.536694,38.424372 33.767327,39.111280 C 34.554452,39.986627 36.573627,37.781442 38.014762,37.692725 C 39.455896,37.604007 40.702880,39.675447 42.207680,38.587178 z "
           style="fill:url(#linearGradient13472);fill-opacity:1.0000000;fill-rule:evenodd;stroke:#000000;stroke-width:0.0000000;stroke-linecap:butt;stroke-linejoin:miter;stroke-miterlimit:4.0000000;stroke-opacity:1.0000000" />
      </g>
    </g>
  </g>
</svg>
