<?xml version="1.0" encoding="UTF-8" standalone="no"?>
<!-- Created with Inkscape (http://www.inkscape.org/) -->
<svg
   xmlns:dc="http://purl.org/dc/elements/1.1/"
   xmlns:cc="http://web.resource.org/cc/"
   xmlns:rdf="http://www.w3.org/1999/02/22-rdf-syntax-ns#"
   xmlns:svg="http://www.w3.org/2000/svg"
   xmlns="http://www.w3.org/2000/svg"
   xmlns:xlink="http://www.w3.org/1999/xlink"
   xmlns:sodipodi="http://inkscape.sourceforge.net/DTD/sodipodi-0.dtd"
   xmlns:inkscape="http://www.inkscape.org/namespaces/inkscape"
   inkscape:export-ydpi="18.000000"
   inkscape:export-xdpi="18.000000"
   inkscape:export-filename="/home/nuno/kdeplayground-artwork/oooicons/crystalsvg/zoom_window.png"
   sodipodi:docname="zoom_window.svg"
   sodipodi:docbase="/home/nuno/kdeplayground-artwork/oooicons/crystalsvg"
   inkscape:version="0.41"
   sodipodi:version="0.32"
   id="svg16513"
   height="64pt"
   width="64pt">
  <defs
     id="defs3">
    <radialGradient
       r="9.7014513"
       fy="268.59674"
       fx="188.63550"
       cy="268.59674"
       cx="188.63550"
       gradientTransform="scale(1.091687,0.916013)"
       gradientUnits="userSpaceOnUse"
       id="radialGradient16512"
       xlink:href="#light100to0"
       inkscape:collect="always" />
    <radialGradient
       r="12.433510"
       fy="290.09976"
       fx="214.42342"
       cy="290.09976"
       cx="214.42342"
       gradientTransform="scale(1.091687,0.916013)"
       gradientUnits="userSpaceOnUse"
       id="radialGradient16511"
       xlink:href="#light100to0"
       inkscape:collect="always" />
    <radialGradient
       r="19.273544"
       fy="189.74400"
       fx="119.82000"
       cy="189.74400"
       cx="119.82000"
       gradientTransform="matrix(1.000044,-1.392751e-16,2.663872e-16,0.999956,2.867499,4.411538)"
       gradientUnits="userSpaceOnUse"
       id="radialGradient16510"
       xlink:href="#light100to0"
       inkscape:collect="always" />
    <linearGradient
       id="light100to0">
      <stop
         id="stop2764"
         offset="0.0000000"
         style="stop-color:#ffffff;stop-opacity:1.0000000;" />
      <stop
         id="stop2765"
         offset="1.0000000"
         style="stop-color:#ffffff;stop-opacity:0.0000000;" />
    </linearGradient>
    <radialGradient
       r="39.210377"
       fy="213.82373"
       fx="138.89362"
       cy="213.82373"
       cx="138.89362"
       gradientTransform="matrix(1.000008,-1.392702e-16,2.663964e-16,0.999992,2.867499,4.411538)"
       gradientUnits="userSpaceOnUse"
       id="radialGradient16509"
       xlink:href="#light100to0"
       inkscape:collect="always" />
    <linearGradient
       y2="96.393501"
       x2="74.079002"
       y1="16.026899"
       x1="46.857899"
       gradientTransform="translate(105.3574,127.9028)"
       gradientUnits="userSpaceOnUse"
       id="linearGradient16508"
       xlink:href="#bludraktowhite"
       inkscape:collect="always" />
    <linearGradient
       y2="328.53357"
       x2="-20.139322"
       y1="162.89215"
       x1="35.909039"
       gradientTransform="translate(130.5820,-13.89784)"
       gradientUnits="userSpaceOnUse"
       id="linearGradient16507"
       xlink:href="#bludraktowhite"
       inkscape:collect="always" />
    <linearGradient
       y2="224.47372"
       x2="82.103157"
       y1="231.74817"
       x1="73.415047"
       spreadMethod="reflect"
       gradientTransform="matrix(0.694498,0.721211,-0.684455,0.729107,202.5721,-11.25625)"
       gradientUnits="userSpaceOnUse"
       id="linearGradient16506"
       xlink:href="#bludraktowhite"
       inkscape:collect="always" />
    <linearGradient
       y2="-135.79361"
       x2="-218.18871"
       y1="-112.04543"
       x1="-216.41075"
       spreadMethod="reflect"
       gradientTransform="matrix(-7.139059e-3,-1.025530,0.975067,-5.544949e-3,202.5721,-11.25625)"
       gradientUnits="userSpaceOnUse"
       id="linearGradient16505"
       xlink:href="#bludraktowhite"
       inkscape:collect="always" />
    <linearGradient
       id="light90to0">
      <stop
         id="stop1890"
         offset="0.0000000"
         style="stop-color:#ffffff;stop-opacity:0.90833336;" />
      <stop
         id="stop1892"
         offset="1.0000000"
         style="stop-color:#ffffff;stop-opacity:0.0000000;" />
    </linearGradient>
    <linearGradient
       y2="367.41110"
       x2="112.91872"
       y1="386.09204"
       x1="111.32960"
       spreadMethod="reflect"
       gradientTransform="matrix(0.890379,0.884594,-0.449428,0.456348,166.9975,-25.20896)"
       gradientUnits="userSpaceOnUse"
       id="linearGradient16504"
       xlink:href="#light90to0"
       inkscape:collect="always" />
    <linearGradient
       y2="381.73886"
       x2="110.54198"
       y1="398.06821"
       x1="110.12445"
       spreadMethod="reflect"
       gradientTransform="matrix(1.143288,1.132316,-0.436455,0.442401,145.1861,-46.53600)"
       gradientUnits="userSpaceOnUse"
       id="linearGradient16503"
       xlink:href="#bludraktowhite"
       inkscape:collect="always" />
    <linearGradient
       id="orangetoyelow">
      <stop
         id="stop2661"
         offset="0.0000000"
         style="stop-color:#ff7d00;stop-opacity:1.0000000;" />
      <stop
         id="stop2662"
         offset="1.0000000"
         style="stop-color:#ffff00;stop-opacity:1.0000000;" />
    </linearGradient>
    <linearGradient
       y2="382.32303"
       x2="113.61272"
       y1="367.68045"
       x1="113.97564"
       spreadMethod="reflect"
       gradientTransform="matrix(1.100272,1.089712,-0.446169,0.452247,142.1597,-43.39595)"
       gradientUnits="userSpaceOnUse"
       id="linearGradient16502"
       xlink:href="#orangetoyelow"
       inkscape:collect="always" />
    <linearGradient
       y2="245.98344"
       x2="162.24979"
       y1="249.54593"
       x1="144.50417"
       gradientTransform="matrix(0.715001,0.699124,-0.699124,0.715001,145.1861,-46.53600)"
       gradientUnits="userSpaceOnUse"
       id="linearGradient16501"
       xlink:href="#bludraktowhite"
       inkscape:collect="always" />
    <radialGradient
       r="8.9088030"
       fy="248.76897"
       fx="154.87000"
       cy="248.76897"
       cx="154.87000"
       gradientTransform="matrix(0.715001,0.699124,-0.699124,0.715001,145.1861,-46.53600)"
       gradientUnits="userSpaceOnUse"
       id="radialGradient16500"
       xlink:href="#bludraktowhite"
       inkscape:collect="always" />
    <linearGradient
       y2="246.31511"
       x2="200.85158"
       y1="246.31511"
       x1="187.21997"
       gradientTransform="matrix(0.715001,0.699124,-0.699124,0.715001,145.1861,-46.53600)"
       gradientUnits="userSpaceOnUse"
       id="linearGradient16499"
       xlink:href="#bludraktowhite"
       inkscape:collect="always" />
    <radialGradient
       r="6.7950330"
       fy="248.85941"
       fx="196.46024"
       cy="248.85941"
       cx="196.46024"
       gradientTransform="matrix(0.715001,0.699124,-0.699124,0.715001,145.1861,-46.53600)"
       gradientUnits="userSpaceOnUse"
       id="radialGradient16498"
       xlink:href="#bludraktowhite"
       inkscape:collect="always" />
    <linearGradient
       y2="241.11296"
       x2="78.151619"
       y1="244.09380"
       x1="74.778839"
       spreadMethod="reflect"
       gradientTransform="matrix(1.041174,-1.138109e-16,9.005485e-17,0.960454,0.356520,-0.237680)"
       gradientUnits="userSpaceOnUse"
       id="linearGradient16497"
       xlink:href="#bludraktowhite"
       inkscape:collect="always" />
    <linearGradient
       y2="91.407700"
       x2="33.332001"
       y1="10.305200"
       x1="33.332001"
       gradientUnits="userSpaceOnUse"
       id="bludraktowhite">
      <linearGradient
         xlink:href="#linearGradient6373"
         spreadMethod="pad"
         y2="91.407700"
         x2="33.332001"
         y1="10.305200"
         x1="33.332001"
         gradientUnits="userSpaceOnUse"
         id="bluedrklighttowite" />
      <stop
         id="stop7271"
         style="stop-color:rgb(255,255,255)"
         offset="0" />
      <stop
         id="stop7273"
         style="stop-color:rgb(84,84,119)"
         offset="1" />
    </linearGradient>
    <linearGradient
       y2="-124.01011"
       x2="-225.67094"
       y1="-119.62550"
       x1="-226.05598"
       spreadMethod="reflect"
       gradientTransform="matrix(-0.736250,-0.679117,0.736250,-0.679117,0.356520,-0.237680)"
       gradientUnits="userSpaceOnUse"
       id="linearGradient16496"
       xlink:href="#bludraktowhite"
       inkscape:collect="always" />
    <radialGradient
       r="196.90027"
       fy="291.17581"
       fx="200.28046"
       cy="291.17581"
       cx="200.28046"
       gradientTransform="scale(0.999851,1.000149)"
       gradientUnits="userSpaceOnUse"
       id="radialGradient1179"
       xlink:href="#light100to0"
       inkscape:collect="always" />
    <linearGradient
       y2="362.30255"
       x2="261.13272"
       y1="34.215549"
       x1="23.488348"
       gradientTransform="matrix(1.048333,0.000000,0.000000,0.953895,3.135114,2.949073)"
       gradientUnits="userSpaceOnUse"
       id="linearGradient1180"
       xlink:href="#light100to0"
       inkscape:collect="always" />
    <linearGradient
       y2="218.63310"
       x2="176.99603"
       y1="50.663139"
       x1="351.57092"
       gradientTransform="scale(0.999857,1.000143)"
       gradientUnits="userSpaceOnUse"
       id="linearGradient1290"
       xlink:href="#greantodarkgrean"
       inkscape:collect="always" />
    <radialGradient
       r="219.06058"
       fy="52.096363"
       fx="78.732162"
       cy="52.096363"
       cx="78.732162"
       gradientTransform="scale(0.999855,1.000145)"
       gradientUnits="userSpaceOnUse"
       id="radialGradient1291"
       xlink:href="#greandarktobgrean"
       inkscape:collect="always" />
    <defs
       id="defs1151">
      <linearGradient
         id="linearGradient1153">
        <stop
           id="stop1154"
           offset="0.0000000"
           style="stop-color:#ffffff;stop-opacity:1.0000000;" />
        <stop
           id="stop1155"
           offset="1.0000000"
           style="stop-color:#ffffff;stop-opacity:0.0000000;" />
      </linearGradient>
      <linearGradient
         id="greandarktobgrean">
        <stop
           id="stop4492"
           offset="0.0000000"
           style="stop-color:#00ad01;stop-opacity:1.0000000;" />
        <stop
           id="stop4493"
           offset="1.0000000"
           style="stop-color:#15720f;stop-opacity:1.0000000;" />
      </linearGradient>
      <linearGradient
         id="greantodarkgrean">
        <stop
           id="stop5123"
           offset="0.0000000"
           style="stop-color:#00ff01;stop-opacity:1.0000000;" />
        <stop
           id="stop5124"
           offset="1.0000000"
           style="stop-color:#15980f;stop-opacity:1.0000000;" />
      </linearGradient>
    </defs>
    <sodipodi:namedview
       inkscape:window-y="25"
       inkscape:window-x="0"
       inkscape:window-height="538"
       inkscape:window-width="640"
       gridoriginx="0.0000000pt"
       gridoriginy="0.0000000pt"
       gridspacingx="1.0000000pt"
       gridspacingy="1.0000000pt"
       inkscape:grid-bbox="false"
       showgrid="false"
       inkscape:current-layer="layer1"
       inkscape:cy="29.507018"
       inkscape:cx="35.804250"
       inkscape:zoom="4.0200035"
       inkscape:pageshadow="2"
       inkscape:pageopacity="0.0"
       borderopacity="1.0"
       bordercolor="#666666"
       pagecolor="#ffffff"
       id="namedview1165" />
    <metadata
       id="metadata1166">
      <rdf:RDF
         id="RDF1167">
        <cc:Work
           id="Work1168"
           rdf:about="">
          <dc:format
             id="format1169">image/svg+xml</dc:format>
          <dc:type
             rdf:resource="http://purl.org/dc/dcmitype/StillImage"
             id="type1171" />
        </cc:Work>
      </rdf:RDF>
    </metadata>
    <radialGradient
       gradientUnits="userSpaceOnUse"
       r="91.256111"
       fy="51.308311"
       fx="44.217918"
       cy="51.308311"
       cx="44.217918"
       gradientTransform="scale(1.131393,0.883866)"
       id="radialGradient2402"
       xlink:href="#light90to0"
       inkscape:collect="always" />
    <linearGradient
       gradientUnits="userSpaceOnUse"
       y2="66.509644"
       x2="5.6619754"
       y1="59.253910"
       x1="1.8922292"
       gradientTransform="scale(1.193796,0.837664)"
       id="linearGradient2417"
       xlink:href="#light100to0"
       inkscape:collect="always" />
    <radialGradient
       r="9.6998835"
       fy="86.241188"
       fx="20.503159"
       cy="86.241188"
       cx="20.503159"
       gradientTransform="scale(1.131393,0.883866)"
       gradientUnits="userSpaceOnUse"
       id="radialGradient2419"
       xlink:href="#light90to0"
       inkscape:collect="always" />
    <radialGradient
       r="13.757315"
       fy="86.454590"
       fx="90.757881"
       cy="86.454590"
       cx="90.757881"
       gradientTransform="scale(1.131393,0.883866)"
       gradientUnits="userSpaceOnUse"
       id="radialGradient2421"
       xlink:href="#light90to0"
       inkscape:collect="always" />
    <linearGradient
       y2="66.509644"
       x2="5.6619754"
       y1="59.253910"
       x1="1.8922292"
       gradientTransform="matrix(3.071316,0.000000,0.000000,2.244791,83.78882,-139.6935)"
       gradientUnits="userSpaceOnUse"
       id="linearGradient2423"
       xlink:href="#light100to0"
       inkscape:collect="always" />
    <radialGradient
       gradientUnits="userSpaceOnUse"
       r="40.434757"
       fy="8.7243853"
       fx="14.330431"
       cy="8.7243853"
       cx="14.330431"
       gradientTransform="scale(0.982750,1.017552)"
       id="radialGradient3707"
       xlink:href="#bludraktowhite"
       inkscape:collect="always" />
    <radialGradient
       r="39.210377"
       fy="213.82373"
       fx="138.89362"
       cy="213.82373"
       cx="138.89362"
       gradientTransform="matrix(0.714507,-8.738799e-2,8.090601e-2,0.739368,-79.40753,-107.6449)"
       gradientUnits="userSpaceOnUse"
       id="radialGradient1426"
       xlink:href="#light100to0"
       inkscape:collect="always" />
    <radialGradient
       r="19.273544"
       fy="189.74400"
       fx="119.82000"
       cy="189.74400"
       cx="119.82000"
       gradientTransform="matrix(0.714532,-8.739114e-2,8.090310e-2,0.739341,-102.0403,-111.3570)"
       gradientUnits="userSpaceOnUse"
       id="radialGradient1423"
       xlink:href="#light100to0"
       inkscape:collect="always" />
    <linearGradient
       y2="43.096836"
       x2="33.667786"
       y1="-35.866158"
       x1="-26.130182"
       gradientTransform="matrix(0.976523,-0.119434,0.110577,1.010517,0.000000,0.000000)"
       gradientUnits="userSpaceOnUse"
       id="linearGradient1417"
       xlink:href="#bludraktowhite"
       inkscape:collect="always" />
    <linearGradient
       y2="241.11296"
       x2="78.151619"
       y1="244.09380"
       x1="74.778839"
       spreadMethod="reflect"
       gradientTransform="matrix(0.906168,-2.989913e-3,-7.230192e-3,0.826239,-21.28576,-154.3512)"
       gradientUnits="userSpaceOnUse"
       id="linearGradient1407"
       xlink:href="#bludraktowhite"
       inkscape:collect="always" />
    <linearGradient
       y2="-124.01011"
       x2="-225.67094"
       y1="-119.62550"
       x1="-226.05598"
       spreadMethod="reflect"
       gradientTransform="matrix(-0.635670,-0.582102,0.645895,-0.586331,-21.28576,-154.3512)"
       gradientUnits="userSpaceOnUse"
       id="linearGradient1405"
       xlink:href="#bludraktowhite"
       inkscape:collect="always" />
    <linearGradient
       y2="246.31511"
       x2="200.85158"
       y1="246.31511"
       x1="187.21997"
       gradientTransform="matrix(0.617026,0.599374,-0.613853,0.617094,105.1127,-194.5956)"
       gradientUnits="userSpaceOnUse"
       id="linearGradient1402"
       xlink:href="#bludraktowhite"
       inkscape:collect="always" />
    <radialGradient
       r="6.7950330"
       fy="248.85941"
       fx="196.46024"
       cy="248.85941"
       cx="196.46024"
       gradientTransform="matrix(0.617026,0.599374,-0.613853,0.617094,105.1127,-194.5956)"
       gradientUnits="userSpaceOnUse"
       id="radialGradient1400"
       xlink:href="#bludraktowhite"
       inkscape:collect="always" />
    <linearGradient
       y2="245.98344"
       x2="162.24979"
       y1="249.54593"
       x1="144.50417"
       gradientTransform="matrix(0.617026,0.599374,-0.613853,0.617094,105.1127,-194.5956)"
       gradientUnits="userSpaceOnUse"
       id="linearGradient1397"
       xlink:href="#bludraktowhite"
       inkscape:collect="always" />
    <radialGradient
       r="8.9088030"
       fy="248.76897"
       fx="154.87000"
       cy="248.76897"
       cx="154.87000"
       gradientTransform="matrix(0.617026,0.599374,-0.613853,0.617094,105.1127,-194.5956)"
       gradientUnits="userSpaceOnUse"
       id="radialGradient1395"
       xlink:href="#bludraktowhite"
       inkscape:collect="always" />
    <linearGradient
       y2="381.73886"
       x2="110.54198"
       y1="398.06821"
       x1="110.12445"
       spreadMethod="reflect"
       gradientTransform="matrix(0.986517,0.970802,-0.383192,0.381833,105.1127,-194.5956)"
       gradientUnits="userSpaceOnUse"
       id="linearGradient1392"
       xlink:href="#bludraktowhite"
       inkscape:collect="always" />
    <linearGradient
       y2="382.32303"
       x2="113.61272"
       y1="367.68045"
       x1="113.97564"
       spreadMethod="reflect"
       gradientTransform="matrix(0.949400,0.934275,-0.391720,0.390331,102.4551,-191.8857)"
       gradientUnits="userSpaceOnUse"
       id="linearGradient1390"
       xlink:href="#orangetoyelow"
       inkscape:collect="always" />
    <linearGradient
       y2="367.41110"
       x2="112.91872"
       y1="386.09204"
       x1="111.32960"
       spreadMethod="reflect"
       gradientTransform="matrix(0.768267,0.758423,-0.394587,0.393868,123.9354,-176.3115)"
       gradientUnits="userSpaceOnUse"
       id="linearGradient1387"
       xlink:href="#light90to0"
       inkscape:collect="always" />
    <linearGradient
       y2="224.47372"
       x2="82.103157"
       y1="231.74817"
       x1="73.415047"
       spreadMethod="reflect"
       gradientTransform="matrix(0.865803,5.461554e-3,2.707960e-2,0.864906,-28.60175,-156.3871)"
       gradientUnits="userSpaceOnUse"
       id="linearGradient1378"
       xlink:href="#bludraktowhite"
       inkscape:collect="always" />
    <linearGradient
       y2="-135.79361"
       x2="-218.18871"
       y1="-112.04543"
       x1="-216.41075"
       spreadMethod="reflect"
       gradientTransform="matrix(-0.631386,-0.615420,0.593090,-0.607696,-28.60175,-156.3871)"
       gradientUnits="userSpaceOnUse"
       id="linearGradient1376"
       xlink:href="#bludraktowhite"
       inkscape:collect="always" />
    <linearGradient
       y2="91.407700"
       x2="33.332001"
       y1="10.305200"
       x1="33.332001"
       gradientUnits="userSpaceOnUse"
       id="linearGradient1642">
      <linearGradient
         xlink:href="#linearGradient6373"
         spreadMethod="pad"
         y2="91.407700"
         x2="33.332001"
         y1="10.305200"
         x1="33.332001"
         gradientUnits="userSpaceOnUse"
         id="linearGradient1644" />
      <stop
         id="stop1646"
         style="stop-color:rgb(255,255,255)"
         offset="0" />
      <stop
         id="stop1648"
         style="stop-color:rgb(84,84,119)"
         offset="1" />
    </linearGradient>
    <linearGradient
       id="linearGradient1636">
      <stop
         id="stop1638"
         offset="0.0000000"
         style="stop-color:#ff7d00;stop-opacity:1.0000000;" />
      <stop
         id="stop1640"
         offset="1.0000000"
         style="stop-color:#ffff00;stop-opacity:1.0000000;" />
    </linearGradient>
    <linearGradient
       id="linearGradient1630">
      <stop
         id="stop1632"
         offset="0.0000000"
         style="stop-color:#ffffff;stop-opacity:0.90833336;" />
      <stop
         id="stop1634"
         offset="1.0000000"
         style="stop-color:#ffffff;stop-opacity:0.0000000;" />
    </linearGradient>
    <linearGradient
       id="linearGradient1624">
      <stop
         id="stop1626"
         offset="0.0000000"
         style="stop-color:#ffffff;stop-opacity:1.0000000;" />
      <stop
         id="stop1628"
         offset="1.0000000"
         style="stop-color:#ffffff;stop-opacity:0.0000000;" />
    </linearGradient>
    <radialGradient
       r="12.433510"
       fy="290.09976"
       fx="214.42342"
       cy="290.09976"
       cx="214.42342"
       gradientTransform="scale(1.091687,0.916013)"
       gradientUnits="userSpaceOnUse"
       id="radialGradient1622"
       xlink:href="#light100to0"
       inkscape:collect="always" />
    <radialGradient
       r="9.7014513"
       fy="268.59674"
       fx="188.63550"
       cy="268.59674"
       cx="188.63550"
       gradientTransform="scale(1.091687,0.916013)"
       gradientUnits="userSpaceOnUse"
       id="radialGradient1620"
       xlink:href="#light100to0"
       inkscape:collect="always" />
    <radialGradient
       r="12.433510"
       fy="290.09976"
       fx="214.42342"
       cy="290.09976"
       cx="214.42342"
       gradientTransform="scale(1.091687,0.916013)"
       gradientUnits="userSpaceOnUse"
       id="radialGradient1684"
       xlink:href="#light100to0"
       inkscape:collect="always" />
    <radialGradient
       r="9.7014513"
       fy="268.59674"
       fx="188.63550"
       cy="268.59674"
       cx="188.63550"
       gradientTransform="scale(1.091687,0.916013)"
       gradientUnits="userSpaceOnUse"
       id="radialGradient1686"
       xlink:href="#light100to0"
       inkscape:collect="always" />
  </defs>
  <sodipodi:namedview
     inkscape:window-y="25"
     inkscape:window-x="98"
     inkscape:window-height="740"
     inkscape:window-width="993"
     gridoriginx="0.0000000pt"
     gridoriginy="0.0000000pt"
     gridspacingx="1.0000000pt"
     gridspacingy="1.0000000pt"
     inkscape:grid-bbox="false"
     showgrid="false"
     inkscape:current-layer="g1665"
     inkscape:cy="23.187608"
     inkscape:cx="32.000000"
     inkscape:zoom="9.0781250"
     inkscape:pageshadow="2"
     inkscape:pageopacity="0.0"
     borderopacity="1.0"
     bordercolor="#666666"
     pagecolor="#ffffff"
     id="base" />
  <metadata
     id="metadata4">
    <rdf:RDF
       id="RDF5">
      <cc:Work
         id="Work6"
         rdf:about="">
        <dc:format
           id="format7">image/svg+xml</dc:format>
        <dc:type
           rdf:resource="http://purl.org/dc/dcmitype/StillImage"
           id="type9" />
      </cc:Work>
    </rdf:RDF>
  </metadata>
  <g
     inkscape:groupmode="layer"
     inkscape:label="Layer 1"
     id="layer1">
    <g
       transform="translate(-5.538954,-27.90221)"
       inkscape:groupmode="layer"
       inkscape:label="Layer 1"
       id="g1665">
      <g
         transform="translate(4.846816,27.20826)"
         id="g1336">
        <path
           style="opacity:0.49999997;fill:#007ebb;fill-opacity:0.22077920"
           id="path620"
           d="M 23.202848,17.190447 C 23.706087,21.789353 20.511262,25.955666 16.067066,26.499215 C 11.624298,27.042589 7.6140957,23.757490 7.1108563,19.158584 C 6.6076169,14.559677 9.8022805,10.391886 14.245048,9.8485122 C 18.689325,9.3057026 22.699608,12.591541 23.202848,17.190447 z " />
        <path
           sodipodi:nodetypes="ccccc"
           style="fill:url(#linearGradient1405);fill-opacity:1.0000000;stroke:url(#linearGradient1407);stroke-linejoin:round"
           id="path15144"
           d="M 43.842335,42.947227 L 48.991563,46.018993 L 45.325492,50.403066 L 41.868650,44.742338 L 43.842335,42.947227 z " />
        <path
           id="path5115"
           d="M 69.453994,69.595633 C 71.775959,67.284127 75.533320,67.250516 77.843417,69.520596 C 80.151772,71.788952 80.140744,75.501691 77.818769,77.812336 C 75.495053,80.122988 71.737701,80.156599 69.429345,77.887365 C 67.119248,75.617311 67.130285,71.905415 69.453994,69.595633 z "
           style="fill:url(#radialGradient1400);fill-opacity:1.0000000;stroke:url(#linearGradient1402);stroke-width:0.86526918;stroke-miterlimit:4.0000000" />
        <path
           id="path7623"
           d="M 46.650595,47.222047 C 48.972565,44.910541 52.729921,44.876930 55.040024,47.147010 C 57.348380,49.415367 57.337347,53.128114 55.015374,55.438751 C 52.691659,57.749403 48.934304,57.783013 46.625952,55.513779 C 44.315849,53.243725 44.326890,49.531830 46.650595,47.222047 z "
           style="fill:url(#radialGradient1395);fill-opacity:1.0000000;stroke:url(#linearGradient1397);stroke-width:0.86526918;stroke-miterlimit:4.0000000" />
        <path
           id="rect5114"
           d="M 56.039777,47.095969 L 77.795343,68.504947 C 78.510159,69.208385 78.583768,70.274763 77.960370,70.895948 L 70.758050,78.072731 C 70.134652,78.693907 69.057320,78.627697 68.342504,77.924259 L 46.586937,56.515281 C 45.872116,55.811843 45.798511,54.745464 46.421906,54.124280 L 53.624230,46.947505 C 54.247625,46.326320 55.324956,46.392531 56.039777,47.095969 z "
           style="fill:url(#linearGradient1390);fill-opacity:1.0000000;stroke:url(#linearGradient1392);stroke-width:1.4268034;stroke-linecap:butt;stroke-linejoin:round;stroke-miterlimit:4.0000000;stroke-dashoffset:0.0000000;stroke-opacity:1.0000000" />
        <path
           id="rect8247"
           d="M 56.030327,47.090666 L 62.801334,53.713247 C 63.515011,54.417781 69.059023,76.179508 57.827389,67.705840 L 46.585772,56.518012 C 45.872095,55.813478 45.798965,54.745781 46.421810,54.124074 L 53.617837,46.941169 C 54.240675,46.319462 55.316650,46.386141 56.030327,47.090666 z "
           style="fill:url(#linearGradient1387);fill-opacity:1.0000000;stroke:none;stroke-width:1.6489741;stroke-linecap:butt;stroke-linejoin:round;stroke-miterlimit:4.0000000;stroke-dashoffset:0.0000000;stroke-opacity:1.0000000" />
        <path
           style="fill:url(#linearGradient1376);fill-opacity:1.0000000;stroke:url(#linearGradient1378);stroke-linejoin:round"
           id="path478"
           d="M 44.650341,37.109588 L 47.821106,40.201030 L 39.792518,48.427318 L 36.621784,45.336751 L 44.650341,37.109588 z " />
        <path
           style="fill:url(#radialGradient3707);fill-opacity:1.0000000"
           id="path518"
           d="M 22.600239,1.7415690 C 9.5670264,3.3356006 0.19727148,15.560268 1.6732517,29.048668 C 3.1490701,42.535589 14.911478,52.176429 27.944690,50.582397 C 40.977903,48.988366 50.346863,36.763047 48.871044,23.276125 C 47.395698,9.7868988 35.633924,0.14523198 22.600239,1.7415690 M 27.531176,46.803457 C 16.531514,48.149524 6.5691144,39.984129 5.3234755,28.600727 C 4.0779983,17.218804 12.013687,6.8628794 23.013429,5.5175521 C 34.012458,4.1723121 43.975020,12.339185 45.220497,23.721108 C 46.466136,35.104510 38.530205,45.458217 27.531176,46.803457 z " />
        <path
           style="fill:url(#linearGradient1417);fill-opacity:1.0000000"
           id="path533"
           d="M 0.89127078,29.144683 C 2.4134487,43.055265 14.588916,53.036705 28.033681,51.392338 C 41.477017,49.748146 51.176713,37.091257 49.653106,23.180850 C 48.130766,9.2687886 35.955299,-0.71265073 22.511963,0.93154113 C 9.0672787,2.5766471 -0.63106893,15.232622 0.89127078,29.144683 M 2.4553135,28.953392 C 1.0305472,15.933016 10.106786,4.0896604 22.688434,2.5508576 C 35.269368,1.0121422 46.663583,10.351852 48.088349,23.372228 C 49.512791,36.389647 40.437429,48.234393 27.855781,49.773196 C 15.274133,51.311999 3.8800798,41.973768 2.4553135,28.953392 z " />
        <path
           style="opacity:0.73000002;fill:#009cbb;fill-opacity:0.18614717;fill-rule:evenodd"
           id="path554"
           d="M 47.355121,23.462858 C 48.753177,36.487978 39.875567,48.294281 27.530557,49.833552 C 15.184820,51.372911 4.0428822,42.062798 2.6449105,29.038443 C 1.2468566,16.013323 10.122123,4.2057603 22.467860,2.6663997 C 34.812871,1.1271302 45.957232,10.439270 47.355121,23.462858 z "
           clip-rule="evenodd" />
        <path
           style="opacity:0.49999997;fill:#007ebb;fill-opacity:0.16883112"
           id="path575"
           d="M 10.030211,29.963396 C 8.8935531,19.575931 15.850829,10.190841 25.569471,9.0021993 C 35.286685,7.8137321 44.087014,15.271582 45.223672,25.659048 C 45.272621,26.106369 45.301630,26.550135 45.321904,26.993470 C 45.377848,25.837249 45.349816,24.661327 45.219961,23.474632 C 43.938480,11.763687 33.725446,3.3921781 22.408465,4.7763054 C 11.092198,6.1603453 2.9560519,16.775308 4.2376133,28.486992 C 5.5191748,40.198676 15.732047,48.568707 27.049028,47.184580 C 28.127210,47.052712 29.176715,46.837437 30.192313,46.543889 C 30.024257,46.569688 29.855973,46.600011 29.686636,46.620722 C 19.967279,47.809451 11.166868,40.350861 10.030211,29.963396 z " />
        <path
           style="opacity:0.49999997;fill:#007ebb;fill-opacity:0.15584411"
           id="path598"
           d="M 16.541963,8.4077183 C 10.047863,9.2019814 5.3789063,15.294385 6.1141860,22.013816 C 6.8495466,28.733987 12.710906,33.538477 19.205005,32.744214 C 25.698390,31.950038 30.367347,25.857634 29.631986,19.137464 C 28.895911,12.417381 23.035348,7.6135426 16.541963,8.4077183 M 20.119120,31.549718 C 14.877541,32.190791 10.148842,28.314730 9.5553110,22.890683 C 8.9619415,17.468114 12.727784,12.551627 17.970077,11.910466 C 23.210228,11.269568 27.939803,15.147020 28.533172,20.569589 C 29.126703,25.993637 25.359270,30.908820 20.119120,31.549718 z " />
        <path
           style="opacity:0.73000002;fill:url(#radialGradient1426);fill-opacity:1.0000000;fill-rule:evenodd"
           id="path12629"
           d="M 47.907260,24.374849 C 49.283570,36.952340 40.544078,48.352901 28.391131,49.839272 C 16.237469,51.325729 5.2688780,42.335572 3.8926560,29.758820 C 2.5163530,17.181329 11.253538,5.7795519 23.407200,4.2930941 C 35.560147,2.8067237 46.531120,11.798837 47.907260,24.374849 z "
           clip-rule="evenodd" />
        <path
           transform="matrix(0.859766,-0.105154,0.101759,0.929935,-188.1266,-184.3751)"
           d="M 242.14573 256.43384 A 21.808155 18.298798 0 1 1  198.52942,256.43384 A 21.808155 18.298798 0 1 1  242.14573 256.43384 z"
           sodipodi:ry="18.298798"
           sodipodi:rx="21.808155"
           sodipodi:cy="256.43384"
           sodipodi:cx="220.33757"
           id="path15833"
           style="fill:url(#radialGradient1684);fill-opacity:1.0000000;stroke:none;stroke-width:1.0000000;stroke-linecap:butt;stroke-linejoin:round;stroke-miterlimit:4.0000000;stroke-dashoffset:0.0000000;stroke-opacity:1.0000000"
           sodipodi:type="arc" />
        <path
           transform="matrix(0.859766,-0.105154,0.101759,0.929935,-193.1266,-193.1251)"
           d="M 242.14573 256.43384 A 21.808155 18.298798 0 1 1  198.52942,256.43384 A 21.808155 18.298798 0 1 1  242.14573 256.43384 z"
           sodipodi:ry="18.298798"
           sodipodi:rx="21.808155"
           sodipodi:cy="256.43384"
           sodipodi:cx="220.33757"
           id="path16459"
           style="fill:url(#radialGradient1686);fill-opacity:1.0000000;stroke:none;stroke-width:1.0000000;stroke-linecap:butt;stroke-linejoin:round;stroke-miterlimit:4.0000000;stroke-dashoffset:0.0000000;stroke-opacity:1.0000000"
           sodipodi:type="arc" />
      </g>
      <path
         style="opacity:0.49999997;fill:url(#radialGradient1423);fill-opacity:1.0000000;stroke:none"
         id="path13255"
         d="M 1.1978401,14.382460 C 1.7010791,18.981366 -1.4937459,23.147679 -5.9379419,23.691228 C -10.380710,24.234602 -14.390912,20.949503 -14.894152,16.350597 C -15.397391,11.751690 -12.202727,7.5838987 -7.7599599,7.0405249 C -3.3156829,6.4977153 0.69460013,9.7835537 1.1978401,14.382460 z " />
    </g>
  </g>
  <g
     transform="matrix(0.388692,0.000000,0.000000,0.373159,-1.311589,51.02631)"
     inkscape:groupmode="layer"
     inkscape:label="Layer 1"
     id="g1172">
    <path
       sodipodi:nodetypes="cccccccccccccccccccccccccccccccccccc"
       id="path2403"
       d="M 10.588765,-2.7503066 C 8.8013098,-2.7547523 7.0667117,-2.0950946 5.8027853,-0.88498296 C 4.5388605,0.32512876 3.8498674,1.9858741 3.8545097,3.6972253 L 3.8545097,19.390275 L 17.323020,19.390275 L 17.323020,10.104207 L 26.302027,10.104207 L 26.302027,-2.7503066 L 10.588765,-2.7503066 z M 83.836057,-2.7503066 L 83.836057,10.104207 L 92.857419,10.104207 L 92.857419,19.390275 L 106.28359,19.390275 L 106.28359,3.6972253 C 106.28822,1.9858741 105.59923,0.32512876 104.33530,-0.88498296 C 103.07138,-2.0950946 101.33678,-2.7547523 99.549321,-2.7503066 L 83.836057,-2.7503066 z M 3.3743891,55.503753 L 3.3743891,71.196801 C 3.3697458,72.908151 4.0587391,74.568898 5.3226640,75.779008 C 6.5865899,76.989121 8.3211880,77.648779 10.108644,77.644333 L 25.821905,77.644333 L 25.821905,64.789820 L 16.842899,64.789820 L 16.842899,55.503753 L 3.3743891,55.503753 z M 92.377297,55.503753 L 92.377297,64.789820 L 83.355937,64.789820 L 83.355937,77.644333 L 99.069199,77.644333 C 100.85665,77.648779 102.59126,76.989121 103.85518,75.779008 C 105.11911,74.568898 105.80810,72.908151 105.80346,71.196801 L 105.80346,55.503753 L 92.377297,55.503753 z "
       style="fill:#000000;fill-opacity:1.0000000;stroke:none;stroke-width:9.9107914;stroke-linecap:butt;stroke-linejoin:round;stroke-miterlimit:4.0000000;stroke-dashoffset:0.0000000;stroke-opacity:1.0000000;" />
    <path
       sodipodi:nodetypes="cccccccccccccccccccccccccccccccccccc"
       id="rect2393"
       d="M 12.360008,-1.2743285 C 10.572553,-1.2787742 8.8379550,-0.61911646 7.5740286,0.59099518 C 6.3101039,1.8011069 5.6211108,3.4618522 5.6257531,5.1732034 L 5.6257531,17.176308 L 16.260274,17.176308 L 16.260274,7.8902398 L 25.239280,7.8902398 L 25.239280,-1.2743285 L 12.360008,-1.2743285 z M 85.253050,-1.2743285 L 85.253050,7.8902398 L 94.274411,7.8902398 L 94.274411,17.176308 L 104.58429,17.176308 L 104.58429,5.1732034 C 104.58892,3.4618522 103.89993,1.8011069 102.63600,0.59099518 C 101.37208,-0.61911646 99.637484,-1.2787742 97.850022,-1.2743285 L 85.253050,-1.2743285 z M 4.9334492,57.273784 L 5.1456325,70.089817 C 5.1409892,71.801167 5.8299825,73.461914 7.0939073,74.672024 C 8.3578332,75.882137 10.092431,76.541795 11.879887,76.537349 L 24.759158,76.537349 L 24.546975,66.559851 L 15.567970,66.559851 L 15.567970,57.273784 L 4.9334492,57.273784 z M 93.582106,57.273784 L 93.582106,66.559851 L 84.560747,66.559851 L 84.772930,76.537349 L 97.369900,76.537349 C 99.157354,76.541795 100.89196,75.882137 102.15588,74.672024 C 103.41981,73.461914 104.10880,71.801167 104.10416,70.089817 L 103.89198,57.273784 L 93.582106,57.273784 z "
       style="fill:url(#radialGradient2402);fill-opacity:1.0;stroke:none;stroke-width:9.9107914;stroke-linecap:butt;stroke-linejoin:round;stroke-miterlimit:4.0000000;stroke-dashoffset:0.0000000;stroke-opacity:1.0000000;" />
    <path
       sodipodi:nodetypes="ccsscs"
       transform="matrix(2.572731,0.000000,0.000000,2.679823,3.374366,-136.7415)"
       id="path2408"
       d="M 3.6729368,52.544696 C 5.1528491,51.518847 7.8807689,51.803615 7.7525544,50.226892 C 6.0704288,50.226892 4.3879745,50.260146 2.7061776,50.226892 C 1.3038234,50.199164 0.38133095,51.641761 0.45360690,52.742349 C 0.59105067,54.835285 0.48109823,54.419320 0.49484389,55.257805 C 2.6818270,55.296198 2.7336122,53.195818 3.6729368,52.544696 z "
       style="fill:url(#linearGradient2417);fill-opacity:1.0;fill-rule:evenodd;stroke:none;stroke-width:0.25000000pt;stroke-linecap:butt;stroke-linejoin:miter;stroke-opacity:1.0000000;" />
    <path
       sodipodi:nodetypes="ccccccccc"
       id="path2418"
       d="M 4.9334492,57.273784 L 5.1456325,70.089817 C 5.1409892,71.801167 5.8299825,73.461914 7.0939073,74.672024 C 8.3578332,75.882137 10.092431,76.541795 11.879887,76.537349 L 24.759158,76.537349 L 24.546975,66.559851 L 15.567970,66.559851 L 15.567970,57.273784 L 4.9334492,57.273784 z "
       style="fill:url(#radialGradient2419);fill-opacity:1.0;stroke:none;stroke-width:9.9107914;stroke-linecap:butt;stroke-linejoin:round;stroke-miterlimit:4.0000000;stroke-dashoffset:0.0000000;stroke-opacity:1.0000000;" />
    <path
       sodipodi:nodetypes="ccccccccc"
       id="path2420"
       d="M 93.582106,57.273784 L 93.582106,66.559851 L 84.560747,66.559851 L 84.772930,76.537349 L 97.369900,76.537349 C 99.157354,76.541795 100.89196,75.882137 102.15588,74.672024 C 103.41981,73.461914 104.10880,71.801167 104.10416,70.089817 L 103.89198,57.273784 L 93.582106,57.273784 z "
       style="fill:url(#radialGradient2421);fill-opacity:1.0;stroke:none;stroke-width:9.9107914;stroke-linecap:butt;stroke-linejoin:round;stroke-miterlimit:4.0000000;stroke-dashoffset:0.0000000;stroke-opacity:1.0000000;" />
    <path
       sodipodi:nodetypes="ccsscs"
       id="path2422"
       d="M 90.384797,6.2156313 C 91.286222,1.9509724 102.82893,1.0639961 102.62437,-0.38816660 C 101.94284,-2.6999396 99.267360,-1.9672062 85.519668,-1.7917431 C 84.365756,-1.7770156 84.901201,0.51065485 85.035091,3.4630967 C 85.150905,6.0169519 83.916860,8.7001521 85.220447,8.6353705 C 90.846966,8.7382569 89.885248,8.5790086 90.384797,6.2156313 z "
       style="fill:url(#linearGradient2423);fill-opacity:1.0000000;fill-rule:evenodd;stroke:none;stroke-width:0.25000000pt;stroke-linecap:butt;stroke-linejoin:miter;stroke-opacity:1.0000000" />
  </g>
</svg>
