<?xml version="1.0" encoding="UTF-8" standalone="no"?>
<!DOCTYPE svg PUBLIC "-//W3C//DTD SVG 20010904//EN"
"http://www.w3.org/TR/2001/REC-SVG-20010904/DTD/svg10.dtd">
<!-- Created with Inkscape (http://www.inkscape.org/) -->
<svg
   width="64pt"
   height="64pt"
   id="svg12272"
   sodipodi:version="0.32"
   inkscape:version="0.40"
   sodipodi:docbase="/home/nuno/kdeplayground-artwork/oooicons/crystalsvg"
   sodipodi:docname="anchor_16.svg"
   xmlns="http://www.w3.org/2000/svg"
   xmlns:cc="http://web.resource.org/cc/"
   xmlns:inkscape="http://www.inkscape.org/namespaces/inkscape"
   xmlns:sodipodi="http://sodipodi.sourceforge.net/DTD/sodipodi-0.dtd"
   xmlns:rdf="http://www.w3.org/1999/02/22-rdf-syntax-ns#"
   xmlns:dc="http://purl.org/dc/elements/1.1/"
   xmlns:xlink="http://www.w3.org/1999/xlink">
  <defs
     id="defs3">
    <linearGradient
       inkscape:collect="always"
       xlink:href="#graytoblack"
       id="linearGradient3520"
       gradientTransform="matrix(0.208596,0.000000,0.000000,0.216206,1.055276,0.221878)"
       x1="-57.779144"
       y1="-116.67985"
       x2="315.18671"
       y2="328.74939"
       gradientUnits="userSpaceOnUse" />
    <linearGradient
       inkscape:collect="always"
       xlink:href="#graytoblack"
       id="linearGradient3524"
       gradientTransform="matrix(0.208596,0.000000,0.000000,0.216206,1.055276,0.221878)"
       x1="208.47704"
       y1="219.27553"
       x2="18.886059"
       y2="250.86252"
       gradientUnits="userSpaceOnUse"
       spreadMethod="reflect" />
    <linearGradient
       id="graytoblack">
      <stop
         style="stop-color:#7d7d7d;stop-opacity:1.0000000;"
         offset="0.0000000"
         id="stop5097" />
      <stop
         style="stop-color:#000000;stop-opacity:1.0000000;"
         offset="1.0000000"
         id="stop5098" />
    </linearGradient>
    <radialGradient
       inkscape:collect="always"
       xlink:href="#graytoblack"
       id="radialGradient11644"
       gradientTransform="matrix(0.329826,0.000000,0.000000,0.136738,1.055240,0.221862)"
       cx="122.01482"
       cy="452.51370"
       fx="122.01482"
       fy="452.51370"
       r="196.75864"
       gradientUnits="userSpaceOnUse" />
    <linearGradient
       inkscape:collect="always"
       xlink:href="#light100to0"
       id="linearGradient4779"
       gradientTransform="matrix(0.186321,0.000000,0.000000,0.242054,1.055240,0.221862)"
       x1="163.44194"
       y1="18.416653"
       x2="190.94151"
       y2="42.290253"
       gradientUnits="userSpaceOnUse" />
    <linearGradient
       inkscape:collect="always"
       xlink:href="#light100to0"
       id="linearGradient6030"
       gradientUnits="userSpaceOnUse"
       gradientTransform="matrix(-2.944971e-2,-0.185619,-0.236691,3.957856e-2,0.196801,8.887297e-3)"
       x1="-102.03365"
       y1="-152.73187"
       x2="-150.36754"
       y2="-181.46498" />
    <linearGradient
       id="light90to0">
      <stop
         style="stop-color:#ffffff;stop-opacity:0.90833336;"
         offset="0.0000000"
         id="stop1890" />
      <stop
         style="stop-color:#ffffff;stop-opacity:0.0000000;"
         offset="1.0000000"
         id="stop1892" />
    </linearGradient>
    <radialGradient
       inkscape:collect="always"
       xlink:href="#light90to0"
       id="radialGradient6653"
       gradientUnits="userSpaceOnUse"
       gradientTransform="matrix(0.208495,0.000000,0.000000,0.216312,1.055240,0.221862)"
       spreadMethod="pad"
       cx="281.40393"
       cy="210.67329"
       fx="281.40393"
       fy="210.67329"
       r="56.813026" />
    <linearGradient
       inkscape:collect="always"
       xlink:href="#light100to0"
       id="linearGradient7279"
       gradientTransform="matrix(0.194328,0.000000,0.000000,0.232083,1.055240,0.221862)"
       x1="116.05740"
       y1="125.82239"
       x2="161.11528"
       y2="157.26785"
       gradientUnits="userSpaceOnUse" />
    <linearGradient
       inkscape:collect="always"
       xlink:href="#light100to0"
       id="linearGradient8526"
       gradientTransform="matrix(0.209357,0.000000,0.000000,0.215421,1.055240,0.221862)"
       x1="28.449327"
       y1="229.88365"
       x2="64.522881"
       y2="293.34311"
       gradientUnits="userSpaceOnUse" />
    <linearGradient
       inkscape:collect="always"
       xlink:href="#light100to0"
       id="linearGradient9152"
       gradientTransform="matrix(0.293410,0.000000,0.000000,0.153710,1.055240,0.221862)"
       x1="215.57155"
       y1="297.03485"
       x2="280.16443"
       y2="459.96948"
       gradientUnits="userSpaceOnUse" />
    <linearGradient
       id="light75to0">
      <stop
         style="stop-color:#ffffff;stop-opacity:0.72916669;"
         offset="0.0000000"
         id="stop2769" />
      <stop
         style="stop-color:#ffffff;stop-opacity:0.0000000;"
         offset="1.0000000"
         id="stop2770" />
    </linearGradient>
    <radialGradient
       inkscape:collect="always"
       xlink:href="#light75to0"
       id="radialGradient11646"
       gradientTransform="matrix(0.208495,0.000000,0.000000,0.216312,1.055240,0.221862)"
       cx="241.64328"
       cy="363.18765"
       fx="241.64328"
       fy="363.18765"
       r="87.556953"
       gradientUnits="userSpaceOnUse"
       spreadMethod="pad" />
    <linearGradient
       id="light100to0">
      <stop
         style="stop-color:#ffffff;stop-opacity:1.0000000;"
         offset="0.0000000"
         id="stop2764" />
      <stop
         style="stop-color:#ffffff;stop-opacity:0.0000000;"
         offset="1.0000000"
         id="stop2765" />
    </linearGradient>
    <radialGradient
       inkscape:collect="always"
       xlink:href="#light100to0"
       id="radialGradient9779"
       gradientTransform="matrix(0.195930,0.000000,0.000000,0.230184,1.055240,0.221862)"
       cx="109.47643"
       cy="241.31146"
       fx="109.47643"
       fy="241.31146"
       r="80.045448"
       gradientUnits="userSpaceOnUse" />
    <linearGradient
       inkscape:collect="always"
       xlink:href="#graytoblack"
       id="linearGradient12334"
       gradientUnits="userSpaceOnUse"
       gradientTransform="matrix(0.208596,0.000000,0.000000,0.216206,1.055276,0.221878)"
       spreadMethod="reflect"
       x1="208.47704"
       y1="219.27553"
       x2="18.886059"
       y2="250.86252" />
    <linearGradient
       inkscape:collect="always"
       xlink:href="#graytoblack"
       id="linearGradient12335"
       gradientUnits="userSpaceOnUse"
       gradientTransform="matrix(0.208596,0.000000,0.000000,0.216206,1.055276,0.221878)"
       x1="-57.779144"
       y1="-116.67985"
       x2="315.18671"
       y2="328.74939" />
    <radialGradient
       inkscape:collect="always"
       xlink:href="#graytoblack"
       id="radialGradient12336"
       gradientUnits="userSpaceOnUse"
       gradientTransform="matrix(0.329826,0.000000,0.000000,0.136738,1.055240,0.221862)"
       cx="122.01482"
       cy="452.51370"
       fx="122.01482"
       fy="452.51370"
       r="196.75864" />
    <linearGradient
       inkscape:collect="always"
       xlink:href="#light100to0"
       id="linearGradient12337"
       gradientUnits="userSpaceOnUse"
       gradientTransform="matrix(0.186321,0.000000,0.000000,0.242054,1.055240,0.221862)"
       x1="163.44194"
       y1="18.416653"
       x2="190.94151"
       y2="42.290253" />
    <linearGradient
       inkscape:collect="always"
       xlink:href="#light100to0"
       id="linearGradient12338"
       gradientUnits="userSpaceOnUse"
       gradientTransform="matrix(-2.944971e-2,-0.185619,-0.236691,3.957856e-2,0.196801,8.887297e-3)"
       x1="-102.03365"
       y1="-152.73187"
       x2="-150.36754"
       y2="-181.46498" />
    <radialGradient
       inkscape:collect="always"
       xlink:href="#light90to0"
       id="radialGradient12339"
       gradientUnits="userSpaceOnUse"
       gradientTransform="matrix(0.208495,0.000000,0.000000,0.216312,1.055240,0.221862)"
       spreadMethod="pad"
       cx="281.40393"
       cy="210.67329"
       fx="281.40393"
       fy="210.67329"
       r="56.813026" />
    <linearGradient
       inkscape:collect="always"
       xlink:href="#light100to0"
       id="linearGradient12340"
       gradientUnits="userSpaceOnUse"
       gradientTransform="matrix(0.194328,0.000000,0.000000,0.232083,1.055240,0.221862)"
       x1="116.05740"
       y1="125.82239"
       x2="161.11528"
       y2="157.26785" />
    <linearGradient
       inkscape:collect="always"
       xlink:href="#light100to0"
       id="linearGradient12341"
       gradientUnits="userSpaceOnUse"
       gradientTransform="matrix(0.209357,0.000000,0.000000,0.215421,1.055240,0.221862)"
       x1="28.449327"
       y1="229.88365"
       x2="64.522881"
       y2="293.34311" />
    <linearGradient
       inkscape:collect="always"
       xlink:href="#light100to0"
       id="linearGradient12342"
       gradientUnits="userSpaceOnUse"
       gradientTransform="matrix(0.293410,0.000000,0.000000,0.153710,1.055240,0.221862)"
       x1="215.57155"
       y1="297.03485"
       x2="280.16443"
       y2="459.96948" />
    <radialGradient
       inkscape:collect="always"
       xlink:href="#light75to0"
       id="radialGradient12343"
       gradientUnits="userSpaceOnUse"
       gradientTransform="matrix(0.208495,0.000000,0.000000,0.216312,1.055240,0.221862)"
       spreadMethod="pad"
       cx="241.64328"
       cy="363.18765"
       fx="241.64328"
       fy="363.18765"
       r="87.556953" />
    <radialGradient
       inkscape:collect="always"
       xlink:href="#light100to0"
       id="radialGradient12344"
       gradientUnits="userSpaceOnUse"
       gradientTransform="matrix(0.195930,0.000000,0.000000,0.230184,1.055240,0.221862)"
       cx="109.47643"
       cy="241.31146"
       fx="109.47643"
       fy="241.31146"
       r="80.045448" />
    <linearGradient
       inkscape:collect="always"
       xlink:href="#light75to0"
       id="linearGradient1746"
       gradientTransform="scale(1.126719,0.887533)"
       x1="6.3504820"
       y1="50.435638"
       x2="21.228043"
       y2="79.106133"
       gradientUnits="userSpaceOnUse" />
    <radialGradient
       inkscape:collect="always"
       xlink:href="#light75to0"
       id="radialGradient1748"
       gradientTransform="scale(1.126719,0.887533)"
       cx="24.368732"
       cy="65.782364"
       fx="24.368732"
       fy="65.782364"
       r="14.113147"
       gradientUnits="userSpaceOnUse" />
    <radialGradient
       inkscape:collect="always"
       xlink:href="#light75to0"
       id="radialGradient1750"
       gradientTransform="scale(1.175586,0.850639)"
       cx="25.485535"
       cy="70.253021"
       fx="25.485535"
       fy="70.253021"
       r="8.5406704"
       gradientUnits="userSpaceOnUse" />
    <linearGradient
       inkscape:collect="always"
       xlink:href="#light75to0"
       id="linearGradient1752"
       gradientTransform="scale(1.175586,0.850639)"
       x1="15.951821"
       y1="62.063644"
       x2="8.6564579"
       y2="73.892746"
       gradientUnits="userSpaceOnUse"
       spreadMethod="reflect" />
  </defs>
  <sodipodi:namedview
     id="base"
     pagecolor="#ffffff"
     bordercolor="#666666"
     borderopacity="1.0"
     inkscape:pageopacity="0.0"
     inkscape:pageshadow="2"
     inkscape:zoom="11.640625"
     inkscape:cx="32.000000"
     inkscape:cy="32.523590"
     inkscape:current-layer="layer1"
     showgrid="true"
     inkscape:grid-bbox="true"
     gridspacingy="1.0000000pt"
     gridspacingx="1.0000000pt"
     gridoriginy="0.0000000pt"
     gridoriginx="0.0000000pt"
     inkscape:window-width="1280"
     inkscape:window-height="904"
     inkscape:window-x="0"
     inkscape:window-y="25" />
  <metadata
     id="metadata4">
    <rdf:RDF
       id="RDF5">
      <cc:Work
         rdf:about=""
         id="Work6">
        <dc:format
           id="format7">image/svg+xml</dc:format>
        <dc:type
           id="type9"
           rdf:resource="http://purl.org/dc/dcmitype/StillImage" />
      </cc:Work>
    </rdf:RDF>
  </metadata>
  <g
     id="layer1"
     inkscape:label="Layer 1"
     inkscape:groupmode="layer">
    <path
       style="fill:none;fill-opacity:1.0000000;stroke:#000000;stroke-width:4.1199274;stroke-linecap:butt;stroke-linejoin:round;stroke-miterlimit:4.0000000;stroke-dashoffset:0.0000000;stroke-opacity:0.073770471;"
       d="M 41.253250,2.5818722 C 34.751900,2.5818722 29.474988,8.0418574 29.474986,14.770993 C 29.474988,18.183029 30.834112,21.268041 33.019124,23.481468 L 33.019124,29.385468 L 22.380047,29.385468 C 21.832984,29.385468 21.387422,29.802146 21.387422,30.320958 L 21.387422,42.364561 C 21.387422,42.883374 21.832984,43.300052 22.380047,43.300052 L 33.019124,43.300052 L 33.019124,61.580274 C 26.455176,60.550039 20.269397,58.301325 14.625578,55.087258 L 20.528035,52.017453 L 4.9724637,47.707264 L 9.2027794,63.804664 L 11.301283,59.425170 C 17.391679,70.380045 28.504168,77.740036 41.246588,77.740036 C 53.899368,77.740036 64.962264,70.481080 71.085299,59.653846 L 73.190468,64.033339 L 77.414118,47.935938 L 61.858549,52.246137 L 67.614444,55.239713 C 62.044913,58.366461 55.948291,60.558739 49.494036,61.573341 L 49.494036,43.300052 L 60.133114,43.300052 C 60.680175,43.300052 61.119080,42.883374 61.119077,42.364561 L 61.119077,30.320958 C 61.119074,29.802150 60.680175,29.385468 60.133114,29.385468 L 49.494036,29.385468 L 49.494036,23.474540 C 51.675320,21.261569 53.031513,18.179716 53.031513,14.770993 C 53.031515,8.0418574 47.754602,2.5818722 41.253250,2.5818722 z M 41.259911,9.8579260 C 43.658846,9.8579260 45.603479,11.929952 45.603479,14.486880 C 45.603481,17.043811 43.658845,19.122766 41.259911,19.122766 C 38.860981,19.122766 36.909682,17.043810 36.909682,14.486880 C 36.909684,11.929953 38.860978,9.8579260 41.259911,9.8579260 z "
       id="path12271"
       transform="translate(-0.625000,0.000000)" />
    <path
       style="fill:url(#linearGradient12334);fill-opacity:1.0000000;stroke:url(#linearGradient12335);stroke-width:1.6777024;stroke-linecap:butt;stroke-linejoin:round;stroke-miterlimit:4.0000000;stroke-dashoffset:0.0000000;stroke-opacity:1.0000000;"
       d="M 41.253250,2.5818722 C 34.751900,2.5818722 29.474988,8.0418574 29.474986,14.770993 C 29.474988,18.183029 30.834112,21.268041 33.019124,23.481468 L 33.019124,29.385468 L 22.380047,29.385468 C 21.832984,29.385468 21.387422,29.802146 21.387422,30.320958 L 21.387422,42.364561 C 21.387422,42.883374 21.832984,43.300052 22.380047,43.300052 L 33.019124,43.300052 L 33.019124,61.580274 C 26.455176,60.550039 20.269397,58.301325 14.625578,55.087258 L 20.528035,52.017453 L 4.9724637,47.707264 L 9.2027794,63.804664 L 11.301283,59.425170 C 17.391679,70.380045 28.504168,77.740036 41.246588,77.740036 C 53.899368,77.740036 64.962264,70.481080 71.085299,59.653846 L 73.190468,64.033339 L 77.414118,47.935938 L 61.858549,52.246137 L 67.614444,55.239713 C 62.044913,58.366461 55.948291,60.558739 49.494036,61.573341 L 49.494036,43.300052 L 60.133114,43.300052 C 60.680175,43.300052 61.119080,42.883374 61.119077,42.364561 L 61.119077,30.320958 C 61.119074,29.802150 60.680175,29.385468 60.133114,29.385468 L 49.494036,29.385468 L 49.494036,23.474540 C 51.675320,21.261569 53.031513,18.179716 53.031513,14.770993 C 53.031515,8.0418574 47.754602,2.5818722 41.253250,2.5818722 z M 41.259911,9.8579260 C 43.658846,9.8579260 45.603479,11.929952 45.603479,14.486880 C 45.603481,17.043811 43.658845,19.122766 41.259911,19.122766 C 38.860981,19.122766 36.909682,17.043810 36.909682,14.486880 C 36.909684,11.929953 38.860978,9.8579260 41.259911,9.8579260 z "
       id="path1641"
       transform="translate(-0.625000,0.000000)" />
    <path
       style="fill:url(#radialGradient12336);fill-opacity:1.0000000;stroke:none;stroke-width:7.9000001;stroke-linecap:butt;stroke-linejoin:round;stroke-miterlimit:4.0000000;stroke-dashoffset:0.0000000;stroke-opacity:1.0000000;"
       d="M 42.032828,70.525282 C 19.303250,70.972021 12.211000,56.023188 4.9724637,47.707264 C 6.3825700,53.073060 7.7926767,58.438867 9.2027794,63.804664 C 9.9022810,62.344836 10.601783,60.885007 11.301283,59.425170 C 17.391679,70.380045 28.504168,77.740036 41.246588,77.740036 C 53.899368,77.740036 64.962264,70.481080 71.085299,59.653846 C 71.787025,61.113683 72.488743,62.573510 73.190468,64.033339 C 74.598351,58.667541 75.898926,54.899064 77.414118,47.935938 C 77.414118,47.935938 64.655100,70.078550 42.032828,70.525282 z "
       id="path3525"
       sodipodi:nodetypes="ccccccccz"
       transform="translate(-0.625000,0.000000)" />
    <path
       style="fill:url(#linearGradient12337);fill-opacity:1.0000000;fill-rule:evenodd;stroke:none;stroke-width:0.25000000pt;stroke-linecap:butt;stroke-linejoin:miter;stroke-opacity:1.0000000;"
       d="M 44.943416,3.0970489 C 39.041584,1.8191890 35.214337,2.6710956 32.173999,6.3981854 C 29.080892,10.189963 27.953298,16.514571 31.959388,21.626008 C 31.494396,13.639386 37.360456,3.6294907 44.943416,3.0970489 z "
       id="path4153"
       sodipodi:nodetypes="czcc"
       transform="translate(-0.625000,0.000000)" />
    <path
       style="fill:url(#linearGradient12338);fill-opacity:1.0000000;fill-rule:evenodd;stroke:none;stroke-width:0.25000000pt;stroke-linecap:butt;stroke-linejoin:miter;stroke-opacity:1.0000000;"
       d="M 39.095725,19.095268 C 39.683361,20.279070 43.784702,21.776435 46.213790,19.251117 C 48.695933,16.670641 47.068787,12.457649 44.722898,11.220196 C 46.386521,13.755985 45.683300,16.089337 44.486994,17.450113 C 43.247268,18.933949 41.126213,19.596986 39.248027,19.143779 L 39.172348,19.117916 L 39.095728,19.095269 L 39.095725,19.095268 z "
       id="path6026"
       sodipodi:nodetypes="czcccccc"
       transform="translate(-0.625000,0.000000)" />
    <path
       style="fill:url(#radialGradient12339);fill-opacity:1.0000000;stroke:none;stroke-width:7.9000001;stroke-linecap:butt;stroke-linejoin:round;stroke-miterlimit:4.0000000;stroke-dashoffset:0.0000000;stroke-opacity:1.0000000;"
       d="M 33.019124,29.385468 L 49.436941,53.309946 L 49.494036,43.300052 L 60.133114,43.300052 C 60.680175,43.300052 61.119080,42.883374 61.119077,42.364561 L 61.119077,30.320958 C 61.119074,29.802150 60.680175,29.385468 60.133114,29.385468 L 49.494036,29.385468 L 33.019124,29.385468 z "
       id="path6031"
       sodipodi:nodetypes="ccccccccc"
       transform="translate(-0.625000,0.000000)" />
    <path
       style="fill:url(#linearGradient12340);fill-opacity:1.0000000;fill-rule:evenodd;stroke:none;stroke-width:0.25000000pt;stroke-linecap:butt;stroke-linejoin:miter;stroke-opacity:1.0000000;"
       d="M 33.032448,29.399649 C 28.775977,29.364155 26.474084,29.419005 23.052988,29.399649 C 22.250842,29.395112 21.564888,30.098053 21.550706,30.464533 C 21.397289,34.429179 21.550706,38.202680 21.550706,42.071753 C 24.984498,41.645798 22.811605,37.221332 25.950250,34.511088 C 29.488666,31.455639 33.497441,32.523305 33.032448,29.399649 z "
       id="path6654"
       sodipodi:nodetypes="ccscsc"
       transform="translate(-0.625000,0.000000)" />
    <path
       style="fill:url(#linearGradient12342);fill-opacity:1.0000000;fill-rule:evenodd;stroke:none;stroke-width:0.25000000pt;stroke-linecap:butt;stroke-linejoin:miter;stroke-opacity:1.0000000;"
       d="M 77.135207,47.822121 C 72.306438,49.206465 67.155754,50.803793 62.326983,52.188137 C 63.793501,53.217527 66.118464,54.140429 67.584979,55.169818 C 64.186955,57.086599 54.994407,60.565216 50.308714,61.452616 C 57.748598,62.056055 63.988580,59.946092 68.658040,57.512557 C 73.327505,55.079015 76.741755,49.561429 77.135207,47.822121 z "
       id="path8527"
       sodipodi:nodetypes="cccczc"
       transform="translate(-0.625000,0.000000)" />
    <path
       style="fill:url(#radialGradient12343);fill-opacity:1.0000000;stroke:none;stroke-width:7.9000001;stroke-linecap:butt;stroke-linejoin:round;stroke-miterlimit:4.0000000;stroke-dashoffset:0.0000000;stroke-opacity:1.0000000;"
       d="M 41.253250,2.5818722 C 34.751900,2.5818722 29.474988,8.0418574 29.474986,14.770993 C 29.474988,18.183029 30.834112,21.268041 33.019124,23.481468 L 33.019124,29.385468 L 22.380047,29.385468 C 21.832984,29.385468 21.387422,29.802146 21.387422,30.320958 L 21.387422,42.364561 C 21.387422,42.883374 21.832984,43.300052 22.380047,43.300052 L 33.019124,43.300052 L 33.019124,61.580274 C 26.455176,60.550039 20.269397,58.301325 14.625578,55.087258 L 20.528035,52.017453 L 4.9724637,47.707264 L 9.2027794,63.804664 L 11.301283,59.425170 C 17.391679,70.380045 28.504168,77.740036 41.246588,77.740036 C 53.899368,77.740036 64.962264,70.481080 71.085299,59.653846 L 73.190468,64.033339 L 77.414118,47.935938 L 61.858549,52.246137 L 67.614444,55.239713 C 62.044913,58.366461 55.948291,60.558739 49.494036,61.573341 L 49.494036,43.300052 L 60.133114,43.300052 C 60.680175,43.300052 61.119080,42.883374 61.119077,42.364561 L 61.119077,30.320958 C 61.119074,29.802150 60.680175,29.385468 60.133114,29.385468 L 49.494036,29.385468 L 49.494036,23.474540 C 51.675320,21.261569 53.031513,18.179716 53.031513,14.770993 C 53.031515,8.0418574 47.754602,2.5818722 41.253250,2.5818722 z M 41.259911,9.8579260 C 43.658846,9.8579260 45.603479,11.929952 45.603479,14.486880 C 45.603481,17.043811 43.658845,19.122766 41.259911,19.122766 C 38.860981,19.122766 36.909682,17.043810 36.909682,14.486880 C 36.909684,11.929953 38.860978,9.8579260 41.259911,9.8579260 z "
       id="path11645"
       transform="translate(-0.625000,0.000000)" />
    <path
       style="fill:none;fill-opacity:1.0000000;stroke:#000000;stroke-width:3.2970042;stroke-linecap:butt;stroke-linejoin:round;stroke-miterlimit:4.0000000;stroke-dashoffset:0.0000000;stroke-opacity:0.11475409;"
       d="M 41.253250,2.5818722 C 34.751900,2.5818722 29.474988,8.0418574 29.474986,14.770993 C 29.474988,18.183029 30.834112,21.268041 33.019124,23.481468 L 33.019124,29.385468 L 22.380047,29.385468 C 21.832984,29.385468 21.387422,29.802146 21.387422,30.320958 L 21.387422,42.364561 C 21.387422,42.883374 21.832984,43.300052 22.380047,43.300052 L 33.019124,43.300052 L 33.019124,61.580274 C 26.455176,60.550039 20.269397,58.301325 14.625578,55.087258 L 20.528035,52.017453 L 4.9724637,47.707264 L 9.2027794,63.804664 L 11.301283,59.425170 C 17.391679,70.380045 28.504168,77.740036 41.246588,77.740036 C 53.899368,77.740036 64.962264,70.481080 71.085299,59.653846 L 73.190468,64.033339 L 77.414118,47.935938 L 61.858549,52.246137 L 67.614444,55.239713 C 62.044913,58.366461 55.948291,60.558739 49.494036,61.573341 L 49.494036,43.300052 L 60.133114,43.300052 C 60.680175,43.300052 61.119080,42.883374 61.119077,42.364561 L 61.119077,30.320958 C 61.119074,29.802150 60.680175,29.385468 60.133114,29.385468 L 49.494036,29.385468 L 49.494036,23.474540 C 51.675320,21.261569 53.031513,18.179716 53.031513,14.770993 C 53.031515,8.0418574 47.754602,2.5818722 41.253250,2.5818722 z M 41.259911,9.8579260 C 43.658846,9.8579260 45.603479,11.929952 45.603479,14.486880 C 45.603481,17.043811 43.658845,19.122766 41.259911,19.122766 C 38.860981,19.122766 36.909682,17.043810 36.909682,14.486880 C 36.909684,11.929953 38.860978,9.8579260 41.259911,9.8579260 z "
       id="path11647"
       transform="translate(-0.625000,0.000000)" />
    <path
       style="fill:none;fill-opacity:1.0000000;stroke:#000000;stroke-width:2.1555293;stroke-linecap:butt;stroke-linejoin:round;stroke-miterlimit:4.0000000;stroke-dashoffset:0.0000000;stroke-opacity:0.073770471;"
       d="M 41.253250,2.5818722 C 34.751900,2.5818722 29.474988,8.0418574 29.474986,14.770993 C 29.474988,18.183029 30.834112,21.268041 33.019124,23.481468 L 33.019124,29.385468 L 22.380047,29.385468 C 21.832984,29.385468 21.387422,29.802146 21.387422,30.320958 L 21.387422,42.364561 C 21.387422,42.883374 21.832984,43.300052 22.380047,43.300052 L 33.019124,43.300052 L 33.019124,61.580274 C 26.455176,60.550039 20.269397,58.301325 14.625578,55.087258 L 20.528035,52.017453 L 4.9724637,47.707264 L 9.2027794,63.804664 L 11.301283,59.425170 C 17.391679,70.380045 28.504168,77.740036 41.246588,77.740036 C 53.899368,77.740036 64.962264,70.481080 71.085299,59.653846 L 73.190468,64.033339 L 77.414118,47.935938 L 61.858549,52.246137 L 67.614444,55.239713 C 62.044913,58.366461 55.948291,60.558739 49.494036,61.573341 L 49.494036,43.300052 L 60.133114,43.300052 C 60.680175,43.300052 61.119080,42.883374 61.119077,42.364561 L 61.119077,30.320958 C 61.119074,29.802150 60.680175,29.385468 60.133114,29.385468 L 49.494036,29.385468 L 49.494036,23.474540 C 51.675320,21.261569 53.031513,18.179716 53.031513,14.770993 C 53.031515,8.0418574 47.754602,2.5818722 41.253250,2.5818722 z M 41.259911,9.8579260 C 43.658846,9.8579260 45.603479,11.929952 45.603479,14.486880 C 45.603481,17.043811 43.658845,19.122766 41.259911,19.122766 C 38.860981,19.122766 36.909682,17.043810 36.909682,14.486880 C 36.909684,11.929953 38.860978,9.8579260 41.259911,9.8579260 z "
       id="path12269"
       transform="translate(-0.625000,0.000000)" />
    <path
       style="fill:none;fill-opacity:1.0000000;stroke:#000000;stroke-width:1.4653352;stroke-linecap:butt;stroke-linejoin:round;stroke-miterlimit:4.0000000;stroke-dashoffset:0.0000000;stroke-opacity:0.073770471;"
       d="M 41.253250,2.5818722 C 34.751900,2.5818722 29.474988,8.0418574 29.474986,14.770993 C 29.474988,18.183029 30.834112,21.268041 33.019124,23.481468 L 33.019124,29.385468 L 22.380047,29.385468 C 21.832984,29.385468 21.387422,29.802146 21.387422,30.320958 L 21.387422,42.364561 C 21.387422,42.883374 21.832984,43.300052 22.380047,43.300052 L 33.019124,43.300052 L 33.019124,61.580274 C 26.455176,60.550039 20.269397,58.301325 14.625578,55.087258 L 20.528035,52.017453 L 4.9724637,47.707264 L 9.2027794,63.804664 L 11.301283,59.425170 C 17.391679,70.380045 28.504168,77.740036 41.246588,77.740036 C 53.899368,77.740036 64.962264,70.481080 71.085299,59.653846 L 73.190468,64.033339 L 77.414118,47.935938 L 61.858549,52.246137 L 67.614444,55.239713 C 62.044913,58.366461 55.948291,60.558739 49.494036,61.573341 L 49.494036,43.300052 L 60.133114,43.300052 C 60.680175,43.300052 61.119080,42.883374 61.119077,42.364561 L 61.119077,30.320958 C 61.119074,29.802150 60.680175,29.385468 60.133114,29.385468 L 49.494036,29.385468 L 49.494036,23.474540 C 51.675320,21.261569 53.031513,18.179716 53.031513,14.770993 C 53.031515,8.0418574 47.754602,2.5818722 41.253250,2.5818722 z M 41.259911,9.8579260 C 43.658846,9.8579260 45.603479,11.929952 45.603479,14.486880 C 45.603481,17.043811 43.658845,19.122766 41.259911,19.122766 C 38.860981,19.122766 36.909682,17.043810 36.909682,14.486880 C 36.909684,11.929953 38.860978,9.8579260 41.259911,9.8579260 z "
       id="path12270"
       transform="translate(-0.625000,0.000000)" />
    <path
       style="fill:url(#linearGradient1746);fill-opacity:1.0;fill-rule:evenodd;stroke:none;stroke-width:0.25000000pt;stroke-linecap:butt;stroke-linejoin:miter;stroke-opacity:1.0000000;"
       d="M 32.402265,45.368079 C 32.402266,50.195548 32.406250,56.610032 32.406250,61.437500 C 27.040950,60.940554 18.774545,57.369746 14.375000,55.062500 C 14.393438,54.910833 16.843942,53.170782 19.093750,51.750000 C 18.020688,51.537025 6.4368708,48.460780 4.7187500,48.031250 L 6.2187500,53.781250 C 7.3280123,53.514295 6.2890179,51.735706 6.9687500,51.468750 C 9.0071058,52.884401 8.9428314,53.876218 13.218750,58.631711 C 18.411620,64.406999 30.456691,71.884567 36.500000,68.312500 C 40.905919,65.708258 35.407751,42.072037 32.402265,45.368079 z "
       id="path9153"
       sodipodi:nodetypes="cccccccssc" />
    <path
       style="fill:url(#radialGradient1750);fill-opacity:1.0;fill-rule:evenodd;stroke:none;stroke-width:0.25000000pt;stroke-linecap:butt;stroke-linejoin:miter;stroke-opacity:1.0000000;"
       d="M 32.402265,45.368079 C 32.402266,50.195548 32.406250,56.610032 32.406250,61.437500 C 27.040950,60.940554 18.774545,57.369746 14.375000,55.062500 C 14.393438,54.910833 16.843942,53.170782 19.093750,51.750000 C 18.020688,51.537025 6.4368708,48.460780 4.7187500,48.031250 L 6.2187500,53.781250 C 7.3280123,53.514295 6.2890179,51.735706 6.9687500,51.468750 C 9.0071058,52.884401 8.9428314,53.876218 13.218750,58.631711 C 18.411620,64.406999 30.456691,71.884567 36.500000,68.312500 C 40.905919,65.708258 35.407751,42.072037 32.402265,45.368079 z "
       id="path1749"
       sodipodi:nodetypes="cccccccssc" />
    <path
       style="fill:url(#linearGradient1752);fill-opacity:1.0;fill-rule:evenodd;stroke:none;stroke-width:0.25000000pt;stroke-linecap:butt;stroke-linejoin:miter;stroke-opacity:1.0000000;"
       d="M 32.402265,45.368079 C 32.402266,50.195548 32.406250,56.610032 32.406250,61.437500 C 27.040950,60.940554 18.774545,57.369746 14.375000,55.062500 C 14.393438,54.910833 16.843942,53.170782 19.093750,51.750000 C 18.020688,51.537025 6.4368708,48.460780 4.7187500,48.031250 L 6.2187500,53.781250 C 7.3280123,53.514295 6.2890179,51.735706 6.9687500,51.468750 C 9.0071058,52.884401 8.9428314,53.876218 13.218750,58.631711 C 18.411620,64.406999 30.456691,71.884567 36.500000,68.312500 C 40.905919,65.708258 35.407751,42.072037 32.402265,45.368079 z "
       id="path1751"
       sodipodi:nodetypes="cccccccssc" />
    <path
       style="fill:url(#linearGradient12337);fill-opacity:1.0000000;fill-rule:evenodd;stroke:none;stroke-width:0.25000000pt;stroke-linecap:butt;stroke-linejoin:miter;stroke-opacity:1.0000000;"
       d="M 44.943416,3.0970489 C 39.041584,1.8191890 35.214337,2.6710956 32.173999,6.3981854 C 29.080892,10.189963 27.953298,16.514571 31.959388,21.626008 C 31.494396,13.639386 37.360456,3.6294907 44.943416,3.0970489 z "
       id="path1753"
       sodipodi:nodetypes="czcc"
       transform="translate(-0.625000,0.000000)" />
    <path
       style="fill:url(#linearGradient12338);fill-opacity:1.0000000;fill-rule:evenodd;stroke:none;stroke-width:0.25000000pt;stroke-linecap:butt;stroke-linejoin:miter;stroke-opacity:1.0000000;"
       d="M 39.095725,19.095268 C 39.683361,20.279070 43.784702,21.776435 46.213790,19.251117 C 48.695933,16.670641 47.068787,12.457649 44.722898,11.220196 C 46.386521,13.755985 45.683300,16.089337 44.486994,17.450113 C 43.247268,18.933949 41.126213,19.596986 39.248027,19.143779 L 39.172348,19.117916 L 39.095728,19.095269 L 39.095725,19.095268 z "
       id="path1754"
       sodipodi:nodetypes="czcccccc"
       transform="translate(-0.625000,0.000000)" />
  </g>
</svg>
