<?xml version="1.0" encoding="UTF-8" standalone="no"?>
<!-- Created with Inkscape (http://www.inkscape.org/) -->
<svg
   xmlns:dc="http://purl.org/dc/elements/1.1/"
   xmlns:cc="http://web.resource.org/cc/"
   xmlns:rdf="http://www.w3.org/1999/02/22-rdf-syntax-ns#"
   xmlns:svg="http://www.w3.org/2000/svg"
   xmlns="http://www.w3.org/2000/svg"
   xmlns:xlink="http://www.w3.org/1999/xlink"
   xmlns:sodipodi="http://inkscape.sourceforge.net/DTD/sodipodi-0.dtd"
   xmlns:inkscape="http://www.inkscape.org/namespaces/inkscape"
   sodipodi:docbase="/home/pinheiro/kdeplayground-artwork/oooicons/crystalsvg"
   sodipodi:docname="animationeffects.svg"
   inkscape:version="0.41"
   sodipodi:version="0.32"
   version="1.0"
   x="0.0000000"
   y="0.0000000"
   width="48.000000"
   height="48.000000"
   id="svg1412"
   inkscape:export-filename="/home/pinheiro/kdeplayground-artwork/oooicons/crystalsvg/animationeffects.png"
   inkscape:export-xdpi="60.000000"
   inkscape:export-ydpi="60.000000">
  <metadata
     id="metadata41">
    <rdf:RDF
       id="RDF43">
      <cc:Work
         id="Work45"
         rdf:about="">
        <dc:format
           id="format47">image/svg+xml</dc:format>
        <dc:type
           rdf:resource="http://purl.org/dc/dcmitype/StillImage"
           id="type49" />
      </cc:Work>
    </rdf:RDF>
  </metadata>
  <sodipodi:namedview
     inkscape:current-layer="layer1"
     inkscape:window-y="203"
     inkscape:window-x="76"
     inkscape:zoom="4.9119410"
     inkscape:cx="48.152241"
     inkscape:cy="23.586246"
     inkscape:window-height="540"
     inkscape:window-width="640"
     inkscape:pageshadow="2"
     inkscape:pageopacity="0.0"
     borderopacity="1.0"
     bordercolor="#666666"
     pagecolor="#ffffff"
     id="base"
     showgrid="true" />
  <defs
     id="defs3">
    <linearGradient
       inkscape:collect="always"
       xlink:href="#light100to0"
       id="linearGradient12706"
       gradientUnits="userSpaceOnUse"
       gradientTransform="matrix(-1.178224,0.000000,0.000000,-0.576209,8.659658,40.50238)"
       x1="-65.990189"
       y1="-214.22188"
       x2="-65.639671"
       y2="-226.53479" />
    <radialGradient
       cx="38.797401"
       cy="112.96090"
       r="67.358803"
       fx="38.797401"
       fy="112.96090"
       id="bluedarktoblackblue"
       gradientUnits="userSpaceOnUse">
      <stop
         style="stop-color:#0356fe;stop-opacity:1.0000000;"
         offset="0.0000000"
         id="stop2959" />
      <stop
         style="stop-color:#032442;stop-opacity:1.0000000;"
         offset="1.0000000"
         id="stop2960" />
    </radialGradient>
    <linearGradient
       inkscape:collect="always"
       xlink:href="#bluedarktoblackblue"
       id="linearGradient12702"
       gradientTransform="scale(1.309139,0.763861)"
       x1="56.570652"
       y1="209.39684"
       x2="71.634178"
       y2="237.81303"
       gradientUnits="userSpaceOnUse" />
    <linearGradient
       inkscape:collect="always"
       xlink:href="#bluelignonlinblu"
       id="linearGradient11931"
       gradientUnits="userSpaceOnUse"
       gradientTransform="scale(-1.309138,-0.763861)"
       x1="-53.441853"
       y1="-197.36633"
       x2="-72.369476"
       y2="-236.33725" />
    <radialGradient
       cx="38.797401"
       cy="112.96090"
       r="67.358803"
       fx="38.797401"
       fy="112.96090"
       id="bluelignonlinblu"
       gradientUnits="userSpaceOnUse">
      <stop
         style="stop-color:#d9ffff;stop-opacity:1.0000000;"
         offset="0.0055999998"
         id="stop84" />
      <stop
         style="stop-color:#95d9ff;stop-opacity:1.0000000;"
         offset="0.13480000"
         id="stop86" />
      <stop
         style="stop-color:#68b9ff;stop-opacity:1.0000000;"
         offset="0.32049999"
         id="stop88" />
      <stop
         style="stop-color:#3293fe;stop-opacity:1.0000000;"
         offset="0.56800002"
         id="stop90" />
      <stop
         style="stop-color:#107bfe;stop-opacity:1.0000000;"
         offset="0.75340003"
         id="stop92" />
      <stop
         style="stop-color:#0372fe;stop-opacity:1.0000000;"
         offset="0.85390002"
         id="stop94" />
      <stop
         style="stop-color:#0356fe;stop-opacity:1.0000000;"
         offset="1.0000000"
         id="stop96" />
    </radialGradient>
    <linearGradient
       inkscape:collect="always"
       xlink:href="#bluelignonlinblu"
       id="linearGradient12808"
       gradientUnits="userSpaceOnUse"
       gradientTransform="scale(-1.309138,-0.763861)"
       x1="-53.441853"
       y1="-197.36633"
       x2="-72.369476"
       y2="-236.33725" />
    <linearGradient
       inkscape:collect="always"
       xlink:href="#light100to0"
       id="linearGradient8145"
       gradientUnits="userSpaceOnUse"
       gradientTransform="scale(0.859142,1.163952)"
       spreadMethod="pad"
       x1="72.409058"
       y1="146.02444"
       x2="87.291985"
       y2="179.08333" />
    <linearGradient
       id="light100to0">
      <stop
         style="stop-color:#ffffff;stop-opacity:1.0000000;"
         offset="0.0000000"
         id="stop2764" />
      <stop
         style="stop-color:#ffffff;stop-opacity:0.0000000;"
         offset="1.0000000"
         id="stop2765" />
    </linearGradient>
    <linearGradient
       inkscape:collect="always"
       xlink:href="#light100to0"
       id="linearGradient7383"
       gradientTransform="scale(0.859142,1.163952)"
       x1="89.259972"
       y1="186.23854"
       x2="79.174026"
       y2="158.88571"
       gradientUnits="userSpaceOnUse"
       spreadMethod="pad" />
    <linearGradient
       id="shadow0wto25to0">
      <stop
         style="stop-color:#ffffff;stop-opacity:0.0000000;"
         offset="0.0000000"
         id="stop3437" />
      <stop
         style="stop-color:#000000;stop-opacity:0.27916667;"
         offset="0.50000000"
         id="stop3438" />
      <stop
         style="stop-color:#000000;stop-opacity:0.0000000;"
         offset="1.0000000"
         id="stop3439" />
    </linearGradient>
    <radialGradient
       inkscape:collect="always"
       xlink:href="#shadow0wto25to0"
       id="radialGradient6623"
       gradientTransform="scale(0.831851,1.202139)"
       cx="85.725777"
       cy="199.52441"
       fx="85.725777"
       fy="199.52441"
       r="46.232933"
       gradientUnits="userSpaceOnUse" />
    <linearGradient
       id="light90to0">
      <stop
         style="stop-color:#ffffff;stop-opacity:0.90833336;"
         offset="0.0000000"
         id="stop1890" />
      <stop
         style="stop-color:#ffffff;stop-opacity:0.0000000;"
         offset="1.0000000"
         id="stop1892" />
    </linearGradient>
    <radialGradient
       inkscape:collect="always"
       xlink:href="#light90to0"
       id="radialGradient5843"
       gradientTransform="scale(1.208127,0.827728)"
       cx="69.910759"
       cy="279.37149"
       fx="69.910759"
       fy="279.37149"
       r="18.067240"
       gradientUnits="userSpaceOnUse"
       spreadMethod="pad" />
    <linearGradient
       id="blacktowhite">
      <stop
         style="stop-color:#000000;stop-opacity:1.0000000;"
         offset="0.0000000"
         id="stop2476" />
      <stop
         style="stop-color:#ffffff;stop-opacity:1.0000000;"
         offset="1.0000000"
         id="stop2475" />
    </linearGradient>
    <linearGradient
       inkscape:collect="always"
       xlink:href="#blacktowhite"
       id="linearGradient2752"
       gradientTransform="scale(0.778499,1.284524)"
       x1="96.976326"
       y1="157.14804"
       x2="24.387333"
       y2="99.690155"
       gradientUnits="userSpaceOnUse"
       spreadMethod="reflect" />
    <linearGradient
       id="greylighttograyw">
      <stop
         style="stop-color:#b5b5b8;stop-opacity:1.0000000;"
         offset="0.0000000"
         id="stop575" />
      <stop
         style="stop-color:#ebebee;stop-opacity:1.0000000;"
         offset="1.0000000"
         id="stop576" />
    </linearGradient>
    <linearGradient
       inkscape:collect="always"
       xlink:href="#greylighttograyw"
       id="linearGradient5073"
       gradientTransform="scale(0.778499,1.284524)"
       x1="78.248695"
       y1="136.51736"
       x2="83.356216"
       y2="165.42656"
       gradientUnits="userSpaceOnUse"
       spreadMethod="reflect" />
    <linearGradient
       y2="25.909836"
       x2="80.003250"
       y1="48.322163"
       x1="64.317574"
       gradientUnits="userSpaceOnUse"
       id="linearGradient1326"
       xlink:href="#defitem1"
       inkscape:collect="always" />
    <radialGradient
       r="62.035137"
       fy="97.603897"
       fx="47.368156"
       cy="97.603897"
       cx="47.368156"
       gradientUnits="userSpaceOnUse"
       id="radialGradient1324"
       xlink:href="#defitem0"
       inkscape:collect="always" />
    <radialGradient
       cx="25.941132"
       cy="42.246212"
       r="33.692192"
       fx="25.941132"
       fy="42.246212"
       id="radialGradient854"
       xlink:href="#defitem0"
       gradientUnits="userSpaceOnUse" />
    <linearGradient
       x1="2.1516399"
       y1="120.67600"
       x2="47.040798"
       y2="70.134598"
       id="defitem1"
       gradientUnits="userSpaceOnUse">
      <stop
         style="stop-color:#ffffff;stop-opacity:1.0000000;"
         offset="0.0000000"
         id="stop7" />
      <stop
         style="stop-color:#ffffff;stop-opacity:0.0000000;"
         offset="1.0000000"
         id="stop8" />
    </linearGradient>
    <radialGradient
       cx="25.344200"
       cy="85.846298"
       r="20.445000"
       fx="25.344200"
       fy="85.846298"
       id="defitem0"
       gradientUnits="userSpaceOnUse">
      <stop
         style="stop-color:#ffffff;stop-opacity:1.0000000;"
         offset="0.0000000"
         id="stop4" />
      <stop
         style="stop-color:#cccccc;stop-opacity:1.0000000;"
         offset="1.0000000"
         id="stop5" />
    </radialGradient>
    <linearGradient
       x1="17.961576"
       y1="103.89955"
       x2="47.040798"
       y2="70.134598"
       id="linearGradient1463"
       xlink:href="#defitem1"
       gradientUnits="userSpaceOnUse" />
    <linearGradient
       x1="-1.3474296"
       y1="4.7791934"
       x2="12.032775"
       y2="26.655622"
       id="linearGradient2325"
       xlink:href="#linearGradient2263"
       gradientUnits="userSpaceOnUse"
       gradientTransform="scale(1.309139,0.763861)" />
    <linearGradient
       id="linearGradient2263">
      <stop
         style="stop-color:#004dff;stop-opacity:1.0000000;"
         offset="0.0000000"
         id="stop2265" />
      <stop
         style="stop-color:#00cfff;stop-opacity:1.0000000;"
         offset="1.0000000"
         id="stop2267" />
    </linearGradient>
    <linearGradient
       x1="4.7820072"
       y1="17.638754"
       x2="4.7820072"
       y2="8.5986280"
       id="linearGradient2327"
       xlink:href="#defitem1"
       gradientUnits="userSpaceOnUse"
       gradientTransform="scale(1.196584,0.835712)" />
    <linearGradient
       x1="-1.3474296"
       y1="4.7791934"
       x2="12.032775"
       y2="26.655622"
       id="linearGradient1360"
       xlink:href="#linearGradient2263"
       gradientUnits="userSpaceOnUse"
       gradientTransform="scale(1.309139,0.763861)" />
    <linearGradient
       x1="4.7820072"
       y1="17.638754"
       x2="4.7820072"
       y2="8.5986280"
       id="linearGradient1362"
       xlink:href="#defitem1"
       gradientUnits="userSpaceOnUse"
       gradientTransform="scale(1.196584,0.835712)" />
    <linearGradient
       y2="154.10789"
       x2="409.73569"
       y1="234.90770"
       x1="149.29594"
       gradientTransform="matrix(0.728114,-1.619744e-2,3.170042e-2,1.425011,-411.8219,-163.2111)"
       gradientUnits="userSpaceOnUse"
       id="linearGradient2546"
       xlink:href="#linearGradient5170"
       inkscape:collect="always" />
    <linearGradient
       id="linearGradient5170">
      <stop
         id="stop5171"
         offset="0.0000000"
         style="stop-color:#8f8fa6;stop-opacity:1.0000000;" />
      <stop
         id="stop5172"
         offset="1.0000000"
         style="stop-color:#ffffff;stop-opacity:1.0000000;" />
    </linearGradient>
    <linearGradient
       y2="145.69553"
       x2="299.20441"
       y1="96.190353"
       x1="304.64722"
       gradientTransform="matrix(0.728114,-1.619744e-2,3.170042e-2,1.425011,-411.8219,-163.2111)"
       gradientUnits="userSpaceOnUse"
       id="linearGradient2543"
       xlink:href="#light90to0"
       inkscape:collect="always" />
    <linearGradient
       id="linearGradient1390">
      <stop
         id="stop1392"
         offset="0.0000000"
         style="stop-color:#ffffff;stop-opacity:0.90196079;" />
      <stop
         id="stop1394"
         offset="1.0000000"
         style="stop-color:#ffffff;stop-opacity:0.0000000;" />
    </linearGradient>
    <radialGradient
       r="105.02886"
       fy="224.28973"
       fx="328.27005"
       cy="224.77423"
       cx="330.11304"
       gradientTransform="matrix(0.901404,-2.005241e-2,2.560619e-2,1.151060,-411.8219,-163.2111)"
       gradientUnits="userSpaceOnUse"
       id="radialGradient2540"
       xlink:href="#light90to0"
       inkscape:collect="always" />
  </defs>
  <path
     d="M 16.125812,1.0000000 L 17.125812,1.0000000 L 17.125812,17.000000 L 16.125812,17.000000 L 16.125812,1.0000000 z "
     style="fill:#000000;fill-opacity:1.0000000;stroke:none;stroke-width:1.7399995;stroke-linecap:round;stroke-linejoin:round;stroke-miterlimit:4.0000000;stroke-opacity:1.0000000"
     id="rect2225" />
  <path
     d="M 1.0000000,16.874188 L 1.0000000,15.874188 L 32.000000,15.874188 L 32.000000,16.874188 L 1.0000000,16.874188 z "
     style="fill:#000000;fill-opacity:1.0000000;stroke:none;stroke-width:1.7399995;stroke-linecap:round;stroke-linejoin:round;stroke-miterlimit:4.0000000;stroke-opacity:1.0000000"
     id="path2228" />
  <path
     d="M 3.0000000,29.817410 L 3.1825904,30.000000 L 30.000000,3.1825904 L 29.817410,3.0000000 L 3.0000000,29.817410 z "
     style="fill:#000000;fill-opacity:1.0000000;stroke:none;stroke-width:1.7399995;stroke-linecap:round;stroke-linejoin:round;stroke-miterlimit:4.0000000;stroke-opacity:1.0000000"
     id="path2230" />
  <path
     d="M 17.000000,16.655402 L 16.907026,16.748376 L 3.2516238,3.0929749 L 3.3445985,3.0000000 L 17.000000,16.655402 z "
     style="fill:#ffd400;fill-opacity:1.0000000;stroke:none;stroke-width:1.7399995;stroke-linecap:round;stroke-linejoin:round;stroke-miterlimit:4.0000000;stroke-opacity:1.0000000"
     id="path2232" />
  <g
     id="g12708"
     transform="matrix(1.023568,0.000000,0.000000,0.973050,-58.56928,-152.2125)">
    <path
       d="M 94.691662,181.07679 L 86.565549,172.95068 L 90.831759,172.96974 C 90.935186,167.42473 84.389636,163.02891 73.083089,173.03922 C 81.803785,155.35386 98.897266,167.26055 98.957872,172.96974 L 102.81778,172.95068 L 94.691662,181.07679 z "
       style="fill:url(#linearGradient12808);fill-opacity:1.0000000;stroke:none;stroke-width:1.7399995;stroke-linecap:round;stroke-linejoin:round;stroke-miterlimit:4.0000000;stroke-opacity:1.0000000"
       id="path12826" />
    <path
       d="M 94.691662,181.07679 L 86.565549,172.95068 L 90.831759,172.96974 C 90.935186,167.42473 84.389636,163.02891 73.083089,173.03922 C 81.126857,156.43694 98.942395,164.19181 98.957872,172.96974 L 102.81778,172.95068 L 94.691662,181.07679 z "
       style="fill:url(#linearGradient11931);fill-opacity:1.0000000;stroke:url(#linearGradient12702);stroke-width:1.5000000;stroke-linecap:round;stroke-linejoin:round;stroke-miterlimit:4.0000000;stroke-opacity:1.0000000"
       id="path12694"
       sodipodi:nodetypes="ccccccc" />
    <path
       d="M 90.679013,172.64973 C 90.817225,166.43614 83.527247,164.33869 74.660082,171.34830 C 81.786652,157.15014 98.524639,164.37178 98.534056,172.69486 L 90.679013,172.64973 z "
       style="fill:url(#linearGradient12706);fill-opacity:1.0000000;stroke:none;stroke-width:1.5000000;stroke-linecap:round;stroke-linejoin:round;stroke-miterlimit:4.0000000;stroke-opacity:1.0000000"
       id="path12704"
       sodipodi:nodetypes="cccc" />
  </g>
  <g
     inkscape:groupmode="layer"
     inkscape:label="Layer 1"
     id="layer1"
     transform="translate(-18.45395,7.152987)">
    <g
       transform="matrix(0.131288,0.000000,0.000000,0.131308,65.63487,14.90082)"
       id="g3338">
      <path
         sodipodi:nodetypes="cccccccccccccccccc"
         id="path3326"
         d="M -240.44301,-68.316144 C -243.86112,-68.437500 -247.18046,-67.085045 -249.64814,-64.565534 C -252.11582,-62.046023 -253.52270,-58.572981 -253.54972,-54.934140 L -254.63730,106.45107 C -254.66290,110.87231 -252.65163,115.02652 -249.25347,117.57112 C -245.85534,120.11570 -241.50131,120.72794 -237.59857,119.20995 L -202.79604,105.62026 L -165.26064,194.27975 C -162.39536,201.06289 -154.91288,204.10154 -148.52866,201.07460 L -117.71393,186.44639 C -114.62153,184.97749 -112.20960,182.25380 -111.01533,178.88192 C -109.82107,175.51006 -109.94366,171.77005 -111.35579,168.49491 L -148.13826,83.128988 L -118.55053,70.132717 C -114.52764,68.363354 -111.63849,64.522605 -110.89718,59.958553 C -110.15587,55.394503 -111.66594,50.744795 -114.89739,47.641453 L -232.38377,-64.874209 C -234.60587,-66.994765 -237.45964,-68.213555 -240.44301,-68.316144 z "
         style="fill:#000000;fill-opacity:0.043290023;fill-rule:evenodd;stroke:none;stroke-width:28.424999;stroke-linecap:butt;stroke-linejoin:round;stroke-miterlimit:4.0000000;stroke-opacity:1.0000000" />
      <path
         sodipodi:nodetypes="cccccccccccccccccc"
         id="path3324"
         d="M -239.69867,-68.316081 C -243.29602,-68.438456 -246.78942,-67.074643 -249.38650,-64.533974 C -251.98358,-61.993304 -253.46424,-58.491096 -253.49268,-54.821696 L -254.63729,107.91881 C -254.66423,112.37718 -252.54749,116.56628 -248.97114,119.13225 C -245.39481,121.69820 -240.81246,122.31558 -236.70507,120.78484 L -200.07755,107.08102 L -160.57385,196.48507 C -157.55832,203.32517 -149.68346,206.38934 -142.96447,203.33698 L -110.53386,188.58592 C -107.27930,187.10469 -104.74089,184.35812 -103.48399,180.95793 C -102.22711,177.55775 -102.35612,173.78633 -103.84230,170.48369 L -142.55359,84.400872 L -111.41433,71.295460 C -107.18048,69.511238 -104.13983,65.638235 -103.35965,61.035854 C -102.57946,56.433476 -104.16872,51.744720 -107.56962,48.615317 L -231.21681,-64.845241 C -233.55544,-66.983605 -236.55886,-68.212630 -239.69867,-68.316081 z "
         style="fill:#000000;fill-opacity:0.043290023;fill-rule:evenodd;stroke:none;stroke-width:28.424999;stroke-linecap:butt;stroke-linejoin:round;stroke-miterlimit:4.0000000;stroke-opacity:1.0000000" />
      <path
         sodipodi:nodetypes="cccccccccccccccccc"
         id="path3322"
         d="M -239.17763,-68.315892 C -242.90045,-68.441324 -246.51569,-67.043438 -249.20335,-64.439293 C -251.89102,-61.835147 -253.42332,-58.245440 -253.45275,-54.484364 L -254.63728,112.32203 C -254.66516,116.89179 -252.47459,121.18555 -248.77351,123.81563 C -245.07244,126.44569 -240.33027,127.07849 -236.07962,125.50951 L -198.17461,111.46331 L -157.29309,203.10102 C -154.17239,210.11202 -146.02287,213.25274 -139.06953,210.12412 L -105.50781,195.00452 C -102.13974,193.48628 -99.512796,190.67109 -98.212058,187.18595 C -96.911332,183.70082 -97.044845,179.83518 -98.582864,176.45003 L -138.64432,88.216525 L -106.41899,74.783689 C -102.03747,72.954890 -98.890772,68.985124 -98.083380,64.267758 C -97.275977,59.550395 -98.920664,54.744495 -102.44018,51.536908 L -230.39994,-64.758337 C -232.82014,-66.950125 -235.92831,-68.209856 -239.17763,-68.315892 z "
         style="fill:#000000;fill-opacity:0.043290023;fill-rule:evenodd;stroke:none;stroke-width:28.424999;stroke-linecap:butt;stroke-linejoin:round;stroke-miterlimit:4.0000000;stroke-opacity:1.0000000" />
      <path
         sodipodi:nodetypes="cccccccccccccccccc"
         id="path2558"
         d="M -238.73102,-68.315744 C -242.56139,-68.443555 -246.28106,-67.019167 -249.04636,-64.365652 C -251.81167,-61.712136 -253.38825,-58.054374 -253.41852,-54.221994 L -254.63727,115.74676 C -254.66596,120.40315 -252.41210,124.77832 -248.60411,127.45825 C -244.79612,130.13818 -239.91695,130.78298 -235.54352,129.18426 L -196.54352,114.87176 L -154.48102,208.24676 C -151.27015,215.39068 -142.88521,218.59094 -135.73102,215.40301 L -101.19977,199.99676 C -97.734393,198.44974 -95.031563,195.58118 -93.693253,192.02998 C -92.354953,188.47877 -92.492323,184.53985 -94.074773,181.09051 L -135.29352,91.184256 L -102.13727,77.496756 C -97.629183,75.633286 -94.391583,71.588260 -93.560853,66.781462 C -92.730133,61.974665 -94.422333,57.077654 -98.043523,53.809256 L -229.69977,-64.690744 C -232.18988,-66.924085 -235.38785,-68.207698 -238.73102,-68.315744 z "
         style="fill:#000000;fill-opacity:0.077922054;fill-rule:evenodd;stroke:none;stroke-width:28.424999;stroke-linecap:butt;stroke-linejoin:round;stroke-miterlimit:4.0000000;stroke-opacity:1.0000000" />
      <path
         sodipodi:nodetypes="cccccccc"
         id="path4041"
         style="fill:url(#linearGradient2546);fill-opacity:1.0000000;fill-rule:evenodd;stroke:#000000;stroke-width:12.246215pt;stroke-linecap:butt;stroke-linejoin:round;stroke-opacity:1.0000000"
         d="M -241.66309,-58.084431 L -242.76576,107.59433 L -196.25894,89.190355 L -153.29571,191.98354 L -122.06466,176.97007 L -164.91406,76.222367 L -122.59258,57.413445 L -241.66309,-58.084431 z " />
      <path
         sodipodi:nodetypes="ccccccc"
         id="path4083"
         d="M -242.09167,-56.572017 C -244.06020,-55.969913 -243.33928,-51.783768 -243.42392,-50.574436 L -244.57843,106.76204 C -232.57792,94.476986 -190.75933,112.21309 -208.57692,69.906898 C -241.68022,-20.399695 -143.86250,26.863280 -189.91859,-12.415651 L -234.27306,-54.421089 C -236.85111,-56.634472 -239.21729,-59.170144 -242.09167,-56.572017 z "
         style="fill:url(#linearGradient2543);fill-opacity:1.0000000;fill-rule:evenodd;stroke:none;stroke-width:12.019479pt;stroke-linecap:butt;stroke-linejoin:round;stroke-opacity:1.0000000" />
      <path
         sodipodi:nodetypes="ccccccc"
         id="path4096"
         d="M -231.15568,104.21768 L -196.26907,89.193189 L -153.28120,191.99565 L -122.05471,176.96967 L -164.90106,76.234144 L -121.86062,58.665340 C -161.28054,43.574062 -227.81908,82.437212 -231.15568,104.21768 z "
         style="fill:url(#radialGradient2540);fill-opacity:1.0000000;fill-rule:evenodd;stroke:none;stroke-width:12.019479pt;stroke-linecap:butt;stroke-linejoin:round;stroke-opacity:1.0000000" />
    </g>
  </g>
</svg>
