<?xml version="1.0" encoding="UTF-8" standalone="no"?>
<!-- Created with Inkscape (http://www.inkscape.org/) -->
<svg
   xmlns:dc="http://purl.org/dc/elements/1.1/"
   xmlns:cc="http://web.resource.org/cc/"
   xmlns:rdf="http://www.w3.org/1999/02/22-rdf-syntax-ns#"
   xmlns:svg="http://www.w3.org/2000/svg"
   xmlns="http://www.w3.org/2000/svg"
   xmlns:xlink="http://www.w3.org/1999/xlink"
   xmlns:sodipodi="http://inkscape.sourceforge.net/DTD/sodipodi-0.dtd"
   xmlns:inkscape="http://www.inkscape.org/namespaces/inkscape"
   inkscape:export-ydpi="45.000000"
   inkscape:export-xdpi="45.000000"
   inkscape:export-filename="/home/pinheiro/kdeplayground-artwork/oooicons/crystalsvg/removefilter.png"
   sodipodi:docname="datafilterautofilter.svg"
   sodipodi:docbase="/home/pinheiro/kdeplayground-artwork/oooicons/crystalsvg"
   inkscape:version="0.41"
   sodipodi:version="0.32"
   id="svg13276"
   height="64px"
   width="64px">
  <defs
     id="defs3">
    <linearGradient
       id="garylighttowite">
      <stop
         id="stop5106"
         offset="0.0000000"
         style="stop-color:#7d7d7d;stop-opacity:1.0000000;" />
      <stop
         id="stop5107"
         offset="1.0000000"
         style="stop-color:#d3d4d4;stop-opacity:1.0000000;" />
    </linearGradient>
    <linearGradient
       spreadMethod="reflect"
       gradientUnits="userSpaceOnUse"
       y2="275.21307"
       x2="434.37149"
       y1="102.04493"
       x1="345.70886"
       gradientTransform="matrix(0.158588,0.000000,0.000000,0.170491,-48.38957,-14.64999)"
       id="linearGradient13259"
       xlink:href="#garylighttowite"
       inkscape:collect="always" />
    <linearGradient
       spreadMethod="reflect"
       gradientUnits="userSpaceOnUse"
       y2="273.05020"
       x2="777.66937"
       y1="270.84445"
       x1="667.60266"
       gradientTransform="matrix(0.113673,0.000000,0.000000,0.237853,-48.07475,-14.64932)"
       id="linearGradient8634"
       xlink:href="#graytolightgray"
       inkscape:collect="always" />
    <linearGradient
       id="greylighttograyw">
      <stop
         id="stop575"
         offset="0.0000000"
         style="stop-color:#b5b5b8;stop-opacity:1.0000000;" />
      <stop
         id="stop576"
         offset="1.0000000"
         style="stop-color:#ebebee;stop-opacity:1.0000000;" />
    </linearGradient>
    <linearGradient
       spreadMethod="reflect"
       gradientUnits="userSpaceOnUse"
       y2="191.41595"
       x2="489.91776"
       y1="210.62589"
       x1="360.42029"
       gradientTransform="matrix(0.195946,0.000000,0.000000,0.137984,-48.04937,-14.64932)"
       id="linearGradient4062"
       xlink:href="#greylighttograyw"
       inkscape:collect="always" />
    <radialGradient
       gradientUnits="userSpaceOnUse"
       r="116.47218"
       fy="256.86401"
       fx="178.29204"
       cy="256.86401"
       cx="178.29204"
       gradientTransform="scale(1.585650,0.630656)"
       id="radialGradient11715"
       xlink:href="#light100to0"
       inkscape:collect="always" />
    <linearGradient
       id="graytolightgray">
      <stop
         id="stop5101"
         offset="0.0000000"
         style="stop-color:#d4d3d3;stop-opacity:1.0000000;" />
      <stop
         id="stop5102"
         offset="1.0000000"
         style="stop-color:#ffffff;stop-opacity:1.0000000;" />
    </linearGradient>
    <linearGradient
       spreadMethod="reflect"
       gradientUnits="userSpaceOnUse"
       y2="371.38556"
       x2="377.23828"
       y1="409.79456"
       x1="283.56204"
       gradientTransform="matrix(0.236336,0.000000,0.000000,0.114404,-48.04937,-14.64932)"
       id="linearGradient4054"
       xlink:href="#graytolightgray"
       inkscape:collect="always" />
    <linearGradient
       id="light100to0">
      <stop
         id="stop2764"
         offset="0.0000000"
         style="stop-color:#ffffff;stop-opacity:1.0000000;" />
      <stop
         id="stop2765"
         offset="1.0000000"
         style="stop-color:#ffffff;stop-opacity:0.0000000;" />
    </linearGradient>
    <linearGradient
       gradientUnits="userSpaceOnUse"
       y2="423.30023"
       x2="253.63023"
       y1="322.30713"
       x1="222.57158"
       gradientTransform="matrix(0.320153,0.000000,0.000000,8.010735e-2,-46.58536,-14.03042)"
       id="linearGradient7864"
       xlink:href="#light100to0"
       inkscape:collect="always" />
    <linearGradient
       gradientUnits="userSpaceOnUse"
       y2="22.681667"
       x2="59.157505"
       y1="30.579924"
       x1="33.816196"
       gradientTransform="matrix(0.607496,0.000000,0.000000,1.646102,-2.000000,0.000000)"
       id="linearGradient16411"
       xlink:href="#light100to0"
       inkscape:collect="always" />
    <linearGradient
       y2="22.959185"
       x2="36.525856"
       y1="32.744850"
       x1="44.786060"
       gradientTransform="matrix(0.607496,0.000000,0.000000,1.646102,-2.000000,0.000000)"
       gradientUnits="userSpaceOnUse"
       id="linearGradient17187"
       xlink:href="#light100to0"
       inkscape:collect="always" />
    <linearGradient
       gradientUnits="userSpaceOnUse"
       y2="6.5209355"
       x2="36.910168"
       y1="8.4635162"
       x1="21.491100"
       gradientTransform="matrix(-0.956171,0.000000,0.000000,1.045838,60.86773,-9.213050e-3)"
       id="linearGradient18723"
       xlink:href="#light100to0"
       inkscape:collect="always" />
    <radialGradient
       r="190.24219"
       fy="742.83777"
       fx="217.18332"
       cy="739.74438"
       cx="217.18330"
       gradientTransform="scale(1.000041,0.999959)"
       gradientUnits="userSpaceOnUse"
       id="radialGradient2383"
       xlink:href="#redtodarkred"
       inkscape:collect="always" />
    <linearGradient
       id="redtodarkred">
      <stop
         id="stop3856"
         offset="0.0000000"
         style="stop-color:#ff0000;stop-opacity:1.0000000;" />
      <stop
         id="stop3855"
         offset="1.0000000"
         style="stop-color:#920000;stop-opacity:1.0000000;" />
    </linearGradient>
    <linearGradient
       y2="810.38373"
       x2="340.91357"
       y1="440.88812"
       x1="-27.252979"
       gradientTransform="scale(1.000041,0.999959)"
       gradientUnits="userSpaceOnUse"
       id="linearGradient2384"
       xlink:href="#reddarktoblack"
       inkscape:collect="always" />
    <linearGradient
       id="reddarktoblack">
      <stop
         id="stop3230"
         offset="0.0000000"
         style="stop-color:#8e0000;stop-opacity:1.0000000;" />
      <stop
         id="stop3231"
         offset="1.0000000"
         style="stop-color:#000000;stop-opacity:1.0000000;" />
    </linearGradient>
    <linearGradient
       y2="346.10425"
       x2="183.38441"
       y1="18.164442"
       x1="183.38441"
       gradientUnits="userSpaceOnUse"
       id="linearGradient2385"
       xlink:href="#light90to0"
       inkscape:collect="always" />
    <linearGradient
       id="light90to0">
      <stop
         id="stop1890"
         offset="0.0000000"
         style="stop-color:#ffffff;stop-opacity:0.90196079;" />
      <stop
         id="stop1892"
         offset="1.0000000"
         style="stop-color:#ffffff;stop-opacity:0.0000000;" />
    </linearGradient>
    <radialGradient
       r="166.47372"
       fy="391.47498"
       fx="124.57159"
       cy="391.47498"
       cx="123.88702"
       gradientTransform="matrix(0.184210,0.000000,0.000000,7.817184e-2,66.02301,330.3594)"
       gradientUnits="userSpaceOnUse"
       id="radialGradient2386"
       xlink:href="#light90to0"
       inkscape:collect="always" />
    <linearGradient
       inkscape:collect="always"
       xlink:href="#graytoblack"
       id="linearGradient2239"
       gradientUnits="userSpaceOnUse"
       gradientTransform="matrix(0.844996,0.000000,9.681884e-2,1.183438,0.000000,0.000000)"
       x1="15.250913"
       y1="34.087814"
       x2="6.8373361"
       y2="57.330349" />
    <linearGradient
       inkscape:collect="always"
       xlink:href="#XMLID_1_"
       id="linearGradient1472"
       gradientUnits="userSpaceOnUse"
       gradientTransform="matrix(0.140392,-4.794330e-2,4.243270e-2,0.132515,36.85924,1.489873)"
       x1="100.6055"
       y1="37.1133"
       x2="100.6055"
       y2="139.7401" />
    <linearGradient
       inkscape:collect="always"
       xlink:href="#light100to0"
       id="linearGradient1470"
       gradientUnits="userSpaceOnUse"
       gradientTransform="matrix(0.111869,-3.895482e-2,3.471707e-2,0.110637,43.24986,17.62560)"
       x1="146.38470"
       y1="64.407753"
       x2="307.07626"
       y2="436.28043" />
    <linearGradient
       inkscape:collect="always"
       xlink:href="#redtodarkred"
       id="linearGradient1468"
       gradientUnits="userSpaceOnUse"
       gradientTransform="matrix(0.109030,-3.796587e-2,3.229541e-2,0.102919,43.86369,18.14670)"
       x1="-110.52393"
       y1="27.161866"
       x2="439.44683"
       y2="461.30772" />
    <radialGradient
       inkscape:collect="always"
       xlink:href="#orangelesstoyelow"
       id="radialGradient1466"
       gradientUnits="userSpaceOnUse"
       gradientTransform="matrix(0.108343,-3.772661e-2,3.250021e-2,0.103572,43.86369,18.14670)"
       spreadMethod="reflect"
       cx="186.75356"
       cy="103.61057"
       fx="189.43584"
       fy="25.390987"
       r="117.68623" />
    <linearGradient
       inkscape:collect="always"
       xlink:href="#XMLID_1_"
       id="linearGradient1464"
       gradientUnits="userSpaceOnUse"
       gradientTransform="matrix(0.415564,-0.141914,0.129632,0.404838,36.30471,0.711290)"
       x1="100.6055"
       y1="37.1133"
       x2="100.6055"
       y2="139.7401" />
    <linearGradient
       inkscape:collect="always"
       xlink:href="#light75to0"
       id="linearGradient1462"
       gradientUnits="userSpaceOnUse"
       gradientTransform="matrix(1.254364,-7.782602e-3,-4.537336e-2,0.517179,61.21070,19.73312)"
       x1="5.6831765"
       y1="21.673885"
       x2="14.964557"
       y2="41.796101" />
    <linearGradient
       inkscape:collect="always"
       xlink:href="#light100to25to0"
       id="linearGradient1460"
       gradientUnits="userSpaceOnUse"
       gradientTransform="matrix(0.600915,2.740875e-2,-2.807554e-2,1.859011,4.718272,49.05071)"
       x1="117.48062"
       y1="0.76412511"
       x2="122.96590"
       y2="-4.4011321" />
    <radialGradient
       inkscape:collect="always"
       xlink:href="#light100to25to0"
       id="radialGradient1458"
       gradientUnits="userSpaceOnUse"
       gradientTransform="matrix(0.326266,-0.137357,0.674297,1.782557,20.69438,49.30781)"
       cx="151.53014"
       cy="30.823576"
       fx="151.53014"
       fy="30.823576"
       r="35.001339" />
    <linearGradient
       y2="139.7401"
       x2="100.6055"
       y1="37.1133"
       x1="100.6055"
       gradientTransform="matrix(0.140392,-4.794330e-2,4.243270e-2,0.132515,-23.51599,-66.02933)"
       gradientUnits="userSpaceOnUse"
       id="linearGradient1571"
       xlink:href="#XMLID_1_"
       inkscape:collect="always" />
    <linearGradient
       y2="436.28043"
       x2="307.07626"
       y1="64.407753"
       x1="146.38470"
       gradientTransform="matrix(0.111869,-3.895482e-2,3.471707e-2,0.110637,-17.12537,-49.89360)"
       gradientUnits="userSpaceOnUse"
       id="linearGradient1569"
       xlink:href="#light100to0"
       inkscape:collect="always" />
    <linearGradient
       y2="461.30772"
       x2="439.44683"
       y1="27.161866"
       x1="-110.52393"
       gradientTransform="matrix(0.109030,-3.796587e-2,3.229541e-2,0.102919,-16.51153,-49.37250)"
       gradientUnits="userSpaceOnUse"
       id="linearGradient1567"
       xlink:href="#redtodarkred"
       inkscape:collect="always" />
    <radialGradient
       r="117.68623"
       fy="25.390987"
       fx="189.43584"
       cy="103.61057"
       cx="186.75356"
       spreadMethod="reflect"
       gradientTransform="matrix(0.108343,-3.772661e-2,3.250021e-2,0.103572,-16.51153,-49.37250)"
       gradientUnits="userSpaceOnUse"
       id="radialGradient1565"
       xlink:href="#orangelesstoyelow"
       inkscape:collect="always" />
    <linearGradient
       y2="139.7401"
       x2="100.6055"
       y1="37.1133"
       x1="100.6055"
       gradientTransform="matrix(0.415564,-0.141914,0.129632,0.404838,-24.07052,-66.80791)"
       gradientUnits="userSpaceOnUse"
       id="linearGradient1563"
       xlink:href="#XMLID_1_"
       inkscape:collect="always" />
    <linearGradient
       y2="41.796101"
       x2="14.964557"
       y1="21.673885"
       x1="5.6831765"
       gradientTransform="matrix(1.254364,-7.782602e-3,-4.537336e-2,0.517179,0.835472,-47.78608)"
       gradientUnits="userSpaceOnUse"
       id="linearGradient1561"
       xlink:href="#light75to0"
       inkscape:collect="always" />
    <linearGradient
       y2="139.7401"
       x2="100.6055"
       y1="37.1133"
       x1="100.6055"
       gradientTransform="matrix(0.140392,-4.794330e-2,4.243270e-2,0.132515,-23.51599,-66.02933)"
       gradientUnits="userSpaceOnUse"
       id="linearGradient1545"
       xlink:href="#XMLID_1_"
       inkscape:collect="always" />
    <linearGradient
       y2="436.28043"
       x2="307.07626"
       y1="64.407753"
       x1="146.38470"
       gradientTransform="matrix(0.111869,-3.895482e-2,3.471707e-2,0.110637,-17.12537,-49.89360)"
       gradientUnits="userSpaceOnUse"
       id="linearGradient1543"
       xlink:href="#light100to0"
       inkscape:collect="always" />
    <linearGradient
       y2="461.30772"
       x2="439.44683"
       y1="27.161866"
       x1="-110.52393"
       gradientTransform="matrix(0.109030,-3.796587e-2,3.229541e-2,0.102919,-16.51153,-49.37250)"
       gradientUnits="userSpaceOnUse"
       id="linearGradient1541"
       xlink:href="#redtodarkred"
       inkscape:collect="always" />
    <radialGradient
       r="117.68623"
       fy="25.390987"
       fx="189.43584"
       cy="103.61057"
       cx="186.75356"
       spreadMethod="reflect"
       gradientTransform="matrix(0.108343,-3.772661e-2,3.250021e-2,0.103572,-16.51153,-49.37250)"
       gradientUnits="userSpaceOnUse"
       id="radialGradient1539"
       xlink:href="#orangelesstoyelow"
       inkscape:collect="always" />
    <linearGradient
       y2="139.7401"
       x2="100.6055"
       y1="37.1133"
       x1="100.6055"
       gradientTransform="matrix(0.415564,-0.141914,0.129632,0.404838,-24.07052,-66.80791)"
       gradientUnits="userSpaceOnUse"
       id="linearGradient1537"
       xlink:href="#XMLID_1_"
       inkscape:collect="always" />
    <linearGradient
       y2="41.796101"
       x2="14.964557"
       y1="21.673885"
       x1="5.6831765"
       gradientTransform="matrix(1.254364,-7.782602e-3,-4.537336e-2,0.517179,0.835472,-47.78608)"
       gradientUnits="userSpaceOnUse"
       id="linearGradient1535"
       xlink:href="#light75to0"
       inkscape:collect="always" />
    <linearGradient
       y2="139.7401"
       x2="100.6055"
       y1="37.1133"
       x1="100.6055"
       gradientTransform="matrix(0.140392,-4.794330e-2,4.243270e-2,0.132515,-23.51599,-66.02933)"
       gradientUnits="userSpaceOnUse"
       id="linearGradient1519"
       xlink:href="#XMLID_1_"
       inkscape:collect="always" />
    <linearGradient
       y2="436.28043"
       x2="307.07626"
       y1="64.407753"
       x1="146.38470"
       gradientTransform="matrix(0.111869,-3.895482e-2,3.471707e-2,0.110637,-17.12537,-49.89360)"
       gradientUnits="userSpaceOnUse"
       id="linearGradient1517"
       xlink:href="#light100to0"
       inkscape:collect="always" />
    <linearGradient
       y2="461.30772"
       x2="439.44683"
       y1="27.161866"
       x1="-110.52393"
       gradientTransform="matrix(0.109030,-3.796587e-2,3.229541e-2,0.102919,-16.51153,-49.37250)"
       gradientUnits="userSpaceOnUse"
       id="linearGradient1515"
       xlink:href="#redtodarkred"
       inkscape:collect="always" />
    <radialGradient
       r="117.68623"
       fy="25.390987"
       fx="189.43584"
       cy="103.61057"
       cx="186.75356"
       spreadMethod="reflect"
       gradientTransform="matrix(0.108343,-3.772661e-2,3.250021e-2,0.103572,-16.51153,-49.37250)"
       gradientUnits="userSpaceOnUse"
       id="radialGradient1513"
       xlink:href="#orangelesstoyelow"
       inkscape:collect="always" />
    <linearGradient
       y2="139.7401"
       x2="100.6055"
       y1="37.1133"
       x1="100.6055"
       gradientTransform="matrix(0.415564,-0.141914,0.129632,0.404838,-24.07052,-66.80791)"
       gradientUnits="userSpaceOnUse"
       id="linearGradient1511"
       xlink:href="#XMLID_1_"
       inkscape:collect="always" />
    <linearGradient
       y2="41.796101"
       x2="14.964557"
       y1="21.673885"
       x1="5.6831765"
       gradientTransform="matrix(1.254364,-7.782602e-3,-4.537336e-2,0.517179,0.835472,-47.78608)"
       gradientUnits="userSpaceOnUse"
       id="linearGradient1509"
       xlink:href="#light75to0"
       inkscape:collect="always" />
    <radialGradient
       r="35.001339"
       fy="30.823576"
       fx="151.53014"
       cy="30.823576"
       cx="151.53014"
       gradientTransform="matrix(0.326266,-0.137357,0.674297,1.782557,-39.68085,-18.21139)"
       gradientUnits="userSpaceOnUse"
       id="radialGradient1497"
       xlink:href="#light100to25to0"
       inkscape:collect="always" />
    <linearGradient
       y2="-4.4011321"
       x2="122.96590"
       y1="0.76412511"
       x1="117.48062"
       gradientTransform="matrix(0.600915,2.740875e-2,-2.807554e-2,1.859011,-55.65696,-18.46849)"
       gradientUnits="userSpaceOnUse"
       id="linearGradient1494"
       xlink:href="#light100to25to0"
       inkscape:collect="always" />
    <linearGradient
       y2="41.796101"
       x2="14.964557"
       y1="21.673885"
       x1="5.6831765"
       gradientTransform="matrix(1.254364,-7.782602e-3,-4.537336e-2,0.517179,0.835472,-47.78608)"
       gradientUnits="userSpaceOnUse"
       id="linearGradient1491"
       xlink:href="#light75to0"
       inkscape:collect="always" />
    <linearGradient
       y2="139.7401"
       x2="100.6055"
       y1="37.1133"
       x1="100.6055"
       gradientTransform="matrix(0.415564,-0.141914,0.129632,0.404838,-24.07052,-66.80791)"
       gradientUnits="userSpaceOnUse"
       id="linearGradient1488"
       xlink:href="#XMLID_1_"
       inkscape:collect="always" />
    <linearGradient
       y2="461.30772"
       x2="439.44683"
       y1="27.161866"
       x1="-110.52393"
       gradientTransform="matrix(0.109030,-3.796587e-2,3.229541e-2,0.102919,-16.51153,-49.37250)"
       gradientUnits="userSpaceOnUse"
       id="linearGradient1485"
       xlink:href="#redtodarkred"
       inkscape:collect="always" />
    <radialGradient
       r="117.68623"
       fy="25.390987"
       fx="189.43584"
       cy="103.61057"
       cx="186.75356"
       spreadMethod="reflect"
       gradientTransform="matrix(0.108343,-3.772661e-2,3.250021e-2,0.103572,-16.51153,-49.37250)"
       gradientUnits="userSpaceOnUse"
       id="radialGradient1483"
       xlink:href="#orangelesstoyelow"
       inkscape:collect="always" />
    <linearGradient
       y2="436.28043"
       x2="307.07626"
       y1="64.407753"
       x1="146.38470"
       gradientTransform="matrix(0.111869,-3.895482e-2,3.471707e-2,0.110637,-17.12537,-49.89360)"
       gradientUnits="userSpaceOnUse"
       id="linearGradient1480"
       xlink:href="#light100to0"
       inkscape:collect="always" />
    <linearGradient
       y2="139.7401"
       x2="100.6055"
       y1="37.1133"
       x1="100.6055"
       gradientTransform="matrix(0.140392,-4.794330e-2,4.243270e-2,0.132515,-23.51599,-66.02933)"
       gradientUnits="userSpaceOnUse"
       id="linearGradient1477"
       xlink:href="#XMLID_1_"
       inkscape:collect="always" />
    <linearGradient
       id="linearGradient1383">
      <stop
         style="stop-color:#ffffff;stop-opacity:1.0000000;"
         offset="0.0000000"
         id="stop1385" />
      <stop
         style="stop-color:#ffffff;stop-opacity:0.0000000;"
         offset="1.0000000"
         id="stop1387" />
    </linearGradient>
    <linearGradient
       id="linearGradient18951">
      <stop
         style="stop-color:#ff0000;stop-opacity:1.0000000;"
         offset="0.0000000"
         id="stop18953" />
      <stop
         style="stop-color:#920000;stop-opacity:1.0000000;"
         offset="1.0000000"
         id="stop18955" />
    </linearGradient>
    <linearGradient
       id="orangelesstoyelow">
      <stop
         style="stop-color:#ff7d00;stop-opacity:1.0000000;"
         offset="0.0000000"
         id="stop2689" />
      <stop
         style="stop-color:#ffbe00;stop-opacity:1.0000000;"
         offset="0.25358382"
         id="stop2690" />
      <stop
         style="stop-color:#ffff00;stop-opacity:1.0000000;"
         offset="1.0000000"
         id="stop2691" />
    </linearGradient>
    <linearGradient
       id="XMLID_1_"
       gradientUnits="userSpaceOnUse"
       x1="100.6055"
       y1="37.1133"
       x2="100.6055"
       y2="139.7401">
      <stop
         offset="0"
         style="stop-color:#FFA700"
         id="stop9" />
      <stop
         offset="0.691"
         style="stop-color:#FFFF00"
         id="stop11" />
      <stop
         offset="0.792"
         style="stop-color:#FFFC00"
         id="stop13" />
      <stop
         offset="0.8546"
         style="stop-color:#FFF400"
         id="stop15" />
      <stop
         offset="0.9067"
         style="stop-color:#FFE500"
         id="stop17" />
      <stop
         offset="0.953"
         style="stop-color:#FFD100"
         id="stop19" />
      <stop
         offset="0.9952"
         style="stop-color:#FFB700"
         id="stop21" />
      <stop
         offset="1"
         style="stop-color:#FFB300"
         id="stop23" />
      <midPointStop
         offset="0"
         style="stop-color:#FFA700"
         id="midPointStop25" />
      <midPointStop
         offset="0.5"
         style="stop-color:#FFA700"
         id="midPointStop27" />
      <midPointStop
         offset="0.691"
         style="stop-color:#FFFF00"
         id="midPointStop29" />
      <midPointStop
         offset="0.7952"
         style="stop-color:#FFFF00"
         id="midPointStop31" />
      <midPointStop
         offset="1"
         style="stop-color:#FFB300"
         id="midPointStop33" />
    </linearGradient>
    <linearGradient
       id="light75to0">
      <stop
         style="stop-color:#ffffff;stop-opacity:0.72916669;"
         offset="0.0000000"
         id="stop2769" />
      <stop
         style="stop-color:#ffffff;stop-opacity:0.0000000;"
         offset="1.0000000"
         id="stop2770" />
    </linearGradient>
    <linearGradient
       id="light100to25to0">
      <stop
         style="stop-color:#ffffff;stop-opacity:1.0000000;"
         offset="0.0000000"
         id="stop2785" />
      <stop
         style="stop-color:#ffffff;stop-opacity:0.28749999;"
         offset="0.50000000"
         id="stop2786" />
      <stop
         style="stop-color:#ffffff;stop-opacity:0.0000000;"
         offset="1.0000000"
         id="stop2787" />
    </linearGradient>
    <linearGradient
       id="linearGradient18920">
      <stop
         id="stop18922"
         offset="0.0000000"
         style="stop-color:#ffffff;stop-opacity:1.0000000;" />
      <stop
         id="stop18924"
         offset="1.0000000"
         style="stop-color:#ffffff;stop-opacity:0.0000000;" />
    </linearGradient>
    <linearGradient
       y2="250.61244"
       x2="237.87393"
       y1="154.59605"
       x1="226.19034"
       gradientTransform="matrix(0.178419,0.000000,9.266801e-3,0.113270,-2.211594,33.09520)"
       gradientUnits="userSpaceOnUse"
       id="linearGradient1639"
       xlink:href="#graytoblack"
       inkscape:collect="always" />
    <linearGradient
       id="graytoblack">
      <stop
         id="stop5097"
         offset="0.0000000"
         style="stop-color:#7d7d7d;stop-opacity:1.0000000;" />
      <stop
         id="stop5098"
         offset="1.0000000"
         style="stop-color:#000000;stop-opacity:1.0000000;" />
    </linearGradient>
    <linearGradient
       y2="302.86520"
       x2="381.62057"
       y1="140.24585"
       x1="204.02148"
       gradientTransform="matrix(0.177759,0.000000,-1.049685e-2,0.113691,-3.809334,32.02988)"
       gradientUnits="userSpaceOnUse"
       id="linearGradient5417"
       xlink:href="#greandraktoblack"
       inkscape:collect="always" />
    <linearGradient
       id="greandraktoblack">
      <stop
         id="stop7328"
         offset="0.0000000"
         style="stop-color:#007c00;stop-opacity:1.0000000;" />
      <stop
         id="stop7329"
         offset="1.0000000"
         style="stop-color:#025a00;stop-opacity:1.0000000;" />
    </linearGradient>
    <linearGradient
       gradientUnits="userSpaceOnUse"
       y2="250.61244"
       x2="237.87393"
       y1="154.59605"
       x1="226.19034"
       gradientTransform="matrix(0.178419,0.000000,9.266801e-3,0.113270,-2.211594,33.09520)"
       id="linearGradient6675"
       xlink:href="#graytoblack"
       inkscape:collect="always" />
    <linearGradient
       y2="420.68716"
       x2="518.79669"
       y1="130.87549"
       x1="194.48006"
       gradientTransform="matrix(0.177759,0.000000,-1.049685e-2,0.113691,-2.211594,33.09520)"
       gradientUnits="userSpaceOnUse"
       id="linearGradient9166"
       xlink:href="#shadow100to0"
       inkscape:collect="always" />
    <linearGradient
       id="shadow100to0">
      <stop
         id="stop3425"
         offset="0.0000000"
         style="stop-color:#000000;stop-opacity:1.0000000;" />
      <stop
         id="stop3426"
         offset="1.0000000"
         style="stop-color:#000000;stop-opacity:0.0000000;" />
    </linearGradient>
    <linearGradient
       id="light75to25">
      <stop
         id="stop2774"
         offset="0.0000000"
         style="stop-color:#ffffff;stop-opacity:0.72941178;" />
      <stop
         id="stop2775"
         offset="1.0000000"
         style="stop-color:#ffffff;stop-opacity:0.26249999;" />
    </linearGradient>
    <linearGradient
       y2="261.08621"
       x2="207.75543"
       y1="62.545479"
       x1="18.669100"
       gradientTransform="matrix(0.160684,0.000000,1.841103e-2,0.225042,-6.180094,19.93595)"
       gradientUnits="userSpaceOnUse"
       id="linearGradient5423"
       xlink:href="#graytoblack"
       inkscape:collect="always" />
  </defs>
  <sodipodi:namedview
     inkscape:window-y="42"
     inkscape:window-x="94"
     inkscape:window-height="902"
     inkscape:window-width="1272"
     inkscape:grid-bbox="true"
     inkscape:document-units="px"
     showgrid="false"
     inkscape:current-layer="g1424"
     inkscape:cy="34.467101"
     inkscape:cx="27.578658"
     inkscape:zoom="9.3309957"
     inkscape:pageshadow="2"
     inkscape:pageopacity="0.0"
     borderopacity="1.0"
     bordercolor="#666666"
     pagecolor="#ffffff"
     id="base" />
  <metadata
     id="metadata4">
    <rdf:RDF
       id="RDF5">
      <cc:Work
         id="Work6"
         rdf:about="">
        <dc:format
           id="format7">image/svg+xml</dc:format>
        <dc:type
           rdf:resource="http://purl.org/dc/dcmitype/StillImage"
           id="type9" />
      </cc:Work>
    </rdf:RDF>
  </metadata>
  <g
     inkscape:groupmode="layer"
     inkscape:label="Layer 1"
     id="layer1">
    <path
       transform="matrix(0.769756,0.000000,0.000000,0.767486,4.795721,13.95596)"
       d="M 40.839780 60.022099 A 8.3093920 2.2099447 0 1 1  24.220996,60.022099 A 8.3093920 2.2099447 0 1 1  40.839780 60.022099 z"
       sodipodi:ry="2.2099447"
       sodipodi:rx="8.3093920"
       sodipodi:cy="60.022099"
       sodipodi:cx="32.530388"
       id="path14089"
       style="opacity:0.49029127;fill:#000000;fill-opacity:0.033898298;stroke:#000000;stroke-width:4.6500001;stroke-linejoin:round;stroke-miterlimit:4.0000000;stroke-opacity:0.050847415"
       sodipodi:type="arc" />
    <path
       transform="matrix(0.929539,0.000000,0.000000,1.000000,-0.617416,0.000000)"
       d="M 40.839780 60.022099 A 8.3093920 2.2099447 0 1 1  24.220996,60.022099 A 8.3093920 2.2099447 0 1 1  40.839780 60.022099 z"
       sodipodi:ry="2.2099447"
       sodipodi:rx="8.3093920"
       sodipodi:cy="60.022099"
       sodipodi:cx="32.530388"
       id="path14087"
       style="opacity:0.49029127;fill:#000000;fill-opacity:0.033898298;stroke:#000000;stroke-width:4.6500001;stroke-linejoin:round;stroke-miterlimit:4.0000000;stroke-opacity:0.050847415"
       sodipodi:type="arc" />
    <path
       id="path14085"
       d="M 29.537615,3.5363319 C 14.808706,3.5363319 2.8525482,8.0172340 2.8525482,13.536970 C 2.8525482,13.547132 2.8577596,13.556761 2.8578439,13.566923 C 2.8577596,13.577036 2.8525482,13.586714 2.8525482,13.596827 C 2.8525482,13.915666 2.9112755,14.228459 2.9901828,14.539548 C 2.9941594,14.554481 2.9966126,14.569495 3.0007675,14.584429 C 3.1786087,15.253720 3.5167358,15.905450 4.0277287,16.529727 C 4.0630616,16.572859 4.1020411,16.616468 4.1388974,16.659375 L 24.185783,39.468913 L 24.185783,59.041328 L 24.233428,59.041328 C 24.341060,60.109801 26.670920,61.390629 29.548207,61.390584 C 32.425680,61.390629 34.755643,60.109889 34.862977,59.041328 L 34.878868,59.041328 L 34.878868,58.986467 C 34.879046,58.979682 34.884165,58.973285 34.884165,58.966500 C 34.884165,58.959630 34.879046,58.953410 34.878868,58.946535 L 34.878868,39.583629 L 54.788121,16.978610 C 54.535149,17.247666 54.246837,17.508665 53.935848,17.766685 L 54.703422,16.893843 C 55.668951,15.860046 56.217395,14.753612 56.217395,13.596827 C 56.217395,13.586714 56.212181,13.577036 56.212099,13.566923 C 56.212181,13.556761 56.217395,13.547132 56.217395,13.536970 C 56.217395,8.0172340 44.266531,3.5363319 29.537615,3.5363319 z "
       style="fill:none;fill-opacity:1.0000000;fill-rule:evenodd;stroke:#000000;stroke-width:4.8686466;stroke-linecap:butt;stroke-linejoin:round;stroke-miterlimit:4.0000000;stroke-opacity:0.050847415" />
    <path
       id="path14075"
       d="M 29.747603,3.0832120 C 15.018694,3.0832120 3.0625358,7.5641141 3.0625358,13.083850 C 3.0625358,13.094012 3.0677468,13.103641 3.0678308,13.113803 C 3.0677468,13.123916 3.0625358,13.133594 3.0625358,13.143707 C 3.0625358,13.462546 3.1212628,13.775339 3.2001698,14.086428 C 3.2041468,14.101361 3.2065998,14.116375 3.2107548,14.131309 C 3.3885958,14.800600 3.7267228,15.452330 4.2377158,16.076607 C 4.2730488,16.119739 4.3120288,16.163348 4.3488848,16.206255 L 24.395771,39.015793 L 24.395771,58.588208 L 24.443417,58.588208 C 24.551048,59.656681 26.880908,60.937509 29.758196,60.937464 C 32.635668,60.937509 34.965631,59.656769 35.072965,58.588208 L 35.088857,58.588208 L 35.088857,58.533347 C 35.089034,58.526562 35.094154,58.520165 35.094154,58.513380 C 35.094154,58.506510 35.089034,58.500290 35.088857,58.493415 L 35.088857,39.130509 L 54.998109,16.525490 C 54.745136,16.794546 54.456825,17.055545 54.145836,17.313565 L 54.913411,16.440723 C 55.878939,15.406926 56.427384,14.300492 56.427384,13.143707 C 56.427384,13.133594 56.422169,13.123916 56.422088,13.113803 C 56.422169,13.103641 56.427384,13.094012 56.427384,13.083850 C 56.427384,7.5641141 44.476520,3.0832120 29.747603,3.0832120 z "
       style="fill:none;fill-opacity:1.0000000;fill-rule:evenodd;stroke:#000000;stroke-width:6.1250715;stroke-linecap:butt;stroke-linejoin:round;stroke-miterlimit:4.0000000;stroke-opacity:0.050847415" />
    <path
       id="path12479"
       d="M 29.537615,3.5363319 C 14.808706,3.5363319 2.8525482,8.0172340 2.8525482,13.536970 C 2.8525482,13.547132 2.8577596,13.556761 2.8578439,13.566923 C 2.8577596,13.577036 2.8525482,13.586714 2.8525482,13.596827 C 2.8525482,13.915666 2.9112755,14.228459 2.9901828,14.539548 C 2.9941594,14.554481 2.9966126,14.569495 3.0007675,14.584429 C 3.1786087,15.253720 3.5167358,15.905450 4.0277287,16.529727 C 4.0630616,16.572859 4.1020411,16.616468 4.1388974,16.659375 L 24.185783,39.468913 L 24.185783,59.041328 L 24.233428,59.041328 C 24.341060,60.109801 26.670920,61.390629 29.548207,61.390584 C 32.425680,61.390629 34.755643,60.109889 34.862977,59.041328 L 34.878868,59.041328 L 34.878868,58.986467 C 34.879046,58.979682 34.884165,58.973285 34.884165,58.966500 C 34.884165,58.959630 34.879046,58.953410 34.878868,58.946535 L 34.878868,39.583629 L 54.788121,16.978610 C 54.535149,17.247666 54.246837,17.508665 53.935848,17.766685 L 54.703422,16.893843 C 55.668951,15.860046 56.217395,14.753612 56.217395,13.596827 C 56.217395,13.586714 56.212181,13.577036 56.212099,13.566923 C 56.212181,13.556761 56.217395,13.547132 56.217395,13.536970 C 56.217395,8.0172340 44.266531,3.5363319 29.537615,3.5363319 z "
       style="fill:none;fill-opacity:1.0000000;fill-rule:evenodd;stroke:#000000;stroke-width:1.7881857;stroke-linecap:butt;stroke-linejoin:round;stroke-miterlimit:4.0000000;stroke-opacity:0.039547984" />
    <path
       id="path12477"
       d="M 29.537615,3.5363319 C 14.808706,3.5363319 2.8525482,8.0172340 2.8525482,13.536970 C 2.8525482,13.547132 2.8577596,13.556761 2.8578439,13.566923 C 2.8577596,13.577036 2.8525482,13.586714 2.8525482,13.596827 C 2.8525482,13.915666 2.9112755,14.228459 2.9901828,14.539548 C 2.9941594,14.554481 2.9966126,14.569495 3.0007675,14.584429 C 3.1786087,15.253720 3.5167358,15.905450 4.0277287,16.529727 C 4.0630616,16.572859 4.1020411,16.616468 4.1388974,16.659375 L 24.185783,39.468913 L 24.185783,59.041328 L 24.233428,59.041328 C 24.341060,60.109801 26.670920,61.390629 29.548207,61.390584 C 32.425680,61.390629 34.755643,60.109889 34.862977,59.041328 L 34.878868,59.041328 L 34.878868,58.986467 C 34.879046,58.979682 34.884165,58.973285 34.884165,58.966500 C 34.884165,58.959630 34.879046,58.953410 34.878868,58.946535 L 34.878868,39.583629 L 54.788121,16.978610 C 54.535149,17.247666 54.246837,17.508665 53.935848,17.766685 L 54.703422,16.893843 C 55.668951,15.860046 56.217395,14.753612 56.217395,13.596827 C 56.217395,13.586714 56.212181,13.577036 56.212099,13.566923 C 56.212181,13.556761 56.217395,13.547132 56.217395,13.536970 C 56.217395,8.0172340 44.266531,3.5363319 29.537615,3.5363319 z "
       style="fill:none;fill-opacity:1.0000000;fill-rule:evenodd;stroke:#000000;stroke-width:1.9526165;stroke-linecap:butt;stroke-linejoin:round;stroke-miterlimit:4.0000000;stroke-opacity:0.039547984" />
    <path
       id="path9412"
       d="M 29.537615,3.5363319 C 14.808706,3.5363319 2.8525482,8.0172340 2.8525482,13.536970 C 2.8525482,13.547132 2.8577596,13.556761 2.8578439,13.566923 C 2.8577596,13.577036 2.8525482,13.586714 2.8525482,13.596827 C 2.8525482,13.915666 2.9112755,14.228459 2.9901828,14.539548 C 2.9941594,14.554481 2.9966126,14.569495 3.0007675,14.584429 C 3.1786087,15.253720 3.5167358,15.905450 4.0277287,16.529727 C 4.0630616,16.572859 4.1020411,16.616468 4.1388974,16.659375 L 24.185783,39.468913 L 24.185783,59.041328 L 24.233428,59.041328 C 24.341060,60.109801 26.670920,61.390629 29.548207,61.390584 C 32.425680,61.390629 34.755643,60.109889 34.862977,59.041328 L 34.878868,59.041328 L 34.878868,58.986467 C 34.879046,58.979682 34.884165,58.973285 34.884165,58.966500 C 34.884165,58.959630 34.879046,58.953410 34.878868,58.946535 L 34.878868,39.583629 L 54.788121,16.978610 C 54.535149,17.247666 54.246837,17.508665 53.935848,17.766685 L 54.703422,16.893843 C 55.668951,15.860046 56.217395,14.753612 56.217395,13.596827 C 56.217395,13.586714 56.212181,13.577036 56.212099,13.566923 C 56.212181,13.556761 56.217395,13.547132 56.217395,13.536970 C 56.217395,8.0172340 44.266531,3.5363319 29.537615,3.5363319 z "
       style="fill:none;fill-opacity:1.0000000;fill-rule:evenodd;stroke:url(#linearGradient13259);stroke-width:2.9840090;stroke-linecap:butt;stroke-linejoin:round;stroke-miterlimit:4.0000000;stroke-opacity:1.0000000" />
    <path
       id="path14875"
       d="M 29.537615,3.5363319 C 14.808706,3.5363319 2.8525482,8.0172340 2.8525482,13.536970 C 2.8525482,13.547132 2.8577596,13.556761 2.8578439,13.566923 C 2.8577596,13.577036 2.8525482,13.586714 2.8525482,13.596827 C 2.8525482,13.915666 2.9112755,14.228459 2.9901828,14.539548 C 2.9941594,14.554481 2.9966126,14.569495 3.0007675,14.584429 C 3.1786087,15.253720 3.5167358,15.905450 4.0277287,16.529727 C 4.0630616,16.572859 4.1020411,16.616468 4.1388974,16.659375 L 24.185783,39.468913 L 24.185783,59.041328 L 24.233428,59.041328 C 24.341060,60.109801 26.670920,61.390629 29.548207,61.390584 C 32.425680,61.390629 34.755643,60.109889 34.862977,59.041328 L 34.878868,59.041328 L 34.878868,58.986467 C 34.879046,58.979682 34.884165,58.973285 34.884165,58.966500 C 34.884165,58.959630 34.879046,58.953410 34.878868,58.946535 L 34.878868,39.583629 L 54.788121,16.978610 C 54.535149,17.247666 54.246837,17.508665 53.935848,17.766685 L 54.703422,16.893843 C 55.668951,15.860046 56.217395,14.753612 56.217395,13.596827 C 56.217395,13.586714 56.212181,13.577036 56.212099,13.566923 C 56.212181,13.556761 56.217395,13.547132 56.217395,13.536970 C 56.217395,8.0172340 44.266531,3.5363319 29.537615,3.5363319 z "
       style="fill:none;fill-opacity:1.0000000;fill-rule:evenodd;stroke:#000000;stroke-width:2.9840090;stroke-linecap:butt;stroke-linejoin:round;stroke-miterlimit:4.0000000;stroke-opacity:0.27118644" />
    <path
       sodipodi:nodetypes="ccccccccccc"
       id="path2477"
       d="M 24.187189,38.578861 L 24.187189,59.039098 L 24.234824,59.039098 C 24.342465,60.107567 26.672326,61.392996 29.549604,61.392996 C 32.427076,61.392996 34.757047,60.107656 34.864384,59.039098 L 34.880272,59.039098 L 34.880272,58.984233 C 34.880450,58.977447 34.885568,58.971101 34.885568,58.964270 C 34.885568,58.957395 34.880450,58.951222 34.880272,58.944347 L 34.880272,38.578861 L 24.187189,38.578861 z "
       style="fill:url(#linearGradient8634);fill-opacity:1.0000000;fill-rule:evenodd;stroke:none;stroke-width:1.0000000px;stroke-linecap:butt;stroke-linejoin:miter;stroke-opacity:1.0000000" />
    <path
       id="path2483"
       d="M 29.539020,3.5961828 C 14.810111,3.5961828 2.8539526,8.0770907 2.8539526,13.596827 C 2.8539526,14.617574 3.2696322,15.601849 4.0291331,16.529727 C 4.0644661,16.572859 4.1034455,16.616468 4.1403011,16.659375 L 24.430695,39.748256 L 24.483628,39.748256 C 25.177937,40.550610 27.167563,41.134868 29.539020,41.134868 C 32.125103,41.134868 34.275269,40.444341 34.763814,39.528765 L 54.704825,16.893843 C 55.670356,15.860046 56.218797,14.753612 56.218797,13.596827 C 56.218797,8.0770907 44.267930,3.5961828 29.539020,3.5961828 z "
       style="fill:url(#linearGradient4062);fill-opacity:1.0000000;fill-rule:evenodd;stroke:none;stroke-width:1.0000000px;stroke-linecap:butt;stroke-linejoin:miter;stroke-opacity:1.0000000" />
    <path
       transform="matrix(0.132417,0.000000,0.000000,0.126157,4.767091,6.617658)"
       d="M 344.57040 108.29356 A 157.51790 62.649166 0 1 1  29.534607,108.29356 A 157.51790 62.649166 0 1 1  344.57040 108.29356 z"
       sodipodi:ry="62.649166"
       sodipodi:rx="157.51790"
       sodipodi:cy="108.29356"
       sodipodi:cx="187.05251"
       id="path5580"
       style="fill:#000000;fill-opacity:1.0000000;fill-rule:evenodd;stroke:none;stroke-width:1.0000000px;stroke-linecap:butt;stroke-linejoin:miter;stroke-opacity:1.0000000"
       sodipodi:type="arc" />
    <path
       transform="matrix(0.132417,0.000000,0.000000,0.126157,4.767091,6.617658)"
       d="M 344.57040 108.29356 A 157.51790 62.649166 0 1 1  29.534607,108.29356 A 157.51790 62.649166 0 1 1  344.57040 108.29356 z"
       sodipodi:ry="62.649166"
       sodipodi:rx="157.51790"
       sodipodi:cy="108.29356"
       sodipodi:cx="187.05251"
       id="path10949"
       style="fill:url(#radialGradient11715);fill-opacity:1.0000000;fill-rule:evenodd;stroke:none;stroke-width:1.0000000px;stroke-linecap:butt;stroke-linejoin:miter;stroke-opacity:1.0000000"
       sodipodi:type="arc" />
    <path
       id="path2503"
       d="M 4.2858729,16.768140 L 24.533920,39.812096 L 24.586853,39.812096 C 25.282260,40.613748 27.266837,41.198708 29.636964,41.198708 C 32.228429,41.198708 34.389754,40.506036 34.872327,39.587613 L 54.786876,16.977602 C 51.130570,20.866586 41.259921,23.661349 29.636964,23.661349 C 17.804937,23.661349 7.7780034,20.766759 4.2858729,16.768140 z "
       style="fill:url(#linearGradient4054);fill-opacity:1.0000000;fill-rule:evenodd;stroke:none;stroke-width:0.20000000px;stroke-linecap:butt;stroke-linejoin:miter;stroke-opacity:1.0000000" />
    <path
       id="path17191"
       d="M 23.906250,39.375000 L 23.250000,40.125000 C 24.758729,41.440422 27.354467,41.865109 29.843750,41.812500 C 31.088391,41.786196 32.304630,41.626308 33.343750,41.343750 C 34.382870,41.061192 35.256858,40.689644 35.812500,40.093750 L 35.062500,39.406250 C 34.733738,39.758829 34.002176,40.119483 33.062500,40.375000 C 32.122824,40.630517 30.984411,40.787733 29.812500,40.812500 C 27.468677,40.862035 25.041844,40.365095 23.906250,39.375000 z "
       style="fill:#000000;fill-opacity:0.056497160;fill-rule:evenodd;stroke:none;stroke-width:1.0000000px;stroke-linecap:butt;stroke-linejoin:miter;stroke-opacity:1.0000000" />
    <path
       sodipodi:nodetypes="ccccccc"
       id="path15645"
       d="M 26.110497,60.731821 L 25.939227,41.000000 L 15.171270,22.292817 C 18.110229,23.025109 23.443717,23.821655 26.403315,23.800813 L 29.044665,40.646409 L 28.932766,61.195617 L 26.110497,60.731821 z "
       style="fill:url(#linearGradient16411);fill-opacity:1.0000000;fill-rule:evenodd;stroke:none;stroke-width:1.0000000px;stroke-linecap:butt;stroke-linejoin:miter;stroke-opacity:1.0000000" />
    <path
       id="path17951"
       d="M 23.687500,39.593750 L 23.437500,39.906250 C 24.834288,41.124074 27.398105,41.582937 29.843750,41.531250 C 31.066572,41.505407 32.240713,41.336946 33.250000,41.062500 C 34.259287,40.788054 35.106172,40.397899 35.593750,39.875000 L 35.281250,39.625000 C 34.884424,40.050573 34.125759,40.423870 33.156250,40.687500 C 32.186741,40.951130 31.006230,41.099772 29.812500,41.125000 C 27.425039,41.175457 24.935034,40.681443 23.687500,39.593750 z "
       style="fill:#000000;fill-opacity:0.056497160;fill-rule:evenodd;stroke:none;stroke-width:0.40000001;stroke-linecap:butt;stroke-linejoin:miter;stroke-miterlimit:4.0000000;stroke-opacity:1.0000000" />
    <path
       transform="matrix(0.165938,0.000000,0.000000,0.154225,-1.569686,-3.094166)"
       d="M 344.57040 108.29356 A 157.51790 62.649166 0 1 1  29.534607,108.29356 A 157.51790 62.649166 0 1 1  344.57040 108.29356 z"
       sodipodi:ry="62.649166"
       sodipodi:rx="157.51790"
       sodipodi:cy="108.29356"
       sodipodi:cx="187.05251"
       id="path2522"
       style="fill:none;fill-opacity:0.75000000;fill-rule:evenodd;stroke:#ffffff;stroke-width:7.3750000;stroke-linecap:butt;stroke-linejoin:miter;stroke-miterlimit:4.0000000;stroke-opacity:1.0000000"
       sodipodi:type="arc" />
    <path
       sodipodi:nodetypes="czzzzzzs"
       id="path7098"
       d="M 25.262481,12.901309 C 30.304407,12.516445 35.988469,12.893953 38.611653,13.463636 C 41.234835,14.033312 43.140037,15.478508 41.990589,16.193466 C 40.841144,16.908468 34.763393,17.330946 31.714965,17.753418 C 28.666529,18.175897 26.029121,18.858365 23.699980,18.728371 C 21.370830,18.598375 18.442971,17.623425 17.740117,16.973445 C 17.037255,16.323464 17.941464,15.528247 19.482803,14.828574 C 21.024151,14.128893 22.693561,13.097376 25.262481,12.901309 z "
       style="fill:url(#linearGradient7864);fill-opacity:1.0000000;fill-rule:evenodd;stroke:#000000;stroke-width:0.16014563px;stroke-linecap:butt;stroke-linejoin:miter;stroke-opacity:1.0000000" />
    <path
       sodipodi:nodetypes="cczc"
       id="path10185"
       d="M 3.9106625,13.250490 C 4.7578109,2.6670778 53.758611,1.7150240 54.806402,13.781900 C 54.761812,6.2317911 37.941475,4.2391157 29.458849,4.1505368 C 20.976225,4.0619639 4.3788163,6.4753188 3.9106625,13.250490 z "
       style="fill:#000000;fill-opacity:0.033898298;fill-rule:evenodd;stroke:none;stroke-width:1.0000000px;stroke-linecap:butt;stroke-linejoin:miter;stroke-opacity:1.0000000" />
    <path
       sodipodi:nodetypes="cczc"
       id="path10945"
       d="M 3.9106625,13.349839 C 6.7642069,2.7000015 51.150290,1.4822233 54.806402,13.881205 C 54.761812,6.7296646 37.874593,4.1391543 29.391966,4.0505805 C 20.909351,3.9620027 4.7132214,7.3052967 3.9106625,13.349839 z "
       style="fill:#000000;fill-opacity:0.033898298;fill-rule:evenodd;stroke:none;stroke-width:1.0000000px;stroke-linecap:butt;stroke-linejoin:miter;stroke-opacity:1.0000000" />
    <path
       sodipodi:nodetypes="cczc"
       id="path10947"
       d="M 3.9106625,13.262665 C 7.2992463,1.6164663 48.742607,0.39873267 54.806402,13.794031 C 54.293657,7.1738608 37.941475,4.4505489 29.458849,4.3619760 C 20.976225,4.2733973 4.7132214,7.2181672 3.9106625,13.262665 z "
       style="fill:#000000;fill-opacity:0.033898298;fill-rule:evenodd;stroke:none;stroke-width:1.0000000px;stroke-linecap:butt;stroke-linejoin:miter;stroke-opacity:1.0000000" />
    <path
       sodipodi:nodetypes="ccccccc"
       id="path16417"
       d="M 26.110497,61.519783 L 25.939227,41.000000 L 15.171270,22.292817 C 18.110229,23.025109 23.443717,23.821655 26.403315,23.800813 L 29.044665,40.646409 L 28.932766,61.983579 C 28.867523,62.354288 26.088189,61.937036 26.110497,61.519783 z "
       style="fill:url(#linearGradient17187);fill-opacity:1.0000000;fill-rule:evenodd;stroke:none;stroke-width:1.0000000px;stroke-linecap:butt;stroke-linejoin:miter;stroke-opacity:1.0000000" />
    <path
       sodipodi:nodetypes="ccccc"
       id="path17957"
       d="M 35.498931,12.706805 C 34.801462,12.613305 32.691674,12.414408 31.888808,12.426305 L 31.655691,4.5710015 C 33.760032,4.5985485 36.981580,4.8579686 38.896207,5.2017063 L 35.498931,12.706805 z "
       style="fill:url(#linearGradient18723);fill-opacity:1.0000000;fill-rule:evenodd;stroke:none;stroke-width:1.0000000px;stroke-linecap:butt;stroke-linejoin:miter;stroke-opacity:1.0000000" />
    <g
       transform="translate(26.27643,-21.35148)"
       inkscape:groupmode="layer"
       inkscape:label="Layer 1"
       id="g18765">
      <g
         transform="translate(-19.45949,27.71216)"
         inkscape:groupmode="layer"
         inkscape:label="Layer 1"
         id="g18995">
        <g
           transform="translate(-15.65061,-12.32187)"
           id="g1424"
           inkscape:label="Layer 1"
           inkscape:groupmode="layer">
          <g
             id="g1447"
             transform="matrix(0.790134,0.000000,0.000000,0.812591,0.492553,-3.750812)">
            <path
               style="fill:#000000;fill-opacity:1.0000000;stroke:none;stroke-width:0.96249998;stroke-linecap:round;stroke-linejoin:round;stroke-miterlimit:4.0000000;stroke-dashoffset:0.0000000;stroke-opacity:0.036734644"
               d="M 72.344202,40.031278 L 74.418438,39.337065 C 75.397085,39.009527 76.419450,39.513453 76.710736,40.466944 L 91.096318,87.556475 C 91.387604,88.509966 90.834240,89.541262 89.855593,89.868799 L 87.781357,90.563013 C 86.802710,90.890550 85.780346,90.386625 85.489060,89.433134 L 71.103479,42.343603 C 70.812193,41.390112 71.365555,40.358815 72.344202,40.031278 z "
               id="rect1353" />
            <path
               style="fill:url(#radialGradient1458);fill-opacity:1.0000000;stroke:none;stroke-width:0.96249998;stroke-linecap:round;stroke-linejoin:round;stroke-miterlimit:4.0000000;stroke-dashoffset:0.0000000;stroke-opacity:0.036734644"
               d="M 74.379412,44.120024 L 76.255195,43.525332 C 77.140210,43.244750 77.170146,43.935782 77.420615,44.797734 L 90.299976,86.974131 C 90.550444,87.836081 90.347002,88.976868 89.461986,89.257451 L 87.720523,89.748748 C 86.835508,90.029331 86.587603,89.658620 86.337135,88.796669 L 73.234022,46.182356 C 72.983554,45.320405 73.494398,44.400605 74.379412,44.120024 z "
               id="path1976"
               sodipodi:nodetypes="ccccccccc" />
            <path
               style="fill:url(#linearGradient1460);fill-opacity:1.0000000;fill-rule:evenodd;stroke:none;stroke-width:0.25354896pt;stroke-linecap:butt;stroke-linejoin:miter;stroke-opacity:1.0000000"
               d="M 73.648583,40.461901 C 77.671012,53.713031 81.286503,59.973176 83.476744,73.549268 C 84.533872,80.101836 84.235945,80.917397 83.430705,81.186570 C 78.660454,65.950048 76.500409,58.314175 71.730130,43.077653 C 72.519030,42.344950 72.859682,41.194602 73.648583,40.461901 z "
               id="path2607"
               sodipodi:nodetypes="csccc" />
            <path
               style="fill:url(#linearGradient1462);fill-opacity:1.0000000;fill-rule:evenodd;stroke:none;stroke-width:0.012500000;stroke-linecap:butt;stroke-linejoin:miter;stroke-miterlimit:4.0000000;stroke-opacity:1.0000000"
               d="M 65.644283,34.549893 C 65.688188,34.070867 65.732095,33.591840 65.776001,33.112823 C 65.819907,32.633796 65.863813,32.154770 65.907729,31.675744 C 65.943482,31.155122 66.129037,30.836783 66.570464,30.802035 C 68.025373,30.788154 69.480273,30.774282 70.935182,30.760410 C 72.390091,30.746539 73.844990,30.732667 75.299900,30.718786 C 75.099823,32.261323 68.905626,31.982925 68.029625,32.079023 C 66.422855,32.255285 67.454678,33.975330 65.644283,34.549893 z "
               id="path6094" />
            <path
               d="M 93.974650,35.641550 C 93.846274,35.830902 93.622406,36.069029 93.256370,36.204361 C 93.623083,36.069698 93.851326,35.846690 93.983725,35.669888 C 94.191691,35.393628 94.430869,34.859247 94.163517,34.083325 C 94.370170,34.846746 94.161008,35.365480 93.974650,35.641550 z "
               id="path1106"
               style="fill:url(#linearGradient1464)" />
            <path
               d="M 88.677487,19.961111 C 88.485640,19.690966 88.003834,19.282417 86.934876,19.584098 L 75.610858,22.805672 C 74.962877,22.989893 74.002143,22.689850 73.593832,22.174280 L 66.496769,13.209019 C 65.825493,12.365587 65.185216,12.423577 64.861601,12.532756 C 64.538849,12.641283 63.986014,12.989276 63.905955,14.086613 L 63.053209,25.732731 C 63.002631,26.411602 62.395326,27.229933 61.754497,27.481158 L 50.764840,31.800017 C 49.729302,32.200271 49.559456,32.825557 49.550392,33.162853 C 49.541331,33.500149 49.679561,34.122050 50.701349,34.498756 L 61.494460,38.474428 C 62.121328,38.709268 62.691844,39.511622 62.710134,40.190028 L 63.010393,51.814771 C 63.040296,52.909967 63.577281,53.239284 63.894176,53.338827 C 64.212674,53.437812 64.851860,53.474966 65.563642,52.608672 L 73.088743,43.425198 C 73.528759,42.886594 74.488104,42.560958 75.142745,42.727862 L 86.317923,45.603875 C 87.372728,45.876072 87.873496,45.452848 88.078484,45.176491 C 88.283471,44.900134 88.539237,44.300385 87.956588,43.391345 L 81.812406,33.735214 C 81.460828,33.181638 81.484602,32.165675 81.862322,31.603134 L 88.474005,21.750048 C 89.096299,20.821905 88.869335,20.231254 88.677487,19.961111 z "
               id="path1107"
               style="fill:url(#radialGradient1466);stroke:url(#linearGradient1468);stroke-width:0.29878873;stroke-linejoin:round;stroke-miterlimit:4.0000000;stroke-opacity:0.41874996" />
            <path
               d="M 80.983373,30.260843 L 85.030866,23.714280 C 85.517618,22.926868 85.322460,22.412615 85.162057,22.175542 C 85.002267,21.938256 84.604651,21.576110 83.744245,21.814512 L 74.635026,24.359475 C 74.113533,24.505362 73.330712,24.226347 72.990539,23.773156 L 67.076932,15.893981 C 66.518307,15.152521 66.000561,15.189625 65.740862,15.276777 C 65.481467,15.363824 65.040312,15.652611 64.996045,16.597086 L 64.521953,26.624784 C 64.493717,27.209179 64.017405,27.902598 63.502968,28.105780 L 54.685047,31.604067 C 53.854103,31.927661 53.728006,32.463428 53.727174,32.754459 C 53.726239,33.045163 53.849397,33.584488 54.683924,33.930389 L 63.496661,37.582572 C 64.008593,37.797792 64.485590,38.502096 64.512969,39.087526 L 64.527980,39.408382 C 65.513343,39.150516 66.502965,38.855096 67.494368,38.509873 C 72.907998,36.624752 77.539090,33.692498 80.983373,30.260843 z "
               id="path1108"
               style="fill:url(#linearGradient1470)" />
            <path
               d="M 94.377323,35.579946 C 94.247189,35.770039 94.020523,36.009283 93.650611,36.145946 C 94.021211,36.009951 94.252249,35.785842 94.386404,35.608312 C 94.597110,35.330905 94.840049,34.794791 94.572265,34.018149 C 94.778798,34.782442 94.566214,35.302795 94.377323,35.579946 z "
               id="path1109"
               style="fill:url(#linearGradient1472)" />
            <path
               d="M 74.510059,40.703844 C 73.836982,40.498345 72.867485,40.827156 72.433935,41.406761 L 65.418029,52.561275 C 64.716686,53.493767 64.063013,53.432586 63.735299,53.312710 C 63.502077,53.227037 63.152405,53.001675 62.948330,52.440678 C 63.117141,53.059981 63.500155,53.283922 63.750607,53.361488 C 64.071885,53.459714 64.717084,53.495034 65.438005,52.624938 L 73.059781,43.401213 C 73.505456,42.860250 74.474854,42.531122 75.135308,42.696396 L 86.409660,45.544643 C 86.941158,45.679284 87.334110,45.640475 87.619918,45.532871 C 87.334309,45.641108 86.938276,45.670100 86.396640,45.503150 L 74.510059,40.703844 z "
               id="path1110"
               style="opacity:0.29999998;fill:#e89500" />
          </g>
          <g
             transform="matrix(0.248564,0.297420,-0.269806,0.311806,21.32322,23.87997)"
             id="g1501">
            <path
               style="fill:url(#linearGradient1509);fill-opacity:1.0000000;fill-rule:evenodd;stroke:none;stroke-width:0.012500000;stroke-linecap:butt;stroke-linejoin:miter;stroke-miterlimit:4.0000000;stroke-opacity:1.0000000"
               d="M 5.2690550,-32.969311 C 5.3129600,-33.448337 5.3568670,-33.927364 5.4007730,-34.406381 C 5.4446790,-34.885408 5.4885850,-35.364434 5.5325010,-35.843460 C 5.5682540,-36.364082 5.7538090,-36.682421 6.1952360,-36.717169 C 7.6501450,-36.731050 9.1050450,-36.744922 10.559954,-36.758794 C 12.014863,-36.772665 13.469762,-36.786537 14.924672,-36.800418 C 14.724595,-35.257881 8.5303980,-35.536279 7.6543970,-35.440181 C 6.0476270,-35.263919 7.0794500,-33.543874 5.2690550,-32.969311 z "
               id="path1447" />
            <path
               d="M 33.599422,-31.877654 C 33.471046,-31.688302 33.247178,-31.450175 32.881142,-31.314843 C 33.247855,-31.449506 33.476098,-31.672514 33.608497,-31.849316 C 33.816463,-32.125576 34.055641,-32.659957 33.788289,-33.435879 C 33.994942,-32.672458 33.785780,-32.153724 33.599422,-31.877654 z "
               id="path1449"
               style="fill:url(#linearGradient1511)" />
            <path
               d="M 28.302259,-47.558093 C 28.110412,-47.828238 27.628606,-48.236787 26.559648,-47.935106 L 15.235630,-44.713532 C 14.587649,-44.529311 13.626915,-44.829354 13.218604,-45.344924 L 6.1215410,-54.310185 C 5.4502650,-55.153617 4.8099880,-55.095627 4.4863730,-54.986448 C 4.1636210,-54.877921 3.6107860,-54.529928 3.5307270,-53.432591 L 2.6779810,-41.786473 C 2.6274030,-41.107602 2.0200980,-40.289271 1.3792690,-40.038046 L -9.6103880,-35.719187 C -10.645926,-35.318933 -10.815772,-34.693647 -10.824836,-34.356351 C -10.833897,-34.019055 -10.695667,-33.397154 -9.6738790,-33.020448 L 1.1192320,-29.044776 C 1.7461000,-28.809936 2.3166160,-28.007582 2.3349060,-27.329176 L 2.6351650,-15.704433 C 2.6650680,-14.609237 3.2020530,-14.279920 3.5189480,-14.180377 C 3.8374460,-14.081392 4.4766320,-14.044238 5.1884140,-14.910532 L 12.713515,-24.094006 C 13.153531,-24.632610 14.112876,-24.958246 14.767517,-24.791342 L 25.942695,-21.915329 C 26.997500,-21.643132 27.498268,-22.066356 27.703256,-22.342713 C 27.908243,-22.619070 28.164009,-23.218819 27.581360,-24.127859 L 21.437178,-33.783990 C 21.085600,-34.337566 21.109374,-35.353529 21.487094,-35.916070 L 28.098777,-45.769156 C 28.721071,-46.697299 28.494107,-47.287950 28.302259,-47.558093 z "
               id="path1451"
               style="fill:url(#radialGradient1513);stroke:url(#linearGradient1515);stroke-width:0.29878873;stroke-linejoin:round;stroke-miterlimit:4.0000000;stroke-opacity:0.41874996" />
            <path
               d="M 20.608145,-37.258361 L 24.655638,-43.804924 C 25.142390,-44.592336 24.947232,-45.106589 24.786829,-45.343662 C 24.627039,-45.580948 24.229423,-45.943094 23.369017,-45.704692 L 14.259798,-43.159729 C 13.738305,-43.013842 12.955484,-43.292857 12.615311,-43.746048 L 6.7017040,-51.625223 C 6.1430790,-52.366683 5.6253330,-52.329579 5.3656340,-52.242427 C 5.1062390,-52.155380 4.6650840,-51.866593 4.6208170,-50.922118 L 4.1467250,-40.894420 C 4.1184890,-40.310025 3.6421770,-39.616606 3.1277400,-39.413424 L -5.6901811,-35.915137 C -6.5211246,-35.591543 -6.6472217,-35.055776 -6.6480540,-34.764745 C -6.6489892,-34.474041 -6.5258309,-33.934716 -5.6913039,-33.588815 L 3.1214330,-29.936632 C 3.6333650,-29.721412 4.1103620,-29.017108 4.1377410,-28.431678 L 4.1527520,-28.110822 C 5.1381150,-28.368688 6.1277370,-28.664108 7.1191400,-29.009331 C 12.532770,-30.894452 17.163862,-33.826706 20.608145,-37.258361 z "
               id="path1453"
               style="fill:url(#linearGradient1517)" />
            <path
               d="M 34.002095,-31.939258 C 33.871961,-31.749165 33.645295,-31.509921 33.275383,-31.373258 C 33.645983,-31.509253 33.877021,-31.733362 34.011176,-31.910892 C 34.221882,-32.188299 34.464821,-32.724413 34.197037,-33.501055 C 34.403570,-32.736762 34.190986,-32.216409 34.002095,-31.939258 z "
               id="path1455"
               style="fill:url(#linearGradient1519)" />
            <path
               d="M 14.134831,-26.815360 C 13.461754,-27.020859 12.492257,-26.692048 12.058707,-26.112443 L 5.0428010,-14.957929 C 4.3414580,-14.025437 3.6877850,-14.086618 3.3600710,-14.206494 C 3.1268490,-14.292167 2.7771770,-14.517529 2.5731020,-15.078526 C 2.7419130,-14.459223 3.1249270,-14.235282 3.3753790,-14.157716 C 3.6966570,-14.059490 4.3418560,-14.024170 5.0627770,-14.894266 L 12.684553,-24.117991 C 13.130228,-24.658954 14.099626,-24.988082 14.760080,-24.822808 L 26.034432,-21.974561 C 26.565930,-21.839920 26.958882,-21.878729 27.244690,-21.986333 C 26.959081,-21.878096 26.563048,-21.849104 26.021412,-22.016054 L 14.134831,-26.815360 z "
               id="path1457"
               style="opacity:0.29999998;fill:#e89500" />
          </g>
          <g
             transform="matrix(0.242425,-3.017043e-2,4.685604e-2,0.276907,17.37467,30.51363)"
             id="g1521">
            <path
               style="fill:url(#linearGradient1535);fill-opacity:1.0000000;fill-rule:evenodd;stroke:none;stroke-width:0.012500000;stroke-linecap:butt;stroke-linejoin:miter;stroke-miterlimit:4.0000000;stroke-opacity:1.0000000"
               d="M 5.2690550,-32.969311 C 5.3129600,-33.448337 5.3568670,-33.927364 5.4007730,-34.406381 C 5.4446790,-34.885408 5.4885850,-35.364434 5.5325010,-35.843460 C 5.5682540,-36.364082 5.7538090,-36.682421 6.1952360,-36.717169 C 7.6501450,-36.731050 9.1050450,-36.744922 10.559954,-36.758794 C 12.014863,-36.772665 13.469762,-36.786537 14.924672,-36.800418 C 14.724595,-35.257881 8.5303980,-35.536279 7.6543970,-35.440181 C 6.0476270,-35.263919 7.0794500,-33.543874 5.2690550,-32.969311 z "
               id="path1523" />
            <path
               d="M 33.599422,-31.877654 C 33.471046,-31.688302 33.247178,-31.450175 32.881142,-31.314843 C 33.247855,-31.449506 33.476098,-31.672514 33.608497,-31.849316 C 33.816463,-32.125576 34.055641,-32.659957 33.788289,-33.435879 C 33.994942,-32.672458 33.785780,-32.153724 33.599422,-31.877654 z "
               id="path1525"
               style="fill:url(#linearGradient1537)" />
            <path
               d="M 28.302259,-47.558093 C 28.110412,-47.828238 27.628606,-48.236787 26.559648,-47.935106 L 15.235630,-44.713532 C 14.587649,-44.529311 13.626915,-44.829354 13.218604,-45.344924 L 6.1215410,-54.310185 C 5.4502650,-55.153617 4.8099880,-55.095627 4.4863730,-54.986448 C 4.1636210,-54.877921 3.6107860,-54.529928 3.5307270,-53.432591 L 2.6779810,-41.786473 C 2.6274030,-41.107602 2.0200980,-40.289271 1.3792690,-40.038046 L -9.6103880,-35.719187 C -10.645926,-35.318933 -10.815772,-34.693647 -10.824836,-34.356351 C -10.833897,-34.019055 -10.695667,-33.397154 -9.6738790,-33.020448 L 1.1192320,-29.044776 C 1.7461000,-28.809936 2.3166160,-28.007582 2.3349060,-27.329176 L 2.6351650,-15.704433 C 2.6650680,-14.609237 3.2020530,-14.279920 3.5189480,-14.180377 C 3.8374460,-14.081392 4.4766320,-14.044238 5.1884140,-14.910532 L 12.713515,-24.094006 C 13.153531,-24.632610 14.112876,-24.958246 14.767517,-24.791342 L 25.942695,-21.915329 C 26.997500,-21.643132 27.498268,-22.066356 27.703256,-22.342713 C 27.908243,-22.619070 28.164009,-23.218819 27.581360,-24.127859 L 21.437178,-33.783990 C 21.085600,-34.337566 21.109374,-35.353529 21.487094,-35.916070 L 28.098777,-45.769156 C 28.721071,-46.697299 28.494107,-47.287950 28.302259,-47.558093 z "
               id="path1527"
               style="fill:url(#radialGradient1539);stroke:url(#linearGradient1541);stroke-width:0.29878873;stroke-linejoin:round;stroke-miterlimit:4.0000000;stroke-opacity:0.41874996" />
            <path
               d="M 20.608145,-37.258361 L 24.655638,-43.804924 C 25.142390,-44.592336 24.947232,-45.106589 24.786829,-45.343662 C 24.627039,-45.580948 24.229423,-45.943094 23.369017,-45.704692 L 14.259798,-43.159729 C 13.738305,-43.013842 12.955484,-43.292857 12.615311,-43.746048 L 6.7017040,-51.625223 C 6.1430790,-52.366683 5.6253330,-52.329579 5.3656340,-52.242427 C 5.1062390,-52.155380 4.6650840,-51.866593 4.6208170,-50.922118 L 4.1467250,-40.894420 C 4.1184890,-40.310025 3.6421770,-39.616606 3.1277400,-39.413424 L -5.6901811,-35.915137 C -6.5211246,-35.591543 -6.6472217,-35.055776 -6.6480540,-34.764745 C -6.6489892,-34.474041 -6.5258309,-33.934716 -5.6913039,-33.588815 L 3.1214330,-29.936632 C 3.6333650,-29.721412 4.1103620,-29.017108 4.1377410,-28.431678 L 4.1527520,-28.110822 C 5.1381150,-28.368688 6.1277370,-28.664108 7.1191400,-29.009331 C 12.532770,-30.894452 17.163862,-33.826706 20.608145,-37.258361 z "
               id="path1529"
               style="fill:url(#linearGradient1543)" />
            <path
               d="M 34.002095,-31.939258 C 33.871961,-31.749165 33.645295,-31.509921 33.275383,-31.373258 C 33.645983,-31.509253 33.877021,-31.733362 34.011176,-31.910892 C 34.221882,-32.188299 34.464821,-32.724413 34.197037,-33.501055 C 34.403570,-32.736762 34.190986,-32.216409 34.002095,-31.939258 z "
               id="path1531"
               style="fill:url(#linearGradient1545)" />
            <path
               d="M 14.134831,-26.815360 C 13.461754,-27.020859 12.492257,-26.692048 12.058707,-26.112443 L 5.0428010,-14.957929 C 4.3414580,-14.025437 3.6877850,-14.086618 3.3600710,-14.206494 C 3.1268490,-14.292167 2.7771770,-14.517529 2.5731020,-15.078526 C 2.7419130,-14.459223 3.1249270,-14.235282 3.3753790,-14.157716 C 3.6966570,-14.059490 4.3418560,-14.024170 5.0627770,-14.894266 L 12.684553,-24.117991 C 13.130228,-24.658954 14.099626,-24.988082 14.760080,-24.822808 L 26.034432,-21.974561 C 26.565930,-21.839920 26.958882,-21.878729 27.244690,-21.986333 C 26.959081,-21.878096 26.563048,-21.849104 26.021412,-22.016054 L 14.134831,-26.815360 z "
               id="path1533"
               style="opacity:0.29999998;fill:#e89500" />
          </g>
          <g
             transform="matrix(0.140272,-1.600557e-2,2.711178e-2,0.146901,12.44720,40.16389)"
             id="g1547">
            <path
               style="fill:url(#linearGradient1561);fill-opacity:1.0000000;fill-rule:evenodd;stroke:none;stroke-width:0.012500000;stroke-linecap:butt;stroke-linejoin:miter;stroke-miterlimit:4.0000000;stroke-opacity:1.0000000"
               d="M 5.2690550,-32.969311 C 5.3129600,-33.448337 5.3568670,-33.927364 5.4007730,-34.406381 C 5.4446790,-34.885408 5.4885850,-35.364434 5.5325010,-35.843460 C 5.5682540,-36.364082 5.7538090,-36.682421 6.1952360,-36.717169 C 7.6501450,-36.731050 9.1050450,-36.744922 10.559954,-36.758794 C 12.014863,-36.772665 13.469762,-36.786537 14.924672,-36.800418 C 14.724595,-35.257881 8.5303980,-35.536279 7.6543970,-35.440181 C 6.0476270,-35.263919 7.0794500,-33.543874 5.2690550,-32.969311 z "
               id="path1549" />
            <path
               d="M 33.599422,-31.877654 C 33.471046,-31.688302 33.247178,-31.450175 32.881142,-31.314843 C 33.247855,-31.449506 33.476098,-31.672514 33.608497,-31.849316 C 33.816463,-32.125576 34.055641,-32.659957 33.788289,-33.435879 C 33.994942,-32.672458 33.785780,-32.153724 33.599422,-31.877654 z "
               id="path1551"
               style="fill:url(#linearGradient1563)" />
            <path
               d="M 28.302259,-47.558093 C 28.110412,-47.828238 27.628606,-48.236787 26.559648,-47.935106 L 15.235630,-44.713532 C 14.587649,-44.529311 13.626915,-44.829354 13.218604,-45.344924 L 6.1215410,-54.310185 C 5.4502650,-55.153617 4.8099880,-55.095627 4.4863730,-54.986448 C 4.1636210,-54.877921 3.6107860,-54.529928 3.5307270,-53.432591 L 2.6779810,-41.786473 C 2.6274030,-41.107602 2.0200980,-40.289271 1.3792690,-40.038046 L -9.6103880,-35.719187 C -10.645926,-35.318933 -10.815772,-34.693647 -10.824836,-34.356351 C -10.833897,-34.019055 -10.695667,-33.397154 -9.6738790,-33.020448 L 1.1192320,-29.044776 C 1.7461000,-28.809936 2.3166160,-28.007582 2.3349060,-27.329176 L 2.6351650,-15.704433 C 2.6650680,-14.609237 3.2020530,-14.279920 3.5189480,-14.180377 C 3.8374460,-14.081392 4.4766320,-14.044238 5.1884140,-14.910532 L 12.713515,-24.094006 C 13.153531,-24.632610 14.112876,-24.958246 14.767517,-24.791342 L 25.942695,-21.915329 C 26.997500,-21.643132 27.498268,-22.066356 27.703256,-22.342713 C 27.908243,-22.619070 28.164009,-23.218819 27.581360,-24.127859 L 21.437178,-33.783990 C 21.085600,-34.337566 21.109374,-35.353529 21.487094,-35.916070 L 28.098777,-45.769156 C 28.721071,-46.697299 28.494107,-47.287950 28.302259,-47.558093 z "
               id="path1553"
               style="fill:url(#radialGradient1565);stroke:url(#linearGradient1567);stroke-width:0.29878873;stroke-linejoin:round;stroke-miterlimit:4.0000000;stroke-opacity:0.41874996" />
            <path
               d="M 20.608145,-37.258361 L 24.655638,-43.804924 C 25.142390,-44.592336 24.947232,-45.106589 24.786829,-45.343662 C 24.627039,-45.580948 24.229423,-45.943094 23.369017,-45.704692 L 14.259798,-43.159729 C 13.738305,-43.013842 12.955484,-43.292857 12.615311,-43.746048 L 6.7017040,-51.625223 C 6.1430790,-52.366683 5.6253330,-52.329579 5.3656340,-52.242427 C 5.1062390,-52.155380 4.6650840,-51.866593 4.6208170,-50.922118 L 4.1467250,-40.894420 C 4.1184890,-40.310025 3.6421770,-39.616606 3.1277400,-39.413424 L -5.6901811,-35.915137 C -6.5211246,-35.591543 -6.6472217,-35.055776 -6.6480540,-34.764745 C -6.6489892,-34.474041 -6.5258309,-33.934716 -5.6913039,-33.588815 L 3.1214330,-29.936632 C 3.6333650,-29.721412 4.1103620,-29.017108 4.1377410,-28.431678 L 4.1527520,-28.110822 C 5.1381150,-28.368688 6.1277370,-28.664108 7.1191400,-29.009331 C 12.532770,-30.894452 17.163862,-33.826706 20.608145,-37.258361 z "
               id="path1555"
               style="fill:url(#linearGradient1569)" />
            <path
               d="M 34.002095,-31.939258 C 33.871961,-31.749165 33.645295,-31.509921 33.275383,-31.373258 C 33.645983,-31.509253 33.877021,-31.733362 34.011176,-31.910892 C 34.221882,-32.188299 34.464821,-32.724413 34.197037,-33.501055 C 34.403570,-32.736762 34.190986,-32.216409 34.002095,-31.939258 z "
               id="path1557"
               style="fill:url(#linearGradient1571)" />
            <path
               d="M 14.134831,-26.815360 C 13.461754,-27.020859 12.492257,-26.692048 12.058707,-26.112443 L 5.0428010,-14.957929 C 4.3414580,-14.025437 3.6877850,-14.086618 3.3600710,-14.206494 C 3.1268490,-14.292167 2.7771770,-14.517529 2.5731020,-15.078526 C 2.7419130,-14.459223 3.1249270,-14.235282 3.3753790,-14.157716 C 3.6966570,-14.059490 4.3418560,-14.024170 5.0627770,-14.894266 L 12.684553,-24.117991 C 13.130228,-24.658954 14.099626,-24.988082 14.760080,-24.822808 L 26.034432,-21.974561 C 26.565930,-21.839920 26.958882,-21.878729 27.244690,-21.986333 C 26.959081,-21.878096 26.563048,-21.849104 26.021412,-22.016054 L 14.134831,-26.815360 z "
               id="path1559"
               style="opacity:0.29999998;fill:#e89500" />
          </g>
        </g>
      </g>
    </g>
  </g>
</svg>
