<?xml version="1.0" encoding="UTF-8" standalone="no"?>
<!-- Created with Inkscape (http://www.inkscape.org/) -->
<svg
   xmlns:dc="http://purl.org/dc/elements/1.1/"
   xmlns:cc="http://web.resource.org/cc/"
   xmlns:rdf="http://www.w3.org/1999/02/22-rdf-syntax-ns#"
   xmlns:svg="http://www.w3.org/2000/svg"
   xmlns="http://www.w3.org/2000/svg"
   xmlns:xlink="http://www.w3.org/1999/xlink"
   xmlns:sodipodi="http://inkscape.sourceforge.net/DTD/sodipodi-0.dtd"
   xmlns:inkscape="http://www.inkscape.org/namespaces/inkscape"
   width="48px"
   height="48px"
   id="svg1412"
   sodipodi:version="0.32"
   inkscape:version="0.41"
   sodipodi:docbase="/home/pinheiro/artwork/oooicons/crystalsvg"
   sodipodi:docname="autocontrolfocus.svg"
   inkscape:export-filename="/home/pinheiro/kdeplayground-artwork/oooicons/crystalsvg/autocontrolfocus.png"
   inkscape:export-xdpi="60.000000"
   inkscape:export-ydpi="60.000000">
  <defs
     id="defs3">
    <linearGradient
       id="light100to0">
      <stop
         id="stop2764"
         offset="0.0000000"
         style="stop-color:#ffffff;stop-opacity:1.0000000;" />
      <stop
         id="stop2765"
         offset="1.0000000"
         style="stop-color:#ffffff;stop-opacity:0.0000000;" />
    </linearGradient>
    <linearGradient
       gradientUnits="userSpaceOnUse"
       y2="391.13461"
       x2="59.143284"
       y1="381.62640"
       x1="52.941071"
       gradientTransform="scale(1.765446,0.566429)"
       id="linearGradient2704"
       xlink:href="#light100to0"
       inkscape:collect="always" />
    <linearGradient
       id="light75to0">
      <stop
         id="stop2769"
         offset="0.0000000"
         style="stop-color:#ffffff;stop-opacity:0.72916669;" />
      <stop
         id="stop2770"
         offset="1.0000000"
         style="stop-color:#ffffff;stop-opacity:0.0000000;" />
    </linearGradient>
    <radialGradient
       gradientUnits="userSpaceOnUse"
       r="28.460997"
       fy="222.80730"
       fx="143.15750"
       cy="222.80730"
       cx="143.15750"
       gradientTransform="scale(0.801622,1.247470)"
       id="radialGradient2694"
       xlink:href="#light75to0"
       inkscape:collect="always" />
    <linearGradient
       inkscape:collect="always"
       xlink:href="#defitem1"
       id="linearGradient2181"
       gradientUnits="userSpaceOnUse"
       x1="17.961576"
       y1="103.89955"
       x2="47.040798"
       y2="70.134598" />
    <radialGradient
       inkscape:collect="always"
       xlink:href="#defitem0"
       id="radialGradient2179"
       gradientUnits="userSpaceOnUse"
       cx="25.941132"
       cy="42.246212"
       fx="25.941132"
       fy="42.246212"
       r="33.692192" />
    <linearGradient
       id="linearGradient2069">
      <stop
         style="stop-color:#ffffff;stop-opacity:1;"
         offset="0"
         id="stop2071" />
      <stop
         style="stop-color:#1f1f1f;stop-opacity:1.0000000;"
         offset="1.0000000"
         id="stop2073" />
    </linearGradient>
    <radialGradient
       xlink:href="#defitem0"
       id="radialGradient854"
       cx="25.941132"
       cy="42.246212"
       r="33.692192"
       fx="25.941132"
       fy="42.246212"
       gradientUnits="userSpaceOnUse" />
    <linearGradient
       id="defitem1"
       gradientUnits="userSpaceOnUse"
       x1="2.15164"
       y1="120.676"
       x2="47.0408"
       y2="70.1346">
      <stop
         stop-color="#ffffff"
         offset="0"
         stop-opacity="1"
         id="stop7" />
      <stop
         stop-color="#ffffff"
         offset="1"
         stop-opacity="0"
         id="stop8" />
    </linearGradient>
    <radialGradient
       id="defitem0"
       gradientUnits="userSpaceOnUse"
       cx="25.3442"
       cy="85.8463"
       fx="25.3442"
       fy="85.8463"
       r="20.445">
      <stop
         stop-color="#ffffff"
         offset="0"
         stop-opacity="1"
         id="stop4" />
      <stop
         stop-color="#cccccc"
         offset="1.0000000"
         stop-opacity="1"
         id="stop5"
         style="stop-color:#c7c7c7;stop-opacity:1.0000000;" />
    </radialGradient>
    <linearGradient
       inkscape:collect="always"
       xlink:href="#defitem1"
       id="linearGradient1463"
       gradientUnits="userSpaceOnUse"
       x1="29.743397"
       y1="101.69765"
       x2="47.040798"
       y2="70.134598" />
    <linearGradient
       y2="154.10789"
       x2="409.73569"
       y1="234.90770"
       x1="149.29594"
       gradientTransform="matrix(0.728114,-1.619744e-2,3.170042e-2,1.425011,-411.8219,-163.2111)"
       gradientUnits="userSpaceOnUse"
       id="linearGradient2546"
       xlink:href="#linearGradient5170"
       inkscape:collect="always" />
    <linearGradient
       id="linearGradient5170">
      <stop
         id="stop5171"
         offset="0.0000000"
         style="stop-color:#8f8fa6;stop-opacity:1.0000000;" />
      <stop
         id="stop5172"
         offset="1.0000000"
         style="stop-color:#ffffff;stop-opacity:1.0000000;" />
    </linearGradient>
    <linearGradient
       y2="145.69553"
       x2="299.20441"
       y1="96.190353"
       x1="304.64722"
       gradientTransform="matrix(0.728114,-1.619744e-2,3.170042e-2,1.425011,-411.8219,-163.2111)"
       gradientUnits="userSpaceOnUse"
       id="linearGradient2543"
       xlink:href="#light90to0"
       inkscape:collect="always" />
    <linearGradient
       id="light90to0">
      <stop
         id="stop1890"
         offset="0.0000000"
         style="stop-color:#ffffff;stop-opacity:0.90196079;" />
      <stop
         id="stop1892"
         offset="1.0000000"
         style="stop-color:#ffffff;stop-opacity:0.0000000;" />
    </linearGradient>
    <radialGradient
       r="105.02886"
       fy="224.28973"
       fx="328.27005"
       cy="224.77423"
       cx="330.11304"
       gradientTransform="matrix(0.901404,-2.005241e-2,2.560619e-2,1.151060,-411.8219,-163.2111)"
       gradientUnits="userSpaceOnUse"
       id="radialGradient2540"
       xlink:href="#light90to0"
       inkscape:collect="always" />
    <linearGradient
       inkscape:collect="always"
       xlink:href="#light90to0"
       id="linearGradient1402"
       gradientUnits="userSpaceOnUse"
       gradientTransform="scale(1.521772,0.657129)"
       x1="17.645124"
       y1="34.837700"
       x2="8.4534349"
       y2="23.272236" />
    <linearGradient
       inkscape:collect="always"
       xlink:href="#linearGradient5170"
       id="linearGradient2934"
       gradientTransform="scale(1.632994,0.612372)"
       x1="6.2295642"
       y1="26.623148"
       x2="6.3051643"
       y2="41.480728"
       gradientUnits="userSpaceOnUse"
       spreadMethod="reflect" />
    <linearGradient
       inkscape:collect="always"
       xlink:href="#light90to0"
       id="linearGradient2947"
       gradientUnits="userSpaceOnUse"
       gradientTransform="matrix(1.485552,0.000000,0.000000,0.639019,0.571240,-3.200766)"
       x1="17.645124"
       y1="34.837700"
       x2="8.4534349"
       y2="23.272236" />
    <linearGradient
       inkscape:collect="always"
       xlink:href="#linearGradient5170"
       id="linearGradient2952"
       gradientUnits="userSpaceOnUse"
       gradientTransform="matrix(1.632994,0.000000,0.000000,0.612372,0.000000,-4.000000)"
       spreadMethod="reflect"
       x1="6.2295642"
       y1="26.623148"
       x2="6.3051643"
       y2="41.480728" />
  </defs>
  <sodipodi:namedview
     id="base"
     pagecolor="#ffffff"
     bordercolor="#666666"
     borderopacity="1.0"
     inkscape:pageopacity="0.0"
     inkscape:pageshadow="2"
     inkscape:zoom="24.289949"
     inkscape:cx="8.8145453"
     inkscape:cy="31.200001"
     inkscape:current-layer="layer1"
     showgrid="false"
     inkscape:grid-bbox="true"
     inkscape:document-units="px"
     inkscape:window-width="1024"
     inkscape:window-height="724"
     inkscape:window-x="15"
     inkscape:window-y="25" />
  <metadata
     id="metadata4">
    <rdf:RDF
       id="RDF5">
      <cc:Work
         rdf:about=""
         id="Work6">
        <dc:format
           id="format7">image/svg+xml</dc:format>
        <dc:type
           id="type9"
           rdf:resource="http://purl.org/dc/dcmitype/StillImage" />
      </cc:Work>
    </rdf:RDF>
  </metadata>
  <g
     id="layer1"
     inkscape:label="Layer 1"
     inkscape:groupmode="layer">
    <path
       id="rect1465"
       d="M 2.4864590,5.0000000 L 45.513541,5.0000000 C 46.337040,5.0000000 47.000000,5.6307393 47.000000,6.4142140 L 47.000000,24.801622 C 47.000000,25.585097 46.337040,26.215836 45.513541,26.215836 L 2.4864590,26.215836 C 1.6629607,26.215836 1.0000000,25.585097 1.0000000,24.801622 L 1.0000000,6.4142140 C 1.0000000,5.6307393 1.6629607,5.0000000 2.4864590,5.0000000 z "
       style="fill:#434343;fill-opacity:1.0000000;stroke:none;stroke-width:1.9972168;stroke-linecap:round;stroke-linejoin:round;stroke-miterlimit:4.0000000;stroke-opacity:1.0000000" />
    <path
       id="path2936"
       d="M 5.2925730,8.0000000 L 42.707426,8.0000000 C 43.423513,8.0000000 44.000000,8.4459440 44.000000,8.9998780 L 44.000000,22.000122 C 44.000000,22.554057 43.423513,23.000000 42.707426,23.000000 L 5.2925730,23.000000 C 4.5764875,23.000000 4.0000000,22.554057 4.0000000,22.000122 L 4.0000000,8.9998780 C 4.0000000,8.4459440 4.5764875,8.0000000 5.2925730,8.0000000 z "
       style="fill:#eceded;fill-opacity:1.0000000;stroke:none;stroke-width:1.9972168;stroke-linecap:round;stroke-linejoin:round;stroke-miterlimit:4.0000000;stroke-opacity:1.0000000" />
    <path
       id="path1309"
       d="M 5.2925730,8.0000000 L 42.707426,8.0000000 C 43.423513,8.0000000 44.000000,8.4459440 44.000000,8.9998780 L 44.000000,22.000122 C 44.000000,22.554057 43.423513,23.000000 42.707426,23.000000 L 5.2925730,23.000000 C 4.5764875,23.000000 4.0000000,22.554057 4.0000000,22.000122 L 4.0000000,8.9998780 C 4.0000000,8.4459440 4.5764875,8.0000000 5.2925730,8.0000000 z "
       style="stroke-opacity:1.0000000;stroke-miterlimit:4.0000000;stroke-linejoin:round;stroke-linecap:round;stroke-width:1.9972168;stroke:none;fill-opacity:1.0000000;fill:url(#linearGradient2952);opacity:0.055335968" />
    <path
       id="path2067"
       d="M 3.9116247,6.5236364 L 44.088376,6.5236364 C 44.857322,6.5236364 45.476364,7.0729328 45.476364,7.7552416 L 45.476364,23.768395 C 45.476364,24.450705 44.857322,25.000000 44.088376,25.000000 L 3.9116247,25.000000 C 3.1426792,25.000000 2.5236364,24.450705 2.5236364,23.768395 L 2.5236364,7.7552416 C 2.5236364,7.0729328 3.1426792,6.5236364 3.9116247,6.5236364 z "
       style="fill:url(#linearGradient2947);fill-opacity:1.0000000;stroke:none;stroke-width:1.9972168;stroke-linecap:round;stroke-linejoin:round;stroke-miterlimit:4.0000000;stroke-opacity:1.0000000" />
    <g
       inkscape:groupmode="layer"
       inkscape:label="Layer 1"
       id="g1390"
       transform="matrix(0.595665,0.000000,0.000000,0.640590,26.42977,5.359404)">
      <g
         transform="matrix(0.230652,0.000000,0.000000,0.221083,57.61193,18.66978)"
         id="g3338">
        <path
           sodipodi:nodetypes="cccccccccccccccccc"
           id="path3326"
           d="M -240.44301,-68.316144 C -243.86112,-68.437500 -247.18046,-67.085045 -249.64814,-64.565534 C -252.11582,-62.046023 -253.52270,-58.572981 -253.54972,-54.934140 L -254.63730,106.45107 C -254.66290,110.87231 -252.65163,115.02652 -249.25347,117.57112 C -245.85534,120.11570 -241.50131,120.72794 -237.59857,119.20995 L -202.79604,105.62026 L -165.26064,194.27975 C -162.39536,201.06289 -154.91288,204.10154 -148.52866,201.07460 L -117.71393,186.44639 C -114.62153,184.97749 -112.20960,182.25380 -111.01533,178.88192 C -109.82107,175.51006 -109.94366,171.77005 -111.35579,168.49491 L -148.13826,83.128988 L -118.55053,70.132717 C -114.52764,68.363354 -111.63849,64.522605 -110.89718,59.958553 C -110.15587,55.394503 -111.66594,50.744795 -114.89739,47.641453 L -232.38377,-64.874209 C -234.60587,-66.994765 -237.45964,-68.213555 -240.44301,-68.316144 z "
           style="fill:#000000;fill-opacity:0.043290023;fill-rule:evenodd;stroke:none;stroke-width:28.424999;stroke-linecap:butt;stroke-linejoin:round;stroke-miterlimit:4.0000000;stroke-opacity:1.0000000" />
        <path
           sodipodi:nodetypes="cccccccccccccccccc"
           id="path3324"
           d="M -239.69867,-68.316081 C -243.29602,-68.438456 -246.78942,-67.074643 -249.38650,-64.533974 C -251.98358,-61.993304 -253.46424,-58.491096 -253.49268,-54.821696 L -254.63729,107.91881 C -254.66423,112.37718 -252.54749,116.56628 -248.97114,119.13225 C -245.39481,121.69820 -240.81246,122.31558 -236.70507,120.78484 L -200.07755,107.08102 L -160.57385,196.48507 C -157.55832,203.32517 -149.68346,206.38934 -142.96447,203.33698 L -110.53386,188.58592 C -107.27930,187.10469 -104.74089,184.35812 -103.48399,180.95793 C -102.22711,177.55775 -102.35612,173.78633 -103.84230,170.48369 L -142.55359,84.400872 L -111.41433,71.295460 C -107.18048,69.511238 -104.13983,65.638235 -103.35965,61.035854 C -102.57946,56.433476 -104.16872,51.744720 -107.56962,48.615317 L -231.21681,-64.845241 C -233.55544,-66.983605 -236.55886,-68.212630 -239.69867,-68.316081 z "
           style="fill:#000000;fill-opacity:0.043290023;fill-rule:evenodd;stroke:none;stroke-width:28.424999;stroke-linecap:butt;stroke-linejoin:round;stroke-miterlimit:4.0000000;stroke-opacity:1.0000000" />
        <path
           sodipodi:nodetypes="cccccccccccccccccc"
           id="path3322"
           d="M -239.17763,-68.315892 C -242.90045,-68.441324 -246.51569,-67.043438 -249.20335,-64.439293 C -251.89102,-61.835147 -253.42332,-58.245440 -253.45275,-54.484364 L -254.63728,112.32203 C -254.66516,116.89179 -252.47459,121.18555 -248.77351,123.81563 C -245.07244,126.44569 -240.33027,127.07849 -236.07962,125.50951 L -198.17461,111.46331 L -157.29309,203.10102 C -154.17239,210.11202 -146.02287,213.25274 -139.06953,210.12412 L -105.50781,195.00452 C -102.13974,193.48628 -99.512796,190.67109 -98.212058,187.18595 C -96.911332,183.70082 -97.044845,179.83518 -98.582864,176.45003 L -138.64432,88.216525 L -106.41899,74.783689 C -102.03747,72.954890 -98.890772,68.985124 -98.083380,64.267758 C -97.275977,59.550395 -98.920664,54.744495 -102.44018,51.536908 L -230.39994,-64.758337 C -232.82014,-66.950125 -235.92831,-68.209856 -239.17763,-68.315892 z "
           style="fill:#000000;fill-opacity:0.043290023;fill-rule:evenodd;stroke:none;stroke-width:28.424999;stroke-linecap:butt;stroke-linejoin:round;stroke-miterlimit:4.0000000;stroke-opacity:1.0000000" />
        <path
           sodipodi:nodetypes="cccccccccccccccccc"
           id="path2558"
           d="M -238.73102,-68.315744 C -242.56139,-68.443555 -246.28106,-67.019167 -249.04636,-64.365652 C -251.81167,-61.712136 -253.38825,-58.054374 -253.41852,-54.221994 L -254.63727,115.74676 C -254.66596,120.40315 -252.41210,124.77832 -248.60411,127.45825 C -244.79612,130.13818 -239.91695,130.78298 -235.54352,129.18426 L -196.54352,114.87176 L -154.48102,208.24676 C -151.27015,215.39068 -142.88521,218.59094 -135.73102,215.40301 L -101.19977,199.99676 C -97.734393,198.44974 -95.031563,195.58118 -93.693253,192.02998 C -92.354953,188.47877 -92.492323,184.53985 -94.074773,181.09051 L -135.29352,91.184256 L -102.13727,77.496756 C -97.629183,75.633286 -94.391583,71.588260 -93.560853,66.781462 C -92.730133,61.974665 -94.422333,57.077654 -98.043523,53.809256 L -229.69977,-64.690744 C -232.18988,-66.924085 -235.38785,-68.207698 -238.73102,-68.315744 z "
           style="fill:#000000;fill-opacity:0.077922054;fill-rule:evenodd;stroke:none;stroke-width:28.424999;stroke-linecap:butt;stroke-linejoin:round;stroke-miterlimit:4.0000000;stroke-opacity:1.0000000" />
        <path
           sodipodi:nodetypes="cccccccc"
           id="path4041"
           style="fill:url(#linearGradient2546);fill-opacity:1.0000000;fill-rule:evenodd;stroke:#000000;stroke-width:12.246215pt;stroke-linecap:butt;stroke-linejoin:round;stroke-opacity:1.0000000"
           d="M -241.66309,-58.084431 L -242.76576,107.59433 L -196.25894,89.190355 L -153.29571,191.98354 L -122.06466,176.97007 L -164.91406,76.222367 L -122.59258,57.413445 L -241.66309,-58.084431 z " />
        <path
           sodipodi:nodetypes="ccccccc"
           id="path4083"
           d="M -242.09167,-56.572017 C -244.06020,-55.969913 -243.33928,-51.783768 -243.42392,-50.574436 L -244.57843,106.76204 C -232.57792,94.476986 -190.75933,112.21309 -208.57692,69.906898 C -241.68022,-20.399695 -143.86250,26.863280 -189.91859,-12.415651 L -234.27306,-54.421089 C -236.85111,-56.634472 -239.21729,-59.170144 -242.09167,-56.572017 z "
           style="fill:url(#linearGradient2543);fill-opacity:1.0000000;fill-rule:evenodd;stroke:none;stroke-width:12.019479pt;stroke-linecap:butt;stroke-linejoin:round;stroke-opacity:1.0000000" />
        <path
           sodipodi:nodetypes="ccccccc"
           id="path4096"
           d="M -231.15568,104.21768 L -196.26907,89.193189 L -153.28120,191.99565 L -122.05471,176.96967 L -164.90106,76.234144 L -121.86062,58.665340 C -161.28054,43.574062 -227.81908,82.437212 -231.15568,104.21768 z "
           style="fill:url(#radialGradient2540);fill-opacity:1.0000000;fill-rule:evenodd;stroke:none;stroke-width:12.019479pt;stroke-linecap:butt;stroke-linejoin:round;stroke-opacity:1.0000000" />
      </g>
    </g>
    <g
       transform="matrix(0.181722,0.000000,0.000000,0.187296,-8.015670,-30.58650)"
       id="g2729">
      <g
         style="opacity:0.41106716"
         transform="matrix(0.979218,0.000000,0.000000,0.987244,43.77167,3.987418)"
         id="g2720">
        <path
           style="fill:none;fill-opacity:1.0000000;stroke:#000000;stroke-width:5.8874998;stroke-linecap:round;stroke-linejoin:round;stroke-miterlimit:4.0000000;stroke-opacity:0.067873307"
           d="M 51.302370,216.88620 C 57.576493,214.91219 68.178080,214.91219 74.452210,216.88620 C 75.894700,217.34005 75.473730,223.63931 74.452210,224.16977 C 72.901520,224.97502 66.660550,220.99841 66.735600,223.85922 C 67.061950,236.49683 66.140350,256.33503 66.735600,268.77492 C 66.870240,271.63354 72.901520,267.06595 74.452210,267.87120 C 75.473730,268.40166 75.894700,274.70092 74.452210,275.15476 C 68.178080,277.12877 57.576493,277.12877 51.302370,275.15476 C 49.859879,274.70092 50.280848,268.40166 51.302370,267.87120 C 52.853053,267.06595 59.004040,271.63667 59.018980,268.77492 C 59.088080,255.54413 58.825000,237.28773 59.018980,223.85922 C 59.060320,220.99772 52.853053,224.97502 51.302370,224.16977 C 50.280848,223.63931 49.859879,217.34005 51.302370,216.88620 z "
           id="path2706"
           sodipodi:nodetypes="cssssssssssss" />
        <path
           style="fill:none;fill-opacity:1.0000000;stroke:#000000;stroke-width:5.1374998;stroke-linecap:round;stroke-linejoin:round;stroke-miterlimit:4.0000000;stroke-opacity:0.067873307"
           d="M 51.302370,216.88620 C 57.576493,214.91219 68.178080,214.91219 74.452210,216.88620 C 75.894700,217.34005 75.473730,223.63931 74.452210,224.16977 C 72.901520,224.97502 66.660550,220.99841 66.735600,223.85922 C 67.061950,236.49683 66.140350,256.33503 66.735600,268.77492 C 66.870240,271.63354 72.901520,267.06595 74.452210,267.87120 C 75.473730,268.40166 75.894700,274.70092 74.452210,275.15476 C 68.178080,277.12877 57.576493,277.12877 51.302370,275.15476 C 49.859879,274.70092 50.280848,268.40166 51.302370,267.87120 C 52.853053,267.06595 59.004040,271.63667 59.018980,268.77492 C 59.088080,255.54413 58.825000,237.28773 59.018980,223.85922 C 59.060320,220.99772 52.853053,224.97502 51.302370,224.16977 C 50.280848,223.63931 49.859879,217.34005 51.302370,216.88620 z "
           id="path2708"
           sodipodi:nodetypes="cssssssssssss" />
        <path
           style="fill:none;fill-opacity:1.0000000;stroke:#000000;stroke-width:4.6374998;stroke-linecap:round;stroke-linejoin:round;stroke-miterlimit:4.0000000;stroke-opacity:0.067873307"
           d="M 51.302370,216.88620 C 57.576493,214.91219 68.178080,214.91219 74.452210,216.88620 C 75.894700,217.34005 75.473730,223.63931 74.452210,224.16977 C 72.901520,224.97502 66.660550,220.99841 66.735600,223.85922 C 67.061950,236.49683 66.140350,256.33503 66.735600,268.77492 C 66.870240,271.63354 72.901520,267.06595 74.452210,267.87120 C 75.473730,268.40166 75.894700,274.70092 74.452210,275.15476 C 68.178080,277.12877 57.576493,277.12877 51.302370,275.15476 C 49.859879,274.70092 50.280848,268.40166 51.302370,267.87120 C 52.853053,267.06595 59.004040,271.63667 59.018980,268.77492 C 59.088080,255.54413 58.825000,237.28773 59.018980,223.85922 C 59.060320,220.99772 52.853053,224.97502 51.302370,224.16977 C 50.280848,223.63931 49.859879,217.34005 51.302370,216.88620 z "
           id="path2710"
           sodipodi:nodetypes="cssssssssssss" />
        <path
           style="fill:none;fill-opacity:1.0000000;stroke:#000000;stroke-width:4.1374998;stroke-linecap:round;stroke-linejoin:round;stroke-miterlimit:4.0000000;stroke-opacity:0.067873307"
           d="M 51.302370,216.88620 C 57.576493,214.91219 68.178080,214.91219 74.452210,216.88620 C 75.894700,217.34005 75.473730,223.63931 74.452210,224.16977 C 72.901520,224.97502 66.660550,220.99841 66.735600,223.85922 C 67.061950,236.49683 66.140350,256.33503 66.735600,268.77492 C 66.870240,271.63354 72.901520,267.06595 74.452210,267.87120 C 75.473730,268.40166 75.894700,274.70092 74.452210,275.15476 C 68.178080,277.12877 57.576493,277.12877 51.302370,275.15476 C 49.859879,274.70092 50.280848,268.40166 51.302370,267.87120 C 52.853053,267.06595 59.004040,271.63667 59.018980,268.77492 C 59.088080,255.54413 58.825000,237.28773 59.018980,223.85922 C 59.060320,220.99772 52.853053,224.97502 51.302370,224.16977 C 50.280848,223.63931 49.859879,217.34005 51.302370,216.88620 z "
           id="path2712"
           sodipodi:nodetypes="cssssssssssss" />
        <path
           style="fill:none;fill-opacity:1.0000000;stroke:#000000;stroke-width:3.6375000;stroke-linecap:round;stroke-linejoin:round;stroke-miterlimit:4.0000000;stroke-opacity:0.067873307"
           d="M 51.302370,216.88620 C 57.576493,214.91219 68.178080,214.91219 74.452210,216.88620 C 75.894700,217.34005 75.473730,223.63931 74.452210,224.16977 C 72.901520,224.97502 66.660550,220.99841 66.735600,223.85922 C 67.061950,236.49683 66.140350,256.33503 66.735600,268.77492 C 66.870240,271.63354 72.901520,267.06595 74.452210,267.87120 C 75.473730,268.40166 75.894700,274.70092 74.452210,275.15476 C 68.178080,277.12877 57.576493,277.12877 51.302370,275.15476 C 49.859879,274.70092 50.280848,268.40166 51.302370,267.87120 C 52.853053,267.06595 59.004040,271.63667 59.018980,268.77492 C 59.088080,255.54413 58.825000,237.28773 59.018980,223.85922 C 59.060320,220.99772 52.853053,224.97502 51.302370,224.16977 C 50.280848,223.63931 49.859879,217.34005 51.302370,216.88620 z "
           id="path2714"
           sodipodi:nodetypes="cssssssssssss" />
        <path
           style="fill:none;fill-opacity:1.0000000;stroke:#000000;stroke-width:2.8875000;stroke-linecap:round;stroke-linejoin:round;stroke-miterlimit:4.0000000;stroke-opacity:0.067873307"
           d="M 51.302370,216.88620 C 57.576493,214.91219 68.178080,214.91219 74.452210,216.88620 C 75.894700,217.34005 75.473730,223.63931 74.452210,224.16977 C 72.901520,224.97502 66.660550,220.99841 66.735600,223.85922 C 67.061950,236.49683 66.140350,256.33503 66.735600,268.77492 C 66.870240,271.63354 72.901520,267.06595 74.452210,267.87120 C 75.473730,268.40166 75.894700,274.70092 74.452210,275.15476 C 68.178080,277.12877 57.576493,277.12877 51.302370,275.15476 C 49.859879,274.70092 50.280848,268.40166 51.302370,267.87120 C 52.853053,267.06595 59.004040,271.63667 59.018980,268.77492 C 59.088080,255.54413 58.825000,237.28773 59.018980,223.85922 C 59.060320,220.99772 52.853053,224.97502 51.302370,224.16977 C 50.280848,223.63931 49.859879,217.34005 51.302370,216.88620 z "
           id="path2716"
           sodipodi:nodetypes="cssssssssssss" />
        <path
           style="fill:none;fill-opacity:1.0000000;stroke:#000000;stroke-width:2.3875000;stroke-linecap:round;stroke-linejoin:round;stroke-miterlimit:4.0000000;stroke-opacity:0.067873307"
           d="M 51.302370,216.88620 C 57.576493,214.91219 68.178080,214.91219 74.452210,216.88620 C 75.894700,217.34005 75.473730,223.63931 74.452210,224.16977 C 72.901520,224.97502 66.660550,220.99841 66.735600,223.85922 C 67.061950,236.49683 66.140350,256.33503 66.735600,268.77492 C 66.870240,271.63354 72.901520,267.06595 74.452210,267.87120 C 75.473730,268.40166 75.894700,274.70092 74.452210,275.15476 C 68.178080,277.12877 57.576493,277.12877 51.302370,275.15476 C 49.859879,274.70092 50.280848,268.40166 51.302370,267.87120 C 52.853053,267.06595 59.004040,271.63667 59.018980,268.77492 C 59.088080,255.54413 58.825000,237.28773 59.018980,223.85922 C 59.060320,220.99772 52.853053,224.97502 51.302370,224.16977 C 50.280848,223.63931 49.859879,217.34005 51.302370,216.88620 z "
           id="path2718"
           sodipodi:nodetypes="cssssssssssss" />
      </g>
      <path
         style="fill:#000000;fill-opacity:1.0000000;stroke:#000000;stroke-width:1.5125000;stroke-linecap:round;stroke-linejoin:round;stroke-miterlimit:4.0000000;stroke-opacity:1.0000000"
         d="M 93.302370,216.88620 C 99.576493,214.91219 110.17808,214.91219 116.45221,216.88620 C 117.89470,217.34005 117.47373,223.63931 116.45221,224.16977 C 114.90152,224.97502 108.66055,220.99841 108.73560,223.85922 C 109.06195,236.49683 108.14035,256.33503 108.73560,268.77492 C 108.87024,271.63354 114.90152,267.06595 116.45221,267.87120 C 117.47373,268.40166 117.89470,274.70092 116.45221,275.15476 C 110.17808,277.12877 99.576493,277.12877 93.302370,275.15476 C 91.859879,274.70092 92.280848,268.40166 93.302370,267.87120 C 94.853053,267.06595 101.00404,271.63667 101.01898,268.77492 C 101.08808,255.54413 100.82500,237.28773 101.01898,223.85922 C 101.06032,220.99772 94.853053,224.97502 93.302370,224.16977 C 92.280848,223.63931 91.859879,217.34005 93.302370,216.88620 z "
         id="path2815"
         sodipodi:nodetypes="cssssssssssss" />
      <path
         style="fill:url(#radialGradient2694);fill-opacity:1.0000000;stroke:none;stroke-width:2.1400001;stroke-linecap:round;stroke-linejoin:round;stroke-miterlimit:4.0000000;stroke-opacity:1.0000000"
         d="M 108.73560,239.85922 C 109.06195,252.49683 108.14035,256.33503 108.73560,268.77492 C 108.87024,271.63354 114.90152,267.06595 116.45221,267.87120 C 117.47373,268.40166 117.89470,274.70092 116.45221,275.15476 C 110.17808,277.12877 99.576490,277.12877 93.302370,275.15476 C 91.859879,274.70092 92.280848,268.40166 93.302370,267.87120 C 94.853053,267.06595 101.00404,271.63667 101.01898,268.77492 C 101.08808,255.54413 100.82500,253.28773 101.01898,239.85922 C 101.06032,236.99772 108.66055,236.99841 108.73560,239.85922 z "
         id="path1922"
         sodipodi:nodetypes="cssssssss" />
      <path
         sodipodi:nodetypes="csssz"
         id="path2696"
         d="M 114.72659,217.71988 C 121.38814,215.63654 100.88383,214.12882 94.408911,216.35709 C 93.601424,216.63497 92.582698,217.12070 92.449315,217.74439 C 92.200657,218.90710 92.422918,222.59096 93.626846,222.50000 C 100.30625,221.99153 108.06504,219.80321 114.72659,217.71988 z "
         style="fill:url(#linearGradient2704);fill-opacity:1.0000000;fill-rule:evenodd;stroke:none;stroke-width:1.0000000px;stroke-linecap:butt;stroke-linejoin:miter;stroke-opacity:1.0000000" />
    </g>
  </g>
</svg>
