<?xml version="1.0" encoding="UTF-8" standalone="no"?>
<!-- Created with Inkscape (http://www.inkscape.org/) -->
<svg
   xmlns:dc="http://purl.org/dc/elements/1.1/"
   xmlns:cc="http://web.resource.org/cc/"
   xmlns:rdf="http://www.w3.org/1999/02/22-rdf-syntax-ns#"
   xmlns:svg="http://www.w3.org/2000/svg"
   xmlns="http://www.w3.org/2000/svg"
   xmlns:xlink="http://www.w3.org/1999/xlink"
   xmlns:sodipodi="http://inkscape.sourceforge.net/DTD/sodipodi-0.dtd"
   xmlns:inkscape="http://www.inkscape.org/namespaces/inkscape"
   inkscape:export-ydpi="45.000000"
   inkscape:export-xdpi="45.000000"
   inkscape:export-filename="/home/pinheiro/kdeplayground-artwork/oooicons/crystalsvg/autoformatsvg.png"
   sodipodi:docname="autoformatsvg.svg"
   sodipodi:docbase="/home/pinheiro/kdeplayground-artwork/oooicons/crystalsvg"
   inkscape:version="0.41"
   sodipodi:version="0.32"
   id="svg4972"
   height="64px"
   width="64px">
  <defs
     id="defs3">
    <linearGradient
       y2="323.76923"
       x2="272.46765"
       y1="59.053604"
       x1="122.43015"
       gradientTransform="matrix(0.171507,0.000000,0.000000,0.181385,-2.705262,-3.039444)"
       gradientUnits="userSpaceOnUse"
       id="linearGradient1101"
       xlink:href="#graytolightgray"
       inkscape:collect="always" />
    <linearGradient
       id="graytolightgray">
      <stop
         id="stop5101"
         offset="0.0000000"
         style="stop-color:#d4d3d3;stop-opacity:1.0000000;" />
      <stop
         id="stop5102"
         offset="1.0000000"
         style="stop-color:#ffffff;stop-opacity:1.0000000;" />
    </linearGradient>
    <linearGradient
       y2="273.80606"
       x2="330.93881"
       y1="340.20792"
       x1="284.17496"
       gradientTransform="matrix(0.171507,0.000000,0.000000,0.185443,-3.137822,-2.934804)"
       gradientUnits="userSpaceOnUse"
       id="linearGradient1104"
       xlink:href="#graytolightgray"
       inkscape:collect="always" />
    <radialGradient
       r="508.29517"
       fy="52.577991"
       fx="53.182602"
       cy="52.577991"
       cx="53.182602"
       gradientTransform="matrix(0.209323,0.000000,0.000000,0.151939,-2.703894,-3.264812)"
       gradientUnits="userSpaceOnUse"
       id="radialGradient1100"
       xlink:href="#light75to0"
       inkscape:collect="always" />
    <linearGradient
       y2="513.91156"
       x2="561.86395"
       y1="248.01839"
       x1="245.91402"
       gradientTransform="matrix(0.171507,0.000000,0.000000,0.185443,-2.933566,-2.951636)"
       gradientUnits="userSpaceOnUse"
       id="linearGradient1103"
       xlink:href="#garylighttowite"
       inkscape:collect="always" />
    <linearGradient
       id="linearGradient1505">
      <stop
         style="stop-color:#7d7d7d;stop-opacity:1.0000000;"
         offset="0.0000000"
         id="stop1507" />
      <stop
         style="stop-color:#d3d4d4;stop-opacity:1.0000000;"
         offset="1.0000000"
         id="stop1509" />
    </linearGradient>
    <linearGradient
       gradientUnits="userSpaceOnUse"
       y2="76.994041"
       x2="74.022224"
       y1="1.5152150"
       x1="14.205422"
       gradientTransform="matrix(0.739840,0.000000,0.000000,0.879875,-1.019326,-0.287774)"
       id="linearGradient4970"
       xlink:href="#linearGradient1505"
       inkscape:collect="always" />
    <linearGradient
       id="garylighttowite">
      <stop
         id="stop5106"
         offset="0.0000000"
         style="stop-color:#7d7d7d;stop-opacity:1.0000000;" />
      <stop
         id="stop5107"
         offset="1.0000000"
         style="stop-color:#d3d4d4;stop-opacity:1.0000000;" />
    </linearGradient>
    <linearGradient
       y2="648.29797"
       x2="578.44397"
       y1="-50.289883"
       x1="-37.332329"
       gradientTransform="matrix(0.171507,0.000000,0.000000,0.185443,-2.635198,-2.950564)"
       gradientUnits="userSpaceOnUse"
       id="linearGradient1102"
       xlink:href="#garylighttowite"
       inkscape:collect="always" />
    <linearGradient
       y2="139.7401"
       x2="100.6055"
       y1="37.1133"
       x1="100.6055"
       gradientTransform="matrix(0.140392,-4.794330e-2,4.243270e-2,0.132515,-23.51599,-66.02933)"
       gradientUnits="userSpaceOnUse"
       id="linearGradient1776"
       xlink:href="#XMLID_1_"
       inkscape:collect="always" />
    <linearGradient
       y2="436.28043"
       x2="307.07626"
       y1="64.407753"
       x1="146.38470"
       gradientTransform="matrix(0.111869,-3.895482e-2,3.471707e-2,0.110637,-17.12537,-49.89360)"
       gradientUnits="userSpaceOnUse"
       id="linearGradient1774"
       xlink:href="#light100to0"
       inkscape:collect="always" />
    <linearGradient
       y2="461.30772"
       x2="439.44683"
       y1="27.161866"
       x1="-110.52393"
       gradientTransform="matrix(0.109030,-3.796587e-2,3.229541e-2,0.102919,-16.51153,-49.37250)"
       gradientUnits="userSpaceOnUse"
       id="linearGradient1772"
       xlink:href="#redtodarkred"
       inkscape:collect="always" />
    <radialGradient
       r="117.68623"
       fy="25.390987"
       fx="189.43584"
       cy="103.61057"
       cx="186.75356"
       spreadMethod="reflect"
       gradientTransform="matrix(0.108343,-3.772661e-2,3.250021e-2,0.103572,-16.51153,-49.37250)"
       gradientUnits="userSpaceOnUse"
       id="radialGradient1770"
       xlink:href="#orangelesstoyelow"
       inkscape:collect="always" />
    <linearGradient
       y2="139.7401"
       x2="100.6055"
       y1="37.1133"
       x1="100.6055"
       gradientTransform="matrix(0.415564,-0.141914,0.129632,0.404838,-24.07052,-66.80791)"
       gradientUnits="userSpaceOnUse"
       id="linearGradient1768"
       xlink:href="#XMLID_1_"
       inkscape:collect="always" />
    <linearGradient
       y2="41.796101"
       x2="14.964557"
       y1="21.673885"
       x1="5.6831765"
       gradientTransform="matrix(1.254364,-7.782602e-3,-4.537336e-2,0.517179,0.835472,-47.78608)"
       gradientUnits="userSpaceOnUse"
       id="linearGradient1766"
       xlink:href="#light75to0"
       inkscape:collect="always" />
    <linearGradient
       y2="139.7401"
       x2="100.6055"
       y1="37.1133"
       x1="100.6055"
       gradientTransform="matrix(0.140392,-4.794330e-2,4.243270e-2,0.132515,-23.51599,-66.02933)"
       gradientUnits="userSpaceOnUse"
       id="linearGradient1764"
       xlink:href="#XMLID_1_"
       inkscape:collect="always" />
    <linearGradient
       y2="436.28043"
       x2="307.07626"
       y1="64.407753"
       x1="146.38470"
       gradientTransform="matrix(0.111869,-3.895482e-2,3.471707e-2,0.110637,-17.12537,-49.89360)"
       gradientUnits="userSpaceOnUse"
       id="linearGradient1762"
       xlink:href="#light100to0"
       inkscape:collect="always" />
    <linearGradient
       y2="461.30772"
       x2="439.44683"
       y1="27.161866"
       x1="-110.52393"
       gradientTransform="matrix(0.109030,-3.796587e-2,3.229541e-2,0.102919,-16.51153,-49.37250)"
       gradientUnits="userSpaceOnUse"
       id="linearGradient1760"
       xlink:href="#redtodarkred"
       inkscape:collect="always" />
    <radialGradient
       r="117.68623"
       fy="25.390987"
       fx="189.43584"
       cy="103.61057"
       cx="186.75356"
       spreadMethod="reflect"
       gradientTransform="matrix(0.108343,-3.772661e-2,3.250021e-2,0.103572,-16.51153,-49.37250)"
       gradientUnits="userSpaceOnUse"
       id="radialGradient1758"
       xlink:href="#orangelesstoyelow"
       inkscape:collect="always" />
    <linearGradient
       y2="139.7401"
       x2="100.6055"
       y1="37.1133"
       x1="100.6055"
       gradientTransform="matrix(0.415564,-0.141914,0.129632,0.404838,-24.07052,-66.80791)"
       gradientUnits="userSpaceOnUse"
       id="linearGradient1756"
       xlink:href="#XMLID_1_"
       inkscape:collect="always" />
    <linearGradient
       y2="41.796101"
       x2="14.964557"
       y1="21.673885"
       x1="5.6831765"
       gradientTransform="matrix(1.254364,-7.782602e-3,-4.537336e-2,0.517179,0.835472,-47.78608)"
       gradientUnits="userSpaceOnUse"
       id="linearGradient1754"
       xlink:href="#light75to0"
       inkscape:collect="always" />
    <linearGradient
       y2="139.7401"
       x2="100.6055"
       y1="37.1133"
       x1="100.6055"
       gradientTransform="matrix(0.140392,-4.794330e-2,4.243270e-2,0.132515,-23.51599,-66.02933)"
       gradientUnits="userSpaceOnUse"
       id="linearGradient1752"
       xlink:href="#XMLID_1_"
       inkscape:collect="always" />
    <linearGradient
       y2="436.28043"
       x2="307.07626"
       y1="64.407753"
       x1="146.38470"
       gradientTransform="matrix(0.111869,-3.895482e-2,3.471707e-2,0.110637,-17.12537,-49.89360)"
       gradientUnits="userSpaceOnUse"
       id="linearGradient1750"
       xlink:href="#light100to0"
       inkscape:collect="always" />
    <linearGradient
       y2="461.30772"
       x2="439.44683"
       y1="27.161866"
       x1="-110.52393"
       gradientTransform="matrix(0.109030,-3.796587e-2,3.229541e-2,0.102919,-16.51153,-49.37250)"
       gradientUnits="userSpaceOnUse"
       id="linearGradient1748"
       xlink:href="#redtodarkred"
       inkscape:collect="always" />
    <radialGradient
       r="117.68623"
       fy="25.390987"
       fx="189.43584"
       cy="103.61057"
       cx="186.75356"
       spreadMethod="reflect"
       gradientTransform="matrix(0.108343,-3.772661e-2,3.250021e-2,0.103572,-16.51153,-49.37250)"
       gradientUnits="userSpaceOnUse"
       id="radialGradient1746"
       xlink:href="#orangelesstoyelow"
       inkscape:collect="always" />
    <linearGradient
       y2="139.7401"
       x2="100.6055"
       y1="37.1133"
       x1="100.6055"
       gradientTransform="matrix(0.415564,-0.141914,0.129632,0.404838,-24.07052,-66.80791)"
       gradientUnits="userSpaceOnUse"
       id="linearGradient1744"
       xlink:href="#XMLID_1_"
       inkscape:collect="always" />
    <linearGradient
       y2="41.796101"
       x2="14.964557"
       y1="21.673885"
       x1="5.6831765"
       gradientTransform="matrix(1.254364,-7.782602e-3,-4.537336e-2,0.517179,0.835472,-47.78608)"
       gradientUnits="userSpaceOnUse"
       id="linearGradient1742"
       xlink:href="#light75to0"
       inkscape:collect="always" />
    <linearGradient
       y2="139.7401"
       x2="100.6055"
       y1="37.1133"
       x1="100.6055"
       gradientTransform="matrix(0.140392,-4.794330e-2,4.243270e-2,0.132515,36.85924,1.489873)"
       gradientUnits="userSpaceOnUse"
       id="linearGradient1740"
       xlink:href="#XMLID_1_"
       inkscape:collect="always" />
    <linearGradient
       id="light100to0">
      <stop
         style="stop-color:#ffffff;stop-opacity:1.0000000;"
         offset="0.0000000"
         id="stop2764" />
      <stop
         style="stop-color:#ffffff;stop-opacity:0.0000000;"
         offset="1.0000000"
         id="stop2765" />
    </linearGradient>
    <linearGradient
       y2="436.28043"
       x2="307.07626"
       y1="64.407753"
       x1="146.38470"
       gradientTransform="matrix(0.111869,-3.895482e-2,3.471707e-2,0.110637,43.24986,17.62560)"
       gradientUnits="userSpaceOnUse"
       id="linearGradient1738"
       xlink:href="#light100to0"
       inkscape:collect="always" />
    <linearGradient
       id="redtodarkred">
      <stop
         style="stop-color:#ff0000;stop-opacity:1.0000000;"
         offset="0.0000000"
         id="stop3856" />
      <stop
         style="stop-color:#920000;stop-opacity:1.0000000;"
         offset="1.0000000"
         id="stop3855" />
    </linearGradient>
    <linearGradient
       y2="461.30772"
       x2="439.44683"
       y1="27.161866"
       x1="-110.52393"
       gradientTransform="matrix(0.109030,-3.796587e-2,3.229541e-2,0.102919,43.86369,18.14670)"
       gradientUnits="userSpaceOnUse"
       id="linearGradient1736"
       xlink:href="#redtodarkred"
       inkscape:collect="always" />
    <linearGradient
       id="orangelesstoyelow">
      <stop
         id="stop2689"
         offset="0.0000000"
         style="stop-color:#ff7d00;stop-opacity:1.0000000;" />
      <stop
         id="stop2690"
         offset="0.25358382"
         style="stop-color:#ffbe00;stop-opacity:1.0000000;" />
      <stop
         id="stop2691"
         offset="1.0000000"
         style="stop-color:#ffff00;stop-opacity:1.0000000;" />
    </linearGradient>
    <radialGradient
       r="117.68623"
       fy="25.390987"
       fx="189.43584"
       cy="103.61057"
       cx="186.75356"
       spreadMethod="reflect"
       gradientTransform="matrix(0.108343,-3.772661e-2,3.250021e-2,0.103572,43.86369,18.14670)"
       gradientUnits="userSpaceOnUse"
       id="radialGradient1734"
       xlink:href="#orangelesstoyelow"
       inkscape:collect="always" />
    <linearGradient
       y2="139.7401"
       x2="100.6055"
       y1="37.1133"
       x1="100.6055"
       gradientUnits="userSpaceOnUse"
       id="XMLID_1_">
      <stop
         id="stop9"
         style="stop-color:#FFA700"
         offset="0" />
      <stop
         id="stop11"
         style="stop-color:#FFFF00"
         offset="0.691" />
      <stop
         id="stop13"
         style="stop-color:#FFFC00"
         offset="0.792" />
      <stop
         id="stop15"
         style="stop-color:#FFF400"
         offset="0.8546" />
      <stop
         id="stop17"
         style="stop-color:#FFE500"
         offset="0.9067" />
      <stop
         id="stop19"
         style="stop-color:#FFD100"
         offset="0.953" />
      <stop
         id="stop21"
         style="stop-color:#FFB700"
         offset="0.9952" />
      <stop
         id="stop23"
         style="stop-color:#FFB300"
         offset="1" />
      <midPointStop
         id="midPointStop25"
         style="stop-color:#FFA700"
         offset="0" />
      <midPointStop
         id="midPointStop27"
         style="stop-color:#FFA700"
         offset="0.5" />
      <midPointStop
         id="midPointStop29"
         style="stop-color:#FFFF00"
         offset="0.691" />
      <midPointStop
         id="midPointStop31"
         style="stop-color:#FFFF00"
         offset="0.7952" />
      <midPointStop
         id="midPointStop33"
         style="stop-color:#FFB300"
         offset="1" />
    </linearGradient>
    <linearGradient
       y2="139.7401"
       x2="100.6055"
       y1="37.1133"
       x1="100.6055"
       gradientTransform="matrix(0.415564,-0.141914,0.129632,0.404838,36.30471,0.711290)"
       gradientUnits="userSpaceOnUse"
       id="linearGradient1732"
       xlink:href="#XMLID_1_"
       inkscape:collect="always" />
    <linearGradient
       id="light75to0">
      <stop
         id="stop2769"
         offset="0.0000000"
         style="stop-color:#ffffff;stop-opacity:0.72916669;" />
      <stop
         id="stop2770"
         offset="1.0000000"
         style="stop-color:#ffffff;stop-opacity:0.0000000;" />
    </linearGradient>
    <linearGradient
       y2="41.796101"
       x2="14.964557"
       y1="21.673885"
       x1="5.6831765"
       gradientTransform="matrix(1.254364,-7.782602e-3,-4.537336e-2,0.517179,61.21070,19.73312)"
       gradientUnits="userSpaceOnUse"
       id="linearGradient1730"
       xlink:href="#light75to0"
       inkscape:collect="always" />
    <linearGradient
       y2="-4.4011321"
       x2="122.96590"
       y1="0.76412511"
       x1="117.48062"
       gradientTransform="matrix(0.600915,2.740875e-2,-2.807554e-2,1.859011,4.718272,49.05071)"
       gradientUnits="userSpaceOnUse"
       id="linearGradient1728"
       xlink:href="#light100to25to0"
       inkscape:collect="always" />
    <linearGradient
       id="light100to25to0">
      <stop
         id="stop2785"
         offset="0.0000000"
         style="stop-color:#ffffff;stop-opacity:1.0000000;" />
      <stop
         id="stop2786"
         offset="0.50000000"
         style="stop-color:#ffffff;stop-opacity:0.28749999;" />
      <stop
         id="stop2787"
         offset="1.0000000"
         style="stop-color:#ffffff;stop-opacity:0.0000000;" />
    </linearGradient>
    <radialGradient
       r="35.001339"
       fy="30.823576"
       fx="151.53014"
       cy="30.823576"
       cx="151.53014"
       gradientTransform="matrix(0.326266,-0.137357,0.674297,1.782557,20.69438,49.30781)"
       gradientUnits="userSpaceOnUse"
       id="radialGradient1726"
       xlink:href="#light100to25to0"
       inkscape:collect="always" />
  </defs>
  <sodipodi:namedview
     inkscape:window-y="120"
     inkscape:window-x="428"
     inkscape:window-height="795"
     inkscape:window-width="1062"
     inkscape:grid-bbox="true"
     inkscape:document-units="px"
     showgrid="true"
     inkscape:current-layer="layer1"
     inkscape:cy="32.000000"
     inkscape:cx="32.000000"
     inkscape:zoom="5.5000000"
     inkscape:pageshadow="2"
     inkscape:pageopacity="0.0"
     borderopacity="1.0"
     bordercolor="#666666"
     pagecolor="#ffffff"
     id="base" />
  <metadata
     id="metadata4">
    <rdf:RDF
       id="RDF5">
      <cc:Work
         id="Work6"
         rdf:about="">
        <dc:format
           id="format7">image/svg+xml</dc:format>
        <dc:type
           rdf:resource="http://purl.org/dc/dcmitype/StillImage"
           id="type9" />
      </cc:Work>
    </rdf:RDF>
  </metadata>
  <g
     inkscape:groupmode="layer"
     inkscape:label="Layer 1"
     id="layer1">
    <path
       inkscape:export-ydpi="48.818890"
       inkscape:export-xdpi="48.818890"
       sodipodi:nodetypes="ccccccc"
       id="path1105"
       d="M 30.588556,3.3067488 L 59.188630,3.0187274 L 59.188630,47.230018 L 43.331162,64.223283 L 7.6518635,64.223283 L 7.5102786,55.870661 L 30.588556,3.3067488 z "
       style="fill:#cbcbcb;fill-opacity:1.0000000;fill-rule:evenodd;stroke:none;stroke-width:0.25000000pt;stroke-linecap:butt;stroke-linejoin:miter;stroke-opacity:1.0000000" />
    <path
       id="path1727"
       d="M 6.2360183,1.1465878 L 57.064862,1.2905986 L 56.781693,45.213869 L 41.632149,61.487080 L 6.0944339,61.919112 L 6.2360183,1.1465878 z "
       style="fill:#ffffff;fill-opacity:1.0000000;fill-rule:evenodd;stroke:none;stroke-width:0.25000000pt;stroke-linecap:butt;stroke-linejoin:miter;stroke-opacity:1.0000000" />
    <path
       style="fill:url(#linearGradient1101);fill-opacity:1.0000000"
       id="path146"
       d="M 55.377565,2.3369292 L 7.3896330,2.3369292 L 7.3182689,60.259730 L 41.457789,60.259730 L 55.377565,45.501043 L 55.377565,2.3369292 z " />
    <rect
       ry="0.0000000"
       rx="0.0000000"
       y="7.0000000"
       x="13.000000"
       height="4.0000000"
       width="38.454544"
       id="rect6638"
       style="fill:#000000;fill-opacity:0.27601811;stroke:none;stroke-width:1.1250000;stroke-linecap:round;stroke-linejoin:round;stroke-miterlimit:4.0000000;stroke-dashoffset:0.0000000;stroke-opacity:1.0000000" />
    <rect
       ry="3.1323066"
       rx="2.9957397"
       y="17.090910"
       x="34.000000"
       height="19.454544"
       width="19.000000"
       id="rect5120"
       style="fill:#0000ff;fill-opacity:0.27601811;stroke:none;stroke-width:1.1250000;stroke-linecap:round;stroke-linejoin:round;stroke-miterlimit:4.0000000;stroke-dashoffset:0.0000000;stroke-opacity:1.0000000" />
    <path
       style="fill:#ffffff"
       id="path163"
       d="M 41.963832,61.297575 L 56.980196,45.061892 L 41.963832,45.061892 L 41.963832,61.297575 z " />
    <path
       style="fill:url(#linearGradient1104);fill-opacity:1.0000000"
       id="path178"
       d="M 42.501450,61.000000 L 55.716794,46.712364 L 42.501450,46.712364 L 42.501450,61.000000 z " />
    <rect
       ry="0.0000000"
       rx="0.0000000"
       y="19.000000"
       x="9.0000000"
       height="4.0000000"
       width="23.545454"
       id="rect7398"
       style="fill:#000000;fill-opacity:0.27601811;stroke:none;stroke-width:1.1250000;stroke-linecap:round;stroke-linejoin:round;stroke-miterlimit:4.0000000;stroke-dashoffset:0.0000000;stroke-opacity:1.0000000" />
    <rect
       ry="0.0000000"
       rx="0.0000000"
       y="31.000000"
       x="9.0000000"
       height="4.0000000"
       width="23.545454"
       id="rect7400"
       style="fill:#000000;fill-opacity:0.27601811;stroke:none;stroke-width:1.1250000;stroke-linecap:round;stroke-linejoin:round;stroke-miterlimit:4.0000000;stroke-dashoffset:0.0000000;stroke-opacity:1.0000000" />
    <path
       sodipodi:nodetypes="ccccc"
       style="fill:url(#radialGradient1100);fill-opacity:1.0000000"
       id="path195"
       d="M 55.500641,7.6399638 L 55.500641,2.1929185 L 7.3614777,2.1929185 L 7.3182689,33.740512 C 25.809513,40.205824 52.574885,23.889098 55.500641,7.6399638 z " />
    <path
       style="fill:url(#linearGradient1103);fill-opacity:1.0000000"
       id="path210"
       d="M 41.665486,45.307405 C 41.484795,45.307405 41.338146,45.465970 41.338146,45.661338 L 41.338146,61.897021 C 41.338146,62.040720 41.418018,62.169547 41.540445,62.224763 C 41.662865,62.278561 41.803620,62.249540 41.897242,62.147605 L 56.912943,45.911924 C 57.006566,45.810699 57.034721,45.658513 56.984306,45.526139 C 56.933241,45.393766 56.814086,45.307405 56.681187,45.307405 L 41.665486,45.307405 z M 55.890996,46.015275 C 54.895222,47.091941 42.988591,59.965252 41.992826,61.042627 C 41.992826,59.544067 41.992826,46.657313 41.992826,46.015275 C 42.585304,46.015275 54.505036,46.015275 55.890996,46.015275 z " />
    <path
       style="fill:url(#linearGradient1102);fill-opacity:1.0000000;stroke:url(#linearGradient4970);stroke-width:0.90767843;stroke-linejoin:round;stroke-miterlimit:4.0000000"
       id="path225"
       d="M 56.652206,1.4666149 C 56.652206,2.1610327 56.652206,45.226369 56.652206,45.515885 C 56.464309,45.719045 42.016211,61.340293 41.828315,61.544157 C 41.561859,61.544157 6.8966315,61.544157 6.2556965,61.544157 C 6.2556965,60.849037 6.2556965,2.1624514 6.2556965,1.4673234 C 6.8979371,1.4666149 56.010616,1.4666149 56.652206,1.4666149 z M 56.979536,0.75874480 L 5.6010233,0.75874480 L 5.6010233,62.251322 L 42.099354,62.251322 L 57.306878,45.808241 L 57.306878,0.75874480 L 56.979536,0.75874480 z " />
    <g
       transform="matrix(0.978842,0.000000,0.000000,1.003010,-9.721153,-6.283825)"
       id="g1693">
      <g
         transform="matrix(0.790134,0.000000,0.000000,0.812591,0.492553,-3.750812)"
         id="g1447">
        <path
           id="rect1353"
           d="M 72.344202,40.031278 L 74.418438,39.337065 C 75.397085,39.009527 76.419450,39.513453 76.710736,40.466944 L 91.096318,87.556475 C 91.387604,88.509966 90.834240,89.541262 89.855593,89.868799 L 87.781357,90.563013 C 86.802710,90.890550 85.780346,90.386625 85.489060,89.433134 L 71.103479,42.343603 C 70.812193,41.390112 71.365555,40.358815 72.344202,40.031278 z "
           style="fill:#000000;fill-opacity:1.0000000;stroke:none;stroke-width:0.96249998;stroke-linecap:round;stroke-linejoin:round;stroke-miterlimit:4.0000000;stroke-dashoffset:0.0000000;stroke-opacity:0.036734644" />
        <path
           sodipodi:nodetypes="ccccccccc"
           id="path1976"
           d="M 74.379412,44.120024 L 76.255195,43.525332 C 77.140210,43.244750 77.170146,43.935782 77.420615,44.797734 L 90.299976,86.974131 C 90.550444,87.836081 90.347002,88.976868 89.461986,89.257451 L 87.720523,89.748748 C 86.835508,90.029331 86.587603,89.658620 86.337135,88.796669 L 73.234022,46.182356 C 72.983554,45.320405 73.494398,44.400605 74.379412,44.120024 z "
           style="fill:url(#radialGradient1726);fill-opacity:1.0000000;stroke:none;stroke-width:0.96249998;stroke-linecap:round;stroke-linejoin:round;stroke-miterlimit:4.0000000;stroke-dashoffset:0.0000000;stroke-opacity:0.036734644" />
        <path
           sodipodi:nodetypes="csccc"
           id="path2607"
           d="M 73.648583,40.461901 C 77.671012,53.713031 81.286503,59.973176 83.476744,73.549268 C 84.533872,80.101836 84.235945,80.917397 83.430705,81.186570 C 78.660454,65.950048 76.500409,58.314175 71.730130,43.077653 C 72.519030,42.344950 72.859682,41.194602 73.648583,40.461901 z "
           style="fill:url(#linearGradient1728);fill-opacity:1.0000000;fill-rule:evenodd;stroke:none;stroke-width:0.25354896pt;stroke-linecap:butt;stroke-linejoin:miter;stroke-opacity:1.0000000" />
        <path
           id="path6094"
           d="M 65.644283,34.549893 C 65.688188,34.070867 65.732095,33.591840 65.776001,33.112823 C 65.819907,32.633796 65.863813,32.154770 65.907729,31.675744 C 65.943482,31.155122 66.129037,30.836783 66.570464,30.802035 C 68.025373,30.788154 69.480273,30.774282 70.935182,30.760410 C 72.390091,30.746539 73.844990,30.732667 75.299900,30.718786 C 75.099823,32.261323 68.905626,31.982925 68.029625,32.079023 C 66.422855,32.255285 67.454678,33.975330 65.644283,34.549893 z "
           style="fill:url(#linearGradient1730);fill-opacity:1.0000000;fill-rule:evenodd;stroke:none;stroke-width:0.012500000;stroke-linecap:butt;stroke-linejoin:miter;stroke-miterlimit:4.0000000;stroke-opacity:1.0000000" />
        <path
           style="fill:url(#linearGradient1732)"
           id="path1106"
           d="M 93.974650,35.641550 C 93.846274,35.830902 93.622406,36.069029 93.256370,36.204361 C 93.623083,36.069698 93.851326,35.846690 93.983725,35.669888 C 94.191691,35.393628 94.430869,34.859247 94.163517,34.083325 C 94.370170,34.846746 94.161008,35.365480 93.974650,35.641550 z " />
        <path
           style="fill:url(#radialGradient1734);stroke:url(#linearGradient1736);stroke-width:0.29878873;stroke-linejoin:round;stroke-miterlimit:4.0000000;stroke-opacity:0.41874996"
           id="path1107"
           d="M 88.677487,19.961111 C 88.485640,19.690966 88.003834,19.282417 86.934876,19.584098 L 75.610858,22.805672 C 74.962877,22.989893 74.002143,22.689850 73.593832,22.174280 L 66.496769,13.209019 C 65.825493,12.365587 65.185216,12.423577 64.861601,12.532756 C 64.538849,12.641283 63.986014,12.989276 63.905955,14.086613 L 63.053209,25.732731 C 63.002631,26.411602 62.395326,27.229933 61.754497,27.481158 L 50.764840,31.800017 C 49.729302,32.200271 49.559456,32.825557 49.550392,33.162853 C 49.541331,33.500149 49.679561,34.122050 50.701349,34.498756 L 61.494460,38.474428 C 62.121328,38.709268 62.691844,39.511622 62.710134,40.190028 L 63.010393,51.814771 C 63.040296,52.909967 63.577281,53.239284 63.894176,53.338827 C 64.212674,53.437812 64.851860,53.474966 65.563642,52.608672 L 73.088743,43.425198 C 73.528759,42.886594 74.488104,42.560958 75.142745,42.727862 L 86.317923,45.603875 C 87.372728,45.876072 87.873496,45.452848 88.078484,45.176491 C 88.283471,44.900134 88.539237,44.300385 87.956588,43.391345 L 81.812406,33.735214 C 81.460828,33.181638 81.484602,32.165675 81.862322,31.603134 L 88.474005,21.750048 C 89.096299,20.821905 88.869335,20.231254 88.677487,19.961111 z " />
        <path
           style="fill:url(#linearGradient1738)"
           id="path1108"
           d="M 80.983373,30.260843 L 85.030866,23.714280 C 85.517618,22.926868 85.322460,22.412615 85.162057,22.175542 C 85.002267,21.938256 84.604651,21.576110 83.744245,21.814512 L 74.635026,24.359475 C 74.113533,24.505362 73.330712,24.226347 72.990539,23.773156 L 67.076932,15.893981 C 66.518307,15.152521 66.000561,15.189625 65.740862,15.276777 C 65.481467,15.363824 65.040312,15.652611 64.996045,16.597086 L 64.521953,26.624784 C 64.493717,27.209179 64.017405,27.902598 63.502968,28.105780 L 54.685047,31.604067 C 53.854103,31.927661 53.728006,32.463428 53.727174,32.754459 C 53.726239,33.045163 53.849397,33.584488 54.683924,33.930389 L 63.496661,37.582572 C 64.008593,37.797792 64.485590,38.502096 64.512969,39.087526 L 64.527980,39.408382 C 65.513343,39.150516 66.502965,38.855096 67.494368,38.509873 C 72.907998,36.624752 77.539090,33.692498 80.983373,30.260843 z " />
        <path
           style="fill:url(#linearGradient1740)"
           id="path1109"
           d="M 94.377323,35.579946 C 94.247189,35.770039 94.020523,36.009283 93.650611,36.145946 C 94.021211,36.009951 94.252249,35.785842 94.386404,35.608312 C 94.597110,35.330905 94.840049,34.794791 94.572265,34.018149 C 94.778798,34.782442 94.566214,35.302795 94.377323,35.579946 z " />
        <path
           style="opacity:0.29999998;fill:#e89500"
           id="path1110"
           d="M 74.510059,40.703844 C 73.836982,40.498345 72.867485,40.827156 72.433935,41.406761 L 65.418029,52.561275 C 64.716686,53.493767 64.063013,53.432586 63.735299,53.312710 C 63.502077,53.227037 63.152405,53.001675 62.948330,52.440678 C 63.117141,53.059981 63.500155,53.283922 63.750607,53.361488 C 64.071885,53.459714 64.717084,53.495034 65.438005,52.624938 L 73.059781,43.401213 C 73.505456,42.860250 74.474854,42.531122 75.135308,42.696396 L 86.409660,45.544643 C 86.941158,45.679284 87.334110,45.640475 87.619918,45.532871 C 87.334309,45.641108 86.938276,45.670100 86.396640,45.503150 L 74.510059,40.703844 z " />
      </g>
      <g
         id="g1501"
         transform="matrix(0.248564,0.297420,-0.269806,0.311806,21.32322,23.87997)">
        <path
           id="path1447"
           d="M 5.2690550,-32.969311 C 5.3129600,-33.448337 5.3568670,-33.927364 5.4007730,-34.406381 C 5.4446790,-34.885408 5.4885850,-35.364434 5.5325010,-35.843460 C 5.5682540,-36.364082 5.7538090,-36.682421 6.1952360,-36.717169 C 7.6501450,-36.731050 9.1050450,-36.744922 10.559954,-36.758794 C 12.014863,-36.772665 13.469762,-36.786537 14.924672,-36.800418 C 14.724595,-35.257881 8.5303980,-35.536279 7.6543970,-35.440181 C 6.0476270,-35.263919 7.0794500,-33.543874 5.2690550,-32.969311 z "
           style="fill:url(#linearGradient1742);fill-opacity:1.0000000;fill-rule:evenodd;stroke:none;stroke-width:0.012500000;stroke-linecap:butt;stroke-linejoin:miter;stroke-miterlimit:4.0000000;stroke-opacity:1.0000000" />
        <path
           style="fill:url(#linearGradient1744)"
           id="path1449"
           d="M 33.599422,-31.877654 C 33.471046,-31.688302 33.247178,-31.450175 32.881142,-31.314843 C 33.247855,-31.449506 33.476098,-31.672514 33.608497,-31.849316 C 33.816463,-32.125576 34.055641,-32.659957 33.788289,-33.435879 C 33.994942,-32.672458 33.785780,-32.153724 33.599422,-31.877654 z " />
        <path
           style="fill:url(#radialGradient1746);stroke:url(#linearGradient1748);stroke-width:0.29878873;stroke-linejoin:round;stroke-miterlimit:4.0000000;stroke-opacity:0.41874996"
           id="path1451"
           d="M 28.302259,-47.558093 C 28.110412,-47.828238 27.628606,-48.236787 26.559648,-47.935106 L 15.235630,-44.713532 C 14.587649,-44.529311 13.626915,-44.829354 13.218604,-45.344924 L 6.1215410,-54.310185 C 5.4502650,-55.153617 4.8099880,-55.095627 4.4863730,-54.986448 C 4.1636210,-54.877921 3.6107860,-54.529928 3.5307270,-53.432591 L 2.6779810,-41.786473 C 2.6274030,-41.107602 2.0200980,-40.289271 1.3792690,-40.038046 L -9.6103880,-35.719187 C -10.645926,-35.318933 -10.815772,-34.693647 -10.824836,-34.356351 C -10.833897,-34.019055 -10.695667,-33.397154 -9.6738790,-33.020448 L 1.1192320,-29.044776 C 1.7461000,-28.809936 2.3166160,-28.007582 2.3349060,-27.329176 L 2.6351650,-15.704433 C 2.6650680,-14.609237 3.2020530,-14.279920 3.5189480,-14.180377 C 3.8374460,-14.081392 4.4766320,-14.044238 5.1884140,-14.910532 L 12.713515,-24.094006 C 13.153531,-24.632610 14.112876,-24.958246 14.767517,-24.791342 L 25.942695,-21.915329 C 26.997500,-21.643132 27.498268,-22.066356 27.703256,-22.342713 C 27.908243,-22.619070 28.164009,-23.218819 27.581360,-24.127859 L 21.437178,-33.783990 C 21.085600,-34.337566 21.109374,-35.353529 21.487094,-35.916070 L 28.098777,-45.769156 C 28.721071,-46.697299 28.494107,-47.287950 28.302259,-47.558093 z " />
        <path
           style="fill:url(#linearGradient1750)"
           id="path1453"
           d="M 20.608145,-37.258361 L 24.655638,-43.804924 C 25.142390,-44.592336 24.947232,-45.106589 24.786829,-45.343662 C 24.627039,-45.580948 24.229423,-45.943094 23.369017,-45.704692 L 14.259798,-43.159729 C 13.738305,-43.013842 12.955484,-43.292857 12.615311,-43.746048 L 6.7017040,-51.625223 C 6.1430790,-52.366683 5.6253330,-52.329579 5.3656340,-52.242427 C 5.1062390,-52.155380 4.6650840,-51.866593 4.6208170,-50.922118 L 4.1467250,-40.894420 C 4.1184890,-40.310025 3.6421770,-39.616606 3.1277400,-39.413424 L -5.6901811,-35.915137 C -6.5211246,-35.591543 -6.6472217,-35.055776 -6.6480540,-34.764745 C -6.6489892,-34.474041 -6.5258309,-33.934716 -5.6913039,-33.588815 L 3.1214330,-29.936632 C 3.6333650,-29.721412 4.1103620,-29.017108 4.1377410,-28.431678 L 4.1527520,-28.110822 C 5.1381150,-28.368688 6.1277370,-28.664108 7.1191400,-29.009331 C 12.532770,-30.894452 17.163862,-33.826706 20.608145,-37.258361 z " />
        <path
           style="fill:url(#linearGradient1752)"
           id="path1455"
           d="M 34.002095,-31.939258 C 33.871961,-31.749165 33.645295,-31.509921 33.275383,-31.373258 C 33.645983,-31.509253 33.877021,-31.733362 34.011176,-31.910892 C 34.221882,-32.188299 34.464821,-32.724413 34.197037,-33.501055 C 34.403570,-32.736762 34.190986,-32.216409 34.002095,-31.939258 z " />
        <path
           style="opacity:0.29999998;fill:#e89500"
           id="path1457"
           d="M 14.134831,-26.815360 C 13.461754,-27.020859 12.492257,-26.692048 12.058707,-26.112443 L 5.0428010,-14.957929 C 4.3414580,-14.025437 3.6877850,-14.086618 3.3600710,-14.206494 C 3.1268490,-14.292167 2.7771770,-14.517529 2.5731020,-15.078526 C 2.7419130,-14.459223 3.1249270,-14.235282 3.3753790,-14.157716 C 3.6966570,-14.059490 4.3418560,-14.024170 5.0627770,-14.894266 L 12.684553,-24.117991 C 13.130228,-24.658954 14.099626,-24.988082 14.760080,-24.822808 L 26.034432,-21.974561 C 26.565930,-21.839920 26.958882,-21.878729 27.244690,-21.986333 C 26.959081,-21.878096 26.563048,-21.849104 26.021412,-22.016054 L 14.134831,-26.815360 z " />
      </g>
      <g
         id="g1521"
         transform="matrix(0.242425,-3.017043e-2,4.685604e-2,0.276907,17.37467,30.51363)">
        <path
           id="path1523"
           d="M 5.2690550,-32.969311 C 5.3129600,-33.448337 5.3568670,-33.927364 5.4007730,-34.406381 C 5.4446790,-34.885408 5.4885850,-35.364434 5.5325010,-35.843460 C 5.5682540,-36.364082 5.7538090,-36.682421 6.1952360,-36.717169 C 7.6501450,-36.731050 9.1050450,-36.744922 10.559954,-36.758794 C 12.014863,-36.772665 13.469762,-36.786537 14.924672,-36.800418 C 14.724595,-35.257881 8.5303980,-35.536279 7.6543970,-35.440181 C 6.0476270,-35.263919 7.0794500,-33.543874 5.2690550,-32.969311 z "
           style="fill:url(#linearGradient1754);fill-opacity:1.0000000;fill-rule:evenodd;stroke:none;stroke-width:0.012500000;stroke-linecap:butt;stroke-linejoin:miter;stroke-miterlimit:4.0000000;stroke-opacity:1.0000000" />
        <path
           style="fill:url(#linearGradient1756)"
           id="path1525"
           d="M 33.599422,-31.877654 C 33.471046,-31.688302 33.247178,-31.450175 32.881142,-31.314843 C 33.247855,-31.449506 33.476098,-31.672514 33.608497,-31.849316 C 33.816463,-32.125576 34.055641,-32.659957 33.788289,-33.435879 C 33.994942,-32.672458 33.785780,-32.153724 33.599422,-31.877654 z " />
        <path
           style="fill:url(#radialGradient1758);stroke:url(#linearGradient1760);stroke-width:0.29878873;stroke-linejoin:round;stroke-miterlimit:4.0000000;stroke-opacity:0.41874996"
           id="path1527"
           d="M 28.302259,-47.558093 C 28.110412,-47.828238 27.628606,-48.236787 26.559648,-47.935106 L 15.235630,-44.713532 C 14.587649,-44.529311 13.626915,-44.829354 13.218604,-45.344924 L 6.1215410,-54.310185 C 5.4502650,-55.153617 4.8099880,-55.095627 4.4863730,-54.986448 C 4.1636210,-54.877921 3.6107860,-54.529928 3.5307270,-53.432591 L 2.6779810,-41.786473 C 2.6274030,-41.107602 2.0200980,-40.289271 1.3792690,-40.038046 L -9.6103880,-35.719187 C -10.645926,-35.318933 -10.815772,-34.693647 -10.824836,-34.356351 C -10.833897,-34.019055 -10.695667,-33.397154 -9.6738790,-33.020448 L 1.1192320,-29.044776 C 1.7461000,-28.809936 2.3166160,-28.007582 2.3349060,-27.329176 L 2.6351650,-15.704433 C 2.6650680,-14.609237 3.2020530,-14.279920 3.5189480,-14.180377 C 3.8374460,-14.081392 4.4766320,-14.044238 5.1884140,-14.910532 L 12.713515,-24.094006 C 13.153531,-24.632610 14.112876,-24.958246 14.767517,-24.791342 L 25.942695,-21.915329 C 26.997500,-21.643132 27.498268,-22.066356 27.703256,-22.342713 C 27.908243,-22.619070 28.164009,-23.218819 27.581360,-24.127859 L 21.437178,-33.783990 C 21.085600,-34.337566 21.109374,-35.353529 21.487094,-35.916070 L 28.098777,-45.769156 C 28.721071,-46.697299 28.494107,-47.287950 28.302259,-47.558093 z " />
        <path
           style="fill:url(#linearGradient1762)"
           id="path1529"
           d="M 20.608145,-37.258361 L 24.655638,-43.804924 C 25.142390,-44.592336 24.947232,-45.106589 24.786829,-45.343662 C 24.627039,-45.580948 24.229423,-45.943094 23.369017,-45.704692 L 14.259798,-43.159729 C 13.738305,-43.013842 12.955484,-43.292857 12.615311,-43.746048 L 6.7017040,-51.625223 C 6.1430790,-52.366683 5.6253330,-52.329579 5.3656340,-52.242427 C 5.1062390,-52.155380 4.6650840,-51.866593 4.6208170,-50.922118 L 4.1467250,-40.894420 C 4.1184890,-40.310025 3.6421770,-39.616606 3.1277400,-39.413424 L -5.6901811,-35.915137 C -6.5211246,-35.591543 -6.6472217,-35.055776 -6.6480540,-34.764745 C -6.6489892,-34.474041 -6.5258309,-33.934716 -5.6913039,-33.588815 L 3.1214330,-29.936632 C 3.6333650,-29.721412 4.1103620,-29.017108 4.1377410,-28.431678 L 4.1527520,-28.110822 C 5.1381150,-28.368688 6.1277370,-28.664108 7.1191400,-29.009331 C 12.532770,-30.894452 17.163862,-33.826706 20.608145,-37.258361 z " />
        <path
           style="fill:url(#linearGradient1764)"
           id="path1531"
           d="M 34.002095,-31.939258 C 33.871961,-31.749165 33.645295,-31.509921 33.275383,-31.373258 C 33.645983,-31.509253 33.877021,-31.733362 34.011176,-31.910892 C 34.221882,-32.188299 34.464821,-32.724413 34.197037,-33.501055 C 34.403570,-32.736762 34.190986,-32.216409 34.002095,-31.939258 z " />
        <path
           style="opacity:0.29999998;fill:#e89500"
           id="path1533"
           d="M 14.134831,-26.815360 C 13.461754,-27.020859 12.492257,-26.692048 12.058707,-26.112443 L 5.0428010,-14.957929 C 4.3414580,-14.025437 3.6877850,-14.086618 3.3600710,-14.206494 C 3.1268490,-14.292167 2.7771770,-14.517529 2.5731020,-15.078526 C 2.7419130,-14.459223 3.1249270,-14.235282 3.3753790,-14.157716 C 3.6966570,-14.059490 4.3418560,-14.024170 5.0627770,-14.894266 L 12.684553,-24.117991 C 13.130228,-24.658954 14.099626,-24.988082 14.760080,-24.822808 L 26.034432,-21.974561 C 26.565930,-21.839920 26.958882,-21.878729 27.244690,-21.986333 C 26.959081,-21.878096 26.563048,-21.849104 26.021412,-22.016054 L 14.134831,-26.815360 z " />
      </g>
      <g
         id="g1547"
         transform="matrix(0.140272,-1.600557e-2,2.711178e-2,0.146901,12.44720,40.16389)">
        <path
           id="path1549"
           d="M 5.2690550,-32.969311 C 5.3129600,-33.448337 5.3568670,-33.927364 5.4007730,-34.406381 C 5.4446790,-34.885408 5.4885850,-35.364434 5.5325010,-35.843460 C 5.5682540,-36.364082 5.7538090,-36.682421 6.1952360,-36.717169 C 7.6501450,-36.731050 9.1050450,-36.744922 10.559954,-36.758794 C 12.014863,-36.772665 13.469762,-36.786537 14.924672,-36.800418 C 14.724595,-35.257881 8.5303980,-35.536279 7.6543970,-35.440181 C 6.0476270,-35.263919 7.0794500,-33.543874 5.2690550,-32.969311 z "
           style="fill:url(#linearGradient1766);fill-opacity:1.0000000;fill-rule:evenodd;stroke:none;stroke-width:0.012500000;stroke-linecap:butt;stroke-linejoin:miter;stroke-miterlimit:4.0000000;stroke-opacity:1.0000000" />
        <path
           style="fill:url(#linearGradient1768)"
           id="path1551"
           d="M 33.599422,-31.877654 C 33.471046,-31.688302 33.247178,-31.450175 32.881142,-31.314843 C 33.247855,-31.449506 33.476098,-31.672514 33.608497,-31.849316 C 33.816463,-32.125576 34.055641,-32.659957 33.788289,-33.435879 C 33.994942,-32.672458 33.785780,-32.153724 33.599422,-31.877654 z " />
        <path
           style="fill:url(#radialGradient1770);stroke:url(#linearGradient1772);stroke-width:0.29878873;stroke-linejoin:round;stroke-miterlimit:4.0000000;stroke-opacity:0.41874996"
           id="path1553"
           d="M 28.302259,-47.558093 C 28.110412,-47.828238 27.628606,-48.236787 26.559648,-47.935106 L 15.235630,-44.713532 C 14.587649,-44.529311 13.626915,-44.829354 13.218604,-45.344924 L 6.1215410,-54.310185 C 5.4502650,-55.153617 4.8099880,-55.095627 4.4863730,-54.986448 C 4.1636210,-54.877921 3.6107860,-54.529928 3.5307270,-53.432591 L 2.6779810,-41.786473 C 2.6274030,-41.107602 2.0200980,-40.289271 1.3792690,-40.038046 L -9.6103880,-35.719187 C -10.645926,-35.318933 -10.815772,-34.693647 -10.824836,-34.356351 C -10.833897,-34.019055 -10.695667,-33.397154 -9.6738790,-33.020448 L 1.1192320,-29.044776 C 1.7461000,-28.809936 2.3166160,-28.007582 2.3349060,-27.329176 L 2.6351650,-15.704433 C 2.6650680,-14.609237 3.2020530,-14.279920 3.5189480,-14.180377 C 3.8374460,-14.081392 4.4766320,-14.044238 5.1884140,-14.910532 L 12.713515,-24.094006 C 13.153531,-24.632610 14.112876,-24.958246 14.767517,-24.791342 L 25.942695,-21.915329 C 26.997500,-21.643132 27.498268,-22.066356 27.703256,-22.342713 C 27.908243,-22.619070 28.164009,-23.218819 27.581360,-24.127859 L 21.437178,-33.783990 C 21.085600,-34.337566 21.109374,-35.353529 21.487094,-35.916070 L 28.098777,-45.769156 C 28.721071,-46.697299 28.494107,-47.287950 28.302259,-47.558093 z " />
        <path
           style="fill:url(#linearGradient1774)"
           id="path1555"
           d="M 20.608145,-37.258361 L 24.655638,-43.804924 C 25.142390,-44.592336 24.947232,-45.106589 24.786829,-45.343662 C 24.627039,-45.580948 24.229423,-45.943094 23.369017,-45.704692 L 14.259798,-43.159729 C 13.738305,-43.013842 12.955484,-43.292857 12.615311,-43.746048 L 6.7017040,-51.625223 C 6.1430790,-52.366683 5.6253330,-52.329579 5.3656340,-52.242427 C 5.1062390,-52.155380 4.6650840,-51.866593 4.6208170,-50.922118 L 4.1467250,-40.894420 C 4.1184890,-40.310025 3.6421770,-39.616606 3.1277400,-39.413424 L -5.6901811,-35.915137 C -6.5211246,-35.591543 -6.6472217,-35.055776 -6.6480540,-34.764745 C -6.6489892,-34.474041 -6.5258309,-33.934716 -5.6913039,-33.588815 L 3.1214330,-29.936632 C 3.6333650,-29.721412 4.1103620,-29.017108 4.1377410,-28.431678 L 4.1527520,-28.110822 C 5.1381150,-28.368688 6.1277370,-28.664108 7.1191400,-29.009331 C 12.532770,-30.894452 17.163862,-33.826706 20.608145,-37.258361 z " />
        <path
           style="fill:url(#linearGradient1776)"
           id="path1557"
           d="M 34.002095,-31.939258 C 33.871961,-31.749165 33.645295,-31.509921 33.275383,-31.373258 C 33.645983,-31.509253 33.877021,-31.733362 34.011176,-31.910892 C 34.221882,-32.188299 34.464821,-32.724413 34.197037,-33.501055 C 34.403570,-32.736762 34.190986,-32.216409 34.002095,-31.939258 z " />
        <path
           style="opacity:0.29999998;fill:#e89500"
           id="path1559"
           d="M 14.134831,-26.815360 C 13.461754,-27.020859 12.492257,-26.692048 12.058707,-26.112443 L 5.0428010,-14.957929 C 4.3414580,-14.025437 3.6877850,-14.086618 3.3600710,-14.206494 C 3.1268490,-14.292167 2.7771770,-14.517529 2.5731020,-15.078526 C 2.7419130,-14.459223 3.1249270,-14.235282 3.3753790,-14.157716 C 3.6966570,-14.059490 4.3418560,-14.024170 5.0627770,-14.894266 L 12.684553,-24.117991 C 13.130228,-24.658954 14.099626,-24.988082 14.760080,-24.822808 L 26.034432,-21.974561 C 26.565930,-21.839920 26.958882,-21.878729 27.244690,-21.986333 C 26.959081,-21.878096 26.563048,-21.849104 26.021412,-22.016054 L 14.134831,-26.815360 z " />
      </g>
    </g>
    <rect
       ry="0.0000000"
       rx="0.0000000"
       y="41.000000"
       x="9.0000000"
       height="4.0000000"
       width="43.000000"
       id="rect7402"
       style="fill:#000000;fill-opacity:0.27601811;stroke:none;stroke-width:1.1250000;stroke-linecap:round;stroke-linejoin:round;stroke-miterlimit:4.0000000;stroke-dashoffset:0.0000000;stroke-opacity:1.0000000" />
    <rect
       ry="0.0000000"
       rx="0.0000000"
       y="51.000000"
       x="9.0000000"
       height="4.0000000"
       width="33.000000"
       id="rect7404"
       style="fill:#000000;fill-opacity:0.27601811;stroke:none;stroke-width:1.1250000;stroke-linecap:round;stroke-linejoin:round;stroke-miterlimit:4.0000000;stroke-dashoffset:0.0000000;stroke-opacity:1.0000000" />
  </g>
</svg>
