<?xml version="1.0" encoding="UTF-8" standalone="no"?>
<!DOCTYPE svg PUBLIC "-//W3C//DTD SVG 20010904//EN"
"http://www.w3.org/TR/2001/REC-SVG-20010904/DTD/svg10.dtd">
<!-- Created with Inkscape (http://www.inkscape.org/) -->
<svg
   width="64pt"
   height="64pt"
   id="svg1640"
   sodipodi:version="0.32"
   inkscape:version="0.40"
   sodipodi:docbase="/home/nuno/kdeplayground-artwork/oooicons/crystalsvg"
   sodipodi:docname="sum.svg"
   inkscape:export-filename="/home/nuno/kdeplayground-artwork/oooicons/crystalsvg/sum.png"
   inkscape:export-xdpi="36.000000"
   inkscape:export-ydpi="36.000000"
   xmlns="http://www.w3.org/2000/svg"
   xmlns:cc="http://web.resource.org/cc/"
   xmlns:inkscape="http://www.inkscape.org/namespaces/inkscape"
   xmlns:sodipodi="http://sodipodi.sourceforge.net/DTD/sodipodi-0.dtd"
   xmlns:rdf="http://www.w3.org/1999/02/22-rdf-syntax-ns#"
   xmlns:dc="http://purl.org/dc/elements/1.1/"
   xmlns:xlink="http://www.w3.org/1999/xlink">
  <defs
     id="defs3">
    <linearGradient
       id="light75to25">
      <stop
         style="stop-color:#ffffff;stop-opacity:0.72941178;"
         offset="0.0000000"
         id="stop2774" />
      <stop
         style="stop-color:#ffffff;stop-opacity:0.26249999;"
         offset="1.0000000"
         id="stop2775" />
    </linearGradient>
    <linearGradient
       id="shadow100to0">
      <stop
         style="stop-color:#000000;stop-opacity:1.0000000;"
         offset="0.0000000"
         id="stop3425" />
      <stop
         style="stop-color:#000000;stop-opacity:0.0000000;"
         offset="1.0000000"
         id="stop3426" />
    </linearGradient>
    <linearGradient
       id="greandraktoblack">
      <stop
         style="stop-color:#007c00;stop-opacity:1.0000000;"
         offset="0.0000000"
         id="stop7328" />
      <stop
         style="stop-color:#025a00;stop-opacity:1.0000000;"
         offset="1.0000000"
         id="stop7329" />
    </linearGradient>
    <linearGradient
       id="graytoblack">
      <stop
         style="stop-color:#7d7d7d;stop-opacity:1.0000000;"
         offset="0.0000000"
         id="stop5097" />
      <stop
         style="stop-color:#000000;stop-opacity:1.0000000;"
         offset="1.0000000"
         id="stop5098" />
    </linearGradient>
    <linearGradient
       id="light100to0">
      <stop
         style="stop-color:#ffffff;stop-opacity:1.0000000;"
         offset="0.0000000"
         id="stop2764" />
      <stop
         style="stop-color:#ffffff;stop-opacity:0.0000000;"
         offset="1.0000000"
         id="stop2765" />
    </linearGradient>
    <linearGradient
       inkscape:collect="always"
       xlink:href="#graytoblack"
       id="linearGradient4286"
       gradientTransform="matrix(1.019662,0.000000,8.732005e-2,1.268689,-7.825673,-3.882045)"
       x1="49.631966"
       y1="3.6434994"
       x2="51.303749"
       y2="54.466740"
       gradientUnits="userSpaceOnUse" />
    <radialGradient
       inkscape:collect="always"
       xlink:href="#light100to0"
       id="radialGradient4912"
       gradientTransform="matrix(1.159907,0.000000,5.933778e-2,0.862138,-2.776912,0.000000)"
       cx="39.658875"
       cy="93.210815"
       fx="39.658875"
       fy="93.210815"
       r="31.372257"
       gradientUnits="userSpaceOnUse" />
    <linearGradient
       inkscape:collect="always"
       xlink:href="#graytoblack"
       id="linearGradient6783"
       gradientTransform="matrix(1.019661,0.000000,8.732011e-2,1.268688,-7.825673,-3.882044)"
       x1="11.701684"
       y1="-1.7505991"
       x2="74.807991"
       y2="66.054550"
       gradientUnits="userSpaceOnUse" />
    <linearGradient
       inkscape:collect="always"
       xlink:href="#light100to0"
       id="linearGradient8655"
       gradientTransform="matrix(1.377937,0.000000,4.994909e-2,0.725723,0.000000,0.000000)"
       x1="2.8723915"
       y1="-19.730782"
       x2="35.233940"
       y2="39.107815"
       gradientUnits="userSpaceOnUse" />
  </defs>
  <sodipodi:namedview
     id="base"
     pagecolor="#ffffff"
     bordercolor="#666666"
     borderopacity="1.0"
     inkscape:pageopacity="0.0"
     inkscape:pageshadow="2"
     inkscape:zoom="5.9218750"
     inkscape:cx="32.000000"
     inkscape:cy="28.382277"
     inkscape:current-layer="layer1"
     showgrid="true"
     inkscape:grid-bbox="true"
     gridspacingy="1.0000000pt"
     gridspacingx="1.0000000pt"
     gridoriginy="0.0000000pt"
     gridoriginx="0.0000000pt"
     inkscape:window-width="878"
     inkscape:window-height="732"
     inkscape:window-x="168"
     inkscape:window-y="126" />
  <metadata
     id="metadata4">
    <rdf:RDF
       id="RDF5">
      <cc:Work
         rdf:about=""
         id="Work6">
        <dc:format
           id="format7">image/svg+xml</dc:format>
        <dc:type
           id="type9"
           rdf:resource="http://purl.org/dc/dcmitype/StillImage" />
      </cc:Work>
    </rdf:RDF>
  </metadata>
  <g
     id="layer1"
     inkscape:label="Layer 1"
     inkscape:groupmode="layer">
    <path
       style="font-size:28.000000;font-style:normal;font-variant:normal;font-weight:normal;font-stretch:normal;fill:none;fill-opacity:1.0000000;stroke:#000000;stroke-width:2.1894565;stroke-linecap:butt;stroke-linejoin:round;stroke-miterlimit:4.0000000;stroke-opacity:0.078124948;font-family:Symath;text-anchor:start;writing-mode:lr"
       d="M 18.278131,3.2244852 C 14.471678,3.4587982 13.725190,7.1793531 15.321565,9.8814494 L 34.402795,38.845606 L 11.027827,70.949759 C 8.8736778,73.434427 9.4213626,77.575195 15.498686,77.689987 L 58.822626,77.699067 C 60.583843,77.586896 61.980312,76.338397 62.634877,74.924149 L 67.801630,60.617897 C 68.336110,59.184188 66.726404,58.103508 65.774119,57.657095 C 64.833683,57.216238 63.537318,57.851021 63.015495,58.895405 L 57.234143,66.593011 L 24.532801,66.822437 L 44.814678,38.449214 C 45.820989,36.909894 45.699961,35.151272 44.908273,33.853625 L 30.786537,12.888877 L 56.599250,12.659449 L 61.217377,22.034090 C 61.569718,23.078474 62.701781,23.593787 63.790534,23.205384 L 64.707885,22.860886 C 65.761508,22.477272 66.414774,21.371999 66.214627,20.311599 L 63.016396,7.3328761 C 62.326971,4.8325278 60.971879,2.9359728 57.888299,2.9950579 L 18.278131,3.2244852 z "
       id="path7411"
       sodipodi:nodetypes="ccccccccscccccccccccccc" />
    <path
       style="font-size:28.000000;font-style:normal;font-variant:normal;font-weight:normal;font-stretch:normal;fill:none;fill-opacity:1.0000000;stroke:#000000;stroke-width:5.0329070;stroke-linecap:butt;stroke-linejoin:round;stroke-miterlimit:4.0000000;stroke-opacity:0.078124948;font-family:Symath;text-anchor:start;writing-mode:lr"
       d="M 18.278131,3.2244852 C 14.471678,3.4587982 13.725190,7.1793531 15.321565,9.8814494 L 34.402795,38.845606 L 11.027827,70.949759 C 8.8736778,73.434427 9.4213626,77.575195 15.498686,77.689987 L 58.822626,77.699067 C 60.583843,77.586896 61.980312,76.338397 62.634877,74.924149 L 67.801630,60.617897 C 68.336110,59.184188 66.726404,58.103508 65.774119,57.657095 C 64.833683,57.216238 63.537318,57.851021 63.015495,58.895405 L 57.234143,66.593011 L 24.532801,66.822437 L 44.814678,38.449214 C 45.820989,36.909894 45.699961,35.151272 44.908273,33.853625 L 30.786537,12.888877 L 56.599250,12.659449 L 61.217377,22.034090 C 61.569718,23.078474 62.701781,23.593787 63.790534,23.205384 L 64.707885,22.860886 C 65.761508,22.477272 66.414774,21.371999 66.214627,20.311599 L 63.016396,7.3328761 C 62.326971,4.8325278 60.971879,2.9359728 57.888299,2.9950579 L 18.278131,3.2244852 z "
       id="path7410"
       sodipodi:nodetypes="ccccccccscccccccccccccc" />
    <text
       xml:space="preserve"
       style="font-size:12.000000;font-style:normal;font-variant:normal;font-weight:normal;font-stretch:normal;fill:#000000;fill-opacity:1.0000000;stroke:none;stroke-width:1.0000000pt;stroke-linecap:butt;stroke-linejoin:miter;stroke-opacity:1.0000000;font-family:Symbol;text-anchor:start;writing-mode:lr"
       x="27.229551"
       y="50.026386"
       id="text1094"
       sodipodi:linespacing="100%"
       transform="matrix(4.412595,0.000000,0.000000,1.000000,-6.402987,0.000000)"><tspan
         x="27.229551"
         y="50.026386"
         sodipodi:role="line"
         id="tspan1097">UvkhgckgsbdlhvsldkjqdfvqlwkdhnW</tspan></text>
    <path
       style="font-size:28.000000;font-style:normal;font-variant:normal;font-weight:normal;font-stretch:normal;fill:url(#linearGradient4286);fill-opacity:1.0000000;stroke:none;stroke-width:1.9279048;stroke-linecap:butt;stroke-linejoin:round;stroke-miterlimit:4.0000000;stroke-opacity:1.0000000;font-family:Symath;text-anchor:start;writing-mode:lr"
       d="M 18.278131,3.2244852 C 14.471678,3.4587982 13.725190,7.1793531 15.321565,9.8814494 L 34.402795,38.845606 L 11.027827,70.949759 C 8.8736778,73.434427 9.4213626,77.575195 15.498686,77.689987 L 58.822626,77.699067 C 60.583843,77.586896 61.980312,76.338397 62.634877,74.924149 L 67.801630,60.617897 C 68.336110,59.184188 66.726404,58.103508 65.774119,57.657095 C 64.833683,57.216238 63.537318,57.851021 63.015495,58.895405 L 57.234143,66.593011 L 24.532801,66.822437 L 44.814678,38.449214 C 45.820989,36.909894 45.699961,35.151272 44.908273,33.853625 L 30.786537,12.888877 L 56.599250,12.659449 L 61.217377,22.034090 C 61.569718,23.078474 62.701781,23.593787 63.790534,23.205384 L 64.707885,22.860886 C 65.761508,22.477272 66.414774,21.371999 66.214627,20.311599 L 63.016396,7.3328761 C 62.326971,4.8325278 60.971879,2.9359728 57.888299,2.9950579 L 18.278131,3.2244852 z "
       id="path1748"
       sodipodi:nodetypes="ccccccccscccccccccccccc" />
    <path
       style="font-size:28.000000;font-style:normal;font-variant:normal;font-weight:normal;font-stretch:normal;fill:url(#radialGradient4912);fill-opacity:1.0000000;stroke:none;stroke-width:1.9279048;stroke-linecap:butt;stroke-linejoin:round;stroke-miterlimit:4.0000000;stroke-opacity:1.0000000;font-family:Symath;text-anchor:start;writing-mode:lr"
       d="M 34.402795,38.845606 L 11.027827,70.949759 C 8.8736778,73.434427 9.4213626,77.575195 15.498686,77.689987 L 58.822626,77.699067 C 60.583843,77.586896 61.980312,76.338397 62.634877,74.924149 L 67.801630,60.617897 C 68.336110,59.184188 66.726404,58.103508 65.774119,57.657095 C 64.833683,57.216238 63.537318,57.851021 63.015495,58.895405 L 57.234143,66.593011 L 24.532801,66.822437 L 44.814678,38.449214 C 45.820989,36.909894 45.699961,35.151272 44.908273,33.853625 L 34.402795,38.845606 z "
       id="path4288"
       sodipodi:nodetypes="ccccccscccccc" />
    <path
       style="font-size:28.000000;font-style:normal;font-variant:normal;font-weight:normal;font-stretch:normal;fill:none;fill-opacity:1.0000000;stroke:url(#linearGradient6783);stroke-width:2.1927607;stroke-linecap:butt;stroke-linejoin:round;stroke-miterlimit:4.0000000;stroke-opacity:1.0000000;font-family:Symath;text-anchor:start;writing-mode:lr"
       d="M 18.278131,3.2244852 C 14.471678,3.4587982 13.725190,7.1793531 15.321565,9.8814494 L 34.402795,38.845606 L 11.027827,70.949759 C 8.8736778,73.434427 9.4213626,77.575195 15.498686,77.689987 L 58.822626,77.699067 C 60.583843,77.586896 61.980312,76.338397 62.634877,74.924149 L 67.801630,60.617897 C 68.336110,59.184188 66.726404,58.103508 65.774119,57.657095 C 64.833683,57.216238 63.537318,57.851021 63.015495,58.895405 L 57.234143,66.593011 L 24.532801,66.822437 L 44.814678,38.449214 C 45.820989,36.909894 45.699961,35.151272 44.908273,33.853625 L 30.786537,12.888877 L 56.599250,12.659449 L 61.217377,22.034090 C 61.569718,23.078474 62.701781,23.593787 63.790534,23.205384 L 64.707885,22.860886 C 65.761508,22.477272 66.414774,21.371999 66.214627,20.311599 L 63.016396,7.3328761 C 62.326971,4.8325278 60.971879,2.9359728 57.888299,2.9950579 L 18.278131,3.2244852 z "
       id="path6158"
       sodipodi:nodetypes="ccccccccscccccccccccccc" />
    <path
       style="font-size:28.000000;font-style:normal;font-variant:normal;font-weight:normal;font-stretch:normal;fill:url(#linearGradient8655);fill-opacity:1.0;stroke:none;stroke-width:1.9279048;stroke-linecap:butt;stroke-linejoin:round;stroke-miterlimit:4.0000000;stroke-opacity:1.0000000;font-family:Symath;text-anchor:start;writing-mode:lr;"
       d="M 20.454921,3.8377553 C 17.439764,3.6296226 14.918425,6.1838012 17.241973,10.129578 L 29.013943,28.707382 C 33.789156,26.590450 21.813679,13.700013 23.865982,10.132622 C 25.453123,7.3737911 44.623473,5.0640881 56.722968,7.8122349 C 57.872785,8.0733915 58.312939,9.7417283 59.107924,10.706475 C 60.907175,12.889938 62.776336,9.9140853 62.068485,7.8016081 C 61.360635,5.6891308 59.004404,4.0689911 55.896829,4.0503506 L 20.454921,3.8377553 z "
       id="path4913"
       sodipodi:nodetypes="cccsssssc" />
  </g>
</svg>
