<?xml version="1.0" encoding="UTF-8" standalone="no"?>
<!DOCTYPE svg PUBLIC "-//W3C//DTD SVG 20010904//EN"
"http://www.w3.org/TR/2001/REC-SVG-20010904/DTD/svg10.dtd">
<!-- Created with Inkscape (http://www.inkscape.org/) -->
<svg
   version="1.0"
   x="0.0000000"
   y="0.0000000"
   width="375.00000"
   height="375.00000"
   id="svg2028"
   sodipodi:version="0.32"
   inkscape:version="0.40"
   sodipodi:docname="beziermove.svg"
   sodipodi:docbase="/home/nuno/kdeplayground-artwork/oooicons/crystalsvg"
   inkscape:export-filename="/home/nuno/kdeplayground-artwork/oooicons/crystalsvg/beziermove.png"
   inkscape:export-xdpi="7.6799998"
   inkscape:export-ydpi="7.6799998"
   xmlns="http://www.w3.org/2000/svg"
   xmlns:cc="http://web.resource.org/cc/"
   xmlns:inkscape="http://www.inkscape.org/namespaces/inkscape"
   xmlns:sodipodi="http://sodipodi.sourceforge.net/DTD/sodipodi-0.dtd"
   xmlns:rdf="http://www.w3.org/1999/02/22-rdf-syntax-ns#"
   xmlns:dc="http://purl.org/dc/elements/1.1/"
   xmlns:xlink="http://www.w3.org/1999/xlink">
  <sodipodi:namedview
     id="base"
     pagecolor="#ffffff"
     bordercolor="#666666"
     borderopacity="1.0"
     inkscape:pageopacity="0.0"
     inkscape:pageshadow="2"
     inkscape:zoom="0.55405194"
     inkscape:cx="-39.765909"
     inkscape:cy="154.07955"
     inkscape:window-width="825"
     inkscape:window-height="715"
     inkscape:window-x="167"
     inkscape:window-y="0"
     showgrid="false"
     inkscape:grid-bbox="false"
     inkscape:current-layer="svg2028" />
  <defs
     id="defs2030">
    <linearGradient
       id="linearGradient5122">
      <stop
         offset="0.0000000"
         style="stop-color:#00d301;stop-opacity:1.0000000;"
         id="stop1437" />
      <stop
         offset="1.0000000"
         style="stop-color:#15980f;stop-opacity:1.0000000;"
         id="stop1438" />
    </linearGradient>
    <linearGradient
       id="linearGradient1977">
      <stop
         offset="0.0000000"
         style="stop-color:#ffffff;stop-opacity:0.83529413;"
         id="stop1979" />
      <stop
         offset="1.0000000"
         style="stop-color:#ffffff;stop-opacity:0.0000000;"
         id="stop1978" />
    </linearGradient>
    <radialGradient
       cx="38.797401"
       cy="112.96090"
       r="67.358803"
       fx="38.797401"
       fy="112.96090"
       id="bluelignonlinblu"
       gradientUnits="userSpaceOnUse">
      <stop
         style="stop-color:#d9ffff;stop-opacity:1.0000000;"
         offset="0.0055999998"
         id="stop84" />
      <stop
         style="stop-color:#95d9ff;stop-opacity:1.0000000;"
         offset="0.13480000"
         id="stop86" />
      <stop
         style="stop-color:#68b9ff;stop-opacity:1.0000000;"
         offset="0.32049999"
         id="stop88" />
      <stop
         style="stop-color:#3293fe;stop-opacity:1.0000000;"
         offset="0.56800002"
         id="stop90" />
      <stop
         style="stop-color:#107bfe;stop-opacity:1.0000000;"
         offset="0.75340003"
         id="stop92" />
      <stop
         style="stop-color:#0372fe;stop-opacity:1.0000000;"
         offset="0.85390002"
         id="stop94" />
      <stop
         style="stop-color:#0356fe;stop-opacity:1.0000000;"
         offset="1.0000000"
         id="stop96" />
    </radialGradient>
    <radialGradient
       cx="38.797401"
       cy="112.96090"
       r="67.358803"
       fx="38.797401"
       fy="112.96090"
       id="bluedarktoblackblue"
       gradientUnits="userSpaceOnUse">
      <stop
         style="stop-color:#0356fe;stop-opacity:1.0000000;"
         offset="0.0000000"
         id="stop2959" />
      <stop
         style="stop-color:#032442;stop-opacity:1.0000000;"
         offset="1.0000000"
         id="stop2960" />
    </radialGradient>
    <linearGradient
       id="greandraktoblack">
      <stop
         style="stop-color:#007c00;stop-opacity:1.0000000;"
         offset="0.0000000"
         id="stop7328" />
      <stop
         style="stop-color:#025a00;stop-opacity:1.0000000;"
         offset="1.0000000"
         id="stop7329" />
    </linearGradient>
    <linearGradient
       inkscape:collect="always"
       xlink:href="#bluelignonlinblu"
       id="linearGradient14070"
       x1="55.226224"
       y1="-169.67081"
       x2="118.36478"
       y2="-233.17122"
       gradientUnits="userSpaceOnUse" />
    <linearGradient
       inkscape:collect="always"
       xlink:href="#bluedarktoblackblue"
       id="linearGradient14071"
       x1="54.880415"
       y1="-169.60451"
       x2="118.06612"
       y2="-232.84782"
       gradientUnits="userSpaceOnUse" />
    <linearGradient
       inkscape:collect="always"
       xlink:href="#bluelignonlinblu"
       id="linearGradient14072"
       x1="311.81402"
       y1="-0.33154046"
       x2="374.95169"
       y2="-63.274047"
       gradientUnits="userSpaceOnUse" />
    <linearGradient
       inkscape:collect="always"
       xlink:href="#bluedarktoblackblue"
       id="linearGradient14073"
       x1="311.50013"
       y1="0.25930520"
       x2="375.42921"
       y2="-63.719398"
       gradientUnits="userSpaceOnUse" />
    <linearGradient
       inkscape:collect="always"
       xlink:href="#greandraktoblack"
       id="linearGradient14074"
       gradientUnits="userSpaceOnUse"
       gradientTransform="scale(0.905946,1.103819)"
       x1="582.84957"
       y1="557.12996"
       x2="607.47188"
       y2="578.12893" />
    <linearGradient
       inkscape:collect="always"
       xlink:href="#linearGradient5122"
       id="linearGradient14075"
       x1="603.34226"
       y1="549.65379"
       x2="603.34226"
       y2="568.19306"
       gradientTransform="scale(0.889921,1.123695)"
       gradientUnits="userSpaceOnUse" />
    <radialGradient
       inkscape:collect="always"
       xlink:href="#linearGradient1977"
       id="radialGradient14076"
       cx="603.50459"
       cy="568.25035"
       fx="603.56902"
       fy="568.35277"
       r="5.4782427"
       gradientTransform="scale(0.889921,1.123695)"
       gradientUnits="userSpaceOnUse" />
    <radialGradient
       inkscape:collect="always"
       xlink:href="#linearGradient5122"
       id="radialGradient14077"
       cx="430.68947"
       cy="770.08614"
       fx="430.68947"
       fy="770.08614"
       r="11.839082"
       gradientTransform="scale(1.235261,0.809546)"
       gradientUnits="userSpaceOnUse" />
    <linearGradient
       inkscape:collect="always"
       xlink:href="#linearGradient1977"
       id="linearGradient14078"
       x1="647.29737"
       y1="515.59295"
       x2="648.43618"
       y2="522.45805"
       gradientTransform="scale(0.833440,1.199847)"
       gradientUnits="userSpaceOnUse" />
    <linearGradient
       inkscape:collect="always"
       xlink:href="#linearGradient1977"
       id="linearGradient14079"
       x1="436.38373"
       y1="758.77721"
       x2="438.15809"
       y2="761.26868"
       gradientTransform="scale(1.214184,0.823599)"
       gradientUnits="userSpaceOnUse" />
    <linearGradient
       inkscape:collect="always"
       xlink:href="#linearGradient1977"
       id="linearGradient14080"
       gradientUnits="userSpaceOnUse"
       gradientTransform="matrix(1.420134,0.000000,0.000000,0.704159,83.03569,-296.1794)"
       x1="41.779896"
       y1="615.31271"
       x2="60.867612"
       y2="663.16483" />
    <radialGradient
       inkscape:collect="always"
       xlink:href="#linearGradient1977"
       id="radialGradient14081"
       gradientUnits="userSpaceOnUse"
       gradientTransform="matrix(1.148604,0.000000,0.000000,0.870622,21.42854,-245.2865)"
       cx="171.95191"
       cy="537.74375"
       fx="171.95191"
       fy="537.74375"
       r="23.534935" />
    <linearGradient
       inkscape:collect="always"
       xlink:href="#linearGradient1977"
       id="linearGradient14082"
       gradientUnits="userSpaceOnUse"
       gradientTransform="matrix(1.420134,0.000000,0.000000,0.704159,83.03569,-296.1794)"
       x1="41.779896"
       y1="615.31271"
       x2="60.867612"
       y2="663.16483" />
    <radialGradient
       inkscape:collect="always"
       xlink:href="#linearGradient1977"
       id="radialGradient14083"
       gradientUnits="userSpaceOnUse"
       gradientTransform="matrix(1.148604,0.000000,0.000000,0.870622,21.42854,-245.2865)"
       cx="171.95191"
       cy="537.74375"
       fx="171.95191"
       fy="537.74375"
       r="23.534935" />
  </defs>
  <metadata
     id="metadata2031">
    <RDF
       id="RDF2032">
      <Work
         about=""
         id="Work2033">
        <format
           id="format2034">image/svg+xml</format>
        <type
           id="type2036"
           resource="http://purl.org/dc/dcmitype/StillImage" />
      </Work>
    </RDF>
    <rdf:RDF
       id="RDF155">
      <cc:Work
         rdf:about=""
         id="Work156">
        <dc:format
           id="format157">image/svg+xml</dc:format>
        <dc:type
           id="type159"
           rdf:resource="http://purl.org/dc/dcmitype/StillImage" />
      </cc:Work>
    </rdf:RDF>
  </metadata>
  <g
     id="g14034"
     transform="matrix(0.989322,0.000000,0.000000,0.989322,4.107872e-5,4.004079)">
    <g
       id="g3155"
       transform="translate(0.000000,-9.538519)">
      <rect
         style="fill:#000000;fill-opacity:0.29411766;fill-rule:evenodd;stroke:none;stroke-width:7.2604499;stroke-linecap:butt;stroke-linejoin:miter;stroke-miterlimit:4.0000000;stroke-opacity:1.0000000"
         id="rect3153"
         width="65.447342"
         height="65.447342"
         x="61.482780"
         y="-242.29790"
         transform="matrix(1.633001e-3,0.999999,-0.999999,1.633001e-3,0.000000,0.000000)" />
      <rect
         style="fill:#000000;fill-opacity:0.29411766;fill-rule:evenodd;stroke:none;stroke-width:7.2604499;stroke-linecap:butt;stroke-linejoin:miter;stroke-miterlimit:4.0000000;stroke-opacity:1.0000000"
         id="rect3154"
         width="65.451439"
         height="65.451439"
         x="319.09747"
         y="-71.581314"
         transform="matrix(1.632817e-3,0.999999,-0.999999,1.632817e-3,0.000000,0.000000)" />
      <path
         style="fill:#ffffff;fill-opacity:1.0000000;fill-rule:evenodd;stroke:#989696;stroke-width:14.208088;stroke-linecap:butt;stroke-linejoin:miter;stroke-miterlimit:4.0000000;stroke-dasharray:28.416176 14.208089 ;stroke-dashoffset:0.0000000;stroke-opacity:1.0000000"
         d="M 32.533265,329.26885 L 32.533265,86.854465"
         id="path12034" />
      <path
         style="fill:none;fill-opacity:0.75000000;fill-rule:evenodd;stroke:#000000;stroke-width:13.531513;stroke-linecap:butt;stroke-linejoin:miter;stroke-miterlimit:4.0000000;stroke-opacity:1.0000000"
         d="M 29.146192,343.84269 L 199.40752,101.12494"
         id="path12035"
         sodipodi:nodetypes="cc" />
      <rect
         style="fill:url(#linearGradient14070);fill-opacity:1.0000000;fill-rule:evenodd;stroke:url(#linearGradient14071);stroke-width:7.0655189;stroke-linecap:butt;stroke-linejoin:miter;stroke-miterlimit:4.0000000;stroke-opacity:1.0000000"
         id="rect12036"
         width="58.395363"
         height="58.395363"
         x="58.018734"
         y="-231.03645"
         transform="matrix(1.633011e-3,0.999999,-0.999999,1.633011e-3,0.000000,0.000000)" />
      <rect
         style="fill:url(#linearGradient14072);fill-opacity:1.0000000;fill-rule:evenodd;stroke:url(#linearGradient14073);stroke-width:7.0655217;stroke-linecap:butt;stroke-linejoin:miter;stroke-miterlimit:4.0000000;stroke-opacity:1.0000000"
         id="rect12037"
         width="58.395386"
         height="58.395386"
         x="314.88623"
         y="-61.417786"
         transform="matrix(1.633010e-3,0.999999,-0.999999,1.633010e-3,0.000000,0.000000)" />
      <rect
         style="fill:#989696;fill-opacity:1.0000000;fill-rule:evenodd;stroke:#989696;stroke-width:7.1040597;stroke-linecap:butt;stroke-linejoin:miter;stroke-miterlimit:4.0000000;stroke-dashoffset:0.0000000;stroke-opacity:1.0000000"
         id="rect12038"
         width="58.395115"
         height="58.395115"
         x="57.749508"
         y="-61.869987"
         transform="matrix(1.633024e-3,0.999999,-0.999999,1.633024e-3,0.000000,0.000000)" />
      <g
         id="g6403"
         transform="matrix(5.784519,-6.545391e-2,6.545391e-2,5.784519,-2841.912,-3512.768)">
        <path
           style="fill:#00da00;fill-opacity:1.0000000;fill-rule:evenodd;stroke:url(#linearGradient14074);stroke-width:4.3216038;stroke-linecap:butt;stroke-linejoin:round;stroke-miterlimit:4.0000000;stroke-opacity:1.0000000"
           d="M 529.67289,631.50266 L 536.94213,631.90442 L 536.87243,639.59219 L 547.55026,628.66006 L 537.40914,616.86622 L 537.33336,625.22262 L 529.73045,625.15190 L 529.67289,631.50266 z "
           id="path6064"
           sodipodi:nodetypes="cccccccc" />
        <path
           style="fill:url(#linearGradient14075);fill-opacity:1.0000000;fill-rule:evenodd;stroke:none;stroke-width:1.4000000;stroke-linecap:butt;stroke-linejoin:round;stroke-miterlimit:4.0000000;stroke-opacity:1.0000000"
           d="M 529.65641,631.41794 C 529.82042,631.71405 532.07949,631.55186 533.29103,631.61882 C 534.50257,631.68578 536.63070,631.62180 536.82744,631.91791 C 537.14318,632.21714 536.90242,634.38229 536.89080,635.66359 C 536.87918,636.94488 536.57295,639.30644 536.85595,639.50747 C 537.12976,639.64957 540.41523,635.86343 542.19487,634.04141 C 543.97451,632.21939 547.48912,628.98974 547.53378,628.57534 C 547.54583,628.24647 544.15341,624.64406 542.46322,622.67842 C 540.77303,620.71278 537.74070,616.68481 537.39266,616.78150 C 537.15088,616.93029 537.36740,619.50150 537.35477,620.95970 C 537.34214,622.35243 537.32951,624.75996 537.15320,625.03969 C 536.90085,625.35526 534.78258,625.11433 533.51543,625.10254 C 532.24828,625.09075 530.03180,624.84982 529.71397,625.06718 C 529.44249,625.37273 529.56384,627.15136 529.55425,628.20982 C 529.54466,629.26828 529.46959,631.11239 529.65641,631.41794 z "
           id="path5769"
           sodipodi:nodetypes="ccccccccccccccc" />
        <path
           style="fill:url(#radialGradient14076);fill-opacity:1.0000000;fill-rule:evenodd;stroke:none;stroke-width:1.4000000;stroke-linecap:butt;stroke-linejoin:round;stroke-miterlimit:4.0000000;stroke-opacity:1.0000000"
           d="M 529.68621,631.48231 C 529.85022,631.77842 532.10929,631.61623 533.32083,631.68319 C 534.53237,631.75015 536.66050,631.68617 536.85724,631.98228 C 537.17298,632.28151 536.93222,634.44666 536.92060,635.72796 C 536.90898,637.00925 536.60275,639.37081 536.88575,639.57184 C 537.15956,639.71394 540.44503,635.92780 542.22467,634.10578 C 544.00431,632.28376 547.51892,629.05411 547.56358,628.63971 C 547.57563,628.31084 544.18321,624.70843 542.49302,622.74279 C 540.80283,620.77715 537.77050,616.74918 537.42246,616.84587 C 537.18068,616.99466 537.39720,619.56587 537.38457,621.02407 C 537.37194,622.41680 537.35931,624.82433 537.18300,625.10406 C 536.93065,625.41963 534.81238,625.17870 533.54523,625.16691 C 532.27808,625.15512 530.06160,624.91419 529.74377,625.13155 C 529.47229,625.43710 529.59364,627.21573 529.58405,628.27419 C 529.57446,629.33265 529.49939,631.17676 529.68621,631.48231 z "
           id="path5771"
           sodipodi:nodetypes="ccccccccccccccc" />
        <path
           style="fill:url(#radialGradient14077);fill-opacity:1.0000000;fill-rule:evenodd;stroke:none;stroke-width:1.4000000;stroke-linecap:butt;stroke-linejoin:round;stroke-miterlimit:4.0000000;stroke-opacity:1.0000000"
           d="M 547.53084,628.57424 C 547.54289,628.24537 544.15047,624.64296 542.46028,622.67732 C 540.77009,620.71168 537.73776,616.68371 537.38972,616.78040 C 537.14794,616.92919 537.36446,619.50040 537.35183,620.95860 C 537.33920,622.35133 537.32657,624.75886 537.15026,625.03859 C 536.89791,625.35416 534.77964,625.11323 533.51249,625.10144 C 532.24534,625.08965 530.02886,624.84872 529.71103,625.06608 C 529.43955,625.37163 529.56090,627.15026 529.55131,628.20872 C 547.57891,628.61247 529.51446,628.20299 547.53084,628.57424 z "
           id="path5773"
           sodipodi:nodetypes="ccccccccc" />
        <path
           style="fill:url(#linearGradient14078);fill-opacity:0.75000000;fill-rule:evenodd;stroke:#000000;stroke-width:0.0000000;stroke-linecap:butt;stroke-linejoin:miter;stroke-miterlimit:4.0000000;stroke-opacity:1.0000000"
           d="M 537.44936,616.75257 C 537.54211,616.73620 537.66988,616.79075 537.80944,616.94899 L 542.22003,622.39687 C 541.31435,622.64784 541.48792,623.32135 540.19912,623.43059 C 538.93959,623.53735 538.27405,623.25685 537.29199,623.90065 C 537.35710,621.47944 537.34408,619.42933 537.25294,617.04719 C 537.25006,616.85132 537.35661,616.76894 537.44936,616.75257 z "
           id="path5777"
           sodipodi:nodetypes="ccczccz" />
        <path
           style="fill:url(#linearGradient14079);fill-opacity:0.75000000;fill-rule:evenodd;stroke:#000000;stroke-width:0.0000000;stroke-linecap:butt;stroke-linejoin:miter;stroke-miterlimit:4.0000000;stroke-opacity:1.0000000"
           d="M 529.72382,625.06714 C 529.86206,624.96602 530.53674,624.97907 530.67314,624.97596 L 532.45723,625.06097 C 532.56634,625.83057 531.68369,625.81008 531.01686,626.10773 C 530.32263,626.41762 530.52582,626.74769 529.54376,626.95846 C 529.54649,626.51021 529.53831,625.89073 529.55195,625.61371 C 529.56560,625.33669 529.58938,625.16548 529.72382,625.06714 z "
           id="path6401"
           sodipodi:nodetypes="ccczczz" />
      </g>
    </g>
    <g
       id="g1898"
       transform="matrix(0.667141,0.000000,0.000000,0.663004,79.61459,-42.12006)">
      <path
         style="font-size:12.000000;fill:url(#linearGradient14080);fill-opacity:0.75000000;fill-rule:evenodd;stroke-width:1.0000000"
         d="M 197.61465,139.76436 C 172.15362,142.79290 146.11984,156.54846 139.95538,169.51576 C 136.99546,173.07826 138.75247,146.46651 138.65925,142.58408 C 138.56752,138.70164 140.01206,138.77250 141.61843,138.52267 C 143.19050,138.27880 223.07643,136.73582 197.61465,139.76436 z "
         id="path2545"
         sodipodi:nodetypes="cczzz" />
      <path
         style="font-size:12.000000;fill:url(#radialGradient14081);fill-opacity:0.75000000;fill-rule:evenodd;stroke-width:1.0000000"
         d="M 225.66516,221.33485 C 225.66291,222.91811 223.97303,225.26128 222.32191,225.25979 L 183.39913,225.22326 L 195.73478,193.19802 L 200.72913,198.11408 L 225.69797,201.96147 L 225.66516,221.33485 z "
         id="path2546"
         sodipodi:nodetypes="czccccz" />
    </g>
    <g
       id="g12786"
       transform="matrix(0.667141,0.000000,0.000000,0.663004,-87.89274,214.7245)">
      <path
         style="font-size:12.000000;fill:url(#linearGradient14082);fill-opacity:0.75000000;fill-rule:evenodd;stroke-width:1.0000000"
         d="M 197.61465,139.76436 C 172.15362,142.79290 146.11984,156.54846 139.95538,169.51576 C 136.99546,173.07826 138.75247,146.46651 138.65925,142.58408 C 138.56752,138.70164 140.01206,138.77250 141.61843,138.52267 C 143.19050,138.27880 223.07643,136.73582 197.61465,139.76436 z "
         id="path12787"
         sodipodi:nodetypes="cczzz" />
      <path
         style="font-size:12.000000;fill:url(#radialGradient14083);fill-opacity:0.75000000;fill-rule:evenodd;stroke-width:1.0000000"
         d="M 225.66516,221.33485 C 225.66291,222.91811 223.97303,225.26128 222.32191,225.25979 L 183.39913,225.22326 L 195.73478,193.19802 L 200.72913,198.11408 L 225.69797,201.96147 L 225.66516,221.33485 z "
         id="path12788"
         sodipodi:nodetypes="czccccz" />
    </g>
  </g>
</svg>
