<?xml version="1.0" encoding="UTF-8" standalone="no"?>
<!-- Created with Inkscape (http://www.inkscape.org/) -->
<svg
   xmlns:dc="http://purl.org/dc/elements/1.1/"
   xmlns:cc="http://web.resource.org/cc/"
   xmlns:rdf="http://www.w3.org/1999/02/22-rdf-syntax-ns#"
   xmlns:svg="http://www.w3.org/2000/svg"
   xmlns="http://www.w3.org/2000/svg"
   xmlns:xlink="http://www.w3.org/1999/xlink"
   xmlns:sodipodi="http://inkscape.sourceforge.net/DTD/sodipodi-0.dtd"
   xmlns:inkscape="http://www.inkscape.org/namespaces/inkscape"
   inkscape:export-ydpi="36.000000"
   inkscape:export-xdpi="36.000000"
   inkscape:export-filename="/home/nuno/kdeplayground-artwork/oooicons/crystalsvg/bold.png"
   sodipodi:docname="bold.svg"
   sodipodi:docbase="/home/nuno/kdeplayground-artwork/oooicons/crystalsvg"
   inkscape:version="0.41"
   sodipodi:version="0.32"
   id="svg6618"
   height="64pt"
   width="64pt">
  <defs
     id="defs3">
    <linearGradient
       id="wihitetolightgray">
      <stop
         id="stop1885"
         offset="0.0000000"
         style="stop-color:#ffffff;stop-opacity:1.0000000;" />
      <stop
         id="stop1886"
         offset="1.0000000"
         style="stop-color:#d5d4d4;stop-opacity:1.0000000;" />
    </linearGradient>
    <linearGradient
       id="light100to0">
      <stop
         id="stop2764"
         offset="0.0000000"
         style="stop-color:#ffffff;stop-opacity:1.0000000;" />
      <stop
         id="stop2765"
         offset="1.0000000"
         style="stop-color:#ffffff;stop-opacity:0.0000000;" />
    </linearGradient>
    <linearGradient
       y2="351.92505"
       x2="190.95435"
       y1="-43.841412"
       x1="33.142147"
       gradientTransform="matrix(0.323323,0.000000,0.000000,0.319570,-6.447423,-24.04878)"
       gradientUnits="userSpaceOnUse"
       id="linearGradient4749"
       xlink:href="#light100to0"
       inkscape:collect="always" />
    <linearGradient
       id="yelowtoorange">
      <stop
         id="stop3105"
         offset="0.0000000"
         style="stop-color:#ffff00;stop-opacity:1.0000000;" />
      <stop
         id="stop3107"
         offset="1.0000000"
         style="stop-color:#ff8c00;stop-opacity:1.0000000;" />
    </linearGradient>
    <linearGradient
       y2="318.86072"
       x2="262.79349"
       y1="61.150455"
       x1="1.9200591"
       gradientTransform="matrix(0.323323,0.000000,0.000000,0.319570,-6.447425,-24.04877)"
       gradientUnits="userSpaceOnUse"
       id="linearGradient4750"
       xlink:href="#yelowtoorange"
       inkscape:collect="always" />
    <linearGradient
       gradientUnits="userSpaceOnUse"
       y2="62.577965"
       x2="35.577473"
       y1="21.588600"
       x1="25.937859"
       gradientTransform="scale(1.340480,0.746001)"
       id="linearGradient8532"
       xlink:href="#light100to0"
       inkscape:collect="always" />
    <linearGradient
       gradientUnits="userSpaceOnUse"
       y2="26.602571"
       x2="40.697975"
       y1="80.732117"
       x1="40.476467"
       gradientTransform="matrix(0.956664,0.000000,2.395780e-2,1.222427,-2.236017,-8.433865)"
       id="linearGradient9159"
       xlink:href="#light100to0"
       inkscape:collect="always" />
    <radialGradient
       gradientUnits="userSpaceOnUse"
       r="78.305862"
       fy="58.919807"
       fx="57.689056"
       cy="58.919807"
       cx="57.689056"
       gradientTransform="matrix(1.106523,0.000000,0.000000,1.094005,-3.671242,-5.865539)"
       id="radialGradient3565"
       xlink:href="#wihitetolightgray"
       inkscape:collect="always" />
    <linearGradient
       y2="60.220398"
       x2="69.812103"
       y1="-66.487915"
       x1="-115.55275"
       gradientTransform="matrix(1.106689,0.000000,0.000000,1.093841,-3.671242,-5.865539)"
       gradientUnits="userSpaceOnUse"
       id="linearGradient4188"
       xlink:href="#light100to0"
       inkscape:collect="always" />
  </defs>
  <sodipodi:namedview
     inkscape:window-y="196"
     inkscape:window-x="122"
     inkscape:window-height="538"
     inkscape:window-width="640"
     gridoriginx="0.0000000pt"
     gridoriginy="0.0000000pt"
     gridspacingx="1.0000000pt"
     gridspacingy="1.0000000pt"
     inkscape:grid-bbox="false"
     showgrid="false"
     inkscape:current-layer="layer1"
     inkscape:cy="33.388202"
     inkscape:cx="40.000000"
     inkscape:zoom="4.7375000"
     inkscape:pageshadow="2"
     inkscape:pageopacity="0.0"
     borderopacity="1.0"
     bordercolor="#666666"
     pagecolor="#ffffff"
     id="base" />
  <metadata
     id="metadata4">
    <rdf:RDF
       id="RDF5">
      <cc:Work
         id="Work6"
         rdf:about="">
        <dc:format
           id="format7">image/svg+xml</dc:format>
        <dc:type
           rdf:resource="http://purl.org/dc/dcmitype/StillImage"
           id="type9" />
      </cc:Work>
    </rdf:RDF>
  </metadata>
  <g
     inkscape:groupmode="layer"
     inkscape:label="Layer 1"
     id="layer1">
    <path
       id="rect748"
       d="M 17.316151,5.1613100 L 64.029822,5.1613100 C 70.838948,5.1613100 76.320662,10.841332 76.320662,17.896773 L 76.320662,62.914624 C 76.320662,69.970065 70.838948,75.650087 64.029822,75.650087 L 17.316151,75.650087 C 10.507025,75.650087 5.0253104,69.970065 5.0253104,62.914624 L 5.0253104,17.896773 C 5.0253104,10.841332 10.507025,5.1613100 17.316151,5.1613100 z "
       style="font-size:12.000000;fill:url(#radialGradient3565);fill-opacity:1.0000000;fill-rule:evenodd;stroke:none;stroke-width:23.112499;stroke-linejoin:round" />
    <path
       sodipodi:nodetypes="ccccccc"
       id="path2872"
       d="M 17.319123,3.4083988 C 10.509997,3.4083988 5.0253104,9.0875256 5.0253104,16.142966 L 5.0253104,61.157715 C 5.0253104,63.420666 5.6332321,65.512553 6.6240051,67.350494 C 48.358174,70.503720 33.177919,13.995249 74.872382,10.249363 C 72.821156,6.1935913 68.777674,3.4083988 64.035612,3.4083988 L 17.319123,3.4083988 z "
       style="font-size:12.000000;fill:url(#linearGradient4749);fill-opacity:1.0000000;fill-rule:evenodd;stroke:none;stroke-width:23.112499;stroke-linejoin:round" />
    <path
       inkscape:export-ydpi="36.000000"
       inkscape:export-xdpi="36.000000"
       inkscape:export-filename="/home/nuno/kdeplayground-artwork/oooicons/crystalsvg/path8533.png"
       id="text7282"
       d="M 21.640432,17.966115 L 21.672129,19.583365 C 25.593284,19.842126 26.691916,20.877169 26.756575,24.176357 L 27.370206,55.486323 C 27.434864,58.785511 26.598751,59.561797 22.465790,60.079313 L 22.497485,61.696564 L 40.772567,61.696564 C 50.364137,61.696564 56.625610,56.844807 56.482345,49.534842 C 56.425292,46.623794 55.294967,43.971499 53.269243,41.966111 C 51.244788,40.025413 49.296097,39.055060 45.304241,38.084708 C 51.844697,35.885252 54.233185,33.232955 54.136829,28.316518 C 54.006242,21.653455 48.655760,17.966115 39.177700,17.966115 L 21.640432,17.966115 M 36.137836,39.507889 L 37.840485,39.507889 C 43.686235,39.507889 46.592450,43.001159 46.731911,50.117052 C 46.854888,56.391976 44.591326,59.626484 39.994184,59.626484 C 37.496969,59.626484 36.510579,58.526751 36.454795,55.680392 L 36.137836,39.507889 M 35.815809,23.076627 C 35.770166,20.747788 36.605009,19.906816 38.818449,19.906816 C 42.791289,19.906816 44.661968,22.688494 44.781143,28.769347 C 44.914266,35.561793 43.076846,37.373119 36.099802,37.567189 L 35.815809,23.076627"
       style="font-size:40.000000;font-style:normal;font-variant:normal;font-weight:bold;font-stretch:normal;fill:#000000;fill-opacity:1.0000000;stroke:none;stroke-width:1.4007771pt;stroke-linecap:butt;stroke-linejoin:miter;stroke-opacity:1.0000000;font-family:Times;text-anchor:start;writing-mode:lr-tb" />
    <path
       inkscape:export-ydpi="36.000000"
       inkscape:export-xdpi="36.000000"
       id="path8533"
       d="M 21.640432,17.966115 L 21.672129,19.583365 C 25.593284,19.842126 26.691916,20.877169 26.756575,24.176357 L 27.370206,55.486323 C 27.434864,58.785511 26.598751,59.561797 22.465790,60.079313 L 22.497485,61.696564 L 40.772567,61.696564 C 50.364137,61.696564 56.625610,56.844807 56.482345,49.534842 C 56.425292,46.623794 55.294967,43.971499 53.269243,41.966111 C 51.244788,40.025413 49.296097,39.055060 45.304241,38.084708 C 51.844697,35.885252 54.233185,33.232955 54.136829,28.316518 C 54.006242,21.653455 48.655760,17.966115 39.177700,17.966115 L 21.640432,17.966115 M 36.137836,39.507889 L 37.840485,39.507889 C 43.686235,39.507889 46.592450,43.001159 46.731911,50.117052 C 46.854888,56.391976 44.591326,59.626484 39.994184,59.626484 C 37.496969,59.626484 36.510579,58.526751 36.454795,55.680392 L 36.137836,39.507889 M 35.815809,23.076627 C 35.770166,20.747788 36.605009,19.906816 38.818449,19.906816 C 42.791289,19.906816 44.661968,22.688494 44.781143,28.769347 C 44.914266,35.561793 43.076846,37.373119 36.099802,37.567189 L 35.815809,23.076627"
       style="font-size:40.000000;font-style:normal;font-variant:normal;font-weight:bold;font-stretch:normal;fill:url(#linearGradient9159);fill-opacity:1.0000000;stroke:none;stroke-width:1.0000000pt;stroke-linecap:butt;stroke-linejoin:miter;stroke-opacity:1.0000000;font-family:Times;text-anchor:start;writing-mode:lr-tb" />
    <path
       sodipodi:nodetypes="ccccccc"
       id="path3566"
       d="M 17.319123,3.4083988 C 10.509997,3.4083988 5.0253104,9.0875256 5.0253104,16.142966 L 5.0253104,61.157715 C 5.0253104,63.420666 5.6332321,65.512553 6.6240051,67.350494 C 48.358174,70.503720 33.177919,13.995249 74.872382,10.249363 C 72.821156,6.1935913 68.777674,3.4083988 64.035612,3.4083988 L 17.319123,3.4083988 z "
       style="font-size:12.000000;fill:url(#linearGradient4188);fill-opacity:1.0000000;fill-rule:evenodd;stroke:none;stroke-width:23.112499;stroke-linejoin:round" />
    <path
       id="path3499"
       d="M 16.852164,4.4810997 L 63.565847,4.4810997 C 70.374959,4.4810997 75.856674,10.161122 75.856674,17.216563 L 75.856674,62.234413 C 75.856674,69.289854 70.374959,74.969876 63.565847,74.969876 L 16.852164,74.969876 C 10.043037,74.969876 4.5613226,69.289854 4.5613226,62.234413 L 4.5613226,17.216563 C 4.5613226,10.161122 10.043037,4.4810997 16.852164,4.4810997 z "
       style="font-size:12.000000;fill:none;fill-opacity:1.0000000;fill-rule:evenodd;stroke:url(#linearGradient4750);stroke-width:7.4293141;stroke-linejoin:round" />
    <path
       id="path5996"
       d="M 16.649582,4.6868406 L 63.363265,4.6868406 C 70.172378,4.6868406 75.654092,10.366864 75.654092,17.422303 L 75.654092,62.440155 C 75.654092,69.495596 70.172378,75.175617 63.363265,75.175617 L 16.649582,75.175617 C 9.8404558,75.175617 4.3587410,69.495596 4.3587410,62.440155 L 4.3587410,17.422303 C 4.3587410,10.366864 9.8404558,4.6868406 16.649582,4.6868406 z "
       style="font-size:12.000000;fill:none;fill-opacity:1.0000000;fill-rule:evenodd;stroke:#a76b37;stroke-width:9.0770359;stroke-linejoin:round;stroke-miterlimit:4.0000000;stroke-opacity:0.17499997" />
  </g>
</svg>
