<?xml version="1.0" encoding="UTF-8" standalone="no"?>
<!-- Created with Inkscape (http://www.inkscape.org/) -->
<svg
   xmlns:dc="http://purl.org/dc/elements/1.1/"
   xmlns:cc="http://web.resource.org/cc/"
   xmlns:rdf="http://www.w3.org/1999/02/22-rdf-syntax-ns#"
   xmlns:svg="http://www.w3.org/2000/svg"
   xmlns="http://www.w3.org/2000/svg"
   xmlns:xlink="http://www.w3.org/1999/xlink"
   xmlns:sodipodi="http://inkscape.sourceforge.net/DTD/sodipodi-0.dtd"
   xmlns:inkscape="http://www.inkscape.org/namespaces/inkscape"
   inkscape:export-ydpi="36.000000"
   inkscape:export-xdpi="36.000000"
   inkscape:export-filename="/home/nuno/kdeplayground-artwork/oooicons/crystalsvg/othercaract.png"
   sodipodi:docname="bullet.svg"
   sodipodi:docbase="/home/nuno/kdeplayground-artwork/oooicons/crystalsvg"
   inkscape:version="0.41"
   sodipodi:version="0.32"
   id="svg7960"
   height="64pt"
   width="64pt">
  <defs
     id="defs3">
    <linearGradient
       id="light75to0">
      <stop
         id="stop2769"
         offset="0.0000000"
         style="stop-color:#ffffff;stop-opacity:0.72916669;" />
      <stop
         id="stop2770"
         offset="1.0000000"
         style="stop-color:#ffffff;stop-opacity:0.0000000;" />
    </linearGradient>
    <linearGradient
       id="light100to0">
      <stop
         id="stop2764"
         offset="0.0000000"
         style="stop-color:#ffffff;stop-opacity:1.0000000;" />
      <stop
         id="stop2765"
         offset="1.0000000"
         style="stop-color:#ffffff;stop-opacity:0.0000000;" />
    </linearGradient>
    <linearGradient
       id="light90to0">
      <stop
         id="stop1890"
         offset="0.0000000"
         style="stop-color:#ffffff;stop-opacity:0.90833336;" />
      <stop
         id="stop1892"
         offset="1.0000000"
         style="stop-color:#ffffff;stop-opacity:0.0000000;" />
    </linearGradient>
    <linearGradient
       y2="74.758621"
       x2="-47.465176"
       y1="66.566002"
       x1="-52.942070"
       gradientTransform="scale(-1.370816,0.729493)"
       gradientUnits="userSpaceOnUse"
       id="linearGradient1336"
       xlink:href="#light100to0"
       inkscape:collect="always" />
    <linearGradient
       y2="78.198586"
       x2="13.111348"
       y1="65.761383"
       x1="5.2812061"
       gradientTransform="scale(1.399119,0.714735)"
       gradientUnits="userSpaceOnUse"
       id="linearGradient1339"
       xlink:href="#light100to0"
       inkscape:collect="always" />
    <radialGradient
       r="28.213455"
       fy="97.951225"
       fx="88.843636"
       cy="97.951225"
       cx="88.843636"
       gradientTransform="matrix(-0.224574,0.000000,0.000000,0.226607,83.84199,-1.918091)"
       gradientUnits="userSpaceOnUse"
       id="radialGradient1342"
       xlink:href="#light90to0"
       inkscape:collect="always" />
    <radialGradient
       r="28.213455"
       fy="97.951225"
       fx="88.843636"
       cy="97.951225"
       cx="88.843636"
       gradientTransform="matrix(0.224574,0.000000,0.000000,0.226607,-2.950210,-1.525017)"
       gradientUnits="userSpaceOnUse"
       id="radialGradient1345"
       xlink:href="#light90to0"
       inkscape:collect="always" />
    <linearGradient
       y2="66.981880"
       x2="237.05205"
       y1="3.7660344"
       x1="236.87869"
       gradientTransform="matrix(0.276927,0.000000,0.000000,0.183767,-2.950210,-1.525017)"
       gradientUnits="userSpaceOnUse"
       id="linearGradient1348"
       xlink:href="#light100to0"
       inkscape:collect="always" />
    <linearGradient
       y2="68.051407"
       x2="74.221405"
       y1="4.8355250"
       x1="74.048065"
       gradientTransform="matrix(0.276927,0.000000,0.000000,0.183767,-2.950210,-1.525017)"
       gradientUnits="userSpaceOnUse"
       id="linearGradient1351"
       xlink:href="#light100to0"
       inkscape:collect="always" />
    <radialGradient
       r="149.79257"
       fy="343.32144"
       fx="187.84256"
       cy="343.32144"
       cx="187.84256"
       gradientTransform="matrix(0.224587,0.000000,0.000000,0.213310,-2.651524,2.197178)"
       gradientUnits="userSpaceOnUse"
       id="radialGradient1354"
       xlink:href="#light100to0"
       inkscape:collect="always" />
  </defs>
  <sodipodi:namedview
     inkscape:window-y="25"
     inkscape:window-x="0"
     inkscape:window-height="907"
     inkscape:window-width="1280"
     gridoriginx="0.0000000pt"
     gridoriginy="0.0000000pt"
     gridspacingx="1.0000000pt"
     gridspacingy="1.0000000pt"
     inkscape:grid-bbox="true"
     showgrid="false"
     inkscape:current-layer="layer1"
     inkscape:cy="38.267515"
     inkscape:cx="40.000000"
     inkscape:zoom="9.3500000"
     inkscape:pageshadow="2"
     inkscape:pageopacity="0.0"
     borderopacity="1.0"
     bordercolor="#666666"
     pagecolor="#ffffff"
     id="base" />
  <metadata
     id="metadata4">
    <rdf:RDF
       id="RDF5">
      <cc:Work
         id="Work6"
         rdf:about="">
        <dc:format
           id="format7">image/svg+xml</dc:format>
        <dc:type
           rdf:resource="http://purl.org/dc/dcmitype/StillImage"
           id="type9" />
      </cc:Work>
    </rdf:RDF>
  </metadata>
  <g
     inkscape:groupmode="layer"
     inkscape:label="Layer 1"
     id="layer1">
    <path
       id="path6676"
       d="M 64.237759,-4.4375762e-05 C 63.020835,-0.16274771 61.762144,-0.13561329 60.517539,0.10661572 C 55.539117,1.0755550 52.415998,4.9108090 50.348931,8.9593938 C 48.164558,13.237740 46.773936,18.427071 45.920097,24.034004 C 44.080796,24.161509 42.256150,24.307850 40.392911,24.318429 C 38.300737,24.330310 36.215597,24.204241 34.157110,24.069556 C 33.317835,18.671837 31.950108,13.675110 29.905430,9.5282471 C 27.899996,5.4609926 24.886447,1.5802643 19.913976,0.53325550 C 14.941505,-0.51375296 10.091177,2.0426396 6.1314400,6.1151282 C 2.1468558,10.213182 -0.26301530,15.121704 0.78140641,20.087588 C 1.8258282,25.053470 5.6588166,28.185675 9.7099403,30.255834 C 13.704473,32.297072 18.472532,33.692765 23.634197,34.557787 C 23.751131,36.497645 23.852945,38.459256 23.846783,40.424085 C 23.841527,42.099052 23.729948,43.742733 23.634197,45.401552 C 18.468400,46.270078 13.681302,47.668522 9.6745096,49.739059 C 5.6110257,51.838888 1.8073657,55.019677 0.74597725,59.978417 C -0.31541332,64.937156 1.9851560,69.926431 5.9188559,74.128641 C 9.8134089,78.289038 14.586551,80.984655 19.595100,80.066047 C 24.603649,79.147440 27.693026,75.279179 29.728275,71.248821 C 31.913960,66.920565 33.296696,61.636237 34.157110,55.925336 C 36.209855,55.792999 38.270918,55.661126 40.357479,55.676464 C 42.264872,55.690480 44.145088,55.823646 46.026389,55.960891 C 46.914064,61.420380 48.332440,66.455824 50.455223,70.644413 C 52.515131,74.708942 55.580223,78.553737 60.517539,79.639406 C 65.454850,80.725074 70.363901,78.280052 74.370936,74.270853 C 78.392764,70.246856 80.859038,65.335111 79.862692,60.369504 C 78.866347,55.403890 75.094482,52.251020 71.075883,50.130144 C 66.934199,47.944304 61.929105,46.474363 56.513872,45.543765 C 56.383870,43.614987 56.235850,41.666895 56.230426,39.713021 C 56.225510,37.941872 56.344120,36.202068 56.443012,34.451127 C 61.903533,33.534340 66.935955,32.096869 71.111314,29.900300 C 75.138018,27.781937 78.916155,24.604962 79.898123,19.625394 C 80.880091,14.645823 78.439602,9.7448673 74.406367,5.6884884 C 71.374452,2.6391847 67.888537,0.48805453 64.237759,-4.4375762e-05 z M 62.714239,11.341467 C 62.714501,11.341421 63.699771,11.151163 66.328172,13.794648 C 68.924973,16.406345 68.712763,17.366648 68.702028,17.421089 C 68.691290,17.475527 68.210498,18.497768 65.796711,19.767608 C 63.951538,20.738310 61.151501,21.569074 58.001961,22.291895 C 58.701064,18.993205 59.511064,16.052086 60.482108,14.150182 C 61.712773,11.739779 62.713980,11.341514 62.714239,11.341467 z M 17.575551,11.732555 C 17.461413,11.708526 18.452868,12.152073 19.665960,14.612376 C 20.573770,16.453525 21.338221,19.252488 22.004385,22.363001 C 19.160884,21.706046 16.597765,20.928386 14.882819,20.052033 C 12.451813,18.809773 11.952808,17.792116 11.942074,17.741068 C 11.931336,17.690019 11.753750,16.749773 14.315927,14.114629 C 16.863291,11.494728 17.689688,11.756583 17.575551,11.732555 z M 44.928039,35.588833 C 44.886264,36.979464 44.817855,38.346646 44.821748,39.748573 C 44.826087,41.311908 44.937146,42.856254 44.998900,44.406060 C 43.476274,44.337556 41.965127,44.239590 40.428342,44.228291 C 38.641284,44.215151 36.882061,44.305291 35.113738,44.370504 C 35.157081,43.060493 35.251318,41.779811 35.255462,40.459640 C 35.260565,38.834371 35.169074,37.234502 35.113738,35.624386 C 36.882549,35.691784 38.640023,35.776746 40.428342,35.766602 C 41.942413,35.757998 43.427359,35.652329 44.928039,35.588833 z M 22.075247,57.596344 C 21.359940,61.049658 20.514783,64.096490 19.524240,66.058037 C 18.308363,68.465810 17.377717,68.825426 17.540121,68.795642 C 17.702527,68.765855 16.782720,69.017778 14.245067,66.306908 C 11.708443,63.597131 11.872231,62.556800 11.906642,62.396043 C 11.941053,62.235284 12.485864,61.199814 14.918251,59.942863 C 16.648454,59.048773 19.205231,58.259626 22.075247,57.596344 z M 58.214544,57.774109 C 61.244118,58.492187 63.965878,59.315291 65.761282,60.262841 C 68.178240,61.538429 68.657614,62.600148 68.666596,62.644916 C 68.675574,62.689685 68.897298,63.594183 66.328172,66.164695 C 63.785044,68.709197 62.962099,68.440075 62.962255,68.440109 C 62.962408,68.440143 61.876754,67.925854 60.623831,65.453629 C 59.691378,63.613752 58.909092,60.853676 58.214544,57.774109 z "
       style="fill:none;fill-opacity:1.0000000;fill-rule:evenodd;stroke:#000000;stroke-width:0.97888172;stroke-linecap:butt;stroke-linejoin:miter;stroke-miterlimit:4.0000000;stroke-opacity:0.077868827" />
    <path
       id="path2900"
       d="M 64.237759,-4.4375762e-05 C 63.020835,-0.16274771 61.762144,-0.13561329 60.517539,0.10661572 C 55.539117,1.0755550 52.415998,4.9108090 50.348931,8.9593938 C 48.164558,13.237740 46.773936,18.427071 45.920097,24.034004 C 44.080796,24.161509 42.256150,24.307850 40.392911,24.318429 C 38.300737,24.330310 36.215597,24.204241 34.157110,24.069556 C 33.317835,18.671837 31.950108,13.675110 29.905430,9.5282471 C 27.899996,5.4609926 24.886447,1.5802643 19.913976,0.53325550 C 14.941505,-0.51375296 10.091177,2.0426396 6.1314400,6.1151282 C 2.1468558,10.213182 -0.26301530,15.121704 0.78140641,20.087588 C 1.8258282,25.053470 5.6588166,28.185675 9.7099403,30.255834 C 13.704473,32.297072 18.472532,33.692765 23.634197,34.557787 C 23.751131,36.497645 23.852945,38.459256 23.846783,40.424085 C 23.841527,42.099052 23.729948,43.742733 23.634197,45.401552 C 18.468400,46.270078 13.681302,47.668522 9.6745096,49.739059 C 5.6110257,51.838888 1.8073657,55.019677 0.74597725,59.978417 C -0.31541332,64.937156 1.9851560,69.926431 5.9188559,74.128641 C 9.8134089,78.289038 14.586551,80.984655 19.595100,80.066047 C 24.603649,79.147440 27.693026,75.279179 29.728275,71.248821 C 31.913960,66.920565 33.296696,61.636237 34.157110,55.925336 C 36.209855,55.792999 38.270918,55.661126 40.357479,55.676464 C 42.264872,55.690480 44.145088,55.823646 46.026389,55.960891 C 46.914064,61.420380 48.332440,66.455824 50.455223,70.644413 C 52.515131,74.708942 55.580223,78.553737 60.517539,79.639406 C 65.454850,80.725074 70.363901,78.280052 74.370936,74.270853 C 78.392764,70.246856 80.859038,65.335111 79.862692,60.369504 C 78.866347,55.403890 75.094482,52.251020 71.075883,50.130144 C 66.934199,47.944304 61.929105,46.474363 56.513872,45.543765 C 56.383870,43.614987 56.235850,41.666895 56.230426,39.713021 C 56.225510,37.941872 56.344120,36.202068 56.443012,34.451127 C 61.903533,33.534340 66.935955,32.096869 71.111314,29.900300 C 75.138018,27.781937 78.916155,24.604962 79.898123,19.625394 C 80.880091,14.645823 78.439602,9.7448673 74.406367,5.6884884 C 71.374452,2.6391847 67.888537,0.48805453 64.237759,-4.4375762e-05 z M 62.714239,11.341467 C 62.714501,11.341421 63.699771,11.151163 66.328172,13.794648 C 68.924973,16.406345 68.712763,17.366648 68.702028,17.421089 C 68.691290,17.475527 68.210498,18.497768 65.796711,19.767608 C 63.951538,20.738310 61.151501,21.569074 58.001961,22.291895 C 58.701064,18.993205 59.511064,16.052086 60.482108,14.150182 C 61.712773,11.739779 62.713980,11.341514 62.714239,11.341467 z M 17.575551,11.732555 C 17.461413,11.708526 18.452868,12.152073 19.665960,14.612376 C 20.573770,16.453525 21.338221,19.252488 22.004385,22.363001 C 19.160884,21.706046 16.597765,20.928386 14.882819,20.052033 C 12.451813,18.809773 11.952808,17.792116 11.942074,17.741068 C 11.931336,17.690019 11.753750,16.749773 14.315927,14.114629 C 16.863291,11.494728 17.689688,11.756583 17.575551,11.732555 z M 44.928039,35.588833 C 44.886264,36.979464 44.817855,38.346646 44.821748,39.748573 C 44.826087,41.311908 44.937146,42.856254 44.998900,44.406060 C 43.476274,44.337556 41.965127,44.239590 40.428342,44.228291 C 38.641284,44.215151 36.882061,44.305291 35.113738,44.370504 C 35.157081,43.060493 35.251318,41.779811 35.255462,40.459640 C 35.260565,38.834371 35.169074,37.234502 35.113738,35.624386 C 36.882549,35.691784 38.640023,35.776746 40.428342,35.766602 C 41.942413,35.757998 43.427359,35.652329 44.928039,35.588833 z M 22.075247,57.596344 C 21.359940,61.049658 20.514783,64.096490 19.524240,66.058037 C 18.308363,68.465810 17.377717,68.825426 17.540121,68.795642 C 17.702527,68.765855 16.782720,69.017778 14.245067,66.306908 C 11.708443,63.597131 11.872231,62.556800 11.906642,62.396043 C 11.941053,62.235284 12.485864,61.199814 14.918251,59.942863 C 16.648454,59.048773 19.205231,58.259626 22.075247,57.596344 z M 58.214544,57.774109 C 61.244118,58.492187 63.965878,59.315291 65.761282,60.262841 C 68.178240,61.538429 68.657614,62.600148 68.666596,62.644916 C 68.675574,62.689685 68.897298,63.594183 66.328172,66.164695 C 63.785044,68.709197 62.962099,68.440075 62.962255,68.440109 C 62.962408,68.440143 61.876754,67.925854 60.623831,65.453629 C 59.691378,63.613752 58.909092,60.853676 58.214544,57.774109 z "
       style="stroke-opacity:1.0000000;stroke-miterlimit:4.0000000;stroke-linejoin:miter;stroke-linecap:butt;stroke-width:6.6875000;stroke:none;fill-rule:evenodd;fill-opacity:1.0000000;fill:#0000ca" />
    <path
       sodipodi:nodetypes="ccccccccccccccccccccccccccccccccccccccccccccccccccccccccccccccccccccccc"
       id="path4170"
       d="M 64.536441,3.6327551 C 63.319517,3.4795900 62.060825,3.5051340 60.816220,3.7331631 C 55.837801,4.6453023 52.714680,8.2557299 50.647613,12.066981 C 48.463240,16.094527 47.072618,20.979652 46.218779,26.257903 C 44.379478,26.377933 42.554833,26.515695 40.691592,26.525654 C 38.599419,26.536839 36.514280,26.418161 34.455792,26.291372 C 33.616517,21.210071 32.248789,16.506257 30.204112,12.602488 C 28.198678,8.7736613 25.185129,5.1204243 20.212657,4.1347932 C 15.240187,3.1491603 10.389859,5.5556945 6.4301224,9.3894509 C 2.4455384,13.247272 0.035667364,17.868050 1.0800894,22.542830 C 2.1245104,27.217605 5.9574994,30.166197 10.008622,32.115003 C 14.003155,34.036581 18.771213,35.350457 23.932879,36.164771 C 24.049812,37.990910 24.151627,39.837532 24.145465,41.687180 C 24.140209,43.263956 24.028630,44.811285 23.932879,46.372861 C 18.767082,47.190473 13.979984,48.506940 9.9731924,50.456099 C 5.9097084,52.432835 2.1060484,55.427163 1.0446594,60.095215 C -0.016730636,64.763267 2.8547234,69.025939 6.7884234,72.981813 C 10.682976,76.898321 14.085994,79.435917 19.094543,78.571160 C 24.103092,77.706402 27.192469,74.064903 29.227718,70.270810 C 31.413403,66.196281 32.453607,60.244939 33.314021,54.868818 C 35.366766,54.744238 38.112893,54.511563 40.199453,54.526002 C 42.106846,54.539197 44.786301,54.881620 46.667603,55.010819 C 47.555278,60.150267 49.087829,65.650251 51.210613,69.593302 C 53.270520,73.419561 56.335614,77.038972 61.272928,78.060998 C 66.210240,79.083023 70.205875,77.106926 74.212911,73.332749 C 78.234739,69.544643 80.586835,65.354960 79.590489,60.680440 C 78.594144,56.005917 75.393164,52.820807 71.374566,50.824260 C 67.232880,48.766555 62.227787,47.382784 56.812555,46.506738 C 56.682553,44.691028 56.534532,42.857134 56.529108,41.017798 C 56.524192,39.350475 56.642803,37.712661 56.741695,36.064361 C 62.202216,35.201319 67.234638,33.848115 71.409996,31.780310 C 75.436700,29.786128 79.214837,26.795389 80.196805,22.107730 C 81.178772,17.420067 78.738284,12.806410 74.705049,8.9878203 C 71.673134,6.1172708 68.187219,4.0922408 64.536441,3.6327551 z M 63.012922,14.309415 C 63.013183,14.309373 63.998452,14.130266 66.626854,16.618788 C 69.223655,19.077384 69.011445,19.981393 69.000710,20.032643 C 68.989973,20.083891 68.509179,21.046206 66.095393,22.241606 C 64.250219,23.155405 61.450183,23.937468 58.300643,24.617917 C 58.999747,21.512602 59.809746,18.743893 60.780791,16.953481 C 62.011455,14.684378 63.012662,14.309458 63.012922,14.309415 z M 17.874233,14.677576 C 17.760094,14.654957 18.751551,15.072502 19.964642,17.388580 C 20.872452,19.121798 21.636903,21.756683 22.303068,24.684855 C 19.459566,24.066411 16.896447,23.334339 15.181501,22.509361 C 12.750496,21.339922 12.251490,20.381920 12.240755,20.333865 C 12.230019,20.285807 12.052432,19.400679 14.614609,16.920012 C 17.161973,14.453690 17.988369,14.700198 17.874233,14.677576 z M 45.226721,37.135375 C 45.184945,38.444486 45.116536,39.731521 45.120430,41.051267 C 45.124768,42.522957 45.235827,43.976771 45.297582,45.435726 C 43.774957,45.371240 42.263809,45.279016 40.727024,45.268378 C 38.939966,45.256010 37.180743,45.340866 35.412421,45.402256 C 35.455763,44.169039 35.550001,42.963432 35.554144,41.720650 C 35.559247,40.190655 35.467756,38.684573 35.412421,37.168844 C 37.181231,37.232289 38.938705,37.312272 40.727024,37.302722 C 42.241096,37.294622 43.726041,37.195149 45.226721,37.135375 z M 22.373929,57.852782 C 21.658621,61.103657 20.813465,63.971883 19.822922,65.818441 C 18.607044,68.085068 17.676399,68.423602 17.838802,68.395566 C 18.001209,68.367523 17.081403,68.604680 14.543749,66.052723 C 12.007124,63.501797 12.170913,62.522450 12.205324,62.371117 C 12.239735,62.219781 12.784545,61.245014 15.216932,60.061745 C 16.947136,59.220067 19.503913,58.477182 22.373929,57.852782 z M 58.513226,58.020127 C 61.542800,58.696109 64.264561,59.470963 66.059963,60.362967 C 68.476923,61.563777 68.956295,62.563259 68.965278,62.605403 C 68.974257,62.647546 69.195980,63.499022 66.626854,65.918846 C 64.083725,68.314188 63.260782,68.060844 63.260937,68.060873 C 63.261091,68.060906 62.175436,67.576765 60.922513,65.249466 C 59.990059,63.517442 59.207775,60.919167 58.513226,58.020127 z "
       style="stroke-opacity:1.0000000;stroke-miterlimit:4.0000000;stroke-linejoin:miter;stroke-linecap:butt;stroke-width:0.0000000;stroke:#000000;fill-rule:evenodd;fill-opacity:1.0;fill:url(#radialGradient1354)" />
    <path
       sodipodi:nodetypes="ccccc"
       id="path4158"
       d="M 25.668472,6.4931634 C 25.668472,9.5088505 22.444010,10.172462 17.435703,8.1655730 C 13.586939,9.9494750 9.2029310,9.5088505 9.2029310,6.4931634 C 9.2029310,3.4774758 12.891213,1.0299614 17.435703,1.0299614 C 21.980192,1.0299614 25.668472,3.4774758 25.668472,6.4931634 z "
       style="fill:url(#linearGradient1351);fill-opacity:1.0000000;stroke:none;stroke-width:6.6875000;stroke-linecap:butt;stroke-linejoin:round;stroke-miterlimit:4.0000000;stroke-dashoffset:0.0000000;stroke-opacity:1.0000000" />
    <path
       sodipodi:nodetypes="ccccc"
       id="path4172"
       d="M 71.144737,6.2966266 C 71.144737,9.3123144 67.920276,9.9759261 62.911968,7.9690348 C 59.063205,9.7529378 54.679197,9.3123144 54.679197,6.2966266 C 54.679197,3.2809389 58.367479,0.83342449 62.911968,0.83342449 C 67.456458,0.83342449 71.144737,3.2809389 71.144737,6.2966266 z "
       style="fill:url(#linearGradient1348);fill-opacity:1.0000000;stroke:none;stroke-width:6.6875000;stroke-linecap:butt;stroke-linejoin:round;stroke-miterlimit:4.0000000;stroke-dashoffset:0.0000000;stroke-opacity:1.0000000" />
    <path
       sodipodi:nodetypes="cccccccccccccc"
       id="path4795"
       d="M 34.157110,24.069556 C 33.317835,18.671837 31.950108,13.675110 29.905430,9.5282471 C 27.899996,5.4609926 24.886447,1.5802643 19.913976,0.53325550 C 14.941505,-0.51375296 10.091177,2.0426396 6.1314400,6.1151282 C 2.1468558,10.213182 -0.26301530,15.121704 0.78140641,20.087588 C 1.8258282,25.053470 5.6588166,28.185675 9.7099403,30.255834 C 13.704473,32.297072 36.215597,24.204241 34.157110,24.069556 z M 17.575551,11.732555 C 17.461413,11.708526 18.452868,12.152073 19.665960,14.612376 C 20.573770,16.453525 21.338221,19.252488 22.004385,22.363001 C 19.160884,21.706046 16.597765,20.928386 14.882819,20.052033 C 12.451813,18.809773 11.952808,17.792116 11.942074,17.741068 C 11.931336,17.690019 11.753750,16.749773 14.315927,14.114629 C 16.863291,11.494728 17.689688,11.756583 17.575551,11.732555 z "
       style="fill:url(#radialGradient1345);fill-opacity:1.0;fill-rule:evenodd;stroke:none;stroke-width:6.6875000;stroke-linecap:butt;stroke-linejoin:miter;stroke-miterlimit:4.0000000;stroke-opacity:1.0000000" />
    <path
       sodipodi:nodetypes="cccccccccccccc"
       id="path5418"
       d="M 46.734660,23.676483 C 47.573934,18.278763 48.941661,13.282037 50.986338,9.1351740 C 52.991773,5.0679190 56.005322,1.1871907 60.977792,0.14018190 C 65.950267,-0.90682656 70.800595,1.6495663 74.760332,5.7220546 C 78.744916,9.8201077 81.154787,14.728629 80.110365,19.694514 C 79.065944,24.660396 75.232955,27.792602 71.181831,29.862760 C 67.187298,31.903999 44.676172,23.811167 46.734660,23.676483 z M 63.316218,11.339481 C 63.430356,11.315451 62.438901,11.758999 61.225808,14.219301 C 60.317999,16.060452 59.553548,18.859415 58.887384,21.969928 C 61.730885,21.312971 64.294004,20.535315 66.008952,19.658960 C 68.439958,18.416699 68.938964,17.399043 68.949699,17.347994 C 68.960436,17.296946 69.138021,16.356699 66.575844,13.721555 C 64.028478,11.101654 63.202081,11.363510 63.316218,11.339481 z "
       style="fill:url(#radialGradient1342);fill-opacity:1.0;fill-rule:evenodd;stroke:none;stroke-width:6.6875000;stroke-linecap:butt;stroke-linejoin:miter;stroke-miterlimit:4.0000000;stroke-opacity:1.0000000" />
    <path
       sodipodi:nodetypes="czzzz"
       id="path5423"
       d="M 10.063103,50.418830 C 12.704933,48.855412 17.875819,47.647829 18.868618,48.333224 C 19.861420,49.018620 14.482266,52.389463 10.809333,53.845181 C 7.1128399,55.310240 6.4373420,55.060423 6.4811980,54.292098 C 6.5250537,53.523773 7.2761564,52.068128 10.063103,50.418830 z "
       style="stroke-opacity:1.0000000;stroke-linejoin:miter;stroke-linecap:butt;stroke-width:0.25000000pt;stroke:none;fill-rule:evenodd;fill-opacity:1.0;fill:url(#linearGradient1339)" />
    <path
       sodipodi:nodetypes="czzzz"
       id="path6049"
       d="M 72.090947,51.471958 C 69.407720,49.817779 64.155812,48.540093 63.147455,49.265278 C 62.139100,49.990462 67.602537,53.556991 71.333023,55.097219 C 75.087441,56.647328 75.773523,56.383007 75.728979,55.570081 C 75.684437,54.757152 74.921565,53.217003 72.090947,51.471958 z "
       style="stroke-opacity:1.0000000;stroke-linejoin:miter;stroke-linecap:butt;stroke-width:0.25000000pt;stroke:none;fill-rule:evenodd;fill-opacity:1.0;fill:url(#linearGradient1336)" />
    <path
       sodipodi:nodetypes="ccccc"
       id="rect8017"
       d="M 34.754912,35.338746 C 36.875781,35.606315 42.866713,35.508396 45.110384,35.338746 C 45.096996,37.201682 45.020788,43.966359 45.329632,45.272155 C 43.627025,45.004588 36.663386,44.985701 34.668584,45.260677 C 34.854628,43.397741 34.904485,37.160313 34.754912,35.338746 z "
       style="fill:#ffffff;fill-opacity:1.0000000;stroke:none;stroke-width:12.687500;stroke-linecap:butt;stroke-linejoin:round;stroke-miterlimit:4.0000000;stroke-dashoffset:0.0000000;stroke-opacity:0.077868827" />
  </g>
</svg>
