<?xml version="1.0" encoding="UTF-8" standalone="no"?>
<!DOCTYPE svg PUBLIC "-//W3C//DTD SVG 20010904//EN"
"http://www.w3.org/TR/2001/REC-SVG-20010904/DTD/svg10.dtd">
<!-- Created with Inkscape (http://www.inkscape.org/) -->
<svg
   width="64pt"
   height="64pt"
   xmlns="http://www.w3.org/2000/svg"
   xmlns:cc="http://web.resource.org/cc/"
   xmlns:inkscape="http://www.inkscape.org/namespaces/inkscape"
   xmlns:sodipodi="http://sodipodi.sourceforge.net/DTD/sodipodi-0.dtd"
   xmlns:rdf="http://www.w3.org/1999/02/22-rdf-syntax-ns#"
   xmlns:dc="http://purl.org/dc/elements/1.1/"
   xmlns:xlink="http://www.w3.org/1999/xlink"
   id="svg1286"
   sodipodi:version="0.32"
   inkscape:version="0.40"
   sodipodi:docbase="/home/rob/documents/documents/icon play/helpwithopenoffice/in process/commandimagelist_inprocess/callouts"
   sodipodi:docname="calloutshapes.line-callout-2.svg">
  <defs
     id="defs3">
    <linearGradient
       inkscape:collect="always"
       xlink:href="#bluedarktoblackblue"
       id="linearGradient9969"
       gradientTransform="matrix(0.225129,0.000000,0.000000,0.188328,-19.37800,-92.84074)"
       x1="87.213951"
       y1="529.22729"
       x2="441.42645"
       y2="883.21759"
       gradientUnits="userSpaceOnUse" />
    <linearGradient
       inkscape:collect="always"
       xlink:href="#bluelignonlinblu"
       id="linearGradient9973"
       gradientTransform="matrix(0.225129,0.000000,0.000000,0.188328,-19.37800,-92.84074)"
       x1="86.075050"
       y1="706.90283"
       x2="441.42667"
       y2="706.90283"
       gradientUnits="userSpaceOnUse" />
    <linearGradient
       inkscape:collect="always"
       xlink:href="#bluedarktoblackblue"
       id="linearGradient9961"
       gradientTransform="matrix(0.225129,0.000000,0.000000,0.188328,-18.82156,-30.11139)"
       x1="85.881668"
       y1="193.07571"
       x2="437.81659"
       y2="549.78870"
       gradientUnits="userSpaceOnUse" />
    <linearGradient
       inkscape:collect="always"
       xlink:href="#bluelignonlinblu"
       id="linearGradient9965"
       gradientTransform="matrix(0.225129,0.000000,0.000000,0.188328,-18.82156,-30.11139)"
       x1="83.603775"
       y1="195.96475"
       x2="437.75504"
       y2="548.42719"
       gradientUnits="userSpaceOnUse" />
    <linearGradient
       inkscape:collect="always"
       xlink:href="#bluedarktoblackblue"
       id="linearGradient9986"
       gradientUnits="userSpaceOnUse"
       gradientTransform="scale(1.000271,0.999729)"
       x1="269.39359"
       y1="-150.92255"
       x2="792.95404"
       y2="473.33203" />
    <linearGradient
       inkscape:collect="always"
       xlink:href="#bluelignonlinblu"
       id="linearGradient9985"
       gradientUnits="userSpaceOnUse"
       gradientTransform="scale(1.000271,0.999729)"
       x1="293.02158"
       y1="431.94623"
       x2="332.65549"
       y2="472.82318" />
    <linearGradient
       inkscape:collect="always"
       xlink:href="#bluedarktoblackblue"
       id="linearGradient9984"
       gradientUnits="userSpaceOnUse"
       gradientTransform="scale(1.000271,0.999729)"
       x1="275.28363"
       y1="-150.92255"
       x2="798.84406"
       y2="473.33203" />
    <linearGradient
       inkscape:collect="always"
       xlink:href="#bluelignonlinblu"
       id="linearGradient9983"
       gradientUnits="userSpaceOnUse"
       gradientTransform="scale(1.000293,0.999707)"
       x1="317.01697"
       y1="375.70377"
       x2="380.71329"
       y2="440.20999" />
    <linearGradient
       inkscape:collect="always"
       xlink:href="#bluedarktoblackblue"
       id="linearGradient9982"
       gradientUnits="userSpaceOnUse"
       gradientTransform="scale(1.000271,0.999729)"
       x1="275.28363"
       y1="-150.92255"
       x2="798.84406"
       y2="473.33203" />
    <linearGradient
       inkscape:collect="always"
       xlink:href="#bluelignonlinblu"
       id="linearGradient9981"
       gradientUnits="userSpaceOnUse"
       gradientTransform="scale(1.000305,0.999695)"
       x1="342.72260"
       y1="299.15649"
       x2="433.83344"
       y2="389.70264" />
    <radialGradient
       cx="38.797401"
       cy="112.96090"
       r="67.358803"
       fx="38.797401"
       fy="112.96090"
       id="bluedarktoblackblue"
       gradientUnits="userSpaceOnUse">
      <stop
         style="stop-color:#0356fe;stop-opacity:1.0000000;"
         offset="0.0000000"
         id="stop2959" />
      <stop
         style="stop-color:#032442;stop-opacity:1.0000000;"
         offset="1.0000000"
         id="stop2960" />
    </radialGradient>
    <linearGradient
       inkscape:collect="always"
       xlink:href="#bluedarktoblackblue"
       id="linearGradient9980"
       gradientUnits="userSpaceOnUse"
       gradientTransform="scale(1.000271,0.999729)"
       x1="254.35632"
       y1="54.892040"
       x2="303.99649"
       y2="114.07928" />
    <radialGradient
       cx="38.797401"
       cy="112.96090"
       r="67.358803"
       fx="38.797401"
       fy="112.96090"
       id="bluelignonlinblu"
       gradientUnits="userSpaceOnUse">
      <stop
         style="stop-color:#d9ffff;stop-opacity:1.0000000;"
         offset="0.0055999998"
         id="stop84" />
      <stop
         style="stop-color:#95d9ff;stop-opacity:1.0000000;"
         offset="0.13480000"
         id="stop86" />
      <stop
         style="stop-color:#68b9ff;stop-opacity:1.0000000;"
         offset="0.32049999"
         id="stop88" />
      <stop
         style="stop-color:#3293fe;stop-opacity:1.0000000;"
         offset="0.56800002"
         id="stop90" />
      <stop
         style="stop-color:#107bfe;stop-opacity:1.0000000;"
         offset="0.75340003"
         id="stop92" />
      <stop
         style="stop-color:#0372fe;stop-opacity:1.0000000;"
         offset="0.85390002"
         id="stop94" />
      <stop
         style="stop-color:#0356fe;stop-opacity:1.0000000;"
         offset="1.0000000"
         id="stop96" />
    </radialGradient>
    <linearGradient
       inkscape:collect="always"
       xlink:href="#bluelignonlinblu"
       id="linearGradient9979"
       gradientUnits="userSpaceOnUse"
       gradientTransform="scale(1.017393,0.982904)"
       x1="250.69978"
       y1="55.571815"
       x2="298.56024"
       y2="104.08536" />
  </defs>
  <sodipodi:namedview
     id="base"
     pagecolor="#ffffff"
     bordercolor="#666666"
     borderopacity="1.0"
     inkscape:pageopacity="0.0"
     inkscape:pageshadow="2"
     inkscape:zoom="5.5000000"
     inkscape:cx="32.000000"
     inkscape:cy="32.000000"
     inkscape:current-layer="layer1"
     showgrid="true"
     inkscape:grid-bbox="true"
     gridspacingy="1.0000000pt"
     gridspacingx="1.0000000pt"
     gridoriginy="0.0000000pt"
     gridoriginx="0.0000000pt"
     inkscape:window-width="733"
     inkscape:window-height="590"
     inkscape:window-x="281"
     inkscape:window-y="174" />
  <metadata
     id="metadata4">
    <rdf:RDF
       id="RDF5">
      <cc:Work
         rdf:about=""
         id="Work6">
        <dc:format
           id="format7">image/svg+xml</dc:format>
        <dc:type
           id="type9"
           rdf:resource="http://purl.org/dc/dcmitype/StillImage" />
      </cc:Work>
    </rdf:RDF>
  </metadata>
  <g
     id="layer1"
     inkscape:label="Layer 1"
     inkscape:groupmode="layer">
    <g
       id="g9974"
       transform="matrix(0.203789,0.000000,0.000000,0.203789,-76.33385,226.2360)">
      <path
         style="fill:url(#linearGradient9979);fill-opacity:1.0000000;fill-rule:evenodd;stroke:url(#linearGradient9980);stroke-width:2.7017274;stroke-linecap:round;stroke-linejoin:round;stroke-miterlimit:4.0000000;stroke-dashoffset:0.0000000;stroke-opacity:1.0000000"
         d="M 284.15350,54.634833 C 283.54486,54.678613 282.93668,54.855723 282.37280,55.180003 C 281.02827,55.953213 280.29287,57.361673 280.28989,58.809543 C 278.80025,56.235393 275.50394,55.346753 272.92413,56.830333 C 271.57920,57.603773 270.69845,58.872863 270.36715,60.273213 C 268.06131,59.154233 265.26173,59.157863 262.87399,60.530993 C 259.25550,62.611893 257.87755,67.095653 259.59111,70.815193 C 258.99211,70.956973 258.40368,71.183123 257.84300,71.505553 C 254.72424,73.299073 253.64953,77.284363 255.44305,80.403123 C 256.16790,81.663553 257.25265,82.584593 258.49187,83.123063 C 256.52699,85.003473 256.01208,88.044113 257.42819,90.506593 C 258.32960,92.074053 259.82861,93.081903 261.47254,93.416153 C 261.51031,94.534533 261.80947,95.659023 262.40586,96.696083 C 264.35311,100.08216 268.68177,101.25068 272.06786,99.303423 L 272.63673,98.938993 C 273.09182,98.615873 273.49706,98.248833 273.85152,97.848643 C 273.97123,98.153313 274.10716,98.454163 274.27521,98.746403 C 276.11998,101.95427 280.21972,103.05926 283.42759,101.21449 L 283.96684,100.87079 C 285.56001,99.739643 286.51907,98.047863 286.74603,96.248683 C 288.86679,96.995093 291.28730,96.849833 293.38884,95.641293 L 294.03179,95.229443 C 296.39242,93.553393 297.58308,90.849433 297.38875,88.145163 C 297.71889,87.997503 298.04628,87.831553 298.36651,87.647403 L 299.22575,87.096303 C 303.75201,83.882643 305.07745,77.840603 302.31012,73.028473 C 302.13024,72.715693 301.93794,72.415223 301.73235,72.127763 C 302.99101,69.621273 302.94937,66.617823 301.37384,64.042023 C 300.47265,62.568673 299.18021,61.442713 297.69393,60.696913 C 297.88780,59.578383 297.71748,58.392143 297.10728,57.331063 C 295.72370,54.925163 292.64815,54.095683 290.24225,55.479253 C 289.43560,55.943133 288.80982,56.599503 288.38155,57.354763 C 288.30127,57.140943 288.21175,56.928163 288.09415,56.723673 C 287.37354,55.470593 286.10257,54.732123 284.76089,54.634833 C 284.55964,54.620233 284.35638,54.620233 284.15350,54.634833 z "
         id="path1905"
         transform="matrix(7.601653,0.000000,0.000000,6.335946,-2335.962,-697.6265)" />
      <path
         sodipodi:type="arc"
         style="fill:url(#linearGradient9981);fill-opacity:1.0000000;fill-rule:evenodd;stroke:url(#linearGradient9982);stroke-width:18.996950;stroke-linecap:round;stroke-linejoin:round;stroke-miterlimit:4.0000000;stroke-dashoffset:0.0000000;stroke-opacity:1.0000000"
         id="path2538"
         sodipodi:cx="387.89859"
         sodipodi:cy="344.32452"
         sodipodi:rx="42.226933"
         sodipodi:ry="42.226933"
         d="M 408.94957,380.93013 A 42.226933,42.226933 0 1 1 412.34474,378.75561"
         sodipodi:start="1.0489055"
         sodipodi:end="7.2365742"
         sodipodi:open="true"
         transform="matrix(0.720733,0.000000,0.000000,0.600728,-600.3693,-259.2889)" />
      <path
         sodipodi:type="arc"
         style="fill:url(#linearGradient9983);fill-opacity:1.0000000;fill-rule:evenodd;stroke:url(#linearGradient9984);stroke-width:18.996950;stroke-linecap:round;stroke-linejoin:round;stroke-miterlimit:4.0000000;stroke-dashoffset:0.0000000;stroke-opacity:1.0000000"
         id="path2539"
         sodipodi:cx="348.61771"
         sodipodi:cy="407.17392"
         sodipodi:rx="28.478630"
         sodipodi:ry="28.478630"
         d="M 362.81488,431.86142 A 28.478630,28.478630 0 1 1 365.10465,430.39488"
         sodipodi:start="1.0489055"
         sodipodi:end="7.2365742"
         sodipodi:open="true"
         transform="matrix(0.720733,0.000000,0.000000,0.600728,-600.3693,-259.2889)" />
      <path
         sodipodi:type="arc"
         style="fill:url(#linearGradient9985);fill-opacity:1.0000000;fill-rule:evenodd;stroke:url(#linearGradient9986);stroke-width:18.996950;stroke-linecap:round;stroke-linejoin:round;stroke-miterlimit:4.0000000;stroke-dashoffset:0.0000000;stroke-opacity:1.0000000"
         id="path2540"
         sodipodi:cx="313.26492"
         sodipodi:cy="452.34692"
         sodipodi:rx="16.694368"
         sodipodi:ry="16.694368"
         d="M 321.58740,466.81891 A 16.694368,16.694368 0 1 1 322.92968,465.95921"
         sodipodi:start="1.0489055"
         sodipodi:end="7.2365742"
         sodipodi:open="true"
         transform="matrix(0.720733,0.000000,0.000000,0.600728,-596.1230,-259.2889)" />
    </g>
    <path
       style="fill:none;fill-opacity:0.75000000;fill-rule:evenodd;stroke:#000000;stroke-width:0.25044467pt;stroke-linecap:butt;stroke-linejoin:miter;stroke-opacity:0.0000000;"
       d="M 0.15652792,0.15652793 L 0.15652793,79.843472"
       id="path1610"
       sodipodi:nodetypes="cc" />
    <path
       id="rect1869"
       style="fill:url(#linearGradient9973);fill-opacity:1.0000000;fill-rule:evenodd;stroke:url(#linearGradient9969);stroke-width:3.8607738;stroke-linecap:round;stroke-linejoin:round;stroke-miterlimit:4.0000000;stroke-dashoffset:0.0000000;stroke-opacity:1.0000000"
       d="M 29.029281,8.7577890 L 78.069613,8.7577890 L 78.069613,57.798119 L 29.029281,57.798119 L 29.029281,8.7577890 z M 14.955386,27.107215 L 1.9303869,71.819613 M 28.834745,26.978989 L 15.083644,26.978992"
       sodipodi:nodetypes="ccccccccc" />
  </g>
</svg>
