<?xml version="1.0" encoding="UTF-8" standalone="no"?>
<!DOCTYPE svg PUBLIC "-//W3C//DTD SVG 20010904//EN"
"http://www.w3.org/TR/2001/REC-SVG-20010904/DTD/svg10.dtd">
<!-- Created with Inkscape (http://www.inkscape.org/) -->
<svg
   width="300.00000pt"
   height="300.00000pt"
   xmlns="http://www.w3.org/2000/svg"
   xmlns:cc="http://web.resource.org/cc/"
   xmlns:inkscape="http://www.inkscape.org/namespaces/inkscape"
   xmlns:sodipodi="http://sodipodi.sourceforge.net/DTD/sodipodi-0.dtd"
   xmlns:rdf="http://www.w3.org/1999/02/22-rdf-syntax-ns#"
   xmlns:dc="http://purl.org/dc/elements/1.1/"
   xmlns:xlink="http://www.w3.org/1999/xlink"
   id="svg1978"
   sodipodi:version="0.32"
   inkscape:version="0.40"
   sodipodi:docbase="/home/rob/icon play/helpwithopenoffice/in process/commandimagelist_inprocess/lines and shapes"
   sodipodi:docname="changebezier.svg">
  <defs
     id="defs3">
    <radialGradient
       inkscape:collect="always"
       xlink:href="#light90to0"
       id="radialGradient48556"
       gradientUnits="userSpaceOnUse"
       gradientTransform="scale(0.884934,1.130028)"
       cx="330.11304"
       cy="224.77423"
       fx="328.27005"
       fy="224.28973"
       r="105.02886" />
    <linearGradient
       inkscape:collect="always"
       xlink:href="#light90to0"
       id="linearGradient48555"
       gradientUnits="userSpaceOnUse"
       gradientTransform="scale(0.714810,1.398973)"
       x1="304.64722"
       y1="96.190353"
       x2="299.20441"
       y2="145.69553" />
    <linearGradient
       id="linearGradient5170">
      <stop
         style="stop-color:#8f8fa6;stop-opacity:1.0000000;"
         offset="0.0000000"
         id="stop5171" />
      <stop
         style="stop-color:#fff;stop-opacity:1;"
         offset="1"
         id="stop5172" />
    </linearGradient>
    <linearGradient
       inkscape:collect="always"
       xlink:href="#linearGradient5170"
       id="linearGradient48554"
       gradientUnits="userSpaceOnUse"
       gradientTransform="scale(0.714810,1.398973)"
       x1="149.29594"
       y1="234.90770"
       x2="409.73569"
       y2="154.10789" />
    <radialGradient
       inkscape:collect="always"
       xlink:href="#linearGradient1977"
       id="radialGradient48553"
       gradientUnits="userSpaceOnUse"
       gradientTransform="matrix(3.328888,0.000000,0.000000,2.512552,-898.6635,-2066.740)"
       cx="171.95191"
       cy="537.74375"
       fx="171.95191"
       fy="537.74375"
       r="23.534935" />
    <linearGradient
       inkscape:collect="always"
       xlink:href="#linearGradient1977"
       id="linearGradient48552"
       gradientUnits="userSpaceOnUse"
       gradientTransform="matrix(1.420134,0.000000,0.000000,0.704159,83.03569,-296.1794)"
       x1="41.779896"
       y1="615.31271"
       x2="60.867612"
       y2="663.16483" />
    <linearGradient
       inkscape:collect="always"
       xlink:href="#bluedarktoblackblue"
       id="linearGradient48551"
       gradientUnits="userSpaceOnUse"
       gradientTransform="translate(319.1740,-32.09233)"
       x1="97.402560"
       y1="60.572344"
       x2="198.39225"
       y2="161.92829" />
    <linearGradient
       inkscape:collect="always"
       xlink:href="#bluelignonlinblu"
       id="linearGradient48550"
       gradientUnits="userSpaceOnUse"
       gradientTransform="translate(319.1740,-32.09233)"
       x1="97.116622"
       y1="61.125619"
       x2="198.46415"
       y2="162.00951" />
    <radialGradient
       inkscape:collect="always"
       xlink:href="#linearGradient1977"
       id="radialGradient48549"
       gradientUnits="userSpaceOnUse"
       gradientTransform="matrix(1.148604,0.000000,0.000000,0.870622,21.42854,-245.2865)"
       cx="171.95191"
       cy="537.74375"
       fx="171.95191"
       fy="537.74375"
       r="23.534935" />
    <linearGradient
       inkscape:collect="always"
       xlink:href="#linearGradient1977"
       id="linearGradient48548"
       gradientUnits="userSpaceOnUse"
       gradientTransform="matrix(1.420134,0.000000,0.000000,0.704159,84.43947,-293.3599)"
       x1="41.779896"
       y1="615.31271"
       x2="60.867612"
       y2="663.16483" />
    <linearGradient
       inkscape:collect="always"
       xlink:href="#bluedarktoblackblue"
       id="linearGradient48547"
       gradientUnits="userSpaceOnUse"
       x1="216.42781"
       y1="701.17025"
       x2="223.36393"
       y2="708.07907" />
    <linearGradient
       inkscape:collect="always"
       xlink:href="#bluelignonlinblu"
       id="linearGradient48546"
       gradientUnits="userSpaceOnUse"
       x1="216.38365"
       y1="701.12649"
       x2="223.34301"
       y2="708.08467" />
    <radialGradient
       inkscape:collect="always"
       xlink:href="#linearGradient1977"
       id="radialGradient48545"
       gradientUnits="userSpaceOnUse"
       gradientTransform="matrix(1.148604,0.000000,0.000000,0.870622,21.42854,-245.2865)"
       cx="171.95191"
       cy="537.74375"
       fx="171.95191"
       fy="537.74375"
       r="23.534935" />
    <linearGradient
       id="linearGradient1977">
      <stop
         offset="0.0000000"
         style="stop-color:#ffffff;stop-opacity:0.83529413;"
         id="stop1979" />
      <stop
         offset="1.0000000"
         style="stop-color:#ffffff;stop-opacity:0.0000000;"
         id="stop1978" />
    </linearGradient>
    <linearGradient
       inkscape:collect="always"
       xlink:href="#linearGradient1977"
       id="linearGradient48544"
       gradientUnits="userSpaceOnUse"
       gradientTransform="matrix(1.420134,0.000000,0.000000,0.704159,84.43947,-293.3599)"
       x1="41.779896"
       y1="615.31271"
       x2="60.867612"
       y2="663.16483" />
    <radialGradient
       cx="38.797401"
       cy="112.96090"
       r="67.358803"
       fx="38.797401"
       fy="112.96090"
       id="bluedarktoblackblue"
       gradientUnits="userSpaceOnUse">
      <stop
         style="stop-color:#0356fe;stop-opacity:1.0000000;"
         offset="0.0000000"
         id="stop2959" />
      <stop
         style="stop-color:#032442;stop-opacity:1.0000000;"
         offset="1.0000000"
         id="stop2960" />
    </radialGradient>
    <linearGradient
       inkscape:collect="always"
       xlink:href="#bluedarktoblackblue"
       id="linearGradient48543"
       gradientUnits="userSpaceOnUse"
       x1="216.42781"
       y1="701.17025"
       x2="223.36393"
       y2="708.07907" />
    <radialGradient
       cx="38.797401"
       cy="112.96090"
       r="67.358803"
       fx="38.797401"
       fy="112.96090"
       id="bluelignonlinblu"
       gradientUnits="userSpaceOnUse">
      <stop
         style="stop-color:#d9ffff;stop-opacity:1.0000000;"
         offset="0.0055999998"
         id="stop84" />
      <stop
         style="stop-color:#95d9ff;stop-opacity:1.0000000;"
         offset="0.13480000"
         id="stop86" />
      <stop
         style="stop-color:#68b9ff;stop-opacity:1.0000000;"
         offset="0.32049999"
         id="stop88" />
      <stop
         style="stop-color:#3293fe;stop-opacity:1.0000000;"
         offset="0.56800002"
         id="stop90" />
      <stop
         style="stop-color:#107bfe;stop-opacity:1.0000000;"
         offset="0.75340003"
         id="stop92" />
      <stop
         style="stop-color:#0372fe;stop-opacity:1.0000000;"
         offset="0.85390002"
         id="stop94" />
      <stop
         style="stop-color:#0356fe;stop-opacity:1.0000000;"
         offset="1.0000000"
         id="stop96" />
    </radialGradient>
    <linearGradient
       inkscape:collect="always"
       xlink:href="#bluelignonlinblu"
       id="linearGradient48542"
       gradientUnits="userSpaceOnUse"
       x1="216.38365"
       y1="701.12649"
       x2="223.34301"
       y2="708.08467" />
    <linearGradient
       inkscape:collect="always"
       xlink:href="#light90to0"
       id="linearGradient18528"
       gradientUnits="userSpaceOnUse"
       gradientTransform="scale(1.018770,0.981576)"
       x1="278.15439"
       y1="300.00095"
       x2="328.93796"
       y2="346.25330" />
    <linearGradient
       inkscape:collect="always"
       xlink:href="#graytoblack"
       id="linearGradient18527"
       gradientUnits="userSpaceOnUse"
       gradientTransform="scale(1.018720,0.981624)"
       x1="258.11154"
       y1="259.13287"
       x2="256.32883"
       y2="64.906898" />
    <radialGradient
       inkscape:collect="always"
       xlink:href="#graytoblack"
       id="radialGradient18526"
       gradientUnits="userSpaceOnUse"
       gradientTransform="scale(1.017330,0.982965)"
       cx="256.57788"
       cy="98.022842"
       fx="256.26614"
       fy="97.798195"
       r="65.751129" />
    <linearGradient
       id="light90to0">
      <stop
         style="stop-color:#ffffff;stop-opacity:0.90196079;"
         offset="0.0000000"
         id="stop1890" />
      <stop
         style="stop-color:#ffffff;stop-opacity:0.0000000;"
         offset="1.0000000"
         id="stop1892" />
    </linearGradient>
    <linearGradient
       id="graytoblack">
      <stop
         style="stop-color:#7d7d7d;stop-opacity:1.0000000;"
         offset="0.0000000"
         id="stop5097" />
      <stop
         style="stop-color:#000000;stop-opacity:1.0000000;"
         offset="1.0000000"
         id="stop5098" />
    </linearGradient>
  </defs>
  <sodipodi:namedview
     id="base"
     pagecolor="#ffffff"
     bordercolor="#666666"
     borderopacity="1.0"
     inkscape:pageopacity="0.0"
     inkscape:pageshadow="2"
     inkscape:zoom="0.73666667"
     inkscape:cx="149.99996"
     inkscape:cy="92.407613"
     inkscape:current-layer="layer1"
     showgrid="false"
     inkscape:grid-bbox="false"
     gridspacingy="1.0000000pt"
     gridspacingx="1.0000000pt"
     gridoriginy="0.0000000pt"
     gridoriginx="0.0000000pt"
     inkscape:window-width="710"
     inkscape:window-height="590"
     inkscape:window-x="306"
     inkscape:window-y="125" />
  <metadata
     id="metadata4">
    <rdf:RDF
       id="RDF5">
      <cc:Work
         rdf:about=""
         id="Work6">
        <dc:format
           id="format7">image/svg+xml</dc:format>
        <dc:type
           id="type9"
           rdf:resource="http://purl.org/dc/dcmitype/StillImage" />
      </cc:Work>
    </rdf:RDF>
  </metadata>
  <g
     id="layer1"
     inkscape:label="Layer 1"
     inkscape:groupmode="layer">
    <path
       id="path2028"
       style="fill:none;fill-opacity:0.75000000;fill-rule:evenodd;stroke:#000000;stroke-width:0.25000000pt;stroke-linecap:butt;stroke-linejoin:miter;stroke-opacity:0.0000000;"
       d="M 0.84841629,375.00000 L 375.84842,0.84841629M 375.84842,375.00000 L 0.84841629,0.84841629" />
    <g
       id="g48477"
       transform="matrix(0.903960,0.000000,0.000000,0.903960,518.5936,757.6061)">
      <path
         style="fill:none;fill-opacity:1.0000000;fill-rule:evenodd;stroke:#000000;stroke-width:9.6969269pt;stroke-linecap:round;stroke-linejoin:miter;stroke-opacity:1.0000000"
         d="M -496.12253,-457.89369 C -538.09789,-877.07043 -201.94910,-876.08596 -235.68628,-455.90051"
         id="path45166"
         sodipodi:nodetypes="cc" />
      <path
         style="fill:none;fill-opacity:0.75000000;fill-rule:evenodd;stroke:#0000ff;stroke-width:14.687254;stroke-linecap:butt;stroke-linejoin:miter;stroke-miterlimit:4.0000000;stroke-opacity:1.0000000"
         d="M -233.31864,-765.94055 L -494.17680,-765.49269"
         id="path45167"
         sodipodi:nodetypes="cc" />
      <path
         sodipodi:type="arc"
         style="fill:none;fill-opacity:0.75000000;fill-rule:evenodd;stroke:#0000ff;stroke-width:6.1034856;stroke-linecap:butt;stroke-linejoin:miter;stroke-miterlimit:4.0000000;stroke-opacity:1.0000000"
         id="path45168"
         sodipodi:cx="64.129433"
         sodipodi:cy="61.409752"
         sodipodi:rx="12.724093"
         sodipodi:ry="13.233058"
         d="M 76.853526 61.409752 A 12.724093 13.233058 0 1 1  51.405339,61.409752 A 12.724093 13.233058 0 1 1  76.853526 61.409752 z"
         transform="matrix(1.929321,1.931022,-1.929600,1.930745,-207.8257,-1006.561)" />
      <g
         id="g48472">
        <rect
           style="fill:#000000;fill-opacity:0.29411766;fill-rule:evenodd;stroke:none;stroke-width:0.78108120;stroke-linecap:butt;stroke-linejoin:miter;stroke-miterlimit:4.0000000;stroke-opacity:1.0000000"
           id="rect45177"
           width="87.925003"
           height="87.925003"
           x="101.70287"
           y="109.17641"
           transform="matrix(0.726495,0.000000,0.000000,0.726495,-594.7035,-566.4488)" />
        <rect
           style="fill:url(#linearGradient48542);fill-opacity:1.0000000;fill-rule:evenodd;stroke:url(#linearGradient48543);stroke-width:0.78108120;stroke-linecap:butt;stroke-linejoin:miter;stroke-miterlimit:4.0000000;stroke-opacity:1.0000000"
           id="rect45178"
           width="6.4554243"
           height="6.4554243"
           x="216.68181"
           y="701.42426"
           transform="matrix(8.826780,0.000000,0.000000,8.826780,-2439.235,-6683.905)" />
        <path
           style="font-size:12.000000;fill:url(#linearGradient48544);fill-opacity:0.75000000;fill-rule:evenodd;stroke-width:1.0000000"
           d="M 199.01843,142.58387 C 173.55740,145.61241 147.52362,159.36797 141.35916,172.33527 C 138.39924,175.89777 140.15625,149.28602 140.06303,145.40359 C 139.97130,141.52115 141.41584,141.59201 143.02221,141.34218 C 144.59428,141.09831 224.48021,139.55533 199.01843,142.58387 z "
           id="path45180"
           sodipodi:nodetypes="cczzz"
           transform="matrix(0.658700,0.000000,0.000000,0.655910,-618.1309,-584.1837)" />
        <path
           style="font-size:12.000000;fill:url(#radialGradient48545);fill-opacity:0.75000000;fill-rule:evenodd;stroke-width:1.0000000"
           d="M 225.66516,221.33485 C 225.66291,222.91811 223.97303,225.26128 222.32191,225.25979 L 183.39913,225.22326 L 195.73478,193.19802 L 200.72913,198.11408 L 225.69797,201.96147 L 225.66516,221.33485 z "
           id="path45181"
           sodipodi:nodetypes="czccccz"
           transform="matrix(0.658700,0.000000,0.000000,0.655910,-618.1309,-584.1837)" />
      </g>
      <rect
         style="fill:#000000;fill-opacity:0.29411766;fill-rule:evenodd;stroke:none;stroke-width:0.78108120;stroke-linecap:butt;stroke-linejoin:miter;stroke-miterlimit:4.0000000;stroke-opacity:1.0000000"
         id="rect45183"
         width="87.925003"
         height="87.925003"
         x="101.70287"
         y="109.17641"
         transform="matrix(0.726495,0.000000,0.000000,0.726495,-331.7667,-566.4488)" />
      <rect
         style="fill:url(#linearGradient48546);fill-opacity:1.0000000;fill-rule:evenodd;stroke:url(#linearGradient48547);stroke-width:0.78108120;stroke-linecap:butt;stroke-linejoin:miter;stroke-miterlimit:4.0000000;stroke-opacity:1.0000000"
         id="rect45184"
         width="6.4554243"
         height="6.4554243"
         x="216.68181"
         y="701.42426"
         transform="matrix(8.826780,0.000000,0.000000,8.826780,-2176.298,-6683.905)" />
      <g
         id="g45185"
         transform="matrix(0.658700,0.000000,0.000000,0.655910,-355.1941,-584.1837)">
        <path
           style="font-size:12.000000;fill:url(#linearGradient48548);fill-opacity:0.75000000;fill-rule:evenodd;stroke-width:1.0000000"
           d="M 199.01843,142.58387 C 173.55740,145.61241 147.52362,159.36797 141.35916,172.33527 C 138.39924,175.89777 140.15625,149.28602 140.06303,145.40359 C 139.97130,141.52115 141.41584,141.59201 143.02221,141.34218 C 144.59428,141.09831 224.48021,139.55533 199.01843,142.58387 z "
           id="path45186"
           sodipodi:nodetypes="cczzz" />
        <path
           style="font-size:12.000000;fill:url(#radialGradient48549);fill-opacity:0.75000000;fill-rule:evenodd;stroke-width:1.0000000"
           d="M 225.66516,221.33485 C 225.66291,222.91811 223.97303,225.26128 222.32191,225.25979 L 183.39913,225.22326 L 195.73478,193.19802 L 200.72913,198.11408 L 225.69797,201.96147 L 225.66516,221.33485 z "
           id="path45187"
           sodipodi:nodetypes="czccccz" />
      </g>
      <rect
         width="118.28353"
         height="112.31423"
         x="422.54297"
         y="38.516964"
         style="fill:#000000;fill-opacity:0.29411766;fill-rule:evenodd;stroke:none;stroke-width:11.615477;stroke-linecap:butt;stroke-linejoin:miter;stroke-miterlimit:4.0000000;stroke-opacity:0.29411766"
         id="rect1696"
         transform="matrix(1.018864,0.000000,0.000000,1.018864,-838.1101,-843.7528)" />
      <path
         style="fill:#000000;fill-opacity:0.078431375;fill-rule:evenodd;stroke:none;stroke-width:10.432081pt;stroke-linecap:butt;stroke-linejoin:miter;stroke-opacity:1.0000000"
         d="M 161.31250,82.875000 L 156.33203,287.57227 C 156.22135,292.12109 164.89583,297.77604 169.34375,296.05469 L 209.37500,280.56250 C 216.18384,297.16294 243.45263,363.55119 245.15293,367.70206 C 246.85324,371.85294 257.44602,377.46380 263.00731,375.38522 C 268.56860,373.30664 294.74099,363.52935 300.30281,361.45218 C 305.86463,359.37501 309.73317,348.26247 308.06822,344.05007 C 306.40327,339.83766 279.75466,272.44293 273.09375,255.59375 L 305.95312,241.50781 C 309.60417,239.94271 310.42318,230.39844 307.18164,227.19141 L 161.31250,82.875000 z "
         id="path4110"
         transform="matrix(1.018612,-2.265978e-2,2.265978e-2,1.018612,-501.1245,-863.9527)"
         sodipodi:nodetypes="ccccsssscccc" />
      <path
         style="fill:#000000;fill-opacity:0.078431375;fill-rule:evenodd;stroke:none;stroke-width:10.432081pt;stroke-linecap:butt;stroke-linejoin:miter;stroke-opacity:1.0000000"
         d="M 165.06250,92.437500 C 164.23120,126.25499 160.53240,278.43480 160.43050,282.66204 C 160.32859,286.88928 168.70144,292.03519 172.98823,290.37720 C 177.27502,288.71921 202.98882,278.75324 211.56250,275.43750 C 213.26727,279.58763 214.97300,283.73736 216.67937,287.88684 C 218.38575,292.03632 220.09276,296.18554 221.80010,300.33463 C 223.50745,304.48372 225.21512,308.63268 226.92280,312.78162 C 228.63049,316.93057 230.33819,321.07952 232.04559,325.22858 C 233.75299,329.37765 235.46010,333.52683 237.16659,337.67626 C 238.87308,341.82569 240.75925,345.90580 242.28391,350.12543 C 244.18389,355.38382 246.08388,360.64221 247.98387,365.90061 C 249.48925,368.94415 257.10806,373.30641 259.41209,372.44399 C 261.71642,371.58236 264.02075,370.72073 266.32508,369.85910 C 268.62965,368.99811 270.93423,368.13713 273.23880,367.27614 C 275.54356,366.41565 277.84832,365.55516 280.15308,364.69467 C 282.45797,363.83454 284.76286,362.97440 287.06775,362.11426 C 289.37272,361.25433 291.67769,360.39440 293.98266,359.53447 C 296.28765,358.67460 298.59264,357.81473 300.89763,356.95486 C 303.20259,356.09491 305.32160,348.19130 304.07615,345.09945 C 302.38681,340.90563 299.50132,333.35183 297.83867,329.14736 C 296.17603,324.94288 294.51324,320.73847 292.85037,316.53408 C 291.18749,312.32970 289.52453,308.12536 287.86152,303.92103 C 286.19851,299.71670 284.53545,295.51239 282.87240,291.30808 C 281.20934,287.10377 279.54629,282.89945 277.88329,278.69512 C 276.22029,274.49079 274.55734,270.28644 272.89448,266.08205 C 271.23163,261.87766 269.56887,257.67323 267.90625,253.46875 C 274.91642,250.46296 295.94930,241.45113 299.45439,239.94827 C 302.95949,238.44541 303.74980,229.10012 300.39220,225.69648 C 297.03461,222.29284 165.08333,91.651042 165.06250,92.437500 z "
         id="path4107"
         transform="matrix(1.018612,-2.265978e-2,2.265978e-2,1.018612,-501.1245,-863.9527)"
         sodipodi:nodetypes="csscssssssccccccccssssssscssc" />
      <path
         d="M 168.94752,97.285756 L 163.90843,278.06858 C 163.79645,282.08598 171.93596,286.81970 176.11769,285.16917 L 213.75331,270.31434 C 213.75331,270.31434 247.92943,353.32036 249.63824,357.47066 C 251.34705,361.62097 262.72953,366.94739 266.71197,365.46030 C 270.69441,363.97321 286.62416,358.02484 290.60660,356.53775 C 294.58903,355.05066 299.23337,343.68221 297.57310,339.48507 L 262.70742,251.34518 L 292.94492,238.39236 C 296.30464,236.95315 297.43756,228.37521 294.64429,225.52544 L 168.94752,97.285756 z "
         style="fill:#000000;fill-opacity:0.19607843;fill-rule:evenodd;stroke:none;stroke-width:10.432081pt;stroke-linecap:butt;stroke-linejoin:miter;stroke-opacity:1.0000000"
         id="path4047"
         sodipodi:nodetypes="cccccccccccc"
         transform="matrix(1.018612,-2.265978e-2,2.265978e-2,1.018612,-501.1245,-863.9527)" />
      <g
         id="g4809"
         transform="matrix(1.018864,0.000000,0.000000,1.018864,-498.9687,-867.6068)">
        <rect
           width="106.36344"
           height="100.99570"
           x="414.29767"
           y="30.687794"
           style="fill:url(#linearGradient48550);fill-opacity:1.0000000;fill-rule:evenodd;stroke:url(#linearGradient48551);stroke-width:12.540619;stroke-linecap:butt;stroke-linejoin:miter;stroke-miterlimit:4.0000000;stroke-opacity:1.0000000"
           id="rect1698"
           transform="translate(-332.8623,23.41233)" />
        <g
           id="g1699"
           transform="matrix(1.261181,0.000000,0.000000,1.180987,-87.80850,-102.8431)">
          <path
             style="font-size:12.000000;fill:url(#linearGradient48552);fill-opacity:0.75000000;fill-rule:evenodd;stroke-width:1.0000000"
             d="M 197.61465,139.76436 C 172.15362,142.79290 146.11984,156.54846 139.95538,169.51576 C 136.99546,173.07826 138.75247,146.46651 138.65925,142.58408 C 138.56752,138.70164 140.01206,138.77250 141.61843,138.52267 C 143.19050,138.27880 223.07643,136.73582 197.61465,139.76436 z "
             id="path1700"
             sodipodi:nodetypes="cczzz" />
        </g>
        <path
           style="fill:none;fill-opacity:0.75000000;fill-rule:evenodd;stroke:#000000;stroke-width:0.97950449pt;stroke-linecap:butt;stroke-linejoin:miter;stroke-opacity:1.0000000"
           d="M 484.11970,90.988342 C 484.44132,91.043072 484.76296,91.097832 484.11970,90.988342 z "
           id="path4360"
           transform="translate(-332.8623,23.41233)" />
      </g>
      <path
         style="font-size:12.000000;fill:url(#radialGradient48553);fill-opacity:0.75000000;fill-rule:evenodd;stroke-width:1.0000000"
         d="M -306.74432,-720.10474 C -306.75084,-715.53557 -311.64846,-708.77335 -316.43374,-708.77765 L -429.23986,-708.88308 L -393.48864,-801.30560 L -379.01400,-787.11820 L -306.64924,-776.01491 L -306.74432,-720.10474 z "
         id="path48470"
         sodipodi:nodetypes="czccccz" />
      <path
         d="M 164.67230,106.86906 L 159.97380,269.41603 L 206.01000,252.37244 L 245.92353,354.17530 L 276.89648,340.12517 L 237.05000,240.33191 L 278.98820,222.79961 L 164.67230,106.86906 z "
         style="fill:url(#linearGradient48554);fill-opacity:1.0000000;fill-rule:evenodd;stroke:#000000;stroke-width:12.019479pt;stroke-linecap:butt;stroke-linejoin:round;stroke-opacity:1.0000000"
         id="path4041"
         sodipodi:nodetypes="cccccccc"
         transform="matrix(1.018612,-2.265978e-2,2.265978e-2,1.018612,-501.1245,-863.9527)" />
      <path
         style="fill:url(#linearGradient48555);fill-opacity:1.0000000;fill-rule:evenodd;stroke:none;stroke-width:12.019479pt;stroke-linecap:butt;stroke-linejoin:round;stroke-opacity:1.0000000"
         d="M 164.21875,108.34375 C 162.27400,108.89159 162.89002,113.01495 162.78057,114.19975 L 158.21330,268.55978 C 170.25687,256.76712 210.90390,275.08337 194.34400,233.18181 C 163.83289,143.84655 258.78412,192.35820 214.44932,152.81071 L 171.84375,110.62500 C 169.36237,108.39686 167.09592,105.85710 164.21875,108.34375 z "
         id="path4083"
         sodipodi:nodetypes="ccccccc"
         transform="matrix(1.018612,-2.265978e-2,2.265978e-2,1.018612,-501.1245,-863.9527)" />
      <path
         style="fill:url(#radialGradient48556);fill-opacity:1.0000000;fill-rule:evenodd;stroke:none;stroke-width:12.019479pt;stroke-linecap:butt;stroke-linejoin:round;stroke-opacity:1.0000000"
         d="M 171.43981,266.35615 L 206.00000,252.37500 L 245.93750,354.18750 L 276.90625,340.12500 L 237.06250,240.34375 L 279.67910,224.04400 C 241.32802,208.37532 175.18926,245.05706 171.43981,266.35615 z "
         id="path4096"
         sodipodi:nodetypes="ccccccc"
         transform="matrix(1.018612,-2.265978e-2,2.265978e-2,1.018612,-501.1245,-863.9527)" />
      <path
         sodipodi:type="arc"
         style="fill:none;fill-opacity:0.75000000;fill-rule:evenodd;stroke:#0000ff;stroke-width:6.1034856;stroke-linecap:butt;stroke-linejoin:miter;stroke-miterlimit:4.0000000;stroke-opacity:1.0000000"
         id="path48435"
         sodipodi:cx="64.129433"
         sodipodi:cy="61.409752"
         sodipodi:rx="12.724093"
         sodipodi:ry="13.233058"
         d="M 76.853526 61.409752 A 12.724093 13.233058 0 1 1  51.405339,61.409752 A 12.724093 13.233058 0 1 1  76.853526 61.409752 z"
         transform="matrix(1.929321,1.931022,-1.929600,1.930745,-535.1748,-1009.712)" />
    </g>
  </g>
</svg>
