<?xml version="1.0" encoding="UTF-8" standalone="no"?>
<!-- Created with Inkscape (http://www.inkscape.org/) -->
<svg
   xmlns:dc="http://purl.org/dc/elements/1.1/"
   xmlns:cc="http://web.resource.org/cc/"
   xmlns:rdf="http://www.w3.org/1999/02/22-rdf-syntax-ns#"
   xmlns:svg="http://www.w3.org/2000/svg"
   xmlns="http://www.w3.org/2000/svg"
   xmlns:xlink="http://www.w3.org/1999/xlink"
   xmlns:sodipodi="http://inkscape.sourceforge.net/DTD/sodipodi-0.dtd"
   xmlns:inkscape="http://www.inkscape.org/namespaces/inkscape"
   inkscape:export-ydpi="45.000000"
   inkscape:export-xdpi="45.000000"
   inkscape:export-filename="/home/nuno/kdeplayground-artwork/oooicons/crystalsvg/checkbox.png"
   sodipodi:docname="checkbox.svg"
   sodipodi:docbase="/home/nuno/kdeplayground-artwork/oooicons/crystalsvg"
   inkscape:version="0.41"
   sodipodi:version="0.32"
   id="svg7565"
   height="64px"
   width="64px">
  <defs
     id="defs3">
    <linearGradient
       id="graytolightgray">
      <stop
         id="stop5101"
         offset="0.0000000"
         style="stop-color:#d4d3d3;stop-opacity:1.0000000;" />
      <stop
         id="stop5102"
         offset="1.0000000"
         style="stop-color:#ffffff;stop-opacity:1.0000000;" />
    </linearGradient>
    <linearGradient
       gradientUnits="userSpaceOnUse"
       y2="74.369034"
       x2="73.258949"
       y1="92.318138"
       x1="83.408669"
       gradientTransform="matrix(2.063922,0.000000,0.000000,2.074684,-131.0185,-142.7396)"
       id="linearGradient4996"
       xlink:href="#graytolightgray"
       inkscape:collect="always" />
    <linearGradient
       spreadMethod="reflect"
       gradientUnits="userSpaceOnUse"
       y2="93.751755"
       x2="89.250404"
       y1="65.888565"
       x1="66.009613"
       gradientTransform="matrix(2.049554,0.000000,0.000000,2.089229,-129.7179,-142.7396)"
       id="linearGradient3423"
       xlink:href="#graytoblack"
       inkscape:collect="always" />
    <linearGradient
       id="graytoblack">
      <stop
         id="stop5097"
         offset="0.0000000"
         style="stop-color:#7d7d7d;stop-opacity:1.0000000;" />
      <stop
         id="stop5098"
         offset="1.0000000"
         style="stop-color:#000000;stop-opacity:1.0000000;" />
    </linearGradient>
    <radialGradient
       gradientUnits="userSpaceOnUse"
       r="3.2771389"
       fy="78.109543"
       fx="69.874687"
       cy="78.109543"
       cx="69.874687"
       gradientTransform="matrix(2.096110,0.000000,0.000000,2.042827,-129.7180,-142.7396)"
       id="radialGradient4212"
       xlink:href="#graytoblack"
       inkscape:collect="always" />
    <linearGradient
       id="linearGradient5761"
       inkscape:collect="always">
      <stop
         id="stop5763"
         offset="0"
         style="stop-color:#000000;stop-opacity:1;" />
      <stop
         id="stop5765"
         offset="1"
         style="stop-color:#000000;stop-opacity:0;" />
    </linearGradient>
    <linearGradient
       y2="164.02941"
       x2="38.700349"
       y1="164.02941"
       x1="30.033862"
       gradientTransform="matrix(5.059565,0.000000,0.000000,0.903013,-142.2705,-143.2732)"
       gradientUnits="userSpaceOnUse"
       id="linearGradient5785"
       xlink:href="#linearGradient5761"
       inkscape:collect="always" />
    <linearGradient
       y2="168.36269"
       x2="34.379585"
       y1="157.88530"
       x1="34.329636"
       gradientTransform="matrix(5.059565,0.000000,0.000000,0.903013,-142.2705,-143.2732)"
       gradientUnits="userSpaceOnUse"
       id="linearGradient5783"
       xlink:href="#light100to0"
       inkscape:collect="always" />
    <radialGradient
       gradientUnits="userSpaceOnUse"
       r="67.357605"
       fy="9.8876038"
       fx="32.163441"
       cy="9.8876038"
       cx="32.163441"
       gradientTransform="matrix(0.163429,0.000000,0.000000,0.109400,14.69689,15.65777)"
       id="radialGradient11354"
       xlink:href="#light100to0"
       inkscape:collect="always" />
    <linearGradient
       id="light100to0">
      <stop
         id="stop2764"
         offset="0.0000000"
         style="stop-color:#ffffff;stop-opacity:1.0000000;" />
      <stop
         id="stop2765"
         offset="1.0000000"
         style="stop-color:#ffffff;stop-opacity:0.0000000;" />
    </linearGradient>
    <radialGradient
       r="67.357605"
       fy="9.8876038"
       fx="32.163441"
       cy="9.8876038"
       cx="32.163441"
       gradientTransform="matrix(0.163429,0.000000,0.000000,0.109400,38.80322,15.32845)"
       gradientUnits="userSpaceOnUse"
       id="radialGradient6799"
       xlink:href="#light100to0"
       inkscape:collect="always" />
    <linearGradient
       id="light75to0">
      <stop
         id="stop2769"
         offset="0.0000000"
         style="stop-color:#ffffff;stop-opacity:0.72916669;" />
      <stop
         id="stop2770"
         offset="1.0000000"
         style="stop-color:#ffffff;stop-opacity:0.0000000;" />
    </linearGradient>
    <linearGradient
       gradientUnits="userSpaceOnUse"
       y2="86.444351"
       x2="80.537773"
       y1="89.868164"
       x1="80.537773"
       gradientTransform="matrix(2.228889,0.000000,0.000000,2.134982,-145.9500,-142.7396)"
       id="linearGradient7563"
       xlink:href="#light75to0"
       inkscape:collect="always" />
  </defs>
  <sodipodi:namedview
     inkscape:window-y="394"
     inkscape:window-x="638"
     inkscape:window-height="537"
     inkscape:window-width="640"
     inkscape:grid-bbox="true"
     inkscape:document-units="px"
     showgrid="true"
     inkscape:current-layer="layer1"
     inkscape:cy="31.567466"
     inkscape:cx="32.000000"
     inkscape:zoom="5.5000000"
     inkscape:pageshadow="2"
     inkscape:pageopacity="0.0"
     borderopacity="1.0"
     bordercolor="#666666"
     pagecolor="#ffffff"
     id="base" />
  <metadata
     id="metadata4">
    <rdf:RDF
       id="RDF5">
      <cc:Work
         id="Work6"
         rdf:about="">
        <dc:format
           id="format7">image/svg+xml</dc:format>
        <dc:type
           rdf:resource="http://purl.org/dc/dcmitype/StillImage"
           id="type9" />
      </cc:Work>
    </rdf:RDF>
  </metadata>
  <g
     inkscape:groupmode="layer"
     inkscape:label="Layer 1"
     id="layer1">
    <path
       id="rect4229"
       d="M 17.103482,5.0000000 L 47.407693,5.0000000 C 54.383831,5.0000000 60.000000,10.411684 60.000000,17.133821 L 60.000000,48.644402 C 60.000000,55.366539 54.383831,60.778222 47.407693,60.778222 L 17.103482,60.778222 C 10.127344,60.778222 4.5111752,55.366539 4.5111752,48.644402 L 4.5111752,17.133821 C 4.5111752,10.411684 10.127344,5.0000000 17.103482,5.0000000 z "
       style="fill:url(#linearGradient4996);fill-opacity:1.0000000;stroke:#000000;stroke-width:0.0000000;stroke-linecap:round;stroke-linejoin:round;stroke-miterlimit:4.0000000;stroke-dashoffset:0.0000000;stroke-opacity:1.0000000" />
    <path
       id="rect2643"
       d="M 17.850198,4.6942656 L 46.607161,4.6942656 C 53.583298,4.6942656 59.199467,10.105951 59.199467,16.828086 L 59.199467,47.693099 C 59.199467,54.415234 53.583298,59.826921 46.607161,59.826921 L 17.850198,59.826921 C 10.874061,59.826921 5.2578922,54.415234 5.2578922,47.693099 L 5.2578922,16.828086 C 5.2578922,10.105951 10.874061,4.6942656 17.850198,4.6942656 z "
       style="fill:none;fill-opacity:0.0000000;stroke:url(#linearGradient3423);stroke-width:9.6502771;stroke-linecap:round;stroke-linejoin:round;stroke-miterlimit:4.0000000;stroke-dashoffset:0.0000000;stroke-opacity:1.0000000" />
    <path
       id="path4194"
       d="M 19.812659,15.434712 C 18.340534,15.519776 16.982395,16.227420 16.069732,17.378653 C 14.421422,19.455627 14.646789,22.451024 16.585997,24.247252 L 24.846254,32.282214 L 16.456931,40.381975 C 14.444755,42.347516 14.463801,45.571896 16.456931,47.574564 C 18.450056,49.577231 21.672473,49.604907 23.684656,47.639362 L 32.203044,39.345207 L 40.785967,47.639362 C 42.798147,49.604907 46.020565,49.577231 48.013690,47.574564 C 50.006818,45.571896 49.961334,42.347516 47.949157,40.381975 L 39.559835,32.282214 L 47.884624,24.247252 C 49.823834,22.451024 50.049198,19.455627 48.400890,17.378653 C 47.488227,16.227420 46.130087,15.519776 44.657962,15.434712 C 43.185840,15.349644 41.752892,15.886173 40.721432,16.925067 L 32.203044,25.154425 L 23.749188,16.925067 C 22.717728,15.886173 21.284781,15.349644 19.812659,15.434712 z "
       style="fill:url(#radialGradient4212);fill-opacity:1.0000000;fill-rule:evenodd;stroke:none;stroke-width:5.5625000;stroke-linecap:round;stroke-linejoin:miter;stroke-miterlimit:4.0000000;stroke-opacity:1.0000000" />
    <path
       sodipodi:nodetypes="czzzz"
       id="path5001"
       d="M 53.536486,4.8476383 C 53.536486,7.0076034 49.313271,8.9384849 31.612157,8.7606204 C 14.088179,8.5827557 1.0440959,12.854384 6.3222427,6.0926792 C 11.533690,-0.58357992 21.986348,0.93465890 36.749095,0.75679711 C 51.334703,0.57893531 53.536486,2.6876745 53.536486,4.8476383 z "
       style="fill:url(#linearGradient5783);fill-opacity:1.0000000;stroke:url(#linearGradient5785);stroke-width:0.0000000;stroke-linecap:round;stroke-linejoin:round;stroke-miterlimit:4.0000000;stroke-dashoffset:0.0000000;stroke-opacity:1.0000000" />
    <path
       inkscape:export-ydpi="36.000000"
       inkscape:export-xdpi="36.000000"
       inkscape:export-filename="/home/nuno/kdeplayground-artwork/oooicons/crystalsvg/world.png"
       id="path89"
       style="fill:url(#radialGradient11354);fill-opacity:1.0000000"
       d="M 24.056387,18.782923 C 24.056387,20.214394 22.322848,21.374847 20.184310,21.374847 C 18.045935,21.374847 16.312397,20.214474 16.312397,18.782923 C 16.312397,17.351453 18.045873,16.191000 20.184310,16.191000 C 22.322848,16.191078 24.056387,17.351453 24.056387,18.782923 z "
       adobe-blending-mode="screen" />
    <path
       inkscape:export-ydpi="36.000000"
       inkscape:export-xdpi="36.000000"
       inkscape:export-filename="/home/nuno/kdeplayground-artwork/oooicons/crystalsvg/world.png"
       id="path6797"
       style="fill:url(#radialGradient6799);fill-opacity:1.0000000"
       d="M 48.162603,18.453600 C 48.162603,19.885073 46.429063,21.045524 44.290525,21.045524 C 42.152151,21.045524 40.418612,19.885151 40.418612,18.453600 C 40.418612,17.022132 42.152089,15.861679 44.290525,15.861679 C 46.429063,15.861756 48.162603,17.022132 48.162603,18.453600 z "
       adobe-blending-mode="screen" />
    <path
       sodipodi:nodetypes="cccccccccc"
       id="path6801"
       d="M 26.133653,33.268699 L 18.182372,40.813890 C 16.275258,42.644855 15.637361,44.825165 17.526422,46.690714 C 19.415477,48.556264 21.485713,47.758740 23.392829,45.927771 L 32.450365,38.366158 L 41.569064,46.915737 C 43.476179,48.746706 45.546419,48.556264 47.435473,46.690714 C 49.324531,44.825165 48.133506,42.644855 46.226394,40.813890 L 38.275111,33.268699 L 26.133653,33.268699 z "
       style="fill:url(#linearGradient7563);fill-opacity:1.0000000;fill-rule:evenodd;stroke:none;stroke-width:5.5625000;stroke-linecap:round;stroke-linejoin:miter;stroke-miterlimit:4.0000000;stroke-opacity:1.0000000" />
  </g>
</svg>
