<?xml version="1.0" encoding="UTF-8" standalone="no"?>
<!-- Created with Inkscape (http://www.inkscape.org/) -->
<svg
   xmlns:dc="http://purl.org/dc/elements/1.1/"
   xmlns:cc="http://web.resource.org/cc/"
   xmlns:rdf="http://www.w3.org/1999/02/22-rdf-syntax-ns#"
   xmlns:svg="http://www.w3.org/2000/svg"
   xmlns="http://www.w3.org/2000/svg"
   xmlns:xlink="http://www.w3.org/1999/xlink"
   xmlns:sodipodi="http://inkscape.sourceforge.net/DTD/sodipodi-0.dtd"
   xmlns:inkscape="http://www.inkscape.org/namespaces/inkscape"
   sodipodi:docname="choosedesign.svg"
   sodipodi:docbase="/home/pinheiro/kdeplayground-artwork/oooicons/crystalsvg"
   inkscape:version="0.41"
   sodipodi:version="0.32"
   id="svg1498"
   height="64px"
   width="64px">
  <defs
     id="defs3">
    <linearGradient
       inkscape:collect="always"
       xlink:href="#light100to0"
       id="linearGradient1476"
       gradientUnits="userSpaceOnUse"
       gradientTransform="matrix(0.191107,-1.844652e-2,2.450075e-2,0.211777,-2.898336,-6.967518e-2)"
       x1="218.92685"
       y1="35.121998"
       x2="280.95020"
       y2="79.264549" />
    <linearGradient
       inkscape:collect="always"
       xlink:href="#orangetoblackorange"
       id="linearGradient1474"
       gradientUnits="userSpaceOnUse"
       gradientTransform="matrix(0.153100,0.100153,-0.260930,0.510001,55.84237,-23.25748)"
       x1="43.654659"
       y1="80.596657"
       x2="9.2678165"
       y2="41.066280" />
    <linearGradient
       id="orangemoretoyelow">
      <stop
         style="stop-color:#ff7d00;stop-opacity:1.0000000;"
         offset="0.0000000"
         id="stop2671" />
      <stop
         style="stop-color:#ffbe00;stop-opacity:1.0000000;"
         offset="0.74641621"
         id="stop2679" />
      <stop
         style="stop-color:#ffff00;stop-opacity:1.0000000;"
         offset="1.0000000"
         id="stop2672" />
    </linearGradient>
    <linearGradient
       inkscape:collect="always"
       xlink:href="#orangemoretoyelow"
       id="linearGradient1472"
       gradientUnits="userSpaceOnUse"
       gradientTransform="matrix(0.159439,0.104299,-0.250559,0.489731,55.84237,-23.25748)"
       x1="16.766088"
       y1="52.815308"
       x2="50.004551"
       y2="98.569786" />
    <linearGradient
       inkscape:collect="always"
       xlink:href="#light100to0"
       id="linearGradient1470"
       gradientUnits="userSpaceOnUse"
       gradientTransform="matrix(-0.136033,2.704545e-2,3.038762e-2,9.898480e-2,22.32485,-3.350589)"
       x1="52.986801"
       y1="210.48317"
       x2="89.495224"
       y2="374.57034" />
    <linearGradient
       inkscape:collect="always"
       xlink:href="#shadow100to0"
       id="linearGradient1468"
       gradientUnits="userSpaceOnUse"
       gradientTransform="matrix(0.517644,-1.550666,0.136737,1.459439,0.102614,0.644489)"
       x1="66.375343"
       y1="87.974770"
       x2="59.587723"
       y2="94.720879" />
    <linearGradient
       id="shadow100to0">
      <stop
         style="stop-color:#000000;stop-opacity:1.0000000;"
         offset="0.0000000"
         id="stop3425" />
      <stop
         style="stop-color:#000000;stop-opacity:0.0000000;"
         offset="1.0000000"
         id="stop3426" />
    </linearGradient>
    <linearGradient
       inkscape:collect="always"
       xlink:href="#shadow100to0"
       id="linearGradient1466"
       gradientUnits="userSpaceOnUse"
       gradientTransform="matrix(0.937996,-9.181300e-2,9.575825e-2,1.022086,0.102614,0.644489)"
       x1="33.729706"
       y1="25.615492"
       x2="24.315245"
       y2="36.674938" />
    <linearGradient
       inkscape:collect="always"
       id="linearGradient19810">
      <stop
         style="stop-color:#000000;stop-opacity:1;"
         offset="0"
         id="stop19812" />
      <stop
         style="stop-color:#000000;stop-opacity:0;"
         offset="1"
         id="stop19814" />
    </linearGradient>
    <radialGradient
       inkscape:collect="always"
       xlink:href="#linearGradient19810"
       id="radialGradient1464"
       gradientUnits="userSpaceOnUse"
       gradientTransform="matrix(0.277756,0.176791,-4.950479e-2,8.824330e-2,2.137853,1.647160)"
       cx="131.22948"
       cy="19.851015"
       fx="131.31149"
       fy="20.269442"
       r="13.346672" />
    <linearGradient
       id="light100to0">
      <stop
         style="stop-color:#ffffff;stop-opacity:1.0000000;"
         offset="0.0000000"
         id="stop2764" />
      <stop
         style="stop-color:#ffffff;stop-opacity:0.0000000;"
         offset="1.0000000"
         id="stop2765" />
    </linearGradient>
    <linearGradient
       inkscape:collect="always"
       xlink:href="#light100to0"
       id="linearGradient1462"
       gradientUnits="userSpaceOnUse"
       gradientTransform="matrix(0.296338,0.103848,-4.255627e-2,8.797439e-2,24.29433,-7.124291)"
       x1="52.986801"
       y1="210.48317"
       x2="89.495224"
       y2="374.57034" />
    <linearGradient
       id="light90to0">
      <stop
         style="stop-color:#ffffff;stop-opacity:0.90833336;"
         offset="0.0000000"
         id="stop1890" />
      <stop
         style="stop-color:#ffffff;stop-opacity:0.0000000;"
         offset="1.0000000"
         id="stop1892" />
    </linearGradient>
    <radialGradient
       inkscape:collect="always"
       xlink:href="#light90to0"
       id="radialGradient1460"
       gradientUnits="userSpaceOnUse"
       gradientTransform="matrix(0.174129,6.102110e-2,-7.242354e-2,0.149717,24.29433,-7.124291)"
       cx="204.26802"
       cy="261.58957"
       fx="204.26802"
       fy="261.58957"
       r="41.596294" />
    <linearGradient
       id="orangelesstoyelow">
      <stop
         style="stop-color:#ff7d00;stop-opacity:1.0000000;"
         offset="0.0000000"
         id="stop2689" />
      <stop
         style="stop-color:#ffbe00;stop-opacity:1.0000000;"
         offset="0.25358382"
         id="stop2690" />
      <stop
         style="stop-color:#ffff00;stop-opacity:1.0000000;"
         offset="1.0000000"
         id="stop2691" />
    </linearGradient>
    <radialGradient
       inkscape:collect="always"
       xlink:href="#orangelesstoyelow"
       id="radialGradient1458"
       gradientUnits="userSpaceOnUse"
       gradientTransform="matrix(0.892267,5.875733e-17,-2.451178e-17,1.084322,0.102614,0.644489)"
       cx="43.058060"
       cy="27.180462"
       fx="43.058060"
       fy="27.180462"
       r="5.1871114" />
    <linearGradient
       inkscape:collect="always"
       xlink:href="#linearGradient6690"
       id="linearGradient1456"
       gradientUnits="userSpaceOnUse"
       gradientTransform="matrix(0.250280,8.770715e-2,-5.038764e-2,0.104164,24.29433,-7.124291)"
       x1="163.69096"
       y1="378.02753"
       x2="40.447891"
       y2="177.92386" />
    <linearGradient
       inkscape:collect="always"
       xlink:href="#bludraktowhite"
       id="linearGradient1454"
       gradientUnits="userSpaceOnUse"
       gradientTransform="matrix(0.120292,4.215482e-2,-0.104836,0.216724,24.29433,-7.124291)"
       x1="290.28040"
       y1="124.52169"
       x2="350.71954"
       y2="175.20572" />
    <linearGradient
       id="bludraktowhite"
       gradientUnits="userSpaceOnUse"
       x1="33.332001"
       y1="10.305200"
       x2="33.332001"
       y2="91.407700">
      <linearGradient
         id="bluedrklighttowite"
         gradientUnits="userSpaceOnUse"
         x1="33.332001"
         y1="10.305200"
         x2="33.332001"
         y2="91.407700"
         spreadMethod="pad"
         xlink:href="#linearGradient6690" />
      <stop
         offset="0"
         style="stop-color:rgb(255,255,255)"
         id="stop7271" />
      <stop
         offset="1"
         style="stop-color:rgb(84,84,119)"
         id="stop7273" />
    </linearGradient>
    <linearGradient
       inkscape:collect="always"
       xlink:href="#bludraktowhite"
       id="linearGradient1452"
       gradientUnits="userSpaceOnUse"
       gradientTransform="matrix(1.166668,0.408842,-0.354530,0.732902,-5.590139e-16,-3.093879e-15)"
       x1="46.488239"
       y1="38.460110"
       x2="24.291449"
       y2="9.9295931" />
    <linearGradient
       id="linearGradient6690">
      <stop
         offset="0.0000000"
         style="stop-color:#ffffff;stop-opacity:1.0000000;"
         id="stop6694" />
      <stop
         offset="1.0000000"
         style="stop-color:#a9a9bb;stop-opacity:1.0000000;"
         id="stop6692" />
    </linearGradient>
    <linearGradient
       inkscape:collect="always"
       xlink:href="#linearGradient6690"
       id="linearGradient1450"
       gradientUnits="userSpaceOnUse"
       gradientTransform="matrix(0.203715,7.138897e-2,-6.190550e-2,0.127974,24.29432,-7.124290)"
       x1="56.118183"
       y1="107.50246"
       x2="113.12895"
       y2="260.71814" />
    <linearGradient
       id="orangetoblackorange">
      <stop
         style="stop-color:#ff8b00;stop-opacity:1.0000000;"
         offset="0.0000000"
         id="stop4207" />
      <stop
         style="stop-color:#4d0200;stop-opacity:1.0000000;"
         offset="1.0000000"
         id="stop4209" />
    </linearGradient>
    <linearGradient
       inkscape:collect="always"
       xlink:href="#orangetoblackorange"
       id="linearGradient1448"
       gradientUnits="userSpaceOnUse"
       gradientTransform="matrix(0.960232,0.336502,-0.416754,0.861528,0.102614,0.644489)"
       x1="45.889492"
       y1="68.308914"
       x2="46.077576"
       y2="22.840958" />
    <linearGradient
       id="yelowtoorange">
      <stop
         style="stop-color:#ffff00;stop-opacity:1.0000000;"
         offset="0.0000000"
         id="stop3105" />
      <stop
         style="stop-color:#ff8c00;stop-opacity:1.0000000;"
         offset="1.0000000"
         id="stop3107" />
    </linearGradient>
    <linearGradient
       inkscape:collect="always"
       xlink:href="#yelowtoorange"
       id="linearGradient1446"
       gradientUnits="userSpaceOnUse"
       gradientTransform="matrix(0.197488,6.920708e-2,-8.571205e-2,0.177188,-3.441921,1.883233)"
       x1="212.07372"
       y1="203.83205"
       x2="225.34715"
       y2="79.476768" />
  </defs>
  <sodipodi:namedview
     inkscape:window-y="317"
     inkscape:window-x="426"
     inkscape:window-height="536"
     inkscape:window-width="640"
     inkscape:grid-bbox="true"
     inkscape:document-units="px"
     showgrid="true"
     inkscape:current-layer="layer1"
     inkscape:cy="31.834545"
     inkscape:cx="32.000000"
     inkscape:zoom="5.5000000"
     inkscape:pageshadow="2"
     inkscape:pageopacity="0.0"
     borderopacity="1.0"
     bordercolor="#666666"
     pagecolor="#ffffff"
     id="base" />
  <metadata
     id="metadata4">
    <rdf:RDF
       id="RDF5">
      <cc:Work
         id="Work6"
         rdf:about="">
        <dc:format
           id="format7">image/svg+xml</dc:format>
        <dc:type
           rdf:resource="http://purl.org/dc/dcmitype/StillImage"
           id="type9" />
      </cc:Work>
    </rdf:RDF>
  </metadata>
  <g
     inkscape:groupmode="layer"
     inkscape:label="Layer 1"
     id="layer1">
    <g
       id="g1409"
       transform="matrix(0.913545,-0.219598,0.224297,0.894411,-4.846654,11.41274)">
      <path
         style="fill:none;fill-opacity:0.75000000;fill-rule:evenodd;stroke:#000000;stroke-width:3.1082335;stroke-linecap:butt;stroke-linejoin:round;stroke-miterlimit:4.0000000;stroke-opacity:0.038960997"
         d="M 49.489530,1.0016445 C 49.057086,0.89357471 48.645436,0.89416223 48.322277,1.0324034 C 47.445735,1.4073694 46.498527,2.2666075 45.465579,3.3700846 C 43.399674,5.5770397 41.094943,8.9937414 39.014970,13.059158 C 37.826608,15.381867 37.071643,17.706225 36.465443,19.918407 L 30.721330,15.181527 L 21.874781,17.642244 L 18.342303,24.778323 L 18.342303,24.809082 L 17.727960,26.470066 C 14.830713,32.312433 10.649019,40.064923 7.5298546,41.972583 L 8.1749155,44.002675 L 9.5264716,43.818121 L 9.9565128,45.448347 L 11.308068,47.355402 L 13.488989,46.832499 L 13.519706,46.986295 L 13.488989,47.047813 L 13.642575,47.693750 L 13.673291,47.632233 L 13.980463,49.539288 L 15.731344,49.416252 L 15.731344,49.447012 L 15.669909,49.539288 L 15.823494,50.062191 L 15.424171,52.000005 L 16.099950,53.291882 L 17.758678,50.892683 L 17.420789,53.322641 L 19.263820,53.568713 L 19.355972,56.244742 L 21.444740,56.798404 L 21.536891,58.643941 L 22.980599,57.075235 L 23.134185,57.536619 L 23.195620,57.444342 L 23.226337,57.536619 L 23.410639,58.244075 L 24.178569,61.012382 L 24.977216,60.581757 L 25.100086,60.950864 L 25.222953,60.766310 L 25.253671,60.797069 L 24.762196,63.257786 L 27.096702,62.734884 L 29.891965,61.227694 L 28.263955,63.103992 L 33.055835,61.473766 L 33.147987,61.443008 L 33.946634,62.119705 C 36.021371,60.262609 42.645251,53.033054 47.062873,46.432633 L 47.523629,46.309598 L 50.533914,41.326646 L 50.318894,41.388163 L 53.789935,34.190566 L 47.093589,28.684711 C 47.105602,28.680911 47.143332,28.688692 47.155022,28.684711 L 43.653264,25.824128 L 43.161789,25.424261 C 44.754635,23.567876 46.392714,21.471067 47.769368,18.780325 C 49.849342,14.714906 51.315442,10.740041 51.977621,7.6148215 C 52.308710,6.0522091 52.399930,4.6957910 52.346227,3.6469153 C 52.290664,2.5616455 50.786860,1.3258537 49.489530,1.0016445 z "
         id="path26469"
         sodipodi:nodetypes="ccccccccccccccccccccccccccccccccccccccccccccccccccccccccccccccc" />
      <path
         style="fill:none;fill-opacity:0.75000000;fill-rule:evenodd;stroke:#000000;stroke-width:1.5344443;stroke-linecap:butt;stroke-linejoin:round;stroke-miterlimit:4.0000000;stroke-opacity:0.038960997"
         d="M 49.669268,1.0916364 C 49.236825,0.98356664 48.825175,0.98415416 48.502016,1.1223954 C 47.625473,1.4973613 46.678267,2.3565995 45.645317,3.4600766 C 43.579415,5.6670317 41.274684,9.0837333 39.194709,13.149150 C 38.006348,15.471860 37.251382,17.796218 36.645182,20.008399 L 30.901069,15.271518 L 22.054520,17.732236 L 18.522044,24.868315 L 18.522044,24.899074 L 17.907700,26.560058 C 15.010453,32.402425 10.828759,40.154916 7.7095940,42.062576 L 8.3546548,44.092668 L 9.7062110,43.908114 L 10.136252,45.538338 L 11.487807,47.445394 L 13.668727,46.922492 L 13.699445,47.076286 L 13.668727,47.137804 L 13.822314,47.783743 L 13.853032,47.722225 L 14.160204,49.629281 L 15.911083,49.506245 L 15.911083,49.537004 L 15.849648,49.629281 L 16.003234,50.152183 L 15.603911,52.089998 L 16.279690,53.381874 L 17.938417,50.982675 L 17.600527,53.412633 L 19.443558,53.658705 L 19.535711,56.334735 L 21.624479,56.888396 L 21.716631,58.733934 L 23.160338,57.165226 L 23.313924,57.626611 L 23.375358,57.534334 L 23.406076,57.626611 L 23.590379,58.334067 L 24.358310,61.102374 L 25.156955,60.671748 L 25.279824,61.040856 L 25.402693,60.856302 L 25.433410,60.887061 L 24.941936,63.347779 L 27.276441,62.824876 L 30.071706,61.317687 L 28.443694,63.193983 L 33.235574,61.563759 L 33.327727,61.532999 L 34.126373,62.209696 C 36.201111,60.352602 42.824990,53.123046 47.242612,46.522625 L 47.703369,46.399589 L 50.713652,41.416637 L 50.498633,41.478155 L 53.969674,34.280558 L 47.273329,28.774704 C 47.285340,28.770903 47.323071,28.778684 47.334764,28.774704 L 43.833004,25.914120 L 43.341529,25.514254 C 44.934373,23.657869 46.572453,21.561060 47.949107,18.870318 C 50.029082,14.804899 51.495180,10.830034 52.157361,7.7048135 C 52.488450,6.1422011 52.579670,4.7857830 52.525967,3.7369072 C 52.470403,2.6516376 50.966600,1.4158457 49.669268,1.0916364 z "
         id="path26471"
         sodipodi:nodetypes="ccccccccccccccccccccccccccccccccccccccccccccccccccccccccccccccc" />
      <path
         style="fill:none;fill-opacity:0.75000000;fill-rule:evenodd;stroke:#000000;stroke-width:2.4197006;stroke-linecap:butt;stroke-linejoin:round;stroke-miterlimit:4.0000000;stroke-opacity:0.038960997"
         d="M 49.399660,1.0016445 C 48.967216,0.89357471 48.555566,0.89416223 48.232407,1.0324034 C 47.355865,1.4073694 46.408658,2.2666075 45.375708,3.3700846 C 43.309805,5.5770397 41.005074,8.9937414 38.925099,13.059158 C 37.736739,15.381867 36.981772,17.706225 36.375573,19.918407 L 30.631459,15.181527 L 21.784910,17.642244 L 18.252434,24.778323 L 18.252434,24.809082 L 17.638090,26.470066 C 14.740844,32.312433 10.559149,40.064923 7.4399849,41.972583 L 8.0850458,44.002675 L 9.4366018,43.818121 L 9.8666428,45.448347 L 11.218198,47.355402 L 13.399119,46.832499 L 13.429836,46.986295 L 13.399119,47.047813 L 13.552705,47.693750 L 13.583422,47.632233 L 13.890593,49.539288 L 15.641474,49.416252 L 15.641474,49.447012 L 15.580039,49.539288 L 15.733625,50.062191 L 15.334302,52.000005 L 16.010079,53.291882 L 17.668807,50.892683 L 17.330919,53.322641 L 19.173950,53.568713 L 19.266102,56.244742 L 21.354870,56.798404 L 21.447021,58.643941 L 22.890730,57.075235 L 23.044315,57.536619 L 23.105750,57.444342 L 23.136466,57.536619 L 23.320770,58.244075 L 24.088699,61.012382 L 24.887346,60.581757 L 25.010214,60.950864 L 25.133084,60.766310 L 25.163801,60.797069 L 24.672326,63.257786 L 27.006831,62.734884 L 29.802096,61.227694 L 28.174084,63.103992 L 32.965966,61.473766 L 33.058118,61.443008 L 33.856764,62.119705 C 35.931502,60.262609 42.555379,53.033054 46.973002,46.432633 L 47.433760,46.309598 L 50.444044,41.326646 L 50.229024,41.388163 L 53.700065,34.190566 L 47.003719,28.684711 C 47.015730,28.680911 47.053462,28.688692 47.065153,28.684711 L 43.563394,25.824128 L 43.071920,25.424261 C 44.664765,23.567876 46.302844,21.471067 47.679496,18.780325 C 49.759471,14.714906 51.225570,10.740041 51.887751,7.6148215 C 52.218840,6.0522091 52.310061,4.6957910 52.256357,3.6469153 C 52.200793,2.5616455 50.696991,1.3258537 49.399660,1.0016445 z "
         id="path26467"
         sodipodi:nodetypes="ccccccccccccccccccccccccccccccccccccccccccccccccccccccccccccccc" />
      <path
         style="fill:none;fill-opacity:0.75000000;fill-rule:evenodd;stroke:#000000;stroke-width:1.8295296;stroke-linecap:butt;stroke-linejoin:round;stroke-miterlimit:4.0000000;stroke-opacity:0.038960997"
         d="M 49.219920,1.0016445 C 48.787477,0.89357471 48.375828,0.89416223 48.052667,1.0324034 C 47.176125,1.4073694 46.228917,2.2666075 45.195969,3.3700846 C 43.130066,5.5770397 40.825334,8.9937414 38.745360,13.059158 C 37.556999,15.381867 36.802033,17.706225 36.195834,19.918407 L 30.451721,15.181527 L 21.605171,17.642244 L 18.072695,24.778323 L 18.072695,24.809082 L 17.458352,26.470066 C 14.561104,32.312433 10.379410,40.064923 7.2602455,41.972583 L 7.9053063,44.002675 L 9.2568623,43.818121 L 9.6869033,45.448347 L 11.038460,47.355402 L 13.219380,46.832499 L 13.250098,46.986295 L 13.219380,47.047813 L 13.372964,47.693750 L 13.403682,47.632233 L 13.710854,49.539288 L 15.461734,49.416252 L 15.461734,49.447012 L 15.400301,49.539288 L 15.553885,50.062191 L 15.154561,52.000005 L 15.830340,53.291882 L 17.489069,50.892683 L 17.151179,53.322641 L 18.994211,53.568713 L 19.086362,56.244742 L 21.175131,56.798404 L 21.267282,58.643941 L 22.710989,57.075235 L 22.864576,57.536619 L 22.926010,57.444342 L 22.956728,57.536619 L 23.141030,58.244075 L 23.908960,61.012382 L 24.707607,60.581757 L 24.830475,60.950864 L 24.953344,60.766310 L 24.984061,60.797069 L 24.492586,63.257786 L 26.827093,62.734884 L 29.622356,61.227694 L 27.994346,63.103992 L 32.786226,61.473766 L 32.878378,61.443008 L 33.677024,62.119705 C 35.751763,60.262609 42.375640,53.033054 46.793263,46.432633 L 47.254020,46.309598 L 50.264304,41.326646 L 50.049284,41.388163 L 53.520326,34.190566 L 46.823979,28.684711 C 46.835991,28.680911 46.873723,28.688692 46.885414,28.684711 L 43.383656,25.824128 L 42.892180,25.424261 C 44.485025,23.567876 46.123105,21.471067 47.499757,18.780325 C 49.579733,14.714906 51.045831,10.740041 51.708012,7.6148215 C 52.039101,6.0522091 52.130321,4.6957910 52.076619,3.6469153 C 52.021055,2.5616455 50.517250,1.3258537 49.219920,1.0016445 z "
         id="path26465"
         sodipodi:nodetypes="ccccccccccccccccccccccccccccccccccccccccccccccccccccccccccccccc" />
      <path
         style="fill:none;fill-opacity:0.75000000;fill-rule:evenodd;stroke:#000000;stroke-width:0.043653160pt;stroke-linecap:butt;stroke-linejoin:miter;stroke-opacity:1.0000000"
         d="M 18.242920,24.952671 L 40.982229,44.200916 L 49.743851,41.733328"
         id="path1871" />
      <path
         style="fill:url(#linearGradient1446);fill-opacity:1.0000000;fill-rule:evenodd;stroke:url(#linearGradient1448);stroke-width:0.57401872;stroke-linecap:butt;stroke-linejoin:round;stroke-miterlimit:4.0000000;stroke-opacity:1.0000000"
         d="M 18.172646,25.330888 C 25.757805,31.658181 33.342967,37.985474 40.928124,44.312766 C 43.831174,43.526394 46.734224,42.740024 49.637273,41.953651 C 46.084669,49.297762 36.253489,60.024795 33.669980,62.337291 L 32.869440,61.649357 L 27.975244,63.325161 L 29.636199,61.402172 L 26.823401,62.943142 L 24.480290,63.475342 L 25.069871,60.561366 L 23.896666,61.220041 L 23.134437,58.448458 L 22.791244,57.184452 L 21.271827,58.858766 L 21.171610,57.000514 L 19.073815,56.448429 L 18.972614,53.762180 L 17.141532,53.531130 L 17.490788,51.111472 L 15.823535,53.506723 L 15.134479,52.217519 L 15.685514,49.619457 L 13.706109,49.759039 L 13.280720,47.039302 L 11.042828,47.554268 L 9.6933664,45.659035 L 9.2598529,44.025251 L 7.8900476,44.206591 L 7.2671492,42.184848 C 10.614796,40.137450 15.294492,31.238823 18.172646,25.330888 z "
         id="path1873"
         sodipodi:nodetypes="cccccccccccccccccccccccccccccc" />
      <path
         style="fill:url(#linearGradient1450);fill-opacity:1.0000000;stroke:url(#linearGradient1452);stroke-width:1.4868855;stroke-linecap:round;stroke-linejoin:round;stroke-miterlimit:4.0000000;stroke-dashoffset:0.0000000;stroke-opacity:1.0000000"
         d="M 30.448481,15.388448 L 21.585893,17.841954 L 18.064216,24.975733 L 41.015584,44.221022 L 49.968707,41.715499 L 53.512427,34.389748 L 30.448481,15.388448 z "
         id="path4383"
         sodipodi:nodetypes="ccccccc" />
      <path
         style="fill:url(#linearGradient1454);fill-opacity:1.0000000;fill-rule:evenodd;stroke:none;stroke-width:0.25000000pt;stroke-linecap:butt;stroke-linejoin:miter;stroke-opacity:1.0000000"
         d="M 53.047883,34.545789 L 49.747703,41.368067 L 41.232887,43.724963 L 44.393143,37.059480 L 53.047883,34.545789 z "
         id="path5164"
         sodipodi:nodetypes="ccccc" />
      <path
         style="fill:url(#linearGradient1456);fill-opacity:1.0000000;fill-rule:evenodd;stroke:none;stroke-width:0.25000000pt;stroke-linecap:butt;stroke-linejoin:miter;stroke-opacity:1.0000000"
         d="M 21.906595,18.172322 L 44.445201,37.042096 L 53.043888,34.644273 L 30.371217,15.818899 L 21.906595,18.172322 z "
         id="path7454"
         sodipodi:nodetypes="ccccc" />
      <path
         style="opacity:0.099616833;fill:url(#radialGradient1458);fill-opacity:1.0000000;fill-rule:evenodd;stroke:none;stroke-width:0.25000000pt;stroke-linecap:butt;stroke-linejoin:miter;stroke-opacity:1.0000000"
         d="M 40.364243,28.451998 C 41.023288,29.141936 41.877051,29.516903 42.341376,30.521813 C 42.805704,31.526722 43.060336,33.611535 43.150205,34.481458 C 43.240073,35.351379 42.970465,35.321382 42.880595,35.741345 C 40.034721,33.311563 37.188848,30.881781 34.342973,28.451998 C 34.193191,27.792057 33.833712,27.132116 33.893624,26.472176 C 33.953538,25.812234 34.432842,25.152293 34.702452,24.492352 C 36.589716,25.812234 38.476979,27.132116 40.364243,28.451998 z "
         id="path26477"
         sodipodi:nodetypes="czzcczcc" />
      <path
         style="fill:url(#radialGradient1460);fill-opacity:1.0000000;stroke:none;stroke-width:4.3125000;stroke-linecap:round;stroke-linejoin:round;stroke-miterlimit:4.0000000;stroke-dashoffset:0.0000000;stroke-opacity:1.0000000"
         d="M 43.221636,25.993255 L 34.359049,28.446760 L 30.837373,35.580539 L 41.015584,44.221022 L 49.968707,41.715499 L 53.512427,34.389748 L 43.221636,25.993255 z "
         id="path8222"
         sodipodi:nodetypes="ccccccc" />
      <path
         style="fill:url(#linearGradient1462);fill-opacity:1.0000000;fill-rule:evenodd;stroke:none;stroke-width:0.25000000pt;stroke-linecap:butt;stroke-linejoin:miter;stroke-opacity:1.0000000"
         d="M 30.369489,15.470313 L 46.881231,28.877245 C 43.829991,29.916131 29.840847,24.782025 26.585167,21.952649 C 23.360698,19.150397 24.619472,20.356506 21.969207,17.828119 L 30.369489,15.470313 z "
         id="path9751"
         sodipodi:nodetypes="cczcc" />
      <path
         style="fill:url(#radialGradient1464);fill-opacity:1.0000000;fill-rule:evenodd;stroke:none;stroke-width:0.25000000pt;stroke-linecap:butt;stroke-linejoin:miter;stroke-opacity:1.0000000"
         d="M 34.427573,24.616193 C 36.724979,24.648524 40.016850,27.178282 40.908732,28.988219 C 41.127103,29.431378 38.773521,29.234207 37.018861,28.196335 C 35.174602,27.106598 33.946200,24.609423 34.427573,24.616193 z "
         id="path19050"
         sodipodi:nodetypes="csss" />
      <path
         style="fill:#000000;fill-opacity:0.025973978;fill-rule:evenodd;stroke:none;stroke-width:0.25000000pt;stroke-linecap:butt;stroke-linejoin:miter;stroke-opacity:1.0000000"
         d="M 34.184894,24.628554 C 36.670822,24.638229 40.204148,27.094706 41.148465,28.866309 C 41.379677,29.300080 38.834861,29.128812 36.947911,28.124895 C 34.964597,27.070830 33.664024,24.626529 34.184894,24.628554 z "
         id="path20582"
         sodipodi:nodetypes="csss" />
      <path
         style="fill:url(#linearGradient1466);fill-opacity:1.0000000;fill-rule:evenodd;stroke:none;stroke-width:0.25000000pt;stroke-linecap:butt;stroke-linejoin:miter;stroke-opacity:1.0000000"
         d="M 18.064203,25.028849 L 40.833891,44.110124 L 36.694499,52.199163 L 16.935023,28.015347 L 18.064203,25.028849 z "
         id="path11350"
         sodipodi:nodetypes="ccccc" />
      <path
         style="fill:url(#linearGradient1468);fill-opacity:1.0000000;fill-rule:evenodd;stroke:none;stroke-width:0.25000000pt;stroke-linecap:butt;stroke-linejoin:miter;stroke-opacity:1.0000000"
         d="M 40.757087,44.372064 L 50.254927,41.525114 L 47.233919,46.501390 L 38.339009,49.105870 L 40.757087,44.372064 z "
         id="path12126"
         sodipodi:nodetypes="ccccc" />
      <path
         style="fill:url(#linearGradient1470);fill-opacity:1.0000000;fill-rule:evenodd;stroke:none;stroke-width:0.25000000pt;stroke-linecap:butt;stroke-linejoin:miter;stroke-opacity:1.0000000"
         d="M 21.897194,17.811197 L 18.252717,24.726026 C 19.875739,26.555331 20.688728,24.690404 21.764751,23.319142 C 22.812879,21.983429 25.323263,24.080083 26.661210,22.035805 L 21.897194,17.811197 z "
         id="path15177"
         sodipodi:nodetypes="cczcc" />
      <path
         style="fill:url(#linearGradient1472);fill-opacity:1.0000000;stroke:url(#linearGradient1474);stroke-width:0.94883049;stroke-linecap:round;stroke-linejoin:round;stroke-miterlimit:4.0000000;stroke-dashoffset:0.0000000;stroke-opacity:1.0000000"
         d="M 47.501013,18.985450 C 45.421039,23.050867 42.597536,26.118737 40.531633,28.325691 C 38.430850,28.119593 36.720120,27.120007 35.048588,24.738861 C 35.710766,21.613644 36.655330,17.316628 38.735305,13.251213 C 40.815278,9.1857954 43.133610,5.7874601 45.199512,3.5805057 C 46.232465,2.4770294 47.171146,1.6041178 48.047689,1.2291513 C 49.340326,0.67618689 52.001753,2.4172067 52.075839,3.8642327 C 52.129541,4.9131064 52.023988,6.2656540 51.692899,7.8282655 C 51.030720,10.953486 49.580988,14.920032 47.501013,18.985450 z "
         id="path15181"
         sodipodi:nodetypes="ccccssssc" />
      <path
         style="fill:url(#linearGradient1476);fill-opacity:1.0000000;fill-rule:evenodd;stroke:none;stroke-width:0.25000000pt;stroke-linecap:butt;stroke-linejoin:miter;stroke-opacity:1.0000000"
         d="M 48.958696,1.3250461 C 49.417380,1.6875272 49.876062,2.0500105 50.334746,2.4124913 C 51.322420,4.1210762 46.022712,16.095830 40.824423,18.414740 C 37.796834,19.765319 38.431276,19.056169 37.044149,18.428020 C 39.522447,12.387532 44.931584,2.3563453 48.958696,1.3250461 z "
         id="path18282"
         sodipodi:nodetypes="ccscc" />
      <path
         style="fill:#000000;fill-opacity:0.047619049;fill-rule:evenodd;stroke:none;stroke-width:0.25000000pt;stroke-linecap:butt;stroke-linejoin:miter;stroke-opacity:1.0000000"
         d="M 9.2693249,44.110595 L 16.812764,34.571449 L 9.5389339,44.937396 L 9.2693249,44.110595 z "
         id="path22552" />
      <path
         style="fill:#000000;fill-opacity:0.047619049;fill-rule:evenodd;stroke:none;stroke-width:0.25000000pt;stroke-linecap:butt;stroke-linejoin:miter;stroke-opacity:1.0000000"
         d="M 9.2693249,43.838284 L 18.778662,31.157381 L 9.6091969,44.937396 L 9.2693249,43.838284 z "
         id="path23312" />
      <path
         style="fill:#000000;fill-opacity:0.047619049;fill-rule:evenodd;stroke:none;stroke-width:0.25000000pt;stroke-linecap:butt;stroke-linejoin:miter;stroke-opacity:1.0000000"
         d="M 13.201124,47.262192 L 17.795714,40.015962 L 13.365339,47.890257 L 13.201124,47.262192 z "
         id="path23314" />
      <path
         style="fill:#000000;fill-opacity:0.047619049;fill-rule:evenodd;stroke:none;stroke-width:0.25000000pt;stroke-linecap:butt;stroke-linejoin:miter;stroke-opacity:1.0000000"
         d="M 13.201124,47.026668 L 19.761613,37.063102 L 13.435602,47.890257 L 13.201124,47.026668 z "
         id="path23316" />
      <path
         style="fill:#000000;fill-opacity:0.047619049;fill-rule:evenodd;stroke:none;stroke-width:0.25000000pt;stroke-linecap:butt;stroke-linejoin:miter;stroke-opacity:1.0000000"
         d="M 15.380466,49.456451 L 24.227013,39.492883 L 15.696648,50.320038 L 15.380466,49.456451 z "
         id="path23318" />
      <path
         style="fill:#000000;fill-opacity:0.047619049;fill-rule:evenodd;stroke:none;stroke-width:0.25000000pt;stroke-linecap:butt;stroke-linejoin:miter;stroke-opacity:1.0000000"
         d="M 15.380466,49.733696 L 21.171444,42.968823 L 15.587440,50.320038 L 15.380466,49.733696 z "
         id="path23320" />
      <path
         style="fill:#000000;fill-opacity:0.047619049;fill-rule:evenodd;stroke:none;stroke-width:0.25000000pt;stroke-linecap:butt;stroke-linejoin:miter;stroke-opacity:1.0000000"
         d="M 17.357599,50.717983 L 23.148578,43.953110 L 17.564572,51.304325 L 17.357599,50.717983 z "
         id="path23322" />
      <path
         style="fill:#000000;fill-opacity:0.047619049;fill-rule:evenodd;stroke:none;stroke-width:0.25000000pt;stroke-linecap:butt;stroke-linejoin:miter;stroke-opacity:1.0000000"
         d="M 18.885383,53.435319 L 26.642262,43.953110 L 19.162622,54.257186 L 18.885383,53.435319 z "
         id="path23324" />
      <path
         style="fill:#000000;fill-opacity:0.047619049;fill-rule:evenodd;stroke:none;stroke-width:0.25000000pt;stroke-linecap:butt;stroke-linejoin:miter;stroke-opacity:1.0000000"
         d="M 22.710463,56.476996 L 34.062131,41.984536 L 23.116182,57.733125 L 22.710463,56.476996 z "
         id="path23326" />
      <path
         style="fill:#000000;fill-opacity:0.047619049;fill-rule:evenodd;stroke:none;stroke-width:0.25000000pt;stroke-linecap:butt;stroke-linejoin:miter;stroke-opacity:1.0000000"
         d="M 22.710463,56.948045 L 29.591112,47.890257 L 22.956384,57.733125 L 22.710463,56.948045 z "
         id="path23328" />
      <path
         style="fill:#000000;fill-opacity:0.047619049;fill-rule:evenodd;stroke:none;stroke-width:0.25000000pt;stroke-linecap:butt;stroke-linejoin:miter;stroke-opacity:1.0000000"
         d="M 22.710463,57.262076 L 26.642262,51.827404 L 22.850989,57.733125 L 22.710463,57.262076 z "
         id="path23330" />
      <path
         style="fill:#000000;fill-opacity:0.047619049;fill-rule:evenodd;stroke:none;stroke-width:0.25000000pt;stroke-linecap:butt;stroke-linejoin:miter;stroke-opacity:1.0000000"
         d="M 24.676363,60.173486 L 34.505861,48.874544 L 25.027678,61.152819 L 24.676363,60.173486 z "
         id="path23332" />
      <path
         style="fill:#000000;fill-opacity:0.047619049;fill-rule:evenodd;stroke:none;stroke-width:0.25000000pt;stroke-linecap:butt;stroke-linejoin:miter;stroke-opacity:1.0000000"
         d="M 24.676363,60.723043 L 28.608163,55.764551 L 24.816889,61.152819 L 24.676363,60.723043 z "
         id="path23334" />
      <path
         style="fill:#000000;fill-opacity:0.047619049;fill-rule:evenodd;stroke:none;stroke-width:0.25000000pt;stroke-linecap:butt;stroke-linejoin:miter;stroke-opacity:1.0000000"
         d="M 29.591112,61.319454 L 33.972260,57.271915 L 29.747700,61.670272 L 29.591112,61.319454 z "
         id="path23336" />
      <path
         style="fill:#000000;fill-opacity:0.047619049;fill-rule:evenodd;stroke:none;stroke-width:0.25000000pt;stroke-linecap:butt;stroke-linejoin:miter;stroke-opacity:1.0000000"
         d="M 29.591112,61.042208 L 37.454711,53.795978 L 29.872165,61.670272 L 29.591112,61.042208 z "
         id="path23338" />
      <path
         style="fill:#000000;fill-opacity:0.047619049;fill-rule:evenodd;stroke:none;stroke-width:0.25000000pt;stroke-linecap:butt;stroke-linejoin:miter;stroke-opacity:1.0000000"
         d="M 32.539962,61.042208 L 39.420612,53.795978 L 32.785884,61.670272 L 32.539962,61.042208 z "
         id="path24098" />
    </g>
  </g>
</svg>
