<?xml version="1.0" encoding="UTF-8" standalone="no"?>
<!-- Created with Inkscape (http://www.inkscape.org/) -->
<svg
   xmlns:dc="http://purl.org/dc/elements/1.1/"
   xmlns:cc="http://web.resource.org/cc/"
   xmlns:rdf="http://www.w3.org/1999/02/22-rdf-syntax-ns#"
   xmlns:svg="http://www.w3.org/2000/svg"
   xmlns="http://www.w3.org/2000/svg"
   xmlns:xlink="http://www.w3.org/1999/xlink"
   xmlns:sodipodi="http://inkscape.sourceforge.net/DTD/sodipodi-0.dtd"
   xmlns:inkscape="http://www.inkscape.org/namespaces/inkscape"
   inkscape:export-ydpi="45.000000"
   inkscape:export-xdpi="45.000000"
   inkscape:export-filename="/home/pinheiro/kdeplayground-artwork/oooicons/crystalsvg/clickchangerotation.png"
   sodipodi:docname="clickchangerotation.svg"
   sodipodi:docbase="/home/pinheiro/kdeplayground-artwork/oooicons/crystalsvg"
   inkscape:version="0.41"
   sodipodi:version="0.32"
   id="svg4189"
   height="64px"
   width="64px">
  <defs
     id="defs3">
    <radialGradient
       r="20.613607"
       fy="108.39971"
       fx="63.324112"
       cy="108.22375"
       cx="63.201416"
       gradientTransform="matrix(0.535436,0.248117,-0.172926,0.391614,1.377091,-14.11835)"
       gradientUnits="userSpaceOnUse"
       id="radialGradient2563"
       xlink:href="#light75to0"
       inkscape:collect="always" />
    <linearGradient
       y2="135.40907"
       x2="116.62541"
       y1="143.24013"
       x1="129.67717"
       gradientTransform="matrix(0.488874,0.226541,-0.189396,0.428912,1.377099,-14.11839)"
       gradientUnits="userSpaceOnUse"
       id="linearGradient2561"
       xlink:href="#light100to0"
       inkscape:collect="always" />
    <radialGradient
       r="66.978882"
       fy="40.495552"
       fx="34.774773"
       cy="40.215942"
       cx="34.281494"
       gradientTransform="matrix(0.477436,0.221241,-0.193933,0.439188,1.377091,-14.11835)"
       gradientUnits="userSpaceOnUse"
       id="radialGradient2559"
       xlink:href="#light100to75to0"
       inkscape:collect="always" />
    <linearGradient
       y2="-110.38097"
       x2="-407.76779"
       y1="-138.45309"
       x1="-435.31949"
       gradientTransform="matrix(2.212532,1.025271,-0.857165,1.941160,850.3608,717.9281)"
       gradientUnits="userSpaceOnUse"
       id="linearGradient2553"
       xlink:href="#bluedarktoblackblue"
       inkscape:collect="always" />
    <radialGradient
       r="19.563040"
       fy="-119.14198"
       fx="-416.31180"
       cy="-119.14198"
       cx="-416.87866"
       gradientTransform="matrix(2.206305,1.022386,-0.859584,1.946638,850.3608,717.9281)"
       gradientUnits="userSpaceOnUse"
       id="radialGradient2551"
       xlink:href="#bluelightlesstoblue"
       inkscape:collect="always" />
    <radialGradient
       r="20.613607"
       fy="108.39971"
       fx="63.324112"
       cy="108.22375"
       cx="63.201416"
       gradientTransform="matrix(0.535436,0.248117,-0.172926,0.391614,1.377091,-14.11835)"
       gradientUnits="userSpaceOnUse"
       id="radialGradient2549"
       xlink:href="#light75to0"
       inkscape:collect="always" />
    <linearGradient
       y2="135.40907"
       x2="116.62541"
       y1="143.24013"
       x1="129.67717"
       gradientTransform="matrix(0.488873,0.226541,-0.189396,0.428913,1.377091,-14.11835)"
       gradientUnits="userSpaceOnUse"
       id="linearGradient2547"
       xlink:href="#light100to0"
       inkscape:collect="always" />
    <radialGradient
       r="66.978882"
       fy="40.495552"
       fx="34.774773"
       cy="40.215942"
       cx="34.281494"
       gradientTransform="matrix(0.477436,0.221241,-0.193933,0.439188,1.377091,-14.11835)"
       gradientUnits="userSpaceOnUse"
       id="radialGradient2545"
       xlink:href="#light100to75to0"
       inkscape:collect="always" />
    <linearGradient
       y2="-110.84340"
       x2="-408.99539"
       y1="-138.00241"
       x1="-436.49048"
       gradientTransform="matrix(2.206305,1.022386,-0.859584,1.946638,850.3608,717.9281)"
       gradientUnits="userSpaceOnUse"
       id="linearGradient2541"
       xlink:href="#greantodarkgrean"
       inkscape:collect="always" />
    <linearGradient
       y2="-186.06607"
       x2="-388.47604"
       y1="-202.84520"
       x1="-399.31586"
       gradientTransform="matrix(2.438540,2.511476e-3,3.624365e-2,2.121679,995.4655,462.5374)"
       gradientUnits="userSpaceOnUse"
       id="linearGradient4129"
       xlink:href="#bluedarktoblackblue"
       inkscape:collect="always" />
    <linearGradient
       y2="-186.06607"
       x2="-388.47604"
       y1="-202.84520"
       x1="-399.31586"
       gradientTransform="matrix(2.438488,2.253854e-3,-7.908221e-3,1.904041,990.8634,419.9278)"
       gradientUnits="userSpaceOnUse"
       id="linearGradient4127"
       xlink:href="#bluedarktoblackblue"
       inkscape:collect="always" />
    <radialGradient
       r="20.613607"
       fy="108.39971"
       fx="63.324112"
       cy="108.22375"
       cx="63.201416"
       gradientTransform="matrix(0.535436,0.248117,-0.172926,0.391614,1.377091,-14.11835)"
       gradientUnits="userSpaceOnUse"
       id="radialGradient4090"
       xlink:href="#light75to0"
       inkscape:collect="always" />
    <linearGradient
       y2="135.40907"
       x2="116.62541"
       y1="143.24013"
       x1="129.67717"
       gradientTransform="matrix(0.488874,0.226541,-0.189396,0.428912,1.377099,-14.11839)"
       gradientUnits="userSpaceOnUse"
       id="linearGradient4093"
       xlink:href="#light100to0"
       inkscape:collect="always" />
    <radialGradient
       r="66.978882"
       fy="40.495552"
       fx="34.774773"
       cy="40.215942"
       cx="34.281494"
       gradientTransform="matrix(0.477436,0.221241,-0.193933,0.439188,1.377091,-14.11835)"
       gradientUnits="userSpaceOnUse"
       id="radialGradient4096"
       xlink:href="#light100to75to0"
       inkscape:collect="always" />
    <radialGradient
       gradientUnits="userSpaceOnUse"
       id="bluedarktoblackblue"
       fy="112.96090"
       fx="38.797401"
       r="67.358803"
       cy="112.96090"
       cx="38.797401">
      <stop
         id="stop2959"
         offset="0.0000000"
         style="stop-color:#0356fe;stop-opacity:1.0000000;" />
      <stop
         id="stop2960"
         offset="1.0000000"
         style="stop-color:#032442;stop-opacity:1.0000000;" />
    </radialGradient>
    <linearGradient
       y2="-110.38097"
       x2="-407.76779"
       y1="-138.45309"
       x1="-435.31949"
       gradientTransform="matrix(2.212532,1.025271,-0.857165,1.941160,850.3608,717.9281)"
       gradientUnits="userSpaceOnUse"
       id="linearGradient4107"
       xlink:href="#bluedarktoblackblue"
       inkscape:collect="always" />
    <radialGradient
       gradientUnits="userSpaceOnUse"
       id="bluelightlesstoblue"
       fy="112.96090"
       fx="38.797401"
       r="67.358803"
       cy="112.96090"
       cx="38.797401">
      <stop
         id="stop3468"
         offset="0.0055999998"
         style="stop-color:#d9ffff;stop-opacity:1.0000000;" />
      <stop
         id="stop3469"
         offset="0.24089479"
         style="stop-color:#6eaafe;stop-opacity:1.0000000;" />
      <stop
         id="stop3470"
         offset="1.0000000"
         style="stop-color:#0356fe;stop-opacity:1.0000000;" />
    </radialGradient>
    <radialGradient
       r="19.563040"
       fy="-119.14198"
       fx="-416.31180"
       cy="-119.14198"
       cx="-416.87866"
       gradientTransform="matrix(2.206305,1.022386,-0.859584,1.946638,850.3608,717.9281)"
       gradientUnits="userSpaceOnUse"
       id="radialGradient4105"
       xlink:href="#bluelightlesstoblue"
       inkscape:collect="always" />
    <linearGradient
       id="light75to0">
      <stop
         id="stop2769"
         offset="0.0000000"
         style="stop-color:#ffffff;stop-opacity:0.72916669;" />
      <stop
         id="stop2770"
         offset="1.0000000"
         style="stop-color:#ffffff;stop-opacity:0.0000000;" />
    </linearGradient>
    <radialGradient
       r="20.613607"
       fy="108.39971"
       fx="63.324112"
       cy="108.22375"
       cx="63.201416"
       gradientTransform="matrix(0.535436,0.248117,-0.172926,0.391614,1.377091,-14.11835)"
       gradientUnits="userSpaceOnUse"
       id="radialGradient4110"
       xlink:href="#light75to0"
       inkscape:collect="always" />
    <linearGradient
       id="light100to0">
      <stop
         id="stop2764"
         offset="0.0000000"
         style="stop-color:#ffffff;stop-opacity:1.0000000;" />
      <stop
         id="stop2765"
         offset="1.0000000"
         style="stop-color:#ffffff;stop-opacity:0.0000000;" />
    </linearGradient>
    <linearGradient
       y2="135.40907"
       x2="116.62541"
       y1="143.24013"
       x1="129.67717"
       gradientTransform="matrix(0.488873,0.226541,-0.189396,0.428913,1.377091,-14.11835)"
       gradientUnits="userSpaceOnUse"
       id="linearGradient4113"
       xlink:href="#light100to0"
       inkscape:collect="always" />
    <linearGradient
       id="light100to75to0">
      <stop
         id="stop2779"
         offset="0.0000000"
         style="stop-color:#ffffff;stop-opacity:1.0000000;" />
      <stop
         id="stop2782"
         offset="0.50000000"
         style="stop-color:#ffffff;stop-opacity:0.77499998;" />
      <stop
         id="stop2780"
         offset="1.0000000"
         style="stop-color:#ffffff;stop-opacity:0.0000000;" />
    </linearGradient>
    <radialGradient
       r="66.978882"
       fy="40.495552"
       fx="34.774773"
       cy="40.215942"
       cx="34.281494"
       gradientTransform="matrix(0.477436,0.221241,-0.193933,0.439188,1.377091,-14.11835)"
       gradientUnits="userSpaceOnUse"
       id="radialGradient4116"
       xlink:href="#light100to75to0"
       inkscape:collect="always" />
    <linearGradient
       id="greandraktoblack">
      <stop
         id="stop7328"
         offset="0.0000000"
         style="stop-color:#007c00;stop-opacity:1.0000000;" />
      <stop
         id="stop7329"
         offset="1.0000000"
         style="stop-color:#025a00;stop-opacity:1.0000000;" />
    </linearGradient>
    <linearGradient
       y2="-110.38097"
       x2="-407.76779"
       y1="-138.45309"
       x1="-435.31949"
       gradientTransform="matrix(2.212532,1.025271,-0.857165,1.941160,850.3608,717.9281)"
       gradientUnits="userSpaceOnUse"
       id="linearGradient4121"
       xlink:href="#greandraktoblack"
       inkscape:collect="always" />
    <linearGradient
       id="greantodarkgrean">
      <stop
         id="stop5123"
         offset="0.0000000"
         style="stop-color:#00ff01;stop-opacity:1.0000000;" />
      <stop
         id="stop5124"
         offset="1.0000000"
         style="stop-color:#15980f;stop-opacity:1.0000000;" />
    </linearGradient>
    <linearGradient
       y2="-110.84340"
       x2="-408.99539"
       y1="-138.00241"
       x1="-436.49048"
       gradientTransform="matrix(2.206305,1.022386,-0.859584,1.946638,850.3608,717.9281)"
       gradientUnits="userSpaceOnUse"
       id="linearGradient4119"
       xlink:href="#greantodarkgrean"
       inkscape:collect="always" />
    <linearGradient
       inkscape:collect="always"
       xlink:href="#linearGradient5170"
       id="linearGradient2546"
       gradientUnits="userSpaceOnUse"
       gradientTransform="matrix(0.728114,-1.619744e-2,3.170042e-2,1.425011,-411.8219,-163.2111)"
       x1="149.29594"
       y1="234.90770"
       x2="409.73569"
       y2="154.10789" />
    <linearGradient
       id="linearGradient5170">
      <stop
         style="stop-color:#8f8fa6;stop-opacity:1.0000000;"
         offset="0.0000000"
         id="stop5171" />
      <stop
         style="stop-color:#ffffff;stop-opacity:1.0000000;"
         offset="1.0000000"
         id="stop5172" />
    </linearGradient>
    <linearGradient
       inkscape:collect="always"
       xlink:href="#light90to0"
       id="linearGradient2543"
       gradientUnits="userSpaceOnUse"
       gradientTransform="matrix(0.728114,-1.619744e-2,3.170042e-2,1.425011,-411.8219,-163.2111)"
       x1="304.64722"
       y1="96.190353"
       x2="299.20441"
       y2="145.69553" />
    <linearGradient
       id="light90to0">
      <stop
         style="stop-color:#ffffff;stop-opacity:0.90196079;"
         offset="0.0000000"
         id="stop1890" />
      <stop
         style="stop-color:#ffffff;stop-opacity:0.0000000;"
         offset="1.0000000"
         id="stop1892" />
    </linearGradient>
    <radialGradient
       inkscape:collect="always"
       xlink:href="#light90to0"
       id="radialGradient2540"
       gradientUnits="userSpaceOnUse"
       gradientTransform="matrix(0.901404,-2.005241e-2,2.560619e-2,1.151060,-411.8219,-163.2111)"
       cx="330.11304"
       cy="224.77423"
       fx="328.27005"
       fy="224.28973"
       r="105.02886" />
    <linearGradient
       y2="145.69553"
       x2="299.20441"
       y1="96.190353"
       x1="304.64722"
       gradientTransform="matrix(0.728114,-1.619744e-2,3.170042e-2,1.425011,-411.8219,-163.2111)"
       gradientUnits="userSpaceOnUse"
       id="linearGradient4357"
       xlink:href="#light90to0"
       inkscape:collect="always" />
  </defs>
  <sodipodi:namedview
     inkscape:window-y="313"
     inkscape:window-x="374"
     inkscape:window-height="536"
     inkscape:window-width="640"
     inkscape:grid-bbox="true"
     inkscape:document-units="px"
     showgrid="true"
     inkscape:current-layer="g4282"
     inkscape:cy="32.000000"
     inkscape:cx="32.000000"
     inkscape:zoom="5.5000000"
     inkscape:pageshadow="2"
     inkscape:pageopacity="0.0"
     borderopacity="1.0"
     bordercolor="#666666"
     pagecolor="#ffffff"
     id="base" />
  <metadata
     id="metadata4">
    <rdf:RDF
       id="RDF5">
      <cc:Work
         id="Work6"
         rdf:about="">
        <dc:format
           id="format7">image/svg+xml</dc:format>
        <dc:type
           rdf:resource="http://purl.org/dc/dcmitype/StillImage"
           id="type9" />
      </cc:Work>
    </rdf:RDF>
  </metadata>
  <g
     inkscape:groupmode="layer"
     inkscape:label="Layer 1"
     id="layer1">
    <g
       transform="translate(5.848195,-15.59092)"
       id="g4282"
       inkscape:label="Layer 1"
       inkscape:groupmode="layer">
      <g
         style="opacity:0.50592885"
         transform="matrix(1.000662,0.000000,0.000000,-0.934417,-1.221541,90.93669)"
         id="g2519">
        <path
           sodipodi:nodetypes="ccccccccscscc"
           id="path2521"
           d="M 40.186294,19.070575 C 26.912475,12.919584 12.030857,15.594782 3.9215436,29.096340 L -3.9916907,25.351409 L 4.0562543,45.225917 L 23.204496,38.265908 L 15.052194,34.410194 C 20.202551,25.134687 31.058839,23.888502 39.266576,27.691908 C 49.367728,32.372708 53.391324,45.538705 48.299287,57.070273 C 43.207250,68.601840 30.772470,72.398331 20.406568,71.049104 L 9.8605823,69.676454 L 16.456049,72.810741 C 31.230807,79.831967 48.653273,73.233423 55.204184,58.398050 C 61.755085,43.562698 55.028805,25.948487 40.186294,19.070575 z "
           style="fill:url(#linearGradient2541);fill-opacity:1.0000000;fill-rule:evenodd;stroke:url(#linearGradient4357);stroke-width:1.0425172pt;stroke-linecap:butt;stroke-linejoin:round;stroke-opacity:1.0000000" />
        <path
           sodipodi:nodetypes="ccccccccc"
           id="path2523"
           d="M 40.182378,19.075105 C 26.908574,12.924115 12.026316,15.591225 3.9170196,29.092787 L -3.9968051,25.354988 L -0.95864516,32.850921 C -0.68153229,31.729193 -0.28631932,30.715148 0.59561575,30.818288 C 2.6480703,31.058316 4.9819474,37.853396 6.5605791,34.164748 C 11.670251,25.205381 21.376559,15.701699 40.252216,22.005743 C 40.930271,22.122864 42.293944,20.816696 42.955295,20.536522 C 42.067263,20.007485 41.139257,19.518516 40.182378,19.075105 z "
           style="fill:url(#radialGradient2545);fill-opacity:1.0000000;fill-rule:evenodd;stroke:none;stroke-width:1.0000000pt;stroke-linecap:butt;stroke-linejoin:round;stroke-opacity:1.0000000" />
        <path
           sodipodi:nodetypes="ccccccccscscc"
           id="path2525"
           d="M 40.185624,19.070443 C 26.911820,12.919453 12.030222,15.594653 3.9209256,29.096215 L -3.9923001,25.351284 L 4.0556427,45.225795 L 23.203857,38.265781 L 15.051564,34.410068 C 20.201910,25.134559 31.058184,23.888372 39.265910,27.691776 C 49.367055,32.372578 53.390651,45.538576 48.298625,57.070146 C 43.206599,68.601717 30.771838,72.398208 20.405948,71.048983 L 9.8599735,69.676335 L 16.455433,72.810620 C 31.230176,79.831845 48.652616,73.233297 55.203512,58.397922 C 61.754399,43.562567 55.028118,25.948353 40.185624,19.070443 z "
           style="fill:url(#linearGradient2547);fill-opacity:1.0000000;fill-rule:evenodd;stroke:none;stroke-width:1.0000000pt;stroke-linecap:butt;stroke-linejoin:round;stroke-opacity:1.0000000" />
        <path
           sodipodi:nodetypes="ccccc"
           id="path2527"
           d="M 3.9382048,44.984525 L 4.0487684,45.229872 L 23.206912,38.260996 L 15.055455,34.413081 C 20.205801,25.137572 7.8108842,35.833433 3.9382048,44.984525 z "
           style="fill:url(#radialGradient2549);fill-opacity:1.0000000;fill-rule:evenodd;stroke:none;stroke-width:1.0000000pt;stroke-linecap:butt;stroke-linejoin:round;stroke-opacity:1.0000000" />
        <path
           sodipodi:nodetypes="ccccccccscscc"
           id="path2529"
           d="M 40.186294,19.070575 C 26.912475,12.919584 12.030857,15.594782 3.9215436,29.096340 L -3.9916907,25.351409 L 4.0562543,45.225917 L 23.204496,38.265908 L 15.052194,34.410194 C 20.202551,25.134687 31.058839,23.888502 39.266576,27.691908 C 49.367728,32.372708 53.391324,45.538705 48.299287,57.070273 C 43.207250,68.601840 30.772470,72.398331 20.406568,71.049104 L 9.8605823,69.676454 L 16.456049,72.810741 C 31.230807,79.831967 48.653273,73.233423 55.204184,58.398050 C 61.755085,43.562698 55.028805,25.948487 40.186294,19.070575 z "
           style="fill:url(#radialGradient2551);fill-opacity:1.0000000;fill-rule:evenodd;stroke:url(#linearGradient2553);stroke-width:1.0425172pt;stroke-linecap:butt;stroke-linejoin:round;stroke-opacity:1.0000000" />
        <path
           sodipodi:nodetypes="ccccccccc"
           id="path2535"
           d="M 40.182378,19.075105 C 26.908574,12.924115 12.026316,15.591225 3.9170196,29.092787 L -3.9968051,25.354988 L -0.95864516,32.850921 C -0.68153229,31.729193 -0.28631932,30.715148 0.59561575,30.818288 C 2.6480703,31.058316 4.9819474,37.853396 6.5605791,34.164748 C 11.670251,25.205381 21.376559,15.701699 40.252216,22.005743 C 40.930271,22.122864 42.293944,20.816696 42.955295,20.536522 C 42.067263,20.007485 41.139257,19.518516 40.182378,19.075105 z "
           style="fill:url(#radialGradient2559);fill-opacity:1.0000000;fill-rule:evenodd;stroke:none;stroke-width:1.0000000pt;stroke-linecap:butt;stroke-linejoin:round;stroke-opacity:1.0000000" />
        <path
           sodipodi:nodetypes="ccccccccscscc"
           id="path2537"
           d="M 40.185685,19.070394 C 26.911864,12.919403 12.030245,15.594588 3.9209251,29.096164 L -3.9923099,25.351226 L 4.0556479,45.225717 L 23.203887,38.265723 L 15.051585,34.410004 C 20.201935,25.134515 31.058224,23.888330 39.265962,27.691735 C 49.367118,32.372536 53.390735,45.538515 48.298692,57.070096 C 43.206659,68.601652 30.771882,72.398136 20.405967,71.048911 L 9.8599778,69.676254 L 16.455444,72.810547 C 31.230207,79.831756 48.652682,73.233221 55.203586,58.397864 C 61.754490,43.562508 55.028192,25.948302 40.185685,19.070394 z "
           style="fill:url(#linearGradient2561);fill-opacity:1.0000000;fill-rule:evenodd;stroke:none;stroke-width:1.0000000pt;stroke-linecap:butt;stroke-linejoin:round;stroke-opacity:1.0000000" />
        <path
           sodipodi:nodetypes="ccccc"
           id="path2539"
           d="M 3.9382048,44.984525 L 4.0487684,45.229872 L 23.206912,38.260996 L 15.055455,34.413081 C 20.205801,25.137572 7.8108842,35.833433 3.9382048,44.984525 z "
           style="fill:url(#radialGradient2563);fill-opacity:1.0000000;fill-rule:evenodd;stroke:none;stroke-width:1.0000000pt;stroke-linecap:butt;stroke-linejoin:round;stroke-opacity:1.0000000" />
      </g>
      <g
         transform="matrix(0.846790,0.000000,0.000000,0.763637,4.405529,10.22378)"
         id="g4123">
        <path
           id="path4202"
           d="M 27.577358,33.868836 L 27.451965,64.062880"
           style="fill:none;fill-opacity:1.0000000;fill-rule:evenodd;stroke:url(#linearGradient4127);stroke-width:0.98760128pt;stroke-linecap:butt;stroke-linejoin:miter;stroke-opacity:1.0000000" />
        <path
           id="path4203"
           d="M 15.679364,49.035931 L 40.484145,49.061467 L 40.484145,49.061467"
           style="fill:none;fill-opacity:1.0000000;fill-rule:evenodd;stroke:url(#linearGradient4129);stroke-width:1.0425172pt;stroke-linecap:butt;stroke-linejoin:miter;stroke-opacity:1.0000000" />
      </g>
      <g
         transform="translate(-1.204931,0.356818)"
         id="g4131">
        <path
           sodipodi:nodetypes="ccccccccscscc"
           id="path4195"
           d="M 40.186294,19.070575 C 26.912475,12.919584 12.030857,15.594782 3.9215436,29.096340 L -3.9916907,25.351409 L 4.0562543,45.225917 L 23.204496,38.265908 L 15.052194,34.410194 C 20.202551,25.134687 31.058839,23.888502 39.266576,27.691908 C 49.367728,32.372708 53.391324,45.538705 48.299287,57.070273 C 43.207250,68.601840 30.772470,72.398331 20.406568,71.049104 L 9.8605823,69.676454 L 16.456049,72.810741 C 31.230807,79.831967 48.653273,73.233423 55.204184,58.398050 C 61.755085,43.562698 55.028805,25.948487 40.186294,19.070575 z "
           style="fill:url(#linearGradient4119);fill-opacity:1.0000000;fill-rule:evenodd;stroke:url(#linearGradient4121);stroke-width:1.0425172pt;stroke-linecap:butt;stroke-linejoin:round;stroke-opacity:1.0000000" />
        <path
           sodipodi:nodetypes="ccccccccc"
           id="path4198"
           d="M 40.182378,19.075105 C 26.908574,12.924115 12.026316,15.591225 3.9170196,29.092787 L -3.9968051,25.354988 L -0.95864516,32.850921 C -0.68153229,31.729193 -0.28631932,30.715148 0.59561575,30.818288 C 2.6480703,31.058316 4.9819474,37.853396 6.5605791,34.164748 C 11.670251,25.205381 21.376559,15.701699 40.252216,22.005743 C 40.930271,22.122864 42.293944,20.816696 42.955295,20.536522 C 42.067263,20.007485 41.139257,19.518516 40.182378,19.075105 z "
           style="fill:url(#radialGradient4116);fill-opacity:1.0000000;fill-rule:evenodd;stroke:none;stroke-width:1.0000000pt;stroke-linecap:butt;stroke-linejoin:round;stroke-opacity:1.0000000" />
        <path
           sodipodi:nodetypes="ccccccccscscc"
           id="path4199"
           d="M 40.185624,19.070443 C 26.911820,12.919453 12.030222,15.594653 3.9209256,29.096215 L -3.9923001,25.351284 L 4.0556427,45.225795 L 23.203857,38.265781 L 15.051564,34.410068 C 20.201910,25.134559 31.058184,23.888372 39.265910,27.691776 C 49.367055,32.372578 53.390651,45.538576 48.298625,57.070146 C 43.206599,68.601717 30.771838,72.398208 20.405948,71.048983 L 9.8599735,69.676335 L 16.455433,72.810620 C 31.230176,79.831845 48.652616,73.233297 55.203512,58.397922 C 61.754399,43.562567 55.028118,25.948353 40.185624,19.070443 z "
           style="fill:url(#linearGradient4113);fill-opacity:1.0000000;fill-rule:evenodd;stroke:none;stroke-width:1.0000000pt;stroke-linecap:butt;stroke-linejoin:round;stroke-opacity:1.0000000" />
        <path
           sodipodi:nodetypes="ccccc"
           id="path4200"
           d="M 3.9382048,44.984525 L 4.0487684,45.229872 L 23.206912,38.260996 L 15.055455,34.413081 C 20.205801,25.137572 7.8108842,35.833433 3.9382048,44.984525 z "
           style="fill:url(#radialGradient4110);fill-opacity:1.0000000;fill-rule:evenodd;stroke:none;stroke-width:1.0000000pt;stroke-linecap:butt;stroke-linejoin:round;stroke-opacity:1.0000000" />
        <path
           sodipodi:nodetypes="ccccccccscscc"
           id="path4201"
           d="M 40.186294,19.070575 C 26.912475,12.919584 12.030857,15.594782 3.9215436,29.096340 L -3.9916907,25.351409 L 4.0562543,45.225917 L 23.204496,38.265908 L 15.052194,34.410194 C 20.202551,25.134687 31.058839,23.888502 39.266576,27.691908 C 49.367728,32.372708 53.391324,45.538705 48.299287,57.070273 C 43.207250,68.601840 30.772470,72.398331 20.406568,71.049104 L 9.8605823,69.676454 L 16.456049,72.810741 C 31.230807,79.831967 48.653273,73.233423 55.204184,58.398050 C 61.755085,43.562698 55.028805,25.948487 40.186294,19.070575 z "
           style="fill:url(#radialGradient4105);fill-opacity:1.0000000;fill-rule:evenodd;stroke:url(#linearGradient4107);stroke-width:1.0425172pt;stroke-linecap:butt;stroke-linejoin:round;stroke-opacity:1.0000000" />
        <path
           sodipodi:nodetypes="ccccccccc"
           id="path4204"
           d="M 40.182378,19.075105 C 26.908574,12.924115 12.026316,15.591225 3.9170196,29.092787 L -3.9968051,25.354988 L -0.95864516,32.850921 C -0.68153229,31.729193 -0.28631932,30.715148 0.59561575,30.818288 C 2.6480703,31.058316 4.9819474,37.853396 6.5605791,34.164748 C 11.670251,25.205381 21.376559,15.701699 40.252216,22.005743 C 40.930271,22.122864 42.293944,20.816696 42.955295,20.536522 C 42.067263,20.007485 41.139257,19.518516 40.182378,19.075105 z "
           style="fill:url(#radialGradient4096);fill-opacity:1.0000000;fill-rule:evenodd;stroke:none;stroke-width:1.0000000pt;stroke-linecap:butt;stroke-linejoin:round;stroke-opacity:1.0000000" />
        <path
           sodipodi:nodetypes="ccccccccscscc"
           id="path4205"
           d="M 40.185685,19.070394 C 26.911864,12.919403 12.030245,15.594588 3.9209251,29.096164 L -3.9923099,25.351226 L 4.0556479,45.225717 L 23.203887,38.265723 L 15.051585,34.410004 C 20.201935,25.134515 31.058224,23.888330 39.265962,27.691735 C 49.367118,32.372536 53.390735,45.538515 48.298692,57.070096 C 43.206659,68.601652 30.771882,72.398136 20.405967,71.048911 L 9.8599778,69.676254 L 16.455444,72.810547 C 31.230207,79.831756 48.652682,73.233221 55.203586,58.397864 C 61.754490,43.562508 55.028192,25.948302 40.185685,19.070394 z "
           style="fill:url(#linearGradient4093);fill-opacity:1.0000000;fill-rule:evenodd;stroke:none;stroke-width:1.0000000pt;stroke-linecap:butt;stroke-linejoin:round;stroke-opacity:1.0000000" />
        <path
           sodipodi:nodetypes="ccccc"
           id="path4206"
           d="M 3.9382048,44.984525 L 4.0487684,45.229872 L 23.206912,38.260996 L 15.055455,34.413081 C 20.205801,25.137572 7.8108842,35.833433 3.9382048,44.984525 z "
           style="fill:url(#radialGradient4090);fill-opacity:1.0000000;fill-rule:evenodd;stroke:none;stroke-width:1.0000000pt;stroke-linecap:butt;stroke-linejoin:round;stroke-opacity:1.0000000" />
      </g>
      <g
         id="g3338"
         transform="matrix(0.156513,0.000000,0.000000,0.150898,74.00577,48.90079)">
        <path
           style="fill:#000000;fill-opacity:0.043290023;fill-rule:evenodd;stroke:none;stroke-width:28.424999;stroke-linecap:butt;stroke-linejoin:round;stroke-miterlimit:4.0000000;stroke-opacity:1.0000000"
           d="M -240.44301,-68.316144 C -243.86112,-68.437500 -247.18046,-67.085045 -249.64814,-64.565534 C -252.11582,-62.046023 -253.52270,-58.572981 -253.54972,-54.934140 L -254.63730,106.45107 C -254.66290,110.87231 -252.65163,115.02652 -249.25347,117.57112 C -245.85534,120.11570 -241.50131,120.72794 -237.59857,119.20995 L -202.79604,105.62026 L -165.26064,194.27975 C -162.39536,201.06289 -154.91288,204.10154 -148.52866,201.07460 L -117.71393,186.44639 C -114.62153,184.97749 -112.20960,182.25380 -111.01533,178.88192 C -109.82107,175.51006 -109.94366,171.77005 -111.35579,168.49491 L -148.13826,83.128988 L -118.55053,70.132717 C -114.52764,68.363354 -111.63849,64.522605 -110.89718,59.958553 C -110.15587,55.394503 -111.66594,50.744795 -114.89739,47.641453 L -232.38377,-64.874209 C -234.60587,-66.994765 -237.45964,-68.213555 -240.44301,-68.316144 z "
           id="path3326"
           sodipodi:nodetypes="cccccccccccccccccc" />
        <path
           style="fill:#000000;fill-opacity:0.043290023;fill-rule:evenodd;stroke:none;stroke-width:28.424999;stroke-linecap:butt;stroke-linejoin:round;stroke-miterlimit:4.0000000;stroke-opacity:1.0000000"
           d="M -239.69867,-68.316081 C -243.29602,-68.438456 -246.78942,-67.074643 -249.38650,-64.533974 C -251.98358,-61.993304 -253.46424,-58.491096 -253.49268,-54.821696 L -254.63729,107.91881 C -254.66423,112.37718 -252.54749,116.56628 -248.97114,119.13225 C -245.39481,121.69820 -240.81246,122.31558 -236.70507,120.78484 L -200.07755,107.08102 L -160.57385,196.48507 C -157.55832,203.32517 -149.68346,206.38934 -142.96447,203.33698 L -110.53386,188.58592 C -107.27930,187.10469 -104.74089,184.35812 -103.48399,180.95793 C -102.22711,177.55775 -102.35612,173.78633 -103.84230,170.48369 L -142.55359,84.400872 L -111.41433,71.295460 C -107.18048,69.511238 -104.13983,65.638235 -103.35965,61.035854 C -102.57946,56.433476 -104.16872,51.744720 -107.56962,48.615317 L -231.21681,-64.845241 C -233.55544,-66.983605 -236.55886,-68.212630 -239.69867,-68.316081 z "
           id="path3324"
           sodipodi:nodetypes="cccccccccccccccccc" />
        <path
           style="fill:#000000;fill-opacity:0.043290023;fill-rule:evenodd;stroke:none;stroke-width:28.424999;stroke-linecap:butt;stroke-linejoin:round;stroke-miterlimit:4.0000000;stroke-opacity:1.0000000"
           d="M -239.17763,-68.315892 C -242.90045,-68.441324 -246.51569,-67.043438 -249.20335,-64.439293 C -251.89102,-61.835147 -253.42332,-58.245440 -253.45275,-54.484364 L -254.63728,112.32203 C -254.66516,116.89179 -252.47459,121.18555 -248.77351,123.81563 C -245.07244,126.44569 -240.33027,127.07849 -236.07962,125.50951 L -198.17461,111.46331 L -157.29309,203.10102 C -154.17239,210.11202 -146.02287,213.25274 -139.06953,210.12412 L -105.50781,195.00452 C -102.13974,193.48628 -99.512796,190.67109 -98.212058,187.18595 C -96.911332,183.70082 -97.044845,179.83518 -98.582864,176.45003 L -138.64432,88.216525 L -106.41899,74.783689 C -102.03747,72.954890 -98.890772,68.985124 -98.083380,64.267758 C -97.275977,59.550395 -98.920664,54.744495 -102.44018,51.536908 L -230.39994,-64.758337 C -232.82014,-66.950125 -235.92831,-68.209856 -239.17763,-68.315892 z "
           id="path3322"
           sodipodi:nodetypes="cccccccccccccccccc" />
        <path
           style="fill:#000000;fill-opacity:0.077922054;fill-rule:evenodd;stroke:none;stroke-width:28.424999;stroke-linecap:butt;stroke-linejoin:round;stroke-miterlimit:4.0000000;stroke-opacity:1.0000000"
           d="M -238.73102,-68.315744 C -242.56139,-68.443555 -246.28106,-67.019167 -249.04636,-64.365652 C -251.81167,-61.712136 -253.38825,-58.054374 -253.41852,-54.221994 L -254.63727,115.74676 C -254.66596,120.40315 -252.41210,124.77832 -248.60411,127.45825 C -244.79612,130.13818 -239.91695,130.78298 -235.54352,129.18426 L -196.54352,114.87176 L -154.48102,208.24676 C -151.27015,215.39068 -142.88521,218.59094 -135.73102,215.40301 L -101.19977,199.99676 C -97.734393,198.44974 -95.031563,195.58118 -93.693253,192.02998 C -92.354953,188.47877 -92.492323,184.53985 -94.074773,181.09051 L -135.29352,91.184256 L -102.13727,77.496756 C -97.629183,75.633286 -94.391583,71.588260 -93.560853,66.781462 C -92.730133,61.974665 -94.422333,57.077654 -98.043523,53.809256 L -229.69977,-64.690744 C -232.18988,-66.924085 -235.38785,-68.207698 -238.73102,-68.315744 z "
           id="path2558"
           sodipodi:nodetypes="cccccccccccccccccc" />
        <path
           d="M -241.66309,-58.084431 L -242.76576,107.59433 L -196.25894,89.190355 L -153.29571,191.98354 L -122.06466,176.97007 L -164.91406,76.222367 L -122.59258,57.413445 L -241.66309,-58.084431 z "
           style="fill:url(#linearGradient2546);fill-opacity:1.0000000;fill-rule:evenodd;stroke:#000000;stroke-width:12.246215pt;stroke-linecap:butt;stroke-linejoin:round;stroke-opacity:1.0000000"
           id="path4041"
           sodipodi:nodetypes="cccccccc" />
        <path
           style="fill:url(#linearGradient2543);fill-opacity:1.0000000;fill-rule:evenodd;stroke:none;stroke-width:12.019479pt;stroke-linecap:butt;stroke-linejoin:round;stroke-opacity:1.0000000"
           d="M -242.09167,-56.572017 C -244.06020,-55.969913 -243.33928,-51.783768 -243.42392,-50.574436 L -244.57843,106.76204 C -232.57792,94.476986 -190.75933,112.21309 -208.57692,69.906898 C -241.68022,-20.399695 -143.86250,26.863280 -189.91859,-12.415651 L -234.27306,-54.421089 C -236.85111,-56.634472 -239.21729,-59.170144 -242.09167,-56.572017 z "
           id="path4083"
           sodipodi:nodetypes="ccccccc" />
        <path
           style="fill:url(#radialGradient2540);fill-opacity:1.0000000;fill-rule:evenodd;stroke:none;stroke-width:12.019479pt;stroke-linecap:butt;stroke-linejoin:round;stroke-opacity:1.0000000"
           d="M -231.15568,104.21768 L -196.26907,89.193189 L -153.28120,191.99565 L -122.05471,176.96967 L -164.90106,76.234144 L -121.86062,58.665340 C -161.28054,43.574062 -227.81908,82.437212 -231.15568,104.21768 z "
           id="path4096"
           sodipodi:nodetypes="ccccccc" />
      </g>
    </g>
  </g>
</svg>
