<?xml version="1.0" encoding="UTF-8" standalone="no"?>
<!-- Created with Inkscape (http://www.inkscape.org/) -->
<svg
   xmlns:dc="http://purl.org/dc/elements/1.1/"
   xmlns:cc="http://web.resource.org/cc/"
   xmlns:rdf="http://www.w3.org/1999/02/22-rdf-syntax-ns#"
   xmlns:svg="http://www.w3.org/2000/svg"
   xmlns="http://www.w3.org/2000/svg"
   xmlns:xlink="http://www.w3.org/1999/xlink"
   xmlns:sodipodi="http://inkscape.sourceforge.net/DTD/sodipodi-0.dtd"
   xmlns:inkscape="http://www.inkscape.org/namespaces/inkscape"
   sodipodi:docname="colorpicker2.svg"
   sodipodi:docbase="/home/pinheiro/artwork/oooicons/crystalsvg"
   inkscape:version="0.42"
   sodipodi:version="0.32"
   id="svg1592"
   height="22.000000px"
   width="22.000000px"
   inkscape:export-filename="/home/pinheiro/artwork/oooicons/crystalsvg/colorpicker248.png"
   inkscape:export-xdpi="196.36363"
   inkscape:export-ydpi="196.36363">
  <defs
     id="defs3">
    <linearGradient
       id="sadow75to0w">
      <stop
         style="stop-color:#000000;stop-opacity:0.72941178;"
         offset="0.0000000"
         id="stop3429" />
      <stop
         style="stop-color:#ffffff;stop-opacity:0.0000000;"
         offset="1.0000000"
         id="stop3430" />
    </linearGradient>
    <linearGradient
       id="light100to75to0">
      <stop
         style="stop-color:#ffffff;stop-opacity:1.0000000;"
         offset="0.0000000"
         id="stop2779" />
      <stop
         style="stop-color:#ffffff;stop-opacity:0.77499998;"
         offset="0.50000000"
         id="stop2782" />
      <stop
         style="stop-color:#ffffff;stop-opacity:0.0000000;"
         offset="1.0000000"
         id="stop2780" />
    </linearGradient>
    <linearGradient
       id="greylighttograyw">
      <stop
         style="stop-color:#b5b5b8;stop-opacity:1.0000000;"
         offset="0.0000000"
         id="stop575" />
      <stop
         style="stop-color:#ebebee;stop-opacity:1.0000000;"
         offset="1.0000000"
         id="stop576" />
    </linearGradient>
    <linearGradient
       id="light100to0">
      <stop
         style="stop-color:#ffffff;stop-opacity:1.0000000;"
         offset="0.0000000"
         id="stop2764" />
      <stop
         style="stop-color:#ffffff;stop-opacity:0.0000000;"
         offset="1.0000000"
         id="stop2765" />
    </linearGradient>
    <linearGradient
       id="zerotowhitetozero">
      <stop
         style="stop-color:#ffffff;stop-opacity:0.0000000;"
         offset="0.0000000"
         id="stop3155" />
      <stop
         style="stop-color:#ffffff;stop-opacity:0.0000000;"
         offset="0.33462518"
         id="stop3156" />
      <stop
         style="stop-color:#ffffff;stop-opacity:1.0000000;"
         offset="0.55554277"
         id="stop3157" />
      <stop
         style="stop-color:#ffffff;stop-opacity:0.0000000;"
         offset="0.74528182"
         id="stop3158" />
      <stop
         style="stop-color:#ffffff;stop-opacity:0.0000000;"
         offset="1.0000000"
         id="stop3159" />
    </linearGradient>
    <linearGradient
       id="greandarktobgrean">
      <stop
         style="stop-color:#00ad01;stop-opacity:1.0000000;"
         offset="0.0000000"
         id="stop4492" />
      <stop
         style="stop-color:#15720f;stop-opacity:1.0000000;"
         offset="1.0000000"
         id="stop4493" />
    </linearGradient>
    <linearGradient
       id="greandraktoblack">
      <stop
         style="stop-color:#007c00;stop-opacity:1.0000000;"
         offset="0.0000000"
         id="stop7328" />
      <stop
         style="stop-color:#025a00;stop-opacity:1.0000000;"
         offset="1.0000000"
         id="stop7329" />
    </linearGradient>
    <linearGradient
       id="graytoblack">
      <stop
         style="stop-color:#7d7d7d;stop-opacity:1.0000000;"
         offset="0.0000000"
         id="stop5097" />
      <stop
         style="stop-color:#000000;stop-opacity:1.0000000;"
         offset="1.0000000"
         id="stop5098" />
    </linearGradient>
    <linearGradient
       id="light75to0">
      <stop
         id="stop2769"
         offset="0.0000000"
         style="stop-color:#ffffff;stop-opacity:0.72916669;" />
      <stop
         id="stop2770"
         offset="1.0000000"
         style="stop-color:#ffffff;stop-opacity:0.0000000;" />
    </linearGradient>
    <linearGradient
       id="greantodarkgrean">
      <stop
         id="stop5123"
         offset="0.0000000"
         style="stop-color:#00ff01;stop-opacity:1.0000000;" />
      <stop
         id="stop5124"
         offset="1.0000000"
         style="stop-color:#15980f;stop-opacity:1.0000000;" />
    </linearGradient>
    <radialGradient
       gradientUnits="userSpaceOnUse"
       id="blueligtmoretoblue"
       fy="112.96090"
       fx="38.797401"
       r="67.358803"
       cy="112.96090"
       cx="38.797401">
      <stop
         id="stop3457"
         offset="0.0055999998"
         style="stop-color:#d9ffff;stop-opacity:1.0000000;" />
      <stop
         id="stop3465"
         offset="0.74217570"
         style="stop-color:#6eaafe;stop-opacity:1.0000000;" />
      <stop
         id="stop3463"
         offset="1.0000000"
         style="stop-color:#0356fe;stop-opacity:1.0000000;" />
    </radialGradient>
    <radialGradient
       gradientUnits="userSpaceOnUse"
       id="bluedarktoblackblue"
       fy="112.96090"
       fx="38.797401"
       r="67.358803"
       cy="112.96090"
       cx="38.797401">
      <stop
         id="stop2959"
         offset="0.0000000"
         style="stop-color:#0356fe;stop-opacity:1.0000000;" />
      <stop
         id="stop2960"
         offset="1.0000000"
         style="stop-color:#032442;stop-opacity:1.0000000;" />
    </radialGradient>
    <linearGradient
       id="redtodarkred">
      <stop
         id="stop3856"
         offset="0.0000000"
         style="stop-color:#ff0000;stop-opacity:1.0000000;" />
      <stop
         id="stop3855"
         offset="1.0000000"
         style="stop-color:#920000;stop-opacity:1.0000000;" />
    </linearGradient>
    <linearGradient
       id="reddarktoblack">
      <stop
         id="stop3230"
         offset="0.0000000"
         style="stop-color:#8e0000;stop-opacity:1.0000000;" />
      <stop
         id="stop3231"
         offset="1.0000000"
         style="stop-color:#000000;stop-opacity:1.0000000;" />
    </linearGradient>
    <linearGradient
       id="light90to0">
      <stop
         id="stop1890"
         offset="0.0000000"
         style="stop-color:#ffffff;stop-opacity:0.90833336;" />
      <stop
         id="stop1892"
         offset="1.0000000"
         style="stop-color:#ffffff;stop-opacity:0.0000000;" />
    </linearGradient>
    <linearGradient
       id="blacktowhite">
      <stop
         id="stop2476"
         offset="0.0000000"
         style="stop-color:#000000;stop-opacity:1.0000000;" />
      <stop
         id="stop2475"
         offset="1.0000000"
         style="stop-color:#ffffff;stop-opacity:1.0000000;" />
    </linearGradient>
    <linearGradient
       y2="52.754902"
       x2="80.019501"
       y1="52.754902"
       x1="26.843800"
       gradientUnits="userSpaceOnUse"
       id="multicolor">
      <stop
         id="stop110"
         style="stop-color:rgb(255,0,0)"
         offset="0" />
      <stop
         id="stop112"
         style="stop-color:rgb(255,177,0)"
         offset="0.236" />
      <stop
         id="stop114"
         style="stop-color:rgb(0,192,0)"
         offset="0.4775" />
      <stop
         id="stop116"
         style="stop-color:rgb(0,0,255)"
         offset="0.8" />
      <stop
         id="stop118"
         style="stop-color:rgb(255,2,255)"
         offset="1" />
    </linearGradient>
    <linearGradient
       inkscape:collect="always"
       xlink:href="#graytoblack"
       id="linearGradient1756"
       gradientUnits="userSpaceOnUse"
       gradientTransform="scale(1.014829,0.985388)"
       x1="-426.86380"
       y1="-529.27637"
       x2="-279.99734"
       y2="-351.53336" />
    <linearGradient
       inkscape:collect="always"
       xlink:href="#greandraktoblack"
       id="linearGradient1758"
       gradientUnits="userSpaceOnUse"
       gradientTransform="matrix(1.085489,-0.277106,-0.134433,0.955562,-4.832523e-13,-4.743982e-13)"
       spreadMethod="reflect"
       x1="-406.36154"
       y1="-852.35785"
       x2="-303.30316"
       y2="-643.52313" />
    <linearGradient
       inkscape:collect="always"
       xlink:href="#greandarktobgrean"
       id="linearGradient1760"
       gradientUnits="userSpaceOnUse"
       gradientTransform="matrix(0.165426,-4.384578e-2,-1.898738e-2,0.145287,-614.6689,-246.6268)"
       spreadMethod="reflect"
       x1="139.79741"
       y1="100.63807"
       x2="198.67084"
       y2="227.49260" />
    <linearGradient
       inkscape:collect="always"
       xlink:href="#greandraktoblack"
       id="linearGradient1762"
       gradientUnits="userSpaceOnUse"
       gradientTransform="matrix(0.163150,-4.324279e-2,-1.925222e-2,0.147313,-623.7133,-249.0598)"
       x1="211.31139"
       y1="208.29716"
       x2="186.14693"
       y2="101.48473" />
    <linearGradient
       inkscape:collect="always"
       xlink:href="#zerotowhitetozero"
       id="linearGradient1764"
       gradientUnits="userSpaceOnUse"
       gradientTransform="matrix(0.165829,-5.173052e-2,-1.826319e-2,0.197436,-628.6676,-249.7811)"
       spreadMethod="reflect"
       x1="239.13113"
       y1="150.76836"
       x2="219.65416"
       y2="118.38348" />
    <linearGradient
       inkscape:collect="always"
       xlink:href="#zerotowhitetozero"
       id="linearGradient1768"
       gradientUnits="userSpaceOnUse"
       gradientTransform="matrix(0.165829,-5.173052e-2,-1.826319e-2,0.197436,-628.6676,-249.7811)"
       spreadMethod="reflect"
       x1="239.13113"
       y1="150.76836"
       x2="219.65416"
       y2="118.38348" />
    <linearGradient
       inkscape:collect="always"
       xlink:href="#zerotowhitetozero"
       id="linearGradient1770"
       gradientUnits="userSpaceOnUse"
       gradientTransform="matrix(0.165829,-5.173052e-2,-1.826319e-2,0.197436,-628.6676,-249.7811)"
       spreadMethod="reflect"
       x1="239.13113"
       y1="150.76836"
       x2="219.65416"
       y2="118.38348" />
    <linearGradient
       inkscape:collect="always"
       xlink:href="#zerotowhitetozero"
       id="linearGradient1772"
       gradientUnits="userSpaceOnUse"
       gradientTransform="matrix(0.165829,-5.173052e-2,-1.826319e-2,0.197436,-628.6676,-249.7811)"
       spreadMethod="reflect"
       x1="239.13113"
       y1="150.76836"
       x2="219.65416"
       y2="118.38348" />
    <linearGradient
       inkscape:collect="always"
       xlink:href="#greandarktobgrean"
       id="linearGradient1774"
       gradientUnits="userSpaceOnUse"
       gradientTransform="matrix(1.063407,-0.310015,-0.107235,0.971636,-3.025914e-13,3.907985e-14)"
       spreadMethod="reflect"
       x1="-607.02917"
       y1="-436.17172"
       x2="-601.16077"
       y2="-429.79779" />
    <linearGradient
       inkscape:collect="always"
       xlink:href="#greandraktoblack"
       id="linearGradient1776"
       gradientUnits="userSpaceOnUse"
       gradientTransform="matrix(1.048782,-0.305752,-0.108731,0.985186,-3.025914e-13,3.907985e-14)"
       x1="-614.11633"
       y1="-430.20041"
       x2="-613.35199"
       y2="-428.42480" />
    <linearGradient
       inkscape:collect="always"
       xlink:href="#greandarktobgrean"
       id="linearGradient1778"
       gradientUnits="userSpaceOnUse"
       gradientTransform="matrix(7.470016e-2,6.828522e-2,-2.777414e-2,3.139757e-2,-606.6362,-251.3928)"
       x1="184.86623"
       y1="227.44664"
       x2="187.18298"
       y2="123.06261" />
    <linearGradient
       inkscape:collect="always"
       xlink:href="#zerotowhitetozero"
       id="linearGradient1780"
       gradientUnits="userSpaceOnUse"
       gradientTransform="matrix(4.666024e-2,4.366770e-3,7.470758e-3,7.102536e-2,-570.7207,-206.9104)"
       x1="-492.07742"
       y1="-417.90485"
       x2="-417.17459"
       y2="-295.75092" />
    <linearGradient
       inkscape:collect="always"
       xlink:href="#zerotowhitetozero"
       id="linearGradient1782"
       gradientUnits="userSpaceOnUse"
       gradientTransform="matrix(-8.083600e-2,-0.768518,-1.314142,-0.122986,-3.025914e-13,3.907985e-14)"
       x1="238.34102"
       y1="441.75595"
       x2="236.60674"
       y2="438.93094" />
    <linearGradient
       inkscape:collect="always"
       xlink:href="#greylighttograyw"
       id="linearGradient1784"
       gradientUnits="userSpaceOnUse"
       gradientTransform="matrix(2.501016,-1.261406,3.268214e-2,1.810490,-830.4708,-1463.906)"
       spreadMethod="reflect"
       x1="139.84422"
       y1="169.79622"
       x2="159.03880"
       y2="203.17725" />
    <linearGradient
       inkscape:collect="always"
       xlink:href="#zerotowhitetozero"
       id="linearGradient1786"
       gradientUnits="userSpaceOnUse"
       gradientTransform="matrix(2.980933,-1.623511,0.421337,1.602678,-832.2722,-621.5866)"
       x1="111.31033"
       y1="198.13455"
       x2="135.19012"
       y2="235.01132" />
    <radialGradient
       inkscape:collect="always"
       xlink:href="#zerotowhitetozero"
       id="radialGradient1788"
       gradientUnits="userSpaceOnUse"
       gradientTransform="matrix(1.458853,-2.843975,1.264624,0.666794,-721.3474,-644.7191)"
       spreadMethod="reflect"
       cx="-36.280697"
       cy="224.72163"
       fx="-36.269680"
       fy="224.71202"
       r="14.292608" />
    <radialGradient
       inkscape:collect="always"
       xlink:href="#zerotowhitetozero"
       id="radialGradient1792"
       gradientUnits="userSpaceOnUse"
       gradientTransform="matrix(1.289960,-2.934787,-1.254670,-0.687701,-135.1226,-352.8727)"
       spreadMethod="reflect"
       cx="-36.280697"
       cy="224.72163"
       fx="-36.269680"
       fy="224.71202"
       r="14.292608" />
    <linearGradient
       inkscape:collect="always"
       xlink:href="#sadow75to0w"
       id="linearGradient1794"
       gradientUnits="userSpaceOnUse"
       gradientTransform="matrix(1.161617,-4.739154e-2,2.691281e-2,0.545879,5.167330,-400.1846)"
       x1="-435.29645"
       y1="403.28021"
       x2="-419.48849"
       y2="405.64288" />
    <linearGradient
       inkscape:collect="always"
       xlink:href="#zerotowhitetozero"
       id="linearGradient1796"
       gradientUnits="userSpaceOnUse"
       gradientTransform="matrix(1.161617,-4.739154e-2,2.691281e-2,0.545879,5.167330,-400.1846)"
       x1="-432.85263"
       y1="405.99652"
       x2="-420.16779"
       y2="406.47195" />
    <linearGradient
       inkscape:collect="always"
       xlink:href="#zerotowhitetozero"
       id="linearGradient1798"
       gradientUnits="userSpaceOnUse"
       gradientTransform="matrix(0.275772,6.677168e-2,-1.785205,1.778283,15.77866,-194.5809)"
       x1="-2105.8408"
       y1="-86.329994"
       x2="-2035.2124"
       y2="-88.103630" />
    <linearGradient
       inkscape:collect="always"
       xlink:href="#greantodarkgrean"
       id="linearGradient1800"
       gradientUnits="userSpaceOnUse"
       gradientTransform="matrix(4.686059e-2,2.100305e-2,-1.822157e-2,4.315630e-2,-6.619754,-1.053922)"
       x1="423.57770"
       y1="437.24780"
       x2="308.71310"
       y2="234.42838" />
    <linearGradient
       inkscape:collect="always"
       xlink:href="#greandraktoblack"
       id="linearGradient1802"
       gradientUnits="userSpaceOnUse"
       gradientTransform="matrix(3.923764e-2,1.758642e-2,-2.176160e-2,5.154051e-2,2.299751,3.030663)"
       x1="120.54436"
       y1="223.80600"
       x2="214.82529"
       y2="338.75589" />
    <linearGradient
       inkscape:collect="always"
       xlink:href="#light100to0"
       id="linearGradient1804"
       gradientUnits="userSpaceOnUse"
       gradientTransform="matrix(0.201500,9.031333e-2,-7.835264e-2,0.185573,0.563574,-2.314174)"
       x1="43.656300"
       y1="77.274399"
       x2="45.270302"
       y2="100.95300" />
    <radialGradient
       inkscape:collect="always"
       xlink:href="#light75to0"
       id="radialGradient1806"
       gradientUnits="userSpaceOnUse"
       gradientTransform="matrix(3.978101e-2,1.783003e-2,-2.146434e-2,5.083675e-2,2.299752,3.030632)"
       cx="155.57654"
       cy="316.53455"
       fx="155.57654"
       fy="316.53455"
       r="40.147652" />
    <radialGradient
       inkscape:collect="always"
       xlink:href="#sadow75to0w"
       id="radialGradient2839"
       gradientUnits="userSpaceOnUse"
       gradientTransform="matrix(1.565307,-0.383531,5.922194e-2,0.241689,-12.29958,21.89495)"
       cx="12.966277"
       cy="7.7462883"
       fx="9.8674784"
       fy="14.420129"
       r="10.744241" />
    <linearGradient
       inkscape:collect="always"
       xlink:href="#light100to0"
       id="linearGradient2874"
       gradientUnits="userSpaceOnUse"
       gradientTransform="matrix(0.224936,-7.016936e-2,-1.346405e-2,0.145555,-629.0801,-249.9788)"
       x1="166.29269"
       y1="142.40398"
       x2="171.78334"
       y2="165.52325" />
    <radialGradient
       inkscape:collect="always"
       xlink:href="#light100to0"
       id="radialGradient2876"
       gradientUnits="userSpaceOnUse"
       gradientTransform="matrix(0.402028,0.638524,-0.843789,0.616535,-357.9659,42.49040)"
       spreadMethod="pad"
       cx="-543.27472"
       cy="-157.50522"
       fx="-541.46826"
       fy="-156.95514"
       r="20.501772" />
    <radialGradient
       inkscape:collect="always"
       xlink:href="#light100to0"
       id="radialGradient3610"
       gradientUnits="userSpaceOnUse"
       gradientTransform="matrix(0.384962,-0.402903,0.415432,0.308755,-363.2056,-480.8144)"
       spreadMethod="pad"
       cx="-201.00865"
       cy="-3.8498094"
       fx="-199.20219"
       fy="-3.2997303"
       r="20.501772" />
    <radialGradient
       inkscape:collect="always"
       xlink:href="#light100to0"
       id="radialGradient3614"
       gradientUnits="userSpaceOnUse"
       gradientTransform="matrix(0.155658,2.242093e-2,-4.938618e-2,0.265018,-427.0218,-390.6485)"
       spreadMethod="pad"
       cx="-115.04427"
       cy="-27.057760"
       fx="-113.23781"
       fy="-26.507681"
       r="20.501772" />
  </defs>
  <sodipodi:namedview
     inkscape:window-y="25"
     inkscape:window-x="93"
     inkscape:window-height="713"
     inkscape:window-width="923"
     inkscape:document-units="px"
     inkscape:grid-bbox="true"
     showgrid="false"
     inkscape:current-layer="layer1"
     inkscape:cy="11.000000"
     inkscape:cx="11.000000"
     inkscape:zoom="24.954545"
     inkscape:pageshadow="2"
     inkscape:pageopacity="0.0"
     borderopacity="1.0"
     bordercolor="#666666"
     pagecolor="#ffffff"
     id="base" />
  <metadata
     id="metadata4">
    <rdf:RDF>
      <cc:Work
         rdf:about="">
        <dc:format>image/svg+xml</dc:format>
        <dc:type
           rdf:resource="http://purl.org/dc/dcmitype/StillImage" />
      </cc:Work>
    </rdf:RDF>
  </metadata>
  <g
     inkscape:groupmode="layer"
     inkscape:label="Layer 1"
     id="layer1">
    <g
       id="g2841">
      <g
         transform="matrix(1.023804,0.000000,0.000000,1.000000,-0.523695,0.000000)"
         id="g2835">
        <path
           sodipodi:nodetypes="csccccsssccsssccccsccccc"
           id="path2833"
           d="M 19.190140,15.003958 C 17.613878,14.959817 16.353727,15.292209 15.383741,15.636090 C 15.049765,15.752876 14.650726,15.862789 14.130927,15.866868 C 13.478670,15.948307 12.889978,16.092633 12.426968,16.258188 C 12.147480,16.375946 12.154468,16.517713 12.233201,16.659541 C 12.041834,16.714080 11.828188,16.750383 11.610590,16.789981 C 8.8199752,17.485843 5.9974471,18.173191 3.2573208,18.887054 C 3.1844354,18.906043 3.1587166,18.940927 3.1136868,18.967325 C 3.0117296,19.027096 3.1403191,18.960558 2.8591936,19.127867 C 2.5623710,19.304517 2.3765877,19.502051 1.8335124,19.609491 C 1.3887556,19.759022 1.4478625,19.994099 1.7810856,20.181420 C 1.3967449,20.319923 1.0480332,20.540047 0.67743874,20.873755 C 0.19723892,21.306159 0.79640597,21.786292 1.9969844,21.947376 C 3.1954015,22.108171 4.5392255,21.888122 5.0194253,21.455718 C 5.3009323,21.202232 4.5827734,20.733057 3.7377156,20.402164 C 4.2725692,20.328009 4.7775843,20.222740 5.3990142,20.231589 C 6.6950005,20.179999 7.5108764,19.830981 8.5196629,19.609491 C 10.834456,19.032564 13.144166,18.460626 15.458890,17.883671 C 15.572294,17.896978 15.649377,17.935287 15.769048,17.943873 C 16.649045,17.983454 17.291062,17.759779 17.911737,17.602723 C 18.190849,17.443011 18.465278,17.262187 19.020680,17.191335 C 20.172449,16.946882 21.456324,16.694583 21.858648,16.228086 C 22.280418,15.851593 21.731260,15.359944 20.571878,15.154465 C 20.140178,15.069192 19.672577,15.023877 19.190140,15.003958 z "
           style="opacity:0.24999996;fill:#000000;fill-opacity:0.23076923;fill-rule:evenodd;stroke:none;stroke-width:0.12500000;stroke-linecap:butt;stroke-linejoin:miter;stroke-miterlimit:4.0000000;stroke-opacity:1.0000000" />
        <path
           style="opacity:0.24999996;fill:url(#radialGradient2839);fill-opacity:1.0000000;fill-rule:evenodd;stroke:none;stroke-width:0.12500000;stroke-linecap:butt;stroke-linejoin:miter;stroke-miterlimit:4.0000000;stroke-opacity:1.0000000"
           d="M 19.190140,15.003958 C 17.613878,14.959817 16.353727,15.292209 15.383741,15.636090 C 15.049765,15.752876 14.650726,15.862789 14.130927,15.866868 C 13.478670,15.948307 12.889978,16.092633 12.426968,16.258188 C 12.147480,16.375946 12.154468,16.517713 12.233201,16.659541 C 12.041834,16.714080 11.828188,16.750383 11.610590,16.789981 C 8.8199752,17.485843 5.9974471,18.173191 3.2573208,18.887054 C 3.1844354,18.906043 3.1587166,18.940927 3.1136868,18.967325 C 3.0117296,19.027096 3.1403191,18.960558 2.8591936,19.127867 C 2.5623710,19.304517 2.3765877,19.502051 1.8335124,19.609491 C 1.3887556,19.759022 1.4478625,19.994099 1.7810856,20.181420 C 1.3967449,20.319923 1.0480332,20.540047 0.67743874,20.873755 C 0.19723892,21.306159 0.79640597,21.786292 1.9969844,21.947376 C 3.1954015,22.108171 4.5392255,21.888122 5.0194253,21.455718 C 5.3009323,21.202232 4.5827734,20.733057 3.7377156,20.402164 C 4.2725692,20.328009 4.7775843,20.222740 5.3990142,20.231589 C 6.6950005,20.179999 7.5108764,19.830981 8.5196629,19.609491 C 10.834456,19.032564 13.144166,18.460626 15.458890,17.883671 C 15.572294,17.896978 15.649377,17.935287 15.769048,17.943873 C 16.649045,17.983454 17.291062,17.759779 17.911737,17.602723 C 18.190849,17.443011 18.465278,17.262187 19.020680,17.191335 C 20.172449,16.946882 21.456324,16.694583 21.858648,16.228086 C 22.280418,15.851593 21.731260,15.359944 20.571878,15.154465 C 20.140178,15.069192 19.672577,15.023877 19.190140,15.003958 z "
           id="path1812"
           sodipodi:nodetypes="csccccsssccsssccccsccccc" />
      </g>
      <g
         transform="matrix(0.988065,0.000000,0.000000,1.000000,2.802338e-4,0.000000)"
         id="g1675">
        <g
           id="g13710"
           transform="matrix(6.012045e-2,1.091665e-2,-1.021639e-2,6.422946e-2,28.03794,44.53541)">
          <path
             style="fill:url(#linearGradient1756);fill-opacity:1.0000000;fill-rule:evenodd;stroke:none;stroke-width:0.12500000;stroke-linecap:butt;stroke-linejoin:miter;stroke-miterlimit:4.0000000;stroke-opacity:1.0000000"
             d="M -339.87500,-562.53125 C -348.58569,-560.19181 -352.59558,-550.93590 -359.43799,-545.70947 C -400.13675,-505.05011 -440.77483,-464.31985 -480.90625,-423.12500 C -488.18544,-410.84910 -488.57103,-394.62620 -500.21875,-385.09375 C -512.57969,-368.83179 -493.71621,-341.25818 -474.03125,-348.46875 C -462.87531,-352.89885 -454.65140,-363.31654 -442.27737,-364.87405 C -422.26991,-370.77618 -410.50805,-389.32181 -395.67326,-402.58313 C -357.90771,-440.29554 -320.13784,-478.00363 -282.37500,-515.71875 C -304.24739,-521.94254 -323.63528,-537.78263 -331.84375,-559.21875 C -333.74226,-561.73503 -336.74020,-563.06552 -339.87500,-562.53125 z "
             id="path11931" />
          <path
             style="fill:url(#linearGradient1758);fill-opacity:1.0000000;stroke:none;stroke-width:0.85625488;stroke-linecap:round;stroke-linejoin:round;stroke-miterlimit:4.0000000;stroke-dashoffset:0.0000000;stroke-opacity:1.0000000"
             d="M -248.21875,-651.00000 C -272.98861,-648.93037 -291.28010,-629.68275 -305.01089,-610.67441 C -309.74512,-604.20687 -315.77838,-598.30024 -323.87075,-596.72703 C -333.71425,-591.10503 -341.85744,-582.42201 -348.40590,-573.28134 C -356.94664,-559.26149 -347.65041,-543.09265 -338.40023,-532.09521 C -325.64008,-517.98152 -310.00267,-502.74422 -289.90668,-501.76041 C -276.01725,-502.20182 -266.41769,-514.40996 -257.37500,-523.56250 C -253.67156,-531.93631 -250.48772,-541.23540 -242.11203,-546.09451 C -225.14025,-560.83248 -205.84726,-576.48649 -201.47173,-599.85041 C -196.42613,-618.96398 -206.88605,-640.92302 -225.80992,-647.67024 C -232.89201,-650.60139 -240.61145,-651.32708 -248.21875,-651.00000 z "
             id="path9921" />
          <g
             id="g9797"
             transform="matrix(12.73027,0.137313,-0.136532,12.81415,7258.558,2532.625)">
            <path
               style="fill:url(#linearGradient1760);fill-opacity:1.0000000;stroke:url(#linearGradient1762);stroke-width:0.064118579;stroke-linecap:round;stroke-linejoin:round;stroke-miterlimit:4.0000000;stroke-dashoffset:0.0000000;stroke-opacity:1.0000000"
               d="M -592.17375,-241.34258 C -593.22346,-241.27560 -593.89434,-240.80940 -594.54434,-240.26028 C -596.02721,-239.00754 -596.59699,-237.07947 -597.79980,-237.13371 C -598.41374,-236.45764 -598.16875,-235.86990 -597.94968,-235.36640 C -597.14476,-234.02668 -596.25974,-233.23302 -595.17964,-232.76588 C -594.79886,-232.65612 -593.80858,-232.70213 -593.38704,-233.02313 C -593.17176,-234.17444 -592.02724,-234.45349 -590.47137,-236.07679 C -589.39077,-237.20372 -589.00732,-238.90820 -589.39094,-239.80855 C -589.72572,-240.59428 -590.59454,-241.44334 -592.17375,-241.34258 z "
               id="rect10614"
               sodipodi:nodetypes="csccccsss" />
            <path
               style="opacity:0.41897234;fill:url(#linearGradient1764);fill-opacity:1.0000000;fill-rule:evenodd;stroke:none;stroke-width:1.0000000px;stroke-linecap:butt;stroke-linejoin:miter;stroke-opacity:1.0000000"
               d="M -595.92745,-235.45451 C -594.37002,-236.99404 -592.53504,-238.28074 -590.97762,-239.82027 C -589.95578,-239.82640 -589.36868,-238.72428 -589.80124,-237.37356 C -591.48098,-235.57587 -593.09300,-233.31300 -594.77274,-231.51531 C -594.17986,-233.13605 -595.03454,-235.13095 -595.92745,-235.45451 z "
               id="path13730"
               sodipodi:nodetypes="ccccc" />
            <path
               style="fill:url(#linearGradient2874);fill-opacity:1.0000000;fill-rule:evenodd;stroke:none;stroke-width:1.0000000px;stroke-linecap:butt;stroke-linejoin:miter;stroke-opacity:1.0000000"
               d="M -592.33834,-241.56469 C -591.63634,-241.65981 -591.33515,-241.57402 -591.07798,-241.43298 C -590.82081,-241.29193 -591.12559,-240.58993 -591.91632,-240.22353 C -592.68687,-239.86648 -593.37009,-237.98360 -594.75189,-237.81215 C -596.12599,-237.64165 -595.90574,-238.97368 -595.54510,-239.37760 C -595.19572,-239.76891 -594.31729,-240.76102 -593.88694,-240.99898 C -593.46231,-241.23377 -593.05975,-241.46695 -592.33834,-241.56469 z "
               id="path14500"
               sodipodi:nodetypes="czzzzzz" />
            <path
               style="opacity:0.41897234;fill:url(#linearGradient1768);fill-opacity:1.0000000;fill-rule:evenodd;stroke:none;stroke-width:1.0000000px;stroke-linecap:butt;stroke-linejoin:miter;stroke-opacity:1.0000000"
               d="M -595.92745,-235.45451 C -594.37002,-236.99404 -593.56775,-237.21078 -592.01032,-238.75031 C -590.98849,-238.75644 -590.40138,-237.65432 -590.83394,-236.30360 C -592.51368,-234.50591 -593.09300,-233.31300 -594.77274,-231.51531 C -594.17986,-233.13605 -595.03454,-235.13095 -595.92745,-235.45451 z "
               id="path15269"
               sodipodi:nodetypes="ccccc" />
            <path
               style="opacity:0.41897234;fill:url(#linearGradient1770);fill-opacity:1.0000000;fill-rule:evenodd;stroke:none;stroke-width:1.0000000px;stroke-linecap:butt;stroke-linejoin:miter;stroke-opacity:1.0000000"
               d="M -595.92745,-235.45451 C -594.37002,-236.99404 -594.90821,-235.82047 -593.35079,-237.35999 C -592.32895,-237.36613 -591.74185,-236.26401 -592.17441,-234.91328 C -593.85415,-233.11560 -593.09300,-233.31300 -594.77274,-231.51531 C -594.17986,-233.13605 -595.03454,-235.13095 -595.92745,-235.45451 z "
               id="path15271"
               sodipodi:nodetypes="ccccc" />
            <path
               style="opacity:0.41897234;fill:url(#linearGradient1772);fill-opacity:1.0000000;fill-rule:evenodd;stroke:none;stroke-width:1.0000000px;stroke-linecap:butt;stroke-linejoin:miter;stroke-opacity:1.0000000"
               d="M -595.92745,-235.45451 C -594.37002,-236.99404 -595.54420,-235.17339 -593.98678,-236.71291 C -592.96494,-236.71905 -592.37784,-235.61693 -592.81040,-234.26620 C -594.49013,-232.46852 -593.09300,-233.31300 -594.77274,-231.51531 C -594.17986,-233.13605 -595.03454,-235.13095 -595.92745,-235.45451 z "
               id="path15273"
               sodipodi:nodetypes="ccccc" />
            <path
               style="fill:url(#linearGradient1774);fill-opacity:1.0000000;stroke:url(#linearGradient1776);stroke-width:0.54084611;stroke-linecap:round;stroke-linejoin:round;stroke-miterlimit:4.0000000;stroke-dashoffset:0.0000000;stroke-opacity:1.0000000"
               d="M -598.04283,-237.04726 C -599.64965,-235.44966 -598.06711,-237.06765 -599.21142,-235.88808 C -599.90549,-235.07201 -599.58991,-234.87256 -599.32823,-234.27747 C -598.37632,-232.69822 -597.34248,-231.77031 -596.09022,-231.23464 C -595.64978,-231.11115 -595.36127,-230.95227 -594.88202,-231.34218 C -594.29993,-231.75702 -593.40557,-232.48954 -593.34014,-232.94032 C -593.48708,-235.38350 -597.20306,-237.88220 -598.04283,-237.04726 z "
               id="path6419"
               sodipodi:nodetypes="ccccccs" />
            <path
               style="fill:url(#linearGradient1778);fill-opacity:1.0000000;stroke:none;stroke-width:1.0000000;stroke-linecap:round;stroke-linejoin:round;stroke-miterlimit:4.0000000;stroke-dashoffset:0.0000000;stroke-opacity:1.0000000"
               d="M -594.83596,-231.32818 C -595.31283,-230.78909 -596.74079,-231.30312 -598.02337,-232.47555 C -599.30595,-233.64799 -599.95985,-235.03705 -599.48298,-235.57614 C -599.00611,-236.11522 -597.57815,-235.60120 -596.29557,-234.42876 C -595.02037,-233.26307 -594.36566,-231.88358 -594.82825,-231.33709"
               id="path5651" />
            <path
               style="opacity:0.73015875;fill:url(#linearGradient1780);fill-opacity:1.0000000;fill-rule:evenodd;stroke:none;stroke-width:0.98446530;stroke-linecap:round;stroke-linejoin:round;stroke-miterlimit:4.0000000;stroke-dashoffset:0.0000000;stroke-opacity:1.0000000"
               d="M -594.66112,-235.43807 L -595.92818,-234.21440 C -594.94605,-233.30894 -594.45796,-232.19443 -594.62336,-231.63361 C -594.12081,-232.00805 -593.47462,-232.56507 -593.42247,-232.92577 C -593.47512,-233.79970 -593.95290,-234.74821 -594.66112,-235.43807 z "
               id="path6517"
               sodipodi:nodetypes="ccccc" />
            <path
               style="opacity:0.73015875;fill:url(#linearGradient1782);fill-opacity:1.0000000;fill-rule:evenodd;stroke:none;stroke-width:0.98446530;stroke-linecap:round;stroke-linejoin:round;stroke-miterlimit:4.0000000;stroke-dashoffset:0.0000000;stroke-opacity:1.0000000"
               d="M -595.46050,-236.18333 L -596.78454,-234.92355 C -597.77066,-235.58294 -598.53599,-235.94106 -599.09873,-235.79328 C -598.72302,-236.24221 -597.91973,-237.05870 -597.55778,-237.10530 C -596.68084,-237.05831 -596.19549,-236.74487 -595.46050,-236.18333 z "
               id="path7315"
               sodipodi:nodetypes="ccccc" />
          </g>
          <path
             style="fill:url(#linearGradient1784);fill-opacity:1.0000000;fill-rule:evenodd;stroke:none;stroke-width:0.12500000;stroke-linecap:butt;stroke-linejoin:miter;stroke-miterlimit:4.0000000;stroke-opacity:1.0000000"
             d="M -339.32166,-551.95970 C -382.78973,-508.61018 -426.81257,-464.54870 -470.28066,-421.19906 C -470.43182,-421.04413 -473.78890,-417.69517 -476.55621,-410.43436 C -479.32350,-403.17344 -479.02460,-390.86160 -490.01618,-382.02809 C -497.33019,-374.47909 -495.26066,-368.35934 -491.76389,-363.58610 C -491.36478,-363.04133 -490.65745,-362.46620 -489.99979,-361.88702 C -489.43559,-361.23028 -488.87612,-360.52324 -488.34384,-360.12322 C -483.62117,-356.57401 -477.54940,-354.45043 -469.99067,-361.75167 C -461.12879,-372.74156 -448.88647,-372.35503 -441.64599,-375.08672 C -434.40563,-377.81843 -431.05157,-381.17043 -430.89644,-381.32134 C -387.48067,-424.72396 -343.35307,-468.67938 -299.93744,-512.08199 C -307.05399,-513.84754 -315.89647,-520.64189 -323.38771,-528.24674 C -330.90736,-535.83660 -337.61384,-544.78511 -339.32166,-551.95970 z "
             id="path2770" />
          <path
             style="fill:url(#linearGradient1786);fill-opacity:1.0000000;fill-rule:evenodd;stroke:none;stroke-width:1.0000000px;stroke-linecap:butt;stroke-linejoin:miter;stroke-opacity:1.0000000"
             d="M -495.37743,-406.53835 C -481.21007,-420.86199 -464.97412,-419.04773 -452.14935,-409.73688 C -441.34327,-401.89166 -430.14316,-385.12729 -443.54787,-372.03886 C -395.77769,-419.56762 -347.79937,-467.20985 -300.02932,-514.73862 C -286.38154,-526.57788 -300.98631,-543.98334 -311.74429,-552.47020 C -324.11576,-562.23008 -342.60016,-558.10199 -355.83435,-545.79655 C -403.15898,-498.53499 -448.05305,-453.79991 -495.37743,-406.53835 z "
             id="path2000"
             sodipodi:nodetypes="csccscc" />
          <path
             style="fill:url(#radialGradient1788);fill-opacity:1.0000000;fill-rule:evenodd;stroke:none;stroke-width:0.12500000;stroke-linecap:butt;stroke-linejoin:miter;stroke-miterlimit:4.0000000;stroke-opacity:1.0000000"
             d="M -493.10005,-374.87492 C -493.57266,-372.95073 -493.09468,-366.78198 -491.01745,-366.84264 C -489.43933,-366.88872 -479.82570,-377.34365 -477.84450,-379.61428 C -469.44438,-392.18875 -469.36414,-391.96639 -468.53678,-393.70297 C -464.68311,-401.79166 -468.20899,-419.41442 -469.92379,-418.19158 C -476.03754,-413.83136 -477.10397,-398.38072 -480.10969,-392.79552 C -485.20251,-383.33248 -491.06725,-380.00026 -493.10005,-374.87492 z "
             id="path5092"
             sodipodi:nodetypes="cscsssc" />
          <path
             style="opacity:0.82010579;fill:url(#radialGradient2876);fill-opacity:1.0;fill-rule:evenodd;stroke:none;stroke-width:0.12500000;stroke-linecap:butt;stroke-linejoin:miter;stroke-miterlimit:4.0000000;stroke-opacity:1.0000000"
             d="M -475.55038,-416.99830 C -477.17707,-414.90674 -476.79082,-415.97951 -477.47661,-412.69167 C -481.95615,-403.22812 -479.93980,-393.13162 -490.93140,-384.29811 C -498.24541,-376.74909 -496.16644,-370.64003 -492.66976,-365.86679 C -489.69675,-361.80861 -480.25137,-355.90923 -475.00373,-360.94411 C -465.14299,-370.02706 -456.51435,-370.70143 -448.09371,-373.67453 C -444.36401,-374.55474 -440.66645,-376.12426 -437.27104,-378.75434 C -436.90023,-379.12276 -436.48786,-379.53630 -436.11640,-379.90549 C -437.60471,-399.57405 -447.24962,-410.34959 -471.63246,-419.51857 L -475.55038,-416.99830 z "
             id="path7323"
             sodipodi:nodetypes="cccccccccc" />
          <path
             style="fill:url(#radialGradient1792);fill-opacity:1.0000000;fill-rule:evenodd;stroke:none;stroke-width:0.12500000;stroke-linecap:butt;stroke-linejoin:miter;stroke-miterlimit:4.0000000;stroke-opacity:1.0000000"
             d="M -474.83322,-388.39078 C -476.01087,-386.84563 -480.96758,-383.59885 -482.15275,-385.41357 C -483.05322,-386.79221 -480.83030,-401.22078 -480.28436,-404.26295 C -475.73657,-418.90872 -475.95245,-418.84558 -475.12727,-420.58325 C -471.28320,-428.67721 -455.84248,-436.10260 -455.75271,-433.90950 C -455.43244,-426.09005 -466.50583,-416.01969 -468.95565,-410.13553 C -473.10646,-400.16598 -472.15504,-393.16913 -474.83322,-388.39078 z "
             id="path7348"
             sodipodi:nodetypes="cscsssc" />
          <g
             id="g11960"
             transform="matrix(0.640718,0.741394,-0.737351,0.644231,-294.5805,92.05109)">
            <path
               style="fill:url(#linearGradient1794);fill-opacity:1.0000000;stroke:none;stroke-width:1.0000000;stroke-linecap:round;stroke-linejoin:round;stroke-miterlimit:4.0000000;stroke-dashoffset:0.0000000;stroke-opacity:1.0000000"
               d="M -471.76248,-159.41569 C -471.64802,-157.09303 -475.56651,-155.04421 -480.50909,-154.84260 C -485.45184,-154.64099 -489.55616,-156.36237 -489.67069,-158.68512 C -489.78530,-161.00777 -485.86674,-163.05651 -480.92408,-163.25821 C -476.00985,-163.45872 -471.92297,-161.76114 -471.76473,-159.45371"
               id="path8110" />
            <path
               style="opacity:0.82539684;fill:url(#linearGradient1796);fill-opacity:1.0000000;stroke:none;stroke-width:1.0000000;stroke-linecap:round;stroke-linejoin:round;stroke-miterlimit:4.0000000;stroke-dashoffset:0.0000000;stroke-opacity:1.0000000"
               d="M -471.76248,-159.41569 C -471.64802,-157.09303 -475.56651,-155.04421 -480.50909,-154.84260 C -485.45184,-154.64099 -489.55616,-156.36237 -489.67069,-158.68512 C -489.78530,-161.00777 -485.86674,-163.05651 -480.92408,-163.25821 C -476.00985,-163.45872 -471.92297,-161.76114 -471.76473,-159.45371"
               id="path8872" />
          </g>
          <path
             style="fill:url(#linearGradient1798);fill-opacity:1.0000000;fill-rule:evenodd;stroke:none;stroke-width:1.0000000;stroke-linecap:round;stroke-linejoin:round;stroke-miterlimit:4.0000000;stroke-dashoffset:0.0000000;stroke-opacity:1.0000000"
             d="M -314.54660,-554.44188 L -450.62838,-418.21806 C -451.87637,-416.97490 -454.02554,-416.25114 -455.44711,-416.59531 L -471.72399,-420.53638 C -473.14554,-420.88055 -473.28516,-422.15854 -472.03718,-423.40168 L -337.95342,-556.96545 C -333.51612,-561.13237 -324.94522,-561.52186 -314.54660,-554.44188 z "
             id="rect8885"
             sodipodi:nodetypes="ccccccc" />
          <path
             style="opacity:0.020161273;fill:#000000;fill-opacity:1.0000000;fill-rule:evenodd;stroke:none;stroke-width:1.0000000px;stroke-linecap:butt;stroke-linejoin:miter;stroke-opacity:1.0000000"
             d="M -330.44284,-560.16779 C -331.67758,-558.93628 -342.00131,-548.64578 -343.23695,-547.41325 C -343.37369,-547.29119 -343.52918,-547.21370 -343.66410,-547.08849 C -387.13220,-503.73884 -428.60983,-462.59911 -472.07792,-419.24946 C -471.26919,-420.05504 -470.40046,-420.59631 -469.56563,-421.27404 C -469.87039,-420.97005 -470.17989,-420.66188 -470.48464,-420.35789 C -470.63571,-420.20285 -473.99086,-416.81740 -476.75817,-409.55659 C -479.52546,-402.29577 -481.66596,-389.53851 -490.21365,-381.18751 C -497.52778,-373.63849 -495.44880,-367.52941 -491.95201,-362.75620 C -488.97914,-358.69801 -479.53374,-352.79863 -474.28610,-357.83363 C -464.42523,-366.91649 -455.79590,-367.56633 -447.37537,-370.53942 C -444.15025,-371.30054 -440.98664,-372.73981 -437.98395,-374.77345 C -438.44788,-374.26410 -438.82433,-373.69750 -439.32044,-373.21374 C -438.67191,-373.85815 -438.01228,-374.49471 -437.36375,-375.13911 C -437.09827,-375.32967 -436.81529,-375.44086 -436.55342,-375.64374 C -420.18723,-391.90499 -402.86720,-409.27610 -385.65570,-426.51004 C -359.62646,-452.34775 -293.51995,-518.23986 -294.23391,-518.40034 C -290.34862,-527.89177 -298.74633,-540.35520 -304.13788,-545.36538 C -309.63955,-550.47793 -320.84392,-560.60025 -330.44284,-560.16779 z "
             id="path12161"
             sodipodi:nodetypes="ccccccccccccccccczc" />
          <path
             sodipodi:nodetypes="cccccccccc"
             id="path3604"
             d="M -475.55038,-416.99830 C -477.17707,-414.90674 -476.79082,-415.97951 -477.47661,-412.69167 C -481.95615,-403.22812 -479.93980,-393.13162 -490.93140,-384.29811 C -498.24541,-376.74909 -496.16644,-370.64003 -492.66976,-365.86679 C -489.69675,-361.80861 -480.25137,-355.90923 -475.00373,-360.94411 C -465.14299,-370.02706 -456.51435,-370.70143 -448.09371,-373.67453 C -444.36401,-374.55474 -440.66645,-376.12426 -437.27104,-378.75434 C -436.90023,-379.12276 -436.48786,-379.53630 -436.11640,-379.90549 C -437.60471,-399.57405 -447.24962,-410.34959 -471.63246,-419.51857 L -475.55038,-416.99830 z "
             style="opacity:0.82010579;fill:url(#radialGradient3610);fill-opacity:1.0;fill-rule:evenodd;stroke:none;stroke-width:0.12500000;stroke-linecap:butt;stroke-linejoin:miter;stroke-miterlimit:4.0000000;stroke-opacity:1.0000000" />
          <path
             style="opacity:0.82010579;fill:url(#radialGradient3614);fill-opacity:1.0;fill-rule:evenodd;stroke:none;stroke-width:0.12500000;stroke-linecap:butt;stroke-linejoin:miter;stroke-miterlimit:4.0000000;stroke-opacity:1.0000000"
             d="M -475.55038,-416.99830 C -477.17707,-414.90674 -476.79082,-415.97951 -477.47661,-412.69167 C -481.95615,-403.22812 -479.93980,-393.13162 -490.93140,-384.29811 C -498.24541,-376.74909 -496.16644,-370.64003 -492.66976,-365.86679 C -489.69675,-361.80861 -480.25137,-355.90923 -475.00373,-360.94411 C -465.14299,-370.02706 -456.51435,-370.70143 -448.09371,-373.67453 C -444.36401,-374.55474 -440.66645,-376.12426 -437.27104,-378.75434 C -436.90023,-379.12276 -436.48786,-379.53630 -436.11640,-379.90549 C -437.60471,-399.57405 -447.24962,-410.34959 -471.63246,-419.51857 L -475.55038,-416.99830 z "
             id="path3612"
             sodipodi:nodetypes="cccccccccc" />
        </g>
        <path
           d="M 4.5301425,20.094749 C 3.9615373,21.441452 2.5955935,22.126011 1.4782723,21.625224 C 0.35893624,21.123532 -0.086408546,19.627148 0.48219654,18.280443 C 1.0497047,16.936339 1.4588512,15.970140 2.0451864,15.719391 C 2.9879413,15.316333 5.0976506,18.750644 4.5301425,20.094749 z "
           style="fill:url(#linearGradient1800);fill-opacity:1.0000000;stroke:url(#linearGradient1802);stroke-width:0.42298123;stroke-miterlimit:4.0000000"
           id="path15830" />
        <path
           adobe-blending-mode="screen"
           d="M 3.7941654,19.015414 C 3.4236357,19.892991 2.5346146,20.337346 1.8080035,20.011676 C 1.0801831,19.685465 0.79075071,18.713141 1.1613586,17.835381 C 1.5307912,16.960404 1.7953881,16.333723 2.1778343,16.168585 C 2.7910238,15.907582 4.1635981,18.140439 3.7941654,19.015414 z "
           style="fill:url(#linearGradient1804);fill-opacity:1.0000000"
           id="path15831" />
        <path
           d="M 4.5301425,20.094749 C 3.9615373,21.441452 2.5955935,22.126011 1.4782723,21.625224 C 0.35893624,21.123532 -0.086408546,19.627148 0.48219654,18.280443 C 1.0497047,16.936339 1.4588512,15.970140 2.0451864,15.719391 C 2.9879413,15.316333 5.0976506,18.750644 4.5301425,20.094749 z "
           style="fill:url(#radialGradient1806);fill-opacity:1.0000000;stroke:none;stroke-width:8.6250000;stroke-miterlimit:4.0000000"
           id="path15832" />
      </g>
    </g>
  </g>
</svg>
