<?xml version="1.0" encoding="UTF-8" standalone="no"?>
<!-- Created with Inkscape (http://www.inkscape.org/) -->
<svg
   xmlns:dc="http://purl.org/dc/elements/1.1/"
   xmlns:cc="http://web.resource.org/cc/"
   xmlns:rdf="http://www.w3.org/1999/02/22-rdf-syntax-ns#"
   xmlns:svg="http://www.w3.org/2000/svg"
   xmlns="http://www.w3.org/2000/svg"
   xmlns:xlink="http://www.w3.org/1999/xlink"
   xmlns:sodipodi="http://inkscape.sourceforge.net/DTD/sodipodi-0.dtd"
   xmlns:inkscape="http://www.inkscape.org/namespaces/inkscape"
   sodipodi:docname="combobox.svg"
   sodipodi:docbase="/home/pinheiro/artwork/oooicons/crystalsvg"
   inkscape:version="0.41"
   sodipodi:version="0.32"
   id="svg3652"
   height="64px"
   width="64px">
  <defs
     id="defs3">
    <linearGradient
       id="linearGradient5536">
      <stop
         id="stop5540"
         style="stop-color:#ffffff;stop-opacity:1.0000000;"
         offset="0.0000000" />
      <stop
         id="stop5538"
         style="stop-color:#a9a9bb;stop-opacity:1.0000000;"
         offset="1.0000000" />
    </linearGradient>
    <linearGradient
       id="sadow75to0w">
      <stop
         id="stop3429"
         offset="0.0000000"
         style="stop-color:#000000;stop-opacity:0.72941178;" />
      <stop
         id="stop3430"
         offset="1.0000000"
         style="stop-color:#ffffff;stop-opacity:0.0000000;" />
    </linearGradient>
    <linearGradient
       id="graytolightgray">
      <stop
         id="stop5101"
         offset="0.0000000"
         style="stop-color:#d4d3d3;stop-opacity:1.0000000;" />
      <stop
         id="stop5102"
         offset="1.0000000"
         style="stop-color:#ffffff;stop-opacity:1.0000000;" />
    </linearGradient>
    <linearGradient
       id="light75to0">
      <stop
         id="stop2769"
         offset="0.0000000"
         style="stop-color:#ffffff;stop-opacity:0.72916669;" />
      <stop
         id="stop2770"
         offset="1.0000000"
         style="stop-color:#ffffff;stop-opacity:0.0000000;" />
    </linearGradient>
    <linearGradient
       id="garylighttowite">
      <stop
         id="stop5106"
         offset="0.0000000"
         style="stop-color:#7d7d7d;stop-opacity:1.0000000;" />
      <stop
         id="stop5107"
         offset="1.0000000"
         style="stop-color:#d3d4d4;stop-opacity:1.0000000;" />
    </linearGradient>
    <linearGradient
       id="light100to0">
      <stop
         id="stop2764"
         offset="0.0000000"
         style="stop-color:#ffffff;stop-opacity:1.0000000;" />
      <stop
         id="stop2765"
         offset="1.0000000"
         style="stop-color:#ffffff;stop-opacity:0.0000000;" />
    </linearGradient>
    <linearGradient
       y2="91.407700"
       x2="33.332001"
       y1="10.305200"
       x1="33.332001"
       gradientUnits="userSpaceOnUse"
       id="bludraktowhite">
      <linearGradient
         xlink:href="#linearGradient5536"
         spreadMethod="pad"
         y2="91.407700"
         x2="33.332001"
         y1="10.305200"
         x1="33.332001"
         gradientUnits="userSpaceOnUse"
         id="bluedrklighttowite" />
      <stop
         id="stop7271"
         style="stop-color:rgb(255,255,255)"
         offset="0" />
      <stop
         id="stop7273"
         style="stop-color:rgb(84,84,119)"
         offset="1" />
    </linearGradient>
    <linearGradient
       id="linearGradient2642">
      <stop
         offset="0.0000000"
         style="stop-color:#ffffff;stop-opacity:1.0000000;"
         id="stop2646" />
      <stop
         offset="1.0000000"
         style="stop-color:#a9a9bb;stop-opacity:1.0000000;"
         id="stop2644" />
    </linearGradient>
    <radialGradient
       r="7.7109990"
       fy="123.48658"
       fx="42.468056"
       cy="123.48658"
       cx="42.468056"
       spreadMethod="reflect"
       gradientTransform="matrix(1.382976,0.000000,0.000000,1.382976,-21.03104,-109.9668)"
       gradientUnits="userSpaceOnUse"
       id="radialGradient3815"
       xlink:href="#linearGradient2642"
       inkscape:collect="always" />
    <linearGradient
       y2="117.44884"
       x2="35.765125"
       y1="138.03079"
       x1="45.622375"
       gradientTransform="matrix(1.382976,0.000000,0.000000,1.382976,-21.03104,-109.9668)"
       gradientUnits="userSpaceOnUse"
       id="linearGradient3817"
       xlink:href="#bludraktowhite"
       inkscape:collect="always" />
    <linearGradient
       y2="143.27217"
       x2="35.948341"
       y1="129.00298"
       x1="27.782410"
       gradientTransform="matrix(1.618321,0.000000,0.000000,1.181855,-21.03104,-109.9668)"
       gradientUnits="userSpaceOnUse"
       id="linearGradient3819"
       xlink:href="#light100to0"
       inkscape:collect="always" />
    <radialGradient
       r="13.249377"
       fy="124.03846"
       fx="40.972221"
       cy="124.03846"
       cx="40.972221"
       spreadMethod="reflect"
       gradientTransform="matrix(1.382976,0.000000,0.000000,1.382976,-21.03104,-109.9668)"
       gradientUnits="userSpaceOnUse"
       id="radialGradient3821"
       xlink:href="#light100to0"
       inkscape:collect="always" />
    <radialGradient
       r="0.85092342"
       fy="200.89760"
       fx="12.917841"
       cy="200.89760"
       cx="12.917841"
       gradientTransform="scale(1.507557,0.663325)"
       gradientUnits="userSpaceOnUse"
       id="radialGradient3829"
       xlink:href="#sadow75to0w"
       inkscape:collect="always" />
    <radialGradient
       r="0.85092342"
       fy="200.89760"
       fx="12.917841"
       cy="200.89760"
       cx="12.917841"
       gradientTransform="scale(1.507557,0.663325)"
       gradientUnits="userSpaceOnUse"
       id="radialGradient3831"
       xlink:href="#sadow75to0w"
       inkscape:collect="always" />
    <radialGradient
       r="0.85092342"
       fy="200.89760"
       fx="12.917841"
       cy="200.89760"
       cx="12.917841"
       gradientTransform="scale(1.507557,0.663325)"
       gradientUnits="userSpaceOnUse"
       id="radialGradient3833"
       xlink:href="#sadow75to0w"
       inkscape:collect="always" />
    <radialGradient
       r="0.85092342"
       fy="200.89760"
       fx="12.917841"
       cy="200.89760"
       cx="12.917841"
       gradientTransform="scale(1.507557,0.663325)"
       gradientUnits="userSpaceOnUse"
       id="radialGradient3835"
       xlink:href="#sadow75to0w"
       inkscape:collect="always" />
    <radialGradient
       r="0.85092342"
       fy="200.89760"
       fx="12.917841"
       cy="200.89760"
       cx="12.917841"
       gradientTransform="scale(1.507557,0.663325)"
       gradientUnits="userSpaceOnUse"
       id="radialGradient3837"
       xlink:href="#sadow75to0w"
       inkscape:collect="always" />
    <radialGradient
       r="0.85092342"
       fy="200.89760"
       fx="12.917841"
       cy="200.89760"
       cx="12.917841"
       gradientTransform="scale(1.507557,0.663325)"
       gradientUnits="userSpaceOnUse"
       id="radialGradient3839"
       xlink:href="#sadow75to0w"
       inkscape:collect="always" />
    <radialGradient
       r="0.85092342"
       fy="200.89760"
       fx="12.917841"
       cy="200.89760"
       cx="12.917841"
       gradientTransform="scale(1.507557,0.663325)"
       gradientUnits="userSpaceOnUse"
       id="radialGradient3841"
       xlink:href="#sadow75to0w"
       inkscape:collect="always" />
    <radialGradient
       r="0.85092342"
       fy="200.89760"
       fx="12.917841"
       cy="200.89760"
       cx="12.917841"
       gradientTransform="scale(1.507557,0.663325)"
       gradientUnits="userSpaceOnUse"
       id="radialGradient3843"
       xlink:href="#sadow75to0w"
       inkscape:collect="always" />
    <radialGradient
       r="0.85092342"
       fy="200.89760"
       fx="12.917841"
       cy="200.89760"
       cx="12.917841"
       gradientTransform="scale(1.507557,0.663325)"
       gradientUnits="userSpaceOnUse"
       id="radialGradient3845"
       xlink:href="#sadow75to0w"
       inkscape:collect="always" />
    <radialGradient
       r="7.7109990"
       fy="123.48658"
       fx="42.468056"
       cy="123.48658"
       cx="42.468056"
       spreadMethod="reflect"
       gradientTransform="matrix(1.382976,0.000000,0.000000,1.382976,-21.03104,-109.9668)"
       gradientUnits="userSpaceOnUse"
       id="radialGradient3867"
       xlink:href="#linearGradient2642"
       inkscape:collect="always" />
    <linearGradient
       y2="117.44884"
       x2="35.765125"
       y1="138.03079"
       x1="45.622375"
       gradientTransform="matrix(1.382976,0.000000,0.000000,1.382976,-21.03104,-109.9668)"
       gradientUnits="userSpaceOnUse"
       id="linearGradient3869"
       xlink:href="#bludraktowhite"
       inkscape:collect="always" />
    <linearGradient
       y2="143.27217"
       x2="35.948341"
       y1="129.00298"
       x1="27.782410"
       gradientTransform="matrix(1.618321,0.000000,0.000000,1.181855,-21.03104,-109.9668)"
       gradientUnits="userSpaceOnUse"
       id="linearGradient3871"
       xlink:href="#light100to0"
       inkscape:collect="always" />
    <radialGradient
       r="13.249377"
       fy="124.03846"
       fx="40.972221"
       cy="124.03846"
       cx="40.972221"
       spreadMethod="reflect"
       gradientTransform="matrix(1.382976,0.000000,0.000000,1.382976,-21.03104,-109.9668)"
       gradientUnits="userSpaceOnUse"
       id="radialGradient3873"
       xlink:href="#light100to0"
       inkscape:collect="always" />
    <radialGradient
       r="13.249377"
       fy="124.03846"
       fx="40.972221"
       cy="124.03846"
       cx="40.972221"
       spreadMethod="reflect"
       gradientTransform="matrix(0.971666,0.000000,0.000000,0.510229,20.77751,-17.86195)"
       gradientUnits="userSpaceOnUse"
       id="radialGradient3905"
       xlink:href="#light100to0"
       inkscape:collect="always" />
    <linearGradient
       y2="143.27217"
       x2="35.948341"
       y1="129.00298"
       x1="27.782410"
       gradientTransform="matrix(1.137018,0.000000,0.000000,0.436029,20.77751,-17.86195)"
       gradientUnits="userSpaceOnUse"
       id="linearGradient3908"
       xlink:href="#light100to0"
       inkscape:collect="always" />
    <radialGradient
       r="7.7109990"
       fy="123.48658"
       fx="42.468056"
       cy="123.48658"
       cx="42.468056"
       spreadMethod="reflect"
       gradientTransform="matrix(0.971666,0.000000,0.000000,0.510229,20.77751,-17.86195)"
       gradientUnits="userSpaceOnUse"
       id="radialGradient3921"
       xlink:href="#linearGradient2642"
       inkscape:collect="always" />
    <linearGradient
       y2="117.44884"
       x2="35.765125"
       y1="138.03079"
       x1="45.622375"
       gradientTransform="matrix(0.971666,0.000000,0.000000,0.510229,20.77751,-17.86195)"
       gradientUnits="userSpaceOnUse"
       id="linearGradient3923"
       xlink:href="#bludraktowhite"
       inkscape:collect="always" />
    <linearGradient
       y2="30.831261"
       x2="21.871677"
       y1="16.770046"
       x1="21.753733"
       gradientTransform="matrix(0.937624,0.000000,0.000000,0.526473,35.55373,33.19841)"
       gradientUnits="userSpaceOnUse"
       id="linearGradient3926"
       xlink:href="#sadow75to0w"
       inkscape:collect="always" />
    <radialGradient
       r="13.249377"
       fy="124.03846"
       fx="40.972221"
       cy="124.03846"
       cx="40.972221"
       spreadMethod="reflect"
       gradientTransform="matrix(0.971666,0.000000,0.000000,0.971666,20.77751,-89.20849)"
       gradientUnits="userSpaceOnUse"
       id="radialGradient3934"
       xlink:href="#light100to0"
       inkscape:collect="always" />
    <linearGradient
       y2="143.27217"
       x2="35.948341"
       y1="129.00298"
       x1="27.782410"
       gradientTransform="matrix(1.137018,0.000000,0.000000,0.830361,20.77751,-89.20849)"
       gradientUnits="userSpaceOnUse"
       id="linearGradient3937"
       xlink:href="#light100to0"
       inkscape:collect="always" />
    <radialGradient
       r="7.7109990"
       fy="123.48658"
       fx="42.468056"
       cy="123.48658"
       cx="42.468056"
       spreadMethod="reflect"
       gradientTransform="matrix(0.971666,0.000000,0.000000,0.971666,20.77751,-89.20849)"
       gradientUnits="userSpaceOnUse"
       id="radialGradient3941"
       xlink:href="#linearGradient2642"
       inkscape:collect="always" />
    <linearGradient
       y2="117.44884"
       x2="35.765125"
       y1="138.03079"
       x1="45.622375"
       gradientTransform="matrix(0.971666,0.000000,0.000000,0.971666,20.77751,-89.20849)"
       gradientUnits="userSpaceOnUse"
       id="linearGradient3943"
       xlink:href="#bludraktowhite"
       inkscape:collect="always" />
    <linearGradient
       y2="30.831261"
       x2="21.871677"
       y1="16.770046"
       x1="21.753733"
       gradientTransform="matrix(0.937624,0.000000,0.000000,0.526473,35.55373,19.14659)"
       gradientUnits="userSpaceOnUse"
       id="linearGradient3946"
       xlink:href="#sadow75to0w"
       inkscape:collect="always" />
    <linearGradient
       y2="74.450653"
       x2="25.033056"
       y1="74.286453"
       x1="84.101753"
       gradientTransform="matrix(0.536708,0.000000,0.000000,1.759125,20.77751,-89.20849)"
       gradientUnits="userSpaceOnUse"
       id="linearGradient3949"
       xlink:href="#linearGradient2642"
       inkscape:collect="always" />
    <linearGradient
       y2="64.335876"
       x2="56.848820"
       y1="98.692421"
       x1="104.96716"
       gradientTransform="matrix(0.520756,0.000000,0.000000,1.813010,20.77751,-89.20849)"
       gradientUnits="userSpaceOnUse"
       id="linearGradient3951"
       xlink:href="#bludraktowhite"
       inkscape:collect="always" />
    <linearGradient
       y2="323.76923"
       x2="272.46765"
       y1="59.053604"
       x1="122.43015"
       gradientTransform="matrix(0.139112,0.000000,0.000000,4.639221e-2,1.652566,0.786999)"
       gradientUnits="userSpaceOnUse"
       id="linearGradient3959"
       xlink:href="#graytolightgray"
       inkscape:collect="always" />
    <radialGradient
       r="508.29517"
       fy="52.577991"
       fx="53.182602"
       cy="52.577991"
       cx="53.182602"
       gradientTransform="matrix(0.171750,0.000000,0.000000,4.634818e-2,1.108189,-0.829730)"
       gradientUnits="userSpaceOnUse"
       id="radialGradient3961"
       xlink:href="#light75to0"
       inkscape:collect="always" />
    <radialGradient
       spreadMethod="reflect"
       gradientUnits="userSpaceOnUse"
       r="23.251539"
       fy="1.0834957"
       fx="8.9915314"
       cy="1.0834957"
       cx="8.9915314"
       gradientTransform="matrix(1.471586,0.000000,0.000000,0.647000,0.377244,0.335774)"
       id="radialGradient5544"
       xlink:href="#bludraktowhite"
       inkscape:collect="always" />
    <linearGradient
       y2="323.76923"
       x2="272.46765"
       y1="59.053604"
       x1="122.43015"
       gradientTransform="matrix(0.139112,0.000000,0.000000,4.639221e-2,1.652566,0.786999)"
       gradientUnits="userSpaceOnUse"
       id="linearGradient7836"
       xlink:href="#graytolightgray"
       inkscape:collect="always" />
    <radialGradient
       r="508.29517"
       fy="52.577991"
       fx="53.182602"
       cy="52.577991"
       cx="53.182602"
       gradientTransform="matrix(0.171750,0.000000,0.000000,4.634818e-2,1.108189,-0.829730)"
       gradientUnits="userSpaceOnUse"
       id="radialGradient7838"
       xlink:href="#light75to0"
       inkscape:collect="always" />
    <radialGradient
       spreadMethod="reflect"
       gradientUnits="userSpaceOnUse"
       r="41.955601"
       fy="5.9756746"
       fx="13.259050"
       cy="5.9756746"
       cx="13.259050"
       gradientTransform="scale(0.988812,1.011315)"
       id="radialGradient8608"
       xlink:href="#bludraktowhite"
       inkscape:collect="always" />
  </defs>
  <sodipodi:namedview
     inkscape:window-y="42"
     inkscape:window-x="243"
     inkscape:window-height="902"
     inkscape:window-width="1272"
     inkscape:grid-bbox="true"
     inkscape:document-units="px"
     showgrid="false"
     inkscape:current-layer="layer1"
     inkscape:cy="28.373487"
     inkscape:cx="32.000000"
     inkscape:zoom="11.375000"
     inkscape:pageshadow="2"
     inkscape:pageopacity="0.0"
     borderopacity="1.0"
     bordercolor="#666666"
     pagecolor="#ffffff"
     id="base" />
  <metadata
     id="metadata4">
    <rdf:RDF
       id="RDF5">
      <cc:Work
         id="Work6"
         rdf:about="">
        <dc:format
           id="format7">image/svg+xml</dc:format>
        <dc:type
           rdf:resource="http://purl.org/dc/dcmitype/StillImage"
           id="type9" />
      </cc:Work>
    </rdf:RDF>
  </metadata>
  <g
     inkscape:groupmode="layer"
     inkscape:label="Layer 1"
     id="layer1">
    <g
       transform="matrix(1.060573,0.000000,0.000000,0.994068,-1.733240,19.54525)"
       id="g7826">
      <path
         sodipodi:nodetypes="ccccc"
         id="path7828"
         d="M 8.4434337,0.51593639 L 50.148753,0.55986561 L 49.627382,18.910670 L 8.3272630,19.054110 L 8.4434337,0.51593639 z "
         style="fill:#ffffff;fill-opacity:1.0000000;fill-rule:evenodd;stroke:none;stroke-width:0.25000000pt;stroke-linecap:butt;stroke-linejoin:miter;stroke-opacity:1.0000000" />
      <path
         sodipodi:nodetypes="ccccc"
         style="fill:url(#linearGradient7836);fill-opacity:1.0000000"
         id="path7830"
         d="M 48.764319,2.1620954 L 9.8406724,2.1620954 L 9.7827881,41.120058 L 48.699733,41.001339 L 48.764319,2.1620954 z " />
      <path
         sodipodi:nodetypes="ccccc"
         style="fill:url(#radialGradient7838);fill-opacity:1.0000000"
         id="path7832"
         d="M 48.865302,2.4966885 L 48.865302,0.83511139 L 9.3668792,0.83511139 L 9.3314258,20.518127 C 24.503585,22.490319 46.464710,7.4533577 48.865302,2.4966885 z " />
      <path
         sodipodi:nodetypes="cccccccccccc"
         style="fill:none;fill-opacity:1.0000000;stroke:url(#radialGradient8608);stroke-width:1.6440413;stroke-linecap:round;stroke-linejoin:round;stroke-miterlimit:4.0000000"
         id="path7834"
         d="M 8.2412387,2.9662133 L 8.3241298,41.576466 C 8.2743483,43.095990 9.1264584,43.773865 10.274345,43.825030 L 29.331675,43.817916 L 39.835447,43.814122 L 50.339220,43.810329 L 50.304812,33.848959 L 50.353296,0.71717475 L 39.825282,0.71717475 L 29.297268,0.71717475 L 10.194485,0.71717475 C 8.8464612,0.71717475 8.2412387,1.6519811 8.2412387,2.9662133 z " />
    </g>
    <g
       transform="matrix(1.060573,0.000000,0.000000,0.994068,-7.887086,0.116676)"
       id="g3953">
      <path
         sodipodi:nodetypes="ccccc"
         id="path3633"
         d="M 8.4434337,0.51593639 L 50.148753,0.55986561 L 49.627382,18.910670 L 8.3272630,19.054110 L 8.4434337,0.51593639 z "
         style="fill:#ffffff;fill-opacity:1.0000000;fill-rule:evenodd;stroke:none;stroke-width:0.25000000pt;stroke-linecap:butt;stroke-linejoin:miter;stroke-opacity:1.0000000" />
      <path
         sodipodi:nodetypes="ccccc"
         style="fill:url(#linearGradient3959);fill-opacity:1.0000000"
         id="path3635"
         d="M 48.764319,2.1620954 L 9.8406724,2.1620954 L 9.7827881,16.976840 L 48.699733,16.858121 L 48.764319,2.1620954 z " />
      <path
         sodipodi:nodetypes="ccccc"
         style="fill:url(#radialGradient3961);fill-opacity:1.0000000"
         id="path3637"
         d="M 48.865302,2.4966885 L 48.865302,0.83511139 L 9.3668792,0.83511139 L 9.3314258,10.458453 C 24.503585,12.430645 46.464710,7.4533577 48.865302,2.4966885 z " />
      <path
         sodipodi:nodetypes="cccccccccccc"
         style="fill:none;fill-opacity:1.0000000;stroke:url(#radialGradient5544);stroke-width:1.6440413;stroke-linecap:round;stroke-linejoin:round;stroke-miterlimit:4.0000000"
         id="path3639"
         d="M 8.2412387,2.9662133 L 8.2412387,16.460445 C 8.1914572,17.979969 9.0435673,18.657844 10.191454,18.709009 L 29.248784,18.701895 L 39.752556,18.698101 L 50.256329,18.694308 L 50.304812,9.7057413 L 50.353296,0.71717475 L 39.825282,0.71717475 L 29.297268,0.71717475 L 10.194485,0.71717475 C 8.8464612,0.71717475 8.2412387,1.6519811 8.2412387,2.9662133 z " />
    </g>
    <g
       transform="matrix(1.026793,0.000000,0.000000,1.067280,22.68312,-47.92917)"
       id="g2019">
      <path
         style="fill:url(#radialGradient3867);fill-opacity:1.0000000;stroke:url(#linearGradient3869);stroke-width:1.0654563;stroke-linecap:round;stroke-linejoin:round;stroke-miterlimit:4.0000000;stroke-dashoffset:0.0000000;stroke-opacity:1.0000000"
         d="M 24.093920,45.617937 L 37.567184,45.617937 C 38.623644,45.617937 39.474152,46.388393 39.474152,47.345426 L 39.474152,61.177647 C 39.474152,62.134681 38.623644,62.905137 37.567184,62.905137 L 24.093920,62.905137 C 23.037460,62.905137 22.186952,62.134681 22.186952,61.177647 L 22.186952,47.345426 C 22.186952,46.388393 23.037460,45.617937 24.093920,45.617937 z "
         id="path2021" />
      <path
         style="fill:#000000;fill-opacity:1.0000000;fill-rule:evenodd;stroke:none;stroke-width:1.0000000px;stroke-linecap:butt;stroke-linejoin:miter;stroke-opacity:1.0000000"
         d="M 30.760555,58.410893 L 26.508752,50.112179 L 35.152352,50.112179 L 30.760555,58.410893 z "
         id="path2023" />
      <path
         style="fill:url(#linearGradient3871);fill-opacity:1.0000000;fill-rule:evenodd;stroke:none;stroke-width:1.0000000px;stroke-linecap:butt;stroke-linejoin:miter;stroke-opacity:1.0000000"
         d="M 37.860285,45.704040 C 33.531985,45.675344 28.243971,45.646634 23.915672,45.617937 C 23.252186,45.496207 22.065222,46.508684 22.186952,47.346657 C 22.186952,50.227852 22.274199,57.820362 22.274199,60.701558 C 24.526398,60.717766 25.905845,53.557034 29.728766,52.287282 C 33.576977,51.009136 37.650843,47.927535 37.860285,45.704040 z "
         id="path2025" />
      <path
         style="opacity:0.76679844;fill:url(#radialGradient3873);fill-opacity:1.0000000;stroke:none;stroke-width:0.27500001;stroke-linecap:round;stroke-linejoin:round;stroke-miterlimit:4.0000000;stroke-dashoffset:0.0000000;stroke-opacity:1.0000000"
         d="M 24.093920,45.617937 L 37.567184,45.617937 C 38.623644,45.617937 39.474152,46.388393 39.474152,47.345426 L 39.474152,61.177647 C 39.474152,62.134681 38.623644,62.905137 37.567184,62.905137 L 24.093920,62.905137 C 23.037460,62.905137 22.186952,62.134681 22.186952,61.177647 L 22.186952,47.345426 C 22.186952,46.388393 23.037460,45.617937 24.093920,45.617937 z "
         id="path2027" />
    </g>
    <g
       id="g3967">
      <path
         style="opacity:0.76679844;fill:url(#linearGradient3949);fill-opacity:1.0000000;stroke:url(#linearGradient3951);stroke-width:1.1174164;stroke-linecap:round;stroke-linejoin:round;stroke-miterlimit:4.0000000;stroke-dashoffset:0.0000000;stroke-opacity:1.0000000"
         d="M 52.298000,19.981418 L 62.101470,19.981418 C 62.843729,19.981418 63.441288,20.906921 63.441288,22.056538 L 63.441288,61.366172 C 63.441288,62.515790 62.843729,63.441292 62.101470,63.441292 L 52.298000,63.441292 C 51.555740,63.441292 50.958181,62.515790 50.958181,61.366172 L 50.958181,22.056538 C 50.958181,20.906921 51.555740,19.981418 52.298000,19.981418 z "
         id="rect5011" />
      <rect
         style="opacity:0.76679844;fill:url(#linearGradient3946);fill-opacity:1.0000000;stroke:none;stroke-width:1.1500000;stroke-linecap:round;stroke-linejoin:round;stroke-miterlimit:4.0000000;stroke-dashoffset:0.0000000;stroke-opacity:1.0000000"
         id="rect7508"
         width="11.944047"
         height="6.7065506"
         x="51.010727"
         y="31.090637"
         rx="2.5609031"
         ry="0.86289835" />
      <path
         style="fill:url(#radialGradient3941);fill-opacity:1.0000000;stroke:url(#linearGradient3943);stroke-width:0.33724368;stroke-linecap:round;stroke-linejoin:round;stroke-miterlimit:4.0000000;stroke-dashoffset:0.0000000;stroke-opacity:1.0000000"
         d="M 52.481897,20.104013 L 61.948091,20.104013 C 62.690350,20.104013 63.287909,20.645329 63.287909,21.317732 L 63.287909,31.036127 C 63.287909,31.708530 62.690350,32.249846 61.948091,32.249846 L 52.481897,32.249846 C 51.739637,32.249846 51.142078,31.708530 51.142078,31.036127 L 51.142078,21.317732 C 51.142078,20.645329 51.739637,20.104013 52.481897,20.104013 z "
         id="rect1871" />
      <path
         style="fill:#000000;fill-opacity:1.0000000;fill-rule:evenodd;stroke:none;stroke-width:1.0000000px;stroke-linecap:butt;stroke-linejoin:miter;stroke-opacity:1.0000000"
         d="M 57.165814,23.261629 L 54.178536,29.092230 L 60.251451,29.092230 L 57.165814,23.261629 z "
         id="path2632" />
      <path
         style="fill:url(#linearGradient3937);fill-opacity:1.0000000;fill-rule:evenodd;stroke:none;stroke-width:1.0000000px;stroke-linecap:butt;stroke-linejoin:miter;stroke-opacity:1.0000000"
         d="M 62.154021,20.164510 C 59.112996,20.144348 55.397685,20.124175 52.356661,20.104013 C 51.890502,20.018488 51.056552,20.729845 51.142078,21.318597 C 51.142078,23.342899 51.203377,28.677329 51.203377,30.701631 C 52.785752,30.713019 53.754939,25.681953 56.440889,24.789836 C 59.144607,23.891823 62.006869,21.726716 62.154021,20.164510 z "
         id="path2664" />
      <path
         style="opacity:0.76679844;fill:url(#radialGradient3934);fill-opacity:1.0000000;stroke:none;stroke-width:0.27500001;stroke-linecap:round;stroke-linejoin:round;stroke-miterlimit:4.0000000;stroke-dashoffset:0.0000000;stroke-opacity:1.0000000"
         d="M 52.481897,20.104013 L 61.948091,20.104013 C 62.690350,20.104013 63.287909,20.645329 63.287909,21.317732 L 63.287909,31.036127 C 63.287909,31.708530 62.690350,32.249846 61.948091,32.249846 L 52.481897,32.249846 C 51.739637,32.249846 51.142078,31.708530 51.142078,31.036127 L 51.142078,21.317732 C 51.142078,20.645329 51.739637,20.104013 52.481897,20.104013 z "
         id="rect4229" />
      <g
         transform="matrix(0.702591,0.000000,0.000000,0.702591,35.55373,19.14659)"
         id="g2013">
        <path
           style="fill:url(#radialGradient3815);fill-opacity:1.0000000;stroke:url(#linearGradient3817);stroke-width:0.47999999;stroke-linecap:round;stroke-linejoin:round;stroke-miterlimit:4.0000000;stroke-dashoffset:0.0000000;stroke-opacity:1.0000000"
           d="M 24.093920,45.617937 L 37.567184,45.617937 C 38.623644,45.617937 39.474152,46.388393 39.474152,47.345426 L 39.474152,61.177647 C 39.474152,62.134681 38.623644,62.905137 37.567184,62.905137 L 24.093920,62.905137 C 23.037460,62.905137 22.186952,62.134681 22.186952,61.177647 L 22.186952,47.345426 C 22.186952,46.388393 23.037460,45.617937 24.093920,45.617937 z "
           id="rect4995" />
        <path
           style="fill:#000000;fill-opacity:1.0000000;fill-rule:evenodd;stroke:none;stroke-width:1.0000000px;stroke-linecap:butt;stroke-linejoin:miter;stroke-opacity:1.0000000"
           d="M 30.760555,58.410893 L 26.508752,50.112179 L 35.152352,50.112179 L 30.760555,58.410893 z "
           id="path4997" />
        <path
           style="fill:url(#linearGradient3819);fill-opacity:1.0000000;fill-rule:evenodd;stroke:none;stroke-width:1.0000000px;stroke-linecap:butt;stroke-linejoin:miter;stroke-opacity:1.0000000"
           d="M 37.860285,45.704040 C 33.531985,45.675344 28.243971,45.646634 23.915672,45.617937 C 23.252186,45.496207 22.065222,46.508684 22.186952,47.346657 C 22.186952,50.227852 22.274199,57.820362 22.274199,60.701558 C 24.526398,60.717766 25.905845,53.557034 29.728766,52.287282 C 33.576977,51.009136 37.650843,47.927535 37.860285,45.704040 z "
           id="path4999" />
        <path
           style="opacity:0.76679844;fill:url(#radialGradient3821);fill-opacity:1.0000000;stroke:none;stroke-width:0.27500001;stroke-linecap:round;stroke-linejoin:round;stroke-miterlimit:4.0000000;stroke-dashoffset:0.0000000;stroke-opacity:1.0000000"
           d="M 24.093920,45.617937 L 37.567184,45.617937 C 38.623644,45.617937 39.474152,46.388393 39.474152,47.345426 L 39.474152,61.177647 C 39.474152,62.134681 38.623644,62.905137 37.567184,62.905137 L 24.093920,62.905137 C 23.037460,62.905137 22.186952,62.134681 22.186952,61.177647 L 22.186952,47.345426 C 22.186952,46.388393 23.037460,45.617937 24.093920,45.617937 z "
           id="rect5001" />
      </g>
      <rect
         style="opacity:0.76679844;fill:url(#linearGradient3926);fill-opacity:1.0000000;stroke:none;stroke-width:1.1500000;stroke-linecap:round;stroke-linejoin:round;stroke-miterlimit:4.0000000;stroke-dashoffset:0.0000000;stroke-opacity:1.0000000"
         id="rect7498"
         width="11.944047"
         height="6.7065506"
         x="51.010727"
         y="45.142456"
         rx="2.5609031"
         ry="0.86289835" />
      <path
         style="fill:url(#radialGradient3921);fill-opacity:1.0000000;stroke:url(#linearGradient3923);stroke-width:0.33724368;stroke-linecap:round;stroke-linejoin:round;stroke-miterlimit:4.0000000;stroke-dashoffset:0.0000000;stroke-opacity:1.0000000"
         d="M 52.568586,39.538762 L 61.861402,39.538762 C 62.651687,39.538762 63.287909,40.254075 63.287909,41.142586 L 63.287909,44.312803 C 63.287909,45.201324 62.651687,45.916626 61.861402,45.916626 L 52.568586,45.916626 C 51.778299,45.916626 51.142078,45.201324 51.142078,44.312803 L 51.142078,41.142586 C 51.142078,40.254075 51.778299,39.538762 52.568586,39.538762 z "
         id="rect6545" />
      <g
         id="g7363"
         transform="matrix(0.971666,0.000000,0.000000,0.971666,20.97298,-88.72644)">
        <path
           sodipodi:type="arc"
           style="opacity:0.76679844;fill:url(#radialGradient3829);fill-opacity:1.0000000;stroke:none;stroke-width:1.1500000;stroke-linecap:round;stroke-linejoin:round;stroke-miterlimit:4.0000000;stroke-dashoffset:0.0000000;stroke-opacity:1.0000000"
           id="path6561"
           sodipodi:cx="19.694668"
           sodipodi:cy="133.33325"
           sodipodi:rx="0.55760670"
           sodipodi:ry="0.24534695"
           d="M 20.252275 133.33325 A 0.55760670 0.24534695 0 1 1  19.137061,133.33325 A 0.55760670 0.24534695 0 1 1  20.252275 133.33325 z"
           transform="matrix(0.779042,0.000000,0.000000,2.000000,19.66025,-133.3333)" />
        <path
           sodipodi:type="arc"
           style="opacity:0.76679844;fill:url(#radialGradient3831);fill-opacity:1.0000000;stroke:none;stroke-width:1.1500000;stroke-linecap:round;stroke-linejoin:round;stroke-miterlimit:4.0000000;stroke-dashoffset:0.0000000;stroke-opacity:1.0000000"
           id="path7331"
           sodipodi:cx="19.694668"
           sodipodi:cy="133.33325"
           sodipodi:rx="0.55760670"
           sodipodi:ry="0.24534695"
           d="M 20.252275 133.33325 A 0.55760670 0.24534695 0 1 1  19.137061,133.33325 A 0.55760670 0.24534695 0 1 1  20.252275 133.33325 z"
           transform="matrix(0.779042,0.000000,0.000000,2.000000,21.66025,-133.3333)" />
        <path
           sodipodi:type="arc"
           style="opacity:0.76679844;fill:url(#radialGradient3833);fill-opacity:1.0000000;stroke:none;stroke-width:1.1500000;stroke-linecap:round;stroke-linejoin:round;stroke-miterlimit:4.0000000;stroke-dashoffset:0.0000000;stroke-opacity:1.0000000"
           id="path7335"
           sodipodi:cx="19.694668"
           sodipodi:cy="133.33325"
           sodipodi:rx="0.55760670"
           sodipodi:ry="0.24534695"
           d="M 20.252275 133.33325 A 0.55760670 0.24534695 0 1 1  19.137061,133.33325 A 0.55760670 0.24534695 0 1 1  20.252275 133.33325 z"
           transform="matrix(0.779042,0.000000,0.000000,2.000000,23.66025,-133.3333)" />
        <path
           sodipodi:type="arc"
           style="opacity:0.76679844;fill:url(#radialGradient3835);fill-opacity:1.0000000;stroke:none;stroke-width:1.1500000;stroke-linecap:round;stroke-linejoin:round;stroke-miterlimit:4.0000000;stroke-dashoffset:0.0000000;stroke-opacity:1.0000000"
           id="path7339"
           sodipodi:cx="19.694668"
           sodipodi:cy="133.33325"
           sodipodi:rx="0.55760670"
           sodipodi:ry="0.24534695"
           d="M 20.252275 133.33325 A 0.55760670 0.24534695 0 1 1  19.137061,133.33325 A 0.55760670 0.24534695 0 1 1  20.252275 133.33325 z"
           transform="matrix(0.779042,0.000000,0.000000,2.000000,19.66025,-131.3333)" />
        <path
           sodipodi:type="arc"
           style="opacity:0.76679844;fill:url(#radialGradient3837);fill-opacity:1.0000000;stroke:none;stroke-width:1.1500000;stroke-linecap:round;stroke-linejoin:round;stroke-miterlimit:4.0000000;stroke-dashoffset:0.0000000;stroke-opacity:1.0000000"
           id="path7341"
           sodipodi:cx="19.694668"
           sodipodi:cy="133.33325"
           sodipodi:rx="0.55760670"
           sodipodi:ry="0.24534695"
           d="M 20.252275 133.33325 A 0.55760670 0.24534695 0 1 1  19.137061,133.33325 A 0.55760670 0.24534695 0 1 1  20.252275 133.33325 z"
           transform="matrix(0.779042,0.000000,0.000000,2.000000,21.66025,-131.3333)" />
        <path
           sodipodi:type="arc"
           style="opacity:0.76679844;fill:url(#radialGradient3839);fill-opacity:1.0000000;stroke:none;stroke-width:1.1500000;stroke-linecap:round;stroke-linejoin:round;stroke-miterlimit:4.0000000;stroke-dashoffset:0.0000000;stroke-opacity:1.0000000"
           id="path7343"
           sodipodi:cx="19.694668"
           sodipodi:cy="133.33325"
           sodipodi:rx="0.55760670"
           sodipodi:ry="0.24534695"
           d="M 20.252275 133.33325 A 0.55760670 0.24534695 0 1 1  19.137061,133.33325 A 0.55760670 0.24534695 0 1 1  20.252275 133.33325 z"
           transform="matrix(0.779042,0.000000,0.000000,2.000000,23.66025,-131.3333)" />
        <path
           sodipodi:type="arc"
           style="opacity:0.76679844;fill:url(#radialGradient3841);fill-opacity:1.0000000;stroke:none;stroke-width:1.1500000;stroke-linecap:round;stroke-linejoin:round;stroke-miterlimit:4.0000000;stroke-dashoffset:0.0000000;stroke-opacity:1.0000000"
           id="path7351"
           sodipodi:cx="19.694668"
           sodipodi:cy="133.33325"
           sodipodi:rx="0.55760670"
           sodipodi:ry="0.24534695"
           d="M 20.252275 133.33325 A 0.55760670 0.24534695 0 1 1  19.137061,133.33325 A 0.55760670 0.24534695 0 1 1  20.252275 133.33325 z"
           transform="matrix(0.779042,0.000000,0.000000,2.000000,19.66025,-129.3333)" />
        <path
           sodipodi:type="arc"
           style="opacity:0.76679844;fill:url(#radialGradient3843);fill-opacity:1.0000000;stroke:none;stroke-width:1.1500000;stroke-linecap:round;stroke-linejoin:round;stroke-miterlimit:4.0000000;stroke-dashoffset:0.0000000;stroke-opacity:1.0000000"
           id="path7353"
           sodipodi:cx="19.694668"
           sodipodi:cy="133.33325"
           sodipodi:rx="0.55760670"
           sodipodi:ry="0.24534695"
           d="M 20.252275 133.33325 A 0.55760670 0.24534695 0 1 1  19.137061,133.33325 A 0.55760670 0.24534695 0 1 1  20.252275 133.33325 z"
           transform="matrix(0.779042,0.000000,0.000000,2.000000,21.66025,-129.3333)" />
        <path
           sodipodi:type="arc"
           style="opacity:0.76679844;fill:url(#radialGradient3845);fill-opacity:1.0000000;stroke:none;stroke-width:1.1500000;stroke-linecap:round;stroke-linejoin:round;stroke-miterlimit:4.0000000;stroke-dashoffset:0.0000000;stroke-opacity:1.0000000"
           id="path7355"
           sodipodi:cx="19.694668"
           sodipodi:cy="133.33325"
           sodipodi:rx="0.55760670"
           sodipodi:ry="0.24534695"
           d="M 20.252275 133.33325 A 0.55760670 0.24534695 0 1 1  19.137061,133.33325 A 0.55760670 0.24534695 0 1 1  20.252275 133.33325 z"
           transform="matrix(0.779042,0.000000,0.000000,2.000000,23.66025,-129.3333)" />
      </g>
      <path
         style="fill:url(#linearGradient3908);fill-opacity:1.0000000;fill-rule:evenodd;stroke:none;stroke-width:1.0000000px;stroke-linecap:butt;stroke-linejoin:miter;stroke-opacity:1.0000000"
         d="M 62.154021,39.570536 C 59.112996,39.559945 55.397685,39.549354 52.356661,39.538762 C 51.890502,39.493852 51.056552,40.430869 51.142078,40.740034 C 51.142078,41.803008 51.160032,43.303805 51.160032,44.366779 C 52.742406,44.372765 53.754939,42.467783 56.440889,41.999324 C 59.144607,41.527773 62.006869,40.390856 62.154021,39.570536 z "
         id="path6549" />
      <path
         style="opacity:0.76679844;fill:url(#radialGradient3905);fill-opacity:1.0000000;stroke:none;stroke-width:0.27500001;stroke-linecap:round;stroke-linejoin:round;stroke-miterlimit:4.0000000;stroke-dashoffset:0.0000000;stroke-opacity:1.0000000"
         d="M 52.481897,39.538762 L 61.948091,39.538762 C 62.690350,39.538762 63.287909,40.080088 63.287909,40.752491 L 63.287909,44.702907 C 63.287909,45.375311 62.690350,45.916626 61.948091,45.916626 L 52.481897,45.916626 C 51.739637,45.916626 51.142078,45.375311 51.142078,44.702907 L 51.142078,40.752491 C 51.142078,40.080088 51.739637,39.538762 52.481897,39.538762 z "
         id="rect6551" />
    </g>
  </g>
</svg>
