<?xml version="1.0" encoding="UTF-8" standalone="no"?>
<!-- Created with Inkscape (http://www.inkscape.org/) -->
<svg
   xmlns:dc="http://purl.org/dc/elements/1.1/"
   xmlns:cc="http://web.resource.org/cc/"
   xmlns:rdf="http://www.w3.org/1999/02/22-rdf-syntax-ns#"
   xmlns:svg="http://www.w3.org/2000/svg"
   xmlns="http://www.w3.org/2000/svg"
   xmlns:xlink="http://www.w3.org/1999/xlink"
   xmlns:sodipodi="http://inkscape.sourceforge.net/DTD/sodipodi-0.dtd"
   xmlns:inkscape="http://www.inkscape.org/namespaces/inkscape"
   width="64px"
   height="64px"
   id="svg1378"
   sodipodi:version="0.32"
   inkscape:version="0.41"
   sodipodi:docbase="/home/pinheiro/kdeplayground-artwork/oooicons/crystalsvg"
   sodipodi:docname="compilebasic.svg"
   inkscape:export-filename="/home/pinheiro/kdeplayground-artwork/oooicons/crystalsvg/compilebasic.png"
   inkscape:export-xdpi="45.000000"
   inkscape:export-ydpi="45.000000">
  <defs
     id="defs3">
    <linearGradient
       inkscape:collect="always"
       xlink:href="#radialGradient11013"
       id="linearGradient1411"
       gradientUnits="userSpaceOnUse"
       gradientTransform="matrix(0.683275,0.000000,0.000000,0.689715,33.46004,27.56131)"
       x1="-37.252354"
       y1="-1.6177118"
       x2="45.926800"
       y2="45.363342" />
    <linearGradient
       inkscape:collect="always"
       xlink:href="#blueligtmoretoblue"
       id="linearGradient1409"
       gradientUnits="userSpaceOnUse"
       gradientTransform="matrix(0.683275,0.000000,0.000000,0.689715,33.46004,27.56131)"
       x1="73.722000"
       y1="42.066448"
       x2="-4.0270023"
       y2="-0.75110322" />
    <radialGradient
       cx="38.797401"
       cy="112.96090"
       r="67.358803"
       fx="38.797401"
       fy="112.96090"
       id="radialGradient11013"
       gradientUnits="userSpaceOnUse">
      <stop
         style="stop-color:#d9ffff;stop-opacity:1.0000000;"
         offset="0.0055999998"
         id="stop11015" />
      <stop
         style="stop-color:#95d9ff;stop-opacity:1.0000000;"
         offset="0.13480000"
         id="stop11017" />
      <stop
         style="stop-color:#68b9ff;stop-opacity:1.0000000;"
         offset="0.32049999"
         id="stop11019" />
      <stop
         style="stop-color:#3293fe;stop-opacity:1.0000000;"
         offset="0.56800002"
         id="stop11021" />
      <stop
         style="stop-color:#107bfe;stop-opacity:1.0000000;"
         offset="0.75340003"
         id="stop11023" />
      <stop
         style="stop-color:#0372fe;stop-opacity:1.0000000;"
         offset="0.85390002"
         id="stop11025" />
      <stop
         style="stop-color:#0356fe;stop-opacity:1.0000000;"
         offset="1.0000000"
         id="stop11027" />
    </radialGradient>
    <linearGradient
       inkscape:collect="always"
       xlink:href="#radialGradient11013"
       id="linearGradient1407"
       gradientUnits="userSpaceOnUse"
       gradientTransform="matrix(0.683275,0.000000,0.000000,0.689715,33.46004,27.56131)"
       x1="1.2687396"
       y1="-8.7389383"
       x2="41.168640"
       y2="62.050034" />
    <radialGradient
       cx="38.797401"
       cy="112.96090"
       r="67.358803"
       fx="38.797401"
       fy="112.96090"
       id="radialGradient11864"
       gradientUnits="userSpaceOnUse">
      <stop
         style="stop-color:#d9ffff;stop-opacity:1.0000000;"
         offset="0.0055999998"
         id="stop11866" />
      <stop
         style="stop-color:#95d9ff;stop-opacity:1.0000000;"
         offset="0.13480000"
         id="stop11868" />
      <stop
         style="stop-color:#68b9ff;stop-opacity:1.0000000;"
         offset="0.32049999"
         id="stop11870" />
      <stop
         style="stop-color:#3293fe;stop-opacity:1.0000000;"
         offset="0.56800002"
         id="stop11872" />
      <stop
         style="stop-color:#107bfe;stop-opacity:1.0000000;"
         offset="0.75340003"
         id="stop11874" />
      <stop
         style="stop-color:#0372fe;stop-opacity:1.0000000;"
         offset="0.85390002"
         id="stop11876" />
      <stop
         style="stop-color:#0356fe;stop-opacity:1.0000000;"
         offset="1.0000000"
         id="stop11878" />
    </radialGradient>
    <linearGradient
       inkscape:collect="always"
       xlink:href="#radialGradient11864"
       id="linearGradient1405"
       gradientUnits="userSpaceOnUse"
       gradientTransform="matrix(0.683275,0.000000,0.000000,0.689715,33.46004,27.56131)"
       x1="18.657167"
       y1="46.564915"
       x2="18.249159"
       y2="-1.8923472" />
    <radialGradient
       cx="38.797401"
       cy="112.96090"
       r="67.358803"
       fx="38.797401"
       fy="112.96090"
       id="blueligtmoretoblue"
       gradientUnits="userSpaceOnUse">
      <stop
         style="stop-color:#d9ffff;stop-opacity:1.0000000;"
         offset="0.0055999998"
         id="stop3457" />
      <stop
         style="stop-color:#6eaafe;stop-opacity:1.0000000;"
         offset="0.74217570"
         id="stop3465" />
      <stop
         style="stop-color:#0356fe;stop-opacity:1.0000000;"
         offset="1.0000000"
         id="stop3463" />
    </radialGradient>
    <linearGradient
       inkscape:collect="always"
       xlink:href="#blueligtmoretoblue"
       id="linearGradient1403"
       gradientUnits="userSpaceOnUse"
       gradientTransform="matrix(0.683275,0.000000,0.000000,0.689715,33.46004,27.56131)"
       x1="22.302633"
       y1="26.157118"
       x2="21.729713"
       y2="5.5432420" />
    <linearGradient
       inkscape:collect="always"
       xlink:href="#light100to0"
       id="linearGradient2469"
       x1="199.12406"
       y1="21.032457"
       x2="220.04206"
       y2="102.38912"
       gradientTransform="scale(0.747026,1.338642)"
       gradientUnits="userSpaceOnUse" />
    <linearGradient
       inkscape:collect="always"
       xlink:href="#light100to0"
       id="linearGradient2468"
       x1="18.809567"
       y1="232.78678"
       x2="58.429586"
       y2="296.31726"
       gradientTransform="scale(1.278924,0.781908)"
       gradientUnits="userSpaceOnUse" />
    <radialGradient
       inkscape:collect="always"
       xlink:href="#light100to25to0"
       id="radialGradient2467"
       cx="406.77215"
       cy="209.99586"
       fx="406.77215"
       fy="209.99586"
       r="181.02384"
       gradientTransform="scale(0.746344,1.339864)"
       gradientUnits="userSpaceOnUse" />
    <linearGradient
       inkscape:collect="always"
       xlink:href="#bluelignonlinblu"
       id="linearGradient2466"
       x1="250.67159"
       y1="-21.820315"
       x2="152.95656"
       y2="105.15331"
       gradientTransform="scale(0.746283,1.339974)"
       gradientUnits="userSpaceOnUse" />
    <linearGradient
       inkscape:collect="always"
       xlink:href="#bluelignonlinblu"
       id="linearGradient2465"
       spreadMethod="reflect"
       x1="78.528797"
       y1="65.382599"
       x2="280.66960"
       y2="297.71126"
       gradientTransform="scale(1.056051,0.946924)"
       gradientUnits="userSpaceOnUse" />
    <linearGradient
       inkscape:collect="always"
       xlink:href="#bluedarktoblackblue"
       id="linearGradient2464"
       x1="-129.37348"
       y1="-70.406264"
       x2="418.73522"
       y2="356.40094"
       gradientTransform="scale(1.053976,0.948788)"
       gradientUnits="userSpaceOnUse" />
    <linearGradient
       inkscape:collect="always"
       xlink:href="#blueligtmoretoblue"
       id="linearGradient2463"
       spreadMethod="reflect"
       x1="75.412579"
       y1="59.381731"
       x2="285.12177"
       y2="300.40905"
       gradientTransform="scale(1.053976,0.948788)"
       gradientUnits="userSpaceOnUse" />
    <radialGradient
       inkscape:collect="always"
       xlink:href="#light100to25to0"
       id="radialGradient10448"
       cx="0.63999999"
       cy="0.80111521"
       r="0.78281605"
       fx="0.63999999"
       fy="0.80111521" />
    <linearGradient
       inkscape:collect="always"
       xlink:href="#light100to0"
       id="linearGradient7948"
       x1="0.30298012"
       y1="-0.056213018"
       x2="0.55629140"
       y2="0.92899406" />
    <linearGradient
       inkscape:collect="always"
       xlink:href="#light100to0"
       id="linearGradient7324"
       x1="0.056410257"
       y1="0.091078065"
       x2="0.69743592"
       y2="1.1189591" />
    <linearGradient
       inkscape:collect="always"
       xlink:href="#bluelignonlinblu"
       id="linearGradient3579"
       x1="0.97019869"
       y1="-0.20218579"
       x2="0.54966885"
       y2="0.34426230" />
    <linearGradient
       inkscape:collect="always"
       xlink:href="#blueligtmoretoblue"
       id="linearGradient2331"
       x1="0.18222222"
       y1="0.087360598"
       x2="0.80000001"
       y2="0.79739779"
       spreadMethod="reflect" />
    <linearGradient
       inkscape:collect="always"
       xlink:href="#bluedarktoblackblue"
       id="linearGradient1705"
       x1="-0.42105263"
       y1="-0.29497907"
       x2="1.1936090"
       y2="0.96234310" />
    <linearGradient
       id="linearGradient581"
       xlink:href="#bluedarktoblackblue"
       x1="4.3021142e-16"
       y1="0.50000000"
       x2="1.0000000"
       y2="0.50000000" />
    <linearGradient
       x1="0.016544119"
       y1="0.46428570"
       x2="0.99264705"
       y2="0.46428570"
       id="linearGradient9077"
       collect="always"
       xlink:href="#blacktowhite" />
    <linearGradient
       x1="0.016544119"
       y1="0.46428570"
       x2="0.99264705"
       y2="0.46428570"
       id="linearGradient5108"
       collect="always"
       xlink:href="#garylighttowite" />
    <linearGradient
       x1="0.016544119"
       y1="0.46428570"
       x2="0.99264705"
       y2="0.46428570"
       id="linearGradient5103"
       collect="always"
       xlink:href="#graytolightgray" />
    <linearGradient
       x1="0.016544119"
       y1="0.46428570"
       x2="0.99264705"
       y2="0.46428570"
       id="linearGradient782"
       xlink:href="#graytoblack" />
    <linearGradient
       x1="-3.4965520e-17"
       y1="0.50000000"
       x2="1.0000000"
       y2="0.50000000"
       id="linearGradient4473"
       collect="always"
       xlink:href="#reddarktoblack" />
    <linearGradient
       x1="-2.0979312e-17"
       y1="0.50000000"
       x2="1.0000000"
       y2="0.50000000"
       id="linearGradient4471"
       collect="always"
       xlink:href="#redtodarkred" />
    <linearGradient
       x1="-6.9931040e-18"
       y1="0.50000000"
       x2="1.0000000"
       y2="0.50000000"
       id="linearGradient3704"
       collect="always"
       xlink:href="#greandarktobgrean" />
    <linearGradient
       x1="-5.4454054e-17"
       y1="0.50000000"
       x2="1.0000000"
       y2="0.50000000"
       id="linearGradient3080"
       collect="always"
       xlink:href="#greantodarkgrean" />
    <linearGradient
       x1="-4.7460950e-17"
       y1="0.50000000"
       x2="1.0000000"
       y2="0.50000000"
       id="linearGradient3471"
       collect="always"
       xlink:href="#bluelightlesstoblue" />
    <linearGradient
       x1="-3.3474742e-17"
       y1="0.50000000"
       x2="1.0000000"
       y2="0.50000000"
       id="linearGradient3464"
       collect="always"
       xlink:href="#blueligtmoretoblue" />
    <linearGradient
       x1="-5.0968344e-16"
       y1="0.50000000"
       x2="1.0000000"
       y2="0.50000000"
       id="linearGradient3445"
       collect="always"
       xlink:href="#shadow25tolineto0" />
    <linearGradient
       x1="-3.1582809e-16"
       y1="0.50000000"
       x2="1.0000000"
       y2="0.50000000"
       id="linearGradient3440"
       collect="always"
       xlink:href="#shadow0wto25to0" />
    <linearGradient
       x1="-3.5182360e-16"
       y1="0.50000000"
       x2="1.0000000"
       y2="0.50000000"
       id="linearGradient3435"
       collect="always"
       xlink:href="#shadow25to25w" />
    <linearGradient
       x1="-0.0092250919"
       y1="0.55782312"
       x2="0.99077493"
       y2="0.55782312"
       id="linearGradient3431"
       collect="always"
       xlink:href="#sadow75to0w" />
    <linearGradient
       x1="6.8293895e-16"
       y1="0.50000000"
       x2="1.0000000"
       y2="0.50000000"
       id="linearGradient3427"
       collect="always"
       xlink:href="#shadow100to0" />
    <linearGradient
       x1="0.0036900369"
       y1="0.57142860"
       x2="1.0000000"
       y2="0.56802720"
       id="linearGradient2794"
       collect="always"
       xlink:href="#light50to25to7" />
    <linearGradient
       x1="-6.5594231e-17"
       y1="0.50000000"
       x2="1.0000000"
       y2="0.50000000"
       id="linearGradient2788"
       collect="always"
       xlink:href="#light100to25to0" />
    <linearGradient
       x1="1.2826112e-16"
       y1="0.50000000"
       x2="1.0000000"
       y2="0.50000000"
       id="linearGradient2781"
       collect="always"
       xlink:href="#light100to75to0" />
    <linearGradient
       x1="9.2265605e-17"
       y1="0.50000000"
       x2="1.0000000"
       y2="0.50000000"
       id="linearGradient2776"
       collect="always"
       xlink:href="#light75to25" />
    <linearGradient
       x1="5.6270093e-17"
       y1="0.50000000"
       x2="1.0000000"
       y2="0.50000000"
       id="linearGradient2771"
       collect="always"
       xlink:href="#light75to0" />
    <linearGradient
       x1="2.0274581e-17"
       y1="0.50000000"
       x2="1.0000000"
       y2="0.50000000"
       id="linearGradient2766"
       collect="always"
       xlink:href="#light100to0" />
    <linearGradient
       x1="-6.9931040e-18"
       y1="0.50000000"
       x2="1.0000000"
       y2="0.50000000"
       id="linearGradient2757"
       collect="always"
       xlink:href="#orangelesstoyelow" />
    <linearGradient
       x1="-1.3227267e-17"
       y1="0.50000000"
       x2="1.0000000"
       y2="0.50000000"
       id="linearGradient2756"
       collect="always"
       xlink:href="#orangemoretoyelow" />
    <linearGradient
       x1="-3.3718688e-17"
       y1="0.50000000"
       x2="1.0000000"
       y2="0.50000000"
       id="linearGradient2755"
       collect="always"
       xlink:href="#orangetoyelow" />
    <linearGradient
       id="linearGradient2754"
       collect="always"
       xlink:href="#bluelignonlinblu"
       x1="0.18222222"
       y1="0.087360598"
       x2="0.80000001"
       y2="0.79739779"
       spreadMethod="reflect" />
    <linearGradient
       id="orangetoyelow">
      <stop
         style="stop-color:#ff7d00;stop-opacity:1.0000000;"
         offset="0.0000000"
         id="stop2661" />
      <stop
         style="stop-color:#ffff00;stop-opacity:1.0000000;"
         offset="1.0000000"
         id="stop2662" />
    </linearGradient>
    <linearGradient
       id="orangemoretoyelow">
      <stop
         style="stop-color:#ff7d00;stop-opacity:1.0000000;"
         offset="0.0000000"
         id="stop2671" />
      <stop
         style="stop-color:#ffbe00;stop-opacity:1.0000000;"
         offset="0.74641621"
         id="stop2679" />
      <stop
         style="stop-color:#ffff00;stop-opacity:1.0000000;"
         offset="1.0000000"
         id="stop2672" />
    </linearGradient>
    <linearGradient
       id="orangelesstoyelow">
      <stop
         style="stop-color:#ff7d00;stop-opacity:1.0000000;"
         offset="0.0000000"
         id="stop2689" />
      <stop
         style="stop-color:#ffbe00;stop-opacity:1.0000000;"
         offset="0.25358382"
         id="stop2690" />
      <stop
         style="stop-color:#ffff00;stop-opacity:1.0000000;"
         offset="1.0000000"
         id="stop2691" />
    </linearGradient>
    <linearGradient
       id="orangetoblackorange">
      <stop
         style="stop-color:#ff8b00;stop-opacity:1.0000000;"
         offset="0.0000000"
         id="stop4207" />
      <stop
         style="stop-color:#4d0200;stop-opacity:1.0000000;"
         offset="1.0000000"
         id="stop4209" />
    </linearGradient>
    <linearGradient
       id="reddarktoblack">
      <stop
         style="stop-color:#8e0000;stop-opacity:1.0000000;"
         offset="0.0000000"
         id="stop3230" />
      <stop
         style="stop-color:#000000;stop-opacity:1.0000000;"
         offset="1.0000000"
         id="stop3231" />
    </linearGradient>
    <linearGradient
       id="redtodarkred">
      <stop
         style="stop-color:#ff0000;stop-opacity:1.0000000;"
         offset="0.0000000"
         id="stop3856" />
      <stop
         style="stop-color:#920000;stop-opacity:1.0000000;"
         offset="1.0000000"
         id="stop3855" />
    </linearGradient>
    <linearGradient
       id="greandarktobgrean">
      <stop
         style="stop-color:#00ad01;stop-opacity:1.0000000;"
         offset="0.0000000"
         id="stop4492" />
      <stop
         style="stop-color:#15720f;stop-opacity:1.0000000;"
         offset="1.0000000"
         id="stop4493" />
    </linearGradient>
    <linearGradient
       id="greandraktoblack">
      <stop
         style="stop-color:#007c00;stop-opacity:1.0000000;"
         offset="0.0000000"
         id="stop7328" />
      <stop
         style="stop-color:#025a00;stop-opacity:1.0000000;"
         offset="1.0000000"
         id="stop7329" />
    </linearGradient>
    <linearGradient
       id="greantodarkgrean">
      <stop
         style="stop-color:#00ff01;stop-opacity:1.0000000;"
         offset="0.0000000"
         id="stop5123" />
      <stop
         style="stop-color:#15980f;stop-opacity:1.0000000;"
         offset="1.0000000"
         id="stop5124" />
    </linearGradient>
    <radialGradient
       cx="38.797401"
       cy="112.96090"
       r="67.358803"
       fx="38.797401"
       fy="112.96090"
       id="bluedarktoblackblue"
       gradientUnits="userSpaceOnUse">
      <stop
         style="stop-color:#0356fe;stop-opacity:1.0000000;"
         offset="0.0000000"
         id="stop2959" />
      <stop
         style="stop-color:#032442;stop-opacity:1.0000000;"
         offset="1.0000000"
         id="stop2960" />
    </radialGradient>
    <radialGradient
       cx="38.797401"
       cy="112.96090"
       r="67.358803"
       fx="38.797401"
       fy="112.96090"
       id="radialGradient1718"
       gradientUnits="userSpaceOnUse">
      <stop
         style="stop-color:#d9ffff;stop-opacity:1.0000000;"
         offset="0.0055999998"
         id="stop1720" />
      <stop
         style="stop-color:#6eaafe;stop-opacity:1.0000000;"
         offset="0.74217570"
         id="stop1722" />
      <stop
         style="stop-color:#0356fe;stop-opacity:1.0000000;"
         offset="1.0000000"
         id="stop1724" />
    </radialGradient>
    <radialGradient
       cx="38.797401"
       cy="112.96090"
       r="67.358803"
       fx="38.797401"
       fy="112.96090"
       id="bluelignonlinblu"
       gradientUnits="userSpaceOnUse">
      <stop
         style="stop-color:#d9ffff;stop-opacity:1.0000000;"
         offset="0.0055999998"
         id="stop84" />
      <stop
         style="stop-color:#95d9ff;stop-opacity:1.0000000;"
         offset="0.13480000"
         id="stop86" />
      <stop
         style="stop-color:#68b9ff;stop-opacity:1.0000000;"
         offset="0.32049999"
         id="stop88" />
      <stop
         style="stop-color:#3293fe;stop-opacity:1.0000000;"
         offset="0.56800002"
         id="stop90" />
      <stop
         style="stop-color:#107bfe;stop-opacity:1.0000000;"
         offset="0.75340003"
         id="stop92" />
      <stop
         style="stop-color:#0372fe;stop-opacity:1.0000000;"
         offset="0.85390002"
         id="stop94" />
      <stop
         style="stop-color:#0356fe;stop-opacity:1.0000000;"
         offset="1.0000000"
         id="stop96" />
    </radialGradient>
    <radialGradient
       cx="38.797401"
       cy="112.96090"
       r="67.358803"
       fx="38.797401"
       fy="112.96090"
       id="bluelightlesstoblue"
       gradientUnits="userSpaceOnUse">
      <stop
         style="stop-color:#d9ffff;stop-opacity:1.0000000;"
         offset="0.0055999998"
         id="stop3468" />
      <stop
         style="stop-color:#6eaafe;stop-opacity:1.0000000;"
         offset="0.24089479"
         id="stop3469" />
      <stop
         style="stop-color:#0356fe;stop-opacity:1.0000000;"
         offset="1.0000000"
         id="stop3470" />
    </radialGradient>
    <radialGradient
       cx="38.797401"
       cy="112.96090"
       r="67.358803"
       fx="38.797401"
       fy="112.96090"
       id="bluelighttowhite"
       gradientUnits="userSpaceOnUse">
      <stop
         style="stop-color:#69d3ff;stop-opacity:1.0000000;"
         offset="0.0055999998"
         id="stop6078" />
      <stop
         style="stop-color:#edffff;stop-opacity:1.0000000;"
         offset="1.0000000"
         id="stop6080" />
    </radialGradient>
    <linearGradient
       id="light100to0">
      <stop
         style="stop-color:#ffffff;stop-opacity:1.0000000;"
         offset="0.0000000"
         id="stop2764" />
      <stop
         style="stop-color:#ffffff;stop-opacity:0.0000000;"
         offset="1.0000000"
         id="stop2765" />
    </linearGradient>
    <linearGradient
       id="light75to0">
      <stop
         style="stop-color:#ffffff;stop-opacity:0.72916669;"
         offset="0.0000000"
         id="stop2769" />
      <stop
         style="stop-color:#ffffff;stop-opacity:0.0000000;"
         offset="1.0000000"
         id="stop2770" />
    </linearGradient>
    <linearGradient
       id="light75to25">
      <stop
         style="stop-color:#ffffff;stop-opacity:0.72941178;"
         offset="0.0000000"
         id="stop2774" />
      <stop
         style="stop-color:#ffffff;stop-opacity:0.26249999;"
         offset="1.0000000"
         id="stop2775" />
    </linearGradient>
    <linearGradient
       id="light100to75to0">
      <stop
         style="stop-color:#ffffff;stop-opacity:1.0000000;"
         offset="0.0000000"
         id="stop2779" />
      <stop
         style="stop-color:#ffffff;stop-opacity:0.77499998;"
         offset="0.50000000"
         id="stop2782" />
      <stop
         style="stop-color:#ffffff;stop-opacity:0.0000000;"
         offset="1.0000000"
         id="stop2780" />
    </linearGradient>
    <linearGradient
       id="light100to25to0">
      <stop
         style="stop-color:#ffffff;stop-opacity:1.0000000;"
         offset="0.0000000"
         id="stop2785" />
      <stop
         style="stop-color:#ffffff;stop-opacity:0.28749999;"
         offset="0.50000000"
         id="stop2786" />
      <stop
         style="stop-color:#ffffff;stop-opacity:0.0000000;"
         offset="1.0000000"
         id="stop2787" />
    </linearGradient>
    <linearGradient
       id="light50to25to7">
      <stop
         style="stop-color:#ffffff;stop-opacity:0.47450981;"
         offset="0.0000000"
         id="stop2791" />
      <stop
         style="stop-color:#ffffff;stop-opacity:0.25833333;"
         offset="0.50000000"
         id="stop2795" />
      <stop
         style="stop-color:#ffffff;stop-opacity:0.10833333;"
         offset="1.0000000"
         id="stop2793" />
    </linearGradient>
    <linearGradient
       id="shadow100to0">
      <stop
         style="stop-color:#000000;stop-opacity:1.0000000;"
         offset="0.0000000"
         id="stop3425" />
      <stop
         style="stop-color:#000000;stop-opacity:0.0000000;"
         offset="1.0000000"
         id="stop3426" />
    </linearGradient>
    <linearGradient
       id="sadow75to0w">
      <stop
         style="stop-color:#000000;stop-opacity:0.72941178;"
         offset="0.0000000"
         id="stop3429" />
      <stop
         style="stop-color:#ffffff;stop-opacity:0.0000000;"
         offset="1.0000000"
         id="stop3430" />
    </linearGradient>
    <linearGradient
       id="shadow25to25w">
      <stop
         style="stop-color:#000000;stop-opacity:0.25416666;"
         offset="0.0000000"
         id="stop3433" />
      <stop
         style="stop-color:#ffffff;stop-opacity:0.26274511;"
         offset="1.0000000"
         id="stop3434" />
    </linearGradient>
    <linearGradient
       id="shadow0wto25to0">
      <stop
         style="stop-color:#ffffff;stop-opacity:0.0000000;"
         offset="0.0000000"
         id="stop3437" />
      <stop
         style="stop-color:#000000;stop-opacity:0.27916667;"
         offset="0.50000000"
         id="stop3438" />
      <stop
         style="stop-color:#000000;stop-opacity:0.0000000;"
         offset="1.0000000"
         id="stop3439" />
    </linearGradient>
    <linearGradient
       id="shadow25tolineto0">
      <stop
         style="stop-color:#000000;stop-opacity:0.25490198;"
         offset="0.0000000"
         id="stop3442" />
      <stop
         style="stop-color:#000000;stop-opacity:0.029166667;"
         offset="0.45393065"
         id="stop3450" />
      <stop
         style="stop-color:#000000;stop-opacity:0.37083334;"
         offset="0.50000000"
         id="stop3449" />
      <stop
         style="stop-color:#000000;stop-opacity:0.062745102;"
         offset="0.53497112"
         id="stop3451" />
      <stop
         style="stop-color:#000000;stop-opacity:0.0000000;"
         offset="1.0000000"
         id="stop3444" />
    </linearGradient>
    <linearGradient
       id="graytoblack">
      <stop
         style="stop-color:#7d7d7d;stop-opacity:1.0000000;"
         offset="0.0000000"
         id="stop5097" />
      <stop
         style="stop-color:#000000;stop-opacity:1.0000000;"
         offset="1.0000000"
         id="stop5098" />
    </linearGradient>
    <linearGradient
       id="graytolightgray">
      <stop
         style="stop-color:#d4d3d3;stop-opacity:1.0000000;"
         offset="0.0000000"
         id="stop5101" />
      <stop
         style="stop-color:#ffffff;stop-opacity:1.0000000;"
         offset="1.0000000"
         id="stop5102" />
    </linearGradient>
    <linearGradient
       id="garylighttowite">
      <stop
         style="stop-color:#7d7d7d;stop-opacity:1.0000000;"
         offset="0.0000000"
         id="stop5106" />
      <stop
         style="stop-color:#d3d4d4;stop-opacity:1.0000000;"
         offset="1.0000000"
         id="stop5107" />
    </linearGradient>
    <linearGradient
       id="blacktowhite">
      <stop
         style="stop-color:#000000;stop-opacity:1.0000000;"
         offset="0.0000000"
         id="stop2476" />
      <stop
         style="stop-color:#ffffff;stop-opacity:1.0000000;"
         offset="1.0000000"
         id="stop2475" />
    </linearGradient>
  </defs>
  <sodipodi:namedview
     id="base"
     pagecolor="#ffffff"
     bordercolor="#666666"
     borderopacity="1.0"
     inkscape:pageopacity="0.0"
     inkscape:pageshadow="2"
     inkscape:zoom="9.6491213"
     inkscape:cx="32.174044"
     inkscape:cy="31.500001"
     inkscape:current-layer="layer1"
     showgrid="false"
     inkscape:document-units="px"
     inkscape:grid-bbox="true"
     inkscape:window-width="899"
     inkscape:window-height="724"
     inkscape:window-x="200"
     inkscape:window-y="51" />
  <metadata
     id="metadata4">
    <rdf:RDF
       id="RDF5">
      <cc:Work
         rdf:about=""
         id="Work6">
        <dc:format
           id="format7">image/svg+xml</dc:format>
        <dc:type
           id="type9"
           rdf:resource="http://purl.org/dc/dcmitype/StillImage" />
      </cc:Work>
    </rdf:RDF>
  </metadata>
  <g
     id="layer1"
     inkscape:label="Layer 1"
     inkscape:groupmode="layer">
    <g
       id="g1388"
       transform="matrix(1.336363,0.000000,0.000000,1.185144,-21.52726,-24.44346)">
      <path
         style="opacity:0.099999972;fill:#000030"
         id="path114"
         d="M 63.813432,48.692892 C 63.813432,48.692892 61.031709,46.597864 60.721084,46.364183 C 60.713064,46.219009 60.709322,46.140757 60.702372,46.012853 C 60.907673,45.758665 62.920051,43.263195 62.920051,43.263195 C 62.989554,43.178466 63.024306,43.073229 63.024306,42.967451 C 63.024306,42.897833 63.009336,42.827135 62.976723,42.761295 L 61.318810,39.366182 C 61.256792,39.238279 61.139171,39.145994 61.000165,39.116312 C 61.000165,39.116312 58.736507,38.626285 58.439782,38.562602 C 58.266560,38.331620 56.653556,36.182084 56.317269,35.734691 C 56.599558,35.354758 57.277479,34.442703 57.277479,34.442703 C 57.339497,34.358513 57.370506,34.260292 57.370506,34.162071 C 57.370506,34.036326 57.320250,33.910581 57.222411,33.819375 L 54.444431,31.211653 C 54.304356,31.079971 54.098520,31.048670 53.925832,31.133939 C 53.925832,31.133939 52.449695,31.861425 52.071706,32.047613 C 51.704410,31.796124 49.306557,30.148488 48.980962,29.925061 C 48.970804,29.566175 48.938726,28.392376 48.938726,28.392376 C 48.933914,28.209426 48.822710,28.045903 48.656437,27.975206 L 44.854624,26.351855 C 44.738608,26.302205 44.608691,26.302205 44.492674,26.352395 C 44.377192,26.401505 44.286304,26.497028 44.241394,26.614678 C 44.241394,26.614678 43.698736,28.045364 43.501990,28.562375 C 42.952381,28.459296 41.196629,28.126315 40.932518,28.076665 C 40.743256,27.837048 39.333950,26.048017 39.333950,26.048017 C 39.233438,25.920653 39.074115,25.855352 38.913724,25.875320 L 35.122604,26.354553 C 34.911956,26.381537 34.746219,26.549377 34.720556,26.760931 C 34.720556,26.760931 34.322785,30.005473 34.266648,30.462580 C 34.103049,30.535976 34.011091,30.577531 33.865669,30.643372 C 33.518689,30.467977 30.747124,29.069132 30.747124,29.069132 C 30.557328,28.973070 30.327433,29.020022 30.188962,29.182465 L 28.051478,31.688188 C 27.989995,31.759965 27.951501,31.848472 27.941877,31.942916 L 27.498662,36.077387 C 27.497593,36.094117 27.496524,36.111386 27.496524,36.127577 C 27.496524,36.258179 27.551057,36.383924 27.647826,36.473510 C 27.647826,36.473510 28.282977,37.058521 28.876425,37.605214 C 27.757962,37.635976 26.226223,37.677531 26.226223,37.677531 C 26.001675,37.683467 25.814017,37.850228 25.780335,38.074734 L 25.162828,42.195173 C 25.159620,42.217840 25.157481,42.242125 25.157481,42.265331 C 25.157481,42.280982 25.158551,42.297712 25.160155,42.313363 L 25.614597,46.747894 C 25.637052,46.968082 25.810275,47.141319 26.027872,47.163985 C 26.027872,47.163985 29.502486,47.525569 29.952652,47.571442 C 30.114113,47.903884 30.717185,49.140825 30.926763,49.571488 C 30.634316,49.846183 30.119994,50.329195 30.119994,50.329195 C 30.056906,50.387480 30.011997,50.461956 29.989542,50.545066 L 28.946463,54.283413 C 28.934701,54.325508 28.928820,54.367603 28.928820,54.410238 C 28.928820,54.522491 28.969452,54.633664 29.045371,54.720013 L 32.634397,58.817246 C 32.792116,58.996958 33.059969,59.027720 33.252974,58.885784 C 33.252974,58.885784 36.068379,56.829613 36.500367,56.514441 C 36.939305,56.786978 39.921517,58.638073 40.288813,58.865277 C 40.293625,59.331019 40.332119,63.619838 40.332119,63.619838 C 40.333723,63.841106 40.489838,64.031072 40.704762,64.074246 L 45.268435,64.991158 C 45.443261,65.025698 45.621830,64.957698 45.729293,64.813604 L 48.361317,61.285732 C 48.407830,61.223669 48.438839,61.149732 48.449532,61.072559 C 48.449532,61.072559 48.503530,60.706657 48.549510,60.392565 C 49.024803,60.376914 49.976459,60.343454 50.318627,60.332660 C 50.571511,60.725546 52.628265,63.919358 52.628265,63.919358 C 52.759251,64.122277 53.022293,64.190817 53.235079,64.076945 L 56.642329,62.245278 C 56.693654,62.216675 56.740168,62.179977 56.777592,62.135184 C 56.777592,62.135184 59.672124,58.688803 59.749112,58.597597 C 59.833585,58.538232 59.902553,58.457820 59.933027,58.357980 C 59.946928,58.312107 59.954947,58.264616 59.954947,58.217664 C 59.954947,58.141030 59.936770,58.066014 59.900415,57.998015 C 59.900415,57.998015 59.496762,57.233292 59.096318,56.476124 C 59.254572,56.559234 59.525633,56.703868 59.525633,56.703868 C 59.709014,56.800470 59.934631,56.763232 60.076845,56.612662 L 63.369148,53.127424 C 63.436512,53.056726 63.479818,52.964981 63.492649,52.868379 L 63.995209,49.131111 C 63.998951,49.109523 64.000021,49.088476 64.000021,49.067428 C 64.000021,48.921716 63.931587,48.781939 63.813432,48.692892 z M 35.836346,38.776854 C 38.361443,35.721739 43.543691,35.636470 47.931467,38.747712 C 51.729538,41.440164 53.767579,45.700919 53.259673,49.237966 C 52.563574,49.677804 51.760012,50.004309 50.860216,50.196974 C 48.020217,50.806810 44.578216,50.025897 41.651072,48.107881 C 37.969553,45.694982 35.815495,42.017619 35.836346,38.776854 z "
         enable-background="new    " />
      <path
         style="fill:#ffffff"
         id="path118"
         d="M 34.666557,25.765225 L 34.185918,24.967042 L 33.536332,28.911546 L 35.864147,27.863492 L 34.666557,25.765225 z " />
      <path
         style="fill:#ffffff"
         id="path120"
         d="M 61.458885,41.180039 L 59.675866,41.164928 L 58.917215,41.195150 L 59.070656,43.986363 L 61.458885,41.180039 z " />
      <path
         style="fill:#ffffff"
         id="path122"
         d="M 29.625453,36.127577 L 30.454143,32.437261 L 27.929581,30.496040 L 27.374092,30.187884 L 26.801494,34.256514 L 28.879098,36.170211 L 29.625453,36.127577 z " />
      <path
         style="fill:#ffffff"
         id="path124"
         d="M 30.335988,47.806202 L 32.500738,45.721427 L 30.258465,41.343022 L 25.774454,40.899947 L 25.290606,36.405510 L 25.230727,36.403352 L 24.461917,40.393729 L 24.916360,44.828260 L 29.096161,45.262161 L 30.335988,47.806202 z " />
      <path
         style="fill:#ffffff"
         id="path126"
         d="M 61.085707,50.283862 L 58.380972,48.919017 L 55.992209,51.920165 L 56.819294,53.484150 L 58.581997,54.419412 L 61.833132,50.719382 L 61.085707,50.283862 z " />
      <path
         style="fill:url(#linearGradient1403);fill-opacity:1.0000000"
         id="path139"
         d="M 49.326873,32.499863 C 44.057479,29.047005 37.751420,29.409669 35.241828,33.310999 C 34.445217,34.550639 34.128711,35.998054 34.234570,37.505914 C 36.549553,33.869026 42.112464,33.570584 46.773976,36.876109 C 50.791247,39.723449 52.843189,44.328519 51.990976,47.971883 C 52.936216,47.450554 53.736570,46.732244 54.324672,45.815870 C 56.834264,41.915080 54.595733,35.953261 49.326873,32.499863 z " />
      <path
         style="fill:url(#linearGradient1405);fill-opacity:1.0000000"
         id="path152"
         d="M 29.276869,48.800828 L 28.233790,52.539715 L 31.822817,56.636948 L 35.320420,54.081574 L 39.591111,56.732471 L 39.636555,61.745537 L 44.199693,62.661909 L 46.832786,59.134037 L 46.987831,58.068173 L 49.404396,57.985603 L 51.857851,61.793568 L 55.265101,59.962442 L 58.276183,56.376823 L 58.275649,56.376823 L 58.332320,56.347141 L 56.819294,53.483611 L 58.581997,54.418873 L 61.874299,50.933634 L 62.377394,47.196366 L 59.111823,44.736515 L 59.070656,43.985284 L 61.402748,41.095310 L 59.745369,37.700737 L 57.016576,37.110869 L 54.579160,33.863629 L 55.748948,32.288849 L 52.970968,29.681666 L 50.875721,30.714070 L 47.366355,28.303869 L 47.317168,26.532107 L 43.516425,24.908757 L 42.638549,27.221276 L 39.519469,26.630329 L 37.813438,24.465682 L 34.022318,24.944915 L 33.536332,28.908848 L 32.696415,29.287162 L 29.382193,27.614161 L 27.244709,30.119345 L 26.801494,34.254355 L 28.879098,36.168052 L 25.080493,36.271131 L 24.462986,40.391570 L 24.917428,44.826101 L 29.097231,45.260003 L 30.336522,47.804043 L 29.276869,48.800828 z M 54.324137,45.816410 C 51.816149,49.718280 45.509556,50.082023 40.240161,46.629165 C 34.970232,43.175767 32.732236,37.213408 35.241294,33.311538 C 37.750886,29.410209 44.056944,29.047005 49.326339,32.500403 C 54.595733,35.953261 56.834264,41.915080 54.324137,45.816410 z " />
      <path
         style="fill:url(#linearGradient1407);fill-opacity:1.0000000"
         id="path165"
         d="M 58.876047,44.691722 L 58.684113,41.204865 L 61.132221,41.107722 L 59.500505,37.765498 L 56.812878,37.184805 L 54.413956,33.987755 L 55.565567,32.437261 L 52.830358,29.870014 L 50.767189,30.887306 L 47.312356,28.514344 L 47.263704,26.770105 L 43.520702,25.172659 L 42.657261,27.449020 L 39.586833,26.867787 L 37.907000,24.735520 L 34.355933,25.220151 L 35.987114,28.077744 L 32.868034,29.483065 L 29.604602,27.835969 L 27.637134,30.258042 L 30.659978,32.583513 L 29.844655,36.216623 L 25.572895,36.458399 L 26.053535,40.915597 L 30.467509,41.351117 L 32.674495,45.661523 L 29.555950,48.665369 L 33.346536,52.782570 L 37.041421,50.214784 L 41.552164,52.878632 L 41.600281,57.917063 L 46.782530,58.885784 L 47.454570,54.284493 L 51.917196,54.138779 L 54.509122,57.965634 L 58.107772,56.125333 L 55.804551,51.765277 L 58.155355,48.810542 L 61.610187,50.553701 L 62.089758,47.114875 L 58.876047,44.691722 z M 54.162142,45.754887 C 51.692648,49.596312 45.483893,49.953580 40.295764,46.554149 C 35.107099,43.154720 32.903855,37.284646 35.374419,33.442680 C 37.844447,29.601254 44.053201,29.242908 49.241866,32.642878 C 54.429996,36.043927 56.633240,41.913461 54.162142,45.754887 z " />
      <path
         style="fill:url(#linearGradient1409);fill-opacity:1.0000000"
         id="path178"
         d="M 34.853146,33.056811 C 32.208825,37.168076 34.512047,43.432654 39.987812,47.020431 C 43.116515,49.071207 46.819420,49.900691 49.894125,49.240125 C 52.004877,48.787336 53.670809,47.691250 54.712819,46.070599 C 55.446343,44.931879 55.818986,43.611827 55.818986,42.187618 C 55.818986,41.588035 55.752690,40.969025 55.619031,40.338142 C 54.965169,37.234455 52.707391,34.157753 49.578688,32.106978 C 44.102923,28.519740 37.497467,28.945006 34.853146,33.056811 z M 40.492511,46.236280 C 35.445525,42.929135 33.264736,37.245249 35.630510,33.566266 C 37.996285,29.887284 44.027539,29.584524 49.073990,32.891669 C 52.001134,34.810223 54.109213,37.666198 54.712819,40.532426 C 55.109521,42.414822 54.841133,44.153664 53.935456,45.561143 C 53.030847,46.968622 51.566473,47.923851 49.701120,48.324832 C 46.862191,48.935748 43.419120,48.154833 40.492511,46.236280 z " />
      <path
         style="fill:url(#linearGradient1411);fill-opacity:1.0000000"
         id="path191"
         d="M 37.756232,24.003717 L 33.965112,24.482951 C 33.754465,24.509395 33.588727,24.677235 33.563064,24.889868 C 33.563064,24.889868 33.164759,28.133871 33.109156,28.591517 C 32.945557,28.665453 32.853064,28.706469 32.708177,28.771770 C 32.361197,28.596914 29.589633,27.198070 29.589633,27.198070 C 29.400371,27.102007 29.170476,27.148959 29.032005,27.311402 L 26.894521,29.816586 C 26.833038,29.888363 26.794544,29.976870 26.784920,30.071314 L 26.341705,34.205784 C 26.340101,34.223054 26.339032,34.239244 26.339032,34.256514 C 26.339032,34.386576 26.394100,34.512321 26.490335,34.601908 C 26.490335,34.601908 27.125485,35.186379 27.718933,35.734152 C 26.601005,35.764913 25.068731,35.806468 25.068731,35.806468 C 24.844183,35.811865 24.656525,35.979705 24.622843,36.203672 L 24.005336,40.324111 C 24.002128,40.347317 23.999989,40.370523 23.999989,40.393729 C 23.999989,40.409919 24.000524,40.426109 24.002663,40.441760 L 24.456571,44.876292 C 24.479026,45.096480 24.651714,45.270796 24.870380,45.292923 C 24.870380,45.292923 28.344995,45.653967 28.794625,45.700380 C 28.956086,46.032281 29.559158,47.269762 29.768736,47.700425 C 29.476289,47.975661 28.961433,48.458672 28.961433,48.458672 C 28.898880,48.516418 28.853970,48.591433 28.831515,48.674003 L 27.787902,52.412351 C 27.776139,52.454446 27.770793,52.496540 27.770793,52.539175 C 27.770793,52.651428 27.811426,52.761522 27.887344,52.848950 L 31.476371,56.945643 C 31.633555,57.125896 31.901943,57.155578 32.094947,57.014722 C 32.094947,57.014722 34.910353,54.959090 35.341806,54.642839 C 35.781278,54.915376 38.763491,56.766470 39.130787,56.994214 C 39.135064,57.458877 39.174093,61.748235 39.174093,61.748235 C 39.175697,61.970042 39.331276,62.160009 39.546736,62.203183 L 44.109873,63.119556 C 44.284700,63.155175 44.463804,63.086096 44.571266,62.942542 L 47.202756,59.415209 C 47.249804,59.352606 47.280278,59.279210 47.291506,59.201496 C 47.291506,59.201496 47.344970,58.835595 47.390948,58.521502 C 47.866242,58.505312 48.817898,58.472392 49.158997,58.461058 C 49.412950,58.854484 51.469704,62.047757 51.469704,62.047757 C 51.600690,62.250136 51.863732,62.319754 52.075983,62.205342 L 55.483233,60.373676 C 55.535628,60.346152 55.581606,60.308375 55.619566,60.263042 C 55.619566,60.263042 58.512493,56.818280 58.590551,56.725995 C 58.675023,56.667709 58.742923,56.586758 58.775001,56.486917 C 58.788901,56.441585 58.795852,56.393553 58.795852,56.346062 C 58.795852,56.269967 58.778209,56.194952 58.741853,56.126413 C 58.741853,56.126413 58.338201,55.362769 57.937223,54.605061 C 58.096010,54.688711 58.367606,54.832805 58.367606,54.832805 C 58.550453,54.929947 58.775001,54.892170 58.917749,54.741060 L 62.210052,51.256361 C 62.277951,51.185124 62.321256,51.093918 62.333553,50.997316 L 62.836113,47.260048 C 62.839321,47.239000 62.841459,47.217953 62.841459,47.196906 C 62.841459,47.050653 62.773026,46.910876 62.654871,46.822369 C 62.654871,46.822369 59.873683,44.727341 59.562523,44.493120 C 59.554504,44.347947 59.550761,44.269694 59.543276,44.140711 C 59.748577,43.887062 61.762025,41.391593 61.762025,41.391593 C 61.830994,41.306323 61.865745,41.201626 61.865745,41.096389 C 61.865745,41.026770 61.850240,40.954993 61.818162,40.889692 L 60.161318,37.494580 C 60.098231,37.366677 59.980075,37.274391 59.841605,37.244170 C 59.841605,37.244170 57.577946,36.754682 57.281221,36.691000 C 57.107998,36.460018 55.494460,34.309942 55.158708,33.863089 C 55.440996,33.483156 56.118918,32.570561 56.118918,32.570561 C 56.180936,32.487451 56.211411,32.388150 56.211411,32.289929 C 56.211411,32.164184 56.161155,32.038979 56.064385,31.947233 L 53.286405,29.340050 C 53.145260,29.207290 52.939959,29.177068 52.767271,29.261797 C 52.767271,29.261797 51.291134,29.988743 50.913145,30.175471 C 50.545849,29.923982 48.147996,28.275806 47.821867,28.052379 C 47.811709,27.694033 47.779630,26.520235 47.779630,26.520235 C 47.774818,26.337823 47.664683,26.173761 47.497341,26.103064 L 43.696063,24.479173 C 43.580046,24.429523 43.449595,24.430063 43.334113,24.479173 C 43.218632,24.528824 43.127743,24.624347 43.082298,24.742536 C 43.082298,24.742536 42.539641,26.173222 42.343428,26.690233 C 41.793820,26.586075 40.038068,26.254173 39.773957,26.203983 C 39.585230,25.964366 38.175388,24.175875 38.175388,24.175875 C 38.075411,24.048511 37.916089,23.983210 37.756232,24.003717 z M 37.612949,24.964883 C 37.878664,25.302182 39.156984,26.923913 39.156984,26.923913 C 39.225953,27.011881 39.324861,27.071785 39.433927,27.092293 L 42.553541,27.682700 C 42.773277,27.724795 42.991410,27.601209 43.071071,27.390195 C 43.071071,27.390195 43.554918,26.114937 43.776794,25.529926 C 44.410875,25.800304 46.448916,26.670805 46.862191,26.847279 C 46.873419,27.262291 46.902289,28.317901 46.902289,28.317901 C 46.907101,28.468471 46.981950,28.607168 47.105451,28.691898 L 50.614283,31.102098 C 50.751685,31.196542 50.929184,31.210034 51.078348,31.135558 C 51.078348,31.135558 52.461458,30.453405 52.888099,30.243471 C 53.232406,30.566738 54.689830,31.934281 55.127699,32.346055 C 54.818143,32.762147 54.208121,33.582996 54.208121,33.582996 C 54.146103,33.666646 54.115094,33.764868 54.115094,33.864169 C 54.115094,33.963469 54.146638,34.062770 54.209190,34.146420 L 56.646606,37.393661 C 56.713436,37.482708 56.810205,37.544770 56.919272,37.568516 C 56.919272,37.568516 59.057290,38.030480 59.428329,38.110892 C 59.589255,38.440096 60.646770,40.606362 60.855278,41.033786 C 60.537169,41.427211 58.710310,43.690620 58.710310,43.690620 C 58.643480,43.774270 58.606590,43.878968 58.606590,43.985824 C 58.606590,43.994458 58.607125,44.002554 58.607125,44.011188 L 58.648826,44.762420 C 58.656846,44.901117 58.724210,45.028481 58.834346,45.111052 C 58.834346,45.111052 61.500052,47.119732 61.880715,47.406840 C 61.820835,47.855852 61.469578,50.464654 61.434826,50.719922 C 61.255188,50.910968 58.887275,53.416691 58.487365,53.839798 C 58.067140,53.616911 57.033684,53.069678 57.033684,53.069678 C 56.854046,52.973616 56.632706,53.008155 56.489422,53.153868 C 56.401207,53.243994 56.354693,53.363263 56.354693,53.484150 C 56.354693,53.558626 56.372337,53.634181 56.409227,53.703260 C 56.409227,53.703260 57.505235,55.777242 57.761861,56.263491 C 57.484384,56.592694 55.073165,59.465938 54.967842,59.589524 C 54.835251,59.660762 52.592444,60.866402 52.013965,61.177256 C 51.633838,60.587928 49.792543,57.728716 49.792543,57.728716 C 49.704328,57.591098 49.550352,57.511226 49.387822,57.516083 L 46.971792,57.598654 C 46.747779,57.606209 46.561190,57.774049 46.528577,57.997475 C 46.528577,57.997475 46.417372,58.758961 46.390640,58.945689 C 46.265000,59.114068 44.300739,61.746076 44.004015,62.143819 C 43.545830,62.051534 40.676961,61.475158 40.095274,61.358588 C 40.089393,60.708816 40.053573,56.726534 40.053573,56.726534 C 40.051969,56.565171 39.968565,56.416220 39.832767,56.332030 L 35.561542,53.681673 C 35.402220,53.582372 35.199057,53.589928 35.047220,53.701101 C 35.047220,53.701101 32.444601,55.601846 31.889646,56.007144 C 31.439481,55.492831 29.026124,52.737237 28.745973,52.418827 C 28.861455,52.005434 29.624384,49.271966 29.685867,49.052318 C 29.843051,48.904985 30.649820,48.146739 30.649820,48.146739 C 30.746590,48.055533 30.797380,47.931407 30.797380,47.803504 C 30.797380,47.734425 30.781876,47.663187 30.750332,47.597886 L 29.510506,45.052767 C 29.440468,44.908673 29.300928,44.810991 29.142140,44.794261 C 29.142140,44.794261 25.958370,44.463978 25.337655,44.399217 C 25.272963,43.774809 24.938280,40.507601 24.928122,40.402903 C 24.943626,40.299285 25.384703,37.353724 25.478799,36.727699 C 26.103791,36.710968 28.889791,36.634874 28.889791,36.634874 C 29.078518,36.629477 29.245860,36.509129 29.311621,36.331035 C 29.331402,36.277607 29.341026,36.222560 29.341026,36.167513 C 29.341026,36.038530 29.287562,35.912245 29.189723,35.822119 C 29.189723,35.822119 27.577254,34.336926 27.285876,34.068167 C 27.329182,33.663948 27.660658,30.568357 27.687924,30.314169 C 27.839761,30.136075 29.141071,28.610946 29.495536,28.195394 C 30.021620,28.460915 32.486837,29.705412 32.486837,29.705412 C 32.610873,29.767475 32.756295,29.771253 32.882470,29.714047 L 33.722921,29.336273 C 33.871016,29.269353 33.974201,29.129036 33.993983,28.966054 C 33.993983,28.966054 34.362883,25.961128 34.436663,25.363705 C 34.980925,25.297325 37.209832,25.015613 37.612949,24.964883 z " />
      <path
         id="path5853"
         d="M 51.914502,54.122236 L 54.666681,57.931049 L 52.000013,61.164455 L 50.000012,57.931049 L 51.914502,54.122236 z "
         style="fill:#000000;fill-opacity:0.049773756;fill-rule:evenodd;stroke:none;stroke-width:1.0000000px;stroke-linecap:butt;stroke-linejoin:miter;stroke-opacity:1.0000000" />
      <path
         sodipodi:nodetypes="ccccc"
         id="path6613"
         d="M 41.559562,52.683501 L 41.598034,57.855324 L 40.002566,61.315898 L 39.930726,56.492315 L 41.559562,52.683501 z "
         style="fill:#000000;fill-opacity:0.049773756;fill-rule:evenodd;stroke:none;stroke-width:1.0000000px;stroke-linecap:butt;stroke-linejoin:miter;stroke-opacity:1.0000000" />
    </g>
    <path
       sodipodi:nodetypes="cssssscssc"
       id="path1480"
       d="M 12.852355,27.020209 C 12.873997,26.427187 13.000000,22.000000 13.000000,22.000000 C 13.000000,22.000000 12.959337,22.224199 13.000000,22.000000 C 13.040663,21.775801 13.564040,21.408535 14.000000,21.410824 L 26.000000,21.473826 C 26.779088,21.477916 27.357551,22.226210 27.363374,23.126762 L 27.468759,39.424739 L 38.703687,39.468268 C 39.688992,39.472086 40.004136,40.603541 39.061079,41.571381 L 33.415159,47.365672"
       style="stroke-opacity:0.036199097;stroke-miterlimit:4.0000000;stroke-linejoin:miter;stroke-linecap:round;stroke-width:4.4000001;stroke:#005e94;fill-rule:evenodd;fill-opacity:0.75000000;fill:none" />
    <path
       sodipodi:nodetypes="cssssscssc"
       id="path2244"
       d="M 12.852355,27.020209 C 12.873997,26.427187 13.000000,22.000000 13.000000,22.000000 C 13.000000,22.000000 12.959337,22.224199 13.000000,22.000000 C 13.040663,21.775801 13.564040,21.408535 14.000000,21.410824 L 26.000000,21.473826 C 26.779088,21.477916 27.357551,22.226210 27.363374,23.126762 L 27.468759,39.424739 L 38.703687,39.468268 C 39.688992,39.472086 40.004136,40.603541 39.061079,41.571381 L 33.415159,47.365672"
       style="stroke-opacity:0.036199097;stroke-miterlimit:4.0000000;stroke-linejoin:miter;stroke-linecap:round;stroke-width:3.8000000;stroke:#005e94;fill-rule:evenodd;fill-opacity:0.75000000;fill:none" />
    <path
       sodipodi:nodetypes="cssssscssc"
       id="path2246"
       d="M 12.852355,27.020209 C 12.873997,26.427187 13.000000,22.000000 13.000000,22.000000 C 13.000000,22.000000 12.959337,22.224199 13.000000,22.000000 C 13.040663,21.775801 13.564040,21.408535 14.000000,21.410824 L 26.000000,21.473826 C 26.779088,21.477916 27.357551,22.226210 27.363374,23.126762 L 27.468759,39.424739 L 38.703687,39.468268 C 39.688992,39.472086 40.004136,40.603541 39.061079,41.571381 L 33.415159,47.365672"
       style="stroke-opacity:0.036199097;stroke-miterlimit:4.0000000;stroke-linejoin:miter;stroke-linecap:round;stroke-width:3.4000001;stroke:#005e94;fill-rule:evenodd;fill-opacity:0.75000000;fill:none" />
    <path
       sodipodi:nodetypes="cssssscssc"
       id="path2248"
       d="M 12.852355,27.020209 C 12.873997,26.427187 13.000000,22.000000 13.000000,22.000000 C 13.000000,22.000000 12.959337,22.224199 13.000000,22.000000 C 13.040663,21.775801 13.564040,21.408535 14.000000,21.410824 L 26.000000,21.473826 C 26.779088,21.477916 27.357551,22.226210 27.363374,23.126762 L 27.468759,39.424739 L 38.703687,39.468268 C 39.688992,39.472086 40.004136,40.603541 39.061079,41.571381 L 33.415159,47.365672"
       style="stroke-opacity:0.036199097;stroke-miterlimit:4.0000000;stroke-linejoin:miter;stroke-linecap:round;stroke-width:3.0000000;stroke:#005e94;fill-rule:evenodd;fill-opacity:0.75000000;fill:none" />
    <path
       sodipodi:nodetypes="cssssscssc"
       id="path2250"
       d="M 12.852355,27.020209 C 12.873997,26.427187 13.000000,22.000000 13.000000,22.000000 C 13.000000,22.000000 12.959337,22.224199 13.000000,22.000000 C 13.040663,21.775801 13.564040,21.408535 14.000000,21.410824 L 26.000000,21.473826 C 26.779088,21.477916 27.357551,22.226210 27.363374,23.126762 L 27.468759,39.424739 L 38.703687,39.468268 C 39.688992,39.472086 40.004136,40.603541 39.061079,41.571381 L 33.415159,47.365672"
       style="stroke-opacity:0.036199097;stroke-miterlimit:4.0000000;stroke-linejoin:miter;stroke-linecap:round;stroke-width:2.5999999;stroke:#005e94;fill-rule:evenodd;fill-opacity:0.75000000;fill:none" />
    <path
       sodipodi:nodetypes="cssssscssc"
       id="path2252"
       d="M 12.852355,27.020209 C 12.873997,26.427187 13.000000,22.000000 13.000000,22.000000 C 13.000000,22.000000 12.959337,22.224199 13.000000,22.000000 C 13.040663,21.775801 13.564040,21.408535 14.000000,21.410824 L 26.000000,21.473826 C 26.779088,21.477916 27.357551,22.226210 27.363374,23.126762 L 27.468759,39.424739 L 38.703687,39.468268 C 39.688992,39.472086 40.004136,40.603541 39.061079,41.571381 L 33.415159,47.365672"
       style="stroke-opacity:0.036199097;stroke-miterlimit:4.0000000;stroke-linejoin:miter;stroke-linecap:round;stroke-width:2.2000000;stroke:#005e94;fill-rule:evenodd;fill-opacity:0.75000000;fill:none" />
    <path
       sodipodi:nodetypes="cssssscssc"
       id="path2254"
       d="M 12.852355,27.020209 C 12.873997,26.427187 13.000000,22.000000 13.000000,22.000000 C 13.000000,22.000000 12.959337,22.224199 13.000000,22.000000 C 13.040663,21.775801 13.564040,21.408535 14.000000,21.410824 L 26.000000,21.473826 C 26.779088,21.477916 27.357551,22.226210 27.363374,23.126762 L 27.468759,39.424739 L 38.703687,39.468268 C 39.688992,39.472086 40.004136,40.603541 39.061079,41.571381 L 33.415159,47.365672"
       style="stroke-opacity:0.036199097;stroke-miterlimit:4.0000000;stroke-linejoin:miter;stroke-linecap:round;stroke-width:1.8000000;stroke:#005e94;fill-rule:evenodd;fill-opacity:0.75000000;fill:none" />
    <path
       sodipodi:nodetypes="cssssscssc"
       id="path2256"
       d="M 12.852355,27.020209 C 12.873997,26.427187 13.000000,22.000000 13.000000,22.000000 C 13.000000,22.000000 12.959337,22.224199 13.000000,22.000000 C 13.040663,21.775801 13.564040,21.408535 14.000000,21.410824 L 26.000000,21.473826 C 26.779088,21.477916 27.357551,22.226210 27.363374,23.126762 L 27.468759,39.424739 L 38.703687,39.468268 C 39.688992,39.472086 40.004136,40.603541 39.061079,41.571381 L 33.415159,47.365672"
       style="stroke-opacity:0.036199097;stroke-miterlimit:4.0000000;stroke-linejoin:miter;stroke-linecap:round;stroke-width:1.5000000;stroke:#005e94;fill-rule:evenodd;fill-opacity:0.75000000;fill:none" />
    <path
       sodipodi:nodetypes="cssssscssc"
       id="path2258"
       d="M 12.852355,27.020209 C 12.873997,26.427187 13.000000,22.000000 13.000000,22.000000 C 13.000000,22.000000 12.959337,22.224199 13.000000,22.000000 C 13.040663,21.775801 13.564040,21.408535 14.000000,21.410824 L 26.000000,21.473826 C 26.779088,21.477916 27.357551,22.226210 27.363374,23.126762 L 27.468759,39.424739 L 38.703687,39.468268 C 39.688992,39.472086 40.004136,40.603541 39.061079,41.571381 L 33.415159,47.365672"
       style="stroke-opacity:0.036199097;stroke-miterlimit:4.0000000;stroke-linejoin:miter;stroke-linecap:round;stroke-width:1.5000000;stroke:#005e94;fill-rule:evenodd;fill-opacity:0.75000000;fill:none" />
    <g
       id="use2455"
       transform="matrix(0.110604,0.000000,0.000000,0.124072,-1.192172,17.58279)">
      <path
         style="fill:url(#linearGradient2463);fill-opacity:1.0000000;fill-rule:evenodd;stroke:url(#linearGradient2464);stroke-width:9.7867645pt;stroke-linecap:butt;stroke-linejoin:miter;stroke-opacity:1.0000000"
         d="M 364.08509,189.72704 L 192.99419,344.16043 L 22.280896,189.30979 C 18.487284,185.86863 20.840562,178.99851 25.810828,179.00457 L 130.18661,179.13199 L 130.35235,43.362622 C 130.35603,40.345555 135.57736,34.317725 138.18436,34.320907 C 174.68210,34.365461 211.17984,34.410015 247.67758,34.454569 C 250.28458,34.457751 255.49114,40.498311 255.48746,43.515378 L 255.32172,179.28474 L 360.46995,179.41310 C 365.47702,179.41921 367.88709,186.29515 364.08509,189.72704 z "
         id="path2457"
         sodipodi:nodetypes="cccccccccccc" />
      <path
         style="fill:url(#linearGradient2465);fill-opacity:0.75000000;fill-rule:evenodd;stroke:none;stroke-width:9.7867661pt;stroke-linecap:butt;stroke-linejoin:miter;stroke-opacity:1.0000000"
         d="M 363.64490,190.25072 L 192.55400,344.68412 L 21.840706,189.83347 C 18.047095,186.39231 20.400373,179.52219 25.370638,179.52826 L 129.74642,179.65567 L 129.91216,43.886305 C 129.91584,40.869237 135.13717,34.841408 137.74417,34.844590 C 174.24191,34.889144 210.73965,34.933698 247.23739,34.978252 C 249.84439,34.981434 255.05095,41.021994 255.04727,44.039061 L 254.88153,179.80843 L 360.02975,179.93678 C 365.03683,179.94290 367.44690,186.81883 363.64490,190.25072 z "
         id="path2458"
         sodipodi:nodetypes="cccccccccccc" />
      <path
         style="fill:url(#linearGradient2466);fill-opacity:0.75000000;fill-rule:evenodd;stroke:none;stroke-width:2.7984695pt;stroke-linecap:butt;stroke-linejoin:miter;stroke-opacity:1.0000000"
         d="M 192.23970,345.07242 L 20.562504,188.59881 C 16.768884,185.16451 19.697133,177.68797 24.667418,177.69404 L 128.46819,178.44163 L 128.63385,42.737242 C 128.63753,39.726214 133.85882,33.710475 136.46584,33.713657 C 145.59026,33.724795 168.40136,33.752642 191.21243,33.780488 L 192.23970,345.07242 z "
         id="path2459"
         sodipodi:nodetypes="cccccccc" />
      <path
         style="fill:url(#radialGradient2467);fill-opacity:0.75000000;fill-rule:evenodd;stroke:none;stroke-width:2.7984695pt;stroke-linecap:butt;stroke-linejoin:miter;stroke-opacity:1.0000000"
         d="M 193.13456,342.98832 L 363.84786,188.13767 C 367.64147,184.69651 365.28819,177.82639 360.31792,177.83245 L 255.94214,177.95987 L 255.77640,42.190488 C 255.77272,39.173431 250.55139,33.145591 247.94439,33.148774 C 238.81996,33.159912 216.00887,33.187758 193.19780,33.215604 L 193.13456,342.98832 z "
         id="path2460"
         sodipodi:nodetypes="cccccccc" />
      <path
         style="fill:url(#linearGradient2468);fill-opacity:0.75000000;fill-rule:evenodd;stroke:none;stroke-width:2.7984695pt;stroke-linecap:butt;stroke-linejoin:miter;stroke-opacity:1.0000000"
         d="M 19.729594,185.78453 C 19.015744,182.40259 21.243034,178.53268 24.970744,178.52813 L 98.643669,177.61617 C 80.599122,194.14298 69.868351,203.29508 60.809115,225.94371 L 21.483334,188.84490 C 20.532834,187.98693 19.967554,186.91184 19.729594,185.78453 z "
         id="path2461"
         sodipodi:nodetypes="cccccc" />
      <path
         style="fill:url(#linearGradient2469);fill-opacity:0.75000000;fill-rule:evenodd;stroke:none;stroke-width:2.7984695pt;stroke-linecap:butt;stroke-linejoin:miter;stroke-opacity:1.0000000"
         d="M 130.09406,42.724944 C 129.73799,39.118594 132.22708,34.424606 137.33440,34.809851 L 191.39640,34.368856 C 196.27801,69.847812 149.11702,131.01658 130.90630,144.91151 L 130.09406,42.724944 z "
         id="path2462"
         sodipodi:nodetypes="ccccc" />
    </g>
  </g>
</svg>
