<?xml version="1.0" encoding="UTF-8" standalone="no"?>
<!DOCTYPE svg PUBLIC "-//W3C//DTD SVG 20010904//EN"
"http://www.w3.org/TR/2001/REC-SVG-20010904/DTD/svg10.dtd">
<!-- Created with Inkscape (http://www.inkscape.org/) -->
<svg
   width="48pt"
   height="48pt"
   xmlns="http://www.w3.org/2000/svg"
   xmlns:cc="http://web.resource.org/cc/"
   xmlns:inkscape="http://www.inkscape.org/namespaces/inkscape"
   xmlns:sodipodi="http://sodipodi.sourceforge.net/DTD/sodipodi-0.dtd"
   xmlns:rdf="http://www.w3.org/1999/02/22-rdf-syntax-ns#"
   xmlns:dc="http://purl.org/dc/elements/1.1/"
   xmlns:xlink="http://www.w3.org/1999/xlink"
   id="svg9307"
   sodipodi:version="0.32"
   inkscape:version="0.40"
   sodipodi:docbase="/home/rob/documents/My Projects/icon play/helpwithopenoffice/in process/commandimagelist_inprocess/3dshapes"
   sodipodi:docname="cone.svg">
  <defs
     id="defs3">
    <radialGradient
       inkscape:collect="always"
       xlink:href="#light90to0"
       id="radialGradient9306"
       gradientUnits="userSpaceOnUse"
       gradientTransform="scale(1.955444,0.511393)"
       cx="20.475628"
       cy="146.08356"
       fx="20.475626"
       fy="146.08357"
       r="27.181435" />
    <linearGradient
       inkscape:collect="always"
       xlink:href="#light90to0"
       id="linearGradient9305"
       gradientUnits="userSpaceOnUse"
       gradientTransform="scale(-0.740156,1.351066)"
       x1="-70.749702"
       y1="4.2631574"
       x2="-53.604687"
       y2="27.112915" />
    <linearGradient
       id="light90to0">
      <stop
         style="stop-color:#ffffff;stop-opacity:0.90833336;"
         offset="0.0000000"
         id="stop1890" />
      <stop
         style="stop-color:#ffffff;stop-opacity:0.0000000;"
         offset="1.0000000"
         id="stop1892" />
    </linearGradient>
    <linearGradient
       inkscape:collect="always"
       xlink:href="#light90to0"
       id="linearGradient9304"
       gradientUnits="userSpaceOnUse"
       gradientTransform="scale(0.740156,1.351066)"
       x1="0.16888323"
       y1="27.112921"
       x2="53.747089"
       y2="27.112921" />
    <linearGradient
       id="linearGradient2986">
      <stop
         style="stop-color:#00ff01;stop-opacity:1.0000000;"
         offset="0.0000000"
         id="stop2987" />
      <stop
         style="stop-color:#012c00;stop-opacity:1.0000000;"
         offset="1.0000000"
         id="stop2988" />
    </linearGradient>
    <radialGradient
       inkscape:collect="always"
       xlink:href="#linearGradient2986"
       id="radialGradient9303"
       gradientUnits="userSpaceOnUse"
       gradientTransform="scale(1.009317,0.990769)"
       cx="54.366539"
       cy="64.340813"
       fx="53.133545"
       fy="64.340813"
       r="79.554512" />
    <linearGradient
       id="linearGradient2870">
      <stop
         style="stop-color:#000000;stop-opacity:0.0000000;"
         offset="0.0000000"
         id="stop2871" />
      <stop
         style="stop-color:#000000;stop-opacity:1.0000000;"
         offset="1.0000000"
         id="stop2872" />
    </linearGradient>
    <radialGradient
       inkscape:collect="always"
       xlink:href="#linearGradient2870"
       id="radialGradient9302"
       gradientUnits="userSpaceOnUse"
       cx="249.91693"
       cy="266.63358"
       fx="252.13614"
       fy="261.65997"
       r="162.11063" />
  </defs>
  <sodipodi:namedview
     id="base"
     pagecolor="#ffffff"
     bordercolor="#666666"
     borderopacity="1.0"
     inkscape:pageopacity="0.0"
     inkscape:pageshadow="2"
     inkscape:zoom="8.0000000"
     inkscape:cx="23.999999"
     inkscape:cy="24.000000"
     inkscape:current-layer="layer1"
     showgrid="true"
     inkscape:grid-bbox="true"
     gridspacingy="1.0000000pt"
     gridspacingx="1.0000000pt"
     gridoriginy="0.0000000pt"
     gridoriginx="0.0000000pt"
     inkscape:window-width="640"
     inkscape:window-height="590"
     inkscape:window-x="0"
     inkscape:window-y="0" />
  <metadata
     id="metadata4">
    <rdf:RDF
       id="RDF5">
      <cc:Work
         rdf:about=""
         id="Work6">
        <dc:format
           id="format7">image/svg+xml</dc:format>
        <dc:type
           id="type9"
           rdf:resource="http://purl.org/dc/dcmitype/StillImage" />
      </cc:Work>
    </rdf:RDF>
  </metadata>
  <g
     id="layer1"
     inkscape:label="Layer 1"
     inkscape:groupmode="layer">
    <g
       id="g9285"
       transform="matrix(0.648249,0.000000,0.000000,0.654252,2.100134,1.000744e-2)">
      <path
         style="fill:none;fill-opacity:0.75000000;fill-rule:evenodd;stroke:#000000;stroke-width:0.25038624pt;stroke-linecap:butt;stroke-linejoin:miter;stroke-opacity:0.0000000"
         d="M 0.15649140,79.843509 L 79.843509,0.15673249"
         id="path5807" />
      <g
         id="g3029"
         transform="matrix(0.511619,0.000000,0.000000,0.724318,-39.12882,-162.7963)">
        <path
           style="fill:#010101;fill-opacity:0.078431375;stroke:none;stroke-width:2.7172995;stroke-linecap:round;stroke-linejoin:round;stroke-miterlimit:4.0000000;stroke-dashoffset:0.0000000;stroke-opacity:1.0000000"
           d="M 241.15625,307.43750 C 184.67533,308.05235 136.10002,316.32097 111.81250,328.34375 C 111.76609,328.73048 111.62500,329.10937 111.62500,329.50000 C 111.62500,344.85275 147.83420,357.31249 192.43750,357.31250 C 237.04079,357.31250 273.25000,344.85274 273.25000,329.50000 C 273.25000,320.47190 260.53956,312.51961 241.15625,307.43750 z "
           id="path2882"
           transform="matrix(1.020286,0.000000,0.000000,1.020286,-41.01766,-23.35982)" />
        <path
           style="fill:#010101;fill-opacity:0.078431375;stroke:none;stroke-width:2.7172995;stroke-linecap:round;stroke-linejoin:round;stroke-miterlimit:4.0000000;stroke-dashoffset:0.0000000;stroke-opacity:1.0000000"
           d="M 228.59375,307.78125 C 182.85252,309.24148 143.29821,315.64637 119.43750,325.00000 C 118.64585,326.46281 118.15625,327.96061 118.15625,329.50000 C 118.15625,343.30927 151.43557,354.50001 192.43750,354.50000 C 233.43942,354.50000 266.71875,343.30927 266.71875,329.50000 C 266.71875,320.13469 251.23429,312.06887 228.59375,307.78125 z "
           id="path2881"
           transform="matrix(1.020286,0.000000,0.000000,1.020286,-41.01766,-23.35982)" />
        <path
           style="fill:#010101;fill-opacity:0.078431375;stroke:none;stroke-width:2.7172995;stroke-linecap:round;stroke-linejoin:round;stroke-miterlimit:4.0000000;stroke-dashoffset:0.0000000;stroke-opacity:1.0000000"
           d="M 207.71875,308.78125 C 176.86419,310.90740 149.65171,315.27999 129.87500,321.34375 C 126.54654,323.85810 124.68750,326.60843 124.68750,329.50000 C 124.68750,341.25130 155.03693,350.78125 192.43750,350.78125 C 229.83806,350.78125 260.18751,341.25129 260.18750,329.50000 C 260.18750,319.40525 237.74259,310.96608 207.71875,308.78125 z "
           id="path2880"
           transform="matrix(1.020286,0.000000,0.000000,1.020286,-41.01766,-23.35982)" />
        <path
           sodipodi:type="arc"
           style="fill:#010101;fill-opacity:0.078431375;stroke:none;stroke-width:2.7172995;stroke-linecap:round;stroke-linejoin:round;stroke-miterlimit:4.0000000;stroke-dashoffset:0.0000000;stroke-opacity:1.0000000"
           id="path2875"
           sodipodi:cx="192.77242"
           sodipodi:cy="190.13620"
           sodipodi:rx="152.57030"
           sodipodi:ry="152.57030"
           d="M 345.34271 190.13620 A 152.57030 152.57030 0 1 1  40.202118,190.13620 A 152.57030 152.57030 0 1 1  345.34271 190.13620 z"
           transform="matrix(0.415700,0.000000,0.000000,0.117432,75.19292,290.4902)" />
      </g>
      <g
         id="g3034"
         transform="matrix(0.283467,1.117435e-2,0.000000,0.521181,-16.98281,-106.1925)">
        <path
           style="opacity:0.44021735;fill:#010101;fill-opacity:0.078431375;stroke:none;stroke-width:2.7172995;stroke-linecap:round;stroke-linejoin:round;stroke-miterlimit:4.0000000;stroke-dashoffset:0.0000000;stroke-opacity:1.0000000"
           d="M 230.65625,301.18750 C 195.61423,302.91514 160.06377,305.21378 126.37500,315.65625 C 112.46225,321.00153 94.775160,325.17169 88.593750,340.46875 C 84.159996,353.84159 97.511453,364.38361 108.28125,369.28125 C 148.74752,385.63327 192.97959,389.60193 236.25000,390.40625 C 278.00751,390.72302 320.22937,388.91997 360.81250,378.31250 C 376.86548,372.99851 396.15917,369.04447 405.75000,353.68750 C 412.42383,341.37782 401.13942,328.49279 389.96875,324.12500 C 357.75573,308.54628 321.39615,304.94631 286.15625,302.31250 C 267.66255,301.20224 249.18032,300.84065 230.65625,301.18750 z M 247.68750,307.28125 C 331.90631,307.28126 400.25000,324.54321 400.25000,345.81250 C 400.25000,367.08178 331.90630,384.34375 247.68750,384.34375 C 163.46870,384.34375 95.125000,367.08179 95.125000,345.81250 C 95.125003,324.54320 163.46870,307.28125 247.68750,307.28125 z "
           id="path2916"
           transform="matrix(1.020286,0.000000,0.000000,1.020286,-41.01766,-23.35982)" />
        <path
           style="opacity:0.44021735;fill:#010101;fill-opacity:0.20000000;stroke:none;stroke-width:2.7172995;stroke-linecap:round;stroke-linejoin:round;stroke-miterlimit:4.0000000;stroke-dashoffset:0.0000000;stroke-opacity:1.0000000"
           d="M 258.43750,303.06250 C 239.88014,302.62193 221.41459,303.30559 202.90625,304.65625 C 169.86503,307.63309 135.77670,311.23272 105.65625,326.09375 C 95.852443,330.40309 84.877029,342.18539 91.656250,353.18750 C 99.887848,366.54987 116.65917,370.40765 130.59375,375.15625 C 181.02479,389.13635 234.03065,389.77830 285.96875,387.59375 C 319.14620,385.15251 352.92846,381.11775 383.90625,368.37500 C 393.73637,364.23796 405.99548,356.75818 405.90625,344.81250 C 403.74366,330.09691 387.37798,324.83221 375.46875,319.87500 C 337.94688,306.89507 297.82553,304.34674 258.43750,303.06250 z M 247.68750,307.28125 C 331.90631,307.28126 400.25000,324.54321 400.25000,345.81250 C 400.25000,367.08178 331.90630,384.34375 247.68750,384.34375 C 163.46870,384.34375 95.125000,367.08179 95.125000,345.81250 C 95.125003,324.54320 163.46870,307.28125 247.68750,307.28125 z "
           id="path2909"
           transform="matrix(1.020286,0.000000,0.000000,1.020286,-41.01766,-23.35982)" />
        <path
           style="opacity:0.44021735;fill:#010101;fill-opacity:0.29411766;stroke:none;stroke-width:2.7172995;stroke-linecap:round;stroke-linejoin:round;stroke-miterlimit:4.0000000;stroke-dashoffset:0.0000000;stroke-opacity:1.0000000"
           d="M 232.00000,304.96875 C 193.49528,306.88639 154.14955,309.28805 117.65625,322.71875 C 106.95672,327.06872 92.859331,332.92016 91.250000,345.90625 C 92.897643,358.92730 107.22804,364.57823 117.90625,368.96875 C 155.17295,382.23724 195.18365,385.43434 234.46875,386.59375 C 279.07643,387.18458 324.40943,384.88508 367.46875,372.40625 C 380.60546,367.96003 396.30973,363.33764 403.28125,350.28125 C 407.35143,338.69102 394.84878,330.49828 385.90625,326.31250 C 356.76052,313.11939 324.38836,309.35272 292.81250,306.56250 C 272.58914,304.94034 252.27761,304.72521 232.00000,304.96875 z M 247.68750,307.28125 C 331.90631,307.28126 400.25000,324.54321 400.25000,345.81250 C 400.25000,367.08178 331.90630,384.34375 247.68750,384.34375 C 163.46870,384.34375 95.125000,367.08179 95.125000,345.81250 C 95.125003,324.54320 163.46870,307.28125 247.68750,307.28125 z "
           id="path2903"
           transform="matrix(1.020286,0.000000,0.000000,1.020286,-41.01766,-23.35982)" />
        <path
           sodipodi:type="arc"
           style="opacity:0.44021735;fill:url(#radialGradient9302);fill-opacity:1.0000000;stroke:none;stroke-width:2.7172995;stroke-linecap:round;stroke-linejoin:round;stroke-miterlimit:4.0000000;stroke-dashoffset:0.0000000;stroke-opacity:1.0000000"
           id="path2862"
           sodipodi:cx="192.77242"
           sodipodi:cy="190.13620"
           sodipodi:rx="152.57030"
           sodipodi:ry="152.57030"
           d="M 345.34271 190.13620 A 152.57030 152.57030 0 1 1  40.202118,190.13620 A 152.57030 152.57030 0 1 1  345.34271 190.13620 z"
           transform="matrix(1.020286,0.000000,0.000000,0.257671,15.00887,280.4672)" />
      </g>
      <path
         style="fill:url(#radialGradient9303);fill-opacity:1.0000000;fill-rule:evenodd;stroke:#000000;stroke-width:0.22724972pt;stroke-linecap:butt;stroke-linejoin:miter;stroke-opacity:1.0000000"
         d="M 39.781250,0.12669338 C 39.781250,0.12669338 0.043911424,56.674779 0.043911424,56.853512 C -4.6444408,64.476208 6.3088415,79.886057 40.284143,79.846867 C 71.062838,80.355442 83.898564,63.253446 79.352286,56.677427 L 39.781250,0.12669338 z "
         id="path1162"
         sodipodi:nodetypes="ccccc" />
      <path
         sodipodi:type="arc"
         style="opacity:0.83695650;fill:#175717;fill-opacity:0.072222181;stroke:none;stroke-width:1.0029756;stroke-linecap:round;stroke-linejoin:round;stroke-miterlimit:4.0000000;stroke-dashoffset:0.0000000;stroke-opacity:0.29411766"
         id="path4915"
         sodipodi:cx="37.364746"
         sodipodi:cy="65.508728"
         sodipodi:rx="41.058601"
         sodipodi:ry="11.365703"
         d="M 78.423347 65.508728 A 41.058601 11.365703 0 1 1  -3.6938553,65.508728 A 41.058601 11.365703 0 1 1  78.423347 65.508728 z"
         transform="matrix(0.989619,0.000000,0.000000,1.637500,2.518938,-45.88189)" />
      <path
         style="fill:url(#linearGradient9304);fill-opacity:1.0000000;fill-rule:evenodd;stroke:none;stroke-width:0.25000000pt;stroke-linecap:butt;stroke-linejoin:miter;stroke-opacity:1.0000000"
         d="M 39.781250,0.43750000 L 2.9664256,63.588852 C 4.0529639,68.028590 10.209759,72.091405 22.045145,74.814182 L 39.781250,0.43750000 z "
         id="path2418"
         sodipodi:nodetypes="cccc" />
      <path
         style="fill:url(#linearGradient9305);fill-opacity:1.0000000;fill-rule:evenodd;stroke:none;stroke-width:0.25000000pt;stroke-linecap:butt;stroke-linejoin:miter;stroke-opacity:1.0000000"
         d="M 39.675826,0.43750000 L 79.332076,60.463284 C 78.750068,64.299775 75.610778,67.283838 73.323915,68.563046 L 39.675826,0.43750000 z "
         id="path8022"
         sodipodi:nodetypes="cccc" />
      <path
         style="fill:url(#radialGradient9306);fill-opacity:1.0000000;fill-rule:evenodd;stroke:none;stroke-width:0.22724972pt;stroke-linecap:butt;stroke-linejoin:miter;stroke-opacity:1.0000000"
         d="M 79.968750,58.687500 C 78.735777,66.441371 65.729463,77.982993 40.281250,77.562500 C 12.366413,77.594699 0.17575939,67.250569 -0.75000000,59.312500 C -2.1841916,67.362422 9.5977889,79.879143 40.281250,79.843750 C 68.411811,80.308565 81.386399,66.162799 79.968750,58.687500 z "
         id="path8645" />
    </g>
  </g>
</svg>
