<?xml version="1.0" encoding="UTF-8" standalone="no"?>
<!DOCTYPE svg PUBLIC "-//W3C//DTD SVG 20010904//EN"
"http://www.w3.org/TR/2001/REC-SVG-20010904/DTD/svg10.dtd">
<!-- Created with Inkscape (http://www.inkscape.org/) -->
<svg
   width="48pt"
   height="48pt"
   id="svg6970"
   sodipodi:version="0.32"
   inkscape:version="0.40"
   sodipodi:docbase="/home/ourfiles/Rob_extended/My Projects/icon play/helpwithopenoffice/in process/commandimagelist_inprocess/3dshapes"
   sodipodi:docname="cylinder.svg"
   xmlns="http://www.w3.org/2000/svg"
   xmlns:cc="http://web.resource.org/cc/"
   xmlns:inkscape="http://www.inkscape.org/namespaces/inkscape"
   xmlns:sodipodi="http://sodipodi.sourceforge.net/DTD/sodipodi-0.dtd"
   xmlns:rdf="http://www.w3.org/1999/02/22-rdf-syntax-ns#"
   xmlns:dc="http://purl.org/dc/elements/1.1/"
   xmlns:xlink="http://www.w3.org/1999/xlink">
  <defs
     id="defs3">
    <linearGradient
       inkscape:collect="always"
       id="linearGradient1731">
      <stop
         style="stop-color:#010101;stop-opacity:1;"
         offset="0"
         id="stop1732" />
      <stop
         style="stop-color:#010101;stop-opacity:0;"
         offset="1"
         id="stop1733" />
    </linearGradient>
    <radialGradient
       inkscape:collect="always"
       xlink:href="#light90to0"
       id="radialGradient6952"
       gradientUnits="userSpaceOnUse"
       gradientTransform="scale(-0.359211,2.783879)"
       cx="-192.49622"
       cy="4.9498496"
       fx="-193.87199"
       fy="4.7720685"
       r="27.572775" />
    <linearGradient
       inkscape:collect="always"
       xlink:href="#light90to0"
       id="linearGradient6951"
       gradientUnits="userSpaceOnUse"
       gradientTransform="scale(1.401797,0.713370)"
       x1="41.232853"
       y1="118.12619"
       x2="18.260246"
       y2="106.82490" />
    <radialGradient
       inkscape:collect="always"
       xlink:href="#light90to0"
       id="radialGradient6950"
       gradientUnits="userSpaceOnUse"
       gradientTransform="scale(0.528744,1.891275)"
       cx="40.274017"
       cy="-0.41081181"
       fx="40.274006"
       fy="-0.67249435"
       r="37.118031" />
    <radialGradient
       inkscape:collect="always"
       xlink:href="#linearGradient2986"
       id="radialGradient6949"
       gradientUnits="userSpaceOnUse"
       gradientTransform="matrix(0.996607,0.000000,0.000000,1.013423,-0.689296,2.517734e-15)"
       spreadMethod="pad"
       cx="49.494080"
       cy="57.768494"
       fx="50.600231"
       fy="57.768494"
       r="65.283058" />
    <linearGradient
       inkscape:collect="always"
       xlink:href="#linearGradient2986"
       id="linearGradient6948"
       gradientUnits="userSpaceOnUse"
       gradientTransform="scale(3.355480,0.298020)"
       spreadMethod="reflect"
       x1="15.530715"
       y1="139.50636"
       x2="0.24214123"
       y2="139.50636" />
    <linearGradient
       inkscape:collect="always"
       xlink:href="#light90to0"
       id="linearGradient6947"
       gradientUnits="userSpaceOnUse"
       gradientTransform="scale(3.355480,0.298020)"
       x1="5.3935390"
       y1="120.74335"
       x2="18.899118"
       y2="149.87128" />
    <radialGradient
       inkscape:collect="always"
       xlink:href="#light90to0"
       id="radialGradient6946"
       gradientUnits="userSpaceOnUse"
       gradientTransform="scale(3.355480,0.298020)"
       cx="1.1735923"
       cy="132.97519"
       fx="1.1735924"
       fy="132.97517"
       r="10.295236" />
    <radialGradient
       inkscape:collect="always"
       xlink:href="#light90to0"
       id="radialGradient6945"
       gradientUnits="userSpaceOnUse"
       gradientTransform="scale(3.355480,0.298020)"
       cx="18.755459"
       cy="132.46043"
       fx="18.888288"
       fy="132.58064"
       r="10.295235" />
    <linearGradient
       inkscape:collect="always"
       xlink:href="#linearGradient2986"
       id="linearGradient6944"
       gradientUnits="userSpaceOnUse"
       gradientTransform="scale(3.355480,0.298020)"
       x1="8.2717772"
       y1="121.99884"
       x2="19.858530"
       y2="145.35143" />
    <linearGradient
       id="light90to0">
      <stop
         style="stop-color:#ffffff;stop-opacity:0.90833336;"
         offset="0.0000000"
         id="stop1890" />
      <stop
         style="stop-color:#ffffff;stop-opacity:0.0000000;"
         offset="1.0000000"
         id="stop1892" />
    </linearGradient>
    <radialGradient
       inkscape:collect="always"
       xlink:href="#light90to0"
       id="radialGradient6943"
       gradientUnits="userSpaceOnUse"
       gradientTransform="scale(3.355480,0.298020)"
       cx="18.755459"
       cy="132.46043"
       fx="18.888288"
       fy="132.58064"
       r="10.295235" />
    <linearGradient
       id="linearGradient2986">
      <stop
         style="stop-color:#00ff01;stop-opacity:1.0000000;"
         offset="0.0000000"
         id="stop2987" />
      <stop
         style="stop-color:#012c00;stop-opacity:1.0000000;"
         offset="1.0000000"
         id="stop2988" />
    </linearGradient>
    <linearGradient
       inkscape:collect="always"
       xlink:href="#linearGradient2986"
       id="linearGradient6942"
       gradientUnits="userSpaceOnUse"
       gradientTransform="scale(3.355480,0.298020)"
       x1="8.2717772"
       y1="121.99884"
       x2="19.858530"
       y2="145.35143" />
    <linearGradient
       id="linearGradient2870">
      <stop
         style="stop-color:#000000;stop-opacity:0.0000000;"
         offset="0.0000000"
         id="stop2871" />
      <stop
         style="stop-color:#000000;stop-opacity:1.0000000;"
         offset="1.0000000"
         id="stop2872" />
    </linearGradient>
    <radialGradient
       inkscape:collect="always"
       xlink:href="#linearGradient2870"
       id="radialGradient6941"
       gradientUnits="userSpaceOnUse"
       cx="232.69225"
       cy="240.99297"
       fx="232.69225"
       fy="240.99297"
       r="253.80751" />
    <radialGradient
       inkscape:collect="always"
       xlink:href="#linearGradient1731"
       id="radialGradient1734"
       gradientTransform="scale(1.826203,0.547584)"
       cx="103.85780"
       cy="611.02441"
       fx="103.85780"
       fy="611.02441"
       r="44.724632"
       gradientUnits="userSpaceOnUse" />
  </defs>
  <sodipodi:namedview
     id="base"
     pagecolor="#ffffff"
     bordercolor="#666666"
     borderopacity="1.0"
     inkscape:pageopacity="0.0"
     inkscape:pageshadow="2"
     inkscape:zoom="4.0000000"
     inkscape:cx="24.000000"
     inkscape:cy="24.000000"
     inkscape:current-layer="layer1"
     showgrid="false"
     inkscape:grid-bbox="false"
     gridspacingy="1.0000000pt"
     gridspacingx="1.0000000pt"
     gridoriginy="0.0000000pt"
     gridoriginx="0.0000000pt"
     inkscape:window-width="880"
     inkscape:window-height="590"
     inkscape:window-x="0"
     inkscape:window-y="0" />
  <metadata
     id="metadata4">
    <rdf:RDF
       id="RDF5">
      <cc:Work
         rdf:about=""
         id="Work6">
        <dc:format
           id="format7">image/svg+xml</dc:format>
        <dc:type
           id="type9"
           rdf:resource="http://purl.org/dc/dcmitype/StillImage" />
      </cc:Work>
    </rdf:RDF>
  </metadata>
  <g
     id="layer1"
     inkscape:label="Layer 1"
     inkscape:groupmode="layer">
    <g
       id="g6915"
       transform="matrix(0.774882,0.000000,0.000000,0.746600,-0.746473,3.227231e-2)">
      <path
         style="fill:none;fill-opacity:0.75000000;fill-rule:evenodd;stroke:#000000;stroke-width:0.25038624pt;stroke-linecap:butt;stroke-linejoin:miter;stroke-opacity:0.0000000"
         d="M 0.15649140,79.843509 L 79.843509,0.15673249"
         id="path5807"
         transform="matrix(0.948359,0.000000,0.000000,0.885122,2.101196,0.536584)" />
      <g
         id="g4335"
         transform="matrix(0.917906,0.000000,0.000000,0.986688,2.997062,-8.260593)">
        <g
           id="g3034"
           transform="matrix(0.258351,0.000000,0.000000,0.346699,-14.74104,-40.23533)">
          <path
             style="opacity:0.44021735;fill:#010101;fill-opacity:0.078431375;stroke:none;stroke-width:2.7172995;stroke-linecap:round;stroke-linejoin:round;stroke-miterlimit:4.0000000;stroke-dashoffset:0.0000000;stroke-opacity:1.0000000"
             d="M 230.65625,301.18750 C 195.61423,302.91514 160.06377,305.21378 126.37500,315.65625 C 112.46225,321.00153 94.775160,325.17169 88.593750,340.46875 C 84.159996,353.84159 97.511453,364.38361 108.28125,369.28125 C 148.74752,385.63327 192.97959,389.60193 236.25000,390.40625 C 278.00751,390.72302 320.22937,388.91997 360.81250,378.31250 C 376.86548,372.99851 396.15917,369.04447 405.75000,353.68750 C 412.42383,341.37782 401.13942,328.49279 389.96875,324.12500 C 357.75573,308.54628 321.39615,304.94631 286.15625,302.31250 C 267.66255,301.20224 249.18032,300.84065 230.65625,301.18750 z M 247.68750,307.28125 C 331.90631,307.28126 400.25000,324.54321 400.25000,345.81250 C 400.25000,367.08178 331.90630,384.34375 247.68750,384.34375 C 163.46870,384.34375 95.125000,367.08179 95.125000,345.81250 C 95.125003,324.54320 163.46870,307.28125 247.68750,307.28125 z "
             id="path2916"
             transform="matrix(1.020286,0.000000,0.000000,1.020286,-41.01766,-23.35982)" />
          <path
             style="opacity:0.44021735;fill:#010101;fill-opacity:0.20000000;stroke:none;stroke-width:2.7172995;stroke-linecap:round;stroke-linejoin:round;stroke-miterlimit:4.0000000;stroke-dashoffset:0.0000000;stroke-opacity:1.0000000"
             d="M 258.43750,303.06250 C 239.88014,302.62193 221.41459,303.30559 202.90625,304.65625 C 169.86503,307.63309 135.77670,311.23272 105.65625,326.09375 C 95.852443,330.40309 84.877029,342.18539 91.656250,353.18750 C 99.887848,366.54987 116.65917,370.40765 130.59375,375.15625 C 181.02479,389.13635 234.03065,389.77830 285.96875,387.59375 C 319.14620,385.15251 352.92846,381.11775 383.90625,368.37500 C 393.73637,364.23796 405.99548,356.75818 405.90625,344.81250 C 403.74366,330.09691 387.37798,324.83221 375.46875,319.87500 C 337.94688,306.89507 297.82553,304.34674 258.43750,303.06250 z M 247.68750,307.28125 C 331.90631,307.28126 400.25000,324.54321 400.25000,345.81250 C 400.25000,367.08178 331.90630,384.34375 247.68750,384.34375 C 163.46870,384.34375 95.125000,367.08179 95.125000,345.81250 C 95.125003,324.54320 163.46870,307.28125 247.68750,307.28125 z "
             id="path2909"
             transform="matrix(1.020286,0.000000,0.000000,1.020286,-41.01766,-23.35982)" />
          <path
             style="opacity:0.44021735;fill:#010101;fill-opacity:0.29411766;stroke:none;stroke-width:2.7172995;stroke-linecap:round;stroke-linejoin:round;stroke-miterlimit:4.0000000;stroke-dashoffset:0.0000000;stroke-opacity:1.0000000"
             d="M 232.00000,304.96875 C 193.49528,306.88639 154.14955,309.28805 117.65625,322.71875 C 106.95672,327.06872 92.859331,332.92016 91.250000,345.90625 C 92.897643,358.92730 107.22804,364.57823 117.90625,368.96875 C 155.17295,382.23724 195.18365,385.43434 234.46875,386.59375 C 279.07643,387.18458 324.40943,384.88508 367.46875,372.40625 C 380.60546,367.96003 396.30973,363.33764 403.28125,350.28125 C 407.35143,338.69102 394.84878,330.49828 385.90625,326.31250 C 356.76052,313.11939 324.38836,309.35272 292.81250,306.56250 C 272.58914,304.94034 252.27761,304.72521 232.00000,304.96875 z M 247.68750,307.28125 C 331.90631,307.28126 400.25000,324.54321 400.25000,345.81250 C 400.25000,367.08178 331.90630,384.34375 247.68750,384.34375 C 163.46870,384.34375 95.125000,367.08179 95.125000,345.81250 C 95.125003,324.54320 163.46870,307.28125 247.68750,307.28125 z "
             id="path2903"
             transform="matrix(1.020286,0.000000,0.000000,1.020286,-41.01766,-23.35982)" />
          <path
             sodipodi:type="arc"
             style="opacity:0.44021735;fill:url(#radialGradient6941);fill-opacity:1.0000000;stroke:none;stroke-width:2.7172995;stroke-linecap:round;stroke-linejoin:round;stroke-miterlimit:4.0000000;stroke-dashoffset:0.0000000;stroke-opacity:1.0000000"
             id="path2862"
             sodipodi:cx="192.77242"
             sodipodi:cy="190.13620"
             sodipodi:rx="152.57030"
             sodipodi:ry="152.57030"
             d="M 345.34271 190.13620 A 152.57030 152.57030 0 1 1  40.202118,190.13620 A 152.57030 152.57030 0 1 1  345.34271 190.13620 z"
             transform="matrix(1.020286,0.000000,0.000000,0.257671,15.00887,280.4672)" />
        </g>
        <g
           id="g3029"
           transform="matrix(0.455931,0.000000,0.000000,0.437630,-32.91277,-66.02638)">
          <path
             style="fill:url(#radialGradient1734);fill-opacity:1.0000000;stroke:none;stroke-width:2.7172995;stroke-linecap:round;stroke-linejoin:round;stroke-miterlimit:4.0000000;stroke-dashoffset:0.0000000;stroke-opacity:1.0000000"
             d="M 228.59375,307.78125 C 182.85252,309.24148 143.29821,315.64637 119.43750,325.00000 C 118.64585,326.46281 110.60037,331.28584 110.60037,332.82523 C 114.85055,349.48469 151.90781,355.92511 192.43750,354.50000 C 233.43942,354.50000 270.96893,344.73437 266.71875,329.50000 C 262.46857,322.03482 251.23429,312.06887 228.59375,307.78125 z "
             id="path2881"
             transform="matrix(1.020286,0.000000,0.000000,1.020286,-41.01766,-23.35982)"
             sodipodi:nodetypes="cccccc" />
          <path
             style="fill:#010101;fill-opacity:0.078431375;stroke:none;stroke-width:2.7172995;stroke-linecap:round;stroke-linejoin:round;stroke-miterlimit:4.0000000;stroke-dashoffset:0.0000000;stroke-opacity:1.0000000"
             d="M 207.71875,308.78125 C 176.86419,310.90740 149.65171,315.27999 129.87500,321.34375 C 126.54654,323.85810 124.68750,326.60843 124.68750,329.50000 C 124.68750,341.25130 155.03693,350.78125 192.43750,350.78125 C 229.83806,350.78125 260.18751,341.25129 260.18750,329.50000 C 260.18750,319.40525 237.74259,310.96608 207.71875,308.78125 z "
             id="path2880"
             transform="matrix(1.020286,0.000000,0.000000,1.020286,-41.01766,-23.35982)" />
          <path
             sodipodi:type="arc"
             style="fill:#010101;fill-opacity:0.078431375;stroke:none;stroke-width:2.7172995;stroke-linecap:round;stroke-linejoin:round;stroke-miterlimit:4.0000000;stroke-dashoffset:0.0000000;stroke-opacity:1.0000000"
             id="path2875"
             sodipodi:cx="192.77242"
             sodipodi:cy="190.13620"
             sodipodi:rx="152.57030"
             sodipodi:ry="152.57030"
             d="M 345.34271 190.13620 A 152.57030 152.57030 0 1 1  40.202118,190.13620 A 152.57030 152.57030 0 1 1  345.34271 190.13620 z"
             transform="matrix(0.415700,0.000000,0.000000,0.117432,75.19292,290.4902)" />
        </g>
        <path
           sodipodi:type="arc"
           style="opacity:0.91847825;fill:url(#linearGradient6942);fill-opacity:1.0000000;stroke:none;stroke-width:2.7172995;stroke-linecap:round;stroke-linejoin:round;stroke-miterlimit:4.0000000;stroke-dashoffset:0.0000000;stroke-opacity:1.0000000"
           id="path1183"
           sodipodi:cx="34.318180"
           sodipodi:cy="38.977272"
           sodipodi:rx="34.545456"
           sodipodi:ry="3.0681818"
           d="M 68.863636 38.977272 A 34.545456 3.0681818 0 1 1  -0.22727585,38.977272 A 34.545456 3.0681818 0 1 1  68.863636 38.977272 z"
           transform="matrix(0.992252,0.000000,0.000000,3.259256,0.845673,-57.03690)" />
        <path
           sodipodi:type="arc"
           style="fill:none;fill-opacity:1.0000000;stroke:url(#radialGradient6943);stroke-width:0.69238997;stroke-linecap:round;stroke-linejoin:round;stroke-miterlimit:4.0000000;stroke-dashoffset:0.0000000;stroke-opacity:1.0000000"
           id="path1184"
           sodipodi:cx="34.318180"
           sodipodi:cy="38.977272"
           sodipodi:rx="34.545456"
           sodipodi:ry="3.0681818"
           d="M 68.863636 38.977272 A 34.545456 3.0681818 0 1 1  -0.22727585,38.977272 A 34.545456 3.0681818 0 1 1  68.863636 38.977272 z"
           transform="matrix(0.982569,0.000000,0.000000,3.154724,0.837397,-53.30314)" />
      </g>
      <g
         id="g4353"
         transform="matrix(0.948359,0.000000,0.000000,0.885122,2.101196,0.536584)">
        <g
           id="g4348">
          <path
             sodipodi:type="arc"
             style="opacity:0.91847825;fill:url(#linearGradient6944);fill-opacity:1.0000000;stroke:none;stroke-width:2.7172995;stroke-linecap:round;stroke-linejoin:round;stroke-miterlimit:4.0000000;stroke-dashoffset:0.0000000;stroke-opacity:1.0000000"
             id="path3201"
             sodipodi:cx="34.318180"
             sodipodi:cy="38.977272"
             sodipodi:rx="34.545456"
             sodipodi:ry="3.0681818"
             d="M 68.863636 38.977272 A 34.545456 3.0681818 0 1 1  -0.22727585,38.977272 A 34.545456 3.0681818 0 1 1  68.863636 38.977272 z"
             transform="matrix(0.992252,0.000000,0.000000,3.259256,0.845673,-117.0369)" />
          <path
             sodipodi:type="arc"
             style="fill:none;fill-opacity:1.0000000;stroke:url(#radialGradient6945);stroke-width:0.69238997;stroke-linecap:round;stroke-linejoin:round;stroke-miterlimit:4.0000000;stroke-dashoffset:0.0000000;stroke-opacity:1.0000000"
             id="path3867"
             sodipodi:cx="34.318180"
             sodipodi:cy="38.977272"
             sodipodi:rx="34.545456"
             sodipodi:ry="3.0681818"
             d="M 68.863636 38.977272 A 34.545456 3.0681818 0 1 1  -0.22727585,38.977272 A 34.545456 3.0681818 0 1 1  68.863636 38.977272 z"
             transform="matrix(0.992252,0.000000,0.000000,3.259256,0.845673,-117.0369)" />
          <path
             sodipodi:type="arc"
             style="fill:none;fill-opacity:1.0000000;stroke:url(#radialGradient6946);stroke-width:0.69238997;stroke-linecap:round;stroke-linejoin:round;stroke-miterlimit:4.0000000;stroke-dashoffset:0.0000000;stroke-opacity:1.0000000"
             id="path3872"
             sodipodi:cx="34.318180"
             sodipodi:cy="38.977272"
             sodipodi:rx="34.545456"
             sodipodi:ry="3.0681818"
             d="M 68.863636 38.977272 A 34.545456 3.0681818 0 1 1  -0.22727585,38.977272 A 34.545456 3.0681818 0 1 1  68.863636 38.977272 z"
             transform="matrix(0.992252,0.000000,0.000000,3.259256,0.845673,-117.0369)" />
          <path
             sodipodi:type="arc"
             style="opacity:0.91847825;fill:url(#linearGradient6947);fill-opacity:1.0000000;stroke:none;stroke-width:2.7172995;stroke-linecap:round;stroke-linejoin:round;stroke-miterlimit:4.0000000;stroke-dashoffset:0.0000000;stroke-opacity:1.0000000"
             id="path5761"
             sodipodi:cx="34.318180"
             sodipodi:cy="38.977272"
             sodipodi:rx="34.545456"
             sodipodi:ry="3.0681818"
             d="M 68.863636 38.977272 A 34.545456 3.0681818 0 1 1  -0.22727585,38.977272 A 34.545456 3.0681818 0 1 1  68.863636 38.977272 z"
             transform="matrix(0.969172,0.000000,0.000000,3.115228,1.797193,-111.6240)" />
          <path
             sodipodi:type="arc"
             style="opacity:0.91847825;fill:#175717;fill-opacity:1.0000000;stroke:none;stroke-width:2.7172995;stroke-linecap:round;stroke-linejoin:round;stroke-miterlimit:4.0000000;stroke-dashoffset:0.0000000;stroke-opacity:1.0000000"
             id="path1735"
             sodipodi:cx="34.318180"
             sodipodi:cy="38.977272"
             sodipodi:rx="34.545456"
             sodipodi:ry="3.0681818"
             d="M 68.863636 38.977272 A 34.545456 3.0681818 0 1 1  -0.22727585,38.977272 A 34.545456 3.0681818 0 1 1  68.863636 38.977272 z"
             transform="matrix(0.987637,0.000000,0.000000,3.230823,0.950884,-55.24515)" />
        </g>
        <path
           style="opacity:0.43478259;fill:url(#linearGradient6948);fill-opacity:1.0000000;stroke:none;stroke-width:2.7172995;stroke-linecap:round;stroke-linejoin:round;stroke-miterlimit:4.0000000;stroke-dashoffset:0.0000000;stroke-opacity:1.0000000"
           d="M 0.81250000,9.2812500 L 0.81250000,9.4687500 C 0.82429304,9.4051233 0.85914209,9.3445562 0.87500000,9.2812500 L 0.81250000,9.2812500 z M 68.937500,9.2812500 C 68.961051,9.3757339 69.016774,9.4673086 69.031250,9.5625000 L 69.031250,9.2812500 L 68.937500,9.2812500 z M 69.031250,10.437500 C 68.223537,15.748885 53.310581,20.000000 34.906250,20.000000 C 16.614928,19.999999 1.6279006,15.475694 0.65194361,10.210137 L 0.81250000,70.343750 L 1.4288872,70.985976 C 2.4216942,76.008177 17.223500,79.343753 35.062500,79.343750 C 52.901501,79.343750 67.350941,75.365950 68.343750,70.343750 L 69.031250,70.343750 L 69.031250,10.437500 z "
           id="path1186"
           sodipodi:nodetypes="ccccccccccccccccc" />
        <path
           style="opacity:0.83695650;fill:url(#radialGradient6949);fill-opacity:1.0000000;stroke:none;stroke-width:2.7172995;stroke-linecap:round;stroke-linejoin:round;stroke-miterlimit:4.0000000;stroke-dashoffset:0.0000000;stroke-opacity:1.0000000"
           d="M 0.13131694,9.2812500 L 0.13131694,9.4687500 C 0.14322774,9.4051233 0.17842476,9.3445562 0.19444102,9.2812500 L 0.13131694,9.2812500 z M 68.936564,9.2812500 C 68.960350,9.3757339 69.016629,9.4673086 69.031250,9.5625000 L 69.031250,9.2812500 L 68.936564,9.2812500 z M 68.463692,11.721951 C 67.242515,15.668607 53.153606,20.000000 34.565502,20.000000 C 16.091537,19.999999 1.4736950,16.383938 0.53671594,10.292779 L 0.59169934,70.183194 C 1.5944198,75.205395 16.706185,79.343753 34.723313,79.343750 C 52.740441,79.343750 67.577402,75.044837 68.580125,70.022637 L 68.463692,11.721951 z "
           id="path1826"
           sodipodi:nodetypes="ccccccccccccccc" />
        <path
           style="opacity:0.87500000;fill:url(#radialGradient6950);fill-opacity:1.0000000;stroke:none;stroke-width:1.0029756;stroke-linecap:round;stroke-linejoin:round;stroke-miterlimit:4.0000000;stroke-dashoffset:0.0000000;stroke-opacity:0.29411766"
           d="M 4.7682815,15.060548 C 10.520494,18.089581 16.499768,19.302125 22.251980,19.833487 C 22.251980,39.434869 22.024919,58.809190 22.024919,78.410572 C 16.272707,78.030584 10.293433,76.288231 4.5412205,73.864694 C 4.5412205,53.884877 4.7682815,35.040365 4.7682815,15.060548 z "
           id="rect3081"
           sodipodi:nodetypes="ccccc" />
        <path
           style="fill:url(#linearGradient6951);fill-opacity:1.0000000;fill-rule:evenodd;stroke:none;stroke-width:0.25000000pt;stroke-linecap:butt;stroke-linejoin:miter;stroke-opacity:1.0000000"
           d="M 0.90824408,62.970424 C 18.997439,74.020727 67.058688,79.394504 68.799489,45.032603 C 68.799489,53.206800 68.799489,61.380996 68.799489,69.555193 C 69.329298,81.740801 5.3737775,83.254541 0.90824408,70.690498 C 0.90824408,68.117140 0.90824408,65.543782 0.90824408,62.970424 z "
           id="path3708"
           sodipodi:nodetypes="ccccc" />
        <path
           style="opacity:0.87500000;fill:url(#radialGradient6952);fill-opacity:1.0000000;stroke:none;stroke-width:1.0029756;stroke-linecap:round;stroke-linejoin:round;stroke-miterlimit:4.0000000;stroke-dashoffset:0.0000000;stroke-opacity:0.29411766"
           d="M 67.559387,12.789938 C 64.904520,15.137788 61.917794,16.577393 59.262927,17.108755 C 59.262927,36.710137 59.594785,56.538580 59.594785,76.139962 C 62.249652,75.759974 65.009317,74.017621 67.664184,71.594084 C 67.664184,51.614267 67.559387,32.769755 67.559387,12.789938 z "
           id="path4363"
           sodipodi:nodetypes="ccccc" />
      </g>
    </g>
    <path
       style="fill:none;fill-opacity:0.75000000;fill-rule:evenodd;stroke:#000000;stroke-width:0.25000000pt;stroke-linecap:butt;stroke-linejoin:miter;stroke-opacity:1.0000000"
       d="M 1.0937496,48.593750 L 1.0937496,48.593750 z "
       id="path1108" />
  </g>
</svg>
