<?xml version="1.0" encoding="UTF-8" standalone="no"?>
<!-- Created with Inkscape (http://www.inkscape.org/) -->
<svg
   xmlns:dc="http://purl.org/dc/elements/1.1/"
   xmlns:cc="http://web.resource.org/cc/"
   xmlns:rdf="http://www.w3.org/1999/02/22-rdf-syntax-ns#"
   xmlns:svg="http://www.w3.org/2000/svg"
   xmlns="http://www.w3.org/2000/svg"
   xmlns:xlink="http://www.w3.org/1999/xlink"
   xmlns:sodipodi="http://inkscape.sourceforge.net/DTD/sodipodi-0.dtd"
   xmlns:inkscape="http://www.inkscape.org/namespaces/inkscape"
   inkscape:export-ydpi="45.000000"
   inkscape:export-xdpi="45.000000"
   inkscape:export-filename="/home/pinheiro/kdeplayground-artwork/oooicons/crystalsvg/dbdistinctvalues.png"
   sodipodi:docname="dbdistinctvalues.svg"
   sodipodi:docbase="/home/pinheiro/kdeplayground-artwork/oooicons/crystalsvg"
   inkscape:version="0.41"
   sodipodi:version="0.32"
   id="svg1553"
   height="64px"
   width="64px">
  <defs
     id="defs3">
    <linearGradient
       id="linearGradient7005"
       inkscape:collect="always">
      <stop
         id="stop7007"
         offset="0"
         style="stop-color:#000000;stop-opacity:1;" />
      <stop
         id="stop7009"
         offset="1"
         style="stop-color:#000000;stop-opacity:0;" />
    </linearGradient>
    <linearGradient
       id="linearGradient6217"
       inkscape:collect="always">
      <stop
         id="stop6219"
         offset="0"
         style="stop-color:#000000;stop-opacity:1;" />
      <stop
         id="stop6221"
         offset="1"
         style="stop-color:#000000;stop-opacity:0;" />
    </linearGradient>
    <linearGradient
       id="linearGradient3921"
       inkscape:collect="always">
      <stop
         id="stop3923"
         offset="0"
         style="stop-color:#000000;stop-opacity:1;" />
      <stop
         id="stop3925"
         offset="1"
         style="stop-color:#000000;stop-opacity:0;" />
    </linearGradient>
    <linearGradient
       gradientUnits="userSpaceOnUse"
       y2="6.5209355"
       x2="36.910168"
       y1="8.4635162"
       x1="21.491100"
       gradientTransform="matrix(-0.956171,0.000000,0.000000,1.045838,60.86773,-9.213050e-3)"
       id="linearGradient18723"
       xlink:href="#light100to0"
       inkscape:collect="always" />
    <linearGradient
       y2="22.959185"
       x2="36.525856"
       y1="32.744850"
       x1="44.786060"
       gradientTransform="matrix(0.607496,0.000000,0.000000,1.646102,-2.000000,0.000000)"
       gradientUnits="userSpaceOnUse"
       id="linearGradient17187"
       xlink:href="#light100to0"
       inkscape:collect="always" />
    <linearGradient
       gradientUnits="userSpaceOnUse"
       y2="423.30023"
       x2="253.63023"
       y1="322.30713"
       x1="222.57158"
       gradientTransform="matrix(0.320153,0.000000,0.000000,8.010735e-2,-46.58536,-14.03042)"
       id="linearGradient7864"
       xlink:href="#light100to0"
       inkscape:collect="always" />
    <linearGradient
       gradientUnits="userSpaceOnUse"
       y2="22.681667"
       x2="59.157505"
       y1="30.579924"
       x1="33.816196"
       gradientTransform="matrix(0.607496,0.000000,0.000000,1.646102,-2.000000,0.000000)"
       id="linearGradient16411"
       xlink:href="#light100to0"
       inkscape:collect="always" />
    <linearGradient
       spreadMethod="reflect"
       gradientUnits="userSpaceOnUse"
       y2="371.38556"
       x2="377.23828"
       y1="409.79456"
       x1="283.56204"
       gradientTransform="matrix(0.236336,0.000000,0.000000,0.114404,-48.04937,-14.64932)"
       id="linearGradient4054"
       xlink:href="#graytolightgray"
       inkscape:collect="always" />
    <linearGradient
       id="light100to0">
      <stop
         id="stop2764"
         offset="0.0000000"
         style="stop-color:#ffffff;stop-opacity:1.0000000;" />
      <stop
         id="stop2765"
         offset="1.0000000"
         style="stop-color:#ffffff;stop-opacity:0.0000000;" />
    </linearGradient>
    <radialGradient
       gradientUnits="userSpaceOnUse"
       r="116.47218"
       fy="256.86401"
       fx="178.29204"
       cy="256.86401"
       cx="178.29204"
       gradientTransform="scale(1.585650,0.630656)"
       id="radialGradient11715"
       xlink:href="#light100to0"
       inkscape:collect="always" />
    <linearGradient
       id="greylighttograyw">
      <stop
         id="stop575"
         offset="0.0000000"
         style="stop-color:#b5b5b8;stop-opacity:1.0000000;" />
      <stop
         id="stop576"
         offset="1.0000000"
         style="stop-color:#ebebee;stop-opacity:1.0000000;" />
    </linearGradient>
    <linearGradient
       spreadMethod="reflect"
       gradientUnits="userSpaceOnUse"
       y2="191.41595"
       x2="489.91776"
       y1="210.62589"
       x1="360.42029"
       gradientTransform="matrix(0.195946,0.000000,0.000000,0.137984,-48.04937,-14.64932)"
       id="linearGradient4062"
       xlink:href="#greylighttograyw"
       inkscape:collect="always" />
    <linearGradient
       id="graytolightgray">
      <stop
         id="stop5101"
         offset="0.0000000"
         style="stop-color:#d4d3d3;stop-opacity:1.0000000;" />
      <stop
         id="stop5102"
         offset="1.0000000"
         style="stop-color:#ffffff;stop-opacity:1.0000000;" />
    </linearGradient>
    <linearGradient
       spreadMethod="reflect"
       gradientUnits="userSpaceOnUse"
       y2="273.05020"
       x2="777.66937"
       y1="270.84445"
       x1="667.60266"
       gradientTransform="matrix(0.113673,0.000000,0.000000,0.237853,-48.07475,-14.64932)"
       id="linearGradient8634"
       xlink:href="#graytolightgray"
       inkscape:collect="always" />
    <linearGradient
       id="garylighttowite">
      <stop
         id="stop5106"
         offset="0.0000000"
         style="stop-color:#7d7d7d;stop-opacity:1.0000000;" />
      <stop
         id="stop5107"
         offset="1.0000000"
         style="stop-color:#d3d4d4;stop-opacity:1.0000000;" />
    </linearGradient>
    <linearGradient
       spreadMethod="reflect"
       gradientUnits="userSpaceOnUse"
       y2="275.21307"
       x2="434.37149"
       y1="102.04493"
       x1="345.70886"
       gradientTransform="matrix(0.158588,0.000000,0.000000,0.170491,-48.38957,-14.64999)"
       id="linearGradient13259"
       xlink:href="#garylighttowite"
       inkscape:collect="always" />
    <linearGradient
       gradientUnits="userSpaceOnUse"
       y2="32.429836"
       x2="17.969614"
       y1="68.470276"
       x1="37.563515"
       gradientTransform="scale(1.480473,0.675460)"
       id="linearGradient3927"
       xlink:href="#linearGradient3921"
       inkscape:collect="always" />
    <linearGradient
       gradientUnits="userSpaceOnUse"
       y2="89.236649"
       x2="24.102398"
       y1="104.03323"
       x1="34.062546"
       gradientTransform="scale(1.775146,0.563334)"
       id="linearGradient6223"
       xlink:href="#linearGradient6217"
       inkscape:collect="always" />
    <linearGradient
       gradientUnits="userSpaceOnUse"
       y2="18.928001"
       x2="4.2500420"
       y1="123.73225"
       x1="10.735976"
       gradientTransform="scale(1.526862,0.654938)"
       id="linearGradient7011"
       xlink:href="#linearGradient7005"
       inkscape:collect="always" />
  </defs>
  <sodipodi:namedview
     inkscape:window-y="245"
     inkscape:window-x="326"
     inkscape:window-height="536"
     inkscape:window-width="640"
     inkscape:grid-bbox="true"
     inkscape:document-units="px"
     showgrid="false"
     inkscape:current-layer="layer1"
     inkscape:cy="5.3487470"
     inkscape:cx="16.670260"
     inkscape:zoom="15.140972"
     inkscape:pageshadow="2"
     inkscape:pageopacity="0.0"
     borderopacity="1.0"
     bordercolor="#666666"
     pagecolor="#ffffff"
     id="base" />
  <metadata
     id="metadata4">
    <rdf:RDF
       id="RDF5">
      <cc:Work
         id="Work6"
         rdf:about="">
        <dc:format
           id="format7">image/svg+xml</dc:format>
        <dc:type
           rdf:resource="http://purl.org/dc/dcmitype/StillImage"
           id="type9" />
      </cc:Work>
    </rdf:RDF>
  </metadata>
  <g
     inkscape:groupmode="layer"
     inkscape:label="Layer 1"
     id="layer1">
    <path
       id="text3929"
       d="M 44.614126,50.674667 C 43.830593,50.805414 42.781143,50.840037 42.270376,51.487167 C 42.276714,51.930565 42.218922,52.399443 42.332876,52.830917 C 43.139827,53.296815 44.074907,51.953440 45.051626,52.424667 C 46.077075,52.875542 45.472022,54.172981 44.864126,54.737167 C 44.016288,55.722515 43.031692,56.650713 42.239126,57.674667 C 42.240410,58.101382 42.155558,58.569191 42.364126,58.955917 C 42.809558,59.197082 43.367284,59.031366 43.864126,59.080917 C 44.953231,59.058940 46.031035,59.127205 47.114126,59.049667 C 47.511582,58.773942 47.310322,58.242164 47.364126,57.830917 C 47.288625,57.210239 46.573623,57.445089 46.145376,57.393417 C 45.659565,57.393417 45.162437,57.393417 44.676626,57.393417 C 45.608229,56.241196 46.971511,55.256321 47.301626,53.737167 C 47.604104,52.406160 46.669904,50.976352 45.301626,50.768417 C 45.074683,50.722536 44.845505,50.674661 44.614126,50.674667 z M 40.207876,50.799667 C 39.966044,50.796323 39.709754,50.863658 39.489126,50.830917 C 39.402181,50.830917 39.294819,50.830917 39.207876,50.830917 C 38.735440,51.077441 38.584502,51.664850 38.270376,52.080917 C 37.519085,53.331835 36.744560,54.566180 36.020376,55.830917 C 36.030001,56.289074 35.903221,56.788345 36.114126,57.205917 C 36.559561,57.447081 37.117284,57.281365 37.614126,57.330917 C 38.110907,57.330917 38.586096,57.330917 39.082876,57.330917 C 39.130039,57.869941 38.981744,58.459390 39.207876,58.955917 C 39.559393,59.185677 40.024528,59.038594 40.426626,59.080917 C 41.017292,58.965369 40.746296,58.260964 40.801626,57.830917 C 40.681159,57.360454 40.937490,57.254278 41.364126,57.330917 C 41.987672,57.289409 41.758844,56.564667 41.801626,56.143417 C 41.922623,55.413175 40.941842,55.839656 40.801626,55.549667 C 40.787979,54.072622 40.850208,52.587071 40.801626,51.112167 C 40.673487,50.875744 40.449708,50.803011 40.207876,50.799667 z M 51.301626,50.799667 C 51.053669,50.795982 50.788944,50.863341 50.582876,50.830917 C 49.977983,51.010490 49.334098,51.062213 48.739126,51.268417 C 48.425054,51.605534 48.602903,52.127757 48.551626,52.549667 C 48.681670,53.208540 49.403963,52.788426 49.832876,52.737167 C 50.328493,52.466200 50.192215,53.004646 50.207876,53.330917 C 50.207876,54.684829 50.207876,56.039504 50.207876,57.393417 C 49.785772,57.393417 49.348729,57.393414 48.926626,57.393417 C 48.555301,57.763093 48.644294,58.492269 48.801626,58.955917 C 49.247061,59.197082 49.804784,59.031366 50.301626,59.080917 C 51.260085,59.059000 52.224179,59.127131 53.176626,59.049667 C 53.574084,58.773943 53.372821,58.242164 53.426626,57.830917 C 53.351123,57.210239 52.636124,57.445089 52.207876,57.393417 C 51.729704,57.536804 51.991804,56.944276 51.926626,56.674667 C 51.912696,54.818483 51.944344,52.966202 51.895376,51.112167 C 51.787703,50.876792 51.549583,50.803352 51.301626,50.799667 z M 57.614126,50.830917 C 57.097850,51.039173 57.323614,51.646429 57.270376,52.080917 C 57.307138,52.733592 58.054489,52.501969 58.489126,52.549667 C 59.115638,52.549668 59.768864,52.549668 60.395376,52.549667 C 59.681820,54.536249 58.952681,56.500586 58.239126,58.487167 C 58.089692,59.254046 58.990712,59.052984 59.457876,59.080917 C 60.040254,59.122996 60.039523,58.373837 60.239126,57.987167 C 60.984364,55.882856 61.768618,53.817520 62.489126,51.705917 C 62.604586,51.179311 62.281530,50.685815 61.707876,50.830917 C 60.340148,50.830917 58.981853,50.830917 57.614126,50.830917 z M 39.082876,53.580917 C 39.082876,54.271901 39.082876,54.952433 39.082876,55.643417 C 38.670824,55.643417 38.276178,55.643417 37.864126,55.643417 C 38.276178,54.952433 38.670824,54.271901 39.082876,53.580917 z M 36.770376,56.205917 C 37.159473,56.447631 36.897502,56.628474 36.770376,56.362167 C 36.770376,56.302064 36.770376,56.266021 36.770376,56.205917 z M 55.676626,57.455917 C 55.186562,57.455917 54.770375,57.819819 54.770376,58.268417 C 54.770376,58.717017 55.186563,59.080916 55.676626,59.080917 C 56.166690,59.080917 56.551625,58.717018 56.551626,58.268417 C 56.551626,57.819817 56.166690,57.455917 55.676626,57.455917 z "
       style="font-family:Bitstream Vera Sans;stroke-opacity:1.0000000;stroke-linejoin:round;stroke-linecap:round;stroke-width:0.81456929px;stroke:none;fill-opacity:1.0;fill:url(#linearGradient6223);font-weight:normal;font-style:normal;font-size:9.7748318" />
    <g
       transform="translate(2.510080,-0.473636)"
       id="g1682">
      <path
         transform="matrix(0.769756,0.000000,0.000000,0.767486,4.795721,13.95596)"
         d="M 40.839780 60.022099 A 8.3093920 2.2099447 0 1 1  24.220996,60.022099 A 8.3093920 2.2099447 0 1 1  40.839780 60.022099 z"
         sodipodi:ry="2.2099447"
         sodipodi:rx="8.3093920"
         sodipodi:cy="60.022099"
         sodipodi:cx="32.530388"
         id="path14089"
         style="opacity:0.49029127;fill:#000000;fill-opacity:0.033898298;stroke:#000000;stroke-width:4.6500001;stroke-linejoin:round;stroke-miterlimit:4.0000000;stroke-opacity:0.050847415"
         sodipodi:type="arc" />
      <path
         transform="matrix(0.929539,0.000000,0.000000,1.000000,-0.617416,0.000000)"
         d="M 40.839780 60.022099 A 8.3093920 2.2099447 0 1 1  24.220996,60.022099 A 8.3093920 2.2099447 0 1 1  40.839780 60.022099 z"
         sodipodi:ry="2.2099447"
         sodipodi:rx="8.3093920"
         sodipodi:cy="60.022099"
         sodipodi:cx="32.530388"
         id="path14087"
         style="opacity:0.49029127;fill:#000000;fill-opacity:0.033898298;stroke:#000000;stroke-width:4.6500001;stroke-linejoin:round;stroke-miterlimit:4.0000000;stroke-opacity:0.050847415"
         sodipodi:type="arc" />
      <path
         id="path14085"
         d="M 29.537615,3.5363319 C 14.808706,3.5363319 2.8525482,8.0172340 2.8525482,13.536970 C 2.8525482,13.547132 2.8577596,13.556761 2.8578439,13.566923 C 2.8577596,13.577036 2.8525482,13.586714 2.8525482,13.596827 C 2.8525482,13.915666 2.9112755,14.228459 2.9901828,14.539548 C 2.9941594,14.554481 2.9966126,14.569495 3.0007675,14.584429 C 3.1786087,15.253720 3.5167358,15.905450 4.0277287,16.529727 C 4.0630616,16.572859 4.1020411,16.616468 4.1388974,16.659375 L 24.185783,39.468913 L 24.185783,59.041328 L 24.233428,59.041328 C 24.341060,60.109801 26.670920,61.390629 29.548207,61.390584 C 32.425680,61.390629 34.755643,60.109889 34.862977,59.041328 L 34.878868,59.041328 L 34.878868,58.986467 C 34.879046,58.979682 34.884165,58.973285 34.884165,58.966500 C 34.884165,58.959630 34.879046,58.953410 34.878868,58.946535 L 34.878868,39.583629 L 54.788121,16.978610 C 54.535149,17.247666 54.246837,17.508665 53.935848,17.766685 L 54.703422,16.893843 C 55.668951,15.860046 56.217395,14.753612 56.217395,13.596827 C 56.217395,13.586714 56.212181,13.577036 56.212099,13.566923 C 56.212181,13.556761 56.217395,13.547132 56.217395,13.536970 C 56.217395,8.0172340 44.266531,3.5363319 29.537615,3.5363319 z "
         style="fill:none;fill-opacity:1.0000000;fill-rule:evenodd;stroke:#000000;stroke-width:4.8686466;stroke-linecap:butt;stroke-linejoin:round;stroke-miterlimit:4.0000000;stroke-opacity:0.050847415" />
      <path
         id="path14075"
         d="M 29.747603,3.0832120 C 15.018694,3.0832120 3.0625358,7.5641141 3.0625358,13.083850 C 3.0625358,13.094012 3.0677468,13.103641 3.0678308,13.113803 C 3.0677468,13.123916 3.0625358,13.133594 3.0625358,13.143707 C 3.0625358,13.462546 3.1212628,13.775339 3.2001698,14.086428 C 3.2041468,14.101361 3.2065998,14.116375 3.2107548,14.131309 C 3.3885958,14.800600 3.7267228,15.452330 4.2377158,16.076607 C 4.2730488,16.119739 4.3120288,16.163348 4.3488848,16.206255 L 24.395771,39.015793 L 24.395771,58.588208 L 24.443417,58.588208 C 24.551048,59.656681 26.880908,60.937509 29.758196,60.937464 C 32.635668,60.937509 34.965631,59.656769 35.072965,58.588208 L 35.088857,58.588208 L 35.088857,58.533347 C 35.089034,58.526562 35.094154,58.520165 35.094154,58.513380 C 35.094154,58.506510 35.089034,58.500290 35.088857,58.493415 L 35.088857,39.130509 L 54.998109,16.525490 C 54.745136,16.794546 54.456825,17.055545 54.145836,17.313565 L 54.913411,16.440723 C 55.878939,15.406926 56.427384,14.300492 56.427384,13.143707 C 56.427384,13.133594 56.422169,13.123916 56.422088,13.113803 C 56.422169,13.103641 56.427384,13.094012 56.427384,13.083850 C 56.427384,7.5641141 44.476520,3.0832120 29.747603,3.0832120 z "
         style="fill:none;fill-opacity:1.0000000;fill-rule:evenodd;stroke:#000000;stroke-width:6.1250715;stroke-linecap:butt;stroke-linejoin:round;stroke-miterlimit:4.0000000;stroke-opacity:0.050847415" />
      <path
         id="path12479"
         d="M 29.537615,3.5363319 C 14.808706,3.5363319 2.8525482,8.0172340 2.8525482,13.536970 C 2.8525482,13.547132 2.8577596,13.556761 2.8578439,13.566923 C 2.8577596,13.577036 2.8525482,13.586714 2.8525482,13.596827 C 2.8525482,13.915666 2.9112755,14.228459 2.9901828,14.539548 C 2.9941594,14.554481 2.9966126,14.569495 3.0007675,14.584429 C 3.1786087,15.253720 3.5167358,15.905450 4.0277287,16.529727 C 4.0630616,16.572859 4.1020411,16.616468 4.1388974,16.659375 L 24.185783,39.468913 L 24.185783,59.041328 L 24.233428,59.041328 C 24.341060,60.109801 26.670920,61.390629 29.548207,61.390584 C 32.425680,61.390629 34.755643,60.109889 34.862977,59.041328 L 34.878868,59.041328 L 34.878868,58.986467 C 34.879046,58.979682 34.884165,58.973285 34.884165,58.966500 C 34.884165,58.959630 34.879046,58.953410 34.878868,58.946535 L 34.878868,39.583629 L 54.788121,16.978610 C 54.535149,17.247666 54.246837,17.508665 53.935848,17.766685 L 54.703422,16.893843 C 55.668951,15.860046 56.217395,14.753612 56.217395,13.596827 C 56.217395,13.586714 56.212181,13.577036 56.212099,13.566923 C 56.212181,13.556761 56.217395,13.547132 56.217395,13.536970 C 56.217395,8.0172340 44.266531,3.5363319 29.537615,3.5363319 z "
         style="fill:none;fill-opacity:1.0000000;fill-rule:evenodd;stroke:#000000;stroke-width:1.7881857;stroke-linecap:butt;stroke-linejoin:round;stroke-miterlimit:4.0000000;stroke-opacity:0.039547984" />
      <path
         id="path12477"
         d="M 29.537615,3.5363319 C 14.808706,3.5363319 2.8525482,8.0172340 2.8525482,13.536970 C 2.8525482,13.547132 2.8577596,13.556761 2.8578439,13.566923 C 2.8577596,13.577036 2.8525482,13.586714 2.8525482,13.596827 C 2.8525482,13.915666 2.9112755,14.228459 2.9901828,14.539548 C 2.9941594,14.554481 2.9966126,14.569495 3.0007675,14.584429 C 3.1786087,15.253720 3.5167358,15.905450 4.0277287,16.529727 C 4.0630616,16.572859 4.1020411,16.616468 4.1388974,16.659375 L 24.185783,39.468913 L 24.185783,59.041328 L 24.233428,59.041328 C 24.341060,60.109801 26.670920,61.390629 29.548207,61.390584 C 32.425680,61.390629 34.755643,60.109889 34.862977,59.041328 L 34.878868,59.041328 L 34.878868,58.986467 C 34.879046,58.979682 34.884165,58.973285 34.884165,58.966500 C 34.884165,58.959630 34.879046,58.953410 34.878868,58.946535 L 34.878868,39.583629 L 54.788121,16.978610 C 54.535149,17.247666 54.246837,17.508665 53.935848,17.766685 L 54.703422,16.893843 C 55.668951,15.860046 56.217395,14.753612 56.217395,13.596827 C 56.217395,13.586714 56.212181,13.577036 56.212099,13.566923 C 56.212181,13.556761 56.217395,13.547132 56.217395,13.536970 C 56.217395,8.0172340 44.266531,3.5363319 29.537615,3.5363319 z "
         style="fill:none;fill-opacity:1.0000000;fill-rule:evenodd;stroke:#000000;stroke-width:1.9526165;stroke-linecap:butt;stroke-linejoin:round;stroke-miterlimit:4.0000000;stroke-opacity:0.039547984" />
      <path
         id="path9412"
         d="M 29.537615,3.5363319 C 14.808706,3.5363319 2.8525482,8.0172340 2.8525482,13.536970 C 2.8525482,13.547132 2.8577596,13.556761 2.8578439,13.566923 C 2.8577596,13.577036 2.8525482,13.586714 2.8525482,13.596827 C 2.8525482,13.915666 2.9112755,14.228459 2.9901828,14.539548 C 2.9941594,14.554481 2.9966126,14.569495 3.0007675,14.584429 C 3.1786087,15.253720 3.5167358,15.905450 4.0277287,16.529727 C 4.0630616,16.572859 4.1020411,16.616468 4.1388974,16.659375 L 24.185783,39.468913 L 24.185783,59.041328 L 24.233428,59.041328 C 24.341060,60.109801 26.670920,61.390629 29.548207,61.390584 C 32.425680,61.390629 34.755643,60.109889 34.862977,59.041328 L 34.878868,59.041328 L 34.878868,58.986467 C 34.879046,58.979682 34.884165,58.973285 34.884165,58.966500 C 34.884165,58.959630 34.879046,58.953410 34.878868,58.946535 L 34.878868,39.583629 L 54.788121,16.978610 C 54.535149,17.247666 54.246837,17.508665 53.935848,17.766685 L 54.703422,16.893843 C 55.668951,15.860046 56.217395,14.753612 56.217395,13.596827 C 56.217395,13.586714 56.212181,13.577036 56.212099,13.566923 C 56.212181,13.556761 56.217395,13.547132 56.217395,13.536970 C 56.217395,8.0172340 44.266531,3.5363319 29.537615,3.5363319 z "
         style="fill:none;fill-opacity:1.0000000;fill-rule:evenodd;stroke:url(#linearGradient13259);stroke-width:2.9840090;stroke-linecap:butt;stroke-linejoin:round;stroke-miterlimit:4.0000000;stroke-opacity:1.0000000" />
      <path
         id="path14875"
         d="M 29.537615,3.5363319 C 14.808706,3.5363319 2.8525482,8.0172340 2.8525482,13.536970 C 2.8525482,13.547132 2.8577596,13.556761 2.8578439,13.566923 C 2.8577596,13.577036 2.8525482,13.586714 2.8525482,13.596827 C 2.8525482,13.915666 2.9112755,14.228459 2.9901828,14.539548 C 2.9941594,14.554481 2.9966126,14.569495 3.0007675,14.584429 C 3.1786087,15.253720 3.5167358,15.905450 4.0277287,16.529727 C 4.0630616,16.572859 4.1020411,16.616468 4.1388974,16.659375 L 24.185783,39.468913 L 24.185783,59.041328 L 24.233428,59.041328 C 24.341060,60.109801 26.670920,61.390629 29.548207,61.390584 C 32.425680,61.390629 34.755643,60.109889 34.862977,59.041328 L 34.878868,59.041328 L 34.878868,58.986467 C 34.879046,58.979682 34.884165,58.973285 34.884165,58.966500 C 34.884165,58.959630 34.879046,58.953410 34.878868,58.946535 L 34.878868,39.583629 L 54.788121,16.978610 C 54.535149,17.247666 54.246837,17.508665 53.935848,17.766685 L 54.703422,16.893843 C 55.668951,15.860046 56.217395,14.753612 56.217395,13.596827 C 56.217395,13.586714 56.212181,13.577036 56.212099,13.566923 C 56.212181,13.556761 56.217395,13.547132 56.217395,13.536970 C 56.217395,8.0172340 44.266531,3.5363319 29.537615,3.5363319 z "
         style="fill:none;fill-opacity:1.0000000;fill-rule:evenodd;stroke:#000000;stroke-width:2.9840090;stroke-linecap:butt;stroke-linejoin:round;stroke-miterlimit:4.0000000;stroke-opacity:0.27118644" />
      <path
         sodipodi:nodetypes="ccccccccccc"
         id="path2477"
         d="M 24.187189,38.578861 L 24.187189,59.039098 L 24.234824,59.039098 C 24.342465,60.107567 26.672326,61.392996 29.549604,61.392996 C 32.427076,61.392996 34.757047,60.107656 34.864384,59.039098 L 34.880272,59.039098 L 34.880272,58.984233 C 34.880450,58.977447 34.885568,58.971101 34.885568,58.964270 C 34.885568,58.957395 34.880450,58.951222 34.880272,58.944347 L 34.880272,38.578861 L 24.187189,38.578861 z "
         style="fill:url(#linearGradient8634);fill-opacity:1.0000000;fill-rule:evenodd;stroke:none;stroke-width:1.0000000px;stroke-linecap:butt;stroke-linejoin:miter;stroke-opacity:1.0000000" />
      <path
         id="path2483"
         d="M 29.539020,3.5961828 C 14.810111,3.5961828 2.8539526,8.0770907 2.8539526,13.596827 C 2.8539526,14.617574 3.2696322,15.601849 4.0291331,16.529727 C 4.0644661,16.572859 4.1034455,16.616468 4.1403011,16.659375 L 24.430695,39.748256 L 24.483628,39.748256 C 25.177937,40.550610 27.167563,41.134868 29.539020,41.134868 C 32.125103,41.134868 34.275269,40.444341 34.763814,39.528765 L 54.704825,16.893843 C 55.670356,15.860046 56.218797,14.753612 56.218797,13.596827 C 56.218797,8.0770907 44.267930,3.5961828 29.539020,3.5961828 z "
         style="fill:url(#linearGradient4062);fill-opacity:1.0000000;fill-rule:evenodd;stroke:none;stroke-width:1.0000000px;stroke-linecap:butt;stroke-linejoin:miter;stroke-opacity:1.0000000" />
      <path
         transform="matrix(0.132417,0.000000,0.000000,0.126157,4.767091,6.617658)"
         d="M 344.57040 108.29356 A 157.51790 62.649166 0 1 1  29.534607,108.29356 A 157.51790 62.649166 0 1 1  344.57040 108.29356 z"
         sodipodi:ry="62.649166"
         sodipodi:rx="157.51790"
         sodipodi:cy="108.29356"
         sodipodi:cx="187.05251"
         id="path5580"
         style="fill:#000000;fill-opacity:1.0000000;fill-rule:evenodd;stroke:none;stroke-width:1.0000000px;stroke-linecap:butt;stroke-linejoin:miter;stroke-opacity:1.0000000"
         sodipodi:type="arc" />
      <path
         transform="matrix(0.132417,0.000000,0.000000,0.126157,4.767091,6.617658)"
         d="M 344.57040 108.29356 A 157.51790 62.649166 0 1 1  29.534607,108.29356 A 157.51790 62.649166 0 1 1  344.57040 108.29356 z"
         sodipodi:ry="62.649166"
         sodipodi:rx="157.51790"
         sodipodi:cy="108.29356"
         sodipodi:cx="187.05251"
         id="path10949"
         style="fill:url(#radialGradient11715);fill-opacity:1.0000000;fill-rule:evenodd;stroke:none;stroke-width:1.0000000px;stroke-linecap:butt;stroke-linejoin:miter;stroke-opacity:1.0000000"
         sodipodi:type="arc" />
      <path
         id="path2503"
         d="M 4.2858729,16.768140 L 24.533920,39.812096 L 24.586853,39.812096 C 25.282260,40.613748 27.266837,41.198708 29.636964,41.198708 C 32.228429,41.198708 34.389754,40.506036 34.872327,39.587613 L 54.786876,16.977602 C 51.130570,20.866586 41.259921,23.661349 29.636964,23.661349 C 17.804937,23.661349 7.7780034,20.766759 4.2858729,16.768140 z "
         style="fill:url(#linearGradient4054);fill-opacity:1.0000000;fill-rule:evenodd;stroke:none;stroke-width:0.20000000px;stroke-linecap:butt;stroke-linejoin:miter;stroke-opacity:1.0000000" />
      <path
         id="path17191"
         d="M 23.906250,39.375000 L 23.250000,40.125000 C 24.758729,41.440422 27.354467,41.865109 29.843750,41.812500 C 31.088391,41.786196 32.304630,41.626308 33.343750,41.343750 C 34.382870,41.061192 35.256858,40.689644 35.812500,40.093750 L 35.062500,39.406250 C 34.733738,39.758829 34.002176,40.119483 33.062500,40.375000 C 32.122824,40.630517 30.984411,40.787733 29.812500,40.812500 C 27.468677,40.862035 25.041844,40.365095 23.906250,39.375000 z "
         style="fill:#000000;fill-opacity:0.056497160;fill-rule:evenodd;stroke:none;stroke-width:1.0000000px;stroke-linecap:butt;stroke-linejoin:miter;stroke-opacity:1.0000000" />
      <path
         sodipodi:nodetypes="ccccccc"
         id="path15645"
         d="M 26.110497,60.731821 L 25.939227,41.000000 L 15.171270,22.292817 C 18.110229,23.025109 23.443717,23.821655 26.403315,23.800813 L 29.044665,40.646409 L 28.932766,61.195617 L 26.110497,60.731821 z "
         style="fill:url(#linearGradient16411);fill-opacity:1.0000000;fill-rule:evenodd;stroke:none;stroke-width:1.0000000px;stroke-linecap:butt;stroke-linejoin:miter;stroke-opacity:1.0000000" />
      <path
         id="path17951"
         d="M 23.687500,39.593750 L 23.437500,39.906250 C 24.834288,41.124074 27.398105,41.582937 29.843750,41.531250 C 31.066572,41.505407 32.240713,41.336946 33.250000,41.062500 C 34.259287,40.788054 35.106172,40.397899 35.593750,39.875000 L 35.281250,39.625000 C 34.884424,40.050573 34.125759,40.423870 33.156250,40.687500 C 32.186741,40.951130 31.006230,41.099772 29.812500,41.125000 C 27.425039,41.175457 24.935034,40.681443 23.687500,39.593750 z "
         style="fill:#000000;fill-opacity:0.056497160;fill-rule:evenodd;stroke:none;stroke-width:0.40000001;stroke-linecap:butt;stroke-linejoin:miter;stroke-miterlimit:4.0000000;stroke-opacity:1.0000000" />
      <path
         transform="matrix(0.165938,0.000000,0.000000,0.154225,-1.569686,-3.094166)"
         d="M 344.57040 108.29356 A 157.51790 62.649166 0 1 1  29.534607,108.29356 A 157.51790 62.649166 0 1 1  344.57040 108.29356 z"
         sodipodi:ry="62.649166"
         sodipodi:rx="157.51790"
         sodipodi:cy="108.29356"
         sodipodi:cx="187.05251"
         id="path2522"
         style="fill:none;fill-opacity:0.75000000;fill-rule:evenodd;stroke:#ffffff;stroke-width:7.3750000;stroke-linecap:butt;stroke-linejoin:miter;stroke-miterlimit:4.0000000;stroke-opacity:1.0000000"
         sodipodi:type="arc" />
      <path
         sodipodi:nodetypes="czzzzzzs"
         id="path7098"
         d="M 25.262481,12.901309 C 30.304407,12.516445 35.988469,12.893953 38.611653,13.463636 C 41.234835,14.033312 43.140037,15.478508 41.990589,16.193466 C 40.841144,16.908468 34.763393,17.330946 31.714965,17.753418 C 28.666529,18.175897 26.029121,18.858365 23.699980,18.728371 C 21.370830,18.598375 18.442971,17.623425 17.740117,16.973445 C 17.037255,16.323464 17.941464,15.528247 19.482803,14.828574 C 21.024151,14.128893 22.693561,13.097376 25.262481,12.901309 z "
         style="fill:url(#linearGradient7864);fill-opacity:1.0000000;fill-rule:evenodd;stroke:#000000;stroke-width:0.16014563px;stroke-linecap:butt;stroke-linejoin:miter;stroke-opacity:1.0000000" />
      <path
         sodipodi:nodetypes="cczc"
         id="path10185"
         d="M 3.9106625,13.250490 C 4.7578109,2.6670778 53.758611,1.7150240 54.806402,13.781900 C 54.761812,6.2317911 37.941475,4.2391157 29.458849,4.1505368 C 20.976225,4.0619639 4.3788163,6.4753188 3.9106625,13.250490 z "
         style="fill:#000000;fill-opacity:0.033898298;fill-rule:evenodd;stroke:none;stroke-width:1.0000000px;stroke-linecap:butt;stroke-linejoin:miter;stroke-opacity:1.0000000" />
      <path
         sodipodi:nodetypes="cczc"
         id="path10945"
         d="M 3.9106625,13.349839 C 6.7642069,2.7000015 51.150290,1.4822233 54.806402,13.881205 C 54.761812,6.7296646 37.874593,4.1391543 29.391966,4.0505805 C 20.909351,3.9620027 4.7132214,7.3052967 3.9106625,13.349839 z "
         style="fill:#000000;fill-opacity:0.033898298;fill-rule:evenodd;stroke:none;stroke-width:1.0000000px;stroke-linecap:butt;stroke-linejoin:miter;stroke-opacity:1.0000000" />
      <path
         sodipodi:nodetypes="cczc"
         id="path10947"
         d="M 3.9106625,13.262665 C 7.2992463,1.6164663 48.742607,0.39873267 54.806402,13.794031 C 54.293657,7.1738608 37.941475,4.4505489 29.458849,4.3619760 C 20.976225,4.2733973 4.7132214,7.2181672 3.9106625,13.262665 z "
         style="fill:#000000;fill-opacity:0.033898298;fill-rule:evenodd;stroke:none;stroke-width:1.0000000px;stroke-linecap:butt;stroke-linejoin:miter;stroke-opacity:1.0000000" />
      <path
         sodipodi:nodetypes="ccccccc"
         id="path16417"
         d="M 26.110497,61.519783 L 25.939227,41.000000 L 15.171270,22.292817 C 18.110229,23.025109 23.443717,23.821655 26.403315,23.800813 L 29.044665,40.646409 L 28.932766,61.983579 C 28.867523,62.354288 26.088189,61.937036 26.110497,61.519783 z "
         style="fill:url(#linearGradient17187);fill-opacity:1.0000000;fill-rule:evenodd;stroke:none;stroke-width:1.0000000px;stroke-linecap:butt;stroke-linejoin:miter;stroke-opacity:1.0000000" />
      <path
         sodipodi:nodetypes="ccccc"
         id="path17957"
         d="M 35.498931,12.706805 C 34.801462,12.613305 32.691674,12.414408 31.888808,12.426305 L 31.655691,4.5710015 C 33.760032,4.5985485 36.981580,4.8579686 38.896207,5.2017063 L 35.498931,12.706805 z "
         style="fill:url(#linearGradient18723);fill-opacity:1.0000000;fill-rule:evenodd;stroke:none;stroke-width:1.0000000px;stroke-linecap:butt;stroke-linejoin:miter;stroke-opacity:1.0000000" />
    </g>
    <path
       id="text1608"
       d="M 13.437500,51.812500 C 12.181083,51.976533 10.580564,52.015766 9.6848597,52.965806 C 9.5803564,53.789917 9.4274573,55.814959 10.814329,55.065097 C 12.064597,54.490863 13.655677,53.870575 14.928902,54.708775 C 15.747390,55.520584 14.992599,56.693762 14.305230,57.298285 C 12.844443,58.901684 11.058327,60.185675 9.6136413,61.794239 C 9.4748074,62.624466 9.3446721,64.207482 10.679070,63.875000 C 13.054382,63.847177 15.442260,63.930287 17.809861,63.834071 C 18.460349,63.379281 18.376656,62.066603 17.922094,61.503062 C 16.547988,61.270080 15.091730,61.475870 13.687500,61.406250 C 15.039167,60.114068 16.551574,58.941260 17.629028,57.399086 C 18.582365,55.865999 18.224792,53.598098 16.619304,52.647005 C 15.687937,52.023497 14.548627,51.769069 13.437500,51.812500 z M 23.781250,51.812500 C 22.570324,51.969089 21.001548,51.816390 20.098275,52.690759 C 19.923893,53.564923 19.940042,55.366160 21.323706,54.653618 C 22.525597,54.370444 23.900654,54.030516 25.076245,54.540300 C 26.087135,55.207267 25.193330,56.523328 24.156250,56.343750 C 23.264148,56.402756 21.422080,55.925430 21.718750,57.434916 C 21.368899,58.586576 22.406315,59.080102 23.395881,58.810955 C 24.339469,58.751341 25.797393,58.928481 25.812500,60.156250 C 25.888365,61.372678 24.450924,61.584608 23.531053,61.609132 C 22.480142,61.644674 21.441694,61.365119 20.501704,60.909151 C 19.322637,60.884487 19.608254,62.787488 19.979692,63.441148 C 21.899494,64.166108 24.096053,64.334452 26.069621,63.717959 C 27.467789,63.245487 28.571542,61.881465 28.625000,60.437500 C 29.003934,59.149065 27.408739,58.074791 27.097802,57.486583 C 28.709340,56.398563 28.722713,53.676631 27.031250,52.656250 C 26.079920,52.015899 24.912372,51.792345 23.781250,51.812500 z M 3.6562500,52.000000 C 2.4917064,52.259726 0.99612041,52.141506 0.10260252,52.934787 C 0.044177836,53.689901 -0.24172500,55.387358 1.0375455,55.046919 C 1.7910898,55.034858 3.2413136,54.187879 2.8437500,55.554328 C 2.8437500,57.504969 2.8437500,59.455609 2.8437500,61.406250 C 1.7473951,61.354259 -0.14465694,61.118708 0.28125001,62.793644 C 0.11721049,64.524528 2.3664046,63.678243 3.4139559,63.875000 C 4.8861115,63.841838 6.3723104,63.942074 7.8354778,63.823534 C 8.6136198,63.102224 8.3929573,60.883594 6.8670578,61.406250 C 6.1183923,61.477444 5.3875830,61.530782 5.6562500,60.584643 C 5.6507841,57.899825 5.6671874,55.214296 5.6480359,52.529922 C 5.4401117,51.651172 4.2756015,52.119238 3.6562500,52.000000 z "
       style="font-family:Bitstream Vera Sans;stroke-opacity:1.0000000;stroke-linejoin:round;stroke-linecap:round;stroke-width:1.2680691px;stroke:none;fill-opacity:1.0;fill:url(#linearGradient7011);font-weight:normal;font-style:normal;font-size:15.216830" />
    <path
       sodipodi:nodetypes="ccccccccccccccccccccccccccccccccccccccccccccccccc"
       id="text1612"
       d="M 22.968750,25.937500 C 20.887350,26.152984 18.208017,25.991704 16.684485,27.517630 C 16.618820,28.559486 16.522333,29.661613 16.750218,30.680883 C 18.141199,32.125629 20.240038,30.046311 21.998484,30.365293 C 23.704582,29.983045 26.478776,30.891379 25.579228,33.096240 C 24.571167,34.559011 22.574024,34.063083 21.035573,34.156250 C 19.913722,33.902485 19.135310,34.940164 19.375000,35.994543 C 19.382783,36.921034 19.135192,38.396637 20.468750,38.468750 C 22.302279,38.559239 24.646697,38.031201 25.865486,39.745047 C 26.877808,41.479719 25.451556,43.620659 23.482315,43.570722 C 21.404165,43.857544 19.243923,43.460621 17.421163,42.419438 C 15.984425,42.118893 15.948861,43.765081 16.031250,44.745110 C 15.826318,46.020648 16.318508,47.354194 17.852778,47.371432 C 21.357133,48.337818 25.524735,48.489401 28.593750,46.250000 C 31.682445,43.886172 31.922363,38.281667 28.437500,36.156250 C 31.494755,34.196899 31.043702,29.175211 28.076536,27.334441 C 26.596555,26.295564 24.749239,25.934062 22.968750,25.937500 z M 39.562500,25.937500 C 37.437015,25.977902 35.312466,26.536494 33.402555,27.450417 C 32.694662,28.303053 33.113613,29.515177 33.000000,30.546130 C 32.959660,33.161125 35.759182,31.353400 37.032181,30.820644 C 38.705460,30.230657 41.283548,29.840607 42.237885,31.744445 C 42.956620,33.872647 40.980024,35.567954 39.710747,36.996496 C 37.501182,39.367341 35.042835,41.523818 32.928272,43.970114 C 32.802500,44.957769 32.782439,46.003717 32.931842,46.987246 C 33.483530,48.042590 34.821022,47.537092 35.776927,47.656250 C 39.340809,47.640671 42.907998,47.687420 46.469811,47.632857 C 47.758999,47.233236 47.235322,45.755527 47.343750,44.754323 C 47.577523,43.530920 46.277562,43.103329 45.292730,43.281250 C 43.434737,43.281250 41.576743,43.281250 39.718750,43.281250 C 42.045263,40.739086 44.906099,38.597371 46.541556,35.511159 C 48.187820,32.428771 46.890712,28.126662 43.595575,26.755710 C 42.341492,26.162721 40.941446,25.937224 39.562500,25.937500 z M 56.406250,26.281250 C 54.676611,26.643564 52.908796,26.899832 51.213960,27.388128 C 50.333384,28.142347 50.809491,29.417179 50.687500,30.439767 C 50.510880,31.700283 51.921293,31.966857 52.834978,31.586126 C 53.671235,31.422001 54.507493,31.257875 55.343750,31.093750 C 55.343750,35.156250 55.343750,39.218750 55.343750,43.281250 C 54.138734,43.322524 52.906881,43.198423 51.718750,43.343750 C 50.624958,43.906887 51.205318,45.250789 51.062500,46.220450 C 50.845790,47.430146 52.147140,47.826081 53.113520,47.656250 C 56.586043,47.640782 60.061854,47.687270 63.532311,47.632857 C 64.821499,47.233236 64.297822,45.755527 64.406250,44.754323 C 64.640023,43.530920 63.340062,43.103329 62.355230,43.281250 C 61.611820,43.281250 60.868410,43.281250 60.125000,43.281250 C 60.113664,37.917020 60.147664,32.551029 60.108016,27.187898 C 59.797183,25.901179 58.292775,26.367681 57.329436,26.281250 C 57.021708,26.281250 56.713979,26.281250 56.406250,26.281250 z "
       style="font-family:Bitstream Vera Sans;stroke-opacity:1.0000000;stroke-linejoin:round;stroke-linecap:round;stroke-width:2.2014027px;stroke:none;fill-opacity:1.0;fill:url(#linearGradient3927);opacity:1.0000000;font-weight:normal;font-style:normal;font-size:24.458008" />
  </g>
</svg>
