<?xml version="1.0" encoding="UTF-8" standalone="no"?>
<!-- Created with Inkscape (http://www.inkscape.org/) -->
<svg
   xmlns:dc="http://purl.org/dc/elements/1.1/"
   xmlns:cc="http://web.resource.org/cc/"
   xmlns:rdf="http://www.w3.org/1999/02/22-rdf-syntax-ns#"
   xmlns:svg="http://www.w3.org/2000/svg"
   xmlns="http://www.w3.org/2000/svg"
   xmlns:xlink="http://www.w3.org/1999/xlink"
   xmlns:sodipodi="http://inkscape.sourceforge.net/DTD/sodipodi-0.dtd"
   xmlns:inkscape="http://www.inkscape.org/namespaces/inkscape"
   inkscape:export-ydpi="36.000000"
   inkscape:export-xdpi="36.000000"
   inkscape:export-filename="/home/nuno/kdeplayground-artwork/oooicons/crystalsvg/db.png"
   sodipodi:docname="dbindexdesign.svg"
   sodipodi:docbase="/home/pinheiro/kdeplayground-artwork/oooicons/crystalsvg"
   inkscape:version="0.41"
   sodipodi:version="0.32"
   id="svg19592"
   height="64pt"
   width="64pt">
  <defs
     id="defs3">
    <linearGradient
       id="light100to0">
      <stop
         style="stop-color:#ffffff;stop-opacity:1.0000000;"
         offset="0.0000000"
         id="stop2764" />
      <stop
         style="stop-color:#ffffff;stop-opacity:0.0000000;"
         offset="1.0000000"
         id="stop2765" />
    </linearGradient>
    <linearGradient
       inkscape:collect="always"
       xlink:href="#light100to0"
       id="linearGradient7055"
       gradientUnits="userSpaceOnUse"
       gradientTransform="matrix(-0.730798,3.179337e-3,-9.251311e-3,0.762972,37.47431,-10.27083)"
       x1="-67.228615"
       y1="12.169693"
       x2="-32.336327"
       y2="44.098660" />
    <linearGradient
       inkscape:collect="always"
       xlink:href="#linearGradient5201"
       id="linearGradient7115"
       gradientUnits="userSpaceOnUse"
       gradientTransform="scale(0.373878,2.674669)"
       x1="77.009377"
       y1="13.491262"
       x2="69.161827"
       y2="0.57959992" />
    <linearGradient
       inkscape:collect="always"
       xlink:href="#linearGradient5201"
       id="linearGradient7113"
       gradientUnits="userSpaceOnUse"
       gradientTransform="scale(0.373878,2.674669)"
       x1="77.009377"
       y1="13.491262"
       x2="69.161827"
       y2="0.57959992" />
    <linearGradient
       inkscape:collect="always"
       xlink:href="#linearGradient5201"
       id="linearGradient7111"
       gradientUnits="userSpaceOnUse"
       gradientTransform="scale(0.373878,2.674669)"
       x1="77.009377"
       y1="13.491262"
       x2="69.161827"
       y2="0.57959992" />
    <linearGradient
       inkscape:collect="always"
       xlink:href="#linearGradient5201"
       id="linearGradient7109"
       gradientUnits="userSpaceOnUse"
       gradientTransform="scale(0.373878,2.674669)"
       x1="77.009377"
       y1="13.491262"
       x2="69.161827"
       y2="0.57959992" />
    <linearGradient
       inkscape:collect="always"
       xlink:href="#linearGradient5201"
       id="linearGradient7107"
       gradientUnits="userSpaceOnUse"
       gradientTransform="scale(0.373878,2.674669)"
       x1="77.009377"
       y1="13.491262"
       x2="69.161827"
       y2="0.57959992" />
    <linearGradient
       inkscape:collect="always"
       xlink:href="#linearGradient5201"
       id="linearGradient7105"
       gradientUnits="userSpaceOnUse"
       gradientTransform="scale(0.373878,2.674669)"
       x1="77.009377"
       y1="13.491262"
       x2="69.161827"
       y2="0.57959992" />
    <linearGradient
       inkscape:collect="always"
       xlink:href="#linearGradient5201"
       id="linearGradient7103"
       gradientUnits="userSpaceOnUse"
       gradientTransform="scale(0.373878,2.674669)"
       x1="77.009377"
       y1="13.491262"
       x2="69.161827"
       y2="0.57959992" />
    <linearGradient
       inkscape:collect="always"
       xlink:href="#linearGradient5201"
       id="linearGradient7101"
       gradientUnits="userSpaceOnUse"
       gradientTransform="scale(0.373878,2.674669)"
       x1="77.009377"
       y1="13.491262"
       x2="69.161827"
       y2="0.57959992" />
    <linearGradient
       inkscape:collect="always"
       xlink:href="#linearGradient5201"
       id="linearGradient7099"
       gradientUnits="userSpaceOnUse"
       gradientTransform="scale(0.373878,2.674669)"
       x1="77.009377"
       y1="13.491262"
       x2="69.161827"
       y2="0.57959992" />
    <linearGradient
       inkscape:collect="always"
       xlink:href="#linearGradient5201"
       id="linearGradient7097"
       gradientUnits="userSpaceOnUse"
       gradientTransform="scale(0.373878,2.674669)"
       x1="77.009377"
       y1="13.491262"
       x2="69.161827"
       y2="0.57959992" />
    <linearGradient
       inkscape:collect="always"
       xlink:href="#linearGradient5201"
       id="linearGradient7095"
       gradientUnits="userSpaceOnUse"
       gradientTransform="scale(0.373878,2.674669)"
       x1="77.009377"
       y1="13.491262"
       x2="69.161827"
       y2="0.57959992" />
    <linearGradient
       inkscape:collect="always"
       xlink:href="#linearGradient5201"
       id="linearGradient7093"
       gradientUnits="userSpaceOnUse"
       gradientTransform="scale(0.373878,2.674669)"
       x1="77.009377"
       y1="13.491262"
       x2="69.161827"
       y2="0.57959992" />
    <linearGradient
       inkscape:collect="always"
       xlink:href="#linearGradient5201"
       id="linearGradient7091"
       gradientUnits="userSpaceOnUse"
       gradientTransform="scale(0.373878,2.674669)"
       x1="77.009377"
       y1="13.491262"
       x2="69.161827"
       y2="0.57959992" />
    <linearGradient
       inkscape:collect="always"
       xlink:href="#linearGradient5201"
       id="linearGradient7089"
       gradientUnits="userSpaceOnUse"
       gradientTransform="scale(0.373878,2.674669)"
       x1="77.009377"
       y1="13.491262"
       x2="69.161827"
       y2="0.57959992" />
    <linearGradient
       inkscape:collect="always"
       xlink:href="#linearGradient5201"
       id="linearGradient7087"
       gradientUnits="userSpaceOnUse"
       gradientTransform="scale(0.373878,2.674669)"
       x1="77.009377"
       y1="13.491262"
       x2="69.161827"
       y2="0.57959992" />
    <linearGradient
       id="linearGradient5201">
      <stop
         id="stop5203"
         offset="0.0000000"
         style="stop-color:#7d7d7d;stop-opacity:1.0000000;" />
      <stop
         id="stop5205"
         offset="1.0000000"
         style="stop-color:#000000;stop-opacity:1.0000000;" />
    </linearGradient>
    <linearGradient
       inkscape:collect="always"
       xlink:href="#linearGradient5201"
       id="linearGradient6110"
       gradientTransform="scale(0.373878,2.674669)"
       x1="77.009377"
       y1="13.491262"
       x2="69.161827"
       y2="0.57959992"
       gradientUnits="userSpaceOnUse" />
    <linearGradient
       inkscape:collect="always"
       xlink:href="#linearGradient5170"
       id="linearGradient7076"
       gradientUnits="userSpaceOnUse"
       gradientTransform="matrix(-1.009281,4.392021e-3,-1.011067e-2,0.833845,110.5552,3.835302)"
       x1="64.388252"
       y1="36.941799"
       x2="-66.785156"
       y2="-85.453560" />
    <linearGradient
       id="linearGradient5170">
      <stop
         style="stop-color:#8f8fa6;stop-opacity:1.0000000;"
         offset="0.0000000"
         id="stop5171" />
      <stop
         style="stop-color:#ffffff;stop-opacity:1.0000000;"
         offset="1.0000000"
         id="stop5172" />
    </linearGradient>
    <linearGradient
       inkscape:collect="always"
       xlink:href="#linearGradient5170"
       id="linearGradient7074"
       gradientUnits="userSpaceOnUse"
       gradientTransform="matrix(-0.821516,3.574233e-3,-8.229845e-3,0.678719,36.82356,-9.945584)"
       spreadMethod="reflect"
       x1="-19.521343"
       y1="56.793480"
       x2="-35.506561"
       y2="34.489105" />
    <linearGradient
       id="light75to0">
      <stop
         id="stop2769"
         offset="0.0000000"
         style="stop-color:#ffffff;stop-opacity:0.72916669;" />
      <stop
         id="stop2770"
         offset="1.0000000"
         style="stop-color:#ffffff;stop-opacity:0.0000000;" />
    </linearGradient>
    <linearGradient
       gradientUnits="userSpaceOnUse"
       y2="189.94398"
       x2="414.83224"
       y1="148.64583"
       x1="406.16541"
       gradientTransform="scale(0.526614,1.898924)"
       id="linearGradient15758"
       xlink:href="#light75to0"
       inkscape:collect="always" />
    <linearGradient
       y2="470.93375"
       x2="180.75517"
       y1="408.28738"
       x1="130.60602"
       gradientTransform="scale(1.729412,0.578231)"
       gradientUnits="userSpaceOnUse"
       id="linearGradient15129"
       xlink:href="#graytolightgray"
       inkscape:collect="always" />
    <linearGradient
       y2="368.52307"
       x2="166.65126"
       y1="278.92441"
       x1="142.19385"
       gradientTransform="matrix(1.494665,0.000000,0.000000,0.470262,21.13456,163.2076)"
       gradientUnits="userSpaceOnUse"
       id="linearGradient15130"
       xlink:href="#blacktowhite"
       inkscape:collect="always" />
    <linearGradient
       y2="39.269283"
       x2="46.346687"
       y1="88.576233"
       x1="8.4329405"
       gradientTransform="scale(1.436842,0.695971)"
       gradientUnits="userSpaceOnUse"
       id="linearGradient15128"
       xlink:href="#graytolightgray"
       inkscape:collect="always" />
    <linearGradient
       y2="81.484245"
       x2="147.05203"
       y1="140.27173"
       x1="232.27733"
       gradientTransform="matrix(1.337508,0.000000,0.000000,0.525518,9.323765,244.4874)"
       gradientUnits="userSpaceOnUse"
       id="linearGradient15127"
       xlink:href="#blacktowhite"
       inkscape:collect="always" />
    <linearGradient
       y2="205.96529"
       x2="123.30837"
       y1="206.53716"
       x1="253.08090"
       gradientTransform="matrix(1.494665,0.000000,0.000000,0.470262,13.18526,232.9367)"
       gradientUnits="userSpaceOnUse"
       id="linearGradient15126"
       xlink:href="#blacktowhite"
       inkscape:collect="always" />
    <linearGradient
       y2="368.52307"
       x2="166.65126"
       y1="278.92441"
       x1="142.19385"
       gradientTransform="matrix(1.494665,0.000000,0.000000,0.470262,21.13456,163.2076)"
       gradientUnits="userSpaceOnUse"
       id="linearGradient15118"
       xlink:href="#blacktowhite"
       inkscape:collect="always" />
    <linearGradient
       y2="109.89973"
       x2="216.75711"
       y1="111.26886"
       x1="133.23598"
       gradientTransform="matrix(1.435849,0.000000,0.000000,0.489525,9.323765,244.4874)"
       gradientUnits="userSpaceOnUse"
       id="linearGradient15117"
       xlink:href="#graytolightgray"
       inkscape:collect="always" />
    <linearGradient
       y2="75.553932"
       x2="59.273689"
       y1="75.553932"
       x1="-0.36880860"
       gradientTransform="scale(1.436842,0.695971)"
       gradientUnits="userSpaceOnUse"
       id="linearGradient15116"
       xlink:href="#graytolightgray"
       inkscape:collect="always" />
    <linearGradient
       y2="81.484245"
       x2="147.05203"
       y1="140.27173"
       x1="232.27733"
       gradientTransform="matrix(1.337508,0.000000,0.000000,0.525518,9.323765,244.4874)"
       gradientUnits="userSpaceOnUse"
       id="linearGradient15115"
       xlink:href="#blacktowhite"
       inkscape:collect="always" />
    <linearGradient
       y2="205.96529"
       x2="123.30837"
       y1="206.53716"
       x1="253.08090"
       gradientTransform="matrix(1.494665,0.000000,0.000000,0.470262,13.18526,232.9367)"
       gradientUnits="userSpaceOnUse"
       id="linearGradient15114"
       xlink:href="#blacktowhite"
       inkscape:collect="always" />
    <linearGradient
       y2="368.52307"
       x2="166.65126"
       y1="278.92441"
       x1="142.19385"
       gradientTransform="matrix(1.494665,0.000000,0.000000,0.470262,21.13456,163.2076)"
       gradientUnits="userSpaceOnUse"
       id="linearGradient15095"
       xlink:href="#blacktowhite"
       inkscape:collect="always" />
    <linearGradient
       y2="109.89973"
       x2="216.75711"
       y1="111.26886"
       x1="133.23598"
       gradientTransform="matrix(1.435849,0.000000,0.000000,0.489525,9.323765,244.4874)"
       gradientUnits="userSpaceOnUse"
       id="linearGradient15096"
       xlink:href="#graytolightgray"
       inkscape:collect="always" />
    <linearGradient
       id="graytolightgray">
      <stop
         id="stop5101"
         offset="0.0000000"
         style="stop-color:#d4d3d3;stop-opacity:1.0000000;" />
      <stop
         id="stop5102"
         offset="1.0000000"
         style="stop-color:#ffffff;stop-opacity:1.0000000;" />
    </linearGradient>
    <linearGradient
       y2="75.553932"
       x2="59.273689"
       y1="75.553932"
       x1="-0.36880860"
       gradientTransform="scale(1.436842,0.695971)"
       gradientUnits="userSpaceOnUse"
       id="linearGradient15097"
       xlink:href="#graytolightgray"
       inkscape:collect="always" />
    <linearGradient
       y2="81.484245"
       x2="147.05203"
       y1="140.27173"
       x1="232.27733"
       gradientTransform="matrix(1.337508,0.000000,0.000000,0.525518,9.323765,244.4874)"
       gradientUnits="userSpaceOnUse"
       id="linearGradient15098"
       xlink:href="#blacktowhite"
       inkscape:collect="always" />
    <linearGradient
       id="blacktowhite">
      <stop
         id="stop2476"
         offset="0.0000000"
         style="stop-color:#000000;stop-opacity:1.0000000;" />
      <stop
         id="stop2475"
         offset="1.0000000"
         style="stop-color:#ffffff;stop-opacity:1.0000000;" />
    </linearGradient>
    <linearGradient
       y2="205.96529"
       x2="123.30837"
       y1="206.53716"
       x1="253.08090"
       gradientTransform="matrix(1.494665,0.000000,0.000000,0.470262,13.18526,232.9367)"
       gradientUnits="userSpaceOnUse"
       id="linearGradient15099"
       xlink:href="#blacktowhite"
       inkscape:collect="always" />
    <linearGradient
       y2="205.96529"
       x2="123.30837"
       y1="206.53716"
       x1="253.08090"
       gradientTransform="matrix(1.494665,0.000000,0.000000,0.470262,13.18526,232.9367)"
       gradientUnits="userSpaceOnUse"
       id="linearGradient19716"
       xlink:href="#blacktowhite"
       inkscape:collect="always" />
    <linearGradient
       y2="81.484245"
       x2="147.05203"
       y1="140.27173"
       x1="232.27733"
       gradientTransform="matrix(1.337508,0.000000,0.000000,0.525518,9.323765,244.4874)"
       gradientUnits="userSpaceOnUse"
       id="linearGradient19717"
       xlink:href="#blacktowhite"
       inkscape:collect="always" />
    <linearGradient
       y2="75.553932"
       x2="59.273689"
       y1="75.553932"
       x1="-0.36880860"
       gradientTransform="scale(1.436842,0.695971)"
       gradientUnits="userSpaceOnUse"
       id="linearGradient19718"
       xlink:href="#graytolightgray"
       inkscape:collect="always" />
    <linearGradient
       y2="109.89973"
       x2="216.75711"
       y1="111.26886"
       x1="133.23598"
       gradientTransform="matrix(1.435849,0.000000,0.000000,0.489525,9.323765,244.4874)"
       gradientUnits="userSpaceOnUse"
       id="linearGradient19719"
       xlink:href="#graytolightgray"
       inkscape:collect="always" />
    <linearGradient
       y2="368.52307"
       x2="166.65126"
       y1="278.92441"
       x1="142.19385"
       gradientTransform="matrix(1.494665,0.000000,0.000000,0.470262,21.13456,163.2076)"
       gradientUnits="userSpaceOnUse"
       id="linearGradient19720"
       xlink:href="#blacktowhite"
       inkscape:collect="always" />
    <linearGradient
       y2="205.96529"
       x2="123.30837"
       y1="206.53716"
       x1="253.08090"
       gradientTransform="matrix(1.494665,0.000000,0.000000,0.470262,13.18526,232.9367)"
       gradientUnits="userSpaceOnUse"
       id="linearGradient19721"
       xlink:href="#blacktowhite"
       inkscape:collect="always" />
    <linearGradient
       y2="81.484245"
       x2="147.05203"
       y1="140.27173"
       x1="232.27733"
       gradientTransform="matrix(1.337508,0.000000,0.000000,0.525518,9.323765,244.4874)"
       gradientUnits="userSpaceOnUse"
       id="linearGradient19722"
       xlink:href="#blacktowhite"
       inkscape:collect="always" />
    <linearGradient
       y2="75.553932"
       x2="59.273689"
       y1="75.553932"
       x1="-0.36880860"
       gradientTransform="scale(1.436842,0.695971)"
       gradientUnits="userSpaceOnUse"
       id="linearGradient19723"
       xlink:href="#graytolightgray"
       inkscape:collect="always" />
    <linearGradient
       y2="109.89973"
       x2="216.75711"
       y1="111.26886"
       x1="133.23598"
       gradientTransform="matrix(1.435849,0.000000,0.000000,0.489525,9.323765,244.4874)"
       gradientUnits="userSpaceOnUse"
       id="linearGradient19724"
       xlink:href="#graytolightgray"
       inkscape:collect="always" />
    <linearGradient
       y2="368.52307"
       x2="166.65126"
       y1="278.92441"
       x1="142.19385"
       gradientTransform="matrix(1.494665,0.000000,0.000000,0.470262,21.13456,163.2076)"
       gradientUnits="userSpaceOnUse"
       id="linearGradient19725"
       xlink:href="#blacktowhite"
       inkscape:collect="always" />
    <linearGradient
       y2="205.96529"
       x2="123.30837"
       y1="206.53716"
       x1="253.08090"
       gradientTransform="matrix(1.494665,0.000000,0.000000,0.470262,13.18526,232.9367)"
       gradientUnits="userSpaceOnUse"
       id="linearGradient19726"
       xlink:href="#blacktowhite"
       inkscape:collect="always" />
    <linearGradient
       y2="81.484245"
       x2="147.05203"
       y1="140.27173"
       x1="232.27733"
       gradientTransform="matrix(1.337508,0.000000,0.000000,0.525518,9.323765,244.4874)"
       gradientUnits="userSpaceOnUse"
       id="linearGradient19727"
       xlink:href="#blacktowhite"
       inkscape:collect="always" />
    <linearGradient
       y2="39.269283"
       x2="46.346687"
       y1="88.576233"
       x1="8.4329405"
       gradientTransform="scale(1.436842,0.695971)"
       gradientUnits="userSpaceOnUse"
       id="linearGradient19728"
       xlink:href="#graytolightgray"
       inkscape:collect="always" />
    <linearGradient
       y2="368.52307"
       x2="166.65126"
       y1="278.92441"
       x1="142.19385"
       gradientTransform="matrix(1.494665,0.000000,0.000000,0.470262,21.13456,163.2076)"
       gradientUnits="userSpaceOnUse"
       id="linearGradient19729"
       xlink:href="#blacktowhite"
       inkscape:collect="always" />
    <linearGradient
       y2="470.93375"
       x2="180.75517"
       y1="408.28738"
       x1="130.60602"
       gradientTransform="scale(1.729412,0.578231)"
       gradientUnits="userSpaceOnUse"
       id="linearGradient19730"
       xlink:href="#graytolightgray"
       inkscape:collect="always" />
    <linearGradient
       y2="189.94398"
       x2="414.83224"
       y1="148.64583"
       x1="406.16541"
       gradientTransform="scale(0.526614,1.898924)"
       gradientUnits="userSpaceOnUse"
       id="linearGradient19731"
       xlink:href="#light75to0"
       inkscape:collect="always" />
    <linearGradient
       gradientUnits="userSpaceOnUse"
       y2="17.407320"
       x2="179.82318"
       y1="17.297279"
       x1="196.40405"
       gradientTransform="scale(0.394750,2.533248)"
       id="linearGradient21648"
       xlink:href="#light75to0"
       inkscape:collect="always" />
  </defs>
  <sodipodi:namedview
     inkscape:window-y="25"
     inkscape:window-x="0"
     inkscape:window-height="590"
     inkscape:window-width="952"
     gridoriginx="0.0000000pt"
     gridoriginy="0.0000000pt"
     gridspacingx="1.0000000pt"
     gridspacingy="1.0000000pt"
     inkscape:grid-bbox="false"
     showgrid="false"
     inkscape:current-layer="layer1"
     inkscape:cy="40.000000"
     inkscape:cx="40.000000"
     inkscape:zoom="5.2000000"
     inkscape:pageshadow="2"
     inkscape:pageopacity="0.0"
     borderopacity="1.0"
     bordercolor="#666666"
     pagecolor="#ffffff"
     id="base" />
  <metadata
     id="metadata4">
    <rdf:RDF
       id="RDF5">
      <cc:Work
         id="Work6"
         rdf:about="">
        <dc:format
           id="format7">image/svg+xml</dc:format>
        <dc:type
           rdf:resource="http://purl.org/dc/dcmitype/StillImage"
           id="type9" />
      </cc:Work>
    </rdf:RDF>
  </metadata>
  <g
     inkscape:groupmode="layer"
     inkscape:label="Layer 1"
     id="layer1">
    <g
       transform="translate(-3.653846,-4.807692)"
       id="g21649">
      <path
         transform="matrix(0.551307,0.000000,0.000000,0.559005,-102.8460,-121.9196)"
         sodipodi:nodetypes="cccccccccccccc"
         id="path19591"
         d="M 260.29533,227.71408 C 240.02933,227.84036 218.31699,231.30576 203.33575,241.72453 C 196.63509,246.43147 193.44553,254.01296 193.59140,258.94297 C 194.03575,261.03349 192.71241,322.29849 194.87355,328.89701 C 197.29982,333.60352 202.21157,337.14302 207.88738,339.99406 L 207.88738,340.28868 C 208.81887,340.69882 209.74460,340.95480 210.67607,341.33619 C 213.74446,342.68490 216.90192,343.92164 220.09988,344.90428 C 242.54067,351.12382 267.90194,351.76200 291.03491,347.16298 C 304.23999,344.13194 318.94708,339.56539 324.88370,329.84632 C 328.14657,324.39893 326.28202,269.18073 326.74281,264.47513 C 326.49236,251.14450 325.37770,249.16768 321.35778,245.35807 C 310.30063,234.28845 290.72402,229.82431 272.70013,228.20510 C 268.57811,227.86953 264.44340,227.71417 260.29533,227.71408 z "
         style="fill:#818080;fill-opacity:0.14999999;stroke:none;stroke-width:3.7750001;stroke-linecap:butt;stroke-linejoin:round;stroke-miterlimit:4.0000000;stroke-dashoffset:0.0000000;stroke-opacity:1.0000000" />
      <path
         transform="matrix(0.551307,0.000000,0.000000,0.559005,-102.8460,-121.9196)"
         sodipodi:nodetypes="cccccccccccccc"
         id="path18878"
         d="M 260.51765,226.38708 C 239.91535,226.51655 217.84271,230.06959 202.61287,240.75181 C 195.80101,245.57778 192.55853,253.35097 192.70682,258.40565 C 193.15854,260.54903 191.81324,323.36321 194.01024,330.12858 C 196.47677,334.95411 201.47004,338.58311 207.24003,341.50624 L 207.24003,341.80831 C 208.18697,342.22882 209.12807,342.49128 210.07499,342.88231 C 213.19430,344.26512 216.40416,345.53314 219.65519,346.54063 C 242.46837,352.91743 268.25049,353.57175 291.76734,348.85643 C 305.19156,345.74876 320.14270,341.06673 326.17783,331.10190 C 329.49485,325.51676 327.59936,268.90228 328.06780,264.07770 C 327.81318,250.40998 326.68003,248.38317 322.59340,244.47723 C 311.35277,233.12770 291.45129,228.55067 273.12830,226.89053 C 268.93788,226.54647 264.73457,226.38718 260.51765,226.38708 z "
         style="fill:#818783;fill-opacity:0.14999999;stroke:none;stroke-width:3.7750001;stroke-linecap:butt;stroke-linejoin:round;stroke-miterlimit:4.0000000;stroke-dashoffset:0.0000000;stroke-opacity:1.0000000" />
      <g
         transform="matrix(0.551307,0.000000,0.000000,0.559005,-102.8460,-121.9196)"
         id="g15100">
        <path
           sodipodi:nodetypes="ccccccccccc"
           id="path15089"
           d="M 260.89731,275.58006 C 241.13951,275.70061 219.98621,279.00195 205.38065,288.94817 C 198.84802,293.44162 195.74351,300.68155 195.88573,305.38797 C 196.37338,307.63451 195.03218,319.90232 197.13913,326.20157 C 201.11293,333.74969 211.62472,338.43742 221.72805,341.47725 C 243.60613,347.41471 268.32266,348.03439 290.87554,343.64394 C 303.74951,340.75039 318.09671,336.38088 323.88446,327.10262 C 327.06553,321.90229 325.14301,316.14062 325.69067,310.66416 C 325.44649,297.93814 324.34757,296.07382 320.42845,292.43700 C 309.64859,281.86942 290.57648,277.60212 273.00457,276.05634 C 268.98591,275.73600 264.94138,275.58015 260.89731,275.58006 z "
           style="fill:#818783;fill-opacity:1.0000000;stroke:none;stroke-width:3.7750001;stroke-linecap:butt;stroke-linejoin:round;stroke-miterlimit:4.0000000;stroke-dashoffset:0.0000000;stroke-opacity:1.0000000" />
        <path
           sodipodi:nodetypes="ccccccccccc"
           id="path15090"
           d="M 322.86327,303.43886 C 322.66933,312.00786 311.36739,318.32370 300.23827,321.73582 C 277.28351,328.67288 249.92978,328.99479 226.26952,323.31731 C 215.00934,320.51890 203.72644,315.66037 199.48827,308.02958 C 198.92193,306.04909 198.05468,304.99043 198.42577,307.74403 C 198.30523,310.28607 198.10433,312.97324 198.42577,315.58558 C 198.15301,320.58951 198.12151,325.89881 203.42577,329.88488 C 213.69549,338.59716 230.88868,342.29722 247.08202,343.74488 C 268.91582,345.52090 292.67031,343.34350 310.61327,334.62935 C 318.30952,330.78506 323.73700,324.66963 322.70702,318.24336 C 322.79120,315.18170 322.75484,305.93593 322.86327,303.43886 z "
           style="fill:url(#linearGradient15099);fill-opacity:1.0000000;stroke:none;stroke-width:3.7750001;stroke-linecap:butt;stroke-linejoin:round;stroke-miterlimit:4.0000000;stroke-dashoffset:0.0000000;stroke-opacity:1.0000000" />
        <path
           sodipodi:nodetypes="cccccccccc"
           id="path15091"
           d="M 261.14326,279.73105 C 230.02641,279.73105 204.76801,289.65228 204.76801,301.88137 C 204.76801,314.11047 230.02641,324.03169 261.14326,324.03169 C 292.26012,324.03169 317.51852,314.11047 317.51852,301.88137 C 317.51852,289.65228 292.26012,279.73105 261.14326,279.73105 z M 261.39592,285.53916 C 290.46859,285.53916 314.07600,293.53629 314.07600,303.38309 C 314.07600,313.22989 290.46860,321.22702 261.39592,321.22702 C 232.32324,321.22702 208.71585,313.22989 208.71585,303.38309 C 208.71585,293.53628 232.32325,285.53916 261.39592,285.53916 z "
           style="fill:url(#linearGradient15098);fill-opacity:1.0000000;stroke:none;stroke-width:3.7724271;stroke-linecap:butt;stroke-linejoin:round;stroke-miterlimit:4.0000000;stroke-dashoffset:0.0000000;stroke-opacity:1.0000000" />
        <path
           transform="matrix(1.005132,0.000000,0.000000,0.757545,226.8913,264.6372)"
           d="M 85.497787 50.922665 A 52.112938 25.242205 0 1 1  -18.728088,50.922665 A 52.112938 25.242205 0 1 1  85.497787 50.922665 z"
           sodipodi:ry="25.242205"
           sodipodi:rx="52.112938"
           sodipodi:cy="50.922665"
           sodipodi:cx="33.384850"
           id="path15092"
           style="fill:url(#linearGradient15097);fill-opacity:1.0000000;stroke:none;stroke-width:3.7724271;stroke-linecap:butt;stroke-linejoin:round;stroke-miterlimit:4.0000000;stroke-dashoffset:0.0000000;stroke-opacity:1.0000000"
           sodipodi:type="arc" />
        <path
           id="path15093"
           d="M 260.59237,276.50373 C 226.70391,276.50373 199.20848,287.90251 199.20848,301.96132 C 199.20848,316.02011 226.70391,327.44087 260.59237,327.44087 C 294.48082,327.44087 321.97626,316.02011 321.97626,301.96132 C 321.97626,287.90252 294.48083,276.50373 260.59237,276.50373 z M 260.74840,279.86439 C 291.49489,279.86439 316.45265,289.73219 316.45265,301.89542 C 316.45265,314.05866 291.49489,323.92645 260.74840,323.92645 C 230.00192,323.92645 205.04416,314.05866 205.04416,301.89542 C 205.04416,289.73219 230.00192,279.86439 260.74840,279.86439 z "
           style="fill:url(#linearGradient15096);fill-opacity:1.0000000;stroke:none;stroke-width:3.7724271;stroke-linecap:butt;stroke-linejoin:round;stroke-miterlimit:4.0000000;stroke-dashoffset:0.0000000;stroke-opacity:1.0000000" />
        <path
           sodipodi:nodetypes="ccccccccc"
           id="path15094"
           d="M 322.82693,302.26246 C 322.33964,310.10980 311.62440,317.35349 300.49528,320.76561 C 277.54052,327.70267 249.89344,327.81839 226.23318,322.14091 C 214.97300,319.34250 203.15196,316.39168 198.38943,302.23761 C 198.34182,303.96329 198.26927,304.50510 198.24276,305.02541 C 201.96114,318.54480 216.37022,321.55129 227.63040,324.34970 C 251.29066,330.02718 278.79107,329.29289 301.74583,322.35583 C 312.76575,318.97719 322.06426,311.20585 322.76443,305.34217 C 322.77669,303.59414 322.79154,303.07754 322.82693,302.26246 z "
           style="fill:url(#linearGradient15095);fill-opacity:1.0000000;stroke:none;stroke-width:3.7750001;stroke-linecap:butt;stroke-linejoin:round;stroke-miterlimit:4.0000000;stroke-dashoffset:0.0000000;stroke-opacity:1.0000000" />
      </g>
      <g
         transform="matrix(0.551307,0.000000,0.000000,0.559005,-102.8460,-134.7683)"
         id="g15107">
        <path
           sodipodi:nodetypes="ccccccccccc"
           id="path15108"
           d="M 260.89731,275.58006 C 241.13951,275.70061 219.98621,279.00195 205.38065,288.94817 C 198.84802,293.44162 195.74351,300.68155 195.88573,305.38797 C 196.37338,307.63451 195.03218,319.90232 197.13913,326.20157 C 201.11293,333.74969 211.62472,338.43742 221.72805,341.47725 C 243.60613,347.41471 268.32266,348.03439 290.87554,343.64394 C 303.74951,340.75039 318.09671,336.38088 323.88446,327.10262 C 327.06553,321.90229 325.14301,316.14062 325.69067,310.66416 C 325.44649,297.93814 324.34757,296.07382 320.42845,292.43700 C 309.64859,281.86942 290.57648,277.60212 273.00457,276.05634 C 268.98591,275.73600 264.94138,275.58015 260.89731,275.58006 z "
           style="fill:#818783;fill-opacity:1.0000000;stroke:none;stroke-width:3.7750001;stroke-linecap:butt;stroke-linejoin:round;stroke-miterlimit:4.0000000;stroke-dashoffset:0.0000000;stroke-opacity:1.0000000" />
        <path
           sodipodi:nodetypes="ccccccccccc"
           id="path15109"
           d="M 322.86327,303.43886 C 322.66933,312.00786 311.36739,318.32370 300.23827,321.73582 C 277.28351,328.67288 249.92978,328.99479 226.26952,323.31731 C 215.00934,320.51890 203.72644,315.66037 199.48827,308.02958 C 198.92193,306.04909 198.05468,304.99043 198.42577,307.74403 C 198.30523,310.28607 198.10433,312.97324 198.42577,315.58558 C 198.15301,320.58951 198.12151,325.89881 203.42577,329.88488 C 213.69549,338.59716 230.88868,342.29722 247.08202,343.74488 C 268.91582,345.52090 292.67031,343.34350 310.61327,334.62935 C 318.30952,330.78506 323.73700,324.66963 322.70702,318.24336 C 322.79120,315.18170 322.75484,305.93593 322.86327,303.43886 z "
           style="fill:url(#linearGradient15114);fill-opacity:1.0000000;stroke:none;stroke-width:3.7750001;stroke-linecap:butt;stroke-linejoin:round;stroke-miterlimit:4.0000000;stroke-dashoffset:0.0000000;stroke-opacity:1.0000000" />
        <path
           sodipodi:nodetypes="cccccccccc"
           id="path15110"
           d="M 261.14326,279.73105 C 230.02641,279.73105 204.76801,289.65228 204.76801,301.88137 C 204.76801,314.11047 230.02641,324.03169 261.14326,324.03169 C 292.26012,324.03169 317.51852,314.11047 317.51852,301.88137 C 317.51852,289.65228 292.26012,279.73105 261.14326,279.73105 z M 261.39592,285.53916 C 290.46859,285.53916 314.07600,293.53629 314.07600,303.38309 C 314.07600,313.22989 290.46860,321.22702 261.39592,321.22702 C 232.32324,321.22702 208.71585,313.22989 208.71585,303.38309 C 208.71585,293.53628 232.32325,285.53916 261.39592,285.53916 z "
           style="fill:url(#linearGradient15115);fill-opacity:1.0000000;stroke:none;stroke-width:3.7724271;stroke-linecap:butt;stroke-linejoin:round;stroke-miterlimit:4.0000000;stroke-dashoffset:0.0000000;stroke-opacity:1.0000000" />
        <path
           transform="matrix(1.005132,0.000000,0.000000,0.757545,226.8913,264.6372)"
           d="M 85.497787 50.922665 A 52.112938 25.242205 0 1 1  -18.728088,50.922665 A 52.112938 25.242205 0 1 1  85.497787 50.922665 z"
           sodipodi:ry="25.242205"
           sodipodi:rx="52.112938"
           sodipodi:cy="50.922665"
           sodipodi:cx="33.384850"
           id="path15111"
           style="fill:url(#linearGradient15116);fill-opacity:1.0000000;stroke:none;stroke-width:3.7724271;stroke-linecap:butt;stroke-linejoin:round;stroke-miterlimit:4.0000000;stroke-dashoffset:0.0000000;stroke-opacity:1.0000000"
           sodipodi:type="arc" />
        <path
           id="path15112"
           d="M 260.59237,276.50373 C 226.70391,276.50373 199.20848,287.90251 199.20848,301.96132 C 199.20848,316.02011 226.70391,327.44087 260.59237,327.44087 C 294.48082,327.44087 321.97626,316.02011 321.97626,301.96132 C 321.97626,287.90252 294.48083,276.50373 260.59237,276.50373 z M 260.74840,279.86439 C 291.49489,279.86439 316.45265,289.73219 316.45265,301.89542 C 316.45265,314.05866 291.49489,323.92645 260.74840,323.92645 C 230.00192,323.92645 205.04416,314.05866 205.04416,301.89542 C 205.04416,289.73219 230.00192,279.86439 260.74840,279.86439 z "
           style="fill:url(#linearGradient15117);fill-opacity:1.0000000;stroke:none;stroke-width:3.7724271;stroke-linecap:butt;stroke-linejoin:round;stroke-miterlimit:4.0000000;stroke-dashoffset:0.0000000;stroke-opacity:1.0000000" />
        <path
           sodipodi:nodetypes="ccccccccc"
           id="path15113"
           d="M 322.82693,302.26246 C 322.33964,310.10980 311.62440,317.35349 300.49528,320.76561 C 277.54052,327.70267 249.89344,327.81839 226.23318,322.14091 C 214.97300,319.34250 203.15196,316.39168 198.38943,302.23761 C 198.34182,303.96329 198.26927,304.50510 198.24276,305.02541 C 201.96114,318.54480 216.37022,321.55129 227.63040,324.34970 C 251.29066,330.02718 278.79107,329.29289 301.74583,322.35583 C 312.76575,318.97719 322.06426,311.20585 322.76443,305.34217 C 322.77669,303.59414 322.79154,303.07754 322.82693,302.26246 z "
           style="fill:url(#linearGradient15118);fill-opacity:1.0000000;stroke:none;stroke-width:3.7750001;stroke-linecap:butt;stroke-linejoin:round;stroke-miterlimit:4.0000000;stroke-dashoffset:0.0000000;stroke-opacity:1.0000000" />
      </g>
      <path
         transform="matrix(0.551307,0.000000,0.000000,0.559005,-102.8460,-147.6169)"
         sodipodi:nodetypes="ccccccccccc"
         id="path15120"
         d="M 260.89731,275.58006 C 241.13951,275.70061 219.98621,279.00195 205.38065,288.94817 C 198.84802,293.44162 195.74351,300.68155 195.88573,305.38797 C 196.37338,307.63451 195.03218,319.90232 197.13913,326.20157 C 201.11293,333.74969 211.62472,338.43742 221.72805,341.47725 C 243.60613,347.41471 268.32266,348.03439 290.87554,343.64394 C 303.74951,340.75039 318.09671,336.38088 323.88446,327.10262 C 327.06553,321.90229 325.14301,316.14062 325.69067,310.66416 C 325.44649,297.93814 324.34757,296.07382 320.42845,292.43700 C 309.64859,281.86942 290.57648,277.60212 273.00457,276.05634 C 268.98591,275.73600 264.94138,275.58015 260.89731,275.58006 z "
         style="fill:#818783;fill-opacity:1.0000000;stroke:none;stroke-width:3.7750001;stroke-linecap:butt;stroke-linejoin:round;stroke-miterlimit:4.0000000;stroke-dashoffset:0.0000000;stroke-opacity:1.0000000" />
      <path
         transform="matrix(0.551307,0.000000,0.000000,0.559005,-102.8460,-147.6169)"
         sodipodi:nodetypes="ccccccccccc"
         id="path15121"
         d="M 322.86327,303.43886 C 322.66933,312.00786 311.36739,318.32370 300.23827,321.73582 C 277.28351,328.67288 249.92978,328.99479 226.26952,323.31731 C 215.00934,320.51890 203.72644,315.66037 199.48827,308.02958 C 198.92193,306.04909 198.05468,304.99043 198.42577,307.74403 C 198.30523,310.28607 198.10433,312.97324 198.42577,315.58558 C 198.15301,320.58951 198.12151,325.89881 203.42577,329.88488 C 213.69549,338.59716 230.88868,342.29722 247.08202,343.74488 C 268.91582,345.52090 292.67031,343.34350 310.61327,334.62935 C 318.30952,330.78506 323.73700,324.66963 322.70702,318.24336 C 322.79120,315.18170 322.75484,305.93593 322.86327,303.43886 z "
         style="fill:url(#linearGradient15126);fill-opacity:1.0000000;stroke:none;stroke-width:3.7750001;stroke-linecap:butt;stroke-linejoin:round;stroke-miterlimit:4.0000000;stroke-dashoffset:0.0000000;stroke-opacity:1.0000000" />
      <path
         transform="matrix(0.551307,0.000000,0.000000,0.559005,-102.8460,-147.6169)"
         sodipodi:nodetypes="cccccccccc"
         id="path15122"
         d="M 261.14326,279.73105 C 230.02641,279.73105 204.76801,289.65228 204.76801,301.88137 C 204.76801,314.11047 230.02641,324.03169 261.14326,324.03169 C 292.26012,324.03169 317.51852,314.11047 317.51852,301.88137 C 317.51852,289.65228 292.26012,279.73105 261.14326,279.73105 z M 261.39592,285.53916 C 290.46859,285.53916 314.07600,293.53629 314.07600,303.38309 C 314.07600,313.22989 290.46860,321.22702 261.39592,321.22702 C 232.32324,321.22702 208.71585,313.22989 208.71585,303.38309 C 208.71585,293.53628 232.32325,285.53916 261.39592,285.53916 z "
         style="fill:url(#linearGradient15127);fill-opacity:1.0000000;stroke:none;stroke-width:3.7724271;stroke-linecap:butt;stroke-linejoin:round;stroke-miterlimit:4.0000000;stroke-dashoffset:0.0000000;stroke-opacity:1.0000000" />
      <path
         transform="matrix(0.554136,0.000000,0.000000,0.423471,22.24076,0.316626)"
         d="M 85.497787 50.922665 A 52.112938 25.242205 0 1 1  -18.728088,50.922665 A 52.112938 25.242205 0 1 1  85.497787 50.922665 z"
         sodipodi:ry="25.242205"
         sodipodi:rx="52.112938"
         sodipodi:cy="50.922665"
         sodipodi:cx="33.384850"
         id="path15123"
         style="fill:url(#linearGradient15128);fill-opacity:1.0000000;stroke:none;stroke-width:3.7724271;stroke-linecap:butt;stroke-linejoin:round;stroke-miterlimit:4.0000000;stroke-dashoffset:0.0000000;stroke-opacity:1.0000000"
         sodipodi:type="arc" />
      <path
         transform="matrix(0.551307,0.000000,0.000000,0.559005,-102.8460,-147.6169)"
         sodipodi:nodetypes="ccccccccc"
         id="path15125"
         d="M 322.82693,302.26246 C 322.33964,310.10980 311.62440,317.35349 300.49528,320.76561 C 277.54052,327.70267 249.89344,327.81839 226.23318,322.14091 C 222.51441,321.13452 203.15196,316.39168 198.38943,302.23761 C 198.34182,303.96329 198.26927,304.50510 198.24276,305.02541 C 201.96114,318.54480 220.92493,322.74597 227.63040,324.34970 C 251.29066,330.02718 278.79107,329.29289 301.74583,322.35583 C 312.76575,318.97719 322.06426,311.20585 322.76443,305.34217 C 322.77669,303.59414 322.79154,303.07754 322.82693,302.26246 z "
         style="fill:url(#linearGradient15130);fill-opacity:1.0000000;stroke:none;stroke-width:3.7750001;stroke-linecap:butt;stroke-linejoin:round;stroke-miterlimit:4.0000000;stroke-dashoffset:0.0000000;stroke-opacity:1.0000000" />
      <path
         transform="matrix(0.551307,0.000000,0.000000,0.559005,-102.8460,-121.9196)"
         id="path15124"
         d="M 260.59238,230.53399 C 226.70392,230.53399 199.20849,241.71280 199.20849,255.50031 C 199.20849,269.28780 226.70392,280.48817 260.59238,280.48817 C 294.48083,280.48817 321.97627,269.28780 321.97627,255.50031 C 321.97627,241.71281 294.48084,230.53399 260.59238,230.53399 z M 260.74841,233.82980 C 291.49490,233.82980 316.45266,243.50717 316.45266,255.43568 C 316.45266,267.36420 291.49490,277.04157 260.74841,277.04157 C 230.00193,277.04157 205.04417,267.36420 205.04417,255.43568 C 205.04417,243.50717 230.00193,233.82980 260.74841,233.82980 z "
         style="fill:url(#linearGradient15129);fill-opacity:1.0000000;stroke:none;stroke-width:3.7724271;stroke-linecap:butt;stroke-linejoin:round;stroke-miterlimit:4.0000000;stroke-dashoffset:0.0000000;stroke-opacity:1.0000000" />
      <path
         transform="matrix(0.551307,0.000000,0.000000,0.559005,-102.8460,-121.9196)"
         sodipodi:nodetypes="ccccc"
         id="path15131"
         d="M 210.36519,269.66987 C 214.22664,272.59874 227.28642,277.08126 232.93567,277.65629 L 232.02206,343.49000 C 224.61485,342.58770 217.20764,340.27531 209.80044,337.08162 L 210.36519,269.66987 z "
         style="fill:url(#linearGradient15758);fill-opacity:1.0000000;fill-rule:evenodd;stroke:none;stroke-width:0.25000000pt;stroke-linecap:butt;stroke-linejoin:miter;stroke-opacity:1.0000000" />
      <path
         sodipodi:nodetypes="ccccc"
         id="path21023"
         d="M 75.981664,21.212174 L 75.335011,59.953774 C 74.239336,62.522463 71.961666,64.415727 69.515139,65.126994 L 69.698383,29.561108 C 73.481375,26.834416 75.575802,24.783150 75.981664,21.212174 z "
         style="fill:url(#linearGradient21648);fill-opacity:1.0000000;fill-rule:evenodd;stroke:none;stroke-width:0.25000000pt;stroke-linecap:butt;stroke-linejoin:miter;stroke-opacity:1.0000000" />
    </g>
    <g
       transform="matrix(1.297522,0.000000,0.000000,1.264916,-33.97811,31.28493)"
       id="g1666">
      <path
         style="fill:none;fill-opacity:1.0000000;fill-rule:evenodd;stroke:#000000;stroke-width:2.4768586;stroke-linecap:butt;stroke-linejoin:round;stroke-miterlimit:4.0000000;stroke-opacity:0.076923080"
         d="M 85.728779,-3.3517238 L 85.450445,37.137832 L 36.304510,37.351665 L 85.728779,-3.3517238 z M 77.924575,13.910780 L 58.185564,30.211276 L 77.572770,29.992848 L 77.924575,13.910780 z "
         id="path5257"
         sodipodi:nodetypes="cccccccc" />
      <path
         style="fill:none;fill-opacity:1.0000000;fill-rule:evenodd;stroke:#000000;stroke-width:3.5776846;stroke-linecap:butt;stroke-linejoin:round;stroke-miterlimit:4.0000000;stroke-opacity:0.076923080"
         d="M 85.728779,-3.3517238 L 85.450445,37.137832 L 36.304510,37.351665 L 85.728779,-3.3517238 z M 77.924575,13.910780 L 58.185564,30.211276 L 77.572770,29.992848 L 77.924575,13.910780 z "
         id="path5255"
         sodipodi:nodetypes="cccccccc" />
      <path
         style="fill:none;fill-opacity:1.0000000;fill-rule:evenodd;stroke:#000000;stroke-width:2.6603296;stroke-linecap:butt;stroke-linejoin:round;stroke-miterlimit:4.0000000;stroke-opacity:0.076923080"
         d="M 85.728779,-3.3517238 L 85.450445,37.137832 L 36.304510,37.351665 L 85.728779,-3.3517238 z M 77.924575,13.910780 L 58.185564,30.211276 L 77.572770,29.992848 L 77.924575,13.910780 z "
         id="path4487"
         sodipodi:nodetypes="cccccccc" />
      <path
         style="opacity:0.84980237;fill:url(#linearGradient7074);fill-opacity:1.0000000;fill-rule:evenodd;stroke:url(#linearGradient7076);stroke-width:1.3760326;stroke-linecap:butt;stroke-linejoin:round;stroke-miterlimit:4.0000000;stroke-opacity:1.0000000"
         d="M 85.675521,-3.4523288 L 85.397185,37.037225 L 36.251253,37.251060 L 85.675521,-3.4523288 z M 77.871317,13.810175 L 58.132310,30.110672 L 77.519517,29.892245 L 77.871317,13.810175 z "
         id="path1404"
         sodipodi:nodetypes="cccccccc" />
      <g
         id="g6079"
         style="opacity:0.52173913;fill:url(#linearGradient6110);fill-opacity:1.0000000;stroke:none"
         transform="matrix(-1.133556e-2,-0.883751,1.079163,-7.581684e-4,45.13478,61.24898)">
        <path
           style="fill:url(#linearGradient7087);fill-rule:evenodd;stroke-width:1.1897957px;stroke-linecap:butt;stroke-linejoin:miter;stroke-opacity:1.0000000"
           d="M 27.387600,-2.2869200 L 27.325100,-1.0994200 L 32.543850,-0.84942000 L 32.606350,-2.0369200 L 27.387600,-2.2869200 z "
           id="path5261" />
        <path
           style="fill:url(#linearGradient7089);fill-rule:evenodd;stroke-width:1.1897957px;stroke-linecap:butt;stroke-linejoin:miter;stroke-opacity:1.0000000"
           d="M 27.387600,5.5255800 L 27.325100,6.7130800 L 32.543850,6.9630800 L 32.606350,5.7755800 L 27.387600,5.5255800 z "
           id="path5263" />
        <path
           style="fill:url(#linearGradient7091);fill-rule:evenodd;stroke-width:1.1897957px;stroke-linecap:butt;stroke-linejoin:miter;stroke-opacity:1.0000000"
           d="M 27.387600,13.369330 L 27.325100,14.556830 L 32.543850,14.775580 L 32.606350,13.588080 L 27.387600,13.369330 z "
           id="path5265" />
        <path
           style="fill:url(#linearGradient7093);fill-rule:evenodd;stroke-width:1.1897957px;stroke-linecap:butt;stroke-linejoin:miter;stroke-opacity:1.0000000"
           d="M 27.387600,21.181830 L 27.325100,22.369330 L 32.543850,22.619330 L 32.606350,21.431830 L 27.387600,21.181830 z "
           id="path5267" />
        <path
           style="fill:url(#linearGradient7095);fill-rule:evenodd;stroke-width:1.1897957px;stroke-linecap:butt;stroke-linejoin:miter;stroke-opacity:1.0000000"
           d="M 27.387600,28.994330 L 27.325100,30.181830 L 32.543850,30.431830 L 32.606350,29.244330 L 27.387600,28.994330 z "
           id="path5269" />
        <path
           style="fill:url(#linearGradient7097);fill-rule:evenodd;stroke-width:0.89852232px;stroke-linecap:butt;stroke-linejoin:miter;stroke-opacity:1.0000000"
           d="M 27.418850,0.46308000 L 27.325100,1.3693300 L 30.325100,1.5880800 L 30.387600,0.71308000 L 27.418850,0.46308000 z "
           id="path5271" />
        <path
           style="fill:url(#linearGradient7099);fill-rule:evenodd;stroke-width:0.89852232px;stroke-linecap:butt;stroke-linejoin:miter;stroke-opacity:1.0000000"
           d="M 27.418850,8.2755800 L 27.325100,9.1818300 L 30.325100,9.4318300 L 30.387600,8.5255800 L 27.418850,8.2755800 z "
           id="path5273" />
        <path
           style="fill:url(#linearGradient7101);fill-rule:evenodd;stroke-width:0.89852232px;stroke-linecap:butt;stroke-linejoin:miter;stroke-opacity:1.0000000"
           d="M 27.418850,16.119330 L 27.325100,17.025580 L 30.325100,17.244330 L 30.387600,16.338080 L 27.418850,16.119330 z "
           id="path5275" />
        <path
           style="fill:url(#linearGradient7103);fill-rule:evenodd;stroke-width:0.89852232px;stroke-linecap:butt;stroke-linejoin:miter;stroke-opacity:1.0000000"
           d="M 27.418850,23.931830 L 27.325100,24.838080 L 30.325100,25.056830 L 30.387600,24.181830 L 27.418850,23.931830 z "
           id="path5277" />
        <path
           style="fill:url(#linearGradient7105);fill-rule:evenodd;stroke-width:0.89852232px;stroke-linecap:butt;stroke-linejoin:miter;stroke-opacity:1.0000000"
           d="M 27.418850,31.775580 L 27.325100,32.650580 L 30.325100,32.900580 L 30.387600,31.994330 L 27.418850,31.775580 z "
           id="path5279" />
        <path
           style="fill:url(#linearGradient7107);fill-rule:evenodd;stroke-width:0.89852232px;stroke-linecap:butt;stroke-linejoin:miter;stroke-opacity:1.0000000"
           d="M 27.418850,3.0880800 L 27.325100,3.9630800 L 30.325100,4.2130800 L 30.387600,3.3068300 L 27.418850,3.0880800 z "
           id="path5281" />
        <path
           style="fill:url(#linearGradient7109);fill-rule:evenodd;stroke-width:0.89852232px;stroke-linecap:butt;stroke-linejoin:miter;stroke-opacity:1.0000000"
           d="M 27.418850,10.900580 L 27.325100,11.806830 L 30.325100,12.025580 L 30.387600,11.150580 L 27.418850,10.900580 z "
           id="path5283" />
        <path
           style="fill:url(#linearGradient7111);fill-rule:evenodd;stroke-width:0.89852232px;stroke-linecap:butt;stroke-linejoin:miter;stroke-opacity:1.0000000"
           d="M 27.418850,18.713080 L 27.325100,19.619330 L 30.325100,19.869330 L 30.387600,18.963080 L 27.418850,18.713080 z "
           id="path5285" />
        <path
           style="fill:url(#linearGradient7113);fill-rule:evenodd;stroke-width:0.89852232px;stroke-linecap:butt;stroke-linejoin:miter;stroke-opacity:1.0000000"
           d="M 27.418850,26.556830 L 27.325100,27.431830 L 30.325100,27.681830 L 30.387600,26.775580 L 27.418850,26.556830 z "
           id="path5287" />
        <path
           style="fill:url(#linearGradient7115);fill-rule:evenodd;stroke-width:0.89852232px;stroke-linecap:butt;stroke-linejoin:miter;stroke-opacity:1.0000000"
           d="M 27.418850,34.369330 L 27.325100,35.275580 L 30.325100,35.494330 L 30.387600,34.619330 L 27.418850,34.369330 z "
           id="path5289" />
      </g>
      <path
         style="fill:url(#linearGradient7055);fill-opacity:1.0000000;fill-rule:evenodd;stroke:none;stroke-width:1.0000000px;stroke-linecap:butt;stroke-linejoin:miter;stroke-opacity:1.0000000"
         d="M 85.774735,-3.1068898 C 81.702143,0.21799721 75.678943,5.6965577 71.606350,9.0214439 C 72.401520,13.353053 82.111905,7.9925237 85.798846,11.909328 C 85.619978,5.8767631 85.953601,2.9256752 85.774735,-3.1068898 z "
         id="path2943"
         sodipodi:nodetypes="cccc" />
    </g>
  </g>
</svg>
