<?xml version="1.0" encoding="UTF-8" standalone="no"?>
<!-- Created with Inkscape (http://www.inkscape.org/) -->
<svg
   xmlns:dc="http://purl.org/dc/elements/1.1/"
   xmlns:cc="http://web.resource.org/cc/"
   xmlns:rdf="http://www.w3.org/1999/02/22-rdf-syntax-ns#"
   xmlns:svg="http://www.w3.org/2000/svg"
   xmlns="http://www.w3.org/2000/svg"
   xmlns:xlink="http://www.w3.org/1999/xlink"
   xmlns:sodipodi="http://inkscape.sourceforge.net/DTD/sodipodi-0.dtd"
   xmlns:inkscape="http://www.inkscape.org/namespaces/inkscape"
   inkscape:export-ydpi="45.000000"
   inkscape:export-xdpi="45.000000"
   inkscape:export-filename="/home/pinheiro/kdeplayground-artwork/oooicons/crystalsvg/dbnewformautopilot.png"
   sodipodi:docname="dbnewformautopilot.svg"
   sodipodi:docbase="/home/pinheiro/kdeplayground-artwork/oooicons/crystalsvg"
   inkscape:version="0.41"
   sodipodi:version="0.32"
   id="svg1468"
   height="64px"
   width="64px">
  <defs
     id="defs3">
    <linearGradient
       y2="89.022705"
       x2="31.406204"
       y1="71.470055"
       x1="23.972071"
       gradientTransform="matrix(2.908003,0.000000,0.000000,0.831096,11.28542,-50.75318)"
       gradientUnits="userSpaceOnUse"
       id="linearGradient7052"
       xlink:href="#linearGradient7676"
       inkscape:collect="always" />
    <linearGradient
       y2="68.449188"
       x2="27.096176"
       y1="75.009636"
       x1="27.245455"
       spreadMethod="reflect"
       gradientTransform="matrix(2.825693,0.000000,0.000000,0.855304,11.28542,-50.75318)"
       gradientUnits="userSpaceOnUse"
       id="linearGradient7050"
       xlink:href="#greylighttograyw"
       inkscape:collect="always" />
    <linearGradient
       id="linearGradient7676">
      <stop
         style="stop-color:#7d7d7d;stop-opacity:1.0000000;"
         offset="0.0000000"
         id="stop7678" />
      <stop
         style="stop-color:#d3d4d4;stop-opacity:1.0000000;"
         offset="1.0000000"
         id="stop7680" />
    </linearGradient>
    <linearGradient
       y2="89.022705"
       x2="31.406204"
       y1="71.470055"
       x1="23.972071"
       gradientTransform="matrix(2.908003,0.000000,0.000000,0.831096,11.28542,-64.90372)"
       gradientUnits="userSpaceOnUse"
       id="linearGradient7048"
       xlink:href="#linearGradient7676"
       inkscape:collect="always" />
    <linearGradient
       id="greylighttograyw">
      <stop
         id="stop575"
         offset="0.0000000"
         style="stop-color:#b5b5b8;stop-opacity:1.0000000;" />
      <stop
         id="stop576"
         offset="1.0000000"
         style="stop-color:#ebebee;stop-opacity:1.0000000;" />
    </linearGradient>
    <linearGradient
       y2="68.449188"
       x2="27.096176"
       y1="75.009636"
       x1="27.245455"
       spreadMethod="reflect"
       gradientTransform="matrix(2.825693,0.000000,0.000000,0.855304,11.28542,-64.90372)"
       gradientUnits="userSpaceOnUse"
       id="linearGradient7046"
       xlink:href="#greylighttograyw"
       inkscape:collect="always" />
    <linearGradient
       y2="86.444351"
       x2="80.537773"
       y1="89.868164"
       x1="80.537773"
       gradientTransform="matrix(0.338784,0.000000,0.000000,0.321627,-101.6945,87.48185)"
       gradientUnits="userSpaceOnUse"
       id="linearGradient7044"
       xlink:href="#light75to0"
       inkscape:collect="always" />
    <radialGradient
       r="67.357605"
       fy="9.8876038"
       fx="32.163441"
       cy="9.8876038"
       cx="32.163441"
       gradientTransform="matrix(2.484065e-2,0.000000,0.000000,1.648067e-2,-73.61265,111.2942)"
       gradientUnits="userSpaceOnUse"
       id="radialGradient7042"
       xlink:href="#light100to0"
       inkscape:collect="always" />
    <radialGradient
       r="67.357605"
       fy="9.8876038"
       fx="32.163441"
       cy="9.8876038"
       cx="32.163441"
       gradientTransform="matrix(2.484065e-2,0.000000,0.000000,1.648067e-2,-77.27673,111.3438)"
       gradientUnits="userSpaceOnUse"
       id="radialGradient7040"
       xlink:href="#light100to0"
       inkscape:collect="always" />
    <linearGradient
       id="linearGradient5761"
       inkscape:collect="always">
      <stop
         id="stop5763"
         offset="0"
         style="stop-color:#000000;stop-opacity:1;" />
      <stop
         id="stop5765"
         offset="1"
         style="stop-color:#000000;stop-opacity:0;" />
    </linearGradient>
    <linearGradient
       y2="164.02941"
       x2="38.700349"
       y1="164.02941"
       x1="30.033862"
       gradientTransform="matrix(0.769036,0.000000,0.000000,0.136036,-101.1352,87.40144)"
       gradientUnits="userSpaceOnUse"
       id="linearGradient7038"
       xlink:href="#linearGradient5761"
       inkscape:collect="always" />
    <linearGradient
       y2="168.36269"
       x2="34.379585"
       y1="157.88530"
       x1="34.329636"
       gradientTransform="matrix(0.769036,0.000000,0.000000,0.136036,-101.1352,87.40144)"
       gradientUnits="userSpaceOnUse"
       id="linearGradient7036"
       xlink:href="#light100to0"
       inkscape:collect="always" />
    <radialGradient
       r="3.2771389"
       fy="78.109543"
       fx="69.874687"
       cy="78.109543"
       cx="69.874687"
       gradientTransform="matrix(0.318600,0.000000,0.000000,0.307744,-99.22731,87.48185)"
       gradientUnits="userSpaceOnUse"
       id="radialGradient7034"
       xlink:href="#graytoblack"
       inkscape:collect="always" />
    <linearGradient
       y2="93.751755"
       x2="89.250404"
       y1="65.888565"
       x1="66.009613"
       spreadMethod="reflect"
       gradientTransform="matrix(0.311525,0.000000,0.000000,0.314734,-99.22726,87.48182)"
       gradientUnits="userSpaceOnUse"
       id="linearGradient7032"
       xlink:href="#graytoblack"
       inkscape:collect="always" />
    <linearGradient
       y2="74.369034"
       x2="73.258949"
       y1="92.318138"
       x1="83.408669"
       gradientTransform="matrix(0.313709,0.000000,0.000000,0.312544,-99.42495,87.48182)"
       gradientUnits="userSpaceOnUse"
       id="linearGradient7030"
       xlink:href="#graytolightgray"
       inkscape:collect="always" />
    <radialGradient
       r="3.8976505"
       fy="13.307540"
       fx="6.8099542"
       cy="13.307540"
       cx="6.8099542"
       gradientTransform="matrix(4.699014,0.000000,0.000000,2.913166,-44.82088,-3.284178)"
       gradientUnits="userSpaceOnUse"
       id="radialGradient7028"
       xlink:href="#light75to0"
       inkscape:collect="always" />
    <radialGradient
       r="2.3805757"
       fy="12.978644"
       fx="6.7188473"
       cy="12.978644"
       cx="6.7188473"
       gradientTransform="matrix(4.699014,0.000000,0.000000,2.913166,-44.82088,-3.284178)"
       gradientUnits="userSpaceOnUse"
       id="radialGradient7026"
       xlink:href="#light75to0"
       inkscape:collect="always" />
    <linearGradient
       y2="56.483673"
       x2="62.358677"
       y1="62.298306"
       x1="65.655121"
       gradientTransform="matrix(5.577362,0.000000,0.000000,5.361691,-368.8578,-273.1472)"
       gradientUnits="userSpaceOnUse"
       id="linearGradient7024"
       xlink:href="#graytoblack"
       inkscape:collect="always" />
    <linearGradient
       id="linearGradient5201">
      <stop
         style="stop-color:#7d7d7d;stop-opacity:1.0000000;"
         offset="0.0000000"
         id="stop5203" />
      <stop
         style="stop-color:#000000;stop-opacity:1.0000000;"
         offset="1.0000000"
         id="stop5205" />
    </linearGradient>
    <radialGradient
       r="4.4104571"
       fy="61.548965"
       fx="63.833946"
       cy="61.548965"
       cx="63.833946"
       gradientTransform="matrix(5.577362,0.000000,0.000000,5.361691,-368.8578,-273.1472)"
       gradientUnits="userSpaceOnUse"
       id="radialGradient7022"
       xlink:href="#linearGradient5201"
       inkscape:collect="always" />
    <radialGradient
       r="37.230904"
       fy="74.235756"
       fx="35.044880"
       cy="74.235756"
       cx="35.044880"
       gradientTransform="scale(1.002829,0.997179)"
       gradientUnits="userSpaceOnUse"
       id="radialGradient7020"
       xlink:href="#light75to0"
       inkscape:collect="always" />
    <radialGradient
       r="11.512089"
       fy="92.415352"
       fx="18.506639"
       cy="92.415352"
       cx="18.506639"
       gradientTransform="matrix(1.758912,0.000000,0.000000,0.568533,-2.440496e-13,-8.645668e-6)"
       gradientUnits="userSpaceOnUse"
       id="radialGradient7018"
       xlink:href="#light100to0"
       inkscape:collect="always" />
    <linearGradient
       y2="25.602371"
       x2="18.724882"
       y1="7.9817476"
       x1="5.4416661"
       gradientTransform="matrix(2.157694,-2.684106e-2,5.764396e-3,0.463386,-2.440496e-13,-1.311974e-13)"
       gradientUnits="userSpaceOnUse"
       id="linearGradient7016"
       xlink:href="#light100to0"
       inkscape:collect="always" />
    <linearGradient
       id="graytoblack">
      <stop
         style="stop-color:#7d7d7d;stop-opacity:1.0000000;"
         offset="0.0000000"
         id="stop5097" />
      <stop
         style="stop-color:#000000;stop-opacity:1.0000000;"
         offset="1.0000000"
         id="stop5098" />
    </linearGradient>
    <linearGradient
       y2="51.149952"
       x2="46.522972"
       y1="-13.198998"
       x1="7.5616975"
       gradientTransform="scale(1.002291,0.997715)"
       gradientUnits="userSpaceOnUse"
       id="linearGradient7014"
       xlink:href="#graytoblack"
       inkscape:collect="always" />
    <linearGradient
       y2="14.121197"
       x2="28.188349"
       y1="43.472366"
       x1="41.939056"
       gradientTransform="scale(1.002291,0.997715)"
       gradientUnits="userSpaceOnUse"
       id="linearGradient7012"
       xlink:href="#graytolightgray"
       inkscape:collect="always" />
    <linearGradient
       inkscape:collect="always"
       id="linearGradient5808">
      <stop
         style="stop-color:#ffffff;stop-opacity:1;"
         offset="0"
         id="stop5810" />
      <stop
         style="stop-color:#ffffff;stop-opacity:0;"
         offset="1"
         id="stop5812" />
    </linearGradient>
    <radialGradient
       r="9.3687143"
       fy="174.10931"
       fx="25.056116"
       cy="174.10931"
       cx="25.056116"
       gradientTransform="matrix(1.844875,0.000000,0.000000,0.578997,62.28336,-113.3789)"
       gradientUnits="userSpaceOnUse"
       id="radialGradient7010"
       xlink:href="#linearGradient5808"
       inkscape:collect="always" />
    <linearGradient
       y2="175.35120"
       x2="3.3466594"
       y1="166.42171"
       x1="-5.2588677"
       gradientTransform="matrix(1.927245,0.000000,0.000000,0.554252,62.28336,-113.3789)"
       gradientUnits="userSpaceOnUse"
       id="linearGradient7008"
       xlink:href="#light100to0"
       inkscape:collect="always" />
    <radialGradient
       r="24.045961"
       fy="271.80869"
       fx="5.1258984"
       cy="271.80869"
       cx="5.1258984"
       gradientTransform="matrix(3.040485,0.000000,0.000000,-9.436030e-2,61.70547,12.53341)"
       gradientUnits="userSpaceOnUse"
       id="radialGradient7006"
       xlink:href="#bluelignonlinblu"
       inkscape:collect="always" />
    <radialGradient
       cx="38.797401"
       cy="112.96090"
       r="67.358803"
       fx="38.797401"
       fy="112.96090"
       id="bluelignonlinblu"
       gradientUnits="userSpaceOnUse">
      <stop
         style="stop-color:#d9ffff;stop-opacity:1.0000000;"
         offset="0.0055999998"
         id="stop84" />
      <stop
         style="stop-color:#95d9ff;stop-opacity:1.0000000;"
         offset="0.13480000"
         id="stop86" />
      <stop
         style="stop-color:#68b9ff;stop-opacity:1.0000000;"
         offset="0.32049999"
         id="stop88" />
      <stop
         style="stop-color:#3293fe;stop-opacity:1.0000000;"
         offset="0.56800002"
         id="stop90" />
      <stop
         style="stop-color:#107bfe;stop-opacity:1.0000000;"
         offset="0.75340003"
         id="stop92" />
      <stop
         style="stop-color:#0372fe;stop-opacity:1.0000000;"
         offset="0.85390002"
         id="stop94" />
      <stop
         style="stop-color:#0356fe;stop-opacity:1.0000000;"
         offset="1.0000000"
         id="stop96" />
    </radialGradient>
    <radialGradient
       r="24.045961"
       fy="271.80869"
       fx="5.1258984"
       cy="271.80869"
       cx="5.1258984"
       gradientTransform="matrix(3.040406,0.000000,0.000000,0.462115,61.70593,-138.6813)"
       gradientUnits="userSpaceOnUse"
       id="radialGradient7004"
       xlink:href="#bluelignonlinblu"
       inkscape:collect="always" />
    <linearGradient
       y2="118.47764"
       x2="11.815157"
       y1="163.81963"
       x1="40.150562"
       spreadMethod="reflect"
       gradientTransform="matrix(1.284701,0.000000,0.000000,0.936296,62.28336,-124.5946)"
       gradientUnits="userSpaceOnUse"
       id="linearGradient7002"
       xlink:href="#graytolightgray"
       inkscape:collect="always" />
    <linearGradient
       id="garylighttowite">
      <stop
         id="stop5106"
         offset="0.0000000"
         style="stop-color:#7d7d7d;stop-opacity:1.0000000;" />
      <stop
         id="stop5107"
         offset="1.0000000"
         style="stop-color:#d3d4d4;stop-opacity:1.0000000;" />
    </linearGradient>
    <linearGradient
       y2="179.33521"
       x2="44.318043"
       y1="129.56383"
       x1="15.147017"
       gradientTransform="matrix(1.266634,0.000000,0.000000,0.949648,62.28338,-124.5946)"
       gradientUnits="userSpaceOnUse"
       id="linearGradient7000"
       xlink:href="#garylighttowite"
       inkscape:collect="always" />
    <linearGradient
       inkscape:collect="always"
       xlink:href="#light75to0"
       id="linearGradient21648"
       gradientTransform="scale(0.394750,2.533248)"
       x1="196.40405"
       y1="17.297279"
       x2="179.82318"
       y2="17.407320"
       gradientUnits="userSpaceOnUse" />
    <linearGradient
       inkscape:collect="always"
       xlink:href="#light75to0"
       id="linearGradient15758"
       gradientTransform="scale(0.526614,1.898924)"
       x1="406.16541"
       y1="148.64583"
       x2="414.83224"
       y2="189.94398"
       gradientUnits="userSpaceOnUse" />
    <linearGradient
       inkscape:collect="always"
       xlink:href="#graytolightgray"
       id="linearGradient15129"
       gradientUnits="userSpaceOnUse"
       gradientTransform="scale(1.729412,0.578231)"
       x1="130.60602"
       y1="408.28738"
       x2="180.75517"
       y2="470.93375" />
    <linearGradient
       inkscape:collect="always"
       xlink:href="#blacktowhite"
       id="linearGradient15130"
       gradientUnits="userSpaceOnUse"
       gradientTransform="matrix(1.494665,0.000000,0.000000,0.470262,21.13456,163.2076)"
       x1="142.19385"
       y1="278.92441"
       x2="166.65126"
       y2="368.52307" />
    <linearGradient
       inkscape:collect="always"
       xlink:href="#graytolightgray"
       id="linearGradient15128"
       gradientUnits="userSpaceOnUse"
       gradientTransform="scale(1.436842,0.695971)"
       x1="8.4329405"
       y1="88.576233"
       x2="46.346687"
       y2="39.269283" />
    <linearGradient
       inkscape:collect="always"
       xlink:href="#blacktowhite"
       id="linearGradient15127"
       gradientUnits="userSpaceOnUse"
       gradientTransform="matrix(1.337508,0.000000,0.000000,0.525518,9.323765,244.4874)"
       x1="232.27733"
       y1="140.27173"
       x2="147.05203"
       y2="81.484245" />
    <linearGradient
       inkscape:collect="always"
       xlink:href="#blacktowhite"
       id="linearGradient15126"
       gradientUnits="userSpaceOnUse"
       gradientTransform="matrix(1.494665,0.000000,0.000000,0.470262,13.18526,232.9367)"
       x1="253.08090"
       y1="206.53716"
       x2="123.30837"
       y2="205.96529" />
    <linearGradient
       inkscape:collect="always"
       xlink:href="#blacktowhite"
       id="linearGradient15118"
       gradientUnits="userSpaceOnUse"
       gradientTransform="matrix(1.494665,0.000000,0.000000,0.470262,21.13456,163.2076)"
       x1="142.19385"
       y1="278.92441"
       x2="166.65126"
       y2="368.52307" />
    <linearGradient
       inkscape:collect="always"
       xlink:href="#graytolightgray"
       id="linearGradient15117"
       gradientUnits="userSpaceOnUse"
       gradientTransform="matrix(1.435849,0.000000,0.000000,0.489525,9.323765,244.4874)"
       x1="133.23598"
       y1="111.26886"
       x2="216.75711"
       y2="109.89973" />
    <linearGradient
       inkscape:collect="always"
       xlink:href="#graytolightgray"
       id="linearGradient15116"
       gradientUnits="userSpaceOnUse"
       gradientTransform="scale(1.436842,0.695971)"
       x1="-0.36880860"
       y1="75.553932"
       x2="59.273689"
       y2="75.553932" />
    <linearGradient
       inkscape:collect="always"
       xlink:href="#blacktowhite"
       id="linearGradient15115"
       gradientUnits="userSpaceOnUse"
       gradientTransform="matrix(1.337508,0.000000,0.000000,0.525518,9.323765,244.4874)"
       x1="232.27733"
       y1="140.27173"
       x2="147.05203"
       y2="81.484245" />
    <linearGradient
       inkscape:collect="always"
       xlink:href="#blacktowhite"
       id="linearGradient15114"
       gradientUnits="userSpaceOnUse"
       gradientTransform="matrix(1.494665,0.000000,0.000000,0.470262,13.18526,232.9367)"
       x1="253.08090"
       y1="206.53716"
       x2="123.30837"
       y2="205.96529" />
    <linearGradient
       inkscape:collect="always"
       xlink:href="#blacktowhite"
       id="linearGradient15095"
       gradientUnits="userSpaceOnUse"
       gradientTransform="matrix(1.494665,0.000000,0.000000,0.470262,21.13456,163.2076)"
       x1="142.19385"
       y1="278.92441"
       x2="166.65126"
       y2="368.52307" />
    <linearGradient
       inkscape:collect="always"
       xlink:href="#graytolightgray"
       id="linearGradient15096"
       gradientUnits="userSpaceOnUse"
       gradientTransform="matrix(1.435849,0.000000,0.000000,0.489525,9.323765,244.4874)"
       x1="133.23598"
       y1="111.26886"
       x2="216.75711"
       y2="109.89973" />
    <linearGradient
       id="graytolightgray">
      <stop
         style="stop-color:#d4d3d3;stop-opacity:1.0000000;"
         offset="0.0000000"
         id="stop5101" />
      <stop
         style="stop-color:#ffffff;stop-opacity:1.0000000;"
         offset="1.0000000"
         id="stop5102" />
    </linearGradient>
    <linearGradient
       inkscape:collect="always"
       xlink:href="#graytolightgray"
       id="linearGradient15097"
       gradientUnits="userSpaceOnUse"
       gradientTransform="scale(1.436842,0.695971)"
       x1="-0.36880860"
       y1="75.553932"
       x2="59.273689"
       y2="75.553932" />
    <linearGradient
       inkscape:collect="always"
       xlink:href="#blacktowhite"
       id="linearGradient15098"
       gradientUnits="userSpaceOnUse"
       gradientTransform="matrix(1.337508,0.000000,0.000000,0.525518,9.323765,244.4874)"
       x1="232.27733"
       y1="140.27173"
       x2="147.05203"
       y2="81.484245" />
    <linearGradient
       id="blacktowhite">
      <stop
         style="stop-color:#000000;stop-opacity:1.0000000;"
         offset="0.0000000"
         id="stop2476" />
      <stop
         style="stop-color:#ffffff;stop-opacity:1.0000000;"
         offset="1.0000000"
         id="stop2475" />
    </linearGradient>
    <linearGradient
       inkscape:collect="always"
       xlink:href="#blacktowhite"
       id="linearGradient15099"
       gradientUnits="userSpaceOnUse"
       gradientTransform="matrix(1.494665,0.000000,0.000000,0.470262,13.18526,232.9367)"
       x1="253.08090"
       y1="206.53716"
       x2="123.30837"
       y2="205.96529" />
    <linearGradient
       y2="139.7401"
       x2="100.6055"
       y1="37.1133"
       x1="100.6055"
       gradientTransform="matrix(0.128610,-6.386046e-2,6.003955e-2,0.117844,48.67348,0.239063)"
       gradientUnits="userSpaceOnUse"
       id="linearGradient9044"
       xlink:href="#XMLID_1_"
       inkscape:collect="always" />
    <linearGradient
       y2="436.28043"
       x2="307.07626"
       y1="64.407753"
       x1="146.38470"
       gradientTransform="matrix(9.551850e-2,-3.628389e-2,3.912589e-2,0.105125,27.78007,9.907698)"
       gradientUnits="userSpaceOnUse"
       id="linearGradient9043"
       xlink:href="#light100to0"
       inkscape:collect="always" />
    <linearGradient
       y2="461.30772"
       x2="439.44683"
       y1="27.161866"
       x1="-110.52393"
       gradientTransform="matrix(9.309382e-2,-3.536275e-2,3.639664e-2,9.779137e-2,28.36097,10.40549)"
       gradientUnits="userSpaceOnUse"
       id="linearGradient9042"
       xlink:href="#redtodarkred"
       inkscape:collect="always" />
    <radialGradient
       r="117.68623"
       fy="25.390987"
       fx="189.43584"
       cy="103.61057"
       cx="186.75356"
       spreadMethod="reflect"
       gradientTransform="matrix(9.250725e-2,-3.513989e-2,3.662747e-2,9.841177e-2,28.36097,10.40549)"
       gradientUnits="userSpaceOnUse"
       id="radialGradient9041"
       xlink:href="#orangelesstoyelow"
       inkscape:collect="always" />
    <linearGradient
       y2="139.7401"
       x2="100.6055"
       y1="37.1133"
       x1="100.6055"
       gradientTransform="matrix(0.380689,-0.189029,0.183421,0.360017,48.02610,-0.411723)"
       gradientUnits="userSpaceOnUse"
       id="linearGradient9040"
       xlink:href="#XMLID_1_"
       inkscape:collect="always" />
    <linearGradient
       id="light75to0">
      <stop
         style="stop-color:#ffffff;stop-opacity:0.72916669;"
         offset="0.0000000"
         id="stop2769" />
      <stop
         style="stop-color:#ffffff;stop-opacity:0.0000000;"
         offset="1.0000000"
         id="stop2770" />
    </linearGradient>
    <linearGradient
       y2="41.796101"
       x2="14.964557"
       y1="21.673885"
       x1="5.6831765"
       gradientTransform="matrix(1.104176,1.082658e-17,1.834220e-17,0.490191,43.76188,12.01201)"
       gradientUnits="userSpaceOnUse"
       id="linearGradient9039"
       xlink:href="#light75to0"
       inkscape:collect="always" />
    <linearGradient
       y2="-4.4011321"
       x2="122.96590"
       y1="0.76412511"
       x1="117.48062"
       gradientTransform="matrix(0.583981,-5.632389e-2,0.240585,1.738144,24.49778,48.99001)"
       gradientUnits="userSpaceOnUse"
       id="linearGradient9038"
       xlink:href="#light100to25to0"
       inkscape:collect="always" />
    <linearGradient
       id="light100to25to0">
      <stop
         id="stop2785"
         offset="0.0000000"
         style="stop-color:#ffffff;stop-opacity:1.0000000;" />
      <stop
         id="stop2786"
         offset="0.50000000"
         style="stop-color:#ffffff;stop-opacity:0.28749999;" />
      <stop
         id="stop2787"
         offset="1.0000000"
         style="stop-color:#ffffff;stop-opacity:0.0000000;" />
    </linearGradient>
    <radialGradient
       r="35.001339"
       fy="30.823576"
       fx="151.53014"
       cy="30.823576"
       cx="151.53014"
       gradientTransform="matrix(0.407853,-0.182096,0.912747,2.044345,8.392245e-14,1.131804e-13)"
       gradientUnits="userSpaceOnUse"
       id="radialGradient9037"
       xlink:href="#light100to25to0"
       inkscape:collect="always" />
    <linearGradient
       y2="139.7401"
       x2="100.6055"
       y1="37.1133"
       x1="100.6055"
       gradientUnits="userSpaceOnUse"
       id="linearGradient1893"
       xlink:href="#XMLID_1_"
       inkscape:collect="always" />
    <linearGradient
       y2="436.28043"
       x2="307.07626"
       y1="64.407753"
       x1="146.38470"
       gradientUnits="userSpaceOnUse"
       id="linearGradient1891"
       xlink:href="#light100to0"
       inkscape:collect="always" />
    <linearGradient
       y2="461.30772"
       x2="439.44683"
       y1="27.161866"
       x1="-110.52393"
       gradientTransform="scale(1.006342,0.993698)"
       gradientUnits="userSpaceOnUse"
       id="linearGradient1889"
       xlink:href="#redtodarkred"
       inkscape:collect="always" />
    <radialGradient
       r="117.68623"
       fy="25.390987"
       fx="189.43584"
       cy="103.61057"
       cx="186.75356"
       spreadMethod="reflect"
       gradientUnits="userSpaceOnUse"
       id="radialGradient1887"
       xlink:href="#orangelesstoyelow"
       inkscape:collect="always" />
    <linearGradient
       y2="139.7401"
       x2="100.6055"
       y1="37.1133"
       x1="100.6055"
       gradientUnits="userSpaceOnUse"
       id="linearGradient1885"
       xlink:href="#XMLID_1_"
       inkscape:collect="always" />
    <linearGradient
       inkscape:collect="always"
       xlink:href="#XMLID_1_"
       id="linearGradient2552"
       gradientUnits="userSpaceOnUse"
       x1="100.6055"
       y1="37.1133"
       x2="100.6055"
       y2="139.7401" />
    <linearGradient
       id="light100to0">
      <stop
         id="stop2764"
         offset="0.0000000"
         style="stop-color:#ffffff;stop-opacity:1.0000000;" />
      <stop
         id="stop2765"
         offset="1.0000000"
         style="stop-color:#ffffff;stop-opacity:0.0000000;" />
    </linearGradient>
    <linearGradient
       inkscape:collect="always"
       xlink:href="#light100to0"
       id="linearGradient2550"
       gradientUnits="userSpaceOnUse"
       x1="146.38470"
       y1="64.407753"
       x2="307.07626"
       y2="436.28043" />
    <linearGradient
       id="redtodarkred">
      <stop
         style="stop-color:#ff0000;stop-opacity:1.0000000;"
         offset="0.0000000"
         id="stop3856" />
      <stop
         style="stop-color:#920000;stop-opacity:1.0000000;"
         offset="1.0000000"
         id="stop3855" />
    </linearGradient>
    <linearGradient
       inkscape:collect="always"
       xlink:href="#redtodarkred"
       id="linearGradient2548"
       gradientUnits="userSpaceOnUse"
       gradientTransform="scale(1.006342,0.993698)"
       x1="-110.52393"
       y1="27.161866"
       x2="439.44683"
       y2="461.30772" />
    <linearGradient
       id="orangelesstoyelow">
      <stop
         style="stop-color:#ff7d00;stop-opacity:1.0000000;"
         offset="0.0000000"
         id="stop2689" />
      <stop
         style="stop-color:#ffbe00;stop-opacity:1.0000000;"
         offset="0.25358382"
         id="stop2690" />
      <stop
         style="stop-color:#ffff00;stop-opacity:1.0000000;"
         offset="1.0000000"
         id="stop2691" />
    </linearGradient>
    <radialGradient
       inkscape:collect="always"
       xlink:href="#orangelesstoyelow"
       id="radialGradient2546"
       gradientUnits="userSpaceOnUse"
       spreadMethod="reflect"
       cx="186.75356"
       cy="103.61057"
       fx="189.43584"
       fy="25.390987"
       r="117.68623" />
    <linearGradient
       id="XMLID_1_"
       gradientUnits="userSpaceOnUse"
       x1="100.6055"
       y1="37.1133"
       x2="100.6055"
       y2="139.7401">
      <stop
         offset="0"
         style="stop-color:#FFA700"
         id="stop9" />
      <stop
         offset="0.691"
         style="stop-color:#FFFF00"
         id="stop11" />
      <stop
         offset="0.792"
         style="stop-color:#FFFC00"
         id="stop13" />
      <stop
         offset="0.8546"
         style="stop-color:#FFF400"
         id="stop15" />
      <stop
         offset="0.9067"
         style="stop-color:#FFE500"
         id="stop17" />
      <stop
         offset="0.953"
         style="stop-color:#FFD100"
         id="stop19" />
      <stop
         offset="0.9952"
         style="stop-color:#FFB700"
         id="stop21" />
      <stop
         offset="1"
         style="stop-color:#FFB300"
         id="stop23" />
      <midPointStop
         offset="0"
         style="stop-color:#FFA700"
         id="midPointStop25" />
      <midPointStop
         offset="0.5"
         style="stop-color:#FFA700"
         id="midPointStop27" />
      <midPointStop
         offset="0.691"
         style="stop-color:#FFFF00"
         id="midPointStop29" />
      <midPointStop
         offset="0.7952"
         style="stop-color:#FFFF00"
         id="midPointStop31" />
      <midPointStop
         offset="1"
         style="stop-color:#FFB300"
         id="midPointStop33" />
    </linearGradient>
    <linearGradient
       inkscape:collect="always"
       xlink:href="#XMLID_1_"
       id="linearGradient2544"
       gradientUnits="userSpaceOnUse"
       x1="100.6055"
       y1="37.1133"
       x2="100.6055"
       y2="139.7401" />
  </defs>
  <sodipodi:namedview
     inkscape:window-y="356"
     inkscape:window-x="360"
     inkscape:window-height="536"
     inkscape:window-width="640"
     inkscape:grid-bbox="true"
     inkscape:document-units="px"
     showgrid="true"
     inkscape:current-layer="layer1"
     inkscape:cy="32.000000"
     inkscape:cx="32.000000"
     inkscape:zoom="5.5000000"
     inkscape:pageshadow="2"
     inkscape:pageopacity="0.0"
     borderopacity="1.0"
     bordercolor="#666666"
     pagecolor="#ffffff"
     id="base" />
  <metadata
     id="metadata4">
    <rdf:RDF
       id="RDF5">
      <cc:Work
         id="Work6"
         rdf:about="">
        <dc:format
           id="format7">image/svg+xml</dc:format>
        <dc:type
           rdf:resource="http://purl.org/dc/dcmitype/StillImage"
           id="type9" />
      </cc:Work>
    </rdf:RDF>
  </metadata>
  <g
     inkscape:groupmode="layer"
     inkscape:label="Layer 1"
     id="layer1">
    <g
       transform="translate(-48.22816,25.03791)"
       id="g6967">
      <path
         style="opacity:0.77865613;fill:#000000;fill-opacity:1.0000000;stroke:url(#linearGradient7000);stroke-width:4.1895814;stroke-linejoin:round;stroke-miterlimit:4.0000000;stroke-opacity:1.0000000"
         d="M 55.294285,-21.562836 L 104.07632,-21.562836 C 106.57412,-21.562836 108.58499,-19.633410 108.58499,-17.236782 L 108.58499,16.235586 C 108.58499,18.632227 106.57412,20.561654 104.07632,20.561654 L 55.294285,20.561654 C 52.796479,20.561654 50.785612,18.632227 50.785612,16.235586 L 50.785612,-17.236782 C 50.785612,-19.633410 52.796479,-21.562836 55.294285,-21.562836 z "
         id="rect3484" />
      <path
         style="fill:none;fill-opacity:1.0000000;stroke:#000000;stroke-width:5.2863312;stroke-linejoin:round;stroke-miterlimit:4.0000000;stroke-opacity:0.34841630"
         d="M 55.294285,-21.562836 L 104.07632,-21.562836 C 106.57412,-21.562836 108.58499,-19.633410 108.58499,-17.236782 L 108.58499,16.235586 C 108.58499,18.632227 106.57412,20.561654 104.07632,20.561654 L 55.294285,20.561654 C 52.796479,20.561654 50.785612,18.632227 50.785612,16.235586 L 50.785612,-17.236782 C 50.785612,-19.633410 52.796479,-21.562836 55.294285,-21.562836 z "
         id="rect1334" />
      <path
         style="fill:url(#linearGradient7002);fill-opacity:1.0000000;stroke:none;stroke-width:2.8199999;stroke-linejoin:round;stroke-miterlimit:4.0000000;stroke-opacity:1.0000000"
         d="M 55.294285,-21.562836 L 104.07632,-21.562836 C 106.57412,-21.562836 108.58499,-19.633410 108.58499,-17.236782 L 108.58499,16.235586 C 108.58499,18.632227 106.57412,20.561654 104.07632,20.561654 L 55.294285,20.561654 C 52.796479,20.561654 50.785612,18.632227 50.785612,16.235586 L 50.785612,-17.236782 C 50.785612,-19.633410 52.796479,-21.562836 55.294285,-21.562836 z "
         id="rect2110" />
      <path
         style="fill:url(#radialGradient7004);fill-opacity:1.0000000;stroke:none;stroke-width:3.4250000;stroke-linejoin:round;stroke-miterlimit:4.0000000;stroke-opacity:1.0000000"
         d="M 53.927654,-22.145457 C 51.662452,-22.145457 49.845073,-19.696521 49.845073,-16.644134 L 49.845073,-13.074571 L 109.52554,-13.074571 L 109.52554,-16.644134 C 109.52554,-19.696521 107.70816,-22.145457 105.44295,-22.145457 L 53.927654,-22.145457 z "
         id="rect1336" />
      <path
         style="fill:url(#radialGradient7006);fill-opacity:1.0000000;stroke:none;stroke-width:3.4250000;stroke-linejoin:round;stroke-miterlimit:4.0000000;stroke-opacity:1.0000000"
         d="M 53.926991,-11.262365 C 51.661728,-11.262365 49.844303,-11.762412 49.844303,-12.385682 L 49.844303,-13.114556 L 109.52630,-13.114556 L 109.52630,-12.385682 C 109.52630,-11.762412 107.70887,-11.262365 105.44361,-11.262365 L 53.926991,-11.262365 z "
         id="path3494" />
      <path
         style="fill:url(#linearGradient7008);fill-opacity:1.0000000;fill-rule:evenodd;stroke:none;stroke-width:1.0000000px;stroke-linecap:butt;stroke-linejoin:miter;stroke-opacity:1.0000000"
         d="M 81.512465,-22.616388 C 78.848271,-22.695252 55.706679,-22.639530 54.551842,-22.562807 C 51.354040,-22.350385 50.107302,-20.147657 49.963794,-17.536364 C 49.816070,-14.848345 49.993992,-16.862882 49.963794,-13.564293 C 53.846335,-13.720939 50.655084,-17.650361 55.987060,-19.069228 C 61.319036,-20.488086 81.665493,-19.532187 81.512465,-22.616388 z "
         id="path3498" />
      <path
         style="fill:#ffffff;fill-opacity:0.11764706;fill-rule:evenodd;stroke:#ffffff;stroke-width:0.0000000;stroke-linecap:butt;stroke-linejoin:round;stroke-miterlimit:4.0000000;stroke-opacity:0.099547513"
         d="M 54.383532,-13.132872 C 54.349773,-13.203240 57.526645,-13.243613 58.853152,-13.024535 C 59.076967,-12.987572 59.405163,-14.153799 59.684714,-14.216245 C 59.890240,-14.262151 60.034481,-13.100603 60.377928,-13.107933 C 75.938017,-13.440059 106.73693,-13.349791 106.77165,-13.241224 C 106.80623,-13.133118 75.823534,-12.745857 60.516270,-12.699522 C 59.954096,-12.697839 60.037974,-11.914522 59.788657,-11.895976 C 59.552901,-11.878411 59.272911,-12.609704 59.061045,-12.591184 C 57.719441,-12.473963 54.419070,-13.058789 54.383532,-13.132872 z "
         id="path4268" />
      <path
         style="fill:#ffffff;fill-opacity:0.11764706;fill-rule:evenodd;stroke:#ffffff;stroke-width:0.10335266;stroke-linecap:butt;stroke-linejoin:round;stroke-miterlimit:4.0000000;stroke-opacity:0.099547513"
         d="M 55.542627,-13.036227 C 55.532052,-13.154931 57.897552,-13.026147 59.247249,-12.976226 C 59.473710,-12.967833 59.358802,-13.284003 59.638347,-13.346436 C 59.843874,-13.392326 59.709880,-13.031836 60.053380,-13.035449 C 75.567104,-13.198446 106.87990,-13.260462 106.77165,-13.241224 C 106.43532,-13.181438 75.568532,-12.939148 60.214902,-12.747861 C 59.652770,-12.740862 59.922065,-12.421910 59.672748,-12.403351 C 59.436992,-12.385814 59.551093,-12.778831 59.339226,-12.760314 C 57.997622,-12.643092 55.549978,-12.953764 55.542627,-13.036227 z "
         id="path5038" />
      <path
         style="fill:#ffffff;fill-opacity:0.11764706;fill-rule:evenodd;stroke:#ffffff;stroke-width:0.51676333;stroke-linecap:butt;stroke-linejoin:round;stroke-miterlimit:4.0000000;stroke-opacity:0.099547513"
         d="M 55.542627,-13.036227 C 55.532052,-13.154931 57.897552,-13.026147 59.247249,-12.976226 C 59.473710,-12.967833 59.358802,-13.284003 59.638347,-13.346436 C 59.843874,-13.392326 59.709880,-13.031836 60.053380,-13.035449 C 75.567104,-13.198446 106.87990,-13.260462 106.77165,-13.241224 C 106.43532,-13.181438 75.568532,-12.939148 60.214902,-12.747861 C 59.652770,-12.740862 59.922065,-12.421910 59.672748,-12.403351 C 59.436992,-12.385814 59.551093,-12.778831 59.339226,-12.760314 C 57.997622,-12.643092 55.549978,-12.953764 55.542627,-13.036227 z "
         id="path5040" />
      <path
         style="opacity:0.84980237;fill:url(#radialGradient7010);fill-opacity:1.0000000;fill-rule:evenodd;stroke:none;stroke-width:1.0000000px;stroke-linecap:butt;stroke-linejoin:miter;stroke-opacity:1.0000000"
         d="M 91.598781,-12.224604 C 95.027412,-12.108201 107.75922,-11.504987 108.66683,-12.328794 C 109.51539,-13.099006 109.21646,-18.689674 108.18184,-18.551947 C 106.01919,-18.839364 88.241170,-18.986320 87.662699,-18.921065 C 85.356609,-18.660946 87.034934,-14.996094 90.221539,-13.163455 C 90.477099,-12.651545 91.070856,-12.196223 91.598781,-12.224604 z "
         id="path5048" />
      <g
         id="g5682"
         transform="matrix(0.181394,0.000000,0.000000,0.179224,54.40356,-8.571855)">
        <path
           transform="matrix(0.801923,0.000000,0.000000,0.808186,6.125551,6.203764)"
           d="M 64.545456 31.909090 A 32.272728 32.090908 0 1 1  0.0000000,31.909090 A 32.272728 32.090908 0 1 1  64.545456 31.909090 z"
           sodipodi:ry="32.090908"
           sodipodi:rx="32.272728"
           sodipodi:cy="31.909090"
           sodipodi:cx="32.272728"
           id="path2080"
           style="fill:url(#linearGradient7012);fill-opacity:1.0000000;stroke:none;stroke-width:15.102777;stroke-linecap:round;stroke-linejoin:round;stroke-miterlimit:4.0000000;stroke-dashoffset:0.0000000;stroke-opacity:1.0000000"
           sodipodi:type="arc" />
        <path
           transform="matrix(0.801923,0.000000,0.000000,0.808186,6.125551,6.203764)"
           d="M 64.545456 31.909090 A 32.272728 32.090908 0 1 1  0.0000000,31.909090 A 32.272728 32.090908 0 1 1  64.545456 31.909090 z"
           sodipodi:ry="32.090908"
           sodipodi:rx="32.272728"
           sodipodi:cy="31.909090"
           sodipodi:cx="32.272728"
           id="path1320"
           style="fill:none;fill-opacity:0.0000000;stroke:url(#linearGradient7014);stroke-width:15.104682;stroke-linecap:round;stroke-linejoin:round;stroke-miterlimit:4.0000000;stroke-dashoffset:0.0000000;stroke-opacity:1.0000000"
           sodipodi:type="arc" />
        <path
           sodipodi:nodetypes="czzzz"
           id="path2848"
           d="M 32.604166,1.2759568 C 20.262866,1.5868347 8.3164226,10.330787 11.644633,13.030480 C 15.165265,15.886257 16.953426,6.1188505 32.992322,6.3285874 C 49.026096,6.5382575 50.514829,16.562589 53.206050,13.761282 C 55.818798,11.041657 45.120964,0.96289566 32.604166,1.2759568 z "
           style="fill:url(#linearGradient7016);fill-opacity:1.0000000;fill-rule:evenodd;stroke:none;stroke-width:0.31000000;stroke-linecap:butt;stroke-linejoin:miter;stroke-miterlimit:4.0000000;stroke-opacity:1.0000000" />
        <path
           sodipodi:nodetypes="czzzz"
           id="path4390"
           d="M 32.346426,57.554934 C 23.566154,57.320842 15.066804,50.736619 17.434674,48.703742 C 19.939443,46.553333 21.211639,53.908220 32.622582,53.750287 C 44.029881,53.592405 45.089047,46.044053 47.003727,48.153445 C 48.862579,50.201331 41.251557,57.790670 32.346426,57.554934 z "
           style="fill:url(#radialGradient7018);fill-opacity:1.0000000;fill-rule:evenodd;stroke:none;stroke-width:0.18320659pt;stroke-linecap:butt;stroke-linejoin:miter;stroke-opacity:1.0000000" />
        <path
           transform="matrix(0.801923,0.000000,0.000000,0.808186,6.125551,6.203760)"
           d="M 64.545456 31.909090 A 32.272728 32.090908 0 1 1  0.0000000,31.909090 A 32.272728 32.090908 0 1 1  64.545456 31.909090 z"
           sodipodi:ry="32.090908"
           sodipodi:rx="32.272728"
           sodipodi:cy="31.909090"
           sodipodi:cx="32.272728"
           id="path4396"
           style="fill:none;fill-opacity:1.0000000;stroke:url(#radialGradient7020);stroke-width:11.378198;stroke-linecap:round;stroke-linejoin:round;stroke-miterlimit:4.0000000;stroke-dashoffset:0.0000000;stroke-opacity:1.0000000"
           sodipodi:type="arc" />
        <path
           sodipodi:nodetypes="cczcz"
           id="path4422"
           d="M 23.906699,9.1878251 C 14.784781,13.095774 12.563478,21.134321 13.832353,23.183143 C 16.178286,19.479679 17.139323,16.116083 25.238531,13.052956 C 33.497024,9.9295872 37.911007,12.405880 40.478799,13.601807 C 42.286859,10.510558 33.182473,5.2139618 23.906699,9.1878251 z "
           style="fill:#000000;fill-opacity:0.21774192;fill-rule:evenodd;stroke:none;stroke-width:0.18320659pt;stroke-linecap:butt;stroke-linejoin:miter;stroke-opacity:1.0000000" />
      </g>
      <g
         transform="matrix(0.160584,0.000000,0.000000,0.161935,62.25434,-10.21308)"
         id="g5669">
        <path
           style="fill:url(#radialGradient7022);fill-opacity:1.0000000;stroke:url(#linearGradient7024);stroke-width:1.1605132;stroke-linecap:round;stroke-linejoin:round;stroke-miterlimit:4.0000000;stroke-dashoffset:0.0000000;stroke-opacity:1.0000000"
           d="M 3.3259720,45.542990 C 3.3259720,54.066100 -3.8695768,60.983407 -12.735530,60.983407 C -21.601476,60.983407 -28.797030,54.066100 -28.797030,45.542990 C -28.797030,37.019879 -21.601476,30.102573 -12.735530,30.102573 C -3.8695768,30.102573 3.3259720,37.019879 3.3259720,45.542990 z "
           id="path6344" />
        <path
           style="fill:url(#radialGradient7026);fill-opacity:1.0000000;stroke:none;stroke-width:1.7625000;stroke-linecap:round;stroke-linejoin:round;stroke-miterlimit:4.0000000;stroke-dashoffset:0.0000000;stroke-opacity:1.0000000"
           d="M -1.2522068,37.350633 C -0.68611182,40.874804 -3.9926678,44.287546 -12.943525,44.598699 C -21.884717,44.909515 -25.398085,42.103467 -24.634843,37.350633 C -23.879809,32.648887 -19.397136,30.102571 -12.943525,30.102571 C -6.4899178,30.102571 -1.8111548,33.870932 -1.2522068,37.350633 z "
           id="path9920"
           sodipodi:nodetypes="czzzz" />
        <path
           style="fill:url(#radialGradient7028);fill-opacity:1.0000000;stroke:none;stroke-width:1.7625000;stroke-linecap:round;stroke-linejoin:round;stroke-miterlimit:4.0000000;stroke-dashoffset:0.0000000;stroke-opacity:1.0000000"
           d="M -1.2522068,37.350633 C -0.55739582,41.626591 -5.8768078,44.629967 -12.943525,44.598699 C -20.128001,44.567432 -25.398085,42.103467 -24.634843,37.350633 C -23.879809,32.648887 -17.630754,30.102571 -12.825766,30.102571 C -7.9030188,30.102571 -1.9289128,33.186091 -1.2522068,37.350633 z "
           id="path11786"
           sodipodi:nodetypes="czzzz" />
      </g>
      <g
         id="g7959"
         transform="matrix(1.209645,0.000000,0.000000,1.160646,150.4632,-120.8212)">
        <path
           id="rect4229"
           d="M -76.910938,109.73824 L -72.304801,109.73824 C -71.244452,109.73824 -70.390813,110.55349 -70.390813,111.56615 L -70.390813,116.31309 C -70.390813,117.32576 -71.244452,118.14100 -72.304801,118.14100 L -76.910938,118.14100 C -77.971287,118.14100 -78.824926,117.32576 -78.824926,116.31309 L -78.824926,111.56615 C -78.824926,110.55349 -77.971287,109.73824 -76.910938,109.73824 z "
           style="fill:url(#linearGradient7030);fill-opacity:1.0000000;stroke:#000000;stroke-width:0.0000000;stroke-linecap:round;stroke-linejoin:round;stroke-miterlimit:4.0000000;stroke-dashoffset:0.0000000;stroke-opacity:1.0000000" />
        <path
           id="rect2643"
           d="M -76.797440,109.69218 L -72.426478,109.69218 C -71.366130,109.69218 -70.512491,110.50743 -70.512491,111.52009 L -70.512491,116.16978 C -70.512491,117.18244 -71.366130,117.99769 -72.426478,117.99769 L -76.797440,117.99769 C -77.857789,117.99769 -78.711427,117.18244 -78.711427,116.16978 L -78.711427,111.52009 C -78.711427,110.50743 -77.857789,109.69218 -76.797440,109.69218 z "
           style="fill:none;fill-opacity:0.0000000;stroke:url(#linearGradient7032);stroke-width:1.4602780;stroke-linecap:round;stroke-linejoin:round;stroke-miterlimit:4.0000000;stroke-dashoffset:0.0000000;stroke-opacity:1.0000000" />
        <path
           id="path4194"
           d="M -76.499153,111.31019 C -76.722911,111.32300 -76.929343,111.42960 -77.068064,111.60303 C -77.318602,111.91592 -77.284347,112.36716 -76.989594,112.63776 L -75.734063,113.84819 L -77.009212,115.06839 C -77.315056,115.36449 -77.312160,115.85023 -77.009212,116.15193 C -76.706263,116.45362 -76.216467,116.45779 -75.910622,116.16169 L -74.615856,114.91221 L -73.311281,116.16169 C -73.005437,116.45779 -72.515639,116.45362 -72.212692,116.15193 C -71.909743,115.85023 -71.916656,115.36449 -72.222499,115.06839 L -73.497648,113.84819 L -72.232309,112.63776 C -71.937556,112.36716 -71.903301,111.91592 -72.153838,111.60303 C -72.292561,111.42960 -72.498992,111.32300 -72.722751,111.31019 C -72.946508,111.29737 -73.164312,111.37820 -73.321089,111.53470 L -74.615856,112.77442 L -75.900814,111.53470 C -76.057592,111.37820 -76.275395,111.29737 -76.499153,111.31019 z "
           style="fill:url(#radialGradient7034);fill-opacity:1.0000000;fill-rule:evenodd;stroke:none;stroke-width:5.5625000;stroke-linecap:round;stroke-linejoin:miter;stroke-miterlimit:4.0000000;stroke-opacity:1.0000000" />
        <path
           sodipodi:nodetypes="czzzz"
           id="path5001"
           d="M -71.373246,109.71528 C -71.373246,110.04067 -72.015159,110.33155 -74.705669,110.30476 C -77.369254,110.27796 -79.351910,110.92147 -78.549650,109.90284 C -77.757528,108.89709 -76.168759,109.12581 -73.924871,109.09902 C -71.707910,109.07222 -71.373246,109.38989 -71.373246,109.71528 z "
           style="fill:url(#linearGradient7036);fill-opacity:1.0000000;stroke:url(#linearGradient7038);stroke-width:0.0000000;stroke-linecap:round;stroke-linejoin:round;stroke-miterlimit:4.0000000;stroke-dashoffset:0.0000000;stroke-opacity:1.0000000" />
        <path
           inkscape:export-ydpi="36.000000"
           inkscape:export-xdpi="36.000000"
           inkscape:export-filename="/home/nuno/kdeplayground-artwork/oooicons/crystalsvg/world.png"
           id="path89"
           style="fill:url(#radialGradient7040);fill-opacity:1.0000000"
           d="M -75.854120,111.81458 C -75.854120,112.03022 -76.117612,112.20504 -76.442663,112.20504 C -76.767688,112.20504 -77.031180,112.03024 -77.031180,111.81458 C -77.031180,111.59893 -76.767698,111.42412 -76.442663,111.42412 C -76.117612,111.42413 -75.854120,111.59893 -75.854120,111.81458 z "
           adobe-blending-mode="screen" />
        <path
           inkscape:export-ydpi="36.000000"
           inkscape:export-xdpi="36.000000"
           inkscape:export-filename="/home/nuno/kdeplayground-artwork/oooicons/crystalsvg/world.png"
           id="path6797"
           style="fill:url(#radialGradient7042);fill-opacity:1.0000000"
           d="M -72.190056,111.76497 C -72.190056,111.98061 -72.453549,112.15543 -72.778600,112.15543 C -73.103626,112.15543 -73.367117,111.98063 -73.367117,111.76497 C -73.367117,111.54932 -73.103635,111.37451 -72.778600,111.37451 C -72.453549,111.37452 -72.190056,111.54932 -72.190056,111.76497 z "
           adobe-blending-mode="screen" />
        <path
           sodipodi:nodetypes="cccccccccc"
           id="path6801"
           d="M -75.538383,113.99680 L -76.746951,115.13346 C -77.036826,115.40928 -77.133784,115.73774 -76.846653,116.01878 C -76.559523,116.29981 -76.244854,116.17967 -75.954978,115.90384 L -74.578263,114.76472 L -73.192252,116.05268 C -72.902378,116.32850 -72.587709,116.29981 -72.300578,116.01878 C -72.013447,115.73774 -72.194479,115.40928 -72.484355,115.13346 L -73.692922,113.99680 L -75.538383,113.99680 z "
           style="fill:url(#linearGradient7044);fill-opacity:1.0000000;fill-rule:evenodd;stroke:none;stroke-width:5.5625000;stroke-linecap:round;stroke-linejoin:miter;stroke-miterlimit:4.0000000;stroke-opacity:1.0000000" />
      </g>
      <path
         style="fill:url(#linearGradient7046);fill-opacity:1.0000000;stroke:url(#linearGradient7048);stroke-width:0.77526993;stroke-linejoin:round;stroke-miterlimit:4.0000000;stroke-opacity:0.44796380"
         d="M 74.449920,-7.6123650 L 99.986369,-7.6123650 C 102.16746,-7.6123650 103.92335,-6.4735850 103.92335,-5.0590480 L 103.92335,-0.61712104 C 103.92335,0.79741696 102.16746,1.9361960 99.986369,1.9361960 L 74.449920,1.9361960 C 72.268833,1.9361960 70.512939,0.79741696 70.512939,-0.61712104 L 70.512939,-5.0590480 C 70.512939,-6.4735850 72.268833,-7.6123650 74.449920,-7.6123650 z "
         id="rect8075" />
      <path
         style="fill:url(#linearGradient7050);fill-opacity:1.0000000;stroke:url(#linearGradient7052);stroke-width:0.77526993;stroke-linejoin:round;stroke-miterlimit:4.0000000;stroke-opacity:0.44796380"
         d="M 74.449920,6.5381760 L 99.986369,6.5381760 C 102.16746,6.5381760 103.92335,7.6769570 103.92335,9.0914930 L 103.92335,13.533420 C 103.92335,14.947957 102.16746,16.086737 99.986369,16.086737 L 74.449920,16.086737 C 72.268833,16.086737 70.512939,14.947957 70.512939,13.533420 L 70.512939,9.0914930 C 70.512939,7.6769570 72.268833,6.5381760 74.449920,6.5381760 z "
         id="rect9609" />
    </g>
    <g
       id="g21649"
       transform="matrix(0.582760,0.000000,0.000000,0.634717,9.937601,16.34711)">
      <path
         style="fill:#818080;fill-opacity:0.14999999;stroke:none;stroke-width:3.7750001;stroke-linecap:butt;stroke-linejoin:round;stroke-miterlimit:4.0000000;stroke-dashoffset:0.0000000;stroke-opacity:1.0000000"
         d="M 260.29533,227.71408 C 240.02933,227.84036 218.31699,231.30576 203.33575,241.72453 C 196.63509,246.43147 193.44553,254.01296 193.59140,258.94297 C 194.03575,261.03349 192.71241,322.29849 194.87355,328.89701 C 197.29982,333.60352 202.21157,337.14302 207.88738,339.99406 L 207.88738,340.28868 C 208.81887,340.69882 209.74460,340.95480 210.67607,341.33619 C 213.74446,342.68490 216.90192,343.92164 220.09988,344.90428 C 242.54067,351.12382 267.90194,351.76200 291.03491,347.16298 C 304.23999,344.13194 318.94708,339.56539 324.88370,329.84632 C 328.14657,324.39893 326.28202,269.18073 326.74281,264.47513 C 326.49236,251.14450 325.37770,249.16768 321.35778,245.35807 C 310.30063,234.28845 290.72402,229.82431 272.70013,228.20510 C 268.57811,227.86953 264.44340,227.71417 260.29533,227.71408 z "
         id="path19591"
         sodipodi:nodetypes="cccccccccccccc"
         transform="matrix(0.551307,0.000000,0.000000,0.559005,-102.8460,-121.9196)" />
      <path
         style="fill:#818783;fill-opacity:0.14999999;stroke:none;stroke-width:3.7750001;stroke-linecap:butt;stroke-linejoin:round;stroke-miterlimit:4.0000000;stroke-dashoffset:0.0000000;stroke-opacity:1.0000000"
         d="M 260.51765,226.38708 C 239.91535,226.51655 217.84271,230.06959 202.61287,240.75181 C 195.80101,245.57778 192.55853,253.35097 192.70682,258.40565 C 193.15854,260.54903 191.81324,323.36321 194.01024,330.12858 C 196.47677,334.95411 201.47004,338.58311 207.24003,341.50624 L 207.24003,341.80831 C 208.18697,342.22882 209.12807,342.49128 210.07499,342.88231 C 213.19430,344.26512 216.40416,345.53314 219.65519,346.54063 C 242.46837,352.91743 268.25049,353.57175 291.76734,348.85643 C 305.19156,345.74876 320.14270,341.06673 326.17783,331.10190 C 329.49485,325.51676 327.59936,268.90228 328.06780,264.07770 C 327.81318,250.40998 326.68003,248.38317 322.59340,244.47723 C 311.35277,233.12770 291.45129,228.55067 273.12830,226.89053 C 268.93788,226.54647 264.73457,226.38718 260.51765,226.38708 z "
         id="path18878"
         sodipodi:nodetypes="cccccccccccccc"
         transform="matrix(0.551307,0.000000,0.000000,0.559005,-102.8460,-121.9196)" />
      <g
         id="g15100"
         transform="matrix(0.551307,0.000000,0.000000,0.559005,-102.8460,-121.9196)">
        <path
           style="fill:#818783;fill-opacity:1.0000000;stroke:none;stroke-width:3.7750001;stroke-linecap:butt;stroke-linejoin:round;stroke-miterlimit:4.0000000;stroke-dashoffset:0.0000000;stroke-opacity:1.0000000"
           d="M 260.89731,275.58006 C 241.13951,275.70061 219.98621,279.00195 205.38065,288.94817 C 198.84802,293.44162 195.74351,300.68155 195.88573,305.38797 C 196.37338,307.63451 195.03218,319.90232 197.13913,326.20157 C 201.11293,333.74969 211.62472,338.43742 221.72805,341.47725 C 243.60613,347.41471 268.32266,348.03439 290.87554,343.64394 C 303.74951,340.75039 318.09671,336.38088 323.88446,327.10262 C 327.06553,321.90229 325.14301,316.14062 325.69067,310.66416 C 325.44649,297.93814 324.34757,296.07382 320.42845,292.43700 C 309.64859,281.86942 290.57648,277.60212 273.00457,276.05634 C 268.98591,275.73600 264.94138,275.58015 260.89731,275.58006 z "
           id="path15089"
           sodipodi:nodetypes="ccccccccccc" />
        <path
           style="fill:url(#linearGradient15099);fill-opacity:1.0000000;stroke:none;stroke-width:3.7750001;stroke-linecap:butt;stroke-linejoin:round;stroke-miterlimit:4.0000000;stroke-dashoffset:0.0000000;stroke-opacity:1.0000000"
           d="M 322.86327,303.43886 C 322.66933,312.00786 311.36739,318.32370 300.23827,321.73582 C 277.28351,328.67288 249.92978,328.99479 226.26952,323.31731 C 215.00934,320.51890 203.72644,315.66037 199.48827,308.02958 C 198.92193,306.04909 198.05468,304.99043 198.42577,307.74403 C 198.30523,310.28607 198.10433,312.97324 198.42577,315.58558 C 198.15301,320.58951 198.12151,325.89881 203.42577,329.88488 C 213.69549,338.59716 230.88868,342.29722 247.08202,343.74488 C 268.91582,345.52090 292.67031,343.34350 310.61327,334.62935 C 318.30952,330.78506 323.73700,324.66963 322.70702,318.24336 C 322.79120,315.18170 322.75484,305.93593 322.86327,303.43886 z "
           id="path15090"
           sodipodi:nodetypes="ccccccccccc" />
        <path
           style="fill:url(#linearGradient15098);fill-opacity:1.0000000;stroke:none;stroke-width:3.7724271;stroke-linecap:butt;stroke-linejoin:round;stroke-miterlimit:4.0000000;stroke-dashoffset:0.0000000;stroke-opacity:1.0000000"
           d="M 261.14326,279.73105 C 230.02641,279.73105 204.76801,289.65228 204.76801,301.88137 C 204.76801,314.11047 230.02641,324.03169 261.14326,324.03169 C 292.26012,324.03169 317.51852,314.11047 317.51852,301.88137 C 317.51852,289.65228 292.26012,279.73105 261.14326,279.73105 z M 261.39592,285.53916 C 290.46859,285.53916 314.07600,293.53629 314.07600,303.38309 C 314.07600,313.22989 290.46860,321.22702 261.39592,321.22702 C 232.32324,321.22702 208.71585,313.22989 208.71585,303.38309 C 208.71585,293.53628 232.32325,285.53916 261.39592,285.53916 z "
           id="path15091"
           sodipodi:nodetypes="cccccccccc" />
        <path
           sodipodi:type="arc"
           style="fill:url(#linearGradient15097);fill-opacity:1.0000000;stroke:none;stroke-width:3.7724271;stroke-linecap:butt;stroke-linejoin:round;stroke-miterlimit:4.0000000;stroke-dashoffset:0.0000000;stroke-opacity:1.0000000"
           id="path15092"
           sodipodi:cx="33.384850"
           sodipodi:cy="50.922665"
           sodipodi:rx="52.112938"
           sodipodi:ry="25.242205"
           d="M 85.497787 50.922665 A 52.112938 25.242205 0 1 1  -18.728088,50.922665 A 52.112938 25.242205 0 1 1  85.497787 50.922665 z"
           transform="matrix(1.005132,0.000000,0.000000,0.757545,226.8913,264.6372)" />
        <path
           style="fill:url(#linearGradient15096);fill-opacity:1.0000000;stroke:none;stroke-width:3.7724271;stroke-linecap:butt;stroke-linejoin:round;stroke-miterlimit:4.0000000;stroke-dashoffset:0.0000000;stroke-opacity:1.0000000"
           d="M 260.59237,276.50373 C 226.70391,276.50373 199.20848,287.90251 199.20848,301.96132 C 199.20848,316.02011 226.70391,327.44087 260.59237,327.44087 C 294.48082,327.44087 321.97626,316.02011 321.97626,301.96132 C 321.97626,287.90252 294.48083,276.50373 260.59237,276.50373 z M 260.74840,279.86439 C 291.49489,279.86439 316.45265,289.73219 316.45265,301.89542 C 316.45265,314.05866 291.49489,323.92645 260.74840,323.92645 C 230.00192,323.92645 205.04416,314.05866 205.04416,301.89542 C 205.04416,289.73219 230.00192,279.86439 260.74840,279.86439 z "
           id="path15093" />
        <path
           style="fill:url(#linearGradient15095);fill-opacity:1.0000000;stroke:none;stroke-width:3.7750001;stroke-linecap:butt;stroke-linejoin:round;stroke-miterlimit:4.0000000;stroke-dashoffset:0.0000000;stroke-opacity:1.0000000"
           d="M 322.82693,302.26246 C 322.33964,310.10980 311.62440,317.35349 300.49528,320.76561 C 277.54052,327.70267 249.89344,327.81839 226.23318,322.14091 C 214.97300,319.34250 203.15196,316.39168 198.38943,302.23761 C 198.34182,303.96329 198.26927,304.50510 198.24276,305.02541 C 201.96114,318.54480 216.37022,321.55129 227.63040,324.34970 C 251.29066,330.02718 278.79107,329.29289 301.74583,322.35583 C 312.76575,318.97719 322.06426,311.20585 322.76443,305.34217 C 322.77669,303.59414 322.79154,303.07754 322.82693,302.26246 z "
           id="path15094"
           sodipodi:nodetypes="ccccccccc" />
      </g>
      <g
         id="g15107"
         transform="matrix(0.551307,0.000000,0.000000,0.559005,-102.8460,-134.7683)">
        <path
           style="fill:#818783;fill-opacity:1.0000000;stroke:none;stroke-width:3.7750001;stroke-linecap:butt;stroke-linejoin:round;stroke-miterlimit:4.0000000;stroke-dashoffset:0.0000000;stroke-opacity:1.0000000"
           d="M 260.89731,275.58006 C 241.13951,275.70061 219.98621,279.00195 205.38065,288.94817 C 198.84802,293.44162 195.74351,300.68155 195.88573,305.38797 C 196.37338,307.63451 195.03218,319.90232 197.13913,326.20157 C 201.11293,333.74969 211.62472,338.43742 221.72805,341.47725 C 243.60613,347.41471 268.32266,348.03439 290.87554,343.64394 C 303.74951,340.75039 318.09671,336.38088 323.88446,327.10262 C 327.06553,321.90229 325.14301,316.14062 325.69067,310.66416 C 325.44649,297.93814 324.34757,296.07382 320.42845,292.43700 C 309.64859,281.86942 290.57648,277.60212 273.00457,276.05634 C 268.98591,275.73600 264.94138,275.58015 260.89731,275.58006 z "
           id="path15108"
           sodipodi:nodetypes="ccccccccccc" />
        <path
           style="fill:url(#linearGradient15114);fill-opacity:1.0000000;stroke:none;stroke-width:3.7750001;stroke-linecap:butt;stroke-linejoin:round;stroke-miterlimit:4.0000000;stroke-dashoffset:0.0000000;stroke-opacity:1.0000000"
           d="M 322.86327,303.43886 C 322.66933,312.00786 311.36739,318.32370 300.23827,321.73582 C 277.28351,328.67288 249.92978,328.99479 226.26952,323.31731 C 215.00934,320.51890 203.72644,315.66037 199.48827,308.02958 C 198.92193,306.04909 198.05468,304.99043 198.42577,307.74403 C 198.30523,310.28607 198.10433,312.97324 198.42577,315.58558 C 198.15301,320.58951 198.12151,325.89881 203.42577,329.88488 C 213.69549,338.59716 230.88868,342.29722 247.08202,343.74488 C 268.91582,345.52090 292.67031,343.34350 310.61327,334.62935 C 318.30952,330.78506 323.73700,324.66963 322.70702,318.24336 C 322.79120,315.18170 322.75484,305.93593 322.86327,303.43886 z "
           id="path15109"
           sodipodi:nodetypes="ccccccccccc" />
        <path
           style="fill:url(#linearGradient15115);fill-opacity:1.0000000;stroke:none;stroke-width:3.7724271;stroke-linecap:butt;stroke-linejoin:round;stroke-miterlimit:4.0000000;stroke-dashoffset:0.0000000;stroke-opacity:1.0000000"
           d="M 261.14326,279.73105 C 230.02641,279.73105 204.76801,289.65228 204.76801,301.88137 C 204.76801,314.11047 230.02641,324.03169 261.14326,324.03169 C 292.26012,324.03169 317.51852,314.11047 317.51852,301.88137 C 317.51852,289.65228 292.26012,279.73105 261.14326,279.73105 z M 261.39592,285.53916 C 290.46859,285.53916 314.07600,293.53629 314.07600,303.38309 C 314.07600,313.22989 290.46860,321.22702 261.39592,321.22702 C 232.32324,321.22702 208.71585,313.22989 208.71585,303.38309 C 208.71585,293.53628 232.32325,285.53916 261.39592,285.53916 z "
           id="path15110"
           sodipodi:nodetypes="cccccccccc" />
        <path
           sodipodi:type="arc"
           style="fill:url(#linearGradient15116);fill-opacity:1.0000000;stroke:none;stroke-width:3.7724271;stroke-linecap:butt;stroke-linejoin:round;stroke-miterlimit:4.0000000;stroke-dashoffset:0.0000000;stroke-opacity:1.0000000"
           id="path15111"
           sodipodi:cx="33.384850"
           sodipodi:cy="50.922665"
           sodipodi:rx="52.112938"
           sodipodi:ry="25.242205"
           d="M 85.497787 50.922665 A 52.112938 25.242205 0 1 1  -18.728088,50.922665 A 52.112938 25.242205 0 1 1  85.497787 50.922665 z"
           transform="matrix(1.005132,0.000000,0.000000,0.757545,226.8913,264.6372)" />
        <path
           style="fill:url(#linearGradient15117);fill-opacity:1.0000000;stroke:none;stroke-width:3.7724271;stroke-linecap:butt;stroke-linejoin:round;stroke-miterlimit:4.0000000;stroke-dashoffset:0.0000000;stroke-opacity:1.0000000"
           d="M 260.59237,276.50373 C 226.70391,276.50373 199.20848,287.90251 199.20848,301.96132 C 199.20848,316.02011 226.70391,327.44087 260.59237,327.44087 C 294.48082,327.44087 321.97626,316.02011 321.97626,301.96132 C 321.97626,287.90252 294.48083,276.50373 260.59237,276.50373 z M 260.74840,279.86439 C 291.49489,279.86439 316.45265,289.73219 316.45265,301.89542 C 316.45265,314.05866 291.49489,323.92645 260.74840,323.92645 C 230.00192,323.92645 205.04416,314.05866 205.04416,301.89542 C 205.04416,289.73219 230.00192,279.86439 260.74840,279.86439 z "
           id="path15112" />
        <path
           style="fill:url(#linearGradient15118);fill-opacity:1.0000000;stroke:none;stroke-width:3.7750001;stroke-linecap:butt;stroke-linejoin:round;stroke-miterlimit:4.0000000;stroke-dashoffset:0.0000000;stroke-opacity:1.0000000"
           d="M 322.82693,302.26246 C 322.33964,310.10980 311.62440,317.35349 300.49528,320.76561 C 277.54052,327.70267 249.89344,327.81839 226.23318,322.14091 C 214.97300,319.34250 203.15196,316.39168 198.38943,302.23761 C 198.34182,303.96329 198.26927,304.50510 198.24276,305.02541 C 201.96114,318.54480 216.37022,321.55129 227.63040,324.34970 C 251.29066,330.02718 278.79107,329.29289 301.74583,322.35583 C 312.76575,318.97719 322.06426,311.20585 322.76443,305.34217 C 322.77669,303.59414 322.79154,303.07754 322.82693,302.26246 z "
           id="path15113"
           sodipodi:nodetypes="ccccccccc" />
      </g>
      <path
         style="fill:#818783;fill-opacity:1.0000000;stroke:none;stroke-width:3.7750001;stroke-linecap:butt;stroke-linejoin:round;stroke-miterlimit:4.0000000;stroke-dashoffset:0.0000000;stroke-opacity:1.0000000"
         d="M 260.89731,275.58006 C 241.13951,275.70061 219.98621,279.00195 205.38065,288.94817 C 198.84802,293.44162 195.74351,300.68155 195.88573,305.38797 C 196.37338,307.63451 195.03218,319.90232 197.13913,326.20157 C 201.11293,333.74969 211.62472,338.43742 221.72805,341.47725 C 243.60613,347.41471 268.32266,348.03439 290.87554,343.64394 C 303.74951,340.75039 318.09671,336.38088 323.88446,327.10262 C 327.06553,321.90229 325.14301,316.14062 325.69067,310.66416 C 325.44649,297.93814 324.34757,296.07382 320.42845,292.43700 C 309.64859,281.86942 290.57648,277.60212 273.00457,276.05634 C 268.98591,275.73600 264.94138,275.58015 260.89731,275.58006 z "
         id="path15120"
         sodipodi:nodetypes="ccccccccccc"
         transform="matrix(0.551307,0.000000,0.000000,0.559005,-102.8460,-147.6169)" />
      <path
         style="fill:url(#linearGradient15126);fill-opacity:1.0000000;stroke:none;stroke-width:3.7750001;stroke-linecap:butt;stroke-linejoin:round;stroke-miterlimit:4.0000000;stroke-dashoffset:0.0000000;stroke-opacity:1.0000000"
         d="M 322.86327,303.43886 C 322.66933,312.00786 311.36739,318.32370 300.23827,321.73582 C 277.28351,328.67288 249.92978,328.99479 226.26952,323.31731 C 215.00934,320.51890 203.72644,315.66037 199.48827,308.02958 C 198.92193,306.04909 198.05468,304.99043 198.42577,307.74403 C 198.30523,310.28607 198.10433,312.97324 198.42577,315.58558 C 198.15301,320.58951 198.12151,325.89881 203.42577,329.88488 C 213.69549,338.59716 230.88868,342.29722 247.08202,343.74488 C 268.91582,345.52090 292.67031,343.34350 310.61327,334.62935 C 318.30952,330.78506 323.73700,324.66963 322.70702,318.24336 C 322.79120,315.18170 322.75484,305.93593 322.86327,303.43886 z "
         id="path15121"
         sodipodi:nodetypes="ccccccccccc"
         transform="matrix(0.551307,0.000000,0.000000,0.559005,-102.8460,-147.6169)" />
      <path
         style="fill:url(#linearGradient15127);fill-opacity:1.0000000;stroke:none;stroke-width:3.7724271;stroke-linecap:butt;stroke-linejoin:round;stroke-miterlimit:4.0000000;stroke-dashoffset:0.0000000;stroke-opacity:1.0000000"
         d="M 261.14326,279.73105 C 230.02641,279.73105 204.76801,289.65228 204.76801,301.88137 C 204.76801,314.11047 230.02641,324.03169 261.14326,324.03169 C 292.26012,324.03169 317.51852,314.11047 317.51852,301.88137 C 317.51852,289.65228 292.26012,279.73105 261.14326,279.73105 z M 261.39592,285.53916 C 290.46859,285.53916 314.07600,293.53629 314.07600,303.38309 C 314.07600,313.22989 290.46860,321.22702 261.39592,321.22702 C 232.32324,321.22702 208.71585,313.22989 208.71585,303.38309 C 208.71585,293.53628 232.32325,285.53916 261.39592,285.53916 z "
         id="path15122"
         sodipodi:nodetypes="cccccccccc"
         transform="matrix(0.551307,0.000000,0.000000,0.559005,-102.8460,-147.6169)" />
      <path
         sodipodi:type="arc"
         style="fill:url(#linearGradient15128);fill-opacity:1.0000000;stroke:none;stroke-width:3.7724271;stroke-linecap:butt;stroke-linejoin:round;stroke-miterlimit:4.0000000;stroke-dashoffset:0.0000000;stroke-opacity:1.0000000"
         id="path15123"
         sodipodi:cx="33.384850"
         sodipodi:cy="50.922665"
         sodipodi:rx="52.112938"
         sodipodi:ry="25.242205"
         d="M 85.497787 50.922665 A 52.112938 25.242205 0 1 1  -18.728088,50.922665 A 52.112938 25.242205 0 1 1  85.497787 50.922665 z"
         transform="matrix(0.554136,0.000000,0.000000,0.423471,22.24076,0.316626)" />
      <path
         style="fill:url(#linearGradient15130);fill-opacity:1.0000000;stroke:none;stroke-width:3.7750001;stroke-linecap:butt;stroke-linejoin:round;stroke-miterlimit:4.0000000;stroke-dashoffset:0.0000000;stroke-opacity:1.0000000"
         d="M 322.82693,302.26246 C 322.33964,310.10980 311.62440,317.35349 300.49528,320.76561 C 277.54052,327.70267 249.89344,327.81839 226.23318,322.14091 C 222.51441,321.13452 203.15196,316.39168 198.38943,302.23761 C 198.34182,303.96329 198.26927,304.50510 198.24276,305.02541 C 201.96114,318.54480 220.92493,322.74597 227.63040,324.34970 C 251.29066,330.02718 278.79107,329.29289 301.74583,322.35583 C 312.76575,318.97719 322.06426,311.20585 322.76443,305.34217 C 322.77669,303.59414 322.79154,303.07754 322.82693,302.26246 z "
         id="path15125"
         sodipodi:nodetypes="ccccccccc"
         transform="matrix(0.551307,0.000000,0.000000,0.559005,-102.8460,-147.6169)" />
      <path
         style="fill:url(#linearGradient15129);fill-opacity:1.0000000;stroke:none;stroke-width:3.7724271;stroke-linecap:butt;stroke-linejoin:round;stroke-miterlimit:4.0000000;stroke-dashoffset:0.0000000;stroke-opacity:1.0000000"
         d="M 260.59238,230.53399 C 226.70392,230.53399 199.20849,241.71280 199.20849,255.50031 C 199.20849,269.28780 226.70392,280.48817 260.59238,280.48817 C 294.48083,280.48817 321.97627,269.28780 321.97627,255.50031 C 321.97627,241.71281 294.48084,230.53399 260.59238,230.53399 z M 260.74841,233.82980 C 291.49490,233.82980 316.45266,243.50717 316.45266,255.43568 C 316.45266,267.36420 291.49490,277.04157 260.74841,277.04157 C 230.00193,277.04157 205.04417,267.36420 205.04417,255.43568 C 205.04417,243.50717 230.00193,233.82980 260.74841,233.82980 z "
         id="path15124"
         transform="matrix(0.551307,0.000000,0.000000,0.559005,-102.8460,-121.9196)" />
      <path
         style="fill:url(#linearGradient15758);fill-opacity:1.0000000;fill-rule:evenodd;stroke:none;stroke-width:0.25000000pt;stroke-linecap:butt;stroke-linejoin:miter;stroke-opacity:1.0000000"
         d="M 210.36519,269.66987 C 214.22664,272.59874 227.28642,277.08126 232.93567,277.65629 L 232.02206,343.49000 C 224.61485,342.58770 217.20764,340.27531 209.80044,337.08162 L 210.36519,269.66987 z "
         id="path15131"
         sodipodi:nodetypes="ccccc"
         transform="matrix(0.551307,0.000000,0.000000,0.559005,-102.8460,-121.9196)" />
      <path
         style="fill:url(#linearGradient21648);fill-opacity:1.0000000;fill-rule:evenodd;stroke:none;stroke-width:0.25000000pt;stroke-linecap:butt;stroke-linejoin:miter;stroke-opacity:1.0000000"
         d="M 75.981664,21.212174 L 75.335011,59.953774 C 74.239336,62.522463 71.961666,64.415727 69.515139,65.126994 L 69.698383,29.561108 C 73.481375,26.834416 75.575802,24.783150 75.981664,21.212174 z "
         id="path21023"
         sodipodi:nodetypes="ccccc" />
    </g>
    <g
       transform="matrix(0.801875,0.128191,-0.112098,0.814521,-22.37110,-13.38817)"
       id="g5319">
      <path
         transform="matrix(1.095529,-0.161395,6.257485e-2,0.996904,26.11163,9.028099)"
         sodipodi:nodetypes="cccccccccccccccccccccccccccccccc"
         id="path1816"
         d="M 49.642323,8.0001778 C 49.372088,7.9239165 49.143500,7.9742629 48.997792,8.0259591 C 48.707121,8.1287244 48.209310,8.4631233 48.224355,9.5212716 L 48.379042,20.736115 C 48.387375,21.390736 47.896229,22.199149 47.322011,22.437678 L 37.473573,26.536897 C 36.545207,26.916831 36.449052,27.500615 36.468105,27.825959 C 36.487155,28.151303 36.675181,28.771269 37.654042,29.140803 L 47.992323,33.033772 C 48.593156,33.264079 49.183401,34.029185 49.255605,34.683772 L 50.467323,45.898615 C 50.584236,46.955358 51.119057,47.295999 51.421230,47.393928 C 51.724844,47.491327 52.326557,47.529309 52.916537,46.697834 L 59.155600,37.880647 C 59.195381,37.824222 59.285372,37.802851 59.336077,37.751740 L 74.960820,78.233670 C 75.291233,79.139543 75.465308,79.914809 76.476940,79.545829 L 78.616792,78.746611 C 79.628423,78.377628 79.516982,77.406726 79.186586,76.500854 L 65.023997,38.070628 L 71.607952,40.046272 C 72.608941,40.315180 73.038650,39.924934 73.206389,39.659553 C 73.374095,39.394170 73.563268,38.812669 72.948577,37.932209 L 66.451702,28.573615 C 66.080386,28.037463 66.018065,27.051550 66.322787,26.511115 L 71.659514,17.049397 C 72.161428,16.157718 71.911090,15.583814 71.711077,15.322053 C 71.511047,15.060289 71.028472,14.676474 70.061077,14.961115 L 59.800139,18.003303 C 59.213828,18.177147 58.313192,17.884381 57.892327,17.384553 L 50.570448,8.6962716 C 50.224653,8.2874214 49.912559,8.0764375 49.642323,8.0001778 z "
         style="fill:#000000;fill-opacity:0.099999972;stroke:none;stroke-width:0.33090088;stroke-linejoin:round;stroke-miterlimit:4.0000000;stroke-opacity:0.087499984" />
      <path
         id="rect1353"
         d="M 65.925620,8.9076719 L 68.692072,8.9076719 C 69.997314,8.9076719 71.048105,9.8486074 71.048105,11.017393 L 71.048105,68.739583 C 71.048105,69.908368 69.997314,70.849303 68.692072,70.849303 L 65.925620,70.849303 C 64.620378,70.849303 63.569588,69.908368 63.569588,68.739583 L 63.569588,11.017393 C 63.569588,9.8486074 64.620378,8.9076719 65.925620,8.9076719 z "
         style="fill:#000000;fill-opacity:1.0000000;stroke:none;stroke-width:0.96249998;stroke-linecap:round;stroke-linejoin:round;stroke-miterlimit:4.0000000;stroke-dashoffset:0.0000000;stroke-opacity:0.036734644"
         transform="matrix(0.687595,-0.336290,0.358030,0.727112,39.95577,47.05260)" />
      <path
         sodipodi:nodetypes="ccccccccc"
         transform="matrix(0.768650,-6.678086e-2,0.100746,0.798325,39.95577,47.05260)"
         id="path1976"
         d="M 67.698064,-9.5640421 L 70.049498,-10.382516 C 71.158930,-10.768681 71.220131,-9.9611296 71.565925,-8.9676817 L 89.274498,39.602494 C 89.620291,40.595940 89.401634,41.945506 88.292201,42.331672 L 86.107092,43.020303 C 84.997659,43.406469 84.671708,42.988309 84.325915,41.994862 L 66.319656,-7.0737685 C 65.973862,-8.0672161 66.588632,-9.1778771 67.698064,-9.5640421 z "
         style="fill:url(#radialGradient9037);fill-opacity:1.0000000;stroke:none;stroke-width:0.96249998;stroke-linecap:round;stroke-linejoin:round;stroke-miterlimit:4.0000000;stroke-dashoffset:0.0000000;stroke-opacity:0.036734644" />
      <path
         sodipodi:nodetypes="csccc"
         id="path2607"
         d="M 89.796171,31.583299 C 95.586901,43.397423 99.978180,48.744941 104.04718,61.111926 C 106.01110,67.080912 105.84096,67.882372 105.10246,68.243230 C 98.304010,54.678799 95.119508,47.849479 88.321031,34.285051 C 88.977014,33.493981 89.140186,32.374368 89.796171,31.583299 z "
         style="fill:url(#linearGradient9038);fill-opacity:1.0000000;fill-rule:evenodd;stroke:none;stroke-width:0.25354896pt;stroke-linecap:butt;stroke-linejoin:miter;stroke-opacity:1.0000000" />
      <path
         transform="matrix(1.095529,-0.161395,6.257485e-2,0.996904,26.11163,9.028099)"
         id="path6094"
         d="M 48.811637,26.089317 C 48.813292,25.635300 48.814948,25.181281 48.816605,24.727272 C 48.818261,24.273254 48.819916,23.819236 48.821581,23.365219 C 48.812842,22.871707 48.951671,22.570907 49.337771,22.540552 C 50.618106,22.535949 51.898433,22.531354 53.178768,22.526759 C 54.459103,22.522165 55.739429,22.517570 57.019765,22.512967 C 56.962739,23.974627 51.485706,23.674168 50.721596,23.760146 C 49.320058,23.917847 50.361741,25.555093 48.811637,26.089317 z "
         style="fill:url(#linearGradient9039);fill-opacity:1.0000000;fill-rule:evenodd;stroke:none;stroke-width:0.012500000;stroke-linecap:butt;stroke-linejoin:miter;stroke-miterlimit:4.0000000;stroke-opacity:1.0000000" />
      <path
         style="fill:url(#linearGradient9040)"
         id="path1106"
         d="M 108.72185,24.316186 C 108.62520,24.510332 108.44340,24.762996 108.10957,24.939135 C 108.44415,24.763528 108.63235,24.524373 108.73469,24.341386 C 108.89565,24.055314 109.04957,23.524181 108.67978,22.836739 C 108.98918,23.520791 108.86198,24.033236 108.72185,24.316186 z " />
      <path
         transform="matrix(1.095529,-0.161395,6.257485e-2,0.996904,26.11163,9.028099)"
         style="fill:url(#radialGradient9041);stroke:url(#linearGradient9042);stroke-width:0.27299324;stroke-linejoin:round;stroke-miterlimit:4.0000000;stroke-opacity:0.41874996"
         id="path1107"
         d="M 67.970791,12.389828 C 67.780948,12.132512 67.325030,11.742237 66.406859,12.022041 L 56.682194,15.010535 C 56.125721,15.181425 55.256373,14.891232 54.856916,14.399898 L 47.913452,5.8560929 C 47.257056,5.0522896 46.697615,5.1035164 46.421028,5.2051498 C 46.145151,5.3061702 45.685132,5.6329304 45.699412,6.6730995 L 45.848254,17.712472 C 45.856164,18.355970 45.384514,19.128446 44.839518,19.362921 L 35.494127,23.393973 C 34.613007,23.767453 34.511732,24.359433 34.529812,24.679248 C 34.547894,24.999064 34.717694,25.589646 35.646739,25.952900 L 45.459941,29.786664 C 46.030199,30.013058 46.594678,30.777313 46.663207,31.420775 L 47.825903,42.446661 C 47.936866,43.485447 48.435260,43.800908 48.722056,43.897173 C 49.010221,43.992917 49.576053,44.031913 50.136015,43.214566 L 56.054119,34.549858 C 56.400044,34.041671 57.219822,33.738505 57.809292,33.900637 L 67.874028,36.693806 C 68.824077,36.958146 69.232425,36.559735 69.391613,36.298863 C 69.550801,36.037991 69.729723,35.470734 69.146315,34.605234 L 62.988715,25.411862 C 62.636289,24.884819 62.578724,23.921488 62.867933,23.390235 L 67.929806,14.085138 C 68.406172,13.208611 68.160634,12.647142 67.970791,12.389828 z " />
      <path
         transform="matrix(1.095529,-0.161395,6.257485e-2,0.996904,26.11163,9.028099)"
         style="fill:url(#linearGradient9043)"
         id="path1108"
         d="M 61.990082,22.112126 L 65.049047,15.927623 C 65.416909,15.183759 65.205288,14.694928 65.045695,14.469160 C 64.886625,14.243194 64.508443,13.897420 63.769064,14.118442 L 55.942795,16.478315 C 55.494764,16.613596 54.783737,16.344391 54.449113,15.912614 L 48.631896,8.4057430 C 48.082596,7.6993054 47.629460,7.7314458 47.407465,7.8125672 C 47.185730,7.8935905 46.819498,8.1648604 46.853490,9.0602766 L 47.210775,18.567077 C 47.231062,19.121111 46.865132,19.775900 46.427743,19.965558 L 38.931697,23.231213 C 38.224850,23.533198 38.155189,24.040541 38.176944,24.316531 C 38.198583,24.592209 38.348728,25.104393 39.110463,25.437332 L 47.154460,28.952668 C 47.621973,29.159781 48.096508,29.830501 48.165858,30.385845 L 48.203872,30.690211 C 49.051802,30.451466 49.900582,30.177133 50.747082,29.855580 C 55.369458,28.099712 59.221704,25.346209 61.990082,22.112126 z " />
      <path
         style="fill:url(#linearGradient9044)"
         id="path1109"
         d="M 109.10166,24.203836 C 109.00342,24.398914 108.81908,24.653001 108.48170,24.830910 C 108.81984,24.653531 109.01058,24.412967 109.11451,24.229062 C 109.27795,23.941547 109.43525,23.408284 109.06494,22.720230 C 109.37435,23.405111 109.24408,23.919533 109.10166,24.203836 z " />
      <path
         transform="matrix(1.095529,-0.161395,6.257485e-2,0.996904,26.11163,9.028099)"
         style="opacity:0.29999998;fill:#e89500"
         id="path1110"
         d="M 57.095660,31.977473 C 56.486970,31.778631 55.658496,32.084749 55.321434,32.631856 L 50.004104,43.168761 C 49.458452,44.048947 48.878004,43.987081 48.580108,43.871470 C 48.368078,43.788852 48.042692,43.573076 47.819605,43.039864 C 48.016138,43.628162 48.370781,43.842786 48.597359,43.917818 C 48.887914,44.012859 49.458900,44.050151 50.026617,43.229252 L 56.026757,34.526942 C 56.377484,34.016551 57.205847,33.710132 57.800311,33.870753 L 67.950248,36.638174 C 68.428767,36.768986 68.771860,36.734494 69.015270,36.634131 C 68.772084,36.735096 68.425519,36.760259 67.935575,36.598748 L 57.095660,31.977473 z " />
    </g>
    <g
       id="use1100"
       transform="matrix(4.911153e-2,-7.544173e-3,7.055102e-3,4.801053e-2,6.144859,14.73793)">
      <path
         d="M 100.83400,121.62900 C 100.42400,121.95300 99.773000,122.31300 98.885000,122.33600 C 99.774000,122.31500 100.42400,121.99200 100.83400,121.69900 C 101.47700,121.24200 102.36700,120.23400 102.32600,118.30300 C 102.24400,120.16000 101.43000,121.15600 100.83400,121.62900 z "
         id="path2522"
         style="fill:url(#linearGradient1885)"
         transform="matrix(2.866710,0.000000,0.000000,2.859933,1.730878,-0.176255)" />
      <path
         d="M 368.14861,151.61839 C 367.25764,148.68557 364.31536,143.66923 354.63309,143.05518 L 251.99676,136.77407 C 246.12405,136.41358 238.91340,130.89011 236.86209,125.16501 L 201.21733,25.620435 C 197.83400,16.244597 192.35498,14.808740 189.37718,14.778190 C 186.40826,14.744585 180.89963,16.097956 177.36831,25.406584 L 139.86464,124.19047 C 137.67125,129.94611 130.48132,135.22823 124.49317,135.47263 L 21.773958,139.75576 C 12.112398,140.10098 9.0665179,145.02872 8.1104279,147.93709 C 7.1543379,150.84547 6.6807279,156.67749 14.199228,163.05329 L 93.625898,230.37053 C 98.228758,234.31455 100.88095,243.02745 99.261808,248.98778 L 71.407858,351.08024 C 68.797108,360.70353 72.405398,365.19746 74.782298,367.02436 C 77.174008,368.85126 82.395518,371.11197 90.580018,365.72903 L 177.17295,308.60332 C 182.24053,305.24892 191.07328,305.32224 196.08462,308.75913 L 281.56161,367.66286 C 289.62771,373.22909 294.89954,371.06309 297.32677,369.27896 C 299.75400,367.49483 303.44812,363.04978 300.97353,353.37150 L 275.06137,250.70164 C 273.58135,244.81769 276.43187,236.04674 281.04360,232.29519 L 361.78454,166.57267 C 369.38591,160.38016 369.03958,154.55120 368.14861,151.61839 z "
         id="path2524"
         style="fill:url(#radialGradient1887);stroke:url(#linearGradient1889);stroke-width:2.6780922;stroke-linejoin:round;stroke-miterlimit:4.0000000;stroke-opacity:0.41874996"
         transform="matrix(0.968471,0.000000,0.000000,0.936144,3.628952,5.987797)" />
      <path
         d="M 272.12380,210.01832 L 321.29466,168.15956 C 327.20826,163.12463 326.93597,158.38064 326.24285,155.99379 C 325.55521,153.60695 323.26679,149.52793 315.73039,149.02920 L 235.88858,143.92006 C 231.31724,143.62912 225.71444,139.13450 224.11916,134.47660 L 196.38852,53.496225 C 193.76179,45.869616 189.49573,44.702914 187.18257,44.676197 C 184.87213,44.649478 180.58684,45.750867 177.84183,53.321071 L 148.66441,133.68394 C 146.95911,138.36561 141.36732,142.66428 136.70796,142.86022 L 56.802904,146.34550 C 49.288503,146.62453 46.917566,150.63230 46.174926,153.00133 C 45.432287,155.36740 45.060967,160.11139 50.911309,165.29772 L 112.69324,220.06144 C 116.27441,223.26765 118.33730,230.35988 117.07756,235.20779 L 116.38719,237.86479 C 124.97977,238.55946 133.70164,238.96023 142.56379,238.96023 C 190.95627,238.96023 235.69055,228.20758 272.12380,210.01832 z "
         id="path2526"
         style="fill:url(#linearGradient1891)" />
      <path
         d="M 299.22339,365.51044 C 297.99702,366.50125 296.04978,367.60216 293.39366,367.67249 C 296.05278,367.60828 297.99702,366.62051 299.22339,365.72450 C 301.14668,364.32696 303.80880,361.24442 303.68617,355.33929 C 303.44089,361.01813 301.00610,364.06397 299.22339,365.51044 z "
         id="path2528"
         style="fill:url(#linearGradient1893)"
         transform="matrix(0.968471,0.000000,0.000000,0.936144,3.628952,5.987797)" />
      <path
         d="M 193.55166,276.74324 C 188.64733,273.15902 180.00320,273.08745 175.04381,276.58006 L 90.299998,347.56303 C 82.290263,353.17124 77.177363,350.81802 74.839625,348.91139 C 73.176843,347.55158 70.928905,344.72313 70.702947,339.57296 C 70.497279,345.09816 73.017518,348.00963 74.839625,349.35228 C 77.180261,351.06423 82.290263,353.18269 90.299998,348.13845 L 175.04381,294.60707 C 180.00320,291.46372 188.64733,291.53243 193.55166,294.75307 L 277.20336,349.95060 C 281.14595,352.55574 284.41068,353.35446 286.98596,353.28862 C 284.41068,353.36019 281.14595,352.47272 277.20336,349.57557 L 193.55166,276.74324 z "
         id="path2530"
         style="opacity:0.29999998;fill:#e89500" />
    </g>
    <g
       id="g2532"
       transform="matrix(2.914404e-2,1.211151e-2,-1.257654e-2,2.904944e-2,4.271083,31.24610)">
      <path
         d="M 100.83400,121.62900 C 100.42400,121.95300 99.773000,122.31300 98.885000,122.33600 C 99.774000,122.31500 100.42400,121.99200 100.83400,121.69900 C 101.47700,121.24200 102.36700,120.23400 102.32600,118.30300 C 102.24400,120.16000 101.43000,121.15600 100.83400,121.62900 z "
         id="path2534"
         style="fill:url(#linearGradient2544)"
         transform="matrix(2.866710,0.000000,0.000000,2.859933,1.730878,-0.176255)" />
      <path
         d="M 368.14861,151.61839 C 367.25764,148.68557 364.31536,143.66923 354.63309,143.05518 L 251.99676,136.77407 C 246.12405,136.41358 238.91340,130.89011 236.86209,125.16501 L 201.21733,25.620435 C 197.83400,16.244597 192.35498,14.808740 189.37718,14.778190 C 186.40826,14.744585 180.89963,16.097956 177.36831,25.406584 L 139.86464,124.19047 C 137.67125,129.94611 130.48132,135.22823 124.49317,135.47263 L 21.773958,139.75576 C 12.112398,140.10098 9.0665179,145.02872 8.1104279,147.93709 C 7.1543379,150.84547 6.6807279,156.67749 14.199228,163.05329 L 93.625898,230.37053 C 98.228758,234.31455 100.88095,243.02745 99.261808,248.98778 L 71.407858,351.08024 C 68.797108,360.70353 72.405398,365.19746 74.782298,367.02436 C 77.174008,368.85126 82.395518,371.11197 90.580018,365.72903 L 177.17295,308.60332 C 182.24053,305.24892 191.07328,305.32224 196.08462,308.75913 L 281.56161,367.66286 C 289.62771,373.22909 294.89954,371.06309 297.32677,369.27896 C 299.75400,367.49483 303.44812,363.04978 300.97353,353.37150 L 275.06137,250.70164 C 273.58135,244.81769 276.43187,236.04674 281.04360,232.29519 L 361.78454,166.57267 C 369.38591,160.38016 369.03958,154.55120 368.14861,151.61839 z "
         id="path2536"
         style="fill:url(#radialGradient2546);stroke:url(#linearGradient2548);stroke-width:2.6780922;stroke-linejoin:round;stroke-miterlimit:4.0000000;stroke-opacity:0.41874996"
         transform="matrix(0.968471,0.000000,0.000000,0.936144,3.628952,5.987797)" />
      <path
         d="M 272.12380,210.01832 L 321.29466,168.15956 C 327.20826,163.12463 326.93597,158.38064 326.24285,155.99379 C 325.55521,153.60695 323.26679,149.52793 315.73039,149.02920 L 235.88858,143.92006 C 231.31724,143.62912 225.71444,139.13450 224.11916,134.47660 L 196.38852,53.496225 C 193.76179,45.869616 189.49573,44.702914 187.18257,44.676197 C 184.87213,44.649478 180.58684,45.750867 177.84183,53.321071 L 148.66441,133.68394 C 146.95911,138.36561 141.36732,142.66428 136.70796,142.86022 L 56.802904,146.34550 C 49.288503,146.62453 46.917566,150.63230 46.174926,153.00133 C 45.432287,155.36740 45.060967,160.11139 50.911309,165.29772 L 112.69324,220.06144 C 116.27441,223.26765 118.33730,230.35988 117.07756,235.20779 L 116.38719,237.86479 C 124.97977,238.55946 133.70164,238.96023 142.56379,238.96023 C 190.95627,238.96023 235.69055,228.20758 272.12380,210.01832 z "
         id="path2538"
         style="fill:url(#linearGradient2550)" />
      <path
         d="M 299.22339,365.51044 C 297.99702,366.50125 296.04978,367.60216 293.39366,367.67249 C 296.05278,367.60828 297.99702,366.62051 299.22339,365.72450 C 301.14668,364.32696 303.80880,361.24442 303.68617,355.33929 C 303.44089,361.01813 301.00610,364.06397 299.22339,365.51044 z "
         id="path2540"
         style="fill:url(#linearGradient2552)"
         transform="matrix(0.968471,0.000000,0.000000,0.936144,3.628952,5.987797)" />
      <path
         d="M 193.55166,276.74324 C 188.64733,273.15902 180.00320,273.08745 175.04381,276.58006 L 90.299998,347.56303 C 82.290263,353.17124 77.177363,350.81802 74.839625,348.91139 C 73.176843,347.55158 70.928905,344.72313 70.702947,339.57296 C 70.497279,345.09816 73.017518,348.00963 74.839625,349.35228 C 77.180261,351.06423 82.290263,353.18269 90.299998,348.13845 L 175.04381,294.60707 C 180.00320,291.46372 188.64733,291.53243 193.55166,294.75307 L 277.20336,349.95060 C 281.14595,352.55574 284.41068,353.35446 286.98596,353.28862 C 284.41068,353.36019 281.14595,352.47272 277.20336,349.57557 L 193.55166,276.74324 z "
         id="path2542"
         style="opacity:0.29999998;fill:#e89500" />
    </g>
  </g>
</svg>
