<?xml version="1.0" encoding="UTF-8" standalone="no"?>
<!DOCTYPE svg PUBLIC "-//W3C//DTD SVG 20010904//EN"
"http://www.w3.org/TR/2001/REC-SVG-20010904/DTD/svg10.dtd">
<!-- Created with Inkscape (http://www.inkscape.org/) -->
<svg
   width="64pt"
   height="64pt"
   id="svg19592"
   sodipodi:version="0.32"
   inkscape:version="0.40"
   sodipodi:docbase="/home/nuno/kdeplayground-artwork/oooicons/crystalsvg"
   sodipodi:docname="dbnew.svg"
   inkscape:export-filename="/home/nuno/kdeplayground-artwork/oooicons/crystalsvg/dbnew.png"
   inkscape:export-xdpi="36.000000"
   inkscape:export-ydpi="36.000000"
   xmlns="http://www.w3.org/2000/svg"
   xmlns:cc="http://web.resource.org/cc/"
   xmlns:inkscape="http://www.inkscape.org/namespaces/inkscape"
   xmlns:sodipodi="http://sodipodi.sourceforge.net/DTD/sodipodi-0.dtd"
   xmlns:rdf="http://www.w3.org/1999/02/22-rdf-syntax-ns#"
   xmlns:dc="http://purl.org/dc/elements/1.1/"
   xmlns:xlink="http://www.w3.org/1999/xlink">
  <defs
     id="defs3">
    <linearGradient
       id="light75to0">
      <stop
         style="stop-color:#ffffff;stop-opacity:0.72916669;"
         offset="0.0000000"
         id="stop2769" />
      <stop
         style="stop-color:#ffffff;stop-opacity:0.0000000;"
         offset="1.0000000"
         id="stop2770" />
    </linearGradient>
    <linearGradient
       inkscape:collect="always"
       xlink:href="#light75to0"
       id="linearGradient15758"
       gradientTransform="scale(0.526614,1.898924)"
       x1="406.16541"
       y1="148.64583"
       x2="414.83224"
       y2="189.94398"
       gradientUnits="userSpaceOnUse" />
    <linearGradient
       inkscape:collect="always"
       xlink:href="#graytolightgray"
       id="linearGradient15129"
       gradientUnits="userSpaceOnUse"
       gradientTransform="scale(1.729412,0.578231)"
       x1="130.60602"
       y1="408.28738"
       x2="180.75517"
       y2="470.93375" />
    <linearGradient
       inkscape:collect="always"
       xlink:href="#blacktowhite"
       id="linearGradient15130"
       gradientUnits="userSpaceOnUse"
       gradientTransform="matrix(1.494665,0.000000,0.000000,0.470262,21.13456,163.2076)"
       x1="142.19385"
       y1="278.92441"
       x2="166.65126"
       y2="368.52307" />
    <linearGradient
       inkscape:collect="always"
       xlink:href="#graytolightgray"
       id="linearGradient15128"
       gradientUnits="userSpaceOnUse"
       gradientTransform="scale(1.436842,0.695971)"
       x1="8.4329405"
       y1="88.576233"
       x2="46.346687"
       y2="39.269283" />
    <linearGradient
       inkscape:collect="always"
       xlink:href="#blacktowhite"
       id="linearGradient15127"
       gradientUnits="userSpaceOnUse"
       gradientTransform="matrix(1.337508,0.000000,0.000000,0.525518,9.323765,244.4874)"
       x1="232.27733"
       y1="140.27173"
       x2="147.05203"
       y2="81.484245" />
    <linearGradient
       inkscape:collect="always"
       xlink:href="#blacktowhite"
       id="linearGradient15126"
       gradientUnits="userSpaceOnUse"
       gradientTransform="matrix(1.494665,0.000000,0.000000,0.470262,13.18526,232.9367)"
       x1="253.08090"
       y1="206.53716"
       x2="123.30837"
       y2="205.96529" />
    <linearGradient
       inkscape:collect="always"
       xlink:href="#blacktowhite"
       id="linearGradient15118"
       gradientUnits="userSpaceOnUse"
       gradientTransform="matrix(1.494665,0.000000,0.000000,0.470262,21.13456,163.2076)"
       x1="142.19385"
       y1="278.92441"
       x2="166.65126"
       y2="368.52307" />
    <linearGradient
       inkscape:collect="always"
       xlink:href="#graytolightgray"
       id="linearGradient15117"
       gradientUnits="userSpaceOnUse"
       gradientTransform="matrix(1.435849,0.000000,0.000000,0.489525,9.323765,244.4874)"
       x1="133.23598"
       y1="111.26886"
       x2="216.75711"
       y2="109.89973" />
    <linearGradient
       inkscape:collect="always"
       xlink:href="#graytolightgray"
       id="linearGradient15116"
       gradientUnits="userSpaceOnUse"
       gradientTransform="scale(1.436842,0.695971)"
       x1="-0.36880860"
       y1="75.553932"
       x2="59.273689"
       y2="75.553932" />
    <linearGradient
       inkscape:collect="always"
       xlink:href="#blacktowhite"
       id="linearGradient15115"
       gradientUnits="userSpaceOnUse"
       gradientTransform="matrix(1.337508,0.000000,0.000000,0.525518,9.323765,244.4874)"
       x1="232.27733"
       y1="140.27173"
       x2="147.05203"
       y2="81.484245" />
    <linearGradient
       inkscape:collect="always"
       xlink:href="#blacktowhite"
       id="linearGradient15114"
       gradientUnits="userSpaceOnUse"
       gradientTransform="matrix(1.494665,0.000000,0.000000,0.470262,13.18526,232.9367)"
       x1="253.08090"
       y1="206.53716"
       x2="123.30837"
       y2="205.96529" />
    <linearGradient
       inkscape:collect="always"
       xlink:href="#blacktowhite"
       id="linearGradient15095"
       gradientUnits="userSpaceOnUse"
       gradientTransform="matrix(1.494665,0.000000,0.000000,0.470262,21.13456,163.2076)"
       x1="142.19385"
       y1="278.92441"
       x2="166.65126"
       y2="368.52307" />
    <linearGradient
       inkscape:collect="always"
       xlink:href="#graytolightgray"
       id="linearGradient15096"
       gradientUnits="userSpaceOnUse"
       gradientTransform="matrix(1.435849,0.000000,0.000000,0.489525,9.323765,244.4874)"
       x1="133.23598"
       y1="111.26886"
       x2="216.75711"
       y2="109.89973" />
    <linearGradient
       id="graytolightgray">
      <stop
         style="stop-color:#d4d3d3;stop-opacity:1.0000000;"
         offset="0.0000000"
         id="stop5101" />
      <stop
         style="stop-color:#ffffff;stop-opacity:1.0000000;"
         offset="1.0000000"
         id="stop5102" />
    </linearGradient>
    <linearGradient
       inkscape:collect="always"
       xlink:href="#graytolightgray"
       id="linearGradient15097"
       gradientUnits="userSpaceOnUse"
       gradientTransform="scale(1.436842,0.695971)"
       x1="-0.36880860"
       y1="75.553932"
       x2="59.273689"
       y2="75.553932" />
    <linearGradient
       inkscape:collect="always"
       xlink:href="#blacktowhite"
       id="linearGradient15098"
       gradientUnits="userSpaceOnUse"
       gradientTransform="matrix(1.337508,0.000000,0.000000,0.525518,9.323765,244.4874)"
       x1="232.27733"
       y1="140.27173"
       x2="147.05203"
       y2="81.484245" />
    <linearGradient
       id="blacktowhite">
      <stop
         style="stop-color:#000000;stop-opacity:1.0000000;"
         offset="0.0000000"
         id="stop2476" />
      <stop
         style="stop-color:#ffffff;stop-opacity:1.0000000;"
         offset="1.0000000"
         id="stop2475" />
    </linearGradient>
    <linearGradient
       inkscape:collect="always"
       xlink:href="#blacktowhite"
       id="linearGradient15099"
       gradientUnits="userSpaceOnUse"
       gradientTransform="matrix(1.494665,0.000000,0.000000,0.470262,13.18526,232.9367)"
       x1="253.08090"
       y1="206.53716"
       x2="123.30837"
       y2="205.96529" />
    <linearGradient
       inkscape:collect="always"
       xlink:href="#blacktowhite"
       id="linearGradient19716"
       gradientUnits="userSpaceOnUse"
       gradientTransform="matrix(1.494665,0.000000,0.000000,0.470262,13.18526,232.9367)"
       x1="253.08090"
       y1="206.53716"
       x2="123.30837"
       y2="205.96529" />
    <linearGradient
       inkscape:collect="always"
       xlink:href="#blacktowhite"
       id="linearGradient19717"
       gradientUnits="userSpaceOnUse"
       gradientTransform="matrix(1.337508,0.000000,0.000000,0.525518,9.323765,244.4874)"
       x1="232.27733"
       y1="140.27173"
       x2="147.05203"
       y2="81.484245" />
    <linearGradient
       inkscape:collect="always"
       xlink:href="#graytolightgray"
       id="linearGradient19718"
       gradientUnits="userSpaceOnUse"
       gradientTransform="scale(1.436842,0.695971)"
       x1="-0.36880860"
       y1="75.553932"
       x2="59.273689"
       y2="75.553932" />
    <linearGradient
       inkscape:collect="always"
       xlink:href="#graytolightgray"
       id="linearGradient19719"
       gradientUnits="userSpaceOnUse"
       gradientTransform="matrix(1.435849,0.000000,0.000000,0.489525,9.323765,244.4874)"
       x1="133.23598"
       y1="111.26886"
       x2="216.75711"
       y2="109.89973" />
    <linearGradient
       inkscape:collect="always"
       xlink:href="#blacktowhite"
       id="linearGradient19720"
       gradientUnits="userSpaceOnUse"
       gradientTransform="matrix(1.494665,0.000000,0.000000,0.470262,21.13456,163.2076)"
       x1="142.19385"
       y1="278.92441"
       x2="166.65126"
       y2="368.52307" />
    <linearGradient
       inkscape:collect="always"
       xlink:href="#blacktowhite"
       id="linearGradient19721"
       gradientUnits="userSpaceOnUse"
       gradientTransform="matrix(1.494665,0.000000,0.000000,0.470262,13.18526,232.9367)"
       x1="253.08090"
       y1="206.53716"
       x2="123.30837"
       y2="205.96529" />
    <linearGradient
       inkscape:collect="always"
       xlink:href="#blacktowhite"
       id="linearGradient19722"
       gradientUnits="userSpaceOnUse"
       gradientTransform="matrix(1.337508,0.000000,0.000000,0.525518,9.323765,244.4874)"
       x1="232.27733"
       y1="140.27173"
       x2="147.05203"
       y2="81.484245" />
    <linearGradient
       inkscape:collect="always"
       xlink:href="#graytolightgray"
       id="linearGradient19723"
       gradientUnits="userSpaceOnUse"
       gradientTransform="scale(1.436842,0.695971)"
       x1="-0.36880860"
       y1="75.553932"
       x2="59.273689"
       y2="75.553932" />
    <linearGradient
       inkscape:collect="always"
       xlink:href="#graytolightgray"
       id="linearGradient19724"
       gradientUnits="userSpaceOnUse"
       gradientTransform="matrix(1.435849,0.000000,0.000000,0.489525,9.323765,244.4874)"
       x1="133.23598"
       y1="111.26886"
       x2="216.75711"
       y2="109.89973" />
    <linearGradient
       inkscape:collect="always"
       xlink:href="#blacktowhite"
       id="linearGradient19725"
       gradientUnits="userSpaceOnUse"
       gradientTransform="matrix(1.494665,0.000000,0.000000,0.470262,21.13456,163.2076)"
       x1="142.19385"
       y1="278.92441"
       x2="166.65126"
       y2="368.52307" />
    <linearGradient
       inkscape:collect="always"
       xlink:href="#blacktowhite"
       id="linearGradient19726"
       gradientUnits="userSpaceOnUse"
       gradientTransform="matrix(1.494665,0.000000,0.000000,0.470262,13.18526,232.9367)"
       x1="253.08090"
       y1="206.53716"
       x2="123.30837"
       y2="205.96529" />
    <linearGradient
       inkscape:collect="always"
       xlink:href="#blacktowhite"
       id="linearGradient19727"
       gradientUnits="userSpaceOnUse"
       gradientTransform="matrix(1.337508,0.000000,0.000000,0.525518,9.323765,244.4874)"
       x1="232.27733"
       y1="140.27173"
       x2="147.05203"
       y2="81.484245" />
    <linearGradient
       inkscape:collect="always"
       xlink:href="#graytolightgray"
       id="linearGradient19728"
       gradientUnits="userSpaceOnUse"
       gradientTransform="scale(1.436842,0.695971)"
       x1="8.4329405"
       y1="88.576233"
       x2="46.346687"
       y2="39.269283" />
    <linearGradient
       inkscape:collect="always"
       xlink:href="#blacktowhite"
       id="linearGradient19729"
       gradientUnits="userSpaceOnUse"
       gradientTransform="matrix(1.494665,0.000000,0.000000,0.470262,21.13456,163.2076)"
       x1="142.19385"
       y1="278.92441"
       x2="166.65126"
       y2="368.52307" />
    <linearGradient
       inkscape:collect="always"
       xlink:href="#graytolightgray"
       id="linearGradient19730"
       gradientUnits="userSpaceOnUse"
       gradientTransform="scale(1.729412,0.578231)"
       x1="130.60602"
       y1="408.28738"
       x2="180.75517"
       y2="470.93375" />
    <linearGradient
       inkscape:collect="always"
       xlink:href="#light75to0"
       id="linearGradient19731"
       gradientUnits="userSpaceOnUse"
       gradientTransform="scale(0.526614,1.898924)"
       x1="406.16541"
       y1="148.64583"
       x2="414.83224"
       y2="189.94398" />
    <linearGradient
       inkscape:collect="always"
       xlink:href="#light75to0"
       id="linearGradient21648"
       gradientTransform="scale(0.394750,2.533248)"
       x1="196.40405"
       y1="17.297279"
       x2="179.82318"
       y2="17.407320"
       gradientUnits="userSpaceOnUse" />
    <linearGradient
       inkscape:collect="always"
       xlink:href="#XMLID_1_"
       id="linearGradient1115"
       gradientUnits="userSpaceOnUse"
       x1="100.6055"
       y1="37.1133"
       x2="100.6055"
       y2="139.7401" />
    <linearGradient
       inkscape:collect="always"
       xlink:href="#light100to0"
       id="linearGradient1114"
       gradientUnits="userSpaceOnUse"
       x1="146.38470"
       y1="64.407753"
       x2="307.07626"
       y2="436.28043" />
    <linearGradient
       inkscape:collect="always"
       xlink:href="#redtodarkred"
       id="linearGradient1113"
       gradientUnits="userSpaceOnUse"
       gradientTransform="scale(1.006342,0.993698)"
       x1="-110.52393"
       y1="27.161866"
       x2="439.44683"
       y2="461.30772" />
    <radialGradient
       inkscape:collect="always"
       xlink:href="#orangelesstoyelow"
       id="radialGradient1112"
       gradientUnits="userSpaceOnUse"
       spreadMethod="reflect"
       cx="186.75356"
       cy="103.61057"
       fx="189.43584"
       fy="25.390987"
       r="117.68623" />
    <linearGradient
       inkscape:collect="always"
       xlink:href="#XMLID_1_"
       id="linearGradient1111"
       gradientUnits="userSpaceOnUse"
       x1="100.6055"
       y1="37.1133"
       x2="100.6055"
       y2="139.7401" />
    <linearGradient
       inkscape:collect="always"
       xlink:href="#XMLID_1_"
       id="linearGradient1110"
       gradientUnits="userSpaceOnUse"
       x1="100.6055"
       y1="37.1133"
       x2="100.6055"
       y2="139.7401" />
    <linearGradient
       inkscape:collect="always"
       xlink:href="#light100to0"
       id="linearGradient1109"
       gradientUnits="userSpaceOnUse"
       x1="146.38470"
       y1="64.407753"
       x2="307.07626"
       y2="436.28043" />
    <linearGradient
       inkscape:collect="always"
       xlink:href="#redtodarkred"
       id="linearGradient1108"
       x1="-110.52393"
       y1="27.161866"
       x2="439.44683"
       y2="461.30772"
       gradientTransform="scale(1.006342,0.993698)"
       gradientUnits="userSpaceOnUse" />
    <radialGradient
       inkscape:collect="always"
       xlink:href="#orangelesstoyelow"
       id="radialGradient1107"
       gradientUnits="userSpaceOnUse"
       spreadMethod="reflect"
       cx="186.75356"
       cy="103.61057"
       fx="189.43584"
       fy="25.390987"
       r="117.68623" />
    <linearGradient
       inkscape:collect="always"
       xlink:href="#XMLID_1_"
       id="linearGradient1106"
       gradientUnits="userSpaceOnUse"
       x1="100.6055"
       y1="37.1133"
       x2="100.6055"
       y2="139.7401" />
    <radialGradient
       inkscape:collect="always"
       xlink:href="#orangelesstoyelow"
       id="radialGradient6825"
       cx="186.75356"
       cy="103.61057"
       r="117.68623"
       fx="189.43584"
       fy="25.390987"
       gradientUnits="userSpaceOnUse"
       spreadMethod="reflect" />
    <linearGradient
       id="XMLID_1_"
       gradientUnits="userSpaceOnUse"
       x1="100.6055"
       y1="37.1133"
       x2="100.6055"
       y2="139.7401">
      <stop
         offset="0"
         style="stop-color:#FFA700"
         id="stop9" />
      <stop
         offset="0.691"
         style="stop-color:#FFFF00"
         id="stop11" />
      <stop
         offset="0.792"
         style="stop-color:#FFFC00"
         id="stop13" />
      <stop
         offset="0.8546"
         style="stop-color:#FFF400"
         id="stop15" />
      <stop
         offset="0.9067"
         style="stop-color:#FFE500"
         id="stop17" />
      <stop
         offset="0.953"
         style="stop-color:#FFD100"
         id="stop19" />
      <stop
         offset="0.9952"
         style="stop-color:#FFB700"
         id="stop21" />
      <stop
         offset="1"
         style="stop-color:#FFB300"
         id="stop23" />
      <midPointStop
         offset="0"
         style="stop-color:#FFA700"
         id="midPointStop25" />
      <midPointStop
         offset="0.5"
         style="stop-color:#FFA700"
         id="midPointStop27" />
      <midPointStop
         offset="0.691"
         style="stop-color:#FFFF00"
         id="midPointStop29" />
      <midPointStop
         offset="0.7952"
         style="stop-color:#FFFF00"
         id="midPointStop31" />
      <midPointStop
         offset="1"
         style="stop-color:#FFB300"
         id="midPointStop33" />
    </linearGradient>
    <linearGradient
       xlink:href="#orangelesstoyelow"
       id="linearGradient608"
       x1="59.155140"
       y1="100.43217"
       x2="204.62686"
       y2="-644.89142" />
    <linearGradient
       xlink:href="#redtodarkred"
       id="linearGradient617"
       x1="-0.32298136"
       y1="0.037735850"
       x2="1.1987578"
       y2="1.2389938" />
    <linearGradient
       xlink:href="#light100to0"
       id="linearGradient613"
       x1="146.38470"
       y1="64.407753"
       x2="307.07626"
       y2="436.28043"
       gradientUnits="userSpaceOnUse" />
    <linearGradient
       id="light100to0">
      <stop
         style="stop-color:#ffffff;stop-opacity:1.0000000;"
         offset="0.0000000"
         id="stop2764" />
      <stop
         style="stop-color:#ffffff;stop-opacity:0.0000000;"
         offset="1.0000000"
         id="stop2765" />
    </linearGradient>
    <linearGradient
       id="orangelesstoyelow">
      <stop
         style="stop-color:#ff7d00;stop-opacity:1.0000000;"
         offset="0.0000000"
         id="stop2689" />
      <stop
         style="stop-color:#ffbe00;stop-opacity:1.0000000;"
         offset="0.25358382"
         id="stop2690" />
      <stop
         style="stop-color:#ffff00;stop-opacity:1.0000000;"
         offset="1.0000000"
         id="stop2691" />
    </linearGradient>
    <linearGradient
       id="redtodarkred">
      <stop
         style="stop-color:#ff0000;stop-opacity:1.0000000;"
         offset="0.0000000"
         id="stop3856" />
      <stop
         style="stop-color:#920000;stop-opacity:1.0000000;"
         offset="1.0000000"
         id="stop3855" />
    </linearGradient>
  </defs>
  <sodipodi:namedview
     id="base"
     pagecolor="#ffffff"
     bordercolor="#666666"
     borderopacity="1.0"
     inkscape:pageopacity="0.0"
     inkscape:pageshadow="2"
     inkscape:zoom="2.2805436"
     inkscape:cx="-18.408044"
     inkscape:cy="31.556633"
     inkscape:current-layer="svg19592"
     showgrid="false"
     inkscape:grid-bbox="false"
     gridspacingy="1.0000000pt"
     gridspacingx="1.0000000pt"
     gridoriginy="0.0000000pt"
     gridoriginx="0.0000000pt"
     inkscape:window-width="952"
     inkscape:window-height="590"
     inkscape:window-x="76"
     inkscape:window-y="449" />
  <metadata
     id="metadata4">
    <rdf:RDF
       id="RDF5">
      <cc:Work
         rdf:about=""
         id="Work6">
        <dc:format
           id="format7">image/svg+xml</dc:format>
        <dc:type
           id="type9"
           rdf:resource="http://purl.org/dc/dcmitype/StillImage" />
      </cc:Work>
    </rdf:RDF>
  </metadata>
  <g
     id="layer1"
     inkscape:label="Layer 1"
     inkscape:groupmode="layer">
    <g
       id="g21649"
       transform="matrix(0.899795,0.000000,0.000000,0.967185,-0.208224,6.291798)">
      <path
         style="fill:#818080;fill-opacity:0.14999999;stroke:none;stroke-width:3.7750001;stroke-linecap:butt;stroke-linejoin:round;stroke-miterlimit:4.0000000;stroke-dashoffset:0.0000000;stroke-opacity:1.0000000"
         d="M 260.29533,227.71408 C 240.02933,227.84036 218.31699,231.30576 203.33575,241.72453 C 196.63509,246.43147 193.44553,254.01296 193.59140,258.94297 C 194.03575,261.03349 192.71241,322.29849 194.87355,328.89701 C 197.29982,333.60352 202.21157,337.14302 207.88738,339.99406 L 207.88738,340.28868 C 208.81887,340.69882 209.74460,340.95480 210.67607,341.33619 C 213.74446,342.68490 216.90192,343.92164 220.09988,344.90428 C 242.54067,351.12382 267.90194,351.76200 291.03491,347.16298 C 304.23999,344.13194 318.94708,339.56539 324.88370,329.84632 C 328.14657,324.39893 326.28202,269.18073 326.74281,264.47513 C 326.49236,251.14450 325.37770,249.16768 321.35778,245.35807 C 310.30063,234.28845 290.72402,229.82431 272.70013,228.20510 C 268.57811,227.86953 264.44340,227.71417 260.29533,227.71408 z "
         id="path19591"
         sodipodi:nodetypes="cccccccccccccc"
         transform="matrix(0.551307,0.000000,0.000000,0.559005,-102.8460,-121.9196)" />
      <path
         style="fill:#818783;fill-opacity:0.14999999;stroke:none;stroke-width:3.7750001;stroke-linecap:butt;stroke-linejoin:round;stroke-miterlimit:4.0000000;stroke-dashoffset:0.0000000;stroke-opacity:1.0000000"
         d="M 260.51765,226.38708 C 239.91535,226.51655 217.84271,230.06959 202.61287,240.75181 C 195.80101,245.57778 192.55853,253.35097 192.70682,258.40565 C 193.15854,260.54903 191.81324,323.36321 194.01024,330.12858 C 196.47677,334.95411 201.47004,338.58311 207.24003,341.50624 L 207.24003,341.80831 C 208.18697,342.22882 209.12807,342.49128 210.07499,342.88231 C 213.19430,344.26512 216.40416,345.53314 219.65519,346.54063 C 242.46837,352.91743 268.25049,353.57175 291.76734,348.85643 C 305.19156,345.74876 320.14270,341.06673 326.17783,331.10190 C 329.49485,325.51676 327.59936,268.90228 328.06780,264.07770 C 327.81318,250.40998 326.68003,248.38317 322.59340,244.47723 C 311.35277,233.12770 291.45129,228.55067 273.12830,226.89053 C 268.93788,226.54647 264.73457,226.38718 260.51765,226.38708 z "
         id="path18878"
         sodipodi:nodetypes="cccccccccccccc"
         transform="matrix(0.551307,0.000000,0.000000,0.559005,-102.8460,-121.9196)" />
      <g
         id="g15100"
         transform="matrix(0.551307,0.000000,0.000000,0.559005,-102.8460,-121.9196)">
        <path
           style="fill:#818783;fill-opacity:1.0000000;stroke:none;stroke-width:3.7750001;stroke-linecap:butt;stroke-linejoin:round;stroke-miterlimit:4.0000000;stroke-dashoffset:0.0000000;stroke-opacity:1.0000000"
           d="M 260.89731,275.58006 C 241.13951,275.70061 219.98621,279.00195 205.38065,288.94817 C 198.84802,293.44162 195.74351,300.68155 195.88573,305.38797 C 196.37338,307.63451 195.03218,319.90232 197.13913,326.20157 C 201.11293,333.74969 211.62472,338.43742 221.72805,341.47725 C 243.60613,347.41471 268.32266,348.03439 290.87554,343.64394 C 303.74951,340.75039 318.09671,336.38088 323.88446,327.10262 C 327.06553,321.90229 325.14301,316.14062 325.69067,310.66416 C 325.44649,297.93814 324.34757,296.07382 320.42845,292.43700 C 309.64859,281.86942 290.57648,277.60212 273.00457,276.05634 C 268.98591,275.73600 264.94138,275.58015 260.89731,275.58006 z "
           id="path15089"
           sodipodi:nodetypes="ccccccccccc" />
        <path
           style="fill:url(#linearGradient15099);fill-opacity:1.0000000;stroke:none;stroke-width:3.7750001;stroke-linecap:butt;stroke-linejoin:round;stroke-miterlimit:4.0000000;stroke-dashoffset:0.0000000;stroke-opacity:1.0000000"
           d="M 322.86327,303.43886 C 322.66933,312.00786 311.36739,318.32370 300.23827,321.73582 C 277.28351,328.67288 249.92978,328.99479 226.26952,323.31731 C 215.00934,320.51890 203.72644,315.66037 199.48827,308.02958 C 198.92193,306.04909 198.05468,304.99043 198.42577,307.74403 C 198.30523,310.28607 198.10433,312.97324 198.42577,315.58558 C 198.15301,320.58951 198.12151,325.89881 203.42577,329.88488 C 213.69549,338.59716 230.88868,342.29722 247.08202,343.74488 C 268.91582,345.52090 292.67031,343.34350 310.61327,334.62935 C 318.30952,330.78506 323.73700,324.66963 322.70702,318.24336 C 322.79120,315.18170 322.75484,305.93593 322.86327,303.43886 z "
           id="path15090"
           sodipodi:nodetypes="ccccccccccc" />
        <path
           style="fill:url(#linearGradient15098);fill-opacity:1.0000000;stroke:none;stroke-width:3.7724271;stroke-linecap:butt;stroke-linejoin:round;stroke-miterlimit:4.0000000;stroke-dashoffset:0.0000000;stroke-opacity:1.0000000"
           d="M 261.14326,279.73105 C 230.02641,279.73105 204.76801,289.65228 204.76801,301.88137 C 204.76801,314.11047 230.02641,324.03169 261.14326,324.03169 C 292.26012,324.03169 317.51852,314.11047 317.51852,301.88137 C 317.51852,289.65228 292.26012,279.73105 261.14326,279.73105 z M 261.39592,285.53916 C 290.46859,285.53916 314.07600,293.53629 314.07600,303.38309 C 314.07600,313.22989 290.46860,321.22702 261.39592,321.22702 C 232.32324,321.22702 208.71585,313.22989 208.71585,303.38309 C 208.71585,293.53628 232.32325,285.53916 261.39592,285.53916 z "
           id="path15091"
           sodipodi:nodetypes="cccccccccc" />
        <path
           sodipodi:type="arc"
           style="fill:url(#linearGradient15097);fill-opacity:1.0000000;stroke:none;stroke-width:3.7724271;stroke-linecap:butt;stroke-linejoin:round;stroke-miterlimit:4.0000000;stroke-dashoffset:0.0000000;stroke-opacity:1.0000000"
           id="path15092"
           sodipodi:cx="33.384850"
           sodipodi:cy="50.922665"
           sodipodi:rx="52.112938"
           sodipodi:ry="25.242205"
           d="M 85.497787 50.922665 A 52.112938 25.242205 0 1 1  -18.728088,50.922665 A 52.112938 25.242205 0 1 1  85.497787 50.922665 z"
           transform="matrix(1.005132,0.000000,0.000000,0.757545,226.8913,264.6372)" />
        <path
           style="fill:url(#linearGradient15096);fill-opacity:1.0000000;stroke:none;stroke-width:3.7724271;stroke-linecap:butt;stroke-linejoin:round;stroke-miterlimit:4.0000000;stroke-dashoffset:0.0000000;stroke-opacity:1.0000000"
           d="M 260.59237,276.50373 C 226.70391,276.50373 199.20848,287.90251 199.20848,301.96132 C 199.20848,316.02011 226.70391,327.44087 260.59237,327.44087 C 294.48082,327.44087 321.97626,316.02011 321.97626,301.96132 C 321.97626,287.90252 294.48083,276.50373 260.59237,276.50373 z M 260.74840,279.86439 C 291.49489,279.86439 316.45265,289.73219 316.45265,301.89542 C 316.45265,314.05866 291.49489,323.92645 260.74840,323.92645 C 230.00192,323.92645 205.04416,314.05866 205.04416,301.89542 C 205.04416,289.73219 230.00192,279.86439 260.74840,279.86439 z "
           id="path15093" />
        <path
           style="fill:url(#linearGradient15095);fill-opacity:1.0000000;stroke:none;stroke-width:3.7750001;stroke-linecap:butt;stroke-linejoin:round;stroke-miterlimit:4.0000000;stroke-dashoffset:0.0000000;stroke-opacity:1.0000000"
           d="M 322.82693,302.26246 C 322.33964,310.10980 311.62440,317.35349 300.49528,320.76561 C 277.54052,327.70267 249.89344,327.81839 226.23318,322.14091 C 214.97300,319.34250 203.15196,316.39168 198.38943,302.23761 C 198.34182,303.96329 198.26927,304.50510 198.24276,305.02541 C 201.96114,318.54480 216.37022,321.55129 227.63040,324.34970 C 251.29066,330.02718 278.79107,329.29289 301.74583,322.35583 C 312.76575,318.97719 322.06426,311.20585 322.76443,305.34217 C 322.77669,303.59414 322.79154,303.07754 322.82693,302.26246 z "
           id="path15094"
           sodipodi:nodetypes="ccccccccc" />
      </g>
      <g
         id="g15107"
         transform="matrix(0.551307,0.000000,0.000000,0.559005,-102.8460,-134.7683)">
        <path
           style="fill:#818783;fill-opacity:1.0000000;stroke:none;stroke-width:3.7750001;stroke-linecap:butt;stroke-linejoin:round;stroke-miterlimit:4.0000000;stroke-dashoffset:0.0000000;stroke-opacity:1.0000000"
           d="M 260.89731,275.58006 C 241.13951,275.70061 219.98621,279.00195 205.38065,288.94817 C 198.84802,293.44162 195.74351,300.68155 195.88573,305.38797 C 196.37338,307.63451 195.03218,319.90232 197.13913,326.20157 C 201.11293,333.74969 211.62472,338.43742 221.72805,341.47725 C 243.60613,347.41471 268.32266,348.03439 290.87554,343.64394 C 303.74951,340.75039 318.09671,336.38088 323.88446,327.10262 C 327.06553,321.90229 325.14301,316.14062 325.69067,310.66416 C 325.44649,297.93814 324.34757,296.07382 320.42845,292.43700 C 309.64859,281.86942 290.57648,277.60212 273.00457,276.05634 C 268.98591,275.73600 264.94138,275.58015 260.89731,275.58006 z "
           id="path15108"
           sodipodi:nodetypes="ccccccccccc" />
        <path
           style="fill:url(#linearGradient15114);fill-opacity:1.0000000;stroke:none;stroke-width:3.7750001;stroke-linecap:butt;stroke-linejoin:round;stroke-miterlimit:4.0000000;stroke-dashoffset:0.0000000;stroke-opacity:1.0000000"
           d="M 322.86327,303.43886 C 322.66933,312.00786 311.36739,318.32370 300.23827,321.73582 C 277.28351,328.67288 249.92978,328.99479 226.26952,323.31731 C 215.00934,320.51890 203.72644,315.66037 199.48827,308.02958 C 198.92193,306.04909 198.05468,304.99043 198.42577,307.74403 C 198.30523,310.28607 198.10433,312.97324 198.42577,315.58558 C 198.15301,320.58951 198.12151,325.89881 203.42577,329.88488 C 213.69549,338.59716 230.88868,342.29722 247.08202,343.74488 C 268.91582,345.52090 292.67031,343.34350 310.61327,334.62935 C 318.30952,330.78506 323.73700,324.66963 322.70702,318.24336 C 322.79120,315.18170 322.75484,305.93593 322.86327,303.43886 z "
           id="path15109"
           sodipodi:nodetypes="ccccccccccc" />
        <path
           style="fill:url(#linearGradient15115);fill-opacity:1.0000000;stroke:none;stroke-width:3.7724271;stroke-linecap:butt;stroke-linejoin:round;stroke-miterlimit:4.0000000;stroke-dashoffset:0.0000000;stroke-opacity:1.0000000"
           d="M 261.14326,279.73105 C 230.02641,279.73105 204.76801,289.65228 204.76801,301.88137 C 204.76801,314.11047 230.02641,324.03169 261.14326,324.03169 C 292.26012,324.03169 317.51852,314.11047 317.51852,301.88137 C 317.51852,289.65228 292.26012,279.73105 261.14326,279.73105 z M 261.39592,285.53916 C 290.46859,285.53916 314.07600,293.53629 314.07600,303.38309 C 314.07600,313.22989 290.46860,321.22702 261.39592,321.22702 C 232.32324,321.22702 208.71585,313.22989 208.71585,303.38309 C 208.71585,293.53628 232.32325,285.53916 261.39592,285.53916 z "
           id="path15110"
           sodipodi:nodetypes="cccccccccc" />
        <path
           sodipodi:type="arc"
           style="fill:url(#linearGradient15116);fill-opacity:1.0000000;stroke:none;stroke-width:3.7724271;stroke-linecap:butt;stroke-linejoin:round;stroke-miterlimit:4.0000000;stroke-dashoffset:0.0000000;stroke-opacity:1.0000000"
           id="path15111"
           sodipodi:cx="33.384850"
           sodipodi:cy="50.922665"
           sodipodi:rx="52.112938"
           sodipodi:ry="25.242205"
           d="M 85.497787 50.922665 A 52.112938 25.242205 0 1 1  -18.728088,50.922665 A 52.112938 25.242205 0 1 1  85.497787 50.922665 z"
           transform="matrix(1.005132,0.000000,0.000000,0.757545,226.8913,264.6372)" />
        <path
           style="fill:url(#linearGradient15117);fill-opacity:1.0000000;stroke:none;stroke-width:3.7724271;stroke-linecap:butt;stroke-linejoin:round;stroke-miterlimit:4.0000000;stroke-dashoffset:0.0000000;stroke-opacity:1.0000000"
           d="M 260.59237,276.50373 C 226.70391,276.50373 199.20848,287.90251 199.20848,301.96132 C 199.20848,316.02011 226.70391,327.44087 260.59237,327.44087 C 294.48082,327.44087 321.97626,316.02011 321.97626,301.96132 C 321.97626,287.90252 294.48083,276.50373 260.59237,276.50373 z M 260.74840,279.86439 C 291.49489,279.86439 316.45265,289.73219 316.45265,301.89542 C 316.45265,314.05866 291.49489,323.92645 260.74840,323.92645 C 230.00192,323.92645 205.04416,314.05866 205.04416,301.89542 C 205.04416,289.73219 230.00192,279.86439 260.74840,279.86439 z "
           id="path15112" />
        <path
           style="fill:url(#linearGradient15118);fill-opacity:1.0000000;stroke:none;stroke-width:3.7750001;stroke-linecap:butt;stroke-linejoin:round;stroke-miterlimit:4.0000000;stroke-dashoffset:0.0000000;stroke-opacity:1.0000000"
           d="M 322.82693,302.26246 C 322.33964,310.10980 311.62440,317.35349 300.49528,320.76561 C 277.54052,327.70267 249.89344,327.81839 226.23318,322.14091 C 214.97300,319.34250 203.15196,316.39168 198.38943,302.23761 C 198.34182,303.96329 198.26927,304.50510 198.24276,305.02541 C 201.96114,318.54480 216.37022,321.55129 227.63040,324.34970 C 251.29066,330.02718 278.79107,329.29289 301.74583,322.35583 C 312.76575,318.97719 322.06426,311.20585 322.76443,305.34217 C 322.77669,303.59414 322.79154,303.07754 322.82693,302.26246 z "
           id="path15113"
           sodipodi:nodetypes="ccccccccc" />
      </g>
      <path
         style="fill:#818783;fill-opacity:1.0000000;stroke:none;stroke-width:3.7750001;stroke-linecap:butt;stroke-linejoin:round;stroke-miterlimit:4.0000000;stroke-dashoffset:0.0000000;stroke-opacity:1.0000000"
         d="M 260.89731,275.58006 C 241.13951,275.70061 219.98621,279.00195 205.38065,288.94817 C 198.84802,293.44162 195.74351,300.68155 195.88573,305.38797 C 196.37338,307.63451 195.03218,319.90232 197.13913,326.20157 C 201.11293,333.74969 211.62472,338.43742 221.72805,341.47725 C 243.60613,347.41471 268.32266,348.03439 290.87554,343.64394 C 303.74951,340.75039 318.09671,336.38088 323.88446,327.10262 C 327.06553,321.90229 325.14301,316.14062 325.69067,310.66416 C 325.44649,297.93814 324.34757,296.07382 320.42845,292.43700 C 309.64859,281.86942 290.57648,277.60212 273.00457,276.05634 C 268.98591,275.73600 264.94138,275.58015 260.89731,275.58006 z "
         id="path15120"
         sodipodi:nodetypes="ccccccccccc"
         transform="matrix(0.551307,0.000000,0.000000,0.559005,-102.8460,-147.6169)" />
      <path
         style="fill:url(#linearGradient15126);fill-opacity:1.0000000;stroke:none;stroke-width:3.7750001;stroke-linecap:butt;stroke-linejoin:round;stroke-miterlimit:4.0000000;stroke-dashoffset:0.0000000;stroke-opacity:1.0000000"
         d="M 322.86327,303.43886 C 322.66933,312.00786 311.36739,318.32370 300.23827,321.73582 C 277.28351,328.67288 249.92978,328.99479 226.26952,323.31731 C 215.00934,320.51890 203.72644,315.66037 199.48827,308.02958 C 198.92193,306.04909 198.05468,304.99043 198.42577,307.74403 C 198.30523,310.28607 198.10433,312.97324 198.42577,315.58558 C 198.15301,320.58951 198.12151,325.89881 203.42577,329.88488 C 213.69549,338.59716 230.88868,342.29722 247.08202,343.74488 C 268.91582,345.52090 292.67031,343.34350 310.61327,334.62935 C 318.30952,330.78506 323.73700,324.66963 322.70702,318.24336 C 322.79120,315.18170 322.75484,305.93593 322.86327,303.43886 z "
         id="path15121"
         sodipodi:nodetypes="ccccccccccc"
         transform="matrix(0.551307,0.000000,0.000000,0.559005,-102.8460,-147.6169)" />
      <path
         style="fill:url(#linearGradient15127);fill-opacity:1.0000000;stroke:none;stroke-width:3.7724271;stroke-linecap:butt;stroke-linejoin:round;stroke-miterlimit:4.0000000;stroke-dashoffset:0.0000000;stroke-opacity:1.0000000"
         d="M 261.14326,279.73105 C 230.02641,279.73105 204.76801,289.65228 204.76801,301.88137 C 204.76801,314.11047 230.02641,324.03169 261.14326,324.03169 C 292.26012,324.03169 317.51852,314.11047 317.51852,301.88137 C 317.51852,289.65228 292.26012,279.73105 261.14326,279.73105 z M 261.39592,285.53916 C 290.46859,285.53916 314.07600,293.53629 314.07600,303.38309 C 314.07600,313.22989 290.46860,321.22702 261.39592,321.22702 C 232.32324,321.22702 208.71585,313.22989 208.71585,303.38309 C 208.71585,293.53628 232.32325,285.53916 261.39592,285.53916 z "
         id="path15122"
         sodipodi:nodetypes="cccccccccc"
         transform="matrix(0.551307,0.000000,0.000000,0.559005,-102.8460,-147.6169)" />
      <path
         sodipodi:type="arc"
         style="fill:url(#linearGradient15128);fill-opacity:1.0000000;stroke:none;stroke-width:3.7724271;stroke-linecap:butt;stroke-linejoin:round;stroke-miterlimit:4.0000000;stroke-dashoffset:0.0000000;stroke-opacity:1.0000000"
         id="path15123"
         sodipodi:cx="33.384850"
         sodipodi:cy="50.922665"
         sodipodi:rx="52.112938"
         sodipodi:ry="25.242205"
         d="M 85.497787 50.922665 A 52.112938 25.242205 0 1 1  -18.728088,50.922665 A 52.112938 25.242205 0 1 1  85.497787 50.922665 z"
         transform="matrix(0.554136,0.000000,0.000000,0.423471,22.24076,0.316626)" />
      <path
         style="fill:url(#linearGradient15130);fill-opacity:1.0000000;stroke:none;stroke-width:3.7750001;stroke-linecap:butt;stroke-linejoin:round;stroke-miterlimit:4.0000000;stroke-dashoffset:0.0000000;stroke-opacity:1.0000000"
         d="M 322.82693,302.26246 C 322.33964,310.10980 311.62440,317.35349 300.49528,320.76561 C 277.54052,327.70267 249.89344,327.81839 226.23318,322.14091 C 222.51441,321.13452 203.15196,316.39168 198.38943,302.23761 C 198.34182,303.96329 198.26927,304.50510 198.24276,305.02541 C 201.96114,318.54480 220.92493,322.74597 227.63040,324.34970 C 251.29066,330.02718 278.79107,329.29289 301.74583,322.35583 C 312.76575,318.97719 322.06426,311.20585 322.76443,305.34217 C 322.77669,303.59414 322.79154,303.07754 322.82693,302.26246 z "
         id="path15125"
         sodipodi:nodetypes="ccccccccc"
         transform="matrix(0.551307,0.000000,0.000000,0.559005,-102.8460,-147.6169)" />
      <path
         style="fill:url(#linearGradient15129);fill-opacity:1.0000000;stroke:none;stroke-width:3.7724271;stroke-linecap:butt;stroke-linejoin:round;stroke-miterlimit:4.0000000;stroke-dashoffset:0.0000000;stroke-opacity:1.0000000"
         d="M 260.59238,230.53399 C 226.70392,230.53399 199.20849,241.71280 199.20849,255.50031 C 199.20849,269.28780 226.70392,280.48817 260.59238,280.48817 C 294.48083,280.48817 321.97627,269.28780 321.97627,255.50031 C 321.97627,241.71281 294.48084,230.53399 260.59238,230.53399 z M 260.74841,233.82980 C 291.49490,233.82980 316.45266,243.50717 316.45266,255.43568 C 316.45266,267.36420 291.49490,277.04157 260.74841,277.04157 C 230.00193,277.04157 205.04417,267.36420 205.04417,255.43568 C 205.04417,243.50717 230.00193,233.82980 260.74841,233.82980 z "
         id="path15124"
         transform="matrix(0.551307,0.000000,0.000000,0.559005,-102.8460,-121.9196)" />
      <path
         style="fill:url(#linearGradient15758);fill-opacity:1.0000000;fill-rule:evenodd;stroke:none;stroke-width:0.25000000pt;stroke-linecap:butt;stroke-linejoin:miter;stroke-opacity:1.0000000"
         d="M 210.36519,269.66987 C 214.22664,272.59874 227.28642,277.08126 232.93567,277.65629 L 232.02206,343.49000 C 224.61485,342.58770 217.20764,340.27531 209.80044,337.08162 L 210.36519,269.66987 z "
         id="path15131"
         sodipodi:nodetypes="ccccc"
         transform="matrix(0.551307,0.000000,0.000000,0.559005,-102.8460,-121.9196)" />
      <path
         style="fill:url(#linearGradient21648);fill-opacity:1.0000000;fill-rule:evenodd;stroke:none;stroke-width:0.25000000pt;stroke-linecap:butt;stroke-linejoin:miter;stroke-opacity:1.0000000"
         d="M 75.981664,21.212174 L 75.335011,59.953774 C 74.239336,62.522463 71.961666,64.415727 69.515139,65.126994 L 69.698383,29.561108 C 73.481375,26.834416 75.575802,24.783150 75.981664,21.212174 z "
         id="path21023"
         sodipodi:nodetypes="ccccc" />
    </g>
  </g>
  <g
     id="use1100"
     transform="matrix(0.116384,-4.398047e-2,4.567559e-2,0.127424,28.70918,8.758496)">
    <path
       d="M 100.83400,121.62900 C 100.42400,121.95300 99.773000,122.31300 98.885000,122.33600 C 99.774000,122.31500 100.42400,121.99200 100.83400,121.69900 C 101.47700,121.24200 102.36700,120.23400 102.32600,118.30300 C 102.24400,120.16000 101.43000,121.15600 100.83400,121.62900 z "
       id="path1106"
       style="fill:url(#linearGradient1111)"
       transform="matrix(2.866710,0.000000,0.000000,2.859933,1.730878,-0.176255)" />
    <path
       d="M 368.14861,151.61839 C 367.25764,148.68557 364.31536,143.66923 354.63309,143.05518 L 251.99676,136.77407 C 246.12405,136.41358 238.91340,130.89011 236.86209,125.16501 L 201.21733,25.620435 C 197.83400,16.244597 192.35498,14.808740 189.37718,14.778190 C 186.40826,14.744585 180.89963,16.097956 177.36831,25.406584 L 139.86464,124.19047 C 137.67125,129.94611 130.48132,135.22823 124.49317,135.47263 L 21.773958,139.75576 C 12.112398,140.10098 9.0665179,145.02872 8.1104279,147.93709 C 7.1543379,150.84547 6.6807279,156.67749 14.199228,163.05329 L 93.625898,230.37053 C 98.228758,234.31455 100.88095,243.02745 99.261808,248.98778 L 71.407858,351.08024 C 68.797108,360.70353 72.405398,365.19746 74.782298,367.02436 C 77.174008,368.85126 82.395518,371.11197 90.580018,365.72903 L 177.17295,308.60332 C 182.24053,305.24892 191.07328,305.32224 196.08462,308.75913 L 281.56161,367.66286 C 289.62771,373.22909 294.89954,371.06309 297.32677,369.27896 C 299.75400,367.49483 303.44812,363.04978 300.97353,353.37150 L 275.06137,250.70164 C 273.58135,244.81769 276.43187,236.04674 281.04360,232.29519 L 361.78454,166.57267 C 369.38591,160.38016 369.03958,154.55120 368.14861,151.61839 z "
       id="path1107"
       style="fill:url(#radialGradient1112);stroke:url(#linearGradient1113);stroke-width:2.6780922;stroke-linejoin:round;stroke-miterlimit:4.0000000;stroke-opacity:0.41874996"
       transform="matrix(0.968471,0.000000,0.000000,0.936144,3.628952,5.987797)" />
    <path
       d="M 272.12380,210.01832 L 321.29466,168.15956 C 327.20826,163.12463 326.93597,158.38064 326.24285,155.99379 C 325.55521,153.60695 323.26679,149.52793 315.73039,149.02920 L 235.88858,143.92006 C 231.31724,143.62912 225.71444,139.13450 224.11916,134.47660 L 196.38852,53.496225 C 193.76179,45.869616 189.49573,44.702914 187.18257,44.676197 C 184.87213,44.649478 180.58684,45.750867 177.84183,53.321071 L 148.66441,133.68394 C 146.95911,138.36561 141.36732,142.66428 136.70796,142.86022 L 56.802904,146.34550 C 49.288503,146.62453 46.917566,150.63230 46.174926,153.00133 C 45.432287,155.36740 45.060967,160.11139 50.911309,165.29772 L 112.69324,220.06144 C 116.27441,223.26765 118.33730,230.35988 117.07756,235.20779 L 116.38719,237.86479 C 124.97977,238.55946 133.70164,238.96023 142.56379,238.96023 C 190.95627,238.96023 235.69055,228.20758 272.12380,210.01832 z "
       id="path1108"
       style="fill:url(#linearGradient1114)" />
    <path
       d="M 299.22339,365.51044 C 297.99702,366.50125 296.04978,367.60216 293.39366,367.67249 C 296.05278,367.60828 297.99702,366.62051 299.22339,365.72450 C 301.14668,364.32696 303.80880,361.24442 303.68617,355.33929 C 303.44089,361.01813 301.00610,364.06397 299.22339,365.51044 z "
       id="path1109"
       style="fill:url(#linearGradient1115)"
       transform="matrix(0.968471,0.000000,0.000000,0.936144,3.628952,5.987797)" />
    <path
       d="M 193.55166,276.74324 C 188.64733,273.15902 180.00320,273.08745 175.04381,276.58006 L 90.299998,347.56303 C 82.290263,353.17124 77.177363,350.81802 74.839625,348.91139 C 73.176843,347.55158 70.928905,344.72313 70.702947,339.57296 C 70.497279,345.09816 73.017518,348.00963 74.839625,349.35228 C 77.180261,351.06423 82.290263,353.18269 90.299998,348.13845 L 175.04381,294.60707 C 180.00320,291.46372 188.64733,291.53243 193.55166,294.75307 L 277.20336,349.95060 C 281.14595,352.55574 284.41068,353.35446 286.98596,353.28862 C 284.41068,353.36019 281.14595,352.47272 277.20336,349.57557 L 193.55166,276.74324 z "
       id="path1110"
       style="opacity:0.29999998;fill:#e89500" />
  </g>
</svg>
