<?xml version="1.0" encoding="UTF-8" standalone="no"?>
<!-- Created with Inkscape (http://www.inkscape.org/) -->
<svg
   xmlns:dc="http://purl.org/dc/elements/1.1/"
   xmlns:cc="http://web.resource.org/cc/"
   xmlns:rdf="http://www.w3.org/1999/02/22-rdf-syntax-ns#"
   xmlns:svg="http://www.w3.org/2000/svg"
   xmlns="http://www.w3.org/2000/svg"
   xmlns:xlink="http://www.w3.org/1999/xlink"
   xmlns:sodipodi="http://inkscape.sourceforge.net/DTD/sodipodi-0.dtd"
   xmlns:inkscape="http://www.inkscape.org/namespaces/inkscape"
   sodipodi:docname="dbnewreportautopilot.svg"
   sodipodi:docbase="/home/pinheiro/kdeplayground-artwork/oooicons/crystalsvg"
   inkscape:version="0.41"
   sodipodi:version="0.32"
   id="svg5682"
   height="64px"
   width="64px">
  <defs
     id="defs3">
    <linearGradient
       inkscape:collect="always"
       xlink:href="#XMLID_1_"
       id="linearGradient1571"
       gradientUnits="userSpaceOnUse"
       gradientTransform="matrix(0.140392,-4.794330e-2,4.243270e-2,0.132515,-23.51599,-66.02933)"
       x1="100.6055"
       y1="37.1133"
       x2="100.6055"
       y2="139.7401" />
    <linearGradient
       inkscape:collect="always"
       xlink:href="#light100to0"
       id="linearGradient1569"
       gradientUnits="userSpaceOnUse"
       gradientTransform="matrix(0.111869,-3.895482e-2,3.471707e-2,0.110637,-17.12537,-49.89360)"
       x1="146.38470"
       y1="64.407753"
       x2="307.07626"
       y2="436.28043" />
    <linearGradient
       inkscape:collect="always"
       xlink:href="#redtodarkred"
       id="linearGradient1567"
       gradientUnits="userSpaceOnUse"
       gradientTransform="matrix(0.109030,-3.796587e-2,3.229541e-2,0.102919,-16.51153,-49.37250)"
       x1="-110.52393"
       y1="27.161866"
       x2="439.44683"
       y2="461.30772" />
    <radialGradient
       inkscape:collect="always"
       xlink:href="#orangelesstoyelow"
       id="radialGradient1565"
       gradientUnits="userSpaceOnUse"
       gradientTransform="matrix(0.108343,-3.772661e-2,3.250021e-2,0.103572,-16.51153,-49.37250)"
       spreadMethod="reflect"
       cx="186.75356"
       cy="103.61057"
       fx="189.43584"
       fy="25.390987"
       r="117.68623" />
    <linearGradient
       inkscape:collect="always"
       xlink:href="#XMLID_1_"
       id="linearGradient1563"
       gradientUnits="userSpaceOnUse"
       gradientTransform="matrix(0.415564,-0.141914,0.129632,0.404838,-24.07052,-66.80791)"
       x1="100.6055"
       y1="37.1133"
       x2="100.6055"
       y2="139.7401" />
    <linearGradient
       inkscape:collect="always"
       xlink:href="#light75to0"
       id="linearGradient1561"
       gradientUnits="userSpaceOnUse"
       gradientTransform="matrix(1.254364,-7.782602e-3,-4.537336e-2,0.517179,0.835472,-47.78608)"
       x1="5.6831765"
       y1="21.673885"
       x2="14.964557"
       y2="41.796101" />
    <linearGradient
       inkscape:collect="always"
       xlink:href="#XMLID_1_"
       id="linearGradient1545"
       gradientUnits="userSpaceOnUse"
       gradientTransform="matrix(0.140392,-4.794330e-2,4.243270e-2,0.132515,-23.51599,-66.02933)"
       x1="100.6055"
       y1="37.1133"
       x2="100.6055"
       y2="139.7401" />
    <linearGradient
       inkscape:collect="always"
       xlink:href="#light100to0"
       id="linearGradient1543"
       gradientUnits="userSpaceOnUse"
       gradientTransform="matrix(0.111869,-3.895482e-2,3.471707e-2,0.110637,-17.12537,-49.89360)"
       x1="146.38470"
       y1="64.407753"
       x2="307.07626"
       y2="436.28043" />
    <linearGradient
       inkscape:collect="always"
       xlink:href="#redtodarkred"
       id="linearGradient1541"
       gradientUnits="userSpaceOnUse"
       gradientTransform="matrix(0.109030,-3.796587e-2,3.229541e-2,0.102919,-16.51153,-49.37250)"
       x1="-110.52393"
       y1="27.161866"
       x2="439.44683"
       y2="461.30772" />
    <radialGradient
       inkscape:collect="always"
       xlink:href="#orangelesstoyelow"
       id="radialGradient1539"
       gradientUnits="userSpaceOnUse"
       gradientTransform="matrix(0.108343,-3.772661e-2,3.250021e-2,0.103572,-16.51153,-49.37250)"
       spreadMethod="reflect"
       cx="186.75356"
       cy="103.61057"
       fx="189.43584"
       fy="25.390987"
       r="117.68623" />
    <linearGradient
       inkscape:collect="always"
       xlink:href="#XMLID_1_"
       id="linearGradient1537"
       gradientUnits="userSpaceOnUse"
       gradientTransform="matrix(0.415564,-0.141914,0.129632,0.404838,-24.07052,-66.80791)"
       x1="100.6055"
       y1="37.1133"
       x2="100.6055"
       y2="139.7401" />
    <linearGradient
       inkscape:collect="always"
       xlink:href="#light75to0"
       id="linearGradient1535"
       gradientUnits="userSpaceOnUse"
       gradientTransform="matrix(1.254364,-7.782602e-3,-4.537336e-2,0.517179,0.835472,-47.78608)"
       x1="5.6831765"
       y1="21.673885"
       x2="14.964557"
       y2="41.796101" />
    <linearGradient
       inkscape:collect="always"
       xlink:href="#XMLID_1_"
       id="linearGradient1519"
       gradientUnits="userSpaceOnUse"
       gradientTransform="matrix(0.140392,-4.794330e-2,4.243270e-2,0.132515,-23.51599,-66.02933)"
       x1="100.6055"
       y1="37.1133"
       x2="100.6055"
       y2="139.7401" />
    <linearGradient
       inkscape:collect="always"
       xlink:href="#light100to0"
       id="linearGradient1517"
       gradientUnits="userSpaceOnUse"
       gradientTransform="matrix(0.111869,-3.895482e-2,3.471707e-2,0.110637,-17.12537,-49.89360)"
       x1="146.38470"
       y1="64.407753"
       x2="307.07626"
       y2="436.28043" />
    <linearGradient
       inkscape:collect="always"
       xlink:href="#redtodarkred"
       id="linearGradient1515"
       gradientUnits="userSpaceOnUse"
       gradientTransform="matrix(0.109030,-3.796587e-2,3.229541e-2,0.102919,-16.51153,-49.37250)"
       x1="-110.52393"
       y1="27.161866"
       x2="439.44683"
       y2="461.30772" />
    <radialGradient
       inkscape:collect="always"
       xlink:href="#orangelesstoyelow"
       id="radialGradient1513"
       gradientUnits="userSpaceOnUse"
       gradientTransform="matrix(0.108343,-3.772661e-2,3.250021e-2,0.103572,-16.51153,-49.37250)"
       spreadMethod="reflect"
       cx="186.75356"
       cy="103.61057"
       fx="189.43584"
       fy="25.390987"
       r="117.68623" />
    <linearGradient
       inkscape:collect="always"
       xlink:href="#XMLID_1_"
       id="linearGradient1511"
       gradientUnits="userSpaceOnUse"
       gradientTransform="matrix(0.415564,-0.141914,0.129632,0.404838,-24.07052,-66.80791)"
       x1="100.6055"
       y1="37.1133"
       x2="100.6055"
       y2="139.7401" />
    <linearGradient
       inkscape:collect="always"
       xlink:href="#light75to0"
       id="linearGradient1509"
       gradientUnits="userSpaceOnUse"
       gradientTransform="matrix(1.254364,-7.782602e-3,-4.537336e-2,0.517179,0.835472,-47.78608)"
       x1="5.6831765"
       y1="21.673885"
       x2="14.964557"
       y2="41.796101" />
    <linearGradient
       y2="139.7401"
       x2="100.6055"
       y1="37.1133"
       x1="100.6055"
       gradientTransform="matrix(0.140392,-4.794330e-2,4.243270e-2,0.132515,36.85924,1.489873)"
       gradientUnits="userSpaceOnUse"
       id="linearGradient1472"
       xlink:href="#XMLID_1_"
       inkscape:collect="always" />
    <linearGradient
       id="light100to0">
      <stop
         style="stop-color:#ffffff;stop-opacity:1.0000000;"
         offset="0.0000000"
         id="stop2764" />
      <stop
         style="stop-color:#ffffff;stop-opacity:0.0000000;"
         offset="1.0000000"
         id="stop2765" />
    </linearGradient>
    <linearGradient
       y2="436.28043"
       x2="307.07626"
       y1="64.407753"
       x1="146.38470"
       gradientTransform="matrix(0.111869,-3.895482e-2,3.471707e-2,0.110637,43.24986,17.62560)"
       gradientUnits="userSpaceOnUse"
       id="linearGradient1470"
       xlink:href="#light100to0"
       inkscape:collect="always" />
    <linearGradient
       id="redtodarkred">
      <stop
         style="stop-color:#ff0000;stop-opacity:1.0000000;"
         offset="0.0000000"
         id="stop3856" />
      <stop
         style="stop-color:#920000;stop-opacity:1.0000000;"
         offset="1.0000000"
         id="stop3855" />
    </linearGradient>
    <linearGradient
       y2="461.30772"
       x2="439.44683"
       y1="27.161866"
       x1="-110.52393"
       gradientTransform="matrix(0.109030,-3.796587e-2,3.229541e-2,0.102919,43.86369,18.14670)"
       gradientUnits="userSpaceOnUse"
       id="linearGradient1468"
       xlink:href="#redtodarkred"
       inkscape:collect="always" />
    <linearGradient
       id="orangelesstoyelow">
      <stop
         id="stop2689"
         offset="0.0000000"
         style="stop-color:#ff7d00;stop-opacity:1.0000000;" />
      <stop
         id="stop2690"
         offset="0.25358382"
         style="stop-color:#ffbe00;stop-opacity:1.0000000;" />
      <stop
         id="stop2691"
         offset="1.0000000"
         style="stop-color:#ffff00;stop-opacity:1.0000000;" />
    </linearGradient>
    <radialGradient
       r="117.68623"
       fy="25.390987"
       fx="189.43584"
       cy="103.61057"
       cx="186.75356"
       spreadMethod="reflect"
       gradientTransform="matrix(0.108343,-3.772661e-2,3.250021e-2,0.103572,43.86369,18.14670)"
       gradientUnits="userSpaceOnUse"
       id="radialGradient1466"
       xlink:href="#orangelesstoyelow"
       inkscape:collect="always" />
    <linearGradient
       y2="139.7401"
       x2="100.6055"
       y1="37.1133"
       x1="100.6055"
       gradientUnits="userSpaceOnUse"
       id="XMLID_1_">
      <stop
         id="stop9"
         style="stop-color:#FFA700"
         offset="0" />
      <stop
         id="stop11"
         style="stop-color:#FFFF00"
         offset="0.691" />
      <stop
         id="stop13"
         style="stop-color:#FFFC00"
         offset="0.792" />
      <stop
         id="stop15"
         style="stop-color:#FFF400"
         offset="0.8546" />
      <stop
         id="stop17"
         style="stop-color:#FFE500"
         offset="0.9067" />
      <stop
         id="stop19"
         style="stop-color:#FFD100"
         offset="0.953" />
      <stop
         id="stop21"
         style="stop-color:#FFB700"
         offset="0.9952" />
      <stop
         id="stop23"
         style="stop-color:#FFB300"
         offset="1" />
      <midPointStop
         id="midPointStop25"
         style="stop-color:#FFA700"
         offset="0" />
      <midPointStop
         id="midPointStop27"
         style="stop-color:#FFA700"
         offset="0.5" />
      <midPointStop
         id="midPointStop29"
         style="stop-color:#FFFF00"
         offset="0.691" />
      <midPointStop
         id="midPointStop31"
         style="stop-color:#FFFF00"
         offset="0.7952" />
      <midPointStop
         id="midPointStop33"
         style="stop-color:#FFB300"
         offset="1" />
    </linearGradient>
    <linearGradient
       y2="139.7401"
       x2="100.6055"
       y1="37.1133"
       x1="100.6055"
       gradientTransform="matrix(0.415564,-0.141914,0.129632,0.404838,36.30471,0.711290)"
       gradientUnits="userSpaceOnUse"
       id="linearGradient1464"
       xlink:href="#XMLID_1_"
       inkscape:collect="always" />
    <linearGradient
       y2="41.796101"
       x2="14.964557"
       y1="21.673885"
       x1="5.6831765"
       gradientTransform="matrix(1.254364,-7.782602e-3,-4.537336e-2,0.517179,61.21070,19.73312)"
       gradientUnits="userSpaceOnUse"
       id="linearGradient1462"
       xlink:href="#light75to0"
       inkscape:collect="always" />
    <linearGradient
       y2="-4.4011321"
       x2="122.96590"
       y1="0.76412511"
       x1="117.48062"
       gradientTransform="matrix(0.600915,2.740875e-2,-2.807554e-2,1.859011,4.718272,49.05071)"
       gradientUnits="userSpaceOnUse"
       id="linearGradient1460"
       xlink:href="#light100to25to0"
       inkscape:collect="always" />
    <linearGradient
       id="light100to25to0">
      <stop
         id="stop2785"
         offset="0.0000000"
         style="stop-color:#ffffff;stop-opacity:1.0000000;" />
      <stop
         id="stop2786"
         offset="0.50000000"
         style="stop-color:#ffffff;stop-opacity:0.28749999;" />
      <stop
         id="stop2787"
         offset="1.0000000"
         style="stop-color:#ffffff;stop-opacity:0.0000000;" />
    </linearGradient>
    <radialGradient
       r="35.001339"
       fy="30.823576"
       fx="151.53014"
       cy="30.823576"
       cx="151.53014"
       gradientTransform="matrix(0.326266,-0.137357,0.674297,1.782557,20.69438,49.30781)"
       gradientUnits="userSpaceOnUse"
       id="radialGradient1458"
       xlink:href="#light100to25to0"
       inkscape:collect="always" />
    <radialGradient
       r="23.378416"
       fy="5.6078486"
       fx="4.1564717"
       cy="5.6078486"
       cx="4.1564717"
       gradientTransform="scale(1.161987,0.860595)"
       gradientUnits="userSpaceOnUse"
       id="radialGradient5338"
       xlink:href="#light75to0"
       inkscape:collect="always" />
    <radialGradient
       r="508.29517"
       fy="52.577991"
       fx="53.182602"
       cy="52.577991"
       cx="53.182602"
       gradientTransform="matrix(0.255929,0.000000,0.000000,0.189547,-10.30524,-4.555270)"
       gradientUnits="userSpaceOnUse"
       id="radialGradient1100"
       xlink:href="#light75to0"
       inkscape:collect="always" />
    <linearGradient
       gradientUnits="userSpaceOnUse"
       y2="136.64960"
       x2="-34.171814"
       y1="5.7554412"
       x1="57.812698"
       gradientTransform="matrix(0.922125,0.000000,0.000000,1.118967,-2.048874e-5,-1.595332)"
       id="linearGradient4576"
       xlink:href="#garylighttowite"
       inkscape:collect="always" />
    <linearGradient
       y2="648.29797"
       x2="578.44397"
       y1="-50.289883"
       x1="-37.332329"
       gradientTransform="matrix(0.209693,0.000000,0.000000,0.231341,-9.453862,-3.779541)"
       gradientUnits="userSpaceOnUse"
       id="linearGradient1102"
       xlink:href="#garylighttowite"
       inkscape:collect="always" />
    <linearGradient
       id="garylighttowite">
      <stop
         id="stop5106"
         offset="0.0000000"
         style="stop-color:#7d7d7d;stop-opacity:1.0000000;" />
      <stop
         id="stop5107"
         offset="1.0000000"
         style="stop-color:#d3d4d4;stop-opacity:1.0000000;" />
    </linearGradient>
    <linearGradient
       y2="513.91156"
       x2="561.86395"
       y1="248.01839"
       x1="245.91402"
       gradientTransform="matrix(0.209693,0.000000,0.000000,0.231342,-9.818655,-3.780887)"
       gradientUnits="userSpaceOnUse"
       id="linearGradient1103"
       xlink:href="#garylighttowite"
       inkscape:collect="always" />
    <linearGradient
       y2="273.80606"
       x2="330.93881"
       y1="340.20792"
       x1="284.17496"
       gradientTransform="matrix(0.209693,0.000000,0.000000,0.231342,-10.06840,-3.759882)"
       gradientUnits="userSpaceOnUse"
       id="linearGradient1104"
       xlink:href="#graytolightgray"
       inkscape:collect="always" />
    <radialGradient
       r="1.4566305"
       fy="18.507948"
       fx="3.6621962"
       cy="18.507948"
       cx="3.6621962"
       spreadMethod="reflect"
       gradientTransform="matrix(2.253448,0.000000,0.000000,0.428114,31.01700,42.00000)"
       gradientUnits="userSpaceOnUse"
       id="radialGradient3810"
       xlink:href="#linearGradient2924"
       inkscape:collect="always" />
    <radialGradient
       r="1.4566305"
       fy="18.507948"
       fx="3.6621962"
       cy="18.507948"
       cx="3.6621962"
       spreadMethod="reflect"
       gradientTransform="matrix(2.253448,0.000000,0.000000,0.428114,31.01700,32.00000)"
       gradientUnits="userSpaceOnUse"
       id="radialGradient3808"
       xlink:href="#linearGradient2924"
       inkscape:collect="always" />
    <radialGradient
       r="1.4566305"
       fy="18.507948"
       fx="3.6621962"
       cy="18.507948"
       cx="3.6621962"
       spreadMethod="reflect"
       gradientTransform="matrix(2.253448,0.000000,0.000000,0.428114,31.01700,22.00000)"
       gradientUnits="userSpaceOnUse"
       id="radialGradient3806"
       xlink:href="#linearGradient2924"
       inkscape:collect="always" />
    <radialGradient
       r="1.4566305"
       fy="18.507948"
       fx="3.6621962"
       cy="18.507948"
       cx="3.6621962"
       spreadMethod="reflect"
       gradientTransform="matrix(2.253448,0.000000,0.000000,0.428114,31.01700,10.00000)"
       gradientUnits="userSpaceOnUse"
       id="radialGradient3804"
       xlink:href="#linearGradient2924"
       inkscape:collect="always" />
    <radialGradient
       r="1.4566305"
       fy="18.507948"
       fx="3.6621962"
       cy="18.507948"
       cx="3.6621962"
       spreadMethod="reflect"
       gradientTransform="matrix(2.253448,0.000000,0.000000,0.428114,31.01700,-2.899699e-15)"
       gradientUnits="userSpaceOnUse"
       id="radialGradient3802"
       xlink:href="#linearGradient2924"
       inkscape:collect="always" />
    <radialGradient
       r="1.4566305"
       fy="18.507948"
       fx="3.6621962"
       cy="18.507948"
       cx="3.6621962"
       spreadMethod="reflect"
       gradientTransform="matrix(2.253448,0.000000,0.000000,0.428114,1.017002,52.00000)"
       gradientUnits="userSpaceOnUse"
       id="radialGradient3800"
       xlink:href="#linearGradient2924"
       inkscape:collect="always" />
    <radialGradient
       r="1.4566305"
       fy="18.507948"
       fx="3.6621962"
       cy="18.507948"
       cx="3.6621962"
       spreadMethod="reflect"
       gradientTransform="matrix(2.253448,0.000000,0.000000,0.428114,1.017002,42.00000)"
       gradientUnits="userSpaceOnUse"
       id="radialGradient3798"
       xlink:href="#linearGradient2924"
       inkscape:collect="always" />
    <radialGradient
       r="1.4566305"
       fy="18.507948"
       fx="3.6621962"
       cy="18.507948"
       cx="3.6621962"
       spreadMethod="reflect"
       gradientTransform="matrix(2.253448,0.000000,0.000000,0.428114,1.017002,32.00000)"
       gradientUnits="userSpaceOnUse"
       id="radialGradient3796"
       xlink:href="#linearGradient2924"
       inkscape:collect="always" />
    <radialGradient
       r="1.4566305"
       fy="18.507948"
       fx="3.6621962"
       cy="18.507948"
       cx="3.6621962"
       spreadMethod="reflect"
       gradientTransform="matrix(2.253448,0.000000,0.000000,0.428114,1.017002,22.00000)"
       gradientUnits="userSpaceOnUse"
       id="radialGradient3794"
       xlink:href="#linearGradient2924"
       inkscape:collect="always" />
    <radialGradient
       r="1.4566305"
       fy="18.507948"
       fx="3.6621962"
       cy="18.507948"
       cx="3.6621962"
       spreadMethod="reflect"
       gradientTransform="matrix(2.253448,0.000000,0.000000,0.428114,1.017002,10.00000)"
       gradientUnits="userSpaceOnUse"
       id="radialGradient3792"
       xlink:href="#linearGradient2924"
       inkscape:collect="always" />
    <radialGradient
       r="1.4566305"
       fy="18.507948"
       fx="3.6621962"
       cy="18.507948"
       cx="3.6621962"
       spreadMethod="reflect"
       gradientTransform="matrix(2.253448,0.000000,0.000000,0.428114,1.017002,-2.899699e-15)"
       gradientUnits="userSpaceOnUse"
       id="radialGradient3790"
       xlink:href="#linearGradient2924"
       inkscape:collect="always" />
    <linearGradient
       id="linearGradient2924"
       inkscape:collect="always">
      <stop
         id="stop2926"
         offset="0"
         style="stop-color:#000000;stop-opacity:1;" />
      <stop
         id="stop2928"
         offset="1"
         style="stop-color:#000000;stop-opacity:0;" />
    </linearGradient>
    <radialGradient
       r="1.4566305"
       fy="18.507948"
       fx="3.6621962"
       cy="18.507948"
       cx="3.6621962"
       spreadMethod="reflect"
       gradientTransform="matrix(2.102580,0.000000,0.000000,0.428114,31.24620,52.00000)"
       gradientUnits="userSpaceOnUse"
       id="radialGradient3788"
       xlink:href="#linearGradient2924"
       inkscape:collect="always" />
    <linearGradient
       y2="323.76923"
       x2="272.46765"
       y1="59.053604"
       x1="122.43015"
       gradientTransform="matrix(0.209693,0.000000,0.000000,0.226279,-9.539524,-3.890427)"
       gradientUnits="userSpaceOnUse"
       id="linearGradient1101"
       xlink:href="#graytolightgray"
       inkscape:collect="always" />
    <linearGradient
       gradientUnits="userSpaceOnUse"
       y2="17.407320"
       x2="179.82318"
       y1="17.297279"
       x1="196.40405"
       gradientTransform="scale(0.394750,2.533248)"
       id="linearGradient21648"
       xlink:href="#light75to0"
       inkscape:collect="always" />
    <linearGradient
       id="light75to0">
      <stop
         id="stop2769"
         offset="0.0000000"
         style="stop-color:#ffffff;stop-opacity:0.72916669;" />
      <stop
         id="stop2770"
         offset="1.0000000"
         style="stop-color:#ffffff;stop-opacity:0.0000000;" />
    </linearGradient>
    <linearGradient
       gradientUnits="userSpaceOnUse"
       y2="189.94398"
       x2="414.83224"
       y1="148.64583"
       x1="406.16541"
       gradientTransform="scale(0.526614,1.898924)"
       id="linearGradient15758"
       xlink:href="#light75to0"
       inkscape:collect="always" />
    <linearGradient
       y2="470.93375"
       x2="180.75517"
       y1="408.28738"
       x1="130.60602"
       gradientTransform="scale(1.729412,0.578231)"
       gradientUnits="userSpaceOnUse"
       id="linearGradient15129"
       xlink:href="#graytolightgray"
       inkscape:collect="always" />
    <linearGradient
       y2="368.52307"
       x2="166.65126"
       y1="278.92441"
       x1="142.19385"
       gradientTransform="matrix(1.494665,0.000000,0.000000,0.470262,21.13456,163.2076)"
       gradientUnits="userSpaceOnUse"
       id="linearGradient15130"
       xlink:href="#blacktowhite"
       inkscape:collect="always" />
    <linearGradient
       y2="39.269283"
       x2="46.346687"
       y1="88.576233"
       x1="8.4329405"
       gradientTransform="scale(1.436842,0.695971)"
       gradientUnits="userSpaceOnUse"
       id="linearGradient15128"
       xlink:href="#graytolightgray"
       inkscape:collect="always" />
    <linearGradient
       y2="81.484245"
       x2="147.05203"
       y1="140.27173"
       x1="232.27733"
       gradientTransform="matrix(1.337508,0.000000,0.000000,0.525518,9.323765,244.4874)"
       gradientUnits="userSpaceOnUse"
       id="linearGradient15127"
       xlink:href="#blacktowhite"
       inkscape:collect="always" />
    <linearGradient
       y2="205.96529"
       x2="123.30837"
       y1="206.53716"
       x1="253.08090"
       gradientTransform="matrix(1.494665,0.000000,0.000000,0.470262,13.18526,232.9367)"
       gradientUnits="userSpaceOnUse"
       id="linearGradient15126"
       xlink:href="#blacktowhite"
       inkscape:collect="always" />
    <linearGradient
       y2="368.52307"
       x2="166.65126"
       y1="278.92441"
       x1="142.19385"
       gradientTransform="matrix(1.494665,0.000000,0.000000,0.470262,21.13456,163.2076)"
       gradientUnits="userSpaceOnUse"
       id="linearGradient15118"
       xlink:href="#blacktowhite"
       inkscape:collect="always" />
    <linearGradient
       y2="109.89973"
       x2="216.75711"
       y1="111.26886"
       x1="133.23598"
       gradientTransform="matrix(1.435849,0.000000,0.000000,0.489525,9.323765,244.4874)"
       gradientUnits="userSpaceOnUse"
       id="linearGradient15117"
       xlink:href="#graytolightgray"
       inkscape:collect="always" />
    <linearGradient
       y2="75.553932"
       x2="59.273689"
       y1="75.553932"
       x1="-0.36880860"
       gradientTransform="scale(1.436842,0.695971)"
       gradientUnits="userSpaceOnUse"
       id="linearGradient15116"
       xlink:href="#graytolightgray"
       inkscape:collect="always" />
    <linearGradient
       y2="81.484245"
       x2="147.05203"
       y1="140.27173"
       x1="232.27733"
       gradientTransform="matrix(1.337508,0.000000,0.000000,0.525518,9.323765,244.4874)"
       gradientUnits="userSpaceOnUse"
       id="linearGradient15115"
       xlink:href="#blacktowhite"
       inkscape:collect="always" />
    <linearGradient
       y2="205.96529"
       x2="123.30837"
       y1="206.53716"
       x1="253.08090"
       gradientTransform="matrix(1.494665,0.000000,0.000000,0.470262,13.18526,232.9367)"
       gradientUnits="userSpaceOnUse"
       id="linearGradient15114"
       xlink:href="#blacktowhite"
       inkscape:collect="always" />
    <linearGradient
       y2="368.52307"
       x2="166.65126"
       y1="278.92441"
       x1="142.19385"
       gradientTransform="matrix(1.494665,0.000000,0.000000,0.470262,21.13456,163.2076)"
       gradientUnits="userSpaceOnUse"
       id="linearGradient15095"
       xlink:href="#blacktowhite"
       inkscape:collect="always" />
    <linearGradient
       y2="109.89973"
       x2="216.75711"
       y1="111.26886"
       x1="133.23598"
       gradientTransform="matrix(1.435849,0.000000,0.000000,0.489525,9.323765,244.4874)"
       gradientUnits="userSpaceOnUse"
       id="linearGradient15096"
       xlink:href="#graytolightgray"
       inkscape:collect="always" />
    <linearGradient
       id="graytolightgray">
      <stop
         id="stop5101"
         offset="0.0000000"
         style="stop-color:#d4d3d3;stop-opacity:1.0000000;" />
      <stop
         id="stop5102"
         offset="1.0000000"
         style="stop-color:#ffffff;stop-opacity:1.0000000;" />
    </linearGradient>
    <linearGradient
       y2="75.553932"
       x2="59.273689"
       y1="75.553932"
       x1="-0.36880860"
       gradientTransform="scale(1.436842,0.695971)"
       gradientUnits="userSpaceOnUse"
       id="linearGradient15097"
       xlink:href="#graytolightgray"
       inkscape:collect="always" />
    <linearGradient
       y2="81.484245"
       x2="147.05203"
       y1="140.27173"
       x1="232.27733"
       gradientTransform="matrix(1.337508,0.000000,0.000000,0.525518,9.323765,244.4874)"
       gradientUnits="userSpaceOnUse"
       id="linearGradient15098"
       xlink:href="#blacktowhite"
       inkscape:collect="always" />
    <linearGradient
       id="blacktowhite">
      <stop
         id="stop2476"
         offset="0.0000000"
         style="stop-color:#000000;stop-opacity:1.0000000;" />
      <stop
         id="stop2475"
         offset="1.0000000"
         style="stop-color:#ffffff;stop-opacity:1.0000000;" />
    </linearGradient>
    <linearGradient
       y2="205.96529"
       x2="123.30837"
       y1="206.53716"
       x1="253.08090"
       gradientTransform="matrix(1.494665,0.000000,0.000000,0.470262,13.18526,232.9367)"
       gradientUnits="userSpaceOnUse"
       id="linearGradient15099"
       xlink:href="#blacktowhite"
       inkscape:collect="always" />
  </defs>
  <sodipodi:namedview
     inkscape:window-y="25"
     inkscape:window-x="0"
     inkscape:window-height="536"
     inkscape:window-width="640"
     inkscape:grid-bbox="true"
     inkscape:document-units="px"
     showgrid="true"
     inkscape:current-layer="layer1"
     inkscape:cy="33.231623"
     inkscape:cx="32.000000"
     inkscape:zoom="5.5000000"
     inkscape:pageshadow="2"
     inkscape:pageopacity="0.0"
     borderopacity="1.0"
     bordercolor="#666666"
     pagecolor="#ffffff"
     id="base" />
  <metadata
     id="metadata4">
    <rdf:RDF
       id="RDF5">
      <cc:Work
         id="Work6"
         rdf:about="">
        <dc:format
           id="format7">image/svg+xml</dc:format>
        <dc:type
           rdf:resource="http://purl.org/dc/dcmitype/StillImage"
           id="type9" />
      </cc:Work>
    </rdf:RDF>
  </metadata>
  <g
     inkscape:groupmode="layer"
     inkscape:label="Layer 1"
     id="layer1">
    <g
       transform="matrix(0.752220,0.000000,0.000000,0.764338,14.55956,2.833340)"
       id="g5350">
      <path
         inkscape:export-ydpi="48.818890"
         inkscape:export-xdpi="48.818890"
         sodipodi:nodetypes="ccccccc"
         id="path1105"
         d="M 31.166971,4.0265263 L 66.134686,3.6672163 L 66.134686,58.821325 L 46.746646,80.020623 L 3.1235554,80.020623 L 2.9504475,69.600630 L 31.166971,4.0265263 z "
         style="fill:#cbcbcb;fill-opacity:1.0000000;fill-rule:evenodd;stroke:none;stroke-width:0.25000000pt;stroke-linecap:butt;stroke-linejoin:miter;stroke-opacity:1.0000000" />
      <path
         id="path1727"
         d="M 1.3924811,1.3316998 L 63.538074,1.5113551 L 63.191859,56.306153 L 44.669357,76.607177 L 1.2193736,77.146142 L 1.3924811,1.3316998 z "
         style="fill:#ffffff;fill-opacity:1.0000000;fill-rule:evenodd;stroke:none;stroke-width:0.25000000pt;stroke-linecap:butt;stroke-linejoin:miter;stroke-opacity:1.0000000" />
      <path
         style="fill:url(#linearGradient1101);fill-opacity:1.0000000"
         id="path146"
         d="M 61.475112,2.8166649 L 2.8029403,2.8166649 L 2.7156894,75.076046 L 44.456176,75.076046 L 61.475112,56.664409 L 61.475112,2.8166649 z " />
      <g
         transform="matrix(0.997108,0.000000,0.000000,1.034822,1.481345,1.633198)"
         id="g3748">
        <rect
           y="59.644081"
           x="35.104050"
           height="3.3325481"
           width="15.059434"
           id="rect3734"
           style="opacity:0.70355731;fill:url(#radialGradient3788);fill-opacity:1.0000000;stroke:#000000;stroke-width:1.3743570;stroke-linejoin:round;stroke-miterlimit:4.0000000;stroke-opacity:1.0000000" />
        <rect
           y="7.6440830"
           x="5.1516776"
           height="3.1839819"
           width="22.986750"
           id="rect1380"
           style="opacity:0.70355731;fill:url(#radialGradient3790);fill-opacity:1.0000000;stroke:#000000;stroke-width:1.4228109;stroke-linejoin:round;stroke-miterlimit:4.0000000;stroke-opacity:1.0000000" />
        <rect
           y="17.644083"
           x="5.1516776"
           height="3.1839819"
           width="22.986750"
           id="rect3704"
           style="opacity:0.70355731;fill:url(#radialGradient3792);fill-opacity:1.0000000;stroke:#000000;stroke-width:1.4228109;stroke-linejoin:round;stroke-miterlimit:4.0000000;stroke-opacity:1.0000000" />
        <rect
           y="29.644081"
           x="5.1516776"
           height="3.1839819"
           width="22.986750"
           id="rect3708"
           style="opacity:0.70355731;fill:url(#radialGradient3794);fill-opacity:1.0000000;stroke:#000000;stroke-width:1.4228109;stroke-linejoin:round;stroke-miterlimit:4.0000000;stroke-opacity:1.0000000" />
        <rect
           y="39.644081"
           x="5.1516776"
           height="3.1839819"
           width="22.986750"
           id="rect3712"
           style="opacity:0.70355731;fill:url(#radialGradient3796);fill-opacity:1.0000000;stroke:#000000;stroke-width:1.4228109;stroke-linejoin:round;stroke-miterlimit:4.0000000;stroke-opacity:1.0000000" />
        <rect
           y="49.644081"
           x="5.1516776"
           height="3.1839819"
           width="22.986750"
           id="rect3716"
           style="opacity:0.70355731;fill:url(#radialGradient3798);fill-opacity:1.0000000;stroke:#000000;stroke-width:1.4228109;stroke-linejoin:round;stroke-miterlimit:4.0000000;stroke-opacity:1.0000000" />
        <rect
           y="59.644081"
           x="5.1516776"
           height="3.1839819"
           width="22.986750"
           id="rect3720"
           style="opacity:0.70355731;fill:url(#radialGradient3800);fill-opacity:1.0000000;stroke:#000000;stroke-width:1.4228109;stroke-linejoin:round;stroke-miterlimit:4.0000000;stroke-opacity:1.0000000" />
        <rect
           y="7.6440830"
           x="35.151680"
           height="3.1839819"
           width="22.986750"
           id="rect3724"
           style="opacity:0.70355731;fill:url(#radialGradient3802);fill-opacity:1.0000000;stroke:#000000;stroke-width:1.4228109;stroke-linejoin:round;stroke-miterlimit:4.0000000;stroke-opacity:1.0000000" />
        <rect
           y="17.644083"
           x="35.151680"
           height="3.1839819"
           width="22.986750"
           id="rect3726"
           style="opacity:0.70355731;fill:url(#radialGradient3804);fill-opacity:1.0000000;stroke:#000000;stroke-width:1.4228109;stroke-linejoin:round;stroke-miterlimit:4.0000000;stroke-opacity:1.0000000" />
        <rect
           y="29.644081"
           x="35.151680"
           height="3.1839819"
           width="22.986750"
           id="rect3728"
           style="opacity:0.70355731;fill:url(#radialGradient3806);fill-opacity:1.0000000;stroke:#000000;stroke-width:1.4228109;stroke-linejoin:round;stroke-miterlimit:4.0000000;stroke-opacity:1.0000000" />
        <rect
           y="39.644081"
           x="35.151680"
           height="3.1839819"
           width="22.986750"
           id="rect3730"
           style="opacity:0.70355731;fill:url(#radialGradient3808);fill-opacity:1.0000000;stroke:#000000;stroke-width:1.4228109;stroke-linejoin:round;stroke-miterlimit:4.0000000;stroke-opacity:1.0000000" />
        <rect
           y="49.644081"
           x="35.151680"
           height="3.1839819"
           width="22.986750"
           id="rect3732"
           style="opacity:0.70355731;fill:url(#radialGradient3810);fill-opacity:1.0000000;stroke:#000000;stroke-width:1.4228109;stroke-linejoin:round;stroke-miterlimit:4.0000000;stroke-opacity:1.0000000" />
      </g>
      <path
         sodipodi:nodetypes="cccc"
         style="fill:#ffffff"
         id="path163"
         d="M 45.074888,76.370767 L 63.534850,56.818618 L 44.974594,57.119500 L 45.074888,76.370767 z " />
      <path
         style="fill:url(#linearGradient1104);fill-opacity:1.0000000"
         id="path178"
         d="M 45.732203,75.999539 L 61.889866,58.175545 L 45.732203,58.175545 L 45.732203,75.999539 z " />
      <path
         sodipodi:nodetypes="ccccccccccccc"
         style="fill:url(#linearGradient1103);fill-opacity:1.0000000"
         id="path210"
         d="M 44.609822,56.422841 C 44.388902,56.422841 44.209601,56.620655 44.209601,56.864378 L 44.309895,77.118586 C 44.309895,77.297849 44.407549,77.458564 44.557236,77.527446 C 44.706910,77.594560 44.879004,77.558356 44.993471,77.431192 L 63.352333,57.176987 C 63.466800,57.050706 63.501222,56.860852 63.439584,56.695716 C 63.377149,56.530581 63.231464,56.422841 63.068978,56.422841 L 44.609822,56.422841 z M 62.102853,57.305918 C 60.885377,58.649072 46.327802,74.708678 45.110336,76.052718 C 45.110336,74.183246 45.010042,58.106867 45.010042,57.305918 C 45.734431,57.305918 60.408318,57.305918 62.102853,57.305918 z " />
      <path
         style="fill:url(#linearGradient1102);fill-opacity:1.0000000;stroke:url(#linearGradient4576);stroke-width:1.2697375;stroke-linejoin:round;stroke-miterlimit:4.0000000"
         id="path225"
         d="M 63.033541,1.7309375 C 63.033541,2.5972319 63.033541,56.321750 63.033541,56.682925 C 62.803811,56.936369 45.138927,76.424058 44.909198,76.678384 C 44.583418,76.678384 2.2001757,76.678384 1.4165404,76.678384 C 1.4165404,75.811213 1.4165404,2.5990019 1.4165404,1.7318213 C 2.2017730,1.7309375 62.249106,1.7309375 63.033541,1.7309375 z M 63.433752,0.84786116 L 0.61610814,0.84786116 L 0.61610814,77.560579 L 45.240584,77.560579 L 63.833973,57.047641 L 63.833973,0.84786116 L 63.433752,0.84786116 z " />
      <path
         sodipodi:nodetypes="ccccc"
         style="fill:url(#radialGradient1100);fill-opacity:1.0000000"
         id="path195"
         d="M 60.858202,9.0485709 L 60.858202,2.2533167 L 2.0011311,2.2533167 L 1.9483033,41.609314 C 24.556516,49.674867 57.281044,29.319558 60.858202,9.0485709 z " />
      <path
         sodipodi:nodetypes="ccccc"
         style="fill:url(#radialGradient5338);fill-opacity:1.0000000"
         id="path4578"
         d="M 60.858202,9.0485709 L 60.858202,2.2533167 L 2.0011311,2.2533167 L 1.9483033,41.609314 C 24.556516,49.674867 57.281044,29.319558 60.858202,9.0485709 z " />
    </g>
    <g
       transform="matrix(0.452384,0.000000,0.000000,0.465490,-1.534459,29.17164)"
       id="g21649">
      <path
         transform="matrix(0.551307,0.000000,0.000000,0.559005,-102.8460,-121.9196)"
         sodipodi:nodetypes="cccccccccccccc"
         id="path19591"
         d="M 260.29533,227.71408 C 240.02933,227.84036 218.31699,231.30576 203.33575,241.72453 C 196.63509,246.43147 193.44553,254.01296 193.59140,258.94297 C 194.03575,261.03349 192.71241,322.29849 194.87355,328.89701 C 197.29982,333.60352 202.21157,337.14302 207.88738,339.99406 L 207.88738,340.28868 C 208.81887,340.69882 209.74460,340.95480 210.67607,341.33619 C 213.74446,342.68490 216.90192,343.92164 220.09988,344.90428 C 242.54067,351.12382 267.90194,351.76200 291.03491,347.16298 C 304.23999,344.13194 318.94708,339.56539 324.88370,329.84632 C 328.14657,324.39893 326.28202,269.18073 326.74281,264.47513 C 326.49236,251.14450 325.37770,249.16768 321.35778,245.35807 C 310.30063,234.28845 290.72402,229.82431 272.70013,228.20510 C 268.57811,227.86953 264.44340,227.71417 260.29533,227.71408 z "
         style="fill:#818080;fill-opacity:0.14999999;stroke:none;stroke-width:3.7750001;stroke-linecap:butt;stroke-linejoin:round;stroke-miterlimit:4.0000000;stroke-dashoffset:0.0000000;stroke-opacity:1.0000000" />
      <path
         transform="matrix(0.551307,0.000000,0.000000,0.559005,-102.8460,-121.9196)"
         sodipodi:nodetypes="cccccccccccccc"
         id="path18878"
         d="M 260.51765,226.38708 C 239.91535,226.51655 217.84271,230.06959 202.61287,240.75181 C 195.80101,245.57778 192.55853,253.35097 192.70682,258.40565 C 193.15854,260.54903 191.81324,323.36321 194.01024,330.12858 C 196.47677,334.95411 201.47004,338.58311 207.24003,341.50624 L 207.24003,341.80831 C 208.18697,342.22882 209.12807,342.49128 210.07499,342.88231 C 213.19430,344.26512 216.40416,345.53314 219.65519,346.54063 C 242.46837,352.91743 268.25049,353.57175 291.76734,348.85643 C 305.19156,345.74876 320.14270,341.06673 326.17783,331.10190 C 329.49485,325.51676 327.59936,268.90228 328.06780,264.07770 C 327.81318,250.40998 326.68003,248.38317 322.59340,244.47723 C 311.35277,233.12770 291.45129,228.55067 273.12830,226.89053 C 268.93788,226.54647 264.73457,226.38718 260.51765,226.38708 z "
         style="fill:#818783;fill-opacity:0.14999999;stroke:none;stroke-width:3.7750001;stroke-linecap:butt;stroke-linejoin:round;stroke-miterlimit:4.0000000;stroke-dashoffset:0.0000000;stroke-opacity:1.0000000" />
      <g
         transform="matrix(0.551307,0.000000,0.000000,0.559005,-102.8460,-121.9196)"
         id="g15100">
        <path
           sodipodi:nodetypes="ccccccccccc"
           id="path15089"
           d="M 260.89731,275.58006 C 241.13951,275.70061 219.98621,279.00195 205.38065,288.94817 C 198.84802,293.44162 195.74351,300.68155 195.88573,305.38797 C 196.37338,307.63451 195.03218,319.90232 197.13913,326.20157 C 201.11293,333.74969 211.62472,338.43742 221.72805,341.47725 C 243.60613,347.41471 268.32266,348.03439 290.87554,343.64394 C 303.74951,340.75039 318.09671,336.38088 323.88446,327.10262 C 327.06553,321.90229 325.14301,316.14062 325.69067,310.66416 C 325.44649,297.93814 324.34757,296.07382 320.42845,292.43700 C 309.64859,281.86942 290.57648,277.60212 273.00457,276.05634 C 268.98591,275.73600 264.94138,275.58015 260.89731,275.58006 z "
           style="fill:#818783;fill-opacity:1.0000000;stroke:none;stroke-width:3.7750001;stroke-linecap:butt;stroke-linejoin:round;stroke-miterlimit:4.0000000;stroke-dashoffset:0.0000000;stroke-opacity:1.0000000" />
        <path
           sodipodi:nodetypes="ccccccccccc"
           id="path15090"
           d="M 322.86327,303.43886 C 322.66933,312.00786 311.36739,318.32370 300.23827,321.73582 C 277.28351,328.67288 249.92978,328.99479 226.26952,323.31731 C 215.00934,320.51890 203.72644,315.66037 199.48827,308.02958 C 198.92193,306.04909 198.05468,304.99043 198.42577,307.74403 C 198.30523,310.28607 198.10433,312.97324 198.42577,315.58558 C 198.15301,320.58951 198.12151,325.89881 203.42577,329.88488 C 213.69549,338.59716 230.88868,342.29722 247.08202,343.74488 C 268.91582,345.52090 292.67031,343.34350 310.61327,334.62935 C 318.30952,330.78506 323.73700,324.66963 322.70702,318.24336 C 322.79120,315.18170 322.75484,305.93593 322.86327,303.43886 z "
           style="fill:url(#linearGradient15099);fill-opacity:1.0000000;stroke:none;stroke-width:3.7750001;stroke-linecap:butt;stroke-linejoin:round;stroke-miterlimit:4.0000000;stroke-dashoffset:0.0000000;stroke-opacity:1.0000000" />
        <path
           sodipodi:nodetypes="cccccccccc"
           id="path15091"
           d="M 261.14326,279.73105 C 230.02641,279.73105 204.76801,289.65228 204.76801,301.88137 C 204.76801,314.11047 230.02641,324.03169 261.14326,324.03169 C 292.26012,324.03169 317.51852,314.11047 317.51852,301.88137 C 317.51852,289.65228 292.26012,279.73105 261.14326,279.73105 z M 261.39592,285.53916 C 290.46859,285.53916 314.07600,293.53629 314.07600,303.38309 C 314.07600,313.22989 290.46860,321.22702 261.39592,321.22702 C 232.32324,321.22702 208.71585,313.22989 208.71585,303.38309 C 208.71585,293.53628 232.32325,285.53916 261.39592,285.53916 z "
           style="fill:url(#linearGradient15098);fill-opacity:1.0000000;stroke:none;stroke-width:3.7724271;stroke-linecap:butt;stroke-linejoin:round;stroke-miterlimit:4.0000000;stroke-dashoffset:0.0000000;stroke-opacity:1.0000000" />
        <path
           transform="matrix(1.005132,0.000000,0.000000,0.757545,226.8913,264.6372)"
           d="M 85.497787 50.922665 A 52.112938 25.242205 0 1 1  -18.728088,50.922665 A 52.112938 25.242205 0 1 1  85.497787 50.922665 z"
           sodipodi:ry="25.242205"
           sodipodi:rx="52.112938"
           sodipodi:cy="50.922665"
           sodipodi:cx="33.384850"
           id="path15092"
           style="fill:url(#linearGradient15097);fill-opacity:1.0000000;stroke:none;stroke-width:3.7724271;stroke-linecap:butt;stroke-linejoin:round;stroke-miterlimit:4.0000000;stroke-dashoffset:0.0000000;stroke-opacity:1.0000000"
           sodipodi:type="arc" />
        <path
           id="path15093"
           d="M 260.59237,276.50373 C 226.70391,276.50373 199.20848,287.90251 199.20848,301.96132 C 199.20848,316.02011 226.70391,327.44087 260.59237,327.44087 C 294.48082,327.44087 321.97626,316.02011 321.97626,301.96132 C 321.97626,287.90252 294.48083,276.50373 260.59237,276.50373 z M 260.74840,279.86439 C 291.49489,279.86439 316.45265,289.73219 316.45265,301.89542 C 316.45265,314.05866 291.49489,323.92645 260.74840,323.92645 C 230.00192,323.92645 205.04416,314.05866 205.04416,301.89542 C 205.04416,289.73219 230.00192,279.86439 260.74840,279.86439 z "
           style="fill:url(#linearGradient15096);fill-opacity:1.0000000;stroke:none;stroke-width:3.7724271;stroke-linecap:butt;stroke-linejoin:round;stroke-miterlimit:4.0000000;stroke-dashoffset:0.0000000;stroke-opacity:1.0000000" />
        <path
           sodipodi:nodetypes="ccccccccc"
           id="path15094"
           d="M 322.82693,302.26246 C 322.33964,310.10980 311.62440,317.35349 300.49528,320.76561 C 277.54052,327.70267 249.89344,327.81839 226.23318,322.14091 C 214.97300,319.34250 203.15196,316.39168 198.38943,302.23761 C 198.34182,303.96329 198.26927,304.50510 198.24276,305.02541 C 201.96114,318.54480 216.37022,321.55129 227.63040,324.34970 C 251.29066,330.02718 278.79107,329.29289 301.74583,322.35583 C 312.76575,318.97719 322.06426,311.20585 322.76443,305.34217 C 322.77669,303.59414 322.79154,303.07754 322.82693,302.26246 z "
           style="fill:url(#linearGradient15095);fill-opacity:1.0000000;stroke:none;stroke-width:3.7750001;stroke-linecap:butt;stroke-linejoin:round;stroke-miterlimit:4.0000000;stroke-dashoffset:0.0000000;stroke-opacity:1.0000000" />
      </g>
      <g
         transform="matrix(0.551307,0.000000,0.000000,0.559005,-102.8460,-134.7683)"
         id="g15107">
        <path
           sodipodi:nodetypes="ccccccccccc"
           id="path15108"
           d="M 260.89731,275.58006 C 241.13951,275.70061 219.98621,279.00195 205.38065,288.94817 C 198.84802,293.44162 195.74351,300.68155 195.88573,305.38797 C 196.37338,307.63451 195.03218,319.90232 197.13913,326.20157 C 201.11293,333.74969 211.62472,338.43742 221.72805,341.47725 C 243.60613,347.41471 268.32266,348.03439 290.87554,343.64394 C 303.74951,340.75039 318.09671,336.38088 323.88446,327.10262 C 327.06553,321.90229 325.14301,316.14062 325.69067,310.66416 C 325.44649,297.93814 324.34757,296.07382 320.42845,292.43700 C 309.64859,281.86942 290.57648,277.60212 273.00457,276.05634 C 268.98591,275.73600 264.94138,275.58015 260.89731,275.58006 z "
           style="fill:#818783;fill-opacity:1.0000000;stroke:none;stroke-width:3.7750001;stroke-linecap:butt;stroke-linejoin:round;stroke-miterlimit:4.0000000;stroke-dashoffset:0.0000000;stroke-opacity:1.0000000" />
        <path
           sodipodi:nodetypes="ccccccccccc"
           id="path15109"
           d="M 322.86327,303.43886 C 322.66933,312.00786 311.36739,318.32370 300.23827,321.73582 C 277.28351,328.67288 249.92978,328.99479 226.26952,323.31731 C 215.00934,320.51890 203.72644,315.66037 199.48827,308.02958 C 198.92193,306.04909 198.05468,304.99043 198.42577,307.74403 C 198.30523,310.28607 198.10433,312.97324 198.42577,315.58558 C 198.15301,320.58951 198.12151,325.89881 203.42577,329.88488 C 213.69549,338.59716 230.88868,342.29722 247.08202,343.74488 C 268.91582,345.52090 292.67031,343.34350 310.61327,334.62935 C 318.30952,330.78506 323.73700,324.66963 322.70702,318.24336 C 322.79120,315.18170 322.75484,305.93593 322.86327,303.43886 z "
           style="fill:url(#linearGradient15114);fill-opacity:1.0000000;stroke:none;stroke-width:3.7750001;stroke-linecap:butt;stroke-linejoin:round;stroke-miterlimit:4.0000000;stroke-dashoffset:0.0000000;stroke-opacity:1.0000000" />
        <path
           sodipodi:nodetypes="cccccccccc"
           id="path15110"
           d="M 261.14326,279.73105 C 230.02641,279.73105 204.76801,289.65228 204.76801,301.88137 C 204.76801,314.11047 230.02641,324.03169 261.14326,324.03169 C 292.26012,324.03169 317.51852,314.11047 317.51852,301.88137 C 317.51852,289.65228 292.26012,279.73105 261.14326,279.73105 z M 261.39592,285.53916 C 290.46859,285.53916 314.07600,293.53629 314.07600,303.38309 C 314.07600,313.22989 290.46860,321.22702 261.39592,321.22702 C 232.32324,321.22702 208.71585,313.22989 208.71585,303.38309 C 208.71585,293.53628 232.32325,285.53916 261.39592,285.53916 z "
           style="fill:url(#linearGradient15115);fill-opacity:1.0000000;stroke:none;stroke-width:3.7724271;stroke-linecap:butt;stroke-linejoin:round;stroke-miterlimit:4.0000000;stroke-dashoffset:0.0000000;stroke-opacity:1.0000000" />
        <path
           transform="matrix(1.005132,0.000000,0.000000,0.757545,226.8913,264.6372)"
           d="M 85.497787 50.922665 A 52.112938 25.242205 0 1 1  -18.728088,50.922665 A 52.112938 25.242205 0 1 1  85.497787 50.922665 z"
           sodipodi:ry="25.242205"
           sodipodi:rx="52.112938"
           sodipodi:cy="50.922665"
           sodipodi:cx="33.384850"
           id="path15111"
           style="fill:url(#linearGradient15116);fill-opacity:1.0000000;stroke:none;stroke-width:3.7724271;stroke-linecap:butt;stroke-linejoin:round;stroke-miterlimit:4.0000000;stroke-dashoffset:0.0000000;stroke-opacity:1.0000000"
           sodipodi:type="arc" />
        <path
           id="path15112"
           d="M 260.59237,276.50373 C 226.70391,276.50373 199.20848,287.90251 199.20848,301.96132 C 199.20848,316.02011 226.70391,327.44087 260.59237,327.44087 C 294.48082,327.44087 321.97626,316.02011 321.97626,301.96132 C 321.97626,287.90252 294.48083,276.50373 260.59237,276.50373 z M 260.74840,279.86439 C 291.49489,279.86439 316.45265,289.73219 316.45265,301.89542 C 316.45265,314.05866 291.49489,323.92645 260.74840,323.92645 C 230.00192,323.92645 205.04416,314.05866 205.04416,301.89542 C 205.04416,289.73219 230.00192,279.86439 260.74840,279.86439 z "
           style="fill:url(#linearGradient15117);fill-opacity:1.0000000;stroke:none;stroke-width:3.7724271;stroke-linecap:butt;stroke-linejoin:round;stroke-miterlimit:4.0000000;stroke-dashoffset:0.0000000;stroke-opacity:1.0000000" />
        <path
           sodipodi:nodetypes="ccccccccc"
           id="path15113"
           d="M 322.82693,302.26246 C 322.33964,310.10980 311.62440,317.35349 300.49528,320.76561 C 277.54052,327.70267 249.89344,327.81839 226.23318,322.14091 C 214.97300,319.34250 203.15196,316.39168 198.38943,302.23761 C 198.34182,303.96329 198.26927,304.50510 198.24276,305.02541 C 201.96114,318.54480 216.37022,321.55129 227.63040,324.34970 C 251.29066,330.02718 278.79107,329.29289 301.74583,322.35583 C 312.76575,318.97719 322.06426,311.20585 322.76443,305.34217 C 322.77669,303.59414 322.79154,303.07754 322.82693,302.26246 z "
           style="fill:url(#linearGradient15118);fill-opacity:1.0000000;stroke:none;stroke-width:3.7750001;stroke-linecap:butt;stroke-linejoin:round;stroke-miterlimit:4.0000000;stroke-dashoffset:0.0000000;stroke-opacity:1.0000000" />
      </g>
      <path
         transform="matrix(0.551307,0.000000,0.000000,0.559005,-102.8460,-147.6169)"
         sodipodi:nodetypes="ccccccccccc"
         id="path15120"
         d="M 260.89731,275.58006 C 241.13951,275.70061 219.98621,279.00195 205.38065,288.94817 C 198.84802,293.44162 195.74351,300.68155 195.88573,305.38797 C 196.37338,307.63451 195.03218,319.90232 197.13913,326.20157 C 201.11293,333.74969 211.62472,338.43742 221.72805,341.47725 C 243.60613,347.41471 268.32266,348.03439 290.87554,343.64394 C 303.74951,340.75039 318.09671,336.38088 323.88446,327.10262 C 327.06553,321.90229 325.14301,316.14062 325.69067,310.66416 C 325.44649,297.93814 324.34757,296.07382 320.42845,292.43700 C 309.64859,281.86942 290.57648,277.60212 273.00457,276.05634 C 268.98591,275.73600 264.94138,275.58015 260.89731,275.58006 z "
         style="fill:#818783;fill-opacity:1.0000000;stroke:none;stroke-width:3.7750001;stroke-linecap:butt;stroke-linejoin:round;stroke-miterlimit:4.0000000;stroke-dashoffset:0.0000000;stroke-opacity:1.0000000" />
      <path
         transform="matrix(0.551307,0.000000,0.000000,0.559005,-102.8460,-147.6169)"
         sodipodi:nodetypes="ccccccccccc"
         id="path15121"
         d="M 322.86327,303.43886 C 322.66933,312.00786 311.36739,318.32370 300.23827,321.73582 C 277.28351,328.67288 249.92978,328.99479 226.26952,323.31731 C 215.00934,320.51890 203.72644,315.66037 199.48827,308.02958 C 198.92193,306.04909 198.05468,304.99043 198.42577,307.74403 C 198.30523,310.28607 198.10433,312.97324 198.42577,315.58558 C 198.15301,320.58951 198.12151,325.89881 203.42577,329.88488 C 213.69549,338.59716 230.88868,342.29722 247.08202,343.74488 C 268.91582,345.52090 292.67031,343.34350 310.61327,334.62935 C 318.30952,330.78506 323.73700,324.66963 322.70702,318.24336 C 322.79120,315.18170 322.75484,305.93593 322.86327,303.43886 z "
         style="fill:url(#linearGradient15126);fill-opacity:1.0000000;stroke:none;stroke-width:3.7750001;stroke-linecap:butt;stroke-linejoin:round;stroke-miterlimit:4.0000000;stroke-dashoffset:0.0000000;stroke-opacity:1.0000000" />
      <path
         transform="matrix(0.551307,0.000000,0.000000,0.559005,-102.8460,-147.6169)"
         sodipodi:nodetypes="cccccccccc"
         id="path15122"
         d="M 261.14326,279.73105 C 230.02641,279.73105 204.76801,289.65228 204.76801,301.88137 C 204.76801,314.11047 230.02641,324.03169 261.14326,324.03169 C 292.26012,324.03169 317.51852,314.11047 317.51852,301.88137 C 317.51852,289.65228 292.26012,279.73105 261.14326,279.73105 z M 261.39592,285.53916 C 290.46859,285.53916 314.07600,293.53629 314.07600,303.38309 C 314.07600,313.22989 290.46860,321.22702 261.39592,321.22702 C 232.32324,321.22702 208.71585,313.22989 208.71585,303.38309 C 208.71585,293.53628 232.32325,285.53916 261.39592,285.53916 z "
         style="fill:url(#linearGradient15127);fill-opacity:1.0000000;stroke:none;stroke-width:3.7724271;stroke-linecap:butt;stroke-linejoin:round;stroke-miterlimit:4.0000000;stroke-dashoffset:0.0000000;stroke-opacity:1.0000000" />
      <path
         transform="matrix(0.554136,0.000000,0.000000,0.423471,22.24076,0.316626)"
         d="M 85.497787 50.922665 A 52.112938 25.242205 0 1 1  -18.728088,50.922665 A 52.112938 25.242205 0 1 1  85.497787 50.922665 z"
         sodipodi:ry="25.242205"
         sodipodi:rx="52.112938"
         sodipodi:cy="50.922665"
         sodipodi:cx="33.384850"
         id="path15123"
         style="fill:url(#linearGradient15128);fill-opacity:1.0000000;stroke:none;stroke-width:3.7724271;stroke-linecap:butt;stroke-linejoin:round;stroke-miterlimit:4.0000000;stroke-dashoffset:0.0000000;stroke-opacity:1.0000000"
         sodipodi:type="arc" />
      <path
         transform="matrix(0.551307,0.000000,0.000000,0.559005,-102.8460,-147.6169)"
         sodipodi:nodetypes="ccccccccc"
         id="path15125"
         d="M 322.82693,302.26246 C 322.33964,310.10980 311.62440,317.35349 300.49528,320.76561 C 277.54052,327.70267 249.89344,327.81839 226.23318,322.14091 C 222.51441,321.13452 203.15196,316.39168 198.38943,302.23761 C 198.34182,303.96329 198.26927,304.50510 198.24276,305.02541 C 201.96114,318.54480 220.92493,322.74597 227.63040,324.34970 C 251.29066,330.02718 278.79107,329.29289 301.74583,322.35583 C 312.76575,318.97719 322.06426,311.20585 322.76443,305.34217 C 322.77669,303.59414 322.79154,303.07754 322.82693,302.26246 z "
         style="fill:url(#linearGradient15130);fill-opacity:1.0000000;stroke:none;stroke-width:3.7750001;stroke-linecap:butt;stroke-linejoin:round;stroke-miterlimit:4.0000000;stroke-dashoffset:0.0000000;stroke-opacity:1.0000000" />
      <path
         transform="matrix(0.551307,0.000000,0.000000,0.559005,-102.8460,-121.9196)"
         id="path15124"
         d="M 260.59238,230.53399 C 226.70392,230.53399 199.20849,241.71280 199.20849,255.50031 C 199.20849,269.28780 226.70392,280.48817 260.59238,280.48817 C 294.48083,280.48817 321.97627,269.28780 321.97627,255.50031 C 321.97627,241.71281 294.48084,230.53399 260.59238,230.53399 z M 260.74841,233.82980 C 291.49490,233.82980 316.45266,243.50717 316.45266,255.43568 C 316.45266,267.36420 291.49490,277.04157 260.74841,277.04157 C 230.00193,277.04157 205.04417,267.36420 205.04417,255.43568 C 205.04417,243.50717 230.00193,233.82980 260.74841,233.82980 z "
         style="fill:url(#linearGradient15129);fill-opacity:1.0000000;stroke:none;stroke-width:3.7724271;stroke-linecap:butt;stroke-linejoin:round;stroke-miterlimit:4.0000000;stroke-dashoffset:0.0000000;stroke-opacity:1.0000000" />
      <path
         transform="matrix(0.551307,0.000000,0.000000,0.559005,-102.8460,-121.9196)"
         sodipodi:nodetypes="ccccc"
         id="path15131"
         d="M 210.36519,269.66987 C 214.22664,272.59874 227.28642,277.08126 232.93567,277.65629 L 232.02206,343.49000 C 224.61485,342.58770 217.20764,340.27531 209.80044,337.08162 L 210.36519,269.66987 z "
         style="fill:url(#linearGradient15758);fill-opacity:1.0000000;fill-rule:evenodd;stroke:none;stroke-width:0.25000000pt;stroke-linecap:butt;stroke-linejoin:miter;stroke-opacity:1.0000000" />
      <path
         sodipodi:nodetypes="ccccc"
         id="path21023"
         d="M 75.981664,21.212174 L 75.335011,59.953774 C 74.239336,62.522463 71.961666,64.415727 69.515139,65.126994 L 69.698383,29.561108 C 73.481375,26.834416 75.575802,24.783150 75.981664,21.212174 z "
         style="fill:url(#linearGradient21648);fill-opacity:1.0000000;fill-rule:evenodd;stroke:none;stroke-width:0.25000000pt;stroke-linecap:butt;stroke-linejoin:miter;stroke-opacity:1.0000000" />
    </g>
    <g
       transform="translate(-9.932630,-6.263517)"
       id="g6166">
      <g
         transform="matrix(0.790134,0.000000,0.000000,0.812591,0.492553,-3.750812)"
         id="g1447">
        <path
           id="rect1353"
           d="M 72.344202,40.031278 L 74.418438,39.337065 C 75.397085,39.009527 76.419450,39.513453 76.710736,40.466944 L 91.096318,87.556475 C 91.387604,88.509966 90.834240,89.541262 89.855593,89.868799 L 87.781357,90.563013 C 86.802710,90.890550 85.780346,90.386625 85.489060,89.433134 L 71.103479,42.343603 C 70.812193,41.390112 71.365555,40.358815 72.344202,40.031278 z "
           style="fill:#000000;fill-opacity:1.0000000;stroke:none;stroke-width:0.96249998;stroke-linecap:round;stroke-linejoin:round;stroke-miterlimit:4.0000000;stroke-dashoffset:0.0000000;stroke-opacity:0.036734644" />
        <path
           sodipodi:nodetypes="ccccccccc"
           id="path1976"
           d="M 74.379412,44.120024 L 76.255195,43.525332 C 77.140210,43.244750 77.170146,43.935782 77.420615,44.797734 L 90.299976,86.974131 C 90.550444,87.836081 90.347002,88.976868 89.461986,89.257451 L 87.720523,89.748748 C 86.835508,90.029331 86.587603,89.658620 86.337135,88.796669 L 73.234022,46.182356 C 72.983554,45.320405 73.494398,44.400605 74.379412,44.120024 z "
           style="fill:url(#radialGradient1458);fill-opacity:1.0000000;stroke:none;stroke-width:0.96249998;stroke-linecap:round;stroke-linejoin:round;stroke-miterlimit:4.0000000;stroke-dashoffset:0.0000000;stroke-opacity:0.036734644" />
        <path
           sodipodi:nodetypes="csccc"
           id="path2607"
           d="M 73.648583,40.461901 C 77.671012,53.713031 81.286503,59.973176 83.476744,73.549268 C 84.533872,80.101836 84.235945,80.917397 83.430705,81.186570 C 78.660454,65.950048 76.500409,58.314175 71.730130,43.077653 C 72.519030,42.344950 72.859682,41.194602 73.648583,40.461901 z "
           style="fill:url(#linearGradient1460);fill-opacity:1.0000000;fill-rule:evenodd;stroke:none;stroke-width:0.25354896pt;stroke-linecap:butt;stroke-linejoin:miter;stroke-opacity:1.0000000" />
        <path
           id="path6094"
           d="M 65.644283,34.549893 C 65.688188,34.070867 65.732095,33.591840 65.776001,33.112823 C 65.819907,32.633796 65.863813,32.154770 65.907729,31.675744 C 65.943482,31.155122 66.129037,30.836783 66.570464,30.802035 C 68.025373,30.788154 69.480273,30.774282 70.935182,30.760410 C 72.390091,30.746539 73.844990,30.732667 75.299900,30.718786 C 75.099823,32.261323 68.905626,31.982925 68.029625,32.079023 C 66.422855,32.255285 67.454678,33.975330 65.644283,34.549893 z "
           style="fill:url(#linearGradient1462);fill-opacity:1.0000000;fill-rule:evenodd;stroke:none;stroke-width:0.012500000;stroke-linecap:butt;stroke-linejoin:miter;stroke-miterlimit:4.0000000;stroke-opacity:1.0000000" />
        <path
           style="fill:url(#linearGradient1464)"
           id="path1106"
           d="M 93.974650,35.641550 C 93.846274,35.830902 93.622406,36.069029 93.256370,36.204361 C 93.623083,36.069698 93.851326,35.846690 93.983725,35.669888 C 94.191691,35.393628 94.430869,34.859247 94.163517,34.083325 C 94.370170,34.846746 94.161008,35.365480 93.974650,35.641550 z " />
        <path
           style="fill:url(#radialGradient1466);stroke:url(#linearGradient1468);stroke-width:0.29878873;stroke-linejoin:round;stroke-miterlimit:4.0000000;stroke-opacity:0.41874996"
           id="path1107"
           d="M 88.677487,19.961111 C 88.485640,19.690966 88.003834,19.282417 86.934876,19.584098 L 75.610858,22.805672 C 74.962877,22.989893 74.002143,22.689850 73.593832,22.174280 L 66.496769,13.209019 C 65.825493,12.365587 65.185216,12.423577 64.861601,12.532756 C 64.538849,12.641283 63.986014,12.989276 63.905955,14.086613 L 63.053209,25.732731 C 63.002631,26.411602 62.395326,27.229933 61.754497,27.481158 L 50.764840,31.800017 C 49.729302,32.200271 49.559456,32.825557 49.550392,33.162853 C 49.541331,33.500149 49.679561,34.122050 50.701349,34.498756 L 61.494460,38.474428 C 62.121328,38.709268 62.691844,39.511622 62.710134,40.190028 L 63.010393,51.814771 C 63.040296,52.909967 63.577281,53.239284 63.894176,53.338827 C 64.212674,53.437812 64.851860,53.474966 65.563642,52.608672 L 73.088743,43.425198 C 73.528759,42.886594 74.488104,42.560958 75.142745,42.727862 L 86.317923,45.603875 C 87.372728,45.876072 87.873496,45.452848 88.078484,45.176491 C 88.283471,44.900134 88.539237,44.300385 87.956588,43.391345 L 81.812406,33.735214 C 81.460828,33.181638 81.484602,32.165675 81.862322,31.603134 L 88.474005,21.750048 C 89.096299,20.821905 88.869335,20.231254 88.677487,19.961111 z " />
        <path
           style="fill:url(#linearGradient1470)"
           id="path1108"
           d="M 80.983373,30.260843 L 85.030866,23.714280 C 85.517618,22.926868 85.322460,22.412615 85.162057,22.175542 C 85.002267,21.938256 84.604651,21.576110 83.744245,21.814512 L 74.635026,24.359475 C 74.113533,24.505362 73.330712,24.226347 72.990539,23.773156 L 67.076932,15.893981 C 66.518307,15.152521 66.000561,15.189625 65.740862,15.276777 C 65.481467,15.363824 65.040312,15.652611 64.996045,16.597086 L 64.521953,26.624784 C 64.493717,27.209179 64.017405,27.902598 63.502968,28.105780 L 54.685047,31.604067 C 53.854103,31.927661 53.728006,32.463428 53.727174,32.754459 C 53.726239,33.045163 53.849397,33.584488 54.683924,33.930389 L 63.496661,37.582572 C 64.008593,37.797792 64.485590,38.502096 64.512969,39.087526 L 64.527980,39.408382 C 65.513343,39.150516 66.502965,38.855096 67.494368,38.509873 C 72.907998,36.624752 77.539090,33.692498 80.983373,30.260843 z " />
        <path
           style="fill:url(#linearGradient1472)"
           id="path1109"
           d="M 94.377323,35.579946 C 94.247189,35.770039 94.020523,36.009283 93.650611,36.145946 C 94.021211,36.009951 94.252249,35.785842 94.386404,35.608312 C 94.597110,35.330905 94.840049,34.794791 94.572265,34.018149 C 94.778798,34.782442 94.566214,35.302795 94.377323,35.579946 z " />
        <path
           style="opacity:0.29999998;fill:#e89500"
           id="path1110"
           d="M 74.510059,40.703844 C 73.836982,40.498345 72.867485,40.827156 72.433935,41.406761 L 65.418029,52.561275 C 64.716686,53.493767 64.063013,53.432586 63.735299,53.312710 C 63.502077,53.227037 63.152405,53.001675 62.948330,52.440678 C 63.117141,53.059981 63.500155,53.283922 63.750607,53.361488 C 64.071885,53.459714 64.717084,53.495034 65.438005,52.624938 L 73.059781,43.401213 C 73.505456,42.860250 74.474854,42.531122 75.135308,42.696396 L 86.409660,45.544643 C 86.941158,45.679284 87.334110,45.640475 87.619918,45.532871 C 87.334309,45.641108 86.938276,45.670100 86.396640,45.503150 L 74.510059,40.703844 z " />
      </g>
      <g
         id="g1501"
         transform="matrix(0.248564,0.297420,-0.269806,0.311806,21.32322,23.87997)">
        <path
           id="path1447"
           d="M 5.2690550,-32.969311 C 5.3129600,-33.448337 5.3568670,-33.927364 5.4007730,-34.406381 C 5.4446790,-34.885408 5.4885850,-35.364434 5.5325010,-35.843460 C 5.5682540,-36.364082 5.7538090,-36.682421 6.1952360,-36.717169 C 7.6501450,-36.731050 9.1050450,-36.744922 10.559954,-36.758794 C 12.014863,-36.772665 13.469762,-36.786537 14.924672,-36.800418 C 14.724595,-35.257881 8.5303980,-35.536279 7.6543970,-35.440181 C 6.0476270,-35.263919 7.0794500,-33.543874 5.2690550,-32.969311 z "
           style="fill:url(#linearGradient1509);fill-opacity:1.0000000;fill-rule:evenodd;stroke:none;stroke-width:0.012500000;stroke-linecap:butt;stroke-linejoin:miter;stroke-miterlimit:4.0000000;stroke-opacity:1.0000000" />
        <path
           style="fill:url(#linearGradient1511)"
           id="path1449"
           d="M 33.599422,-31.877654 C 33.471046,-31.688302 33.247178,-31.450175 32.881142,-31.314843 C 33.247855,-31.449506 33.476098,-31.672514 33.608497,-31.849316 C 33.816463,-32.125576 34.055641,-32.659957 33.788289,-33.435879 C 33.994942,-32.672458 33.785780,-32.153724 33.599422,-31.877654 z " />
        <path
           style="fill:url(#radialGradient1513);stroke:url(#linearGradient1515);stroke-width:0.29878873;stroke-linejoin:round;stroke-miterlimit:4.0000000;stroke-opacity:0.41874996"
           id="path1451"
           d="M 28.302259,-47.558093 C 28.110412,-47.828238 27.628606,-48.236787 26.559648,-47.935106 L 15.235630,-44.713532 C 14.587649,-44.529311 13.626915,-44.829354 13.218604,-45.344924 L 6.1215410,-54.310185 C 5.4502650,-55.153617 4.8099880,-55.095627 4.4863730,-54.986448 C 4.1636210,-54.877921 3.6107860,-54.529928 3.5307270,-53.432591 L 2.6779810,-41.786473 C 2.6274030,-41.107602 2.0200980,-40.289271 1.3792690,-40.038046 L -9.6103880,-35.719187 C -10.645926,-35.318933 -10.815772,-34.693647 -10.824836,-34.356351 C -10.833897,-34.019055 -10.695667,-33.397154 -9.6738790,-33.020448 L 1.1192320,-29.044776 C 1.7461000,-28.809936 2.3166160,-28.007582 2.3349060,-27.329176 L 2.6351650,-15.704433 C 2.6650680,-14.609237 3.2020530,-14.279920 3.5189480,-14.180377 C 3.8374460,-14.081392 4.4766320,-14.044238 5.1884140,-14.910532 L 12.713515,-24.094006 C 13.153531,-24.632610 14.112876,-24.958246 14.767517,-24.791342 L 25.942695,-21.915329 C 26.997500,-21.643132 27.498268,-22.066356 27.703256,-22.342713 C 27.908243,-22.619070 28.164009,-23.218819 27.581360,-24.127859 L 21.437178,-33.783990 C 21.085600,-34.337566 21.109374,-35.353529 21.487094,-35.916070 L 28.098777,-45.769156 C 28.721071,-46.697299 28.494107,-47.287950 28.302259,-47.558093 z " />
        <path
           style="fill:url(#linearGradient1517)"
           id="path1453"
           d="M 20.608145,-37.258361 L 24.655638,-43.804924 C 25.142390,-44.592336 24.947232,-45.106589 24.786829,-45.343662 C 24.627039,-45.580948 24.229423,-45.943094 23.369017,-45.704692 L 14.259798,-43.159729 C 13.738305,-43.013842 12.955484,-43.292857 12.615311,-43.746048 L 6.7017040,-51.625223 C 6.1430790,-52.366683 5.6253330,-52.329579 5.3656340,-52.242427 C 5.1062390,-52.155380 4.6650840,-51.866593 4.6208170,-50.922118 L 4.1467250,-40.894420 C 4.1184890,-40.310025 3.6421770,-39.616606 3.1277400,-39.413424 L -5.6901811,-35.915137 C -6.5211246,-35.591543 -6.6472217,-35.055776 -6.6480540,-34.764745 C -6.6489892,-34.474041 -6.5258309,-33.934716 -5.6913039,-33.588815 L 3.1214330,-29.936632 C 3.6333650,-29.721412 4.1103620,-29.017108 4.1377410,-28.431678 L 4.1527520,-28.110822 C 5.1381150,-28.368688 6.1277370,-28.664108 7.1191400,-29.009331 C 12.532770,-30.894452 17.163862,-33.826706 20.608145,-37.258361 z " />
        <path
           style="fill:url(#linearGradient1519)"
           id="path1455"
           d="M 34.002095,-31.939258 C 33.871961,-31.749165 33.645295,-31.509921 33.275383,-31.373258 C 33.645983,-31.509253 33.877021,-31.733362 34.011176,-31.910892 C 34.221882,-32.188299 34.464821,-32.724413 34.197037,-33.501055 C 34.403570,-32.736762 34.190986,-32.216409 34.002095,-31.939258 z " />
        <path
           style="opacity:0.29999998;fill:#e89500"
           id="path1457"
           d="M 14.134831,-26.815360 C 13.461754,-27.020859 12.492257,-26.692048 12.058707,-26.112443 L 5.0428010,-14.957929 C 4.3414580,-14.025437 3.6877850,-14.086618 3.3600710,-14.206494 C 3.1268490,-14.292167 2.7771770,-14.517529 2.5731020,-15.078526 C 2.7419130,-14.459223 3.1249270,-14.235282 3.3753790,-14.157716 C 3.6966570,-14.059490 4.3418560,-14.024170 5.0627770,-14.894266 L 12.684553,-24.117991 C 13.130228,-24.658954 14.099626,-24.988082 14.760080,-24.822808 L 26.034432,-21.974561 C 26.565930,-21.839920 26.958882,-21.878729 27.244690,-21.986333 C 26.959081,-21.878096 26.563048,-21.849104 26.021412,-22.016054 L 14.134831,-26.815360 z " />
      </g>
      <g
         id="g1521"
         transform="matrix(0.242425,-3.017043e-2,4.685604e-2,0.276907,17.37467,30.51363)">
        <path
           id="path1523"
           d="M 5.2690550,-32.969311 C 5.3129600,-33.448337 5.3568670,-33.927364 5.4007730,-34.406381 C 5.4446790,-34.885408 5.4885850,-35.364434 5.5325010,-35.843460 C 5.5682540,-36.364082 5.7538090,-36.682421 6.1952360,-36.717169 C 7.6501450,-36.731050 9.1050450,-36.744922 10.559954,-36.758794 C 12.014863,-36.772665 13.469762,-36.786537 14.924672,-36.800418 C 14.724595,-35.257881 8.5303980,-35.536279 7.6543970,-35.440181 C 6.0476270,-35.263919 7.0794500,-33.543874 5.2690550,-32.969311 z "
           style="fill:url(#linearGradient1535);fill-opacity:1.0000000;fill-rule:evenodd;stroke:none;stroke-width:0.012500000;stroke-linecap:butt;stroke-linejoin:miter;stroke-miterlimit:4.0000000;stroke-opacity:1.0000000" />
        <path
           style="fill:url(#linearGradient1537)"
           id="path1525"
           d="M 33.599422,-31.877654 C 33.471046,-31.688302 33.247178,-31.450175 32.881142,-31.314843 C 33.247855,-31.449506 33.476098,-31.672514 33.608497,-31.849316 C 33.816463,-32.125576 34.055641,-32.659957 33.788289,-33.435879 C 33.994942,-32.672458 33.785780,-32.153724 33.599422,-31.877654 z " />
        <path
           style="fill:url(#radialGradient1539);stroke:url(#linearGradient1541);stroke-width:0.29878873;stroke-linejoin:round;stroke-miterlimit:4.0000000;stroke-opacity:0.41874996"
           id="path1527"
           d="M 28.302259,-47.558093 C 28.110412,-47.828238 27.628606,-48.236787 26.559648,-47.935106 L 15.235630,-44.713532 C 14.587649,-44.529311 13.626915,-44.829354 13.218604,-45.344924 L 6.1215410,-54.310185 C 5.4502650,-55.153617 4.8099880,-55.095627 4.4863730,-54.986448 C 4.1636210,-54.877921 3.6107860,-54.529928 3.5307270,-53.432591 L 2.6779810,-41.786473 C 2.6274030,-41.107602 2.0200980,-40.289271 1.3792690,-40.038046 L -9.6103880,-35.719187 C -10.645926,-35.318933 -10.815772,-34.693647 -10.824836,-34.356351 C -10.833897,-34.019055 -10.695667,-33.397154 -9.6738790,-33.020448 L 1.1192320,-29.044776 C 1.7461000,-28.809936 2.3166160,-28.007582 2.3349060,-27.329176 L 2.6351650,-15.704433 C 2.6650680,-14.609237 3.2020530,-14.279920 3.5189480,-14.180377 C 3.8374460,-14.081392 4.4766320,-14.044238 5.1884140,-14.910532 L 12.713515,-24.094006 C 13.153531,-24.632610 14.112876,-24.958246 14.767517,-24.791342 L 25.942695,-21.915329 C 26.997500,-21.643132 27.498268,-22.066356 27.703256,-22.342713 C 27.908243,-22.619070 28.164009,-23.218819 27.581360,-24.127859 L 21.437178,-33.783990 C 21.085600,-34.337566 21.109374,-35.353529 21.487094,-35.916070 L 28.098777,-45.769156 C 28.721071,-46.697299 28.494107,-47.287950 28.302259,-47.558093 z " />
        <path
           style="fill:url(#linearGradient1543)"
           id="path1529"
           d="M 20.608145,-37.258361 L 24.655638,-43.804924 C 25.142390,-44.592336 24.947232,-45.106589 24.786829,-45.343662 C 24.627039,-45.580948 24.229423,-45.943094 23.369017,-45.704692 L 14.259798,-43.159729 C 13.738305,-43.013842 12.955484,-43.292857 12.615311,-43.746048 L 6.7017040,-51.625223 C 6.1430790,-52.366683 5.6253330,-52.329579 5.3656340,-52.242427 C 5.1062390,-52.155380 4.6650840,-51.866593 4.6208170,-50.922118 L 4.1467250,-40.894420 C 4.1184890,-40.310025 3.6421770,-39.616606 3.1277400,-39.413424 L -5.6901811,-35.915137 C -6.5211246,-35.591543 -6.6472217,-35.055776 -6.6480540,-34.764745 C -6.6489892,-34.474041 -6.5258309,-33.934716 -5.6913039,-33.588815 L 3.1214330,-29.936632 C 3.6333650,-29.721412 4.1103620,-29.017108 4.1377410,-28.431678 L 4.1527520,-28.110822 C 5.1381150,-28.368688 6.1277370,-28.664108 7.1191400,-29.009331 C 12.532770,-30.894452 17.163862,-33.826706 20.608145,-37.258361 z " />
        <path
           style="fill:url(#linearGradient1545)"
           id="path1531"
           d="M 34.002095,-31.939258 C 33.871961,-31.749165 33.645295,-31.509921 33.275383,-31.373258 C 33.645983,-31.509253 33.877021,-31.733362 34.011176,-31.910892 C 34.221882,-32.188299 34.464821,-32.724413 34.197037,-33.501055 C 34.403570,-32.736762 34.190986,-32.216409 34.002095,-31.939258 z " />
        <path
           style="opacity:0.29999998;fill:#e89500"
           id="path1533"
           d="M 14.134831,-26.815360 C 13.461754,-27.020859 12.492257,-26.692048 12.058707,-26.112443 L 5.0428010,-14.957929 C 4.3414580,-14.025437 3.6877850,-14.086618 3.3600710,-14.206494 C 3.1268490,-14.292167 2.7771770,-14.517529 2.5731020,-15.078526 C 2.7419130,-14.459223 3.1249270,-14.235282 3.3753790,-14.157716 C 3.6966570,-14.059490 4.3418560,-14.024170 5.0627770,-14.894266 L 12.684553,-24.117991 C 13.130228,-24.658954 14.099626,-24.988082 14.760080,-24.822808 L 26.034432,-21.974561 C 26.565930,-21.839920 26.958882,-21.878729 27.244690,-21.986333 C 26.959081,-21.878096 26.563048,-21.849104 26.021412,-22.016054 L 14.134831,-26.815360 z " />
      </g>
      <g
         id="g1547"
         transform="matrix(0.140272,-1.600557e-2,2.711178e-2,0.146901,12.44720,40.16389)">
        <path
           id="path1549"
           d="M 5.2690550,-32.969311 C 5.3129600,-33.448337 5.3568670,-33.927364 5.4007730,-34.406381 C 5.4446790,-34.885408 5.4885850,-35.364434 5.5325010,-35.843460 C 5.5682540,-36.364082 5.7538090,-36.682421 6.1952360,-36.717169 C 7.6501450,-36.731050 9.1050450,-36.744922 10.559954,-36.758794 C 12.014863,-36.772665 13.469762,-36.786537 14.924672,-36.800418 C 14.724595,-35.257881 8.5303980,-35.536279 7.6543970,-35.440181 C 6.0476270,-35.263919 7.0794500,-33.543874 5.2690550,-32.969311 z "
           style="fill:url(#linearGradient1561);fill-opacity:1.0000000;fill-rule:evenodd;stroke:none;stroke-width:0.012500000;stroke-linecap:butt;stroke-linejoin:miter;stroke-miterlimit:4.0000000;stroke-opacity:1.0000000" />
        <path
           style="fill:url(#linearGradient1563)"
           id="path1551"
           d="M 33.599422,-31.877654 C 33.471046,-31.688302 33.247178,-31.450175 32.881142,-31.314843 C 33.247855,-31.449506 33.476098,-31.672514 33.608497,-31.849316 C 33.816463,-32.125576 34.055641,-32.659957 33.788289,-33.435879 C 33.994942,-32.672458 33.785780,-32.153724 33.599422,-31.877654 z " />
        <path
           style="fill:url(#radialGradient1565);stroke:url(#linearGradient1567);stroke-width:0.29878873;stroke-linejoin:round;stroke-miterlimit:4.0000000;stroke-opacity:0.41874996"
           id="path1553"
           d="M 28.302259,-47.558093 C 28.110412,-47.828238 27.628606,-48.236787 26.559648,-47.935106 L 15.235630,-44.713532 C 14.587649,-44.529311 13.626915,-44.829354 13.218604,-45.344924 L 6.1215410,-54.310185 C 5.4502650,-55.153617 4.8099880,-55.095627 4.4863730,-54.986448 C 4.1636210,-54.877921 3.6107860,-54.529928 3.5307270,-53.432591 L 2.6779810,-41.786473 C 2.6274030,-41.107602 2.0200980,-40.289271 1.3792690,-40.038046 L -9.6103880,-35.719187 C -10.645926,-35.318933 -10.815772,-34.693647 -10.824836,-34.356351 C -10.833897,-34.019055 -10.695667,-33.397154 -9.6738790,-33.020448 L 1.1192320,-29.044776 C 1.7461000,-28.809936 2.3166160,-28.007582 2.3349060,-27.329176 L 2.6351650,-15.704433 C 2.6650680,-14.609237 3.2020530,-14.279920 3.5189480,-14.180377 C 3.8374460,-14.081392 4.4766320,-14.044238 5.1884140,-14.910532 L 12.713515,-24.094006 C 13.153531,-24.632610 14.112876,-24.958246 14.767517,-24.791342 L 25.942695,-21.915329 C 26.997500,-21.643132 27.498268,-22.066356 27.703256,-22.342713 C 27.908243,-22.619070 28.164009,-23.218819 27.581360,-24.127859 L 21.437178,-33.783990 C 21.085600,-34.337566 21.109374,-35.353529 21.487094,-35.916070 L 28.098777,-45.769156 C 28.721071,-46.697299 28.494107,-47.287950 28.302259,-47.558093 z " />
        <path
           style="fill:url(#linearGradient1569)"
           id="path1555"
           d="M 20.608145,-37.258361 L 24.655638,-43.804924 C 25.142390,-44.592336 24.947232,-45.106589 24.786829,-45.343662 C 24.627039,-45.580948 24.229423,-45.943094 23.369017,-45.704692 L 14.259798,-43.159729 C 13.738305,-43.013842 12.955484,-43.292857 12.615311,-43.746048 L 6.7017040,-51.625223 C 6.1430790,-52.366683 5.6253330,-52.329579 5.3656340,-52.242427 C 5.1062390,-52.155380 4.6650840,-51.866593 4.6208170,-50.922118 L 4.1467250,-40.894420 C 4.1184890,-40.310025 3.6421770,-39.616606 3.1277400,-39.413424 L -5.6901811,-35.915137 C -6.5211246,-35.591543 -6.6472217,-35.055776 -6.6480540,-34.764745 C -6.6489892,-34.474041 -6.5258309,-33.934716 -5.6913039,-33.588815 L 3.1214330,-29.936632 C 3.6333650,-29.721412 4.1103620,-29.017108 4.1377410,-28.431678 L 4.1527520,-28.110822 C 5.1381150,-28.368688 6.1277370,-28.664108 7.1191400,-29.009331 C 12.532770,-30.894452 17.163862,-33.826706 20.608145,-37.258361 z " />
        <path
           style="fill:url(#linearGradient1571)"
           id="path1557"
           d="M 34.002095,-31.939258 C 33.871961,-31.749165 33.645295,-31.509921 33.275383,-31.373258 C 33.645983,-31.509253 33.877021,-31.733362 34.011176,-31.910892 C 34.221882,-32.188299 34.464821,-32.724413 34.197037,-33.501055 C 34.403570,-32.736762 34.190986,-32.216409 34.002095,-31.939258 z " />
        <path
           style="opacity:0.29999998;fill:#e89500"
           id="path1559"
           d="M 14.134831,-26.815360 C 13.461754,-27.020859 12.492257,-26.692048 12.058707,-26.112443 L 5.0428010,-14.957929 C 4.3414580,-14.025437 3.6877850,-14.086618 3.3600710,-14.206494 C 3.1268490,-14.292167 2.7771770,-14.517529 2.5731020,-15.078526 C 2.7419130,-14.459223 3.1249270,-14.235282 3.3753790,-14.157716 C 3.6966570,-14.059490 4.3418560,-14.024170 5.0627770,-14.894266 L 12.684553,-24.117991 C 13.130228,-24.658954 14.099626,-24.988082 14.760080,-24.822808 L 26.034432,-21.974561 C 26.565930,-21.839920 26.958882,-21.878729 27.244690,-21.986333 C 26.959081,-21.878096 26.563048,-21.849104 26.021412,-22.016054 L 14.134831,-26.815360 z " />
      </g>
    </g>
  </g>
</svg>
