<?xml version="1.0" encoding="UTF-8" standalone="no"?>
<!-- Created with Inkscape (http://www.inkscape.org/) -->
<svg
   xmlns:dc="http://purl.org/dc/elements/1.1/"
   xmlns:cc="http://web.resource.org/cc/"
   xmlns:rdf="http://www.w3.org/1999/02/22-rdf-syntax-ns#"
   xmlns:svg="http://www.w3.org/2000/svg"
   xmlns="http://www.w3.org/2000/svg"
   xmlns:xlink="http://www.w3.org/1999/xlink"
   xmlns:sodipodi="http://inkscape.sourceforge.net/DTD/sodipodi-0.dtd"
   xmlns:inkscape="http://www.inkscape.org/namespaces/inkscape"
   inkscape:export-ydpi="45.000000"
   inkscape:export-xdpi="45.000000"
   inkscape:export-filename="/home/pinheiro/kdeplayground-artwork/oooicons/crystalsvg/dbreportdelete.png"
   sodipodi:docname="dbreportdelete.svg"
   sodipodi:docbase="/home/pinheiro/kdeplayground-artwork/oooicons/crystalsvg"
   inkscape:version="0.41"
   sodipodi:version="0.32"
   id="svg1953"
   height="64px"
   width="64px">
  <defs
     id="defs3">
    <radialGradient
       r="166.47372"
       fy="391.47498"
       fx="124.57159"
       cy="391.47498"
       cx="123.88702"
       gradientTransform="matrix(0.184210,0.000000,0.000000,7.817184e-2,66.02301,330.3594)"
       gradientUnits="userSpaceOnUse"
       id="radialGradient2386"
       xlink:href="#light90to0"
       inkscape:collect="always" />
    <linearGradient
       id="light90to0">
      <stop
         id="stop1890"
         offset="0.0000000"
         style="stop-color:#ffffff;stop-opacity:0.90196079;" />
      <stop
         id="stop1892"
         offset="1.0000000"
         style="stop-color:#ffffff;stop-opacity:0.0000000;" />
    </linearGradient>
    <linearGradient
       y2="346.10425"
       x2="183.38441"
       y1="18.164442"
       x1="183.38441"
       gradientUnits="userSpaceOnUse"
       id="linearGradient2385"
       xlink:href="#light90to0"
       inkscape:collect="always" />
    <linearGradient
       id="reddarktoblack">
      <stop
         id="stop3230"
         offset="0.0000000"
         style="stop-color:#8e0000;stop-opacity:1.0000000;" />
      <stop
         id="stop3231"
         offset="1.0000000"
         style="stop-color:#000000;stop-opacity:1.0000000;" />
    </linearGradient>
    <linearGradient
       y2="810.38373"
       x2="340.91357"
       y1="440.88812"
       x1="-27.252979"
       gradientTransform="scale(1.000041,0.999959)"
       gradientUnits="userSpaceOnUse"
       id="linearGradient2384"
       xlink:href="#reddarktoblack"
       inkscape:collect="always" />
    <linearGradient
       id="redtodarkred">
      <stop
         id="stop3856"
         offset="0.0000000"
         style="stop-color:#ff0000;stop-opacity:1.0000000;" />
      <stop
         id="stop3855"
         offset="1.0000000"
         style="stop-color:#920000;stop-opacity:1.0000000;" />
    </linearGradient>
    <radialGradient
       r="190.24219"
       fy="742.83777"
       fx="217.18332"
       cy="739.74438"
       cx="217.18330"
       gradientTransform="scale(1.000041,0.999959)"
       gradientUnits="userSpaceOnUse"
       id="radialGradient2383"
       xlink:href="#redtodarkred"
       inkscape:collect="always" />
    <radialGradient
       inkscape:collect="always"
       xlink:href="#light75to0"
       id="radialGradient5338"
       gradientUnits="userSpaceOnUse"
       gradientTransform="scale(1.161987,0.860595)"
       cx="4.1564717"
       cy="5.6078486"
       fx="4.1564717"
       fy="5.6078486"
       r="23.378416" />
    <radialGradient
       inkscape:collect="always"
       xlink:href="#light75to0"
       id="radialGradient1100"
       gradientUnits="userSpaceOnUse"
       gradientTransform="matrix(0.255929,0.000000,0.000000,0.189547,-10.30524,-4.555270)"
       cx="53.182602"
       cy="52.577991"
       fx="53.182602"
       fy="52.577991"
       r="508.29517" />
    <linearGradient
       inkscape:collect="always"
       xlink:href="#garylighttowite"
       id="linearGradient4576"
       gradientTransform="matrix(0.922125,0.000000,0.000000,1.118967,-2.048874e-5,-1.595332)"
       x1="57.812698"
       y1="5.7554412"
       x2="-34.171814"
       y2="136.64960"
       gradientUnits="userSpaceOnUse" />
    <linearGradient
       inkscape:collect="always"
       xlink:href="#garylighttowite"
       id="linearGradient1102"
       gradientUnits="userSpaceOnUse"
       gradientTransform="matrix(0.209693,0.000000,0.000000,0.231341,-9.453862,-3.779541)"
       x1="-37.332329"
       y1="-50.289883"
       x2="578.44397"
       y2="648.29797" />
    <linearGradient
       id="garylighttowite">
      <stop
         style="stop-color:#7d7d7d;stop-opacity:1.0000000;"
         offset="0.0000000"
         id="stop5106" />
      <stop
         style="stop-color:#d3d4d4;stop-opacity:1.0000000;"
         offset="1.0000000"
         id="stop5107" />
    </linearGradient>
    <linearGradient
       inkscape:collect="always"
       xlink:href="#garylighttowite"
       id="linearGradient1103"
       gradientUnits="userSpaceOnUse"
       gradientTransform="matrix(0.209693,0.000000,0.000000,0.231342,-9.818655,-3.780887)"
       x1="245.91402"
       y1="248.01839"
       x2="561.86395"
       y2="513.91156" />
    <linearGradient
       inkscape:collect="always"
       xlink:href="#graytolightgray"
       id="linearGradient1104"
       gradientUnits="userSpaceOnUse"
       gradientTransform="matrix(0.209693,0.000000,0.000000,0.231342,-10.06840,-3.759882)"
       x1="284.17496"
       y1="340.20792"
       x2="330.93881"
       y2="273.80606" />
    <radialGradient
       inkscape:collect="always"
       xlink:href="#linearGradient2924"
       id="radialGradient3810"
       gradientUnits="userSpaceOnUse"
       gradientTransform="matrix(2.253448,0.000000,0.000000,0.428114,31.01700,42.00000)"
       spreadMethod="reflect"
       cx="3.6621962"
       cy="18.507948"
       fx="3.6621962"
       fy="18.507948"
       r="1.4566305" />
    <radialGradient
       inkscape:collect="always"
       xlink:href="#linearGradient2924"
       id="radialGradient3808"
       gradientUnits="userSpaceOnUse"
       gradientTransform="matrix(2.253448,0.000000,0.000000,0.428114,31.01700,32.00000)"
       spreadMethod="reflect"
       cx="3.6621962"
       cy="18.507948"
       fx="3.6621962"
       fy="18.507948"
       r="1.4566305" />
    <radialGradient
       inkscape:collect="always"
       xlink:href="#linearGradient2924"
       id="radialGradient3806"
       gradientUnits="userSpaceOnUse"
       gradientTransform="matrix(2.253448,0.000000,0.000000,0.428114,31.01700,22.00000)"
       spreadMethod="reflect"
       cx="3.6621962"
       cy="18.507948"
       fx="3.6621962"
       fy="18.507948"
       r="1.4566305" />
    <radialGradient
       inkscape:collect="always"
       xlink:href="#linearGradient2924"
       id="radialGradient3804"
       gradientUnits="userSpaceOnUse"
       gradientTransform="matrix(2.253448,0.000000,0.000000,0.428114,31.01700,10.00000)"
       spreadMethod="reflect"
       cx="3.6621962"
       cy="18.507948"
       fx="3.6621962"
       fy="18.507948"
       r="1.4566305" />
    <radialGradient
       inkscape:collect="always"
       xlink:href="#linearGradient2924"
       id="radialGradient3802"
       gradientUnits="userSpaceOnUse"
       gradientTransform="matrix(2.253448,0.000000,0.000000,0.428114,31.01700,-2.697047e-15)"
       spreadMethod="reflect"
       cx="3.6621962"
       cy="18.507948"
       fx="3.6621962"
       fy="18.507948"
       r="1.4566305" />
    <radialGradient
       inkscape:collect="always"
       xlink:href="#linearGradient2924"
       id="radialGradient3800"
       gradientUnits="userSpaceOnUse"
       gradientTransform="matrix(2.253448,0.000000,0.000000,0.428114,1.017002,52.00000)"
       spreadMethod="reflect"
       cx="3.6621962"
       cy="18.507948"
       fx="3.6621962"
       fy="18.507948"
       r="1.4566305" />
    <radialGradient
       inkscape:collect="always"
       xlink:href="#linearGradient2924"
       id="radialGradient3798"
       gradientUnits="userSpaceOnUse"
       gradientTransform="matrix(2.253448,0.000000,0.000000,0.428114,1.017002,42.00000)"
       spreadMethod="reflect"
       cx="3.6621962"
       cy="18.507948"
       fx="3.6621962"
       fy="18.507948"
       r="1.4566305" />
    <radialGradient
       inkscape:collect="always"
       xlink:href="#linearGradient2924"
       id="radialGradient3796"
       gradientUnits="userSpaceOnUse"
       gradientTransform="matrix(2.253448,0.000000,0.000000,0.428114,1.017002,32.00000)"
       spreadMethod="reflect"
       cx="3.6621962"
       cy="18.507948"
       fx="3.6621962"
       fy="18.507948"
       r="1.4566305" />
    <radialGradient
       inkscape:collect="always"
       xlink:href="#linearGradient2924"
       id="radialGradient3794"
       gradientUnits="userSpaceOnUse"
       gradientTransform="matrix(2.253448,0.000000,0.000000,0.428114,1.017002,22.00000)"
       spreadMethod="reflect"
       cx="3.6621962"
       cy="18.507948"
       fx="3.6621962"
       fy="18.507948"
       r="1.4566305" />
    <radialGradient
       inkscape:collect="always"
       xlink:href="#linearGradient2924"
       id="radialGradient3792"
       gradientUnits="userSpaceOnUse"
       gradientTransform="matrix(2.253448,0.000000,0.000000,0.428114,1.017002,10.00000)"
       spreadMethod="reflect"
       cx="3.6621962"
       cy="18.507948"
       fx="3.6621962"
       fy="18.507948"
       r="1.4566305" />
    <radialGradient
       inkscape:collect="always"
       xlink:href="#linearGradient2924"
       id="radialGradient3790"
       gradientUnits="userSpaceOnUse"
       gradientTransform="matrix(2.253448,0.000000,0.000000,0.428114,1.017002,-2.697047e-15)"
       spreadMethod="reflect"
       cx="3.6621962"
       cy="18.507948"
       fx="3.6621962"
       fy="18.507948"
       r="1.4566305" />
    <linearGradient
       inkscape:collect="always"
       id="linearGradient2924">
      <stop
         style="stop-color:#000000;stop-opacity:1;"
         offset="0"
         id="stop2926" />
      <stop
         style="stop-color:#000000;stop-opacity:0;"
         offset="1"
         id="stop2928" />
    </linearGradient>
    <radialGradient
       inkscape:collect="always"
       xlink:href="#linearGradient2924"
       id="radialGradient3788"
       gradientUnits="userSpaceOnUse"
       gradientTransform="matrix(2.102580,0.000000,0.000000,0.428114,31.24620,52.00000)"
       spreadMethod="reflect"
       cx="3.6621962"
       cy="18.507948"
       fx="3.6621962"
       fy="18.507948"
       r="1.4566305" />
    <linearGradient
       inkscape:collect="always"
       xlink:href="#graytolightgray"
       id="linearGradient1101"
       gradientUnits="userSpaceOnUse"
       gradientTransform="matrix(0.209693,0.000000,0.000000,0.226279,-9.539524,-3.890427)"
       x1="122.43015"
       y1="59.053604"
       x2="272.46765"
       y2="323.76923" />
    <linearGradient
       inkscape:collect="always"
       xlink:href="#light75to0"
       id="linearGradient21648"
       gradientTransform="scale(0.394750,2.533248)"
       x1="196.40405"
       y1="17.297279"
       x2="179.82318"
       y2="17.407320"
       gradientUnits="userSpaceOnUse" />
    <linearGradient
       id="light75to0">
      <stop
         style="stop-color:#ffffff;stop-opacity:0.72916669;"
         offset="0.0000000"
         id="stop2769" />
      <stop
         style="stop-color:#ffffff;stop-opacity:0.0000000;"
         offset="1.0000000"
         id="stop2770" />
    </linearGradient>
    <linearGradient
       inkscape:collect="always"
       xlink:href="#light75to0"
       id="linearGradient15758"
       gradientTransform="scale(0.526614,1.898924)"
       x1="406.16541"
       y1="148.64583"
       x2="414.83224"
       y2="189.94398"
       gradientUnits="userSpaceOnUse" />
    <linearGradient
       inkscape:collect="always"
       xlink:href="#graytolightgray"
       id="linearGradient15129"
       gradientUnits="userSpaceOnUse"
       gradientTransform="scale(1.729412,0.578231)"
       x1="130.60602"
       y1="408.28738"
       x2="180.75517"
       y2="470.93375" />
    <linearGradient
       inkscape:collect="always"
       xlink:href="#blacktowhite"
       id="linearGradient15130"
       gradientUnits="userSpaceOnUse"
       gradientTransform="matrix(1.494665,0.000000,0.000000,0.470262,21.13456,163.2076)"
       x1="142.19385"
       y1="278.92441"
       x2="166.65126"
       y2="368.52307" />
    <linearGradient
       inkscape:collect="always"
       xlink:href="#graytolightgray"
       id="linearGradient15128"
       gradientUnits="userSpaceOnUse"
       gradientTransform="scale(1.436842,0.695971)"
       x1="8.4329405"
       y1="88.576233"
       x2="46.346687"
       y2="39.269283" />
    <linearGradient
       inkscape:collect="always"
       xlink:href="#blacktowhite"
       id="linearGradient15127"
       gradientUnits="userSpaceOnUse"
       gradientTransform="matrix(1.337508,0.000000,0.000000,0.525518,9.323765,244.4874)"
       x1="232.27733"
       y1="140.27173"
       x2="147.05203"
       y2="81.484245" />
    <linearGradient
       inkscape:collect="always"
       xlink:href="#blacktowhite"
       id="linearGradient15126"
       gradientUnits="userSpaceOnUse"
       gradientTransform="matrix(1.494665,0.000000,0.000000,0.470262,13.18526,232.9367)"
       x1="253.08090"
       y1="206.53716"
       x2="123.30837"
       y2="205.96529" />
    <linearGradient
       inkscape:collect="always"
       xlink:href="#blacktowhite"
       id="linearGradient15118"
       gradientUnits="userSpaceOnUse"
       gradientTransform="matrix(1.494665,0.000000,0.000000,0.470262,21.13456,163.2076)"
       x1="142.19385"
       y1="278.92441"
       x2="166.65126"
       y2="368.52307" />
    <linearGradient
       inkscape:collect="always"
       xlink:href="#graytolightgray"
       id="linearGradient15117"
       gradientUnits="userSpaceOnUse"
       gradientTransform="matrix(1.435849,0.000000,0.000000,0.489525,9.323765,244.4874)"
       x1="133.23598"
       y1="111.26886"
       x2="216.75711"
       y2="109.89973" />
    <linearGradient
       inkscape:collect="always"
       xlink:href="#graytolightgray"
       id="linearGradient15116"
       gradientUnits="userSpaceOnUse"
       gradientTransform="scale(1.436842,0.695971)"
       x1="-0.36880860"
       y1="75.553932"
       x2="59.273689"
       y2="75.553932" />
    <linearGradient
       inkscape:collect="always"
       xlink:href="#blacktowhite"
       id="linearGradient15115"
       gradientUnits="userSpaceOnUse"
       gradientTransform="matrix(1.337508,0.000000,0.000000,0.525518,9.323765,244.4874)"
       x1="232.27733"
       y1="140.27173"
       x2="147.05203"
       y2="81.484245" />
    <linearGradient
       inkscape:collect="always"
       xlink:href="#blacktowhite"
       id="linearGradient15114"
       gradientUnits="userSpaceOnUse"
       gradientTransform="matrix(1.494665,0.000000,0.000000,0.470262,13.18526,232.9367)"
       x1="253.08090"
       y1="206.53716"
       x2="123.30837"
       y2="205.96529" />
    <linearGradient
       inkscape:collect="always"
       xlink:href="#blacktowhite"
       id="linearGradient15095"
       gradientUnits="userSpaceOnUse"
       gradientTransform="matrix(1.494665,0.000000,0.000000,0.470262,21.13456,163.2076)"
       x1="142.19385"
       y1="278.92441"
       x2="166.65126"
       y2="368.52307" />
    <linearGradient
       inkscape:collect="always"
       xlink:href="#graytolightgray"
       id="linearGradient15096"
       gradientUnits="userSpaceOnUse"
       gradientTransform="matrix(1.435849,0.000000,0.000000,0.489525,9.323765,244.4874)"
       x1="133.23598"
       y1="111.26886"
       x2="216.75711"
       y2="109.89973" />
    <linearGradient
       id="graytolightgray">
      <stop
         style="stop-color:#d4d3d3;stop-opacity:1.0000000;"
         offset="0.0000000"
         id="stop5101" />
      <stop
         style="stop-color:#ffffff;stop-opacity:1.0000000;"
         offset="1.0000000"
         id="stop5102" />
    </linearGradient>
    <linearGradient
       inkscape:collect="always"
       xlink:href="#graytolightgray"
       id="linearGradient15097"
       gradientUnits="userSpaceOnUse"
       gradientTransform="scale(1.436842,0.695971)"
       x1="-0.36880860"
       y1="75.553932"
       x2="59.273689"
       y2="75.553932" />
    <linearGradient
       inkscape:collect="always"
       xlink:href="#blacktowhite"
       id="linearGradient15098"
       gradientUnits="userSpaceOnUse"
       gradientTransform="matrix(1.337508,0.000000,0.000000,0.525518,9.323765,244.4874)"
       x1="232.27733"
       y1="140.27173"
       x2="147.05203"
       y2="81.484245" />
    <linearGradient
       id="blacktowhite">
      <stop
         style="stop-color:#000000;stop-opacity:1.0000000;"
         offset="0.0000000"
         id="stop2476" />
      <stop
         style="stop-color:#ffffff;stop-opacity:1.0000000;"
         offset="1.0000000"
         id="stop2475" />
    </linearGradient>
    <linearGradient
       inkscape:collect="always"
       xlink:href="#blacktowhite"
       id="linearGradient15099"
       gradientUnits="userSpaceOnUse"
       gradientTransform="matrix(1.494665,0.000000,0.000000,0.470262,13.18526,232.9367)"
       x1="253.08090"
       y1="206.53716"
       x2="123.30837"
       y2="205.96529" />
  </defs>
  <sodipodi:namedview
     inkscape:window-y="310"
     inkscape:window-x="489"
     inkscape:window-height="536"
     inkscape:window-width="640"
     inkscape:grid-bbox="true"
     inkscape:document-units="px"
     showgrid="true"
     inkscape:current-layer="layer1"
     inkscape:cy="32.000000"
     inkscape:cx="32.000000"
     inkscape:zoom="5.5000000"
     inkscape:pageshadow="2"
     inkscape:pageopacity="0.0"
     borderopacity="1.0"
     bordercolor="#666666"
     pagecolor="#ffffff"
     id="base" />
  <metadata
     id="metadata4">
    <rdf:RDF
       id="RDF5">
      <cc:Work
         id="Work6"
         rdf:about="">
        <dc:format
           id="format7">image/svg+xml</dc:format>
        <dc:type
           rdf:resource="http://purl.org/dc/dcmitype/StillImage"
           id="type9" />
      </cc:Work>
    </rdf:RDF>
  </metadata>
  <g
     inkscape:groupmode="layer"
     inkscape:label="Layer 1"
     id="layer1">
    <g
       id="g5350"
       transform="matrix(0.752220,0.000000,0.000000,0.764338,14.76824,2.833340)">
      <path
         style="fill:#cbcbcb;fill-opacity:1.0000000;fill-rule:evenodd;stroke:none;stroke-width:0.25000000pt;stroke-linecap:butt;stroke-linejoin:miter;stroke-opacity:1.0000000"
         d="M 31.166971,4.0265263 L 66.134686,3.6672163 L 66.134686,58.821325 L 46.746646,80.020623 L 3.1235554,80.020623 L 2.9504475,69.600630 L 31.166971,4.0265263 z "
         id="path1105"
         sodipodi:nodetypes="ccccccc"
         inkscape:export-xdpi="48.818890"
         inkscape:export-ydpi="48.818890" />
      <path
         style="fill:#ffffff;fill-opacity:1.0000000;fill-rule:evenodd;stroke:none;stroke-width:0.25000000pt;stroke-linecap:butt;stroke-linejoin:miter;stroke-opacity:1.0000000"
         d="M 1.3924811,1.3316998 L 63.538074,1.5113551 L 63.191859,56.306153 L 44.669357,76.607177 L 1.2193736,77.146142 L 1.3924811,1.3316998 z "
         id="path1727" />
      <path
         d="M 61.475112,2.8166649 L 2.8029403,2.8166649 L 2.7156894,75.076046 L 44.456176,75.076046 L 61.475112,56.664409 L 61.475112,2.8166649 z "
         id="path146"
         style="fill:url(#linearGradient1101);fill-opacity:1.0000000" />
      <g
         id="g3748"
         transform="matrix(0.997108,0.000000,0.000000,1.034822,1.481345,1.633198)">
        <rect
           style="opacity:0.70355731;fill:url(#radialGradient3788);fill-opacity:1.0000000;stroke:#000000;stroke-width:1.3743570;stroke-linejoin:round;stroke-miterlimit:4.0000000;stroke-opacity:1.0000000"
           id="rect3734"
           width="15.059434"
           height="3.3325481"
           x="35.104050"
           y="59.644081" />
        <rect
           style="opacity:0.70355731;fill:url(#radialGradient3790);fill-opacity:1.0000000;stroke:#000000;stroke-width:1.4228109;stroke-linejoin:round;stroke-miterlimit:4.0000000;stroke-opacity:1.0000000"
           id="rect1380"
           width="22.986750"
           height="3.1839819"
           x="5.1516776"
           y="7.6440830" />
        <rect
           style="opacity:0.70355731;fill:url(#radialGradient3792);fill-opacity:1.0000000;stroke:#000000;stroke-width:1.4228109;stroke-linejoin:round;stroke-miterlimit:4.0000000;stroke-opacity:1.0000000"
           id="rect3704"
           width="22.986750"
           height="3.1839819"
           x="5.1516776"
           y="17.644083" />
        <rect
           style="opacity:0.70355731;fill:url(#radialGradient3794);fill-opacity:1.0000000;stroke:#000000;stroke-width:1.4228109;stroke-linejoin:round;stroke-miterlimit:4.0000000;stroke-opacity:1.0000000"
           id="rect3708"
           width="22.986750"
           height="3.1839819"
           x="5.1516776"
           y="29.644081" />
        <rect
           style="opacity:0.70355731;fill:url(#radialGradient3796);fill-opacity:1.0000000;stroke:#000000;stroke-width:1.4228109;stroke-linejoin:round;stroke-miterlimit:4.0000000;stroke-opacity:1.0000000"
           id="rect3712"
           width="22.986750"
           height="3.1839819"
           x="5.1516776"
           y="39.644081" />
        <rect
           style="opacity:0.70355731;fill:url(#radialGradient3798);fill-opacity:1.0000000;stroke:#000000;stroke-width:1.4228109;stroke-linejoin:round;stroke-miterlimit:4.0000000;stroke-opacity:1.0000000"
           id="rect3716"
           width="22.986750"
           height="3.1839819"
           x="5.1516776"
           y="49.644081" />
        <rect
           style="opacity:0.70355731;fill:url(#radialGradient3800);fill-opacity:1.0000000;stroke:#000000;stroke-width:1.4228109;stroke-linejoin:round;stroke-miterlimit:4.0000000;stroke-opacity:1.0000000"
           id="rect3720"
           width="22.986750"
           height="3.1839819"
           x="5.1516776"
           y="59.644081" />
        <rect
           style="opacity:0.70355731;fill:url(#radialGradient3802);fill-opacity:1.0000000;stroke:#000000;stroke-width:1.4228109;stroke-linejoin:round;stroke-miterlimit:4.0000000;stroke-opacity:1.0000000"
           id="rect3724"
           width="22.986750"
           height="3.1839819"
           x="35.151680"
           y="7.6440830" />
        <rect
           style="opacity:0.70355731;fill:url(#radialGradient3804);fill-opacity:1.0000000;stroke:#000000;stroke-width:1.4228109;stroke-linejoin:round;stroke-miterlimit:4.0000000;stroke-opacity:1.0000000"
           id="rect3726"
           width="22.986750"
           height="3.1839819"
           x="35.151680"
           y="17.644083" />
        <rect
           style="opacity:0.70355731;fill:url(#radialGradient3806);fill-opacity:1.0000000;stroke:#000000;stroke-width:1.4228109;stroke-linejoin:round;stroke-miterlimit:4.0000000;stroke-opacity:1.0000000"
           id="rect3728"
           width="22.986750"
           height="3.1839819"
           x="35.151680"
           y="29.644081" />
        <rect
           style="opacity:0.70355731;fill:url(#radialGradient3808);fill-opacity:1.0000000;stroke:#000000;stroke-width:1.4228109;stroke-linejoin:round;stroke-miterlimit:4.0000000;stroke-opacity:1.0000000"
           id="rect3730"
           width="22.986750"
           height="3.1839819"
           x="35.151680"
           y="39.644081" />
        <rect
           style="opacity:0.70355731;fill:url(#radialGradient3810);fill-opacity:1.0000000;stroke:#000000;stroke-width:1.4228109;stroke-linejoin:round;stroke-miterlimit:4.0000000;stroke-opacity:1.0000000"
           id="rect3732"
           width="22.986750"
           height="3.1839819"
           x="35.151680"
           y="49.644081" />
      </g>
      <path
         d="M 45.074888,76.370767 L 63.534850,56.818618 L 44.974594,57.119500 L 45.074888,76.370767 z "
         id="path163"
         style="fill:#ffffff"
         sodipodi:nodetypes="cccc" />
      <path
         d="M 45.732203,75.999539 L 61.889866,58.175545 L 45.732203,58.175545 L 45.732203,75.999539 z "
         id="path178"
         style="fill:url(#linearGradient1104);fill-opacity:1.0000000" />
      <path
         d="M 44.609822,56.422841 C 44.388902,56.422841 44.209601,56.620655 44.209601,56.864378 L 44.309895,77.118586 C 44.309895,77.297849 44.407549,77.458564 44.557236,77.527446 C 44.706910,77.594560 44.879004,77.558356 44.993471,77.431192 L 63.352333,57.176987 C 63.466800,57.050706 63.501222,56.860852 63.439584,56.695716 C 63.377149,56.530581 63.231464,56.422841 63.068978,56.422841 L 44.609822,56.422841 z M 62.102853,57.305918 C 60.885377,58.649072 46.327802,74.708678 45.110336,76.052718 C 45.110336,74.183246 45.010042,58.106867 45.010042,57.305918 C 45.734431,57.305918 60.408318,57.305918 62.102853,57.305918 z "
         id="path210"
         style="fill:url(#linearGradient1103);fill-opacity:1.0000000"
         sodipodi:nodetypes="ccccccccccccc" />
      <path
         d="M 63.033541,1.7309375 C 63.033541,2.5972319 63.033541,56.321750 63.033541,56.682925 C 62.803811,56.936369 45.138927,76.424058 44.909198,76.678384 C 44.583418,76.678384 2.2001757,76.678384 1.4165404,76.678384 C 1.4165404,75.811213 1.4165404,2.5990019 1.4165404,1.7318213 C 2.2017730,1.7309375 62.249106,1.7309375 63.033541,1.7309375 z M 63.433752,0.84786116 L 0.61610814,0.84786116 L 0.61610814,77.560579 L 45.240584,77.560579 L 63.833973,57.047641 L 63.833973,0.84786116 L 63.433752,0.84786116 z "
         id="path225"
         style="fill:url(#linearGradient1102);fill-opacity:1.0000000;stroke:url(#linearGradient4576);stroke-width:1.2697375;stroke-linejoin:round;stroke-miterlimit:4.0000000" />
      <path
         d="M 60.858202,9.0485709 L 60.858202,2.2533167 L 2.0011311,2.2533167 L 1.9483033,41.609314 C 24.556516,49.674867 57.281044,29.319558 60.858202,9.0485709 z "
         id="path195"
         style="fill:url(#radialGradient1100);fill-opacity:1.0000000"
         sodipodi:nodetypes="ccccc" />
      <path
         d="M 60.858202,9.0485709 L 60.858202,2.2533167 L 2.0011311,2.2533167 L 1.9483033,41.609314 C 24.556516,49.674867 57.281044,29.319558 60.858202,9.0485709 z "
         id="path4578"
         style="fill:url(#radialGradient5338);fill-opacity:1.0000000"
         sodipodi:nodetypes="ccccc" />
    </g>
    <g
       id="g21649"
       transform="matrix(0.452384,0.000000,0.000000,0.465490,-1.325768,29.17164)">
      <path
         style="fill:#818080;fill-opacity:0.14999999;stroke:none;stroke-width:3.7750001;stroke-linecap:butt;stroke-linejoin:round;stroke-miterlimit:4.0000000;stroke-dashoffset:0.0000000;stroke-opacity:1.0000000"
         d="M 260.29533,227.71408 C 240.02933,227.84036 218.31699,231.30576 203.33575,241.72453 C 196.63509,246.43147 193.44553,254.01296 193.59140,258.94297 C 194.03575,261.03349 192.71241,322.29849 194.87355,328.89701 C 197.29982,333.60352 202.21157,337.14302 207.88738,339.99406 L 207.88738,340.28868 C 208.81887,340.69882 209.74460,340.95480 210.67607,341.33619 C 213.74446,342.68490 216.90192,343.92164 220.09988,344.90428 C 242.54067,351.12382 267.90194,351.76200 291.03491,347.16298 C 304.23999,344.13194 318.94708,339.56539 324.88370,329.84632 C 328.14657,324.39893 326.28202,269.18073 326.74281,264.47513 C 326.49236,251.14450 325.37770,249.16768 321.35778,245.35807 C 310.30063,234.28845 290.72402,229.82431 272.70013,228.20510 C 268.57811,227.86953 264.44340,227.71417 260.29533,227.71408 z "
         id="path19591"
         sodipodi:nodetypes="cccccccccccccc"
         transform="matrix(0.551307,0.000000,0.000000,0.559005,-102.8460,-121.9196)" />
      <path
         style="fill:#818783;fill-opacity:0.14999999;stroke:none;stroke-width:3.7750001;stroke-linecap:butt;stroke-linejoin:round;stroke-miterlimit:4.0000000;stroke-dashoffset:0.0000000;stroke-opacity:1.0000000"
         d="M 260.51765,226.38708 C 239.91535,226.51655 217.84271,230.06959 202.61287,240.75181 C 195.80101,245.57778 192.55853,253.35097 192.70682,258.40565 C 193.15854,260.54903 191.81324,323.36321 194.01024,330.12858 C 196.47677,334.95411 201.47004,338.58311 207.24003,341.50624 L 207.24003,341.80831 C 208.18697,342.22882 209.12807,342.49128 210.07499,342.88231 C 213.19430,344.26512 216.40416,345.53314 219.65519,346.54063 C 242.46837,352.91743 268.25049,353.57175 291.76734,348.85643 C 305.19156,345.74876 320.14270,341.06673 326.17783,331.10190 C 329.49485,325.51676 327.59936,268.90228 328.06780,264.07770 C 327.81318,250.40998 326.68003,248.38317 322.59340,244.47723 C 311.35277,233.12770 291.45129,228.55067 273.12830,226.89053 C 268.93788,226.54647 264.73457,226.38718 260.51765,226.38708 z "
         id="path18878"
         sodipodi:nodetypes="cccccccccccccc"
         transform="matrix(0.551307,0.000000,0.000000,0.559005,-102.8460,-121.9196)" />
      <g
         id="g15100"
         transform="matrix(0.551307,0.000000,0.000000,0.559005,-102.8460,-121.9196)">
        <path
           style="fill:#818783;fill-opacity:1.0000000;stroke:none;stroke-width:3.7750001;stroke-linecap:butt;stroke-linejoin:round;stroke-miterlimit:4.0000000;stroke-dashoffset:0.0000000;stroke-opacity:1.0000000"
           d="M 260.89731,275.58006 C 241.13951,275.70061 219.98621,279.00195 205.38065,288.94817 C 198.84802,293.44162 195.74351,300.68155 195.88573,305.38797 C 196.37338,307.63451 195.03218,319.90232 197.13913,326.20157 C 201.11293,333.74969 211.62472,338.43742 221.72805,341.47725 C 243.60613,347.41471 268.32266,348.03439 290.87554,343.64394 C 303.74951,340.75039 318.09671,336.38088 323.88446,327.10262 C 327.06553,321.90229 325.14301,316.14062 325.69067,310.66416 C 325.44649,297.93814 324.34757,296.07382 320.42845,292.43700 C 309.64859,281.86942 290.57648,277.60212 273.00457,276.05634 C 268.98591,275.73600 264.94138,275.58015 260.89731,275.58006 z "
           id="path15089"
           sodipodi:nodetypes="ccccccccccc" />
        <path
           style="fill:url(#linearGradient15099);fill-opacity:1.0000000;stroke:none;stroke-width:3.7750001;stroke-linecap:butt;stroke-linejoin:round;stroke-miterlimit:4.0000000;stroke-dashoffset:0.0000000;stroke-opacity:1.0000000"
           d="M 322.86327,303.43886 C 322.66933,312.00786 311.36739,318.32370 300.23827,321.73582 C 277.28351,328.67288 249.92978,328.99479 226.26952,323.31731 C 215.00934,320.51890 203.72644,315.66037 199.48827,308.02958 C 198.92193,306.04909 198.05468,304.99043 198.42577,307.74403 C 198.30523,310.28607 198.10433,312.97324 198.42577,315.58558 C 198.15301,320.58951 198.12151,325.89881 203.42577,329.88488 C 213.69549,338.59716 230.88868,342.29722 247.08202,343.74488 C 268.91582,345.52090 292.67031,343.34350 310.61327,334.62935 C 318.30952,330.78506 323.73700,324.66963 322.70702,318.24336 C 322.79120,315.18170 322.75484,305.93593 322.86327,303.43886 z "
           id="path15090"
           sodipodi:nodetypes="ccccccccccc" />
        <path
           style="fill:url(#linearGradient15098);fill-opacity:1.0000000;stroke:none;stroke-width:3.7724271;stroke-linecap:butt;stroke-linejoin:round;stroke-miterlimit:4.0000000;stroke-dashoffset:0.0000000;stroke-opacity:1.0000000"
           d="M 261.14326,279.73105 C 230.02641,279.73105 204.76801,289.65228 204.76801,301.88137 C 204.76801,314.11047 230.02641,324.03169 261.14326,324.03169 C 292.26012,324.03169 317.51852,314.11047 317.51852,301.88137 C 317.51852,289.65228 292.26012,279.73105 261.14326,279.73105 z M 261.39592,285.53916 C 290.46859,285.53916 314.07600,293.53629 314.07600,303.38309 C 314.07600,313.22989 290.46860,321.22702 261.39592,321.22702 C 232.32324,321.22702 208.71585,313.22989 208.71585,303.38309 C 208.71585,293.53628 232.32325,285.53916 261.39592,285.53916 z "
           id="path15091"
           sodipodi:nodetypes="cccccccccc" />
        <path
           sodipodi:type="arc"
           style="fill:url(#linearGradient15097);fill-opacity:1.0000000;stroke:none;stroke-width:3.7724271;stroke-linecap:butt;stroke-linejoin:round;stroke-miterlimit:4.0000000;stroke-dashoffset:0.0000000;stroke-opacity:1.0000000"
           id="path15092"
           sodipodi:cx="33.384850"
           sodipodi:cy="50.922665"
           sodipodi:rx="52.112938"
           sodipodi:ry="25.242205"
           d="M 85.497787 50.922665 A 52.112938 25.242205 0 1 1  -18.728088,50.922665 A 52.112938 25.242205 0 1 1  85.497787 50.922665 z"
           transform="matrix(1.005132,0.000000,0.000000,0.757545,226.8913,264.6372)" />
        <path
           style="fill:url(#linearGradient15096);fill-opacity:1.0000000;stroke:none;stroke-width:3.7724271;stroke-linecap:butt;stroke-linejoin:round;stroke-miterlimit:4.0000000;stroke-dashoffset:0.0000000;stroke-opacity:1.0000000"
           d="M 260.59237,276.50373 C 226.70391,276.50373 199.20848,287.90251 199.20848,301.96132 C 199.20848,316.02011 226.70391,327.44087 260.59237,327.44087 C 294.48082,327.44087 321.97626,316.02011 321.97626,301.96132 C 321.97626,287.90252 294.48083,276.50373 260.59237,276.50373 z M 260.74840,279.86439 C 291.49489,279.86439 316.45265,289.73219 316.45265,301.89542 C 316.45265,314.05866 291.49489,323.92645 260.74840,323.92645 C 230.00192,323.92645 205.04416,314.05866 205.04416,301.89542 C 205.04416,289.73219 230.00192,279.86439 260.74840,279.86439 z "
           id="path15093" />
        <path
           style="fill:url(#linearGradient15095);fill-opacity:1.0000000;stroke:none;stroke-width:3.7750001;stroke-linecap:butt;stroke-linejoin:round;stroke-miterlimit:4.0000000;stroke-dashoffset:0.0000000;stroke-opacity:1.0000000"
           d="M 322.82693,302.26246 C 322.33964,310.10980 311.62440,317.35349 300.49528,320.76561 C 277.54052,327.70267 249.89344,327.81839 226.23318,322.14091 C 214.97300,319.34250 203.15196,316.39168 198.38943,302.23761 C 198.34182,303.96329 198.26927,304.50510 198.24276,305.02541 C 201.96114,318.54480 216.37022,321.55129 227.63040,324.34970 C 251.29066,330.02718 278.79107,329.29289 301.74583,322.35583 C 312.76575,318.97719 322.06426,311.20585 322.76443,305.34217 C 322.77669,303.59414 322.79154,303.07754 322.82693,302.26246 z "
           id="path15094"
           sodipodi:nodetypes="ccccccccc" />
      </g>
      <g
         id="g15107"
         transform="matrix(0.551307,0.000000,0.000000,0.559005,-102.8460,-134.7683)">
        <path
           style="fill:#818783;fill-opacity:1.0000000;stroke:none;stroke-width:3.7750001;stroke-linecap:butt;stroke-linejoin:round;stroke-miterlimit:4.0000000;stroke-dashoffset:0.0000000;stroke-opacity:1.0000000"
           d="M 260.89731,275.58006 C 241.13951,275.70061 219.98621,279.00195 205.38065,288.94817 C 198.84802,293.44162 195.74351,300.68155 195.88573,305.38797 C 196.37338,307.63451 195.03218,319.90232 197.13913,326.20157 C 201.11293,333.74969 211.62472,338.43742 221.72805,341.47725 C 243.60613,347.41471 268.32266,348.03439 290.87554,343.64394 C 303.74951,340.75039 318.09671,336.38088 323.88446,327.10262 C 327.06553,321.90229 325.14301,316.14062 325.69067,310.66416 C 325.44649,297.93814 324.34757,296.07382 320.42845,292.43700 C 309.64859,281.86942 290.57648,277.60212 273.00457,276.05634 C 268.98591,275.73600 264.94138,275.58015 260.89731,275.58006 z "
           id="path15108"
           sodipodi:nodetypes="ccccccccccc" />
        <path
           style="fill:url(#linearGradient15114);fill-opacity:1.0000000;stroke:none;stroke-width:3.7750001;stroke-linecap:butt;stroke-linejoin:round;stroke-miterlimit:4.0000000;stroke-dashoffset:0.0000000;stroke-opacity:1.0000000"
           d="M 322.86327,303.43886 C 322.66933,312.00786 311.36739,318.32370 300.23827,321.73582 C 277.28351,328.67288 249.92978,328.99479 226.26952,323.31731 C 215.00934,320.51890 203.72644,315.66037 199.48827,308.02958 C 198.92193,306.04909 198.05468,304.99043 198.42577,307.74403 C 198.30523,310.28607 198.10433,312.97324 198.42577,315.58558 C 198.15301,320.58951 198.12151,325.89881 203.42577,329.88488 C 213.69549,338.59716 230.88868,342.29722 247.08202,343.74488 C 268.91582,345.52090 292.67031,343.34350 310.61327,334.62935 C 318.30952,330.78506 323.73700,324.66963 322.70702,318.24336 C 322.79120,315.18170 322.75484,305.93593 322.86327,303.43886 z "
           id="path15109"
           sodipodi:nodetypes="ccccccccccc" />
        <path
           style="fill:url(#linearGradient15115);fill-opacity:1.0000000;stroke:none;stroke-width:3.7724271;stroke-linecap:butt;stroke-linejoin:round;stroke-miterlimit:4.0000000;stroke-dashoffset:0.0000000;stroke-opacity:1.0000000"
           d="M 261.14326,279.73105 C 230.02641,279.73105 204.76801,289.65228 204.76801,301.88137 C 204.76801,314.11047 230.02641,324.03169 261.14326,324.03169 C 292.26012,324.03169 317.51852,314.11047 317.51852,301.88137 C 317.51852,289.65228 292.26012,279.73105 261.14326,279.73105 z M 261.39592,285.53916 C 290.46859,285.53916 314.07600,293.53629 314.07600,303.38309 C 314.07600,313.22989 290.46860,321.22702 261.39592,321.22702 C 232.32324,321.22702 208.71585,313.22989 208.71585,303.38309 C 208.71585,293.53628 232.32325,285.53916 261.39592,285.53916 z "
           id="path15110"
           sodipodi:nodetypes="cccccccccc" />
        <path
           sodipodi:type="arc"
           style="fill:url(#linearGradient15116);fill-opacity:1.0000000;stroke:none;stroke-width:3.7724271;stroke-linecap:butt;stroke-linejoin:round;stroke-miterlimit:4.0000000;stroke-dashoffset:0.0000000;stroke-opacity:1.0000000"
           id="path15111"
           sodipodi:cx="33.384850"
           sodipodi:cy="50.922665"
           sodipodi:rx="52.112938"
           sodipodi:ry="25.242205"
           d="M 85.497787 50.922665 A 52.112938 25.242205 0 1 1  -18.728088,50.922665 A 52.112938 25.242205 0 1 1  85.497787 50.922665 z"
           transform="matrix(1.005132,0.000000,0.000000,0.757545,226.8913,264.6372)" />
        <path
           style="fill:url(#linearGradient15117);fill-opacity:1.0000000;stroke:none;stroke-width:3.7724271;stroke-linecap:butt;stroke-linejoin:round;stroke-miterlimit:4.0000000;stroke-dashoffset:0.0000000;stroke-opacity:1.0000000"
           d="M 260.59237,276.50373 C 226.70391,276.50373 199.20848,287.90251 199.20848,301.96132 C 199.20848,316.02011 226.70391,327.44087 260.59237,327.44087 C 294.48082,327.44087 321.97626,316.02011 321.97626,301.96132 C 321.97626,287.90252 294.48083,276.50373 260.59237,276.50373 z M 260.74840,279.86439 C 291.49489,279.86439 316.45265,289.73219 316.45265,301.89542 C 316.45265,314.05866 291.49489,323.92645 260.74840,323.92645 C 230.00192,323.92645 205.04416,314.05866 205.04416,301.89542 C 205.04416,289.73219 230.00192,279.86439 260.74840,279.86439 z "
           id="path15112" />
        <path
           style="fill:url(#linearGradient15118);fill-opacity:1.0000000;stroke:none;stroke-width:3.7750001;stroke-linecap:butt;stroke-linejoin:round;stroke-miterlimit:4.0000000;stroke-dashoffset:0.0000000;stroke-opacity:1.0000000"
           d="M 322.82693,302.26246 C 322.33964,310.10980 311.62440,317.35349 300.49528,320.76561 C 277.54052,327.70267 249.89344,327.81839 226.23318,322.14091 C 214.97300,319.34250 203.15196,316.39168 198.38943,302.23761 C 198.34182,303.96329 198.26927,304.50510 198.24276,305.02541 C 201.96114,318.54480 216.37022,321.55129 227.63040,324.34970 C 251.29066,330.02718 278.79107,329.29289 301.74583,322.35583 C 312.76575,318.97719 322.06426,311.20585 322.76443,305.34217 C 322.77669,303.59414 322.79154,303.07754 322.82693,302.26246 z "
           id="path15113"
           sodipodi:nodetypes="ccccccccc" />
      </g>
      <path
         style="fill:#818783;fill-opacity:1.0000000;stroke:none;stroke-width:3.7750001;stroke-linecap:butt;stroke-linejoin:round;stroke-miterlimit:4.0000000;stroke-dashoffset:0.0000000;stroke-opacity:1.0000000"
         d="M 260.89731,275.58006 C 241.13951,275.70061 219.98621,279.00195 205.38065,288.94817 C 198.84802,293.44162 195.74351,300.68155 195.88573,305.38797 C 196.37338,307.63451 195.03218,319.90232 197.13913,326.20157 C 201.11293,333.74969 211.62472,338.43742 221.72805,341.47725 C 243.60613,347.41471 268.32266,348.03439 290.87554,343.64394 C 303.74951,340.75039 318.09671,336.38088 323.88446,327.10262 C 327.06553,321.90229 325.14301,316.14062 325.69067,310.66416 C 325.44649,297.93814 324.34757,296.07382 320.42845,292.43700 C 309.64859,281.86942 290.57648,277.60212 273.00457,276.05634 C 268.98591,275.73600 264.94138,275.58015 260.89731,275.58006 z "
         id="path15120"
         sodipodi:nodetypes="ccccccccccc"
         transform="matrix(0.551307,0.000000,0.000000,0.559005,-102.8460,-147.6169)" />
      <path
         style="fill:url(#linearGradient15126);fill-opacity:1.0000000;stroke:none;stroke-width:3.7750001;stroke-linecap:butt;stroke-linejoin:round;stroke-miterlimit:4.0000000;stroke-dashoffset:0.0000000;stroke-opacity:1.0000000"
         d="M 322.86327,303.43886 C 322.66933,312.00786 311.36739,318.32370 300.23827,321.73582 C 277.28351,328.67288 249.92978,328.99479 226.26952,323.31731 C 215.00934,320.51890 203.72644,315.66037 199.48827,308.02958 C 198.92193,306.04909 198.05468,304.99043 198.42577,307.74403 C 198.30523,310.28607 198.10433,312.97324 198.42577,315.58558 C 198.15301,320.58951 198.12151,325.89881 203.42577,329.88488 C 213.69549,338.59716 230.88868,342.29722 247.08202,343.74488 C 268.91582,345.52090 292.67031,343.34350 310.61327,334.62935 C 318.30952,330.78506 323.73700,324.66963 322.70702,318.24336 C 322.79120,315.18170 322.75484,305.93593 322.86327,303.43886 z "
         id="path15121"
         sodipodi:nodetypes="ccccccccccc"
         transform="matrix(0.551307,0.000000,0.000000,0.559005,-102.8460,-147.6169)" />
      <path
         style="fill:url(#linearGradient15127);fill-opacity:1.0000000;stroke:none;stroke-width:3.7724271;stroke-linecap:butt;stroke-linejoin:round;stroke-miterlimit:4.0000000;stroke-dashoffset:0.0000000;stroke-opacity:1.0000000"
         d="M 261.14326,279.73105 C 230.02641,279.73105 204.76801,289.65228 204.76801,301.88137 C 204.76801,314.11047 230.02641,324.03169 261.14326,324.03169 C 292.26012,324.03169 317.51852,314.11047 317.51852,301.88137 C 317.51852,289.65228 292.26012,279.73105 261.14326,279.73105 z M 261.39592,285.53916 C 290.46859,285.53916 314.07600,293.53629 314.07600,303.38309 C 314.07600,313.22989 290.46860,321.22702 261.39592,321.22702 C 232.32324,321.22702 208.71585,313.22989 208.71585,303.38309 C 208.71585,293.53628 232.32325,285.53916 261.39592,285.53916 z "
         id="path15122"
         sodipodi:nodetypes="cccccccccc"
         transform="matrix(0.551307,0.000000,0.000000,0.559005,-102.8460,-147.6169)" />
      <path
         sodipodi:type="arc"
         style="fill:url(#linearGradient15128);fill-opacity:1.0000000;stroke:none;stroke-width:3.7724271;stroke-linecap:butt;stroke-linejoin:round;stroke-miterlimit:4.0000000;stroke-dashoffset:0.0000000;stroke-opacity:1.0000000"
         id="path15123"
         sodipodi:cx="33.384850"
         sodipodi:cy="50.922665"
         sodipodi:rx="52.112938"
         sodipodi:ry="25.242205"
         d="M 85.497787 50.922665 A 52.112938 25.242205 0 1 1  -18.728088,50.922665 A 52.112938 25.242205 0 1 1  85.497787 50.922665 z"
         transform="matrix(0.554136,0.000000,0.000000,0.423471,22.24076,0.316626)" />
      <path
         style="fill:url(#linearGradient15130);fill-opacity:1.0000000;stroke:none;stroke-width:3.7750001;stroke-linecap:butt;stroke-linejoin:round;stroke-miterlimit:4.0000000;stroke-dashoffset:0.0000000;stroke-opacity:1.0000000"
         d="M 322.82693,302.26246 C 322.33964,310.10980 311.62440,317.35349 300.49528,320.76561 C 277.54052,327.70267 249.89344,327.81839 226.23318,322.14091 C 222.51441,321.13452 203.15196,316.39168 198.38943,302.23761 C 198.34182,303.96329 198.26927,304.50510 198.24276,305.02541 C 201.96114,318.54480 220.92493,322.74597 227.63040,324.34970 C 251.29066,330.02718 278.79107,329.29289 301.74583,322.35583 C 312.76575,318.97719 322.06426,311.20585 322.76443,305.34217 C 322.77669,303.59414 322.79154,303.07754 322.82693,302.26246 z "
         id="path15125"
         sodipodi:nodetypes="ccccccccc"
         transform="matrix(0.551307,0.000000,0.000000,0.559005,-102.8460,-147.6169)" />
      <path
         style="fill:url(#linearGradient15129);fill-opacity:1.0000000;stroke:none;stroke-width:3.7724271;stroke-linecap:butt;stroke-linejoin:round;stroke-miterlimit:4.0000000;stroke-dashoffset:0.0000000;stroke-opacity:1.0000000"
         d="M 260.59238,230.53399 C 226.70392,230.53399 199.20849,241.71280 199.20849,255.50031 C 199.20849,269.28780 226.70392,280.48817 260.59238,280.48817 C 294.48083,280.48817 321.97627,269.28780 321.97627,255.50031 C 321.97627,241.71281 294.48084,230.53399 260.59238,230.53399 z M 260.74841,233.82980 C 291.49490,233.82980 316.45266,243.50717 316.45266,255.43568 C 316.45266,267.36420 291.49490,277.04157 260.74841,277.04157 C 230.00193,277.04157 205.04417,267.36420 205.04417,255.43568 C 205.04417,243.50717 230.00193,233.82980 260.74841,233.82980 z "
         id="path15124"
         transform="matrix(0.551307,0.000000,0.000000,0.559005,-102.8460,-121.9196)" />
      <path
         style="fill:url(#linearGradient15758);fill-opacity:1.0000000;fill-rule:evenodd;stroke:none;stroke-width:0.25000000pt;stroke-linecap:butt;stroke-linejoin:miter;stroke-opacity:1.0000000"
         d="M 210.36519,269.66987 C 214.22664,272.59874 227.28642,277.08126 232.93567,277.65629 L 232.02206,343.49000 C 224.61485,342.58770 217.20764,340.27531 209.80044,337.08162 L 210.36519,269.66987 z "
         id="path15131"
         sodipodi:nodetypes="ccccc"
         transform="matrix(0.551307,0.000000,0.000000,0.559005,-102.8460,-121.9196)" />
      <path
         style="fill:url(#linearGradient21648);fill-opacity:1.0000000;fill-rule:evenodd;stroke:none;stroke-width:0.25000000pt;stroke-linecap:butt;stroke-linejoin:miter;stroke-opacity:1.0000000"
         d="M 75.981664,21.212174 L 75.335011,59.953774 C 74.239336,62.522463 71.961666,64.415727 69.515139,65.126994 L 69.698383,29.561108 C 73.481375,26.834416 75.575802,24.783150 75.981664,21.212174 z "
         id="path21023"
         sodipodi:nodetypes="ccccc" />
    </g>
    <g
       inkscape:export-ydpi="36.000000"
       inkscape:export-xdpi="36.000000"
       transform="matrix(0.688953,0.000000,0.000000,0.677464,-12.59283,-190.0509)"
       id="g2344">
      <path
         transform="matrix(0.118265,0.000000,0.000000,0.118265,69.88085,278.1870)"
         sodipodi:nodetypes="ccccc"
         id="path14340"
         d="M 158.88978,443.12298 C 56.638690,443.12298 -26.360212,526.09492 -26.360212,628.34173 C -26.360212,730.58854 56.638696,813.59174 158.88978,813.59173 C 261.14088,813.59173 344.13979,730.58855 344.13978,628.34173 C 344.13978,526.09491 261.14088,443.12298 158.88978,443.12298 z "
         style="fill:#ffffff;fill-opacity:1.0000000;fill-rule:evenodd;stroke:none;stroke-width:10.000000;stroke-linecap:butt;stroke-linejoin:miter;stroke-miterlimit:4.0000000;stroke-opacity:1.0000000" />
      <path
         transform="matrix(0.118265,0.000000,0.000000,0.118265,69.88085,278.1870)"
         id="path14341"
         d="M 158.88978,443.12298 C 56.638690,443.12298 -26.360212,526.09492 -26.360212,628.34173 C -26.360212,730.58854 56.638696,813.59174 158.88978,813.59173 C 261.14088,813.59173 344.13979,730.58855 344.13978,628.34173 C 344.13978,526.09491 261.14088,443.12298 158.88978,443.12298 z M 82.858538,502.12298 C 89.337765,502.15450 95.826855,504.66801 100.76478,509.65423 L 157.63978,567.09173 L 215.17103,510.12298 C 225.14346,500.24712 241.13894,500.33805 251.01478,510.31048 L 277.67103,537.24798 C 287.54689,547.22040 287.48721,563.18462 277.51478,573.06048 L 219.98353,630.06048 L 277.01478,687.65423 C 286.89064,697.62666 286.83096,713.62210 276.85853,723.49798 L 249.92103,750.15423 C 239.94860,760.03008 223.95313,759.97039 214.07728,749.99798 L 157.01478,692.37298 L 99.514785,749.34173 C 89.542365,759.21758 73.546898,759.12666 63.671038,749.15423 L 37.014788,722.21673 C 27.138933,712.24431 27.198602,696.28010 37.171038,686.40423 L 94.702285,629.43548 L 37.796038,571.99798 C 27.920182,562.02555 28.011114,546.03009 37.983538,536.15423 L 64.921038,509.46673 C 69.907249,504.52880 76.379308,502.09145 82.858538,502.12298 z "
         style="fill:url(#radialGradient2383);fill-opacity:1.0000000;fill-rule:evenodd;stroke:url(#linearGradient2384);stroke-width:10.000000;stroke-linecap:butt;stroke-linejoin:miter;stroke-miterlimit:4.0000000;stroke-opacity:1.0000000" />
      <path
         transform="matrix(0.103856,0.000000,0.000000,7.422055e-2,69.32971,330.5797)"
         d="M 347.69102 185.68347 A 163.26007 163.26007 0 1 1  21.170883,185.68347 A 163.26007 163.26007 0 1 1  347.69102 185.68347 z"
         sodipodi:ry="163.26007"
         sodipodi:rx="163.26007"
         sodipodi:cy="185.68347"
         sodipodi:cx="184.43095"
         id="path9416"
         style="fill:url(#linearGradient2385);fill-opacity:1.0000000;fill-rule:evenodd;stroke:none;stroke-width:8.7072067;stroke-linecap:butt;stroke-linejoin:round;stroke-miterlimit:4.0000000;stroke-opacity:1.0000000"
         sodipodi:type="arc" />
      <path
         sodipodi:nodetypes="ccc"
         id="path9417"
         d="M 68.793739,356.08364 C 74.324352,379.37853 103.14474,378.71013 108.13801,355.93128 C 101.22668,375.04863 76.120459,375.01064 68.793739,356.08364 z "
         style="fill:url(#radialGradient2386);fill-opacity:1.0000000;fill-rule:evenodd;stroke:none;stroke-width:0.26240132pt;stroke-linecap:butt;stroke-linejoin:miter;stroke-opacity:1.0000000" />
    </g>
  </g>
</svg>
