<?xml version="1.0" encoding="UTF-8" standalone="no"?>
<!DOCTYPE svg PUBLIC "-//W3C//DTD SVG 20010904//EN"
"http://www.w3.org/TR/2001/REC-SVG-20010904/DTD/svg10.dtd">
<!-- Created with Inkscape (http://www.inkscape.org/) -->
<svg
   width="64pt"
   height="64pt"
   id="svg19592"
   sodipodi:version="0.32"
   inkscape:version="0.40"
   sodipodi:docbase="/home/nuno/kdeplayground-artwork/oooicons/crystalsvg"
   sodipodi:docname="dbsave.svg"
   inkscape:export-filename="/home/nuno/kdeplayground-artwork/oooicons/crystalsvg/db.png"
   inkscape:export-xdpi="36.000000"
   inkscape:export-ydpi="36.000000"
   xmlns="http://www.w3.org/2000/svg"
   xmlns:cc="http://web.resource.org/cc/"
   xmlns:inkscape="http://www.inkscape.org/namespaces/inkscape"
   xmlns:sodipodi="http://sodipodi.sourceforge.net/DTD/sodipodi-0.dtd"
   xmlns:rdf="http://www.w3.org/1999/02/22-rdf-syntax-ns#"
   xmlns:dc="http://purl.org/dc/elements/1.1/"
   xmlns:xlink="http://www.w3.org/1999/xlink">
  <defs
     id="defs3">
    <linearGradient
       id="light100to0">
      <stop
         style="stop-color:#ffffff;stop-opacity:1.0000000;"
         offset="0.0000000"
         id="stop2764" />
      <stop
         style="stop-color:#ffffff;stop-opacity:0.0000000;"
         offset="1.0000000"
         id="stop2765" />
    </linearGradient>
    <linearGradient
       inkscape:collect="always"
       xlink:href="#light100to0"
       id="linearGradient14654"
       gradientUnits="userSpaceOnUse"
       gradientTransform="matrix(0.999994,-3.582198e-3,3.582198e-3,0.999994,-2.842171e-14,0.000000)"
       x1="190.11575"
       y1="151.51718"
       x2="266.35638"
       y2="218.46164" />
    <linearGradient
       inkscape:collect="always"
       xlink:href="#garylighttowite"
       id="linearGradient14653"
       gradientUnits="userSpaceOnUse"
       gradientTransform="matrix(0.999994,-3.582204e-3,3.582204e-3,0.999994,224.8481,139.4264)"
       x1="16.879744"
       y1="80.154938"
       x2="-9.3134556"
       y2="77.205276" />
    <radialGradient
       inkscape:collect="always"
       xlink:href="#light75to0"
       id="radialGradient14652"
       gradientUnits="userSpaceOnUse"
       gradientTransform="scale(1.018448,0.981886)"
       cx="262.35825"
       cy="234.94638"
       fx="262.35825"
       fy="234.94638"
       r="74.087990" />
    <linearGradient
       id="sadow75to0w">
      <stop
         style="stop-color:#000000;stop-opacity:0.72941178;"
         offset="0.0000000"
         id="stop3429" />
      <stop
         style="stop-color:#ffffff;stop-opacity:0.0000000;"
         offset="1.0000000"
         id="stop3430" />
    </linearGradient>
    <radialGradient
       inkscape:collect="always"
       xlink:href="#sadow75to0w"
       id="radialGradient14651"
       gradientUnits="userSpaceOnUse"
       gradientTransform="scale(1.018381,0.981951)"
       cx="227.65804"
       cy="210.55679"
       fx="227.65804"
       fy="210.55679"
       r="49.857635" />
    <linearGradient
       inkscape:collect="always"
       xlink:href="#garylighttowite"
       id="linearGradient14650"
       gradientUnits="userSpaceOnUse"
       gradientTransform="matrix(0.999994,-3.582204e-3,3.582204e-3,0.999994,224.8481,131.9264)"
       x1="16.879744"
       y1="80.154938"
       x2="-9.3134556"
       y2="77.205276" />
    <linearGradient
       inkscape:collect="always"
       xlink:href="#light75to0"
       id="linearGradient14649"
       gradientUnits="userSpaceOnUse"
       gradientTransform="matrix(0.999994,-3.582203e-3,3.582203e-3,0.999994,-0.905689,-1.584956)"
       x1="242.51910"
       y1="181.63605"
       x2="216.75307"
       y2="170.21925" />
    <linearGradient
       inkscape:collect="always"
       xlink:href="#garylighttowite"
       id="linearGradient14648"
       gradientUnits="userSpaceOnUse"
       gradientTransform="matrix(0.999994,-3.582204e-3,3.582204e-3,0.999994,223.7271,126.8315)"
       x1="13.340878"
       y1="63.247265"
       x2="1.6239637"
       y2="33.233250" />
    <linearGradient
       id="garylighttowite">
      <stop
         style="stop-color:#7d7d7d;stop-opacity:1.0000000;"
         offset="0.0000000"
         id="stop5106" />
      <stop
         style="stop-color:#d3d4d4;stop-opacity:1.0000000;"
         offset="1.0000000"
         id="stop5107" />
    </linearGradient>
    <linearGradient
       inkscape:collect="always"
       xlink:href="#garylighttowite"
       id="linearGradient14647"
       gradientUnits="userSpaceOnUse"
       gradientTransform="matrix(0.999994,-3.582204e-3,3.582204e-3,0.999994,224.8481,121.9264)"
       x1="16.879744"
       y1="80.154938"
       x2="-9.3134556"
       y2="77.205276" />
    <linearGradient
       id="wihitetolightgray">
      <stop
         style="stop-color:#ffffff;stop-opacity:1.0000000;"
         offset="0.0000000"
         id="stop1885" />
      <stop
         style="stop-color:#d5d4d4;stop-opacity:1.0000000;"
         offset="1.0000000"
         id="stop1886" />
    </linearGradient>
    <linearGradient
       inkscape:collect="always"
       xlink:href="#wihitetolightgray"
       id="linearGradient14646"
       gradientUnits="userSpaceOnUse"
       gradientTransform="matrix(0.999994,-3.582203e-3,3.582203e-3,0.999994,85.00000,-5.000000)"
       x1="127.14183"
       y1="207.17534"
       x2="169.35942"
       y2="233.46652" />
    <linearGradient
       id="light75to0">
      <stop
         style="stop-color:#ffffff;stop-opacity:0.72916669;"
         offset="0.0000000"
         id="stop2769" />
      <stop
         style="stop-color:#ffffff;stop-opacity:0.0000000;"
         offset="1.0000000"
         id="stop2770" />
    </linearGradient>
    <linearGradient
       inkscape:collect="always"
       xlink:href="#light75to0"
       id="linearGradient15758"
       gradientTransform="scale(0.526614,1.898924)"
       x1="406.16541"
       y1="148.64583"
       x2="414.83224"
       y2="189.94398"
       gradientUnits="userSpaceOnUse" />
    <linearGradient
       inkscape:collect="always"
       xlink:href="#graytolightgray"
       id="linearGradient15129"
       gradientUnits="userSpaceOnUse"
       gradientTransform="scale(1.729412,0.578231)"
       x1="130.60602"
       y1="408.28738"
       x2="180.75517"
       y2="470.93375" />
    <linearGradient
       inkscape:collect="always"
       xlink:href="#blacktowhite"
       id="linearGradient15130"
       gradientUnits="userSpaceOnUse"
       gradientTransform="matrix(1.494665,0.000000,0.000000,0.470262,21.13456,163.2076)"
       x1="142.19385"
       y1="278.92441"
       x2="166.65126"
       y2="368.52307" />
    <linearGradient
       inkscape:collect="always"
       xlink:href="#graytolightgray"
       id="linearGradient15128"
       gradientUnits="userSpaceOnUse"
       gradientTransform="scale(1.436842,0.695971)"
       x1="8.4329405"
       y1="88.576233"
       x2="46.346687"
       y2="39.269283" />
    <linearGradient
       inkscape:collect="always"
       xlink:href="#blacktowhite"
       id="linearGradient15127"
       gradientUnits="userSpaceOnUse"
       gradientTransform="matrix(1.337508,0.000000,0.000000,0.525518,9.323765,244.4874)"
       x1="232.27733"
       y1="140.27173"
       x2="147.05203"
       y2="81.484245" />
    <linearGradient
       inkscape:collect="always"
       xlink:href="#blacktowhite"
       id="linearGradient15126"
       gradientUnits="userSpaceOnUse"
       gradientTransform="matrix(1.494665,0.000000,0.000000,0.470262,13.18526,232.9367)"
       x1="253.08090"
       y1="206.53716"
       x2="123.30837"
       y2="205.96529" />
    <linearGradient
       inkscape:collect="always"
       xlink:href="#blacktowhite"
       id="linearGradient15118"
       gradientUnits="userSpaceOnUse"
       gradientTransform="matrix(1.494665,0.000000,0.000000,0.470262,21.13456,163.2076)"
       x1="142.19385"
       y1="278.92441"
       x2="166.65126"
       y2="368.52307" />
    <linearGradient
       inkscape:collect="always"
       xlink:href="#graytolightgray"
       id="linearGradient15117"
       gradientUnits="userSpaceOnUse"
       gradientTransform="matrix(1.435849,0.000000,0.000000,0.489525,9.323765,244.4874)"
       x1="133.23598"
       y1="111.26886"
       x2="216.75711"
       y2="109.89973" />
    <linearGradient
       inkscape:collect="always"
       xlink:href="#graytolightgray"
       id="linearGradient15116"
       gradientUnits="userSpaceOnUse"
       gradientTransform="scale(1.436842,0.695971)"
       x1="-0.36880860"
       y1="75.553932"
       x2="59.273689"
       y2="75.553932" />
    <linearGradient
       inkscape:collect="always"
       xlink:href="#blacktowhite"
       id="linearGradient15115"
       gradientUnits="userSpaceOnUse"
       gradientTransform="matrix(1.337508,0.000000,0.000000,0.525518,9.323765,244.4874)"
       x1="232.27733"
       y1="140.27173"
       x2="147.05203"
       y2="81.484245" />
    <linearGradient
       inkscape:collect="always"
       xlink:href="#blacktowhite"
       id="linearGradient15114"
       gradientUnits="userSpaceOnUse"
       gradientTransform="matrix(1.494665,0.000000,0.000000,0.470262,13.18526,232.9367)"
       x1="253.08090"
       y1="206.53716"
       x2="123.30837"
       y2="205.96529" />
    <linearGradient
       inkscape:collect="always"
       xlink:href="#blacktowhite"
       id="linearGradient15095"
       gradientUnits="userSpaceOnUse"
       gradientTransform="matrix(1.494665,0.000000,0.000000,0.470262,21.13456,163.2076)"
       x1="142.19385"
       y1="278.92441"
       x2="166.65126"
       y2="368.52307" />
    <linearGradient
       inkscape:collect="always"
       xlink:href="#graytolightgray"
       id="linearGradient15096"
       gradientUnits="userSpaceOnUse"
       gradientTransform="matrix(1.435849,0.000000,0.000000,0.489525,9.323765,244.4874)"
       x1="133.23598"
       y1="111.26886"
       x2="216.75711"
       y2="109.89973" />
    <linearGradient
       id="graytolightgray">
      <stop
         style="stop-color:#d4d3d3;stop-opacity:1.0000000;"
         offset="0.0000000"
         id="stop5101" />
      <stop
         style="stop-color:#ffffff;stop-opacity:1.0000000;"
         offset="1.0000000"
         id="stop5102" />
    </linearGradient>
    <linearGradient
       inkscape:collect="always"
       xlink:href="#graytolightgray"
       id="linearGradient15097"
       gradientUnits="userSpaceOnUse"
       gradientTransform="scale(1.436842,0.695971)"
       x1="-0.36880860"
       y1="75.553932"
       x2="59.273689"
       y2="75.553932" />
    <linearGradient
       inkscape:collect="always"
       xlink:href="#blacktowhite"
       id="linearGradient15098"
       gradientUnits="userSpaceOnUse"
       gradientTransform="matrix(1.337508,0.000000,0.000000,0.525518,9.323765,244.4874)"
       x1="232.27733"
       y1="140.27173"
       x2="147.05203"
       y2="81.484245" />
    <linearGradient
       id="blacktowhite">
      <stop
         style="stop-color:#000000;stop-opacity:1.0000000;"
         offset="0.0000000"
         id="stop2476" />
      <stop
         style="stop-color:#ffffff;stop-opacity:1.0000000;"
         offset="1.0000000"
         id="stop2475" />
    </linearGradient>
    <linearGradient
       inkscape:collect="always"
       xlink:href="#blacktowhite"
       id="linearGradient15099"
       gradientUnits="userSpaceOnUse"
       gradientTransform="matrix(1.494665,0.000000,0.000000,0.470262,13.18526,232.9367)"
       x1="253.08090"
       y1="206.53716"
       x2="123.30837"
       y2="205.96529" />
    <linearGradient
       inkscape:collect="always"
       xlink:href="#blacktowhite"
       id="linearGradient19716"
       gradientUnits="userSpaceOnUse"
       gradientTransform="matrix(1.494665,0.000000,0.000000,0.470262,13.18526,232.9367)"
       x1="253.08090"
       y1="206.53716"
       x2="123.30837"
       y2="205.96529" />
    <linearGradient
       inkscape:collect="always"
       xlink:href="#blacktowhite"
       id="linearGradient19717"
       gradientUnits="userSpaceOnUse"
       gradientTransform="matrix(1.337508,0.000000,0.000000,0.525518,9.323765,244.4874)"
       x1="232.27733"
       y1="140.27173"
       x2="147.05203"
       y2="81.484245" />
    <linearGradient
       inkscape:collect="always"
       xlink:href="#graytolightgray"
       id="linearGradient19718"
       gradientUnits="userSpaceOnUse"
       gradientTransform="scale(1.436842,0.695971)"
       x1="-0.36880860"
       y1="75.553932"
       x2="59.273689"
       y2="75.553932" />
    <linearGradient
       inkscape:collect="always"
       xlink:href="#graytolightgray"
       id="linearGradient19719"
       gradientUnits="userSpaceOnUse"
       gradientTransform="matrix(1.435849,0.000000,0.000000,0.489525,9.323765,244.4874)"
       x1="133.23598"
       y1="111.26886"
       x2="216.75711"
       y2="109.89973" />
    <linearGradient
       inkscape:collect="always"
       xlink:href="#blacktowhite"
       id="linearGradient19720"
       gradientUnits="userSpaceOnUse"
       gradientTransform="matrix(1.494665,0.000000,0.000000,0.470262,21.13456,163.2076)"
       x1="142.19385"
       y1="278.92441"
       x2="166.65126"
       y2="368.52307" />
    <linearGradient
       inkscape:collect="always"
       xlink:href="#blacktowhite"
       id="linearGradient19721"
       gradientUnits="userSpaceOnUse"
       gradientTransform="matrix(1.494665,0.000000,0.000000,0.470262,13.18526,232.9367)"
       x1="253.08090"
       y1="206.53716"
       x2="123.30837"
       y2="205.96529" />
    <linearGradient
       inkscape:collect="always"
       xlink:href="#blacktowhite"
       id="linearGradient19722"
       gradientUnits="userSpaceOnUse"
       gradientTransform="matrix(1.337508,0.000000,0.000000,0.525518,9.323765,244.4874)"
       x1="232.27733"
       y1="140.27173"
       x2="147.05203"
       y2="81.484245" />
    <linearGradient
       inkscape:collect="always"
       xlink:href="#graytolightgray"
       id="linearGradient19723"
       gradientUnits="userSpaceOnUse"
       gradientTransform="scale(1.436842,0.695971)"
       x1="-0.36880860"
       y1="75.553932"
       x2="59.273689"
       y2="75.553932" />
    <linearGradient
       inkscape:collect="always"
       xlink:href="#graytolightgray"
       id="linearGradient19724"
       gradientUnits="userSpaceOnUse"
       gradientTransform="matrix(1.435849,0.000000,0.000000,0.489525,9.323765,244.4874)"
       x1="133.23598"
       y1="111.26886"
       x2="216.75711"
       y2="109.89973" />
    <linearGradient
       inkscape:collect="always"
       xlink:href="#blacktowhite"
       id="linearGradient19725"
       gradientUnits="userSpaceOnUse"
       gradientTransform="matrix(1.494665,0.000000,0.000000,0.470262,21.13456,163.2076)"
       x1="142.19385"
       y1="278.92441"
       x2="166.65126"
       y2="368.52307" />
    <linearGradient
       inkscape:collect="always"
       xlink:href="#blacktowhite"
       id="linearGradient19726"
       gradientUnits="userSpaceOnUse"
       gradientTransform="matrix(1.494665,0.000000,0.000000,0.470262,13.18526,232.9367)"
       x1="253.08090"
       y1="206.53716"
       x2="123.30837"
       y2="205.96529" />
    <linearGradient
       inkscape:collect="always"
       xlink:href="#blacktowhite"
       id="linearGradient19727"
       gradientUnits="userSpaceOnUse"
       gradientTransform="matrix(1.337508,0.000000,0.000000,0.525518,9.323765,244.4874)"
       x1="232.27733"
       y1="140.27173"
       x2="147.05203"
       y2="81.484245" />
    <linearGradient
       inkscape:collect="always"
       xlink:href="#graytolightgray"
       id="linearGradient19728"
       gradientUnits="userSpaceOnUse"
       gradientTransform="scale(1.436842,0.695971)"
       x1="8.4329405"
       y1="88.576233"
       x2="46.346687"
       y2="39.269283" />
    <linearGradient
       inkscape:collect="always"
       xlink:href="#blacktowhite"
       id="linearGradient19729"
       gradientUnits="userSpaceOnUse"
       gradientTransform="matrix(1.494665,0.000000,0.000000,0.470262,21.13456,163.2076)"
       x1="142.19385"
       y1="278.92441"
       x2="166.65126"
       y2="368.52307" />
    <linearGradient
       inkscape:collect="always"
       xlink:href="#graytolightgray"
       id="linearGradient19730"
       gradientUnits="userSpaceOnUse"
       gradientTransform="scale(1.729412,0.578231)"
       x1="130.60602"
       y1="408.28738"
       x2="180.75517"
       y2="470.93375" />
    <linearGradient
       inkscape:collect="always"
       xlink:href="#light75to0"
       id="linearGradient19731"
       gradientUnits="userSpaceOnUse"
       gradientTransform="scale(0.526614,1.898924)"
       x1="406.16541"
       y1="148.64583"
       x2="414.83224"
       y2="189.94398" />
    <linearGradient
       inkscape:collect="always"
       xlink:href="#light75to0"
       id="linearGradient21648"
       gradientTransform="scale(0.394750,2.533248)"
       x1="196.40405"
       y1="17.297279"
       x2="179.82318"
       y2="17.407320"
       gradientUnits="userSpaceOnUse" />
  </defs>
  <sodipodi:namedview
     id="base"
     pagecolor="#ffffff"
     bordercolor="#666666"
     borderopacity="1.0"
     inkscape:pageopacity="0.0"
     inkscape:pageshadow="2"
     inkscape:zoom="6.7343750"
     inkscape:cx="32.000000"
     inkscape:cy="32.000000"
     inkscape:current-layer="layer1"
     showgrid="false"
     inkscape:grid-bbox="false"
     gridspacingy="1.0000000pt"
     gridspacingx="1.0000000pt"
     gridoriginy="0.0000000pt"
     gridoriginx="0.0000000pt"
     inkscape:window-width="952"
     inkscape:window-height="590"
     inkscape:window-x="0"
     inkscape:window-y="25" />
  <metadata
     id="metadata4">
    <rdf:RDF
       id="RDF5">
      <cc:Work
         rdf:about=""
         id="Work6">
        <dc:format
           id="format7">image/svg+xml</dc:format>
        <dc:type
           id="type9"
           rdf:resource="http://purl.org/dc/dcmitype/StillImage" />
      </cc:Work>
    </rdf:RDF>
  </metadata>
  <g
     id="layer1"
     inkscape:label="Layer 1"
     inkscape:groupmode="layer">
    <g
       id="g21649"
       transform="matrix(1.030519,0.000000,0.000000,1.023202,-3.034498,-4.503937)">
      <path
         style="fill:#818080;fill-opacity:0.14999999;stroke:none;stroke-width:3.7750001;stroke-linecap:butt;stroke-linejoin:round;stroke-miterlimit:4.0000000;stroke-dashoffset:0.0000000;stroke-opacity:1.0000000"
         d="M 260.29533,227.71408 C 240.02933,227.84036 218.31699,231.30576 203.33575,241.72453 C 196.63509,246.43147 193.44553,254.01296 193.59140,258.94297 C 194.03575,261.03349 192.71241,322.29849 194.87355,328.89701 C 197.29982,333.60352 202.21157,337.14302 207.88738,339.99406 L 207.88738,340.28868 C 208.81887,340.69882 209.74460,340.95480 210.67607,341.33619 C 213.74446,342.68490 216.90192,343.92164 220.09988,344.90428 C 242.54067,351.12382 267.90194,351.76200 291.03491,347.16298 C 304.23999,344.13194 318.94708,339.56539 324.88370,329.84632 C 328.14657,324.39893 326.28202,269.18073 326.74281,264.47513 C 326.49236,251.14450 325.37770,249.16768 321.35778,245.35807 C 310.30063,234.28845 290.72402,229.82431 272.70013,228.20510 C 268.57811,227.86953 264.44340,227.71417 260.29533,227.71408 z "
         id="path19591"
         sodipodi:nodetypes="cccccccccccccc"
         transform="matrix(0.551307,0.000000,0.000000,0.559005,-102.8460,-121.9196)" />
      <path
         style="fill:#818783;fill-opacity:0.14999999;stroke:none;stroke-width:3.7750001;stroke-linecap:butt;stroke-linejoin:round;stroke-miterlimit:4.0000000;stroke-dashoffset:0.0000000;stroke-opacity:1.0000000"
         d="M 260.51765,226.38708 C 239.91535,226.51655 217.84271,230.06959 202.61287,240.75181 C 195.80101,245.57778 192.55853,253.35097 192.70682,258.40565 C 193.15854,260.54903 191.81324,323.36321 194.01024,330.12858 C 196.47677,334.95411 201.47004,338.58311 207.24003,341.50624 L 207.24003,341.80831 C 208.18697,342.22882 209.12807,342.49128 210.07499,342.88231 C 213.19430,344.26512 216.40416,345.53314 219.65519,346.54063 C 242.46837,352.91743 268.25049,353.57175 291.76734,348.85643 C 305.19156,345.74876 320.14270,341.06673 326.17783,331.10190 C 329.49485,325.51676 327.59936,268.90228 328.06780,264.07770 C 327.81318,250.40998 326.68003,248.38317 322.59340,244.47723 C 311.35277,233.12770 291.45129,228.55067 273.12830,226.89053 C 268.93788,226.54647 264.73457,226.38718 260.51765,226.38708 z "
         id="path18878"
         sodipodi:nodetypes="cccccccccccccc"
         transform="matrix(0.551307,0.000000,0.000000,0.559005,-102.8460,-121.9196)" />
      <g
         id="g15100"
         transform="matrix(0.551307,0.000000,0.000000,0.559005,-102.8460,-121.9196)">
        <path
           style="fill:#818783;fill-opacity:1.0000000;stroke:none;stroke-width:3.7750001;stroke-linecap:butt;stroke-linejoin:round;stroke-miterlimit:4.0000000;stroke-dashoffset:0.0000000;stroke-opacity:1.0000000"
           d="M 260.89731,275.58006 C 241.13951,275.70061 219.98621,279.00195 205.38065,288.94817 C 198.84802,293.44162 195.74351,300.68155 195.88573,305.38797 C 196.37338,307.63451 195.03218,319.90232 197.13913,326.20157 C 201.11293,333.74969 211.62472,338.43742 221.72805,341.47725 C 243.60613,347.41471 268.32266,348.03439 290.87554,343.64394 C 303.74951,340.75039 318.09671,336.38088 323.88446,327.10262 C 327.06553,321.90229 325.14301,316.14062 325.69067,310.66416 C 325.44649,297.93814 324.34757,296.07382 320.42845,292.43700 C 309.64859,281.86942 290.57648,277.60212 273.00457,276.05634 C 268.98591,275.73600 264.94138,275.58015 260.89731,275.58006 z "
           id="path15089"
           sodipodi:nodetypes="ccccccccccc" />
        <path
           style="fill:url(#linearGradient15099);fill-opacity:1.0000000;stroke:none;stroke-width:3.7750001;stroke-linecap:butt;stroke-linejoin:round;stroke-miterlimit:4.0000000;stroke-dashoffset:0.0000000;stroke-opacity:1.0000000"
           d="M 322.86327,303.43886 C 322.66933,312.00786 311.36739,318.32370 300.23827,321.73582 C 277.28351,328.67288 249.92978,328.99479 226.26952,323.31731 C 215.00934,320.51890 203.72644,315.66037 199.48827,308.02958 C 198.92193,306.04909 198.05468,304.99043 198.42577,307.74403 C 198.30523,310.28607 198.10433,312.97324 198.42577,315.58558 C 198.15301,320.58951 198.12151,325.89881 203.42577,329.88488 C 213.69549,338.59716 230.88868,342.29722 247.08202,343.74488 C 268.91582,345.52090 292.67031,343.34350 310.61327,334.62935 C 318.30952,330.78506 323.73700,324.66963 322.70702,318.24336 C 322.79120,315.18170 322.75484,305.93593 322.86327,303.43886 z "
           id="path15090"
           sodipodi:nodetypes="ccccccccccc" />
        <path
           style="fill:url(#linearGradient15098);fill-opacity:1.0000000;stroke:none;stroke-width:3.7724271;stroke-linecap:butt;stroke-linejoin:round;stroke-miterlimit:4.0000000;stroke-dashoffset:0.0000000;stroke-opacity:1.0000000"
           d="M 261.14326,279.73105 C 230.02641,279.73105 204.76801,289.65228 204.76801,301.88137 C 204.76801,314.11047 230.02641,324.03169 261.14326,324.03169 C 292.26012,324.03169 317.51852,314.11047 317.51852,301.88137 C 317.51852,289.65228 292.26012,279.73105 261.14326,279.73105 z M 261.39592,285.53916 C 290.46859,285.53916 314.07600,293.53629 314.07600,303.38309 C 314.07600,313.22989 290.46860,321.22702 261.39592,321.22702 C 232.32324,321.22702 208.71585,313.22989 208.71585,303.38309 C 208.71585,293.53628 232.32325,285.53916 261.39592,285.53916 z "
           id="path15091"
           sodipodi:nodetypes="cccccccccc" />
        <path
           sodipodi:type="arc"
           style="fill:url(#linearGradient15097);fill-opacity:1.0000000;stroke:none;stroke-width:3.7724271;stroke-linecap:butt;stroke-linejoin:round;stroke-miterlimit:4.0000000;stroke-dashoffset:0.0000000;stroke-opacity:1.0000000"
           id="path15092"
           sodipodi:cx="33.384850"
           sodipodi:cy="50.922665"
           sodipodi:rx="52.112938"
           sodipodi:ry="25.242205"
           d="M 85.497787 50.922665 A 52.112938 25.242205 0 1 1  -18.728088,50.922665 A 52.112938 25.242205 0 1 1  85.497787 50.922665 z"
           transform="matrix(1.005132,0.000000,0.000000,0.757545,226.8913,264.6372)" />
        <path
           style="fill:url(#linearGradient15096);fill-opacity:1.0000000;stroke:none;stroke-width:3.7724271;stroke-linecap:butt;stroke-linejoin:round;stroke-miterlimit:4.0000000;stroke-dashoffset:0.0000000;stroke-opacity:1.0000000"
           d="M 260.59237,276.50373 C 226.70391,276.50373 199.20848,287.90251 199.20848,301.96132 C 199.20848,316.02011 226.70391,327.44087 260.59237,327.44087 C 294.48082,327.44087 321.97626,316.02011 321.97626,301.96132 C 321.97626,287.90252 294.48083,276.50373 260.59237,276.50373 z M 260.74840,279.86439 C 291.49489,279.86439 316.45265,289.73219 316.45265,301.89542 C 316.45265,314.05866 291.49489,323.92645 260.74840,323.92645 C 230.00192,323.92645 205.04416,314.05866 205.04416,301.89542 C 205.04416,289.73219 230.00192,279.86439 260.74840,279.86439 z "
           id="path15093" />
        <path
           style="fill:url(#linearGradient15095);fill-opacity:1.0000000;stroke:none;stroke-width:3.7750001;stroke-linecap:butt;stroke-linejoin:round;stroke-miterlimit:4.0000000;stroke-dashoffset:0.0000000;stroke-opacity:1.0000000"
           d="M 322.82693,302.26246 C 322.33964,310.10980 311.62440,317.35349 300.49528,320.76561 C 277.54052,327.70267 249.89344,327.81839 226.23318,322.14091 C 214.97300,319.34250 203.15196,316.39168 198.38943,302.23761 C 198.34182,303.96329 198.26927,304.50510 198.24276,305.02541 C 201.96114,318.54480 216.37022,321.55129 227.63040,324.34970 C 251.29066,330.02718 278.79107,329.29289 301.74583,322.35583 C 312.76575,318.97719 322.06426,311.20585 322.76443,305.34217 C 322.77669,303.59414 322.79154,303.07754 322.82693,302.26246 z "
           id="path15094"
           sodipodi:nodetypes="ccccccccc" />
      </g>
      <g
         id="g15107"
         transform="matrix(0.551307,0.000000,0.000000,0.559005,-102.8460,-134.7683)">
        <path
           style="fill:#818783;fill-opacity:1.0000000;stroke:none;stroke-width:3.7750001;stroke-linecap:butt;stroke-linejoin:round;stroke-miterlimit:4.0000000;stroke-dashoffset:0.0000000;stroke-opacity:1.0000000"
           d="M 260.89731,275.58006 C 241.13951,275.70061 219.98621,279.00195 205.38065,288.94817 C 198.84802,293.44162 195.74351,300.68155 195.88573,305.38797 C 196.37338,307.63451 195.03218,319.90232 197.13913,326.20157 C 201.11293,333.74969 211.62472,338.43742 221.72805,341.47725 C 243.60613,347.41471 268.32266,348.03439 290.87554,343.64394 C 303.74951,340.75039 318.09671,336.38088 323.88446,327.10262 C 327.06553,321.90229 325.14301,316.14062 325.69067,310.66416 C 325.44649,297.93814 324.34757,296.07382 320.42845,292.43700 C 309.64859,281.86942 290.57648,277.60212 273.00457,276.05634 C 268.98591,275.73600 264.94138,275.58015 260.89731,275.58006 z "
           id="path15108"
           sodipodi:nodetypes="ccccccccccc" />
        <path
           style="fill:url(#linearGradient15114);fill-opacity:1.0000000;stroke:none;stroke-width:3.7750001;stroke-linecap:butt;stroke-linejoin:round;stroke-miterlimit:4.0000000;stroke-dashoffset:0.0000000;stroke-opacity:1.0000000"
           d="M 322.86327,303.43886 C 322.66933,312.00786 311.36739,318.32370 300.23827,321.73582 C 277.28351,328.67288 249.92978,328.99479 226.26952,323.31731 C 215.00934,320.51890 203.72644,315.66037 199.48827,308.02958 C 198.92193,306.04909 198.05468,304.99043 198.42577,307.74403 C 198.30523,310.28607 198.10433,312.97324 198.42577,315.58558 C 198.15301,320.58951 198.12151,325.89881 203.42577,329.88488 C 213.69549,338.59716 230.88868,342.29722 247.08202,343.74488 C 268.91582,345.52090 292.67031,343.34350 310.61327,334.62935 C 318.30952,330.78506 323.73700,324.66963 322.70702,318.24336 C 322.79120,315.18170 322.75484,305.93593 322.86327,303.43886 z "
           id="path15109"
           sodipodi:nodetypes="ccccccccccc" />
        <path
           style="fill:url(#linearGradient15115);fill-opacity:1.0000000;stroke:none;stroke-width:3.7724271;stroke-linecap:butt;stroke-linejoin:round;stroke-miterlimit:4.0000000;stroke-dashoffset:0.0000000;stroke-opacity:1.0000000"
           d="M 261.14326,279.73105 C 230.02641,279.73105 204.76801,289.65228 204.76801,301.88137 C 204.76801,314.11047 230.02641,324.03169 261.14326,324.03169 C 292.26012,324.03169 317.51852,314.11047 317.51852,301.88137 C 317.51852,289.65228 292.26012,279.73105 261.14326,279.73105 z M 261.39592,285.53916 C 290.46859,285.53916 314.07600,293.53629 314.07600,303.38309 C 314.07600,313.22989 290.46860,321.22702 261.39592,321.22702 C 232.32324,321.22702 208.71585,313.22989 208.71585,303.38309 C 208.71585,293.53628 232.32325,285.53916 261.39592,285.53916 z "
           id="path15110"
           sodipodi:nodetypes="cccccccccc" />
        <path
           sodipodi:type="arc"
           style="fill:url(#linearGradient15116);fill-opacity:1.0000000;stroke:none;stroke-width:3.7724271;stroke-linecap:butt;stroke-linejoin:round;stroke-miterlimit:4.0000000;stroke-dashoffset:0.0000000;stroke-opacity:1.0000000"
           id="path15111"
           sodipodi:cx="33.384850"
           sodipodi:cy="50.922665"
           sodipodi:rx="52.112938"
           sodipodi:ry="25.242205"
           d="M 85.497787 50.922665 A 52.112938 25.242205 0 1 1  -18.728088,50.922665 A 52.112938 25.242205 0 1 1  85.497787 50.922665 z"
           transform="matrix(1.005132,0.000000,0.000000,0.757545,226.8913,264.6372)" />
        <path
           style="fill:url(#linearGradient15117);fill-opacity:1.0000000;stroke:none;stroke-width:3.7724271;stroke-linecap:butt;stroke-linejoin:round;stroke-miterlimit:4.0000000;stroke-dashoffset:0.0000000;stroke-opacity:1.0000000"
           d="M 260.59237,276.50373 C 226.70391,276.50373 199.20848,287.90251 199.20848,301.96132 C 199.20848,316.02011 226.70391,327.44087 260.59237,327.44087 C 294.48082,327.44087 321.97626,316.02011 321.97626,301.96132 C 321.97626,287.90252 294.48083,276.50373 260.59237,276.50373 z M 260.74840,279.86439 C 291.49489,279.86439 316.45265,289.73219 316.45265,301.89542 C 316.45265,314.05866 291.49489,323.92645 260.74840,323.92645 C 230.00192,323.92645 205.04416,314.05866 205.04416,301.89542 C 205.04416,289.73219 230.00192,279.86439 260.74840,279.86439 z "
           id="path15112" />
        <path
           style="fill:url(#linearGradient15118);fill-opacity:1.0000000;stroke:none;stroke-width:3.7750001;stroke-linecap:butt;stroke-linejoin:round;stroke-miterlimit:4.0000000;stroke-dashoffset:0.0000000;stroke-opacity:1.0000000"
           d="M 322.82693,302.26246 C 322.33964,310.10980 311.62440,317.35349 300.49528,320.76561 C 277.54052,327.70267 249.89344,327.81839 226.23318,322.14091 C 214.97300,319.34250 203.15196,316.39168 198.38943,302.23761 C 198.34182,303.96329 198.26927,304.50510 198.24276,305.02541 C 201.96114,318.54480 216.37022,321.55129 227.63040,324.34970 C 251.29066,330.02718 278.79107,329.29289 301.74583,322.35583 C 312.76575,318.97719 322.06426,311.20585 322.76443,305.34217 C 322.77669,303.59414 322.79154,303.07754 322.82693,302.26246 z "
           id="path15113"
           sodipodi:nodetypes="ccccccccc" />
      </g>
      <path
         style="fill:#818783;fill-opacity:1.0000000;stroke:none;stroke-width:3.7750001;stroke-linecap:butt;stroke-linejoin:round;stroke-miterlimit:4.0000000;stroke-dashoffset:0.0000000;stroke-opacity:1.0000000"
         d="M 260.89731,275.58006 C 241.13951,275.70061 219.98621,279.00195 205.38065,288.94817 C 198.84802,293.44162 195.74351,300.68155 195.88573,305.38797 C 196.37338,307.63451 195.03218,319.90232 197.13913,326.20157 C 201.11293,333.74969 211.62472,338.43742 221.72805,341.47725 C 243.60613,347.41471 268.32266,348.03439 290.87554,343.64394 C 303.74951,340.75039 318.09671,336.38088 323.88446,327.10262 C 327.06553,321.90229 325.14301,316.14062 325.69067,310.66416 C 325.44649,297.93814 324.34757,296.07382 320.42845,292.43700 C 309.64859,281.86942 290.57648,277.60212 273.00457,276.05634 C 268.98591,275.73600 264.94138,275.58015 260.89731,275.58006 z "
         id="path15120"
         sodipodi:nodetypes="ccccccccccc"
         transform="matrix(0.551307,0.000000,0.000000,0.559005,-102.8460,-147.6169)" />
      <path
         style="fill:url(#linearGradient15126);fill-opacity:1.0000000;stroke:none;stroke-width:3.7750001;stroke-linecap:butt;stroke-linejoin:round;stroke-miterlimit:4.0000000;stroke-dashoffset:0.0000000;stroke-opacity:1.0000000"
         d="M 322.86327,303.43886 C 322.66933,312.00786 311.36739,318.32370 300.23827,321.73582 C 277.28351,328.67288 249.92978,328.99479 226.26952,323.31731 C 215.00934,320.51890 203.72644,315.66037 199.48827,308.02958 C 198.92193,306.04909 198.05468,304.99043 198.42577,307.74403 C 198.30523,310.28607 198.10433,312.97324 198.42577,315.58558 C 198.15301,320.58951 198.12151,325.89881 203.42577,329.88488 C 213.69549,338.59716 230.88868,342.29722 247.08202,343.74488 C 268.91582,345.52090 292.67031,343.34350 310.61327,334.62935 C 318.30952,330.78506 323.73700,324.66963 322.70702,318.24336 C 322.79120,315.18170 322.75484,305.93593 322.86327,303.43886 z "
         id="path15121"
         sodipodi:nodetypes="ccccccccccc"
         transform="matrix(0.551307,0.000000,0.000000,0.559005,-102.8460,-147.6169)" />
      <path
         style="fill:url(#linearGradient15127);fill-opacity:1.0000000;stroke:none;stroke-width:3.7724271;stroke-linecap:butt;stroke-linejoin:round;stroke-miterlimit:4.0000000;stroke-dashoffset:0.0000000;stroke-opacity:1.0000000"
         d="M 261.14326,279.73105 C 230.02641,279.73105 204.76801,289.65228 204.76801,301.88137 C 204.76801,314.11047 230.02641,324.03169 261.14326,324.03169 C 292.26012,324.03169 317.51852,314.11047 317.51852,301.88137 C 317.51852,289.65228 292.26012,279.73105 261.14326,279.73105 z M 261.39592,285.53916 C 290.46859,285.53916 314.07600,293.53629 314.07600,303.38309 C 314.07600,313.22989 290.46860,321.22702 261.39592,321.22702 C 232.32324,321.22702 208.71585,313.22989 208.71585,303.38309 C 208.71585,293.53628 232.32325,285.53916 261.39592,285.53916 z "
         id="path15122"
         sodipodi:nodetypes="cccccccccc"
         transform="matrix(0.551307,0.000000,0.000000,0.559005,-102.8460,-147.6169)" />
      <path
         sodipodi:type="arc"
         style="fill:url(#linearGradient15128);fill-opacity:1.0000000;stroke:none;stroke-width:3.7724271;stroke-linecap:butt;stroke-linejoin:round;stroke-miterlimit:4.0000000;stroke-dashoffset:0.0000000;stroke-opacity:1.0000000"
         id="path15123"
         sodipodi:cx="33.384850"
         sodipodi:cy="50.922665"
         sodipodi:rx="52.112938"
         sodipodi:ry="25.242205"
         d="M 85.497787 50.922665 A 52.112938 25.242205 0 1 1  -18.728088,50.922665 A 52.112938 25.242205 0 1 1  85.497787 50.922665 z"
         transform="matrix(0.554136,0.000000,0.000000,0.423471,22.24076,0.316626)" />
      <path
         style="fill:url(#linearGradient15130);fill-opacity:1.0000000;stroke:none;stroke-width:3.7750001;stroke-linecap:butt;stroke-linejoin:round;stroke-miterlimit:4.0000000;stroke-dashoffset:0.0000000;stroke-opacity:1.0000000"
         d="M 322.82693,302.26246 C 322.33964,310.10980 311.62440,317.35349 300.49528,320.76561 C 277.54052,327.70267 249.89344,327.81839 226.23318,322.14091 C 222.51441,321.13452 203.15196,316.39168 198.38943,302.23761 C 198.34182,303.96329 198.26927,304.50510 198.24276,305.02541 C 201.96114,318.54480 220.92493,322.74597 227.63040,324.34970 C 251.29066,330.02718 278.79107,329.29289 301.74583,322.35583 C 312.76575,318.97719 322.06426,311.20585 322.76443,305.34217 C 322.77669,303.59414 322.79154,303.07754 322.82693,302.26246 z "
         id="path15125"
         sodipodi:nodetypes="ccccccccc"
         transform="matrix(0.551307,0.000000,0.000000,0.559005,-102.8460,-147.6169)" />
      <path
         style="fill:url(#linearGradient15129);fill-opacity:1.0000000;stroke:none;stroke-width:3.7724271;stroke-linecap:butt;stroke-linejoin:round;stroke-miterlimit:4.0000000;stroke-dashoffset:0.0000000;stroke-opacity:1.0000000"
         d="M 260.59238,230.53399 C 226.70392,230.53399 199.20849,241.71280 199.20849,255.50031 C 199.20849,269.28780 226.70392,280.48817 260.59238,280.48817 C 294.48083,280.48817 321.97627,269.28780 321.97627,255.50031 C 321.97627,241.71281 294.48084,230.53399 260.59238,230.53399 z M 260.74841,233.82980 C 291.49490,233.82980 316.45266,243.50717 316.45266,255.43568 C 316.45266,267.36420 291.49490,277.04157 260.74841,277.04157 C 230.00193,277.04157 205.04417,267.36420 205.04417,255.43568 C 205.04417,243.50717 230.00193,233.82980 260.74841,233.82980 z "
         id="path15124"
         transform="matrix(0.551307,0.000000,0.000000,0.559005,-102.8460,-121.9196)" />
      <path
         style="fill:url(#linearGradient15758);fill-opacity:1.0000000;fill-rule:evenodd;stroke:none;stroke-width:0.25000000pt;stroke-linecap:butt;stroke-linejoin:miter;stroke-opacity:1.0000000"
         d="M 210.36519,269.66987 C 214.22664,272.59874 227.28642,277.08126 232.93567,277.65629 L 232.02206,343.49000 C 224.61485,342.58770 217.20764,340.27531 209.80044,337.08162 L 210.36519,269.66987 z "
         id="path15131"
         sodipodi:nodetypes="ccccc"
         transform="matrix(0.551307,0.000000,0.000000,0.559005,-102.8460,-121.9196)" />
      <path
         style="fill:url(#linearGradient21648);fill-opacity:1.0000000;fill-rule:evenodd;stroke:none;stroke-width:0.25000000pt;stroke-linecap:butt;stroke-linejoin:miter;stroke-opacity:1.0000000"
         d="M 75.981664,21.212174 L 75.335011,59.953774 C 74.239336,62.522463 71.961666,64.415727 69.515139,65.126994 L 69.698383,29.561108 C 73.481375,26.834416 75.575802,24.783150 75.981664,21.212174 z "
         id="path21023"
         sodipodi:nodetypes="ccccc" />
    </g>
    <g
       id="g14600"
       transform="matrix(0.571929,0.000000,0.000000,0.540156,33.38665,37.41110)">
      <path
         d="M 195.82544,161.52373 C 195.30077,161.52702 194.88009,161.93512 194.88190,162.43999 L 195.13165,232.35894 C 195.13416,232.86169 195.55777,233.26959 196.08244,233.26771 L 268.59716,233.00653 C 269.12183,233.00465 269.54321,232.59443 269.54070,232.09169 L 269.32689,172.20792 C 269.32482,172.02549 269.26832,171.84680 269.16242,171.69656 L 262.07172,161.68735 C 261.89406,161.43908 261.60077,161.28740 261.28611,161.28923 L 195.82544,161.52373 z "
         id="path3555"
         sodipodi:nodetypes="ccccccccccc"
         transform="translate(-192.3819,-158.2677)" />
      <g
         id="g10635"
         transform="matrix(0.709635,0.704569,-0.704569,0.709635,-29.34850,-31.51460)">
						<path
   d="M 97.977000,42.557000 L 97.590000,42.170000 L 94.502000,45.255000 L 97.479000,48.231000 L 97.883000,47.826000 L 95.295000,45.240000 L 97.977000,42.557000 z "
   id="path10637"
   style="fill:#999999" />

						<path
   d="M 97.977000,42.557000 L 95.295000,45.240000 L 97.883000,47.826000 L 100.56500,45.145000 L 97.977000,42.557000 z "
   id="path10639"
   style="fill:#eeeeee" />

					</g>
      <path
         d="M 257.20946,225.52911 C 257.21981,227.82789 255.13347,229.69931 252.55184,229.70785 L 210.85120,229.85723 C 208.26887,229.86648 206.16987,228.00793 206.16235,225.71055 L 206.06374,198.97362 C 206.05692,196.67412 208.14397,194.80341 210.72630,194.79274 L 252.42482,194.64549 C 255.00574,194.63483 257.10544,196.49267 257.11368,198.79075 L 257.20946,225.52911 z "
         id="path3526"
         style="fill:url(#linearGradient14646);fill-opacity:1.0000000"
         transform="translate(-192.3819,-158.2677)" />
      <path
         d="M 210.70585,200.67923 C 210.35372,200.68191 210.07257,200.95657 210.07518,201.29173 C 210.07498,201.62973 210.35949,201.89812 210.70950,201.89616 L 252.46671,201.74657 C 252.81743,201.74532 253.09718,201.47490 253.09598,201.13832 C 253.09477,200.80174 252.81236,200.52840 252.46376,200.53035 L 210.70585,200.67923 z "
         id="path3535"
         style="fill:url(#linearGradient14647);fill-opacity:1.0000000"
         transform="translate(-192.3819,-158.2677)" />
      <path
         d="M 253.93610,189.35846 L 217.89794,189.48756 L 217.80614,163.66348 L 253.84217,163.53368 L 253.93610,189.35846 z "
         id="path3502"
         style="fill:url(#linearGradient14648);fill-opacity:1.0000000"
         transform="translate(-192.3819,-158.2677)" />
      <path
         d="M 251.88068,185.61754 L 243.07725,185.64766 L 243.00383,165.15160 L 251.80866,165.11864 L 251.88068,185.61754 z "
         id="path3517"
         transform="translate(-192.3819,-158.2677)" />
      <path
         a:adobe-blending-mode="screen"
         d="M 209.08463,162.28594 C 208.56066,162.28711 208.13921,162.67894 208.14023,163.16189 L 208.23732,190.06642 C 208.23905,190.55007 208.66259,190.93817 209.18655,190.93559 L 254.50825,190.77253 C 255.03292,190.77065 255.45437,190.38023 255.45264,189.89657 L 255.35626,162.99276 C 255.35454,162.51051 254.92888,162.12313 254.40633,162.12288 L 209.08463,162.28594 z M 253.46577,163.87210 C 253.47143,165.45177 253.55025,187.45395 253.55520,189.03433 C 251.78037,189.04069 211.90265,189.18354 210.12782,189.18990 C 210.12216,187.60882 210.04263,165.60593 210.03839,164.02767 C 211.81322,164.02131 251.68882,163.87776 253.46577,163.87210 z "
         id="path3515"
         style="opacity:0.29999998;fill:url(#linearGradient14649);fill-opacity:1.0000000"
         transform="translate(-192.3819,-158.2677)" />
      <path
         d="M 210.70585,210.67923 C 210.35372,210.68191 210.07257,210.95657 210.07518,211.29173 C 210.07498,211.62973 210.35949,211.89812 210.70950,211.89616 L 252.46671,211.74657 C 252.81743,211.74532 253.09718,211.47490 253.09598,211.13832 C 253.09477,210.80174 252.81236,210.52840 252.46376,210.53035 L 210.70585,210.67923 z "
         id="path11883"
         style="fill:url(#linearGradient14650);fill-opacity:1.0000000"
         transform="translate(-192.3819,-158.2677)" />
      <path
         d="M 264.12753,193.91556 C 264.19165,211.81656 249.19508,226.38020 230.63507,226.44527 C 212.06869,226.51249 196.96958,212.05524 196.90405,194.15849 C 196.84064,176.25820 211.83720,161.69315 230.40146,161.62665 C 248.96430,161.56015 264.06412,176.01669 264.12753,193.91556 z "
         id="path3476"
         style="opacity:0.20000000;fill:url(#radialGradient14651);fill-opacity:1.0000000"
         transform="translate(-192.3819,-158.2677)" />
      <g
         id="g3469"
         transform="matrix(0.709635,0.704569,-0.704569,0.709635,33.15150,-31.51460)">
						<path
   d="M 97.977000,42.557000 L 97.590000,42.170000 L 94.502000,45.255000 L 97.479000,48.231000 L 97.883000,47.826000 L 95.295000,45.240000 L 97.977000,42.557000 z "
   id="path3471"
   style="fill:#999999" />

						<path
   d="M 97.977000,42.557000 L 95.295000,45.240000 L 97.883000,47.826000 L 100.56500,45.145000 L 97.977000,42.557000 z "
   id="path3473"
   style="fill:#eeeeee" />

					</g>
      <path
         d="M 197.30957,163.15236 C 196.80880,163.15549 196.40728,163.54501 196.40901,164.02689 L 196.64739,230.76102 C 196.64977,231.24088 197.05408,231.63020 197.55486,231.62841 L 266.76653,231.37911 C 267.26730,231.37732 267.66950,230.98579 267.66709,230.50596 L 267.46302,173.34988 C 267.46105,173.17577 267.40713,173.00522 267.30605,172.86181 L 260.53833,163.30852 C 260.36875,163.07157 260.08883,162.92679 259.78851,162.92853 L 197.30957,163.15236 z "
         id="path13129"
         sodipodi:nodetypes="ccccccccccc"
         style="fill:url(#radialGradient14652);fill-opacity:1.0000000;stroke:none"
         transform="translate(-192.3819,-158.2677)" />
      <path
         d="M 210.70585,218.17923 C 210.35372,218.18191 210.07257,218.45657 210.07518,218.79173 C 210.07498,219.12973 210.35949,219.39812 210.70950,219.39616 L 252.46671,219.24657 C 252.81743,219.24532 253.09718,218.97490 253.09598,218.63832 C 253.09477,218.30174 252.81236,218.02840 252.46376,218.03035 L 210.70585,218.17923 z "
         id="path11885"
         style="fill:url(#linearGradient14653);fill-opacity:1.0000000"
         transform="translate(-192.3819,-158.2677)" />
      <path
         a:adobe-blending-mode="screen"
         d="M 265.77477,171.71269 C 264.00591,207.64400 225.68086,217.41425 199.82997,213.84409 L 199.64940,163.63490 L 259.49936,163.08083 L 265.77477,171.71269 z "
         id="path3489"
         style="opacity:0.80000001;fill:url(#linearGradient14654);fill-opacity:1.0000000"
         sodipodi:nodetypes="ccccc"
         transform="translate(-192.3819,-158.2677)" />
      <path
         d="M 195.82544,161.52373 C 195.30077,161.52702 194.88009,161.93512 194.88190,162.43999 L 195.13165,232.35894 C 195.13416,232.86169 195.55777,233.26959 196.08244,233.26771 L 268.59716,233.00653 C 269.12183,233.00465 269.54321,232.59443 269.54070,232.09169 L 269.32689,172.20792 C 269.32482,172.02549 269.26832,171.84680 269.16242,171.69656 L 262.07172,161.68735 C 261.89406,161.43908 261.60077,161.28740 261.28611,161.28923 L 195.82544,161.52373 z "
         id="path13974"
         sodipodi:nodetypes="ccccccccccc"
         transform="translate(-192.3819,-158.2677)"
         style="fill:none;stroke:#000000;stroke-width:5.1250000;stroke-miterlimit:4.0000000;stroke-opacity:0.051948015" />
      <path
         d="M 195.82544,161.52373 C 195.30077,161.52702 194.88009,161.93512 194.88190,162.43999 L 195.13165,232.35894 C 195.13416,232.86169 195.55777,233.26959 196.08244,233.26771 L 268.59716,233.00653 C 269.12183,233.00465 269.54321,232.59443 269.54070,232.09169 L 269.32689,172.20792 C 269.32482,172.02549 269.26832,171.84680 269.16242,171.69656 L 262.07172,161.68735 C 261.89406,161.43908 261.60077,161.28740 261.28611,161.28923 L 195.82544,161.52373 z "
         id="path14596"
         sodipodi:nodetypes="ccccccccccc"
         transform="translate(-192.3819,-158.2677)"
         style="fill:none;stroke:#000000;stroke-width:3.7500000;stroke-miterlimit:4.0000000;stroke-opacity:0.051948015" />
      <path
         d="M 195.82544,161.52373 C 195.30077,161.52702 194.88009,161.93512 194.88190,162.43999 L 195.13165,232.35894 C 195.13416,232.86169 195.55777,233.26959 196.08244,233.26771 L 268.59716,233.00653 C 269.12183,233.00465 269.54321,232.59443 269.54070,232.09169 L 269.32689,172.20792 C 269.32482,172.02549 269.26832,171.84680 269.16242,171.69656 L 262.07172,161.68735 C 261.89406,161.43908 261.60077,161.28740 261.28611,161.28923 L 195.82544,161.52373 z "
         id="path14597"
         sodipodi:nodetypes="ccccccccccc"
         transform="translate(-192.3819,-158.2677)"
         style="fill:none;stroke:#000000;stroke-width:2.7500000;stroke-miterlimit:4.0000000;stroke-opacity:0.051948015" />
      <path
         d="M 195.82544,161.52373 C 195.30077,161.52702 194.88009,161.93512 194.88190,162.43999 L 195.13165,232.35894 C 195.13416,232.86169 195.55777,233.26959 196.08244,233.26771 L 268.59716,233.00653 C 269.12183,233.00465 269.54321,232.59443 269.54070,232.09169 L 269.32689,172.20792 C 269.32482,172.02549 269.26832,171.84680 269.16242,171.69656 L 262.07172,161.68735 C 261.89406,161.43908 261.60077,161.28740 261.28611,161.28923 L 195.82544,161.52373 z "
         id="path14598"
         sodipodi:nodetypes="ccccccccccc"
         transform="translate(-192.3819,-158.2677)"
         style="fill:none;stroke:#000000;stroke-width:2.2500000;stroke-miterlimit:4.0000000;stroke-opacity:0.051948015" />
      <path
         d="M 195.82544,161.52373 C 195.30077,161.52702 194.88009,161.93512 194.88190,162.43999 L 195.13165,232.35894 C 195.13416,232.86169 195.55777,233.26959 196.08244,233.26771 L 268.59716,233.00653 C 269.12183,233.00465 269.54321,232.59443 269.54070,232.09169 L 269.32689,172.20792 C 269.32482,172.02549 269.26832,171.84680 269.16242,171.69656 L 262.07172,161.68735 C 261.89406,161.43908 261.60077,161.28740 261.28611,161.28923 L 195.82544,161.52373 z "
         id="path14599"
         sodipodi:nodetypes="ccccccccccc"
         transform="translate(-192.3819,-158.2677)"
         style="fill:none;stroke:#000000;stroke-width:1.2500000;stroke-miterlimit:4.0000000;stroke-opacity:0.051948015" />
    </g>
  </g>
</svg>
