<?xml version="1.0" encoding="UTF-8" standalone="no"?>
<!-- Created with Inkscape (http://www.inkscape.org/) -->
<svg
   xmlns:dc="http://purl.org/dc/elements/1.1/"
   xmlns:cc="http://web.resource.org/cc/"
   xmlns:rdf="http://www.w3.org/1999/02/22-rdf-syntax-ns#"
   xmlns:svg="http://www.w3.org/2000/svg"
   xmlns="http://www.w3.org/2000/svg"
   xmlns:xlink="http://www.w3.org/1999/xlink"
   xmlns:sodipodi="http://inkscape.sourceforge.net/DTD/sodipodi-0.dtd"
   xmlns:inkscape="http://www.inkscape.org/namespaces/inkscape"
   inkscape:export-ydpi="45.000000"
   inkscape:export-xdpi="45.000000"
   inkscape:export-filename="/home/pinheiro/kdeplayground-artwork/oooicons/crystalsvg/dbtableedit.png"
   sodipodi:docname="dbtableedit.svg"
   sodipodi:docbase="/home/pinheiro/kdeplayground-artwork/oooicons/crystalsvg"
   inkscape:version="0.41"
   sodipodi:version="0.32"
   id="svg1467"
   height="64px"
   width="64px">
  <defs
     id="defs3">
    <linearGradient
       y2="48.426991"
       x2="122.91101"
       y1="26.413313"
       x1="112.83246"
       gradientTransform="matrix(0.233887,0.000000,0.000000,9.851971e-2,39.57807,4.676342)"
       gradientUnits="userSpaceOnUse"
       id="linearGradient3572"
       xlink:href="#light100to0"
       inkscape:collect="always" />
    <linearGradient
       y2="299.38031"
       x2="48.348915"
       y1="263.33130"
       x1="63.510639"
       gradientTransform="matrix(0.134914,0.000000,0.000000,0.183847,38.34850,4.552256)"
       gradientUnits="userSpaceOnUse"
       id="linearGradient3570"
       xlink:href="#blacktowhite"
       inkscape:collect="always" />
    <linearGradient
       y2="-2.7694037"
       x2="113.51736"
       y1="94.234268"
       x1="55.499844"
       gradientTransform="matrix(0.728286,0.000000,0.000000,0.733176,-4.172737,3.764446)"
       gradientUnits="userSpaceOnUse"
       id="linearGradient3568"
       xlink:href="#orangetoyelow"
       inkscape:collect="always" />
    <linearGradient
       id="orangetoyelow">
      <stop
         id="stop2661"
         offset="0.0000000"
         style="stop-color:#ff7d00;stop-opacity:1.0000000;" />
      <stop
         id="stop2662"
         offset="1.0000000"
         style="stop-color:#ffff00;stop-opacity:1.0000000;" />
    </linearGradient>
    <linearGradient
       y2="-37.592434"
       x2="140.15146"
       y1="65.623413"
       x1="75.064339"
       gradientTransform="matrix(0.728286,0.000000,0.000000,0.733176,-4.172737,3.764446)"
       gradientUnits="userSpaceOnUse"
       id="linearGradient3566"
       xlink:href="#orangetoyelow"
       inkscape:collect="always" />
    <linearGradient
       id="orangelesstoyelow">
      <stop
         id="stop2689"
         offset="0.0000000"
         style="stop-color:#ff7d00;stop-opacity:1.0000000;" />
      <stop
         id="stop2690"
         offset="0.25358382"
         style="stop-color:#ffbe00;stop-opacity:1.0000000;" />
      <stop
         id="stop2691"
         offset="1.0000000"
         style="stop-color:#ffff00;stop-opacity:1.0000000;" />
    </linearGradient>
    <linearGradient
       y2="19.952200"
       x2="86.264603"
       y1="80.526398"
       x1="58.404800"
       gradientTransform="matrix(0.728286,0.000000,0.000000,0.733176,-4.172737,3.764446)"
       gradientUnits="userSpaceOnUse"
       id="linearGradient3564"
       xlink:href="#orangelesstoyelow"
       inkscape:collect="always" />
    <linearGradient
       id="orangetoblackorange">
      <stop
         id="stop4207"
         offset="0.0000000"
         style="stop-color:#ff8b00;stop-opacity:1.0000000;" />
      <stop
         id="stop4209"
         offset="1.0000000"
         style="stop-color:#4d0200;stop-opacity:1.0000000;" />
    </linearGradient>
    <linearGradient
       y2="0.95772386"
       x2="122.31405"
       y1="9.0542183"
       x1="68.581657"
       gradientTransform="matrix(0.664287,0.300537,-0.298532,0.668748,-4.172737,3.764446)"
       gradientUnits="userSpaceOnUse"
       id="linearGradient3562"
       xlink:href="#orangetoblackorange"
       inkscape:collect="always" />
    <linearGradient
       inkscape:collect="always"
       xlink:href="#light75to0"
       id="linearGradient1781"
       gradientUnits="userSpaceOnUse"
       gradientTransform="scale(0.394750,2.533248)"
       x1="196.40405"
       y1="17.297279"
       x2="179.82318"
       y2="17.407320" />
    <linearGradient
       inkscape:collect="always"
       xlink:href="#light75to0"
       id="linearGradient1779"
       gradientUnits="userSpaceOnUse"
       gradientTransform="scale(0.526614,1.898924)"
       x1="406.16541"
       y1="148.64583"
       x2="414.83224"
       y2="189.94398" />
    <linearGradient
       inkscape:collect="always"
       xlink:href="#graytolightgray"
       id="linearGradient1777"
       gradientUnits="userSpaceOnUse"
       gradientTransform="scale(1.729412,0.578231)"
       x1="130.60602"
       y1="408.28738"
       x2="180.75517"
       y2="470.93375" />
    <linearGradient
       inkscape:collect="always"
       xlink:href="#blacktowhite"
       id="linearGradient1775"
       gradientUnits="userSpaceOnUse"
       gradientTransform="matrix(1.494665,0.000000,0.000000,0.470262,21.13456,163.2076)"
       x1="142.19385"
       y1="278.92441"
       x2="166.65126"
       y2="368.52307" />
    <linearGradient
       inkscape:collect="always"
       xlink:href="#graytolightgray"
       id="linearGradient1773"
       gradientUnits="userSpaceOnUse"
       gradientTransform="scale(1.436842,0.695971)"
       x1="8.4329405"
       y1="88.576233"
       x2="46.346687"
       y2="39.269283" />
    <linearGradient
       inkscape:collect="always"
       xlink:href="#blacktowhite"
       id="linearGradient1771"
       gradientUnits="userSpaceOnUse"
       gradientTransform="matrix(1.337508,0.000000,0.000000,0.525518,9.323765,244.4874)"
       x1="232.27733"
       y1="140.27173"
       x2="147.05203"
       y2="81.484245" />
    <linearGradient
       inkscape:collect="always"
       xlink:href="#blacktowhite"
       id="linearGradient1769"
       gradientUnits="userSpaceOnUse"
       gradientTransform="matrix(1.494665,0.000000,0.000000,0.470262,13.18526,232.9367)"
       x1="253.08090"
       y1="206.53716"
       x2="123.30837"
       y2="205.96529" />
    <linearGradient
       inkscape:collect="always"
       xlink:href="#blacktowhite"
       id="linearGradient1767"
       gradientUnits="userSpaceOnUse"
       gradientTransform="matrix(1.494665,0.000000,0.000000,0.470262,21.13456,163.2076)"
       x1="142.19385"
       y1="278.92441"
       x2="166.65126"
       y2="368.52307" />
    <linearGradient
       inkscape:collect="always"
       xlink:href="#graytolightgray"
       id="linearGradient1765"
       gradientUnits="userSpaceOnUse"
       gradientTransform="matrix(1.435849,0.000000,0.000000,0.489525,9.323765,244.4874)"
       x1="133.23598"
       y1="111.26886"
       x2="216.75711"
       y2="109.89973" />
    <linearGradient
       inkscape:collect="always"
       xlink:href="#graytolightgray"
       id="linearGradient1763"
       gradientUnits="userSpaceOnUse"
       gradientTransform="scale(1.436842,0.695971)"
       x1="-0.36880860"
       y1="75.553932"
       x2="59.273689"
       y2="75.553932" />
    <linearGradient
       inkscape:collect="always"
       xlink:href="#blacktowhite"
       id="linearGradient1761"
       gradientUnits="userSpaceOnUse"
       gradientTransform="matrix(1.337508,0.000000,0.000000,0.525518,9.323765,244.4874)"
       x1="232.27733"
       y1="140.27173"
       x2="147.05203"
       y2="81.484245" />
    <linearGradient
       inkscape:collect="always"
       xlink:href="#blacktowhite"
       id="linearGradient1759"
       gradientUnits="userSpaceOnUse"
       gradientTransform="matrix(1.494665,0.000000,0.000000,0.470262,13.18526,232.9367)"
       x1="253.08090"
       y1="206.53716"
       x2="123.30837"
       y2="205.96529" />
    <linearGradient
       inkscape:collect="always"
       xlink:href="#blacktowhite"
       id="linearGradient1757"
       gradientUnits="userSpaceOnUse"
       gradientTransform="matrix(1.494665,0.000000,0.000000,0.470262,21.13456,163.2076)"
       x1="142.19385"
       y1="278.92441"
       x2="166.65126"
       y2="368.52307" />
    <linearGradient
       inkscape:collect="always"
       xlink:href="#graytolightgray"
       id="linearGradient1755"
       gradientUnits="userSpaceOnUse"
       gradientTransform="matrix(1.435849,0.000000,0.000000,0.489525,9.323765,244.4874)"
       x1="133.23598"
       y1="111.26886"
       x2="216.75711"
       y2="109.89973" />
    <linearGradient
       inkscape:collect="always"
       xlink:href="#graytolightgray"
       id="linearGradient1753"
       gradientUnits="userSpaceOnUse"
       gradientTransform="scale(1.436842,0.695971)"
       x1="-0.36880860"
       y1="75.553932"
       x2="59.273689"
       y2="75.553932" />
    <linearGradient
       inkscape:collect="always"
       xlink:href="#blacktowhite"
       id="linearGradient1751"
       gradientUnits="userSpaceOnUse"
       gradientTransform="matrix(1.337508,0.000000,0.000000,0.525518,9.323765,244.4874)"
       x1="232.27733"
       y1="140.27173"
       x2="147.05203"
       y2="81.484245" />
    <linearGradient
       inkscape:collect="always"
       xlink:href="#blacktowhite"
       id="linearGradient1749"
       gradientUnits="userSpaceOnUse"
       gradientTransform="matrix(1.494665,0.000000,0.000000,0.470262,13.18526,232.9367)"
       x1="253.08090"
       y1="206.53716"
       x2="123.30837"
       y2="205.96529" />
    <radialGradient
       inkscape:collect="always"
       xlink:href="#light75to0"
       id="radialGradient1747"
       gradientUnits="userSpaceOnUse"
       gradientTransform="matrix(1.193232,0.000000,0.000000,0.913293,-1.143705,5.214635)"
       cx="21.623133"
       cy="45.255077"
       fx="21.623133"
       fy="45.255077"
       r="29.246748" />
    <radialGradient
       inkscape:collect="always"
       xlink:href="#light75to0"
       id="radialGradient1745"
       gradientUnits="userSpaceOnUse"
       gradientTransform="matrix(1.204589,0.000000,0.000000,0.890886,-3.473415,48.22953)"
       cx="17.741598"
       cy="31.723280"
       fx="17.741598"
       fy="31.723280"
       r="9.2936869" />
    <linearGradient
       inkscape:collect="always"
       xlink:href="#light75to0"
       id="linearGradient1743"
       gradientUnits="userSpaceOnUse"
       gradientTransform="matrix(1.330293,0.000000,0.000000,0.902767,-3.725355,46.52955)"
       x1="5.6831765"
       y1="21.673885"
       x2="14.964557"
       y2="41.796101" />
    <linearGradient
       inkscape:collect="always"
       xlink:href="#garylighttowite"
       id="linearGradient1741"
       gradientUnits="userSpaceOnUse"
       gradientTransform="matrix(1.208699,0.000000,0.000000,0.894476,-3.293255,48.54284)"
       x1="14.699177"
       y1="30.518322"
       x2="-0.95806932"
       y2="6.8631005" />
    <linearGradient
       inkscape:collect="always"
       xlink:href="#garylighttowite"
       id="linearGradient1739"
       gradientUnits="userSpaceOnUse"
       gradientTransform="matrix(1.208721,0.000000,0.000000,0.894463,-3.293255,48.54284)"
       x1="22.979046"
       y1="53.585712"
       x2="6.4564261"
       y2="20.178543" />
    <radialGradient
       inkscape:collect="always"
       xlink:href="#light75to0"
       id="radialGradient1737"
       gradientUnits="userSpaceOnUse"
       gradientTransform="matrix(1.203711,0.000000,0.000000,0.879056,-2.918355,34.98033)"
       cx="17.741598"
       cy="31.723280"
       fx="17.741598"
       fy="31.723280"
       r="9.2936869" />
    <linearGradient
       inkscape:collect="always"
       xlink:href="#light75to0"
       id="linearGradient1735"
       gradientUnits="userSpaceOnUse"
       gradientTransform="matrix(1.329326,0.000000,0.000000,0.890778,-3.384055,33.11930)"
       x1="5.6831765"
       y1="21.673885"
       x2="14.964557"
       y2="41.796101" />
    <linearGradient
       inkscape:collect="always"
       xlink:href="#garylighttowite"
       id="linearGradient1733"
       gradientUnits="userSpaceOnUse"
       gradientTransform="matrix(1.207819,0.000000,0.000000,0.882596,-2.952275,35.10580)"
       x1="14.699177"
       y1="30.518322"
       x2="-0.95806932"
       y2="6.8631005" />
    <linearGradient
       inkscape:collect="always"
       xlink:href="#garylighttowite"
       id="linearGradient1731"
       gradientUnits="userSpaceOnUse"
       gradientTransform="matrix(1.207841,0.000000,0.000000,0.882581,-2.952275,35.10580)"
       x1="22.979046"
       y1="53.585712"
       x2="6.4564261"
       y2="20.178543" />
    <radialGradient
       inkscape:collect="always"
       xlink:href="#light75to0"
       id="radialGradient1729"
       gradientUnits="userSpaceOnUse"
       gradientTransform="matrix(1.203711,0.000000,0.000000,0.879056,-2.378615,21.46541)"
       cx="17.741598"
       cy="31.723280"
       fx="17.741598"
       fy="31.723280"
       r="9.2936869" />
    <linearGradient
       inkscape:collect="always"
       xlink:href="#light75to0"
       id="linearGradient1727"
       gradientUnits="userSpaceOnUse"
       gradientTransform="matrix(1.329326,0.000000,0.000000,0.890778,-3.384055,19.25566)"
       x1="5.6831765"
       y1="21.673885"
       x2="14.964557"
       y2="41.796101" />
    <linearGradient
       inkscape:collect="always"
       xlink:href="#garylighttowite"
       id="linearGradient1725"
       gradientUnits="userSpaceOnUse"
       gradientTransform="matrix(1.207819,0.000000,0.000000,0.882596,-2.952275,21.24218)"
       x1="14.699177"
       y1="30.518322"
       x2="-0.95806932"
       y2="6.8631005" />
    <linearGradient
       inkscape:collect="always"
       xlink:href="#garylighttowite"
       id="linearGradient1723"
       gradientUnits="userSpaceOnUse"
       gradientTransform="matrix(1.207841,0.000000,0.000000,0.882581,-2.952275,21.24218)"
       x1="22.979046"
       y1="53.585712"
       x2="6.4564261"
       y2="20.178543" />
    <linearGradient
       id="light100to0">
      <stop
         style="stop-color:#ffffff;stop-opacity:1.0000000;"
         offset="0.0000000"
         id="stop2764" />
      <stop
         style="stop-color:#ffffff;stop-opacity:0.0000000;"
         offset="1.0000000"
         id="stop2765" />
    </linearGradient>
    <radialGradient
       inkscape:collect="always"
       xlink:href="#light100to0"
       id="radialGradient1721"
       gradientUnits="userSpaceOnUse"
       gradientTransform="matrix(1.183667,0.000000,0.000000,0.844832,9.075085,1.360711)"
       cx="54.280910"
       cy="89.387924"
       fx="54.280910"
       fy="89.387924"
       r="28.933352" />
    <radialGradient
       inkscape:collect="always"
       xlink:href="#light75to0"
       id="radialGradient1719"
       gradientUnits="userSpaceOnUse"
       gradientTransform="matrix(0.970788,0.000000,0.000000,0.883349,58.35945,6.790338)"
       cx="17.741598"
       cy="31.723280"
       fx="17.741598"
       fy="31.723280"
       r="9.2936869" />
    <linearGradient
       inkscape:collect="always"
       xlink:href="#light75to0"
       id="linearGradient1717"
       gradientUnits="userSpaceOnUse"
       gradientTransform="matrix(1.745631,0.000000,0.000000,0.892341,13.29717,5.760581)"
       x1="5.6831765"
       y1="21.673885"
       x2="14.964557"
       y2="41.796101" />
    <linearGradient
       inkscape:collect="always"
       xlink:href="#light75to0"
       id="linearGradient1715"
       gradientUnits="userSpaceOnUse"
       gradientTransform="matrix(1.960304,0.000000,0.000000,0.841475,40.58947,4.210187)"
       x1="5.6831765"
       y1="21.673885"
       x2="14.964557"
       y2="41.796101" />
    <radialGradient
       inkscape:collect="always"
       xlink:href="#light75to0"
       id="radialGradient1713"
       gradientUnits="userSpaceOnUse"
       gradientTransform="matrix(0.970788,0.000000,0.000000,0.883349,24.61382,6.790338)"
       cx="17.741598"
       cy="31.723280"
       fx="17.741598"
       fy="31.723280"
       r="9.2936869" />
    <linearGradient
       inkscape:collect="always"
       xlink:href="#garylighttowite"
       id="linearGradient1711"
       gradientUnits="userSpaceOnUse"
       gradientTransform="matrix(1.544634,0.000000,0.000000,0.884541,14.02922,7.355745)"
       x1="14.699177"
       y1="30.518322"
       x2="-0.95806932"
       y2="6.8631005" />
    <linearGradient
       inkscape:collect="always"
       xlink:href="#bluelightlesstoblue"
       id="linearGradient1709"
       gradientUnits="userSpaceOnUse"
       gradientTransform="matrix(1.825601,0.000000,0.000000,1.045399,-23.25852,36.18725)"
       x1="24.260241"
       y1="-11.936115"
       x2="37.231518"
       y2="3.0705032" />
    <linearGradient
       inkscape:collect="always"
       xlink:href="#garylighttowite"
       id="linearGradient1707"
       gradientUnits="userSpaceOnUse"
       gradientTransform="matrix(1.734590,0.000000,0.000000,0.834118,41.41153,5.714414)"
       x1="14.699177"
       y1="30.518322"
       x2="-0.95806932"
       y2="6.8631005" />
    <linearGradient
       inkscape:collect="always"
       xlink:href="#bluelightlesstoblue"
       id="linearGradient1705"
       gradientUnits="userSpaceOnUse"
       gradientTransform="matrix(2.050104,0.000000,0.000000,0.985807,-0.461743,32.90243)"
       x1="24.260241"
       y1="-11.936115"
       x2="37.231518"
       y2="3.0705032" />
    <linearGradient
       id="light75to0">
      <stop
         id="stop2769"
         offset="0.0000000"
         style="stop-color:#ffffff;stop-opacity:0.72916669;" />
      <stop
         id="stop2770"
         offset="1.0000000"
         style="stop-color:#ffffff;stop-opacity:0.0000000;" />
    </linearGradient>
    <linearGradient
       inkscape:collect="always"
       xlink:href="#light75to0"
       id="linearGradient1703"
       gradientUnits="userSpaceOnUse"
       gradientTransform="matrix(1.237240,0.000000,0.000000,0.841525,-1.177435,4.038894)"
       x1="5.6831765"
       y1="21.673885"
       x2="14.964557"
       y2="41.796101" />
    <linearGradient
       id="garylighttowite">
      <stop
         style="stop-color:#7d7d7d;stop-opacity:1.0000000;"
         offset="0.0000000"
         id="stop5106" />
      <stop
         style="stop-color:#d3d4d4;stop-opacity:1.0000000;"
         offset="1.0000000"
         id="stop5107" />
    </linearGradient>
    <linearGradient
       inkscape:collect="always"
       xlink:href="#garylighttowite"
       id="linearGradient1701"
       gradientUnits="userSpaceOnUse"
       gradientTransform="matrix(1.124151,0.000000,0.000000,0.833795,-0.775703,5.915553)"
       x1="14.699177"
       y1="30.518322"
       x2="-0.95806932"
       y2="6.8631005" />
    <radialGradient
       gradientUnits="userSpaceOnUse"
       id="bluelightlesstoblue"
       fy="112.96090"
       fx="38.797401"
       r="67.358803"
       cy="112.96090"
       cx="38.797401">
      <stop
         id="stop3468"
         offset="0.0055999998"
         style="stop-color:#d9ffff;stop-opacity:1.0000000;" />
      <stop
         id="stop3469"
         offset="0.24089479"
         style="stop-color:#6eaafe;stop-opacity:1.0000000;" />
      <stop
         id="stop3470"
         offset="1.0000000"
         style="stop-color:#0356fe;stop-opacity:1.0000000;" />
    </radialGradient>
    <linearGradient
       inkscape:collect="always"
       xlink:href="#bluelightlesstoblue"
       id="linearGradient1699"
       gradientUnits="userSpaceOnUse"
       gradientTransform="matrix(1.644541,0.000000,0.000000,1.219732,0.232136,33.09053)"
       x1="2.4107552"
       y1="-9.3231096"
       x2="30.756163"
       y2="17.801140" />
    <linearGradient
       inkscape:collect="always"
       xlink:href="#blacktowhite"
       id="linearGradient1697"
       gradientUnits="userSpaceOnUse"
       gradientTransform="matrix(1.110537,0.000000,0.000000,0.900466,9.075085,1.360711)"
       x1="55.349602"
       y1="93.603699"
       x2="-12.340737"
       y2="-5.2496204" />
    <linearGradient
       id="blacktowhite">
      <stop
         id="stop2476"
         offset="0.0000000"
         style="stop-color:#000000;stop-opacity:1.0000000;" />
      <stop
         id="stop2475"
         offset="1.0000000"
         style="stop-color:#ffffff;stop-opacity:1.0000000;" />
    </linearGradient>
    <linearGradient
       inkscape:collect="always"
       xlink:href="#blacktowhite"
       id="linearGradient1695"
       gradientUnits="userSpaceOnUse"
       gradientTransform="matrix(1.110537,0.000000,0.000000,0.900466,9.075085,1.360711)"
       x1="42.188053"
       y1="79.266365"
       x2="-16.667776"
       y2="11.102478" />
    <linearGradient
       id="graytolightgray">
      <stop
         id="stop5101"
         offset="0.0000000"
         style="stop-color:#d4d3d3;stop-opacity:1.0000000;" />
      <stop
         id="stop5102"
         offset="1.0000000"
         style="stop-color:#ffffff;stop-opacity:1.0000000;" />
    </linearGradient>
    <linearGradient
       inkscape:collect="always"
       xlink:href="#graytolightgray"
       id="linearGradient1693"
       gradientUnits="userSpaceOnUse"
       gradientTransform="matrix(1.229803,0.000000,0.000000,0.886135,-1.143705,5.214637)"
       x1="57.458168"
       y1="83.336693"
       x2="10.556294"
       y2="31.206570" />
  </defs>
  <sodipodi:namedview
     inkscape:window-y="391"
     inkscape:window-x="0"
     inkscape:window-height="536"
     inkscape:window-width="640"
     inkscape:grid-bbox="true"
     inkscape:document-units="px"
     showgrid="true"
     inkscape:current-layer="layer1"
     inkscape:cy="32.000000"
     inkscape:cx="32.000000"
     inkscape:zoom="5.5000000"
     inkscape:pageshadow="2"
     inkscape:pageopacity="0.0"
     borderopacity="1.0"
     bordercolor="#666666"
     pagecolor="#ffffff"
     id="base" />
  <metadata
     id="metadata4">
    <rdf:RDF
       id="RDF5">
      <cc:Work
         id="Work6"
         rdf:about="">
        <dc:format
           id="format7">image/svg+xml</dc:format>
        <dc:type
           rdf:resource="http://purl.org/dc/dcmitype/StillImage"
           id="type9" />
      </cc:Work>
    </rdf:RDF>
  </metadata>
  <g
     inkscape:groupmode="layer"
     inkscape:label="Layer 1"
     id="layer1">
    <g
       id="g1643"
       transform="translate(12.38035,6.355575)">
      <g
         id="g1507"
         transform="matrix(0.795458,0.000000,0.000000,0.737908,-12.53197,-22.41359)">
        <path
           id="rect10003"
           d="M 3.1158703,23.165564 L 77.307022,23.165564 C 78.448102,23.165564 79.366717,23.950342 79.366717,24.925167 L 79.366717,77.341710 C 79.366717,78.316537 78.448102,79.101313 77.307022,79.101313 L 3.1158703,79.101313 C 1.9748002,79.101313 1.0561806,78.316537 1.0561806,77.341710 L 1.0561806,24.925167 C 1.0561806,23.950342 1.9748002,23.165564 3.1158703,23.165564 z "
           style="fill:url(#linearGradient1693);fill-opacity:1.0000000;stroke:#000000;stroke-width:1.7973737;stroke-linecap:round;stroke-linejoin:round;stroke-miterlimit:4.0000000;stroke-dashoffset:0.0000000;stroke-opacity:0.53688526" />
        <path
           sodipodi:nodetypes="cccccccccc"
           id="path6216"
           d="M 78.028997,36.920670 L 2.2957554,37.350941 L 1.9347263,51.090951 L 78.028997,50.703210 L 78.028997,36.920670 z M 78.028997,64.145445 L 2.2957554,64.575730 L 1.9347263,78.315724 L 78.028997,77.927985 L 78.028997,64.145445 z "
           style="fill:none;fill-opacity:1.0000000;fill-rule:evenodd;stroke:url(#linearGradient1695);stroke-width:1.4801514;stroke-linecap:butt;stroke-linejoin:round;stroke-miterlimit:4.0000000;stroke-opacity:1.0000000" />
        <path
           sodipodi:nodetypes="cccccccc"
           id="path6220"
           d="M 20.495668,36.363405 L 20.893095,78.109760 L 44.209042,78.156552 L 44.054301,35.621946 L 20.495668,36.363405 z M 77.900549,36.635324 L 78.003701,77.666063 L 77.900549,36.635324 z "
           style="fill:none;fill-opacity:1.0000000;fill-rule:evenodd;stroke:url(#linearGradient1697);stroke-width:1.6300399;stroke-linecap:butt;stroke-linejoin:round;stroke-miterlimit:4.0000000;stroke-opacity:1.0000000" />
        <path
           id="rect1090"
           d="M 3.9569859,24.363917 L 19.424266,24.363917 C 20.044991,24.363917 20.544699,25.277194 20.544699,26.411603 L 20.544699,34.058715 C 20.544699,35.193140 20.044991,36.106402 19.424266,36.106402 L 3.9569859,36.106402 C 3.3362613,36.106402 2.8365543,35.193140 2.8365543,34.058715 L 2.8365543,26.411603 C 2.8365543,25.277194 3.3362613,24.363917 3.9569859,24.363917 z "
           style="fill:url(#linearGradient1699);fill-opacity:1.0000000;stroke:url(#linearGradient1701);stroke-width:1.9089957;stroke-linecap:round;stroke-linejoin:round;stroke-miterlimit:4.0000000;stroke-dashoffset:0.0000000;stroke-opacity:1.0000000" />
        <path
           id="path3587"
           d="M 3.1150968,31.194715 C 3.1170576,30.376651 3.1190338,29.558587 3.1210102,28.740539 C 3.1229708,27.922474 3.1249472,27.104409 3.1269236,26.286346 C 3.1165200,25.397120 3.2817607,24.855129 3.7413237,24.800433 C 5.2652364,24.792140 6.7891651,24.783860 8.3130772,24.775582 C 9.8370067,24.767303 11.360919,24.759025 12.884833,24.750729 C 12.816955,27.384399 6.2979012,26.843021 5.3884359,26.997938 C 3.7202477,27.282090 4.9601155,30.232133 3.1150968,31.194715 z "
           style="fill:url(#linearGradient1703);fill-opacity:1.0000000;fill-rule:evenodd;stroke:none;stroke-width:0.012500000;stroke-linecap:butt;stroke-linejoin:miter;stroke-miterlimit:4.0000000;stroke-opacity:1.0000000" />
        <path
           id="rect6086"
           d="M 46.392571,24.159267 L 75.536563,24.159267 C 76.706150,24.159267 77.647717,25.072884 77.647717,26.207752 L 77.647717,33.857828 C 77.647717,34.992695 76.706150,35.906314 75.536563,35.906314 L 46.392571,35.906314 C 45.222984,35.906314 44.281391,34.992695 44.281391,33.857828 L 44.281391,26.207752 C 44.281391,25.072884 45.222984,24.159267 46.392571,24.159267 z "
           style="fill:url(#linearGradient1705);fill-opacity:1.0000000;stroke:url(#linearGradient1707);stroke-width:2.0799649;stroke-linecap:round;stroke-linejoin:round;stroke-miterlimit:4.0000000;stroke-dashoffset:0.0000000;stroke-opacity:1.0000000" />
        <path
           id="path2471"
           d="M 22.341118,24.098406 L 42.348602,24.098406 C 43.151529,24.098406 43.797917,25.021491 43.797917,26.168117 L 43.797917,33.897463 C 43.797917,35.044089 43.151529,35.967174 42.348602,35.967174 L 22.341118,35.967174 C 21.538192,35.967174 20.891784,35.044089 20.891784,33.897463 L 20.891784,26.168117 C 20.891784,25.021491 21.538192,24.098406 22.341118,24.098406 z "
           style="fill:url(#linearGradient1709);fill-opacity:1.0000000;stroke:url(#linearGradient1711);stroke-width:1.7322725;stroke-linecap:round;stroke-linejoin:round;stroke-miterlimit:4.0000000;stroke-dashoffset:0.0000000;stroke-opacity:1.0000000" />
        <path
           id="path2476"
           d="M 29.828145,23.528674 L 42.445513,23.528674 C 42.951872,23.528674 43.359496,24.454245 43.359496,25.603923 L 43.359496,33.353962 C 43.359496,34.503651 42.951872,35.429206 42.445513,35.429206 L 29.828145,35.429206 C 29.321791,35.429206 28.914158,34.503651 28.914158,33.353962 L 28.914158,25.603923 C 28.914158,24.454245 29.321791,23.528674 29.828145,23.528674 z "
           style="fill:url(#radialGradient1713);fill-opacity:1.0000000;stroke:none;stroke-width:1.4875000;stroke-linecap:round;stroke-linejoin:round;stroke-miterlimit:4.0000000;stroke-dashoffset:0.0000000;stroke-opacity:1.0000000" />
        <path
           id="path6087"
           d="M 44.847711,31.373064 C 44.851531,30.555050 44.855336,29.737032 44.859148,28.919017 C 44.862967,28.100999 44.866778,27.282983 44.870615,26.464966 C 44.850485,25.575793 45.170194,25.033832 46.059332,24.979142 C 49.007790,24.970864 51.956217,24.962586 54.904668,24.954290 C 57.853118,24.946014 60.801549,24.937733 63.750000,24.929456 C 63.618684,27.562957 51.005756,27.021625 49.246107,27.176532 C 46.018544,27.460653 48.417408,30.410524 44.847711,31.373064 z "
           style="fill:url(#linearGradient1715);fill-opacity:1.0000000;fill-rule:evenodd;stroke:none;stroke-width:0.012500000;stroke-linecap:butt;stroke-linejoin:miter;stroke-miterlimit:4.0000000;stroke-opacity:1.0000000" />
        <path
           id="path2472"
           d="M 21.280566,31.386950 C 21.283186,30.560461 21.285798,29.733968 21.288419,28.907476 C 21.291039,28.080979 21.293654,27.254492 21.296286,26.427995 C 21.282470,25.529609 21.501951,24.982029 22.112348,24.926776 C 24.136479,24.918411 26.160588,24.910051 28.184709,24.901668 C 30.208834,24.893307 32.232944,24.884938 34.257072,24.876575 C 34.166924,27.537364 25.508091,26.990426 24.300084,27.146934 C 22.084349,27.434003 23.731180,30.414440 21.280566,31.386950 z "
           style="fill:url(#linearGradient1717);fill-opacity:1.0000000;fill-rule:evenodd;stroke:none;stroke-width:0.012500000;stroke-linecap:butt;stroke-linejoin:miter;stroke-miterlimit:4.0000000;stroke-opacity:1.0000000" />
        <path
           id="path2478"
           d="M 63.573773,23.528674 L 76.191141,23.528674 C 76.697500,23.528674 77.105124,24.454245 77.105124,25.603923 L 77.105124,33.353962 C 77.105124,34.503651 76.697500,35.429206 76.191141,35.429206 L 63.573773,35.429206 C 63.067419,35.429206 62.659786,34.503651 62.659786,33.353962 L 62.659786,25.603923 C 62.659786,24.454245 63.067419,23.528674 63.573773,23.528674 z "
           style="fill:url(#radialGradient1719);fill-opacity:1.0000000;stroke:none;stroke-width:1.4875000;stroke-linecap:round;stroke-linejoin:round;stroke-miterlimit:4.0000000;stroke-dashoffset:0.0000000;stroke-opacity:1.0000000" />
        <path
           id="rect1799"
           d="M 17.002178,34.316421 L 77.411421,34.316421 C 78.340524,34.316421 79.088512,34.947328 79.088512,35.730997 L 79.088512,77.869596 C 79.088512,78.653274 78.340524,79.284172 77.411421,79.284172 L 17.002178,79.284172 C 16.073073,79.284172 15.325085,78.653274 15.325085,77.869596 L 15.325085,35.730997 C 15.325085,34.947328 16.073073,34.316421 17.002178,34.316421 z "
           style="fill:url(#radialGradient1721);fill-opacity:1.0000000;stroke:none;stroke-width:1.6250000;stroke-linecap:round;stroke-linejoin:round;stroke-miterlimit:4.0000000;stroke-dashoffset:0.0000000;stroke-opacity:0.31249997" />
        <path
           id="path6112"
           d="M 3.5470508,37.948024 L 19.191799,37.948024 C 19.819646,37.948024 20.325085,38.869078 20.325085,40.013183 L 20.325085,47.725533 C 20.325085,48.869639 19.819646,49.790694 19.191799,49.790694 L 3.5470508,49.790694 C 2.9192043,49.790694 2.4137641,48.869639 2.4137641,47.725533 L 2.4137641,40.013183 C 2.4137641,38.869078 2.9192043,37.948024 3.5470508,37.948024 z "
           style="fill:url(#linearGradient1723);fill-opacity:1.0000000;stroke:url(#linearGradient1725);stroke-width:1.9280890;stroke-linecap:round;stroke-linejoin:round;stroke-miterlimit:4.0000000;stroke-dashoffset:0.0000000;stroke-opacity:1.0000000" />
        <path
           id="path6113"
           d="M 2.6955029,44.837111 C 2.6975013,44.012065 2.6994686,43.187021 2.7014681,42.361976 C 2.7034666,41.536930 2.7054661,40.711887 2.7074656,39.886841 C 2.6969426,38.990030 2.8640947,38.443413 3.3288978,38.388251 C 4.8703265,38.379902 6.4117229,38.371551 7.9531183,38.363187 C 9.4945148,38.354837 11.035927,38.346489 12.577323,38.338139 C 12.508667,40.994265 5.9148224,40.448283 4.9949075,40.604522 C 3.3075962,40.891081 4.5616733,43.866298 2.6955029,44.837111 z "
           style="fill:url(#linearGradient1727);fill-opacity:1.0000000;fill-rule:evenodd;stroke:none;stroke-width:0.012500000;stroke-linecap:butt;stroke-linejoin:miter;stroke-miterlimit:4.0000000;stroke-opacity:1.0000000" />
        <path
           id="path6114"
           d="M 4.0868748,38.122323 L 19.731623,38.122323 C 20.359470,38.122323 20.864908,39.043380 20.864908,40.187483 L 20.864908,47.899833 C 20.864908,49.043939 20.359470,49.964993 19.731623,49.964993 L 4.0868748,49.964993 C 3.4590283,49.964993 2.9535881,49.043939 2.9535881,47.899833 L 2.9535881,40.187483 C 2.9535881,39.043380 3.4590283,38.122323 4.0868748,38.122323 z "
           style="fill:url(#radialGradient1729);fill-opacity:1.0000000;stroke:none;stroke-width:1.4875000;stroke-linecap:round;stroke-linejoin:round;stroke-miterlimit:4.0000000;stroke-dashoffset:0.0000000;stroke-opacity:1.0000000" />
        <path
           id="path6119"
           d="M 3.5470508,51.811628 L 19.191799,51.811628 C 19.819646,51.811628 20.325085,52.732700 20.325085,53.876788 L 20.325085,61.589153 C 20.325085,62.733259 19.819646,63.654313 19.191799,63.654313 L 3.5470508,63.654313 C 2.9192043,63.654313 2.4137641,62.733259 2.4137641,61.589153 L 2.4137641,53.876788 C 2.4137641,52.732700 2.9192043,51.811628 3.5470508,51.811628 z "
           style="fill:url(#linearGradient1731);fill-opacity:1.0000000;stroke:url(#linearGradient1733);stroke-width:1.9280890;stroke-linecap:round;stroke-linejoin:round;stroke-miterlimit:4.0000000;stroke-dashoffset:0.0000000;stroke-opacity:1.0000000" />
        <path
           id="path6120"
           d="M 2.6955029,58.700715 C 2.6975013,57.875670 2.6994686,57.050623 2.7014681,56.225596 C 2.7034666,55.400551 2.7054661,54.575506 2.7074656,53.750461 C 2.6969426,52.853649 2.8640947,52.307031 3.3288978,52.251870 C 4.8703265,52.243505 6.4117229,52.235156 7.9531183,52.226808 C 9.4945148,52.218456 11.035927,52.210092 12.577323,52.201744 C 12.508667,54.857869 5.9148224,54.311888 4.9949075,54.468126 C 3.3075962,54.754685 4.5616733,57.729903 2.6955029,58.700715 z "
           style="fill:url(#linearGradient1735);fill-opacity:1.0000000;fill-rule:evenodd;stroke:none;stroke-width:0.012500000;stroke-linecap:butt;stroke-linejoin:miter;stroke-miterlimit:4.0000000;stroke-opacity:1.0000000" />
        <path
           id="path6121"
           d="M 3.5470508,51.637329 L 19.191799,51.637329 C 19.819646,51.637329 20.325085,52.558398 20.325085,53.702487 L 20.325085,61.414853 C 20.325085,62.558957 19.819646,63.480013 19.191799,63.480013 L 3.5470508,63.480013 C 2.9192043,63.480013 2.4137641,62.558957 2.4137641,61.414853 L 2.4137641,53.702487 C 2.4137641,52.558398 2.9192043,51.637329 3.5470508,51.637329 z "
           style="fill:url(#radialGradient1737);fill-opacity:1.0000000;stroke:none;stroke-width:1.4875000;stroke-linecap:round;stroke-linejoin:round;stroke-miterlimit:4.0000000;stroke-dashoffset:0.0000000;stroke-opacity:1.0000000" />
        <path
           id="path13328"
           d="M 3.2107902,65.473446 L 18.866926,65.473446 C 19.495228,65.473446 20.001037,66.406914 20.001037,67.566402 L 20.001037,75.382572 C 20.001037,76.542072 19.495228,77.475525 18.866926,77.475525 L 3.2107902,77.475525 C 2.5824870,77.475525 2.0766794,76.542072 2.0766794,75.382572 L 2.0766794,67.566402 C 2.0766794,66.406914 2.5824870,65.473446 3.2107902,65.473446 z "
           style="fill:url(#linearGradient1739);fill-opacity:1.0000000;stroke:url(#linearGradient1741);stroke-width:1.9417276;stroke-linecap:round;stroke-linejoin:round;stroke-miterlimit:4.0000000;stroke-dashoffset:0.0000000;stroke-opacity:1.0000000" />
        <path
           id="path13329"
           d="M 2.3586223,72.455254 C 2.3606229,71.619104 2.3625913,70.782958 2.3645919,69.946824 C 2.3665924,69.110674 2.3685930,68.274526 2.3705936,67.438373 C 2.3600631,66.529489 2.5273377,65.975515 2.9924792,65.919612 C 4.5350285,65.911132 6.0775467,65.902674 7.6200649,65.894214 C 9.1625830,65.885750 10.705117,65.877270 12.247635,65.868810 C 12.178930,68.560689 5.5802851,68.007354 4.6597009,68.165697 C 2.9711615,68.456113 4.2261508,71.471375 2.3586223,72.455254 z "
           style="fill:url(#linearGradient1743);fill-opacity:1.0000000;fill-rule:evenodd;stroke:none;stroke-width:0.012500000;stroke-linecap:butt;stroke-linejoin:miter;stroke-miterlimit:4.0000000;stroke-opacity:1.0000000" />
        <path
           id="path13330"
           d="M 2.9967404,65.110711 L 18.652878,65.110711 C 19.281179,65.110711 19.786988,66.044180 19.786988,67.203668 L 19.786988,75.019838 C 19.786988,76.179337 19.281179,77.112790 18.652878,77.112790 L 2.9967404,77.112790 C 2.3684383,77.112790 1.8626297,76.179337 1.8626297,75.019838 L 1.8626297,67.203668 C 1.8626297,66.044180 2.3684383,65.110711 2.9967404,65.110711 z "
           style="fill:url(#radialGradient1745);fill-opacity:1.0000000;stroke:none;stroke-width:1.4875000;stroke-linecap:round;stroke-linejoin:round;stroke-miterlimit:4.0000000;stroke-dashoffset:0.0000000;stroke-opacity:1.0000000" />
        <path
           sodipodi:nodetypes="cccccc"
           id="path21648"
           d="M 1.4207412,63.740643 C 14.143729,65.354589 3.6048550,47.273195 13.518354,38.946270 C 26.070671,27.965945 55.496922,36.561840 54.532819,23.284242 C 37.382036,23.110521 20.402036,23.367186 3.2512803,23.193453 C 1.5879576,23.080255 1.4990168,23.360457 1.5808507,25.711898 C 1.5274811,38.388142 1.4741107,51.064388 1.4207412,63.740643 z "
           style="fill:url(#radialGradient1747);fill-opacity:1.0000000;fill-rule:evenodd;stroke:none;stroke-width:0.25000000pt;stroke-linecap:butt;stroke-linejoin:miter;stroke-opacity:1.0000000" />
      </g>
      <g
         transform="matrix(0.582760,0.000000,0.000000,0.634717,-2.972629,10.15962)"
         id="g21649">
        <path
           transform="matrix(0.551307,0.000000,0.000000,0.559005,-102.8460,-121.9196)"
           sodipodi:nodetypes="cccccccccccccc"
           id="path19591"
           d="M 260.29533,227.71408 C 240.02933,227.84036 218.31699,231.30576 203.33575,241.72453 C 196.63509,246.43147 193.44553,254.01296 193.59140,258.94297 C 194.03575,261.03349 192.71241,322.29849 194.87355,328.89701 C 197.29982,333.60352 202.21157,337.14302 207.88738,339.99406 L 207.88738,340.28868 C 208.81887,340.69882 209.74460,340.95480 210.67607,341.33619 C 213.74446,342.68490 216.90192,343.92164 220.09988,344.90428 C 242.54067,351.12382 267.90194,351.76200 291.03491,347.16298 C 304.23999,344.13194 318.94708,339.56539 324.88370,329.84632 C 328.14657,324.39893 326.28202,269.18073 326.74281,264.47513 C 326.49236,251.14450 325.37770,249.16768 321.35778,245.35807 C 310.30063,234.28845 290.72402,229.82431 272.70013,228.20510 C 268.57811,227.86953 264.44340,227.71417 260.29533,227.71408 z "
           style="fill:#818080;fill-opacity:0.14999999;stroke:none;stroke-width:3.7750001;stroke-linecap:butt;stroke-linejoin:round;stroke-miterlimit:4.0000000;stroke-dashoffset:0.0000000;stroke-opacity:1.0000000" />
        <path
           transform="matrix(0.551307,0.000000,0.000000,0.559005,-102.8460,-121.9196)"
           sodipodi:nodetypes="cccccccccccccc"
           id="path18878"
           d="M 260.51765,226.38708 C 239.91535,226.51655 217.84271,230.06959 202.61287,240.75181 C 195.80101,245.57778 192.55853,253.35097 192.70682,258.40565 C 193.15854,260.54903 191.81324,323.36321 194.01024,330.12858 C 196.47677,334.95411 201.47004,338.58311 207.24003,341.50624 L 207.24003,341.80831 C 208.18697,342.22882 209.12807,342.49128 210.07499,342.88231 C 213.19430,344.26512 216.40416,345.53314 219.65519,346.54063 C 242.46837,352.91743 268.25049,353.57175 291.76734,348.85643 C 305.19156,345.74876 320.14270,341.06673 326.17783,331.10190 C 329.49485,325.51676 327.59936,268.90228 328.06780,264.07770 C 327.81318,250.40998 326.68003,248.38317 322.59340,244.47723 C 311.35277,233.12770 291.45129,228.55067 273.12830,226.89053 C 268.93788,226.54647 264.73457,226.38718 260.51765,226.38708 z "
           style="fill:#818783;fill-opacity:0.14999999;stroke:none;stroke-width:3.7750001;stroke-linecap:butt;stroke-linejoin:round;stroke-miterlimit:4.0000000;stroke-dashoffset:0.0000000;stroke-opacity:1.0000000" />
        <g
           transform="matrix(0.551307,0.000000,0.000000,0.559005,-102.8460,-121.9196)"
           id="g15100">
          <path
             sodipodi:nodetypes="ccccccccccc"
             id="path15089"
             d="M 260.89731,275.58006 C 241.13951,275.70061 219.98621,279.00195 205.38065,288.94817 C 198.84802,293.44162 195.74351,300.68155 195.88573,305.38797 C 196.37338,307.63451 195.03218,319.90232 197.13913,326.20157 C 201.11293,333.74969 211.62472,338.43742 221.72805,341.47725 C 243.60613,347.41471 268.32266,348.03439 290.87554,343.64394 C 303.74951,340.75039 318.09671,336.38088 323.88446,327.10262 C 327.06553,321.90229 325.14301,316.14062 325.69067,310.66416 C 325.44649,297.93814 324.34757,296.07382 320.42845,292.43700 C 309.64859,281.86942 290.57648,277.60212 273.00457,276.05634 C 268.98591,275.73600 264.94138,275.58015 260.89731,275.58006 z "
             style="fill:#818783;fill-opacity:1.0000000;stroke:none;stroke-width:3.7750001;stroke-linecap:butt;stroke-linejoin:round;stroke-miterlimit:4.0000000;stroke-dashoffset:0.0000000;stroke-opacity:1.0000000" />
          <path
             sodipodi:nodetypes="ccccccccccc"
             id="path15090"
             d="M 322.86327,303.43886 C 322.66933,312.00786 311.36739,318.32370 300.23827,321.73582 C 277.28351,328.67288 249.92978,328.99479 226.26952,323.31731 C 215.00934,320.51890 203.72644,315.66037 199.48827,308.02958 C 198.92193,306.04909 198.05468,304.99043 198.42577,307.74403 C 198.30523,310.28607 198.10433,312.97324 198.42577,315.58558 C 198.15301,320.58951 198.12151,325.89881 203.42577,329.88488 C 213.69549,338.59716 230.88868,342.29722 247.08202,343.74488 C 268.91582,345.52090 292.67031,343.34350 310.61327,334.62935 C 318.30952,330.78506 323.73700,324.66963 322.70702,318.24336 C 322.79120,315.18170 322.75484,305.93593 322.86327,303.43886 z "
             style="fill:url(#linearGradient1749);fill-opacity:1.0000000;stroke:none;stroke-width:3.7750001;stroke-linecap:butt;stroke-linejoin:round;stroke-miterlimit:4.0000000;stroke-dashoffset:0.0000000;stroke-opacity:1.0000000" />
          <path
             sodipodi:nodetypes="cccccccccc"
             id="path15091"
             d="M 261.14326,279.73105 C 230.02641,279.73105 204.76801,289.65228 204.76801,301.88137 C 204.76801,314.11047 230.02641,324.03169 261.14326,324.03169 C 292.26012,324.03169 317.51852,314.11047 317.51852,301.88137 C 317.51852,289.65228 292.26012,279.73105 261.14326,279.73105 z M 261.39592,285.53916 C 290.46859,285.53916 314.07600,293.53629 314.07600,303.38309 C 314.07600,313.22989 290.46860,321.22702 261.39592,321.22702 C 232.32324,321.22702 208.71585,313.22989 208.71585,303.38309 C 208.71585,293.53628 232.32325,285.53916 261.39592,285.53916 z "
             style="fill:url(#linearGradient1751);fill-opacity:1.0000000;stroke:none;stroke-width:3.7724271;stroke-linecap:butt;stroke-linejoin:round;stroke-miterlimit:4.0000000;stroke-dashoffset:0.0000000;stroke-opacity:1.0000000" />
          <path
             transform="matrix(1.005132,0.000000,0.000000,0.757545,226.8913,264.6372)"
             d="M 85.497787 50.922665 A 52.112938 25.242205 0 1 1  -18.728088,50.922665 A 52.112938 25.242205 0 1 1  85.497787 50.922665 z"
             sodipodi:ry="25.242205"
             sodipodi:rx="52.112938"
             sodipodi:cy="50.922665"
             sodipodi:cx="33.384850"
             id="path15092"
             style="fill:url(#linearGradient1753);fill-opacity:1.0000000;stroke:none;stroke-width:3.7724271;stroke-linecap:butt;stroke-linejoin:round;stroke-miterlimit:4.0000000;stroke-dashoffset:0.0000000;stroke-opacity:1.0000000"
             sodipodi:type="arc" />
          <path
             id="path15093"
             d="M 260.59237,276.50373 C 226.70391,276.50373 199.20848,287.90251 199.20848,301.96132 C 199.20848,316.02011 226.70391,327.44087 260.59237,327.44087 C 294.48082,327.44087 321.97626,316.02011 321.97626,301.96132 C 321.97626,287.90252 294.48083,276.50373 260.59237,276.50373 z M 260.74840,279.86439 C 291.49489,279.86439 316.45265,289.73219 316.45265,301.89542 C 316.45265,314.05866 291.49489,323.92645 260.74840,323.92645 C 230.00192,323.92645 205.04416,314.05866 205.04416,301.89542 C 205.04416,289.73219 230.00192,279.86439 260.74840,279.86439 z "
             style="fill:url(#linearGradient1755);fill-opacity:1.0000000;stroke:none;stroke-width:3.7724271;stroke-linecap:butt;stroke-linejoin:round;stroke-miterlimit:4.0000000;stroke-dashoffset:0.0000000;stroke-opacity:1.0000000" />
          <path
             sodipodi:nodetypes="ccccccccc"
             id="path15094"
             d="M 322.82693,302.26246 C 322.33964,310.10980 311.62440,317.35349 300.49528,320.76561 C 277.54052,327.70267 249.89344,327.81839 226.23318,322.14091 C 214.97300,319.34250 203.15196,316.39168 198.38943,302.23761 C 198.34182,303.96329 198.26927,304.50510 198.24276,305.02541 C 201.96114,318.54480 216.37022,321.55129 227.63040,324.34970 C 251.29066,330.02718 278.79107,329.29289 301.74583,322.35583 C 312.76575,318.97719 322.06426,311.20585 322.76443,305.34217 C 322.77669,303.59414 322.79154,303.07754 322.82693,302.26246 z "
             style="fill:url(#linearGradient1757);fill-opacity:1.0000000;stroke:none;stroke-width:3.7750001;stroke-linecap:butt;stroke-linejoin:round;stroke-miterlimit:4.0000000;stroke-dashoffset:0.0000000;stroke-opacity:1.0000000" />
        </g>
        <g
           transform="matrix(0.551307,0.000000,0.000000,0.559005,-102.8460,-134.7683)"
           id="g15107">
          <path
             sodipodi:nodetypes="ccccccccccc"
             id="path15108"
             d="M 260.89731,275.58006 C 241.13951,275.70061 219.98621,279.00195 205.38065,288.94817 C 198.84802,293.44162 195.74351,300.68155 195.88573,305.38797 C 196.37338,307.63451 195.03218,319.90232 197.13913,326.20157 C 201.11293,333.74969 211.62472,338.43742 221.72805,341.47725 C 243.60613,347.41471 268.32266,348.03439 290.87554,343.64394 C 303.74951,340.75039 318.09671,336.38088 323.88446,327.10262 C 327.06553,321.90229 325.14301,316.14062 325.69067,310.66416 C 325.44649,297.93814 324.34757,296.07382 320.42845,292.43700 C 309.64859,281.86942 290.57648,277.60212 273.00457,276.05634 C 268.98591,275.73600 264.94138,275.58015 260.89731,275.58006 z "
             style="fill:#818783;fill-opacity:1.0000000;stroke:none;stroke-width:3.7750001;stroke-linecap:butt;stroke-linejoin:round;stroke-miterlimit:4.0000000;stroke-dashoffset:0.0000000;stroke-opacity:1.0000000" />
          <path
             sodipodi:nodetypes="ccccccccccc"
             id="path15109"
             d="M 322.86327,303.43886 C 322.66933,312.00786 311.36739,318.32370 300.23827,321.73582 C 277.28351,328.67288 249.92978,328.99479 226.26952,323.31731 C 215.00934,320.51890 203.72644,315.66037 199.48827,308.02958 C 198.92193,306.04909 198.05468,304.99043 198.42577,307.74403 C 198.30523,310.28607 198.10433,312.97324 198.42577,315.58558 C 198.15301,320.58951 198.12151,325.89881 203.42577,329.88488 C 213.69549,338.59716 230.88868,342.29722 247.08202,343.74488 C 268.91582,345.52090 292.67031,343.34350 310.61327,334.62935 C 318.30952,330.78506 323.73700,324.66963 322.70702,318.24336 C 322.79120,315.18170 322.75484,305.93593 322.86327,303.43886 z "
             style="fill:url(#linearGradient1759);fill-opacity:1.0000000;stroke:none;stroke-width:3.7750001;stroke-linecap:butt;stroke-linejoin:round;stroke-miterlimit:4.0000000;stroke-dashoffset:0.0000000;stroke-opacity:1.0000000" />
          <path
             sodipodi:nodetypes="cccccccccc"
             id="path15110"
             d="M 261.14326,279.73105 C 230.02641,279.73105 204.76801,289.65228 204.76801,301.88137 C 204.76801,314.11047 230.02641,324.03169 261.14326,324.03169 C 292.26012,324.03169 317.51852,314.11047 317.51852,301.88137 C 317.51852,289.65228 292.26012,279.73105 261.14326,279.73105 z M 261.39592,285.53916 C 290.46859,285.53916 314.07600,293.53629 314.07600,303.38309 C 314.07600,313.22989 290.46860,321.22702 261.39592,321.22702 C 232.32324,321.22702 208.71585,313.22989 208.71585,303.38309 C 208.71585,293.53628 232.32325,285.53916 261.39592,285.53916 z "
             style="fill:url(#linearGradient1761);fill-opacity:1.0000000;stroke:none;stroke-width:3.7724271;stroke-linecap:butt;stroke-linejoin:round;stroke-miterlimit:4.0000000;stroke-dashoffset:0.0000000;stroke-opacity:1.0000000" />
          <path
             transform="matrix(1.005132,0.000000,0.000000,0.757545,226.8913,264.6372)"
             d="M 85.497787 50.922665 A 52.112938 25.242205 0 1 1  -18.728088,50.922665 A 52.112938 25.242205 0 1 1  85.497787 50.922665 z"
             sodipodi:ry="25.242205"
             sodipodi:rx="52.112938"
             sodipodi:cy="50.922665"
             sodipodi:cx="33.384850"
             id="path15111"
             style="fill:url(#linearGradient1763);fill-opacity:1.0000000;stroke:none;stroke-width:3.7724271;stroke-linecap:butt;stroke-linejoin:round;stroke-miterlimit:4.0000000;stroke-dashoffset:0.0000000;stroke-opacity:1.0000000"
             sodipodi:type="arc" />
          <path
             id="path15112"
             d="M 260.59237,276.50373 C 226.70391,276.50373 199.20848,287.90251 199.20848,301.96132 C 199.20848,316.02011 226.70391,327.44087 260.59237,327.44087 C 294.48082,327.44087 321.97626,316.02011 321.97626,301.96132 C 321.97626,287.90252 294.48083,276.50373 260.59237,276.50373 z M 260.74840,279.86439 C 291.49489,279.86439 316.45265,289.73219 316.45265,301.89542 C 316.45265,314.05866 291.49489,323.92645 260.74840,323.92645 C 230.00192,323.92645 205.04416,314.05866 205.04416,301.89542 C 205.04416,289.73219 230.00192,279.86439 260.74840,279.86439 z "
             style="fill:url(#linearGradient1765);fill-opacity:1.0000000;stroke:none;stroke-width:3.7724271;stroke-linecap:butt;stroke-linejoin:round;stroke-miterlimit:4.0000000;stroke-dashoffset:0.0000000;stroke-opacity:1.0000000" />
          <path
             sodipodi:nodetypes="ccccccccc"
             id="path15113"
             d="M 322.82693,302.26246 C 322.33964,310.10980 311.62440,317.35349 300.49528,320.76561 C 277.54052,327.70267 249.89344,327.81839 226.23318,322.14091 C 214.97300,319.34250 203.15196,316.39168 198.38943,302.23761 C 198.34182,303.96329 198.26927,304.50510 198.24276,305.02541 C 201.96114,318.54480 216.37022,321.55129 227.63040,324.34970 C 251.29066,330.02718 278.79107,329.29289 301.74583,322.35583 C 312.76575,318.97719 322.06426,311.20585 322.76443,305.34217 C 322.77669,303.59414 322.79154,303.07754 322.82693,302.26246 z "
             style="fill:url(#linearGradient1767);fill-opacity:1.0000000;stroke:none;stroke-width:3.7750001;stroke-linecap:butt;stroke-linejoin:round;stroke-miterlimit:4.0000000;stroke-dashoffset:0.0000000;stroke-opacity:1.0000000" />
        </g>
        <path
           transform="matrix(0.551307,0.000000,0.000000,0.559005,-102.8460,-147.6169)"
           sodipodi:nodetypes="ccccccccccc"
           id="path15120"
           d="M 260.89731,275.58006 C 241.13951,275.70061 219.98621,279.00195 205.38065,288.94817 C 198.84802,293.44162 195.74351,300.68155 195.88573,305.38797 C 196.37338,307.63451 195.03218,319.90232 197.13913,326.20157 C 201.11293,333.74969 211.62472,338.43742 221.72805,341.47725 C 243.60613,347.41471 268.32266,348.03439 290.87554,343.64394 C 303.74951,340.75039 318.09671,336.38088 323.88446,327.10262 C 327.06553,321.90229 325.14301,316.14062 325.69067,310.66416 C 325.44649,297.93814 324.34757,296.07382 320.42845,292.43700 C 309.64859,281.86942 290.57648,277.60212 273.00457,276.05634 C 268.98591,275.73600 264.94138,275.58015 260.89731,275.58006 z "
           style="fill:#818783;fill-opacity:1.0000000;stroke:none;stroke-width:3.7750001;stroke-linecap:butt;stroke-linejoin:round;stroke-miterlimit:4.0000000;stroke-dashoffset:0.0000000;stroke-opacity:1.0000000" />
        <path
           transform="matrix(0.551307,0.000000,0.000000,0.559005,-102.8460,-147.6169)"
           sodipodi:nodetypes="ccccccccccc"
           id="path15121"
           d="M 322.86327,303.43886 C 322.66933,312.00786 311.36739,318.32370 300.23827,321.73582 C 277.28351,328.67288 249.92978,328.99479 226.26952,323.31731 C 215.00934,320.51890 203.72644,315.66037 199.48827,308.02958 C 198.92193,306.04909 198.05468,304.99043 198.42577,307.74403 C 198.30523,310.28607 198.10433,312.97324 198.42577,315.58558 C 198.15301,320.58951 198.12151,325.89881 203.42577,329.88488 C 213.69549,338.59716 230.88868,342.29722 247.08202,343.74488 C 268.91582,345.52090 292.67031,343.34350 310.61327,334.62935 C 318.30952,330.78506 323.73700,324.66963 322.70702,318.24336 C 322.79120,315.18170 322.75484,305.93593 322.86327,303.43886 z "
           style="fill:url(#linearGradient1769);fill-opacity:1.0000000;stroke:none;stroke-width:3.7750001;stroke-linecap:butt;stroke-linejoin:round;stroke-miterlimit:4.0000000;stroke-dashoffset:0.0000000;stroke-opacity:1.0000000" />
        <path
           transform="matrix(0.551307,0.000000,0.000000,0.559005,-102.8460,-147.6169)"
           sodipodi:nodetypes="cccccccccc"
           id="path15122"
           d="M 261.14326,279.73105 C 230.02641,279.73105 204.76801,289.65228 204.76801,301.88137 C 204.76801,314.11047 230.02641,324.03169 261.14326,324.03169 C 292.26012,324.03169 317.51852,314.11047 317.51852,301.88137 C 317.51852,289.65228 292.26012,279.73105 261.14326,279.73105 z M 261.39592,285.53916 C 290.46859,285.53916 314.07600,293.53629 314.07600,303.38309 C 314.07600,313.22989 290.46860,321.22702 261.39592,321.22702 C 232.32324,321.22702 208.71585,313.22989 208.71585,303.38309 C 208.71585,293.53628 232.32325,285.53916 261.39592,285.53916 z "
           style="fill:url(#linearGradient1771);fill-opacity:1.0000000;stroke:none;stroke-width:3.7724271;stroke-linecap:butt;stroke-linejoin:round;stroke-miterlimit:4.0000000;stroke-dashoffset:0.0000000;stroke-opacity:1.0000000" />
        <path
           transform="matrix(0.554136,0.000000,0.000000,0.423471,22.24076,0.316626)"
           d="M 85.497787 50.922665 A 52.112938 25.242205 0 1 1  -18.728088,50.922665 A 52.112938 25.242205 0 1 1  85.497787 50.922665 z"
           sodipodi:ry="25.242205"
           sodipodi:rx="52.112938"
           sodipodi:cy="50.922665"
           sodipodi:cx="33.384850"
           id="path15123"
           style="fill:url(#linearGradient1773);fill-opacity:1.0000000;stroke:none;stroke-width:3.7724271;stroke-linecap:butt;stroke-linejoin:round;stroke-miterlimit:4.0000000;stroke-dashoffset:0.0000000;stroke-opacity:1.0000000"
           sodipodi:type="arc" />
        <path
           transform="matrix(0.551307,0.000000,0.000000,0.559005,-102.8460,-147.6169)"
           sodipodi:nodetypes="ccccccccc"
           id="path15125"
           d="M 322.82693,302.26246 C 322.33964,310.10980 311.62440,317.35349 300.49528,320.76561 C 277.54052,327.70267 249.89344,327.81839 226.23318,322.14091 C 222.51441,321.13452 203.15196,316.39168 198.38943,302.23761 C 198.34182,303.96329 198.26927,304.50510 198.24276,305.02541 C 201.96114,318.54480 220.92493,322.74597 227.63040,324.34970 C 251.29066,330.02718 278.79107,329.29289 301.74583,322.35583 C 312.76575,318.97719 322.06426,311.20585 322.76443,305.34217 C 322.77669,303.59414 322.79154,303.07754 322.82693,302.26246 z "
           style="fill:url(#linearGradient1775);fill-opacity:1.0000000;stroke:none;stroke-width:3.7750001;stroke-linecap:butt;stroke-linejoin:round;stroke-miterlimit:4.0000000;stroke-dashoffset:0.0000000;stroke-opacity:1.0000000" />
        <path
           transform="matrix(0.551307,0.000000,0.000000,0.559005,-102.8460,-121.9196)"
           id="path15124"
           d="M 260.59238,230.53399 C 226.70392,230.53399 199.20849,241.71280 199.20849,255.50031 C 199.20849,269.28780 226.70392,280.48817 260.59238,280.48817 C 294.48083,280.48817 321.97627,269.28780 321.97627,255.50031 C 321.97627,241.71281 294.48084,230.53399 260.59238,230.53399 z M 260.74841,233.82980 C 291.49490,233.82980 316.45266,243.50717 316.45266,255.43568 C 316.45266,267.36420 291.49490,277.04157 260.74841,277.04157 C 230.00193,277.04157 205.04417,267.36420 205.04417,255.43568 C 205.04417,243.50717 230.00193,233.82980 260.74841,233.82980 z "
           style="fill:url(#linearGradient1777);fill-opacity:1.0000000;stroke:none;stroke-width:3.7724271;stroke-linecap:butt;stroke-linejoin:round;stroke-miterlimit:4.0000000;stroke-dashoffset:0.0000000;stroke-opacity:1.0000000" />
        <path
           transform="matrix(0.551307,0.000000,0.000000,0.559005,-102.8460,-121.9196)"
           sodipodi:nodetypes="ccccc"
           id="path15131"
           d="M 210.36519,269.66987 C 214.22664,272.59874 227.28642,277.08126 232.93567,277.65629 L 232.02206,343.49000 C 224.61485,342.58770 217.20764,340.27531 209.80044,337.08162 L 210.36519,269.66987 z "
           style="fill:url(#linearGradient1779);fill-opacity:1.0000000;fill-rule:evenodd;stroke:none;stroke-width:0.25000000pt;stroke-linecap:butt;stroke-linejoin:miter;stroke-opacity:1.0000000" />
        <path
           sodipodi:nodetypes="ccccc"
           id="path21023"
           d="M 75.981664,21.212174 L 75.335011,59.953774 C 74.239336,62.522463 71.961666,64.415727 69.515139,65.126994 L 69.698383,29.561108 C 73.481375,26.834416 75.575802,24.783150 75.981664,21.212174 z "
           style="fill:url(#linearGradient1781);fill-opacity:1.0000000;fill-rule:evenodd;stroke:none;stroke-width:0.25000000pt;stroke-linecap:butt;stroke-linejoin:miter;stroke-opacity:1.0000000" />
      </g>
    </g>
    <g
       transform="translate(-9.217000,5.000000)"
       id="g3552">
      <path
         id="path145"
         style="fill:url(#linearGradient3562);fill-opacity:1.0000000"
         d="M 56.322054,48.386285 L 73.139371,11.208865 C 73.654997,9.9214066 71.554338,7.7873812 68.254479,6.2763080 C 64.961900,4.7644966 61.931506,4.5694729 61.359802,5.8276025 L 44.505272,43.232060 L 44.000433,58.142284 C 43.976386,58.852294 44.961117,59.281812 45.477524,58.786568 L 56.322054,48.386285 z " />
      <path
         id="path147"
         style="fill:#fff0dc"
         d="M 45.282902,43.747488 L 44.699554,58.365556 L 55.206518,48.253585 L 55.132964,48.220597 C 55.211618,48.165606 55.282993,48.105488 55.341253,48.037305 L 55.396601,48.062228 L 72.085257,11.097674 C 72.586318,9.9979127 70.753953,8.0806550 67.998850,6.8137228 C 65.240834,5.5467983 62.603712,5.4126234 62.104837,6.5116542 L 45.363744,43.452015 L 45.282902,43.747488 z " />
      <path
         id="path162"
         style="fill:url(#linearGradient3564);fill-opacity:1.0000000"
         d="M 62.207525,6.2887698 C 61.866688,7.1333888 62.843319,8.4318485 64.538767,9.5572719 L 47.735775,46.629601 C 46.236964,45.645680 45.360108,44.320098 45.337526,43.470343 L 62.199514,6.2843725 L 62.207525,6.2887698 z " />
      <path
         id="path177"
         style="fill:url(#linearGradient3566);fill-opacity:1.0000000"
         d="M 55.504386,47.916329 C 55.124951,48.755083 53.434601,48.837934 51.490804,48.318109 L 68.287251,11.261908 C 70.194629,11.781725 71.770304,11.690095 72.173774,10.892394 L 55.978502,46.853954 C 55.970488,46.884013 55.591786,47.721306 55.504386,47.916329 z " />
      <path
         id="path192"
         style="fill:url(#linearGradient3568);fill-opacity:1.0000000"
         d="M 49.450156,47.575399 C 48.823825,47.287991 48.251402,46.966135 47.735775,46.628871 L 64.538767,9.5572719 C 65.065317,9.9040603 65.653771,10.238394 66.298304,10.534597 C 66.979250,10.847667 67.653642,11.089609 68.287979,11.261170 L 51.491536,48.318109 C 50.840451,48.145818 50.147846,47.896533 49.450156,47.575399 z " />
      <path
         id="path6041"
         style="fill:#000000;fill-opacity:1.0000000;stroke:#000000;stroke-width:0.14385101;stroke-linecap:butt;stroke-linejoin:round;stroke-miterlimit:4.0000000;stroke-dashoffset:0.0000000;stroke-opacity:0.084374972"
         d="M 69.033715,9.6867019 C 68.678978,9.9957270 67.556324,9.7942141 66.526500,9.2366650 C 65.496676,8.6791156 64.949850,7.9767672 65.305278,7.6681160 C 65.660015,7.3590908 66.782669,7.5606038 67.812493,8.1181532 C 68.842316,8.6757023 69.389143,9.3780507 69.033715,9.6867019 L 69.033715,9.6867019 z " />
      <path
         id="path6042"
         style="fill:url(#linearGradient3570);fill-opacity:1.0000000;fill-rule:evenodd;stroke:none;stroke-width:0.094361210pt;stroke-linecap:butt;stroke-linejoin:miter;stroke-opacity:1.0000000"
         d="M 44.847036,52.810778 L 44.650306,58.410756 L 48.759805,54.518572 C 47.717855,54.928591 45.285074,54.161033 44.847036,52.810778 z " />
      <path
         id="path7289"
         style="fill:url(#linearGradient3572);fill-opacity:1.0000000;fill-rule:evenodd;stroke:none;stroke-width:0.25000000pt;stroke-linecap:butt;stroke-linejoin:miter;stroke-opacity:1.0000000"
         d="M 68.848847,9.0425439 C 68.216861,8.8003198 67.446015,8.4369686 67.098726,8.5763702 C 66.745953,8.7179630 66.068098,8.5443710 65.406942,8.3706952 C 64.860413,7.5134090 65.722936,7.4908969 66.500767,7.6302910 C 67.264531,7.7671667 68.688420,8.5626530 68.848847,9.0425439 z " />
    </g>
  </g>
</svg>
