<?xml version="1.0" encoding="UTF-8" standalone="no"?>
<!DOCTYPE svg PUBLIC "-//W3C//DTD SVG 20010904//EN"
"http://www.w3.org/TR/2001/REC-SVG-20010904/DTD/svg10.dtd">
<!-- Created with Inkscape (http://www.inkscape.org/) -->
<svg
   width="64pt"
   height="64pt"
   id="svg1640"
   sodipodi:version="0.32"
   inkscape:version="0.40"
   sodipodi:docbase="/home/nuno/kdeplayground-artwork/oooicons/crystalsvg"
   sodipodi:docname="fofx.svg"
   inkscape:export-filename="/home/nuno/kdeplayground-artwork/oooicons/crystalsvg/fofx.png"
   inkscape:export-xdpi="36.000000"
   inkscape:export-ydpi="36.000000"
   xmlns="http://www.w3.org/2000/svg"
   xmlns:cc="http://web.resource.org/cc/"
   xmlns:inkscape="http://www.inkscape.org/namespaces/inkscape"
   xmlns:sodipodi="http://sodipodi.sourceforge.net/DTD/sodipodi-0.dtd"
   xmlns:rdf="http://www.w3.org/1999/02/22-rdf-syntax-ns#"
   xmlns:dc="http://purl.org/dc/elements/1.1/"
   xmlns:xlink="http://www.w3.org/1999/xlink">
  <defs
     id="defs3">
    <linearGradient
       inkscape:collect="always"
       xlink:href="#graytoblack"
       id="linearGradient5423"
       gradientUnits="userSpaceOnUse"
       gradientTransform="matrix(0.204143,0.000000,0.000000,0.341407,-3.339691,-15.76919)"
       x1="18.669100"
       y1="62.545479"
       x2="207.75543"
       y2="261.08621" />
    <radialGradient
       inkscape:collect="always"
       xlink:href="#light75to25"
       id="radialGradient5425"
       gradientUnits="userSpaceOnUse"
       gradientTransform="matrix(0.163198,0.000000,0.000000,0.182660,0.742155,6.037988)"
       cx="212.92453"
       cy="16.992867"
       fx="212.92453"
       fy="16.992867"
       r="65.731857" />
    <linearGradient
       id="light75to25">
      <stop
         style="stop-color:#ffffff;stop-opacity:0.72941178;"
         offset="0.0000000"
         id="stop2774" />
      <stop
         style="stop-color:#ffffff;stop-opacity:0.26249999;"
         offset="1.0000000"
         id="stop2775" />
    </linearGradient>
    <radialGradient
       inkscape:collect="always"
       xlink:href="#light75to25"
       id="radialGradient5426"
       gradientUnits="userSpaceOnUse"
       gradientTransform="matrix(0.137554,0.000000,0.000000,0.216714,0.742155,6.037988)"
       cx="23.987041"
       cy="269.96732"
       fx="23.987041"
       fy="269.96732"
       r="34.259090" />
    <radialGradient
       inkscape:collect="always"
       xlink:href="#light100to0"
       id="radialGradient7301"
       gradientUnits="userSpaceOnUse"
       gradientTransform="matrix(0.132645,0.000000,0.000000,0.224735,0.622338,6.107040)"
       cx="183.03656"
       cy="220.96783"
       fx="183.03656"
       fy="220.96783"
       r="138.06569" />
    <linearGradient
       id="shadow100to0">
      <stop
         style="stop-color:#000000;stop-opacity:1.0000000;"
         offset="0.0000000"
         id="stop3425" />
      <stop
         style="stop-color:#000000;stop-opacity:0.0000000;"
         offset="1.0000000"
         id="stop3426" />
    </linearGradient>
    <linearGradient
       inkscape:collect="always"
       xlink:href="#shadow100to0"
       id="linearGradient9166"
       gradientUnits="userSpaceOnUse"
       gradientTransform="matrix(0.225835,0.000000,-2.515260e-2,0.172478,0.334368,4.194468)"
       x1="194.48006"
       y1="130.87549"
       x2="518.79669"
       y2="420.68716" />
    <linearGradient
       inkscape:collect="always"
       xlink:href="#graytoblack"
       id="linearGradient6675"
       gradientTransform="matrix(0.226673,0.000000,0.000000,0.171840,0.334368,4.194468)"
       x1="226.19034"
       y1="154.59605"
       x2="237.87393"
       y2="250.61244"
       gradientUnits="userSpaceOnUse" />
    <linearGradient
       id="greandraktoblack">
      <stop
         style="stop-color:#007c00;stop-opacity:1.0000000;"
         offset="0.0000000"
         id="stop7328" />
      <stop
         style="stop-color:#025a00;stop-opacity:1.0000000;"
         offset="1.0000000"
         id="stop7329" />
    </linearGradient>
    <linearGradient
       inkscape:collect="always"
       xlink:href="#greandraktoblack"
       id="linearGradient5417"
       gradientUnits="userSpaceOnUse"
       gradientTransform="matrix(0.225835,0.000000,-2.515260e-2,0.172478,-1.584766,2.578285)"
       x1="204.02148"
       y1="140.24585"
       x2="381.62057"
       y2="302.86520" />
    <linearGradient
       id="graytoblack">
      <stop
         style="stop-color:#7d7d7d;stop-opacity:1.0000000;"
         offset="0.0000000"
         id="stop5097" />
      <stop
         style="stop-color:#000000;stop-opacity:1.0000000;"
         offset="1.0000000"
         id="stop5098" />
    </linearGradient>
    <linearGradient
       inkscape:collect="always"
       xlink:href="#graytoblack"
       id="linearGradient1639"
       gradientUnits="userSpaceOnUse"
       gradientTransform="matrix(0.226673,0.000000,0.000000,0.171840,0.334368,4.194468)"
       x1="226.19034"
       y1="154.59605"
       x2="237.87393"
       y2="250.61244" />
    <linearGradient
       id="light100to0">
      <stop
         style="stop-color:#ffffff;stop-opacity:1.0000000;"
         offset="0.0000000"
         id="stop2764" />
      <stop
         style="stop-color:#ffffff;stop-opacity:0.0000000;"
         offset="1.0000000"
         id="stop2765" />
    </linearGradient>
    <radialGradient
       inkscape:collect="always"
       xlink:href="#light100to0"
       id="radialGradient6671"
       gradientTransform="matrix(0.302326,0.000000,0.000000,0.128839,-1.584780,2.578300)"
       cx="172.90320"
       cy="169.03685"
       fx="172.90320"
       fy="169.03685"
       r="185.70490"
       gradientUnits="userSpaceOnUse" />
  </defs>
  <sodipodi:namedview
     id="base"
     pagecolor="#ffffff"
     bordercolor="#666666"
     borderopacity="1.0"
     inkscape:pageopacity="0.0"
     inkscape:pageshadow="2"
     inkscape:zoom="5.9218750"
     inkscape:cx="32.000000"
     inkscape:cy="25.245383"
     inkscape:current-layer="layer1"
     showgrid="true"
     inkscape:grid-bbox="true"
     gridspacingy="1.0000000pt"
     gridspacingx="1.0000000pt"
     gridoriginy="0.0000000pt"
     gridoriginx="0.0000000pt"
     inkscape:window-width="640"
     inkscape:window-height="538"
     inkscape:window-x="0"
     inkscape:window-y="390" />
  <metadata
     id="metadata4">
    <rdf:RDF
       id="RDF5">
      <cc:Work
         rdf:about=""
         id="Work6">
        <dc:format
           id="format7">image/svg+xml</dc:format>
        <dc:type
           id="type9"
           rdf:resource="http://purl.org/dc/dcmitype/StillImage" />
      </cc:Work>
    </rdf:RDF>
  </metadata>
  <g
     id="layer1"
     inkscape:label="Layer 1"
     inkscape:groupmode="layer">
    <path
       style="font-size:12.000000;font-style:normal;font-variant:normal;font-weight:normal;font-stretch:normal;fill:none;fill-opacity:1.0000000;stroke:#000000;stroke-width:5.1500000;stroke-linecap:butt;stroke-linejoin:round;stroke-miterlimit:4.0000000;stroke-opacity:0.074999996;font-family:Bitstream Vera Sans;text-anchor:start;writing-mode:lr;stroke-dasharray:none;"
       d="M 48.456819,26.674489 C 46.679053,29.172489 45.269179,31.643294 44.227195,34.086935 C 43.185182,36.530605 42.481261,39.006834 42.115398,41.515645 C 41.749531,44.024491 41.729648,46.511588 42.055768,48.976970 C 42.394005,51.431485 43.083240,53.902295 44.123467,56.389390 L 41.591869,56.389390 C 40.381816,53.837123 39.561001,51.328305 39.129401,48.862923 C 38.708364,46.397539 38.675226,43.948471 39.030008,41.515645 C 39.383200,39.093719 40.129054,36.655496 41.267570,34.200956 C 42.406077,31.746471 43.958646,29.237658 45.925222,26.674489 L 48.456819,26.674489 M 67.820941,33.744813 L 60.118044,42.623446 L 65.492365,51.990808 L 62.058897,51.990808 L 57.946080,44.822753 L 51.742645,51.990808 L 48.309152,51.990808 L 56.584117,42.444251 L 51.555422,33.744813 L 54.988889,33.744813 L 58.740261,40.244947 L 64.387446,33.744813 L 67.820941,33.744813 M 72.839269,26.674489 L 75.370865,26.674489 C 76.579332,29.237658 77.394854,31.746471 77.817512,34.200956 C 78.250690,36.655496 78.290672,39.093719 77.937480,41.515645 C 77.582698,43.948471 76.829999,46.397539 75.679344,48.862923 C 74.539217,51.328305 72.991969,53.837123 71.037515,56.389390 L 68.505917,56.389390 C 70.271536,53.902295 71.676144,51.431485 72.719741,48.976970 C 73.775451,46.511588 74.486223,44.024491 74.852119,41.515645 C 75.217952,39.006834 75.230985,36.530605 74.891166,34.086935 C 74.561874,31.643294 73.877907,29.172489 72.839269,26.674489"
       id="path2954" />
    <path
       style="font-size:45.000000;font-style:normal;font-variant:normal;font-weight:200;font-stretch:normal;fill:none;fill-opacity:1.0000000;stroke:#000000;stroke-width:4.5000000;stroke-linecap:butt;stroke-linejoin:round;stroke-miterlimit:4.0000000;stroke-opacity:0.074999996;font-family:Cotillion;text-anchor:start;writing-mode:lr;stroke-dasharray:none;"
       d="M 36.990216,7.4430544 C 31.606321,8.3875412 28.699615,14.038099 26.423065,18.913510 C 24.890316,22.474878 23.347014,26.331650 22.223479,30.099483 C 19.265624,30.085275 17.312605,30.329831 15.726608,30.895853 C 14.140612,31.461871 13.397568,34.610801 14.640421,35.260216 C 15.883278,35.909637 18.064870,35.915996 20.764719,36.068581 C 17.802893,45.014768 15.114234,54.685514 11.956351,63.532089 C 11.335000,66.308169 7.1308092,70.769576 6.3503781,65.422256 C 5.7482741,61.296779 0.50426703,65.030643 1.7129139,68.909836 C 2.9538415,72.892640 6.8511803,74.344240 9.8237258,73.055109 C 15.718002,70.631437 18.167639,63.617127 20.282119,57.560683 C 22.686725,50.295450 24.664703,43.538586 26.918261,36.203942 C 30.132278,36.364209 32.737401,35.509161 34.359179,35.039945 C 35.980960,34.570735 36.580899,31.697092 35.379529,31.109776 C 34.178156,30.522460 30.690886,29.936976 27.936638,30.205736 C 28.442375,27.944760 32.794338,16.204056 34.722600,13.656757 C 35.971751,15.912592 38.528176,18.414314 39.838778,14.947355 C 41.261641,12.460754 40.594635,7.1703996 36.990216,7.4430544 z "
       id="path2952"
       sodipodi:nodetypes="cccssccsscccsscccc" />
    <path
       style="font-size:45.000000;font-style:normal;font-variant:normal;font-weight:200;font-stretch:normal;fill:url(#linearGradient5423);fill-opacity:1.0000000;stroke:#000000;stroke-width:2.4998181;stroke-linecap:butt;stroke-linejoin:round;stroke-miterlimit:4.0000000;stroke-opacity:1.0000000;font-family:Cotillion;text-anchor:start;writing-mode:lr;"
       d="M 36.990216,7.4430544 C 31.606321,8.3875412 28.699615,14.038099 26.423065,18.913510 C 24.890316,22.474878 23.347014,26.331650 22.223479,30.099483 C 19.265624,30.085275 17.312605,30.329831 15.726608,30.895853 C 14.140612,31.461871 13.397568,34.610801 14.640421,35.260216 C 15.883278,35.909637 18.064870,35.915996 20.764719,36.068581 C 17.802893,45.014768 15.114234,54.685514 11.956351,63.532089 C 11.335000,66.308169 7.1308092,70.769576 6.3503781,65.422256 C 5.7482741,61.296779 0.50426703,65.030643 1.7129139,68.909836 C 2.9538415,72.892640 6.8511803,74.344240 9.8237258,73.055109 C 15.718002,70.631437 18.167639,63.617127 20.282119,57.560683 C 22.686725,50.295450 24.664703,43.538586 26.918261,36.203942 C 30.132278,36.364209 32.737401,35.509161 34.359179,35.039945 C 35.980960,34.570735 36.580899,31.697092 35.379529,31.109776 C 34.178156,30.522460 30.690886,29.936976 27.936638,30.205736 C 28.442375,27.944760 32.794338,16.204056 34.722600,13.656757 C 35.971751,15.912592 38.528176,18.414314 39.838778,14.947355 C 41.261641,12.460754 40.594635,7.1703996 36.990216,7.4430544 z "
       id="text1623"
       sodipodi:nodetypes="cccssccsscccsscccc" />
    <path
       style="font-size:45.000000;font-style:normal;font-variant:normal;font-weight:200;font-stretch:normal;fill:url(#radialGradient5425);fill-opacity:1.0000000;stroke:none;stroke-width:9.3463812;stroke-linecap:butt;stroke-linejoin:round;stroke-miterlimit:4.0000000;stroke-opacity:1.0000000;font-family:Cotillion;text-anchor:start;writing-mode:lr"
       d="M 36.990216,7.4430544 C 31.606321,8.3875412 28.699615,14.038099 26.423065,18.913510 C 24.890316,22.474878 23.347014,26.331650 22.223479,30.099483 C 19.440088,31.008276 17.485773,30.885489 16.250000,31.818856 C 22.399079,31.864510 22.252063,32.769578 24.951915,32.922164 C 28.250244,23.786605 31.543721,16.330420 35.750017,12.070639 C 37.712182,15.774683 42.705453,8.0147268 36.990216,7.4430544 z "
       id="path2892"
       sodipodi:nodetypes="ccccccc" />
    <path
       style="font-size:45.000000;font-style:normal;font-variant:normal;font-weight:200;font-stretch:normal;fill:url(#radialGradient5426);fill-opacity:1.0000000;stroke:none;stroke-width:9.3463812;stroke-linecap:butt;stroke-linejoin:round;stroke-miterlimit:4.0000000;stroke-opacity:1.0000000;font-family:Cotillion;text-anchor:start;writing-mode:lr"
       d="M 18.789696,43.774833 C 15.827871,52.721021 15.114234,54.685514 11.956351,63.532089 C 11.335000,66.308169 7.2735979,70.741230 6.3503781,65.422256 C 5.8149545,62.337504 1.4328627,63.400713 1.9129589,66.828380 C 2.2722493,69.393555 6.1843656,71.296389 9.1569099,70.007257 C 15.192258,66.168151 15.976502,52.795049 18.789696,43.774833 z "
       id="path2894"
       sodipodi:nodetypes="ccsscc" />
    <path
       style="font-size:45.000000;font-style:normal;font-variant:normal;font-weight:200;font-stretch:normal;fill:url(#radialGradient7301);fill-opacity:1.0000000;stroke:none;stroke-width:9.3463812;stroke-linecap:butt;stroke-linejoin:round;stroke-miterlimit:4.0000000;stroke-opacity:1.0000000;font-family:Cotillion;text-anchor:start;writing-mode:lr"
       d="M 36.870405,7.5121029 C 31.486509,8.4565897 28.579802,14.107148 26.303252,18.982559 C 24.770501,22.543926 23.227201,26.400699 22.103666,30.168533 C 19.145813,30.154322 17.192791,30.398877 15.606795,30.964901 C 14.020798,31.530921 13.277755,34.679850 14.520610,35.329264 C 15.763463,35.978684 17.945057,35.985046 20.644906,36.137631 C 17.683078,45.083818 14.994421,54.754559 11.836536,63.601135 C 11.215186,66.377218 7.0109948,70.838626 6.2305648,65.491307 C 5.6284564,61.365824 0.38445339,65.099685 1.5931004,68.978885 C 2.8340279,72.961687 6.7313659,74.413287 9.7039125,73.124154 C 15.598189,70.700482 18.047825,63.686173 20.162307,57.629732 C 22.566913,50.364500 24.544891,43.607636 26.798451,36.272988 C 30.012468,36.433257 32.617589,35.578213 34.239370,35.108993 C 35.861151,34.639781 36.461086,31.766144 35.259719,31.178825 C 34.058345,30.591509 30.571075,30.006024 27.816828,30.274784 C 28.322564,28.013807 32.674528,16.273103 34.602788,13.725806 C 35.851940,15.981640 38.408364,18.483364 39.718966,15.016404 C 41.141829,12.529803 40.474823,7.2394504 36.870405,7.5121029 z "
       id="path3517"
       sodipodi:nodetypes="cccssccsscccsscccc"
       inkscape:export-xdpi="15.880671"
       inkscape:export-ydpi="15.880671" />
    <path
       style="font-size:12.000000;font-style:normal;font-variant:normal;font-weight:normal;font-stretch:normal;fill:url(#linearGradient6675);fill-opacity:1.0000000;stroke:url(#linearGradient9166);stroke-width:3.0196266;stroke-linecap:butt;stroke-linejoin:round;stroke-miterlimit:4.0000000;stroke-opacity:1.0000000;font-family:Bitstream Vera Sans;text-anchor:start;writing-mode:lr"
       d="M 48.456819,26.674489 C 46.679053,29.172489 45.269179,31.643294 44.227195,34.086935 C 43.185182,36.530605 42.481261,39.006834 42.115398,41.515645 C 41.749531,44.024491 41.729648,46.511588 42.055768,48.976970 C 42.394005,51.431485 43.083240,53.902295 44.123467,56.389390 L 41.591869,56.389390 C 40.381816,53.837123 39.561001,51.328305 39.129401,48.862923 C 38.708364,46.397539 38.675226,43.948471 39.030008,41.515645 C 39.383200,39.093719 40.129054,36.655496 41.267570,34.200956 C 42.406077,31.746471 43.958646,29.237658 45.925222,26.674489 L 48.456819,26.674489 M 67.820941,33.744813 L 60.118044,42.623446 L 65.492365,51.990808 L 62.058897,51.990808 L 57.946080,44.822753 L 51.742645,51.990808 L 48.309152,51.990808 L 56.584117,42.444251 L 51.555422,33.744813 L 54.988889,33.744813 L 58.740261,40.244947 L 64.387446,33.744813 L 67.820941,33.744813 M 72.839269,26.674489 L 75.370865,26.674489 C 76.579332,29.237658 77.394854,31.746471 77.817512,34.200956 C 78.250690,36.655496 78.290672,39.093719 77.937480,41.515645 C 77.582698,43.948471 76.829999,46.397539 75.679344,48.862923 C 74.539217,51.328305 72.991969,53.837123 71.037515,56.389390 L 68.505917,56.389390 C 70.271536,53.902295 71.676144,51.431485 72.719741,48.976970 C 73.775451,46.511588 74.486223,44.024491 74.852119,41.515645 C 75.217952,39.006834 75.230985,36.530605 74.891166,34.086935 C 74.561874,31.643294 73.877907,29.172489 72.839269,26.674489"
       id="text3520" />
    <path
       style="font-size:12.000000;font-style:normal;font-variant:normal;font-weight:normal;font-stretch:normal;fill:url(#linearGradient1639);fill-opacity:1.0000000;stroke:url(#linearGradient5417);stroke-width:6.8473420e-18;stroke-linecap:butt;stroke-linejoin:round;stroke-miterlimit:4.0000000;stroke-opacity:1.0000000;font-family:Bitstream Vera Sans;text-anchor:start;writing-mode:lr"
       d="M 48.456819,26.674489 C 46.679053,29.172489 45.269179,31.643294 44.227195,34.086935 C 43.185182,36.530605 42.481261,39.006834 42.115398,41.515645 C 41.749531,44.024491 41.729648,46.511588 42.055768,48.976970 C 42.394005,51.431485 43.083240,53.902295 44.123467,56.389390 L 41.591869,56.389390 C 40.381816,53.837123 39.561001,51.328305 39.129401,48.862923 C 38.708364,46.397539 38.675226,43.948471 39.030008,41.515645 C 39.383200,39.093719 40.129054,36.655496 41.267570,34.200956 C 42.406077,31.746471 43.958646,29.237658 45.925222,26.674489 L 48.456819,26.674489 M 67.820941,33.744813 L 60.118044,42.623446 L 65.492365,51.990808 L 62.058897,51.990808 L 57.946080,44.822753 L 51.742645,51.990808 L 48.309152,51.990808 L 56.584117,42.444251 L 51.555422,33.744813 L 54.988889,33.744813 L 58.740261,40.244947 L 64.387446,33.744813 L 67.820941,33.744813 M 72.839269,26.674489 L 75.370865,26.674489 C 76.579332,29.237658 77.394854,31.746471 77.817512,34.200956 C 78.250690,36.655496 78.290672,39.093719 77.937480,41.515645 C 77.582698,43.948471 76.829999,46.397539 75.679344,48.862923 C 74.539217,51.328305 72.991969,53.837123 71.037515,56.389390 L 68.505917,56.389390 C 70.271536,53.902295 71.676144,51.431485 72.719741,48.976970 C 73.775451,46.511588 74.486223,44.024491 74.852119,41.515645 C 75.217952,39.006834 75.230985,36.530605 74.891166,34.086935 C 74.561874,31.643294 73.877907,29.172489 72.839269,26.674489"
       id="path8544" />
    <path
       style="font-size:12.000000;font-style:normal;font-variant:normal;font-weight:normal;font-stretch:normal;fill:url(#radialGradient6671);fill-opacity:1.0000000;stroke:none;stroke-width:0.58018565;stroke-linecap:butt;stroke-linejoin:round;stroke-miterlimit:4.0000000;stroke-opacity:1.0000000;font-family:Bitstream Vera Sans;text-anchor:start;writing-mode:lr"
       d="M 48.456819,26.853274 C 46.679053,29.351272 45.269179,31.822080 44.227195,34.265720 C 43.185182,36.709391 42.628421,38.813815 42.262560,41.012792 C 41.308040,42.034429 40.659965,41.159828 38.882844,42.500000 C 39.236036,40.078077 40.129054,36.834281 41.267570,34.379744 C 42.406077,31.925256 43.958646,29.416442 45.925222,26.853274 L 48.456819,26.853274 M 67.820941,33.923598 L 60.853861,41.686826 C 59.283447,42.391354 57.860202,41.112938 56.142627,41.755497 L 51.555422,33.923598 L 54.988889,33.923598 L 58.740261,40.423733 L 64.387446,33.923598 L 67.820941,33.923598 M 72.839269,26.853274 L 75.370865,26.853274 C 76.579332,29.416442 77.394854,31.925256 77.817512,34.379744 C 78.250690,36.834281 78.217092,39.644304 77.863899,42.066232 C 77.141207,42.144311 76.252181,42.592131 74.778539,42.066232 C 75.144371,39.557419 75.230985,36.709391 74.891166,34.265720 C 74.561874,31.822080 73.877907,29.351272 72.839269,26.853274"
       id="path6049"
       sodipodi:nodetypes="cccccccccccccccccccccc" />
  </g>
</svg>
