<?xml version="1.0" encoding="UTF-8" standalone="no"?>
<!-- Created with Inkscape (http://www.inkscape.org/) -->
<svg
   xmlns:dc="http://purl.org/dc/elements/1.1/"
   xmlns:cc="http://web.resource.org/cc/"
   xmlns:rdf="http://www.w3.org/1999/02/22-rdf-syntax-ns#"
   xmlns:svg="http://www.w3.org/2000/svg"
   xmlns="http://www.w3.org/2000/svg"
   xmlns:xlink="http://www.w3.org/1999/xlink"
   xmlns:sodipodi="http://inkscape.sourceforge.net/DTD/sodipodi-0.dtd"
   xmlns:inkscape="http://www.inkscape.org/namespaces/inkscape"
   inkscape:export-ydpi="44.964283"
   inkscape:export-xdpi="44.964283"
   inkscape:export-filename="/home/pinheiro/artwork/oooicons/crystalsvg/defineprintarea.png"
   sodipodi:docname="defineprintarea.svg"
   sodipodi:docbase="/home/pinheiro/artwork/oooicons/crystalsvg"
   inkscape:version="0.41"
   sodipodi:version="0.32"
   id="svg19896"
   height="64px"
   width="64px">
  <defs
     id="defs3">
    <linearGradient
       id="graytolightgray">
      <stop
         style="stop-color:#d4d3d3;stop-opacity:1.0000000;"
         offset="0.0000000"
         id="stop5101" />
      <stop
         style="stop-color:#ffffff;stop-opacity:1.0000000;"
         offset="1.0000000"
         id="stop5102" />
    </linearGradient>
    <linearGradient
       inkscape:collect="always"
       xlink:href="#graytolightgray"
       id="linearGradient4310"
       gradientTransform="matrix(0.957511,0.000000,0.000000,0.743582,-1.794600e-2,0.930140)"
       x1="57.458168"
       y1="83.336693"
       x2="10.556294"
       y2="31.206570"
       gradientUnits="userSpaceOnUse" />
    <linearGradient
       inkscape:collect="always"
       xlink:href="#blacktowhite"
       id="linearGradient3197"
       gradientUnits="userSpaceOnUse"
       gradientTransform="matrix(0.864652,0.000000,0.000000,0.755606,13.77332,-2.303800)"
       x1="55.349602"
       y1="93.603699"
       x2="-12.340737"
       y2="-5.2496204" />
    <linearGradient
       id="blacktowhite">
      <stop
         style="stop-color:#000000;stop-opacity:1.0000000;"
         offset="0.0000000"
         id="stop2476" />
      <stop
         style="stop-color:#ffffff;stop-opacity:1.0000000;"
         offset="1.0000000"
         id="stop2475" />
    </linearGradient>
    <linearGradient
       inkscape:collect="always"
       xlink:href="#blacktowhite"
       id="linearGradient3196"
       gradientUnits="userSpaceOnUse"
       gradientTransform="matrix(0.864652,0.000000,0.000000,0.755606,7.938296,-2.303800)"
       x1="42.188053"
       y1="79.266365"
       x2="-16.667776"
       y2="11.102478" />
    <radialGradient
       inkscape:collect="always"
       xlink:href="#light100to0"
       id="radialGradient3236"
       gradientUnits="userSpaceOnUse"
       gradientTransform="matrix(0.921590,0.000000,0.000000,0.708923,8.099424,-2.779104)"
       cx="54.280910"
       cy="89.387924"
       fx="54.280910"
       fy="89.387924"
       r="28.933352" />
    <radialGradient
       inkscape:collect="always"
       xlink:href="#light100to0"
       id="radialGradient2207"
       gradientTransform="matrix(1.071493,0.000000,0.000000,0.764242,0.625935,3.896762)"
       cx="12.810296"
       cy="27.383936"
       fx="12.810296"
       fy="27.383936"
       r="50.578453"
       gradientUnits="userSpaceOnUse" />
    <linearGradient
       gradientUnits="userSpaceOnUse"
       y2="205.73032"
       x2="128.96295"
       y1="186.93973"
       x1="113.67773"
       gradientTransform="matrix(1.485251,0.000000,0.000000,0.673287,-3.197442e-14,-20.00000)"
       id="linearGradient6901"
       xlink:href="#light100to0"
       inkscape:collect="always" />
    <radialGradient
       cx="38.797401"
       cy="112.96090"
       r="67.358803"
       fx="38.797401"
       fy="112.96090"
       id="bluelignonlinblu"
       gradientUnits="userSpaceOnUse">
      <stop
         style="stop-color:#d9ffff;stop-opacity:1.0000000;"
         offset="0.0055999998"
         id="stop84" />
      <stop
         style="stop-color:#95d9ff;stop-opacity:1.0000000;"
         offset="0.13480000"
         id="stop86" />
      <stop
         style="stop-color:#68b9ff;stop-opacity:1.0000000;"
         offset="0.32049999"
         id="stop88" />
      <stop
         style="stop-color:#3293fe;stop-opacity:1.0000000;"
         offset="0.56800002"
         id="stop90" />
      <stop
         style="stop-color:#107bfe;stop-opacity:1.0000000;"
         offset="0.75340003"
         id="stop92" />
      <stop
         style="stop-color:#0372fe;stop-opacity:1.0000000;"
         offset="0.85390002"
         id="stop94" />
      <stop
         style="stop-color:#0356fe;stop-opacity:1.0000000;"
         offset="1.0000000"
         id="stop96" />
    </radialGradient>
    <linearGradient
       gradientTransform="matrix(1.058011,0.000000,0.000000,1.077347,153.5621,83.33260)"
       y2="28.978600"
       x2="23.679199"
       y1="19.698700"
       x1="23.679199"
       gradientUnits="userSpaceOnUse"
       id="linearGradient3019"
       xlink:href="#bluelignonlinblu"
       inkscape:collect="always" />
    <linearGradient
       gradientTransform="matrix(1.058011,0.000000,0.000000,1.077347,153.5621,83.33260)"
       y2="53.580601"
       x2="35.789902"
       y1="32.291000"
       x1="14.500500"
       gradientUnits="userSpaceOnUse"
       id="linearGradient3023"
       xlink:href="#linearGradient3857"
       inkscape:collect="always" />
    <linearGradient
       gradientTransform="scale(0.990985,1.009097)"
       y2="112.93732"
       x2="200.48302"
       y1="88.272369"
       x1="171.52795"
       gradientUnits="userSpaceOnUse"
       id="linearGradient3027"
       xlink:href="#linearGradient3857"
       inkscape:collect="always" />
    <linearGradient
       gradientTransform="matrix(0.990985,0.000000,0.000000,1.009097,-3.197442e-14,-20.00000)"
       y2="146.23071"
       x2="188.99994"
       y1="56.162014"
       x1="163.95276"
       gradientUnits="userSpaceOnUse"
       id="linearGradient3031"
       xlink:href="#bludraktowhite"
       inkscape:collect="always" />
    <linearGradient
       gradientTransform="matrix(0.990985,0.000000,0.000000,1.009097,-3.197442e-14,-20.00000)"
       y2="145.28880"
       x2="180.05978"
       y1="119.82854"
       x1="180.41942"
       gradientUnits="userSpaceOnUse"
       id="linearGradient3034"
       xlink:href="#garylighttowite"
       inkscape:collect="always" />
    <linearGradient
       y2="-38.160900"
       x2="-6.3134999"
       y1="-38.719200"
       x1="-6.3134999"
       gradientTransform="matrix(0.748120,-0.761792,0.748120,0.761792,229.2332,131.3576)"
       gradientUnits="userSpaceOnUse"
       id="linearGradient3093"
       xlink:href="#light100to0"
       inkscape:collect="always" />
    <linearGradient
       id="greandarktobgrean">
      <stop
         style="stop-color:#00ad01;stop-opacity:1.0000000;"
         offset="0.0000000"
         id="stop4492" />
      <stop
         style="stop-color:#15720f;stop-opacity:1.0000000;"
         offset="1.0000000"
         id="stop4493" />
    </linearGradient>
    <linearGradient
       y2="-37.491199"
       x2="-6.3817000"
       y1="-38.180698"
       x1="-6.4966002"
       gradientTransform="matrix(0.748120,-0.761792,0.748120,0.761792,229.2332,131.3576)"
       gradientUnits="userSpaceOnUse"
       id="linearGradient3096"
       xlink:href="#greandarktobgrean"
       inkscape:collect="always" />
    <linearGradient
       id="light100to0">
      <stop
         style="stop-color:#ffffff;stop-opacity:1.0000000;"
         offset="0.0000000"
         id="stop2764" />
      <stop
         style="stop-color:#ffffff;stop-opacity:0.0000000;"
         offset="1.0000000"
         id="stop2765" />
    </linearGradient>
    <linearGradient
       gradientUnits="userSpaceOnUse"
       y2="270.91983"
       x2="122.14636"
       y1="228.39000"
       x1="87.965759"
       gradientTransform="matrix(1.872379,0.000000,0.000000,0.534080,-3.197442e-14,-20.00000)"
       id="linearGradient11457"
       xlink:href="#light100to0"
       inkscape:collect="always" />
    <linearGradient
       gradientTransform="matrix(1.058011,0.000000,0.000000,1.077347,153.5621,83.33260)"
       y2="32.738300"
       x2="23.697800"
       y1="37.043900"
       x1="23.697800"
       gradientUnits="userSpaceOnUse"
       id="linearGradient3057"
       xlink:href="#graytoblack"
       inkscape:collect="always" />
    <linearGradient
       id="garylighttowite">
      <stop
         style="stop-color:#7d7d7d;stop-opacity:1.0000000;"
         offset="0.0000000"
         id="stop5106" />
      <stop
         style="stop-color:#d3d4d4;stop-opacity:1.0000000;"
         offset="1.0000000"
         id="stop5107" />
    </linearGradient>
    <linearGradient
       gradientTransform="matrix(0.990985,0.000000,0.000000,1.009097,-3.197442e-14,-20.00000)"
       y2="136.60526"
       x2="180.63922"
       y1="141.89970"
       x1="180.63930"
       gradientUnits="userSpaceOnUse"
       id="linearGradient3060"
       xlink:href="#garylighttowite"
       inkscape:collect="always" />
    <linearGradient
       id="bludraktowhite"
       gradientUnits="userSpaceOnUse"
       x1="33.332001"
       y1="10.305200"
       x2="33.332001"
       y2="91.407700">
      <stop
         offset="0"
         style="stop-color:rgb(255,255,255)"
         id="stop7271" />
      <stop
         offset="1"
         style="stop-color:rgb(84,84,119)"
         id="stop7273" />
    </linearGradient>
    <linearGradient
       gradientTransform="matrix(0.990985,0.000000,0.000000,1.009097,-3.197442e-14,-20.00000)"
       y2="155.94814"
       x2="188.92943"
       y1="111.36876"
       x1="161.59552"
       gradientUnits="userSpaceOnUse"
       id="linearGradient3063"
       xlink:href="#bludraktowhite"
       inkscape:collect="always" />
    <linearGradient
       gradientTransform="matrix(0.990985,0.000000,0.000000,1.009097,-3.197442e-14,-20.00000)"
       y2="118.40839"
       x2="180.02591"
       y1="145.33969"
       x1="180.91510"
       gradientUnits="userSpaceOnUse"
       id="linearGradient3067"
       xlink:href="#linearGradient3857"
       inkscape:collect="always" />
    <linearGradient
       gradientTransform="matrix(1.058011,0.000000,0.000000,1.077347,153.5621,83.33260)"
       y2="1.5501000"
       x2="23.701700"
       y1="32.068401"
       x1="23.701700"
       gradientUnits="userSpaceOnUse"
       id="linearGradient3070"
       xlink:href="#linearGradient3857"
       inkscape:collect="always" />
    <linearGradient
       id="linearGradient3857">
      <stop
         id="stop3861"
         style="stop-color:#ffffff;stop-opacity:1.0000000;"
         offset="0.0000000" />
      <stop
         id="stop3859"
         style="stop-color:#a9a9bb;stop-opacity:1.0000000;"
         offset="1.0000000" />
    </linearGradient>
    <linearGradient
       spreadMethod="reflect"
       gradientTransform="matrix(0.990985,0.000000,0.000000,1.009097,-3.197442e-14,-20.00000)"
       y2="134.31752"
       x2="180.26268"
       y1="143.76784"
       x1="180.26233"
       gradientUnits="userSpaceOnUse"
       id="linearGradient3073"
       xlink:href="#linearGradient3857"
       inkscape:collect="always" />
    <linearGradient
       id="graytoblack">
      <stop
         style="stop-color:#7d7d7d;stop-opacity:1.0000000;"
         offset="0.0000000"
         id="stop5097" />
      <stop
         style="stop-color:#000000;stop-opacity:1.0000000;"
         offset="1.0000000"
         id="stop5098" />
    </linearGradient>
    <linearGradient
       gradientTransform="matrix(0.990985,0.000000,0.000000,1.009097,-3.197442e-14,-20.00000)"
       y2="115.63019"
       x2="182.14198"
       y1="163.12953"
       x1="182.14200"
       gradientUnits="userSpaceOnUse"
       id="linearGradient3076"
       xlink:href="#graytoblack"
       inkscape:collect="always" />
  </defs>
  <sodipodi:namedview
     inkscape:window-y="354"
     inkscape:window-x="211"
     inkscape:window-height="536"
     inkscape:window-width="640"
     inkscape:grid-bbox="true"
     inkscape:document-units="px"
     showgrid="true"
     inkscape:current-layer="layer1"
     inkscape:cy="32.000000"
     inkscape:cx="32.000000"
     inkscape:zoom="5.5000000"
     inkscape:pageshadow="2"
     inkscape:pageopacity="0.0"
     borderopacity="1.0"
     bordercolor="#666666"
     pagecolor="#ffffff"
     id="base" />
  <metadata
     id="metadata4">
    <rdf:RDF
       id="RDF5">
      <cc:Work
         id="Work6"
         rdf:about="">
        <dc:format
           id="format7">image/svg+xml</dc:format>
        <dc:type
           rdf:resource="http://purl.org/dc/dcmitype/StillImage"
           id="type9" />
      </cc:Work>
    </rdf:RDF>
  </metadata>
  <g
     inkscape:groupmode="layer"
     inkscape:label="Layer 1"
     id="layer1">
    <path
       style="fill:url(#linearGradient4310);fill-opacity:1.0000000;stroke:#000000;stroke-width:1.4528035;stroke-linecap:round;stroke-linejoin:round;stroke-miterlimit:4.0000000;stroke-dashoffset:0.0000000;stroke-opacity:0.53688526"
       d="M 3.2985183,15.993278 L 61.062948,15.993278 C 61.951381,15.993278 62.666604,16.651809 62.666604,17.469813 L 62.666604,61.454049 C 62.666604,62.272054 61.951381,62.930583 61.062948,62.930583 L 3.2985183,62.930583 C 2.4100935,62.930583 1.6948655,62.272054 1.6948655,61.454049 L 1.6948655,17.469813 C 1.6948655,16.651809 2.4100935,15.993278 3.2985183,15.993278 z "
       id="rect10003" />
    <path
       style="fill:none;fill-opacity:1.0000000;fill-rule:evenodd;stroke:url(#linearGradient3197);stroke-width:1.3175490;stroke-linecap:butt;stroke-linejoin:round;stroke-miterlimit:4.0000000;stroke-opacity:1.0000000"
       d="M 22.665263,15.930438 L 22.974696,62.098542 L 43.428617,62.137806 L 43.308138,16.071105 L 22.665263,15.930438 z "
       id="path6220"
       sodipodi:nodetypes="ccccc" />
    <path
       style="fill:none;fill-opacity:1.0000000;fill-rule:evenodd;stroke:url(#linearGradient3196);stroke-width:1.1963953;stroke-linecap:butt;stroke-linejoin:round;stroke-miterlimit:4.0000000;stroke-opacity:1.0000000"
       d="M 62.757564,27.840723 L 1.5274919,27.896639 L 1.2463983,39.426278 L 62.332879,39.100914 L 62.757564,27.840723 z M 62.332879,50.380682 L 1.5274919,50.741746 L 1.2463983,62.271372 L 62.332879,61.946010 L 62.332879,50.380682 z "
       id="path6216"
       sodipodi:nodetypes="cccccccccc" />
    <path
       style="fill:none;fill-opacity:1.0000000;stroke:#000000;stroke-width:2.7684016;stroke-linecap:round;stroke-linejoin:round;stroke-miterlimit:4.0000000;stroke-dashoffset:0.0000000;stroke-opacity:1.0000000"
       d="M 3.2985183,15.993278 L 61.062948,15.993278 C 61.951381,15.993278 62.666604,16.651809 62.666604,17.469813 L 62.666604,61.454049 C 62.666604,62.272054 61.951381,62.930583 61.062948,62.930583 L 3.2985183,62.930583 C 2.4100935,62.930583 1.6948655,62.272054 1.6948655,61.454049 L 1.6948655,17.469813 C 1.6948655,16.651809 2.4100935,15.993278 3.2985183,15.993278 z "
       id="path1435" />
    <rect
       style="opacity:0.21500722;fill:#0000fb;fill-opacity:1.0000000;stroke:#000000;stroke-width:0.39000002;stroke-linecap:round;stroke-linejoin:round;stroke-miterlimit:4.0000000;stroke-dashoffset:0.0000000;stroke-opacity:0.018099548"
       id="rect1427"
       width="41.490910"
       height="23.000000"
       x="22.314161"
       y="38.804996"
       rx="2.2684672"
       ry="1.8595793" />
    <path
       style="fill:url(#radialGradient3236);fill-opacity:1.0000000;stroke:none;stroke-width:1.6250000;stroke-linecap:round;stroke-linejoin:round;stroke-miterlimit:4.0000000;stroke-dashoffset:0.0000000;stroke-opacity:0.31249997"
       d="M 14.271371,24.874984 L 61.305356,24.874984 C 62.028746,24.874984 62.611120,25.404397 62.611120,26.061997 L 62.611120,61.421714 C 62.611120,62.079318 62.028746,62.608724 61.305356,62.608724 L 14.554494,63.066431 C 13.831103,63.066431 13.248727,62.537026 13.248727,61.879421 L 12.965605,26.061997 C 12.965605,25.404397 13.547980,24.874984 14.271371,24.874984 z "
       id="rect1799"
       sodipodi:nodetypes="ccccccccc" />
    <path
       style="fill:url(#radialGradient2207);fill-opacity:1.0000000;fill-rule:evenodd;stroke:none;stroke-width:1.0000000px;stroke-linecap:butt;stroke-linejoin:miter;stroke-opacity:1.0000000"
       d="M 48.000000,16.254842 C 4.1154094,16.178558 3.1691105,15.797135 2.5776742,16.483696 C 1.8014142,17.405466 2.2599878,17.832910 1.8457719,48.999941 C 14.700127,49.035670 6.7338634,32.864328 13.933255,26.724882 C 21.962195,19.878022 47.942756,26.969327 48.000000,16.254842 z "
       id="path2197"
       sodipodi:nodetypes="cccsc" />
    <g
       transform="matrix(0.921586,0.000000,0.000000,0.970387,-142.9219,-82.45604)"
       id="g19811">
      <path
         id="path1061"
         d="M 202.44115,113.76119 C 202.44115,110.84050 202.11317,105.60675 199.91145,103.36587 C 198.80794,102.24435 196.01056,101.43418 191.38599,100.88905 C 191.25692,100.17908 190.67818,99.639320 189.97249,99.575760 C 189.80744,99.560680 189.63604,99.547750 189.46782,99.532670 L 189.46782,86.099230 C 189.46782,85.668290 189.12397,85.317070 188.69970,85.317070 L 169.07254,85.317070 C 168.64934,85.317070 168.30443,85.668290 168.30443,86.099230 L 168.30443,99.543440 C 168.14043,99.558520 167.97327,99.570370 167.81139,99.585460 C 167.10676,99.651180 166.52591,100.19093 166.39789,100.89874 C 161.75216,101.44711 158.94843,102.25405 157.85657,103.36587 C 155.66014,105.60244 155.33215,110.89114 155.33215,113.84522 C 155.33215,118.79671 156.21665,124.96021 157.85657,126.63010 C 158.53369,127.31960 160.85814,127.77532 163.97293,128.07051 C 162.49912,131.87247 162.43035,132.13534 162.43035,132.39175 C 162.43035,132.82269 162.77420,133.17390 163.19846,133.17390 L 194.69334,133.17390 C 195.11654,133.17390 195.46251,132.82377 195.46251,132.39175 C 195.46251,132.13319 195.39162,131.86708 193.86597,128.04142 C 196.90246,127.74946 199.25442,127.30236 199.91356,126.63010 C 201.65716,124.85248 202.44115,118.03502 202.44115,113.76119 z "
         style="opacity:0.20000000;overflow:visible" />
      <path
         id="path1060"
         d="M 202.82627,113.99497 C 202.82627,111.07429 202.49722,105.83946 200.29656,103.59857 C 199.19306,102.47706 196.39462,101.66689 191.77111,101.12175 C 191.64203,100.41178 191.06224,99.872030 190.35655,99.808470 C 190.19150,99.793380 190.02116,99.780460 189.85294,99.765370 L 189.85294,86.331930 C 189.85294,85.901000 189.50802,85.549780 189.08482,85.549780 L 169.45660,85.549780 C 169.03339,85.549780 168.68848,85.901000 168.68848,86.331930 L 168.68848,99.776150 C 168.52449,99.791230 168.35733,99.803080 168.19545,99.818160 C 167.49081,99.883880 166.90997,100.42363 166.78195,101.13145 C 162.13622,101.67982 159.33249,102.48675 158.24062,103.59857 C 156.04419,105.83515 155.71621,111.12384 155.71621,114.07793 C 155.71621,119.02834 156.60071,125.19184 158.24062,126.86173 C 158.91775,127.55231 161.24220,128.00695 164.35699,128.30322 C 162.88212,132.10410 162.81441,132.36805 162.81441,132.62338 C 162.81441,133.05432 163.15932,133.40661 163.58252,133.40661 L 195.07739,133.40661 C 195.50060,133.40661 195.84551,133.05540 195.84551,132.62338 C 195.84551,132.36482 195.77462,132.09979 194.25003,128.27305 C 197.28652,127.98109 199.63742,127.53507 200.29762,126.86173 C 202.04122,125.08626 202.82627,118.26773 202.82627,113.99497 z "
         style="opacity:0.20000000;overflow:visible" />
      <path
         id="path1071"
         d="M 167.56170,99.240710 L 167.56170,99.240710 C 166.85707,99.305350 166.27622,99.845100 166.14714,100.55399 C 161.50141,101.10236 158.69874,101.90822 157.60688,103.02112 C 155.41045,105.25769 155.08246,110.54639 155.08246,113.50047 C 155.08246,118.45196 155.96696,124.61438 157.60688,126.28535 C 159.20236,127.90999 169.93588,128.23966 178.65812,128.23319 C 185.79441,128.22780 198.01126,127.96816 199.66281,126.28535 C 201.40642,124.50880 202.19252,117.68920 202.19252,113.41751 C 202.19252,110.49683 201.86348,105.26308 199.66281,103.02219 C 198.55931,101.89960 195.76087,101.09051 191.13736,100.54430 C 191.00828,99.834320 190.42849,99.294570 189.72280,99.231010 C 183.01289,98.613690 174.31499,98.618000 167.56170,99.240710 z M 166.14714,100.55507 L 166.14714,100.55615 C 166.14714,100.55507 166.14714,100.55507 166.14714,100.55507 z "
         style="fill:url(#linearGradient3076);fill-opacity:1.0000000;overflow:visible" />
      <path
         id="path1084"
         d="M 158.37817,125.88888 C 160.53333,128.08344 196.79666,128.02095 198.89047,125.88888 C 200.98427,123.75681 202.58398,107.95860 198.89047,104.19758 C 195.19695,100.43548 162.01138,100.49797 158.37817,104.19758 C 154.74601,107.89611 156.22406,123.69541 158.37817,125.88888 z "
         style="fill:url(#linearGradient3073);fill-opacity:1.0000000;overflow:visible" />
      <path
         id="path1095"
         d="M 178.63802,117.09773 C 187.58773,117.09773 195.61381,115.31796 201.07632,112.49962 C 200.95147,108.80001 200.31455,105.42899 198.89047,103.91962 C 195.19695,100.00562 162.01138,100.07134 158.37817,103.91962 C 156.97207,105.40959 156.33197,108.78923 156.19972,112.50069 C 161.66329,115.31796 169.68936,117.09773 178.63802,117.09773 z "
         style="fill:url(#linearGradient3070);fill-opacity:1.0000000;overflow:visible" />
      <path
         id="path1105"
         d="M 178.63802,116.47072 C 187.58773,116.47072 195.61381,114.75989 201.07632,112.05252 C 200.95147,108.49619 200.31455,105.25661 198.89047,103.80650 C 195.19695,100.04441 162.01138,100.10689 158.37817,103.80650 C 156.97207,105.23830 156.33197,108.48542 156.19972,112.05359 C 161.66329,114.76097 169.68936,116.47072 178.63802,116.47072 z "
         style="fill:url(#linearGradient3067);fill-opacity:1.0000000;overflow:visible" />
      <rect
         id="rect1106"
         height="0.80585557"
         width="31.754086"
         style="opacity:0.80000001;fill:#ffffff;overflow:visible"
         y="123.06300"
         x="162.87788" />
      <path
         id="path1113"
         d="M 167.13427,120.09060 C 166.74280,120.09060 166.40530,120.52477 166.36403,120.91477 C 166.36509,120.90077 166.36615,120.88676 166.36615,120.87276 C 166.36615,120.85767 166.35345,120.84905 166.35134,120.83397 C 166.18840,121.37911 165.34728,123.54996 164.34006,126.13775 C 162.26530,131.46415 162.17960,131.75935 162.17960,132.04592 C 162.17960,132.47686 162.52345,132.82808 162.94772,132.82808 L 194.44365,132.82808 C 194.86579,132.82808 195.21176,132.47794 195.21176,132.04592 C 195.21176,131.75504 195.12395,131.46092 193.00369,126.16038 C 192.11073,123.92919 191.35002,122.01798 191.04214,121.16472 C 190.97337,121.10223 190.92576,121.01604 190.91412,120.91585 C 190.87286,120.52693 190.53429,120.09060 190.14389,120.09060 L 167.13427,120.09060 z M 165.64988,120.73378 C 165.68373,120.88245 165.78213,121.00958 165.93660,121.03867 C 166.11223,121.07099 166.26987,120.96649 166.34076,120.80596 C 166.31007,120.64220 166.19475,120.50323 166.02230,120.48383 C 165.85090,120.46552 165.71441,120.57864 165.64988,120.73378 z "
         style="fill:url(#linearGradient3063);fill-opacity:1.0000000;overflow:visible" />
      <path
         id="path1120"
         d="M 193.65648,117.76569 L 193.65648,123.35496 C 194.04372,123.35496 194.31457,123.35496 194.44047,123.35496 C 194.44153,121.98027 193.65648,117.76569 193.65648,117.76569 z M 162.83662,123.35496 C 162.97734,123.35496 163.24396,123.35496 163.61215,123.35496 L 163.61215,117.76569 C 163.61215,117.76569 162.83662,121.98027 162.83662,123.35496 z "
         style="opacity:0.80000001;fill:url(#linearGradient3060);fill-opacity:1.0000000;overflow:visible" />
      <rect
         id="rect1127"
         height="4.6390562"
         width="30.044338"
         style="fill:url(#linearGradient3057);fill-opacity:1.0000000;overflow:visible"
         y="118.60278"
         x="163.61215" />
      <path
         id="path1128"
         d="M 189.60324,104.55849 C 193.18250,104.55849 196.61786,104.78797 199.81622,105.20921 C 199.55384,104.64576 199.24701,104.16957 198.88941,103.80650 C 195.19589,100.04441 162.01032,100.10689 158.37711,103.80650 C 156.97101,105.23830 156.33091,108.48542 156.19866,112.05359 C 157.21012,112.55456 158.30940,113.02213 159.48485,113.44984 C 162.84086,108.34321 175.05136,104.55849 189.60324,104.55849 z "
         style="opacity:0.89999968;fill:url(#linearGradient11457);fill-opacity:1.0000000;overflow:visible" />
      <circle
         transform="matrix(1.058011,0.000000,0.000000,1.077347,153.5621,83.33260)"
         sodipodi:ry="0.97200000"
         sodipodi:rx="0.97200000"
         sodipodi:cy="22.176001"
         sodipodi:cx="39.937000"
         id="circle1130"
         r="0.97200000"
         cy="22.176001"
         cx="39.937000"
         style="fill:#336666;overflow:visible" />
      <path
         id="path1137"
         d="M 196.13117,106.38567 C 195.75135,106.41907 195.19166,106.81338 195.00862,107.29387 C 194.82770,107.77329 195.11760,108.09542 195.49742,108.06202 C 195.87831,108.02970 196.43905,107.63432 196.61997,107.15490 C 196.80089,106.67548 196.51100,106.35335 196.13117,106.38567 z "
         style="fill:url(#linearGradient3096);fill-opacity:1.0000000;overflow:visible" />
      <path
         id="path1144"
         d="M 196.13435,106.37490 C 195.81060,106.40399 195.32708,106.74120 195.16309,107.14951 C 195.13241,107.22600 195.11548,107.29711 195.11125,107.36282 C 195.33766,107.30249 195.57360,107.21738 195.79473,107.11180 C 196.19677,106.92004 196.45492,106.70672 196.51735,106.53973 C 196.43800,106.42230 196.29728,106.35981 196.13435,106.37490 z "
         style="fill:url(#linearGradient3093);fill-opacity:1.0000000;overflow:visible" />
      <path
         id="path1146"
         d="M 201.07526,132.00942 C 201.07526,132.02343 201.07526,132.03851 201.07526,132.05252 C 201.07632,132.05252 201.07632,132.05252 201.07632,132.05252 C 201.07632,132.03851 201.07526,132.02343 201.07526,132.00942 z "
         style="fill:#ffffff;overflow:visible" />
      <path
         id="path1147"
         d="M 192.21759,115.05185 C 191.63992,110.79956 190.80197,104.90001 190.06665,100.74684 C 190.02645,100.52383 189.84659,100.35684 189.62652,100.33637 C 182.97375,99.726590 174.35096,99.729820 167.66115,100.34822 C 167.44109,100.36869 167.26123,100.53568 167.22102,100.75761 C 166.47618,104.91402 165.61179,110.80172 165.01401,115.04431 C 169.09688,115.95467 173.72779,116.47072 178.63802,116.47072 C 183.52920,116.47072 188.14531,115.95790 192.21759,115.05185 z "
         style="fill:#ffffff;overflow:visible" />
      <path
         id="path1154"
         d="M 167.70559,100.84380 C 166.93324,105.12410 166.02547,111.32100 165.48800,115.10033 C 169.48093,115.90726 173.93728,116.35759 178.63802,116.35759 C 183.32183,116.35759 187.76125,115.90942 191.74148,115.11003 C 191.22518,111.32854 190.34703,105.11763 189.58208,100.83195 C 182.93143,100.22648 174.35731,100.23402 167.70559,100.84380 z "
         style="fill:url(#linearGradient3034);fill-opacity:1.0000000;overflow:visible" />
      <path
         id="path1161"
         d="M 168.82285,84.972320 C 168.39859,84.972320 168.05473,85.322460 168.05473,85.754480 L 168.05473,110.13053 C 168.05473,110.56147 168.39859,110.91268 168.82285,110.91268 L 188.45107,110.91268 C 188.87428,110.91268 189.22024,110.56255 189.22024,110.13053 L 189.22024,85.754480 C 189.22024,85.322460 188.87533,84.972320 188.45107,84.972320 L 168.82285,84.972320 L 168.82285,84.972320 z "
         style="fill:url(#linearGradient3031);fill-opacity:1.0000000;overflow:visible" />
      <path
         id="path1162"
         d="M 168.82285,85.754480 C 168.82285,86.191880 168.82285,109.69420 168.82285,110.13053 C 169.25029,110.13053 188.02469,110.13053 188.45107,110.13053 C 188.45107,109.69420 188.45107,86.191880 188.45107,85.754480 C 188.02469,85.754480 169.25029,85.754480 168.82285,85.754480 z "
         style="fill:#ffffff;overflow:visible" />
      <path
         id="path1172"
         d="M 170.35802,87.317710 C 170.35802,89.869940 170.35802,106.01506 170.35802,108.56622 C 172.74596,108.56622 184.52797,108.56622 186.91590,108.56622 C 186.91590,106.01506 186.91590,89.869940 186.91590,87.317710 C 184.52902,87.317710 172.74701,87.317710 170.35802,87.317710 z "
         style="fill:url(#linearGradient3027);fill-opacity:1.0000000;overflow:visible" />
      <path
         id="path1173"
         d="M 167.13427,120.87276 C 167.13427,121.29939 162.94772,131.62037 162.94772,132.04592 C 163.99938,132.04592 193.39198,132.04592 194.44259,132.04592 C 194.44259,131.61929 190.14283,121.29831 190.14283,120.87276 C 189.09223,120.87276 168.18593,120.87276 167.13427,120.87276 z "
         style="fill:#ffffff;overflow:visible" />
      <path
         id="path1180"
         d="M 168.23777,122.43706 C 167.92672,123.28170 167.39454,124.66071 166.47089,127.03195 C 166.04451,128.12653 165.53773,129.42797 165.13568,130.48161 C 168.63770,130.48161 188.70288,130.48161 192.23558,130.48161 C 191.82295,129.42905 191.30558,128.13515 190.86968,127.04595 C 189.91747,124.66610 189.36942,123.28278 189.04990,122.43814 C 187.16559,122.43706 170.13690,122.43706 168.23777,122.43706 z "
         style="fill:url(#linearGradient3023);fill-opacity:1.0000000;overflow:visible" />
      <path
         id="path1181"
         d="M 168.13091,104.33763 C 167.38819,107.45009 166.51639,111.95556 166.00008,114.70387 C 169.83643,115.28994 174.11925,115.61853 178.63802,115.61853 C 183.13880,115.61853 187.40576,115.29210 191.23152,114.71033 C 190.73426,111.96094 189.88891,107.44578 189.15465,104.33009 C 182.76215,103.88838 174.52341,103.89484 168.13091,104.33763 z "
         style="fill:#0053bd;overflow:visible" />
      <path
         id="path1194"
         d="M 168.13091,104.85907 C 167.38819,108.00492 166.51639,112.55887 166.00008,115.33950 C 169.83643,115.93204 174.11925,116.26279 178.63802,116.26279 C 183.13880,116.26279 187.40576,115.93312 191.23152,115.34489 C 190.73426,112.56533 189.88891,108.00061 189.15465,104.85045 C 182.76215,104.40551 174.52341,104.41089 168.13091,104.85907 z "
         style="fill:url(#linearGradient3019);fill-opacity:1.0000000;overflow:visible" />
      <path
         id="path1195"
         d="M 189.23506,106.18852 C 189.30594,106.18852 189.37789,106.18959 189.44983,106.19067 C 189.34932,105.72633 189.25093,105.27816 189.15465,104.85692 C 182.76215,104.40335 174.52341,104.40874 168.13091,104.86553 C 167.42310,107.91658 166.59891,112.26583 166.07625,115.11541 C 169.50844,109.90752 178.58089,106.18852 189.23506,106.18852 z "
         style="opacity:0.65656567;fill:url(#linearGradient6901);fill-opacity:1.0000000;overflow:visible" />
      <path
         id="path1196"
         d="M 190.65068,123.32480 C 190.34068,121.88223 190.14389,120.90077 190.14389,120.73809 C 189.09328,120.73809 168.18699,120.73809 167.13532,120.73809 C 167.13532,120.90077 166.94277,121.88331 166.64229,123.32480 L 190.65068,123.32480 L 190.65068,123.32480 z "
         style="opacity:0.20000000;overflow:visible" />
    </g>
  </g>
</svg>
