<?xml version="1.0" encoding="UTF-8" standalone="no"?>
<!-- Created with Inkscape (http://www.inkscape.org/) -->
<svg
   xmlns:dc="http://purl.org/dc/elements/1.1/"
   xmlns:cc="http://web.resource.org/cc/"
   xmlns:rdf="http://www.w3.org/1999/02/22-rdf-syntax-ns#"
   xmlns:svg="http://www.w3.org/2000/svg"
   xmlns="http://www.w3.org/2000/svg"
   xmlns:xlink="http://www.w3.org/1999/xlink"
   xmlns:sodipodi="http://inkscape.sourceforge.net/DTD/sodipodi-0.dtd"
   xmlns:inkscape="http://www.inkscape.org/namespaces/inkscape"
   inkscape:export-ydpi="45.000000"
   inkscape:export-xdpi="45.000000"
   inkscape:export-filename="/home/pinheiro/artwork/oooicons/crystalsvg/deletemasterpage.png"
   sodipodi:docname="deletemasterpage.svg"
   sodipodi:docbase="/home/pinheiro/artwork/oooicons/crystalsvg"
   inkscape:version="0.41"
   sodipodi:version="0.32"
   id="svg1362"
   height="64px"
   width="64px">
  <defs
     id="defs3">
    <linearGradient
       id="graytolightgray">
      <stop
         id="stop5101"
         offset="0.0000000"
         style="stop-color:#d4d3d3;stop-opacity:1.0000000;" />
      <stop
         id="stop5102"
         offset="1.0000000"
         style="stop-color:#ffffff;stop-opacity:1.0000000;" />
    </linearGradient>
    <linearGradient
       y2="323.76923"
       x2="272.46765"
       y1="59.053604"
       x1="122.43015"
       gradientTransform="matrix(0.171508,0.000000,0.000000,0.178329,-7.799694,-2.340065)"
       gradientUnits="userSpaceOnUse"
       id="linearGradient1101"
       xlink:href="#graytolightgray"
       inkscape:collect="always" />
    <linearGradient
       id="light75to0">
      <stop
         id="stop2769"
         offset="0.0000000"
         style="stop-color:#ffffff;stop-opacity:0.72916669;" />
      <stop
         id="stop2770"
         offset="1.0000000"
         style="stop-color:#ffffff;stop-opacity:0.0000000;" />
    </linearGradient>
    <radialGradient
       r="508.29517"
       fy="52.577991"
       fx="53.182602"
       cy="52.577991"
       cx="53.182602"
       gradientTransform="matrix(0.209323,0.000000,0.000000,0.149380,-7.798324,-2.561637)"
       gradientUnits="userSpaceOnUse"
       id="radialGradient1100"
       xlink:href="#light75to0"
       inkscape:collect="always" />
    <linearGradient
       gradientUnits="userSpaceOnUse"
       y2="132.37485"
       x2="132.31468"
       y1="2.5693235"
       x1="19.717686"
       gradientTransform="matrix(0.739840,0.000000,0.000000,0.865051,-6.113757,0.365248)"
       id="linearGradient2838"
       xlink:href="#garylighttowite"
       inkscape:collect="always" />
    <linearGradient
       id="garylighttowite">
      <stop
         id="stop5106"
         offset="0.0000000"
         style="stop-color:#7d7d7d;stop-opacity:1.0000000;" />
      <stop
         id="stop5107"
         offset="1.0000000"
         style="stop-color:#d3d4d4;stop-opacity:1.0000000;" />
    </linearGradient>
    <linearGradient
       y2="648.29797"
       x2="578.44397"
       y1="-50.289883"
       x1="-37.332329"
       gradientTransform="matrix(0.171508,0.000000,0.000000,0.182318,-7.729634,-2.252678)"
       gradientUnits="userSpaceOnUse"
       id="linearGradient1102"
       xlink:href="#garylighttowite"
       inkscape:collect="always" />
    <radialGradient
       inkscape:collect="always"
       xlink:href="#light90to0"
       id="radialGradient1481"
       gradientUnits="userSpaceOnUse"
       gradientTransform="matrix(0.184210,0.000000,0.000000,7.817184e-2,66.02301,330.3594)"
       cx="123.88702"
       cy="391.47498"
       fx="124.57159"
       fy="391.47498"
       r="166.47372" />
    <linearGradient
       id="light90to0">
      <stop
         id="stop1890"
         offset="0.0000000"
         style="stop-color:#ffffff;stop-opacity:0.90196079;" />
      <stop
         id="stop1892"
         offset="1.0000000"
         style="stop-color:#ffffff;stop-opacity:0.0000000;" />
    </linearGradient>
    <linearGradient
       inkscape:collect="always"
       xlink:href="#light90to0"
       id="linearGradient1479"
       gradientUnits="userSpaceOnUse"
       x1="183.38441"
       y1="18.164442"
       x2="183.38441"
       y2="346.10425" />
    <linearGradient
       id="reddarktoblack">
      <stop
         id="stop3230"
         offset="0.0000000"
         style="stop-color:#8e0000;stop-opacity:1.0000000;" />
      <stop
         id="stop3231"
         offset="1.0000000"
         style="stop-color:#000000;stop-opacity:1.0000000;" />
    </linearGradient>
    <linearGradient
       inkscape:collect="always"
       xlink:href="#reddarktoblack"
       id="linearGradient1477"
       gradientUnits="userSpaceOnUse"
       gradientTransform="scale(1.000041,0.999959)"
       x1="-27.252979"
       y1="440.88812"
       x2="340.91357"
       y2="810.38373" />
    <linearGradient
       id="redtodarkred">
      <stop
         id="stop3856"
         offset="0.0000000"
         style="stop-color:#ff0000;stop-opacity:1.0000000;" />
      <stop
         id="stop3855"
         offset="1.0000000"
         style="stop-color:#920000;stop-opacity:1.0000000;" />
    </linearGradient>
    <radialGradient
       inkscape:collect="always"
       xlink:href="#redtodarkred"
       id="radialGradient1475"
       gradientUnits="userSpaceOnUse"
       gradientTransform="scale(1.000041,0.999959)"
       cx="217.18330"
       cy="739.74438"
       fx="217.18332"
       fy="742.83777"
       r="190.24219" />
  </defs>
  <sodipodi:namedview
     inkscape:window-y="25"
     inkscape:window-x="0"
     inkscape:window-height="536"
     inkscape:window-width="640"
     inkscape:grid-bbox="true"
     inkscape:document-units="px"
     showgrid="true"
     inkscape:current-layer="layer1"
     inkscape:cy="32.000000"
     inkscape:cx="32.000000"
     inkscape:zoom="5.5000000"
     inkscape:pageshadow="2"
     inkscape:pageopacity="0.0"
     borderopacity="1.0"
     bordercolor="#666666"
     pagecolor="#ffffff"
     id="base" />
  <metadata
     id="metadata4">
    <rdf:RDF
       id="RDF5">
      <cc:Work
         id="Work6"
         rdf:about="">
        <dc:format
           id="format7">image/svg+xml</dc:format>
        <dc:type
           rdf:resource="http://purl.org/dc/dcmitype/StillImage"
           id="type9" />
      </cc:Work>
    </rdf:RDF>
  </metadata>
  <g
     inkscape:groupmode="layer"
     inkscape:label="Layer 1"
     id="layer1">
    <path
       inkscape:export-ydpi="48.818890"
       inkscape:export-xdpi="48.818890"
       sodipodi:nodetypes="cccccc"
       id="path1105"
       d="M 25.494123,3.8992144 L 54.094199,3.6160455 L 54.010447,63.749171 L 2.5574295,63.789472 L 2.4158447,55.577569 L 25.494123,3.8992144 z "
       style="fill:#cbcbcb;fill-opacity:1.0000000;fill-rule:evenodd;stroke:none;stroke-width:0.25000000pt;stroke-linecap:butt;stroke-linejoin:miter;stroke-opacity:1.0000000" />
    <path
       sodipodi:nodetypes="ccccc"
       id="path1727"
       d="M 1.1415845,1.7754463 L 51.970431,1.9170309 L 51.334998,61.061812 L 1.0000000,61.524120 L 1.1415845,1.7754463 z "
       style="fill:#ffffff;fill-opacity:1.0000000;fill-rule:evenodd;stroke:none;stroke-width:0.25000000pt;stroke-linecap:butt;stroke-linejoin:miter;stroke-opacity:1.0000000" />
    <path
       sodipodi:nodetypes="ccccc"
       style="fill:url(#linearGradient1101);fill-opacity:1.0000000"
       id="path146"
       d="M 50.283134,2.9457336 L 2.2951991,2.9457336 L 2.2238351,59.892694 L 49.225546,60.000000 L 50.283134,2.9457336 z " />
    <path
       sodipodi:nodetypes="ccccc"
       style="fill:url(#radialGradient1100);fill-opacity:1.0000000"
       id="path195"
       d="M 50.406210,8.1594270 L 50.406210,2.8041492 L 2.2670439,2.8041492 L 2.2238351,33.820252 C 20.715079,40.176641 47.480454,24.134808 50.406210,8.1594270 z " />
    <path
       sodipodi:nodetypes="ccccccccccc"
       style="fill:url(#linearGradient1102);fill-opacity:1.0000000;stroke:url(#linearGradient2838);stroke-width:0.80000001;stroke-linecap:round;stroke-linejoin:round;stroke-miterlimit:4.0000000"
       id="path225"
       d="M 51.557774,2.0900818 C 51.557774,2.7728006 51.496188,60.756352 51.496188,61.040990 C 51.308291,61.240727 1.8021977,61.155482 1.1612625,61.155482 C 1.1612625,60.472073 1.1612625,2.7741954 1.1612625,2.0907784 C 1.8035033,2.0900818 50.916185,2.0900818 51.557774,2.0900818 z M 51.885106,1.3941374 L 0.50658940,1.3941374 L 0.50658940,61.850733 L 52.093390,61.799743 L 52.212447,1.3941374 L 51.885106,1.3941374 z " />
    <g
       inkscape:export-ydpi="36.000000"
       inkscape:export-xdpi="36.000000"
       transform="matrix(0.805413,0.000000,0.000000,0.778674,-25.56083,-257.2336)"
       id="g2344">
      <path
         transform="matrix(0.118265,0.000000,0.000000,0.118265,69.88085,278.1870)"
         sodipodi:nodetypes="ccccc"
         id="path14340"
         d="M 158.88978,443.12298 C 56.638690,443.12298 -26.360212,526.09492 -26.360212,628.34173 C -26.360212,730.58854 56.638696,813.59174 158.88978,813.59173 C 261.14088,813.59173 344.13979,730.58855 344.13978,628.34173 C 344.13978,526.09491 261.14088,443.12298 158.88978,443.12298 z "
         style="fill:#ffffff;fill-opacity:1.0000000;fill-rule:evenodd;stroke:none;stroke-width:10.000000;stroke-linecap:butt;stroke-linejoin:miter;stroke-miterlimit:4.0000000;stroke-opacity:1.0000000" />
      <path
         transform="matrix(0.118265,0.000000,0.000000,0.118265,69.88085,278.1870)"
         id="path14341"
         d="M 158.88978,443.12298 C 56.638690,443.12298 -26.360212,526.09492 -26.360212,628.34173 C -26.360212,730.58854 56.638696,813.59174 158.88978,813.59173 C 261.14088,813.59173 344.13979,730.58855 344.13978,628.34173 C 344.13978,526.09491 261.14088,443.12298 158.88978,443.12298 z M 82.858538,502.12298 C 89.337765,502.15450 95.826855,504.66801 100.76478,509.65423 L 157.63978,567.09173 L 215.17103,510.12298 C 225.14346,500.24712 241.13894,500.33805 251.01478,510.31048 L 277.67103,537.24798 C 287.54689,547.22040 287.48721,563.18462 277.51478,573.06048 L 219.98353,630.06048 L 277.01478,687.65423 C 286.89064,697.62666 286.83096,713.62210 276.85853,723.49798 L 249.92103,750.15423 C 239.94860,760.03008 223.95313,759.97039 214.07728,749.99798 L 157.01478,692.37298 L 99.514785,749.34173 C 89.542365,759.21758 73.546898,759.12666 63.671038,749.15423 L 37.014788,722.21673 C 27.138933,712.24431 27.198602,696.28010 37.171038,686.40423 L 94.702285,629.43548 L 37.796038,571.99798 C 27.920182,562.02555 28.011114,546.03009 37.983538,536.15423 L 64.921038,509.46673 C 69.907249,504.52880 76.379308,502.09145 82.858538,502.12298 z "
         style="fill:url(#radialGradient1475);fill-opacity:1.0000000;fill-rule:evenodd;stroke:url(#linearGradient1477);stroke-width:10.000000;stroke-linecap:butt;stroke-linejoin:miter;stroke-miterlimit:4.0000000;stroke-opacity:1.0000000" />
      <path
         transform="matrix(0.103856,0.000000,0.000000,7.422055e-2,69.32971,330.5797)"
         d="M 347.69102 185.68347 A 163.26007 163.26007 0 1 1  21.170883,185.68347 A 163.26007 163.26007 0 1 1  347.69102 185.68347 z"
         sodipodi:ry="163.26007"
         sodipodi:rx="163.26007"
         sodipodi:cy="185.68347"
         sodipodi:cx="184.43095"
         id="path9416"
         style="fill:url(#linearGradient1479);fill-opacity:1.0000000;fill-rule:evenodd;stroke:none;stroke-width:8.7072067;stroke-linecap:butt;stroke-linejoin:round;stroke-miterlimit:4.0000000;stroke-opacity:1.0000000"
         sodipodi:type="arc" />
      <path
         sodipodi:nodetypes="ccc"
         id="path9417"
         d="M 68.793739,356.08364 C 74.324352,379.37853 103.14474,378.71013 108.13801,355.93128 C 101.22668,375.04863 76.120459,375.01064 68.793739,356.08364 z "
         style="fill:url(#radialGradient1481);fill-opacity:1.0000000;fill-rule:evenodd;stroke:none;stroke-width:0.26240132pt;stroke-linecap:butt;stroke-linejoin:miter;stroke-opacity:1.0000000" />
    </g>
  </g>
</svg>
