<?xml version="1.0" encoding="UTF-8" standalone="no"?>
<!-- Created with Inkscape (http://www.inkscape.org/) -->
<svg
   xmlns:dc="http://purl.org/dc/elements/1.1/"
   xmlns:cc="http://web.resource.org/cc/"
   xmlns:rdf="http://www.w3.org/1999/02/22-rdf-syntax-ns#"
   xmlns:svg="http://www.w3.org/2000/svg"
   xmlns="http://www.w3.org/2000/svg"
   xmlns:xlink="http://www.w3.org/1999/xlink"
   xmlns:sodipodi="http://inkscape.sourceforge.net/DTD/sodipodi-0.dtd"
   xmlns:inkscape="http://www.inkscape.org/namespaces/inkscape"
   inkscape:export-ydpi="45.000000"
   inkscape:export-xdpi="45.000000"
   inkscape:export-filename="/home/pinheiro/kdeplayground-artwork/oooicons/crystalsvg/designerdialog.png"
   sodipodi:docname="designerdialog.svg"
   sodipodi:docbase="/home/pinheiro/kdeplayground-artwork/oooicons/crystalsvg"
   inkscape:version="0.41"
   sodipodi:version="0.32"
   id="svg1967"
   height="64px"
   width="64px">
  <defs
     id="defs3">
    <linearGradient
       y2="48.426991"
       x2="122.91101"
       y1="26.413313"
       x1="112.83246"
       gradientTransform="matrix(0.233887,0.000000,0.000000,9.851971e-2,39.57807,4.676342)"
       gradientUnits="userSpaceOnUse"
       id="linearGradient3572"
       xlink:href="#light100to0"
       inkscape:collect="always" />
    <linearGradient
       id="blacktowhite">
      <stop
         id="stop2476"
         offset="0.0000000"
         style="stop-color:#000000;stop-opacity:1.0000000;" />
      <stop
         id="stop2475"
         offset="1.0000000"
         style="stop-color:#ffffff;stop-opacity:1.0000000;" />
    </linearGradient>
    <linearGradient
       y2="299.38031"
       x2="48.348915"
       y1="263.33130"
       x1="63.510639"
       gradientTransform="matrix(0.134914,0.000000,0.000000,0.183847,38.34850,4.552256)"
       gradientUnits="userSpaceOnUse"
       id="linearGradient3570"
       xlink:href="#blacktowhite"
       inkscape:collect="always" />
    <linearGradient
       y2="-2.7694037"
       x2="113.51736"
       y1="94.234268"
       x1="55.499844"
       gradientTransform="matrix(0.728286,0.000000,0.000000,0.733176,-4.172737,3.764446)"
       gradientUnits="userSpaceOnUse"
       id="linearGradient3568"
       xlink:href="#orangetoyelow"
       inkscape:collect="always" />
    <linearGradient
       id="orangetoyelow">
      <stop
         id="stop2661"
         offset="0.0000000"
         style="stop-color:#ff7d00;stop-opacity:1.0000000;" />
      <stop
         id="stop2662"
         offset="1.0000000"
         style="stop-color:#ffff00;stop-opacity:1.0000000;" />
    </linearGradient>
    <linearGradient
       y2="-37.592434"
       x2="140.15146"
       y1="65.623413"
       x1="75.064339"
       gradientTransform="matrix(0.728286,0.000000,0.000000,0.733176,-4.172737,3.764446)"
       gradientUnits="userSpaceOnUse"
       id="linearGradient3566"
       xlink:href="#orangetoyelow"
       inkscape:collect="always" />
    <linearGradient
       id="orangelesstoyelow">
      <stop
         id="stop2689"
         offset="0.0000000"
         style="stop-color:#ff7d00;stop-opacity:1.0000000;" />
      <stop
         id="stop2690"
         offset="0.25358382"
         style="stop-color:#ffbe00;stop-opacity:1.0000000;" />
      <stop
         id="stop2691"
         offset="1.0000000"
         style="stop-color:#ffff00;stop-opacity:1.0000000;" />
    </linearGradient>
    <linearGradient
       y2="19.952200"
       x2="86.264603"
       y1="80.526398"
       x1="58.404800"
       gradientTransform="matrix(0.728286,0.000000,0.000000,0.733176,-4.172737,3.764446)"
       gradientUnits="userSpaceOnUse"
       id="linearGradient3564"
       xlink:href="#orangelesstoyelow"
       inkscape:collect="always" />
    <linearGradient
       id="orangetoblackorange">
      <stop
         id="stop4207"
         offset="0.0000000"
         style="stop-color:#ff8b00;stop-opacity:1.0000000;" />
      <stop
         id="stop4209"
         offset="1.0000000"
         style="stop-color:#4d0200;stop-opacity:1.0000000;" />
    </linearGradient>
    <linearGradient
       y2="0.95772386"
       x2="122.31405"
       y1="9.0542183"
       x1="68.581657"
       gradientTransform="matrix(0.664287,0.300537,-0.298532,0.668748,-4.172737,3.764446)"
       gradientUnits="userSpaceOnUse"
       id="linearGradient3562"
       xlink:href="#orangetoblackorange"
       inkscape:collect="always" />
    <linearGradient
       y2="89.022705"
       x2="31.406204"
       y1="71.470055"
       x1="23.972071"
       gradientTransform="matrix(2.908003,0.000000,0.000000,0.831096,-36.39988,-17.95800)"
       gradientUnits="userSpaceOnUse"
       id="linearGradient1965"
       xlink:href="#linearGradient7676"
       inkscape:collect="always" />
    <linearGradient
       y2="68.449188"
       x2="27.096176"
       y1="75.009636"
       x1="27.245455"
       spreadMethod="reflect"
       gradientTransform="matrix(2.825693,0.000000,0.000000,0.855304,-36.39988,-17.95800)"
       gradientUnits="userSpaceOnUse"
       id="linearGradient1963"
       xlink:href="#greylighttograyw"
       inkscape:collect="always" />
    <linearGradient
       id="linearGradient7676">
      <stop
         style="stop-color:#7d7d7d;stop-opacity:1.0000000;"
         offset="0.0000000"
         id="stop7678" />
      <stop
         style="stop-color:#d3d4d4;stop-opacity:1.0000000;"
         offset="1.0000000"
         id="stop7680" />
    </linearGradient>
    <linearGradient
       y2="89.022705"
       x2="31.406204"
       y1="71.470055"
       x1="23.972071"
       gradientTransform="matrix(2.908003,0.000000,0.000000,0.831096,-36.39988,-32.10854)"
       gradientUnits="userSpaceOnUse"
       id="linearGradient1961"
       xlink:href="#linearGradient7676"
       inkscape:collect="always" />
    <linearGradient
       id="greylighttograyw">
      <stop
         id="stop575"
         offset="0.0000000"
         style="stop-color:#b5b5b8;stop-opacity:1.0000000;" />
      <stop
         id="stop576"
         offset="1.0000000"
         style="stop-color:#ebebee;stop-opacity:1.0000000;" />
    </linearGradient>
    <linearGradient
       y2="68.449188"
       x2="27.096176"
       y1="75.009636"
       x1="27.245455"
       spreadMethod="reflect"
       gradientTransform="matrix(2.825693,0.000000,0.000000,0.855304,-36.39988,-32.10854)"
       gradientUnits="userSpaceOnUse"
       id="linearGradient1959"
       xlink:href="#greylighttograyw"
       inkscape:collect="always" />
    <linearGradient
       inkscape:collect="always"
       id="linearGradient5808">
      <stop
         style="stop-color:#ffffff;stop-opacity:1;"
         offset="0"
         id="stop5810" />
      <stop
         style="stop-color:#ffffff;stop-opacity:0;"
         offset="1"
         id="stop5812" />
    </linearGradient>
    <radialGradient
       r="9.3687143"
       fy="174.10931"
       fx="25.056116"
       cy="174.10931"
       cx="25.056116"
       gradientTransform="matrix(1.844875,0.000000,0.000000,0.578997,14.59806,-80.58372)"
       gradientUnits="userSpaceOnUse"
       id="radialGradient1957"
       xlink:href="#linearGradient5808"
       inkscape:collect="always" />
    <linearGradient
       y2="175.35120"
       x2="3.3466594"
       y1="166.42171"
       x1="-5.2588677"
       gradientTransform="matrix(1.927245,0.000000,0.000000,0.554252,14.59806,-80.58372)"
       gradientUnits="userSpaceOnUse"
       id="linearGradient1955"
       xlink:href="#light100to0"
       inkscape:collect="always" />
    <radialGradient
       r="24.045961"
       fy="271.80869"
       fx="5.1258984"
       cy="271.80869"
       cx="5.1258984"
       gradientTransform="matrix(3.040485,0.000000,0.000000,-9.436030e-2,14.02017,45.32859)"
       gradientUnits="userSpaceOnUse"
       id="radialGradient1953"
       xlink:href="#bluelignonlinblu"
       inkscape:collect="always" />
    <radialGradient
       cx="38.797401"
       cy="112.96090"
       r="67.358803"
       fx="38.797401"
       fy="112.96090"
       id="bluelignonlinblu"
       gradientUnits="userSpaceOnUse">
      <stop
         style="stop-color:#d9ffff;stop-opacity:1.0000000;"
         offset="0.0055999998"
         id="stop84" />
      <stop
         style="stop-color:#95d9ff;stop-opacity:1.0000000;"
         offset="0.13480000"
         id="stop86" />
      <stop
         style="stop-color:#68b9ff;stop-opacity:1.0000000;"
         offset="0.32049999"
         id="stop88" />
      <stop
         style="stop-color:#3293fe;stop-opacity:1.0000000;"
         offset="0.56800002"
         id="stop90" />
      <stop
         style="stop-color:#107bfe;stop-opacity:1.0000000;"
         offset="0.75340003"
         id="stop92" />
      <stop
         style="stop-color:#0372fe;stop-opacity:1.0000000;"
         offset="0.85390002"
         id="stop94" />
      <stop
         style="stop-color:#0356fe;stop-opacity:1.0000000;"
         offset="1.0000000"
         id="stop96" />
    </radialGradient>
    <radialGradient
       r="24.045961"
       fy="271.80869"
       fx="5.1258984"
       cy="271.80869"
       cx="5.1258984"
       gradientTransform="matrix(3.040406,0.000000,0.000000,0.462115,14.02063,-105.8861)"
       gradientUnits="userSpaceOnUse"
       id="radialGradient1951"
       xlink:href="#bluelignonlinblu"
       inkscape:collect="always" />
    <linearGradient
       id="graytolightgray">
      <stop
         style="stop-color:#d4d3d3;stop-opacity:1.0000000;"
         offset="0.0000000"
         id="stop5101" />
      <stop
         style="stop-color:#ffffff;stop-opacity:1.0000000;"
         offset="1.0000000"
         id="stop5102" />
    </linearGradient>
    <linearGradient
       y2="118.47764"
       x2="11.815157"
       y1="163.81963"
       x1="40.150562"
       spreadMethod="reflect"
       gradientTransform="matrix(1.284701,0.000000,0.000000,0.936296,14.59806,-91.79942)"
       gradientUnits="userSpaceOnUse"
       id="linearGradient1949"
       xlink:href="#graytolightgray"
       inkscape:collect="always" />
    <linearGradient
       id="garylighttowite">
      <stop
         id="stop5106"
         offset="0.0000000"
         style="stop-color:#7d7d7d;stop-opacity:1.0000000;" />
      <stop
         id="stop5107"
         offset="1.0000000"
         style="stop-color:#d3d4d4;stop-opacity:1.0000000;" />
    </linearGradient>
    <linearGradient
       y2="179.33521"
       x2="44.318043"
       y1="129.56383"
       x1="15.147017"
       gradientTransform="matrix(1.266634,0.000000,0.000000,0.949648,14.59808,-91.79942)"
       gradientUnits="userSpaceOnUse"
       id="linearGradient1947"
       xlink:href="#garylighttowite"
       inkscape:collect="always" />
    <linearGradient
       id="light100to0">
      <stop
         id="stop2764"
         offset="0.0000000"
         style="stop-color:#ffffff;stop-opacity:1.0000000;" />
      <stop
         id="stop2765"
         offset="1.0000000"
         style="stop-color:#ffffff;stop-opacity:0.0000000;" />
    </linearGradient>
    <linearGradient
       y2="44.098660"
       x2="-32.336327"
       y1="12.169693"
       x1="-67.228615"
       gradientTransform="matrix(-0.730798,3.179337e-3,-9.251311e-3,0.762972,37.47431,-10.27083)"
       gradientUnits="userSpaceOnUse"
       id="linearGradient7055"
       xlink:href="#light100to0"
       inkscape:collect="always" />
    <linearGradient
       y2="0.57959992"
       x2="69.161827"
       y1="13.491262"
       x1="77.009377"
       gradientTransform="scale(0.373878,2.674669)"
       gradientUnits="userSpaceOnUse"
       id="linearGradient7115"
       xlink:href="#linearGradient5201"
       inkscape:collect="always" />
    <linearGradient
       y2="0.57959992"
       x2="69.161827"
       y1="13.491262"
       x1="77.009377"
       gradientTransform="scale(0.373878,2.674669)"
       gradientUnits="userSpaceOnUse"
       id="linearGradient7113"
       xlink:href="#linearGradient5201"
       inkscape:collect="always" />
    <linearGradient
       y2="0.57959992"
       x2="69.161827"
       y1="13.491262"
       x1="77.009377"
       gradientTransform="scale(0.373878,2.674669)"
       gradientUnits="userSpaceOnUse"
       id="linearGradient7111"
       xlink:href="#linearGradient5201"
       inkscape:collect="always" />
    <linearGradient
       y2="0.57959992"
       x2="69.161827"
       y1="13.491262"
       x1="77.009377"
       gradientTransform="scale(0.373878,2.674669)"
       gradientUnits="userSpaceOnUse"
       id="linearGradient7109"
       xlink:href="#linearGradient5201"
       inkscape:collect="always" />
    <linearGradient
       y2="0.57959992"
       x2="69.161827"
       y1="13.491262"
       x1="77.009377"
       gradientTransform="scale(0.373878,2.674669)"
       gradientUnits="userSpaceOnUse"
       id="linearGradient7107"
       xlink:href="#linearGradient5201"
       inkscape:collect="always" />
    <linearGradient
       y2="0.57959992"
       x2="69.161827"
       y1="13.491262"
       x1="77.009377"
       gradientTransform="scale(0.373878,2.674669)"
       gradientUnits="userSpaceOnUse"
       id="linearGradient7105"
       xlink:href="#linearGradient5201"
       inkscape:collect="always" />
    <linearGradient
       y2="0.57959992"
       x2="69.161827"
       y1="13.491262"
       x1="77.009377"
       gradientTransform="scale(0.373878,2.674669)"
       gradientUnits="userSpaceOnUse"
       id="linearGradient7103"
       xlink:href="#linearGradient5201"
       inkscape:collect="always" />
    <linearGradient
       y2="0.57959992"
       x2="69.161827"
       y1="13.491262"
       x1="77.009377"
       gradientTransform="scale(0.373878,2.674669)"
       gradientUnits="userSpaceOnUse"
       id="linearGradient7101"
       xlink:href="#linearGradient5201"
       inkscape:collect="always" />
    <linearGradient
       y2="0.57959992"
       x2="69.161827"
       y1="13.491262"
       x1="77.009377"
       gradientTransform="scale(0.373878,2.674669)"
       gradientUnits="userSpaceOnUse"
       id="linearGradient7099"
       xlink:href="#linearGradient5201"
       inkscape:collect="always" />
    <linearGradient
       y2="0.57959992"
       x2="69.161827"
       y1="13.491262"
       x1="77.009377"
       gradientTransform="scale(0.373878,2.674669)"
       gradientUnits="userSpaceOnUse"
       id="linearGradient7097"
       xlink:href="#linearGradient5201"
       inkscape:collect="always" />
    <linearGradient
       y2="0.57959992"
       x2="69.161827"
       y1="13.491262"
       x1="77.009377"
       gradientTransform="scale(0.373878,2.674669)"
       gradientUnits="userSpaceOnUse"
       id="linearGradient7095"
       xlink:href="#linearGradient5201"
       inkscape:collect="always" />
    <linearGradient
       y2="0.57959992"
       x2="69.161827"
       y1="13.491262"
       x1="77.009377"
       gradientTransform="scale(0.373878,2.674669)"
       gradientUnits="userSpaceOnUse"
       id="linearGradient7093"
       xlink:href="#linearGradient5201"
       inkscape:collect="always" />
    <linearGradient
       y2="0.57959992"
       x2="69.161827"
       y1="13.491262"
       x1="77.009377"
       gradientTransform="scale(0.373878,2.674669)"
       gradientUnits="userSpaceOnUse"
       id="linearGradient7091"
       xlink:href="#linearGradient5201"
       inkscape:collect="always" />
    <linearGradient
       y2="0.57959992"
       x2="69.161827"
       y1="13.491262"
       x1="77.009377"
       gradientTransform="scale(0.373878,2.674669)"
       gradientUnits="userSpaceOnUse"
       id="linearGradient7089"
       xlink:href="#linearGradient5201"
       inkscape:collect="always" />
    <linearGradient
       y2="0.57959992"
       x2="69.161827"
       y1="13.491262"
       x1="77.009377"
       gradientTransform="scale(0.373878,2.674669)"
       gradientUnits="userSpaceOnUse"
       id="linearGradient7087"
       xlink:href="#linearGradient5201"
       inkscape:collect="always" />
    <linearGradient
       id="linearGradient5201">
      <stop
         style="stop-color:#7d7d7d;stop-opacity:1.0000000;"
         offset="0.0000000"
         id="stop5203" />
      <stop
         style="stop-color:#000000;stop-opacity:1.0000000;"
         offset="1.0000000"
         id="stop5205" />
    </linearGradient>
    <linearGradient
       gradientUnits="userSpaceOnUse"
       y2="0.57959992"
       x2="69.161827"
       y1="13.491262"
       x1="77.009377"
       gradientTransform="scale(0.373878,2.674669)"
       id="linearGradient6110"
       xlink:href="#linearGradient5201"
       inkscape:collect="always" />
    <linearGradient
       y2="-85.453560"
       x2="-66.785156"
       y1="36.941799"
       x1="64.388252"
       gradientTransform="matrix(-1.009281,4.392021e-3,-1.011067e-2,0.833845,110.5552,3.835302)"
       gradientUnits="userSpaceOnUse"
       id="linearGradient7076"
       xlink:href="#linearGradient5170"
       inkscape:collect="always" />
    <linearGradient
       id="linearGradient5170">
      <stop
         id="stop5171"
         offset="0.0000000"
         style="stop-color:#8f8fa6;stop-opacity:1.0000000;" />
      <stop
         id="stop5172"
         offset="1.0000000"
         style="stop-color:#ffffff;stop-opacity:1.0000000;" />
    </linearGradient>
    <linearGradient
       y2="34.489105"
       x2="-35.506561"
       y1="56.793480"
       x1="-19.521343"
       spreadMethod="reflect"
       gradientTransform="matrix(-0.821516,3.574233e-3,-8.229845e-3,0.678719,36.82356,-9.945584)"
       gradientUnits="userSpaceOnUse"
       id="linearGradient7074"
       xlink:href="#linearGradient5170"
       inkscape:collect="always" />
  </defs>
  <sodipodi:namedview
     inkscape:window-y="167"
     inkscape:window-x="337"
     inkscape:window-height="536"
     inkscape:window-width="640"
     inkscape:grid-bbox="true"
     inkscape:document-units="px"
     showgrid="true"
     inkscape:current-layer="layer1"
     inkscape:cy="32.000000"
     inkscape:cx="32.000000"
     inkscape:zoom="5.5000000"
     inkscape:pageshadow="2"
     inkscape:pageopacity="0.0"
     borderopacity="1.0"
     bordercolor="#666666"
     pagecolor="#ffffff"
     id="base" />
  <metadata
     id="metadata4">
    <rdf:RDF
       id="RDF5">
      <cc:Work
         id="Work6"
         rdf:about="">
        <dc:format
           id="format7">image/svg+xml</dc:format>
        <dc:type
           rdf:resource="http://purl.org/dc/dcmitype/StillImage"
           id="type9" />
      </cc:Work>
    </rdf:RDF>
  </metadata>
  <g
     inkscape:groupmode="layer"
     inkscape:label="Layer 1"
     id="layer1">
    <g
       transform="translate(2.173940e-6,-8.589178)"
       id="g1933">
      <path
         style="opacity:0.77865613;fill:#000000;fill-opacity:1.0000000;stroke:url(#linearGradient1947);stroke-width:4.1895814;stroke-linejoin:round;stroke-miterlimit:4.0000000;stroke-opacity:1.0000000"
         d="M 7.6089850,11.232344 L 56.391020,11.232344 C 58.888820,11.232344 60.899690,13.161770 60.899690,15.558398 L 60.899690,49.030766 C 60.899690,51.427407 58.888820,53.356834 56.391020,53.356834 L 7.6089850,53.356834 C 5.1111790,53.356834 3.1003120,51.427407 3.1003120,49.030766 L 3.1003120,15.558398 C 3.1003120,13.161770 5.1111790,11.232344 7.6089850,11.232344 z "
         id="rect3484" />
      <path
         style="fill:none;fill-opacity:1.0000000;stroke:#000000;stroke-width:5.2863312;stroke-linejoin:round;stroke-miterlimit:4.0000000;stroke-opacity:0.34841630"
         d="M 7.6089850,11.232344 L 56.391020,11.232344 C 58.888820,11.232344 60.899690,13.161770 60.899690,15.558398 L 60.899690,49.030766 C 60.899690,51.427407 58.888820,53.356834 56.391020,53.356834 L 7.6089850,53.356834 C 5.1111790,53.356834 3.1003120,51.427407 3.1003120,49.030766 L 3.1003120,15.558398 C 3.1003120,13.161770 5.1111790,11.232344 7.6089850,11.232344 z "
         id="rect1334" />
      <path
         style="fill:url(#linearGradient1949);fill-opacity:1.0000000;stroke:none;stroke-width:2.8199999;stroke-linejoin:round;stroke-miterlimit:4.0000000;stroke-opacity:1.0000000"
         d="M 7.6089850,11.232344 L 56.391020,11.232344 C 58.888820,11.232344 60.899690,13.161770 60.899690,15.558398 L 60.899690,49.030766 C 60.899690,51.427407 58.888820,53.356834 56.391020,53.356834 L 7.6089850,53.356834 C 5.1111790,53.356834 3.1003120,51.427407 3.1003120,49.030766 L 3.1003120,15.558398 C 3.1003120,13.161770 5.1111790,11.232344 7.6089850,11.232344 z "
         id="rect2110" />
      <path
         style="fill:url(#radialGradient1951);fill-opacity:1.0000000;stroke:none;stroke-width:3.4250000;stroke-linejoin:round;stroke-miterlimit:4.0000000;stroke-opacity:1.0000000"
         d="M 6.2423540,10.649723 C 3.9771520,10.649723 2.1597730,13.098659 2.1597730,16.151046 L 2.1597730,19.720609 L 61.840240,19.720609 L 61.840240,16.151046 C 61.840240,13.098659 60.022860,10.649723 57.757650,10.649723 L 6.2423540,10.649723 z "
         id="rect1336" />
      <path
         style="fill:url(#radialGradient1953);fill-opacity:1.0000000;stroke:none;stroke-width:3.4250000;stroke-linejoin:round;stroke-miterlimit:4.0000000;stroke-opacity:1.0000000"
         d="M 6.2416910,21.532815 C 3.9764280,21.532815 2.1590030,21.032768 2.1590030,20.409498 L 2.1590030,19.680624 L 61.841000,19.680624 L 61.841000,20.409498 C 61.841000,21.032768 60.023570,21.532815 57.758310,21.532815 L 6.2416910,21.532815 z "
         id="path3494" />
      <path
         style="fill:url(#linearGradient1955);fill-opacity:1.0000000;fill-rule:evenodd;stroke:none;stroke-width:1.0000000px;stroke-linecap:butt;stroke-linejoin:miter;stroke-opacity:1.0000000"
         d="M 33.827165,10.178792 C 31.162971,10.099928 8.0213790,10.155650 6.8665420,10.232373 C 3.6687400,10.444795 2.4220020,12.647523 2.2784940,15.258816 C 2.1307700,17.946835 2.3086920,15.932298 2.2784940,19.230887 C 6.1610350,19.074241 2.9697840,15.144819 8.3017600,13.725952 C 13.633736,12.307094 33.980193,13.262993 33.827165,10.178792 z "
         id="path3498" />
      <path
         style="fill:#ffffff;fill-opacity:0.11764706;fill-rule:evenodd;stroke:#ffffff;stroke-width:0.0000000;stroke-linecap:butt;stroke-linejoin:round;stroke-miterlimit:4.0000000;stroke-opacity:0.099547513"
         d="M 6.6982320,19.662308 C 6.6644730,19.591940 9.8413450,19.551567 11.167852,19.770645 C 11.391667,19.807608 11.719863,18.641381 11.999414,18.578935 C 12.204940,18.533029 12.349181,19.694577 12.692628,19.687247 C 28.252717,19.355121 59.051630,19.445389 59.086350,19.553956 C 59.120930,19.662062 28.138234,20.049323 12.830970,20.095658 C 12.268796,20.097341 12.352674,20.880658 12.103357,20.899204 C 11.867601,20.916769 11.587611,20.185476 11.375745,20.203996 C 10.034141,20.321217 6.7337700,19.736391 6.6982320,19.662308 z "
         id="path4268" />
      <path
         style="fill:#ffffff;fill-opacity:0.11764706;fill-rule:evenodd;stroke:#ffffff;stroke-width:0.10335266;stroke-linecap:butt;stroke-linejoin:round;stroke-miterlimit:4.0000000;stroke-opacity:0.099547513"
         d="M 7.8573270,19.758953 C 7.8467520,19.640249 10.212252,19.769033 11.561949,19.818954 C 11.788410,19.827347 11.673502,19.511177 11.953047,19.448744 C 12.158574,19.402854 12.024580,19.763344 12.368080,19.759731 C 27.881804,19.596734 59.194600,19.534718 59.086350,19.553956 C 58.750020,19.613742 27.883232,19.856032 12.529602,20.047319 C 11.967470,20.054318 12.236765,20.373270 11.987448,20.391829 C 11.751692,20.409366 11.865793,20.016349 11.653926,20.034866 C 10.312322,20.152088 7.8646780,19.841416 7.8573270,19.758953 z "
         id="path5038" />
      <path
         style="fill:#ffffff;fill-opacity:0.11764706;fill-rule:evenodd;stroke:#ffffff;stroke-width:0.51676333;stroke-linecap:butt;stroke-linejoin:round;stroke-miterlimit:4.0000000;stroke-opacity:0.099547513"
         d="M 7.8573270,19.758953 C 7.8467520,19.640249 10.212252,19.769033 11.561949,19.818954 C 11.788410,19.827347 11.673502,19.511177 11.953047,19.448744 C 12.158574,19.402854 12.024580,19.763344 12.368080,19.759731 C 27.881804,19.596734 59.194600,19.534718 59.086350,19.553956 C 58.750020,19.613742 27.883232,19.856032 12.529602,20.047319 C 11.967470,20.054318 12.236765,20.373270 11.987448,20.391829 C 11.751692,20.409366 11.865793,20.016349 11.653926,20.034866 C 10.312322,20.152088 7.8646780,19.841416 7.8573270,19.758953 z "
         id="path5040" />
      <path
         style="opacity:0.84980237;fill:url(#radialGradient1957);fill-opacity:1.0000000;fill-rule:evenodd;stroke:none;stroke-width:1.0000000px;stroke-linecap:butt;stroke-linejoin:miter;stroke-opacity:1.0000000"
         d="M 43.913481,20.570576 C 47.342112,20.686979 60.073920,21.290193 60.981530,20.466386 C 61.830090,19.696174 61.531160,14.105506 60.496540,14.243233 C 58.333890,13.955816 40.555870,13.808860 39.977399,13.874115 C 37.671309,14.134234 39.349634,17.799086 42.536239,19.631725 C 42.791799,20.143635 43.385556,20.598957 43.913481,20.570576 z "
         id="path5048" />
      <path
         sodipodi:nodetypes="ccccccccc"
         style="fill:url(#linearGradient1959);fill-opacity:1.0000000;stroke:url(#linearGradient1961);stroke-width:0.77526993;stroke-linejoin:round;stroke-miterlimit:4.0000000;stroke-opacity:0.44796380"
         d="M 10.764620,25.182815 L 52.301069,25.182815 C 54.482160,25.182815 56.238050,26.321595 56.238050,27.736132 L 56.238050,32.178059 C 56.238050,33.592597 54.482160,34.731376 52.301069,34.731376 L 10.764620,34.731376 C 8.5835330,34.731376 6.8276390,33.592597 6.8276390,32.178059 L 6.8276390,27.736132 C 6.8276390,26.321595 8.5835330,25.182815 10.764620,25.182815 z "
         id="rect8075" />
      <path
         sodipodi:nodetypes="ccccccccc"
         style="fill:url(#linearGradient1963);fill-opacity:1.0000000;stroke:url(#linearGradient1965);stroke-width:0.77526993;stroke-linejoin:round;stroke-miterlimit:4.0000000;stroke-opacity:0.44796380"
         d="M 10.764620,39.333356 L 52.301069,39.333356 C 54.482160,39.333356 56.238050,40.472137 56.238050,41.886673 L 56.238050,46.328600 C 56.238050,47.743137 54.482160,48.881917 52.301069,48.881917 L 10.764620,48.881917 C 8.5835330,48.881917 6.8276390,47.743137 6.8276390,46.328600 L 6.8276390,41.886673 C 6.8276390,40.472137 8.5835330,39.333356 10.764620,39.333356 z "
         id="rect9609" />
    </g>
    <g
       id="g1666"
       transform="matrix(-1.038018,0.000000,-8.203516e-3,1.011933,91.15778,24.22509)">
      <path
         sodipodi:nodetypes="cccccccc"
         id="path5257"
         d="M 85.728779,-3.3517238 L 85.450445,37.137832 L 36.304510,37.351665 L 85.728779,-3.3517238 z M 77.924575,13.910780 L 58.185564,30.211276 L 77.572770,29.992848 L 77.924575,13.910780 z "
         style="fill:none;fill-opacity:1.0000000;fill-rule:evenodd;stroke:#000000;stroke-width:2.4768586;stroke-linecap:butt;stroke-linejoin:round;stroke-miterlimit:4.0000000;stroke-opacity:0.076923080" />
      <path
         sodipodi:nodetypes="cccccccc"
         id="path5255"
         d="M 85.728779,-3.3517238 L 85.450445,37.137832 L 36.304510,37.351665 L 85.728779,-3.3517238 z M 77.924575,13.910780 L 58.185564,30.211276 L 77.572770,29.992848 L 77.924575,13.910780 z "
         style="fill:none;fill-opacity:1.0000000;fill-rule:evenodd;stroke:#000000;stroke-width:3.5776846;stroke-linecap:butt;stroke-linejoin:round;stroke-miterlimit:4.0000000;stroke-opacity:0.076923080" />
      <path
         sodipodi:nodetypes="cccccccc"
         id="path4487"
         d="M 85.728779,-3.3517238 L 85.450445,37.137832 L 36.304510,37.351665 L 85.728779,-3.3517238 z M 77.924575,13.910780 L 58.185564,30.211276 L 77.572770,29.992848 L 77.924575,13.910780 z "
         style="fill:none;fill-opacity:1.0000000;fill-rule:evenodd;stroke:#000000;stroke-width:2.6603296;stroke-linecap:butt;stroke-linejoin:round;stroke-miterlimit:4.0000000;stroke-opacity:0.076923080" />
      <path
         sodipodi:nodetypes="cccccccc"
         id="path1404"
         d="M 85.675521,-3.4523288 L 85.397185,37.037225 L 36.251253,37.251060 L 85.675521,-3.4523288 z M 77.871317,13.810175 L 58.132310,30.110672 L 77.519517,29.892245 L 77.871317,13.810175 z "
         style="opacity:0.84980237;fill:url(#linearGradient7074);fill-opacity:1.0000000;fill-rule:evenodd;stroke:url(#linearGradient7076);stroke-width:1.3760326;stroke-linecap:butt;stroke-linejoin:round;stroke-miterlimit:4.0000000;stroke-opacity:1.0000000" />
      <g
         transform="matrix(-1.133556e-2,-0.883751,1.079163,-7.581684e-4,45.13478,61.24898)"
         style="opacity:0.52173913;fill:url(#linearGradient6110);fill-opacity:1.0000000;stroke:none"
         id="g6079">
        <path
           id="path5261"
           d="M 27.387600,-2.2869200 L 27.325100,-1.0994200 L 32.543850,-0.84942000 L 32.606350,-2.0369200 L 27.387600,-2.2869200 z "
           style="fill:url(#linearGradient7087);fill-rule:evenodd;stroke-width:1.1897957px;stroke-linecap:butt;stroke-linejoin:miter;stroke-opacity:1.0000000" />
        <path
           id="path5263"
           d="M 27.387600,5.5255800 L 27.325100,6.7130800 L 32.543850,6.9630800 L 32.606350,5.7755800 L 27.387600,5.5255800 z "
           style="fill:url(#linearGradient7089);fill-rule:evenodd;stroke-width:1.1897957px;stroke-linecap:butt;stroke-linejoin:miter;stroke-opacity:1.0000000" />
        <path
           id="path5265"
           d="M 27.387600,13.369330 L 27.325100,14.556830 L 32.543850,14.775580 L 32.606350,13.588080 L 27.387600,13.369330 z "
           style="fill:url(#linearGradient7091);fill-rule:evenodd;stroke-width:1.1897957px;stroke-linecap:butt;stroke-linejoin:miter;stroke-opacity:1.0000000" />
        <path
           id="path5267"
           d="M 27.387600,21.181830 L 27.325100,22.369330 L 32.543850,22.619330 L 32.606350,21.431830 L 27.387600,21.181830 z "
           style="fill:url(#linearGradient7093);fill-rule:evenodd;stroke-width:1.1897957px;stroke-linecap:butt;stroke-linejoin:miter;stroke-opacity:1.0000000" />
        <path
           id="path5269"
           d="M 27.387600,28.994330 L 27.325100,30.181830 L 32.543850,30.431830 L 32.606350,29.244330 L 27.387600,28.994330 z "
           style="fill:url(#linearGradient7095);fill-rule:evenodd;stroke-width:1.1897957px;stroke-linecap:butt;stroke-linejoin:miter;stroke-opacity:1.0000000" />
        <path
           id="path5271"
           d="M 27.418850,0.46308000 L 27.325100,1.3693300 L 30.325100,1.5880800 L 30.387600,0.71308000 L 27.418850,0.46308000 z "
           style="fill:url(#linearGradient7097);fill-rule:evenodd;stroke-width:0.89852232px;stroke-linecap:butt;stroke-linejoin:miter;stroke-opacity:1.0000000" />
        <path
           id="path5273"
           d="M 27.418850,8.2755800 L 27.325100,9.1818300 L 30.325100,9.4318300 L 30.387600,8.5255800 L 27.418850,8.2755800 z "
           style="fill:url(#linearGradient7099);fill-rule:evenodd;stroke-width:0.89852232px;stroke-linecap:butt;stroke-linejoin:miter;stroke-opacity:1.0000000" />
        <path
           id="path5275"
           d="M 27.418850,16.119330 L 27.325100,17.025580 L 30.325100,17.244330 L 30.387600,16.338080 L 27.418850,16.119330 z "
           style="fill:url(#linearGradient7101);fill-rule:evenodd;stroke-width:0.89852232px;stroke-linecap:butt;stroke-linejoin:miter;stroke-opacity:1.0000000" />
        <path
           id="path5277"
           d="M 27.418850,23.931830 L 27.325100,24.838080 L 30.325100,25.056830 L 30.387600,24.181830 L 27.418850,23.931830 z "
           style="fill:url(#linearGradient7103);fill-rule:evenodd;stroke-width:0.89852232px;stroke-linecap:butt;stroke-linejoin:miter;stroke-opacity:1.0000000" />
        <path
           id="path5279"
           d="M 27.418850,31.775580 L 27.325100,32.650580 L 30.325100,32.900580 L 30.387600,31.994330 L 27.418850,31.775580 z "
           style="fill:url(#linearGradient7105);fill-rule:evenodd;stroke-width:0.89852232px;stroke-linecap:butt;stroke-linejoin:miter;stroke-opacity:1.0000000" />
        <path
           id="path5281"
           d="M 27.418850,3.0880800 L 27.325100,3.9630800 L 30.325100,4.2130800 L 30.387600,3.3068300 L 27.418850,3.0880800 z "
           style="fill:url(#linearGradient7107);fill-rule:evenodd;stroke-width:0.89852232px;stroke-linecap:butt;stroke-linejoin:miter;stroke-opacity:1.0000000" />
        <path
           id="path5283"
           d="M 27.418850,10.900580 L 27.325100,11.806830 L 30.325100,12.025580 L 30.387600,11.150580 L 27.418850,10.900580 z "
           style="fill:url(#linearGradient7109);fill-rule:evenodd;stroke-width:0.89852232px;stroke-linecap:butt;stroke-linejoin:miter;stroke-opacity:1.0000000" />
        <path
           id="path5285"
           d="M 27.418850,18.713080 L 27.325100,19.619330 L 30.325100,19.869330 L 30.387600,18.963080 L 27.418850,18.713080 z "
           style="fill:url(#linearGradient7111);fill-rule:evenodd;stroke-width:0.89852232px;stroke-linecap:butt;stroke-linejoin:miter;stroke-opacity:1.0000000" />
        <path
           id="path5287"
           d="M 27.418850,26.556830 L 27.325100,27.431830 L 30.325100,27.681830 L 30.387600,26.775580 L 27.418850,26.556830 z "
           style="fill:url(#linearGradient7113);fill-rule:evenodd;stroke-width:0.89852232px;stroke-linecap:butt;stroke-linejoin:miter;stroke-opacity:1.0000000" />
        <path
           id="path5289"
           d="M 27.418850,34.369330 L 27.325100,35.275580 L 30.325100,35.494330 L 30.387600,34.619330 L 27.418850,34.369330 z "
           style="fill:url(#linearGradient7115);fill-rule:evenodd;stroke-width:0.89852232px;stroke-linecap:butt;stroke-linejoin:miter;stroke-opacity:1.0000000" />
      </g>
      <path
         sodipodi:nodetypes="cccc"
         id="path2943"
         d="M 85.774735,-3.1068898 C 81.702143,0.21799721 75.678943,5.6965577 71.606350,9.0214439 C 72.401520,13.353053 82.111905,7.9925237 85.798846,11.909328 C 85.619978,5.8767631 85.953601,2.9256752 85.774735,-3.1068898 z "
         style="fill:url(#linearGradient7055);fill-opacity:1.0000000;fill-rule:evenodd;stroke:none;stroke-width:1.0000000px;stroke-linecap:butt;stroke-linejoin:miter;stroke-opacity:1.0000000" />
    </g>
    <g
       transform="translate(-9.000001,5.000000)"
       id="g3552">
      <path
         id="path145"
         style="fill:url(#linearGradient3562);fill-opacity:1.0000000"
         d="M 56.322054,48.386285 L 73.139371,11.208865 C 73.654997,9.9214066 71.554338,7.7873812 68.254479,6.2763080 C 64.961900,4.7644966 61.931506,4.5694729 61.359802,5.8276025 L 44.505272,43.232060 L 44.000433,58.142284 C 43.976386,58.852294 44.961117,59.281812 45.477524,58.786568 L 56.322054,48.386285 z " />
      <path
         id="path147"
         style="fill:#fff0dc"
         d="M 45.282902,43.747488 L 44.699554,58.365556 L 55.206518,48.253585 L 55.132964,48.220597 C 55.211618,48.165606 55.282993,48.105488 55.341253,48.037305 L 55.396601,48.062228 L 72.085257,11.097674 C 72.586318,9.9979127 70.753953,8.0806550 67.998850,6.8137228 C 65.240834,5.5467983 62.603712,5.4126234 62.104837,6.5116542 L 45.363744,43.452015 L 45.282902,43.747488 z " />
      <path
         id="path162"
         style="fill:url(#linearGradient3564);fill-opacity:1.0000000"
         d="M 62.207525,6.2887698 C 61.866688,7.1333888 62.843319,8.4318485 64.538767,9.5572719 L 47.735775,46.629601 C 46.236964,45.645680 45.360108,44.320098 45.337526,43.470343 L 62.199514,6.2843725 L 62.207525,6.2887698 z " />
      <path
         id="path177"
         style="fill:url(#linearGradient3566);fill-opacity:1.0000000"
         d="M 55.504386,47.916329 C 55.124951,48.755083 53.434601,48.837934 51.490804,48.318109 L 68.287251,11.261908 C 70.194629,11.781725 71.770304,11.690095 72.173774,10.892394 L 55.978502,46.853954 C 55.970488,46.884013 55.591786,47.721306 55.504386,47.916329 z " />
      <path
         id="path192"
         style="fill:url(#linearGradient3568);fill-opacity:1.0000000"
         d="M 49.450156,47.575399 C 48.823825,47.287991 48.251402,46.966135 47.735775,46.628871 L 64.538767,9.5572719 C 65.065317,9.9040603 65.653771,10.238394 66.298304,10.534597 C 66.979250,10.847667 67.653642,11.089609 68.287979,11.261170 L 51.491536,48.318109 C 50.840451,48.145818 50.147846,47.896533 49.450156,47.575399 z " />
      <path
         id="path6041"
         style="fill:#000000;fill-opacity:1.0000000;stroke:#000000;stroke-width:0.14385101;stroke-linecap:butt;stroke-linejoin:round;stroke-miterlimit:4.0000000;stroke-dashoffset:0.0000000;stroke-opacity:0.084374972"
         d="M 69.033715,9.6867019 C 68.678978,9.9957270 67.556324,9.7942141 66.526500,9.2366650 C 65.496676,8.6791156 64.949850,7.9767672 65.305278,7.6681160 C 65.660015,7.3590908 66.782669,7.5606038 67.812493,8.1181532 C 68.842316,8.6757023 69.389143,9.3780507 69.033715,9.6867019 L 69.033715,9.6867019 z " />
      <path
         id="path6042"
         style="fill:url(#linearGradient3570);fill-opacity:1.0000000;fill-rule:evenodd;stroke:none;stroke-width:0.094361210pt;stroke-linecap:butt;stroke-linejoin:miter;stroke-opacity:1.0000000"
         d="M 44.847036,52.810778 L 44.650306,58.410756 L 48.759805,54.518572 C 47.717855,54.928591 45.285074,54.161033 44.847036,52.810778 z " />
      <path
         id="path7289"
         style="fill:url(#linearGradient3572);fill-opacity:1.0000000;fill-rule:evenodd;stroke:none;stroke-width:0.25000000pt;stroke-linecap:butt;stroke-linejoin:miter;stroke-opacity:1.0000000"
         d="M 68.848847,9.0425439 C 68.216861,8.8003198 67.446015,8.4369686 67.098726,8.5763702 C 66.745953,8.7179630 66.068098,8.5443710 65.406942,8.3706952 C 64.860413,7.5134090 65.722936,7.4908969 66.500767,7.6302910 C 67.264531,7.7671667 68.688420,8.5626530 68.848847,9.0425439 z " />
    </g>
  </g>
</svg>
