<?xml version="1.0" encoding="UTF-8" standalone="no"?>
<!-- Created with Inkscape (http://www.inkscape.org/) -->
<svg
   xmlns:dc="http://purl.org/dc/elements/1.1/"
   xmlns:cc="http://web.resource.org/cc/"
   xmlns:rdf="http://www.w3.org/1999/02/22-rdf-syntax-ns#"
   xmlns:svg="http://www.w3.org/2000/svg"
   xmlns="http://www.w3.org/2000/svg"
   xmlns:xlink="http://www.w3.org/1999/xlink"
   xmlns:sodipodi="http://inkscape.sourceforge.net/DTD/sodipodi-0.dtd"
   xmlns:inkscape="http://www.inkscape.org/namespaces/inkscape"
   inkscape:export-ydpi="36.000000"
   inkscape:export-xdpi="36.000000"
   inkscape:export-filename="/home/nuno/kdeplayground-artwork/oooicons/crystalsvg/doubleunderline.png"
   sodipodi:docname="doubleundeline.svg"
   sodipodi:docbase="/home/nuno/kdeplayground-artwork/oooicons/crystalsvg"
   inkscape:version="0.41"
   sodipodi:version="0.32"
   id="svg6618"
   height="64pt"
   width="64pt">
  <defs
     id="defs3">
    <linearGradient
       id="wihitetolightgray">
      <stop
         id="stop1885"
         offset="0.0000000"
         style="stop-color:#ffffff;stop-opacity:1.0000000;" />
      <stop
         id="stop1886"
         offset="1.0000000"
         style="stop-color:#d5d4d4;stop-opacity:1.0000000;" />
    </linearGradient>
    <linearGradient
       id="light100to0">
      <stop
         id="stop2764"
         offset="0.0000000"
         style="stop-color:#ffffff;stop-opacity:1.0000000;" />
      <stop
         id="stop2765"
         offset="1.0000000"
         style="stop-color:#ffffff;stop-opacity:0.0000000;" />
    </linearGradient>
    <linearGradient
       y2="351.92505"
       x2="190.95435"
       y1="-43.841412"
       x1="33.142147"
       gradientTransform="matrix(0.321656,0.000000,0.000000,0.320964,-6.277469,-23.90125)"
       gradientUnits="userSpaceOnUse"
       id="linearGradient4749"
       xlink:href="#light100to0"
       inkscape:collect="always" />
    <linearGradient
       id="yelowtoorange">
      <stop
         id="stop3105"
         offset="0.0000000"
         style="stop-color:#ffff00;stop-opacity:1.0000000;" />
      <stop
         id="stop3107"
         offset="1.0000000"
         style="stop-color:#ff8c00;stop-opacity:1.0000000;" />
    </linearGradient>
    <linearGradient
       y2="318.86072"
       x2="262.79349"
       y1="61.150455"
       x1="1.9200591"
       gradientTransform="matrix(0.321656,0.000000,0.000000,0.320964,-6.277470,-23.90127)"
       gradientUnits="userSpaceOnUse"
       id="linearGradient4750"
       xlink:href="#yelowtoorange"
       inkscape:collect="always" />
    <linearGradient
       gradientUnits="userSpaceOnUse"
       y2="62.577965"
       x2="35.577473"
       y1="21.588600"
       x1="25.937859"
       gradientTransform="scale(1.340480,0.746001)"
       id="linearGradient8532"
       xlink:href="#light100to0"
       inkscape:collect="always" />
    <radialGradient
       gradientUnits="userSpaceOnUse"
       r="78.305862"
       fy="58.919807"
       fx="57.689056"
       cy="58.919807"
       cx="57.689056"
       gradientTransform="matrix(1.100816,0.000000,0.000000,1.098778,-3.515610,-5.638681)"
       id="radialGradient3565"
       xlink:href="#wihitetolightgray"
       inkscape:collect="always" />
    <linearGradient
       y2="60.220398"
       x2="69.812103"
       y1="-66.487915"
       x1="-115.55275"
       gradientTransform="matrix(1.100980,0.000000,0.000000,1.098613,-3.515610,-5.638681)"
       gradientUnits="userSpaceOnUse"
       id="linearGradient4188"
       xlink:href="#light100to0"
       inkscape:collect="always" />
    <linearGradient
       gradientUnits="userSpaceOnUse"
       y2="24.594734"
       x2="30.015570"
       y1="43.936138"
       x1="29.849651"
       gradientTransform="scale(0.885635,1.129133)"
       id="linearGradient5507"
       xlink:href="#light100to0"
       inkscape:collect="always" />
    <linearGradient
       y2="24.594734"
       x2="30.015570"
       y1="43.936138"
       x1="29.849651"
       gradientTransform="matrix(1.818140,0.000000,-1.718522e-2,2.406335,-21.91481,-34.98046)"
       gradientUnits="userSpaceOnUse"
       id="linearGradient5516"
       xlink:href="#light100to0"
       inkscape:collect="always" />
  </defs>
  <sodipodi:namedview
     inkscape:window-y="25"
     inkscape:window-x="0"
     inkscape:window-height="904"
     inkscape:window-width="1278"
     gridoriginx="0.0000000pt"
     gridoriginy="0.0000000pt"
     gridspacingx="1.0000000pt"
     gridspacingy="1.0000000pt"
     inkscape:grid-bbox="false"
     showgrid="false"
     inkscape:current-layer="layer1"
     inkscape:cy="33.157463"
     inkscape:cx="40.000000"
     inkscape:zoom="9.3125000"
     inkscape:pageshadow="2"
     inkscape:pageopacity="0.0"
     borderopacity="1.0"
     bordercolor="#666666"
     pagecolor="#ffffff"
     id="base" />
  <metadata
     id="metadata4">
    <rdf:RDF
       id="RDF5">
      <cc:Work
         id="Work6"
         rdf:about="">
        <dc:format
           id="format7">image/svg+xml</dc:format>
        <dc:type
           rdf:resource="http://purl.org/dc/dcmitype/StillImage"
           id="type9" />
      </cc:Work>
    </rdf:RDF>
  </metadata>
  <g
     inkscape:groupmode="layer"
     inkscape:label="Layer 1"
     id="layer1">
    <path
       id="rect748"
       d="M 17.363522,5.4362783 L 63.836225,5.4362783 C 70.610228,5.4362783 76.063666,11.141084 76.063666,18.227308 L 76.063666,63.441576 C 76.063666,70.527800 70.610228,76.232605 63.836225,76.232605 L 17.363522,76.232605 C 10.589521,76.232605 5.1360829,70.527800 5.1360829,63.441576 L 5.1360829,18.227308 C 5.1360829,11.141084 10.589521,5.4362783 17.363522,5.4362783 z "
       style="font-size:12.000000;fill:url(#radialGradient3565);fill-opacity:1.0000000;fill-rule:evenodd;stroke:none;stroke-width:23.112499;stroke-linejoin:round" />
    <rect
       inkscape:export-ydpi="36.000000"
       inkscape:export-xdpi="36.000000"
       ry="0.0000000"
       rx="0.0000000"
       y="64.266304"
       x="22.989048"
       height="2.4114025"
       width="34.726273"
       id="rect1085"
       style="fill:#2f2f2a;fill-opacity:0.77499998;stroke:none;stroke-width:11.075000;stroke-linecap:butt;stroke-linejoin:round;stroke-miterlimit:4.0000000;stroke-dashoffset:0.0000000;stroke-opacity:0.17499997" />
    <rect
       inkscape:export-ydpi="36.000000"
       inkscape:export-xdpi="36.000000"
       ry="0.0000000"
       rx="0.0000000"
       y="57.080372"
       x="22.866678"
       height="2.2957771"
       width="34.726273"
       id="rect5494"
       style="fill:#2f2f2a;fill-opacity:0.77499998;stroke:none;stroke-width:11.075000;stroke-linecap:butt;stroke-linejoin:round;stroke-miterlimit:4.0000000;stroke-dashoffset:0.0000000;stroke-opacity:0.17499997" />
    <path
       sodipodi:nodetypes="ccccccc"
       id="path2872"
       d="M 17.366479,3.6757196 C 10.592477,3.6757196 5.1360829,9.3796245 5.1360829,16.465850 L 5.1360829,61.677001 C 5.1360829,63.949825 5.7408688,66.050840 6.7265310,67.896800 C 48.245418,71.063784 33.143469,14.308762 74.622856,10.546533 C 72.582211,6.4730642 68.559587,3.6757196 63.841986,3.6757196 L 17.366479,3.6757196 z "
       style="font-size:12.000000;fill:url(#linearGradient4749);fill-opacity:1.0000000;fill-rule:evenodd;stroke:none;stroke-width:23.112499;stroke-linejoin:round" />
    <path
       inkscape:export-ydpi="36.000000"
       inkscape:export-xdpi="36.000000"
       inkscape:export-filename="/home/nuno/kdeplayground-artwork/oooicons/crystalsvg/text4853.png"
       id="text5499"
       d="M 51.820474,24.672206 C 51.857732,19.455193 52.454823,18.636831 56.498622,18.125356 L 56.505558,17.153560 L 45.074892,17.153560 L 45.067955,18.125356 C 48.908825,18.432242 49.689116,19.557487 49.652590,24.672206 L 49.553965,38.481966 C 49.529127,41.959977 49.170354,43.903579 48.371076,45.437994 C 47.023249,47.893059 43.858632,49.478627 40.163378,49.478627 C 36.665200,49.478627 34.259730,48.251091 32.946605,45.847171 C 32.071433,44.210462 31.740055,42.318008 31.763067,39.095733 L 31.879955,22.728611 C 31.906255,19.046012 32.452251,18.483389 36.396412,18.125356 L 36.403351,17.153560 L 22.459906,17.153560 L 22.452969,18.125356 C 26.343109,18.432242 26.881068,18.994866 26.854405,22.728611 L 26.740438,38.686556 C 26.677248,47.535023 30.638183,51.729106 39.014094,51.729106 C 44.384531,51.729106 48.092581,49.938951 50.038953,46.460939 C 51.236778,44.312755 51.697011,41.959977 51.725138,38.021641 L 51.820474,24.672206"
       style="writing-mode:lr-tb;text-anchor:start;font-family:Times;stroke-opacity:1.0000000;stroke-miterlimit:4.0000000;stroke-linejoin:miter;stroke-linecap:butt;stroke-width:1.1611819;stroke:#000000;fill-opacity:1.0000000;fill:#000000;font-stretch:normal;font-weight:normal;font-variant:normal;font-style:normal;font-size:24.000000" />
    <path
       id="text4853"
       d="M 51.948931,24.940721 C 51.986189,19.723708 52.583279,18.905346 56.627078,18.393874 L 56.634019,17.422075 L 45.203350,17.422075 L 45.196408,18.393874 C 49.037281,18.700755 49.817573,19.826002 49.781046,24.940721 L 49.682422,38.750482 C 49.657584,42.228494 49.298811,44.172093 48.499533,45.706509 C 47.151708,48.161574 43.987091,49.747142 40.291835,49.747142 C 36.793659,49.747142 34.388184,48.519605 33.075063,46.115685 C 32.199889,44.478976 31.868514,42.586524 31.891526,39.364248 L 32.008413,22.997126 C 32.034714,19.314529 32.580705,18.751904 36.524869,18.393874 L 36.531811,17.422075 L 22.588366,17.422075 L 22.581424,18.393874 C 26.471568,18.700755 27.009526,19.263380 26.982862,22.997126 L 26.868893,38.955071 C 26.805702,47.803538 30.766639,51.997623 39.142551,51.997623 C 44.512989,51.997623 48.221039,50.207464 50.167412,46.729453 C 51.365233,44.581270 51.825469,42.228494 51.853594,38.290157 L 51.948931,24.940721"
       style="font-size:24.000000;font-style:normal;font-variant:normal;font-weight:normal;font-stretch:normal;fill:url(#linearGradient5516);fill-opacity:1.0000000;stroke:#000000;stroke-width:1.3625000;stroke-linecap:butt;stroke-linejoin:miter;stroke-miterlimit:4.0000000;stroke-opacity:1.0000000;font-family:Times;text-anchor:start;writing-mode:lr-tb" />
    <path
       sodipodi:nodetypes="ccccccc"
       id="path3566"
       d="M 17.366479,3.6757196 C 10.592477,3.6757196 5.1360829,9.3796245 5.1360829,16.465850 L 5.1360829,61.677001 C 5.1360829,63.949825 5.7408688,66.050840 6.7265310,67.896800 C 48.245418,71.063784 33.143469,14.308762 74.622856,10.546533 C 72.582211,6.4730642 68.559587,3.6757196 63.841986,3.6757196 L 17.366479,3.6757196 z "
       style="font-size:12.000000;fill:url(#linearGradient4188);fill-opacity:1.0000000;fill-rule:evenodd;stroke:none;stroke-width:23.112499;stroke-linejoin:round" />
    <path
       id="path3499"
       d="M 16.901929,4.7531007 L 63.374644,4.7531007 C 70.148631,4.7531007 75.602070,10.457906 75.602070,17.544130 L 75.602070,62.758398 C 75.602070,69.844622 70.148631,75.549427 63.374644,75.549427 L 16.901929,75.549427 C 10.127927,75.549427 4.6744886,69.844622 4.6744886,62.758398 L 4.6744886,17.544130 C 4.6744886,10.457906 10.127927,4.7531007 16.901929,4.7531007 z "
       style="font-size:12.000000;fill:none;fill-opacity:1.0000000;fill-rule:evenodd;stroke:url(#linearGradient4750);stroke-width:7.4262762;stroke-linejoin:round" />
    <path
       id="path5996"
       d="M 16.901929,4.7531007 L 63.374644,4.7531007 C 70.148631,4.7531007 75.602070,10.457906 75.602070,17.544130 L 75.602070,62.758398 C 75.602070,69.844622 70.148631,75.549427 63.374644,75.549427 L 16.901929,75.549427 C 10.127927,75.549427 4.6744885,69.844622 4.6744885,62.758398 L 4.6744885,17.544130 C 4.6744885,10.457906 10.127927,4.7531007 16.901929,4.7531007 z "
       style="font-size:12.000000;fill:none;fill-opacity:1.0000000;fill-rule:evenodd;stroke:#a76b37;stroke-width:9.0733232;stroke-linejoin:round;stroke-miterlimit:4.0000000;stroke-opacity:0.17499997" />
  </g>
</svg>
