<?xml version="1.0" encoding="UTF-8" standalone="no"?>
<!-- Created with Inkscape (http://www.inkscape.org/) -->
<svg
   xmlns:dc="http://purl.org/dc/elements/1.1/"
   xmlns:cc="http://web.resource.org/cc/"
   xmlns:rdf="http://www.w3.org/1999/02/22-rdf-syntax-ns#"
   xmlns:svg="http://www.w3.org/2000/svg"
   xmlns="http://www.w3.org/2000/svg"
   xmlns:xlink="http://www.w3.org/1999/xlink"
   xmlns:sodipodi="http://inkscape.sourceforge.net/DTD/sodipodi-0.dtd"
   xmlns:inkscape="http://www.inkscape.org/namespaces/inkscape"
   width="64px"
   height="64px"
   id="svg2742"
   sodipodi:version="0.32"
   inkscape:version="0.41"
   sodipodi:docbase="/home/pinheiro/artwork/oooicons/crystalsvg"
   sodipodi:docname="drawtext.svg"
   inkscape:export-filename="/home/pinheiro/artwork/oooicons/crystalsvg-reusable/formelcursor.png"
   inkscape:export-xdpi="45.000000"
   inkscape:export-ydpi="45.000000">
  <defs
     id="defs3">
    <linearGradient
       id="light100to0">
      <stop
         style="stop-color:#ffffff;stop-opacity:1.0000000;"
         offset="0.0000000"
         id="stop2764" />
      <stop
         style="stop-color:#ffffff;stop-opacity:0.0000000;"
         offset="1.0000000"
         id="stop2765" />
    </linearGradient>
    <linearGradient
       inkscape:collect="always"
       xlink:href="#light100to0"
       id="linearGradient2704"
       gradientTransform="scale(1.765446,0.566429)"
       x1="52.941071"
       y1="381.62640"
       x2="59.143284"
       y2="391.13461"
       gradientUnits="userSpaceOnUse" />
    <linearGradient
       id="light75to0">
      <stop
         style="stop-color:#ffffff;stop-opacity:0.72916669;"
         offset="0.0000000"
         id="stop2769" />
      <stop
         style="stop-color:#ffffff;stop-opacity:0.0000000;"
         offset="1.0000000"
         id="stop2770" />
    </linearGradient>
    <radialGradient
       inkscape:collect="always"
       xlink:href="#light75to0"
       id="radialGradient2694"
       gradientTransform="scale(0.801622,1.247470)"
       cx="143.15750"
       cy="222.80730"
       fx="143.15750"
       fy="222.80730"
       r="28.460997"
       gradientUnits="userSpaceOnUse" />
    <linearGradient
       spreadMethod="reflect"
       gradientUnits="userSpaceOnUse"
       y2="22.997499"
       x2="18.245001"
       y1="-7.3836527"
       x1="14.859878"
       gradientTransform="matrix(0.753683,0.000000,0.000000,0.980895,4.495568,33.87924)"
       id="linearGradient2853"
       xlink:href="#light75to0"
       inkscape:collect="always" />
    <radialGradient
       spreadMethod="pad"
       gradientUnits="userSpaceOnUse"
       r="18.125183"
       fy="23.816051"
       fx="36.944202"
       cy="23.816051"
       cx="36.944202"
       gradientTransform="matrix(0.743482,0.000000,0.000000,0.994353,4.495568,33.87924)"
       id="radialGradient3623"
       xlink:href="#light75to0"
       inkscape:collect="always" />
    <radialGradient
       r="15.114624"
       fy="25.032576"
       fx="4.9207430"
       cy="25.032576"
       cx="4.9207430"
       spreadMethod="pad"
       gradientTransform="matrix(0.743482,0.000000,0.000000,0.994353,4.495568,33.87924)"
       gradientUnits="userSpaceOnUse"
       id="radialGradient3627"
       xlink:href="#light75to0"
       inkscape:collect="always" />
    <linearGradient
       gradientUnits="userSpaceOnUse"
       y2="20.639454"
       x2="22.055750"
       y1="14.989618"
       x1="16.571110"
       gradientTransform="scale(0.747904,1.337069)"
       id="linearGradient3637"
       xlink:href="#light100to0"
       inkscape:collect="always" />
  </defs>
  <sodipodi:namedview
     id="base"
     pagecolor="#ffffff"
     bordercolor="#666666"
     borderopacity="1.0"
     inkscape:pageopacity="0.0"
     inkscape:pageshadow="2"
     inkscape:zoom="7.2354145"
     inkscape:cx="32.730315"
     inkscape:cy="28.121499"
     inkscape:current-layer="layer1"
     showgrid="true"
     inkscape:document-units="px"
     inkscape:grid-bbox="true"
     inkscape:window-width="640"
     inkscape:window-height="536"
     inkscape:window-x="580"
     inkscape:window-y="95" />
  <metadata
     id="metadata4">
    <rdf:RDF
       id="RDF5">
      <cc:Work
         rdf:about=""
         id="Work6">
        <dc:format
           id="format7">image/svg+xml</dc:format>
        <dc:type
           id="type9"
           rdf:resource="http://purl.org/dc/dcmitype/StillImage" />
      </cc:Work>
    </rdf:RDF>
  </metadata>
  <g
     id="layer1"
     inkscape:label="Layer 1"
     inkscape:groupmode="layer">
    <g
       id="g2729"
       transform="matrix(0.792798,0.000000,0.000000,0.788540,-31.00345,-158.7881)">
      <g
         id="g2720"
         transform="matrix(0.979218,0.000000,0.000000,0.987244,43.77167,3.987418)"
         style="opacity:0.41106716">
        <path
           sodipodi:nodetypes="cssssssssssss"
           id="path2706"
           d="M 51.302370,216.88620 C 57.576493,214.91219 68.178080,214.91219 74.452210,216.88620 C 75.894700,217.34005 75.473730,223.63931 74.452210,224.16977 C 72.901520,224.97502 66.660550,220.99841 66.735600,223.85922 C 67.061950,236.49683 66.140350,256.33503 66.735600,268.77492 C 66.870240,271.63354 72.901520,267.06595 74.452210,267.87120 C 75.473730,268.40166 75.894700,274.70092 74.452210,275.15476 C 68.178080,277.12877 57.576493,277.12877 51.302370,275.15476 C 49.859879,274.70092 50.280848,268.40166 51.302370,267.87120 C 52.853053,267.06595 59.004040,271.63667 59.018980,268.77492 C 59.088080,255.54413 58.825000,237.28773 59.018980,223.85922 C 59.060320,220.99772 52.853053,224.97502 51.302370,224.16977 C 50.280848,223.63931 49.859879,217.34005 51.302370,216.88620 z "
           style="fill:none;fill-opacity:1.0000000;stroke:#000000;stroke-width:5.8874998;stroke-linecap:round;stroke-linejoin:round;stroke-miterlimit:4.0000000;stroke-opacity:0.067873307" />
        <path
           sodipodi:nodetypes="cssssssssssss"
           id="path2708"
           d="M 51.302370,216.88620 C 57.576493,214.91219 68.178080,214.91219 74.452210,216.88620 C 75.894700,217.34005 75.473730,223.63931 74.452210,224.16977 C 72.901520,224.97502 66.660550,220.99841 66.735600,223.85922 C 67.061950,236.49683 66.140350,256.33503 66.735600,268.77492 C 66.870240,271.63354 72.901520,267.06595 74.452210,267.87120 C 75.473730,268.40166 75.894700,274.70092 74.452210,275.15476 C 68.178080,277.12877 57.576493,277.12877 51.302370,275.15476 C 49.859879,274.70092 50.280848,268.40166 51.302370,267.87120 C 52.853053,267.06595 59.004040,271.63667 59.018980,268.77492 C 59.088080,255.54413 58.825000,237.28773 59.018980,223.85922 C 59.060320,220.99772 52.853053,224.97502 51.302370,224.16977 C 50.280848,223.63931 49.859879,217.34005 51.302370,216.88620 z "
           style="fill:none;fill-opacity:1.0000000;stroke:#000000;stroke-width:5.1374998;stroke-linecap:round;stroke-linejoin:round;stroke-miterlimit:4.0000000;stroke-opacity:0.067873307" />
        <path
           sodipodi:nodetypes="cssssssssssss"
           id="path2710"
           d="M 51.302370,216.88620 C 57.576493,214.91219 68.178080,214.91219 74.452210,216.88620 C 75.894700,217.34005 75.473730,223.63931 74.452210,224.16977 C 72.901520,224.97502 66.660550,220.99841 66.735600,223.85922 C 67.061950,236.49683 66.140350,256.33503 66.735600,268.77492 C 66.870240,271.63354 72.901520,267.06595 74.452210,267.87120 C 75.473730,268.40166 75.894700,274.70092 74.452210,275.15476 C 68.178080,277.12877 57.576493,277.12877 51.302370,275.15476 C 49.859879,274.70092 50.280848,268.40166 51.302370,267.87120 C 52.853053,267.06595 59.004040,271.63667 59.018980,268.77492 C 59.088080,255.54413 58.825000,237.28773 59.018980,223.85922 C 59.060320,220.99772 52.853053,224.97502 51.302370,224.16977 C 50.280848,223.63931 49.859879,217.34005 51.302370,216.88620 z "
           style="fill:none;fill-opacity:1.0000000;stroke:#000000;stroke-width:4.6374998;stroke-linecap:round;stroke-linejoin:round;stroke-miterlimit:4.0000000;stroke-opacity:0.067873307" />
        <path
           sodipodi:nodetypes="cssssssssssss"
           id="path2712"
           d="M 51.302370,216.88620 C 57.576493,214.91219 68.178080,214.91219 74.452210,216.88620 C 75.894700,217.34005 75.473730,223.63931 74.452210,224.16977 C 72.901520,224.97502 66.660550,220.99841 66.735600,223.85922 C 67.061950,236.49683 66.140350,256.33503 66.735600,268.77492 C 66.870240,271.63354 72.901520,267.06595 74.452210,267.87120 C 75.473730,268.40166 75.894700,274.70092 74.452210,275.15476 C 68.178080,277.12877 57.576493,277.12877 51.302370,275.15476 C 49.859879,274.70092 50.280848,268.40166 51.302370,267.87120 C 52.853053,267.06595 59.004040,271.63667 59.018980,268.77492 C 59.088080,255.54413 58.825000,237.28773 59.018980,223.85922 C 59.060320,220.99772 52.853053,224.97502 51.302370,224.16977 C 50.280848,223.63931 49.859879,217.34005 51.302370,216.88620 z "
           style="fill:none;fill-opacity:1.0000000;stroke:#000000;stroke-width:4.1374998;stroke-linecap:round;stroke-linejoin:round;stroke-miterlimit:4.0000000;stroke-opacity:0.067873307" />
        <path
           sodipodi:nodetypes="cssssssssssss"
           id="path2714"
           d="M 51.302370,216.88620 C 57.576493,214.91219 68.178080,214.91219 74.452210,216.88620 C 75.894700,217.34005 75.473730,223.63931 74.452210,224.16977 C 72.901520,224.97502 66.660550,220.99841 66.735600,223.85922 C 67.061950,236.49683 66.140350,256.33503 66.735600,268.77492 C 66.870240,271.63354 72.901520,267.06595 74.452210,267.87120 C 75.473730,268.40166 75.894700,274.70092 74.452210,275.15476 C 68.178080,277.12877 57.576493,277.12877 51.302370,275.15476 C 49.859879,274.70092 50.280848,268.40166 51.302370,267.87120 C 52.853053,267.06595 59.004040,271.63667 59.018980,268.77492 C 59.088080,255.54413 58.825000,237.28773 59.018980,223.85922 C 59.060320,220.99772 52.853053,224.97502 51.302370,224.16977 C 50.280848,223.63931 49.859879,217.34005 51.302370,216.88620 z "
           style="fill:none;fill-opacity:1.0000000;stroke:#000000;stroke-width:3.6375000;stroke-linecap:round;stroke-linejoin:round;stroke-miterlimit:4.0000000;stroke-opacity:0.067873307" />
        <path
           sodipodi:nodetypes="cssssssssssss"
           id="path2716"
           d="M 51.302370,216.88620 C 57.576493,214.91219 68.178080,214.91219 74.452210,216.88620 C 75.894700,217.34005 75.473730,223.63931 74.452210,224.16977 C 72.901520,224.97502 66.660550,220.99841 66.735600,223.85922 C 67.061950,236.49683 66.140350,256.33503 66.735600,268.77492 C 66.870240,271.63354 72.901520,267.06595 74.452210,267.87120 C 75.473730,268.40166 75.894700,274.70092 74.452210,275.15476 C 68.178080,277.12877 57.576493,277.12877 51.302370,275.15476 C 49.859879,274.70092 50.280848,268.40166 51.302370,267.87120 C 52.853053,267.06595 59.004040,271.63667 59.018980,268.77492 C 59.088080,255.54413 58.825000,237.28773 59.018980,223.85922 C 59.060320,220.99772 52.853053,224.97502 51.302370,224.16977 C 50.280848,223.63931 49.859879,217.34005 51.302370,216.88620 z "
           style="fill:none;fill-opacity:1.0000000;stroke:#000000;stroke-width:2.8875000;stroke-linecap:round;stroke-linejoin:round;stroke-miterlimit:4.0000000;stroke-opacity:0.067873307" />
        <path
           sodipodi:nodetypes="cssssssssssss"
           id="path2718"
           d="M 51.302370,216.88620 C 57.576493,214.91219 68.178080,214.91219 74.452210,216.88620 C 75.894700,217.34005 75.473730,223.63931 74.452210,224.16977 C 72.901520,224.97502 66.660550,220.99841 66.735600,223.85922 C 67.061950,236.49683 66.140350,256.33503 66.735600,268.77492 C 66.870240,271.63354 72.901520,267.06595 74.452210,267.87120 C 75.473730,268.40166 75.894700,274.70092 74.452210,275.15476 C 68.178080,277.12877 57.576493,277.12877 51.302370,275.15476 C 49.859879,274.70092 50.280848,268.40166 51.302370,267.87120 C 52.853053,267.06595 59.004040,271.63667 59.018980,268.77492 C 59.088080,255.54413 58.825000,237.28773 59.018980,223.85922 C 59.060320,220.99772 52.853053,224.97502 51.302370,224.16977 C 50.280848,223.63931 49.859879,217.34005 51.302370,216.88620 z "
           style="fill:none;fill-opacity:1.0000000;stroke:#000000;stroke-width:2.3875000;stroke-linecap:round;stroke-linejoin:round;stroke-miterlimit:4.0000000;stroke-opacity:0.067873307" />
      </g>
      <path
         sodipodi:nodetypes="cssssssssssss"
         id="rect2077"
         d="M 93.302370,216.88620 C 99.576493,214.91219 110.17808,214.91219 116.45221,216.88620 C 117.89470,217.34005 117.47373,223.63931 116.45221,224.16977 C 114.90152,224.97502 108.66055,220.99841 108.73560,223.85922 C 109.06195,236.49683 108.14035,256.33503 108.73560,268.77492 C 108.87024,271.63354 114.90152,267.06595 116.45221,267.87120 C 117.47373,268.40166 117.89470,274.70092 116.45221,275.15476 C 110.17808,277.12877 99.576493,277.12877 93.302370,275.15476 C 91.859879,274.70092 92.280848,268.40166 93.302370,267.87120 C 94.853053,267.06595 101.00404,271.63667 101.01898,268.77492 C 101.08808,255.54413 100.82500,237.28773 101.01898,223.85922 C 101.06032,220.99772 94.853053,224.97502 93.302370,224.16977 C 92.280848,223.63931 91.859879,217.34005 93.302370,216.88620 z "
         style="fill:#000000;fill-opacity:1.0000000;stroke:#000000;stroke-width:1.5125000;stroke-linecap:round;stroke-linejoin:round;stroke-miterlimit:4.0000000;stroke-opacity:1.0000000" />
      <path
         sodipodi:nodetypes="cssssssss"
         id="path1922"
         d="M 108.73560,239.85922 C 109.06195,252.49683 108.14035,256.33503 108.73560,268.77492 C 108.87024,271.63354 114.90152,267.06595 116.45221,267.87120 C 117.47373,268.40166 117.89470,274.70092 116.45221,275.15476 C 110.17808,277.12877 99.576490,277.12877 93.302370,275.15476 C 91.859879,274.70092 92.280848,268.40166 93.302370,267.87120 C 94.853053,267.06595 101.00404,271.63667 101.01898,268.77492 C 101.08808,255.54413 100.82500,253.28773 101.01898,239.85922 C 101.06032,236.99772 108.66055,236.99841 108.73560,239.85922 z "
         style="fill:url(#radialGradient2694);fill-opacity:1.0000000;stroke:none;stroke-width:2.1400001;stroke-linecap:round;stroke-linejoin:round;stroke-miterlimit:4.0000000;stroke-opacity:1.0000000" />
      <path
         style="fill:url(#linearGradient2704);fill-opacity:1.0000000;fill-rule:evenodd;stroke:none;stroke-width:1.0000000px;stroke-linecap:butt;stroke-linejoin:miter;stroke-opacity:1.0000000"
         d="M 114.72659,217.71988 C 121.38814,215.63654 100.88383,214.12882 94.408911,216.35709 C 93.601424,216.63497 92.582698,217.12070 92.449315,217.74439 C 92.200657,218.90710 92.422918,222.59096 93.626846,222.50000 C 100.30625,221.99153 108.06504,219.80321 114.72659,217.71988 z "
         id="path2696"
         sodipodi:nodetypes="csssz" />
    </g>
    <path
       id="text1310"
       d="M 19.638125,17.956611 L 12.683222,41.067969 L 26.618411,41.067969 L 19.638125,17.956611 M 16.744479,11.766621 L 22.557153,11.766621 L 37.000000,58.207084 L 31.669599,58.207084 L 28.217531,46.293688 L 11.134868,46.293688 L 7.6827990,58.207084 L 2.2762503,58.207084 L 16.744479,11.766621"
       style="font-size:12.000000;font-style:normal;font-weight:normal;fill:#000000;fill-opacity:1.0000000;stroke:#000000;stroke-width:2.6482327;stroke-linecap:round;stroke-linejoin:round;stroke-miterlimit:4.0000000;stroke-opacity:1.0000000;font-family:Bitstream Vera Sans" />
    <path
       id="path2845"
       d="M 19.638125,17.956611 L 12.683222,41.067969 L 26.618411,41.067969 L 19.638125,17.956611 M 16.744479,11.766621 L 22.557153,11.766621 L 37.000000,58.207084 L 31.669599,58.207084 L 28.217531,46.293688 L 11.134868,46.293688 L 7.6827990,58.207084 L 2.2762503,58.207084 L 16.744479,11.766621"
       style="font-size:12.000000;font-style:normal;font-weight:normal;opacity:0.93675888;fill:url(#linearGradient2853);fill-opacity:1.0000000;stroke:none;stroke-width:0.28000000;stroke-linecap:round;stroke-linejoin:round;stroke-miterlimit:4.0000000;stroke-opacity:1.0000000;font-family:Bitstream Vera Sans" />
    <path
       sodipodi:nodetypes="ccccccccccccc"
       id="path2863"
       d="M 19.638125,17.956611 L 12.683222,41.067969 L 26.618411,41.067969 L 19.638125,17.956611 M 16.744479,11.766621 L 22.557153,11.766621 L 38.009459,58.642866 L 31.017101,58.770448 L 27.334477,46.784808 L 12.209309,46.730239 L 8.1252162,58.316221 L 1.6442259,58.152515 L 16.744479,11.766621"
       style="font-size:12.000000;font-style:normal;font-weight:normal;fill:url(#radialGradient3623);fill-opacity:1.0000000;stroke:none;stroke-width:0.28000000;stroke-linecap:round;stroke-linejoin:round;stroke-miterlimit:4.0000000;stroke-opacity:1.0000000;font-family:Bitstream Vera Sans" />
    <path
       sodipodi:nodetypes="ccccccccccccc"
       id="path3625"
       d="M 19.638125,17.956611 L 12.683222,41.067969 L 26.618411,41.067969 L 19.638125,17.956611 M 16.744479,11.766621 L 22.557153,11.766621 L 38.009459,58.642866 L 31.017101,58.770448 L 27.334477,46.784808 L 11.766892,46.730239 L 8.3780260,58.752772 L 1.3282137,58.752772 L 16.744479,11.766621"
       style="font-size:12.000000;font-style:normal;font-weight:normal;fill:url(#radialGradient3627);fill-opacity:1.0000000;stroke:none;stroke-width:0.28000000;stroke-linecap:round;stroke-linejoin:round;stroke-miterlimit:4.0000000;stroke-opacity:1.0000000;font-family:Bitstream Vera Sans" />
    <path
       sodipodi:nodetypes="csscsss"
       id="path3629"
       d="M 22.787008,11.103552 C 21.191541,10.898356 19.079799,10.979010 17.509191,11.000000 C 16.930160,11.007738 16.202002,11.438356 16.000000,12.000000 C 12.365605,22.105022 9.3333333,32.666667 6.0000000,43.000000 C 10.114152,43.367769 12.703495,25.733709 17.000000,18.000000 C 17.703495,16.733709 19.949724,16.975652 21.000000,16.000000 C 22.102696,14.975652 24.078863,11.269699 22.787008,11.103552 z "
       style="stroke-opacity:1.0000000;stroke-linejoin:miter;stroke-linecap:butt;stroke-width:1.0000000px;stroke:none;fill-rule:evenodd;fill-opacity:1.0;fill:url(#linearGradient3637)" />
  </g>
</svg>
