<?xml version="1.0" encoding="UTF-8" standalone="no"?>
<!DOCTYPE svg PUBLIC "-//W3C//DTD SVG 20010904//EN"
"http://www.w3.org/TR/2001/REC-SVG-20010904/DTD/svg10.dtd">
<!-- Created with Inkscape (http://www.inkscape.org/) -->
<svg
   width="64pt"
   height="64pt"
   id="svg7354"
   sodipodi:version="0.32"
   inkscape:version="0.40"
   sodipodi:docbase="/home/nuno/kdeplayground-artwork/oooicons/crystalsvg"
   sodipodi:docname="dbdoc.svg"
   inkscape:export-filename="/home/nuno/kdeplayground-artwork/oooicons/crystalsvg/dbdoc.png"
   inkscape:export-xdpi="36.000000"
   inkscape:export-ydpi="36.000000"
   xmlns="http://www.w3.org/2000/svg"
   xmlns:cc="http://web.resource.org/cc/"
   xmlns:inkscape="http://www.inkscape.org/namespaces/inkscape"
   xmlns:sodipodi="http://sodipodi.sourceforge.net/DTD/sodipodi-0.dtd"
   xmlns:rdf="http://www.w3.org/1999/02/22-rdf-syntax-ns#"
   xmlns:dc="http://purl.org/dc/elements/1.1/"
   xmlns:xlink="http://www.w3.org/1999/xlink">
  <defs
     id="defs3">
    <linearGradient
       inkscape:collect="always"
       xlink:href="#light75to0"
       id="linearGradient21648"
       gradientTransform="scale(0.394750,2.533248)"
       x1="196.40405"
       y1="17.297279"
       x2="179.82318"
       y2="17.407320"
       gradientUnits="userSpaceOnUse" />
    <linearGradient
       inkscape:collect="always"
       xlink:href="#light75to0"
       id="linearGradient15758"
       gradientTransform="scale(0.526614,1.898924)"
       x1="406.16541"
       y1="148.64583"
       x2="414.83224"
       y2="189.94398"
       gradientUnits="userSpaceOnUse" />
    <linearGradient
       inkscape:collect="always"
       xlink:href="#graytolightgray"
       id="linearGradient15129"
       gradientUnits="userSpaceOnUse"
       gradientTransform="scale(1.729412,0.578231)"
       x1="130.60602"
       y1="408.28738"
       x2="180.75517"
       y2="470.93375" />
    <linearGradient
       inkscape:collect="always"
       xlink:href="#blacktowhite"
       id="linearGradient15130"
       gradientUnits="userSpaceOnUse"
       gradientTransform="matrix(1.494665,0.000000,0.000000,0.470262,21.13456,163.2076)"
       x1="142.19385"
       y1="278.92441"
       x2="166.65126"
       y2="368.52307" />
    <linearGradient
       inkscape:collect="always"
       xlink:href="#graytolightgray"
       id="linearGradient15128"
       gradientUnits="userSpaceOnUse"
       gradientTransform="scale(1.436842,0.695971)"
       x1="8.4329405"
       y1="88.576233"
       x2="46.346687"
       y2="39.269283" />
    <linearGradient
       inkscape:collect="always"
       xlink:href="#blacktowhite"
       id="linearGradient15127"
       gradientUnits="userSpaceOnUse"
       gradientTransform="matrix(1.337508,0.000000,0.000000,0.525518,9.323765,244.4874)"
       x1="232.27733"
       y1="140.27173"
       x2="147.05203"
       y2="81.484245" />
    <linearGradient
       inkscape:collect="always"
       xlink:href="#blacktowhite"
       id="linearGradient15126"
       gradientUnits="userSpaceOnUse"
       gradientTransform="matrix(1.494665,0.000000,0.000000,0.470262,13.18526,232.9367)"
       x1="253.08090"
       y1="206.53716"
       x2="123.30837"
       y2="205.96529" />
    <linearGradient
       inkscape:collect="always"
       xlink:href="#blacktowhite"
       id="linearGradient15118"
       gradientUnits="userSpaceOnUse"
       gradientTransform="matrix(1.494665,0.000000,0.000000,0.470262,21.13456,163.2076)"
       x1="142.19385"
       y1="278.92441"
       x2="166.65126"
       y2="368.52307" />
    <linearGradient
       inkscape:collect="always"
       xlink:href="#graytolightgray"
       id="linearGradient15117"
       gradientUnits="userSpaceOnUse"
       gradientTransform="matrix(1.435849,0.000000,0.000000,0.489525,9.323765,244.4874)"
       x1="133.23598"
       y1="111.26886"
       x2="216.75711"
       y2="109.89973" />
    <linearGradient
       inkscape:collect="always"
       xlink:href="#graytolightgray"
       id="linearGradient15116"
       gradientUnits="userSpaceOnUse"
       gradientTransform="scale(1.436842,0.695971)"
       x1="-0.36880860"
       y1="75.553932"
       x2="59.273689"
       y2="75.553932" />
    <linearGradient
       inkscape:collect="always"
       xlink:href="#blacktowhite"
       id="linearGradient15115"
       gradientUnits="userSpaceOnUse"
       gradientTransform="matrix(1.337508,0.000000,0.000000,0.525518,9.323765,244.4874)"
       x1="232.27733"
       y1="140.27173"
       x2="147.05203"
       y2="81.484245" />
    <linearGradient
       inkscape:collect="always"
       xlink:href="#blacktowhite"
       id="linearGradient15114"
       gradientUnits="userSpaceOnUse"
       gradientTransform="matrix(1.494665,0.000000,0.000000,0.470262,13.18526,232.9367)"
       x1="253.08090"
       y1="206.53716"
       x2="123.30837"
       y2="205.96529" />
    <linearGradient
       inkscape:collect="always"
       xlink:href="#blacktowhite"
       id="linearGradient15095"
       gradientUnits="userSpaceOnUse"
       gradientTransform="matrix(1.494665,0.000000,0.000000,0.470262,21.13456,163.2076)"
       x1="142.19385"
       y1="278.92441"
       x2="166.65126"
       y2="368.52307" />
    <linearGradient
       inkscape:collect="always"
       xlink:href="#graytolightgray"
       id="linearGradient15096"
       gradientUnits="userSpaceOnUse"
       gradientTransform="matrix(1.435849,0.000000,0.000000,0.489525,9.323765,244.4874)"
       x1="133.23598"
       y1="111.26886"
       x2="216.75711"
       y2="109.89973" />
    <linearGradient
       inkscape:collect="always"
       xlink:href="#graytolightgray"
       id="linearGradient15097"
       gradientUnits="userSpaceOnUse"
       gradientTransform="scale(1.436842,0.695971)"
       x1="-0.36880860"
       y1="75.553932"
       x2="59.273689"
       y2="75.553932" />
    <linearGradient
       inkscape:collect="always"
       xlink:href="#blacktowhite"
       id="linearGradient15098"
       gradientUnits="userSpaceOnUse"
       gradientTransform="matrix(1.337508,0.000000,0.000000,0.525518,9.323765,244.4874)"
       x1="232.27733"
       y1="140.27173"
       x2="147.05203"
       y2="81.484245" />
    <linearGradient
       id="blacktowhite">
      <stop
         style="stop-color:#000000;stop-opacity:1.0000000;"
         offset="0.0000000"
         id="stop2476" />
      <stop
         style="stop-color:#ffffff;stop-opacity:1.0000000;"
         offset="1.0000000"
         id="stop2475" />
    </linearGradient>
    <linearGradient
       inkscape:collect="always"
       xlink:href="#blacktowhite"
       id="linearGradient15099"
       gradientUnits="userSpaceOnUse"
       gradientTransform="matrix(1.494665,0.000000,0.000000,0.470262,13.18526,232.9367)"
       x1="253.08090"
       y1="206.53716"
       x2="123.30837"
       y2="205.96529" />
    <linearGradient
       inkscape:collect="always"
       xlink:href="#graytolightgray"
       id="linearGradient3623"
       gradientUnits="userSpaceOnUse"
       x1="122.43015"
       y1="59.053604"
       x2="272.46765"
       y2="323.76923"
       gradientTransform="matrix(0.182431,0.000000,0.000000,0.213888,4.641008,0.357569)" />
    <radialGradient
       inkscape:collect="always"
       xlink:href="#XMLID_9_"
       id="radialGradient3622"
       gradientUnits="userSpaceOnUse"
       cx="74.4951"
       cy="81.1689"
       fx="74.4951"
       fy="81.1689"
       r="23.6936"
       gradientTransform="matrix(0.696376,0.000000,0.000000,0.816451,10.14487,4.039048)" />
    <linearGradient
       id="graytolightgray">
      <stop
         style="stop-color:#d4d3d3;stop-opacity:1.0000000;"
         offset="0.0000000"
         id="stop5101" />
      <stop
         style="stop-color:#ffffff;stop-opacity:1.0000000;"
         offset="1.0000000"
         id="stop5102" />
    </linearGradient>
    <linearGradient
       inkscape:collect="always"
       xlink:href="#graytolightgray"
       id="linearGradient3621"
       gradientUnits="userSpaceOnUse"
       x1="284.17496"
       y1="340.20792"
       x2="330.93881"
       y2="273.80606"
       gradientTransform="matrix(0.182431,0.000000,0.000000,0.213888,4.641008,0.357569)" />
    <linearGradient
       id="light75to0">
      <stop
         style="stop-color:#ffffff;stop-opacity:0.72916669;"
         offset="0.0000000"
         id="stop2769" />
      <stop
         style="stop-color:#ffffff;stop-opacity:0.0000000;"
         offset="1.0000000"
         id="stop2770" />
    </linearGradient>
    <radialGradient
       inkscape:collect="always"
       xlink:href="#light75to0"
       id="radialGradient6111"
       gradientTransform="matrix(0.222656,0.000000,0.000000,0.175247,4.641008,1.797000e-2)"
       cx="53.182602"
       cy="52.577991"
       fx="53.182602"
       fy="52.577991"
       r="508.29517"
       gradientUnits="userSpaceOnUse" />
    <linearGradient
       inkscape:collect="always"
       xlink:href="#garylighttowite"
       id="linearGradient3619"
       gradientUnits="userSpaceOnUse"
       x1="245.91402"
       y1="248.01839"
       x2="561.86395"
       y2="513.91156"
       gradientTransform="matrix(0.182431,0.000000,0.000000,0.213888,4.641008,0.357569)" />
    <linearGradient
       id="garylighttowite">
      <stop
         style="stop-color:#7d7d7d;stop-opacity:1.0000000;"
         offset="0.0000000"
         id="stop5106" />
      <stop
         style="stop-color:#d3d4d4;stop-opacity:1.0000000;"
         offset="1.0000000"
         id="stop5107" />
    </linearGradient>
    <linearGradient
       inkscape:collect="always"
       xlink:href="#garylighttowite"
       id="linearGradient3618"
       gradientUnits="userSpaceOnUse"
       x1="-37.332329"
       y1="-50.289883"
       x2="578.44397"
       y2="648.29797"
       gradientTransform="matrix(0.182431,0.000000,0.000000,0.213888,4.641008,0.357569)" />
    <radialGradient
       inkscape:collect="always"
       xlink:href="#light75to0"
       id="radialGradient1100"
       gradientUnits="userSpaceOnUse"
       gradientTransform="matrix(0.266053,0.000000,0.000000,0.189863,-4.693120,-4.791210)"
       cx="53.182602"
       cy="52.577991"
       fx="53.182602"
       fy="52.577991"
       r="508.29517" />
    <linearGradient
       inkscape:collect="always"
       xlink:href="#graytolightgray"
       id="linearGradient1101"
       gradientUnits="userSpaceOnUse"
       gradientTransform="matrix(0.217988,0.000000,0.000000,0.226657,-4.694860,-4.509590)"
       x1="122.43015"
       y1="59.053604"
       x2="272.46765"
       y2="323.76923" />
    <linearGradient
       inkscape:collect="always"
       xlink:href="#garylighttowite"
       id="linearGradient1102"
       gradientUnits="userSpaceOnUse"
       gradientTransform="matrix(0.217988,0.000000,0.000000,0.231728,-4.605810,-4.398522)"
       x1="-37.332329"
       y1="-50.289883"
       x2="578.44397"
       y2="648.29797" />
    <linearGradient
       inkscape:collect="always"
       xlink:href="#garylighttowite"
       id="linearGradient1103"
       gradientUnits="userSpaceOnUse"
       gradientTransform="matrix(0.217988,0.000000,0.000000,0.237328,-4.985030,-6.368749)"
       x1="245.91402"
       y1="248.01839"
       x2="561.86395"
       y2="513.91156" />
    <linearGradient
       inkscape:collect="always"
       xlink:href="#graytolightgray"
       id="linearGradient1104"
       gradientUnits="userSpaceOnUse"
       gradientTransform="matrix(0.217988,0.000000,0.000000,0.238369,-5.244650,-6.668340)"
       x1="284.17496"
       y1="340.20792"
       x2="330.93881"
       y2="273.80606" />
  </defs>
  <sodipodi:namedview
     id="base"
     pagecolor="#ffffff"
     bordercolor="#666666"
     borderopacity="1.0"
     inkscape:pageopacity="0.0"
     inkscape:pageshadow="2"
     inkscape:zoom="7.3293460"
     inkscape:cx="38.728947"
     inkscape:cy="21.673611"
     inkscape:current-layer="layer1"
     showgrid="false"
     inkscape:grid-bbox="false"
     gridspacingy="1.0000000pt"
     gridspacingx="1.0000000pt"
     gridoriginy="0.0000000pt"
     gridoriginx="0.0000000pt"
     inkscape:window-width="1001"
     inkscape:window-height="590"
     inkscape:window-x="0"
     inkscape:window-y="338" />
  <metadata
     id="metadata4">
    <rdf:RDF
       id="RDF5">
      <cc:Work
         rdf:about=""
         id="Work6">
        <dc:format
           id="format7">image/svg+xml</dc:format>
        <dc:type
           id="type9"
           rdf:resource="http://purl.org/dc/dcmitype/StillImage" />
      </cc:Work>
    </rdf:RDF>
  </metadata>
  <g
     id="layer1"
     inkscape:label="Layer 1"
     inkscape:groupmode="layer">
    <path
       style="fill:#cbcbcb;fill-opacity:1.0000000;fill-rule:evenodd;stroke:none;stroke-width:0.25000000pt;stroke-linecap:butt;stroke-linejoin:miter;stroke-opacity:1.0000000"
       d="M 37.621867,3.4205848 L 73.972804,3.0606739 L 73.972804,58.306902 L 53.817828,79.541607 L 8.4691348,79.541607 L 8.2891798,69.104208 L 37.621867,3.4205848 z "
       id="path1105"
       sodipodi:nodetypes="ccccccc"
       inkscape:export-xdpi="48.818890"
       inkscape:export-ydpi="48.818890" />
    <path
       style="fill:#ffffff;fill-opacity:1.0000000;fill-rule:evenodd;stroke:none;stroke-width:0.25000000pt;stroke-linecap:butt;stroke-linejoin:miter;stroke-opacity:1.0000000"
       d="M 6.6695841,0.72125728 L 71.273476,0.90121238 L 70.913567,55.787529 L 51.658368,76.122459 L 6.4896290,76.662325 L 6.6695841,0.72125728 z "
       id="path1727" />
    <path
       d="M 69.128909,2.2087020 L 8.1358377,2.2087020 L 8.0451349,74.588771 L 51.436754,74.588771 L 69.128909,56.146381 L 69.128909,2.2087020 z "
       id="path146"
       style="fill:url(#linearGradient1101);fill-opacity:1.0000000" />
    <path
       d="M 69.285340,8.8353507 L 69.285340,2.0287472 L 8.1000531,2.0287472 L 8.0451349,41.450477 C 31.547662,49.529500 65.566679,29.140194 69.285340,8.8353507 z "
       id="path195"
       style="fill:url(#radialGradient1100);fill-opacity:1.0000000"
       sodipodi:nodetypes="ccccc" />
    <g
       id="g21649"
       transform="matrix(0.753973,0.000000,0.000000,0.775817,7.995295,9.635783)">
      <path
         style="fill:#818080;fill-opacity:0.14999999;stroke:none;stroke-width:3.7750001;stroke-linecap:butt;stroke-linejoin:round;stroke-miterlimit:4.0000000;stroke-dashoffset:0.0000000;stroke-opacity:1.0000000"
         d="M 260.29533,227.71408 C 240.02933,227.84036 218.31699,231.30576 203.33575,241.72453 C 196.63509,246.43147 193.44553,254.01296 193.59140,258.94297 C 194.03575,261.03349 192.71241,322.29849 194.87355,328.89701 C 197.29982,333.60352 202.21157,337.14302 207.88738,339.99406 L 207.88738,340.28868 C 208.81887,340.69882 209.74460,340.95480 210.67607,341.33619 C 213.74446,342.68490 216.90192,343.92164 220.09988,344.90428 C 242.54067,351.12382 267.90194,351.76200 291.03491,347.16298 C 304.23999,344.13194 318.94708,339.56539 324.88370,329.84632 C 328.14657,324.39893 326.28202,269.18073 326.74281,264.47513 C 326.49236,251.14450 325.37770,249.16768 321.35778,245.35807 C 310.30063,234.28845 290.72402,229.82431 272.70013,228.20510 C 268.57811,227.86953 264.44340,227.71417 260.29533,227.71408 z "
         id="path19591"
         sodipodi:nodetypes="cccccccccccccc"
         transform="matrix(0.551307,0.000000,0.000000,0.559005,-102.8460,-121.9196)" />
      <path
         style="fill:#818783;fill-opacity:0.14999999;stroke:none;stroke-width:3.7750001;stroke-linecap:butt;stroke-linejoin:round;stroke-miterlimit:4.0000000;stroke-dashoffset:0.0000000;stroke-opacity:1.0000000"
         d="M 260.51765,226.38708 C 239.91535,226.51655 217.84271,230.06959 202.61287,240.75181 C 195.80101,245.57778 192.55853,253.35097 192.70682,258.40565 C 193.15854,260.54903 191.81324,323.36321 194.01024,330.12858 C 196.47677,334.95411 201.47004,338.58311 207.24003,341.50624 L 207.24003,341.80831 C 208.18697,342.22882 209.12807,342.49128 210.07499,342.88231 C 213.19430,344.26512 216.40416,345.53314 219.65519,346.54063 C 242.46837,352.91743 268.25049,353.57175 291.76734,348.85643 C 305.19156,345.74876 320.14270,341.06673 326.17783,331.10190 C 329.49485,325.51676 327.59936,268.90228 328.06780,264.07770 C 327.81318,250.40998 326.68003,248.38317 322.59340,244.47723 C 311.35277,233.12770 291.45129,228.55067 273.12830,226.89053 C 268.93788,226.54647 264.73457,226.38718 260.51765,226.38708 z "
         id="path18878"
         sodipodi:nodetypes="cccccccccccccc"
         transform="matrix(0.551307,0.000000,0.000000,0.559005,-102.8460,-121.9196)" />
      <g
         id="g15100"
         transform="matrix(0.551307,0.000000,0.000000,0.559005,-102.8460,-121.9196)">
        <path
           style="fill:#818783;fill-opacity:1.0000000;stroke:none;stroke-width:3.7750001;stroke-linecap:butt;stroke-linejoin:round;stroke-miterlimit:4.0000000;stroke-dashoffset:0.0000000;stroke-opacity:1.0000000"
           d="M 260.89731,275.58006 C 241.13951,275.70061 219.98621,279.00195 205.38065,288.94817 C 198.84802,293.44162 195.74351,300.68155 195.88573,305.38797 C 196.37338,307.63451 195.03218,319.90232 197.13913,326.20157 C 201.11293,333.74969 211.62472,338.43742 221.72805,341.47725 C 243.60613,347.41471 268.32266,348.03439 290.87554,343.64394 C 303.74951,340.75039 318.09671,336.38088 323.88446,327.10262 C 327.06553,321.90229 325.14301,316.14062 325.69067,310.66416 C 325.44649,297.93814 324.34757,296.07382 320.42845,292.43700 C 309.64859,281.86942 290.57648,277.60212 273.00457,276.05634 C 268.98591,275.73600 264.94138,275.58015 260.89731,275.58006 z "
           id="path15089"
           sodipodi:nodetypes="ccccccccccc" />
        <path
           style="fill:url(#linearGradient15099);fill-opacity:1.0000000;stroke:none;stroke-width:3.7750001;stroke-linecap:butt;stroke-linejoin:round;stroke-miterlimit:4.0000000;stroke-dashoffset:0.0000000;stroke-opacity:1.0000000"
           d="M 322.86327,303.43886 C 322.66933,312.00786 311.36739,318.32370 300.23827,321.73582 C 277.28351,328.67288 249.92978,328.99479 226.26952,323.31731 C 215.00934,320.51890 203.72644,315.66037 199.48827,308.02958 C 198.92193,306.04909 198.05468,304.99043 198.42577,307.74403 C 198.30523,310.28607 198.10433,312.97324 198.42577,315.58558 C 198.15301,320.58951 198.12151,325.89881 203.42577,329.88488 C 213.69549,338.59716 230.88868,342.29722 247.08202,343.74488 C 268.91582,345.52090 292.67031,343.34350 310.61327,334.62935 C 318.30952,330.78506 323.73700,324.66963 322.70702,318.24336 C 322.79120,315.18170 322.75484,305.93593 322.86327,303.43886 z "
           id="path15090"
           sodipodi:nodetypes="ccccccccccc" />
        <path
           style="fill:url(#linearGradient15098);fill-opacity:1.0000000;stroke:none;stroke-width:3.7724271;stroke-linecap:butt;stroke-linejoin:round;stroke-miterlimit:4.0000000;stroke-dashoffset:0.0000000;stroke-opacity:1.0000000"
           d="M 261.14326,279.73105 C 230.02641,279.73105 204.76801,289.65228 204.76801,301.88137 C 204.76801,314.11047 230.02641,324.03169 261.14326,324.03169 C 292.26012,324.03169 317.51852,314.11047 317.51852,301.88137 C 317.51852,289.65228 292.26012,279.73105 261.14326,279.73105 z M 261.39592,285.53916 C 290.46859,285.53916 314.07600,293.53629 314.07600,303.38309 C 314.07600,313.22989 290.46860,321.22702 261.39592,321.22702 C 232.32324,321.22702 208.71585,313.22989 208.71585,303.38309 C 208.71585,293.53628 232.32325,285.53916 261.39592,285.53916 z "
           id="path15091"
           sodipodi:nodetypes="cccccccccc" />
        <path
           sodipodi:type="arc"
           style="fill:url(#linearGradient15097);fill-opacity:1.0000000;stroke:none;stroke-width:3.7724271;stroke-linecap:butt;stroke-linejoin:round;stroke-miterlimit:4.0000000;stroke-dashoffset:0.0000000;stroke-opacity:1.0000000"
           id="path15092"
           sodipodi:cx="33.384850"
           sodipodi:cy="50.922665"
           sodipodi:rx="52.112938"
           sodipodi:ry="25.242205"
           d="M 85.497787 50.922665 A 52.112938 25.242205 0 1 1  -18.728088,50.922665 A 52.112938 25.242205 0 1 1  85.497787 50.922665 z"
           transform="matrix(1.005132,0.000000,0.000000,0.757545,226.8913,264.6372)" />
        <path
           style="fill:url(#linearGradient15096);fill-opacity:1.0000000;stroke:none;stroke-width:3.7724271;stroke-linecap:butt;stroke-linejoin:round;stroke-miterlimit:4.0000000;stroke-dashoffset:0.0000000;stroke-opacity:1.0000000"
           d="M 260.59237,276.50373 C 226.70391,276.50373 199.20848,287.90251 199.20848,301.96132 C 199.20848,316.02011 226.70391,327.44087 260.59237,327.44087 C 294.48082,327.44087 321.97626,316.02011 321.97626,301.96132 C 321.97626,287.90252 294.48083,276.50373 260.59237,276.50373 z M 260.74840,279.86439 C 291.49489,279.86439 316.45265,289.73219 316.45265,301.89542 C 316.45265,314.05866 291.49489,323.92645 260.74840,323.92645 C 230.00192,323.92645 205.04416,314.05866 205.04416,301.89542 C 205.04416,289.73219 230.00192,279.86439 260.74840,279.86439 z "
           id="path15093" />
        <path
           style="fill:url(#linearGradient15095);fill-opacity:1.0000000;stroke:none;stroke-width:3.7750001;stroke-linecap:butt;stroke-linejoin:round;stroke-miterlimit:4.0000000;stroke-dashoffset:0.0000000;stroke-opacity:1.0000000"
           d="M 322.82693,302.26246 C 322.33964,310.10980 311.62440,317.35349 300.49528,320.76561 C 277.54052,327.70267 249.89344,327.81839 226.23318,322.14091 C 214.97300,319.34250 203.15196,316.39168 198.38943,302.23761 C 198.34182,303.96329 198.26927,304.50510 198.24276,305.02541 C 201.96114,318.54480 216.37022,321.55129 227.63040,324.34970 C 251.29066,330.02718 278.79107,329.29289 301.74583,322.35583 C 312.76575,318.97719 322.06426,311.20585 322.76443,305.34217 C 322.77669,303.59414 322.79154,303.07754 322.82693,302.26246 z "
           id="path15094"
           sodipodi:nodetypes="ccccccccc" />
      </g>
      <g
         id="g15107"
         transform="matrix(0.551307,0.000000,0.000000,0.559005,-102.8460,-134.7683)">
        <path
           style="fill:#818783;fill-opacity:1.0000000;stroke:none;stroke-width:3.7750001;stroke-linecap:butt;stroke-linejoin:round;stroke-miterlimit:4.0000000;stroke-dashoffset:0.0000000;stroke-opacity:1.0000000"
           d="M 260.89731,275.58006 C 241.13951,275.70061 219.98621,279.00195 205.38065,288.94817 C 198.84802,293.44162 195.74351,300.68155 195.88573,305.38797 C 196.37338,307.63451 195.03218,319.90232 197.13913,326.20157 C 201.11293,333.74969 211.62472,338.43742 221.72805,341.47725 C 243.60613,347.41471 268.32266,348.03439 290.87554,343.64394 C 303.74951,340.75039 318.09671,336.38088 323.88446,327.10262 C 327.06553,321.90229 325.14301,316.14062 325.69067,310.66416 C 325.44649,297.93814 324.34757,296.07382 320.42845,292.43700 C 309.64859,281.86942 290.57648,277.60212 273.00457,276.05634 C 268.98591,275.73600 264.94138,275.58015 260.89731,275.58006 z "
           id="path15108"
           sodipodi:nodetypes="ccccccccccc" />
        <path
           style="fill:url(#linearGradient15114);fill-opacity:1.0000000;stroke:none;stroke-width:3.7750001;stroke-linecap:butt;stroke-linejoin:round;stroke-miterlimit:4.0000000;stroke-dashoffset:0.0000000;stroke-opacity:1.0000000"
           d="M 322.86327,303.43886 C 322.66933,312.00786 311.36739,318.32370 300.23827,321.73582 C 277.28351,328.67288 249.92978,328.99479 226.26952,323.31731 C 215.00934,320.51890 203.72644,315.66037 199.48827,308.02958 C 198.92193,306.04909 198.05468,304.99043 198.42577,307.74403 C 198.30523,310.28607 198.10433,312.97324 198.42577,315.58558 C 198.15301,320.58951 198.12151,325.89881 203.42577,329.88488 C 213.69549,338.59716 230.88868,342.29722 247.08202,343.74488 C 268.91582,345.52090 292.67031,343.34350 310.61327,334.62935 C 318.30952,330.78506 323.73700,324.66963 322.70702,318.24336 C 322.79120,315.18170 322.75484,305.93593 322.86327,303.43886 z "
           id="path15109"
           sodipodi:nodetypes="ccccccccccc" />
        <path
           style="fill:url(#linearGradient15115);fill-opacity:1.0000000;stroke:none;stroke-width:3.7724271;stroke-linecap:butt;stroke-linejoin:round;stroke-miterlimit:4.0000000;stroke-dashoffset:0.0000000;stroke-opacity:1.0000000"
           d="M 261.14326,279.73105 C 230.02641,279.73105 204.76801,289.65228 204.76801,301.88137 C 204.76801,314.11047 230.02641,324.03169 261.14326,324.03169 C 292.26012,324.03169 317.51852,314.11047 317.51852,301.88137 C 317.51852,289.65228 292.26012,279.73105 261.14326,279.73105 z M 261.39592,285.53916 C 290.46859,285.53916 314.07600,293.53629 314.07600,303.38309 C 314.07600,313.22989 290.46860,321.22702 261.39592,321.22702 C 232.32324,321.22702 208.71585,313.22989 208.71585,303.38309 C 208.71585,293.53628 232.32325,285.53916 261.39592,285.53916 z "
           id="path15110"
           sodipodi:nodetypes="cccccccccc" />
        <path
           sodipodi:type="arc"
           style="fill:url(#linearGradient15116);fill-opacity:1.0000000;stroke:none;stroke-width:3.7724271;stroke-linecap:butt;stroke-linejoin:round;stroke-miterlimit:4.0000000;stroke-dashoffset:0.0000000;stroke-opacity:1.0000000"
           id="path15111"
           sodipodi:cx="33.384850"
           sodipodi:cy="50.922665"
           sodipodi:rx="52.112938"
           sodipodi:ry="25.242205"
           d="M 85.497787 50.922665 A 52.112938 25.242205 0 1 1  -18.728088,50.922665 A 52.112938 25.242205 0 1 1  85.497787 50.922665 z"
           transform="matrix(1.005132,0.000000,0.000000,0.757545,226.8913,264.6372)" />
        <path
           style="fill:url(#linearGradient15117);fill-opacity:1.0000000;stroke:none;stroke-width:3.7724271;stroke-linecap:butt;stroke-linejoin:round;stroke-miterlimit:4.0000000;stroke-dashoffset:0.0000000;stroke-opacity:1.0000000"
           d="M 260.59237,276.50373 C 226.70391,276.50373 199.20848,287.90251 199.20848,301.96132 C 199.20848,316.02011 226.70391,327.44087 260.59237,327.44087 C 294.48082,327.44087 321.97626,316.02011 321.97626,301.96132 C 321.97626,287.90252 294.48083,276.50373 260.59237,276.50373 z M 260.74840,279.86439 C 291.49489,279.86439 316.45265,289.73219 316.45265,301.89542 C 316.45265,314.05866 291.49489,323.92645 260.74840,323.92645 C 230.00192,323.92645 205.04416,314.05866 205.04416,301.89542 C 205.04416,289.73219 230.00192,279.86439 260.74840,279.86439 z "
           id="path15112" />
        <path
           style="fill:url(#linearGradient15118);fill-opacity:1.0000000;stroke:none;stroke-width:3.7750001;stroke-linecap:butt;stroke-linejoin:round;stroke-miterlimit:4.0000000;stroke-dashoffset:0.0000000;stroke-opacity:1.0000000"
           d="M 322.82693,302.26246 C 322.33964,310.10980 311.62440,317.35349 300.49528,320.76561 C 277.54052,327.70267 249.89344,327.81839 226.23318,322.14091 C 214.97300,319.34250 203.15196,316.39168 198.38943,302.23761 C 198.34182,303.96329 198.26927,304.50510 198.24276,305.02541 C 201.96114,318.54480 216.37022,321.55129 227.63040,324.34970 C 251.29066,330.02718 278.79107,329.29289 301.74583,322.35583 C 312.76575,318.97719 322.06426,311.20585 322.76443,305.34217 C 322.77669,303.59414 322.79154,303.07754 322.82693,302.26246 z "
           id="path15113"
           sodipodi:nodetypes="ccccccccc" />
      </g>
      <path
         style="fill:#818783;fill-opacity:1.0000000;stroke:none;stroke-width:3.7750001;stroke-linecap:butt;stroke-linejoin:round;stroke-miterlimit:4.0000000;stroke-dashoffset:0.0000000;stroke-opacity:1.0000000"
         d="M 260.89731,275.58006 C 241.13951,275.70061 219.98621,279.00195 205.38065,288.94817 C 198.84802,293.44162 195.74351,300.68155 195.88573,305.38797 C 196.37338,307.63451 195.03218,319.90232 197.13913,326.20157 C 201.11293,333.74969 211.62472,338.43742 221.72805,341.47725 C 243.60613,347.41471 268.32266,348.03439 290.87554,343.64394 C 303.74951,340.75039 318.09671,336.38088 323.88446,327.10262 C 327.06553,321.90229 325.14301,316.14062 325.69067,310.66416 C 325.44649,297.93814 324.34757,296.07382 320.42845,292.43700 C 309.64859,281.86942 290.57648,277.60212 273.00457,276.05634 C 268.98591,275.73600 264.94138,275.58015 260.89731,275.58006 z "
         id="path15120"
         sodipodi:nodetypes="ccccccccccc"
         transform="matrix(0.551307,0.000000,0.000000,0.559005,-102.8460,-147.6169)" />
      <path
         style="fill:url(#linearGradient15126);fill-opacity:1.0000000;stroke:none;stroke-width:3.7750001;stroke-linecap:butt;stroke-linejoin:round;stroke-miterlimit:4.0000000;stroke-dashoffset:0.0000000;stroke-opacity:1.0000000"
         d="M 322.86327,303.43886 C 322.66933,312.00786 311.36739,318.32370 300.23827,321.73582 C 277.28351,328.67288 249.92978,328.99479 226.26952,323.31731 C 215.00934,320.51890 203.72644,315.66037 199.48827,308.02958 C 198.92193,306.04909 198.05468,304.99043 198.42577,307.74403 C 198.30523,310.28607 198.10433,312.97324 198.42577,315.58558 C 198.15301,320.58951 198.12151,325.89881 203.42577,329.88488 C 213.69549,338.59716 230.88868,342.29722 247.08202,343.74488 C 268.91582,345.52090 292.67031,343.34350 310.61327,334.62935 C 318.30952,330.78506 323.73700,324.66963 322.70702,318.24336 C 322.79120,315.18170 322.75484,305.93593 322.86327,303.43886 z "
         id="path15121"
         sodipodi:nodetypes="ccccccccccc"
         transform="matrix(0.551307,0.000000,0.000000,0.559005,-102.8460,-147.6169)" />
      <path
         style="fill:url(#linearGradient15127);fill-opacity:1.0000000;stroke:none;stroke-width:3.7724271;stroke-linecap:butt;stroke-linejoin:round;stroke-miterlimit:4.0000000;stroke-dashoffset:0.0000000;stroke-opacity:1.0000000"
         d="M 261.14326,279.73105 C 230.02641,279.73105 204.76801,289.65228 204.76801,301.88137 C 204.76801,314.11047 230.02641,324.03169 261.14326,324.03169 C 292.26012,324.03169 317.51852,314.11047 317.51852,301.88137 C 317.51852,289.65228 292.26012,279.73105 261.14326,279.73105 z M 261.39592,285.53916 C 290.46859,285.53916 314.07600,293.53629 314.07600,303.38309 C 314.07600,313.22989 290.46860,321.22702 261.39592,321.22702 C 232.32324,321.22702 208.71585,313.22989 208.71585,303.38309 C 208.71585,293.53628 232.32325,285.53916 261.39592,285.53916 z "
         id="path15122"
         sodipodi:nodetypes="cccccccccc"
         transform="matrix(0.551307,0.000000,0.000000,0.559005,-102.8460,-147.6169)" />
      <path
         sodipodi:type="arc"
         style="fill:url(#linearGradient15128);fill-opacity:1.0000000;stroke:none;stroke-width:3.7724271;stroke-linecap:butt;stroke-linejoin:round;stroke-miterlimit:4.0000000;stroke-dashoffset:0.0000000;stroke-opacity:1.0000000"
         id="path15123"
         sodipodi:cx="33.384850"
         sodipodi:cy="50.922665"
         sodipodi:rx="52.112938"
         sodipodi:ry="25.242205"
         d="M 85.497787 50.922665 A 52.112938 25.242205 0 1 1  -18.728088,50.922665 A 52.112938 25.242205 0 1 1  85.497787 50.922665 z"
         transform="matrix(0.554136,0.000000,0.000000,0.423471,22.24076,0.316626)" />
      <path
         style="fill:url(#linearGradient15130);fill-opacity:1.0000000;stroke:none;stroke-width:3.7750001;stroke-linecap:butt;stroke-linejoin:round;stroke-miterlimit:4.0000000;stroke-dashoffset:0.0000000;stroke-opacity:1.0000000"
         d="M 322.82693,302.26246 C 322.33964,310.10980 311.62440,317.35349 300.49528,320.76561 C 277.54052,327.70267 249.89344,327.81839 226.23318,322.14091 C 222.51441,321.13452 203.15196,316.39168 198.38943,302.23761 C 198.34182,303.96329 198.26927,304.50510 198.24276,305.02541 C 201.96114,318.54480 220.92493,322.74597 227.63040,324.34970 C 251.29066,330.02718 278.79107,329.29289 301.74583,322.35583 C 312.76575,318.97719 322.06426,311.20585 322.76443,305.34217 C 322.77669,303.59414 322.79154,303.07754 322.82693,302.26246 z "
         id="path15125"
         sodipodi:nodetypes="ccccccccc"
         transform="matrix(0.551307,0.000000,0.000000,0.559005,-102.8460,-147.6169)" />
      <path
         style="fill:url(#linearGradient15129);fill-opacity:1.0000000;stroke:none;stroke-width:3.7724271;stroke-linecap:butt;stroke-linejoin:round;stroke-miterlimit:4.0000000;stroke-dashoffset:0.0000000;stroke-opacity:1.0000000"
         d="M 260.59238,230.53399 C 226.70392,230.53399 199.20849,241.71280 199.20849,255.50031 C 199.20849,269.28780 226.70392,280.48817 260.59238,280.48817 C 294.48083,280.48817 321.97627,269.28780 321.97627,255.50031 C 321.97627,241.71281 294.48084,230.53399 260.59238,230.53399 z M 260.74841,233.82980 C 291.49490,233.82980 316.45266,243.50717 316.45266,255.43568 C 316.45266,267.36420 291.49490,277.04157 260.74841,277.04157 C 230.00193,277.04157 205.04417,267.36420 205.04417,255.43568 C 205.04417,243.50717 230.00193,233.82980 260.74841,233.82980 z "
         id="path15124"
         transform="matrix(0.551307,0.000000,0.000000,0.559005,-102.8460,-121.9196)" />
      <path
         style="fill:url(#linearGradient15758);fill-opacity:1.0000000;fill-rule:evenodd;stroke:none;stroke-width:0.25000000pt;stroke-linecap:butt;stroke-linejoin:miter;stroke-opacity:1.0000000"
         d="M 210.36519,269.66987 C 214.22664,272.59874 227.28642,277.08126 232.93567,277.65629 L 232.02206,343.49000 C 224.61485,342.58770 217.20764,340.27531 209.80044,337.08162 L 210.36519,269.66987 z "
         id="path15131"
         sodipodi:nodetypes="ccccc"
         transform="matrix(0.551307,0.000000,0.000000,0.559005,-102.8460,-121.9196)" />
      <path
         style="fill:url(#linearGradient21648);fill-opacity:1.0000000;fill-rule:evenodd;stroke:none;stroke-width:0.25000000pt;stroke-linecap:butt;stroke-linejoin:miter;stroke-opacity:1.0000000"
         d="M 75.981664,21.212174 L 75.335011,59.953774 C 74.239336,62.522463 71.961666,64.415727 69.515139,65.126994 L 69.698383,29.561108 C 73.481375,26.834416 75.575802,24.783150 75.981664,21.212174 z "
         id="path21023"
         sodipodi:nodetypes="ccccc" />
    </g>
    <path
       d="M 52.079941,75.885655 L 71.165865,55.597621 L 52.079941,55.597621 L 52.079941,75.885655 z "
       id="path163"
       style="fill:#ffffff" />
    <path
       d="M 52.763257,75.513806 L 69.560070,57.148400 L 52.763257,57.148400 L 52.763257,75.513806 z "
       id="path178"
       style="fill:url(#linearGradient1104);fill-opacity:1.0000000" />
    <path
       d="M 51.700740,55.392770 C 51.471081,55.392770 51.284687,55.595701 51.284687,55.845731 L 51.284687,76.624021 C 51.284687,76.807924 51.386204,76.972799 51.541811,77.043462 C 51.697407,77.112314 51.876309,77.075172 51.995303,76.944717 L 71.080388,56.166428 C 71.199383,56.036882 71.235167,55.842113 71.171091,55.672705 C 71.106186,55.503296 70.954738,55.392770 70.785824,55.392770 L 51.700740,55.392770 z M 69.781483,56.298695 C 68.515847,57.676604 53.382416,74.151759 52.116792,75.530575 C 52.116792,73.612731 52.116792,57.120371 52.116792,56.298695 C 52.869835,56.298695 68.019916,56.298695 69.781483,56.298695 z "
       id="path210"
       style="fill:url(#linearGradient1103);fill-opacity:1.0000000" />
    <path
       d="M 70.748987,1.1211617 C 70.748987,1.9889031 70.748987,55.803151 70.748987,56.164928 C 70.510169,56.418796 52.146515,75.939034 51.907697,76.193783 C 51.569029,76.193783 7.5092292,76.193783 6.6945951,76.193783 C 6.6945951,75.325165 6.6945951,1.9906757 6.6945951,1.1220470 C 7.5108888,1.1211617 69.933521,1.1211617 70.748987,1.1211617 z M 71.165029,0.23661058 L 5.8625000,0.23661058 L 5.8625000,77.077453 L 52.252191,77.077453 L 71.581080,56.530254 L 71.581080,0.23661058 L 71.165029,0.23661058 z "
       id="path225"
       style="fill:url(#linearGradient1102);fill-opacity:1.0000000" />
  </g>
</svg>
