<?xml version="1.0" encoding="UTF-8" standalone="no"?>
<!DOCTYPE svg PUBLIC "-//W3C//DTD SVG 20010904//EN"
"http://www.w3.org/TR/2001/REC-SVG-20010904/DTD/svg10.dtd">
<!-- Created with Inkscape (http://www.inkscape.org/) -->
<svg
   width="64pt"
   height="64pt"
   id="svg7354"
   sodipodi:version="0.32"
   inkscape:version="0.40"
   sodipodi:docbase="/home/nuno/kdeplayground-artwork/oooicons/crystalsvg"
   sodipodi:docname="edit.svg"
   inkscape:export-filename="/home/nuno/kdeplayground-artwork/oooicons/crystalsvg/edit.png"
   inkscape:export-xdpi="36.000000"
   inkscape:export-ydpi="36.000000"
   xmlns="http://www.w3.org/2000/svg"
   xmlns:cc="http://web.resource.org/cc/"
   xmlns:inkscape="http://www.inkscape.org/namespaces/inkscape"
   xmlns:sodipodi="http://sodipodi.sourceforge.net/DTD/sodipodi-0.dtd"
   xmlns:rdf="http://www.w3.org/1999/02/22-rdf-syntax-ns#"
   xmlns:xml="http://www.w3.org/XML/1998/namespace"
   xmlns:dc="http://purl.org/dc/elements/1.1/"
   xmlns:xlink="http://www.w3.org/1999/xlink">
  <defs
     id="defs3">
    <linearGradient
       inkscape:collect="always"
       xlink:href="#graytolightgray"
       id="linearGradient3623"
       gradientUnits="userSpaceOnUse"
       x1="122.43015"
       y1="59.053604"
       x2="272.46765"
       y2="323.76923"
       gradientTransform="matrix(0.182431,0.000000,0.000000,0.213888,4.641008,0.357569)" />
    <radialGradient
       inkscape:collect="always"
       xlink:href="#XMLID_9_"
       id="radialGradient3622"
       gradientUnits="userSpaceOnUse"
       cx="74.4951"
       cy="81.1689"
       fx="74.4951"
       fy="81.1689"
       r="23.6936"
       gradientTransform="matrix(0.696376,0.000000,0.000000,0.816451,10.14487,4.039048)" />
    <linearGradient
       id="graytolightgray">
      <stop
         style="stop-color:#d4d3d3;stop-opacity:1.0000000;"
         offset="0.0000000"
         id="stop5101" />
      <stop
         style="stop-color:#ffffff;stop-opacity:1.0000000;"
         offset="1.0000000"
         id="stop5102" />
    </linearGradient>
    <linearGradient
       inkscape:collect="always"
       xlink:href="#graytolightgray"
       id="linearGradient3621"
       gradientUnits="userSpaceOnUse"
       x1="284.17496"
       y1="340.20792"
       x2="330.93881"
       y2="273.80606"
       gradientTransform="matrix(0.182431,0.000000,0.000000,0.213888,4.641008,0.357569)" />
    <linearGradient
       id="light75to0">
      <stop
         style="stop-color:#ffffff;stop-opacity:0.72916669;"
         offset="0.0000000"
         id="stop2769" />
      <stop
         style="stop-color:#ffffff;stop-opacity:0.0000000;"
         offset="1.0000000"
         id="stop2770" />
    </linearGradient>
    <radialGradient
       inkscape:collect="always"
       xlink:href="#light75to0"
       id="radialGradient6111"
       gradientTransform="matrix(0.222656,0.000000,0.000000,0.175247,4.641008,1.797000e-2)"
       cx="53.182602"
       cy="52.577991"
       fx="53.182602"
       fy="52.577991"
       r="508.29517"
       gradientUnits="userSpaceOnUse" />
    <linearGradient
       inkscape:collect="always"
       xlink:href="#garylighttowite"
       id="linearGradient3619"
       gradientUnits="userSpaceOnUse"
       x1="245.91402"
       y1="248.01839"
       x2="561.86395"
       y2="513.91156"
       gradientTransform="matrix(0.182431,0.000000,0.000000,0.213888,4.641008,0.357569)" />
    <linearGradient
       id="garylighttowite">
      <stop
         style="stop-color:#7d7d7d;stop-opacity:1.0000000;"
         offset="0.0000000"
         id="stop5106" />
      <stop
         style="stop-color:#d3d4d4;stop-opacity:1.0000000;"
         offset="1.0000000"
         id="stop5107" />
    </linearGradient>
    <linearGradient
       inkscape:collect="always"
       xlink:href="#garylighttowite"
       id="linearGradient3618"
       gradientUnits="userSpaceOnUse"
       x1="-37.332329"
       y1="-50.289883"
       x2="578.44397"
       y2="648.29797"
       gradientTransform="matrix(0.182431,0.000000,0.000000,0.213888,4.641008,0.357569)" />
    <radialGradient
       inkscape:collect="always"
       xlink:href="#XMLID_9_"
       id="radialGradient7426"
       gradientUnits="userSpaceOnUse"
       gradientTransform="matrix(0.696376,0.000000,0.000000,0.816451,10.14487,4.039048)"
       cx="74.4951"
       cy="81.1689"
       fx="74.4951"
       fy="81.1689"
       r="23.6936" />
    <radialGradient
       inkscape:collect="always"
       xlink:href="#light75to0"
       id="radialGradient1100"
       gradientUnits="userSpaceOnUse"
       gradientTransform="matrix(0.256671,0.000000,0.000000,0.183169,-9.565492,-2.489553)"
       cx="53.182602"
       cy="52.577991"
       fx="53.182602"
       fy="52.577991"
       r="508.29517" />
    <linearGradient
       inkscape:collect="always"
       xlink:href="#graytolightgray"
       id="linearGradient1101"
       gradientUnits="userSpaceOnUse"
       gradientTransform="matrix(0.210301,0.000000,0.000000,0.218665,-9.567173,-2.217864)"
       x1="122.43015"
       y1="59.053604"
       x2="272.46765"
       y2="323.76923" />
    <linearGradient
       inkscape:collect="always"
       xlink:href="#garylighttowite"
       id="linearGradient1102"
       gradientUnits="userSpaceOnUse"
       gradientTransform="matrix(0.210301,0.000000,0.000000,0.223557,-9.481261,-2.110711)"
       x1="-37.332329"
       y1="-50.289883"
       x2="578.44397"
       y2="648.29797" />
    <linearGradient
       inkscape:collect="always"
       xlink:href="#garylighttowite"
       id="linearGradient1103"
       gradientUnits="userSpaceOnUse"
       gradientTransform="matrix(0.210301,0.000000,0.000000,0.223557,-9.847114,-2.112010)"
       x1="245.91402"
       y1="248.01839"
       x2="561.86395"
       y2="513.91156" />
    <linearGradient
       inkscape:collect="always"
       xlink:href="#graytolightgray"
       id="linearGradient1104"
       gradientUnits="userSpaceOnUse"
       gradientTransform="matrix(0.210301,0.000000,0.000000,0.223557,-10.09758,-2.091712)"
       x1="284.17496"
       y1="340.20792"
       x2="330.93881"
       y2="273.80606" />
    <linearGradient
       x1="112.83246"
       y1="26.413313"
       x2="122.91101"
       y2="48.426991"
       id="linearGradient8535"
       xlink:href="#light100to0"
       gradientUnits="userSpaceOnUse"
       gradientTransform="matrix(0.317347,0.000000,0.000000,0.142307,7.750154,1.021211)" />
    <linearGradient
       id="light100to0">
      <stop
         style="stop-color:#ffffff;stop-opacity:1.0000000;"
         offset="0.0000000"
         id="stop2764" />
      <stop
         style="stop-color:#ffffff;stop-opacity:0.0000000;"
         offset="1.0000000"
         id="stop2765" />
    </linearGradient>
    <linearGradient
       x1="63.510639"
       y1="263.33130"
       x2="48.348915"
       y2="299.38031"
       id="linearGradient6667"
       xlink:href="#blacktowhite"
       gradientUnits="userSpaceOnUse"
       gradientTransform="matrix(0.183056,0.000000,0.000000,0.265558,6.081840,0.841974)" />
    <linearGradient
       id="blacktowhite">
      <stop
         style="stop-color:#000000;stop-opacity:1.0000000;"
         offset="0.0000000"
         id="stop2476" />
      <stop
         style="stop-color:#ffffff;stop-opacity:1.0000000;"
         offset="1.0000000"
         id="stop2475" />
    </linearGradient>
    <linearGradient
       x1="55.499844"
       y1="94.234268"
       x2="113.51736"
       y2="-2.7694037"
       id="linearGradient1664"
       xlink:href="#orangetoyelow"
       gradientUnits="userSpaceOnUse"
       gradientTransform="matrix(0.988165,0.000000,0.000000,1.059038,-51.61257,-0.295980)" />
    <linearGradient
       id="orangetoyelow">
      <stop
         style="stop-color:#ff7d00;stop-opacity:1.0000000;"
         offset="0.0000000"
         id="stop2661" />
      <stop
         style="stop-color:#ffff00;stop-opacity:1.0000000;"
         offset="1.0000000"
         id="stop2662" />
    </linearGradient>
    <linearGradient
       x1="75.064339"
       y1="65.623413"
       x2="140.15146"
       y2="-37.592434"
       id="linearGradient1663"
       xlink:href="#orangetoyelow"
       gradientUnits="userSpaceOnUse"
       gradientTransform="matrix(0.988165,0.000000,0.000000,1.059038,-51.61257,-0.295980)" />
    <linearGradient
       x1="58.404800"
       y1="80.526398"
       x2="86.264603"
       y2="19.952200"
       id="linearGradient1662"
       xlink:href="#orangelesstoyelow"
       gradientUnits="userSpaceOnUse"
       gradientTransform="matrix(0.988165,0.000000,0.000000,1.059038,-51.61257,-0.295980)" />
    <linearGradient
       id="orangelesstoyelow">
      <stop
         style="stop-color:#ff7d00;stop-opacity:1.0000000;"
         offset="0.0000000"
         id="stop2689" />
      <stop
         style="stop-color:#ffbe00;stop-opacity:1.0000000;"
         offset="0.25358382"
         id="stop2690" />
      <stop
         style="stop-color:#ffff00;stop-opacity:1.0000000;"
         offset="1.0000000"
         id="stop2691" />
    </linearGradient>
    <linearGradient
       x1="68.581657"
       y1="9.0542183"
       x2="122.31405"
       y2="0.95772386"
       id="linearGradient1661"
       xlink:href="#orangetoblackorange"
       gradientUnits="userSpaceOnUse"
       gradientTransform="matrix(0.901330,0.434111,-0.405060,0.965975,-51.61257,-0.295980)" />
    <linearGradient
       id="orangetoblackorange">
      <stop
         style="stop-color:#ff8b00;stop-opacity:1.0000000;"
         offset="0.0000000"
         id="stop4207" />
      <stop
         style="stop-color:#4d0200;stop-opacity:1.0000000;"
         offset="1.0000000"
         id="stop4209" />
    </linearGradient>
    <linearGradient
       x1="54.536720"
       y1="96.837074"
       x2="91.471153"
       y2="66.370918"
       id="linearGradient12328"
       xlink:href="#shadow100to0"
       gradientUnits="userSpaceOnUse"
       gradientTransform="scale(1.373223,0.728214)" />
    <linearGradient
       id="shadow100to0">
      <stop
         style="stop-color:#000000;stop-opacity:1.0000000;"
         offset="0.0000000"
         id="stop3425" />
      <stop
         style="stop-color:#000000;stop-opacity:0.0000000;"
         offset="1.0000000"
         id="stop3426" />
    </linearGradient>
    <linearGradient
       x1="54.536720"
       y1="96.837074"
       x2="91.471153"
       y2="66.370918"
       id="linearGradient13579"
       xlink:href="#shadow100to0"
       gradientUnits="userSpaceOnUse"
       gradientTransform="scale(1.373223,0.728214)" />
  </defs>
  <sodipodi:namedview
     id="base"
     pagecolor="#ffffff"
     bordercolor="#666666"
     borderopacity="1.0"
     inkscape:pageopacity="0.0"
     inkscape:pageshadow="2"
     inkscape:zoom="6.7310077"
     inkscape:cx="39.711240"
     inkscape:cy="16.405802"
     inkscape:current-layer="svg7354"
     showgrid="false"
     inkscape:grid-bbox="false"
     gridspacingy="1.0000000pt"
     gridspacingx="1.0000000pt"
     gridoriginy="0.0000000pt"
     gridoriginx="0.0000000pt"
     inkscape:window-width="1280"
     inkscape:window-height="904"
     inkscape:window-x="0"
     inkscape:window-y="25" />
  <metadata
     id="metadata4">
    <rdf:RDF
       id="RDF5">
      <cc:Work
         rdf:about=""
         id="Work6">
        <dc:format
           id="format7">image/svg+xml</dc:format>
        <dc:type
           id="type9"
           rdf:resource="http://purl.org/dc/dcmitype/StillImage" />
      </cc:Work>
    </rdf:RDF>
  </metadata>
  <g
     id="layer1"
     inkscape:label="Layer 1"
     inkscape:groupmode="layer">
    <path
       style="fill:#cbcbcb;fill-opacity:1.0000000;fill-rule:evenodd;stroke:none;stroke-width:0.25000000pt;stroke-linecap:butt;stroke-linejoin:miter;stroke-opacity:1.0000000"
       d="M 31.257392,5.4326808 L 66.326533,5.0854617 L 66.326533,58.383611 L 46.882257,78.869544 L 3.1326359,78.869544 L 2.9590259,68.800188 L 31.257392,5.4326808 z "
       id="path1105"
       sodipodi:nodetypes="ccccccc"
       inkscape:export-xdpi="48.818890"
       inkscape:export-ydpi="48.818890" />
    <path
       style="fill:#ffffff;fill-opacity:1.0000000;fill-rule:evenodd;stroke:none;stroke-width:0.25000000pt;stroke-linecap:butt;stroke-linejoin:miter;stroke-opacity:1.0000000"
       d="M 1.3965406,2.8285364 L 63.722389,3.0021461 L 63.375170,55.953076 L 44.798943,75.570962 L 1.2229310,76.091791 L 1.3965406,2.8285364 z "
       id="path1727" />
    <path
       d="M 61.653443,4.2635317 L 2.8110909,4.2635317 L 2.7235869,74.091354 L 44.585143,74.091354 L 61.653443,56.299276 L 61.653443,4.2635317 z "
       id="path146"
       style="fill:url(#linearGradient1101);fill-opacity:1.0000000" />
    <text
       xml:space="preserve"
       style="font-size:5.0000000;font-style:normal;font-variant:normal;font-weight:normal;font-stretch:normal;fill:#5c5b5b;fill-opacity:1.0000000;stroke:none;stroke-width:1.0000000pt;stroke-linecap:butt;stroke-linejoin:miter;stroke-opacity:1.0000000;font-family:Bitstream Vera Sans;text-anchor:start;writing-mode:lr"
       x="0.68467486"
       y="5.98665"
       id="text1227"
       sodipodi:linespacing="130%"
       transform="matrix(0.737086,0.000000,0.000000,0.839931,3.189011,5.703404)"><tspan
         x="0.68467486"
         y="5.9866500"
         sodipodi:role="line"
         id="tspan1333">KDE is a network transparent </tspan><tspan
         x="0.68467486"
         y="12.486650"
         sodipodi:role="line"
         id="tspan1335">contemporary desktop</tspan><tspan
         x="0.68467486"
         y="18.986650"
         sodipodi:role="line"
         id="tspan1337">environment for UNIX </tspan><tspan
         x="0.68467486"
         y="25.486649"
         sodipodi:role="line"
         id="tspan1339">workstations. KDE seeks to fill </tspan><tspan
         x="0.68467486"
         y="31.986649"
         sodipodi:role="line"
         id="tspan1341">the need  for an  easy   to use </tspan><tspan
         x="0.68467486"
         y="38.486649"
         sodipodi:role="line"
         id="tspan1343">desktop for Unix workstations, </tspan><tspan
         x="0.68467486"
         y="44.986649"
         sodipodi:role="line"
         id="tspan1345">similar to the desktop environ-</tspan><tspan
         x="0.68467486"
         y="51.486648"
         sodipodi:role="line"
         id="tspan1347">ments found under the MacOS</tspan><tspan
         x="0.68467486"
         y="57.986648"
         sodipodi:role="line"
         id="tspan1349">or Microsoft Windows.</tspan><tspan
         x="0.68467486"
         y="64.486648"
         sodipodi:role="line"
         id="tspan1351">KDE Desktop </tspan><tspan
         x="0.68467486"
         y="70.986648"
         sodipodi:role="line"
         id="tspan1353">Environment</tspan></text>
    <path
       d="M 45.205650,75.342508 L 63.618571,55.769864 L 45.205650,55.769864 L 45.205650,75.342508 z "
       id="path163"
       style="fill:#ffffff" />
    <path
       d="M 45.864871,74.983771 L 62.069400,57.759562 L 45.864871,57.759562 L 45.864871,74.983771 z "
       id="path178"
       style="fill:url(#linearGradient1104);fill-opacity:1.0000000" />
    <path
       d="M 61.804356,10.656513 L 61.804356,4.0899222 L 2.7765679,4.0899222 L 2.7235869,42.121573 C 25.397375,49.915717 58.216822,30.245373 61.804356,10.656513 z "
       id="path195"
       style="fill:url(#radialGradient1100);fill-opacity:1.0000000"
       sodipodi:nodetypes="ccccc" />
    <path
       d="M 44.839820,56.065837 C 44.618259,56.065837 44.438438,56.256994 44.438438,56.492517 L 44.438438,76.065161 C 44.438438,76.238392 44.536375,76.393699 44.686496,76.460263 C 44.836605,76.525119 45.009198,76.490133 45.123997,76.367248 L 63.536109,56.794605 C 63.650908,56.672575 63.685430,56.489109 63.623613,56.329530 C 63.560997,56.169951 63.414890,56.065837 63.251932,56.065837 L 44.839820,56.065837 z M 62.283005,56.919198 C 61.061998,58.217154 46.462198,73.736349 45.241201,75.035160 C 45.241201,73.228597 45.241201,57.693195 45.241201,56.919198 C 45.967691,56.919198 60.583555,56.919198 62.283005,56.919198 z "
       id="path210"
       style="fill:url(#linearGradient1103);fill-opacity:1.0000000" />
    <path
       d="M 63.216393,3.2143395 C 63.216393,4.0514828 63.216393,55.968148 63.216393,56.317169 C 62.985996,56.562084 45.269875,75.394005 45.039479,75.639772 C 44.712754,75.639772 2.2065779,75.639772 1.4206697,75.639772 C 1.4206697,74.801782 1.4206697,4.0531932 1.4206697,3.2151936 C 2.2081799,3.2143395 62.429682,3.2143395 63.216393,3.2143395 z M 63.617764,2.3609791 L 0.61791573,2.3609791 L 0.61791573,76.492281 L 45.371826,76.492281 L 64.019146,56.669613 L 64.019146,2.3609791 L 63.617764,2.3609791 z "
       id="path225"
       style="fill:url(#linearGradient1102);fill-opacity:1.0000000" />
    <flowRoot
       id="flowRoot1205">
      <flowRegion
         id="flowRegion1206">
        <text
           xml:space="preserve"
           style="font-size:1.0000000;font-style:normal;font-variant:normal;font-weight:normal;font-stretch:normal;fill:#000000;fill-opacity:1.0000000;stroke:none;stroke-width:1.0000000pt;stroke-linecap:butt;stroke-linejoin:miter;stroke-opacity:1.0000000;font-family:Bitstream Vera Sans;text-anchor:start;writing-mode:lr"
           x="12.7241"
           y="9.1085835"
           id="use1207"
           sodipodi:linespacing="100%"
           transform="translate(-0.513506,-0.513506)"><tspan
             id="tspan1219">KDE is a networ</tspan><tspan
             id="tspan1221"></tspan><tspan
             id="tspan1223">k transparent contemporary desktop environment for UNIX workstations. KDE seeks to fill the need for an easy to use desktop for Unix workstations, similar to the desktop environments found under the MacOS or Microsoft Windows. We believe that the UNIX operating system is the best operating system available today. In fact UNIX has been the undisputed choice of the information technology professional for many years. When it comes to stability, scalability and openness there is no competition to UNIX. However, the lack of an easy to use contemporary desktop environment for UNIX has prevented UNIX from finding its way onto the desktops of the typical computer user in offices and homes. UNIX dominates the server market and is the preferred computing platform for computing professional and scientists. Without UNIX the internet would not be. But UNIX did not address the needs of the average computer user. This fact is particularly unfortunate since a number of implementations of UNIX (Debian GNU/Linux, FreeBSD, NetBSD etc.) are freely available on the internet. All of which are of exceptional quality and stability.</tspan></text>
      </flowRegion>
      <flowDiv
         id="flowDiv1208">
        <flowPara
           id="flowPara1209">This is flowed text. Currently, you can only edit it by using the XML editor. You can paste style (Ctrl+Shift+V) from regular text objects to it.</flowPara>
      </flowDiv>
    </flowRoot>
  </g>
  <g
     id="g2257"
     transform="matrix(0.865575,0.000000,0.000000,0.841207,16.72064,-0.664281)">
    <g
       transform="matrix(0.958830,-2.143750e-2,2.249826e-2,0.973029,-51.30429,5.811057)"
       style="opacity:0.099999972;fill:url(#linearGradient13579);fill-opacity:1.0000000"
       id="g13575">
      <path
         d="M 125.90400,50.515000 C 123.63250,46.366500 120.19912,43.269329 118.68283,43.933698 C 117.16654,44.598067 91.192168,54.722316 79.008689,62.157706 C 73.761502,65.359983 70.829036,71.452661 66.852000,76.198000 C 66.838036,76.214661 66.900234,76.202757 66.918000,76.208000 C 66.920567,76.208757 66.909786,76.215937 66.913000,76.216000 C 73.600119,76.347937 80.470438,77.912321 86.762978,76.133931 C 100.59177,72.225654 125.74595,60.384778 127.26367,59.724275 C 128.78139,59.063772 128.17550,54.663500 125.90400,50.515000 z "
         style="fill:#000000;fill-opacity:0.31249997"
         id="path13577" />
    </g>
    <g
       transform="matrix(0.949336,-2.122524e-2,2.227548e-2,0.963396,-50.72384,6.546908)"
       style="opacity:0.099999972;fill:url(#linearGradient12328);fill-opacity:1.0000000"
       id="g12324">
      <path
         d="M 125.90400,50.515000 C 123.63250,46.366500 120.66029,43.620631 119.14400,44.285000 C 117.62771,44.949369 91.653334,55.073618 79.469855,62.509008 C 74.222668,65.711285 70.829036,71.452661 66.852000,76.198000 C 66.838036,76.214661 66.900234,76.202757 66.918000,76.208000 C 66.920567,76.208757 66.909786,76.215937 66.913000,76.216000 C 73.600119,76.347937 80.483772,77.344046 86.776312,75.565656 C 100.60510,71.657379 125.75928,59.816503 127.27700,59.156000 C 128.79472,58.495497 128.17550,54.663500 125.90400,50.515000 z "
         style="fill:#000000;fill-opacity:0.31249997"
         id="path12326" />
    </g>
    <path
       d="M 30.469024,64.158131 L 53.287388,10.457127 C 53.987008,8.5974551 51.136756,5.5149576 46.659383,3.3322846 C 42.191890,1.1485455 38.080137,0.86684297 37.304428,2.6841510 L 14.435572,56.713100 L 13.750587,78.250205 C 13.717960,79.275781 15.054079,79.896199 15.754760,79.180843 L 30.469024,64.158131 z "
       style="fill:url(#linearGradient1661);fill-opacity:1.0000000"
       id="path145" />
    <path
       d="M 15.490689,57.457611 L 14.699181,78.572711 L 28.955422,63.966453 L 28.855621,63.918803 C 28.962343,63.839371 29.059186,63.752533 29.138236,63.654046 L 29.213334,63.690047 L 51.857127,10.296517 C 52.536985,8.7079645 50.050763,5.9385775 46.312536,4.1085546 C 42.570358,2.2785428 38.992212,2.0847336 38.315320,3.6722310 L 15.600379,57.030815 L 15.490689,57.457611 z "
       style="fill:#fff0dc"
       id="path147" />
    <path
       d="M 38.454651,3.3502852 C 37.992190,4.5702968 39.317319,6.4458597 41.617767,8.0714800 L 18.818839,61.620686 C 16.785197,60.199459 15.595445,58.284719 15.564805,57.057288 L 38.443781,3.3439334 L 38.454651,3.3502852 z "
       style="fill:url(#linearGradient1662);fill-opacity:1.0000000"
       id="path162" />
    <path
       d="M 29.359581,63.479303 C 28.844749,64.690842 26.551219,64.810517 23.913803,64.059654 L 46.703850,10.533745 C 49.291852,11.284596 51.429786,11.152241 51.977229,10.000000 L 30.002879,61.944752 C 29.992006,61.988172 29.478168,63.197601 29.359581,63.479303 z "
       style="fill:url(#linearGradient1663);fill-opacity:1.0000000"
       id="path177" />
    <path
       d="M 21.144976,62.986845 C 20.295146,62.571698 19.518461,62.106792 18.818839,61.619631 L 41.617767,8.0714800 C 42.332209,8.5723993 43.130646,9.0553288 44.005172,9.4831797 C 44.929105,9.9353934 45.844146,10.284867 46.704838,10.532680 L 23.914796,64.059654 C 23.031380,63.810788 22.091627,63.450708 21.144976,62.986845 z "
       style="fill:url(#linearGradient1664);fill-opacity:1.0000000"
       id="path192" />
    <path
       d="M 330.21077,106.26464 C 330.21736,115.48235 314.29113,122.95642 294.64286,122.95642 C 274.99458,122.95642 259.06835,115.48235 259.07494,106.26464 C 259.06835,97.046931 274.99458,89.572862 294.64286,89.572862 C 314.29113,89.572862 330.21736,97.046931 330.21077,106.26464 L 330.21077,106.26464 z "
       transform="matrix(7.111582e-2,4.098850e-2,-5.226773e-2,4.839618e-2,29.78768,-10.41921)"
       style="fill:#000000;fill-opacity:1.0000000;stroke:#000000;stroke-width:2.6949544;stroke-linecap:butt;stroke-linejoin:round;stroke-miterlimit:4.0000000;stroke-dashoffset:0.0000000;stroke-opacity:0.084374972"
       id="path6041" />
    <path
       d="M 14.899290,70.549100 L 14.632360,78.638000 L 20.208281,73.015926 C 18.794524,73.608179 15.493636,72.499479 14.899290,70.549100 z "
       style="fill:url(#linearGradient6667);fill-opacity:1.0000000;fill-rule:evenodd;stroke:none;stroke-width:0.094361210pt;stroke-linecap:butt;stroke-linejoin:miter;stroke-opacity:1.0000000"
       id="path6042" />
    <path
       d="M 47.465845,7.3279801 C 46.608342,6.9780989 45.562430,6.4532555 45.091215,6.6546145 C 44.612559,6.8591385 43.692820,6.6083931 42.795739,6.3575268 C 42.054188,5.1192179 43.224491,5.0867002 44.279881,5.2880483 C 45.316185,5.4857587 47.248171,6.6348006 47.465845,7.3279801 z "
       style="fill:url(#linearGradient8535);fill-opacity:1.0000000;fill-rule:evenodd;stroke:none;stroke-width:0.25000000pt;stroke-linecap:butt;stroke-linejoin:miter;stroke-opacity:1.0000000"
       id="path7289" />
  </g>
</svg>
