<?xml version="1.0" encoding="UTF-8" standalone="no"?>
<!-- Created with Inkscape (http://www.inkscape.org/) -->
<svg
   xmlns:xml="http://www.w3.org/XML/1998/namespace"
   xmlns:dc="http://purl.org/dc/elements/1.1/"
   xmlns:cc="http://web.resource.org/cc/"
   xmlns:rdf="http://www.w3.org/1999/02/22-rdf-syntax-ns#"
   xmlns:svg="http://www.w3.org/2000/svg"
   xmlns="http://www.w3.org/2000/svg"
   xmlns:xlink="http://www.w3.org/1999/xlink"
   xmlns:sodipodi="http://inkscape.sourceforge.net/DTD/sodipodi-0.dtd"
   xmlns:inkscape="http://www.inkscape.org/namespaces/inkscape"
   inkscape:export-ydpi="36.000000"
   inkscape:export-xdpi="36.000000"
   inkscape:export-filename="/home/nuno/kdeplayground-artwork/oooicons/crystalsvg/export_as_pdf.png"
   sodipodi:docname="export_as_pdf.svg"
   sodipodi:docbase="/home/nuno/kdeplayground-artwork/oooicons/crystalsvg"
   inkscape:version="0.41"
   sodipodi:version="0.32"
   id="svg7354"
   height="64pt"
   width="64pt">
  <defs
     id="defs3">
    <linearGradient
       id="reddarktoblack">
      <stop
         id="stop3230"
         offset="0.0000000"
         style="stop-color:#8e0000;stop-opacity:1.0000000;" />
      <stop
         id="stop3231"
         offset="1.0000000"
         style="stop-color:#000000;stop-opacity:1.0000000;" />
    </linearGradient>
    <linearGradient
       gradientUnits="userSpaceOnUse"
       y2="213.17709"
       x2="121.03642"
       y1="162.60287"
       x1="77.693687"
       gradientTransform="matrix(0.926871,0.000000,0.000000,1.078899,23.62691,-174.5312)"
       id="linearGradient3591"
       xlink:href="#reddarktoblack"
       inkscape:collect="always" />
    <linearGradient
       id="redtodarkred">
      <stop
         id="stop3856"
         offset="0.0000000"
         style="stop-color:#ff0000;stop-opacity:1.0000000;" />
      <stop
         id="stop3855"
         offset="1.0000000"
         style="stop-color:#920000;stop-opacity:1.0000000;" />
    </linearGradient>
    <linearGradient
       spreadMethod="reflect"
       gradientUnits="userSpaceOnUse"
       y2="202.32932"
       x2="109.43790"
       y1="175.61299"
       x1="86.099434"
       gradientTransform="matrix(0.928125,0.000000,0.000000,1.077441,23.62691,-174.5312)"
       id="linearGradient3595"
       xlink:href="#redtodarkred"
       inkscape:collect="always" />
    <radialGradient
       spreadMethod="pad"
       gradientUnits="userSpaceOnUse"
       r="22.209400"
       fy="208.07237"
       fx="90.964508"
       cy="208.07237"
       cx="90.964508"
       gradientTransform="matrix(0.926871,0.000000,0.000000,1.078899,23.62691,-174.5312)"
       id="radialGradient4221"
       xlink:href="#light100to0"
       inkscape:collect="always" />
    <linearGradient
       gradientTransform="matrix(0.182431,0.000000,0.000000,0.213888,4.641008,0.357569)"
       y2="323.76923"
       x2="272.46765"
       y1="59.053604"
       x1="122.43015"
       gradientUnits="userSpaceOnUse"
       id="linearGradient3623"
       xlink:href="#graytolightgray"
       inkscape:collect="always" />
    <radialGradient
       gradientTransform="matrix(0.696376,0.000000,0.000000,0.816451,10.14487,4.039048)"
       r="23.6936"
       fy="81.1689"
       fx="74.4951"
       cy="81.1689"
       cx="74.4951"
       gradientUnits="userSpaceOnUse"
       id="radialGradient3622"
       xlink:href="#XMLID_9_"
       inkscape:collect="always" />
    <linearGradient
       id="graytolightgray">
      <stop
         id="stop5101"
         offset="0.0000000"
         style="stop-color:#d4d3d3;stop-opacity:1.0000000;" />
      <stop
         id="stop5102"
         offset="1.0000000"
         style="stop-color:#ffffff;stop-opacity:1.0000000;" />
    </linearGradient>
    <linearGradient
       gradientTransform="matrix(0.182431,0.000000,0.000000,0.213888,4.641008,0.357569)"
       y2="273.80606"
       x2="330.93881"
       y1="340.20792"
       x1="284.17496"
       gradientUnits="userSpaceOnUse"
       id="linearGradient3621"
       xlink:href="#graytolightgray"
       inkscape:collect="always" />
    <linearGradient
       id="light75to0">
      <stop
         id="stop2769"
         offset="0.0000000"
         style="stop-color:#ffffff;stop-opacity:0.72916669;" />
      <stop
         id="stop2770"
         offset="1.0000000"
         style="stop-color:#ffffff;stop-opacity:0.0000000;" />
    </linearGradient>
    <radialGradient
       gradientUnits="userSpaceOnUse"
       r="508.29517"
       fy="52.577991"
       fx="53.182602"
       cy="52.577991"
       cx="53.182602"
       gradientTransform="matrix(0.222656,0.000000,0.000000,0.175247,4.641008,1.797000e-2)"
       id="radialGradient6111"
       xlink:href="#light75to0"
       inkscape:collect="always" />
    <linearGradient
       gradientTransform="matrix(0.182431,0.000000,0.000000,0.213888,4.641008,0.357569)"
       y2="513.91156"
       x2="561.86395"
       y1="248.01839"
       x1="245.91402"
       gradientUnits="userSpaceOnUse"
       id="linearGradient3619"
       xlink:href="#garylighttowite"
       inkscape:collect="always" />
    <linearGradient
       id="garylighttowite">
      <stop
         id="stop5106"
         offset="0.0000000"
         style="stop-color:#7d7d7d;stop-opacity:1.0000000;" />
      <stop
         id="stop5107"
         offset="1.0000000"
         style="stop-color:#d3d4d4;stop-opacity:1.0000000;" />
    </linearGradient>
    <linearGradient
       gradientTransform="matrix(0.182431,0.000000,0.000000,0.213888,4.641008,0.357569)"
       y2="648.29797"
       x2="578.44397"
       y1="-50.289883"
       x1="-37.332329"
       gradientUnits="userSpaceOnUse"
       id="linearGradient3618"
       xlink:href="#garylighttowite"
       inkscape:collect="always" />
    <radialGradient
       r="23.6936"
       fy="81.1689"
       fx="74.4951"
       cy="81.1689"
       cx="74.4951"
       gradientTransform="matrix(0.696376,0.000000,0.000000,0.816451,10.14487,4.039048)"
       gradientUnits="userSpaceOnUse"
       id="radialGradient7426"
       xlink:href="#XMLID_9_"
       inkscape:collect="always" />
    <radialGradient
       r="508.29517"
       fy="52.577991"
       fx="53.182602"
       cy="52.577991"
       cx="53.182602"
       gradientTransform="matrix(0.260298,0.000000,0.000000,0.190727,2.361605,-4.732489)"
       gradientUnits="userSpaceOnUse"
       id="radialGradient1100"
       xlink:href="#light75to0"
       inkscape:collect="always" />
    <linearGradient
       y2="323.76923"
       x2="272.46765"
       y1="59.053604"
       x1="122.43015"
       gradientTransform="matrix(0.213273,0.000000,0.000000,0.227688,2.359900,-4.449589)"
       gradientUnits="userSpaceOnUse"
       id="linearGradient1101"
       xlink:href="#graytolightgray"
       inkscape:collect="always" />
    <linearGradient
       y2="648.29797"
       x2="578.44397"
       y1="-50.289883"
       x1="-37.332329"
       gradientTransform="matrix(0.213273,0.000000,0.000000,0.232782,2.447026,-4.338015)"
       gradientUnits="userSpaceOnUse"
       id="linearGradient1102"
       xlink:href="#garylighttowite"
       inkscape:collect="always" />
    <linearGradient
       y2="513.91156"
       x2="561.86395"
       y1="248.01839"
       x1="245.91402"
       gradientTransform="matrix(0.213273,0.000000,0.000000,0.253262,2.611319,-11.59630)"
       gradientUnits="userSpaceOnUse"
       id="linearGradient1103"
       xlink:href="#garylighttowite"
       inkscape:collect="always" />
    <linearGradient
       y2="273.80606"
       x2="330.93881"
       y1="340.20792"
       x1="284.17496"
       gradientTransform="matrix(0.213273,0.000000,0.000000,0.253262,1.821998,-11.71930)"
       gradientUnits="userSpaceOnUse"
       id="linearGradient1104"
       xlink:href="#graytolightgray"
       inkscape:collect="always" />
    <linearGradient
       gradientTransform="matrix(0.317347,0.000000,0.000000,0.142307,7.750154,1.021211)"
       gradientUnits="userSpaceOnUse"
       xlink:href="#light100to0"
       id="linearGradient8535"
       y2="48.426991"
       x2="122.91101"
       y1="26.413313"
       x1="112.83246" />
    <linearGradient
       id="light100to0">
      <stop
         id="stop2764"
         offset="0.0000000"
         style="stop-color:#ffffff;stop-opacity:1.0000000;" />
      <stop
         id="stop2765"
         offset="1.0000000"
         style="stop-color:#ffffff;stop-opacity:0.0000000;" />
    </linearGradient>
    <linearGradient
       gradientTransform="matrix(0.183056,0.000000,0.000000,0.265558,6.081840,0.841974)"
       gradientUnits="userSpaceOnUse"
       xlink:href="#blacktowhite"
       id="linearGradient6667"
       y2="299.38031"
       x2="48.348915"
       y1="263.33130"
       x1="63.510639" />
    <linearGradient
       id="blacktowhite">
      <stop
         id="stop2476"
         offset="0.0000000"
         style="stop-color:#000000;stop-opacity:1.0000000;" />
      <stop
         id="stop2475"
         offset="1.0000000"
         style="stop-color:#ffffff;stop-opacity:1.0000000;" />
    </linearGradient>
    <linearGradient
       gradientTransform="matrix(0.988165,0.000000,0.000000,1.059038,-51.61257,-0.295980)"
       gradientUnits="userSpaceOnUse"
       xlink:href="#orangetoyelow"
       id="linearGradient1664"
       y2="-2.7694037"
       x2="113.51736"
       y1="94.234268"
       x1="55.499844" />
    <linearGradient
       id="orangetoyelow">
      <stop
         id="stop2661"
         offset="0.0000000"
         style="stop-color:#ff7d00;stop-opacity:1.0000000;" />
      <stop
         id="stop2662"
         offset="1.0000000"
         style="stop-color:#ffff00;stop-opacity:1.0000000;" />
    </linearGradient>
    <linearGradient
       gradientTransform="matrix(0.988165,0.000000,0.000000,1.059038,-51.61257,-0.295980)"
       gradientUnits="userSpaceOnUse"
       xlink:href="#orangetoyelow"
       id="linearGradient1663"
       y2="-37.592434"
       x2="140.15146"
       y1="65.623413"
       x1="75.064339" />
    <linearGradient
       gradientTransform="matrix(0.988165,0.000000,0.000000,1.059038,-51.61257,-0.295980)"
       gradientUnits="userSpaceOnUse"
       xlink:href="#orangelesstoyelow"
       id="linearGradient1662"
       y2="19.952200"
       x2="86.264603"
       y1="80.526398"
       x1="58.404800" />
    <linearGradient
       id="orangelesstoyelow">
      <stop
         id="stop2689"
         offset="0.0000000"
         style="stop-color:#ff7d00;stop-opacity:1.0000000;" />
      <stop
         id="stop2690"
         offset="0.25358382"
         style="stop-color:#ffbe00;stop-opacity:1.0000000;" />
      <stop
         id="stop2691"
         offset="1.0000000"
         style="stop-color:#ffff00;stop-opacity:1.0000000;" />
    </linearGradient>
    <linearGradient
       gradientTransform="matrix(0.901330,0.434111,-0.405060,0.965975,-51.61257,-0.295980)"
       gradientUnits="userSpaceOnUse"
       xlink:href="#orangetoblackorange"
       id="linearGradient1661"
       y2="0.95772386"
       x2="122.31405"
       y1="9.0542183"
       x1="68.581657" />
    <linearGradient
       id="orangetoblackorange">
      <stop
         id="stop4207"
         offset="0.0000000"
         style="stop-color:#ff8b00;stop-opacity:1.0000000;" />
      <stop
         id="stop4209"
         offset="1.0000000"
         style="stop-color:#4d0200;stop-opacity:1.0000000;" />
    </linearGradient>
    <linearGradient
       gradientTransform="scale(1.373223,0.728214)"
       gradientUnits="userSpaceOnUse"
       xlink:href="#shadow100to0"
       id="linearGradient12328"
       y2="66.370918"
       x2="91.471153"
       y1="96.837074"
       x1="54.536720" />
    <linearGradient
       id="shadow100to0">
      <stop
         id="stop3425"
         offset="0.0000000"
         style="stop-color:#000000;stop-opacity:1.0000000;" />
      <stop
         id="stop3426"
         offset="1.0000000"
         style="stop-color:#000000;stop-opacity:0.0000000;" />
    </linearGradient>
    <linearGradient
       gradientTransform="scale(1.373223,0.728214)"
       gradientUnits="userSpaceOnUse"
       xlink:href="#shadow100to0"
       id="linearGradient13579"
       y2="66.370918"
       x2="91.471153"
       y1="96.837074"
       x1="54.536720" />
    <radialGradient
       r="29.684048"
       fy="76.150833"
       fx="10.801351"
       cy="76.150833"
       cx="10.801351"
       spreadMethod="pad"
       gradientTransform="matrix(0.916961,0.296559,-0.379346,0.906865,9.468124,4.921393)"
       gradientUnits="userSpaceOnUse"
       id="radialGradient1387"
       xlink:href="#light100to0"
       inkscape:collect="always" />
    <linearGradient
       y2="276.82220"
       x2="71.682953"
       y1="268.85364"
       x1="64.788406"
       gradientTransform="matrix(2.279897,0.737353,-0.408765,0.977194,-10.13319,-278.5893)"
       gradientUnits="userSpaceOnUse"
       id="linearGradient1390"
       xlink:href="#light100to0"
       inkscape:collect="always" />
    <linearGradient
       y2="132.36615"
       x2="103.12083"
       y1="131.99197"
       x1="90.278152"
       gradientTransform="matrix(1.220026,0.394575,-0.808574,1.932976,-20.86133,-281.8198)"
       gradientUnits="userSpaceOnUse"
       id="linearGradient1393"
       xlink:href="#light100to0"
       inkscape:collect="always" />
    <linearGradient
       y2="81.194176"
       x2="-14.906669"
       y1="49.156345"
       x1="-42.392288"
       spreadMethod="reflect"
       gradientTransform="matrix(1.544194,0.499416,-0.638833,1.527194,92.36219,-37.60246)"
       gradientUnits="userSpaceOnUse"
       id="linearGradient1396"
       xlink:href="#redtodarkred"
       inkscape:collect="always" />
    <linearGradient
       y2="49.970211"
       x2="51.270317"
       y1="11.576970"
       x1="-6.3514304"
       gradientTransform="matrix(0.943737,0.305219,-0.390424,0.933348,0.000000,0.000000)"
       gradientUnits="userSpaceOnUse"
       id="linearGradient1398"
       xlink:href="#redtodarkred"
       inkscape:collect="always" />
    <linearGradient
       y2="81.194176"
       x2="-14.906669"
       y1="49.156345"
       x1="-42.392288"
       spreadMethod="reflect"
       gradientTransform="matrix(1.544194,0.499416,-0.638833,1.527194,92.36219,-37.60246)"
       gradientUnits="userSpaceOnUse"
       id="linearGradient2166"
       xlink:href="#redtodarkred"
       inkscape:collect="always" />
    <linearGradient
       y2="49.970211"
       x2="51.270317"
       y1="11.576970"
       x1="-6.3514304"
       gradientTransform="matrix(0.943737,0.305219,-0.390424,0.933348,0.000000,0.000000)"
       gradientUnits="userSpaceOnUse"
       id="linearGradient2168"
       xlink:href="#redtodarkred"
       inkscape:collect="always" />
    <linearGradient
       y2="132.36615"
       x2="103.12083"
       y1="131.99197"
       x1="90.278152"
       gradientTransform="matrix(1.220026,0.394575,-0.808574,1.932976,-20.86133,-281.8198)"
       gradientUnits="userSpaceOnUse"
       id="linearGradient2170"
       xlink:href="#light100to0"
       inkscape:collect="always" />
    <linearGradient
       y2="276.82220"
       x2="71.682953"
       y1="268.85364"
       x1="64.788406"
       gradientTransform="matrix(2.279897,0.737353,-0.408765,0.977194,-10.13319,-278.5893)"
       gradientUnits="userSpaceOnUse"
       id="linearGradient2172"
       xlink:href="#light100to0"
       inkscape:collect="always" />
    <radialGradient
       r="29.684048"
       fy="76.150833"
       fx="10.801351"
       cy="76.150833"
       cx="10.801351"
       spreadMethod="pad"
       gradientTransform="matrix(0.916961,0.296559,-0.379346,0.906865,9.468124,4.921393)"
       gradientUnits="userSpaceOnUse"
       id="radialGradient2174"
       xlink:href="#light100to0"
       inkscape:collect="always" />
  </defs>
  <sodipodi:namedview
     inkscape:window-y="25"
     inkscape:window-x="32"
     inkscape:window-height="903"
     inkscape:window-width="1278"
     gridoriginx="0.0000000pt"
     gridoriginy="0.0000000pt"
     gridspacingx="1.0000000pt"
     gridspacingy="1.0000000pt"
     inkscape:grid-bbox="false"
     showgrid="false"
     inkscape:current-layer="layer1"
     inkscape:cy="40.000000"
     inkscape:cx="40.000000"
     inkscape:zoom="9.3000000"
     inkscape:pageshadow="2"
     inkscape:pageopacity="0.0"
     borderopacity="1.0"
     bordercolor="#666666"
     pagecolor="#ffffff"
     id="base" />
  <metadata
     id="metadata4">
    <rdf:RDF
       id="RDF5">
      <cc:Work
         id="Work6"
         rdf:about="">
        <dc:format
           id="format7">image/svg+xml</dc:format>
        <dc:type
           rdf:resource="http://purl.org/dc/dcmitype/StillImage"
           id="type9" />
      </cc:Work>
    </rdf:RDF>
  </metadata>
  <g
     inkscape:groupmode="layer"
     inkscape:label="Layer 1"
     id="layer1">
    <path
       inkscape:export-ydpi="48.818890"
       inkscape:export-xdpi="48.818890"
       sodipodi:nodetypes="ccccccc"
       id="path1105"
       d="M 43.761364,3.5166460 L 79.326072,3.1550993 L 79.326072,58.652530 L 59.607026,79.983790 L 15.239172,79.983790 L 15.063109,69.498935 L 43.761364,3.5166460 z "
       style="fill:#cbcbcb;fill-opacity:1.0000000;fill-rule:evenodd;stroke:none;stroke-width:0.25000000pt;stroke-linecap:butt;stroke-linejoin:miter;stroke-opacity:1.0000000" />
    <path
       sodipodi:nodetypes="cccccc"
       id="path1727"
       d="M 13.478544,0.80504477 L 76.685128,0.98581826 L 76.333003,56.121702 L 57.834927,76.695091 L 13.302481,77.091416 L 13.478544,0.80504477 z "
       style="fill:#ffffff;fill-opacity:1.0000000;fill-rule:evenodd;stroke:none;stroke-width:0.25000000pt;stroke-linecap:butt;stroke-linejoin:miter;stroke-opacity:1.0000000" />
    <path
       style="fill:url(#linearGradient1101);fill-opacity:1.0000000"
       id="path146"
       d="M 74.586946,2.2992534 L 14.913084,2.2992534 L 14.824343,75.008434 L 57.277451,75.008434 L 74.586946,56.482188 L 74.586946,2.2992534 z " />
    <text
       transform="matrix(0.747502,0.000000,0.000000,0.874590,15.29634,3.798540)"
       sodipodi:linespacing="130%"
       id="text1227"
       y="5.98665"
       x="0.68467486"
       style="font-size:5.0000000;font-style:normal;font-variant:normal;font-weight:normal;font-stretch:normal;fill:#5c5b5b;fill-opacity:1.0000000;stroke:none;stroke-width:1.0000000pt;stroke-linecap:butt;stroke-linejoin:miter;stroke-opacity:1.0000000;font-family:Bitstream Vera Sans;text-anchor:start;writing-mode:lr"
       xml:space="preserve"><tspan
         id="tspan1333"
         sodipodi:role="line"
         y="5.9866500"
         x="0.68467486">KDE is a network transparent </tspan><tspan
         id="tspan1335"
         sodipodi:role="line"
         y="12.486650"
         x="0.68467486">contemporary desktop</tspan><tspan
         id="tspan1337"
         sodipodi:role="line"
         y="18.986650"
         x="0.68467486">environment for UNIX </tspan><tspan
         id="tspan1339"
         sodipodi:role="line"
         y="25.486649"
         x="0.68467486">workstations. KDE seeks to fill </tspan><tspan
         id="tspan1341"
         sodipodi:role="line"
         y="31.986649"
         x="0.68467486">the need  for an  easy   to use </tspan><tspan
         id="tspan1343"
         sodipodi:role="line"
         y="38.486649"
         x="0.68467486">desktop for Unix workstations, </tspan><tspan
         id="tspan1345"
         sodipodi:role="line"
         y="44.986649"
         x="0.68467486">similar to the desktop environ-</tspan><tspan
         id="tspan1347"
         sodipodi:role="line"
         y="51.486648"
         x="0.68467486">ments found under the MacOS</tspan><tspan
         id="tspan1349"
         sodipodi:role="line"
         y="57.986648"
         x="0.68467486">or Microsoft Windows.</tspan><tspan
         id="tspan1351"
         sodipodi:role="line"
         y="64.486648"
         x="0.68467486">KDE Desktop </tspan><tspan
         id="tspan1353"
         sodipodi:role="line"
         y="70.986648"
         x="0.68467486">Environment</tspan></text>
    <path
       sodipodi:nodetypes="cccc"
       style="fill:#ffffff"
       id="path163"
       d="M 57.906727,76.003730 L 76.579843,55.095726 L 57.906727,55.095726 L 57.906727,76.003730 z " />
    <path
       sodipodi:nodetypes="cccc"
       style="fill:url(#linearGradient1104);fill-opacity:1.0000000"
       id="path178"
       d="M 58.575263,75.597327 L 76.468730,56.376500 L 58.575263,56.084510 L 58.575263,75.597327 z " />
    <path
       sodipodi:nodetypes="ccccc"
       style="fill:url(#radialGradient1100);fill-opacity:1.0000000"
       id="path195"
       d="M 74.739991,8.9560329 L 74.739991,2.1184801 L 14.878073,2.1184801 L 14.824343,41.719460 C 37.818538,49.835219 71.101761,29.353203 74.739991,8.9560329 z " />
    <path
       sodipodi:nodetypes="ccccccccccccc"
       style="fill:url(#linearGradient1103);fill-opacity:1.0000000"
       id="path210"
       d="M 58.119707,55.820346 C 57.895015,55.820346 57.712653,56.036902 57.712653,56.303720 L 57.809983,76.822404 C 57.809983,77.018653 57.909304,77.194595 58.061546,77.270004 C 58.213777,77.343477 58.388808,77.303843 58.505230,77.164630 L 76.739541,56.743277 C 76.855962,56.605033 76.258328,56.445854 76.828282,56.216406 C 76.764781,56.035623 77.423445,57.685070 76.792003,55.820346 L 58.119707,55.820346 z M 75.809384,56.787094 C 74.571123,58.257512 59.862341,74.232824 58.624090,75.704210 C 58.624090,73.657606 58.526760,57.663934 58.526760,56.787094 C 59.263516,56.787094 74.085919,56.787094 75.809384,56.787094 z " />
    <path
       style="fill:url(#linearGradient1102);fill-opacity:1.0000000"
       id="path225"
       d="M 76.171982,1.2067676 C 76.171982,2.0784545 76.171982,56.137396 76.171982,56.500819 C 75.938329,56.755840 57.971859,76.364837 57.738207,76.620745 C 57.406865,76.620745 14.300028,76.620745 13.503014,76.620745 C 13.503014,75.748177 13.503014,2.0802355 13.503014,1.2076569 C 14.301653,1.2067676 75.374154,1.2067676 76.171982,1.2067676 z M 76.579025,0.31819430 L 12.688916,0.31819430 L 12.688916,77.508432 L 58.075251,77.508432 L 76.986079,56.867806 L 76.986079,0.31819430 L 76.579025,0.31819430 z " />
    <flowRoot
       id="flowRoot1205">
      <flowRegion
         id="flowRegion1206">
        <text
           transform="translate(-0.513506,-0.513506)"
           sodipodi:linespacing="100%"
           id="use1207"
           y="9.1085835"
           x="12.7241"
           style="font-size:1.0000000;font-style:normal;font-variant:normal;font-weight:normal;font-stretch:normal;fill:#000000;fill-opacity:1.0000000;stroke:none;stroke-width:1.0000000pt;stroke-linecap:butt;stroke-linejoin:miter;stroke-opacity:1.0000000;font-family:Bitstream Vera Sans;text-anchor:start;writing-mode:lr"
           xml:space="preserve"><tspan
             id="tspan1219">KDE is a networ</tspan><tspan
             id="tspan1221"></tspan><tspan
             id="tspan1223">k transparent contemporary desktop environment for UNIX workstations. KDE seeks to fill the need for an easy to use desktop for Unix workstations, similar to the desktop environments found under the MacOS or Microsoft Windows. We believe that the UNIX operating system is the best operating system available today. In fact UNIX has been the undisputed choice of the information technology professional for many years. When it comes to stability, scalability and openness there is no competition to UNIX. However, the lack of an easy to use contemporary desktop environment for UNIX has prevented UNIX from finding its way onto the desktops of the typical computer user in offices and homes. UNIX dominates the server market and is the preferred computing platform for computing professional and scientists. Without UNIX the internet would not be. But UNIX did not address the needs of the average computer user. This fact is particularly unfortunate since a number of implementations of UNIX (Debian GNU/Linux, FreeBSD, NetBSD etc.) are freely available on the internet. All of which are of exceptional quality and stability.</tspan></text>
      </flowRegion>
      <flowDiv
         id="flowDiv1208">
        <flowPara
           id="flowPara1209">This is flowed text. Currently, you can only edit it by using the XML editor. You can paste style (Ctrl+Shift+V) from regular text objects to it.</flowPara>
      </flowDiv>
    </flowRoot>
  </g>
  <g
     transform="translate(20.51197,-1.243149)"
     id="g2160">
    <path
       sodipodi:nodetypes="ccccccccccccccccccccccccccccccccccccsscssccccccccccccc"
       id="path6766"
       d="M -7.3960523,2.0110509 C -9.8156006,1.6759162 -12.162042,2.6167369 -13.908343,4.0363024 C -17.177406,6.6937149 -18.379662,10.353612 -17.591397,13.696358 C -16.803130,17.039102 -14.498548,20.054622 -11.638878,22.988369 C -8.3513492,26.361058 -4.2283417,29.591295 0.011467800,32.629860 C 0.38642204,35.702681 0.67946147,38.765296 0.59042028,40.084426 C 0.39539206,42.973662 0.31995785,47.410231 0.054856859,52.056606 C -4.6600739,55.197235 -9.5393593,58.754792 -13.499699,62.506164 C -16.717430,65.554111 -19.323713,68.261924 -19.884942,71.640724 C -20.165557,73.330122 -19.442488,75.625721 -17.543553,76.877822 C -15.644619,78.129921 -13.433259,78.419680 -10.862687,78.441200 C -5.5738951,78.485475 -1.2989716,76.193835 1.3047429,73.018407 C 3.9084558,69.842978 5.2815596,65.877559 6.1232859,61.784315 C 6.5656380,59.633193 6.5775798,57.540208 6.7766550,55.375390 C 8.6316281,54.197177 10.780941,52.728524 12.114139,52.024442 C 14.970234,50.516094 18.553982,48.491839 22.275576,46.550194 C 25.440529,48.115734 28.627113,49.601220 31.610358,50.465175 C 35.226216,51.512336 38.844266,52.080208 42.149740,50.787648 C 45.455213,49.495087 47.115451,46.174834 46.955073,42.436301 C 46.872335,40.507668 46.353996,38.765263 45.104763,37.308251 C 43.855532,35.851237 41.876170,34.950133 40.008797,34.664613 C 36.274050,34.093577 32.811261,35.159435 29.080155,36.555730 C 26.854545,37.388623 24.598983,38.606461 22.337802,39.701203 C 19.323996,38.044388 16.237534,36.265839 13.466521,34.393064 C 11.324462,32.945362 9.0379274,31.326129 6.7671738,29.737585 C 6.1101021,25.478406 5.1206037,20.784557 3.7517584,16.417856 C 2.3550829,11.962377 0.73577898,7.9602543 -1.8848627,5.0876337 C -3.1951826,3.6513247 -4.9765050,2.3461856 -7.3960523,2.0110509 z M -6.2837607,8.8221511 C -4.9446109,10.290064 -4.2785751,13.625061 -2.9948462,17.720236 C -2.4670215,19.404030 -2.2519109,21.252052 -1.8348691,23.073010 C -3.3376721,21.819590 -5.1109407,20.556550 -6.2964041,19.340377 C -8.7389391,16.834567 -10.282183,14.480713 -10.692201,12.741985 C -11.102217,11.003256 -10.870405,9.9028372 -8.9815512,8.3673909 C -8.1749807,7.7117307 -6.9533364,8.0881965 -6.2837607,8.8221511 z M 38.995225,40.509058 C 41.893036,40.879061 41.479725,44.804566 39.036297,45.400408 C 38.458899,45.541209 36.478360,45.808389 33.685905,44.999685 C 32.513651,44.660197 30.603867,43.622688 29.248408,43.062527 C 30.047242,42.720082 31.273324,42.062232 32.031836,41.778373 C 35.244612,40.576053 38.074873,40.391544 38.995225,40.509058 z M 7.3728269,37.698548 C 7.9722355,38.103245 8.6396101,38.601577 9.2171282,38.991891 C 11.246621,40.363512 13.490210,41.618734 15.682161,42.924499 C 12.960606,44.396421 10.215013,45.879641 8.2211581,46.932626 C 7.9961955,47.051432 7.6385895,47.335315 7.4024431,47.464261 C 7.4523849,44.811399 7.4702617,42.122712 7.5697232,40.649246 C 7.6160258,39.963297 7.3919324,38.574781 7.3728269,37.698548 z M -0.86437915,60.669251 C -1.6147685,64.267940 -2.8208622,67.453270 -4.4982781,69.499007 C -6.1907941,71.563159 -7.9257648,72.545884 -11.009691,72.520066 C -12.336980,72.508954 -12.554043,72.359375 -12.766401,72.300353 C -12.446384,71.437267 -10.886567,69.084028 -8.2160781,66.554447 C -6.1889487,64.634281 -3.4737746,62.629703 -0.86437915,60.669251 z "
       style="fill:url(#linearGradient2166);fill-opacity:1.0000000;fill-rule:evenodd;stroke:url(#linearGradient2168);stroke-width:0.69675785;stroke-linecap:butt;stroke-linejoin:miter;stroke-miterlimit:4.0000000;stroke-opacity:1.0000000" />
    <path
       sodipodi:nodetypes="ccccccc"
       id="path4222"
       d="M -8.0361596,1.8014053 C -9.8803839,1.6315814 -11.478730,2.2246273 -12.965666,3.1002389 C -16.510572,5.3009328 -18.540510,10.239391 -17.825154,13.072616 C -17.109799,15.905844 -16.191776,17.661777 -13.741921,20.588486 C -10.953661,23.334582 -10.345205,17.104190 -11.229509,15.773590 C -15.924475,8.0485947 -7.9837471,5.4446617 -7.0921264,6.3620689 C -6.1222360,7.5596863 -1.9286940,2.5563525 -8.0361596,1.8014053 z "
       style="fill:url(#linearGradient2170);fill-opacity:1.0000000;fill-rule:evenodd;stroke:none;stroke-width:1.0625000;stroke-linecap:butt;stroke-linejoin:round;stroke-miterlimit:4.0000000;stroke-opacity:1.0000000" />
    <path
       sodipodi:nodetypes="ccccccccc"
       id="path4228"
       d="M 45.987534,38.249405 C 45.840730,37.150717 44.773672,36.382031 43.860331,35.725228 C 42.441689,34.885937 40.730237,34.495422 39.057841,34.278480 C 36.660244,34.095182 34.225832,34.372668 31.954753,35.083444 C 29.518720,35.757119 27.354703,37.003677 24.990943,37.845083 C 23.712027,38.313433 25.029263,39.211773 25.807111,39.355248 C 28.875941,40.323385 34.754398,37.276813 37.989936,37.494067 C 40.922205,37.621187 41.150650,40.712622 43.991489,39.945915 C 44.868395,39.673381 45.949968,39.192433 45.987534,38.249405 z "
       style="fill:url(#linearGradient2172);fill-opacity:1.0000000;fill-rule:evenodd;stroke:none;stroke-width:0.25000000pt;stroke-linecap:butt;stroke-linejoin:miter;stroke-opacity:1.0000000" />
    <path
       sodipodi:nodetypes="ccccccccccccccccccc"
       id="path8666"
       d="M 0.054856859,52.056606 C -4.6600739,55.197235 -9.5393593,58.754792 -13.499699,62.506164 C -16.717430,65.554111 -19.323714,68.261925 -19.884941,71.640723 C -20.165555,73.330117 -19.442488,75.625721 -17.543552,76.877820 C -15.644617,78.129918 -13.433259,78.419680 -10.862687,78.441198 C -5.5738966,78.485478 -1.2989720,76.193836 1.3047421,73.018409 C 3.9084558,69.842978 5.2815596,65.877559 6.1232859,61.784315 C 6.5656380,59.633193 6.5775798,57.540208 6.7766550,55.375390 C 8.6316281,54.197177 10.780941,52.728524 12.114139,52.024442 C 14.970234,50.516094 0.31995785,47.410231 0.054856859,52.056606 z M 8.2211581,46.932626 C 7.9961955,47.051432 7.6385895,47.335315 7.4024431,47.464261 C 7.4523849,44.811399 10.215013,45.879641 8.2211581,46.932626 z M -0.86437915,60.669251 C -1.6147685,64.267940 -2.8208622,67.453270 -4.4982781,69.499007 C -6.1907933,71.563157 -7.9257652,72.545885 -11.009691,72.520067 C -12.336982,72.508959 -12.554043,72.359375 -12.766399,72.300348 C -12.446384,71.437268 -10.886569,69.084031 -8.2160781,66.554447 C -6.1889487,64.634281 -3.4737746,62.629703 -0.86437915,60.669251 z "
       style="fill:url(#radialGradient2174);fill-opacity:1.0000000;fill-rule:evenodd;stroke:none;stroke-width:0.81250000;stroke-linecap:butt;stroke-linejoin:miter;stroke-miterlimit:4.0000000;stroke-opacity:1.0000000" />
  </g>
</svg>
