<?xml version="1.0" encoding="UTF-8" standalone="no"?>
<!-- Created with Inkscape (http://www.inkscape.org/) -->
<svg
   xmlns:dc="http://purl.org/dc/elements/1.1/"
   xmlns:cc="http://web.resource.org/cc/"
   xmlns:rdf="http://www.w3.org/1999/02/22-rdf-syntax-ns#"
   xmlns:svg="http://www.w3.org/2000/svg"
   xmlns="http://www.w3.org/2000/svg"
   xmlns:xlink="http://www.w3.org/1999/xlink"
   xmlns:sodipodi="http://inkscape.sourceforge.net/DTD/sodipodi-0.dtd"
   xmlns:inkscape="http://www.inkscape.org/namespaces/inkscape"
   inkscape:export-ydpi="45.000000"
   inkscape:export-xdpi="45.000000"
   inkscape:export-filename="/home/nuno/kdeplayground-artwork/oooicons/crystalsvg/extendedhelp.png"
   width="64px"
   height="64px"
   id="svg3328"
   sodipodi:version="0.32"
   inkscape:version="0.41"
   sodipodi:docbase="/home/nuno/kdeplayground-artwork/oooicons/crystalsvg"
   sodipodi:docname="extendedhelp.svg">
  <defs
     id="defs3">
    <radialGradient
       inkscape:collect="always"
       xlink:href="#light90to0"
       id="radialGradient2540"
       gradientUnits="userSpaceOnUse"
       gradientTransform="matrix(0.901404,-2.005241e-2,2.560619e-2,1.151060,-411.8219,-163.2111)"
       cx="330.11304"
       cy="224.77423"
       fx="328.27005"
       fy="224.28973"
       r="105.02886" />
    <linearGradient
       id="light90to0">
      <stop
         style="stop-color:#ffffff;stop-opacity:0.90196079;"
         offset="0.0000000"
         id="stop1890" />
      <stop
         style="stop-color:#ffffff;stop-opacity:0.0000000;"
         offset="1.0000000"
         id="stop1892" />
    </linearGradient>
    <linearGradient
       inkscape:collect="always"
       xlink:href="#light90to0"
       id="linearGradient2543"
       gradientUnits="userSpaceOnUse"
       gradientTransform="matrix(0.728114,-1.619744e-2,3.170042e-2,1.425011,-411.8219,-163.2111)"
       x1="304.64722"
       y1="96.190353"
       x2="299.20441"
       y2="145.69553" />
    <linearGradient
       id="linearGradient5170">
      <stop
         style="stop-color:#8f8fa6;stop-opacity:1.0000000;"
         offset="0.0000000"
         id="stop5171" />
      <stop
         style="stop-color:#ffffff;stop-opacity:1.0000000;"
         offset="1.0000000"
         id="stop5172" />
    </linearGradient>
    <linearGradient
       inkscape:collect="always"
       xlink:href="#linearGradient5170"
       id="linearGradient2546"
       gradientUnits="userSpaceOnUse"
       gradientTransform="matrix(0.728114,-1.619744e-2,3.170042e-2,1.425011,-411.8219,-163.2111)"
       x1="149.29594"
       y1="234.90770"
       x2="409.73569"
       y2="154.10789" />
    <linearGradient
       gradientUnits="userSpaceOnUse"
       y2="90.251816"
       x2="85.588181"
       y1="-65.442917"
       x1="-70.552055"
       gradientTransform="matrix(1.031856,0.000000,0.000000,1.024797,-1.019023,-0.503514)"
       id="linearGradient20636"
       xlink:href="#light100to0"
       inkscape:collect="always" />
    <radialGradient
       gradientUnits="userSpaceOnUse"
       r="88.890495"
       fy="193.66330"
       fx="134.50496"
       cy="193.66330"
       cx="134.50496"
       gradientTransform="matrix(0.281095,0.000000,0.000000,0.185580,-1.091508,-6.738794)"
       id="radialGradient15237"
       xlink:href="#sadow75to0w"
       inkscape:collect="always" />
    <linearGradient
       id="sadow75to0w">
      <stop
         id="stop3429"
         offset="0.0000000"
         style="stop-color:#000000;stop-opacity:0.72941178;" />
      <stop
         id="stop3430"
         offset="1.0000000"
         style="stop-color:#ffffff;stop-opacity:0.0000000;" />
    </linearGradient>
    <radialGradient
       gradientTransform="matrix(0.227767,0.000000,0.000000,0.229031,-1.091508,-6.738794)"
       r="168.66838"
       fy="196.37181"
       fx="176.68071"
       cy="196.37181"
       cx="176.68071"
       gradientUnits="userSpaceOnUse"
       id="radialGradient17117"
       xlink:href="#shadow25tolineto0"
       inkscape:collect="always" />
    <linearGradient
       id="shadow25tolineto0">
      <stop
         id="stop3442"
         offset="0.0000000"
         style="stop-color:#000000;stop-opacity:0.25490198;" />
      <stop
         id="stop3450"
         offset="0.45393065"
         style="stop-color:#000000;stop-opacity:0.029166667;" />
      <stop
         id="stop3449"
         offset="0.50000000"
         style="stop-color:#000000;stop-opacity:0.37083334;" />
      <stop
         id="stop3451"
         offset="0.53497112"
         style="stop-color:#000000;stop-opacity:0.062745102;" />
      <stop
         id="stop3444"
         offset="1.0000000"
         style="stop-color:#000000;stop-opacity:0.0000000;" />
    </linearGradient>
    <radialGradient
       gradientUnits="userSpaceOnUse"
       r="47.952923"
       fy="73.162079"
       fx="34.092976"
       cy="73.162079"
       cx="34.092976"
       gradientTransform="matrix(1.225641,0.000000,0.000000,0.738726,-1.253511e-14,6.179754)"
       id="radialGradient13991"
       xlink:href="#light100to0"
       inkscape:collect="always" />
    <linearGradient
       id="light100to0">
      <stop
         id="stop2764"
         offset="0.0000000"
         style="stop-color:#ffffff;stop-opacity:1.0000000;" />
      <stop
         id="stop2765"
         offset="1.0000000"
         style="stop-color:#ffffff;stop-opacity:0.0000000;" />
    </linearGradient>
    <linearGradient
       y2="-54.699059"
       x2="21.736147"
       y1="-9.1441307"
       x1="10.591972"
       gradientTransform="matrix(1.587847,-0.105593,-4.124021e-2,-0.627041,-1.253511e-14,-1.925272e-16)"
       gradientUnits="userSpaceOnUse"
       id="linearGradient12746"
       xlink:href="#light100to0"
       inkscape:collect="always" />
    <linearGradient
       gradientUnits="userSpaceOnUse"
       y2="351.14484"
       x2="115.53008"
       y1="800.84375"
       x1="115.97614"
       gradientTransform="matrix(0.363454,0.000000,0.000000,0.143529,-1.091508,-6.738794)"
       id="linearGradient12123"
       xlink:href="#sadow75to0w"
       inkscape:collect="always" />
    <linearGradient
       gradientUnits="userSpaceOnUse"
       y2="-41.605087"
       x2="-96.393227"
       y1="311.46384"
       x1="313.24472"
       gradientTransform="matrix(0.227748,0.000000,0.000000,0.229050,-1.091508,-6.738794)"
       id="linearGradient9010"
       xlink:href="#redtodarkred"
       inkscape:collect="always" />
    <linearGradient
       id="redtodarkred">
      <stop
         id="stop3856"
         offset="0.0000000"
         style="stop-color:#ff0000;stop-opacity:1.0000000;" />
      <stop
         id="stop3855"
         offset="1.0000000"
         style="stop-color:#920000;stop-opacity:1.0000000;" />
    </linearGradient>
    <radialGradient
       gradientTransform="matrix(0.227767,0.000000,0.000000,0.229031,-1.091508,-6.738794)"
       r="328.42987"
       fy="195.39659"
       fx="174.74211"
       cy="195.39659"
       cx="174.74211"
       gradientUnits="userSpaceOnUse"
       id="radialGradient17118"
       xlink:href="#shadow25tolineto0"
       inkscape:collect="always" />
    <linearGradient
       gradientTransform="matrix(0.227767,0.000000,0.000000,0.229031,-1.091508,-6.738794)"
       gradientUnits="userSpaceOnUse"
       y2="197.83464"
       x2="337.96164"
       y1="197.83464"
       x1="16.369059"
       id="linearGradient8385"
       xlink:href="#graytolightgray"
       inkscape:collect="always" />
    <linearGradient
       id="graytolightgray">
      <stop
         id="stop5101"
         offset="0.0000000"
         style="stop-color:#d4d3d3;stop-opacity:1.0000000;" />
      <stop
         id="stop5102"
         offset="1.0000000"
         style="stop-color:#ffffff;stop-opacity:1.0000000;" />
    </linearGradient>
  </defs>
  <sodipodi:namedview
     id="base"
     pagecolor="#ffffff"
     bordercolor="#666666"
     borderopacity="1.0"
     inkscape:pageopacity="0.0"
     inkscape:pageshadow="2"
     inkscape:zoom="4.8574110"
     inkscape:cx="16.743516"
     inkscape:cy="28.477880"
     inkscape:current-layer="layer1"
     showgrid="true"
     inkscape:document-units="px"
     inkscape:grid-bbox="true"
     inkscape:window-width="640"
     inkscape:window-height="538"
     inkscape:window-x="637"
     inkscape:window-y="392" />
  <metadata
     id="metadata4">
    <rdf:RDF
       id="RDF5">
      <cc:Work
         rdf:about=""
         id="Work6">
        <dc:format
           id="format7">image/svg+xml</dc:format>
        <dc:type
           id="type9"
           rdf:resource="http://purl.org/dc/dcmitype/StillImage" />
      </cc:Work>
    </rdf:RDF>
  </metadata>
  <g
     id="layer1"
     inkscape:label="Layer 1"
     inkscape:groupmode="layer">
    <g
       transform="translate(-27.42488,-4.566023)"
       inkscape:groupmode="layer"
       inkscape:label="Layer 1"
       id="g1382">
      <g
         transform="matrix(0.699506,0.000000,0.000000,0.690656,27.76064,4.209610)"
         id="g21879">
        <path
           transform="matrix(0.990259,0.000000,0.000000,0.997604,0.756404,0.375515)"
           d="M 75.503510 38.220142 A 36.721310 36.533958 0 1 1  2.0608902,38.220142 A 36.721310 36.533958 0 1 1  75.503510 38.220142 z"
           sodipodi:ry="36.533958"
           sodipodi:rx="36.721310"
           sodipodi:cy="38.220142"
           sodipodi:cx="38.782200"
           id="path18424"
           style="fill:none;fill-opacity:1.0000000;stroke:#a30000;stroke-width:2.6949544;stroke-linecap:butt;stroke-linejoin:round;stroke-miterlimit:4.0000000;stroke-dashoffset:0.0000000;stroke-opacity:1.0000000"
           sodipodi:type="arc" />
        <path
           id="path17136"
           d="M 75.733057,54.375744 C 81.924745,35.086735 71.224002,13.639195 51.834601,6.5010104 C 32.445209,-0.63717207 11.675342,9.2245008 5.4836528,28.513511 C -0.70803447,47.802516 10.015059,69.239619 29.404454,76.377798 C 48.793854,83.515982 69.541368,73.664750 75.733057,54.375744 z M 58.591184,48.064985 C 55.421039,57.940956 44.801290,62.993501 34.873915,59.338750 C 24.946552,55.684002 19.455384,44.700242 22.625528,34.824271 C 25.795672,24.948297 36.432412,19.902010 46.359779,23.556759 C 56.287154,27.211509 61.761328,38.189011 58.591184,48.064985 z "
           style="fill:#000000;fill-opacity:0.21874996;stroke:none;stroke-width:2.6949544;stroke-linecap:butt;stroke-linejoin:round;stroke-miterlimit:4.0000000;stroke-dashoffset:0.0000000;stroke-opacity:1.0000000" />
        <path
           id="path4789"
           d="M 39.269771,2.0527394 C 19.219472,2.0527394 2.9437579,18.403701 2.9437579,38.562590 C 2.9437579,58.721492 19.219472,75.090105 39.269771,75.090105 C 59.320073,75.090105 75.578431,58.721492 75.578425,38.562590 C 75.578425,18.403701 59.320073,2.0527394 39.269771,2.0527394 z M 39.269771,19.874915 C 49.535529,19.874915 57.866887,28.241234 57.866887,38.562590 C 57.866894,48.883948 49.535529,57.267929 39.269771,57.267929 C 29.004021,57.267929 20.672659,48.883948 20.672659,38.562590 C 20.672659,28.241234 29.004021,19.874915 39.269771,19.874915 z "
           style="fill:url(#linearGradient8385);fill-opacity:1.0000000;stroke:none;stroke-width:2.6949544;stroke-linecap:butt;stroke-linejoin:round;stroke-miterlimit:4.0000000;stroke-dashoffset:0.0000000;stroke-opacity:1.0000000" />
        <path
           id="path15862"
           d="M 39.269771,2.0527394 C 19.219472,2.0527394 2.9437579,18.403701 2.9437579,38.562590 C 2.9437579,58.721492 19.219472,75.090105 39.269771,75.090105 C 59.320073,75.090105 75.578431,58.721492 75.578425,38.562590 C 75.578425,18.403701 59.320073,2.0527394 39.269771,2.0527394 z M 39.269771,19.874915 C 49.535529,19.874915 57.866887,28.241234 57.866887,38.562590 C 57.866894,48.883948 49.535529,57.267929 39.269771,57.267929 C 29.004021,57.267929 20.672659,48.883948 20.672659,38.562590 C 20.672659,28.241234 29.004021,19.874915 39.269771,19.874915 z "
           style="fill:url(#radialGradient17118);fill-opacity:1.0000000;stroke:none;stroke-width:2.6949544;stroke-linecap:butt;stroke-linejoin:round;stroke-miterlimit:4.0000000;stroke-dashoffset:0.0000000;stroke-opacity:1.0000000" />
        <path
           sodipodi:nodetypes="cccccccccccccccccccccccc"
           id="path6513"
           d="M 39.259018,2.0502621 L 39.259018,19.871716 C 39.263793,19.871714 39.268478,19.871716 39.273254,19.871716 C 43.983171,19.978776 46.956016,21.056058 50.647416,23.636410 L 61.139169,9.6512197 C 55.012212,4.9064789 47.603003,2.0502621 39.273254,2.0502621 C 39.268465,2.0502621 39.263806,2.0502587 39.259018,2.0502621 z M 9.4142982,17.796126 C 5.3432366,23.694428 2.9442629,30.839936 2.9442629,38.559196 C 2.9442629,38.564010 2.9442595,38.568696 2.9442629,38.573511 L 20.674574,38.573511 C 20.674571,38.568690 20.674574,38.564017 20.674574,38.559196 C 20.439877,35.002824 21.882791,30.246318 23.998565,27.866320 L 9.4142982,17.796126 z M 57.864816,38.573511 C 57.861887,42.458532 56.677093,46.067805 54.654709,49.058824 L 69.203388,59.107547 C 72.785604,53.939019 75.420845,46.934941 75.580892,38.573511 L 57.864816,38.573511 z M 28.710512,53.947198 L 18.759902,68.504967 C 23.243776,72.140602 32.979008,75.321987 39.259018,75.089598 L 39.259018,57.268144 C 35.341655,57.265171 31.707820,56.033423 28.710512,53.947198 z "
           style="fill:url(#linearGradient9010);fill-opacity:1.0000000;stroke:none;stroke-width:2.6949544;stroke-linecap:butt;stroke-linejoin:round;stroke-miterlimit:4.0000000;stroke-dashoffset:0.0000000;stroke-opacity:1.0000000" />
        <path
           sodipodi:nodetypes="czzzzzz"
           id="path11496"
           d="M 39.514675,75.326089 C 25.781090,75.186192 17.260633,67.014176 12.510567,62.917211 C 7.7605031,58.820252 4.5248725,50.949124 5.4134239,48.732926 C 6.2712985,46.593245 16.875008,67.192087 39.261090,66.974843 C 61.847201,66.757601 71.868392,46.015005 72.919753,48.837457 C 73.993669,51.720452 70.741730,58.436710 66.107694,62.549777 C 61.473658,66.662840 53.448288,75.465987 39.514675,75.326089 z "
           style="fill:url(#linearGradient12123);fill-opacity:1.0000000;fill-rule:evenodd;stroke:none;stroke-width:0.25000000pt;stroke-linecap:butt;stroke-linejoin:miter;stroke-opacity:1.0000000" />
        <path
           sodipodi:nodetypes="czzzzzz"
           id="path12745"
           d="M 37.137383,1.4763128 C 22.032553,2.4194205 14.622936,10.656002 10.152090,15.059227 C 5.6812462,19.462454 3.8236180,28.580342 4.8556721,30.732748 C 5.8520908,32.810843 15.080868,11.553281 37.432413,10.284603 C 59.983548,9.0026487 71.344154,29.035071 72.207992,26.149015 C 73.090371,23.201038 70.009972,15.440706 65.116110,11.644101 C 60.222249,7.8474966 52.242727,0.53317398 37.137383,1.4763128 z "
           style="fill:url(#linearGradient12746);fill-opacity:1.0000000;fill-rule:evenodd;stroke:none;stroke-width:0.25000000pt;stroke-linecap:butt;stroke-linejoin:miter;stroke-opacity:1.0000000" />
        <path
           sodipodi:nodetypes="czszzs"
           id="path13368"
           d="M 47.437381,62.768843 C 21.384226,68.892937 20.273443,40.280841 20.211048,41.464145 C 20.148699,42.646585 21.454680,46.835899 24.536508,50.738969 C 27.618337,54.642038 32.476013,58.258862 39.517052,58.296322 C 53.799167,58.371240 58.347529,43.553312 58.321898,41.333612 C 58.296264,39.296023 60.375898,59.727495 47.437381,62.768843 z "
           style="fill:url(#radialGradient13991);fill-opacity:1.0000000;fill-rule:evenodd;stroke:none;stroke-width:0.25000000pt;stroke-linecap:butt;stroke-linejoin:miter;stroke-opacity:1.0000000" />
        <path
           id="path15238"
           d="M 39.269771,2.0527394 C 19.219472,2.0527394 2.9437579,18.403701 2.9437579,38.562590 C 2.9437579,58.721492 19.219472,75.090105 39.269771,75.090105 C 59.320073,75.090105 75.578431,58.721492 75.578425,38.562590 C 75.578425,18.403701 59.320073,2.0527394 39.269771,2.0527394 z M 39.269771,19.874915 C 49.535529,19.874915 57.866887,28.241234 57.866887,38.562590 C 57.866894,48.883948 49.535529,57.267929 39.269771,57.267929 C 29.004021,57.267929 20.672659,48.883948 20.672659,38.562590 C 20.672659,28.241234 29.004021,19.874915 39.269771,19.874915 z "
           style="fill:url(#radialGradient17117);fill-opacity:1.0000000;stroke:none;stroke-width:2.6949544;stroke-linecap:butt;stroke-linejoin:round;stroke-miterlimit:4.0000000;stroke-dashoffset:0.0000000;stroke-opacity:1.0000000" />
        <path
           sodipodi:nodetypes="cczcc"
           id="path14613"
           d="M 37.802576,14.168114 C 60.099968,14.335872 64.320526,37.510239 58.244371,38.516897 C 57.793612,33.653313 53.020452,20.009025 38.938369,19.926280 C 24.656259,19.843532 17.503543,35.443281 21.333711,43.086137 C 13.559047,42.104861 14.504601,14.603769 37.802576,14.168114 z "
           style="fill:url(#radialGradient15237);fill-opacity:1.0000000;fill-rule:evenodd;stroke:none;stroke-width:0.25000000pt;stroke-linecap:butt;stroke-linejoin:miter;stroke-opacity:1.0000000" />
        <path
           sodipodi:nodetypes="cccccccccc"
           id="path20013"
           d="M 39.613887,0.67748095 C 18.867598,0.67748095 1.3392898,18.304475 1.3392898,38.906211 C 1.3392898,59.507958 18.867598,76.236154 39.613887,76.236154 C 60.360178,76.236154 77.182899,59.507958 77.182893,38.906211 C 77.182893,18.304475 60.360178,0.67748095 39.613887,0.67748095 z M 39.613887,19.808009 C 50.235992,19.808009 58.856549,28.358118 58.856549,38.906211 C 58.856556,49.454306 50.235992,58.022464 39.613887,58.022464 C 28.991791,58.022464 20.371229,49.454306 20.371229,38.906211 C 20.371229,28.358118 28.991791,19.808009 39.613887,19.808009 z "
           style="fill:url(#linearGradient20636);fill-opacity:1.0000000;stroke:none;stroke-width:2.6949544;stroke-linecap:butt;stroke-linejoin:round;stroke-miterlimit:4.0000000;stroke-dashoffset:0.0000000;stroke-opacity:1.0000000" />
      </g>
    </g>
    <g
       id="g3338"
       transform="matrix(0.174676,0.000000,0.000000,0.163510,74.47907,29.16727)">
      <path
         style="fill:#000000;fill-opacity:0.043290023;fill-rule:evenodd;stroke:none;stroke-width:28.424999;stroke-linecap:butt;stroke-linejoin:round;stroke-miterlimit:4.0000000;stroke-opacity:1.0000000"
         d="M -240.44301,-68.316144 C -243.86112,-68.437500 -247.18046,-67.085045 -249.64814,-64.565534 C -252.11582,-62.046023 -253.52270,-58.572981 -253.54972,-54.934140 L -254.63730,106.45107 C -254.66290,110.87231 -252.65163,115.02652 -249.25347,117.57112 C -245.85534,120.11570 -241.50131,120.72794 -237.59857,119.20995 L -202.79604,105.62026 L -165.26064,194.27975 C -162.39536,201.06289 -154.91288,204.10154 -148.52866,201.07460 L -117.71393,186.44639 C -114.62153,184.97749 -112.20960,182.25380 -111.01533,178.88192 C -109.82107,175.51006 -109.94366,171.77005 -111.35579,168.49491 L -148.13826,83.128988 L -118.55053,70.132717 C -114.52764,68.363354 -111.63849,64.522605 -110.89718,59.958553 C -110.15587,55.394503 -111.66594,50.744795 -114.89739,47.641453 L -232.38377,-64.874209 C -234.60587,-66.994765 -237.45964,-68.213555 -240.44301,-68.316144 z "
         id="path3326"
         sodipodi:nodetypes="cccccccccccccccccc" />
      <path
         style="fill:#000000;fill-opacity:0.043290023;fill-rule:evenodd;stroke:none;stroke-width:28.424999;stroke-linecap:butt;stroke-linejoin:round;stroke-miterlimit:4.0000000;stroke-opacity:1.0000000"
         d="M -239.69867,-68.316081 C -243.29602,-68.438456 -246.78942,-67.074643 -249.38650,-64.533974 C -251.98358,-61.993304 -253.46424,-58.491096 -253.49268,-54.821696 L -254.63729,107.91881 C -254.66423,112.37718 -252.54749,116.56628 -248.97114,119.13225 C -245.39481,121.69820 -240.81246,122.31558 -236.70507,120.78484 L -200.07755,107.08102 L -160.57385,196.48507 C -157.55832,203.32517 -149.68346,206.38934 -142.96447,203.33698 L -110.53386,188.58592 C -107.27930,187.10469 -104.74089,184.35812 -103.48399,180.95793 C -102.22711,177.55775 -102.35612,173.78633 -103.84230,170.48369 L -142.55359,84.400872 L -111.41433,71.295460 C -107.18048,69.511238 -104.13983,65.638235 -103.35965,61.035854 C -102.57946,56.433476 -104.16872,51.744720 -107.56962,48.615317 L -231.21681,-64.845241 C -233.55544,-66.983605 -236.55886,-68.212630 -239.69867,-68.316081 z "
         id="path3324"
         sodipodi:nodetypes="cccccccccccccccccc" />
      <path
         style="fill:#000000;fill-opacity:0.043290023;fill-rule:evenodd;stroke:none;stroke-width:28.424999;stroke-linecap:butt;stroke-linejoin:round;stroke-miterlimit:4.0000000;stroke-opacity:1.0000000"
         d="M -239.17763,-68.315892 C -242.90045,-68.441324 -246.51569,-67.043438 -249.20335,-64.439293 C -251.89102,-61.835147 -253.42332,-58.245440 -253.45275,-54.484364 L -254.63728,112.32203 C -254.66516,116.89179 -252.47459,121.18555 -248.77351,123.81563 C -245.07244,126.44569 -240.33027,127.07849 -236.07962,125.50951 L -198.17461,111.46331 L -157.29309,203.10102 C -154.17239,210.11202 -146.02287,213.25274 -139.06953,210.12412 L -105.50781,195.00452 C -102.13974,193.48628 -99.512796,190.67109 -98.212058,187.18595 C -96.911332,183.70082 -97.044845,179.83518 -98.582864,176.45003 L -138.64432,88.216525 L -106.41899,74.783689 C -102.03747,72.954890 -98.890772,68.985124 -98.083380,64.267758 C -97.275977,59.550395 -98.920664,54.744495 -102.44018,51.536908 L -230.39994,-64.758337 C -232.82014,-66.950125 -235.92831,-68.209856 -239.17763,-68.315892 z "
         id="path3322"
         sodipodi:nodetypes="cccccccccccccccccc" />
      <path
         style="fill:#000000;fill-opacity:0.077922054;fill-rule:evenodd;stroke:none;stroke-width:28.424999;stroke-linecap:butt;stroke-linejoin:round;stroke-miterlimit:4.0000000;stroke-opacity:1.0000000"
         d="M -238.73102,-68.315744 C -242.56139,-68.443555 -246.28106,-67.019167 -249.04636,-64.365652 C -251.81167,-61.712136 -253.38825,-58.054374 -253.41852,-54.221994 L -254.63727,115.74676 C -254.66596,120.40315 -252.41210,124.77832 -248.60411,127.45825 C -244.79612,130.13818 -239.91695,130.78298 -235.54352,129.18426 L -196.54352,114.87176 L -154.48102,208.24676 C -151.27015,215.39068 -142.88521,218.59094 -135.73102,215.40301 L -101.19977,199.99676 C -97.734393,198.44974 -95.031563,195.58118 -93.693253,192.02998 C -92.354953,188.47877 -92.492323,184.53985 -94.074773,181.09051 L -135.29352,91.184256 L -102.13727,77.496756 C -97.629183,75.633286 -94.391583,71.588260 -93.560853,66.781462 C -92.730133,61.974665 -94.422333,57.077654 -98.043523,53.809256 L -229.69977,-64.690744 C -232.18988,-66.924085 -235.38785,-68.207698 -238.73102,-68.315744 z "
         id="path2558"
         sodipodi:nodetypes="cccccccccccccccccc" />
      <path
         d="M -241.66309,-58.084431 L -242.76576,107.59433 L -196.25894,89.190355 L -153.29571,191.98354 L -122.06466,176.97007 L -164.91406,76.222367 L -122.59258,57.413445 L -241.66309,-58.084431 z "
         style="fill:url(#linearGradient2546);fill-opacity:1.0000000;fill-rule:evenodd;stroke:#000000;stroke-width:12.246215pt;stroke-linecap:butt;stroke-linejoin:round;stroke-opacity:1.0000000"
         id="path4041"
         sodipodi:nodetypes="cccccccc" />
      <path
         style="fill:url(#linearGradient2543);fill-opacity:1.0000000;fill-rule:evenodd;stroke:none;stroke-width:12.019479pt;stroke-linecap:butt;stroke-linejoin:round;stroke-opacity:1.0000000"
         d="M -242.09167,-56.572017 C -244.06020,-55.969913 -243.33928,-51.783768 -243.42392,-50.574436 L -244.57843,106.76204 C -232.57792,94.476986 -190.75933,112.21309 -208.57692,69.906898 C -241.68022,-20.399695 -143.86250,26.863280 -189.91859,-12.415651 L -234.27306,-54.421089 C -236.85111,-56.634472 -239.21729,-59.170144 -242.09167,-56.572017 z "
         id="path4083"
         sodipodi:nodetypes="ccccccc" />
      <path
         style="fill:url(#radialGradient2540);fill-opacity:1.0000000;fill-rule:evenodd;stroke:none;stroke-width:12.019479pt;stroke-linecap:butt;stroke-linejoin:round;stroke-opacity:1.0000000"
         d="M -231.15568,104.21768 L -196.26907,89.193189 L -153.28120,191.99565 L -122.05471,176.96967 L -164.90106,76.234144 L -121.86062,58.665340 C -161.28054,43.574062 -227.81908,82.437212 -231.15568,104.21768 z "
         id="path4096"
         sodipodi:nodetypes="ccccccc" />
    </g>
  </g>
</svg>
