<?xml version="1.0" encoding="UTF-8" standalone="no"?>
<!-- Created with Inkscape (http://www.inkscape.org/) -->
<svg
   xmlns:xml="http://www.w3.org/XML/1998/namespace"
   xmlns:dc="http://purl.org/dc/elements/1.1/"
   xmlns:cc="http://web.resource.org/cc/"
   xmlns:rdf="http://www.w3.org/1999/02/22-rdf-syntax-ns#"
   xmlns:svg="http://www.w3.org/2000/svg"
   xmlns="http://www.w3.org/2000/svg"
   xmlns:xlink="http://www.w3.org/1999/xlink"
   xmlns:sodipodi="http://inkscape.sourceforge.net/DTD/sodipodi-0.dtd"
   xmlns:inkscape="http://www.inkscape.org/namespaces/inkscape"
   inkscape:export-ydpi="36.000000"
   inkscape:export-xdpi="36.000000"
   inkscape:export-filename="/home/nuno/kdeplayground-artwork/oooicons/crystalsvg/favoritedocuments.png"
   sodipodi:docname="favoritedocuments.svg"
   sodipodi:docbase="/home/pinheiro/kdeplayground-artwork/oooicons/crystalsvg"
   inkscape:version="0.41"
   sodipodi:version="0.32"
   id="svg1557"
   height="64pt"
   width="64pt">
  <defs
     id="defs3">
    <linearGradient
       y2="323.76923"
       x2="272.46765"
       y1="59.053604"
       x1="122.43015"
       gradientTransform="matrix(0.204525,0.000000,0.000000,0.226384,5.840703,-3.974545)"
       gradientUnits="userSpaceOnUse"
       id="linearGradient1101"
       xlink:href="#graytolightgray"
       inkscape:collect="always" />
    <linearGradient
       id="graytolightgray">
      <stop
         id="stop5101"
         offset="0.0000000"
         style="stop-color:#d4d3d3;stop-opacity:1.0000000;" />
      <stop
         id="stop5102"
         offset="1.0000000"
         style="stop-color:#ffffff;stop-opacity:1.0000000;" />
    </linearGradient>
    <linearGradient
       y2="273.80606"
       x2="330.93881"
       y1="340.20792"
       x1="284.17496"
       gradientTransform="matrix(0.204525,0.000000,0.000000,0.231449,5.324862,-3.843940)"
       gradientUnits="userSpaceOnUse"
       id="linearGradient1104"
       xlink:href="#graytolightgray"
       inkscape:collect="always" />
    <radialGradient
       r="508.29517"
       fy="52.577991"
       fx="53.182602"
       cy="52.577991"
       cx="53.182602"
       gradientTransform="matrix(0.249621,0.000000,0.000000,0.189636,5.842339,-4.255825)"
       gradientUnits="userSpaceOnUse"
       id="radialGradient1100"
       xlink:href="#light75to0"
       inkscape:collect="always" />
    <linearGradient
       y2="513.91156"
       x2="561.86395"
       y1="248.01839"
       x1="245.91402"
       gradientTransform="matrix(0.204525,0.000000,0.000000,0.231449,5.568454,-3.864954)"
       gradientUnits="userSpaceOnUse"
       id="linearGradient1103"
       xlink:href="#garylighttowite"
       inkscape:collect="always" />
    <linearGradient
       id="garylighttowite">
      <stop
         id="stop5106"
         offset="0.0000000"
         style="stop-color:#7d7d7d;stop-opacity:1.0000000;" />
      <stop
         id="stop5107"
         offset="1.0000000"
         style="stop-color:#d3d4d4;stop-opacity:1.0000000;" />
    </linearGradient>
    <linearGradient
       y2="648.29797"
       x2="578.44397"
       y1="-50.289883"
       x1="-37.332329"
       gradientTransform="matrix(0.204525,0.000000,0.000000,0.231449,5.924256,-3.863609)"
       gradientUnits="userSpaceOnUse"
       id="linearGradient1102"
       xlink:href="#garylighttowite"
       inkscape:collect="always" />
    <linearGradient
       id="linearGradient9802"
       inkscape:collect="always">
      <stop
         id="stop9803"
         offset="0"
         style="stop-color:#000000;stop-opacity:1;" />
      <stop
         id="stop9804"
         offset="1"
         style="stop-color:#000000;stop-opacity:0;" />
    </linearGradient>
    <linearGradient
       y2="267.98221"
       x2="242.68181"
       y1="313.33301"
       x1="292.81448"
       gradientTransform="matrix(0.140872,0.000000,0.000000,0.129344,-8.484883e-2,4.138533)"
       gradientUnits="userSpaceOnUse"
       id="linearGradient1217"
       xlink:href="#linearGradient9802"
       inkscape:collect="always" />
    <radialGradient
       r="61.827145"
       fy="74.483215"
       fx="37.512009"
       cy="74.483215"
       cx="37.512009"
       gradientTransform="scale(1.053559,0.949164)"
       gradientUnits="userSpaceOnUse"
       id="radialGradient1216"
       xlink:href="#light100to0"
       inkscape:collect="always" />
    <linearGradient
       id="light100to25to0">
      <stop
         id="stop2785"
         offset="0.0000000"
         style="stop-color:#ffffff;stop-opacity:1.0000000;" />
      <stop
         id="stop2786"
         offset="0.50000000"
         style="stop-color:#ffffff;stop-opacity:0.28749999;" />
      <stop
         id="stop2787"
         offset="1.0000000"
         style="stop-color:#ffffff;stop-opacity:0.0000000;" />
    </linearGradient>
    <radialGradient
       r="76.998276"
       fy="58.964947"
       fx="20.115261"
       cy="58.964947"
       cx="20.115261"
       gradientTransform="matrix(0.216271,0.000000,0.000000,0.181912,-0.117334,3.874241)"
       gradientUnits="userSpaceOnUse"
       id="radialGradient1215"
       xlink:href="#light100to25to0"
       inkscape:collect="always" />
    <linearGradient
       id="light100to0">
      <stop
         id="stop2764"
         offset="0.0000000"
         style="stop-color:#ffffff;stop-opacity:1.0000000;" />
      <stop
         id="stop2765"
         offset="1.0000000"
         style="stop-color:#ffffff;stop-opacity:0.0000000;" />
    </linearGradient>
    <linearGradient
       y2="63.394917"
       x2="53.998566"
       y1="9.3687191"
       x1="38.721409"
       gradientTransform="scale(1.054701,0.948136)"
       gradientUnits="userSpaceOnUse"
       id="linearGradient1214"
       xlink:href="#light100to0"
       inkscape:collect="always" />
    <linearGradient
       id="light75to0">
      <stop
         id="stop2769"
         offset="0.0000000"
         style="stop-color:#ffffff;stop-opacity:0.72916669;" />
      <stop
         id="stop2770"
         offset="1.0000000"
         style="stop-color:#ffffff;stop-opacity:0.0000000;" />
    </linearGradient>
    <radialGradient
       r="50.502575"
       fy="54.969162"
       fx="202.13837"
       cy="54.969162"
       cx="202.13837"
       gradientTransform="matrix(0.217023,0.000000,0.000000,0.194167,-0.117334,3.598975)"
       gradientUnits="userSpaceOnUse"
       id="radialGradient1213"
       xlink:href="#light75to0"
       inkscape:collect="always" />
    <linearGradient
       y2="354.34375"
       x2="364.46487"
       y1="-442.00742"
       x1="-799.36414"
       gradientTransform="matrix(0.201866,0.000000,0.000000,0.208746,-0.117358,3.598974)"
       gradientUnits="userSpaceOnUse"
       id="linearGradient1212"
       xlink:href="#redtodarkred"
       inkscape:collect="always" />
    <linearGradient
       id="redtodarkred">
      <stop
         id="stop3856"
         offset="0.0000000"
         style="stop-color:#ff0000;stop-opacity:1.0000000;" />
      <stop
         id="stop3855"
         offset="1.0000000"
         style="stop-color:#920000;stop-opacity:1.0000000;" />
    </linearGradient>
    <linearGradient
       y2="615.23419"
       x2="118.24639"
       y1="5.8390570"
       x1="99.897820"
       gradientTransform="matrix(0.221749,0.000000,0.000000,0.199344,1.205673,-0.580556)"
       gradientUnits="userSpaceOnUse"
       id="linearGradient1211"
       xlink:href="#redtodarkred"
       inkscape:collect="always" />
    <linearGradient
       gradientUnits="userSpaceOnUse"
       y2="34.794754"
       x2="86.546188"
       y1="34.794754"
       x1="17.510748"
       gradientTransform="matrix(0.893164,0.000000,0.000000,1.111723,0.106102,0.457951)"
       id="linearGradient2122"
       xlink:href="#garylighttowite"
       inkscape:collect="always" />
  </defs>
  <sodipodi:namedview
     inkscape:window-y="25"
     inkscape:window-x="0"
     inkscape:window-height="902"
     inkscape:window-width="1272"
     gridoriginx="0.0000000pt"
     gridoriginy="0.0000000pt"
     gridspacingx="1.0000000pt"
     gridspacingy="1.0000000pt"
     inkscape:grid-bbox="true"
     showgrid="true"
     inkscape:current-layer="layer1"
     inkscape:cy="50.054541"
     inkscape:cx="32.000000"
     inkscape:zoom="11.640625"
     inkscape:pageshadow="2"
     inkscape:pageopacity="0.0"
     borderopacity="1.0"
     bordercolor="#666666"
     pagecolor="#ffffff"
     id="base" />
  <metadata
     id="metadata4">
    <rdf:RDF
       id="RDF5">
      <cc:Work
         id="Work6"
         rdf:about="">
        <dc:format
           id="format7">image/svg+xml</dc:format>
        <dc:type
           rdf:resource="http://purl.org/dc/dcmitype/StillImage"
           id="type9" />
      </cc:Work>
    </rdf:RDF>
  </metadata>
  <g
     inkscape:groupmode="layer"
     inkscape:label="Layer 1"
     id="layer1">
    <path
       inkscape:export-ydpi="48.818890"
       inkscape:export-xdpi="48.818890"
       sodipodi:nodetypes="ccccccc"
       id="path1105"
       d="M 45.544018,3.9460745 L 79.649984,3.5865977 L 79.649984,58.766243 L 60.739746,79.975356 L 18.191711,79.975356 L 18.022868,69.550538 L 45.544018,3.9460745 z "
       style="fill:#cbcbcb;fill-opacity:1.0000000;fill-rule:evenodd;stroke:none;stroke-width:0.25000000pt;stroke-linecap:butt;stroke-linejoin:miter;stroke-opacity:1.0000000" />
    <path
       id="path1727"
       d="M 16.503297,1.2500000 L 77.117363,1.4297384 L 76.779681,56.249906 L 58.713650,76.560331 L 16.334455,77.099545 L 16.503297,1.2500000 z "
       style="fill:#ffffff;fill-opacity:1.0000000;fill-rule:evenodd;stroke:none;stroke-width:0.25000000pt;stroke-linecap:butt;stroke-linejoin:miter;stroke-opacity:1.0000000" />
    <path
       style="fill:url(#linearGradient1101);fill-opacity:1.0000000"
       id="path146"
       d="M 75.105241,2.7356524 L 17.878996,2.7356524 L 17.793895,75.028490 L 58.505722,75.028490 L 75.105241,56.608328 L 75.105241,2.7356524 z " />
    <path
       style="fill:url(#linearGradient1102);fill-opacity:1.0000000;stroke:url(#linearGradient2122);stroke-linecap:round;stroke-linejoin:round"
       id="path225"
       d="M 76.625264,1.6494225 C 76.625264,2.5161178 76.625264,56.265511 76.625264,56.626853 C 76.401195,56.880414 59.171648,76.377127 58.947580,76.631569 C 58.629827,76.631569 17.291086,76.631569 16.526764,76.631569 C 16.526764,75.763997 16.526764,2.5178886 16.526764,1.6503067 C 17.292645,1.6494225 75.860160,1.6494225 76.625264,1.6494225 z M 77.015612,0.76593738 L 15.746057,0.76593738 L 15.746057,77.514173 L 59.270799,77.514173 L 77.405969,56.991739 L 77.405969,0.76593738 L 77.015612,0.76593738 z " />
    <text
       transform="scale(0.907938,1.101396)"
       sodipodi:linespacing="130%"
       id="text1227"
       y="8.5638847"
       x="20.637236"
       style="font-size:3.9476295;font-style:normal;font-variant:normal;font-weight:normal;font-stretch:normal;fill:#5c5b5b;fill-opacity:1.0000000;stroke:none;stroke-width:1.0000000pt;stroke-linecap:butt;stroke-linejoin:miter;stroke-opacity:1.0000000;font-family:Bitstream Vera Sans;text-anchor:start;writing-mode:lr-tb"
       xml:space="preserve"><tspan
         id="tspan1333"
         sodipodi:role="line"
         y="8.5638847"
         x="20.637236">KDE is a network transparent </tspan><tspan
         id="tspan1335"
         sodipodi:role="line"
         y="13.695803"
         x="20.637236">contemporary desktop</tspan><tspan
         id="tspan1337"
         sodipodi:role="line"
         y="18.827721"
         x="20.637236">environment for UNIX </tspan><tspan
         id="tspan1339"
         sodipodi:role="line"
         y="23.959639"
         x="20.637236">workstations. KDE seeks to fill </tspan><tspan
         id="tspan1341"
         sodipodi:role="line"
         y="29.091557"
         x="20.637236">the need  for an  easy   to use </tspan><tspan
         id="tspan1343"
         sodipodi:role="line"
         y="34.223475"
         x="20.637236">desktop for Unix workstations, </tspan><tspan
         id="tspan1345"
         sodipodi:role="line"
         y="39.355393"
         x="20.637236">similar to the desktop environ-</tspan><tspan
         id="tspan1347"
         sodipodi:role="line"
         y="44.487311"
         x="20.637236">ments found under the MacOS</tspan><tspan
         id="tspan1349"
         sodipodi:role="line"
         y="49.619230"
         x="20.637236">or Microsoft Windows.</tspan><tspan
         id="tspan1351"
         sodipodi:role="line"
         y="54.751148"
         x="20.637236">KDE Desktop </tspan><tspan
         id="tspan1353"
         sodipodi:role="line"
         y="59.883066"
         x="20.637236">Environment</tspan></text>
    <path
       sodipodi:nodetypes="ccccc"
       style="fill:url(#radialGradient1100);fill-opacity:1.0000000"
       id="path195"
       d="M 75.252009,9.3543147 L 75.252009,2.5559146 L 17.845422,2.5559146 L 17.793895,41.930133 C 39.844947,49.999421 71.763006,29.634687 75.252009,9.3543147 z " />
    <path
       style="fill:#ffffff"
       id="path163"
       d="M 59.109187,76.323812 L 77.016397,56.866554 L 59.109187,56.866554 L 59.109187,76.323812 z " />
    <path
       style="fill:url(#linearGradient1104);fill-opacity:1.0000000"
       id="path178"
       d="M 59.750303,75.952411 L 75.509774,58.120164 L 59.750303,58.120164 L 59.750303,75.952411 z " />
    <path
       style="fill:url(#linearGradient1103);fill-opacity:1.0000000"
       id="path210"
       d="M 58.753404,56.366648 C 58.537929,56.366648 58.363046,56.564553 58.363046,56.808391 L 58.363046,77.071975 C 58.363046,77.251321 58.458294,77.412111 58.604292,77.481024 C 58.750278,77.548170 58.918131,77.511949 59.029777,77.384726 L 76.936200,57.121142 C 77.047846,56.994805 77.081419,56.804863 77.021299,56.639650 C 76.960403,56.474438 76.818309,56.366648 76.659827,56.366648 L 58.753404,56.366648 z M 75.717512,57.250133 C 74.530039,58.593910 60.331224,74.660952 59.143762,76.005614 C 59.143762,74.135276 59.143762,58.051455 59.143762,57.250133 C 59.850298,57.250133 74.064737,57.250133 75.717512,57.250133 z " />
    <path
       transform="matrix(0.649642,0.000000,0.000000,0.665604,-0.356691,1.663609)"
       id="path8556"
       d="M 22.008618,7.7472085 C 11.477912,7.7472085 2.9372932,16.588981 2.9373460,27.478638 C 2.9373460,32.457829 4.7344042,36.995478 7.6807435,40.468046 L 7.6807435,40.659829 L 39.342648,74.016476 L 71.707245,41.154370 L 71.707245,41.093829 C 74.981653,37.551327 77.006983,32.762267 77.006983,27.478638 C 77.006983,16.588981 68.456633,7.7472085 57.925929,7.7472085 C 49.632505,7.7472085 42.594004,13.239757 39.967261,20.888028 C 37.339655,13.241477 30.300880,7.7472085 22.008618,7.7472085 z "
       style="fill:none;fill-opacity:1.0000000;fill-rule:evenodd;stroke:#6f0000;stroke-width:2.6686013;stroke-linecap:butt;stroke-linejoin:round;stroke-miterlimit:4.0000000;stroke-opacity:0.094262250;" />
    <path
       transform="matrix(0.649642,0.000000,0.000000,0.665604,-0.356691,1.663609)"
       id="path8555"
       d="M 22.008618,7.7472085 C 11.477912,7.7472085 2.9372932,16.588981 2.9373460,27.478638 C 2.9373460,32.457829 4.7344042,36.995478 7.6807435,40.468046 L 7.6807435,40.659829 L 39.342648,74.016476 L 71.707245,41.154370 L 71.707245,41.093829 C 74.981653,37.551327 77.006983,32.762267 77.006983,27.478638 C 77.006983,16.588981 68.456633,7.7472085 57.925929,7.7472085 C 49.632505,7.7472085 42.594004,13.239757 39.967261,20.888028 C 37.339655,13.241477 30.300880,7.7472085 22.008618,7.7472085 z "
       style="fill:none;fill-opacity:1.0000000;fill-rule:evenodd;stroke:#6f0000;stroke-width:3.0021768;stroke-linecap:butt;stroke-linejoin:round;stroke-miterlimit:4.0000000;stroke-opacity:0.094262250;" />
    <path
       transform="matrix(0.649642,0.000000,0.000000,0.665604,-0.356691,1.663609)"
       id="path8554"
       d="M 22.008618,7.7472085 C 11.477912,7.7472085 2.9372932,16.588981 2.9373460,27.478638 C 2.9373460,32.457829 4.7344042,36.995478 7.6807435,40.468046 L 7.6807435,40.659829 L 39.342648,74.016476 L 71.707245,41.154370 L 71.707245,41.093829 C 74.981653,37.551327 77.006983,32.762267 77.006983,27.478638 C 77.006983,16.588981 68.456633,7.7472085 57.925929,7.7472085 C 49.632505,7.7472085 42.594004,13.239757 39.967261,20.888028 C 37.339655,13.241477 30.300880,7.7472085 22.008618,7.7472085 z "
       style="fill:none;fill-opacity:1.0000000;fill-rule:evenodd;stroke:#6f0000;stroke-width:3.7719657;stroke-linecap:butt;stroke-linejoin:round;stroke-miterlimit:4.0000000;stroke-opacity:0.094262250;" />
    <path
       transform="matrix(0.649642,0.000000,0.000000,0.665604,-0.356691,1.663609)"
       id="path7928"
       d="M 22.008618,7.7472085 C 11.477912,7.7472085 2.9372932,16.588981 2.9373460,27.478638 C 2.9373460,32.457829 4.7344042,36.995478 7.6807435,40.468046 L 7.6807435,40.659829 L 39.342648,74.016476 L 71.707245,41.154370 L 71.707245,41.093829 C 74.981653,37.551327 77.006983,32.762267 77.006983,27.478638 C 77.006983,16.588981 68.456633,7.7472085 57.925929,7.7472085 C 49.632505,7.7472085 42.594004,13.239757 39.967261,20.888028 C 37.339655,13.241477 30.300880,7.7472085 22.008618,7.7472085 z "
       style="fill:none;fill-opacity:1.0000000;fill-rule:evenodd;stroke:#6f0000;stroke-width:4.7470317;stroke-linecap:butt;stroke-linejoin:round;stroke-miterlimit:4.0000000;stroke-opacity:0.094262250;" />
    <path
       transform="matrix(0.649642,0.000000,0.000000,0.665604,-0.356691,1.663609)"
       id="path3990"
       d="M 22.008618,7.7472085 C 11.477912,7.7472085 2.9372932,16.588981 2.9373460,27.478638 C 2.9373460,32.457829 4.7344042,36.995478 7.6807435,40.468046 L 7.6807435,40.659829 L 39.342648,74.016476 L 71.707245,41.154370 L 71.707245,41.093829 C 74.981653,37.551327 77.006983,32.762267 77.006983,27.478638 C 77.006983,16.588981 68.456633,7.7472085 57.925929,7.7472085 C 49.632505,7.7472085 42.594004,13.239757 39.967261,20.888028 C 37.339655,13.241477 30.300880,7.7472085 22.008618,7.7472085 z "
       style="fill:url(#linearGradient1211);fill-opacity:1.0000000;fill-rule:evenodd;stroke:url(#linearGradient1212);stroke-width:1.6935356;stroke-linecap:butt;stroke-linejoin:round;stroke-miterlimit:4.0000000;stroke-opacity:1.0000000;" />
    <path
       transform="matrix(0.649642,0.000000,0.000000,0.665604,-0.356691,1.663609)"
       sodipodi:nodetypes="ccccccccccc"
       id="path6678"
       d="M 22.008618,7.7472085 C 11.477912,7.7472085 2.9372932,16.588981 2.9373460,27.478638 C 2.9373460,32.457829 4.7344042,36.995478 7.6807435,40.468046 L 7.6807435,40.659829 L 39.514187,70.107572 L 71.707245,41.154370 L 71.707245,41.093829 C 74.981653,37.551327 77.006983,32.762267 77.006983,27.478638 C 77.006983,16.588981 68.456633,7.7472085 57.925929,7.7472085 C 49.632505,7.7472085 42.594004,13.239757 39.967261,20.888028 C 37.339655,13.241477 30.300880,7.7472085 22.008618,7.7472085 z "
       style="fill:url(#radialGradient1213);fill-opacity:1.0000000;fill-rule:evenodd;stroke:none;stroke-width:13.954967;stroke-linecap:butt;stroke-linejoin:round;stroke-miterlimit:4.0000000;stroke-opacity:1.0000000;" />
    <path
       transform="matrix(0.649642,0.000000,0.000000,0.665604,-0.356691,1.663609)"
       sodipodi:nodetypes="ccccccc"
       id="path2323"
       d="M 21.665535,8.0729514 C 11.134831,8.0729514 2.0795865,18.054821 3.2804287,29.270220 C 13.664727,48.900545 69.327759,32.645011 74.948491,26.012799 C 74.948491,15.611756 68.456633,9.0501780 57.925929,9.0501780 C 49.632505,9.0501780 43.623251,13.076885 40.996507,20.725158 L 39.780841,21.303862 C 35.216116,10.073056 25.811666,8.0729514 21.665535,8.0729514 z "
       style="fill:url(#linearGradient1214);fill-opacity:1.0;fill-rule:evenodd;stroke:none;stroke-width:16.750704;stroke-linecap:butt;stroke-linejoin:round;stroke-miterlimit:4.0000000;stroke-opacity:1.0000000;" />
    <path
       transform="matrix(0.649642,0.000000,0.000000,0.665604,-0.356691,1.663609)"
       sodipodi:nodetypes="ccccccccccc"
       id="path3568"
       d="M 22.008618,7.7472085 C 11.477912,7.7472085 2.9372932,16.002256 2.9373460,26.169294 C 2.9373460,30.818070 4.7344042,35.054613 7.6807435,38.296745 L 7.6807435,38.475805 L 39.171108,72.224893 L 71.707245,38.937526 L 71.707245,38.881003 C 74.981653,35.573576 77.006983,31.102310 77.006983,26.169294 C 77.006983,16.002256 68.456633,7.7472085 57.925929,7.7472085 C 49.632505,7.7472085 42.594004,12.875280 39.967261,20.016026 C 37.339655,12.876887 30.300880,7.7472085 22.008618,7.7472085 z "
       style="fill:url(#radialGradient1215);fill-opacity:1.0000000;fill-rule:evenodd;stroke:none;stroke-width:16.750704;stroke-linecap:butt;stroke-linejoin:round;stroke-miterlimit:4.0000000;stroke-opacity:1.0000000;" />
    <path
       transform="matrix(0.649642,0.000000,0.000000,0.665604,-0.356691,1.663609)"
       sodipodi:nodetypes="cccczcccccc"
       id="path5434"
       d="M 21.665535,7.2585967 C 11.134832,7.2585967 2.5942105,16.100369 2.5942670,26.990025 C 2.5942670,31.969215 4.3913214,36.506866 7.3376608,39.979433 C 7.3376608,40.043363 7.3376608,40.107290 7.3376608,40.171216 C 17.891630,51.290099 36.746124,71.878623 39.336273,71.961045 C 42.094618,72.048821 60.575964,51.619794 71.364163,40.665757 C 71.364163,40.645578 71.364163,40.625395 71.364163,40.605221 C 74.638571,37.062714 76.663901,32.273655 76.663901,26.990025 C 76.663901,16.100369 68.113551,7.2585967 57.582845,7.2585967 C 49.289422,7.2585967 42.250921,12.751142 39.624179,20.399416 C 36.996573,12.752865 29.957797,7.2585967 21.665535,7.2585967 z "
       style="fill:url(#radialGradient1216);fill-opacity:1.0;fill-rule:evenodd;stroke:none;stroke-width:16.750704;stroke-linecap:butt;stroke-linejoin:round;stroke-miterlimit:4.0000000;stroke-opacity:1.0000000;" />
    <path
       transform="matrix(0.649642,0.000000,0.000000,0.665604,-0.356691,1.663609)"
       id="path9178"
       d="M 22.008618,7.7472085 C 11.477912,7.7472085 2.9372932,16.588981 2.9373460,27.478638 C 2.9373460,32.457829 4.7344042,36.995478 7.6807435,40.468046 L 7.6807435,40.659829 L 39.342648,74.016476 L 71.707245,41.154370 L 71.707245,41.093829 C 74.981653,37.551327 77.006983,32.762267 77.006983,27.478638 C 77.006983,16.588981 68.456633,7.7472085 57.925929,7.7472085 C 49.632505,7.7472085 42.594004,13.239757 39.967261,20.888028 C 37.339655,13.241477 30.300880,7.7472085 22.008618,7.7472085 z "
       style="fill:none;fill-opacity:1.0000000;fill-rule:evenodd;stroke:#000000;stroke-width:0.64149076;stroke-linecap:butt;stroke-linejoin:round;stroke-miterlimit:4.0000000;stroke-opacity:0.028688492;" />
    <path
       transform="matrix(0.649642,0.000000,0.000000,0.665604,-0.356691,1.663609)"
       id="path9800"
       d="M 22.008618,7.7472085 C 11.477912,7.7472085 2.9372932,16.588981 2.9373460,27.478638 C 2.9373460,32.457829 4.7344042,36.995478 7.6807435,40.468046 L 7.6807435,40.659829 L 39.342648,74.016476 L 71.707245,41.154370 L 71.707245,41.093829 C 74.981653,37.551327 77.006983,32.762267 77.006983,27.478638 C 77.006983,16.588981 68.456633,7.7472085 57.925929,7.7472085 C 49.632505,7.7472085 42.594004,13.239757 39.967261,20.888028 C 37.339655,13.241477 30.300880,7.7472085 22.008618,7.7472085 z "
       style="fill:none;fill-opacity:1.0000000;fill-rule:evenodd;stroke:#000000;stroke-width:0.92374676;stroke-linecap:butt;stroke-linejoin:round;stroke-miterlimit:4.0000000;stroke-opacity:0.028688492;" />
    <path
       sodipodi:nodetypes="ccccccccc"
       id="path9801"
       d="M 14.289114,6.8996152 C 7.4479252,6.8996152 1.8995812,12.784734 1.8996152,20.032933 C 1.8996152,23.347103 3.5128222,26.042158 5.4268872,28.353513 C 7.6556912,30.672623 23.857126,49.895576 25.438589,49.599406 C 27.840858,49.883458 41.449405,33.329402 46.303358,28.409888 C 48.430552,26.051982 49.349717,23.441332 49.349717,19.924526 C 49.349717,12.676327 44.463696,6.8996152 37.622508,6.8996152 C 32.234751,6.8996152 27.662246,10.555477 25.955803,15.646197 C 24.248800,10.556622 19.676116,6.8996152 14.289114,6.8996152 z "
       style="fill:url(#linearGradient1217);fill-opacity:1.0000000;fill-rule:evenodd;stroke:#000000;stroke-width:1.2992303;stroke-linecap:butt;stroke-linejoin:round;stroke-miterlimit:4.0000000;stroke-opacity:0.057377044" />
    <path
       transform="matrix(0.649642,0.000000,0.000000,0.665604,-0.356691,1.663609)"
       sodipodi:nodetypes="ccccccccc"
       id="path9806"
       d="M 22.008618,7.7472085 C 11.477912,7.7472085 2.9372932,16.588981 2.9373460,27.478638 C 2.9373460,32.457829 5.4205695,36.506866 8.3669088,39.979433 C 11.797728,43.463652 36.736748,72.344117 39.171108,71.899153 C 42.868943,72.325912 63.245297,48.788475 70.717035,41.397423 C 73.991444,37.854918 76.663901,32.599399 76.663901,27.315767 C 76.663901,16.426111 68.456633,7.7472085 57.925929,7.7472085 C 49.632505,7.7472085 42.594004,13.239757 39.967261,20.888028 C 37.339655,13.241477 30.300880,7.7472085 22.008618,7.7472085 z "
       style="fill:none;fill-opacity:1.0000000;fill-rule:evenodd;stroke:#000000;stroke-width:1.6678760;stroke-linecap:butt;stroke-linejoin:round;stroke-miterlimit:4.0000000;stroke-opacity:0.057377044;" />
  </g>
</svg>
