<?xml version="1.0" encoding="UTF-8" standalone="no"?>
<!DOCTYPE svg PUBLIC "-//W3C//DTD SVG 20010904//EN"
"http://www.w3.org/TR/2001/REC-SVG-20010904/DTD/svg10.dtd">
<!-- Created with Inkscape (http://www.inkscape.org/) -->
<svg
   width="64pt"
   height="64pt"
   id="svg1557"
   sodipodi:version="0.32"
   inkscape:version="0.40"
   sodipodi:docbase="/home/nuno/kdeplayground-artwork/oooicons/crystalsvg"
   sodipodi:docname="favoritedocuments.svg"
   inkscape:export-filename="/home/nuno/kdeplayground-artwork/oooicons/crystalsvg/favoritedocuments.png"
   inkscape:export-xdpi="36.000000"
   inkscape:export-ydpi="36.000000"
   xmlns="http://www.w3.org/2000/svg"
   xmlns:cc="http://web.resource.org/cc/"
   xmlns:inkscape="http://www.inkscape.org/namespaces/inkscape"
   xmlns:sodipodi="http://sodipodi.sourceforge.net/DTD/sodipodi-0.dtd"
   xmlns:rdf="http://www.w3.org/1999/02/22-rdf-syntax-ns#"
   xmlns:xml="http://www.w3.org/XML/1998/namespace"
   xmlns:dc="http://purl.org/dc/elements/1.1/"
   xmlns:xlink="http://www.w3.org/1999/xlink">
  <defs
     id="defs3">
    <linearGradient
       inkscape:collect="always"
       xlink:href="#graytolightgray"
       id="linearGradient1101"
       gradientUnits="userSpaceOnUse"
       gradientTransform="matrix(0.204798,0.000000,0.000000,0.227688,5.742250,-4.458023)"
       x1="122.43015"
       y1="59.053604"
       x2="272.46765"
       y2="323.76923" />
    <linearGradient
       id="graytolightgray">
      <stop
         style="stop-color:#d4d3d3;stop-opacity:1.0000000;"
         offset="0.0000000"
         id="stop5101" />
      <stop
         style="stop-color:#ffffff;stop-opacity:1.0000000;"
         offset="1.0000000"
         id="stop5102" />
    </linearGradient>
    <linearGradient
       inkscape:collect="always"
       xlink:href="#graytolightgray"
       id="linearGradient1104"
       gradientUnits="userSpaceOnUse"
       gradientTransform="matrix(0.204798,0.000000,0.000000,0.232782,5.225721,-4.326666)"
       x1="284.17496"
       y1="340.20792"
       x2="330.93881"
       y2="273.80606" />
    <radialGradient
       inkscape:collect="always"
       xlink:href="#light75to0"
       id="radialGradient1100"
       gradientUnits="userSpaceOnUse"
       gradientTransform="matrix(0.249954,0.000000,0.000000,0.190728,5.743889,-4.740923)"
       cx="53.182602"
       cy="52.577991"
       fx="53.182602"
       fy="52.577991"
       r="508.29517" />
    <linearGradient
       inkscape:collect="always"
       xlink:href="#garylighttowite"
       id="linearGradient1103"
       gradientUnits="userSpaceOnUse"
       gradientTransform="matrix(0.204798,0.000000,0.000000,0.232782,5.469638,-4.347801)"
       x1="245.91402"
       y1="248.01839"
       x2="561.86395"
       y2="513.91156" />
    <linearGradient
       id="garylighttowite">
      <stop
         style="stop-color:#7d7d7d;stop-opacity:1.0000000;"
         offset="0.0000000"
         id="stop5106" />
      <stop
         style="stop-color:#d3d4d4;stop-opacity:1.0000000;"
         offset="1.0000000"
         id="stop5107" />
    </linearGradient>
    <linearGradient
       inkscape:collect="always"
       xlink:href="#garylighttowite"
       id="linearGradient1102"
       gradientUnits="userSpaceOnUse"
       gradientTransform="matrix(0.204798,0.000000,0.000000,0.232782,5.825914,-4.346448)"
       x1="-37.332329"
       y1="-50.289883"
       x2="578.44397"
       y2="648.29797" />
    <linearGradient
       inkscape:collect="always"
       id="linearGradient9802">
      <stop
         style="stop-color:#000000;stop-opacity:1;"
         offset="0"
         id="stop9803" />
      <stop
         style="stop-color:#000000;stop-opacity:0;"
         offset="1"
         id="stop9804" />
    </linearGradient>
    <linearGradient
       inkscape:collect="always"
       xlink:href="#linearGradient9802"
       id="linearGradient1217"
       gradientUnits="userSpaceOnUse"
       gradientTransform="matrix(0.140872,0.000000,0.000000,0.129344,-8.484883e-2,4.138533)"
       x1="292.81448"
       y1="313.33301"
       x2="242.68181"
       y2="267.98221" />
    <radialGradient
       inkscape:collect="always"
       xlink:href="#light100to0"
       id="radialGradient1216"
       gradientUnits="userSpaceOnUse"
       gradientTransform="scale(1.053559,0.949164)"
       cx="37.512009"
       cy="74.483215"
       fx="37.512009"
       fy="74.483215"
       r="61.827145" />
    <linearGradient
       id="light100to25to0">
      <stop
         style="stop-color:#ffffff;stop-opacity:1.0000000;"
         offset="0.0000000"
         id="stop2785" />
      <stop
         style="stop-color:#ffffff;stop-opacity:0.28749999;"
         offset="0.50000000"
         id="stop2786" />
      <stop
         style="stop-color:#ffffff;stop-opacity:0.0000000;"
         offset="1.0000000"
         id="stop2787" />
    </linearGradient>
    <radialGradient
       inkscape:collect="always"
       xlink:href="#light100to25to0"
       id="radialGradient1215"
       gradientUnits="userSpaceOnUse"
       gradientTransform="matrix(0.216271,0.000000,0.000000,0.181912,-0.117334,3.874241)"
       cx="20.115261"
       cy="58.964947"
       fx="20.115261"
       fy="58.964947"
       r="76.998276" />
    <linearGradient
       id="light100to0">
      <stop
         style="stop-color:#ffffff;stop-opacity:1.0000000;"
         offset="0.0000000"
         id="stop2764" />
      <stop
         style="stop-color:#ffffff;stop-opacity:0.0000000;"
         offset="1.0000000"
         id="stop2765" />
    </linearGradient>
    <linearGradient
       inkscape:collect="always"
       xlink:href="#light100to0"
       id="linearGradient1214"
       gradientUnits="userSpaceOnUse"
       gradientTransform="scale(1.054701,0.948136)"
       x1="38.721409"
       y1="9.3687191"
       x2="53.998566"
       y2="63.394917" />
    <linearGradient
       id="light75to0">
      <stop
         style="stop-color:#ffffff;stop-opacity:0.72916669;"
         offset="0.0000000"
         id="stop2769" />
      <stop
         style="stop-color:#ffffff;stop-opacity:0.0000000;"
         offset="1.0000000"
         id="stop2770" />
    </linearGradient>
    <radialGradient
       inkscape:collect="always"
       xlink:href="#light75to0"
       id="radialGradient1213"
       gradientUnits="userSpaceOnUse"
       gradientTransform="matrix(0.217023,0.000000,0.000000,0.194167,-0.117334,3.598975)"
       cx="202.13837"
       cy="54.969162"
       fx="202.13837"
       fy="54.969162"
       r="50.502575" />
    <linearGradient
       inkscape:collect="always"
       xlink:href="#redtodarkred"
       id="linearGradient1212"
       gradientUnits="userSpaceOnUse"
       gradientTransform="matrix(0.201866,0.000000,0.000000,0.208746,-0.117358,3.598974)"
       x1="-799.36414"
       y1="-442.00742"
       x2="364.46487"
       y2="354.34375" />
    <linearGradient
       id="redtodarkred">
      <stop
         style="stop-color:#ff0000;stop-opacity:1.0000000;"
         offset="0.0000000"
         id="stop3856" />
      <stop
         style="stop-color:#920000;stop-opacity:1.0000000;"
         offset="1.0000000"
         id="stop3855" />
    </linearGradient>
    <linearGradient
       inkscape:collect="always"
       xlink:href="#redtodarkred"
       id="linearGradient1211"
       gradientUnits="userSpaceOnUse"
       gradientTransform="matrix(0.221749,0.000000,0.000000,0.199344,1.205673,-0.580556)"
       x1="99.897820"
       y1="5.8390570"
       x2="118.24639"
       y2="615.23419" />
  </defs>
  <sodipodi:namedview
     id="base"
     pagecolor="#ffffff"
     bordercolor="#666666"
     borderopacity="1.0"
     inkscape:pageopacity="0.0"
     inkscape:pageshadow="2"
     inkscape:zoom="11.640625"
     inkscape:cx="32.000000"
     inkscape:cy="52.527936"
     inkscape:current-layer="layer1"
     showgrid="true"
     inkscape:grid-bbox="true"
     gridspacingy="1.0000000pt"
     gridspacingx="1.0000000pt"
     gridoriginy="0.0000000pt"
     gridoriginx="0.0000000pt"
     inkscape:window-width="1280"
     inkscape:window-height="904"
     inkscape:window-x="0"
     inkscape:window-y="25" />
  <metadata
     id="metadata4">
    <rdf:RDF
       id="RDF5">
      <cc:Work
         rdf:about=""
         id="Work6">
        <dc:format
           id="format7">image/svg+xml</dc:format>
        <dc:type
           id="type9"
           rdf:resource="http://purl.org/dc/dcmitype/StillImage" />
      </cc:Work>
    </rdf:RDF>
  </metadata>
  <g
     id="layer1"
     inkscape:label="Layer 1"
     inkscape:groupmode="layer">
    <path
       style="fill:#cbcbcb;fill-opacity:1.0000000;fill-rule:evenodd;stroke:none;stroke-width:0.25000000pt;stroke-linecap:butt;stroke-linejoin:miter;stroke-opacity:1.0000000"
       d="M 45.498525,3.5082120 L 79.649984,3.1466650 L 79.649984,58.644097 L 60.714522,79.975356 L 18.109733,79.975356 L 17.940665,69.490500 L 45.498525,3.5082120 z "
       id="path1105"
       sodipodi:nodetypes="ccccccc"
       inkscape:export-xdpi="48.818890"
       inkscape:export-ydpi="48.818890" />
    <path
       style="fill:#ffffff;fill-opacity:1.0000000;fill-rule:evenodd;stroke:none;stroke-width:0.25000000pt;stroke-linecap:butt;stroke-linejoin:miter;stroke-opacity:1.0000000"
       d="M 16.419067,0.79661050 L 77.113985,0.97738400 L 76.775852,56.113268 L 58.685724,76.540663 L 16.250000,77.082983 L 16.419067,0.79661050 z "
       id="path1727" />
    <path
       d="M 75.099179,2.2908190 L 17.796601,2.2908190 L 17.711387,75.000000 L 58.477518,75.000000 L 75.099179,56.473754 L 75.099179,2.2908190 z "
       id="path146"
       style="fill:url(#linearGradient1101);fill-opacity:1.0000000" />
    <path
       d="M 76.621229,1.1983333 C 76.621229,2.0700200 76.621229,56.128963 76.621229,56.492386 C 76.396862,56.747407 59.144332,76.356404 58.919966,76.612312 C 58.601789,76.612312 17.207907,76.612312 16.442565,76.612312 C 16.442565,75.739743 16.442565,2.0718010 16.442565,1.1992226 C 17.209468,1.1983333 75.855105,1.1983333 76.621229,1.1983333 z M 77.012098,0.30976010 L 15.660817,0.30976010 L 15.660817,77.499999 L 59.243616,77.499999 L 77.402976,56.859373 L 77.402976,0.30976010 L 77.012098,0.30976010 z "
       id="path225"
       style="fill:url(#linearGradient1102);fill-opacity:1.0000000" />
    <text
       xml:space="preserve"
       style="font-size:5.0000000;font-style:normal;font-variant:normal;font-weight:normal;font-stretch:normal;fill:#5c5b5b;fill-opacity:1.0000000;stroke:none;stroke-width:1.0000000pt;stroke-linecap:butt;stroke-linejoin:miter;stroke-opacity:1.0000000;font-family:Bitstream Vera Sans;text-anchor:start;writing-mode:lr"
       x="0.68467486"
       y="5.98665"
       id="text1227"
       sodipodi:linespacing="130%"
       transform="matrix(0.717797,0.000000,0.000000,0.874589,18.16463,3.790107)"><tspan
         x="0.68467486"
         y="5.9866500"
         sodipodi:role="line"
         id="tspan1333">KDE is a network transparent </tspan><tspan
         x="0.68467486"
         y="12.486650"
         sodipodi:role="line"
         id="tspan1335">contemporary desktop</tspan><tspan
         x="0.68467486"
         y="18.986650"
         sodipodi:role="line"
         id="tspan1337">environment for UNIX </tspan><tspan
         x="0.68467486"
         y="25.486649"
         sodipodi:role="line"
         id="tspan1339">workstations. KDE seeks to fill </tspan><tspan
         x="0.68467486"
         y="31.986649"
         sodipodi:role="line"
         id="tspan1341">the need  for an  easy   to use </tspan><tspan
         x="0.68467486"
         y="38.486649"
         sodipodi:role="line"
         id="tspan1343">desktop for Unix workstations, </tspan><tspan
         x="0.68467486"
         y="44.986649"
         sodipodi:role="line"
         id="tspan1345">similar to the desktop environ-</tspan><tspan
         x="0.68467486"
         y="51.486648"
         sodipodi:role="line"
         id="tspan1347">ments found under the MacOS</tspan><tspan
         x="0.68467486"
         y="57.986648"
         sodipodi:role="line"
         id="tspan1349">or Microsoft Windows.</tspan><tspan
         x="0.68467486"
         y="64.486648"
         sodipodi:role="line"
         id="tspan1351">KDE Desktop </tspan><tspan
         x="0.68467486"
         y="70.986648"
         sodipodi:role="line"
         id="tspan1353">Environment</tspan></text>
    <path
       d="M 75.246143,8.9475990 L 75.246143,2.1100460 L 17.762982,2.1100460 L 17.711387,41.711026 C 39.791852,49.826786 71.752486,29.344769 75.246143,8.9475990 z "
       id="path195"
       style="fill:url(#radialGradient1100);fill-opacity:1.0000000"
       sodipodi:nodetypes="ccccc" />
    <path
       d="M 59.081788,76.302782 L 77.012884,56.733467 L 59.081788,56.733467 L 59.081788,76.302782 z "
       id="path163"
       style="fill:#ffffff" />
    <path
       d="M 59.723759,75.929242 L 75.504251,57.994297 L 59.723759,57.994297 L 59.723759,75.929242 z "
       id="path178"
       style="fill:url(#linearGradient1104);fill-opacity:1.0000000" />
    <path
       d="M 58.725531,56.230682 C 58.509768,56.230682 58.334652,56.429727 58.334652,56.674969 L 58.334652,77.055254 C 58.334652,77.235633 58.430027,77.397349 58.576220,77.466659 C 58.722400,77.534192 58.890477,77.497762 59.002272,77.369806 L 76.932580,56.989522 C 77.044375,56.862457 77.077993,56.671421 77.017793,56.505257 C 76.956815,56.339093 76.814532,56.230682 76.655838,56.230682 L 58.725531,56.230682 z M 75.712267,57.119256 C 74.523210,58.470771 60.305455,74.630346 59.116409,75.982752 C 59.116409,74.101642 59.116409,57.925192 59.116409,57.119256 C 59.823888,57.119256 74.057287,57.119256 75.712267,57.119256 z "
       id="path210"
       style="fill:url(#linearGradient1103);fill-opacity:1.0000000" />
    <path
       style="fill:none;fill-opacity:1.0000000;fill-rule:evenodd;stroke:#6f0000;stroke-width:2.6686013;stroke-linecap:butt;stroke-linejoin:round;stroke-miterlimit:4.0000000;stroke-opacity:0.094262250;"
       d="M 22.008618,7.7472085 C 11.477912,7.7472085 2.9372932,16.588981 2.9373460,27.478638 C 2.9373460,32.457829 4.7344042,36.995478 7.6807435,40.468046 L 7.6807435,40.659829 L 39.342648,74.016476 L 71.707245,41.154370 L 71.707245,41.093829 C 74.981653,37.551327 77.006983,32.762267 77.006983,27.478638 C 77.006983,16.588981 68.456633,7.7472085 57.925929,7.7472085 C 49.632505,7.7472085 42.594004,13.239757 39.967261,20.888028 C 37.339655,13.241477 30.300880,7.7472085 22.008618,7.7472085 z "
       id="path8556"
       transform="matrix(0.649642,0.000000,0.000000,0.665604,-0.356691,1.663609)" />
    <path
       style="fill:none;fill-opacity:1.0000000;fill-rule:evenodd;stroke:#6f0000;stroke-width:3.0021768;stroke-linecap:butt;stroke-linejoin:round;stroke-miterlimit:4.0000000;stroke-opacity:0.094262250;"
       d="M 22.008618,7.7472085 C 11.477912,7.7472085 2.9372932,16.588981 2.9373460,27.478638 C 2.9373460,32.457829 4.7344042,36.995478 7.6807435,40.468046 L 7.6807435,40.659829 L 39.342648,74.016476 L 71.707245,41.154370 L 71.707245,41.093829 C 74.981653,37.551327 77.006983,32.762267 77.006983,27.478638 C 77.006983,16.588981 68.456633,7.7472085 57.925929,7.7472085 C 49.632505,7.7472085 42.594004,13.239757 39.967261,20.888028 C 37.339655,13.241477 30.300880,7.7472085 22.008618,7.7472085 z "
       id="path8555"
       transform="matrix(0.649642,0.000000,0.000000,0.665604,-0.356691,1.663609)" />
    <path
       style="fill:none;fill-opacity:1.0000000;fill-rule:evenodd;stroke:#6f0000;stroke-width:3.7719657;stroke-linecap:butt;stroke-linejoin:round;stroke-miterlimit:4.0000000;stroke-opacity:0.094262250;"
       d="M 22.008618,7.7472085 C 11.477912,7.7472085 2.9372932,16.588981 2.9373460,27.478638 C 2.9373460,32.457829 4.7344042,36.995478 7.6807435,40.468046 L 7.6807435,40.659829 L 39.342648,74.016476 L 71.707245,41.154370 L 71.707245,41.093829 C 74.981653,37.551327 77.006983,32.762267 77.006983,27.478638 C 77.006983,16.588981 68.456633,7.7472085 57.925929,7.7472085 C 49.632505,7.7472085 42.594004,13.239757 39.967261,20.888028 C 37.339655,13.241477 30.300880,7.7472085 22.008618,7.7472085 z "
       id="path8554"
       transform="matrix(0.649642,0.000000,0.000000,0.665604,-0.356691,1.663609)" />
    <path
       style="fill:none;fill-opacity:1.0000000;fill-rule:evenodd;stroke:#6f0000;stroke-width:4.7470317;stroke-linecap:butt;stroke-linejoin:round;stroke-miterlimit:4.0000000;stroke-opacity:0.094262250;"
       d="M 22.008618,7.7472085 C 11.477912,7.7472085 2.9372932,16.588981 2.9373460,27.478638 C 2.9373460,32.457829 4.7344042,36.995478 7.6807435,40.468046 L 7.6807435,40.659829 L 39.342648,74.016476 L 71.707245,41.154370 L 71.707245,41.093829 C 74.981653,37.551327 77.006983,32.762267 77.006983,27.478638 C 77.006983,16.588981 68.456633,7.7472085 57.925929,7.7472085 C 49.632505,7.7472085 42.594004,13.239757 39.967261,20.888028 C 37.339655,13.241477 30.300880,7.7472085 22.008618,7.7472085 z "
       id="path7928"
       transform="matrix(0.649642,0.000000,0.000000,0.665604,-0.356691,1.663609)" />
    <path
       style="fill:url(#linearGradient1211);fill-opacity:1.0000000;fill-rule:evenodd;stroke:url(#linearGradient1212);stroke-width:1.6935356;stroke-linecap:butt;stroke-linejoin:round;stroke-miterlimit:4.0000000;stroke-opacity:1.0000000;"
       d="M 22.008618,7.7472085 C 11.477912,7.7472085 2.9372932,16.588981 2.9373460,27.478638 C 2.9373460,32.457829 4.7344042,36.995478 7.6807435,40.468046 L 7.6807435,40.659829 L 39.342648,74.016476 L 71.707245,41.154370 L 71.707245,41.093829 C 74.981653,37.551327 77.006983,32.762267 77.006983,27.478638 C 77.006983,16.588981 68.456633,7.7472085 57.925929,7.7472085 C 49.632505,7.7472085 42.594004,13.239757 39.967261,20.888028 C 37.339655,13.241477 30.300880,7.7472085 22.008618,7.7472085 z "
       id="path3990"
       transform="matrix(0.649642,0.000000,0.000000,0.665604,-0.356691,1.663609)" />
    <path
       style="fill:url(#radialGradient1213);fill-opacity:1.0000000;fill-rule:evenodd;stroke:none;stroke-width:13.954967;stroke-linecap:butt;stroke-linejoin:round;stroke-miterlimit:4.0000000;stroke-opacity:1.0000000;"
       d="M 22.008618,7.7472085 C 11.477912,7.7472085 2.9372932,16.588981 2.9373460,27.478638 C 2.9373460,32.457829 4.7344042,36.995478 7.6807435,40.468046 L 7.6807435,40.659829 L 39.514187,70.107572 L 71.707245,41.154370 L 71.707245,41.093829 C 74.981653,37.551327 77.006983,32.762267 77.006983,27.478638 C 77.006983,16.588981 68.456633,7.7472085 57.925929,7.7472085 C 49.632505,7.7472085 42.594004,13.239757 39.967261,20.888028 C 37.339655,13.241477 30.300880,7.7472085 22.008618,7.7472085 z "
       id="path6678"
       sodipodi:nodetypes="ccccccccccc"
       transform="matrix(0.649642,0.000000,0.000000,0.665604,-0.356691,1.663609)" />
    <path
       style="fill:url(#linearGradient1214);fill-opacity:1.0;fill-rule:evenodd;stroke:none;stroke-width:16.750704;stroke-linecap:butt;stroke-linejoin:round;stroke-miterlimit:4.0000000;stroke-opacity:1.0000000;"
       d="M 21.665535,8.0729514 C 11.134831,8.0729514 2.0795865,18.054821 3.2804287,29.270220 C 13.664727,48.900545 69.327759,32.645011 74.948491,26.012799 C 74.948491,15.611756 68.456633,9.0501780 57.925929,9.0501780 C 49.632505,9.0501780 43.623251,13.076885 40.996507,20.725158 L 39.780841,21.303862 C 35.216116,10.073056 25.811666,8.0729514 21.665535,8.0729514 z "
       id="path2323"
       sodipodi:nodetypes="ccccccc"
       transform="matrix(0.649642,0.000000,0.000000,0.665604,-0.356691,1.663609)" />
    <path
       style="fill:url(#radialGradient1215);fill-opacity:1.0000000;fill-rule:evenodd;stroke:none;stroke-width:16.750704;stroke-linecap:butt;stroke-linejoin:round;stroke-miterlimit:4.0000000;stroke-opacity:1.0000000;"
       d="M 22.008618,7.7472085 C 11.477912,7.7472085 2.9372932,16.002256 2.9373460,26.169294 C 2.9373460,30.818070 4.7344042,35.054613 7.6807435,38.296745 L 7.6807435,38.475805 L 39.171108,72.224893 L 71.707245,38.937526 L 71.707245,38.881003 C 74.981653,35.573576 77.006983,31.102310 77.006983,26.169294 C 77.006983,16.002256 68.456633,7.7472085 57.925929,7.7472085 C 49.632505,7.7472085 42.594004,12.875280 39.967261,20.016026 C 37.339655,12.876887 30.300880,7.7472085 22.008618,7.7472085 z "
       id="path3568"
       sodipodi:nodetypes="ccccccccccc"
       transform="matrix(0.649642,0.000000,0.000000,0.665604,-0.356691,1.663609)" />
    <path
       style="fill:url(#radialGradient1216);fill-opacity:1.0;fill-rule:evenodd;stroke:none;stroke-width:16.750704;stroke-linecap:butt;stroke-linejoin:round;stroke-miterlimit:4.0000000;stroke-opacity:1.0000000;"
       d="M 21.665535,7.2585967 C 11.134832,7.2585967 2.5942105,16.100369 2.5942670,26.990025 C 2.5942670,31.969215 4.3913214,36.506866 7.3376608,39.979433 C 7.3376608,40.043363 7.3376608,40.107290 7.3376608,40.171216 C 17.891630,51.290099 36.746124,71.878623 39.336273,71.961045 C 42.094618,72.048821 60.575964,51.619794 71.364163,40.665757 C 71.364163,40.645578 71.364163,40.625395 71.364163,40.605221 C 74.638571,37.062714 76.663901,32.273655 76.663901,26.990025 C 76.663901,16.100369 68.113551,7.2585967 57.582845,7.2585967 C 49.289422,7.2585967 42.250921,12.751142 39.624179,20.399416 C 36.996573,12.752865 29.957797,7.2585967 21.665535,7.2585967 z "
       id="path5434"
       sodipodi:nodetypes="cccczcccccc"
       transform="matrix(0.649642,0.000000,0.000000,0.665604,-0.356691,1.663609)" />
    <path
       style="fill:none;fill-opacity:1.0000000;fill-rule:evenodd;stroke:#000000;stroke-width:0.64149076;stroke-linecap:butt;stroke-linejoin:round;stroke-miterlimit:4.0000000;stroke-opacity:0.028688492;"
       d="M 22.008618,7.7472085 C 11.477912,7.7472085 2.9372932,16.588981 2.9373460,27.478638 C 2.9373460,32.457829 4.7344042,36.995478 7.6807435,40.468046 L 7.6807435,40.659829 L 39.342648,74.016476 L 71.707245,41.154370 L 71.707245,41.093829 C 74.981653,37.551327 77.006983,32.762267 77.006983,27.478638 C 77.006983,16.588981 68.456633,7.7472085 57.925929,7.7472085 C 49.632505,7.7472085 42.594004,13.239757 39.967261,20.888028 C 37.339655,13.241477 30.300880,7.7472085 22.008618,7.7472085 z "
       id="path9178"
       transform="matrix(0.649642,0.000000,0.000000,0.665604,-0.356691,1.663609)" />
    <path
       style="fill:none;fill-opacity:1.0000000;fill-rule:evenodd;stroke:#000000;stroke-width:0.92374676;stroke-linecap:butt;stroke-linejoin:round;stroke-miterlimit:4.0000000;stroke-opacity:0.028688492;"
       d="M 22.008618,7.7472085 C 11.477912,7.7472085 2.9372932,16.588981 2.9373460,27.478638 C 2.9373460,32.457829 4.7344042,36.995478 7.6807435,40.468046 L 7.6807435,40.659829 L 39.342648,74.016476 L 71.707245,41.154370 L 71.707245,41.093829 C 74.981653,37.551327 77.006983,32.762267 77.006983,27.478638 C 77.006983,16.588981 68.456633,7.7472085 57.925929,7.7472085 C 49.632505,7.7472085 42.594004,13.239757 39.967261,20.888028 C 37.339655,13.241477 30.300880,7.7472085 22.008618,7.7472085 z "
       id="path9800"
       transform="matrix(0.649642,0.000000,0.000000,0.665604,-0.356691,1.663609)" />
    <path
       style="fill:url(#linearGradient1217);fill-opacity:1.0000000;fill-rule:evenodd;stroke:#000000;stroke-width:1.2992303;stroke-linecap:butt;stroke-linejoin:round;stroke-miterlimit:4.0000000;stroke-opacity:0.057377044"
       d="M 14.289114,6.8996152 C 7.4479252,6.8996152 1.8995812,12.784734 1.8996152,20.032933 C 1.8996152,23.347103 3.5128222,26.042158 5.4268872,28.353513 C 7.6556912,30.672623 23.857126,49.895576 25.438589,49.599406 C 27.840858,49.883458 41.449405,33.329402 46.303358,28.409888 C 48.430552,26.051982 49.349717,23.441332 49.349717,19.924526 C 49.349717,12.676327 44.463696,6.8996152 37.622508,6.8996152 C 32.234751,6.8996152 27.662246,10.555477 25.955803,15.646197 C 24.248800,10.556622 19.676116,6.8996152 14.289114,6.8996152 z "
       id="path9801"
       sodipodi:nodetypes="ccccccccc" />
    <path
       style="fill:none;fill-opacity:1.0000000;fill-rule:evenodd;stroke:#000000;stroke-width:1.6678760;stroke-linecap:butt;stroke-linejoin:round;stroke-miterlimit:4.0000000;stroke-opacity:0.057377044;"
       d="M 22.008618,7.7472085 C 11.477912,7.7472085 2.9372932,16.588981 2.9373460,27.478638 C 2.9373460,32.457829 5.4205695,36.506866 8.3669088,39.979433 C 11.797728,43.463652 36.736748,72.344117 39.171108,71.899153 C 42.868943,72.325912 63.245297,48.788475 70.717035,41.397423 C 73.991444,37.854918 76.663901,32.599399 76.663901,27.315767 C 76.663901,16.426111 68.456633,7.7472085 57.925929,7.7472085 C 49.632505,7.7472085 42.594004,13.239757 39.967261,20.888028 C 37.339655,13.241477 30.300880,7.7472085 22.008618,7.7472085 z "
       id="path9806"
       sodipodi:nodetypes="ccccccccc"
       transform="matrix(0.649642,0.000000,0.000000,0.665604,-0.356691,1.663609)" />
  </g>
</svg>
