<?xml version="1.0" encoding="UTF-8" standalone="no"?>
<!-- Created with Inkscape (http://www.inkscape.org/) -->
<svg
   xmlns:dc="http://purl.org/dc/elements/1.1/"
   xmlns:cc="http://web.resource.org/cc/"
   xmlns:rdf="http://www.w3.org/1999/02/22-rdf-syntax-ns#"
   xmlns:svg="http://www.w3.org/2000/svg"
   xmlns="http://www.w3.org/2000/svg"
   xmlns:xlink="http://www.w3.org/1999/xlink"
   xmlns:sodipodi="http://inkscape.sourceforge.net/DTD/sodipodi-0.dtd"
   xmlns:inkscape="http://www.inkscape.org/namespaces/inkscape"
   inkscape:export-ydpi="45.000000"
   inkscape:export-xdpi="45.000000"
   inkscape:export-filename="/home/pinheiro/artwork/oooicons/crystalsvg/fields.vg.png"
   sodipodi:docname="fieldsnames.vg.svg"
   sodipodi:docbase="/home/pinheiro/artwork/oooicons/crystalsvg"
   inkscape:version="0.41"
   sodipodi:version="0.32"
   id="svg3180"
   height="64px"
   width="64px">
  <defs
     id="defs3">
    <radialGradient
       r="13.249377"
       fy="124.03846"
       fx="40.972221"
       cy="124.03846"
       cx="40.972221"
       spreadMethod="reflect"
       gradientTransform="matrix(1.382976,0.000000,0.000000,1.382976,-21.03104,-109.9668)"
       gradientUnits="userSpaceOnUse"
       id="radialGradient3066"
       xlink:href="#light100to0"
       inkscape:collect="always" />
    <linearGradient
       id="light100to0">
      <stop
         style="stop-color:#ffffff;stop-opacity:1.0000000;"
         offset="0.0000000"
         id="stop2764" />
      <stop
         style="stop-color:#ffffff;stop-opacity:0.0000000;"
         offset="1.0000000"
         id="stop2765" />
    </linearGradient>
    <linearGradient
       y2="143.27217"
       x2="35.948341"
       y1="129.00298"
       x1="27.782410"
       gradientTransform="matrix(1.618321,0.000000,0.000000,1.181855,-21.03104,-109.9668)"
       gradientUnits="userSpaceOnUse"
       id="linearGradient3064"
       xlink:href="#light100to0"
       inkscape:collect="always" />
    <linearGradient
       y2="117.44884"
       x2="35.765125"
       y1="138.03079"
       x1="45.622375"
       gradientTransform="matrix(1.382976,0.000000,0.000000,1.382976,-21.03104,-109.9668)"
       gradientUnits="userSpaceOnUse"
       id="linearGradient3062"
       xlink:href="#bludraktowhite"
       inkscape:collect="always" />
    <linearGradient
       id="linearGradient2642">
      <stop
         id="stop2646"
         style="stop-color:#ffffff;stop-opacity:1.0000000;"
         offset="0.0000000" />
      <stop
         id="stop2644"
         style="stop-color:#a9a9bb;stop-opacity:1.0000000;"
         offset="1.0000000" />
    </linearGradient>
    <radialGradient
       r="7.7109990"
       fy="123.48658"
       fx="42.468056"
       cy="123.48658"
       cx="42.468056"
       spreadMethod="reflect"
       gradientTransform="matrix(1.382976,0.000000,0.000000,1.382976,-21.03104,-109.9668)"
       gradientUnits="userSpaceOnUse"
       id="radialGradient3060"
       xlink:href="#linearGradient2642"
       inkscape:collect="always" />
    <linearGradient
       id="bludraktowhite"
       gradientUnits="userSpaceOnUse"
       x1="33.332001"
       y1="10.305200"
       x2="33.332001"
       y2="91.407700">
      <linearGradient
         id="bluedrklighttowite"
         gradientUnits="userSpaceOnUse"
         x1="33.332001"
         y1="10.305200"
         x2="33.332001"
         y2="91.407700"
         spreadMethod="pad"
         xlink:href="#linearGradient5536" />
      <stop
         offset="0"
         style="stop-color:rgb(255,255,255)"
         id="stop7271" />
      <stop
         offset="1"
         style="stop-color:rgb(84,84,119)"
         id="stop7273" />
    </linearGradient>
    <radialGradient
       r="23.251539"
       fy="1.0834957"
       fx="8.9915314"
       cy="1.0834957"
       cx="8.9915314"
       spreadMethod="reflect"
       gradientTransform="matrix(1.471586,0.000000,0.000000,0.647000,0.377244,0.335774)"
       gradientUnits="userSpaceOnUse"
       id="radialGradient3058"
       xlink:href="#bludraktowhite"
       inkscape:collect="always" />
    <linearGradient
       id="light75to0">
      <stop
         style="stop-color:#ffffff;stop-opacity:0.72916669;"
         offset="0.0000000"
         id="stop2769" />
      <stop
         style="stop-color:#ffffff;stop-opacity:0.0000000;"
         offset="1.0000000"
         id="stop2770" />
    </linearGradient>
    <radialGradient
       r="508.29517"
       fy="52.577991"
       fx="53.182602"
       cy="52.577991"
       cx="53.182602"
       gradientTransform="matrix(0.171750,0.000000,0.000000,4.634818e-2,1.108189,-0.829730)"
       gradientUnits="userSpaceOnUse"
       id="radialGradient3056"
       xlink:href="#light75to0"
       inkscape:collect="always" />
    <linearGradient
       id="graytolightgray">
      <stop
         style="stop-color:#d4d3d3;stop-opacity:1.0000000;"
         offset="0.0000000"
         id="stop5101" />
      <stop
         style="stop-color:#ffffff;stop-opacity:1.0000000;"
         offset="1.0000000"
         id="stop5102" />
    </linearGradient>
    <linearGradient
       y2="323.76923"
       x2="272.46765"
       y1="59.053604"
       x1="122.43015"
       gradientTransform="matrix(0.139112,0.000000,0.000000,4.639221e-2,1.652566,0.786999)"
       gradientUnits="userSpaceOnUse"
       id="linearGradient3054"
       xlink:href="#graytolightgray"
       inkscape:collect="always" />
  </defs>
  <sodipodi:namedview
     inkscape:window-y="25"
     inkscape:window-x="632"
     inkscape:window-height="536"
     inkscape:window-width="640"
     inkscape:grid-bbox="true"
     inkscape:document-units="px"
     showgrid="true"
     inkscape:current-layer="layer1"
     inkscape:cy="32.000000"
     inkscape:cx="32.000000"
     inkscape:zoom="5.5000000"
     inkscape:pageshadow="2"
     inkscape:pageopacity="0.0"
     borderopacity="1.0"
     bordercolor="#666666"
     pagecolor="#ffffff"
     id="base" />
  <metadata
     id="metadata4">
    <rdf:RDF
       id="RDF5">
      <cc:Work
         id="Work6"
         rdf:about="">
        <dc:format
           id="format7">image/svg+xml</dc:format>
        <dc:type
           rdf:resource="http://purl.org/dc/dcmitype/StillImage"
           id="type9" />
      </cc:Work>
    </rdf:RDF>
  </metadata>
  <g
     inkscape:groupmode="layer"
     inkscape:label="Layer 1"
     id="layer1">
    <g
       transform="matrix(0.962630,0.000000,0.000000,1.000000,0.892178,6.542039)"
       id="g3034">
      <g
         transform="matrix(0.995190,0.000000,0.000000,0.986933,0.314845,22.17796)"
         id="g3025">
        <path
           id="path1436"
           d="M 1.0937500,7.0625000 C 1.1919604,8.0944348 0.98247260,9.0679942 0.87500000,10.064603 C 0.87500000,14.345152 0.87500000,18.625701 0.87500000,22.906250 C 1.2514200,23.654277 0.56450238,25.160789 1.2510500,25.467899 C 19.755284,25.394312 38.259517,25.351087 56.763751,25.449476 C 58.894584,25.455901 61.025417,25.462325 63.156250,25.468750 C 63.166942,23.105959 63.311081,20.762754 63.250000,18.389429 C 63.250000,15.426286 63.250000,12.463143 63.250000,9.5000000 C 62.572104,8.8359750 63.687948,6.9107318 62.466648,7.0630697 C 42.008976,7.0957383 21.551425,7.0943821 1.0937500,7.0625000 z "
           style="fill:none;fill-opacity:1.0000000;fill-rule:evenodd;stroke:#000000;stroke-width:4.4099998;stroke-linecap:round;stroke-linejoin:round;stroke-miterlimit:4.0000000;stroke-opacity:0.036199097" />
        <path
           id="path2247"
           d="M 1.0937500,7.0625000 C 1.1919604,8.0944348 0.98247260,9.0679942 0.87500000,10.064603 C 0.87500000,14.345152 0.87500000,18.625701 0.87500000,22.906250 C 1.2514200,23.654277 0.56450238,25.160789 1.2510500,25.467899 C 19.755284,25.394312 38.259517,25.351087 56.763751,25.449476 C 58.894584,25.455901 61.025417,25.462325 63.156250,25.468750 C 63.166942,23.105959 63.311081,20.762754 63.250000,18.389429 C 63.250000,15.426286 63.250000,12.463143 63.250000,9.5000000 C 62.572104,8.8359750 63.687948,6.9107318 62.466648,7.0630697 C 42.008976,7.0957383 21.551425,7.0943821 1.0937500,7.0625000 z "
           style="fill:none;fill-opacity:1.0000000;fill-rule:evenodd;stroke:#000000;stroke-width:3.9100001;stroke-linecap:round;stroke-linejoin:round;stroke-miterlimit:4.0000000;stroke-opacity:0.036199097" />
        <path
           id="path2249"
           d="M 1.0937500,7.0625000 C 1.1919604,8.0944348 0.98247260,9.0679942 0.87500000,10.064603 C 0.87500000,14.345152 0.87500000,18.625701 0.87500000,22.906250 C 1.2514200,23.654277 0.56450238,25.160789 1.2510500,25.467899 C 19.755284,25.394312 38.259517,25.351087 56.763751,25.449476 C 58.894584,25.455901 61.025417,25.462325 63.156250,25.468750 C 63.166942,23.105959 63.311081,20.762754 63.250000,18.389429 C 63.250000,15.426286 63.250000,12.463143 63.250000,9.5000000 C 62.572104,8.8359750 63.687948,6.9107318 62.466648,7.0630697 C 42.008976,7.0957383 21.551425,7.0943821 1.0937500,7.0625000 z "
           style="fill:none;fill-opacity:1.0000000;fill-rule:evenodd;stroke:#000000;stroke-width:3.5100000;stroke-linecap:round;stroke-linejoin:round;stroke-miterlimit:4.0000000;stroke-opacity:0.036199097" />
        <path
           id="path2251"
           d="M 1.0937500,7.0625000 C 1.1919604,8.0944348 0.98247260,9.0679942 0.87500000,10.064603 C 0.87500000,14.345152 0.87500000,18.625701 0.87500000,22.906250 C 1.2514200,23.654277 0.56450238,25.160789 1.2510500,25.467899 C 19.755284,25.394312 38.259517,25.351087 56.763751,25.449476 C 58.894584,25.455901 61.025417,25.462325 63.156250,25.468750 C 63.166942,23.105959 63.311081,20.762754 63.250000,18.389429 C 63.250000,15.426286 63.250000,12.463143 63.250000,9.5000000 C 62.572104,8.8359750 63.687948,6.9107318 62.466648,7.0630697 C 42.008976,7.0957383 21.551425,7.0943821 1.0937500,7.0625000 z "
           style="fill:none;fill-opacity:1.0000000;fill-rule:evenodd;stroke:#000000;stroke-width:3.2100000;stroke-linecap:round;stroke-linejoin:round;stroke-miterlimit:4.0000000;stroke-opacity:0.036199097" />
        <path
           id="path2253"
           d="M 1.0937500,7.0625000 C 1.1919604,8.0944348 0.98247260,9.0679942 0.87500000,10.064603 C 0.87500000,14.345152 0.87500000,18.625701 0.87500000,22.906250 C 1.2514200,23.654277 0.56450238,25.160789 1.2510500,25.467899 C 19.755284,25.394312 38.259517,25.351087 56.763751,25.449476 C 58.894584,25.455901 61.025417,25.462325 63.156250,25.468750 C 63.166942,23.105959 63.311081,20.762754 63.250000,18.389429 C 63.250000,15.426286 63.250000,12.463143 63.250000,9.5000000 C 62.572104,8.8359750 63.687948,6.9107318 62.466648,7.0630697 C 42.008976,7.0957383 21.551425,7.0943821 1.0937500,7.0625000 z "
           style="fill:none;fill-opacity:1.0000000;fill-rule:evenodd;stroke:#000000;stroke-width:2.8099999;stroke-linecap:round;stroke-linejoin:round;stroke-miterlimit:4.0000000;stroke-opacity:0.036199097" />
        <path
           id="path2255"
           d="M 1.0937500,7.0625000 C 1.1919604,8.0944348 0.98247260,9.0679942 0.87500000,10.064603 C 0.87500000,14.345152 0.87500000,18.625701 0.87500000,22.906250 C 1.2514200,23.654277 0.56450238,25.160789 1.2510500,25.467899 C 19.755284,25.394312 38.259517,25.351087 56.763751,25.449476 C 58.894584,25.455901 61.025417,25.462325 63.156250,25.468750 C 63.166942,23.105959 63.311081,20.762754 63.250000,18.389429 C 63.250000,15.426286 63.250000,12.463143 63.250000,9.5000000 C 62.572104,8.8359750 63.687948,6.9107318 62.466648,7.0630697 C 42.008976,7.0957383 21.551425,7.0943821 1.0937500,7.0625000 z "
           style="fill:none;fill-opacity:1.0000000;fill-rule:evenodd;stroke:#000000;stroke-width:2.4100001;stroke-linecap:round;stroke-linejoin:round;stroke-miterlimit:4.0000000;stroke-opacity:0.036199097" />
        <path
           id="path2257"
           d="M 1.0937500,7.0625000 C 0.98578868,9.5299737 0.77173379,11.996611 0.87500000,14.478919 C 0.86281395,18.004820 0.86487453,21.543193 0.95558897,25.043271 C 3.0280914,26.031207 6.1516819,25.163137 8.6238307,25.440446 C 26.801259,25.366163 44.978904,25.383957 63.156250,25.468750 C 63.312786,20.147048 63.231562,14.823339 63.250000,9.5000000 C 62.807098,8.4109322 63.559368,6.4131654 61.507695,7.0645761 C 41.369729,7.0956883 21.231715,7.0938839 1.0937500,7.0625000 z "
           style="fill:none;fill-opacity:1.0000000;fill-rule:evenodd;stroke:#000000;stroke-width:2.0100000;stroke-linecap:round;stroke-linejoin:round;stroke-miterlimit:4.0000000;stroke-opacity:0.036199097" />
      </g>
      <g
         id="g3953"
         transform="matrix(1.060573,0.000000,0.000000,0.994068,-7.659664,28.35077)">
        <path
           style="fill:#ffffff;fill-opacity:1.0000000;fill-rule:evenodd;stroke:none;stroke-width:0.25000000pt;stroke-linecap:butt;stroke-linejoin:miter;stroke-opacity:1.0000000"
           d="M 8.4434337,0.51593639 L 50.148753,0.55986561 L 49.627382,18.910670 L 8.3272630,19.054110 L 8.4434337,0.51593639 z "
           id="path3633"
           sodipodi:nodetypes="ccccc" />
        <path
           d="M 48.764319,2.1620954 L 9.8406724,2.1620954 L 9.7827881,16.976840 L 48.699733,16.858121 L 48.764319,2.1620954 z "
           id="path3635"
           style="fill:url(#linearGradient3054);fill-opacity:1.0000000"
           sodipodi:nodetypes="ccccc" />
        <path
           d="M 48.865302,2.4966885 L 48.865302,0.83511139 L 9.3668792,0.83511139 L 9.3314258,10.458453 C 24.503585,12.430645 46.464710,7.4533577 48.865302,2.4966885 z "
           id="path3637"
           style="fill:url(#radialGradient3056);fill-opacity:1.0000000"
           sodipodi:nodetypes="ccccc" />
        <path
           d="M 8.2412387,2.9662133 L 8.2412387,16.460445 C 8.1914572,17.979969 9.0435673,18.657844 10.191454,18.709009 L 29.248784,18.701895 L 39.752556,18.698101 L 50.256329,18.694308 L 50.304812,9.7057413 L 50.353296,0.71717475 L 39.825282,0.71717475 L 29.297268,0.71717475 L 10.194485,0.71717475 C 8.8464612,0.71717475 8.2412387,1.6519811 8.2412387,2.9662133 z "
           id="path3639"
           style="fill:none;fill-opacity:1.0000000;stroke:url(#radialGradient3058);stroke-width:1.6440413;stroke-linecap:round;stroke-linejoin:round;stroke-miterlimit:4.0000000"
           sodipodi:nodetypes="cccccccccccc" />
      </g>
      <g
         id="g2019"
         transform="matrix(1.026793,0.000000,0.000000,1.067280,22.91054,-19.69508)">
        <path
           id="path2021"
           d="M 24.093920,45.617937 L 37.567184,45.617937 C 38.623644,45.617937 39.474152,46.388393 39.474152,47.345426 L 39.474152,61.177647 C 39.474152,62.134681 38.623644,62.905137 37.567184,62.905137 L 24.093920,62.905137 C 23.037460,62.905137 22.186952,62.134681 22.186952,61.177647 L 22.186952,47.345426 C 22.186952,46.388393 23.037460,45.617937 24.093920,45.617937 z "
           style="fill:url(#radialGradient3060);fill-opacity:1.0000000;stroke:url(#linearGradient3062);stroke-width:1.0654563;stroke-linecap:round;stroke-linejoin:round;stroke-miterlimit:4.0000000;stroke-dashoffset:0.0000000;stroke-opacity:1.0000000" />
        <path
           id="path2023"
           d="M 30.760555,58.410893 L 26.508752,50.112179 L 35.152352,50.112179 L 30.760555,58.410893 z "
           style="fill:#000000;fill-opacity:1.0000000;fill-rule:evenodd;stroke:none;stroke-width:1.0000000px;stroke-linecap:butt;stroke-linejoin:miter;stroke-opacity:1.0000000" />
        <path
           id="path2025"
           d="M 37.860285,45.704040 C 33.531985,45.675344 28.243971,45.646634 23.915672,45.617937 C 23.252186,45.496207 22.065222,46.508684 22.186952,47.346657 C 22.186952,50.227852 22.274199,57.820362 22.274199,60.701558 C 24.526398,60.717766 25.905845,53.557034 29.728766,52.287282 C 33.576977,51.009136 37.650843,47.927535 37.860285,45.704040 z "
           style="fill:url(#linearGradient3064);fill-opacity:1.0000000;fill-rule:evenodd;stroke:none;stroke-width:1.0000000px;stroke-linecap:butt;stroke-linejoin:miter;stroke-opacity:1.0000000" />
        <path
           id="path2027"
           d="M 24.093920,45.617937 L 37.567184,45.617937 C 38.623644,45.617937 39.474152,46.388393 39.474152,47.345426 L 39.474152,61.177647 C 39.474152,62.134681 38.623644,62.905137 37.567184,62.905137 L 24.093920,62.905137 C 23.037460,62.905137 22.186952,62.134681 22.186952,61.177647 L 22.186952,47.345426 C 22.186952,46.388393 23.037460,45.617937 24.093920,45.617937 z "
           style="opacity:0.76679844;fill:url(#radialGradient3066);fill-opacity:1.0000000;stroke:none;stroke-width:0.27500001;stroke-linecap:round;stroke-linejoin:round;stroke-miterlimit:4.0000000;stroke-dashoffset:0.0000000;stroke-opacity:1.0000000" />
      </g>
    </g>
    <path
       id="rect11638"
       d="M 15.971326,15.512471 L 45.935061,15.512471 C 48.455781,15.512471 50.485093,17.142560 50.485093,19.167379 L 50.485093,22.007059 C 50.485093,24.031879 48.455781,25.661967 45.935061,25.661967 L 15.971326,25.661967 C 13.450609,25.661967 11.421297,24.031879 11.421297,22.007059 L 11.421297,19.167379 C 11.421297,17.142560 13.450609,15.512471 15.971326,15.512471 z "
       style="fill:#ffc92b;fill-opacity:1.0000000;stroke:#9e0000;stroke-width:0.84259301;stroke-linecap:round;stroke-linejoin:round;stroke-miterlimit:4.0000000;stroke-dashoffset:0.0000000;stroke-opacity:0.45887443" />
  </g>
</svg>
