<?xml version="1.0" encoding="UTF-8" standalone="no"?>
<!-- Created with Inkscape (http://www.inkscape.org/) -->
<svg
   xmlns:dc="http://purl.org/dc/elements/1.1/"
   xmlns:cc="http://web.resource.org/cc/"
   xmlns:rdf="http://www.w3.org/1999/02/22-rdf-syntax-ns#"
   xmlns:svg="http://www.w3.org/2000/svg"
   xmlns="http://www.w3.org/2000/svg"
   xmlns:xlink="http://www.w3.org/1999/xlink"
   xmlns:sodipodi="http://inkscape.sourceforge.net/DTD/sodipodi-0.dtd"
   xmlns:inkscape="http://www.inkscape.org/namespaces/inkscape"
   inkscape:export-ydpi="45.000000"
   inkscape:export-xdpi="45.000000"
   inkscape:export-filename="/home/pinheiro/kdeplayground-artwork/oooicons/crystalsvg/field.png"
   sodipodi:docname="field.svg"
   sodipodi:docbase="/home/pinheiro/kdeplayground-artwork/oooicons/crystalsvg"
   inkscape:version="0.41"
   sodipodi:version="0.32"
   id="svg7576"
   height="64px"
   width="64px">
  <defs
     id="defs3">
    <linearGradient
       y2="31.414165"
       x2="30.654827"
       y1="-15.150021"
       x1="31.264727"
       gradientTransform="matrix(0.731172,0.000000,0.000000,0.701149,18.07255,15.98181)"
       gradientUnits="userSpaceOnUse"
       id="linearGradient5254"
       xlink:href="#light100to0"
       inkscape:collect="always" />
    <linearGradient
       id="light100to0">
      <stop
         id="stop2764"
         offset="0.0000000"
         style="stop-color:#ffffff;stop-opacity:1.0000000;" />
      <stop
         id="stop2765"
         offset="1.0000000"
         style="stop-color:#ffffff;stop-opacity:0.0000000;" />
    </linearGradient>
    <linearGradient
       y2="30.904329"
       x2="26.316101"
       y1="16.847429"
       x1="9.1281557"
       gradientTransform="matrix(0.731172,0.000000,0.000000,0.701149,18.07255,15.98181)"
       gradientUnits="userSpaceOnUse"
       id="linearGradient5256"
       xlink:href="#light100to0"
       inkscape:collect="always" />
    <linearGradient
       gradientTransform="matrix(0.763389,0.000000,0.000000,0.779983,15.14314,14.09482)"
       y2="4.1087956"
       x2="2.0209787"
       y1="149.81906"
       x1="109.54896"
       gradientUnits="userSpaceOnUse"
       id="linearGradient5260"
       xlink:href="#bluedarktoblackblue"
       inkscape:collect="always" />
    <radialGradient
       gradientUnits="userSpaceOnUse"
       id="bluelignonlinblu"
       fy="112.96090"
       fx="38.797401"
       r="67.358803"
       cy="112.96090"
       cx="38.797401">
      <stop
         id="stop84"
         offset="0.0055999998"
         style="stop-color:#d9ffff;stop-opacity:1.0000000;" />
      <stop
         id="stop86"
         offset="0.13480000"
         style="stop-color:#95d9ff;stop-opacity:1.0000000;" />
      <stop
         id="stop88"
         offset="0.32049999"
         style="stop-color:#68b9ff;stop-opacity:1.0000000;" />
      <stop
         id="stop90"
         offset="0.56800002"
         style="stop-color:#3293fe;stop-opacity:1.0000000;" />
      <stop
         id="stop92"
         offset="0.75340003"
         style="stop-color:#107bfe;stop-opacity:1.0000000;" />
      <stop
         id="stop94"
         offset="0.85390002"
         style="stop-color:#0372fe;stop-opacity:1.0000000;" />
      <stop
         id="stop96"
         offset="1.0000000"
         style="stop-color:#0356fe;stop-opacity:1.0000000;" />
    </radialGradient>
    <radialGradient
       gradientTransform="matrix(0.763389,0.000000,0.000000,0.779983,15.14314,14.09482)"
       r="28.624546"
       fy="47.945312"
       fx="46.213070"
       cy="47.945312"
       cx="46.213070"
       gradientUnits="userSpaceOnUse"
       id="radialGradient5258"
       xlink:href="#bluelignonlinblu"
       inkscape:collect="always" />
    <radialGradient
       gradientUnits="userSpaceOnUse"
       id="bluedarktoblackblue"
       fy="112.96090"
       fx="38.797401"
       r="67.358803"
       cy="112.96090"
       cx="38.797401">
      <stop
         id="stop2959"
         offset="0.0000000"
         style="stop-color:#0356fe;stop-opacity:1.0000000;" />
      <stop
         id="stop2960"
         offset="1.0000000"
         style="stop-color:#032442;stop-opacity:1.0000000;" />
    </radialGradient>
    <linearGradient
       gradientTransform="matrix(0.763389,0.000000,0.000000,0.779983,15.14314,14.09482)"
       y2="58.546387"
       x2="56.593750"
       y1="-1.1279297"
       x1="-5.6187501"
       gradientUnits="userSpaceOnUse"
       id="linearGradient5262"
       xlink:href="#bluedarktoblackblue"
       inkscape:collect="always" />
  </defs>
  <sodipodi:namedview
     inkscape:window-y="391"
     inkscape:window-x="0"
     inkscape:window-height="536"
     inkscape:window-width="640"
     inkscape:grid-bbox="true"
     inkscape:document-units="px"
     showgrid="true"
     inkscape:current-layer="layer1"
     inkscape:cy="32.342363"
     inkscape:cx="32.000000"
     inkscape:zoom="5.5000000"
     inkscape:pageshadow="2"
     inkscape:pageopacity="0.0"
     borderopacity="1.0"
     bordercolor="#666666"
     pagecolor="#ffffff"
     id="base" />
  <metadata
     id="metadata4">
    <rdf:RDF
       id="RDF5">
      <cc:Work
         id="Work6"
         rdf:about="">
        <dc:format
           id="format7">image/svg+xml</dc:format>
        <dc:type
           rdf:resource="http://purl.org/dc/dcmitype/StillImage"
           id="type9" />
      </cc:Work>
    </rdf:RDF>
  </metadata>
  <g
     inkscape:groupmode="layer"
     inkscape:label="Layer 1"
     id="layer1">
    <g
       transform="matrix(1.257862,0.000000,0.000000,1.232068,-17.68553,-16.08751)"
       id="g7586">
      <path
         id="path6790"
         d="M 25.067186,13.997324 L 25.067186,16.434772 L 26.498539,16.434772 L 26.498539,13.997324 L 25.067186,13.997324 z M 52.549172,13.997324 L 52.549172,16.434772 L 53.980526,16.434772 L 53.980526,13.997324 L 52.549172,13.997324 z M 25.067186,21.382791 L 25.067186,25.282707 L 21.846641,25.282707 L 21.846641,26.745176 L 25.067186,26.745176 L 25.067186,30.011355 L 26.498539,30.011355 L 26.498539,26.745176 L 30.315482,26.745176 L 30.315482,25.282707 L 26.498539,25.282707 L 26.498539,21.382791 L 25.067186,21.382791 z M 52.549172,21.382791 L 52.549172,25.282707 L 48.422103,25.282707 L 48.422103,26.745176 L 52.549172,26.745176 L 52.549172,30.011355 L 53.980526,30.011355 L 53.980526,26.745176 L 56.867089,26.745176 L 56.867089,25.282707 L 53.980526,25.282707 L 53.980526,21.382791 L 52.549172,21.382791 z M 15.000000,25.282707 L 15.000000,26.745176 L 17.027751,26.745176 L 17.027751,25.282707 L 15.000000,25.282707 z M 35.134372,25.282707 L 35.134372,26.745176 L 43.579357,26.745176 L 43.579357,25.282707 L 35.134372,25.282707 z M 61.709834,25.282707 L 61.709834,26.745176 L 64.000000,26.745176 L 64.000000,25.282707 L 61.709834,25.282707 z M 25.067186,34.959374 L 25.067186,43.587939 L 26.498539,43.587939 L 26.498539,34.959374 L 25.067186,34.959374 z M 52.549172,34.959374 L 52.549172,43.587939 L 53.980526,43.587939 L 53.980526,34.959374 L 52.549172,34.959374 z M 25.067186,48.511584 L 25.067186,53.362105 L 21.846641,53.362105 L 21.846641,54.824573 L 25.067186,54.824573 L 25.067186,57.164523 L 26.498539,57.164523 L 26.498539,54.824573 L 30.315482,54.824573 L 30.315482,53.362105 L 26.498539,53.362105 L 26.498539,48.511584 L 25.067186,48.511584 z M 52.549172,48.511584 L 52.549172,53.362105 L 48.422103,53.362105 L 48.422103,54.824573 L 52.549172,54.824573 L 52.549172,57.164523 L 53.980526,57.164523 L 53.980526,54.824573 L 56.867089,54.824573 L 56.867089,53.362105 L 53.980526,53.362105 L 53.980526,48.511584 L 52.549172,48.511584 z M 15.000000,53.362105 L 15.000000,54.824573 L 17.027751,54.824573 L 17.027751,53.362105 L 15.000000,53.362105 z M 35.134372,53.362105 L 35.134372,54.824573 L 43.579357,54.824573 L 43.579357,53.362105 L 35.134372,53.362105 z M 61.709834,53.362105 L 61.709834,54.824573 L 64.000000,54.824573 L 64.000000,53.362105 L 61.709834,53.362105 z M 25.067186,62.088167 L 25.067186,64.062500 L 26.498539,64.062500 L 26.498539,62.088167 L 25.067186,62.088167 z M 52.549172,62.088167 L 52.549172,64.062500 L 53.980526,64.062500 L 53.980526,62.088167 L 52.549172,62.088167 z "
         style="fill:none;fill-opacity:1.0000000;fill-rule:evenodd;stroke:#0000b9;stroke-width:0.57999998;stroke-linecap:butt;stroke-linejoin:round;stroke-miterlimit:4.0000000;stroke-opacity:0.28959277" />
      <path
         id="path6788"
         d="M 25.067186,13.997324 L 25.067186,16.434772 L 26.498539,16.434772 L 26.498539,13.997324 L 25.067186,13.997324 z M 52.549172,13.997324 L 52.549172,16.434772 L 53.980526,16.434772 L 53.980526,13.997324 L 52.549172,13.997324 z M 25.067186,21.382791 L 25.067186,25.282707 L 21.846641,25.282707 L 21.846641,26.745176 L 25.067186,26.745176 L 25.067186,30.011355 L 26.498539,30.011355 L 26.498539,26.745176 L 30.315482,26.745176 L 30.315482,25.282707 L 26.498539,25.282707 L 26.498539,21.382791 L 25.067186,21.382791 z M 52.549172,21.382791 L 52.549172,25.282707 L 48.422103,25.282707 L 48.422103,26.745176 L 52.549172,26.745176 L 52.549172,30.011355 L 53.980526,30.011355 L 53.980526,26.745176 L 56.867089,26.745176 L 56.867089,25.282707 L 53.980526,25.282707 L 53.980526,21.382791 L 52.549172,21.382791 z M 15.000000,25.282707 L 15.000000,26.745176 L 17.027751,26.745176 L 17.027751,25.282707 L 15.000000,25.282707 z M 35.134372,25.282707 L 35.134372,26.745176 L 43.579357,26.745176 L 43.579357,25.282707 L 35.134372,25.282707 z M 61.709834,25.282707 L 61.709834,26.745176 L 64.000000,26.745176 L 64.000000,25.282707 L 61.709834,25.282707 z M 25.067186,34.959374 L 25.067186,43.587939 L 26.498539,43.587939 L 26.498539,34.959374 L 25.067186,34.959374 z M 52.549172,34.959374 L 52.549172,43.587939 L 53.980526,43.587939 L 53.980526,34.959374 L 52.549172,34.959374 z M 25.067186,48.511584 L 25.067186,53.362105 L 21.846641,53.362105 L 21.846641,54.824573 L 25.067186,54.824573 L 25.067186,57.164523 L 26.498539,57.164523 L 26.498539,54.824573 L 30.315482,54.824573 L 30.315482,53.362105 L 26.498539,53.362105 L 26.498539,48.511584 L 25.067186,48.511584 z M 52.549172,48.511584 L 52.549172,53.362105 L 48.422103,53.362105 L 48.422103,54.824573 L 52.549172,54.824573 L 52.549172,57.164523 L 53.980526,57.164523 L 53.980526,54.824573 L 56.867089,54.824573 L 56.867089,53.362105 L 53.980526,53.362105 L 53.980526,48.511584 L 52.549172,48.511584 z M 15.000000,53.362105 L 15.000000,54.824573 L 17.027751,54.824573 L 17.027751,53.362105 L 15.000000,53.362105 z M 35.134372,53.362105 L 35.134372,54.824573 L 43.579357,54.824573 L 43.579357,53.362105 L 35.134372,53.362105 z M 61.709834,53.362105 L 61.709834,54.824573 L 64.000000,54.824573 L 64.000000,53.362105 L 61.709834,53.362105 z M 25.067186,62.088167 L 25.067186,64.062500 L 26.498539,64.062500 L 26.498539,62.088167 L 25.067186,62.088167 z M 52.549172,62.088167 L 52.549172,64.062500 L 53.980526,64.062500 L 53.980526,62.088167 L 52.549172,62.088167 z "
         style="fill:none;fill-opacity:1.0000000;fill-rule:evenodd;stroke:#0000b9;stroke-width:0.98000002;stroke-linecap:butt;stroke-linejoin:round;stroke-miterlimit:4.0000000;stroke-opacity:0.045248870" />
      <path
         id="path6786"
         d="M 25.067186,13.997324 L 25.067186,16.434772 L 26.498539,16.434772 L 26.498539,13.997324 L 25.067186,13.997324 z M 52.549172,13.997324 L 52.549172,16.434772 L 53.980526,16.434772 L 53.980526,13.997324 L 52.549172,13.997324 z M 25.067186,21.382791 L 25.067186,25.282707 L 21.846641,25.282707 L 21.846641,26.745176 L 25.067186,26.745176 L 25.067186,30.011355 L 26.498539,30.011355 L 26.498539,26.745176 L 30.315482,26.745176 L 30.315482,25.282707 L 26.498539,25.282707 L 26.498539,21.382791 L 25.067186,21.382791 z M 52.549172,21.382791 L 52.549172,25.282707 L 48.422103,25.282707 L 48.422103,26.745176 L 52.549172,26.745176 L 52.549172,30.011355 L 53.980526,30.011355 L 53.980526,26.745176 L 56.867089,26.745176 L 56.867089,25.282707 L 53.980526,25.282707 L 53.980526,21.382791 L 52.549172,21.382791 z M 15.000000,25.282707 L 15.000000,26.745176 L 17.027751,26.745176 L 17.027751,25.282707 L 15.000000,25.282707 z M 35.134372,25.282707 L 35.134372,26.745176 L 43.579357,26.745176 L 43.579357,25.282707 L 35.134372,25.282707 z M 61.709834,25.282707 L 61.709834,26.745176 L 64.000000,26.745176 L 64.000000,25.282707 L 61.709834,25.282707 z M 25.067186,34.959374 L 25.067186,43.587939 L 26.498539,43.587939 L 26.498539,34.959374 L 25.067186,34.959374 z M 52.549172,34.959374 L 52.549172,43.587939 L 53.980526,43.587939 L 53.980526,34.959374 L 52.549172,34.959374 z M 25.067186,48.511584 L 25.067186,53.362105 L 21.846641,53.362105 L 21.846641,54.824573 L 25.067186,54.824573 L 25.067186,57.164523 L 26.498539,57.164523 L 26.498539,54.824573 L 30.315482,54.824573 L 30.315482,53.362105 L 26.498539,53.362105 L 26.498539,48.511584 L 25.067186,48.511584 z M 52.549172,48.511584 L 52.549172,53.362105 L 48.422103,53.362105 L 48.422103,54.824573 L 52.549172,54.824573 L 52.549172,57.164523 L 53.980526,57.164523 L 53.980526,54.824573 L 56.867089,54.824573 L 56.867089,53.362105 L 53.980526,53.362105 L 53.980526,48.511584 L 52.549172,48.511584 z M 15.000000,53.362105 L 15.000000,54.824573 L 17.027751,54.824573 L 17.027751,53.362105 L 15.000000,53.362105 z M 35.134372,53.362105 L 35.134372,54.824573 L 43.579357,54.824573 L 43.579357,53.362105 L 35.134372,53.362105 z M 61.709834,53.362105 L 61.709834,54.824573 L 64.000000,54.824573 L 64.000000,53.362105 L 61.709834,53.362105 z M 25.067186,62.088167 L 25.067186,64.062500 L 26.498539,64.062500 L 26.498539,62.088167 L 25.067186,62.088167 z M 52.549172,62.088167 L 52.549172,64.062500 L 53.980526,64.062500 L 53.980526,62.088167 L 52.549172,62.088167 z "
         style="fill:none;fill-opacity:1.0000000;fill-rule:evenodd;stroke:#0000b9;stroke-width:1.3800000;stroke-linecap:butt;stroke-linejoin:round;stroke-miterlimit:4.0000000;stroke-opacity:0.045248870" />
      <path
         id="path6784"
         d="M 25.067186,13.997324 L 25.067186,16.434772 L 26.498539,16.434772 L 26.498539,13.997324 L 25.067186,13.997324 z M 52.549172,13.997324 L 52.549172,16.434772 L 53.980526,16.434772 L 53.980526,13.997324 L 52.549172,13.997324 z M 25.067186,21.382791 L 25.067186,25.282707 L 21.846641,25.282707 L 21.846641,26.745176 L 25.067186,26.745176 L 25.067186,30.011355 L 26.498539,30.011355 L 26.498539,26.745176 L 30.315482,26.745176 L 30.315482,25.282707 L 26.498539,25.282707 L 26.498539,21.382791 L 25.067186,21.382791 z M 52.549172,21.382791 L 52.549172,25.282707 L 48.422103,25.282707 L 48.422103,26.745176 L 52.549172,26.745176 L 52.549172,30.011355 L 53.980526,30.011355 L 53.980526,26.745176 L 56.867089,26.745176 L 56.867089,25.282707 L 53.980526,25.282707 L 53.980526,21.382791 L 52.549172,21.382791 z M 15.000000,25.282707 L 15.000000,26.745176 L 17.027751,26.745176 L 17.027751,25.282707 L 15.000000,25.282707 z M 35.134372,25.282707 L 35.134372,26.745176 L 43.579357,26.745176 L 43.579357,25.282707 L 35.134372,25.282707 z M 61.709834,25.282707 L 61.709834,26.745176 L 64.000000,26.745176 L 64.000000,25.282707 L 61.709834,25.282707 z M 25.067186,34.959374 L 25.067186,43.587939 L 26.498539,43.587939 L 26.498539,34.959374 L 25.067186,34.959374 z M 52.549172,34.959374 L 52.549172,43.587939 L 53.980526,43.587939 L 53.980526,34.959374 L 52.549172,34.959374 z M 25.067186,48.511584 L 25.067186,53.362105 L 21.846641,53.362105 L 21.846641,54.824573 L 25.067186,54.824573 L 25.067186,57.164523 L 26.498539,57.164523 L 26.498539,54.824573 L 30.315482,54.824573 L 30.315482,53.362105 L 26.498539,53.362105 L 26.498539,48.511584 L 25.067186,48.511584 z M 52.549172,48.511584 L 52.549172,53.362105 L 48.422103,53.362105 L 48.422103,54.824573 L 52.549172,54.824573 L 52.549172,57.164523 L 53.980526,57.164523 L 53.980526,54.824573 L 56.867089,54.824573 L 56.867089,53.362105 L 53.980526,53.362105 L 53.980526,48.511584 L 52.549172,48.511584 z M 15.000000,53.362105 L 15.000000,54.824573 L 17.027751,54.824573 L 17.027751,53.362105 L 15.000000,53.362105 z M 35.134372,53.362105 L 35.134372,54.824573 L 43.579357,54.824573 L 43.579357,53.362105 L 35.134372,53.362105 z M 61.709834,53.362105 L 61.709834,54.824573 L 64.000000,54.824573 L 64.000000,53.362105 L 61.709834,53.362105 z M 25.067186,62.088167 L 25.067186,64.062500 L 26.498539,64.062500 L 26.498539,62.088167 L 25.067186,62.088167 z M 52.549172,62.088167 L 52.549172,64.062500 L 53.980526,64.062500 L 53.980526,62.088167 L 52.549172,62.088167 z "
         style="fill:none;fill-opacity:1.0000000;fill-rule:evenodd;stroke:#0000b9;stroke-width:1.5800000;stroke-linecap:butt;stroke-linejoin:round;stroke-miterlimit:4.0000000;stroke-opacity:0.045248870" />
      <path
         id="path6782"
         d="M 25.067186,13.997324 L 25.067186,16.434772 L 26.498539,16.434772 L 26.498539,13.997324 L 25.067186,13.997324 z M 52.549172,13.997324 L 52.549172,16.434772 L 53.980526,16.434772 L 53.980526,13.997324 L 52.549172,13.997324 z M 25.067186,21.382791 L 25.067186,25.282707 L 21.846641,25.282707 L 21.846641,26.745176 L 25.067186,26.745176 L 25.067186,30.011355 L 26.498539,30.011355 L 26.498539,26.745176 L 30.315482,26.745176 L 30.315482,25.282707 L 26.498539,25.282707 L 26.498539,21.382791 L 25.067186,21.382791 z M 52.549172,21.382791 L 52.549172,25.282707 L 48.422103,25.282707 L 48.422103,26.745176 L 52.549172,26.745176 L 52.549172,30.011355 L 53.980526,30.011355 L 53.980526,26.745176 L 56.867089,26.745176 L 56.867089,25.282707 L 53.980526,25.282707 L 53.980526,21.382791 L 52.549172,21.382791 z M 15.000000,25.282707 L 15.000000,26.745176 L 17.027751,26.745176 L 17.027751,25.282707 L 15.000000,25.282707 z M 35.134372,25.282707 L 35.134372,26.745176 L 43.579357,26.745176 L 43.579357,25.282707 L 35.134372,25.282707 z M 61.709834,25.282707 L 61.709834,26.745176 L 64.000000,26.745176 L 64.000000,25.282707 L 61.709834,25.282707 z M 25.067186,34.959374 L 25.067186,43.587939 L 26.498539,43.587939 L 26.498539,34.959374 L 25.067186,34.959374 z M 52.549172,34.959374 L 52.549172,43.587939 L 53.980526,43.587939 L 53.980526,34.959374 L 52.549172,34.959374 z M 25.067186,48.511584 L 25.067186,53.362105 L 21.846641,53.362105 L 21.846641,54.824573 L 25.067186,54.824573 L 25.067186,57.164523 L 26.498539,57.164523 L 26.498539,54.824573 L 30.315482,54.824573 L 30.315482,53.362105 L 26.498539,53.362105 L 26.498539,48.511584 L 25.067186,48.511584 z M 52.549172,48.511584 L 52.549172,53.362105 L 48.422103,53.362105 L 48.422103,54.824573 L 52.549172,54.824573 L 52.549172,57.164523 L 53.980526,57.164523 L 53.980526,54.824573 L 56.867089,54.824573 L 56.867089,53.362105 L 53.980526,53.362105 L 53.980526,48.511584 L 52.549172,48.511584 z M 15.000000,53.362105 L 15.000000,54.824573 L 17.027751,54.824573 L 17.027751,53.362105 L 15.000000,53.362105 z M 35.134372,53.362105 L 35.134372,54.824573 L 43.579357,54.824573 L 43.579357,53.362105 L 35.134372,53.362105 z M 61.709834,53.362105 L 61.709834,54.824573 L 64.000000,54.824573 L 64.000000,53.362105 L 61.709834,53.362105 z M 25.067186,62.088167 L 25.067186,64.062500 L 26.498539,64.062500 L 26.498539,62.088167 L 25.067186,62.088167 z M 52.549172,62.088167 L 52.549172,64.062500 L 53.980526,64.062500 L 53.980526,62.088167 L 52.549172,62.088167 z "
         style="fill:none;fill-opacity:1.0000000;fill-rule:evenodd;stroke:#000000;stroke-width:1.7800000;stroke-linecap:butt;stroke-linejoin:round;stroke-miterlimit:4.0000000;stroke-opacity:0.045248870" />
      <path
         id="path6022"
         d="M 25.067186,13.997324 L 25.067186,16.434772 L 26.498539,16.434772 L 26.498539,13.997324 L 25.067186,13.997324 z M 52.549172,13.997324 L 52.549172,16.434772 L 53.980526,16.434772 L 53.980526,13.997324 L 52.549172,13.997324 z M 25.067186,21.382791 L 25.067186,25.282707 L 21.846641,25.282707 L 21.846641,26.745176 L 25.067186,26.745176 L 25.067186,30.011355 L 26.498539,30.011355 L 26.498539,26.745176 L 30.315482,26.745176 L 30.315482,25.282707 L 26.498539,25.282707 L 26.498539,21.382791 L 25.067186,21.382791 z M 52.549172,21.382791 L 52.549172,25.282707 L 48.422103,25.282707 L 48.422103,26.745176 L 52.549172,26.745176 L 52.549172,30.011355 L 53.980526,30.011355 L 53.980526,26.745176 L 56.867089,26.745176 L 56.867089,25.282707 L 53.980526,25.282707 L 53.980526,21.382791 L 52.549172,21.382791 z M 15.000000,25.282707 L 15.000000,26.745176 L 17.027751,26.745176 L 17.027751,25.282707 L 15.000000,25.282707 z M 35.134372,25.282707 L 35.134372,26.745176 L 43.579357,26.745176 L 43.579357,25.282707 L 35.134372,25.282707 z M 61.709834,25.282707 L 61.709834,26.745176 L 64.000000,26.745176 L 64.000000,25.282707 L 61.709834,25.282707 z M 25.067186,34.959374 L 25.067186,43.587939 L 26.498539,43.587939 L 26.498539,34.959374 L 25.067186,34.959374 z M 52.549172,34.959374 L 52.549172,43.587939 L 53.980526,43.587939 L 53.980526,34.959374 L 52.549172,34.959374 z M 25.067186,48.511584 L 25.067186,53.362105 L 21.846641,53.362105 L 21.846641,54.824573 L 25.067186,54.824573 L 25.067186,57.164523 L 26.498539,57.164523 L 26.498539,54.824573 L 30.315482,54.824573 L 30.315482,53.362105 L 26.498539,53.362105 L 26.498539,48.511584 L 25.067186,48.511584 z M 52.549172,48.511584 L 52.549172,53.362105 L 48.422103,53.362105 L 48.422103,54.824573 L 52.549172,54.824573 L 52.549172,57.164523 L 53.980526,57.164523 L 53.980526,54.824573 L 56.867089,54.824573 L 56.867089,53.362105 L 53.980526,53.362105 L 53.980526,48.511584 L 52.549172,48.511584 z M 15.000000,53.362105 L 15.000000,54.824573 L 17.027751,54.824573 L 17.027751,53.362105 L 15.000000,53.362105 z M 35.134372,53.362105 L 35.134372,54.824573 L 43.579357,54.824573 L 43.579357,53.362105 L 35.134372,53.362105 z M 61.709834,53.362105 L 61.709834,54.824573 L 64.000000,54.824573 L 64.000000,53.362105 L 61.709834,53.362105 z M 25.067186,62.088167 L 25.067186,64.062500 L 26.498539,64.062500 L 26.498539,62.088167 L 25.067186,62.088167 z M 52.549172,62.088167 L 52.549172,64.062500 L 53.980526,64.062500 L 53.980526,62.088167 L 52.549172,62.088167 z "
         style="fill:none;fill-opacity:1.0000000;fill-rule:evenodd;stroke:#000000;stroke-width:1.8800000;stroke-linecap:butt;stroke-linejoin:round;stroke-miterlimit:4.0000000;stroke-opacity:0.045248870" />
      <path
         id="path1498"
         d="M 25.067186,13.997324 L 25.067186,16.434772 L 26.498539,16.434772 L 26.498539,13.997324 L 25.067186,13.997324 z M 52.549172,13.997324 L 52.549172,16.434772 L 53.980526,16.434772 L 53.980526,13.997324 L 52.549172,13.997324 z M 25.067186,21.382791 L 25.067186,25.282707 L 21.846641,25.282707 L 21.846641,26.745176 L 25.067186,26.745176 L 25.067186,30.011355 L 26.498539,30.011355 L 26.498539,26.745176 L 30.315482,26.745176 L 30.315482,25.282707 L 26.498539,25.282707 L 26.498539,21.382791 L 25.067186,21.382791 z M 52.549172,21.382791 L 52.549172,25.282707 L 48.422103,25.282707 L 48.422103,26.745176 L 52.549172,26.745176 L 52.549172,30.011355 L 53.980526,30.011355 L 53.980526,26.745176 L 56.867089,26.745176 L 56.867089,25.282707 L 53.980526,25.282707 L 53.980526,21.382791 L 52.549172,21.382791 z M 15.000000,25.282707 L 15.000000,26.745176 L 17.027751,26.745176 L 17.027751,25.282707 L 15.000000,25.282707 z M 35.134372,25.282707 L 35.134372,26.745176 L 43.579357,26.745176 L 43.579357,25.282707 L 35.134372,25.282707 z M 61.709834,25.282707 L 61.709834,26.745176 L 64.000000,26.745176 L 64.000000,25.282707 L 61.709834,25.282707 z M 25.067186,34.959374 L 25.067186,43.587939 L 26.498539,43.587939 L 26.498539,34.959374 L 25.067186,34.959374 z M 52.549172,34.959374 L 52.549172,43.587939 L 53.980526,43.587939 L 53.980526,34.959374 L 52.549172,34.959374 z M 25.067186,48.511584 L 25.067186,53.362105 L 21.846641,53.362105 L 21.846641,54.824573 L 25.067186,54.824573 L 25.067186,57.164523 L 26.498539,57.164523 L 26.498539,54.824573 L 30.315482,54.824573 L 30.315482,53.362105 L 26.498539,53.362105 L 26.498539,48.511584 L 25.067186,48.511584 z M 52.549172,48.511584 L 52.549172,53.362105 L 48.422103,53.362105 L 48.422103,54.824573 L 52.549172,54.824573 L 52.549172,57.164523 L 53.980526,57.164523 L 53.980526,54.824573 L 56.867089,54.824573 L 56.867089,53.362105 L 53.980526,53.362105 L 53.980526,48.511584 L 52.549172,48.511584 z M 15.000000,53.362105 L 15.000000,54.824573 L 17.027751,54.824573 L 17.027751,53.362105 L 15.000000,53.362105 z M 35.134372,53.362105 L 35.134372,54.824573 L 43.579357,54.824573 L 43.579357,53.362105 L 35.134372,53.362105 z M 61.709834,53.362105 L 61.709834,54.824573 L 64.000000,54.824573 L 64.000000,53.362105 L 61.709834,53.362105 z M 25.067186,62.088167 L 25.067186,64.062500 L 26.498539,64.062500 L 26.498539,62.088167 L 25.067186,62.088167 z M 52.549172,62.088167 L 52.549172,64.062500 L 53.980526,64.062500 L 53.980526,62.088167 L 52.549172,62.088167 z "
         style="fill:url(#linearGradient5262);fill-opacity:1.0000000;fill-rule:evenodd;stroke:none;stroke-width:1.8829378px;stroke-linecap:butt;stroke-linejoin:miter;stroke-opacity:1.0000000" />
      <rect
         ry="4.4271455"
         rx="3.3245454"
         y="26.149107"
         x="25.830574"
         height="27.724861"
         width="27.134993"
         id="rect2870"
         style="fill:url(#radialGradient5258);fill-opacity:1.0000000;stroke:url(#linearGradient5260);stroke-width:1.9700000;stroke-linejoin:round;stroke-miterlimit:4.0000000;stroke-opacity:1.0000000" />
      <path
         id="path3652"
         d="M 49.592198,28.136571 L 30.357768,28.000000 C 29.199566,28.045524 28.041364,29.320181 28.000000,31.004550 L 28.000000,47.529575 C 29.820031,53.311059 29.560946,40.586842 34.204653,34.555382 C 38.796099,28.591805 52.529068,31.778449 49.592198,28.136571 z "
         style="fill:url(#linearGradient5256);fill-opacity:1.0000000;fill-rule:evenodd;stroke:none;stroke-width:1.0000000px;stroke-linecap:butt;stroke-linejoin:miter;stroke-opacity:1.0000000" />
      <path
         id="path4420"
         d="M 49.592198,28.136571 L 30.357768,28.000000 C 29.199566,28.045524 28.041364,29.320181 28.000000,31.004550 L 28.000000,47.529575 C 29.820031,53.311059 29.560946,40.586842 34.204653,34.555382 C 38.796099,28.591805 52.529068,31.778449 49.592198,28.136571 z "
         style="fill:url(#linearGradient5254);fill-opacity:1.0000000;fill-rule:evenodd;stroke:none;stroke-width:1.0000000px;stroke-linecap:butt;stroke-linejoin:miter;stroke-opacity:1.0000000" />
    </g>
  </g>
</svg>
