<?xml version="1.0" encoding="UTF-8" standalone="no"?>
<!DOCTYPE svg PUBLIC "-//W3C//DTD SVG 20010904//EN"
"http://www.w3.org/TR/2001/REC-SVG-20010904/DTD/svg10.dtd">
<!-- Created with Inkscape (http://www.inkscape.org/) -->
<svg
   width="64pt"
   height="64pt"
   id="svg7354"
   sodipodi:version="0.32"
   inkscape:version="0.40"
   sodipodi:docbase="/home/nuno/kdeplayground-artwork/oooicons/crystalsvg"
   sodipodi:docname="find.svg"
   inkscape:export-filename="/home/nuno/kdeplayground-artwork/oooicons/crystalsvg/find.png"
   inkscape:export-xdpi="36.000000"
   inkscape:export-ydpi="36.000000"
   xmlns="http://www.w3.org/2000/svg"
   xmlns:cc="http://web.resource.org/cc/"
   xmlns:inkscape="http://www.inkscape.org/namespaces/inkscape"
   xmlns:sodipodi="http://sodipodi.sourceforge.net/DTD/sodipodi-0.dtd"
   xmlns:rdf="http://www.w3.org/1999/02/22-rdf-syntax-ns#"
   xmlns:dc="http://purl.org/dc/elements/1.1/"
   xmlns:xlink="http://www.w3.org/1999/xlink">
  <defs
     id="defs3">
    <linearGradient
       inkscape:collect="always"
       xlink:href="#graytolightgray"
       id="linearGradient3623"
       gradientUnits="userSpaceOnUse"
       x1="122.43015"
       y1="59.053604"
       x2="272.46765"
       y2="323.76923"
       gradientTransform="matrix(0.182431,0.000000,0.000000,0.213888,4.641008,0.357569)" />
    <radialGradient
       inkscape:collect="always"
       xlink:href="#XMLID_9_"
       id="radialGradient3622"
       gradientUnits="userSpaceOnUse"
       cx="74.4951"
       cy="81.1689"
       fx="74.4951"
       fy="81.1689"
       r="23.6936"
       gradientTransform="matrix(0.696376,0.000000,0.000000,0.816451,10.14487,4.039048)" />
    <linearGradient
       id="graytolightgray">
      <stop
         style="stop-color:#d4d3d3;stop-opacity:1.0000000;"
         offset="0.0000000"
         id="stop5101" />
      <stop
         style="stop-color:#ffffff;stop-opacity:1.0000000;"
         offset="1.0000000"
         id="stop5102" />
    </linearGradient>
    <linearGradient
       inkscape:collect="always"
       xlink:href="#graytolightgray"
       id="linearGradient3621"
       gradientUnits="userSpaceOnUse"
       x1="284.17496"
       y1="340.20792"
       x2="330.93881"
       y2="273.80606"
       gradientTransform="matrix(0.182431,0.000000,0.000000,0.213888,4.641008,0.357569)" />
    <linearGradient
       id="light75to0">
      <stop
         style="stop-color:#ffffff;stop-opacity:0.72916669;"
         offset="0.0000000"
         id="stop2769" />
      <stop
         style="stop-color:#ffffff;stop-opacity:0.0000000;"
         offset="1.0000000"
         id="stop2770" />
    </linearGradient>
    <radialGradient
       inkscape:collect="always"
       xlink:href="#light75to0"
       id="radialGradient6111"
       gradientTransform="matrix(0.222656,0.000000,0.000000,0.175247,4.641008,1.797000e-2)"
       cx="53.182602"
       cy="52.577991"
       fx="53.182602"
       fy="52.577991"
       r="508.29517"
       gradientUnits="userSpaceOnUse" />
    <linearGradient
       inkscape:collect="always"
       xlink:href="#garylighttowite"
       id="linearGradient3619"
       gradientUnits="userSpaceOnUse"
       x1="245.91402"
       y1="248.01839"
       x2="561.86395"
       y2="513.91156"
       gradientTransform="matrix(0.182431,0.000000,0.000000,0.213888,4.641008,0.357569)" />
    <linearGradient
       id="garylighttowite">
      <stop
         style="stop-color:#7d7d7d;stop-opacity:1.0000000;"
         offset="0.0000000"
         id="stop5106" />
      <stop
         style="stop-color:#d3d4d4;stop-opacity:1.0000000;"
         offset="1.0000000"
         id="stop5107" />
    </linearGradient>
    <linearGradient
       inkscape:collect="always"
       xlink:href="#garylighttowite"
       id="linearGradient3618"
       gradientUnits="userSpaceOnUse"
       x1="-37.332329"
       y1="-50.289883"
       x2="578.44397"
       y2="648.29797"
       gradientTransform="matrix(0.182431,0.000000,0.000000,0.213888,4.641008,0.357569)" />
    <radialGradient
       inkscape:collect="always"
       xlink:href="#XMLID_9_"
       id="radialGradient7426"
       gradientUnits="userSpaceOnUse"
       gradientTransform="matrix(0.696376,0.000000,0.000000,0.816451,10.14487,4.039048)"
       cx="74.4951"
       cy="81.1689"
       fx="74.4951"
       fy="81.1689"
       r="23.6936" />
    <radialGradient
       inkscape:collect="always"
       xlink:href="#light75to0"
       id="radialGradient1100"
       gradientUnits="userSpaceOnUse"
       gradientTransform="matrix(0.261654,0.000000,0.000000,0.186725,-2.105708,-3.658607)"
       cx="53.182602"
       cy="52.577991"
       fx="53.182602"
       fy="52.577991"
       r="508.29517" />
    <linearGradient
       inkscape:collect="always"
       xlink:href="#graytolightgray"
       id="linearGradient1101"
       gradientUnits="userSpaceOnUse"
       gradientTransform="matrix(0.214385,0.000000,0.000000,0.222911,-2.107421,-3.381642)"
       x1="122.43015"
       y1="59.053604"
       x2="272.46765"
       y2="323.76923" />
    <linearGradient
       inkscape:collect="always"
       xlink:href="#garylighttowite"
       id="linearGradient1102"
       gradientUnits="userSpaceOnUse"
       gradientTransform="matrix(0.214385,0.000000,0.000000,0.227898,-2.019841,-3.272408)"
       x1="-37.332329"
       y1="-50.289883"
       x2="578.44397"
       y2="648.29797" />
    <linearGradient
       inkscape:collect="always"
       xlink:href="#garylighttowite"
       id="linearGradient1103"
       gradientUnits="userSpaceOnUse"
       gradientTransform="matrix(0.214385,0.000000,0.000000,0.227898,-2.392798,-3.273732)"
       x1="245.91402"
       y1="248.01839"
       x2="561.86395"
       y2="513.91156" />
    <linearGradient
       inkscape:collect="always"
       xlink:href="#graytolightgray"
       id="linearGradient1104"
       gradientUnits="userSpaceOnUse"
       gradientTransform="matrix(0.214385,0.000000,0.000000,0.227898,-2.648122,-3.253041)"
       x1="284.17496"
       y1="340.20792"
       x2="330.93881"
       y2="273.80606" />
  </defs>
  <sodipodi:namedview
     id="base"
     pagecolor="#ffffff"
     bordercolor="#666666"
     borderopacity="1.0"
     inkscape:pageopacity="0.0"
     inkscape:pageshadow="2"
     inkscape:zoom="11.939995"
     inkscape:cx="33.414154"
     inkscape:cy="32.379701"
     inkscape:current-layer="layer1"
     showgrid="true"
     inkscape:grid-bbox="true"
     gridspacingy="1.0000000pt"
     gridspacingx="1.0000000pt"
     gridoriginy="0.0000000pt"
     gridoriginx="0.0000000pt"
     inkscape:window-width="1278"
     inkscape:window-height="904"
     inkscape:window-x="50"
     inkscape:window-y="25" />
  <metadata
     id="metadata4">
    <rdf:RDF
       id="RDF5">
      <cc:Work
         rdf:about=""
         id="Work6">
        <dc:format
           id="format7">image/svg+xml</dc:format>
        <dc:type
           id="type9"
           rdf:resource="http://purl.org/dc/dcmitype/StillImage" />
      </cc:Work>
    </rdf:RDF>
  </metadata>
  <g
     id="layer1"
     inkscape:label="Layer 1"
     inkscape:groupmode="layer">
    <path
       style="fill:#cbcbcb;fill-opacity:1.0000000;fill-rule:evenodd;stroke:none;stroke-width:0.25000000pt;stroke-linecap:butt;stroke-linejoin:miter;stroke-opacity:1.0000000"
       d="M 39.509854,4.4174568 L 75.259949,4.0634956 L 75.155259,79.229903 L 10.838986,79.280279 L 10.662005,69.015401 L 39.509854,4.4174568 z "
       id="path1105"
       sodipodi:nodetypes="cccccc"
       inkscape:export-xdpi="48.818890"
       inkscape:export-ydpi="48.818890" />
    <path
       style="fill:#ffffff;fill-opacity:1.0000000;fill-rule:evenodd;stroke:none;stroke-width:0.25000000pt;stroke-linecap:butt;stroke-linejoin:miter;stroke-opacity:1.0000000"
       d="M 9.0691797,1.7627466 L 72.605239,1.9397274 L 71.810947,75.870705 L 8.8921991,76.448589 L 9.0691797,1.7627466 z "
       id="path1727"
       sodipodi:nodetypes="ccccc" />
    <path
       d="M 70.496118,3.2256058 L 10.511198,3.2256058 L 10.698277,10.971276 C 8.2131762,20.672097 7.7171883,32.152650 10.466596,40.073738 L 10.421993,74.409307 L 69.174133,74.543439 L 70.496118,3.2256058 z "
       id="path146"
       style="fill:url(#linearGradient1101);fill-opacity:1.0000000"
       sodipodi:nodetypes="ccccccc" />
    <path
       d="M 70.649963,9.7427222 L 70.649963,3.0486252 L 10.476004,3.0486252 L 10.658379,10.813082 C 7.9623299,20.938926 7.7788443,30.122558 10.421993,41.818754 C 33.536049,49.764241 66.992767,29.711949 70.649963,9.7427222 z "
       id="path195"
       style="fill:url(#radialGradient1100);fill-opacity:1.0000000"
       sodipodi:nodetypes="cccccc" />
    <path
       d="M 72.089418,2.1560410 C 72.089418,3.0094395 72.012435,75.488879 72.012435,75.844677 C 71.777564,76.094348 9.8949462,75.987792 9.0937773,75.987792 C 9.0937773,75.774227 9.0937773,71.106406 9.0937773,64.211457 C 9.0937773,57.316509 9.0937773,48.194432 9.0937773,39.072356 C 6.4765233,32.358153 6.3718331,24.387667 9.0937773,13.933252 C 9.0937773,7.0383021 9.0937773,2.3704795 9.0937773,2.1569117 C 9.8965782,2.1560410 71.287431,2.1560410 72.089418,2.1560410 z M 72.498582,1.2861105 L 8.2754359,1.2861105 L 8.3801261,14.734908 C 5.8675622,20.090259 5.0300409,32.459851 8.2754359,39.071483 L 8.2754359,57.964170 L 8.2754359,76.856856 L 72.758937,76.793118 L 72.907759,1.2861105 L 72.498582,1.2861105 z "
       id="path225"
       style="fill:url(#linearGradient1102);fill-opacity:1.0000000"
       sodipodi:nodetypes="cccsccccccccccccc" />
  </g>
  <g
     id="g1087">
    <defs
       id="defs1088">
      <radialGradient
         inkscape:collect="always"
         xlink:href="#light100to0"
         id="radialGradient16512"
         gradientUnits="userSpaceOnUse"
         gradientTransform="scale(1.091687,0.916013)"
         cx="188.63550"
         cy="268.59674"
         fx="188.63550"
         fy="268.59674"
         r="9.7014513" />
      <radialGradient
         inkscape:collect="always"
         xlink:href="#light100to0"
         id="radialGradient16511"
         gradientUnits="userSpaceOnUse"
         gradientTransform="scale(1.091687,0.916013)"
         cx="214.42342"
         cy="290.09976"
         fx="214.42342"
         fy="290.09976"
         r="12.433510" />
      <radialGradient
         inkscape:collect="always"
         xlink:href="#light100to0"
         id="radialGradient16510"
         gradientUnits="userSpaceOnUse"
         gradientTransform="matrix(1.000044,-1.645111e-16,2.466014e-16,0.999956,2.867499,4.411538)"
         cx="119.82000"
         cy="189.74400"
         fx="119.82000"
         fy="189.74400"
         r="19.273544" />
      <linearGradient
         id="light100to0">
        <stop
           style="stop-color:#ffffff;stop-opacity:1.0000000;"
           offset="0.0000000"
           id="stop2764" />
        <stop
           style="stop-color:#ffffff;stop-opacity:0.0000000;"
           offset="1.0000000"
           id="stop2765" />
      </linearGradient>
      <radialGradient
         inkscape:collect="always"
         xlink:href="#light100to0"
         id="radialGradient16509"
         gradientUnits="userSpaceOnUse"
         gradientTransform="matrix(1.000008,-1.645052e-16,2.466098e-16,0.999992,2.867499,4.411538)"
         cx="138.89362"
         cy="213.82373"
         fx="138.89362"
         fy="213.82373"
         r="39.210377" />
      <linearGradient
         inkscape:collect="always"
         xlink:href="#bludraktowhite"
         id="linearGradient16508"
         gradientUnits="userSpaceOnUse"
         gradientTransform="translate(105.3574,127.9028)"
         x1="46.857899"
         y1="16.026899"
         x2="74.079002"
         y2="96.393501" />
      <linearGradient
         inkscape:collect="always"
         xlink:href="#bludraktowhite"
         id="linearGradient16507"
         gradientUnits="userSpaceOnUse"
         gradientTransform="translate(130.5820,-13.89784)"
         x1="35.909039"
         y1="162.89215"
         x2="-20.139322"
         y2="328.53357" />
      <linearGradient
         inkscape:collect="always"
         xlink:href="#bludraktowhite"
         id="linearGradient16506"
         gradientUnits="userSpaceOnUse"
         gradientTransform="matrix(0.694498,0.721211,-0.684455,0.729107,202.5721,-11.25625)"
         spreadMethod="reflect"
         x1="73.415047"
         y1="231.74817"
         x2="82.103157"
         y2="224.47372" />
      <linearGradient
         inkscape:collect="always"
         xlink:href="#bludraktowhite"
         id="linearGradient16505"
         gradientUnits="userSpaceOnUse"
         gradientTransform="matrix(-7.139059e-3,-1.025530,0.975067,-5.544949e-3,202.5721,-11.25625)"
         spreadMethod="reflect"
         x1="-216.41075"
         y1="-112.04543"
         x2="-218.18871"
         y2="-135.79361" />
      <linearGradient
         id="light90to0">
        <stop
           style="stop-color:#ffffff;stop-opacity:0.90833336;"
           offset="0.0000000"
           id="stop1890" />
        <stop
           style="stop-color:#ffffff;stop-opacity:0.0000000;"
           offset="1.0000000"
           id="stop1892" />
      </linearGradient>
      <linearGradient
         inkscape:collect="always"
         xlink:href="#light90to0"
         id="linearGradient16504"
         gradientUnits="userSpaceOnUse"
         gradientTransform="matrix(0.890379,0.884594,-0.449428,0.456348,166.9975,-25.20896)"
         spreadMethod="reflect"
         x1="111.32960"
         y1="386.09204"
         x2="112.91872"
         y2="367.41110" />
      <linearGradient
         inkscape:collect="always"
         xlink:href="#bludraktowhite"
         id="linearGradient16503"
         gradientUnits="userSpaceOnUse"
         gradientTransform="matrix(1.143288,1.132316,-0.436455,0.442401,145.1861,-46.53600)"
         spreadMethod="reflect"
         x1="110.12445"
         y1="398.06821"
         x2="110.54198"
         y2="381.73886" />
      <linearGradient
         id="orangetoyelow">
        <stop
           style="stop-color:#ff7d00;stop-opacity:1.0000000;"
           offset="0.0000000"
           id="stop2661" />
        <stop
           style="stop-color:#ffff00;stop-opacity:1.0000000;"
           offset="1.0000000"
           id="stop2662" />
      </linearGradient>
      <linearGradient
         inkscape:collect="always"
         xlink:href="#orangetoyelow"
         id="linearGradient16502"
         gradientUnits="userSpaceOnUse"
         gradientTransform="matrix(1.100272,1.089712,-0.446169,0.452247,142.1597,-43.39595)"
         spreadMethod="reflect"
         x1="113.97564"
         y1="367.68045"
         x2="113.61272"
         y2="382.32303" />
      <linearGradient
         inkscape:collect="always"
         xlink:href="#bludraktowhite"
         id="linearGradient16501"
         gradientUnits="userSpaceOnUse"
         gradientTransform="matrix(0.715001,0.699124,-0.699124,0.715001,145.1861,-46.53600)"
         x1="144.50417"
         y1="249.54593"
         x2="162.24979"
         y2="245.98344" />
      <radialGradient
         inkscape:collect="always"
         xlink:href="#bludraktowhite"
         id="radialGradient16500"
         gradientUnits="userSpaceOnUse"
         gradientTransform="matrix(0.715001,0.699124,-0.699124,0.715001,145.1861,-46.53600)"
         cx="154.87000"
         cy="248.76897"
         fx="154.87000"
         fy="248.76897"
         r="8.9088030" />
      <linearGradient
         inkscape:collect="always"
         xlink:href="#bludraktowhite"
         id="linearGradient16499"
         gradientUnits="userSpaceOnUse"
         gradientTransform="matrix(0.715001,0.699124,-0.699124,0.715001,145.1861,-46.53600)"
         x1="187.21997"
         y1="246.31511"
         x2="200.85158"
         y2="246.31511" />
      <radialGradient
         inkscape:collect="always"
         xlink:href="#bludraktowhite"
         id="radialGradient16498"
         gradientUnits="userSpaceOnUse"
         gradientTransform="matrix(0.715001,0.699124,-0.699124,0.715001,145.1861,-46.53600)"
         cx="196.46024"
         cy="248.85941"
         fx="196.46024"
         fy="248.85941"
         r="6.7950330" />
      <linearGradient
         inkscape:collect="always"
         xlink:href="#bludraktowhite"
         id="linearGradient16497"
         gradientUnits="userSpaceOnUse"
         gradientTransform="matrix(1.041174,-1.135939e-16,8.784529e-17,0.960454,0.356520,-0.237680)"
         spreadMethod="reflect"
         x1="74.778839"
         y1="244.09380"
         x2="78.151619"
         y2="241.11296" />
      <linearGradient
         id="bludraktowhite"
         gradientUnits="userSpaceOnUse"
         x1="33.332001"
         y1="10.305200"
         x2="33.332001"
         y2="91.407700">
        <linearGradient
           id="bluedrklighttowite"
           gradientUnits="userSpaceOnUse"
           x1="33.332001"
           y1="10.305200"
           x2="33.332001"
           y2="91.407700"
           spreadMethod="pad"
           xlink:href="#linearGradient6373" />
        <stop
           offset="0"
           style="stop-color:rgb(255,255,255)"
           id="stop7271" />
        <stop
           offset="1"
           style="stop-color:rgb(84,84,119)"
           id="stop7273" />
      </linearGradient>
      <linearGradient
         inkscape:collect="always"
         xlink:href="#bludraktowhite"
         id="linearGradient16496"
         gradientUnits="userSpaceOnUse"
         gradientTransform="matrix(-0.736250,-0.679117,0.736250,-0.679117,0.356520,-0.237680)"
         spreadMethod="reflect"
         x1="-226.05598"
         y1="-119.62550"
         x2="-225.67094"
         y2="-124.01011" />
    </defs>
    <sodipodi:namedview
       id="namedview1119"
       pagecolor="#ffffff"
       bordercolor="#666666"
       borderopacity="1.0"
       inkscape:pageopacity="0.0"
       inkscape:pageshadow="2"
       inkscape:zoom="5.5000000"
       inkscape:cx="41.486167"
       inkscape:cy="32.633256"
       inkscape:current-layer="layer1"
       showgrid="true"
       inkscape:grid-bbox="true"
       gridspacingy="1.0000000pt"
       gridspacingx="1.0000000pt"
       gridoriginy="0.0000000pt"
       gridoriginx="0.0000000pt"
       inkscape:window-width="776"
       inkscape:window-height="538"
       inkscape:window-x="0"
       inkscape:window-y="25" />
    <metadata
       id="metadata1120">
      <rdf:RDF
         id="RDF1121">
        <cc:Work
           rdf:about=""
           id="Work1122">
          <dc:format
             id="format1123">image/svg+xml</dc:format>
          <dc:type
             id="type1125"
             rdf:resource="http://purl.org/dc/dcmitype/StillImage" />
        </cc:Work>
      </rdf:RDF>
    </metadata>
    <g
       id="g1126"
       inkscape:label="Layer 1"
       inkscape:groupmode="layer">
      <g
         id="g16474"
         transform="matrix(0.859766,-0.105154,9.403050e-2,0.859307,-143.8938,-147.4602)">
        <g
           id="g15800"
           transform="matrix(0.779957,-0.625833,0.625833,0.779957,-17.50572,141.4972)">
          <g
             id="g15768"
             transform="matrix(0.704960,0.718152,-0.708598,0.696660,206.3959,-3.626738)">
            <path
               d="M 77.173703,229.36644 L 83.121148,232.95704 L 78.952845,238.03935 L 74.923951,231.44564 L 77.173703,229.36644 z "
               id="path15144"
               style="fill:url(#linearGradient16496);fill-opacity:1.0000000;stroke:url(#linearGradient16497);stroke-linejoin:round"
               sodipodi:nodetypes="ccccc" />
            <path
               style="fill:url(#radialGradient16498);fill-opacity:1.0000000;stroke:url(#linearGradient16499);stroke-width:1.0000004;stroke-miterlimit:4.0000000"
               d="M 106.86992,260.44276 C 109.51466,257.76460 113.83160,257.73994 116.50877,260.38771 C 119.18392,263.03347 119.20858,267.34939 116.56382,270.02655 C 113.91706,272.70371 109.60013,272.72837 106.92497,270.08159 C 104.24780,267.43385 104.22316,263.11891 106.86992,260.44276 z "
               id="path5115" />
            <path
               style="fill:url(#radialGradient16500);fill-opacity:1.0000000;stroke:url(#linearGradient16501);stroke-width:1.0000004;stroke-miterlimit:4.0000000"
               d="M 80.443428,234.34658 C 83.088174,231.66842 87.405108,231.64376 90.082284,234.29153 C 92.757436,236.93729 92.782090,241.25322 90.137333,243.93037 C 87.490574,246.60753 83.173640,246.63219 80.498484,243.98541 C 77.821308,241.33767 77.796672,237.02273 80.443428,234.34658 z "
               id="path7623" />
            <path
               style="fill:url(#linearGradient16502);fill-opacity:1.0000000;stroke:url(#linearGradient16503);stroke-width:1.6489712;stroke-linecap:butt;stroke-linejoin:round;stroke-miterlimit:4.0000000;stroke-dashoffset:0.0000000;stroke-opacity:1.0000000"
               d="M 91.230506,234.23603 L 116.44332,259.20686 C 117.27173,260.02733 117.36703,261.26725 116.65698,261.98697 L 108.45354,270.30217 C 107.74349,271.02188 106.50495,270.94078 105.67654,270.12031 L 80.463725,245.14948 C 79.635310,244.32901 79.540014,243.08909 80.250060,242.36937 L 88.453505,234.05418 C 89.163551,233.33446 90.402090,233.41556 91.230506,234.23603 z "
               id="rect5114" />
            <path
               style="fill:url(#linearGradient16504);fill-opacity:1.0000000;stroke:none;stroke-width:1.6489741;stroke-linecap:butt;stroke-linejoin:round;stroke-miterlimit:4.0000000;stroke-dashoffset:0.0000000;stroke-opacity:1.0000000"
               d="M 91.219594,234.22983 L 99.066197,241.95438 C 99.893309,242.77612 106.48229,268.09483 93.491733,258.20133 L 80.462414,245.15265 C 79.635302,244.33091 79.540539,243.08946 80.249948,242.36913 L 88.446095,234.04679 C 89.155497,233.32646 90.392482,233.40810 91.219594,234.22983 z "
               id="rect8247" />
          </g>
          <path
             d="M 103.69119,207.48535 L 103.72634,212.63617 L 90.526997,212.71122 L 90.491157,207.56114 L 103.69119,207.48535 z "
             id="path478"
             style="fill:url(#linearGradient16505);fill-opacity:1.0000000;stroke:url(#linearGradient16506);stroke-linejoin:round" />
        </g>
        <g
           id="g16461">
          <g
             id="g15819"
             transform="matrix(0.831041,0.000000,0.000000,0.860430,32.66203,58.96679)">
            <path
               d="M 168.09293,157.77530 C 149.85193,157.77530 135.06393,172.56130 135.06393,190.80430 C 135.06393,209.04530 149.85193,223.83230 168.09293,223.83230 C 186.33393,223.83230 201.12093,209.04530 201.12093,190.80430 C 201.12193,172.56030 186.33493,157.77230 168.09293,157.77530 M 168.09293,218.72130 C 152.69793,218.72230 140.17293,206.19830 140.17293,190.80230 C 140.17293,175.40830 152.69793,162.88230 168.09293,162.88230 C 183.48693,162.88230 196.01193,175.40830 196.01193,190.80230 C 196.01193,206.19830 183.48693,218.72130 168.09293,218.72130 z "
               id="path518"
               style="fill:url(#linearGradient16507);fill-opacity:1.0000000" />
            <path
               d="M 133.96943,190.80480 C 133.96943,209.61880 149.27643,224.92780 168.09343,224.92780 C 186.90843,224.92780 202.21743,209.61880 202.21543,190.80480 C 202.21543,171.98880 186.90843,156.67980 168.09343,156.67980 C 149.27643,156.68080 133.96943,171.98880 133.96943,190.80480 M 136.15843,190.80480 C 136.15843,173.19480 150.48343,158.86980 168.09243,158.86980 C 185.70043,158.86980 200.02543,173.19480 200.02543,190.80480 C 200.02543,208.41080 185.70143,222.73780 168.09243,222.73780 C 150.48343,222.73780 136.15843,208.41480 136.15843,190.80480 z "
               id="path533"
               style="fill:url(#linearGradient16508);fill-opacity:1.0000000" />
            <g
               id="g13264"
               transform="translate(40.14399,-10.58719)">
              <path
                 clip-rule="evenodd"
                 d="M 158.74944,201.39149 C 158.74944,218.40249 144.95644,232.19149 127.94744,232.19149 C 110.93744,232.19149 97.147441,218.40249 97.147441,201.39249 C 97.147441,184.38149 110.93744,170.59049 127.94744,170.59049 C 144.95644,170.59049 158.74944,184.38249 158.74944,201.39149 z "
                 id="path554"
                 style="opacity:0.73000002;fill:#007ebb;fill-opacity:0.10389609;fill-rule:evenodd" />
              <path
                 d="M 106.32344,203.97649 C 106.32344,189.92749 117.35044,178.53749 130.95244,178.53749 C 144.55244,178.53749 155.57944,189.92749 155.57944,203.97649 C 155.57944,204.58149 155.55244,205.17849 155.51344,205.77349 C 155.76544,204.23949 155.90444,202.66549 155.90444,201.06049 C 155.90444,185.22149 143.06444,172.38149 127.22544,172.38149 C 111.38744,172.38149 98.546441,185.22049 98.546441,201.06049 C 98.546441,216.90049 111.38644,229.73849 127.22544,229.73849 C 128.73444,229.73849 130.21644,229.62249 131.66344,229.39649 C 131.42744,229.40349 131.19044,229.41649 130.95344,229.41649 C 117.35044,229.41649 106.32344,218.02549 106.32344,203.97649 z "
                 id="path575"
                 style="opacity:0.49999997;fill:#007ebb;fill-opacity:0.10389609" />
              <path
                 d="M 118.57444,176.27049 C 109.48544,176.27049 102.11644,183.63949 102.11644,192.72749 C 102.11644,201.81649 109.48544,209.18549 118.57444,209.18549 C 127.66244,209.18549 135.03144,201.81649 135.03144,192.72749 C 135.03044,183.63849 127.66244,176.27049 118.57444,176.27049 M 120.01744,207.74049 C 112.68144,207.74049 106.73644,201.79549 106.73644,194.45949 C 106.73644,187.12549 112.68044,181.17849 120.01744,181.17849 C 127.35144,181.17849 133.29744,187.12549 133.29744,194.45949 C 133.29744,201.79549 127.35144,207.74049 120.01744,207.74049 z "
                 id="path598"
                 style="opacity:0.49999997;fill:#007ebb;fill-opacity:0.10389609" />
              <path
                 d="M 126.44644,189.07949 C 126.44644,195.29949 121.40444,200.33849 115.18444,200.33849 C 108.96644,200.33849 103.92444,195.29949 103.92444,189.07949 C 103.92444,182.85949 108.96644,177.81849 115.18444,177.81849 C 121.40444,177.81949 126.44644,182.85949 126.44644,189.07949 z "
                 id="path620"
                 style="opacity:0.49999997;fill:#007ebb;fill-opacity:0.10389609" />
              <path
                 clip-rule="evenodd"
                 d="M 158.74944,201.39149 C 158.74944,218.40249 144.95644,232.19149 127.94744,232.19149 C 110.93744,232.19149 97.147441,218.40249 97.147441,201.39249 C 97.147441,184.38149 110.93744,170.59049 127.94744,170.59049 C 144.95644,170.59049 158.74944,184.38249 158.74944,201.39149 z "
                 id="path12629"
                 style="opacity:0.73000002;fill:url(#radialGradient16509);fill-opacity:1.0000000;fill-rule:evenodd" />
              <path
                 d="M 126.44644,189.07949 C 126.44644,195.29949 121.40444,200.33849 115.18444,200.33849 C 108.96644,200.33849 103.92444,195.29949 103.92444,189.07949 C 103.92444,182.85949 108.96644,177.81849 115.18444,177.81849 C 121.40444,177.81949 126.44644,182.85949 126.44644,189.07949 z "
                 id="path13255"
                 style="opacity:0.49999997;fill:url(#radialGradient16510);fill-opacity:1.0000000;stroke:none" />
            </g>
          </g>
          <path
             sodipodi:type="arc"
             style="fill:url(#radialGradient16511);fill-opacity:1.0000000;stroke:none;stroke-width:1.0000000;stroke-linecap:butt;stroke-linejoin:round;stroke-miterlimit:4.0000000;stroke-dashoffset:0.0000000;stroke-opacity:1.0000000"
             id="path15833"
             sodipodi:cx="220.33757"
             sodipodi:cy="256.43384"
             sodipodi:rx="21.808155"
             sodipodi:ry="18.298798"
             d="M 242.14573 256.43384 A 21.808155 18.298798 0 1 1  198.52942,256.43384 A 21.808155 18.298798 0 1 1  242.14573 256.43384 z"
             transform="matrix(1.000000,0.000000,0.000000,1.082192,-45.12032,-49.15162)" />
          <path
             sodipodi:type="arc"
             style="fill:url(#radialGradient16512);fill-opacity:1.0000000;stroke:none;stroke-width:1.0000000;stroke-linecap:butt;stroke-linejoin:round;stroke-miterlimit:4.0000000;stroke-dashoffset:0.0000000;stroke-opacity:1.0000000"
             id="path16459"
             sodipodi:cx="220.33757"
             sodipodi:cy="256.43384"
             sodipodi:rx="21.808155"
             sodipodi:ry="18.298798"
             d="M 242.14573 256.43384 A 21.808155 18.298798 0 1 1  198.52942,256.43384 A 21.808155 18.298798 0 1 1  242.14573 256.43384 z"
             transform="matrix(1.000000,0.000000,0.000000,1.082192,-49.63235,-61.68505)" />
        </g>
      </g>
    </g>
  </g>
</svg>
