<?xml version="1.0" encoding="UTF-8" standalone="no"?>
<!-- Created with Inkscape (http://www.inkscape.org/) -->
<svg
   xmlns:dc="http://purl.org/dc/elements/1.1/"
   xmlns:cc="http://web.resource.org/cc/"
   xmlns:rdf="http://www.w3.org/1999/02/22-rdf-syntax-ns#"
   xmlns:svg="http://www.w3.org/2000/svg"
   xmlns="http://www.w3.org/2000/svg"
   xmlns:xlink="http://www.w3.org/1999/xlink"
   xmlns:sodipodi="http://inkscape.sourceforge.net/DTD/sodipodi-0.dtd"
   xmlns:inkscape="http://www.inkscape.org/namespaces/inkscape"
   inkscape:export-ydpi="45.000000"
   inkscape:export-xdpi="45.000000"
   inkscape:export-filename="/home/pinheiro/artwork/oooicons/crystalsvg/fontworkgalleryfloater.png"
   sodipodi:docname="fontworkgalleryfloater.svg"
   sodipodi:docbase="/home/pinheiro/artwork/oooicons/crystalsvg"
   inkscape:version="0.41"
   sodipodi:version="0.32"
   id="svg2191"
   height="64px"
   width="64px">
  <defs
     id="defs3">
    <linearGradient
       spreadMethod="reflect"
       inkscape:collect="always"
       xlink:href="#linearGradient5170"
       id="linearGradient1650"
       gradientUnits="userSpaceOnUse"
       gradientTransform="matrix(1.655797e-2,0.362139,2.761529,3.456596e-3,0.000000,0.000000)"
       x1="15.168889"
       y1="9.5085917"
       x2="293.27637"
       y2="10.126652" />
    <linearGradient
       id="linearGradient5170">
      <stop
         style="stop-color:#8f8fa6;stop-opacity:1.0000000;"
         offset="0.0000000"
         id="stop5171" />
      <stop
         style="stop-color:#ffffff;stop-opacity:1.0000000;"
         offset="1.0000000"
         id="stop5172" />
    </linearGradient>
    <linearGradient
       inkscape:collect="always"
       xlink:href="#linearGradient5170"
       id="linearGradient1648"
       gradientUnits="userSpaceOnUse"
       gradientTransform="matrix(1.655512e-2,0.362138,2.761536,3.456660e-3,0.000000,0.000000)"
       spreadMethod="reflect"
       x1="217.72832"
       y1="-61.558506"
       x2="89.656677"
       y2="14.561689" />
    <linearGradient
       id="light100to0">
      <stop
         id="stop2764"
         offset="0.0000000"
         style="stop-color:#ffffff;stop-opacity:1.0000000;" />
      <stop
         id="stop2765"
         offset="1.0000000"
         style="stop-color:#ffffff;stop-opacity:0.0000000;" />
    </linearGradient>
    <linearGradient
       y2="20.639454"
       x2="22.055750"
       y1="14.989618"
       x1="16.571110"
       gradientTransform="matrix(0.747904,0.000000,0.000000,1.337069,32.72551,15.55860)"
       gradientUnits="userSpaceOnUse"
       id="linearGradient1357"
       xlink:href="#light100to0"
       inkscape:collect="always" />
    <radialGradient
       r="15.114624"
       fy="25.032576"
       fx="4.9207430"
       cy="25.032576"
       cx="4.9207430"
       spreadMethod="pad"
       gradientTransform="matrix(0.743482,0.000000,0.000000,0.994353,37.22108,49.43784)"
       gradientUnits="userSpaceOnUse"
       id="radialGradient1355"
       xlink:href="#light75to0"
       inkscape:collect="always" />
    <radialGradient
       r="18.125183"
       fy="23.816051"
       fx="36.944202"
       cy="23.816051"
       cx="36.944202"
       spreadMethod="pad"
       gradientTransform="matrix(0.743482,0.000000,0.000000,0.994353,37.22108,49.43784)"
       gradientUnits="userSpaceOnUse"
       id="radialGradient1353"
       xlink:href="#light75to0"
       inkscape:collect="always" />
    <linearGradient
       id="light75to0">
      <stop
         id="stop2769"
         offset="0.0000000"
         style="stop-color:#ffffff;stop-opacity:0.72916669;" />
      <stop
         id="stop2770"
         offset="1.0000000"
         style="stop-color:#ffffff;stop-opacity:0.0000000;" />
    </linearGradient>
    <linearGradient
       y2="22.997499"
       x2="18.245001"
       y1="-7.3836527"
       x1="14.859878"
       spreadMethod="reflect"
       gradientTransform="matrix(0.753683,0.000000,0.000000,0.980895,37.22108,49.43784)"
       gradientUnits="userSpaceOnUse"
       id="linearGradient1351"
       xlink:href="#light75to0"
       inkscape:collect="always" />
    <linearGradient
       gradientUnits="userSpaceOnUse"
       y2="68.532852"
       x2="53.496574"
       y1="4.7211132"
       x1="3.9579742"
       gradientTransform="matrix(1.027205,0.000000,0.000000,0.973515,0.545455,0.630805)"
       id="linearGradient3747"
       xlink:href="#light100to0"
       inkscape:collect="always" />
  </defs>
  <sodipodi:namedview
     inkscape:window-y="391"
     inkscape:window-x="0"
     inkscape:window-height="536"
     inkscape:window-width="640"
     inkscape:grid-bbox="true"
     inkscape:document-units="px"
     showgrid="true"
     inkscape:current-layer="layer1"
     inkscape:cy="32.000000"
     inkscape:cx="32.000000"
     inkscape:zoom="5.5000000"
     inkscape:pageshadow="2"
     inkscape:pageopacity="0.0"
     borderopacity="1.0"
     bordercolor="#666666"
     pagecolor="#ffffff"
     id="base" />
  <metadata
     id="metadata4">
    <rdf:RDF
       id="RDF5">
      <cc:Work
         id="Work6"
         rdf:about="">
        <dc:format
           id="format7">image/svg+xml</dc:format>
        <dc:type
           rdf:resource="http://purl.org/dc/dcmitype/StillImage"
           id="type9" />
      </cc:Work>
    </rdf:RDF>
  </metadata>
  <g
     inkscape:groupmode="layer"
     inkscape:label="Layer 1"
     id="layer1">
    <path
       style="opacity:1.0000000;fill:url(#linearGradient1648);fill-opacity:1.0;fill-rule:evenodd;stroke:url(#linearGradient1650);stroke-width:4.2430892;stroke-linecap:butt;stroke-linejoin:round;stroke-miterlimit:4.0000000;stroke-opacity:1.0000000"
       d="M 9.8657105,9.7321072 C 14.551261,9.7257815 14.804631,9.7189001 17.274088,9.7122966 C 19.743548,9.7056931 22.213008,9.6990896 24.682468,9.6924861 C 27.151928,9.6858826 29.621387,9.6792791 32.090847,9.6726756 C 34.560307,9.6660720 37.029766,9.6594696 39.499226,9.6528650 C 41.968686,9.6462615 44.438145,9.6396590 46.907605,9.6330555 C 49.377065,9.6264510 51.214617,9.7172279 54.315985,9.6132450 C 57.417351,9.5092610 61.735570,12.924937 61.744140,15.471927 C 61.752708,18.018917 61.757324,19.390922 61.763915,21.350418 C 61.770507,23.309916 61.777100,25.269413 61.783692,27.228911 C 61.790284,29.188407 61.796876,31.147906 61.803469,33.107403 C 61.810060,35.066900 61.816652,37.026398 61.823244,38.985895 C 61.829836,40.945392 61.836429,42.904890 61.843021,44.864387 C 61.849612,46.823884 61.856201,44.884749 61.862796,50.742879 C 61.869389,56.597569 61.961348,56.833000 54.417850,56.646677 C 47.084989,56.460352 49.441368,56.663547 46.953127,56.671982 C 44.464886,56.680417 41.976645,56.688852 39.488405,56.697288 C 37.000164,56.705722 34.511924,56.714158 32.023682,56.722592 C 29.535441,56.731028 27.047201,56.739463 24.558959,56.747898 C 22.070719,56.756333 19.582478,56.764769 17.094237,56.773203 C 14.605996,56.781639 16.965663,56.790070 9.6295139,56.798509 C 2.2966521,56.806944 2.1891694,57.185867 2.2013586,50.939826 C 2.2135478,44.888546 2.2257369,47.017170 2.2379262,45.055840 C 2.2501152,43.094510 2.2623044,41.133182 2.2744937,39.171853 C 2.2866828,37.210524 2.2988720,35.249195 2.3110613,33.287865 C 2.3232504,31.326536 2.3354396,29.365208 2.3476287,27.403878 C 2.3598180,25.442549 2.3720072,23.481220 2.3841963,21.519891 C 2.3963856,19.558563 2.4049228,18.379632 2.4207639,15.635903 C 2.4366053,13.086936 4.9739405,9.7387107 9.8657105,9.7321072 z "
       id="path1404"
       sodipodi:nodetypes="czzzzzzzzzzzzzzzzzzzzzzzzzzzz" />
    <path
       sodipodi:nodetypes="csscc"
       id="path2981"
       d="M 50.181819,10.085351 C 41.515152,9.8732294 48.119156,10.115897 9.4545454,10.176260 C 5.5146534,10.182411 2.5197790,13.915435 2.5454545,16.085350 C 2.9930578,53.913677 2.7272727,45.479290 2.7272727,54.994441 C 16.242425,29.903532 54.121213,24.085350 50.181819,10.085351 z "
       style="opacity:0.53754941;stroke-opacity:1.0000000;stroke-linejoin:miter;stroke-linecap:butt;stroke-width:1.0000000px;stroke:none;fill-rule:evenodd;fill-opacity:1.0000000;fill:url(#linearGradient3747)" />
    <g
       transform="matrix(0.822736,0.000000,0.000000,0.804357,-12.72005,-7.411107)"
       id="g1344">
      <path
         style="font-size:12.000000;font-style:normal;font-weight:normal;fill:#000000;fill-opacity:1.0000000;stroke:#000000;stroke-width:2.6482327;stroke-linecap:round;stroke-linejoin:round;stroke-miterlimit:4.0000000;stroke-opacity:1.0000000;font-family:Bitstream Vera Sans"
         d="M 52.363636,33.515213 L 45.408733,56.626571 L 59.343922,56.626571 L 52.363636,33.515213 M 49.469990,27.325223 L 55.282664,27.325223 L 69.725511,73.765686 L 64.395110,73.765686 L 60.943042,61.852290 L 43.860379,61.852290 L 40.408310,73.765686 L 35.001762,73.765686 L 49.469990,27.325223"
         id="text1310" />
      <path
         style="font-size:12.000000;font-style:normal;font-weight:normal;opacity:0.93675888;fill:url(#linearGradient1351);fill-opacity:1.0000000;stroke:none;stroke-width:0.28000000;stroke-linecap:round;stroke-linejoin:round;stroke-miterlimit:4.0000000;stroke-opacity:1.0000000;font-family:Bitstream Vera Sans"
         d="M 52.363636,33.515213 L 45.408733,56.626571 L 59.343922,56.626571 L 52.363636,33.515213 M 49.469990,27.325223 L 55.282664,27.325223 L 69.725511,73.765686 L 64.395110,73.765686 L 60.943042,61.852290 L 43.860379,61.852290 L 40.408310,73.765686 L 35.001762,73.765686 L 49.469990,27.325223"
         id="path2845" />
      <path
         style="font-size:12.000000;font-style:normal;font-weight:normal;fill:url(#radialGradient1353);fill-opacity:1.0000000;stroke:none;stroke-width:0.28000000;stroke-linecap:round;stroke-linejoin:round;stroke-miterlimit:4.0000000;stroke-opacity:1.0000000;font-family:Bitstream Vera Sans"
         d="M 52.363636,33.515213 L 45.408733,56.626571 L 59.343922,56.626571 L 52.363636,33.515213 M 49.469990,27.325223 L 55.282664,27.325223 L 70.734970,74.201468 L 63.742612,74.329050 L 60.059988,62.343410 L 44.934820,62.288841 L 40.850727,73.874823 L 34.369737,73.711117 L 49.469990,27.325223"
         id="path2863"
         sodipodi:nodetypes="ccccccccccccc" />
      <path
         style="font-size:12.000000;font-style:normal;font-weight:normal;fill:url(#radialGradient1355);fill-opacity:1.0000000;stroke:none;stroke-width:0.28000000;stroke-linecap:round;stroke-linejoin:round;stroke-miterlimit:4.0000000;stroke-opacity:1.0000000;font-family:Bitstream Vera Sans"
         d="M 52.363636,33.515213 L 45.408733,56.626571 L 59.343922,56.626571 L 52.363636,33.515213 M 49.469990,27.325223 L 55.282664,27.325223 L 70.734970,74.201468 L 63.742612,74.329050 L 60.059988,62.343410 L 44.492403,62.288841 L 41.103537,74.311374 L 34.053725,74.311374 L 49.469990,27.325223"
         id="path3625"
         sodipodi:nodetypes="ccccccccccccc" />
      <path
         style="fill:url(#linearGradient1357);fill-opacity:1.0000000;fill-rule:evenodd;stroke:none;stroke-width:1.0000000px;stroke-linecap:butt;stroke-linejoin:miter;stroke-opacity:1.0000000"
         d="M 55.512519,26.662154 C 53.917052,26.456958 51.805310,26.537612 50.234702,26.558602 C 49.655671,26.566340 48.927513,26.996958 48.725511,27.558602 C 45.091116,37.663624 42.058845,48.225269 38.725511,58.558602 C 42.839663,58.926371 45.429006,41.292311 49.725511,33.558602 C 50.429006,32.292311 52.675235,32.534254 53.725511,31.558602 C 54.828207,30.534254 56.804374,26.828301 55.512519,26.662154 z "
         id="path3629"
         sodipodi:nodetypes="csscsss" />
    </g>
  </g>
</svg>
