<?xml version="1.0" encoding="UTF-8" standalone="no"?>
<!-- Created with Inkscape (http://www.inkscape.org/) -->
<svg
   xmlns:dc="http://purl.org/dc/elements/1.1/"
   xmlns:cc="http://web.resource.org/cc/"
   xmlns:rdf="http://www.w3.org/1999/02/22-rdf-syntax-ns#"
   xmlns:svg="http://www.w3.org/2000/svg"
   xmlns="http://www.w3.org/2000/svg"
   xmlns:xlink="http://www.w3.org/1999/xlink"
   xmlns:sodipodi="http://inkscape.sourceforge.net/DTD/sodipodi-0.dtd"
   xmlns:inkscape="http://www.inkscape.org/namespaces/inkscape"
   inkscape:export-ydpi="45.000000"
   inkscape:export-xdpi="45.000000"
   inkscape:export-filename="/home/pinheiro/kdeplayground-artwork/oooicons/crystalsvg/formproperties.png"
   sodipodi:docname="formproperties.svg"
   sodipodi:docbase="/home/pinheiro/kdeplayground-artwork/oooicons/crystalsvg"
   inkscape:version="0.41"
   sodipodi:version="0.32"
   id="svg10375"
   height="64px"
   width="64px">
  <defs
     id="defs3">
    <linearGradient
       id="garylighttowite">
      <stop
         style="stop-color:#7d7d7d;stop-opacity:1.0000000;"
         offset="0.0000000"
         id="stop5106" />
      <stop
         style="stop-color:#d3d4d4;stop-opacity:1.0000000;"
         offset="1.0000000"
         id="stop5107" />
    </linearGradient>
    <linearGradient
       y2="179.33521"
       x2="44.318043"
       y1="129.56383"
       x1="15.147017"
       gradientTransform="matrix(1.266634,0.000000,0.000000,0.949648,14.51170,-99.69891)"
       gradientUnits="userSpaceOnUse"
       id="linearGradient7994"
       xlink:href="#garylighttowite"
       inkscape:collect="always" />
    <linearGradient
       y2="118.47764"
       x2="11.815157"
       y1="163.81963"
       x1="40.150562"
       spreadMethod="reflect"
       gradientTransform="matrix(1.284701,0.000000,0.000000,0.936296,14.51168,-99.69891)"
       gradientUnits="userSpaceOnUse"
       id="linearGradient7996"
       xlink:href="#graytolightgray"
       inkscape:collect="always" />
    <radialGradient
       r="24.045961"
       fy="271.80869"
       fx="5.1258984"
       cy="271.80869"
       cx="5.1258984"
       gradientTransform="matrix(3.040406,0.000000,0.000000,0.462115,13.93425,-113.7856)"
       gradientUnits="userSpaceOnUse"
       id="radialGradient7998"
       xlink:href="#bluelignonlinblu"
       inkscape:collect="always" />
    <radialGradient
       gradientUnits="userSpaceOnUse"
       id="bluelignonlinblu"
       fy="112.96090"
       fx="38.797401"
       r="67.358803"
       cy="112.96090"
       cx="38.797401">
      <stop
         id="stop84"
         offset="0.0055999998"
         style="stop-color:#d9ffff;stop-opacity:1.0000000;" />
      <stop
         id="stop86"
         offset="0.13480000"
         style="stop-color:#95d9ff;stop-opacity:1.0000000;" />
      <stop
         id="stop88"
         offset="0.32049999"
         style="stop-color:#68b9ff;stop-opacity:1.0000000;" />
      <stop
         id="stop90"
         offset="0.56800002"
         style="stop-color:#3293fe;stop-opacity:1.0000000;" />
      <stop
         id="stop92"
         offset="0.75340003"
         style="stop-color:#107bfe;stop-opacity:1.0000000;" />
      <stop
         id="stop94"
         offset="0.85390002"
         style="stop-color:#0372fe;stop-opacity:1.0000000;" />
      <stop
         id="stop96"
         offset="1.0000000"
         style="stop-color:#0356fe;stop-opacity:1.0000000;" />
    </radialGradient>
    <radialGradient
       r="24.045961"
       fy="271.80869"
       fx="5.1258984"
       cy="271.80869"
       cx="5.1258984"
       gradientTransform="matrix(3.040485,0.000000,0.000000,-9.436030e-2,13.93379,37.42908)"
       gradientUnits="userSpaceOnUse"
       id="radialGradient8000"
       xlink:href="#bluelignonlinblu"
       inkscape:collect="always" />
    <linearGradient
       y2="175.35120"
       x2="3.3466594"
       y1="166.42171"
       x1="-5.2588677"
       gradientTransform="matrix(1.927245,0.000000,0.000000,0.554252,14.51168,-88.48328)"
       gradientUnits="userSpaceOnUse"
       id="linearGradient8002"
       xlink:href="#light100to0"
       inkscape:collect="always" />
    <linearGradient
       id="linearGradient5808"
       inkscape:collect="always">
      <stop
         id="stop5810"
         offset="0"
         style="stop-color:#ffffff;stop-opacity:1;" />
      <stop
         id="stop5812"
         offset="1"
         style="stop-color:#ffffff;stop-opacity:0;" />
    </linearGradient>
    <radialGradient
       r="9.3687143"
       fy="174.10931"
       fx="25.056116"
       cy="174.10931"
       cx="25.056116"
       gradientTransform="matrix(1.844875,0.000000,0.000000,0.578997,14.51168,-88.48328)"
       gradientUnits="userSpaceOnUse"
       id="radialGradient8004"
       xlink:href="#linearGradient5808"
       inkscape:collect="always" />
    <radialGradient
       inkscape:collect="always"
       xlink:href="#light75to0"
       id="radialGradient4412"
       gradientTransform="scale(1.002829,0.997179)"
       cx="35.044880"
       cy="74.235756"
       fx="35.044880"
       fy="74.235756"
       r="37.230904"
       gradientUnits="userSpaceOnUse" />
    <radialGradient
       inkscape:collect="always"
       xlink:href="#light100to0"
       id="radialGradient4394"
       gradientTransform="matrix(1.758912,0.000000,0.000000,0.568533,-2.589856e-13,-8.645668e-6)"
       cx="18.506639"
       cy="92.415352"
       fx="18.506639"
       fy="92.415352"
       r="11.512089"
       gradientUnits="userSpaceOnUse" />
    <linearGradient
       inkscape:collect="always"
       xlink:href="#light100to0"
       id="linearGradient3614"
       gradientTransform="matrix(2.157694,-2.684106e-2,5.764396e-3,0.463386,-2.589856e-13,-2.193456e-13)"
       x1="5.4416661"
       y1="7.9817476"
       x2="18.724882"
       y2="25.602371"
       gradientUnits="userSpaceOnUse" />
    <linearGradient
       inkscape:collect="always"
       xlink:href="#graytoblack"
       id="linearGradient4420"
       gradientTransform="scale(1.002291,0.997715)"
       x1="7.5616975"
       y1="-13.198998"
       x2="46.522972"
       y2="51.149952"
       gradientUnits="userSpaceOnUse" />
    <linearGradient
       inkscape:collect="always"
       xlink:href="#graytolightgray"
       id="linearGradient2088"
       gradientTransform="scale(1.002291,0.997715)"
       x1="41.939056"
       y1="43.472366"
       x2="28.188349"
       y2="14.121197"
       gradientUnits="userSpaceOnUse" />
    <radialGradient
       inkscape:collect="always"
       xlink:href="#light75to0"
       id="radialGradient5680"
       gradientUnits="userSpaceOnUse"
       gradientTransform="matrix(4.699014,0.000000,0.000000,2.913166,-44.82088,-3.284178)"
       cx="6.8099542"
       cy="13.307540"
       fx="6.8099542"
       fy="13.307540"
       r="3.8976505" />
    <radialGradient
       inkscape:collect="always"
       xlink:href="#light75to0"
       id="radialGradient5678"
       gradientUnits="userSpaceOnUse"
       gradientTransform="matrix(4.699014,0.000000,0.000000,2.913166,-44.82088,-3.284178)"
       cx="6.7188473"
       cy="12.978644"
       fx="6.7188473"
       fy="12.978644"
       r="2.3805757" />
    <linearGradient
       inkscape:collect="always"
       xlink:href="#graytoblack"
       id="linearGradient5676"
       gradientUnits="userSpaceOnUse"
       gradientTransform="matrix(5.577362,0.000000,0.000000,5.361691,-368.8578,-273.1472)"
       x1="65.655121"
       y1="62.298306"
       x2="62.358677"
       y2="56.483673" />
    <linearGradient
       id="linearGradient5201">
      <stop
         id="stop5203"
         offset="0.0000000"
         style="stop-color:#7d7d7d;stop-opacity:1.0000000;" />
      <stop
         id="stop5205"
         offset="1.0000000"
         style="stop-color:#000000;stop-opacity:1.0000000;" />
    </linearGradient>
    <radialGradient
       inkscape:collect="always"
       xlink:href="#linearGradient5201"
       id="radialGradient5674"
       gradientUnits="userSpaceOnUse"
       gradientTransform="matrix(5.577362,0.000000,0.000000,5.361691,-368.8578,-273.1472)"
       cx="63.833946"
       cy="61.548965"
       fx="63.833946"
       fy="61.548965"
       r="4.4104571" />
    <linearGradient
       id="light75to0">
      <stop
         id="stop2769"
         offset="0.0000000"
         style="stop-color:#ffffff;stop-opacity:0.72916669;" />
      <stop
         id="stop2770"
         offset="1.0000000"
         style="stop-color:#ffffff;stop-opacity:0.0000000;" />
    </linearGradient>
    <linearGradient
       y2="86.444351"
       x2="80.537773"
       y1="89.868164"
       x1="80.537773"
       gradientTransform="matrix(0.338784,0.000000,0.000000,0.321627,-101.6945,87.48185)"
       gradientUnits="userSpaceOnUse"
       id="linearGradient7982"
       xlink:href="#light75to0"
       inkscape:collect="always" />
    <radialGradient
       r="67.357605"
       fy="9.8876038"
       fx="32.163441"
       cy="9.8876038"
       cx="32.163441"
       gradientTransform="matrix(2.484065e-2,0.000000,0.000000,1.648067e-2,-73.61265,111.2942)"
       gradientUnits="userSpaceOnUse"
       id="radialGradient7980"
       xlink:href="#light100to0"
       inkscape:collect="always" />
    <radialGradient
       r="67.357605"
       fy="9.8876038"
       fx="32.163441"
       cy="9.8876038"
       cx="32.163441"
       gradientTransform="matrix(2.484065e-2,0.000000,0.000000,1.648067e-2,-77.27673,111.3438)"
       gradientUnits="userSpaceOnUse"
       id="radialGradient7978"
       xlink:href="#light100to0"
       inkscape:collect="always" />
    <linearGradient
       inkscape:collect="always"
       id="linearGradient5761">
      <stop
         style="stop-color:#000000;stop-opacity:1;"
         offset="0"
         id="stop5763" />
      <stop
         style="stop-color:#000000;stop-opacity:0;"
         offset="1"
         id="stop5765" />
    </linearGradient>
    <linearGradient
       y2="164.02941"
       x2="38.700349"
       y1="164.02941"
       x1="30.033862"
       gradientTransform="matrix(0.769036,0.000000,0.000000,0.136036,-101.1352,87.40144)"
       gradientUnits="userSpaceOnUse"
       id="linearGradient7976"
       xlink:href="#linearGradient5761"
       inkscape:collect="always" />
    <linearGradient
       id="light100to0">
      <stop
         style="stop-color:#ffffff;stop-opacity:1.0000000;"
         offset="0.0000000"
         id="stop2764" />
      <stop
         style="stop-color:#ffffff;stop-opacity:0.0000000;"
         offset="1.0000000"
         id="stop2765" />
    </linearGradient>
    <linearGradient
       y2="168.36269"
       x2="34.379585"
       y1="157.88530"
       x1="34.329636"
       gradientTransform="matrix(0.769036,0.000000,0.000000,0.136036,-101.1352,87.40144)"
       gradientUnits="userSpaceOnUse"
       id="linearGradient7974"
       xlink:href="#light100to0"
       inkscape:collect="always" />
    <radialGradient
       r="3.2771389"
       fy="78.109543"
       fx="69.874687"
       cy="78.109543"
       cx="69.874687"
       gradientTransform="matrix(0.318600,0.000000,0.000000,0.307744,-99.22731,87.48185)"
       gradientUnits="userSpaceOnUse"
       id="radialGradient7972"
       xlink:href="#graytoblack"
       inkscape:collect="always" />
    <linearGradient
       id="graytoblack">
      <stop
         id="stop5097"
         offset="0.0000000"
         style="stop-color:#7d7d7d;stop-opacity:1.0000000;" />
      <stop
         id="stop5098"
         offset="1.0000000"
         style="stop-color:#000000;stop-opacity:1.0000000;" />
    </linearGradient>
    <linearGradient
       y2="93.751755"
       x2="89.250404"
       y1="65.888565"
       x1="66.009613"
       spreadMethod="reflect"
       gradientTransform="matrix(0.311525,0.000000,0.000000,0.314734,-99.22726,87.48182)"
       gradientUnits="userSpaceOnUse"
       id="linearGradient7970"
       xlink:href="#graytoblack"
       inkscape:collect="always" />
    <linearGradient
       id="graytolightgray">
      <stop
         style="stop-color:#d4d3d3;stop-opacity:1.0000000;"
         offset="0.0000000"
         id="stop5101" />
      <stop
         style="stop-color:#ffffff;stop-opacity:1.0000000;"
         offset="1.0000000"
         id="stop5102" />
    </linearGradient>
    <linearGradient
       y2="74.369034"
       x2="73.258949"
       y1="92.318138"
       x1="83.408669"
       gradientTransform="matrix(0.313709,0.000000,0.000000,0.312544,-99.42495,87.48182)"
       gradientUnits="userSpaceOnUse"
       id="linearGradient7968"
       xlink:href="#graytolightgray"
       inkscape:collect="always" />
    <linearGradient
       gradientUnits="userSpaceOnUse"
       y2="89.022705"
       x2="31.406204"
       y1="71.470055"
       x1="23.972071"
       gradientTransform="matrix(2.908003,0.000000,0.000000,0.831096,-36.48626,-40.00805)"
       id="linearGradient9599"
       xlink:href="#linearGradient7676"
       inkscape:collect="always" />
    <linearGradient
       spreadMethod="reflect"
       gradientUnits="userSpaceOnUse"
       y2="68.449188"
       x2="27.096176"
       y1="75.009636"
       x1="27.245455"
       gradientTransform="matrix(2.825693,0.000000,0.000000,0.855304,-36.48626,-40.00805)"
       id="linearGradient9607"
       xlink:href="#greylighttograyw"
       inkscape:collect="always" />
    <linearGradient
       id="linearGradient7676">
      <stop
         id="stop7678"
         offset="0.0000000"
         style="stop-color:#7d7d7d;stop-opacity:1.0000000;" />
      <stop
         id="stop7680"
         offset="1.0000000"
         style="stop-color:#d3d4d4;stop-opacity:1.0000000;" />
    </linearGradient>
    <linearGradient
       y2="89.022705"
       x2="31.406204"
       y1="71.470055"
       x1="23.972071"
       gradientTransform="matrix(2.908003,0.000000,0.000000,0.831096,-36.48626,-25.85751)"
       gradientUnits="userSpaceOnUse"
       id="linearGradient9613"
       xlink:href="#linearGradient7676"
       inkscape:collect="always" />
    <linearGradient
       id="greylighttograyw">
      <stop
         style="stop-color:#b5b5b8;stop-opacity:1.0000000;"
         offset="0.0000000"
         id="stop575" />
      <stop
         style="stop-color:#ebebee;stop-opacity:1.0000000;"
         offset="1.0000000"
         id="stop576" />
    </linearGradient>
    <linearGradient
       y2="68.449188"
       x2="27.096176"
       y1="75.009636"
       x1="27.245455"
       spreadMethod="reflect"
       gradientTransform="matrix(2.825693,0.000000,0.000000,0.855304,-36.48626,-25.85751)"
       gradientUnits="userSpaceOnUse"
       id="linearGradient9611"
       xlink:href="#greylighttograyw"
       inkscape:collect="always" />
    <linearGradient
       inkscape:collect="always"
       xlink:href="#linearGradient5170"
       id="linearGradient2546"
       gradientUnits="userSpaceOnUse"
       gradientTransform="matrix(0.728114,-1.619744e-2,3.170042e-2,1.425011,-411.8219,-163.2111)"
       x1="149.29594"
       y1="234.90770"
       x2="409.73569"
       y2="154.10789" />
    <linearGradient
       id="linearGradient5170">
      <stop
         style="stop-color:#8f8fa6;stop-opacity:1.0000000;"
         offset="0.0000000"
         id="stop5171" />
      <stop
         style="stop-color:#ffffff;stop-opacity:1.0000000;"
         offset="1.0000000"
         id="stop5172" />
    </linearGradient>
    <linearGradient
       inkscape:collect="always"
       xlink:href="#light90to0"
       id="linearGradient2543"
       gradientUnits="userSpaceOnUse"
       gradientTransform="matrix(0.728114,-1.619744e-2,3.170042e-2,1.425011,-411.8219,-163.2111)"
       x1="304.64722"
       y1="96.190353"
       x2="299.20441"
       y2="145.69553" />
    <linearGradient
       id="light90to0">
      <stop
         style="stop-color:#ffffff;stop-opacity:0.90196079;"
         offset="0.0000000"
         id="stop1890" />
      <stop
         style="stop-color:#ffffff;stop-opacity:0.0000000;"
         offset="1.0000000"
         id="stop1892" />
    </linearGradient>
    <radialGradient
       inkscape:collect="always"
       xlink:href="#light90to0"
       id="radialGradient2540"
       gradientUnits="userSpaceOnUse"
       gradientTransform="matrix(0.901404,-2.005241e-2,2.560619e-2,1.151060,-411.8219,-163.2111)"
       cx="330.11304"
       cy="224.77423"
       fx="328.27005"
       fy="224.28973"
       r="105.02886" />
  </defs>
  <sodipodi:namedview
     inkscape:window-y="282"
     inkscape:window-x="346"
     inkscape:window-height="536"
     inkscape:window-width="640"
     inkscape:grid-bbox="true"
     inkscape:document-units="px"
     showgrid="true"
     inkscape:current-layer="g10516"
     inkscape:cy="32.000000"
     inkscape:cx="32.000000"
     inkscape:zoom="5.5000000"
     inkscape:pageshadow="2"
     inkscape:pageopacity="0.0"
     borderopacity="1.0"
     bordercolor="#666666"
     pagecolor="#ffffff"
     id="base" />
  <metadata
     id="metadata4">
    <rdf:RDF
       id="RDF5">
      <cc:Work
         id="Work6"
         rdf:about="">
        <dc:format
           id="format7">image/svg+xml</dc:format>
        <dc:type
           rdf:resource="http://purl.org/dc/dcmitype/StillImage"
           id="type9" />
      </cc:Work>
    </rdf:RDF>
  </metadata>
  <g
     inkscape:groupmode="layer"
     inkscape:label="Layer 1"
     id="layer1">
    <path
       id="rect3484"
       d="M 7.5226090,3.3328286 L 56.304642,3.3328286 C 58.802443,3.3328286 60.813315,5.2622555 60.813315,7.6588835 L 60.813315,41.131251 C 60.813315,43.527892 58.802443,45.457319 56.304642,45.457319 L 7.5226090,45.457319 C 5.0248027,45.457319 3.0139360,43.527892 3.0139360,41.131251 L 3.0139360,7.6588835 C 3.0139360,5.2622555 5.0248027,3.3328286 7.5226090,3.3328286 z "
       style="opacity:0.77865613;fill:#000000;fill-opacity:1.0000000;stroke:url(#linearGradient7994);stroke-width:4.1895814;stroke-linejoin:round;stroke-miterlimit:4.0000000;stroke-opacity:1.0000000" />
    <path
       id="rect1334"
       d="M 7.5226090,3.3328286 L 56.304642,3.3328286 C 58.802443,3.3328286 60.813315,5.2622555 60.813315,7.6588835 L 60.813315,41.131251 C 60.813315,43.527892 58.802443,45.457319 56.304642,45.457319 L 7.5226090,45.457319 C 5.0248027,45.457319 3.0139360,43.527892 3.0139360,41.131251 L 3.0139360,7.6588835 C 3.0139360,5.2622555 5.0248027,3.3328286 7.5226090,3.3328286 z "
       style="fill:none;fill-opacity:1.0000000;stroke:#000000;stroke-width:5.2863312;stroke-linejoin:round;stroke-miterlimit:4.0000000;stroke-opacity:0.34841630" />
    <path
       id="rect2110"
       d="M 7.5226090,3.3328286 L 56.304642,3.3328286 C 58.802443,3.3328286 60.813315,5.2622555 60.813315,7.6588835 L 60.813315,41.131251 C 60.813315,43.527892 58.802443,45.457319 56.304642,45.457319 L 7.5226090,45.457319 C 5.0248027,45.457319 3.0139360,43.527892 3.0139360,41.131251 L 3.0139360,7.6588835 C 3.0139360,5.2622555 5.0248027,3.3328286 7.5226090,3.3328286 z "
       style="fill:url(#linearGradient7996);fill-opacity:1.0000000;stroke:none;stroke-width:2.8199999;stroke-linejoin:round;stroke-miterlimit:4.0000000;stroke-opacity:1.0000000" />
    <path
       id="rect1336"
       d="M 6.1559778,2.7502077 C 3.8907755,2.7502077 2.0733966,5.1991445 2.0733966,8.2515315 L 2.0733966,11.821094 L 61.753861,11.821094 L 61.753861,8.2515315 C 61.753861,5.1991445 59.936485,2.7502077 57.671276,2.7502077 L 6.1559778,2.7502077 z "
       style="fill:url(#radialGradient7998);fill-opacity:1.0000000;stroke:none;stroke-width:3.4250000;stroke-linejoin:round;stroke-miterlimit:4.0000000;stroke-opacity:1.0000000" />
    <path
       id="path3494"
       d="M 6.1553150,13.633300 C 3.8900518,13.633300 2.0726265,13.133253 2.0726265,12.509983 L 2.0726265,11.781109 L 61.754621,11.781109 L 61.754621,12.509983 C 61.754621,13.133253 59.937196,13.633300 57.671937,13.633300 L 6.1553150,13.633300 z "
       style="fill:url(#radialGradient8000);fill-opacity:1.0000000;stroke:none;stroke-width:3.4250000;stroke-linejoin:round;stroke-miterlimit:4.0000000;stroke-opacity:1.0000000" />
    <path
       id="path3498"
       d="M 33.740789,2.2792769 C 31.076595,2.2004129 7.9350030,2.2561351 6.7801655,2.3328576 C 3.5823633,2.5452805 2.3356258,4.7480079 2.1921181,7.3593015 C 2.0443936,10.047320 2.2223158,8.0327835 2.1921181,11.331372 C 6.0746586,11.174726 2.8834079,7.2453045 8.2153841,5.8264375 C 13.547360,4.4075791 33.893817,5.3634785 33.740789,2.2792769 z "
       style="fill:url(#linearGradient8002);fill-opacity:1.0000000;fill-rule:evenodd;stroke:none;stroke-width:1.0000000px;stroke-linecap:butt;stroke-linejoin:miter;stroke-opacity:1.0000000" />
    <path
       id="path4268"
       d="M 6.6118557,11.762793 C 6.5780971,11.692425 9.7549687,11.652052 11.081476,11.871130 C 11.305291,11.908093 11.633487,10.741866 11.913038,10.679420 C 12.118564,10.633514 12.262805,11.795062 12.606252,11.787732 C 28.166341,11.455606 58.965254,11.545874 58.999971,11.654441 C 59.034555,11.762547 28.051858,12.149808 12.744594,12.196143 C 12.182420,12.197826 12.266298,12.981143 12.016981,12.999689 C 11.781225,13.017254 11.501235,12.285961 11.289369,12.304481 C 9.9477651,12.421702 6.6473933,11.836876 6.6118557,11.762793 z "
       style="fill:#ffffff;fill-opacity:0.11764706;fill-rule:evenodd;stroke:#ffffff;stroke-width:0.0000000;stroke-linecap:butt;stroke-linejoin:round;stroke-miterlimit:4.0000000;stroke-opacity:0.099547513" />
    <path
       id="path5038"
       d="M 7.7709509,11.859438 C 7.7603756,11.740734 10.125876,11.869518 11.475573,11.919439 C 11.702034,11.927832 11.587126,11.611662 11.866671,11.549229 C 12.072198,11.503339 11.938204,11.863829 12.281704,11.860216 C 27.795428,11.697219 59.108219,11.635203 58.999971,11.654441 C 58.663641,11.714227 27.796856,11.956517 12.443226,12.147804 C 11.881094,12.154803 12.150389,12.473755 11.901072,12.492314 C 11.665316,12.509851 11.779417,12.116834 11.567550,12.135351 C 10.225946,12.252573 7.7783014,11.941901 7.7709509,11.859438 z "
       style="fill:#ffffff;fill-opacity:0.11764706;fill-rule:evenodd;stroke:#ffffff;stroke-width:0.10335266;stroke-linecap:butt;stroke-linejoin:round;stroke-miterlimit:4.0000000;stroke-opacity:0.099547513" />
    <path
       id="path5040"
       d="M 7.7709509,11.859438 C 7.7603756,11.740734 10.125876,11.869518 11.475573,11.919439 C 11.702034,11.927832 11.587126,11.611662 11.866671,11.549229 C 12.072198,11.503339 11.938204,11.863829 12.281704,11.860216 C 27.795428,11.697219 59.108219,11.635203 58.999971,11.654441 C 58.663641,11.714227 27.796856,11.956517 12.443226,12.147804 C 11.881094,12.154803 12.150389,12.473755 11.901072,12.492314 C 11.665316,12.509851 11.779417,12.116834 11.567550,12.135351 C 10.225946,12.252573 7.7783014,11.941901 7.7709509,11.859438 z "
       style="fill:#ffffff;fill-opacity:0.11764706;fill-rule:evenodd;stroke:#ffffff;stroke-width:0.51676333;stroke-linecap:butt;stroke-linejoin:round;stroke-miterlimit:4.0000000;stroke-opacity:0.099547513" />
    <path
       id="path5048"
       d="M 43.827105,12.671061 C 47.255736,12.787464 59.987544,13.390678 60.895157,12.566871 C 61.743715,11.796659 61.444779,6.2059915 60.410162,6.3437185 C 58.247517,6.0563015 40.469494,5.9093455 39.891023,5.9746005 C 37.584933,6.2347195 39.263258,9.8995715 42.449863,11.732210 C 42.705423,12.244120 43.299180,12.699442 43.827105,12.671061 z "
       style="opacity:0.84980237;fill:url(#radialGradient8004);fill-opacity:1.0000000;fill-rule:evenodd;stroke:none;stroke-width:1.0000000px;stroke-linecap:butt;stroke-linejoin:miter;stroke-opacity:1.0000000" />
    <g
       transform="matrix(0.181394,0.000000,0.000000,0.179224,6.631885,16.32381)"
       id="g5682">
      <path
         sodipodi:type="arc"
         style="fill:url(#linearGradient2088);fill-opacity:1.0000000;stroke:none;stroke-width:15.102777;stroke-linecap:round;stroke-linejoin:round;stroke-miterlimit:4.0000000;stroke-dashoffset:0.0000000;stroke-opacity:1.0000000"
         id="path2080"
         sodipodi:cx="32.272728"
         sodipodi:cy="31.909090"
         sodipodi:rx="32.272728"
         sodipodi:ry="32.090908"
         d="M 64.545456 31.909090 A 32.272728 32.090908 0 1 1  0.0000000,31.909090 A 32.272728 32.090908 0 1 1  64.545456 31.909090 z"
         transform="matrix(0.801923,0.000000,0.000000,0.808186,6.125551,6.203764)" />
      <path
         sodipodi:type="arc"
         style="fill:none;fill-opacity:0.0000000;stroke:url(#linearGradient4420);stroke-width:15.104682;stroke-linecap:round;stroke-linejoin:round;stroke-miterlimit:4.0000000;stroke-dashoffset:0.0000000;stroke-opacity:1.0000000"
         id="path1320"
         sodipodi:cx="32.272728"
         sodipodi:cy="31.909090"
         sodipodi:rx="32.272728"
         sodipodi:ry="32.090908"
         d="M 64.545456 31.909090 A 32.272728 32.090908 0 1 1  0.0000000,31.909090 A 32.272728 32.090908 0 1 1  64.545456 31.909090 z"
         transform="matrix(0.801923,0.000000,0.000000,0.808186,6.125551,6.203764)" />
      <path
         style="fill:url(#linearGradient3614);fill-opacity:1.0000000;fill-rule:evenodd;stroke:none;stroke-width:0.31000000;stroke-linecap:butt;stroke-linejoin:miter;stroke-miterlimit:4.0000000;stroke-opacity:1.0000000"
         d="M 32.604166,1.2759568 C 20.262866,1.5868347 8.3164226,10.330787 11.644633,13.030480 C 15.165265,15.886257 16.953426,6.1188505 32.992322,6.3285874 C 49.026096,6.5382575 50.514829,16.562589 53.206050,13.761282 C 55.818798,11.041657 45.120964,0.96289566 32.604166,1.2759568 z "
         id="path2848"
         sodipodi:nodetypes="czzzz" />
      <path
         style="fill:url(#radialGradient4394);fill-opacity:1.0000000;fill-rule:evenodd;stroke:none;stroke-width:0.18320659pt;stroke-linecap:butt;stroke-linejoin:miter;stroke-opacity:1.0000000"
         d="M 32.346426,57.554934 C 23.566154,57.320842 15.066804,50.736619 17.434674,48.703742 C 19.939443,46.553333 21.211639,53.908220 32.622582,53.750287 C 44.029881,53.592405 45.089047,46.044053 47.003727,48.153445 C 48.862579,50.201331 41.251557,57.790670 32.346426,57.554934 z "
         id="path4390"
         sodipodi:nodetypes="czzzz" />
      <path
         sodipodi:type="arc"
         style="fill:none;fill-opacity:1.0000000;stroke:url(#radialGradient4412);stroke-width:11.378198;stroke-linecap:round;stroke-linejoin:round;stroke-miterlimit:4.0000000;stroke-dashoffset:0.0000000;stroke-opacity:1.0000000"
         id="path4396"
         sodipodi:cx="32.272728"
         sodipodi:cy="31.909090"
         sodipodi:rx="32.272728"
         sodipodi:ry="32.090908"
         d="M 64.545456 31.909090 A 32.272728 32.090908 0 1 1  0.0000000,31.909090 A 32.272728 32.090908 0 1 1  64.545456 31.909090 z"
         transform="matrix(0.801923,0.000000,0.000000,0.808186,6.125551,6.203760)" />
      <path
         style="fill:#000000;fill-opacity:0.21774192;fill-rule:evenodd;stroke:none;stroke-width:0.18320659pt;stroke-linecap:butt;stroke-linejoin:miter;stroke-opacity:1.0000000"
         d="M 23.906699,9.1878251 C 14.784781,13.095774 12.563478,21.134321 13.832353,23.183143 C 16.178286,19.479679 17.139323,16.116083 25.238531,13.052956 C 33.497024,9.9295872 37.911007,12.405880 40.478799,13.601807 C 42.286859,10.510558 33.182473,5.2139618 23.906699,9.1878251 z "
         id="path4422"
         sodipodi:nodetypes="cczcz" />
    </g>
    <g
       id="g5669"
       transform="matrix(0.160584,0.000000,0.000000,0.161935,14.48266,14.68259)">
      <path
         id="path6344"
         d="M 3.3259720,45.542990 C 3.3259720,54.066100 -3.8695768,60.983407 -12.735530,60.983407 C -21.601476,60.983407 -28.797030,54.066100 -28.797030,45.542990 C -28.797030,37.019879 -21.601476,30.102573 -12.735530,30.102573 C -3.8695768,30.102573 3.3259720,37.019879 3.3259720,45.542990 z "
         style="fill:url(#radialGradient5674);fill-opacity:1.0000000;stroke:url(#linearGradient5676);stroke-width:1.1605132;stroke-linecap:round;stroke-linejoin:round;stroke-miterlimit:4.0000000;stroke-dashoffset:0.0000000;stroke-opacity:1.0000000" />
      <path
         sodipodi:nodetypes="czzzz"
         id="path9920"
         d="M -1.2522068,37.350633 C -0.68611182,40.874804 -3.9926678,44.287546 -12.943525,44.598699 C -21.884717,44.909515 -25.398085,42.103467 -24.634843,37.350633 C -23.879809,32.648887 -19.397136,30.102571 -12.943525,30.102571 C -6.4899178,30.102571 -1.8111548,33.870932 -1.2522068,37.350633 z "
         style="fill:url(#radialGradient5678);fill-opacity:1.0000000;stroke:none;stroke-width:1.7625000;stroke-linecap:round;stroke-linejoin:round;stroke-miterlimit:4.0000000;stroke-dashoffset:0.0000000;stroke-opacity:1.0000000" />
      <path
         sodipodi:nodetypes="czzzz"
         id="path11786"
         d="M -1.2522068,37.350633 C -0.55739582,41.626591 -5.8768078,44.629967 -12.943525,44.598699 C -20.128001,44.567432 -25.398085,42.103467 -24.634843,37.350633 C -23.879809,32.648887 -17.630754,30.102571 -12.825766,30.102571 C -7.9030188,30.102571 -1.9289128,33.186091 -1.2522068,37.350633 z "
         style="fill:url(#radialGradient5680);fill-opacity:1.0000000;stroke:none;stroke-width:1.7625000;stroke-linecap:round;stroke-linejoin:round;stroke-miterlimit:4.0000000;stroke-dashoffset:0.0000000;stroke-opacity:1.0000000" />
    </g>
    <g
       transform="matrix(1.209645,0.000000,0.000000,1.160646,102.6915,-95.92556)"
       id="g7959">
      <path
         style="fill:url(#linearGradient7968);fill-opacity:1.0000000;stroke:#000000;stroke-width:0.0000000;stroke-linecap:round;stroke-linejoin:round;stroke-miterlimit:4.0000000;stroke-dashoffset:0.0000000;stroke-opacity:1.0000000"
         d="M -76.910938,109.73824 L -72.304801,109.73824 C -71.244452,109.73824 -70.390813,110.55349 -70.390813,111.56615 L -70.390813,116.31309 C -70.390813,117.32576 -71.244452,118.14100 -72.304801,118.14100 L -76.910938,118.14100 C -77.971287,118.14100 -78.824926,117.32576 -78.824926,116.31309 L -78.824926,111.56615 C -78.824926,110.55349 -77.971287,109.73824 -76.910938,109.73824 z "
         id="rect4229" />
      <path
         style="fill:none;fill-opacity:0.0000000;stroke:url(#linearGradient7970);stroke-width:1.4602780;stroke-linecap:round;stroke-linejoin:round;stroke-miterlimit:4.0000000;stroke-dashoffset:0.0000000;stroke-opacity:1.0000000"
         d="M -76.797440,109.69218 L -72.426478,109.69218 C -71.366130,109.69218 -70.512491,110.50743 -70.512491,111.52009 L -70.512491,116.16978 C -70.512491,117.18244 -71.366130,117.99769 -72.426478,117.99769 L -76.797440,117.99769 C -77.857789,117.99769 -78.711427,117.18244 -78.711427,116.16978 L -78.711427,111.52009 C -78.711427,110.50743 -77.857789,109.69218 -76.797440,109.69218 z "
         id="rect2643" />
      <path
         style="fill:url(#radialGradient7972);fill-opacity:1.0000000;fill-rule:evenodd;stroke:none;stroke-width:5.5625000;stroke-linecap:round;stroke-linejoin:miter;stroke-miterlimit:4.0000000;stroke-opacity:1.0000000"
         d="M -76.499153,111.31019 C -76.722911,111.32300 -76.929343,111.42960 -77.068064,111.60303 C -77.318602,111.91592 -77.284347,112.36716 -76.989594,112.63776 L -75.734063,113.84819 L -77.009212,115.06839 C -77.315056,115.36449 -77.312160,115.85023 -77.009212,116.15193 C -76.706263,116.45362 -76.216467,116.45779 -75.910622,116.16169 L -74.615856,114.91221 L -73.311281,116.16169 C -73.005437,116.45779 -72.515639,116.45362 -72.212692,116.15193 C -71.909743,115.85023 -71.916656,115.36449 -72.222499,115.06839 L -73.497648,113.84819 L -72.232309,112.63776 C -71.937556,112.36716 -71.903301,111.91592 -72.153838,111.60303 C -72.292561,111.42960 -72.498992,111.32300 -72.722751,111.31019 C -72.946508,111.29737 -73.164312,111.37820 -73.321089,111.53470 L -74.615856,112.77442 L -75.900814,111.53470 C -76.057592,111.37820 -76.275395,111.29737 -76.499153,111.31019 z "
         id="path4194" />
      <path
         style="fill:url(#linearGradient7974);fill-opacity:1.0000000;stroke:url(#linearGradient7976);stroke-width:0.0000000;stroke-linecap:round;stroke-linejoin:round;stroke-miterlimit:4.0000000;stroke-dashoffset:0.0000000;stroke-opacity:1.0000000"
         d="M -71.373246,109.71528 C -71.373246,110.04067 -72.015159,110.33155 -74.705669,110.30476 C -77.369254,110.27796 -79.351910,110.92147 -78.549650,109.90284 C -77.757528,108.89709 -76.168759,109.12581 -73.924871,109.09902 C -71.707910,109.07222 -71.373246,109.38989 -71.373246,109.71528 z "
         id="path5001"
         sodipodi:nodetypes="czzzz" />
      <path
         adobe-blending-mode="screen"
         d="M -75.854120,111.81458 C -75.854120,112.03022 -76.117612,112.20504 -76.442663,112.20504 C -76.767688,112.20504 -77.031180,112.03024 -77.031180,111.81458 C -77.031180,111.59893 -76.767698,111.42412 -76.442663,111.42412 C -76.117612,111.42413 -75.854120,111.59893 -75.854120,111.81458 z "
         style="fill:url(#radialGradient7978);fill-opacity:1.0000000"
         id="path89"
         inkscape:export-filename="/home/nuno/kdeplayground-artwork/oooicons/crystalsvg/world.png"
         inkscape:export-xdpi="36.000000"
         inkscape:export-ydpi="36.000000" />
      <path
         adobe-blending-mode="screen"
         d="M -72.190056,111.76497 C -72.190056,111.98061 -72.453549,112.15543 -72.778600,112.15543 C -73.103626,112.15543 -73.367117,111.98063 -73.367117,111.76497 C -73.367117,111.54932 -73.103635,111.37451 -72.778600,111.37451 C -72.453549,111.37452 -72.190056,111.54932 -72.190056,111.76497 z "
         style="fill:url(#radialGradient7980);fill-opacity:1.0000000"
         id="path6797"
         inkscape:export-filename="/home/nuno/kdeplayground-artwork/oooicons/crystalsvg/world.png"
         inkscape:export-xdpi="36.000000"
         inkscape:export-ydpi="36.000000" />
      <path
         style="fill:url(#linearGradient7982);fill-opacity:1.0000000;fill-rule:evenodd;stroke:none;stroke-width:5.5625000;stroke-linecap:round;stroke-linejoin:miter;stroke-miterlimit:4.0000000;stroke-opacity:1.0000000"
         d="M -75.538383,113.99680 L -76.746951,115.13346 C -77.036826,115.40928 -77.133784,115.73774 -76.846653,116.01878 C -76.559523,116.29981 -76.244854,116.17967 -75.954978,115.90384 L -74.578263,114.76472 L -73.192252,116.05268 C -72.902378,116.32850 -72.587709,116.29981 -72.300578,116.01878 C -72.013447,115.73774 -72.194479,115.40928 -72.484355,115.13346 L -73.692922,113.99680 L -75.538383,113.99680 z "
         id="path6801"
         sodipodi:nodetypes="cccccccccc" />
    </g>
    <path
       id="rect8075"
       d="M 26.678244,17.283300 L 52.214693,17.283300 C 54.395781,17.283300 56.151675,18.422080 56.151675,19.836617 L 56.151675,24.278544 C 56.151675,25.693082 54.395781,26.831861 52.214693,26.831861 L 26.678244,26.831861 C 24.497157,26.831861 22.741263,25.693082 22.741263,24.278544 L 22.741263,19.836617 C 22.741263,18.422080 24.497157,17.283300 26.678244,17.283300 z "
       style="fill:url(#linearGradient9607);fill-opacity:1.0000000;stroke:url(#linearGradient9599);stroke-width:0.77526993;stroke-linejoin:round;stroke-miterlimit:4.0000000;stroke-opacity:0.44796380" />
    <path
       id="rect9609"
       d="M 26.678244,31.433841 L 52.214693,31.433841 C 54.395781,31.433841 56.151675,32.572622 56.151675,33.987158 L 56.151675,38.429085 C 56.151675,39.843622 54.395781,40.982402 52.214693,40.982402 L 26.678244,40.982402 C 24.497157,40.982402 22.741263,39.843622 22.741263,38.429085 L 22.741263,33.987158 C 22.741263,32.572622 24.497157,31.433841 26.678244,31.433841 z "
       style="fill:url(#linearGradient9611);fill-opacity:1.0000000;stroke:url(#linearGradient9613);stroke-width:0.77526993;stroke-linejoin:round;stroke-miterlimit:4.0000000;stroke-opacity:0.44796380" />
    <g
       transform="translate(-23.60635,25.31817)"
       id="g10516"
       inkscape:label="Layer 1"
       inkscape:groupmode="layer">
      <g
         id="g3338"
         transform="matrix(0.142100,0.000000,0.000000,0.140370,99.79040,9.272422)">
        <path
           style="fill:#000000;fill-opacity:0.043290023;fill-rule:evenodd;stroke:none;stroke-width:28.424999;stroke-linecap:butt;stroke-linejoin:round;stroke-miterlimit:4.0000000;stroke-opacity:1.0000000"
           d="M -240.44301,-68.316144 C -243.86112,-68.437500 -247.18046,-67.085045 -249.64814,-64.565534 C -252.11582,-62.046023 -253.52270,-58.572981 -253.54972,-54.934140 L -254.63730,106.45107 C -254.66290,110.87231 -252.65163,115.02652 -249.25347,117.57112 C -245.85534,120.11570 -241.50131,120.72794 -237.59857,119.20995 L -202.79604,105.62026 L -165.26064,194.27975 C -162.39536,201.06289 -154.91288,204.10154 -148.52866,201.07460 L -117.71393,186.44639 C -114.62153,184.97749 -112.20960,182.25380 -111.01533,178.88192 C -109.82107,175.51006 -109.94366,171.77005 -111.35579,168.49491 L -148.13826,83.128988 L -118.55053,70.132717 C -114.52764,68.363354 -111.63849,64.522605 -110.89718,59.958553 C -110.15587,55.394503 -111.66594,50.744795 -114.89739,47.641453 L -232.38377,-64.874209 C -234.60587,-66.994765 -237.45964,-68.213555 -240.44301,-68.316144 z "
           id="path3326"
           sodipodi:nodetypes="cccccccccccccccccc" />
        <path
           style="fill:#000000;fill-opacity:0.043290023;fill-rule:evenodd;stroke:none;stroke-width:28.424999;stroke-linecap:butt;stroke-linejoin:round;stroke-miterlimit:4.0000000;stroke-opacity:1.0000000"
           d="M -239.69867,-68.316081 C -243.29602,-68.438456 -246.78942,-67.074643 -249.38650,-64.533974 C -251.98358,-61.993304 -253.46424,-58.491096 -253.49268,-54.821696 L -254.63729,107.91881 C -254.66423,112.37718 -252.54749,116.56628 -248.97114,119.13225 C -245.39481,121.69820 -240.81246,122.31558 -236.70507,120.78484 L -200.07755,107.08102 L -160.57385,196.48507 C -157.55832,203.32517 -149.68346,206.38934 -142.96447,203.33698 L -110.53386,188.58592 C -107.27930,187.10469 -104.74089,184.35812 -103.48399,180.95793 C -102.22711,177.55775 -102.35612,173.78633 -103.84230,170.48369 L -142.55359,84.400872 L -111.41433,71.295460 C -107.18048,69.511238 -104.13983,65.638235 -103.35965,61.035854 C -102.57946,56.433476 -104.16872,51.744720 -107.56962,48.615317 L -231.21681,-64.845241 C -233.55544,-66.983605 -236.55886,-68.212630 -239.69867,-68.316081 z "
           id="path3324"
           sodipodi:nodetypes="cccccccccccccccccc" />
        <path
           style="fill:#000000;fill-opacity:0.043290023;fill-rule:evenodd;stroke:none;stroke-width:28.424999;stroke-linecap:butt;stroke-linejoin:round;stroke-miterlimit:4.0000000;stroke-opacity:1.0000000"
           d="M -239.17763,-68.315892 C -242.90045,-68.441324 -246.51569,-67.043438 -249.20335,-64.439293 C -251.89102,-61.835147 -253.42332,-58.245440 -253.45275,-54.484364 L -254.63728,112.32203 C -254.66516,116.89179 -252.47459,121.18555 -248.77351,123.81563 C -245.07244,126.44569 -240.33027,127.07849 -236.07962,125.50951 L -198.17461,111.46331 L -157.29309,203.10102 C -154.17239,210.11202 -146.02287,213.25274 -139.06953,210.12412 L -105.50781,195.00452 C -102.13974,193.48628 -99.512796,190.67109 -98.212058,187.18595 C -96.911332,183.70082 -97.044845,179.83518 -98.582864,176.45003 L -138.64432,88.216525 L -106.41899,74.783689 C -102.03747,72.954890 -98.890772,68.985124 -98.083380,64.267758 C -97.275977,59.550395 -98.920664,54.744495 -102.44018,51.536908 L -230.39994,-64.758337 C -232.82014,-66.950125 -235.92831,-68.209856 -239.17763,-68.315892 z "
           id="path3322"
           sodipodi:nodetypes="cccccccccccccccccc" />
        <path
           style="fill:#000000;fill-opacity:0.077922054;fill-rule:evenodd;stroke:none;stroke-width:28.424999;stroke-linecap:butt;stroke-linejoin:round;stroke-miterlimit:4.0000000;stroke-opacity:1.0000000"
           d="M -238.73102,-68.315744 C -242.56139,-68.443555 -246.28106,-67.019167 -249.04636,-64.365652 C -251.81167,-61.712136 -253.38825,-58.054374 -253.41852,-54.221994 L -254.63727,115.74676 C -254.66596,120.40315 -252.41210,124.77832 -248.60411,127.45825 C -244.79612,130.13818 -239.91695,130.78298 -235.54352,129.18426 L -196.54352,114.87176 L -154.48102,208.24676 C -151.27015,215.39068 -142.88521,218.59094 -135.73102,215.40301 L -101.19977,199.99676 C -97.734393,198.44974 -95.031563,195.58118 -93.693253,192.02998 C -92.354953,188.47877 -92.492323,184.53985 -94.074773,181.09051 L -135.29352,91.184256 L -102.13727,77.496756 C -97.629183,75.633286 -94.391583,71.588260 -93.560853,66.781462 C -92.730133,61.974665 -94.422333,57.077654 -98.043523,53.809256 L -229.69977,-64.690744 C -232.18988,-66.924085 -235.38785,-68.207698 -238.73102,-68.315744 z "
           id="path2558"
           sodipodi:nodetypes="cccccccccccccccccc" />
        <path
           d="M -241.66309,-58.084431 L -242.76576,107.59433 L -196.25894,89.190355 L -153.29571,191.98354 L -122.06466,176.97007 L -164.91406,76.222367 L -122.59258,57.413445 L -241.66309,-58.084431 z "
           style="fill:url(#linearGradient2546);fill-opacity:1.0000000;fill-rule:evenodd;stroke:#000000;stroke-width:12.246215pt;stroke-linecap:butt;stroke-linejoin:round;stroke-opacity:1.0000000"
           id="path4041"
           sodipodi:nodetypes="cccccccc" />
        <path
           style="fill:url(#linearGradient2543);fill-opacity:1.0000000;fill-rule:evenodd;stroke:none;stroke-width:12.019479pt;stroke-linecap:butt;stroke-linejoin:round;stroke-opacity:1.0000000"
           d="M -242.09167,-56.572017 C -244.06020,-55.969913 -243.33928,-51.783768 -243.42392,-50.574436 L -244.57843,106.76204 C -232.57792,94.476986 -190.75933,112.21309 -208.57692,69.906898 C -241.68022,-20.399695 -143.86250,26.863280 -189.91859,-12.415651 L -234.27306,-54.421089 C -236.85111,-56.634472 -239.21729,-59.170144 -242.09167,-56.572017 z "
           id="path4083"
           sodipodi:nodetypes="ccccccc" />
        <path
           style="fill:url(#radialGradient2540);fill-opacity:1.0000000;fill-rule:evenodd;stroke:none;stroke-width:12.019479pt;stroke-linecap:butt;stroke-linejoin:round;stroke-opacity:1.0000000"
           d="M -231.15568,104.21768 L -196.26907,89.193189 L -153.28120,191.99565 L -122.05471,176.96967 L -164.90106,76.234144 L -121.86062,58.665340 C -161.28054,43.574062 -227.81908,82.437212 -231.15568,104.21768 z "
           id="path4096"
           sodipodi:nodetypes="ccccccc" />
      </g>
    </g>
  </g>
</svg>
