<?xml version="1.0" encoding="UTF-8" standalone="no"?>
<!-- Created with Inkscape (http://www.inkscape.org/) -->
<svg
   xmlns:dc="http://purl.org/dc/elements/1.1/"
   xmlns:cc="http://web.resource.org/cc/"
   xmlns:rdf="http://www.w3.org/1999/02/22-rdf-syntax-ns#"
   xmlns:svg="http://www.w3.org/2000/svg"
   xmlns="http://www.w3.org/2000/svg"
   xmlns:xlink="http://www.w3.org/1999/xlink"
   xmlns:sodipodi="http://inkscape.sourceforge.net/DTD/sodipodi-0.dtd"
   xmlns:inkscape="http://www.inkscape.org/namespaces/inkscape"
   width="64px"
   height="64px"
   id="svg10375"
   sodipodi:version="0.32"
   inkscape:version="0.41"
   sodipodi:docbase="/home/pinheiro/kdeplayground-artwork/oooicons/crystalsvg"
   sodipodi:docname="formdesigntools.svg"
   inkscape:export-filename="/home/pinheiro/kdeplayground-artwork/oooicons/crystalsvg/formdesigntools.png"
   inkscape:export-xdpi="45.000000"
   inkscape:export-ydpi="45.000000">
  <defs
     id="defs3">
    <linearGradient
       id="garylighttowite">
      <stop
         id="stop5106"
         offset="0.0000000"
         style="stop-color:#7d7d7d;stop-opacity:1.0000000;" />
      <stop
         id="stop5107"
         offset="1.0000000"
         style="stop-color:#d3d4d4;stop-opacity:1.0000000;" />
    </linearGradient>
    <radialGradient
       cx="38.797401"
       cy="112.96090"
       r="67.358803"
       fx="38.797401"
       fy="112.96090"
       id="bluelignonlinblu"
       gradientUnits="userSpaceOnUse">
      <stop
         style="stop-color:#d9ffff;stop-opacity:1.0000000;"
         offset="0.0055999998"
         id="stop84" />
      <stop
         style="stop-color:#95d9ff;stop-opacity:1.0000000;"
         offset="0.13480000"
         id="stop86" />
      <stop
         style="stop-color:#68b9ff;stop-opacity:1.0000000;"
         offset="0.32049999"
         id="stop88" />
      <stop
         style="stop-color:#3293fe;stop-opacity:1.0000000;"
         offset="0.56800002"
         id="stop90" />
      <stop
         style="stop-color:#107bfe;stop-opacity:1.0000000;"
         offset="0.75340003"
         id="stop92" />
      <stop
         style="stop-color:#0372fe;stop-opacity:1.0000000;"
         offset="0.85390002"
         id="stop94" />
      <stop
         style="stop-color:#0356fe;stop-opacity:1.0000000;"
         offset="1.0000000"
         id="stop96" />
    </radialGradient>
    <linearGradient
       inkscape:collect="always"
       id="linearGradient5808">
      <stop
         style="stop-color:#ffffff;stop-opacity:1;"
         offset="0"
         id="stop5810" />
      <stop
         style="stop-color:#ffffff;stop-opacity:0;"
         offset="1"
         id="stop5812" />
    </linearGradient>
    <linearGradient
       id="linearGradient5201">
      <stop
         style="stop-color:#7d7d7d;stop-opacity:1.0000000;"
         offset="0.0000000"
         id="stop5203" />
      <stop
         style="stop-color:#000000;stop-opacity:1.0000000;"
         offset="1.0000000"
         id="stop5205" />
    </linearGradient>
    <linearGradient
       id="light75to0">
      <stop
         style="stop-color:#ffffff;stop-opacity:0.72916669;"
         offset="0.0000000"
         id="stop2769" />
      <stop
         style="stop-color:#ffffff;stop-opacity:0.0000000;"
         offset="1.0000000"
         id="stop2770" />
    </linearGradient>
    <linearGradient
       id="linearGradient5761"
       inkscape:collect="always">
      <stop
         id="stop5763"
         offset="0"
         style="stop-color:#000000;stop-opacity:1;" />
      <stop
         id="stop5765"
         offset="1"
         style="stop-color:#000000;stop-opacity:0;" />
    </linearGradient>
    <linearGradient
       id="light100to0">
      <stop
         id="stop2764"
         offset="0.0000000"
         style="stop-color:#ffffff;stop-opacity:1.0000000;" />
      <stop
         id="stop2765"
         offset="1.0000000"
         style="stop-color:#ffffff;stop-opacity:0.0000000;" />
    </linearGradient>
    <linearGradient
       id="graytoblack">
      <stop
         style="stop-color:#7d7d7d;stop-opacity:1.0000000;"
         offset="0.0000000"
         id="stop5097" />
      <stop
         style="stop-color:#000000;stop-opacity:1.0000000;"
         offset="1.0000000"
         id="stop5098" />
    </linearGradient>
    <linearGradient
       id="graytolightgray">
      <stop
         id="stop5101"
         offset="0.0000000"
         style="stop-color:#d4d3d3;stop-opacity:1.0000000;" />
      <stop
         id="stop5102"
         offset="1.0000000"
         style="stop-color:#ffffff;stop-opacity:1.0000000;" />
    </linearGradient>
    <linearGradient
       id="linearGradient7676">
      <stop
         style="stop-color:#7d7d7d;stop-opacity:1.0000000;"
         offset="0.0000000"
         id="stop7678" />
      <stop
         style="stop-color:#d3d4d4;stop-opacity:1.0000000;"
         offset="1.0000000"
         id="stop7680" />
    </linearGradient>
    <linearGradient
       id="greylighttograyw">
      <stop
         id="stop575"
         offset="0.0000000"
         style="stop-color:#b5b5b8;stop-opacity:1.0000000;" />
      <stop
         id="stop576"
         offset="1.0000000"
         style="stop-color:#ebebee;stop-opacity:1.0000000;" />
    </linearGradient>
    <linearGradient
       id="linearGradient5170">
      <stop
         id="stop5171"
         offset="0.0000000"
         style="stop-color:#8f8fa6;stop-opacity:1.0000000;" />
      <stop
         id="stop5172"
         offset="1.0000000"
         style="stop-color:#ffffff;stop-opacity:1.0000000;" />
    </linearGradient>
    <linearGradient
       id="light90to0">
      <stop
         id="stop1890"
         offset="0.0000000"
         style="stop-color:#ffffff;stop-opacity:0.90196079;" />
      <stop
         id="stop1892"
         offset="1.0000000"
         style="stop-color:#ffffff;stop-opacity:0.0000000;" />
    </linearGradient>
    <linearGradient
       gradientUnits="userSpaceOnUse"
       y2="0.57959992"
       x2="69.161827"
       y1="13.491262"
       x1="77.009377"
       gradientTransform="scale(0.373878,2.674669)"
       id="linearGradient6110"
       xlink:href="#linearGradient5201"
       inkscape:collect="always" />
    <linearGradient
       y2="179.33521"
       x2="44.318043"
       y1="129.56383"
       x1="15.147017"
       gradientTransform="matrix(1.266634,0.000000,0.000000,0.949648,62.28338,-124.5946)"
       gradientUnits="userSpaceOnUse"
       id="linearGradient7000"
       xlink:href="#garylighttowite"
       inkscape:collect="always" />
    <linearGradient
       y2="118.47764"
       x2="11.815157"
       y1="163.81963"
       x1="40.150562"
       spreadMethod="reflect"
       gradientTransform="matrix(1.284701,0.000000,0.000000,0.936296,62.28336,-124.5946)"
       gradientUnits="userSpaceOnUse"
       id="linearGradient7002"
       xlink:href="#graytolightgray"
       inkscape:collect="always" />
    <radialGradient
       r="24.045961"
       fy="271.80869"
       fx="5.1258984"
       cy="271.80869"
       cx="5.1258984"
       gradientTransform="matrix(3.040406,0.000000,0.000000,0.462115,61.70593,-138.6813)"
       gradientUnits="userSpaceOnUse"
       id="radialGradient7004"
       xlink:href="#bluelignonlinblu"
       inkscape:collect="always" />
    <radialGradient
       r="24.045961"
       fy="271.80869"
       fx="5.1258984"
       cy="271.80869"
       cx="5.1258984"
       gradientTransform="matrix(3.040485,0.000000,0.000000,-9.436030e-2,61.70547,12.53341)"
       gradientUnits="userSpaceOnUse"
       id="radialGradient7006"
       xlink:href="#bluelignonlinblu"
       inkscape:collect="always" />
    <linearGradient
       y2="175.35120"
       x2="3.3466594"
       y1="166.42171"
       x1="-5.2588677"
       gradientTransform="matrix(1.927245,0.000000,0.000000,0.554252,62.28336,-113.3789)"
       gradientUnits="userSpaceOnUse"
       id="linearGradient7008"
       xlink:href="#light100to0"
       inkscape:collect="always" />
    <radialGradient
       r="9.3687143"
       fy="174.10931"
       fx="25.056116"
       cy="174.10931"
       cx="25.056116"
       gradientTransform="matrix(1.844875,0.000000,0.000000,0.578997,62.28336,-113.3789)"
       gradientUnits="userSpaceOnUse"
       id="radialGradient7010"
       xlink:href="#linearGradient5808"
       inkscape:collect="always" />
    <linearGradient
       y2="14.121197"
       x2="28.188349"
       y1="43.472366"
       x1="41.939056"
       gradientTransform="scale(1.002291,0.997715)"
       gradientUnits="userSpaceOnUse"
       id="linearGradient7012"
       xlink:href="#graytolightgray"
       inkscape:collect="always" />
    <linearGradient
       y2="51.149952"
       x2="46.522972"
       y1="-13.198998"
       x1="7.5616975"
       gradientTransform="scale(1.002291,0.997715)"
       gradientUnits="userSpaceOnUse"
       id="linearGradient7014"
       xlink:href="#graytoblack"
       inkscape:collect="always" />
    <linearGradient
       y2="25.602371"
       x2="18.724882"
       y1="7.9817476"
       x1="5.4416661"
       gradientTransform="matrix(2.157694,-2.684106e-2,5.764396e-3,0.463386,-2.620943e-13,-2.194115e-13)"
       gradientUnits="userSpaceOnUse"
       id="linearGradient7016"
       xlink:href="#light100to0"
       inkscape:collect="always" />
    <radialGradient
       r="11.512089"
       fy="92.415352"
       fx="18.506639"
       cy="92.415352"
       cx="18.506639"
       gradientTransform="matrix(1.758912,0.000000,0.000000,0.568533,-2.620943e-13,-8.645668e-6)"
       gradientUnits="userSpaceOnUse"
       id="radialGradient7018"
       xlink:href="#light100to0"
       inkscape:collect="always" />
    <radialGradient
       r="37.230904"
       fy="74.235756"
       fx="35.044880"
       cy="74.235756"
       cx="35.044880"
       gradientTransform="scale(1.002829,0.997179)"
       gradientUnits="userSpaceOnUse"
       id="radialGradient7020"
       xlink:href="#light75to0"
       inkscape:collect="always" />
    <radialGradient
       r="4.4104571"
       fy="61.548965"
       fx="63.833946"
       cy="61.548965"
       cx="63.833946"
       gradientTransform="matrix(5.577362,0.000000,0.000000,5.361691,-368.8578,-273.1472)"
       gradientUnits="userSpaceOnUse"
       id="radialGradient7022"
       xlink:href="#linearGradient5201"
       inkscape:collect="always" />
    <linearGradient
       y2="56.483673"
       x2="62.358677"
       y1="62.298306"
       x1="65.655121"
       gradientTransform="matrix(5.577362,0.000000,0.000000,5.361691,-368.8578,-273.1472)"
       gradientUnits="userSpaceOnUse"
       id="linearGradient7024"
       xlink:href="#graytoblack"
       inkscape:collect="always" />
    <radialGradient
       r="2.3805757"
       fy="12.978644"
       fx="6.7188473"
       cy="12.978644"
       cx="6.7188473"
       gradientTransform="matrix(4.699014,0.000000,0.000000,2.913166,-44.82088,-3.284178)"
       gradientUnits="userSpaceOnUse"
       id="radialGradient7026"
       xlink:href="#light75to0"
       inkscape:collect="always" />
    <radialGradient
       r="3.8976505"
       fy="13.307540"
       fx="6.8099542"
       cy="13.307540"
       cx="6.8099542"
       gradientTransform="matrix(4.699014,0.000000,0.000000,2.913166,-44.82088,-3.284178)"
       gradientUnits="userSpaceOnUse"
       id="radialGradient7028"
       xlink:href="#light75to0"
       inkscape:collect="always" />
    <linearGradient
       y2="74.369034"
       x2="73.258949"
       y1="92.318138"
       x1="83.408669"
       gradientTransform="matrix(0.313709,0.000000,0.000000,0.312544,-99.42495,87.48182)"
       gradientUnits="userSpaceOnUse"
       id="linearGradient7030"
       xlink:href="#graytolightgray"
       inkscape:collect="always" />
    <linearGradient
       y2="93.751755"
       x2="89.250404"
       y1="65.888565"
       x1="66.009613"
       spreadMethod="reflect"
       gradientTransform="matrix(0.311525,0.000000,0.000000,0.314734,-99.22726,87.48182)"
       gradientUnits="userSpaceOnUse"
       id="linearGradient7032"
       xlink:href="#graytoblack"
       inkscape:collect="always" />
    <radialGradient
       r="3.2771389"
       fy="78.109543"
       fx="69.874687"
       cy="78.109543"
       cx="69.874687"
       gradientTransform="matrix(0.318600,0.000000,0.000000,0.307744,-99.22731,87.48185)"
       gradientUnits="userSpaceOnUse"
       id="radialGradient7034"
       xlink:href="#graytoblack"
       inkscape:collect="always" />
    <linearGradient
       y2="168.36269"
       x2="34.379585"
       y1="157.88530"
       x1="34.329636"
       gradientTransform="matrix(0.769036,0.000000,0.000000,0.136036,-101.1352,87.40144)"
       gradientUnits="userSpaceOnUse"
       id="linearGradient7036"
       xlink:href="#light100to0"
       inkscape:collect="always" />
    <linearGradient
       y2="164.02941"
       x2="38.700349"
       y1="164.02941"
       x1="30.033862"
       gradientTransform="matrix(0.769036,0.000000,0.000000,0.136036,-101.1352,87.40144)"
       gradientUnits="userSpaceOnUse"
       id="linearGradient7038"
       xlink:href="#linearGradient5761"
       inkscape:collect="always" />
    <radialGradient
       r="67.357605"
       fy="9.8876038"
       fx="32.163441"
       cy="9.8876038"
       cx="32.163441"
       gradientTransform="matrix(2.484065e-2,0.000000,0.000000,1.648067e-2,-77.27673,111.3438)"
       gradientUnits="userSpaceOnUse"
       id="radialGradient7040"
       xlink:href="#light100to0"
       inkscape:collect="always" />
    <radialGradient
       r="67.357605"
       fy="9.8876038"
       fx="32.163441"
       cy="9.8876038"
       cx="32.163441"
       gradientTransform="matrix(2.484065e-2,0.000000,0.000000,1.648067e-2,-73.61265,111.2942)"
       gradientUnits="userSpaceOnUse"
       id="radialGradient7042"
       xlink:href="#light100to0"
       inkscape:collect="always" />
    <linearGradient
       y2="86.444351"
       x2="80.537773"
       y1="89.868164"
       x1="80.537773"
       gradientTransform="matrix(0.338784,0.000000,0.000000,0.321627,-101.6945,87.48185)"
       gradientUnits="userSpaceOnUse"
       id="linearGradient7044"
       xlink:href="#light75to0"
       inkscape:collect="always" />
    <linearGradient
       y2="68.449188"
       x2="27.096176"
       y1="75.009636"
       x1="27.245455"
       spreadMethod="reflect"
       gradientTransform="matrix(2.825693,0.000000,0.000000,0.855304,11.28542,-64.90372)"
       gradientUnits="userSpaceOnUse"
       id="linearGradient7046"
       xlink:href="#greylighttograyw"
       inkscape:collect="always" />
    <linearGradient
       y2="89.022705"
       x2="31.406204"
       y1="71.470055"
       x1="23.972071"
       gradientTransform="matrix(2.908003,0.000000,0.000000,0.831096,11.28542,-64.90372)"
       gradientUnits="userSpaceOnUse"
       id="linearGradient7048"
       xlink:href="#linearGradient7676"
       inkscape:collect="always" />
    <linearGradient
       y2="68.449188"
       x2="27.096176"
       y1="75.009636"
       x1="27.245455"
       spreadMethod="reflect"
       gradientTransform="matrix(2.825693,0.000000,0.000000,0.855304,11.28542,-50.75318)"
       gradientUnits="userSpaceOnUse"
       id="linearGradient7050"
       xlink:href="#greylighttograyw"
       inkscape:collect="always" />
    <linearGradient
       y2="89.022705"
       x2="31.406204"
       y1="71.470055"
       x1="23.972071"
       gradientTransform="matrix(2.908003,0.000000,0.000000,0.831096,11.28542,-50.75318)"
       gradientUnits="userSpaceOnUse"
       id="linearGradient7052"
       xlink:href="#linearGradient7676"
       inkscape:collect="always" />
    <linearGradient
       y2="44.098660"
       x2="-32.336327"
       y1="12.169693"
       x1="-67.228615"
       gradientTransform="matrix(-0.730798,3.179337e-3,-9.251311e-3,0.762972,37.47431,-10.27083)"
       gradientUnits="userSpaceOnUse"
       id="linearGradient7055"
       xlink:href="#light100to0"
       inkscape:collect="always" />
    <linearGradient
       y2="34.489105"
       x2="-35.506561"
       y1="56.793480"
       x1="-19.521343"
       spreadMethod="reflect"
       gradientTransform="matrix(-0.821516,3.574233e-3,-8.229845e-3,0.678719,36.82356,-9.945584)"
       gradientUnits="userSpaceOnUse"
       id="linearGradient7074"
       xlink:href="#linearGradient5170"
       inkscape:collect="always" />
    <linearGradient
       y2="-85.453560"
       x2="-66.785156"
       y1="36.941799"
       x1="64.388252"
       gradientTransform="matrix(-1.009281,4.392021e-3,-1.011067e-2,0.833845,110.5552,3.835302)"
       gradientUnits="userSpaceOnUse"
       id="linearGradient7076"
       xlink:href="#linearGradient5170"
       inkscape:collect="always" />
    <linearGradient
       y2="0.57959992"
       x2="69.161827"
       y1="13.491262"
       x1="77.009377"
       gradientTransform="scale(0.373878,2.674669)"
       gradientUnits="userSpaceOnUse"
       id="linearGradient7087"
       xlink:href="#linearGradient5201"
       inkscape:collect="always" />
    <linearGradient
       y2="0.57959992"
       x2="69.161827"
       y1="13.491262"
       x1="77.009377"
       gradientTransform="scale(0.373878,2.674669)"
       gradientUnits="userSpaceOnUse"
       id="linearGradient7089"
       xlink:href="#linearGradient5201"
       inkscape:collect="always" />
    <linearGradient
       y2="0.57959992"
       x2="69.161827"
       y1="13.491262"
       x1="77.009377"
       gradientTransform="scale(0.373878,2.674669)"
       gradientUnits="userSpaceOnUse"
       id="linearGradient7091"
       xlink:href="#linearGradient5201"
       inkscape:collect="always" />
    <linearGradient
       y2="0.57959992"
       x2="69.161827"
       y1="13.491262"
       x1="77.009377"
       gradientTransform="scale(0.373878,2.674669)"
       gradientUnits="userSpaceOnUse"
       id="linearGradient7093"
       xlink:href="#linearGradient5201"
       inkscape:collect="always" />
    <linearGradient
       y2="0.57959992"
       x2="69.161827"
       y1="13.491262"
       x1="77.009377"
       gradientTransform="scale(0.373878,2.674669)"
       gradientUnits="userSpaceOnUse"
       id="linearGradient7095"
       xlink:href="#linearGradient5201"
       inkscape:collect="always" />
    <linearGradient
       y2="0.57959992"
       x2="69.161827"
       y1="13.491262"
       x1="77.009377"
       gradientTransform="scale(0.373878,2.674669)"
       gradientUnits="userSpaceOnUse"
       id="linearGradient7097"
       xlink:href="#linearGradient5201"
       inkscape:collect="always" />
    <linearGradient
       y2="0.57959992"
       x2="69.161827"
       y1="13.491262"
       x1="77.009377"
       gradientTransform="scale(0.373878,2.674669)"
       gradientUnits="userSpaceOnUse"
       id="linearGradient7099"
       xlink:href="#linearGradient5201"
       inkscape:collect="always" />
    <linearGradient
       y2="0.57959992"
       x2="69.161827"
       y1="13.491262"
       x1="77.009377"
       gradientTransform="scale(0.373878,2.674669)"
       gradientUnits="userSpaceOnUse"
       id="linearGradient7101"
       xlink:href="#linearGradient5201"
       inkscape:collect="always" />
    <linearGradient
       y2="0.57959992"
       x2="69.161827"
       y1="13.491262"
       x1="77.009377"
       gradientTransform="scale(0.373878,2.674669)"
       gradientUnits="userSpaceOnUse"
       id="linearGradient7103"
       xlink:href="#linearGradient5201"
       inkscape:collect="always" />
    <linearGradient
       y2="0.57959992"
       x2="69.161827"
       y1="13.491262"
       x1="77.009377"
       gradientTransform="scale(0.373878,2.674669)"
       gradientUnits="userSpaceOnUse"
       id="linearGradient7105"
       xlink:href="#linearGradient5201"
       inkscape:collect="always" />
    <linearGradient
       y2="0.57959992"
       x2="69.161827"
       y1="13.491262"
       x1="77.009377"
       gradientTransform="scale(0.373878,2.674669)"
       gradientUnits="userSpaceOnUse"
       id="linearGradient7107"
       xlink:href="#linearGradient5201"
       inkscape:collect="always" />
    <linearGradient
       y2="0.57959992"
       x2="69.161827"
       y1="13.491262"
       x1="77.009377"
       gradientTransform="scale(0.373878,2.674669)"
       gradientUnits="userSpaceOnUse"
       id="linearGradient7109"
       xlink:href="#linearGradient5201"
       inkscape:collect="always" />
    <linearGradient
       y2="0.57959992"
       x2="69.161827"
       y1="13.491262"
       x1="77.009377"
       gradientTransform="scale(0.373878,2.674669)"
       gradientUnits="userSpaceOnUse"
       id="linearGradient7111"
       xlink:href="#linearGradient5201"
       inkscape:collect="always" />
    <linearGradient
       y2="0.57959992"
       x2="69.161827"
       y1="13.491262"
       x1="77.009377"
       gradientTransform="scale(0.373878,2.674669)"
       gradientUnits="userSpaceOnUse"
       id="linearGradient7113"
       xlink:href="#linearGradient5201"
       inkscape:collect="always" />
    <linearGradient
       y2="0.57959992"
       x2="69.161827"
       y1="13.491262"
       x1="77.009377"
       gradientTransform="scale(0.373878,2.674669)"
       gradientUnits="userSpaceOnUse"
       id="linearGradient7115"
       xlink:href="#linearGradient5201"
       inkscape:collect="always" />
  </defs>
  <sodipodi:namedview
     id="base"
     pagecolor="#ffffff"
     bordercolor="#666666"
     borderopacity="1.0"
     inkscape:pageopacity="0.0"
     inkscape:pageshadow="2"
     inkscape:zoom="5.5000000"
     inkscape:cx="32.000000"
     inkscape:cy="30.098022"
     inkscape:current-layer="layer1"
     showgrid="true"
     inkscape:document-units="px"
     inkscape:grid-bbox="true"
     inkscape:window-width="1272"
     inkscape:window-height="902"
     inkscape:window-x="417"
     inkscape:window-y="25" />
  <metadata
     id="metadata4">
    <rdf:RDF
       id="RDF5">
      <cc:Work
         rdf:about=""
         id="Work6">
        <dc:format
           id="format7">image/svg+xml</dc:format>
        <dc:type
           id="type9"
           rdf:resource="http://purl.org/dc/dcmitype/StillImage" />
      </cc:Work>
    </rdf:RDF>
  </metadata>
  <g
     id="layer1"
     inkscape:label="Layer 1"
     inkscape:groupmode="layer">
    <g
       transform="translate(-47.63636,24.79518)"
       id="g6967">
      <path
         style="opacity:0.77865613;fill:#000000;fill-opacity:1.0000000;stroke:url(#linearGradient7000);stroke-width:4.1895814;stroke-linejoin:round;stroke-miterlimit:4.0000000;stroke-opacity:1.0000000"
         d="M 55.294285,-21.562836 L 104.07632,-21.562836 C 106.57412,-21.562836 108.58499,-19.633410 108.58499,-17.236782 L 108.58499,16.235586 C 108.58499,18.632227 106.57412,20.561654 104.07632,20.561654 L 55.294285,20.561654 C 52.796479,20.561654 50.785612,18.632227 50.785612,16.235586 L 50.785612,-17.236782 C 50.785612,-19.633410 52.796479,-21.562836 55.294285,-21.562836 z "
         id="rect3484" />
      <path
         style="fill:none;fill-opacity:1.0000000;stroke:#000000;stroke-width:5.2863312;stroke-linejoin:round;stroke-miterlimit:4.0000000;stroke-opacity:0.34841630"
         d="M 55.294285,-21.562836 L 104.07632,-21.562836 C 106.57412,-21.562836 108.58499,-19.633410 108.58499,-17.236782 L 108.58499,16.235586 C 108.58499,18.632227 106.57412,20.561654 104.07632,20.561654 L 55.294285,20.561654 C 52.796479,20.561654 50.785612,18.632227 50.785612,16.235586 L 50.785612,-17.236782 C 50.785612,-19.633410 52.796479,-21.562836 55.294285,-21.562836 z "
         id="rect1334" />
      <path
         style="fill:url(#linearGradient7002);fill-opacity:1.0000000;stroke:none;stroke-width:2.8199999;stroke-linejoin:round;stroke-miterlimit:4.0000000;stroke-opacity:1.0000000"
         d="M 55.294285,-21.562836 L 104.07632,-21.562836 C 106.57412,-21.562836 108.58499,-19.633410 108.58499,-17.236782 L 108.58499,16.235586 C 108.58499,18.632227 106.57412,20.561654 104.07632,20.561654 L 55.294285,20.561654 C 52.796479,20.561654 50.785612,18.632227 50.785612,16.235586 L 50.785612,-17.236782 C 50.785612,-19.633410 52.796479,-21.562836 55.294285,-21.562836 z "
         id="rect2110" />
      <path
         style="fill:url(#radialGradient7004);fill-opacity:1.0000000;stroke:none;stroke-width:3.4250000;stroke-linejoin:round;stroke-miterlimit:4.0000000;stroke-opacity:1.0000000"
         d="M 53.927654,-22.145457 C 51.662452,-22.145457 49.845073,-19.696521 49.845073,-16.644134 L 49.845073,-13.074571 L 109.52554,-13.074571 L 109.52554,-16.644134 C 109.52554,-19.696521 107.70816,-22.145457 105.44295,-22.145457 L 53.927654,-22.145457 z "
         id="rect1336" />
      <path
         style="fill:url(#radialGradient7006);fill-opacity:1.0000000;stroke:none;stroke-width:3.4250000;stroke-linejoin:round;stroke-miterlimit:4.0000000;stroke-opacity:1.0000000"
         d="M 53.926991,-11.262365 C 51.661728,-11.262365 49.844303,-11.762412 49.844303,-12.385682 L 49.844303,-13.114556 L 109.52630,-13.114556 L 109.52630,-12.385682 C 109.52630,-11.762412 107.70887,-11.262365 105.44361,-11.262365 L 53.926991,-11.262365 z "
         id="path3494" />
      <path
         style="fill:url(#linearGradient7008);fill-opacity:1.0000000;fill-rule:evenodd;stroke:none;stroke-width:1.0000000px;stroke-linecap:butt;stroke-linejoin:miter;stroke-opacity:1.0000000"
         d="M 81.512465,-22.616388 C 78.848271,-22.695252 55.706679,-22.639530 54.551842,-22.562807 C 51.354040,-22.350385 50.107302,-20.147657 49.963794,-17.536364 C 49.816070,-14.848345 49.993992,-16.862882 49.963794,-13.564293 C 53.846335,-13.720939 50.655084,-17.650361 55.987060,-19.069228 C 61.319036,-20.488086 81.665493,-19.532187 81.512465,-22.616388 z "
         id="path3498" />
      <path
         style="fill:#ffffff;fill-opacity:0.11764706;fill-rule:evenodd;stroke:#ffffff;stroke-width:0.0000000;stroke-linecap:butt;stroke-linejoin:round;stroke-miterlimit:4.0000000;stroke-opacity:0.099547513"
         d="M 54.383532,-13.132872 C 54.349773,-13.203240 57.526645,-13.243613 58.853152,-13.024535 C 59.076967,-12.987572 59.405163,-14.153799 59.684714,-14.216245 C 59.890240,-14.262151 60.034481,-13.100603 60.377928,-13.107933 C 75.938017,-13.440059 106.73693,-13.349791 106.77165,-13.241224 C 106.80623,-13.133118 75.823534,-12.745857 60.516270,-12.699522 C 59.954096,-12.697839 60.037974,-11.914522 59.788657,-11.895976 C 59.552901,-11.878411 59.272911,-12.609704 59.061045,-12.591184 C 57.719441,-12.473963 54.419070,-13.058789 54.383532,-13.132872 z "
         id="path4268" />
      <path
         style="fill:#ffffff;fill-opacity:0.11764706;fill-rule:evenodd;stroke:#ffffff;stroke-width:0.10335266;stroke-linecap:butt;stroke-linejoin:round;stroke-miterlimit:4.0000000;stroke-opacity:0.099547513"
         d="M 55.542627,-13.036227 C 55.532052,-13.154931 57.897552,-13.026147 59.247249,-12.976226 C 59.473710,-12.967833 59.358802,-13.284003 59.638347,-13.346436 C 59.843874,-13.392326 59.709880,-13.031836 60.053380,-13.035449 C 75.567104,-13.198446 106.87990,-13.260462 106.77165,-13.241224 C 106.43532,-13.181438 75.568532,-12.939148 60.214902,-12.747861 C 59.652770,-12.740862 59.922065,-12.421910 59.672748,-12.403351 C 59.436992,-12.385814 59.551093,-12.778831 59.339226,-12.760314 C 57.997622,-12.643092 55.549978,-12.953764 55.542627,-13.036227 z "
         id="path5038" />
      <path
         style="fill:#ffffff;fill-opacity:0.11764706;fill-rule:evenodd;stroke:#ffffff;stroke-width:0.51676333;stroke-linecap:butt;stroke-linejoin:round;stroke-miterlimit:4.0000000;stroke-opacity:0.099547513"
         d="M 55.542627,-13.036227 C 55.532052,-13.154931 57.897552,-13.026147 59.247249,-12.976226 C 59.473710,-12.967833 59.358802,-13.284003 59.638347,-13.346436 C 59.843874,-13.392326 59.709880,-13.031836 60.053380,-13.035449 C 75.567104,-13.198446 106.87990,-13.260462 106.77165,-13.241224 C 106.43532,-13.181438 75.568532,-12.939148 60.214902,-12.747861 C 59.652770,-12.740862 59.922065,-12.421910 59.672748,-12.403351 C 59.436992,-12.385814 59.551093,-12.778831 59.339226,-12.760314 C 57.997622,-12.643092 55.549978,-12.953764 55.542627,-13.036227 z "
         id="path5040" />
      <path
         style="opacity:0.84980237;fill:url(#radialGradient7010);fill-opacity:1.0000000;fill-rule:evenodd;stroke:none;stroke-width:1.0000000px;stroke-linecap:butt;stroke-linejoin:miter;stroke-opacity:1.0000000"
         d="M 91.598781,-12.224604 C 95.027412,-12.108201 107.75922,-11.504987 108.66683,-12.328794 C 109.51539,-13.099006 109.21646,-18.689674 108.18184,-18.551947 C 106.01919,-18.839364 88.241170,-18.986320 87.662699,-18.921065 C 85.356609,-18.660946 87.034934,-14.996094 90.221539,-13.163455 C 90.477099,-12.651545 91.070856,-12.196223 91.598781,-12.224604 z "
         id="path5048" />
      <g
         id="g5682"
         transform="matrix(0.181394,0.000000,0.000000,0.179224,54.40356,-8.571855)">
        <path
           transform="matrix(0.801923,0.000000,0.000000,0.808186,6.125551,6.203764)"
           d="M 64.545456 31.909090 A 32.272728 32.090908 0 1 1  0.0000000,31.909090 A 32.272728 32.090908 0 1 1  64.545456 31.909090 z"
           sodipodi:ry="32.090908"
           sodipodi:rx="32.272728"
           sodipodi:cy="31.909090"
           sodipodi:cx="32.272728"
           id="path2080"
           style="fill:url(#linearGradient7012);fill-opacity:1.0000000;stroke:none;stroke-width:15.102777;stroke-linecap:round;stroke-linejoin:round;stroke-miterlimit:4.0000000;stroke-dashoffset:0.0000000;stroke-opacity:1.0000000"
           sodipodi:type="arc" />
        <path
           transform="matrix(0.801923,0.000000,0.000000,0.808186,6.125551,6.203764)"
           d="M 64.545456 31.909090 A 32.272728 32.090908 0 1 1  0.0000000,31.909090 A 32.272728 32.090908 0 1 1  64.545456 31.909090 z"
           sodipodi:ry="32.090908"
           sodipodi:rx="32.272728"
           sodipodi:cy="31.909090"
           sodipodi:cx="32.272728"
           id="path1320"
           style="fill:none;fill-opacity:0.0000000;stroke:url(#linearGradient7014);stroke-width:15.104682;stroke-linecap:round;stroke-linejoin:round;stroke-miterlimit:4.0000000;stroke-dashoffset:0.0000000;stroke-opacity:1.0000000"
           sodipodi:type="arc" />
        <path
           sodipodi:nodetypes="czzzz"
           id="path2848"
           d="M 32.604166,1.2759568 C 20.262866,1.5868347 8.3164226,10.330787 11.644633,13.030480 C 15.165265,15.886257 16.953426,6.1188505 32.992322,6.3285874 C 49.026096,6.5382575 50.514829,16.562589 53.206050,13.761282 C 55.818798,11.041657 45.120964,0.96289566 32.604166,1.2759568 z "
           style="fill:url(#linearGradient7016);fill-opacity:1.0000000;fill-rule:evenodd;stroke:none;stroke-width:0.31000000;stroke-linecap:butt;stroke-linejoin:miter;stroke-miterlimit:4.0000000;stroke-opacity:1.0000000" />
        <path
           sodipodi:nodetypes="czzzz"
           id="path4390"
           d="M 32.346426,57.554934 C 23.566154,57.320842 15.066804,50.736619 17.434674,48.703742 C 19.939443,46.553333 21.211639,53.908220 32.622582,53.750287 C 44.029881,53.592405 45.089047,46.044053 47.003727,48.153445 C 48.862579,50.201331 41.251557,57.790670 32.346426,57.554934 z "
           style="fill:url(#radialGradient7018);fill-opacity:1.0000000;fill-rule:evenodd;stroke:none;stroke-width:0.18320659pt;stroke-linecap:butt;stroke-linejoin:miter;stroke-opacity:1.0000000" />
        <path
           transform="matrix(0.801923,0.000000,0.000000,0.808186,6.125551,6.203760)"
           d="M 64.545456 31.909090 A 32.272728 32.090908 0 1 1  0.0000000,31.909090 A 32.272728 32.090908 0 1 1  64.545456 31.909090 z"
           sodipodi:ry="32.090908"
           sodipodi:rx="32.272728"
           sodipodi:cy="31.909090"
           sodipodi:cx="32.272728"
           id="path4396"
           style="fill:none;fill-opacity:1.0000000;stroke:url(#radialGradient7020);stroke-width:11.378198;stroke-linecap:round;stroke-linejoin:round;stroke-miterlimit:4.0000000;stroke-dashoffset:0.0000000;stroke-opacity:1.0000000"
           sodipodi:type="arc" />
        <path
           sodipodi:nodetypes="cczcz"
           id="path4422"
           d="M 23.906699,9.1878251 C 14.784781,13.095774 12.563478,21.134321 13.832353,23.183143 C 16.178286,19.479679 17.139323,16.116083 25.238531,13.052956 C 33.497024,9.9295872 37.911007,12.405880 40.478799,13.601807 C 42.286859,10.510558 33.182473,5.2139618 23.906699,9.1878251 z "
           style="fill:#000000;fill-opacity:0.21774192;fill-rule:evenodd;stroke:none;stroke-width:0.18320659pt;stroke-linecap:butt;stroke-linejoin:miter;stroke-opacity:1.0000000" />
      </g>
      <g
         transform="matrix(0.160584,0.000000,0.000000,0.161935,62.25434,-10.21308)"
         id="g5669">
        <path
           style="fill:url(#radialGradient7022);fill-opacity:1.0000000;stroke:url(#linearGradient7024);stroke-width:1.1605132;stroke-linecap:round;stroke-linejoin:round;stroke-miterlimit:4.0000000;stroke-dashoffset:0.0000000;stroke-opacity:1.0000000"
           d="M 3.3259720,45.542990 C 3.3259720,54.066100 -3.8695768,60.983407 -12.735530,60.983407 C -21.601476,60.983407 -28.797030,54.066100 -28.797030,45.542990 C -28.797030,37.019879 -21.601476,30.102573 -12.735530,30.102573 C -3.8695768,30.102573 3.3259720,37.019879 3.3259720,45.542990 z "
           id="path6344" />
        <path
           style="fill:url(#radialGradient7026);fill-opacity:1.0000000;stroke:none;stroke-width:1.7625000;stroke-linecap:round;stroke-linejoin:round;stroke-miterlimit:4.0000000;stroke-dashoffset:0.0000000;stroke-opacity:1.0000000"
           d="M -1.2522068,37.350633 C -0.68611182,40.874804 -3.9926678,44.287546 -12.943525,44.598699 C -21.884717,44.909515 -25.398085,42.103467 -24.634843,37.350633 C -23.879809,32.648887 -19.397136,30.102571 -12.943525,30.102571 C -6.4899178,30.102571 -1.8111548,33.870932 -1.2522068,37.350633 z "
           id="path9920"
           sodipodi:nodetypes="czzzz" />
        <path
           style="fill:url(#radialGradient7028);fill-opacity:1.0000000;stroke:none;stroke-width:1.7625000;stroke-linecap:round;stroke-linejoin:round;stroke-miterlimit:4.0000000;stroke-dashoffset:0.0000000;stroke-opacity:1.0000000"
           d="M -1.2522068,37.350633 C -0.55739582,41.626591 -5.8768078,44.629967 -12.943525,44.598699 C -20.128001,44.567432 -25.398085,42.103467 -24.634843,37.350633 C -23.879809,32.648887 -17.630754,30.102571 -12.825766,30.102571 C -7.9030188,30.102571 -1.9289128,33.186091 -1.2522068,37.350633 z "
           id="path11786"
           sodipodi:nodetypes="czzzz" />
      </g>
      <g
         id="g7959"
         transform="matrix(1.209645,0.000000,0.000000,1.160646,150.4632,-120.8212)">
        <path
           id="rect4229"
           d="M -76.910938,109.73824 L -72.304801,109.73824 C -71.244452,109.73824 -70.390813,110.55349 -70.390813,111.56615 L -70.390813,116.31309 C -70.390813,117.32576 -71.244452,118.14100 -72.304801,118.14100 L -76.910938,118.14100 C -77.971287,118.14100 -78.824926,117.32576 -78.824926,116.31309 L -78.824926,111.56615 C -78.824926,110.55349 -77.971287,109.73824 -76.910938,109.73824 z "
           style="fill:url(#linearGradient7030);fill-opacity:1.0000000;stroke:#000000;stroke-width:0.0000000;stroke-linecap:round;stroke-linejoin:round;stroke-miterlimit:4.0000000;stroke-dashoffset:0.0000000;stroke-opacity:1.0000000" />
        <path
           id="rect2643"
           d="M -76.797440,109.69218 L -72.426478,109.69218 C -71.366130,109.69218 -70.512491,110.50743 -70.512491,111.52009 L -70.512491,116.16978 C -70.512491,117.18244 -71.366130,117.99769 -72.426478,117.99769 L -76.797440,117.99769 C -77.857789,117.99769 -78.711427,117.18244 -78.711427,116.16978 L -78.711427,111.52009 C -78.711427,110.50743 -77.857789,109.69218 -76.797440,109.69218 z "
           style="fill:none;fill-opacity:0.0000000;stroke:url(#linearGradient7032);stroke-width:1.4602780;stroke-linecap:round;stroke-linejoin:round;stroke-miterlimit:4.0000000;stroke-dashoffset:0.0000000;stroke-opacity:1.0000000" />
        <path
           id="path4194"
           d="M -76.499153,111.31019 C -76.722911,111.32300 -76.929343,111.42960 -77.068064,111.60303 C -77.318602,111.91592 -77.284347,112.36716 -76.989594,112.63776 L -75.734063,113.84819 L -77.009212,115.06839 C -77.315056,115.36449 -77.312160,115.85023 -77.009212,116.15193 C -76.706263,116.45362 -76.216467,116.45779 -75.910622,116.16169 L -74.615856,114.91221 L -73.311281,116.16169 C -73.005437,116.45779 -72.515639,116.45362 -72.212692,116.15193 C -71.909743,115.85023 -71.916656,115.36449 -72.222499,115.06839 L -73.497648,113.84819 L -72.232309,112.63776 C -71.937556,112.36716 -71.903301,111.91592 -72.153838,111.60303 C -72.292561,111.42960 -72.498992,111.32300 -72.722751,111.31019 C -72.946508,111.29737 -73.164312,111.37820 -73.321089,111.53470 L -74.615856,112.77442 L -75.900814,111.53470 C -76.057592,111.37820 -76.275395,111.29737 -76.499153,111.31019 z "
           style="fill:url(#radialGradient7034);fill-opacity:1.0000000;fill-rule:evenodd;stroke:none;stroke-width:5.5625000;stroke-linecap:round;stroke-linejoin:miter;stroke-miterlimit:4.0000000;stroke-opacity:1.0000000" />
        <path
           sodipodi:nodetypes="czzzz"
           id="path5001"
           d="M -71.373246,109.71528 C -71.373246,110.04067 -72.015159,110.33155 -74.705669,110.30476 C -77.369254,110.27796 -79.351910,110.92147 -78.549650,109.90284 C -77.757528,108.89709 -76.168759,109.12581 -73.924871,109.09902 C -71.707910,109.07222 -71.373246,109.38989 -71.373246,109.71528 z "
           style="fill:url(#linearGradient7036);fill-opacity:1.0000000;stroke:url(#linearGradient7038);stroke-width:0.0000000;stroke-linecap:round;stroke-linejoin:round;stroke-miterlimit:4.0000000;stroke-dashoffset:0.0000000;stroke-opacity:1.0000000" />
        <path
           inkscape:export-ydpi="36.000000"
           inkscape:export-xdpi="36.000000"
           inkscape:export-filename="/home/nuno/kdeplayground-artwork/oooicons/crystalsvg/world.png"
           id="path89"
           style="fill:url(#radialGradient7040);fill-opacity:1.0000000"
           d="M -75.854120,111.81458 C -75.854120,112.03022 -76.117612,112.20504 -76.442663,112.20504 C -76.767688,112.20504 -77.031180,112.03024 -77.031180,111.81458 C -77.031180,111.59893 -76.767698,111.42412 -76.442663,111.42412 C -76.117612,111.42413 -75.854120,111.59893 -75.854120,111.81458 z "
           adobe-blending-mode="screen" />
        <path
           inkscape:export-ydpi="36.000000"
           inkscape:export-xdpi="36.000000"
           inkscape:export-filename="/home/nuno/kdeplayground-artwork/oooicons/crystalsvg/world.png"
           id="path6797"
           style="fill:url(#radialGradient7042);fill-opacity:1.0000000"
           d="M -72.190056,111.76497 C -72.190056,111.98061 -72.453549,112.15543 -72.778600,112.15543 C -73.103626,112.15543 -73.367117,111.98063 -73.367117,111.76497 C -73.367117,111.54932 -73.103635,111.37451 -72.778600,111.37451 C -72.453549,111.37452 -72.190056,111.54932 -72.190056,111.76497 z "
           adobe-blending-mode="screen" />
        <path
           sodipodi:nodetypes="cccccccccc"
           id="path6801"
           d="M -75.538383,113.99680 L -76.746951,115.13346 C -77.036826,115.40928 -77.133784,115.73774 -76.846653,116.01878 C -76.559523,116.29981 -76.244854,116.17967 -75.954978,115.90384 L -74.578263,114.76472 L -73.192252,116.05268 C -72.902378,116.32850 -72.587709,116.29981 -72.300578,116.01878 C -72.013447,115.73774 -72.194479,115.40928 -72.484355,115.13346 L -73.692922,113.99680 L -75.538383,113.99680 z "
           style="fill:url(#linearGradient7044);fill-opacity:1.0000000;fill-rule:evenodd;stroke:none;stroke-width:5.5625000;stroke-linecap:round;stroke-linejoin:miter;stroke-miterlimit:4.0000000;stroke-opacity:1.0000000" />
      </g>
      <path
         style="fill:url(#linearGradient7046);fill-opacity:1.0000000;stroke:url(#linearGradient7048);stroke-width:0.77526993;stroke-linejoin:round;stroke-miterlimit:4.0000000;stroke-opacity:0.44796380"
         d="M 74.449920,-7.6123650 L 99.986369,-7.6123650 C 102.16746,-7.6123650 103.92335,-6.4735850 103.92335,-5.0590480 L 103.92335,-0.61712104 C 103.92335,0.79741696 102.16746,1.9361960 99.986369,1.9361960 L 74.449920,1.9361960 C 72.268833,1.9361960 70.512939,0.79741696 70.512939,-0.61712104 L 70.512939,-5.0590480 C 70.512939,-6.4735850 72.268833,-7.6123650 74.449920,-7.6123650 z "
         id="rect8075" />
      <path
         style="fill:url(#linearGradient7050);fill-opacity:1.0000000;stroke:url(#linearGradient7052);stroke-width:0.77526993;stroke-linejoin:round;stroke-miterlimit:4.0000000;stroke-opacity:0.44796380"
         d="M 74.449920,6.5381760 L 99.986369,6.5381760 C 102.16746,6.5381760 103.92335,7.6769570 103.92335,9.0914930 L 103.92335,13.533420 C 103.92335,14.947957 102.16746,16.086737 99.986369,16.086737 L 74.449920,16.086737 C 72.268833,16.086737 70.512939,14.947957 70.512939,13.533420 L 70.512939,9.0914930 C 70.512939,7.6769570 72.268833,6.5381760 74.449920,6.5381760 z "
         id="rect9609" />
    </g>
    <g
       inkscape:groupmode="layer"
       inkscape:label="Layer 1"
       id="g10516"
       transform="translate(-23.60635,25.31817)">
      <path
         sodipodi:nodetypes="cccccccc"
         id="path5257"
         d="M 85.728779,-3.3517238 L 85.450445,37.137832 L 36.304510,37.351665 L 85.728779,-3.3517238 z M 77.924575,13.910780 L 58.185564,30.211276 L 77.572770,29.992848 L 77.924575,13.910780 z "
         style="fill:none;fill-opacity:1.0000000;fill-rule:evenodd;stroke:#000000;stroke-width:2.4768586;stroke-linecap:butt;stroke-linejoin:round;stroke-miterlimit:4.0000000;stroke-opacity:0.076923080" />
      <path
         sodipodi:nodetypes="cccccccc"
         id="path5255"
         d="M 85.728779,-3.3517238 L 85.450445,37.137832 L 36.304510,37.351665 L 85.728779,-3.3517238 z M 77.924575,13.910780 L 58.185564,30.211276 L 77.572770,29.992848 L 77.924575,13.910780 z "
         style="fill:none;fill-opacity:1.0000000;fill-rule:evenodd;stroke:#000000;stroke-width:3.5776846;stroke-linecap:butt;stroke-linejoin:round;stroke-miterlimit:4.0000000;stroke-opacity:0.076923080" />
      <path
         sodipodi:nodetypes="cccccccc"
         id="path4487"
         d="M 85.728779,-3.3517238 L 85.450445,37.137832 L 36.304510,37.351665 L 85.728779,-3.3517238 z M 77.924575,13.910780 L 58.185564,30.211276 L 77.572770,29.992848 L 77.924575,13.910780 z "
         style="fill:none;fill-opacity:1.0000000;fill-rule:evenodd;stroke:#000000;stroke-width:2.6603296;stroke-linecap:butt;stroke-linejoin:round;stroke-miterlimit:4.0000000;stroke-opacity:0.076923080" />
      <path
         sodipodi:nodetypes="cccccccc"
         id="path1404"
         d="M 85.675521,-3.4523288 L 85.397185,37.037225 L 36.251253,37.251060 L 85.675521,-3.4523288 z M 77.871317,13.810175 L 58.132310,30.110672 L 77.519517,29.892245 L 77.871317,13.810175 z "
         style="opacity:0.84980237;fill:url(#linearGradient7074);fill-opacity:1.0000000;fill-rule:evenodd;stroke:url(#linearGradient7076);stroke-width:1.3760326;stroke-linecap:butt;stroke-linejoin:round;stroke-miterlimit:4.0000000;stroke-opacity:1.0000000" />
      <g
         transform="matrix(-1.133556e-2,-0.883751,1.079163,-7.581684e-4,45.13478,61.24898)"
         style="opacity:0.52173913;fill:url(#linearGradient6110);fill-opacity:1.0000000;stroke:none"
         id="g6079">
        <path
           id="path5261"
           d="M 27.387600,-2.2869200 L 27.325100,-1.0994200 L 32.543850,-0.84942000 L 32.606350,-2.0369200 L 27.387600,-2.2869200 z "
           style="fill:url(#linearGradient7087);fill-rule:evenodd;stroke-width:1.1897957px;stroke-linecap:butt;stroke-linejoin:miter;stroke-opacity:1.0000000" />
        <path
           id="path5263"
           d="M 27.387600,5.5255800 L 27.325100,6.7130800 L 32.543850,6.9630800 L 32.606350,5.7755800 L 27.387600,5.5255800 z "
           style="fill:url(#linearGradient7089);fill-rule:evenodd;stroke-width:1.1897957px;stroke-linecap:butt;stroke-linejoin:miter;stroke-opacity:1.0000000" />
        <path
           id="path5265"
           d="M 27.387600,13.369330 L 27.325100,14.556830 L 32.543850,14.775580 L 32.606350,13.588080 L 27.387600,13.369330 z "
           style="fill:url(#linearGradient7091);fill-rule:evenodd;stroke-width:1.1897957px;stroke-linecap:butt;stroke-linejoin:miter;stroke-opacity:1.0000000" />
        <path
           id="path5267"
           d="M 27.387600,21.181830 L 27.325100,22.369330 L 32.543850,22.619330 L 32.606350,21.431830 L 27.387600,21.181830 z "
           style="fill:url(#linearGradient7093);fill-rule:evenodd;stroke-width:1.1897957px;stroke-linecap:butt;stroke-linejoin:miter;stroke-opacity:1.0000000" />
        <path
           id="path5269"
           d="M 27.387600,28.994330 L 27.325100,30.181830 L 32.543850,30.431830 L 32.606350,29.244330 L 27.387600,28.994330 z "
           style="fill:url(#linearGradient7095);fill-rule:evenodd;stroke-width:1.1897957px;stroke-linecap:butt;stroke-linejoin:miter;stroke-opacity:1.0000000" />
        <path
           id="path5271"
           d="M 27.418850,0.46308000 L 27.325100,1.3693300 L 30.325100,1.5880800 L 30.387600,0.71308000 L 27.418850,0.46308000 z "
           style="fill:url(#linearGradient7097);fill-rule:evenodd;stroke-width:0.89852232px;stroke-linecap:butt;stroke-linejoin:miter;stroke-opacity:1.0000000" />
        <path
           id="path5273"
           d="M 27.418850,8.2755800 L 27.325100,9.1818300 L 30.325100,9.4318300 L 30.387600,8.5255800 L 27.418850,8.2755800 z "
           style="fill:url(#linearGradient7099);fill-rule:evenodd;stroke-width:0.89852232px;stroke-linecap:butt;stroke-linejoin:miter;stroke-opacity:1.0000000" />
        <path
           id="path5275"
           d="M 27.418850,16.119330 L 27.325100,17.025580 L 30.325100,17.244330 L 30.387600,16.338080 L 27.418850,16.119330 z "
           style="fill:url(#linearGradient7101);fill-rule:evenodd;stroke-width:0.89852232px;stroke-linecap:butt;stroke-linejoin:miter;stroke-opacity:1.0000000" />
        <path
           id="path5277"
           d="M 27.418850,23.931830 L 27.325100,24.838080 L 30.325100,25.056830 L 30.387600,24.181830 L 27.418850,23.931830 z "
           style="fill:url(#linearGradient7103);fill-rule:evenodd;stroke-width:0.89852232px;stroke-linecap:butt;stroke-linejoin:miter;stroke-opacity:1.0000000" />
        <path
           id="path5279"
           d="M 27.418850,31.775580 L 27.325100,32.650580 L 30.325100,32.900580 L 30.387600,31.994330 L 27.418850,31.775580 z "
           style="fill:url(#linearGradient7105);fill-rule:evenodd;stroke-width:0.89852232px;stroke-linecap:butt;stroke-linejoin:miter;stroke-opacity:1.0000000" />
        <path
           id="path5281"
           d="M 27.418850,3.0880800 L 27.325100,3.9630800 L 30.325100,4.2130800 L 30.387600,3.3068300 L 27.418850,3.0880800 z "
           style="fill:url(#linearGradient7107);fill-rule:evenodd;stroke-width:0.89852232px;stroke-linecap:butt;stroke-linejoin:miter;stroke-opacity:1.0000000" />
        <path
           id="path5283"
           d="M 27.418850,10.900580 L 27.325100,11.806830 L 30.325100,12.025580 L 30.387600,11.150580 L 27.418850,10.900580 z "
           style="fill:url(#linearGradient7109);fill-rule:evenodd;stroke-width:0.89852232px;stroke-linecap:butt;stroke-linejoin:miter;stroke-opacity:1.0000000" />
        <path
           id="path5285"
           d="M 27.418850,18.713080 L 27.325100,19.619330 L 30.325100,19.869330 L 30.387600,18.963080 L 27.418850,18.713080 z "
           style="fill:url(#linearGradient7111);fill-rule:evenodd;stroke-width:0.89852232px;stroke-linecap:butt;stroke-linejoin:miter;stroke-opacity:1.0000000" />
        <path
           id="path5287"
           d="M 27.418850,26.556830 L 27.325100,27.431830 L 30.325100,27.681830 L 30.387600,26.775580 L 27.418850,26.556830 z "
           style="fill:url(#linearGradient7113);fill-rule:evenodd;stroke-width:0.89852232px;stroke-linecap:butt;stroke-linejoin:miter;stroke-opacity:1.0000000" />
        <path
           id="path5289"
           d="M 27.418850,34.369330 L 27.325100,35.275580 L 30.325100,35.494330 L 30.387600,34.619330 L 27.418850,34.369330 z "
           style="fill:url(#linearGradient7115);fill-rule:evenodd;stroke-width:0.89852232px;stroke-linecap:butt;stroke-linejoin:miter;stroke-opacity:1.0000000" />
      </g>
      <path
         sodipodi:nodetypes="cccc"
         id="path2943"
         d="M 85.774735,-3.1068898 C 81.702143,0.21799721 75.678943,5.6965577 71.606350,9.0214439 C 72.401520,13.353053 82.111905,7.9925237 85.798846,11.909328 C 85.619978,5.8767631 85.953601,2.9256752 85.774735,-3.1068898 z "
         style="fill:url(#linearGradient7055);fill-opacity:1.0000000;fill-rule:evenodd;stroke:none;stroke-width:1.0000000px;stroke-linecap:butt;stroke-linejoin:miter;stroke-opacity:1.0000000" />
    </g>
  </g>
</svg>
