<?xml version="1.0" encoding="UTF-8" standalone="no"?>
<!DOCTYPE svg PUBLIC "-//W3C//DTD SVG 20010904//EN"
"http://www.w3.org/TR/2001/REC-SVG-20010904/DTD/svg10.dtd">
<!-- Created with Inkscape (http://www.inkscape.org/) -->
<svg
   width="64pt"
   height="64pt"
   xmlns="http://www.w3.org/2000/svg"
   xmlns:cc="http://web.resource.org/cc/"
   xmlns:inkscape="http://www.inkscape.org/namespaces/inkscape"
   xmlns:sodipodi="http://sodipodi.sourceforge.net/DTD/sodipodi-0.dtd"
   xmlns:rdf="http://www.w3.org/1999/02/22-rdf-syntax-ns#"
   xmlns:dc="http://purl.org/dc/elements/1.1/"
   xmlns:xlink="http://www.w3.org/1999/xlink"
   id="svg1104"
   sodipodi:version="0.32"
   inkscape:version="0.40"
   sodipodi:docbase="/home/nuno/kdeplayground-artwork/oooicons/crystalsvg"
   sodipodi:docname="fourstar.svg"
   inkscape:export-filename="/home/nuno/kdeplayground-artwork/oooicons/crystalsvg/fourstar.png"
   inkscape:export-xdpi="36.000000"
   inkscape:export-ydpi="36.000000">
  <defs
     id="defs3">
    <linearGradient
       inkscape:collect="always"
       xlink:href="#XMLID_1_"
       id="linearGradient1115"
       gradientUnits="userSpaceOnUse"
       x1="100.6055"
       y1="37.1133"
       x2="100.6055"
       y2="139.7401" />
    <linearGradient
       id="light100to0">
      <stop
         style="stop-color:#ffffff;stop-opacity:1.0000000;"
         offset="0.0000000"
         id="stop2764" />
      <stop
         style="stop-color:#ffffff;stop-opacity:0.0000000;"
         offset="1.0000000"
         id="stop2765" />
    </linearGradient>
    <linearGradient
       inkscape:collect="always"
       xlink:href="#light100to0"
       id="linearGradient1114"
       gradientUnits="userSpaceOnUse"
       x1="181.80115"
       y1="47.461170"
       x2="166.09862"
       y2="779.90924" />
    <linearGradient
       id="redtodarkred">
      <stop
         style="stop-color:#ff0000;stop-opacity:1.0000000;"
         offset="0.0000000"
         id="stop3856" />
      <stop
         style="stop-color:#920000;stop-opacity:1.0000000;"
         offset="1.0000000"
         id="stop3855" />
    </linearGradient>
    <linearGradient
       inkscape:collect="always"
       xlink:href="#redtodarkred"
       id="linearGradient1113"
       gradientUnits="userSpaceOnUse"
       gradientTransform="scale(1.006342,0.993698)"
       x1="-110.52393"
       y1="27.161866"
       x2="439.44683"
       y2="461.30772" />
    <linearGradient
       id="orangelesstoyelow">
      <stop
         style="stop-color:#ff7d00;stop-opacity:1.0000000;"
         offset="0.0000000"
         id="stop2689" />
      <stop
         style="stop-color:#ffbe00;stop-opacity:1.0000000;"
         offset="0.25358382"
         id="stop2690" />
      <stop
         style="stop-color:#ffff00;stop-opacity:1.0000000;"
         offset="1.0000000"
         id="stop2691" />
    </linearGradient>
    <radialGradient
       inkscape:collect="always"
       xlink:href="#orangelesstoyelow"
       id="radialGradient1112"
       gradientUnits="userSpaceOnUse"
       spreadMethod="reflect"
       cx="186.75356"
       cy="103.61057"
       fx="189.43584"
       fy="25.390987"
       r="117.68623" />
    <linearGradient
       id="XMLID_1_"
       gradientUnits="userSpaceOnUse"
       x1="100.6055"
       y1="37.1133"
       x2="100.6055"
       y2="139.7401">
      <stop
         offset="0"
         style="stop-color:#FFA700"
         id="stop9" />
      <stop
         offset="0.691"
         style="stop-color:#FFFF00"
         id="stop11" />
      <stop
         offset="0.792"
         style="stop-color:#FFFC00"
         id="stop13" />
      <stop
         offset="0.8546"
         style="stop-color:#FFF400"
         id="stop15" />
      <stop
         offset="0.9067"
         style="stop-color:#FFE500"
         id="stop17" />
      <stop
         offset="0.953"
         style="stop-color:#FFD100"
         id="stop19" />
      <stop
         offset="0.9952"
         style="stop-color:#FFB700"
         id="stop21" />
      <stop
         offset="1"
         style="stop-color:#FFB300"
         id="stop23" />
      <midPointStop
         offset="0"
         style="stop-color:#FFA700"
         id="midPointStop25" />
      <midPointStop
         offset="0.5"
         style="stop-color:#FFA700"
         id="midPointStop27" />
      <midPointStop
         offset="0.691"
         style="stop-color:#FFFF00"
         id="midPointStop29" />
      <midPointStop
         offset="0.7952"
         style="stop-color:#FFFF00"
         id="midPointStop31" />
      <midPointStop
         offset="1"
         style="stop-color:#FFB300"
         id="midPointStop33" />
    </linearGradient>
    <linearGradient
       inkscape:collect="always"
       xlink:href="#XMLID_1_"
       id="linearGradient1111"
       gradientUnits="userSpaceOnUse"
       x1="100.6055"
       y1="37.1133"
       x2="100.6055"
       y2="139.7401" />
    <linearGradient
       inkscape:collect="always"
       xlink:href="#XMLID_1_"
       id="linearGradient1205"
       gradientUnits="userSpaceOnUse"
       x1="100.6055"
       y1="37.1133"
       x2="100.6055"
       y2="139.7401" />
    <radialGradient
       inkscape:collect="always"
       xlink:href="#orangelesstoyelow"
       id="radialGradient1206"
       gradientUnits="userSpaceOnUse"
       spreadMethod="reflect"
       cx="186.75356"
       cy="103.61057"
       fx="189.43584"
       fy="25.390987"
       r="117.68623" />
    <linearGradient
       inkscape:collect="always"
       xlink:href="#redtodarkred"
       id="linearGradient1207"
       gradientUnits="userSpaceOnUse"
       gradientTransform="scale(1.006342,0.993698)"
       x1="-110.52393"
       y1="27.161866"
       x2="439.44683"
       y2="461.30772" />
    <linearGradient
       inkscape:collect="always"
       xlink:href="#light100to0"
       id="linearGradient1208"
       gradientUnits="userSpaceOnUse"
       x1="128.65289"
       y1="97.934830"
       x2="317.92572"
       y2="328.41284" />
    <linearGradient
       inkscape:collect="always"
       xlink:href="#XMLID_1_"
       id="linearGradient1209"
       gradientUnits="userSpaceOnUse"
       x1="100.6055"
       y1="37.1133"
       x2="100.6055"
       y2="139.7401" />
    <linearGradient
       inkscape:collect="always"
       xlink:href="#XMLID_1_"
       id="linearGradient1216"
       gradientUnits="userSpaceOnUse"
       x1="100.6055"
       y1="37.1133"
       x2="100.6055"
       y2="139.7401" />
    <radialGradient
       inkscape:collect="always"
       xlink:href="#orangelesstoyelow"
       id="radialGradient1217"
       gradientUnits="userSpaceOnUse"
       spreadMethod="reflect"
       cx="186.75356"
       cy="103.61057"
       fx="189.43584"
       fy="25.390987"
       r="117.68623" />
    <linearGradient
       inkscape:collect="always"
       xlink:href="#redtodarkred"
       id="linearGradient1218"
       gradientUnits="userSpaceOnUse"
       gradientTransform="scale(1.006342,0.993698)"
       x1="-110.52393"
       y1="27.161866"
       x2="439.44683"
       y2="461.30772" />
    <linearGradient
       inkscape:collect="always"
       xlink:href="#light100to0"
       id="linearGradient1219"
       gradientUnits="userSpaceOnUse"
       x1="175.18768"
       y1="66.494614"
       x2="320.44360"
       y2="437.83463" />
    <linearGradient
       inkscape:collect="always"
       xlink:href="#XMLID_1_"
       id="linearGradient1220"
       gradientUnits="userSpaceOnUse"
       x1="100.6055"
       y1="37.1133"
       x2="100.6055"
       y2="139.7401" />
    <linearGradient
       inkscape:collect="always"
       xlink:href="#XMLID_1_"
       id="linearGradient1227"
       gradientUnits="userSpaceOnUse"
       x1="100.6055"
       y1="37.1133"
       x2="100.6055"
       y2="139.7401" />
    <radialGradient
       inkscape:collect="always"
       xlink:href="#orangelesstoyelow"
       id="radialGradient1228"
       gradientUnits="userSpaceOnUse"
       spreadMethod="reflect"
       cx="186.75356"
       cy="103.61057"
       fx="189.43584"
       fy="25.390987"
       r="117.68623" />
    <linearGradient
       inkscape:collect="always"
       xlink:href="#redtodarkred"
       id="linearGradient1229"
       gradientUnits="userSpaceOnUse"
       gradientTransform="scale(1.006342,0.993698)"
       x1="-110.52393"
       y1="27.161866"
       x2="439.44683"
       y2="461.30772" />
    <linearGradient
       inkscape:collect="always"
       xlink:href="#light100to0"
       id="linearGradient1230"
       gradientUnits="userSpaceOnUse"
       x1="204.58934"
       y1="60.930973"
       x2="4.5047193"
       y2="588.15100" />
    <linearGradient
       inkscape:collect="always"
       xlink:href="#XMLID_1_"
       id="linearGradient1231"
       gradientUnits="userSpaceOnUse"
       x1="100.6055"
       y1="37.1133"
       x2="100.6055"
       y2="139.7401" />
    <radialGradient
       inkscape:collect="always"
       xlink:href="#orangelesstoyelow"
       id="radialGradient10577"
       gradientUnits="userSpaceOnUse"
       spreadMethod="reflect"
       cx="186.75356"
       cy="103.61057"
       fx="189.43584"
       fy="25.390987"
       r="117.68623"
       gradientTransform="matrix(0.123865,0.000000,7.055656e-4,0.115131,34.49154,-1.163859)" />
    <linearGradient
       inkscape:collect="always"
       xlink:href="#redtodarkred"
       id="linearGradient10578"
       gradientUnits="userSpaceOnUse"
       gradientTransform="matrix(0.124651,0.000000,7.011191e-4,0.114405,34.49154,-1.163859)"
       x1="-110.52393"
       y1="27.161866"
       x2="439.44683"
       y2="461.30772" />
    <linearGradient
       inkscape:collect="always"
       xlink:href="#light100to0"
       id="linearGradient10579"
       gradientUnits="userSpaceOnUse"
       x1="181.80115"
       y1="47.461170"
       x2="166.09862"
       y2="779.90924"
       gradientTransform="matrix(0.127897,0.000000,7.536935e-4,0.122984,34.02289,-1.900262)" />
    <radialGradient
       inkscape:collect="always"
       xlink:href="#orangelesstoyelow"
       id="radialGradient10582"
       gradientUnits="userSpaceOnUse"
       gradientTransform="matrix(0.123865,0.000000,7.055656e-4,0.115131,-0.508460,37.58614)"
       spreadMethod="reflect"
       cx="186.75356"
       cy="103.61057"
       fx="189.43584"
       fy="25.390987"
       r="117.68623" />
    <linearGradient
       inkscape:collect="always"
       xlink:href="#redtodarkred"
       id="linearGradient10583"
       gradientUnits="userSpaceOnUse"
       gradientTransform="matrix(0.124651,0.000000,7.011191e-4,0.114405,-0.508460,37.58614)"
       x1="-110.52393"
       y1="27.161866"
       x2="439.44683"
       y2="461.30772" />
    <linearGradient
       inkscape:collect="always"
       xlink:href="#light100to0"
       id="linearGradient10584"
       gradientUnits="userSpaceOnUse"
       gradientTransform="matrix(0.127897,0.000000,7.536935e-4,0.122984,-0.977110,36.84974)"
       x1="181.80115"
       y1="47.461170"
       x2="166.09862"
       y2="779.90924" />
    <radialGradient
       inkscape:collect="always"
       xlink:href="#orangelesstoyelow"
       id="radialGradient10587"
       gradientUnits="userSpaceOnUse"
       gradientTransform="matrix(0.123865,0.000000,7.055656e-4,0.115131,34.49154,37.58614)"
       spreadMethod="reflect"
       cx="186.75356"
       cy="103.61057"
       fx="189.43584"
       fy="25.390987"
       r="117.68623" />
    <linearGradient
       inkscape:collect="always"
       xlink:href="#redtodarkred"
       id="linearGradient10588"
       gradientUnits="userSpaceOnUse"
       gradientTransform="matrix(0.124651,0.000000,7.011191e-4,0.114405,34.49154,37.58614)"
       x1="-110.52393"
       y1="27.161866"
       x2="439.44683"
       y2="461.30772" />
    <linearGradient
       inkscape:collect="always"
       xlink:href="#light100to0"
       id="linearGradient10589"
       gradientUnits="userSpaceOnUse"
       gradientTransform="matrix(0.127897,0.000000,7.536935e-4,0.122984,34.02289,36.84974)"
       x1="181.80115"
       y1="47.461170"
       x2="166.09862"
       y2="779.90924" />
  </defs>
  <sodipodi:namedview
     id="base"
     pagecolor="#ffffff"
     bordercolor="#666666"
     borderopacity="1.0"
     inkscape:pageopacity="0.0"
     inkscape:pageshadow="2"
     inkscape:zoom="5.9218750"
     inkscape:cx="33.766171"
     inkscape:cy="30.466524"
     inkscape:current-layer="layer1"
     showgrid="true"
     inkscape:grid-bbox="true"
     gridspacingy="1.0000000pt"
     gridspacingx="1.0000000pt"
     gridoriginy="0.0000000pt"
     gridoriginx="0.0000000pt"
     inkscape:window-width="640"
     inkscape:window-height="538"
     inkscape:window-x="638"
     inkscape:window-y="25" />
  <metadata
     id="metadata4">
    <rdf:RDF
       id="RDF5">
      <cc:Work
         rdf:about=""
         id="Work6">
        <dc:format
           id="format7">image/svg+xml</dc:format>
        <dc:type
           id="type9"
           rdf:resource="http://purl.org/dc/dcmitype/StillImage" />
      </cc:Work>
    </rdf:RDF>
  </metadata>
  <g
     id="layer1"
     inkscape:label="Layer 1"
     inkscape:groupmode="layer">
    <path
       d="M 368.14861,151.61839 C 367.25764,148.68557 364.31536,143.66923 354.63309,143.05518 L 251.99676,136.77407 C 246.12405,136.41358 238.91340,130.89011 236.86209,125.16501 L 201.21733,25.620435 C 197.83400,16.244597 192.35498,14.808740 189.37718,14.778190 C 186.40826,14.744585 180.89963,16.097956 177.36831,25.406584 L 139.86464,124.19047 C 137.67125,129.94611 130.48132,135.22823 124.49317,135.47263 L 21.773958,139.75576 C 12.112398,140.10098 9.0665179,145.02872 8.1104279,147.93709 C 7.1543379,150.84547 6.6807279,156.67749 14.199228,163.05329 L 93.625898,230.37053 C 98.228758,234.31455 100.88095,243.02745 99.261808,248.98778 L 71.407858,351.08024 C 68.797108,360.70353 72.405398,365.19746 74.782298,367.02436 C 77.174008,368.85126 82.395518,371.11197 90.580018,365.72903 L 177.17295,308.60332 C 182.24053,305.24892 191.07328,305.32224 196.08462,308.75913 L 281.56161,367.66286 C 289.62771,373.22909 294.89954,371.06309 297.32677,369.27896 C 299.75400,367.49483 303.44812,363.04978 300.97353,353.37150 L 275.06137,250.70164 C 273.58135,244.81769 276.43187,236.04674 281.04360,232.29519 L 361.78454,166.57267 C 369.38591,160.38016 369.03958,154.55120 368.14861,151.61839 z "
       id="path1107"
       style="fill:url(#radialGradient1112);stroke:url(#linearGradient1113);stroke-width:9.0019798;stroke-linejoin:round;stroke-miterlimit:4.0000000;stroke-opacity:0.41874996;stroke-dasharray:none;"
       transform="matrix(0.123865,0.000000,7.055656e-4,0.115131,-0.928934,-1.647458)" />
    <path
       d="M 272.12380,210.01832 L 321.29466,168.15956 C 327.20826,163.12463 326.93597,158.38064 326.24285,155.99379 C 325.55521,153.60695 323.26679,149.52793 315.73039,149.02920 L 235.88858,143.92006 C 231.31724,143.62912 225.71444,139.13450 224.11916,134.47660 L 196.38852,53.496225 C 193.76179,45.869616 189.49573,44.702914 187.18257,44.676197 C 184.87213,44.649478 180.58684,45.750867 177.84183,53.321071 L 148.66441,133.68394 C 146.95911,138.36561 141.36732,142.66428 136.70796,142.86022 L 56.802904,146.34550 C 49.288503,146.62453 46.917566,150.63230 46.174926,153.00133 C 45.432287,155.36740 45.060967,160.11139 50.911309,165.29772 L 112.69324,220.06144 C 116.27441,223.26765 118.33730,230.35988 117.07756,235.20779 L 116.38719,237.86479 C 124.97977,238.55946 133.70164,238.96023 142.56379,238.96023 C 190.95627,238.96023 235.69055,228.20758 272.12380,210.01832 z "
       id="path1108"
       style="fill:url(#linearGradient1114);fill-opacity:1.0;"
       transform="matrix(0.127897,0.000000,7.536935e-4,0.122984,-1.397579,-2.383861)" />
    <path
       d="M 80.199242,16.292118 C 80.086813,15.954460 79.718828,15.376923 78.519100,15.306227 L 65.801619,14.583077 C 65.073942,14.541573 64.176897,13.905650 63.918772,13.246514 L 59.433399,1.7858475 C 59.007708,0.70639794 58.328036,0.54108628 57.959169,0.53756903 C 57.591400,0.53370006 56.910028,0.68951501 56.479189,1.7612267 L 51.903496,13.134314 C 51.635872,13.796967 50.749019,14.405103 50.007469,14.433241 L 37.287176,14.926362 C 36.090690,14.966107 35.716889,15.533443 35.600515,15.868286 C 35.484141,16.203131 35.429592,16.874577 36.365370,17.608630 L 46.251051,25.358931 C 46.823967,25.813010 47.158628,26.816135 46.962279,27.502353 L 43.584182,39.256360 C 43.267591,40.364299 43.717703,40.881690 44.013407,41.092023 C 44.310945,41.302356 44.959302,41.562633 45.969277,40.942890 L 56.654805,34.365950 C 57.280134,33.979755 58.374254,33.988196 58.997409,34.383889 L 69.626577,41.165534 C 70.629611,41.806380 71.281078,41.557006 71.580468,41.351597 C 71.879858,41.146189 72.334294,40.634425 72.020951,39.520155 L 68.738901,27.699672 C 68.551426,27.022247 68.898318,26.012438 69.466903,25.580519 L 79.421508,18.013819 C 80.358682,17.300869 80.311671,16.629775 80.199242,16.292118 z "
       id="path10575"
       style="fill:url(#radialGradient10577);stroke:url(#linearGradient10578);stroke-width:1.0750000;stroke-linejoin:round;stroke-miterlimit:4.0000000;stroke-opacity:0.41874996" />
    <path
       d="M 68.985000,23.928631 L 75.242256,18.780674 C 75.994793,18.161458 75.956393,17.578023 75.865946,17.284479 C 75.776200,16.990935 75.480443,16.489281 74.516185,16.427945 L 64.300806,15.799603 C 63.715926,15.763822 62.995957,15.211056 62.788415,14.638208 L 59.180715,4.6789180 C 58.839016,3.7409671 58.292520,3.5974814 57.996654,3.5941957 C 57.701135,3.5909096 57.153890,3.7263629 56.808517,4.6573768 L 53.137381,14.540724 C 52.922807,15.116494 52.210874,15.645162 51.615103,15.669260 L 41.398113,16.097893 C 40.437254,16.132209 40.137039,16.625101 40.043843,16.916454 C 39.950645,17.207443 39.906730,17.790877 40.658880,18.428713 L 48.601879,25.163774 C 49.062316,25.558087 49.331499,26.430318 49.174036,27.026533 L 49.087742,27.353302 C 50.187231,27.438735 51.303034,27.488023 52.436476,27.488023 C 58.625729,27.488023 64.339005,26.165619 68.985000,23.928631 z "
       id="path10576"
       style="fill:url(#linearGradient10579);fill-opacity:1.0000000" />
    <path
       d="M 45.199242,55.042118 C 45.086813,54.704460 44.718828,54.126923 43.519100,54.056227 L 30.801619,53.333077 C 30.073942,53.291573 29.176897,52.655650 28.918772,51.996514 L 24.433399,40.535848 C 24.007708,39.456398 23.328036,39.291086 22.959169,39.287569 C 22.591400,39.283700 21.910028,39.439515 21.479189,40.511227 L 16.903496,51.884314 C 16.635872,52.546967 15.749019,53.155103 15.007469,53.183241 L 2.2871760,53.676362 C 1.0906900,53.716107 0.71688903,54.283443 0.60051503,54.618286 C 0.48414103,54.953131 0.42959203,55.624577 1.3653700,56.358630 L 11.251051,64.108931 C 11.823967,64.563010 12.158628,65.566135 11.962279,66.252353 L 8.5841820,78.006360 C 8.2675910,79.114299 8.7177030,79.631690 9.0134070,79.842023 C 9.3109450,80.052356 9.9593020,80.312633 10.969277,79.692890 L 21.654805,73.115950 C 22.280134,72.729755 23.374254,72.738196 23.997409,73.133889 L 34.626577,79.915534 C 35.629611,80.556380 36.281078,80.307006 36.580468,80.101597 C 36.879858,79.896189 37.334294,79.384425 37.020951,78.270155 L 33.738901,66.449672 C 33.551426,65.772247 33.898318,64.762438 34.466903,64.330519 L 44.421508,56.763819 C 45.358682,56.050869 45.311671,55.379775 45.199242,55.042118 z "
       id="path10580"
       style="fill:url(#radialGradient10582);stroke:url(#linearGradient10583);stroke-width:1.0750000;stroke-linejoin:round;stroke-miterlimit:4.0000000;stroke-opacity:0.41874996" />
    <path
       d="M 33.985000,62.678631 L 40.242256,57.530674 C 40.994793,56.911458 40.956393,56.328023 40.865946,56.034479 C 40.776200,55.740935 40.480443,55.239281 39.516185,55.177945 L 29.300806,54.549603 C 28.715926,54.513822 27.995957,53.961056 27.788415,53.388208 L 24.180715,43.428918 C 23.839016,42.490967 23.292520,42.347481 22.996654,42.344196 C 22.701135,42.340910 22.153890,42.476363 21.808517,43.407377 L 18.137381,53.290724 C 17.922807,53.866494 17.210874,54.395162 16.615103,54.419260 L 6.3981130,54.847893 C 5.4372540,54.882209 5.1370390,55.375101 5.0438430,55.666454 C 4.9506450,55.957443 4.9067300,56.540877 5.6588800,57.178713 L 13.601879,63.913774 C 14.062316,64.308087 14.331499,65.180318 14.174036,65.776533 L 14.087742,66.103302 C 15.187231,66.188735 16.303034,66.238023 17.436476,66.238023 C 23.625729,66.238023 29.339005,64.915619 33.985000,62.678631 z "
       id="path10581"
       style="fill:url(#linearGradient10584);fill-opacity:1.0000000" />
    <path
       d="M 80.199242,55.042118 C 80.086813,54.704460 79.718828,54.126923 78.519100,54.056227 L 65.801619,53.333077 C 65.073942,53.291573 64.176897,52.655650 63.918772,51.996514 L 59.433399,40.535848 C 59.007708,39.456398 58.328036,39.291086 57.959169,39.287569 C 57.591400,39.283700 56.910028,39.439515 56.479189,40.511227 L 51.903496,51.884314 C 51.635872,52.546967 50.749019,53.155103 50.007469,53.183241 L 37.287176,53.676362 C 36.090690,53.716107 35.716889,54.283443 35.600515,54.618286 C 35.484141,54.953131 35.429592,55.624577 36.365370,56.358630 L 46.251051,64.108931 C 46.823967,64.563010 47.158628,65.566135 46.962279,66.252353 L 43.584182,78.006360 C 43.267591,79.114299 43.717703,79.631690 44.013407,79.842023 C 44.310945,80.052356 44.959302,80.312633 45.969277,79.692890 L 56.654805,73.115950 C 57.280134,72.729755 58.374254,72.738196 58.997409,73.133889 L 69.626577,79.915534 C 70.629611,80.556380 71.281078,80.307006 71.580468,80.101597 C 71.879858,79.896189 72.334294,79.384425 72.020951,78.270155 L 68.738901,66.449672 C 68.551426,65.772247 68.898318,64.762438 69.466903,64.330519 L 79.421508,56.763819 C 80.358682,56.050869 80.311671,55.379775 80.199242,55.042118 z "
       id="path10585"
       style="fill:url(#radialGradient10587);stroke:url(#linearGradient10588);stroke-width:1.0750000;stroke-linejoin:round;stroke-miterlimit:4.0000000;stroke-opacity:0.41874996" />
    <path
       d="M 68.985000,62.678631 L 75.242256,57.530674 C 75.994793,56.911458 75.956393,56.328023 75.865946,56.034479 C 75.776200,55.740935 75.480443,55.239281 74.516185,55.177945 L 64.300806,54.549603 C 63.715926,54.513822 62.995957,53.961056 62.788415,53.388208 L 59.180715,43.428918 C 58.839016,42.490967 58.292520,42.347481 57.996654,42.344196 C 57.701135,42.340910 57.153890,42.476363 56.808517,43.407377 L 53.137381,53.290724 C 52.922807,53.866494 52.210874,54.395162 51.615103,54.419260 L 41.398113,54.847893 C 40.437254,54.882209 40.137039,55.375101 40.043843,55.666454 C 39.950645,55.957443 39.906730,56.540877 40.658880,57.178713 L 48.601879,63.913774 C 49.062316,64.308087 49.331499,65.180318 49.174036,65.776533 L 49.087742,66.103302 C 50.187231,66.188735 51.303034,66.238023 52.436476,66.238023 C 58.625729,66.238023 64.339005,64.915619 68.985000,62.678631 z "
       id="path10586"
       style="fill:url(#linearGradient10589);fill-opacity:1.0000000" />
  </g>
</svg>
