<?xml version="1.0" encoding="UTF-8" standalone="no"?>
<!DOCTYPE svg PUBLIC "-//W3C//DTD SVG 20010904//EN"
"http://www.w3.org/TR/2001/REC-SVG-20010904/DTD/svg10.dtd">
<!-- Created with Inkscape (http://www.inkscape.org/) -->
<svg
   width="64pt"
   height="64pt"
   id="svg6618"
   sodipodi:version="0.32"
   inkscape:version="0.40"
   sodipodi:docbase="/home/nuno/kdeplayground-artwork/oooicons/crystalsvg"
   sodipodi:docname="frame-number-normal.svg"
   inkscape:export-filename="/home/nuno/kdeplayground-artwork/oooicons/crystalsvg/framenumbernormal.png"
   inkscape:export-xdpi="36.000000"
   inkscape:export-ydpi="36.000000"
   xmlns="http://www.w3.org/2000/svg"
   xmlns:cc="http://web.resource.org/cc/"
   xmlns:inkscape="http://www.inkscape.org/namespaces/inkscape"
   xmlns:sodipodi="http://sodipodi.sourceforge.net/DTD/sodipodi-0.dtd"
   xmlns:rdf="http://www.w3.org/1999/02/22-rdf-syntax-ns#"
   xmlns:dc="http://purl.org/dc/elements/1.1/"
   xmlns:xlink="http://www.w3.org/1999/xlink">
  <defs
     id="defs3">
    <linearGradient
       id="bludraktowhite"
       gradientUnits="userSpaceOnUse"
       x1="33.332001"
       y1="10.305200"
       x2="33.332001"
       y2="91.407700">
      <linearGradient
         id="bluedrklighttowite"
         gradientUnits="userSpaceOnUse"
         x1="33.332001"
         y1="10.305200"
         x2="33.332001"
         y2="91.407700">
        <stop
           offset="0.0000000"
           style="stop-color:#ffffff;stop-opacity:1.0000000;"
           id="stop2517" />
        <stop
           offset="1.0000000"
           style="stop-color:#a9a9bb;stop-opacity:1.0000000;"
           id="stop2518" />
      </linearGradient>
      <stop
         offset="0"
         style="stop-color:rgb(255,255,255)"
         id="stop7271" />
      <stop
         offset="1"
         style="stop-color:rgb(84,84,119)"
         id="stop7273" />
    </linearGradient>
    <linearGradient
       xlink:href="#bludraktowhite"
       id="linearGradient578"
       x1="-152.34778"
       y1="437.18376"
       x2="-126.80632"
       y2="437.18376"
       gradientTransform="matrix(1.395481,0.000000,0.000000,0.716599,173.4384,-250.5419)"
       gradientUnits="userSpaceOnUse" />
    <linearGradient
       id="wihitetolightgray">
      <stop
         style="stop-color:#ffffff;stop-opacity:1.0000000;"
         offset="0.0000000"
         id="stop1885" />
      <stop
         style="stop-color:#d5d4d4;stop-opacity:1.0000000;"
         offset="1.0000000"
         id="stop1886" />
    </linearGradient>
    <linearGradient
       id="light100to0">
      <stop
         style="stop-color:#ffffff;stop-opacity:1.0000000;"
         offset="0.0000000"
         id="stop2764" />
      <stop
         style="stop-color:#ffffff;stop-opacity:0.0000000;"
         offset="1.0000000"
         id="stop2765" />
    </linearGradient>
    <linearGradient
       inkscape:collect="always"
       xlink:href="#light100to0"
       id="linearGradient4749"
       gradientUnits="userSpaceOnUse"
       gradientTransform="matrix(0.296147,0.000000,0.000000,0.288214,-2.542834,-16.39913)"
       x1="33.142147"
       y1="-43.841412"
       x2="190.95435"
       y2="351.92505" />
    <linearGradient
       id="yelowtoorange">
      <stop
         style="stop-color:#ffff00;stop-opacity:1.0000000;"
         offset="0.0000000"
         id="stop3105" />
      <stop
         style="stop-color:#ff8c00;stop-opacity:1.0000000;"
         offset="1.0000000"
         id="stop3107" />
    </linearGradient>
    <linearGradient
       inkscape:collect="always"
       xlink:href="#bludraktowhite"
       id="linearGradient4750"
       gradientUnits="userSpaceOnUse"
       gradientTransform="matrix(0.296147,0.000000,0.000000,0.288214,-2.542834,-16.39913)"
       x1="1.9200591"
       y1="61.150455"
       x2="262.79349"
       y2="318.86072" />
    <linearGradient
       inkscape:collect="always"
       xlink:href="#light100to0"
       id="linearGradient8532"
       gradientTransform="scale(1.340480,0.746001)"
       x1="25.937859"
       y1="21.588600"
       x2="35.577473"
       y2="62.577965"
       gradientUnits="userSpaceOnUse" />
    <linearGradient
       inkscape:collect="always"
       xlink:href="#light100to0"
       id="linearGradient9159"
       gradientTransform="matrix(0.828480,0.000000,2.074766e-2,1.001375,-8.532872,1.043219)"
       x1="40.476467"
       y1="80.732117"
       x2="40.697975"
       y2="26.602571"
       gradientUnits="userSpaceOnUse" />
    <radialGradient
       inkscape:collect="always"
       xlink:href="#wihitetolightgray"
       id="radialGradient3565"
       gradientTransform="scale(1.013517,0.986663)"
       cx="57.689056"
       cy="58.919807"
       fx="57.689056"
       fy="58.919807"
       r="78.305862"
       gradientUnits="userSpaceOnUse" />
    <radialGradient
       inkscape:collect="always"
       xlink:href="#light100to0"
       id="radialGradient5413"
       gradientTransform="matrix(3.360392,0.000000,0.000000,2.003786,-22.58718,-60.42502)"
       cx="25.466112"
       cy="55.891121"
       fx="25.466112"
       fy="55.891121"
       r="7.5531416"
       gradientUnits="userSpaceOnUse" />
    <radialGradient
       inkscape:collect="always"
       xlink:href="#light100to0"
       id="radialGradient5415"
       gradientUnits="userSpaceOnUse"
       gradientTransform="matrix(3.360392,0.000000,0.000000,2.003786,-22.58718,-60.42502)"
       cx="20.284950"
       cy="50.388248"
       fx="20.284950"
       fy="50.388248"
       r="4.7775111" />
  </defs>
  <sodipodi:namedview
     id="base"
     pagecolor="#ffffff"
     bordercolor="#666666"
     borderopacity="1.0"
     inkscape:pageopacity="0.0"
     inkscape:pageshadow="2"
     inkscape:zoom="11.640625"
     inkscape:cx="32.000000"
     inkscape:cy="32.000000"
     inkscape:current-layer="layer1"
     showgrid="false"
     inkscape:grid-bbox="false"
     gridspacingy="1.0000000pt"
     gridspacingx="1.0000000pt"
     gridoriginy="0.0000000pt"
     gridoriginx="0.0000000pt"
     inkscape:window-width="1280"
     inkscape:window-height="904"
     inkscape:window-x="0"
     inkscape:window-y="25" />
  <metadata
     id="metadata4">
    <rdf:RDF
       id="RDF5">
      <cc:Work
         rdf:about=""
         id="Work6">
        <dc:format
           id="format7">image/svg+xml</dc:format>
        <dc:type
           id="type9"
           rdf:resource="http://purl.org/dc/dcmitype/StillImage" />
      </cc:Work>
    </rdf:RDF>
  </metadata>
  <g
     id="layer1"
     inkscape:label="Layer 1"
     inkscape:groupmode="layer">
    <path
       style="font-size:12.000000;fill:none;fill-opacity:1.0000000;fill-rule:evenodd;stroke:#686b69;stroke-width:8.2500000;stroke-linejoin:round;stroke-miterlimit:4.0000000;stroke-opacity:0.18442620;"
       d="M 18.798353,9.3899776 L 61.585603,9.3899776 C 67.822393,9.3899776 72.843353,14.512685 72.843353,20.875857 L 72.843353,61.476627 C 72.843353,67.839800 67.822393,72.962500 61.585603,72.962500 L 18.798353,72.962500 C 12.561552,72.962500 7.5405921,67.839800 7.5405921,61.476627 L 7.5405921,20.875857 C 7.5405921,14.512685 12.561552,9.3899776 18.798353,9.3899776 z "
       id="path5996"
       inkscape:export-filename="/home/nuno/kdeplayground-artwork/oooicons/crystalsvg/path5996.png"
       inkscape:export-xdpi="36.000000"
       inkscape:export-ydpi="36.000000" />
    <path
       style="font-size:12.000000;fill:url(#radialGradient3565);fill-opacity:1.0;fill-rule:evenodd;stroke:none;stroke-width:23.112499;stroke-linejoin:round;"
       d="M 19.223338,9.9449115 L 62.010580,9.9449115 C 68.247378,9.9449115 73.268338,15.067619 73.268338,21.430791 L 73.268338,62.031561 C 73.268338,68.394733 68.247378,73.517440 62.010580,73.517440 L 19.223338,73.517440 C 12.986540,73.517440 7.9655805,68.394733 7.9655805,62.031561 L 7.9655805,21.430791 C 7.9655805,15.067619 12.986540,9.9449115 19.223338,9.9449115 z "
       id="rect748" />
    <path
       style="font-size:12.000000;font-style:normal;font-weight:normal;fill:#000000;fill-opacity:1.0000000;stroke:#000000;stroke-width:1.2687691;stroke-linecap:butt;stroke-linejoin:miter;stroke-miterlimit:4.0000000;stroke-opacity:1.0000000;font-family:Bitstream Vera Sans"
       d="M 19.305492,49.674701 L 23.619490,49.674701 L 23.619490,29.532755 L 18.926383,30.805995 L 18.926383,27.552158 L 23.593347,26.278920 L 26.234036,26.278920 L 26.234036,49.674701 L 30.548035,49.674701 L 30.548035,52.680964 L 19.305492,52.680964 L 19.305492,49.674701 M 38.117145,49.674701 L 47.333419,49.674701 L 47.333419,52.680964 L 34.940472,52.680964 L 34.940472,49.674701 C 35.942713,48.271785 37.306632,46.391402 39.032238,44.033544 C 40.766542,41.663913 41.855937,40.137205 42.300417,39.453418 C 43.145777,38.168402 43.734049,37.083792 44.065236,36.199582 C 44.405116,35.303613 44.575060,34.425315 44.575073,33.564682 C 44.575060,32.161781 44.209025,31.018223 43.476963,30.134008 C 42.753595,29.249838 41.808002,28.807740 40.640183,28.807716 C 39.812235,28.807740 38.936363,29.002263 38.012563,29.391283 C 37.097468,29.780353 36.117013,30.369813 35.071200,31.159674 L 35.071200,27.552158 C 36.134445,26.974511 37.127971,26.538309 38.051780,26.243552 C 38.975581,25.948848 39.820949,25.801482 40.587890,25.801455 C 42.609796,25.801482 44.222097,26.485256 45.424800,27.852788 C 46.627476,29.220362 47.228821,31.047698 47.228836,33.334790 C 47.228821,34.419421 47.076306,35.450979 46.771291,36.429470 C 46.474961,37.396206 45.930266,38.539763 45.137199,39.860144 C 44.919308,40.202046 44.226454,41.192341 43.058636,42.831038 C 41.890797,44.457962 40.243636,46.739183 38.117145,49.674701 M 60.837544,38.445434 C 62.101228,38.810916 63.086041,39.571320 63.791980,40.726656 C 64.506608,41.882014 64.863929,43.308511 64.863945,45.006155 C 64.863929,47.611587 64.201577,49.627548 62.876890,51.054046 C 61.552174,52.480546 59.669704,53.193796 57.229471,53.193796 C 56.410240,53.193796 55.564871,53.081796 54.693363,52.857802 C 53.830557,52.645594 52.937256,52.321392 52.013452,51.885187 L 52.013452,48.436830 C 52.745523,49.014509 53.547316,49.450710 54.418835,49.745439 C 55.290347,50.040172 56.201076,50.187537 57.151035,50.187534 C 58.806905,50.187537 60.066242,49.745441 60.929054,48.861243 C 61.800555,47.977054 62.236314,46.692025 62.236326,45.006155 C 62.236314,43.449982 61.831058,42.235691 61.020562,41.363276 C 60.218758,40.479093 59.098862,40.036995 57.660872,40.036985 L 55.386218,40.036985 L 55.386218,37.101460 L 57.765453,37.101460 C 59.064002,37.101474 60.057528,36.753693 60.746034,36.058110 C 61.434520,35.350770 61.778768,34.336896 61.778780,33.016482 C 61.778768,31.660737 61.421447,30.623286 60.706815,29.904117 C 60.000881,29.173205 58.985565,28.807740 57.660872,28.807716 C 56.937507,28.807740 56.161859,28.913843 55.333925,29.126027 C 54.505981,29.338256 53.595250,29.668356 52.601726,30.116326 L 52.601726,26.933224 C 53.603965,26.555995 54.540841,26.273054 55.412362,26.084399 C 56.292586,25.895797 57.120524,25.801482 57.896181,25.801455 C 59.900655,25.801482 61.486810,26.420418 62.654652,27.658263 C 63.822469,28.884369 64.406383,30.546654 64.406398,32.645119 C 64.406383,34.107004 64.096996,35.344875 63.478235,36.358737 C 62.859445,37.360837 61.979216,38.056404 60.837544,38.445434"
       id="text4784" />
    <path
       style="font-size:12.000000;fill:url(#linearGradient4749);fill-opacity:1.0000000;fill-rule:evenodd;stroke:none;stroke-width:23.112499;stroke-linejoin:round"
       d="M 19.226060,8.3639933 C 12.989262,8.3639933 7.9655805,13.485893 7.9655805,19.849065 L 7.9655805,60.447037 C 7.9655805,62.487951 8.5224045,64.374585 9.4299000,66.032190 C 47.656183,68.876027 33.751875,17.912078 71.941790,14.533733 C 70.062976,10.875907 66.359361,8.3639933 62.015884,8.3639933 L 19.226060,8.3639933 z "
       id="path2872"
       sodipodi:nodetypes="ccccccc" />
    <path
       style="font-size:12.000000;fill:none;fill-opacity:1.0;fill-rule:evenodd;stroke:url(#linearGradient4750);stroke-width:6.7524076;stroke-linejoin:round;"
       d="M 18.798350,9.3314424 L 61.585604,9.3314424 C 67.822389,9.3314424 72.843349,14.454150 72.843349,20.817322 L 72.843349,61.418092 C 72.843349,67.781264 67.822389,72.903971 61.585604,72.903971 L 18.798350,72.903971 C 12.561552,72.903971 7.5405923,67.781264 7.5405923,61.418092 L 7.5405923,20.817322 C 7.5405923,14.454150 12.561552,9.3314424 18.798350,9.3314424 z "
       id="path3499" />
    <path
       style="font-size:12.000000;font-style:normal;font-weight:normal;fill:url(#radialGradient5413);fill-opacity:1.0000000;stroke:none;stroke-width:0.48894718;stroke-linecap:butt;stroke-linejoin:miter;stroke-miterlimit:4.0000000;stroke-opacity:1.0000000;font-family:Bitstream Vera Sans"
       d="M 19.305492,49.674701 L 23.619490,49.674701 L 23.619490,29.532755 L 18.926383,30.805995 L 18.926383,27.552158 L 23.593347,26.278920 L 26.234036,26.278920 L 26.234036,49.674701 L 30.548035,49.674701 L 30.548035,52.680964 L 19.305492,52.680964 L 19.305492,49.674701 M 38.117145,49.674701 L 47.333419,49.674701 L 47.333419,52.680964 L 34.940472,52.680964 L 34.940472,49.674701 C 35.942713,48.271785 37.306632,46.391402 39.032238,44.033544 C 40.766542,41.663913 41.855937,40.137205 42.300417,39.453418 C 43.145777,38.168402 43.734049,37.083792 44.065236,36.199582 C 44.405116,35.303613 44.575060,34.425315 44.575073,33.564682 C 44.575060,32.161781 44.209025,31.018223 43.476963,30.134008 C 42.753595,29.249838 41.808002,28.807740 40.640183,28.807716 C 39.812235,28.807740 38.936363,29.002263 38.012563,29.391283 C 37.097468,29.780353 36.117013,30.369813 35.071200,31.159674 L 35.071200,27.552158 C 36.134445,26.974511 37.127971,26.538309 38.051780,26.243552 C 38.975581,25.948848 39.820949,25.801482 40.587890,25.801455 C 42.609796,25.801482 44.222097,26.485256 45.424800,27.852788 C 46.627476,29.220362 47.228821,31.047698 47.228836,33.334790 C 47.228821,34.419421 47.076306,35.450979 46.771291,36.429470 C 46.474961,37.396206 45.930266,38.539763 45.137199,39.860144 C 44.919308,40.202046 44.226454,41.192341 43.058636,42.831038 C 41.890797,44.457962 40.243636,46.739183 38.117145,49.674701 M 60.837544,38.445434 C 62.101228,38.810916 63.086041,39.571320 63.791980,40.726656 C 64.506608,41.882014 64.863929,43.308511 64.863945,45.006155 C 64.863929,47.611587 64.201577,49.627548 62.876890,51.054046 C 61.552174,52.480546 59.669704,53.193796 57.229471,53.193796 C 56.410240,53.193796 55.564871,53.081796 54.693363,52.857802 C 53.830557,52.645594 52.937256,52.321392 52.013452,51.885187 L 52.013452,48.436830 C 52.745523,49.014509 53.547316,49.450710 54.418835,49.745439 C 55.290347,50.040172 56.201076,50.187537 57.151035,50.187534 C 58.806905,50.187537 60.066242,49.745441 60.929054,48.861243 C 61.800555,47.977054 62.236314,46.692025 62.236326,45.006155 C 62.236314,43.449982 61.831058,42.235691 61.020562,41.363276 C 60.218758,40.479093 59.098862,40.036995 57.660872,40.036985 L 55.386218,40.036985 L 55.386218,37.101460 L 57.765453,37.101460 C 59.064002,37.101474 60.057528,36.753693 60.746034,36.058110 C 61.434520,35.350770 61.778768,34.336896 61.778780,33.016482 C 61.778768,31.660737 61.421447,30.623286 60.706815,29.904117 C 60.000881,29.173205 58.985565,28.807740 57.660872,28.807716 C 56.937507,28.807740 56.161859,28.913843 55.333925,29.126027 C 54.505981,29.338256 53.595250,29.668356 52.601726,30.116326 L 52.601726,26.933224 C 53.603965,26.555995 54.540841,26.273054 55.412362,26.084399 C 56.292586,25.895797 57.120524,25.801482 57.896181,25.801455 C 59.900655,25.801482 61.486810,26.420418 62.654652,27.658263 C 63.822469,28.884369 64.406383,30.546654 64.406398,32.645119 C 64.406383,34.107004 64.096996,35.344875 63.478235,36.358737 C 62.859445,37.360837 61.979216,38.056404 60.837544,38.445434"
       id="path5409" />
    <path
       style="font-size:12.000000;font-style:normal;font-weight:normal;fill:url(#radialGradient5415);fill-opacity:1.0000000;stroke:none;stroke-width:0.48894718;stroke-linecap:butt;stroke-linejoin:miter;stroke-miterlimit:4.0000000;stroke-opacity:1.0000000;font-family:Bitstream Vera Sans"
       d="M 19.305492,49.674701 L 23.619490,49.674701 L 23.619490,29.532755 L 18.926383,30.805995 L 18.926383,27.552158 L 23.593347,26.278920 L 26.234036,26.278920 L 26.234036,49.674701 L 30.548035,49.674701 L 30.548035,52.680964 L 19.305492,52.680964 L 19.305492,49.674701 M 38.117145,49.674701 L 47.333419,49.674701 L 47.333419,52.680964 L 34.940472,52.680964 L 34.940472,49.674701 C 35.942713,48.271785 37.306632,46.391402 39.032238,44.033544 C 40.766542,41.663913 41.855937,40.137205 42.300417,39.453418 C 43.145777,38.168402 43.734049,37.083792 44.065236,36.199582 C 44.405116,35.303613 44.575060,34.425315 44.575073,33.564682 C 44.575060,32.161781 44.209025,31.018223 43.476963,30.134008 C 42.753595,29.249838 41.808002,28.807740 40.640183,28.807716 C 39.812235,28.807740 38.936363,29.002263 38.012563,29.391283 C 37.097468,29.780353 36.117013,30.369813 35.071200,31.159674 L 35.071200,27.552158 C 36.134445,26.974511 37.127971,26.538309 38.051780,26.243552 C 38.975581,25.948848 39.820949,25.801482 40.587890,25.801455 C 42.609796,25.801482 44.222097,26.485256 45.424800,27.852788 C 46.627476,29.220362 47.228821,31.047698 47.228836,33.334790 C 47.228821,34.419421 47.076306,35.450979 46.771291,36.429470 C 46.474961,37.396206 45.930266,38.539763 45.137199,39.860144 C 44.919308,40.202046 44.226454,41.192341 43.058636,42.831038 C 41.890797,44.457962 40.243636,46.739183 38.117145,49.674701 M 60.837544,38.445434 C 62.101228,38.810916 63.086041,39.571320 63.791980,40.726656 C 64.506608,41.882014 64.863929,43.308511 64.863945,45.006155 C 64.863929,47.611587 64.201577,49.627548 62.876890,51.054046 C 61.552174,52.480546 59.669704,53.193796 57.229471,53.193796 C 56.410240,53.193796 55.564871,53.081796 54.693363,52.857802 C 53.830557,52.645594 52.937256,52.321392 52.013452,51.885187 L 52.013452,48.436830 C 52.745523,49.014509 53.547316,49.450710 54.418835,49.745439 C 55.290347,50.040172 56.201076,50.187537 57.151035,50.187534 C 58.806905,50.187537 60.066242,49.745441 60.929054,48.861243 C 61.800555,47.977054 62.236314,46.692025 62.236326,45.006155 C 62.236314,43.449982 61.831058,42.235691 61.020562,41.363276 C 60.218758,40.479093 59.098862,40.036995 57.660872,40.036985 L 55.386218,40.036985 L 55.386218,37.101460 L 57.765453,37.101460 C 59.064002,37.101474 60.057528,36.753693 60.746034,36.058110 C 61.434520,35.350770 61.778768,34.336896 61.778780,33.016482 C 61.778768,31.660737 61.421447,30.623286 60.706815,29.904117 C 60.000881,29.173205 58.985565,28.807740 57.660872,28.807716 C 56.937507,28.807740 56.161859,28.913843 55.333925,29.126027 C 54.505981,29.338256 53.595250,29.668356 52.601726,30.116326 L 52.601726,26.933224 C 53.603965,26.555995 54.540841,26.273054 55.412362,26.084399 C 56.292586,25.895797 57.120524,25.801482 57.896181,25.801455 C 59.900655,25.801482 61.486810,26.420418 62.654652,27.658263 C 63.822469,28.884369 64.406383,30.546654 64.406398,32.645119 C 64.406383,34.107004 64.096996,35.344875 63.478235,36.358737 C 62.859445,37.360837 61.979216,38.056404 60.837544,38.445434"
       id="path5414" />
  </g>
</svg>
