<?xml version="1.0" encoding="UTF-8" standalone="no"?>
<!DOCTYPE svg PUBLIC "-//W3C//DTD SVG 20010904//EN"
"http://www.w3.org/TR/2001/REC-SVG-20010904/DTD/svg10.dtd">
<!-- Created with Inkscape (http://www.inkscape.org/) -->
<svg
   width="300.00000pt"
   height="300.00000pt"
   xmlns="http://www.w3.org/2000/svg"
   xmlns:cc="http://web.resource.org/cc/"
   xmlns:inkscape="http://www.inkscape.org/namespaces/inkscape"
   xmlns:sodipodi="http://sodipodi.sourceforge.net/DTD/sodipodi-0.dtd"
   xmlns:rdf="http://www.w3.org/1999/02/22-rdf-syntax-ns#"
   xmlns:dc="http://purl.org/dc/elements/1.1/"
   xmlns:xlink="http://www.w3.org/1999/xlink"
   id="svg1978"
   sodipodi:version="0.32"
   inkscape:version="0.40"
   sodipodi:docbase="/home/rob/icon play/helpwithopenoffice/in process/commandimagelist_inprocess/lines and shapes"
   sodipodi:docname="freeline_unfilled.svg">
  <defs
     id="defs3">
    <linearGradient
       id="light100to0">
      <stop
         style="stop-color:#ffffff;stop-opacity:1.0000000;"
         offset="0.0000000"
         id="stop2764" />
      <stop
         style="stop-color:#ffffff;stop-opacity:0.0000000;"
         offset="1.0000000"
         id="stop2765" />
    </linearGradient>
    <linearGradient
       inkscape:collect="always"
       xlink:href="#light100to0"
       id="linearGradient36857"
       gradientUnits="userSpaceOnUse"
       gradientTransform="matrix(0.317347,0.000000,0.000000,0.142307,7.750154,1.021211)"
       x1="112.83246"
       y1="26.413313"
       x2="122.91101"
       y2="48.426991" />
    <linearGradient
       id="blacktowhite">
      <stop
         style="stop-color:#000000;stop-opacity:1.0000000;"
         offset="0.0000000"
         id="stop2476" />
      <stop
         style="stop-color:#ffffff;stop-opacity:1.0000000;"
         offset="1.0000000"
         id="stop2475" />
    </linearGradient>
    <linearGradient
       inkscape:collect="always"
       xlink:href="#blacktowhite"
       id="linearGradient36856"
       gradientUnits="userSpaceOnUse"
       gradientTransform="matrix(0.183056,0.000000,0.000000,0.265558,6.081840,0.841974)"
       x1="63.510639"
       y1="263.33130"
       x2="48.348915"
       y2="299.38031" />
    <linearGradient
       inkscape:collect="always"
       xlink:href="#orangetoyelow"
       id="linearGradient36855"
       gradientUnits="userSpaceOnUse"
       gradientTransform="matrix(0.988165,0.000000,0.000000,1.059038,-51.61257,-0.295980)"
       x1="55.499844"
       y1="94.234268"
       x2="113.51736"
       y2="-2.7694037" />
    <linearGradient
       id="orangetoyelow">
      <stop
         style="stop-color:#ff7d00;stop-opacity:1.0000000;"
         offset="0.0000000"
         id="stop2661" />
      <stop
         style="stop-color:#ffff00;stop-opacity:1.0000000;"
         offset="1.0000000"
         id="stop2662" />
    </linearGradient>
    <linearGradient
       inkscape:collect="always"
       xlink:href="#orangetoyelow"
       id="linearGradient36854"
       gradientUnits="userSpaceOnUse"
       gradientTransform="matrix(0.988165,0.000000,0.000000,1.059038,-51.61257,-0.295980)"
       x1="75.064339"
       y1="65.623413"
       x2="140.15146"
       y2="-37.592434" />
    <linearGradient
       id="orangelesstoyelow">
      <stop
         style="stop-color:#ff7d00;stop-opacity:1.0000000;"
         offset="0.0000000"
         id="stop2689" />
      <stop
         style="stop-color:#ffbe00;stop-opacity:1.0000000;"
         offset="0.25358382"
         id="stop2690" />
      <stop
         style="stop-color:#ffff00;stop-opacity:1.0000000;"
         offset="1.0000000"
         id="stop2691" />
    </linearGradient>
    <linearGradient
       inkscape:collect="always"
       xlink:href="#orangelesstoyelow"
       id="linearGradient36853"
       gradientUnits="userSpaceOnUse"
       gradientTransform="matrix(0.988165,0.000000,0.000000,1.059038,-51.61257,-0.295980)"
       x1="58.404800"
       y1="80.526398"
       x2="86.264603"
       y2="19.952200" />
    <linearGradient
       id="orangetoblackorange">
      <stop
         style="stop-color:#ff8b00;stop-opacity:1.0000000;"
         offset="0.0000000"
         id="stop4207" />
      <stop
         style="stop-color:#4d0200;stop-opacity:1.0000000;"
         offset="1.0000000"
         id="stop4209" />
    </linearGradient>
    <linearGradient
       inkscape:collect="always"
       xlink:href="#orangetoblackorange"
       id="linearGradient36852"
       gradientUnits="userSpaceOnUse"
       gradientTransform="matrix(0.881076,0.424356,-0.395958,0.944269,1.002765e-13,-2.812953e-14)"
       x1="21.304842"
       y1="30.903683"
       x2="44.654045"
       y2="35.570560" />
    <linearGradient
       inkscape:collect="always"
       xlink:href="#shadow100to0"
       id="linearGradient36851"
       gradientUnits="userSpaceOnUse"
       gradientTransform="scale(1.373223,0.728214)"
       x1="54.536720"
       y1="96.837074"
       x2="91.471153"
       y2="66.370918" />
    <linearGradient
       id="shadow100to0">
      <stop
         style="stop-color:#000000;stop-opacity:1.0000000;"
         offset="0.0000000"
         id="stop3425" />
      <stop
         style="stop-color:#000000;stop-opacity:0.0000000;"
         offset="1.0000000"
         id="stop3426" />
    </linearGradient>
    <linearGradient
       inkscape:collect="always"
       xlink:href="#shadow100to0"
       id="linearGradient36850"
       gradientUnits="userSpaceOnUse"
       gradientTransform="scale(1.373223,0.728214)"
       x1="54.536720"
       y1="96.837074"
       x2="91.471153"
       y2="66.370918" />
    <radialGradient
       cx="38.797401"
       cy="112.96090"
       r="67.358803"
       fx="38.797401"
       fy="112.96090"
       id="bluelignonlinblu"
       gradientUnits="userSpaceOnUse">
      <stop
         style="stop-color:#d9ffff;stop-opacity:1.0000000;"
         offset="0.0055999998"
         id="stop84" />
      <stop
         style="stop-color:#95d9ff;stop-opacity:1.0000000;"
         offset="0.13480000"
         id="stop86" />
      <stop
         style="stop-color:#68b9ff;stop-opacity:1.0000000;"
         offset="0.32049999"
         id="stop88" />
      <stop
         style="stop-color:#3293fe;stop-opacity:1.0000000;"
         offset="0.56800002"
         id="stop90" />
      <stop
         style="stop-color:#107bfe;stop-opacity:1.0000000;"
         offset="0.75340003"
         id="stop92" />
      <stop
         style="stop-color:#0372fe;stop-opacity:1.0000000;"
         offset="0.85390002"
         id="stop94" />
      <stop
         style="stop-color:#0356fe;stop-opacity:1.0000000;"
         offset="1.0000000"
         id="stop96" />
    </radialGradient>
    <linearGradient
       inkscape:collect="always"
       xlink:href="#light90to0"
       id="linearGradient18528"
       gradientUnits="userSpaceOnUse"
       gradientTransform="scale(1.018770,0.981576)"
       x1="278.15439"
       y1="300.00095"
       x2="328.93796"
       y2="346.25330" />
    <linearGradient
       inkscape:collect="always"
       xlink:href="#graytoblack"
       id="linearGradient18527"
       gradientUnits="userSpaceOnUse"
       gradientTransform="scale(1.018720,0.981624)"
       x1="258.11154"
       y1="259.13287"
       x2="256.32883"
       y2="64.906898" />
    <radialGradient
       inkscape:collect="always"
       xlink:href="#graytoblack"
       id="radialGradient18526"
       gradientUnits="userSpaceOnUse"
       gradientTransform="scale(1.017330,0.982965)"
       cx="256.57788"
       cy="98.022842"
       fx="256.26614"
       fy="97.798195"
       r="65.751129" />
    <linearGradient
       id="light90to0">
      <stop
         style="stop-color:#ffffff;stop-opacity:0.90196079;"
         offset="0.0000000"
         id="stop1890" />
      <stop
         style="stop-color:#ffffff;stop-opacity:0.0000000;"
         offset="1.0000000"
         id="stop1892" />
    </linearGradient>
    <linearGradient
       id="graytoblack">
      <stop
         style="stop-color:#7d7d7d;stop-opacity:1.0000000;"
         offset="0.0000000"
         id="stop5097" />
      <stop
         style="stop-color:#000000;stop-opacity:1.0000000;"
         offset="1.0000000"
         id="stop5098" />
    </linearGradient>
  </defs>
  <sodipodi:namedview
     id="base"
     pagecolor="#ffffff"
     bordercolor="#666666"
     borderopacity="1.0"
     inkscape:pageopacity="0.0"
     inkscape:pageshadow="2"
     inkscape:zoom="0.78358169"
     inkscape:cx="176.09775"
     inkscape:cy="73.527467"
     inkscape:current-layer="layer1"
     showgrid="false"
     inkscape:grid-bbox="false"
     gridspacingy="1.0000000pt"
     gridspacingx="1.0000000pt"
     gridoriginy="0.0000000pt"
     gridoriginx="0.0000000pt"
     inkscape:window-width="710"
     inkscape:window-height="590"
     inkscape:window-x="306"
     inkscape:window-y="125" />
  <metadata
     id="metadata4">
    <rdf:RDF
       id="RDF5">
      <cc:Work
         rdf:about=""
         id="Work6">
        <dc:format
           id="format7">image/svg+xml</dc:format>
        <dc:type
           id="type9"
           rdf:resource="http://purl.org/dc/dcmitype/StillImage" />
      </cc:Work>
    </rdf:RDF>
  </metadata>
  <g
     id="layer1"
     inkscape:label="Layer 1"
     inkscape:groupmode="layer">
    <path
       id="path2028"
       style="fill:none;fill-opacity:0.75000000;fill-rule:evenodd;stroke:#000000;stroke-width:0.24929233pt;stroke-linecap:butt;stroke-linejoin:miter;stroke-opacity:0.0000000"
       d="M 0.84798543,375.00516 L 375.11380,2.2389958 M 375.11380,375.00516 L 0.84798543,2.2389958" />
    <g
       id="g36833"
       transform="matrix(0.970083,0.000000,0.000000,0.978200,994.2573,227.6070)">
      <path
         style="fill:none;fill-opacity:1.0000000;fill-rule:evenodd;stroke:none;stroke-width:0.25000000pt;stroke-linecap:butt;stroke-linejoin:miter;stroke-opacity:1.0000000;"
         d="M -935.32643,150.67780 C -1204.7004,-91.259970 -735.63442,-7.8602801 -638.36047,-77.697990 L -638.93696,150.14463 L -935.32643,150.67780 z "
         id="path36834"
         sodipodi:nodetypes="cccc" />
      <path
         style="fill:none;fill-opacity:1.0000000;fill-rule:evenodd;stroke:#000000;stroke-width:12.500000;stroke-linecap:round;stroke-linejoin:miter;stroke-miterlimit:4.0000000;stroke-opacity:1.0000000"
         d="M -935.32643,143.03905 C -1204.7004,-98.898720 -743.13442,-7.8602801 -645.86047,-77.697990"
         id="path36835"
         sodipodi:nodetypes="cc" />
      <g
         id="g36836"
         transform="matrix(4.837161,0.000000,0.000000,4.837161,-1005.183,-239.8750)">
        <g
           transform="matrix(0.958830,-2.143750e-2,2.249826e-2,0.973029,-51.30429,5.811057)"
           style="opacity:0.099999972;fill:url(#linearGradient36850);fill-opacity:1.0000000"
           id="g36837">
          <path
             d="M 125.90400,50.515000 C 123.63250,46.366500 120.19912,43.269329 118.68283,43.933698 C 117.16654,44.598067 91.192168,54.722316 79.008689,62.157706 C 73.761502,65.359983 70.829036,71.452661 66.852000,76.198000 C 66.838036,76.214661 66.900234,76.202757 66.918000,76.208000 C 66.920567,76.208757 66.909786,76.215937 66.913000,76.216000 C 73.600119,76.347937 80.470438,77.912321 86.762978,76.133931 C 100.59177,72.225654 125.74595,60.384778 127.26367,59.724275 C 128.78139,59.063772 128.17550,54.663500 125.90400,50.515000 z "
             style="fill:#000000;fill-opacity:0.31249997"
             id="path36838" />
        </g>
        <g
           transform="matrix(0.949336,-2.122524e-2,2.227548e-2,0.963396,-50.72384,6.546908)"
           style="opacity:0.099999972;fill:url(#linearGradient36851);fill-opacity:1.0000000"
           id="g36839">
          <path
             d="M 125.90400,50.515000 C 123.63250,46.366500 120.66029,43.620631 119.14400,44.285000 C 117.62771,44.949369 91.653334,55.073618 79.469855,62.509008 C 74.222668,65.711285 70.829036,71.452661 66.852000,76.198000 C 66.838036,76.214661 66.900234,76.202757 66.918000,76.208000 C 66.920567,76.208757 66.909786,76.215937 66.913000,76.216000 C 73.600119,76.347937 80.483772,77.344046 86.776312,75.565656 C 100.60510,71.657379 125.75928,59.816503 127.27700,59.156000 C 128.79472,58.495497 128.17550,54.663500 125.90400,50.515000 z "
             style="fill:#000000;fill-opacity:0.39215687"
             id="path36840" />
        </g>
        <path
           d="M 30.469024,64.158131 L 53.287388,10.457127 C 53.987008,8.5974551 51.136756,5.5149576 46.659383,3.3322846 C 42.191890,1.1485455 38.080137,0.86684297 37.304428,2.6841510 L 14.435572,56.713100 L 13.750587,78.250205 C 13.717960,79.275781 15.054079,79.896199 15.754760,79.180843 L 30.469024,64.158131 z "
           style="fill:url(#linearGradient36852);fill-opacity:1.0000000"
           id="path36841" />
        <path
           d="M 15.490689,57.457611 L 14.699181,78.572711 L 28.955422,63.966453 L 28.855621,63.918803 C 28.962343,63.839371 29.059186,63.752533 29.138236,63.654046 L 29.213334,63.690047 L 51.857127,10.296517 C 52.536985,8.7079645 50.050763,5.9385775 46.312536,4.1085546 C 42.570358,2.2785428 38.992212,2.0847336 38.315320,3.6722310 L 15.600379,57.030815 L 15.490689,57.457611 z "
           style="fill:#fff0dc"
           id="path36842" />
        <path
           d="M 38.454651,3.3502852 C 37.992190,4.5702968 39.317319,6.4458597 41.617767,8.0714800 L 18.818839,61.620686 C 16.785197,60.199459 15.595445,58.284719 15.564805,57.057288 L 38.443781,3.3439334 L 38.454651,3.3502852 z "
           style="fill:url(#linearGradient36853);fill-opacity:1.0000000"
           id="path36843" />
        <path
           d="M 29.359581,63.479303 C 28.844749,64.690842 26.551219,64.810517 23.913803,64.059654 L 46.703850,10.533745 C 49.291852,11.284596 51.429786,11.152241 51.977229,10.000000 L 30.002879,61.944752 C 29.992006,61.988172 29.478168,63.197601 29.359581,63.479303 z "
           style="fill:url(#linearGradient36854);fill-opacity:1.0000000"
           id="path36844" />
        <path
           d="M 21.144976,62.986845 C 20.295146,62.571698 19.518461,62.106792 18.818839,61.619631 L 41.617767,8.0714800 C 42.332209,8.5723993 43.130646,9.0553288 44.005172,9.4831797 C 44.929105,9.9353934 45.844146,10.284867 46.704838,10.532680 L 23.914796,64.059654 C 23.031380,63.810788 22.091627,63.450708 21.144976,62.986845 z "
           style="fill:url(#linearGradient36855);fill-opacity:1.0000000"
           id="path36845" />
        <path
           d="M 330.21077,106.26464 C 330.21736,115.48235 314.29113,122.95642 294.64286,122.95642 C 274.99458,122.95642 259.06835,115.48235 259.07494,106.26464 C 259.06835,97.046931 274.99458,89.572862 294.64286,89.572862 C 314.29113,89.572862 330.21736,97.046931 330.21077,106.26464 L 330.21077,106.26464 z "
           transform="matrix(7.111582e-2,4.098850e-2,-5.226773e-2,4.839618e-2,29.78768,-10.41921)"
           style="fill:#000000;fill-opacity:1.0000000;stroke:#000000;stroke-width:2.6949544;stroke-linecap:butt;stroke-linejoin:round;stroke-miterlimit:4.0000000;stroke-dashoffset:0.0000000;stroke-opacity:0.084374972"
           id="path36846" />
        <path
           d="M 14.899290,70.549100 L 14.632360,78.638000 L 20.208281,73.015926 C 18.794524,73.608179 15.493636,72.499479 14.899290,70.549100 z "
           style="fill:url(#linearGradient36856);fill-opacity:1.0000000;fill-rule:evenodd;stroke:none;stroke-width:0.094361210pt;stroke-linecap:butt;stroke-linejoin:miter;stroke-opacity:1.0000000"
           id="path36847" />
        <path
           d="M 47.465845,7.3279801 C 46.608342,6.9780989 45.562430,6.4532555 45.091215,6.6546145 C 44.612559,6.8591385 43.692820,6.6083931 42.795739,6.3575268 C 42.054188,5.1192179 43.224491,5.0867002 44.279881,5.2880483 C 45.316185,5.4857587 47.248171,6.6348006 47.465845,7.3279801 z "
           style="fill:url(#linearGradient36857);fill-opacity:1.0000000;fill-rule:evenodd;stroke:none;stroke-width:0.25000000pt;stroke-linecap:butt;stroke-linejoin:miter;stroke-opacity:1.0000000"
           id="path36848" />
      </g>
    </g>
  </g>
</svg>
