<?xml version="1.0" encoding="UTF-8" standalone="no"?>
<!-- Created with Inkscape (http://www.inkscape.org/) -->
<svg
   xmlns:dc="http://purl.org/dc/elements/1.1/"
   xmlns:cc="http://web.resource.org/cc/"
   xmlns:rdf="http://www.w3.org/1999/02/22-rdf-syntax-ns#"
   xmlns:svg="http://www.w3.org/2000/svg"
   xmlns="http://www.w3.org/2000/svg"
   xmlns:xlink="http://www.w3.org/1999/xlink"
   xmlns:sodipodi="http://inkscape.sourceforge.net/DTD/sodipodi-0.dtd"
   xmlns:inkscape="http://www.inkscape.org/namespaces/inkscape"
   sodipodi:docname="goalseekdialog.svg"
   sodipodi:docbase="/home/pinheiro/artwork/oooicons/crystalsvg"
   inkscape:version="0.41"
   sodipodi:version="0.32"
   id="svg1553"
   height="64px"
   width="64px">
  <defs
     id="defs3">
    <linearGradient
       id="light100to0">
      <stop
         id="stop2764"
         offset="0.0000000"
         style="stop-color:#ffffff;stop-opacity:1.0000000;" />
      <stop
         id="stop2765"
         offset="1.0000000"
         style="stop-color:#ffffff;stop-opacity:0.0000000;" />
    </linearGradient>
    <linearGradient
       id="greylighttograyw">
      <stop
         id="stop575"
         offset="0.0000000"
         style="stop-color:#b5b5b8;stop-opacity:1.0000000;" />
      <stop
         id="stop576"
         offset="1.0000000"
         style="stop-color:#ebebee;stop-opacity:1.0000000;" />
    </linearGradient>
    <linearGradient
       id="graytolightgray">
      <stop
         id="stop5101"
         offset="0.0000000"
         style="stop-color:#d4d3d3;stop-opacity:1.0000000;" />
      <stop
         id="stop5102"
         offset="1.0000000"
         style="stop-color:#ffffff;stop-opacity:1.0000000;" />
    </linearGradient>
    <linearGradient
       id="garylighttowite">
      <stop
         id="stop5106"
         offset="0.0000000"
         style="stop-color:#7d7d7d;stop-opacity:1.0000000;" />
      <stop
         id="stop5107"
         offset="1.0000000"
         style="stop-color:#d3d4d4;stop-opacity:1.0000000;" />
    </linearGradient>
    <linearGradient
       id="linearGradient2642">
      <stop
         id="stop2646"
         style="stop-color:#ffffff;stop-opacity:1.0000000;"
         offset="0.0000000" />
      <stop
         id="stop2644"
         style="stop-color:#a9a9bb;stop-opacity:1.0000000;"
         offset="1.0000000" />
    </linearGradient>
    <linearGradient
       id="bludraktowhite"
       gradientUnits="userSpaceOnUse"
       x1="33.332001"
       y1="10.305200"
       x2="33.332001"
       y2="91.407700">
      <linearGradient
         id="bluedrklighttowite"
         gradientUnits="userSpaceOnUse"
         x1="33.332001"
         y1="10.305200"
         x2="33.332001"
         y2="91.407700"
         spreadMethod="pad"
         xlink:href="#linearGradient5536" />
      <stop
         offset="0"
         style="stop-color:rgb(255,255,255)"
         id="stop7271" />
      <stop
         offset="1"
         style="stop-color:rgb(84,84,119)"
         id="stop7273" />
    </linearGradient>
    <linearGradient
       id="linearGradient1765">
      <stop
         style="stop-color:#ffffff;stop-opacity:1.0000000;"
         offset="0.0000000"
         id="stop1767" />
      <stop
         style="stop-color:#ffffff;stop-opacity:0.0000000;"
         offset="1.0000000"
         id="stop1769" />
    </linearGradient>
    <linearGradient
       id="linearGradient1759">
      <stop
         style="stop-color:#7d7d7d;stop-opacity:1.0000000;"
         offset="0.0000000"
         id="stop1761" />
      <stop
         style="stop-color:#d3d4d4;stop-opacity:1.0000000;"
         offset="1.0000000"
         id="stop1763" />
    </linearGradient>
    <linearGradient
       id="light75to0">
      <stop
         style="stop-color:#ffffff;stop-opacity:0.72916669;"
         offset="0.0000000"
         id="stop2769" />
      <stop
         style="stop-color:#ffffff;stop-opacity:0.0000000;"
         offset="1.0000000"
         id="stop2770" />
    </linearGradient>
    <linearGradient
       id="linearGradient1750">
      <stop
         style="stop-color:#d4d3d3;stop-opacity:1.0000000;"
         offset="0.0000000"
         id="stop1752" />
      <stop
         style="stop-color:#ffffff;stop-opacity:1.0000000;"
         offset="1.0000000"
         id="stop1754" />
    </linearGradient>
    <linearGradient
       id="sadow75to0w">
      <stop
         style="stop-color:#000000;stop-opacity:0.72941178;"
         offset="0.0000000"
         id="stop3429" />
      <stop
         style="stop-color:#ffffff;stop-opacity:0.0000000;"
         offset="1.0000000"
         id="stop3430" />
    </linearGradient>
    <linearGradient
       id="linearGradient5536">
      <stop
         offset="0.0000000"
         style="stop-color:#ffffff;stop-opacity:1.0000000;"
         id="stop5540" />
      <stop
         offset="1.0000000"
         style="stop-color:#a9a9bb;stop-opacity:1.0000000;"
         id="stop5538" />
    </linearGradient>
    <linearGradient
       y2="323.76923"
       x2="272.46765"
       y1="59.053604"
       x1="122.43015"
       gradientTransform="matrix(0.139112,0.000000,0.000000,4.639221e-2,1.652566,0.786999)"
       gradientUnits="userSpaceOnUse"
       id="linearGradient1893"
       xlink:href="#graytolightgray"
       inkscape:collect="always" />
    <radialGradient
       r="508.29517"
       fy="52.577991"
       fx="53.182602"
       cy="52.577991"
       cx="53.182602"
       gradientTransform="matrix(0.171750,0.000000,0.000000,4.634818e-2,1.108189,-0.829730)"
       gradientUnits="userSpaceOnUse"
       id="radialGradient1895"
       xlink:href="#light75to0"
       inkscape:collect="always" />
    <radialGradient
       r="23.251539"
       fy="1.0834957"
       fx="8.9915314"
       cy="1.0834957"
       cx="8.9915314"
       spreadMethod="reflect"
       gradientTransform="matrix(1.471586,0.000000,0.000000,0.647000,0.377244,0.335774)"
       gradientUnits="userSpaceOnUse"
       id="radialGradient1897"
       xlink:href="#bludraktowhite"
       inkscape:collect="always" />
    <radialGradient
       r="7.7109990"
       fy="123.48658"
       fx="42.468056"
       cy="123.48658"
       cx="42.468056"
       spreadMethod="reflect"
       gradientTransform="matrix(1.382976,0.000000,0.000000,1.382976,-21.03104,-109.9668)"
       gradientUnits="userSpaceOnUse"
       id="radialGradient1899"
       xlink:href="#linearGradient2642"
       inkscape:collect="always" />
    <linearGradient
       y2="117.44884"
       x2="35.765125"
       y1="138.03079"
       x1="45.622375"
       gradientTransform="matrix(1.382976,0.000000,0.000000,1.382976,-21.03104,-109.9668)"
       gradientUnits="userSpaceOnUse"
       id="linearGradient1901"
       xlink:href="#bludraktowhite"
       inkscape:collect="always" />
    <linearGradient
       y2="143.27217"
       x2="35.948341"
       y1="129.00298"
       x1="27.782410"
       gradientTransform="matrix(1.618321,0.000000,0.000000,1.181855,-21.03104,-109.9668)"
       gradientUnits="userSpaceOnUse"
       id="linearGradient1903"
       xlink:href="#light100to0"
       inkscape:collect="always" />
    <radialGradient
       r="13.249377"
       fy="124.03846"
       fx="40.972221"
       cy="124.03846"
       cx="40.972221"
       spreadMethod="reflect"
       gradientTransform="matrix(1.382976,0.000000,0.000000,1.382976,-21.03104,-109.9668)"
       gradientUnits="userSpaceOnUse"
       id="radialGradient1905"
       xlink:href="#light100to0"
       inkscape:collect="always" />
    <linearGradient
       y2="275.21307"
       x2="434.37149"
       y1="102.04493"
       x1="345.70886"
       spreadMethod="reflect"
       gradientTransform="matrix(0.158588,0.000000,0.000000,0.170491,-48.38957,-14.64999)"
       gradientUnits="userSpaceOnUse"
       id="linearGradient1931"
       xlink:href="#garylighttowite"
       inkscape:collect="always" />
    <linearGradient
       y2="273.05020"
       x2="777.66937"
       y1="270.84445"
       x1="667.60266"
       spreadMethod="reflect"
       gradientTransform="matrix(0.113673,0.000000,0.000000,0.237853,-48.07475,-14.64932)"
       gradientUnits="userSpaceOnUse"
       id="linearGradient1933"
       xlink:href="#graytolightgray"
       inkscape:collect="always" />
    <linearGradient
       y2="191.41595"
       x2="489.91776"
       y1="210.62589"
       x1="360.42029"
       spreadMethod="reflect"
       gradientTransform="matrix(0.195946,0.000000,0.000000,0.137984,-48.04937,-14.64932)"
       gradientUnits="userSpaceOnUse"
       id="linearGradient1935"
       xlink:href="#greylighttograyw"
       inkscape:collect="always" />
    <radialGradient
       r="116.47218"
       fy="256.86401"
       fx="178.29204"
       cy="256.86401"
       cx="178.29204"
       gradientTransform="scale(1.585650,0.630656)"
       gradientUnits="userSpaceOnUse"
       id="radialGradient1937"
       xlink:href="#light100to0"
       inkscape:collect="always" />
    <linearGradient
       y2="371.38556"
       x2="377.23828"
       y1="409.79456"
       x1="283.56204"
       spreadMethod="reflect"
       gradientTransform="matrix(0.236336,0.000000,0.000000,0.114404,-48.04937,-14.64932)"
       gradientUnits="userSpaceOnUse"
       id="linearGradient1939"
       xlink:href="#graytolightgray"
       inkscape:collect="always" />
    <linearGradient
       y2="22.681667"
       x2="59.157505"
       y1="30.579924"
       x1="33.816196"
       gradientTransform="matrix(0.607496,0.000000,0.000000,1.646102,-2.000000,-7.218177e-15)"
       gradientUnits="userSpaceOnUse"
       id="linearGradient1941"
       xlink:href="#light100to0"
       inkscape:collect="always" />
    <linearGradient
       y2="423.30023"
       x2="253.63023"
       y1="322.30713"
       x1="222.57158"
       gradientTransform="matrix(0.320153,0.000000,0.000000,8.010735e-2,-46.58536,-14.03042)"
       gradientUnits="userSpaceOnUse"
       id="linearGradient1943"
       xlink:href="#light100to0"
       inkscape:collect="always" />
    <linearGradient
       y2="22.959185"
       x2="36.525856"
       y1="32.744850"
       x1="44.786060"
       gradientTransform="matrix(0.607496,0.000000,0.000000,1.646102,-2.000000,-7.218177e-15)"
       gradientUnits="userSpaceOnUse"
       id="linearGradient1945"
       xlink:href="#light100to0"
       inkscape:collect="always" />
    <linearGradient
       y2="6.5209355"
       x2="36.910168"
       y1="8.4635162"
       x1="21.491100"
       gradientTransform="matrix(-0.956171,0.000000,0.000000,1.045838,60.86773,-9.213050e-3)"
       gradientUnits="userSpaceOnUse"
       id="linearGradient1947"
       xlink:href="#light100to0"
       inkscape:collect="always" />
  </defs>
  <sodipodi:namedview
     inkscape:window-y="52"
     inkscape:window-x="390"
     inkscape:window-height="536"
     inkscape:window-width="640"
     inkscape:grid-bbox="true"
     inkscape:document-units="px"
     showgrid="true"
     inkscape:current-layer="layer1"
     inkscape:cy="32.000000"
     inkscape:cx="32.000000"
     inkscape:zoom="5.9062500"
     inkscape:pageshadow="2"
     inkscape:pageopacity="0.0"
     borderopacity="1.0"
     bordercolor="#666666"
     pagecolor="#ffffff"
     id="base" />
  <metadata
     id="metadata4">
    <rdf:RDF
       id="RDF5">
      <cc:Work
         id="Work6"
         rdf:about="">
        <dc:format
           id="format7">image/svg+xml</dc:format>
        <dc:type
           rdf:resource="http://purl.org/dc/dcmitype/StillImage"
           id="type9" />
      </cc:Work>
    </rdf:RDF>
  </metadata>
  <g
     inkscape:groupmode="layer"
     inkscape:label="Layer 1"
     id="layer1">
    <g
       transform="translate(6.723718,-17.08369)"
       id="g1813"
       inkscape:label="Layer 1"
       inkscape:groupmode="layer">
      <g
         transform="matrix(1.178482,0.000000,0.000000,1.185618,-10.46738,-2.745859)"
         id="g1856">
        <g
           id="g3953"
           transform="matrix(0.742401,0.000000,0.000000,0.695848,7.320527,17.17547)">
          <path
             style="fill:#ffffff;fill-opacity:1.0000000;fill-rule:evenodd;stroke:none;stroke-width:0.25000000pt;stroke-linecap:butt;stroke-linejoin:miter;stroke-opacity:1.0000000"
             d="M 8.4434337,0.51593639 L 50.148753,0.55986561 L 49.627382,18.910670 L 8.3272630,19.054110 L 8.4434337,0.51593639 z "
             id="path3633"
             sodipodi:nodetypes="ccccc" />
          <path
             d="M 48.764319,2.1620954 L 9.8406724,2.1620954 L 9.7827881,16.976840 L 48.699733,16.858121 L 48.764319,2.1620954 z "
             id="path3635"
             style="fill:url(#linearGradient1893);fill-opacity:1.0000000"
             sodipodi:nodetypes="ccccc" />
          <path
             d="M 48.865302,2.4966885 L 48.865302,0.83511139 L 9.3668792,0.83511139 L 9.3314258,10.458453 C 24.503585,12.430645 46.464710,7.4533577 48.865302,2.4966885 z "
             id="path3637"
             style="fill:url(#radialGradient1895);fill-opacity:1.0000000"
             sodipodi:nodetypes="ccccc" />
          <path
             d="M 8.2412387,2.9662133 L 8.2412387,16.460445 C 8.1914572,17.979969 9.0435673,18.657844 10.191454,18.709009 L 29.248784,18.701895 L 39.752556,18.698101 L 50.256329,18.694308 L 50.304812,9.7057413 L 50.353296,0.71717475 L 39.825282,0.71717475 L 29.297268,0.71717475 L 10.194485,0.71717475 C 8.8464612,0.71717475 8.2412387,1.6519811 8.2412387,2.9662133 z "
             id="path3639"
             style="fill:none;fill-opacity:1.0000000;stroke:url(#radialGradient1897);stroke-width:1.6440413;stroke-linecap:round;stroke-linejoin:round;stroke-miterlimit:4.0000000"
             sodipodi:nodetypes="cccccccccccc" />
        </g>
        <g
           id="g2019"
           transform="matrix(0.718755,0.000000,0.000000,0.747096,28.71968,-16.45663)">
          <path
             id="path2021"
             d="M 24.093920,45.617937 L 37.567184,45.617937 C 38.623644,45.617937 39.474152,46.388393 39.474152,47.345426 L 39.474152,61.177647 C 39.474152,62.134681 38.623644,62.905137 37.567184,62.905137 L 24.093920,62.905137 C 23.037460,62.905137 22.186952,62.134681 22.186952,61.177647 L 22.186952,47.345426 C 22.186952,46.388393 23.037460,45.617937 24.093920,45.617937 z "
             style="fill:url(#radialGradient1899);fill-opacity:1.0000000;stroke:url(#linearGradient1901);stroke-width:1.0654563;stroke-linecap:round;stroke-linejoin:round;stroke-miterlimit:4.0000000;stroke-dashoffset:0.0000000;stroke-opacity:1.0000000" />
          <path
             id="path2023"
             d="M 30.760555,58.410893 L 26.508752,50.112179 L 35.152352,50.112179 L 30.760555,58.410893 z "
             style="fill:#000000;fill-opacity:1.0000000;fill-rule:evenodd;stroke:none;stroke-width:1.0000000px;stroke-linecap:butt;stroke-linejoin:miter;stroke-opacity:1.0000000" />
          <path
             id="path2025"
             d="M 37.860285,45.704040 C 33.531985,45.675344 28.243971,45.646634 23.915672,45.617937 C 23.252186,45.496207 22.065222,46.508684 22.186952,47.346657 C 22.186952,50.227852 22.274199,57.820362 22.274199,60.701558 C 24.526398,60.717766 25.905845,53.557034 29.728766,52.287282 C 33.576977,51.009136 37.650843,47.927535 37.860285,45.704040 z "
             style="fill:url(#linearGradient1903);fill-opacity:1.0000000;fill-rule:evenodd;stroke:none;stroke-width:1.0000000px;stroke-linecap:butt;stroke-linejoin:miter;stroke-opacity:1.0000000" />
          <path
             id="path2027"
             d="M 24.093920,45.617937 L 37.567184,45.617937 C 38.623644,45.617937 39.474152,46.388393 39.474152,47.345426 L 39.474152,61.177647 C 39.474152,62.134681 38.623644,62.905137 37.567184,62.905137 L 24.093920,62.905137 C 23.037460,62.905137 22.186952,62.134681 22.186952,61.177647 L 22.186952,47.345426 C 22.186952,46.388393 23.037460,45.617937 24.093920,45.617937 z "
             style="opacity:0.76679844;fill:url(#radialGradient1905);fill-opacity:1.0000000;stroke:none;stroke-width:0.27500001;stroke-linecap:round;stroke-linejoin:round;stroke-miterlimit:4.0000000;stroke-dashoffset:0.0000000;stroke-opacity:1.0000000" />
        </g>
      </g>
    </g>
    <g
       transform="matrix(0.790050,0.000000,0.000000,0.875878,-0.871962,8.627636)"
       id="g1682">
      <path
         transform="matrix(0.769756,0.000000,0.000000,0.767486,4.795721,13.95596)"
         d="M 40.839780 60.022099 A 8.3093920 2.2099447 0 1 1  24.220996,60.022099 A 8.3093920 2.2099447 0 1 1  40.839780 60.022099 z"
         sodipodi:ry="2.2099447"
         sodipodi:rx="8.3093920"
         sodipodi:cy="60.022099"
         sodipodi:cx="32.530388"
         id="path14089"
         style="opacity:0.49029127;fill:#000000;fill-opacity:0.033898298;stroke:#000000;stroke-width:4.6500001;stroke-linejoin:round;stroke-miterlimit:4.0000000;stroke-opacity:0.050847415"
         sodipodi:type="arc" />
      <path
         transform="matrix(0.929539,0.000000,0.000000,1.000000,-0.617416,0.000000)"
         d="M 40.839780 60.022099 A 8.3093920 2.2099447 0 1 1  24.220996,60.022099 A 8.3093920 2.2099447 0 1 1  40.839780 60.022099 z"
         sodipodi:ry="2.2099447"
         sodipodi:rx="8.3093920"
         sodipodi:cy="60.022099"
         sodipodi:cx="32.530388"
         id="path14087"
         style="opacity:0.49029127;fill:#000000;fill-opacity:0.033898298;stroke:#000000;stroke-width:4.6500001;stroke-linejoin:round;stroke-miterlimit:4.0000000;stroke-opacity:0.050847415"
         sodipodi:type="arc" />
      <path
         id="path14085"
         d="M 29.537615,3.5363319 C 14.808706,3.5363319 2.8525482,8.0172340 2.8525482,13.536970 C 2.8525482,13.547132 2.8577596,13.556761 2.8578439,13.566923 C 2.8577596,13.577036 2.8525482,13.586714 2.8525482,13.596827 C 2.8525482,13.915666 2.9112755,14.228459 2.9901828,14.539548 C 2.9941594,14.554481 2.9966126,14.569495 3.0007675,14.584429 C 3.1786087,15.253720 3.5167358,15.905450 4.0277287,16.529727 C 4.0630616,16.572859 4.1020411,16.616468 4.1388974,16.659375 L 24.185783,39.468913 L 24.185783,59.041328 L 24.233428,59.041328 C 24.341060,60.109801 26.670920,61.390629 29.548207,61.390584 C 32.425680,61.390629 34.755643,60.109889 34.862977,59.041328 L 34.878868,59.041328 L 34.878868,58.986467 C 34.879046,58.979682 34.884165,58.973285 34.884165,58.966500 C 34.884165,58.959630 34.879046,58.953410 34.878868,58.946535 L 34.878868,39.583629 L 54.788121,16.978610 C 54.535149,17.247666 54.246837,17.508665 53.935848,17.766685 L 54.703422,16.893843 C 55.668951,15.860046 56.217395,14.753612 56.217395,13.596827 C 56.217395,13.586714 56.212181,13.577036 56.212099,13.566923 C 56.212181,13.556761 56.217395,13.547132 56.217395,13.536970 C 56.217395,8.0172340 44.266531,3.5363319 29.537615,3.5363319 z "
         style="fill:none;fill-opacity:1.0000000;fill-rule:evenodd;stroke:#000000;stroke-width:4.8686466;stroke-linecap:butt;stroke-linejoin:round;stroke-miterlimit:4.0000000;stroke-opacity:0.050847415" />
      <path
         id="path14075"
         d="M 29.747603,3.0832120 C 15.018694,3.0832120 3.0625358,7.5641141 3.0625358,13.083850 C 3.0625358,13.094012 3.0677468,13.103641 3.0678308,13.113803 C 3.0677468,13.123916 3.0625358,13.133594 3.0625358,13.143707 C 3.0625358,13.462546 3.1212628,13.775339 3.2001698,14.086428 C 3.2041468,14.101361 3.2065998,14.116375 3.2107548,14.131309 C 3.3885958,14.800600 3.7267228,15.452330 4.2377158,16.076607 C 4.2730488,16.119739 4.3120288,16.163348 4.3488848,16.206255 L 24.395771,39.015793 L 24.395771,58.588208 L 24.443417,58.588208 C 24.551048,59.656681 26.880908,60.937509 29.758196,60.937464 C 32.635668,60.937509 34.965631,59.656769 35.072965,58.588208 L 35.088857,58.588208 L 35.088857,58.533347 C 35.089034,58.526562 35.094154,58.520165 35.094154,58.513380 C 35.094154,58.506510 35.089034,58.500290 35.088857,58.493415 L 35.088857,39.130509 L 54.998109,16.525490 C 54.745136,16.794546 54.456825,17.055545 54.145836,17.313565 L 54.913411,16.440723 C 55.878939,15.406926 56.427384,14.300492 56.427384,13.143707 C 56.427384,13.133594 56.422169,13.123916 56.422088,13.113803 C 56.422169,13.103641 56.427384,13.094012 56.427384,13.083850 C 56.427384,7.5641141 44.476520,3.0832120 29.747603,3.0832120 z "
         style="fill:none;fill-opacity:1.0000000;fill-rule:evenodd;stroke:#000000;stroke-width:6.1250715;stroke-linecap:butt;stroke-linejoin:round;stroke-miterlimit:4.0000000;stroke-opacity:0.050847415" />
      <path
         id="path12479"
         d="M 29.537615,3.5363319 C 14.808706,3.5363319 2.8525482,8.0172340 2.8525482,13.536970 C 2.8525482,13.547132 2.8577596,13.556761 2.8578439,13.566923 C 2.8577596,13.577036 2.8525482,13.586714 2.8525482,13.596827 C 2.8525482,13.915666 2.9112755,14.228459 2.9901828,14.539548 C 2.9941594,14.554481 2.9966126,14.569495 3.0007675,14.584429 C 3.1786087,15.253720 3.5167358,15.905450 4.0277287,16.529727 C 4.0630616,16.572859 4.1020411,16.616468 4.1388974,16.659375 L 24.185783,39.468913 L 24.185783,59.041328 L 24.233428,59.041328 C 24.341060,60.109801 26.670920,61.390629 29.548207,61.390584 C 32.425680,61.390629 34.755643,60.109889 34.862977,59.041328 L 34.878868,59.041328 L 34.878868,58.986467 C 34.879046,58.979682 34.884165,58.973285 34.884165,58.966500 C 34.884165,58.959630 34.879046,58.953410 34.878868,58.946535 L 34.878868,39.583629 L 54.788121,16.978610 C 54.535149,17.247666 54.246837,17.508665 53.935848,17.766685 L 54.703422,16.893843 C 55.668951,15.860046 56.217395,14.753612 56.217395,13.596827 C 56.217395,13.586714 56.212181,13.577036 56.212099,13.566923 C 56.212181,13.556761 56.217395,13.547132 56.217395,13.536970 C 56.217395,8.0172340 44.266531,3.5363319 29.537615,3.5363319 z "
         style="fill:none;fill-opacity:1.0000000;fill-rule:evenodd;stroke:#000000;stroke-width:1.7881857;stroke-linecap:butt;stroke-linejoin:round;stroke-miterlimit:4.0000000;stroke-opacity:0.039547984" />
      <path
         id="path12477"
         d="M 29.537615,3.5363319 C 14.808706,3.5363319 2.8525482,8.0172340 2.8525482,13.536970 C 2.8525482,13.547132 2.8577596,13.556761 2.8578439,13.566923 C 2.8577596,13.577036 2.8525482,13.586714 2.8525482,13.596827 C 2.8525482,13.915666 2.9112755,14.228459 2.9901828,14.539548 C 2.9941594,14.554481 2.9966126,14.569495 3.0007675,14.584429 C 3.1786087,15.253720 3.5167358,15.905450 4.0277287,16.529727 C 4.0630616,16.572859 4.1020411,16.616468 4.1388974,16.659375 L 24.185783,39.468913 L 24.185783,59.041328 L 24.233428,59.041328 C 24.341060,60.109801 26.670920,61.390629 29.548207,61.390584 C 32.425680,61.390629 34.755643,60.109889 34.862977,59.041328 L 34.878868,59.041328 L 34.878868,58.986467 C 34.879046,58.979682 34.884165,58.973285 34.884165,58.966500 C 34.884165,58.959630 34.879046,58.953410 34.878868,58.946535 L 34.878868,39.583629 L 54.788121,16.978610 C 54.535149,17.247666 54.246837,17.508665 53.935848,17.766685 L 54.703422,16.893843 C 55.668951,15.860046 56.217395,14.753612 56.217395,13.596827 C 56.217395,13.586714 56.212181,13.577036 56.212099,13.566923 C 56.212181,13.556761 56.217395,13.547132 56.217395,13.536970 C 56.217395,8.0172340 44.266531,3.5363319 29.537615,3.5363319 z "
         style="fill:none;fill-opacity:1.0000000;fill-rule:evenodd;stroke:#000000;stroke-width:1.9526165;stroke-linecap:butt;stroke-linejoin:round;stroke-miterlimit:4.0000000;stroke-opacity:0.039547984" />
      <path
         id="path9412"
         d="M 29.537615,3.5363319 C 14.808706,3.5363319 2.8525482,8.0172340 2.8525482,13.536970 C 2.8525482,13.547132 2.8577596,13.556761 2.8578439,13.566923 C 2.8577596,13.577036 2.8525482,13.586714 2.8525482,13.596827 C 2.8525482,13.915666 2.9112755,14.228459 2.9901828,14.539548 C 2.9941594,14.554481 2.9966126,14.569495 3.0007675,14.584429 C 3.1786087,15.253720 3.5167358,15.905450 4.0277287,16.529727 C 4.0630616,16.572859 4.1020411,16.616468 4.1388974,16.659375 L 24.185783,39.468913 L 24.185783,59.041328 L 24.233428,59.041328 C 24.341060,60.109801 26.670920,61.390629 29.548207,61.390584 C 32.425680,61.390629 34.755643,60.109889 34.862977,59.041328 L 34.878868,59.041328 L 34.878868,58.986467 C 34.879046,58.979682 34.884165,58.973285 34.884165,58.966500 C 34.884165,58.959630 34.879046,58.953410 34.878868,58.946535 L 34.878868,39.583629 L 54.788121,16.978610 C 54.535149,17.247666 54.246837,17.508665 53.935848,17.766685 L 54.703422,16.893843 C 55.668951,15.860046 56.217395,14.753612 56.217395,13.596827 C 56.217395,13.586714 56.212181,13.577036 56.212099,13.566923 C 56.212181,13.556761 56.217395,13.547132 56.217395,13.536970 C 56.217395,8.0172340 44.266531,3.5363319 29.537615,3.5363319 z "
         style="fill:none;fill-opacity:1.0000000;fill-rule:evenodd;stroke:url(#linearGradient1931);stroke-width:2.9840090;stroke-linecap:butt;stroke-linejoin:round;stroke-miterlimit:4.0000000;stroke-opacity:1.0000000" />
      <path
         id="path14875"
         d="M 29.537615,3.5363319 C 14.808706,3.5363319 2.8525482,8.0172340 2.8525482,13.536970 C 2.8525482,13.547132 2.8577596,13.556761 2.8578439,13.566923 C 2.8577596,13.577036 2.8525482,13.586714 2.8525482,13.596827 C 2.8525482,13.915666 2.9112755,14.228459 2.9901828,14.539548 C 2.9941594,14.554481 2.9966126,14.569495 3.0007675,14.584429 C 3.1786087,15.253720 3.5167358,15.905450 4.0277287,16.529727 C 4.0630616,16.572859 4.1020411,16.616468 4.1388974,16.659375 L 24.185783,39.468913 L 24.185783,59.041328 L 24.233428,59.041328 C 24.341060,60.109801 26.670920,61.390629 29.548207,61.390584 C 32.425680,61.390629 34.755643,60.109889 34.862977,59.041328 L 34.878868,59.041328 L 34.878868,58.986467 C 34.879046,58.979682 34.884165,58.973285 34.884165,58.966500 C 34.884165,58.959630 34.879046,58.953410 34.878868,58.946535 L 34.878868,39.583629 L 54.788121,16.978610 C 54.535149,17.247666 54.246837,17.508665 53.935848,17.766685 L 54.703422,16.893843 C 55.668951,15.860046 56.217395,14.753612 56.217395,13.596827 C 56.217395,13.586714 56.212181,13.577036 56.212099,13.566923 C 56.212181,13.556761 56.217395,13.547132 56.217395,13.536970 C 56.217395,8.0172340 44.266531,3.5363319 29.537615,3.5363319 z "
         style="fill:none;fill-opacity:1.0000000;fill-rule:evenodd;stroke:#000000;stroke-width:2.9840090;stroke-linecap:butt;stroke-linejoin:round;stroke-miterlimit:4.0000000;stroke-opacity:0.27118644" />
      <path
         sodipodi:nodetypes="ccccccccccc"
         id="path2477"
         d="M 24.187189,38.578861 L 24.187189,59.039098 L 24.234824,59.039098 C 24.342465,60.107567 26.672326,61.392996 29.549604,61.392996 C 32.427076,61.392996 34.757047,60.107656 34.864384,59.039098 L 34.880272,59.039098 L 34.880272,58.984233 C 34.880450,58.977447 34.885568,58.971101 34.885568,58.964270 C 34.885568,58.957395 34.880450,58.951222 34.880272,58.944347 L 34.880272,38.578861 L 24.187189,38.578861 z "
         style="fill:url(#linearGradient1933);fill-opacity:1.0000000;fill-rule:evenodd;stroke:none;stroke-width:1.0000000px;stroke-linecap:butt;stroke-linejoin:miter;stroke-opacity:1.0000000" />
      <path
         id="path2483"
         d="M 29.539020,3.5961828 C 14.810111,3.5961828 2.8539526,8.0770907 2.8539526,13.596827 C 2.8539526,14.617574 3.2696322,15.601849 4.0291331,16.529727 C 4.0644661,16.572859 4.1034455,16.616468 4.1403011,16.659375 L 24.430695,39.748256 L 24.483628,39.748256 C 25.177937,40.550610 27.167563,41.134868 29.539020,41.134868 C 32.125103,41.134868 34.275269,40.444341 34.763814,39.528765 L 54.704825,16.893843 C 55.670356,15.860046 56.218797,14.753612 56.218797,13.596827 C 56.218797,8.0770907 44.267930,3.5961828 29.539020,3.5961828 z "
         style="fill:url(#linearGradient1935);fill-opacity:1.0000000;fill-rule:evenodd;stroke:none;stroke-width:1.0000000px;stroke-linecap:butt;stroke-linejoin:miter;stroke-opacity:1.0000000" />
      <path
         transform="matrix(0.132417,0.000000,0.000000,0.126157,4.767091,6.617658)"
         d="M 344.57040 108.29356 A 157.51790 62.649166 0 1 1  29.534607,108.29356 A 157.51790 62.649166 0 1 1  344.57040 108.29356 z"
         sodipodi:ry="62.649166"
         sodipodi:rx="157.51790"
         sodipodi:cy="108.29356"
         sodipodi:cx="187.05251"
         id="path5580"
         style="fill:#000000;fill-opacity:1.0000000;fill-rule:evenodd;stroke:none;stroke-width:1.0000000px;stroke-linecap:butt;stroke-linejoin:miter;stroke-opacity:1.0000000"
         sodipodi:type="arc" />
      <path
         transform="matrix(0.132417,0.000000,0.000000,0.126157,4.767091,6.617658)"
         d="M 344.57040 108.29356 A 157.51790 62.649166 0 1 1  29.534607,108.29356 A 157.51790 62.649166 0 1 1  344.57040 108.29356 z"
         sodipodi:ry="62.649166"
         sodipodi:rx="157.51790"
         sodipodi:cy="108.29356"
         sodipodi:cx="187.05251"
         id="path10949"
         style="fill:url(#radialGradient1937);fill-opacity:1.0000000;fill-rule:evenodd;stroke:none;stroke-width:1.0000000px;stroke-linecap:butt;stroke-linejoin:miter;stroke-opacity:1.0000000"
         sodipodi:type="arc" />
      <path
         id="path2503"
         d="M 4.2858729,16.768140 L 24.533920,39.812096 L 24.586853,39.812096 C 25.282260,40.613748 27.266837,41.198708 29.636964,41.198708 C 32.228429,41.198708 34.389754,40.506036 34.872327,39.587613 L 54.786876,16.977602 C 51.130570,20.866586 41.259921,23.661349 29.636964,23.661349 C 17.804937,23.661349 7.7780034,20.766759 4.2858729,16.768140 z "
         style="fill:url(#linearGradient1939);fill-opacity:1.0000000;fill-rule:evenodd;stroke:none;stroke-width:0.20000000px;stroke-linecap:butt;stroke-linejoin:miter;stroke-opacity:1.0000000" />
      <path
         id="path17191"
         d="M 23.906250,39.375000 L 23.250000,40.125000 C 24.758729,41.440422 27.354467,41.865109 29.843750,41.812500 C 31.088391,41.786196 32.304630,41.626308 33.343750,41.343750 C 34.382870,41.061192 35.256858,40.689644 35.812500,40.093750 L 35.062500,39.406250 C 34.733738,39.758829 34.002176,40.119483 33.062500,40.375000 C 32.122824,40.630517 30.984411,40.787733 29.812500,40.812500 C 27.468677,40.862035 25.041844,40.365095 23.906250,39.375000 z "
         style="fill:#000000;fill-opacity:0.056497160;fill-rule:evenodd;stroke:none;stroke-width:1.0000000px;stroke-linecap:butt;stroke-linejoin:miter;stroke-opacity:1.0000000" />
      <path
         sodipodi:nodetypes="ccccccc"
         id="path15645"
         d="M 26.110497,60.731821 L 25.939227,41.000000 L 15.171270,22.292817 C 18.110229,23.025109 23.443717,23.821655 26.403315,23.800813 L 29.044665,40.646409 L 28.932766,61.195617 L 26.110497,60.731821 z "
         style="fill:url(#linearGradient1941);fill-opacity:1.0000000;fill-rule:evenodd;stroke:none;stroke-width:1.0000000px;stroke-linecap:butt;stroke-linejoin:miter;stroke-opacity:1.0000000" />
      <path
         id="path17951"
         d="M 23.687500,39.593750 L 23.437500,39.906250 C 24.834288,41.124074 27.398105,41.582937 29.843750,41.531250 C 31.066572,41.505407 32.240713,41.336946 33.250000,41.062500 C 34.259287,40.788054 35.106172,40.397899 35.593750,39.875000 L 35.281250,39.625000 C 34.884424,40.050573 34.125759,40.423870 33.156250,40.687500 C 32.186741,40.951130 31.006230,41.099772 29.812500,41.125000 C 27.425039,41.175457 24.935034,40.681443 23.687500,39.593750 z "
         style="fill:#000000;fill-opacity:0.056497160;fill-rule:evenodd;stroke:none;stroke-width:0.40000001;stroke-linecap:butt;stroke-linejoin:miter;stroke-miterlimit:4.0000000;stroke-opacity:1.0000000" />
      <path
         transform="matrix(0.165938,0.000000,0.000000,0.154225,-1.569686,-3.094166)"
         d="M 344.57040 108.29356 A 157.51790 62.649166 0 1 1  29.534607,108.29356 A 157.51790 62.649166 0 1 1  344.57040 108.29356 z"
         sodipodi:ry="62.649166"
         sodipodi:rx="157.51790"
         sodipodi:cy="108.29356"
         sodipodi:cx="187.05251"
         id="path2522"
         style="fill:none;fill-opacity:0.75000000;fill-rule:evenodd;stroke:#ffffff;stroke-width:7.3750000;stroke-linecap:butt;stroke-linejoin:miter;stroke-miterlimit:4.0000000;stroke-opacity:1.0000000"
         sodipodi:type="arc" />
      <path
         sodipodi:nodetypes="czzzzzzs"
         id="path7098"
         d="M 25.262481,12.901309 C 30.304407,12.516445 35.988469,12.893953 38.611653,13.463636 C 41.234835,14.033312 43.140037,15.478508 41.990589,16.193466 C 40.841144,16.908468 34.763393,17.330946 31.714965,17.753418 C 28.666529,18.175897 26.029121,18.858365 23.699980,18.728371 C 21.370830,18.598375 18.442971,17.623425 17.740117,16.973445 C 17.037255,16.323464 17.941464,15.528247 19.482803,14.828574 C 21.024151,14.128893 22.693561,13.097376 25.262481,12.901309 z "
         style="fill:url(#linearGradient1943);fill-opacity:1.0000000;fill-rule:evenodd;stroke:#000000;stroke-width:0.16014563px;stroke-linecap:butt;stroke-linejoin:miter;stroke-opacity:1.0000000" />
      <path
         sodipodi:nodetypes="cczc"
         id="path10185"
         d="M 3.9106625,13.250490 C 4.7578109,2.6670778 53.758611,1.7150240 54.806402,13.781900 C 54.761812,6.2317911 37.941475,4.2391157 29.458849,4.1505368 C 20.976225,4.0619639 4.3788163,6.4753188 3.9106625,13.250490 z "
         style="fill:#000000;fill-opacity:0.033898298;fill-rule:evenodd;stroke:none;stroke-width:1.0000000px;stroke-linecap:butt;stroke-linejoin:miter;stroke-opacity:1.0000000" />
      <path
         sodipodi:nodetypes="cczc"
         id="path10945"
         d="M 3.9106625,13.349839 C 6.7642069,2.7000015 51.150290,1.4822233 54.806402,13.881205 C 54.761812,6.7296646 37.874593,4.1391543 29.391966,4.0505805 C 20.909351,3.9620027 4.7132214,7.3052967 3.9106625,13.349839 z "
         style="fill:#000000;fill-opacity:0.033898298;fill-rule:evenodd;stroke:none;stroke-width:1.0000000px;stroke-linecap:butt;stroke-linejoin:miter;stroke-opacity:1.0000000" />
      <path
         sodipodi:nodetypes="cczc"
         id="path10947"
         d="M 3.9106625,13.262665 C 7.2992463,1.6164663 48.742607,0.39873267 54.806402,13.794031 C 54.293657,7.1738608 37.941475,4.4505489 29.458849,4.3619760 C 20.976225,4.2733973 4.7132214,7.2181672 3.9106625,13.262665 z "
         style="fill:#000000;fill-opacity:0.033898298;fill-rule:evenodd;stroke:none;stroke-width:1.0000000px;stroke-linecap:butt;stroke-linejoin:miter;stroke-opacity:1.0000000" />
      <path
         sodipodi:nodetypes="ccccccc"
         id="path16417"
         d="M 26.110497,61.519783 L 25.939227,41.000000 L 15.171270,22.292817 C 18.110229,23.025109 23.443717,23.821655 26.403315,23.800813 L 29.044665,40.646409 L 28.932766,61.983579 C 28.867523,62.354288 26.088189,61.937036 26.110497,61.519783 z "
         style="fill:url(#linearGradient1945);fill-opacity:1.0000000;fill-rule:evenodd;stroke:none;stroke-width:1.0000000px;stroke-linecap:butt;stroke-linejoin:miter;stroke-opacity:1.0000000" />
      <path
         sodipodi:nodetypes="ccccc"
         id="path17957"
         d="M 35.498931,12.706805 C 34.801462,12.613305 32.691674,12.414408 31.888808,12.426305 L 31.655691,4.5710015 C 33.760032,4.5985485 36.981580,4.8579686 38.896207,5.2017063 L 35.498931,12.706805 z "
         style="fill:url(#linearGradient1947);fill-opacity:1.0000000;fill-rule:evenodd;stroke:none;stroke-width:1.0000000px;stroke-linecap:butt;stroke-linejoin:miter;stroke-opacity:1.0000000" />
    </g>
  </g>
</svg>
