<?xml version="1.0" encoding="UTF-8" standalone="no"?>
<!-- Created with Inkscape (http://www.inkscape.org/) -->
<svg
   xmlns:dc="http://purl.org/dc/elements/1.1/"
   xmlns:cc="http://web.resource.org/cc/"
   xmlns:rdf="http://www.w3.org/1999/02/22-rdf-syntax-ns#"
   xmlns:svg="http://www.w3.org/2000/svg"
   xmlns="http://www.w3.org/2000/svg"
   xmlns:xlink="http://www.w3.org/1999/xlink"
   xmlns:sodipodi="http://inkscape.sourceforge.net/DTD/sodipodi-0.dtd"
   xmlns:inkscape="http://www.inkscape.org/namespaces/inkscape"
   sodipodi:docname="grafmode.svg"
   sodipodi:docbase="/home/nuno/kdeplayground-artwork/oooicons/crystalsvg"
   inkscape:version="0.41"
   sodipodi:version="0.32"
   id="svg1387"
   height="64px"
   width="64px">
  <defs
     id="defs3">
    <linearGradient
       y2="33.684902"
       x2="157.17761"
       y1="389.26682"
       x1="204.50159"
       gradientTransform="matrix(0.261990,0.000000,0.000000,0.195406,-0.241151,-2.103282)"
       gradientUnits="userSpaceOnUse"
       id="linearGradient11715"
       xlink:href="#light75to25"
       inkscape:collect="always" />
    <linearGradient
       id="light75to0">
      <stop
         id="stop2769"
         offset="0.0000000"
         style="stop-color:#ffffff;stop-opacity:0.72916669;" />
      <stop
         id="stop2770"
         offset="1.0000000"
         style="stop-color:#ffffff;stop-opacity:0.0000000;" />
    </linearGradient>
    <linearGradient
       y2="1636.9476"
       x2="26.983191"
       y1="908.73114"
       x1="25.429714"
       gradientTransform="matrix(1.484665,0.000000,0.000000,3.448209e-2,-0.985657,-2.103282)"
       gradientUnits="userSpaceOnUse"
       id="linearGradient11714"
       xlink:href="#light75to0"
       inkscape:collect="always" />
    <linearGradient
       id="light75to25">
      <stop
         id="stop2774"
         offset="0.0000000"
         style="stop-color:#ffffff;stop-opacity:0.72941178;" />
      <stop
         id="stop2775"
         offset="1.0000000"
         style="stop-color:#ffffff;stop-opacity:0.26249999;" />
    </linearGradient>
    <radialGradient
       r="20.256409"
       fy="109.47668"
       fx="10.581309"
       cy="109.47668"
       cx="10.581309"
       gradientTransform="matrix(1.962690,0.000000,0.000000,0.491404,1.968396e-15,-2.105017)"
       gradientUnits="userSpaceOnUse"
       id="radialGradient11732"
       xlink:href="#light75to25"
       inkscape:collect="always" />
    <linearGradient
       y2="237.45128"
       x2="-131.83235"
       y1="237.45135"
       x1="-97.926331"
       gradientTransform="matrix(-0.586594,0.000000,0.000000,0.192322,-17.88064,-26.59900)"
       gradientUnits="userSpaceOnUse"
       id="linearGradient11712"
       xlink:href="#greylighttograyw"
       inkscape:collect="always" />
    <linearGradient
       id="greylighttograyw">
      <stop
         id="stop575"
         offset="0.0000000"
         style="stop-color:#b5b5b8;stop-opacity:1.0000000;" />
      <stop
         id="stop576"
         offset="1.0000000"
         style="stop-color:#ebebee;stop-opacity:1.0000000;" />
    </linearGradient>
    <linearGradient
       y2="-176.20081"
       x2="182.76266"
       y1="-176.20081"
       x1="-3.7884023"
       gradientTransform="matrix(0.148917,0.000000,0.000000,4.571521e-2,10.09206,29.05464)"
       gradientUnits="userSpaceOnUse"
       id="linearGradient11711"
       xlink:href="#greylighttograyw"
       inkscape:collect="always" />
    <linearGradient
       y2="318.55823"
       x2="147.45784"
       y1="288.71985"
       x1="47.088493"
       gradientTransform="matrix(0.392902,0.000000,0.000000,0.151874,-1.218243,-10.10213)"
       gradientUnits="userSpaceOnUse"
       id="linearGradient11710"
       xlink:href="#greandarktobgrean"
       inkscape:collect="always" />
    <radialGradient
       gradientUnits="userSpaceOnUse"
       id="blueligtmoretoblue"
       fy="112.96090"
       fx="38.797401"
       r="67.358803"
       cy="112.96090"
       cx="38.797401">
      <stop
         id="stop3457"
         offset="0.0055999998"
         style="stop-color:#d9ffff;stop-opacity:1.0000000;" />
      <stop
         id="stop3465"
         offset="0.74217570"
         style="stop-color:#6eaafe;stop-opacity:1.0000000;" />
      <stop
         id="stop3463"
         offset="1.0000000"
         style="stop-color:#0356fe;stop-opacity:1.0000000;" />
    </radialGradient>
    <linearGradient
       y2="7.8491359"
       x2="91.255440"
       y1="346.27313"
       x1="88.280212"
       gradientTransform="matrix(0.392902,0.000000,0.000000,0.151874,-1.218243,-10.10213)"
       gradientUnits="userSpaceOnUse"
       id="linearGradient11709"
       xlink:href="#blueligtmoretoblue"
       inkscape:collect="always" />
    <linearGradient
       id="greandarktobgrean">
      <stop
         id="stop4492"
         offset="0.0000000"
         style="stop-color:#00ad01;stop-opacity:1.0000000;" />
      <stop
         id="stop4493"
         offset="1.0000000"
         style="stop-color:#15720f;stop-opacity:1.0000000;" />
    </linearGradient>
    <linearGradient
       y2="119.57645"
       x2="24.150972"
       y1="100.79401"
       x1="9.4561310"
       gradientTransform="matrix(1.558695,0.000000,0.000000,0.506782,9.774335,-2.105017)"
       gradientUnits="userSpaceOnUse"
       id="linearGradient11734"
       xlink:href="#greandarktobgrean"
       inkscape:collect="always" />
    <radialGradient
       gradientUnits="userSpaceOnUse"
       id="bluelignonlinblu"
       fy="112.96090"
       fx="38.797401"
       r="67.358803"
       cy="112.96090"
       cx="38.797401">
      <stop
         id="stop84"
         offset="0.0055999998"
         style="stop-color:#d9ffff;stop-opacity:1.0000000;" />
      <stop
         id="stop86"
         offset="0.13480000"
         style="stop-color:#95d9ff;stop-opacity:1.0000000;" />
      <stop
         id="stop88"
         offset="0.32049999"
         style="stop-color:#68b9ff;stop-opacity:1.0000000;" />
      <stop
         id="stop90"
         offset="0.56800002"
         style="stop-color:#3293fe;stop-opacity:1.0000000;" />
      <stop
         id="stop92"
         offset="0.75340003"
         style="stop-color:#107bfe;stop-opacity:1.0000000;" />
      <stop
         id="stop94"
         offset="0.85390002"
         style="stop-color:#0372fe;stop-opacity:1.0000000;" />
      <stop
         id="stop96"
         offset="1.0000000"
         style="stop-color:#0356fe;stop-opacity:1.0000000;" />
    </radialGradient>
    <linearGradient
       y2="265.25018"
       x2="113.85740"
       y1="508.11624"
       x1="89.195503"
       gradientTransform="matrix(0.471048,0.000000,0.000000,0.158343,-21.81347,-12.92376)"
       gradientUnits="userSpaceOnUse"
       id="linearGradient11733"
       xlink:href="#bluelignonlinblu"
       inkscape:collect="always" />
    <linearGradient
       y2="229.39137"
       x2="241.45786"
       y1="197.17021"
       x1="177.67627"
       gradientTransform="matrix(0.186801,0.000000,0.000000,0.319439,-1.218243,-10.10212)"
       gradientUnits="userSpaceOnUse"
       id="linearGradient11706"
       xlink:href="#greantodarkgrean"
       inkscape:collect="always" />
    <radialGradient
       r="50.787479"
       fy="256.32290"
       fx="505.07765"
       cy="256.32290"
       cx="505.07765"
       gradientTransform="matrix(0.226314,0.000000,0.000000,0.387010,-43.46646,-48.25942)"
       gradientUnits="userSpaceOnUse"
       id="radialGradient11705"
       xlink:href="#linearGradient6033"
       inkscape:collect="always" />
    <linearGradient
       y2="50.717243"
       x2="72.015907"
       y1="23.449991"
       x1="99.531555"
       gradientTransform="scale(0.764707,1.307691)"
       gradientUnits="userSpaceOnUse"
       id="linearGradient11704"
       xlink:href="#greantodarkgrean"
       inkscape:collect="always" />
    <radialGradient
       r="50.787479"
       fy="256.32290"
       fx="505.07765"
       cy="256.32290"
       cx="505.07765"
       gradientTransform="matrix(0.226314,0.000000,0.000000,0.387010,-50.30382,-47.12472)"
       gradientUnits="userSpaceOnUse"
       id="radialGradient11703"
       xlink:href="#linearGradient6033"
       inkscape:collect="always" />
    <linearGradient
       y2="59.375664"
       x2="78.253319"
       y1="31.063423"
       x1="88.592339"
       gradientTransform="scale(0.764707,1.307691)"
       gradientUnits="userSpaceOnUse"
       id="linearGradient11702"
       xlink:href="#greantodarkgrean"
       inkscape:collect="always" />
    <linearGradient
       y2="39.699635"
       x2="57.086250"
       y1="31.161697"
       x1="73.793877"
       gradientTransform="scale(0.764707,1.307691)"
       gradientUnits="userSpaceOnUse"
       id="linearGradient11701"
       xlink:href="#greantodarkgrean"
       inkscape:collect="always" />
    <radialGradient
       r="50.787479"
       fy="256.32290"
       fx="505.07765"
       cy="256.32290"
       cx="505.07765"
       gradientTransform="matrix(0.226314,0.000000,0.000000,0.387010,-65.70628,-47.55111)"
       gradientUnits="userSpaceOnUse"
       id="radialGradient11700"
       xlink:href="#linearGradient6033"
       inkscape:collect="always" />
    <linearGradient
       y2="302.13821"
       x2="516.85187"
       y1="229.92291"
       x1="470.45776"
       gradientTransform="matrix(0.226314,0.000000,0.000000,0.387010,-65.70628,-47.55111)"
       gradientUnits="userSpaceOnUse"
       id="linearGradient11699"
       xlink:href="#greantodarkgrean"
       inkscape:collect="always" />
    <linearGradient
       y2="229.20729"
       x2="124.73960"
       y1="149.22978"
       x1="143.99066"
       gradientTransform="matrix(0.358908,0.000000,0.000000,0.319439,-39.03212,-10.10212)"
       gradientUnits="userSpaceOnUse"
       id="linearGradient11698"
       xlink:href="#greantodarkgrean"
       inkscape:collect="always" />
    <linearGradient
       id="linearGradient6033"
       inkscape:collect="always">
      <stop
         id="stop6034"
         offset="0"
         style="stop-color:#000000;stop-opacity:1;" />
      <stop
         id="stop6035"
         offset="1"
         style="stop-color:#000000;stop-opacity:0;" />
    </linearGradient>
    <radialGradient
       r="50.787479"
       fy="256.32290"
       fx="505.07765"
       cy="256.32290"
       cx="505.07765"
       gradientTransform="matrix(0.226314,0.000000,0.000000,0.387010,-39.44641,-57.89361)"
       gradientUnits="userSpaceOnUse"
       id="radialGradient11697"
       xlink:href="#linearGradient6033"
       inkscape:collect="always" />
    <linearGradient
       y2="50.717243"
       x2="72.015907"
       y1="23.449991"
       x1="99.531555"
       gradientTransform="scale(0.764707,1.307691)"
       gradientUnits="userSpaceOnUse"
       id="linearGradient11696"
       xlink:href="#greantodarkgrean"
       inkscape:collect="always" />
    <linearGradient
       id="greantodarkgrean">
      <stop
         id="stop5123"
         offset="0.0000000"
         style="stop-color:#00ff01;stop-opacity:1.0000000;" />
      <stop
         id="stop5124"
         offset="1.0000000"
         style="stop-color:#15980f;stop-opacity:1.0000000;" />
    </linearGradient>
    <linearGradient
       y2="229.20729"
       x2="124.73960"
       y1="149.22978"
       x1="143.99066"
       gradientTransform="matrix(0.358908,0.000000,0.000000,0.319439,-48.12516,-9.675719)"
       gradientUnits="userSpaceOnUse"
       id="linearGradient11695"
       xlink:href="#greantodarkgrean"
       inkscape:collect="always" />
  </defs>
  <sodipodi:namedview
     inkscape:window-y="360"
     inkscape:window-x="376"
     inkscape:window-height="538"
     inkscape:window-width="640"
     inkscape:grid-bbox="true"
     inkscape:document-units="px"
     showgrid="true"
     inkscape:current-layer="layer1"
     inkscape:cy="32.000000"
     inkscape:cx="32.000000"
     inkscape:zoom="5.5000000"
     inkscape:pageshadow="2"
     inkscape:pageopacity="0.0"
     borderopacity="1.0"
     bordercolor="#666666"
     pagecolor="#ffffff"
     id="base" />
  <metadata
     id="metadata4">
    <rdf:RDF
       id="RDF5">
      <cc:Work
         id="Work6"
         rdf:about="">
        <dc:format
           id="format7">image/svg+xml</dc:format>
        <dc:type
           rdf:resource="http://purl.org/dc/dcmitype/StillImage"
           id="type9" />
      </cc:Work>
    </rdf:RDF>
  </metadata>
  <g
     inkscape:groupmode="layer"
     inkscape:label="Layer 1"
     id="layer1">
    <g
       transform="matrix(0.783828,0.000000,0.000000,0.739049,0.699986,4.399597)"
       id="g11735">
      <path
         transform="matrix(1.000000,0.000000,0.000000,0.964473,0.000000,0.394983)"
         sodipodi:nodetypes="ccccc"
         id="path6068"
         d="M 15.118571,30.976674 C 35.445604,53.632500 30.730990,69.905309 30.730990,69.905309 L 5.5494557,69.974974 C -0.72628658,68.911785 0.76278227,66.143003 0.99449007,33.099916 L 15.118571,30.976674 z "
         style="fill:url(#linearGradient11695);fill-opacity:1.0000000;fill-rule:evenodd;stroke:none;stroke-width:0.30288227pt;stroke-linecap:butt;stroke-linejoin:miter;stroke-opacity:1.0000000" />
      <path
         transform="matrix(1.000000,0.000000,0.000000,0.964473,0.000000,0.394983)"
         sodipodi:nodetypes="ccccc"
         id="path6044"
         d="M 66.603608,18.444609 C 87.575230,46.217216 76.847023,48.689619 80.187311,59.562786 L 72.833805,59.845649 C 67.650975,50.041288 70.076582,38.957733 63.409180,27.234579 L 66.603608,18.444609 z "
         style="fill:url(#linearGradient11696);fill-opacity:1.0000000;fill-rule:evenodd;stroke:url(#radialGradient11697);stroke-width:0.073987275pt;stroke-linecap:butt;stroke-linejoin:miter;stroke-opacity:1.0000000" />
      <path
         transform="matrix(1.000000,0.000000,0.000000,0.964473,0.000000,0.394983)"
         sodipodi:nodetypes="ccccc"
         id="path6065"
         d="M 24.211583,30.550276 C 44.538615,53.206102 39.824001,69.478909 39.824001,69.478909 L 14.642468,69.548574 C 5.3975787,61.663007 -3.1342228,53.351042 5.4482102,35.018710 L 24.211583,30.550276 z "
         style="fill:url(#linearGradient11698);fill-opacity:1.0000000;fill-rule:evenodd;stroke:none;stroke-width:0.30288227pt;stroke-linecap:butt;stroke-linejoin:miter;stroke-opacity:1.0000000" />
      <path
         transform="matrix(1.000000,0.000000,0.000000,0.964473,0.000000,0.394983)"
         sodipodi:nodetypes="ccccc"
         id="path6056"
         d="M 40.095576,32.042669 C 64.407488,60.028477 59.680171,70.118505 59.680171,70.118505 L 46.573942,70.188172 C 45.473688,60.383811 43.816719,49.300254 37.149316,37.577099 L 40.095576,32.042669 z "
         style="fill:url(#linearGradient11699);fill-opacity:1.0000000;fill-rule:evenodd;stroke:url(#radialGradient11700);stroke-width:0.073987275pt;stroke-linecap:butt;stroke-linejoin:miter;stroke-opacity:1.0000000" />
      <path
         transform="matrix(1.000000,0.000000,0.000000,0.964473,0.000000,0.394983)"
         sodipodi:nodetypes="ccccc"
         id="path6057"
         d="M 46.932931,30.907942 C 71.244843,58.893749 62.620521,69.410177 62.620521,69.410177 L 53.411299,69.053443 C 48.228468,59.249081 50.654075,48.165527 43.986671,36.442371 L 46.932931,30.907942 z "
         style="fill:url(#linearGradient11701);fill-opacity:1.0000000;fill-rule:evenodd;stroke:none;stroke-width:0.073987275pt;stroke-linecap:butt;stroke-linejoin:miter;stroke-opacity:1.0000000" />
      <path
         transform="matrix(1.000000,0.000000,0.000000,0.964473,0.000000,0.394983)"
         sodipodi:nodetypes="ccccc"
         id="path5410"
         d="M 55.498025,32.469069 C 79.809937,60.454876 75.082620,70.544905 75.082620,70.544905 L 61.976391,70.614569 C 60.876137,60.810208 59.219168,49.726654 52.551765,38.003498 L 55.498025,32.469069 z "
         style="fill:url(#linearGradient11702);fill-opacity:1.0000000;fill-rule:evenodd;stroke:url(#radialGradient11703);stroke-width:0.073987275pt;stroke-linecap:butt;stroke-linejoin:miter;stroke-opacity:1.0000000" />
      <path
         transform="matrix(1.000000,0.000000,0.000000,0.964473,0.000000,0.394983)"
         sodipodi:nodetypes="ccccc"
         id="path6041"
         d="M 62.335380,31.334341 C 86.647294,59.320147 78.199806,69.005324 77.824030,69.464445 L 68.813747,69.479842 C 63.630917,59.675481 66.056524,48.591926 59.389120,36.868771 L 62.335380,31.334341 z "
         style="fill:url(#linearGradient11704);fill-opacity:1.0000000;fill-rule:evenodd;stroke:url(#radialGradient11705);stroke-width:0.073987275pt;stroke-linecap:butt;stroke-linejoin:miter;stroke-opacity:1.0000000" />
      <path
         transform="matrix(1.000000,0.000000,0.000000,0.964473,0.000000,0.394983)"
         sodipodi:nodetypes="ccccc"
         id="path6062"
         d="M 34.713995,30.550276 C 45.293604,53.206102 48.731441,69.905309 48.731441,69.905309 L 35.625212,69.974974 C 40.463251,54.414229 26.744126,52.285047 30.839879,35.445110 L 34.713995,30.550276 z "
         style="fill:url(#linearGradient11706);fill-opacity:1.0000000;fill-rule:evenodd;stroke:none;stroke-width:0.30288227pt;stroke-linecap:butt;stroke-linejoin:miter;stroke-opacity:1.0000000" />
      <path
         sodipodi:nodetypes="czzzzzzz"
         id="path4148"
         d="M 18.901893,49.865728 C 20.974398,49.403523 22.438673,46.072564 24.978017,45.610358 C 27.517363,45.148155 31.324062,44.908022 35.135394,45.610358 C 38.946724,46.312694 39.978322,45.196138 47.845995,49.824377 C 55.605418,54.388935 55.036480,56.269336 48.617211,58.610016 C 42.120351,60.978984 13.009831,61.342904 7.6977208,60.093053 C 2.3244577,58.828819 7.5403397,53.764017 10.031924,52.004252 C 12.375551,50.348990 16.829389,50.327931 18.901893,49.865728 z "
         style="fill:url(#linearGradient11733);fill-opacity:1.0000000;fill-rule:evenodd;stroke:url(#linearGradient11734);stroke-width:0.98659581;stroke-linecap:butt;stroke-linejoin:miter;stroke-miterlimit:4.0000000;stroke-opacity:1.0000000" />
      <path
         transform="matrix(1.000000,0.000000,0.000000,0.964473,0.000000,0.394983)"
         sodipodi:nodetypes="ccccccc"
         id="path2257"
         d="M 5.7426932,11.758962 L 74.985550,11.758962 C 77.505420,11.758962 79.534053,14.204552 79.534053,17.242347 L 79.534053,39.954492 C 68.214183,34.464317 1.1941890,42.992288 1.1941890,39.954492 L 1.1941890,17.242347 C 1.1941890,14.204552 3.2228218,11.758962 5.7426932,11.758962 z "
         style="fill:url(#linearGradient11709);fill-opacity:1.0000000;stroke:url(#linearGradient11710);stroke-width:1.2824560;stroke-linecap:butt;stroke-linejoin:round;stroke-miterlimit:4.0000000;stroke-dashoffset:0.0000000;stroke-opacity:1.0000000" />
      <path
         transform="matrix(1.000000,0.000000,0.000000,0.964473,0.000000,0.394983)"
         id="rect1633"
         d="M 5.4976428,12.110117 L 74.740500,12.110117 C 77.260372,12.110117 79.289005,14.555708 79.289005,17.593505 L 79.289005,64.397174 C 79.289005,67.434971 77.260372,69.880562 74.740500,69.880562 L 5.4976428,69.880562 C 2.9777716,69.880562 0.94913843,67.434971 0.94913843,64.397174 L 0.94913843,17.593505 C 0.94913843,14.555708 2.9777716,12.110117 5.4976428,12.110117 z "
         style="fill:#000000;fill-opacity:0.0000000;stroke:#000000;stroke-width:1.9847534;stroke-linecap:butt;stroke-linejoin:round;stroke-miterlimit:4.0000000;stroke-dashoffset:0.0000000;stroke-opacity:1.0000000" />
      <path
         transform="matrix(1.000000,0.000000,0.000000,0.964473,0.000000,0.394983)"
         sodipodi:nodetypes="cccccccccccc"
         id="path2884"
         d="M 25.482407,17.101648 C 23.805689,17.101648 22.304997,17.773915 21.283110,18.833762 C 20.533640,18.435626 19.664588,18.191611 18.724342,18.191611 C 17.136498,18.191611 15.725777,18.847909 14.817744,19.864584 C 14.326934,19.535580 13.764804,19.335091 13.155964,19.335091 C 11.322598,19.335091 9.8347653,21.044887 9.8347653,23.151379 C 9.8347653,23.784685 9.9815874,24.371693 10.219523,24.897580 L 36.734831,24.897580 C 36.907352,24.412240 37.001565,23.893895 37.001565,23.356984 C 37.001565,20.577677 34.506963,18.321170 31.430827,18.321170 C 30.747773,18.321170 30.095421,18.438773 29.490508,18.642244 C 28.476729,17.692493 27.057016,17.101648 25.482407,17.101648 z "
         style="fill:#ffffff;fill-opacity:1.0000000;stroke:url(#linearGradient11711);stroke-width:0.67038596;stroke-linecap:butt;stroke-linejoin:round;stroke-miterlimit:4.0000000;stroke-dashoffset:0.0000000;stroke-opacity:1.0000000" />
      <path
         transform="matrix(1.000000,0.000000,0.000000,0.964473,0.000000,0.394983)"
         sodipodi:nodetypes="cccccccccccc"
         id="path4145"
         d="M 48.233892,15.640062 C 49.489561,15.640062 50.613409,16.177752 51.378686,17.025430 C 51.939951,16.706997 52.590772,16.511829 53.294908,16.511829 C 54.484023,16.511829 55.540493,17.036747 56.220506,17.849899 C 56.588067,17.586757 57.009036,17.426405 57.464990,17.426405 C 58.837973,17.426405 59.952188,18.793924 59.952188,20.478728 C 59.952188,20.985260 59.842237,21.454755 59.664047,21.875366 L 39.807113,21.875366 C 39.677913,21.487183 39.607358,21.072603 39.607358,20.643172 C 39.607358,18.420242 41.475531,16.615454 43.779204,16.615454 C 44.290736,16.615454 44.779270,16.709512 45.232280,16.872251 C 45.991484,16.112625 47.054691,15.640062 48.233892,15.640062 z "
         style="fill:#ffffff;fill-opacity:1.0000000;stroke:url(#linearGradient11712);stroke-width:0.51883298;stroke-linecap:butt;stroke-linejoin:round;stroke-miterlimit:4.0000000;stroke-dashoffset:0.0000000;stroke-opacity:1.0000000" />
      <path
         sodipodi:nodetypes="csssss"
         id="path4786"
         d="M 19.967209,51.505364 C 21.829962,51.154616 24.251235,47.388418 26.533587,47.037668 C 28.815934,46.686918 32.352170,46.711825 35.777768,47.244803 C 39.203372,47.777780 41.963095,47.551400 45.877411,50.706948 C 53.114172,56.540906 8.0563677,56.471915 12.859616,52.796481 C 14.806752,51.306538 18.104451,51.856114 19.967209,51.505364 z "
         style="fill:url(#radialGradient11732);fill-opacity:1.0000000;fill-rule:evenodd;stroke:none;stroke-width:3.2512500;stroke-linecap:butt;stroke-linejoin:miter;stroke-miterlimit:4.0000000;stroke-opacity:1.0000000" />
      <path
         transform="matrix(1.000000,0.000000,0.000000,0.964473,0.000000,0.394983)"
         sodipodi:nodetypes="ccccc"
         id="path6119"
         d="M 1.7719301,40.531812 C 6.6060247,42.134089 68.328470,35.067992 78.312599,39.572622 L 78.371385,38.807171 C 69.439572,34.526534 5.1177564,41.430449 1.7540788,39.645875 L 1.7719301,40.531812 z "
         style="fill:url(#linearGradient11714);fill-opacity:1.0000000;fill-rule:evenodd;stroke:none;stroke-width:0.25000000pt;stroke-linecap:butt;stroke-linejoin:miter;stroke-opacity:1.0000000" />
      <path
         transform="matrix(1.000000,0.000000,0.000000,0.964473,0.000000,0.394983)"
         id="path7987"
         d="M 5.8438570,12.398970 L 74.394285,12.398970 C 76.888960,12.398970 78.897305,14.820104 78.897305,17.827523 L 78.897305,64.163155 C 78.897305,67.170574 76.888960,69.591708 74.394285,69.591708 L 5.8438570,69.591708 C 3.3491845,69.591708 1.3408378,67.170574 1.3408378,64.163155 L 1.3408378,17.827523 C 1.3408378,14.820104 3.3491845,12.398970 5.8438570,12.398970 z "
         style="fill:#000000;fill-opacity:0.0000000;stroke:url(#linearGradient11715);stroke-width:1.1284794;stroke-linecap:butt;stroke-linejoin:round;stroke-miterlimit:4.0000000;stroke-dashoffset:0.0000000;stroke-opacity:1.0000000" />
    </g>
  </g>
</svg>
