<?xml version="1.0" encoding="UTF-8" standalone="no"?>
<!-- Created with Inkscape (http://www.inkscape.org/) -->
<svg
   xmlns:dc="http://purl.org/dc/elements/1.1/"
   xmlns:cc="http://web.resource.org/cc/"
   xmlns:rdf="http://www.w3.org/1999/02/22-rdf-syntax-ns#"
   xmlns:svg="http://www.w3.org/2000/svg"
   xmlns="http://www.w3.org/2000/svg"
   xmlns:xlink="http://www.w3.org/1999/xlink"
   xmlns:sodipodi="http://inkscape.sourceforge.net/DTD/sodipodi-0.dtd"
   xmlns:inkscape="http://www.inkscape.org/namespaces/inkscape"
   inkscape:export-ydpi="45.000000"
   inkscape:export-xdpi="45.000000"
   inkscape:export-filename="/home/nuno/kdeplayground-artwork/oooicons/crystalsvg/grafinvert.png"
   sodipodi:docname="grafinvert.svg"
   sodipodi:docbase="/home/nuno/kdeplayground-artwork/oooicons/crystalsvg"
   inkscape:version="0.41"
   sodipodi:version="0.32"
   id="svg8171"
   height="64px"
   width="64px">
  <defs
     id="defs3">
    <linearGradient
       id="greylighttograyw">
      <stop
         id="stop575"
         offset="0.0000000"
         style="stop-color:#b5b5b8;stop-opacity:1.0000000;" />
      <stop
         id="stop576"
         offset="1.0000000"
         style="stop-color:#ebebee;stop-opacity:1.0000000;" />
    </linearGradient>
    <linearGradient
       gradientUnits="userSpaceOnUse"
       y2="15.297903"
       x2="142.80211"
       y1="278.58011"
       x1="149.76807"
       gradientTransform="scale(1.278586,0.782114)"
       id="linearGradient4947"
       xlink:href="#greylighttograyw"
       inkscape:collect="always" />
    <linearGradient
       id="shadow25tolineto0">
      <stop
         id="stop3442"
         offset="0.0000000"
         style="stop-color:#000000;stop-opacity:0.25490198;" />
      <stop
         id="stop3450"
         offset="0.45393065"
         style="stop-color:#000000;stop-opacity:0.029166667;" />
      <stop
         id="stop3449"
         offset="0.50000000"
         style="stop-color:#000000;stop-opacity:0.37083334;" />
      <stop
         id="stop3451"
         offset="0.53497112"
         style="stop-color:#000000;stop-opacity:0.062745102;" />
      <stop
         id="stop3444"
         offset="1.0000000"
         style="stop-color:#000000;stop-opacity:0.0000000;" />
    </linearGradient>
    <radialGradient
       r="367.66757"
       fy="185.92989"
       fx="181.49239"
       cy="188.25665"
       cx="188.47279"
       gradientTransform="matrix(5.589351e-2,0.151887,-0.150361,5.533161e-2,48.74454,-5.347810)"
       gradientUnits="userSpaceOnUse"
       id="radialGradient8159"
       xlink:href="#shadow25tolineto0"
       inkscape:collect="always" />
    <linearGradient
       id="light90to0">
      <stop
         id="stop1890"
         offset="0.0000000"
         style="stop-color:#ffffff;stop-opacity:0.90833336;" />
      <stop
         id="stop1892"
         offset="1.0000000"
         style="stop-color:#ffffff;stop-opacity:0.0000000;" />
    </linearGradient>
    <radialGradient
       gradientUnits="userSpaceOnUse"
       r="49.417671"
       fy="85.662323"
       fx="26.573225"
       cy="85.662323"
       cx="26.573225"
       gradientTransform="matrix(1.253714,0.000000,0.000000,0.797630,0.000000,10.00000)"
       id="radialGradient7387"
       xlink:href="#light90to0"
       inkscape:collect="always" />
    <linearGradient
       id="light100to0">
      <stop
         id="stop2764"
         offset="0.0000000"
         style="stop-color:#ffffff;stop-opacity:1.0000000;" />
      <stop
         id="stop2765"
         offset="1.0000000"
         style="stop-color:#ffffff;stop-opacity:0.0000000;" />
    </linearGradient>
    <linearGradient
       gradientUnits="userSpaceOnUse"
       y2="493.03009"
       x2="304.42303"
       y1="-15.232673"
       x1="82.033920"
       gradientTransform="matrix(0.194329,0.000000,0.000000,0.130981,1.705709,2.585495)"
       id="linearGradient8156"
       xlink:href="#light100to0"
       inkscape:collect="always" />
  </defs>
  <sodipodi:namedview
     inkscape:window-y="212"
     inkscape:window-x="244"
     inkscape:window-height="537"
     inkscape:window-width="640"
     inkscape:grid-bbox="true"
     inkscape:document-units="px"
     showgrid="true"
     inkscape:current-layer="layer1"
     inkscape:cy="29.779008"
     inkscape:cx="32.000000"
     inkscape:zoom="5.9218750"
     inkscape:pageshadow="2"
     inkscape:pageopacity="0.0"
     borderopacity="1.0"
     bordercolor="#666666"
     pagecolor="#ffffff"
     id="base" />
  <metadata
     id="metadata4">
    <rdf:RDF
       id="RDF5">
      <cc:Work
         id="Work6"
         rdf:about="">
        <dc:format
           id="format7">image/svg+xml</dc:format>
        <dc:type
           rdf:resource="http://purl.org/dc/dcmitype/StillImage"
           id="type9" />
      </cc:Work>
    </rdf:RDF>
  </metadata>
  <g
     inkscape:groupmode="layer"
     inkscape:label="Layer 1"
     id="layer1">
    <path
       transform="matrix(-0.140762,8.195961e-2,-0.133996,-0.230131,72.30865,43.19885)"
       d="M 367.39621 112.15536 A 183.69810 112.36852 0 1 1  0.0000000,112.15536 A 183.69810 112.36852 0 1 1  367.39621 112.15536 z"
       sodipodi:ry="112.36852"
       sodipodi:rx="183.69810"
       sodipodi:cy="112.15536"
       sodipodi:cx="183.69810"
       id="path4181"
       style="fill:url(#linearGradient4947);fill-opacity:1.0000000;stroke:none;stroke-width:0.098309077;stroke-linecap:round;stroke-linejoin:round;stroke-miterlimit:4.0000000;stroke-dashoffset:0.0000000;stroke-opacity:1.0000000"
       sodipodi:type="arc" />
    <path
       sodipodi:nodetypes="cccccccccccccccccccc"
       id="path2062"
       d="M 46.491723,58.257305 C 60.559462,50.066246 65.404287,31.904826 57.450311,17.688765 L 57.188144,17.230175 C 48.873582,2.9503259 30.612208,-1.7102773 16.395060,6.5677765 C 2.2421828,14.808408 -2.7846823,32.910856 5.3724398,47.161264 L 5.5563635,47.485481 C 13.906453,61.667125 32.316963,66.510679 46.491723,58.257305 z M 45.810043,56.879960 C 32.138785,64.840165 14.763307,60.491361 6.7089744,46.814363 C 8.2479969,45.933207 10.048091,44.892727 12.054127,43.744001 C 18.334078,54.331562 32.110505,57.958248 42.720532,51.780471 C 53.245162,45.652417 56.886722,32.062436 50.983699,21.412107 C 52.750533,20.396706 54.991155,19.111304 56.297699,18.359883 C 63.962796,32.067983 59.374166,48.982135 45.810043,56.879960 z M 49.960418,21.588951 C 42.894751,25.649220 39.361125,27.683325 29.452053,33.362536 C 21.042565,38.182277 19.211700,39.219607 12.744190,42.923234 C 6.8569108,32.617800 10.298397,19.628194 20.530620,13.670396 C 30.815887,7.6817128 43.890671,11.164460 49.905765,21.495087 C 49.924224,21.526790 49.942129,21.557192 49.960418,21.588951 z "
       style="fill:#000000;fill-opacity:1.0000000;stroke:#000000;stroke-width:0.87349081;stroke-linecap:round;stroke-linejoin:round;stroke-miterlimit:4.0000000;stroke-dashoffset:0.0000000;stroke-opacity:1.0000000" />
    <path
       transform="matrix(-0.132733,7.728509e-2,-7.774600e-2,-0.133525,70.42397,42.65863)"
       d="M 381.94444 184.89583 A 197.91667 197.91667 0 1 1  -13.888901,184.89583 A 197.91667 197.91667 0 1 1  381.94444 184.89583 z"
       sodipodi:ry="197.91667"
       sodipodi:rx="197.91667"
       sodipodi:cy="184.89583"
       sodipodi:cx="184.02777"
       id="path8169"
       style="fill:#000000;fill-opacity:0.0000000;stroke:#000000;stroke-width:5.0875816;stroke-linecap:round;stroke-linejoin:round;stroke-miterlimit:4.0000000;stroke-dashoffset:0.0000000;stroke-opacity:0.036290292"
       sodipodi:type="arc" />
    <path
       transform="matrix(-0.132733,7.728509e-2,-7.774600e-2,-0.133525,70.42397,42.65863)"
       d="M 381.94444 184.89583 A 197.91667 197.91667 0 1 1  -13.888901,184.89583 A 197.91667 197.91667 0 1 1  381.94444 184.89583 z"
       sodipodi:ry="197.91667"
       sodipodi:rx="197.91667"
       sodipodi:cy="184.89583"
       sodipodi:cx="184.02777"
       id="path8167"
       style="fill:#000000;fill-opacity:0.0000000;stroke:#000000;stroke-width:7.5472264;stroke-linecap:round;stroke-linejoin:round;stroke-miterlimit:4.0000000;stroke-dashoffset:0.0000000;stroke-opacity:0.036290292"
       sodipodi:type="arc" />
    <path
       transform="matrix(-0.132733,7.728509e-2,-7.774600e-2,-0.133525,70.42397,42.65863)"
       d="M 381.94444 184.89583 A 197.91667 197.91667 0 1 1  -13.888901,184.89583 A 197.91667 197.91667 0 1 1  381.94444 184.89583 z"
       sodipodi:ry="197.91667"
       sodipodi:rx="197.91667"
       sodipodi:cy="184.89583"
       sodipodi:cx="184.02777"
       id="path8165"
       style="fill:#000000;fill-opacity:0.0000000;stroke:#000000;stroke-width:12.466517;stroke-linecap:round;stroke-linejoin:round;stroke-miterlimit:4.0000000;stroke-dashoffset:0.0000000;stroke-opacity:0.036290292"
       sodipodi:type="arc" />
    <path
       transform="matrix(-0.132733,7.728509e-2,-7.774600e-2,-0.133525,70.42397,42.65863)"
       d="M 381.94444 184.89583 A 197.91667 197.91667 0 1 1  -13.888901,184.89583 A 197.91667 197.91667 0 1 1  381.94444 184.89583 z"
       sodipodi:ry="197.91667"
       sodipodi:rx="197.91667"
       sodipodi:cy="184.89583"
       sodipodi:cx="184.02777"
       id="path8163"
       style="fill:#000000;fill-opacity:0.0000000;stroke:#000000;stroke-width:15.055617;stroke-linecap:round;stroke-linejoin:round;stroke-miterlimit:4.0000000;stroke-dashoffset:0.0000000;stroke-opacity:0.036290292"
       sodipodi:type="arc" />
    <path
       transform="matrix(-0.132733,7.728509e-2,-7.774600e-2,-0.133525,70.42397,42.65863)"
       d="M 381.94444 184.89583 A 197.91667 197.91667 0 1 1  -13.888901,184.89583 A 197.91667 197.91667 0 1 1  381.94444 184.89583 z"
       sodipodi:ry="197.91667"
       sodipodi:rx="197.91667"
       sodipodi:cy="184.89583"
       sodipodi:cx="184.02777"
       id="path8161"
       style="fill:#000000;fill-opacity:0.0000000;stroke:#000000;stroke-width:20.492727;stroke-linecap:round;stroke-linejoin:round;stroke-miterlimit:4.0000000;stroke-dashoffset:0.0000000;stroke-opacity:0.044354800"
       sodipodi:type="arc" />
    <path
       sodipodi:nodetypes="ccccc"
       id="path7370"
       d="M 41.641607,61.068748 C 26.288199,66.718709 10.015432,58.562791 4.3081082,43.053503 C -1.3992149,27.544218 5.6094927,10.525644 20.962901,4.8756838 C 36.316311,-0.77427759 53.409080,7.2274910 59.116403,22.736777 C 64.823725,38.246063 56.995017,55.418786 41.641607,61.068748 z "
       style="fill:url(#radialGradient8159);fill-opacity:1.0000000;stroke:none;stroke-width:1.0722803;stroke-linecap:round;stroke-linejoin:round;stroke-miterlimit:4.0000000;stroke-dashoffset:0.0000000;stroke-opacity:1.0000000" />
    <path
       sodipodi:nodetypes="ccccc"
       id="path7374"
       d="M 59.765237,42.273542 C 59.765237,57.912161 47.229214,70.604375 31.783046,70.604375 C 16.336874,70.604375 3.8008538,57.912161 3.8008538,42.273542 C 3.8008538,26.634923 16.951659,31.621981 32.397826,31.621981 C 47.843998,31.621981 59.765237,26.634923 59.765237,42.273542 z "
       style="fill:url(#radialGradient7387);fill-opacity:1.0000000;stroke:none;stroke-width:1.0722803;stroke-linecap:round;stroke-linejoin:round;stroke-miterlimit:4.0000000;stroke-dashoffset:0.0000000;stroke-opacity:1.0000000" />
    <path
       sodipodi:nodetypes="cssss"
       id="path7389"
       d="M 56.977484,24.115470 C 56.909569,32.666556 48.042463,29.081913 38.415040,28.892216 C 29.341905,28.718441 5.9722849,47.208746 6.0000247,25.223121 C 6.0114842,16.254830 16.042583,3.5546887 31.488755,3.5546887 C 46.934923,3.5546887 57.044307,15.974426 56.977484,24.115470 z "
       style="fill:url(#linearGradient8156);fill-opacity:1.0000000;stroke:none;stroke-width:1.0722803;stroke-linecap:round;stroke-linejoin:round;stroke-miterlimit:4.0000000;stroke-dashoffset:0.0000000;stroke-opacity:1.0000000" />
  </g>
</svg>
