<?xml version="1.0" encoding="UTF-8" standalone="no"?>
<!-- Created with Inkscape (http://www.inkscape.org/) -->
<svg
   xmlns:dc="http://purl.org/dc/elements/1.1/"
   xmlns:cc="http://web.resource.org/cc/"
   xmlns:rdf="http://www.w3.org/1999/02/22-rdf-syntax-ns#"
   xmlns:svg="http://www.w3.org/2000/svg"
   xmlns="http://www.w3.org/2000/svg"
   xmlns:xlink="http://www.w3.org/1999/xlink"
   xmlns:sodipodi="http://inkscape.sourceforge.net/DTD/sodipodi-0.dtd"
   xmlns:inkscape="http://www.inkscape.org/namespaces/inkscape"
   inkscape:export-ydpi="45.000000"
   inkscape:export-xdpi="45.000000"
   inkscape:export-filename="/home/nuno/kdeplayground-artwork/oooicons/crystalsvg/contrast.png"
   sodipodi:docname="contrast.svg"
   sodipodi:docbase="/home/nuno/kdeplayground-artwork/oooicons/crystalsvg"
   inkscape:version="0.41"
   sodipodi:version="0.32"
   id="svg9606"
   height="64px"
   width="64px">
  <defs
     id="defs3">
    <linearGradient
       id="graytolightgray">
      <stop
         id="stop5101"
         offset="0.0000000"
         style="stop-color:#d4d3d3;stop-opacity:1.0000000;" />
      <stop
         id="stop5102"
         offset="1.0000000"
         style="stop-color:#ffffff;stop-opacity:1.0000000;" />
    </linearGradient>
    <radialGradient
       gradientUnits="userSpaceOnUse"
       r="19.896696"
       fy="136.35681"
       fx="60.421730"
       cy="136.35681"
       cx="60.421730"
       gradientTransform="scale(1.011742,0.988394)"
       id="radialGradient9604"
       xlink:href="#graytolightgray"
       inkscape:collect="always" />
    <radialGradient
       gradientUnits="userSpaceOnUse"
       r="28.171349"
       fy="149.99643"
       fx="48.540771"
       cy="149.99643"
       cx="48.540771"
       gradientTransform="matrix(2.339957,0.000000,0.000000,2.344715,-82.88689,-293.9912)"
       id="radialGradient7285"
       xlink:href="#graytoblack"
       inkscape:collect="always" />
    <linearGradient
       y2="143.47214"
       x2="49.778877"
       y1="129.56949"
       x1="40.100945"
       gradientTransform="scale(1.017568,0.982735)"
       gradientUnits="userSpaceOnUse"
       id="linearGradient8834"
       xlink:href="#light100to0"
       inkscape:collect="always" />
    <linearGradient
       id="light90to0">
      <stop
         id="stop1890"
         offset="0.0000000"
         style="stop-color:#ffffff;stop-opacity:0.90833336;" />
      <stop
         id="stop1892"
         offset="1.0000000"
         style="stop-color:#ffffff;stop-opacity:0.0000000;" />
    </linearGradient>
    <radialGradient
       r="8.6912231"
       fy="103.77178"
       fx="68.089058"
       cy="103.77178"
       cx="68.089058"
       gradientTransform="scale(0.707562,1.413303)"
       gradientUnits="userSpaceOnUse"
       id="radialGradient8832"
       xlink:href="#light90to0"
       inkscape:collect="always" />
    <linearGradient
       id="graytoblack">
      <stop
         id="stop5097"
         offset="0.0000000"
         style="stop-color:#7d7d7d;stop-opacity:1.0000000;" />
      <stop
         id="stop5098"
         offset="1.0000000"
         style="stop-color:#000000;stop-opacity:1.0000000;" />
    </linearGradient>
    <linearGradient
       y2="154.09108"
       x2="62.075077"
       y1="126.07121"
       x1="39.381493"
       gradientTransform="matrix(0.818824,0.000000,0.000000,0.818825,9.068517,22.81251)"
       gradientUnits="userSpaceOnUse"
       id="linearGradient8830"
       xlink:href="#graytoblack"
       inkscape:collect="always" />
    <linearGradient
       id="light100to0">
      <stop
         id="stop2764"
         offset="0.0000000"
         style="stop-color:#ffffff;stop-opacity:1.0000000;" />
      <stop
         id="stop2765"
         offset="1.0000000"
         style="stop-color:#ffffff;stop-opacity:0.0000000;" />
    </linearGradient>
    <linearGradient
       gradientUnits="userSpaceOnUse"
       y2="214.53551"
       x2="35.654884"
       y1="151.09816"
       x1="35.534496"
       gradientTransform="matrix(3.261400,0.000000,0.000000,1.682265,-82.88689,-293.9912)"
       id="linearGradient8065"
       xlink:href="#light100to0"
       inkscape:collect="always" />
  </defs>
  <sodipodi:namedview
     inkscape:window-y="393"
     inkscape:window-x="0"
     inkscape:window-height="538"
     inkscape:window-width="640"
     inkscape:grid-bbox="true"
     inkscape:document-units="px"
     showgrid="true"
     inkscape:current-layer="layer1"
     inkscape:cy="32.000000"
     inkscape:cx="32.000000"
     inkscape:zoom="5.5000000"
     inkscape:pageshadow="2"
     inkscape:pageopacity="0.0"
     borderopacity="1.0"
     bordercolor="#666666"
     pagecolor="#ffffff"
     id="base" />
  <metadata
     id="metadata4">
    <rdf:RDF
       id="RDF5">
      <cc:Work
         id="Work6"
         rdf:about="">
        <dc:format
           id="format7">image/svg+xml</dc:format>
        <dc:type
           rdf:resource="http://purl.org/dc/dcmitype/StillImage"
           id="type9" />
      </cc:Work>
    </rdf:RDF>
  </metadata>
  <g
     inkscape:groupmode="layer"
     inkscape:label="Layer 1"
     id="layer1">
    <path
       transform="matrix(2.132384,0.000000,0.000000,2.225430,-73.58743,-272.5284)"
       sodipodi:open="true"
       sodipodi:end="6.2779243"
       sodipodi:start="0.0000000"
       d="M 63.305736,136.75941 A 13.716243,13.399714 0 1 1 63.305546,136.68892"
       sodipodi:ry="13.399714"
       sodipodi:rx="13.716243"
       sodipodi:cy="136.75941"
       sodipodi:cx="49.589493"
       id="path8836"
       style="fill:url(#radialGradient9604);fill-opacity:1.0000000;stroke:none;stroke-width:2.3465126;stroke-linecap:round;stroke-linejoin:round;stroke-miterlimit:4.0000000;stroke-dashoffset:0.0000000;stroke-opacity:1.0000000"
       sodipodi:type="arc" />
    <path
       id="path1871"
       d="M 32.176965,0.29120220 C 14.667410,0.29120220 0.42050429,14.582029 0.42050664,32.145589 C 0.42050664,49.709148 14.667410,64.000000 32.176965,64.000000 C 49.686520,64.000000 64.000000,49.709148 64.000000,32.145589 C 64.000000,14.582029 49.686520,0.29120220 32.176965,0.29120220 z M 32.176965,5.2997569 C 46.981726,5.2997569 59.006844,17.295180 59.006844,32.145589 C 59.006847,46.996023 46.981726,58.991445 32.176965,58.991445 C 17.372203,58.991445 5.4136593,46.996023 5.4136593,32.145589 C 5.4136593,17.295180 17.372203,5.2997569 32.176965,5.2997569 z "
       style="fill:url(#radialGradient7285);fill-opacity:1.0000000;stroke:none;stroke-width:2.3465126;stroke-linecap:round;stroke-linejoin:round;stroke-miterlimit:4.0000000;stroke-dashoffset:0.0000000;stroke-opacity:1.0000000" />
    <g
       transform="matrix(2.079073,0.000000,0.000000,2.137535,-72.61328,-261.3823)"
       id="g8825">
      <path
         sodipodi:nodetypes="csssssssssssssssssssssssssssssscsssssssssssssssssssssssssssssssccs"
         id="path4188"
         d="M 49.014699,147.40990 C 48.842205,147.40114 48.670845,147.38807 48.500727,147.37077 C 48.330610,147.35348 48.161732,147.33197 47.994203,147.30635 C 47.826672,147.28072 47.660490,147.25100 47.495760,147.21726 C 47.331032,147.18352 47.167756,147.14578 47.006040,147.10414 C 46.844324,147.06250 46.684168,147.01696 46.525678,146.96763 C 46.367187,146.91830 46.210363,146.86518 46.055312,146.80838 C 45.900260,146.75156 45.746982,146.69108 45.595580,146.62700 C 45.444181,146.56293 45.294658,146.49528 45.147121,146.42415 C 44.999584,146.35302 44.854033,146.27842 44.710572,146.20046 C 44.567111,146.12251 44.425742,146.04116 44.286570,145.95657 C 44.147398,145.87199 44.010423,145.78412 43.875753,145.69312 C 43.741082,145.60212 43.608715,145.50796 43.478759,145.41075 C 43.348802,145.31354 43.221255,145.21328 43.096226,145.11009 C 42.971195,145.00689 42.848681,144.90075 42.728791,144.79177 C 42.608900,144.68279 42.491632,144.57099 42.377092,144.45644 C 42.262553,144.34191 42.150743,144.22464 42.041769,144.10474 C 41.932793,143.98486 41.826653,143.86234 41.723456,143.73732 C 41.620257,143.61228 41.520002,143.48473 41.422793,143.35478 C 41.325585,143.22482 41.231423,143.09246 41.140417,142.95778 C 41.049411,142.82311 40.961558,142.68613 40.876967,142.54697 C 40.792374,142.40779 40.711043,142.26643 40.633079,142.12297 C 40.555114,141.97951 40.480516,141.83395 40.409392,141.68641 C 40.338267,141.53888 40.270615,141.38935 40.206543,141.23795 C 40.142471,141.08656 40.081978,140.93328 40.025170,140.77822 C 39.968363,140.62317 39.915241,140.46635 39.865911,140.30786 C 39.816581,140.14937 39.771043,139.98920 39.729404,139.82749 C 39.687765,139.66578 39.650023,139.50250 39.616287,139.33777 C 39.582549,139.17305 39.552818,139.00686 39.527196,138.83933 C 39.501574,138.67179 39.480063,138.50292 39.462770,138.33280 C 39.445476,138.16269 39.432399,137.99133 39.423646,137.81883 C 39.414893,137.64634 39.410464,137.47271 39.410464,137.29805 C 39.410464,137.12340 39.414893,136.94977 39.423646,136.77727 C 39.432399,136.60478 39.445476,136.43342 39.462770,136.26330 C 39.480063,136.09319 39.501574,135.92431 39.527196,135.75678 C 39.552818,135.58925 39.582549,135.42306 39.616287,135.25834 C 39.650023,135.09361 39.687765,134.93033 39.729404,134.76862 C 39.771043,134.60690 39.816581,134.44674 39.865911,134.28825 C 39.915241,134.12976 39.968363,133.97294 40.025170,133.81789 C 40.081978,133.66283 40.142471,133.50955 40.206543,133.35816 C 40.270615,133.20675 40.338267,133.05723 40.409392,132.90970 C 40.480516,132.76216 40.555114,132.61661 40.633079,132.47315 C 40.711043,132.32968 40.792374,132.18831 40.876967,132.04914 C 40.961558,131.90997 41.049411,131.77300 41.140417,131.63833 C 41.231423,131.50365 41.325585,131.37129 41.422793,131.24134 C 41.520002,131.11138 41.620257,130.98383 41.723456,130.85879 C 41.826653,130.73377 41.932793,130.61126 42.041769,130.49136 C 42.150743,130.37147 42.262553,130.25421 42.377092,130.13967 C 42.491632,130.02513 42.608900,129.91331 42.728791,129.80434 C 42.848681,129.69537 42.971195,129.58923 43.096226,129.48602 C 43.221255,129.38283 43.348802,129.28257 43.478759,129.18537 C 43.608715,129.08816 43.741082,128.99399 43.875753,128.90299 C 44.010423,128.81198 44.147398,128.72413 44.286570,128.63954 C 44.425742,128.55495 44.567111,128.47361 44.710572,128.39566 C 44.854033,128.31768 44.999584,128.24309 45.147121,128.17196 C 45.294658,128.10083 45.444181,128.03319 45.595580,127.96912 C 45.746982,127.90504 45.900260,127.84455 46.055312,127.78774 C 46.210363,127.73093 46.367187,127.67781 46.525678,127.62848 C 46.684168,127.57915 46.844324,127.53361 47.006040,127.49197 C 47.167756,127.45034 47.331032,127.41259 47.495760,127.37885 C 47.660490,127.34512 47.826672,127.31539 47.994203,127.28976 C 48.161732,127.26414 48.330610,127.24263 48.500727,127.22534 C 48.670845,127.20804 48.842205,127.19497 49.014699,127.18622 C 49.187192,127.17746 49.535476,127.59491 49.535476,127.80585 C 49.535476,128.01679 49.535476,146.57933 49.535476,146.79027 C 49.535476,147.00120 49.187192,147.41865 49.014699,147.40990 z "
         style="fill:#000000;fill-opacity:1.0000000;stroke:url(#linearGradient8830);stroke-width:0.49612498;stroke-linecap:round;stroke-linejoin:round;stroke-miterlimit:4.0000000;stroke-dashoffset:0.0000000;stroke-opacity:1.0000000" />
      <path
         sodipodi:nodetypes="csssssssssssssssssssssssssssssscsssssssssssssssssssssssssssssssccs"
         id="path5739"
         d="M 49.014699,147.40990 C 48.842205,147.40114 48.670845,147.38807 48.500727,147.37077 C 48.330610,147.35348 48.161732,147.33197 47.994203,147.30635 C 47.826672,147.28072 47.660490,147.25100 47.495760,147.21726 C 47.331032,147.18352 47.167756,147.14578 47.006040,147.10414 C 46.844324,147.06250 46.684168,147.01696 46.525678,146.96763 C 46.367187,146.91830 46.210363,146.86518 46.055312,146.80838 C 45.900260,146.75156 45.746982,146.69108 45.595580,146.62700 C 45.444181,146.56293 45.294658,146.49528 45.147121,146.42415 C 44.999584,146.35302 44.854033,146.27842 44.710572,146.20046 C 44.567111,146.12251 44.425742,146.04116 44.286570,145.95657 C 44.147398,145.87199 44.010423,145.78412 43.875753,145.69312 C 43.741082,145.60212 43.608715,145.50796 43.478759,145.41075 C 43.348802,145.31354 43.221255,145.21328 43.096226,145.11009 C 42.971195,145.00689 42.848681,144.90075 42.728791,144.79177 C 42.608900,144.68279 42.491632,144.57099 42.377092,144.45644 C 42.262553,144.34191 42.150743,144.22464 42.041769,144.10474 C 41.932793,143.98486 41.826653,143.86234 41.723456,143.73732 C 41.620257,143.61228 41.520002,143.48473 41.422793,143.35478 C 41.325585,143.22482 41.231423,143.09246 41.140417,142.95778 C 41.049411,142.82311 40.961558,142.68613 40.876967,142.54697 C 40.792374,142.40779 40.711043,142.26643 40.633079,142.12297 C 40.555114,141.97951 40.480516,141.83395 40.409392,141.68641 C 40.338267,141.53888 40.270615,141.38935 40.206543,141.23795 C 40.142471,141.08656 40.081978,140.93328 40.025170,140.77822 C 39.968363,140.62317 39.915241,140.46635 39.865911,140.30786 C 39.816581,140.14937 39.771043,139.98920 39.729404,139.82749 C 39.687765,139.66578 39.650023,139.50250 39.616287,139.33777 C 39.582549,139.17305 39.552818,139.00686 39.527196,138.83933 C 39.501574,138.67179 39.480063,138.50292 39.462770,138.33280 C 39.445476,138.16269 39.432399,137.99133 39.423646,137.81883 C 39.414893,137.64634 39.410464,137.47271 39.410464,137.29805 C 39.410464,137.12340 39.414893,136.94977 39.423646,136.77727 C 39.432399,136.60478 39.445476,136.43342 39.462770,136.26330 C 39.480063,136.09319 39.501574,135.92431 39.527196,135.75678 C 39.552818,135.58925 39.582549,135.42306 39.616287,135.25834 C 39.650023,135.09361 39.687765,134.93033 39.729404,134.76862 C 39.771043,134.60690 39.816581,134.44674 39.865911,134.28825 C 39.915241,134.12976 39.968363,133.97294 40.025170,133.81789 C 40.081978,133.66283 40.142471,133.50955 40.206543,133.35816 C 40.270615,133.20675 40.338267,133.05723 40.409392,132.90970 C 40.480516,132.76216 40.555114,132.61661 40.633079,132.47315 C 40.711043,132.32968 40.792374,132.18831 40.876967,132.04914 C 40.961558,131.90997 41.049411,131.77300 41.140417,131.63833 C 41.231423,131.50365 41.325585,131.37129 41.422793,131.24134 C 41.520002,131.11138 41.620257,130.98383 41.723456,130.85879 C 41.826653,130.73377 41.932793,130.61126 42.041769,130.49136 C 42.150743,130.37147 42.262553,130.25421 42.377092,130.13967 C 42.491632,130.02513 42.608900,129.91331 42.728791,129.80434 C 42.848681,129.69537 42.971195,129.58923 43.096226,129.48602 C 43.221255,129.38283 43.348802,129.28257 43.478759,129.18537 C 43.608715,129.08816 43.741082,128.99399 43.875753,128.90299 C 44.010423,128.81198 44.147398,128.72413 44.286570,128.63954 C 44.425742,128.55495 44.567111,128.47361 44.710572,128.39566 C 44.854033,128.31768 44.999584,128.24309 45.147121,128.17196 C 45.294658,128.10083 45.444181,128.03319 45.595580,127.96912 C 45.746982,127.90504 45.900260,127.84455 46.055312,127.78774 C 46.210363,127.73093 46.367187,127.67781 46.525678,127.62848 C 46.684168,127.57915 46.844324,127.53361 47.006040,127.49197 C 47.167756,127.45034 47.331032,127.41259 47.495760,127.37885 C 47.660490,127.34512 47.826672,127.31539 47.994203,127.28976 C 48.161732,127.26414 48.330610,127.24263 48.500727,127.22534 C 48.670845,127.20804 48.842205,127.19497 49.014699,127.18622 C 49.187192,127.17746 49.535476,127.59491 49.535476,127.80585 C 49.535476,128.01679 49.535476,146.57933 49.535476,146.79027 C 49.535476,147.00120 49.187192,147.41865 49.014699,147.40990 z "
         style="fill:url(#radialGradient8832);fill-opacity:1.0000000;stroke:none;stroke-width:0.50000000;stroke-linecap:round;stroke-linejoin:round;stroke-miterlimit:4.0000000;stroke-dashoffset:0.0000000;stroke-opacity:1.0000000" />
      <path
         sodipodi:nodetypes="cscccccc"
         id="path5729"
         d="M 48.916378,127.04253 C 46.053398,127.18308 43.567593,128.92938 42.741344,129.73206 C 40.306414,132.09754 39.522241,134.48362 39.441049,136.75474 C 40.845098,137.42806 42.427352,136.85983 43.842868,136.51927 C 45.493923,136.09905 47.293421,135.51057 48.951988,136.20001 C 49.269922,136.33514 49.642264,136.72618 49.494304,136.13308 C 49.403812,133.26769 49.643092,130.39507 49.431592,127.53407 C 49.359212,127.31001 49.175132,127.04929 48.916378,127.04253 z "
         style="fill:url(#linearGradient8834);fill-opacity:1.0000000;fill-rule:evenodd;stroke:none;stroke-width:0.25000000pt;stroke-linecap:butt;stroke-linejoin:miter;stroke-opacity:1.0000000" />
    </g>
    <path
       sodipodi:nodetypes="ccccccc"
       id="path7287"
       d="M 32.184026,1.1349825 C 14.674469,1.1349825 1.2412369,15.974420 1.2412393,32.272108 C 1.8217487,33.061333 2.8828568,31.863173 4.5806925,32.272108 C 4.8543054,15.593226 17.379263,3.9979502 32.184026,3.9979502 C 46.988786,3.9979502 60.406768,15.311925 60.269962,32.131458 C 61.488823,31.638376 61.576803,32.855869 63.199002,32.272108 C 63.335812,16.396369 50.514409,0.99433262 32.184026,1.1349825 z "
       style="fill:url(#linearGradient8065);fill-opacity:1.0000000;stroke:none;stroke-width:2.3465126;stroke-linecap:round;stroke-linejoin:round;stroke-miterlimit:4.0000000;stroke-dashoffset:0.0000000;stroke-opacity:1.0000000" />
  </g>
</svg>
