<?xml version="1.0" encoding="UTF-8" standalone="no"?>
<!-- Created with Inkscape (http://www.inkscape.org/) -->
<svg
   xmlns:dc="http://purl.org/dc/elements/1.1/"
   xmlns:cc="http://web.resource.org/cc/"
   xmlns:rdf="http://www.w3.org/1999/02/22-rdf-syntax-ns#"
   xmlns:svg="http://www.w3.org/2000/svg"
   xmlns="http://www.w3.org/2000/svg"
   xmlns:xlink="http://www.w3.org/1999/xlink"
   xmlns:sodipodi="http://inkscape.sourceforge.net/DTD/sodipodi-0.dtd"
   xmlns:inkscape="http://www.inkscape.org/namespaces/inkscape"
   inkscape:export-ydpi="45.000000"
   inkscape:export-xdpi="45.000000"
   inkscape:export-filename="/home/nuno/kdeplayground-artwork/oooicons/crystalsvg/brigtness.png"
   sodipodi:docname="brigtness.svg"
   sodipodi:docbase="/home/nuno/kdeplayground-artwork/oooicons/crystalsvg"
   inkscape:version="0.41"
   sodipodi:version="0.32"
   id="svg8897"
   height="64px"
   width="64px">
  <defs
     id="defs3">
    <linearGradient
       gradientUnits="userSpaceOnUse"
       y2="381.68417"
       x2="88.565712"
       y1="364.59821"
       x1="75.460152"
       gradientTransform="scale(1.271763,0.786310)"
       id="linearGradient8118"
       xlink:href="#light90to0"
       inkscape:collect="always" />
    <linearGradient
       id="light100to0">
      <stop
         id="stop2764"
         offset="0.0000000"
         style="stop-color:#ffffff;stop-opacity:1.0000000;" />
      <stop
         id="stop2765"
         offset="1.0000000"
         style="stop-color:#ffffff;stop-opacity:0.0000000;" />
    </linearGradient>
    <linearGradient
       y2="419.98169"
       x2="86.397942"
       y1="393.35303"
       x1="71.970497"
       gradientTransform="scale(1.383080,0.723024)"
       gradientUnits="userSpaceOnUse"
       id="linearGradient6544"
       xlink:href="#light100to0"
       inkscape:collect="always" />
    <linearGradient
       id="light90to0">
      <stop
         id="stop1890"
         offset="0.0000000"
         style="stop-color:#ffffff;stop-opacity:0.90833336;" />
      <stop
         id="stop1892"
         offset="1.0000000"
         style="stop-color:#ffffff;stop-opacity:0.0000000;" />
    </linearGradient>
    <radialGradient
       gradientUnits="userSpaceOnUse"
       r="15.734325"
       fy="312.51355"
       fx="106.42284"
       cy="312.51355"
       cx="106.42284"
       gradientTransform="scale(1.000015,0.999985)"
       id="radialGradient4171"
       xlink:href="#light90to0"
       inkscape:collect="always" />
    <linearGradient
       id="blacktowhite">
      <stop
         id="stop2476"
         offset="0.0000000"
         style="stop-color:#000000;stop-opacity:1.0000000;" />
      <stop
         id="stop2475"
         offset="1.0000000"
         style="stop-color:#ffffff;stop-opacity:1.0000000;" />
    </linearGradient>
    <linearGradient
       gradientUnits="userSpaceOnUse"
       y2="285.91547"
       x2="105.66856"
       y1="316.04922"
       x1="105.28198"
       gradientTransform="scale(1.000014,0.999986)"
       id="linearGradient4173"
       xlink:href="#blacktowhite"
       inkscape:collect="always" />
    <linearGradient
       y2="51.205971"
       x2="39.442398"
       y1="16.588518"
       x1="13.008186"
       gradientTransform="scale(1.287906,0.776454)"
       gradientUnits="userSpaceOnUse"
       id="linearGradient9717"
       xlink:href="#light100to0"
       inkscape:collect="always" />
    <linearGradient
       y2="419.98169"
       x2="86.397942"
       y1="393.35303"
       x1="71.970497"
       gradientTransform="matrix(2.581751,0.000000,0.000000,1.316024,-166.3335,-513.5866)"
       gradientUnits="userSpaceOnUse"
       id="linearGradient9721"
       xlink:href="#light100to0"
       inkscape:collect="always" />
    <radialGradient
       r="15.734325"
       fy="312.51355"
       fx="106.42284"
       cy="312.51355"
       cx="106.42284"
       gradientTransform="matrix(1.866696,0.000000,0.000000,1.820140,-166.3335,-513.5866)"
       gradientUnits="userSpaceOnUse"
       id="radialGradient9724"
       xlink:href="#light90to0"
       inkscape:collect="always" />
    <linearGradient
       y2="285.91547"
       x2="105.66856"
       y1="316.04922"
       x1="105.28198"
       gradientTransform="matrix(1.866694,0.000000,0.000000,1.820142,-166.3335,-513.5866)"
       gradientUnits="userSpaceOnUse"
       id="linearGradient9727"
       xlink:href="#blacktowhite"
       inkscape:collect="always" />
  </defs>
  <sodipodi:namedview
     inkscape:window-y="275"
     inkscape:window-x="-14"
     inkscape:window-height="538"
     inkscape:window-width="640"
     inkscape:grid-bbox="true"
     inkscape:document-units="px"
     showgrid="true"
     inkscape:current-layer="layer1"
     inkscape:cy="27.595365"
     inkscape:cx="32.000000"
     inkscape:zoom="5.5000000"
     inkscape:pageshadow="2"
     inkscape:pageopacity="0.0"
     borderopacity="1.0"
     bordercolor="#666666"
     pagecolor="#ffffff"
     id="base" />
  <metadata
     id="metadata4">
    <rdf:RDF
       id="RDF5">
      <cc:Work
         id="Work6"
         rdf:about="">
        <dc:format
           id="format7">image/svg+xml</dc:format>
        <dc:type
           rdf:resource="http://purl.org/dc/dcmitype/StillImage"
           id="type9" />
      </cc:Work>
    </rdf:RDF>
  </metadata>
  <g
     inkscape:groupmode="layer"
     inkscape:label="Layer 1"
     id="layer1">
    <path
       sodipodi:nodetypes="cssssssssssssssssssssssssss"
       id="path7326"
       d="M 32.098703,6.4137431 C 31.375127,6.4261931 30.674678,6.6645257 30.100286,7.0937757 C 27.834673,8.7868769 25.847568,11.162868 23.303449,12.173061 C 20.903100,13.126173 17.945727,12.713469 15.266866,12.983672 C 13.709694,13.140735 12.465752,14.318328 12.260131,15.831578 C 11.885020,18.592189 12.201691,21.643572 11.134799,24.113411 C 10.129150,26.441459 7.7399363,28.187946 6.0425061,30.225222 C 5.0543350,31.411225 5.0280019,33.102724 5.9814156,34.315502 C 7.7190689,36.525858 10.157815,38.464500 11.194373,40.946589 C 12.171270,43.285794 11.745976,46.168466 12.021778,48.779404 C 12.182175,50.297842 13.390503,51.510820 14.942434,51.711220 C 17.774836,52.076946 20.905527,51.767900 23.439641,52.808417 C 25.827240,53.788777 27.618271,56.118700 29.707576,57.773850 C 30.922497,58.736318 32.655997,58.761801 33.898563,57.833534 C 36.166658,56.139122 38.156339,53.761474 40.702867,52.750317 C 43.100807,51.798169 46.055612,52.212530 48.731984,51.943637 C 50.289215,51.787176 51.533106,50.609000 51.738720,49.095731 C 52.113827,46.335120 51.796866,43.283592 52.864041,40.813898 C 53.870623,38.484449 56.261358,36.736815 57.960007,34.698283 C 58.947045,33.513736 58.969240,31.823475 58.017426,30.611826 C 56.281032,28.401415 53.844676,26.462355 52.808265,23.980612 C 51.831213,21.641042 52.254144,18.758826 51.977075,16.147923 C 51.815944,14.629540 50.608322,13.416581 49.056411,13.216089 C 46.225273,12.850327 43.095580,13.159573 40.562997,12.118784 C 38.175081,11.137441 36.384293,8.8060250 34.294931,7.1496549 C 33.675478,6.6585738 32.896890,6.3987268 32.098703,6.4137431 C 32.098703,6.4137431 32.098703,6.4137431 32.098703,6.4137431 z "
       style="fill:none;fill-opacity:1.0000000;stroke:#000000;stroke-width:6.5896935;stroke-linecap:round;stroke-linejoin:round;stroke-miterlimit:4.0000000;stroke-dashoffset:0.0000000;stroke-opacity:0.039215688" />
    <path
       sodipodi:nodetypes="cssssssssssssssssssssssssss"
       id="path7324"
       d="M 32.098703,6.4137431 C 31.375127,6.4261931 30.674678,6.6645257 30.100286,7.0937757 C 27.834673,8.7868769 25.847568,11.162868 23.303449,12.173061 C 20.903100,13.126173 17.945727,12.713469 15.266866,12.983672 C 13.709694,13.140735 12.465752,14.318328 12.260131,15.831578 C 11.885020,18.592189 12.201691,21.643572 11.134799,24.113411 C 10.129150,26.441459 7.7399363,28.187946 6.0425061,30.225222 C 5.0543350,31.411225 5.0280019,33.102724 5.9814156,34.315502 C 7.7190689,36.525858 10.157815,38.464500 11.194373,40.946589 C 12.171270,43.285794 11.745976,46.168466 12.021778,48.779404 C 12.182175,50.297842 13.390503,51.510820 14.942434,51.711220 C 17.774836,52.076946 20.905527,51.767900 23.439641,52.808417 C 25.827240,53.788777 27.618271,56.118700 29.707576,57.773850 C 30.922497,58.736318 32.655997,58.761801 33.898563,57.833534 C 36.166658,56.139122 38.156339,53.761474 40.702867,52.750317 C 43.100807,51.798169 46.055612,52.212530 48.731984,51.943637 C 50.289215,51.787176 51.533106,50.609000 51.738720,49.095731 C 52.113827,46.335120 51.796866,43.283592 52.864041,40.813898 C 53.870623,38.484449 56.261358,36.736815 57.960007,34.698283 C 58.947045,33.513736 58.969240,31.823475 58.017426,30.611826 C 56.281032,28.401415 53.844676,26.462355 52.808265,23.980612 C 51.831213,21.641042 52.254144,18.758826 51.977075,16.147923 C 51.815944,14.629540 50.608322,13.416581 49.056411,13.216089 C 46.225273,12.850327 43.095580,13.159573 40.562997,12.118784 C 38.175081,11.137441 36.384293,8.8060250 34.294931,7.1496549 C 33.675478,6.6585738 32.896890,6.3987268 32.098703,6.4137431 C 32.098703,6.4137431 32.098703,6.4137431 32.098703,6.4137431 z "
       style="fill:none;fill-opacity:1.0000000;stroke:#000000;stroke-width:6.8201022;stroke-linecap:round;stroke-linejoin:round;stroke-miterlimit:4.0000000;stroke-dashoffset:0.0000000;stroke-opacity:0.039215688" />
    <path
       sodipodi:nodetypes="cssssssssssssssssssssssssss"
       id="path7322"
       d="M 32.098703,6.4137431 C 31.375127,6.4261931 30.674678,6.6645257 30.100286,7.0937757 C 27.834673,8.7868769 25.847568,11.162868 23.303449,12.173061 C 20.903100,13.126173 17.945727,12.713469 15.266866,12.983672 C 13.709694,13.140735 12.465752,14.318328 12.260131,15.831578 C 11.885020,18.592189 12.201691,21.643572 11.134799,24.113411 C 10.129150,26.441459 7.7399363,28.187946 6.0425061,30.225222 C 5.0543350,31.411225 5.0280019,33.102724 5.9814156,34.315502 C 7.7190689,36.525858 10.157815,38.464500 11.194373,40.946589 C 12.171270,43.285794 11.745976,46.168466 12.021778,48.779404 C 12.182175,50.297842 13.390503,51.510820 14.942434,51.711220 C 17.774836,52.076946 20.905527,51.767900 23.439641,52.808417 C 25.827240,53.788777 27.618271,56.118700 29.707576,57.773850 C 30.922497,58.736318 32.655997,58.761801 33.898563,57.833534 C 36.166658,56.139122 38.156339,53.761474 40.702867,52.750317 C 43.100807,51.798169 46.055612,52.212530 48.731984,51.943637 C 50.289215,51.787176 51.533106,50.609000 51.738720,49.095731 C 52.113827,46.335120 51.796866,43.283592 52.864041,40.813898 C 53.870623,38.484449 56.261358,36.736815 57.960007,34.698283 C 58.947045,33.513736 58.969240,31.823475 58.017426,30.611826 C 56.281032,28.401415 53.844676,26.462355 52.808265,23.980612 C 51.831213,21.641042 52.254144,18.758826 51.977075,16.147923 C 51.815944,14.629540 50.608322,13.416581 49.056411,13.216089 C 46.225273,12.850327 43.095580,13.159573 40.562997,12.118784 C 38.175081,11.137441 36.384293,8.8060250 34.294931,7.1496549 C 33.675478,6.6585738 32.896890,6.3987268 32.098703,6.4137431 C 32.098703,6.4137431 32.098703,6.4137431 32.098703,6.4137431 z "
       style="fill:none;fill-opacity:1.0000000;stroke:#000000;stroke-width:7.2809200;stroke-linecap:round;stroke-linejoin:round;stroke-miterlimit:4.0000000;stroke-dashoffset:0.0000000;stroke-opacity:0.039215688" />
    <path
       sodipodi:nodetypes="cssssssssssssssssssssssssss"
       id="path7320"
       d="M 32.098703,6.4137431 C 31.375127,6.4261931 30.674678,6.6645257 30.100286,7.0937757 C 27.834673,8.7868769 25.847568,11.162868 23.303449,12.173061 C 20.903100,13.126173 17.945727,12.713469 15.266866,12.983672 C 13.709694,13.140735 12.465752,14.318328 12.260131,15.831578 C 11.885020,18.592189 12.201691,21.643572 11.134799,24.113411 C 10.129150,26.441459 7.7399363,28.187946 6.0425061,30.225222 C 5.0543350,31.411225 5.0280019,33.102724 5.9814156,34.315502 C 7.7190689,36.525858 10.157815,38.464500 11.194373,40.946589 C 12.171270,43.285794 11.745976,46.168466 12.021778,48.779404 C 12.182175,50.297842 13.390503,51.510820 14.942434,51.711220 C 17.774836,52.076946 20.905527,51.767900 23.439641,52.808417 C 25.827240,53.788777 27.618271,56.118700 29.707576,57.773850 C 30.922497,58.736318 32.655997,58.761801 33.898563,57.833534 C 36.166658,56.139122 38.156339,53.761474 40.702867,52.750317 C 43.100807,51.798169 46.055612,52.212530 48.731984,51.943637 C 50.289215,51.787176 51.533106,50.609000 51.738720,49.095731 C 52.113827,46.335120 51.796866,43.283592 52.864041,40.813898 C 53.870623,38.484449 56.261358,36.736815 57.960007,34.698283 C 58.947045,33.513736 58.969240,31.823475 58.017426,30.611826 C 56.281032,28.401415 53.844676,26.462355 52.808265,23.980612 C 51.831213,21.641042 52.254144,18.758826 51.977075,16.147923 C 51.815944,14.629540 50.608322,13.416581 49.056411,13.216089 C 46.225273,12.850327 43.095580,13.159573 40.562997,12.118784 C 38.175081,11.137441 36.384293,8.8060250 34.294931,7.1496549 C 33.675478,6.6585738 32.896890,6.3987268 32.098703,6.4137431 C 32.098703,6.4137431 32.098703,6.4137431 32.098703,6.4137431 z "
       style="fill:none;fill-opacity:1.0000000;stroke:#000000;stroke-width:8.4329643;stroke-linecap:round;stroke-linejoin:round;stroke-miterlimit:4.0000000;stroke-dashoffset:0.0000000;stroke-opacity:0.039215688" />
    <path
       sodipodi:nodetypes="cssssssssssssssssssssssssss"
       id="path7318"
       d="M 32.098703,6.4137431 C 31.375127,6.4261931 30.674678,6.6645257 30.100286,7.0937757 C 27.834673,8.7868769 25.847568,11.162868 23.303449,12.173061 C 20.903100,13.126173 17.945727,12.713469 15.266866,12.983672 C 13.709694,13.140735 12.465752,14.318328 12.260131,15.831578 C 11.885020,18.592189 12.201691,21.643572 11.134799,24.113411 C 10.129150,26.441459 7.7399363,28.187946 6.0425061,30.225222 C 5.0543350,31.411225 5.0280019,33.102724 5.9814156,34.315502 C 7.7190689,36.525858 10.157815,38.464500 11.194373,40.946589 C 12.171270,43.285794 11.745976,46.168466 12.021778,48.779404 C 12.182175,50.297842 13.390503,51.510820 14.942434,51.711220 C 17.774836,52.076946 20.905527,51.767900 23.439641,52.808417 C 25.827240,53.788777 27.618271,56.118700 29.707576,57.773850 C 30.922497,58.736318 32.655997,58.761801 33.898563,57.833534 C 36.166658,56.139122 38.156339,53.761474 40.702867,52.750317 C 43.100807,51.798169 46.055612,52.212530 48.731984,51.943637 C 50.289215,51.787176 51.533106,50.609000 51.738720,49.095731 C 52.113827,46.335120 51.796866,43.283592 52.864041,40.813898 C 53.870623,38.484449 56.261358,36.736815 57.960007,34.698283 C 58.947045,33.513736 58.969240,31.823475 58.017426,30.611826 C 56.281032,28.401415 53.844676,26.462355 52.808265,23.980612 C 51.831213,21.641042 52.254144,18.758826 51.977075,16.147923 C 51.815944,14.629540 50.608322,13.416581 49.056411,13.216089 C 46.225273,12.850327 43.095580,13.159573 40.562997,12.118784 C 38.175081,11.137441 36.384293,8.8060250 34.294931,7.1496549 C 33.675478,6.6585738 32.896890,6.3987268 32.098703,6.4137431 C 32.098703,6.4137431 32.098703,6.4137431 32.098703,6.4137431 z "
       style="fill:none;fill-opacity:1.0000000;stroke:#000000;stroke-width:9.5850086;stroke-linecap:round;stroke-linejoin:round;stroke-miterlimit:4.0000000;stroke-dashoffset:0.0000000;stroke-opacity:0.039215688" />
    <path
       sodipodi:nodetypes="cssssssssssssssssssssssssss"
       id="path7316"
       d="M 32.098703,6.4137431 C 31.375127,6.4261931 30.674678,6.6645257 30.100286,7.0937757 C 27.834673,8.7868769 25.847568,11.162868 23.303449,12.173061 C 20.903100,13.126173 17.945727,12.713469 15.266866,12.983672 C 13.709694,13.140735 12.465752,14.318328 12.260131,15.831578 C 11.885020,18.592189 12.201691,21.643572 11.134799,24.113411 C 10.129150,26.441459 7.7399363,28.187946 6.0425061,30.225222 C 5.0543350,31.411225 5.0280019,33.102724 5.9814156,34.315502 C 7.7190689,36.525858 10.157815,38.464500 11.194373,40.946589 C 12.171270,43.285794 11.745976,46.168466 12.021778,48.779404 C 12.182175,50.297842 13.390503,51.510820 14.942434,51.711220 C 17.774836,52.076946 20.905527,51.767900 23.439641,52.808417 C 25.827240,53.788777 27.618271,56.118700 29.707576,57.773850 C 30.922497,58.736318 32.655997,58.761801 33.898563,57.833534 C 36.166658,56.139122 38.156339,53.761474 40.702867,52.750317 C 43.100807,51.798169 46.055612,52.212530 48.731984,51.943637 C 50.289215,51.787176 51.533106,50.609000 51.738720,49.095731 C 52.113827,46.335120 51.796866,43.283592 52.864041,40.813898 C 53.870623,38.484449 56.261358,36.736815 57.960007,34.698283 C 58.947045,33.513736 58.969240,31.823475 58.017426,30.611826 C 56.281032,28.401415 53.844676,26.462355 52.808265,23.980612 C 51.831213,21.641042 52.254144,18.758826 51.977075,16.147923 C 51.815944,14.629540 50.608322,13.416581 49.056411,13.216089 C 46.225273,12.850327 43.095580,13.159573 40.562997,12.118784 C 38.175081,11.137441 36.384293,8.8060250 34.294931,7.1496549 C 33.675478,6.6585738 32.896890,6.3987268 32.098703,6.4137431 C 32.098703,6.4137431 32.098703,6.4137431 32.098703,6.4137431 z "
       style="fill:none;fill-opacity:1.0000000;stroke:#000000;stroke-width:10.967462;stroke-linecap:round;stroke-linejoin:round;stroke-miterlimit:4.0000000;stroke-dashoffset:0.0000000;stroke-opacity:0.039215688" />
    <path
       sodipodi:nodetypes="cssssssssssssssssssssssssss"
       id="path1875"
       d="M 32.098703,6.4137431 C 31.375127,6.4261931 30.674678,6.6645257 30.100286,7.0937757 C 27.834673,8.7868769 25.847568,11.162868 23.303449,12.173061 C 20.903100,13.126173 17.945727,12.713469 15.266866,12.983672 C 13.709694,13.140735 12.465752,14.318328 12.260131,15.831578 C 11.885020,18.592189 12.201691,21.643572 11.134799,24.113411 C 10.129150,26.441459 7.7399363,28.187946 6.0425061,30.225222 C 5.0543350,31.411225 5.0280019,33.102724 5.9814156,34.315502 C 7.7190689,36.525858 10.157815,38.464500 11.194373,40.946589 C 12.171270,43.285794 11.745976,46.168466 12.021778,48.779404 C 12.182175,50.297842 13.390503,51.510820 14.942434,51.711220 C 17.774836,52.076946 20.905527,51.767900 23.439641,52.808417 C 25.827240,53.788777 27.618271,56.118700 29.707576,57.773850 C 30.922497,58.736318 32.655997,58.761801 33.898563,57.833534 C 36.166658,56.139122 38.156339,53.761474 40.702867,52.750317 C 43.100807,51.798169 46.055612,52.212530 48.731984,51.943637 C 50.289215,51.787176 51.533106,50.609000 51.738720,49.095731 C 52.113827,46.335120 51.796866,43.283592 52.864041,40.813898 C 53.870623,38.484449 56.261358,36.736815 57.960007,34.698283 C 58.947045,33.513736 58.969240,31.823475 58.017426,30.611826 C 56.281032,28.401415 53.844676,26.462355 52.808265,23.980612 C 51.831213,21.641042 52.254144,18.758826 51.977075,16.147923 C 51.815944,14.629540 50.608322,13.416581 49.056411,13.216089 C 46.225273,12.850327 43.095580,13.159573 40.562997,12.118784 C 38.175081,11.137441 36.384293,8.8060250 34.294931,7.1496549 C 33.675478,6.6585738 32.896890,6.3987268 32.098703,6.4137431 C 32.098703,6.4137431 32.098703,6.4137431 32.098703,6.4137431 z "
       style="fill:url(#linearGradient9727);fill-opacity:1.0000000;stroke:#000000;stroke-width:5.6680579;stroke-linecap:round;stroke-linejoin:round;stroke-miterlimit:4.0000000;stroke-dashoffset:0.0000000;stroke-opacity:1.0000000" />
    <path
       sodipodi:nodetypes="cssssssssssssssss"
       id="path4163"
       d="M 11.134799,24.048103 C 10.334209,26.450597 7.7399363,28.122638 6.0425061,30.159915 C 5.0543350,31.345917 5.0280019,33.037417 5.9814156,34.250194 C 7.7190689,36.460550 10.157815,38.399192 11.194373,40.881281 C 12.171270,43.220487 11.745976,46.103158 12.021778,48.714097 C 12.182175,50.232535 13.390503,51.445512 14.942434,51.645912 C 17.774836,52.011639 20.905527,51.702592 23.439641,52.743109 C 25.827240,53.723469 27.618271,56.053392 29.707576,57.708543 C 30.922497,58.671011 32.655997,58.696493 33.898563,57.768226 C 36.166658,56.073814 38.156339,53.696167 40.702867,52.685009 C 43.100807,51.732862 46.055612,52.147223 48.731984,51.878330 C 50.289215,51.721868 51.533106,50.543692 51.738720,49.030423 C 52.113827,46.269813 51.796866,43.218284 52.864041,40.748591 C 53.870623,38.419141 56.261358,36.671508 57.960007,34.632975 C 58.947045,33.448429 58.969240,31.758167 58.017426,30.546518 C 56.281032,28.336108 53.437649,26.523694 52.808265,23.915304 C 51.143570,17.016198 13.164403,17.957442 11.134799,24.048103 z "
       style="fill:url(#radialGradient9724);fill-opacity:1.0000000;stroke:none;stroke-width:3.0750000;stroke-linecap:round;stroke-linejoin:round;stroke-miterlimit:4.0000000;stroke-dashoffset:0.0000000;stroke-opacity:1.0000000" />
    <path
       sodipodi:nodetypes="ccccccccccccccccccccccccccc"
       id="path4175"
       d="M 32.058308,4.6490730 C 30.945756,4.6682030 29.849872,5.0128698 28.966640,5.6729170 C 26.456344,7.5488903 24.535804,9.7423735 22.608302,10.507736 C 20.861530,11.201347 18.087198,10.887313 15.083296,11.190298 C 12.698658,11.430797 10.789971,13.251783 10.474960,15.570075 C 10.059385,18.628411 10.292007,21.547376 9.4832923,23.419545 C 8.7757747,25.057441 3.2975129,29.806056 3.7832274,30.956384 C 4.7360065,31.714793 7.0640868,30.595736 8.0168659,31.354126 C 9.5594280,29.502725 11.504515,27.802926 12.808295,24.784670 C 14.133364,21.717161 13.756969,18.544865 14.091629,16.081997 C 14.187859,15.373788 14.703584,14.847341 15.433297,14.773752 C 17.787116,14.536329 20.954378,15.019456 24.008303,13.806788 C 27.169038,12.551765 29.162378,10.027193 31.183308,8.5169279 C 31.448860,8.3184751 31.782042,8.1813983 32.116642,8.1756466 C 32.487119,8.1686754 32.882536,8.2917004 33.166643,8.5169279 C 35.002342,9.9722060 36.836474,12.501219 39.874981,13.749908 C 43.020951,15.042773 46.274423,14.674972 48.799987,15.001273 C 49.526270,15.095102 50.066129,15.597851 50.141655,16.309518 C 50.385087,18.603511 49.890158,21.694154 51.133322,24.670910 C 52.411187,27.730811 54.402492,29.114138 56.024813,31.179336 C 56.977598,30.458859 58.755543,31.079409 59.708328,30.358932 C 57.857863,28.003326 55.311616,25.209370 54.516658,23.305785 C 53.805700,21.603383 54.069031,18.896048 53.758324,15.968237 C 53.511588,13.643119 51.644192,11.781852 49.266654,11.474699 C 46.129961,11.069457 43.194178,11.296450 41.274982,10.507736 C 39.537636,9.7937751 37.784667,7.6441396 35.441644,5.7866774 C 34.486843,5.0297792 33.284205,4.6260115 32.058308,4.6490730 z "
       style="fill:url(#linearGradient9721);fill-opacity:1.0000000;stroke:none;stroke-width:1.9500000;stroke-linecap:butt;stroke-linejoin:round;stroke-miterlimit:4.0000000;stroke-dashoffset:0.0000000;stroke-opacity:1.0000000" />
    <rect
       ry="1.7601891"
       rx="4.6321020"
       y="27.913082"
       x="-3.0000501"
       height="3.2038376"
       width="70.000053"
       id="rect5771"
       style="fill:none;fill-opacity:1.0000000;stroke:none;stroke-width:3.0750000;stroke-linecap:round;stroke-linejoin:round;stroke-miterlimit:4.0000000;stroke-dashoffset:0.0000000;stroke-opacity:1.0000000" />
    <path
       sodipodi:nodetypes="csssssssssssss"
       id="path8106"
       d="M 32.098703,6.4137431 C 31.375127,6.4261931 30.674678,6.6645257 30.100286,7.0937757 C 27.834673,8.7868769 25.847568,11.162868 23.303449,12.173061 C 20.903100,13.126173 18.358317,13.115780 15.679456,13.385984 C 14.122283,13.543046 12.878341,14.720639 12.672720,16.233890 C 12.297610,18.994501 12.692257,22.079302 11.547388,24.515723 C 7.1249532,33.927151 21.962714,43.164116 32.326903,37.333357 C 43.217940,31.206201 57.383617,32.060806 52.670747,24.114722 C 51.373768,21.927973 52.116627,18.892936 51.839557,16.282033 C 51.678426,14.763650 50.470804,13.550691 48.918894,13.350199 C 46.087756,12.984437 43.095580,13.159573 40.562997,12.118784 C 38.175081,11.137441 36.384293,8.8060250 34.294931,7.1496549 C 33.675478,6.6585738 32.896890,6.3987268 32.098703,6.4137431 C 32.098703,6.4137431 32.098703,6.4137431 32.098703,6.4137431 z "
       style="stroke-opacity:1.0000000;stroke-dashoffset:0.0000000;stroke-miterlimit:4.0000000;stroke-linejoin:round;stroke-linecap:round;stroke-width:3.0750000;stroke:none;fill-opacity:1.0;fill:url(#linearGradient9717)" />
  </g>
</svg>
