<?xml version="1.0" encoding="UTF-8" standalone="no"?>
<!-- Created with Inkscape (http://www.inkscape.org/) -->
<svg
   xmlns:dc="http://purl.org/dc/elements/1.1/"
   xmlns:cc="http://web.resource.org/cc/"
   xmlns:rdf="http://www.w3.org/1999/02/22-rdf-syntax-ns#"
   xmlns:svg="http://www.w3.org/2000/svg"
   xmlns="http://www.w3.org/2000/svg"
   xmlns:xlink="http://www.w3.org/1999/xlink"
   xmlns:sodipodi="http://inkscape.sourceforge.net/DTD/sodipodi-0.dtd"
   xmlns:inkscape="http://www.inkscape.org/namespaces/inkscape"
   width="64pt"
   height="64pt"
   id="svg10519"
   sodipodi:version="0.32"
   inkscape:version="0.41"
   sodipodi:docbase="/home/pinheiro/kdeplayground-artwork/oooicons/crystalsvg"
   sodipodi:docname="grid.svg"
   inkscape:export-filename="/home/pinheiro/kdeplayground-artwork/oooicons/crystalsvg/grid.png"
   inkscape:export-xdpi="36.000000"
   inkscape:export-ydpi="36.000000">
  <defs
     id="defs3">
    <radialGradient
       inkscape:collect="always"
       xlink:href="#light75to0"
       id="radialGradient6174"
       gradientTransform="matrix(1.193232,0.000000,0.000000,0.913293,-0.699655,-4.207924)"
       cx="21.623133"
       cy="45.255077"
       fx="21.623133"
       fy="45.255077"
       r="29.246748"
       gradientUnits="userSpaceOnUse" />
    <linearGradient
       id="linearGradient2485">
      <stop
         offset="0.0000000"
         style="stop-color:#00ad01;stop-opacity:1.0000000;"
         id="stop2487" />
      <stop
         offset="1.0000000"
         style="stop-color:#15720f;stop-opacity:1.0000000;"
         id="stop2486" />
    </linearGradient>
    <linearGradient
       id="linearGradient2492">
      <stop
         offset="0.0000000"
         style="stop-color:#00ff01;stop-opacity:1.0000000;"
         id="stop2494" />
      <stop
         offset="1.0000000"
         style="stop-color:#15980f;stop-opacity:1.0000000;"
         id="stop2493" />
    </linearGradient>
    <linearGradient
       inkscape:collect="always"
       xlink:href="#XMLID_1_"
       id="linearGradient1115"
       gradientUnits="userSpaceOnUse"
       x1="100.6055"
       y1="37.1133"
       x2="100.6055"
       y2="139.7401" />
    <linearGradient
       inkscape:collect="always"
       xlink:href="#light100to0"
       id="linearGradient1114"
       gradientUnits="userSpaceOnUse"
       x1="146.38470"
       y1="64.407753"
       x2="307.07626"
       y2="436.28043"
       gradientTransform="matrix(0.115780,-4.398047e-2,4.742532e-2,0.127424,24.05496,6.328001)" />
    <linearGradient
       id="redtodarkred">
      <stop
         style="stop-color:#ff0000;stop-opacity:1.0000000;"
         offset="0.0000000"
         id="stop3856" />
      <stop
         style="stop-color:#920000;stop-opacity:1.0000000;"
         offset="1.0000000"
         id="stop3855" />
    </linearGradient>
    <linearGradient
       inkscape:collect="always"
       xlink:href="#redtodarkred"
       id="linearGradient1113"
       gradientUnits="userSpaceOnUse"
       gradientTransform="matrix(0.112841,-4.286394e-2,4.411714e-2,0.118535,24.75909,6.931387)"
       x1="-110.52393"
       y1="27.161866"
       x2="439.44683"
       y2="461.30772" />
    <radialGradient
       inkscape:collect="always"
       xlink:href="#orangelesstoyelow"
       id="radialGradient1112"
       gradientUnits="userSpaceOnUse"
       spreadMethod="reflect"
       cx="186.75356"
       cy="103.61057"
       fx="189.43584"
       fy="25.390987"
       r="117.68623"
       gradientTransform="matrix(0.112130,-4.259381e-2,4.439693e-2,0.119287,24.75909,6.931387)" />
    <linearGradient
       id="XMLID_1_"
       gradientUnits="userSpaceOnUse"
       x1="100.6055"
       y1="37.1133"
       x2="100.6055"
       y2="139.7401">
      <stop
         offset="0"
         style="stop-color:#FFA700"
         id="stop9" />
      <stop
         offset="0.691"
         style="stop-color:#FFFF00"
         id="stop11" />
      <stop
         offset="0.792"
         style="stop-color:#FFFC00"
         id="stop13" />
      <stop
         offset="0.8546"
         style="stop-color:#FFF400"
         id="stop15" />
      <stop
         offset="0.9067"
         style="stop-color:#FFE500"
         id="stop17" />
      <stop
         offset="0.953"
         style="stop-color:#FFD100"
         id="stop19" />
      <stop
         offset="0.9952"
         style="stop-color:#FFB700"
         id="stop21" />
      <stop
         offset="1"
         style="stop-color:#FFB300"
         id="stop23" />
      <midPointStop
         offset="0"
         style="stop-color:#FFA700"
         id="midPointStop25" />
      <midPointStop
         offset="0.5"
         style="stop-color:#FFA700"
         id="midPointStop27" />
      <midPointStop
         offset="0.691"
         style="stop-color:#FFFF00"
         id="midPointStop29" />
      <midPointStop
         offset="0.7952"
         style="stop-color:#FFFF00"
         id="midPointStop31" />
      <midPointStop
         offset="1"
         style="stop-color:#FFB300"
         id="midPointStop33" />
    </linearGradient>
    <linearGradient
       inkscape:collect="always"
       xlink:href="#XMLID_1_"
       id="linearGradient1111"
       gradientUnits="userSpaceOnUse"
       x1="100.6055"
       y1="37.1133"
       x2="100.6055"
       y2="139.7401" />
    <linearGradient
       inkscape:collect="always"
       xlink:href="#light75to0"
       id="linearGradient10826"
       gradientUnits="userSpaceOnUse"
       gradientTransform="matrix(1.338395,0.000000,0.000000,0.594171,48.42685,8.878676)"
       x1="5.6831765"
       y1="21.673885"
       x2="14.964557"
       y2="41.796101" />
    <radialGradient
       cx="38.797401"
       cy="112.96090"
       r="67.358803"
       fx="38.797401"
       fy="112.96090"
       id="bluelightlesstoblue"
       gradientUnits="userSpaceOnUse">
      <stop
         style="stop-color:#d9ffff;stop-opacity:1.0000000;"
         offset="0.0055999998"
         id="stop3468" />
      <stop
         style="stop-color:#6eaafe;stop-opacity:1.0000000;"
         offset="0.24089479"
         id="stop3469" />
      <stop
         style="stop-color:#0356fe;stop-opacity:1.0000000;"
         offset="1.0000000"
         id="stop3470" />
    </radialGradient>
    <linearGradient
       x1="-229.39058"
       y1="289.30027"
       x2="-203.84911"
       y2="289.30027"
       id="linearGradient3471"
       collect="always"
       xlink:href="#bluelightlesstoblue"
       gradientTransform="matrix(1.395481,0.000000,0.000000,0.716599,337.6102,-241.4638)"
       gradientUnits="userSpaceOnUse" />
    <radialGradient
       inkscape:collect="always"
       xlink:href="#light75to0"
       id="radialGradient3045"
       gradientUnits="userSpaceOnUse"
       gradientTransform="matrix(1.240403,0.000000,0.000000,0.604175,30.13336,40.27244)"
       cx="17.741598"
       cy="31.723280"
       fx="17.741598"
       fy="31.723280"
       r="9.2936869" />
    <linearGradient
       inkscape:collect="always"
       xlink:href="#light75to0"
       id="linearGradient3044"
       gradientUnits="userSpaceOnUse"
       gradientTransform="matrix(1.369847,0.000000,0.000000,0.612232,29.63072,39.03476)"
       x1="5.6831765"
       y1="21.673885"
       x2="14.964557"
       y2="41.796101" />
    <linearGradient
       inkscape:collect="always"
       xlink:href="#garylighttowite"
       id="linearGradient3043"
       gradientUnits="userSpaceOnUse"
       gradientTransform="matrix(1.244638,0.000000,0.000000,0.606608,30.07549,40.40008)"
       x1="14.699177"
       y1="30.518322"
       x2="-0.95806932"
       y2="6.8631005" />
    <linearGradient
       inkscape:collect="always"
       xlink:href="#greantodarkgrean"
       id="linearGradient3042"
       gradientUnits="userSpaceOnUse"
       gradientTransform="matrix(1.532913,0.000000,0.000000,0.747081,-47.75255,-170.5086)"
       x1="56.601124"
       y1="298.93405"
       x2="63.028267"
       y2="306.94720" />
    <linearGradient
       id="greantodarkgrean">
      <stop
         style="stop-color:#00ff01;stop-opacity:1.0000000;"
         offset="0.0000000"
         id="stop5123" />
      <stop
         style="stop-color:#15980f;stop-opacity:1.0000000;"
         offset="1.0000000"
         id="stop5124" />
    </linearGradient>
    <linearGradient
       id="bludraktowhite"
       gradientUnits="userSpaceOnUse"
       x1="33.332001"
       y1="10.305200"
       x2="33.332001"
       y2="91.407700">
      <stop
         offset="0"
         style="stop-color:rgb(255,255,255)"
         id="stop7271" />
      <stop
         offset="1"
         style="stop-color:rgb(84,84,119)"
         id="stop7273" />
    </linearGradient>
    <linearGradient
       id="light75to0">
      <stop
         style="stop-color:#ffffff;stop-opacity:0.72916669;"
         offset="0.0000000"
         id="stop2769" />
      <stop
         style="stop-color:#ffffff;stop-opacity:0.0000000;"
         offset="1.0000000"
         id="stop2770" />
    </linearGradient>
    <linearGradient
       id="greandarktobgrean">
      <stop
         style="stop-color:#00ad01;stop-opacity:1.0000000;"
         offset="0.0000000"
         id="stop4492" />
      <stop
         style="stop-color:#15720f;stop-opacity:1.0000000;"
         offset="1.0000000"
         id="stop4493" />
    </linearGradient>
    <linearGradient
       id="garylighttowite">
      <stop
         style="stop-color:#7d7d7d;stop-opacity:1.0000000;"
         offset="0.0000000"
         id="stop5106" />
      <stop
         style="stop-color:#d3d4d4;stop-opacity:1.0000000;"
         offset="1.0000000"
         id="stop5107" />
    </linearGradient>
    <linearGradient
       id="graytolightgray">
      <stop
         style="stop-color:#d4d3d3;stop-opacity:1.0000000;"
         offset="0.0000000"
         id="stop5101" />
      <stop
         style="stop-color:#ffffff;stop-opacity:1.0000000;"
         offset="1.0000000"
         id="stop5102" />
    </linearGradient>
    <linearGradient
       id="linearGradient10759">
      <stop
         style="stop-color:#00ff01;stop-opacity:1.0000000;"
         offset="0.0000000"
         id="stop10760" />
      <stop
         style="stop-color:#15980f;stop-opacity:1.0000000;"
         offset="1.0000000"
         id="stop10761" />
    </linearGradient>
    <linearGradient
       id="linearGradient10755">
      <stop
         style="stop-color:#00ad01;stop-opacity:1.0000000;"
         offset="0.0000000"
         id="stop10756" />
      <stop
         style="stop-color:#15720f;stop-opacity:1.0000000;"
         offset="1.0000000"
         id="stop10757" />
    </linearGradient>
    <linearGradient
       id="light100to0">
      <stop
         style="stop-color:#ffffff;stop-opacity:1.0000000;"
         offset="0.0000000"
         id="stop2764" />
      <stop
         style="stop-color:#ffffff;stop-opacity:0.0000000;"
         offset="1.0000000"
         id="stop2765" />
    </linearGradient>
    <linearGradient
       x1="112.83246"
       y1="26.413313"
       x2="122.91101"
       y2="48.426991"
       id="linearGradient8535"
       xlink:href="#light100to0"
       gradientUnits="userSpaceOnUse"
       gradientTransform="matrix(0.317347,0.000000,0.000000,0.142307,7.750154,1.021211)" />
    <linearGradient
       id="linearGradient1968">
      <stop
         style="stop-color:#ffffff;stop-opacity:1.0000000;"
         offset="0.0000000"
         id="stop1969" />
      <stop
         style="stop-color:#ffffff;stop-opacity:0.0000000;"
         offset="1.0000000"
         id="stop1970" />
    </linearGradient>
    <linearGradient
       x1="63.510639"
       y1="263.33130"
       x2="48.348915"
       y2="299.38031"
       id="linearGradient6667"
       xlink:href="#blacktowhite"
       gradientUnits="userSpaceOnUse"
       gradientTransform="matrix(0.183056,0.000000,0.000000,0.265558,6.081840,0.841974)" />
    <linearGradient
       id="blacktowhite">
      <stop
         style="stop-color:#000000;stop-opacity:1.0000000;"
         offset="0.0000000"
         id="stop2476" />
      <stop
         style="stop-color:#ffffff;stop-opacity:1.0000000;"
         offset="1.0000000"
         id="stop2475" />
    </linearGradient>
    <linearGradient
       x1="55.499844"
       y1="94.234268"
       x2="113.51736"
       y2="-2.7694037"
       id="linearGradient1664"
       xlink:href="#orangetoyelow"
       gradientUnits="userSpaceOnUse"
       gradientTransform="matrix(0.988165,0.000000,0.000000,1.059038,-51.61257,-0.295980)" />
    <linearGradient
       id="orangetoyelow">
      <stop
         style="stop-color:#ff7d00;stop-opacity:1.0000000;"
         offset="0.0000000"
         id="stop2661" />
      <stop
         style="stop-color:#ffff00;stop-opacity:1.0000000;"
         offset="1.0000000"
         id="stop2662" />
    </linearGradient>
    <linearGradient
       x1="75.064339"
       y1="65.623413"
       x2="140.15146"
       y2="-37.592434"
       id="linearGradient1663"
       xlink:href="#orangetoyelow"
       gradientUnits="userSpaceOnUse"
       gradientTransform="matrix(0.988165,0.000000,0.000000,1.059038,-51.61257,-0.295980)" />
    <linearGradient
       x1="58.404800"
       y1="80.526398"
       x2="86.264603"
       y2="19.952200"
       id="linearGradient1662"
       xlink:href="#orangelesstoyelow"
       gradientUnits="userSpaceOnUse"
       gradientTransform="matrix(0.988165,0.000000,0.000000,1.059038,-51.61257,-0.295980)" />
    <linearGradient
       id="orangelesstoyelow">
      <stop
         style="stop-color:#ff7d00;stop-opacity:1.0000000;"
         offset="0.0000000"
         id="stop2689" />
      <stop
         style="stop-color:#ffbe00;stop-opacity:1.0000000;"
         offset="0.25358382"
         id="stop2690" />
      <stop
         style="stop-color:#ffff00;stop-opacity:1.0000000;"
         offset="1.0000000"
         id="stop2691" />
    </linearGradient>
    <linearGradient
       x1="68.581657"
       y1="9.0542183"
       x2="122.31405"
       y2="0.95772386"
       id="linearGradient1661"
       xlink:href="#orangetoblackorange"
       gradientUnits="userSpaceOnUse"
       gradientTransform="matrix(0.901330,0.434111,-0.405060,0.965975,-51.61257,-0.295980)" />
    <linearGradient
       id="orangetoblackorange">
      <stop
         style="stop-color:#ff8b00;stop-opacity:1.0000000;"
         offset="0.0000000"
         id="stop4207" />
      <stop
         style="stop-color:#4d0200;stop-opacity:1.0000000;"
         offset="1.0000000"
         id="stop4209" />
    </linearGradient>
    <linearGradient
       x1="54.536720"
       y1="96.837074"
       x2="91.471153"
       y2="66.370918"
       id="linearGradient12328"
       xlink:href="#shadow100to0"
       gradientUnits="userSpaceOnUse"
       gradientTransform="scale(1.373223,0.728214)" />
    <linearGradient
       id="shadow100to0">
      <stop
         style="stop-color:#000000;stop-opacity:1.0000000;"
         offset="0.0000000"
         id="stop3425" />
      <stop
         style="stop-color:#000000;stop-opacity:0.0000000;"
         offset="1.0000000"
         id="stop3426" />
    </linearGradient>
    <linearGradient
       x1="54.536720"
       y1="96.837074"
       x2="91.471153"
       y2="66.370918"
       id="linearGradient13579"
       xlink:href="#shadow100to0"
       gradientUnits="userSpaceOnUse"
       gradientTransform="scale(1.373223,0.728214)" />
    <linearGradient
       inkscape:collect="always"
       xlink:href="#linearGradient10759"
       id="linearGradient1196"
       gradientUnits="userSpaceOnUse"
       gradientTransform="matrix(1.960304,0.000000,0.000000,0.841475,39.86271,18.22367)"
       x1="5.6831765"
       y1="21.673885"
       x2="14.964557"
       y2="41.796101" />
    <radialGradient
       inkscape:collect="always"
       xlink:href="#light75to0"
       id="radialGradient1824"
       gradientUnits="userSpaceOnUse"
       gradientTransform="matrix(1.121144,0.000000,0.000000,0.841627,52.10090,18.96377)"
       cx="17.741598"
       cy="31.723280"
       fx="17.741598"
       fy="31.723280"
       r="9.2936869" />
    <linearGradient
       gradientUnits="userSpaceOnUse"
       y2="62.492359"
       x2="51.421413"
       y1="81.902512"
       x1="66.870384"
       gradientTransform="matrix(1.187790,0.000000,0.000000,1.015883,0.000000,-9.753148)"
       id="linearGradient2172"
       xlink:href="#light100to0"
       inkscape:collect="always" />
    <linearGradient
       spreadMethod="reflect"
       y2="-64.027832"
       x2="-47.421429"
       y1="57.414268"
       x1="44.213936"
       gradientTransform="matrix(1.112207,0.000000,0.000000,1.084920,0.000000,-9.753148)"
       gradientUnits="userSpaceOnUse"
       id="linearGradient2174"
       xlink:href="#blacktowhite"
       inkscape:collect="always" />
    <radialGradient
       spreadMethod="pad"
       gradientUnits="userSpaceOnUse"
       r="34.345932"
       fy="34.259434"
       fx="4.8657823"
       cy="34.259434"
       cx="4.8657823"
       gradientTransform="matrix(1.187790,0.000000,0.000000,1.015883,0.000000,-9.753148)"
       id="radialGradient2936"
       xlink:href="#light100to0"
       inkscape:collect="always" />
  </defs>
  <sodipodi:namedview
     id="base"
     pagecolor="#ffffff"
     bordercolor="#666666"
     borderopacity="1.0"
     inkscape:pageopacity="0.0"
     inkscape:pageshadow="2"
     inkscape:zoom="5.5000000"
     inkscape:cx="36.000000"
     inkscape:cy="39.799361"
     inkscape:current-layer="layer1"
     showgrid="true"
     inkscape:grid-bbox="true"
     gridspacingy="1.0000000pt"
     gridspacingx="1.0000000pt"
     gridoriginy="0.0000000pt"
     gridoriginx="0.0000000pt"
     inkscape:window-width="747"
     inkscape:window-height="583"
     inkscape:window-x="600"
     inkscape:window-y="313" />
  <metadata
     id="metadata4">
    <rdf:RDF
       id="RDF5">
      <cc:Work
         rdf:about=""
         id="Work6">
        <dc:format
           id="format7">image/svg+xml</dc:format>
        <dc:type
           id="type9"
           rdf:resource="http://purl.org/dc/dcmitype/StillImage" />
      </cc:Work>
    </rdf:RDF>
  </metadata>
  <g
     id="layer1"
     inkscape:label="Layer 1"
     inkscape:groupmode="layer">
    <path
       id="path6220"
       d="M 28.281250,5.6317080 C 27.837520,5.6455587 27.429950,5.8835463 27.125000,6.2727440 C 26.820052,6.6619427 26.642848,7.1702830 26.656250,7.7056477 L 26.750000,22.260929 L 1.9062500,22.298637 C 1.2864066,22.288057 0.71873007,22.670724 0.40625000,23.316752 C 0.093769929,23.962778 0.093769920,24.782371 0.40625000,25.428400 C 0.71873008,26.074428 1.2864066,26.457093 1.9062500,26.446514 L 26.781250,26.408806 L 26.843750,38.249113 L 1.5625000,38.399945 C 0.94265660,38.389366 0.37498007,38.772032 0.062500000,39.418061 C -0.24998007,40.064090 -0.24998008,40.883680 0.062500000,41.529708 C 0.37498008,42.175734 0.94265660,42.558402 1.5625000,42.547823 L 26.875000,42.396992 L 26.937500,54.011049 L 1.9062500,54.199589 C 1.2864066,54.189011 0.71873007,54.571678 0.40625000,55.217705 C 0.093769929,55.863734 0.093769920,56.683324 0.40625000,57.329352 C 0.71873008,57.975378 1.2864066,58.358046 1.9062500,58.347468 L 26.968750,58.158928 L 27.062500,72.110881 C 26.989412,72.884629 27.295284,73.623533 27.843750,74.033989 C 28.392216,74.444441 29.083049,74.456855 29.625000,74.033989 C 30.166950,73.611118 30.460173,72.845120 30.375000,72.073173 L 30.281250,58.158928 L 52.593750,58.008096 L 52.625000,72.148589 C 52.625000,73.262755 53.389149,74.184821 54.312500,74.184821 C 55.235851,74.184821 55.968750,73.262755 55.968750,72.148589 L 55.937500,57.970388 L 77.937500,57.819556 C 78.556048,57.820857 79.131165,57.412148 79.437500,56.763733 C 79.743833,56.115314 79.722304,55.331382 79.406250,54.689793 C 79.090195,54.048204 78.524677,53.656807 77.906250,53.671677 L 55.937500,53.822509 L 55.906250,42.208452 L 77.937500,42.095328 C 78.556048,42.096628 79.131165,41.687920 79.437500,41.039504 C 79.743833,40.391086 79.722304,39.607153 79.406250,38.965565 C 79.090195,38.323975 78.524677,37.932578 77.906250,37.947449 L 55.875000,38.060573 L 55.843750,26.408806 L 78.437500,26.371098 C 79.057343,26.381677 79.625020,25.999011 79.937500,25.352984 C 80.249978,24.706957 80.249980,23.887363 79.937500,23.241336 C 79.625018,22.595307 79.057343,22.212641 78.437500,22.223221 L 55.843750,22.260929 L 55.812500,7.8564797 C 55.817766,7.3079222 55.636915,6.7702078 55.312500,6.3858679 C 54.988083,6.0015281 54.548187,5.8038302 54.093750,5.8202480 C 53.650020,5.8340987 53.242450,6.0720852 52.937500,6.4612839 C 52.632550,6.8504827 52.455348,7.3588230 52.468750,7.8941877 L 52.500000,22.260929 L 30.093750,22.260929 L 30.000000,7.6679397 C 30.005266,7.1193823 29.824415,6.5816689 29.500000,6.1973280 C 29.175584,5.8129881 28.735687,5.6152902 28.281250,5.6317080 z M 30.093750,26.408806 L 52.500000,26.408806 L 52.531250,38.098281 L 30.187500,38.249113 L 30.093750,26.408806 z M 52.562500,42.246160 L 52.593750,53.860217 L 30.281250,54.011049 L 30.187500,42.396992 L 52.562500,42.246160 z "
       style="fill:url(#linearGradient2174);fill-opacity:1.0000000;fill-rule:evenodd;stroke:#000000;stroke-width:1.1945956;stroke-linecap:round;stroke-linejoin:round;stroke-miterlimit:4.0000000;stroke-opacity:1.0000000" />
    <path
       style="fill:none;fill-opacity:1.0000000;stroke:none;stroke-width:3.3283300;stroke-linecap:round;stroke-linejoin:round;stroke-miterlimit:4.0000000;stroke-dashoffset:0.0000000;stroke-opacity:1.0000000"
       d="M 4.1230605,7.7717619 L 76.328599,7.7717619 C 77.439140,7.7717619 78.333169,8.6906100 78.333169,9.8319714 L 78.333169,71.203206 C 78.333169,72.344570 77.439140,73.263414 76.328599,73.263414 L 4.1230605,73.263414 C 3.0125294,73.263414 2.1184952,72.344570 2.1184952,71.203206 L 2.1184952,9.8319714 C 2.1184952,8.6906100 3.0125294,7.7717619 4.1230605,7.7717619 z "
       id="path1435" />
    <path
       sodipodi:nodetypes="cccccccccccccccccccc"
       id="path2166"
       d="M 52.593750,58.008096 L 52.625000,72.148589 C 52.625000,73.262755 53.389149,74.184821 54.312500,74.184821 C 55.235851,74.184821 55.968750,73.262755 55.968750,72.148589 L 55.937500,57.970388 L 77.937500,57.819556 C 78.556048,57.820857 79.131165,57.412148 79.437500,56.763733 C 79.743833,56.115314 79.722304,55.331382 79.406250,54.689793 C 79.090195,54.048204 78.524677,53.656807 77.906250,53.671677 L 55.937500,53.822509 L 55.906250,42.208452 L 77.937500,42.095328 C 78.556048,42.096628 79.131165,41.687920 79.437500,41.039504 C 79.743833,40.391086 79.722304,39.607153 79.406250,38.965565 C 79.090195,38.323975 78.524677,37.932578 77.906250,37.947449 L 55.875000,38.060573 L 52.593750,58.008096 z M 52.562500,42.246160 L 52.593750,53.860217 L 52.562500,42.246160 z "
       style="fill:url(#linearGradient2172);fill-opacity:1.0000000;fill-rule:evenodd;stroke:none;stroke-width:3.3375001;stroke-linecap:round;stroke-linejoin:round;stroke-miterlimit:4.0000000;stroke-opacity:1.0000000" />
    <path
       sodipodi:nodetypes="cccccccccccccccccccccccccccccccccccccccccccccccccccccccc"
       id="path2176"
       d="M 28.281250,5.6317080 C 27.837520,5.6455587 27.429950,5.8835463 27.125000,6.2727440 C 26.820052,6.6619427 26.642848,7.1702830 26.656250,7.7056477 L 26.750000,22.260929 L 1.9062500,22.298637 C 1.2864066,22.288057 0.71873007,22.670724 0.40625000,23.316752 C 0.093769929,23.962778 0.093769920,24.782371 0.40625000,25.428400 C 0.71873008,26.074428 1.2864066,26.457093 1.9062500,26.446514 L 26.781250,26.408806 L 26.843750,38.249113 L 1.5625000,38.399945 C 0.94265660,38.389366 0.37498007,38.772032 0.062500000,39.418061 C -0.24998007,40.064090 -0.24998008,40.883680 0.062500000,41.529708 C 0.37498008,42.175734 0.94265660,42.558402 1.5625000,42.547823 L 26.875000,42.396992 L 26.937500,54.011049 L 1.9062500,54.199589 C 1.2864066,54.189011 0.71873007,54.571678 0.40625000,55.217705 C 0.093769929,55.863734 0.093769920,56.683324 0.40625000,57.329352 C 0.71873008,57.975378 1.2864066,58.358046 1.9062500,58.347468 L 26.968750,58.158928 L 27.062500,72.110881 C 26.989412,72.884629 27.295284,73.623533 27.843750,74.033989 C 28.392216,74.444441 29.083049,74.456855 29.625000,74.033989 C 30.166950,73.611118 30.460173,72.845120 30.375000,72.073173 L 30.281250,58.158928 L 52.593750,58.008096 L 52.625000,72.148589 C 52.625000,73.262755 53.389149,74.184821 54.312500,74.184821 C 55.235851,74.184821 55.968750,73.262755 55.968750,72.148589 L 55.937500,57.970388 L 55.937500,53.822509 L 55.906250,42.208452 L 55.875000,38.060573 L 55.843750,26.408806 L 55.843750,22.260929 L 55.812500,7.8564797 C 55.817766,7.3079222 55.636915,6.7702078 55.312500,6.3858679 C 54.988083,6.0015281 54.548187,5.8038302 54.093750,5.8202480 C 53.650020,5.8340987 53.242450,6.0720852 52.937500,6.4612839 C 52.632550,6.8504827 52.455348,7.3588230 52.468750,7.8941877 L 52.500000,22.260929 L 30.093750,22.260929 L 30.000000,7.6679397 C 30.005266,7.1193823 29.824415,6.5816689 29.500000,6.1973280 C 29.175584,5.8129881 28.735687,5.6152902 28.281250,5.6317080 z M 30.093750,26.408806 L 52.500000,26.408806 L 52.531250,38.098281 L 30.187500,38.249113 L 30.093750,26.408806 z M 52.562500,42.246160 L 52.593750,53.860217 L 30.281250,54.011049 L 30.187500,42.396992 L 52.562500,42.246160 z "
       style="fill:url(#radialGradient2936);fill-opacity:1.0000000;fill-rule:evenodd;stroke:none;stroke-width:3.3375001;stroke-linecap:round;stroke-linejoin:round;stroke-miterlimit:4.0000000;stroke-opacity:1.0000000" />
  </g>
  <g
     id="g10763"
     inkscape:label="Layer 1"
     inkscape:groupmode="layer"
     transform="translate(48.57958,28.23858)" />
</svg>
