<?xml version="1.0" encoding="UTF-8" standalone="no"?>
<!-- Created with Inkscape (http://www.inkscape.org/) -->
<svg
   xmlns:dc="http://purl.org/dc/elements/1.1/"
   xmlns:cc="http://web.resource.org/cc/"
   xmlns:rdf="http://www.w3.org/1999/02/22-rdf-syntax-ns#"
   xmlns:svg="http://www.w3.org/2000/svg"
   xmlns="http://www.w3.org/2000/svg"
   xmlns:xlink="http://www.w3.org/1999/xlink"
   xmlns:sodipodi="http://inkscape.sourceforge.net/DTD/sodipodi-0.dtd"
   xmlns:inkscape="http://www.inkscape.org/namespaces/inkscape"
   inkscape:export-ydpi="45.000000"
   inkscape:export-xdpi="45.000000"
   inkscape:export-filename="/home/pinheiro/kdeplayground-artwork/oooicons/crystalsvg/hand.png"
   sodipodi:docname="hand.svg"
   sodipodi:docbase="/home/pinheiro/kdeplayground-artwork/oooicons/crystalsvg"
   inkscape:version="0.41"
   sodipodi:version="0.32"
   id="svg1347"
   height="64px"
   width="64px">
  <defs
     id="defs3">
    <linearGradient
       y2="179.08333"
       x2="87.291985"
       y1="146.02444"
       x1="72.409058"
       spreadMethod="pad"
       gradientTransform="scale(0.859142,1.163952)"
       gradientUnits="userSpaceOnUse"
       id="linearGradient8145"
       xlink:href="#light100to0"
       inkscape:collect="always" />
    <linearGradient
       id="light100to0">
      <stop
         id="stop2764"
         offset="0.0000000"
         style="stop-color:#ffffff;stop-opacity:1.0000000;" />
      <stop
         id="stop2765"
         offset="1.0000000"
         style="stop-color:#ffffff;stop-opacity:0.0000000;" />
    </linearGradient>
    <linearGradient
       spreadMethod="pad"
       gradientUnits="userSpaceOnUse"
       y2="158.88571"
       x2="79.174026"
       y1="186.23854"
       x1="89.259972"
       gradientTransform="scale(0.859142,1.163952)"
       id="linearGradient7383"
       xlink:href="#light100to0"
       inkscape:collect="always" />
    <linearGradient
       id="shadow0wto25to0">
      <stop
         id="stop3437"
         offset="0.0000000"
         style="stop-color:#ffffff;stop-opacity:0.0000000;" />
      <stop
         id="stop3438"
         offset="0.50000000"
         style="stop-color:#000000;stop-opacity:0.27916667;" />
      <stop
         id="stop3439"
         offset="1.0000000"
         style="stop-color:#000000;stop-opacity:0.0000000;" />
    </linearGradient>
    <radialGradient
       gradientUnits="userSpaceOnUse"
       r="46.232933"
       fy="199.52441"
       fx="85.725777"
       cy="199.52441"
       cx="85.725777"
       gradientTransform="scale(0.831851,1.202139)"
       id="radialGradient6623"
       xlink:href="#shadow0wto25to0"
       inkscape:collect="always" />
    <linearGradient
       id="light90to0">
      <stop
         id="stop1890"
         offset="0.0000000"
         style="stop-color:#ffffff;stop-opacity:0.90833336;" />
      <stop
         id="stop1892"
         offset="1.0000000"
         style="stop-color:#ffffff;stop-opacity:0.0000000;" />
    </linearGradient>
    <radialGradient
       spreadMethod="pad"
       gradientUnits="userSpaceOnUse"
       r="18.067240"
       fy="279.37149"
       fx="69.910759"
       cy="279.37149"
       cx="69.910759"
       gradientTransform="scale(1.208127,0.827728)"
       id="radialGradient5843"
       xlink:href="#light90to0"
       inkscape:collect="always" />
    <linearGradient
       id="blacktowhite">
      <stop
         id="stop2476"
         offset="0.0000000"
         style="stop-color:#000000;stop-opacity:1.0000000;" />
      <stop
         id="stop2475"
         offset="1.0000000"
         style="stop-color:#ffffff;stop-opacity:1.0000000;" />
    </linearGradient>
    <linearGradient
       spreadMethod="reflect"
       gradientUnits="userSpaceOnUse"
       y2="99.690155"
       x2="24.387333"
       y1="157.14804"
       x1="96.976326"
       gradientTransform="scale(0.778499,1.284524)"
       id="linearGradient2752"
       xlink:href="#blacktowhite"
       inkscape:collect="always" />
    <linearGradient
       id="greylighttograyw">
      <stop
         id="stop575"
         offset="0.0000000"
         style="stop-color:#b5b5b8;stop-opacity:1.0000000;" />
      <stop
         id="stop576"
         offset="1.0000000"
         style="stop-color:#ebebee;stop-opacity:1.0000000;" />
    </linearGradient>
    <linearGradient
       spreadMethod="reflect"
       gradientUnits="userSpaceOnUse"
       y2="165.42656"
       x2="83.356216"
       y1="136.51736"
       x1="78.248695"
       gradientTransform="scale(0.778499,1.284524)"
       id="linearGradient5073"
       xlink:href="#greylighttograyw"
       inkscape:collect="always" />
    <linearGradient
       gradientUnits="userSpaceOnUse"
       id="defitem1"
       y2="70.134598"
       x2="47.040798"
       y1="120.67600"
       x1="2.1516399">
      <stop
         id="stop7"
         offset="0.0000000"
         style="stop-color:#ffffff;stop-opacity:1.0000000;" />
      <stop
         id="stop8"
         offset="1.0000000"
         style="stop-color:#ffffff;stop-opacity:0.0000000;" />
    </linearGradient>
    <linearGradient
       inkscape:collect="always"
       xlink:href="#defitem1"
       id="linearGradient1326"
       gradientUnits="userSpaceOnUse"
       x1="64.317574"
       y1="48.322163"
       x2="80.003250"
       y2="25.909836" />
    <radialGradient
       gradientUnits="userSpaceOnUse"
       id="defitem0"
       fy="85.846298"
       fx="25.344200"
       r="20.445000"
       cy="85.846298"
       cx="25.344200">
      <stop
         id="stop4"
         offset="0.0000000"
         style="stop-color:#ffffff;stop-opacity:1.0000000;" />
      <stop
         id="stop5"
         offset="1.0000000"
         style="stop-color:#cccccc;stop-opacity:1.0000000;" />
    </radialGradient>
    <radialGradient
       inkscape:collect="always"
       xlink:href="#defitem0"
       id="radialGradient1324"
       gradientUnits="userSpaceOnUse"
       cx="47.368156"
       cy="97.603897"
       fx="47.368156"
       fy="97.603897"
       r="62.035137" />
  </defs>
  <sodipodi:namedview
     inkscape:window-y="391"
     inkscape:window-x="0"
     inkscape:window-height="536"
     inkscape:window-width="640"
     inkscape:grid-bbox="true"
     inkscape:document-units="px"
     showgrid="true"
     inkscape:current-layer="layer1"
     inkscape:cy="41.654624"
     inkscape:cx="32.000000"
     inkscape:zoom="5.5000000"
     inkscape:pageshadow="2"
     inkscape:pageopacity="0.0"
     borderopacity="1.0"
     bordercolor="#666666"
     pagecolor="#ffffff"
     id="base" />
  <metadata
     id="metadata4">
    <rdf:RDF
       id="RDF5">
      <cc:Work
         id="Work6"
         rdf:about="">
        <dc:format
           id="format7">image/svg+xml</dc:format>
        <dc:type
           rdf:resource="http://purl.org/dc/dcmitype/StillImage"
           id="type9" />
      </cc:Work>
    </rdf:RDF>
  </metadata>
  <g
     inkscape:groupmode="layer"
     inkscape:label="Layer 1"
     id="layer1">
    <g
       transform="matrix(0.951212,-3.259632e-2,3.272328e-2,0.954916,-38.67095,-158.0465)"
       id="g11205">
      <g
         transform="matrix(0.985666,0.000000,0.000000,0.999981,65.87568,0.626231)"
         id="g11199">
        <path
           sodipodi:nodetypes="cccccccccccccccccccc"
           id="path11193"
           d="M 20.054410,199.40720 C 21.137200,204.75954 21.580620,203.96632 21.956250,208.88967 C 20.797570,219.75109 18.739620,217.45558 16.954290,232.18772 C 7.9866300,232.51937 -5.0567500,232.67347 -7.4521600,230.15713 C -9.6332700,226.23295 -12.343810,220.16716 -14.528180,214.95856 C -16.068050,212.11878 -16.366770,194.08724 -10.839070,194.50182 C -9.3542800,192.02453 -10.107120,203.95124 -9.8359400,208.57735 C -8.6630900,205.12101 -10.330100,190.84809 -10.404040,184.40535 C -10.756820,179.92102 -10.631350,173.57880 -10.148390,171.20626 C -9.2339400,167.51685 -6.0055300,170.83126 -5.3195500,172.85775 C -5.0815400,174.49038 -4.7690800,175.60528 -4.2722500,180.24062 C -3.6378700,188.62690 -1.9914600,200.41687 -1.9914600,200.41687 C -1.9914600,200.41687 -1.8881100,189.47042 -1.8881100,189.47042 C -1.7672500,188.74526 4.8306300,188.47262 4.9514900,189.56036 C 5.0723500,191.25241 6.3929200,201.85615 6.3929200,201.85615 C 6.3929200,201.85615 5.4408100,194.49280 6.0160600,191.14378 C 9.0361000,191.54571 12.597130,193.26291 13.316140,194.60254 C 13.747570,197.14777 13.168120,203.05359 14.606220,202.91968 L 14.620750,196.00183 L 20.054410,199.40720 z "
           style="fill:none;fill-opacity:1.0000000;fill-rule:evenodd;stroke:#000000;stroke-width:2.5875001;stroke-linejoin:round;stroke-miterlimit:4.0000000;stroke-opacity:0.054298643" />
        <path
           sodipodi:nodetypes="cccccccccccccccccccc"
           id="path11191"
           d="M 20.054410,199.40720 C 21.137200,204.75954 21.580620,203.96632 21.956250,208.88967 C 20.797570,219.75109 18.739620,217.45558 16.954290,232.18772 C 7.9866300,232.51937 -5.0567500,232.67347 -7.4521600,230.15713 C -9.6332700,226.23295 -12.343810,220.16716 -14.528180,214.95856 C -16.068050,212.11878 -16.366770,194.08724 -10.839070,194.50182 C -9.3542800,192.02453 -10.107120,203.95124 -9.8359400,208.57735 C -8.6630900,205.12101 -10.330100,190.84809 -10.404040,184.40535 C -10.756820,179.92102 -10.631350,173.57880 -10.148390,171.20626 C -9.2339400,167.51685 -6.0055300,170.83126 -5.3195500,172.85775 C -5.0815400,174.49038 -4.7690800,175.60528 -4.2722500,180.24062 C -3.6378700,188.62690 -1.9914600,200.41687 -1.9914600,200.41687 C -1.9914600,200.41687 -1.8881100,189.47042 -1.8881100,189.47042 C -1.7672500,188.74526 4.8306300,188.47262 4.9514900,189.56036 C 5.0723500,191.25241 6.3929200,201.85615 6.3929200,201.85615 C 6.3929200,201.85615 5.4408100,194.49280 6.0160600,191.14378 C 9.0361000,191.54571 12.597130,193.26291 13.316140,194.60254 C 13.747570,197.14777 13.168120,203.05359 14.606220,202.91968 L 14.620750,196.00183 L 20.054410,199.40720 z "
           style="fill:none;fill-opacity:1.0000000;fill-rule:evenodd;stroke:#000000;stroke-width:3.8375001;stroke-linejoin:round;stroke-miterlimit:4.0000000;stroke-opacity:0.054298643" />
        <path
           sodipodi:nodetypes="cccccccccccccccccccc"
           id="path10423"
           d="M 20.181108,199.40720 C 21.263898,204.75954 21.707318,203.96632 22.082948,208.88967 C 20.924268,219.75109 18.866318,217.45558 17.080988,232.18772 C 8.1133280,232.51937 -4.9300520,232.67347 -7.3254620,230.15713 C -9.5065720,226.23295 -12.217112,220.16716 -14.401482,214.95856 C -15.941352,212.11878 -16.240072,194.08724 -10.712372,194.50182 C -9.2275820,192.02453 -9.9804220,203.95124 -9.7092420,208.57735 C -8.5363920,205.12101 -10.203402,190.84809 -10.277342,184.40535 C -10.630122,179.92102 -10.504652,173.57880 -10.021692,171.20626 C -9.1072420,167.51685 -5.8788320,170.83126 -5.1928520,172.85775 C -4.9548420,174.49038 -4.6423820,175.60528 -4.1455520,180.24062 C -3.5111720,188.62690 -1.8647620,200.41687 -1.8647620,200.41687 C -1.8647620,200.41687 -1.7614120,189.47042 -1.7614120,189.47042 C -1.6405520,188.74526 4.9573280,188.47262 5.0781880,189.56036 C 5.1990480,191.25241 6.5196180,201.85615 6.5196180,201.85615 C 6.5196180,201.85615 5.5675080,194.49280 6.1427580,191.14378 C 9.1627980,191.54571 12.723828,193.26291 13.442838,194.60254 C 13.874268,197.14777 13.294818,203.05359 14.732918,202.91968 L 14.747448,196.00183 L 20.181108,199.40720 z "
           style="fill:none;fill-opacity:1.0000000;fill-rule:evenodd;stroke:#000000;stroke-width:4.5875001;stroke-linejoin:round;stroke-miterlimit:4.0000000;stroke-opacity:0.054298643" />
        <path
           sodipodi:nodetypes="cccccccccccccccccccc"
           id="path11195"
           d="M 20.054410,199.40720 C 21.137200,204.75954 21.580620,203.96632 21.956250,208.88967 C 20.797570,219.75109 18.739620,217.45558 16.954290,232.18772 C 7.9866300,232.51937 -5.0567500,232.67347 -7.4521600,230.15713 C -9.6332700,226.23295 -12.343810,220.16716 -14.528180,214.95856 C -16.068050,212.11878 -16.366770,194.08724 -10.839070,194.50182 C -9.3542800,192.02453 -10.107120,203.95124 -9.8359400,208.57735 C -8.6630900,205.12101 -10.330100,190.84809 -10.404040,184.40535 C -10.756820,179.92102 -10.631350,173.57880 -10.148390,171.20626 C -9.2339400,167.51685 -6.0055300,170.83126 -5.3195500,172.85775 C -5.0815400,174.49038 -4.7690800,175.60528 -4.2722500,180.24062 C -3.6378700,188.62690 -1.9914600,200.41687 -1.9914600,200.41687 C -1.9914600,200.41687 -1.8881100,189.47042 -1.8881100,189.47042 C -1.7672500,188.74526 4.8306300,188.47262 4.9514900,189.56036 C 5.0723500,191.25241 6.3929200,201.85615 6.3929200,201.85615 C 6.3929200,201.85615 5.4408100,194.49280 6.0160600,191.14378 C 9.0361000,191.54571 12.597130,193.26291 13.316140,194.60254 C 13.747570,197.14777 13.168120,203.05359 14.606220,202.91968 L 14.620750,196.00183 L 20.054410,199.40720 z "
           style="fill:none;fill-opacity:1.0000000;fill-rule:evenodd;stroke:#000000;stroke-width:1.7125000;stroke-linejoin:round;stroke-miterlimit:4.0000000;stroke-opacity:0.054298643" />
      </g>
      <path
         sodipodi:nodetypes="cccccccccccccccccccc"
         id="path11197"
         d="M 86.054410,199.40720 C 87.137200,204.75954 87.580620,203.96632 87.956250,208.88967 C 86.797570,219.75109 84.739620,217.45558 82.954290,232.18772 C 73.986630,232.51937 60.943250,232.67347 58.547840,230.15713 C 56.366730,226.23295 53.656190,220.16716 51.471820,214.95856 C 49.931950,212.11878 49.633230,194.08724 55.160930,194.50182 C 56.645720,192.02453 55.892880,203.95124 56.164060,208.57735 C 57.336910,205.12101 55.669900,190.84809 55.595960,184.40535 C 55.243180,179.92102 55.368650,173.57880 55.851610,171.20626 C 56.766060,167.51685 59.994470,170.83126 60.680450,172.85775 C 60.918460,174.49038 61.230920,175.60528 61.727750,180.24062 C 62.362130,188.62690 64.008540,200.41687 64.008540,200.41687 C 64.008540,200.41687 64.111890,189.47042 64.111890,189.47042 C 64.232750,188.74526 70.830630,188.47262 70.951490,189.56036 C 71.072350,191.25241 72.392920,201.85615 72.392920,201.85615 C 72.392920,201.85615 71.440810,194.49280 72.016060,191.14378 C 75.036100,191.54571 78.597130,193.26291 79.316140,194.60254 C 79.747570,197.14777 79.168120,203.05359 80.606220,202.91968 L 80.620750,196.00183 L 86.054410,199.40720 z "
         style="fill:none;fill-opacity:1.0000000;fill-rule:evenodd;stroke:#000000;stroke-width:0.96249998;stroke-linejoin:round;stroke-miterlimit:4.0000000;stroke-opacity:0.054298643" />
      <path
         sodipodi:nodetypes="cccccccccccccccccccc"
         id="path11247"
         d="M 86.054410,199.40720 C 87.137200,204.75954 87.580620,203.96632 87.956250,208.88967 C 86.797570,219.75109 84.739620,217.45558 82.954290,232.18772 C 73.986630,232.51937 60.943250,232.67347 58.547840,230.15713 C 56.366730,226.23295 53.656190,220.16716 51.471820,214.95856 C 49.931950,212.11878 49.633230,194.08724 55.160930,194.50182 C 56.645720,192.02453 55.892880,203.95124 56.164060,208.57735 C 57.336910,205.12101 55.669900,190.84809 55.595960,184.40535 C 55.243180,179.92102 55.368650,173.57880 55.851610,171.20626 C 56.766060,167.51685 59.994470,170.83126 60.680450,172.85775 C 60.918460,174.49038 61.230920,175.60528 61.727750,180.24062 C 62.362130,188.62690 64.008540,200.41687 64.008540,200.41687 C 64.008540,200.41687 64.111890,189.47042 64.111890,189.47042 C 64.232750,188.74526 70.830630,188.47262 70.951490,189.56036 C 71.072350,191.25241 72.392920,201.85615 72.392920,201.85615 C 72.392920,201.85615 71.440810,194.49280 72.016060,191.14378 C 75.036100,191.54571 78.597130,193.26291 79.316140,194.60254 C 79.747570,197.14777 79.168120,203.05359 80.606220,202.91968 L 80.620750,196.00183 L 86.054410,199.40720 z "
         style="fill:url(#linearGradient5073);fill-opacity:1.0000000;fill-rule:evenodd;stroke:url(#linearGradient2752);stroke-width:1.5875000;stroke-linejoin:round;stroke-miterlimit:4.0000000;stroke-opacity:1.0000000" />
      <path
         sodipodi:nodetypes="ccccc"
         id="path5075"
         d="M 87.956250,208.88967 C 86.797570,219.75109 84.739620,217.45558 82.954290,232.18772 C 73.986630,232.51937 60.943250,232.67347 58.547840,230.15713 C 56.366730,226.23295 53.656190,220.16716 51.471820,214.95856 C 49.931950,212.11878 87.580620,203.96632 87.956250,208.88967 z "
         style="fill:url(#radialGradient5843);fill-opacity:1.0000000;fill-rule:evenodd;stroke:none;stroke-width:1.5875000;stroke-linejoin:round;stroke-miterlimit:4.0000000;stroke-opacity:1.0000000" />
      <path
         sodipodi:nodetypes="cccccccccccccccccc"
         id="path6615"
         d="M 86.054410,199.40720 C 87.137200,204.75954 87.580620,203.96632 87.956250,208.88967 C 86.797570,219.75109 84.739620,217.45558 82.954290,232.18772 C 73.986630,232.51937 60.943250,232.67347 58.547840,230.15713 C 56.366730,226.23295 53.656190,220.16716 51.471820,214.95856 C 49.931950,212.11878 49.633230,194.08724 55.160930,194.50182 C 56.645720,192.02453 55.892880,203.95124 56.164060,208.57735 C 57.336910,205.12101 55.669900,190.84809 55.595960,184.40535 C 55.243180,179.92102 61.230920,175.60528 61.727750,180.24062 C 62.362130,188.62690 64.008540,200.41687 64.008540,200.41687 C 64.008540,200.41687 64.111890,189.47042 64.111890,189.47042 C 64.232750,188.74526 70.830630,188.47262 70.951490,189.56036 C 71.072350,191.25241 72.392920,201.85615 72.392920,201.85615 C 72.392920,201.85615 71.440810,194.49280 72.016060,191.14378 C 75.036100,191.54571 78.597130,193.26291 79.316140,194.60254 C 79.747570,197.14777 79.168120,203.05359 80.606220,202.91968 L 80.620750,196.00183 L 86.054410,199.40720 z "
         style="opacity:0.52173913;fill:url(#radialGradient6623);fill-opacity:1.0000000;fill-rule:evenodd;stroke:none;stroke-width:1.5875000;stroke-linejoin:round;stroke-miterlimit:4.0000000;stroke-opacity:1.0000000" />
      <path
         sodipodi:nodetypes="cscscccccccccccccc"
         id="path4307"
         d="M 85.073217,200.22486 C 86.646604,205.57720 88.822158,212.96842 74.056022,210.85206 C 62.226935,209.15665 55.782107,219.67656 53.597737,214.46796 C 52.057867,211.62818 50.514343,199.04941 54.428399,194.63559 C 56.089680,192.76219 55.892880,203.95124 56.164060,208.57735 C 57.336910,205.12101 55.669900,190.84809 55.595960,184.40535 C 55.243180,179.92102 55.368650,173.57880 55.851610,171.20626 C 56.766060,167.51685 59.994470,170.83126 60.680450,172.85775 C 60.918460,174.49038 61.230920,175.60528 61.727750,180.24062 C 62.362130,188.62690 64.008540,200.41687 64.008540,200.41687 C 64.008540,200.41687 64.111890,189.47042 64.111890,189.47042 C 64.232750,188.74526 70.830630,188.47262 70.951490,189.56036 C 71.072350,191.25241 72.392920,201.85615 72.392920,201.85615 C 72.392920,201.85615 71.440810,194.49280 72.016060,191.14378 C 75.036100,191.54571 78.597130,193.26291 79.316140,194.60254 C 79.747570,197.14777 79.168120,203.05359 80.606220,202.91968 L 80.620750,196.00183 L 85.073217,200.22486 z "
         style="fill:url(#linearGradient7383);fill-opacity:1.0000000;fill-rule:evenodd;stroke:none;stroke-width:1.5875000;stroke-linejoin:round;stroke-miterlimit:4.0000000;stroke-opacity:1.0000000" />
      <path
         sodipodi:nodetypes="cscscccccccccccccc"
         id="path7385"
         d="M 85.073217,200.22486 C 86.646604,205.57720 88.822158,212.96842 74.056022,210.85206 C 62.226935,209.15665 55.782107,219.67656 53.597737,214.46796 C 52.057867,211.62818 50.514343,199.04941 54.428399,194.63559 C 56.089680,192.76219 55.892880,203.95124 56.164060,208.57735 C 57.336910,205.12101 55.669900,190.84809 55.595960,184.40535 C 55.243180,179.92102 55.368650,173.57880 55.851610,171.20626 C 56.766060,167.51685 59.994470,170.83126 60.680450,172.85775 C 60.918460,174.49038 61.230920,175.60528 61.727750,180.24062 C 62.362130,188.62690 64.008540,200.41687 64.008540,200.41687 C 64.008540,200.41687 64.111890,189.47042 64.111890,189.47042 C 64.232750,188.74526 70.830630,188.47262 70.951490,189.56036 C 71.072350,191.25241 72.392920,201.85615 72.392920,201.85615 C 72.392920,201.85615 71.440810,194.49280 72.016060,191.14378 C 75.036100,191.54571 78.597130,193.26291 79.316140,194.60254 C 79.747570,197.14777 79.168120,203.05359 80.606220,202.91968 L 80.620750,196.00183 L 85.073217,200.22486 z "
         style="fill:url(#linearGradient8145);fill-opacity:1.0000000;fill-rule:evenodd;stroke:none;stroke-width:1.5875000;stroke-linejoin:round;stroke-miterlimit:4.0000000;stroke-opacity:1.0000000" />
    </g>
  </g>
</svg>
