<?xml version="1.0" encoding="UTF-8" standalone="no"?>
<!DOCTYPE svg PUBLIC "-//W3C//DTD SVG 20010904//EN"
"http://www.w3.org/TR/2001/REC-SVG-20010904/DTD/svg10.dtd">
<!-- Created with Inkscape (http://www.inkscape.org/) -->
<svg
   width="64pt"
   height="64pt"
   xmlns="http://www.w3.org/2000/svg"
   xmlns:cc="http://web.resource.org/cc/"
   xmlns:inkscape="http://www.inkscape.org/namespaces/inkscape"
   xmlns:sodipodi="http://sodipodi.sourceforge.net/DTD/sodipodi-0.dtd"
   xmlns:rdf="http://www.w3.org/1999/02/22-rdf-syntax-ns#"
   xmlns:dc="http://purl.org/dc/elements/1.1/"
   xmlns:xlink="http://www.w3.org/1999/xlink"
   id="svg18379"
   sodipodi:version="0.32"
   inkscape:version="0.40"
   sodipodi:docbase="/home/nuno/kdeplayground-artwork/oooicons/crystalsvg"
   sodipodi:docname="help.svg"
   inkscape:export-filename="/home/nuno/kdeplayground-artwork/oooicons/crystalsvg/help.png"
   inkscape:export-xdpi="36.000000"
   inkscape:export-ydpi="36.000000">
  <defs
     id="defs3">
    <linearGradient
       id="graytolightgray">
      <stop
         style="stop-color:#d4d3d3;stop-opacity:1.0000000;"
         offset="0.0000000"
         id="stop5101" />
      <stop
         style="stop-color:#ffffff;stop-opacity:1.0000000;"
         offset="1.0000000"
         id="stop5102" />
    </linearGradient>
    <linearGradient
       inkscape:collect="always"
       xlink:href="#graytolightgray"
       id="linearGradient8385"
       x1="16.369059"
       y1="197.83464"
       x2="337.96164"
       y2="197.83464"
       gradientUnits="userSpaceOnUse"
       gradientTransform="matrix(0.227767,0.000000,0.000000,0.229031,-1.091508,-6.738794)" />
    <radialGradient
       inkscape:collect="always"
       xlink:href="#shadow25tolineto0"
       id="radialGradient17118"
       gradientUnits="userSpaceOnUse"
       cx="174.74211"
       cy="195.39659"
       fx="174.74211"
       fy="195.39659"
       r="328.42987"
       gradientTransform="matrix(0.227767,0.000000,0.000000,0.229031,-1.091508,-6.738794)" />
    <linearGradient
       id="redtodarkred">
      <stop
         style="stop-color:#ff0000;stop-opacity:1.0000000;"
         offset="0.0000000"
         id="stop3856" />
      <stop
         style="stop-color:#920000;stop-opacity:1.0000000;"
         offset="1.0000000"
         id="stop3855" />
    </linearGradient>
    <linearGradient
       inkscape:collect="always"
       xlink:href="#redtodarkred"
       id="linearGradient9010"
       gradientTransform="matrix(0.227748,0.000000,0.000000,0.229050,-1.091508,-6.738794)"
       x1="313.24472"
       y1="311.46384"
       x2="-96.393227"
       y2="-41.605087"
       gradientUnits="userSpaceOnUse" />
    <linearGradient
       inkscape:collect="always"
       xlink:href="#sadow75to0w"
       id="linearGradient12123"
       gradientTransform="matrix(0.363454,0.000000,0.000000,0.143529,-1.091508,-6.738794)"
       x1="115.97614"
       y1="800.84375"
       x2="115.53008"
       y2="351.14484"
       gradientUnits="userSpaceOnUse" />
    <linearGradient
       inkscape:collect="always"
       xlink:href="#light100to0"
       id="linearGradient12746"
       gradientUnits="userSpaceOnUse"
       gradientTransform="matrix(1.587847,-0.105593,-4.124021e-2,-0.627041,0.000000,0.000000)"
       x1="10.591972"
       y1="-9.1441307"
       x2="21.736147"
       y2="-54.699059" />
    <linearGradient
       id="light100to0">
      <stop
         style="stop-color:#ffffff;stop-opacity:1.0000000;"
         offset="0.0000000"
         id="stop2764" />
      <stop
         style="stop-color:#ffffff;stop-opacity:0.0000000;"
         offset="1.0000000"
         id="stop2765" />
    </linearGradient>
    <radialGradient
       inkscape:collect="always"
       xlink:href="#light100to0"
       id="radialGradient13991"
       gradientTransform="matrix(1.225641,0.000000,0.000000,0.738726,0.000000,6.179754)"
       cx="34.092976"
       cy="73.162079"
       fx="34.092976"
       fy="73.162079"
       r="47.952923"
       gradientUnits="userSpaceOnUse" />
    <linearGradient
       id="shadow25tolineto0">
      <stop
         style="stop-color:#000000;stop-opacity:0.25490198;"
         offset="0.0000000"
         id="stop3442" />
      <stop
         style="stop-color:#000000;stop-opacity:0.029166667;"
         offset="0.45393065"
         id="stop3450" />
      <stop
         style="stop-color:#000000;stop-opacity:0.37083334;"
         offset="0.50000000"
         id="stop3449" />
      <stop
         style="stop-color:#000000;stop-opacity:0.062745102;"
         offset="0.53497112"
         id="stop3451" />
      <stop
         style="stop-color:#000000;stop-opacity:0.0000000;"
         offset="1.0000000"
         id="stop3444" />
    </linearGradient>
    <radialGradient
       inkscape:collect="always"
       xlink:href="#shadow25tolineto0"
       id="radialGradient17117"
       gradientUnits="userSpaceOnUse"
       cx="176.68071"
       cy="196.37181"
       fx="176.68071"
       fy="196.37181"
       r="168.66838"
       gradientTransform="matrix(0.227767,0.000000,0.000000,0.229031,-1.091508,-6.738794)" />
    <linearGradient
       id="sadow75to0w">
      <stop
         style="stop-color:#000000;stop-opacity:0.72941178;"
         offset="0.0000000"
         id="stop3429" />
      <stop
         style="stop-color:#ffffff;stop-opacity:0.0000000;"
         offset="1.0000000"
         id="stop3430" />
    </linearGradient>
    <radialGradient
       inkscape:collect="always"
       xlink:href="#sadow75to0w"
       id="radialGradient15237"
       gradientTransform="matrix(0.281095,0.000000,0.000000,0.185580,-1.091508,-6.738794)"
       cx="134.50496"
       cy="193.66330"
       fx="134.50496"
       fy="193.66330"
       r="88.890495"
       gradientUnits="userSpaceOnUse" />
    <linearGradient
       inkscape:collect="always"
       xlink:href="#light100to0"
       id="linearGradient20636"
       gradientTransform="matrix(1.031856,0.000000,0.000000,1.024797,-1.019023,-0.503514)"
       x1="-70.552055"
       y1="-65.442917"
       x2="85.588181"
       y2="90.251816"
       gradientUnits="userSpaceOnUse" />
  </defs>
  <sodipodi:namedview
     id="base"
     pagecolor="#ffffff"
     bordercolor="#666666"
     borderopacity="1.0"
     inkscape:pageopacity="0.0"
     inkscape:pageshadow="2"
     inkscape:zoom="5.4535205"
     inkscape:cx="42.181321"
     inkscape:cy="20.052119"
     inkscape:current-layer="layer1"
     showgrid="false"
     inkscape:grid-bbox="false"
     gridspacingy="1.0000000pt"
     gridspacingx="1.0000000pt"
     gridoriginy="0.0000000pt"
     gridoriginx="0.0000000pt"
     inkscape:window-width="840"
     inkscape:window-height="621"
     inkscape:window-x="0"
     inkscape:window-y="307" />
  <metadata
     id="metadata4">
    <rdf:RDF
       id="RDF5">
      <cc:Work
         rdf:about=""
         id="Work6">
        <dc:format
           id="format7">image/svg+xml</dc:format>
        <dc:type
           id="type9"
           rdf:resource="http://purl.org/dc/dcmitype/StillImage" />
      </cc:Work>
    </rdf:RDF>
  </metadata>
  <g
     id="layer1"
     inkscape:label="Layer 1"
     inkscape:groupmode="layer">
    <g
       id="g21879">
      <path
         sodipodi:type="arc"
         style="fill:none;fill-opacity:1.0000000;stroke:#a30000;stroke-width:2.6949544;stroke-linecap:butt;stroke-linejoin:round;stroke-miterlimit:4.0000000;stroke-dashoffset:0.0000000;stroke-opacity:1.0000000"
         id="path18424"
         sodipodi:cx="38.782200"
         sodipodi:cy="38.220142"
         sodipodi:rx="36.721310"
         sodipodi:ry="36.533958"
         d="M 75.503510 38.220142 A 36.721310 36.533958 0 1 1  2.0608902,38.220142 A 36.721310 36.533958 0 1 1  75.503510 38.220142 z"
         transform="matrix(0.990259,0.000000,0.000000,0.997604,0.756404,0.375515)" />
      <path
         style="fill:#000000;fill-opacity:0.21874996;stroke:none;stroke-width:2.6949544;stroke-linecap:butt;stroke-linejoin:round;stroke-miterlimit:4.0000000;stroke-dashoffset:0.0000000;stroke-opacity:1.0000000"
         d="M 75.733057,54.375744 C 81.924745,35.086735 71.224002,13.639195 51.834601,6.5010104 C 32.445209,-0.63717207 11.675342,9.2245008 5.4836528,28.513511 C -0.70803447,47.802516 10.015059,69.239619 29.404454,76.377798 C 48.793854,83.515982 69.541368,73.664750 75.733057,54.375744 z M 58.591184,48.064985 C 55.421039,57.940956 44.801290,62.993501 34.873915,59.338750 C 24.946552,55.684002 19.455384,44.700242 22.625528,34.824271 C 25.795672,24.948297 36.432412,19.902010 46.359779,23.556759 C 56.287154,27.211509 61.761328,38.189011 58.591184,48.064985 z "
         id="path17136" />
      <path
         style="fill:url(#linearGradient8385);fill-opacity:1.0000000;stroke:none;stroke-width:2.6949544;stroke-linecap:butt;stroke-linejoin:round;stroke-miterlimit:4.0000000;stroke-dashoffset:0.0000000;stroke-opacity:1.0000000"
         d="M 39.269771,2.0527394 C 19.219472,2.0527394 2.9437579,18.403701 2.9437579,38.562590 C 2.9437579,58.721492 19.219472,75.090105 39.269771,75.090105 C 59.320073,75.090105 75.578431,58.721492 75.578425,38.562590 C 75.578425,18.403701 59.320073,2.0527394 39.269771,2.0527394 z M 39.269771,19.874915 C 49.535529,19.874915 57.866887,28.241234 57.866887,38.562590 C 57.866894,48.883948 49.535529,57.267929 39.269771,57.267929 C 29.004021,57.267929 20.672659,48.883948 20.672659,38.562590 C 20.672659,28.241234 29.004021,19.874915 39.269771,19.874915 z "
         id="path4789" />
      <path
         style="fill:url(#radialGradient17118);fill-opacity:1.0000000;stroke:none;stroke-width:2.6949544;stroke-linecap:butt;stroke-linejoin:round;stroke-miterlimit:4.0000000;stroke-dashoffset:0.0000000;stroke-opacity:1.0000000"
         d="M 39.269771,2.0527394 C 19.219472,2.0527394 2.9437579,18.403701 2.9437579,38.562590 C 2.9437579,58.721492 19.219472,75.090105 39.269771,75.090105 C 59.320073,75.090105 75.578431,58.721492 75.578425,38.562590 C 75.578425,18.403701 59.320073,2.0527394 39.269771,2.0527394 z M 39.269771,19.874915 C 49.535529,19.874915 57.866887,28.241234 57.866887,38.562590 C 57.866894,48.883948 49.535529,57.267929 39.269771,57.267929 C 29.004021,57.267929 20.672659,48.883948 20.672659,38.562590 C 20.672659,28.241234 29.004021,19.874915 39.269771,19.874915 z "
         id="path15862" />
      <path
         style="fill:url(#linearGradient9010);fill-opacity:1.0000000;stroke:none;stroke-width:2.6949544;stroke-linecap:butt;stroke-linejoin:round;stroke-miterlimit:4.0000000;stroke-dashoffset:0.0000000;stroke-opacity:1.0000000"
         d="M 39.259018,2.0502621 L 39.259018,19.871716 C 39.263793,19.871714 39.268478,19.871716 39.273254,19.871716 C 43.983171,19.978776 46.956016,21.056058 50.647416,23.636410 L 61.139169,9.6512197 C 55.012212,4.9064789 47.603003,2.0502621 39.273254,2.0502621 C 39.268465,2.0502621 39.263806,2.0502587 39.259018,2.0502621 z M 9.4142982,17.796126 C 5.3432366,23.694428 2.9442629,30.839936 2.9442629,38.559196 C 2.9442629,38.564010 2.9442595,38.568696 2.9442629,38.573511 L 20.674574,38.573511 C 20.674571,38.568690 20.674574,38.564017 20.674574,38.559196 C 20.439877,35.002824 21.882791,30.246318 23.998565,27.866320 L 9.4142982,17.796126 z M 57.864816,38.573511 C 57.861887,42.458532 56.677093,46.067805 54.654709,49.058824 L 69.203388,59.107547 C 72.785604,53.939019 75.420845,46.934941 75.580892,38.573511 L 57.864816,38.573511 z M 28.710512,53.947198 L 18.759902,68.504967 C 23.243776,72.140602 32.979008,75.321987 39.259018,75.089598 L 39.259018,57.268144 C 35.341655,57.265171 31.707820,56.033423 28.710512,53.947198 z "
         id="path6513"
         sodipodi:nodetypes="cccccccccccccccccccccccc" />
      <path
         style="fill:url(#linearGradient12123);fill-opacity:1.0000000;fill-rule:evenodd;stroke:none;stroke-width:0.25000000pt;stroke-linecap:butt;stroke-linejoin:miter;stroke-opacity:1.0000000"
         d="M 39.514675,75.326089 C 25.781090,75.186192 17.260633,67.014176 12.510567,62.917211 C 7.7605031,58.820252 4.5248725,50.949124 5.4134239,48.732926 C 6.2712985,46.593245 16.875008,67.192087 39.261090,66.974843 C 61.847201,66.757601 71.868392,46.015005 72.919753,48.837457 C 73.993669,51.720452 70.741730,58.436710 66.107694,62.549777 C 61.473658,66.662840 53.448288,75.465987 39.514675,75.326089 z "
         id="path11496"
         sodipodi:nodetypes="czzzzzz" />
      <path
         style="fill:url(#linearGradient12746);fill-opacity:1.0;fill-rule:evenodd;stroke:none;stroke-width:0.25000000pt;stroke-linecap:butt;stroke-linejoin:miter;stroke-opacity:1.0000000;"
         d="M 37.137383,1.4763128 C 22.032553,2.4194205 14.622936,10.656002 10.152090,15.059227 C 5.6812462,19.462454 3.8236180,28.580342 4.8556721,30.732748 C 5.8520908,32.810843 15.080868,11.553281 37.432413,10.284603 C 59.983548,9.0026487 71.344154,29.035071 72.207992,26.149015 C 73.090371,23.201038 70.009972,15.440706 65.116110,11.644101 C 60.222249,7.8474966 52.242727,0.53317398 37.137383,1.4763128 z "
         id="path12745"
         sodipodi:nodetypes="czzzzzz" />
      <path
         style="fill:url(#radialGradient13991);fill-opacity:1.0000000;fill-rule:evenodd;stroke:none;stroke-width:0.25000000pt;stroke-linecap:butt;stroke-linejoin:miter;stroke-opacity:1.0000000"
         d="M 47.437381,62.768843 C 21.384226,68.892937 20.273443,40.280841 20.211048,41.464145 C 20.148699,42.646585 21.454680,46.835899 24.536508,50.738969 C 27.618337,54.642038 32.476013,58.258862 39.517052,58.296322 C 53.799167,58.371240 58.347529,43.553312 58.321898,41.333612 C 58.296264,39.296023 60.375898,59.727495 47.437381,62.768843 z "
         id="path13368"
         sodipodi:nodetypes="czszzs" />
      <path
         style="fill:url(#radialGradient17117);fill-opacity:1.0000000;stroke:none;stroke-width:2.6949544;stroke-linecap:butt;stroke-linejoin:round;stroke-miterlimit:4.0000000;stroke-dashoffset:0.0000000;stroke-opacity:1.0000000"
         d="M 39.269771,2.0527394 C 19.219472,2.0527394 2.9437579,18.403701 2.9437579,38.562590 C 2.9437579,58.721492 19.219472,75.090105 39.269771,75.090105 C 59.320073,75.090105 75.578431,58.721492 75.578425,38.562590 C 75.578425,18.403701 59.320073,2.0527394 39.269771,2.0527394 z M 39.269771,19.874915 C 49.535529,19.874915 57.866887,28.241234 57.866887,38.562590 C 57.866894,48.883948 49.535529,57.267929 39.269771,57.267929 C 29.004021,57.267929 20.672659,48.883948 20.672659,38.562590 C 20.672659,28.241234 29.004021,19.874915 39.269771,19.874915 z "
         id="path15238" />
      <path
         style="fill:url(#radialGradient15237);fill-opacity:1.0000000;fill-rule:evenodd;stroke:none;stroke-width:0.25000000pt;stroke-linecap:butt;stroke-linejoin:miter;stroke-opacity:1.0000000"
         d="M 37.802576,14.168114 C 60.099968,14.335872 64.320526,37.510239 58.244371,38.516897 C 57.793612,33.653313 53.020452,20.009025 38.938369,19.926280 C 24.656259,19.843532 17.503543,35.443281 21.333711,43.086137 C 13.559047,42.104861 14.504601,14.603769 37.802576,14.168114 z "
         id="path14613"
         sodipodi:nodetypes="cczcc" />
      <path
         style="fill:url(#linearGradient20636);fill-opacity:1.0000000;stroke:none;stroke-width:2.6949544;stroke-linecap:butt;stroke-linejoin:round;stroke-miterlimit:4.0000000;stroke-dashoffset:0.0000000;stroke-opacity:1.0000000"
         d="M 39.613887,0.67748095 C 18.867598,0.67748095 1.3392898,18.304475 1.3392898,38.906211 C 1.3392898,59.507958 18.867598,76.236154 39.613887,76.236154 C 60.360178,76.236154 77.182899,59.507958 77.182893,38.906211 C 77.182893,18.304475 60.360178,0.67748095 39.613887,0.67748095 z M 39.613887,19.808009 C 50.235992,19.808009 58.856549,28.358118 58.856549,38.906211 C 58.856556,49.454306 50.235992,58.022464 39.613887,58.022464 C 28.991791,58.022464 20.371229,49.454306 20.371229,38.906211 C 20.371229,28.358118 28.991791,19.808009 39.613887,19.808009 z "
         id="path20013"
         sodipodi:nodetypes="cccccccccc" />
    </g>
  </g>
</svg>
