<?xml version="1.0" encoding="UTF-8" standalone="no"?>
<!-- Created with Inkscape (http://www.inkscape.org/) -->
<svg
   xmlns:dc="http://purl.org/dc/elements/1.1/"
   xmlns:cc="http://web.resource.org/cc/"
   xmlns:rdf="http://www.w3.org/1999/02/22-rdf-syntax-ns#"
   xmlns:svg="http://www.w3.org/2000/svg"
   xmlns="http://www.w3.org/2000/svg"
   xmlns:xlink="http://www.w3.org/1999/xlink"
   xmlns:sodipodi="http://inkscape.sourceforge.net/DTD/sodipodi-0.dtd"
   xmlns:inkscape="http://www.inkscape.org/namespaces/inkscape"
   inkscape:export-ydpi="36.000000"
   inkscape:export-xdpi="36.000000"
   inkscape:export-filename="/home/nuno/kdeplayground-artwork/oooicons/crystalsvg/insertpagecountfield.png"
   sodipodi:docname="insertpagecountfield.svg"
   sodipodi:docbase="/home/nuno/kdeplayground-artwork/oooicons/crystalsvg"
   inkscape:version="0.41"
   sodipodi:version="0.32"
   id="svg7354"
   height="64pt"
   width="64pt">
  <defs
     id="defs3">
    <linearGradient
       gradientTransform="matrix(0.182431,0.000000,0.000000,0.213888,4.641008,0.357569)"
       y2="323.76923"
       x2="272.46765"
       y1="59.053604"
       x1="122.43015"
       gradientUnits="userSpaceOnUse"
       id="linearGradient3623"
       xlink:href="#graytolightgray"
       inkscape:collect="always" />
    <radialGradient
       gradientTransform="matrix(0.696376,0.000000,0.000000,0.816451,10.14487,4.039048)"
       r="23.6936"
       fy="81.1689"
       fx="74.4951"
       cy="81.1689"
       cx="74.4951"
       gradientUnits="userSpaceOnUse"
       id="radialGradient3622"
       xlink:href="#XMLID_9_"
       inkscape:collect="always" />
    <linearGradient
       id="graytolightgray">
      <stop
         id="stop5101"
         offset="0.0000000"
         style="stop-color:#d4d3d3;stop-opacity:1.0000000;" />
      <stop
         id="stop5102"
         offset="1.0000000"
         style="stop-color:#ffffff;stop-opacity:1.0000000;" />
    </linearGradient>
    <linearGradient
       gradientTransform="matrix(0.182431,0.000000,0.000000,0.213888,4.641008,0.357569)"
       y2="273.80606"
       x2="330.93881"
       y1="340.20792"
       x1="284.17496"
       gradientUnits="userSpaceOnUse"
       id="linearGradient3621"
       xlink:href="#graytolightgray"
       inkscape:collect="always" />
    <linearGradient
       id="light75to0">
      <stop
         id="stop2769"
         offset="0.0000000"
         style="stop-color:#ffffff;stop-opacity:0.72916669;" />
      <stop
         id="stop2770"
         offset="1.0000000"
         style="stop-color:#ffffff;stop-opacity:0.0000000;" />
    </linearGradient>
    <radialGradient
       gradientUnits="userSpaceOnUse"
       r="508.29517"
       fy="52.577991"
       fx="53.182602"
       cy="52.577991"
       cx="53.182602"
       gradientTransform="matrix(0.222656,0.000000,0.000000,0.175247,4.641008,1.797000e-2)"
       id="radialGradient6111"
       xlink:href="#light75to0"
       inkscape:collect="always" />
    <linearGradient
       gradientTransform="matrix(0.182431,0.000000,0.000000,0.213888,4.641008,0.357569)"
       y2="513.91156"
       x2="561.86395"
       y1="248.01839"
       x1="245.91402"
       gradientUnits="userSpaceOnUse"
       id="linearGradient3619"
       xlink:href="#garylighttowite"
       inkscape:collect="always" />
    <linearGradient
       id="garylighttowite">
      <stop
         id="stop5106"
         offset="0.0000000"
         style="stop-color:#7d7d7d;stop-opacity:1.0000000;" />
      <stop
         id="stop5107"
         offset="1.0000000"
         style="stop-color:#d3d4d4;stop-opacity:1.0000000;" />
    </linearGradient>
    <linearGradient
       gradientTransform="matrix(0.182431,0.000000,0.000000,0.213888,4.641008,0.357569)"
       y2="648.29797"
       x2="578.44397"
       y1="-50.289883"
       x1="-37.332329"
       gradientUnits="userSpaceOnUse"
       id="linearGradient3618"
       xlink:href="#garylighttowite"
       inkscape:collect="always" />
    <radialGradient
       r="23.6936"
       fy="81.1689"
       fx="74.4951"
       cy="81.1689"
       cx="74.4951"
       gradientTransform="matrix(0.696376,0.000000,0.000000,0.816451,10.14487,4.039048)"
       gradientUnits="userSpaceOnUse"
       id="radialGradient7426"
       xlink:href="#XMLID_9_"
       inkscape:collect="always" />
    <radialGradient
       r="508.29517"
       fy="52.577991"
       fx="53.182602"
       cy="52.577991"
       cx="53.182602"
       gradientTransform="matrix(0.261654,0.000000,0.000000,0.186725,1.894292,-3.658607)"
       gradientUnits="userSpaceOnUse"
       id="radialGradient1100"
       xlink:href="#light75to0"
       inkscape:collect="always" />
    <linearGradient
       y2="323.76923"
       x2="272.46765"
       y1="59.053604"
       x1="122.43015"
       gradientTransform="matrix(0.214385,0.000000,0.000000,0.222911,1.892579,-3.381642)"
       gradientUnits="userSpaceOnUse"
       id="linearGradient1101"
       xlink:href="#graytolightgray"
       inkscape:collect="always" />
    <linearGradient
       y2="648.29797"
       x2="578.44397"
       y1="-50.289883"
       x1="-37.332329"
       gradientTransform="matrix(0.214385,0.000000,0.000000,0.227898,1.980159,-3.272408)"
       gradientUnits="userSpaceOnUse"
       id="linearGradient1102"
       xlink:href="#garylighttowite"
       inkscape:collect="always" />
    <linearGradient
       y2="513.91156"
       x2="561.86395"
       y1="248.01839"
       x1="245.91402"
       gradientTransform="matrix(0.214385,0.000000,0.000000,0.227898,-2.392798,-3.273732)"
       gradientUnits="userSpaceOnUse"
       id="linearGradient1103"
       xlink:href="#garylighttowite"
       inkscape:collect="always" />
    <linearGradient
       y2="273.80606"
       x2="330.93881"
       y1="340.20792"
       x1="284.17496"
       gradientTransform="matrix(0.214385,0.000000,0.000000,0.227898,-2.648122,-3.253041)"
       gradientUnits="userSpaceOnUse"
       id="linearGradient1104"
       xlink:href="#graytolightgray"
       inkscape:collect="always" />
    <linearGradient
       gradientUnits="userSpaceOnUse"
       y2="218.63310"
       x2="176.99603"
       y1="50.663139"
       x1="351.57092"
       gradientTransform="scale(0.999857,1.000143)"
       id="linearGradient2518"
       xlink:href="#greantodarkgrean"
       inkscape:collect="always" />
    <linearGradient
       id="greantodarkgrean">
      <stop
         id="stop5123"
         offset="0.0000000"
         style="stop-color:#00ff01;stop-opacity:1.0000000;" />
      <stop
         id="stop5124"
         offset="1.0000000"
         style="stop-color:#15980f;stop-opacity:1.0000000;" />
    </linearGradient>
    <radialGradient
       gradientUnits="userSpaceOnUse"
       r="219.06058"
       fy="52.096363"
       fx="78.732162"
       cy="52.096363"
       cx="78.732162"
       gradientTransform="scale(0.999855,1.000145)"
       id="radialGradient9371"
       xlink:href="#greandarktobgrean"
       inkscape:collect="always" />
    <linearGradient
       id="greandarktobgrean">
      <stop
         id="stop4492"
         offset="0.0000000"
         style="stop-color:#00ad01;stop-opacity:1.0000000;" />
      <stop
         id="stop4493"
         offset="1.0000000"
         style="stop-color:#15720f;stop-opacity:1.0000000;" />
    </linearGradient>
    <radialGradient
       gradientUnits="userSpaceOnUse"
       r="105.99626"
       fy="333.00150"
       fx="232.06880"
       cy="333.00150"
       cx="232.06880"
       gradientTransform="scale(0.999851,1.000149)"
       id="radialGradient3143"
       xlink:href="#light100to0"
       inkscape:collect="always" />
    <linearGradient
       id="light100to0">
      <stop
         id="stop2764"
         offset="0.0000000"
         style="stop-color:#ffffff;stop-opacity:1.0000000;" />
      <stop
         id="stop2765"
         offset="1.0000000"
         style="stop-color:#ffffff;stop-opacity:0.0000000;" />
    </linearGradient>
    <linearGradient
       gradientUnits="userSpaceOnUse"
       y2="362.30255"
       x2="261.13272"
       y1="34.215549"
       x1="23.488348"
       gradientTransform="matrix(1.048333,0.000000,0.000000,0.953895,3.135114,2.949073)"
       id="linearGradient4390"
       xlink:href="#light100to0"
       inkscape:collect="always" />
    <linearGradient
       gradientUnits="userSpaceOnUse"
       y2="2.1223185"
       x2="30.730896"
       y1="53.749279"
       x1="62.431824"
       gradientTransform="scale(0.924800,1.081314)"
       id="linearGradient2125"
       xlink:href="#garylighttowite"
       inkscape:collect="always" />
    <linearGradient
       gradientUnits="userSpaceOnUse"
       y2="41.381992"
       x2="60.439819"
       y1="38.226795"
       x1="55.888039"
       gradientTransform="scale(0.940665,1.063078)"
       id="linearGradient2943"
       xlink:href="#light100to0"
       inkscape:collect="always" />
    <linearGradient
       gradientUnits="userSpaceOnUse"
       y2="51.357750"
       x2="42.575607"
       y1="45.385689"
       x1="37.840607"
       gradientTransform="scale(1.075429,0.929862)"
       id="linearGradient2945"
       xlink:href="#light100to0"
       inkscape:collect="always" />
    <radialGradient
       gradientUnits="userSpaceOnUse"
       r="3.1160831"
       fy="49.752113"
       fx="39.019085"
       cy="49.673016"
       cx="38.917538"
       gradientTransform="scale(1.082381,0.923889)"
       id="radialGradient2949"
       xlink:href="#light100to0"
       inkscape:collect="always" />
    <linearGradient
       y2="41.381992"
       x2="60.439819"
       y1="38.226795"
       x1="55.888039"
       gradientTransform="matrix(-3.950267e-2,0.906935,0.873706,0.282123,4.057292,-6.838938)"
       gradientUnits="userSpaceOnUse"
       id="linearGradient2953"
       xlink:href="#light100to0"
       inkscape:collect="always" />
    <radialGradient
       gradientUnits="userSpaceOnUse"
       r="3.9224741"
       fy="51.439625"
       fx="39.457569"
       cy="51.439625"
       cx="39.457569"
       gradientTransform="matrix(3.349763,0.000000,0.000000,3.514737,-80.20577,-110.9357)"
       id="radialGradient2967"
       xlink:href="#light100to0"
       inkscape:collect="always" />
    <linearGradient
       gradientUnits="userSpaceOnUse"
       y2="7.8475938"
       x2="289.89548"
       y1="7.8093686"
       x1="288.15659"
       gradientTransform="scale(0.145865,6.855654)"
       id="linearGradient2978"
       xlink:href="#light100to0"
       inkscape:collect="always" />
    <linearGradient
       y2="7.8475938"
       x2="289.89548"
       y1="7.8093686"
       x1="288.15659"
       gradientTransform="matrix(1.532725,0.411329,-1.259678,5.640709,-382.0029,-108.8842)"
       gradientUnits="userSpaceOnUse"
       id="linearGradient2983"
       xlink:href="#light100to0"
       inkscape:collect="always" />
    <linearGradient
       y2="14.912418"
       x2="134.85664"
       y1="14.633941"
       x1="126.02969"
       gradientTransform="matrix(0.361072,0.221523,-0.591533,2.406614,0.000000,0.000000)"
       gradientUnits="userSpaceOnUse"
       id="linearGradient2989"
       xlink:href="#light100to0"
       inkscape:collect="always" />
    <linearGradient
       y2="51.357750"
       x2="42.575607"
       y1="45.385689"
       x1="37.840607"
       gradientTransform="scale(1.075429,0.929862)"
       gradientUnits="userSpaceOnUse"
       id="linearGradient3002"
       xlink:href="#light100to0"
       inkscape:collect="always" />
    <linearGradient
       y2="41.381992"
       x2="60.439819"
       y1="38.226795"
       x1="55.888039"
       gradientTransform="scale(0.940665,1.063078)"
       gradientUnits="userSpaceOnUse"
       id="linearGradient3004"
       xlink:href="#light100to0"
       inkscape:collect="always" />
    <radialGradient
       r="3.1160831"
       fy="49.752113"
       fx="39.019085"
       cy="49.673016"
       cx="38.917538"
       gradientTransform="scale(1.082381,0.923889)"
       gradientUnits="userSpaceOnUse"
       id="radialGradient3006"
       xlink:href="#light100to0"
       inkscape:collect="always" />
    <linearGradient
       y2="41.381992"
       x2="60.439819"
       y1="38.226795"
       x1="55.888039"
       gradientTransform="matrix(-3.950267e-2,0.906935,0.873706,0.282123,4.057292,-6.838938)"
       gradientUnits="userSpaceOnUse"
       id="linearGradient3008"
       xlink:href="#light100to0"
       inkscape:collect="always" />
    <radialGradient
       r="3.9224741"
       fy="51.439625"
       fx="39.457569"
       cy="51.439625"
       cx="39.457569"
       gradientTransform="matrix(3.349763,0.000000,0.000000,3.514737,-80.20577,-110.9357)"
       gradientUnits="userSpaceOnUse"
       id="radialGradient3010"
       xlink:href="#light100to0"
       inkscape:collect="always" />
    <linearGradient
       y2="7.8475938"
       x2="289.89548"
       y1="7.8093686"
       x1="288.15659"
       gradientTransform="scale(0.145865,6.855654)"
       gradientUnits="userSpaceOnUse"
       id="linearGradient3012"
       xlink:href="#light100to0"
       inkscape:collect="always" />
    <linearGradient
       y2="7.8475938"
       x2="289.89548"
       y1="7.8093686"
       x1="288.15659"
       gradientTransform="matrix(1.532725,0.411329,-1.259678,5.640709,-382.0029,-108.8842)"
       gradientUnits="userSpaceOnUse"
       id="linearGradient3014"
       xlink:href="#light100to0"
       inkscape:collect="always" />
    <linearGradient
       y2="14.912418"
       x2="134.85664"
       y1="14.633941"
       x1="126.02969"
       gradientTransform="matrix(0.361072,0.221523,-0.591533,2.406614,0.000000,0.000000)"
       gradientUnits="userSpaceOnUse"
       id="linearGradient3016"
       xlink:href="#light100to0"
       inkscape:collect="always" />
    <linearGradient
       y2="51.357750"
       x2="42.575607"
       y1="45.385689"
       x1="37.840607"
       gradientTransform="scale(1.075429,0.929862)"
       gradientUnits="userSpaceOnUse"
       id="linearGradient3110"
       xlink:href="#light100to0"
       inkscape:collect="always" />
    <linearGradient
       y2="41.381992"
       x2="60.439819"
       y1="38.226795"
       x1="55.888039"
       gradientTransform="scale(0.940665,1.063078)"
       gradientUnits="userSpaceOnUse"
       id="linearGradient3112"
       xlink:href="#light100to0"
       inkscape:collect="always" />
    <radialGradient
       r="3.1160831"
       fy="49.752113"
       fx="39.019085"
       cy="49.673016"
       cx="38.917538"
       gradientTransform="scale(1.082381,0.923889)"
       gradientUnits="userSpaceOnUse"
       id="radialGradient3114"
       xlink:href="#light100to0"
       inkscape:collect="always" />
    <linearGradient
       y2="41.381992"
       x2="60.439819"
       y1="38.226795"
       x1="55.888039"
       gradientTransform="matrix(-3.950267e-2,0.906935,0.873706,0.282123,4.057292,-6.838938)"
       gradientUnits="userSpaceOnUse"
       id="linearGradient3116"
       xlink:href="#light100to0"
       inkscape:collect="always" />
    <radialGradient
       r="3.9224741"
       fy="51.439625"
       fx="39.457569"
       cy="51.439625"
       cx="39.457569"
       gradientTransform="matrix(3.349763,0.000000,0.000000,3.514737,-80.20577,-110.9357)"
       gradientUnits="userSpaceOnUse"
       id="radialGradient3118"
       xlink:href="#light100to0"
       inkscape:collect="always" />
    <linearGradient
       y2="7.8475938"
       x2="289.89548"
       y1="7.8093686"
       x1="288.15659"
       gradientTransform="scale(0.145865,6.855654)"
       gradientUnits="userSpaceOnUse"
       id="linearGradient3120"
       xlink:href="#light100to0"
       inkscape:collect="always" />
    <linearGradient
       y2="7.8475938"
       x2="289.89548"
       y1="7.8093686"
       x1="288.15659"
       gradientTransform="matrix(1.532725,0.411329,-1.259678,5.640709,-382.0029,-108.8842)"
       gradientUnits="userSpaceOnUse"
       id="linearGradient3122"
       xlink:href="#light100to0"
       inkscape:collect="always" />
    <linearGradient
       y2="14.912418"
       x2="134.85664"
       y1="14.633941"
       x1="126.02969"
       gradientTransform="matrix(0.361072,0.221523,-0.591533,2.406614,0.000000,0.000000)"
       gradientUnits="userSpaceOnUse"
       id="linearGradient3124"
       xlink:href="#light100to0"
       inkscape:collect="always" />
    <linearGradient
       y2="51.357750"
       x2="42.575607"
       y1="45.385689"
       x1="37.840607"
       gradientTransform="scale(1.075429,0.929862)"
       gradientUnits="userSpaceOnUse"
       id="linearGradient3126"
       xlink:href="#light100to0"
       inkscape:collect="always" />
    <linearGradient
       y2="41.381992"
       x2="60.439819"
       y1="38.226795"
       x1="55.888039"
       gradientTransform="scale(0.940665,1.063078)"
       gradientUnits="userSpaceOnUse"
       id="linearGradient3128"
       xlink:href="#light100to0"
       inkscape:collect="always" />
    <radialGradient
       r="3.1160831"
       fy="49.752113"
       fx="39.019085"
       cy="49.673016"
       cx="38.917538"
       gradientTransform="scale(1.082381,0.923889)"
       gradientUnits="userSpaceOnUse"
       id="radialGradient3130"
       xlink:href="#light100to0"
       inkscape:collect="always" />
    <linearGradient
       y2="41.381992"
       x2="60.439819"
       y1="38.226795"
       x1="55.888039"
       gradientTransform="matrix(-3.950267e-2,0.906935,0.873706,0.282123,4.057292,-6.838938)"
       gradientUnits="userSpaceOnUse"
       id="linearGradient3132"
       xlink:href="#light100to0"
       inkscape:collect="always" />
    <radialGradient
       r="3.9224741"
       fy="51.439625"
       fx="39.457569"
       cy="51.439625"
       cx="39.457569"
       gradientTransform="matrix(3.349763,0.000000,0.000000,3.514737,-80.20577,-110.9357)"
       gradientUnits="userSpaceOnUse"
       id="radialGradient3134"
       xlink:href="#light100to0"
       inkscape:collect="always" />
    <linearGradient
       y2="7.8475938"
       x2="289.89548"
       y1="7.8093686"
       x1="288.15659"
       gradientTransform="scale(0.145865,6.855654)"
       gradientUnits="userSpaceOnUse"
       id="linearGradient3136"
       xlink:href="#light100to0"
       inkscape:collect="always" />
    <linearGradient
       y2="7.8475938"
       x2="289.89548"
       y1="7.8093686"
       x1="288.15659"
       gradientTransform="matrix(1.532725,0.411329,-1.259678,5.640709,-382.0029,-108.8842)"
       gradientUnits="userSpaceOnUse"
       id="linearGradient3138"
       xlink:href="#light100to0"
       inkscape:collect="always" />
    <linearGradient
       y2="14.912418"
       x2="134.85664"
       y1="14.633941"
       x1="126.02969"
       gradientTransform="matrix(0.361072,0.221523,-0.591533,2.406614,0.000000,0.000000)"
       gradientUnits="userSpaceOnUse"
       id="linearGradient3140"
       xlink:href="#light100to0"
       inkscape:collect="always" />
  </defs>
  <sodipodi:namedview
     inkscape:window-y="376"
     inkscape:window-x="0"
     inkscape:window-height="553"
     inkscape:window-width="639"
     gridoriginx="0.0000000pt"
     gridoriginy="0.0000000pt"
     gridspacingx="1.0000000pt"
     gridspacingy="1.0000000pt"
     inkscape:grid-bbox="true"
     showgrid="false"
     inkscape:current-layer="layer1"
     inkscape:cy="40.000000"
     inkscape:cx="40.000000"
     inkscape:zoom="4.9375000"
     inkscape:pageshadow="2"
     inkscape:pageopacity="0.0"
     borderopacity="1.0"
     bordercolor="#666666"
     pagecolor="#ffffff"
     id="base" />
  <metadata
     id="metadata4">
    <rdf:RDF
       id="RDF5">
      <cc:Work
         id="Work6"
         rdf:about="">
        <dc:format
           id="format7">image/svg+xml</dc:format>
        <dc:type
           rdf:resource="http://purl.org/dc/dcmitype/StillImage"
           id="type9" />
      </cc:Work>
    </rdf:RDF>
  </metadata>
  <g
     inkscape:groupmode="layer"
     inkscape:label="Layer 1"
     id="layer1">
    <path
       inkscape:export-ydpi="48.818890"
       inkscape:export-xdpi="48.818890"
       sodipodi:nodetypes="cccccc"
       id="path1105"
       d="M 43.509854,4.4174568 L 79.259949,4.0634956 L 79.155259,79.229903 L 14.838986,79.280279 L 14.662005,69.015401 L 43.509854,4.4174568 z "
       style="fill:#cbcbcb;fill-opacity:1.0000000;fill-rule:evenodd;stroke:none;stroke-width:0.25000000pt;stroke-linecap:butt;stroke-linejoin:miter;stroke-opacity:1.0000000" />
    <path
       sodipodi:nodetypes="ccccc"
       id="path1727"
       d="M 13.069180,1.7627466 L 76.605239,1.9397274 L 75.810947,75.870705 L 12.892199,76.448589 L 13.069180,1.7627466 z "
       style="fill:#ffffff;fill-opacity:1.0000000;fill-rule:evenodd;stroke:none;stroke-width:0.25000000pt;stroke-linecap:butt;stroke-linejoin:miter;stroke-opacity:1.0000000" />
    <path
       sodipodi:nodetypes="ccccc"
       style="fill:url(#linearGradient1101);fill-opacity:1.0000000"
       id="path146"
       d="M 74.496118,3.2256058 L 14.511198,3.2256058 L 14.421993,74.409307 L 73.174133,74.543439 L 74.496118,3.2256058 z " />
    <g
       transform="translate(9.240505,-21.11393)"
       id="g3090">
      <path
         sodipodi:nodetypes="ccccccccccccccccccccccccccccccccccccccccccccccccccccccccc"
         id="path3092"
         d="M 45.820644,38.546888 C 45.317437,38.588296 44.900616,38.931811 44.790243,39.396072 L 42.954842,46.432168 L 36.611436,46.432168 C 35.971253,46.432228 35.452298,46.921012 35.452234,47.523976 L 35.452234,50.435464 C 35.452298,51.038428 35.971253,51.527212 36.611436,51.527272 L 41.602440,51.527272 L 40.507639,55.651880 L 34.325233,55.651880 C 33.685051,55.651940 33.166096,56.140724 33.166032,56.743688 L 33.166032,59.655176 C 33.166096,60.258140 33.685051,60.746924 34.325233,60.746984 L 39.187438,60.746984 L 37.448636,67.237176 C 37.358848,67.564871 37.435464,67.913258 37.656066,68.180399 C 37.876668,68.447541 38.216319,68.603239 38.575637,68.601936 L 41.795641,68.601936 C 42.335384,68.600485 42.802658,68.248399 42.922642,67.752752 L 44.758043,60.746984 L 48.300047,60.746984 L 46.561245,67.237176 C 46.471457,67.564871 46.548073,67.913258 46.768675,68.180399 C 46.989277,68.447541 47.328927,68.603239 47.688246,68.601936 L 50.908249,68.601936 C 51.447993,68.600485 51.915267,68.248399 52.035250,67.752752 L 53.902852,60.746984 L 60.181858,60.746984 C 60.822041,60.746924 61.340996,60.258140 61.341060,59.655176 L 61.341060,56.743688 C 61.340996,56.140724 60.822041,55.651940 60.181858,55.651880 L 55.255254,55.651880 L 56.350055,51.527272 L 62.500261,51.527272 C 63.140443,51.527212 63.659398,51.038428 63.659462,50.435464 L 63.659462,47.523976 C 63.659398,46.921012 63.140443,46.432228 62.500261,46.432168 L 57.702456,46.432168 L 59.409058,39.911648 C 59.498846,39.583953 59.422230,39.235566 59.201628,38.968425 C 58.981026,38.701283 58.641375,38.545585 58.282057,38.546888 L 55.062053,38.546888 C 54.543779,38.558583 54.096748,38.892939 53.967252,39.365744 L 52.067451,46.432168 L 48.557647,46.432168 L 50.296449,39.911648 C 50.473200,39.121929 49.796214,38.533090 49.169448,38.546888 L 45.917245,38.546888 C 45.885059,38.545624 45.852831,38.545624 45.820644,38.546888 z M 50.006649,66.418320 L 49.169448,66.418320 L 50.006649,66.418320 z M 47.237446,51.527272 L 50.715049,51.527272 L 49.652448,55.651880 L 46.142645,55.651880 L 47.237446,51.527272 z "
         style="font-size:39.985561;font-style:normal;font-weight:normal;fill:#000000;fill-opacity:1.0000000;stroke:none;stroke-width:2.2500000;stroke-linecap:butt;stroke-linejoin:round;stroke-miterlimit:4.0000000;stroke-opacity:1.0000000;font-family:Bitstream Vera Sans" />
      <path
         sodipodi:nodetypes="csssszzs"
         id="path3094"
         d="M 48.861347,40.162962 C 48.972630,39.357799 45.884731,38.902499 45.528044,39.837761 C 45.010927,41.193682 43.915176,46.558024 43.251642,46.910868 C 42.644261,47.233852 37.938742,46.929217 36.828936,47.154768 C 35.928872,47.337692 35.952091,50.136804 36.747636,50.162872 C 39.724349,50.260411 38.128397,48.527905 41.089329,48.566493 C 43.969034,48.604023 45.653090,47.088938 45.934544,43.496264 C 46.210249,39.976985 48.511930,42.691102 48.861347,40.162962 z "
         style="fill:url(#linearGradient3110);fill-opacity:1.0000000;fill-rule:evenodd;stroke:none;stroke-width:0.25000000pt;stroke-linecap:butt;stroke-linejoin:miter;stroke-opacity:1.0000000" />
      <path
         sodipodi:nodetypes="czszsz"
         id="path3096"
         d="M 52.845051,46.666968 C 52.067135,46.765152 54.083530,40.082172 54.471053,39.512561 C 54.882450,38.907858 56.667648,38.927303 57.752110,39.006901 C 58.836573,39.086500 59.545501,39.388852 58.373456,39.919062 C 57.235255,40.433962 56.791492,39.678550 55.665147,41.235107 C 54.538803,42.791665 53.542877,46.578893 52.845051,46.666968 z "
         style="fill:url(#linearGradient3112);fill-opacity:1.0000000;fill-rule:evenodd;stroke:#000000;stroke-width:0.25000000pt;stroke-linecap:butt;stroke-linejoin:miter;stroke-opacity:1.0000000" />
      <path
         sodipodi:nodetypes="csssszzs"
         id="path3098"
         d="M 48.861347,40.162962 C 48.972630,39.357799 45.884731,38.902499 45.528044,39.837761 C 45.010927,41.193682 43.915176,46.558024 43.251642,46.910868 C 42.644261,47.233852 37.938742,46.929217 36.828936,47.154768 C 35.928872,47.337692 35.952091,50.136804 36.747636,50.162872 C 39.724349,50.260411 38.128397,48.527905 41.089329,48.566493 C 43.969034,48.604023 45.653090,47.088938 45.934544,43.496264 C 46.210249,39.976985 48.511930,42.691102 48.861347,40.162962 z "
         style="fill:url(#radialGradient3114);fill-opacity:1.0000000;fill-rule:evenodd;stroke:none;stroke-width:0.25000000pt;stroke-linecap:butt;stroke-linejoin:miter;stroke-opacity:1.0000000" />
      <path
         sodipodi:nodetypes="czszsz"
         id="path3100"
         d="M 40.191977,56.495888 C 40.305338,55.771922 34.728162,55.942462 34.243746,56.164925 C 33.729486,56.401092 33.670499,58.127438 33.690377,59.194139 C 33.710256,60.260840 33.928976,61.024587 34.413956,60.035278 C 34.884931,59.074535 34.282721,58.446210 35.609299,57.773337 C 36.935878,57.100466 40.090286,57.145319 40.191977,56.495888 z "
         style="fill:url(#linearGradient3116);fill-opacity:1.0000000;fill-rule:evenodd;stroke:#000000;stroke-width:0.22410080pt;stroke-linecap:butt;stroke-linejoin:miter;stroke-opacity:1.0000000" />
      <path
         sodipodi:nodetypes="cccccccccccccccccccccccccccccccccc"
         id="path3102"
         d="M 50.197148,52.556250 L 44.346581,52.556250 L 42.657758,59.271333 L 48.548534,59.271333 L 50.197148,52.556250 M 47.181392,41.116482 L 45.090468,49.460074 L 50.961139,49.460074 L 53.072168,41.116482 L 56.288975,41.116482 L 54.218156,49.460074 L 60.490928,49.460074 L 60.490928,52.556250 L 53.434059,52.556250 L 51.785446,59.271333 L 58.178848,59.271333 L 58.178848,62.687164 L 51.001349,62.687164 L 48.910425,71.010651 L 45.304539,70.925711 L 47.219726,62.857045 L 41.640213,62.857045 L 39.802842,70.670891 L 36.565931,70.670891 L 38.656855,62.347404 L 32.323767,62.347404 L 32.323767,59.271333 L 39.400741,59.271333 L 41.089565,52.556250 L 34.615742,52.556250 L 34.615742,49.460074 L 41.873661,49.460074 L 43.924375,41.116482 L 47.181392,41.116482"
         style="font-size:41.175121;font-style:normal;font-weight:normal;fill:url(#radialGradient3118);fill-opacity:1.0000000;stroke:none;stroke-width:0.23749997;stroke-linecap:butt;stroke-linejoin:miter;stroke-miterlimit:4.0000000;stroke-opacity:1.0000000;font-family:Bitstream Vera Sans"
         transform="scale(1.044773,0.957146)" />
      <path
         sodipodi:nodetypes="ccccc"
         id="path3104"
         d="M 42.194741,53.374226 C 42.194741,54.428850 42.143292,55.596316 42.120853,55.596316 C 42.098414,55.596316 42.113441,54.428850 42.113441,53.374226 C 42.113441,52.319601 42.124280,50.599638 42.146719,50.599638 C 42.169158,50.599638 42.194741,52.319601 42.194741,53.374226 z "
         style="fill:url(#linearGradient3120);fill-opacity:1.0000000;stroke:none;stroke-width:0.23749997;stroke-linecap:round;stroke-linejoin:round;stroke-miterlimit:4.0000000;stroke-dashoffset:0.0000000;stroke-opacity:1.0000000"
         transform="matrix(10.50783,2.819927,-0.183743,0.822782,-391.2711,-108.8029)" />
      <path
         sodipodi:nodetypes="ccccc"
         id="path3106"
         d="M 51.565134,54.017242 C 51.371354,54.884967 50.616223,55.700455 50.380438,55.637179 C 50.144653,55.573902 50.517067,54.655707 50.710847,53.787982 C 50.904627,52.920255 51.334553,51.535666 51.570338,51.598942 C 51.806123,51.662218 51.758914,53.149515 51.565134,54.017242 z "
         style="fill:url(#linearGradient3122);fill-opacity:1.0000000;stroke:none;stroke-width:0.23749997;stroke-linecap:round;stroke-linejoin:round;stroke-miterlimit:4.0000000;stroke-dashoffset:0.0000000;stroke-opacity:1.0000000" />
      <path
         sodipodi:nodetypes="ccccc"
         id="path3108"
         d="M 39.248999,64.810217 C 38.947821,66.035536 38.192903,67.133357 38.009062,67.020569 C 37.825222,66.907780 38.281739,65.626886 38.582916,64.401566 C 38.884095,63.176245 39.464081,61.232380 39.647920,61.345168 C 39.831761,61.457956 39.550177,63.584895 39.248999,64.810217 z "
         style="fill:url(#linearGradient3124);fill-opacity:1.0000000;stroke:none;stroke-width:0.23749997;stroke-linecap:round;stroke-linejoin:round;stroke-miterlimit:4.0000000;stroke-dashoffset:0.0000000;stroke-opacity:1.0000000" />
    </g>
    <path
       sodipodi:nodetypes="ccccc"
       style="fill:url(#radialGradient1100);fill-opacity:1.0000000"
       id="path195"
       d="M 74.649963,9.7427222 L 74.649963,3.0486252 L 14.476004,3.0486252 L 14.421993,41.818754 C 37.536049,49.764241 70.992767,29.711949 74.649963,9.7427222 z " />
    <path
       sodipodi:nodetypes="ccccccccccc"
       style="stroke-linejoin:round;stroke:url(#linearGradient2125);fill-opacity:1.0000000;fill:url(#linearGradient1102)"
       id="path225"
       d="M 76.089418,2.1560410 C 76.089418,3.0094395 76.012435,75.488879 76.012435,75.844677 C 75.777564,76.094348 13.894946,75.987792 13.093777,75.987792 C 13.093777,75.133531 13.093777,3.0111830 13.093777,2.1569117 C 13.896578,2.1560410 75.287431,2.1560410 76.089418,2.1560410 z M 76.498582,1.2861105 L 12.275436,1.2861105 L 12.275436,76.856856 L 76.758937,76.793118 L 76.907759,1.2861105 L 76.498582,1.2861105 z " />
    <g
       transform="translate(-32.15344,-24.01746)"
       inkscape:groupmode="layer"
       inkscape:label="Layer 1"
       id="g1355">
      <g
         transform="matrix(0.109585,0.000000,0.000000,0.114360,30.03834,21.44920)"
         id="g9372">
        <path
           id="rect1266"
           d="M 142.81029,27.138041 C 136.85424,27.138041 132.06029,32.533741 132.06029,39.231791 L 132.06029,128.16929 L 34.935285,128.16929 C 28.979239,128.16929 24.185285,133.53373 24.185285,140.23179 L 24.185285,223.04429 C 24.185285,229.74234 28.979240,235.13804 34.935285,235.13804 L 132.06029,235.13804 L 132.06029,329.20054 C 132.06029,335.89859 136.85424,341.29428 142.81029,341.29429 L 221.27904,341.29429 C 227.23509,341.29429 232.02904,335.89859 232.02904,329.20054 L 232.02904,235.13804 L 327.49779,235.13804 C 333.45384,235.13804 338.24777,229.74234 338.24779,223.04429 L 338.24779,140.23179 C 338.24779,133.53374 333.45384,128.16929 327.49779,128.16929 L 232.02904,128.16929 L 232.02904,39.231791 C 232.02904,32.533739 227.23509,27.138041 221.27904,27.138041 L 142.81029,27.138041 z "
           style="fill:url(#linearGradient2518);fill-opacity:1.0000000;stroke:url(#radialGradient9371);stroke-width:9.5625000;stroke-linecap:butt;stroke-linejoin:round;stroke-miterlimit:4.0000000;stroke-dashoffset:0.0000000;stroke-opacity:1.0000000" />
        <path
           sodipodi:nodetypes="ccccccccccccccccccccc"
           id="path2519"
           d="M 142.81028,27.138041 C 136.85423,27.138041 132.06028,32.533741 132.06028,39.231791 L 132.06028,128.16929 L 34.935285,128.16929 C 28.979239,128.16929 24.185285,133.53373 24.185285,140.23179 L 24.185285,223.04429 C 24.185285,229.74234 28.979240,235.13804 34.935285,235.13804 L 136.13160,235.13804 L 136.13160,326.75775 C 136.13160,333.45580 140.92555,338.85149 146.88160,338.85150 L 218.83624,339.66576 C 224.79229,339.66576 229.58624,334.27006 229.58624,327.57201 L 231.21477,234.32378 L 327.49778,235.13804 C 333.45383,235.13804 338.24776,229.74234 338.24778,223.04429 L 338.24778,140.23179 C 338.24778,133.53374 333.45383,128.16929 327.49778,128.16929 L 232.02903,128.16929 L 232.02903,39.231791 C 232.02903,32.533739 227.23508,27.138041 221.27903,27.138041 L 142.81028,27.138041 z "
           style="fill:url(#radialGradient3143);fill-opacity:1.0000000;stroke:none;stroke-width:12.937500;stroke-linecap:butt;stroke-linejoin:round;stroke-miterlimit:4.0000000;stroke-dashoffset:0.0000000;stroke-opacity:1.0000000" />
        <path
           sodipodi:nodetypes="cccccccccc"
           id="path3765"
           d="M 231.94349,127.15556 C 231.63142,98.548663 231.31935,69.941780 231.00728,41.334896 C 232.94788,36.828352 226.74583,29.879013 222.17231,30.258057 C 195.58974,30.529478 171.44996,30.800900 144.86739,31.072321 C 138.06511,30.421856 133.70562,36.285508 134.23172,41.334896 C 134.50314,70.862454 133.96031,100.39002 134.23173,129.91758 C 102.07246,129.91758 70.727455,129.91758 38.568185,129.91758 C 30.828485,130.93751 26.345843,140.91434 27.563054,147.63412 C 27.834476,171.25617 28.105897,172.89306 28.377319,196.51511 C 30.277271,232.02232 235.74339,170.63203 231.94349,127.15556 z "
           style="fill:url(#linearGradient4390);fill-opacity:1.0000000;fill-rule:evenodd;stroke:none;stroke-width:0.25000000pt;stroke-linecap:butt;stroke-linejoin:miter;stroke-opacity:1.0000000" />
      </g>
    </g>
    <g
       transform="translate(-15.67089,3.189873)"
       id="g2991">
      <path
         sodipodi:nodetypes="ccccccccccccccccccccccccccccccccccccccccccccccccccccccccc"
         id="text2153"
         d="M 45.820644,38.546888 C 45.317437,38.588296 44.900616,38.931811 44.790243,39.396072 L 42.954842,46.432168 L 36.611436,46.432168 C 35.971253,46.432228 35.452298,46.921012 35.452234,47.523976 L 35.452234,50.435464 C 35.452298,51.038428 35.971253,51.527212 36.611436,51.527272 L 41.602440,51.527272 L 40.507639,55.651880 L 34.325233,55.651880 C 33.685051,55.651940 33.166096,56.140724 33.166032,56.743688 L 33.166032,59.655176 C 33.166096,60.258140 33.685051,60.746924 34.325233,60.746984 L 39.187438,60.746984 L 37.448636,67.237176 C 37.358848,67.564871 37.435464,67.913258 37.656066,68.180399 C 37.876668,68.447541 38.216319,68.603239 38.575637,68.601936 L 41.795641,68.601936 C 42.335384,68.600485 42.802658,68.248399 42.922642,67.752752 L 44.758043,60.746984 L 48.300047,60.746984 L 46.561245,67.237176 C 46.471457,67.564871 46.548073,67.913258 46.768675,68.180399 C 46.989277,68.447541 47.328927,68.603239 47.688246,68.601936 L 50.908249,68.601936 C 51.447993,68.600485 51.915267,68.248399 52.035250,67.752752 L 53.902852,60.746984 L 60.181858,60.746984 C 60.822041,60.746924 61.340996,60.258140 61.341060,59.655176 L 61.341060,56.743688 C 61.340996,56.140724 60.822041,55.651940 60.181858,55.651880 L 55.255254,55.651880 L 56.350055,51.527272 L 62.500261,51.527272 C 63.140443,51.527212 63.659398,51.038428 63.659462,50.435464 L 63.659462,47.523976 C 63.659398,46.921012 63.140443,46.432228 62.500261,46.432168 L 57.702456,46.432168 L 59.409058,39.911648 C 59.498846,39.583953 59.422230,39.235566 59.201628,38.968425 C 58.981026,38.701283 58.641375,38.545585 58.282057,38.546888 L 55.062053,38.546888 C 54.543779,38.558583 54.096748,38.892939 53.967252,39.365744 L 52.067451,46.432168 L 48.557647,46.432168 L 50.296449,39.911648 C 50.473200,39.121929 49.796214,38.533090 49.169448,38.546888 L 45.917245,38.546888 C 45.885059,38.545624 45.852831,38.545624 45.820644,38.546888 z M 50.006649,66.418320 L 49.169448,66.418320 L 50.006649,66.418320 z M 47.237446,51.527272 L 50.715049,51.527272 L 49.652448,55.651880 L 46.142645,55.651880 L 47.237446,51.527272 z "
         style="font-size:39.985561;font-style:normal;font-weight:normal;fill:#000000;fill-opacity:1.0000000;stroke:none;stroke-width:2.2500000;stroke-linecap:butt;stroke-linejoin:round;stroke-miterlimit:4.0000000;stroke-opacity:1.0000000;font-family:Bitstream Vera Sans" />
      <path
         sodipodi:nodetypes="csssszzs"
         id="path2919"
         d="M 48.861347,40.162962 C 48.972630,39.357799 45.884731,38.902499 45.528044,39.837761 C 45.010927,41.193682 43.915176,46.558024 43.251642,46.910868 C 42.644261,47.233852 37.938742,46.929217 36.828936,47.154768 C 35.928872,47.337692 35.952091,50.136804 36.747636,50.162872 C 39.724349,50.260411 38.128397,48.527905 41.089329,48.566493 C 43.969034,48.604023 45.653090,47.088938 45.934544,43.496264 C 46.210249,39.976985 48.511930,42.691102 48.861347,40.162962 z "
         style="fill:url(#linearGradient3126);fill-opacity:1.0000000;fill-rule:evenodd;stroke:none;stroke-width:0.25000000pt;stroke-linecap:butt;stroke-linejoin:miter;stroke-opacity:1.0000000" />
      <path
         sodipodi:nodetypes="czszsz"
         id="path2935"
         d="M 52.845051,46.666968 C 52.067135,46.765152 54.083530,40.082172 54.471053,39.512561 C 54.882450,38.907858 56.667648,38.927303 57.752110,39.006901 C 58.836573,39.086500 59.545501,39.388852 58.373456,39.919062 C 57.235255,40.433962 56.791492,39.678550 55.665147,41.235107 C 54.538803,42.791665 53.542877,46.578893 52.845051,46.666968 z "
         style="fill:url(#linearGradient3128);fill-opacity:1.0000000;fill-rule:evenodd;stroke:#000000;stroke-width:0.25000000pt;stroke-linecap:butt;stroke-linejoin:miter;stroke-opacity:1.0000000" />
      <path
         sodipodi:nodetypes="csssszzs"
         id="path2947"
         d="M 48.861347,40.162962 C 48.972630,39.357799 45.884731,38.902499 45.528044,39.837761 C 45.010927,41.193682 43.915176,46.558024 43.251642,46.910868 C 42.644261,47.233852 37.938742,46.929217 36.828936,47.154768 C 35.928872,47.337692 35.952091,50.136804 36.747636,50.162872 C 39.724349,50.260411 38.128397,48.527905 41.089329,48.566493 C 43.969034,48.604023 45.653090,47.088938 45.934544,43.496264 C 46.210249,39.976985 48.511930,42.691102 48.861347,40.162962 z "
         style="fill:url(#radialGradient3130);fill-opacity:1.0000000;fill-rule:evenodd;stroke:none;stroke-width:0.25000000pt;stroke-linecap:butt;stroke-linejoin:miter;stroke-opacity:1.0000000" />
      <path
         sodipodi:nodetypes="czszsz"
         id="path2951"
         d="M 40.191977,56.495888 C 40.305338,55.771922 34.728162,55.942462 34.243746,56.164925 C 33.729486,56.401092 33.670499,58.127438 33.690377,59.194139 C 33.710256,60.260840 33.928976,61.024587 34.413956,60.035278 C 34.884931,59.074535 34.282721,58.446210 35.609299,57.773337 C 36.935878,57.100466 40.090286,57.145319 40.191977,56.495888 z "
         style="fill:url(#linearGradient3132);fill-opacity:1.0000000;fill-rule:evenodd;stroke:#000000;stroke-width:0.22410080pt;stroke-linecap:butt;stroke-linejoin:miter;stroke-opacity:1.0000000" />
      <path
         sodipodi:nodetypes="cccccccccccccccccccccccccccccccccc"
         id="text2955"
         d="M 50.197148,52.556250 L 44.346581,52.556250 L 42.657758,59.271333 L 48.548534,59.271333 L 50.197148,52.556250 M 47.181392,41.116482 L 45.090468,49.460074 L 50.961139,49.460074 L 53.072168,41.116482 L 56.288975,41.116482 L 54.218156,49.460074 L 60.490928,49.460074 L 60.490928,52.556250 L 53.434059,52.556250 L 51.785446,59.271333 L 58.178848,59.271333 L 58.178848,62.687164 L 51.001349,62.687164 L 48.910425,71.010651 L 45.304539,70.925711 L 47.219726,62.857045 L 41.640213,62.857045 L 39.802842,70.670891 L 36.565931,70.670891 L 38.656855,62.347404 L 32.323767,62.347404 L 32.323767,59.271333 L 39.400741,59.271333 L 41.089565,52.556250 L 34.615742,52.556250 L 34.615742,49.460074 L 41.873661,49.460074 L 43.924375,41.116482 L 47.181392,41.116482"
         style="font-size:41.175121;font-style:normal;font-weight:normal;fill:url(#radialGradient3134);fill-opacity:1.0000000;stroke:none;stroke-width:0.23749997;stroke-linecap:butt;stroke-linejoin:miter;stroke-miterlimit:4.0000000;stroke-opacity:1.0000000;font-family:Bitstream Vera Sans"
         transform="scale(1.044773,0.957146)" />
      <path
         sodipodi:nodetypes="ccccc"
         id="path2970"
         d="M 42.194741,53.374226 C 42.194741,54.428850 42.143292,55.596316 42.120853,55.596316 C 42.098414,55.596316 42.113441,54.428850 42.113441,53.374226 C 42.113441,52.319601 42.124280,50.599638 42.146719,50.599638 C 42.169158,50.599638 42.194741,52.319601 42.194741,53.374226 z "
         style="fill:url(#linearGradient3136);fill-opacity:1.0000000;stroke:none;stroke-width:0.23749997;stroke-linecap:round;stroke-linejoin:round;stroke-miterlimit:4.0000000;stroke-dashoffset:0.0000000;stroke-opacity:1.0000000"
         transform="matrix(10.50783,2.819927,-0.183743,0.822782,-391.2711,-108.8029)" />
      <path
         sodipodi:nodetypes="ccccc"
         id="path2981"
         d="M 51.565134,54.017242 C 51.371354,54.884967 50.616223,55.700455 50.380438,55.637179 C 50.144653,55.573902 50.517067,54.655707 50.710847,53.787982 C 50.904627,52.920255 51.334553,51.535666 51.570338,51.598942 C 51.806123,51.662218 51.758914,53.149515 51.565134,54.017242 z "
         style="fill:url(#linearGradient3138);fill-opacity:1.0000000;stroke:none;stroke-width:0.23749997;stroke-linecap:round;stroke-linejoin:round;stroke-miterlimit:4.0000000;stroke-dashoffset:0.0000000;stroke-opacity:1.0000000" />
      <path
         sodipodi:nodetypes="ccccc"
         id="path2987"
         d="M 39.248999,64.810217 C 38.947821,66.035536 38.192903,67.133357 38.009062,67.020569 C 37.825222,66.907780 38.281739,65.626886 38.582916,64.401566 C 38.884095,63.176245 39.464081,61.232380 39.647920,61.345168 C 39.831761,61.457956 39.550177,63.584895 39.248999,64.810217 z "
         style="fill:url(#linearGradient3140);fill-opacity:1.0000000;stroke:none;stroke-width:0.23749997;stroke-linecap:round;stroke-linejoin:round;stroke-miterlimit:4.0000000;stroke-dashoffset:0.0000000;stroke-opacity:1.0000000" />
    </g>
  </g>
</svg>
