<?xml version="1.0" encoding="UTF-8" standalone="no"?>
<!-- Created with Inkscape (http://www.inkscape.org/) -->
<svg
   xmlns:dc="http://purl.org/dc/elements/1.1/"
   xmlns:cc="http://web.resource.org/cc/"
   xmlns:rdf="http://www.w3.org/1999/02/22-rdf-syntax-ns#"
   xmlns:svg="http://www.w3.org/2000/svg"
   xmlns="http://www.w3.org/2000/svg"
   xmlns:xlink="http://www.w3.org/1999/xlink"
   xmlns:sodipodi="http://inkscape.sourceforge.net/DTD/sodipodi-0.dtd"
   xmlns:inkscape="http://www.inkscape.org/namespaces/inkscape"
   inkscape:export-ydpi="45.000000"
   inkscape:export-xdpi="45.000000"
   inkscape:export-filename="/home/pinheiro/artwork/oooicons/crystalsvg/insertframeinteractnocolumns.png"
   sodipodi:docname="insertframeinteractnocolumns.svg"
   sodipodi:docbase="/home/pinheiro/artwork/oooicons/crystalsvg"
   inkscape:version="0.41"
   sodipodi:version="0.32"
   id="svg4990"
   height="64px"
   width="64px">
  <defs
     id="defs3">
    <linearGradient
       id="light75to0">
      <stop
         id="stop2769"
         offset="0.0000000"
         style="stop-color:#ffffff;stop-opacity:0.72916669;" />
      <stop
         id="stop2770"
         offset="1.0000000"
         style="stop-color:#ffffff;stop-opacity:0.0000000;" />
    </linearGradient>
    <radialGradient
       gradientUnits="userSpaceOnUse"
       r="51.842793"
       fy="56.328636"
       fx="49.726635"
       cy="56.328636"
       cx="49.726635"
       gradientTransform="matrix(1.112731,0.000000,0.000000,0.859901,0.471242,4.504800)"
       id="radialGradient3445"
       xlink:href="#light75to0"
       inkscape:collect="always" />
    <linearGradient
       gradientUnits="userSpaceOnUse"
       y2="24.825682"
       x2="8.1107874"
       y1="23.197763"
       x1="-1.3007911"
       gradientTransform="matrix(1.279380,0.000000,0.000000,0.747893,0.471242,0.504805)"
       id="linearGradient4226"
       xlink:href="#light100to25to0"
       inkscape:collect="always" />
    <linearGradient
       id="light100to25to0">
      <stop
         id="stop2785"
         offset="0.0000000"
         style="stop-color:#ffffff;stop-opacity:1.0000000;" />
      <stop
         id="stop2786"
         offset="0.50000000"
         style="stop-color:#ffffff;stop-opacity:0.28749999;" />
      <stop
         id="stop2787"
         offset="1.0000000"
         style="stop-color:#ffffff;stop-opacity:0.0000000;" />
    </linearGradient>
    <linearGradient
       y2="20.866413"
       x2="24.547112"
       y1="-0.16501212"
       x1="21.470997"
       gradientTransform="matrix(1.279380,0.000000,0.000000,0.747893,0.471242,0.504805)"
       gradientUnits="userSpaceOnUse"
       id="linearGradient4988"
       xlink:href="#light100to25to0"
       inkscape:collect="always" />
    <linearGradient
       gradientUnits="userSpaceOnUse"
       y2="45.521145"
       x2="46.758709"
       y1="20.529682"
       x1="9.1538334"
       gradientTransform="scale(1.147807,0.871227)"
       id="linearGradient2863"
       xlink:href="#light100to25to0"
       inkscape:collect="always" />
    <linearGradient
       gradientUnits="userSpaceOnUse"
       y2="114.70775"
       x2="131.55539"
       y1="19.423933"
       x1="9.6874237"
       gradientTransform="scale(1.147807,0.871227)"
       id="linearGradient2871"
       xlink:href="#light100to25to0"
       inkscape:collect="always" />
  </defs>
  <sodipodi:namedview
     inkscape:window-y="281"
     inkscape:window-x="451"
     inkscape:window-height="536"
     inkscape:window-width="640"
     inkscape:grid-bbox="true"
     inkscape:document-units="px"
     showgrid="false"
     inkscape:current-layer="layer1"
     inkscape:cy="32.482654"
     inkscape:cx="32.000000"
     inkscape:zoom="5.6562500"
     inkscape:pageshadow="2"
     inkscape:pageopacity="0.0"
     borderopacity="1.0"
     bordercolor="#666666"
     pagecolor="#ffffff"
     id="base" />
  <metadata
     id="metadata4">
    <rdf:RDF
       id="RDF5">
      <cc:Work
         id="Work6"
         rdf:about="">
        <dc:format
           id="format7">image/svg+xml</dc:format>
        <dc:type
           rdf:resource="http://purl.org/dc/dcmitype/StillImage"
           id="type9" />
      </cc:Work>
    </rdf:RDF>
  </metadata>
  <g
     inkscape:groupmode="layer"
     inkscape:label="Layer 1"
     id="layer1">
    <path
       sodipodi:nodetypes="ccccccccc"
       id="rect1907"
       d="M 10.025729,6.9146450 L 54.151743,6.9146450 C 57.972366,6.9146450 61.048174,10.055046 61.048174,13.955903 L 61.048174,47.222501 C 61.048174,51.123358 57.972366,54.263759 54.151743,54.263759 L 10.025729,54.263759 C 6.2051055,54.263759 3.1292967,51.123358 3.1292967,47.222501 L 3.1292967,13.955903 C 3.1292967,10.055046 6.2051055,6.9146450 10.025729,6.9146450 z "
       style="fill:none;fill-opacity:1.0000000;fill-rule:nonzero;stroke:#000000;stroke-width:5.1930370;stroke-linecap:round;stroke-linejoin:round;stroke-miterlimit:4.0000000;stroke-dashoffset:0.0000000;stroke-opacity:1.0000000" />
    <path
       sodipodi:nodetypes="ccccccccccccccccccccccccccc"
       id="rect2675"
       d="M 9.9514768,4.3477350 C 4.7322297,4.3477350 0.50212513,8.5960770 0.50212513,13.728104 L 0.50212513,47.442693 C 0.50212513,52.574720 4.7322292,56.823064 9.9514768,56.823063 L 54.202854,56.823063 C 59.422101,56.823063 63.683086,52.574719 63.683086,47.442693 L 63.683086,13.728104 C 63.683086,8.5960770 59.422101,4.3477350 54.202854,4.3477350 L 9.9514768,4.3477350 z M 9.9514768,9.4918080 L 54.202854,9.4918080 C 56.555337,9.4918080 58.433446,11.305762 58.433446,13.728104 L 58.433446,45.442693 C 58.610242,49.456195 57.085725,51.678989 54.202854,51.678989 L 9.9514768,51.678989 C 7.5989925,51.678990 5.7517650,49.865035 5.7517650,47.442693 L 5.7517650,13.728104 C 5.7517650,11.305762 7.5989924,9.4918080 9.9514768,9.4918080 z M 13.464609,13.882289 C 11.709902,13.882289 10.191304,15.258813 10.191304,16.998993 L 10.191304,44.202064 C 10.191304,45.942243 11.709901,47.288511 13.464609,47.288508 L 50.720603,47.288508 C 52.475310,47.288508 53.993908,45.942243 53.993908,44.202064 L 53.993908,16.998993 C 53.993908,15.258814 52.475309,13.882289 50.720603,13.882289 L 13.464609,13.882289 z "
       style="fill:url(#radialGradient3445);fill-opacity:1.0000000;fill-rule:nonzero;stroke:#000000;stroke-width:0.69450879;stroke-linecap:round;stroke-linejoin:round;stroke-miterlimit:4.0000000;stroke-dashoffset:0.0000000;stroke-opacity:1.0000000" />
    <path
       sodipodi:nodetypes="csscssc"
       id="path3452"
       d="M 52.158813,5.1313246 C 52.302476,8.1750850 24.787016,7.8244310 9.7899169,7.6538410 C 6.4938617,7.6163480 3.7188055,11.888194 3.6842452,13.956327 C 3.3161186,35.985609 2.4100462,42.623474 1.0866654,43.117450 C 0.75727591,35.828279 1.4568123,20.626109 1.3409875,13.336160 C 1.2775574,9.3439040 6.4653118,5.0384486 9.4948256,5.1313246 C 24.481412,5.5907646 37.647570,5.3342416 52.158813,5.1313246 z "
       style="fill:url(#linearGradient4226);fill-opacity:1.0000000;fill-rule:evenodd;stroke:none;stroke-width:1.0000000px;stroke-linecap:butt;stroke-linejoin:miter;stroke-opacity:1.0000000" />
    <path
       sodipodi:nodetypes="csscssc"
       id="path4228"
       d="M 52.158813,5.1313246 C 52.302476,8.1750850 24.787016,7.8244310 9.7899169,7.6538410 C 6.4938617,7.6163480 3.7188055,11.888194 3.6842452,13.956327 C 3.3161186,35.985609 2.4100462,42.623474 1.0866654,43.117450 C 0.75727591,35.828279 1.4568123,20.626109 1.3409875,13.336160 C 1.2775574,9.3439040 6.4639293,5.1455061 9.4948256,5.1313246 C 24.657720,5.0603779 36.942340,4.8038549 52.158813,5.1313246 z "
       style="fill:url(#linearGradient4988);fill-opacity:1.0000000;fill-rule:evenodd;stroke:none;stroke-width:1.0000000px;stroke-linecap:butt;stroke-linejoin:miter;stroke-opacity:1.0000000" />
    <rect
       ry="3.8540766"
       rx="3.6463425"
       y="13.790055"
       x="10.077348"
       height="33.414364"
       width="44.022099"
       id="rect2095"
       style="stroke-opacity:1.0000000;stroke-dashoffset:0.0000000;stroke-miterlimit:4.0000000;stroke-linejoin:round;stroke-linecap:round;stroke-width:0.0000000;stroke:none;fill-rule:nonzero;fill-opacity:1.0000000;fill:#303030" />
    <rect
       ry="3.8540766"
       rx="3.6463425"
       y="13.259668"
       x="9.7237568"
       height="34.828732"
       width="45.082874"
       id="rect2855"
       style="fill:url(#linearGradient2871);fill-opacity:1.0000000;fill-rule:nonzero;stroke:url(#linearGradient2863);stroke-width:0.0000000;stroke-linecap:round;stroke-linejoin:round;stroke-miterlimit:4.0000000;stroke-dashoffset:0.0000000;stroke-opacity:1.0000000" />
  </g>
</svg>
