<?xml version="1.0" encoding="UTF-8" standalone="no"?>
<!-- Created with Inkscape (http://www.inkscape.org/) -->
<svg
   xmlns:dc="http://purl.org/dc/elements/1.1/"
   xmlns:cc="http://web.resource.org/cc/"
   xmlns:rdf="http://www.w3.org/1999/02/22-rdf-syntax-ns#"
   xmlns:svg="http://www.w3.org/2000/svg"
   xmlns="http://www.w3.org/2000/svg"
   xmlns:xlink="http://www.w3.org/1999/xlink"
   xmlns:sodipodi="http://inkscape.sourceforge.net/DTD/sodipodi-0.dtd"
   xmlns:inkscape="http://www.inkscape.org/namespaces/inkscape"
   width="64px"
   height="64px"
   id="svg6252"
   sodipodi:version="0.32"
   inkscape:version="0.41"
   sodipodi:docbase="/home/nuno/kdeplayground-artwork/oooicons/crystalsvg"
   sodipodi:docname="insertvideo.svg"
   inkscape:export-filename="/home/nuno/kdeplayground-artwork/oooicons/crystalsvg/insertvideo.png"
   inkscape:export-xdpi="45.000000"
   inkscape:export-ydpi="45.000000">
  <defs
     id="defs3">
    <radialGradient
       xlink:href="#linearGradient568"
       id="radialGradient586"
       cx="454.27608"
       cy="575.95220"
       r="75.078775"
       fx="454.27608"
       fy="575.95220"
       gradientTransform="matrix(1.138736,0.000000,0.000000,0.878166,0.000000,-2.000000)"
       gradientUnits="userSpaceOnUse" />
    <radialGradient
       xlink:href="#linearGradient568"
       id="radialGradient572"
       cx="1049.2937"
       cy="232.83788"
       r="208.48408"
       fx="1049.2937"
       fy="232.83788"
       gradientTransform="matrix(0.695457,4.051939e-15,-8.786844e-15,1.437904,-2.217574e-4,2.087628e-4)"
       gradientUnits="userSpaceOnUse" />
    <linearGradient
       id="linearGradient568">
      <stop
         style="stop-color:#ffffff;stop-opacity:1.0000;"
         offset="0"
         id="stop569" />
      <stop
         style="stop-color:#ffffff;stop-opacity:0;"
         offset="1.000000"
         id="stop570" />
    </linearGradient>
    <linearGradient
       xlink:href="#linearGradient568"
       id="linearGradient571"
       x1="309.12484"
       y1="411.39888"
       x2="585.66169"
       y2="664.77426"
       gradientTransform="scale(1.138736,0.878166)"
       gradientUnits="userSpaceOnUse" />
    <radialGradient
       inkscape:collect="always"
       xlink:href="#linearGradient568"
       id="radialGradient6294"
       gradientUnits="userSpaceOnUse"
       gradientTransform="matrix(1.138736,0.000000,0.000000,0.878166,-321.0774,-505.8273)"
       cx="454.27608"
       cy="575.95220"
       fx="454.27608"
       fy="575.95220"
       r="75.078775" />
    <radialGradient
       inkscape:collect="always"
       xlink:href="#linearGradient568"
       id="radialGradient6298"
       gradientUnits="userSpaceOnUse"
       gradientTransform="matrix(0.695457,4.061911e-15,-8.801460e-15,1.437904,-581.7952,-135.8206)"
       cx="1049.2937"
       cy="232.83788"
       fx="1049.2937"
       fy="232.83788"
       r="208.48408" />
    <linearGradient
       inkscape:collect="always"
       xlink:href="#linearGradient568"
       id="linearGradient6301"
       gradientUnits="userSpaceOnUse"
       gradientTransform="matrix(1.138736,0.000000,0.000000,0.878166,-321.0774,-503.8273)"
       x1="309.12484"
       y1="411.39888"
       x2="585.66169"
       y2="664.77426" />
    <linearGradient
       inkscape:collect="always"
       xlink:href="#linearGradient568"
       id="linearGradient6321"
       gradientUnits="userSpaceOnUse"
       gradientTransform="matrix(0.183564,0.000000,0.000000,0.143237,-24.80874,-59.37213)"
       x1="309.12484"
       y1="411.39888"
       x2="585.66169"
       y2="664.77426" />
    <radialGradient
       inkscape:collect="always"
       xlink:href="#linearGradient568"
       id="radialGradient6323"
       gradientUnits="userSpaceOnUse"
       gradientTransform="matrix(8.016476e-2,7.929714e-2,-0.162034,0.167709,-24.80874,-59.37214)"
       cx="1049.2937"
       cy="232.83788"
       fx="1049.2937"
       fy="232.83788"
       r="208.48408" />
    <radialGradient
       inkscape:collect="always"
       xlink:href="#linearGradient568"
       id="radialGradient6325"
       gradientUnits="userSpaceOnUse"
       gradientTransform="matrix(0.183564,0.000000,0.000000,0.143237,-24.80874,-59.69834)"
       cx="454.27608"
       cy="575.95220"
       fx="454.27608"
       fy="575.95220"
       r="75.078775" />
    <linearGradient
       y2="664.77426"
       x2="585.66169"
       y1="411.39888"
       x1="309.12484"
       gradientTransform="matrix(0.183564,3.553014e-17,-4.030252e-17,0.143237,-24.80874,-59.37213)"
       gradientUnits="userSpaceOnUse"
       id="linearGradient1326"
       xlink:href="#linearGradient568"
       inkscape:collect="always" />
    <radialGradient
       r="208.48408"
       fy="232.83788"
       fx="1049.2937"
       cy="232.83788"
       cx="1049.2937"
       gradientTransform="matrix(8.016476e-2,7.929714e-2,-0.162034,0.167709,-24.80874,-59.37214)"
       gradientUnits="userSpaceOnUse"
       id="radialGradient1328"
       xlink:href="#linearGradient568"
       inkscape:collect="always" />
    <radialGradient
       r="75.078775"
       fy="575.95220"
       fx="454.27608"
       cy="575.95220"
       cx="454.27608"
       gradientTransform="matrix(0.183564,3.553014e-17,-4.030252e-17,0.143237,-24.80874,-59.69834)"
       gradientUnits="userSpaceOnUse"
       id="radialGradient1330"
       xlink:href="#linearGradient568"
       inkscape:collect="always" />
  </defs>
  <sodipodi:namedview
     id="base"
     pagecolor="#ffffff"
     bordercolor="#666666"
     borderopacity="1.0"
     inkscape:pageopacity="0.0"
     inkscape:pageshadow="2"
     inkscape:zoom="5.9218750"
     inkscape:cx="32.000000"
     inkscape:cy="32.000000"
     inkscape:current-layer="layer1"
     showgrid="false"
     inkscape:document-units="px"
     inkscape:grid-bbox="true"
     inkscape:window-width="1280"
     inkscape:window-height="907"
     inkscape:window-x="0"
     inkscape:window-y="25" />
  <metadata
     id="metadata4">
    <rdf:RDF
       id="RDF5">
      <cc:Work
         rdf:about=""
         id="Work6">
        <dc:format
           id="format7">image/svg+xml</dc:format>
        <dc:type
           id="type9"
           rdf:resource="http://purl.org/dc/dcmitype/StillImage" />
      </cc:Work>
    </rdf:RDF>
  </metadata>
  <g
     id="layer1"
     inkscape:label="Layer 1"
     inkscape:groupmode="layer">
    <g
       transform="matrix(1.070876,4.439296e-2,1.839079e-2,1.062597,-2.410740,-3.318331)"
       id="g1313">
      <path
         style="font-size:12.000000;fill:none;fill-rule:evenodd;stroke:#000000;stroke-width:4.6618514;stroke-opacity:0.042699996"
         d="M 45.122074,3.4088007 L 59.524844,17.655737 C 61.188728,19.301615 61.218730,21.982024 59.592110,23.665608 L 24.211291,60.285545 C 22.584668,61.969137 19.935628,61.999495 18.271750,60.353611 L 3.8689704,46.106681 C 2.2050844,44.460796 2.1750930,41.780387 3.8017074,40.096803 L 39.182534,3.4768654 C 40.809149,1.7932734 43.458188,1.7629161 45.122074,3.4088007 z "
         id="rect583" />
      <path
         style="font-size:12.000000;fill:none;fill-rule:evenodd;stroke:#000000;stroke-width:2.6349599;stroke-opacity:0.042699996"
         d="M 45.122074,3.4088007 L 59.524844,17.655737 C 61.188728,19.301615 61.218730,21.982024 59.592110,23.665608 L 24.211291,60.285545 C 22.584668,61.969137 19.935628,61.999495 18.271750,60.353611 L 3.8689704,46.106681 C 2.2050844,44.460796 2.1750930,41.780387 3.8017074,40.096803 L 39.182534,3.4768654 C 40.809149,1.7932734 43.458188,1.7629161 45.122074,3.4088007 z "
         id="rect582" />
      <path
         style="font-size:12.000000;fill:none;fill-rule:evenodd;stroke:#000000;stroke-width:3.0403385;stroke-opacity:0.042699996"
         d="M 45.122074,3.4088007 L 59.524844,17.655737 C 61.188728,19.301615 61.218730,21.982024 59.592110,23.665608 L 24.211291,60.285545 C 22.584668,61.969137 19.935628,61.999495 18.271750,60.353611 L 3.8689704,46.106681 C 2.2050844,44.460796 2.1750930,41.780387 3.8017074,40.096803 L 39.182534,3.4768654 C 40.809149,1.7932734 43.458188,1.7629161 45.122074,3.4088007 z "
         id="rect581" />
      <path
         style="font-size:12.000000;fill:#15150f;fill-opacity:1.0000000;fill-rule:evenodd"
         d="M 45.122074,3.4088007 L 59.524844,17.655737 C 61.188728,19.301615 61.218730,21.982024 59.592110,23.665608 L 24.211291,60.285545 C 22.584668,61.969137 19.935628,61.999495 18.271750,60.353611 L 3.8689704,46.106681 C 2.2050844,44.460796 2.1750930,41.780387 3.8017074,40.096803 L 39.182534,3.4768654 C 40.809149,1.7932734 43.458188,1.7629161 45.122074,3.4088007 z "
         id="rect562" />
      <path
         style="font-size:12.000000;fill:#e6e6e6;fill-rule:evenodd"
         d="M 43.245666,9.3154188 L 54.123220,19.960729 C 55.257171,21.070475 55.277401,22.877962 54.168581,24.013396 L 48.164080,30.162047 C 47.055260,31.297482 45.249709,31.318171 44.115755,30.208433 L 33.238206,19.563123 C 32.104251,18.453385 32.084025,16.645891 33.192851,15.510455 L 39.197350,9.3618045 C 40.306169,8.2263699 42.111719,8.2056808 43.245666,9.3154188 z "
         id="rect563" />
      <path
         style="font-size:12.000000;fill:#e6e6e6;fill-rule:evenodd"
         d="M 31.739963,21.353607 L 42.617520,31.998918 C 43.751468,33.108656 43.771695,34.916150 42.662875,36.051593 L 36.658376,42.200235 C 35.549556,43.335679 33.744008,43.356360 32.610052,42.246622 L 21.732503,31.601311 C 20.598547,30.491565 20.578320,28.684078 21.687149,27.548643 L 27.691645,21.400001 C 28.800466,20.264558 30.606016,20.243869 31.739963,21.353607 z "
         id="rect564" />
      <path
         style="font-size:12.000000;fill:#e6e6e6;fill-rule:evenodd"
         d="M 20.231393,33.138387 L 31.108942,43.783705 C 32.242890,44.893442 32.263125,46.700930 31.154305,47.836373 L 25.149798,53.985015 C 24.040978,55.120457 22.235429,55.141139 21.101475,54.031409 L 10.223925,43.386099 C 9.0899772,42.276353 9.0697428,40.468866 10.178562,39.333423 L 16.183069,33.184781 C 17.291887,32.049339 19.097445,32.028649 20.231393,33.138387 z "
         id="rect565" />
      <path
         style="font-size:12.000000;fill:url(#linearGradient1326);fill-opacity:1.0000000;fill-rule:evenodd;stroke:none;stroke-width:1.0000000"
         d="M 51.863959,30.408206 C 49.347517,33.281572 47.604112,29.044357 41.404842,27.698762 C 35.148853,26.407381 36.109329,28.698191 30.352905,27.623486 C 26.851436,26.961320 22.747932,25.191995 23.323024,21.359968 C 26.860075,17.770166 34.437217,9.8035334 40.111870,3.9106795 C 41.023817,2.9409196 42.758554,2.3534789 43.718392,3.2483964 C 48.659584,7.9879545 54.415137,13.684520 59.096055,18.596129 C 60.301588,19.897781 60.077729,21.612434 58.871230,22.876407 C 56.870999,25.112416 53.690609,28.469436 51.863959,30.408206 z "
         id="path573" />
      <path
         style="font-size:12.000000;fill:url(#radialGradient1328);fill-opacity:1.0000000;fill-rule:evenodd"
         d="M 45.122705,3.4094036 L 59.525678,17.656534 C 61.189581,19.302435 61.219581,21.982865 59.592945,23.666474 L 24.211674,60.286882 C 22.585036,61.970490 19.935967,62.000847 18.272065,60.354947 L 3.8690980,46.107817 C 2.2051971,44.461917 2.1751906,41.781484 3.8018275,40.097877 L 39.183104,3.4774681 C 40.809742,1.7938608 43.458803,1.7635034 45.122705,3.4094036 z "
         id="rect567" />
      <path
         style="font-size:12.000000;fill:none;fill-rule:evenodd;stroke:#000000;stroke-width:1.3174801"
         d="M 45.122074,3.4088007 L 59.524844,17.655737 C 61.188728,19.301615 61.218730,21.982024 59.592110,23.665608 L 24.211291,60.285545 C 22.584668,61.969137 19.935628,61.999495 18.271750,60.353611 L 3.8689704,46.106681 C 2.2050844,44.460796 2.1750930,41.780387 3.8017074,40.096803 L 39.182534,3.4768654 C 40.809149,1.7932734 43.458188,1.7629161 45.122074,3.4088007 z "
         id="rect576" />
      <path
         style="font-size:12.000000;fill:url(#radialGradient1330);fill-opacity:1.0000000;fill-rule:evenodd;stroke:none;stroke-width:1.0000000"
         d="M 51.863959,30.081988 C 49.347517,32.955361 47.604112,28.718139 41.404842,27.372542 C 35.148853,26.081163 36.109329,28.371981 30.352905,27.297267 C 26.851436,26.635101 22.747932,24.865777 23.323024,21.033757 C 26.860075,17.443940 34.437217,9.4773144 40.111870,3.5844611 C 41.023817,2.6147010 42.758554,2.0272682 43.718392,2.9221781 C 48.659584,7.6617360 54.415137,13.358302 59.096055,18.269911 C 60.301588,19.571570 60.077729,21.286215 58.871230,22.550189 C 56.870999,24.786197 53.690609,28.143210 51.863959,30.081988 z "
         id="path585" />
    </g>
  </g>
</svg>
