<?xml version="1.0" encoding="UTF-8" standalone="no"?>
<!-- Created with Inkscape (http://www.inkscape.org/) -->
<svg
   xmlns:dc="http://purl.org/dc/elements/1.1/"
   xmlns:cc="http://web.resource.org/cc/"
   xmlns:rdf="http://www.w3.org/1999/02/22-rdf-syntax-ns#"
   xmlns:svg="http://www.w3.org/2000/svg"
   xmlns="http://www.w3.org/2000/svg"
   xmlns:xlink="http://www.w3.org/1999/xlink"
   xmlns:sodipodi="http://inkscape.sourceforge.net/DTD/sodipodi-0.dtd"
   xmlns:inkscape="http://www.inkscape.org/namespaces/inkscape"
   inkscape:export-ydpi="36.000000"
   inkscape:export-xdpi="36.000000"
   inkscape:export-filename="/home/nuno/kdeplayground-artwork/oooicons/crystalsvg/othercaract.png"
   sodipodi:docname="othercaract.svg"
   sodipodi:docbase="/home/nuno/kdeplayground-artwork/oooicons/crystalsvg"
   inkscape:version="0.41"
   sodipodi:version="0.32"
   id="svg7960"
   height="64pt"
   width="64pt">
  <defs
     id="defs3">
    <linearGradient
       id="light75to0">
      <stop
         id="stop2769"
         offset="0.0000000"
         style="stop-color:#ffffff;stop-opacity:0.72916669;" />
      <stop
         id="stop2770"
         offset="1.0000000"
         style="stop-color:#ffffff;stop-opacity:0.0000000;" />
    </linearGradient>
    <linearGradient
       id="light100to0">
      <stop
         id="stop2764"
         offset="0.0000000"
         style="stop-color:#ffffff;stop-opacity:1.0000000;" />
      <stop
         id="stop2765"
         offset="1.0000000"
         style="stop-color:#ffffff;stop-opacity:0.0000000;" />
    </linearGradient>
    <linearGradient
       id="light90to0">
      <stop
         id="stop1890"
         offset="0.0000000"
         style="stop-color:#ffffff;stop-opacity:0.90833336;" />
      <stop
         id="stop1892"
         offset="1.0000000"
         style="stop-color:#ffffff;stop-opacity:0.0000000;" />
    </linearGradient>
    <linearGradient
       y2="347.62085"
       x2="-213.40810"
       y1="285.46222"
       x1="-256.17157"
       gradientTransform="matrix(-0.309240,0.000000,0.000000,0.164565,-2.264950,-1.834113)"
       gradientUnits="userSpaceOnUse"
       id="linearGradient1336"
       xlink:href="#light100to0"
       inkscape:collect="always" />
    <linearGradient
       y2="344.57990"
       x2="63.660683"
       y1="287.68402"
       x1="23.102198"
       gradientTransform="matrix(0.315625,0.000000,0.000000,0.161236,-2.161805,-2.361690)"
       gradientUnits="userSpaceOnUse"
       id="linearGradient1339"
       xlink:href="#light100to0"
       inkscape:collect="always" />
    <radialGradient
       r="28.213455"
       fy="97.951225"
       fx="88.843636"
       cy="97.951225"
       cx="88.843636"
       gradientTransform="matrix(-0.224574,0.000000,0.000000,0.226607,83.84199,-1.918091)"
       gradientUnits="userSpaceOnUse"
       id="radialGradient1342"
       xlink:href="#light75to0"
       inkscape:collect="always" />
    <radialGradient
       r="28.213455"
       fy="97.951225"
       fx="88.843636"
       cy="97.951225"
       cx="88.843636"
       gradientTransform="matrix(0.224574,0.000000,0.000000,0.226607,-2.950210,-1.525017)"
       gradientUnits="userSpaceOnUse"
       id="radialGradient1345"
       xlink:href="#light75to0"
       inkscape:collect="always" />
    <linearGradient
       y2="66.981880"
       x2="237.05205"
       y1="3.7660344"
       x1="236.87869"
       gradientTransform="matrix(0.276927,0.000000,0.000000,0.183767,-2.950210,-1.525017)"
       gradientUnits="userSpaceOnUse"
       id="linearGradient1348"
       xlink:href="#light100to0"
       inkscape:collect="always" />
    <linearGradient
       y2="68.051407"
       x2="74.221405"
       y1="4.8355250"
       x1="74.048065"
       gradientTransform="matrix(0.276927,0.000000,0.000000,0.183767,-2.950210,-1.525017)"
       gradientUnits="userSpaceOnUse"
       id="linearGradient1351"
       xlink:href="#light100to0"
       inkscape:collect="always" />
    <radialGradient
       r="149.79257"
       fy="343.32144"
       fx="187.84256"
       cy="343.32144"
       cx="187.84256"
       gradientTransform="matrix(0.224587,0.000000,0.000000,0.226593,-2.692185,-1.793882)"
       gradientUnits="userSpaceOnUse"
       id="radialGradient1354"
       xlink:href="#light90to0"
       inkscape:collect="always" />
  </defs>
  <sodipodi:namedview
     inkscape:window-y="25"
     inkscape:window-x="0"
     inkscape:window-height="907"
     inkscape:window-width="1280"
     gridoriginx="0.0000000pt"
     gridoriginy="0.0000000pt"
     gridspacingx="1.0000000pt"
     gridspacingy="1.0000000pt"
     inkscape:grid-bbox="true"
     showgrid="true"
     inkscape:current-layer="layer1"
     inkscape:cy="51.101740"
     inkscape:cx="40.000000"
     inkscape:zoom="9.3500000"
     inkscape:pageshadow="2"
     inkscape:pageopacity="0.0"
     borderopacity="1.0"
     bordercolor="#666666"
     pagecolor="#ffffff"
     id="base" />
  <metadata
     id="metadata4">
    <rdf:RDF
       id="RDF5">
      <cc:Work
         id="Work6"
         rdf:about="">
        <dc:format
           id="format7">image/svg+xml</dc:format>
        <dc:type
           rdf:resource="http://purl.org/dc/dcmitype/StillImage"
           id="type9" />
      </cc:Work>
    </rdf:RDF>
  </metadata>
  <g
     inkscape:groupmode="layer"
     inkscape:label="Layer 1"
     id="layer1">
    <path
       id="path6676"
       d="M 64.237759,-4.4375762e-05 C 63.020835,-0.16274771 61.762144,-0.13561329 60.517539,0.10661572 C 55.539117,1.0755550 52.415998,4.9108090 50.348931,8.9593938 C 48.164558,13.237740 46.773936,18.427071 45.920097,24.034004 C 44.080796,24.161509 42.256150,24.307850 40.392911,24.318429 C 38.300737,24.330310 36.215597,24.204241 34.157110,24.069556 C 33.317835,18.671837 31.950108,13.675110 29.905430,9.5282471 C 27.899996,5.4609926 24.886447,1.5802643 19.913976,0.53325550 C 14.941505,-0.51375296 10.091177,2.0426396 6.1314400,6.1151282 C 2.1468558,10.213182 -0.26301530,15.121704 0.78140641,20.087588 C 1.8258282,25.053470 5.6588166,28.185675 9.7099403,30.255834 C 13.704473,32.297072 18.472532,33.692765 23.634197,34.557787 C 23.751131,36.497645 23.852945,38.459256 23.846783,40.424085 C 23.841527,42.099052 23.729948,43.742733 23.634197,45.401552 C 18.468400,46.270078 13.681302,47.668522 9.6745096,49.739059 C 5.6110257,51.838888 1.8073657,55.019677 0.74597725,59.978417 C -0.31541332,64.937156 1.9851560,69.926431 5.9188559,74.128641 C 9.8134089,78.289038 14.586551,80.984655 19.595100,80.066047 C 24.603649,79.147440 27.693026,75.279179 29.728275,71.248821 C 31.913960,66.920565 33.296696,61.636237 34.157110,55.925336 C 36.209855,55.792999 38.270918,55.661126 40.357479,55.676464 C 42.264872,55.690480 44.145088,55.823646 46.026389,55.960891 C 46.914064,61.420380 48.332440,66.455824 50.455223,70.644413 C 52.515131,74.708942 55.580223,78.553737 60.517539,79.639406 C 65.454850,80.725074 70.363901,78.280052 74.370936,74.270853 C 78.392764,70.246856 80.859038,65.335111 79.862692,60.369504 C 78.866347,55.403890 75.094482,52.251020 71.075883,50.130144 C 66.934199,47.944304 61.929105,46.474363 56.513872,45.543765 C 56.383870,43.614987 56.235850,41.666895 56.230426,39.713021 C 56.225510,37.941872 56.344120,36.202068 56.443012,34.451127 C 61.903533,33.534340 66.935955,32.096869 71.111314,29.900300 C 75.138018,27.781937 78.916155,24.604962 79.898123,19.625394 C 80.880091,14.645823 78.439602,9.7448673 74.406367,5.6884884 C 71.374452,2.6391847 67.888537,0.48805453 64.237759,-4.4375762e-05 z M 62.714239,11.341467 C 62.714501,11.341421 63.699771,11.151163 66.328172,13.794648 C 68.924973,16.406345 68.712763,17.366648 68.702028,17.421089 C 68.691290,17.475527 68.210498,18.497768 65.796711,19.767608 C 63.951538,20.738310 61.151501,21.569074 58.001961,22.291895 C 58.701064,18.993205 59.511064,16.052086 60.482108,14.150182 C 61.712773,11.739779 62.713980,11.341514 62.714239,11.341467 z M 17.575551,11.732555 C 17.461413,11.708526 18.452868,12.152073 19.665960,14.612376 C 20.573770,16.453525 21.338221,19.252488 22.004385,22.363001 C 19.160884,21.706046 16.597765,20.928386 14.882819,20.052033 C 12.451813,18.809773 11.952808,17.792116 11.942074,17.741068 C 11.931336,17.690019 11.753750,16.749773 14.315927,14.114629 C 16.863291,11.494728 17.689688,11.756583 17.575551,11.732555 z M 44.928039,35.588833 C 44.886264,36.979464 44.817855,38.346646 44.821748,39.748573 C 44.826087,41.311908 44.937146,42.856254 44.998900,44.406060 C 43.476274,44.337556 41.965127,44.239590 40.428342,44.228291 C 38.641284,44.215151 36.882061,44.305291 35.113738,44.370504 C 35.157081,43.060493 35.251318,41.779811 35.255462,40.459640 C 35.260565,38.834371 35.169074,37.234502 35.113738,35.624386 C 36.882549,35.691784 38.640023,35.776746 40.428342,35.766602 C 41.942413,35.757998 43.427359,35.652329 44.928039,35.588833 z M 22.075247,57.596344 C 21.359940,61.049658 20.514783,64.096490 19.524240,66.058037 C 18.308363,68.465810 17.377717,68.825426 17.540121,68.795642 C 17.702527,68.765855 16.782720,69.017778 14.245067,66.306908 C 11.708443,63.597131 11.872231,62.556800 11.906642,62.396043 C 11.941053,62.235284 12.485864,61.199814 14.918251,59.942863 C 16.648454,59.048773 19.205231,58.259626 22.075247,57.596344 z M 58.214544,57.774109 C 61.244118,58.492187 63.965878,59.315291 65.761282,60.262841 C 68.178240,61.538429 68.657614,62.600148 68.666596,62.644916 C 68.675574,62.689685 68.897298,63.594183 66.328172,66.164695 C 63.785044,68.709197 62.962099,68.440075 62.962255,68.440109 C 62.962408,68.440143 61.876754,67.925854 60.623831,65.453629 C 59.691378,63.613752 58.909092,60.853676 58.214544,57.774109 z "
       style="fill:none;fill-opacity:1.0000000;fill-rule:evenodd;stroke:#000000;stroke-width:0.97888172;stroke-linecap:butt;stroke-linejoin:miter;stroke-miterlimit:4.0000000;stroke-opacity:0.077868827" />
    <path
       id="path2900"
       d="M 64.237759,-4.4375762e-05 C 63.020835,-0.16274771 61.762144,-0.13561329 60.517539,0.10661572 C 55.539117,1.0755550 52.415998,4.9108090 50.348931,8.9593938 C 48.164558,13.237740 46.773936,18.427071 45.920097,24.034004 C 44.080796,24.161509 42.256150,24.307850 40.392911,24.318429 C 38.300737,24.330310 36.215597,24.204241 34.157110,24.069556 C 33.317835,18.671837 31.950108,13.675110 29.905430,9.5282471 C 27.899996,5.4609926 24.886447,1.5802643 19.913976,0.53325550 C 14.941505,-0.51375296 10.091177,2.0426396 6.1314400,6.1151282 C 2.1468558,10.213182 -0.26301530,15.121704 0.78140641,20.087588 C 1.8258282,25.053470 5.6588166,28.185675 9.7099403,30.255834 C 13.704473,32.297072 18.472532,33.692765 23.634197,34.557787 C 23.751131,36.497645 23.852945,38.459256 23.846783,40.424085 C 23.841527,42.099052 23.729948,43.742733 23.634197,45.401552 C 18.468400,46.270078 13.681302,47.668522 9.6745096,49.739059 C 5.6110257,51.838888 1.8073657,55.019677 0.74597725,59.978417 C -0.31541332,64.937156 1.9851560,69.926431 5.9188559,74.128641 C 9.8134089,78.289038 14.586551,80.984655 19.595100,80.066047 C 24.603649,79.147440 27.693026,75.279179 29.728275,71.248821 C 31.913960,66.920565 33.296696,61.636237 34.157110,55.925336 C 36.209855,55.792999 38.270918,55.661126 40.357479,55.676464 C 42.264872,55.690480 44.145088,55.823646 46.026389,55.960891 C 46.914064,61.420380 48.332440,66.455824 50.455223,70.644413 C 52.515131,74.708942 55.580223,78.553737 60.517539,79.639406 C 65.454850,80.725074 70.363901,78.280052 74.370936,74.270853 C 78.392764,70.246856 80.859038,65.335111 79.862692,60.369504 C 78.866347,55.403890 75.094482,52.251020 71.075883,50.130144 C 66.934199,47.944304 61.929105,46.474363 56.513872,45.543765 C 56.383870,43.614987 56.235850,41.666895 56.230426,39.713021 C 56.225510,37.941872 56.344120,36.202068 56.443012,34.451127 C 61.903533,33.534340 66.935955,32.096869 71.111314,29.900300 C 75.138018,27.781937 78.916155,24.604962 79.898123,19.625394 C 80.880091,14.645823 78.439602,9.7448673 74.406367,5.6884884 C 71.374452,2.6391847 67.888537,0.48805453 64.237759,-4.4375762e-05 z M 62.714239,11.341467 C 62.714501,11.341421 63.699771,11.151163 66.328172,13.794648 C 68.924973,16.406345 68.712763,17.366648 68.702028,17.421089 C 68.691290,17.475527 68.210498,18.497768 65.796711,19.767608 C 63.951538,20.738310 61.151501,21.569074 58.001961,22.291895 C 58.701064,18.993205 59.511064,16.052086 60.482108,14.150182 C 61.712773,11.739779 62.713980,11.341514 62.714239,11.341467 z M 17.575551,11.732555 C 17.461413,11.708526 18.452868,12.152073 19.665960,14.612376 C 20.573770,16.453525 21.338221,19.252488 22.004385,22.363001 C 19.160884,21.706046 16.597765,20.928386 14.882819,20.052033 C 12.451813,18.809773 11.952808,17.792116 11.942074,17.741068 C 11.931336,17.690019 11.753750,16.749773 14.315927,14.114629 C 16.863291,11.494728 17.689688,11.756583 17.575551,11.732555 z M 44.928039,35.588833 C 44.886264,36.979464 44.817855,38.346646 44.821748,39.748573 C 44.826087,41.311908 44.937146,42.856254 44.998900,44.406060 C 43.476274,44.337556 41.965127,44.239590 40.428342,44.228291 C 38.641284,44.215151 36.882061,44.305291 35.113738,44.370504 C 35.157081,43.060493 35.251318,41.779811 35.255462,40.459640 C 35.260565,38.834371 35.169074,37.234502 35.113738,35.624386 C 36.882549,35.691784 38.640023,35.776746 40.428342,35.766602 C 41.942413,35.757998 43.427359,35.652329 44.928039,35.588833 z M 22.075247,57.596344 C 21.359940,61.049658 20.514783,64.096490 19.524240,66.058037 C 18.308363,68.465810 17.377717,68.825426 17.540121,68.795642 C 17.702527,68.765855 16.782720,69.017778 14.245067,66.306908 C 11.708443,63.597131 11.872231,62.556800 11.906642,62.396043 C 11.941053,62.235284 12.485864,61.199814 14.918251,59.942863 C 16.648454,59.048773 19.205231,58.259626 22.075247,57.596344 z M 58.214544,57.774109 C 61.244118,58.492187 63.965878,59.315291 65.761282,60.262841 C 68.178240,61.538429 68.657614,62.600148 68.666596,62.644916 C 68.675574,62.689685 68.897298,63.594183 66.328172,66.164695 C 63.785044,68.709197 62.962099,68.440075 62.962255,68.440109 C 62.962408,68.440143 61.876754,67.925854 60.623831,65.453629 C 59.691378,63.613752 58.909092,60.853676 58.214544,57.774109 z "
       style="fill:#000000;fill-opacity:1.0000000;fill-rule:evenodd;stroke:none;stroke-width:6.6875000;stroke-linecap:butt;stroke-linejoin:miter;stroke-miterlimit:4.0000000;stroke-opacity:1.0000000" />
    <path
       sodipodi:nodetypes="ccccccccccccccccccccccccccccccccccccccccccccccccccccccccccccccccccccccc"
       id="path4170"
       d="M 64.495785,-0.26890889 C 63.278861,-0.43161222 62.020169,-0.40447781 60.775564,-0.16224879 C 55.797144,0.80669049 52.674024,4.6419445 50.606957,8.6905287 C 48.422584,12.968875 47.031962,18.158205 46.178123,23.765140 C 44.338822,23.892643 42.514177,24.038986 40.650936,24.049564 C 38.558763,24.061446 36.473624,23.935377 34.415136,23.800692 C 33.575861,18.402973 32.208133,13.406245 30.163456,9.2593830 C 28.158022,5.1921281 25.144473,1.3113997 20.172001,0.26439098 C 15.199531,-0.78261747 10.349203,1.7737751 6.3894660,5.8462637 C 2.4048819,9.9443168 -0.0049893405,14.852839 1.0394324,19.818724 C 2.0838542,24.784605 5.9168425,27.916810 9.9679661,29.986970 C 13.962499,32.028207 18.730557,33.423900 23.892223,34.288923 C 24.009156,36.228780 24.110971,38.190392 24.104809,40.155221 C 24.099553,41.830186 23.987974,43.473868 23.892223,45.132687 C 18.726426,46.001213 13.939328,47.399657 9.9325354,49.470194 C 5.8690517,51.570024 2.0653916,54.750813 1.0040032,59.709552 C -0.057387359,64.668291 2.8140671,69.196405 6.7477671,73.398616 C 10.642320,77.559013 14.045338,80.254629 19.053887,79.336022 C 24.062436,78.417414 27.151813,74.549154 29.187062,70.518796 C 31.372747,66.190539 32.412951,59.868599 33.273365,54.157698 C 35.326110,54.025361 38.072237,53.778198 40.158797,53.793536 C 42.066190,53.807552 44.745645,54.171299 46.626947,54.308543 C 47.514622,59.768033 49.047173,65.610509 51.169957,69.799098 C 53.229864,73.863625 56.294957,77.708422 61.232272,78.794090 C 66.169584,79.879759 70.165219,77.780607 74.172255,73.771407 C 78.194083,69.747410 80.546179,65.296828 79.549833,60.331219 C 78.553488,55.365606 75.352508,51.982156 71.333910,49.861280 C 67.192224,47.675439 62.187131,46.205498 56.771898,45.274900 C 56.641896,43.346123 56.493875,41.398030 56.488451,39.444156 C 56.483535,37.673007 56.602146,35.933203 56.701038,34.182261 C 62.161560,33.265475 67.193982,31.828005 71.369340,29.631436 C 75.396044,27.513073 79.174181,24.336096 80.156149,19.356530 C 81.138116,14.376959 78.697628,9.4760032 74.664393,5.4196239 C 71.632478,2.3703201 68.146563,0.21919001 64.495785,-0.26890889 z M 62.972266,11.072602 C 62.972527,11.072557 63.957796,10.882298 66.586198,13.525784 C 69.182999,16.137480 68.970789,17.097784 68.960054,17.152224 C 68.949317,17.206663 68.468523,18.228903 66.054737,19.498743 C 64.209563,20.469445 61.409527,21.300209 58.259987,22.023030 C 58.959091,18.724341 59.769090,15.783221 60.740135,13.881317 C 61.970799,11.470914 62.972006,11.072649 62.972266,11.072602 z M 17.833577,11.463690 C 17.719438,11.439661 18.710895,11.883208 19.923986,14.343511 C 20.831796,16.184660 21.596247,18.983623 22.262412,22.094136 C 19.418910,21.437180 16.855791,20.659521 15.140845,19.783169 C 12.709840,18.540908 12.210834,17.523251 12.200099,17.472204 C 12.189363,17.421154 12.011776,16.480907 14.573953,13.845764 C 17.121317,11.225862 17.947713,11.487718 17.833577,11.463690 z M 45.186065,35.319969 C 45.144289,36.710600 45.075880,38.077781 45.079774,39.479708 C 45.084112,41.043043 45.195171,42.587389 45.256926,44.137194 C 43.734301,44.068692 42.223153,43.970726 40.686368,43.959427 C 38.899310,43.946287 37.140087,44.036427 35.371765,44.101640 C 35.415107,42.791628 35.509345,41.510947 35.513488,40.190776 C 35.518591,38.565506 35.427100,36.965637 35.371765,35.355521 C 37.140575,35.422918 38.898049,35.507882 40.686368,35.497737 C 42.200440,35.489133 43.685385,35.383465 45.186065,35.319969 z M 22.333273,57.327478 C 21.617965,60.780792 20.772809,63.827626 19.782266,65.789172 C 18.566388,68.196945 17.635743,68.556560 17.798146,68.526778 C 17.960553,68.496990 17.040747,68.748914 14.503093,66.038043 C 11.966468,63.328266 12.130257,62.287935 12.164668,62.127178 C 12.199079,61.966418 12.743889,60.930949 15.176276,59.673997 C 16.906480,58.779908 19.463257,57.990761 22.333273,57.327478 z M 58.472570,57.505245 C 61.502144,58.223322 64.223905,59.046426 66.019307,59.993977 C 68.436267,61.269563 68.915639,62.331284 68.924622,62.376052 C 68.933601,62.420820 69.155324,63.325319 66.586198,65.895829 C 64.043069,68.440333 63.220126,68.171211 63.220281,68.171244 C 63.220435,68.171278 62.134780,67.656989 60.881857,65.184765 C 59.949403,63.344886 59.167119,60.584811 58.472570,57.505245 z "
       style="fill:url(#radialGradient1354);fill-opacity:1.0000000;fill-rule:evenodd;stroke:#000000;stroke-width:0.0000000;stroke-linecap:butt;stroke-linejoin:miter;stroke-miterlimit:4.0000000;stroke-opacity:1.0000000" />
    <path
       sodipodi:nodetypes="ccccc"
       id="path4158"
       d="M 25.668472,6.4931634 C 25.668472,9.5088505 22.444010,10.172462 17.435703,8.1655730 C 13.586939,9.9494750 9.2029310,9.5088505 9.2029310,6.4931634 C 9.2029310,3.4774758 12.891213,1.0299614 17.435703,1.0299614 C 21.980192,1.0299614 25.668472,3.4774758 25.668472,6.4931634 z "
       style="fill:url(#linearGradient1351);fill-opacity:1.0000000;stroke:none;stroke-width:6.6875000;stroke-linecap:butt;stroke-linejoin:round;stroke-miterlimit:4.0000000;stroke-dashoffset:0.0000000;stroke-opacity:1.0000000" />
    <path
       sodipodi:nodetypes="ccccc"
       id="path4172"
       d="M 71.144737,6.2966266 C 71.144737,9.3123144 67.920276,9.9759261 62.911968,7.9690348 C 59.063205,9.7529378 54.679197,9.3123144 54.679197,6.2966266 C 54.679197,3.2809389 58.367479,0.83342449 62.911968,0.83342449 C 67.456458,0.83342449 71.144737,3.2809389 71.144737,6.2966266 z "
       style="fill:url(#linearGradient1348);fill-opacity:1.0000000;stroke:none;stroke-width:6.6875000;stroke-linecap:butt;stroke-linejoin:round;stroke-miterlimit:4.0000000;stroke-dashoffset:0.0000000;stroke-opacity:1.0000000" />
    <path
       sodipodi:nodetypes="cccccccccccccc"
       id="path4795"
       d="M 34.157110,24.069556 C 33.317835,18.671837 31.950108,13.675110 29.905430,9.5282471 C 27.899996,5.4609926 24.886447,1.5802643 19.913976,0.53325550 C 14.941505,-0.51375296 10.091177,2.0426396 6.1314400,6.1151282 C 2.1468558,10.213182 -0.26301530,15.121704 0.78140641,20.087588 C 1.8258282,25.053470 5.6588166,28.185675 9.7099403,30.255834 C 13.704473,32.297072 36.215597,24.204241 34.157110,24.069556 z M 17.575551,11.732555 C 17.461413,11.708526 18.452868,12.152073 19.665960,14.612376 C 20.573770,16.453525 21.338221,19.252488 22.004385,22.363001 C 19.160884,21.706046 16.597765,20.928386 14.882819,20.052033 C 12.451813,18.809773 11.952808,17.792116 11.942074,17.741068 C 11.931336,17.690019 11.753750,16.749773 14.315927,14.114629 C 16.863291,11.494728 17.689688,11.756583 17.575551,11.732555 z "
       style="fill:url(#radialGradient1345);fill-opacity:1.0000000;fill-rule:evenodd;stroke:none;stroke-width:6.6875000;stroke-linecap:butt;stroke-linejoin:miter;stroke-miterlimit:4.0000000;stroke-opacity:1.0000000" />
    <path
       sodipodi:nodetypes="cccccccccccccc"
       id="path5418"
       d="M 46.734660,23.676483 C 47.573934,18.278763 48.941661,13.282037 50.986338,9.1351740 C 52.991773,5.0679190 56.005322,1.1871907 60.977792,0.14018190 C 65.950267,-0.90682656 70.800595,1.6495663 74.760332,5.7220546 C 78.744916,9.8201077 81.154787,14.728629 80.110365,19.694514 C 79.065944,24.660396 75.232955,27.792602 71.181831,29.862760 C 67.187298,31.903999 44.676172,23.811167 46.734660,23.676483 z M 63.316218,11.339481 C 63.430356,11.315451 62.438901,11.758999 61.225808,14.219301 C 60.317999,16.060452 59.553548,18.859415 58.887384,21.969928 C 61.730885,21.312971 64.294004,20.535315 66.008952,19.658960 C 68.439958,18.416699 68.938964,17.399043 68.949699,17.347994 C 68.960436,17.296946 69.138021,16.356699 66.575844,13.721555 C 64.028478,11.101654 63.202081,11.363510 63.316218,11.339481 z "
       style="fill:url(#radialGradient1342);fill-opacity:1.0000000;fill-rule:evenodd;stroke:none;stroke-width:6.6875000;stroke-linecap:butt;stroke-linejoin:miter;stroke-miterlimit:4.0000000;stroke-opacity:1.0000000" />
    <path
       sodipodi:nodetypes="czzzz"
       id="path5423"
       d="M 10.063103,50.418830 C 12.704933,48.855412 17.875819,47.647829 18.868618,48.333224 C 19.861420,49.018620 14.482266,52.389463 10.809333,53.845181 C 7.1128399,55.310240 6.4373420,55.060423 6.4811980,54.292098 C 6.5250537,53.523773 7.2761564,52.068128 10.063103,50.418830 z "
       style="fill:url(#linearGradient1339);fill-opacity:1.0000000;fill-rule:evenodd;stroke:none;stroke-width:0.25000000pt;stroke-linecap:butt;stroke-linejoin:miter;stroke-opacity:1.0000000" />
    <path
       sodipodi:nodetypes="czzzz"
       id="path6049"
       d="M 72.090947,51.471958 C 69.407720,49.817779 64.155812,48.540093 63.147455,49.265278 C 62.139100,49.990462 67.602537,53.556991 71.333023,55.097219 C 75.087441,56.647328 75.773523,56.383007 75.728979,55.570081 C 75.684437,54.757152 74.921565,53.217003 72.090947,51.471958 z "
       style="fill:url(#linearGradient1336);fill-opacity:1.0000000;fill-rule:evenodd;stroke:none;stroke-width:0.25000000pt;stroke-linecap:butt;stroke-linejoin:miter;stroke-opacity:1.0000000" />
    <path
       sodipodi:nodetypes="ccccc"
       id="rect8017"
       d="M 34.748850,35.766553 C 36.720782,35.988028 42.291006,35.906978 44.377117,35.766553 C 44.364670,37.308561 44.293813,42.907886 44.580969,43.988733 C 42.997926,43.767259 36.523303,43.751626 34.668584,43.979232 C 34.841563,42.437224 34.887919,37.274319 34.748850,35.766553 z "
       style="fill:#ffffff;fill-opacity:1.0000000;stroke:none;stroke-width:12.687500;stroke-linecap:butt;stroke-linejoin:round;stroke-miterlimit:4.0000000;stroke-dashoffset:0.0000000;stroke-opacity:0.077868827" />
  </g>
</svg>
