<?xml version="1.0" encoding="UTF-8" standalone="no"?>
<!DOCTYPE svg PUBLIC "-//W3C//DTD SVG 20010904//EN"
"http://www.w3.org/TR/2001/REC-SVG-20010904/DTD/svg10.dtd">
<!-- Created with Inkscape (http://www.inkscape.org/) -->
<svg
   version="1.0"
   x="0.0000000"
   y="0.0000000"
   width="80.000000"
   height="80.000000"
   id="svg13580"
   xmlns="http://www.w3.org/2000/svg"
   xmlns:xlink="http://www.w3.org/1999/xlink"
   xmlns:sodipodi="http://sodipodi.sourceforge.net/DTD/sodipodi-0.dtd"
   xmlns:inkscape="http://www.inkscape.org/namespaces/inkscape"
   sodipodi:version="0.32"
   inkscape:version="0.40"
   xmlns:rdf="http://www.w3.org/1999/02/22-rdf-syntax-ns#"
   xmlns:cc="http://web.resource.org/cc/"
   xmlns:dc="http://purl.org/dc/elements/1.1/"
   sodipodi:docname="trace.svg"
   sodipodi:docbase="/home/nuno/kdeplayground-artwork/oooicons/crystalsvg"
   inkscape:export-filename="/home/nuno/kdeplayground-artwork/oooicons/crystalsvg/trace.png"
   inkscape:export-xdpi="36.000000"
   inkscape:export-ydpi="36.000000">
  <metadata
     id="metadata44">
    <rdf:RDF
       id="RDF45">
      <cc:Work
         rdf:about=""
         id="Work46">
        <dc:format
           id="format47">image/svg+xml</dc:format>
        <dc:type
           id="type49"
           rdf:resource="http://purl.org/dc/dcmitype/StillImage" />
      </cc:Work>
    </rdf:RDF>
  </metadata>
  <sodipodi:namedview
     id="base"
     pagecolor="#ffffff"
     bordercolor="#666666"
     borderopacity="1.0"
     inkscape:pageopacity="0.0"
     inkscape:pageshadow="2"
     inkscape:zoom="5.9218750"
     inkscape:cx="32.553795"
     inkscape:cy="37.431692"
     inkscape:window-width="640"
     inkscape:window-height="538"
     inkscape:window-x="638"
     inkscape:window-y="25"
     inkscape:current-layer="svg13580" />
  <defs
     id="defs3">
    <linearGradient
       x1="54.536720"
       y1="96.837074"
       x2="91.471153"
       y2="66.370918"
       id="linearGradient13579"
       xlink:href="#shadow100to0"
       gradientUnits="userSpaceOnUse"
       gradientTransform="scale(1.373223,0.728214)" />
    <linearGradient
       id="shadow100to0">
      <stop
         style="stop-color:#000000;stop-opacity:1.0000000;"
         offset="0.0000000"
         id="stop3425" />
      <stop
         style="stop-color:#000000;stop-opacity:0.0000000;"
         offset="1.0000000"
         id="stop3426" />
    </linearGradient>
    <linearGradient
       x1="54.536720"
       y1="96.837074"
       x2="91.471153"
       y2="66.370918"
       id="linearGradient12328"
       xlink:href="#shadow100to0"
       gradientUnits="userSpaceOnUse"
       gradientTransform="scale(1.373223,0.728214)" />
    <linearGradient
       id="orangetoblackorange">
      <stop
         style="stop-color:#ff8b00;stop-opacity:1.0000000;"
         offset="0.0000000"
         id="stop4207" />
      <stop
         style="stop-color:#4d0200;stop-opacity:1.0000000;"
         offset="1.0000000"
         id="stop4209" />
    </linearGradient>
    <linearGradient
       x1="68.581657"
       y1="9.0542183"
       x2="122.31405"
       y2="0.95772386"
       id="linearGradient1661"
       xlink:href="#orangetoblackorange"
       gradientUnits="userSpaceOnUse"
       gradientTransform="matrix(0.901330,0.434111,-0.405060,0.965975,-51.61257,-0.295980)" />
    <linearGradient
       id="orangelesstoyelow">
      <stop
         style="stop-color:#ff7d00;stop-opacity:1.0000000;"
         offset="0.0000000"
         id="stop2689" />
      <stop
         style="stop-color:#ffbe00;stop-opacity:1.0000000;"
         offset="0.25358382"
         id="stop2690" />
      <stop
         style="stop-color:#ffff00;stop-opacity:1.0000000;"
         offset="1.0000000"
         id="stop2691" />
    </linearGradient>
    <linearGradient
       x1="58.404800"
       y1="80.526398"
       x2="86.264603"
       y2="19.952200"
       id="linearGradient1662"
       xlink:href="#orangelesstoyelow"
       gradientUnits="userSpaceOnUse"
       gradientTransform="matrix(0.988165,0.000000,0.000000,1.059038,-51.61257,-0.295980)" />
    <linearGradient
       x1="75.064339"
       y1="65.623413"
       x2="140.15146"
       y2="-37.592434"
       id="linearGradient1663"
       xlink:href="#orangetoyelow"
       gradientUnits="userSpaceOnUse"
       gradientTransform="matrix(0.988165,0.000000,0.000000,1.059038,-51.61257,-0.295980)" />
    <linearGradient
       id="orangetoyelow">
      <stop
         style="stop-color:#ff7d00;stop-opacity:1.0000000;"
         offset="0.0000000"
         id="stop2661" />
      <stop
         style="stop-color:#ffff00;stop-opacity:1.0000000;"
         offset="1.0000000"
         id="stop2662" />
    </linearGradient>
    <linearGradient
       x1="55.499844"
       y1="94.234268"
       x2="113.51736"
       y2="-2.7694037"
       id="linearGradient1664"
       xlink:href="#orangetoyelow"
       gradientUnits="userSpaceOnUse"
       gradientTransform="matrix(0.988165,0.000000,0.000000,1.059038,-51.61257,-0.295980)" />
    <linearGradient
       id="blacktowhite">
      <stop
         style="stop-color:#000000;stop-opacity:1.0000000;"
         offset="0.0000000"
         id="stop2476" />
      <stop
         style="stop-color:#ffffff;stop-opacity:1.0000000;"
         offset="1.0000000"
         id="stop2475" />
    </linearGradient>
    <linearGradient
       x1="63.510639"
       y1="263.33130"
       x2="48.348915"
       y2="299.38031"
       id="linearGradient6667"
       xlink:href="#blacktowhite"
       gradientUnits="userSpaceOnUse"
       gradientTransform="matrix(0.183056,0.000000,0.000000,0.265558,6.081840,0.841974)" />
    <linearGradient
       id="light100to0">
      <stop
         style="stop-color:#ffffff;stop-opacity:1.0000000;"
         offset="0.0000000"
         id="stop2764" />
      <stop
         style="stop-color:#ffffff;stop-opacity:0.0000000;"
         offset="1.0000000"
         id="stop2765" />
    </linearGradient>
    <linearGradient
       x1="112.83246"
       y1="26.413313"
       x2="122.91101"
       y2="48.426991"
       id="linearGradient8535"
       xlink:href="#light100to0"
       gradientUnits="userSpaceOnUse"
       gradientTransform="matrix(0.317347,0.000000,0.000000,0.142307,7.750154,1.021211)" />
    <linearGradient
       inkscape:collect="always"
       xlink:href="#light100to0"
       id="linearGradient1127"
       gradientUnits="userSpaceOnUse"
       gradientTransform="matrix(0.288506,0.000000,0.000000,0.131244,38.23043,3.801602)"
       x1="112.83246"
       y1="26.413313"
       x2="122.91101"
       y2="48.426991" />
    <linearGradient
       inkscape:collect="always"
       xlink:href="#blacktowhite"
       id="linearGradient1128"
       gradientUnits="userSpaceOnUse"
       gradientTransform="matrix(0.166420,0.000000,0.000000,0.244914,36.71374,3.636292)"
       x1="63.510639"
       y1="263.33130"
       x2="48.348915"
       y2="299.38031" />
    <linearGradient
       inkscape:collect="always"
       xlink:href="#orangetoyelow"
       id="linearGradient1129"
       gradientUnits="userSpaceOnUse"
       gradientTransform="matrix(0.898362,0.000000,0.000000,0.976710,-15.73747,2.586798)"
       x1="55.499844"
       y1="94.234268"
       x2="113.51736"
       y2="-2.7694037" />
    <linearGradient
       inkscape:collect="always"
       xlink:href="#orangetoyelow"
       id="linearGradient1130"
       gradientUnits="userSpaceOnUse"
       gradientTransform="matrix(0.898362,0.000000,0.000000,0.976710,-15.73747,2.586798)"
       x1="75.064339"
       y1="65.623413"
       x2="140.15146"
       y2="-37.592434" />
    <linearGradient
       inkscape:collect="always"
       xlink:href="#orangelesstoyelow"
       id="linearGradient1131"
       gradientUnits="userSpaceOnUse"
       gradientTransform="matrix(0.898362,0.000000,0.000000,0.976710,-15.73747,2.586798)"
       x1="58.404800"
       y1="80.526398"
       x2="86.264603"
       y2="19.952200" />
    <linearGradient
       inkscape:collect="always"
       xlink:href="#orangetoblackorange"
       id="linearGradient1132"
       gradientUnits="userSpaceOnUse"
       gradientTransform="matrix(0.819418,0.400365,-0.368248,0.890881,-15.73747,2.586798)"
       x1="68.581657"
       y1="9.0542183"
       x2="122.31405"
       y2="0.95772386" />
    <linearGradient
       inkscape:collect="always"
       xlink:href="#orangetoblackorange"
       id="linearGradient2378"
       gradientTransform="matrix(0.780813,-8.668812e-2,0.166793,1.501520,-9.192325,-2.476130)"
       x1="57.719784"
       y1="52.111977"
       x2="9.8968897"
       y2="17.022625"
       gradientUnits="userSpaceOnUse" />
    <linearGradient
       inkscape:collect="always"
       xlink:href="#light100to0"
       id="linearGradient4879"
       gradientTransform="matrix(0.756141,-8.394903e-2,0.172235,1.550513,-9.192325,-2.476130)"
       x1="61.037426"
       y1="60.207428"
       x2="34.147621"
       y2="31.840523"
       gradientUnits="userSpaceOnUse" />
  </defs>
  <path
     style="fill:#101010;fill-opacity:0.028571429"
     d="M 48.871850,71.423025 C 47.217644,73.128361 45.563438,74.833697 43.909230,76.539033 C 47.584704,77.010705 51.260174,77.482379 54.935647,77.954051 C 55.139866,78.008562 56.059169,77.760892 56.596220,77.643453 C 64.145508,75.905978 71.678268,74.225843 79.237878,72.452564 C 79.548128,71.000178 78.351638,70.326036 77.823488,69.417566 C 76.541188,68.034539 75.252108,66.595645 73.361828,65.918865 C 71.874528,66.076230 70.221508,66.596639 68.666718,66.901857 C 62.084658,68.408503 55.519176,69.851589 48.926745,71.397942 L 48.871850,71.423025 z "
     id="path5504" />
  <path
     style="fill:#101010;fill-opacity:0.028571429"
     d="M 48.871850,71.423025 C 47.217644,73.128361 45.563438,74.833697 43.909230,76.539033 C 47.584704,77.010705 51.260174,77.482379 54.935647,77.954051 C 55.139866,78.008562 56.059169,77.760892 56.596220,77.643453 C 64.145508,75.905978 71.678268,74.225843 79.237878,72.452564 C 79.548128,71.000178 78.351638,70.326036 77.823488,69.417566 C 76.541188,68.034539 75.252108,66.595645 73.361828,65.918865 C 71.874528,66.076230 70.221508,66.596639 68.666718,66.901857 C 62.084658,68.408503 55.519176,69.851589 48.926745,71.397942 L 48.871850,71.423025 z "
     id="path5503" />
  <path
     style="fill:#101010;fill-opacity:0.028571429"
     d="M 48.997860,71.428146 C 47.360032,73.116598 45.722204,74.805050 44.084375,76.493502 C 47.723458,76.960504 51.362538,77.427506 55.001620,77.894509 C 55.203817,77.948481 56.114018,77.703263 56.645751,77.586986 C 64.120288,75.866714 71.578478,74.203214 79.063238,72.447492 C 79.370418,71.009487 78.185768,70.342020 77.662848,69.442544 C 76.393248,68.073209 75.116928,66.648562 73.245368,65.978484 C 71.772788,66.134291 70.136138,66.649547 68.596738,66.951743 C 62.079848,68.443470 55.579370,69.872271 49.052211,71.403311 L 48.997860,71.428146 z "
     id="path4880" />
  <path
     style="fill:none;fill-opacity:1.0000000;fill-rule:evenodd;stroke:#000000;stroke-width:6.6213422;stroke-linecap:butt;stroke-linejoin:round;stroke-miterlimit:4.0000000;stroke-opacity:0.036734644"
     d="M 43.512558,75.473967 C 37.609644,72.685816 27.120616,76.447796 23.309035,66.016796 C 19.422263,55.380031 31.526200,40.385153 29.680475,30.147255 C 27.834749,19.909361 21.595713,15.731911 3.0135706,5.5862716 C 31.992572,14.659891 35.751800,20.212938 39.557537,29.297493 C 43.363273,38.382047 37.044823,51.488601 37.563883,60.189464 C 38.082943,68.890325 41.529667,70.379132 43.512558,75.473967 z "
     id="path3626"
     sodipodi:nodetypes="czzczzc" />
  <path
     style="fill:none;fill-opacity:1.0000000;fill-rule:evenodd;stroke:#000000;stroke-width:5.2782707;stroke-linecap:butt;stroke-linejoin:round;stroke-miterlimit:4.0000000;stroke-opacity:0.036734644"
     d="M 43.512558,75.473967 C 37.609644,72.685816 27.120616,76.447796 23.309035,66.016796 C 19.422263,55.380031 31.526200,40.385153 29.680475,30.147255 C 27.834749,19.909361 22.239860,16.113377 3.6577175,5.9677362 C 32.636719,15.041358 35.751800,20.212938 39.557537,29.297493 C 43.363273,38.382047 37.044823,51.488601 37.563883,60.189464 C 38.082943,68.890325 41.529667,70.379132 43.512558,75.473967 z "
     id="path4248"
     sodipodi:nodetypes="czzczzc" />
  <path
     style="fill:none;fill-opacity:1.0000000;fill-rule:evenodd;stroke:#000000;stroke-width:1.5388229;stroke-linecap:butt;stroke-linejoin:round;stroke-miterlimit:4.0000000;stroke-opacity:0.036734644"
     d="M 43.437999,75.482245 C 37.380005,72.711312 26.588565,76.506867 22.703427,66.084032 C 18.741648,55.455595 31.227371,40.418329 29.362001,30.182613 C 27.496633,19.946900 21.808013,16.614300 2.7418983,6.5223919 C 32.496444,15.509910 35.632262,20.226211 39.515539,29.302157 C 43.398817,38.378101 36.864809,51.508586 37.371463,60.210825 C 37.878116,68.913065 41.415819,70.391772 43.437999,75.482245 z "
     id="path4253"
     sodipodi:nodetypes="czzczzc" />
  <path
     style="fill:none;fill-opacity:1.0000000;fill-rule:evenodd;stroke:#000000;stroke-width:1.9473598;stroke-linecap:butt;stroke-linejoin:round;stroke-miterlimit:4.0000000;stroke-opacity:0.036734644"
     d="M 43.437999,75.482245 C 37.380005,72.711312 26.588565,76.506867 22.703427,66.084032 C 18.741648,55.455595 31.227371,40.418329 29.362001,30.182613 C 27.496633,19.946900 21.783160,16.390569 2.7170457,6.2986616 C 32.471591,15.286179 35.632262,20.226211 39.515539,29.302157 C 43.398817,38.378101 36.864809,51.508586 37.371463,60.210825 C 37.878116,68.913065 41.415819,70.391772 43.437999,75.482245 z "
     id="path4252"
     sodipodi:nodetypes="czzczzc" />
  <path
     style="fill:none;fill-opacity:1.0000000;fill-rule:evenodd;stroke:#000000;stroke-width:2.7264347;stroke-linecap:butt;stroke-linejoin:round;stroke-miterlimit:4.0000000;stroke-opacity:0.036734644"
     d="M 43.512558,75.473967 C 37.609644,72.685816 27.120616,76.447796 23.309035,66.016796 C 19.422263,55.380031 31.526200,40.385153 29.680475,30.147255 C 27.834749,19.909361 22.462860,16.315107 3.8807169,6.1694675 C 32.859718,15.243089 35.751800,20.212938 39.557537,29.297493 C 43.363273,38.382047 37.044823,51.488601 37.563883,60.189464 C 38.082943,68.890325 41.529667,70.379132 43.512558,75.473967 z "
     id="path4251"
     sodipodi:nodetypes="czzczzc" />
  <path
     style="fill:none;fill-opacity:1.0000000;fill-rule:evenodd;stroke:#000000;stroke-width:3.2636633;stroke-linecap:butt;stroke-linejoin:round;stroke-miterlimit:4.0000000;stroke-opacity:0.036734644"
     d="M 43.512558,75.473967 C 37.609644,72.685816 27.120616,76.447796 23.309035,66.016796 C 19.422263,55.380031 31.526200,40.385153 29.680475,30.147255 C 27.834749,19.909361 22.264712,16.337105 3.6825699,6.1914665 C 32.661572,15.265087 35.751800,20.212938 39.557537,29.297493 C 43.363273,38.382047 37.044823,51.488601 37.563883,60.189464 C 38.082943,68.890325 41.529667,70.379132 43.512558,75.473967 z "
     id="path4250"
     sodipodi:nodetypes="czzczzc" />
  <path
     style="fill:none;fill-opacity:1.0000000;fill-rule:evenodd;stroke:#000000;stroke-width:4.4724278;stroke-linecap:butt;stroke-linejoin:round;stroke-miterlimit:4.0000000;stroke-opacity:0.036734644"
     d="M 43.512558,75.473967 C 37.609644,72.685816 27.120616,76.447796 23.309035,66.016796 C 19.422263,55.380031 31.526200,40.385153 29.680475,30.147255 C 27.834749,19.909361 22.264712,16.337105 3.6825699,6.1914665 C 32.661572,15.265087 35.751800,20.212938 39.557537,29.297493 C 43.363273,38.382047 37.044823,51.488601 37.563883,60.189464 C 38.082943,68.890325 41.529667,70.379132 43.512558,75.473967 z "
     id="path4249"
     sodipodi:nodetypes="czzczzc" />
  <path
     style="fill:url(#linearGradient2378);fill-opacity:1.0000000;fill-rule:evenodd;stroke:#000000;stroke-width:1.1257806;stroke-linecap:butt;stroke-linejoin:round;stroke-miterlimit:4.0000000;stroke-opacity:1.0000000"
     d="M 43.437999,75.482245 C 37.380005,72.711312 26.588565,76.506867 22.703427,66.084032 C 18.741648,55.455595 31.227371,40.418329 29.362001,30.182613 C 27.496633,19.946900 21.554598,16.189456 2.4884834,6.0975475 C 29.305696,13.500278 36.153398,19.712810 39.515539,29.302157 C 42.811416,38.702505 36.864809,51.508586 37.371463,60.210825 C 37.878116,68.913065 41.415819,70.391772 43.437999,75.482245 z "
     id="path1101"
     sodipodi:nodetypes="czzczzc" />
  <path
     d="M 58.884648,62.030367 L 79.629308,12.503981 C 80.265348,10.788877 77.674118,7.9460079 73.603648,5.9330111 C 69.542148,3.9190307 65.804068,3.6592283 65.098858,5.3352626 L 44.308295,55.164099 L 43.685561,75.026948 C 43.655899,75.972798 44.870593,76.544985 45.507598,75.885239 L 58.884648,62.030367 z "
     style="fill:url(#linearGradient1132);fill-opacity:1.0000000"
     id="path145" />
  <path
     d="M 45.267525,55.850732 L 44.547948,75.324383 L 57.508598,61.853589 L 57.417868,61.809644 C 57.514888,61.736386 57.602928,61.656299 57.674798,61.565468 L 57.743068,61.598670 L 78.329028,12.355858 C 78.947098,10.890796 76.686818,8.3366957 73.288318,6.6489353 C 69.886228,4.9611858 66.633258,4.7824422 66.017878,6.2465307 L 45.367246,55.457115 L 45.267525,55.850732 z "
     style="fill:#fff0dc"
     id="path147" />
  <path
     d="M 66.144548,5.9496125 C 65.724118,7.0747824 66.928818,8.8045420 69.020208,10.303790 L 48.293216,59.690178 C 46.444389,58.379434 45.362761,56.613542 45.334904,55.481530 L 66.134668,5.9437546 L 66.144548,5.9496125 z "
     style="fill:url(#linearGradient1131);fill-opacity:1.0000000"
     id="path162" />
  <path
     d="M 57.876028,61.404310 C 57.407978,62.521665 55.322887,62.632037 52.925156,61.939544 L 73.644068,12.574643 C 75.996878,13.267124 77.940518,13.145059 78.438218,12.082391 L 58.460868,59.989052 C 58.450978,60.029095 57.983838,61.144506 57.876028,61.404310 z "
     style="fill:url(#linearGradient1130);fill-opacity:1.0000000"
     id="path177" />
  <path
     d="M 50.407957,60.950133 C 49.635358,60.567259 48.929257,60.138495 48.293216,59.689206 L 69.020208,10.303790 C 69.669718,10.765768 70.395598,11.211157 71.190648,11.605747 C 72.030608,12.022806 72.862498,12.345113 73.644968,12.573661 L 52.926060,61.939544 C 52.122926,61.710025 51.268577,61.377937 50.407957,60.950133 z "
     style="fill:url(#linearGradient1129);fill-opacity:1.0000000"
     id="path192" />
  <path
     d="M 74.564848,10.476212 C 74.127268,10.887884 72.742448,10.619436 71.472128,9.8766899 C 70.201808,9.1339439 69.527278,8.1983011 69.965708,7.7871269 C 70.403288,7.3754557 71.788118,7.6439031 73.058438,8.3866502 C 74.328758,9.1293962 75.003278,10.065038 74.564848,10.476212 L 74.564848,10.476212 z "
     style="fill:#000000;fill-opacity:1.0000000;stroke:#000000;stroke-width:0.18440235;stroke-linecap:butt;stroke-linejoin:round;stroke-miterlimit:4.0000000;stroke-dashoffset:0.0000000;stroke-opacity:0.084374972"
     id="path6041" />
  <path
     d="M 44.729871,67.924513 L 44.487200,75.384596 L 49.556387,70.199571 C 48.271111,70.745785 45.270203,69.723272 44.729871,67.924513 z "
     style="fill:url(#linearGradient1128);fill-opacity:1.0000000;fill-rule:evenodd;stroke:none;stroke-width:0.094361210pt;stroke-linecap:butt;stroke-linejoin:miter;stroke-opacity:1.0000000"
     id="path6042" />
  <path
     d="M 74.336818,9.6180883 C 73.557238,9.2954062 72.606378,8.8113636 72.177988,8.9970695 C 71.742838,9.1856937 70.906678,8.9544412 70.091128,8.7230772 C 69.416968,7.5810320 70.480908,7.5510420 71.440388,7.7367371 C 72.382518,7.9190778 74.138928,8.9787953 74.336818,9.6180883 z "
     style="fill:url(#linearGradient1127);fill-opacity:1.0000000;fill-rule:evenodd;stroke:none;stroke-width:0.25000000pt;stroke-linecap:butt;stroke-linejoin:miter;stroke-opacity:1.0000000"
     id="path7289" />
  <path
     style="fill:none;fill-opacity:1.0000000;fill-rule:evenodd;stroke:url(#linearGradient4879);stroke-width:1.0485783;stroke-linecap:butt;stroke-linejoin:round;stroke-miterlimit:4.0000000;stroke-opacity:1.0000000"
     d="M 42.187892,74.521761 C 37.234586,71.932728 26.738747,74.701203 23.467050,65.170213 C 20.130817,55.451212 32.261561,40.249227 30.633227,30.910764 C 29.004895,21.572303 21.903483,16.148313 3.9390229,6.5559508 C 28.216970,15.064477 35.067140,20.340366 38.322523,28.645210 C 41.577903,36.950054 35.807565,52.605906 36.314922,60.533461 C 36.822280,68.461016 40.488682,69.865491 42.187892,74.521761 z "
     id="path4254"
     sodipodi:nodetypes="czzczzc" />
</svg>
