<?xml version="1.0" encoding="UTF-8" standalone="no"?>
<!DOCTYPE svg PUBLIC "-//W3C//DTD SVG 20010904//EN"
"http://www.w3.org/TR/2001/REC-SVG-20010904/DTD/svg10.dtd">
<!-- Created with Inkscape (http://www.inkscape.org/) -->
<svg
   width="64pt"
   height="64pt"
   id="svg9809"
   sodipodi:version="0.32"
   inkscape:version="0.40"
   sodipodi:docbase="/home/nuno/kdeplayground-artwork/oooicons/crystalsvg"
   sodipodi:docname="favorite.svg"
   inkscape:export-filename="/home/nuno/kdeplayground-artwork/oooicons/crystalsvg/favorite.png"
   inkscape:export-xdpi="36.000000"
   inkscape:export-ydpi="36.000000"
   xmlns="http://www.w3.org/2000/svg"
   xmlns:cc="http://web.resource.org/cc/"
   xmlns:inkscape="http://www.inkscape.org/namespaces/inkscape"
   xmlns:sodipodi="http://sodipodi.sourceforge.net/DTD/sodipodi-0.dtd"
   xmlns:rdf="http://www.w3.org/1999/02/22-rdf-syntax-ns#"
   xmlns:dc="http://purl.org/dc/elements/1.1/"
   xmlns:xlink="http://www.w3.org/1999/xlink">
  <defs
     id="defs3">
    <linearGradient
       inkscape:collect="always"
       xlink:href="#redtodarkred"
       id="linearGradient1125"
       gradientUnits="userSpaceOnUse"
       x1="-799.36414"
       y1="-442.00742"
       x2="364.46487"
       y2="354.34375"
       gradientTransform="matrix(0.201866,0.000000,0.000000,0.208746,-0.117358,3.598974)" />
    <linearGradient
       id="redtodarkred">
      <stop
         style="stop-color:#ff0000;stop-opacity:1.0000000;"
         offset="0.0000000"
         id="stop3856" />
      <stop
         style="stop-color:#920000;stop-opacity:1.0000000;"
         offset="1.0000000"
         id="stop3855" />
    </linearGradient>
    <linearGradient
       inkscape:collect="always"
       xlink:href="#redtodarkred"
       id="linearGradient1124"
       gradientUnits="userSpaceOnUse"
       gradientTransform="matrix(0.221749,0.000000,0.000000,0.199344,1.205673,-0.580556)"
       x1="99.897820"
       y1="5.8390570"
       x2="118.24639"
       y2="615.23419" />
    <linearGradient
       id="light75to0">
      <stop
         style="stop-color:#ffffff;stop-opacity:0.72916669;"
         offset="0.0000000"
         id="stop2769" />
      <stop
         style="stop-color:#ffffff;stop-opacity:0.0000000;"
         offset="1.0000000"
         id="stop2770" />
    </linearGradient>
    <radialGradient
       inkscape:collect="always"
       xlink:href="#light75to0"
       id="radialGradient7306"
       gradientTransform="matrix(0.217023,0.000000,0.000000,0.194167,-0.117334,3.598975)"
       cx="202.13837"
       cy="54.969162"
       fx="202.13837"
       fy="54.969162"
       r="50.502575"
       gradientUnits="userSpaceOnUse" />
    <linearGradient
       inkscape:collect="always"
       xlink:href="#light100to0"
       id="linearGradient3567"
       gradientUnits="userSpaceOnUse"
       gradientTransform="matrix(0.221749,0.000000,0.000000,0.199344,1.205697,-0.580557)"
       x1="163.62212"
       y1="-3.6444321"
       x2="242.50249"
       y2="276.63190" />
    <linearGradient
       id="light100to25to0">
      <stop
         style="stop-color:#ffffff;stop-opacity:1.0000000;"
         offset="0.0000000"
         id="stop2785" />
      <stop
         style="stop-color:#ffffff;stop-opacity:0.28749999;"
         offset="0.50000000"
         id="stop2786" />
      <stop
         style="stop-color:#ffffff;stop-opacity:0.0000000;"
         offset="1.0000000"
         id="stop2787" />
    </linearGradient>
    <radialGradient
       inkscape:collect="always"
       xlink:href="#light100to25to0"
       id="radialGradient4191"
       gradientTransform="matrix(0.216271,0.000000,0.000000,0.181912,-0.117334,3.874241)"
       cx="20.115261"
       cy="58.964947"
       fx="20.115261"
       fy="58.964947"
       r="76.998276"
       gradientUnits="userSpaceOnUse" />
    <linearGradient
       id="light100to0">
      <stop
         style="stop-color:#ffffff;stop-opacity:1.0000000;"
         offset="0.0000000"
         id="stop2764" />
      <stop
         style="stop-color:#ffffff;stop-opacity:0.0000000;"
         offset="1.0000000"
         id="stop2765" />
    </linearGradient>
    <radialGradient
       inkscape:collect="always"
       xlink:href="#light100to0"
       id="radialGradient6056"
       gradientUnits="userSpaceOnUse"
       gradientTransform="scale(1.053559,0.949164)"
       cx="39.561695"
       cy="74.003716"
       fx="39.561695"
       fy="74.003716"
       r="41.278152" />
    <linearGradient
       inkscape:collect="always"
       id="linearGradient9802">
      <stop
         style="stop-color:#000000;stop-opacity:1;"
         offset="0"
         id="stop9803" />
      <stop
         style="stop-color:#000000;stop-opacity:0;"
         offset="1"
         id="stop9804" />
    </linearGradient>
    <linearGradient
       inkscape:collect="always"
       xlink:href="#linearGradient9802"
       id="linearGradient9805"
       gradientTransform="matrix(0.216845,0.000000,0.000000,0.194326,0.417014,4.456500)"
       x1="292.81448"
       y1="313.33301"
       x2="242.68181"
       y2="267.98221"
       gradientUnits="userSpaceOnUse" />
  </defs>
  <sodipodi:namedview
     id="base"
     pagecolor="#ffffff"
     bordercolor="#666666"
     borderopacity="1.0"
     inkscape:pageopacity="0.0"
     inkscape:pageshadow="2"
     inkscape:zoom="6.5626990"
     inkscape:cx="32.900216"
     inkscape:cy="68.279477"
     inkscape:current-layer="layer1"
     showgrid="true"
     inkscape:grid-bbox="true"
     gridspacingy="1.0000000pt"
     gridspacingx="1.0000000pt"
     gridoriginy="0.0000000pt"
     gridoriginx="0.0000000pt"
     inkscape:window-width="640"
     inkscape:window-height="538"
     inkscape:window-x="327"
     inkscape:window-y="154" />
  <metadata
     id="metadata4">
    <rdf:RDF
       id="RDF5">
      <cc:Work
         rdf:about=""
         id="Work6">
        <dc:format
           id="format7">image/svg+xml</dc:format>
        <dc:type
           id="type9"
           rdf:resource="http://purl.org/dc/dcmitype/StillImage" />
      </cc:Work>
    </rdf:RDF>
  </metadata>
  <g
     id="layer1"
     inkscape:label="Layer 1"
     inkscape:groupmode="layer">
    <path
       style="fill:none;fill-opacity:1.0000000;fill-rule:evenodd;stroke:#6f0000;stroke-width:2.6686013;stroke-linecap:butt;stroke-linejoin:round;stroke-miterlimit:4.0000000;stroke-opacity:0.094262250"
       d="M 22.008618,7.7472085 C 11.477912,7.7472085 2.9372932,16.588981 2.9373460,27.478638 C 2.9373460,32.457829 4.7344042,36.995478 7.6807435,40.468046 L 7.6807435,40.659829 L 39.342648,74.016476 L 71.707245,41.154370 L 71.707245,41.093829 C 74.981653,37.551327 77.006983,32.762267 77.006983,27.478638 C 77.006983,16.588981 68.456633,7.7472085 57.925929,7.7472085 C 49.632505,7.7472085 42.594004,13.239757 39.967261,20.888028 C 37.339655,13.241477 30.300880,7.7472085 22.008618,7.7472085 z "
       id="path8556" />
    <path
       style="fill:none;fill-opacity:1.0000000;fill-rule:evenodd;stroke:#6f0000;stroke-width:3.0021768;stroke-linecap:butt;stroke-linejoin:round;stroke-miterlimit:4.0000000;stroke-opacity:0.094262250"
       d="M 22.008618,7.7472085 C 11.477912,7.7472085 2.9372932,16.588981 2.9373460,27.478638 C 2.9373460,32.457829 4.7344042,36.995478 7.6807435,40.468046 L 7.6807435,40.659829 L 39.342648,74.016476 L 71.707245,41.154370 L 71.707245,41.093829 C 74.981653,37.551327 77.006983,32.762267 77.006983,27.478638 C 77.006983,16.588981 68.456633,7.7472085 57.925929,7.7472085 C 49.632505,7.7472085 42.594004,13.239757 39.967261,20.888028 C 37.339655,13.241477 30.300880,7.7472085 22.008618,7.7472085 z "
       id="path8555" />
    <path
       style="fill:none;fill-opacity:1.0000000;fill-rule:evenodd;stroke:#6f0000;stroke-width:3.7719657;stroke-linecap:butt;stroke-linejoin:round;stroke-miterlimit:4.0000000;stroke-opacity:0.094262250"
       d="M 22.008618,7.7472085 C 11.477912,7.7472085 2.9372932,16.588981 2.9373460,27.478638 C 2.9373460,32.457829 4.7344042,36.995478 7.6807435,40.468046 L 7.6807435,40.659829 L 39.342648,74.016476 L 71.707245,41.154370 L 71.707245,41.093829 C 74.981653,37.551327 77.006983,32.762267 77.006983,27.478638 C 77.006983,16.588981 68.456633,7.7472085 57.925929,7.7472085 C 49.632505,7.7472085 42.594004,13.239757 39.967261,20.888028 C 37.339655,13.241477 30.300880,7.7472085 22.008618,7.7472085 z "
       id="path8554" />
    <path
       style="fill:none;fill-opacity:1.0000000;fill-rule:evenodd;stroke:#6f0000;stroke-width:4.7470317;stroke-linecap:butt;stroke-linejoin:round;stroke-miterlimit:4.0000000;stroke-opacity:0.094262250"
       d="M 22.008618,7.7472085 C 11.477912,7.7472085 2.9372932,16.588981 2.9373460,27.478638 C 2.9373460,32.457829 4.7344042,36.995478 7.6807435,40.468046 L 7.6807435,40.659829 L 39.342648,74.016476 L 71.707245,41.154370 L 71.707245,41.093829 C 74.981653,37.551327 77.006983,32.762267 77.006983,27.478638 C 77.006983,16.588981 68.456633,7.7472085 57.925929,7.7472085 C 49.632505,7.7472085 42.594004,13.239757 39.967261,20.888028 C 37.339655,13.241477 30.300880,7.7472085 22.008618,7.7472085 z "
       id="path7928" />
    <path
       style="fill:url(#linearGradient1124);fill-opacity:1.0000000;fill-rule:evenodd;stroke:url(#linearGradient1125);stroke-width:1.6935356;stroke-linecap:butt;stroke-linejoin:round;stroke-miterlimit:4.0000000;stroke-opacity:1.0000000"
       d="M 22.008618,7.7472085 C 11.477912,7.7472085 2.9372932,16.588981 2.9373460,27.478638 C 2.9373460,32.457829 4.7344042,36.995478 7.6807435,40.468046 L 7.6807435,40.659829 L 39.342648,74.016476 L 71.707245,41.154370 L 71.707245,41.093829 C 74.981653,37.551327 77.006983,32.762267 77.006983,27.478638 C 77.006983,16.588981 68.456633,7.7472085 57.925929,7.7472085 C 49.632505,7.7472085 42.594004,13.239757 39.967261,20.888028 C 37.339655,13.241477 30.300880,7.7472085 22.008618,7.7472085 z "
       id="path3990" />
    <path
       style="fill:url(#radialGradient7306);fill-opacity:1.0000000;fill-rule:evenodd;stroke:none;stroke-width:13.954967;stroke-linecap:butt;stroke-linejoin:round;stroke-miterlimit:4.0000000;stroke-opacity:1.0000000"
       d="M 22.008618,7.7472085 C 11.477912,7.7472085 2.9372932,16.588981 2.9373460,27.478638 C 2.9373460,32.457829 4.7344042,36.995478 7.6807435,40.468046 L 7.6807435,40.659829 L 39.514187,70.107572 L 71.707245,41.154370 L 71.707245,41.093829 C 74.981653,37.551327 77.006983,32.762267 77.006983,27.478638 C 77.006983,16.588981 68.456633,7.7472085 57.925929,7.7472085 C 49.632505,7.7472085 42.594004,13.239757 39.967261,20.888028 C 37.339655,13.241477 30.300880,7.7472085 22.008618,7.7472085 z "
       id="path6678"
       sodipodi:nodetypes="ccccccccccc" />
    <path
       style="fill:url(#linearGradient3567);fill-opacity:1.0000000;fill-rule:evenodd;stroke:none;stroke-width:16.750704;stroke-linecap:butt;stroke-linejoin:round;stroke-miterlimit:4.0000000;stroke-opacity:1.0000000"
       d="M 21.665535,8.0729514 C 11.134831,8.0729514 2.0795865,18.054821 3.2804287,29.270220 C 13.664727,48.900545 69.327759,32.645011 74.948491,26.012799 C 74.948491,15.611756 68.456633,9.0501780 57.925929,9.0501780 C 49.632505,9.0501780 43.623251,13.076885 40.996507,20.725158 L 39.780841,21.303862 C 35.216116,10.073056 25.811666,8.0729514 21.665535,8.0729514 z "
       id="path2323"
       sodipodi:nodetypes="ccccccc" />
    <path
       style="fill:url(#radialGradient4191);fill-opacity:1.0000000;fill-rule:evenodd;stroke:none;stroke-width:16.750704;stroke-linecap:butt;stroke-linejoin:round;stroke-miterlimit:4.0000000;stroke-opacity:1.0000000"
       d="M 22.008618,7.7472085 C 11.477912,7.7472085 2.9372932,16.002256 2.9373460,26.169294 C 2.9373460,30.818070 4.7344042,35.054613 7.6807435,38.296745 L 7.6807435,38.475805 L 39.171108,72.224893 L 71.707245,38.937526 L 71.707245,38.881003 C 74.981653,35.573576 77.006983,31.102310 77.006983,26.169294 C 77.006983,16.002256 68.456633,7.7472085 57.925929,7.7472085 C 49.632505,7.7472085 42.594004,12.875280 39.967261,20.016026 C 37.339655,12.876887 30.300880,7.7472085 22.008618,7.7472085 z "
       id="path3568"
       sodipodi:nodetypes="ccccccccccc" />
    <path
       style="fill:url(#radialGradient6056);fill-opacity:1.0;fill-rule:evenodd;stroke:none;stroke-width:16.750704;stroke-linecap:butt;stroke-linejoin:round;stroke-miterlimit:4.0000000;stroke-opacity:1.0000000;"
       d="M 21.665535,7.2585967 C 11.134832,7.2585967 2.5942105,16.100369 2.5942670,26.990025 C 2.5942670,31.969215 4.3913214,36.506866 7.3376608,39.979433 C 7.3376608,40.043363 7.3376608,40.107290 7.3376608,40.171216 C 17.891630,51.290099 36.746124,71.878623 39.336273,71.961045 C 42.094618,72.048821 60.575964,51.619794 71.364163,40.665757 C 71.364163,40.645578 71.364163,40.625395 71.364163,40.605221 C 74.638571,37.062714 76.663901,32.273655 76.663901,26.990025 C 76.663901,16.100369 68.113551,7.2585967 57.582845,7.2585967 C 49.289422,7.2585967 42.250921,12.751142 39.624179,20.399416 C 36.996573,12.752865 29.957797,7.2585967 21.665535,7.2585967 z "
       id="path5434"
       sodipodi:nodetypes="cccczcccccc" />
    <path
       style="fill:none;fill-opacity:1.0000000;fill-rule:evenodd;stroke:#000000;stroke-width:0.64149076;stroke-linecap:butt;stroke-linejoin:round;stroke-miterlimit:4.0000000;stroke-opacity:0.028688492"
       d="M 22.008618,7.7472085 C 11.477912,7.7472085 2.9372932,16.588981 2.9373460,27.478638 C 2.9373460,32.457829 4.7344042,36.995478 7.6807435,40.468046 L 7.6807435,40.659829 L 39.342648,74.016476 L 71.707245,41.154370 L 71.707245,41.093829 C 74.981653,37.551327 77.006983,32.762267 77.006983,27.478638 C 77.006983,16.588981 68.456633,7.7472085 57.925929,7.7472085 C 49.632505,7.7472085 42.594004,13.239757 39.967261,20.888028 C 37.339655,13.241477 30.300880,7.7472085 22.008618,7.7472085 z "
       id="path9178" />
    <path
       style="fill:none;fill-opacity:1.0000000;fill-rule:evenodd;stroke:#000000;stroke-width:0.92374676;stroke-linecap:butt;stroke-linejoin:round;stroke-miterlimit:4.0000000;stroke-opacity:0.028688492"
       d="M 22.008618,7.7472085 C 11.477912,7.7472085 2.9372932,16.588981 2.9373460,27.478638 C 2.9373460,32.457829 4.7344042,36.995478 7.6807435,40.468046 L 7.6807435,40.659829 L 39.342648,74.016476 L 71.707245,41.154370 L 71.707245,41.093829 C 74.981653,37.551327 77.006983,32.762267 77.006983,27.478638 C 77.006983,16.588981 68.456633,7.7472085 57.925929,7.7472085 C 49.632505,7.7472085 42.594004,13.239757 39.967261,20.888028 C 37.339655,13.241477 30.300880,7.7472085 22.008618,7.7472085 z "
       id="path9800" />
    <path
       style="fill:url(#linearGradient9805);fill-opacity:1.0000000;fill-rule:evenodd;stroke:#000000;stroke-width:1.9757916;stroke-linecap:butt;stroke-linejoin:round;stroke-miterlimit:4.0000000;stroke-opacity:0.057377044"
       d="M 22.542990,8.6047346 C 12.012284,8.6047346 3.4716652,17.446507 3.4717182,28.336164 C 3.4717182,33.315355 5.9549422,37.364392 8.9012812,40.836959 C 12.332100,44.321178 37.271120,73.201643 39.705480,72.756679 C 43.403315,73.183438 64.351079,48.312709 71.822814,40.921657 C 75.097224,37.379152 76.512104,33.456925 76.512104,28.173293 C 76.512104,17.283637 68.991005,8.6047346 58.460301,8.6047346 C 50.166877,8.6047346 43.128376,14.097283 40.501633,21.745554 C 37.874027,14.099003 30.835252,8.6047346 22.542990,8.6047346 z "
       id="path9801"
       sodipodi:nodetypes="ccccccccc" />
    <path
       style="fill:none;fill-opacity:1.0000000;fill-rule:evenodd;stroke:#000000;stroke-width:1.6678760;stroke-linecap:butt;stroke-linejoin:round;stroke-miterlimit:4.0000000;stroke-opacity:0.057377044"
       d="M 22.008618,7.7472085 C 11.477912,7.7472085 2.9372932,16.588981 2.9373460,27.478638 C 2.9373460,32.457829 5.4205695,36.506866 8.3669088,39.979433 C 11.797728,43.463652 36.736748,72.344117 39.171108,71.899153 C 42.868943,72.325912 63.245297,48.788475 70.717035,41.397423 C 73.991444,37.854918 76.663901,32.599399 76.663901,27.315767 C 76.663901,16.426111 68.456633,7.7472085 57.925929,7.7472085 C 49.632505,7.7472085 42.594004,13.239757 39.967261,20.888028 C 37.339655,13.241477 30.300880,7.7472085 22.008618,7.7472085 z "
       id="path9806"
       sodipodi:nodetypes="ccccccccc" />
  </g>
</svg>
