<?xml version="1.0" encoding="UTF-8" standalone="no"?>
<!-- Created with Inkscape (http://www.inkscape.org/) -->
<svg
   xmlns:dc="http://purl.org/dc/elements/1.1/"
   xmlns:cc="http://web.resource.org/cc/"
   xmlns:rdf="http://www.w3.org/1999/02/22-rdf-syntax-ns#"
   xmlns:svg="http://www.w3.org/2000/svg"
   xmlns="http://www.w3.org/2000/svg"
   xmlns:xlink="http://www.w3.org/1999/xlink"
   xmlns:sodipodi="http://inkscape.sourceforge.net/DTD/sodipodi-0.dtd"
   xmlns:inkscape="http://www.inkscape.org/namespaces/inkscape"
   version="1.0"
   width="64pt"
   height="64pt"
   id="svg7354"
   sodipodi:version="0.32"
   inkscape:version="0.43"
   sodipodi:docname="lc039.svg"
   sodipodi:docbase="D:\oo svn\crystalsvg"
   inkscape:export-filename="D:\oo svn\crystalsvg\lc039.png"
   inkscape:export-xdpi="24.75"
   inkscape:export-ydpi="24.75">
  <metadata
     id="metadata4766">
    <rdf:RDF>
      <cc:Work
         rdf:about="">
        <dc:format>image/svg+xml</dc:format>
        <dc:type
           rdf:resource="http://purl.org/dc/dcmitype/StillImage" />
      </cc:Work>
    </rdf:RDF>
  </metadata>
  <sodipodi:namedview
     inkscape:window-height="540"
     inkscape:window-width="756"
     inkscape:pageshadow="2"
     inkscape:pageopacity="0.0"
     borderopacity="1.0"
     bordercolor="#666666"
     pagecolor="#ffffff"
     id="base"
     inkscape:zoom="4.675"
     inkscape:cx="40"
     inkscape:cy="40"
     inkscape:window-x="88"
     inkscape:window-y="88"
     inkscape:current-layer="svg7354" />
  <defs
     id="defs3">
    <linearGradient
       id="linearGradient800">
      <stop
         style="stop-color:#ff8a00;stop-opacity:1"
         offset="0"
         id="stop998" />
      <stop
         style="stop-color:#d14300;stop-opacity:1"
         offset="1"
         id="stop999" />
    </linearGradient>
    <linearGradient
       x1="172.17661"
       y1="186.34784"
       x2="175.23796"
       y2="188.19106"
       id="linearGradient13"
       xlink:href="#linearGradient800"
       gradientUnits="userSpaceOnUse"
       gradientTransform="scale(0.968768,1.032239)" />
    <linearGradient
       id="linearGradient3430">
      <stop
         style="stop-color:#ff0000;stop-opacity:0.25773194"
         offset="0"
         id="stop3432" />
      <stop
         style="stop-color:#ff0000;stop-opacity:1"
         offset="1"
         id="stop3440" />
    </linearGradient>
    <linearGradient
       id="linearGradient3422">
      <stop
         style="stop-color:#000000;stop-opacity:1"
         offset="0"
         id="stop3424" />
      <stop
         style="stop-color:#000000;stop-opacity:0"
         offset="1"
         id="stop3426" />
    </linearGradient>
    <linearGradient
       id="linearGradient3412">
      <stop
         style="stop-color:#020202;stop-opacity:1"
         offset="0"
         id="stop3414" />
      <stop
         style="stop-color:#020202;stop-opacity:0"
         offset="1"
         id="stop3416" />
    </linearGradient>
    <linearGradient
       x1="204.50159"
       y1="389.26682"
       x2="157.17761"
       y2="33.684902"
       id="linearGradient11715"
       xlink:href="#light75to25"
       gradientUnits="userSpaceOnUse"
       gradientTransform="matrix(0.26199,0,0,0.195406,-0.241151,-2.103282)" />
    <linearGradient
       x1="25.429714"
       y1="908.73114"
       x2="26.983191"
       y2="1636.9476"
       id="linearGradient11714"
       xlink:href="#light75to0"
       gradientUnits="userSpaceOnUse"
       gradientTransform="matrix(1.484665,0,0,3.448209e-2,-0.985657,-2.103282)" />
    <radialGradient
       cx="10.581309"
       cy="109.47668"
       r="20.256409"
       fx="10.581309"
       fy="109.47668"
       id="radialGradient11732"
       xlink:href="#light75to25"
       gradientUnits="userSpaceOnUse"
       gradientTransform="matrix(1.96269,0,0,0.491404,-1.533059e-16,-2.105017)" />
    <linearGradient
       x1="-97.926331"
       y1="237.45135"
       x2="-131.83235"
       y2="237.45128"
       id="linearGradient11712"
       xlink:href="#greylighttograyw"
       gradientUnits="userSpaceOnUse"
       gradientTransform="matrix(-0.586594,0,0,0.192322,-17.88064,-26.599)" />
    <linearGradient
       x1="-3.7884023"
       y1="-176.20081"
       x2="182.76266"
       y2="-176.20081"
       id="linearGradient11711"
       xlink:href="#greylighttograyw"
       gradientUnits="userSpaceOnUse"
       gradientTransform="matrix(0.148917,0,0,4.571521e-2,10.09206,29.05464)" />
    <linearGradient
       x1="47.088493"
       y1="288.71985"
       x2="147.45784"
       y2="318.55823"
       id="linearGradient11710"
       xlink:href="#greandarktobgrean"
       gradientUnits="userSpaceOnUse"
       gradientTransform="matrix(0.392902,0,0,0.151874,-1.218243,-10.10213)" />
    <linearGradient
       x1="88.280212"
       y1="346.27313"
       x2="91.25544"
       y2="7.8491359"
       id="linearGradient11709"
       xlink:href="#blueligtmoretoblue"
       gradientUnits="userSpaceOnUse"
       gradientTransform="matrix(0.392902,0,0,0.151874,-1.218243,-10.10213)" />
    <linearGradient
       x1="9.456131"
       y1="100.79401"
       x2="24.150972"
       y2="119.57645"
       id="linearGradient11734"
       xlink:href="#greandarktobgrean"
       gradientUnits="userSpaceOnUse"
       gradientTransform="matrix(1.558695,0,0,0.506782,9.774335,-2.105017)" />
    <linearGradient
       x1="89.195503"
       y1="508.11624"
       x2="113.8574"
       y2="265.25018"
       id="linearGradient11733"
       xlink:href="#bluelignonlinblu"
       gradientUnits="userSpaceOnUse"
       gradientTransform="matrix(0.471048,0,0,0.158343,-21.81347,-12.92376)" />
    <linearGradient
       x1="177.67627"
       y1="197.17021"
       x2="241.45786"
       y2="229.39137"
       id="linearGradient11706"
       xlink:href="#greantodarkgrean"
       gradientUnits="userSpaceOnUse"
       gradientTransform="matrix(0.186801,0,0,0.319439,-1.218243,-10.10212)" />
    <radialGradient
       cx="505.07764"
       cy="256.32291"
       r="50.787479"
       fx="505.07764"
       fy="256.32291"
       id="radialGradient11705"
       xlink:href="#linearGradient6033"
       gradientUnits="userSpaceOnUse"
       gradientTransform="matrix(0.226314,0,0,0.38701,-43.46646,-48.25942)" />
    <linearGradient
       x1="99.531555"
       y1="23.449991"
       x2="72.015907"
       y2="50.717243"
       id="linearGradient11704"
       xlink:href="#greantodarkgrean"
       gradientUnits="userSpaceOnUse"
       gradientTransform="scale(0.764707,1.307691)" />
    <radialGradient
       cx="505.07764"
       cy="256.32291"
       r="50.787479"
       fx="505.07764"
       fy="256.32291"
       id="radialGradient11703"
       xlink:href="#linearGradient6033"
       gradientUnits="userSpaceOnUse"
       gradientTransform="matrix(0.226314,0,0,0.38701,-50.30382,-47.12472)" />
    <linearGradient
       x1="88.592339"
       y1="31.063423"
       x2="78.253319"
       y2="59.375664"
       id="linearGradient11702"
       xlink:href="#greantodarkgrean"
       gradientUnits="userSpaceOnUse"
       gradientTransform="scale(0.764707,1.307691)" />
    <linearGradient
       x1="73.793877"
       y1="31.161697"
       x2="57.08625"
       y2="39.699635"
       id="linearGradient11701"
       xlink:href="#greantodarkgrean"
       gradientUnits="userSpaceOnUse"
       gradientTransform="scale(0.764707,1.307691)" />
    <radialGradient
       cx="505.07764"
       cy="256.32291"
       r="50.787479"
       fx="505.07764"
       fy="256.32291"
       id="radialGradient11700"
       xlink:href="#linearGradient6033"
       gradientUnits="userSpaceOnUse"
       gradientTransform="matrix(0.226314,0,0,0.38701,-65.70628,-47.55111)" />
    <linearGradient
       x1="470.45776"
       y1="229.92291"
       x2="516.85187"
       y2="302.13821"
       id="linearGradient11699"
       xlink:href="#greantodarkgrean"
       gradientUnits="userSpaceOnUse"
       gradientTransform="matrix(0.226314,0,0,0.38701,-65.70628,-47.55111)" />
    <linearGradient
       x1="143.99066"
       y1="149.22978"
       x2="124.7396"
       y2="229.20729"
       id="linearGradient11698"
       xlink:href="#greantodarkgrean"
       gradientUnits="userSpaceOnUse"
       gradientTransform="matrix(0.358908,0,0,0.319439,-39.03212,-10.10212)" />
    <radialGradient
       cx="505.07764"
       cy="256.32291"
       r="50.787479"
       fx="505.07764"
       fy="256.32291"
       id="radialGradient11697"
       xlink:href="#linearGradient6033"
       gradientUnits="userSpaceOnUse"
       gradientTransform="matrix(0.226314,0,0,0.38701,-39.44641,-57.89361)" />
    <linearGradient
       x1="99.531555"
       y1="23.449991"
       x2="72.015907"
       y2="50.717243"
       id="linearGradient11696"
       xlink:href="#greantodarkgrean"
       gradientUnits="userSpaceOnUse"
       gradientTransform="scale(0.764707,1.307691)" />
    <linearGradient
       x1="143.99066"
       y1="149.22978"
       x2="124.7396"
       y2="229.20729"
       id="linearGradient11695"
       xlink:href="#greantodarkgrean"
       gradientUnits="userSpaceOnUse"
       gradientTransform="matrix(0.358908,0,0,0.319439,-48.12516,-9.675719)" />
    <linearGradient
       id="light75to25">
      <stop
         style="stop-color:#ffffff;stop-opacity:0.72941178"
         offset="0"
         id="stop2774" />
      <stop
         style="stop-color:#ffffff;stop-opacity:0.26249999"
         offset="1"
         id="stop2775" />
    </linearGradient>
    <linearGradient
       id="greylighttograyw">
      <stop
         style="stop-color:#b5b5b8;stop-opacity:1"
         offset="0"
         id="stop575" />
      <stop
         style="stop-color:#ebebee;stop-opacity:1"
         offset="1"
         id="stop576" />
    </linearGradient>
    <linearGradient
       id="greandarktobgrean">
      <stop
         style="stop-color:#00ad01;stop-opacity:1"
         offset="0"
         id="stop4492" />
      <stop
         style="stop-color:#15720f;stop-opacity:1"
         offset="1"
         id="stop4493" />
    </linearGradient>
    <radialGradient
       cx="38.797401"
       cy="112.9609"
       r="67.358803"
       fx="38.797401"
       fy="112.9609"
       id="blueligtmoretoblue"
       gradientUnits="userSpaceOnUse">
      <stop
         style="stop-color:#d9ffff;stop-opacity:1"
         offset="0.0056"
         id="stop3457" />
      <stop
         style="stop-color:#6eaafe;stop-opacity:1"
         offset="0.7421757"
         id="stop3465" />
      <stop
         style="stop-color:#0356fe;stop-opacity:1"
         offset="1"
         id="stop3463" />
    </radialGradient>
    <linearGradient
       id="greandraktoblack">
      <stop
         style="stop-color:#007c00;stop-opacity:1"
         offset="0"
         id="stop7328" />
      <stop
         style="stop-color:#025a00;stop-opacity:1"
         offset="1"
         id="stop7329" />
    </linearGradient>
    <radialGradient
       cx="38.797401"
       cy="112.9609"
       r="67.358803"
       fx="38.797401"
       fy="112.9609"
       id="bluelignonlinblu"
       gradientUnits="userSpaceOnUse">
      <stop
         style="stop-color:#d9ffff;stop-opacity:1"
         offset="0.0056"
         id="stop84" />
      <stop
         style="stop-color:#95d9ff;stop-opacity:1"
         offset="0.1348"
         id="stop86" />
      <stop
         style="stop-color:#68b9ff;stop-opacity:1"
         offset="0.32049999"
         id="stop88" />
      <stop
         style="stop-color:#3293fe;stop-opacity:1"
         offset="0.56800002"
         id="stop90" />
      <stop
         style="stop-color:#107bfe;stop-opacity:1"
         offset="0.75340003"
         id="stop92" />
      <stop
         style="stop-color:#0372fe;stop-opacity:1"
         offset="0.85390002"
         id="stop94" />
      <stop
         style="stop-color:#0356fe;stop-opacity:1"
         offset="1"
         id="stop96" />
    </radialGradient>
    <linearGradient
       id="linearGradient6033">
      <stop
         style="stop-color:#000000;stop-opacity:1"
         offset="0"
         id="stop6034" />
      <stop
         style="stop-color:#000000;stop-opacity:0"
         offset="1"
         id="stop6035" />
    </linearGradient>
    <linearGradient
       id="greantodarkgrean">
      <stop
         style="stop-color:#00ff01;stop-opacity:1"
         offset="0"
         id="stop5123" />
      <stop
         style="stop-color:#15980f;stop-opacity:1"
         offset="1"
         id="stop5124" />
    </linearGradient>
    <linearGradient
       x1="122.43015"
       y1="59.053604"
       x2="272.46765"
       y2="323.76923"
       id="linearGradient3623"
       xlink:href="#graytolightgray"
       gradientUnits="userSpaceOnUse"
       gradientTransform="matrix(0.182431,0,0,0.213888,4.641008,0.357569)" />
    <radialGradient
       cx="74.495102"
       cy="81.1689"
       r="23.6936"
       fx="74.495102"
       fy="81.1689"
       id="radialGradient3622"
       xlink:href="#XMLID_9_"
       gradientUnits="userSpaceOnUse"
       gradientTransform="matrix(0.696376,0,0,0.816451,10.14487,4.039048)" />
    <linearGradient
       id="graytolightgray">
      <stop
         style="stop-color:#d4d3d3;stop-opacity:1"
         offset="0"
         id="stop5101" />
      <stop
         style="stop-color:#ffffff;stop-opacity:1"
         offset="1"
         id="stop5102" />
    </linearGradient>
    <linearGradient
       x1="284.17496"
       y1="340.20792"
       x2="330.93881"
       y2="273.80606"
       id="linearGradient3621"
       xlink:href="#graytolightgray"
       gradientUnits="userSpaceOnUse"
       gradientTransform="matrix(0.182431,0,0,0.213888,4.641008,0.357569)" />
    <linearGradient
       id="light75to0">
      <stop
         style="stop-color:#ffffff;stop-opacity:0.72916669"
         offset="0"
         id="stop2769" />
      <stop
         style="stop-color:#ffffff;stop-opacity:0"
         offset="1"
         id="stop2770" />
    </linearGradient>
    <radialGradient
       cx="53.182602"
       cy="52.577991"
       r="508.29517"
       fx="53.182602"
       fy="52.577991"
       id="radialGradient6111"
       xlink:href="#light75to0"
       gradientUnits="userSpaceOnUse"
       gradientTransform="matrix(0.222656,0,0,0.175247,4.641008,1.797e-2)" />
    <linearGradient
       x1="245.91402"
       y1="248.01839"
       x2="561.86395"
       y2="513.91156"
       id="linearGradient3619"
       xlink:href="#garylighttowite"
       gradientUnits="userSpaceOnUse"
       gradientTransform="matrix(0.182431,0,0,0.213888,4.641008,0.357569)" />
    <linearGradient
       id="garylighttowite">
      <stop
         style="stop-color:#7d7d7d;stop-opacity:1"
         offset="0"
         id="stop5106" />
      <stop
         style="stop-color:#d3d4d4;stop-opacity:1"
         offset="1"
         id="stop5107" />
    </linearGradient>
    <linearGradient
       x1="-37.332329"
       y1="-50.289883"
       x2="578.44397"
       y2="648.29797"
       id="linearGradient3618"
       xlink:href="#garylighttowite"
       gradientUnits="userSpaceOnUse"
       gradientTransform="matrix(0.182431,0,0,0.213888,4.641008,0.357569)" />
    <radialGradient
       cx="74.495102"
       cy="81.1689"
       r="23.6936"
       fx="74.495102"
       fy="81.1689"
       id="radialGradient7426"
       xlink:href="#XMLID_9_"
       gradientUnits="userSpaceOnUse"
       gradientTransform="matrix(0.696376,0,0,0.816451,10.14487,4.039048)" />
    <radialGradient
       cx="53.182602"
       cy="52.577991"
       r="508.29517"
       fx="53.182602"
       fy="52.577991"
       id="radialGradient1100"
       xlink:href="#light75to0"
       gradientUnits="userSpaceOnUse"
       gradientTransform="matrix(0.261654,0,0,0.186725,-2.105708,-3.658607)" />
    <linearGradient
       x1="122.43015"
       y1="59.053604"
       x2="272.46765"
       y2="323.76923"
       id="linearGradient1101"
       xlink:href="#graytolightgray"
       gradientUnits="userSpaceOnUse"
       gradientTransform="matrix(0.214385,0,0,0.222911,-2.107421,-3.381642)" />
    <linearGradient
       x1="-37.332329"
       y1="-50.289883"
       x2="578.44397"
       y2="648.29797"
       id="linearGradient1102"
       xlink:href="#garylighttowite"
       gradientUnits="userSpaceOnUse"
       gradientTransform="matrix(0.214385,0,0,0.227898,-2.019841,-3.272408)" />
    <linearGradient
       x1="245.91402"
       y1="248.01839"
       x2="561.86395"
       y2="513.91156"
       id="linearGradient1103"
       xlink:href="#garylighttowite"
       gradientUnits="userSpaceOnUse"
       gradientTransform="matrix(0.214385,0,0,0.235132,-2.392798,-5.817338)" />
    <linearGradient
       x1="284.17496"
       y1="340.20792"
       x2="330.93881"
       y2="273.80606"
       id="linearGradient1104"
       xlink:href="#graytolightgray"
       gradientUnits="userSpaceOnUse"
       gradientTransform="matrix(0.214385,0,0,0.236477,-2.648122,-6.210872)" />
    <linearGradient
       x1="-35.494362"
       y1="25.668449"
       x2="-13.703498"
       y2="25.668449"
       id="linearGradient3420"
       xlink:href="#linearGradient3412"
       gradientUnits="userSpaceOnUse"
       gradientTransform="translate(133.6364,-11.62567)" />
    <linearGradient
       x1="-35.494362"
       y1="25.668449"
       x2="-13.703498"
       y2="25.668449"
       id="linearGradient3428"
       xlink:href="#linearGradient3422"
       gradientUnits="userSpaceOnUse" />
    <radialGradient
       cx="-24.59893"
       cy="25.668449"
       r="10.895433"
       fx="-24.59893"
       fy="25.668449"
       id="radialGradient3430"
       xlink:href="#bluelignonlinblu"
       gradientUnits="userSpaceOnUse"
       gradientTransform="matrix(1,0,0,1.122161,133.6364,-14.76136)" />
    <radialGradient
       cx="145"
       cy="12"
       r="10.064501"
       fx="145"
       fy="12"
       id="radialGradient3425"
       xlink:href="#blueligtmoretoblue"
       gradientUnits="userSpaceOnUse" />
    <linearGradient
       x1="172.17661"
       y1="186.34784"
       x2="175.23796"
       y2="188.19106"
       id="linearGradient4012"
       xlink:href="#linearGradient3430"
       gradientUnits="userSpaceOnUse"
       gradientTransform="matrix(0.907328,0.339512,-0.361756,0.966773,22.96269,-214.9256)" />
    <linearGradient
       x1="172.17661"
       y1="186.34784"
       x2="175.23796"
       y2="188.19106"
       id="linearGradient4948"
       xlink:href="#linearGradient3430"
       gradientUnits="userSpaceOnUse"
       gradientTransform="matrix(2.244359,0.839814,-0.894837,2.391402,-174.0566,-567.5614)" />
    <linearGradient
       x1="190.11575"
       y1="151.51718"
       x2="266.35638"
       y2="218.46164"
       id="linearGradient14654"
       xlink:href="#linearGradient5268"
       gradientUnits="userSpaceOnUse"
       gradientTransform="matrix(0.999994,-3.582198e-3,3.582198e-3,0.999994,0,0)" />
    <linearGradient
       x1="16.879744"
       y1="80.154938"
       x2="-9.3134556"
       y2="77.205276"
       id="linearGradient14653"
       xlink:href="#garylighttowite"
       gradientUnits="userSpaceOnUse"
       gradientTransform="matrix(0.999994,-3.582204e-3,3.582204e-3,0.999994,224.8481,139.4264)" />
    <radialGradient
       cx="262.35825"
       cy="234.94638"
       r="74.08799"
       fx="262.35825"
       fy="234.94638"
       id="radialGradient14652"
       xlink:href="#light75to0"
       gradientUnits="userSpaceOnUse"
       gradientTransform="scale(1.018448,0.981886)" />
    <radialGradient
       cx="227.65804"
       cy="210.55679"
       r="49.857635"
       fx="227.65804"
       fy="210.55679"
       id="radialGradient14651"
       xlink:href="#sadow75to0w"
       gradientUnits="userSpaceOnUse"
       gradientTransform="scale(1.018381,0.981951)" />
    <linearGradient
       x1="16.879744"
       y1="80.154938"
       x2="-9.3134556"
       y2="77.205276"
       id="linearGradient14650"
       xlink:href="#garylighttowite"
       gradientUnits="userSpaceOnUse"
       gradientTransform="matrix(0.999994,-3.582204e-3,3.582204e-3,0.999994,224.8481,131.9264)" />
    <linearGradient
       x1="242.5191"
       y1="181.63605"
       x2="216.75307"
       y2="170.21925"
       id="linearGradient14649"
       xlink:href="#light75to0"
       gradientUnits="userSpaceOnUse"
       gradientTransform="matrix(0.999994,-3.582203e-3,3.582203e-3,0.999994,-0.905689,-1.584956)" />
    <linearGradient
       x1="13.340878"
       y1="63.247265"
       x2="1.6239637"
       y2="33.23325"
       id="linearGradient14648"
       xlink:href="#garylighttowite"
       gradientUnits="userSpaceOnUse"
       gradientTransform="matrix(0.999994,-3.582204e-3,3.582204e-3,0.999994,223.7271,126.8315)" />
    <linearGradient
       x1="16.879744"
       y1="80.154938"
       x2="-9.3134556"
       y2="77.205276"
       id="linearGradient14647"
       xlink:href="#garylighttowite"
       gradientUnits="userSpaceOnUse"
       gradientTransform="matrix(0.999994,-3.582204e-3,3.582204e-3,0.999994,224.8481,121.9264)" />
    <linearGradient
       x1="127.14183"
       y1="207.17534"
       x2="169.35942"
       y2="233.46652"
       id="linearGradient14646"
       xlink:href="#wihitetolightgray"
       gradientUnits="userSpaceOnUse"
       gradientTransform="matrix(0.999994,-3.582203e-3,3.582203e-3,0.999994,85,-5)" />
    <linearGradient
       x1="127.14183"
       y1="207.17534"
       x2="169.35942"
       y2="233.46652"
       id="linearGradient6173"
       xlink:href="#wihitetolightgray"
       gradientUnits="userSpaceOnUse"
       gradientTransform="matrix(0.999994,-3.582203e-3,3.582203e-3,0.999994,85,-5)" />
    <linearGradient
       id="wihitetolightgray">
      <stop
         style="stop-color:#ffffff;stop-opacity:1"
         offset="0"
         id="stop1885" />
      <stop
         style="stop-color:#d5d4d4;stop-opacity:1"
         offset="1"
         id="stop1886" />
    </linearGradient>
    <linearGradient
       x1="16.879744"
       y1="80.154938"
       x2="-9.3134556"
       y2="77.205276"
       id="linearGradient6174"
       xlink:href="#garylighttowite"
       gradientUnits="userSpaceOnUse"
       gradientTransform="matrix(0.999994,-3.582204e-3,3.582204e-3,0.999994,224.8481,121.9264)" />
    <linearGradient
       id="linearGradient5276">
      <stop
         style="stop-color:#7d7d7d;stop-opacity:1"
         offset="0"
         id="stop5278" />
      <stop
         style="stop-color:#d3d4d4;stop-opacity:1"
         offset="1"
         id="stop5280" />
    </linearGradient>
    <linearGradient
       x1="13.340878"
       y1="63.247265"
       x2="1.6239637"
       y2="33.23325"
       id="linearGradient6171"
       xlink:href="#garylighttowite"
       gradientUnits="userSpaceOnUse"
       gradientTransform="matrix(0.999994,-3.582204e-3,3.582204e-3,0.999994,223.7271,126.8315)" />
    <linearGradient
       x1="242.5191"
       y1="181.63605"
       x2="216.75307"
       y2="170.21925"
       id="linearGradient6172"
       xlink:href="#light75to0"
       gradientUnits="userSpaceOnUse"
       gradientTransform="matrix(0.999994,-3.582203e-3,3.582203e-3,0.999994,-0.905689,-1.584956)" />
    <linearGradient
       id="linearGradient5268">
      <stop
         style="stop-color:#ffffff;stop-opacity:0.72916669"
         offset="0"
         id="stop5270" />
      <stop
         style="stop-color:#ffffff;stop-opacity:0"
         offset="1"
         id="stop5272" />
    </linearGradient>
    <linearGradient
       x1="16.879744"
       y1="80.154938"
       x2="-9.3134556"
       y2="77.205276"
       id="linearGradient11884"
       xlink:href="#garylighttowite"
       gradientUnits="userSpaceOnUse"
       gradientTransform="matrix(0.999994,-3.582204e-3,3.582204e-3,0.999994,224.8481,131.9264)" />
    <radialGradient
       cx="227.65804"
       cy="210.55679"
       r="49.857635"
       fx="227.65804"
       fy="210.55679"
       id="radialGradient13821"
       xlink:href="#sadow75to0w"
       gradientUnits="userSpaceOnUse"
       gradientTransform="scale(1.018381,0.981951)" />
    <linearGradient
       id="sadow75to0w">
      <stop
         style="stop-color:#000000;stop-opacity:0.72941178"
         offset="0"
         id="stop3429" />
      <stop
         style="stop-color:#ffffff;stop-opacity:0"
         offset="1"
         id="stop3430" />
    </linearGradient>
    <radialGradient
       cx="262.35825"
       cy="234.94638"
       r="74.08799"
       fx="262.35825"
       fy="234.94638"
       id="radialGradient13195"
       xlink:href="#light75to0"
       gradientUnits="userSpaceOnUse"
       gradientTransform="scale(1.018448,0.981886)" />
    <linearGradient
       x1="16.879744"
       y1="80.154938"
       x2="-9.3134556"
       y2="77.205276"
       id="linearGradient11886"
       xlink:href="#garylighttowite"
       gradientUnits="userSpaceOnUse"
       gradientTransform="matrix(0.999994,-3.582204e-3,3.582204e-3,0.999994,224.8481,139.4264)" />
    <linearGradient
       x1="190.11575"
       y1="151.51718"
       x2="266.35638"
       y2="218.46164"
       id="linearGradient6170"
       xlink:href="#light100to0"
       gradientUnits="userSpaceOnUse"
       gradientTransform="matrix(0.999994,-3.582198e-3,3.582198e-3,0.999994,0,0)" />
    <linearGradient
       id="light100to0">
      <stop
         style="stop-color:#ffffff;stop-opacity:1"
         offset="0"
         id="stop2764" />
      <stop
         style="stop-color:#ffffff;stop-opacity:0"
         offset="1"
         id="stop2765" />
    </linearGradient>
  </defs>
  <rect
     width="25.000017"
     height="25.000004"
     x="96.184067"
     y="-21.035015"
     transform="matrix(0.936579,0.350458,-0.350458,0.936579,0,0)"
     style="fill:none;fill-rule:evenodd;stroke:none;stroke-width:0.0520834;stroke-opacity:1"
     id="rect1608" />
  <g
     id="layer1">
    <path
       d="M 39.509854,4.4174568 L 75.259949,4.0634956 L 75.259949,58.396561 L 55.438113,79.280279 L 10.838986,79.280279 L 10.662005,69.015401 L 39.509854,4.4174568 z "
       style="fill:#cbcbcb;fill-opacity:1;fill-rule:evenodd;stroke:none;stroke-width:0.25pt;stroke-linecap:butt;stroke-linejoin:miter;stroke-opacity:1"
       id="path1105" />
    <path
       d="M 9.0691797,1.7627466 L 72.605239,1.9397274 L 72.251278,55.918831 L 53.314346,75.917647 L 8.8921991,76.448589 L 9.0691797,1.7627466 z "
       style="fill:#ffffff;fill-opacity:1;fill-rule:evenodd;stroke:none;stroke-width:0.25pt;stroke-linecap:butt;stroke-linejoin:miter;stroke-opacity:1"
       id="path1727" />
    <path
       d="M 72.089418,2.156041 C 72.089418,3.0094395 72.089418,55.934195 72.089418,56.289993 C 71.854547,56.539664 53.794424,75.737254 53.559554,75.987792 C 53.226484,75.987792 9.8949462,75.987792 9.0937773,75.987792 C 9.0937773,75.133531 9.0937773,3.011183 9.0937773,2.1569117 C 9.8965782,2.156041 71.287431,2.156041 72.089418,2.156041 z M 72.498582,1.2861105 L 8.2754359,1.2861105 L 8.2754359,76.856856 L 53.898354,76.856856 L 72.907759,56.649281 L 72.907759,1.2861105 L 72.498582,1.2861105 z "
       style="fill:#000000;fill-opacity:1"
       id="path225" />
    <path
       d="M 70.496118,3.2256058 L 10.511198,3.2256058 L 10.421993,74.409307 L 53.096395,74.409307 L 70.496118,56.271752 L 70.496118,3.2256058 z "
       style="fill:url(#linearGradient1101);fill-opacity:1"
       id="path146" />
    <path
       d="M 70.649963,9.7427222 L 70.649963,3.0486252 L 10.476004,3.0486252 L 10.421993,41.818754 C 33.536049,49.764241 66.992767,29.711949 70.649963,9.7427222 z "
       style="fill:url(#radialGradient1100);fill-opacity:1"
       id="path195" />
    <path
       d="M 53.728951,75.684757 L 72.499406,55.732061 L 53.728951,55.732061 L 53.728951,75.684757 z "
       style="fill:#ffffff"
       id="path163" />
    <path
       d="M 54.400973,75.319054 L 70.920153,57.099402 L 54.400973,57.099402 L 54.400973,75.319054 z "
       style="fill:url(#linearGradient1104);fill-opacity:1"
       id="path178" />
    <path
       d="M 53.771411,55.926647 C 53.545547,55.926647 53.362235,56.127701 53.362235,56.375418 L 53.362235,76.407619 C 53.362235,76.589821 53.462074,76.753169 53.615109,76.82318 C 53.768134,76.891394 53.944078,76.854596 54.061105,76.725348 L 72.830734,56.693147 C 72.947762,56.5648 72.982955,56.371835 72.919937,56.203992 C 72.856106,56.03615 72.707162,55.926647 72.541039,55.926647 L 53.771411,55.926647 z M 71.553299,56.824192 C 70.308582,58.189353 55.425292,73.958229 54.180586,75.324289 C 54.180586,73.424187 54.180586,57.638266 54.180586,56.824192 C 54.921183,56.824192 69.820849,56.824192 71.553299,56.824192 z "
       style="fill:#000000;fill-opacity:1"
       id="path210"
       sodipodi:nodetypes="cccsccscccccc" />
  </g>
  <g
     transform="matrix(0.39098,0,0,0.39098,38.3108,2.886079)"
     id="g5296">
    <g
       transform="translate(6.250582e-2,1.187484)"
       id="g14600">
      <path
         d="M 195.82544,161.52373 C 195.30077,161.52702 194.88009,161.93512 194.8819,162.43999 L 195.13165,232.35894 C 195.13416,232.86169 195.55777,233.26959 196.08244,233.26771 L 268.59716,233.00653 C 269.12183,233.00465 269.54321,232.59443 269.5407,232.09169 L 269.32689,172.20792 C 269.32482,172.02549 269.26832,171.8468 269.16242,171.69656 L 262.07172,161.68735 C 261.89406,161.43908 261.60077,161.2874 261.28611,161.28923 L 195.82544,161.52373 z "
         transform="translate(-192.3819,-158.2677)"
         id="path3555" />
      <g
         transform="matrix(0.709635,0.704569,-0.704569,0.709635,-29.3485,-31.5146)"
         id="g10635">
        <path
           d="M 97.977,42.557 L 97.59,42.17 L 94.502,45.255 L 97.479,48.231 L 97.883,47.826 L 95.295,45.24 L 97.977,42.557 z "
           style="fill:#999999"
           id="path10637" />
        <path
           d="M 97.977,42.557 L 95.295,45.24 L 97.883,47.826 L 100.565,45.145 L 97.977,42.557 z "
           style="fill:#eeeeee"
           id="path10639" />
      </g>
      <path
         d="M 257.20946,225.52911 C 257.21981,227.82789 255.13347,229.69931 252.55184,229.70785 L 210.8512,229.85723 C 208.26887,229.86648 206.16987,228.00793 206.16235,225.71055 L 206.06374,198.97362 C 206.05692,196.67412 208.14397,194.80341 210.7263,194.79274 L 252.42482,194.64549 C 255.00574,194.63483 257.10544,196.49267 257.11368,198.79075 L 257.20946,225.52911 z "
         transform="translate(-192.3819,-158.2677)"
         style="fill:url(#linearGradient14646);fill-opacity:1"
         id="path3526" />
      <path
         d="M 210.70585,200.67923 C 210.35372,200.68191 210.07257,200.95657 210.07518,201.29173 C 210.07498,201.62973 210.35949,201.89812 210.7095,201.89616 L 252.46671,201.74657 C 252.81743,201.74532 253.09718,201.4749 253.09598,201.13832 C 253.09477,200.80174 252.81236,200.5284 252.46376,200.53035 L 210.70585,200.67923 z "
         transform="translate(-192.3819,-158.2677)"
         style="fill:url(#linearGradient14647);fill-opacity:1"
         id="path3535" />
      <path
         d="M 253.9361,189.35846 L 217.89794,189.48756 L 217.80614,163.66348 L 253.84217,163.53368 L 253.9361,189.35846 z "
         transform="translate(-192.3819,-158.2677)"
         style="fill:url(#linearGradient14648);fill-opacity:1"
         id="path3502" />
      <path
         d="M 251.88068,185.61754 L 243.07725,185.64766 L 243.00383,165.1516 L 251.80866,165.11864 L 251.88068,185.61754 z "
         transform="translate(-192.3819,-158.2677)"
         id="path3517" />
      <path
         d="M 209.08463,162.28594 C 208.56066,162.28711 208.13921,162.67894 208.14023,163.16189 L 208.23732,190.06642 C 208.23905,190.55007 208.66259,190.93817 209.18655,190.93559 L 254.50825,190.77253 C 255.03292,190.77065 255.45437,190.38023 255.45264,189.89657 L 255.35626,162.99276 C 255.35454,162.51051 254.92888,162.12313 254.40633,162.12288 L 209.08463,162.28594 z M 253.46577,163.8721 C 253.47143,165.45177 253.55025,187.45395 253.5552,189.03433 C 251.78037,189.04069 211.90265,189.18354 210.12782,189.1899 C 210.12216,187.60882 210.04263,165.60593 210.03839,164.02767 C 211.81322,164.02131 251.68882,163.87776 253.46577,163.8721 z "
         transform="translate(-192.3819,-158.2677)"
         style="opacity:0.3;fill:url(#linearGradient14649);fill-opacity:1"
         id="path3515" />
      <path
         d="M 210.70585,210.67923 C 210.35372,210.68191 210.07257,210.95657 210.07518,211.29173 C 210.07498,211.62973 210.35949,211.89812 210.7095,211.89616 L 252.46671,211.74657 C 252.81743,211.74532 253.09718,211.4749 253.09598,211.13832 C 253.09477,210.80174 252.81236,210.5284 252.46376,210.53035 L 210.70585,210.67923 z "
         transform="translate(-192.3819,-158.2677)"
         style="fill:url(#linearGradient14650);fill-opacity:1"
         id="path11883" />
      <path
         d="M 264.12753,193.91556 C 264.19165,211.81656 249.19508,226.3802 230.63507,226.44527 C 212.06869,226.51249 196.96958,212.05524 196.90405,194.15849 C 196.84064,176.2582 211.8372,161.69315 230.40146,161.62665 C 248.9643,161.56015 264.06412,176.01669 264.12753,193.91556 z "
         transform="translate(-192.3819,-158.2677)"
         style="opacity:0.2;fill:url(#radialGradient14651);fill-opacity:1"
         id="path3476" />
      <g
         transform="matrix(0.709635,0.704569,-0.704569,0.709635,33.1515,-31.5146)"
         id="g3469">
        <path
           d="M 97.977,42.557 L 97.59,42.17 L 94.502,45.255 L 97.479,48.231 L 97.883,47.826 L 95.295,45.24 L 97.977,42.557 z "
           style="fill:#999999"
           id="path3471" />
        <path
           d="M 97.977,42.557 L 95.295,45.24 L 97.883,47.826 L 100.565,45.145 L 97.977,42.557 z "
           style="fill:#eeeeee"
           id="path3473" />
      </g>
      <path
         d="M 197.30957,163.15236 C 196.8088,163.15549 196.40728,163.54501 196.40901,164.02689 L 196.64739,230.76102 C 196.64977,231.24088 197.05408,231.6302 197.55486,231.62841 L 266.76653,231.37911 C 267.2673,231.37732 267.6695,230.98579 267.66709,230.50596 L 267.46302,173.34988 C 267.46105,173.17577 267.40713,173.00522 267.30605,172.86181 L 260.53833,163.30852 C 260.36875,163.07157 260.08883,162.92679 259.78851,162.92853 L 197.30957,163.15236 z "
         transform="translate(-192.3819,-158.2677)"
         style="fill:url(#radialGradient14652);fill-opacity:1;stroke:none"
         id="path13129" />
      <path
         d="M 210.70585,218.17923 C 210.35372,218.18191 210.07257,218.45657 210.07518,218.79173 C 210.07498,219.12973 210.35949,219.39812 210.7095,219.39616 L 252.46671,219.24657 C 252.81743,219.24532 253.09718,218.9749 253.09598,218.63832 C 253.09477,218.30174 252.81236,218.0284 252.46376,218.03035 L 210.70585,218.17923 z "
         transform="translate(-192.3819,-158.2677)"
         style="fill:url(#linearGradient14653);fill-opacity:1"
         id="path11885" />
      <path
         d="M 195.82544,161.52373 C 195.30077,161.52702 194.88009,161.93512 194.8819,162.43999 L 195.13165,232.35894 C 195.13416,232.86169 195.55777,233.26959 196.08244,233.26771 L 268.59716,233.00653 C 269.12183,233.00465 269.54321,232.59443 269.5407,232.09169 L 269.32689,172.20792 C 269.32482,172.02549 269.26832,171.8468 269.16242,171.69656 L 262.07172,161.68735 C 261.89406,161.43908 261.60077,161.2874 261.28611,161.28923 L 195.82544,161.52373 z "
         transform="translate(-192.3819,-158.2677)"
         style="fill:none;stroke:#000000;stroke-width:5.125;stroke-miterlimit:4;stroke-opacity:0.05194804"
         id="path13974" />
      <path
         d="M 195.82544,161.52373 C 195.30077,161.52702 194.88009,161.93512 194.8819,162.43999 L 195.13165,232.35894 C 195.13416,232.86169 195.55777,233.26959 196.08244,233.26771 L 268.59716,233.00653 C 269.12183,233.00465 269.54321,232.59443 269.5407,232.09169 L 269.32689,172.20792 C 269.32482,172.02549 269.26832,171.8468 269.16242,171.69656 L 262.07172,161.68735 C 261.89406,161.43908 261.60077,161.2874 261.28611,161.28923 L 195.82544,161.52373 z "
         transform="translate(-192.3819,-158.2677)"
         style="fill:none;stroke:#000000;stroke-width:3.75;stroke-miterlimit:4;stroke-opacity:0.05194804"
         id="path14596" />
      <path
         d="M 195.82544,161.52373 C 195.30077,161.52702 194.88009,161.93512 194.8819,162.43999 L 195.13165,232.35894 C 195.13416,232.86169 195.55777,233.26959 196.08244,233.26771 L 268.59716,233.00653 C 269.12183,233.00465 269.54321,232.59443 269.5407,232.09169 L 269.32689,172.20792 C 269.32482,172.02549 269.26832,171.8468 269.16242,171.69656 L 262.07172,161.68735 C 261.89406,161.43908 261.60077,161.2874 261.28611,161.28923 L 195.82544,161.52373 z "
         transform="translate(-192.3819,-158.2677)"
         style="fill:none;stroke:#000000;stroke-width:2.75;stroke-miterlimit:4;stroke-opacity:0.05194804"
         id="path14597" />
      <path
         d="M 195.82544,161.52373 C 195.30077,161.52702 194.88009,161.93512 194.8819,162.43999 L 195.13165,232.35894 C 195.13416,232.86169 195.55777,233.26959 196.08244,233.26771 L 268.59716,233.00653 C 269.12183,233.00465 269.54321,232.59443 269.5407,232.09169 L 269.32689,172.20792 C 269.32482,172.02549 269.26832,171.8468 269.16242,171.69656 L 262.07172,161.68735 C 261.89406,161.43908 261.60077,161.2874 261.28611,161.28923 L 195.82544,161.52373 z "
         transform="translate(-192.3819,-158.2677)"
         style="fill:none;stroke:#000000;stroke-width:2.25;stroke-miterlimit:4;stroke-opacity:0.05194804"
         id="path14598" />
      <path
         d="M 195.82544,161.52373 C 195.30077,161.52702 194.88009,161.93512 194.8819,162.43999 L 195.13165,232.35894 C 195.13416,232.86169 195.55777,233.26959 196.08244,233.26771 L 268.59716,233.00653 C 269.12183,233.00465 269.54321,232.59443 269.5407,232.09169 L 269.32689,172.20792 C 269.32482,172.02549 269.26832,171.8468 269.16242,171.69656 L 262.07172,161.68735 C 261.89406,161.43908 261.60077,161.2874 261.28611,161.28923 L 195.82544,161.52373 z "
         transform="translate(-192.3819,-158.2677)"
         style="fill:none;stroke:#000000;stroke-width:1.25;stroke-miterlimit:4;stroke-opacity:0.05194804"
         id="path14599" />
    </g>
  </g>
</svg>
