<?xml version="1.0" encoding="UTF-8" standalone="no"?>
<!-- Created with Inkscape (http://www.inkscape.org/) -->
<svg
   xmlns:dc="http://purl.org/dc/elements/1.1/"
   xmlns:cc="http://web.resource.org/cc/"
   xmlns:rdf="http://www.w3.org/1999/02/22-rdf-syntax-ns#"
   xmlns:svg="http://www.w3.org/2000/svg"
   xmlns="http://www.w3.org/2000/svg"
   xmlns:xlink="http://www.w3.org/1999/xlink"
   xmlns:sodipodi="http://inkscape.sourceforge.net/DTD/sodipodi-0.dtd"
   xmlns:inkscape="http://www.inkscape.org/namespaces/inkscape"
   inkscape:export-ydpi="36.000000"
   inkscape:export-xdpi="36.000000"
   inkscape:export-filename="/home/nuno/kdeplayground-artwork/oooicons/crystalsvg/Ic05711.png"
   sodipodi:docname="lc05711.svg"
   sodipodi:docbase="/home/nuno/kdeplayground-artwork/oooicons/crystalsvg"
   inkscape:version="0.41"
   sodipodi:version="0.32"
   id="svg7354"
   height="64pt"
   width="64pt">
  <defs
     id="defs3">
    <linearGradient
       gradientTransform="matrix(0.182431,0.000000,0.000000,0.213888,4.641008,0.357569)"
       y2="323.76923"
       x2="272.46765"
       y1="59.053604"
       x1="122.43015"
       gradientUnits="userSpaceOnUse"
       id="linearGradient3623"
       xlink:href="#graytolightgray"
       inkscape:collect="always" />
    <radialGradient
       gradientTransform="matrix(0.696376,0.000000,0.000000,0.816451,10.14487,4.039048)"
       r="23.6936"
       fy="81.1689"
       fx="74.4951"
       cy="81.1689"
       cx="74.4951"
       gradientUnits="userSpaceOnUse"
       id="radialGradient3622"
       xlink:href="#XMLID_9_"
       inkscape:collect="always" />
    <linearGradient
       id="graytolightgray">
      <stop
         id="stop5101"
         offset="0.0000000"
         style="stop-color:#d4d3d3;stop-opacity:1.0000000;" />
      <stop
         id="stop5102"
         offset="1.0000000"
         style="stop-color:#ffffff;stop-opacity:1.0000000;" />
    </linearGradient>
    <linearGradient
       gradientTransform="matrix(0.182431,0.000000,0.000000,0.213888,4.641008,0.357569)"
       y2="273.80606"
       x2="330.93881"
       y1="340.20792"
       x1="284.17496"
       gradientUnits="userSpaceOnUse"
       id="linearGradient3621"
       xlink:href="#graytolightgray"
       inkscape:collect="always" />
    <linearGradient
       id="light75to0">
      <stop
         id="stop2769"
         offset="0.0000000"
         style="stop-color:#ffffff;stop-opacity:0.72916669;" />
      <stop
         id="stop2770"
         offset="1.0000000"
         style="stop-color:#ffffff;stop-opacity:0.0000000;" />
    </linearGradient>
    <radialGradient
       gradientUnits="userSpaceOnUse"
       r="508.29517"
       fy="52.577991"
       fx="53.182602"
       cy="52.577991"
       cx="53.182602"
       gradientTransform="matrix(0.222656,0.000000,0.000000,0.175247,4.641008,1.797000e-2)"
       id="radialGradient6111"
       xlink:href="#light75to0"
       inkscape:collect="always" />
    <linearGradient
       gradientTransform="matrix(0.182431,0.000000,0.000000,0.213888,4.641008,0.357569)"
       y2="513.91156"
       x2="561.86395"
       y1="248.01839"
       x1="245.91402"
       gradientUnits="userSpaceOnUse"
       id="linearGradient3619"
       xlink:href="#garylighttowite"
       inkscape:collect="always" />
    <linearGradient
       id="garylighttowite">
      <stop
         id="stop5106"
         offset="0.0000000"
         style="stop-color:#7d7d7d;stop-opacity:1.0000000;" />
      <stop
         id="stop5107"
         offset="1.0000000"
         style="stop-color:#d3d4d4;stop-opacity:1.0000000;" />
    </linearGradient>
    <linearGradient
       gradientTransform="matrix(0.182431,0.000000,0.000000,0.213888,4.641008,0.357569)"
       y2="648.29797"
       x2="578.44397"
       y1="-50.289883"
       x1="-37.332329"
       gradientUnits="userSpaceOnUse"
       id="linearGradient3618"
       xlink:href="#garylighttowite"
       inkscape:collect="always" />
    <radialGradient
       r="23.6936"
       fy="81.1689"
       fx="74.4951"
       cy="81.1689"
       cx="74.4951"
       gradientTransform="matrix(0.696376,0.000000,0.000000,0.816451,10.14487,4.039048)"
       gradientUnits="userSpaceOnUse"
       id="radialGradient7426"
       xlink:href="#XMLID_9_"
       inkscape:collect="always" />
    <radialGradient
       r="508.29517"
       fy="52.577991"
       fx="53.182602"
       cy="52.577991"
       cx="53.182602"
       gradientTransform="matrix(0.244309,0.000000,0.000000,0.174347,0.307056,1.072164)"
       gradientUnits="userSpaceOnUse"
       id="radialGradient1100"
       xlink:href="#light75to0"
       inkscape:collect="always" />
    <linearGradient
       y2="323.76923"
       x2="272.46765"
       y1="59.053604"
       x1="122.43015"
       gradientTransform="matrix(0.200172,0.000000,0.000000,0.208133,0.305456,1.330768)"
       gradientUnits="userSpaceOnUse"
       id="linearGradient1101"
       xlink:href="#graytolightgray"
       inkscape:collect="always" />
    <linearGradient
       y2="648.29797"
       x2="578.44397"
       y1="-50.289883"
       x1="-37.332329"
       gradientTransform="matrix(0.200172,0.000000,0.000000,0.212790,0.387230,1.432760)"
       gradientUnits="userSpaceOnUse"
       id="linearGradient1102"
       xlink:href="#garylighttowite"
       inkscape:collect="always" />
    <linearGradient
       y2="513.91156"
       x2="561.86395"
       y1="248.01839"
       x1="245.91402"
       gradientTransform="matrix(0.200172,0.000000,0.000000,0.212790,3.899731e-2,1.431524)"
       gradientUnits="userSpaceOnUse"
       id="linearGradient1103"
       xlink:href="#garylighttowite"
       inkscape:collect="always" />
    <linearGradient
       y2="273.80606"
       x2="330.93881"
       y1="340.20792"
       x1="284.17496"
       gradientTransform="matrix(0.200172,0.000000,0.000000,0.212790,-0.199401,1.450844)"
       gradientUnits="userSpaceOnUse"
       id="linearGradient1104"
       xlink:href="#graytolightgray"
       inkscape:collect="always" />
    <linearGradient
       y2="323.76923"
       x2="272.46765"
       y1="59.053604"
       x1="122.43015"
       gradientTransform="matrix(0.200172,0.000000,0.000000,0.208133,0.305456,1.330768)"
       gradientUnits="userSpaceOnUse"
       id="linearGradient1099"
       xlink:href="#graytolightgray"
       inkscape:collect="always" />
    <linearGradient
       y2="273.80606"
       x2="330.93881"
       y1="340.20792"
       x1="284.17496"
       gradientTransform="matrix(0.200172,0.000000,0.000000,0.212790,-0.199401,1.450844)"
       gradientUnits="userSpaceOnUse"
       id="linearGradient1100"
       xlink:href="#graytolightgray"
       inkscape:collect="always" />
    <radialGradient
       r="508.29517"
       fy="52.577991"
       fx="53.182602"
       cy="52.577991"
       cx="53.182602"
       gradientTransform="matrix(0.244309,0.000000,0.000000,0.174347,0.307056,1.072164)"
       gradientUnits="userSpaceOnUse"
       id="radialGradient1101"
       xlink:href="#light75to0"
       inkscape:collect="always" />
    <linearGradient
       y2="513.91156"
       x2="561.86395"
       y1="248.01839"
       x1="245.91402"
       gradientTransform="matrix(0.200172,0.000000,0.000000,0.212790,3.899731e-2,1.431524)"
       gradientUnits="userSpaceOnUse"
       id="linearGradient1105"
       xlink:href="#garylighttowite"
       inkscape:collect="always" />
    <linearGradient
       y2="648.29797"
       x2="578.44397"
       y1="-50.289883"
       x1="-37.332329"
       gradientTransform="matrix(0.200172,0.000000,0.000000,0.212790,0.387230,1.432760)"
       gradientUnits="userSpaceOnUse"
       id="linearGradient1106"
       xlink:href="#garylighttowite"
       inkscape:collect="always" />
    <linearGradient
       y2="323.76923"
       x2="272.46765"
       y1="59.053604"
       x1="122.43015"
       gradientTransform="matrix(0.200172,0.000000,0.000000,0.208133,0.305456,1.330768)"
       gradientUnits="userSpaceOnUse"
       id="linearGradient1116"
       xlink:href="#graytolightgray"
       inkscape:collect="always" />
    <linearGradient
       y2="273.80606"
       x2="330.93881"
       y1="340.20792"
       x1="284.17496"
       gradientTransform="matrix(0.200172,0.000000,0.000000,0.212790,-0.199401,1.450844)"
       gradientUnits="userSpaceOnUse"
       id="linearGradient1117"
       xlink:href="#graytolightgray"
       inkscape:collect="always" />
    <radialGradient
       r="508.29517"
       fy="52.577991"
       fx="53.182602"
       cy="52.577991"
       cx="53.182602"
       gradientTransform="matrix(0.244309,0.000000,0.000000,0.174347,0.307056,1.072164)"
       gradientUnits="userSpaceOnUse"
       id="radialGradient1118"
       xlink:href="#light75to0"
       inkscape:collect="always" />
    <linearGradient
       y2="513.91156"
       x2="561.86395"
       y1="248.01839"
       x1="245.91402"
       gradientTransform="matrix(0.200172,0.000000,0.000000,0.212790,3.899731e-2,1.431524)"
       gradientUnits="userSpaceOnUse"
       id="linearGradient1119"
       xlink:href="#garylighttowite"
       inkscape:collect="always" />
    <linearGradient
       y2="648.29797"
       x2="578.44397"
       y1="-50.289883"
       x1="-37.332329"
       gradientTransform="matrix(0.200172,0.000000,0.000000,0.212790,0.387230,1.432760)"
       gradientUnits="userSpaceOnUse"
       id="linearGradient1120"
       xlink:href="#garylighttowite"
       inkscape:collect="always" />
  </defs>
  <sodipodi:namedview
     inkscape:window-y="25"
     inkscape:window-x="0"
     inkscape:window-height="903"
     inkscape:window-width="1001"
     gridoriginx="0.0000000pt"
     gridoriginy="0.0000000pt"
     gridspacingx="1.0000000pt"
     gridspacingy="1.0000000pt"
     inkscape:grid-bbox="false"
     showgrid="false"
     inkscape:current-layer="layer1"
     inkscape:cy="27.477321"
     inkscape:cx="33.017559"
     inkscape:zoom="9.0301567"
     inkscape:pageshadow="2"
     inkscape:pageopacity="0.0"
     borderopacity="1.0"
     bordercolor="#666666"
     pagecolor="#ffffff"
     id="base" />
  <metadata
     id="metadata4">
    <rdf:RDF
       id="RDF5">
      <cc:Work
         id="Work6"
         rdf:about="">
        <dc:format
           id="format7">image/svg+xml</dc:format>
        <dc:type
           rdf:resource="http://purl.org/dc/dcmitype/StillImage"
           id="type9" />
      </cc:Work>
    </rdf:RDF>
  </metadata>
  <g
     inkscape:groupmode="layer"
     inkscape:label="Layer 1"
     id="layer1">
    <g
       transform="matrix(0.808500,0.000000,0.000000,0.808500,-7.938136,-4.614983)"
       id="g1090">
      <path
         inkscape:export-ydpi="48.818890"
         inkscape:export-xdpi="48.818890"
         sodipodi:nodetypes="ccccccc"
         id="path1105"
         d="M 39.163789,8.6128394 L 72.543897,8.2823434 L 72.543897,59.013497 L 54.036114,78.512767 L 12.393604,78.512767 L 12.228356,68.928380 L 39.163789,8.6128394 z "
         style="fill:#cbcbcb;fill-opacity:1.0000000;fill-rule:evenodd;stroke:none;stroke-width:0.25000000pt;stroke-linecap:butt;stroke-linejoin:miter;stroke-opacity:1.0000000" />
      <path
         id="path1727"
         d="M 10.741124,6.1341184 L 70.065176,6.2993665 L 69.734680,56.700024 L 52.053138,75.373054 L 10.575876,75.868799 L 10.741124,6.1341184 z "
         style="fill:#ffffff;fill-opacity:1.0000000;fill-rule:evenodd;stroke:none;stroke-width:0.25000000pt;stroke-linecap:butt;stroke-linejoin:miter;stroke-opacity:1.0000000" />
      <path
         style="fill:url(#linearGradient1099);fill-opacity:1.0000000"
         id="path146"
         d="M 68.095876,7.5000000 L 12.087546,7.5000000 L 12.004256,73.964708 L 51.849636,73.964708 L 68.095876,57.029549 L 68.095876,7.5000000 z " />
      <path
         transform="matrix(1.097247,0.000000,0.000000,0.994866,-4.705100,0.387947)"
         style="fill:#ffffff"
         id="path163"
         d="M 52.080669,75.153495 L 68.053463,56.427387 L 52.080669,56.427387 L 52.080669,75.153495 z " />
      <path
         style="fill:url(#linearGradient1100);fill-opacity:1.0000000"
         id="path178"
         d="M 53.067729,74.814144 L 68.491799,58.419504 L 53.067729,58.419504 L 53.067729,74.814144 z " />
      <path
         sodipodi:nodetypes="ccccc"
         style="fill:url(#radialGradient1101);fill-opacity:1.0000000"
         id="path195"
         d="M 68.239521,13.585076 L 68.239521,7.3347520 L 12.054686,7.3347520 L 12.004256,43.534686 C 33.586007,50.953441 64.824773,32.230479 68.239521,13.585076 z " />
      <path
         style="fill:url(#linearGradient1105);fill-opacity:1.0000000"
         id="path210"
         d="M 52.092047,56.807354 C 51.881157,56.807354 51.709997,56.989304 51.709997,57.213483 L 51.709997,75.843451 C 51.709997,76.008339 51.803217,76.156166 51.946107,76.219524 C 52.088987,76.281256 52.253267,76.247955 52.362537,76.130989 L 69.887867,57.501022 C 69.997137,57.384870 70.029997,57.210240 69.971157,57.058346 C 69.911557,56.906453 69.772487,56.807354 69.617377,56.807354 L 52.092047,56.807354 z M 68.695117,57.619614 C 67.532917,58.855057 53.636287,73.626802 52.474097,74.863058 C 52.474097,73.143505 52.474097,58.356334 52.474097,57.619614 C 53.165597,57.619614 67.077517,57.619614 68.695117,57.619614 z " />
      <path
         style="fill:url(#linearGradient1106);fill-opacity:1.0000000"
         id="path225"
         d="M 69.583550,6.5013400 C 69.583550,7.2981640 69.583550,56.714370 69.583550,57.046580 C 69.364250,57.279700 52.501390,75.204620 52.282090,75.438550 C 51.971100,75.438550 11.512148,75.438550 10.764091,75.438550 C 10.764091,74.640920 10.764091,7.2997920 10.764091,6.5021530 C 11.513672,6.5013400 68.834730,6.5013400 69.583550,6.5013400 z M 69.965590,5.6890800 L 10.000000,5.6890800 L 10.000000,76.250000 L 52.598430,76.250000 L 70.347640,57.382050 L 70.347640,5.6890800 L 69.965590,5.6890800 z " />
    </g>
    <g
       transform="matrix(0.808500,0.000000,0.000000,0.808500,21.33667,16.50383)"
       id="g1107">
      <path
         inkscape:export-ydpi="48.818890"
         inkscape:export-xdpi="48.818890"
         sodipodi:nodetypes="ccccccc"
         id="path1108"
         d="M 39.163789,8.6128394 L 72.543897,8.2823434 L 72.543897,59.013497 L 54.036114,78.512767 L 12.393604,78.512767 L 12.228356,68.928380 L 39.163789,8.6128394 z "
         style="fill:#cbcbcb;fill-opacity:1.0000000;fill-rule:evenodd;stroke:none;stroke-width:0.25000000pt;stroke-linecap:butt;stroke-linejoin:miter;stroke-opacity:1.0000000" />
      <path
         id="path1109"
         d="M 10.741124,6.1341184 L 70.065176,6.2993665 L 69.734680,56.700024 L 52.053138,75.373054 L 10.575876,75.868799 L 10.741124,6.1341184 z "
         style="fill:#ffffff;fill-opacity:1.0000000;fill-rule:evenodd;stroke:none;stroke-width:0.25000000pt;stroke-linecap:butt;stroke-linejoin:miter;stroke-opacity:1.0000000" />
      <path
         style="fill:url(#linearGradient1116);fill-opacity:1.0000000"
         id="path1110"
         d="M 68.095876,7.5000000 L 12.087546,7.5000000 L 12.004256,73.964708 L 51.849636,73.964708 L 68.095876,57.029549 L 68.095876,7.5000000 z " />
      <path
         transform="matrix(1.097247,0.000000,0.000000,0.994866,-4.705100,0.387947)"
         style="fill:#ffffff"
         id="path1111"
         d="M 52.080669,75.153495 L 68.053463,56.427387 L 52.080669,56.427387 L 52.080669,75.153495 z " />
      <path
         style="fill:url(#linearGradient1117);fill-opacity:1.0000000"
         id="path1112"
         d="M 53.067729,74.814144 L 68.491799,58.419504 L 53.067729,58.419504 L 53.067729,74.814144 z " />
      <path
         sodipodi:nodetypes="ccccc"
         style="fill:url(#radialGradient1118);fill-opacity:1.0000000"
         id="path1113"
         d="M 68.239521,13.585076 L 68.239521,7.3347520 L 12.054686,7.3347520 L 12.004256,43.534686 C 33.586007,50.953441 64.824773,32.230479 68.239521,13.585076 z " />
      <path
         style="fill:url(#linearGradient1119);fill-opacity:1.0000000"
         id="path1114"
         d="M 52.092047,56.807354 C 51.881157,56.807354 51.709997,56.989304 51.709997,57.213483 L 51.709997,75.843451 C 51.709997,76.008339 51.803217,76.156166 51.946107,76.219524 C 52.088987,76.281256 52.253267,76.247955 52.362537,76.130989 L 69.887867,57.501022 C 69.997137,57.384870 70.029997,57.210240 69.971157,57.058346 C 69.911557,56.906453 69.772487,56.807354 69.617377,56.807354 L 52.092047,56.807354 z M 68.695117,57.619614 C 67.532917,58.855057 53.636287,73.626802 52.474097,74.863058 C 52.474097,73.143505 52.474097,58.356334 52.474097,57.619614 C 53.165597,57.619614 67.077517,57.619614 68.695117,57.619614 z " />
      <path
         style="fill:url(#linearGradient1120);fill-opacity:1.0000000"
         id="path1115"
         d="M 69.583550,6.5013400 C 69.583550,7.2981640 69.583550,56.714370 69.583550,57.046580 C 69.364250,57.279700 52.501390,75.204620 52.282090,75.438550 C 51.971100,75.438550 11.512148,75.438550 10.764091,75.438550 C 10.764091,74.640920 10.764091,7.2997920 10.764091,6.5021530 C 11.513672,6.5013400 68.834730,6.5013400 69.583550,6.5013400 z M 69.965590,5.6890800 L 10.000000,5.6890800 L 10.000000,76.250000 L 52.598430,76.250000 L 70.347640,57.382050 L 70.347640,5.6890800 L 69.965590,5.6890800 z " />
    </g>
  </g>
</svg>
