<?xml version="1.0" encoding="UTF-8" standalone="no"?>
<!-- Created with Inkscape (http://www.inkscape.org/) -->
<svg
   xmlns:dc="http://purl.org/dc/elements/1.1/"
   xmlns:cc="http://web.resource.org/cc/"
   xmlns:rdf="http://www.w3.org/1999/02/22-rdf-syntax-ns#"
   xmlns:svg="http://www.w3.org/2000/svg"
   xmlns="http://www.w3.org/2000/svg"
   xmlns:xlink="http://www.w3.org/1999/xlink"
   xmlns:sodipodi="http://inkscape.sourceforge.net/DTD/sodipodi-0.dtd"
   xmlns:inkscape="http://www.inkscape.org/namespaces/inkscape"
   inkscape:export-ydpi="45.000000"
   inkscape:export-xdpi="45.000000"
   inkscape:export-filename="/home/pinheiro/kdeplayground-artwork/oooicons/crystalsvg/formfiltered.png"
   sodipodi:docname="formfiltered.svg"
   sodipodi:docbase="/home/pinheiro/kdeplayground-artwork/oooicons/crystalsvg"
   inkscape:version="0.41"
   sodipodi:version="0.32"
   id="svg2290"
   height="64px"
   width="64px">
  <defs
     id="defs3">
    <linearGradient
       inkscape:collect="always"
       xlink:href="#light100to0"
       id="linearGradient8047"
       gradientUnits="userSpaceOnUse"
       gradientTransform="matrix(-0.956171,0.000000,0.000000,1.045838,61.48644,-9.213050e-3)"
       x1="21.491100"
       y1="8.4635162"
       x2="36.910168"
       y2="6.5209355" />
    <linearGradient
       inkscape:collect="always"
       xlink:href="#light100to0"
       id="linearGradient8045"
       gradientUnits="userSpaceOnUse"
       gradientTransform="matrix(0.607496,0.000000,0.000000,1.646102,-1.381295,-2.272805e-15)"
       x1="44.786060"
       y1="32.744850"
       x2="36.525856"
       y2="22.959185" />
    <linearGradient
       inkscape:collect="always"
       xlink:href="#light100to0"
       id="linearGradient8043"
       gradientUnits="userSpaceOnUse"
       gradientTransform="matrix(0.320153,0.000000,0.000000,8.010735e-2,-45.96665,-14.03042)"
       x1="222.57158"
       y1="322.30713"
       x2="253.63023"
       y2="423.30023" />
    <linearGradient
       inkscape:collect="always"
       xlink:href="#light100to0"
       id="linearGradient8041"
       gradientUnits="userSpaceOnUse"
       gradientTransform="matrix(0.607496,0.000000,0.000000,1.646102,-1.381295,-2.272805e-15)"
       x1="33.816196"
       y1="30.579924"
       x2="59.157505"
       y2="22.681667" />
    <linearGradient
       inkscape:collect="always"
       xlink:href="#graytolightgray"
       id="linearGradient8039"
       gradientUnits="userSpaceOnUse"
       gradientTransform="matrix(0.236336,0.000000,0.000000,0.114404,-47.43066,-14.64932)"
       spreadMethod="reflect"
       x1="283.56204"
       y1="409.79456"
       x2="377.23828"
       y2="371.38556" />
    <linearGradient
       id="light100to0">
      <stop
         id="stop2764"
         offset="0.0000000"
         style="stop-color:#ffffff;stop-opacity:1.0000000;" />
      <stop
         id="stop2765"
         offset="1.0000000"
         style="stop-color:#ffffff;stop-opacity:0.0000000;" />
    </linearGradient>
    <radialGradient
       inkscape:collect="always"
       xlink:href="#light100to0"
       id="radialGradient8037"
       gradientUnits="userSpaceOnUse"
       gradientTransform="scale(1.585650,0.630656)"
       cx="178.29204"
       cy="256.86401"
       fx="178.29204"
       fy="256.86401"
       r="116.47218" />
    <linearGradient
       id="greylighttograyw">
      <stop
         id="stop575"
         offset="0.0000000"
         style="stop-color:#b5b5b8;stop-opacity:1.0000000;" />
      <stop
         id="stop576"
         offset="1.0000000"
         style="stop-color:#ebebee;stop-opacity:1.0000000;" />
    </linearGradient>
    <linearGradient
       inkscape:collect="always"
       xlink:href="#greylighttograyw"
       id="linearGradient8035"
       gradientUnits="userSpaceOnUse"
       gradientTransform="matrix(0.195946,0.000000,0.000000,0.137984,-47.43066,-14.64932)"
       spreadMethod="reflect"
       x1="360.42029"
       y1="210.62589"
       x2="489.91776"
       y2="191.41595" />
    <linearGradient
       id="graytolightgray">
      <stop
         id="stop5101"
         offset="0.0000000"
         style="stop-color:#d4d3d3;stop-opacity:1.0000000;" />
      <stop
         id="stop5102"
         offset="1.0000000"
         style="stop-color:#ffffff;stop-opacity:1.0000000;" />
    </linearGradient>
    <linearGradient
       inkscape:collect="always"
       xlink:href="#graytolightgray"
       id="linearGradient8033"
       gradientUnits="userSpaceOnUse"
       gradientTransform="matrix(0.113673,0.000000,0.000000,0.237853,-47.45604,-14.64932)"
       spreadMethod="reflect"
       x1="667.60266"
       y1="270.84445"
       x2="777.66937"
       y2="273.05020" />
    <linearGradient
       id="garylighttowite">
      <stop
         id="stop5106"
         offset="0.0000000"
         style="stop-color:#7d7d7d;stop-opacity:1.0000000;" />
      <stop
         id="stop5107"
         offset="1.0000000"
         style="stop-color:#d3d4d4;stop-opacity:1.0000000;" />
    </linearGradient>
    <linearGradient
       inkscape:collect="always"
       xlink:href="#garylighttowite"
       id="linearGradient8031"
       gradientUnits="userSpaceOnUse"
       gradientTransform="matrix(0.158588,0.000000,0.000000,0.170491,-47.77086,-14.64999)"
       spreadMethod="reflect"
       x1="345.70886"
       y1="102.04493"
       x2="434.37149"
       y2="275.21307" />
    <linearGradient
       gradientUnits="userSpaceOnUse"
       gradientTransform="scale(0.945503,1.057638)"
       y2="275.76196"
       x2="84.693071"
       y1="151.10908"
       x1="45.082895"
       id="linearGradient1099"
       xlink:href="#light100to0"
       inkscape:collect="always" />
    <radialGradient
       gradientUnits="userSpaceOnUse"
       r="73.899909"
       fy="349.21874"
       fx="144.95280"
       cy="349.21874"
       cx="144.95280"
       gradientTransform="scale(1.136465,0.879922)"
       id="radialGradient1098"
       xlink:href="#light100to0"
       inkscape:collect="always" />
    <linearGradient
       gradientUnits="userSpaceOnUse"
       gradientTransform="scale(1.196874,0.835510)"
       y2="319.14569"
       x2="130.83096"
       y1="146.63509"
       x1="218.94297"
       id="linearGradient1097"
       xlink:href="#greandarktobgrean"
       inkscape:collect="always" />
    <linearGradient
       gradientUnits="userSpaceOnUse"
       gradientTransform="scale(1.134158,0.881711)"
       y2="363.81314"
       x2="301.40730"
       y1="89.242673"
       x1="39.965624"
       id="linearGradient1096"
       xlink:href="#greandraktoblack"
       inkscape:collect="always" />
    <linearGradient
       gradientUnits="userSpaceOnUse"
       gradientTransform="scale(1.134158,0.881711)"
       y2="150.16684"
       x2="148.34585"
       y1="437.12191"
       x1="155.49013"
       id="linearGradient1095"
       xlink:href="#blacktowhite"
       inkscape:collect="always" />
    <linearGradient
       y2="1.1230370"
       x2="0.51831001"
       y1="-0.047118232"
       x1="0.14647700"
       id="linearGradient597"
       xlink:href="#light100to0" />
    <linearGradient
       id="linearGradient2394">
      <stop
         id="stop2396"
         offset="0.0000000"
         style="stop-color:#ffffff;stop-opacity:1.0000000;" />
      <stop
         id="stop2398"
         offset="1.0000000"
         style="stop-color:#ffffff;stop-opacity:0.0000000;" />
    </linearGradient>
    <radialGradient
       gradientTransform="scale(1.000001,0.999999)"
       fy="0.92692399"
       fx="0.42816901"
       r="0.23689400"
       cy="0.92692399"
       cx="0.42816901"
       id="radialGradient590"
       xlink:href="#light100to0" />
    <linearGradient
       y2="0.77404922"
       x2="0.42397660"
       y1="0.11856823"
       x1="0.75877196"
       id="linearGradient567"
       xlink:href="#greandarktobgrean" />
    <linearGradient
       id="greandarktobgrean">
      <stop
         id="stop4492"
         offset="0.0000000"
         style="stop-color:#00ad01;stop-opacity:1.0000000;" />
      <stop
         id="stop4493"
         offset="1.0000000"
         style="stop-color:#15720f;stop-opacity:1.0000000;" />
    </linearGradient>
    <linearGradient
       y2="0.27586201"
       x2="0.43943700"
       y1="1.1810369"
       x1="0.46197301"
       id="linearGradient572"
       xlink:href="#blacktowhite" />
    <linearGradient
       id="blacktowhite">
      <stop
         id="stop2476"
         offset="0.0000000"
         style="stop-color:#000000;stop-opacity:1.0000000;" />
      <stop
         id="stop2475"
         offset="1.0000000"
         style="stop-color:#ffffff;stop-opacity:1.0000000;" />
    </linearGradient>
    <linearGradient
       y2="0.94979078"
       x2="0.92225611"
       y1="0.083682008"
       x1="0.097560972"
       xlink:href="#greandraktoblack"
       id="linearGradient564" />
    <linearGradient
       id="greandraktoblack">
      <stop
         id="stop7328"
         offset="0.0000000"
         style="stop-color:#007c00;stop-opacity:1.0000000;" />
      <stop
         id="stop7329"
         offset="1.0000000"
         style="stop-color:#025a00;stop-opacity:1.0000000;" />
    </linearGradient>
  </defs>
  <sodipodi:namedview
     inkscape:window-y="389"
     inkscape:window-x="394"
     inkscape:window-height="536"
     inkscape:window-width="640"
     inkscape:grid-bbox="true"
     inkscape:document-units="px"
     showgrid="true"
     inkscape:current-layer="layer1"
     inkscape:cy="28.527824"
     inkscape:cx="32.000000"
     inkscape:zoom="5.6562500"
     inkscape:pageshadow="2"
     inkscape:pageopacity="0.0"
     borderopacity="1.0"
     bordercolor="#666666"
     pagecolor="#ffffff"
     id="base" />
  <metadata
     id="metadata4">
    <rdf:RDF
       id="RDF5">
      <cc:Work
         id="Work6"
         rdf:about="">
        <dc:format
           id="format7">image/svg+xml</dc:format>
        <dc:type
           rdf:resource="http://purl.org/dc/dcmitype/StillImage"
           id="type9" />
      </cc:Work>
    </rdf:RDF>
  </metadata>
  <g
     inkscape:groupmode="layer"
     inkscape:label="Layer 1"
     id="layer1">
    <g
       id="g8006"
       transform="matrix(0.924116,0.000000,0.000000,0.961796,-0.514634,2.032168)">
      <path
         transform="matrix(0.769756,0.000000,0.000000,0.767486,5.414426,13.95596)"
         d="M 40.839780 60.022099 A 8.3093920 2.2099447 0 1 1  24.220996,60.022099 A 8.3093920 2.2099447 0 1 1  40.839780 60.022099 z"
         sodipodi:ry="2.2099447"
         sodipodi:rx="8.3093920"
         sodipodi:cy="60.022099"
         sodipodi:cx="32.530388"
         id="path14089"
         style="opacity:0.49029127;fill:#000000;fill-opacity:0.033898298;stroke:#000000;stroke-width:4.6500001;stroke-linejoin:round;stroke-miterlimit:4.0000000;stroke-opacity:0.050847415"
         sodipodi:type="arc" />
      <path
         transform="matrix(0.929539,0.000000,0.000000,1.000000,1.289036e-3,0.000000)"
         d="M 40.839780 60.022099 A 8.3093920 2.2099447 0 1 1  24.220996,60.022099 A 8.3093920 2.2099447 0 1 1  40.839780 60.022099 z"
         sodipodi:ry="2.2099447"
         sodipodi:rx="8.3093920"
         sodipodi:cy="60.022099"
         sodipodi:cx="32.530388"
         id="path14087"
         style="opacity:0.49029127;fill:#000000;fill-opacity:0.033898298;stroke:#000000;stroke-width:4.6500001;stroke-linejoin:round;stroke-miterlimit:4.0000000;stroke-opacity:0.050847415"
         sodipodi:type="arc" />
      <path
         id="path14085"
         d="M 30.156320,3.5363319 C 15.427411,3.5363319 3.4712532,8.0172340 3.4712532,13.536970 C 3.4712532,13.547132 3.4764646,13.556761 3.4765489,13.566923 C 3.4764646,13.577036 3.4712532,13.586714 3.4712532,13.596827 C 3.4712532,13.915666 3.5299805,14.228459 3.6088878,14.539548 C 3.6128644,14.554481 3.6153176,14.569495 3.6194725,14.584429 C 3.7973137,15.253720 4.1354408,15.905450 4.6464337,16.529727 C 4.6817666,16.572859 4.7207461,16.616468 4.7576024,16.659375 L 24.804488,39.468913 L 24.804488,59.041328 L 24.852133,59.041328 C 24.959765,60.109801 27.289625,61.390629 30.166912,61.390584 C 33.044385,61.390629 35.374348,60.109889 35.481682,59.041328 L 35.497573,59.041328 L 35.497573,58.986467 C 35.497751,58.979682 35.502870,58.973285 35.502870,58.966500 C 35.502870,58.959630 35.497751,58.953410 35.497573,58.946535 L 35.497573,39.583629 L 55.406826,16.978610 C 55.153854,17.247666 54.865542,17.508665 54.554553,17.766685 L 55.322127,16.893843 C 56.287656,15.860046 56.836100,14.753612 56.836100,13.596827 C 56.836100,13.586714 56.830886,13.577036 56.830804,13.566923 C 56.830886,13.556761 56.836100,13.547132 56.836100,13.536970 C 56.836100,8.0172340 44.885236,3.5363319 30.156320,3.5363319 z "
         style="fill:none;fill-opacity:1.0000000;fill-rule:evenodd;stroke:#000000;stroke-width:4.8686466;stroke-linecap:butt;stroke-linejoin:round;stroke-miterlimit:4.0000000;stroke-opacity:0.050847415" />
      <path
         id="path14075"
         d="M 30.366308,3.0832120 C 15.637399,3.0832120 3.6812408,7.5641141 3.6812408,13.083850 C 3.6812408,13.094012 3.6864518,13.103641 3.6865358,13.113803 C 3.6864518,13.123916 3.6812408,13.133594 3.6812408,13.143707 C 3.6812408,13.462546 3.7399678,13.775339 3.8188748,14.086428 C 3.8228518,14.101361 3.8253048,14.116375 3.8294598,14.131309 C 4.0073008,14.800600 4.3454278,15.452330 4.8564208,16.076607 C 4.8917538,16.119739 4.9307338,16.163348 4.9675898,16.206255 L 25.014476,39.015793 L 25.014476,58.588208 L 25.062122,58.588208 C 25.169753,59.656681 27.499613,60.937509 30.376901,60.937464 C 33.254373,60.937509 35.584336,59.656769 35.691670,58.588208 L 35.707562,58.588208 L 35.707562,58.533347 C 35.707739,58.526562 35.712859,58.520165 35.712859,58.513380 C 35.712859,58.506510 35.707739,58.500290 35.707562,58.493415 L 35.707562,39.130509 L 55.616814,16.525490 C 55.363841,16.794546 55.075530,17.055545 54.764541,17.313565 L 55.532116,16.440723 C 56.497644,15.406926 57.046089,14.300492 57.046089,13.143707 C 57.046089,13.133594 57.040874,13.123916 57.040793,13.113803 C 57.040874,13.103641 57.046089,13.094012 57.046089,13.083850 C 57.046089,7.5641141 45.095225,3.0832120 30.366308,3.0832120 z "
         style="fill:none;fill-opacity:1.0000000;fill-rule:evenodd;stroke:#000000;stroke-width:6.1250715;stroke-linecap:butt;stroke-linejoin:round;stroke-miterlimit:4.0000000;stroke-opacity:0.050847415" />
      <path
         id="path12479"
         d="M 30.156320,3.5363319 C 15.427411,3.5363319 3.4712532,8.0172340 3.4712532,13.536970 C 3.4712532,13.547132 3.4764646,13.556761 3.4765489,13.566923 C 3.4764646,13.577036 3.4712532,13.586714 3.4712532,13.596827 C 3.4712532,13.915666 3.5299805,14.228459 3.6088878,14.539548 C 3.6128644,14.554481 3.6153176,14.569495 3.6194725,14.584429 C 3.7973137,15.253720 4.1354408,15.905450 4.6464337,16.529727 C 4.6817666,16.572859 4.7207461,16.616468 4.7576024,16.659375 L 24.804488,39.468913 L 24.804488,59.041328 L 24.852133,59.041328 C 24.959765,60.109801 27.289625,61.390629 30.166912,61.390584 C 33.044385,61.390629 35.374348,60.109889 35.481682,59.041328 L 35.497573,59.041328 L 35.497573,58.986467 C 35.497751,58.979682 35.502870,58.973285 35.502870,58.966500 C 35.502870,58.959630 35.497751,58.953410 35.497573,58.946535 L 35.497573,39.583629 L 55.406826,16.978610 C 55.153854,17.247666 54.865542,17.508665 54.554553,17.766685 L 55.322127,16.893843 C 56.287656,15.860046 56.836100,14.753612 56.836100,13.596827 C 56.836100,13.586714 56.830886,13.577036 56.830804,13.566923 C 56.830886,13.556761 56.836100,13.547132 56.836100,13.536970 C 56.836100,8.0172340 44.885236,3.5363319 30.156320,3.5363319 z "
         style="fill:none;fill-opacity:1.0000000;fill-rule:evenodd;stroke:#000000;stroke-width:1.7881857;stroke-linecap:butt;stroke-linejoin:round;stroke-miterlimit:4.0000000;stroke-opacity:0.039547984" />
      <path
         id="path12477"
         d="M 30.156320,3.5363319 C 15.427411,3.5363319 3.4712532,8.0172340 3.4712532,13.536970 C 3.4712532,13.547132 3.4764646,13.556761 3.4765489,13.566923 C 3.4764646,13.577036 3.4712532,13.586714 3.4712532,13.596827 C 3.4712532,13.915666 3.5299805,14.228459 3.6088878,14.539548 C 3.6128644,14.554481 3.6153176,14.569495 3.6194725,14.584429 C 3.7973137,15.253720 4.1354408,15.905450 4.6464337,16.529727 C 4.6817666,16.572859 4.7207461,16.616468 4.7576024,16.659375 L 24.804488,39.468913 L 24.804488,59.041328 L 24.852133,59.041328 C 24.959765,60.109801 27.289625,61.390629 30.166912,61.390584 C 33.044385,61.390629 35.374348,60.109889 35.481682,59.041328 L 35.497573,59.041328 L 35.497573,58.986467 C 35.497751,58.979682 35.502870,58.973285 35.502870,58.966500 C 35.502870,58.959630 35.497751,58.953410 35.497573,58.946535 L 35.497573,39.583629 L 55.406826,16.978610 C 55.153854,17.247666 54.865542,17.508665 54.554553,17.766685 L 55.322127,16.893843 C 56.287656,15.860046 56.836100,14.753612 56.836100,13.596827 C 56.836100,13.586714 56.830886,13.577036 56.830804,13.566923 C 56.830886,13.556761 56.836100,13.547132 56.836100,13.536970 C 56.836100,8.0172340 44.885236,3.5363319 30.156320,3.5363319 z "
         style="fill:none;fill-opacity:1.0000000;fill-rule:evenodd;stroke:#000000;stroke-width:1.9526165;stroke-linecap:butt;stroke-linejoin:round;stroke-miterlimit:4.0000000;stroke-opacity:0.039547984" />
      <path
         id="path9412"
         d="M 30.156320,3.5363319 C 15.427411,3.5363319 3.4712532,8.0172340 3.4712532,13.536970 C 3.4712532,13.547132 3.4764646,13.556761 3.4765489,13.566923 C 3.4764646,13.577036 3.4712532,13.586714 3.4712532,13.596827 C 3.4712532,13.915666 3.5299805,14.228459 3.6088878,14.539548 C 3.6128644,14.554481 3.6153176,14.569495 3.6194725,14.584429 C 3.7973137,15.253720 4.1354408,15.905450 4.6464337,16.529727 C 4.6817666,16.572859 4.7207461,16.616468 4.7576024,16.659375 L 24.804488,39.468913 L 24.804488,59.041328 L 24.852133,59.041328 C 24.959765,60.109801 27.289625,61.390629 30.166912,61.390584 C 33.044385,61.390629 35.374348,60.109889 35.481682,59.041328 L 35.497573,59.041328 L 35.497573,58.986467 C 35.497751,58.979682 35.502870,58.973285 35.502870,58.966500 C 35.502870,58.959630 35.497751,58.953410 35.497573,58.946535 L 35.497573,39.583629 L 55.406826,16.978610 C 55.153854,17.247666 54.865542,17.508665 54.554553,17.766685 L 55.322127,16.893843 C 56.287656,15.860046 56.836100,14.753612 56.836100,13.596827 C 56.836100,13.586714 56.830886,13.577036 56.830804,13.566923 C 56.830886,13.556761 56.836100,13.547132 56.836100,13.536970 C 56.836100,8.0172340 44.885236,3.5363319 30.156320,3.5363319 z "
         style="fill:none;fill-opacity:1.0000000;fill-rule:evenodd;stroke:url(#linearGradient8031);stroke-width:2.9840090;stroke-linecap:butt;stroke-linejoin:round;stroke-miterlimit:4.0000000;stroke-opacity:1.0000000" />
      <path
         id="path14875"
         d="M 30.156320,3.5363319 C 15.427411,3.5363319 3.4712532,8.0172340 3.4712532,13.536970 C 3.4712532,13.547132 3.4764646,13.556761 3.4765489,13.566923 C 3.4764646,13.577036 3.4712532,13.586714 3.4712532,13.596827 C 3.4712532,13.915666 3.5299805,14.228459 3.6088878,14.539548 C 3.6128644,14.554481 3.6153176,14.569495 3.6194725,14.584429 C 3.7973137,15.253720 4.1354408,15.905450 4.6464337,16.529727 C 4.6817666,16.572859 4.7207461,16.616468 4.7576024,16.659375 L 24.804488,39.468913 L 24.804488,59.041328 L 24.852133,59.041328 C 24.959765,60.109801 27.289625,61.390629 30.166912,61.390584 C 33.044385,61.390629 35.374348,60.109889 35.481682,59.041328 L 35.497573,59.041328 L 35.497573,58.986467 C 35.497751,58.979682 35.502870,58.973285 35.502870,58.966500 C 35.502870,58.959630 35.497751,58.953410 35.497573,58.946535 L 35.497573,39.583629 L 55.406826,16.978610 C 55.153854,17.247666 54.865542,17.508665 54.554553,17.766685 L 55.322127,16.893843 C 56.287656,15.860046 56.836100,14.753612 56.836100,13.596827 C 56.836100,13.586714 56.830886,13.577036 56.830804,13.566923 C 56.830886,13.556761 56.836100,13.547132 56.836100,13.536970 C 56.836100,8.0172340 44.885236,3.5363319 30.156320,3.5363319 z "
         style="fill:none;fill-opacity:1.0000000;fill-rule:evenodd;stroke:#000000;stroke-width:2.9840090;stroke-linecap:butt;stroke-linejoin:round;stroke-miterlimit:4.0000000;stroke-opacity:0.27118644" />
      <path
         sodipodi:nodetypes="ccccccccccc"
         id="path2477"
         d="M 24.805894,38.578861 L 24.805894,59.039098 L 24.853529,59.039098 C 24.961170,60.107567 27.291031,61.392996 30.168309,61.392996 C 33.045781,61.392996 35.375752,60.107656 35.483089,59.039098 L 35.498977,59.039098 L 35.498977,58.984233 C 35.499155,58.977447 35.504273,58.971101 35.504273,58.964270 C 35.504273,58.957395 35.499155,58.951222 35.498977,58.944347 L 35.498977,38.578861 L 24.805894,38.578861 z "
         style="fill:url(#linearGradient8033);fill-opacity:1.0000000;fill-rule:evenodd;stroke:none;stroke-width:1.0000000px;stroke-linecap:butt;stroke-linejoin:miter;stroke-opacity:1.0000000" />
      <path
         id="path2483"
         d="M 30.157725,3.5961828 C 15.428816,3.5961828 3.4726576,8.0770907 3.4726576,13.596827 C 3.4726576,14.617574 3.8883372,15.601849 4.6478381,16.529727 C 4.6831711,16.572859 4.7221505,16.616468 4.7590061,16.659375 L 25.049400,39.748256 L 25.102333,39.748256 C 25.796642,40.550610 27.786268,41.134868 30.157725,41.134868 C 32.743808,41.134868 34.893974,40.444341 35.382519,39.528765 L 55.323530,16.893843 C 56.289061,15.860046 56.837502,14.753612 56.837502,13.596827 C 56.837502,8.0770907 44.886635,3.5961828 30.157725,3.5961828 z "
         style="fill:url(#linearGradient8035);fill-opacity:1.0000000;fill-rule:evenodd;stroke:none;stroke-width:1.0000000px;stroke-linecap:butt;stroke-linejoin:miter;stroke-opacity:1.0000000" />
      <path
         transform="matrix(0.132417,0.000000,0.000000,0.126157,5.385796,6.617658)"
         d="M 344.57040 108.29356 A 157.51790 62.649166 0 1 1  29.534607,108.29356 A 157.51790 62.649166 0 1 1  344.57040 108.29356 z"
         sodipodi:ry="62.649166"
         sodipodi:rx="157.51790"
         sodipodi:cy="108.29356"
         sodipodi:cx="187.05251"
         id="path5580"
         style="fill:#000000;fill-opacity:1.0000000;fill-rule:evenodd;stroke:none;stroke-width:1.0000000px;stroke-linecap:butt;stroke-linejoin:miter;stroke-opacity:1.0000000"
         sodipodi:type="arc" />
      <path
         transform="matrix(0.132417,0.000000,0.000000,0.126157,5.385796,6.617658)"
         d="M 344.57040 108.29356 A 157.51790 62.649166 0 1 1  29.534607,108.29356 A 157.51790 62.649166 0 1 1  344.57040 108.29356 z"
         sodipodi:ry="62.649166"
         sodipodi:rx="157.51790"
         sodipodi:cy="108.29356"
         sodipodi:cx="187.05251"
         id="path10949"
         style="fill:url(#radialGradient8037);fill-opacity:1.0000000;fill-rule:evenodd;stroke:none;stroke-width:1.0000000px;stroke-linecap:butt;stroke-linejoin:miter;stroke-opacity:1.0000000"
         sodipodi:type="arc" />
      <path
         id="path2503"
         d="M 4.9045779,16.768140 L 25.152625,39.812096 L 25.205558,39.812096 C 25.900965,40.613748 27.885542,41.198708 30.255669,41.198708 C 32.847134,41.198708 35.008459,40.506036 35.491032,39.587613 L 55.405581,16.977602 C 51.749275,20.866586 41.878626,23.661349 30.255669,23.661349 C 18.423642,23.661349 8.3967084,20.766759 4.9045779,16.768140 z "
         style="fill:url(#linearGradient8039);fill-opacity:1.0000000;fill-rule:evenodd;stroke:none;stroke-width:0.20000000px;stroke-linecap:butt;stroke-linejoin:miter;stroke-opacity:1.0000000" />
      <path
         id="path17191"
         d="M 24.524955,39.912574 L 23.868705,40.637327 C 25.377434,41.908468 27.973172,42.318858 30.462455,42.268020 C 31.707096,42.242602 32.923335,42.088096 33.962455,41.815050 C 35.001575,41.542004 35.875563,41.182963 36.431205,40.607129 L 35.681205,39.942772 C 35.352443,40.283483 34.620881,40.631996 33.681205,40.878911 C 32.741529,41.125827 31.603116,41.277750 30.431205,41.301684 C 28.087382,41.349551 25.660549,40.869340 24.524955,39.912574 z "
         style="fill:#000000;fill-opacity:0.056497160;fill-rule:evenodd;stroke:none;stroke-width:1.0000000px;stroke-linecap:butt;stroke-linejoin:miter;stroke-opacity:1.0000000" />
      <path
         sodipodi:nodetypes="ccccccc"
         id="path15645"
         d="M 26.729202,60.731821 L 26.557932,41.000000 L 15.789975,22.292817 C 18.728934,23.025109 24.062422,23.821655 27.022020,23.800813 L 29.663370,40.646409 L 29.551471,61.195617 L 26.729202,60.731821 z "
         style="fill:url(#linearGradient8041);fill-opacity:1.0000000;fill-rule:evenodd;stroke:none;stroke-width:1.0000000px;stroke-linecap:butt;stroke-linejoin:miter;stroke-opacity:1.0000000" />
      <path
         id="path17951"
         d="M 24.306205,40.123961 L 24.056205,40.425941 C 25.452993,41.602769 28.016810,42.046185 30.462455,41.996238 C 31.685277,41.971265 32.859418,41.808475 33.868705,41.543268 C 34.877992,41.278061 35.724877,40.901039 36.212455,40.395743 L 35.899955,40.154159 C 35.503129,40.565405 34.744464,40.926136 33.774955,41.180891 C 32.805446,41.435647 31.624935,41.579285 30.431205,41.603664 C 28.043744,41.652422 25.553739,41.175038 24.306205,40.123961 z "
         style="fill:#000000;fill-opacity:0.056497160;fill-rule:evenodd;stroke:none;stroke-width:0.40000001;stroke-linecap:butt;stroke-linejoin:miter;stroke-miterlimit:4.0000000;stroke-opacity:1.0000000" />
      <path
         transform="matrix(0.165938,0.000000,0.000000,0.154225,-0.950981,-3.094166)"
         d="M 344.57040 108.29356 A 157.51790 62.649166 0 1 1  29.534607,108.29356 A 157.51790 62.649166 0 1 1  344.57040 108.29356 z"
         sodipodi:ry="62.649166"
         sodipodi:rx="157.51790"
         sodipodi:cy="108.29356"
         sodipodi:cx="187.05251"
         id="path2522"
         style="fill:none;fill-opacity:0.75000000;fill-rule:evenodd;stroke:#ffffff;stroke-width:7.3750000;stroke-linecap:butt;stroke-linejoin:miter;stroke-miterlimit:4.0000000;stroke-opacity:1.0000000"
         sodipodi:type="arc" />
      <path
         sodipodi:nodetypes="czzzzzzs"
         id="path7098"
         d="M 25.881186,12.901309 C 30.923112,12.516445 36.607174,12.893953 39.230358,13.463636 C 41.853540,14.033312 43.758742,15.478508 42.609294,16.193466 C 41.459849,16.908468 35.382098,17.330946 32.333670,17.753418 C 29.285234,18.175897 26.647826,18.858365 24.318685,18.728371 C 21.989535,18.598375 19.061676,17.623425 18.358822,16.973445 C 17.655960,16.323464 18.560169,15.528247 20.101508,14.828574 C 21.642856,14.128893 23.312266,13.097376 25.881186,12.901309 z "
         style="fill:url(#linearGradient8043);fill-opacity:1.0000000;fill-rule:evenodd;stroke:#000000;stroke-width:0.16014563px;stroke-linecap:butt;stroke-linejoin:miter;stroke-opacity:1.0000000" />
      <path
         sodipodi:nodetypes="cczc"
         id="path10185"
         d="M 4.5293675,13.250490 C 5.3765159,2.6670778 54.377316,1.7150240 55.425107,13.781900 C 55.380517,6.2317911 38.560180,4.2391157 30.077554,4.1505368 C 21.594930,4.0619639 4.9975213,6.4753188 4.5293675,13.250490 z "
         style="fill:#000000;fill-opacity:0.033898298;fill-rule:evenodd;stroke:none;stroke-width:1.0000000px;stroke-linecap:butt;stroke-linejoin:miter;stroke-opacity:1.0000000" />
      <path
         sodipodi:nodetypes="cczc"
         id="path10945"
         d="M 4.5293675,13.349839 C 7.3829119,2.7000015 51.768995,1.4822233 55.425107,13.881205 C 55.380517,6.7296646 38.493298,4.1391543 30.010671,4.0505805 C 21.528056,3.9620027 5.3319264,7.3052967 4.5293675,13.349839 z "
         style="fill:#000000;fill-opacity:0.033898298;fill-rule:evenodd;stroke:none;stroke-width:1.0000000px;stroke-linecap:butt;stroke-linejoin:miter;stroke-opacity:1.0000000" />
      <path
         sodipodi:nodetypes="cczc"
         id="path10947"
         d="M 4.5293675,13.262665 C 7.9179513,1.6164663 49.361312,0.39873267 55.425107,13.794031 C 54.912362,7.1738608 38.560180,4.4505489 30.077554,4.3619760 C 21.594930,4.2733973 5.3319264,7.2181672 4.5293675,13.262665 z "
         style="fill:#000000;fill-opacity:0.033898298;fill-rule:evenodd;stroke:none;stroke-width:1.0000000px;stroke-linecap:butt;stroke-linejoin:miter;stroke-opacity:1.0000000" />
      <path
         sodipodi:nodetypes="ccccccc"
         id="path16417"
         d="M 26.729202,61.519783 L 26.557932,41.000000 L 15.789975,22.292817 C 18.728934,23.025109 24.062422,23.821655 27.022020,23.800813 L 29.663370,40.646409 L 29.551471,61.983579 C 29.486228,62.354288 26.706894,61.937036 26.729202,61.519783 z "
         style="fill:url(#linearGradient8045);fill-opacity:1.0000000;fill-rule:evenodd;stroke:none;stroke-width:1.0000000px;stroke-linecap:butt;stroke-linejoin:miter;stroke-opacity:1.0000000" />
      <path
         sodipodi:nodetypes="ccccc"
         id="path17957"
         d="M 36.117636,12.706805 C 35.420167,12.613305 33.310379,12.414408 32.507513,12.426305 L 32.274396,4.5710015 C 34.378737,4.5985485 37.600285,4.8579686 39.514912,5.2017063 L 36.117636,12.706805 z "
         style="fill:url(#linearGradient8047);fill-opacity:1.0000000;fill-rule:evenodd;stroke:none;stroke-width:1.0000000px;stroke-linecap:butt;stroke-linejoin:miter;stroke-opacity:1.0000000" />
    </g>
    <g
       transform="matrix(0.146661,-1.697741e-2,1.667563e-2,0.136447,8.387842,13.56994)"
       id="use1088">
      <path
         sodipodi:nodetypes="cccccc"
         id="path1090"
         d="M 70.954363,159.95231 L 12.760721,213.58530 C 40.482622,264.61372 79.234745,308.60976 129.89877,332.30143 C 225.13136,291.25683 325.72145,140.06409 367.28494,57.806845 C 328.91217,94.496466 226.72662,201.17199 128.46489,237.79210 C 105.52247,218.96054 93.896476,197.00859 70.954363,159.95231 z "
         style="font-size:12.000000;fill:none;fill-rule:evenodd;stroke:#000000;stroke-width:10.947209;stroke-linecap:round;stroke-linejoin:round;stroke-opacity:0.037899975" />
      <path
         sodipodi:nodetypes="cccccc"
         id="path1091"
         d="M 70.954363,159.95243 L 12.760721,213.58530 C 40.482622,264.61372 79.234745,308.60976 129.89877,332.30143 C 225.13126,291.25683 325.72134,140.06397 367.28494,57.806845 C 328.91217,94.496466 226.72662,201.17199 128.46489,237.79210 C 105.52247,218.96054 93.896476,197.00859 70.954363,159.95243 z "
         style="font-size:12.000000;fill:url(#linearGradient1095);fill-rule:evenodd;stroke:url(#linearGradient1096);stroke-width:5.0221715;stroke-linecap:round;stroke-linejoin:round" />
      <path
         sodipodi:nodetypes="cccccc"
         id="path1092"
         d="M 69.978044,173.18331 L 23.037538,213.02938 C 46.919564,254.35112 85.624913,297.14876 129.27134,316.33379 C 214.50541,273.53616 263.91635,195.32012 338.03296,96.442959 C 258.15173,175.15113 211.62300,212.53756 128.03602,246.97221 C 108.27152,231.72260 89.742440,203.19073 69.978044,173.18331 z "
         style="font-size:12.000000;fill:url(#linearGradient1097);fill-opacity:1.0000000;fill-rule:evenodd;stroke:none;stroke-width:1.0000000" />
      <path
         sodipodi:nodetypes="cccccc"
         id="path1093"
         d="M 71.131143,154.99494 L 12.937493,208.62792 C 40.659402,259.65635 79.411524,303.65239 130.07555,327.34406 C 225.30813,286.29946 325.89822,135.10671 367.46171,52.849468 C 329.08894,89.539092 226.90339,196.21461 128.64167,232.83473 C 105.69925,214.00316 94.073256,192.05122 71.131143,154.99494 z "
         style="font-size:12.000000;fill:url(#radialGradient1098);fill-rule:evenodd;stroke:none;stroke-width:16.892340;stroke-linecap:round;stroke-linejoin:round;stroke-opacity:0.037899975" />
      <path
         sodipodi:nodetypes="cccsc"
         id="path1094"
         d="M 128.23834,243.27704 C 107.06757,222.54159 85.065199,194.72020 69.715626,165.12733 L 27.872653,202.47533 C 48.544851,243.10081 109.60147,299.32085 122.99742,269.32695 C 124.29046,267.74758 130.07098,253.44716 128.23834,243.27704 z "
         style="fill:url(#linearGradient1099);fill-opacity:1.0000000;fill-rule:evenodd;stroke:none;stroke-width:1.0000000pt;stroke-linecap:butt;stroke-linejoin:miter;stroke-opacity:1.0000000" />
    </g>
  </g>
</svg>
