<?xml version="1.0" encoding="UTF-8" standalone="no"?>
<!-- Created with Inkscape (http://www.inkscape.org/) -->
<svg
   xmlns:dc="http://purl.org/dc/elements/1.1/"
   xmlns:cc="http://web.resource.org/cc/"
   xmlns:rdf="http://www.w3.org/1999/02/22-rdf-syntax-ns#"
   xmlns:svg="http://www.w3.org/2000/svg"
   xmlns="http://www.w3.org/2000/svg"
   xmlns:xlink="http://www.w3.org/1999/xlink"
   xmlns:sodipodi="http://inkscape.sourceforge.net/DTD/sodipodi-0.dtd"
   xmlns:inkscape="http://www.inkscape.org/namespaces/inkscape"
   inkscape:export-ydpi="36.000000"
   inkscape:export-xdpi="36.000000"
   inkscape:export-filename="/home/nuno/kdeplayground-artwork/oooicons/crystalsvg-reusable/save_as.png"
   sodipodi:docname="lc10627.svg"
   sodipodi:docbase="/home/diau/graphics/kde/icons/OOo-crystal/21-04-2005"
   inkscape:version="0.41"
   sodipodi:version="0.32"
   id="svg13893"
   height="64pt"
   width="64pt">
  <defs
     id="defs3">
    <linearGradient
       id="greandarktobgrean">
      <stop
         id="stop4492"
         offset="0.0000000"
         style="stop-color:#00ad01;stop-opacity:1.0000000;" />
      <stop
         id="stop4493"
         offset="1.0000000"
         style="stop-color:#15720f;stop-opacity:1.0000000;" />
    </linearGradient>
    <linearGradient
       gradientUnits="userSpaceOnUse"
       gradientTransform="matrix(1.395481,0.000000,0.000000,0.716599,305.6662,-213.4561)"
       xlink:href="#greandarktobgrean"
       collect="always"
       id="linearGradient3704"
       y2="389.01100"
       x2="-203.84911"
       y1="389.01100"
       x1="-229.39058" />
    <linearGradient
       id="light100to0">
      <stop
         id="stop2764"
         offset="0.0000000"
         style="stop-color:#ffffff;stop-opacity:1.0000000;" />
      <stop
         id="stop2765"
         offset="1.0000000"
         style="stop-color:#ffffff;stop-opacity:0.0000000;" />
    </linearGradient>
    <linearGradient
       y2="218.46164"
       x2="266.35638"
       y1="151.51718"
       x1="190.11575"
       gradientTransform="matrix(0.999994,-3.582198e-3,3.582198e-3,0.999994,0.000000,0.000000)"
       gradientUnits="userSpaceOnUse"
       id="linearGradient6170"
       xlink:href="#light100to0"
       inkscape:collect="always" />
    <linearGradient
       y2="77.205276"
       x2="-9.3134556"
       y1="80.154938"
       x1="16.879744"
       gradientTransform="matrix(0.999994,-3.582204e-3,3.582204e-3,0.999994,224.8481,139.4264)"
       gradientUnits="userSpaceOnUse"
       id="linearGradient11886"
       xlink:href="#garylighttowite"
       inkscape:collect="always" />
    <radialGradient
       r="74.087990"
       fy="234.94638"
       fx="262.35825"
       cy="234.94638"
       cx="262.35825"
       gradientTransform="scale(1.018448,0.981886)"
       gradientUnits="userSpaceOnUse"
       id="radialGradient13195"
       xlink:href="#light75to0"
       inkscape:collect="always" />
    <linearGradient
       id="sadow75to0w">
      <stop
         id="stop3429"
         offset="0.0000000"
         style="stop-color:#000000;stop-opacity:0.72941178;" />
      <stop
         id="stop3430"
         offset="1.0000000"
         style="stop-color:#ffffff;stop-opacity:0.0000000;" />
    </linearGradient>
    <radialGradient
       gradientUnits="userSpaceOnUse"
       r="49.857635"
       fy="210.55679"
       fx="227.65804"
       cy="210.55679"
       cx="227.65804"
       gradientTransform="scale(1.018381,0.981951)"
       id="radialGradient13821"
       xlink:href="#sadow75to0w"
       inkscape:collect="always" />
    <linearGradient
       y2="77.205276"
       x2="-9.3134556"
       y1="80.154938"
       x1="16.879744"
       gradientTransform="matrix(0.999994,-3.582204e-3,3.582204e-3,0.999994,224.8481,131.9264)"
       gradientUnits="userSpaceOnUse"
       id="linearGradient11884"
       xlink:href="#garylighttowite"
       inkscape:collect="always" />
    <linearGradient
       id="light75to0">
      <stop
         id="stop2769"
         offset="0.0000000"
         style="stop-color:#ffffff;stop-opacity:0.72916669;" />
      <stop
         id="stop2770"
         offset="1.0000000"
         style="stop-color:#ffffff;stop-opacity:0.0000000;" />
    </linearGradient>
    <linearGradient
       y2="170.21925"
       x2="216.75307"
       y1="181.63605"
       x1="242.51910"
       gradientTransform="matrix(0.999994,-3.582203e-3,3.582203e-3,0.999994,-0.905689,-1.584956)"
       gradientUnits="userSpaceOnUse"
       id="linearGradient6172"
       xlink:href="#light75to0"
       inkscape:collect="always" />
    <linearGradient
       y2="33.233250"
       x2="1.6239637"
       y1="63.247265"
       x1="13.340878"
       gradientTransform="matrix(0.999994,-3.582204e-3,3.582204e-3,0.999994,223.7271,126.8315)"
       gradientUnits="userSpaceOnUse"
       id="linearGradient6171"
       xlink:href="#garylighttowite"
       inkscape:collect="always" />
    <linearGradient
       id="garylighttowite">
      <stop
         id="stop5106"
         offset="0.0000000"
         style="stop-color:#7d7d7d;stop-opacity:1.0000000;" />
      <stop
         id="stop5107"
         offset="1.0000000"
         style="stop-color:#d3d4d4;stop-opacity:1.0000000;" />
    </linearGradient>
    <linearGradient
       y2="77.205276"
       x2="-9.3134556"
       y1="80.154938"
       x1="16.879744"
       gradientTransform="matrix(0.999994,-3.582204e-3,3.582204e-3,0.999994,224.8481,121.9264)"
       gradientUnits="userSpaceOnUse"
       id="linearGradient6174"
       xlink:href="#garylighttowite"
       inkscape:collect="always" />
    <linearGradient
       id="wihitetolightgray">
      <stop
         id="stop1885"
         offset="0.0000000"
         style="stop-color:#ffffff;stop-opacity:1.0000000;" />
      <stop
         id="stop1886"
         offset="1.0000000"
         style="stop-color:#d5d4d4;stop-opacity:1.0000000;" />
    </linearGradient>
    <linearGradient
       y2="233.46652"
       x2="169.35942"
       y1="207.17534"
       x1="127.14183"
       gradientTransform="matrix(0.999994,-3.582203e-3,3.582203e-3,0.999994,85.00000,-5.000000)"
       gradientUnits="userSpaceOnUse"
       id="linearGradient6173"
       xlink:href="#wihitetolightgray"
       inkscape:collect="always" />
    <linearGradient
       y2="233.46652"
       x2="169.35942"
       y1="207.17534"
       x1="127.14183"
       gradientTransform="matrix(0.999994,-3.582203e-3,3.582203e-3,0.999994,85.00000,-5.000000)"
       gradientUnits="userSpaceOnUse"
       id="linearGradient14646"
       xlink:href="#wihitetolightgray"
       inkscape:collect="always" />
    <linearGradient
       y2="77.205276"
       x2="-9.3134556"
       y1="80.154938"
       x1="16.879744"
       gradientTransform="matrix(0.999994,-3.582204e-3,3.582204e-3,0.999994,224.8481,121.9264)"
       gradientUnits="userSpaceOnUse"
       id="linearGradient14647"
       xlink:href="#garylighttowite"
       inkscape:collect="always" />
    <linearGradient
       y2="33.233250"
       x2="1.6239637"
       y1="63.247265"
       x1="13.340878"
       gradientTransform="matrix(0.999994,-3.582204e-3,3.582204e-3,0.999994,223.7271,126.8315)"
       gradientUnits="userSpaceOnUse"
       id="linearGradient14648"
       xlink:href="#garylighttowite"
       inkscape:collect="always" />
    <linearGradient
       y2="170.21925"
       x2="216.75307"
       y1="181.63605"
       x1="242.51910"
       gradientTransform="matrix(0.999994,-3.582203e-3,3.582203e-3,0.999994,-0.905689,-1.584956)"
       gradientUnits="userSpaceOnUse"
       id="linearGradient14649"
       xlink:href="#light75to0"
       inkscape:collect="always" />
    <linearGradient
       y2="77.205276"
       x2="-9.3134556"
       y1="80.154938"
       x1="16.879744"
       gradientTransform="matrix(0.999994,-3.582204e-3,3.582204e-3,0.999994,224.8481,131.9264)"
       gradientUnits="userSpaceOnUse"
       id="linearGradient14650"
       xlink:href="#garylighttowite"
       inkscape:collect="always" />
    <radialGradient
       r="49.857635"
       fy="210.55679"
       fx="227.65804"
       cy="210.55679"
       cx="227.65804"
       gradientTransform="scale(1.018381,0.981951)"
       gradientUnits="userSpaceOnUse"
       id="radialGradient14651"
       xlink:href="#sadow75to0w"
       inkscape:collect="always" />
    <radialGradient
       r="74.087990"
       fy="234.94638"
       fx="262.35825"
       cy="234.94638"
       cx="262.35825"
       gradientTransform="scale(1.018448,0.981886)"
       gradientUnits="userSpaceOnUse"
       id="radialGradient14652"
       xlink:href="#light75to0"
       inkscape:collect="always" />
    <linearGradient
       y2="77.205276"
       x2="-9.3134556"
       y1="80.154938"
       x1="16.879744"
       gradientTransform="matrix(0.999994,-3.582204e-3,3.582204e-3,0.999994,224.8481,139.4264)"
       gradientUnits="userSpaceOnUse"
       id="linearGradient14653"
       xlink:href="#garylighttowite"
       inkscape:collect="always" />
    <linearGradient
       y2="218.46164"
       x2="266.35638"
       y1="151.51718"
       x1="190.11575"
       gradientTransform="matrix(0.999994,-3.582198e-3,3.582198e-3,0.999994,0.000000,0.000000)"
       gradientUnits="userSpaceOnUse"
       id="linearGradient14654"
       xlink:href="#light100to0"
       inkscape:collect="always" />
    <linearGradient
       y2="0.95772386"
       x2="122.31405"
       y1="9.0542183"
       x1="68.581657"
       gradientTransform="matrix(0.901330,0.434111,-0.405060,0.965975,-51.61257,-0.295980)"
       gradientUnits="userSpaceOnUse"
       id="linearGradient1161"
       xlink:href="#orangetoblackorange"
       inkscape:collect="always" />
    <linearGradient
       y2="19.952200"
       x2="86.264603"
       y1="80.526398"
       x1="58.404800"
       gradientTransform="matrix(0.988165,0.000000,0.000000,1.059038,-51.61257,-0.295980)"
       gradientUnits="userSpaceOnUse"
       id="linearGradient1162"
       xlink:href="#orangelesstoyelow"
       inkscape:collect="always" />
    <linearGradient
       y2="-37.592434"
       x2="140.15146"
       y1="65.623413"
       x1="75.064339"
       gradientTransform="matrix(0.988165,0.000000,0.000000,1.059038,-51.61257,-0.295980)"
       gradientUnits="userSpaceOnUse"
       id="linearGradient1163"
       xlink:href="#orangetoyelow"
       inkscape:collect="always" />
    <linearGradient
       y2="-2.7694037"
       x2="113.51736"
       y1="94.234268"
       x1="55.499844"
       gradientTransform="matrix(0.988165,0.000000,0.000000,1.059038,-51.61257,-0.295980)"
       gradientUnits="userSpaceOnUse"
       id="linearGradient1164"
       xlink:href="#orangetoyelow"
       inkscape:collect="always" />
    <linearGradient
       y2="299.38031"
       x2="48.348915"
       y1="263.33130"
       x1="63.510639"
       gradientTransform="matrix(0.183056,0.000000,0.000000,0.265558,6.081840,0.841974)"
       gradientUnits="userSpaceOnUse"
       id="linearGradient1165"
       xlink:href="#blacktowhite"
       inkscape:collect="always" />
    <linearGradient
       y2="48.426991"
       x2="122.91101"
       y1="26.413313"
       x1="112.83246"
       gradientTransform="matrix(0.317347,0.000000,0.000000,0.142307,7.750154,1.021211)"
       gradientUnits="userSpaceOnUse"
       id="linearGradient1166"
       xlink:href="#light100to0"
       inkscape:collect="always" />
    <linearGradient
       y2="23.434032"
       x2="12.096656"
       y1="60.004551"
       x1="12.311178"
       gradientTransform="scale(1.395481,0.716599)"
       gradientUnits="userSpaceOnUse"
       id="linearGradient3368"
       xlink:href="#greandarktobgrean"
       inkscape:collect="always" />
    <linearGradient
       gradientUnits="userSpaceOnUse"
       y2="27.318733"
       x2="21.234388"
       y1="14.359675"
       x1="17.528448"
       gradientTransform="scale(0.798285,1.252686)"
       id="linearGradient4134"
       xlink:href="#greandarktobgrean"
       inkscape:collect="always" />
    <linearGradient
       y2="42.545475"
       x2="11.767287"
       y1="11.323250"
       x1="11.262131"
       gradientTransform="scale(1.395481,0.716599)"
       gradientUnits="userSpaceOnUse"
       id="linearGradient4144"
       xlink:href="#light75to0"
       inkscape:collect="always" />
    <linearGradient
       y2="23.434032"
       x2="12.096656"
       y1="60.004551"
       x1="12.311178"
       gradientTransform="scale(1.395481,0.716599)"
       gradientUnits="userSpaceOnUse"
       id="linearGradient4164"
       xlink:href="#greandarktobgrean"
       inkscape:collect="always" />
    <linearGradient
       y2="27.318733"
       x2="21.234388"
       y1="14.359675"
       x1="17.528448"
       gradientTransform="scale(0.798285,1.252686)"
       gradientUnits="userSpaceOnUse"
       id="linearGradient4166"
       xlink:href="#greandarktobgrean"
       inkscape:collect="always" />
    <linearGradient
       y2="42.545475"
       x2="11.767287"
       y1="11.323250"
       x1="11.262131"
       gradientTransform="scale(1.395481,0.716599)"
       gradientUnits="userSpaceOnUse"
       id="linearGradient4168"
       xlink:href="#light75to0"
       inkscape:collect="always" />
  </defs>
  <sodipodi:namedview
     inkscape:window-y="198"
     inkscape:window-x="255"
     inkscape:window-height="540"
     inkscape:window-width="640"
     gridoriginx="0.0000000pt"
     gridoriginy="0.0000000pt"
     gridspacingx="1.0000000pt"
     gridspacingy="1.0000000pt"
     inkscape:grid-bbox="true"
     showgrid="true"
     inkscape:current-layer="svg13893"
     inkscape:cy="68.671806"
     inkscape:cx="26.330268"
     inkscape:zoom="8.3747959"
     inkscape:pageshadow="2"
     inkscape:pageopacity="0.0"
     borderopacity="1.0"
     bordercolor="#666666"
     pagecolor="#ffffff"
     id="base" />
  <metadata
     id="metadata4">
    <rdf:RDF
       id="RDF5">
      <cc:Work
         id="Work6"
         rdf:about="">
        <dc:format
           id="format7">image/svg+xml</dc:format>
        <dc:type
           rdf:resource="http://purl.org/dc/dcmitype/StillImage"
           id="type9" />
      </cc:Work>
    </rdf:RDF>
  </metadata>
  <g
     inkscape:groupmode="layer"
     inkscape:label="Layer 1"
     id="layer1">
    <g
       transform="translate(6.250582e-2,1.187484)"
       id="g14600">
      <path
         transform="translate(-192.3819,-158.2677)"
         sodipodi:nodetypes="ccccccccccc"
         id="path3555"
         d="M 195.82544,161.52373 C 195.30077,161.52702 194.88009,161.93512 194.88190,162.43999 L 195.13165,232.35894 C 195.13416,232.86169 195.55777,233.26959 196.08244,233.26771 L 268.59716,233.00653 C 269.12183,233.00465 269.54321,232.59443 269.54070,232.09169 L 269.32689,172.20792 C 269.32482,172.02549 269.26832,171.84680 269.16242,171.69656 L 262.07172,161.68735 C 261.89406,161.43908 261.60077,161.28740 261.28611,161.28923 L 195.82544,161.52373 z " />
      <g
         transform="matrix(0.709635,0.704569,-0.704569,0.709635,-29.34850,-31.51460)"
         id="g10635">
        <path
           style="fill:#999999"
           id="path10637"
           d="M 97.977000,42.557000 L 97.590000,42.170000 L 94.502000,45.255000 L 97.479000,48.231000 L 97.883000,47.826000 L 95.295000,45.240000 L 97.977000,42.557000 z " />
        <path
           style="fill:#eeeeee"
           id="path10639"
           d="M 97.977000,42.557000 L 95.295000,45.240000 L 97.883000,47.826000 L 100.56500,45.145000 L 97.977000,42.557000 z " />
      </g>
      <path
         transform="translate(-192.3819,-158.2677)"
         style="fill:url(#linearGradient14646);fill-opacity:1.0000000"
         id="path3526"
         d="M 257.20946,225.52911 C 257.21981,227.82789 255.13347,229.69931 252.55184,229.70785 L 210.85120,229.85723 C 208.26887,229.86648 206.16987,228.00793 206.16235,225.71055 L 206.06374,198.97362 C 206.05692,196.67412 208.14397,194.80341 210.72630,194.79274 L 252.42482,194.64549 C 255.00574,194.63483 257.10544,196.49267 257.11368,198.79075 L 257.20946,225.52911 z " />
      <path
         transform="translate(-192.3819,-158.2677)"
         style="fill:url(#linearGradient14647);fill-opacity:1.0000000"
         id="path3535"
         d="M 210.70585,200.67923 C 210.35372,200.68191 210.07257,200.95657 210.07518,201.29173 C 210.07498,201.62973 210.35949,201.89812 210.70950,201.89616 L 252.46671,201.74657 C 252.81743,201.74532 253.09718,201.47490 253.09598,201.13832 C 253.09477,200.80174 252.81236,200.52840 252.46376,200.53035 L 210.70585,200.67923 z " />
      <path
         transform="translate(-192.3819,-158.2677)"
         style="fill:url(#linearGradient14648);fill-opacity:1.0000000"
         id="path3502"
         d="M 253.93610,189.35846 L 217.89794,189.48756 L 217.80614,163.66348 L 253.84217,163.53368 L 253.93610,189.35846 z " />
      <path
         transform="translate(-192.3819,-158.2677)"
         id="path3517"
         d="M 251.88068,185.61754 L 243.07725,185.64766 L 243.00383,165.15160 L 251.80866,165.11864 L 251.88068,185.61754 z " />
      <path
         transform="translate(-192.3819,-158.2677)"
         style="opacity:0.29999998;fill:url(#linearGradient14649);fill-opacity:1.0000000"
         id="path3515"
         d="M 209.08463,162.28594 C 208.56066,162.28711 208.13921,162.67894 208.14023,163.16189 L 208.23732,190.06642 C 208.23905,190.55007 208.66259,190.93817 209.18655,190.93559 L 254.50825,190.77253 C 255.03292,190.77065 255.45437,190.38023 255.45264,189.89657 L 255.35626,162.99276 C 255.35454,162.51051 254.92888,162.12313 254.40633,162.12288 L 209.08463,162.28594 z M 253.46577,163.87210 C 253.47143,165.45177 253.55025,187.45395 253.55520,189.03433 C 251.78037,189.04069 211.90265,189.18354 210.12782,189.18990 C 210.12216,187.60882 210.04263,165.60593 210.03839,164.02767 C 211.81322,164.02131 251.68882,163.87776 253.46577,163.87210 z "
         adobe-blending-mode="screen" />
      <path
         transform="translate(-192.3819,-158.2677)"
         style="fill:url(#linearGradient14650);fill-opacity:1.0000000"
         id="path11883"
         d="M 210.70585,210.67923 C 210.35372,210.68191 210.07257,210.95657 210.07518,211.29173 C 210.07498,211.62973 210.35949,211.89812 210.70950,211.89616 L 252.46671,211.74657 C 252.81743,211.74532 253.09718,211.47490 253.09598,211.13832 C 253.09477,210.80174 252.81236,210.52840 252.46376,210.53035 L 210.70585,210.67923 z " />
      <path
         transform="translate(-192.3819,-158.2677)"
         style="opacity:0.20000000;fill:url(#radialGradient14651);fill-opacity:1.0000000"
         id="path3476"
         d="M 264.12753,193.91556 C 264.19165,211.81656 249.19508,226.38020 230.63507,226.44527 C 212.06869,226.51249 196.96958,212.05524 196.90405,194.15849 C 196.84064,176.25820 211.83720,161.69315 230.40146,161.62665 C 248.96430,161.56015 264.06412,176.01669 264.12753,193.91556 z " />
      <g
         transform="matrix(0.709635,0.704569,-0.704569,0.709635,33.15150,-31.51460)"
         id="g3469">
        <path
           style="fill:#999999"
           id="path3471"
           d="M 97.977000,42.557000 L 97.590000,42.170000 L 94.502000,45.255000 L 97.479000,48.231000 L 97.883000,47.826000 L 95.295000,45.240000 L 97.977000,42.557000 z " />
        <path
           style="fill:#eeeeee"
           id="path3473"
           d="M 97.977000,42.557000 L 95.295000,45.240000 L 97.883000,47.826000 L 100.56500,45.145000 L 97.977000,42.557000 z " />
      </g>
      <path
         transform="translate(-192.3819,-158.2677)"
         style="fill:url(#radialGradient14652);fill-opacity:1.0000000;stroke:none"
         sodipodi:nodetypes="ccccccccccc"
         id="path13129"
         d="M 197.30957,163.15236 C 196.80880,163.15549 196.40728,163.54501 196.40901,164.02689 L 196.64739,230.76102 C 196.64977,231.24088 197.05408,231.63020 197.55486,231.62841 L 266.76653,231.37911 C 267.26730,231.37732 267.66950,230.98579 267.66709,230.50596 L 267.46302,173.34988 C 267.46105,173.17577 267.40713,173.00522 267.30605,172.86181 L 260.53833,163.30852 C 260.36875,163.07157 260.08883,162.92679 259.78851,162.92853 L 197.30957,163.15236 z " />
      <path
         transform="translate(-192.3819,-158.2677)"
         style="fill:url(#linearGradient14653);fill-opacity:1.0000000"
         id="path11885"
         d="M 210.70585,218.17923 C 210.35372,218.18191 210.07257,218.45657 210.07518,218.79173 C 210.07498,219.12973 210.35949,219.39812 210.70950,219.39616 L 252.46671,219.24657 C 252.81743,219.24532 253.09718,218.97490 253.09598,218.63832 C 253.09477,218.30174 252.81236,218.02840 252.46376,218.03035 L 210.70585,218.17923 z " />
      <path
         transform="translate(-192.3819,-158.2677)"
         sodipodi:nodetypes="ccccc"
         style="opacity:0.80000001;fill:url(#linearGradient14654);fill-opacity:1.0000000"
         id="path3489"
         d="M 265.77477,171.71269 C 264.00591,207.64400 225.68086,217.41425 199.82997,213.84409 L 199.64940,163.63490 L 259.49936,163.08083 L 265.77477,171.71269 z "
         adobe-blending-mode="screen" />
      <path
         style="fill:none;stroke:#000000;stroke-width:5.1250000;stroke-miterlimit:4.0000000;stroke-opacity:0.051948015"
         transform="translate(-192.3819,-158.2677)"
         sodipodi:nodetypes="ccccccccccc"
         id="path13974"
         d="M 195.82544,161.52373 C 195.30077,161.52702 194.88009,161.93512 194.88190,162.43999 L 195.13165,232.35894 C 195.13416,232.86169 195.55777,233.26959 196.08244,233.26771 L 268.59716,233.00653 C 269.12183,233.00465 269.54321,232.59443 269.54070,232.09169 L 269.32689,172.20792 C 269.32482,172.02549 269.26832,171.84680 269.16242,171.69656 L 262.07172,161.68735 C 261.89406,161.43908 261.60077,161.28740 261.28611,161.28923 L 195.82544,161.52373 z " />
      <path
         style="fill:none;stroke:#000000;stroke-width:3.7500000;stroke-miterlimit:4.0000000;stroke-opacity:0.051948015"
         transform="translate(-192.3819,-158.2677)"
         sodipodi:nodetypes="ccccccccccc"
         id="path14596"
         d="M 195.82544,161.52373 C 195.30077,161.52702 194.88009,161.93512 194.88190,162.43999 L 195.13165,232.35894 C 195.13416,232.86169 195.55777,233.26959 196.08244,233.26771 L 268.59716,233.00653 C 269.12183,233.00465 269.54321,232.59443 269.54070,232.09169 L 269.32689,172.20792 C 269.32482,172.02549 269.26832,171.84680 269.16242,171.69656 L 262.07172,161.68735 C 261.89406,161.43908 261.60077,161.28740 261.28611,161.28923 L 195.82544,161.52373 z " />
      <path
         style="fill:none;stroke:#000000;stroke-width:2.7500000;stroke-miterlimit:4.0000000;stroke-opacity:0.051948015"
         transform="translate(-192.3819,-158.2677)"
         sodipodi:nodetypes="ccccccccccc"
         id="path14597"
         d="M 195.82544,161.52373 C 195.30077,161.52702 194.88009,161.93512 194.88190,162.43999 L 195.13165,232.35894 C 195.13416,232.86169 195.55777,233.26959 196.08244,233.26771 L 268.59716,233.00653 C 269.12183,233.00465 269.54321,232.59443 269.54070,232.09169 L 269.32689,172.20792 C 269.32482,172.02549 269.26832,171.84680 269.16242,171.69656 L 262.07172,161.68735 C 261.89406,161.43908 261.60077,161.28740 261.28611,161.28923 L 195.82544,161.52373 z " />
      <path
         style="fill:none;stroke:#000000;stroke-width:2.2500000;stroke-miterlimit:4.0000000;stroke-opacity:0.051948015"
         transform="translate(-192.3819,-158.2677)"
         sodipodi:nodetypes="ccccccccccc"
         id="path14598"
         d="M 195.82544,161.52373 C 195.30077,161.52702 194.88009,161.93512 194.88190,162.43999 L 195.13165,232.35894 C 195.13416,232.86169 195.55777,233.26959 196.08244,233.26771 L 268.59716,233.00653 C 269.12183,233.00465 269.54321,232.59443 269.54070,232.09169 L 269.32689,172.20792 C 269.32482,172.02549 269.26832,171.84680 269.16242,171.69656 L 262.07172,161.68735 C 261.89406,161.43908 261.60077,161.28740 261.28611,161.28923 L 195.82544,161.52373 z " />
      <path
         style="fill:none;stroke:#000000;stroke-width:1.2500000;stroke-miterlimit:4.0000000;stroke-opacity:0.051948015"
         transform="translate(-192.3819,-158.2677)"
         sodipodi:nodetypes="ccccccccccc"
         id="path14599"
         d="M 195.82544,161.52373 C 195.30077,161.52702 194.88009,161.93512 194.88190,162.43999 L 195.13165,232.35894 C 195.13416,232.86169 195.55777,233.26959 196.08244,233.26771 L 268.59716,233.00653 C 269.12183,233.00465 269.54321,232.59443 269.54070,232.09169 L 269.32689,172.20792 C 269.32482,172.02549 269.26832,171.84680 269.16242,171.69656 L 262.07172,161.68735 C 261.89406,161.43908 261.60077,161.28740 261.28611,161.28923 L 195.82544,161.52373 z " />
    </g>
  </g>
  <g
     transform="translate(-4.853640,-5.177031)"
     id="g4159">
    <path
       id="path4146"
       d="M 8.9799382,7.3348764 C 8.0950534,7.4216195 7.4197047,8.1645031 7.4174382,9.0536264 L 7.4174382,45.928626 C 7.4108180,46.604422 7.7980140,47.222303 8.4090590,47.511039 C 9.0201040,47.799775 9.7433008,47.706584 10.261188,47.272376 L 32.792438,29.084876 C 33.200928,28.760826 33.441630,28.269942 33.447693,27.748564 C 33.453755,27.227185 33.224532,26.730837 32.823688,26.397376 L 10.261188,7.7411264 C 9.9062382,7.4386975 9.4443027,7.2922303 8.9799382,7.3348764 L 8.9799382,7.3348764 z M 10.886188,12.741126 L 28.979938,27.709876 L 10.886188,42.303626 L 10.886188,12.741126 z "
       style="fill:#000000;fill-opacity:0.35911599;fill-rule:evenodd;stroke:none;stroke-width:3.4625001;stroke-linecap:butt;stroke-linejoin:round;stroke-miterlimit:4.0000000;stroke-opacity:1.0000000" />
    <path
       sodipodi:nodetypes="cccc"
       id="rect3081"
       d="M 7.3978346,7.5441946 L 29.955805,26.212789 L 7.3978346,44.416006 L 7.3978346,7.5441946 z "
       style="fill:url(#linearGradient4164);fill-opacity:1.0000000;fill-rule:evenodd;stroke:url(#linearGradient4166);stroke-width:2.0707113pt;stroke-linecap:butt;stroke-linejoin:round;stroke-opacity:1.0000000" />
    <path
       sodipodi:nodetypes="cccc"
       id="path4136"
       d="M 7.3978346,7.5441946 L 29.955805,26.212789 C 20.072365,27.890027 13.228504,27.709745 7.3978346,22.632365 L 7.3978346,7.5441946 z "
       style="fill:url(#linearGradient4168);fill-opacity:1.0000000;fill-rule:evenodd;stroke:none;stroke-width:2.0707113pt;stroke-linecap:butt;stroke-linejoin:round;stroke-opacity:1.0000000" />
  </g>
</svg>
