<?xml version="1.0" encoding="UTF-8" standalone="no"?>
<!-- Created with Inkscape (http://www.inkscape.org/) -->
<svg
   xmlns:dc="http://purl.org/dc/elements/1.1/"
   xmlns:cc="http://web.resource.org/cc/"
   xmlns:rdf="http://www.w3.org/1999/02/22-rdf-syntax-ns#"
   xmlns:svg="http://www.w3.org/2000/svg"
   xmlns="http://www.w3.org/2000/svg"
   xmlns:xlink="http://www.w3.org/1999/xlink"
   xmlns:sodipodi="http://inkscape.sourceforge.net/DTD/sodipodi-0.dtd"
   xmlns:inkscape="http://www.inkscape.org/namespaces/inkscape"
   inkscape:export-ydpi="45.000000"
   inkscape:export-xdpi="45.000000"
   inkscape:export-filename="/home/pinheiro/kdeplayground-artwork/oooicons/crystalsvg/datafilterstandardfilter.png"
   sodipodi:docname="datafilterstandardfilter.svg"
   sodipodi:docbase="/home/pinheiro/kdeplayground-artwork/oooicons/crystalsvg"
   inkscape:version="0.41"
   sodipodi:version="0.32"
   id="svg13276"
   height="64px"
   width="64px">
  <defs
     id="defs3">
    <linearGradient
       id="garylighttowite">
      <stop
         id="stop5106"
         offset="0.0000000"
         style="stop-color:#7d7d7d;stop-opacity:1.0000000;" />
      <stop
         id="stop5107"
         offset="1.0000000"
         style="stop-color:#d3d4d4;stop-opacity:1.0000000;" />
    </linearGradient>
    <linearGradient
       spreadMethod="reflect"
       gradientUnits="userSpaceOnUse"
       y2="275.21307"
       x2="434.37149"
       y1="102.04493"
       x1="345.70886"
       gradientTransform="matrix(0.158588,0.000000,0.000000,0.170491,-46.38957,-14.64999)"
       id="linearGradient13259"
       xlink:href="#garylighttowite"
       inkscape:collect="always" />
    <linearGradient
       spreadMethod="reflect"
       gradientUnits="userSpaceOnUse"
       y2="273.05020"
       x2="777.66937"
       y1="270.84445"
       x1="667.60266"
       gradientTransform="matrix(0.113673,0.000000,0.000000,0.237853,-46.07475,-14.64932)"
       id="linearGradient8634"
       xlink:href="#graytolightgray"
       inkscape:collect="always" />
    <linearGradient
       id="greylighttograyw">
      <stop
         id="stop575"
         offset="0.0000000"
         style="stop-color:#b5b5b8;stop-opacity:1.0000000;" />
      <stop
         id="stop576"
         offset="1.0000000"
         style="stop-color:#ebebee;stop-opacity:1.0000000;" />
    </linearGradient>
    <linearGradient
       spreadMethod="reflect"
       gradientUnits="userSpaceOnUse"
       y2="191.41595"
       x2="489.91776"
       y1="210.62589"
       x1="360.42029"
       gradientTransform="matrix(0.195946,0.000000,0.000000,0.137984,-46.04937,-14.64932)"
       id="linearGradient4062"
       xlink:href="#greylighttograyw"
       inkscape:collect="always" />
    <radialGradient
       gradientUnits="userSpaceOnUse"
       r="116.47218"
       fy="256.86401"
       fx="178.29204"
       cy="256.86401"
       cx="178.29204"
       gradientTransform="scale(1.585650,0.630656)"
       id="radialGradient11715"
       xlink:href="#light100to0"
       inkscape:collect="always" />
    <linearGradient
       id="graytolightgray">
      <stop
         id="stop5101"
         offset="0.0000000"
         style="stop-color:#d4d3d3;stop-opacity:1.0000000;" />
      <stop
         id="stop5102"
         offset="1.0000000"
         style="stop-color:#ffffff;stop-opacity:1.0000000;" />
    </linearGradient>
    <linearGradient
       spreadMethod="reflect"
       gradientUnits="userSpaceOnUse"
       y2="371.38556"
       x2="377.23828"
       y1="409.79456"
       x1="283.56204"
       gradientTransform="matrix(0.236336,0.000000,0.000000,0.114404,-46.04937,-14.64932)"
       id="linearGradient4054"
       xlink:href="#graytolightgray"
       inkscape:collect="always" />
    <linearGradient
       id="light100to0">
      <stop
         id="stop2764"
         offset="0.0000000"
         style="stop-color:#ffffff;stop-opacity:1.0000000;" />
      <stop
         id="stop2765"
         offset="1.0000000"
         style="stop-color:#ffffff;stop-opacity:0.0000000;" />
    </linearGradient>
    <linearGradient
       gradientUnits="userSpaceOnUse"
       y2="423.30023"
       x2="253.63023"
       y1="322.30713"
       x1="222.57158"
       gradientTransform="matrix(0.320153,0.000000,0.000000,8.010735e-2,-44.58536,-14.03042)"
       id="linearGradient7864"
       xlink:href="#light100to0"
       inkscape:collect="always" />
    <linearGradient
       gradientUnits="userSpaceOnUse"
       y2="22.681667"
       x2="59.157505"
       y1="30.579924"
       x1="33.816196"
       gradientTransform="scale(0.607496,1.646102)"
       id="linearGradient16411"
       xlink:href="#light100to0"
       inkscape:collect="always" />
    <linearGradient
       y2="22.959185"
       x2="36.525856"
       y1="32.744850"
       x1="44.786060"
       gradientTransform="scale(0.607496,1.646102)"
       gradientUnits="userSpaceOnUse"
       id="linearGradient17187"
       xlink:href="#light100to0"
       inkscape:collect="always" />
    <linearGradient
       gradientUnits="userSpaceOnUse"
       y2="6.5209355"
       x2="36.910168"
       y1="8.4635162"
       x1="21.491100"
       gradientTransform="matrix(-0.956171,0.000000,0.000000,1.045838,62.86773,-9.213050e-3)"
       id="linearGradient18723"
       xlink:href="#light100to0"
       inkscape:collect="always" />
  </defs>
  <sodipodi:namedview
     inkscape:window-y="25"
     inkscape:window-x="0"
     inkscape:window-height="902"
     inkscape:window-width="1272"
     inkscape:grid-bbox="true"
     inkscape:document-units="px"
     showgrid="false"
     inkscape:current-layer="layer1"
     inkscape:cy="32.000000"
     inkscape:cx="32.000000"
     inkscape:zoom="11.421875"
     inkscape:pageshadow="2"
     inkscape:pageopacity="0.0"
     borderopacity="1.0"
     bordercolor="#666666"
     pagecolor="#ffffff"
     id="base" />
  <metadata
     id="metadata4">
    <rdf:RDF
       id="RDF5">
      <cc:Work
         id="Work6"
         rdf:about="">
        <dc:format
           id="format7">image/svg+xml</dc:format>
        <dc:type
           rdf:resource="http://purl.org/dc/dcmitype/StillImage"
           id="type9" />
      </cc:Work>
    </rdf:RDF>
  </metadata>
  <g
     inkscape:groupmode="layer"
     inkscape:label="Layer 1"
     id="layer1">
    <path
       transform="matrix(0.769756,0.000000,0.000000,0.767486,6.795721,13.95596)"
       d="M 40.839780 60.022099 A 8.3093920 2.2099447 0 1 1  24.220996,60.022099 A 8.3093920 2.2099447 0 1 1  40.839780 60.022099 z"
       sodipodi:ry="2.2099447"
       sodipodi:rx="8.3093920"
       sodipodi:cy="60.022099"
       sodipodi:cx="32.530388"
       id="path14089"
       style="opacity:0.49029127;fill:#000000;fill-opacity:0.033898298;stroke:#000000;stroke-width:4.6500001;stroke-linejoin:round;stroke-miterlimit:4.0000000;stroke-opacity:0.050847415"
       sodipodi:type="arc" />
    <path
       transform="matrix(0.929539,0.000000,0.000000,1.000000,1.382584,0.000000)"
       d="M 40.839780 60.022099 A 8.3093920 2.2099447 0 1 1  24.220996,60.022099 A 8.3093920 2.2099447 0 1 1  40.839780 60.022099 z"
       sodipodi:ry="2.2099447"
       sodipodi:rx="8.3093920"
       sodipodi:cy="60.022099"
       sodipodi:cx="32.530388"
       id="path14087"
       style="opacity:0.49029127;fill:#000000;fill-opacity:0.033898298;stroke:#000000;stroke-width:4.6500001;stroke-linejoin:round;stroke-miterlimit:4.0000000;stroke-opacity:0.050847415"
       sodipodi:type="arc" />
    <path
       id="path14085"
       d="M 31.537615,3.5363319 C 16.808706,3.5363319 4.8525482,8.0172340 4.8525482,13.536970 C 4.8525482,13.547132 4.8577596,13.556761 4.8578439,13.566923 C 4.8577596,13.577036 4.8525482,13.586714 4.8525482,13.596827 C 4.8525482,13.915666 4.9112755,14.228459 4.9901828,14.539548 C 4.9941594,14.554481 4.9966126,14.569495 5.0007675,14.584429 C 5.1786087,15.253720 5.5167358,15.905450 6.0277287,16.529727 C 6.0630616,16.572859 6.1020411,16.616468 6.1388974,16.659375 L 26.185783,39.468913 L 26.185783,59.041328 L 26.233428,59.041328 C 26.341060,60.109801 28.670920,61.390629 31.548207,61.390584 C 34.425680,61.390629 36.755643,60.109889 36.862977,59.041328 L 36.878868,59.041328 L 36.878868,58.986467 C 36.879046,58.979682 36.884165,58.973285 36.884165,58.966500 C 36.884165,58.959630 36.879046,58.953410 36.878868,58.946535 L 36.878868,39.583629 L 56.788121,16.978610 C 56.535149,17.247666 56.246837,17.508665 55.935848,17.766685 L 56.703422,16.893843 C 57.668951,15.860046 58.217395,14.753612 58.217395,13.596827 C 58.217395,13.586714 58.212181,13.577036 58.212099,13.566923 C 58.212181,13.556761 58.217395,13.547132 58.217395,13.536970 C 58.217395,8.0172340 46.266531,3.5363319 31.537615,3.5363319 z "
       style="fill:none;fill-opacity:1.0000000;fill-rule:evenodd;stroke:#000000;stroke-width:4.8686466;stroke-linecap:butt;stroke-linejoin:round;stroke-miterlimit:4.0000000;stroke-opacity:0.050847415" />
    <path
       id="path14075"
       d="M 31.747603,3.0832120 C 17.018694,3.0832120 5.0625358,7.5641141 5.0625358,13.083850 C 5.0625358,13.094012 5.0677468,13.103641 5.0678308,13.113803 C 5.0677468,13.123916 5.0625358,13.133594 5.0625358,13.143707 C 5.0625358,13.462546 5.1212628,13.775339 5.2001698,14.086428 C 5.2041468,14.101361 5.2065998,14.116375 5.2107548,14.131309 C 5.3885958,14.800600 5.7267228,15.452330 6.2377158,16.076607 C 6.2730488,16.119739 6.3120288,16.163348 6.3488848,16.206255 L 26.395771,39.015793 L 26.395771,58.588208 L 26.443417,58.588208 C 26.551048,59.656681 28.880908,60.937509 31.758196,60.937464 C 34.635668,60.937509 36.965631,59.656769 37.072965,58.588208 L 37.088857,58.588208 L 37.088857,58.533347 C 37.089034,58.526562 37.094154,58.520165 37.094154,58.513380 C 37.094154,58.506510 37.089034,58.500290 37.088857,58.493415 L 37.088857,39.130509 L 56.998109,16.525490 C 56.745136,16.794546 56.456825,17.055545 56.145836,17.313565 L 56.913411,16.440723 C 57.878939,15.406926 58.427384,14.300492 58.427384,13.143707 C 58.427384,13.133594 58.422169,13.123916 58.422088,13.113803 C 58.422169,13.103641 58.427384,13.094012 58.427384,13.083850 C 58.427384,7.5641141 46.476520,3.0832120 31.747603,3.0832120 z "
       style="fill:none;fill-opacity:1.0000000;fill-rule:evenodd;stroke:#000000;stroke-width:6.1250715;stroke-linecap:butt;stroke-linejoin:round;stroke-miterlimit:4.0000000;stroke-opacity:0.050847415" />
    <path
       id="path12479"
       d="M 31.537615,3.5363319 C 16.808706,3.5363319 4.8525482,8.0172340 4.8525482,13.536970 C 4.8525482,13.547132 4.8577596,13.556761 4.8578439,13.566923 C 4.8577596,13.577036 4.8525482,13.586714 4.8525482,13.596827 C 4.8525482,13.915666 4.9112755,14.228459 4.9901828,14.539548 C 4.9941594,14.554481 4.9966126,14.569495 5.0007675,14.584429 C 5.1786087,15.253720 5.5167358,15.905450 6.0277287,16.529727 C 6.0630616,16.572859 6.1020411,16.616468 6.1388974,16.659375 L 26.185783,39.468913 L 26.185783,59.041328 L 26.233428,59.041328 C 26.341060,60.109801 28.670920,61.390629 31.548207,61.390584 C 34.425680,61.390629 36.755643,60.109889 36.862977,59.041328 L 36.878868,59.041328 L 36.878868,58.986467 C 36.879046,58.979682 36.884165,58.973285 36.884165,58.966500 C 36.884165,58.959630 36.879046,58.953410 36.878868,58.946535 L 36.878868,39.583629 L 56.788121,16.978610 C 56.535149,17.247666 56.246837,17.508665 55.935848,17.766685 L 56.703422,16.893843 C 57.668951,15.860046 58.217395,14.753612 58.217395,13.596827 C 58.217395,13.586714 58.212181,13.577036 58.212099,13.566923 C 58.212181,13.556761 58.217395,13.547132 58.217395,13.536970 C 58.217395,8.0172340 46.266531,3.5363319 31.537615,3.5363319 z "
       style="fill:none;fill-opacity:1.0000000;fill-rule:evenodd;stroke:#000000;stroke-width:1.7881857;stroke-linecap:butt;stroke-linejoin:round;stroke-miterlimit:4.0000000;stroke-opacity:0.039547984" />
    <path
       id="path12477"
       d="M 31.537615,3.5363319 C 16.808706,3.5363319 4.8525482,8.0172340 4.8525482,13.536970 C 4.8525482,13.547132 4.8577596,13.556761 4.8578439,13.566923 C 4.8577596,13.577036 4.8525482,13.586714 4.8525482,13.596827 C 4.8525482,13.915666 4.9112755,14.228459 4.9901828,14.539548 C 4.9941594,14.554481 4.9966126,14.569495 5.0007675,14.584429 C 5.1786087,15.253720 5.5167358,15.905450 6.0277287,16.529727 C 6.0630616,16.572859 6.1020411,16.616468 6.1388974,16.659375 L 26.185783,39.468913 L 26.185783,59.041328 L 26.233428,59.041328 C 26.341060,60.109801 28.670920,61.390629 31.548207,61.390584 C 34.425680,61.390629 36.755643,60.109889 36.862977,59.041328 L 36.878868,59.041328 L 36.878868,58.986467 C 36.879046,58.979682 36.884165,58.973285 36.884165,58.966500 C 36.884165,58.959630 36.879046,58.953410 36.878868,58.946535 L 36.878868,39.583629 L 56.788121,16.978610 C 56.535149,17.247666 56.246837,17.508665 55.935848,17.766685 L 56.703422,16.893843 C 57.668951,15.860046 58.217395,14.753612 58.217395,13.596827 C 58.217395,13.586714 58.212181,13.577036 58.212099,13.566923 C 58.212181,13.556761 58.217395,13.547132 58.217395,13.536970 C 58.217395,8.0172340 46.266531,3.5363319 31.537615,3.5363319 z "
       style="fill:none;fill-opacity:1.0000000;fill-rule:evenodd;stroke:#000000;stroke-width:1.9526165;stroke-linecap:butt;stroke-linejoin:round;stroke-miterlimit:4.0000000;stroke-opacity:0.039547984" />
    <path
       id="path9412"
       d="M 31.537615,3.5363319 C 16.808706,3.5363319 4.8525482,8.0172340 4.8525482,13.536970 C 4.8525482,13.547132 4.8577596,13.556761 4.8578439,13.566923 C 4.8577596,13.577036 4.8525482,13.586714 4.8525482,13.596827 C 4.8525482,13.915666 4.9112755,14.228459 4.9901828,14.539548 C 4.9941594,14.554481 4.9966126,14.569495 5.0007675,14.584429 C 5.1786087,15.253720 5.5167358,15.905450 6.0277287,16.529727 C 6.0630616,16.572859 6.1020411,16.616468 6.1388974,16.659375 L 26.185783,39.468913 L 26.185783,59.041328 L 26.233428,59.041328 C 26.341060,60.109801 28.670920,61.390629 31.548207,61.390584 C 34.425680,61.390629 36.755643,60.109889 36.862977,59.041328 L 36.878868,59.041328 L 36.878868,58.986467 C 36.879046,58.979682 36.884165,58.973285 36.884165,58.966500 C 36.884165,58.959630 36.879046,58.953410 36.878868,58.946535 L 36.878868,39.583629 L 56.788121,16.978610 C 56.535149,17.247666 56.246837,17.508665 55.935848,17.766685 L 56.703422,16.893843 C 57.668951,15.860046 58.217395,14.753612 58.217395,13.596827 C 58.217395,13.586714 58.212181,13.577036 58.212099,13.566923 C 58.212181,13.556761 58.217395,13.547132 58.217395,13.536970 C 58.217395,8.0172340 46.266531,3.5363319 31.537615,3.5363319 z "
       style="fill:none;fill-opacity:1.0000000;fill-rule:evenodd;stroke:url(#linearGradient13259);stroke-width:2.9840090;stroke-linecap:butt;stroke-linejoin:round;stroke-miterlimit:4.0000000;stroke-opacity:1.0000000" />
    <path
       id="path14875"
       d="M 31.537615,3.5363319 C 16.808706,3.5363319 4.8525482,8.0172340 4.8525482,13.536970 C 4.8525482,13.547132 4.8577596,13.556761 4.8578439,13.566923 C 4.8577596,13.577036 4.8525482,13.586714 4.8525482,13.596827 C 4.8525482,13.915666 4.9112755,14.228459 4.9901828,14.539548 C 4.9941594,14.554481 4.9966126,14.569495 5.0007675,14.584429 C 5.1786087,15.253720 5.5167358,15.905450 6.0277287,16.529727 C 6.0630616,16.572859 6.1020411,16.616468 6.1388974,16.659375 L 26.185783,39.468913 L 26.185783,59.041328 L 26.233428,59.041328 C 26.341060,60.109801 28.670920,61.390629 31.548207,61.390584 C 34.425680,61.390629 36.755643,60.109889 36.862977,59.041328 L 36.878868,59.041328 L 36.878868,58.986467 C 36.879046,58.979682 36.884165,58.973285 36.884165,58.966500 C 36.884165,58.959630 36.879046,58.953410 36.878868,58.946535 L 36.878868,39.583629 L 56.788121,16.978610 C 56.535149,17.247666 56.246837,17.508665 55.935848,17.766685 L 56.703422,16.893843 C 57.668951,15.860046 58.217395,14.753612 58.217395,13.596827 C 58.217395,13.586714 58.212181,13.577036 58.212099,13.566923 C 58.212181,13.556761 58.217395,13.547132 58.217395,13.536970 C 58.217395,8.0172340 46.266531,3.5363319 31.537615,3.5363319 z "
       style="stroke-opacity:0.27118644;stroke-miterlimit:4.0000000;stroke-linejoin:round;stroke-linecap:butt;stroke-width:2.9840090;stroke:#000000;fill-rule:evenodd;fill-opacity:1.0000000;fill:none" />
    <path
       sodipodi:nodetypes="ccccccccccc"
       id="path2477"
       d="M 26.187189,38.578861 L 26.187189,59.039098 L 26.234824,59.039098 C 26.342465,60.107567 28.672326,61.392996 31.549604,61.392996 C 34.427076,61.392996 36.757047,60.107656 36.864384,59.039098 L 36.880272,59.039098 L 36.880272,58.984233 C 36.880450,58.977447 36.885568,58.971101 36.885568,58.964270 C 36.885568,58.957395 36.880450,58.951222 36.880272,58.944347 L 36.880272,38.578861 L 26.187189,38.578861 z "
       style="fill:url(#linearGradient8634);fill-opacity:1.0000000;fill-rule:evenodd;stroke:none;stroke-width:1.0000000px;stroke-linecap:butt;stroke-linejoin:miter;stroke-opacity:1.0000000" />
    <path
       id="path2483"
       d="M 31.539020,3.5961828 C 16.810111,3.5961828 4.8539526,8.0770907 4.8539526,13.596827 C 4.8539526,14.617574 5.2696322,15.601849 6.0291331,16.529727 C 6.0644661,16.572859 6.1034455,16.616468 6.1403011,16.659375 L 26.430695,39.748256 L 26.483628,39.748256 C 27.177937,40.550610 29.167563,41.134868 31.539020,41.134868 C 34.125103,41.134868 36.275269,40.444341 36.763814,39.528765 L 56.704825,16.893843 C 57.670356,15.860046 58.218797,14.753612 58.218797,13.596827 C 58.218797,8.0770907 46.267930,3.5961828 31.539020,3.5961828 z "
       style="fill:url(#linearGradient4062);fill-opacity:1.0000000;fill-rule:evenodd;stroke:none;stroke-width:1.0000000px;stroke-linecap:butt;stroke-linejoin:miter;stroke-opacity:1.0000000" />
    <path
       transform="matrix(0.132417,0.000000,0.000000,0.126157,6.767091,6.617658)"
       d="M 344.57040 108.29356 A 157.51790 62.649166 0 1 1  29.534607,108.29356 A 157.51790 62.649166 0 1 1  344.57040 108.29356 z"
       sodipodi:ry="62.649166"
       sodipodi:rx="157.51790"
       sodipodi:cy="108.29356"
       sodipodi:cx="187.05251"
       id="path5580"
       style="fill:#000000;fill-opacity:1.0000000;fill-rule:evenodd;stroke:none;stroke-width:1.0000000px;stroke-linecap:butt;stroke-linejoin:miter;stroke-opacity:1.0000000"
       sodipodi:type="arc" />
    <path
       transform="matrix(0.132417,0.000000,0.000000,0.126157,6.767091,6.617658)"
       d="M 344.57040 108.29356 A 157.51790 62.649166 0 1 1  29.534607,108.29356 A 157.51790 62.649166 0 1 1  344.57040 108.29356 z"
       sodipodi:ry="62.649166"
       sodipodi:rx="157.51790"
       sodipodi:cy="108.29356"
       sodipodi:cx="187.05251"
       id="path10949"
       style="fill:url(#radialGradient11715);fill-opacity:1.0000000;fill-rule:evenodd;stroke:none;stroke-width:1.0000000px;stroke-linecap:butt;stroke-linejoin:miter;stroke-opacity:1.0000000"
       sodipodi:type="arc" />
    <path
       id="path2503"
       d="M 6.2858729,16.768140 L 26.533920,39.812096 L 26.586853,39.812096 C 27.282260,40.613748 29.266837,41.198708 31.636964,41.198708 C 34.228429,41.198708 36.389754,40.506036 36.872327,39.587613 L 56.786876,16.977602 C 53.130570,20.866586 43.259921,23.661349 31.636964,23.661349 C 19.804937,23.661349 9.7780034,20.766759 6.2858729,16.768140 z "
       style="fill:url(#linearGradient4054);fill-opacity:1.0000000;fill-rule:evenodd;stroke:none;stroke-width:0.20000000px;stroke-linecap:butt;stroke-linejoin:miter;stroke-opacity:1.0000000" />
    <path
       id="path17191"
       d="M 25.906250,39.375000 L 25.250000,40.125000 C 26.758729,41.440422 29.354467,41.865109 31.843750,41.812500 C 33.088391,41.786196 34.304630,41.626308 35.343750,41.343750 C 36.382870,41.061192 37.256858,40.689644 37.812500,40.093750 L 37.062500,39.406250 C 36.733738,39.758829 36.002176,40.119483 35.062500,40.375000 C 34.122824,40.630517 32.984411,40.787733 31.812500,40.812500 C 29.468677,40.862035 27.041844,40.365095 25.906250,39.375000 z "
       style="fill:#000000;fill-opacity:0.056497160;fill-rule:evenodd;stroke:none;stroke-width:1.0000000px;stroke-linecap:butt;stroke-linejoin:miter;stroke-opacity:1.0000000" />
    <path
       sodipodi:nodetypes="ccccccc"
       id="path15645"
       d="M 28.110497,60.731821 L 27.939227,41.000000 L 17.171270,22.292817 C 20.110229,23.025109 25.443717,23.821655 28.403315,23.800813 L 31.044665,40.646409 L 30.932766,61.195617 L 28.110497,60.731821 z "
       style="fill:url(#linearGradient16411);fill-opacity:1.0;fill-rule:evenodd;stroke:none;stroke-width:1.0000000px;stroke-linecap:butt;stroke-linejoin:miter;stroke-opacity:1.0000000" />
    <path
       id="path17951"
       d="M 25.687500,39.593750 L 25.437500,39.906250 C 26.834288,41.124074 29.398105,41.582937 31.843750,41.531250 C 33.066572,41.505407 34.240713,41.336946 35.250000,41.062500 C 36.259287,40.788054 37.106172,40.397899 37.593750,39.875000 L 37.281250,39.625000 C 36.884424,40.050573 36.125759,40.423870 35.156250,40.687500 C 34.186741,40.951130 33.006230,41.099772 31.812500,41.125000 C 29.425039,41.175457 26.935034,40.681443 25.687500,39.593750 z "
       style="fill:#000000;fill-opacity:0.056497160;fill-rule:evenodd;stroke:none;stroke-width:0.40000001;stroke-linecap:butt;stroke-linejoin:miter;stroke-miterlimit:4.0000000;stroke-opacity:1.0000000" />
    <path
       transform="matrix(0.165938,0.000000,0.000000,0.154225,0.430314,-3.094166)"
       d="M 344.57040 108.29356 A 157.51790 62.649166 0 1 1  29.534607,108.29356 A 157.51790 62.649166 0 1 1  344.57040 108.29356 z"
       sodipodi:ry="62.649166"
       sodipodi:rx="157.51790"
       sodipodi:cy="108.29356"
       sodipodi:cx="187.05251"
       id="path2522"
       style="fill:none;fill-opacity:0.75000000;fill-rule:evenodd;stroke:#ffffff;stroke-width:7.3750000;stroke-linecap:butt;stroke-linejoin:miter;stroke-miterlimit:4.0000000;stroke-opacity:1.0000000"
       sodipodi:type="arc" />
    <path
       sodipodi:nodetypes="czzzzzzs"
       id="path7098"
       d="M 27.262481,12.901309 C 32.304407,12.516445 37.988469,12.893953 40.611653,13.463636 C 43.234835,14.033312 45.140037,15.478508 43.990589,16.193466 C 42.841144,16.908468 36.763393,17.330946 33.714965,17.753418 C 30.666529,18.175897 28.029121,18.858365 25.699980,18.728371 C 23.370830,18.598375 20.442971,17.623425 19.740117,16.973445 C 19.037255,16.323464 19.941464,15.528247 21.482803,14.828574 C 23.024151,14.128893 24.693561,13.097376 27.262481,12.901309 z "
       style="fill:url(#linearGradient7864);fill-opacity:1.0000000;fill-rule:evenodd;stroke:#000000;stroke-width:0.16014563px;stroke-linecap:butt;stroke-linejoin:miter;stroke-opacity:1.0000000" />
    <path
       sodipodi:nodetypes="cczc"
       id="path10185"
       d="M 5.9106625,13.250490 C 6.7578109,2.6670778 55.758611,1.7150240 56.806402,13.781900 C 56.761812,6.2317911 39.941475,4.2391157 31.458849,4.1505368 C 22.976225,4.0619639 6.3788163,6.4753188 5.9106625,13.250490 z "
       style="fill:#000000;fill-opacity:0.033898298;fill-rule:evenodd;stroke:none;stroke-width:1.0000000px;stroke-linecap:butt;stroke-linejoin:miter;stroke-opacity:1.0000000" />
    <path
       sodipodi:nodetypes="cczc"
       id="path10945"
       d="M 5.9106625,13.349839 C 8.7642069,2.7000015 53.150290,1.4822233 56.806402,13.881205 C 56.761812,6.7296646 39.874593,4.1391543 31.391966,4.0505805 C 22.909351,3.9620027 6.7132214,7.3052967 5.9106625,13.349839 z "
       style="fill:#000000;fill-opacity:0.033898298;fill-rule:evenodd;stroke:none;stroke-width:1.0000000px;stroke-linecap:butt;stroke-linejoin:miter;stroke-opacity:1.0000000" />
    <path
       sodipodi:nodetypes="cczc"
       id="path10947"
       d="M 5.9106625,13.262665 C 9.2992463,1.6164663 50.742607,0.39873267 56.806402,13.794031 C 56.293657,7.1738608 39.941475,4.4505489 31.458849,4.3619760 C 22.976225,4.2733973 6.7132214,7.2181672 5.9106625,13.262665 z "
       style="fill:#000000;fill-opacity:0.033898298;fill-rule:evenodd;stroke:none;stroke-width:1.0000000px;stroke-linecap:butt;stroke-linejoin:miter;stroke-opacity:1.0000000" />
    <path
       sodipodi:nodetypes="ccccccc"
       id="path16417"
       d="M 28.110497,61.519783 L 27.939227,41.000000 L 17.171270,22.292817 C 20.110229,23.025109 25.443717,23.821655 28.403315,23.800813 L 31.044665,40.646409 L 30.932766,61.983579 C 30.867523,62.354288 28.088189,61.937036 28.110497,61.519783 z "
       style="fill:url(#linearGradient17187);fill-opacity:1.0;fill-rule:evenodd;stroke:none;stroke-width:1.0000000px;stroke-linecap:butt;stroke-linejoin:miter;stroke-opacity:1.0000000" />
    <path
       sodipodi:nodetypes="ccccc"
       id="path17957"
       d="M 37.498931,12.706805 C 36.801462,12.613305 34.691674,12.414408 33.888808,12.426305 L 33.655691,4.5710015 C 35.760032,4.5985485 38.981580,4.8579686 40.896207,5.2017063 L 37.498931,12.706805 z "
       style="fill:url(#linearGradient18723);fill-opacity:1.0000000;fill-rule:evenodd;stroke:none;stroke-width:1.0000000px;stroke-linecap:butt;stroke-linejoin:miter;stroke-opacity:1.0000000" />
  </g>
</svg>
