<?xml version="1.0" encoding="UTF-8" standalone="no"?>
<!-- Created with Inkscape (http://www.inkscape.org/) -->
<svg
   xmlns:dc="http://purl.org/dc/elements/1.1/"
   xmlns:cc="http://web.resource.org/cc/"
   xmlns:rdf="http://www.w3.org/1999/02/22-rdf-syntax-ns#"
   xmlns:svg="http://www.w3.org/2000/svg"
   xmlns="http://www.w3.org/2000/svg"
   xmlns:xlink="http://www.w3.org/1999/xlink"
   xmlns:sodipodi="http://inkscape.sourceforge.net/DTD/sodipodi-0.dtd"
   xmlns:inkscape="http://www.inkscape.org/namespaces/inkscape"
   width="64pt"
   height="64pt"
   id="svg16513"
   sodipodi:version="0.32"
   inkscape:version="0.41"
   sodipodi:docbase="/home/nuno/kdeplayground-artwork/oooicons/crystalsvg"
   sodipodi:docname="searchdialog.svg"
   inkscape:export-filename="/home/nuno/kdeplayground-artwork/oooicons/crystalsvg/searchdialog.png"
   inkscape:export-xdpi="36.000000"
   inkscape:export-ydpi="36.000000">
  <defs
     id="defs3">
    <radialGradient
       inkscape:collect="always"
       xlink:href="#light100to0"
       id="radialGradient16512"
       gradientUnits="userSpaceOnUse"
       gradientTransform="scale(1.091687,0.916013)"
       cx="188.63550"
       cy="268.59674"
       fx="188.63550"
       fy="268.59674"
       r="9.7014513" />
    <radialGradient
       inkscape:collect="always"
       xlink:href="#light100to0"
       id="radialGradient16511"
       gradientUnits="userSpaceOnUse"
       gradientTransform="scale(1.091687,0.916013)"
       cx="214.42342"
       cy="290.09976"
       fx="214.42342"
       fy="290.09976"
       r="12.433510" />
    <linearGradient
       id="light100to0">
      <stop
         style="stop-color:#ffffff;stop-opacity:1.0000000;"
         offset="0.0000000"
         id="stop2764" />
      <stop
         style="stop-color:#ffffff;stop-opacity:0.0000000;"
         offset="1.0000000"
         id="stop2765" />
    </linearGradient>
    <linearGradient
       id="light90to0">
      <stop
         style="stop-color:#ffffff;stop-opacity:0.90833336;"
         offset="0.0000000"
         id="stop1890" />
      <stop
         style="stop-color:#ffffff;stop-opacity:0.0000000;"
         offset="1.0000000"
         id="stop1892" />
    </linearGradient>
    <linearGradient
       id="orangetoyelow">
      <stop
         style="stop-color:#ff7d00;stop-opacity:1.0000000;"
         offset="0.0000000"
         id="stop2661" />
      <stop
         style="stop-color:#ffff00;stop-opacity:1.0000000;"
         offset="1.0000000"
         id="stop2662" />
    </linearGradient>
    <linearGradient
       id="bludraktowhite"
       gradientUnits="userSpaceOnUse"
       x1="33.332001"
       y1="10.305200"
       x2="33.332001"
       y2="91.407700">
      <linearGradient
         id="bluedrklighttowite"
         gradientUnits="userSpaceOnUse"
         x1="33.332001"
         y1="10.305200"
         x2="33.332001"
         y2="91.407700"
         spreadMethod="pad"
         xlink:href="#linearGradient6373" />
      <stop
         offset="0"
         style="stop-color:rgb(255,255,255)"
         id="stop7271" />
      <stop
         offset="1"
         style="stop-color:rgb(84,84,119)"
         id="stop7273" />
    </linearGradient>
    <linearGradient
       inkscape:collect="always"
       xlink:href="#bludraktowhite"
       id="linearGradient1376"
       gradientUnits="userSpaceOnUse"
       gradientTransform="matrix(-0.631386,-0.615420,0.593090,-0.607696,-28.60175,-156.3871)"
       spreadMethod="reflect"
       x1="-216.41075"
       y1="-112.04543"
       x2="-218.18871"
       y2="-135.79361" />
    <linearGradient
       inkscape:collect="always"
       xlink:href="#bludraktowhite"
       id="linearGradient1378"
       gradientUnits="userSpaceOnUse"
       gradientTransform="matrix(0.865803,5.461554e-3,2.707960e-2,0.864906,-28.60175,-156.3871)"
       spreadMethod="reflect"
       x1="73.415047"
       y1="231.74817"
       x2="82.103157"
       y2="224.47372" />
    <linearGradient
       inkscape:collect="always"
       xlink:href="#light90to0"
       id="linearGradient1387"
       gradientUnits="userSpaceOnUse"
       gradientTransform="matrix(0.768267,0.758423,-0.394587,0.393868,123.9354,-176.3115)"
       spreadMethod="reflect"
       x1="111.32960"
       y1="386.09204"
       x2="112.91872"
       y2="367.41110" />
    <linearGradient
       inkscape:collect="always"
       xlink:href="#orangetoyelow"
       id="linearGradient1390"
       gradientUnits="userSpaceOnUse"
       gradientTransform="matrix(0.949400,0.934275,-0.391720,0.390331,102.4551,-191.8857)"
       spreadMethod="reflect"
       x1="113.97564"
       y1="367.68045"
       x2="113.61272"
       y2="382.32303" />
    <linearGradient
       inkscape:collect="always"
       xlink:href="#bludraktowhite"
       id="linearGradient1392"
       gradientUnits="userSpaceOnUse"
       gradientTransform="matrix(0.986517,0.970802,-0.383192,0.381833,105.1127,-194.5956)"
       spreadMethod="reflect"
       x1="110.12445"
       y1="398.06821"
       x2="110.54198"
       y2="381.73886" />
    <radialGradient
       inkscape:collect="always"
       xlink:href="#bludraktowhite"
       id="radialGradient1395"
       gradientUnits="userSpaceOnUse"
       gradientTransform="matrix(0.617026,0.599374,-0.613853,0.617094,105.1127,-194.5956)"
       cx="154.87000"
       cy="248.76897"
       fx="154.87000"
       fy="248.76897"
       r="8.9088030" />
    <linearGradient
       inkscape:collect="always"
       xlink:href="#bludraktowhite"
       id="linearGradient1397"
       gradientUnits="userSpaceOnUse"
       gradientTransform="matrix(0.617026,0.599374,-0.613853,0.617094,105.1127,-194.5956)"
       x1="144.50417"
       y1="249.54593"
       x2="162.24979"
       y2="245.98344" />
    <radialGradient
       inkscape:collect="always"
       xlink:href="#bludraktowhite"
       id="radialGradient1400"
       gradientUnits="userSpaceOnUse"
       gradientTransform="matrix(0.617026,0.599374,-0.613853,0.617094,105.1127,-194.5956)"
       cx="196.46024"
       cy="248.85941"
       fx="196.46024"
       fy="248.85941"
       r="6.7950330" />
    <linearGradient
       inkscape:collect="always"
       xlink:href="#bludraktowhite"
       id="linearGradient1402"
       gradientUnits="userSpaceOnUse"
       gradientTransform="matrix(0.617026,0.599374,-0.613853,0.617094,105.1127,-194.5956)"
       x1="187.21997"
       y1="246.31511"
       x2="200.85158"
       y2="246.31511" />
    <linearGradient
       inkscape:collect="always"
       xlink:href="#bludraktowhite"
       id="linearGradient1405"
       gradientUnits="userSpaceOnUse"
       gradientTransform="matrix(-0.635670,-0.582102,0.645895,-0.586331,-21.28576,-154.3512)"
       spreadMethod="reflect"
       x1="-226.05598"
       y1="-119.62550"
       x2="-225.67094"
       y2="-124.01011" />
    <linearGradient
       inkscape:collect="always"
       xlink:href="#bludraktowhite"
       id="linearGradient1407"
       gradientUnits="userSpaceOnUse"
       gradientTransform="matrix(0.906168,-2.989913e-3,-7.230192e-3,0.826239,-21.28576,-154.3512)"
       spreadMethod="reflect"
       x1="74.778839"
       y1="244.09380"
       x2="78.151619"
       y2="241.11296" />
    <linearGradient
       inkscape:collect="always"
       xlink:href="#bludraktowhite"
       id="linearGradient1417"
       gradientUnits="userSpaceOnUse"
       gradientTransform="matrix(0.976523,-0.119434,0.110577,1.010517,0.000000,0.000000)"
       x1="-26.130182"
       y1="-35.866158"
       x2="33.667786"
       y2="43.096836" />
    <radialGradient
       inkscape:collect="always"
       xlink:href="#light100to0"
       id="radialGradient1423"
       gradientUnits="userSpaceOnUse"
       gradientTransform="matrix(0.714532,-8.739114e-2,8.090310e-2,0.739341,-102.0403,-111.3570)"
       cx="119.82000"
       cy="189.74400"
       fx="119.82000"
       fy="189.74400"
       r="19.273544" />
    <radialGradient
       inkscape:collect="always"
       xlink:href="#light100to0"
       id="radialGradient1426"
       gradientUnits="userSpaceOnUse"
       gradientTransform="matrix(0.714507,-8.738799e-2,8.090601e-2,0.739368,-79.40753,-107.6449)"
       cx="138.89362"
       cy="213.82373"
       fx="138.89362"
       fy="213.82373"
       r="39.210377" />
    <radialGradient
       inkscape:collect="always"
       xlink:href="#bludraktowhite"
       id="radialGradient3707"
       gradientTransform="scale(0.982750,1.017552)"
       cx="14.330431"
       cy="8.7243853"
       fx="14.330431"
       fy="8.7243853"
       r="40.434757"
       gradientUnits="userSpaceOnUse" />
    <linearGradient
       inkscape:collect="always"
       xlink:href="#bludraktowhite"
       id="linearGradient2110"
       gradientUnits="userSpaceOnUse"
       gradientTransform="matrix(1.003206,0.546903,-0.728765,1.360083,31.90031,-12.27602)"
       x1="17.716093"
       y1="44.658592"
       x2="17.716093"
       y2="56.676796" />
    <linearGradient
       inkscape:collect="always"
       xlink:href="#bludraktowhite"
       id="linearGradient2894"
       gradientTransform="scale(0.772667,1.294218)"
       x1="9.7291965"
       y1="37.905838"
       x2="11.296499"
       y2="48.176193"
       gradientUnits="userSpaceOnUse" />
    <linearGradient
       inkscape:collect="always"
       xlink:href="#bludraktowhite"
       id="linearGradient2896"
       gradientTransform="matrix(-0.771608,-2.478918e-2,-0.110475,1.292446,3.677614e-16,-1.309716e-16)"
       x1="-20.675077"
       y1="38.307297"
       x2="-19.107773"
       y2="48.577671"
       gradientUnits="userSpaceOnUse" />
    <linearGradient
       inkscape:collect="always"
       xlink:href="#bludraktowhite"
       id="linearGradient2898"
       gradientTransform="matrix(0.795219,0.120174,-0.147113,1.235284,-2.533216e-14,3.254014e-15)"
       x1="27.767757"
       y1="37.509075"
       x2="28.386541"
       y2="47.959801"
       gradientUnits="userSpaceOnUse" />
    <linearGradient
       inkscape:collect="always"
       xlink:href="#bludraktowhite"
       id="linearGradient2900"
       gradientTransform="matrix(-0.791311,-0.143671,-0.260611,1.216409,-7.838785e-16,8.227900e-15)"
       x1="-31.927092"
       y1="37.004395"
       x2="-31.308308"
       y2="47.455120"
       gradientUnits="userSpaceOnUse" />
    <linearGradient
       y2="56.676796"
       x2="17.716093"
       y1="44.658592"
       x1="17.716093"
       gradientTransform="matrix(1.003206,0.546903,-0.728765,1.360083,82.61501,-62.59038)"
       gradientUnits="userSpaceOnUse"
       id="linearGradient1415"
       xlink:href="#bludraktowhite"
       inkscape:collect="always" />
    <linearGradient
       y2="47.455120"
       x2="-31.308308"
       y1="37.004395"
       x1="-31.927092"
       gradientTransform="matrix(-0.791311,-0.143671,-0.260611,1.216409,-2.790735e-16,-1.391053e-16)"
       gradientUnits="userSpaceOnUse"
       id="linearGradient1418"
       xlink:href="#bludraktowhite"
       inkscape:collect="always" />
    <linearGradient
       y2="47.959801"
       x2="28.386541"
       y1="37.509075"
       x1="27.767757"
       gradientTransform="matrix(0.795219,0.120174,-0.147113,1.235284,-3.297188e-14,9.334220e-15)"
       gradientUnits="userSpaceOnUse"
       id="linearGradient1420"
       xlink:href="#bludraktowhite"
       inkscape:collect="always" />
    <linearGradient
       y2="47.294113"
       x2="-19.584465"
       y1="39.526501"
       x1="-20.053844"
       gradientTransform="matrix(-0.771608,-2.478918e-2,-0.110475,1.292446,-2.858824e-15,-9.992007e-15)"
       gradientUnits="userSpaceOnUse"
       id="linearGradient1422"
       xlink:href="#bludraktowhite"
       inkscape:collect="always" />
    <linearGradient
       y2="46.892658"
       x2="10.819868"
       y1="39.125061"
       x1="10.350491"
       gradientTransform="scale(0.772667,1.294218)"
       gradientUnits="userSpaceOnUse"
       id="linearGradient1424"
       xlink:href="#bludraktowhite"
       inkscape:collect="always" />
  </defs>
  <sodipodi:namedview
     id="base"
     pagecolor="#ffffff"
     bordercolor="#666666"
     borderopacity="1.0"
     inkscape:pageopacity="0.0"
     inkscape:pageshadow="2"
     inkscape:zoom="5.5000000"
     inkscape:cx="47.651061"
     inkscape:cy="51.632679"
     inkscape:current-layer="layer1"
     showgrid="true"
     inkscape:grid-bbox="true"
     gridspacingy="1.0000000pt"
     gridspacingx="1.0000000pt"
     gridoriginy="0.0000000pt"
     gridoriginx="0.0000000pt"
     inkscape:window-width="776"
     inkscape:window-height="538"
     inkscape:window-x="373"
     inkscape:window-y="75" />
  <metadata
     id="metadata4">
    <rdf:RDF
       id="RDF5">
      <cc:Work
         rdf:about=""
         id="Work6">
        <dc:format
           id="format7">image/svg+xml</dc:format>
        <dc:type
           id="type9"
           rdf:resource="http://purl.org/dc/dcmitype/StillImage" />
      </cc:Work>
    </rdf:RDF>
  </metadata>
  <g
     id="layer1"
     inkscape:label="Layer 1"
     inkscape:groupmode="layer">
    <g
       id="g1336"
       transform="matrix(1.009259,0.000000,0.000000,1.009519,-0.740746,-0.761499)">
      <path
         d="M 23.202848,17.190447 C 23.706087,21.789353 20.511262,25.955666 16.067066,26.499215 C 11.624298,27.042589 7.6140957,23.757490 7.1108563,19.158584 C 6.6076169,14.559677 9.8022805,10.391886 14.245048,9.8485122 C 18.689325,9.3057026 22.699608,12.591541 23.202848,17.190447 z "
         id="path620"
         style="opacity:0.49999997;fill:#007ebb;fill-opacity:0.22077920" />
      <path
         d="M 43.842335,42.947227 L 48.991563,46.018993 L 45.325492,50.403066 L 41.868650,44.742338 L 43.842335,42.947227 z "
         id="path15144"
         style="fill:url(#linearGradient1405);fill-opacity:1.0000000;stroke:url(#linearGradient1407);stroke-linejoin:round"
         sodipodi:nodetypes="ccccc" />
      <path
         style="fill:url(#radialGradient1400);fill-opacity:1.0000000;stroke:url(#linearGradient1402);stroke-width:0.86526918;stroke-miterlimit:4.0000000"
         d="M 69.453994,69.595633 C 71.775959,67.284127 75.533320,67.250516 77.843417,69.520596 C 80.151772,71.788952 80.140744,75.501691 77.818769,77.812336 C 75.495053,80.122988 71.737701,80.156599 69.429345,77.887365 C 67.119248,75.617311 67.130285,71.905415 69.453994,69.595633 z "
         id="path5115" />
      <path
         style="fill:url(#radialGradient1395);fill-opacity:1.0000000;stroke:url(#linearGradient1397);stroke-width:0.86526918;stroke-miterlimit:4.0000000"
         d="M 46.650595,47.222047 C 48.972565,44.910541 52.729921,44.876930 55.040024,47.147010 C 57.348380,49.415367 57.337347,53.128114 55.015374,55.438751 C 52.691659,57.749403 48.934304,57.783013 46.625952,55.513779 C 44.315849,53.243725 44.326890,49.531830 46.650595,47.222047 z "
         id="path7623" />
      <path
         style="fill:url(#linearGradient1390);fill-opacity:1.0000000;stroke:url(#linearGradient1392);stroke-width:1.4268034;stroke-linecap:butt;stroke-linejoin:round;stroke-miterlimit:4.0000000;stroke-dashoffset:0.0000000;stroke-opacity:1.0000000"
         d="M 56.039777,47.095969 L 77.795343,68.504947 C 78.510159,69.208385 78.583768,70.274763 77.960370,70.895948 L 70.758050,78.072731 C 70.134652,78.693907 69.057320,78.627697 68.342504,77.924259 L 46.586937,56.515281 C 45.872116,55.811843 45.798511,54.745464 46.421906,54.124280 L 53.624230,46.947505 C 54.247625,46.326320 55.324956,46.392531 56.039777,47.095969 z "
         id="rect5114" />
      <path
         style="fill:url(#linearGradient1387);fill-opacity:1.0000000;stroke:none;stroke-width:1.6489741;stroke-linecap:butt;stroke-linejoin:round;stroke-miterlimit:4.0000000;stroke-dashoffset:0.0000000;stroke-opacity:1.0000000"
         d="M 56.030327,47.090666 L 62.801334,53.713247 C 63.515011,54.417781 69.059023,76.179508 57.827389,67.705840 L 46.585772,56.518012 C 45.872095,55.813478 45.798965,54.745781 46.421810,54.124074 L 53.617837,46.941169 C 54.240675,46.319462 55.316650,46.386141 56.030327,47.090666 z "
         id="rect8247" />
      <path
         d="M 44.650341,37.109588 L 47.821106,40.201030 L 39.792518,48.427318 L 36.621784,45.336751 L 44.650341,37.109588 z "
         id="path478"
         style="fill:url(#linearGradient1376);fill-opacity:1.0000000;stroke:url(#linearGradient1378);stroke-linejoin:round" />
      <path
         d="M 22.600239,1.7415690 C 9.5670264,3.3356006 0.19727148,15.560268 1.6732517,29.048668 C 3.1490701,42.535589 14.911478,52.176429 27.944690,50.582397 C 40.977903,48.988366 50.346863,36.763047 48.871044,23.276125 C 47.395698,9.7868988 35.633924,0.14523198 22.600239,1.7415690 M 27.531176,46.803457 C 16.531514,48.149524 6.5691144,39.984129 5.3234755,28.600727 C 4.0779983,17.218804 12.013687,6.8628794 23.013429,5.5175521 C 34.012458,4.1723121 43.975020,12.339185 45.220497,23.721108 C 46.466136,35.104510 38.530205,45.458217 27.531176,46.803457 z "
         id="path518"
         style="fill:url(#radialGradient3707);fill-opacity:1.0000000" />
      <path
         d="M 0.89127078,29.144683 C 2.4134487,43.055265 14.588916,53.036705 28.033681,51.392338 C 41.477017,49.748146 51.176713,37.091257 49.653106,23.180850 C 48.130766,9.2687886 35.955299,-0.71265073 22.511963,0.93154113 C 9.0672787,2.5766471 -0.63106893,15.232622 0.89127078,29.144683 M 2.4553135,28.953392 C 1.0305472,15.933016 10.106786,4.0896604 22.688434,2.5508576 C 35.269368,1.0121422 46.663583,10.351852 48.088349,23.372228 C 49.512791,36.389647 40.437429,48.234393 27.855781,49.773196 C 15.274133,51.311999 3.8800798,41.973768 2.4553135,28.953392 z "
         id="path533"
         style="fill:url(#linearGradient1417);fill-opacity:1.0000000" />
      <path
         clip-rule="evenodd"
         d="M 47.355121,23.462858 C 48.753177,36.487978 39.875567,48.294281 27.530557,49.833552 C 15.184820,51.372911 4.0428822,42.062798 2.6449105,29.038443 C 1.2468566,16.013323 10.122123,4.2057603 22.467860,2.6663997 C 34.812871,1.1271302 45.957232,10.439270 47.355121,23.462858 z "
         id="path554"
         style="opacity:0.73000002;fill:#009cbb;fill-opacity:0.18614717;fill-rule:evenodd" />
      <path
         d="M 10.030211,29.963396 C 8.8935531,19.575931 15.850829,10.190841 25.569471,9.0021993 C 35.286685,7.8137321 44.087014,15.271582 45.223672,25.659048 C 45.272621,26.106369 45.301630,26.550135 45.321904,26.993470 C 45.377848,25.837249 45.349816,24.661327 45.219961,23.474632 C 43.938480,11.763687 33.725446,3.3921781 22.408465,4.7763054 C 11.092198,6.1603453 2.9560519,16.775308 4.2376133,28.486992 C 5.5191748,40.198676 15.732047,48.568707 27.049028,47.184580 C 28.127210,47.052712 29.176715,46.837437 30.192313,46.543889 C 30.024257,46.569688 29.855973,46.600011 29.686636,46.620722 C 19.967279,47.809451 11.166868,40.350861 10.030211,29.963396 z "
         id="path575"
         style="opacity:0.49999997;fill:#007ebb;fill-opacity:0.16883112" />
      <path
         d="M 16.541963,8.4077183 C 10.047863,9.2019814 5.3789063,15.294385 6.1141860,22.013816 C 6.8495466,28.733987 12.710906,33.538477 19.205005,32.744214 C 25.698390,31.950038 30.367347,25.857634 29.631986,19.137464 C 28.895911,12.417381 23.035348,7.6135426 16.541963,8.4077183 M 20.119120,31.549718 C 14.877541,32.190791 10.148842,28.314730 9.5553110,22.890683 C 8.9619415,17.468114 12.727784,12.551627 17.970077,11.910466 C 23.210228,11.269568 27.939803,15.147020 28.533172,20.569589 C 29.126703,25.993637 25.359270,30.908820 20.119120,31.549718 z "
         id="path598"
         style="opacity:0.49999997;fill:#007ebb;fill-opacity:0.15584411" />
      <path
         clip-rule="evenodd"
         d="M 47.907260,24.374849 C 49.283570,36.952340 40.544078,48.352901 28.391131,49.839272 C 16.237469,51.325729 5.2688780,42.335572 3.8926560,29.758820 C 2.5163530,17.181329 11.253538,5.7795519 23.407200,4.2930941 C 35.560147,2.8067237 46.531120,11.798837 47.907260,24.374849 z "
         id="path12629"
         style="opacity:0.73000002;fill:url(#radialGradient1426);fill-opacity:1.0000000;fill-rule:evenodd" />
      <path
         sodipodi:type="arc"
         style="fill:url(#radialGradient16511);fill-opacity:1.0000000;stroke:none;stroke-width:1.0000000;stroke-linecap:butt;stroke-linejoin:round;stroke-miterlimit:4.0000000;stroke-dashoffset:0.0000000;stroke-opacity:1.0000000"
         id="path15833"
         sodipodi:cx="220.33757"
         sodipodi:cy="256.43384"
         sodipodi:rx="21.808155"
         sodipodi:ry="18.298798"
         d="M 242.14573 256.43384 A 21.808155 18.298798 0 1 1  198.52942,256.43384 A 21.808155 18.298798 0 1 1  242.14573 256.43384 z"
         transform="matrix(0.859766,-0.105154,0.101759,0.929935,-188.1266,-184.3751)" />
      <path
         sodipodi:type="arc"
         style="fill:url(#radialGradient16512);fill-opacity:1.0000000;stroke:none;stroke-width:1.0000000;stroke-linecap:butt;stroke-linejoin:round;stroke-miterlimit:4.0000000;stroke-dashoffset:0.0000000;stroke-opacity:1.0000000"
         id="path16459"
         sodipodi:cx="220.33757"
         sodipodi:cy="256.43384"
         sodipodi:rx="21.808155"
         sodipodi:ry="18.298798"
         d="M 242.14573 256.43384 A 21.808155 18.298798 0 1 1  198.52942,256.43384 A 21.808155 18.298798 0 1 1  242.14573 256.43384 z"
         transform="matrix(0.859766,-0.105154,0.101759,0.929935,-193.1266,-193.1251)" />
    </g>
    <path
       d="M 1.1978401,14.382460 C 1.7010791,18.981366 -1.4937459,23.147679 -5.9379419,23.691228 C -10.380710,24.234602 -14.390912,20.949503 -14.894152,16.350597 C -15.397391,11.751690 -12.202727,7.5838987 -7.7599599,7.0405249 C -3.3156829,6.4977153 0.69460013,9.7835537 1.1978401,14.382460 z "
       id="path13255"
       style="opacity:0.49999997;fill:url(#radialGradient1423);fill-opacity:1.0000000;stroke:none" />
    <path
       style="fill:url(#linearGradient2110);fill-opacity:1.0000000;stroke:none;stroke-width:2.0374999;stroke-linecap:round;stroke-linejoin:round;stroke-miterlimit:4.0000000;stroke-dashoffset:0.0000000;stroke-opacity:1.0000000"
       d="M 17.349693,77.791415 C 14.074183,83.904435 13.795863,75.647103 9.3113085,73.202321 C 4.8267530,70.757543 -2.1742025,75.046535 1.1013062,68.933513 C 4.3768146,62.820492 10.674838,59.843370 15.159394,62.288151 C 19.643947,64.732932 20.625199,71.678394 17.349693,77.791415 z "
       id="path1337"
       sodipodi:nodetypes="czzzz" />
    <path
       sodipodi:type="arc"
       style="fill:url(#linearGradient2900);fill-opacity:1.0000000;stroke:none;stroke-width:2.0374999;stroke-linecap:round;stroke-linejoin:round;stroke-miterlimit:4.0000000;stroke-dashoffset:0.0000000;stroke-opacity:1.0000000"
       id="path2120"
       sodipodi:cx="5.2727275"
       sodipodi:cy="58.454544"
       sodipodi:rx="3.6363637"
       sodipodi:ry="6.0909090"
       d="M 8.9090912 58.454544 A 3.6363637 6.0909090 0 1 1  1.6363637,58.454544 A 3.6363637 6.0909090 0 1 1  8.9090912 58.454544 z"
       transform="matrix(0.996152,0.286876,-0.250475,0.851963,15.45774,5.892343)" />
    <path
       sodipodi:type="arc"
       style="fill:url(#linearGradient2898);fill-opacity:1.0000000;stroke:none;stroke-width:2.0374999;stroke-linecap:round;stroke-linejoin:round;stroke-miterlimit:4.0000000;stroke-dashoffset:0.0000000;stroke-opacity:1.0000000"
       id="path2122"
       sodipodi:cx="5.2727275"
       sodipodi:cy="58.454544"
       sodipodi:rx="3.6363637"
       sodipodi:ry="6.0909090"
       d="M 8.9090912 58.454544 A 3.6363637 6.0909090 0 1 1  1.6363637,58.454544 A 3.6363637 6.0909090 0 1 1  8.9090912 58.454544 z"
       transform="matrix(-0.861468,-0.547178,-0.559403,0.713258,61.36413,27.22104)" />
    <path
       sodipodi:type="arc"
       style="fill:url(#linearGradient2896);fill-opacity:1.0;stroke:none;stroke-width:2.0374999;stroke-linecap:round;stroke-linejoin:round;stroke-miterlimit:4.0000000;stroke-dashoffset:0.0000000;stroke-opacity:1.0000000"
       id="path2124"
       sodipodi:cx="5.2727275"
       sodipodi:cy="58.454544"
       sodipodi:rx="3.6363637"
       sodipodi:ry="6.0909090"
       d="M 8.9090912 58.454544 A 3.6363637 6.0909090 0 1 1  1.6363637,58.454544 A 3.6363637 6.0909090 0 1 1  8.9090912 58.454544 z"
       transform="matrix(0.802966,0.402556,-0.359594,0.734574,30.94849,10.54337)" />
    <path
       sodipodi:type="arc"
       style="fill:url(#linearGradient2894);fill-opacity:1.0;stroke:none;stroke-width:2.0374999;stroke-linecap:round;stroke-linejoin:round;stroke-miterlimit:4.0000000;stroke-dashoffset:0.0000000;stroke-opacity:1.0000000"
       id="path2128"
       sodipodi:cx="5.2727275"
       sodipodi:cy="58.454544"
       sodipodi:rx="3.6363637"
       sodipodi:ry="6.0909090"
       d="M 8.9090912 58.454544 A 3.6363637 6.0909090 0 1 1  1.6363637,58.454544 A 3.6363637 6.0909090 0 1 1  8.9090912 58.454544 z"
       transform="matrix(-0.790330,-0.425572,-0.427644,0.699207,49.29305,20.90428)" />
    <path
       style="fill:url(#linearGradient1415);fill-opacity:1.0000000;stroke:none;stroke-width:2.0374999;stroke-linecap:round;stroke-linejoin:round;stroke-miterlimit:4.0000000;stroke-dashoffset:0.0000000;stroke-opacity:1.0000000"
       d="M 68.064399,27.477053 C 64.788889,33.590073 64.510569,25.332741 60.026014,22.887959 C 55.541459,20.443181 48.540503,24.732173 51.816012,18.619151 C 55.091520,12.506130 61.389544,9.5290078 65.874100,11.973789 C 70.358653,14.418570 71.339905,21.364032 68.064399,27.477053 z "
       id="path1405"
       sodipodi:nodetypes="czzzz" />
    <path
       sodipodi:type="arc"
       style="fill:url(#linearGradient1418);fill-opacity:1.0000000;stroke:none;stroke-width:2.0374999;stroke-linecap:round;stroke-linejoin:round;stroke-miterlimit:4.0000000;stroke-dashoffset:0.0000000;stroke-opacity:1.0000000"
       id="path1407"
       sodipodi:cx="5.2727275"
       sodipodi:cy="58.454544"
       sodipodi:rx="3.6363637"
       sodipodi:ry="6.0909090"
       d="M 8.9090912 58.454544 A 3.6363637 6.0909090 0 1 1  1.6363637,58.454544 A 3.6363637 6.0909090 0 1 1  8.9090912 58.454544 z"
       transform="matrix(0.996152,0.286876,-0.250475,0.851963,66.17244,-44.42202)" />
    <path
       sodipodi:type="arc"
       style="fill:url(#linearGradient1420);fill-opacity:1.0000000;stroke:none;stroke-width:2.0374999;stroke-linecap:round;stroke-linejoin:round;stroke-miterlimit:4.0000000;stroke-dashoffset:0.0000000;stroke-opacity:1.0000000"
       id="path1409"
       sodipodi:cx="5.2727275"
       sodipodi:cy="58.454544"
       sodipodi:rx="3.6363637"
       sodipodi:ry="6.0909090"
       d="M 8.9090912 58.454544 A 3.6363637 6.0909090 0 1 1  1.6363637,58.454544 A 3.6363637 6.0909090 0 1 1  8.9090912 58.454544 z"
       transform="matrix(-0.861468,-0.547178,-0.559403,0.713258,112.0789,-23.09332)" />
    <path
       sodipodi:type="arc"
       style="stroke-opacity:1.0000000;stroke-dashoffset:0.0000000;stroke-miterlimit:4.0000000;stroke-linejoin:round;stroke-linecap:round;stroke-width:2.0374999;stroke:none;fill-opacity:1.0;fill:url(#linearGradient1422)"
       id="path1411"
       sodipodi:cx="5.2727275"
       sodipodi:cy="58.454544"
       sodipodi:rx="3.6363637"
       sodipodi:ry="6.0909090"
       d="M 8.9090912 58.454544 A 3.6363637 6.0909090 0 1 1  1.6363637,58.454544 A 3.6363637 6.0909090 0 1 1  8.9090912 58.454544 z"
       transform="matrix(0.802966,0.402556,-0.359594,0.734574,81.66319,-39.77099)" />
    <path
       sodipodi:type="arc"
       style="stroke-opacity:1.0000000;stroke-dashoffset:0.0000000;stroke-miterlimit:4.0000000;stroke-linejoin:round;stroke-linecap:round;stroke-width:2.0374999;stroke:none;fill-opacity:1.0;fill:url(#linearGradient1424)"
       id="path1413"
       sodipodi:cx="5.2727275"
       sodipodi:cy="58.454544"
       sodipodi:rx="3.6363637"
       sodipodi:ry="6.0909090"
       d="M 8.9090912 58.454544 A 3.6363637 6.0909090 0 1 1  1.6363637,58.454544 A 3.6363637 6.0909090 0 1 1  8.9090912 58.454544 z"
       transform="matrix(-0.790330,-0.425572,-0.427644,0.699207,100.0078,-29.41008)" />
  </g>
</svg>
