<?xml version="1.0" encoding="UTF-8" standalone="no"?>
<!-- Created with Inkscape (http://www.inkscape.org/) -->
<svg
   xmlns:dc="http://purl.org/dc/elements/1.1/"
   xmlns:cc="http://web.resource.org/cc/"
   xmlns:rdf="http://www.w3.org/1999/02/22-rdf-syntax-ns#"
   xmlns:svg="http://www.w3.org/2000/svg"
   xmlns="http://www.w3.org/2000/svg"
   xmlns:xlink="http://www.w3.org/1999/xlink"
   xmlns:sodipodi="http://inkscape.sourceforge.net/DTD/sodipodi-0.dtd"
   xmlns:inkscape="http://www.inkscape.org/namespaces/inkscape"
   inkscape:export-ydpi="36.000000"
   inkscape:export-xdpi="36.000000"
   inkscape:export-filename="/home/nuno/kdeplayground-artwork/oooicons/crystalsvg/lc26050.png"
   width="64pt"
   height="64pt"
   id="svg7105"
   sodipodi:version="0.32"
   inkscape:version="0.41"
   sodipodi:docbase="/home/nuno/kdeplayground-artwork/oooicons/crystalsvg"
   sodipodi:docname="lc26050.svg">
  <defs
     id="defs3">
    <radialGradient
       inkscape:collect="always"
       xlink:href="#light90to0"
       id="radialGradient2386"
       gradientUnits="userSpaceOnUse"
       gradientTransform="matrix(0.184210,0.000000,0.000000,7.817184e-2,66.02301,330.3594)"
       cx="123.88702"
       cy="391.47498"
       fx="124.57159"
       fy="391.47498"
       r="166.47372" />
    <linearGradient
       inkscape:collect="always"
       xlink:href="#light90to0"
       id="linearGradient2385"
       gradientUnits="userSpaceOnUse"
       x1="183.38441"
       y1="18.164442"
       x2="183.38441"
       y2="346.10425" />
    <linearGradient
       inkscape:collect="always"
       xlink:href="#reddarktoblack"
       id="linearGradient2384"
       gradientUnits="userSpaceOnUse"
       gradientTransform="scale(1.000041,0.999959)"
       x1="-27.252979"
       y1="440.88812"
       x2="340.91357"
       y2="810.38373" />
    <radialGradient
       inkscape:collect="always"
       xlink:href="#redtodarkred"
       id="radialGradient2383"
       gradientUnits="userSpaceOnUse"
       gradientTransform="scale(1.000041,0.999959)"
       cx="217.18330"
       cy="739.74438"
       fx="217.18332"
       fy="742.83777"
       r="190.24219" />
    <radialGradient
       inkscape:collect="always"
       xlink:href="#light90to0"
       id="radialGradient3316"
       gradientUnits="userSpaceOnUse"
       gradientTransform="matrix(0.867947,0.000000,0.000000,0.858795,13.06524,16.51028)"
       cx="96.550949"
       cy="122.84541"
       fx="96.516357"
       fy="122.84541"
       r="8.4255276" />
    <linearGradient
       inkscape:collect="always"
       xlink:href="#light90to0"
       id="linearGradient3315"
       gradientUnits="userSpaceOnUse"
       gradientTransform="matrix(-1.179606,0.000000,0.000000,-0.847741,201.9313,213.1430)"
       x1="75.582169"
       y1="111.27166"
       x2="86.543922"
       y2="127.94456" />
    <linearGradient
       id="light90to0">
      <stop
         style="stop-color:#ffffff;stop-opacity:0.90196079;"
         offset="0.0000000"
         id="stop1890" />
      <stop
         style="stop-color:#ffffff;stop-opacity:0.0000000;"
         offset="1.0000000"
         id="stop1892" />
    </linearGradient>
    <linearGradient
       inkscape:collect="always"
       xlink:href="#light90to0"
       id="linearGradient3314"
       gradientUnits="userSpaceOnUse"
       gradientTransform="scale(1.179606,0.847741)"
       x1="75.582169"
       y1="111.27166"
       x2="86.543922"
       y2="127.94456" />
    <linearGradient
       id="reddarktoblack">
      <stop
         style="stop-color:#8e0000;stop-opacity:1.0000000;"
         offset="0.0000000"
         id="stop3230" />
      <stop
         style="stop-color:#000000;stop-opacity:1.0000000;"
         offset="1.0000000"
         id="stop3231" />
    </linearGradient>
    <linearGradient
       inkscape:collect="always"
       xlink:href="#reddarktoblack"
       id="linearGradient3313"
       gradientUnits="userSpaceOnUse"
       gradientTransform="scale(1.000090,0.999910)"
       x1="85.707428"
       y1="91.883087"
       x2="116.18065"
       y2="122.12918" />
    <linearGradient
       id="redtodarkred">
      <stop
         style="stop-color:#ff0000;stop-opacity:1.0000000;"
         offset="0.0000000"
         id="stop3856" />
      <stop
         style="stop-color:#920000;stop-opacity:1.0000000;"
         offset="1.0000000"
         id="stop3855" />
    </linearGradient>
    <radialGradient
       inkscape:collect="always"
       xlink:href="#redtodarkred"
       id="radialGradient3312"
       gradientUnits="userSpaceOnUse"
       gradientTransform="scale(1.000090,0.999910)"
       cx="106.42307"
       cy="114.96401"
       fx="106.54480"
       fy="114.84129"
       r="15.097758" />
  </defs>
  <sodipodi:namedview
     id="base"
     pagecolor="#ffffff"
     bordercolor="#666666"
     borderopacity="1.0"
     inkscape:pageopacity="0.0"
     inkscape:pageshadow="2"
     inkscape:zoom="5.5000000"
     inkscape:cx="32.000000"
     inkscape:cy="68.194070"
     inkscape:current-layer="layer1"
     showgrid="true"
     inkscape:grid-bbox="true"
     gridspacingy="1.0000000pt"
     gridspacingx="1.0000000pt"
     gridoriginy="0.0000000pt"
     gridoriginx="0.0000000pt"
     inkscape:window-width="640"
     inkscape:window-height="538"
     inkscape:window-x="0"
     inkscape:window-y="25" />
  <metadata
     id="metadata4">
    <rdf:RDF
       id="RDF5">
      <cc:Work
         rdf:about=""
         id="Work6">
        <dc:format
           id="format7">image/svg+xml</dc:format>
        <dc:type
           id="type9"
           rdf:resource="http://purl.org/dc/dcmitype/StillImage" />
      </cc:Work>
    </rdf:RDF>
  </metadata>
  <g
     id="layer1"
     inkscape:label="Layer 1"
     inkscape:groupmode="layer">
    <g
       id="g2354"
       transform="matrix(2.586671,0.000000,0.000000,2.568750,-186.7127,-248.6077)">
      <path
         style="fill:url(#radialGradient3312);fill-opacity:1.0000000;fill-rule:evenodd;stroke:url(#linearGradient3313);stroke-width:0.94999999;stroke-linecap:butt;stroke-linejoin:miter;stroke-miterlimit:4.0000000;stroke-opacity:1.0000000"
         d="M 92.125000,92.125000 C 91.358734,92.121271 90.620943,92.384763 90.031250,92.968750 L 86.843750,96.125000 C 85.664362,97.292969 85.644532,99.195618 86.812500,100.37500 L 93.531250,107.15625 L 86.750000,113.90625 C 85.570610,115.07422 85.550779,116.94562 86.718750,118.12500 L 89.875000,121.31250 C 91.042968,122.49189 92.914365,122.51172 94.093750,121.34375 L 100.90625,114.62500 L 107.65625,121.43750 C 108.82422,122.61689 110.72686,122.60547 111.90625,121.43750 L 115.09375,118.28125 C 116.27314,117.11328 116.26172,115.24189 115.09375,114.06250 L 108.34375,107.25000 L 115.15625,100.50000 C 116.33564,99.332032 116.35547,97.429390 115.18750,96.250000 L 112.03125,93.093750 C 110.86329,91.914361 108.96064,91.894534 107.78125,93.062500 L 100.96875,99.781250 L 94.250000,93.000000 C 93.666016,92.410305 92.891266,92.128724 92.125000,92.125000 z "
         id="path11917"
         transform="translate(-13.19676,5.132075)" />
      <path
         style="fill:url(#linearGradient3314);fill-opacity:1.0000000;fill-rule:evenodd;stroke:none;stroke-width:0.94966543;stroke-linecap:butt;stroke-linejoin:round;stroke-miterlimit:4.0000000;stroke-opacity:1.0000000"
         d="M 109.85590,92.185712 C 109.24090,92.185712 108.62368,92.423752 108.15243,92.894995 L 100.98685,99.745350 L 93.784420,92.863682 C 92.841934,91.921209 91.322932,91.921209 90.380458,92.863682 L 86.734437,96.418057 C 85.791964,97.360523 85.700319,99.151506 86.642793,100.09398 L 93.481615,107.11609 L 90.877114,109.90910 C 91.724334,111.39869 95.693494,109.44818 96.454432,108.04650 C 96.945751,107.14146 98.318952,103.44764 100.02276,103.61825 C 103.81797,103.99828 109.25555,92.738958 114.30140,95.499578 L 111.69386,92.894995 C 111.22262,92.423752 110.47087,92.185712 109.85590,92.185712 z "
         id="path12571"
         sodipodi:nodetypes="cccccccccssccc"
         transform="translate(-13.19676,5.132075)" />
      <path
         style="fill:url(#linearGradient3315);fill-opacity:1.0000000;fill-rule:evenodd;stroke:none;stroke-width:0.94966543;stroke-linecap:butt;stroke-linejoin:round;stroke-miterlimit:4.0000000;stroke-opacity:1.0000000"
         d="M 100.62963,104.00024 C 100.47338,104.03149 96.431316,107.89223 96.275066,107.92348 C 95.211685,109.34059 93.472510,110.70138 94.098612,112.17480 L 101.75463,104.53149 C 101.54282,104.15909 101.13277,104.00495 100.62963,104.00024 z M 79.681316,124.23598 C 79.210066,124.70723 78.577566,124.95473 77.962566,124.95473 C 77.292328,125.01399 75.608399,123.49640 74.431316,122.76723 C 75.306316,123.64223 76.181316,124.51723 77.056316,125.39223 C 77.527554,125.86348 78.253846,126.07973 78.868816,126.07973 C 79.483815,126.07973 80.116316,125.86348 80.587566,125.39223 C 82.860351,123.15688 85.133135,120.92153 87.405920,118.68618 C 85.057685,118.19854 81.597432,122.46157 79.681316,124.23598 z "
         id="path15717"
         sodipodi:nodetypes="ccccccccccccc" />
      <path
         style="fill:url(#radialGradient3316);fill-opacity:1.0000000;fill-rule:evenodd;stroke:none;stroke-width:0.94966543;stroke-linecap:butt;stroke-linejoin:round;stroke-miterlimit:4.0000000;stroke-opacity:1.0000000"
         d="M 100.43172,119.05046 C 101.03631,119.89942 101.27837,121.38804 100.53459,122.13181 L 97.377936,125.20753 C 96.564246,126.02121 95.007721,125.68086 94.194014,124.86717 L 95.100655,125.81682 C 95.914362,126.63050 97.130540,126.72775 97.944230,125.91406 L 101.07391,122.83834 C 101.88760,122.02466 101.91991,120.56563 101.10622,119.75195 L 100.43172,119.05046 z "
         id="path15726"
         sodipodi:nodetypes="ccccccccc" />
    </g>
  </g>
</svg>
