<?xml version="1.0" encoding="UTF-8" standalone="no"?>
<!-- Created with Inkscape (http://www.inkscape.org/) -->
<svg
   xmlns:dc="http://purl.org/dc/elements/1.1/"
   xmlns:cc="http://web.resource.org/cc/"
   xmlns:rdf="http://www.w3.org/1999/02/22-rdf-syntax-ns#"
   xmlns:svg="http://www.w3.org/2000/svg"
   xmlns="http://www.w3.org/2000/svg"
   xmlns:xlink="http://www.w3.org/1999/xlink"
   xmlns:sodipodi="http://inkscape.sourceforge.net/DTD/sodipodi-0.dtd"
   xmlns:inkscape="http://www.inkscape.org/namespaces/inkscape"
   width="64pt"
   height="64pt"
   id="svg1640"
   sodipodi:version="0.32"
   inkscape:version="0.41"
   sodipodi:docbase="/home/nuno/kdeplayground-artwork/oooicons/crystalsvg"
   sodipodi:docname="lc26047.svg"
   inkscape:export-filename="/home/nuno/kdeplayground-artwork/oooicons/crystalsvg/Ic26047.png"
   inkscape:export-xdpi="36.000000"
   inkscape:export-ydpi="36.000000">
  <defs
     id="defs3">
    <linearGradient
       inkscape:collect="always"
       xlink:href="#graytoblack"
       id="linearGradient5423"
       gradientUnits="userSpaceOnUse"
       gradientTransform="matrix(0.160684,0.000000,1.841103e-2,0.225042,-6.180094,19.93595)"
       x1="18.669100"
       y1="62.545479"
       x2="207.75543"
       y2="261.08621" />
    <linearGradient
       id="light75to25">
      <stop
         style="stop-color:#ffffff;stop-opacity:0.72941178;"
         offset="0.0000000"
         id="stop2774" />
      <stop
         style="stop-color:#ffffff;stop-opacity:0.26249999;"
         offset="1.0000000"
         id="stop2775" />
    </linearGradient>
    <linearGradient
       id="shadow100to0">
      <stop
         style="stop-color:#000000;stop-opacity:1.0000000;"
         offset="0.0000000"
         id="stop3425" />
      <stop
         style="stop-color:#000000;stop-opacity:0.0000000;"
         offset="1.0000000"
         id="stop3426" />
    </linearGradient>
    <linearGradient
       inkscape:collect="always"
       xlink:href="#shadow100to0"
       id="linearGradient9166"
       gradientUnits="userSpaceOnUse"
       gradientTransform="matrix(0.177759,0.000000,-1.049685e-2,0.113691,-2.211594,33.09520)"
       x1="194.48006"
       y1="130.87549"
       x2="518.79669"
       y2="420.68716" />
    <linearGradient
       inkscape:collect="always"
       xlink:href="#graytoblack"
       id="linearGradient6675"
       gradientTransform="matrix(0.178419,0.000000,9.266801e-3,0.113270,-2.211594,33.09520)"
       x1="226.19034"
       y1="154.59605"
       x2="237.87393"
       y2="250.61244"
       gradientUnits="userSpaceOnUse" />
    <linearGradient
       id="greandraktoblack">
      <stop
         style="stop-color:#007c00;stop-opacity:1.0000000;"
         offset="0.0000000"
         id="stop7328" />
      <stop
         style="stop-color:#025a00;stop-opacity:1.0000000;"
         offset="1.0000000"
         id="stop7329" />
    </linearGradient>
    <linearGradient
       inkscape:collect="always"
       xlink:href="#greandraktoblack"
       id="linearGradient5417"
       gradientUnits="userSpaceOnUse"
       gradientTransform="matrix(0.177759,0.000000,-1.049685e-2,0.113691,-3.809334,32.02988)"
       x1="204.02148"
       y1="140.24585"
       x2="381.62057"
       y2="302.86520" />
    <linearGradient
       id="graytoblack">
      <stop
         style="stop-color:#7d7d7d;stop-opacity:1.0000000;"
         offset="0.0000000"
         id="stop5097" />
      <stop
         style="stop-color:#000000;stop-opacity:1.0000000;"
         offset="1.0000000"
         id="stop5098" />
    </linearGradient>
    <linearGradient
       inkscape:collect="always"
       xlink:href="#graytoblack"
       id="linearGradient1639"
       gradientUnits="userSpaceOnUse"
       gradientTransform="matrix(0.178419,0.000000,9.266801e-3,0.113270,-2.211594,33.09520)"
       x1="226.19034"
       y1="154.59605"
       x2="237.87393"
       y2="250.61244" />
    <linearGradient
       id="light100to0">
      <stop
         style="stop-color:#ffffff;stop-opacity:1.0000000;"
         offset="0.0000000"
         id="stop2764" />
      <stop
         style="stop-color:#ffffff;stop-opacity:0.0000000;"
         offset="1.0000000"
         id="stop2765" />
    </linearGradient>
    <linearGradient
       id="light100to25to0">
      <stop
         id="stop2785"
         offset="0.0000000"
         style="stop-color:#ffffff;stop-opacity:1.0000000;" />
      <stop
         id="stop2786"
         offset="0.50000000"
         style="stop-color:#ffffff;stop-opacity:0.28749999;" />
      <stop
         id="stop2787"
         offset="1.0000000"
         style="stop-color:#ffffff;stop-opacity:0.0000000;" />
    </linearGradient>
    <linearGradient
       id="light75to0">
      <stop
         id="stop2769"
         offset="0.0000000"
         style="stop-color:#ffffff;stop-opacity:0.72916669;" />
      <stop
         id="stop2770"
         offset="1.0000000"
         style="stop-color:#ffffff;stop-opacity:0.0000000;" />
    </linearGradient>
    <linearGradient
       y2="139.7401"
       x2="100.6055"
       y1="37.1133"
       x1="100.6055"
       gradientUnits="userSpaceOnUse"
       id="XMLID_1_">
      <stop
         id="stop9"
         style="stop-color:#FFA700"
         offset="0" />
      <stop
         id="stop11"
         style="stop-color:#FFFF00"
         offset="0.691" />
      <stop
         id="stop13"
         style="stop-color:#FFFC00"
         offset="0.792" />
      <stop
         id="stop15"
         style="stop-color:#FFF400"
         offset="0.8546" />
      <stop
         id="stop17"
         style="stop-color:#FFE500"
         offset="0.9067" />
      <stop
         id="stop19"
         style="stop-color:#FFD100"
         offset="0.953" />
      <stop
         id="stop21"
         style="stop-color:#FFB700"
         offset="0.9952" />
      <stop
         id="stop23"
         style="stop-color:#FFB300"
         offset="1" />
      <midPointStop
         id="midPointStop25"
         style="stop-color:#FFA700"
         offset="0" />
      <midPointStop
         id="midPointStop27"
         style="stop-color:#FFA700"
         offset="0.5" />
      <midPointStop
         id="midPointStop29"
         style="stop-color:#FFFF00"
         offset="0.691" />
      <midPointStop
         id="midPointStop31"
         style="stop-color:#FFFF00"
         offset="0.7952" />
      <midPointStop
         id="midPointStop33"
         style="stop-color:#FFB300"
         offset="1" />
    </linearGradient>
    <linearGradient
       id="orangelesstoyelow">
      <stop
         id="stop2689"
         offset="0.0000000"
         style="stop-color:#ff7d00;stop-opacity:1.0000000;" />
      <stop
         id="stop2690"
         offset="0.25358382"
         style="stop-color:#ffbe00;stop-opacity:1.0000000;" />
      <stop
         id="stop2691"
         offset="1.0000000"
         style="stop-color:#ffff00;stop-opacity:1.0000000;" />
    </linearGradient>
    <linearGradient
       id="redtodarkred">
      <stop
         id="stop3856"
         offset="0.0000000"
         style="stop-color:#ff0000;stop-opacity:1.0000000;" />
      <stop
         id="stop3855"
         offset="1.0000000"
         style="stop-color:#920000;stop-opacity:1.0000000;" />
    </linearGradient>
    <linearGradient
       id="linearGradient1383">
      <stop
         id="stop1385"
         offset="0.0000000"
         style="stop-color:#ffffff;stop-opacity:1.0000000;" />
      <stop
         id="stop1387"
         offset="1.0000000"
         style="stop-color:#ffffff;stop-opacity:0.0000000;" />
    </linearGradient>
    <linearGradient
       inkscape:collect="always"
       xlink:href="#XMLID_1_"
       id="linearGradient1477"
       gradientUnits="userSpaceOnUse"
       gradientTransform="matrix(0.140392,-4.794330e-2,4.243270e-2,0.132515,-23.51599,-66.02933)"
       x1="100.6055"
       y1="37.1133"
       x2="100.6055"
       y2="139.7401" />
    <linearGradient
       inkscape:collect="always"
       xlink:href="#light100to0"
       id="linearGradient1480"
       gradientUnits="userSpaceOnUse"
       gradientTransform="matrix(0.111869,-3.895482e-2,3.471707e-2,0.110637,-17.12537,-49.89360)"
       x1="146.38470"
       y1="64.407753"
       x2="307.07626"
       y2="436.28043" />
    <radialGradient
       inkscape:collect="always"
       xlink:href="#orangelesstoyelow"
       id="radialGradient1483"
       gradientUnits="userSpaceOnUse"
       gradientTransform="matrix(0.108343,-3.772661e-2,3.250021e-2,0.103572,-16.51153,-49.37250)"
       spreadMethod="reflect"
       cx="186.75356"
       cy="103.61057"
       fx="189.43584"
       fy="25.390987"
       r="117.68623" />
    <linearGradient
       inkscape:collect="always"
       xlink:href="#redtodarkred"
       id="linearGradient1485"
       gradientUnits="userSpaceOnUse"
       gradientTransform="matrix(0.109030,-3.796587e-2,3.229541e-2,0.102919,-16.51153,-49.37250)"
       x1="-110.52393"
       y1="27.161866"
       x2="439.44683"
       y2="461.30772" />
    <linearGradient
       inkscape:collect="always"
       xlink:href="#XMLID_1_"
       id="linearGradient1488"
       gradientUnits="userSpaceOnUse"
       gradientTransform="matrix(0.415564,-0.141914,0.129632,0.404838,-24.07052,-66.80791)"
       x1="100.6055"
       y1="37.1133"
       x2="100.6055"
       y2="139.7401" />
    <linearGradient
       inkscape:collect="always"
       xlink:href="#light75to0"
       id="linearGradient1491"
       gradientUnits="userSpaceOnUse"
       gradientTransform="matrix(1.254364,-7.782602e-3,-4.537336e-2,0.517179,0.835472,-47.78608)"
       x1="5.6831765"
       y1="21.673885"
       x2="14.964557"
       y2="41.796101" />
    <linearGradient
       inkscape:collect="always"
       xlink:href="#light100to25to0"
       id="linearGradient1494"
       gradientUnits="userSpaceOnUse"
       gradientTransform="matrix(0.600915,2.740875e-2,-2.807554e-2,1.859011,-55.65696,-18.46849)"
       x1="117.48062"
       y1="0.76412511"
       x2="122.96590"
       y2="-4.4011321" />
    <radialGradient
       inkscape:collect="always"
       xlink:href="#light100to25to0"
       id="radialGradient1497"
       gradientUnits="userSpaceOnUse"
       gradientTransform="matrix(0.326266,-0.137357,0.674297,1.782557,-39.68085,-18.21139)"
       cx="151.53014"
       cy="30.823576"
       fx="151.53014"
       fy="30.823576"
       r="35.001339" />
    <linearGradient
       inkscape:collect="always"
       xlink:href="#light75to0"
       id="linearGradient1509"
       gradientUnits="userSpaceOnUse"
       gradientTransform="matrix(1.254364,-7.782602e-3,-4.537336e-2,0.517179,0.835472,-47.78608)"
       x1="5.6831765"
       y1="21.673885"
       x2="14.964557"
       y2="41.796101" />
    <linearGradient
       inkscape:collect="always"
       xlink:href="#XMLID_1_"
       id="linearGradient1511"
       gradientUnits="userSpaceOnUse"
       gradientTransform="matrix(0.415564,-0.141914,0.129632,0.404838,-24.07052,-66.80791)"
       x1="100.6055"
       y1="37.1133"
       x2="100.6055"
       y2="139.7401" />
    <radialGradient
       inkscape:collect="always"
       xlink:href="#orangelesstoyelow"
       id="radialGradient1513"
       gradientUnits="userSpaceOnUse"
       gradientTransform="matrix(0.108343,-3.772661e-2,3.250021e-2,0.103572,-16.51153,-49.37250)"
       spreadMethod="reflect"
       cx="186.75356"
       cy="103.61057"
       fx="189.43584"
       fy="25.390987"
       r="117.68623" />
    <linearGradient
       inkscape:collect="always"
       xlink:href="#redtodarkred"
       id="linearGradient1515"
       gradientUnits="userSpaceOnUse"
       gradientTransform="matrix(0.109030,-3.796587e-2,3.229541e-2,0.102919,-16.51153,-49.37250)"
       x1="-110.52393"
       y1="27.161866"
       x2="439.44683"
       y2="461.30772" />
    <linearGradient
       inkscape:collect="always"
       xlink:href="#light100to0"
       id="linearGradient1517"
       gradientUnits="userSpaceOnUse"
       gradientTransform="matrix(0.111869,-3.895482e-2,3.471707e-2,0.110637,-17.12537,-49.89360)"
       x1="146.38470"
       y1="64.407753"
       x2="307.07626"
       y2="436.28043" />
    <linearGradient
       inkscape:collect="always"
       xlink:href="#XMLID_1_"
       id="linearGradient1519"
       gradientUnits="userSpaceOnUse"
       gradientTransform="matrix(0.140392,-4.794330e-2,4.243270e-2,0.132515,-23.51599,-66.02933)"
       x1="100.6055"
       y1="37.1133"
       x2="100.6055"
       y2="139.7401" />
    <linearGradient
       inkscape:collect="always"
       xlink:href="#light75to0"
       id="linearGradient1535"
       gradientUnits="userSpaceOnUse"
       gradientTransform="matrix(1.254364,-7.782602e-3,-4.537336e-2,0.517179,0.835472,-47.78608)"
       x1="5.6831765"
       y1="21.673885"
       x2="14.964557"
       y2="41.796101" />
    <linearGradient
       inkscape:collect="always"
       xlink:href="#XMLID_1_"
       id="linearGradient1537"
       gradientUnits="userSpaceOnUse"
       gradientTransform="matrix(0.415564,-0.141914,0.129632,0.404838,-24.07052,-66.80791)"
       x1="100.6055"
       y1="37.1133"
       x2="100.6055"
       y2="139.7401" />
    <radialGradient
       inkscape:collect="always"
       xlink:href="#orangelesstoyelow"
       id="radialGradient1539"
       gradientUnits="userSpaceOnUse"
       gradientTransform="matrix(0.108343,-3.772661e-2,3.250021e-2,0.103572,-16.51153,-49.37250)"
       spreadMethod="reflect"
       cx="186.75356"
       cy="103.61057"
       fx="189.43584"
       fy="25.390987"
       r="117.68623" />
    <linearGradient
       inkscape:collect="always"
       xlink:href="#redtodarkred"
       id="linearGradient1541"
       gradientUnits="userSpaceOnUse"
       gradientTransform="matrix(0.109030,-3.796587e-2,3.229541e-2,0.102919,-16.51153,-49.37250)"
       x1="-110.52393"
       y1="27.161866"
       x2="439.44683"
       y2="461.30772" />
    <linearGradient
       inkscape:collect="always"
       xlink:href="#light100to0"
       id="linearGradient1543"
       gradientUnits="userSpaceOnUse"
       gradientTransform="matrix(0.111869,-3.895482e-2,3.471707e-2,0.110637,-17.12537,-49.89360)"
       x1="146.38470"
       y1="64.407753"
       x2="307.07626"
       y2="436.28043" />
    <linearGradient
       inkscape:collect="always"
       xlink:href="#XMLID_1_"
       id="linearGradient1545"
       gradientUnits="userSpaceOnUse"
       gradientTransform="matrix(0.140392,-4.794330e-2,4.243270e-2,0.132515,-23.51599,-66.02933)"
       x1="100.6055"
       y1="37.1133"
       x2="100.6055"
       y2="139.7401" />
    <linearGradient
       inkscape:collect="always"
       xlink:href="#light75to0"
       id="linearGradient1561"
       gradientUnits="userSpaceOnUse"
       gradientTransform="matrix(1.254364,-7.782602e-3,-4.537336e-2,0.517179,0.835472,-47.78608)"
       x1="5.6831765"
       y1="21.673885"
       x2="14.964557"
       y2="41.796101" />
    <linearGradient
       inkscape:collect="always"
       xlink:href="#XMLID_1_"
       id="linearGradient1563"
       gradientUnits="userSpaceOnUse"
       gradientTransform="matrix(0.415564,-0.141914,0.129632,0.404838,-24.07052,-66.80791)"
       x1="100.6055"
       y1="37.1133"
       x2="100.6055"
       y2="139.7401" />
    <radialGradient
       inkscape:collect="always"
       xlink:href="#orangelesstoyelow"
       id="radialGradient1565"
       gradientUnits="userSpaceOnUse"
       gradientTransform="matrix(0.108343,-3.772661e-2,3.250021e-2,0.103572,-16.51153,-49.37250)"
       spreadMethod="reflect"
       cx="186.75356"
       cy="103.61057"
       fx="189.43584"
       fy="25.390987"
       r="117.68623" />
    <linearGradient
       inkscape:collect="always"
       xlink:href="#redtodarkred"
       id="linearGradient1567"
       gradientUnits="userSpaceOnUse"
       gradientTransform="matrix(0.109030,-3.796587e-2,3.229541e-2,0.102919,-16.51153,-49.37250)"
       x1="-110.52393"
       y1="27.161866"
       x2="439.44683"
       y2="461.30772" />
    <linearGradient
       inkscape:collect="always"
       xlink:href="#light100to0"
       id="linearGradient1569"
       gradientUnits="userSpaceOnUse"
       gradientTransform="matrix(0.111869,-3.895482e-2,3.471707e-2,0.110637,-17.12537,-49.89360)"
       x1="146.38470"
       y1="64.407753"
       x2="307.07626"
       y2="436.28043" />
    <linearGradient
       inkscape:collect="always"
       xlink:href="#XMLID_1_"
       id="linearGradient1571"
       gradientUnits="userSpaceOnUse"
       gradientTransform="matrix(0.140392,-4.794330e-2,4.243270e-2,0.132515,-23.51599,-66.02933)"
       x1="100.6055"
       y1="37.1133"
       x2="100.6055"
       y2="139.7401" />
    <radialGradient
       r="35.001339"
       fy="30.823576"
       fx="151.53014"
       cy="30.823576"
       cx="151.53014"
       gradientTransform="matrix(0.326266,-0.137357,0.674297,1.782557,20.69438,49.30781)"
       gradientUnits="userSpaceOnUse"
       id="radialGradient1458"
       xlink:href="#light100to25to0"
       inkscape:collect="always" />
    <linearGradient
       y2="-4.4011321"
       x2="122.96590"
       y1="0.76412511"
       x1="117.48062"
       gradientTransform="matrix(0.600915,2.740875e-2,-2.807554e-2,1.859011,4.718272,49.05071)"
       gradientUnits="userSpaceOnUse"
       id="linearGradient1460"
       xlink:href="#light100to25to0"
       inkscape:collect="always" />
    <linearGradient
       y2="41.796101"
       x2="14.964557"
       y1="21.673885"
       x1="5.6831765"
       gradientTransform="matrix(1.254364,-7.782602e-3,-4.537336e-2,0.517179,61.21070,19.73312)"
       gradientUnits="userSpaceOnUse"
       id="linearGradient1462"
       xlink:href="#light75to0"
       inkscape:collect="always" />
    <linearGradient
       y2="139.7401"
       x2="100.6055"
       y1="37.1133"
       x1="100.6055"
       gradientTransform="matrix(0.415564,-0.141914,0.129632,0.404838,36.30471,0.711290)"
       gradientUnits="userSpaceOnUse"
       id="linearGradient1464"
       xlink:href="#XMLID_1_"
       inkscape:collect="always" />
    <radialGradient
       r="117.68623"
       fy="25.390987"
       fx="189.43584"
       cy="103.61057"
       cx="186.75356"
       spreadMethod="reflect"
       gradientTransform="matrix(0.108343,-3.772661e-2,3.250021e-2,0.103572,43.86369,18.14670)"
       gradientUnits="userSpaceOnUse"
       id="radialGradient1466"
       xlink:href="#orangelesstoyelow"
       inkscape:collect="always" />
    <linearGradient
       y2="461.30772"
       x2="439.44683"
       y1="27.161866"
       x1="-110.52393"
       gradientTransform="matrix(0.109030,-3.796587e-2,3.229541e-2,0.102919,43.86369,18.14670)"
       gradientUnits="userSpaceOnUse"
       id="linearGradient1468"
       xlink:href="#redtodarkred"
       inkscape:collect="always" />
    <linearGradient
       y2="436.28043"
       x2="307.07626"
       y1="64.407753"
       x1="146.38470"
       gradientTransform="matrix(0.111869,-3.895482e-2,3.471707e-2,0.110637,43.24986,17.62560)"
       gradientUnits="userSpaceOnUse"
       id="linearGradient1470"
       xlink:href="#light100to0"
       inkscape:collect="always" />
    <linearGradient
       y2="139.7401"
       x2="100.6055"
       y1="37.1133"
       x1="100.6055"
       gradientTransform="matrix(0.140392,-4.794330e-2,4.243270e-2,0.132515,36.85924,1.489873)"
       gradientUnits="userSpaceOnUse"
       id="linearGradient1472"
       xlink:href="#XMLID_1_"
       inkscape:collect="always" />
    <linearGradient
       y2="57.330349"
       x2="6.8373361"
       y1="34.087814"
       x1="15.250913"
       gradientTransform="matrix(0.844996,0.000000,9.681884e-2,1.183438,0.000000,0.000000)"
       gradientUnits="userSpaceOnUse"
       id="linearGradient2239"
       xlink:href="#graytoblack"
       inkscape:collect="always" />
  </defs>
  <sodipodi:namedview
     id="base"
     pagecolor="#ffffff"
     bordercolor="#666666"
     borderopacity="1.0"
     inkscape:pageopacity="0.0"
     inkscape:pageshadow="2"
     inkscape:zoom="4.7375000"
     inkscape:cx="12.771531"
     inkscape:cy="34.237135"
     inkscape:current-layer="g1424"
     showgrid="true"
     inkscape:grid-bbox="true"
     gridspacingy="1.0000000pt"
     gridspacingx="1.0000000pt"
     gridoriginy="0.0000000pt"
     gridoriginx="0.0000000pt"
     inkscape:window-width="640"
     inkscape:window-height="538"
     inkscape:window-x="55"
     inkscape:window-y="258" />
  <metadata
     id="metadata4">
    <rdf:RDF
       id="RDF5">
      <cc:Work
         rdf:about=""
         id="Work6">
        <dc:format
           id="format7">image/svg+xml</dc:format>
        <dc:type
           id="type9"
           rdf:resource="http://purl.org/dc/dcmitype/StillImage" />
      </cc:Work>
    </rdf:RDF>
  </metadata>
  <g
     id="layer1"
     inkscape:label="Layer 1"
     inkscape:groupmode="layer">
    <path
       style="font-size:45.000000;font-style:normal;font-variant:normal;font-weight:200;font-stretch:normal;fill:url(#linearGradient5423);fill-opacity:1.0000000;stroke:#000000;stroke-width:1.8006259;stroke-linecap:butt;stroke-linejoin:round;stroke-miterlimit:4.0000000;stroke-opacity:1.0000000;font-family:Cotillion;text-anchor:start;writing-mode:lr-tb"
       d="M 26.816038,35.236541 C 22.629215,35.859108 20.646014,39.583729 19.117018,42.797405 C 18.102619,45.144915 17.095843,47.687145 16.414676,50.170750 C 14.085732,50.161384 12.561664,50.322584 11.343823,50.695684 C 10.125982,51.068780 9.7109319,53.144429 10.724223,53.572497 C 11.737519,54.000569 13.455030,54.004761 15.588357,54.105339 C 13.739492,60.002306 12.144715,66.376874 10.136160,72.208181 C 9.7967889,74.038061 6.7281879,76.978842 5.8255329,73.454103 C 5.1291319,70.734754 1.2028399,73.195967 2.3633789,75.752976 C 3.5549149,78.378280 6.7008579,79.335117 8.9710809,78.485373 C 13.479866,76.887787 15.029757,72.264235 16.367495,68.272070 C 17.868411,63.483120 19.060934,59.029266 20.439214,54.194564 C 22.977665,54.300205 24.982092,53.736591 26.233319,53.427303 C 27.484547,53.118020 27.801803,51.223829 26.824511,50.836694 C 25.847218,50.449558 23.070754,50.063631 20.917332,50.240786 C 21.193479,48.750442 23.985843,41.011441 25.366245,39.332365 C 26.471123,40.819321 28.618239,42.468355 29.462874,40.183075 C 30.448740,38.544008 29.638434,35.056817 26.816038,35.236541 z "
       id="text1623"
       sodipodi:nodetypes="cccssccsscccsscccc" />
    <g
       inkscape:groupmode="layer"
       inkscape:label="Layer 1"
       id="g1424"
       transform="translate(-15.65061,-12.32187)">
      <g
         transform="translate(4.710348,1.658951)"
         id="g1447">
        <path
           id="rect1353"
           d="M 72.344202,40.031278 L 74.418438,39.337065 C 75.397085,39.009527 76.419450,39.513453 76.710736,40.466944 L 91.096318,87.556475 C 91.387604,88.509966 90.834240,89.541262 89.855593,89.868799 L 87.781357,90.563013 C 86.802710,90.890550 85.780346,90.386625 85.489060,89.433134 L 71.103479,42.343603 C 70.812193,41.390112 71.365555,40.358815 72.344202,40.031278 z "
           style="fill:#000000;fill-opacity:1.0000000;stroke:none;stroke-width:0.96249998;stroke-linecap:round;stroke-linejoin:round;stroke-miterlimit:4.0000000;stroke-dashoffset:0.0000000;stroke-opacity:0.036734644" />
        <path
           sodipodi:nodetypes="ccccccccc"
           id="path1976"
           d="M 74.379412,44.120024 L 76.255195,43.525332 C 77.140210,43.244750 77.170146,43.935782 77.420615,44.797734 L 90.299976,86.974131 C 90.550444,87.836081 90.347002,88.976868 89.461986,89.257451 L 87.720523,89.748748 C 86.835508,90.029331 86.587603,89.658620 86.337135,88.796669 L 73.234022,46.182356 C 72.983554,45.320405 73.494398,44.400605 74.379412,44.120024 z "
           style="fill:url(#radialGradient1458);fill-opacity:1.0000000;stroke:none;stroke-width:0.96249998;stroke-linecap:round;stroke-linejoin:round;stroke-miterlimit:4.0000000;stroke-dashoffset:0.0000000;stroke-opacity:0.036734644" />
        <path
           sodipodi:nodetypes="csccc"
           id="path2607"
           d="M 73.648583,40.461901 C 77.671012,53.713031 81.286503,59.973176 83.476744,73.549268 C 84.533872,80.101836 84.235945,80.917397 83.430705,81.186570 C 78.660454,65.950048 76.500409,58.314175 71.730130,43.077653 C 72.519030,42.344950 72.859682,41.194602 73.648583,40.461901 z "
           style="fill:url(#linearGradient1460);fill-opacity:1.0000000;fill-rule:evenodd;stroke:none;stroke-width:0.25354896pt;stroke-linecap:butt;stroke-linejoin:miter;stroke-opacity:1.0000000" />
        <path
           id="path6094"
           d="M 65.644283,34.549893 C 65.688188,34.070867 65.732095,33.591840 65.776001,33.112823 C 65.819907,32.633796 65.863813,32.154770 65.907729,31.675744 C 65.943482,31.155122 66.129037,30.836783 66.570464,30.802035 C 68.025373,30.788154 69.480273,30.774282 70.935182,30.760410 C 72.390091,30.746539 73.844990,30.732667 75.299900,30.718786 C 75.099823,32.261323 68.905626,31.982925 68.029625,32.079023 C 66.422855,32.255285 67.454678,33.975330 65.644283,34.549893 z "
           style="fill:url(#linearGradient1462);fill-opacity:1.0000000;fill-rule:evenodd;stroke:none;stroke-width:0.012500000;stroke-linecap:butt;stroke-linejoin:miter;stroke-miterlimit:4.0000000;stroke-opacity:1.0000000" />
        <path
           style="fill:url(#linearGradient1464)"
           id="path1106"
           d="M 93.974650,35.641550 C 93.846274,35.830902 93.622406,36.069029 93.256370,36.204361 C 93.623083,36.069698 93.851326,35.846690 93.983725,35.669888 C 94.191691,35.393628 94.430869,34.859247 94.163517,34.083325 C 94.370170,34.846746 94.161008,35.365480 93.974650,35.641550 z " />
        <path
           style="fill:url(#radialGradient1466);stroke:url(#linearGradient1468);stroke-width:0.29878873;stroke-linejoin:round;stroke-miterlimit:4.0000000;stroke-opacity:0.41874996"
           id="path1107"
           d="M 88.677487,19.961111 C 88.485640,19.690966 88.003834,19.282417 86.934876,19.584098 L 75.610858,22.805672 C 74.962877,22.989893 74.002143,22.689850 73.593832,22.174280 L 66.496769,13.209019 C 65.825493,12.365587 65.185216,12.423577 64.861601,12.532756 C 64.538849,12.641283 63.986014,12.989276 63.905955,14.086613 L 63.053209,25.732731 C 63.002631,26.411602 62.395326,27.229933 61.754497,27.481158 L 50.764840,31.800017 C 49.729302,32.200271 49.559456,32.825557 49.550392,33.162853 C 49.541331,33.500149 49.679561,34.122050 50.701349,34.498756 L 61.494460,38.474428 C 62.121328,38.709268 62.691844,39.511622 62.710134,40.190028 L 63.010393,51.814771 C 63.040296,52.909967 63.577281,53.239284 63.894176,53.338827 C 64.212674,53.437812 64.851860,53.474966 65.563642,52.608672 L 73.088743,43.425198 C 73.528759,42.886594 74.488104,42.560958 75.142745,42.727862 L 86.317923,45.603875 C 87.372728,45.876072 87.873496,45.452848 88.078484,45.176491 C 88.283471,44.900134 88.539237,44.300385 87.956588,43.391345 L 81.812406,33.735214 C 81.460828,33.181638 81.484602,32.165675 81.862322,31.603134 L 88.474005,21.750048 C 89.096299,20.821905 88.869335,20.231254 88.677487,19.961111 z " />
        <path
           style="fill:url(#linearGradient1470)"
           id="path1108"
           d="M 80.983373,30.260843 L 85.030866,23.714280 C 85.517618,22.926868 85.322460,22.412615 85.162057,22.175542 C 85.002267,21.938256 84.604651,21.576110 83.744245,21.814512 L 74.635026,24.359475 C 74.113533,24.505362 73.330712,24.226347 72.990539,23.773156 L 67.076932,15.893981 C 66.518307,15.152521 66.000561,15.189625 65.740862,15.276777 C 65.481467,15.363824 65.040312,15.652611 64.996045,16.597086 L 64.521953,26.624784 C 64.493717,27.209179 64.017405,27.902598 63.502968,28.105780 L 54.685047,31.604067 C 53.854103,31.927661 53.728006,32.463428 53.727174,32.754459 C 53.726239,33.045163 53.849397,33.584488 54.683924,33.930389 L 63.496661,37.582572 C 64.008593,37.797792 64.485590,38.502096 64.512969,39.087526 L 64.527980,39.408382 C 65.513343,39.150516 66.502965,38.855096 67.494368,38.509873 C 72.907998,36.624752 77.539090,33.692498 80.983373,30.260843 z " />
        <path
           style="fill:url(#linearGradient1472)"
           id="path1109"
           d="M 94.377323,35.579946 C 94.247189,35.770039 94.020523,36.009283 93.650611,36.145946 C 94.021211,36.009951 94.252249,35.785842 94.386404,35.608312 C 94.597110,35.330905 94.840049,34.794791 94.572265,34.018149 C 94.778798,34.782442 94.566214,35.302795 94.377323,35.579946 z " />
        <path
           style="opacity:0.29999998;fill:#e89500"
           id="path1110"
           d="M 74.510059,40.703844 C 73.836982,40.498345 72.867485,40.827156 72.433935,41.406761 L 65.418029,52.561275 C 64.716686,53.493767 64.063013,53.432586 63.735299,53.312710 C 63.502077,53.227037 63.152405,53.001675 62.948330,52.440678 C 63.117141,53.059981 63.500155,53.283922 63.750607,53.361488 C 64.071885,53.459714 64.717084,53.495034 65.438005,52.624938 L 73.059781,43.401213 C 73.505456,42.860250 74.474854,42.531122 75.135308,42.696396 L 86.409660,45.544643 C 86.941158,45.679284 87.334110,45.640475 87.619918,45.532871 C 87.334309,45.641108 86.938276,45.670100 86.396640,45.503150 L 74.510059,40.703844 z " />
      </g>
      <g
         id="g1501"
         transform="matrix(0.314584,0.366015,-0.341469,0.383718,31.07380,35.66227)">
        <path
           id="path1447"
           d="M 5.2690550,-32.969311 C 5.3129600,-33.448337 5.3568670,-33.927364 5.4007730,-34.406381 C 5.4446790,-34.885408 5.4885850,-35.364434 5.5325010,-35.843460 C 5.5682540,-36.364082 5.7538090,-36.682421 6.1952360,-36.717169 C 7.6501450,-36.731050 9.1050450,-36.744922 10.559954,-36.758794 C 12.014863,-36.772665 13.469762,-36.786537 14.924672,-36.800418 C 14.724595,-35.257881 8.5303980,-35.536279 7.6543970,-35.440181 C 6.0476270,-35.263919 7.0794500,-33.543874 5.2690550,-32.969311 z "
           style="fill:url(#linearGradient1509);fill-opacity:1.0000000;fill-rule:evenodd;stroke:none;stroke-width:0.012500000;stroke-linecap:butt;stroke-linejoin:miter;stroke-miterlimit:4.0000000;stroke-opacity:1.0000000" />
        <path
           style="fill:url(#linearGradient1511)"
           id="path1449"
           d="M 33.599422,-31.877654 C 33.471046,-31.688302 33.247178,-31.450175 32.881142,-31.314843 C 33.247855,-31.449506 33.476098,-31.672514 33.608497,-31.849316 C 33.816463,-32.125576 34.055641,-32.659957 33.788289,-33.435879 C 33.994942,-32.672458 33.785780,-32.153724 33.599422,-31.877654 z " />
        <path
           style="fill:url(#radialGradient1513);stroke:url(#linearGradient1515);stroke-width:0.29878873;stroke-linejoin:round;stroke-miterlimit:4.0000000;stroke-opacity:0.41874996"
           id="path1451"
           d="M 28.302259,-47.558093 C 28.110412,-47.828238 27.628606,-48.236787 26.559648,-47.935106 L 15.235630,-44.713532 C 14.587649,-44.529311 13.626915,-44.829354 13.218604,-45.344924 L 6.1215410,-54.310185 C 5.4502650,-55.153617 4.8099880,-55.095627 4.4863730,-54.986448 C 4.1636210,-54.877921 3.6107860,-54.529928 3.5307270,-53.432591 L 2.6779810,-41.786473 C 2.6274030,-41.107602 2.0200980,-40.289271 1.3792690,-40.038046 L -9.6103880,-35.719187 C -10.645926,-35.318933 -10.815772,-34.693647 -10.824836,-34.356351 C -10.833897,-34.019055 -10.695667,-33.397154 -9.6738790,-33.020448 L 1.1192320,-29.044776 C 1.7461000,-28.809936 2.3166160,-28.007582 2.3349060,-27.329176 L 2.6351650,-15.704433 C 2.6650680,-14.609237 3.2020530,-14.279920 3.5189480,-14.180377 C 3.8374460,-14.081392 4.4766320,-14.044238 5.1884140,-14.910532 L 12.713515,-24.094006 C 13.153531,-24.632610 14.112876,-24.958246 14.767517,-24.791342 L 25.942695,-21.915329 C 26.997500,-21.643132 27.498268,-22.066356 27.703256,-22.342713 C 27.908243,-22.619070 28.164009,-23.218819 27.581360,-24.127859 L 21.437178,-33.783990 C 21.085600,-34.337566 21.109374,-35.353529 21.487094,-35.916070 L 28.098777,-45.769156 C 28.721071,-46.697299 28.494107,-47.287950 28.302259,-47.558093 z " />
        <path
           style="fill:url(#linearGradient1517)"
           id="path1453"
           d="M 20.608145,-37.258361 L 24.655638,-43.804924 C 25.142390,-44.592336 24.947232,-45.106589 24.786829,-45.343662 C 24.627039,-45.580948 24.229423,-45.943094 23.369017,-45.704692 L 14.259798,-43.159729 C 13.738305,-43.013842 12.955484,-43.292857 12.615311,-43.746048 L 6.7017040,-51.625223 C 6.1430790,-52.366683 5.6253330,-52.329579 5.3656340,-52.242427 C 5.1062390,-52.155380 4.6650840,-51.866593 4.6208170,-50.922118 L 4.1467250,-40.894420 C 4.1184890,-40.310025 3.6421770,-39.616606 3.1277400,-39.413424 L -5.6901811,-35.915137 C -6.5211246,-35.591543 -6.6472217,-35.055776 -6.6480540,-34.764745 C -6.6489892,-34.474041 -6.5258309,-33.934716 -5.6913039,-33.588815 L 3.1214330,-29.936632 C 3.6333650,-29.721412 4.1103620,-29.017108 4.1377410,-28.431678 L 4.1527520,-28.110822 C 5.1381150,-28.368688 6.1277370,-28.664108 7.1191400,-29.009331 C 12.532770,-30.894452 17.163862,-33.826706 20.608145,-37.258361 z " />
        <path
           style="fill:url(#linearGradient1519)"
           id="path1455"
           d="M 34.002095,-31.939258 C 33.871961,-31.749165 33.645295,-31.509921 33.275383,-31.373258 C 33.645983,-31.509253 33.877021,-31.733362 34.011176,-31.910892 C 34.221882,-32.188299 34.464821,-32.724413 34.197037,-33.501055 C 34.403570,-32.736762 34.190986,-32.216409 34.002095,-31.939258 z " />
        <path
           style="opacity:0.29999998;fill:#e89500"
           id="path1457"
           d="M 14.134831,-26.815360 C 13.461754,-27.020859 12.492257,-26.692048 12.058707,-26.112443 L 5.0428010,-14.957929 C 4.3414580,-14.025437 3.6877850,-14.086618 3.3600710,-14.206494 C 3.1268490,-14.292167 2.7771770,-14.517529 2.5731020,-15.078526 C 2.7419130,-14.459223 3.1249270,-14.235282 3.3753790,-14.157716 C 3.6966570,-14.059490 4.3418560,-14.024170 5.0627770,-14.894266 L 12.684553,-24.117991 C 13.130228,-24.658954 14.099626,-24.988082 14.760080,-24.822808 L 26.034432,-21.974561 C 26.565930,-21.839920 26.958882,-21.878729 27.244690,-21.986333 C 26.959081,-21.878096 26.563048,-21.849104 26.021412,-22.016054 L 14.134831,-26.815360 z " />
      </g>
      <g
         id="g1521"
         transform="matrix(0.306815,-3.712868e-2,5.930139e-2,0.340770,26.07649,43.82586)">
        <path
           id="path1523"
           d="M 5.2690550,-32.969311 C 5.3129600,-33.448337 5.3568670,-33.927364 5.4007730,-34.406381 C 5.4446790,-34.885408 5.4885850,-35.364434 5.5325010,-35.843460 C 5.5682540,-36.364082 5.7538090,-36.682421 6.1952360,-36.717169 C 7.6501450,-36.731050 9.1050450,-36.744922 10.559954,-36.758794 C 12.014863,-36.772665 13.469762,-36.786537 14.924672,-36.800418 C 14.724595,-35.257881 8.5303980,-35.536279 7.6543970,-35.440181 C 6.0476270,-35.263919 7.0794500,-33.543874 5.2690550,-32.969311 z "
           style="fill:url(#linearGradient1535);fill-opacity:1.0000000;fill-rule:evenodd;stroke:none;stroke-width:0.012500000;stroke-linecap:butt;stroke-linejoin:miter;stroke-miterlimit:4.0000000;stroke-opacity:1.0000000" />
        <path
           style="fill:url(#linearGradient1537)"
           id="path1525"
           d="M 33.599422,-31.877654 C 33.471046,-31.688302 33.247178,-31.450175 32.881142,-31.314843 C 33.247855,-31.449506 33.476098,-31.672514 33.608497,-31.849316 C 33.816463,-32.125576 34.055641,-32.659957 33.788289,-33.435879 C 33.994942,-32.672458 33.785780,-32.153724 33.599422,-31.877654 z " />
        <path
           style="fill:url(#radialGradient1539);stroke:url(#linearGradient1541);stroke-width:0.29878873;stroke-linejoin:round;stroke-miterlimit:4.0000000;stroke-opacity:0.41874996"
           id="path1527"
           d="M 28.302259,-47.558093 C 28.110412,-47.828238 27.628606,-48.236787 26.559648,-47.935106 L 15.235630,-44.713532 C 14.587649,-44.529311 13.626915,-44.829354 13.218604,-45.344924 L 6.1215410,-54.310185 C 5.4502650,-55.153617 4.8099880,-55.095627 4.4863730,-54.986448 C 4.1636210,-54.877921 3.6107860,-54.529928 3.5307270,-53.432591 L 2.6779810,-41.786473 C 2.6274030,-41.107602 2.0200980,-40.289271 1.3792690,-40.038046 L -9.6103880,-35.719187 C -10.645926,-35.318933 -10.815772,-34.693647 -10.824836,-34.356351 C -10.833897,-34.019055 -10.695667,-33.397154 -9.6738790,-33.020448 L 1.1192320,-29.044776 C 1.7461000,-28.809936 2.3166160,-28.007582 2.3349060,-27.329176 L 2.6351650,-15.704433 C 2.6650680,-14.609237 3.2020530,-14.279920 3.5189480,-14.180377 C 3.8374460,-14.081392 4.4766320,-14.044238 5.1884140,-14.910532 L 12.713515,-24.094006 C 13.153531,-24.632610 14.112876,-24.958246 14.767517,-24.791342 L 25.942695,-21.915329 C 26.997500,-21.643132 27.498268,-22.066356 27.703256,-22.342713 C 27.908243,-22.619070 28.164009,-23.218819 27.581360,-24.127859 L 21.437178,-33.783990 C 21.085600,-34.337566 21.109374,-35.353529 21.487094,-35.916070 L 28.098777,-45.769156 C 28.721071,-46.697299 28.494107,-47.287950 28.302259,-47.558093 z " />
        <path
           style="fill:url(#linearGradient1543)"
           id="path1529"
           d="M 20.608145,-37.258361 L 24.655638,-43.804924 C 25.142390,-44.592336 24.947232,-45.106589 24.786829,-45.343662 C 24.627039,-45.580948 24.229423,-45.943094 23.369017,-45.704692 L 14.259798,-43.159729 C 13.738305,-43.013842 12.955484,-43.292857 12.615311,-43.746048 L 6.7017040,-51.625223 C 6.1430790,-52.366683 5.6253330,-52.329579 5.3656340,-52.242427 C 5.1062390,-52.155380 4.6650840,-51.866593 4.6208170,-50.922118 L 4.1467250,-40.894420 C 4.1184890,-40.310025 3.6421770,-39.616606 3.1277400,-39.413424 L -5.6901811,-35.915137 C -6.5211246,-35.591543 -6.6472217,-35.055776 -6.6480540,-34.764745 C -6.6489892,-34.474041 -6.5258309,-33.934716 -5.6913039,-33.588815 L 3.1214330,-29.936632 C 3.6333650,-29.721412 4.1103620,-29.017108 4.1377410,-28.431678 L 4.1527520,-28.110822 C 5.1381150,-28.368688 6.1277370,-28.664108 7.1191400,-29.009331 C 12.532770,-30.894452 17.163862,-33.826706 20.608145,-37.258361 z " />
        <path
           style="fill:url(#linearGradient1545)"
           id="path1531"
           d="M 34.002095,-31.939258 C 33.871961,-31.749165 33.645295,-31.509921 33.275383,-31.373258 C 33.645983,-31.509253 33.877021,-31.733362 34.011176,-31.910892 C 34.221882,-32.188299 34.464821,-32.724413 34.197037,-33.501055 C 34.403570,-32.736762 34.190986,-32.216409 34.002095,-31.939258 z " />
        <path
           style="opacity:0.29999998;fill:#e89500"
           id="path1533"
           d="M 14.134831,-26.815360 C 13.461754,-27.020859 12.492257,-26.692048 12.058707,-26.112443 L 5.0428010,-14.957929 C 4.3414580,-14.025437 3.6877850,-14.086618 3.3600710,-14.206494 C 3.1268490,-14.292167 2.7771770,-14.517529 2.5731020,-15.078526 C 2.7419130,-14.459223 3.1249270,-14.235282 3.3753790,-14.157716 C 3.6966570,-14.059490 4.3418560,-14.024170 5.0627770,-14.894266 L 12.684553,-24.117991 C 13.130228,-24.658954 14.099626,-24.988082 14.760080,-24.822808 L 26.034432,-21.974561 C 26.565930,-21.839920 26.958882,-21.878729 27.244690,-21.986333 C 26.959081,-21.878096 26.563048,-21.849104 26.021412,-22.016054 L 14.134831,-26.815360 z " />
      </g>
      <g
         id="g1547"
         transform="matrix(0.177529,-1.969697e-2,3.431291e-2,0.180780,19.84024,55.70177)">
        <path
           id="path1549"
           d="M 5.2690550,-32.969311 C 5.3129600,-33.448337 5.3568670,-33.927364 5.4007730,-34.406381 C 5.4446790,-34.885408 5.4885850,-35.364434 5.5325010,-35.843460 C 5.5682540,-36.364082 5.7538090,-36.682421 6.1952360,-36.717169 C 7.6501450,-36.731050 9.1050450,-36.744922 10.559954,-36.758794 C 12.014863,-36.772665 13.469762,-36.786537 14.924672,-36.800418 C 14.724595,-35.257881 8.5303980,-35.536279 7.6543970,-35.440181 C 6.0476270,-35.263919 7.0794500,-33.543874 5.2690550,-32.969311 z "
           style="fill:url(#linearGradient1561);fill-opacity:1.0000000;fill-rule:evenodd;stroke:none;stroke-width:0.012500000;stroke-linecap:butt;stroke-linejoin:miter;stroke-miterlimit:4.0000000;stroke-opacity:1.0000000" />
        <path
           style="fill:url(#linearGradient1563)"
           id="path1551"
           d="M 33.599422,-31.877654 C 33.471046,-31.688302 33.247178,-31.450175 32.881142,-31.314843 C 33.247855,-31.449506 33.476098,-31.672514 33.608497,-31.849316 C 33.816463,-32.125576 34.055641,-32.659957 33.788289,-33.435879 C 33.994942,-32.672458 33.785780,-32.153724 33.599422,-31.877654 z " />
        <path
           style="fill:url(#radialGradient1565);stroke:url(#linearGradient1567);stroke-width:0.29878873;stroke-linejoin:round;stroke-miterlimit:4.0000000;stroke-opacity:0.41874996"
           id="path1553"
           d="M 28.302259,-47.558093 C 28.110412,-47.828238 27.628606,-48.236787 26.559648,-47.935106 L 15.235630,-44.713532 C 14.587649,-44.529311 13.626915,-44.829354 13.218604,-45.344924 L 6.1215410,-54.310185 C 5.4502650,-55.153617 4.8099880,-55.095627 4.4863730,-54.986448 C 4.1636210,-54.877921 3.6107860,-54.529928 3.5307270,-53.432591 L 2.6779810,-41.786473 C 2.6274030,-41.107602 2.0200980,-40.289271 1.3792690,-40.038046 L -9.6103880,-35.719187 C -10.645926,-35.318933 -10.815772,-34.693647 -10.824836,-34.356351 C -10.833897,-34.019055 -10.695667,-33.397154 -9.6738790,-33.020448 L 1.1192320,-29.044776 C 1.7461000,-28.809936 2.3166160,-28.007582 2.3349060,-27.329176 L 2.6351650,-15.704433 C 2.6650680,-14.609237 3.2020530,-14.279920 3.5189480,-14.180377 C 3.8374460,-14.081392 4.4766320,-14.044238 5.1884140,-14.910532 L 12.713515,-24.094006 C 13.153531,-24.632610 14.112876,-24.958246 14.767517,-24.791342 L 25.942695,-21.915329 C 26.997500,-21.643132 27.498268,-22.066356 27.703256,-22.342713 C 27.908243,-22.619070 28.164009,-23.218819 27.581360,-24.127859 L 21.437178,-33.783990 C 21.085600,-34.337566 21.109374,-35.353529 21.487094,-35.916070 L 28.098777,-45.769156 C 28.721071,-46.697299 28.494107,-47.287950 28.302259,-47.558093 z " />
        <path
           style="fill:url(#linearGradient1569)"
           id="path1555"
           d="M 20.608145,-37.258361 L 24.655638,-43.804924 C 25.142390,-44.592336 24.947232,-45.106589 24.786829,-45.343662 C 24.627039,-45.580948 24.229423,-45.943094 23.369017,-45.704692 L 14.259798,-43.159729 C 13.738305,-43.013842 12.955484,-43.292857 12.615311,-43.746048 L 6.7017040,-51.625223 C 6.1430790,-52.366683 5.6253330,-52.329579 5.3656340,-52.242427 C 5.1062390,-52.155380 4.6650840,-51.866593 4.6208170,-50.922118 L 4.1467250,-40.894420 C 4.1184890,-40.310025 3.6421770,-39.616606 3.1277400,-39.413424 L -5.6901811,-35.915137 C -6.5211246,-35.591543 -6.6472217,-35.055776 -6.6480540,-34.764745 C -6.6489892,-34.474041 -6.5258309,-33.934716 -5.6913039,-33.588815 L 3.1214330,-29.936632 C 3.6333650,-29.721412 4.1103620,-29.017108 4.1377410,-28.431678 L 4.1527520,-28.110822 C 5.1381150,-28.368688 6.1277370,-28.664108 7.1191400,-29.009331 C 12.532770,-30.894452 17.163862,-33.826706 20.608145,-37.258361 z " />
        <path
           style="fill:url(#linearGradient1571)"
           id="path1557"
           d="M 34.002095,-31.939258 C 33.871961,-31.749165 33.645295,-31.509921 33.275383,-31.373258 C 33.645983,-31.509253 33.877021,-31.733362 34.011176,-31.910892 C 34.221882,-32.188299 34.464821,-32.724413 34.197037,-33.501055 C 34.403570,-32.736762 34.190986,-32.216409 34.002095,-31.939258 z " />
        <path
           style="opacity:0.29999998;fill:#e89500"
           id="path1559"
           d="M 14.134831,-26.815360 C 13.461754,-27.020859 12.492257,-26.692048 12.058707,-26.112443 L 5.0428010,-14.957929 C 4.3414580,-14.025437 3.6877850,-14.086618 3.3600710,-14.206494 C 3.1268490,-14.292167 2.7771770,-14.517529 2.5731020,-15.078526 C 2.7419130,-14.459223 3.1249270,-14.235282 3.3753790,-14.157716 C 3.6966570,-14.059490 4.3418560,-14.024170 5.0627770,-14.894266 L 12.684553,-24.117991 C 13.130228,-24.658954 14.099626,-24.988082 14.760080,-24.822808 L 26.034432,-21.974561 C 26.565930,-21.839920 26.958882,-21.878729 27.244690,-21.986333 C 26.959081,-21.878096 26.563048,-21.849104 26.021412,-22.016054 L 14.134831,-26.815360 z " />
      </g>
    </g>
    <path
       style="font-size:12.000000;font-style:normal;font-variant:normal;font-weight:normal;font-stretch:normal;fill:url(#linearGradient6675);fill-opacity:1.0000000;stroke:url(#linearGradient9166);stroke-width:2.1750455;stroke-linecap:butt;stroke-linejoin:round;stroke-miterlimit:4.0000000;stroke-opacity:1.0000000;font-family:Bitstream Vera Sans;text-anchor:start;writing-mode:lr-tb"
       d="M 36.878690,47.913131 C 35.614089,49.559712 34.637596,51.188367 33.949211,52.799117 C 33.260804,54.409887 32.840271,56.042117 32.687586,57.695825 C 32.534900,59.349556 32.653370,60.988950 33.043015,62.614031 C 33.441613,64.231948 34.117365,65.860607 35.070267,67.500000 L 33.077602,67.500000 C 31.987512,65.817648 31.206142,64.163937 30.733471,62.538857 C 30.269116,60.913774 30.110962,59.299446 30.259023,57.695825 C 30.406418,56.099389 30.862008,54.492210 31.625788,52.874276 C 32.389563,51.256378 33.476324,49.602668 34.886027,47.913131 L 36.878690,47.913131 M 52.501803,52.573605 L 46.917518,58.426043 L 51.652891,64.600631 L 48.950351,64.600631 L 45.326529,59.875737 L 40.830251,64.600631 L 38.127689,64.600631 L 44.126240,58.307925 L 39.698933,52.573605 L 42.401475,52.573605 L 45.704777,56.858232 L 49.799241,52.573605 L 52.501803,52.573605 M 56.070536,47.913131 L 58.063198,47.913131 C 59.152627,49.602668 59.929831,51.256378 60.394875,52.874276 C 60.868203,54.492210 61.031160,56.099389 60.883763,57.695825 C 60.735703,59.299446 60.275310,60.913774 59.502560,62.538857 C 58.738097,64.163937 57.655525,65.817648 56.254777,67.500000 L 54.262112,67.500000 C 55.517740,65.860607 56.490088,64.231948 57.179155,62.614031 C 57.877173,60.988950 58.302513,59.349556 58.455222,57.695825 C 58.607883,56.042117 58.484607,54.409887 58.085350,52.799117 C 57.694379,51.188367 57.022775,49.559712 56.070536,47.913131"
       id="text3520" />
    <path
       style="font-size:12.000000;font-style:normal;font-variant:normal;font-weight:normal;font-stretch:normal;fill:url(#linearGradient1639);fill-opacity:1.0000000;stroke:url(#linearGradient5417);stroke-width:4.9321591e-18;stroke-linecap:butt;stroke-linejoin:round;stroke-miterlimit:4.0000000;stroke-opacity:1.0000000;font-family:Bitstream Vera Sans;text-anchor:start;writing-mode:lr-tb"
       d="M 36.878690,47.913131 C 35.614089,49.559712 34.637596,51.188367 33.949211,52.799117 C 33.260804,54.409887 32.840271,56.042117 32.687586,57.695825 C 32.534900,59.349556 32.653370,60.988950 33.043015,62.614031 C 33.441613,64.231948 34.117365,65.860607 35.070267,67.500000 L 33.077602,67.500000 C 31.987512,65.817648 31.206142,64.163937 30.733471,62.538857 C 30.269116,60.913774 30.110962,59.299446 30.259023,57.695825 C 30.406418,56.099389 30.862008,54.492210 31.625788,52.874276 C 32.389563,51.256378 33.476324,49.602668 34.886027,47.913131 L 36.878690,47.913131 M 52.501803,52.573605 L 46.917518,58.426043 L 51.652891,64.600631 L 48.950351,64.600631 L 45.326529,59.875737 L 40.830251,64.600631 L 38.127689,64.600631 L 44.126240,58.307925 L 39.698933,52.573605 L 42.401475,52.573605 L 45.704777,56.858232 L 49.799241,52.573605 L 52.501803,52.573605 M 56.070536,47.913131 L 58.063198,47.913131 C 59.152627,49.602668 59.929831,51.256378 60.394875,52.874276 C 60.868203,54.492210 61.031160,56.099389 60.883763,57.695825 C 60.735703,59.299446 60.275310,60.913774 59.502560,62.538857 C 58.738097,64.163937 57.655525,65.817648 56.254777,67.500000 L 54.262112,67.500000 C 55.517740,65.860607 56.490088,64.231948 57.179155,62.614031 C 57.877173,60.988950 58.302513,59.349556 58.455222,57.695825 C 58.607883,56.042117 58.484607,54.409887 58.085350,52.799117 C 57.694379,51.188367 57.022775,49.559712 56.070536,47.913131"
       id="path8544" />
    <path
       style="writing-mode:lr-tb;text-anchor:start;font-family:Cotillion;stroke-opacity:1.0000000;stroke-miterlimit:4.0000000;stroke-linejoin:round;stroke-linecap:butt;stroke-width:1.8006259;stroke:#000000;fill-opacity:1.0;fill:url(#linearGradient2239);font-stretch:normal;font-weight:200;font-variant:normal;font-style:normal;font-size:45.000000"
       d="M 26.816038,35.236541 C 22.629215,35.859108 20.646014,39.583729 19.117018,42.797405 C 18.102619,45.144915 17.095843,47.687145 16.414676,50.170750 C 14.085732,50.161384 12.561664,50.322584 11.343823,50.695684 C 10.125982,51.068780 9.7109319,53.144429 10.724223,53.572497 C 11.737519,54.000569 13.455030,54.004761 15.588357,54.105339 C 13.739492,60.002306 12.144715,66.376874 10.136160,72.208181 C 9.7967889,74.038061 6.7281879,76.978842 5.8255329,73.454103 C 5.1291319,70.734754 1.2028399,73.195967 2.3633789,75.752976 C 3.5549149,78.378280 6.7008579,79.335117 8.9710809,78.485373 C 13.479866,76.887787 15.029757,72.264235 16.367495,68.272070 C 17.868411,63.483120 19.060934,59.029266 20.439214,54.194564 C 22.977665,54.300205 24.982092,53.736591 26.233319,53.427303 C 27.484547,53.118020 27.801803,51.223829 26.824511,50.836694 C 25.847218,50.449558 23.070754,50.063631 20.917332,50.240786 C 21.193479,48.750442 23.985843,41.011441 25.366245,39.332365 C 26.471123,40.819321 28.618239,42.468355 29.462874,40.183075 C 30.448740,38.544008 29.638434,35.056817 26.816038,35.236541 z "
       id="path1476"
       sodipodi:nodetypes="cccssccsscccsscccc" />
  </g>
</svg>
