<?xml version="1.0" encoding="UTF-8" standalone="no"?>
<!-- Created with Inkscape (http://www.inkscape.org/) -->
<svg
   xmlns:dc="http://purl.org/dc/elements/1.1/"
   xmlns:cc="http://web.resource.org/cc/"
   xmlns:rdf="http://www.w3.org/1999/02/22-rdf-syntax-ns#"
   xmlns:svg="http://www.w3.org/2000/svg"
   xmlns="http://www.w3.org/2000/svg"
   xmlns:xlink="http://www.w3.org/1999/xlink"
   xmlns:sodipodi="http://inkscape.sourceforge.net/DTD/sodipodi-0.dtd"
   xmlns:inkscape="http://www.inkscape.org/namespaces/inkscape"
   inkscape:export-ydpi="45.000000"
   inkscape:export-xdpi="45.000000"
   inkscape:export-filename="/home/pinheiro/kdeplayground-artwork/oooicons/crystalsvg/borderdialog.png"
   sodipodi:docname="borderdialog.svg"
   sodipodi:docbase="/home/pinheiro/kdeplayground-artwork/oooicons/crystalsvg"
   inkscape:version="0.41"
   sodipodi:version="0.32"
   id="svg13268"
   height="64px"
   width="64px">
  <defs
     id="defs3">
    <radialGradient
       r="84.285629"
       fy="164.78648"
       fx="88.048073"
       cy="164.78648"
       cx="88.048073"
       gradientTransform="matrix(1.066107,0.000000,0.000000,0.150079,183.9538,200.8582)"
       gradientUnits="userSpaceOnUse"
       id="radialGradient13188"
       xlink:href="#light75to0"
       inkscape:collect="always" />
    <linearGradient
       y2="86.939087"
       x2="15.819102"
       y1="86.440170"
       x1="0.22870471"
       gradientTransform="matrix(1.048735,0.000000,0.000000,0.152565,183.9538,200.8582)"
       gradientUnits="userSpaceOnUse"
       id="linearGradient13186"
       xlink:href="#light100to0"
       inkscape:collect="always" />
    <linearGradient
       y2="74.691383"
       x2="16.075460"
       y1="37.346004"
       x1="6.6173224"
       gradientTransform="matrix(1.048735,0.000000,0.000000,0.152565,183.9538,200.8582)"
       gradientUnits="userSpaceOnUse"
       id="linearGradient13184"
       xlink:href="#light100to0"
       inkscape:collect="always" />
    <radialGradient
       r="32.978649"
       fy="357.92365"
       fx="40.925316"
       cy="358.15790"
       cx="40.767597"
       gradientTransform="matrix(2.402748,0.000000,0.000000,6.659040e-2,183.9538,200.8582)"
       gradientUnits="userSpaceOnUse"
       id="radialGradient13182"
       xlink:href="#light100to0"
       inkscape:collect="always" />
    <radialGradient
       r="84.285629"
       fy="164.78648"
       fx="88.048073"
       cy="164.78648"
       cx="88.048073"
       gradientTransform="matrix(1.066107,0.000000,0.000000,0.150079,1.732872,200.9027)"
       gradientUnits="userSpaceOnUse"
       id="radialGradient13180"
       xlink:href="#light75to0"
       inkscape:collect="always" />
    <linearGradient
       y2="86.939087"
       x2="15.819102"
       y1="86.440170"
       x1="0.22870471"
       gradientTransform="matrix(1.048735,0.000000,0.000000,0.152565,1.732872,200.9027)"
       gradientUnits="userSpaceOnUse"
       id="linearGradient13178"
       xlink:href="#light100to0"
       inkscape:collect="always" />
    <linearGradient
       y2="74.691383"
       x2="16.075460"
       y1="37.346004"
       x1="6.6173224"
       gradientTransform="matrix(1.048735,0.000000,0.000000,0.152565,1.732872,200.9027)"
       gradientUnits="userSpaceOnUse"
       id="linearGradient13176"
       xlink:href="#light100to0"
       inkscape:collect="always" />
    <radialGradient
       r="32.978649"
       fy="357.92365"
       fx="40.925316"
       cy="358.15790"
       cx="40.767597"
       gradientTransform="matrix(2.402748,0.000000,0.000000,6.659040e-2,1.732872,200.9027)"
       gradientUnits="userSpaceOnUse"
       id="radialGradient13174"
       xlink:href="#light100to0"
       inkscape:collect="always" />
    <radialGradient
       r="84.285629"
       fy="164.78648"
       fx="88.048073"
       cy="164.78648"
       cx="88.048073"
       gradientTransform="matrix(1.066107,0.000000,0.000000,0.150079,183.9538,200.8582)"
       gradientUnits="userSpaceOnUse"
       id="radialGradient13172"
       xlink:href="#light75to0"
       inkscape:collect="always" />
    <linearGradient
       y2="86.939087"
       x2="15.819102"
       y1="86.440170"
       x1="0.22870471"
       gradientTransform="matrix(1.048735,0.000000,0.000000,0.152565,183.9538,200.8582)"
       gradientUnits="userSpaceOnUse"
       id="linearGradient13170"
       xlink:href="#light100to0"
       inkscape:collect="always" />
    <linearGradient
       y2="74.691383"
       x2="16.075460"
       y1="37.346004"
       x1="6.6173224"
       gradientTransform="matrix(1.048735,0.000000,0.000000,0.152565,183.9538,200.8582)"
       gradientUnits="userSpaceOnUse"
       id="linearGradient13168"
       xlink:href="#light100to0"
       inkscape:collect="always" />
    <radialGradient
       r="32.978649"
       fy="357.92365"
       fx="40.925316"
       cy="358.15790"
       cx="40.767597"
       gradientTransform="matrix(2.402748,0.000000,0.000000,6.659040e-2,183.9538,200.8582)"
       gradientUnits="userSpaceOnUse"
       id="radialGradient13166"
       xlink:href="#light100to0"
       inkscape:collect="always" />
    <radialGradient
       r="84.285629"
       fy="164.78648"
       fx="88.048073"
       cy="164.78648"
       cx="88.048073"
       gradientTransform="matrix(1.066107,0.000000,0.000000,0.150079,1.732872,200.9027)"
       gradientUnits="userSpaceOnUse"
       id="radialGradient13164"
       xlink:href="#light75to0"
       inkscape:collect="always" />
    <linearGradient
       y2="86.939087"
       x2="15.819102"
       y1="86.440170"
       x1="0.22870471"
       gradientTransform="matrix(1.048735,0.000000,0.000000,0.152565,1.732872,200.9027)"
       gradientUnits="userSpaceOnUse"
       id="linearGradient13162"
       xlink:href="#light100to0"
       inkscape:collect="always" />
    <linearGradient
       y2="74.691383"
       x2="16.075460"
       y1="37.346004"
       x1="6.6173224"
       gradientTransform="matrix(1.048735,0.000000,0.000000,0.152565,1.732872,200.9027)"
       gradientUnits="userSpaceOnUse"
       id="linearGradient13160"
       xlink:href="#light100to0"
       inkscape:collect="always" />
    <radialGradient
       r="32.978649"
       fy="357.92365"
       fx="40.925316"
       cy="358.15790"
       cx="40.767597"
       gradientTransform="matrix(2.402748,0.000000,0.000000,6.659040e-2,1.732872,200.9027)"
       gradientUnits="userSpaceOnUse"
       id="radialGradient13158"
       xlink:href="#light100to0"
       inkscape:collect="always" />
    <radialGradient
       r="84.285629"
       fy="164.78648"
       fx="88.048073"
       cy="164.78648"
       cx="88.048073"
       gradientTransform="matrix(0.844738,0.000000,0.000000,0.190242,25.02661,330.0296)"
       gradientUnits="userSpaceOnUse"
       id="radialGradient13012"
       xlink:href="#light75to0"
       inkscape:collect="always" />
    <radialGradient
       r="32.978649"
       fy="357.92365"
       fx="40.925316"
       cy="358.15790"
       cx="40.767597"
       gradientTransform="matrix(1.903836,0.000000,0.000000,8.441082e-2,25.02661,330.0296)"
       gradientUnits="userSpaceOnUse"
       id="radialGradient13010"
       xlink:href="#light100to0"
       inkscape:collect="always" />
    <linearGradient
       y2="86.939087"
       x2="15.819102"
       y1="86.440170"
       x1="0.22870471"
       gradientTransform="matrix(0.951890,0.000000,1.242511e-2,0.193393,7.787301,330.0296)"
       gradientUnits="userSpaceOnUse"
       id="linearGradient13008"
       xlink:href="#light100to0"
       inkscape:collect="always" />
    <linearGradient
       y2="74.691383"
       x2="16.075460"
       y1="37.346004"
       x1="6.6173224"
       gradientTransform="matrix(0.951890,0.000000,1.242511e-2,0.193393,7.787301,330.0296)"
       gradientUnits="userSpaceOnUse"
       id="linearGradient13006"
       xlink:href="#light100to0"
       inkscape:collect="always" />
    <radialGradient
       r="84.285629"
       fy="164.78648"
       fx="88.048073"
       cy="164.78648"
       cx="88.048073"
       gradientTransform="matrix(0.844738,0.000000,0.000000,0.190242,25.02661,330.0296)"
       gradientUnits="userSpaceOnUse"
       id="radialGradient12990"
       xlink:href="#light75to0"
       inkscape:collect="always" />
    <radialGradient
       r="32.978649"
       fy="357.92365"
       fx="40.925316"
       cy="358.15790"
       cx="40.767597"
       gradientTransform="matrix(1.903836,0.000000,0.000000,8.441082e-2,25.02661,330.0296)"
       gradientUnits="userSpaceOnUse"
       id="radialGradient12988"
       xlink:href="#light100to0"
       inkscape:collect="always" />
    <linearGradient
       y2="86.939087"
       x2="15.819102"
       y1="86.440170"
       x1="0.22870471"
       gradientTransform="matrix(0.951890,0.000000,1.242511e-2,0.193393,7.787301,330.0296)"
       gradientUnits="userSpaceOnUse"
       id="linearGradient12986"
       xlink:href="#light100to0"
       inkscape:collect="always" />
    <linearGradient
       y2="74.691383"
       x2="16.075460"
       y1="37.346004"
       x1="6.6173224"
       gradientTransform="matrix(0.951890,0.000000,1.242511e-2,0.193393,7.787301,330.0296)"
       gradientUnits="userSpaceOnUse"
       id="linearGradient12984"
       xlink:href="#light100to0"
       inkscape:collect="always" />
    <radialGradient
       r="84.285629"
       fy="164.78648"
       fx="88.048073"
       cy="164.78648"
       cx="88.048073"
       gradientTransform="matrix(0.844738,0.000000,0.000000,0.190242,25.02661,330.0296)"
       gradientUnits="userSpaceOnUse"
       id="radialGradient13020"
       xlink:href="#light75to0"
       inkscape:collect="always" />
    <radialGradient
       r="32.978649"
       fy="357.92365"
       fx="40.925316"
       cy="358.15790"
       cx="40.767597"
       gradientTransform="matrix(1.903836,0.000000,0.000000,8.441082e-2,25.02661,330.0296)"
       gradientUnits="userSpaceOnUse"
       id="radialGradient13018"
       xlink:href="#light100to0"
       inkscape:collect="always" />
    <linearGradient
       y2="86.939087"
       x2="15.819102"
       y1="86.440170"
       x1="0.22870471"
       gradientTransform="matrix(0.951890,0.000000,1.242511e-2,0.193393,7.787301,330.0296)"
       gradientUnits="userSpaceOnUse"
       id="linearGradient13016"
       xlink:href="#light100to0"
       inkscape:collect="always" />
    <linearGradient
       y2="74.691383"
       x2="16.075460"
       y1="37.346004"
       x1="6.6173224"
       gradientTransform="matrix(0.951890,0.000000,1.242511e-2,0.193393,7.787301,330.0296)"
       gradientUnits="userSpaceOnUse"
       id="linearGradient13014"
       xlink:href="#light100to0"
       inkscape:collect="always" />
    <radialGradient
       r="84.285629"
       fy="164.78648"
       fx="88.048073"
       cy="164.78648"
       cx="88.048073"
       gradientTransform="matrix(2.689428,0.000000,0.000000,0.221554,0.883148,121.5399)"
       gradientUnits="userSpaceOnUse"
       id="radialGradient13196"
       xlink:href="#light75to0"
       inkscape:collect="always" />
    <linearGradient
       y2="86.939087"
       x2="15.819102"
       y1="86.440170"
       x1="0.22870471"
       gradientTransform="matrix(2.645604,0.000000,0.108694,0.225223,-8.539559,121.5399)"
       gradientUnits="userSpaceOnUse"
       id="linearGradient13194"
       xlink:href="#light100to0"
       inkscape:collect="always" />
    <linearGradient
       y2="74.691383"
       x2="16.075460"
       y1="37.346004"
       x1="6.6173224"
       gradientTransform="matrix(2.645604,0.000000,0.108694,0.225223,-8.539559,121.5399)"
       gradientUnits="userSpaceOnUse"
       id="linearGradient13192"
       xlink:href="#light100to0"
       inkscape:collect="always" />
    <radialGradient
       r="32.978649"
       fy="357.92365"
       fx="40.925316"
       cy="358.15790"
       cx="40.767597"
       gradientTransform="matrix(6.061324,0.000000,0.000000,9.830395e-2,0.883148,121.5399)"
       gradientUnits="userSpaceOnUse"
       id="radialGradient13190"
       xlink:href="#light100to0"
       inkscape:collect="always" />
    <linearGradient
       id="light75to0">
      <stop
         id="stop2769"
         offset="0.0000000"
         style="stop-color:#ffffff;stop-opacity:0.72916669;" />
      <stop
         id="stop2770"
         offset="1.0000000"
         style="stop-color:#ffffff;stop-opacity:0.0000000;" />
    </linearGradient>
    <radialGradient
       r="84.285629"
       fy="164.78648"
       fx="88.048073"
       cy="164.78648"
       cx="88.048073"
       gradientTransform="scale(2.665267,0.375197)"
       gradientUnits="userSpaceOnUse"
       id="radialGradient13204"
       xlink:href="#light75to0"
       inkscape:collect="always" />
    <linearGradient
       y2="86.939087"
       x2="15.819102"
       y1="86.440170"
       x1="0.22870471"
       gradientTransform="scale(2.621837,0.381412)"
       gradientUnits="userSpaceOnUse"
       id="linearGradient13202"
       xlink:href="#light100to0"
       inkscape:collect="always" />
    <linearGradient
       y2="74.691383"
       x2="16.075460"
       y1="37.346004"
       x1="6.6173224"
       gradientTransform="scale(2.621837,0.381412)"
       gradientUnits="userSpaceOnUse"
       id="linearGradient13200"
       xlink:href="#light100to0"
       inkscape:collect="always" />
    <linearGradient
       id="light100to0">
      <stop
         id="stop2764"
         offset="0.0000000"
         style="stop-color:#ffffff;stop-opacity:1.0000000;" />
      <stop
         id="stop2765"
         offset="1.0000000"
         style="stop-color:#ffffff;stop-opacity:0.0000000;" />
    </linearGradient>
    <radialGradient
       r="32.978649"
       fy="357.92365"
       fx="40.925316"
       cy="358.15790"
       cx="40.767597"
       gradientTransform="scale(6.006871,0.166476)"
       gradientUnits="userSpaceOnUse"
       id="radialGradient13198"
       xlink:href="#light100to0"
       inkscape:collect="always" />
  </defs>
  <sodipodi:namedview
     inkscape:window-y="399"
     inkscape:window-x="410"
     inkscape:window-height="536"
     inkscape:window-width="640"
     inkscape:grid-bbox="true"
     inkscape:document-units="px"
     showgrid="true"
     inkscape:current-layer="layer1"
     inkscape:cy="37.136546"
     inkscape:cx="32.000000"
     inkscape:zoom="5.6562500"
     inkscape:pageshadow="2"
     inkscape:pageopacity="0.0"
     borderopacity="1.0"
     bordercolor="#666666"
     pagecolor="#ffffff"
     id="base" />
  <metadata
     id="metadata4">
    <rdf:RDF
       id="RDF5">
      <cc:Work
         id="Work6"
         rdf:about="">
        <dc:format
           id="format7">image/svg+xml</dc:format>
        <dc:type
           rdf:resource="http://purl.org/dc/dcmitype/StillImage"
           id="type9" />
      </cc:Work>
    </rdf:RDF>
  </metadata>
  <g
     inkscape:groupmode="layer"
     inkscape:label="Layer 1"
     id="layer1">
    <g
       transform="matrix(0.169968,0.000000,0.000000,0.170672,2.129994e-2,0.646155)"
       id="g13206">
      <g
         transform="translate(0.000000,-1.525879e-5)"
         id="g13124">
        <path
           sodipodi:nodetypes="ccc"
           id="path7358"
           d="M 30.053946,39.420671 L 346.09540,39.533377 L 346.09540,39.533377"
           style="fill:none;fill-opacity:0.75000000;fill-rule:evenodd;stroke:#000000;stroke-width:61.790390;stroke-linecap:round;stroke-linejoin:miter;stroke-miterlimit:4.0000000;stroke-opacity:1.0000000" />
        <g
           id="g12914">
          <path
             id="path9709"
             d="M 30.718750,13.375000 C 21.355563,13.161786 12.590699,18.020261 7.8437500,26.093750 C 3.0968000,34.167235 3.1049710,44.202964 7.8437500,52.281250 C 8.4616220,53.334549 9.1598140,54.309614 9.9062500,55.250000 C 14.884619,61.521921 22.544961,65.208427 30.687500,65.031250 L 345.56250,65.125000 C 353.75540,65.307462 361.48996,61.590677 366.46875,55.250000 C 367.18000,54.344188 367.84464,53.384487 368.43750,52.375000 C 373.18041,44.299091 373.18041,34.294658 368.43750,26.218750 C 363.69461,18.142839 354.92583,13.291467 345.56250,13.500000 L 30.718750,13.375000 z "
             style="fill:url(#radialGradient13198);fill-opacity:1.0000000;fill-rule:evenodd;stroke:none;stroke-width:61.790390;stroke-linecap:round;stroke-linejoin:miter;stroke-miterlimit:4.0000000;stroke-opacity:1.0000000" />
          <path
             sodipodi:nodetypes="csscsc"
             id="path11259"
             d="M 8.5499142,55.233221 C 1.2500002,46.540808 0.78096909,31.524055 9.9675129,20.606070 C 15.184086,14.406300 23.879484,11.772813 28.452453,11.645009 C 38.593760,11.361582 289.41674,11.612522 297.50000,13.750000 C 298.79482,20.395009 38.287625,21.237686 27.359724,28.982573 C 14.051355,38.414560 11.969880,48.905481 8.5499142,55.233221 z "
             style="fill:url(#linearGradient13200);fill-opacity:1.0000000;fill-rule:evenodd;stroke:none;stroke-width:1.0000000px;stroke-linecap:butt;stroke-linejoin:miter;stroke-opacity:1.0000000" />
          <path
             sodipodi:nodetypes="csscsc"
             id="path12035"
             d="M 8.5499142,55.233221 C 1.2500002,46.540808 0.78096909,31.524055 9.9675129,20.606070 C 15.184086,14.406300 23.879484,11.772813 28.452453,11.645009 C 38.593760,11.361582 50.446647,9.9025392 58.529907,12.040017 C 59.824727,18.685026 38.287625,21.237686 27.359724,28.982573 C 14.051355,38.414560 11.969880,48.905481 8.5499142,55.233221 z "
             style="fill:url(#linearGradient13202);fill-opacity:1.0000000;fill-rule:evenodd;stroke:none;stroke-width:1.0000000px;stroke-linecap:butt;stroke-linejoin:miter;stroke-opacity:1.0000000" />
          <path
             id="path12800"
             d="M 30.718750,13.375000 C 21.355563,13.161786 12.590699,18.020261 7.8437500,26.093750 C 3.0968000,34.167235 3.1049710,44.202964 7.8437500,52.281250 C 8.4616220,53.334549 9.1598140,54.309614 9.9062500,55.250000 C 14.884619,61.521921 22.544961,65.208427 30.687500,65.031250 L 345.56250,65.125000 C 353.75540,65.307462 361.48996,61.590677 366.46875,55.250000 C 367.18000,54.344188 367.84464,53.384487 368.43750,52.375000 C 373.18041,44.299091 373.18041,34.294658 368.43750,26.218750 C 363.69461,18.142839 354.92583,13.291467 345.56250,13.500000 L 30.718750,13.375000 z "
             style="fill:url(#radialGradient13204);fill-opacity:1.0000000;fill-rule:evenodd;stroke:none;stroke-width:61.790390;stroke-linecap:round;stroke-linejoin:miter;stroke-miterlimit:4.0000000;stroke-opacity:1.0000000" />
        </g>
      </g>
      <g
         transform="translate(0.000000,-7.691017)"
         id="g13022">
        <path
           sodipodi:nodetypes="ccc"
           id="path8140"
           d="M 19.063786,143.55846 L 357.08556,143.59562 L 357.08556,143.59562"
           style="fill:none;fill-opacity:0.75000000;fill-rule:evenodd;stroke:#000000;stroke-width:36.697769;stroke-linecap:round;stroke-linejoin:miter;stroke-miterlimit:4.0000000;stroke-opacity:1.0000000" />
        <path
           id="path12818"
           d="M 31.880366,129.43787 C 22.432301,129.31197 13.587983,132.18090 8.7980025,136.94829 C 4.0080211,141.71567 4.0162662,147.64176 8.7980025,152.41198 C 9.4214755,153.03396 10.125997,153.60973 10.879199,154.16503 C 15.902698,157.86859 23.632481,160.04547 31.848833,159.94085 L 349.57820,159.99621 C 357.84537,160.10395 365.65004,157.90920 370.67397,154.16503 C 371.39166,153.63015 372.06233,153.06345 372.66056,152.46734 C 377.44647,147.69853 377.44647,141.79092 372.66056,137.02210 C 367.87468,132.25328 359.02641,129.38855 349.57820,129.51169 L 31.880366,129.43787 z "
           style="fill:url(#radialGradient13190);fill-opacity:1.0000000;fill-rule:evenodd;stroke:none;stroke-width:61.790390;stroke-linecap:round;stroke-linejoin:miter;stroke-miterlimit:4.0000000;stroke-opacity:1.0000000" />
        <path
           sodipodi:nodetypes="csscsc"
           id="path12820"
           d="M 15.828130,154.15512 C 5.9848977,149.02226 1.2321679,140.15487 7.3906056,133.70781 C 10.887674,130.04686 18.911407,128.49178 23.489413,128.41632 C 33.641879,128.24895 286.81010,128.39713 295.57577,129.65931 C 298.77601,133.58318 36.147444,134.08079 27.327596,138.65413 C 16.586494,144.22371 17.475830,150.41859 15.828130,154.15512 z "
           style="fill:url(#linearGradient13192);fill-opacity:1.0000000;fill-rule:evenodd;stroke:none;stroke-width:1.0000000px;stroke-linecap:butt;stroke-linejoin:miter;stroke-opacity:1.0000000" />
        <path
           sodipodi:nodetypes="csscsc"
           id="path12822"
           d="M 7.9311186,153.76027 C 2.8260932,145.86346 1.2321679,140.15487 7.3906056,133.70781 C 10.887674,130.04686 18.911407,128.49178 23.489413,128.41632 C 33.641879,128.24895 45.186419,127.38739 53.952090,128.64957 C 57.152326,132.57344 21.143122,136.84474 17.061481,139.04898 C 6.4154628,144.79822 9.5788186,150.02374 7.9311186,153.76027 z "
           style="fill:url(#linearGradient13194);fill-opacity:1.0000000;fill-rule:evenodd;stroke:none;stroke-width:1.0000000px;stroke-linecap:butt;stroke-linejoin:miter;stroke-opacity:1.0000000" />
        <path
           id="path12824"
           d="M 31.880366,129.43787 C 22.432301,129.31197 13.587983,132.18090 8.7980025,136.94829 C 4.0080211,141.71567 4.0162662,147.64176 8.7980025,152.41198 C 9.4214755,153.03396 10.125997,153.60973 10.879199,154.16503 C 15.902698,157.86859 23.632481,160.04547 31.848833,159.94085 L 349.57820,159.99621 C 357.84537,160.10395 365.65004,157.90920 370.67397,154.16503 C 371.39166,153.63015 372.06233,153.06345 372.66056,152.46734 C 377.44647,147.69853 377.44647,141.79092 372.66056,137.02210 C 367.87468,132.25328 359.02641,129.38855 349.57820,129.51169 L 31.880366,129.43787 z "
           style="fill:url(#radialGradient13196);fill-opacity:1.0000000;fill-rule:evenodd;stroke:none;stroke-width:61.790390;stroke-linecap:round;stroke-linejoin:miter;stroke-miterlimit:4.0000000;stroke-opacity:1.0000000" />
      </g>
      <g
         id="g13053">
        <g
           transform="matrix(0.960498,0.000000,0.000000,0.960498,-5.912906,14.93855)"
           id="g12962">
          <path
             sodipodi:nodetypes="cc"
             id="path8122"
             d="M 22.578053,348.82805 L 114.83572,349.38023"
             style="fill:none;fill-opacity:0.75000000;fill-rule:evenodd;stroke:#000000;stroke-width:30.156107;stroke-linecap:round;stroke-linejoin:miter;stroke-miterlimit:4.0000000;stroke-opacity:1.0000000" />
          <path
             sodipodi:nodetypes="csscsc"
             id="path12924"
             d="M 12.690764,358.03533 C 9.7572709,353.62788 9.0977886,346.01371 12.077406,340.47780 C 13.769380,337.33424 16.840562,335.99895 18.496671,335.93414 C 22.169364,335.79043 113.24192,335.91767 116.24628,337.00147 C 116.93285,340.37079 22.379949,340.79806 18.664742,344.72507 C 14.140236,349.50751 13.726290,354.82688 12.690764,358.03533 z "
             style="fill:url(#linearGradient13014);fill-opacity:1.0000000;fill-rule:evenodd;stroke:none;stroke-width:1.0000000px;stroke-linecap:butt;stroke-linejoin:miter;stroke-opacity:1.0000000" />
          <path
             sodipodi:nodetypes="csscsc"
             id="path12926"
             d="M 12.690764,358.03533 C 9.7572709,353.62788 9.0977886,346.01371 12.077406,340.47780 C 13.769380,337.33424 16.840562,335.99895 18.496671,335.93414 C 22.169364,335.79043 26.425172,335.05063 29.429530,336.13443 C 30.116102,339.50375 22.379949,340.79806 18.664742,344.72507 C 14.140236,349.50751 13.726290,354.82688 12.690764,358.03533 z "
             style="fill:url(#linearGradient13016);fill-opacity:1.0000000;fill-rule:evenodd;stroke:none;stroke-width:1.0000000px;stroke-linecap:butt;stroke-linejoin:miter;stroke-opacity:1.0000000" />
          <g
             transform="matrix(1.170661,0.000000,0.000000,1.000000,-23.43066,-0.557912)"
             id="g12954">
            <path
               sodipodi:nodetypes="ccccccccccc"
               id="path12922"
               d="M 34.762708,336.81133 C 31.795111,336.70322 29.017149,339.16668 27.512637,343.26031 C 26.008124,347.35393 26.010714,352.44249 27.512637,356.53855 C 27.708467,357.07262 27.929754,357.56702 28.166332,358.04384 C 29.744191,361.22398 32.172083,363.09321 34.752803,363.00337 L 120.55023,363.05091 C 123.14691,363.14342 125.59833,361.25884 127.17632,358.04384 C 127.40175,357.58455 127.61240,357.09794 127.80030,356.58608 C 129.30353,352.49123 129.30353,347.41853 127.80030,343.32369 C 126.29708,339.22884 123.51787,336.76897 120.55023,336.87471 L 34.762708,336.81133 z "
               style="fill:url(#radialGradient13018);fill-opacity:1.0000000;fill-rule:evenodd;stroke:none;stroke-width:61.790390;stroke-linecap:round;stroke-linejoin:miter;stroke-miterlimit:4.0000000;stroke-opacity:1.0000000" />
            <path
               sodipodi:nodetypes="ccccccccccc"
               id="path12928"
               d="M 34.762708,336.81133 C 31.795111,336.70322 29.017149,339.16668 27.512637,343.26031 C 26.008124,347.35393 26.010714,352.44249 27.512637,356.53855 C 27.708467,357.07262 27.929754,357.56702 28.166332,358.04384 C 29.744191,361.22398 32.172083,363.09321 34.752803,363.00337 L 120.55023,363.05091 C 123.14691,363.14342 125.59833,361.25884 127.17632,358.04384 C 127.40175,357.58455 127.61240,357.09794 127.80030,356.58608 C 129.30353,352.49123 129.30353,347.41853 127.80030,343.32369 C 126.29708,339.22884 123.51787,336.76897 120.55023,336.87471 L 34.762708,336.81133 z "
               style="fill:url(#radialGradient13020);fill-opacity:1.0000000;fill-rule:evenodd;stroke:none;stroke-width:61.790390;stroke-linecap:round;stroke-linejoin:miter;stroke-miterlimit:4.0000000;stroke-opacity:1.0000000" />
          </g>
        </g>
        <g
           transform="matrix(0.960498,0.000000,0.000000,0.960498,122.7938,14.93855)"
           id="g12970">
          <path
             sodipodi:nodetypes="cc"
             id="path12972"
             d="M 22.578053,348.82805 L 114.83572,349.38023"
             style="fill:none;fill-opacity:0.75000000;fill-rule:evenodd;stroke:#000000;stroke-width:30.156107;stroke-linecap:round;stroke-linejoin:miter;stroke-miterlimit:4.0000000;stroke-opacity:1.0000000" />
          <path
             sodipodi:nodetypes="csscsc"
             id="path12974"
             d="M 12.690764,358.03533 C 9.7572709,353.62788 9.0977886,346.01371 12.077406,340.47780 C 13.769380,337.33424 16.840562,335.99895 18.496671,335.93414 C 22.169364,335.79043 113.24192,335.91767 116.24628,337.00147 C 116.93285,340.37079 22.379949,340.79806 18.664742,344.72507 C 14.140236,349.50751 13.726290,354.82688 12.690764,358.03533 z "
             style="fill:url(#linearGradient12984);fill-opacity:1.0000000;fill-rule:evenodd;stroke:none;stroke-width:1.0000000px;stroke-linecap:butt;stroke-linejoin:miter;stroke-opacity:1.0000000" />
          <path
             sodipodi:nodetypes="csscsc"
             id="path12976"
             d="M 12.690764,358.03533 C 9.7572709,353.62788 9.0977886,346.01371 12.077406,340.47780 C 13.769380,337.33424 16.840562,335.99895 18.496671,335.93414 C 22.169364,335.79043 26.425172,335.05063 29.429530,336.13443 C 30.116102,339.50375 22.379949,340.79806 18.664742,344.72507 C 14.140236,349.50751 13.726290,354.82688 12.690764,358.03533 z "
             style="fill:url(#linearGradient12986);fill-opacity:1.0000000;fill-rule:evenodd;stroke:none;stroke-width:1.0000000px;stroke-linecap:butt;stroke-linejoin:miter;stroke-opacity:1.0000000" />
          <g
             transform="matrix(1.170661,0.000000,0.000000,1.000000,-23.43066,-0.557912)"
             id="g12978">
            <path
               sodipodi:nodetypes="ccccccccccc"
               id="path12980"
               d="M 34.762708,336.81133 C 31.795111,336.70322 29.017149,339.16668 27.512637,343.26031 C 26.008124,347.35393 26.010714,352.44249 27.512637,356.53855 C 27.708467,357.07262 27.929754,357.56702 28.166332,358.04384 C 29.744191,361.22398 32.172083,363.09321 34.752803,363.00337 L 120.55023,363.05091 C 123.14691,363.14342 125.59833,361.25884 127.17632,358.04384 C 127.40175,357.58455 127.61240,357.09794 127.80030,356.58608 C 129.30353,352.49123 129.30353,347.41853 127.80030,343.32369 C 126.29708,339.22884 123.51787,336.76897 120.55023,336.87471 L 34.762708,336.81133 z "
               style="fill:url(#radialGradient12988);fill-opacity:1.0000000;fill-rule:evenodd;stroke:none;stroke-width:61.790390;stroke-linecap:round;stroke-linejoin:miter;stroke-miterlimit:4.0000000;stroke-opacity:1.0000000" />
            <path
               sodipodi:nodetypes="ccccccccccc"
               id="path12982"
               d="M 34.762708,336.81133 C 31.795111,336.70322 29.017149,339.16668 27.512637,343.26031 C 26.008124,347.35393 26.010714,352.44249 27.512637,356.53855 C 27.708467,357.07262 27.929754,357.56702 28.166332,358.04384 C 29.744191,361.22398 32.172083,363.09321 34.752803,363.00337 L 120.55023,363.05091 C 123.14691,363.14342 125.59833,361.25884 127.17632,358.04384 C 127.40175,357.58455 127.61240,357.09794 127.80030,356.58608 C 129.30353,352.49123 129.30353,347.41853 127.80030,343.32369 C 126.29708,339.22884 123.51787,336.76897 120.55023,336.87471 L 34.762708,336.81133 z "
               style="fill:url(#radialGradient12990);fill-opacity:1.0000000;fill-rule:evenodd;stroke:none;stroke-width:61.790390;stroke-linecap:round;stroke-linejoin:miter;stroke-miterlimit:4.0000000;stroke-opacity:1.0000000" />
          </g>
        </g>
        <g
           transform="matrix(0.960498,0.000000,0.000000,0.960498,251.5005,14.93855)"
           id="g12992">
          <path
             sodipodi:nodetypes="cc"
             id="path12994"
             d="M 22.578053,348.82805 L 114.83572,349.38023"
             style="fill:none;fill-opacity:0.75000000;fill-rule:evenodd;stroke:#000000;stroke-width:30.156107;stroke-linecap:round;stroke-linejoin:miter;stroke-miterlimit:4.0000000;stroke-opacity:1.0000000" />
          <path
             sodipodi:nodetypes="csscsc"
             id="path12996"
             d="M 12.690764,358.03533 C 9.7572709,353.62788 9.0977886,346.01371 12.077406,340.47780 C 13.769380,337.33424 16.840562,335.99895 18.496671,335.93414 C 22.169364,335.79043 113.24192,335.91767 116.24628,337.00147 C 116.93285,340.37079 22.379949,340.79806 18.664742,344.72507 C 14.140236,349.50751 13.726290,354.82688 12.690764,358.03533 z "
             style="fill:url(#linearGradient13006);fill-opacity:1.0000000;fill-rule:evenodd;stroke:none;stroke-width:1.0000000px;stroke-linecap:butt;stroke-linejoin:miter;stroke-opacity:1.0000000" />
          <path
             sodipodi:nodetypes="csscsc"
             id="path12998"
             d="M 12.690764,358.03533 C 9.7572709,353.62788 9.0977886,346.01371 12.077406,340.47780 C 13.769380,337.33424 16.840562,335.99895 18.496671,335.93414 C 22.169364,335.79043 26.425172,335.05063 29.429530,336.13443 C 30.116102,339.50375 22.379949,340.79806 18.664742,344.72507 C 14.140236,349.50751 13.726290,354.82688 12.690764,358.03533 z "
             style="fill:url(#linearGradient13008);fill-opacity:1.0000000;fill-rule:evenodd;stroke:none;stroke-width:1.0000000px;stroke-linecap:butt;stroke-linejoin:miter;stroke-opacity:1.0000000" />
          <g
             transform="matrix(1.170661,0.000000,0.000000,1.000000,-23.43066,-0.557912)"
             id="g13000">
            <path
               sodipodi:nodetypes="ccccccccccc"
               id="path13002"
               d="M 34.762708,336.81133 C 31.795111,336.70322 29.017149,339.16668 27.512637,343.26031 C 26.008124,347.35393 26.010714,352.44249 27.512637,356.53855 C 27.708467,357.07262 27.929754,357.56702 28.166332,358.04384 C 29.744191,361.22398 32.172083,363.09321 34.752803,363.00337 L 120.55023,363.05091 C 123.14691,363.14342 125.59833,361.25884 127.17632,358.04384 C 127.40175,357.58455 127.61240,357.09794 127.80030,356.58608 C 129.30353,352.49123 129.30353,347.41853 127.80030,343.32369 C 126.29708,339.22884 123.51787,336.76897 120.55023,336.87471 L 34.762708,336.81133 z "
               style="fill:url(#radialGradient13010);fill-opacity:1.0000000;fill-rule:evenodd;stroke:none;stroke-width:61.790390;stroke-linecap:round;stroke-linejoin:miter;stroke-miterlimit:4.0000000;stroke-opacity:1.0000000" />
            <path
               sodipodi:nodetypes="ccccccccccc"
               id="path13004"
               d="M 34.762708,336.81133 C 31.795111,336.70322 29.017149,339.16668 27.512637,343.26031 C 26.008124,347.35393 26.010714,352.44249 27.512637,356.53855 C 27.708467,357.07262 27.929754,357.56702 28.166332,358.04384 C 29.744191,361.22398 32.172083,363.09321 34.752803,363.00337 L 120.55023,363.05091 C 123.14691,363.14342 125.59833,361.25884 127.17632,358.04384 C 127.40175,357.58455 127.61240,357.09794 127.80030,356.58608 C 129.30353,352.49123 129.30353,347.41853 127.80030,343.32369 C 126.29708,339.22884 123.51787,336.76897 120.55023,336.87471 L 34.762708,336.81133 z "
               style="fill:url(#radialGradient13012);fill-opacity:1.0000000;fill-rule:evenodd;stroke:none;stroke-width:61.790390;stroke-linecap:round;stroke-linejoin:miter;stroke-miterlimit:4.0000000;stroke-opacity:1.0000000" />
          </g>
        </g>
      </g>
      <g
         transform="translate(0.000000,1.658951)"
         id="g13132">
        <g
           transform="matrix(1.122110,0.000000,0.000000,1.122110,-0.918665,-4.408830)"
           id="g12884">
          <path
             sodipodi:nodetypes="ccc"
             id="path12848"
             d="M 13.754452,216.67097 L 140.17103,216.71606 L 140.17103,216.71606"
             style="fill:none;fill-opacity:0.75000000;fill-rule:evenodd;stroke:#000000;stroke-width:24.716156;stroke-linecap:round;stroke-linejoin:miter;stroke-miterlimit:4.0000000;stroke-opacity:1.0000000" />
          <path
             id="path12850"
             d="M 14.020372,206.25270 C 10.275102,206.16742 6.7691520,208.11081 4.8703720,211.34021 C 2.9715920,214.56960 2.9748620,218.58389 4.8703720,221.81520 C 5.1175220,222.23653 5.3968020,222.62655 5.6953720,223.00270 C 7.6867220,225.51147 10.750862,226.98608 14.007872,226.91520 L 139.95787,226.95270 C 143.23503,227.02569 146.32886,225.53898 148.32037,223.00270 C 148.60487,222.64038 148.87073,222.25650 149.10787,221.85270 C 151.00504,218.62234 151.00504,214.62057 149.10787,211.39020 C 147.21072,208.15984 143.70321,206.21929 139.95787,206.30271 L 14.020372,206.25270 z "
             style="fill:url(#radialGradient13158);fill-opacity:1.0000000;fill-rule:evenodd;stroke:none;stroke-width:61.790390;stroke-linecap:round;stroke-linejoin:miter;stroke-miterlimit:4.0000000;stroke-opacity:1.0000000" />
          <path
             sodipodi:nodetypes="csscsc"
             id="path12852"
             d="M 5.1528420,222.99599 C 2.2328720,219.51903 2.0452620,213.51233 5.7198820,209.14513 C 7.8065120,206.66522 11.284672,205.61183 13.113852,205.56071 C 17.170382,205.44734 117.49957,205.54771 120.73287,206.40271 C 121.25080,209.06071 17.047922,209.39778 12.676762,212.49573 C 7.3534220,216.26853 6.5208320,220.46490 5.1528420,222.99599 z "
             style="fill:url(#linearGradient13160);fill-opacity:1.0000000;fill-rule:evenodd;stroke:none;stroke-width:1.0000000px;stroke-linecap:butt;stroke-linejoin:miter;stroke-opacity:1.0000000" />
          <path
             sodipodi:nodetypes="csscsc"
             id="path12854"
             d="M 5.1528420,222.99599 C 2.2328720,219.51903 2.0452620,213.51233 5.7198820,209.14513 C 7.8065120,206.66522 11.284672,205.61183 13.113852,205.56071 C 17.170382,205.44734 21.911532,204.86372 25.144842,205.71871 C 25.662762,208.37672 17.047922,209.39778 12.676762,212.49573 C 7.3534220,216.26853 6.5208320,220.46490 5.1528420,222.99599 z "
             style="fill:url(#linearGradient13162);fill-opacity:1.0000000;fill-rule:evenodd;stroke:none;stroke-width:1.0000000px;stroke-linecap:butt;stroke-linejoin:miter;stroke-opacity:1.0000000" />
          <path
             id="path12856"
             d="M 14.020372,206.25270 C 10.275102,206.16742 6.7691520,208.11081 4.8703720,211.34021 C 2.9715920,214.56960 2.9748620,218.58389 4.8703720,221.81520 C 5.1175220,222.23653 5.3968020,222.62655 5.6953720,223.00270 C 7.6867220,225.51147 10.750862,226.98608 14.007872,226.91520 L 139.95787,226.95270 C 143.23503,227.02569 146.32886,225.53898 148.32037,223.00270 C 148.60487,222.64038 148.87073,222.25650 149.10787,221.85270 C 151.00504,218.62234 151.00504,214.62057 149.10787,211.39020 C 147.21072,208.15984 143.70321,206.21929 139.95787,206.30271 L 14.020372,206.25270 z "
             style="fill:url(#radialGradient13164);fill-opacity:1.0000000;fill-rule:evenodd;stroke:none;stroke-width:61.790390;stroke-linecap:round;stroke-linejoin:miter;stroke-miterlimit:4.0000000;stroke-opacity:1.0000000" />
        </g>
        <g
           transform="matrix(1.122110,0.000000,0.000000,1.122110,-0.918665,-4.358900)"
           id="g12891">
          <path
             sodipodi:nodetypes="ccc"
             id="path12866"
             d="M 195.97534,216.62647 L 322.39192,216.67156 L 322.39192,216.67156"
             style="fill:none;fill-opacity:0.75000000;fill-rule:evenodd;stroke:#000000;stroke-width:24.716156;stroke-linecap:round;stroke-linejoin:miter;stroke-miterlimit:4.0000000;stroke-opacity:1.0000000" />
          <path
             id="path12868"
             d="M 196.24126,206.20820 C 192.49599,206.12292 188.99004,208.06631 187.09126,211.29571 C 185.19248,214.52510 185.19575,218.53939 187.09126,221.77070 C 187.33841,222.19203 187.61769,222.58205 187.91626,222.95820 C 189.90761,225.46697 192.97175,226.94158 196.22876,226.87070 L 322.17876,226.90820 C 325.45592,226.98119 328.54975,225.49448 330.54126,222.95820 C 330.82576,222.59588 331.09162,222.21200 331.32876,221.80820 C 333.22593,218.57784 333.22593,214.57607 331.32876,211.34570 C 329.43161,208.11534 325.92410,206.17479 322.17876,206.25821 L 196.24126,206.20820 z "
             style="fill:url(#radialGradient13166);fill-opacity:1.0000000;fill-rule:evenodd;stroke:none;stroke-width:61.790390;stroke-linecap:round;stroke-linejoin:miter;stroke-miterlimit:4.0000000;stroke-opacity:1.0000000" />
          <path
             sodipodi:nodetypes="csscsc"
             id="path12870"
             d="M 187.37373,222.95149 C 184.45376,219.47453 184.26615,213.46783 187.94077,209.10063 C 190.02740,206.62072 193.50556,205.56733 195.33474,205.51621 C 199.39127,205.40284 299.72046,205.50321 302.95376,206.35821 C 303.47169,209.01621 199.26881,209.35328 194.89765,212.45123 C 189.57431,216.22403 188.74172,220.42040 187.37373,222.95149 z "
             style="fill:url(#linearGradient13168);fill-opacity:1.0000000;fill-rule:evenodd;stroke:none;stroke-width:1.0000000px;stroke-linecap:butt;stroke-linejoin:miter;stroke-opacity:1.0000000" />
          <path
             sodipodi:nodetypes="csscsc"
             id="path12872"
             d="M 187.37373,222.95149 C 184.45376,219.47453 184.26615,213.46783 187.94077,209.10063 C 190.02740,206.62072 193.50556,205.56733 195.33474,205.51621 C 199.39127,205.40284 204.13242,204.81922 207.36573,205.67421 C 207.88365,208.33222 199.26881,209.35328 194.89765,212.45123 C 189.57431,216.22403 188.74172,220.42040 187.37373,222.95149 z "
             style="fill:url(#linearGradient13170);fill-opacity:1.0000000;fill-rule:evenodd;stroke:none;stroke-width:1.0000000px;stroke-linecap:butt;stroke-linejoin:miter;stroke-opacity:1.0000000" />
          <path
             id="path12874"
             d="M 196.24126,206.20820 C 192.49599,206.12292 188.99004,208.06631 187.09126,211.29571 C 185.19248,214.52510 185.19575,218.53939 187.09126,221.77070 C 187.33841,222.19203 187.61769,222.58205 187.91626,222.95820 C 189.90761,225.46697 192.97175,226.94158 196.22876,226.87070 L 322.17876,226.90820 C 325.45592,226.98119 328.54975,225.49448 330.54126,222.95820 C 330.82576,222.59588 331.09162,222.21200 331.32876,221.80820 C 333.22593,218.57784 333.22593,214.57607 331.32876,211.34570 C 329.43161,208.11534 325.92410,206.17479 322.17876,206.25821 L 196.24126,206.20820 z "
             style="fill:url(#radialGradient13172);fill-opacity:1.0000000;fill-rule:evenodd;stroke:none;stroke-width:61.790390;stroke-linecap:round;stroke-linejoin:miter;stroke-miterlimit:4.0000000;stroke-opacity:1.0000000" />
        </g>
        <g
           transform="matrix(1.122110,0.000000,0.000000,1.122110,-0.918665,-4.408830)"
           id="g13029">
          <path
             sodipodi:nodetypes="ccc"
             id="path13031"
             d="M 13.754452,216.67097 L 140.17103,216.71606 L 140.17103,216.71606"
             style="fill:none;fill-opacity:0.75000000;fill-rule:evenodd;stroke:#000000;stroke-width:24.716156;stroke-linecap:round;stroke-linejoin:miter;stroke-miterlimit:4.0000000;stroke-opacity:1.0000000" />
          <path
             id="path13033"
             d="M 14.020372,206.25270 C 10.275102,206.16742 6.7691520,208.11081 4.8703720,211.34021 C 2.9715920,214.56960 2.9748620,218.58389 4.8703720,221.81520 C 5.1175220,222.23653 5.3968020,222.62655 5.6953720,223.00270 C 7.6867220,225.51147 10.750862,226.98608 14.007872,226.91520 L 139.95787,226.95270 C 143.23503,227.02569 146.32886,225.53898 148.32037,223.00270 C 148.60487,222.64038 148.87073,222.25650 149.10787,221.85270 C 151.00504,218.62234 151.00504,214.62057 149.10787,211.39020 C 147.21072,208.15984 143.70321,206.21929 139.95787,206.30271 L 14.020372,206.25270 z "
             style="fill:url(#radialGradient13174);fill-opacity:1.0000000;fill-rule:evenodd;stroke:none;stroke-width:61.790390;stroke-linecap:round;stroke-linejoin:miter;stroke-miterlimit:4.0000000;stroke-opacity:1.0000000" />
          <path
             sodipodi:nodetypes="csscsc"
             id="path13035"
             d="M 5.1528420,222.99599 C 2.2328720,219.51903 2.0452620,213.51233 5.7198820,209.14513 C 7.8065120,206.66522 11.284672,205.61183 13.113852,205.56071 C 17.170382,205.44734 117.49957,205.54771 120.73287,206.40271 C 121.25080,209.06071 17.047922,209.39778 12.676762,212.49573 C 7.3534220,216.26853 6.5208320,220.46490 5.1528420,222.99599 z "
             style="fill:url(#linearGradient13176);fill-opacity:1.0000000;fill-rule:evenodd;stroke:none;stroke-width:1.0000000px;stroke-linecap:butt;stroke-linejoin:miter;stroke-opacity:1.0000000" />
          <path
             sodipodi:nodetypes="csscsc"
             id="path13037"
             d="M 5.1528420,222.99599 C 2.2328720,219.51903 2.0452620,213.51233 5.7198820,209.14513 C 7.8065120,206.66522 11.284672,205.61183 13.113852,205.56071 C 17.170382,205.44734 21.911532,204.86372 25.144842,205.71871 C 25.662762,208.37672 17.047922,209.39778 12.676762,212.49573 C 7.3534220,216.26853 6.5208320,220.46490 5.1528420,222.99599 z "
             style="fill:url(#linearGradient13178);fill-opacity:1.0000000;fill-rule:evenodd;stroke:none;stroke-width:1.0000000px;stroke-linecap:butt;stroke-linejoin:miter;stroke-opacity:1.0000000" />
          <path
             id="path13039"
             d="M 14.020372,206.25270 C 10.275102,206.16742 6.7691520,208.11081 4.8703720,211.34021 C 2.9715920,214.56960 2.9748620,218.58389 4.8703720,221.81520 C 5.1175220,222.23653 5.3968020,222.62655 5.6953720,223.00270 C 7.6867220,225.51147 10.750862,226.98608 14.007872,226.91520 L 139.95787,226.95270 C 143.23503,227.02569 146.32886,225.53898 148.32037,223.00270 C 148.60487,222.64038 148.87073,222.25650 149.10787,221.85270 C 151.00504,218.62234 151.00504,214.62057 149.10787,211.39020 C 147.21072,208.15984 143.70321,206.21929 139.95787,206.30271 L 14.020372,206.25270 z "
             style="fill:url(#radialGradient13180);fill-opacity:1.0000000;fill-rule:evenodd;stroke:none;stroke-width:61.790390;stroke-linecap:round;stroke-linejoin:miter;stroke-miterlimit:4.0000000;stroke-opacity:1.0000000" />
        </g>
        <g
           transform="matrix(1.122110,0.000000,0.000000,1.122110,-0.918665,-4.358900)"
           id="g13041">
          <path
             sodipodi:nodetypes="ccc"
             id="path13043"
             d="M 195.97534,216.62647 L 322.39192,216.67156 L 322.39192,216.67156"
             style="fill:none;fill-opacity:0.75000000;fill-rule:evenodd;stroke:#000000;stroke-width:24.716156;stroke-linecap:round;stroke-linejoin:miter;stroke-miterlimit:4.0000000;stroke-opacity:1.0000000" />
          <path
             id="path13045"
             d="M 196.24126,206.20820 C 192.49599,206.12292 188.99004,208.06631 187.09126,211.29571 C 185.19248,214.52510 185.19575,218.53939 187.09126,221.77070 C 187.33841,222.19203 187.61769,222.58205 187.91626,222.95820 C 189.90761,225.46697 192.97175,226.94158 196.22876,226.87070 L 322.17876,226.90820 C 325.45592,226.98119 328.54975,225.49448 330.54126,222.95820 C 330.82576,222.59588 331.09162,222.21200 331.32876,221.80820 C 333.22593,218.57784 333.22593,214.57607 331.32876,211.34570 C 329.43161,208.11534 325.92410,206.17479 322.17876,206.25821 L 196.24126,206.20820 z "
             style="fill:url(#radialGradient13182);fill-opacity:1.0000000;fill-rule:evenodd;stroke:none;stroke-width:61.790390;stroke-linecap:round;stroke-linejoin:miter;stroke-miterlimit:4.0000000;stroke-opacity:1.0000000" />
          <path
             sodipodi:nodetypes="csscsc"
             id="path13047"
             d="M 187.37373,222.95149 C 184.45376,219.47453 184.26615,213.46783 187.94077,209.10063 C 190.02740,206.62072 193.50556,205.56733 195.33474,205.51621 C 199.39127,205.40284 299.72046,205.50321 302.95376,206.35821 C 303.47169,209.01621 199.26881,209.35328 194.89765,212.45123 C 189.57431,216.22403 188.74172,220.42040 187.37373,222.95149 z "
             style="fill:url(#linearGradient13184);fill-opacity:1.0000000;fill-rule:evenodd;stroke:none;stroke-width:1.0000000px;stroke-linecap:butt;stroke-linejoin:miter;stroke-opacity:1.0000000" />
          <path
             sodipodi:nodetypes="csscsc"
             id="path13049"
             d="M 187.37373,222.95149 C 184.45376,219.47453 184.26615,213.46783 187.94077,209.10063 C 190.02740,206.62072 193.50556,205.56733 195.33474,205.51621 C 199.39127,205.40284 204.13242,204.81922 207.36573,205.67421 C 207.88365,208.33222 199.26881,209.35328 194.89765,212.45123 C 189.57431,216.22403 188.74172,220.42040 187.37373,222.95149 z "
             style="fill:url(#linearGradient13186);fill-opacity:1.0000000;fill-rule:evenodd;stroke:none;stroke-width:1.0000000px;stroke-linecap:butt;stroke-linejoin:miter;stroke-opacity:1.0000000" />
          <path
             id="path13051"
             d="M 196.24126,206.20820 C 192.49599,206.12292 188.99004,208.06631 187.09126,211.29571 C 185.19248,214.52510 185.19575,218.53939 187.09126,221.77070 C 187.33841,222.19203 187.61769,222.58205 187.91626,222.95820 C 189.90761,225.46697 192.97175,226.94158 196.22876,226.87070 L 322.17876,226.90820 C 325.45592,226.98119 328.54975,225.49448 330.54126,222.95820 C 330.82576,222.59588 331.09162,222.21200 331.32876,221.80820 C 333.22593,218.57784 333.22593,214.57607 331.32876,211.34570 C 329.43161,208.11534 325.92410,206.17479 322.17876,206.25821 L 196.24126,206.20820 z "
             style="fill:url(#radialGradient13188);fill-opacity:1.0000000;fill-rule:evenodd;stroke:none;stroke-width:61.790390;stroke-linecap:round;stroke-linejoin:miter;stroke-miterlimit:4.0000000;stroke-opacity:1.0000000" />
        </g>
      </g>
    </g>
  </g>
</svg>
