<?xml version="1.0" encoding="UTF-8" standalone="no"?>
<!DOCTYPE svg PUBLIC "-//W3C//DTD SVG 20010904//EN"
"http://www.w3.org/TR/2001/REC-SVG-20010904/DTD/svg10.dtd">
<!-- Created with Inkscape (http://www.inkscape.org/) -->
<svg
   width="64pt"
   height="64pt"
   xmlns="http://www.w3.org/2000/svg"
   xmlns:cc="http://web.resource.org/cc/"
   xmlns:inkscape="http://www.inkscape.org/namespaces/inkscape"
   xmlns:sodipodi="http://sodipodi.sourceforge.net/DTD/sodipodi-0.dtd"
   xmlns:rdf="http://www.w3.org/1999/02/22-rdf-syntax-ns#"
   xmlns:dc="http://purl.org/dc/elements/1.1/"
   xmlns:xlink="http://www.w3.org/1999/xlink"
   id="svg10374"
   sodipodi:version="0.32"
   inkscape:version="0.40"
   sodipodi:docbase="/home/nuno/kdeplayground-artwork/oooicons/crystalsvg"
   sodipodi:docname="macro_play.svg"
   inkscape:export-filename="/home/nuno/kdeplayground-artwork/oooicons/crystalsvg/macro.png"
   inkscape:export-xdpi="36.000000"
   inkscape:export-ydpi="36.000000">
  <defs
     id="defs3">
    <radialGradient
       inkscape:collect="always"
       xlink:href="#light100to0"
       id="radialGradient13384"
       gradientUnits="userSpaceOnUse"
       gradientTransform="scale(1.074103,0.931010)"
       cx="21.205753"
       cy="15.237720"
       fx="21.205753"
       fy="15.237720"
       r="8.9534454" />
    <linearGradient
       inkscape:collect="always"
       xlink:href="#light100to0"
       id="linearGradient13383"
       gradientUnits="userSpaceOnUse"
       gradientTransform="matrix(1.159567,0.000000,0.000000,0.769511,-2.795118e-14,-1.319881)"
       x1="6.6685014"
       y1="-15.417482"
       x2="16.390970"
       y2="5.9813881" />
    <linearGradient
       id="linearGradient2485">
      <stop
         offset="0.0000000"
         style="stop-color:#00ad01;stop-opacity:1.0000000;"
         id="stop2487" />
      <stop
         offset="1.0000000"
         style="stop-color:#15720f;stop-opacity:1.0000000;"
         id="stop2486" />
    </linearGradient>
    <linearGradient
       inkscape:collect="always"
       xlink:href="#linearGradient2485"
       id="linearGradient13382"
       gradientUnits="userSpaceOnUse"
       gradientTransform="scale(1.074103,0.931010)"
       x1="-8.4368658"
       y1="0.48822832"
       x2="22.428869"
       y2="0.48822832" />
    <linearGradient
       id="linearGradient2492">
      <stop
         offset="0.0000000"
         style="stop-color:#00ff01;stop-opacity:1.0000000;"
         id="stop2494" />
      <stop
         offset="1.0000000"
         style="stop-color:#15980f;stop-opacity:1.0000000;"
         id="stop2493" />
    </linearGradient>
    <linearGradient
       inkscape:collect="always"
       xlink:href="#linearGradient2492"
       id="linearGradient13381"
       gradientUnits="userSpaceOnUse"
       gradientTransform="scale(1.069355,0.935143)"
       x1="-7.2203331"
       y1="19.782690"
       x2="5.9237280"
       y2="-1.9738388" />
    <linearGradient
       id="light100to0">
      <stop
         style="stop-color:#ffffff;stop-opacity:1.0000000;"
         offset="0.0000000"
         id="stop2764" />
      <stop
         style="stop-color:#ffffff;stop-opacity:0.0000000;"
         offset="1.0000000"
         id="stop2765" />
    </linearGradient>
    <linearGradient
       id="light90to0">
      <stop
         style="stop-color:#ffffff;stop-opacity:0.90833336;"
         offset="0.0000000"
         id="stop1890" />
      <stop
         style="stop-color:#ffffff;stop-opacity:0.0000000;"
         offset="1.0000000"
         id="stop1892" />
    </linearGradient>
    <radialGradient
       inkscape:collect="always"
       xlink:href="#light90to0"
       id="radialGradient7884"
       gradientTransform="matrix(1.911253,-1.291865,0.242750,0.359137,-46.76720,46.30380)"
       cx="22.632607"
       cy="229.54446"
       fx="22.632607"
       fy="229.54446"
       r="4.9263444"
       gradientUnits="userSpaceOnUse" />
    <linearGradient
       id="shadow25tolineto0">
      <stop
         style="stop-color:#000000;stop-opacity:0.0000000;"
         offset="0.0000000"
         id="stop3442" />
      <stop
         style="stop-color:#000000;stop-opacity:0.029166667;"
         offset="0.45393065"
         id="stop3450" />
      <stop
         style="stop-color:#000000;stop-opacity:0.37083334;"
         offset="0.50000000"
         id="stop3449" />
      <stop
         style="stop-color:#000000;stop-opacity:0.062745102;"
         offset="0.53497112"
         id="stop3451" />
      <stop
         style="stop-color:#000000;stop-opacity:0.0000000;"
         offset="1.0000000"
         id="stop3444" />
    </linearGradient>
    <radialGradient
       inkscape:collect="always"
       xlink:href="#shadow25tolineto0"
       id="radialGradient5383"
       gradientUnits="userSpaceOnUse"
       gradientTransform="scale(1.005797,0.994236)"
       cx="71.053551"
       cy="128.41919"
       fx="71.053551"
       fy="128.41919"
       r="70.683800" />
    <linearGradient
       id="redtodarkred">
      <stop
         style="stop-color:#ff0000;stop-opacity:1.0000000;"
         offset="0.0000000"
         id="stop3856" />
      <stop
         style="stop-color:#920000;stop-opacity:1.0000000;"
         offset="1.0000000"
         id="stop3855" />
    </linearGradient>
    <linearGradient
       inkscape:collect="always"
       xlink:href="#redtodarkred"
       id="linearGradient2267"
       gradientTransform="scale(1.005797,0.994236)"
       x1="64.947220"
       y1="160.90338"
       x2="64.947220"
       y2="119.14684"
       gradientUnits="userSpaceOnUse" />
    <linearGradient
       inkscape:collect="always"
       xlink:href="#light100to0"
       id="linearGradient12934"
       gradientTransform="scale(1.264051,0.791107)"
       x1="31.702875"
       y1="120.10879"
       x2="87.857361"
       y2="147.32204"
       gradientUnits="userSpaceOnUse" />
  </defs>
  <sodipodi:namedview
     id="base"
     pagecolor="#ffffff"
     bordercolor="#666666"
     borderopacity="1.0"
     inkscape:pageopacity="0.0"
     inkscape:pageshadow="2"
     inkscape:zoom="5.5000000"
     inkscape:cx="32.000000"
     inkscape:cy="24.727273"
     inkscape:current-layer="layer1"
     showgrid="true"
     inkscape:grid-bbox="true"
     gridspacingy="1.0000000pt"
     gridspacingx="1.0000000pt"
     gridoriginy="0.0000000pt"
     gridoriginx="0.0000000pt"
     inkscape:window-width="640"
     inkscape:window-height="538"
     inkscape:window-x="0"
     inkscape:window-y="393" />
  <metadata
     id="metadata4">
    <rdf:RDF
       id="RDF5">
      <cc:Work
         rdf:about=""
         id="Work6">
        <dc:format
           id="format7">image/svg+xml</dc:format>
        <dc:type
           id="type9"
           rdf:resource="http://purl.org/dc/dcmitype/StillImage" />
      </cc:Work>
    </rdf:RDF>
  </metadata>
  <g
     id="layer1"
     inkscape:label="Layer 1"
     inkscape:groupmode="layer">
    <path
       transform="matrix(1.047271,0.000000,0.000000,1.061647,-34.61609,-95.23831)"
       style="fill:none;fill-opacity:1.0000000;stroke:#000000;stroke-width:2.2859330;stroke-linecap:butt;stroke-linejoin:round;stroke-miterlimit:4.0000000;stroke-dashoffset:0.0000000;stroke-opacity:0.032104615;"
       d="M 106.66867,127.46354 C 106.66867,146.79093 90.800285,162.47692 71.248161,162.47692 C 51.696038,162.47692 35.827648,146.79093 35.827648,127.46354 C 35.827648,108.13615 51.696038,92.450157 71.248161,92.450157 C 90.800285,92.450157 106.66867,108.13615 106.66867,127.46354 z "
       id="path10373" />
    <path
       transform="matrix(1.047271,0.000000,0.000000,1.061647,-34.61609,-95.23831)"
       style="fill:none;fill-opacity:1.0000000;stroke:#000000;stroke-width:2.7828751;stroke-linecap:butt;stroke-linejoin:round;stroke-miterlimit:4.0000000;stroke-dashoffset:0.0000000;stroke-opacity:0.032104615;"
       d="M 106.66867,127.46354 C 106.66867,146.79093 90.800285,162.47692 71.248161,162.47692 C 51.696038,162.47692 35.827648,146.79093 35.827648,127.46354 C 35.827648,108.13615 51.696038,92.450157 71.248161,92.450157 C 90.800285,92.450157 106.66867,108.13615 106.66867,127.46354 z "
       id="path10372" />
    <path
       transform="matrix(1.047271,0.000000,0.000000,1.061647,-34.61609,-95.23831)"
       style="fill:none;fill-opacity:1.0000000;stroke:#000000;stroke-width:3.9009945;stroke-linecap:butt;stroke-linejoin:round;stroke-miterlimit:4.0000000;stroke-dashoffset:0.0000000;stroke-opacity:0.032104615;"
       d="M 106.66867,127.46354 C 106.66867,146.79093 90.800285,162.47692 71.248161,162.47692 C 51.696038,162.47692 35.827648,146.79093 35.827648,127.46354 C 35.827648,108.13615 51.696038,92.450157 71.248161,92.450157 C 90.800285,92.450157 106.66867,108.13615 106.66867,127.46354 z "
       id="path10371" />
    <path
       transform="matrix(1.047271,0.000000,0.000000,1.061647,-34.61609,-95.23831)"
       style="fill:none;fill-opacity:1.0000000;stroke:#000000;stroke-width:4.7706428;stroke-linecap:butt;stroke-linejoin:round;stroke-miterlimit:4.0000000;stroke-dashoffset:0.0000000;stroke-opacity:0.032104615;"
       d="M 106.66867,127.46354 C 106.66867,146.79093 90.800285,162.47692 71.248161,162.47692 C 51.696038,162.47692 35.827648,146.79093 35.827648,127.46354 C 35.827648,108.13615 51.696038,92.450157 71.248161,92.450157 C 90.800285,92.450157 106.66867,108.13615 106.66867,127.46354 z "
       id="path10370" />
    <path
       transform="matrix(1.047271,0.000000,0.000000,1.061647,-34.61609,-95.23831)"
       style="fill:none;fill-opacity:1.0000000;stroke:#000000;stroke-width:5.5160561;stroke-linecap:butt;stroke-linejoin:round;stroke-miterlimit:4.0000000;stroke-dashoffset:0.0000000;stroke-opacity:0.086801417;"
       d="M 106.66867,127.46354 C 106.66867,146.79093 90.800285,162.47692 71.248161,162.47692 C 51.696038,162.47692 35.827648,146.79093 35.827648,127.46354 C 35.827648,108.13615 51.696038,92.450157 71.248161,92.450157 C 90.800285,92.450157 106.66867,108.13615 106.66867,127.46354 z "
       id="path9748" />
    <path
       transform="matrix(1.047270,0.000000,0.000000,1.061647,-34.61604,-95.23833)"
       style="fill:url(#linearGradient2267);fill-opacity:1.0000000;stroke:none;stroke-width:3.7744884;stroke-linecap:butt;stroke-linejoin:round;stroke-miterlimit:4.0000000;stroke-dashoffset:0.0000000;stroke-opacity:1.0000000;"
       d="M 106.66867,127.46354 C 106.66867,146.79093 90.800285,162.47692 71.248161,162.47692 C 51.696038,162.47692 35.827648,146.79093 35.827648,127.46354 C 35.827648,108.13615 51.696038,92.450157 71.248161,92.450157 C 90.800285,92.450157 106.66867,108.13615 106.66867,127.46354 z "
       id="path1641" />
    <path
       transform="matrix(1.047271,0.000000,0.000000,1.061647,-34.61609,-95.23831)"
       style="fill:url(#radialGradient5383);fill-opacity:1.0000000;stroke:#150000;stroke-width:1.5405201;stroke-linecap:butt;stroke-linejoin:round;stroke-miterlimit:4.0000000;stroke-dashoffset:0.0000000;stroke-opacity:0.71462542;"
       d="M 106.66867,127.46354 C 106.66867,146.79093 90.800285,162.47692 71.248161,162.47692 C 51.696038,162.47692 35.827648,146.79093 35.827648,127.46354 C 35.827648,108.13615 51.696038,92.450157 71.248161,92.450157 C 90.800285,92.450157 106.66867,108.13615 106.66867,127.46354 z "
       id="path2891" />
    <path
       style="fill:url(#radialGradient7884);fill-opacity:1.0000000;fill-rule:evenodd;stroke:none;stroke-width:0.25000000pt;stroke-linecap:butt;stroke-linejoin:miter;stroke-opacity:1.0000000;"
       d="M 60.989911,93.587177 C 59.421220,93.991720 55.166693,94.831047 52.651517,96.429233 C 50.136341,98.027419 47.803327,99.879036 46.243702,101.39330 C 44.684076,102.90757 43.473705,104.28074 42.985120,105.31731 C 42.496535,106.35388 44.066709,107.03407 45.191972,106.09993 C 46.317235,105.16579 47.604111,103.39788 48.927980,102.28284 C 50.251850,101.16779 52.410674,99.532310 54.222191,98.510126 C 56.033708,97.487942 57.628450,96.759176 59.340671,96.161333 C 61.052892,95.563491 62.406562,94.470637 61.874496,93.786165 C 61.342431,93.101693 62.558602,93.182634 60.989911,93.587177 z "
       id="path6009"
       sodipodi:nodetypes="czzzzzzzzz"
       transform="matrix(1.046899,0.000000,0.000000,1.049073,-34.18966,-93.11621)" />
    <path
       transform="matrix(1.026428,0.000000,0.000000,1.040521,-33.13109,-92.54545)"
       style="fill:url(#linearGradient12934);fill-opacity:1.0;stroke:none;stroke-width:3.7744884;stroke-linecap:butt;stroke-linejoin:round;stroke-miterlimit:4.0000000;stroke-dashoffset:0.0000000;stroke-opacity:1.0000000;"
       d="M 103.85762,126.27710 C 103.95775,132.85220 85.262112,122.59507 71.078878,131.32513 C 59.794667,138.27080 37.874613,137.29316 37.874613,126.27710 C 37.874613,108.06576 53.041330,94.431780 71.252640,94.431780 C 89.463952,94.431780 103.27083,108.10066 103.85762,126.27710 z "
       id="path4757"
       sodipodi:nodetypes="ccccc" />
    <g
       id="g3750"
       transform="matrix(0.000000,1.213652,1.226335,0.000000,60.04509,32.87282)">
      <path
         sodipodi:type="star"
         style="fill:url(#linearGradient13381);fill-opacity:1.0000000;stroke:url(#linearGradient13382);stroke-width:2.0374999;stroke-linecap:round;stroke-linejoin:round;stroke-miterlimit:4.0000000;stroke-dashoffset:0.0000000;stroke-opacity:1.0000000"
         id="path2480"
         sodipodi:sides="3"
         sodipodi:cx="7.5000000"
         sodipodi:cy="5.2272725"
         sodipodi:r1="19.140898"
         sodipodi:r2="0.87918210"
         sodipodi:arg1="0.52209161"
         sodipodi:arg2="1.5692892"
         inkscape:flatsided="true"
         inkscape:rounded="0.0000000"
         inkscape:randomized="0.0000000"
         d="M 24.090909,14.772727 L -9.0620606,14.822694 L 7.4711515,-13.913604 L 24.090909,14.772727 z "
         transform="matrix(1.000000,0.000000,0.000000,-0.892299,12.81206,1.880261)" />
      <g
         id="g3745">
        <path
           style="fill:url(#linearGradient13383);fill-opacity:1.0000000;fill-rule:evenodd;stroke:none;stroke-width:0.25000000pt;stroke-linecap:butt;stroke-linejoin:miter;stroke-opacity:1.0000000"
           d="M 5.0503133,-11.038889 L 27.840909,-10.952654 C 25.662879,-7.1840425 17.689394,-8.4853118 15.880682,-5.4518333 C 14.071970,-2.4183547 17.746212,2.3135338 14.090909,3.7500000 L 5.0503133,-11.038889 z "
           id="path2495"
           sodipodi:nodetypes="ccscc" />
        <path
           sodipodi:type="star"
           style="fill:url(#radialGradient13384);fill-opacity:1.0000000;stroke:none;stroke-width:2.0374999;stroke-linecap:round;stroke-linejoin:round;stroke-miterlimit:4.0000000;stroke-dashoffset:0.0000000;stroke-opacity:1.0000000"
           id="path3121"
           sodipodi:sides="3"
           sodipodi:cx="7.5000000"
           sodipodi:cy="5.2272725"
           sodipodi:r1="19.140898"
           sodipodi:r2="0.87918210"
           sodipodi:arg1="0.52209161"
           sodipodi:arg2="1.5692892"
           inkscape:flatsided="true"
           inkscape:rounded="0.0000000"
           inkscape:randomized="0.0000000"
           d="M 24.090909,14.772727 L -9.0620606,14.822694 L 7.4711515,-13.913604 L 24.090909,14.772727 z "
           transform="matrix(1.000000,0.000000,0.000000,-0.892299,12.21117,2.338927)" />
      </g>
    </g>
  </g>
</svg>
