<?xml version="1.0" encoding="UTF-8" standalone="no"?>
<!DOCTYPE svg PUBLIC "-//W3C//DTD SVG 20010904//EN"
"http://www.w3.org/TR/2001/REC-SVG-20010904/DTD/svg10.dtd">
<!-- Created with Inkscape (http://www.inkscape.org/) -->
<svg
   width="64pt"
   height="64pt"
   id="svg7354"
   sodipodi:version="0.32"
   inkscape:version="0.40"
   sodipodi:docbase="/home/nuno/kdeplayground-artwork/oooicons/crystalsvg"
   sodipodi:docname="new_sheet.svg"
   inkscape:export-filename="/home/nuno/kdeplayground-artwork/oooicons/crystalsvg/new_sheet.png"
   inkscape:export-xdpi="18.000000"
   inkscape:export-ydpi="18.000000"
   xmlns="http://www.w3.org/2000/svg"
   xmlns:cc="http://web.resource.org/cc/"
   xmlns:inkscape="http://www.inkscape.org/namespaces/inkscape"
   xmlns:sodipodi="http://sodipodi.sourceforge.net/DTD/sodipodi-0.dtd"
   xmlns:rdf="http://www.w3.org/1999/02/22-rdf-syntax-ns#"
   xmlns:dc="http://purl.org/dc/elements/1.1/"
   xmlns:xlink="http://www.w3.org/1999/xlink">
  <defs
     id="defs3">
    <linearGradient
       inkscape:collect="always"
       xlink:href="#graytolightgray"
       id="linearGradient3195"
       gradientUnits="userSpaceOnUse"
       gradientTransform="matrix(1.052970,0.000000,0.000000,0.791291,-3.567842,3.415969)"
       x1="57.453247"
       y1="65.521439"
       x2="8.0769463"
       y2="17.892019" />
    <linearGradient
       inkscape:collect="always"
       xlink:href="#garylighttowite"
       id="linearGradient3196"
       gradientUnits="userSpaceOnUse"
       gradientTransform="matrix(1.449779,0.000000,0.000000,1.220386,-13.27863,-1.067319)"
       x1="58.493671"
       y1="51.058720"
       x2="9.8675079"
       y2="8.7825632" />
    <linearGradient
       inkscape:collect="always"
       xlink:href="#garylighttowite"
       id="linearGradient3197"
       gradientUnits="userSpaceOnUse"
       gradientTransform="matrix(1.449779,0.000000,0.000000,1.220386,-13.27863,-1.067319)"
       x1="60.118301"
       y1="60.763058"
       x2="22.065891"
       y2="17.787029" />
    <linearGradient
       inkscape:collect="always"
       xlink:href="#garylighttowite"
       id="linearGradient10837"
       gradientUnits="userSpaceOnUse"
       gradientTransform="matrix(0.942469,0.000000,0.000000,0.725710,-0.249623,0.308145)"
       x1="14.699177"
       y1="30.518322"
       x2="-0.95806932"
       y2="6.8631005" />
    <linearGradient
       inkscape:collect="always"
       xlink:href="#bluelightlesstoblue"
       id="linearGradient10836"
       gradientUnits="userSpaceOnUse"
       gradientTransform="matrix(1.378754,0.000000,0.000000,1.061617,0.595336,23.96043)"
       x1="2.4107552"
       y1="-9.3231096"
       x2="30.756163"
       y2="17.801140" />
    <linearGradient
       inkscape:collect="always"
       xlink:href="#light75to0"
       id="linearGradient10835"
       gradientUnits="userSpaceOnUse"
       gradientTransform="matrix(1.037280,0.000000,0.000000,0.732437,-0.586427,-1.325240)"
       x1="5.6831765"
       y1="21.673885"
       x2="14.964557"
       y2="41.796101" />
    <linearGradient
       inkscape:collect="always"
       xlink:href="#garylighttowite"
       id="linearGradient10834"
       gradientUnits="userSpaceOnUse"
       gradientTransform="matrix(1.443945,0.000000,0.000000,0.725710,12.67773,0.287639)"
       x1="14.699177"
       y1="30.518322"
       x2="-0.95806932"
       y2="6.8631005" />
    <linearGradient
       inkscape:collect="always"
       xlink:href="#bluelightlesstoblue"
       id="linearGradient10833"
       gradientUnits="userSpaceOnUse"
       gradientTransform="matrix(1.706587,0.000000,0.000000,0.857680,0.595336,23.96043)"
       x1="10.626847"
       y1="-12.486367"
       x2="30.964518"
       y2="12.172108" />
    <linearGradient
       inkscape:collect="always"
       xlink:href="#light75to0"
       id="linearGradient10832"
       gradientUnits="userSpaceOnUse"
       gradientTransform="matrix(1.589202,0.000000,0.000000,0.732437,12.16171,-1.345736)"
       x1="5.6831765"
       y1="21.673885"
       x2="14.964557"
       y2="41.796101" />
    <linearGradient
       inkscape:collect="always"
       xlink:href="#garylighttowite"
       id="linearGradient10831"
       gradientUnits="userSpaceOnUse"
       gradientTransform="matrix(1.454251,0.000000,0.000000,0.725991,35.11943,0.133080)"
       x1="14.699177"
       y1="30.518322"
       x2="-0.95806932"
       y2="6.8631005" />
    <radialGradient
       cx="38.797401"
       cy="112.96090"
       r="67.358803"
       fx="38.797401"
       fy="112.96090"
       id="bluelightlesstoblue"
       gradientUnits="userSpaceOnUse">
      <stop
         style="stop-color:#d9ffff;stop-opacity:1.0000000;"
         offset="0.0055999998"
         id="stop3468" />
      <stop
         style="stop-color:#6eaafe;stop-opacity:1.0000000;"
         offset="0.24089479"
         id="stop3469" />
      <stop
         style="stop-color:#0356fe;stop-opacity:1.0000000;"
         offset="1.0000000"
         id="stop3470" />
    </radialGradient>
    <linearGradient
       inkscape:collect="always"
       xlink:href="#bluelightlesstoblue"
       id="linearGradient10830"
       gradientUnits="userSpaceOnUse"
       gradientTransform="matrix(1.718771,0.000000,0.000000,0.858016,1.359686e-2,23.79670)"
       x1="24.260241"
       y1="-11.936115"
       x2="37.231518"
       y2="3.0705032" />
    <linearGradient
       inkscape:collect="always"
       xlink:href="#light75to0"
       id="linearGradient10829"
       gradientUnits="userSpaceOnUse"
       gradientTransform="matrix(1.643484,0.000000,0.000000,0.732394,34.43022,-1.176146)"
       x1="5.6831765"
       y1="21.673885"
       x2="14.964557"
       y2="41.796101" />
    <linearGradient
       inkscape:collect="always"
       xlink:href="#garylighttowite"
       id="linearGradient3215"
       gradientUnits="userSpaceOnUse"
       gradientTransform="matrix(0.942469,0.000000,0.000000,0.725710,-0.251753,11.72362)"
       x1="14.699177"
       y1="30.518322"
       x2="-0.95806932"
       y2="6.8631005" />
    <linearGradient
       inkscape:collect="always"
       xlink:href="#garylighttowite"
       id="linearGradient3214"
       gradientUnits="userSpaceOnUse"
       gradientTransform="matrix(0.942485,0.000000,0.000000,0.725698,-0.251753,11.72362)"
       x1="22.979046"
       y1="53.585712"
       x2="6.4564261"
       y2="20.178543" />
    <linearGradient
       inkscape:collect="always"
       xlink:href="#light75to0"
       id="linearGradient3216"
       gradientUnits="userSpaceOnUse"
       gradientTransform="matrix(1.037280,0.000000,0.000000,0.732437,-0.588666,10.09022)"
       x1="5.6831765"
       y1="21.673885"
       x2="14.964557"
       y2="41.796101" />
    <radialGradient
       inkscape:collect="always"
       xlink:href="#light75to0"
       id="radialGradient3217"
       gradientUnits="userSpaceOnUse"
       gradientTransform="matrix(0.939263,0.000000,0.000000,0.722800,0.195879,11.90717)"
       cx="17.741598"
       cy="31.723280"
       fx="17.741598"
       fy="31.723280"
       r="9.2936869" />
    <linearGradient
       inkscape:collect="always"
       xlink:href="#garylighttowite"
       id="linearGradient3219"
       gradientUnits="userSpaceOnUse"
       gradientTransform="matrix(0.942469,0.000000,0.000000,0.725710,-0.251753,23.12291)"
       x1="14.699177"
       y1="30.518322"
       x2="-0.95806932"
       y2="6.8631005" />
    <linearGradient
       inkscape:collect="always"
       xlink:href="#garylighttowite"
       id="linearGradient3218"
       gradientUnits="userSpaceOnUse"
       gradientTransform="matrix(0.942485,0.000000,0.000000,0.725698,-0.251753,23.12291)"
       x1="22.979046"
       y1="53.585712"
       x2="6.4564261"
       y2="20.178543" />
    <linearGradient
       inkscape:collect="always"
       xlink:href="#light75to0"
       id="linearGradient3220"
       gradientUnits="userSpaceOnUse"
       gradientTransform="matrix(1.037280,0.000000,0.000000,0.732437,-0.588666,21.48952)"
       x1="5.6831765"
       y1="21.673885"
       x2="14.964557"
       y2="41.796101" />
    <radialGradient
       inkscape:collect="always"
       xlink:href="#light75to0"
       id="radialGradient3221"
       gradientUnits="userSpaceOnUse"
       gradientTransform="matrix(0.939263,0.000000,0.000000,0.722800,-0.225283,23.01974)"
       cx="17.741598"
       cy="31.723280"
       fx="17.741598"
       fy="31.723280"
       r="9.2936869" />
    <linearGradient
       inkscape:collect="always"
       xlink:href="#light75to0"
       id="linearGradient3235"
       gradientUnits="userSpaceOnUse"
       gradientTransform="matrix(0.952525,0.000000,0.000000,0.766073,0.724176,5.440763)"
       x1="30.042496"
       y1="42.424618"
       x2="-8.4488506"
       y2="21.978251" />
    <linearGradient
       inkscape:collect="always"
       xlink:href="#garylighttowite"
       id="linearGradient13332"
       gradientUnits="userSpaceOnUse"
       gradientTransform="matrix(0.943156,0.000000,0.000000,0.735477,-0.517816,34.17144)"
       x1="14.699177"
       y1="30.518322"
       x2="-0.95806932"
       y2="6.8631005" />
    <linearGradient
       inkscape:collect="always"
       xlink:href="#garylighttowite"
       id="linearGradient13331"
       gradientUnits="userSpaceOnUse"
       gradientTransform="matrix(0.943172,0.000000,0.000000,0.735467,-0.517816,34.17144)"
       x1="22.979046"
       y1="53.585712"
       x2="6.4564261"
       y2="20.178543" />
    <linearGradient
       inkscape:collect="always"
       xlink:href="#light75to0"
       id="linearGradient13333"
       gradientUnits="userSpaceOnUse"
       gradientTransform="matrix(1.038034,0.000000,0.000000,0.742297,-0.854990,32.51604)"
       x1="5.6831765"
       y1="21.673885"
       x2="14.964557"
       y2="41.796101" />
    <radialGradient
       inkscape:collect="always"
       xlink:href="#light75to0"
       id="radialGradient13334"
       gradientUnits="userSpaceOnUse"
       gradientTransform="matrix(0.939947,0.000000,0.000000,0.732526,-0.658401,33.91383)"
       cx="17.741598"
       cy="31.723280"
       fx="17.741598"
       fy="31.723280"
       r="9.2936869" />
    <radialGradient
       cx="38.797401"
       cy="112.96090"
       r="67.358803"
       fx="38.797401"
       fy="112.96090"
       id="blueligtmoretoblue"
       gradientUnits="userSpaceOnUse">
      <stop
         style="stop-color:#d9ffff;stop-opacity:1.0000000;"
         offset="0.0055999998"
         id="stop3457" />
      <stop
         style="stop-color:#6eaafe;stop-opacity:1.0000000;"
         offset="0.74217570"
         id="stop3465" />
      <stop
         style="stop-color:#0356fe;stop-opacity:1.0000000;"
         offset="1.0000000"
         id="stop3463" />
    </radialGradient>
    <linearGradient
       x1="-229.39058"
       y1="240.67248"
       x2="-203.84911"
       y2="240.67248"
       id="linearGradient3464"
       collect="always"
       xlink:href="#blueligtmoretoblue"
       gradientTransform="matrix(1.395481,0.000000,0.000000,0.716599,406.2332,-108.7997)"
       gradientUnits="userSpaceOnUse" />
    <linearGradient
       inkscape:collect="always"
       xlink:href="#graytolightgray"
       id="linearGradient3623"
       gradientUnits="userSpaceOnUse"
       x1="122.43015"
       y1="59.053604"
       x2="272.46765"
       y2="323.76923"
       gradientTransform="matrix(0.182431,0.000000,0.000000,0.213888,4.641008,0.357569)" />
    <radialGradient
       inkscape:collect="always"
       xlink:href="#XMLID_9_"
       id="radialGradient3622"
       gradientUnits="userSpaceOnUse"
       cx="74.4951"
       cy="81.1689"
       fx="74.4951"
       fy="81.1689"
       r="23.6936"
       gradientTransform="matrix(0.696376,0.000000,0.000000,0.816451,10.14487,4.039048)" />
    <linearGradient
       id="graytolightgray">
      <stop
         style="stop-color:#d4d3d3;stop-opacity:1.0000000;"
         offset="0.0000000"
         id="stop5101" />
      <stop
         style="stop-color:#ffffff;stop-opacity:1.0000000;"
         offset="1.0000000"
         id="stop5102" />
    </linearGradient>
    <linearGradient
       inkscape:collect="always"
       xlink:href="#graytolightgray"
       id="linearGradient3621"
       gradientUnits="userSpaceOnUse"
       x1="284.17496"
       y1="340.20792"
       x2="330.93881"
       y2="273.80606"
       gradientTransform="matrix(0.182431,0.000000,0.000000,0.213888,4.641008,0.357569)" />
    <linearGradient
       id="light75to0">
      <stop
         style="stop-color:#ffffff;stop-opacity:0.72916669;"
         offset="0.0000000"
         id="stop2769" />
      <stop
         style="stop-color:#ffffff;stop-opacity:0.0000000;"
         offset="1.0000000"
         id="stop2770" />
    </linearGradient>
    <radialGradient
       inkscape:collect="always"
       xlink:href="#light75to0"
       id="radialGradient6111"
       gradientTransform="matrix(0.222656,0.000000,0.000000,0.175247,4.641008,1.797000e-2)"
       cx="53.182602"
       cy="52.577991"
       fx="53.182602"
       fy="52.577991"
       r="508.29517"
       gradientUnits="userSpaceOnUse" />
    <linearGradient
       inkscape:collect="always"
       xlink:href="#garylighttowite"
       id="linearGradient3619"
       gradientUnits="userSpaceOnUse"
       x1="245.91402"
       y1="248.01839"
       x2="561.86395"
       y2="513.91156"
       gradientTransform="matrix(0.182431,0.000000,0.000000,0.213888,4.641008,0.357569)" />
    <linearGradient
       id="garylighttowite">
      <stop
         style="stop-color:#7d7d7d;stop-opacity:1.0000000;"
         offset="0.0000000"
         id="stop5106" />
      <stop
         style="stop-color:#d3d4d4;stop-opacity:1.0000000;"
         offset="1.0000000"
         id="stop5107" />
    </linearGradient>
    <linearGradient
       inkscape:collect="always"
       xlink:href="#garylighttowite"
       id="linearGradient3618"
       gradientUnits="userSpaceOnUse"
       x1="-37.332329"
       y1="-50.289883"
       x2="578.44397"
       y2="648.29797"
       gradientTransform="matrix(0.182431,0.000000,0.000000,0.213888,4.641008,0.357569)" />
    <radialGradient
       inkscape:collect="always"
       xlink:href="#XMLID_9_"
       id="radialGradient7426"
       gradientUnits="userSpaceOnUse"
       gradientTransform="matrix(0.696376,0.000000,0.000000,0.816451,10.14487,4.039048)"
       cx="74.4951"
       cy="81.1689"
       fx="74.4951"
       fy="81.1689"
       r="23.6936" />
    <radialGradient
       inkscape:collect="always"
       xlink:href="#light75to0"
       id="radialGradient1100"
       gradientUnits="userSpaceOnUse"
       gradientTransform="matrix(0.244309,0.000000,0.000000,0.174347,-74.71556,8.067566e-2)"
       cx="53.182602"
       cy="52.577991"
       fx="53.182602"
       fy="52.577991"
       r="508.29517" />
    <linearGradient
       inkscape:collect="always"
       xlink:href="#graytolightgray"
       id="linearGradient1101"
       gradientUnits="userSpaceOnUse"
       gradientTransform="matrix(0.200172,0.000000,0.000000,0.208133,-74.71716,0.339280)"
       x1="122.43015"
       y1="59.053604"
       x2="272.46765"
       y2="323.76923" />
    <linearGradient
       inkscape:collect="always"
       xlink:href="#garylighttowite"
       id="linearGradient1102"
       gradientUnits="userSpaceOnUse"
       gradientTransform="matrix(0.200172,0.000000,0.000000,0.212790,-74.63539,0.441272)"
       x1="-37.332329"
       y1="-50.289883"
       x2="578.44397"
       y2="648.29797" />
    <linearGradient
       inkscape:collect="always"
       xlink:href="#garylighttowite"
       id="linearGradient1103"
       gradientUnits="userSpaceOnUse"
       gradientTransform="matrix(0.200172,0.000000,0.000000,0.212790,-74.98362,0.440036)"
       x1="245.91402"
       y1="248.01839"
       x2="561.86395"
       y2="513.91156" />
    <linearGradient
       inkscape:collect="always"
       xlink:href="#graytolightgray"
       id="linearGradient1104"
       gradientUnits="userSpaceOnUse"
       gradientTransform="matrix(0.200172,0.000000,0.000000,0.212790,-75.22202,0.459356)"
       x1="284.17496"
       y1="340.20792"
       x2="330.93881"
       y2="273.80606" />
    <radialGradient
       inkscape:collect="always"
       xlink:href="#light75to0"
       id="radialGradient6178"
       gradientUnits="userSpaceOnUse"
       gradientTransform="scale(1.579640,0.633056)"
       cx="17.741598"
       cy="31.723280"
       fx="17.741598"
       fy="31.723280"
       r="9.2936869" />
    <radialGradient
       inkscape:collect="always"
       xlink:href="#light75to0"
       id="radialGradient6182"
       gradientUnits="userSpaceOnUse"
       gradientTransform="matrix(1.579640,0.000000,0.000000,0.633056,25.13287,-1.794372e-2)"
       cx="17.741598"
       cy="31.723280"
       fx="17.741598"
       fy="31.723280"
       r="9.2936869" />
    <radialGradient
       inkscape:collect="always"
       xlink:href="#light75to0"
       id="radialGradient6186"
       gradientUnits="userSpaceOnUse"
       gradientTransform="matrix(1.579640,0.000000,0.000000,0.633056,50.13287,-1.883674e-3)"
       cx="17.741598"
       cy="31.723280"
       fx="17.741598"
       fy="31.723280"
       r="9.2936869" />
    <radialGradient
       inkscape:collect="always"
       xlink:href="#light75to0"
       id="radialGradient6190"
       gradientUnits="userSpaceOnUse"
       gradientTransform="matrix(1.579640,0.000000,0.000000,0.633056,75.13287,0.223428)"
       cx="17.741598"
       cy="31.723280"
       fx="17.741598"
       fy="31.723280"
       r="9.2936869" />
    <radialGradient
       inkscape:collect="always"
       xlink:href="#light75to0"
       id="radialGradient3236"
       gradientUnits="userSpaceOnUse"
       gradientTransform="matrix(0.972463,0.000000,0.000000,0.750364,1.534429,6.095001)"
       cx="54.483288"
       cy="66.623512"
       fx="54.483288"
       fy="66.623512"
       r="22.013363" />
    <linearGradient
       inkscape:collect="always"
       xlink:href="#graytolightgray"
       id="linearGradient3246"
       gradientUnits="userSpaceOnUse"
       gradientTransform="matrix(0.207123,0.000000,0.000000,0.225869,1.893800,-3.910602)"
       x1="122.43015"
       y1="59.053604"
       x2="272.46765"
       y2="323.76923" />
    <linearGradient
       inkscape:collect="always"
       xlink:href="#graytolightgray"
       id="linearGradient3247"
       gradientUnits="userSpaceOnUse"
       gradientTransform="matrix(0.207123,0.000000,0.000000,0.230923,1.371406,-3.780293)"
       x1="284.17496"
       y1="340.20792"
       x2="330.93881"
       y2="273.80606" />
    <radialGradient
       inkscape:collect="always"
       xlink:href="#light75to0"
       id="radialGradient3248"
       gradientUnits="userSpaceOnUse"
       gradientTransform="matrix(0.252793,0.000000,0.000000,0.189204,1.895454,-4.191243)"
       cx="53.182602"
       cy="52.577991"
       fx="53.182602"
       fy="52.577991"
       r="508.29517" />
    <linearGradient
       inkscape:collect="always"
       xlink:href="#garylighttowite"
       id="linearGradient3249"
       gradientUnits="userSpaceOnUse"
       gradientTransform="matrix(0.207123,0.000000,0.000000,0.230923,1.618086,-3.801260)"
       x1="245.91402"
       y1="248.01839"
       x2="561.86395"
       y2="513.91156" />
    <linearGradient
       inkscape:collect="always"
       xlink:href="#garylighttowite"
       id="linearGradient3250"
       gradientUnits="userSpaceOnUse"
       gradientTransform="matrix(0.207123,0.000000,0.000000,0.230923,1.978408,-3.799918)"
       x1="-37.332329"
       y1="-50.289883"
       x2="578.44397"
       y2="648.29797" />
    <radialGradient
       inkscape:collect="always"
       xlink:href="#light75to0"
       id="radialGradient2321"
       gradientUnits="userSpaceOnUse"
       gradientTransform="matrix(0.939947,0.000000,0.000000,0.732526,44.69332,-0.250115)"
       cx="17.741598"
       cy="31.723280"
       fx="17.741598"
       fy="31.723280"
       r="9.2936869" />
    <radialGradient
       inkscape:collect="always"
       xlink:href="#light75to0"
       id="radialGradient2323"
       gradientUnits="userSpaceOnUse"
       gradientTransform="matrix(0.939947,0.000000,0.000000,0.732526,22.04292,-0.250115)"
       cx="17.741598"
       cy="31.723280"
       fx="17.741598"
       fy="31.723280"
       r="9.2936869" />
  </defs>
  <sodipodi:namedview
     id="base"
     pagecolor="#ffffff"
     bordercolor="#666666"
     borderopacity="1.0"
     inkscape:pageopacity="0.0"
     inkscape:pageshadow="2"
     inkscape:zoom="8.0572522"
     inkscape:cx="21.453428"
     inkscape:cy="31.112449"
     inkscape:current-layer="layer1"
     showgrid="false"
     inkscape:grid-bbox="false"
     gridspacingy="1.0000000pt"
     gridspacingx="1.0000000pt"
     gridoriginy="0.0000000pt"
     gridoriginx="0.0000000pt"
     inkscape:window-width="1280"
     inkscape:window-height="904"
     inkscape:window-x="0"
     inkscape:window-y="25" />
  <metadata
     id="metadata4">
    <rdf:RDF
       id="RDF5">
      <cc:Work
         rdf:about=""
         id="Work6">
        <dc:format
           id="format7">image/svg+xml</dc:format>
        <dc:type
           id="type9"
           rdf:resource="http://purl.org/dc/dcmitype/StillImage" />
      </cc:Work>
    </rdf:RDF>
  </metadata>
  <g
     id="layer1"
     inkscape:label="Layer 1"
     inkscape:groupmode="layer">
    <path
       style="fill:#cbcbcb;fill-opacity:1.0000000;fill-rule:evenodd;stroke:none;stroke-width:0.25000000pt;stroke-linecap:butt;stroke-linejoin:miter;stroke-opacity:1.0000000"
       d="M 42.101552,3.9920039 L 76.640840,3.6333450 L 76.640840,58.687503 L 57.490343,79.848384 L 14.401727,79.848384 L 14.230740,69.447273 L 42.101552,3.9920039 z "
       id="path1105"
       sodipodi:nodetypes="ccccccc"
       inkscape:export-xdpi="48.818890"
       inkscape:export-ydpi="48.818890" />
    <path
       style="fill:#ffffff;fill-opacity:1.0000000;fill-rule:evenodd;stroke:none;stroke-width:0.25000000pt;stroke-linecap:butt;stroke-linejoin:miter;stroke-opacity:1.0000000"
       d="M 12.691861,1.3020612 L 74.076042,1.4813907 L 73.734069,56.176890 L 55.438504,76.441124 L 12.520874,76.979113 L 12.691861,1.3020612 z "
       id="path1727" />
    <path
       d="M 72.038354,2.7843350 L 14.085040,2.7843350 L 13.998858,74.912767 L 55.227936,74.912767 L 72.038354,56.534495 L 72.038354,2.7843350 z "
       id="path146"
       style="fill:url(#linearGradient3246);fill-opacity:1.0000000" />
    <path
       d="M 72.186988,9.3879450 L 72.186988,2.6050056 L 14.051038,2.6050056 L 13.998858,41.889681 C 36.330072,49.940618 68.653656,29.622197 72.186988,9.3879450 z "
       id="path195"
       style="fill:url(#radialGradient3248);fill-opacity:1.0000000"
       sodipodi:nodetypes="ccccc" />
    <path
       d="M 73.577691,1.7005752 C 73.577691,2.5652998 73.577691,56.192459 73.577691,56.552978 C 73.350774,56.805963 55.902323,76.258337 55.675407,76.512201 C 55.353617,76.512201 13.489660,76.512201 12.715625,76.512201 C 12.715625,75.646602 12.715625,2.5670665 12.715625,1.7014575 C 13.491236,1.7005752 72.802865,1.7005752 73.577691,1.7005752 z M 73.972998,0.81909928 L 11.925000,0.81909928 L 11.925000,77.392798 L 56.002732,77.392798 L 74.368314,56.917034 L 74.368314,0.81909928 L 73.972998,0.81909928 z "
       id="path225"
       style="fill:url(#linearGradient3250);fill-opacity:1.0000000" />
    <g
       id="g2324"
       transform="matrix(0.997656,0.000000,0.000000,0.909351,2.798074,5.867173)">
      <path
         style="fill:#000000;fill-opacity:0.14687498;stroke:none;stroke-width:3.1050050;stroke-linecap:round;stroke-linejoin:round;stroke-miterlimit:4.0000000;stroke-dashoffset:0.0000000;stroke-opacity:0.30312499"
         d="M 6.5589615,15.963124 L 63.705039,15.963124 C 66.398203,15.963124 68.566332,17.961497 68.566332,20.443774 L 68.566332,57.140999 C 68.566332,59.623289 62.829989,64.724456 60.136825,64.724456 L 6.5589615,64.569316 C 3.8657941,64.569316 1.6976577,62.570944 1.6976577,60.088654 L 1.6976577,20.443774 C 1.6976577,17.961497 3.8657941,15.963124 6.5589615,15.963124 z "
         id="rect2426"
         sodipodi:nodetypes="ccccccccc" />
      <path
         style="fill:url(#linearGradient3195);fill-opacity:1.0000000;stroke:#000000;stroke-width:2.8524988;stroke-linecap:round;stroke-linejoin:round;stroke-miterlimit:4.0000000;stroke-dashoffset:0.0000000;stroke-opacity:0.30312499"
         d="M 3.3426096,13.109489 L 64.180857,13.109489 C 64.824271,13.109489 65.342265,13.634256 65.342265,14.286105 L 65.342265,59.165379 C 65.342265,59.817227 64.824271,60.342003 64.180857,60.342003 L 3.3426096,60.342003 C 2.6991946,60.342003 2.1812037,59.817227 2.1812037,59.165379 L 2.1812037,14.286105 C 2.1812037,13.634256 2.6991946,13.109489 3.3426096,13.109489 z "
         id="rect8756" />
      <path
         style="fill:none;fill-opacity:1.0000000;fill-rule:evenodd;stroke:url(#linearGradient3196);stroke-width:1.1974602;stroke-linecap:butt;stroke-linejoin:round;stroke-miterlimit:4.0000000;stroke-opacity:1.0000000"
         d="M 63.283768,24.457263 L 18.037985,24.220637 L 17.753041,35.614688 L 63.283768,35.886583 L 63.283768,24.457263 z M 63.283768,47.033701 L 18.037985,46.797086 L 17.753041,58.191123 L 63.283768,58.463019 L 63.283768,47.033701 z "
         id="path6216"
         sodipodi:nodetypes="cccccccccc" />
      <path
         style="fill:none;fill-opacity:1.0000000;stroke:#000000;stroke-width:1.4767386;stroke-linecap:round;stroke-linejoin:round;stroke-miterlimit:4.0000000;stroke-dashoffset:0.0000000;stroke-opacity:0.31249997"
         d="M 4.4194701,13.168194 L 62.975323,13.168194 C 63.875929,13.168194 64.600957,13.839405 64.600957,14.673162 L 64.600957,59.504393 C 64.600957,60.338149 63.875929,61.009359 62.975323,61.009359 L 4.4194701,61.009359 C 3.5188721,61.009359 2.7938465,60.338149 2.7938465,59.504393 L 2.7938465,14.673162 C 2.7938465,13.839405 3.5188721,13.168194 4.4194701,13.168194 z "
         id="rect10003" />
      <path
         style="fill:none;fill-opacity:1.0000000;fill-rule:evenodd;stroke:url(#linearGradient3197);stroke-width:1.3187217;stroke-linecap:butt;stroke-linejoin:round;stroke-miterlimit:4.0000000;stroke-opacity:1.0000000"
         d="M 17.875161,23.797334 L 18.747573,57.822514 L 40.874792,58.059128 L 40.752661,23.973716 L 17.875161,23.797334 z M 63.182390,24.220637 L 63.263803,58.245817 L 63.182390,24.220637 z "
         id="path6220"
         sodipodi:nodetypes="cccccccc" />
      <path
         style="fill:url(#linearGradient10836);fill-opacity:1.0000000;stroke:url(#linearGradient10837);stroke-width:1.5444001;stroke-linecap:round;stroke-linejoin:round;stroke-miterlimit:4.0000000;stroke-dashoffset:0.0000000;stroke-opacity:1.0000000"
         d="M 4.8218828,14.044442 L 17.029548,14.044442 C 17.519460,14.044442 17.913859,14.801786 17.913859,15.742507 L 17.913859,22.083956 C 17.913859,23.024691 17.519460,23.782023 17.029548,23.782023 L 4.8218828,23.782023 C 4.3319718,23.782023 3.9375744,23.024691 3.9375744,22.083956 L 3.9375744,15.742507 C 3.9375744,14.801786 4.3319718,14.044442 4.8218828,14.044442 z "
         id="rect1090" />
      <path
         style="fill:url(#linearGradient10835);fill-opacity:1.0000000;fill-rule:evenodd;stroke:none;stroke-width:0.012500000;stroke-linecap:butt;stroke-linejoin:miter;stroke-miterlimit:4.0000000;stroke-opacity:1.0000000"
         d="M 4.1574149,19.708953 C 4.1589629,19.030567 4.1605229,18.352178 4.1620829,17.673801 C 4.1636300,16.995415 4.1651909,16.317024 4.1667499,15.638637 C 4.1585389,14.901237 4.2889564,14.451785 4.6516695,14.406428 C 5.8544292,14.399549 7.0572010,14.392685 8.2599606,14.385820 C 9.4627331,14.378954 10.665492,14.372088 11.868251,14.365210 C 11.814680,16.549209 6.6694676,16.100267 5.9516657,16.228733 C 4.6350355,16.464368 5.6136098,18.910722 4.1574149,19.708953 z "
         id="path3587" />
      <path
         style="fill:url(#linearGradient10833);fill-opacity:1.0000000;stroke:url(#linearGradient10834);stroke-width:1.5170525;stroke-linecap:round;stroke-linejoin:round;stroke-miterlimit:4.0000000;stroke-dashoffset:0.0000000;stroke-opacity:1.0000000"
         d="M 20.447687,14.023959 L 39.150899,14.023959 C 39.901484,14.023959 40.505740,14.781304 40.505740,15.722026 L 40.505740,22.063476 C 40.505740,23.004208 39.901484,23.761542 39.150899,23.761542 L 20.447687,23.761542 C 19.697101,23.761542 19.092834,23.004208 19.092834,22.063476 L 19.092834,15.722026 C 19.092834,14.781304 19.697101,14.023959 20.447687,14.023959 z "
         id="rect6079" />
      <path
         style="fill:url(#linearGradient10832);fill-opacity:1.0000000;fill-rule:evenodd;stroke:none;stroke-width:0.012500000;stroke-linecap:butt;stroke-linejoin:miter;stroke-miterlimit:4.0000000;stroke-opacity:1.0000000"
         d="M 19.429651,19.688471 C 19.432034,19.010084 19.434418,18.331697 19.436802,17.653308 C 19.439186,16.974931 19.441569,16.296543 19.443965,15.618155 C 19.431385,14.880755 19.631200,14.431303 20.186900,14.385935 C 22.029643,14.379069 23.872374,14.372204 25.715115,14.365337 C 27.557858,14.358474 29.400589,14.351596 31.243332,14.344729 C 31.161256,16.528715 23.278350,16.079782 22.178592,16.208249 C 20.161405,16.443874 21.660665,18.890229 19.429651,19.688471 z "
         id="path6080" />
      <path
         style="fill:url(#linearGradient10830);fill-opacity:1.0000000;stroke:url(#linearGradient10831);stroke-width:1.5227548;stroke-linecap:round;stroke-linejoin:round;stroke-miterlimit:4.0000000;stroke-dashoffset:0.0000000;stroke-opacity:1.0000000"
         d="M 42.944951,13.874734 L 61.781698,13.874734 C 62.537641,13.874734 63.146208,14.632361 63.146208,15.573461 L 63.146208,21.917369 C 63.146208,22.858470 62.537641,23.616098 61.781698,23.616098 L 42.944951,23.616098 C 42.189006,23.616098 41.580424,22.858470 41.580424,21.917369 L 41.580424,15.573461 C 41.580424,14.632361 42.189006,13.874734 42.944951,13.874734 z "
         id="rect6086" />
      <path
         style="fill:url(#linearGradient10829);fill-opacity:1.0000000;fill-rule:evenodd;stroke:none;stroke-width:0.012500000;stroke-linecap:butt;stroke-linejoin:miter;stroke-miterlimit:4.0000000;stroke-opacity:1.0000000"
         d="M 41.946455,19.856852 C 41.948924,19.178506 41.951384,18.500154 41.953848,17.821808 C 41.956316,17.143458 41.958779,16.465109 41.961259,15.786758 C 41.948248,15.049404 42.154887,14.599975 42.729568,14.554623 C 44.635255,14.547759 46.540924,14.540895 48.446606,14.534015 C 50.352289,14.527152 52.257960,14.520284 54.163644,14.513420 C 54.078770,16.697280 45.926609,16.248374 44.789288,16.376832 C 42.703204,16.612442 44.253672,19.058656 41.946455,19.856852 z "
         id="path6087" />
      <path
         style="fill:url(#linearGradient3214);fill-opacity:1.0000000;stroke:url(#linearGradient3215);stroke-width:1.5444001;stroke-linecap:round;stroke-linejoin:round;stroke-miterlimit:4.0000000;stroke-dashoffset:0.0000000;stroke-opacity:1.0000000"
         d="M 4.8197110,25.459914 L 17.027390,25.459914 C 17.517303,25.459914 17.911698,26.217247 17.911698,27.157981 L 17.911698,33.499418 C 17.911698,34.440152 17.517303,35.197485 17.027390,35.197485 L 4.8197110,35.197485 C 4.3298000,35.197485 3.9354025,34.440152 3.9354025,33.499418 L 3.9354025,27.157981 C 3.9354025,26.217247 4.3298000,25.459914 4.8197110,25.459914 z "
         id="path6112" />
      <path
         style="fill:url(#linearGradient3216);fill-opacity:1.0000000;fill-rule:evenodd;stroke:none;stroke-width:0.012500000;stroke-linecap:butt;stroke-linejoin:miter;stroke-miterlimit:4.0000000;stroke-opacity:1.0000000"
         d="M 4.1552441,31.124428 C 4.1568041,30.446039 4.1583391,29.767652 4.1598991,29.089262 C 4.1614590,28.410874 4.1630192,27.732485 4.1645782,27.054096 C 4.1563671,26.316698 4.2867976,25.867246 4.6494857,25.821888 C 5.8522705,25.815024 7.0550302,25.808159 8.2577889,25.801281 C 9.4605481,25.794415 10.663321,25.787550 11.866079,25.780685 C 11.812508,27.964670 6.6672969,27.515740 5.9494808,27.644206 C 4.6328645,27.879828 5.6114261,30.326184 4.1552441,31.124428 z "
         id="path6113" />
      <path
         style="fill:url(#radialGradient3217);fill-opacity:1.0000000;stroke:none;stroke-width:1.4875000;stroke-linecap:round;stroke-linejoin:round;stroke-miterlimit:4.0000000;stroke-dashoffset:0.0000000;stroke-opacity:1.0000000"
         d="M 5.2409387,25.603231 L 17.448619,25.603231 C 17.938529,25.603231 18.332925,26.360565 18.332925,27.301297 L 18.332925,33.642736 C 18.332925,34.583470 17.938529,35.340803 17.448619,35.340803 L 5.2409387,35.340803 C 4.7510276,35.340803 4.3566302,34.583470 4.3566302,33.642736 L 4.3566302,27.301297 C 4.3566302,26.360565 4.7510276,25.603231 5.2409387,25.603231 z "
         id="path6114" />
      <path
         style="fill:url(#linearGradient3218);fill-opacity:1.0000000;stroke:url(#linearGradient3219);stroke-width:1.5444001;stroke-linecap:round;stroke-linejoin:round;stroke-miterlimit:4.0000000;stroke-dashoffset:0.0000000;stroke-opacity:1.0000000"
         d="M 4.8197110,36.859187 L 17.027390,36.859187 C 17.517303,36.859187 17.911698,37.616534 17.911698,38.557253 L 17.911698,44.898703 C 17.911698,45.839438 17.517303,46.596770 17.027390,46.596770 L 4.8197110,46.596770 C 4.3298000,46.596770 3.9354025,45.839438 3.9354025,44.898703 L 3.9354025,38.557253 C 3.9354025,37.616534 4.3298000,36.859187 4.8197110,36.859187 z "
         id="path6119" />
      <path
         style="fill:url(#linearGradient3220);fill-opacity:1.0000000;fill-rule:evenodd;stroke:none;stroke-width:0.012500000;stroke-linecap:butt;stroke-linejoin:miter;stroke-miterlimit:4.0000000;stroke-opacity:1.0000000"
         d="M 4.1552441,42.523702 C 4.1568041,41.845313 4.1583391,41.166923 4.1598991,40.488548 C 4.1614590,39.810159 4.1630192,39.131771 4.1645782,38.453383 C 4.1563671,37.715983 4.2867976,37.266529 4.6494857,37.221174 C 5.8522705,37.214295 7.0550302,37.207432 8.2577889,37.200567 C 9.4605481,37.193700 10.663321,37.186822 11.866079,37.179959 C 11.812508,39.363941 6.6672969,38.915013 5.9494808,39.043478 C 4.6328645,39.279101 5.6114261,41.725455 4.1552441,42.523702 z "
         id="path6120" />
      <path
         style="fill:url(#radialGradient3221);fill-opacity:1.0000000;stroke:none;stroke-width:1.4875000;stroke-linecap:round;stroke-linejoin:round;stroke-miterlimit:4.0000000;stroke-dashoffset:0.0000000;stroke-opacity:1.0000000"
         d="M 4.8197110,36.715870 L 17.027390,36.715870 C 17.517303,36.715870 17.911698,37.473214 17.911698,38.413935 L 17.911698,44.755386 C 17.911698,45.696120 17.517303,46.453452 17.027390,46.453452 L 4.8197110,46.453452 C 4.3298000,46.453452 3.9354025,45.696120 3.9354025,44.755386 L 3.9354025,38.413935 C 3.9354025,37.473214 4.3298000,36.715870 4.8197110,36.715870 z "
         id="path6121" />
      <path
         style="fill:url(#linearGradient3235);fill-opacity:1.0000000;fill-rule:evenodd;stroke:none;stroke-width:0.25000000pt;stroke-linecap:butt;stroke-linejoin:miter;stroke-opacity:1.0000000"
         d="M 2.8201332,46.698014 C 12.861844,48.036396 16.649994,33.240017 20.563118,29.301995 C 28.235166,21.581121 42.333967,31.083092 44.739235,13.149110 C 31.202853,13.005049 17.801261,13.217891 4.2648997,13.073823 C 2.9521097,12.979952 2.8819123,13.212312 2.9465002,15.162268 C 2.9043779,25.674180 2.8622555,36.186093 2.8201332,46.698014 z "
         id="path21648"
         sodipodi:nodetypes="cccccc" />
      <path
         style="fill:url(#radialGradient3236);fill-opacity:1.0000000;stroke:none;stroke-width:1.6250000;stroke-linecap:round;stroke-linejoin:round;stroke-miterlimit:4.0000000;stroke-dashoffset:0.0000000;stroke-opacity:0.31249997"
         d="M 13.065189,22.860678 L 62.625451,22.860678 C 63.387698,22.860678 64.001348,23.383865 64.001348,24.033731 L 64.001348,58.977617 C 64.001348,59.627490 63.387698,60.150668 62.625451,60.150668 L 13.065189,60.150668 C 12.302944,60.150668 11.689287,59.627490 11.689287,58.977617 L 11.689287,24.033731 C 11.689287,23.383865 12.302944,22.860678 13.065189,22.860678 z "
         id="rect1799" />
      <path
         style="fill:url(#linearGradient13331);fill-opacity:1.0000000;stroke:url(#linearGradient13332);stroke-width:1.5553247;stroke-linecap:round;stroke-linejoin:round;stroke-miterlimit:4.0000000;stroke-dashoffset:0.0000000;stroke-opacity:1.0000000"
         d="M 4.5573262,48.092542 L 16.773891,48.092542 C 17.264157,48.092542 17.658844,48.860082 17.658844,49.813464 L 17.658844,56.240268 C 17.658844,57.193660 17.264157,57.961186 16.773891,57.961186 L 4.5573262,57.961186 C 4.0670574,57.961186 3.6723737,57.193660 3.6723737,56.240268 L 3.6723737,49.813464 C 3.6723737,48.860082 4.0670574,48.092542 4.5573262,48.092542 z "
         id="path13328" />
      <path
         style="fill:url(#linearGradient13333);fill-opacity:1.0000000;fill-rule:evenodd;stroke:none;stroke-width:0.012500000;stroke-linecap:butt;stroke-linejoin:miter;stroke-miterlimit:4.0000000;stroke-opacity:1.0000000"
         d="M 3.8923751,53.833297 C 3.8939361,53.145776 3.8954720,52.458261 3.8970330,51.770753 C 3.8985942,51.083233 3.9001552,50.395716 3.9017163,49.708192 C 3.8934991,48.960868 4.0240240,48.505366 4.3869774,48.459399 C 5.5906361,48.452428 6.7942707,48.445472 7.9979064,48.438516 C 9.2015406,48.431557 10.405189,48.424585 11.608824,48.417629 C 11.555212,50.631011 6.4062551,50.176034 5.6879177,50.306231 C 4.3703422,50.545024 5.3496168,53.024307 3.8923751,53.833297 z "
         id="path13329" />
      <path
         style="fill:url(#radialGradient13334);fill-opacity:1.0000000;stroke:none;stroke-width:1.4875000;stroke-linecap:round;stroke-linejoin:round;stroke-miterlimit:4.0000000;stroke-dashoffset:0.0000000;stroke-opacity:1.0000000"
         d="M 4.3903023,47.794285 L 16.606866,47.794285 C 17.097133,47.794285 17.491818,48.561826 17.491818,49.515207 L 17.491818,55.942012 C 17.491818,56.895403 17.097133,57.662930 16.606866,57.662930 L 4.3903023,57.662930 C 3.9000336,57.662930 3.5053499,56.895403 3.5053499,55.942012 L 3.5053499,49.515207 C 3.5053499,48.561826 3.9000336,47.794285 4.3903023,47.794285 z "
         id="path13330" />
      <path
         style="fill:url(#radialGradient2321);fill-opacity:1.0000000;stroke:none;stroke-width:1.4875000;stroke-linecap:round;stroke-linejoin:round;stroke-miterlimit:4.0000000;stroke-dashoffset:0.0000000;stroke-opacity:1.0000000"
         d="M 49.742024,13.630341 L 61.958588,13.630341 C 62.448855,13.630341 62.843540,14.397882 62.843540,15.351263 L 62.843540,21.778068 C 62.843540,22.731459 62.448855,23.498986 61.958588,23.498986 L 49.742024,23.498986 C 49.251755,23.498986 48.857072,22.731459 48.857072,21.778068 L 48.857072,15.351263 C 48.857072,14.397882 49.251755,13.630341 49.742024,13.630341 z "
         id="path2320" />
      <path
         style="fill:url(#radialGradient2323);fill-opacity:1.0000000;stroke:none;stroke-width:1.4875000;stroke-linecap:round;stroke-linejoin:round;stroke-miterlimit:4.0000000;stroke-dashoffset:0.0000000;stroke-opacity:1.0000000"
         d="M 27.091622,13.630341 L 39.308186,13.630341 C 39.798453,13.630341 40.193138,14.397882 40.193138,15.351263 L 40.193138,21.778068 C 40.193138,22.731459 39.798453,23.498986 39.308186,23.498986 L 27.091622,23.498986 C 26.601353,23.498986 26.206670,22.731459 26.206670,21.778068 L 26.206670,15.351263 C 26.206670,14.397882 26.601353,13.630341 27.091622,13.630341 z "
         id="path2322" />
    </g>
    <path
       d="M 55.839068,76.205144 L 73.973791,55.987641 L 55.839068,55.987641 L 55.839068,76.205144 z "
       id="path163"
       style="fill:#ffffff" />
    <path
       d="M 56.488330,75.834587 L 72.448026,58.042894 L 56.488330,58.042894 L 56.488330,75.834587 z "
       id="path178"
       style="fill:url(#linearGradient3247);fill-opacity:1.0000000" />
    <path
       d="M 55.478764,56.293366 C 55.260552,56.293366 55.083447,56.490821 55.083447,56.734103 L 55.083447,76.951605 C 55.083447,77.130544 55.179905,77.290968 55.327756,77.359725 C 55.475599,77.426717 55.645584,77.390579 55.758648,77.263645 L 73.892575,57.046144 C 74.005640,56.920095 74.039642,56.730584 73.978758,56.565746 C 73.917087,56.400910 73.773189,56.293366 73.612692,56.293366 L 55.478764,56.293366 z M 72.658406,57.174842 C 71.455845,58.515562 57.076631,74.546067 55.874082,75.887669 C 55.874082,74.021586 55.874082,57.974341 55.874082,57.174842 C 56.589596,57.174842 70.984631,57.174842 72.658406,57.174842 z "
       id="path210"
       style="fill:url(#linearGradient3249);fill-opacity:1.0000000" />
  </g>
</svg>
