<?xml version="1.0" encoding="UTF-8" standalone="no"?>
<!DOCTYPE svg PUBLIC "-//W3C//DTD SVG 20010904//EN"
"http://www.w3.org/TR/2001/REC-SVG-20010904/DTD/svg10.dtd">
<!-- Created with Inkscape (http://www.inkscape.org/) -->
<svg
   width="64pt"
   height="64pt"
   xmlns="http://www.w3.org/2000/svg"
   xmlns:cc="http://web.resource.org/cc/"
   xmlns:inkscape="http://www.inkscape.org/namespaces/inkscape"
   xmlns:sodipodi="http://sodipodi.sourceforge.net/DTD/sodipodi-0.dtd"
   xmlns:rdf="http://www.w3.org/1999/02/22-rdf-syntax-ns#"
   xmlns:dc="http://purl.org/dc/elements/1.1/"
   xmlns:xlink="http://www.w3.org/1999/xlink"
   id="svg1784"
   sodipodi:version="0.32"
   inkscape:version="0.40"
   sodipodi:docbase="/home/nuno/kdeplayground-artwork/oooicons/crystalsvg"
   sodipodi:docname="bar_2D_rearrange.svg">
  <defs
     id="defs3">
    <linearGradient
       id="light75to0">
      <stop
         style="stop-color:#ffffff;stop-opacity:0.72916669;"
         offset="0.0000000"
         id="stop2769" />
      <stop
         style="stop-color:#ffffff;stop-opacity:0.0000000;"
         offset="1.0000000"
         id="stop2770" />
    </linearGradient>
    <linearGradient
       id="light100to75to0">
      <stop
         style="stop-color:#ffffff;stop-opacity:1.0000000;"
         offset="0.0000000"
         id="stop2779" />
      <stop
         style="stop-color:#ffffff;stop-opacity:0.77499998;"
         offset="0.50000000"
         id="stop2782" />
      <stop
         style="stop-color:#ffffff;stop-opacity:0.0000000;"
         offset="1.0000000"
         id="stop2780" />
    </linearGradient>
    <linearGradient
       id="greandraktoblack">
      <stop
         style="stop-color:#007c00;stop-opacity:1.0000000;"
         offset="0.0000000"
         id="stop7328" />
      <stop
         style="stop-color:#025a00;stop-opacity:1.0000000;"
         offset="1.0000000"
         id="stop7329" />
    </linearGradient>
    <linearGradient
       id="greantodarkgrean">
      <stop
         style="stop-color:#00ff01;stop-opacity:1.0000000;"
         offset="0.0000000"
         id="stop5123" />
      <stop
         style="stop-color:#15980f;stop-opacity:1.0000000;"
         offset="1.0000000"
         id="stop5124" />
    </linearGradient>
    <radialGradient
       cx="38.797401"
       cy="112.96090"
       r="67.358803"
       fx="38.797401"
       fy="112.96090"
       id="bluelignonlinblu"
       gradientUnits="userSpaceOnUse">
      <stop
         style="stop-color:#d9ffff;stop-opacity:1.0000000;"
         offset="0.0055999998"
         id="stop84" />
      <stop
         style="stop-color:#95d9ff;stop-opacity:1.0000000;"
         offset="0.13480000"
         id="stop86" />
      <stop
         style="stop-color:#68b9ff;stop-opacity:1.0000000;"
         offset="0.32049999"
         id="stop88" />
      <stop
         style="stop-color:#3293fe;stop-opacity:1.0000000;"
         offset="0.56800002"
         id="stop90" />
      <stop
         style="stop-color:#107bfe;stop-opacity:1.0000000;"
         offset="0.75340003"
         id="stop92" />
      <stop
         style="stop-color:#0372fe;stop-opacity:1.0000000;"
         offset="0.85390002"
         id="stop94" />
      <stop
         style="stop-color:#0356fe;stop-opacity:1.0000000;"
         offset="1.0000000"
         id="stop96" />
    </radialGradient>
    <linearGradient
       x1="-229.54075"
       y1="191.22630"
       x2="-203.99928"
       y2="191.22630"
       id="linearGradient2754"
       collect="always"
       xlink:href="#bluelignonlinblu"
       gradientTransform="matrix(1.395481,0.000000,0.000000,0.716599,645.5011,-148.0188)"
       gradientUnits="userSpaceOnUse" />
    <radialGradient
       cx="38.797401"
       cy="112.96090"
       r="67.358803"
       fx="38.797401"
       fy="112.96090"
       id="bluedarktoblackblue"
       gradientUnits="userSpaceOnUse">
      <stop
         style="stop-color:#0356fe;stop-opacity:1.0000000;"
         offset="0.0000000"
         id="stop2959" />
      <stop
         style="stop-color:#032442;stop-opacity:1.0000000;"
         offset="1.0000000"
         id="stop2960" />
    </radialGradient>
    <linearGradient
       id="linearGradient581"
       xlink:href="#bluedarktoblackblue"
       x1="-190.58490"
       y1="189.95285"
       x2="-165.04343"
       y2="189.95285"
       gradientTransform="matrix(1.395481,0.000000,0.000000,0.716599,645.5011,-148.0188)"
       gradientUnits="userSpaceOnUse" />
    <linearGradient
       id="linearGradient2621">
      <stop
         offset="0.0000000"
         style="stop-color:#ffffff;stop-opacity:0.90833336;"
         id="stop2623" />
      <stop
         offset="1.0000000"
         style="stop-color:#ffffff;stop-opacity:0.0000000;"
         id="stop2622" />
    </linearGradient>
    <linearGradient
       id="linearGradient1997">
      <stop
         offset="0.0000000"
         style="stop-color:#ff8b00;stop-opacity:1.0000000;"
         id="stop1999" />
      <stop
         offset="1.0000000"
         style="stop-color:#4d0200;stop-opacity:1.0000000;"
         id="stop1998" />
    </linearGradient>
    <linearGradient
       id="linearGradient1994">
      <stop
         offset="0.0000000"
         style="stop-color:#ff7d00;stop-opacity:1.0000000;"
         id="stop1996" />
      <stop
         offset="1.0000000"
         style="stop-color:#ffff00;stop-opacity:1.0000000;"
         id="stop1995" />
    </linearGradient>
    <defs
       id="defs1795">
      <linearGradient
         inkscape:collect="always"
         xlink:href="#light100to0"
         id="linearGradient6667"
         gradientUnits="userSpaceOnUse"
         gradientTransform="matrix(-2.100214e-4,0.172316,-7.481558,-9.006255e-3,236.2191,202.6481)"
         x1="79.057785"
         y1="26.997606"
         x2="144.28882"
         y2="50.504238" />
      <linearGradient
         inkscape:collect="always"
         xlink:href="#orangetoblackorange"
         id="linearGradient2900"
         gradientTransform="matrix(0.544985,0.000000,0.000000,1.893915,-186.0003,-141.9586)"
         x1="133.81660"
         y1="25.833536"
         x2="282.96213"
         y2="196.27446"
         gradientUnits="userSpaceOnUse" />
      <linearGradient
         inkscape:collect="always"
         xlink:href="#orangetoyelow"
         id="linearGradient2889"
         gradientTransform="matrix(0.548834,0.000000,0.000000,2.065297,-194.2082,-166.0194)"
         x1="191.78975"
         y1="142.23106"
         x2="135.27760"
         y2="31.721643"
         gradientUnits="userSpaceOnUse" />
      <linearGradient
         inkscape:collect="always"
         xlink:href="#light100to0"
         id="linearGradient3526"
         gradientUnits="userSpaceOnUse"
         gradientTransform="matrix(0.548834,0.000000,0.000000,2.065298,-193.7896,-169.9435)"
         x1="182.04395"
         y1="37.030235"
         x2="202.96213"
         y2="100.11323" />
      <radialGradient
         inkscape:collect="always"
         xlink:href="#light90to0"
         id="radialGradient3532"
         gradientTransform="matrix(0.545524,0.000000,0.000000,0.860997,-194.2082,56.82681)"
         cx="271.68509"
         cy="179.96785"
         fx="271.68509"
         fy="179.96785"
         r="105.96474"
         gradientUnits="userSpaceOnUse" />
      <linearGradient
         inkscape:collect="always"
         xlink:href="#orangetoblackorange"
         id="linearGradient5408"
         gradientUnits="userSpaceOnUse"
         gradientTransform="matrix(0.544985,0.000000,0.000000,0.897036,-68.28327,47.57771)"
         x1="133.81660"
         y1="25.833536"
         x2="282.96213"
         y2="196.27446" />
      <linearGradient
         inkscape:collect="always"
         xlink:href="#orangetoyelow"
         id="linearGradient5407"
         gradientUnits="userSpaceOnUse"
         gradientTransform="matrix(0.548834,0.000000,0.000000,0.978208,-76.49118,36.18141)"
         x1="191.78975"
         y1="142.23106"
         x2="135.27760"
         y2="31.721643" />
      <linearGradient
         inkscape:collect="always"
         xlink:href="#light100to0"
         id="linearGradient5409"
         gradientUnits="userSpaceOnUse"
         gradientTransform="matrix(0.548834,0.000000,0.000000,1.711133,-76.07252,8.760110)"
         x1="182.04395"
         y1="37.030235"
         x2="202.96213"
         y2="100.11323" />
      <radialGradient
         inkscape:collect="always"
         xlink:href="#light90to0"
         id="radialGradient5410"
         gradientUnits="userSpaceOnUse"
         gradientTransform="matrix(0.545524,0.000000,0.000000,0.707426,-76.49114,86.85901)"
         cx="271.68509"
         cy="179.96785"
         fx="271.68509"
         fy="179.96785"
         r="105.96474" />
      <linearGradient
         id="orangetoblackorange"
         x1="0.0000000"
         y1="0.50000000"
         x2="1.0000000"
         y2="0.50000000"
         gradientUnits="objectBoundingBox"
         spreadMethod="pad"
         xlink:href="#linearGradient1997" />
      <linearGradient
         inkscape:collect="always"
         xlink:href="#orangetoblackorange"
         id="linearGradient5415"
         gradientUnits="userSpaceOnUse"
         gradientTransform="matrix(0.544985,0.000000,0.000000,1.512596,49.43376,-69.45833)"
         x1="133.81660"
         y1="25.833536"
         x2="282.96213"
         y2="196.27446" />
      <linearGradient
         id="orangetoyelow"
         x1="0.0000000"
         y1="0.50000000"
         x2="1.0000000"
         y2="0.50000000"
         gradientUnits="objectBoundingBox"
         spreadMethod="pad"
         xlink:href="#linearGradient1994" />
      <linearGradient
         inkscape:collect="always"
         xlink:href="#orangetoyelow"
         id="linearGradient5414"
         gradientUnits="userSpaceOnUse"
         gradientTransform="matrix(0.548834,0.000000,0.000000,1.649472,41.22586,-88.67482)"
         x1="191.78975"
         y1="142.23106"
         x2="135.27760"
         y2="31.721643" />
      <linearGradient
         inkscape:collect="always"
         xlink:href="#light100to0"
         id="linearGradient5416"
         gradientUnits="userSpaceOnUse"
         gradientTransform="matrix(0.548834,0.000000,0.000000,1.649473,41.64456,-91.80887)"
         x1="182.04395"
         y1="37.030235"
         x2="202.96213"
         y2="100.11323" />
      <linearGradient
         id="light90to0"
         x1="0.0000000"
         y1="0.50000000"
         x2="1.0000000"
         y2="0.50000000"
         gradientUnits="objectBoundingBox"
         spreadMethod="pad"
         xlink:href="#linearGradient2621" />
      <radialGradient
         inkscape:collect="always"
         xlink:href="#light90to0"
         id="radialGradient5417"
         gradientUnits="userSpaceOnUse"
         gradientTransform="matrix(0.545524,0.000000,0.000000,0.687644,41.22596,89.30361)"
         cx="271.68509"
         cy="179.96785"
         fx="271.68509"
         fy="179.96785"
         r="105.96474" />
      <linearGradient
         id="light100to0">
        <stop
           style="stop-color:#ffffff;stop-opacity:1.0000000;"
           offset="0.0000000"
           id="stop2764" />
        <stop
           style="stop-color:#ffffff;stop-opacity:0.0000000;"
           offset="1.0000000"
           id="stop2765" />
      </linearGradient>
      <linearGradient
         inkscape:collect="always"
         xlink:href="#light100to0"
         id="linearGradient6665"
         gradientTransform="matrix(0.162915,0.000000,0.000000,7.435266,-166.8608,-161.4132)"
         x1="79.057785"
         y1="26.997606"
         x2="144.28882"
         y2="50.504238"
         gradientUnits="userSpaceOnUse" />
    </defs>
    <sodipodi:namedview
       id="namedview1836"
       pagecolor="#ffffff"
       bordercolor="#666666"
       borderopacity="1.0"
       inkscape:pageopacity="0.0"
       inkscape:pageshadow="2"
       inkscape:zoom="11.687500"
       inkscape:cx="32.000000"
       inkscape:cy="29.718087"
       inkscape:current-layer="layer1"
       showgrid="true"
       inkscape:grid-bbox="true"
       gridspacingy="1.0000000pt"
       gridspacingx="1.0000000pt"
       gridoriginy="0.0000000pt"
       gridoriginx="0.0000000pt"
       inkscape:window-width="1280"
       inkscape:window-height="907"
       inkscape:window-x="0"
       inkscape:window-y="25" />
    <metadata
       id="metadata1837">
      <rdf:RDF
         id="RDF1838">
        <cc:Work
           rdf:about=""
           id="Work1839">
          <dc:format
             id="format1840">image/svg+xml</dc:format>
          <dc:type
             id="type1842"
             rdf:resource="http://purl.org/dc/dcmitype/StillImage" />
        </cc:Work>
      </rdf:RDF>
    </metadata>
    <radialGradient
       inkscape:collect="always"
       xlink:href="#linearGradient2621"
       id="radialGradient1979"
       gradientUnits="userSpaceOnUse"
       gradientTransform="matrix(0.107441,0.000000,0.000000,0.140418,11.47685,52.72057)"
       cx="271.68509"
       cy="179.96785"
       fx="271.68509"
       fy="179.96785"
       r="105.96474" />
    <linearGradient
       inkscape:collect="always"
       xlink:href="#light100to0"
       id="linearGradient1980"
       gradientUnits="userSpaceOnUse"
       gradientTransform="matrix(0.108095,0.000000,0.000000,0.336821,11.55930,15.73750)"
       x1="182.04395"
       y1="37.030235"
       x2="202.96213"
       y2="100.11323" />
    <linearGradient
       inkscape:collect="always"
       xlink:href="#linearGradient1994"
       id="linearGradient1981"
       gradientUnits="userSpaceOnUse"
       gradientTransform="matrix(0.108095,0.000000,0.000000,0.336821,11.47688,16.37750)"
       x1="191.78975"
       y1="142.23106"
       x2="135.27760"
       y2="31.721643" />
    <linearGradient
       inkscape:collect="always"
       xlink:href="#linearGradient1997"
       id="linearGradient1982"
       gradientUnits="userSpaceOnUse"
       gradientTransform="matrix(0.107336,0.000000,0.000000,0.308870,13.09342,20.30147)"
       x1="133.81660"
       y1="25.833536"
       x2="282.96213"
       y2="196.27446" />
    <radialGradient
       inkscape:collect="always"
       xlink:href="#linearGradient2621"
       id="radialGradient1983"
       gradientUnits="userSpaceOnUse"
       gradientTransform="matrix(0.107441,0.000000,0.000000,0.144456,34.33037,51.87781)"
       cx="271.68509"
       cy="179.96785"
       fx="271.68509"
       fy="179.96785"
       r="105.96474" />
    <linearGradient
       inkscape:collect="always"
       xlink:href="#light100to0"
       id="linearGradient1984"
       gradientUnits="userSpaceOnUse"
       gradientTransform="matrix(0.108095,0.000000,0.000000,0.349413,34.41285,35.93009)"
       x1="182.04395"
       y1="37.030235"
       x2="202.96213"
       y2="100.11323" />
    <linearGradient
       inkscape:collect="always"
       xlink:href="#linearGradient1994"
       id="linearGradient1985"
       gradientUnits="userSpaceOnUse"
       gradientTransform="matrix(0.108095,0.000000,0.000000,0.199750,34.33035,41.52951)"
       x1="191.78975"
       y1="142.23106"
       x2="135.27760"
       y2="31.721643" />
    <linearGradient
       inkscape:collect="always"
       xlink:href="#linearGradient1997"
       id="linearGradient1986"
       gradientUnits="userSpaceOnUse"
       gradientTransform="matrix(0.107336,0.000000,0.000000,0.183174,35.94693,43.85654)"
       x1="133.81660"
       y1="25.833536"
       x2="282.96213"
       y2="196.27446" />
    <radialGradient
       inkscape:collect="always"
       xlink:href="#linearGradient2621"
       id="radialGradient1987"
       gradientUnits="userSpaceOnUse"
       gradientTransform="matrix(0.157245,0.000000,0.000000,0.243716,-17.80099,33.31350)"
       cx="271.68509"
       cy="179.96785"
       fx="271.68509"
       fy="179.96785"
       r="105.96474" />
    <linearGradient
       inkscape:collect="always"
       xlink:href="#light100to0"
       id="linearGradient1988"
       gradientUnits="userSpaceOnUse"
       gradientTransform="matrix(0.108095,0.000000,0.000000,0.421733,-11.79078,-0.103059)"
       x1="182.04395"
       y1="37.030235"
       x2="202.96213"
       y2="100.11323" />
    <linearGradient
       inkscape:collect="always"
       xlink:href="#linearGradient1994"
       id="linearGradient1989"
       gradientUnits="userSpaceOnUse"
       gradientTransform="matrix(0.108095,0.000000,0.000000,0.421733,-11.87329,0.698300)"
       x1="191.78975"
       y1="142.23106"
       x2="135.27760"
       y2="31.721643" />
    <linearGradient
       inkscape:collect="always"
       xlink:href="#linearGradient1997"
       id="linearGradient1990"
       gradientUnits="userSpaceOnUse"
       gradientTransform="matrix(0.107336,0.000000,0.000000,0.386737,-10.25673,5.611480)"
       x1="133.81660"
       y1="25.833536"
       x2="282.96213"
       y2="196.27446" />
    <linearGradient
       inkscape:collect="always"
       xlink:href="#bluelignonlinblu"
       id="linearGradient6339"
       gradientUnits="userSpaceOnUse"
       gradientTransform="scale(1.007318,0.992736)"
       x1="61.151752"
       y1="48.563686"
       x2="78.725655"
       y2="69.801048" />
    <linearGradient
       inkscape:collect="always"
       xlink:href="#bluedarktoblackblue"
       id="linearGradient6340"
       gradientUnits="userSpaceOnUse"
       gradientTransform="matrix(7.945964e-2,0.000000,0.000000,7.231817e-2,53.13296,47.36803)"
       x1="133.81660"
       y1="25.833536"
       x2="282.96213"
       y2="196.27446" />
    <radialGradient
       inkscape:collect="always"
       xlink:href="#bluelignonlinblu"
       id="radialGradient6341"
       gradientUnits="userSpaceOnUse"
       gradientTransform="scale(1.077033,0.928477)"
       cx="62.629677"
       cy="58.348507"
       fx="62.629677"
       fy="58.348507"
       r="5.1370811" />
    <linearGradient
       inkscape:collect="always"
       xlink:href="#bluelignonlinblu"
       id="linearGradient6345"
       gradientUnits="userSpaceOnUse"
       gradientTransform="scale(1.007318,0.992736)"
       x1="61.151752"
       y1="48.563686"
       x2="78.725655"
       y2="69.801048" />
    <linearGradient
       inkscape:collect="always"
       xlink:href="#bluedarktoblackblue"
       id="linearGradient6346"
       gradientUnits="userSpaceOnUse"
       gradientTransform="matrix(7.945964e-2,0.000000,0.000000,7.231817e-2,53.13296,47.36803)"
       x1="133.81660"
       y1="25.833536"
       x2="282.96213"
       y2="196.27446" />
    <radialGradient
       inkscape:collect="always"
       xlink:href="#bluelignonlinblu"
       id="radialGradient6347"
       gradientUnits="userSpaceOnUse"
       gradientTransform="scale(1.077033,0.928477)"
       cx="62.629677"
       cy="58.348507"
       fx="62.629677"
       fy="58.348507"
       r="5.1370811" />
    <linearGradient
       inkscape:collect="always"
       xlink:href="#bluelignonlinblu"
       id="linearGradient6348"
       gradientUnits="userSpaceOnUse"
       gradientTransform="scale(1.007318,0.992736)"
       x1="61.151752"
       y1="48.563686"
       x2="78.725655"
       y2="69.801048" />
    <linearGradient
       inkscape:collect="always"
       xlink:href="#bluedarktoblackblue"
       id="linearGradient6349"
       gradientUnits="userSpaceOnUse"
       gradientTransform="matrix(7.945964e-2,0.000000,0.000000,7.231817e-2,53.13296,47.36803)"
       x1="133.81660"
       y1="25.833536"
       x2="282.96213"
       y2="196.27446" />
    <radialGradient
       inkscape:collect="always"
       xlink:href="#bluelignonlinblu"
       id="radialGradient6350"
       gradientUnits="userSpaceOnUse"
       gradientTransform="scale(1.077033,0.928477)"
       cx="62.629677"
       cy="58.348507"
       fx="62.629677"
       fy="58.348507"
       r="5.1370811" />
    <linearGradient
       inkscape:collect="always"
       xlink:href="#greantodarkgrean"
       id="linearGradient8032"
       gradientUnits="userSpaceOnUse"
       gradientTransform="scale(1.064353,0.939538)"
       x1="-436.49048"
       y1="-138.00241"
       x2="-408.99539"
       y2="-110.84340" />
    <linearGradient
       inkscape:collect="always"
       xlink:href="#greandraktoblack"
       id="linearGradient8033"
       gradientUnits="userSpaceOnUse"
       gradientTransform="scale(1.067357,0.936894)"
       x1="-435.31949"
       y1="-138.45309"
       x2="-407.76779"
       y2="-110.38097" />
    <radialGradient
       inkscape:collect="always"
       xlink:href="#light100to75to0"
       id="radialGradient8034"
       gradientUnits="userSpaceOnUse"
       gradientTransform="scale(1.067357,0.936894)"
       cx="34.281494"
       cy="40.215942"
       fx="34.774773"
       fy="40.495552"
       r="66.978882" />
    <linearGradient
       inkscape:collect="always"
       xlink:href="#light100to0"
       id="linearGradient8035"
       gradientUnits="userSpaceOnUse"
       gradientTransform="scale(1.092926,0.914975)"
       x1="129.67717"
       y1="143.24013"
       x2="116.62541"
       y2="135.40907" />
    <radialGradient
       inkscape:collect="always"
       xlink:href="#light75to0"
       id="radialGradient8036"
       gradientUnits="userSpaceOnUse"
       gradientTransform="scale(1.197021,0.835407)"
       cx="63.201416"
       cy="108.22375"
       fx="63.324112"
       fy="108.39971"
       r="20.613607" />
    <linearGradient
       inkscape:collect="always"
       xlink:href="#greandraktoblack"
       id="linearGradient8661"
       gradientTransform="matrix(1.574596,0.000000,0.000000,0.374509,7.079102,-1.159320)"
       x1="15.196084"
       y1="-15.119562"
       x2="31.183523"
       y2="42.981716"
       gradientUnits="userSpaceOnUse" />
    <linearGradient
       inkscape:collect="always"
       xlink:href="#greantodarkgrean"
       id="linearGradient8665"
       gradientTransform="matrix(1.574596,0.000000,0.000000,0.374509,7.079102,-1.159320)"
       x1="17.310825"
       y1="-0.88732678"
       x2="29.576321"
       y2="27.355659"
       gradientUnits="userSpaceOnUse" />
  </defs>
  <sodipodi:namedview
     id="base"
     pagecolor="#ffffff"
     bordercolor="#666666"
     borderopacity="1.0"
     inkscape:pageopacity="0.0"
     inkscape:pageshadow="2"
     inkscape:zoom="10.914877"
     inkscape:cx="51.197629"
     inkscape:cy="33.040505"
     inkscape:current-layer="g1843"
     showgrid="false"
     inkscape:grid-bbox="false"
     gridspacingy="1.0000000pt"
     gridspacingx="1.0000000pt"
     gridoriginy="0.0000000pt"
     gridoriginx="0.0000000pt"
     inkscape:window-width="1278"
     inkscape:window-height="906"
     inkscape:window-x="140"
     inkscape:window-y="63" />
  <metadata
     id="metadata4">
    <rdf:RDF
       id="RDF5">
      <cc:Work
         rdf:about=""
         id="Work6">
        <dc:format
           id="format7">image/svg+xml</dc:format>
        <dc:type
           id="type9"
           rdf:resource="http://purl.org/dc/dcmitype/StillImage" />
      </cc:Work>
    </rdf:RDF>
  </metadata>
  <g
     id="layer1"
     inkscape:label="Layer 1"
     inkscape:groupmode="layer" />
  <g
     id="g1843"
     inkscape:label="Layer 1"
     inkscape:groupmode="layer">
    <path
       style="fill:url(#linearGradient1989);fill-opacity:1.0000000;stroke:url(#linearGradient1990);stroke-width:1.9678816;stroke-linecap:round;stroke-linejoin:round;stroke-miterlimit:4.0000000;stroke-dashoffset:0.0000000;stroke-opacity:1.0000000"
       d="M 3.9749127,14.448089 L 17.703519,14.448089 C 18.386623,14.448089 18.936560,14.981025 18.936560,15.643012 L 18.936560,77.206556 C 18.936560,77.868544 18.386623,78.401479 17.703519,78.401479 L 3.9749127,78.401479 C 3.2918054,78.401479 2.7418702,77.868544 2.7418702,77.206556 L 2.7418702,15.643012 C 2.7418702,14.981025 3.2918054,14.448089 3.9749127,14.448089 z "
       id="rect2264" />
    <path
       style="fill:url(#linearGradient1988);fill-opacity:1.0000000;stroke:none;stroke-width:6.4214826;stroke-linecap:round;stroke-linejoin:round;stroke-miterlimit:4.0000000;stroke-dashoffset:0.0000000;stroke-opacity:1.0000000"
       d="M 4.3020159,14.606082 L 17.541304,14.606082 C 18.225375,14.606082 18.776086,15.209314 18.776086,15.958626 L 18.776086,24.284757 C 16.206532,34.067913 5.3155922,38.208421 3.0672359,37.835524 L 3.0672359,15.958626 C 3.0672359,15.209314 3.6179490,14.606082 4.3020159,14.606082 z "
       id="rect2901" />
    <path
       style="fill:url(#radialGradient1987);fill-opacity:1.0000000;stroke:none;stroke-width:6.6200852;stroke-linecap:round;stroke-linejoin:round;stroke-miterlimit:4.0000000;stroke-dashoffset:0.0000000;stroke-opacity:1.0000000"
       d="M 5.3935596,41.211473 L 25.486045,41.211473 C 26.485801,41.211473 27.290660,41.950234 27.290660,42.867891 L 27.290660,76.290492 C 27.290660,77.208146 26.485801,77.946906 25.486045,77.946906 L 5.3935596,77.946906 C 4.3937986,77.946906 3.5889417,77.208146 3.5889417,76.290492 L 3.5889417,42.867891 C 3.5889417,41.950234 4.3937986,41.211473 5.3935596,41.211473 z "
       id="rect3527" />
    <path
       style="fill:url(#linearGradient1985);fill-opacity:1.0000000;stroke:url(#linearGradient1986);stroke-width:1.6747928;stroke-linecap:round;stroke-linejoin:round;stroke-miterlimit:4.0000000;stroke-dashoffset:0.0000000;stroke-opacity:1.0000000"
       d="M 50.178518,48.041974 L 63.907123,48.041974 C 64.590231,48.041974 65.140165,48.574908 65.140165,49.236897 L 65.140165,77.138024 C 65.140165,77.800005 64.590231,78.332948 63.907123,78.332948 L 50.178518,78.332948 C 49.495410,78.332948 48.945474,77.800005 48.945474,77.138024 L 48.945474,49.236897 C 48.945474,48.574908 49.495410,48.041974 50.178518,48.041974 z "
       id="rect5404" />
    <path
       style="fill:url(#linearGradient1984);fill-opacity:1.0000000;stroke:none;stroke-width:6.4214826;stroke-linecap:round;stroke-linejoin:round;stroke-miterlimit:4.0000000;stroke-dashoffset:0.0000000;stroke-opacity:1.0000000"
       d="M 50.505622,48.116811 L 63.744913,48.116811 C 64.428980,48.116811 64.979693,48.616592 64.979693,49.237414 L 64.979693,52.371640 C 62.410139,60.477135 51.519203,67.671715 49.270845,67.362761 L 49.270845,49.237414 C 49.270845,48.616592 49.821556,48.116811 50.505622,48.116811 z "
       id="path5405" />
    <path
       style="fill:url(#radialGradient1983);fill-opacity:1.0000000;stroke:none;stroke-width:6.6200852;stroke-linecap:round;stroke-linejoin:round;stroke-miterlimit:4.0000000;stroke-dashoffset:0.0000000;stroke-opacity:1.0000000"
       d="M 50.178518,56.559126 L 63.907123,56.559126 C 64.590231,56.559126 65.140165,57.092071 65.140165,57.754049 L 65.140165,77.138024 C 65.140165,77.800014 64.590231,78.332948 63.907123,78.332948 L 50.178518,78.332948 C 49.495410,78.332948 48.945474,77.800014 48.945474,77.138024 L 48.945474,57.754049 C 48.945474,57.092071 49.495410,56.559126 50.178518,56.559126 z "
       id="rect5406" />
    <path
       style="fill:url(#linearGradient1981);fill-opacity:1.0000000;stroke:url(#linearGradient1982);stroke-width:1.8283156;stroke-linecap:round;stroke-linejoin:round;stroke-miterlimit:4.0000000;stroke-dashoffset:0.0000000;stroke-opacity:1.0000000"
       d="M 27.325001,27.358909 L 41.053610,27.358909 C 41.736716,27.358909 42.286650,27.891854 42.286650,28.553832 L 42.286650,77.241044 C 42.286650,77.903032 41.736716,78.435967 41.053610,78.435967 L 27.325001,78.435967 C 26.641897,78.435967 26.091960,77.903032 26.091960,77.241044 L 26.091960,28.553832 C 26.091960,27.891854 26.641897,27.358909 27.325001,27.358909 z "
       id="rect5411" />
    <path
       style="fill:url(#linearGradient1980);fill-opacity:1.0000000;stroke:none;stroke-width:6.4214826;stroke-linecap:round;stroke-linejoin:round;stroke-miterlimit:4.0000000;stroke-dashoffset:0.0000000;stroke-opacity:1.0000000"
       d="M 27.652112,27.485098 L 40.891400,27.485098 C 41.575468,27.485098 42.126180,27.966871 42.126180,28.565315 L 42.126180,35.215076 C 39.556626,43.028488 28.665689,46.335356 26.417331,46.037531 L 26.417331,28.565315 C 26.417331,27.966871 26.968041,27.485098 27.652112,27.485098 z "
       id="path5412" />
    <path
       style="fill:url(#radialGradient1979);fill-opacity:1.0000000;stroke:none;stroke-width:6.6200852;stroke-linecap:round;stroke-linejoin:round;stroke-miterlimit:4.0000000;stroke-dashoffset:0.0000000;stroke-opacity:1.0000000"
       d="M 27.325001,57.270996 L 41.053610,57.270996 C 41.736716,57.270996 42.286650,57.803931 42.286650,58.465918 L 42.286650,77.241044 C 42.286650,77.903032 41.736716,78.435967 41.053610,78.435967 L 27.325001,78.435967 C 26.641897,78.435967 26.091960,77.903032 26.091960,77.241044 L 26.091960,58.465918 C 26.091960,57.803931 26.641897,57.270996 27.325001,57.270996 z "
       id="rect5413" />
    <g
       id="g6329"
       transform="matrix(0.708779,0.000000,0.000000,0.771837,25.78535,17.06828)">
      <path
         style="fill:url(#linearGradient6348);fill-opacity:1.0000000;stroke:url(#linearGradient6349);stroke-width:1.7750000;stroke-linecap:round;stroke-linejoin:round;stroke-miterlimit:4.0000000;stroke-dashoffset:0.0000000;stroke-opacity:1.0000000"
         d="M 63.668439,49.020471 L 73.831562,49.020471 C 74.337257,49.020471 74.744366,49.145253 74.744366,49.300247 L 74.744366,60.699753 C 74.744366,60.854748 74.337257,60.979529 73.831562,60.979529 L 63.668439,60.979529 C 63.162745,60.979529 62.755633,60.854748 62.755633,60.699753 L 62.755633,49.300247 C 62.755633,49.145253 63.162745,49.020471 63.668439,49.020471 z "
         id="path1991" />
      <path
         sodipodi:type="arc"
         style="fill:url(#radialGradient6350);fill-opacity:1.0000000;stroke:none;stroke-width:1.7625000;stroke-linecap:round;stroke-linejoin:round;stroke-miterlimit:4.0000000;stroke-dashoffset:0.0000000;stroke-opacity:1.0000000"
         id="path2624"
         sodipodi:cx="68.770050"
         sodipodi:cy="55.187164"
         sodipodi:rx="3.1016042"
         sodipodi:ry="2.6737969"
         d="M 71.871654 55.187164 A 3.1016042 2.6737969 0 1 1  65.668446,55.187164 A 3.1016042 2.6737969 0 1 1  71.871654 55.187164 z"
         transform="matrix(1.120690,0.000000,0.000000,1.276254,-8.460259,-15.34257)" />
    </g>
    <g
       id="g6336"
       transform="matrix(0.708779,0.000000,0.000000,0.771837,25.78535,1.631531)">
      <path
         style="fill:url(#linearGradient6339);fill-opacity:1.0000000;stroke:url(#linearGradient6340);stroke-width:1.7750000;stroke-linecap:round;stroke-linejoin:round;stroke-miterlimit:4.0000000;stroke-dashoffset:0.0000000;stroke-opacity:1.0000000"
         d="M 63.668439,49.020471 L 73.831562,49.020471 C 74.337257,49.020471 74.744366,49.145253 74.744366,49.300247 L 74.744366,60.699753 C 74.744366,60.854748 74.337257,60.979529 73.831562,60.979529 L 63.668439,60.979529 C 63.162745,60.979529 62.755633,60.854748 62.755633,60.699753 L 62.755633,49.300247 C 62.755633,49.145253 63.162745,49.020471 63.668439,49.020471 z "
         id="path6337" />
      <path
         sodipodi:type="arc"
         style="fill:url(#radialGradient6341);fill-opacity:1.0000000;stroke:none;stroke-width:1.7625000;stroke-linecap:round;stroke-linejoin:round;stroke-miterlimit:4.0000000;stroke-dashoffset:0.0000000;stroke-opacity:1.0000000"
         id="path6338"
         sodipodi:cx="68.770050"
         sodipodi:cy="55.187164"
         sodipodi:rx="3.1016042"
         sodipodi:ry="2.6737969"
         d="M 71.871654 55.187164 A 3.1016042 2.6737969 0 1 1  65.668446,55.187164 A 3.1016042 2.6737969 0 1 1  71.871654 55.187164 z"
         transform="matrix(1.120690,0.000000,0.000000,1.276254,-8.460259,-15.34257)" />
    </g>
    <g
       id="g6342"
       transform="matrix(0.708779,0.000000,0.000000,0.771837,25.78535,-13.80523)">
      <path
         style="fill:url(#linearGradient6345);fill-opacity:1.0000000;stroke:url(#linearGradient6346);stroke-width:1.7750000;stroke-linecap:round;stroke-linejoin:round;stroke-miterlimit:4.0000000;stroke-dashoffset:0.0000000;stroke-opacity:1.0000000"
         d="M 63.668439,49.020471 L 73.831562,49.020471 C 74.337257,49.020471 74.744366,49.145253 74.744366,49.300247 L 74.744366,60.699753 C 74.744366,60.854748 74.337257,60.979529 73.831562,60.979529 L 63.668439,60.979529 C 63.162745,60.979529 62.755633,60.854748 62.755633,60.699753 L 62.755633,49.300247 C 62.755633,49.145253 63.162745,49.020471 63.668439,49.020471 z "
         id="path6343" />
      <path
         sodipodi:type="arc"
         style="fill:url(#radialGradient6347);fill-opacity:1.0000000;stroke:none;stroke-width:1.7625000;stroke-linecap:round;stroke-linejoin:round;stroke-miterlimit:4.0000000;stroke-dashoffset:0.0000000;stroke-opacity:1.0000000"
         id="path6344"
         sodipodi:cx="68.770050"
         sodipodi:cy="55.187164"
         sodipodi:rx="3.1016042"
         sodipodi:ry="2.6737969"
         d="M 71.871654 55.187164 A 3.1016042 2.6737969 0 1 1  65.668446,55.187164 A 3.1016042 2.6737969 0 1 1  71.871654 55.187164 z"
         transform="matrix(1.120690,0.000000,0.000000,1.276254,-8.460259,-15.34257)" />
    </g>
    <path
       style="fill:url(#linearGradient8665);fill-opacity:1.0000000;stroke:url(#linearGradient8661);stroke-width:1.1784409;stroke-linecap:round;stroke-linejoin:round;stroke-miterlimit:4.0000000;stroke-dashoffset:0.0000000;stroke-opacity:1.0000000"
       d="M 21.462173,0.67538884 L 59.731363,0.67538884 C 60.967554,0.67538884 61.962754,1.4594088 61.962754,2.4332811 L 61.962754,8.2354701 C 61.962754,9.2093427 60.967554,9.9933627 59.731363,9.9933627 L 21.462173,9.9933627 C 20.225983,9.9933627 19.230783,9.2093427 19.230783,8.2354701 L 19.230783,2.4332811 C 19.230783,1.4594088 20.225983,0.67538884 21.462173,0.67538884 z "
       id="rect6351" />
    <g
       id="g8024"
       transform="matrix(0.535806,0.469601,-0.442499,0.452934,-23.19158,-9.991467)">
      <path
         style="fill:#000000;fill-opacity:0.078431375;fill-rule:evenodd;stroke:none;stroke-width:1.0000000pt;stroke-linecap:butt;stroke-linejoin:round;stroke-opacity:1.0000000"
         d="M 94.187500,19.312500 C 67.056731,20.014265 39.972472,39.047961 33.937500,66.187500 C 27.484914,66.740879 17.314593,64.445686 15.437500,73.093750 C 16.466125,84.644845 28.887550,89.138732 35.416292,97.206494 C 41.053986,102.15815 46.464197,108.89487 54.187500,110.15625 C 66.102539,105.37421 73.282395,93.835396 83.186116,86.136705 C 88.536203,82.267466 94.315268,72.174889 86.093750,68.125000 C 82.556313,65.377456 72.100036,69.136429 78.670539,62.577625 C 91.797351,46.191473 121.59749,47.967333 131.40298,67.138714 C 142.10315,84.269141 136.22247,108.84709 119.02639,119.48225 C 107.62620,127.99670 92.595886,129.12263 80.306547,135.47031 C 73.088661,141.61744 82.356160,152.23651 90.156246,149.65337 C 107.73301,150.43268 126.05018,147.18818 140.24121,136.15559 C 163.32081,119.78358 174.32401,87.170632 162.56797,60.808506 C 151.73843,34.494927 122.72383,16.198790 94.187500,19.312500 z "
         id="path7777"
         inkscape:export-filename="/home/rob/icon play/rotateleft.png"
         inkscape:export-xdpi="13.035925"
         inkscape:export-ydpi="13.035925"
         transform="matrix(0.418209,0.000000,0.000000,0.477118,69.40989,-0.255971)" />
      <path
         style="fill:#000000;fill-opacity:0.078431375;fill-rule:evenodd;stroke:none;stroke-width:1.0000000pt;stroke-linecap:butt;stroke-linejoin:round;stroke-opacity:1.0000000"
         d="M 90.812500,21.375000 C 65.222945,23.613419 40.356348,42.120592 35.437500,68.093750 C 29.660544,69.653010 20.404409,65.461770 17.406250,72.781250 C 17.609286,82.505348 28.511428,86.255130 33.865076,93.006924 C 40.182551,98.219298 45.548619,105.63633 53.406250,108.31250 C 63.260520,105.18841 68.743897,95.462003 76.675346,89.425166 C 81.208107,84.775524 88.753958,80.443639 88.375000,73.187500 C 85.401826,67.360916 78.343927,68.762007 73.031250,68.812500 C 80.901881,46.410257 115.13172,42.724944 129.44381,60.861281 C 144.07036,77.397918 141.43314,105.57269 123.41937,118.62534 C 111.90544,128.85588 96.169014,130.83596 82.406250,136.21875 C 75.676250,140.57879 82.464334,149.42984 88.998969,147.64209 C 103.58635,148.10919 118.81526,147.14942 131.60843,139.30904 C 155.63435,126.66761 170.65555,97.693763 163.75038,70.892248 C 156.79620,40.360650 125.44067,17.802235 94.220577,21.306323 C 93.084551,21.329216 91.948526,21.352108 90.812500,21.375000 z "
         id="path7775"
         inkscape:export-filename="/home/rob/icon play/rotateleft.png"
         inkscape:export-xdpi="13.035925"
         inkscape:export-ydpi="13.035925"
         transform="matrix(0.418209,0.000000,0.000000,0.477118,69.40989,-0.255971)" />
      <path
         style="fill:#000000;fill-opacity:0.078431375;fill-rule:evenodd;stroke:none;stroke-width:1.0000000pt;stroke-linecap:butt;stroke-linejoin:round;stroke-opacity:1.0000000"
         d="M 90.843750,23.375000 C 65.741149,25.462978 41.206932,43.949088 37.125000,69.593750 C 32.186541,72.673863 23.640188,67.291875 19.406250,72.656250 C 18.642102,80.362572 28.250483,83.517632 32.305352,88.810008 C 39.264249,94.416520 45.093397,102.05404 52.750000,106.40625 C 61.247856,104.43585 65.524673,95.542798 72.398301,90.793953 C 77.109172,85.429709 84.959895,81.397099 86.750000,74.343750 C 83.644009,68.092740 75.572112,71.781762 70.250000,70.750000 C 73.863513,53.329070 94.559075,44.486793 110.94427,48.003380 C 133.32124,51.467611 145.82969,77.769034 139.50230,98.389013 C 134.35729,117.87113 115.07651,129.06748 96.662041,133.60645 C 91.801581,136.29117 83.070494,134.83901 81.375000,141.06250 C 82.728492,148.46689 92.139155,144.50830 97.375000,145.56250 C 130.30547,147.48500 162.69018,119.96582 163.29138,86.395078 C 164.87810,53.594999 135.72675,24.002526 103.23796,23.124628 C 99.115729,23.019348 94.970801,23.329640 90.843750,23.375000 z "
         id="path7120"
         inkscape:export-filename="/home/rob/icon play/rotateleft.png"
         inkscape:export-xdpi="13.035925"
         inkscape:export-ydpi="13.035925"
         transform="matrix(0.418209,0.000000,0.000000,0.477118,69.40989,-0.255971)" />
      <path
         style="fill:url(#linearGradient8032);fill-opacity:1.0000000;fill-rule:evenodd;stroke:url(#linearGradient8033);stroke-width:1.0000000pt;stroke-linecap:butt;stroke-linejoin:round;stroke-opacity:1.0000000"
         d="M -448.03384,-129.58558 C -454.43732,-129.58558 -459.92388,-125.75075 -460.78384,-118.83558 L -464.61509,-118.86683 L -457.87759,-112.39808 L -451.44009,-118.74183 L -455.38667,-118.77308 C -454.96436,-123.44566 -450.83712,-125.96058 -446.87759,-125.96058 C -442.00465,-125.96058 -438.06509,-121.43250 -438.06509,-115.86683 C -438.06509,-110.30116 -442.37348,-106.47136 -446.76330,-105.08737 L -451.22938,-103.67933 L -448.03384,-103.64808 C -440.87539,-103.57808 -435.06509,-109.45659 -435.06509,-116.61683 C -435.06509,-123.77706 -440.87360,-129.58558 -448.03384,-129.58558 z "
         id="path6383"
         sodipodi:nodetypes="ccccccccscscc"
         transform="matrix(1.938059,0.000000,0.000000,2.108808,979.2211,285.8622)" />
      <path
         style="fill:url(#radialGradient8034);fill-opacity:1.0000000;fill-rule:evenodd;stroke:none;stroke-width:1.0000000pt;stroke-linecap:butt;stroke-linejoin:round;stroke-opacity:1.0000000"
         d="M 99.218750,26.937500 C 69.543820,26.937499 44.110216,43.873230 40.125000,74.437500 L 22.375000,74.312500 L 34.156250,85.093750 C 33.751282,82.879901 33.653735,80.759829 35.375000,80.218750 C 39.380756,78.959538 49.280616,89.077606 49.187500,81.250000 C 51.328154,61.190953 61.553426,36.395923 101.75000,32.070001 C 103.10435,31.720988 104.56473,28.288870 105.56250,27.250000 C 103.48090,27.041871 101.35795,26.937500 99.218750,26.937500 z "
         id="path6387"
         sodipodi:nodetypes="ccccccccc"
         transform="matrix(0.418209,0.000000,0.000000,0.477118,69.40989,-0.255971)" />
      <path
         style="fill:url(#linearGradient8035);fill-opacity:1.0000000;fill-rule:evenodd;stroke:none;stroke-width:1.0000000pt;stroke-linecap:butt;stroke-linejoin:round;stroke-opacity:1.0000000"
         d="M 99.220955,26.926580 C 69.546025,26.926580 44.120274,43.876095 40.135058,74.440365 L 22.380325,74.302243 L 53.603167,102.89339 L 83.435752,74.854729 L 65.146559,74.716608 C 67.103622,54.064332 86.230029,42.948670 104.57923,42.948670 C 127.16136,42.948670 145.41802,62.962272 145.41802,87.561904 C 145.41802,112.16154 125.45213,129.08882 105.10888,135.20590 L 84.412222,141.42928 L 99.220955,141.56740 C 132.39456,141.87679 159.32058,115.89444 159.32058,84.246989 C 159.32058,52.599582 132.40285,26.926580 99.220955,26.926580 z "
         id="path6388"
         sodipodi:nodetypes="ccccccccscscc"
         transform="matrix(0.418209,0.000000,0.000000,0.477118,69.40989,-0.255971)" />
      <path
         style="fill:url(#radialGradient8036);fill-opacity:1.0000000;fill-rule:evenodd;stroke:none;stroke-width:1.0000000pt;stroke-linecap:butt;stroke-linejoin:round;stroke-opacity:1.0000000"
         d="M 53.187500,102.56250 L 53.593750,102.90625 L 83.437500,74.843750 L 65.156250,74.718750 C 67.113312,54.066476 52.875360,83.179025 53.187500,102.56250 z "
         id="path6389"
         sodipodi:nodetypes="ccccc"
         transform="matrix(0.418209,0.000000,0.000000,0.477118,69.40989,-0.255971)" />
    </g>
  </g>
</svg>
