<?xml version="1.0" encoding="UTF-8" standalone="no"?>
<!DOCTYPE svg PUBLIC "-//W3C//DTD SVG 20010904//EN"
"http://www.w3.org/TR/2001/REC-SVG-20010904/DTD/svg10.dtd">
<!-- Created with Inkscape (http://www.inkscape.org/) -->
<svg
   width="64pt"
   height="64pt"
   id="svg1640"
   sodipodi:version="0.32"
   inkscape:version="0.40"
   sodipodi:docbase="/home/nuno/kdeplayground-artwork/oooicons/crystalsvg"
   sodipodi:docname="newmath.svg"
   inkscape:export-filename="/home/nuno/kdeplayground-artwork/oooicons/crystalsvg/newmath.png"
   inkscape:export-xdpi="36.000000"
   inkscape:export-ydpi="36.000000"
   xmlns="http://www.w3.org/2000/svg"
   xmlns:cc="http://web.resource.org/cc/"
   xmlns:inkscape="http://www.inkscape.org/namespaces/inkscape"
   xmlns:sodipodi="http://sodipodi.sourceforge.net/DTD/sodipodi-0.dtd"
   xmlns:rdf="http://www.w3.org/1999/02/22-rdf-syntax-ns#"
   xmlns:xml="http://www.w3.org/XML/1998/namespace"
   xmlns:dc="http://purl.org/dc/elements/1.1/"
   xmlns:xlink="http://www.w3.org/1999/xlink">
  <defs
     id="defs3">
    <linearGradient
       inkscape:collect="always"
       xlink:href="#graytolightgray"
       id="linearGradient1101"
       gradientUnits="userSpaceOnUse"
       gradientTransform="matrix(0.214385,0.000000,0.000000,0.222911,-2.249618,-2.863705)"
       x1="122.43015"
       y1="59.053604"
       x2="272.46765"
       y2="323.76923" />
    <linearGradient
       id="graytolightgray">
      <stop
         style="stop-color:#d4d3d3;stop-opacity:1.0000000;"
         offset="0.0000000"
         id="stop5101" />
      <stop
         style="stop-color:#ffffff;stop-opacity:1.0000000;"
         offset="1.0000000"
         id="stop5102" />
    </linearGradient>
    <linearGradient
       inkscape:collect="always"
       xlink:href="#graytolightgray"
       id="linearGradient1104"
       gradientUnits="userSpaceOnUse"
       gradientTransform="matrix(0.214385,0.000000,0.000000,0.227898,-2.790318,-2.735105)"
       x1="284.17496"
       y1="340.20792"
       x2="330.93881"
       y2="273.80606" />
    <linearGradient
       id="light75to0">
      <stop
         style="stop-color:#ffffff;stop-opacity:0.72916669;"
         offset="0.0000000"
         id="stop2769" />
      <stop
         style="stop-color:#ffffff;stop-opacity:0.0000000;"
         offset="1.0000000"
         id="stop2770" />
    </linearGradient>
    <radialGradient
       inkscape:collect="always"
       xlink:href="#light75to0"
       id="radialGradient1100"
       gradientUnits="userSpaceOnUse"
       gradientTransform="matrix(0.261654,0.000000,0.000000,0.186725,-2.247908,-3.140665)"
       cx="53.182602"
       cy="52.577991"
       fx="53.182602"
       fy="52.577991"
       r="508.29517" />
    <linearGradient
       inkscape:collect="always"
       xlink:href="#garylighttowite"
       id="linearGradient1103"
       gradientUnits="userSpaceOnUse"
       gradientTransform="matrix(0.214385,0.000000,0.000000,0.231200,-2.534998,-3.916867)"
       x1="245.91402"
       y1="248.01839"
       x2="561.86395"
       y2="513.91156" />
    <linearGradient
       id="garylighttowite">
      <stop
         style="stop-color:#7d7d7d;stop-opacity:1.0000000;"
         offset="0.0000000"
         id="stop5106" />
      <stop
         style="stop-color:#d3d4d4;stop-opacity:1.0000000;"
         offset="1.0000000"
         id="stop5107" />
    </linearGradient>
    <linearGradient
       inkscape:collect="always"
       xlink:href="#garylighttowite"
       id="linearGradient1102"
       gradientUnits="userSpaceOnUse"
       gradientTransform="matrix(0.214385,0.000000,0.000000,0.227898,-2.162038,-2.754465)"
       x1="-37.332329"
       y1="-50.289883"
       x2="578.44397"
       y2="648.29797" />
    <linearGradient
       id="light75to25">
      <stop
         style="stop-color:#ffffff;stop-opacity:0.72941178;"
         offset="0.0000000"
         id="stop2774" />
      <stop
         style="stop-color:#ffffff;stop-opacity:0.26249999;"
         offset="1.0000000"
         id="stop2775" />
    </linearGradient>
    <linearGradient
       id="shadow100to0">
      <stop
         style="stop-color:#000000;stop-opacity:1.0000000;"
         offset="0.0000000"
         id="stop3425" />
      <stop
         style="stop-color:#000000;stop-opacity:0.0000000;"
         offset="1.0000000"
         id="stop3426" />
    </linearGradient>
    <linearGradient
       id="greandraktoblack">
      <stop
         style="stop-color:#007c00;stop-opacity:1.0000000;"
         offset="0.0000000"
         id="stop7328" />
      <stop
         style="stop-color:#025a00;stop-opacity:1.0000000;"
         offset="1.0000000"
         id="stop7329" />
    </linearGradient>
    <linearGradient
       id="graytoblack">
      <stop
         style="stop-color:#7d7d7d;stop-opacity:1.0000000;"
         offset="0.0000000"
         id="stop5097" />
      <stop
         style="stop-color:#000000;stop-opacity:1.0000000;"
         offset="1.0000000"
         id="stop5098" />
    </linearGradient>
    <linearGradient
       id="light100to0">
      <stop
         style="stop-color:#ffffff;stop-opacity:1.0000000;"
         offset="0.0000000"
         id="stop2764" />
      <stop
         style="stop-color:#ffffff;stop-opacity:0.0000000;"
         offset="1.0000000"
         id="stop2765" />
    </linearGradient>
    <linearGradient
       inkscape:collect="always"
       xlink:href="#graytoblack"
       id="linearGradient4286"
       gradientTransform="matrix(0.679470,0.000000,5.818723e-2,0.840118,9.452375,13.36330)"
       x1="49.631966"
       y1="3.6434994"
       x2="51.303749"
       y2="54.466740"
       gradientUnits="userSpaceOnUse" />
    <radialGradient
       inkscape:collect="always"
       xlink:href="#light100to0"
       id="radialGradient4912"
       gradientTransform="matrix(0.772924,0.000000,3.954076e-2,0.570902,12.81670,15.93396)"
       cx="39.658875"
       cy="93.210815"
       fx="39.658875"
       fy="93.210815"
       r="31.372257"
       gradientUnits="userSpaceOnUse" />
    <linearGradient
       inkscape:collect="always"
       xlink:href="#graytoblack"
       id="linearGradient6783"
       gradientTransform="matrix(0.679469,0.000000,5.818726e-2,0.840116,9.452374,13.36329)"
       x1="11.701684"
       y1="-1.7505991"
       x2="74.807991"
       y2="66.054550"
       gradientUnits="userSpaceOnUse" />
    <linearGradient
       inkscape:collect="always"
       xlink:href="#light100to0"
       id="linearGradient8655"
       gradientTransform="matrix(0.918212,0.000000,3.328444e-2,0.480570,14.66715,15.93396)"
       x1="2.8723915"
       y1="-19.730782"
       x2="35.233940"
       y2="39.107815"
       gradientUnits="userSpaceOnUse" />
  </defs>
  <sodipodi:namedview
     id="base"
     pagecolor="#ffffff"
     bordercolor="#666666"
     borderopacity="1.0"
     inkscape:pageopacity="0.0"
     inkscape:pageshadow="2"
     inkscape:zoom="5.9218750"
     inkscape:cx="32.000000"
     inkscape:cy="28.382277"
     inkscape:current-layer="layer1"
     showgrid="true"
     inkscape:grid-bbox="true"
     gridspacingy="1.0000000pt"
     gridspacingx="1.0000000pt"
     gridoriginy="0.0000000pt"
     gridoriginx="0.0000000pt"
     inkscape:window-width="878"
     inkscape:window-height="732"
     inkscape:window-x="168"
     inkscape:window-y="126" />
  <metadata
     id="metadata4">
    <rdf:RDF
       id="RDF5">
      <cc:Work
         rdf:about=""
         id="Work6">
        <dc:format
           id="format7">image/svg+xml</dc:format>
        <dc:type
           id="type9"
           rdf:resource="http://purl.org/dc/dcmitype/StillImage" />
      </cc:Work>
    </rdf:RDF>
  </metadata>
  <g
     id="layer1"
     inkscape:label="Layer 1"
     inkscape:groupmode="layer">
    <path
       style="fill:#cbcbcb;fill-opacity:1.0000000;fill-rule:evenodd;stroke:none;stroke-width:0.25000000pt;stroke-linecap:butt;stroke-linejoin:miter;stroke-opacity:1.0000000"
       d="M 39.367655,4.9353960 L 75.117752,4.5814350 L 75.117752,58.914500 L 55.295912,79.798218 L 10.696787,79.798218 L 10.519806,69.533340 L 39.367655,4.9353960 z "
       id="path1105"
       sodipodi:nodetypes="ccccccc"
       inkscape:export-xdpi="48.818890"
       inkscape:export-ydpi="48.818890" />
    <path
       style="fill:#ffffff;fill-opacity:1.0000000;fill-rule:evenodd;stroke:none;stroke-width:0.25000000pt;stroke-linecap:butt;stroke-linejoin:miter;stroke-opacity:1.0000000"
       d="M 8.9269800,2.2806860 L 72.463042,2.4576660 L 72.109082,56.436770 L 53.172142,76.435586 L 8.7500000,76.966528 L 8.9269800,2.2806860 z "
       id="path1727" />
    <path
       d="M 70.353922,3.7435450 L 10.368999,3.7435450 L 10.279794,74.927246 L 52.954192,74.927246 L 70.353922,56.789691 L 70.353922,3.7435450 z "
       id="path146"
       style="fill:url(#linearGradient1101);fill-opacity:1.0000000" />
    <path
       d="M 71.947222,2.6739800 C 71.947222,3.5273780 71.947222,56.452134 71.947222,56.807932 C 71.712352,57.057603 53.652222,76.255193 53.417352,76.505731 C 53.084282,76.505731 9.7527470,76.505731 8.9515780,76.505731 C 8.9515780,75.651470 8.9515780,3.5291220 8.9515780,2.6748510 C 9.7543790,2.6739800 71.145232,2.6739800 71.947222,2.6739800 z M 72.356382,1.8040490 L 8.1332370,1.8040490 L 8.1332370,77.374795 L 53.756152,77.374795 L 72.765562,57.167220 L 72.765562,1.8040490 L 72.356382,1.8040490 z "
       id="path225"
       style="fill:url(#linearGradient1102);fill-opacity:1.0000000" />
    <path
       style="font-size:28.000000;font-style:normal;font-variant:normal;font-weight:normal;font-stretch:normal;fill:none;fill-opacity:1.0000000;stroke:#000000;stroke-width:1.4544059;stroke-linecap:butt;stroke-linejoin:round;stroke-miterlimit:4.0000000;stroke-opacity:0.078124948;font-family:Symath;text-anchor:start;writing-mode:lr"
       d="M 26.847096,18.069195 C 24.310602,18.224355 23.813166,20.688083 24.876938,22.477393 L 37.592046,41.657271 L 22.015731,62.916436 C 20.580276,64.561768 20.945235,67.303758 24.994965,67.379772 L 53.864624,67.385784 C 55.038241,67.311505 55.968803,66.484758 56.404984,65.548252 L 59.847938,56.074743 C 60.204098,55.125351 59.131443,54.409731 58.496871,54.114120 C 57.870196,53.822187 57.006340,54.242536 56.658615,54.934120 L 52.806110,60.031425 L 31.015005,60.183350 L 44.530185,41.394784 C 45.200757,40.375456 45.120108,39.210908 44.592554,38.351615 L 35.182290,24.468893 L 52.383038,24.316967 L 55.460408,30.524794 C 55.695196,31.216379 56.449565,31.557615 57.175076,31.300418 L 57.786368,31.072293 C 58.488468,30.818266 58.923783,30.086362 58.790412,29.384172 L 56.659215,20.789745 C 56.199804,19.134029 55.296816,17.878143 53.242018,17.917269 L 26.847096,18.069195 z "
       id="path7411"
       sodipodi:nodetypes="ccccccccscccccccccccccc" />
    <path
       style="font-size:28.000000;font-style:normal;font-variant:normal;font-weight:normal;font-stretch:normal;fill:none;fill-opacity:1.0000000;stroke:#000000;stroke-width:3.3432453;stroke-linecap:butt;stroke-linejoin:round;stroke-miterlimit:4.0000000;stroke-opacity:0.078124948;font-family:Symath;text-anchor:start;writing-mode:lr"
       d="M 26.847096,18.069195 C 24.310602,18.224355 23.813166,20.688083 24.876938,22.477393 L 37.592046,41.657271 L 22.015731,62.916436 C 20.580276,64.561768 20.945235,67.303758 24.994965,67.379772 L 53.864624,67.385784 C 55.038241,67.311505 55.968803,66.484758 56.404984,65.548252 L 59.847938,56.074743 C 60.204098,55.125351 59.131443,54.409731 58.496871,54.114120 C 57.870196,53.822187 57.006340,54.242536 56.658615,54.934120 L 52.806110,60.031425 L 31.015005,60.183350 L 44.530185,41.394784 C 45.200757,40.375456 45.120108,39.210908 44.592554,38.351615 L 35.182290,24.468893 L 52.383038,24.316967 L 55.460408,30.524794 C 55.695196,31.216379 56.449565,31.557615 57.175076,31.300418 L 57.786368,31.072293 C 58.488468,30.818266 58.923783,30.086362 58.790412,29.384172 L 56.659215,20.789745 C 56.199804,19.134029 55.296816,17.878143 53.242018,17.917269 L 26.847096,18.069195 z "
       id="path7410"
       sodipodi:nodetypes="ccccccccscccccccccccccc" />
    <text
       xml:space="preserve"
       style="font-size:12.000000;font-style:normal;font-variant:normal;font-weight:normal;font-stretch:normal;fill:#000000;fill-opacity:1.0000000;stroke:none;stroke-width:1.0000000pt;stroke-linecap:butt;stroke-linejoin:miter;stroke-opacity:1.0000000;font-family:Symbol;text-anchor:start;writing-mode:lr"
       x="27.229551"
       y="50.026386"
       id="text1094"
       sodipodi:linespacing="100%"
       transform="matrix(4.412595,0.000000,0.000000,1.000000,-6.402987,0.000000)"><tspan
         x="27.229551"
         y="50.026386"
         sodipodi:role="line"
         id="tspan1097">UvkhgckgsbdlhvsldkjqdfvqlwkdhnW</tspan></text>
    <path
       style="font-size:28.000000;font-style:normal;font-variant:normal;font-weight:normal;font-stretch:normal;fill:url(#linearGradient4286);fill-opacity:1.0000000;stroke:none;stroke-width:1.9279048;stroke-linecap:butt;stroke-linejoin:round;stroke-miterlimit:4.0000000;stroke-opacity:1.0000000;font-family:Symath;text-anchor:start;writing-mode:lr"
       d="M 26.847096,18.069195 C 24.310602,18.224355 23.813166,20.688083 24.876938,22.477393 L 37.592046,41.657271 L 22.015731,62.916436 C 20.580276,64.561768 20.945235,67.303758 24.994965,67.379772 L 53.864624,67.385784 C 55.038241,67.311505 55.968803,66.484758 56.404984,65.548252 L 59.847938,56.074743 C 60.204098,55.125351 59.131443,54.409731 58.496871,54.114120 C 57.870196,53.822187 57.006340,54.242536 56.658615,54.934120 L 52.806110,60.031425 L 31.015005,60.183350 L 44.530185,41.394784 C 45.200757,40.375456 45.120108,39.210908 44.592554,38.351615 L 35.182290,24.468893 L 52.383038,24.316967 L 55.460408,30.524794 C 55.695196,31.216379 56.449565,31.557615 57.175076,31.300418 L 57.786368,31.072293 C 58.488468,30.818266 58.923783,30.086362 58.790412,29.384172 L 56.659215,20.789745 C 56.199804,19.134029 55.296816,17.878143 53.242018,17.917269 L 26.847096,18.069195 z "
       id="path1748"
       sodipodi:nodetypes="ccccccccscccccccccccccc" />
    <path
       style="font-size:28.000000;font-style:normal;font-variant:normal;font-weight:normal;font-stretch:normal;fill:url(#radialGradient4912);fill-opacity:1.0000000;stroke:none;stroke-width:1.9279048;stroke-linecap:butt;stroke-linejoin:round;stroke-miterlimit:4.0000000;stroke-opacity:1.0000000;font-family:Symath;text-anchor:start;writing-mode:lr"
       d="M 37.592046,41.657271 L 22.015731,62.916436 C 20.580276,64.561768 20.945235,67.303758 24.994965,67.379772 L 53.864624,67.385784 C 55.038241,67.311505 55.968803,66.484758 56.404984,65.548252 L 59.847938,56.074743 C 60.204098,55.125351 59.131443,54.409731 58.496871,54.114120 C 57.870196,53.822187 57.006340,54.242536 56.658615,54.934120 L 52.806110,60.031425 L 31.015005,60.183350 L 44.530185,41.394784 C 45.200757,40.375456 45.120108,39.210908 44.592554,38.351615 L 37.592046,41.657271 z "
       id="path4288"
       sodipodi:nodetypes="ccccccscccccc" />
    <path
       style="font-size:28.000000;font-style:normal;font-variant:normal;font-weight:normal;font-stretch:normal;fill:none;fill-opacity:1.0000000;stroke:url(#linearGradient6783);stroke-width:1.4566009;stroke-linecap:butt;stroke-linejoin:round;stroke-miterlimit:4.0000000;stroke-opacity:1.0000000;font-family:Symath;text-anchor:start;writing-mode:lr"
       d="M 26.847096,18.069195 C 24.310602,18.224355 23.813166,20.688083 24.876938,22.477393 L 37.592046,41.657271 L 22.015731,62.916436 C 20.580276,64.561768 20.945235,67.303758 24.994965,67.379772 L 53.864624,67.385784 C 55.038241,67.311505 55.968803,66.484758 56.404984,65.548252 L 59.847938,56.074743 C 60.204098,55.125351 59.131443,54.409731 58.496871,54.114120 C 57.870196,53.822187 57.006340,54.242536 56.658615,54.934120 L 52.806110,60.031425 L 31.015005,60.183350 L 44.530185,41.394784 C 45.200757,40.375456 45.120108,39.210908 44.592554,38.351615 L 35.182290,24.468893 L 52.383038,24.316967 L 55.460408,30.524794 C 55.695196,31.216379 56.449565,31.557615 57.175076,31.300418 L 57.786368,31.072293 C 58.488468,30.818266 58.923783,30.086362 58.790412,29.384172 L 56.659215,20.789745 C 56.199804,19.134029 55.296816,17.878143 53.242018,17.917269 L 26.847096,18.069195 z "
       id="path6158"
       sodipodi:nodetypes="ccccccccscccccccccccccc" />
    <path
       style="font-size:28.000000;font-style:normal;font-variant:normal;font-weight:normal;font-stretch:normal;fill:url(#linearGradient8655);fill-opacity:1.0000000;stroke:none;stroke-width:1.9279048;stroke-linecap:butt;stroke-linejoin:round;stroke-miterlimit:4.0000000;stroke-opacity:1.0000000;font-family:Symath;text-anchor:start;writing-mode:lr"
       d="M 28.297638,18.475298 C 26.288436,18.337474 24.608298,20.028834 26.156635,22.641702 L 34.001091,34.943806 C 37.183138,33.541986 29.203070,25.006022 30.570658,22.643718 C 31.628277,20.816838 44.402772,19.287368 52.465480,21.107172 C 53.231680,21.280109 53.524985,22.384871 54.054736,23.023721 C 55.253699,24.469595 56.499247,22.499005 56.027558,21.100136 C 55.555870,19.701267 53.985755,18.628421 51.914968,18.616077 L 28.297638,18.475298 z "
       id="path4913"
       sodipodi:nodetypes="cccsssssc" />
    <path
       d="M 53.586752,76.202696 L 72.357202,56.250000 L 53.586752,56.250000 L 53.586752,76.202696 z "
       id="path163"
       style="fill:#ffffff" />
    <path
       d="M 54.258772,75.836993 L 70.777952,58.278333 L 54.258772,58.278333 L 54.258772,75.836993 z "
       id="path178"
       style="fill:url(#linearGradient1104);fill-opacity:1.0000000" />
    <path
       d="M 53.213822,56.250000 C 52.987952,56.250000 52.804642,56.447692 52.804642,56.691267 L 52.804642,76.933071 C 52.804642,77.112226 52.904482,77.272842 53.057512,77.341682 C 53.210542,77.408755 53.386482,77.372573 53.503512,77.245486 L 72.273142,57.003683 C 72.390172,56.877481 72.425362,56.687743 72.362342,56.522707 C 72.298512,56.357672 72.149572,56.250000 71.983442,56.250000 L 53.213822,56.250000 z M 70.995702,57.132536 C 69.750992,58.474867 54.867702,74.524641 53.622992,75.867857 C 53.622992,73.999530 53.622992,57.932996 53.622992,57.132536 C 54.363592,57.132536 69.263252,57.132536 70.995702,57.132536 z "
       id="path210"
       style="fill:url(#linearGradient1103);fill-opacity:1.0000000" />
    <path
       d="M 70.507762,10.260661 L 70.507762,3.5665640 L 10.333805,3.5665640 L 10.279794,42.336693 C 33.393850,50.282180 66.850572,30.229888 70.507762,10.260661 z "
       id="path195"
       style="fill:url(#radialGradient1100);fill-opacity:1.0000000"
       sodipodi:nodetypes="ccccc" />
  </g>
</svg>
