<?xml version="1.0" encoding="UTF-8" standalone="no"?>
<!-- Created with Inkscape (http://www.inkscape.org/) -->
<svg
   xmlns:dc="http://purl.org/dc/elements/1.1/"
   xmlns:cc="http://web.resource.org/cc/"
   xmlns:rdf="http://www.w3.org/1999/02/22-rdf-syntax-ns#"
   xmlns:svg="http://www.w3.org/2000/svg"
   xmlns="http://www.w3.org/2000/svg"
   xmlns:xlink="http://www.w3.org/1999/xlink"
   xmlns:sodipodi="http://inkscape.sourceforge.net/DTD/sodipodi-0.dtd"
   xmlns:inkscape="http://www.inkscape.org/namespaces/inkscape"
   inkscape:export-ydpi="36.000000"
   inkscape:export-xdpi="36.000000"
   inkscape:export-filename="/home/nuno/kdeplayground-artwork/oooicons/crystalsvg/word.png"
   sodipodi:docname="openurl.svg"
   sodipodi:docbase="/home/nuno/kdeplayground-artwork/oooicons/crystalsvg"
   inkscape:version="0.41"
   sodipodi:version="0.32"
   id="svg8773"
   height="64pt"
   width="64pt">
  <defs
     id="defs3">
    <linearGradient
       id="linearGradient10104">
      <stop
         id="stop10105"
         offset="0.0000000"
         style="stop-color:#434fae;stop-opacity:0.0000000;" />
      <stop
         id="stop10108"
         offset="0.50000000"
         style="stop-color:#434fae;stop-opacity:0.0000000;" />
      <stop
         id="stop10109"
         offset="0.75000000"
         style="stop-color:#434fae;stop-opacity:0.0000000;" />
      <stop
         id="stop10110"
         offset="0.87500000"
         style="stop-color:#434fae;stop-opacity:0.079166666;" />
      <stop
         id="stop10106"
         offset="1.0000000"
         style="stop-color:#434fae;stop-opacity:0.36470589;" />
    </linearGradient>
    <linearGradient
       id="light100to0">
      <stop
         id="stop2764"
         offset="0.0000000"
         style="stop-color:#ffffff;stop-opacity:1.0000000;" />
      <stop
         id="stop2765"
         offset="1.0000000"
         style="stop-color:#ffffff;stop-opacity:0.0000000;" />
    </linearGradient>
    <linearGradient
       gradientTransform="matrix(0.600935,0.000000,0.000000,0.604436,2.779455,2.266125)"
       y2="119.19500"
       x2="61.847599"
       y1="-20.895500"
       x1="61.847698"
       gradientUnits="userSpaceOnUse"
       id="linearGradient1829"
       xlink:href="#bluelightlesstoblue"
       inkscape:collect="always" />
    <radialGradient
       gradientUnits="userSpaceOnUse"
       id="bluelightlesstoblue"
       fy="112.96090"
       fx="38.797401"
       r="67.358803"
       cy="112.96090"
       cx="38.797401">
      <stop
         id="stop3468"
         offset="0.0055999998"
         style="stop-color:#d9ffff;stop-opacity:1.0000000;" />
      <stop
         id="stop3469"
         offset="0.24089479"
         style="stop-color:#6eaafe;stop-opacity:1.0000000;" />
      <stop
         id="stop3470"
         offset="1.0000000"
         style="stop-color:#0356fe;stop-opacity:1.0000000;" />
    </radialGradient>
    <radialGradient
       gradientTransform="matrix(0.600935,0.000000,0.000000,0.604436,0.841014,-0.536171)"
       r="73.983902"
       fy="113.84200"
       fx="66.165001"
       cy="113.84200"
       cx="66.165001"
       gradientUnits="userSpaceOnUse"
       id="radialGradient1828"
       xlink:href="#bluelightlesstoblue"
       inkscape:collect="always" />
    <radialGradient
       r="124.75400"
       fy="130.22200"
       fx="61.089401"
       cy="130.22200"
       cx="61.089401"
       gradientTransform="matrix(0.600935,0.000000,0.000000,0.572945,2.856511,5.223199)"
       gradientUnits="userSpaceOnUse"
       id="radialGradient4420"
       xlink:href="#blueligtmoretoblue"
       inkscape:collect="always" />
    <radialGradient
       gradientUnits="userSpaceOnUse"
       id="blueligtmoretoblue"
       fy="112.96090"
       fx="38.797401"
       r="67.358803"
       cy="112.96090"
       cx="38.797401">
      <stop
         id="stop3457"
         offset="0.0055999998"
         style="stop-color:#d9ffff;stop-opacity:1.0000000;" />
      <stop
         id="stop3465"
         offset="0.74217570"
         style="stop-color:#6eaafe;stop-opacity:1.0000000;" />
      <stop
         id="stop3463"
         offset="1.0000000"
         style="stop-color:#0356fe;stop-opacity:1.0000000;" />
    </radialGradient>
    <radialGradient
       gradientTransform="matrix(0.600935,0.000000,0.000000,0.604436,2.875454,2.471947)"
       r="130.18401"
       fy="130.47501"
       fx="61.042000"
       cy="130.47501"
       cx="61.042000"
       gradientUnits="userSpaceOnUse"
       id="radialGradient1826"
       xlink:href="#blueligtmoretoblue"
       inkscape:collect="always" />
    <radialGradient
       gradientUnits="userSpaceOnUse"
       r="39.686270"
       fy="40.946151"
       fx="40.926466"
       cy="40.946151"
       cx="40.926466"
       gradientTransform="matrix(0.946726,0.000000,0.000000,0.946819,1.266695,1.279073)"
       id="radialGradient10107"
       xlink:href="#linearGradient10104"
       inkscape:collect="always" />
    <radialGradient
       gradientUnits="userSpaceOnUse"
       r="67.357605"
       fy="9.8876038"
       fx="32.163441"
       cy="9.8876038"
       cx="32.163441"
       gradientTransform="scale(1.197012,0.835414)"
       id="radialGradient11354"
       xlink:href="#light100to0"
       inkscape:collect="always" />
    <radialGradient
       r="105.02886"
       fy="224.28973"
       fx="328.27005"
       cy="224.77423"
       cx="330.11304"
       gradientTransform="scale(0.884934,1.130028)"
       gradientUnits="userSpaceOnUse"
       id="radialGradient4148"
       xlink:href="#light90to0"
       inkscape:collect="always" />
    <linearGradient
       y2="145.69553"
       x2="299.20441"
       y1="96.190353"
       x1="304.64722"
       gradientTransform="scale(0.714810,1.398973)"
       gradientUnits="userSpaceOnUse"
       id="linearGradient4147"
       xlink:href="#light90to0"
       inkscape:collect="always" />
    <linearGradient
       y2="154.10789"
       x2="409.73569"
       y1="234.90770"
       x1="149.29594"
       gradientTransform="scale(0.714810,1.398973)"
       gradientUnits="userSpaceOnUse"
       id="linearGradient4146"
       xlink:href="#linearGradient5170"
       inkscape:collect="always" />
    <linearGradient
       y2="663.16483"
       x2="60.867612"
       y1="615.31271"
       x1="41.779896"
       gradientTransform="matrix(1.420134,0.000000,0.000000,0.704159,83.03569,-296.1794)"
       gradientUnits="userSpaceOnUse"
       id="linearGradient1728"
       xlink:href="#linearGradient1977"
       inkscape:collect="always" />
    <linearGradient
       y2="161.92829"
       x2="198.39225"
       y1="60.572344"
       x1="97.402560"
       gradientTransform="translate(319.1740,-32.09233)"
       gradientUnits="userSpaceOnUse"
       id="linearGradient1727"
       xlink:href="#bluedarktoblackblue"
       inkscape:collect="always" />
    <linearGradient
       y2="162.00951"
       x2="198.46415"
       y1="61.125619"
       x1="97.116622"
       gradientTransform="translate(319.1740,-32.09233)"
       gradientUnits="userSpaceOnUse"
       id="linearGradient1726"
       xlink:href="#bluelignonlinblu"
       inkscape:collect="always" />
    <radialGradient
       gradientTransform="scale(1.070145,0.934453)"
       gradientUnits="userSpaceOnUse"
       xlink:href="#light100to75to0"
       collect="always"
       id="radialGradient8468"
       fy="124.24324"
       fx="241.64339"
       r="21.891247"
       cy="124.61842"
       cx="240.99001" />
    <radialGradient
       gradientTransform="scale(1.070145,0.934453)"
       gradientUnits="userSpaceOnUse"
       xlink:href="#light100to75to0"
       collect="always"
       id="radialGradient8466"
       fy="84.849380"
       fx="241.31670"
       r="28.168228"
       cy="84.474205"
       cx="241.64339" />
    <radialGradient
       gradientTransform="scale(1.070145,0.934453)"
       gradientUnits="userSpaceOnUse"
       xlink:href="#light100to75to0"
       collect="always"
       id="radialGradient8460"
       fy="130.24611"
       fx="29.941795"
       r="10.460715"
       cy="130.24611"
       cx="29.941795" />
    <radialGradient
       gradientTransform="scale(1.070145,0.934453)"
       gradientUnits="userSpaceOnUse"
       xlink:href="#light100to75to0"
       collect="always"
       id="radialGradient8458"
       fy="99.106209"
       fx="31.248543"
       r="31.505251"
       cy="99.106209"
       cx="31.248543" />
    <linearGradient
       gradientTransform="matrix(-0.114089,-0.768301,-0.876094,0.171762,39.21505,-61.14244)"
       gradientUnits="userSpaceOnUse"
       xlink:href="#greandraktoblack"
       collect="always"
       id="linearGradient5879"
       y2="15.194049"
       x2="-251.47858"
       y1="3.2396066"
       x1="-185.47968" />
    <linearGradient
       gradientTransform="matrix(-0.137079,-0.923121,-1.052636,0.206374,1.439820e-15,3.455569e-14)"
       gradientUnits="userSpaceOnUse"
       xlink:href="#greantodarkgrean"
       collect="always"
       id="linearGradient5878"
       y2="-57.013916"
       x2="-157.86485"
       y1="-17.124023"
       x1="-101.37718" />
    <linearGradient
       gradientTransform="scale(1.009216,0.990868)"
       gradientUnits="userSpaceOnUse"
       xlink:href="#bluedarktoblackblue"
       collect="always"
       id="linearGradient5877"
       y2="172.93056"
       x2="112.26055"
       y1="122.11472"
       x1="62.766987" />
    <radialGradient
       gradientTransform="matrix(1.301322,-0.963090,0.367454,0.496502,2.511880e-15,-1.868861e-14)"
       gradientUnits="userSpaceOnUse"
       xlink:href="#light100to25to0"
       collect="always"
       id="radialGradient5876"
       fy="277.84909"
       fx="-5.2714190"
       r="45.149639"
       cy="277.84927"
       cx="-5.2714176" />
    <linearGradient
       gradientTransform="scale(1.348400,0.741620)"
       gradientUnits="userSpaceOnUse"
       xlink:href="#light100to25to0"
       collect="always"
       id="linearGradient5875"
       y2="183.67296"
       x2="63.651352"
       y1="153.52101"
       x1="64.450737" />
    <linearGradient
       gradientTransform="scale(1.009216,0.990868)"
       gradientUnits="userSpaceOnUse"
       xlink:href="#bluedarktoblackblue"
       collect="always"
       id="linearGradient5874"
       y2="172.93056"
       x2="112.26055"
       y1="122.11472"
       x1="62.766987" />
    <linearGradient
       gradientTransform="scale(1.009216,0.990868)"
       gradientUnits="userSpaceOnUse"
       xlink:href="#bluelignonlinblu"
       collect="always"
       id="linearGradient5873"
       y2="179.46115"
       x2="93.541580"
       y1="116.75419"
       x1="84.421318" />
    <linearGradient
       gradientTransform="matrix(0.998842,0.000000,0.000000,1.001159,41.20636,-8.518842)"
       gradientUnits="userSpaceOnUse"
       xlink:href="#light75to0"
       collect="always"
       id="linearGradient5872"
       y2="111.03926"
       x2="157.98491"
       y1="97.598228"
       x1="144.32063" />
    <linearGradient
       gradientTransform="matrix(0.900583,0.000000,0.000000,0.905677,56.40353,1.871500)"
       gradientUnits="userSpaceOnUse"
       xlink:href="#light100to25to0"
       collect="always"
       id="linearGradient5871"
       y2="112.49506"
       x2="160.78284"
       y1="124.79525"
       x1="170.34329" />
    <linearGradient
       gradientTransform="matrix(1.000067,0.000000,0.000000,0.999933,50.00000,-2.277813e-13)"
       gradientUnits="userSpaceOnUse"
       xlink:href="#orangetoblackorange"
       collect="always"
       id="linearGradient5870"
       y2="114.28754"
       x2="159.74188"
       y1="88.918373"
       x1="133.99529" />
    <linearGradient
       gradientTransform="matrix(1.000067,0.000000,0.000000,0.999933,50.00000,-2.277813e-13)"
       gradientUnits="userSpaceOnUse"
       xlink:href="#orangetoyelow"
       collect="always"
       id="linearGradient5869"
       y2="88.890656"
       x2="134.36050"
       y1="114.02559"
       x1="159.51378" />
    <linearGradient
       gradientTransform="matrix(1.000067,0.000000,0.000000,0.999933,50.00000,-2.277813e-13)"
       gradientUnits="userSpaceOnUse"
       xlink:href="#orangetoblackorange"
       collect="always"
       id="linearGradient5868"
       y2="114.28754"
       x2="159.74188"
       y1="88.918373"
       x1="133.99529" />
    <linearGradient
       gradientTransform="matrix(1.000067,0.000000,0.000000,0.999933,50.00000,-2.277813e-13)"
       gradientUnits="userSpaceOnUse"
       xlink:href="#orangelesstoyelow"
       collect="always"
       id="linearGradient5867"
       y2="88.890656"
       x2="134.36050"
       y1="114.02559"
       x1="159.51378" />
    <linearGradient
       gradientTransform="matrix(2.270103,0.000000,0.000000,2.275369,-264.9852,-74.06228)"
       gradientUnits="userSpaceOnUse"
       xlink:href="#light75to0"
       collect="always"
       id="linearGradient5866"
       y2="111.03926"
       x2="157.98491"
       y1="97.598228"
       x1="144.32063" />
    <linearGradient
       gradientTransform="matrix(0.114089,-0.768301,0.876094,0.171762,289.1775,-61.14244)"
       gradientUnits="userSpaceOnUse"
       xlink:href="#greandraktoblack"
       collect="always"
       id="linearGradient5865"
       y2="15.194049"
       x2="-251.47858"
       y1="3.2396066"
       x1="-185.47968" />
    <linearGradient
       gradientTransform="matrix(0.137079,-0.923121,1.052636,0.206374,0.000000,0.000000)"
       gradientUnits="userSpaceOnUse"
       xlink:href="#greantodarkgrean"
       collect="always"
       id="linearGradient5864"
       y2="289.48907"
       x2="-79.180618"
       y1="238.39970"
       x1="-44.252098" />
    <linearGradient
       gradientTransform="scale(1.009216,0.990868)"
       gradientUnits="userSpaceOnUse"
       xlink:href="#bluedarktoblackblue"
       collect="always"
       id="linearGradient5863"
       y2="172.93056"
       x2="112.26055"
       y1="122.11472"
       x1="62.766987" />
    <linearGradient
       gradientTransform="matrix(0.998842,0.000000,0.000000,1.001159,41.20636,-8.518842)"
       gradientUnits="userSpaceOnUse"
       xlink:href="#light75to0"
       collect="always"
       id="linearGradient5862"
       y2="111.03926"
       x2="157.98491"
       y1="97.598228"
       x1="144.32063" />
    <linearGradient
       gradientTransform="matrix(0.900583,0.000000,0.000000,0.905677,56.40353,1.871500)"
       gradientUnits="userSpaceOnUse"
       xlink:href="#light100to25to0"
       collect="always"
       id="linearGradient5861"
       y2="112.49506"
       x2="160.78284"
       y1="124.79525"
       x1="170.34329" />
    <linearGradient
       gradientTransform="matrix(1.000067,0.000000,0.000000,0.999933,50.00000,-2.170277e-13)"
       gradientUnits="userSpaceOnUse"
       xlink:href="#orangetoblackorange"
       collect="always"
       id="linearGradient5860"
       y2="114.28754"
       x2="159.74188"
       y1="88.918373"
       x1="133.99529" />
    <linearGradient
       gradientTransform="matrix(1.000067,0.000000,0.000000,0.999933,50.00000,-2.170277e-13)"
       gradientUnits="userSpaceOnUse"
       xlink:href="#orangetoyelow"
       collect="always"
       id="linearGradient5859"
       y2="88.890656"
       x2="134.36050"
       y1="114.02559"
       x1="159.51378" />
    <linearGradient
       gradientTransform="matrix(1.000067,0.000000,0.000000,0.999933,50.00000,-2.170277e-13)"
       gradientUnits="userSpaceOnUse"
       xlink:href="#orangetoblackorange"
       collect="always"
       id="linearGradient5858"
       y2="114.28754"
       x2="159.74188"
       y1="88.918373"
       x1="133.99529" />
    <linearGradient
       gradientTransform="matrix(1.000067,0.000000,0.000000,0.999933,50.00000,-2.170277e-13)"
       gradientUnits="userSpaceOnUse"
       xlink:href="#orangelesstoyelow"
       collect="always"
       id="linearGradient5857"
       y2="88.890656"
       x2="134.36050"
       y1="114.02559"
       x1="159.51378" />
    <linearGradient
       gradientTransform="matrix(-2.270103,0.000000,0.000000,2.275369,593.3778,-74.06228)"
       gradientUnits="userSpaceOnUse"
       xlink:href="#light75to0"
       collect="always"
       id="linearGradient5856"
       y2="111.03926"
       x2="157.98491"
       y1="97.598228"
       x1="144.32063" />
    <radialGradient
       gradientTransform="matrix(1.301322,-0.963090,0.367454,0.496502,3.324771e-14,-9.454234e-17)"
       gradientUnits="userSpaceOnUse"
       xlink:href="#light100to25to0"
       collect="always"
       id="radialGradient5855"
       fy="277.84909"
       fx="-5.2714190"
       r="45.149639"
       cy="277.84927"
       cx="-5.2714176" />
    <linearGradient
       gradientTransform="scale(1.348400,0.741620)"
       gradientUnits="userSpaceOnUse"
       xlink:href="#light100to25to0"
       collect="always"
       id="linearGradient5854"
       y2="183.67296"
       x2="63.651352"
       y1="153.52101"
       x1="64.450737" />
    <linearGradient
       gradientTransform="scale(1.009216,0.990868)"
       gradientUnits="userSpaceOnUse"
       xlink:href="#bluedarktoblackblue"
       collect="always"
       id="linearGradient5853"
       y2="172.93056"
       x2="112.26055"
       y1="122.11472"
       x1="62.766987" />
    <linearGradient
       gradientTransform="scale(1.009216,0.990868)"
       gradientUnits="userSpaceOnUse"
       xlink:href="#bluelignonlinblu"
       collect="always"
       id="linearGradient5852"
       y2="179.46115"
       x2="93.541580"
       y1="116.75419"
       x1="84.421318" />
    <linearGradient
       gradientTransform="matrix(0.911055,0.000000,0.000000,0.926622,13.97351,8.081378)"
       gradientUnits="userSpaceOnUse"
       xlink:href="#light100to25to0"
       collect="always"
       id="linearGradient6934"
       y2="112.49506"
       x2="160.78284"
       y1="124.79525"
       x1="170.34329" />
    <linearGradient
       gradientTransform="matrix(0.998842,0.000000,0.000000,1.001159,-8.793644,-8.518842)"
       gradientUnits="userSpaceOnUse"
       xlink:href="#light75to0"
       collect="always"
       id="linearGradient6933"
       y2="111.03926"
       x2="157.98491"
       y1="97.598228"
       x1="144.32063" />
    <linearGradient
       gradientTransform="scale(0.998842,1.001159)"
       gradientUnits="userSpaceOnUse"
       xlink:href="#light75to0"
       collect="always"
       id="linearGradient6932"
       y2="111.03926"
       x2="157.98491"
       y1="97.598228"
       x1="144.32063" />
    <linearGradient
       gradientTransform="scale(1.000067,0.999933)"
       gradientUnits="userSpaceOnUse"
       xlink:href="#bluedarktoblackblue"
       collect="always"
       id="linearGradient6931"
       y2="122.39194"
       x2="168.55452"
       y1="97.022774"
       x1="143.33336" />
    <linearGradient
       gradientUnits="userSpaceOnUse"
       xlink:href="#bluelignonlinblu"
       collect="always"
       id="linearGradient6928"
       y2="162.00951"
       x2="198.46415"
       y1="61.125619"
       x1="97.116622" />
    <linearGradient
       gradientUnits="userSpaceOnUse"
       xlink:href="#bluedarktoblackblue"
       collect="always"
       id="linearGradient6927"
       y2="161.92829"
       x2="198.39225"
       y1="60.572344"
       x1="97.402560" />
    <linearGradient
       xlink:href="#bluedarktoblackblue"
       id="linearGradient581"
       y2="0.50000000"
       x2="1.0000000"
       y1="0.50000000"
       x1="4.3021142e-16" />
    <linearGradient
       xlink:href="#blacktowhite"
       id="linearGradient9077"
       y2="0.46428570"
       x2="0.99264705"
       y1="0.46428570"
       x1="0.016544119" />
    <linearGradient
       xlink:href="#garylighttowite"
       id="linearGradient5108"
       y2="0.46428570"
       x2="0.99264705"
       y1="0.46428570"
       x1="0.016544119" />
    <linearGradient
       xlink:href="#graytolightgray"
       id="linearGradient5103"
       y2="0.46428570"
       x2="0.99264705"
       y1="0.46428570"
       x1="0.016544119" />
    <linearGradient
       xlink:href="#graytoblack"
       id="linearGradient782"
       y2="0.46428570"
       x2="0.99264705"
       y1="0.46428570"
       x1="0.016544119" />
    <linearGradient
       xlink:href="#reddarktoblack"
       id="linearGradient4473"
       y2="0.50000000"
       x2="1.0000000"
       y1="0.50000000"
       x1="-3.4965520e-17" />
    <linearGradient
       xlink:href="#redtodarkred"
       id="linearGradient4471"
       y2="0.50000000"
       x2="1.0000000"
       y1="0.50000000"
       x1="-2.0979312e-17" />
    <linearGradient
       xlink:href="#greandarktobgrean"
       id="linearGradient3704"
       y2="0.50000000"
       x2="1.0000000"
       y1="0.50000000"
       x1="-6.9931040e-18" />
    <linearGradient
       xlink:href="#greantodarkgrean"
       id="linearGradient3080"
       y2="0.50000000"
       x2="1.0000000"
       y1="0.50000000"
       x1="-5.4454054e-17" />
    <linearGradient
       xlink:href="#bluelightlesstoblue"
       id="linearGradient3471"
       y2="0.50000000"
       x2="1.0000000"
       y1="0.50000000"
       x1="-4.7460950e-17" />
    <linearGradient
       xlink:href="#blueligtmoretoblue"
       id="linearGradient3464"
       y2="0.50000000"
       x2="1.0000000"
       y1="0.50000000"
       x1="-3.3474742e-17" />
    <linearGradient
       xlink:href="#shadow25tolineto0"
       id="linearGradient3445"
       y2="0.50000000"
       x2="1.0000000"
       y1="0.50000000"
       x1="-5.0968344e-16" />
    <linearGradient
       xlink:href="#shadow0wto25to0"
       id="linearGradient3440"
       y2="0.50000000"
       x2="1.0000000"
       y1="0.50000000"
       x1="-3.1582809e-16" />
    <linearGradient
       xlink:href="#shadow25to25w"
       id="linearGradient3435"
       y2="0.50000000"
       x2="1.0000000"
       y1="0.50000000"
       x1="-3.5182360e-16" />
    <linearGradient
       xlink:href="#sadow75to0w"
       id="linearGradient3431"
       y2="0.55782312"
       x2="0.99077493"
       y1="0.55782312"
       x1="-0.0092250919" />
    <linearGradient
       xlink:href="#shadow100to0"
       id="linearGradient3427"
       y2="0.50000000"
       x2="1.0000000"
       y1="0.50000000"
       x1="6.8293895e-16" />
    <linearGradient
       xlink:href="#light50to25to7"
       id="linearGradient2794"
       y2="0.56802720"
       x2="1.0000000"
       y1="0.57142860"
       x1="0.0036900369" />
    <linearGradient
       xlink:href="#light100to25to0"
       id="linearGradient2788"
       y2="0.50000000"
       x2="1.0000000"
       y1="0.50000000"
       x1="-6.5594231e-17" />
    <linearGradient
       xlink:href="#light100to75to0"
       id="linearGradient2781"
       y2="0.50000000"
       x2="1.0000000"
       y1="0.50000000"
       x1="1.2826112e-16" />
    <linearGradient
       xlink:href="#light75to25"
       id="linearGradient2776"
       y2="0.50000000"
       x2="1.0000000"
       y1="0.50000000"
       x1="9.2265605e-17" />
    <linearGradient
       xlink:href="#light75to0"
       id="linearGradient2771"
       y2="0.50000000"
       x2="1.0000000"
       y1="0.50000000"
       x1="5.6270093e-17" />
    <linearGradient
       xlink:href="#light100to0"
       id="linearGradient2766"
       y2="0.50000000"
       x2="1.0000000"
       y1="0.50000000"
       x1="2.0274581e-17" />
    <linearGradient
       xlink:href="#orangelesstoyelow"
       id="linearGradient2757"
       y2="0.50000000"
       x2="1.0000000"
       y1="0.50000000"
       x1="-6.9931040e-18" />
    <linearGradient
       xlink:href="#orangemoretoyelow"
       id="linearGradient2756"
       y2="0.50000000"
       x2="1.0000000"
       y1="0.50000000"
       x1="-1.3227267e-17" />
    <linearGradient
       xlink:href="#orangetoyelow"
       id="linearGradient2755"
       y2="0.50000000"
       x2="1.0000000"
       y1="0.50000000"
       x1="-3.3718688e-17" />
    <linearGradient
       xlink:href="#bluelignonlinblu"
       id="linearGradient2754"
       y2="0.50000000"
       x2="1.0000000"
       y1="0.50000000"
       x1="-1.9488534e-17" />
    <linearGradient
       id="orangetoyelow">
      <stop
         id="stop2661"
         offset="0.0000000"
         style="stop-color:#ff7d00;stop-opacity:1.0000000;" />
      <stop
         id="stop2662"
         offset="1.0000000"
         style="stop-color:#ffff00;stop-opacity:1.0000000;" />
    </linearGradient>
    <linearGradient
       id="orangemoretoyelow">
      <stop
         id="stop2671"
         offset="0.0000000"
         style="stop-color:#ff7d00;stop-opacity:1.0000000;" />
      <stop
         id="stop2679"
         offset="0.74641621"
         style="stop-color:#ffbe00;stop-opacity:1.0000000;" />
      <stop
         id="stop2672"
         offset="1.0000000"
         style="stop-color:#ffff00;stop-opacity:1.0000000;" />
    </linearGradient>
    <linearGradient
       id="orangelesstoyelow">
      <stop
         id="stop2689"
         offset="0.0000000"
         style="stop-color:#ff7d00;stop-opacity:1.0000000;" />
      <stop
         id="stop2690"
         offset="0.25358382"
         style="stop-color:#ffbe00;stop-opacity:1.0000000;" />
      <stop
         id="stop2691"
         offset="1.0000000"
         style="stop-color:#ffff00;stop-opacity:1.0000000;" />
    </linearGradient>
    <linearGradient
       id="orangetoblackorange">
      <stop
         id="stop4207"
         offset="0.0000000"
         style="stop-color:#ff8b00;stop-opacity:1.0000000;" />
      <stop
         id="stop4209"
         offset="1.0000000"
         style="stop-color:#4d0200;stop-opacity:1.0000000;" />
    </linearGradient>
    <linearGradient
       id="reddarktoblack">
      <stop
         id="stop3230"
         offset="0.0000000"
         style="stop-color:#8e0000;stop-opacity:1.0000000;" />
      <stop
         id="stop3231"
         offset="1.0000000"
         style="stop-color:#000000;stop-opacity:1.0000000;" />
    </linearGradient>
    <linearGradient
       id="redtodarkred">
      <stop
         id="stop3856"
         offset="0.0000000"
         style="stop-color:#ff0000;stop-opacity:1.0000000;" />
      <stop
         id="stop3855"
         offset="1.0000000"
         style="stop-color:#920000;stop-opacity:1.0000000;" />
    </linearGradient>
    <linearGradient
       id="greandarktobgrean">
      <stop
         id="stop4492"
         offset="0.0000000"
         style="stop-color:#00ad01;stop-opacity:1.0000000;" />
      <stop
         id="stop4493"
         offset="1.0000000"
         style="stop-color:#15720f;stop-opacity:1.0000000;" />
    </linearGradient>
    <linearGradient
       id="greandraktoblack">
      <stop
         id="stop7328"
         offset="0.0000000"
         style="stop-color:#007c00;stop-opacity:1.0000000;" />
      <stop
         id="stop7329"
         offset="1.0000000"
         style="stop-color:#025a00;stop-opacity:1.0000000;" />
    </linearGradient>
    <linearGradient
       id="greantodarkgrean">
      <stop
         id="stop5123"
         offset="0.0000000"
         style="stop-color:#00ff01;stop-opacity:1.0000000;" />
      <stop
         id="stop5124"
         offset="1.0000000"
         style="stop-color:#15980f;stop-opacity:1.0000000;" />
    </linearGradient>
    <radialGradient
       gradientUnits="userSpaceOnUse"
       id="bluedarktoblackblue"
       fy="112.96090"
       fx="38.797401"
       r="67.358803"
       cy="112.96090"
       cx="38.797401">
      <stop
         id="stop2959"
         offset="0.0000000"
         style="stop-color:#0356fe;stop-opacity:1.0000000;" />
      <stop
         id="stop2960"
         offset="1.0000000"
         style="stop-color:#032442;stop-opacity:1.0000000;" />
    </radialGradient>
    <radialGradient
       gradientUnits="userSpaceOnUse"
       id="radialGradient1647"
       fy="112.96090"
       fx="38.797401"
       r="67.358803"
       cy="112.96090"
       cx="38.797401">
      <stop
         id="stop1649"
         offset="0.0055999998"
         style="stop-color:#d9ffff;stop-opacity:1.0000000;" />
      <stop
         id="stop1651"
         offset="0.74217570"
         style="stop-color:#6eaafe;stop-opacity:1.0000000;" />
      <stop
         id="stop1653"
         offset="1.0000000"
         style="stop-color:#0356fe;stop-opacity:1.0000000;" />
    </radialGradient>
    <radialGradient
       gradientUnits="userSpaceOnUse"
       id="bluelignonlinblu"
       fy="112.96090"
       fx="38.797401"
       r="67.358803"
       cy="112.96090"
       cx="38.797401">
      <stop
         id="stop84"
         offset="0.0055999998"
         style="stop-color:#d9ffff;stop-opacity:1.0000000;" />
      <stop
         id="stop86"
         offset="0.13480000"
         style="stop-color:#95d9ff;stop-opacity:1.0000000;" />
      <stop
         id="stop88"
         offset="0.32049999"
         style="stop-color:#68b9ff;stop-opacity:1.0000000;" />
      <stop
         id="stop90"
         offset="0.56800002"
         style="stop-color:#3293fe;stop-opacity:1.0000000;" />
      <stop
         id="stop92"
         offset="0.75340003"
         style="stop-color:#107bfe;stop-opacity:1.0000000;" />
      <stop
         id="stop94"
         offset="0.85390002"
         style="stop-color:#0372fe;stop-opacity:1.0000000;" />
      <stop
         id="stop96"
         offset="1.0000000"
         style="stop-color:#0356fe;stop-opacity:1.0000000;" />
    </radialGradient>
    <radialGradient
       gradientUnits="userSpaceOnUse"
       id="radialGradient1631"
       fy="112.96090"
       fx="38.797401"
       r="67.358803"
       cy="112.96090"
       cx="38.797401">
      <stop
         id="stop1633"
         offset="0.0055999998"
         style="stop-color:#d9ffff;stop-opacity:1.0000000;" />
      <stop
         id="stop1635"
         offset="0.24089479"
         style="stop-color:#6eaafe;stop-opacity:1.0000000;" />
      <stop
         id="stop1637"
         offset="1.0000000"
         style="stop-color:#0356fe;stop-opacity:1.0000000;" />
    </radialGradient>
    <radialGradient
       gradientUnits="userSpaceOnUse"
       id="bluelighttowhite"
       fy="112.96090"
       fx="38.797401"
       r="67.358803"
       cy="112.96090"
       cx="38.797401">
      <stop
         id="stop6078"
         offset="0.0055999998"
         style="stop-color:#69d3ff;stop-opacity:1.0000000;" />
      <stop
         id="stop6080"
         offset="1.0000000"
         style="stop-color:#edffff;stop-opacity:1.0000000;" />
    </radialGradient>
    <linearGradient
       id="linearGradient1622">
      <stop
         id="stop1624"
         offset="0.0000000"
         style="stop-color:#ffffff;stop-opacity:1.0000000;" />
      <stop
         id="stop1626"
         offset="1.0000000"
         style="stop-color:#ffffff;stop-opacity:0.0000000;" />
    </linearGradient>
    <linearGradient
       id="light75to0">
      <stop
         id="stop2769"
         offset="0.0000000"
         style="stop-color:#ffffff;stop-opacity:0.72916669;" />
      <stop
         id="stop2770"
         offset="1.0000000"
         style="stop-color:#ffffff;stop-opacity:0.0000000;" />
    </linearGradient>
    <linearGradient
       id="light75to25">
      <stop
         id="stop2774"
         offset="0.0000000"
         style="stop-color:#ffffff;stop-opacity:0.72941178;" />
      <stop
         id="stop2775"
         offset="1.0000000"
         style="stop-color:#ffffff;stop-opacity:0.26249999;" />
    </linearGradient>
    <linearGradient
       id="light100to75to0">
      <stop
         id="stop2779"
         offset="0.0000000"
         style="stop-color:#ffffff;stop-opacity:1.0000000;" />
      <stop
         id="stop2782"
         offset="0.50000000"
         style="stop-color:#ffffff;stop-opacity:0.77499998;" />
      <stop
         id="stop2780"
         offset="1.0000000"
         style="stop-color:#ffffff;stop-opacity:0.0000000;" />
    </linearGradient>
    <linearGradient
       id="light100to25to0">
      <stop
         id="stop2785"
         offset="0.0000000"
         style="stop-color:#ffffff;stop-opacity:1.0000000;" />
      <stop
         id="stop2786"
         offset="0.50000000"
         style="stop-color:#ffffff;stop-opacity:0.28749999;" />
      <stop
         id="stop2787"
         offset="1.0000000"
         style="stop-color:#ffffff;stop-opacity:0.0000000;" />
    </linearGradient>
    <linearGradient
       id="light50to25to7">
      <stop
         id="stop2791"
         offset="0.0000000"
         style="stop-color:#ffffff;stop-opacity:0.47450981;" />
      <stop
         id="stop2795"
         offset="0.50000000"
         style="stop-color:#ffffff;stop-opacity:0.25833333;" />
      <stop
         id="stop2793"
         offset="1.0000000"
         style="stop-color:#ffffff;stop-opacity:0.10833333;" />
    </linearGradient>
    <linearGradient
       id="shadow100to0">
      <stop
         id="stop3425"
         offset="0.0000000"
         style="stop-color:#000000;stop-opacity:1.0000000;" />
      <stop
         id="stop3426"
         offset="1.0000000"
         style="stop-color:#000000;stop-opacity:0.0000000;" />
    </linearGradient>
    <linearGradient
       id="sadow75to0w">
      <stop
         id="stop3429"
         offset="0.0000000"
         style="stop-color:#000000;stop-opacity:0.72941178;" />
      <stop
         id="stop3430"
         offset="1.0000000"
         style="stop-color:#ffffff;stop-opacity:0.0000000;" />
    </linearGradient>
    <linearGradient
       id="shadow25to25w">
      <stop
         id="stop3433"
         offset="0.0000000"
         style="stop-color:#000000;stop-opacity:0.25416666;" />
      <stop
         id="stop3434"
         offset="1.0000000"
         style="stop-color:#ffffff;stop-opacity:0.26274511;" />
    </linearGradient>
    <linearGradient
       id="shadow0wto25to0">
      <stop
         id="stop3437"
         offset="0.0000000"
         style="stop-color:#ffffff;stop-opacity:0.0000000;" />
      <stop
         id="stop3438"
         offset="0.50000000"
         style="stop-color:#000000;stop-opacity:0.27916667;" />
      <stop
         id="stop3439"
         offset="1.0000000"
         style="stop-color:#000000;stop-opacity:0.0000000;" />
    </linearGradient>
    <linearGradient
       id="shadow25tolineto0">
      <stop
         id="stop3442"
         offset="0.0000000"
         style="stop-color:#000000;stop-opacity:0.25490198;" />
      <stop
         id="stop3450"
         offset="0.45393065"
         style="stop-color:#000000;stop-opacity:0.029166667;" />
      <stop
         id="stop3449"
         offset="0.50000000"
         style="stop-color:#000000;stop-opacity:0.37083334;" />
      <stop
         id="stop3451"
         offset="0.53497112"
         style="stop-color:#000000;stop-opacity:0.062745102;" />
      <stop
         id="stop3444"
         offset="1.0000000"
         style="stop-color:#000000;stop-opacity:0.0000000;" />
    </linearGradient>
    <linearGradient
       id="graytoblack">
      <stop
         id="stop5097"
         offset="0.0000000"
         style="stop-color:#7d7d7d;stop-opacity:1.0000000;" />
      <stop
         id="stop5098"
         offset="1.0000000"
         style="stop-color:#000000;stop-opacity:1.0000000;" />
    </linearGradient>
    <linearGradient
       id="graytolightgray">
      <stop
         id="stop5101"
         offset="0.0000000"
         style="stop-color:#d4d3d3;stop-opacity:1.0000000;" />
      <stop
         id="stop5102"
         offset="1.0000000"
         style="stop-color:#ffffff;stop-opacity:1.0000000;" />
    </linearGradient>
    <linearGradient
       id="garylighttowite">
      <stop
         id="stop5106"
         offset="0.0000000"
         style="stop-color:#7d7d7d;stop-opacity:1.0000000;" />
      <stop
         id="stop5107"
         offset="1.0000000"
         style="stop-color:#d3d4d4;stop-opacity:1.0000000;" />
    </linearGradient>
    <linearGradient
       id="blacktowhite">
      <stop
         id="stop2476"
         offset="0.0000000"
         style="stop-color:#000000;stop-opacity:1.0000000;" />
      <stop
         id="stop2475"
         offset="1.0000000"
         style="stop-color:#ffffff;stop-opacity:1.0000000;" />
    </linearGradient>
    <linearGradient
       gradientUnits="userSpaceOnUse"
       y2="143.74137"
       x2="263.65175"
       y1="143.74137"
       x1="-29.559574"
       gradientTransform="scale(1.001874,0.998129)"
       xlink:href="#linearGradient2779"
       collect="always"
       id="linearGradient7834" />
    <linearGradient
       id="linearGradient2779">
      <stop
         id="stop3304"
         offset="0.0000000"
         style="stop-color:#000000;stop-opacity:1.0000000;" />
      <stop
         id="stop2781"
         offset="1.0000000"
         style="stop-color:#ffffff;stop-opacity:1.0000000;" />
    </linearGradient>
    <linearGradient
       id="linearGradient5160">
      <stop
         id="stop5161"
         offset="0.0000000"
         style="stop-color:#ffdf09;stop-opacity:1.0000000;" />
      <stop
         id="stop5162"
         offset="1.0000000"
         style="stop-color:#ff5c00;stop-opacity:1.0000000;" />
    </linearGradient>
    <linearGradient
       id="linearGradient5165">
      <stop
         id="stop5166"
         offset="0.0000000"
         style="stop-color:#d3bb20;stop-opacity:1.0000000;" />
      <stop
         id="stop5167"
         offset="1.0000000"
         style="stop-color:#aa5f35;stop-opacity:1.0000000;" />
    </linearGradient>
    <linearGradient
       id="linearGradient5170">
      <stop
         id="stop5171"
         offset="0.0000000"
         style="stop-color:#8f8fa6;stop-opacity:1.0000000;" />
      <stop
         id="stop5172"
         offset="1.0000000"
         style="stop-color:#ffffff;stop-opacity:1.0000000;" />
    </linearGradient>
    <linearGradient
       id="linearGradient1977">
      <stop
         id="stop1979"
         style="stop-color:#ffffff;stop-opacity:0.83529413;"
         offset="0.0000000" />
      <stop
         id="stop1978"
         style="stop-color:#ffffff;stop-opacity:0.0000000;"
         offset="1.0000000" />
    </linearGradient>
    <radialGradient
       r="23.534935"
       fy="537.74375"
       fx="171.95191"
       cy="537.74375"
       cx="171.95191"
       gradientTransform="matrix(1.148604,0.000000,0.000000,0.870622,21.42854,-245.2865)"
       gradientUnits="userSpaceOnUse"
       id="radialGradient1894"
       xlink:href="#linearGradient1977"
       inkscape:collect="always" />
    <linearGradient
       gradientUnits="userSpaceOnUse"
       gradientTransform="matrix(1.356931,0.000000,0.000000,0.736957,788.2250,-60.38252)"
       y2="285.89084"
       x2="-117.95375"
       y1="285.97815"
       x1="-143.52490"
       id="linearGradient2515"
       xlink:href="#light90to0"
       inkscape:collect="always" />
    <linearGradient
       id="light90to0">
      <stop
         id="stop1890"
         offset="0.0000000"
         style="stop-color:#ffffff;stop-opacity:0.90196079;" />
      <stop
         id="stop1892"
         offset="1.0000000"
         style="stop-color:#ffffff;stop-opacity:0.0000000;" />
    </linearGradient>
    <radialGradient
       r="105.02886"
       fy="224.28973"
       fx="328.27005"
       cy="224.77423"
       cx="330.11304"
       gradientTransform="matrix(0.901404,-2.005241e-2,2.560619e-2,1.151060,-411.8219,-163.2111)"
       gradientUnits="userSpaceOnUse"
       id="radialGradient2540"
       xlink:href="#light90to0"
       inkscape:collect="always" />
    <linearGradient
       y2="145.69553"
       x2="299.20441"
       y1="96.190353"
       x1="304.64722"
       gradientTransform="matrix(0.728114,-1.619744e-2,3.170042e-2,1.425011,-411.8219,-163.2111)"
       gradientUnits="userSpaceOnUse"
       id="linearGradient2543"
       xlink:href="#light90to0"
       inkscape:collect="always" />
    <linearGradient
       y2="154.10789"
       x2="409.73569"
       y1="234.90770"
       x1="149.29594"
       gradientTransform="matrix(0.728114,-1.619744e-2,3.170042e-2,1.425011,-411.8219,-163.2111)"
       gradientUnits="userSpaceOnUse"
       id="linearGradient2546"
       xlink:href="#linearGradient5170"
       inkscape:collect="always" />
    <linearGradient
       y2="154.10789"
       x2="409.73569"
       y1="234.90770"
       x1="149.29594"
       gradientTransform="matrix(0.804983,-1.661599e-2,3.504716e-2,1.461834,-435.6624,-168.0225)"
       gradientUnits="userSpaceOnUse"
       id="linearGradient2560"
       xlink:href="#linearGradient5170"
       inkscape:collect="always" />
    <linearGradient
       y2="154.10789"
       x2="409.73569"
       y1="234.90770"
       x1="149.29594"
       gradientTransform="matrix(0.728114,-1.619744e-2,3.170042e-2,1.425011,-411.8219,-163.2111)"
       gradientUnits="userSpaceOnUse"
       id="linearGradient3364"
       xlink:href="#linearGradient5170"
       inkscape:collect="always" />
    <linearGradient
       y2="145.69553"
       x2="299.20441"
       y1="96.190353"
       x1="304.64722"
       gradientTransform="matrix(0.728114,-1.619744e-2,3.170042e-2,1.425011,-411.8219,-163.2111)"
       gradientUnits="userSpaceOnUse"
       id="linearGradient3366"
       xlink:href="#light90to0"
       inkscape:collect="always" />
    <radialGradient
       r="105.02886"
       fy="224.28973"
       fx="328.27005"
       cy="224.77423"
       cx="330.11304"
       gradientTransform="matrix(0.901404,-2.005241e-2,2.560619e-2,1.151060,-411.8219,-163.2111)"
       gradientUnits="userSpaceOnUse"
       id="radialGradient3368"
       xlink:href="#light90to0"
       inkscape:collect="always" />
    <radialGradient
       r="130.18401"
       fy="130.47501"
       fx="61.042000"
       cy="130.47501"
       cx="61.042000"
       gradientTransform="matrix(0.600935,0.000000,0.000000,0.604436,2.875454,2.471947)"
       gradientUnits="userSpaceOnUse"
       id="radialGradient3408"
       xlink:href="#blueligtmoretoblue"
       inkscape:collect="always" />
    <radialGradient
       r="124.75400"
       fy="130.22200"
       fx="61.089401"
       cy="130.22200"
       cx="61.089401"
       gradientTransform="matrix(0.600935,0.000000,0.000000,0.572945,2.856511,5.223199)"
       gradientUnits="userSpaceOnUse"
       id="radialGradient3410"
       xlink:href="#blueligtmoretoblue"
       inkscape:collect="always" />
    <radialGradient
       r="73.983902"
       fy="113.84200"
       fx="66.165001"
       cy="113.84200"
       cx="66.165001"
       gradientTransform="matrix(0.600935,0.000000,0.000000,0.604436,0.841014,-0.536171)"
       gradientUnits="userSpaceOnUse"
       id="radialGradient3412"
       xlink:href="#bluelightlesstoblue"
       inkscape:collect="always" />
    <linearGradient
       y2="119.19500"
       x2="61.847599"
       y1="-20.895500"
       x1="61.847698"
       gradientTransform="matrix(0.600935,0.000000,0.000000,0.604436,2.779455,2.266125)"
       gradientUnits="userSpaceOnUse"
       id="linearGradient3414"
       xlink:href="#bluelightlesstoblue"
       inkscape:collect="always" />
    <radialGradient
       r="67.357605"
       fy="9.8876038"
       fx="32.163441"
       cy="9.8876038"
       cx="32.163441"
       gradientTransform="scale(1.197012,0.835414)"
       gradientUnits="userSpaceOnUse"
       id="radialGradient3416"
       xlink:href="#light100to0"
       inkscape:collect="always" />
    <radialGradient
       r="39.686270"
       fy="40.946151"
       fx="40.926466"
       cy="40.946151"
       cx="40.926466"
       gradientTransform="matrix(0.946726,0.000000,0.000000,0.946819,1.266695,1.279073)"
       gradientUnits="userSpaceOnUse"
       id="radialGradient3418"
       xlink:href="#linearGradient10104"
       inkscape:collect="always" />
  </defs>
  <sodipodi:namedview
     inkscape:window-y="44"
     inkscape:window-x="288"
     inkscape:window-height="648"
     inkscape:window-width="989"
     gridoriginx="0.0000000pt"
     gridoriginy="0.0000000pt"
     gridspacingx="1.0000000pt"
     gridspacingy="1.0000000pt"
     inkscape:grid-bbox="false"
     showgrid="false"
     inkscape:current-layer="layer1"
     inkscape:cy="40.155208"
     inkscape:cx="40.012886"
     inkscape:zoom="6.1316143"
     inkscape:pageshadow="2"
     inkscape:pageopacity="0.0"
     borderopacity="1.0"
     bordercolor="#666666"
     pagecolor="#ffffff"
     id="base" />
  <metadata
     id="metadata4">
    <rdf:RDF
       id="RDF5">
      <cc:Work
         id="Work6"
         rdf:about="">
        <dc:format
           id="format7">image/svg+xml</dc:format>
        <dc:type
           rdf:resource="http://purl.org/dc/dcmitype/StillImage"
           id="type9" />
      </cc:Work>
    </rdf:RDF>
  </metadata>
  <g
     inkscape:groupmode="layer"
     inkscape:label="Layer 1"
     id="layer1">
    <g
       transform="matrix(0.886341,0.000000,0.000000,0.880247,6.288529e-2,6.625697e-2)"
       id="g3396">
      <path
         inkscape:export-ydpi="36.000000"
         inkscape:export-xdpi="36.000000"
         inkscape:export-filename="/home/nuno/kdeplayground-artwork/oooicons/crystalsvg/world.png"
         id="path10111"
         style="fill:#434fae;fill-opacity:0.081249960;fill-rule:evenodd"
         d="M 40.010345,79.542082 C 61.799115,79.542082 79.472494,61.773999 79.472494,39.976845 C 79.472494,18.321359 61.799115,0.55327869 40.010345,0.55327869 C 18.376469,0.55327869 0.55327869,18.321359 0.55327869,39.976845 C 0.55327869,61.773999 18.376469,79.542082 40.010345,79.542082 z " />
      <path
         inkscape:export-ydpi="36.000000"
         inkscape:export-xdpi="36.000000"
         inkscape:export-filename="/home/nuno/kdeplayground-artwork/oooicons/crystalsvg/world.png"
         id="path8856"
         style="fill:#434fae;fill-opacity:0.081249960;fill-rule:evenodd"
         d="M 40.010389,78.855399 C 61.426137,78.855399 78.796952,61.396246 78.796952,39.978076 C 78.796952,18.699112 61.426137,1.2399622 40.010389,1.2399622 C 18.746881,1.2399622 1.2288208,18.699112 1.2288208,39.978076 C 1.2288208,61.396246 18.746881,78.855399 40.010389,78.855399 z " />
      <path
         inkscape:export-ydpi="36.000000"
         inkscape:export-xdpi="36.000000"
         inkscape:export-filename="/home/nuno/kdeplayground-artwork/oooicons/crystalsvg/world.png"
         id="path20"
         style="fill:url(#radialGradient3408);fill-opacity:1.0000000;fill-rule:evenodd"
         d="M 40.227780,77.623240 C 60.854278,77.623240 77.584915,60.718383 77.584915,39.980199 C 77.584915,19.376802 60.854278,2.4719481 40.227780,2.4719481 C 19.747911,2.4719481 2.8754562,19.376802 2.8754562,39.980199 C 2.8754562,60.718383 19.747911,77.623240 40.227780,77.623240 z " />
      <path
         inkscape:export-ydpi="36.000000"
         inkscape:export-xdpi="36.000000"
         inkscape:export-filename="/home/nuno/kdeplayground-artwork/oooicons/crystalsvg/world.png"
         id="path39"
         style="fill:url(#radialGradient3410);fill-opacity:1.0000000;fill-rule:evenodd"
         d="M 40.208829,76.277286 C 59.964571,76.277286 75.989107,60.088683 75.989107,40.226324 C 75.989107,20.492106 59.964571,4.2998818 40.208829,4.2998818 C 20.595509,4.2998818 4.4333581,20.492106 4.4333581,40.226324 C 4.4333581,60.088683 20.595509,76.277286 40.208829,76.277286 z " />
      <path
         inkscape:export-ydpi="36.000000"
         inkscape:export-xdpi="36.000000"
         inkscape:export-filename="/home/nuno/kdeplayground-artwork/oooicons/crystalsvg/world.png"
         id="path59"
         style="opacity:0.099999972;fill:url(#radialGradient3412);fill-opacity:1.0000000"
         d="M 20.939299,37.127316 C 20.638231,36.840222 20.838942,35.587822 20.838942,35.587822 C 20.838942,35.587822 16.330729,33.183985 11.421089,31.739991 C 10.815347,31.560475 11.120622,30.297804 11.721556,29.815460 L 11.521445,28.467581 C 11.421089,27.794236 12.524405,24.523038 13.624719,24.236519 C 14.726833,23.947001 13.523761,26.159840 13.523761,26.159840 L 12.422848,26.834395 C 12.422848,26.834395 13.725073,28.373889 14.026143,28.373889 C 14.326010,28.373889 14.827190,27.602026 14.827190,27.602026 L 13.425207,26.643396 L 14.726232,26.062532 L 14.807959,25.556605 L 15.027901,25.485900 L 17.182855,22.173596 C 18.673174,21.554648 20.504221,20.787612 20.737985,20.675187 C 21.138809,20.484188 23.942772,18.847982 24.443952,18.464157 C 24.945133,18.079139 26.046646,18.174639 26.446869,18.174639 C 26.847092,18.174639 27.448629,17.983640 27.548984,16.923451 C 27.649941,15.865090 28.050164,15.672284 28.351232,15.961801 C 28.651100,16.248299 28.048962,16.729432 28.750854,16.923451 C 29.452748,17.116278 30.051879,17.596795 30.553660,17.116278 C 30.921432,16.763285 30.430469,16.363149 30.100555,16.057917 L 35.663411,16.057917 L 36.265549,14.324384 L 34.963322,14.132174 L 30.152837,13.652849 L 30.152837,13.075025 L 29.769439,13.140903 C 30.290450,10.238411 33.385266,10.717716 31.056643,9.0355791 C 30.913620,8.9328284 28.877052,12.292275 28.359647,12.226397 C 27.419783,12.101276 26.205294,12.091005 25.946290,12.399873 C 25.605559,12.810281 26.714887,10.992732 27.670973,10.443296 C 26.146402,10.900251 21.325701,12.572138 16.229171,18.079736 C 11.357991,23.341960 9.4163697,30.433196 9.4163697,30.681630 C 9.4163697,31.162147 10.418730,31.354973 10.520286,31.932798 C 10.618239,32.507622 8.6165249,34.433345 8.6165249,35.395015 C 8.6165249,35.839276 8.1441905,41.769380 9.8165918,46.652626 C 11.772034,52.353667 15.944928,57.116004 16.429884,57.427296 L 17.431642,56.947375 C 17.431642,56.947375 15.128258,52.809411 15.028502,52.424372 C 14.926944,52.041163 17.632355,46.460416 18.935784,46.652626 C 20.236807,46.842413 19.936939,47.230470 20.738586,46.749933 C 21.539632,46.268204 22.039611,42.320643 22.941615,41.939241 C 23.843619,41.552395 24.845377,41.073070 24.746823,40.110824 C 24.645867,39.146135 21.238564,37.416854 20.939299,37.127316 z M 28.151122,10.284939 C 28.002690,10.284939 27.839836,10.346606 27.671576,10.442106 C 28.065788,10.326043 28.250877,10.284939 28.151122,10.284939 z M 37.870647,12.207663 L 37.968598,10.765477 L 36.467462,10.859763 L 36.667575,12.207663 L 37.870647,12.207663 z M 42.678128,8.8409444 L 39.973918,7.8780828 L 40.475099,9.4187887 L 42.678128,8.8409444 z M 32.560183,12.398662 C 32.861851,12.398662 38.873006,8.3616397 38.270870,8.2631001 C 37.669333,8.1676007 37.569577,8.2631001 35.965681,8.0708893 C 34.362386,7.8780828 32.658737,10.380438 32.259115,10.765477 C 31.858892,11.150493 31.993501,12.398662 32.560183,12.398662 z M 48.896605,48.273712 C 48.896605,48.273712 48.216947,48.458076 48.991554,48.737323 C 49.766761,49.015974 52.869990,44.193182 52.869990,44.193182 L 50.252316,45.862029 L 48.896605,48.273712 z M 67.609125,33.529726 L 67.103738,32.535436 C 66.502804,29.105263 65.128465,24.712209 62.180877,20.174723 C 57.744775,13.356080 45.403370,9.4212127 45.403370,9.4212127 L 44.724913,10.252914 L 44.336709,9.6061721 L 43.368001,9.2344249 L 43.368001,10.067955 L 44.240559,10.811408 L 43.658253,11.088231 L 41.426981,11.273807 L 36.384534,14.056620 L 36.868887,16.280941 L 36.287783,16.469536 L 35.996931,16.929510 L 37.645296,19.433674 L 37.742646,20.270223 L 36.384534,20.547046 L 36.384534,22.215892 L 35.609928,22.399640 L 35.706679,23.699184 L 29.112618,28.337611 L 29.306119,30.932467 C 29.791074,31.581017 33.574562,35.477224 33.574562,35.477224 C 33.574562,35.477224 37.935548,35.659760 38.906659,35.106093 C 39.875366,34.548196 39.196910,35.659760 39.488965,35.939007 C 39.779216,36.218849 39.875967,38.164539 40.166820,38.351902 C 40.457071,38.536861 40.166820,39.647830 40.555024,40.020153 C 40.943227,40.390668 40.943227,44.842944 40.943227,44.842944 C 40.943227,44.842944 43.270649,48.829802 43.270649,49.850079 C 43.270649,50.869781 43.172696,50.778513 45.015167,50.684204 C 46.858235,50.591725 47.243433,49.850079 47.632238,49.572045 C 48.020443,49.293414 48.020443,48.644843 48.409849,48.086945 C 48.798654,47.531471 49.474104,45.399035 50.348466,44.657389 C 51.222225,43.913935 53.547244,43.356633 53.741345,42.060130 C 53.935446,40.761799 54.808006,39.740290 54.808006,39.740290 L 59.000730,35.242081 L 58.882346,35.847739 L 58.785594,38.164539 L 60.045755,37.702140 L 59.950208,35.196765 L 59.496502,34.709573 L 59.560802,34.641887 C 59.560802,34.641887 59.271151,34.086413 58.882346,34.086413 C 58.494742,34.086413 56.166118,34.641887 55.779117,34.548196 C 55.390912,34.456928 53.741345,30.003439 53.450493,29.819691 C 53.160241,29.634136 51.319577,26.574477 51.319577,26.574477 C 51.319577,26.574477 55.585014,31.767784 56.264071,33.806550 C 56.658284,34.993071 58.137787,33.887547 59.341460,32.649670 L 59.658753,33.437842 L 60.433960,33.251076 L 60.337209,32.323279 L 61.210369,32.323279 L 61.210369,33.714070 L 60.919514,34.456928 L 60.819761,35.659760 L 61.596168,36.404425 L 61.985574,35.755259 L 63.243932,34.548196 L 64.699396,33.807166 L 65.087601,34.548196 L 65.281704,35.569684 L 64.892899,36.681248 L 64.117091,37.331626 L 63.729489,39.001068 L 63.729489,39.832174 L 62.856930,39.279123 L 62.761382,37.517798 L 61.501822,37.610277 L 60.918914,39.184219 L 61.790872,40.484359 L 63.826238,40.761799 L 65.475805,39.184219 L 65.668705,36.126986 L 66.402447,35.145985 C 66.880192,36.390518 67.220922,37.695485 67.220922,38.908588 C 67.220922,40.240773 67.821255,37.986830 67.311061,33.926843 L 67.609125,33.529726 z M 43.173297,24.071506 L 37.937951,23.884739 L 40.166820,22.032145 L 41.331431,22.032145 L 43.172696,23.327458 L 43.172696,24.071506 L 43.173297,24.071506 z M 49.573259,23.421744 L 49.573259,24.256466 L 47.344390,24.256466 L 47.537893,24.811940 L 46.179178,24.998727 L 46.083027,25.461722 L 45.113719,25.277974 L 43.368602,24.905631 L 43.658854,24.442637 L 43.949105,23.884143 L 44.918416,22.865059 L 45.306019,23.607300 L 46.761483,23.513628 L 47.537893,22.680099 L 50.542567,23.234382 L 49.573259,23.421744 z M 49.766761,22.215892 L 48.602147,22.399640 L 48.411051,21.567343 L 49.862308,21.383595 L 50.058214,20.547046 L 51.124873,21.661630 L 49.766761,22.215892 z M 60.143107,41.411560 L 60.920115,40.390668 L 60.143107,40.113228 L 59.561403,40.855490 L 58.882946,41.874555 L 59.464050,42.153205 L 60.143107,41.411560 z M 55.391513,51.054740 L 54.712456,51.610809 L 54.808607,53.003428 L 55.682967,53.003428 L 55.682967,51.798193 L 56.457571,50.779108 L 56.457571,48.645439 L 55.972617,48.549344 L 55.391513,51.054740 z M 63.537188,44.749869 L 63.341284,43.266577 L 62.083527,43.266577 L 61.986175,44.376314 L 60.820362,44.193182 L 60.532514,42.986714 L 59.950809,42.617412 L 59.271752,43.452749 L 58.593296,43.266577 L 58.398592,43.913935 L 59.173799,44.100703 L 59.173799,50.128135 L 61.918871,50.797842 C 61.856374,50.910864 61.807097,51.002748 61.791473,51.054740 C 61.596168,51.704501 62.567880,51.983153 63.243932,51.704501 C 63.495723,51.600539 64.293765,50.783935 64.796148,49.572661 C 65.493833,47.888695 66.106186,45.662567 66.228176,44.875585 L 66.541264,44.193182 L 64.601445,44.936020 L 63.537188,44.749869 z "
         adobe-blending-mode="multiply" />
      <path
         inkscape:export-ydpi="36.000000"
         inkscape:export-xdpi="36.000000"
         inkscape:export-filename="/home/nuno/kdeplayground-artwork/oooicons/crystalsvg/world.png"
         id="path72"
         style="fill:url(#linearGradient3414);fill-opacity:1.0000000"
         d="M 28.001901,7.1475523 C 27.820419,7.1475523 27.623914,7.2212916 27.422600,7.3373432 C 27.897340,7.1959059 28.120886,7.1475523 28.001901,7.1475523 z M 39.761001,9.4558913 L 39.879385,7.7241826 L 38.063959,7.8384203 L 38.304934,9.4558913 L 39.761001,9.4558913 z M 19.274521,39.360948 C 18.909151,39.014607 19.153130,37.511376 19.153130,37.511376 C 19.153130,37.511376 13.697842,34.628218 7.7575976,32.894696 C 7.0244585,32.680121 7.3952344,31.164197 8.1193620,30.587566 L 7.8783853,28.967677 C 7.7575976,28.160756 9.0916751,24.234948 10.423948,23.891023 C 11.757422,23.542265 10.303160,26.197550 10.303160,26.197550 L 8.9690846,27.006285 C 8.9690846,27.006285 10.544735,28.852836 10.910103,28.852836 C 11.273069,28.852836 11.878811,27.928049 11.878811,27.928049 L 10.181771,26.778412 L 11.757422,26.083312 L 11.857178,25.472831 L 12.122191,25.388814 L 14.729647,21.413441 C 16.532454,20.670589 18.749302,19.751848 19.029939,19.616454 C 19.515496,19.387373 22.909577,17.425979 23.515921,16.962379 C 24.122266,16.497566 25.454538,16.617245 25.939492,16.617245 C 26.424448,16.617245 27.152782,16.385142 27.272368,15.111596 C 27.394357,13.842280 27.878710,13.610176 28.242878,13.958937 C 28.605842,14.302861 27.878710,14.880701 28.728432,15.111596 C 29.577554,15.345512 30.302883,15.921539 30.909226,15.345512 C 31.353918,14.921803 30.759594,14.441277 30.360573,14.074989 L 37.091045,14.074989 L 37.819379,11.994520 L 36.244327,11.764834 L 30.423671,11.188808 L 30.423671,10.493102 L 29.959149,10.574097 C 30.590731,7.0895254 34.332754,7.6649478 31.516171,5.6473427 C 31.343703,5.5234318 28.880470,9.5550185 28.251892,9.4770453 C 27.116124,9.3259369 25.646837,9.3138480 25.334351,9.6843668 C 24.922110,10.175773 26.263998,7.9967841 27.421999,7.3367393 C 25.575927,7.8837543 19.743250,9.8904801 13.575251,16.497566 C 7.6812796,22.815731 5.3322242,31.325582 5.3322242,31.625382 C 5.3322242,32.200200 6.5449109,32.432303 6.6669005,33.126799 C 6.7876882,33.816461 4.3641175,36.126010 4.3641175,37.281690 C 4.3641175,37.813593 3.7920273,44.930823 5.8177788,50.790826 C 8.1836618,57.634245 13.232117,63.346768 13.819831,63.722726 L 15.030114,63.144282 C 15.030114,63.144282 12.242979,58.180051 12.122792,57.717658 C 12.001403,57.257078 15.274697,50.558722 16.849146,50.790826 C 18.424198,51.020510 18.061231,51.484720 19.030540,50.905669 C 20.001050,50.329037 20.606794,45.592679 21.696890,45.133912 C 22.788789,44.669102 24.002077,44.093680 23.881890,42.939207 C 23.759299,41.783527 19.638687,39.708498 19.274521,39.360948 z M 45.578653,5.4140296 L 42.456796,4.7890437 L 42.912906,6.1079215 L 45.578653,5.4140296 z M 33.335202,9.6849728 C 33.698767,9.6849728 40.972486,4.8392112 40.244753,4.7201379 C 39.518224,4.6071080 39.335538,5.0876349 37.394517,4.8585534 C 35.455902,4.6264503 33.454788,7.2623940 32.971034,7.7241826 C 32.487282,8.1865750 32.649535,9.6849728 33.335202,9.6849728 z M 66.711139,44.499860 L 67.650400,43.275879 L 66.711139,42.942229 L 66.006842,43.833167 L 65.186566,45.054732 L 65.889659,45.390797 L 66.711139,44.499860 z M 70.816726,48.508478 L 70.581160,46.728413 L 69.057791,46.728413 L 68.940008,48.059382 L 67.529612,47.841180 L 67.181070,46.392952 L 66.476775,45.950505 L 65.655295,46.950241 L 64.834418,46.729019 L 64.598852,47.505113 L 65.537512,47.729359 L 65.537512,54.962035 L 68.859481,55.766539 C 68.783764,55.901933 68.724872,56.011941 68.706244,56.072989 C 68.468873,56.853920 69.643101,57.189381 70.463377,56.853920 C 70.768653,56.729407 71.734955,55.749011 72.341300,54.295949 C 73.186215,52.274110 73.924764,49.604320 74.073194,48.658982 L 74.454188,47.841786 L 72.106334,48.732722 L 70.816726,48.508478 z M 75.294296,34.826473 L 75.133245,33.849100 C 74.406714,29.733499 72.730105,24.470073 69.176175,19.018667 C 62.985942,9.5247971 49.443268,5.6195372 49.443268,5.6195372 L 48.055108,7.1088677 L 47.585778,6.3339812 L 46.412752,5.8854893 L 46.412752,6.8864356 L 47.469195,7.7791855 L 46.766101,8.1128357 L 44.066100,8.3346618 L 37.964204,11.674170 L 38.550117,14.342753 L 37.845820,14.569416 L 37.494874,15.122475 L 39.488777,18.127730 L 39.607161,19.130488 L 37.964204,19.464136 L 37.964204,21.466632 L 37.025544,21.687251 L 37.143928,23.246091 L 29.164712,28.812944 L 29.400278,31.925786 C 29.986791,32.704902 34.562912,37.380214 34.562912,37.380214 C 34.562912,37.380214 39.841525,37.600832 41.015153,36.934744 C 42.188778,36.265633 41.367300,37.600832 41.720049,37.935086 C 42.070394,38.269338 42.188778,40.604876 42.539724,40.829727 C 42.891874,41.050951 42.539724,42.384335 43.008455,42.832223 C 43.478386,43.275879 43.478386,48.619694 43.478386,48.619694 C 43.478386,48.619694 46.294367,53.401987 46.294367,54.627783 C 46.294367,55.850556 46.177786,55.739946 48.407856,55.629938 C 50.637927,55.517511 51.105454,54.627783 51.574784,54.294739 C 52.045316,53.959277 52.045316,53.182577 52.514648,52.512862 C 52.984579,51.844961 53.802451,49.286386 54.860698,48.396656 C 55.916541,47.503906 58.730719,46.835400 58.966286,45.279582 C 59.200650,43.721951 60.257095,42.497365 60.257095,42.497365 L 65.328989,37.097337 L 65.185965,37.823870 L 65.069384,40.604272 L 66.593356,40.049400 L 66.476775,37.043541 L 65.928721,36.461472 L 66.006842,36.377453 C 66.006842,36.377453 65.655295,35.710157 65.186566,35.710157 C 64.717236,35.710157 61.900053,36.377453 61.431322,36.265633 C 60.961992,36.153813 58.966286,30.813020 58.614138,30.591796 C 58.261990,30.368156 56.034324,26.695606 56.034324,26.695606 C 56.034324,26.695606 61.195755,32.929148 62.015432,35.375905 C 62.493776,36.798746 64.283961,35.472615 65.741230,33.986308 L 66.124625,34.930435 L 67.064489,34.705585 L 66.946105,33.595841 L 68.001346,33.595841 L 68.001346,35.264689 L 67.650400,36.154417 L 67.529612,37.601436 L 68.468873,38.492980 L 68.939407,37.715675 L 70.462776,36.266238 L 72.224117,35.377113 L 72.693447,36.266238 L 72.929014,37.492637 L 72.457280,38.825418 L 71.519822,39.604536 L 71.050492,41.609448 L 71.050492,42.607977 L 69.995249,41.940075 L 69.878067,39.828178 L 68.353493,39.939998 L 67.650400,41.828859 L 68.706244,43.390116 L 71.167674,43.722557 L 73.164580,41.828859 L 73.398346,38.160539 L 74.284724,36.981889 C 74.863424,38.474846 75.275064,40.040939 75.275064,41.498233 C 75.275064,43.096362 76.003398,40.391511 75.385036,35.519156 L 75.294296,34.826473 z M 46.177786,23.692164 L 39.842727,23.467313 L 42.539724,21.242990 L 43.947115,21.242990 L 46.177786,22.800017 L 46.177786,23.692164 z M 53.922037,22.913046 L 53.922037,23.914597 L 51.223237,23.914597 L 51.459404,24.581893 L 49.814644,24.808556 L 49.698063,25.362825 L 48.524438,25.140393 L 46.412752,24.693715 L 46.766101,24.138239 L 47.116446,23.467916 L 48.289472,22.246354 L 48.759403,23.137290 L 50.520745,23.025470 L 51.460005,22.022712 L 55.095063,22.690009 L 53.922037,22.913046 z M 54.155800,21.466027 L 52.747810,21.686647 L 52.514047,20.685700 L 54.271180,20.463872 L 54.506746,19.464136 L 55.799959,20.800543 L 54.155800,21.466027 z M 60.961391,56.072384 L 60.138711,56.740286 L 60.257095,58.410946 L 61.312337,58.410946 L 61.312337,56.966950 L 62.252200,55.739946 L 62.252200,53.183183 L 61.663885,53.067735 L 60.961391,56.072384 z M 53.100559,52.737108 C 53.100559,52.737108 52.280283,52.955309 53.217140,53.291981 C 54.155800,53.626837 57.911045,47.840576 57.911045,47.840576 L 54.742314,49.841258 L 53.100559,52.737108 z M 46.715622,74.064619 L 46.012529,73.391277 L 44.604537,73.167034 L 44.370773,73.840979 L 42.494655,73.616733 L 42.376872,72.721564 L 40.970082,72.721564 L 39.444307,73.616733 L 36.747311,73.616733 L 36.514148,72.944599 L 32.174795,72.494296 L 31.470500,73.167034 L 29.712163,72.721564 L 29.478399,71.150636 L 28.658123,71.036396 L 27.719462,72.721564 L 24.553135,72.607930 C 25.118615,72.877507 29.847375,75.715936 37.098857,76.309493 C 46.714420,77.090424 51.286936,74.737960 51.286936,74.737960 L 50.935389,74.401291 L 46.715622,74.064619 z " />
      <path
         inkscape:export-ydpi="36.000000"
         inkscape:export-xdpi="36.000000"
         inkscape:export-filename="/home/nuno/kdeplayground-artwork/oooicons/crystalsvg/world.png"
         id="path78"
         style="opacity:0.49999997;fill:#ffffff"
         d="M 40.258759,69.650281 C 24.001661,69.650281 10.482425,59.891062 9.2438969,44.625436 C 9.1826016,45.376145 9.1411365,46.131085 9.1411365,46.895697 C 9.1411365,63.223921 23.197610,76.534197 40.258759,76.534197 C 57.440095,76.534197 71.378186,63.223921 71.378186,46.895697 C 71.378186,46.131085 71.337923,45.376145 71.277228,44.625436 C 70.047113,59.891062 56.630035,69.650281 40.258759,69.650281 z "
         adobe-blending-mode="screen" />
      <path
         inkscape:export-ydpi="36.000000"
         inkscape:export-xdpi="36.000000"
         inkscape:export-filename="/home/nuno/kdeplayground-artwork/oooicons/crystalsvg/world.png"
         id="path8147"
         style="fill:#0000a4;fill-opacity:0.14687498"
         d="M 27.867613,7.1827731 C 27.686131,7.1827731 27.489626,7.2565124 27.288312,7.3725639 C 27.763052,7.2311266 27.986598,7.1827731 27.867613,7.1827731 z M 39.626713,9.4911121 L 39.745097,7.7594033 L 37.929671,7.8736410 L 38.170646,9.4911121 L 39.626713,9.4911121 z M 19.140233,39.396167 C 18.774863,39.049826 19.018842,37.546595 19.018842,37.546595 C 19.018842,37.546595 13.563554,34.663437 7.6233096,32.929915 C 6.8901704,32.715340 7.2609464,31.199416 7.9850740,30.622785 L 7.7440973,29.002896 C 7.6233096,28.195975 8.9573870,24.270167 10.289660,23.926242 C 11.623134,23.577483 10.168872,26.232769 10.168872,26.232769 L 8.8347966,27.041505 C 8.8347966,27.041505 10.410447,28.888055 10.775815,28.888055 C 11.138781,28.888055 11.744523,27.963268 11.744523,27.963268 L 10.047483,26.813632 L 11.623134,26.118531 L 11.722890,25.508050 L 11.987903,25.424033 L 14.595359,21.448660 C 16.398166,20.705808 18.615014,19.787068 18.895651,19.651674 C 19.381208,19.422593 22.775289,17.461200 23.381633,16.997600 C 23.987977,16.532787 25.320250,16.652467 25.805204,16.652467 C 26.290159,16.652467 27.018493,16.420364 27.138079,15.146818 C 27.260069,13.877502 27.744422,13.645399 28.108590,13.994159 C 28.471554,14.338082 27.744422,14.915922 28.594144,15.146818 C 29.443266,15.380733 30.168595,15.956762 30.774938,15.380733 C 31.219630,14.957025 30.625306,14.476498 30.226285,14.110211 L 36.956757,14.110211 L 37.685091,12.029741 L 36.110039,11.800055 L 30.289383,11.224029 L 30.289383,10.528323 L 29.824860,10.609318 C 30.456443,7.1247462 34.198465,7.7001686 31.381883,5.6825636 C 31.209415,5.5586526 28.746181,9.5902392 28.117603,9.5122662 C 26.981836,9.3611578 25.512548,9.3490688 25.200063,9.7195875 C 24.787822,10.210994 26.129709,8.0320049 27.287711,7.3719601 C 25.441639,7.9189750 19.608962,9.9257012 13.440963,16.532787 C 7.5469915,22.850950 5.1979362,31.360801 5.1979362,31.660601 C 5.1979362,32.235419 6.4106229,32.467522 6.5326124,33.162018 C 6.6534002,33.851680 4.2298295,36.161229 4.2298295,37.316909 C 4.2298295,37.848812 3.6577392,44.966042 5.6834907,50.826044 C 8.0493738,57.669464 13.097829,63.381987 13.685543,63.757946 L 14.895826,63.179501 C 14.895826,63.179501 12.108691,58.215270 11.988504,57.752877 C 11.867115,57.292297 15.140409,50.593941 16.714858,50.826044 C 18.289910,51.055729 17.926943,51.519938 18.896252,50.940888 C 19.866762,50.364256 20.472506,45.627898 21.562602,45.169131 C 22.654501,44.704321 23.867788,44.128899 23.747602,42.974426 C 23.625011,41.818745 19.504399,39.743718 19.140233,39.396167 z M 45.444364,5.4492504 L 42.322508,4.8242645 L 42.778617,6.1431422 L 45.444364,5.4492504 z M 33.200914,9.7201936 C 33.564479,9.7201936 40.838198,4.8744319 40.110465,4.7553586 C 39.383935,4.6423288 39.201249,5.1228557 37.260229,4.8937742 C 35.321614,4.6616710 33.320500,7.2976147 32.836746,7.7594033 C 32.352994,8.2217959 32.515247,9.7201936 33.200914,9.7201936 z M 66.576851,44.535079 L 67.516112,43.311099 L 66.576851,42.977448 L 65.872553,43.868386 L 65.052278,45.089951 L 65.755371,45.426016 L 66.576851,44.535079 z M 70.682438,48.543697 L 70.446872,46.763632 L 68.923503,46.763632 L 68.805719,48.094601 L 67.395324,47.876399 L 67.046782,46.428171 L 66.342486,45.985725 L 65.521007,46.985461 L 64.700130,46.764238 L 64.464564,47.540333 L 65.403224,47.764579 L 65.403224,54.997254 L 68.725193,55.801758 C 68.649476,55.937152 68.590584,56.047160 68.571956,56.108209 C 68.334585,56.889139 69.508813,57.224600 70.329089,56.889139 C 70.634365,56.764626 71.600667,55.784230 72.207011,54.331168 C 73.051927,52.309330 73.790476,49.639539 73.938906,48.694202 L 74.319900,47.877005 L 71.972046,48.767941 L 70.682438,48.543697 z M 75.160007,34.861692 L 74.998956,33.884319 C 74.272425,29.768718 72.595817,24.505292 69.041887,19.053888 C 62.851654,9.5600179 49.308979,5.6547580 49.308979,5.6547580 L 47.920820,7.1440885 L 47.451490,6.3692019 L 46.278463,5.9207102 L 46.278463,6.9216564 L 47.334906,7.8144064 L 46.631813,8.1480565 L 43.931812,8.3698826 L 37.829915,11.709392 L 38.415829,14.377975 L 37.711531,14.604639 L 37.360586,15.157697 L 39.354489,18.162951 L 39.472873,19.165708 L 37.829915,19.499356 L 37.829915,21.501851 L 36.891256,21.722470 L 37.009640,23.281310 L 29.030424,28.848162 L 29.265990,31.961005 C 29.852502,32.740122 34.428623,37.415433 34.428623,37.415433 C 34.428623,37.415433 39.707237,37.636051 40.880865,36.969963 C 42.054490,36.300853 41.233012,37.636051 41.585761,37.970305 C 41.936106,38.304557 42.054490,40.640096 42.405436,40.864946 C 42.757585,41.086170 42.405436,42.419554 42.874167,42.867442 C 43.344098,43.311099 43.344098,48.654913 43.344098,48.654913 C 43.344098,48.654913 46.160079,53.437207 46.160079,54.663002 C 46.160079,55.885775 46.043498,55.775165 48.273568,55.665157 C 50.503639,55.552730 50.971166,54.663002 51.440496,54.329959 C 51.911027,53.994496 51.911027,53.217796 52.380359,52.548082 C 52.850290,51.880180 53.668162,49.321605 54.726410,48.431875 C 55.782252,47.539125 58.596431,46.870619 58.831997,45.314801 C 59.066362,43.757170 60.122807,42.532584 60.122807,42.532584 L 65.194700,37.132556 L 65.051677,37.859089 L 64.935095,40.639491 L 66.459068,40.084619 L 66.342486,37.078760 L 65.794433,36.496691 L 65.872553,36.412672 C 65.872553,36.412672 65.521007,35.745376 65.052278,35.745376 C 64.582948,35.745376 61.765764,36.412672 61.297033,36.300853 C 60.827703,36.189032 58.831997,30.848240 58.479850,30.627015 C 58.127702,30.403376 55.900035,26.730825 55.900035,26.730825 C 55.900035,26.730825 61.061467,32.964368 61.881144,35.411124 C 62.359488,36.833965 64.149673,35.507834 65.606942,34.021527 L 65.990337,34.965654 L 66.930200,34.740804 L 66.811816,33.631060 L 67.867058,33.631060 L 67.867058,35.299908 L 67.516112,36.189636 L 67.395324,37.636655 L 68.334585,38.528199 L 68.805119,37.750894 L 70.328488,36.301457 L 72.089829,35.412332 L 72.559159,36.301457 L 72.794725,37.527857 L 72.322992,38.860637 L 71.385534,39.639755 L 70.916204,41.644667 L 70.916204,42.643196 L 69.860961,41.975294 L 69.743778,39.863397 L 68.219205,39.975218 L 67.516112,41.864078 L 68.571956,43.425336 L 71.033386,43.757776 L 73.030292,41.864078 L 73.264057,38.195758 L 74.150436,37.017109 C 74.729136,38.510065 75.140776,40.076158 75.140776,41.533452 C 75.140776,43.131580 75.869110,40.426731 75.250747,35.554375 L 75.160007,34.861692 z M 46.043498,23.727384 L 39.708439,23.502532 L 42.405436,21.278209 L 43.812827,21.278209 L 46.043498,22.835236 L 46.043498,23.727384 z M 53.787748,22.948266 L 53.787748,23.949816 L 51.088949,23.949816 L 51.325116,24.617112 L 49.680356,24.843775 L 49.563775,25.398044 L 48.390150,25.175612 L 46.278463,24.728934 L 46.631813,24.173458 L 46.982158,23.503136 L 48.155184,22.281573 L 48.625115,23.172510 L 50.386456,23.060689 L 51.325717,22.057931 L 54.960775,22.725228 L 53.787748,22.948266 z M 54.021512,21.501246 L 52.613522,21.721866 L 52.379759,20.720919 L 54.136891,20.499092 L 54.372458,19.499356 L 55.665671,20.835763 L 54.021512,21.501246 z M 60.827102,56.107603 L 60.004423,56.775505 L 60.122807,58.446165 L 61.178048,58.446165 L 61.178048,57.002169 L 62.117912,55.775165 L 62.117912,53.218402 L 61.529597,53.102955 L 60.827102,56.107603 z M 52.966271,52.772328 C 52.966271,52.772328 52.145995,52.990528 53.082852,53.327201 C 54.021512,53.662056 57.776756,47.875795 57.776756,47.875795 L 54.608026,49.876477 L 52.966271,52.772328 z M 46.581334,74.099838 L 45.878240,73.426496 L 44.470249,73.202252 L 44.236485,73.876198 L 42.360367,73.651952 L 42.242584,72.756783 L 40.835794,72.756783 L 39.310019,73.651952 L 36.613022,73.651952 L 36.379860,72.979818 L 32.040507,72.529515 L 31.336211,73.202252 L 29.577875,72.756783 L 29.344111,71.185855 L 28.523835,71.071615 L 27.585173,72.756783 L 24.418847,72.643149 C 24.984327,72.912726 29.713086,75.751156 36.964569,76.344712 C 46.580132,77.125643 51.152648,74.773179 51.152648,74.773179 L 50.801101,74.436510 L 46.581334,74.099838 z " />
      <path
         inkscape:export-ydpi="36.000000"
         inkscape:export-xdpi="36.000000"
         inkscape:export-filename="/home/nuno/kdeplayground-artwork/oooicons/crystalsvg/world.png"
         id="path89"
         style="fill:url(#radialGradient3416);fill-opacity:1.0000000"
         d="M 68.552069,23.864842 C 68.552069,34.796060 55.854910,43.657689 40.191535,43.657689 C 24.529364,43.657689 11.832205,34.796664 11.832205,23.864842 C 11.832205,12.933624 24.528763,4.0719921 40.191535,4.0719921 C 55.854910,4.0725961 68.552069,12.933624 68.552069,23.864842 z "
         adobe-blending-mode="screen" />
      <path
         inkscape:export-ydpi="36.000000"
         inkscape:export-xdpi="36.000000"
         inkscape:export-filename="/home/nuno/kdeplayground-artwork/oooicons/crystalsvg/world.png"
         id="path10103"
         style="fill:url(#radialGradient3418);fill-opacity:1.0000000;fill-rule:evenodd"
         d="M 40.010466,77.623408 C 60.756973,77.623408 77.584950,60.718513 77.584950,39.980286 C 77.584950,19.376845 60.756973,2.4719533 40.010466,2.4719533 C 19.411444,2.4719533 2.4408229,19.376845 2.4408229,39.980286 C 2.4408229,60.718513 19.411444,77.623408 40.010466,77.623408 z " />
    </g>
    <g
       transform="matrix(0.167704,0.000000,0.000000,0.174604,95.75841,42.31494)"
       id="g3338">
      <path
         sodipodi:nodetypes="cccccccccccccccccc"
         id="path3326"
         d="M -240.44301,-68.316144 C -243.86112,-68.437500 -247.18046,-67.085045 -249.64814,-64.565534 C -252.11582,-62.046023 -253.52270,-58.572981 -253.54972,-54.934140 L -254.63730,106.45107 C -254.66290,110.87231 -252.65163,115.02652 -249.25347,117.57112 C -245.85534,120.11570 -241.50131,120.72794 -237.59857,119.20995 L -202.79604,105.62026 L -165.26064,194.27975 C -162.39536,201.06289 -154.91288,204.10154 -148.52866,201.07460 L -117.71393,186.44639 C -114.62153,184.97749 -112.20960,182.25380 -111.01533,178.88192 C -109.82107,175.51006 -109.94366,171.77005 -111.35579,168.49491 L -148.13826,83.128988 L -118.55053,70.132717 C -114.52764,68.363354 -111.63849,64.522605 -110.89718,59.958553 C -110.15587,55.394503 -111.66594,50.744795 -114.89739,47.641453 L -232.38377,-64.874209 C -234.60587,-66.994765 -237.45964,-68.213555 -240.44301,-68.316144 z "
         style="fill:#000000;fill-opacity:0.043290023;fill-rule:evenodd;stroke:none;stroke-width:28.424999;stroke-linecap:butt;stroke-linejoin:round;stroke-miterlimit:4.0000000;stroke-opacity:1.0000000" />
      <path
         sodipodi:nodetypes="cccccccccccccccccc"
         id="path3324"
         d="M -239.69867,-68.316081 C -243.29602,-68.438456 -246.78942,-67.074643 -249.38650,-64.533974 C -251.98358,-61.993304 -253.46424,-58.491096 -253.49268,-54.821696 L -254.63729,107.91881 C -254.66423,112.37718 -252.54749,116.56628 -248.97114,119.13225 C -245.39481,121.69820 -240.81246,122.31558 -236.70507,120.78484 L -200.07755,107.08102 L -160.57385,196.48507 C -157.55832,203.32517 -149.68346,206.38934 -142.96447,203.33698 L -110.53386,188.58592 C -107.27930,187.10469 -104.74089,184.35812 -103.48399,180.95793 C -102.22711,177.55775 -102.35612,173.78633 -103.84230,170.48369 L -142.55359,84.400872 L -111.41433,71.295460 C -107.18048,69.511238 -104.13983,65.638235 -103.35965,61.035854 C -102.57946,56.433476 -104.16872,51.744720 -107.56962,48.615317 L -231.21681,-64.845241 C -233.55544,-66.983605 -236.55886,-68.212630 -239.69867,-68.316081 z "
         style="fill:#000000;fill-opacity:0.043290023;fill-rule:evenodd;stroke:none;stroke-width:28.424999;stroke-linecap:butt;stroke-linejoin:round;stroke-miterlimit:4.0000000;stroke-opacity:1.0000000" />
      <path
         sodipodi:nodetypes="cccccccccccccccccc"
         id="path3322"
         d="M -239.17763,-68.315892 C -242.90045,-68.441324 -246.51569,-67.043438 -249.20335,-64.439293 C -251.89102,-61.835147 -253.42332,-58.245440 -253.45275,-54.484364 L -254.63728,112.32203 C -254.66516,116.89179 -252.47459,121.18555 -248.77351,123.81563 C -245.07244,126.44569 -240.33027,127.07849 -236.07962,125.50951 L -198.17461,111.46331 L -157.29309,203.10102 C -154.17239,210.11202 -146.02287,213.25274 -139.06953,210.12412 L -105.50781,195.00452 C -102.13974,193.48628 -99.512796,190.67109 -98.212058,187.18595 C -96.911332,183.70082 -97.044845,179.83518 -98.582864,176.45003 L -138.64432,88.216525 L -106.41899,74.783689 C -102.03747,72.954890 -98.890772,68.985124 -98.083380,64.267758 C -97.275977,59.550395 -98.920664,54.744495 -102.44018,51.536908 L -230.39994,-64.758337 C -232.82014,-66.950125 -235.92831,-68.209856 -239.17763,-68.315892 z "
         style="fill:#000000;fill-opacity:0.043290023;fill-rule:evenodd;stroke:none;stroke-width:28.424999;stroke-linecap:butt;stroke-linejoin:round;stroke-miterlimit:4.0000000;stroke-opacity:1.0000000" />
      <path
         sodipodi:nodetypes="cccccccccccccccccc"
         id="path2558"
         d="M -238.73102,-68.315744 C -242.56139,-68.443555 -246.28106,-67.019167 -249.04636,-64.365652 C -251.81167,-61.712136 -253.38825,-58.054374 -253.41852,-54.221994 L -254.63727,115.74676 C -254.66596,120.40315 -252.41210,124.77832 -248.60411,127.45825 C -244.79612,130.13818 -239.91695,130.78298 -235.54352,129.18426 L -196.54352,114.87176 L -154.48102,208.24676 C -151.27015,215.39068 -142.88521,218.59094 -135.73102,215.40301 L -101.19977,199.99676 C -97.734393,198.44974 -95.031563,195.58118 -93.693253,192.02998 C -92.354953,188.47877 -92.492323,184.53985 -94.074773,181.09051 L -135.29352,91.184256 L -102.13727,77.496756 C -97.629183,75.633286 -94.391583,71.588260 -93.560853,66.781462 C -92.730133,61.974665 -94.422333,57.077654 -98.043523,53.809256 L -229.69977,-64.690744 C -232.18988,-66.924085 -235.38785,-68.207698 -238.73102,-68.315744 z "
         style="fill:#000000;fill-opacity:0.077922054;fill-rule:evenodd;stroke:none;stroke-width:28.424999;stroke-linecap:butt;stroke-linejoin:round;stroke-miterlimit:4.0000000;stroke-opacity:1.0000000" />
      <path
         sodipodi:nodetypes="cccccccc"
         id="path4041"
         style="fill:url(#linearGradient3364);fill-opacity:1.0000000;fill-rule:evenodd;stroke:#000000;stroke-width:12.246215pt;stroke-linecap:butt;stroke-linejoin:round;stroke-opacity:1.0000000"
         d="M -241.66309,-58.084431 L -242.76576,107.59433 L -196.25894,89.190355 L -153.29571,191.98354 L -122.06466,176.97007 L -164.91406,76.222367 L -122.59258,57.413445 L -241.66309,-58.084431 z " />
      <path
         sodipodi:nodetypes="ccccccc"
         id="path4083"
         d="M -242.09167,-56.572017 C -244.06020,-55.969913 -243.33928,-51.783768 -243.42392,-50.574436 L -244.57843,106.76204 C -232.57792,94.476986 -190.75933,112.21309 -208.57692,69.906898 C -241.68022,-20.399695 -143.86250,26.863280 -189.91859,-12.415651 L -234.27306,-54.421089 C -236.85111,-56.634472 -239.21729,-59.170144 -242.09167,-56.572017 z "
         style="fill:url(#linearGradient3366);fill-opacity:1.0000000;fill-rule:evenodd;stroke:none;stroke-width:12.019479pt;stroke-linecap:butt;stroke-linejoin:round;stroke-opacity:1.0000000" />
      <path
         sodipodi:nodetypes="ccccccc"
         id="path4096"
         d="M -231.15568,104.21768 L -196.26907,89.193189 L -153.28120,191.99565 L -122.05471,176.96967 L -164.90106,76.234144 L -121.86062,58.665340 C -161.28054,43.574062 -227.81908,82.437212 -231.15568,104.21768 z "
         style="fill:url(#radialGradient3368);fill-opacity:1.0000000;fill-rule:evenodd;stroke:none;stroke-width:12.019479pt;stroke-linecap:butt;stroke-linejoin:round;stroke-opacity:1.0000000" />
    </g>
  </g>
</svg>
