<?xml version="1.0" encoding="UTF-8" standalone="no"?>
<!-- Created with Inkscape (http://www.inkscape.org/) -->
<svg
   xmlns:dc="http://purl.org/dc/elements/1.1/"
   xmlns:cc="http://web.resource.org/cc/"
   xmlns:rdf="http://www.w3.org/1999/02/22-rdf-syntax-ns#"
   xmlns:svg="http://www.w3.org/2000/svg"
   xmlns="http://www.w3.org/2000/svg"
   xmlns:xlink="http://www.w3.org/1999/xlink"
   xmlns:sodipodi="http://inkscape.sourceforge.net/DTD/sodipodi-0.dtd"
   xmlns:inkscape="http://www.inkscape.org/namespaces/inkscape"
   sodipodi:docname="paragraphdialog.svg"
   sodipodi:docbase="/home/pinheiro/kdeplayground-artwork/oooicons/crystalsvg"
   inkscape:version="0.41"
   sodipodi:version="0.32"
   id="svg1313"
   height="64px"
   width="64px">
  <defs
     id="defs3">
    <radialGradient
       inkscape:collect="always"
       xlink:href="#light75to0"
       id="radialGradient11043"
       gradientUnits="userSpaceOnUse"
       gradientTransform="scale(0.764705,1.307693)"
       cx="230.82704"
       cy="326.33093"
       fx="230.82704"
       fy="326.33093"
       r="63.850101" />
    <linearGradient
       inkscape:collect="always"
       xlink:href="#light100to0"
       id="linearGradient9518"
       gradientUnits="userSpaceOnUse"
       gradientTransform="scale(1.388068,0.720426)"
       x1="6.9976802"
       y1="346.80029"
       x2="99.199142"
       y2="346.22098" />
    <linearGradient
       inkscape:collect="always"
       xlink:href="#light100to0"
       id="linearGradient8756"
       gradientUnits="userSpaceOnUse"
       gradientTransform="scale(1.388068,0.720426)"
       x1="133.16811"
       y1="186.35056"
       x2="126.49564"
       y2="346.80029" />
    <linearGradient
       id="light100to0">
      <stop
         style="stop-color:#ffffff;stop-opacity:1.0000000;"
         offset="0.0000000"
         id="stop2764" />
      <stop
         style="stop-color:#ffffff;stop-opacity:0.0000000;"
         offset="1.0000000"
         id="stop2765" />
    </linearGradient>
    <linearGradient
       inkscape:collect="always"
       xlink:href="#light100to0"
       id="linearGradient7234"
       gradientTransform="scale(1.388068,0.720426)"
       x1="67.353241"
       y1="296.98553"
       x2="111.93752"
       y2="347.37952"
       gradientUnits="userSpaceOnUse" />
    <linearGradient
       id="light75to0">
      <stop
         style="stop-color:#ffffff;stop-opacity:0.72916669;"
         offset="0.0000000"
         id="stop2769" />
      <stop
         style="stop-color:#ffffff;stop-opacity:0.0000000;"
         offset="1.0000000"
         id="stop2770" />
    </linearGradient>
    <radialGradient
       inkscape:collect="always"
       xlink:href="#light75to0"
       id="radialGradient5698"
       gradientTransform="scale(0.764705,1.307693)"
       cx="261.57999"
       cy="330.33096"
       fx="261.57999"
       fy="330.33096"
       r="76.861778"
       gradientUnits="userSpaceOnUse" />
    <linearGradient
       id="graytoblack">
      <stop
         style="stop-color:#7d7d7d;stop-opacity:1.0000000;"
         offset="0.0000000"
         id="stop5097" />
      <stop
         style="stop-color:#000000;stop-opacity:1.0000000;"
         offset="1.0000000"
         id="stop5098" />
    </linearGradient>
    <linearGradient
       inkscape:collect="always"
       xlink:href="#graytoblack"
       id="linearGradient8752"
       gradientTransform="scale(0.777841,1.285609)"
       x1="367.72748"
       y1="461.26025"
       x2="151.80466"
       y2="156.01149"
       gradientUnits="userSpaceOnUse"
       spreadMethod="reflect" />
    <linearGradient
       inkscape:collect="always"
       xlink:href="#linearGradient5170"
       id="linearGradient2546"
       gradientUnits="userSpaceOnUse"
       gradientTransform="matrix(0.728114,-1.619744e-2,3.170042e-2,1.425011,-411.8219,-163.2111)"
       x1="149.29594"
       y1="234.90770"
       x2="409.73569"
       y2="154.10789" />
    <linearGradient
       id="linearGradient5170">
      <stop
         style="stop-color:#8f8fa6;stop-opacity:1.0000000;"
         offset="0.0000000"
         id="stop5171" />
      <stop
         style="stop-color:#ffffff;stop-opacity:1.0000000;"
         offset="1.0000000"
         id="stop5172" />
    </linearGradient>
    <linearGradient
       inkscape:collect="always"
       xlink:href="#light90to0"
       id="linearGradient2543"
       gradientUnits="userSpaceOnUse"
       gradientTransform="matrix(0.728114,-1.619744e-2,3.170042e-2,1.425011,-411.8219,-163.2111)"
       x1="304.64722"
       y1="96.190353"
       x2="299.20441"
       y2="145.69553" />
    <linearGradient
       id="light90to0">
      <stop
         style="stop-color:#ffffff;stop-opacity:0.90196079;"
         offset="0.0000000"
         id="stop1890" />
      <stop
         style="stop-color:#ffffff;stop-opacity:0.0000000;"
         offset="1.0000000"
         id="stop1892" />
    </linearGradient>
    <radialGradient
       inkscape:collect="always"
       xlink:href="#light90to0"
       id="radialGradient2540"
       gradientUnits="userSpaceOnUse"
       gradientTransform="matrix(0.901404,-2.005241e-2,2.560619e-2,1.151060,-411.8219,-163.2111)"
       cx="330.11304"
       cy="224.77423"
       fx="328.27005"
       fy="224.28973"
       r="105.02886" />
  </defs>
  <sodipodi:namedview
     inkscape:window-y="266"
     inkscape:window-x="563"
     inkscape:window-height="536"
     inkscape:window-width="640"
     inkscape:grid-bbox="true"
     inkscape:document-units="px"
     showgrid="true"
     inkscape:current-layer="g1381"
     inkscape:cy="32.000000"
     inkscape:cx="32.000000"
     inkscape:zoom="5.5000000"
     inkscape:pageshadow="2"
     inkscape:pageopacity="0.0"
     borderopacity="1.0"
     bordercolor="#666666"
     pagecolor="#ffffff"
     id="base" />
  <metadata
     id="metadata4">
    <rdf:RDF
       id="RDF5">
      <cc:Work
         id="Work6"
         rdf:about="">
        <dc:format
           id="format7">image/svg+xml</dc:format>
        <dc:type
           rdf:resource="http://purl.org/dc/dcmitype/StillImage"
           id="type9" />
      </cc:Work>
    </rdf:RDF>
  </metadata>
  <g
     inkscape:groupmode="layer"
     inkscape:label="Layer 1"
     id="layer1">
    <g
       id="g11055"
       transform="matrix(0.239411,0.000000,0.000000,0.264850,-7.479570,-53.16661)">
      <path
         style="fill:url(#linearGradient8752);fill-opacity:1.0000000;stroke:none;stroke-width:15.387500;stroke-linecap:round;stroke-linejoin:round;stroke-miterlimit:4.0000000;stroke-dashoffset:0.0000000;stroke-opacity:1.0000000"
         d="M 204.90625,202.81250 C 204.90625,202.81250 186.53739,202.99218 167.87500,203.21875 C 158.54380,203.33203 149.15701,203.45632 141.93750,203.56250 C 138.32775,203.61559 135.24778,203.67511 133.00000,203.71875 C 131.87611,203.74057 130.94883,203.76208 130.25000,203.78125 C 129.87536,203.79153 129.56077,203.83626 129.31250,203.84375 L 129.31250,203.81250 C 94.810170,203.51224 67.161739,232.29283 66.750000,268.28125 C 66.544603,286.23412 73.058891,302.33253 84.843750,313.96875 C 95.180585,324.17521 109.38578,330.89017 126.06250,333.34375 L 126.06250,436.75000 C 126.06637,440.99409 129.50591,444.43363 133.75000,444.43750 L 157.25000,444.43750 C 161.49409,444.43363 164.93363,440.99409 164.93750,436.75000 L 164.93750,239.40625 L 180.06250,239.40625 L 180.06250,436.75000 C 180.06637,440.99409 183.50591,444.43363 187.75000,444.43750 L 205.25000,444.43750 C 209.49409,444.43363 212.93363,440.99409 212.93750,436.75000 L 212.93750,210.50000 C 212.93363,206.25592 209.49409,202.81637 205.25000,202.81250 L 205.00000,202.81250 C 204.96875,202.81231 204.93750,202.81231 204.90625,202.81250 L 204.90625,202.81250 z "
         id="rect1869"
         sodipodi:nodetypes="ccccccccccccccccccccccccc" />
      <path
         style="fill:url(#radialGradient5698);fill-opacity:1.0000000;stroke:none;stroke-width:15.387500;stroke-linecap:round;stroke-linejoin:round;stroke-miterlimit:4.0000000;stroke-dashoffset:0.0000000;stroke-opacity:1.0000000"
         d="M 200.49563,207.25013 C 200.49563,207.25013 182.47542,207.41798 166.19921,207.62962 C 158.06111,207.73544 149.87451,207.85154 143.57810,207.95073 C 140.42989,208.00032 137.74373,208.05592 135.78335,208.09669 C 134.80316,208.11707 133.99444,208.13716 133.38496,208.15507 C 133.05823,208.16467 132.78386,208.20646 132.56733,208.21345 L 132.56733,208.18426 C 102.47649,207.90378 72.363204,236.78874 72.004111,270.40679 C 71.824976,287.17720 81.506344,302.21530 91.784384,313.08510 C 100.79955,322.61931 117.18846,326.89199 131.73288,329.18396 L 131.73288,429.77938 C 131.73626,433.74394 134.73602,436.95694 138.43745,436.96055 L 152.93273,436.96055 C 156.63418,436.95694 159.63393,433.74394 159.63730,429.77938 L 159.63730,233.43364 L 184.82842,233.43364 L 184.82842,431.77938 C 184.83179,435.74394 187.83155,438.95694 191.53299,438.96055 L 200.79543,438.96055 C 204.49686,438.95694 207.49662,435.74394 207.50000,431.77938 L 207.50000,214.43129 C 207.49662,210.46675 204.49686,207.25375 200.79543,207.25013 L 200.57739,207.25013 C 200.55014,207.24995 200.52288,207.24995 200.49563,207.25013 L 200.49563,207.25013 z "
         id="path4172"
         sodipodi:nodetypes="ccccccccccccccccccccccccc" />
      <g
         id="g9520"
         style="opacity:0.88537550">
        <path
           style="fill:url(#linearGradient7234);fill-opacity:1.0000000;fill-rule:evenodd;stroke:#000000;stroke-width:1.0000000px;stroke-linecap:butt;stroke-linejoin:miter;stroke-opacity:1.0000000"
           d="M 123.82939,207.80419 C 157.51326,206.89150 189.35715,205.12300 201.04497,208.54497 C 213.21318,212.10759 204.07554,229.38415 172.80424,227.61243 C 141.56679,225.84263 143.37632,240.28770 127.72487,254.68254 C 111.78823,269.33967 92.870393,274.16997 84.120393,274.79497 C 75.370393,275.41997 69.651676,277.43497 71.044974,261.04497 C 72.394179,245.17365 89.623041,208.71689 123.82939,207.80419 z "
           id="path6468"
           sodipodi:nodetypes="czzzzzz" />
        <path
           style="fill:url(#linearGradient8756);fill-opacity:1.0000000;fill-rule:evenodd;stroke:#000000;stroke-width:1.0000000px;stroke-linecap:butt;stroke-linejoin:miter;stroke-opacity:1.0000000"
           d="M 123.82939,207.80419 C 157.51326,206.89150 189.35715,205.12300 201.04497,208.54497 C 213.21318,212.10759 204.07554,229.38415 172.80424,227.61243 C 141.56679,225.84263 143.37632,240.28770 127.72487,254.68254 C 111.78823,269.33967 92.870393,274.16997 84.120393,274.79497 C 75.370393,275.41997 69.651676,277.43497 71.044974,261.04497 C 72.394179,245.17365 89.623041,208.71689 123.82939,207.80419 z "
           id="path8754"
           sodipodi:nodetypes="czzzzzz" />
        <path
           style="fill:url(#linearGradient9518);fill-opacity:1.0000000;fill-rule:evenodd;stroke:#000000;stroke-width:1.0000000px;stroke-linecap:butt;stroke-linejoin:miter;stroke-opacity:1.0000000"
           d="M 123.82939,207.80419 C 157.51326,206.89150 189.35715,205.12300 201.04497,208.54497 C 213.21318,212.10759 204.07554,229.38415 172.80424,227.61243 C 141.56679,225.84263 143.37632,240.28770 127.72487,254.68254 C 111.78823,269.33967 92.870393,274.16997 84.120393,274.79497 C 75.370393,275.41997 69.651676,277.43497 71.044974,261.04497 C 72.394179,245.17365 89.623041,208.71689 123.82939,207.80419 z "
           id="path8758"
           sodipodi:nodetypes="czzzzzz" />
      </g>
      <path
         style="fill:url(#radialGradient11043);fill-opacity:1.0000000;stroke:none;stroke-width:15.387500;stroke-linecap:round;stroke-linejoin:round;stroke-miterlimit:4.0000000;stroke-dashoffset:0.0000000;stroke-opacity:1.0000000"
         d="M 157.09484,316.19512 C 128.17173,311.07136 130.12196,319.13189 131.73288,329.18396 L 131.73288,429.77938 C 131.73626,433.74394 134.73602,436.95694 138.43745,436.96055 L 152.93273,436.96055 C 156.63418,436.95694 159.63393,433.74394 159.63730,429.77938 C 159.63730,429.77938 157.59472,298.85857 157.09484,316.19512 z "
         id="path10283"
         sodipodi:nodetypes="ccccccc" />
    </g>
    <g
       transform="translate(15.30274,10.22727)"
       id="g1381"
       inkscape:label="Layer 1"
       inkscape:groupmode="layer">
      <g
         id="g3338"
         transform="matrix(0.172992,0.000000,0.000000,0.159990,64.74752,19.11295)">
        <path
           style="fill:#000000;fill-opacity:0.043290023;fill-rule:evenodd;stroke:none;stroke-width:28.424999;stroke-linecap:butt;stroke-linejoin:round;stroke-miterlimit:4.0000000;stroke-opacity:1.0000000"
           d="M -240.44301,-68.316144 C -243.86112,-68.437500 -247.18046,-67.085045 -249.64814,-64.565534 C -252.11582,-62.046023 -253.52270,-58.572981 -253.54972,-54.934140 L -254.63730,106.45107 C -254.66290,110.87231 -252.65163,115.02652 -249.25347,117.57112 C -245.85534,120.11570 -241.50131,120.72794 -237.59857,119.20995 L -202.79604,105.62026 L -165.26064,194.27975 C -162.39536,201.06289 -154.91288,204.10154 -148.52866,201.07460 L -117.71393,186.44639 C -114.62153,184.97749 -112.20960,182.25380 -111.01533,178.88192 C -109.82107,175.51006 -109.94366,171.77005 -111.35579,168.49491 L -148.13826,83.128988 L -118.55053,70.132717 C -114.52764,68.363354 -111.63849,64.522605 -110.89718,59.958553 C -110.15587,55.394503 -111.66594,50.744795 -114.89739,47.641453 L -232.38377,-64.874209 C -234.60587,-66.994765 -237.45964,-68.213555 -240.44301,-68.316144 z "
           id="path3326"
           sodipodi:nodetypes="cccccccccccccccccc" />
        <path
           style="fill:#000000;fill-opacity:0.043290023;fill-rule:evenodd;stroke:none;stroke-width:28.424999;stroke-linecap:butt;stroke-linejoin:round;stroke-miterlimit:4.0000000;stroke-opacity:1.0000000"
           d="M -239.69867,-68.316081 C -243.29602,-68.438456 -246.78942,-67.074643 -249.38650,-64.533974 C -251.98358,-61.993304 -253.46424,-58.491096 -253.49268,-54.821696 L -254.63729,107.91881 C -254.66423,112.37718 -252.54749,116.56628 -248.97114,119.13225 C -245.39481,121.69820 -240.81246,122.31558 -236.70507,120.78484 L -200.07755,107.08102 L -160.57385,196.48507 C -157.55832,203.32517 -149.68346,206.38934 -142.96447,203.33698 L -110.53386,188.58592 C -107.27930,187.10469 -104.74089,184.35812 -103.48399,180.95793 C -102.22711,177.55775 -102.35612,173.78633 -103.84230,170.48369 L -142.55359,84.400872 L -111.41433,71.295460 C -107.18048,69.511238 -104.13983,65.638235 -103.35965,61.035854 C -102.57946,56.433476 -104.16872,51.744720 -107.56962,48.615317 L -231.21681,-64.845241 C -233.55544,-66.983605 -236.55886,-68.212630 -239.69867,-68.316081 z "
           id="path3324"
           sodipodi:nodetypes="cccccccccccccccccc" />
        <path
           style="fill:#000000;fill-opacity:0.043290023;fill-rule:evenodd;stroke:none;stroke-width:28.424999;stroke-linecap:butt;stroke-linejoin:round;stroke-miterlimit:4.0000000;stroke-opacity:1.0000000"
           d="M -239.17763,-68.315892 C -242.90045,-68.441324 -246.51569,-67.043438 -249.20335,-64.439293 C -251.89102,-61.835147 -253.42332,-58.245440 -253.45275,-54.484364 L -254.63728,112.32203 C -254.66516,116.89179 -252.47459,121.18555 -248.77351,123.81563 C -245.07244,126.44569 -240.33027,127.07849 -236.07962,125.50951 L -198.17461,111.46331 L -157.29309,203.10102 C -154.17239,210.11202 -146.02287,213.25274 -139.06953,210.12412 L -105.50781,195.00452 C -102.13974,193.48628 -99.512796,190.67109 -98.212058,187.18595 C -96.911332,183.70082 -97.044845,179.83518 -98.582864,176.45003 L -138.64432,88.216525 L -106.41899,74.783689 C -102.03747,72.954890 -98.890772,68.985124 -98.083380,64.267758 C -97.275977,59.550395 -98.920664,54.744495 -102.44018,51.536908 L -230.39994,-64.758337 C -232.82014,-66.950125 -235.92831,-68.209856 -239.17763,-68.315892 z "
           id="path3322"
           sodipodi:nodetypes="cccccccccccccccccc" />
        <path
           style="fill:#000000;fill-opacity:0.077922054;fill-rule:evenodd;stroke:none;stroke-width:28.424999;stroke-linecap:butt;stroke-linejoin:round;stroke-miterlimit:4.0000000;stroke-opacity:1.0000000"
           d="M -238.73102,-68.315744 C -242.56139,-68.443555 -246.28106,-67.019167 -249.04636,-64.365652 C -251.81167,-61.712136 -253.38825,-58.054374 -253.41852,-54.221994 L -254.63727,115.74676 C -254.66596,120.40315 -252.41210,124.77832 -248.60411,127.45825 C -244.79612,130.13818 -239.91695,130.78298 -235.54352,129.18426 L -196.54352,114.87176 L -154.48102,208.24676 C -151.27015,215.39068 -142.88521,218.59094 -135.73102,215.40301 L -101.19977,199.99676 C -97.734393,198.44974 -95.031563,195.58118 -93.693253,192.02998 C -92.354953,188.47877 -92.492323,184.53985 -94.074773,181.09051 L -135.29352,91.184256 L -102.13727,77.496756 C -97.629183,75.633286 -94.391583,71.588260 -93.560853,66.781462 C -92.730133,61.974665 -94.422333,57.077654 -98.043523,53.809256 L -229.69977,-64.690744 C -232.18988,-66.924085 -235.38785,-68.207698 -238.73102,-68.315744 z "
           id="path2558"
           sodipodi:nodetypes="cccccccccccccccccc" />
        <path
           d="M -241.66309,-58.084431 L -242.76576,107.59433 L -196.25894,89.190355 L -153.29571,191.98354 L -122.06466,176.97007 L -164.91406,76.222367 L -122.59258,57.413445 L -241.66309,-58.084431 z "
           style="fill:url(#linearGradient2546);fill-opacity:1.0000000;fill-rule:evenodd;stroke:#000000;stroke-width:12.246215pt;stroke-linecap:butt;stroke-linejoin:round;stroke-opacity:1.0000000"
           id="path4041"
           sodipodi:nodetypes="cccccccc" />
        <path
           style="fill:url(#linearGradient2543);fill-opacity:1.0000000;fill-rule:evenodd;stroke:none;stroke-width:12.019479pt;stroke-linecap:butt;stroke-linejoin:round;stroke-opacity:1.0000000"
           d="M -242.09167,-56.572017 C -244.06020,-55.969913 -243.33928,-51.783768 -243.42392,-50.574436 L -244.57843,106.76204 C -232.57792,94.476986 -190.75933,112.21309 -208.57692,69.906898 C -241.68022,-20.399695 -143.86250,26.863280 -189.91859,-12.415651 L -234.27306,-54.421089 C -236.85111,-56.634472 -239.21729,-59.170144 -242.09167,-56.572017 z "
           id="path4083"
           sodipodi:nodetypes="ccccccc" />
        <path
           style="fill:url(#radialGradient2540);fill-opacity:1.0000000;fill-rule:evenodd;stroke:none;stroke-width:12.019479pt;stroke-linecap:butt;stroke-linejoin:round;stroke-opacity:1.0000000"
           d="M -231.15568,104.21768 L -196.26907,89.193189 L -153.28120,191.99565 L -122.05471,176.96967 L -164.90106,76.234144 L -121.86062,58.665340 C -161.28054,43.574062 -227.81908,82.437212 -231.15568,104.21768 z "
           id="path4096"
           sodipodi:nodetypes="ccccccc" />
      </g>
    </g>
  </g>
</svg>
