<?xml version="1.0" encoding="UTF-8" standalone="no"?>
<!-- Created with Inkscape (http://www.inkscape.org/) -->
<svg
   xmlns:dc="http://purl.org/dc/elements/1.1/"
   xmlns:cc="http://web.resource.org/cc/"
   xmlns:rdf="http://www.w3.org/1999/02/22-rdf-syntax-ns#"
   xmlns:svg="http://www.w3.org/2000/svg"
   xmlns="http://www.w3.org/2000/svg"
   xmlns:xlink="http://www.w3.org/1999/xlink"
   xmlns:sodipodi="http://inkscape.sourceforge.net/DTD/sodipodi-0.dtd"
   xmlns:inkscape="http://www.inkscape.org/namespaces/inkscape"
   inkscape:export-ydpi="45.000000"
   inkscape:export-xdpi="45.000000"
   inkscape:export-filename="/home/pinheiro/kdeplayground-artwork/oooicons/crystalsvg/picker.png"
   width="64px"
   height="64px"
   id="svg17707"
   sodipodi:version="0.32"
   inkscape:version="0.41"
   sodipodi:docbase="/home/pinheiro/kdeplayground-artwork/oooicons/crystalsvg"
   sodipodi:docname="picker.svg">
  <defs
     id="defs3">
    <linearGradient
       inkscape:collect="always"
       xlink:href="#zerotowhitetozero"
       id="linearGradient17705"
       gradientUnits="userSpaceOnUse"
       gradientTransform="scale(0.889037,1.124812)"
       spreadMethod="reflect"
       x1="239.13113"
       y1="150.76836"
       x2="219.65416"
       y2="118.38348" />
    <linearGradient
       inkscape:collect="always"
       xlink:href="#zerotowhitetozero"
       id="linearGradient17703"
       gradientUnits="userSpaceOnUse"
       gradientTransform="scale(0.889037,1.124812)"
       spreadMethod="reflect"
       x1="239.13113"
       y1="150.76836"
       x2="219.65416"
       y2="118.38348" />
    <linearGradient
       inkscape:collect="always"
       xlink:href="#zerotowhitetozero"
       id="linearGradient17701"
       gradientUnits="userSpaceOnUse"
       gradientTransform="scale(0.889037,1.124812)"
       spreadMethod="reflect"
       x1="239.13113"
       y1="150.76836"
       x2="219.65416"
       y2="118.38348" />
    <linearGradient
       inkscape:collect="always"
       xlink:href="#light100to0"
       id="linearGradient17699"
       gradientUnits="userSpaceOnUse"
       gradientTransform="scale(1.205925,0.829239)"
       x1="165.24026"
       y1="140.82243"
       x2="166.34229"
       y2="163.71248" />
    <linearGradient
       inkscape:collect="always"
       xlink:href="#zerotowhitetozero"
       id="linearGradient17697"
       gradientUnits="userSpaceOnUse"
       gradientTransform="scale(0.889037,1.124812)"
       spreadMethod="reflect"
       x1="239.13113"
       y1="150.76836"
       x2="219.65416"
       y2="118.38348" />
    <radialGradient
       inkscape:collect="always"
       xlink:href="#zerotowhitetozero"
       id="radialGradient17695"
       gradientUnits="userSpaceOnUse"
       gradientTransform="matrix(0.917031,-0.155019,0.179218,1.060181,-23.61859,31.63539)"
       cx="130.43364"
       cy="187.24419"
       fx="130.40277"
       fy="187.29732"
       r="13.523715" />
    <radialGradient
       inkscape:collect="always"
       xlink:href="#zerotowhitetozero"
       id="radialGradient17693"
       gradientUnits="userSpaceOnUse"
       gradientTransform="matrix(0.917031,-0.155019,0.179218,1.060181,-23.61859,31.63539)"
       cx="130.43364"
       cy="187.24419"
       fx="130.40277"
       fy="187.29732"
       r="13.523715" />
    <radialGradient
       inkscape:collect="always"
       xlink:href="#zerotowhitetozero"
       id="radialGradient17691"
       gradientUnits="userSpaceOnUse"
       gradientTransform="matrix(0.917031,-0.155019,0.179218,1.060181,-23.61859,31.63539)"
       cx="130.43364"
       cy="187.24419"
       fx="130.40277"
       fy="187.29732"
       r="13.523715" />
    <radialGradient
       inkscape:collect="always"
       xlink:href="#zerotowhitetozero"
       id="radialGradient17689"
       gradientUnits="userSpaceOnUse"
       gradientTransform="matrix(0.917031,-0.155019,0.179218,1.060181,-23.61859,31.63539)"
       cx="130.43364"
       cy="187.24419"
       fx="130.40277"
       fy="187.29732"
       r="13.523715" />
    <radialGradient
       inkscape:collect="always"
       xlink:href="#zerotowhitetozero"
       id="radialGradient17687"
       gradientUnits="userSpaceOnUse"
       gradientTransform="matrix(0.917031,-0.155019,0.179218,1.060181,-23.61859,31.63539)"
       cx="130.43364"
       cy="187.24419"
       fx="130.40277"
       fy="187.29732"
       r="13.523715" />
    <linearGradient
       inkscape:collect="always"
       xlink:href="#zerotowhitetozero"
       id="linearGradient17685"
       gradientUnits="userSpaceOnUse"
       gradientTransform="matrix(0.919303,-4.422908e-16,-6.294912e-17,1.087781,-31.65752,40.91072)"
       x1="132.47713"
       y1="128.17326"
       x2="138.51009"
       y2="135.55878" />
    <linearGradient
       id="sadow75to0w">
      <stop
         style="stop-color:#000000;stop-opacity:0.72941178;"
         offset="0.0000000"
         id="stop3429" />
      <stop
         style="stop-color:#ffffff;stop-opacity:0.0000000;"
         offset="1.0000000"
         id="stop3430" />
    </linearGradient>
    <linearGradient
       inkscape:collect="always"
       xlink:href="#sadow75to0w"
       id="linearGradient17683"
       gradientUnits="userSpaceOnUse"
       gradientTransform="matrix(0.919303,-4.422908e-16,-6.294912e-17,1.087781,-31.65752,40.91072)"
       spreadMethod="reflect"
       x1="131.99300"
       y1="129.27406"
       x2="134.97223"
       y2="132.72443" />
    <radialGradient
       inkscape:collect="always"
       xlink:href="#zerotowhitetozero"
       id="radialGradient17681"
       gradientUnits="userSpaceOnUse"
       gradientTransform="matrix(0.277707,-1.314622,0.656307,0.494064,-23.61859,31.63539)"
       spreadMethod="reflect"
       cx="-36.280697"
       cy="224.72163"
       fx="-36.269680"
       fy="224.71202"
       r="14.292608" />
    <radialGradient
       inkscape:collect="always"
       xlink:href="#zerotowhitetozero"
       id="radialGradient17679"
       gradientUnits="userSpaceOnUse"
       gradientTransform="matrix(0.917031,-0.155019,0.179218,1.060181,-23.61859,31.63539)"
       cx="130.43364"
       cy="187.24419"
       fx="130.40277"
       fy="187.29732"
       r="13.523715" />
    <radialGradient
       inkscape:collect="always"
       xlink:href="#light100to0"
       id="radialGradient17677"
       gradientUnits="userSpaceOnUse"
       gradientTransform="matrix(0.952120,-0.160951,0.172613,1.021109,-23.57515,31.60495)"
       cx="124.97867"
       cy="166.89621"
       fx="124.97867"
       fy="166.89621"
       r="4.5374427" />
    <linearGradient
       id="light100to0">
      <stop
         style="stop-color:#ffffff;stop-opacity:1.0000000;"
         offset="0.0000000"
         id="stop2764" />
      <stop
         style="stop-color:#ffffff;stop-opacity:0.0000000;"
         offset="1.0000000"
         id="stop2765" />
    </linearGradient>
    <radialGradient
       inkscape:collect="always"
       xlink:href="#light100to0"
       id="radialGradient17675"
       gradientUnits="userSpaceOnUse"
       gradientTransform="matrix(0.952120,-0.160951,0.172613,1.021109,-23.61859,31.63539)"
       cx="140.60791"
       cy="183.52762"
       fx="140.60791"
       fy="183.52762"
       r="8.2203732" />
    <linearGradient
       inkscape:collect="always"
       xlink:href="#zerotowhitetozero"
       id="linearGradient17673"
       gradientUnits="userSpaceOnUse"
       gradientTransform="matrix(1.068635,-0.180647,0.153793,0.909776,-7.788040e-15,2.725253e-15)"
       x1="111.31033"
       y1="198.13455"
       x2="135.19012"
       y2="235.01132" />
    <linearGradient
       inkscape:collect="always"
       xlink:href="#zerotowhitetozero"
       id="linearGradient17671"
       gradientUnits="userSpaceOnUse"
       gradientTransform="matrix(1.068635,-0.180647,0.153793,0.909776,-23.61859,31.63539)"
       x1="121.55471"
       y1="169.77112"
       x2="130.17465"
       y2="182.88293" />
    <linearGradient
       id="zerotowhitetozero">
      <stop
         style="stop-color:#ffffff;stop-opacity:0.0000000;"
         offset="0.0000000"
         id="stop3155" />
      <stop
         style="stop-color:#ffffff;stop-opacity:0.0000000;"
         offset="0.33462518"
         id="stop3156" />
      <stop
         style="stop-color:#ffffff;stop-opacity:1.0000000;"
         offset="0.55554277"
         id="stop3157" />
      <stop
         style="stop-color:#ffffff;stop-opacity:0.0000000;"
         offset="0.74528182"
         id="stop3158" />
      <stop
         style="stop-color:#ffffff;stop-opacity:0.0000000;"
         offset="1.0000000"
         id="stop3159" />
    </linearGradient>
    <linearGradient
       inkscape:collect="always"
       xlink:href="#zerotowhitetozero"
       id="linearGradient17669"
       gradientUnits="userSpaceOnUse"
       gradientTransform="matrix(0.918796,-4.448298e-7,2.186431e-9,1.088383,-31.71369,41.04076)"
       x1="130.94159"
       y1="136.24300"
       x2="141.97820"
       y2="119.97503" />
    <linearGradient
       id="orangetoblackorange">
      <stop
         style="stop-color:#ff8b00;stop-opacity:1.0000000;"
         offset="0.0000000"
         id="stop4207" />
      <stop
         style="stop-color:#4d0200;stop-opacity:1.0000000;"
         offset="1.0000000"
         id="stop4209" />
    </linearGradient>
    <linearGradient
       inkscape:collect="always"
       xlink:href="#orangetoblackorange"
       id="linearGradient17667"
       gradientUnits="userSpaceOnUse"
       gradientTransform="scale(0.994153,1.005881)"
       x1="211.31139"
       y1="208.29716"
       x2="186.14693"
       y2="101.48473" />
    <linearGradient
       id="orangelesstoyelow">
      <stop
         style="stop-color:#ff7d00;stop-opacity:1.0000000;"
         offset="0.0000000"
         id="stop2689" />
      <stop
         style="stop-color:#ffbe00;stop-opacity:1.0000000;"
         offset="0.25358382"
         id="stop2690" />
      <stop
         style="stop-color:#ffff00;stop-opacity:1.0000000;"
         offset="1.0000000"
         id="stop2691" />
    </linearGradient>
    <linearGradient
       inkscape:collect="always"
       xlink:href="#orangelesstoyelow"
       id="linearGradient17665"
       gradientUnits="userSpaceOnUse"
       gradientTransform="matrix(1.008016,-2.646168e-17,-7.417465e-17,0.992047,59.09612,34.16495)"
       spreadMethod="reflect"
       x1="139.79741"
       y1="100.63807"
       x2="198.67084"
       y2="227.49260" />
    <linearGradient
       id="greylighttograyw">
      <stop
         style="stop-color:#b5b5b8;stop-opacity:1.0000000;"
         offset="0.0000000"
         id="stop575" />
      <stop
         style="stop-color:#ebebee;stop-opacity:1.0000000;"
         offset="1.0000000"
         id="stop576" />
    </linearGradient>
    <linearGradient
       inkscape:collect="always"
       xlink:href="#greylighttograyw"
       id="linearGradient17663"
       gradientUnits="userSpaceOnUse"
       gradientTransform="matrix(1.068635,-0.180647,0.153793,0.909776,-23.61859,31.63539)"
       spreadMethod="reflect"
       x1="139.84422"
       y1="169.79622"
       x2="159.03880"
       y2="203.17725" />
  </defs>
  <sodipodi:namedview
     id="base"
     pagecolor="#ffffff"
     bordercolor="#666666"
     borderopacity="1.0"
     inkscape:pageopacity="0.0"
     inkscape:pageshadow="2"
     inkscape:zoom="5.6562500"
     inkscape:cx="32.000000"
     inkscape:cy="34.642459"
     inkscape:current-layer="layer1"
     showgrid="true"
     inkscape:document-units="px"
     inkscape:grid-bbox="true"
     inkscape:window-width="640"
     inkscape:window-height="536"
     inkscape:window-x="0"
     inkscape:window-y="391" />
  <metadata
     id="metadata4">
    <rdf:RDF
       id="RDF5">
      <cc:Work
         rdf:about=""
         id="Work6">
        <dc:format
           id="format7">image/svg+xml</dc:format>
        <dc:type
           id="type9"
           rdf:resource="http://purl.org/dc/dcmitype/StillImage" />
      </cc:Work>
    </rdf:RDF>
  </metadata>
  <g
     id="layer1"
     inkscape:label="Layer 1"
     inkscape:groupmode="layer">
    <g
       id="g17629"
       transform="matrix(0.499671,-0.117053,0.116602,0.524399,-70.18283,-35.56866)">
      <path
         style="fill:none;fill-opacity:1.0000000;stroke:#000000;stroke-width:5.0000000;stroke-linecap:round;stroke-linejoin:round;stroke-miterlimit:4.0000000;stroke-dashoffset:0.0000000;stroke-opacity:0.058823530"
         d="M 206.82273,117.23269 C 201.88488,116.80978 195.94727,119.13198 192.29740,121.79745 C 183.97077,127.87832 176.10615,132.52704 167.90863,138.78995 C 164.59103,142.42093 164.89853,147.91847 165.93113,152.51561 C 167.67114,162.94773 175.44671,172.85524 185.89747,175.53214 C 189.34842,176.24101 192.85493,175.45272 195.30298,173.04258 C 204.77569,165.48962 211.40538,158.74496 219.88710,150.17992 C 225.77835,144.23480 225.42655,133.00651 223.07231,128.25587 C 220.01107,122.07856 216.17461,118.03365 206.82273,117.23269 z "
         id="path17561"
         sodipodi:nodetypes="csccccsss" />
      <path
         style="fill:none;fill-opacity:1.0000000;stroke:#000000;stroke-width:4.3750000;stroke-linecap:round;stroke-linejoin:round;stroke-miterlimit:4.0000000;stroke-dashoffset:0.0000000;stroke-opacity:0.058823530"
         d="M 206.82273,117.23269 C 201.88488,116.80978 195.94727,119.13198 192.29740,121.79745 C 183.97077,127.87832 176.10615,132.52704 167.90863,138.78995 C 164.59103,142.42093 164.89853,147.91847 165.93113,152.51561 C 167.67114,162.94773 175.44671,172.85524 185.89747,175.53214 C 189.34842,176.24101 192.85493,175.45272 195.30298,173.04258 C 204.77569,165.48962 211.40538,158.74496 219.88710,150.17992 C 225.77835,144.23480 225.42655,133.00651 223.07231,128.25587 C 220.01107,122.07856 216.17461,118.03365 206.82273,117.23269 z "
         id="path17563"
         sodipodi:nodetypes="csccccsss" />
      <path
         style="fill:none;fill-opacity:1.0000000;stroke:#000000;stroke-width:5.8750000;stroke-linecap:round;stroke-linejoin:round;stroke-miterlimit:4.0000000;stroke-dashoffset:0.0000000;stroke-opacity:0.058823530"
         d="M 206.82273,117.23269 C 201.88488,116.80978 195.94727,119.13198 192.29740,121.79745 C 183.97077,127.87832 176.10615,132.52704 167.90863,138.78995 C 164.59103,142.42093 164.89853,147.91847 165.93113,152.51561 C 167.67114,162.94773 175.44671,172.85524 185.89747,175.53214 C 189.34842,176.24101 192.85493,175.45272 195.30298,173.04258 C 204.77569,165.48962 211.40538,158.74496 219.88710,150.17992 C 225.77835,144.23480 225.42655,133.00651 223.07231,128.25587 C 220.01107,122.07856 216.17461,118.03365 206.82273,117.23269 z "
         id="path16793"
         sodipodi:nodetypes="csccccsss" />
      <path
         style="fill:none;fill-opacity:1.0000000;fill-rule:evenodd;stroke:#000000;stroke-width:3.8750000;stroke-linecap:round;stroke-linejoin:miter;stroke-miterlimit:4.0000000;stroke-opacity:0.076923080"
         d="M 166.87433,143.66634 C 149.94841,157.53607 137.45470,167.74601 120.57798,181.66592 C 117.32433,185.50736 118.60324,190.95021 116.72118,195.32129 C 114.19784,197.95863 112.19088,199.43025 113.23115,203.49783 C 114.38105,207.58882 117.37846,211.83843 121.82574,212.48279 C 124.65694,211.80276 127.17032,209.81873 130.29255,210.25867 C 133.64503,210.07686 137.44258,211.47397 140.43193,209.49597 C 141.12007,209.18688 145.24516,205.62726 147.27220,204.05314 C 162.10649,191.97152 171.34855,184.36255 186.11761,172.20737"
         id="path9044"
         sodipodi:nodetypes="ccccccccc" />
      <path
         style="fill:none;fill-opacity:1.0000000;fill-rule:evenodd;stroke:#000000;stroke-width:2.1250000;stroke-linecap:round;stroke-linejoin:miter;stroke-miterlimit:4.0000000;stroke-opacity:0.076923080"
         d="M 166.87433,145.66634 C 149.94841,159.53607 137.45470,169.74601 120.57798,183.66592 C 117.32433,187.50736 118.60324,192.95021 116.72118,197.32129 C 114.19784,199.95863 112.19088,201.43025 113.23115,205.49783 C 114.38105,209.58882 117.37846,213.83843 121.82574,214.48279 C 124.65694,213.80276 127.17032,211.81873 130.29255,212.25867 C 133.64503,212.07686 137.44258,213.47397 140.43193,211.49597 C 141.12007,211.18688 145.24516,207.62726 147.27220,206.05314 C 162.10649,193.97152 171.34855,186.36255 186.11761,174.20737"
         id="path9042"
         sodipodi:nodetypes="ccccccccc" />
      <path
         style="fill:none;fill-opacity:1.0000000;fill-rule:evenodd;stroke:#000000;stroke-width:5.1250000;stroke-linecap:round;stroke-linejoin:miter;stroke-miterlimit:4.0000000;stroke-opacity:0.076923080"
         d="M 166.87433,145.66634 C 149.94841,159.53607 137.45470,169.74601 120.57798,183.66592 C 117.32433,187.50736 118.60324,192.95021 116.72118,197.32129 C 114.19784,199.95863 112.19088,201.43025 113.23115,205.49783 C 114.38105,209.58882 117.37846,213.83843 121.82574,214.48279 C 124.65694,213.80276 127.17032,211.81873 130.29255,212.25867 C 133.64503,212.07686 137.44258,213.47397 140.43193,211.49597 C 141.12007,211.18688 145.24516,207.62726 147.27220,206.05314 C 162.10649,193.97152 171.34855,186.36255 186.11761,174.20737"
         id="path9040"
         sodipodi:nodetypes="ccccccccc" />
      <path
         style="fill:none;fill-opacity:1.0000000;fill-rule:evenodd;stroke:#000000;stroke-width:3.1250000;stroke-linecap:butt;stroke-linejoin:miter;stroke-miterlimit:4.0000000;stroke-opacity:0.076923080"
         d="M 166.87433,145.66634 C 149.94841,159.53607 137.45470,169.74601 120.57798,183.66592 C 117.32433,187.50736 118.60324,192.95021 116.72118,197.32129 C 114.19784,199.95863 112.19088,201.43025 113.23115,205.49783 C 114.38105,209.58882 117.37846,213.83843 121.82574,214.48279 C 124.65694,213.80276 127.17032,211.81873 130.29255,212.25867 C 133.64503,212.07686 137.44258,213.47397 140.43193,211.49597 C 141.12007,211.18688 145.24516,207.62726 147.27220,206.05314 C 162.10649,193.97152 171.34855,186.36255 186.11761,174.20737"
         id="path8216"
         sodipodi:nodetypes="ccccccccc" />
      <path
         style="fill:url(#linearGradient17663);fill-opacity:1.0000000;fill-rule:evenodd;stroke:none;stroke-width:0.12500000;stroke-linecap:butt;stroke-linejoin:miter;stroke-miterlimit:4.0000000;stroke-opacity:1.0000000"
         d="M 171.74215,141.70619 C 154.80901,155.54311 137.67452,169.64192 120.74137,183.47886 C 120.68283,183.52909 120.63892,183.61034 120.58254,183.66417 C 120.49727,183.75511 120.42663,183.86187 120.34689,183.95755 C 119.96545,184.38359 119.63662,184.89748 119.36917,185.48565 C 119.33050,185.56744 119.32391,185.66934 119.28759,185.75299 C 119.10984,186.18351 118.97367,186.62922 118.85408,187.12570 C 118.79673,187.33630 118.68652,187.51429 118.63971,187.73241 C 117.27708,191.65274 118.98615,197.04975 114.54149,199.48618 C 111.71178,201.94167 113.57945,207.45672 115.57384,210.46773 C 117.26948,213.02769 121.68605,215.57023 123.74547,213.99883 C 127.64428,211.23489 131.61611,212.45953 135.31158,212.48734 C 136.98181,212.71761 138.58423,212.59431 139.96476,211.89091 C 157.05761,198.01442 174.15045,184.13793 191.24329,170.26145 C 186.85707,173.91364 179.85005,171.11810 174.37886,164.42831 C 168.97606,157.82216 165.91298,146.40099 171.74215,141.70619 z "
         id="path2770" />
      <path
         style="opacity:0.079051383;fill:#000000;fill-opacity:1.0000000;fill-rule:evenodd;stroke:none;stroke-width:1.0000000px;stroke-linecap:butt;stroke-linejoin:miter;stroke-opacity:1.0000000"
         d="M 121.27078,183.05044 C 126.45582,178.82224 134.82489,184.09409 139.63680,191.31810 C 144.44870,198.54211 144.84309,208.14773 140.04633,211.91468 C 157.13918,198.03820 174.30667,184.14909 191.39952,170.27260 C 195.57653,166.61671 194.71840,157.26235 189.85859,150.24709 C 184.99877,143.23183 176.03847,138.87949 171.30178,142.28380 C 154.36863,156.12073 138.20393,169.21351 121.27078,183.05044 z "
         id="path12161"
         sodipodi:nodetypes="csccscc" />
      <path
         style="fill:url(#linearGradient17665);fill-opacity:1.0000000;stroke:url(#linearGradient17667);stroke-width:1.8750000;stroke-linecap:round;stroke-linejoin:round;stroke-miterlimit:4.0000000;stroke-dashoffset:0.0000000;stroke-opacity:1.0000000"
         d="M 206.82273,117.23269 C 201.88488,116.80978 195.94727,119.13198 192.29740,121.79745 C 183.97077,127.87832 176.10615,132.52704 167.90863,138.78995 C 164.59103,142.42093 164.89853,147.91847 165.93113,152.51561 C 167.67114,162.94773 175.44671,172.85524 185.89747,175.53214 C 189.34842,176.24101 192.85493,175.45272 195.30298,173.04258 C 204.77569,165.48962 211.40538,158.74496 219.88710,150.17992 C 225.77835,144.23480 225.42655,133.00651 223.07231,128.25587 C 220.01107,122.07856 216.17461,118.03365 206.82273,117.23269 z "
         id="rect10614"
         sodipodi:nodetypes="csccccsss" />
      <rect
         style="opacity:0.15019758;fill:#353640;fill-opacity:1.0000000;stroke:#000000;stroke-width:1.1040764;stroke-linecap:round;stroke-linejoin:round;stroke-miterlimit:4.0000000;stroke-dashoffset:0.0000000;stroke-opacity:0.036199097"
         id="rect1944"
         width="25.989344"
         height="30.990154"
         x="156.57730"
         y="95.018509"
         rx="25.084848"
         ry="28.774385"
         transform="matrix(0.960445,0.278468,0.166680,0.986011,0.000000,0.000000)" />
      <rect
         style="fill:url(#linearGradient17669);fill-opacity:1.0000000;stroke:#000000;stroke-width:0.55203825;stroke-linecap:round;stroke-linejoin:round;stroke-miterlimit:4.0000000;stroke-dashoffset:0.0000000;stroke-opacity:0.036199097"
         id="rect1952"
         width="12.994675"
         height="15.495077"
         x="85.910553"
         y="175.77641"
         rx="12.542427"
         ry="14.387193"
         transform="matrix(0.960445,0.278468,0.166680,0.986011,0.000000,0.000000)" />
      <path
         style="fill:url(#linearGradient17671);fill-opacity:1.0000000;fill-rule:evenodd;stroke:none;stroke-width:1.0000000px;stroke-linecap:butt;stroke-linejoin:miter;stroke-opacity:1.0000000"
         d="M 121.27078,183.05044 C 126.45582,178.82224 134.82489,184.09409 139.63680,191.31810 C 144.44870,198.54211 144.84309,208.14773 140.04633,211.91468 C 157.13918,198.03820 174.30667,184.14909 191.39952,170.27260 C 195.57653,166.61671 194.71840,157.26235 189.85859,150.24709 C 184.99877,143.23183 177.05737,138.06437 172.32068,141.46868 C 155.38753,155.30561 138.20393,169.21351 121.27078,183.05044 z "
         id="path2775"
         sodipodi:nodetypes="csccscc" />
      <path
         style="fill:url(#linearGradient17673);fill-opacity:1.0000000;fill-rule:evenodd;stroke:none;stroke-width:1.0000000px;stroke-linecap:butt;stroke-linejoin:miter;stroke-opacity:1.0000000"
         d="M 121.37182,183.03336 C 126.44079,178.80169 134.82489,184.09409 139.63680,191.31810 C 144.44870,198.54211 144.84309,208.14773 140.04633,211.91468 C 157.13918,198.03820 174.30667,184.14909 191.39952,170.27260 C 195.57653,166.61671 194.71840,157.26235 189.85859,150.24709 C 184.99877,143.23183 176.03847,138.87949 171.30178,142.28380 C 154.36863,156.12073 138.30496,169.19643 121.37182,183.03336 z "
         id="path2000"
         sodipodi:nodetypes="csccscc" />
      <path
         style="fill:url(#radialGradient17675);fill-opacity:1.0000000;fill-rule:evenodd;stroke:none;stroke-width:0.12500000;stroke-linecap:butt;stroke-linejoin:miter;stroke-miterlimit:4.0000000;stroke-opacity:1.0000000"
         d="M 118.62911,187.73482 C 117.26649,191.65515 118.98591,197.05937 114.54125,199.49580 C 111.71154,201.95130 113.57067,207.46490 115.56506,210.47590 C 117.26071,213.03588 121.67645,215.57681 123.73587,214.00541 C 128.15073,210.87563 132.73019,213.01655 136.80623,212.54502 C 141.14726,212.04283 143.37958,208.24025 143.48026,204.75820 C 143.70648,196.93477 140.23372,191.09924 135.77727,186.64758 C 133.10380,183.97697 128.26375,181.04297 124.59199,181.64964 C 121.00334,182.24257 119.29652,184.62563 118.62911,187.73482 z "
         id="path2779"
         sodipodi:nodetypes="ccscssssc" />
      <path
         style="fill:url(#radialGradient17677);fill-opacity:1.0000000;fill-rule:evenodd;stroke:none;stroke-width:0.12500000;stroke-linecap:butt;stroke-linejoin:miter;stroke-miterlimit:4.0000000;stroke-opacity:1.0000000"
         d="M 118.67255,187.70439 C 117.30993,191.62471 119.02935,197.02894 114.58470,199.46536 C 111.75499,201.92086 113.61411,207.43446 115.60850,210.44547 C 117.30415,213.00544 121.71990,215.54638 123.77931,213.97497 C 128.19417,210.84519 132.77363,212.98611 136.84968,212.51458 C 141.19071,212.01239 143.45137,208.21051 143.52370,204.72777 C 143.70068,196.20677 140.45448,190.51986 136.07042,186.11964 C 133.40328,183.44269 127.83639,181.10580 124.53992,181.60070 C 121.24562,182.09506 119.33996,184.59519 118.67255,187.70439 z "
         id="path5066"
         sodipodi:nodetypes="ccscssssc" />
      <path
         style="opacity:0.28063241;fill:url(#radialGradient17679);fill-opacity:1.0000000;fill-rule:evenodd;stroke:none;stroke-width:0.12500000;stroke-linecap:butt;stroke-linejoin:miter;stroke-miterlimit:4.0000000;stroke-opacity:1.0000000"
         d="M 121.86408,201.46514 C 122.87433,201.77418 122.21945,201.31199 123.73173,203.67817 C 125.27913,206.09931 125.93318,207.44130 125.45744,208.44622 C 131.04328,205.70498 133.72759,205.39168 132.94108,203.09966 C 131.53317,198.99672 127.35719,197.33172 121.86408,201.46514 z "
         id="path5070"
         sodipodi:nodetypes="cscsc" />
      <path
         style="fill:url(#radialGradient17681);fill-opacity:1.0000000;fill-rule:evenodd;stroke:none;stroke-width:0.12500000;stroke-linecap:butt;stroke-linejoin:miter;stroke-miterlimit:4.0000000;stroke-opacity:1.0000000"
         d="M 113.51219,200.90989 C 113.72645,200.45266 114.24524,199.80714 114.93298,199.35747 C 115.62071,198.90781 116.56799,198.69513 117.49266,198.90376 C 118.19517,199.06226 118.65493,199.22438 119.03031,199.42005 C 119.41446,199.62028 119.68386,199.49814 119.80351,200.00505 C 121.90692,194.41806 122.35573,192.32653 122.49682,191.51646 C 123.15396,187.74328 122.10134,183.00743 121.37537,183.27836 C 118.73344,184.26431 118.20050,189.43995 117.93525,192.04592 C 117.05656,200.67842 114.64096,197.86789 113.51219,200.90989 z "
         id="path5092"
         sodipodi:nodetypes="cssscsssc" />
      <rect
         style="fill:url(#linearGradient17683);fill-opacity:1.0000000;stroke:none;stroke-width:0.35060570;stroke-linecap:round;stroke-linejoin:round;stroke-miterlimit:4.0000000;stroke-dashoffset:0.0000000;stroke-opacity:0.036199097"
         id="rect7402"
         width="8.2850008"
         height="9.8032684"
         x="87.939293"
         y="179.25566"
         rx="12.454644"
         ry="14.387193"
         transform="matrix(0.961469,0.274913,0.166680,0.986011,0.000000,0.000000)" />
      <rect
         style="fill:url(#linearGradient17685);fill-opacity:1.0000000;stroke:none;stroke-width:0.35060570;stroke-linecap:round;stroke-linejoin:round;stroke-miterlimit:4.0000000;stroke-dashoffset:0.0000000;stroke-opacity:0.036199097"
         id="rect6612"
         width="8.2850008"
         height="9.8032684"
         x="87.939293"
         y="179.25566"
         rx="12.454644"
         ry="14.387193"
         transform="matrix(0.961469,0.274913,0.166680,0.986011,0.000000,0.000000)" />
      <path
         style="opacity:0.28063241;fill:url(#radialGradient17687);fill-opacity:1.0000000;fill-rule:evenodd;stroke:none;stroke-width:0.12500000;stroke-linecap:butt;stroke-linejoin:miter;stroke-miterlimit:4.0000000;stroke-opacity:1.0000000"
         d="M 121.86408,201.46514 C 122.87433,201.77418 122.21945,201.31199 123.73173,203.67817 C 125.27913,206.09931 125.93318,207.44130 125.45744,208.44622 C 131.04328,205.70498 132.03776,204.98712 131.37124,203.00640 C 130.06494,199.12442 131.30546,195.22975 121.86408,201.46514 z "
         id="path8206"
         sodipodi:nodetypes="cscsc" />
      <path
         style="opacity:0.28063241;fill:url(#radialGradient17689);fill-opacity:1.0000000;fill-rule:evenodd;stroke:none;stroke-width:0.12500000;stroke-linecap:butt;stroke-linejoin:miter;stroke-miterlimit:4.0000000;stroke-opacity:1.0000000"
         d="M 121.86408,201.46514 C 122.87433,201.77418 122.21945,201.31199 123.73173,203.67817 C 125.27913,206.09931 125.93318,207.44130 125.45744,208.44622 C 131.04328,205.70498 130.61026,206.23769 129.37580,203.22418 C 126.97848,197.37197 131.30546,195.22975 121.86408,201.46514 z "
         id="path8208"
         sodipodi:nodetypes="cscsc" />
      <path
         style="opacity:0.28063241;fill:url(#radialGradient17691);fill-opacity:1.0000000;fill-rule:evenodd;stroke:none;stroke-width:0.12500000;stroke-linecap:butt;stroke-linejoin:miter;stroke-miterlimit:4.0000000;stroke-opacity:1.0000000"
         d="M 121.86408,201.46514 C 122.87433,201.77418 122.21945,201.31199 123.73173,203.67817 C 125.27913,206.09931 125.93318,207.44130 125.45744,208.44622 C 131.04328,205.70498 129.68047,206.39487 128.44601,203.38135 C 126.04869,197.52914 128.94502,196.82421 121.86408,201.46514 z "
         id="path8210"
         sodipodi:nodetypes="cscsc" />
      <path
         style="opacity:0.28063241;fill:url(#radialGradient17693);fill-opacity:1.0000000;fill-rule:evenodd;stroke:none;stroke-width:0.12500000;stroke-linecap:butt;stroke-linejoin:miter;stroke-miterlimit:4.0000000;stroke-opacity:1.0000000"
         d="M 121.86408,201.46514 C 122.87433,201.77418 122.21945,201.31199 123.73173,203.67817 C 125.27913,206.09931 125.93318,207.44130 125.45744,208.44622 C 131.04328,205.70498 129.04042,206.14443 127.80595,203.13091 C 125.40863,197.27870 126.91194,197.52653 121.86408,201.46514 z "
         id="path8212"
         sodipodi:nodetypes="cscsc" />
      <path
         style="opacity:0.28063241;fill:url(#radialGradient17695);fill-opacity:1.0000000;fill-rule:evenodd;stroke:none;stroke-width:0.12500000;stroke-linecap:butt;stroke-linejoin:miter;stroke-miterlimit:4.0000000;stroke-opacity:1.0000000"
         d="M 121.86408,201.46514 C 122.87433,201.77418 122.21945,201.31199 123.73173,203.67817 C 125.27913,206.09931 125.93318,207.44130 125.45744,208.44622 C 131.04328,205.70498 128.15899,206.40590 126.89581,203.40431 C 125.14187,199.23650 125.47962,198.24683 121.86408,201.46514 z "
         id="path8214"
         sodipodi:nodetypes="cscsc" />
      <path
         style="opacity:0.063241072;fill:#000000;fill-opacity:1.0000000;fill-rule:evenodd;stroke:none;stroke-width:0.12500000;stroke-linecap:butt;stroke-linejoin:miter;stroke-miterlimit:4.0000000;stroke-opacity:1.0000000"
         d="M 118.67255,187.70439 C 117.30993,191.62471 119.02935,197.02894 114.58470,199.46536 C 111.75499,201.92086 113.61411,207.43446 115.60850,210.44547 C 117.30415,213.00544 121.71990,215.54638 123.77931,213.97497 C 128.19417,210.84519 132.77363,212.98611 136.84968,212.51458 C 141.19071,212.01239 143.45137,208.21051 143.52370,204.72777 C 143.70068,196.20677 140.07397,190.90037 135.68991,186.50015 C 133.02277,183.82320 127.93152,180.91554 124.53992,181.60070 C 121.27469,182.26033 119.33996,184.59519 118.67255,187.70439 z "
         id="path12171"
         sodipodi:nodetypes="ccscssssc" />
      <rect
         style="opacity:0.15019758;fill:#353640;fill-opacity:1.0000000;stroke:#000000;stroke-width:1.2973948;stroke-linecap:round;stroke-linejoin:round;stroke-miterlimit:4.0000000;stroke-dashoffset:0.0000000;stroke-opacity:0.036199097"
         id="rect12939"
         width="31.913340"
         height="38.642483"
         x="152.14230"
         y="92.984398"
         rx="29.886396"
         ry="33.365311"
         transform="matrix(0.962593,0.270953,0.171540,0.985177,0.000000,0.000000)" />
      <path
         style="opacity:0.41897234;fill:url(#linearGradient17697);fill-opacity:1.0000000;fill-rule:evenodd;stroke:none;stroke-width:1.0000000px;stroke-linecap:butt;stroke-linejoin:miter;stroke-opacity:1.0000000"
         d="M 188.05757,143.96048 C 195.86913,137.77916 205.34205,133.58894 213.15361,127.40762 C 218.79151,129.24163 222.59540,136.78148 220.89723,143.91377 C 212.54226,151.38570 204.79864,161.71054 196.44367,169.18247 C 198.88903,160.75957 193.15206,147.49266 188.05757,143.96048 z "
         id="path13730"
         sodipodi:nodetypes="ccccc" />
      <path
         style="fill:url(#linearGradient17699);fill-opacity:1.0000000;fill-rule:evenodd;stroke:none;stroke-width:1.0000000px;stroke-linecap:butt;stroke-linejoin:miter;stroke-opacity:1.0000000"
         d="M 208.38813,117.34387 C 212.21494,118.07058 212.66203,118.38009 214.15376,119.67816 C 215.64549,120.97623 214.32148,124.53668 210.14336,125.23904 C 206.07186,125.92349 203.26167,135.71887 195.72100,134.19596 C 188.22242,132.68155 188.75808,125.27037 190.54270,123.56082 C 192.27162,121.90463 196.90076,118.86329 199.15496,118.25491 C 201.37925,117.65460 204.45552,116.59707 208.38813,117.34387 z "
         id="path14500"
         sodipodi:nodetypes="czzzzzz" />
      <path
         style="opacity:0.41897234;fill:url(#linearGradient17701);fill-opacity:1.0000000;fill-rule:evenodd;stroke:none;stroke-width:1.0000000px;stroke-linecap:butt;stroke-linejoin:miter;stroke-opacity:1.0000000"
         d="M 188.05757,143.96048 C 195.86913,137.77916 200.18741,137.97586 207.99897,131.79454 C 213.63687,133.62855 217.44076,141.16840 215.74259,148.30069 C 207.38762,155.77262 204.79864,161.71054 196.44367,169.18247 C 198.88903,160.75957 193.15206,147.49266 188.05757,143.96048 z "
         id="path15269"
         sodipodi:nodetypes="ccccc" />
      <path
         style="opacity:0.41897234;fill:url(#linearGradient17703);fill-opacity:1.0000000;fill-rule:evenodd;stroke:none;stroke-width:1.0000000px;stroke-linecap:butt;stroke-linejoin:miter;stroke-opacity:1.0000000"
         d="M 188.05757,143.96048 C 195.86913,137.77916 193.49735,143.67886 201.30891,137.49754 C 206.94681,139.33155 210.75070,146.87140 209.05253,154.00369 C 200.69756,161.47562 204.79864,161.71054 196.44367,169.18247 C 198.88903,160.75957 193.15206,147.49266 188.05757,143.96048 z "
         id="path15271"
         sodipodi:nodetypes="ccccc" />
      <path
         style="opacity:0.41897234;fill:url(#linearGradient17705);fill-opacity:1.0000000;fill-rule:evenodd;stroke:none;stroke-width:1.0000000px;stroke-linecap:butt;stroke-linejoin:miter;stroke-opacity:1.0000000"
         d="M 188.05757,143.96048 C 195.86913,137.77916 190.31683,146.31101 198.12839,140.12969 C 203.76629,141.96370 207.57018,149.50355 205.87201,156.63584 C 197.51704,164.10777 204.79864,161.71054 196.44367,169.18247 C 198.88903,160.75957 193.15206,147.49266 188.05757,143.96048 z "
         id="path15273"
         sodipodi:nodetypes="ccccc" />
    </g>
  </g>
</svg>
