<?xml version="1.0" encoding="UTF-8" standalone="no"?>
<!-- Created with Inkscape (http://www.inkscape.org/) -->
<svg
   xmlns:dc="http://purl.org/dc/elements/1.1/"
   xmlns:cc="http://web.resource.org/cc/"
   xmlns:rdf="http://www.w3.org/1999/02/22-rdf-syntax-ns#"
   xmlns:svg="http://www.w3.org/2000/svg"
   xmlns="http://www.w3.org/2000/svg"
   xmlns:xlink="http://www.w3.org/1999/xlink"
   xmlns:sodipodi="http://inkscape.sourceforge.net/DTD/sodipodi-0.dtd"
   xmlns:inkscape="http://www.inkscape.org/namespaces/inkscape"
   inkscape:export-ydpi="36.000000"
   inkscape:export-xdpi="36.000000"
   inkscape:export-filename="/home/nuno/kdeplayground-artwork/oooicons/crystalsvg-reusable/previewzoom.png"
   sodipodi:docname="previewzoom.svg"
   sodipodi:docbase="/home/nuno/kdeplayground-artwork/oooicons/crystalsvg"
   inkscape:version="0.41"
   sodipodi:version="0.32"
   id="svg16513"
   height="64pt"
   width="64pt">
  <defs
     id="defs3">
    <radialGradient
       r="9.7014513"
       fy="268.59674"
       fx="188.63550"
       cy="268.59674"
       cx="188.63550"
       gradientTransform="scale(1.091687,0.916013)"
       gradientUnits="userSpaceOnUse"
       id="radialGradient16512"
       xlink:href="#light100to0"
       inkscape:collect="always" />
    <radialGradient
       r="12.433510"
       fy="290.09976"
       fx="214.42342"
       cy="290.09976"
       cx="214.42342"
       gradientTransform="scale(1.091687,0.916013)"
       gradientUnits="userSpaceOnUse"
       id="radialGradient16511"
       xlink:href="#light100to0"
       inkscape:collect="always" />
    <linearGradient
       id="light100to0">
      <stop
         id="stop2764"
         offset="0.0000000"
         style="stop-color:#ffffff;stop-opacity:1.0000000;" />
      <stop
         id="stop2765"
         offset="1.0000000"
         style="stop-color:#ffffff;stop-opacity:0.0000000;" />
    </linearGradient>
    <linearGradient
       id="light90to0">
      <stop
         id="stop1890"
         offset="0.0000000"
         style="stop-color:#ffffff;stop-opacity:0.90833336;" />
      <stop
         id="stop1892"
         offset="1.0000000"
         style="stop-color:#ffffff;stop-opacity:0.0000000;" />
    </linearGradient>
    <linearGradient
       id="orangetoyelow">
      <stop
         id="stop2661"
         offset="0.0000000"
         style="stop-color:#ff7d00;stop-opacity:1.0000000;" />
      <stop
         id="stop2662"
         offset="1.0000000"
         style="stop-color:#ffff00;stop-opacity:1.0000000;" />
    </linearGradient>
    <linearGradient
       y2="91.407700"
       x2="33.332001"
       y1="10.305200"
       x1="33.332001"
       gradientUnits="userSpaceOnUse"
       id="bludraktowhite">
      <linearGradient
         xlink:href="#linearGradient6373"
         spreadMethod="pad"
         y2="91.407700"
         x2="33.332001"
         y1="10.305200"
         x1="33.332001"
         gradientUnits="userSpaceOnUse"
         id="bluedrklighttowite" />
      <stop
         id="stop7271"
         style="stop-color:rgb(255,255,255)"
         offset="0" />
      <stop
         id="stop7273"
         style="stop-color:rgb(84,84,119)"
         offset="1" />
    </linearGradient>
    <linearGradient
       y2="-135.79361"
       x2="-218.18871"
       y1="-112.04543"
       x1="-216.41075"
       spreadMethod="reflect"
       gradientTransform="matrix(-0.631386,-0.615420,0.593090,-0.607696,-28.60175,-156.3871)"
       gradientUnits="userSpaceOnUse"
       id="linearGradient1376"
       xlink:href="#bludraktowhite"
       inkscape:collect="always" />
    <linearGradient
       y2="224.47372"
       x2="82.103157"
       y1="231.74817"
       x1="73.415047"
       spreadMethod="reflect"
       gradientTransform="matrix(0.865803,5.461554e-3,2.707960e-2,0.864906,-28.60175,-156.3871)"
       gradientUnits="userSpaceOnUse"
       id="linearGradient1378"
       xlink:href="#bludraktowhite"
       inkscape:collect="always" />
    <linearGradient
       y2="367.41110"
       x2="112.91872"
       y1="386.09204"
       x1="111.32960"
       spreadMethod="reflect"
       gradientTransform="matrix(0.768267,0.758423,-0.394587,0.393868,123.9354,-176.3115)"
       gradientUnits="userSpaceOnUse"
       id="linearGradient1387"
       xlink:href="#light90to0"
       inkscape:collect="always" />
    <linearGradient
       y2="382.32303"
       x2="113.61272"
       y1="367.68045"
       x1="113.97564"
       spreadMethod="reflect"
       gradientTransform="matrix(0.949400,0.934275,-0.391720,0.390331,102.4551,-191.8857)"
       gradientUnits="userSpaceOnUse"
       id="linearGradient1390"
       xlink:href="#orangetoyelow"
       inkscape:collect="always" />
    <linearGradient
       y2="381.73886"
       x2="110.54198"
       y1="398.06821"
       x1="110.12445"
       spreadMethod="reflect"
       gradientTransform="matrix(0.986517,0.970802,-0.383192,0.381833,105.1127,-194.5956)"
       gradientUnits="userSpaceOnUse"
       id="linearGradient1392"
       xlink:href="#bludraktowhite"
       inkscape:collect="always" />
    <radialGradient
       r="8.9088030"
       fy="248.76897"
       fx="154.87000"
       cy="248.76897"
       cx="154.87000"
       gradientTransform="matrix(0.617026,0.599374,-0.613853,0.617094,105.1127,-194.5956)"
       gradientUnits="userSpaceOnUse"
       id="radialGradient1395"
       xlink:href="#bludraktowhite"
       inkscape:collect="always" />
    <linearGradient
       y2="245.98344"
       x2="162.24979"
       y1="249.54593"
       x1="144.50417"
       gradientTransform="matrix(0.617026,0.599374,-0.613853,0.617094,105.1127,-194.5956)"
       gradientUnits="userSpaceOnUse"
       id="linearGradient1397"
       xlink:href="#bludraktowhite"
       inkscape:collect="always" />
    <radialGradient
       r="6.7950330"
       fy="248.85941"
       fx="196.46024"
       cy="248.85941"
       cx="196.46024"
       gradientTransform="matrix(0.617026,0.599374,-0.613853,0.617094,105.1127,-194.5956)"
       gradientUnits="userSpaceOnUse"
       id="radialGradient1400"
       xlink:href="#bludraktowhite"
       inkscape:collect="always" />
    <linearGradient
       y2="246.31511"
       x2="200.85158"
       y1="246.31511"
       x1="187.21997"
       gradientTransform="matrix(0.617026,0.599374,-0.613853,0.617094,105.1127,-194.5956)"
       gradientUnits="userSpaceOnUse"
       id="linearGradient1402"
       xlink:href="#bludraktowhite"
       inkscape:collect="always" />
    <linearGradient
       y2="-124.01011"
       x2="-225.67094"
       y1="-119.62550"
       x1="-226.05598"
       spreadMethod="reflect"
       gradientTransform="matrix(-0.635670,-0.582102,0.645895,-0.586331,-21.28576,-154.3512)"
       gradientUnits="userSpaceOnUse"
       id="linearGradient1405"
       xlink:href="#bludraktowhite"
       inkscape:collect="always" />
    <linearGradient
       y2="241.11296"
       x2="78.151619"
       y1="244.09380"
       x1="74.778839"
       spreadMethod="reflect"
       gradientTransform="matrix(0.906168,-2.989913e-3,-7.230192e-3,0.826239,-21.28576,-154.3512)"
       gradientUnits="userSpaceOnUse"
       id="linearGradient1407"
       xlink:href="#bludraktowhite"
       inkscape:collect="always" />
    <linearGradient
       y2="43.096836"
       x2="33.667786"
       y1="-35.866158"
       x1="-26.130182"
       gradientTransform="matrix(0.976523,-0.119434,0.110577,1.010517,0.000000,0.000000)"
       gradientUnits="userSpaceOnUse"
       id="linearGradient1417"
       xlink:href="#bludraktowhite"
       inkscape:collect="always" />
    <radialGradient
       r="19.273544"
       fy="189.74400"
       fx="119.82000"
       cy="189.74400"
       cx="119.82000"
       gradientTransform="matrix(0.714532,-8.739114e-2,8.090310e-2,0.739341,-102.0403,-111.3570)"
       gradientUnits="userSpaceOnUse"
       id="radialGradient1423"
       xlink:href="#light100to0"
       inkscape:collect="always" />
    <radialGradient
       r="39.210377"
       fy="213.82373"
       fx="138.89362"
       cy="213.82373"
       cx="138.89362"
       gradientTransform="matrix(0.714507,-8.738799e-2,8.090601e-2,0.739368,-79.40753,-107.6449)"
       gradientUnits="userSpaceOnUse"
       id="radialGradient1426"
       xlink:href="#light100to0"
       inkscape:collect="always" />
    <radialGradient
       gradientUnits="userSpaceOnUse"
       r="40.434757"
       fy="8.7243853"
       fx="14.330431"
       cy="8.7243853"
       cx="14.330431"
       gradientTransform="scale(0.982750,1.017552)"
       id="radialGradient3707"
       xlink:href="#bludraktowhite"
       inkscape:collect="always" />
    <linearGradient
       y2="513.91156"
       x2="561.86395"
       y1="248.01839"
       x1="245.91402"
       gradientTransform="matrix(0.200172,0.000000,0.000000,0.212790,3.899731e-2,1.431524)"
       gradientUnits="userSpaceOnUse"
       id="linearGradient2135"
       xlink:href="#garylighttowite"
       inkscape:collect="always" />
    <linearGradient
       y2="143.87186"
       x2="142.38722"
       y1="-20.138357"
       x1="-17.599812"
       gradientTransform="scale(0.924800,1.081314)"
       gradientUnits="userSpaceOnUse"
       id="linearGradient2133"
       xlink:href="#garylighttowite"
       inkscape:collect="always" />
    <linearGradient
       y2="648.29797"
       x2="578.44397"
       y1="-50.289883"
       x1="-37.332329"
       gradientTransform="matrix(0.200172,0.000000,0.000000,0.212790,0.387230,1.432760)"
       gradientUnits="userSpaceOnUse"
       id="linearGradient2131"
       xlink:href="#garylighttowite"
       inkscape:collect="always" />
    <radialGradient
       r="508.29517"
       fy="52.577991"
       fx="53.182602"
       cy="52.577991"
       cx="53.182602"
       gradientTransform="matrix(0.244309,0.000000,0.000000,0.174347,0.307056,1.072164)"
       gradientUnits="userSpaceOnUse"
       id="radialGradient2129"
       xlink:href="#light75to0"
       inkscape:collect="always" />
    <linearGradient
       y2="273.80606"
       x2="330.93881"
       y1="340.20792"
       x1="284.17496"
       gradientTransform="matrix(0.200172,0.000000,0.000000,0.212790,-0.199401,1.450844)"
       gradientUnits="userSpaceOnUse"
       id="linearGradient2127"
       xlink:href="#graytolightgray"
       inkscape:collect="always" />
    <linearGradient
       y2="323.76923"
       x2="272.46765"
       y1="59.053604"
       x1="122.43015"
       gradientTransform="matrix(0.200172,0.000000,0.000000,0.208133,0.305456,1.330768)"
       gradientUnits="userSpaceOnUse"
       id="linearGradient2125"
       xlink:href="#graytolightgray"
       inkscape:collect="always" />
    <linearGradient
       gradientUnits="userSpaceOnUse"
       y2="143.87186"
       x2="142.38722"
       y1="-20.138357"
       x1="-17.599812"
       gradientTransform="scale(0.924800,1.081314)"
       id="linearGradient2105"
       xlink:href="#garylighttowite"
       inkscape:collect="always" />
    <linearGradient
       y2="648.29797"
       x2="578.44397"
       y1="-50.289883"
       x1="-37.332329"
       gradientTransform="matrix(0.200172,0.000000,0.000000,0.212790,0.387230,1.432760)"
       gradientUnits="userSpaceOnUse"
       id="linearGradient1106"
       xlink:href="#garylighttowite"
       inkscape:collect="always" />
    <linearGradient
       y2="513.91156"
       x2="561.86395"
       y1="248.01839"
       x1="245.91402"
       gradientTransform="matrix(0.200172,0.000000,0.000000,0.212790,3.899731e-2,1.431524)"
       gradientUnits="userSpaceOnUse"
       id="linearGradient1105"
       xlink:href="#garylighttowite"
       inkscape:collect="always" />
    <radialGradient
       r="508.29517"
       fy="52.577991"
       fx="53.182602"
       cy="52.577991"
       cx="53.182602"
       gradientTransform="matrix(0.244309,0.000000,0.000000,0.174347,0.307056,1.072164)"
       gradientUnits="userSpaceOnUse"
       id="radialGradient1101"
       xlink:href="#light75to0"
       inkscape:collect="always" />
    <linearGradient
       y2="273.80606"
       x2="330.93881"
       y1="340.20792"
       x1="284.17496"
       gradientTransform="matrix(0.200172,0.000000,0.000000,0.212790,-0.199401,1.450844)"
       gradientUnits="userSpaceOnUse"
       id="linearGradient1100"
       xlink:href="#graytolightgray"
       inkscape:collect="always" />
    <linearGradient
       y2="323.76923"
       x2="272.46765"
       y1="59.053604"
       x1="122.43015"
       gradientTransform="matrix(0.200172,0.000000,0.000000,0.208133,0.305456,1.330768)"
       gradientUnits="userSpaceOnUse"
       id="linearGradient1099"
       xlink:href="#graytolightgray"
       inkscape:collect="always" />
    <linearGradient
       y2="273.80606"
       x2="330.93881"
       y1="340.20792"
       x1="284.17496"
       gradientTransform="matrix(0.200172,0.000000,0.000000,0.212790,-0.199401,1.450844)"
       gradientUnits="userSpaceOnUse"
       id="linearGradient1104"
       xlink:href="#graytolightgray"
       inkscape:collect="always" />
    <linearGradient
       y2="513.91156"
       x2="561.86395"
       y1="248.01839"
       x1="245.91402"
       gradientTransform="matrix(0.200172,0.000000,0.000000,0.212790,3.899731e-2,1.431524)"
       gradientUnits="userSpaceOnUse"
       id="linearGradient1103"
       xlink:href="#garylighttowite"
       inkscape:collect="always" />
    <linearGradient
       y2="648.29797"
       x2="578.44397"
       y1="-50.289883"
       x1="-37.332329"
       gradientTransform="matrix(0.200172,0.000000,0.000000,0.212790,0.387230,1.432760)"
       gradientUnits="userSpaceOnUse"
       id="linearGradient1102"
       xlink:href="#garylighttowite"
       inkscape:collect="always" />
    <linearGradient
       y2="323.76923"
       x2="272.46765"
       y1="59.053604"
       x1="122.43015"
       gradientTransform="matrix(0.200172,0.000000,0.000000,0.208133,0.305456,1.330768)"
       gradientUnits="userSpaceOnUse"
       id="linearGradient1101"
       xlink:href="#graytolightgray"
       inkscape:collect="always" />
    <radialGradient
       r="508.29517"
       fy="52.577991"
       fx="53.182602"
       cy="52.577991"
       cx="53.182602"
       gradientTransform="matrix(0.244309,0.000000,0.000000,0.174347,0.307056,1.072164)"
       gradientUnits="userSpaceOnUse"
       id="radialGradient1100"
       xlink:href="#light75to0"
       inkscape:collect="always" />
    <radialGradient
       r="23.6936"
       fy="81.1689"
       fx="74.4951"
       cy="81.1689"
       cx="74.4951"
       gradientTransform="matrix(0.696376,0.000000,0.000000,0.816451,10.14487,4.039048)"
       gradientUnits="userSpaceOnUse"
       id="radialGradient7426"
       xlink:href="#XMLID_9_"
       inkscape:collect="always" />
    <linearGradient
       gradientTransform="matrix(0.182431,0.000000,0.000000,0.213888,4.641008,0.357569)"
       y2="648.29797"
       x2="578.44397"
       y1="-50.289883"
       x1="-37.332329"
       gradientUnits="userSpaceOnUse"
       id="linearGradient3618"
       xlink:href="#garylighttowite"
       inkscape:collect="always" />
    <linearGradient
       id="garylighttowite">
      <stop
         id="stop5106"
         offset="0.0000000"
         style="stop-color:#7d7d7d;stop-opacity:1.0000000;" />
      <stop
         id="stop5107"
         offset="1.0000000"
         style="stop-color:#d3d4d4;stop-opacity:1.0000000;" />
    </linearGradient>
    <linearGradient
       gradientTransform="matrix(0.182431,0.000000,0.000000,0.213888,4.641008,0.357569)"
       y2="513.91156"
       x2="561.86395"
       y1="248.01839"
       x1="245.91402"
       gradientUnits="userSpaceOnUse"
       id="linearGradient3619"
       xlink:href="#garylighttowite"
       inkscape:collect="always" />
    <radialGradient
       gradientUnits="userSpaceOnUse"
       r="508.29517"
       fy="52.577991"
       fx="53.182602"
       cy="52.577991"
       cx="53.182602"
       gradientTransform="matrix(0.222656,0.000000,0.000000,0.175247,4.641008,1.797000e-2)"
       id="radialGradient6111"
       xlink:href="#light75to0"
       inkscape:collect="always" />
    <linearGradient
       id="light75to0">
      <stop
         id="stop2769"
         offset="0.0000000"
         style="stop-color:#ffffff;stop-opacity:0.72916669;" />
      <stop
         id="stop2770"
         offset="1.0000000"
         style="stop-color:#ffffff;stop-opacity:0.0000000;" />
    </linearGradient>
    <linearGradient
       gradientTransform="matrix(0.182431,0.000000,0.000000,0.213888,4.641008,0.357569)"
       y2="273.80606"
       x2="330.93881"
       y1="340.20792"
       x1="284.17496"
       gradientUnits="userSpaceOnUse"
       id="linearGradient3621"
       xlink:href="#graytolightgray"
       inkscape:collect="always" />
    <linearGradient
       id="graytolightgray">
      <stop
         id="stop5101"
         offset="0.0000000"
         style="stop-color:#d4d3d3;stop-opacity:1.0000000;" />
      <stop
         id="stop5102"
         offset="1.0000000"
         style="stop-color:#ffffff;stop-opacity:1.0000000;" />
    </linearGradient>
    <radialGradient
       gradientTransform="matrix(0.696376,0.000000,0.000000,0.816451,10.14487,4.039048)"
       r="23.6936"
       fy="81.1689"
       fx="74.4951"
       cy="81.1689"
       cx="74.4951"
       gradientUnits="userSpaceOnUse"
       id="radialGradient3622"
       xlink:href="#XMLID_9_"
       inkscape:collect="always" />
    <linearGradient
       gradientTransform="matrix(0.182431,0.000000,0.000000,0.213888,4.641008,0.357569)"
       y2="323.76923"
       x2="272.46765"
       y1="59.053604"
       x1="122.43015"
       gradientUnits="userSpaceOnUse"
       id="linearGradient3623"
       xlink:href="#graytolightgray"
       inkscape:collect="always" />
  </defs>
  <sodipodi:namedview
     inkscape:window-y="75"
     inkscape:window-x="373"
     inkscape:window-height="538"
     inkscape:window-width="776"
     gridoriginx="0.0000000pt"
     gridoriginy="0.0000000pt"
     gridspacingx="1.0000000pt"
     gridspacingy="1.0000000pt"
     inkscape:grid-bbox="true"
     showgrid="true"
     inkscape:current-layer="g1430"
     inkscape:cy="56.686927"
     inkscape:cx="32.526905"
     inkscape:zoom="4.7825839"
     inkscape:pageshadow="2"
     inkscape:pageopacity="0.0"
     borderopacity="1.0"
     bordercolor="#666666"
     pagecolor="#ffffff"
     id="base" />
  <metadata
     id="metadata4">
    <rdf:RDF
       id="RDF5">
      <cc:Work
         id="Work6"
         rdf:about="">
        <dc:format
           id="format7">image/svg+xml</dc:format>
        <dc:type
           rdf:resource="http://purl.org/dc/dcmitype/StillImage"
           id="type9" />
      </cc:Work>
    </rdf:RDF>
  </metadata>
  <g
     inkscape:groupmode="layer"
     inkscape:label="Layer 1"
     id="layer1">
    <path
       style="opacity:0.49999997;fill:url(#radialGradient1423);fill-opacity:1.0000000;stroke:none"
       id="path13255"
       d="M 1.1978401,14.382460 C 1.7010791,18.981366 -1.4937459,23.147679 -5.9379419,23.691228 C -10.380710,24.234602 -14.390912,20.949503 -14.894152,16.350597 C -15.397391,11.751690 -12.202727,7.5838987 -7.7599599,7.0405249 C -3.3156829,6.4977153 0.69460013,9.7835537 1.1978401,14.382460 z " />
    <g
       transform="translate(53.25469,62.22812)"
       inkscape:groupmode="layer"
       inkscape:label="Layer 1"
       id="g1430">
      <g
         transform="matrix(1.071653,0.000000,0.000000,1.064277,-61.09866,-66.66208)"
         id="g1090">
        <path
           inkscape:export-ydpi="48.818890"
           inkscape:export-xdpi="48.818890"
           sodipodi:nodetypes="ccccccc"
           id="path1105"
           d="M 39.848638,9.4346579 L 73.228746,9.1041619 L 73.228746,59.835316 L 54.720963,79.334586 L 13.078453,79.334586 L 12.913205,69.750199 L 39.848638,9.4346579 z "
           style="fill:#000000;fill-opacity:0.23809524;fill-rule:evenodd;stroke:none;stroke-width:0.25000000pt;stroke-linecap:butt;stroke-linejoin:miter;stroke-opacity:1.0000000" />
        <path
           id="path1727"
           d="M 10.741124,6.1341184 L 70.065176,6.2993665 L 69.734680,56.700024 L 52.053138,75.373054 L 10.575876,75.868799 L 10.741124,6.1341184 z "
           style="fill:#ffffff;fill-opacity:1.0000000;fill-rule:evenodd;stroke:none;stroke-width:0.25000000pt;stroke-linecap:butt;stroke-linejoin:miter;stroke-opacity:1.0000000" />
        <path
           style="fill:url(#linearGradient1099);fill-opacity:1.0000000"
           id="path146"
           d="M 68.095876,7.5000000 L 12.087546,7.5000000 L 12.004256,73.964708 L 51.849636,73.964708 L 68.095876,57.029549 L 68.095876,7.5000000 z " />
        <path
           transform="matrix(1.097247,0.000000,0.000000,0.994866,-4.705100,0.387947)"
           style="fill:#ffffff"
           id="path163"
           d="M 52.080669,75.153495 L 68.053463,56.427387 L 52.080669,56.427387 L 52.080669,75.153495 z " />
        <path
           style="fill:url(#linearGradient1100);fill-opacity:1.0000000"
           id="path178"
           d="M 53.067729,74.814144 L 68.491799,58.419504 L 53.067729,58.419504 L 53.067729,74.814144 z " />
        <path
           sodipodi:nodetypes="ccccc"
           style="fill:url(#radialGradient1101);fill-opacity:1.0000000"
           id="path195"
           d="M 68.239521,13.585076 L 68.239521,7.3347520 L 12.054686,7.3347520 L 12.004256,43.534686 C 33.586007,50.953441 64.824773,32.230479 68.239521,13.585076 z " />
        <path
           style="fill:url(#linearGradient1106);fill-opacity:1.0000000;stroke:url(#linearGradient2105);stroke-width:0.69573283;stroke-miterlimit:4.0000000"
           id="path225"
           d="M 69.583550,6.5013400 C 69.583550,7.2981640 69.583550,56.714370 69.583550,57.046580 C 69.364250,57.279700 52.501390,75.204620 52.282090,75.438550 C 51.971100,75.438550 11.512148,75.438550 10.764091,75.438550 C 10.764091,74.640920 10.764091,7.2997920 10.764091,6.5021530 C 11.513672,6.5013400 68.834730,6.5013400 69.583550,6.5013400 z M 69.965590,5.6890800 L 10.000000,5.6890800 L 10.000000,76.250000 L 52.598430,76.250000 L 70.347640,57.382050 L 70.347640,5.6890800 L 69.965590,5.6890800 z " />
        <path
           style="fill:url(#linearGradient1105);fill-opacity:1.0000000"
           id="path210"
           d="M 52.092047,56.807354 C 51.881157,56.807354 51.709997,56.989304 51.709997,57.213483 L 51.709997,75.843451 C 51.709997,76.008339 51.803217,76.156166 51.946107,76.219524 C 52.088987,76.281256 52.253267,76.247955 52.362537,76.130989 L 69.887867,57.501022 C 69.997137,57.384870 70.029997,57.210240 69.971157,57.058346 C 69.911557,56.906453 69.772487,56.807354 69.617377,56.807354 L 52.092047,56.807354 z M 68.695117,57.619614 C 67.532917,58.855057 53.636287,73.626802 52.474097,74.863058 C 52.474097,73.143505 52.474097,58.356334 52.474097,57.619614 C 53.165597,57.619614 67.077517,57.619614 68.695117,57.619614 z " />
      </g>
    </g>
    <g
       id="g1336">
      <path
         style="fill-opacity:0.22077923;fill:#007ebb;opacity:0.49999997"
         id="path620"
         d="M 23.202848,17.190447 C 23.706087,21.789353 20.511262,25.955666 16.067066,26.499215 C 11.624298,27.042589 7.6140957,23.757490 7.1108563,19.158584 C 6.6076169,14.559677 9.8022805,10.391886 14.245048,9.8485122 C 18.689325,9.3057026 22.699608,12.591541 23.202848,17.190447 z " />
      <path
         sodipodi:nodetypes="ccccc"
         style="fill:url(#linearGradient1405);fill-opacity:1.0000000;stroke:url(#linearGradient1407);stroke-linejoin:round"
         id="path15144"
         d="M 43.842335,42.947227 L 48.991563,46.018993 L 45.325492,50.403066 L 41.868650,44.742338 L 43.842335,42.947227 z " />
      <path
         id="path5115"
         d="M 69.453994,69.595633 C 71.775959,67.284127 75.533320,67.250516 77.843417,69.520596 C 80.151772,71.788952 80.140744,75.501691 77.818769,77.812336 C 75.495053,80.122988 71.737701,80.156599 69.429345,77.887365 C 67.119248,75.617311 67.130285,71.905415 69.453994,69.595633 z "
         style="fill:url(#radialGradient1400);fill-opacity:1.0000000;stroke:url(#linearGradient1402);stroke-width:0.86526918;stroke-miterlimit:4.0000000" />
      <path
         id="path7623"
         d="M 46.650595,47.222047 C 48.972565,44.910541 52.729921,44.876930 55.040024,47.147010 C 57.348380,49.415367 57.337347,53.128114 55.015374,55.438751 C 52.691659,57.749403 48.934304,57.783013 46.625952,55.513779 C 44.315849,53.243725 44.326890,49.531830 46.650595,47.222047 z "
         style="fill:url(#radialGradient1395);fill-opacity:1.0000000;stroke:url(#linearGradient1397);stroke-width:0.86526918;stroke-miterlimit:4.0000000" />
      <path
         id="rect5114"
         d="M 56.039777,47.095969 L 77.795343,68.504947 C 78.510159,69.208385 78.583768,70.274763 77.960370,70.895948 L 70.758050,78.072731 C 70.134652,78.693907 69.057320,78.627697 68.342504,77.924259 L 46.586937,56.515281 C 45.872116,55.811843 45.798511,54.745464 46.421906,54.124280 L 53.624230,46.947505 C 54.247625,46.326320 55.324956,46.392531 56.039777,47.095969 z "
         style="fill:url(#linearGradient1390);fill-opacity:1.0000000;stroke:url(#linearGradient1392);stroke-width:1.4268034;stroke-linecap:butt;stroke-linejoin:round;stroke-miterlimit:4.0000000;stroke-dashoffset:0.0000000;stroke-opacity:1.0000000" />
      <path
         id="rect8247"
         d="M 56.030327,47.090666 L 62.801334,53.713247 C 63.515011,54.417781 69.059023,76.179508 57.827389,67.705840 L 46.585772,56.518012 C 45.872095,55.813478 45.798965,54.745781 46.421810,54.124074 L 53.617837,46.941169 C 54.240675,46.319462 55.316650,46.386141 56.030327,47.090666 z "
         style="fill:url(#linearGradient1387);fill-opacity:1.0000000;stroke:none;stroke-width:1.6489741;stroke-linecap:butt;stroke-linejoin:round;stroke-miterlimit:4.0000000;stroke-dashoffset:0.0000000;stroke-opacity:1.0000000" />
      <path
         style="fill:url(#linearGradient1376);fill-opacity:1.0000000;stroke:url(#linearGradient1378);stroke-linejoin:round"
         id="path478"
         d="M 44.650341,37.109588 L 47.821106,40.201030 L 39.792518,48.427318 L 36.621784,45.336751 L 44.650341,37.109588 z " />
      <path
         style="fill-opacity:1.0;fill:url(#radialGradient3707)"
         id="path518"
         d="M 22.600239,1.7415690 C 9.5670264,3.3356006 0.19727148,15.560268 1.6732517,29.048668 C 3.1490701,42.535589 14.911478,52.176429 27.944690,50.582397 C 40.977903,48.988366 50.346863,36.763047 48.871044,23.276125 C 47.395698,9.7868988 35.633924,0.14523198 22.600239,1.7415690 M 27.531176,46.803457 C 16.531514,48.149524 6.5691144,39.984129 5.3234755,28.600727 C 4.0779983,17.218804 12.013687,6.8628794 23.013429,5.5175521 C 34.012458,4.1723121 43.975020,12.339185 45.220497,23.721108 C 46.466136,35.104510 38.530205,45.458217 27.531176,46.803457 z " />
      <path
         style="fill:url(#linearGradient1417);fill-opacity:1.0"
         id="path533"
         d="M 0.89127078,29.144683 C 2.4134487,43.055265 14.588916,53.036705 28.033681,51.392338 C 41.477017,49.748146 51.176713,37.091257 49.653106,23.180850 C 48.130766,9.2687886 35.955299,-0.71265073 22.511963,0.93154113 C 9.0672787,2.5766471 -0.63106893,15.232622 0.89127078,29.144683 M 2.4553135,28.953392 C 1.0305472,15.933016 10.106786,4.0896604 22.688434,2.5508576 C 35.269368,1.0121422 46.663583,10.351852 48.088349,23.372228 C 49.512791,36.389647 40.437429,48.234393 27.855781,49.773196 C 15.274133,51.311999 3.8800798,41.973768 2.4553135,28.953392 z " />
      <path
         style="opacity:0.73000002;fill:#009cbb;fill-opacity:0.18614717;fill-rule:evenodd"
         id="path554"
         d="M 47.355121,23.462858 C 48.753177,36.487978 39.875567,48.294281 27.530557,49.833552 C 15.184820,51.372911 4.0428822,42.062798 2.6449105,29.038443 C 1.2468566,16.013323 10.122123,4.2057603 22.467860,2.6663997 C 34.812871,1.1271302 45.957232,10.439270 47.355121,23.462858 z "
         clip-rule="evenodd" />
      <path
         style="fill-opacity:0.16883117;fill:#007ebb;opacity:0.49999997"
         id="path575"
         d="M 10.030211,29.963396 C 8.8935531,19.575931 15.850829,10.190841 25.569471,9.0021993 C 35.286685,7.8137321 44.087014,15.271582 45.223672,25.659048 C 45.272621,26.106369 45.301630,26.550135 45.321904,26.993470 C 45.377848,25.837249 45.349816,24.661327 45.219961,23.474632 C 43.938480,11.763687 33.725446,3.3921781 22.408465,4.7763054 C 11.092198,6.1603453 2.9560519,16.775308 4.2376133,28.486992 C 5.5191748,40.198676 15.732047,48.568707 27.049028,47.184580 C 28.127210,47.052712 29.176715,46.837437 30.192313,46.543889 C 30.024257,46.569688 29.855973,46.600011 29.686636,46.620722 C 19.967279,47.809451 11.166868,40.350861 10.030211,29.963396 z " />
      <path
         style="fill-opacity:0.15584415;fill:#007ebb;opacity:0.49999997"
         id="path598"
         d="M 16.541963,8.4077183 C 10.047863,9.2019814 5.3789063,15.294385 6.1141860,22.013816 C 6.8495466,28.733987 12.710906,33.538477 19.205005,32.744214 C 25.698390,31.950038 30.367347,25.857634 29.631986,19.137464 C 28.895911,12.417381 23.035348,7.6135426 16.541963,8.4077183 M 20.119120,31.549718 C 14.877541,32.190791 10.148842,28.314730 9.5553110,22.890683 C 8.9619415,17.468114 12.727784,12.551627 17.970077,11.910466 C 23.210228,11.269568 27.939803,15.147020 28.533172,20.569589 C 29.126703,25.993637 25.359270,30.908820 20.119120,31.549718 z " />
      <path
         style="opacity:0.73000002;fill:url(#radialGradient1426);fill-opacity:1.0000000;fill-rule:evenodd"
         id="path12629"
         d="M 47.907260,24.374849 C 49.283570,36.952340 40.544078,48.352901 28.391131,49.839272 C 16.237469,51.325729 5.2688780,42.335572 3.8926560,29.758820 C 2.5163530,17.181329 11.253538,5.7795519 23.407200,4.2930941 C 35.560147,2.8067237 46.531120,11.798837 47.907260,24.374849 z "
         clip-rule="evenodd" />
      <path
         transform="matrix(0.859766,-0.105154,0.101759,0.929935,-188.1266,-184.3751)"
         d="M 242.14573 256.43384 A 21.808155 18.298798 0 1 1  198.52942,256.43384 A 21.808155 18.298798 0 1 1  242.14573 256.43384 z"
         sodipodi:ry="18.298798"
         sodipodi:rx="21.808155"
         sodipodi:cy="256.43384"
         sodipodi:cx="220.33757"
         id="path15833"
         style="fill:url(#radialGradient16511);fill-opacity:1.0000000;stroke:none;stroke-width:1.0000000;stroke-linecap:butt;stroke-linejoin:round;stroke-miterlimit:4.0000000;stroke-dashoffset:0.0000000;stroke-opacity:1.0000000"
         sodipodi:type="arc" />
      <path
         transform="matrix(0.859766,-0.105154,0.101759,0.929935,-193.1266,-193.1251)"
         d="M 242.14573 256.43384 A 21.808155 18.298798 0 1 1  198.52942,256.43384 A 21.808155 18.298798 0 1 1  242.14573 256.43384 z"
         sodipodi:ry="18.298798"
         sodipodi:rx="21.808155"
         sodipodi:cy="256.43384"
         sodipodi:cx="220.33757"
         id="path16459"
         style="fill:url(#radialGradient16512);fill-opacity:1.0000000;stroke:none;stroke-width:1.0000000;stroke-linecap:butt;stroke-linejoin:round;stroke-miterlimit:4.0000000;stroke-dashoffset:0.0000000;stroke-opacity:1.0000000"
         sodipodi:type="arc" />
    </g>
  </g>
</svg>
