<?xml version="1.0" encoding="UTF-8" standalone="no"?>
<!DOCTYPE svg PUBLIC "-//W3C//DTD SVG 20010904//EN"
"http://www.w3.org/TR/2001/REC-SVG-20010904/DTD/svg10.dtd">
<!-- Created with Inkscape (http://www.inkscape.org/) -->
<svg
   width="343pt"
   height="340pt"
   id="svg1144"
   sodipodi:version="0.32"
   inkscape:version="0.40"
   sodipodi:docbase="/home/nuno/kdeplayground-artwork/oooicons/crystalsvg"
   sodipodi:docname="printer.svg"
   inkscape:export-filename="/home/nuno/kdeplayground-artwork/oooicons/crystalsvg/controlprinter.png"
   inkscape:export-xdpi="6.7172012"
   inkscape:export-ydpi="6.7172012"
   xmlns="http://www.w3.org/2000/svg"
   xmlns:cc="http://web.resource.org/cc/"
   xmlns:inkscape="http://www.inkscape.org/namespaces/inkscape"
   xmlns:sodipodi="http://sodipodi.sourceforge.net/DTD/sodipodi-0.dtd"
   xmlns:rdf="http://www.w3.org/1999/02/22-rdf-syntax-ns#"
   xmlns:dc="http://purl.org/dc/elements/1.1/"
   xmlns:xlink="http://www.w3.org/1999/xlink">
  <defs
     id="defs3">
    <linearGradient
       inkscape:collect="always"
       xlink:href="#light75to0"
       id="linearGradient2251"
       gradientUnits="userSpaceOnUse"
       x1="79.007957"
       y1="182.73558"
       x2="79.594841"
       y2="210.19029" />
    <linearGradient
       inkscape:collect="always"
       xlink:href="#greandraktoblack"
       id="linearGradient2250"
       spreadMethod="pad"
       x1="68.233094"
       y1="194.01906"
       x2="88.862306"
       y2="205.82994"
       gradientTransform="scale(1.068908,0.935534)"
       gradientUnits="userSpaceOnUse" />
    <linearGradient
       inkscape:collect="always"
       xlink:href="#greantodarkgrean"
       id="linearGradient2249"
       gradientUnits="userSpaceOnUse"
       spreadMethod="reflect"
       x1="82.287437"
       y1="195.68991"
       x2="82.287437"
       y2="183.33493" />
    <linearGradient
       inkscape:collect="always"
       xlink:href="#greylighttograyw"
       id="linearGradient2247"
       gradientUnits="userSpaceOnUse"
       x1="147.44272"
       y1="503.80502"
       x2="84.319923"
       y2="405.91858"
       gradientTransform="matrix(1.320990,0.000000,0.000000,1.287519,34.04800,-223.1983)" />
    <linearGradient
       inkscape:collect="always"
       xlink:href="#greylighttograyw"
       id="linearGradient2246"
       gradientUnits="userSpaceOnUse"
       x1="123.39273"
       y1="452.76382"
       x2="123.39273"
       y2="447.19601"
       gradientTransform="matrix(1.320990,0.000000,0.000000,1.287519,34.04800,-223.1983)" />
    <linearGradient
       inkscape:collect="always"
       xlink:href="#bludraktowhite"
       id="linearGradient2243"
       gradientUnits="userSpaceOnUse"
       x1="37.515629"
       y1="31.347713"
       x2="96.433388"
       y2="138.65057"
       gradientTransform="matrix(3.526063,0.000000,0.000000,3.437557,5.658602,10.41031)" />
    <linearGradient
       inkscape:collect="always"
       xlink:href="#blacktowhite"
       id="linearGradient2242"
       gradientUnits="userSpaceOnUse"
       x1="61.811558"
       y1="51.691380"
       x2="61.139442"
       y2="31.248730"
       gradientTransform="matrix(3.526063,0.000000,0.000000,3.437557,5.658602,10.41031)" />
    <linearGradient
       inkscape:collect="always"
       xlink:href="#bludraktowhite"
       id="linearGradient2241"
       gradientUnits="userSpaceOnUse"
       x1="187.81322"
       y1="138.71880"
       x2="285.57843"
       y2="582.35284"
       gradientTransform="matrix(1.219841,0.000000,0.000000,1.231354,-35.54172,-15.35177)" />
    <linearGradient
       inkscape:collect="always"
       xlink:href="#garylighttowite"
       id="linearGradient2240"
       gradientUnits="userSpaceOnUse"
       x1="58.535599"
       y1="113.45800"
       x2="58.535599"
       y2="52.538799"
       gradientTransform="matrix(1.219841,0.000000,0.000000,1.231354,-35.54172,-15.35177)" />
    <linearGradient
       inkscape:collect="always"
       xlink:href="#garylighttowite"
       id="linearGradient2239"
       gradientUnits="userSpaceOnUse"
       x1="59.219250"
       y1="338.52740"
       x2="33.775066"
       y2="-73.975853"
       gradientTransform="matrix(1.219841,0.000000,0.000000,1.231354,-34.64081,-27.66725)" />
    <linearGradient
       id="greandraktoblack">
      <stop
         style="stop-color:#007c00;stop-opacity:1.0000000;"
         offset="0.0000000"
         id="stop7328" />
      <stop
         style="stop-color:#025a00;stop-opacity:1.0000000;"
         offset="1.0000000"
         id="stop7329" />
    </linearGradient>
    <linearGradient
       id="greantodarkgrean">
      <stop
         style="stop-color:#00ff01;stop-opacity:1.0000000;"
         offset="0.0000000"
         id="stop5123" />
      <stop
         style="stop-color:#15980f;stop-opacity:1.0000000;"
         offset="1.0000000"
         id="stop5124" />
    </linearGradient>
    <linearGradient
       id="light75to0">
      <stop
         style="stop-color:#ffffff;stop-opacity:0.72916669;"
         offset="0.0000000"
         id="stop2769" />
      <stop
         style="stop-color:#ffffff;stop-opacity:0.0000000;"
         offset="1.0000000"
         id="stop2770" />
    </linearGradient>
    <linearGradient
       xlink:href="#greylighttograyw"
       id="linearGradient645"
       x1="147.44272"
       y1="503.80502"
       x2="84.319923"
       y2="405.91858"
       gradientUnits="userSpaceOnUse" />
    <linearGradient
       xlink:href="#greylighttograyw"
       id="linearGradient585"
       x1="123.39273"
       y1="452.76382"
       x2="123.39273"
       y2="447.19601"
       gradientUnits="userSpaceOnUse" />
    <linearGradient
       xlink:href="#blacktowhite"
       id="linearGradient578"
       x1="44.404633"
       y1="-61.206173"
       x2="82.368210"
       y2="100.58953"
       gradientUnits="userSpaceOnUse" />
    <linearGradient
       xlink:href="#graytolightgray"
       id="linearGradient582"
       x1="77.157959"
       y1="36.379978"
       x2="57.864365"
       y2="13.105219"
       gradientUnits="userSpaceOnUse" />
    <linearGradient
       id="greylighttograyw">
      <stop
         style="stop-color:#b5b5b8;stop-opacity:1.0000000;"
         offset="0.0000000"
         id="stop575" />
      <stop
         style="stop-color:#ebebee;stop-opacity:1.0000000;"
         offset="1.0000000"
         id="stop576" />
    </linearGradient>
    <linearGradient
       id="blacktowhite">
      <stop
         style="stop-color:#000000;stop-opacity:1.0000000;"
         offset="0.0000000"
         id="stop2476" />
      <stop
         style="stop-color:#ffffff;stop-opacity:1.0000000;"
         offset="1.0000000"
         id="stop2475" />
    </linearGradient>
    <linearGradient
       id="graytolightgray">
      <stop
         style="stop-color:#d4d3d3;stop-opacity:1.0000000;"
         offset="0.0000000"
         id="stop5101" />
      <stop
         style="stop-color:#ffffff;stop-opacity:1.0000000;"
         offset="1.0000000"
         id="stop5102" />
    </linearGradient>
    <linearGradient
       xlink:href="#garylighttowite"
       id="linearGradient606"
       x1="58.535599"
       y1="113.45800"
       x2="58.535599"
       y2="52.538799"
       gradientUnits="userSpaceOnUse" />
    <linearGradient
       id="garylighttowite">
      <stop
         style="stop-color:#7d7d7d;stop-opacity:1.0000000;"
         offset="0.0000000"
         id="stop5106" />
      <stop
         style="stop-color:#d3d4d4;stop-opacity:1.0000000;"
         offset="1.0000000"
         id="stop5107" />
    </linearGradient>
    <radialGradient
       xlink:href="#yelowtoorange"
       id="radialGradient577"
       cx="99.576797"
       cy="288.10696"
       r="16.905936"
       fx="99.576797"
       fy="288.10696"
       gradientTransform="scale(1.007895,0.992167)"
       gradientUnits="userSpaceOnUse" />
    <linearGradient
       id="yelowtoorange">
      <stop
         style="stop-color:#ffff00;stop-opacity:1.0000000;"
         offset="0.0000000"
         id="stop3105" />
      <stop
         style="stop-color:#ff8c00;stop-opacity:1.0000000;"
         offset="1.0000000"
         id="stop3107" />
    </linearGradient>
    <radialGradient
       xlink:href="#yelowtoorange"
       id="radialGradient620"
       cx="117.06402"
       cy="304.92585"
       r="32.600057"
       fx="117.98709"
       fy="305.53129"
       gradientTransform="scale(1.007939,0.992123)"
       gradientUnits="userSpaceOnUse" />
    <linearGradient
       id="orangetoyelow">
      <stop
         style="stop-color:#ff7d00;stop-opacity:1.0000000;"
         offset="0.0000000"
         id="stop2661" />
      <stop
         style="stop-color:#ffff00;stop-opacity:1.0000000;"
         offset="1.0000000"
         id="stop2662" />
    </linearGradient>
    <linearGradient
       xlink:href="#orangetoyelow"
       id="linearGradient573"
       x1="65.665718"
       y1="124.63684"
       x2="66.504250"
       y2="92.233040"
       gradientUnits="userSpaceOnUse"
       spreadMethod="pad" />
    <linearGradient
       id="orangemoretoyelow">
      <stop
         style="stop-color:#ff7d00;stop-opacity:1.0000000;"
         offset="0.0000000"
         id="stop2671" />
      <stop
         style="stop-color:#ffbe00;stop-opacity:1.0000000;"
         offset="0.74641621"
         id="stop2679" />
      <stop
         style="stop-color:#ffff00;stop-opacity:1.0000000;"
         offset="1.0000000"
         id="stop2672" />
    </linearGradient>
    <linearGradient
       xlink:href="#orangemoretoyelow"
       id="linearGradient618"
       x1="59.273998"
       y1="20.307247"
       x2="66.497231"
       y2="122.44665"
       gradientUnits="userSpaceOnUse" />
    <linearGradient
       xlink:href="#orangetoblackorange"
       id="linearGradient613"
       x1="62.404484"
       y1="113.70891"
       x2="59.353645"
       y2="48.286541"
       gradientUnits="userSpaceOnUse" />
    <linearGradient
       id="orangetoblackorange">
      <stop
         style="stop-color:#ff8b00;stop-opacity:1.0000000;"
         offset="0.0000000"
         id="stop4207" />
      <stop
         style="stop-color:#4d0200;stop-opacity:1.0000000;"
         offset="1.0000000"
         id="stop4209" />
    </linearGradient>
    <linearGradient
       xlink:href="#orangetoblackorange"
       id="linearGradient583"
       x1="52.093212"
       y1="18.808815"
       x2="62.530823"
       y2="175.27454"
       gradientUnits="userSpaceOnUse" />
    <linearGradient
       id="orangelesstoyelow">
      <stop
         style="stop-color:#ff7d00;stop-opacity:1.0000000;"
         offset="0.0000000"
         id="stop2689" />
      <stop
         style="stop-color:#ffbe00;stop-opacity:1.0000000;"
         offset="0.25358382"
         id="stop2690" />
      <stop
         style="stop-color:#ffff00;stop-opacity:1.0000000;"
         offset="1.0000000"
         id="stop2691" />
    </linearGradient>
    <linearGradient
       xlink:href="#orangelesstoyelow"
       id="linearGradient608"
       x1="60.536690"
       y1="133.07648"
       x2="57.450085"
       y2="74.325470"
       gradientUnits="userSpaceOnUse" />
    <linearGradient
       xlink:href="#bludraktowhite"
       id="linearGradient658"
       x1="51.968300"
       y1="98.746101"
       x2="43.653599"
       y2="71.243797"
       gradientUnits="userSpaceOnUse" />
    <linearGradient
       xlink:href="#bludraktowhite"
       id="linearGradient601"
       x1="116.16369"
       y1="19.868944"
       x2="137.60123"
       y2="267.88974"
       gradientUnits="userSpaceOnUse"
       gradientTransform="scale(0.824363,1.213058)" />
    <linearGradient
       xlink:href="#bludraktowhite"
       id="linearGradient617"
       x1="13.411418"
       y1="-49.143492"
       x2="28.078188"
       y2="123.23939"
       gradientUnits="userSpaceOnUse"
       gradientTransform="scale(0.994701,1.005327)" />
    <linearGradient
       id="bludraktowhite"
       gradientUnits="userSpaceOnUse"
       x1="33.332001"
       y1="10.305200"
       x2="33.332001"
       y2="91.407700">
      <stop
         offset="0"
         style="stop-color:rgb(255,255,255)"
         id="stop7271" />
      <stop
         offset="1"
         style="stop-color:rgb(84,84,119)"
         id="stop7273" />
    </linearGradient>
    <linearGradient
       inkscape:collect="always"
       xlink:href="#blacktowhite"
       id="linearGradient3059"
       gradientTransform="matrix(1.270457,0.000000,0.000000,0.843461,-0.259579,-0.395256)"
       x1="711.77417"
       y1="548.48785"
       x2="130.37169"
       y2="25.345825"
       gradientUnits="userSpaceOnUse"
       spreadMethod="pad" />
    <linearGradient
       inkscape:collect="always"
       xlink:href="#light75to0"
       id="linearGradient4307"
       gradientTransform="matrix(1.262652,0.000000,0.000000,0.848675,-0.259579,-0.395256)"
       x1="128.46739"
       y1="54.503586"
       x2="177.04901"
       y2="280.89810"
       gradientUnits="userSpaceOnUse" />
    <linearGradient
       inkscape:collect="always"
       xlink:href="#garylighttowite"
       id="linearGradient1800"
       gradientTransform="matrix(2.414532,0.000000,0.000000,0.704402,34.04800,-223.1983)"
       x1="104.84847"
       y1="913.82861"
       x2="40.201557"
       y2="755.06158"
       gradientUnits="userSpaceOnUse" />
    <linearGradient
       inkscape:collect="always"
       xlink:href="#light75to0"
       id="linearGradient3666"
       gradientTransform="matrix(1.906296,0.000000,0.000000,0.562128,-0.259579,-0.395256)"
       x1="99.852119"
       y1="316.13052"
       x2="100.30647"
       y2="529.16620"
       gradientUnits="userSpaceOnUse" />
    <linearGradient
       inkscape:collect="always"
       xlink:href="#light75to0"
       id="linearGradient4910"
       gradientUnits="userSpaceOnUse"
       gradientTransform="scale(1.219751,0.819840)"
       x1="162.33154"
       y1="282.39850"
       x2="206.97919"
       y2="492.46082" />
  </defs>
  <sodipodi:namedview
     id="base"
     pagecolor="#ffffff"
     bordercolor="#666666"
     borderopacity="1.0"
     inkscape:pageopacity="0.0"
     inkscape:pageshadow="2"
     inkscape:zoom="1.4441176"
     inkscape:cx="171.49999"
     inkscape:cy="126.97473"
     inkscape:current-layer="layer1"
     inkscape:window-width="1006"
     inkscape:window-height="654"
     inkscape:window-x="218"
     inkscape:window-y="208" />
  <metadata
     id="metadata4">
    <rdf:RDF
       id="RDF5">
      <cc:Work
         rdf:about=""
         id="Work6">
        <dc:format
           id="format7">image/svg+xml</dc:format>
        <dc:type
           id="type9"
           rdf:resource="http://purl.org/dc/dcmitype/StillImage" />
      </cc:Work>
    </rdf:RDF>
  </metadata>
  <g
     inkscape:label="Layer 1"
     inkscape:groupmode="layer"
     id="layer1">
    <use
       x="0.0000000"
       y="0.0000000"
       xlink:href="#g2138"
       id="use2214"
       transform="translate(535.6374,-213.4343)"
       width="375.00000"
       height="375.00000" />
    <use
       x="0.0000000"
       y="0.0000000"
       xlink:href="#g2138"
       id="use2216"
       transform="translate(390.5551,-210.0603)"
       width="375.00000"
       height="375.00000" />
    <path
       d="M 118.59083,12.837270 C 113.77325,12.837270 109.85417,16.754043 109.85417,21.565280 C 109.85417,21.565280 109.85417,121.91295 109.85417,134.30615 C 108.03971,134.30615 105.91760,134.30615 105.91760,134.30615 C 90.388080,134.30615 82.011512,162.31056 81.284331,174.14822 C 64.041741,178.93851 47.903908,184.53239 33.598013,191.04520 C 33.587525,191.04870 28.731491,195.56295 28.731491,195.56295 C 14.020052,222.47723 6.5594512,251.46692 6.5594512,281.72496 C 6.5594512,309.39744 12.852367,336.14749 25.259899,361.22743 C 25.273882,361.25538 30.119429,366.04566 30.119429,366.04566 C 46.285230,373.69401 64.884293,379.51500 86.434034,383.95938 C 83.067324,392.53714 77.543542,406.59001 77.543542,406.59001 C 77.137999,407.62074 76.938722,408.70040 76.938722,409.77653 C 76.938722,411.49559 77.449149,413.20066 78.442031,414.67513 C 80.102662,417.09646 82.798127,418.51853 85.682381,418.51853 L 336.71379,418.53249 C 339.53511,418.49757 342.16416,417.14187 343.78632,414.88826 C 344.87711,413.34041 345.43646,411.57944 345.43646,409.78353 C 345.43646,408.87508 345.29313,407.96315 345.00296,407.06171 C 345.00296,407.06171 340.01757,392.26112 337.14032,383.70782 C 358.23207,379.28440 376.43258,373.54026 392.21730,366.06661 C 392.25576,366.05263 397.14326,361.22743 397.14326,361.22743 C 409.55778,336.14749 415.85071,309.39744 415.85071,281.72496 C 415.85071,251.47392 408.39359,222.48421 393.68216,195.56993 C 393.67866,195.55947 393.67517,195.55246 393.67167,195.55246 L 388.83662,191.05568 C 374.51323,184.52890 358.37191,178.93501 341.12233,174.14474 C 340.39514,162.30706 332.01857,134.30615 316.48556,134.30615 C 316.48556,134.30615 311.55961,134.30615 306.87138,134.30615 C 306.87138,121.91295 306.87138,21.565280 306.87138,21.565280 C 306.86789,16.754043 302.94881,12.837270 298.13123,12.837270 L 118.59083,12.837270 z M 292.88364,26.813267 C 292.88364,36.411280 292.88364,141.29416 292.88364,141.29416 C 292.88364,145.15152 296.01611,148.28215 299.87575,148.28215 L 316.48207,148.28215 C 320.25083,149.63433 327.27792,167.19518 327.27792,175.88474 L 327.27792,179.36128 C 327.27792,182.53731 329.41751,185.31155 332.49054,186.11867 C 350.56520,190.87051 367.14004,196.67754 381.90043,203.31962 C 395.10155,227.86149 401.86295,254.22370 401.86295,281.72496 C 401.86295,306.83285 396.17485,331.11263 385.07834,353.92496 C 368.70279,361.54188 349.61776,367.36986 326.72904,371.63954 C 324.73977,372.01339 323.00921,373.22932 321.98487,374.96932 C 321.34509,376.05595 321.02345,377.27535 321.02345,378.51223 C 321.02345,379.26344 321.14233,380.01465 321.38704,380.73790 C 321.38704,380.73790 326.60316,396.24428 329.40003,404.53904 C 316.12897,404.53904 107.37197,404.55302 93.370224,404.55302 C 96.653023,396.18489 102.47747,381.37033 102.47747,381.37033 C 102.79912,380.54575 102.95994,379.67922 102.95994,378.81272 C 102.95994,377.63873 102.66277,376.46475 102.07543,375.41305 C 101.05807,373.58570 99.278571,372.31387 97.219395,371.94003 C 73.715352,367.65988 54.137391,361.75153 37.328313,353.93895 C 26.235301,331.14061 20.543709,306.84333 20.543709,281.72496 C 20.543709,254.21671 27.305096,227.85450 40.506235,203.31962 C 55.263124,196.67754 71.837965,190.87399 89.909122,186.11867 C 92.982157,185.31155 95.121745,182.53731 95.121745,179.36128 L 95.121745,175.88474 C 95.121745,167.19168 102.14535,149.63083 106.17631,148.25070 L 116.84281,148.28215 C 120.70246,148.28215 123.83492,145.15152 123.83492,141.29416 C 123.83492,141.29416 123.83492,36.411280 123.83492,26.813267 C 133.43163,26.813267 283.29043,26.813267 292.88364,26.813267 z M 381.40748,202.26793 C 381.40748,202.27491 381.41098,202.27842 381.41448,202.28540 C 381.40748,202.27491 381.41098,202.27842 381.40748,202.26793 z M 85.731324,404.55302 L 85.689373,404.55302 C 85.703357,404.55302 85.717341,404.55302 85.731324,404.55302 z M 393.59476,195.37077 C 393.59476,195.39173 393.62273,195.45463 393.67167,195.55246 C 394.11568,195.96477 393.59476,195.26595 393.59476,195.37077 z "
       id="path2219"
       style="fill:url(#linearGradient2239)" />
    <path
       d="M 35.852160,195.88317 C 35.153999,196.20163 34.575725,196.73008 34.205489,197.40201 C 19.942560,223.31332 12.710604,251.22293 12.710604,280.33991 C 12.710604,306.97565 18.810693,332.72599 30.841623,356.86648 C 31.204808,357.58391 31.786608,358.15785 32.509451,358.50781 C 72.544379,377.31836 129.59610,386.08846 212.05662,386.08846 C 294.52067,386.08846 351.57238,377.31836 391.60378,358.49381 C 392.33368,358.14385 392.91547,357.58391 393.27514,356.86648 C 405.30607,332.72599 411.40968,306.97565 411.40968,280.33991 C 411.40968,251.22993 404.17420,223.31332 389.91480,197.40201 C 389.54809,196.73708 388.96276,196.20163 388.26813,195.88317 C 341.15992,174.56687 278.58638,162.82209 212.05662,162.82209 C 145.53742,162.82209 82.967424,174.56687 35.852160,195.88317 z M 212.05662,169.88086 C 277.05608,169.88086 338.08519,181.24069 384.17084,201.83255 C 397.48173,226.40350 404.30466,252.80826 404.30466,280.34341 C 404.30466,305.47781 398.57129,329.76880 387.39366,352.61793 C 348.39539,370.62355 292.65891,379.04369 212.05662,379.04369 C 131.46138,379.04369 75.724889,370.62355 36.726623,352.61793 C 25.549001,329.77579 19.815621,305.47431 19.815621,280.34341 C 19.815621,252.79777 26.631503,226.40701 39.949446,201.82905 C 86.031573,181.23718 147.06421,169.88086 212.05662,169.88086 z "
       id="path2220"
       style="fill:url(#linearGradient2240)" />
    <path
       d="M 384.25178,199.13357 C 340.00672,179.11215 278.85069,166.72342 211.30188,166.72342 C 143.74955,166.72342 82.600555,179.11215 38.355506,199.13357 C 25.055186,223.29855 17.512943,250.60622 17.512943,279.55873 C 17.512943,306.03698 23.835174,331.15039 35.100943,353.75453 C 79.578726,374.67186 142.05705,380.72623 211.30541,380.72623 C 280.55377,380.72623 343.03562,374.67186 387.51691,353.75453 C 398.77915,331.15039 405.10140,306.03698 405.10140,279.55873 C 405.10140,250.60622 397.55209,223.29855 384.25178,199.13357 z "
       id="path2221"
       style="fill:url(#linearGradient2241);fill-opacity:1.0000000" />
    <path
       d="M 87.932237,178.06339 L 87.932237,170.82390 C 87.932237,161.45999 95.957557,136.79209 105.86932,136.79209 L 318.24059,136.79209 C 328.14882,136.79209 336.18120,161.45999 336.18120,170.82390 L 336.18120,178.06339 L 87.932237,178.06339 z "
       id="path2222"
       style="fill:url(#linearGradient2242)" />
    <path
       d="M 92.156461,179.45904 L 92.156461,172.47393 C 92.156461,163.42971 99.910274,140.09902 109.49059,140.09902 L 314.62990,140.09902 C 324.19611,140.09902 331.95345,163.42971 331.95345,172.47393 L 331.95345,179.45904 L 92.156461,179.45904 L 92.156461,179.45904 z "
       id="path2223"
       style="fill:url(#linearGradient2243);fill-opacity:1.0000000" />
    <path
       d="M 309.78156,142.33687 L 108.56676,142.33687 L 108.56676,152.05828 L 309.78156,152.05828 L 309.78156,142.33687 z "
       id="path2224" />
    <path
       d="M 118.65130,17.285420 C 117.67811,17.285420 116.89179,18.051996 116.89179,18.997324 L 116.89179,148.63447 C 116.89179,149.58667 117.67811,150.35325 118.65130,150.35325 L 299.73228,150.35325 C 300.70547,150.35325 301.49179,149.58667 301.49179,148.63447 L 301.49179,19.000761 C 301.49179,18.055433 300.70547,17.285420 299.73228,17.285420 L 118.65130,17.285420 z M 297.97983,20.716102 C 297.97983,24.009282 297.97983,143.63626 297.97983,146.92600 C 294.56307,146.92600 123.82756,146.92600 120.40728,146.92600 C 120.40728,143.63626 120.40728,24.009282 120.40728,20.716102 C 123.82756,20.716102 294.56307,20.716102 297.97983,20.716102 z "
       id="path2226"
       style="fill:none;fill-opacity:1.0000000" />
    <path
       d="M 309.78156,146.90882 L 108.56676,146.90882 L 108.56676,152.06171 L 309.78156,152.06171 L 309.78156,146.90882 z "
       id="path2227" />
    <path
       d="M 353.29686,355.30139 L 72.315361,355.30139 L 72.315361,314.33815 L 353.30039,314.33815 L 353.30039,355.30139 L 353.29686,355.30139 z "
       id="path2229" />
    <path
       d="M 353.29686,358.54906 L 72.315361,358.54906 L 72.315361,352.57518 L 353.30039,352.57518 L 353.30039,358.54906 L 353.29686,358.54906 z "
       id="path2230"
       style="fill:url(#linearGradient2246)" />
    <path
       d="M 86.218633,409.63325 L 339.39359,409.63325 L 314.35500,335.77342 L 115.42855,335.77342 L 86.218633,409.63325 z "
       id="path2231"
       style="fill:url(#linearGradient2247);stroke:url(#linearGradient1800);stroke-width:5.1888003;stroke-linejoin:round;stroke-miterlimit:4.0000000" />
    <path
       style="fill:url(#linearGradient4910);fill-opacity:1.0;fill-rule:evenodd;stroke:none;stroke-width:0.25000000pt;stroke-linecap:butt;stroke-linejoin:miter;stroke-opacity:1.0000000;"
       d="M 115.81457,336.73629 C 172.20419,336.73629 256.29239,336.76294 312.68200,336.76294 C 296.48498,405.76217 135.78220,353.37853 93.275228,396.41034 C 103.09656,370.75734 118.11137,354.59907 115.81457,336.73629 z "
       id="path4909"
       sodipodi:nodetypes="cccc" />
    <path
       adobe-blending-mode="screen"
       d="M 209.58114,180.70771 C 145.44909,180.70771 87.385394,192.07055 45.379413,210.44046 C 37.100216,224.97878 31.229319,240.77179 28.122858,257.39669 C 66.377123,275.62795 133.31943,287.72126 209.58114,287.72126 C 285.83226,287.72126 352.78516,275.62795 391.02885,257.39669 C 387.92592,240.77179 382.05502,224.98217 373.77934,210.44046 C 331.77334,192.07055 273.71318,180.70771 209.58114,180.70771 z "
       id="path2234"
       style="fill:url(#linearGradient3666);fill-opacity:1.0000000" />
    <g
       id="g2235"
       transform="matrix(1.219841,0.000000,0.000000,1.231354,-35.54172,-15.35177)">
      <path
         d="M 93.844501,189.43799 C 93.844501,194.70157 88.970960,198.96473 82.955634,198.96473 C 76.943198,198.96473 72.063876,194.70157 72.063876,189.43799 C 72.063876,184.17726 76.943198,179.91126 82.955634,179.91126 C 88.970960,179.91126 93.844501,184.17726 93.844501,189.43799 z "
         id="path2236"
         style="fill:url(#linearGradient2249)" />
      <path
         d="M 71.549350,189.43799 C 71.549350,194.94600 76.668592,199.42516 82.955634,199.42516 C 89.245566,199.42516 94.364808,194.94600 94.364808,189.43799 C 94.364808,183.93568 89.245566,179.45652 82.955634,179.45652 C 76.665701,179.45652 71.549350,183.93568 71.549350,189.43799 z M 72.584183,189.43799 C 72.584183,184.43873 77.238039,180.36883 82.955634,180.36883 C 88.676119,180.36883 93.329976,184.43873 93.329976,189.43799 C 93.329976,194.44579 88.676119,198.51568 82.955634,198.51568 C 77.238039,198.51284 72.584183,194.44579 72.584183,189.43799 z "
         id="path2237"
         style="fill:url(#linearGradient2250)" />
      <path
         d="M 83.001883,189.80178 C 86.794343,187.36042 90.361336,186.53052 91.919366,186.25768 C 90.416257,183.29336 87.019809,181.22431 83.068367,181.22431 C 77.726549,181.22431 73.390658,185.01284 73.390658,189.69094 C 73.390658,190.42989 73.497610,191.13473 73.694171,191.81968 C 75.269544,192.06978 79.102472,192.32557 83.001883,189.80178 z "
         id="path2238"
         style="fill:url(#linearGradient2251)" />
    </g>
    <path
       style="fill:url(#linearGradient3059);fill-opacity:1.0000000;stroke:none;stroke-width:2.3750000;stroke-linecap:butt;stroke-linejoin:bevel;stroke-miterlimit:4.0000000;stroke-dashoffset:0.0000000;stroke-opacity:1.0000000"
       d="M 126.24748,22.494095 L 288.13482,22.494095 C 290.80256,22.494095 292.95024,24.435643 292.95024,26.847341 L 293.40425,137.28082 C 285.68605,137.21655 129.37728,137.44165 121.88609,137.28082 L 121.43207,26.847341 C 121.43207,24.435643 123.57975,22.494095 126.24748,22.494095 z "
       id="rect1813"
       sodipodi:nodetypes="ccccccc" />
    <path
       style="fill:url(#linearGradient4307);fill-opacity:1.0000000;fill-rule:evenodd;stroke:none;stroke-width:0.25000000pt;stroke-linecap:butt;stroke-linejoin:miter;stroke-opacity:1.0000000"
       d="M 122.11789,21.910531 C 178.50751,21.910531 234.89714,22.802761 291.28675,22.802761 C 275.08973,91.801992 146.41342,67.116923 121.21806,136.11615 C 121.51801,98.345023 121.81794,59.681661 122.11789,21.910531 z "
       id="path3061"
       sodipodi:nodetypes="cccc" />
    <path
       d="M 329.52718,331.85109 L 91.577765,331.85109 L 91.577765,351.45605 L 329.52365,351.45605 L 329.52365,331.85109 L 329.52718,331.85109 z "
       id="path2232"
       style="opacity:0.14999999;fill:#000000;fill-opacity:1.0000000;fill-rule:evenodd" />
  </g>
</svg>
