<?xml version="1.0" encoding="UTF-8" standalone="no"?>
<!DOCTYPE svg PUBLIC "-//W3C//DTD SVG 20010904//EN"
"http://www.w3.org/TR/2001/REC-SVG-20010904/DTD/svg10.dtd">
<!-- Created with Inkscape (http://www.inkscape.org/) -->
<svg
   width="48pt"
   height="48pt"
   id="svg2030"
   sodipodi:version="0.32"
   inkscape:version="0.40"
   sodipodi:docbase="/home/rob/aa"
   sodipodi:docname="rotatecounterclockwise.svg"
   xmlns="http://www.w3.org/2000/svg"
   xmlns:cc="http://web.resource.org/cc/"
   xmlns:inkscape="http://www.inkscape.org/namespaces/inkscape"
   xmlns:sodipodi="http://sodipodi.sourceforge.net/DTD/sodipodi-0.dtd"
   xmlns:rdf="http://www.w3.org/1999/02/22-rdf-syntax-ns#"
   xmlns:dc="http://purl.org/dc/elements/1.1/"
   xmlns:xlink="http://www.w3.org/1999/xlink">
  <defs
     id="defs3">
    <radialGradient
       cx="38.797401"
       cy="112.96090"
       r="67.358803"
       fx="38.797401"
       fy="112.96090"
       id="bluedarktoblackblue"
       gradientUnits="userSpaceOnUse">
      <stop
         style="stop-color:#0356fe;stop-opacity:1.0000000;"
         offset="0.0000000"
         id="stop2959" />
      <stop
         style="stop-color:#032442;stop-opacity:1.0000000;"
         offset="1.0000000"
         id="stop2960" />
    </radialGradient>
    <radialGradient
       cx="38.797401"
       cy="112.96090"
       r="67.358803"
       fx="38.797401"
       fy="112.96090"
       id="bluelightlesstoblue"
       gradientUnits="userSpaceOnUse">
      <stop
         style="stop-color:#d9ffff;stop-opacity:1.0000000;"
         offset="0.0055999998"
         id="stop3468" />
      <stop
         style="stop-color:#6eaafe;stop-opacity:1.0000000;"
         offset="0.24089479"
         id="stop3469" />
      <stop
         style="stop-color:#0356fe;stop-opacity:1.0000000;"
         offset="1.0000000"
         id="stop3470" />
    </radialGradient>
    <linearGradient
       id="light75to0">
      <stop
         style="stop-color:#ffffff;stop-opacity:0.72916669;"
         offset="0.0000000"
         id="stop2769" />
      <stop
         style="stop-color:#ffffff;stop-opacity:0.0000000;"
         offset="1.0000000"
         id="stop2770" />
    </linearGradient>
    <linearGradient
       id="light100to0">
      <stop
         style="stop-color:#ffffff;stop-opacity:1.0000000;"
         offset="0.0000000"
         id="stop2764" />
      <stop
         style="stop-color:#ffffff;stop-opacity:0.0000000;"
         offset="1.0000000"
         id="stop2765" />
    </linearGradient>
    <linearGradient
       id="light100to75to0">
      <stop
         style="stop-color:#ffffff;stop-opacity:1.0000000;"
         offset="0.0000000"
         id="stop2779" />
      <stop
         style="stop-color:#ffffff;stop-opacity:0.77499998;"
         offset="0.50000000"
         id="stop2782" />
      <stop
         style="stop-color:#ffffff;stop-opacity:0.0000000;"
         offset="1.0000000"
         id="stop2780" />
    </linearGradient>
    <linearGradient
       id="greandraktoblack">
      <stop
         style="stop-color:#007c00;stop-opacity:1.0000000;"
         offset="0.0000000"
         id="stop7328" />
      <stop
         style="stop-color:#025a00;stop-opacity:1.0000000;"
         offset="1.0000000"
         id="stop7329" />
    </linearGradient>
    <linearGradient
       id="greantodarkgrean">
      <stop
         style="stop-color:#00ff01;stop-opacity:1.0000000;"
         offset="0.0000000"
         id="stop5123" />
      <stop
         style="stop-color:#15980f;stop-opacity:1.0000000;"
         offset="1.0000000"
         id="stop5124" />
    </linearGradient>
    <linearGradient
       inkscape:collect="always"
       xlink:href="#greantodarkgrean"
       id="linearGradient1138"
       gradientUnits="userSpaceOnUse"
       gradientTransform="scale(1.064353,0.939538)"
       x1="-436.49048"
       y1="-138.00241"
       x2="-408.99539"
       y2="-110.84340" />
    <linearGradient
       inkscape:collect="always"
       xlink:href="#greandraktoblack"
       id="linearGradient1139"
       gradientUnits="userSpaceOnUse"
       gradientTransform="scale(1.067357,0.936894)"
       x1="-435.31949"
       y1="-138.45309"
       x2="-407.76779"
       y2="-110.38097" />
    <linearGradient
       inkscape:collect="always"
       xlink:href="#greandraktoblack"
       id="linearGradient1140"
       gradientUnits="userSpaceOnUse"
       gradientTransform="scale(1.067357,0.936894)"
       x1="-399.31586"
       y1="-202.84520"
       x2="-388.47604"
       y2="-186.06607" />
    <linearGradient
       inkscape:collect="always"
       xlink:href="#greandraktoblack"
       id="linearGradient1141"
       gradientUnits="userSpaceOnUse"
       gradientTransform="scale(1.067357,0.936894)"
       x1="-399.31586"
       y1="-202.84520"
       x2="-388.47604"
       y2="-186.06607" />
    <radialGradient
       inkscape:collect="always"
       xlink:href="#light100to75to0"
       id="radialGradient1142"
       gradientUnits="userSpaceOnUse"
       gradientTransform="scale(1.067357,0.936894)"
       cx="34.281494"
       cy="40.215942"
       fx="34.774773"
       fy="40.495552"
       r="66.978882" />
    <linearGradient
       inkscape:collect="always"
       xlink:href="#light100to0"
       id="linearGradient1143"
       gradientUnits="userSpaceOnUse"
       gradientTransform="scale(1.092926,0.914975)"
       x1="129.67717"
       y1="143.24013"
       x2="116.62541"
       y2="135.40907" />
    <radialGradient
       inkscape:collect="always"
       xlink:href="#light75to0"
       id="radialGradient1144"
       gradientUnits="userSpaceOnUse"
       gradientTransform="scale(1.197021,0.835407)"
       cx="63.201416"
       cy="108.22375"
       fx="63.324112"
       fy="108.39971"
       r="20.613607" />
    <radialGradient
       inkscape:collect="always"
       xlink:href="#bluelightlesstoblue"
       id="radialGradient1145"
       gradientUnits="userSpaceOnUse"
       gradientTransform="scale(1.064353,0.939538)"
       cx="-416.87866"
       cy="-119.14198"
       fx="-416.31180"
       fy="-119.14198"
       r="19.563040" />
    <linearGradient
       inkscape:collect="always"
       xlink:href="#bluedarktoblackblue"
       id="linearGradient1146"
       gradientUnits="userSpaceOnUse"
       gradientTransform="scale(1.067357,0.936894)"
       x1="-435.31949"
       y1="-138.45309"
       x2="-407.76779"
       y2="-110.38097" />
    <linearGradient
       inkscape:collect="always"
       xlink:href="#bluedarktoblackblue"
       id="linearGradient1147"
       gradientUnits="userSpaceOnUse"
       gradientTransform="scale(1.067357,0.936894)"
       x1="-399.31586"
       y1="-202.84520"
       x2="-388.47604"
       y2="-186.06607" />
    <linearGradient
       inkscape:collect="always"
       xlink:href="#bluedarktoblackblue"
       id="linearGradient1148"
       gradientUnits="userSpaceOnUse"
       gradientTransform="scale(1.067357,0.936894)"
       x1="-399.31586"
       y1="-202.84520"
       x2="-388.47604"
       y2="-186.06607" />
    <radialGradient
       inkscape:collect="always"
       xlink:href="#light100to75to0"
       id="radialGradient1149"
       gradientUnits="userSpaceOnUse"
       gradientTransform="scale(1.067357,0.936894)"
       cx="34.281494"
       cy="40.215942"
       fx="34.774773"
       fy="40.495552"
       r="66.978882" />
    <linearGradient
       inkscape:collect="always"
       xlink:href="#light100to0"
       id="linearGradient1150"
       gradientUnits="userSpaceOnUse"
       gradientTransform="matrix(0.203104,0.000000,0.000000,0.170034,78.83031,127.3219)"
       x1="129.67717"
       y1="143.24013"
       x2="116.62541"
       y2="135.40907" />
    <radialGradient
       inkscape:collect="always"
       xlink:href="#light75to0"
       id="radialGradient1151"
       gradientUnits="userSpaceOnUse"
       gradientTransform="scale(1.197021,0.835407)"
       cx="63.201416"
       cy="108.22375"
       fx="63.324112"
       fy="108.39971"
       r="20.613607" />
  </defs>
  <sodipodi:namedview
     id="base"
     pagecolor="#ffffff"
     bordercolor="#666666"
     borderopacity="1.0"
     inkscape:pageopacity="0.0"
     inkscape:pageshadow="2"
     inkscape:zoom="8.0000000"
     inkscape:cx="24.000000"
     inkscape:cy="24.000000"
     inkscape:current-layer="layer1"
     showgrid="true"
     inkscape:grid-bbox="true"
     gridspacingy="1.0000000pt"
     gridspacingx="1.0000000pt"
     gridoriginy="0.0000000pt"
     gridoriginx="0.0000000pt"
     inkscape:window-width="1014"
     inkscape:window-height="716"
     inkscape:window-x="0"
     inkscape:window-y="0" />
  <metadata
     id="metadata4">
    <rdf:RDF
       id="RDF5">
      <cc:Work
         rdf:about=""
         id="Work6">
        <dc:format
           id="format7">image/svg+xml</dc:format>
        <dc:type
           id="type9"
           rdf:resource="http://purl.org/dc/dcmitype/StillImage" />
      </cc:Work>
    </rdf:RDF>
  </metadata>
  <g
     id="layer1"
     inkscape:label="Layer 1"
     inkscape:groupmode="layer">
    <g
       id="g1125"
       transform="matrix(1.060545,0.000000,0.000000,1.078167,-1.282121,-1.931657)">
      <path
         style="fill:url(#linearGradient1138);fill-opacity:1.0000000;fill-rule:evenodd;stroke:url(#linearGradient1139);stroke-width:0.45833440pt;stroke-linecap:butt;stroke-linejoin:round;stroke-opacity:1.0000000"
         d="M -448.03384,-129.58558 C -454.43732,-129.58558 -459.92388,-125.75075 -460.78384,-118.83558 L -464.61509,-118.86683 L -457.87759,-112.39808 L -451.44009,-118.74183 L -455.38667,-118.77308 C -454.96436,-123.44566 -450.83712,-125.96058 -446.87759,-125.96058 C -442.00465,-125.96058 -438.06509,-121.43250 -438.06509,-115.86683 C -438.06509,-110.30116 -442.37348,-106.47136 -446.76330,-105.08737 L -451.22938,-103.67933 L -448.03384,-103.64808 C -440.87539,-103.57808 -435.06509,-109.45659 -435.06509,-116.61683 C -435.06509,-123.77706 -440.87360,-129.58558 -448.03384,-129.58558 z "
         id="path4195"
         sodipodi:nodetypes="ccccccccscscc"
         transform="matrix(1.878964,0.000000,0.000000,1.792076,874.7296,238.0226)" />
      <path
         style="fill:none;fill-opacity:1.0000000;fill-rule:evenodd;stroke:url(#linearGradient1140);stroke-width:0.45833440pt;stroke-linecap:butt;stroke-linejoin:miter;stroke-opacity:1.0000000"
         d="M -422.34286,-189.52353 L -422.34286,-174.66639"
         id="path4196"
         transform="matrix(1.878964,0.000000,0.000000,1.792076,826.0479,356.8182)" />
      <path
         style="fill:none;fill-opacity:1.0000000;fill-rule:evenodd;stroke:url(#linearGradient1141);stroke-width:0.45833440pt;stroke-linecap:butt;stroke-linejoin:miter;stroke-opacity:1.0000000"
         d="M -425.77143,-182.15210 L -414.91429,-182.15210 L -414.91429,-182.15210"
         id="path4197"
         transform="matrix(1.878964,0.000000,0.000000,1.792076,826.0479,356.8182)" />
      <path
         style="fill:url(#radialGradient1142);fill-opacity:1.0000000;fill-rule:evenodd;stroke:none;stroke-width:1.0000000pt;stroke-linecap:butt;stroke-linejoin:round;stroke-opacity:1.0000000"
         d="M 99.218750,26.937500 C 69.543820,26.937499 44.110216,43.873230 40.125000,74.437500 L 22.375000,74.312500 L 34.156250,85.093750 C 33.751282,82.879901 33.653735,80.759829 35.375000,80.218750 C 39.380756,78.959538 49.280616,89.077606 49.187500,81.250000 C 51.328154,61.190953 61.553426,36.395923 101.75000,32.070001 C 103.10435,31.720988 104.56473,28.288870 105.56250,27.250000 C 103.48090,27.041871 101.35795,26.937500 99.218750,26.937500 z "
         id="path4198"
         sodipodi:nodetypes="ccccccccc"
         transform="matrix(0.405457,0.000000,0.000000,0.405457,-7.340305,-5.122123)" />
      <path
         style="fill:url(#linearGradient1143);fill-opacity:1.0000000;fill-rule:evenodd;stroke:none;stroke-width:1.0000000pt;stroke-linecap:butt;stroke-linejoin:round;stroke-opacity:1.0000000"
         d="M 99.220955,26.926580 C 69.546025,26.926580 44.120274,43.876095 40.135058,74.440365 L 22.380325,74.302243 L 53.603167,102.89339 L 83.435752,74.854729 L 65.146559,74.716608 C 67.103622,54.064332 86.230029,42.948670 104.57923,42.948670 C 127.16136,42.948670 145.41802,62.962272 145.41802,87.561904 C 145.41802,112.16154 125.45213,129.08882 105.10888,135.20590 L 84.412222,141.42928 L 99.220955,141.56740 C 132.39456,141.87679 159.32058,115.89444 159.32058,84.246989 C 159.32058,52.599582 132.40285,26.926580 99.220955,26.926580 z "
         id="path4199"
         sodipodi:nodetypes="ccccccccscscc"
         transform="matrix(0.405457,0.000000,0.000000,0.405457,-7.340305,-5.122123)" />
      <path
         style="fill:url(#radialGradient1144);fill-opacity:1.0000000;fill-rule:evenodd;stroke:none;stroke-width:1.0000000pt;stroke-linecap:butt;stroke-linejoin:round;stroke-opacity:1.0000000"
         d="M 53.187500,102.56250 L 53.593750,102.90625 L 83.437500,74.843750 L 65.156250,74.718750 C 67.113312,54.066476 52.875360,83.179025 53.187500,102.56250 z "
         id="path4200"
         sodipodi:nodetypes="ccccc"
         transform="matrix(0.405457,0.000000,0.000000,0.405457,-7.340305,-5.122123)" />
      <path
         style="fill:url(#radialGradient1145);fill-opacity:1.0000000;fill-rule:evenodd;stroke:url(#linearGradient1146);stroke-width:0.45833440pt;stroke-linecap:butt;stroke-linejoin:round;stroke-opacity:1.0000000"
         d="M -448.03384,-129.58558 C -454.43732,-129.58558 -459.92388,-125.75075 -460.78384,-118.83558 L -464.61509,-118.86683 L -457.87759,-112.39808 L -451.44009,-118.74183 L -455.38667,-118.77308 C -454.96436,-123.44566 -450.83712,-125.96058 -446.87759,-125.96058 C -442.00465,-125.96058 -438.06509,-121.43250 -438.06509,-115.86683 C -438.06509,-110.30116 -442.37348,-106.47136 -446.76330,-105.08737 L -451.22938,-103.67933 L -448.03384,-103.64808 C -440.87539,-103.57808 -435.06509,-109.45659 -435.06509,-116.61683 C -435.06509,-123.77706 -440.87360,-129.58558 -448.03384,-129.58558 z "
         id="path4201"
         sodipodi:nodetypes="ccccccccscscc"
         transform="matrix(1.878964,0.000000,0.000000,1.792076,874.7296,238.0226)" />
      <path
         style="fill:none;fill-opacity:1.0000000;fill-rule:evenodd;stroke:url(#linearGradient1147);stroke-width:0.45833440pt;stroke-linecap:butt;stroke-linejoin:miter;stroke-opacity:1.0000000"
         d="M -422.34286,-189.52353 L -422.34286,-174.66639"
         id="path4202"
         transform="matrix(1.878964,0.000000,0.000000,1.792076,826.0479,356.8182)" />
      <path
         style="fill:none;fill-opacity:1.0000000;fill-rule:evenodd;stroke:url(#linearGradient1148);stroke-width:0.45833440pt;stroke-linecap:butt;stroke-linejoin:miter;stroke-opacity:1.0000000"
         d="M -425.77143,-182.15210 L -414.91429,-182.15210 L -414.91429,-182.15210"
         id="path4203"
         transform="matrix(1.878964,0.000000,0.000000,1.792076,826.0479,356.8182)" />
      <path
         style="fill:url(#radialGradient1149);fill-opacity:1.0000000;fill-rule:evenodd;stroke:none;stroke-width:1.0000000pt;stroke-linecap:butt;stroke-linejoin:round;stroke-opacity:1.0000000"
         d="M 99.218750,26.937500 C 69.543820,26.937499 44.110216,43.873230 40.125000,74.437500 L 22.375000,74.312500 L 34.156250,85.093750 C 33.751282,82.879901 33.653735,80.759829 35.375000,80.218750 C 39.380756,78.959538 49.280616,89.077606 49.187500,81.250000 C 51.328154,61.190953 61.553426,36.395923 101.75000,32.070001 C 103.10435,31.720988 104.56473,28.288870 105.56250,27.250000 C 103.48090,27.041871 101.35795,26.937500 99.218750,26.937500 z "
         id="path4204"
         sodipodi:nodetypes="ccccccccc"
         transform="matrix(0.405457,0.000000,0.000000,0.405457,-7.340305,-5.122123)" />
      <path
         style="fill:url(#linearGradient1150);fill-opacity:1.0000000;fill-rule:evenodd;stroke:none;stroke-width:1.0000000pt;stroke-linecap:butt;stroke-linejoin:round;stroke-opacity:1.0000000"
         d="M 97.269036,132.32580 C 91.754396,132.32580 87.029401,135.47561 86.288809,141.15553 L 82.989358,141.12986 L 88.791655,146.44309 L 94.335593,141.23253 L 90.936821,141.20686 C 91.300512,137.36895 94.854867,135.30327 98.264791,135.30327 C 102.46134,135.30327 105.85407,139.02249 105.85407,143.59397 C 105.85407,148.16544 102.14371,151.31112 98.363219,152.44789 L 94.517055,153.60441 L 97.269036,153.63008 C 103.43385,153.68757 108.43765,148.85914 108.43765,142.97794 C 108.43765,137.09674 103.43539,132.32580 97.269036,132.32580 z "
         id="path4205"
         sodipodi:nodetypes="ccccccccscscc"
         transform="matrix(2.181813,0.000000,0.000000,2.181813,-179.3333,-282.9147)" />
      <path
         style="fill:url(#radialGradient1151);fill-opacity:1.0000000;fill-rule:evenodd;stroke:none;stroke-width:1.0000000pt;stroke-linecap:butt;stroke-linejoin:round;stroke-opacity:1.0000000"
         d="M 53.187500,102.56250 L 53.593750,102.90625 L 83.437500,74.843750 L 65.156250,74.718750 C 67.113312,54.066476 52.875360,83.179025 53.187500,102.56250 z "
         id="path4206"
         sodipodi:nodetypes="ccccc"
         transform="matrix(0.405457,0.000000,0.000000,0.405457,-7.340305,-5.122123)" />
    </g>
  </g>
</svg>
