<?xml version="1.0" encoding="UTF-8" standalone="no"?>
<!DOCTYPE svg PUBLIC "-//W3C//DTD SVG 20010904//EN"
"http://www.w3.org/TR/2001/REC-SVG-20010904/DTD/svg10.dtd">
<!-- Created with Inkscape (http://www.inkscape.org/) -->
<svg
   width="64pt"
   height="64pt"
   id="svg13893"
   sodipodi:version="0.32"
   inkscape:version="0.40"
   sodipodi:docbase="/home/nuno/kdeplayground-artwork/oooicons/crystalsvg"
   sodipodi:docname="save_as.svg"
   inkscape:export-filename="/home/nuno/kdeplayground-artwork/oooicons/crystalsvg-reusable/save_as.png"
   inkscape:export-xdpi="36.000000"
   inkscape:export-ydpi="36.000000"
   xmlns="http://www.w3.org/2000/svg"
   xmlns:cc="http://web.resource.org/cc/"
   xmlns:inkscape="http://www.inkscape.org/namespaces/inkscape"
   xmlns:sodipodi="http://sodipodi.sourceforge.net/DTD/sodipodi-0.dtd"
   xmlns:rdf="http://www.w3.org/1999/02/22-rdf-syntax-ns#"
   xmlns:dc="http://purl.org/dc/elements/1.1/"
   xmlns:xlink="http://www.w3.org/1999/xlink">
  <defs
     id="defs3">
    <linearGradient
       id="light100to0">
      <stop
         style="stop-color:#ffffff;stop-opacity:1.0000000;"
         offset="0.0000000"
         id="stop2764" />
      <stop
         style="stop-color:#ffffff;stop-opacity:0.0000000;"
         offset="1.0000000"
         id="stop2765" />
    </linearGradient>
    <linearGradient
       inkscape:collect="always"
       xlink:href="#light100to0"
       id="linearGradient6170"
       gradientUnits="userSpaceOnUse"
       gradientTransform="matrix(0.999994,-3.582198e-3,3.582198e-3,0.999994,0.000000,0.000000)"
       x1="190.11575"
       y1="151.51718"
       x2="266.35638"
       y2="218.46164" />
    <linearGradient
       inkscape:collect="always"
       xlink:href="#garylighttowite"
       id="linearGradient11886"
       gradientUnits="userSpaceOnUse"
       gradientTransform="matrix(0.999994,-3.582204e-3,3.582204e-3,0.999994,224.8481,139.4264)"
       x1="16.879744"
       y1="80.154938"
       x2="-9.3134556"
       y2="77.205276" />
    <radialGradient
       inkscape:collect="always"
       xlink:href="#light75to0"
       id="radialGradient13195"
       gradientUnits="userSpaceOnUse"
       gradientTransform="scale(1.018448,0.981886)"
       cx="262.35825"
       cy="234.94638"
       fx="262.35825"
       fy="234.94638"
       r="74.087990" />
    <linearGradient
       id="sadow75to0w">
      <stop
         style="stop-color:#000000;stop-opacity:0.72941178;"
         offset="0.0000000"
         id="stop3429" />
      <stop
         style="stop-color:#ffffff;stop-opacity:0.0000000;"
         offset="1.0000000"
         id="stop3430" />
    </linearGradient>
    <radialGradient
       inkscape:collect="always"
       xlink:href="#sadow75to0w"
       id="radialGradient13821"
       gradientTransform="scale(1.018381,0.981951)"
       cx="227.65804"
       cy="210.55679"
       fx="227.65804"
       fy="210.55679"
       r="49.857635"
       gradientUnits="userSpaceOnUse" />
    <linearGradient
       inkscape:collect="always"
       xlink:href="#garylighttowite"
       id="linearGradient11884"
       gradientUnits="userSpaceOnUse"
       gradientTransform="matrix(0.999994,-3.582204e-3,3.582204e-3,0.999994,224.8481,131.9264)"
       x1="16.879744"
       y1="80.154938"
       x2="-9.3134556"
       y2="77.205276" />
    <linearGradient
       id="light75to0">
      <stop
         style="stop-color:#ffffff;stop-opacity:0.72916669;"
         offset="0.0000000"
         id="stop2769" />
      <stop
         style="stop-color:#ffffff;stop-opacity:0.0000000;"
         offset="1.0000000"
         id="stop2770" />
    </linearGradient>
    <linearGradient
       inkscape:collect="always"
       xlink:href="#light75to0"
       id="linearGradient6172"
       gradientUnits="userSpaceOnUse"
       gradientTransform="matrix(0.999994,-3.582203e-3,3.582203e-3,0.999994,-0.905689,-1.584956)"
       x1="242.51910"
       y1="181.63605"
       x2="216.75307"
       y2="170.21925" />
    <linearGradient
       inkscape:collect="always"
       xlink:href="#garylighttowite"
       id="linearGradient6171"
       gradientUnits="userSpaceOnUse"
       gradientTransform="matrix(0.999994,-3.582204e-3,3.582204e-3,0.999994,223.7271,126.8315)"
       x1="13.340878"
       y1="63.247265"
       x2="1.6239637"
       y2="33.233250" />
    <linearGradient
       id="garylighttowite">
      <stop
         style="stop-color:#7d7d7d;stop-opacity:1.0000000;"
         offset="0.0000000"
         id="stop5106" />
      <stop
         style="stop-color:#d3d4d4;stop-opacity:1.0000000;"
         offset="1.0000000"
         id="stop5107" />
    </linearGradient>
    <linearGradient
       inkscape:collect="always"
       xlink:href="#garylighttowite"
       id="linearGradient6174"
       gradientUnits="userSpaceOnUse"
       gradientTransform="matrix(0.999994,-3.582204e-3,3.582204e-3,0.999994,224.8481,121.9264)"
       x1="16.879744"
       y1="80.154938"
       x2="-9.3134556"
       y2="77.205276" />
    <linearGradient
       id="wihitetolightgray">
      <stop
         style="stop-color:#ffffff;stop-opacity:1.0000000;"
         offset="0.0000000"
         id="stop1885" />
      <stop
         style="stop-color:#d5d4d4;stop-opacity:1.0000000;"
         offset="1.0000000"
         id="stop1886" />
    </linearGradient>
    <linearGradient
       inkscape:collect="always"
       xlink:href="#wihitetolightgray"
       id="linearGradient6173"
       gradientUnits="userSpaceOnUse"
       gradientTransform="matrix(0.999994,-3.582203e-3,3.582203e-3,0.999994,85.00000,-5.000000)"
       x1="127.14183"
       y1="207.17534"
       x2="169.35942"
       y2="233.46652" />
    <linearGradient
       inkscape:collect="always"
       xlink:href="#wihitetolightgray"
       id="linearGradient14646"
       gradientUnits="userSpaceOnUse"
       gradientTransform="matrix(0.999994,-3.582203e-3,3.582203e-3,0.999994,85.00000,-5.000000)"
       x1="127.14183"
       y1="207.17534"
       x2="169.35942"
       y2="233.46652" />
    <linearGradient
       inkscape:collect="always"
       xlink:href="#garylighttowite"
       id="linearGradient14647"
       gradientUnits="userSpaceOnUse"
       gradientTransform="matrix(0.999994,-3.582204e-3,3.582204e-3,0.999994,224.8481,121.9264)"
       x1="16.879744"
       y1="80.154938"
       x2="-9.3134556"
       y2="77.205276" />
    <linearGradient
       inkscape:collect="always"
       xlink:href="#garylighttowite"
       id="linearGradient14648"
       gradientUnits="userSpaceOnUse"
       gradientTransform="matrix(0.999994,-3.582204e-3,3.582204e-3,0.999994,223.7271,126.8315)"
       x1="13.340878"
       y1="63.247265"
       x2="1.6239637"
       y2="33.233250" />
    <linearGradient
       inkscape:collect="always"
       xlink:href="#light75to0"
       id="linearGradient14649"
       gradientUnits="userSpaceOnUse"
       gradientTransform="matrix(0.999994,-3.582203e-3,3.582203e-3,0.999994,-0.905689,-1.584956)"
       x1="242.51910"
       y1="181.63605"
       x2="216.75307"
       y2="170.21925" />
    <linearGradient
       inkscape:collect="always"
       xlink:href="#garylighttowite"
       id="linearGradient14650"
       gradientUnits="userSpaceOnUse"
       gradientTransform="matrix(0.999994,-3.582204e-3,3.582204e-3,0.999994,224.8481,131.9264)"
       x1="16.879744"
       y1="80.154938"
       x2="-9.3134556"
       y2="77.205276" />
    <radialGradient
       inkscape:collect="always"
       xlink:href="#sadow75to0w"
       id="radialGradient14651"
       gradientUnits="userSpaceOnUse"
       gradientTransform="scale(1.018381,0.981951)"
       cx="227.65804"
       cy="210.55679"
       fx="227.65804"
       fy="210.55679"
       r="49.857635" />
    <radialGradient
       inkscape:collect="always"
       xlink:href="#light75to0"
       id="radialGradient14652"
       gradientUnits="userSpaceOnUse"
       gradientTransform="scale(1.018448,0.981886)"
       cx="262.35825"
       cy="234.94638"
       fx="262.35825"
       fy="234.94638"
       r="74.087990" />
    <linearGradient
       inkscape:collect="always"
       xlink:href="#garylighttowite"
       id="linearGradient14653"
       gradientUnits="userSpaceOnUse"
       gradientTransform="matrix(0.999994,-3.582204e-3,3.582204e-3,0.999994,224.8481,139.4264)"
       x1="16.879744"
       y1="80.154938"
       x2="-9.3134556"
       y2="77.205276" />
    <linearGradient
       inkscape:collect="always"
       xlink:href="#light100to0"
       id="linearGradient14654"
       gradientUnits="userSpaceOnUse"
       gradientTransform="matrix(0.999994,-3.582198e-3,3.582198e-3,0.999994,0.000000,0.000000)"
       x1="190.11575"
       y1="151.51718"
       x2="266.35638"
       y2="218.46164" />
    <linearGradient
       inkscape:collect="always"
       xlink:href="#shadow100to0"
       id="linearGradient1159"
       gradientUnits="userSpaceOnUse"
       gradientTransform="scale(1.373223,0.728214)"
       x1="54.536720"
       y1="96.837074"
       x2="91.471153"
       y2="66.370918" />
    <linearGradient
       inkscape:collect="always"
       xlink:href="#shadow100to0"
       id="linearGradient1160"
       gradientUnits="userSpaceOnUse"
       gradientTransform="scale(1.373223,0.728214)"
       x1="54.536720"
       y1="96.837074"
       x2="91.471153"
       y2="66.370918" />
    <linearGradient
       inkscape:collect="always"
       xlink:href="#orangetoblackorange"
       id="linearGradient1161"
       gradientUnits="userSpaceOnUse"
       gradientTransform="matrix(0.901330,0.434111,-0.405060,0.965975,-51.61257,-0.295980)"
       x1="68.581657"
       y1="9.0542183"
       x2="122.31405"
       y2="0.95772386" />
    <linearGradient
       inkscape:collect="always"
       xlink:href="#orangelesstoyelow"
       id="linearGradient1162"
       gradientUnits="userSpaceOnUse"
       gradientTransform="matrix(0.988165,0.000000,0.000000,1.059038,-51.61257,-0.295980)"
       x1="58.404800"
       y1="80.526398"
       x2="86.264603"
       y2="19.952200" />
    <linearGradient
       inkscape:collect="always"
       xlink:href="#orangetoyelow"
       id="linearGradient1163"
       gradientUnits="userSpaceOnUse"
       gradientTransform="matrix(0.988165,0.000000,0.000000,1.059038,-51.61257,-0.295980)"
       x1="75.064339"
       y1="65.623413"
       x2="140.15146"
       y2="-37.592434" />
    <linearGradient
       inkscape:collect="always"
       xlink:href="#orangetoyelow"
       id="linearGradient1164"
       gradientUnits="userSpaceOnUse"
       gradientTransform="matrix(0.988165,0.000000,0.000000,1.059038,-51.61257,-0.295980)"
       x1="55.499844"
       y1="94.234268"
       x2="113.51736"
       y2="-2.7694037" />
    <linearGradient
       inkscape:collect="always"
       xlink:href="#blacktowhite"
       id="linearGradient1165"
       gradientUnits="userSpaceOnUse"
       gradientTransform="matrix(0.183056,0.000000,0.000000,0.265558,6.081840,0.841974)"
       x1="63.510639"
       y1="263.33130"
       x2="48.348915"
       y2="299.38031" />
    <linearGradient
       inkscape:collect="always"
       xlink:href="#light100to0"
       id="linearGradient1166"
       gradientUnits="userSpaceOnUse"
       gradientTransform="matrix(0.317347,0.000000,0.000000,0.142307,7.750154,1.021211)"
       x1="112.83246"
       y1="26.413313"
       x2="122.91101"
       y2="48.426991" />
  </defs>
  <sodipodi:namedview
     id="base"
     pagecolor="#ffffff"
     bordercolor="#666666"
     borderopacity="1.0"
     inkscape:pageopacity="0.0"
     inkscape:pageshadow="2"
     inkscape:zoom="5.9218750"
     inkscape:cx="34.446154"
     inkscape:cy="31.330052"
     inkscape:current-layer="svg13893"
     showgrid="true"
     inkscape:grid-bbox="true"
     gridspacingy="1.0000000pt"
     gridspacingx="1.0000000pt"
     gridoriginy="0.0000000pt"
     gridoriginx="0.0000000pt"
     inkscape:window-width="640"
     inkscape:window-height="538"
     inkscape:window-x="255"
     inkscape:window-y="251" />
  <metadata
     id="metadata4">
    <rdf:RDF
       id="RDF5">
      <cc:Work
         rdf:about=""
         id="Work6">
        <dc:format
           id="format7">image/svg+xml</dc:format>
        <dc:type
           id="type9"
           rdf:resource="http://purl.org/dc/dcmitype/StillImage" />
      </cc:Work>
    </rdf:RDF>
  </metadata>
  <g
     id="layer1"
     inkscape:label="Layer 1"
     inkscape:groupmode="layer">
    <g
       id="g14600"
       transform="translate(6.250582e-2,1.187484)">
      <path
         d="M 195.82544,161.52373 C 195.30077,161.52702 194.88009,161.93512 194.88190,162.43999 L 195.13165,232.35894 C 195.13416,232.86169 195.55777,233.26959 196.08244,233.26771 L 268.59716,233.00653 C 269.12183,233.00465 269.54321,232.59443 269.54070,232.09169 L 269.32689,172.20792 C 269.32482,172.02549 269.26832,171.84680 269.16242,171.69656 L 262.07172,161.68735 C 261.89406,161.43908 261.60077,161.28740 261.28611,161.28923 L 195.82544,161.52373 z "
         id="path3555"
         sodipodi:nodetypes="ccccccccccc"
         transform="translate(-192.3819,-158.2677)" />
      <g
         id="g10635"
         transform="matrix(0.709635,0.704569,-0.704569,0.709635,-29.34850,-31.51460)">
        <path
           d="M 97.977000,42.557000 L 97.590000,42.170000 L 94.502000,45.255000 L 97.479000,48.231000 L 97.883000,47.826000 L 95.295000,45.240000 L 97.977000,42.557000 z "
           id="path10637"
           style="fill:#999999" />
        <path
           d="M 97.977000,42.557000 L 95.295000,45.240000 L 97.883000,47.826000 L 100.56500,45.145000 L 97.977000,42.557000 z "
           id="path10639"
           style="fill:#eeeeee" />
      </g>
      <path
         d="M 257.20946,225.52911 C 257.21981,227.82789 255.13347,229.69931 252.55184,229.70785 L 210.85120,229.85723 C 208.26887,229.86648 206.16987,228.00793 206.16235,225.71055 L 206.06374,198.97362 C 206.05692,196.67412 208.14397,194.80341 210.72630,194.79274 L 252.42482,194.64549 C 255.00574,194.63483 257.10544,196.49267 257.11368,198.79075 L 257.20946,225.52911 z "
         id="path3526"
         style="fill:url(#linearGradient14646);fill-opacity:1.0000000"
         transform="translate(-192.3819,-158.2677)" />
      <path
         d="M 210.70585,200.67923 C 210.35372,200.68191 210.07257,200.95657 210.07518,201.29173 C 210.07498,201.62973 210.35949,201.89812 210.70950,201.89616 L 252.46671,201.74657 C 252.81743,201.74532 253.09718,201.47490 253.09598,201.13832 C 253.09477,200.80174 252.81236,200.52840 252.46376,200.53035 L 210.70585,200.67923 z "
         id="path3535"
         style="fill:url(#linearGradient14647);fill-opacity:1.0000000"
         transform="translate(-192.3819,-158.2677)" />
      <path
         d="M 253.93610,189.35846 L 217.89794,189.48756 L 217.80614,163.66348 L 253.84217,163.53368 L 253.93610,189.35846 z "
         id="path3502"
         style="fill:url(#linearGradient14648);fill-opacity:1.0000000"
         transform="translate(-192.3819,-158.2677)" />
      <path
         d="M 251.88068,185.61754 L 243.07725,185.64766 L 243.00383,165.15160 L 251.80866,165.11864 L 251.88068,185.61754 z "
         id="path3517"
         transform="translate(-192.3819,-158.2677)" />
      <path
         adobe-blending-mode="screen"
         d="M 209.08463,162.28594 C 208.56066,162.28711 208.13921,162.67894 208.14023,163.16189 L 208.23732,190.06642 C 208.23905,190.55007 208.66259,190.93817 209.18655,190.93559 L 254.50825,190.77253 C 255.03292,190.77065 255.45437,190.38023 255.45264,189.89657 L 255.35626,162.99276 C 255.35454,162.51051 254.92888,162.12313 254.40633,162.12288 L 209.08463,162.28594 z M 253.46577,163.87210 C 253.47143,165.45177 253.55025,187.45395 253.55520,189.03433 C 251.78037,189.04069 211.90265,189.18354 210.12782,189.18990 C 210.12216,187.60882 210.04263,165.60593 210.03839,164.02767 C 211.81322,164.02131 251.68882,163.87776 253.46577,163.87210 z "
         id="path3515"
         style="opacity:0.29999998;fill:url(#linearGradient14649);fill-opacity:1.0000000"
         transform="translate(-192.3819,-158.2677)" />
      <path
         d="M 210.70585,210.67923 C 210.35372,210.68191 210.07257,210.95657 210.07518,211.29173 C 210.07498,211.62973 210.35949,211.89812 210.70950,211.89616 L 252.46671,211.74657 C 252.81743,211.74532 253.09718,211.47490 253.09598,211.13832 C 253.09477,210.80174 252.81236,210.52840 252.46376,210.53035 L 210.70585,210.67923 z "
         id="path11883"
         style="fill:url(#linearGradient14650);fill-opacity:1.0000000"
         transform="translate(-192.3819,-158.2677)" />
      <path
         d="M 264.12753,193.91556 C 264.19165,211.81656 249.19508,226.38020 230.63507,226.44527 C 212.06869,226.51249 196.96958,212.05524 196.90405,194.15849 C 196.84064,176.25820 211.83720,161.69315 230.40146,161.62665 C 248.96430,161.56015 264.06412,176.01669 264.12753,193.91556 z "
         id="path3476"
         style="opacity:0.20000000;fill:url(#radialGradient14651);fill-opacity:1.0000000"
         transform="translate(-192.3819,-158.2677)" />
      <g
         id="g3469"
         transform="matrix(0.709635,0.704569,-0.704569,0.709635,33.15150,-31.51460)">
        <path
           d="M 97.977000,42.557000 L 97.590000,42.170000 L 94.502000,45.255000 L 97.479000,48.231000 L 97.883000,47.826000 L 95.295000,45.240000 L 97.977000,42.557000 z "
           id="path3471"
           style="fill:#999999" />
        <path
           d="M 97.977000,42.557000 L 95.295000,45.240000 L 97.883000,47.826000 L 100.56500,45.145000 L 97.977000,42.557000 z "
           id="path3473"
           style="fill:#eeeeee" />
      </g>
      <path
         d="M 197.30957,163.15236 C 196.80880,163.15549 196.40728,163.54501 196.40901,164.02689 L 196.64739,230.76102 C 196.64977,231.24088 197.05408,231.63020 197.55486,231.62841 L 266.76653,231.37911 C 267.26730,231.37732 267.66950,230.98579 267.66709,230.50596 L 267.46302,173.34988 C 267.46105,173.17577 267.40713,173.00522 267.30605,172.86181 L 260.53833,163.30852 C 260.36875,163.07157 260.08883,162.92679 259.78851,162.92853 L 197.30957,163.15236 z "
         id="path13129"
         sodipodi:nodetypes="ccccccccccc"
         style="fill:url(#radialGradient14652);fill-opacity:1.0000000;stroke:none"
         transform="translate(-192.3819,-158.2677)" />
      <path
         d="M 210.70585,218.17923 C 210.35372,218.18191 210.07257,218.45657 210.07518,218.79173 C 210.07498,219.12973 210.35949,219.39812 210.70950,219.39616 L 252.46671,219.24657 C 252.81743,219.24532 253.09718,218.97490 253.09598,218.63832 C 253.09477,218.30174 252.81236,218.02840 252.46376,218.03035 L 210.70585,218.17923 z "
         id="path11885"
         style="fill:url(#linearGradient14653);fill-opacity:1.0000000"
         transform="translate(-192.3819,-158.2677)" />
      <path
         adobe-blending-mode="screen"
         d="M 265.77477,171.71269 C 264.00591,207.64400 225.68086,217.41425 199.82997,213.84409 L 199.64940,163.63490 L 259.49936,163.08083 L 265.77477,171.71269 z "
         id="path3489"
         style="opacity:0.80000001;fill:url(#linearGradient14654);fill-opacity:1.0000000"
         sodipodi:nodetypes="ccccc"
         transform="translate(-192.3819,-158.2677)" />
      <path
         d="M 195.82544,161.52373 C 195.30077,161.52702 194.88009,161.93512 194.88190,162.43999 L 195.13165,232.35894 C 195.13416,232.86169 195.55777,233.26959 196.08244,233.26771 L 268.59716,233.00653 C 269.12183,233.00465 269.54321,232.59443 269.54070,232.09169 L 269.32689,172.20792 C 269.32482,172.02549 269.26832,171.84680 269.16242,171.69656 L 262.07172,161.68735 C 261.89406,161.43908 261.60077,161.28740 261.28611,161.28923 L 195.82544,161.52373 z "
         id="path13974"
         sodipodi:nodetypes="ccccccccccc"
         transform="translate(-192.3819,-158.2677)"
         style="fill:none;stroke:#000000;stroke-width:5.1250000;stroke-miterlimit:4.0000000;stroke-opacity:0.051948015" />
      <path
         d="M 195.82544,161.52373 C 195.30077,161.52702 194.88009,161.93512 194.88190,162.43999 L 195.13165,232.35894 C 195.13416,232.86169 195.55777,233.26959 196.08244,233.26771 L 268.59716,233.00653 C 269.12183,233.00465 269.54321,232.59443 269.54070,232.09169 L 269.32689,172.20792 C 269.32482,172.02549 269.26832,171.84680 269.16242,171.69656 L 262.07172,161.68735 C 261.89406,161.43908 261.60077,161.28740 261.28611,161.28923 L 195.82544,161.52373 z "
         id="path14596"
         sodipodi:nodetypes="ccccccccccc"
         transform="translate(-192.3819,-158.2677)"
         style="fill:none;stroke:#000000;stroke-width:3.7500000;stroke-miterlimit:4.0000000;stroke-opacity:0.051948015" />
      <path
         d="M 195.82544,161.52373 C 195.30077,161.52702 194.88009,161.93512 194.88190,162.43999 L 195.13165,232.35894 C 195.13416,232.86169 195.55777,233.26959 196.08244,233.26771 L 268.59716,233.00653 C 269.12183,233.00465 269.54321,232.59443 269.54070,232.09169 L 269.32689,172.20792 C 269.32482,172.02549 269.26832,171.84680 269.16242,171.69656 L 262.07172,161.68735 C 261.89406,161.43908 261.60077,161.28740 261.28611,161.28923 L 195.82544,161.52373 z "
         id="path14597"
         sodipodi:nodetypes="ccccccccccc"
         transform="translate(-192.3819,-158.2677)"
         style="fill:none;stroke:#000000;stroke-width:2.7500000;stroke-miterlimit:4.0000000;stroke-opacity:0.051948015" />
      <path
         d="M 195.82544,161.52373 C 195.30077,161.52702 194.88009,161.93512 194.88190,162.43999 L 195.13165,232.35894 C 195.13416,232.86169 195.55777,233.26959 196.08244,233.26771 L 268.59716,233.00653 C 269.12183,233.00465 269.54321,232.59443 269.54070,232.09169 L 269.32689,172.20792 C 269.32482,172.02549 269.26832,171.84680 269.16242,171.69656 L 262.07172,161.68735 C 261.89406,161.43908 261.60077,161.28740 261.28611,161.28923 L 195.82544,161.52373 z "
         id="path14598"
         sodipodi:nodetypes="ccccccccccc"
         transform="translate(-192.3819,-158.2677)"
         style="fill:none;stroke:#000000;stroke-width:2.2500000;stroke-miterlimit:4.0000000;stroke-opacity:0.051948015" />
      <path
         d="M 195.82544,161.52373 C 195.30077,161.52702 194.88009,161.93512 194.88190,162.43999 L 195.13165,232.35894 C 195.13416,232.86169 195.55777,233.26959 196.08244,233.26771 L 268.59716,233.00653 C 269.12183,233.00465 269.54321,232.59443 269.54070,232.09169 L 269.32689,172.20792 C 269.32482,172.02549 269.26832,171.84680 269.16242,171.69656 L 262.07172,161.68735 C 261.89406,161.43908 261.60077,161.28740 261.28611,161.28923 L 195.82544,161.52373 z "
         id="path14599"
         sodipodi:nodetypes="ccccccccccc"
         transform="translate(-192.3819,-158.2677)"
         style="fill:none;stroke:#000000;stroke-width:1.2500000;stroke-miterlimit:4.0000000;stroke-opacity:0.051948015" />
    </g>
  </g>
  <g
     id="g1117"
     transform="matrix(0.952266,0.000000,0.000000,0.874844,4.406342,2.448578)">
    <defs
       id="defs1118">
      <linearGradient
         x1="54.536720"
         y1="96.837074"
         x2="91.471153"
         y2="66.370918"
         id="linearGradient13579"
         xlink:href="#shadow100to0"
         gradientUnits="userSpaceOnUse"
         gradientTransform="scale(1.373223,0.728214)" />
      <linearGradient
         id="shadow100to0">
        <stop
           style="stop-color:#000000;stop-opacity:1.0000000;"
           offset="0.0000000"
           id="stop3425" />
        <stop
           style="stop-color:#000000;stop-opacity:0.0000000;"
           offset="1.0000000"
           id="stop3426" />
      </linearGradient>
      <linearGradient
         x1="54.536720"
         y1="96.837074"
         x2="91.471153"
         y2="66.370918"
         id="linearGradient12328"
         xlink:href="#shadow100to0"
         gradientUnits="userSpaceOnUse"
         gradientTransform="scale(1.373223,0.728214)" />
      <linearGradient
         id="orangetoblackorange">
        <stop
           style="stop-color:#ff8b00;stop-opacity:1.0000000;"
           offset="0.0000000"
           id="stop4207" />
        <stop
           style="stop-color:#4d0200;stop-opacity:1.0000000;"
           offset="1.0000000"
           id="stop4209" />
      </linearGradient>
      <linearGradient
         x1="68.581657"
         y1="9.0542183"
         x2="122.31405"
         y2="0.95772386"
         id="linearGradient1661"
         xlink:href="#orangetoblackorange"
         gradientUnits="userSpaceOnUse"
         gradientTransform="matrix(0.901330,0.434111,-0.405060,0.965975,-51.61257,-0.295980)" />
      <linearGradient
         id="orangelesstoyelow">
        <stop
           style="stop-color:#ff7d00;stop-opacity:1.0000000;"
           offset="0.0000000"
           id="stop2689" />
        <stop
           style="stop-color:#ffbe00;stop-opacity:1.0000000;"
           offset="0.25358382"
           id="stop2690" />
        <stop
           style="stop-color:#ffff00;stop-opacity:1.0000000;"
           offset="1.0000000"
           id="stop2691" />
      </linearGradient>
      <linearGradient
         x1="58.404800"
         y1="80.526398"
         x2="86.264603"
         y2="19.952200"
         id="linearGradient1662"
         xlink:href="#orangelesstoyelow"
         gradientUnits="userSpaceOnUse"
         gradientTransform="matrix(0.988165,0.000000,0.000000,1.059038,-51.61257,-0.295980)" />
      <linearGradient
         x1="75.064339"
         y1="65.623413"
         x2="140.15146"
         y2="-37.592434"
         id="linearGradient1663"
         xlink:href="#orangetoyelow"
         gradientUnits="userSpaceOnUse"
         gradientTransform="matrix(0.988165,0.000000,0.000000,1.059038,-51.61257,-0.295980)" />
      <linearGradient
         id="orangetoyelow">
        <stop
           style="stop-color:#ff7d00;stop-opacity:1.0000000;"
           offset="0.0000000"
           id="stop2661" />
        <stop
           style="stop-color:#ffff00;stop-opacity:1.0000000;"
           offset="1.0000000"
           id="stop2662" />
      </linearGradient>
      <linearGradient
         x1="55.499844"
         y1="94.234268"
         x2="113.51736"
         y2="-2.7694037"
         id="linearGradient1664"
         xlink:href="#orangetoyelow"
         gradientUnits="userSpaceOnUse"
         gradientTransform="matrix(0.988165,0.000000,0.000000,1.059038,-51.61257,-0.295980)" />
      <linearGradient
         id="blacktowhite">
        <stop
           style="stop-color:#000000;stop-opacity:1.0000000;"
           offset="0.0000000"
           id="stop2476" />
        <stop
           style="stop-color:#ffffff;stop-opacity:1.0000000;"
           offset="1.0000000"
           id="stop2475" />
      </linearGradient>
      <linearGradient
         x1="63.510639"
         y1="263.33130"
         x2="48.348915"
         y2="299.38031"
         id="linearGradient6667"
         xlink:href="#blacktowhite"
         gradientUnits="userSpaceOnUse"
         gradientTransform="matrix(0.183056,0.000000,0.000000,0.265558,6.081840,0.841974)" />
      <linearGradient
         id="linearGradient1142">
        <stop
           style="stop-color:#ffffff;stop-opacity:1.0000000;"
           offset="0.0000000"
           id="stop1143" />
        <stop
           style="stop-color:#ffffff;stop-opacity:0.0000000;"
           offset="1.0000000"
           id="stop1144" />
      </linearGradient>
      <linearGradient
         x1="112.83246"
         y1="26.413313"
         x2="122.91101"
         y2="48.426991"
         id="linearGradient8535"
         xlink:href="#light100to0"
         gradientUnits="userSpaceOnUse"
         gradientTransform="matrix(0.317347,0.000000,0.000000,0.142307,7.750154,1.021211)" />
    </defs>
    <g
       id="g1146">
      <g
         transform="matrix(0.958830,-2.143750e-2,2.249826e-2,0.973029,-51.30429,5.811057)"
         style="opacity:0.099999972;fill:url(#linearGradient1159);fill-opacity:1.0000000"
         id="g13575">
        <path
           d="M 125.90400,50.515000 C 123.63250,46.366500 120.19912,43.269329 118.68283,43.933698 C 117.16654,44.598067 91.192168,54.722316 79.008689,62.157706 C 73.761502,65.359983 70.829036,71.452661 66.852000,76.198000 C 66.838036,76.214661 66.900234,76.202757 66.918000,76.208000 C 66.920567,76.208757 66.909786,76.215937 66.913000,76.216000 C 73.600119,76.347937 80.470438,77.912321 86.762978,76.133931 C 100.59177,72.225654 125.74595,60.384778 127.26367,59.724275 C 128.78139,59.063772 128.17550,54.663500 125.90400,50.515000 z "
           style="fill:#000000;fill-opacity:0.31249997"
           id="path13577" />
      </g>
      <g
         transform="matrix(0.949336,-2.122524e-2,2.227548e-2,0.963396,-50.72384,6.546908)"
         style="opacity:0.099999972;fill:url(#linearGradient1160);fill-opacity:1.0000000"
         id="g12324">
        <path
           d="M 125.90400,50.515000 C 123.63250,46.366500 120.66029,43.620631 119.14400,44.285000 C 117.62771,44.949369 91.653334,55.073618 79.469855,62.509008 C 74.222668,65.711285 70.829036,71.452661 66.852000,76.198000 C 66.838036,76.214661 66.900234,76.202757 66.918000,76.208000 C 66.920567,76.208757 66.909786,76.215937 66.913000,76.216000 C 73.600119,76.347937 80.483772,77.344046 86.776312,75.565656 C 100.60510,71.657379 125.75928,59.816503 127.27700,59.156000 C 128.79472,58.495497 128.17550,54.663500 125.90400,50.515000 z "
           style="fill:#000000;fill-opacity:0.31249997"
           id="path12326" />
      </g>
      <path
         d="M 30.469024,64.158131 L 53.287388,10.457127 C 53.987008,8.5974551 51.136756,5.5149576 46.659383,3.3322846 C 42.191890,1.1485455 38.080137,0.86684297 37.304428,2.6841510 L 14.435572,56.713100 L 13.750587,78.250205 C 13.717960,79.275781 15.054079,79.896199 15.754760,79.180843 L 30.469024,64.158131 z "
         style="fill:url(#linearGradient1161);fill-opacity:1.0000000"
         id="path145" />
      <path
         d="M 15.490689,57.457611 L 14.699181,78.572711 L 28.955422,63.966453 L 28.855621,63.918803 C 28.962343,63.839371 29.059186,63.752533 29.138236,63.654046 L 29.213334,63.690047 L 51.857127,10.296517 C 52.536985,8.7079645 50.050763,5.9385775 46.312536,4.1085546 C 42.570358,2.2785428 38.992212,2.0847336 38.315320,3.6722310 L 15.600379,57.030815 L 15.490689,57.457611 z "
         style="fill:#fff0dc"
         id="path147" />
      <path
         d="M 38.454651,3.3502852 C 37.992190,4.5702968 39.317319,6.4458597 41.617767,8.0714800 L 18.818839,61.620686 C 16.785197,60.199459 15.595445,58.284719 15.564805,57.057288 L 38.443781,3.3439334 L 38.454651,3.3502852 z "
         style="fill:url(#linearGradient1162);fill-opacity:1.0000000"
         id="path162" />
      <path
         d="M 29.359581,63.479303 C 28.844749,64.690842 26.551219,64.810517 23.913803,64.059654 L 46.703850,10.533745 C 49.291852,11.284596 51.429786,11.152241 51.977229,10.000000 L 30.002879,61.944752 C 29.992006,61.988172 29.478168,63.197601 29.359581,63.479303 z "
         style="fill:url(#linearGradient1163);fill-opacity:1.0000000"
         id="path177" />
      <path
         d="M 21.144976,62.986845 C 20.295146,62.571698 19.518461,62.106792 18.818839,61.619631 L 41.617767,8.0714800 C 42.332209,8.5723993 43.130646,9.0553288 44.005172,9.4831797 C 44.929105,9.9353934 45.844146,10.284867 46.704838,10.532680 L 23.914796,64.059654 C 23.031380,63.810788 22.091627,63.450708 21.144976,62.986845 z "
         style="fill:url(#linearGradient1164);fill-opacity:1.0000000"
         id="path192" />
      <path
         d="M 330.21077,106.26464 C 330.21736,115.48235 314.29113,122.95642 294.64286,122.95642 C 274.99458,122.95642 259.06835,115.48235 259.07494,106.26464 C 259.06835,97.046931 274.99458,89.572862 294.64286,89.572862 C 314.29113,89.572862 330.21736,97.046931 330.21077,106.26464 L 330.21077,106.26464 z "
         transform="matrix(7.111582e-2,4.098850e-2,-5.226773e-2,4.839618e-2,29.78768,-10.41921)"
         style="fill:#000000;fill-opacity:1.0000000;stroke:#000000;stroke-width:2.6949544;stroke-linecap:butt;stroke-linejoin:round;stroke-miterlimit:4.0000000;stroke-dashoffset:0.0000000;stroke-opacity:0.084374972"
         id="path6041" />
      <path
         d="M 14.899290,70.549100 L 14.632360,78.638000 L 20.208281,73.015926 C 18.794524,73.608179 15.493636,72.499479 14.899290,70.549100 z "
         style="fill:url(#linearGradient1165);fill-opacity:1.0000000;fill-rule:evenodd;stroke:none;stroke-width:0.094361210pt;stroke-linecap:butt;stroke-linejoin:miter;stroke-opacity:1.0000000"
         id="path6042" />
      <path
         d="M 47.465845,7.3279801 C 46.608342,6.9780989 45.562430,6.4532555 45.091215,6.6546145 C 44.612559,6.8591385 43.692820,6.6083931 42.795739,6.3575268 C 42.054188,5.1192179 43.224491,5.0867002 44.279881,5.2880483 C 45.316185,5.4857587 47.248171,6.6348006 47.465845,7.3279801 z "
         style="fill:url(#linearGradient1166);fill-opacity:1.0000000;fill-rule:evenodd;stroke:none;stroke-width:0.25000000pt;stroke-linecap:butt;stroke-linejoin:miter;stroke-opacity:1.0000000"
         id="path7289" />
    </g>
  </g>
</svg>
