<?xml version="1.0" encoding="UTF-8" standalone="no"?>
<!-- Created with Inkscape (http://www.inkscape.org/) -->
<svg
   xmlns:dc="http://purl.org/dc/elements/1.1/"
   xmlns:cc="http://web.resource.org/cc/"
   xmlns:rdf="http://www.w3.org/1999/02/22-rdf-syntax-ns#"
   xmlns:svg="http://www.w3.org/2000/svg"
   xmlns="http://www.w3.org/2000/svg"
   xmlns:xlink="http://www.w3.org/1999/xlink"
   xmlns:sodipodi="http://inkscape.sourceforge.net/DTD/sodipodi-0.dtd"
   xmlns:inkscape="http://www.inkscape.org/namespaces/inkscape"
   inkscape:export-ydpi="45.000000"
   inkscape:export-xdpi="45.000000"
   inkscape:export-filename="/home/pinheiro/kdeplayground-artwork/oooicons/crystalsvg/scrollbar.png"
   sodipodi:docname="scrollbar.svg"
   sodipodi:docbase="/home/pinheiro/kdeplayground-artwork/oooicons/crystalsvg"
   inkscape:version="0.41"
   sodipodi:version="0.32"
   id="svg7392"
   height="64px"
   width="64px">
  <defs
     id="defs3">
    <radialGradient
       r="0.85092342"
       fy="200.89760"
       fx="12.917841"
       cy="200.89760"
       cx="12.917841"
       gradientTransform="scale(1.507557,0.663325)"
       gradientUnits="userSpaceOnUse"
       id="radialGradient7390"
       xlink:href="#sadow75to0w"
       inkscape:collect="always" />
    <radialGradient
       r="0.85092342"
       fy="200.89760"
       fx="12.917841"
       cy="200.89760"
       cx="12.917841"
       gradientTransform="scale(1.507557,0.663325)"
       gradientUnits="userSpaceOnUse"
       id="radialGradient7388"
       xlink:href="#sadow75to0w"
       inkscape:collect="always" />
    <radialGradient
       r="0.85092342"
       fy="200.89760"
       fx="12.917841"
       cy="200.89760"
       cx="12.917841"
       gradientTransform="scale(1.507557,0.663325)"
       gradientUnits="userSpaceOnUse"
       id="radialGradient7386"
       xlink:href="#sadow75to0w"
       inkscape:collect="always" />
    <radialGradient
       r="0.85092342"
       fy="200.89760"
       fx="12.917841"
       cy="200.89760"
       cx="12.917841"
       gradientTransform="scale(1.507557,0.663325)"
       gradientUnits="userSpaceOnUse"
       id="radialGradient7384"
       xlink:href="#sadow75to0w"
       inkscape:collect="always" />
    <radialGradient
       r="0.85092342"
       fy="200.89760"
       fx="12.917841"
       cy="200.89760"
       cx="12.917841"
       gradientTransform="scale(1.507557,0.663325)"
       gradientUnits="userSpaceOnUse"
       id="radialGradient7382"
       xlink:href="#sadow75to0w"
       inkscape:collect="always" />
    <radialGradient
       r="0.85092342"
       fy="200.89760"
       fx="12.917841"
       cy="200.89760"
       cx="12.917841"
       gradientTransform="scale(1.507557,0.663325)"
       gradientUnits="userSpaceOnUse"
       id="radialGradient7380"
       xlink:href="#sadow75to0w"
       inkscape:collect="always" />
    <radialGradient
       r="0.85092342"
       fy="200.89760"
       fx="12.917841"
       cy="200.89760"
       cx="12.917841"
       gradientTransform="scale(1.507557,0.663325)"
       gradientUnits="userSpaceOnUse"
       id="radialGradient7378"
       xlink:href="#sadow75to0w"
       inkscape:collect="always" />
    <radialGradient
       r="0.85092342"
       fy="200.89760"
       fx="12.917841"
       cy="200.89760"
       cx="12.917841"
       gradientTransform="scale(1.507557,0.663325)"
       gradientUnits="userSpaceOnUse"
       id="radialGradient7376"
       xlink:href="#sadow75to0w"
       inkscape:collect="always" />
    <linearGradient
       id="sadow75to0w">
      <stop
         id="stop3429"
         offset="0.0000000"
         style="stop-color:#000000;stop-opacity:0.72941178;" />
      <stop
         id="stop3430"
         offset="1.0000000"
         style="stop-color:#ffffff;stop-opacity:0.0000000;" />
    </linearGradient>
    <radialGradient
       r="0.85092342"
       fy="200.89760"
       fx="12.917841"
       cy="200.89760"
       cx="12.917841"
       gradientTransform="scale(1.507557,0.663325)"
       gradientUnits="userSpaceOnUse"
       id="radialGradient7374"
       xlink:href="#sadow75to0w"
       inkscape:collect="always" />
    <radialGradient
       gradientTransform="matrix(1.382976,0.000000,0.000000,0.726210,-21.03104,-52.67438)"
       r="13.249377"
       fy="124.03846"
       fx="40.972221"
       cy="124.03846"
       cx="40.972221"
       spreadMethod="reflect"
       gradientUnits="userSpaceOnUse"
       id="radialGradient6559"
       xlink:href="#light100to0"
       inkscape:collect="always" />
    <linearGradient
       y2="143.27217"
       x2="35.948341"
       y1="129.00298"
       x1="27.782410"
       gradientTransform="matrix(1.618321,0.000000,0.000000,0.620601,-21.03104,-52.67438)"
       gradientUnits="userSpaceOnUse"
       id="linearGradient6557"
       xlink:href="#light100to0"
       inkscape:collect="always" />
    <linearGradient
       gradientTransform="matrix(1.382976,0.000000,0.000000,0.726210,-21.03104,-52.67438)"
       y2="117.44884"
       x2="35.765125"
       y1="138.03079"
       x1="45.622375"
       gradientUnits="userSpaceOnUse"
       id="linearGradient6555"
       xlink:href="#bludraktowhite"
       inkscape:collect="always" />
    <radialGradient
       gradientTransform="matrix(1.382976,0.000000,0.000000,0.726210,-21.03104,-52.67438)"
       r="7.7109990"
       fy="123.48658"
       fx="42.468056"
       cy="123.48658"
       cx="42.468056"
       spreadMethod="reflect"
       gradientUnits="userSpaceOnUse"
       id="radialGradient6553"
       xlink:href="#linearGradient2642"
       inkscape:collect="always" />
    <radialGradient
       gradientTransform="matrix(1.382976,0.000000,0.000000,1.382976,-21.03104,-109.9668)"
       r="13.249377"
       fy="124.03846"
       fx="40.972221"
       cy="124.03846"
       cx="40.972221"
       spreadMethod="reflect"
       gradientUnits="userSpaceOnUse"
       id="radialGradient5009"
       xlink:href="#light100to0"
       inkscape:collect="always" />
    <linearGradient
       y2="143.27217"
       x2="35.948341"
       y1="129.00298"
       x1="27.782410"
       gradientTransform="matrix(1.618321,0.000000,0.000000,1.181855,-21.03104,-109.9668)"
       gradientUnits="userSpaceOnUse"
       id="linearGradient5007"
       xlink:href="#light100to0"
       inkscape:collect="always" />
    <linearGradient
       gradientTransform="matrix(1.382976,0.000000,0.000000,1.382976,-21.03104,-109.9668)"
       y2="117.44884"
       x2="35.765125"
       y1="138.03079"
       x1="45.622375"
       gradientUnits="userSpaceOnUse"
       id="linearGradient5005"
       xlink:href="#bludraktowhite"
       inkscape:collect="always" />
    <radialGradient
       gradientTransform="matrix(1.382976,0.000000,0.000000,1.382976,-21.03104,-109.9668)"
       r="7.7109990"
       fy="123.48658"
       fx="42.468056"
       cy="123.48658"
       cx="42.468056"
       spreadMethod="reflect"
       gradientUnits="userSpaceOnUse"
       id="radialGradient5003"
       xlink:href="#linearGradient2642"
       inkscape:collect="always" />
    <radialGradient
       gradientTransform="matrix(1.382976,0.000000,0.000000,1.382976,-21.03104,-154.2221)"
       r="13.249377"
       fy="124.03846"
       fx="40.972221"
       cy="124.03846"
       cx="40.972221"
       spreadMethod="reflect"
       gradientUnits="userSpaceOnUse"
       id="radialGradient4235"
       xlink:href="#light100to0"
       inkscape:collect="always" />
    <linearGradient
       id="light100to0">
      <stop
         id="stop2764"
         offset="0.0000000"
         style="stop-color:#ffffff;stop-opacity:1.0000000;" />
      <stop
         id="stop2765"
         offset="1.0000000"
         style="stop-color:#ffffff;stop-opacity:0.0000000;" />
    </linearGradient>
    <linearGradient
       gradientUnits="userSpaceOnUse"
       y2="143.27217"
       x2="35.948341"
       y1="129.00298"
       x1="27.782410"
       gradientTransform="matrix(1.618321,0.000000,0.000000,1.181855,-21.03104,-154.2221)"
       id="linearGradient3433"
       xlink:href="#light100to0"
       inkscape:collect="always" />
    <linearGradient
       gradientTransform="matrix(1.382976,0.000000,0.000000,1.382976,-21.03104,-154.2221)"
       gradientUnits="userSpaceOnUse"
       y2="117.44884"
       x2="35.765125"
       y1="138.03079"
       x1="45.622375"
       id="linearGradient2640"
       xlink:href="#bludraktowhite"
       inkscape:collect="always" />
    <radialGradient
       gradientTransform="matrix(1.382976,0.000000,0.000000,1.382976,-21.03104,-154.2221)"
       spreadMethod="reflect"
       gradientUnits="userSpaceOnUse"
       r="7.7109990"
       fy="123.48658"
       fx="42.468056"
       cy="123.48658"
       cx="42.468056"
       id="radialGradient2656"
       xlink:href="#linearGradient2642"
       inkscape:collect="always" />
    <linearGradient
       y2="91.407700"
       x2="33.332001"
       y1="10.305200"
       x1="33.332001"
       gradientUnits="userSpaceOnUse"
       id="bludraktowhite">
      <linearGradient
         xlink:href="#linearGradient2642"
         spreadMethod="pad"
         y2="91.407700"
         x2="33.332001"
         y1="10.305200"
         x1="33.332001"
         gradientUnits="userSpaceOnUse"
         id="bluedrklighttowite" />
      <stop
         id="stop7271"
         style="stop-color:rgb(255,255,255)"
         offset="0" />
      <stop
         id="stop7273"
         style="stop-color:rgb(84,84,119)"
         offset="1" />
    </linearGradient>
    <linearGradient
       gradientUnits="userSpaceOnUse"
       y2="64.335876"
       x2="56.848820"
       y1="98.692421"
       x1="104.96716"
       gradientTransform="matrix(0.741194,0.000000,0.000000,2.580463,-21.03104,-154.2221)"
       id="linearGradient5777"
       xlink:href="#bludraktowhite"
       inkscape:collect="always" />
    <linearGradient
       id="linearGradient2642">
      <stop
         id="stop2646"
         style="stop-color:#ffffff;stop-opacity:1.0000000;"
         offset="0.0000000" />
      <stop
         id="stop2644"
         style="stop-color:#a9a9bb;stop-opacity:1.0000000;"
         offset="1.0000000" />
    </linearGradient>
    <linearGradient
       gradientUnits="userSpaceOnUse"
       y2="74.450653"
       x2="25.033056"
       y1="74.286453"
       x1="84.101753"
       gradientTransform="matrix(0.763898,0.000000,0.000000,2.503768,-21.03104,-154.2221)"
       id="linearGradient6543"
       xlink:href="#linearGradient2642"
       inkscape:collect="always" />
    <linearGradient
       gradientUnits="userSpaceOnUse"
       y2="30.831261"
       x2="21.871677"
       y1="16.770046"
       x1="21.753733"
       gradientTransform="matrix(1.334523,0.000000,0.000000,0.749331,0.000000,20.00000)"
       id="linearGradient7506"
       xlink:href="#sadow75to0w"
       inkscape:collect="always" />
    <linearGradient
       y2="30.831261"
       x2="21.871677"
       y1="16.770046"
       x1="21.753733"
       gradientTransform="scale(1.334523,0.749331)"
       gradientUnits="userSpaceOnUse"
       id="linearGradient7510"
       xlink:href="#sadow75to0w"
       inkscape:collect="always" />
  </defs>
  <sodipodi:namedview
     inkscape:window-y="80"
     inkscape:window-x="306"
     inkscape:window-height="536"
     inkscape:window-width="640"
     inkscape:grid-bbox="true"
     inkscape:document-units="px"
     showgrid="true"
     inkscape:current-layer="layer1"
     inkscape:cy="32.000000"
     inkscape:cx="32.000000"
     inkscape:zoom="5.6562500"
     inkscape:pageshadow="2"
     inkscape:pageopacity="0.0"
     borderopacity="1.0"
     bordercolor="#666666"
     pagecolor="#ffffff"
     id="base" />
  <metadata
     id="metadata4">
    <rdf:RDF
       id="RDF5">
      <cc:Work
         id="Work6"
         rdf:about="">
        <dc:format
           id="format7">image/svg+xml</dc:format>
        <dc:type
           rdf:resource="http://purl.org/dc/dcmitype/StillImage"
           id="type9" />
      </cc:Work>
    </rdf:RDF>
  </metadata>
  <g
     inkscape:groupmode="layer"
     inkscape:label="Layer 1"
     id="layer1">
    <path
       id="rect5011"
       d="M 23.832179,1.1882134 L 37.785489,1.1882134 C 38.841949,1.1882134 39.692457,2.5054844 39.692457,4.1417385 L 39.692457,60.091264 C 39.692457,61.727519 38.841949,63.044789 37.785489,63.044789 L 23.832179,63.044789 C 22.775719,63.044789 21.925211,61.727519 21.925211,60.091264 L 21.925211,4.1417385 C 21.925211,2.5054844 22.775719,1.1882134 23.832179,1.1882134 z "
       style="opacity:0.76679844;fill:url(#linearGradient6543);fill-opacity:1.0000000;stroke:url(#linearGradient5777);stroke-width:1.5904223;stroke-linecap:round;stroke-linejoin:round;stroke-miterlimit:4.0000000;stroke-dashoffset:0.0000000;stroke-opacity:1.0000000" />
    <rect
       ry="0.86289907"
       rx="2.5609047"
       y="17.000000"
       x="22.000000"
       height="9.5454550"
       width="17.000000"
       id="rect7508"
       style="opacity:0.76679844;fill:url(#linearGradient7510);fill-opacity:1.0000000;stroke:none;stroke-width:1.1500000;stroke-linecap:round;stroke-linejoin:round;stroke-miterlimit:4.0000000;stroke-dashoffset:0.0000000;stroke-opacity:1.0000000" />
    <path
       id="rect1871"
       d="M 24.093920,1.3627035 L 37.567184,1.3627035 C 38.623644,1.3627035 39.474152,2.1331596 39.474152,3.0901928 L 39.474152,16.922415 C 39.474152,17.879449 38.623644,18.649905 37.567184,18.649905 L 24.093920,18.649905 C 23.037460,18.649905 22.186952,17.879449 22.186952,16.922415 L 22.186952,3.0901928 C 22.186952,2.1331596 23.037460,1.3627035 24.093920,1.3627035 z "
       style="stroke-dasharray:none;stroke-opacity:1.0000000;stroke-dashoffset:0.0000000;stroke-miterlimit:4.0000000;stroke-linejoin:round;stroke-linecap:round;stroke-width:0.48000000;stroke:url(#linearGradient2640);fill-opacity:1.0000000;fill:url(#radialGradient2656)" />
    <path
       id="path2632"
       d="M 30.760555,5.8569469 L 26.508752,14.155661 L 35.152352,14.155661 L 30.760555,5.8569469 z "
       style="fill:#000000;fill-opacity:1.0000000;fill-rule:evenodd;stroke:none;stroke-width:1.0000000px;stroke-linecap:butt;stroke-linejoin:miter;stroke-opacity:1.0000000" />
    <path
       id="path2664"
       d="M 37.860285,1.4488077 C 33.531985,1.4201109 28.243971,1.3914003 23.915672,1.3627035 C 23.252186,1.2409739 22.065222,2.2534509 22.186952,3.0914237 C 22.186952,5.9726190 22.274199,13.565130 22.274199,16.446326 C 24.526398,16.462535 25.905845,9.3018018 29.728766,8.0320500 C 33.576977,6.7539036 37.650843,3.6723012 37.860285,1.4488077 z "
       style="fill:url(#linearGradient3433);fill-opacity:1.0000000;fill-rule:evenodd;stroke:none;stroke-width:1.0000000px;stroke-linecap:butt;stroke-linejoin:miter;stroke-opacity:1.0000000" />
    <path
       id="rect4229"
       d="M 24.093920,1.3627035 L 37.567184,1.3627035 C 38.623644,1.3627035 39.474152,2.1331596 39.474152,3.0901928 L 39.474152,16.922415 C 39.474152,17.879449 38.623644,18.649905 37.567184,18.649905 L 24.093920,18.649905 C 23.037460,18.649905 22.186952,17.879449 22.186952,16.922415 L 22.186952,3.0901928 C 22.186952,2.1331596 23.037460,1.3627035 24.093920,1.3627035 z "
       style="opacity:0.76679844;fill:url(#radialGradient4235);fill-opacity:1.0000000;stroke:none;stroke-width:0.27500001;stroke-linecap:round;stroke-linejoin:round;stroke-miterlimit:4.0000000;stroke-dashoffset:0.0000000;stroke-opacity:1.0000000" />
    <path
       id="rect4995"
       d="M 24.093920,45.617937 L 37.567184,45.617937 C 38.623644,45.617937 39.474152,46.388393 39.474152,47.345426 L 39.474152,61.177647 C 39.474152,62.134681 38.623644,62.905137 37.567184,62.905137 L 24.093920,62.905137 C 23.037460,62.905137 22.186952,62.134681 22.186952,61.177647 L 22.186952,47.345426 C 22.186952,46.388393 23.037460,45.617937 24.093920,45.617937 z "
       style="stroke-dasharray:none;stroke-opacity:1.0000000;stroke-dashoffset:0.0000000;stroke-miterlimit:4.0000000;stroke-linejoin:round;stroke-linecap:round;stroke-width:0.48000000;stroke:url(#linearGradient5005);fill-opacity:1.0000000;fill:url(#radialGradient5003)" />
    <path
       id="path4997"
       d="M 30.760555,58.410893 L 26.508752,50.112179 L 35.152352,50.112179 L 30.760555,58.410893 z "
       style="fill:#000000;fill-opacity:1.0000000;fill-rule:evenodd;stroke:none;stroke-width:1.0000000px;stroke-linecap:butt;stroke-linejoin:miter;stroke-opacity:1.0000000" />
    <path
       id="path4999"
       d="M 37.860285,45.704040 C 33.531985,45.675344 28.243971,45.646634 23.915672,45.617937 C 23.252186,45.496207 22.065222,46.508684 22.186952,47.346657 C 22.186952,50.227852 22.274199,57.820362 22.274199,60.701558 C 24.526398,60.717766 25.905845,53.557034 29.728766,52.287282 C 33.576977,51.009136 37.650843,47.927535 37.860285,45.704040 z "
       style="fill:url(#linearGradient5007);fill-opacity:1.0000000;fill-rule:evenodd;stroke:none;stroke-width:1.0000000px;stroke-linecap:butt;stroke-linejoin:miter;stroke-opacity:1.0000000" />
    <path
       id="rect5001"
       d="M 24.093920,45.617937 L 37.567184,45.617937 C 38.623644,45.617937 39.474152,46.388393 39.474152,47.345426 L 39.474152,61.177647 C 39.474152,62.134681 38.623644,62.905137 37.567184,62.905137 L 24.093920,62.905137 C 23.037460,62.905137 22.186952,62.134681 22.186952,61.177647 L 22.186952,47.345426 C 22.186952,46.388393 23.037460,45.617937 24.093920,45.617937 z "
       style="opacity:0.76679844;fill:url(#radialGradient5009);fill-opacity:1.0000000;stroke:none;stroke-width:0.27500001;stroke-linecap:round;stroke-linejoin:round;stroke-miterlimit:4.0000000;stroke-dashoffset:0.0000000;stroke-opacity:1.0000000" />
    <rect
       ry="0.86289907"
       rx="2.5609047"
       y="37.000000"
       x="22.000000"
       height="9.5454550"
       width="17.000000"
       id="rect7498"
       style="opacity:0.76679844;fill:url(#linearGradient7506);fill-opacity:1.0000000;stroke:none;stroke-width:1.1500000;stroke-linecap:round;stroke-linejoin:round;stroke-miterlimit:4.0000000;stroke-dashoffset:0.0000000;stroke-opacity:1.0000000" />
    <path
       id="rect6545"
       d="M 24.217305,29.024243 L 37.443800,29.024243 C 38.568615,29.024243 39.474152,30.042350 39.474152,31.306970 L 39.474152,35.819151 C 39.474152,37.083785 38.568615,38.101877 37.443800,38.101877 L 24.217305,38.101877 C 23.092488,38.101877 22.186952,37.083785 22.186952,35.819151 L 22.186952,31.306970 C 22.186952,30.042350 23.092488,29.024243 24.217305,29.024243 z "
       style="stroke-dasharray:none;stroke-opacity:1.0000000;stroke-dashoffset:0.0000000;stroke-miterlimit:4.0000000;stroke-linejoin:round;stroke-linecap:round;stroke-width:0.48000000;stroke:url(#linearGradient6555);fill-opacity:1.0000000;fill:url(#radialGradient6553)" />
    <g
       transform="matrix(1.382976,0.000000,0.000000,1.382976,-20.75282,-153.5360)"
       id="g7363">
      <path
         transform="matrix(0.779042,0.000000,0.000000,2.000000,19.66025,-133.3333)"
         d="M 20.252275 133.33325 A 0.55760670 0.24534695 0 1 1  19.137061,133.33325 A 0.55760670 0.24534695 0 1 1  20.252275 133.33325 z"
         sodipodi:ry="0.24534695"
         sodipodi:rx="0.55760670"
         sodipodi:cy="133.33325"
         sodipodi:cx="19.694668"
         id="path6561"
         style="opacity:0.76679844;fill:url(#radialGradient7374);fill-opacity:1.0000000;stroke:none;stroke-width:1.1500000;stroke-linecap:round;stroke-linejoin:round;stroke-miterlimit:4.0000000;stroke-dashoffset:0.0000000;stroke-opacity:1.0000000"
         sodipodi:type="arc" />
      <path
         transform="matrix(0.779042,0.000000,0.000000,2.000000,21.66025,-133.3333)"
         d="M 20.252275 133.33325 A 0.55760670 0.24534695 0 1 1  19.137061,133.33325 A 0.55760670 0.24534695 0 1 1  20.252275 133.33325 z"
         sodipodi:ry="0.24534695"
         sodipodi:rx="0.55760670"
         sodipodi:cy="133.33325"
         sodipodi:cx="19.694668"
         id="path7331"
         style="opacity:0.76679844;fill:url(#radialGradient7376);fill-opacity:1.0000000;stroke:none;stroke-width:1.1500000;stroke-linecap:round;stroke-linejoin:round;stroke-miterlimit:4.0000000;stroke-dashoffset:0.0000000;stroke-opacity:1.0000000"
         sodipodi:type="arc" />
      <path
         transform="matrix(0.779042,0.000000,0.000000,2.000000,23.66025,-133.3333)"
         d="M 20.252275 133.33325 A 0.55760670 0.24534695 0 1 1  19.137061,133.33325 A 0.55760670 0.24534695 0 1 1  20.252275 133.33325 z"
         sodipodi:ry="0.24534695"
         sodipodi:rx="0.55760670"
         sodipodi:cy="133.33325"
         sodipodi:cx="19.694668"
         id="path7335"
         style="opacity:0.76679844;fill:url(#radialGradient7378);fill-opacity:1.0000000;stroke:none;stroke-width:1.1500000;stroke-linecap:round;stroke-linejoin:round;stroke-miterlimit:4.0000000;stroke-dashoffset:0.0000000;stroke-opacity:1.0000000"
         sodipodi:type="arc" />
      <path
         transform="matrix(0.779042,0.000000,0.000000,2.000000,19.66025,-131.3333)"
         d="M 20.252275 133.33325 A 0.55760670 0.24534695 0 1 1  19.137061,133.33325 A 0.55760670 0.24534695 0 1 1  20.252275 133.33325 z"
         sodipodi:ry="0.24534695"
         sodipodi:rx="0.55760670"
         sodipodi:cy="133.33325"
         sodipodi:cx="19.694668"
         id="path7339"
         style="opacity:0.76679844;fill:url(#radialGradient7380);fill-opacity:1.0000000;stroke:none;stroke-width:1.1500000;stroke-linecap:round;stroke-linejoin:round;stroke-miterlimit:4.0000000;stroke-dashoffset:0.0000000;stroke-opacity:1.0000000"
         sodipodi:type="arc" />
      <path
         transform="matrix(0.779042,0.000000,0.000000,2.000000,21.66025,-131.3333)"
         d="M 20.252275 133.33325 A 0.55760670 0.24534695 0 1 1  19.137061,133.33325 A 0.55760670 0.24534695 0 1 1  20.252275 133.33325 z"
         sodipodi:ry="0.24534695"
         sodipodi:rx="0.55760670"
         sodipodi:cy="133.33325"
         sodipodi:cx="19.694668"
         id="path7341"
         style="opacity:0.76679844;fill:url(#radialGradient7382);fill-opacity:1.0000000;stroke:none;stroke-width:1.1500000;stroke-linecap:round;stroke-linejoin:round;stroke-miterlimit:4.0000000;stroke-dashoffset:0.0000000;stroke-opacity:1.0000000"
         sodipodi:type="arc" />
      <path
         transform="matrix(0.779042,0.000000,0.000000,2.000000,23.66025,-131.3333)"
         d="M 20.252275 133.33325 A 0.55760670 0.24534695 0 1 1  19.137061,133.33325 A 0.55760670 0.24534695 0 1 1  20.252275 133.33325 z"
         sodipodi:ry="0.24534695"
         sodipodi:rx="0.55760670"
         sodipodi:cy="133.33325"
         sodipodi:cx="19.694668"
         id="path7343"
         style="opacity:0.76679844;fill:url(#radialGradient7384);fill-opacity:1.0000000;stroke:none;stroke-width:1.1500000;stroke-linecap:round;stroke-linejoin:round;stroke-miterlimit:4.0000000;stroke-dashoffset:0.0000000;stroke-opacity:1.0000000"
         sodipodi:type="arc" />
      <path
         transform="matrix(0.779042,0.000000,0.000000,2.000000,19.66025,-129.3333)"
         d="M 20.252275 133.33325 A 0.55760670 0.24534695 0 1 1  19.137061,133.33325 A 0.55760670 0.24534695 0 1 1  20.252275 133.33325 z"
         sodipodi:ry="0.24534695"
         sodipodi:rx="0.55760670"
         sodipodi:cy="133.33325"
         sodipodi:cx="19.694668"
         id="path7351"
         style="opacity:0.76679844;fill:url(#radialGradient7386);fill-opacity:1.0000000;stroke:none;stroke-width:1.1500000;stroke-linecap:round;stroke-linejoin:round;stroke-miterlimit:4.0000000;stroke-dashoffset:0.0000000;stroke-opacity:1.0000000"
         sodipodi:type="arc" />
      <path
         transform="matrix(0.779042,0.000000,0.000000,2.000000,21.66025,-129.3333)"
         d="M 20.252275 133.33325 A 0.55760670 0.24534695 0 1 1  19.137061,133.33325 A 0.55760670 0.24534695 0 1 1  20.252275 133.33325 z"
         sodipodi:ry="0.24534695"
         sodipodi:rx="0.55760670"
         sodipodi:cy="133.33325"
         sodipodi:cx="19.694668"
         id="path7353"
         style="opacity:0.76679844;fill:url(#radialGradient7388);fill-opacity:1.0000000;stroke:none;stroke-width:1.1500000;stroke-linecap:round;stroke-linejoin:round;stroke-miterlimit:4.0000000;stroke-dashoffset:0.0000000;stroke-opacity:1.0000000"
         sodipodi:type="arc" />
      <path
         transform="matrix(0.779042,0.000000,0.000000,2.000000,23.66025,-129.3333)"
         d="M 20.252275 133.33325 A 0.55760670 0.24534695 0 1 1  19.137061,133.33325 A 0.55760670 0.24534695 0 1 1  20.252275 133.33325 z"
         sodipodi:ry="0.24534695"
         sodipodi:rx="0.55760670"
         sodipodi:cy="133.33325"
         sodipodi:cx="19.694668"
         id="path7355"
         style="opacity:0.76679844;fill:url(#radialGradient7390);fill-opacity:1.0000000;stroke:none;stroke-width:1.1500000;stroke-linecap:round;stroke-linejoin:round;stroke-miterlimit:4.0000000;stroke-dashoffset:0.0000000;stroke-opacity:1.0000000"
         sodipodi:type="arc" />
    </g>
    <path
       id="path6549"
       d="M 37.860285,29.069466 C 33.531985,29.054392 28.243971,29.039318 23.915672,29.024243 C 23.252186,28.960322 22.065222,30.293981 22.186952,30.734017 C 22.186952,32.246951 22.212506,34.383040 22.212506,35.895975 C 24.464704,35.904494 25.905845,33.193128 29.728766,32.526368 C 33.576977,31.855209 37.650843,30.237031 37.860285,29.069466 z "
       style="fill:url(#linearGradient6557);fill-opacity:1.0000000;fill-rule:evenodd;stroke:none;stroke-width:1.0000000px;stroke-linecap:butt;stroke-linejoin:miter;stroke-opacity:1.0000000" />
    <path
       id="rect6551"
       d="M 24.093920,29.024243 L 37.567184,29.024243 C 38.623644,29.024243 39.474152,29.794713 39.474152,30.751747 L 39.474152,36.374387 C 39.474152,37.331421 38.623644,38.101877 37.567184,38.101877 L 24.093920,38.101877 C 23.037460,38.101877 22.186952,37.331421 22.186952,36.374387 L 22.186952,30.751747 C 22.186952,29.794713 23.037460,29.024243 24.093920,29.024243 z "
       style="opacity:0.76679844;fill:url(#radialGradient6559);fill-opacity:1.0000000;stroke:none;stroke-width:0.27500001;stroke-linecap:round;stroke-linejoin:round;stroke-miterlimit:4.0000000;stroke-dashoffset:0.0000000;stroke-opacity:1.0000000" />
  </g>
</svg>
