<?xml version="1.0" encoding="UTF-8" standalone="no"?>
<!-- Created with Inkscape (http://www.inkscape.org/) -->
<svg
   xmlns:dc="http://purl.org/dc/elements/1.1/"
   xmlns:cc="http://web.resource.org/cc/"
   xmlns:rdf="http://www.w3.org/1999/02/22-rdf-syntax-ns#"
   xmlns:svg="http://www.w3.org/2000/svg"
   xmlns="http://www.w3.org/2000/svg"
   xmlns:xlink="http://www.w3.org/1999/xlink"
   xmlns:sodipodi="http://inkscape.sourceforge.net/DTD/sodipodi-0.dtd"
   xmlns:inkscape="http://www.inkscape.org/namespaces/inkscape"
   inkscape:export-ydpi="36.000000"
   inkscape:export-xdpi="36.000000"
   inkscape:export-filename="/home/nuno/kdeplayground-artwork/oooicons/crystalsvg/setdocumentproperties.png"
   sodipodi:docname="setdocumentproperties.svg"
   sodipodi:docbase="/home/nuno/kdeplayground-artwork/oooicons/crystalsvg"
   inkscape:version="0.41"
   sodipodi:version="0.32"
   id="svg7354"
   height="64pt"
   width="64pt">
  <defs
     id="defs3">
    <linearGradient
       gradientTransform="matrix(0.182431,0.000000,0.000000,0.213888,4.641008,0.357569)"
       y2="323.76923"
       x2="272.46765"
       y1="59.053604"
       x1="122.43015"
       gradientUnits="userSpaceOnUse"
       id="linearGradient3623"
       xlink:href="#graytolightgray"
       inkscape:collect="always" />
    <radialGradient
       gradientTransform="matrix(0.696376,0.000000,0.000000,0.816451,10.14487,4.039048)"
       r="23.6936"
       fy="81.1689"
       fx="74.4951"
       cy="81.1689"
       cx="74.4951"
       gradientUnits="userSpaceOnUse"
       id="radialGradient3622"
       xlink:href="#XMLID_9_"
       inkscape:collect="always" />
    <linearGradient
       id="graytolightgray">
      <stop
         id="stop5101"
         offset="0.0000000"
         style="stop-color:#d4d3d3;stop-opacity:1.0000000;" />
      <stop
         id="stop5102"
         offset="1.0000000"
         style="stop-color:#ffffff;stop-opacity:1.0000000;" />
    </linearGradient>
    <linearGradient
       gradientTransform="matrix(0.182431,0.000000,0.000000,0.213888,4.641008,0.357569)"
       y2="273.80606"
       x2="330.93881"
       y1="340.20792"
       x1="284.17496"
       gradientUnits="userSpaceOnUse"
       id="linearGradient3621"
       xlink:href="#graytolightgray"
       inkscape:collect="always" />
    <linearGradient
       id="light75to0">
      <stop
         id="stop2769"
         offset="0.0000000"
         style="stop-color:#ffffff;stop-opacity:0.72916669;" />
      <stop
         id="stop2770"
         offset="1.0000000"
         style="stop-color:#ffffff;stop-opacity:0.0000000;" />
    </linearGradient>
    <radialGradient
       gradientUnits="userSpaceOnUse"
       r="508.29517"
       fy="52.577991"
       fx="53.182602"
       cy="52.577991"
       cx="53.182602"
       gradientTransform="matrix(0.222656,0.000000,0.000000,0.175247,4.641008,1.797000e-2)"
       id="radialGradient6111"
       xlink:href="#light75to0"
       inkscape:collect="always" />
    <linearGradient
       gradientTransform="matrix(0.182431,0.000000,0.000000,0.213888,4.641008,0.357569)"
       y2="513.91156"
       x2="561.86395"
       y1="248.01839"
       x1="245.91402"
       gradientUnits="userSpaceOnUse"
       id="linearGradient3619"
       xlink:href="#garylighttowite"
       inkscape:collect="always" />
    <linearGradient
       id="garylighttowite">
      <stop
         id="stop5106"
         offset="0.0000000"
         style="stop-color:#7d7d7d;stop-opacity:1.0000000;" />
      <stop
         id="stop5107"
         offset="1.0000000"
         style="stop-color:#d3d4d4;stop-opacity:1.0000000;" />
    </linearGradient>
    <linearGradient
       gradientTransform="matrix(0.182431,0.000000,0.000000,0.213888,4.641008,0.357569)"
       y2="648.29797"
       x2="578.44397"
       y1="-50.289883"
       x1="-37.332329"
       gradientUnits="userSpaceOnUse"
       id="linearGradient3618"
       xlink:href="#garylighttowite"
       inkscape:collect="always" />
    <radialGradient
       r="23.6936"
       fy="81.1689"
       fx="74.4951"
       cy="81.1689"
       cx="74.4951"
       gradientTransform="matrix(0.696376,0.000000,0.000000,0.816451,10.14487,4.039048)"
       gradientUnits="userSpaceOnUse"
       id="radialGradient7426"
       xlink:href="#XMLID_9_"
       inkscape:collect="always" />
    <radialGradient
       r="508.29517"
       fy="52.577991"
       fx="53.182602"
       cy="52.577991"
       cx="53.182602"
       gradientTransform="matrix(0.261654,0.000000,0.000000,0.186725,-10.45838,-5.143526)"
       gradientUnits="userSpaceOnUse"
       id="radialGradient1100"
       xlink:href="#light75to0"
       inkscape:collect="always" />
    <linearGradient
       y2="323.76923"
       x2="272.46765"
       y1="59.053604"
       x1="122.43015"
       gradientTransform="matrix(0.214385,0.000000,0.000000,0.222911,-10.46009,-4.866561)"
       gradientUnits="userSpaceOnUse"
       id="linearGradient1101"
       xlink:href="#graytolightgray"
       inkscape:collect="always" />
    <linearGradient
       y2="648.29797"
       x2="578.44397"
       y1="-50.289883"
       x1="-37.332329"
       gradientTransform="matrix(0.214385,0.000000,0.000000,0.227898,-10.37251,-4.757327)"
       gradientUnits="userSpaceOnUse"
       id="linearGradient1102"
       xlink:href="#garylighttowite"
       inkscape:collect="always" />
    <linearGradient
       y2="513.91156"
       x2="561.86395"
       y1="248.01839"
       x1="245.91402"
       gradientTransform="matrix(0.214385,0.000000,0.000000,0.227898,-10.74547,-4.758651)"
       gradientUnits="userSpaceOnUse"
       id="linearGradient1103"
       xlink:href="#garylighttowite"
       inkscape:collect="always" />
    <linearGradient
       y2="273.80606"
       x2="330.93881"
       y1="340.20792"
       x1="284.17496"
       gradientTransform="matrix(0.214385,0.000000,0.000000,0.227898,-11.00079,-4.737960)"
       gradientUnits="userSpaceOnUse"
       id="linearGradient1104"
       xlink:href="#graytolightgray"
       inkscape:collect="always" />
    <radialGradient
       gradientUnits="userSpaceOnUse"
       gradientTransform="scale(1.007895,0.992167)"
       r="16.905936"
       fy="288.10696"
       fx="99.576797"
       cy="288.10696"
       cx="99.576797"
       id="radialGradient1162"
       xlink:href="#yelowtoorange"
       inkscape:collect="always" />
    <radialGradient
       gradientUnits="userSpaceOnUse"
       gradientTransform="scale(1.007939,0.992123)"
       r="32.600057"
       fy="305.53129"
       fx="117.98709"
       cy="304.92585"
       cx="117.06402"
       id="radialGradient1161"
       xlink:href="#yelowtoorange"
       inkscape:collect="always" />
    <linearGradient
       y2="92.233040"
       x2="66.504250"
       y1="124.63684"
       x1="65.665718"
       spreadMethod="pad"
       gradientUnits="userSpaceOnUse"
       id="linearGradient1160"
       xlink:href="#orangetoyelow"
       inkscape:collect="always" />
    <linearGradient
       y2="122.44665"
       x2="66.497231"
       y1="20.307247"
       x1="59.273998"
       gradientUnits="userSpaceOnUse"
       id="linearGradient1159"
       xlink:href="#orangemoretoyelow"
       inkscape:collect="always" />
    <linearGradient
       y2="48.286541"
       x2="59.353645"
       y1="113.70891"
       x1="62.404484"
       gradientUnits="userSpaceOnUse"
       id="linearGradient1158"
       xlink:href="#orangetoblackorange"
       inkscape:collect="always" />
    <linearGradient
       y2="175.27454"
       x2="62.530823"
       y1="18.808815"
       x1="52.093212"
       gradientUnits="userSpaceOnUse"
       id="linearGradient1157"
       xlink:href="#orangetoblackorange"
       inkscape:collect="always" />
    <linearGradient
       y2="74.325470"
       x2="57.450085"
       y1="133.07648"
       x1="60.536690"
       gradientUnits="userSpaceOnUse"
       id="linearGradient1156"
       xlink:href="#orangelesstoyelow"
       inkscape:collect="always" />
    <linearGradient
       y2="71.243797"
       x2="43.653599"
       y1="98.746101"
       x1="51.968300"
       gradientUnits="userSpaceOnUse"
       id="linearGradient1155"
       xlink:href="#bludraktowhite"
       inkscape:collect="always" />
    <linearGradient
       gradientTransform="scale(0.824363,1.213058)"
       y2="267.88974"
       x2="137.60123"
       y1="19.868944"
       x1="116.16369"
       gradientUnits="userSpaceOnUse"
       id="linearGradient1154"
       xlink:href="#bludraktowhite"
       inkscape:collect="always" />
    <linearGradient
       gradientTransform="scale(0.994701,1.005327)"
       y2="123.23939"
       x2="28.078188"
       y1="-49.143492"
       x1="13.411418"
       gradientUnits="userSpaceOnUse"
       id="linearGradient1153"
       xlink:href="#bludraktowhite"
       inkscape:collect="always" />
    <linearGradient
       gradientUnits="userSpaceOnUse"
       gradientTransform="scale(0.994505,1.005525)"
       y2="109.80440"
       x2="66.285203"
       y1="64.368117"
       x1="21.797516"
       id="linearGradient1152"
       xlink:href="#bludraktowhite"
       inkscape:collect="always" />
    <radialGradient
       fy="0.76828623"
       fx="0.82170546"
       r="0.82132119"
       cy="0.75303298"
       cx="0.79844964"
       id="radialGradient620"
       xlink:href="#yelowtoorange" />
    <radialGradient
       fy="0.23816428"
       fx="0.26356590"
       r="0.67450374"
       cy="0.23816428"
       cx="0.26356590"
       id="radialGradient577"
       xlink:href="#yelowtoorange" />
    <linearGradient
       y2="1.0276290"
       x2="0.99904650"
       y1="0.33295012"
       x1="0.31887081"
       id="linearGradient1590"
       xlink:href="#bludraktowhite"
       inkscape:collect="always" />
    <linearGradient
       gradientUnits="objectBoundingBox"
       y2="1.2117912"
       x2="0.41760600"
       y1="-1.3477520"
       x1="0.19983362"
       id="linearGradient617"
       xlink:href="#bludraktowhite" />
    <linearGradient
       y2="91.407700"
       x2="33.332001"
       y1="10.305200"
       x1="33.332001"
       gradientUnits="userSpaceOnUse"
       id="bludraktowhite">
      <stop
         id="stop7271"
         style="stop-color:rgb(255,255,255)"
         offset="0" />
      <stop
         id="stop7273"
         style="stop-color:rgb(84,84,119)"
         offset="1" />
    </linearGradient>
    <linearGradient
       gradientUnits="objectBoundingBox"
       y2="1.4512330"
       x2="0.53851098"
       y1="-0.029274037"
       x1="0.41054419"
       id="linearGradient601"
       xlink:href="#bludraktowhite" />
    <linearGradient
       gradientUnits="userSpaceOnUse"
       y2="71.243797"
       x2="43.653599"
       y1="98.746101"
       x1="51.968300"
       id="linearGradient658"
       xlink:href="#bludraktowhite" />
    <linearGradient
       gradientUnits="userSpaceOnUse"
       y2="74.325470"
       x2="57.450085"
       y1="133.07648"
       x1="60.536690"
       id="linearGradient608"
       xlink:href="#orangelesstoyelow" />
    <linearGradient
       id="orangelesstoyelow">
      <stop
         id="stop2689"
         offset="0.0000000"
         style="stop-color:#ff7d00;stop-opacity:1.0000000;" />
      <stop
         id="stop2690"
         offset="0.25358382"
         style="stop-color:#ffbe00;stop-opacity:1.0000000;" />
      <stop
         id="stop2691"
         offset="1.0000000"
         style="stop-color:#ffff00;stop-opacity:1.0000000;" />
    </linearGradient>
    <linearGradient
       gradientUnits="userSpaceOnUse"
       y2="175.27454"
       x2="62.530823"
       y1="18.808815"
       x1="52.093212"
       id="linearGradient583"
       xlink:href="#orangetoblackorange" />
    <linearGradient
       id="orangetoblackorange">
      <stop
         id="stop4207"
         offset="0.0000000"
         style="stop-color:#ff8b00;stop-opacity:1.0000000;" />
      <stop
         id="stop4209"
         offset="1.0000000"
         style="stop-color:#4d0200;stop-opacity:1.0000000;" />
    </linearGradient>
    <linearGradient
       gradientUnits="userSpaceOnUse"
       y2="48.286541"
       x2="59.353645"
       y1="113.70891"
       x1="62.404484"
       id="linearGradient613"
       xlink:href="#orangetoblackorange" />
    <linearGradient
       gradientUnits="userSpaceOnUse"
       y2="122.44665"
       x2="66.497231"
       y1="20.307247"
       x1="59.273998"
       id="linearGradient618"
       xlink:href="#orangemoretoyelow" />
    <linearGradient
       id="orangemoretoyelow">
      <stop
         id="stop2671"
         offset="0.0000000"
         style="stop-color:#ff7d00;stop-opacity:1.0000000;" />
      <stop
         id="stop2679"
         offset="0.74641621"
         style="stop-color:#ffbe00;stop-opacity:1.0000000;" />
      <stop
         id="stop2672"
         offset="1.0000000"
         style="stop-color:#ffff00;stop-opacity:1.0000000;" />
    </linearGradient>
    <linearGradient
       spreadMethod="pad"
       gradientUnits="userSpaceOnUse"
       y2="92.233040"
       x2="66.504250"
       y1="124.63684"
       x1="65.665718"
       id="linearGradient573"
       xlink:href="#orangetoyelow" />
    <linearGradient
       id="orangetoyelow">
      <stop
         id="stop2661"
         offset="0.0000000"
         style="stop-color:#ff7d00;stop-opacity:1.0000000;" />
      <stop
         id="stop2662"
         offset="1.0000000"
         style="stop-color:#ffff00;stop-opacity:1.0000000;" />
    </linearGradient>
    <linearGradient
       id="yelowtoorange">
      <stop
         id="stop3105"
         offset="0.0000000"
         style="stop-color:#ffff00;stop-opacity:1.0000000;" />
      <stop
         id="stop3107"
         offset="1.0000000"
         style="stop-color:#ff8c00;stop-opacity:1.0000000;" />
    </linearGradient>
    <linearGradient
       id="linearGradient1441">
      <stop
         id="stop1443"
         offset="0.0000000"
         style="stop-color:#7d7d7d;stop-opacity:1.0000000;" />
      <stop
         id="stop1445"
         offset="1.0000000"
         style="stop-color:#d3d4d4;stop-opacity:1.0000000;" />
    </linearGradient>
    <linearGradient
       gradientUnits="userSpaceOnUse"
       y2="52.538799"
       x2="58.535599"
       y1="113.45800"
       x1="58.535599"
       id="linearGradient606"
       xlink:href="#garylighttowite" />
    <linearGradient
       id="linearGradient1434">
      <stop
         id="stop1436"
         offset="0.0000000"
         style="stop-color:#d4d3d3;stop-opacity:1.0000000;" />
      <stop
         id="stop1438"
         offset="1.0000000"
         style="stop-color:#ffffff;stop-opacity:1.0000000;" />
    </linearGradient>
    <linearGradient
       id="blacktowhite">
      <stop
         id="stop2476"
         offset="0.0000000"
         style="stop-color:#000000;stop-opacity:1.0000000;" />
      <stop
         id="stop2475"
         offset="1.0000000"
         style="stop-color:#ffffff;stop-opacity:1.0000000;" />
    </linearGradient>
    <linearGradient
       id="greylighttograyw">
      <stop
         id="stop575"
         offset="0.0000000"
         style="stop-color:#b5b5b8;stop-opacity:1.0000000;" />
      <stop
         id="stop576"
         offset="1.0000000"
         style="stop-color:#ebebee;stop-opacity:1.0000000;" />
    </linearGradient>
    <linearGradient
       gradientUnits="userSpaceOnUse"
       y2="13.105219"
       x2="57.864365"
       y1="36.379978"
       x1="77.157959"
       id="linearGradient582"
       xlink:href="#graytolightgray" />
    <linearGradient
       gradientUnits="userSpaceOnUse"
       y2="100.58953"
       x2="82.368210"
       y1="-61.206173"
       x1="44.404633"
       id="linearGradient578"
       xlink:href="#blacktowhite" />
    <linearGradient
       gradientUnits="userSpaceOnUse"
       y2="447.19601"
       x2="123.39273"
       y1="452.76382"
       x1="123.39273"
       id="linearGradient585"
       xlink:href="#greylighttograyw" />
    <linearGradient
       gradientUnits="userSpaceOnUse"
       y2="405.91858"
       x2="84.319923"
       y1="503.80502"
       x1="147.44272"
       id="linearGradient645"
       xlink:href="#greylighttograyw" />
    <linearGradient
       id="linearGradient1418">
      <stop
         id="stop1420"
         offset="0.0000000"
         style="stop-color:#ffffff;stop-opacity:0.72916669;" />
      <stop
         id="stop1422"
         offset="1.0000000"
         style="stop-color:#ffffff;stop-opacity:0.0000000;" />
    </linearGradient>
    <linearGradient
       id="greantodarkgrean">
      <stop
         id="stop5123"
         offset="0.0000000"
         style="stop-color:#00ff01;stop-opacity:1.0000000;" />
      <stop
         id="stop5124"
         offset="1.0000000"
         style="stop-color:#15980f;stop-opacity:1.0000000;" />
    </linearGradient>
    <linearGradient
       id="greandraktoblack">
      <stop
         id="stop7328"
         offset="0.0000000"
         style="stop-color:#007c00;stop-opacity:1.0000000;" />
      <stop
         id="stop7329"
         offset="1.0000000"
         style="stop-color:#025a00;stop-opacity:1.0000000;" />
    </linearGradient>
  </defs>
  <sodipodi:namedview
     inkscape:window-y="233"
     inkscape:window-x="222"
     inkscape:window-height="590"
     inkscape:window-width="1001"
     gridoriginx="0.0000000pt"
     gridoriginy="0.0000000pt"
     gridspacingx="1.0000000pt"
     gridspacingy="1.0000000pt"
     inkscape:grid-bbox="false"
     showgrid="false"
     inkscape:current-layer="layer1"
     inkscape:cy="40.974087"
     inkscape:cx="40.000000"
     inkscape:zoom="5.3875000"
     inkscape:pageshadow="2"
     inkscape:pageopacity="0.0"
     borderopacity="1.0"
     bordercolor="#666666"
     pagecolor="#ffffff"
     id="base" />
  <metadata
     id="metadata4">
    <rdf:RDF
       id="RDF5">
      <cc:Work
         id="Work6"
         rdf:about="">
        <dc:format
           id="format7">image/svg+xml</dc:format>
        <dc:type
           rdf:resource="http://purl.org/dc/dcmitype/StillImage"
           id="type9" />
      </cc:Work>
    </rdf:RDF>
  </metadata>
  <g
     inkscape:groupmode="layer"
     inkscape:label="Layer 1"
     id="layer1">
    <path
       inkscape:export-ydpi="48.818890"
       inkscape:export-xdpi="48.818890"
       sodipodi:nodetypes="ccccccc"
       id="path1105"
       d="M 31.157186,2.9325380 L 66.907281,2.5785768 L 66.907281,56.911642 L 47.085445,77.795360 L 2.4863178,77.795360 L 2.3093368,67.530482 L 31.157186,2.9325380 z "
       style="fill:#cbcbcb;fill-opacity:1.0000000;fill-rule:evenodd;stroke:none;stroke-width:0.25000000pt;stroke-linecap:butt;stroke-linejoin:miter;stroke-opacity:1.0000000" />
    <path
       id="path1727"
       d="M 0.71651149,0.27782781 L 64.252571,0.45480861 L 63.898610,54.433912 L 44.961678,74.432728 L 0.53953089,74.963670 L 0.71651149,0.27782781 z "
       style="fill:#ffffff;fill-opacity:1.0000000;fill-rule:evenodd;stroke:none;stroke-width:0.25000000pt;stroke-linecap:butt;stroke-linejoin:miter;stroke-opacity:1.0000000" />
    <path
       style="fill:url(#linearGradient1101);fill-opacity:1.0000000"
       id="path146"
       d="M 62.143450,1.7406870 L 2.1585298,1.7406870 L 2.0693248,72.924388 L 44.743727,72.924388 L 62.143450,54.786833 L 62.143450,1.7406870 z " />
    <path
       style="fill:#ffffff"
       id="path163"
       d="M 45.376283,74.199838 L 64.146738,54.247142 L 45.376283,54.247142 L 45.376283,74.199838 z " />
    <path
       style="fill:url(#linearGradient1104);fill-opacity:1.0000000"
       id="path178"
       d="M 46.048305,73.834135 L 62.567485,56.275475 L 46.048305,56.275475 L 46.048305,73.834135 z " />
    <path
       sodipodi:nodetypes="ccccc"
       style="fill:url(#radialGradient1100);fill-opacity:1.0000000"
       id="path195"
       d="M 62.297295,8.2578034 L 62.297295,1.5637064 L 2.1233358,1.5637064 L 2.0693248,40.333835 C 25.183381,48.279322 58.640099,28.227030 62.297295,8.2578034 z " />
    <path
       style="fill:url(#linearGradient1103);fill-opacity:1.0000000"
       id="path210"
       d="M 45.003350,54.548863 C 44.777486,54.548863 44.594174,54.743731 44.594174,54.983827 L 44.594174,74.936522 C 44.594174,75.113118 44.694013,75.271440 44.847048,75.339297 C 45.000073,75.405412 45.176017,75.369747 45.293044,75.244475 L 64.062673,55.291781 C 64.179701,55.167382 64.214894,54.980354 64.151876,54.817675 C 64.088045,54.654997 63.939101,54.548863 63.772978,54.548863 L 45.003350,54.548863 z M 62.785238,55.418794 C 61.540521,56.741953 46.657231,72.562491 45.412525,73.886522 C 45.412525,72.044880 45.412525,56.207821 45.412525,55.418794 C 46.153122,55.418794 61.052788,55.418794 62.785238,55.418794 z " />
    <path
       style="fill:url(#linearGradient1102);fill-opacity:1.0000000"
       id="path225"
       d="M 63.736750,0.67112221 C 63.736750,1.5245207 63.736750,54.449276 63.736750,54.805074 C 63.501879,55.054745 45.441756,74.252335 45.206886,74.502873 C 44.873816,74.502873 1.5422780,74.502873 0.74110909,74.502873 C 0.74110909,73.648612 0.74110909,1.5262642 0.74110909,0.67199291 C 1.5439100,0.67112221 62.934763,0.67112221 63.736750,0.67112221 z M 64.145914,-0.19880829 L -0.077232313,-0.19880829 L -0.077232313,75.371937 L 45.545686,75.371937 L 64.555091,55.164362 L 64.555091,-0.19880829 L 64.145914,-0.19880829 z " />
    <g
       transform="matrix(0.167914,-0.105295,0.116867,0.181449,1.014263,30.50793)"
       inkscape:export-ydpi="72.000000"
       inkscape:export-xdpi="72.000000"
       id="use1134">
      <g
         transform="matrix(1.100273,1.806595e-2,0.000000,1.045972,-206.8777,-387.3046)"
         id="g1136">
        <path
           transform="matrix(2.434977,2.390956,-2.439754,2.468211,459.3370,221.8959)"
           id="path1137"
           style="fill:url(#linearGradient1152)"
           d="M 65.983000,93.860000 L 47.763000,75.640000 C 51.275000,66.881000 49.603000,56.637000 42.670000,49.703000 C 35.599000,42.634000 25.091000,41.032000 16.222000,44.819000 L 31.115000,59.710000 L 16.740000,74.085000 L 2.3260000,59.669000 C -0.65400000,68.188000 1.1510000,77.901000 7.8120000,84.561000 C 14.472000,91.221000 24.185000,93.028000 32.703000,90.048000 L 51.249000,108.59400 L 65.983000,93.860000 z " />
        <path
           transform="matrix(2.434977,2.390956,-2.439754,2.468211,459.3370,221.8959)"
           id="path1138"
           style="fill:none"
           d="M 19.761000,74.757000 L 31.950000,62.569000 L 30.103000,60.722000 L 17.915000,72.910000 L 19.761000,74.757000 z " />
        <path
           transform="matrix(2.434977,2.390956,-2.439754,2.468211,459.3370,221.8959)"
           id="path1139"
           style="fill:url(#linearGradient1153)"
           d="M 43.350000,49.022000 C 36.183000,41.857000 25.387000,39.860000 15.846000,43.934000 C 15.552000,44.059000 15.339000,44.323000 15.279000,44.636000 C 15.218000,44.949000 15.318000,45.273000 15.544000,45.499000 C 15.544000,45.499000 28.515000,58.471000 29.755000,59.710000 C 28.582000,60.883000 17.915000,71.551000 16.740000,72.724000 C 15.506000,71.489000 3.0050000,58.990000 3.0050000,58.990000 C 2.7710000,58.755000 2.4340000,58.658000 2.1110000,58.732000 C 1.9310000,58.773000 1.7710000,58.864000 1.6450000,58.990000 C 1.5440000,59.091000 1.4660000,59.213000 1.4170000,59.353000 C -1.8080000,68.571000 0.38200000,78.492000 7.1320000,85.242000 C 13.738000,91.848000 23.383000,94.073000 32.434000,91.139000 C 33.226000,91.932000 50.570000,109.27400 50.570000,109.27400 C 50.945000,109.65000 51.553000,109.65000 51.929000,109.27400 L 66.664000,94.541000 C 67.039000,94.166000 67.039000,93.556000 66.664000,93.180000 C 66.664000,93.180000 49.705000,76.221000 48.874000,75.391000 C 52.317000,66.149000 50.191000,55.866000 43.350000,49.022000 z M 41.989000,50.385000 C 48.434000,56.830000 50.351000,66.604000 46.869000,75.281000 C 46.726000,75.639000 46.809000,76.049000 47.082000,76.320000 C 47.082000,76.320000 63.341000,92.580000 64.623000,93.860000 C 63.444000,95.038000 52.427000,106.05500 51.249000,107.23100 C 49.967000,105.95100 33.384000,89.368000 33.384000,89.368000 C 33.123000,89.106000 32.734000,89.018000 32.385000,89.140000 C 23.870000,92.118000 14.714000,90.102000 8.4910000,83.880000 C 2.6300000,78.020000 0.50500000,69.556000 2.7690000,61.475000 C 4.6810000,63.387000 16.061000,74.766000 16.061000,74.766000 C 16.437000,75.141000 17.046000,75.141000 17.422000,74.766000 L 31.796000,60.392000 C 32.172000,60.016000 32.172000,59.407000 31.796000,59.031000 C 31.796000,59.031000 19.760000,46.995000 17.951000,45.186000 C 26.419000,42.148000 35.717000,44.111000 41.989000,50.385000 z " />
        <path
           transform="matrix(1.043367,0.000000,0.000000,1.056755,243.3409,359.3430)"
           id="path1140"
           style="fill:url(#linearGradient1154)"
           d="M 135.81761,143.13546 C 160.13214,132.52418 177.13373,109.03302 177.16533,81.995553 C 177.18424,60.657661 166.63012,41.869336 150.23835,30.051148 L 150.19019,78.410376 C 150.18200,84.289206 145.33695,89.128675 139.36598,89.222104 L 73.755469,90.253330 C 67.786839,90.344424 62.946609,85.651905 62.952449,79.780009 L 63.002879,33.839360 C 48.364759,46.177567 39.086829,64.200249 39.064609,84.163354 C 39.041089,110.12703 54.681989,132.34183 77.443129,142.78208 L 77.350679,233.26772 L 135.74777,210.91980 L 135.81761,143.13546 z " />
        <path
           transform="matrix(2.434977,2.390956,-2.439754,2.468211,459.3370,221.8959)"
           id="path1141"
           style="fill:url(#linearGradient1155)"
           d="M 56.769000,105.30300 C 56.129000,105.94300 55.095000,105.94300 54.455000,105.30300 L 36.414000,87.261000 C 35.776000,86.621000 35.776000,85.586000 36.414000,84.948000 L 42.989000,78.371000 C 43.629000,77.732000 44.664000,77.732000 45.304000,78.371000 L 63.345000,96.414000 C 63.984000,97.053000 63.984000,98.089000 63.345000,98.727000 L 56.769000,105.30300 z " />
      </g>
      <g
         transform="matrix(1.100273,0.000000,0.000000,1.045972,-23.07103,-4.422415)"
         id="g1142">
        <g
           transform="matrix(1.000000,0.000000,0.000000,0.955910,0.000000,8.895155)"
           id="g1143">
          <path
             transform="matrix(2.434977,2.429522,-2.439754,2.429569,291.1713,-121.6664)"
             id="path1144"
             style="fill:url(#linearGradient1156)"
             d="M 78.431000,102.57300 L 55.277000,79.418000 L 37.127000,97.566000 L 60.282000,120.72000 C 65.294000,125.73200 73.419000,125.73200 78.430000,120.72000 C 83.441000,115.70800 83.441000,107.58400 78.431000,102.57300 z " />
          <path
             transform="matrix(2.434977,2.429522,-2.439754,2.429569,291.1713,-121.6664)"
             id="path1145"
             style="fill:url(#linearGradient1157)"
             d="M 56.065000,78.630000 C 55.630000,78.193000 54.925000,78.193000 54.487000,78.630000 L 36.340000,96.779000 C 35.904000,97.215000 35.904000,97.921000 36.340000,98.356000 L 59.493000,121.51000 C 64.931000,126.94800 73.779000,126.94800 79.219000,121.50900 C 84.657000,116.07000 84.657000,107.22200 79.219000,101.78200 L 56.065000,78.630000 z M 77.642000,103.36100 C 82.210000,107.92900 82.210000,115.36400 77.642000,119.93200 C 73.074000,124.50100 65.640000,124.50000 61.072000,119.93200 C 61.072000,119.93200 40.226000,99.085000 38.706000,97.566000 C 40.085000,96.189000 53.899000,82.374000 55.277000,80.996000 C 56.796000,82.516000 77.642000,103.36100 77.642000,103.36100 z " />
        </g>
        <g
           id="g1146">
          <path
             transform="matrix(2.434977,2.429522,-2.439754,2.429569,291.1713,-121.6664)"
             id="path1147"
             style="fill:url(#linearGradient1158)"
             d="M 74.268000,106.50600 C 75.273000,107.51200 75.987000,108.69800 76.411000,109.96100 C 76.453000,107.62900 75.585000,105.28400 73.806000,103.50600 L 54.719000,84.419000 L 42.129000,97.009000 L 46.370000,101.25000 L 57.690000,89.929000 L 74.268000,106.50600 z " />
          <path
             transform="matrix(2.434977,2.429522,-2.439754,2.429569,291.1713,-121.6664)"
             id="path1148"
             style="fill:url(#linearGradient1159)"
             d="M 73.805000,116.09600 C 75.504000,114.39900 76.369000,112.18600 76.410000,109.96100 C 75.986000,108.69800 75.272000,107.51200 74.267000,106.50600 L 55.180000,87.419000 L 43.860000,98.739000 L 61.215000,116.09600 C 64.692000,119.57300 70.329000,119.57300 73.805000,116.09600 z " />
          <path
             transform="matrix(2.434977,2.429522,-2.439754,2.429569,291.1713,-121.6664)"
             id="path1149"
             style="fill:url(#linearGradient1160)"
             d="M 74.600000,117.05500 C 70.743000,120.91100 64.488000,120.91100 60.630000,117.05400 C 56.772000,113.19700 56.772000,106.94100 60.630000,103.08300 C 64.488000,99.225000 70.743000,99.225000 74.600000,103.08300 C 78.458000,106.94100 78.458000,113.19600 74.600000,117.05500 z " />
          <path
             transform="matrix(1.043367,1.652517e-2,0.000000,1.056755,76.02490,0.326400)"
             id="path1150"
             style="fill:url(#radialGradient1161);fill-rule:evenodd"
             d="M 106.03364,312.24686 C 94.991098,312.42194 86.038764,303.74282 86.049589,292.87268 C 86.053408,282.00036 95.023303,273.04540 106.07285,272.87250 C 117.11540,272.69742 126.07007,281.37420 126.05691,292.24668 C 126.04374,303.11915 117.07618,312.07637 106.03364,312.24686 z " />
          <path
             transform="matrix(1.043367,1.652517e-2,0.000000,1.056755,76.02490,0.326400)"
             id="path1151"
             style="fill:url(#radialGradient1162)"
             d="M 106.32109,304.79373 C 99.347952,304.90514 93.697898,299.42752 93.704738,292.55782 C 93.711578,285.69271 99.372722,280.03810 106.34819,279.92895 C 113.32365,279.82440 118.97370,285.30202 118.96687,292.16253 C 118.96237,299.02990 113.30123,304.68451 106.32109,304.79373 z " />
        </g>
      </g>
    </g>
  </g>
</svg>
