<?xml version="1.0" encoding="UTF-8" standalone="no"?>
<!DOCTYPE svg PUBLIC "-//W3C//DTD SVG 20010904//EN"
"http://www.w3.org/TR/2001/REC-SVG-20010904/DTD/svg10.dtd">
<!-- Created with Inkscape (http://www.inkscape.org/) -->
<svg
   width="64pt"
   height="64pt"
   id="svg10519"
   sodipodi:version="0.32"
   inkscape:version="0.40"
   sodipodi:docbase="/home/nuno/kdeplayground-artwork/oooicons/crystalsvg"
   sodipodi:docname="sheetnews.svg"
   inkscape:export-filename="/home/nuno/kdeplayground-artwork/oooicons/crystalsvg/sheetnews.png"
   inkscape:export-xdpi="24.750000"
   inkscape:export-ydpi="24.750000"
   xmlns="http://www.w3.org/2000/svg"
   xmlns:cc="http://web.resource.org/cc/"
   xmlns:inkscape="http://www.inkscape.org/namespaces/inkscape"
   xmlns:sodipodi="http://sodipodi.sourceforge.net/DTD/sodipodi-0.dtd"
   xmlns:rdf="http://www.w3.org/1999/02/22-rdf-syntax-ns#"
   xmlns:dc="http://purl.org/dc/elements/1.1/"
   xmlns:xlink="http://www.w3.org/1999/xlink">
  <defs
     id="defs3">
    <linearGradient
       inkscape:collect="always"
       xlink:href="#graytolightgray"
       id="linearGradient4310"
       gradientTransform="matrix(1.229803,0.000000,0.000000,0.886135,-1.143705,5.214637)"
       x1="57.458168"
       y1="83.336693"
       x2="10.556294"
       y2="31.206570"
       gradientUnits="userSpaceOnUse" />
    <linearGradient
       inkscape:collect="always"
       xlink:href="#garylighttowite"
       id="linearGradient2474"
       gradientUnits="userSpaceOnUse"
       gradientTransform="matrix(1.544634,0.000000,0.000000,0.884541,14.02922,7.355745)"
       x1="14.699177"
       y1="30.518322"
       x2="-0.95806932"
       y2="6.8631005" />
    <linearGradient
       inkscape:collect="always"
       xlink:href="#bluelightlesstoblue"
       id="linearGradient2473"
       gradientUnits="userSpaceOnUse"
       gradientTransform="matrix(1.825601,0.000000,0.000000,1.045399,-23.25852,36.18725)"
       x1="24.260241"
       y1="-11.936115"
       x2="37.231518"
       y2="3.0705032" />
    <radialGradient
       inkscape:collect="always"
       xlink:href="#light75to0"
       id="radialGradient6174"
       gradientTransform="matrix(1.193232,0.000000,0.000000,0.913293,-1.143705,5.214635)"
       cx="21.623133"
       cy="45.255077"
       fx="21.623133"
       fy="45.255077"
       r="29.246748"
       gradientUnits="userSpaceOnUse" />
    <linearGradient
       inkscape:collect="always"
       xlink:href="#light75to0"
       id="linearGradient2475"
       gradientUnits="userSpaceOnUse"
       gradientTransform="matrix(1.745631,0.000000,0.000000,0.892341,13.29717,5.760581)"
       x1="5.6831765"
       y1="21.673885"
       x2="14.964557"
       y2="41.796101" />
    <radialGradient
       inkscape:collect="always"
       xlink:href="#light75to0"
       id="radialGradient2477"
       gradientUnits="userSpaceOnUse"
       gradientTransform="matrix(0.970788,0.000000,0.000000,0.883349,24.61382,6.790338)"
       cx="17.741598"
       cy="31.723280"
       fx="17.741598"
       fy="31.723280"
       r="9.2936869" />
    <radialGradient
       inkscape:collect="always"
       xlink:href="#light75to0"
       id="radialGradient2479"
       gradientUnits="userSpaceOnUse"
       gradientTransform="matrix(0.970788,0.000000,0.000000,0.883349,58.35945,6.790338)"
       cx="17.741598"
       cy="31.723280"
       fx="17.741598"
       fy="31.723280"
       r="9.2936869" />
    <linearGradient
       id="linearGradient2485">
      <stop
         offset="0.0000000"
         style="stop-color:#00ad01;stop-opacity:1.0000000;"
         id="stop2487" />
      <stop
         offset="1.0000000"
         style="stop-color:#15720f;stop-opacity:1.0000000;"
         id="stop2486" />
    </linearGradient>
    <linearGradient
       id="linearGradient2492">
      <stop
         offset="0.0000000"
         style="stop-color:#00ff01;stop-opacity:1.0000000;"
         id="stop2494" />
      <stop
         offset="1.0000000"
         style="stop-color:#15980f;stop-opacity:1.0000000;"
         id="stop2493" />
    </linearGradient>
    <linearGradient
       inkscape:collect="always"
       xlink:href="#XMLID_1_"
       id="linearGradient1115"
       gradientUnits="userSpaceOnUse"
       x1="100.6055"
       y1="37.1133"
       x2="100.6055"
       y2="139.7401" />
    <linearGradient
       inkscape:collect="always"
       xlink:href="#light100to0"
       id="linearGradient1114"
       gradientUnits="userSpaceOnUse"
       x1="146.38470"
       y1="64.407753"
       x2="307.07626"
       y2="436.28043"
       gradientTransform="matrix(0.115780,-4.398047e-2,4.742532e-2,0.127424,24.05496,6.328001)" />
    <linearGradient
       id="redtodarkred">
      <stop
         style="stop-color:#ff0000;stop-opacity:1.0000000;"
         offset="0.0000000"
         id="stop3856" />
      <stop
         style="stop-color:#920000;stop-opacity:1.0000000;"
         offset="1.0000000"
         id="stop3855" />
    </linearGradient>
    <linearGradient
       inkscape:collect="always"
       xlink:href="#redtodarkred"
       id="linearGradient1113"
       gradientUnits="userSpaceOnUse"
       gradientTransform="matrix(0.112841,-4.286394e-2,4.411714e-2,0.118535,24.75909,6.931387)"
       x1="-110.52393"
       y1="27.161866"
       x2="439.44683"
       y2="461.30772" />
    <radialGradient
       inkscape:collect="always"
       xlink:href="#orangelesstoyelow"
       id="radialGradient1112"
       gradientUnits="userSpaceOnUse"
       spreadMethod="reflect"
       cx="186.75356"
       cy="103.61057"
       fx="189.43584"
       fy="25.390987"
       r="117.68623"
       gradientTransform="matrix(0.112130,-4.259381e-2,4.439693e-2,0.119287,24.75909,6.931387)" />
    <linearGradient
       id="XMLID_1_"
       gradientUnits="userSpaceOnUse"
       x1="100.6055"
       y1="37.1133"
       x2="100.6055"
       y2="139.7401">
      <stop
         offset="0"
         style="stop-color:#FFA700"
         id="stop9" />
      <stop
         offset="0.691"
         style="stop-color:#FFFF00"
         id="stop11" />
      <stop
         offset="0.792"
         style="stop-color:#FFFC00"
         id="stop13" />
      <stop
         offset="0.8546"
         style="stop-color:#FFF400"
         id="stop15" />
      <stop
         offset="0.9067"
         style="stop-color:#FFE500"
         id="stop17" />
      <stop
         offset="0.953"
         style="stop-color:#FFD100"
         id="stop19" />
      <stop
         offset="0.9952"
         style="stop-color:#FFB700"
         id="stop21" />
      <stop
         offset="1"
         style="stop-color:#FFB300"
         id="stop23" />
      <midPointStop
         offset="0"
         style="stop-color:#FFA700"
         id="midPointStop25" />
      <midPointStop
         offset="0.5"
         style="stop-color:#FFA700"
         id="midPointStop27" />
      <midPointStop
         offset="0.691"
         style="stop-color:#FFFF00"
         id="midPointStop29" />
      <midPointStop
         offset="0.7952"
         style="stop-color:#FFFF00"
         id="midPointStop31" />
      <midPointStop
         offset="1"
         style="stop-color:#FFB300"
         id="midPointStop33" />
    </linearGradient>
    <linearGradient
       inkscape:collect="always"
       xlink:href="#XMLID_1_"
       id="linearGradient1111"
       gradientUnits="userSpaceOnUse"
       x1="100.6055"
       y1="37.1133"
       x2="100.6055"
       y2="139.7401" />
    <linearGradient
       inkscape:collect="always"
       xlink:href="#light75to0"
       id="linearGradient10826"
       gradientUnits="userSpaceOnUse"
       gradientTransform="matrix(1.338395,0.000000,0.000000,0.594171,48.42685,8.878676)"
       x1="5.6831765"
       y1="21.673885"
       x2="14.964557"
       y2="41.796101" />
    <radialGradient
       cx="38.797401"
       cy="112.96090"
       r="67.358803"
       fx="38.797401"
       fy="112.96090"
       id="bluelightlesstoblue"
       gradientUnits="userSpaceOnUse">
      <stop
         style="stop-color:#d9ffff;stop-opacity:1.0000000;"
         offset="0.0055999998"
         id="stop3468" />
      <stop
         style="stop-color:#6eaafe;stop-opacity:1.0000000;"
         offset="0.24089479"
         id="stop3469" />
      <stop
         style="stop-color:#0356fe;stop-opacity:1.0000000;"
         offset="1.0000000"
         id="stop3470" />
    </radialGradient>
    <linearGradient
       x1="-229.39058"
       y1="289.30027"
       x2="-203.84911"
       y2="289.30027"
       id="linearGradient3471"
       collect="always"
       xlink:href="#bluelightlesstoblue"
       gradientTransform="matrix(1.395481,0.000000,0.000000,0.716599,337.6102,-241.4638)"
       gradientUnits="userSpaceOnUse" />
    <radialGradient
       inkscape:collect="always"
       xlink:href="#light75to0"
       id="radialGradient3045"
       gradientUnits="userSpaceOnUse"
       gradientTransform="matrix(1.240403,0.000000,0.000000,0.604175,30.13336,40.27244)"
       cx="17.741598"
       cy="31.723280"
       fx="17.741598"
       fy="31.723280"
       r="9.2936869" />
    <linearGradient
       inkscape:collect="always"
       xlink:href="#light75to0"
       id="linearGradient3044"
       gradientUnits="userSpaceOnUse"
       gradientTransform="matrix(1.369847,0.000000,0.000000,0.612232,29.63072,39.03476)"
       x1="5.6831765"
       y1="21.673885"
       x2="14.964557"
       y2="41.796101" />
    <linearGradient
       inkscape:collect="always"
       xlink:href="#garylighttowite"
       id="linearGradient3043"
       gradientUnits="userSpaceOnUse"
       gradientTransform="matrix(1.244638,0.000000,0.000000,0.606608,30.07549,40.40008)"
       x1="14.699177"
       y1="30.518322"
       x2="-0.95806932"
       y2="6.8631005" />
    <linearGradient
       inkscape:collect="always"
       xlink:href="#greantodarkgrean"
       id="linearGradient3042"
       gradientUnits="userSpaceOnUse"
       gradientTransform="matrix(1.532913,0.000000,0.000000,0.747081,-47.75255,-170.5086)"
       x1="56.601124"
       y1="298.93405"
       x2="63.028267"
       y2="306.94720" />
    <radialGradient
       inkscape:collect="always"
       xlink:href="#light100to0"
       id="radialGradient3236"
       gradientUnits="userSpaceOnUse"
       gradientTransform="matrix(1.183667,0.000000,0.000000,0.844832,9.075085,1.360711)"
       cx="54.280910"
       cy="89.387924"
       fx="54.280910"
       fy="89.387924"
       r="28.933352" />
    <linearGradient
       id="greantodarkgrean">
      <stop
         style="stop-color:#00ff01;stop-opacity:1.0000000;"
         offset="0.0000000"
         id="stop5123" />
      <stop
         style="stop-color:#15980f;stop-opacity:1.0000000;"
         offset="1.0000000"
         id="stop5124" />
    </linearGradient>
    <radialGradient
       inkscape:collect="always"
       xlink:href="#light75to0"
       id="radialGradient3221"
       gradientUnits="userSpaceOnUse"
       gradientTransform="matrix(1.203711,0.000000,0.000000,0.879056,-2.918355,34.98033)"
       cx="17.741598"
       cy="31.723280"
       fx="17.741598"
       fy="31.723280"
       r="9.2936869" />
    <linearGradient
       inkscape:collect="always"
       xlink:href="#light75to0"
       id="linearGradient3220"
       gradientUnits="userSpaceOnUse"
       gradientTransform="matrix(1.329326,0.000000,0.000000,0.890778,-3.384055,33.11930)"
       x1="5.6831765"
       y1="21.673885"
       x2="14.964557"
       y2="41.796101" />
    <linearGradient
       inkscape:collect="always"
       xlink:href="#garylighttowite"
       id="linearGradient3219"
       gradientUnits="userSpaceOnUse"
       gradientTransform="matrix(1.207819,0.000000,0.000000,0.882596,-2.952275,35.10580)"
       x1="14.699177"
       y1="30.518322"
       x2="-0.95806932"
       y2="6.8631005" />
    <linearGradient
       inkscape:collect="always"
       xlink:href="#garylighttowite"
       id="linearGradient3218"
       gradientUnits="userSpaceOnUse"
       gradientTransform="matrix(1.207841,0.000000,0.000000,0.882581,-2.952275,35.10580)"
       x1="22.979046"
       y1="53.585712"
       x2="6.4564261"
       y2="20.178543" />
    <radialGradient
       inkscape:collect="always"
       xlink:href="#light75to0"
       id="radialGradient3217"
       gradientUnits="userSpaceOnUse"
       gradientTransform="matrix(1.203711,0.000000,0.000000,0.879056,-2.378615,21.46541)"
       cx="17.741598"
       cy="31.723280"
       fx="17.741598"
       fy="31.723280"
       r="9.2936869" />
    <linearGradient
       inkscape:collect="always"
       xlink:href="#light75to0"
       id="linearGradient3216"
       gradientUnits="userSpaceOnUse"
       gradientTransform="matrix(1.329326,0.000000,0.000000,0.890778,-3.384055,19.25566)"
       x1="5.6831765"
       y1="21.673885"
       x2="14.964557"
       y2="41.796101" />
    <linearGradient
       inkscape:collect="always"
       xlink:href="#garylighttowite"
       id="linearGradient3215"
       gradientUnits="userSpaceOnUse"
       gradientTransform="matrix(1.207819,0.000000,0.000000,0.882596,-2.952275,21.24218)"
       x1="14.699177"
       y1="30.518322"
       x2="-0.95806932"
       y2="6.8631005" />
    <linearGradient
       inkscape:collect="always"
       xlink:href="#garylighttowite"
       id="linearGradient3214"
       gradientUnits="userSpaceOnUse"
       gradientTransform="matrix(1.207841,0.000000,0.000000,0.882581,-2.952275,21.24218)"
       x1="22.979046"
       y1="53.585712"
       x2="6.4564261"
       y2="20.178543" />
    <linearGradient
       id="bludraktowhite"
       gradientUnits="userSpaceOnUse"
       x1="33.332001"
       y1="10.305200"
       x2="33.332001"
       y2="91.407700">
      <stop
         offset="0"
         style="stop-color:rgb(255,255,255)"
         id="stop7271" />
      <stop
         offset="1"
         style="stop-color:rgb(84,84,119)"
         id="stop7273" />
    </linearGradient>
    <linearGradient
       id="light75to0">
      <stop
         style="stop-color:#ffffff;stop-opacity:0.72916669;"
         offset="0.0000000"
         id="stop2769" />
      <stop
         style="stop-color:#ffffff;stop-opacity:0.0000000;"
         offset="1.0000000"
         id="stop2770" />
    </linearGradient>
    <linearGradient
       id="greandarktobgrean">
      <stop
         style="stop-color:#00ad01;stop-opacity:1.0000000;"
         offset="0.0000000"
         id="stop4492" />
      <stop
         style="stop-color:#15720f;stop-opacity:1.0000000;"
         offset="1.0000000"
         id="stop4493" />
    </linearGradient>
    <linearGradient
       inkscape:collect="always"
       xlink:href="#blacktowhite"
       id="linearGradient3197"
       gradientUnits="userSpaceOnUse"
       gradientTransform="matrix(1.110537,0.000000,0.000000,0.900466,9.075085,1.360711)"
       x1="55.349602"
       y1="93.603699"
       x2="-12.340737"
       y2="-5.2496204" />
    <linearGradient
       id="garylighttowite">
      <stop
         style="stop-color:#7d7d7d;stop-opacity:1.0000000;"
         offset="0.0000000"
         id="stop5106" />
      <stop
         style="stop-color:#d3d4d4;stop-opacity:1.0000000;"
         offset="1.0000000"
         id="stop5107" />
    </linearGradient>
    <linearGradient
       inkscape:collect="always"
       xlink:href="#blacktowhite"
       id="linearGradient3196"
       gradientUnits="userSpaceOnUse"
       gradientTransform="matrix(1.110537,0.000000,0.000000,0.900466,9.075085,1.360711)"
       x1="42.188053"
       y1="79.266365"
       x2="-16.667776"
       y2="11.102478" />
    <linearGradient
       id="graytolightgray">
      <stop
         style="stop-color:#d4d3d3;stop-opacity:1.0000000;"
         offset="0.0000000"
         id="stop5101" />
      <stop
         style="stop-color:#ffffff;stop-opacity:1.0000000;"
         offset="1.0000000"
         id="stop5102" />
    </linearGradient>
    <linearGradient
       id="linearGradient10759">
      <stop
         style="stop-color:#00ff01;stop-opacity:1.0000000;"
         offset="0.0000000"
         id="stop10760" />
      <stop
         style="stop-color:#15980f;stop-opacity:1.0000000;"
         offset="1.0000000"
         id="stop10761" />
    </linearGradient>
    <linearGradient
       id="linearGradient10755">
      <stop
         style="stop-color:#00ad01;stop-opacity:1.0000000;"
         offset="0.0000000"
         id="stop10756" />
      <stop
         style="stop-color:#15720f;stop-opacity:1.0000000;"
         offset="1.0000000"
         id="stop10757" />
    </linearGradient>
    <linearGradient
       id="light100to0">
      <stop
         style="stop-color:#ffffff;stop-opacity:1.0000000;"
         offset="0.0000000"
         id="stop2764" />
      <stop
         style="stop-color:#ffffff;stop-opacity:0.0000000;"
         offset="1.0000000"
         id="stop2765" />
    </linearGradient>
    <linearGradient
       inkscape:collect="always"
       xlink:href="#light75to0"
       id="linearGradient10829"
       gradientUnits="userSpaceOnUse"
       gradientTransform="matrix(1.960304,0.000000,0.000000,0.841475,40.58947,4.210187)"
       x1="5.6831765"
       y1="21.673885"
       x2="14.964557"
       y2="41.796101" />
    <linearGradient
       inkscape:collect="always"
       xlink:href="#bluelightlesstoblue"
       id="linearGradient10830"
       gradientUnits="userSpaceOnUse"
       gradientTransform="matrix(2.050104,0.000000,0.000000,0.985807,-0.461743,32.90243)"
       x1="24.260241"
       y1="-11.936115"
       x2="37.231518"
       y2="3.0705032" />
    <linearGradient
       inkscape:collect="always"
       xlink:href="#garylighttowite"
       id="linearGradient10831"
       gradientUnits="userSpaceOnUse"
       gradientTransform="matrix(1.734590,0.000000,0.000000,0.834118,41.41153,5.714414)"
       x1="14.699177"
       y1="30.518322"
       x2="-0.95806932"
       y2="6.8631005" />
    <linearGradient
       inkscape:collect="always"
       xlink:href="#light75to0"
       id="linearGradient10835"
       gradientUnits="userSpaceOnUse"
       gradientTransform="matrix(1.237240,0.000000,0.000000,0.841525,-1.177435,4.038894)"
       x1="5.6831765"
       y1="21.673885"
       x2="14.964557"
       y2="41.796101" />
    <linearGradient
       inkscape:collect="always"
       xlink:href="#bluelightlesstoblue"
       id="linearGradient10836"
       gradientUnits="userSpaceOnUse"
       gradientTransform="matrix(1.644541,0.000000,0.000000,1.219732,0.232136,33.09053)"
       x1="2.4107552"
       y1="-9.3231096"
       x2="30.756163"
       y2="17.801140" />
    <linearGradient
       inkscape:collect="always"
       xlink:href="#garylighttowite"
       id="linearGradient10837"
       gradientUnits="userSpaceOnUse"
       gradientTransform="matrix(1.124151,0.000000,0.000000,0.833795,-0.775703,5.915553)"
       x1="14.699177"
       y1="30.518322"
       x2="-0.95806932"
       y2="6.8631005" />
    <linearGradient
       inkscape:collect="always"
       xlink:href="#garylighttowite"
       id="linearGradient13331"
       gradientUnits="userSpaceOnUse"
       gradientTransform="matrix(1.208721,0.000000,0.000000,0.894463,-3.293255,48.54284)"
       x1="22.979046"
       y1="53.585712"
       x2="6.4564261"
       y2="20.178543" />
    <linearGradient
       inkscape:collect="always"
       xlink:href="#garylighttowite"
       id="linearGradient13332"
       gradientUnits="userSpaceOnUse"
       gradientTransform="matrix(1.208699,0.000000,0.000000,0.894476,-3.293255,48.54284)"
       x1="14.699177"
       y1="30.518322"
       x2="-0.95806932"
       y2="6.8631005" />
    <linearGradient
       inkscape:collect="always"
       xlink:href="#light75to0"
       id="linearGradient13333"
       gradientUnits="userSpaceOnUse"
       gradientTransform="matrix(1.330293,0.000000,0.000000,0.902767,-3.725355,46.52955)"
       x1="5.6831765"
       y1="21.673885"
       x2="14.964557"
       y2="41.796101" />
    <radialGradient
       inkscape:collect="always"
       xlink:href="#light75to0"
       id="radialGradient13334"
       gradientUnits="userSpaceOnUse"
       gradientTransform="matrix(1.204589,0.000000,0.000000,0.890886,-3.473415,48.22953)"
       cx="17.741598"
       cy="31.723280"
       fx="17.741598"
       fy="31.723280"
       r="9.2936869" />
    <linearGradient
       x1="112.83246"
       y1="26.413313"
       x2="122.91101"
       y2="48.426991"
       id="linearGradient8535"
       xlink:href="#light100to0"
       gradientUnits="userSpaceOnUse"
       gradientTransform="matrix(0.317347,0.000000,0.000000,0.142307,7.750154,1.021211)" />
    <linearGradient
       id="linearGradient1968">
      <stop
         style="stop-color:#ffffff;stop-opacity:1.0000000;"
         offset="0.0000000"
         id="stop1969" />
      <stop
         style="stop-color:#ffffff;stop-opacity:0.0000000;"
         offset="1.0000000"
         id="stop1970" />
    </linearGradient>
    <linearGradient
       x1="63.510639"
       y1="263.33130"
       x2="48.348915"
       y2="299.38031"
       id="linearGradient6667"
       xlink:href="#blacktowhite"
       gradientUnits="userSpaceOnUse"
       gradientTransform="matrix(0.183056,0.000000,0.000000,0.265558,6.081840,0.841974)" />
    <linearGradient
       id="blacktowhite">
      <stop
         style="stop-color:#000000;stop-opacity:1.0000000;"
         offset="0.0000000"
         id="stop2476" />
      <stop
         style="stop-color:#ffffff;stop-opacity:1.0000000;"
         offset="1.0000000"
         id="stop2475" />
    </linearGradient>
    <linearGradient
       x1="55.499844"
       y1="94.234268"
       x2="113.51736"
       y2="-2.7694037"
       id="linearGradient1664"
       xlink:href="#orangetoyelow"
       gradientUnits="userSpaceOnUse"
       gradientTransform="matrix(0.988165,0.000000,0.000000,1.059038,-51.61257,-0.295980)" />
    <linearGradient
       id="orangetoyelow">
      <stop
         style="stop-color:#ff7d00;stop-opacity:1.0000000;"
         offset="0.0000000"
         id="stop2661" />
      <stop
         style="stop-color:#ffff00;stop-opacity:1.0000000;"
         offset="1.0000000"
         id="stop2662" />
    </linearGradient>
    <linearGradient
       x1="75.064339"
       y1="65.623413"
       x2="140.15146"
       y2="-37.592434"
       id="linearGradient1663"
       xlink:href="#orangetoyelow"
       gradientUnits="userSpaceOnUse"
       gradientTransform="matrix(0.988165,0.000000,0.000000,1.059038,-51.61257,-0.295980)" />
    <linearGradient
       x1="58.404800"
       y1="80.526398"
       x2="86.264603"
       y2="19.952200"
       id="linearGradient1662"
       xlink:href="#orangelesstoyelow"
       gradientUnits="userSpaceOnUse"
       gradientTransform="matrix(0.988165,0.000000,0.000000,1.059038,-51.61257,-0.295980)" />
    <linearGradient
       id="orangelesstoyelow">
      <stop
         style="stop-color:#ff7d00;stop-opacity:1.0000000;"
         offset="0.0000000"
         id="stop2689" />
      <stop
         style="stop-color:#ffbe00;stop-opacity:1.0000000;"
         offset="0.25358382"
         id="stop2690" />
      <stop
         style="stop-color:#ffff00;stop-opacity:1.0000000;"
         offset="1.0000000"
         id="stop2691" />
    </linearGradient>
    <linearGradient
       x1="68.581657"
       y1="9.0542183"
       x2="122.31405"
       y2="0.95772386"
       id="linearGradient1661"
       xlink:href="#orangetoblackorange"
       gradientUnits="userSpaceOnUse"
       gradientTransform="matrix(0.901330,0.434111,-0.405060,0.965975,-51.61257,-0.295980)" />
    <linearGradient
       id="orangetoblackorange">
      <stop
         style="stop-color:#ff8b00;stop-opacity:1.0000000;"
         offset="0.0000000"
         id="stop4207" />
      <stop
         style="stop-color:#4d0200;stop-opacity:1.0000000;"
         offset="1.0000000"
         id="stop4209" />
    </linearGradient>
    <linearGradient
       x1="54.536720"
       y1="96.837074"
       x2="91.471153"
       y2="66.370918"
       id="linearGradient12328"
       xlink:href="#shadow100to0"
       gradientUnits="userSpaceOnUse"
       gradientTransform="scale(1.373223,0.728214)" />
    <linearGradient
       id="shadow100to0">
      <stop
         style="stop-color:#000000;stop-opacity:1.0000000;"
         offset="0.0000000"
         id="stop3425" />
      <stop
         style="stop-color:#000000;stop-opacity:0.0000000;"
         offset="1.0000000"
         id="stop3426" />
    </linearGradient>
    <linearGradient
       x1="54.536720"
       y1="96.837074"
       x2="91.471153"
       y2="66.370918"
       id="linearGradient13579"
       xlink:href="#shadow100to0"
       gradientUnits="userSpaceOnUse"
       gradientTransform="scale(1.373223,0.728214)" />
    <linearGradient
       inkscape:collect="always"
       xlink:href="#linearGradient10759"
       id="linearGradient1196"
       gradientUnits="userSpaceOnUse"
       gradientTransform="matrix(1.960304,0.000000,0.000000,0.841475,39.86271,18.22367)"
       x1="5.6831765"
       y1="21.673885"
       x2="14.964557"
       y2="41.796101" />
    <linearGradient
       inkscape:collect="always"
       xlink:href="#linearGradient10759"
       id="linearGradient1197"
       gradientUnits="userSpaceOnUse"
       gradientTransform="scale(1.442089,0.693439)"
       x1="34.606571"
       y1="52.457546"
       x2="46.673492"
       y2="60.722466" />
    <linearGradient
       inkscape:collect="always"
       xlink:href="#garylighttowite"
       id="linearGradient1198"
       gradientUnits="userSpaceOnUse"
       gradientTransform="matrix(1.734590,0.000000,0.000000,0.834118,40.68477,19.72790)"
       x1="14.699177"
       y1="30.518322"
       x2="-0.95806932"
       y2="6.8631005" />
    <radialGradient
       inkscape:collect="always"
       xlink:href="#light75to0"
       id="radialGradient1824"
       gradientUnits="userSpaceOnUse"
       gradientTransform="matrix(1.121144,0.000000,0.000000,0.841627,52.10090,18.96377)"
       cx="17.741598"
       cy="31.723280"
       fx="17.741598"
       fy="31.723280"
       r="9.2936869" />
  </defs>
  <sodipodi:namedview
     id="base"
     pagecolor="#ffffff"
     bordercolor="#666666"
     borderopacity="1.0"
     inkscape:pageopacity="0.0"
     inkscape:pageshadow="2"
     inkscape:zoom="5.5000000"
     inkscape:cx="20.670355"
     inkscape:cy="26.994607"
     inkscape:current-layer="layer1"
     showgrid="true"
     inkscape:grid-bbox="true"
     gridspacingy="1.0000000pt"
     gridspacingx="1.0000000pt"
     gridoriginy="0.0000000pt"
     gridoriginx="0.0000000pt"
     inkscape:window-width="640"
     inkscape:window-height="538"
     inkscape:window-x="0"
     inkscape:window-y="269" />
  <metadata
     id="metadata4">
    <rdf:RDF
       id="RDF5">
      <cc:Work
         rdf:about=""
         id="Work6">
        <dc:format
           id="format7">image/svg+xml</dc:format>
        <dc:type
           id="type9"
           rdf:resource="http://purl.org/dc/dcmitype/StillImage" />
      </cc:Work>
    </rdf:RDF>
  </metadata>
  <g
     id="layer1"
     inkscape:label="Layer 1"
     inkscape:groupmode="layer">
    <path
       style="fill:url(#linearGradient4310);fill-opacity:1.0000000;stroke:#000000;stroke-width:1.7973737;stroke-linecap:round;stroke-linejoin:round;stroke-miterlimit:4.0000000;stroke-dashoffset:0.0000000;stroke-opacity:0.53688526"
       d="M 3.1158703,23.165564 L 77.307022,23.165564 C 78.448102,23.165564 79.366717,23.950342 79.366717,24.925167 L 79.366717,77.341710 C 79.366717,78.316537 78.448102,79.101313 77.307022,79.101313 L 3.1158703,79.101313 C 1.9748002,79.101313 1.0561806,78.316537 1.0561806,77.341710 L 1.0561806,24.925167 C 1.0561806,23.950342 1.9748002,23.165564 3.1158703,23.165564 z "
       id="rect10003" />
    <path
       style="fill:none;fill-opacity:1.0000000;fill-rule:evenodd;stroke:url(#linearGradient3196);stroke-width:1.4801514;stroke-linecap:butt;stroke-linejoin:round;stroke-miterlimit:4.0000000;stroke-opacity:1.0000000"
       d="M 78.028997,36.920670 L 2.2957554,37.350941 L 1.9347263,51.090951 L 78.028997,50.703210 L 78.028997,36.920670 z M 78.028997,64.145445 L 2.2957554,64.575730 L 1.9347263,78.315724 L 78.028997,77.927985 L 78.028997,64.145445 z "
       id="path6216"
       sodipodi:nodetypes="cccccccccc" />
    <path
       style="fill:none;fill-opacity:1.0000000;fill-rule:evenodd;stroke:url(#linearGradient3197);stroke-width:1.6300399;stroke-linecap:butt;stroke-linejoin:round;stroke-miterlimit:4.0000000;stroke-opacity:1.0000000"
       d="M 20.495668,36.363405 L 20.893095,78.109760 L 44.209042,78.156552 L 44.054301,35.621946 L 20.495668,36.363405 z M 77.900549,36.635324 L 78.003701,77.666063 L 77.900549,36.635324 z "
       id="path6220"
       sodipodi:nodetypes="cccccccc" />
    <path
       style="fill:url(#linearGradient10836);fill-opacity:1.0000000;stroke:url(#linearGradient10837);stroke-width:1.9089957;stroke-linecap:round;stroke-linejoin:round;stroke-miterlimit:4.0000000;stroke-dashoffset:0.0000000;stroke-opacity:1.0000000"
       d="M 3.9569859,24.363917 L 19.424266,24.363917 C 20.044991,24.363917 20.544699,25.277194 20.544699,26.411603 L 20.544699,34.058715 C 20.544699,35.193140 20.044991,36.106402 19.424266,36.106402 L 3.9569859,36.106402 C 3.3362613,36.106402 2.8365543,35.193140 2.8365543,34.058715 L 2.8365543,26.411603 C 2.8365543,25.277194 3.3362613,24.363917 3.9569859,24.363917 z "
       id="rect1090" />
    <path
       style="fill:url(#linearGradient10835);fill-opacity:1.0000000;fill-rule:evenodd;stroke:none;stroke-width:0.012500000;stroke-linecap:butt;stroke-linejoin:miter;stroke-miterlimit:4.0000000;stroke-opacity:1.0000000"
       d="M 3.1150968,31.194715 C 3.1170576,30.376651 3.1190338,29.558587 3.1210102,28.740539 C 3.1229708,27.922474 3.1249472,27.104409 3.1269236,26.286346 C 3.1165200,25.397120 3.2817607,24.855129 3.7413237,24.800433 C 5.2652364,24.792140 6.7891651,24.783860 8.3130772,24.775582 C 9.8370067,24.767303 11.360919,24.759025 12.884833,24.750729 C 12.816955,27.384399 6.2979012,26.843021 5.3884359,26.997938 C 3.7202477,27.282090 4.9601155,30.232133 3.1150968,31.194715 z "
       id="path3587" />
    <path
       style="fill:url(#linearGradient10830);fill-opacity:1.0000000;stroke:url(#linearGradient10831);stroke-width:2.0799649;stroke-linecap:round;stroke-linejoin:round;stroke-miterlimit:4.0000000;stroke-dashoffset:0.0000000;stroke-opacity:1.0000000"
       d="M 46.392571,24.159267 L 75.536563,24.159267 C 76.706150,24.159267 77.647717,25.072884 77.647717,26.207752 L 77.647717,33.857828 C 77.647717,34.992695 76.706150,35.906314 75.536563,35.906314 L 46.392571,35.906314 C 45.222984,35.906314 44.281391,34.992695 44.281391,33.857828 L 44.281391,26.207752 C 44.281391,25.072884 45.222984,24.159267 46.392571,24.159267 z "
       id="rect6086" />
    <path
       style="fill:url(#linearGradient2473);fill-opacity:1.0000000;stroke:url(#linearGradient2474);stroke-width:1.7322725;stroke-linecap:round;stroke-linejoin:round;stroke-miterlimit:4.0000000;stroke-dashoffset:0.0000000;stroke-opacity:1.0000000"
       d="M 22.341118,24.098406 L 42.348602,24.098406 C 43.151529,24.098406 43.797917,25.021491 43.797917,26.168117 L 43.797917,33.897463 C 43.797917,35.044089 43.151529,35.967174 42.348602,35.967174 L 22.341118,35.967174 C 21.538192,35.967174 20.891784,35.044089 20.891784,33.897463 L 20.891784,26.168117 C 20.891784,25.021491 21.538192,24.098406 22.341118,24.098406 z "
       id="path2471" />
    <path
       style="fill:url(#radialGradient2477);fill-opacity:1.0000000;stroke:none;stroke-width:1.4875000;stroke-linecap:round;stroke-linejoin:round;stroke-miterlimit:4.0000000;stroke-dashoffset:0.0000000;stroke-opacity:1.0000000"
       d="M 29.828145,23.528674 L 42.445513,23.528674 C 42.951872,23.528674 43.359496,24.454245 43.359496,25.603923 L 43.359496,33.353962 C 43.359496,34.503651 42.951872,35.429206 42.445513,35.429206 L 29.828145,35.429206 C 29.321791,35.429206 28.914158,34.503651 28.914158,33.353962 L 28.914158,25.603923 C 28.914158,24.454245 29.321791,23.528674 29.828145,23.528674 z "
       id="path2476" />
    <path
       style="fill:url(#linearGradient10829);fill-opacity:1.0000000;fill-rule:evenodd;stroke:none;stroke-width:0.012500000;stroke-linecap:butt;stroke-linejoin:miter;stroke-miterlimit:4.0000000;stroke-opacity:1.0000000"
       d="M 44.847711,31.373064 C 44.851531,30.555050 44.855336,29.737032 44.859148,28.919017 C 44.862967,28.100999 44.866778,27.282983 44.870615,26.464966 C 44.850485,25.575793 45.170194,25.033832 46.059332,24.979142 C 49.007790,24.970864 51.956217,24.962586 54.904668,24.954290 C 57.853118,24.946014 60.801549,24.937733 63.750000,24.929456 C 63.618684,27.562957 51.005756,27.021625 49.246107,27.176532 C 46.018544,27.460653 48.417408,30.410524 44.847711,31.373064 z "
       id="path6087" />
    <path
       style="fill:url(#linearGradient2475);fill-opacity:1.0000000;fill-rule:evenodd;stroke:none;stroke-width:0.012500000;stroke-linecap:butt;stroke-linejoin:miter;stroke-miterlimit:4.0000000;stroke-opacity:1.0000000"
       d="M 21.280566,31.386950 C 21.283186,30.560461 21.285798,29.733968 21.288419,28.907476 C 21.291039,28.080979 21.293654,27.254492 21.296286,26.427995 C 21.282470,25.529609 21.501951,24.982029 22.112348,24.926776 C 24.136479,24.918411 26.160588,24.910051 28.184709,24.901668 C 30.208834,24.893307 32.232944,24.884938 34.257072,24.876575 C 34.166924,27.537364 25.508091,26.990426 24.300084,27.146934 C 22.084349,27.434003 23.731180,30.414440 21.280566,31.386950 z "
       id="path2472" />
    <path
       style="fill:url(#radialGradient2479);fill-opacity:1.0000000;stroke:none;stroke-width:1.4875000;stroke-linecap:round;stroke-linejoin:round;stroke-miterlimit:4.0000000;stroke-dashoffset:0.0000000;stroke-opacity:1.0000000"
       d="M 63.573773,23.528674 L 76.191141,23.528674 C 76.697500,23.528674 77.105124,24.454245 77.105124,25.603923 L 77.105124,33.353962 C 77.105124,34.503651 76.697500,35.429206 76.191141,35.429206 L 63.573773,35.429206 C 63.067419,35.429206 62.659786,34.503651 62.659786,33.353962 L 62.659786,25.603923 C 62.659786,24.454245 63.067419,23.528674 63.573773,23.528674 z "
       id="path2478" />
    <path
       style="fill:url(#radialGradient3236);fill-opacity:1.0000000;stroke:none;stroke-width:1.6250000;stroke-linecap:round;stroke-linejoin:round;stroke-miterlimit:4.0000000;stroke-dashoffset:0.0000000;stroke-opacity:0.31249997"
       d="M 17.002178,34.316421 L 77.411421,34.316421 C 78.340524,34.316421 79.088512,34.947328 79.088512,35.730997 L 79.088512,77.869596 C 79.088512,78.653274 78.340524,79.284172 77.411421,79.284172 L 17.002178,79.284172 C 16.073073,79.284172 15.325085,78.653274 15.325085,77.869596 L 15.325085,35.730997 C 15.325085,34.947328 16.073073,34.316421 17.002178,34.316421 z "
       id="rect1799" />
    <path
       style="fill:url(#linearGradient3214);fill-opacity:1.0000000;stroke:url(#linearGradient3215);stroke-width:1.9280890;stroke-linecap:round;stroke-linejoin:round;stroke-miterlimit:4.0000000;stroke-dashoffset:0.0000000;stroke-opacity:1.0000000"
       d="M 3.5470508,37.948024 L 19.191799,37.948024 C 19.819646,37.948024 20.325085,38.869078 20.325085,40.013183 L 20.325085,47.725533 C 20.325085,48.869639 19.819646,49.790694 19.191799,49.790694 L 3.5470508,49.790694 C 2.9192043,49.790694 2.4137641,48.869639 2.4137641,47.725533 L 2.4137641,40.013183 C 2.4137641,38.869078 2.9192043,37.948024 3.5470508,37.948024 z "
       id="path6112" />
    <path
       style="fill:url(#linearGradient3216);fill-opacity:1.0000000;fill-rule:evenodd;stroke:none;stroke-width:0.012500000;stroke-linecap:butt;stroke-linejoin:miter;stroke-miterlimit:4.0000000;stroke-opacity:1.0000000"
       d="M 2.6955029,44.837111 C 2.6975013,44.012065 2.6994686,43.187021 2.7014681,42.361976 C 2.7034666,41.536930 2.7054661,40.711887 2.7074656,39.886841 C 2.6969426,38.990030 2.8640947,38.443413 3.3288978,38.388251 C 4.8703265,38.379902 6.4117229,38.371551 7.9531183,38.363187 C 9.4945148,38.354837 11.035927,38.346489 12.577323,38.338139 C 12.508667,40.994265 5.9148224,40.448283 4.9949075,40.604522 C 3.3075962,40.891081 4.5616733,43.866298 2.6955029,44.837111 z "
       id="path6113" />
    <path
       style="fill:url(#radialGradient3217);fill-opacity:1.0000000;stroke:none;stroke-width:1.4875000;stroke-linecap:round;stroke-linejoin:round;stroke-miterlimit:4.0000000;stroke-dashoffset:0.0000000;stroke-opacity:1.0000000"
       d="M 4.0868748,38.122323 L 19.731623,38.122323 C 20.359470,38.122323 20.864908,39.043380 20.864908,40.187483 L 20.864908,47.899833 C 20.864908,49.043939 20.359470,49.964993 19.731623,49.964993 L 4.0868748,49.964993 C 3.4590283,49.964993 2.9535881,49.043939 2.9535881,47.899833 L 2.9535881,40.187483 C 2.9535881,39.043380 3.4590283,38.122323 4.0868748,38.122323 z "
       id="path6114" />
    <path
       style="fill:url(#linearGradient3218);fill-opacity:1.0000000;stroke:url(#linearGradient3219);stroke-width:1.9280890;stroke-linecap:round;stroke-linejoin:round;stroke-miterlimit:4.0000000;stroke-dashoffset:0.0000000;stroke-opacity:1.0000000"
       d="M 3.5470508,51.811628 L 19.191799,51.811628 C 19.819646,51.811628 20.325085,52.732700 20.325085,53.876788 L 20.325085,61.589153 C 20.325085,62.733259 19.819646,63.654313 19.191799,63.654313 L 3.5470508,63.654313 C 2.9192043,63.654313 2.4137641,62.733259 2.4137641,61.589153 L 2.4137641,53.876788 C 2.4137641,52.732700 2.9192043,51.811628 3.5470508,51.811628 z "
       id="path6119" />
    <path
       style="fill:url(#linearGradient3220);fill-opacity:1.0000000;fill-rule:evenodd;stroke:none;stroke-width:0.012500000;stroke-linecap:butt;stroke-linejoin:miter;stroke-miterlimit:4.0000000;stroke-opacity:1.0000000"
       d="M 2.6955029,58.700715 C 2.6975013,57.875670 2.6994686,57.050623 2.7014681,56.225596 C 2.7034666,55.400551 2.7054661,54.575506 2.7074656,53.750461 C 2.6969426,52.853649 2.8640947,52.307031 3.3288978,52.251870 C 4.8703265,52.243505 6.4117229,52.235156 7.9531183,52.226808 C 9.4945148,52.218456 11.035927,52.210092 12.577323,52.201744 C 12.508667,54.857869 5.9148224,54.311888 4.9949075,54.468126 C 3.3075962,54.754685 4.5616733,57.729903 2.6955029,58.700715 z "
       id="path6120" />
    <path
       style="fill:url(#radialGradient3221);fill-opacity:1.0000000;stroke:none;stroke-width:1.4875000;stroke-linecap:round;stroke-linejoin:round;stroke-miterlimit:4.0000000;stroke-dashoffset:0.0000000;stroke-opacity:1.0000000"
       d="M 3.5470508,51.637329 L 19.191799,51.637329 C 19.819646,51.637329 20.325085,52.558398 20.325085,53.702487 L 20.325085,61.414853 C 20.325085,62.558957 19.819646,63.480013 19.191799,63.480013 L 3.5470508,63.480013 C 2.9192043,63.480013 2.4137641,62.558957 2.4137641,61.414853 L 2.4137641,53.702487 C 2.4137641,52.558398 2.9192043,51.637329 3.5470508,51.637329 z "
       id="path6121" />
    <path
       style="fill:url(#linearGradient13331);fill-opacity:1.0000000;stroke:url(#linearGradient13332);stroke-width:1.9417276;stroke-linecap:round;stroke-linejoin:round;stroke-miterlimit:4.0000000;stroke-dashoffset:0.0000000;stroke-opacity:1.0000000"
       d="M 3.2107902,65.473446 L 18.866926,65.473446 C 19.495228,65.473446 20.001037,66.406914 20.001037,67.566402 L 20.001037,75.382572 C 20.001037,76.542072 19.495228,77.475525 18.866926,77.475525 L 3.2107902,77.475525 C 2.5824870,77.475525 2.0766794,76.542072 2.0766794,75.382572 L 2.0766794,67.566402 C 2.0766794,66.406914 2.5824870,65.473446 3.2107902,65.473446 z "
       id="path13328" />
    <path
       style="fill:url(#linearGradient13333);fill-opacity:1.0000000;fill-rule:evenodd;stroke:none;stroke-width:0.012500000;stroke-linecap:butt;stroke-linejoin:miter;stroke-miterlimit:4.0000000;stroke-opacity:1.0000000"
       d="M 2.3586223,72.455254 C 2.3606229,71.619104 2.3625913,70.782958 2.3645919,69.946824 C 2.3665924,69.110674 2.3685930,68.274526 2.3705936,67.438373 C 2.3600631,66.529489 2.5273377,65.975515 2.9924792,65.919612 C 4.5350285,65.911132 6.0775467,65.902674 7.6200649,65.894214 C 9.1625830,65.885750 10.705117,65.877270 12.247635,65.868810 C 12.178930,68.560689 5.5802851,68.007354 4.6597009,68.165697 C 2.9711615,68.456113 4.2261508,71.471375 2.3586223,72.455254 z "
       id="path13329" />
    <path
       style="fill:url(#radialGradient13334);fill-opacity:1.0000000;stroke:none;stroke-width:1.4875000;stroke-linecap:round;stroke-linejoin:round;stroke-miterlimit:4.0000000;stroke-dashoffset:0.0000000;stroke-opacity:1.0000000"
       d="M 2.9967404,65.110711 L 18.652878,65.110711 C 19.281179,65.110711 19.786988,66.044180 19.786988,67.203668 L 19.786988,75.019838 C 19.786988,76.179337 19.281179,77.112790 18.652878,77.112790 L 2.9967404,77.112790 C 2.3684383,77.112790 1.8626297,76.179337 1.8626297,75.019838 L 1.8626297,67.203668 C 1.8626297,66.044180 2.3684383,65.110711 2.9967404,65.110711 z "
       id="path13330" />
    <path
       style="fill:url(#radialGradient6174);fill-opacity:1.0000000;fill-rule:evenodd;stroke:none;stroke-width:0.25000000pt;stroke-linecap:butt;stroke-linejoin:miter;stroke-opacity:1.0000000"
       d="M 1.4207412,63.740643 C 14.143729,65.354589 3.6048550,47.273195 13.518354,38.946270 C 26.070671,27.965945 55.496922,36.561840 54.532819,23.284242 C 37.382036,23.110521 20.402036,23.367186 3.2512803,23.193453 C 1.5879576,23.080255 1.4990168,23.360457 1.5808507,25.711898 C 1.5274811,38.388142 1.4741107,51.064388 1.4207412,63.740643 z "
       id="path21648"
       sodipodi:nodetypes="cccccc" />
    <g
       id="g6849"
       transform="translate(4.012993,-0.394441)">
      <path
         style="fill:url(#linearGradient10826);fill-opacity:1.0000000;fill-rule:evenodd;stroke:none;stroke-width:0.012500000;stroke-linecap:butt;stroke-linejoin:miter;stroke-miterlimit:4.0000000;stroke-opacity:1.0000000"
         d="M 54.547767,25.942079 C 54.549774,25.391755 54.551781,24.841430 54.553789,24.291116 C 54.555796,23.740791 54.557803,23.190466 54.559821,22.640142 C 54.549228,22.041946 54.717506,21.677340 55.185506,21.640546 C 56.737427,21.634966 58.289338,21.629397 59.841259,21.623827 C 61.393181,21.618258 62.945091,21.612689 64.497013,21.607109 C 64.427891,23.378819 57.789063,23.014626 56.862869,23.118841 C 55.164035,23.309994 56.426681,25.294535 54.547767,25.942079 z "
         id="path6094" />
      <path
         d="M 100.83400,121.62900 C 100.42400,121.95300 99.773000,122.31300 98.885000,122.33600 C 99.774000,122.31500 100.42400,121.99200 100.83400,121.69900 C 101.47700,121.24200 102.36700,120.23400 102.32600,118.30300 C 102.24400,120.16000 101.43000,121.15600 100.83400,121.62900 z "
         id="path1106"
         style="fill:url(#linearGradient1111)"
         transform="matrix(0.331908,-0.126079,0.135633,0.364424,29.24700,6.229417)" />
      <path
         d="M 73.712970,12.414768 C 73.470522,12.097479 72.888260,11.616241 71.715644,11.961260 L 59.296136,15.646292 C 58.585458,15.857012 57.475196,15.499183 56.965044,14.893331 L 48.097450,4.3581954 C 47.259156,3.3670473 46.544686,3.4302136 46.191453,3.5555351 C 45.839126,3.6801006 45.251631,4.0830198 45.269867,5.3656242 L 45.459955,18.977977 C 45.470057,19.771457 44.867706,20.723976 44.171684,21.013101 L 32.236548,25.983684 C 31.111256,26.444211 30.981916,27.174165 31.005009,27.568520 C 31.028099,27.962876 31.244953,28.691107 32.431451,29.139026 L 44.964036,33.866337 C 45.692319,34.145498 46.413223,35.087879 46.500743,35.881316 L 47.985640,49.477037 C 48.127353,50.757938 48.763860,51.146923 49.130130,51.265624 C 49.498148,51.383685 50.220784,51.431770 50.935918,50.423921 L 58.494016,39.739703 C 58.935798,39.113071 59.982748,38.739246 60.735570,38.939166 L 73.589392,42.383347 C 74.802718,42.709298 75.324218,42.218028 75.527524,41.896354 C 75.730820,41.574679 75.959330,40.875211 75.214252,39.807986 L 67.350288,28.471886 C 66.900204,27.822005 66.826682,26.634147 67.196038,25.979075 L 73.660626,14.505209 C 74.268998,13.424387 73.955418,12.732055 73.712970,12.414768 z "
         id="path1816"
         style="fill:#000000;fill-opacity:0.099999972;stroke:none;stroke-width:0.33090088;stroke-linejoin:round;stroke-miterlimit:4.0000000;stroke-opacity:0.087499984" />
      <path
         d="M 72.770985,9.3366379 C 72.540872,9.0247404 71.988244,8.5516792 70.875309,8.8908358 L 59.087836,12.513253 C 58.413324,12.720393 57.359569,12.368644 56.875378,11.773087 L 48.459058,1.4169591 C 47.663427,0.44265243 46.985317,0.50474570 46.650059,0.62793733 C 46.315663,0.75038630 45.758065,1.1464594 45.775373,2.4072701 L 45.955788,15.788328 C 45.965376,16.568326 45.393679,17.504660 44.733078,17.788872 L 33.405331,22.674997 C 32.337307,23.127699 32.214549,23.845250 32.236465,24.232905 C 32.258382,24.620560 32.464200,25.336417 33.590315,25.776726 L 45.485106,30.423713 C 46.176327,30.698130 46.860544,31.624498 46.943610,32.404454 L 48.352938,45.769163 C 48.487439,47.028298 49.091553,47.410675 49.439184,47.527359 C 49.788475,47.643412 50.474332,47.690682 51.153074,46.699958 L 58.326533,36.197280 C 58.745836,35.581296 59.739507,35.213822 60.454016,35.410346 L 72.653696,38.796005 C 73.805271,39.116418 74.300237,38.633495 74.493193,38.317286 C 74.686148,38.001078 74.903023,37.313495 74.195862,36.264404 L 66.732105,25.120922 C 66.304921,24.482083 66.235146,23.314408 66.585702,22.670466 L 72.721306,11.391559 C 73.298719,10.329102 73.001097,9.6485342 72.770985,9.3366379 z "
         id="path1107"
         style="fill:url(#radialGradient1112);stroke:url(#linearGradient1113);stroke-width:0.33090088;stroke-linejoin:round;stroke-miterlimit:4.0000000;stroke-opacity:0.41874996" />
      <path
         d="M 65.521640,21.121243 L 69.229477,13.624875 C 69.675370,12.723221 69.418859,12.130698 69.225413,11.857040 C 69.032601,11.583142 68.574199,11.164023 67.677982,11.431927 L 58.191595,14.292380 C 57.648527,14.456357 56.786676,14.130048 56.381072,13.606681 L 49.329898,4.5074446 C 48.664081,3.6511564 48.114826,3.6901138 47.845741,3.7884433 C 47.576971,3.8866529 47.133054,4.2154654 47.174256,5.3008179 L 47.607329,16.824213 C 47.631919,17.495770 47.188367,18.289453 46.658199,18.519341 L 37.572082,22.477712 C 36.715298,22.843754 36.630861,23.458715 36.657230,23.793248 C 36.683459,24.127403 36.865453,24.748232 37.788769,25.151794 L 47.539068,29.412808 C 48.105751,29.663855 48.680944,30.476848 48.765005,31.149992 L 48.811083,31.518921 C 49.838877,31.229533 50.867701,30.897008 51.893761,30.507247 C 57.496642,28.378923 62.166029,25.041343 65.521640,21.121243 z "
         id="path1108"
         style="fill:url(#linearGradient1114)" />
      <path
         d="M 299.22339,365.51044 C 297.99702,366.50125 296.04978,367.60216 293.39366,367.67249 C 296.05278,367.60828 297.99702,366.62051 299.22339,365.72450 C 301.14668,364.32696 303.80880,361.24442 303.68617,355.33929 C 303.44089,361.01813 301.00610,364.06397 299.22339,365.51044 z "
         id="path1109"
         style="fill:url(#linearGradient1115)"
         transform="matrix(0.112130,-4.259381e-2,4.439693e-2,0.119287,29.75909,6.931387)" />
      <path
         d="M 59.589008,33.079239 C 58.851202,32.838218 57.846990,33.209271 57.438430,33.872430 L 50.993182,46.644436 C 50.331786,47.711329 49.628212,47.636340 49.267126,47.496204 C 49.010120,47.396062 48.615713,47.134515 48.345303,46.488197 C 48.583526,47.201285 49.013396,47.461435 49.288035,47.552384 C 49.640224,47.667585 50.332329,47.712788 51.020471,46.717758 L 58.293367,36.169503 C 58.718491,35.550849 59.722567,35.179431 60.443130,35.374123 L 72.746084,38.728572 C 73.326107,38.887133 73.741977,38.845324 74.037020,38.723673 C 73.742249,38.846054 73.322170,38.876554 72.728298,38.680784 L 59.589008,33.079239 z "
         id="path1110"
         style="opacity:0.29999998;fill:#e89500" />
    </g>
  </g>
  <g
     id="g10763"
     inkscape:label="Layer 1"
     inkscape:groupmode="layer"
     transform="translate(48.57958,28.23858)" />
</svg>
