<?xml version="1.0" encoding="UTF-8" standalone="no"?>
<!DOCTYPE svg PUBLIC "-//W3C//DTD SVG 20010904//EN"
"http://www.w3.org/TR/2001/REC-SVG-20010904/DTD/svg10.dtd">
<!-- Created with Inkscape (http://www.inkscape.org/) -->
<svg
   width="64pt"
   height="64pt"
   id="svg7177"
   sodipodi:version="0.32"
   inkscape:version="0.40"
   sodipodi:docbase="/home/nuno/kdeplayground-artwork/oooicons/crystalsvg"
   sodipodi:docname="sheetframecolor.svg"
   inkscape:export-filename="/home/nuno/kdeplayground-artwork/oooicons/crystalsvg/sheetframecolor.png"
   inkscape:export-xdpi="18.000000"
   inkscape:export-ydpi="18.000000"
   xmlns="http://www.w3.org/2000/svg"
   xmlns:cc="http://web.resource.org/cc/"
   xmlns:inkscape="http://www.inkscape.org/namespaces/inkscape"
   xmlns:sodipodi="http://sodipodi.sourceforge.net/DTD/sodipodi-0.dtd"
   xmlns:rdf="http://www.w3.org/1999/02/22-rdf-syntax-ns#"
   xmlns:dc="http://purl.org/dc/elements/1.1/"
   xmlns:xlink="http://www.w3.org/1999/xlink">
  <defs
     id="defs3">
    <linearGradient
       inkscape:collect="always"
       id="linearGradient3234">
      <stop
         style="stop-color:#000000;stop-opacity:1;"
         offset="0"
         id="stop3235" />
      <stop
         style="stop-color:#000000;stop-opacity:0;"
         offset="1"
         id="stop3236" />
    </linearGradient>
    <linearGradient
       id="linearGradient1978">
      <stop
         offset="0.0000000"
         style="stop-color:#ff0000;stop-opacity:1.0000000;"
         id="stop1983" />
      <stop
         offset="0.23600000"
         style="stop-color:#ffb100;stop-opacity:1.0000000;"
         id="stop1982" />
      <stop
         offset="0.47749999"
         style="stop-color:#00c000;stop-opacity:1.0000000;"
         id="stop1981" />
      <stop
         offset="0.80000001"
         style="stop-color:#0000ff;stop-opacity:1.0000000;"
         id="stop1980" />
      <stop
         offset="1.0000000"
         style="stop-color:#ff02ff;stop-opacity:1.0000000;"
         id="stop1979" />
    </linearGradient>
    <linearGradient
       id="sadow75to0w">
      <stop
         style="stop-color:#000000;stop-opacity:0.72941178;"
         offset="0.0000000"
         id="stop3429" />
      <stop
         style="stop-color:#ffffff;stop-opacity:0.0000000;"
         offset="1.0000000"
         id="stop3430" />
    </linearGradient>
    <linearGradient
       inkscape:collect="always"
       xlink:href="#sadow75to0w"
       id="linearGradient4612"
       gradientTransform="matrix(0.213606,0.000000,0.000000,0.212485,1.762993e-3,-2.832157e-2)"
       x1="331.17322"
       y1="353.16104"
       x2="-493.08487"
       y2="-260.67661"
       gradientUnits="userSpaceOnUse" />
    <linearGradient
       id="bludraktowhite"
       gradientUnits="userSpaceOnUse"
       x1="33.332001"
       y1="10.305200"
       x2="33.332001"
       y2="91.407700">
      <stop
         offset="0"
         style="stop-color:rgb(255,255,255)"
         id="stop7271" />
      <stop
         offset="1"
         style="stop-color:rgb(84,84,119)"
         id="stop7273" />
    </linearGradient>
    <linearGradient
       inkscape:collect="always"
       xlink:href="#bludraktowhite"
       id="linearGradient4608"
       gradientTransform="matrix(0.213606,0.000000,0.000000,0.212485,1.762993e-3,-2.832157e-2)"
       x1="39.627018"
       y1="31.862537"
       x2="344.38776"
       y2="356.44501"
       gradientUnits="userSpaceOnUse" />
    <linearGradient
       inkscape:collect="always"
       xlink:href="#blacktowhite"
       id="linearGradient5301"
       gradientTransform="matrix(0.970068,0.000000,0.000000,6.737592e-2,-15.03736,-0.538949)"
       x1="97.556000"
       y1="139.88669"
       x2="3.5626490"
       y2="-99.779945"
       gradientUnits="userSpaceOnUse" />
    <linearGradient
       id="blacktowhite">
      <stop
         style="stop-color:#000000;stop-opacity:1.0000000;"
         offset="0.0000000"
         id="stop2476" />
      <stop
         style="stop-color:#ffffff;stop-opacity:1.0000000;"
         offset="1.0000000"
         id="stop2475" />
    </linearGradient>
    <linearGradient
       inkscape:collect="always"
       xlink:href="#blacktowhite"
       id="linearGradient5305"
       gradientTransform="matrix(0.889687,0.000000,0.000000,7.346327e-2,-15.03736,-0.538949)"
       x1="100.07494"
       y1="53.016560"
       x2="-35.145607"
       y2="-70.577881"
       gradientUnits="userSpaceOnUse" />
    <linearGradient
       inkscape:collect="always"
       xlink:href="#light100to0"
       id="linearGradient5307"
       gradientUnits="userSpaceOnUse"
       gradientTransform="scale(4.926332,0.202991)"
       x1="8.2462692"
       y1="3.5231113"
       x2="9.3455286"
       y2="38.942432" />
    <radialGradient
       inkscape:collect="always"
       xlink:href="#light100to0"
       id="radialGradient7174"
       gradientTransform="matrix(0.758735,0.000000,0.000000,8.614235e-2,-15.03728,-0.538967)"
       cx="119.75493"
       cy="99.614128"
       fx="119.75493"
       fy="99.614128"
       r="63.534580"
       gradientUnits="userSpaceOnUse" />
    <linearGradient
       id="light100to0">
      <stop
         style="stop-color:#ffffff;stop-opacity:1.0000000;"
         offset="0.0000000"
         id="stop2764" />
      <stop
         style="stop-color:#ffffff;stop-opacity:0.0000000;"
         offset="1.0000000"
         id="stop2765" />
    </linearGradient>
    <radialGradient
       inkscape:collect="always"
       xlink:href="#light100to0"
       id="radialGradient7176"
       gradientUnits="userSpaceOnUse"
       gradientTransform="matrix(-0.485027,0.000000,0.000000,4.935556e-2,47.25421,3.162468)"
       cx="119.75493"
       cy="99.614128"
       fx="119.75493"
       fy="99.614128"
       r="63.534580" />
    <linearGradient
       inkscape:collect="always"
       xlink:href="#blacktowhite"
       id="linearGradient8458"
       gradientUnits="userSpaceOnUse"
       gradientTransform="matrix(0.889687,0.000000,0.000000,7.346327e-2,-15.03736,34.46105)"
       x1="100.07494"
       y1="53.016560"
       x2="-35.145607"
       y2="-70.577881" />
    <linearGradient
       inkscape:collect="always"
       xlink:href="#blacktowhite"
       id="linearGradient8459"
       gradientUnits="userSpaceOnUse"
       gradientTransform="matrix(0.970068,0.000000,0.000000,6.737592e-2,-15.03736,34.46105)"
       x1="97.556000"
       y1="139.88669"
       x2="3.5626490"
       y2="-99.779945" />
    <linearGradient
       inkscape:collect="always"
       xlink:href="#light100to0"
       id="linearGradient8460"
       gradientUnits="userSpaceOnUse"
       gradientTransform="matrix(4.926332,0.000000,0.000000,0.202991,0.000000,35.00000)"
       x1="8.2462692"
       y1="3.5231113"
       x2="9.3455286"
       y2="38.942432" />
    <radialGradient
       inkscape:collect="always"
       xlink:href="#light100to0"
       id="radialGradient8461"
       gradientUnits="userSpaceOnUse"
       gradientTransform="matrix(0.758735,0.000000,0.000000,8.614235e-2,-15.03728,34.46103)"
       cx="119.75493"
       cy="99.614128"
       fx="119.75493"
       fy="99.614128"
       r="63.534580" />
    <radialGradient
       inkscape:collect="always"
       xlink:href="#light100to0"
       id="radialGradient8462"
       gradientUnits="userSpaceOnUse"
       gradientTransform="matrix(-0.485027,0.000000,0.000000,4.935556e-2,47.25421,38.16247)"
       cx="119.75493"
       cy="99.614128"
       fx="119.75493"
       fy="99.614128"
       r="63.534580" />
    <linearGradient
       inkscape:collect="always"
       xlink:href="#blacktowhite"
       id="linearGradient8467"
       gradientUnits="userSpaceOnUse"
       gradientTransform="matrix(0.889687,0.000000,0.000000,7.346327e-2,-15.03736,69.46105)"
       x1="100.07494"
       y1="53.016560"
       x2="-35.145607"
       y2="-70.577881" />
    <linearGradient
       inkscape:collect="always"
       xlink:href="#blacktowhite"
       id="linearGradient8468"
       gradientUnits="userSpaceOnUse"
       gradientTransform="matrix(0.970068,0.000000,0.000000,6.737592e-2,-15.03736,69.46105)"
       x1="97.556000"
       y1="139.88669"
       x2="3.5626490"
       y2="-99.779945" />
    <linearGradient
       inkscape:collect="always"
       xlink:href="#light100to0"
       id="linearGradient8469"
       gradientUnits="userSpaceOnUse"
       gradientTransform="matrix(4.926332,0.000000,0.000000,0.202991,0.000000,70.00000)"
       x1="8.2462692"
       y1="3.5231113"
       x2="9.3455286"
       y2="38.942432" />
    <radialGradient
       inkscape:collect="always"
       xlink:href="#light100to0"
       id="radialGradient8470"
       gradientUnits="userSpaceOnUse"
       gradientTransform="matrix(0.758735,0.000000,0.000000,8.614235e-2,-15.03728,69.46103)"
       cx="119.75493"
       cy="99.614128"
       fx="119.75493"
       fy="99.614128"
       r="63.534580" />
    <radialGradient
       inkscape:collect="always"
       xlink:href="#light100to0"
       id="radialGradient8471"
       gradientUnits="userSpaceOnUse"
       gradientTransform="matrix(-0.485027,0.000000,0.000000,4.935556e-2,47.25421,73.16247)"
       cx="119.75493"
       cy="99.614128"
       fx="119.75493"
       fy="99.614128"
       r="63.534580" />
    <linearGradient
       inkscape:collect="always"
       xlink:href="#blacktowhite"
       id="linearGradient1332"
       gradientUnits="userSpaceOnUse"
       gradientTransform="translate(-145.5227,-143.5575)"
       x1="255.13899"
       y1="-302.98941"
       x2="160.96751"
       y2="669.15991" />
    <linearGradient
       inkscape:collect="always"
       xlink:href="#linearGradient1978"
       id="linearGradient1333"
       gradientUnits="userSpaceOnUse"
       gradientTransform="scale(1.564365,0.639237)"
       x1="-57.697426"
       y1="-13.123666"
       x2="113.62265"
       y2="-13.123666" />
    <linearGradient
       inkscape:collect="always"
       xlink:href="#light100to0"
       id="linearGradient1334"
       gradientUnits="userSpaceOnUse"
       gradientTransform="matrix(5.040000,0.000000,0.000000,5.040000,-233.9910,-281.0268)"
       x1="52.178200"
       y1="42.766102"
       x2="53.682201"
       y2="64.830704" />
    <linearGradient
       inkscape:collect="always"
       xlink:href="#greylighttograyw"
       id="linearGradient1335"
       gradientUnits="userSpaceOnUse"
       gradientTransform="translate(-145.5227,-143.5575)"
       spreadMethod="reflect"
       x1="279.82080"
       y1="188.15616"
       x2="69.903473"
       y2="185.17560" />
    <linearGradient
       inkscape:collect="always"
       xlink:href="#blacktowhite"
       id="linearGradient1336"
       gradientUnits="userSpaceOnUse"
       gradientTransform="translate(-145.5227,-143.5575)"
       spreadMethod="reflect"
       x1="-55.112492"
       y1="87.905701"
       x2="297.47400"
       y2="91.912933" />
    <linearGradient
       inkscape:collect="always"
       xlink:href="#light90to0"
       id="linearGradient1337"
       gradientUnits="userSpaceOnUse"
       gradientTransform="matrix(2.049156,0.000000,0.000000,0.488006,-145.5227,-143.5575)"
       x1="104.65597"
       y1="-4.3286824"
       x2="106.60771"
       y2="490.89954" />
    <radialGradient
       inkscape:collect="always"
       xlink:href="#linearGradient12583"
       id="radialGradient1338"
       gradientUnits="userSpaceOnUse"
       gradientTransform="matrix(1.734879,0.000000,0.000000,0.576409,-145.5227,-143.5575)"
       cx="113.05733"
       cy="155.38373"
       fx="113.05733"
       fy="155.38373"
       r="448.29254" />
    <linearGradient
       inkscape:collect="always"
       xlink:href="#light90to0"
       id="linearGradient1339"
       gradientUnits="userSpaceOnUse"
       gradientTransform="matrix(0.488529,0.000000,0.000000,2.046961,-145.5227,-143.5575)"
       x1="105.76442"
       y1="91.992508"
       x2="362.60837"
       y2="199.69476" />
    <linearGradient
       inkscape:collect="always"
       xlink:href="#redtodarkred"
       id="linearGradient1340"
       gradientUnits="userSpaceOnUse"
       gradientTransform="translate(-133.9648,-142.7870)"
       x1="126.11603"
       y1="426.22717"
       x2="128.55469"
       y2="222.43079" />
    <linearGradient
       inkscape:collect="always"
       xlink:href="#reddarktoblack"
       id="linearGradient1341"
       gradientUnits="userSpaceOnUse"
       gradientTransform="matrix(0.837326,0.000000,0.000000,1.194278,-133.9648,-142.7870)"
       x1="120.54436"
       y1="223.80600"
       x2="214.82529"
       y2="338.75589" />
    <linearGradient
       inkscape:collect="always"
       xlink:href="#light100to0"
       id="linearGradient1342"
       gradientUnits="userSpaceOnUse"
       gradientTransform="matrix(4.300000,0.000000,0.000000,4.300000,-205.6131,-231.7643)"
       x1="43.656300"
       y1="77.274399"
       x2="45.270302"
       y2="100.95300" />
    <radialGradient
       inkscape:collect="always"
       xlink:href="#light75to0"
       id="radialGradient1343"
       gradientUnits="userSpaceOnUse"
       gradientTransform="matrix(0.848922,0.000000,0.000000,1.177964,-133.9648,-142.7870)"
       cx="155.57654"
       cy="316.53455"
       fx="155.57654"
       fy="316.53455"
       r="40.147652" />
    <linearGradient
       inkscape:collect="always"
       xlink:href="#blueligtmoretoblue"
       id="linearGradient1344"
       gradientUnits="userSpaceOnUse"
       gradientTransform="translate(-136.3635,-143.9427)"
       x1="445.42911"
       y1="436.24109"
       x2="197.06497"
       y2="227.27562" />
    <linearGradient
       inkscape:collect="always"
       xlink:href="#bluedarktoblackblue"
       id="linearGradient1345"
       gradientUnits="userSpaceOnUse"
       gradientTransform="matrix(0.837326,0.000000,0.000000,1.194278,-38.98881,-143.2577)"
       x1="120.54436"
       y1="223.80600"
       x2="214.82529"
       y2="338.75589" />
    <linearGradient
       inkscape:collect="always"
       xlink:href="#light100to0"
       id="linearGradient1346"
       gradientUnits="userSpaceOnUse"
       gradientTransform="matrix(4.300000,0.000000,0.000000,4.300000,-110.6371,-232.2350)"
       x1="43.656300"
       y1="77.274399"
       x2="45.270302"
       y2="100.95300" />
    <radialGradient
       inkscape:collect="always"
       xlink:href="#light75to0"
       id="radialGradient1347"
       gradientUnits="userSpaceOnUse"
       gradientTransform="matrix(0.848922,0.000000,0.000000,1.177964,-38.98881,-142.2509)"
       cx="155.57654"
       cy="316.53455"
       fx="155.57654"
       fy="316.53455"
       r="40.147652" />
    <linearGradient
       inkscape:collect="always"
       xlink:href="#greantodarkgrean"
       id="linearGradient1348"
       gradientUnits="userSpaceOnUse"
       gradientTransform="translate(-135.1206,-143.9427)"
       x1="423.57770"
       y1="437.24780"
       x2="308.71310"
       y2="234.42838" />
    <linearGradient
       inkscape:collect="always"
       xlink:href="#greandraktoblack"
       id="linearGradient1349"
       gradientUnits="userSpaceOnUse"
       gradientTransform="matrix(0.837326,0.000000,0.000000,1.194278,55.87839,-142.2509)"
       x1="120.54436"
       y1="223.80600"
       x2="214.82529"
       y2="338.75589" />
    <linearGradient
       inkscape:collect="always"
       xlink:href="#light100to0"
       id="linearGradient1350"
       gradientUnits="userSpaceOnUse"
       gradientTransform="matrix(4.300000,0.000000,0.000000,4.300000,-15.76991,-231.2283)"
       x1="43.656300"
       y1="77.274399"
       x2="45.270302"
       y2="100.95300" />
    <radialGradient
       inkscape:collect="always"
       xlink:href="#light75to0"
       id="radialGradient1351"
       gradientUnits="userSpaceOnUse"
       gradientTransform="matrix(0.848922,0.000000,0.000000,1.177964,55.87839,-142.2509)"
       cx="155.57654"
       cy="316.53455"
       fx="155.57654"
       fy="316.53455"
       r="40.147652" />
    <radialGradient
       inkscape:collect="always"
       xlink:href="#linearGradient12583"
       id="radialGradient1352"
       gradientUnits="userSpaceOnUse"
       gradientTransform="matrix(0.356513,0.000000,0.000000,9.950387e-2,1.709328,6.468255)"
       cx="113.05733"
       cy="155.38373"
       fx="113.05733"
       fy="155.38373"
       r="448.29254" />
    <linearGradient
       inkscape:collect="always"
       xlink:href="#linearGradient1978"
       id="linearGradient1977"
       gradientTransform="matrix(5.179643,0.000000,0.000000,0.482016,-101.7110,6.344086)"
       x1="19.595533"
       y1="142.21194"
       x2="35.120335"
       y2="142.21194"
       gradientUnits="userSpaceOnUse" />
    <linearGradient
       inkscape:collect="always"
       xlink:href="#linearGradient3234"
       id="linearGradient3237"
       gradientTransform="scale(3.384795,0.295439)"
       x1="-4.9265981"
       y1="253.86989"
       x2="12.322908"
       y2="253.87010"
       gradientUnits="userSpaceOnUse"
       spreadMethod="reflect" />
  </defs>
  <sodipodi:namedview
     id="base"
     pagecolor="#ffffff"
     bordercolor="#666666"
     borderopacity="1.0"
     inkscape:pageopacity="0.0"
     inkscape:pageshadow="2"
     inkscape:zoom="11.625000"
     inkscape:cx="32.000000"
     inkscape:cy="32.000000"
     inkscape:current-layer="svg7177"
     showgrid="false"
     inkscape:grid-bbox="false"
     gridspacingy="1.0000000pt"
     gridspacingx="1.0000000pt"
     gridoriginy="0.0000000pt"
     gridoriginx="0.0000000pt"
     inkscape:window-width="1278"
     inkscape:window-height="903"
     inkscape:window-x="144"
     inkscape:window-y="25" />
  <metadata
     id="metadata4">
    <rdf:RDF
       id="RDF5">
      <cc:Work
         rdf:about=""
         id="Work6">
        <dc:format
           id="format7">image/svg+xml</dc:format>
        <dc:type
           id="type9"
           rdf:resource="http://purl.org/dc/dcmitype/StillImage" />
      </cc:Work>
    </rdf:RDF>
  </metadata>
  <g
     id="layer1"
     inkscape:label="Layer 1"
     inkscape:groupmode="layer">
    <path
       style="fill:url(#linearGradient4608);fill-opacity:1.0000000;fill-rule:evenodd;stroke:url(#linearGradient4612);stroke-width:1.2116964;stroke-linecap:butt;stroke-linejoin:round;stroke-miterlimit:4.0000000;stroke-opacity:1.0000000"
       d="M 3.8769081,3.8367909 L 3.7808482,76.159865 L 76.390259,76.159865 L 76.486320,3.8367909 L 3.8769081,3.8367909 z M 4.5373231,4.4945995 L 39.659288,4.4945995 L 39.659288,39.573741 L 4.4892927,39.573741 L 4.5373231,4.4945995 z M 40.319701,4.4945995 L 75.825907,4.4945995 L 75.777877,39.573741 L 40.319701,39.573741 L 40.319701,4.4945995 z M 4.4892927,40.231553 L 39.659288,40.231553 L 39.659288,75.502056 L 4.4412590,75.502056 L 4.4892927,40.231553 z M 40.319701,40.231553 L 75.777877,40.231553 L 75.729845,75.502056 L 40.319701,75.502056 L 40.319701,40.231553 z "
       id="path2111"
       sodipodi:nodetypes="ccccccccccccccccccccccccc" />
    <path
       style="fill:url(#linearGradient8467);fill-opacity:1.0000000;fill-rule:evenodd;stroke:url(#linearGradient8468);stroke-width:1.3262085;stroke-linecap:round;stroke-linejoin:miter;stroke-miterlimit:4.0000000;stroke-opacity:1.0000000"
       d="M 75.723469,71.581970 L 4.1764160,71.787506 C 3.0361200,71.772950 1.9762775,72.371055 1.4026991,73.352816 C 0.82911950,74.334577 0.83066270,75.547902 1.4067359,76.528213 C 1.9828079,77.508524 3.0441660,78.103958 4.1844230,78.086523 L 75.731474,77.880987 C 76.871774,77.895545 77.931613,77.297438 78.505192,76.315676 C 79.078771,75.333915 79.077233,74.120592 78.501158,73.140280 C 77.925086,72.159969 76.863727,71.564538 75.723469,71.581970 z "
       id="path8463"
       sodipodi:nodetypes="ccccccccc" />
    <rect
       style="fill:url(#linearGradient1977);fill-opacity:1.0000000;stroke:none;stroke-width:0.68750000;stroke-linecap:round;stroke-linejoin:round;stroke-miterlimit:4.0000000;stroke-dashoffset:0.0000000;stroke-opacity:0.53688526"
       id="rect1095"
       width="78.534950"
       height="6.8548388"
       x="0.72580659"
       y="71.465057"
       rx="4.1618395"
       ry="4.1241717" />
    <rect
       style="fill:url(#linearGradient3237);fill-opacity:1.0;stroke:none;stroke-width:0.68750000;stroke-linecap:round;stroke-linejoin:round;stroke-miterlimit:4.0000000;stroke-dashoffset:0.0000000;stroke-opacity:0.53688526;"
       id="rect2606"
       width="78.534950"
       height="6.8548388"
       x="0.72580659"
       y="71.465057"
       rx="4.1618395"
       ry="4.1241717" />
    <path
       style="fill:url(#linearGradient8469);fill-opacity:1.0000000;fill-rule:evenodd;stroke:none;stroke-width:3.5671833;stroke-linecap:round;stroke-linejoin:miter;stroke-miterlimit:4.0000000;stroke-opacity:1.0000000"
       d="M 75.143058,71.348058 L 4.9292390,71.566774 C 3.8045290,71.559606 2.7591720,71.853996 2.1934367,72.337217 C 1.6276979,72.820441 1.6292183,73.417638 2.1974159,73.900146 C 2.7656150,74.382655 3.8124610,74.675728 4.9371360,74.667148 C 20.072292,76.314897 45.981319,72.895135 75.150955,72.937174 C 77.223943,72.849887 76.836697,71.245024 75.143058,71.348058 z "
       id="path8464"
       sodipodi:nodetypes="ccccccc" />
    <path
       style="fill:url(#radialGradient8470);fill-opacity:1.0000000;fill-rule:evenodd;stroke:none;stroke-width:3.5671833;stroke-linecap:round;stroke-linejoin:miter;stroke-miterlimit:4.0000000;stroke-opacity:1.0000000"
       d="M 41.559181,78.079182 C 46.534806,78.273367 69.756275,77.831493 75.395692,77.836768 C 76.611553,77.840352 77.470283,77.684788 78.131495,77.066325 C 78.723918,76.516380 78.901610,75.017294 78.617512,74.776043 C 77.163986,73.712562 78.377179,76.206556 75.819779,76.708854 C 71.254891,77.605440 48.854356,77.682586 41.914267,77.635363 C 41.371642,77.622397 41.557834,78.195548 41.559181,78.079182 z "
       id="path8465"
       sodipodi:nodetypes="ccccscc" />
    <path
       style="fill:url(#radialGradient8471);fill-opacity:1.0000000;fill-rule:evenodd;stroke:none;stroke-width:3.5671833;stroke-linecap:round;stroke-linejoin:miter;stroke-miterlimit:4.0000000;stroke-opacity:1.0000000"
       d="M 25.887088,77.944335 C 22.706370,78.055593 7.8479790,77.940440 4.2429280,77.943462 C 3.4656730,77.945516 2.9167240,77.787375 2.4940410,77.433025 C 2.1153245,77.117933 1.4715461,76.357214 1.7399395,76.093197 C 2.5538980,75.292514 2.9328130,76.954220 3.9856790,77.159202 C 6.8940140,77.725421 21.223577,77.717104 25.660094,77.690048 C 26.006973,77.682618 25.887947,78.011007 25.887088,77.944335 z "
       id="path8466"
       sodipodi:nodetypes="cccsscc" />
  </g>
  <g
     id="g1214"
     transform="matrix(0.742607,0.000000,0.000000,0.752874,2.150557,1.485664)">
    <defs
       id="defs1215">
      <linearGradient
         inkscape:collect="always"
         xlink:href="#blacktowhite"
         id="linearGradient2516"
         gradientUnits="userSpaceOnUse"
         x1="255.13899"
         y1="-302.98941"
         x2="160.96751"
         y2="669.15991"
         gradientTransform="translate(-145.5227,-143.5575)" />
      <linearGradient
         id="multicolor"
         gradientUnits="userSpaceOnUse"
         x1="26.843800"
         y1="52.754902"
         x2="80.019501"
         y2="52.754902"
         spreadMethod="pad"
         xlink:href="#linearGradient1978" />
      <linearGradient
         inkscape:collect="always"
         xlink:href="#XMLID_8_"
         id="linearGradient17717"
         gradientUnits="userSpaceOnUse"
         gradientTransform="matrix(5.040000,0.000000,0.000000,5.040000,-225.5536,-274.2768)"
         x1="26.843800"
         y1="52.754902"
         x2="80.019501"
         y2="52.754902" />
      <linearGradient
         inkscape:collect="always"
         xlink:href="#light100to0"
         id="linearGradient10702"
         gradientUnits="userSpaceOnUse"
         x1="52.178200"
         y1="42.766102"
         x2="53.682201"
         y2="64.830704"
         gradientTransform="matrix(5.040000,0.000000,0.000000,5.040000,-233.9910,-281.0268)" />
      <linearGradient
         id="greylighttograyw">
        <stop
           style="stop-color:#b5b5b8;stop-opacity:1.0000000;"
           offset="0.0000000"
           id="stop575" />
        <stop
           style="stop-color:#ebebee;stop-opacity:1.0000000;"
           offset="1.0000000"
           id="stop576" />
      </linearGradient>
      <linearGradient
         inkscape:collect="always"
         xlink:href="#greylighttograyw"
         id="linearGradient3140"
         gradientUnits="userSpaceOnUse"
         x1="279.82080"
         y1="188.15616"
         x2="69.903473"
         y2="185.17560"
         spreadMethod="reflect"
         gradientTransform="translate(-145.5227,-143.5575)" />
      <linearGradient
         id="linearGradient1229">
        <stop
           style="stop-color:#000000;stop-opacity:1.0000000;"
           offset="0.0000000"
           id="stop1230" />
        <stop
           style="stop-color:#ffffff;stop-opacity:1.0000000;"
           offset="1.0000000"
           id="stop1231" />
      </linearGradient>
      <linearGradient
         inkscape:collect="always"
         xlink:href="#blacktowhite"
         id="linearGradient10718"
         gradientUnits="userSpaceOnUse"
         x1="-55.112492"
         y1="87.905701"
         x2="297.47400"
         y2="91.912933"
         spreadMethod="reflect"
         gradientTransform="translate(-145.5227,-143.5575)" />
      <linearGradient
         inkscape:collect="always"
         xlink:href="#light90to0"
         id="linearGradient17083"
         gradientTransform="matrix(2.049156,0.000000,0.000000,0.488006,-145.5227,-143.5575)"
         x1="104.65597"
         y1="-4.3286824"
         x2="106.60771"
         y2="490.89954"
         gradientUnits="userSpaceOnUse" />
      <linearGradient
         inkscape:collect="always"
         id="linearGradient12583">
        <stop
           style="stop-color:#ffffff;stop-opacity:1;"
           offset="0"
           id="stop12584" />
        <stop
           style="stop-color:#ffffff;stop-opacity:0;"
           offset="1"
           id="stop12585" />
      </linearGradient>
      <radialGradient
         inkscape:collect="always"
         xlink:href="#linearGradient12583"
         id="radialGradient12587"
         gradientTransform="matrix(1.734879,0.000000,0.000000,0.576409,-145.5227,-143.5575)"
         cx="113.05733"
         cy="155.38373"
         fx="113.05733"
         fy="155.38373"
         r="448.29254"
         gradientUnits="userSpaceOnUse" />
      <linearGradient
         id="light90to0">
        <stop
           style="stop-color:#ffffff;stop-opacity:0.90833336;"
           offset="0.0000000"
           id="stop1890" />
        <stop
           style="stop-color:#ffffff;stop-opacity:0.0000000;"
           offset="1.0000000"
           id="stop1892" />
      </linearGradient>
      <linearGradient
         inkscape:collect="always"
         xlink:href="#light90to0"
         id="linearGradient13241"
         gradientTransform="matrix(0.488529,0.000000,0.000000,2.046961,-145.5227,-143.5575)"
         x1="105.76442"
         y1="91.992508"
         x2="362.60837"
         y2="199.69476"
         gradientUnits="userSpaceOnUse" />
      <linearGradient
         id="reddarktoblack">
        <stop
           style="stop-color:#8e0000;stop-opacity:1.0000000;"
           offset="0.0000000"
           id="stop3230" />
        <stop
           style="stop-color:#000000;stop-opacity:1.0000000;"
           offset="1.0000000"
           id="stop3231" />
      </linearGradient>
      <linearGradient
         inkscape:collect="always"
         xlink:href="#reddarktoblack"
         id="linearGradient13941"
         gradientTransform="matrix(0.837326,0.000000,0.000000,1.194278,-133.9648,-142.7870)"
         x1="120.54436"
         y1="223.80600"
         x2="214.82529"
         y2="338.75589"
         gradientUnits="userSpaceOnUse" />
      <linearGradient
         id="redtodarkred">
        <stop
           style="stop-color:#ff0000;stop-opacity:1.0000000;"
           offset="0.0000000"
           id="stop3856" />
        <stop
           style="stop-color:#920000;stop-opacity:1.0000000;"
           offset="1.0000000"
           id="stop3855" />
      </linearGradient>
      <linearGradient
         inkscape:collect="always"
         xlink:href="#redtodarkred"
         id="linearGradient13315"
         gradientUnits="userSpaceOnUse"
         x1="126.11603"
         y1="426.22717"
         x2="128.55469"
         y2="222.43079"
         gradientTransform="translate(-133.9648,-142.7870)" />
      <linearGradient
         inkscape:collect="always"
         xlink:href="#light100to0"
         id="linearGradient13314"
         gradientUnits="userSpaceOnUse"
         x1="43.656300"
         y1="77.274399"
         x2="45.270302"
         y2="100.95300"
         gradientTransform="matrix(4.300000,0.000000,0.000000,4.300000,-205.6131,-231.7643)" />
      <radialGradient
         inkscape:collect="always"
         xlink:href="#light75to0"
         id="radialGradient14572"
         gradientTransform="matrix(0.848922,0.000000,0.000000,1.177964,-133.9648,-142.7870)"
         cx="155.57654"
         cy="316.53455"
         fx="155.57654"
         fy="316.53455"
         r="40.147652"
         gradientUnits="userSpaceOnUse" />
      <radialGradient
         cx="38.797401"
         cy="112.96090"
         r="67.358803"
         fx="38.797401"
         fy="112.96090"
         id="bluedarktoblackblue"
         gradientUnits="userSpaceOnUse">
        <stop
           style="stop-color:#0356fe;stop-opacity:1.0000000;"
           offset="0.0000000"
           id="stop2959" />
        <stop
           style="stop-color:#032442;stop-opacity:1.0000000;"
           offset="1.0000000"
           id="stop2960" />
      </radialGradient>
      <linearGradient
         inkscape:collect="always"
         xlink:href="#bluedarktoblackblue"
         id="linearGradient15208"
         gradientUnits="userSpaceOnUse"
         gradientTransform="matrix(0.837326,0.000000,0.000000,1.194278,-38.98881,-143.2577)"
         x1="120.54436"
         y1="223.80600"
         x2="214.82529"
         y2="338.75589" />
      <radialGradient
         cx="38.797401"
         cy="112.96090"
         r="67.358803"
         fx="38.797401"
         fy="112.96090"
         id="blueligtmoretoblue"
         gradientUnits="userSpaceOnUse">
        <stop
           style="stop-color:#d9ffff;stop-opacity:1.0000000;"
           offset="0.0055999998"
           id="stop3457" />
        <stop
           style="stop-color:#6eaafe;stop-opacity:1.0000000;"
           offset="0.74217570"
           id="stop3465" />
        <stop
           style="stop-color:#0356fe;stop-opacity:1.0000000;"
           offset="1.0000000"
           id="stop3463" />
      </radialGradient>
      <linearGradient
         inkscape:collect="always"
         xlink:href="#blueligtmoretoblue"
         id="linearGradient15207"
         gradientUnits="userSpaceOnUse"
         x1="445.42911"
         y1="436.24109"
         x2="197.06497"
         y2="227.27562"
         gradientTransform="translate(-136.3635,-143.9427)" />
      <linearGradient
         inkscape:collect="always"
         xlink:href="#light100to0"
         id="linearGradient15206"
         gradientUnits="userSpaceOnUse"
         gradientTransform="matrix(4.300000,0.000000,0.000000,4.300000,-110.6371,-232.2350)"
         x1="43.656300"
         y1="77.274399"
         x2="45.270302"
         y2="100.95300" />
      <radialGradient
         inkscape:collect="always"
         xlink:href="#light75to0"
         id="radialGradient15205"
         gradientUnits="userSpaceOnUse"
         gradientTransform="matrix(0.848922,0.000000,0.000000,1.177964,-38.98881,-142.2509)"
         cx="155.57654"
         cy="316.53455"
         fx="155.57654"
         fy="316.53455"
         r="40.147652" />
      <linearGradient
         id="greandraktoblack">
        <stop
           style="stop-color:#007c00;stop-opacity:1.0000000;"
           offset="0.0000000"
           id="stop7328" />
        <stop
           style="stop-color:#025a00;stop-opacity:1.0000000;"
           offset="1.0000000"
           id="stop7329" />
      </linearGradient>
      <linearGradient
         inkscape:collect="always"
         xlink:href="#greandraktoblack"
         id="linearGradient15836"
         gradientUnits="userSpaceOnUse"
         gradientTransform="matrix(0.837326,0.000000,0.000000,1.194278,55.87839,-142.2509)"
         x1="120.54436"
         y1="223.80600"
         x2="214.82529"
         y2="338.75589" />
      <linearGradient
         id="greantodarkgrean">
        <stop
           style="stop-color:#00ff01;stop-opacity:1.0000000;"
           offset="0.0000000"
           id="stop5123" />
        <stop
           style="stop-color:#15980f;stop-opacity:1.0000000;"
           offset="1.0000000"
           id="stop5124" />
      </linearGradient>
      <linearGradient
         inkscape:collect="always"
         xlink:href="#greantodarkgrean"
         id="linearGradient15835"
         gradientUnits="userSpaceOnUse"
         x1="423.57770"
         y1="437.24780"
         x2="308.71310"
         y2="234.42838"
         gradientTransform="translate(-135.1206,-143.9427)" />
      <linearGradient
         id="linearGradient1271">
        <stop
           style="stop-color:#ffffff;stop-opacity:1.0000000;"
           offset="0.0000000"
           id="stop1272" />
        <stop
           style="stop-color:#ffffff;stop-opacity:0.0000000;"
           offset="1.0000000"
           id="stop1273" />
      </linearGradient>
      <linearGradient
         inkscape:collect="always"
         xlink:href="#light100to0"
         id="linearGradient15834"
         gradientUnits="userSpaceOnUse"
         gradientTransform="matrix(4.300000,0.000000,0.000000,4.300000,-15.76991,-231.2283)"
         x1="43.656300"
         y1="77.274399"
         x2="45.270302"
         y2="100.95300" />
      <linearGradient
         id="light75to0">
        <stop
           style="stop-color:#ffffff;stop-opacity:0.72916669;"
           offset="0.0000000"
           id="stop2769" />
        <stop
           style="stop-color:#ffffff;stop-opacity:0.0000000;"
           offset="1.0000000"
           id="stop2770" />
      </linearGradient>
      <radialGradient
         inkscape:collect="always"
         xlink:href="#light75to0"
         id="radialGradient15833"
         gradientUnits="userSpaceOnUse"
         gradientTransform="matrix(0.848922,0.000000,0.000000,1.177964,55.87839,-142.2509)"
         cx="155.57654"
         cy="316.53455"
         fx="155.57654"
         fy="316.53455"
         r="40.147652" />
    </defs>
    <sodipodi:namedview
       id="namedview1300"
       pagecolor="#ffffff"
       bordercolor="#666666"
       borderopacity="1.0"
       inkscape:pageopacity="0.0"
       inkscape:pageshadow="2"
       inkscape:zoom="6.2131143"
       inkscape:cx="30.499975"
       inkscape:cy="48.813985"
       inkscape:current-layer="layer1"
       showgrid="true"
       inkscape:grid-bbox="true"
       gridspacingy="1.0000000pt"
       gridspacingx="1.0000000pt"
       gridoriginy="0.0000000pt"
       gridoriginx="0.0000000pt"
       inkscape:window-width="640"
       inkscape:window-height="538"
       inkscape:window-x="638"
       inkscape:window-y="390" />
    <metadata
       id="metadata1301">
      <rdf:RDF
         id="RDF1302">
        <cc:Work
           rdf:about=""
           id="Work1303">
          <dc:format
             id="format1304">image/svg+xml</dc:format>
          <dc:type
             id="type1306"
             rdf:resource="http://purl.org/dc/dcmitype/StillImage" />
        </cc:Work>
      </rdf:RDF>
    </metadata>
    <g
       id="g1307"
       inkscape:label="Layer 1"
       inkscape:groupmode="layer">
      <path
         d="M -145.52271,-34.392286 L -145.52271,126.56515 C -145.52271,185.38699 -63.038074,231.44251 42.272727,231.44251 C 147.58353,231.44251 230.06817,185.38699 230.06817,126.56515 L 230.06817,-34.392286 C 230.06817,-93.188927 147.58353,-139.26461 42.272727,-139.26461 C -63.038074,-139.26461 -145.52271,-93.183887 -145.52271,-34.392286 z M -126.01287,126.56515 L -126.01287,-34.392286 C -126.01287,-80.639327 -48.941194,-119.72957 42.272727,-119.72957 C 133.48665,-119.72957 210.55833,-80.639327 210.55833,-34.392286 L 210.55833,126.56515 C 210.55833,172.84243 133.48665,211.95283 42.272727,211.95283 C -48.941194,211.95283 -126.01287,172.84243 -126.01287,126.56515 z "
         style="fill:url(#linearGradient1332);fill-opacity:1.0000000"
         id="path82"
         transform="matrix(0.212998,0.000000,0.000000,0.215784,30.99602,30.05108)" />
      <path
         d="M 43.743707,46.367944 C 107.85755,46.367944 161.66964,23.138584 177.74724,-8.3664559 C 161.66964,-39.916856 107.85251,-63.146215 43.743707,-63.146215 C -20.365093,-63.146215 -74.187247,-39.916856 -90.259807,-8.3664559 C -74.187247,23.133544 -20.370133,46.367944 43.743707,46.367944 z "
         style="fill:url(#linearGradient1333);fill-opacity:1.0000000"
         id="path10715"
         transform="matrix(0.212998,0.000000,0.000000,0.215784,30.99602,30.05108)" />
      <path
         adobe-blending-mode="screen"
         d="M 140.17856,-8.6148759 C 140.17856,15.390644 92.117117,34.855124 32.861837,34.855124 C -26.393443,34.855124 -74.454891,15.395684 -74.454891,-8.6148759 C -74.454891,-32.645596 -26.393443,-52.130236 32.861837,-52.130236 C 92.117117,-52.130236 140.17856,-32.645596 140.17856,-8.6148759 z "
         style="fill:url(#linearGradient1334);fill-opacity:1.0000000"
         id="path164"
         transform="matrix(0.212998,0.000000,0.000000,0.215784,30.99602,30.05108)" />
      <path
         style="fill:url(#linearGradient1335);fill-opacity:1.0000000"
         d="M 42.258537,-122.30749 C -53.420736,-122.30749 -128.33521,-80.440873 -128.33521,-27.026236 L -128.33521,119.19251 C -128.33521,172.63461 -53.420735,214.50501 42.258537,214.50501 C 137.93781,214.50500 212.88354,172.63462 212.88354,119.19251 L 212.88354,-27.026236 C 212.88353,-80.445451 137.93781,-122.30749 42.258537,-122.30749 z M 43.758537,-63.151236 C 107.86734,-63.151236 161.68093,-39.920376 177.75854,-8.3699859 C 161.68094,23.135054 107.87238,46.380014 43.758537,46.380014 C -20.355303,46.380014 -74.200152,23.130024 -90.272713,-8.3699859 C -74.200153,-39.920386 -20.350263,-63.151235 43.758537,-63.151236 z "
         id="path17714"
         transform="matrix(0.212998,0.000000,0.000000,0.215784,30.99602,30.05108)" />
      <path
         d="M 43.743707,-63.146215 C 107.85755,-63.146215 161.66964,-39.911816 177.74724,-8.3664559 C 180.91740,-14.626136 182.75196,-21.107576 182.75196,-27.896456 C 182.75196,-68.896865 120.52307,-102.13566 43.743707,-102.13566 C -33.035653,-102.13566 -95.264527,-68.896865 -95.264527,-27.896456 C -95.264527,-21.102536 -93.429967,-14.626136 -90.259807,-8.3664559 C -74.187247,-39.916856 -20.370133,-63.146215 43.743707,-63.146215 z "
         style="fill:url(#linearGradient1336);fill-opacity:1.0000000"
         id="path106"
         transform="matrix(0.212998,0.000000,0.000000,0.215784,30.99602,30.05108)" />
      <path
         style="fill:url(#linearGradient1337);fill-opacity:1.0000000;fill-rule:evenodd;stroke:none;stroke-width:0.25000000pt;stroke-linecap:butt;stroke-linejoin:miter;stroke-opacity:1.0000000"
         d="M -94.242408,-37.821796 C -83.465069,-84.489546 -1.0473427,-104.42612 44.422457,-103.08383 C 89.892257,-101.74155 157.74477,-92.219393 180.11744,-40.555496 C 147.72791,-92.741454 89.892257,-97.528775 44.422457,-98.871057 C -1.0473427,-100.21334 -78.071374,-83.470552 -94.242408,-37.821796 z "
         id="path16458"
         sodipodi:nodetypes="czczc"
         transform="matrix(0.212998,0.000000,0.000000,0.215784,30.99602,30.05108)" />
      <path
         d="M 181.24984,-2.0202559 C 161.42602,38.608494 81.598717,56.542624 26.740507,52.532884 C -27.767003,48.523134 -88.517138,29.934094 -104.41346,-21.870386 C -114.93746,-24.428666 -110.62539,-3.0635159 -108.98207,2.3678541 C -97.114970,41.589874 -43.138453,71.197364 21.250797,76.510324 C 86.016317,81.854334 152.62042,69.052724 180.71555,24.963124 C 190.60489,9.4438141 186.68283,-11.028046 181.24984,-2.0202559 z "
         style="fill:url(#radialGradient1338);fill-opacity:1.0000000"
         id="path123"
         sodipodi:nodetypes="czcszsc"
         transform="matrix(0.212998,0.000000,0.000000,0.215784,30.99602,30.05108)" />
      <path
         style="fill:url(#linearGradient1339);fill-opacity:1.0000000;stroke:none;stroke-width:4.9875002;stroke-linecap:butt;stroke-linejoin:round;stroke-miterlimit:4.0000000;stroke-dashoffset:0.0000000;stroke-opacity:1.0000000"
         d="M -90.803963,31.598764 L -90.803963,201.43160 C -76.856536,209.01319 -61.140023,215.33114 -45.928963,219.62728 L -45.928963,60.692514 C -64.126455,53.091434 -79.502785,43.170144 -90.803963,31.598764 z "
         id="rect12589"
         sodipodi:nodetypes="ccccc"
         transform="matrix(0.212998,0.000000,0.000000,0.215784,30.99602,30.05108)" />
      <path
         d="M 35.341847,170.21693 C 35.341847,201.42203 16.017647,226.68883 -7.8258527,226.68883 C -31.712353,226.68883 -51.040840,201.42203 -51.040840,170.21693 C -51.040840,139.07203 -51.019340,116.67333 -42.397843,106.66723 C -28.534653,90.580934 35.341847,139.07203 35.341847,170.21693 z "
         style="fill:url(#linearGradient1340);fill-opacity:1.0000000;stroke:url(#linearGradient1341);stroke-width:8.6250000;stroke-miterlimit:4.0000000"
         id="path145"
         transform="matrix(0.212998,0.000000,0.000000,0.215784,30.99602,30.05108)" />
      <path
         adobe-blending-mode="screen"
         d="M 13.957947,155.61413 C 13.957947,175.94883 1.3718473,192.37053 -14.133953,192.37053 C -29.665553,192.37053 -42.225843,175.95313 -42.225843,155.61413 C -42.225843,135.33963 -42.225843,120.81853 -36.614343,114.26103 C -27.588653,103.82063 13.957947,135.33963 13.957947,155.61413 z "
         style="fill:url(#linearGradient1342);fill-opacity:1.0000000"
         id="path154"
         transform="matrix(0.212998,0.000000,0.000000,0.215784,30.99602,30.05108)" />
      <path
         d="M 35.341847,170.21693 C 35.341847,201.42203 16.017647,226.68883 -7.8258527,226.68883 C -31.712353,226.68883 -51.040840,201.42203 -51.040840,170.21693 C -51.040840,139.07203 -51.019340,116.67333 -42.397843,106.66723 C -28.534653,90.580934 35.341847,139.07203 35.341847,170.21693 z "
         style="fill:url(#radialGradient1343);fill-opacity:1.0000000;stroke:none;stroke-width:8.6250000;stroke-miterlimit:4.0000000"
         id="path13946"
         transform="matrix(0.212998,0.000000,0.000000,0.215784,30.99602,30.05108)" />
      <path
         d="M 130.31780,169.74621 C 130.31780,200.95131 110.99360,226.21811 87.150097,226.21811 C 63.263597,226.21811 43.935107,200.95131 43.935107,169.74621 C 43.935107,138.60131 43.956607,116.20261 52.578107,106.19651 C 66.441297,90.110214 130.31780,138.60131 130.31780,169.74621 z "
         style="fill:url(#linearGradient1344);fill-opacity:1.0000000;stroke:url(#linearGradient1345);stroke-width:8.6250000;stroke-miterlimit:4.0000000"
         id="path15202"
         transform="matrix(0.212998,0.000000,0.000000,0.215784,30.99602,30.05108)" />
      <path
         adobe-blending-mode="screen"
         d="M 108.93390,155.14341 C 108.93390,175.47811 96.347797,191.89981 80.841997,191.89981 C 65.310397,191.89981 52.750107,175.48241 52.750107,155.14341 C 52.750107,134.86891 52.750107,120.34781 58.361607,113.79031 C 67.387297,103.34991 108.93390,134.86891 108.93390,155.14341 z "
         style="fill:url(#linearGradient1346);fill-opacity:1.0000000"
         id="path15203"
         transform="matrix(0.212998,0.000000,0.000000,0.215784,30.99602,30.05108)" />
      <path
         d="M 130.31780,170.75291 C 130.31780,201.95801 110.99360,227.22481 87.150097,227.22481 C 63.263597,227.22481 43.935107,201.95801 43.935107,170.75291 C 43.935107,139.60801 43.956607,117.20931 52.578107,107.20321 C 66.441297,91.116914 130.31780,139.60801 130.31780,170.75291 z "
         style="fill:url(#radialGradient1347);fill-opacity:1.0000000;stroke:none;stroke-width:8.6250000;stroke-miterlimit:4.0000000"
         id="path15204"
         transform="matrix(0.212998,0.000000,0.000000,0.215784,30.99602,30.05108)" />
      <path
         d="M 225.18485,170.75293 C 225.18485,201.95803 205.86065,227.22483 182.01715,227.22483 C 158.13065,227.22483 138.80216,201.95803 138.80216,170.75293 C 138.80216,139.60803 138.82366,117.20933 147.44516,107.20323 C 161.30835,91.116934 225.18485,139.60803 225.18485,170.75293 z "
         style="fill:url(#linearGradient1348);fill-opacity:1.0000000;stroke:url(#linearGradient1349);stroke-width:8.6250000;stroke-miterlimit:4.0000000"
         id="path15830"
         transform="matrix(0.212998,0.000000,0.000000,0.215784,30.99602,30.05108)" />
      <path
         adobe-blending-mode="screen"
         d="M 203.80095,156.15013 C 203.80095,176.48483 191.21485,192.90653 175.70905,192.90653 C 160.17745,192.90653 147.61716,176.48913 147.61716,156.15013 C 147.61716,135.87563 147.61716,121.35453 153.22866,114.79703 C 162.25435,104.35663 203.80095,135.87563 203.80095,156.15013 z "
         style="fill:url(#linearGradient1350);fill-opacity:1.0000000"
         id="path15831"
         transform="matrix(0.212998,0.000000,0.000000,0.215784,30.99602,30.05108)" />
      <path
         d="M 225.18485,170.75293 C 225.18485,201.95803 205.86065,227.22483 182.01715,227.22483 C 158.13065,227.22483 138.80216,201.95803 138.80216,170.75293 C 138.80216,139.60803 138.82366,117.20933 147.44516,107.20323 C 161.30835,91.116934 225.18485,139.60803 225.18485,170.75293 z "
         style="fill:url(#radialGradient1351);fill-opacity:1.0000000;stroke:none;stroke-width:8.6250000;stroke-miterlimit:4.0000000"
         id="path15832"
         transform="matrix(0.212998,0.000000,0.000000,0.215784,30.99602,30.05108)" />
      <path
         d="M 177.74724,-8.3664559 C 161.66964,-39.916856 107.85251,-63.146215 43.743707,-63.146215 C -20.365093,-63.146215 -74.187247,-39.916856 -90.259807,-8.3664559"
         style="fill:none;stroke:#000000;stroke-width:5.8750000;stroke-linecap:round;stroke-miterlimit:4.0000000;stroke-opacity:0.024489762"
         id="path17087"
         sodipodi:nodetypes="ccc"
         transform="matrix(0.212998,0.000000,0.000000,0.215784,30.99602,30.05108)" />
      <path
         d="M 177.74724,-8.3664559 C 161.66964,-39.916856 107.85251,-63.146215 43.743707,-63.146215 C -20.365093,-63.146215 -74.187247,-39.916856 -90.259807,-8.3664559"
         style="fill:none;stroke:#000000;stroke-width:5.0000000;stroke-linecap:round;stroke-miterlimit:4.0000000;stroke-opacity:0.024489762"
         id="path17709"
         sodipodi:nodetypes="ccc"
         transform="matrix(0.212998,0.000000,0.000000,0.215784,30.99602,30.05108)" />
      <path
         d="M 177.74724,-8.3664559 C 161.66964,-39.916856 107.85251,-63.146215 43.743707,-63.146215 C -20.365093,-63.146215 -74.187247,-39.916856 -90.259807,-8.3664559"
         style="fill:none;stroke:#000000;stroke-width:3.8750000;stroke-linecap:round;stroke-miterlimit:4.0000000;stroke-opacity:0.024489762"
         id="path17710"
         sodipodi:nodetypes="ccc"
         transform="matrix(0.212998,0.000000,0.000000,0.215784,30.99602,30.05108)" />
      <path
         d="M 177.74724,-8.3664559 C 161.66964,-39.916856 107.85251,-63.146215 43.743707,-63.146215 C -20.365093,-63.146215 -74.187247,-39.916856 -90.259807,-8.3664559"
         style="fill:none;stroke:#000000;stroke-width:2.0000000;stroke-linecap:round;stroke-miterlimit:4.0000000;stroke-opacity:0.024489762"
         id="path17711"
         sodipodi:nodetypes="ccc"
         transform="matrix(0.212998,0.000000,0.000000,0.215784,30.99602,30.05108)" />
      <path
         d="M 177.74724,-8.3664559 C 161.66964,-39.916856 107.85251,-63.146215 43.743707,-63.146215 C -20.365093,-63.146215 -74.187247,-39.916856 -90.259807,-8.3664559"
         style="fill:none;stroke:#000000;stroke-width:1.3750000;stroke-linecap:round;stroke-miterlimit:4.0000000;stroke-opacity:0.024489762"
         id="path17712"
         sodipodi:nodetypes="ccc"
         transform="matrix(0.212998,0.000000,0.000000,0.215784,30.99602,30.05108)" />
      <path
         d="M 177.74724,-8.3664559 C 161.66964,-39.916856 107.85251,-63.146215 43.743707,-63.146215 C -20.365093,-63.146215 -74.187247,-39.916856 -90.259807,-8.3664559"
         style="fill:none;stroke:#000000;stroke-width:0.62500000;stroke-linecap:round;stroke-miterlimit:4.0000000;stroke-opacity:0.16326530"
         id="path17713"
         sodipodi:nodetypes="ccc"
         transform="matrix(0.212998,0.000000,0.000000,0.215784,30.99602,30.05108)" />
      <path
         d="M 69.061296,31.706183 C 64.987559,38.719810 47.979726,42.620479 36.706526,41.928288 C 25.505396,41.236097 11.613113,36.015249 8.3464658,27.072386 C 6.1838167,26.630758 8.7555510,30.776340 9.2183186,31.658941 C 12.662908,38.228541 19.529986,44.144348 35.980783,45.061510 C 52.230392,45.978672 62.574472,42.164626 68.347937,34.553562 C 70.380168,31.874507 70.177758,30.151193 69.061296,31.706183 z "
         style="fill:url(#radialGradient1352);fill-opacity:1.0000000"
         id="path17906"
         sodipodi:nodetypes="czcszsc" />
    </g>
  </g>
</svg>
