<?xml version="1.0" encoding="UTF-8" standalone="no"?>
<!DOCTYPE svg PUBLIC "-//W3C//DTD SVG 20010904//EN"
"http://www.w3.org/TR/2001/REC-SVG-20010904/DTD/svg10.dtd">
<!-- Created with Inkscape (http://www.inkscape.org/) -->
<svg
   width="64pt"
   height="64pt"
   id="svg7177"
   sodipodi:version="0.32"
   inkscape:version="0.40"
   sodipodi:docbase="/home/nuno/kdeplayground-artwork/oooicons/crystalsvg"
   sodipodi:docname="sheetframeoutline.svg"
   inkscape:export-filename="/home/nuno/kdeplayground-artwork/oooicons/crystalsvg/sheetframetreeh.png"
   inkscape:export-xdpi="36.000000"
   inkscape:export-ydpi="36.000000"
   xmlns="http://www.w3.org/2000/svg"
   xmlns:cc="http://web.resource.org/cc/"
   xmlns:inkscape="http://www.inkscape.org/namespaces/inkscape"
   xmlns:sodipodi="http://sodipodi.sourceforge.net/DTD/sodipodi-0.dtd"
   xmlns:rdf="http://www.w3.org/1999/02/22-rdf-syntax-ns#"
   xmlns:dc="http://purl.org/dc/elements/1.1/"
   xmlns:xlink="http://www.w3.org/1999/xlink">
  <defs
     id="defs3">
    <linearGradient
       id="sadow75to0w">
      <stop
         style="stop-color:#000000;stop-opacity:0.72941178;"
         offset="0.0000000"
         id="stop3429" />
      <stop
         style="stop-color:#ffffff;stop-opacity:0.0000000;"
         offset="1.0000000"
         id="stop3430" />
    </linearGradient>
    <linearGradient
       inkscape:collect="always"
       xlink:href="#sadow75to0w"
       id="linearGradient4612"
       gradientTransform="matrix(0.213606,0.000000,0.000000,0.212485,1.762993e-3,-2.832157e-2)"
       x1="331.17322"
       y1="353.16104"
       x2="-493.08487"
       y2="-260.67661"
       gradientUnits="userSpaceOnUse" />
    <linearGradient
       id="bludraktowhite"
       gradientUnits="userSpaceOnUse"
       x1="33.332001"
       y1="10.305200"
       x2="33.332001"
       y2="91.407700">
      <stop
         offset="0"
         style="stop-color:rgb(255,255,255)"
         id="stop7271" />
      <stop
         offset="1"
         style="stop-color:rgb(84,84,119)"
         id="stop7273" />
    </linearGradient>
    <linearGradient
       inkscape:collect="always"
       xlink:href="#bludraktowhite"
       id="linearGradient4608"
       gradientTransform="matrix(0.213606,0.000000,0.000000,0.212485,1.762993e-3,-2.832157e-2)"
       x1="39.627018"
       y1="31.862537"
       x2="344.38776"
       y2="356.44501"
       gradientUnits="userSpaceOnUse" />
    <linearGradient
       inkscape:collect="always"
       xlink:href="#blacktowhite"
       id="linearGradient5301"
       gradientTransform="matrix(0.970068,0.000000,0.000000,6.737592e-2,-15.03736,-0.538949)"
       x1="97.556000"
       y1="139.88669"
       x2="3.5626490"
       y2="-99.779945"
       gradientUnits="userSpaceOnUse" />
    <linearGradient
       id="blacktowhite">
      <stop
         style="stop-color:#000000;stop-opacity:1.0000000;"
         offset="0.0000000"
         id="stop2476" />
      <stop
         style="stop-color:#ffffff;stop-opacity:1.0000000;"
         offset="1.0000000"
         id="stop2475" />
    </linearGradient>
    <linearGradient
       inkscape:collect="always"
       xlink:href="#blacktowhite"
       id="linearGradient5305"
       gradientTransform="scale(3.480034,0.287354)"
       x1="21.339064"
       y1="24.810333"
       x2="-13.306177"
       y2="-19.919127"
       gradientUnits="userSpaceOnUse" />
    <radialGradient
       inkscape:collect="always"
       xlink:href="#light100to0"
       id="radialGradient7174"
       gradientTransform="matrix(0.758735,0.000000,0.000000,8.614235e-2,-15.31456,69.94626)"
       cx="119.75493"
       cy="99.614128"
       fx="119.75493"
       fy="99.614128"
       r="63.534580"
       gradientUnits="userSpaceOnUse" />
    <linearGradient
       id="light100to0">
      <stop
         style="stop-color:#ffffff;stop-opacity:1.0000000;"
         offset="0.0000000"
         id="stop2764" />
      <stop
         style="stop-color:#ffffff;stop-opacity:0.0000000;"
         offset="1.0000000"
         id="stop2765" />
    </linearGradient>
    <linearGradient
       inkscape:collect="always"
       xlink:href="#blacktowhite"
       id="linearGradient8458"
       gradientUnits="userSpaceOnUse"
       gradientTransform="matrix(0.889687,0.000000,0.000000,7.346327e-2,-15.03736,34.46105)"
       x1="100.07494"
       y1="53.016560"
       x2="-35.145607"
       y2="-70.577881" />
    <linearGradient
       inkscape:collect="always"
       xlink:href="#blacktowhite"
       id="linearGradient8459"
       gradientUnits="userSpaceOnUse"
       gradientTransform="matrix(0.970068,0.000000,0.000000,6.737592e-2,-15.03736,34.46105)"
       x1="97.556000"
       y1="139.88669"
       x2="3.5626490"
       y2="-99.779945" />
    <linearGradient
       inkscape:collect="always"
       xlink:href="#light100to0"
       id="linearGradient8460"
       gradientUnits="userSpaceOnUse"
       gradientTransform="matrix(4.926332,0.000000,0.000000,0.202991,0.000000,35.00000)"
       x1="8.2462692"
       y1="3.5231113"
       x2="9.3455286"
       y2="38.942432" />
    <radialGradient
       inkscape:collect="always"
       xlink:href="#light100to0"
       id="radialGradient8461"
       gradientUnits="userSpaceOnUse"
       gradientTransform="matrix(0.758735,0.000000,0.000000,8.614235e-2,-15.03728,34.46103)"
       cx="119.75493"
       cy="99.614128"
       fx="119.75493"
       fy="99.614128"
       r="63.534580" />
    <radialGradient
       inkscape:collect="always"
       xlink:href="#light100to0"
       id="radialGradient8462"
       gradientUnits="userSpaceOnUse"
       gradientTransform="matrix(-0.485027,0.000000,0.000000,4.935556e-2,47.25421,38.16247)"
       cx="119.75493"
       cy="99.614128"
       fx="119.75493"
       fy="99.614128"
       r="63.534580" />
    <linearGradient
       inkscape:collect="always"
       xlink:href="#light100to0"
       id="linearGradient1728"
       gradientUnits="userSpaceOnUse"
       gradientTransform="matrix(4.281295,0.000000,0.000000,0.202991,5.961584,70.28375)"
       x1="8.2462692"
       y1="3.5231113"
       x2="9.3455286"
       y2="38.942432" />
    <linearGradient
       inkscape:collect="always"
       xlink:href="#light100to0"
       id="linearGradient2354"
       gradientTransform="matrix(2.593979,0.000000,0.000000,0.385508,0.226674,7.180700e-2)"
       x1="-3.2411296"
       y1="-10.973456"
       x2="7.4121118"
       y2="-10.973456"
       gradientUnits="userSpaceOnUse" />
    <linearGradient
       inkscape:collect="always"
       xlink:href="#light100to0"
       id="linearGradient2356"
       gradientUnits="userSpaceOnUse"
       gradientTransform="matrix(4.857623,0.000000,0.000000,0.202991,0.754490,-0.116250)"
       x1="8.2462692"
       y1="3.5231113"
       x2="9.3455286"
       y2="38.942432" />
    <radialGradient
       inkscape:collect="always"
       xlink:href="#light100to0"
       id="radialGradient2358"
       gradientUnits="userSpaceOnUse"
       gradientTransform="matrix(0.758735,0.000000,0.000000,-8.614235e-2,-18.31091,14.85496)"
       cx="119.75493"
       cy="99.614128"
       fx="119.75493"
       fy="99.614128"
       r="63.534580" />
    <radialGradient
       inkscape:collect="always"
       xlink:href="#light100to0"
       id="radialGradient3605"
       gradientTransform="scale(1.008692,0.991383)"
       cx="76.876366"
       cy="78.323601"
       fx="76.876366"
       fy="78.323601"
       r="48.133453"
       gradientUnits="userSpaceOnUse" />
    <linearGradient
       inkscape:collect="always"
       xlink:href="#light100to0"
       id="linearGradient4227"
       gradientTransform="scale(2.381814,0.419848)"
       x1="0.59786308"
       y1="194.76329"
       x2="24.393801"
       y2="167.46201"
       gradientUnits="userSpaceOnUse" />
  </defs>
  <sodipodi:namedview
     id="base"
     pagecolor="#ffffff"
     bordercolor="#666666"
     borderopacity="1.0"
     inkscape:pageopacity="0.0"
     inkscape:pageshadow="2"
     inkscape:zoom="11.640625"
     inkscape:cx="32.000000"
     inkscape:cy="33.018577"
     inkscape:current-layer="layer1"
     showgrid="true"
     inkscape:grid-bbox="true"
     gridspacingy="1.0000000pt"
     gridspacingx="1.0000000pt"
     gridoriginy="0.0000000pt"
     gridoriginx="0.0000000pt"
     inkscape:window-width="1280"
     inkscape:window-height="904"
     inkscape:window-x="0"
     inkscape:window-y="25" />
  <metadata
     id="metadata4">
    <rdf:RDF
       id="RDF5">
      <cc:Work
         rdf:about=""
         id="Work6">
        <dc:format
           id="format7">image/svg+xml</dc:format>
        <dc:type
           id="type9"
           rdf:resource="http://purl.org/dc/dcmitype/StillImage" />
      </cc:Work>
    </rdf:RDF>
  </metadata>
  <g
     id="layer1"
     inkscape:label="Layer 1"
     inkscape:groupmode="layer">
    <path
       style="fill:url(#linearGradient4608);fill-opacity:1.0000000;fill-rule:evenodd;stroke:url(#linearGradient4612);stroke-width:1.2116964;stroke-linecap:butt;stroke-linejoin:round;stroke-miterlimit:4.0000000;stroke-opacity:1.0000000"
       d="M 3.8769081,3.8367909 L 3.7808482,76.159865 L 76.390259,76.159865 L 76.486320,3.8367909 L 3.8769081,3.8367909 z M 4.5373231,4.4945995 L 39.659288,4.4945995 L 39.659288,39.573741 L 4.4892927,39.573741 L 4.5373231,4.4945995 z M 40.319701,4.4945995 L 75.825907,4.4945995 L 75.777877,39.573741 L 40.319701,39.573741 L 40.319701,4.4945995 z M 4.4892927,40.231553 L 39.659288,40.231553 L 39.659288,75.502056 L 4.4412590,75.502056 L 4.4892927,40.231553 z M 40.319701,40.231553 L 75.777877,40.231553 L 75.729845,75.502056 L 40.319701,75.502056 L 40.319701,40.231553 z "
       id="path2111"
       sodipodi:nodetypes="ccccccccccccccccccccccccc" />
    <path
       style="fill:url(#linearGradient5305);fill-opacity:1.0;fill-rule:evenodd;stroke:url(#linearGradient5301);stroke-width:1.3262085;stroke-linecap:round;stroke-linejoin:miter;stroke-miterlimit:4.0000000;stroke-opacity:1.0000000;"
       d="M 75.718750,1.5937500 L 4.1875000,1.7812500 C 3.0472040,1.7666939 1.9798284,2.3619889 1.4062500,3.3437500 C 1.0405084,3.9697678 1.0669135,4.6436500 1.0637694,5.3450194 L 1.0736822,74.952490 C 1.0743797,75.501080 1.2381359,76.056084 1.5261725,76.546240 C 2.1022445,77.526550 3.0472430,78.111185 4.1875000,78.093750 L 75.726245,78.099855 C 76.866543,78.114411 77.926421,77.294262 78.500000,76.312500 C 78.759206,75.868831 78.881895,75.370376 78.906250,74.875000 C 78.906250,74.875000 78.728404,4.1940430 78.687500,3.8437500 C 78.658927,3.5990519 78.629447,3.3452811 78.500000,3.1250000 C 77.923926,2.1446886 76.859008,1.5763178 75.718750,1.5937500 z M 73.062500,7.8750000 L 73.031250,71.593750 L 6.7500000,71.781250 L 6.9687500,8.0937500 L 73.062500,7.8750000 z "
       id="path5296"
       sodipodi:nodetypes="ccccccccccsscccccc" />
    <path
       style="fill:url(#linearGradient2354);fill-opacity:1.0000000;fill-rule:evenodd;stroke:none;stroke-width:3.5671833;stroke-linecap:round;stroke-linejoin:miter;stroke-miterlimit:4.0000000;stroke-opacity:1.0000000"
       d="M 75.056375,1.3265614 L 4.8425555,1.5452774 C 3.7178465,1.5381104 2.6724885,1.8325004 2.1067535,2.3157204 C 1.5410145,2.7989444 1.2240027,4.0141176 1.2516721,4.7377108 C 1.3048117,6.1273856 1.0853576,40.717044 1.2316458,43.318792 C 4.0441014,43.013784 1.7408202,4.7029609 5.1726001,4.5382689 C 6.5892598,4.4702829 45.894636,2.8736384 75.064272,2.9156774 C 77.137260,2.8283904 76.750014,1.2235274 75.056375,1.3265614 z "
       id="path5306"
       sodipodi:nodetypes="cccscscc" />
    <path
       style="fill:url(#radialGradient7174);fill-opacity:1.0000000;fill-rule:evenodd;stroke:none;stroke-width:3.5671833;stroke-linecap:round;stroke-linejoin:miter;stroke-miterlimit:4.0000000;stroke-opacity:1.0000000"
       d="M 41.281905,78.564404 C 46.257530,78.758588 69.478999,78.316714 75.118416,78.321990 C 76.334277,78.325574 77.193007,78.170010 77.854219,77.551546 C 78.446642,77.001602 78.624334,75.502516 78.340236,75.261264 C 76.886710,74.197784 78.099903,76.691778 75.542503,77.194075 C 70.977615,78.090662 48.577080,78.167808 41.636991,78.120585 C 41.094366,78.107619 41.280558,78.680770 41.281905,78.564404 z "
       id="path6551"
       sodipodi:nodetypes="ccccscc" />
    <path
       style="fill:url(#linearGradient4227);fill-opacity:1.0;fill-rule:evenodd;stroke:none;stroke-width:3.5671833;stroke-linecap:round;stroke-linejoin:miter;stroke-miterlimit:4.0000000;stroke-opacity:1.0000000;"
       d="M 40.091334,78.203016 C 34.840715,78.577133 10.312997,78.189916 4.3619042,78.200081 C 3.0788386,78.206988 2.1726519,77.675223 1.4749022,76.483686 C 0.84973010,75.424155 0.64606338,73.080928 1.0891180,72.193144 C 2.4327724,69.500769 2.1992112,74.873654 3.9372463,75.562926 C 8.7382250,77.466897 32.392972,77.438927 39.716620,77.347948 C 40.289236,77.322967 40.092751,78.427205 40.091334,78.203016 z "
       id="path7175"
       sodipodi:nodetypes="cccsscc" />
    <path
       style="fill:url(#linearGradient1728);fill-opacity:1.0000000;fill-rule:evenodd;stroke:none;stroke-width:3.5671833;stroke-linecap:round;stroke-linejoin:miter;stroke-miterlimit:4.0000000;stroke-opacity:1.0000000"
       d="M 71.265669,71.631805 L 10.245407,71.850521 C 9.2679635,71.843354 8.3594811,72.137744 7.8678216,72.620964 C 7.3761584,73.104188 7.3774803,73.701385 7.8712796,74.183894 C 8.3650805,74.666402 9.2748569,74.959475 10.252270,74.950895 C 23.405681,76.598645 45.922269,73.178882 71.272533,73.220921 C 73.074090,73.133634 72.737549,71.528771 71.265669,71.631805 z "
       id="path1727"
       sodipodi:nodetypes="ccccccc" />
    <path
       style="fill:url(#linearGradient2356);fill-opacity:1.0000000;fill-rule:evenodd;stroke:none;stroke-width:3.5671833;stroke-linecap:round;stroke-linejoin:miter;stroke-miterlimit:4.0000000;stroke-opacity:1.0000000"
       d="M 74.849510,1.2318050 L 5.6149811,1.4505211 C 4.5059586,1.4433540 3.4751806,1.7377440 2.9173361,2.2209640 C 2.3594874,2.7041880 2.3609873,3.3013850 2.9212596,3.7838940 C 3.4815337,4.2664020 4.5137800,4.5594750 5.6227680,4.5508950 C 20.546831,6.1986450 46.094498,2.7788821 74.857298,2.8209210 C 76.901372,2.7336340 76.519528,1.1287710 74.849510,1.2318050 z "
       id="path2355"
       sodipodi:nodetypes="ccccccc" />
    <path
       style="fill:url(#radialGradient2358);fill-opacity:1.0000000;fill-rule:evenodd;stroke:none;stroke-width:3.5671833;stroke-linecap:round;stroke-linejoin:miter;stroke-miterlimit:4.0000000;stroke-opacity:1.0000000"
       d="M 38.500317,7.4180283 C 43.475942,7.2238443 67.519572,6.3431112 73.158989,6.3378352 C 74.374850,6.3342512 74.508668,6.3492495 74.920710,7.2496782 C 75.335429,8.1559578 73.671601,10.173335 73.183260,10.084656 C 72.923770,9.4199256 73.628426,7.6638903 72.876081,7.6542822 C 68.327260,7.5949511 45.795492,7.8146243 38.855403,7.8618473 C 38.312778,7.8748133 38.279016,7.3645063 38.500317,7.4180283 z "
       id="path2357"
       sodipodi:nodetypes="cczcscc" />
    <path
       style="fill:url(#radialGradient3605);fill-opacity:1.0;fill-rule:evenodd;stroke:none;stroke-width:1.3262085;stroke-linecap:round;stroke-linejoin:miter;stroke-miterlimit:4.0000000;stroke-opacity:1.0000000;"
       d="M 75.718750,1.5937500 L 4.5096476,1.9960151 C 3.3693516,1.9814590 2.3019760,2.5767540 1.7283976,3.5585151 C 1.3626560,4.1845329 1.3890611,4.8584151 1.3859170,5.5597847 L 1.0736822,74.952490 C 1.0743797,75.501080 1.2381359,76.056084 1.5261725,76.546240 C 2.1022445,77.526550 3.0472430,78.111185 4.1875000,78.093750 L 75.726245,78.099855 C 76.866543,78.114411 77.926421,77.294262 78.500000,76.312500 C 78.759206,75.868831 78.881895,75.370376 78.906250,74.875000 C 78.906250,74.875000 78.728404,4.1940430 78.687500,3.8437500 C 78.658927,3.5990519 78.629447,3.3452811 78.500000,3.1250000 C 77.923926,2.1446886 76.859008,1.5763178 75.718750,1.5937500 z M 73.062500,7.8750000 L 73.031250,71.593750 L 6.7500000,71.781250 L 7.2908981,8.3085147 L 73.062500,7.8750000 z "
       id="path2980"
       sodipodi:nodetypes="ccccccccccsscccccc" />
  </g>
</svg>
