<?xml version="1.0" encoding="UTF-8" standalone="no"?>
<!DOCTYPE svg PUBLIC "-//W3C//DTD SVG 20010904//EN"
"http://www.w3.org/TR/2001/REC-SVG-20010904/DTD/svg10.dtd">
<!-- Created with Inkscape (http://www.inkscape.org/) -->
<svg
   width="64pt"
   height="64pt"
   id="svg10519"
   sodipodi:version="0.32"
   inkscape:version="0.40"
   sodipodi:docbase="/home/nuno/kdeplayground-artwork/oooicons/crystalsvg"
   sodipodi:docname="sheetcell.svg"
   inkscape:export-filename="/home/nuno/kdeplayground-artwork/oooicons/crystalsvg/sheetedit.png"
   inkscape:export-xdpi="36.000000"
   inkscape:export-ydpi="36.000000"
   xmlns="http://www.w3.org/2000/svg"
   xmlns:cc="http://web.resource.org/cc/"
   xmlns:inkscape="http://www.inkscape.org/namespaces/inkscape"
   xmlns:sodipodi="http://sodipodi.sourceforge.net/DTD/sodipodi-0.dtd"
   xmlns:rdf="http://www.w3.org/1999/02/22-rdf-syntax-ns#"
   xmlns:dc="http://purl.org/dc/elements/1.1/"
   xmlns:xlink="http://www.w3.org/1999/xlink">
  <defs
     id="defs3">
    <radialGradient
       cx="38.797401"
       cy="112.96090"
       r="67.358803"
       fx="38.797401"
       fy="112.96090"
       id="bluelightlesstoblue"
       gradientUnits="userSpaceOnUse">
      <stop
         style="stop-color:#d9ffff;stop-opacity:1.0000000;"
         offset="0.0055999998"
         id="stop3468" />
      <stop
         style="stop-color:#6eaafe;stop-opacity:1.0000000;"
         offset="0.24089479"
         id="stop3469" />
      <stop
         style="stop-color:#0356fe;stop-opacity:1.0000000;"
         offset="1.0000000"
         id="stop3470" />
    </radialGradient>
    <linearGradient
       x1="-229.39058"
       y1="289.30027"
       x2="-203.84911"
       y2="289.30027"
       id="linearGradient3471"
       collect="always"
       xlink:href="#bluelightlesstoblue"
       gradientTransform="matrix(1.395481,0.000000,0.000000,0.716599,337.6102,-241.4638)"
       gradientUnits="userSpaceOnUse" />
    <radialGradient
       inkscape:collect="always"
       xlink:href="#light75to0"
       id="radialGradient3045"
       gradientUnits="userSpaceOnUse"
       gradientTransform="matrix(1.240403,0.000000,0.000000,0.604175,30.13336,40.27244)"
       cx="17.741598"
       cy="31.723280"
       fx="17.741598"
       fy="31.723280"
       r="9.2936869" />
    <linearGradient
       inkscape:collect="always"
       xlink:href="#light75to0"
       id="linearGradient3044"
       gradientUnits="userSpaceOnUse"
       gradientTransform="matrix(1.369847,0.000000,0.000000,0.612232,29.63072,39.03476)"
       x1="5.6831765"
       y1="21.673885"
       x2="14.964557"
       y2="41.796101" />
    <linearGradient
       inkscape:collect="always"
       xlink:href="#garylighttowite"
       id="linearGradient3043"
       gradientUnits="userSpaceOnUse"
       gradientTransform="matrix(1.244638,0.000000,0.000000,0.606608,30.07549,40.40008)"
       x1="14.699177"
       y1="30.518322"
       x2="-0.95806932"
       y2="6.8631005" />
    <linearGradient
       inkscape:collect="always"
       xlink:href="#greantodarkgrean"
       id="linearGradient3042"
       gradientUnits="userSpaceOnUse"
       gradientTransform="matrix(1.532913,0.000000,0.000000,0.747081,-47.75255,-170.5086)"
       x1="56.601124"
       y1="298.93405"
       x2="63.028267"
       y2="306.94720" />
    <radialGradient
       inkscape:collect="always"
       xlink:href="#light75to0"
       id="radialGradient3236"
       gradientUnits="userSpaceOnUse"
       gradientTransform="matrix(1.213154,0.000000,0.000000,0.959608,-2.530497,2.130981)"
       cx="54.483288"
       cy="66.623512"
       fx="54.483288"
       fy="66.623512"
       r="22.013363" />
    <linearGradient
       inkscape:collect="always"
       xlink:href="#light75to0"
       id="linearGradient3235"
       gradientUnits="userSpaceOnUse"
       gradientTransform="matrix(1.268188,0.000000,0.000000,0.903029,-110.8093,-179.8958)"
       x1="65.492790"
       y1="177.25127"
       x2="128.39543"
       y2="264.10431" />
    <linearGradient
       id="greantodarkgrean">
      <stop
         style="stop-color:#00ff01;stop-opacity:1.0000000;"
         offset="0.0000000"
         id="stop5123" />
      <stop
         style="stop-color:#15980f;stop-opacity:1.0000000;"
         offset="1.0000000"
         id="stop5124" />
    </linearGradient>
    <radialGradient
       inkscape:collect="always"
       xlink:href="#light75to0"
       id="radialGradient3234"
       gradientUnits="userSpaceOnUse"
       gradientTransform="matrix(1.223268,0.000000,0.000000,0.959608,-3.341322,2.556104)"
       cx="57.165112"
       cy="68.958160"
       fx="57.165112"
       fy="68.958160"
       r="32.893520" />
    <radialGradient
       inkscape:collect="always"
       xlink:href="#light75to0"
       id="radialGradient3233"
       gradientUnits="userSpaceOnUse"
       gradientTransform="matrix(0.809617,0.000000,0.000000,0.604175,-0.148899,49.89457)"
       cx="17.741598"
       cy="31.723280"
       fx="17.741598"
       fy="31.723280"
       r="9.2936869" />
    <linearGradient
       inkscape:collect="always"
       xlink:href="#light75to0"
       id="linearGradient3232"
       gradientUnits="userSpaceOnUse"
       gradientTransform="matrix(0.894105,0.000000,0.000000,0.612232,-0.583247,48.73515)"
       x1="5.6831765"
       y1="21.673885"
       x2="14.964557"
       y2="41.796101" />
    <linearGradient
       inkscape:collect="always"
       xlink:href="#garylighttowite"
       id="linearGradient3231"
       gradientUnits="userSpaceOnUse"
       gradientTransform="matrix(0.812381,0.000000,0.000000,0.606608,-0.292825,50.10045)"
       x1="14.699177"
       y1="30.518322"
       x2="-0.95806932"
       y2="6.8631005" />
    <linearGradient
       inkscape:collect="always"
       xlink:href="#garylighttowite"
       id="linearGradient3230"
       gradientUnits="userSpaceOnUse"
       gradientTransform="matrix(0.812395,0.000000,0.000000,0.606598,-0.292825,50.10045)"
       x1="22.979046"
       y1="53.585712"
       x2="6.4564261"
       y2="20.178543" />
    <radialGradient
       inkscape:collect="always"
       xlink:href="#light75to0"
       id="radialGradient3229"
       gradientUnits="userSpaceOnUse"
       gradientTransform="matrix(0.809617,0.000000,0.000000,0.604175,-2.799575e-2,40.59033)"
       cx="17.741598"
       cy="31.723280"
       fx="17.741598"
       fy="31.723280"
       r="9.2936869" />
    <linearGradient
       inkscape:collect="always"
       xlink:href="#light75to0"
       id="linearGradient3228"
       gradientUnits="userSpaceOnUse"
       gradientTransform="matrix(0.894105,0.000000,0.000000,0.612232,-0.583247,39.19146)"
       x1="5.6831765"
       y1="21.673885"
       x2="14.964557"
       y2="41.796101" />
    <linearGradient
       inkscape:collect="always"
       xlink:href="#garylighttowite"
       id="linearGradient3227"
       gradientUnits="userSpaceOnUse"
       gradientTransform="matrix(0.812381,0.000000,0.000000,0.606608,-0.292825,40.55677)"
       x1="14.699177"
       y1="30.518322"
       x2="-0.95806932"
       y2="6.8631005" />
    <linearGradient
       inkscape:collect="always"
       xlink:href="#garylighttowite"
       id="linearGradient3226"
       gradientUnits="userSpaceOnUse"
       gradientTransform="matrix(0.812395,0.000000,0.000000,0.606598,-0.292825,40.55677)"
       x1="22.979046"
       y1="53.585712"
       x2="6.4564261"
       y2="20.178543" />
    <radialGradient
       inkscape:collect="always"
       xlink:href="#light75to0"
       id="radialGradient3221"
       gradientUnits="userSpaceOnUse"
       gradientTransform="matrix(0.809617,0.000000,0.000000,0.604175,-0.270017,21.38296)"
       cx="17.741598"
       cy="31.723280"
       fx="17.741598"
       fy="31.723280"
       r="9.2936869" />
    <linearGradient
       inkscape:collect="always"
       xlink:href="#light75to0"
       id="linearGradient3220"
       gradientUnits="userSpaceOnUse"
       gradientTransform="matrix(0.894105,0.000000,0.000000,0.612232,-0.583247,20.10387)"
       x1="5.6831765"
       y1="21.673885"
       x2="14.964557"
       y2="41.796101" />
    <linearGradient
       inkscape:collect="always"
       xlink:href="#garylighttowite"
       id="linearGradient3219"
       gradientUnits="userSpaceOnUse"
       gradientTransform="matrix(0.812381,0.000000,0.000000,0.606608,-0.292825,21.46919)"
       x1="14.699177"
       y1="30.518322"
       x2="-0.95806932"
       y2="6.8631005" />
    <linearGradient
       inkscape:collect="always"
       xlink:href="#garylighttowite"
       id="linearGradient3218"
       gradientUnits="userSpaceOnUse"
       gradientTransform="matrix(0.812395,0.000000,0.000000,0.606598,-0.292825,21.46919)"
       x1="22.979046"
       y1="53.585712"
       x2="6.4564261"
       y2="20.178543" />
    <radialGradient
       inkscape:collect="always"
       xlink:href="#light75to0"
       id="radialGradient3217"
       gradientUnits="userSpaceOnUse"
       gradientTransform="matrix(0.809617,0.000000,0.000000,0.604175,9.301440e-2,12.09416)"
       cx="17.741598"
       cy="31.723280"
       fx="17.741598"
       fy="31.723280"
       r="9.2936869" />
    <linearGradient
       inkscape:collect="always"
       xlink:href="#light75to0"
       id="linearGradient3216"
       gradientUnits="userSpaceOnUse"
       gradientTransform="matrix(0.894105,0.000000,0.000000,0.612232,-0.583247,10.57540)"
       x1="5.6831765"
       y1="21.673885"
       x2="14.964557"
       y2="41.796101" />
    <linearGradient
       inkscape:collect="always"
       xlink:href="#garylighttowite"
       id="linearGradient3215"
       gradientUnits="userSpaceOnUse"
       gradientTransform="matrix(0.812381,0.000000,0.000000,0.606608,-0.292825,11.94073)"
       x1="14.699177"
       y1="30.518322"
       x2="-0.95806932"
       y2="6.8631005" />
    <linearGradient
       inkscape:collect="always"
       xlink:href="#garylighttowite"
       id="linearGradient3214"
       gradientUnits="userSpaceOnUse"
       gradientTransform="matrix(0.812395,0.000000,0.000000,0.606598,-0.292825,11.94073)"
       x1="22.979046"
       y1="53.585712"
       x2="6.4564261"
       y2="20.178543" />
    <linearGradient
       id="bludraktowhite"
       gradientUnits="userSpaceOnUse"
       x1="33.332001"
       y1="10.305200"
       x2="33.332001"
       y2="91.407700">
      <stop
         offset="0"
         style="stop-color:rgb(255,255,255)"
         id="stop7271" />
      <stop
         offset="1"
         style="stop-color:rgb(84,84,119)"
         id="stop7273" />
    </linearGradient>
    <linearGradient
       id="light75to0">
      <stop
         style="stop-color:#ffffff;stop-opacity:0.72916669;"
         offset="0.0000000"
         id="stop2769" />
      <stop
         style="stop-color:#ffffff;stop-opacity:0.0000000;"
         offset="1.0000000"
         id="stop2770" />
    </linearGradient>
    <linearGradient
       id="greandarktobgrean">
      <stop
         style="stop-color:#00ad01;stop-opacity:1.0000000;"
         offset="0.0000000"
         id="stop4492" />
      <stop
         style="stop-color:#15720f;stop-opacity:1.0000000;"
         offset="1.0000000"
         id="stop4493" />
    </linearGradient>
    <linearGradient
       inkscape:collect="always"
       xlink:href="#garylighttowite"
       id="linearGradient3197"
       gradientUnits="userSpaceOnUse"
       gradientTransform="matrix(1.249667,0.000000,0.000000,1.020100,-11.52162,1.249013)"
       x1="60.118301"
       y1="60.763058"
       x2="22.065891"
       y2="17.787029" />
    <linearGradient
       id="garylighttowite">
      <stop
         style="stop-color:#7d7d7d;stop-opacity:1.0000000;"
         offset="0.0000000"
         id="stop5106" />
      <stop
         style="stop-color:#d3d4d4;stop-opacity:1.0000000;"
         offset="1.0000000"
         id="stop5107" />
    </linearGradient>
    <linearGradient
       inkscape:collect="always"
       xlink:href="#garylighttowite"
       id="linearGradient3196"
       gradientUnits="userSpaceOnUse"
       gradientTransform="matrix(1.249667,0.000000,0.000000,1.020100,-11.52162,1.249013)"
       x1="58.493671"
       y1="51.058720"
       x2="9.8675079"
       y2="8.7825632" />
    <linearGradient
       id="graytolightgray">
      <stop
         style="stop-color:#d4d3d3;stop-opacity:1.0000000;"
         offset="0.0000000"
         id="stop5101" />
      <stop
         style="stop-color:#ffffff;stop-opacity:1.0000000;"
         offset="1.0000000"
         id="stop5102" />
    </linearGradient>
    <linearGradient
       inkscape:collect="always"
       xlink:href="#graytolightgray"
       id="linearGradient3195"
       gradientUnits="userSpaceOnUse"
       gradientTransform="matrix(1.220831,0.000000,0.000000,0.952514,-4.428959,1.945512)"
       x1="57.453247"
       y1="65.521439"
       x2="8.0769463"
       y2="17.892019" />
    <linearGradient
       id="linearGradient10759">
      <stop
         style="stop-color:#00ff01;stop-opacity:1.0000000;"
         offset="0.0000000"
         id="stop10760" />
      <stop
         style="stop-color:#15980f;stop-opacity:1.0000000;"
         offset="1.0000000"
         id="stop10761" />
    </linearGradient>
    <linearGradient
       id="linearGradient10755">
      <stop
         style="stop-color:#00ad01;stop-opacity:1.0000000;"
         offset="0.0000000"
         id="stop10756" />
      <stop
         style="stop-color:#15720f;stop-opacity:1.0000000;"
         offset="1.0000000"
         id="stop10757" />
    </linearGradient>
    <linearGradient
       id="light100to0">
      <stop
         style="stop-color:#ffffff;stop-opacity:1.0000000;"
         offset="0.0000000"
         id="stop2764" />
      <stop
         style="stop-color:#ffffff;stop-opacity:0.0000000;"
         offset="1.0000000"
         id="stop2765" />
    </linearGradient>
    <linearGradient
       inkscape:collect="always"
       xlink:href="#light75to0"
       id="linearGradient10826"
       gradientUnits="userSpaceOnUse"
       gradientTransform="matrix(1.369847,0.000000,0.000000,0.612232,49.66943,1.246668)"
       x1="5.6831765"
       y1="21.673885"
       x2="14.964557"
       y2="41.796101" />
    <linearGradient
       inkscape:collect="always"
       xlink:href="#bluelightlesstoblue"
       id="linearGradient10827"
       gradientUnits="userSpaceOnUse"
       gradientTransform="matrix(1.240045,0.000000,0.000000,0.604348,-8.848469,2.432276)"
       x1="51.899750"
       y1="16.215153"
       x2="64.908592"
       y2="31.783899" />
    <linearGradient
       inkscape:collect="always"
       xlink:href="#garylighttowite"
       id="linearGradient10828"
       gradientUnits="userSpaceOnUse"
       gradientTransform="matrix(1.244638,0.000000,0.000000,0.606608,50.11420,2.611998)"
       x1="14.699177"
       y1="30.518322"
       x2="-0.95806932"
       y2="6.8631005" />
    <linearGradient
       inkscape:collect="always"
       xlink:href="#light75to0"
       id="linearGradient10829"
       gradientUnits="userSpaceOnUse"
       gradientTransform="matrix(1.416636,0.000000,0.000000,0.612195,29.60202,1.158042)"
       x1="5.6831765"
       y1="21.673885"
       x2="14.964557"
       y2="41.796101" />
    <linearGradient
       inkscape:collect="always"
       xlink:href="#bluelightlesstoblue"
       id="linearGradient10830"
       gradientUnits="userSpaceOnUse"
       gradientTransform="matrix(1.481531,0.000000,0.000000,0.717201,-6.410892e-2,22.03241)"
       x1="24.260241"
       y1="-11.936115"
       x2="37.231518"
       y2="3.0705032" />
    <linearGradient
       inkscape:collect="always"
       xlink:href="#garylighttowite"
       id="linearGradient10831"
       gradientUnits="userSpaceOnUse"
       gradientTransform="matrix(1.253521,0.000000,0.000000,0.606843,30.19609,2.252410)"
       x1="14.699177"
       y1="30.518322"
       x2="-0.95806932"
       y2="6.8631005" />
    <linearGradient
       inkscape:collect="always"
       xlink:href="#light75to0"
       id="linearGradient10832"
       gradientUnits="userSpaceOnUse"
       gradientTransform="matrix(1.369847,0.000000,0.000000,0.612232,10.40722,1.016280)"
       x1="5.6831765"
       y1="21.673885"
       x2="14.964557"
       y2="41.796101" />
    <linearGradient
       inkscape:collect="always"
       xlink:href="#bluelightlesstoblue"
       id="linearGradient10833"
       gradientUnits="userSpaceOnUse"
       gradientTransform="matrix(1.471029,0.000000,0.000000,0.716920,0.437334,22.16925)"
       x1="10.626847"
       y1="-12.486367"
       x2="30.964518"
       y2="12.172108" />
    <linearGradient
       inkscape:collect="always"
       xlink:href="#garylighttowite"
       id="linearGradient10834"
       gradientUnits="userSpaceOnUse"
       gradientTransform="matrix(1.244638,0.000000,0.000000,0.606608,10.85199,2.381602)"
       x1="14.699177"
       y1="30.518322"
       x2="-0.95806932"
       y2="6.8631005" />
    <linearGradient
       inkscape:collect="always"
       xlink:href="#light75to0"
       id="linearGradient10835"
       gradientUnits="userSpaceOnUse"
       gradientTransform="matrix(0.894105,0.000000,0.000000,0.612232,-0.581311,1.033416)"
       x1="5.6831765"
       y1="21.673885"
       x2="14.964557"
       y2="41.796101" />
    <linearGradient
       inkscape:collect="always"
       xlink:href="#bluelightlesstoblue"
       id="linearGradient10836"
       gradientUnits="userSpaceOnUse"
       gradientTransform="matrix(1.188446,0.000000,0.000000,0.887387,0.437334,22.16925)"
       x1="2.4107552"
       y1="-9.3231096"
       x2="30.756163"
       y2="17.801140" />
    <linearGradient
       inkscape:collect="always"
       xlink:href="#garylighttowite"
       id="linearGradient10837"
       gradientUnits="userSpaceOnUse"
       gradientTransform="matrix(0.812381,0.000000,0.000000,0.606608,-0.290992,2.398737)"
       x1="14.699177"
       y1="30.518322"
       x2="-0.95806932"
       y2="6.8631005" />
    <linearGradient
       inkscape:collect="always"
       xlink:href="#garylighttowite"
       id="linearGradient13331"
       gradientUnits="userSpaceOnUse"
       gradientTransform="matrix(0.812987,0.000000,0.000000,0.614764,-0.522173,30.70446)"
       x1="22.979046"
       y1="53.585712"
       x2="6.4564261"
       y2="20.178543" />
    <linearGradient
       inkscape:collect="always"
       xlink:href="#garylighttowite"
       id="linearGradient13332"
       gradientUnits="userSpaceOnUse"
       gradientTransform="matrix(0.812972,0.000000,0.000000,0.614773,-0.522173,30.70446)"
       x1="14.699177"
       y1="30.518322"
       x2="-0.95806932"
       y2="6.8631005" />
    <linearGradient
       inkscape:collect="always"
       xlink:href="#light75to0"
       id="linearGradient13333"
       gradientUnits="userSpaceOnUse"
       gradientTransform="matrix(0.894756,0.000000,0.000000,0.620472,-0.812808,29.32074)"
       x1="5.6831765"
       y1="21.673885"
       x2="14.964557"
       y2="41.796101" />
    <radialGradient
       inkscape:collect="always"
       xlink:href="#light75to0"
       id="radialGradient13334"
       gradientUnits="userSpaceOnUse"
       gradientTransform="matrix(0.810207,0.000000,0.000000,0.612306,-0.257153,30.73844)"
       cx="17.741598"
       cy="31.723280"
       fx="17.741598"
       fy="31.723280"
       r="9.2936869" />
    <linearGradient
       x1="112.83246"
       y1="26.413313"
       x2="122.91101"
       y2="48.426991"
       id="linearGradient8535"
       xlink:href="#light100to0"
       gradientUnits="userSpaceOnUse"
       gradientTransform="matrix(0.317347,0.000000,0.000000,0.142307,7.750154,1.021211)" />
    <linearGradient
       id="linearGradient1968">
      <stop
         style="stop-color:#ffffff;stop-opacity:1.0000000;"
         offset="0.0000000"
         id="stop1969" />
      <stop
         style="stop-color:#ffffff;stop-opacity:0.0000000;"
         offset="1.0000000"
         id="stop1970" />
    </linearGradient>
    <linearGradient
       x1="63.510639"
       y1="263.33130"
       x2="48.348915"
       y2="299.38031"
       id="linearGradient6667"
       xlink:href="#blacktowhite"
       gradientUnits="userSpaceOnUse"
       gradientTransform="matrix(0.183056,0.000000,0.000000,0.265558,6.081840,0.841974)" />
    <linearGradient
       id="blacktowhite">
      <stop
         style="stop-color:#000000;stop-opacity:1.0000000;"
         offset="0.0000000"
         id="stop2476" />
      <stop
         style="stop-color:#ffffff;stop-opacity:1.0000000;"
         offset="1.0000000"
         id="stop2475" />
    </linearGradient>
    <linearGradient
       x1="55.499844"
       y1="94.234268"
       x2="113.51736"
       y2="-2.7694037"
       id="linearGradient1664"
       xlink:href="#orangetoyelow"
       gradientUnits="userSpaceOnUse"
       gradientTransform="matrix(0.988165,0.000000,0.000000,1.059038,-51.61257,-0.295980)" />
    <linearGradient
       id="orangetoyelow">
      <stop
         style="stop-color:#ff7d00;stop-opacity:1.0000000;"
         offset="0.0000000"
         id="stop2661" />
      <stop
         style="stop-color:#ffff00;stop-opacity:1.0000000;"
         offset="1.0000000"
         id="stop2662" />
    </linearGradient>
    <linearGradient
       x1="75.064339"
       y1="65.623413"
       x2="140.15146"
       y2="-37.592434"
       id="linearGradient1663"
       xlink:href="#orangetoyelow"
       gradientUnits="userSpaceOnUse"
       gradientTransform="matrix(0.988165,0.000000,0.000000,1.059038,-51.61257,-0.295980)" />
    <linearGradient
       x1="58.404800"
       y1="80.526398"
       x2="86.264603"
       y2="19.952200"
       id="linearGradient1662"
       xlink:href="#orangelesstoyelow"
       gradientUnits="userSpaceOnUse"
       gradientTransform="matrix(0.988165,0.000000,0.000000,1.059038,-51.61257,-0.295980)" />
    <linearGradient
       id="orangelesstoyelow">
      <stop
         style="stop-color:#ff7d00;stop-opacity:1.0000000;"
         offset="0.0000000"
         id="stop2689" />
      <stop
         style="stop-color:#ffbe00;stop-opacity:1.0000000;"
         offset="0.25358382"
         id="stop2690" />
      <stop
         style="stop-color:#ffff00;stop-opacity:1.0000000;"
         offset="1.0000000"
         id="stop2691" />
    </linearGradient>
    <linearGradient
       x1="68.581657"
       y1="9.0542183"
       x2="122.31405"
       y2="0.95772386"
       id="linearGradient1661"
       xlink:href="#orangetoblackorange"
       gradientUnits="userSpaceOnUse"
       gradientTransform="matrix(0.901330,0.434111,-0.405060,0.965975,-51.61257,-0.295980)" />
    <linearGradient
       id="orangetoblackorange">
      <stop
         style="stop-color:#ff8b00;stop-opacity:1.0000000;"
         offset="0.0000000"
         id="stop4207" />
      <stop
         style="stop-color:#4d0200;stop-opacity:1.0000000;"
         offset="1.0000000"
         id="stop4209" />
    </linearGradient>
    <linearGradient
       x1="54.536720"
       y1="96.837074"
       x2="91.471153"
       y2="66.370918"
       id="linearGradient12328"
       xlink:href="#shadow100to0"
       gradientUnits="userSpaceOnUse"
       gradientTransform="scale(1.373223,0.728214)" />
    <linearGradient
       id="shadow100to0">
      <stop
         style="stop-color:#000000;stop-opacity:1.0000000;"
         offset="0.0000000"
         id="stop3425" />
      <stop
         style="stop-color:#000000;stop-opacity:0.0000000;"
         offset="1.0000000"
         id="stop3426" />
    </linearGradient>
    <linearGradient
       x1="54.536720"
       y1="96.837074"
       x2="91.471153"
       y2="66.370918"
       id="linearGradient13579"
       xlink:href="#shadow100to0"
       gradientUnits="userSpaceOnUse"
       gradientTransform="scale(1.373223,0.728214)" />
  </defs>
  <sodipodi:namedview
     id="base"
     pagecolor="#ffffff"
     bordercolor="#666666"
     borderopacity="1.0"
     inkscape:pageopacity="0.0"
     inkscape:pageshadow="2"
     inkscape:zoom="5.5000000"
     inkscape:cx="31.138787"
     inkscape:cy="28.870017"
     inkscape:current-layer="layer1"
     showgrid="true"
     inkscape:grid-bbox="true"
     gridspacingy="1.0000000pt"
     gridspacingx="1.0000000pt"
     gridoriginy="0.0000000pt"
     gridoriginx="0.0000000pt"
     inkscape:window-width="640"
     inkscape:window-height="538"
     inkscape:window-x="0"
     inkscape:window-y="390" />
  <metadata
     id="metadata4">
    <rdf:RDF
       id="RDF5">
      <cc:Work
         rdf:about=""
         id="Work6">
        <dc:format
           id="format7">image/svg+xml</dc:format>
        <dc:type
           id="type9"
           rdf:resource="http://purl.org/dc/dcmitype/StillImage" />
      </cc:Work>
    </rdf:RDF>
  </metadata>
  <g
     id="layer1"
     inkscape:label="Layer 1"
     inkscape:groupmode="layer">
    <path
       style="fill:#000000;fill-opacity:0.14687498;stroke:none;stroke-width:3.1050050;stroke-linecap:round;stroke-linejoin:round;stroke-miterlimit:4.0000000;stroke-dashoffset:0.0000000;stroke-opacity:0.30312499"
       d="M 10.306112,18.120937 L 74.313665,18.120937 C 77.330197,18.120937 79.758651,20.458492 79.758651,23.362086 L 79.758651,69.735879 C 79.758651,72.639486 77.330197,74.977040 74.313665,74.977040 L 10.306112,74.977040 C 7.2895796,74.977040 4.8611157,72.639486 4.8611157,69.735879 L 4.8611157,23.362086 C 4.8611157,20.458492 7.2895796,18.120937 10.306112,18.120937 z "
       id="rect2426" />
    <path
       style="fill:url(#linearGradient3195);fill-opacity:1.0000000;stroke:#000000;stroke-width:3.3698714;stroke-linecap:round;stroke-linejoin:round;stroke-miterlimit:4.0000000;stroke-dashoffset:0.0000000;stroke-opacity:0.30312499"
       d="M 3.5831245,13.614069 L 74.120037,13.614069 C 74.866021,13.614069 75.466590,14.245757 75.466590,15.030418 L 75.466590,69.053811 C 75.466590,69.838471 74.866021,70.470171 74.120037,70.470171 L 3.5831245,70.470171 C 2.8371394,70.470171 2.2365714,69.838471 2.2365714,69.053811 L 2.2365714,15.030418 C 2.2365714,14.245757 2.8371394,13.614069 3.5831245,13.614069 z "
       id="rect8756" />
    <path
       style="fill:url(#linearGradient3042);fill-opacity:1.0000000;stroke:url(#linearGradient3043);stroke-width:1.2877146;stroke-linecap:round;stroke-linejoin:round;stroke-miterlimit:4.0000000;stroke-dashoffset:0.0000000;stroke-opacity:1.0000000"
       d="M 36.773031,51.881978 L 52.894667,51.881978 C 53.541652,51.881978 54.062504,52.515030 54.062504,53.301362 L 54.062504,58.602069 C 54.062504,59.388412 53.541652,60.021453 52.894667,60.021453 L 36.773031,60.021453 C 36.126049,60.021453 35.605189,59.388412 35.605189,58.602069 L 35.605189,53.301362 C 35.605189,52.515030 36.126049,51.881978 36.773031,51.881978 z "
       id="path3039" />
    <path
       style="fill:none;fill-opacity:1.0000000;fill-rule:evenodd;stroke:url(#linearGradient3196);stroke-width:1.0164361;stroke-linecap:butt;stroke-linejoin:round;stroke-miterlimit:4.0000000;stroke-opacity:1.0000000"
       d="M 74.245694,22.357285 L 15.472397,22.386766 L 15.226783,31.910852 L 74.245694,31.910852 L 74.245694,22.357285 z M 74.245694,41.228532 L 15.472397,41.258023 L 15.226783,50.782099 L 74.245694,50.782099 L 74.245694,41.228532 z M 74.210607,60.335667 L 15.437310,60.394639 L 15.226783,69.889245 L 74.210607,69.889245 L 74.210607,60.335667 z "
       id="path6216" />
    <path
       style="fill:url(#linearGradient3044);fill-opacity:1.0000000;fill-rule:evenodd;stroke:none;stroke-width:0.012500000;stroke-linecap:butt;stroke-linejoin:miter;stroke-miterlimit:4.0000000;stroke-opacity:1.0000000"
       d="M 35.895516,56.616846 C 35.897570,56.049792 35.899625,55.482740 35.901680,54.915686 C 35.903734,54.348644 35.905788,53.781591 35.907843,53.214539 C 35.897012,52.598159 36.069244,52.222470 36.548242,52.184546 C 38.136633,52.178808 39.725015,52.173069 41.313406,52.167330 C 42.901787,52.161592 44.490179,52.155842 46.078571,52.150104 C 46.007825,53.975659 39.212984,53.600406 38.265023,53.707789 C 36.526267,53.904741 37.818586,55.949608 35.895516,56.616846 z "
       id="path3040" />
    <path
       style="fill:none;fill-opacity:1.0000000;stroke:#000000;stroke-width:1.7580475;stroke-linecap:round;stroke-linejoin:round;stroke-miterlimit:4.0000000;stroke-dashoffset:0.0000000;stroke-opacity:0.31249997"
       d="M 4.4893601,13.415060 L 73.634617,13.415060 C 74.698092,13.415060 75.554234,14.220663 75.554234,15.221356 L 75.554234,69.028813 C 75.554234,70.029505 74.698092,70.835107 73.634617,70.835107 L 4.4893601,70.835107 C 3.4258967,70.835107 2.5697542,70.029505 2.5697542,69.028813 L 2.5697542,15.221356 C 2.5697542,14.220663 3.4258967,13.415060 4.4893601,13.415060 z "
       id="rect10003" />
    <path
       style="fill:url(#radialGradient3045);fill-opacity:1.0000000;stroke:none;stroke-width:1.4875000;stroke-linecap:round;stroke-linejoin:round;stroke-miterlimit:4.0000000;stroke-dashoffset:0.0000000;stroke-opacity:1.0000000"
       d="M 36.795887,51.720766 L 52.917522,51.720766 C 53.564506,51.720766 54.085368,52.353818 54.085368,53.140150 L 54.085368,58.440857 C 54.085368,59.227200 53.564506,59.860241 52.917522,59.860241 L 36.795887,59.860241 C 36.148905,59.860241 35.628050,59.227200 35.628050,58.440857 L 35.628050,53.140150 C 35.628050,52.353818 36.148905,51.720766 36.795887,51.720766 z "
       id="path3041" />
    <path
       style="fill:none;fill-opacity:1.0000000;fill-rule:evenodd;stroke:url(#linearGradient3197);stroke-width:1.1193662;stroke-linecap:butt;stroke-linejoin:round;stroke-miterlimit:4.0000000;stroke-opacity:1.0000000"
       d="M 15.332046,22.032934 L 15.402222,69.564894 L 35.157070,69.535402 L 35.051797,22.180369 L 15.332046,22.032934 z M 54.385582,22.386766 L 54.455758,69.918726 L 74.210607,69.889245 L 74.105333,22.534200 L 54.385582,22.386766 z "
       id="path6220" />
    <path
       style="fill:url(#linearGradient10836);fill-opacity:1.0000000;stroke:url(#linearGradient10837);stroke-width:1.3109280;stroke-linecap:round;stroke-linejoin:round;stroke-miterlimit:4.0000000;stroke-dashoffset:0.0000000;stroke-opacity:1.0000000"
       d="M 4.0804946,13.880662 L 14.603153,13.880662 C 15.025443,13.880662 15.365403,14.513713 15.365403,15.300045 L 15.365403,20.600752 C 15.365403,21.387095 15.025443,22.020136 14.603153,22.020136 L 4.0804946,22.020136 C 3.6582049,22.020136 3.3182457,21.387095 3.3182457,20.600752 L 3.3182457,15.300045 C 3.3182457,14.513713 3.6582049,13.880662 4.0804946,13.880662 z "
       id="rect1090" />
    <path
       style="fill:url(#linearGradient10835);fill-opacity:1.0000000;fill-rule:evenodd;stroke:none;stroke-width:0.012500000;stroke-linecap:butt;stroke-linejoin:miter;stroke-miterlimit:4.0000000;stroke-opacity:1.0000000"
       d="M 3.5077429,18.615529 C 3.5090768,18.048476 3.5104213,17.481423 3.5117659,16.914381 C 3.5130997,16.347328 3.5144443,15.780274 3.5157889,15.213222 C 3.5087111,14.596842 3.6211273,14.221153 3.9337759,14.183240 C 4.9705201,14.177491 6.0072752,14.171752 7.0440194,14.166014 C 8.0807744,14.160275 9.1175187,14.154537 10.154263,14.148787 C 10.108085,15.974353 5.6730598,15.599089 5.0543348,15.706472 C 3.9194375,15.903436 4.7629411,17.948301 3.5077429,18.615529 z "
       id="path3587" />
    <path
       style="fill:url(#linearGradient10833);fill-opacity:1.0000000;stroke:url(#linearGradient10834);stroke-width:1.2877146;stroke-linecap:round;stroke-linejoin:round;stroke-miterlimit:4.0000000;stroke-dashoffset:0.0000000;stroke-opacity:1.0000000"
       d="M 17.549489,13.863541 L 33.671124,13.863541 C 34.318106,13.863541 34.838958,14.496593 34.838958,15.282925 L 34.838958,20.583632 C 34.838958,21.369975 34.318106,22.003016 33.671124,22.003016 L 17.549489,22.003016 C 16.902507,22.003016 16.381645,21.369975 16.381645,20.583632 L 16.381645,15.282925 C 16.381645,14.496593 16.902507,13.863541 17.549489,13.863541 z "
       id="rect6079" />
    <path
       style="fill:url(#linearGradient10832);fill-opacity:1.0000000;fill-rule:evenodd;stroke:none;stroke-width:0.012500000;stroke-linecap:butt;stroke-linejoin:miter;stroke-miterlimit:4.0000000;stroke-opacity:1.0000000"
       d="M 16.671973,18.598409 C 16.674028,18.031356 16.676082,17.464303 16.678137,16.897250 C 16.680192,16.330208 16.682246,15.763154 16.684311,15.196102 C 16.673468,14.579722 16.845702,14.204033 17.324700,14.166109 C 18.913091,14.160371 20.501473,14.154633 22.089864,14.148894 C 23.678255,14.143155 25.266636,14.137406 26.855028,14.131667 C 26.784282,15.957222 19.989441,15.581969 19.041481,15.689352 C 17.302724,15.886305 18.595043,17.931171 16.671973,18.598409 z "
       id="path6080" />
    <path
       style="fill:url(#linearGradient10830);fill-opacity:1.0000000;stroke:url(#linearGradient10831);stroke-width:1.2925550;stroke-linecap:round;stroke-linejoin:round;stroke-miterlimit:4.0000000;stroke-dashoffset:0.0000000;stroke-opacity:1.0000000"
       d="M 36.941488,13.738806 L 53.178225,13.738806 C 53.829827,13.738806 54.354394,14.372093 54.354394,15.158743 L 54.354394,20.461505 C 54.354394,21.248154 53.829827,21.881442 53.178225,21.881442 L 36.941488,21.881442 C 36.289885,21.881442 35.765305,21.248154 35.765305,20.461505 L 35.765305,15.158743 C 35.765305,14.372093 36.289885,13.738806 36.941488,13.738806 z "
       id="rect6086" />
    <path
       style="fill:url(#linearGradient10829);fill-opacity:1.0000000;fill-rule:evenodd;stroke:none;stroke-width:0.012500000;stroke-linecap:butt;stroke-linejoin:miter;stroke-miterlimit:4.0000000;stroke-opacity:1.0000000"
       d="M 36.080814,18.739155 C 36.082942,18.172136 36.085062,17.605115 36.087186,17.038096 C 36.089314,16.471075 36.091436,15.904055 36.093574,15.337035 C 36.082359,14.720692 36.260476,14.345023 36.755834,14.307114 C 38.398482,14.301376 40.041113,14.295638 41.683758,14.289888 C 43.326402,14.284151 44.969036,14.278411 46.611681,14.272674 C 46.538522,16.098123 39.511592,15.722891 38.531254,15.830267 C 36.733109,16.027209 38.069568,18.071956 36.080814,18.739155 z "
       id="path6087" />
    <path
       style="fill:url(#linearGradient10827);fill-opacity:1.0000000;stroke:url(#linearGradient10828);stroke-width:1.2877146;stroke-linecap:round;stroke-linejoin:round;stroke-miterlimit:4.0000000;stroke-dashoffset:0.0000000;stroke-opacity:1.0000000"
       d="M 56.811701,14.093893 L 72.933337,14.093893 C 73.580319,14.093893 74.101181,14.726944 74.101181,15.513277 L 74.101181,20.813984 C 74.101181,21.600316 73.580319,22.233369 72.933337,22.233369 L 56.811701,22.233369 C 56.164719,22.233369 55.643857,21.600316 55.643857,20.813984 L 55.643857,15.513277 C 55.643857,14.726944 56.164719,14.093893 56.811701,14.093893 z "
       id="rect6093" />
    <path
       style="fill:url(#linearGradient10826);fill-opacity:1.0000000;fill-rule:evenodd;stroke:none;stroke-width:0.012500000;stroke-linecap:butt;stroke-linejoin:miter;stroke-miterlimit:4.0000000;stroke-opacity:1.0000000"
       d="M 55.934186,18.828761 C 55.936240,18.261708 55.938294,17.694655 55.940350,17.127613 C 55.942404,16.560559 55.944458,15.993507 55.946523,15.426453 C 55.935681,14.810074 56.107914,14.434385 56.586912,14.396472 C 58.175303,14.390723 59.763684,14.384984 61.352076,14.379245 C 62.940468,14.373507 64.528848,14.367768 66.117241,14.362019 C 66.046494,16.187584 59.251653,15.812321 58.303693,15.919704 C 56.564936,16.116667 57.857255,18.161533 55.934186,18.828761 z "
       id="path6094" />
    <path
       style="fill:url(#linearGradient3214);fill-opacity:1.0000000;stroke:url(#linearGradient3215);stroke-width:1.3109280;stroke-linecap:round;stroke-linejoin:round;stroke-miterlimit:4.0000000;stroke-dashoffset:0.0000000;stroke-opacity:1.0000000"
       d="M 4.0786230,23.422656 L 14.601292,23.422656 C 15.023582,23.422656 15.363541,24.055697 15.363541,24.842040 L 15.363541,30.142736 C 15.363541,30.929080 15.023582,31.562121 14.601292,31.562121 L 4.0786230,31.562121 C 3.6563333,31.562121 3.3163740,30.929080 3.3163740,30.142736 L 3.3163740,24.842040 C 3.3163740,24.055697 3.6563333,23.422656 4.0786230,23.422656 z "
       id="path6112" />
    <path
       style="fill:url(#linearGradient3216);fill-opacity:1.0000000;fill-rule:evenodd;stroke:none;stroke-width:0.012500000;stroke-linecap:butt;stroke-linejoin:miter;stroke-miterlimit:4.0000000;stroke-opacity:1.0000000"
       d="M 3.5058713,28.157524 C 3.5072158,27.590470 3.5085389,27.023418 3.5098835,26.456365 C 3.5112281,25.889311 3.5125726,25.322259 3.5139172,24.755205 C 3.5068394,24.138827 3.6192664,23.763137 3.9318935,23.725224 C 4.9686592,23.719486 6.0054035,23.713747 7.0421477,23.707998 C 8.0788919,23.702259 9.1156470,23.696521 10.152391,23.690782 C 10.106213,25.516337 5.6711881,25.141084 5.0524524,25.248467 C 3.9175658,25.445419 4.7610587,27.490285 3.5058713,28.157524 z "
       id="path6113" />
    <path
       style="fill:url(#radialGradient3217);fill-opacity:1.0000000;stroke:none;stroke-width:1.4875000;stroke-linecap:round;stroke-linejoin:round;stroke-miterlimit:4.0000000;stroke-dashoffset:0.0000000;stroke-opacity:1.0000000"
       d="M 4.4417088,23.542452 L 14.964378,23.542452 C 15.386668,23.542452 15.726626,24.175494 15.726626,24.961836 L 15.726626,30.262533 C 15.726626,31.048876 15.386668,31.681917 14.964378,31.681917 L 4.4417088,31.681917 C 4.0194191,31.681917 3.6794598,31.048876 3.6794598,30.262533 L 3.6794598,24.961836 C 3.6794598,24.175494 4.0194191,23.542452 4.4417088,23.542452 z "
       id="path6114" />
    <path
       style="fill:url(#linearGradient3218);fill-opacity:1.0000000;stroke:url(#linearGradient3219);stroke-width:1.3109280;stroke-linecap:round;stroke-linejoin:round;stroke-miterlimit:4.0000000;stroke-dashoffset:0.0000000;stroke-opacity:1.0000000"
       d="M 4.0786230,32.951108 L 14.601292,32.951108 C 15.023582,32.951108 15.363541,33.584160 15.363541,34.370492 L 15.363541,39.671199 C 15.363541,40.457542 15.023582,41.090583 14.601292,41.090583 L 4.0786230,41.090583 C 3.6563333,41.090583 3.3163740,40.457542 3.3163740,39.671199 L 3.3163740,34.370492 C 3.3163740,33.584160 3.6563333,32.951108 4.0786230,32.951108 z "
       id="path6119" />
    <path
       style="fill:url(#linearGradient3220);fill-opacity:1.0000000;fill-rule:evenodd;stroke:none;stroke-width:0.012500000;stroke-linecap:butt;stroke-linejoin:miter;stroke-miterlimit:4.0000000;stroke-opacity:1.0000000"
       d="M 3.5058713,37.685976 C 3.5072158,37.118923 3.5085389,36.551869 3.5098835,35.984827 C 3.5112281,35.417774 3.5125726,34.850721 3.5139172,34.283668 C 3.5068394,33.667289 3.6192664,33.291599 3.9318935,33.253687 C 4.9686592,33.247937 6.0054035,33.242199 7.0421477,33.236461 C 8.0788919,33.230721 9.1156470,33.224973 10.152391,33.219235 C 10.106213,35.044789 5.6711881,34.669536 5.0524524,34.776918 C 3.9175658,34.973871 4.7610587,37.018737 3.5058713,37.685976 z "
       id="path6120" />
    <path
       style="fill:url(#radialGradient3221);fill-opacity:1.0000000;stroke:none;stroke-width:1.4875000;stroke-linecap:round;stroke-linejoin:round;stroke-miterlimit:4.0000000;stroke-dashoffset:0.0000000;stroke-opacity:1.0000000"
       d="M 4.0786230,32.831312 L 14.601292,32.831312 C 15.023582,32.831312 15.363541,33.464363 15.363541,34.250695 L 15.363541,39.551402 C 15.363541,40.337745 15.023582,40.970786 14.601292,40.970786 L 4.0786230,40.970786 C 3.6563333,40.970786 3.3163740,40.337745 3.3163740,39.551402 L 3.3163740,34.250695 C 3.3163740,33.464363 3.6563333,32.831312 4.0786230,32.831312 z "
       id="path6121" />
    <path
       style="fill:url(#linearGradient3226);fill-opacity:1.0000000;stroke:url(#linearGradient3227);stroke-width:1.3109280;stroke-linecap:round;stroke-linejoin:round;stroke-miterlimit:4.0000000;stroke-dashoffset:0.0000000;stroke-opacity:1.0000000"
       d="M 4.0786230,52.038675 L 14.601292,52.038675 C 15.023582,52.038675 15.363541,52.671726 15.363541,53.458059 L 15.363541,58.758766 C 15.363541,59.545108 15.023582,60.178149 14.601292,60.178149 L 4.0786230,60.178149 C 3.6563333,60.178149 3.3163740,59.545108 3.3163740,58.758766 L 3.3163740,53.458059 C 3.3163740,52.671726 3.6563333,52.038675 4.0786230,52.038675 z "
       id="path6133" />
    <path
       style="fill:url(#linearGradient3228);fill-opacity:1.0000000;fill-rule:evenodd;stroke:none;stroke-width:0.012500000;stroke-linecap:butt;stroke-linejoin:miter;stroke-miterlimit:4.0000000;stroke-opacity:1.0000000"
       d="M 3.5058713,56.773542 C 3.5072158,56.206489 3.5085389,55.639437 3.5098835,55.072393 C 3.5112281,54.505341 3.5125726,53.938288 3.5139172,53.371234 C 3.5068394,52.754856 3.6192664,52.379166 3.9318935,52.341253 C 4.9686592,52.335503 6.0054035,52.329765 7.0421477,52.324027 C 8.0788919,52.318289 9.1156470,52.312539 10.152391,52.306801 C 10.106213,54.132356 5.6711881,53.757103 5.0524524,53.864484 C 3.9175658,54.061438 4.7610587,56.106303 3.5058713,56.773542 z "
       id="path6134" />
    <path
       style="fill:url(#radialGradient3229);fill-opacity:1.0000000;stroke:none;stroke-width:1.4875000;stroke-linecap:round;stroke-linejoin:round;stroke-miterlimit:4.0000000;stroke-dashoffset:0.0000000;stroke-opacity:1.0000000"
       d="M 4.3206765,52.038675 L 14.843346,52.038675 C 15.265636,52.038675 15.605594,52.671726 15.605594,53.458059 L 15.605594,58.758766 C 15.605594,59.545108 15.265636,60.178149 14.843346,60.178149 L 4.3206765,60.178149 C 3.8983869,60.178149 3.5584276,59.545108 3.5584276,58.758766 L 3.5584276,53.458059 C 3.5584276,52.671726 3.8983869,52.038675 4.3206765,52.038675 z "
       id="path6135" />
    <path
       style="fill:url(#linearGradient3230);fill-opacity:1.0000000;stroke:url(#linearGradient3231);stroke-width:1.3109280;stroke-linecap:round;stroke-linejoin:round;stroke-miterlimit:4.0000000;stroke-dashoffset:0.0000000;stroke-opacity:1.0000000"
       d="M 4.0786230,61.582457 L 14.601292,61.582457 C 15.023582,61.582457 15.363541,62.215510 15.363541,63.001841 L 15.363541,68.302548 C 15.363541,69.088892 15.023582,69.721933 14.601292,69.721933 L 4.0786230,69.721933 C 3.6563333,69.721933 3.3163740,69.088892 3.3163740,68.302548 L 3.3163740,63.001841 C 3.3163740,62.215510 3.6563333,61.582457 4.0786230,61.582457 z "
       id="path6140" />
    <path
       style="fill:url(#linearGradient3232);fill-opacity:1.0000000;fill-rule:evenodd;stroke:none;stroke-width:0.012500000;stroke-linecap:butt;stroke-linejoin:miter;stroke-miterlimit:4.0000000;stroke-opacity:1.0000000"
       d="M 3.5058713,66.317325 C 3.5072158,65.750273 3.5085389,65.183219 3.5098835,64.616177 C 3.5112281,64.049124 3.5125726,63.482071 3.5139172,62.915018 C 3.5068394,62.298639 3.6192664,61.922949 3.9318935,61.885037 C 4.9686592,61.879287 6.0054035,61.873549 7.0421477,61.867811 C 8.0788919,61.862071 9.1156470,61.856323 10.152391,61.850583 C 10.106213,63.676138 5.6711881,63.300886 5.0524524,63.408268 C 3.9175658,63.605221 4.7610587,65.650087 3.5058713,66.317325 z "
       id="path6141" />
    <path
       style="fill:url(#radialGradient3233);fill-opacity:1.0000000;stroke:none;stroke-width:1.4875000;stroke-linecap:round;stroke-linejoin:round;stroke-miterlimit:4.0000000;stroke-dashoffset:0.0000000;stroke-opacity:1.0000000"
       d="M 4.1996551,61.342864 L 14.722324,61.342864 C 15.144614,61.342864 15.484573,61.975917 15.484573,62.762249 L 15.484573,68.062955 C 15.484573,68.849299 15.144614,69.482340 14.722324,69.482340 L 4.1996551,69.482340 C 3.7773655,69.482340 3.4374062,68.849299 3.4374062,68.062955 L 3.4374062,62.762249 C 3.4374062,61.975917 3.7773655,61.342864 4.1996551,61.342864 z "
       id="path6142" />
    <path
       style="fill:url(#radialGradient3234);fill-opacity:1.0000000;stroke:none;stroke-width:1.6250000;stroke-linecap:round;stroke-linejoin:round;stroke-miterlimit:4.0000000;stroke-dashoffset:0.0000000;stroke-opacity:0.31249997"
       d="M 5.2729285,14.244096 L 74.619182,14.244096 C 75.685743,14.244096 76.544380,15.049699 76.544380,16.050392 L 76.544380,69.857849 C 76.544380,70.858541 75.685743,71.664143 74.619182,71.664143 L 5.2729285,71.664143 C 4.2063672,71.664143 3.3477291,70.858541 3.3477291,69.857849 L 3.3477291,16.050392 C 3.3477291,15.049699 4.2063672,14.244096 5.2729285,14.244096 z "
       id="rect21022" />
    <path
       style="fill:url(#linearGradient3235);fill-opacity:1.0000000;fill-rule:evenodd;stroke:none;stroke-width:0.25000000pt;stroke-linecap:butt;stroke-linejoin:miter;stroke-opacity:1.0000000"
       d="M 2.2192642,58.036409 C 17.412558,59.829279 23.144098,40.008358 29.064725,34.733064 C 40.672673,24.390344 62.004415,37.118987 65.643631,13.094999 C 45.162836,12.902018 24.885984,13.187136 4.4052227,12.994144 C 2.4189480,12.868395 2.3127383,13.179662 2.4104610,15.791784 C 2.3467288,29.873322 2.2829965,43.954860 2.2192642,58.036409 z "
       id="path21648"
       sodipodi:nodetypes="cccccc" />
    <path
       style="fill:url(#radialGradient3236);fill-opacity:1.0000000;stroke:none;stroke-width:1.6250000;stroke-linecap:round;stroke-linejoin:round;stroke-miterlimit:4.0000000;stroke-dashoffset:0.0000000;stroke-opacity:0.31249997"
       d="M 4.6647019,12.862848 L 73.437633,12.862848 C 74.495374,12.862848 75.346913,13.668463 75.346913,14.669144 L 75.346913,68.476601 C 75.346913,69.477293 74.495374,70.282896 73.437633,70.282896 L 4.6647019,70.282896 C 3.6069609,70.282896 2.7554115,69.477293 2.7554115,68.476601 L 2.7554115,14.669144 C 2.7554115,13.668463 3.6069609,12.862848 4.6647019,12.862848 z "
       id="rect1799" />
    <path
       style="fill:url(#linearGradient13331);fill-opacity:1.0000000;stroke:url(#linearGradient13332);stroke-width:1.3202010;stroke-linecap:round;stroke-linejoin:round;stroke-miterlimit:4.0000000;stroke-dashoffset:0.0000000;stroke-opacity:1.0000000"
       d="M 3.8524540,42.340872 L 14.382782,42.340872 C 14.805379,42.340872 15.145586,42.982445 15.145586,43.779361 L 15.145586,49.151413 C 15.145586,49.948337 14.805379,50.589899 14.382782,50.589899 L 3.8524540,50.589899 C 3.4298570,50.589899 3.0896504,49.948337 3.0896504,49.151413 L 3.0896504,43.779361 C 3.0896504,42.982445 3.4298570,42.340872 3.8524540,42.340872 z "
       id="path13328" />
    <path
       style="fill:url(#linearGradient13333);fill-opacity:1.0000000;fill-rule:evenodd;stroke:none;stroke-width:0.012500000;stroke-linecap:butt;stroke-linejoin:miter;stroke-miterlimit:4.0000000;stroke-opacity:1.0000000"
       d="M 3.2792856,47.139468 C 3.2806311,46.564782 3.2819551,45.990099 3.2833007,45.415424 C 3.2846461,44.840739 3.2859917,44.266054 3.2873373,43.691367 C 3.2802544,43.066691 3.3927632,42.685945 3.7056179,42.647523 C 4.7431381,42.641694 5.7806369,42.635881 6.8181357,42.630066 C 7.8556346,42.624249 8.8931441,42.618421 9.9306427,42.612606 C 9.8844316,44.462734 5.4461783,44.082427 4.8269922,44.191256 C 3.6912797,44.390859 4.5353866,46.463248 3.2792856,47.139468 z "
       id="path13329" />
    <path
       style="fill:url(#radialGradient13334);fill-opacity:1.0000000;stroke:none;stroke-width:1.4875000;stroke-linecap:round;stroke-linejoin:round;stroke-miterlimit:4.0000000;stroke-dashoffset:0.0000000;stroke-opacity:1.0000000"
       d="M 4.0946839,42.340872 L 14.625013,42.340872 C 15.047609,42.340872 15.387816,42.982445 15.387816,43.779361 L 15.387816,49.151413 C 15.387816,49.948337 15.047609,50.589899 14.625013,50.589899 L 4.0946839,50.589899 C 3.6720870,50.589899 3.3318801,49.948337 3.3318801,49.151413 L 3.3318801,43.779361 C 3.3318801,42.982445 3.6720870,42.340872 4.0946839,42.340872 z "
       id="path13330" />
  </g>
  <g
     id="g10763"
     inkscape:label="Layer 1"
     inkscape:groupmode="layer"
     transform="translate(48.57958,28.23858)" />
</svg>
