<?xml version="1.0" encoding="UTF-8" standalone="no"?>
<!DOCTYPE svg PUBLIC "-//W3C//DTD SVG 20010904//EN"
"http://www.w3.org/TR/2001/REC-SVG-20010904/DTD/svg10.dtd">
<!-- Created with Inkscape (http://www.inkscape.org/) -->
<svg
   width="64pt"
   height="64pt"
   xmlns="http://www.w3.org/2000/svg"
   xmlns:cc="http://web.resource.org/cc/"
   xmlns:inkscape="http://www.inkscape.org/namespaces/inkscape"
   xmlns:sodipodi="http://sodipodi.sourceforge.net/DTD/sodipodi-0.dtd"
   xmlns:rdf="http://www.w3.org/1999/02/22-rdf-syntax-ns#"
   xmlns:dc="http://purl.org/dc/elements/1.1/"
   xmlns:xlink="http://www.w3.org/1999/xlink"
   id="svg7953"
   sodipodi:version="0.32"
   inkscape:version="0.40"
   sodipodi:docbase="/home/rob/documents/My Projects/icon play/helpwithopenoffice/in process/commandimagelist_inprocess/3dshapes"
   sodipodi:docname="shell3d.svg">
  <defs
     id="defs3">
    <linearGradient
       inkscape:collect="always"
       xlink:href="#light90to0"
       id="linearGradient7143"
       gradientUnits="userSpaceOnUse"
       gradientTransform="scale(3.241586,0.308491)"
       x1="-3.5142291"
       y1="127.70847"
       x2="3.9033244"
       y2="122.87186" />
    <linearGradient
       inkscape:collect="always"
       xlink:href="#light90to0"
       id="linearGradient7145"
       gradientUnits="userSpaceOnUse"
       gradientTransform="scale(3.241586,0.308491)"
       x1="-3.5142291"
       y1="127.70847"
       x2="3.9033244"
       y2="122.87186" />
    <linearGradient
       inkscape:collect="always"
       xlink:href="#linearGradient2986"
       id="linearGradient7876"
       gradientUnits="userSpaceOnUse"
       gradientTransform="scale(3.241586,0.308491)"
       x1="5.1395836"
       y1="115.61694"
       x2="14.797856"
       y2="137.07941" />
    <radialGradient
       inkscape:collect="always"
       xlink:href="#linearGradient2986"
       id="radialGradient7875"
       gradientUnits="userSpaceOnUse"
       gradientTransform="scale(3.355480,0.298020)"
       cx="14.295577"
       cy="139.36024"
       fx="14.295575"
       fy="139.04274"
       r="22.700525" />
    <linearGradient
       inkscape:collect="always"
       xlink:href="#light90to0"
       id="linearGradient5762"
       gradientUnits="userSpaceOnUse"
       gradientTransform="scale(3.355480,0.298020)"
       x1="2.2540097"
       y1="71.192535"
       x2="18.349192"
       y2="98.421722" />
    <radialGradient
       inkscape:collect="always"
       xlink:href="#light90to0"
       id="radialGradient3873"
       gradientUnits="userSpaceOnUse"
       gradientTransform="scale(3.355480,0.298020)"
       cx="1.1735923"
       cy="132.97519"
       fx="1.1735924"
       fy="132.97517"
       r="10.295236" />
    <radialGradient
       inkscape:collect="always"
       xlink:href="#light90to0"
       id="radialGradient3871"
       gradientTransform="scale(3.355480,0.298020)"
       cx="18.755459"
       cy="132.46043"
       fx="18.888288"
       fy="132.58064"
       r="10.295235"
       gradientUnits="userSpaceOnUse" />
    <linearGradient
       inkscape:collect="always"
       xlink:href="#linearGradient2986"
       id="linearGradient3242"
       gradientTransform="scale(3.355480,0.298020)"
       x1="8.2717772"
       y1="121.99884"
       x2="19.858530"
       y2="145.35143"
       gradientUnits="userSpaceOnUse" />
    <linearGradient
       id="light90to0">
      <stop
         style="stop-color:#ffffff;stop-opacity:0.90833336;"
         offset="0.0000000"
         id="stop1890" />
      <stop
         style="stop-color:#ffffff;stop-opacity:0.0000000;"
         offset="1.0000000"
         id="stop1892" />
    </linearGradient>
    <radialGradient
       inkscape:collect="always"
       xlink:href="#light90to0"
       id="radialGradient3154"
       gradientUnits="userSpaceOnUse"
       gradientTransform="scale(1.539010,0.649768)"
       cx="128.68108"
       cy="421.43631"
       fx="128.02753"
       fy="419.90640"
       r="75.827888" />
    <linearGradient
       id="linearGradient2986">
      <stop
         style="stop-color:#00ff01;stop-opacity:1.0000000;"
         offset="0.0000000"
         id="stop2987" />
      <stop
         style="stop-color:#012c00;stop-opacity:1.0000000;"
         offset="1.0000000"
         id="stop2988" />
    </linearGradient>
    <radialGradient
       inkscape:collect="always"
       xlink:href="#linearGradient2986"
       id="radialGradient3238"
       gradientUnits="userSpaceOnUse"
       cx="41.299908"
       cy="56.759766"
       fx="41.299908"
       fy="56.759766"
       r="39.549129" />
    <linearGradient
       inkscape:collect="always"
       id="linearGradient5764">
      <stop
         style="stop-color:#0b560f;stop-opacity:1;"
         offset="0"
         id="stop5765" />
      <stop
         style="stop-color:#0b560f;stop-opacity:0;"
         offset="1"
         id="stop5766" />
    </linearGradient>
    <linearGradient
       inkscape:collect="always"
       xlink:href="#linearGradient5764"
       id="linearGradient5767"
       gradientTransform="scale(1.247157,0.801824)"
       x1="15.931418"
       y1="42.708893"
       x2="42.918102"
       y2="99.762787"
       gradientUnits="userSpaceOnUse" />
    <linearGradient
       id="linearGradient2870">
      <stop
         style="stop-color:#000000;stop-opacity:0.0000000;"
         offset="0.0000000"
         id="stop2871" />
      <stop
         style="stop-color:#000000;stop-opacity:1.0000000;"
         offset="1.0000000"
         id="stop2872" />
    </linearGradient>
    <radialGradient
       inkscape:collect="always"
       xlink:href="#linearGradient2870"
       id="radialGradient3151"
       gradientUnits="userSpaceOnUse"
       cx="231.59854"
       cy="224.04071"
       fx="232.69223"
       fy="214.50507"
       r="152.57030" />
  </defs>
  <sodipodi:namedview
     id="base"
     pagecolor="#ffffff"
     bordercolor="#666666"
     borderopacity="1.0"
     inkscape:pageopacity="0.0"
     inkscape:pageshadow="2"
     inkscape:zoom="5.5000000"
     inkscape:cx="32.000000"
     inkscape:cy="32.000000"
     inkscape:current-layer="layer1"
     showgrid="false"
     inkscape:grid-bbox="false"
     gridspacingy="1.0000000pt"
     gridspacingx="1.0000000pt"
     gridoriginy="0.0000000pt"
     gridoriginx="0.0000000pt"
     inkscape:window-width="640"
     inkscape:window-height="590"
     inkscape:window-x="0"
     inkscape:window-y="0" />
  <metadata
     id="metadata4">
    <rdf:RDF
       id="RDF5">
      <cc:Work
         rdf:about=""
         id="Work6">
        <dc:format
           id="format7">image/svg+xml</dc:format>
        <dc:type
           id="type9"
           rdf:resource="http://purl.org/dc/dcmitype/StillImage" />
      </cc:Work>
    </rdf:RDF>
  </metadata>
  <g
     id="layer1"
     inkscape:label="Layer 1"
     inkscape:groupmode="layer">
    <g
       id="g7892"
       transform="translate(2.415941e-3,-3.988113e-7)">
      <path
         style="fill:none;fill-opacity:0.75000000;fill-rule:evenodd;stroke:#000000;stroke-width:0.25038624pt;stroke-linecap:butt;stroke-linejoin:miter;stroke-opacity:0.0000000"
         d="M 0.15649140,79.843509 L 79.843509,0.15673249"
         id="path5807" />
      <g
         id="g5768"
         transform="matrix(0.992252,0.000000,0.000000,1.000000,0.620158,-10.00000)">
        <g
           id="g3029"
           transform="matrix(0.222139,0.000000,0.000000,0.222139,6.194915e-6,-3.302309)">
          <path
             style="fill:#010101;fill-opacity:0.078431375;stroke:none;stroke-width:2.7172995;stroke-linecap:round;stroke-linejoin:round;stroke-miterlimit:4.0000000;stroke-dashoffset:0.0000000;stroke-opacity:1.0000000"
             d="M 241.15625,307.43750 C 184.67533,308.05235 136.10002,316.32097 111.81250,328.34375 C 111.76609,328.73048 111.62500,329.10937 111.62500,329.50000 C 111.62500,344.85275 147.83420,357.31249 192.43750,357.31250 C 237.04079,357.31250 273.25000,344.85274 273.25000,329.50000 C 273.25000,320.47190 260.53956,312.51961 241.15625,307.43750 z "
             id="path2882"
             transform="matrix(1.020286,0.000000,0.000000,1.020286,-41.01766,-23.35982)" />
          <path
             style="fill:#010101;fill-opacity:0.078431375;stroke:none;stroke-width:2.7172995;stroke-linecap:round;stroke-linejoin:round;stroke-miterlimit:4.0000000;stroke-dashoffset:0.0000000;stroke-opacity:1.0000000"
             d="M 228.59375,307.78125 C 182.85252,309.24148 143.29821,315.64637 119.43750,325.00000 C 118.64585,326.46281 118.15625,327.96061 118.15625,329.50000 C 118.15625,343.30927 151.43557,354.50001 192.43750,354.50000 C 233.43942,354.50000 266.71875,343.30927 266.71875,329.50000 C 266.71875,320.13469 251.23429,312.06887 228.59375,307.78125 z "
             id="path2881"
             transform="matrix(1.020286,0.000000,0.000000,1.020286,-41.01766,-23.35982)" />
          <path
             style="fill:#010101;fill-opacity:0.078431375;stroke:none;stroke-width:2.7172995;stroke-linecap:round;stroke-linejoin:round;stroke-miterlimit:4.0000000;stroke-dashoffset:0.0000000;stroke-opacity:1.0000000"
             d="M 207.71875,308.78125 C 176.86419,310.90740 149.65171,315.27999 129.87500,321.34375 C 126.54654,323.85810 124.68750,326.60843 124.68750,329.50000 C 124.68750,341.25130 155.03693,350.78125 192.43750,350.78125 C 229.83806,350.78125 260.18751,341.25129 260.18750,329.50000 C 260.18750,319.40525 237.74259,310.96608 207.71875,308.78125 z "
             id="path2880"
             transform="matrix(1.020286,0.000000,0.000000,1.020286,-41.01766,-23.35982)" />
          <path
             sodipodi:type="arc"
             style="fill:#010101;fill-opacity:0.078431375;stroke:none;stroke-width:2.7172995;stroke-linecap:round;stroke-linejoin:round;stroke-miterlimit:4.0000000;stroke-dashoffset:0.0000000;stroke-opacity:1.0000000"
             id="path2875"
             sodipodi:cx="192.77242"
             sodipodi:cy="190.13620"
             sodipodi:rx="152.57030"
             sodipodi:ry="152.57030"
             d="M 345.34271 190.13620 A 152.57030 152.57030 0 1 1  40.202118,190.13620 A 152.57030 152.57030 0 1 1  345.34271 190.13620 z"
             transform="matrix(0.415700,0.000000,0.000000,0.117432,75.19292,290.4902)" />
        </g>
        <g
           id="g3034"
           transform="matrix(0.212011,0.000000,0.000000,0.222202,0.495518,-3.325869)">
          <path
             style="opacity:0.44021735;fill:#010101;fill-opacity:0.078431375;stroke:none;stroke-width:2.7172995;stroke-linecap:round;stroke-linejoin:round;stroke-miterlimit:4.0000000;stroke-dashoffset:0.0000000;stroke-opacity:1.0000000"
             d="M 230.65625,301.18750 C 195.61423,302.91514 160.06377,305.21378 126.37500,315.65625 C 112.46225,321.00153 94.775160,325.17169 88.593750,340.46875 C 84.159996,353.84159 97.511453,364.38361 108.28125,369.28125 C 148.74752,385.63327 192.97959,389.60193 236.25000,390.40625 C 278.00751,390.72302 320.22937,388.91997 360.81250,378.31250 C 376.86548,372.99851 396.15917,369.04447 405.75000,353.68750 C 412.42383,341.37782 401.13942,328.49279 389.96875,324.12500 C 357.75573,308.54628 321.39615,304.94631 286.15625,302.31250 C 267.66255,301.20224 249.18032,300.84065 230.65625,301.18750 z M 247.68750,307.28125 C 331.90631,307.28126 400.25000,324.54321 400.25000,345.81250 C 400.25000,367.08178 331.90630,384.34375 247.68750,384.34375 C 163.46870,384.34375 95.125000,367.08179 95.125000,345.81250 C 95.125003,324.54320 163.46870,307.28125 247.68750,307.28125 z "
             id="path2916"
             transform="matrix(1.020286,0.000000,0.000000,1.020286,-41.01766,-23.35982)" />
          <path
             style="opacity:0.44021735;fill:#010101;fill-opacity:0.20000000;stroke:none;stroke-width:2.7172995;stroke-linecap:round;stroke-linejoin:round;stroke-miterlimit:4.0000000;stroke-dashoffset:0.0000000;stroke-opacity:1.0000000"
             d="M 258.43750,303.06250 C 239.88014,302.62193 221.41459,303.30559 202.90625,304.65625 C 169.86503,307.63309 135.77670,311.23272 105.65625,326.09375 C 95.852443,330.40309 84.877029,342.18539 91.656250,353.18750 C 99.887848,366.54987 116.65917,370.40765 130.59375,375.15625 C 181.02479,389.13635 234.03065,389.77830 285.96875,387.59375 C 319.14620,385.15251 352.92846,381.11775 383.90625,368.37500 C 393.73637,364.23796 405.99548,356.75818 405.90625,344.81250 C 403.74366,330.09691 387.37798,324.83221 375.46875,319.87500 C 337.94688,306.89507 297.82553,304.34674 258.43750,303.06250 z M 247.68750,307.28125 C 331.90631,307.28126 400.25000,324.54321 400.25000,345.81250 C 400.25000,367.08178 331.90630,384.34375 247.68750,384.34375 C 163.46870,384.34375 95.125000,367.08179 95.125000,345.81250 C 95.125003,324.54320 163.46870,307.28125 247.68750,307.28125 z "
             id="path2909"
             transform="matrix(1.020286,0.000000,0.000000,1.020286,-41.01766,-23.35982)" />
          <path
             style="opacity:0.44021735;fill:#010101;fill-opacity:0.29411766;stroke:none;stroke-width:2.7172995;stroke-linecap:round;stroke-linejoin:round;stroke-miterlimit:4.0000000;stroke-dashoffset:0.0000000;stroke-opacity:1.0000000"
             d="M 232.00000,304.96875 C 193.49528,306.88639 154.14955,309.28805 117.65625,322.71875 C 106.95672,327.06872 92.859331,332.92016 91.250000,345.90625 C 92.897643,358.92730 107.22804,364.57823 117.90625,368.96875 C 155.17295,382.23724 195.18365,385.43434 234.46875,386.59375 C 279.07643,387.18458 324.40943,384.88508 367.46875,372.40625 C 380.60546,367.96003 396.30973,363.33764 403.28125,350.28125 C 407.35143,338.69102 394.84878,330.49828 385.90625,326.31250 C 356.76052,313.11939 324.38836,309.35272 292.81250,306.56250 C 272.58914,304.94034 252.27761,304.72521 232.00000,304.96875 z M 247.68750,307.28125 C 331.90631,307.28126 400.25000,324.54321 400.25000,345.81250 C 400.25000,367.08178 331.90630,384.34375 247.68750,384.34375 C 163.46870,384.34375 95.125000,367.08179 95.125000,345.81250 C 95.125003,324.54320 163.46870,307.28125 247.68750,307.28125 z "
             id="path2903"
             transform="matrix(1.020286,0.000000,0.000000,1.020286,-41.01766,-23.35982)" />
          <path
             sodipodi:type="arc"
             style="opacity:0.44021735;fill:url(#radialGradient3151);fill-opacity:1.0000000;stroke:none;stroke-width:2.7172995;stroke-linecap:round;stroke-linejoin:round;stroke-miterlimit:4.0000000;stroke-dashoffset:0.0000000;stroke-opacity:1.0000000"
             id="path2862"
             sodipodi:cx="192.77242"
             sodipodi:cy="190.13620"
             sodipodi:rx="152.57030"
             sodipodi:ry="152.57030"
             d="M 345.34271 190.13620 A 152.57030 152.57030 0 1 1  40.202118,190.13620 A 152.57030 152.57030 0 1 1  345.34271 190.13620 z"
             transform="matrix(1.020286,0.000000,0.000000,0.257671,15.00887,280.4672)" />
        </g>
      </g>
      <g
         id="g7881">
        <path
           style="fill:none;fill-opacity:1.0000000;stroke:url(#linearGradient5767);stroke-width:0.71250010;stroke-linecap:round;stroke-linejoin:round;stroke-miterlimit:4.0000000;stroke-dashoffset:0.0000000;stroke-opacity:1.0000000"
           d="M 34.531250,25.000000 C 15.573533,25.000000 0.21040995,29.430689 0.031250000,34.906250 C 0.20359333,53.852044 15.605068,69.187500 34.593750,69.187500 C 53.550660,69.187500 68.933251,53.901953 69.156250,35.000000 L 69.093750,35.000000 C 69.093750,29.480006 53.600342,25.000000 34.531250,25.000000 z "
           id="path5763"
           transform="matrix(0.992252,0.000000,0.000000,1.000000,0.620158,-10.00000)" />
        <path
           style="opacity:0.91847825;fill:url(#radialGradient3238);fill-opacity:1.0000000;stroke:none;stroke-width:2.7172995;stroke-linecap:round;stroke-linejoin:round;stroke-miterlimit:4.0000000;stroke-dashoffset:0.0000000;stroke-opacity:1.0000000"
           d="M 34.531250,25.000000 C 15.573533,25.000000 0.21040995,29.430689 0.031250000,34.906250 C 0.20359333,53.852044 15.605068,69.187500 34.593750,69.187500 C 53.550660,69.187500 68.933251,53.901953 69.156250,35.000000 L 69.093750,35.000000 C 69.093750,29.480006 53.600342,25.000000 34.531250,25.000000 z "
           id="path2221"
           transform="matrix(0.992252,0.000000,0.000000,1.000000,0.620158,-10.00000)" />
        <path
           style="fill:url(#radialGradient3154);fill-opacity:1.0000000;fill-rule:evenodd;stroke:none;stroke-width:0.25000000pt;stroke-linecap:butt;stroke-linejoin:miter;stroke-opacity:1.0000000"
           d="M 52.196331,214.19157 C 97.145181,331.53217 287.56776,330.18476 332.82259,214.89213 C 305.07672,380.51977 87.499668,376.31810 52.196331,214.19157 z "
           id="path2853"
           sodipodi:nodetypes="ccc"
           transform="matrix(0.224982,0.000000,0.000000,0.226710,-8.424619,-18.51647)" />
        <path
           sodipodi:type="arc"
           style="opacity:0.91847825;fill:url(#linearGradient3242);fill-opacity:1.0000000;stroke:none;stroke-width:2.7172995;stroke-linecap:round;stroke-linejoin:round;stroke-miterlimit:4.0000000;stroke-dashoffset:0.0000000;stroke-opacity:1.0000000"
           id="path3201"
           sodipodi:cx="34.318180"
           sodipodi:cy="38.977272"
           sodipodi:rx="34.545456"
           sodipodi:ry="3.0681818"
           d="M 68.863636 38.977272 A 34.545456 3.0681818 0 1 1  -0.22727585,38.977272 A 34.545456 3.0681818 0 1 1  68.863636 38.977272 z"
           transform="matrix(0.992252,0.000000,0.000000,3.259256,0.845673,-102.0369)" />
        <path
           sodipodi:type="arc"
           style="fill:none;fill-opacity:1.0000000;stroke:url(#radialGradient3871);stroke-width:0.69238997;stroke-linecap:round;stroke-linejoin:round;stroke-miterlimit:4.0000000;stroke-dashoffset:0.0000000;stroke-opacity:1.0000000"
           id="path3867"
           sodipodi:cx="34.318180"
           sodipodi:cy="38.977272"
           sodipodi:rx="34.545456"
           sodipodi:ry="3.0681818"
           d="M 68.863636 38.977272 A 34.545456 3.0681818 0 1 1  -0.22727585,38.977272 A 34.545456 3.0681818 0 1 1  68.863636 38.977272 z"
           transform="matrix(0.992252,0.000000,0.000000,3.259256,0.845673,-102.0369)" />
        <path
           sodipodi:type="arc"
           style="fill:none;fill-opacity:1.0000000;stroke:url(#radialGradient3873);stroke-width:0.69238997;stroke-linecap:round;stroke-linejoin:round;stroke-miterlimit:4.0000000;stroke-dashoffset:0.0000000;stroke-opacity:1.0000000"
           id="path3872"
           sodipodi:cx="34.318180"
           sodipodi:cy="38.977272"
           sodipodi:rx="34.545456"
           sodipodi:ry="3.0681818"
           d="M 68.863636 38.977272 A 34.545456 3.0681818 0 1 1  -0.22727585,38.977272 A 34.545456 3.0681818 0 1 1  68.863636 38.977272 z"
           transform="matrix(0.992252,0.000000,0.000000,3.259256,0.845673,-102.0369)" />
        <path
           style="opacity:0.91847825;fill:url(#linearGradient5762);fill-opacity:1.0000000;stroke:none;stroke-width:2.7172995;stroke-linecap:round;stroke-linejoin:round;stroke-miterlimit:4.0000000;stroke-dashoffset:0.0000000;stroke-opacity:1.0000000"
           d="M 35.062500,15.250000 C 16.581270,15.250000 1.5625000,19.536437 1.5625000,24.812500 C 1.5625000,30.088563 16.581271,34.343749 35.062500,34.343750 C 53.543730,34.343750 68.531248,30.088563 68.531250,24.812500 C 68.531250,19.536437 53.543731,15.250000 35.062500,15.250000 z M 35.062500,18.375000 C 50.171534,18.375000 62.437500,21.261751 62.437500,24.812500 C 62.437500,28.363249 50.171532,31.218750 35.062500,31.218750 C 19.953469,31.218751 7.6875000,28.363249 7.6875000,24.812500 C 7.6874999,21.261751 19.953468,18.375000 35.062500,18.375000 z "
           id="path5761" />
        <path
           sodipodi:type="arc"
           style="opacity:0.91847825;fill:url(#radialGradient7875);fill-opacity:1.0000000;stroke:url(#linearGradient7876);stroke-width:0.48492745;stroke-linecap:round;stroke-linejoin:round;stroke-miterlimit:4.0000000;stroke-dashoffset:0.0000000;stroke-opacity:1.0000000"
           id="path6498"
           sodipodi:cx="34.318180"
           sodipodi:cy="38.977272"
           sodipodi:rx="34.545456"
           sodipodi:ry="3.0681818"
           d="M 68.863636 38.977272 A 34.545456 3.0681818 0 1 1  -0.22727585,38.977272 A 34.545456 3.0681818 0 1 1  68.863636 38.977272 z"
           transform="matrix(0.792331,0.000000,0.000000,2.096524,7.866066,-56.91775)" />
        <path
           sodipodi:type="arc"
           style="opacity:0.91847825;fill:none;fill-opacity:1.0000000;stroke:url(#linearGradient7145);stroke-width:0.48492745;stroke-linecap:round;stroke-linejoin:round;stroke-miterlimit:4.0000000;stroke-dashoffset:0.0000000;stroke-opacity:1.0000000"
           id="path7144"
           sodipodi:cx="34.318180"
           sodipodi:cy="38.977272"
           sodipodi:rx="34.545456"
           sodipodi:ry="3.0681818"
           d="M 68.863636 38.977272 A 34.545456 3.0681818 0 1 1  -0.22727585,38.977272 A 34.545456 3.0681818 0 1 1  68.863636 38.977272 z"
           transform="matrix(-0.792331,0.000000,0.000000,2.096524,62.24878,-56.91775)" />
        <path
           sodipodi:type="arc"
           style="opacity:0.91847825;fill:none;fill-opacity:1.0000000;stroke:url(#linearGradient7143);stroke-width:0.48492745;stroke-linecap:round;stroke-linejoin:round;stroke-miterlimit:4.0000000;stroke-dashoffset:0.0000000;stroke-opacity:1.0000000"
           id="path7142"
           sodipodi:cx="34.318180"
           sodipodi:cy="38.977272"
           sodipodi:rx="34.545456"
           sodipodi:ry="3.0681818"
           d="M 68.863636 38.977272 A 34.545456 3.0681818 0 1 1  -0.22727585,38.977272 A 34.545456 3.0681818 0 1 1  68.863636 38.977272 z"
           transform="matrix(0.792331,0.000000,0.000000,2.096524,7.866066,-56.91777)" />
      </g>
    </g>
  </g>
</svg>
