<?xml version="1.0" encoding="UTF-8" standalone="no"?>
<!-- Created with Inkscape (http://www.inkscape.org/) -->
<svg
   xmlns:dc="http://purl.org/dc/elements/1.1/"
   xmlns:cc="http://web.resource.org/cc/"
   xmlns:rdf="http://www.w3.org/1999/02/22-rdf-syntax-ns#"
   xmlns:svg="http://www.w3.org/2000/svg"
   xmlns="http://www.w3.org/2000/svg"
   xmlns:xlink="http://www.w3.org/1999/xlink"
   xmlns:sodipodi="http://inkscape.sourceforge.net/DTD/sodipodi-0.dtd"
   xmlns:inkscape="http://www.inkscape.org/namespaces/inkscape"
   inkscape:export-ydpi="36.000000"
   inkscape:export-xdpi="36.000000"
   inkscape:export-filename="/home/nuno/kdeplayground-artwork/oooicons/crystalsvg/display2by2.png"
   sodipodi:docname="display2by2.svg"
   sodipodi:docbase="/home/nuno/kdeplayground-artwork/oooicons/crystalsvg"
   inkscape:version="0.41"
   sodipodi:version="0.32"
   id="svg7354"
   height="64pt"
   width="64pt">
  <defs
     id="defs3">
    <linearGradient
       gradientTransform="matrix(0.182431,0.000000,0.000000,0.213888,4.641008,0.357569)"
       y2="323.76923"
       x2="272.46765"
       y1="59.053604"
       x1="122.43015"
       gradientUnits="userSpaceOnUse"
       id="linearGradient3623"
       xlink:href="#graytolightgray"
       inkscape:collect="always" />
    <radialGradient
       gradientTransform="matrix(0.696376,0.000000,0.000000,0.816451,10.14487,4.039048)"
       r="23.6936"
       fy="81.1689"
       fx="74.4951"
       cy="81.1689"
       cx="74.4951"
       gradientUnits="userSpaceOnUse"
       id="radialGradient3622"
       xlink:href="#XMLID_9_"
       inkscape:collect="always" />
    <linearGradient
       id="graytolightgray">
      <stop
         id="stop5101"
         offset="0.0000000"
         style="stop-color:#d4d3d3;stop-opacity:1.0000000;" />
      <stop
         id="stop5102"
         offset="1.0000000"
         style="stop-color:#ffffff;stop-opacity:1.0000000;" />
    </linearGradient>
    <linearGradient
       gradientTransform="matrix(0.182431,0.000000,0.000000,0.213888,4.641008,0.357569)"
       y2="273.80606"
       x2="330.93881"
       y1="340.20792"
       x1="284.17496"
       gradientUnits="userSpaceOnUse"
       id="linearGradient3621"
       xlink:href="#graytolightgray"
       inkscape:collect="always" />
    <linearGradient
       id="light75to0">
      <stop
         id="stop2769"
         offset="0.0000000"
         style="stop-color:#ffffff;stop-opacity:0.72916669;" />
      <stop
         id="stop2770"
         offset="1.0000000"
         style="stop-color:#ffffff;stop-opacity:0.0000000;" />
    </linearGradient>
    <radialGradient
       gradientUnits="userSpaceOnUse"
       r="508.29517"
       fy="52.577991"
       fx="53.182602"
       cy="52.577991"
       cx="53.182602"
       gradientTransform="matrix(0.222656,0.000000,0.000000,0.175247,4.641008,1.797000e-2)"
       id="radialGradient6111"
       xlink:href="#light75to0"
       inkscape:collect="always" />
    <linearGradient
       gradientTransform="matrix(0.182431,0.000000,0.000000,0.213888,4.641008,0.357569)"
       y2="513.91156"
       x2="561.86395"
       y1="248.01839"
       x1="245.91402"
       gradientUnits="userSpaceOnUse"
       id="linearGradient3619"
       xlink:href="#garylighttowite"
       inkscape:collect="always" />
    <linearGradient
       id="garylighttowite">
      <stop
         id="stop5106"
         offset="0.0000000"
         style="stop-color:#7d7d7d;stop-opacity:1.0000000;" />
      <stop
         id="stop5107"
         offset="1.0000000"
         style="stop-color:#d3d4d4;stop-opacity:1.0000000;" />
    </linearGradient>
    <linearGradient
       gradientTransform="matrix(0.182431,0.000000,0.000000,0.213888,4.641008,0.357569)"
       y2="648.29797"
       x2="578.44397"
       y1="-50.289883"
       x1="-37.332329"
       gradientUnits="userSpaceOnUse"
       id="linearGradient3618"
       xlink:href="#garylighttowite"
       inkscape:collect="always" />
    <radialGradient
       r="23.6936"
       fy="81.1689"
       fx="74.4951"
       cy="81.1689"
       cx="74.4951"
       gradientTransform="matrix(0.696376,0.000000,0.000000,0.816451,10.14487,4.039048)"
       gradientUnits="userSpaceOnUse"
       id="radialGradient7426"
       xlink:href="#XMLID_9_"
       inkscape:collect="always" />
    <radialGradient
       r="508.29517"
       fy="52.577991"
       fx="53.182602"
       cy="52.577991"
       cx="53.182602"
       gradientTransform="matrix(0.126012,0.000000,0.000000,8.778748e-2,-0.716029,-2.187503)"
       gradientUnits="userSpaceOnUse"
       id="radialGradient1100"
       xlink:href="#light75to0"
       inkscape:collect="always" />
    <linearGradient
       y2="31.057203"
       x2="30.052425"
       y1="1.5748799"
       x1="5.7620001"
       gradientTransform="scale(0.992563,1.007493)"
       gradientUnits="userSpaceOnUse"
       id="linearGradient1101"
       xlink:href="#graytolightgray"
       inkscape:collect="always" />
    <linearGradient
       y2="648.29797"
       x2="578.44397"
       y1="-50.289883"
       x1="-37.332329"
       gradientTransform="matrix(0.103247,0.000000,0.000000,0.107145,-0.674670,-2.005934)"
       gradientUnits="userSpaceOnUse"
       id="linearGradient1102"
       xlink:href="#garylighttowite"
       inkscape:collect="always" />
    <linearGradient
       y2="513.91156"
       x2="561.86395"
       y1="248.01839"
       x1="245.91402"
       gradientTransform="matrix(0.103247,0.000000,0.000000,0.107145,-0.854288,-2.006555)"
       gradientUnits="userSpaceOnUse"
       id="linearGradient1103"
       xlink:href="#garylighttowite"
       inkscape:collect="always" />
    <linearGradient
       y2="273.80606"
       x2="330.93881"
       y1="340.20792"
       x1="284.17496"
       gradientTransform="matrix(0.103247,0.000000,0.000000,0.107145,-0.977250,-1.996823)"
       gradientUnits="userSpaceOnUse"
       id="linearGradient1104"
       xlink:href="#graytolightgray"
       inkscape:collect="always" />
    <linearGradient
       gradientUnits="userSpaceOnUse"
       y2="81.000404"
       x2="99.113098"
       y1="-24.615728"
       x1="-26.670929"
       gradientTransform="matrix(0.936464,0.000000,0.000000,1.067847,-5.596149e-2,0.111923)"
       id="linearGradient2136"
       xlink:href="#garylighttowite"
       inkscape:collect="always" />
    <linearGradient
       y2="49.458187"
       x2="78.956108"
       y1="4.2254186"
       x1="52.415089"
       gradientTransform="scale(0.992563,1.007493)"
       gradientUnits="userSpaceOnUse"
       id="linearGradient2912"
       xlink:href="#graytolightgray"
       inkscape:collect="always" />
    <linearGradient
       y2="273.80606"
       x2="330.93881"
       y1="340.20792"
       x1="284.17496"
       gradientTransform="matrix(0.103247,0.000000,0.000000,0.107145,39.12433,-1.871279)"
       gradientUnits="userSpaceOnUse"
       id="linearGradient2914"
       xlink:href="#graytolightgray"
       inkscape:collect="always" />
    <radialGradient
       r="508.29517"
       fy="52.577991"
       fx="53.182602"
       cy="52.577991"
       cx="53.182602"
       gradientTransform="matrix(0.126012,0.000000,0.000000,8.778748e-2,39.38555,-2.061959)"
       gradientUnits="userSpaceOnUse"
       id="radialGradient2916"
       xlink:href="#light75to0"
       inkscape:collect="always" />
    <linearGradient
       y2="513.91156"
       x2="561.86395"
       y1="248.01839"
       x1="245.91402"
       gradientTransform="matrix(0.103247,0.000000,0.000000,0.107145,39.24729,-1.881011)"
       gradientUnits="userSpaceOnUse"
       id="linearGradient2918"
       xlink:href="#garylighttowite"
       inkscape:collect="always" />
    <linearGradient
       y2="648.29797"
       x2="578.44397"
       y1="-50.289883"
       x1="-37.332329"
       gradientTransform="matrix(0.103247,0.000000,0.000000,0.107145,39.42691,-1.880390)"
       gradientUnits="userSpaceOnUse"
       id="linearGradient2920"
       xlink:href="#garylighttowite"
       inkscape:collect="always" />
    <linearGradient
       y2="81.000404"
       x2="99.113098"
       y1="-24.615728"
       x1="-26.670929"
       gradientTransform="matrix(0.936464,0.000000,0.000000,1.067847,40.04561,0.237467)"
       gradientUnits="userSpaceOnUse"
       id="linearGradient2922"
       xlink:href="#garylighttowite"
       inkscape:collect="always" />
    <linearGradient
       y2="107.78861"
       x2="50.402622"
       y1="46.947552"
       x1="12.121226"
       gradientTransform="scale(0.992563,1.007493)"
       gradientUnits="userSpaceOnUse"
       id="linearGradient2956"
       xlink:href="#graytolightgray"
       inkscape:collect="always" />
    <linearGradient
       y2="273.80606"
       x2="330.93881"
       y1="340.20792"
       x1="284.17496"
       gradientTransform="matrix(0.103247,0.000000,0.000000,0.107145,-0.869867,41.17096)"
       gradientUnits="userSpaceOnUse"
       id="linearGradient2958"
       xlink:href="#graytolightgray"
       inkscape:collect="always" />
    <radialGradient
       r="508.29517"
       fy="52.577991"
       fx="53.182602"
       cy="52.577991"
       cx="53.182602"
       gradientTransform="matrix(0.126012,0.000000,0.000000,8.778748e-2,-0.608646,40.98028)"
       gradientUnits="userSpaceOnUse"
       id="radialGradient2960"
       xlink:href="#light75to0"
       inkscape:collect="always" />
    <linearGradient
       y2="513.91156"
       x2="561.86395"
       y1="248.01839"
       x1="245.91402"
       gradientTransform="matrix(0.103247,0.000000,0.000000,0.107145,-0.746905,41.16123)"
       gradientUnits="userSpaceOnUse"
       id="linearGradient2962"
       xlink:href="#garylighttowite"
       inkscape:collect="always" />
    <linearGradient
       y2="648.29797"
       x2="578.44397"
       y1="-50.289883"
       x1="-37.332329"
       gradientTransform="matrix(0.103247,0.000000,0.000000,0.107145,-0.567287,41.16185)"
       gradientUnits="userSpaceOnUse"
       id="linearGradient2964"
       xlink:href="#garylighttowite"
       inkscape:collect="always" />
    <linearGradient
       y2="81.000404"
       x2="99.113098"
       y1="-24.615728"
       x1="-26.670929"
       gradientTransform="matrix(0.936464,0.000000,0.000000,1.067847,5.142060e-2,43.27970)"
       gradientUnits="userSpaceOnUse"
       id="linearGradient2966"
       xlink:href="#garylighttowite"
       inkscape:collect="always" />
    <linearGradient
       y2="105.64533"
       x2="85.811646"
       y1="56.552620"
       x1="56.798084"
       gradientTransform="scale(0.992563,1.007493)"
       gradientUnits="userSpaceOnUse"
       id="linearGradient2968"
       xlink:href="#graytolightgray"
       inkscape:collect="always" />
    <linearGradient
       y2="273.80606"
       x2="330.93881"
       y1="340.20792"
       x1="284.17496"
       gradientTransform="matrix(0.103247,0.000000,0.000000,0.107145,39.23171,41.29650)"
       gradientUnits="userSpaceOnUse"
       id="linearGradient2970"
       xlink:href="#graytolightgray"
       inkscape:collect="always" />
    <radialGradient
       r="508.29517"
       fy="52.577991"
       fx="53.182602"
       cy="52.577991"
       cx="53.182602"
       gradientTransform="matrix(0.126012,0.000000,0.000000,8.778748e-2,39.49293,41.10582)"
       gradientUnits="userSpaceOnUse"
       id="radialGradient2972"
       xlink:href="#light75to0"
       inkscape:collect="always" />
    <linearGradient
       y2="513.91156"
       x2="561.86395"
       y1="248.01839"
       x1="245.91402"
       gradientTransform="matrix(0.103247,0.000000,0.000000,0.107145,39.35467,41.28677)"
       gradientUnits="userSpaceOnUse"
       id="linearGradient2974"
       xlink:href="#garylighttowite"
       inkscape:collect="always" />
    <linearGradient
       y2="648.29797"
       x2="578.44397"
       y1="-50.289883"
       x1="-37.332329"
       gradientTransform="matrix(0.103247,0.000000,0.000000,0.107145,39.53429,41.28739)"
       gradientUnits="userSpaceOnUse"
       id="linearGradient2976"
       xlink:href="#garylighttowite"
       inkscape:collect="always" />
    <linearGradient
       y2="81.000404"
       x2="99.113098"
       y1="-24.615728"
       x1="-26.670929"
       gradientTransform="matrix(0.936464,0.000000,0.000000,1.067847,40.15299,43.40525)"
       gradientUnits="userSpaceOnUse"
       id="linearGradient2978"
       xlink:href="#garylighttowite"
       inkscape:collect="always" />
  </defs>
  <sodipodi:namedview
     inkscape:window-y="25"
     inkscape:window-x="0"
     inkscape:window-height="904"
     inkscape:window-width="1278"
     gridoriginx="0.0000000pt"
     gridoriginy="0.0000000pt"
     gridspacingx="1.0000000pt"
     gridspacingy="1.0000000pt"
     inkscape:grid-bbox="false"
     showgrid="false"
     inkscape:current-layer="layer1"
     inkscape:cy="35.704698"
     inkscape:cx="40.000000"
     inkscape:zoom="9.3125000"
     inkscape:pageshadow="2"
     inkscape:pageopacity="0.0"
     borderopacity="1.0"
     bordercolor="#666666"
     pagecolor="#ffffff"
     id="base" />
  <metadata
     id="metadata4">
    <rdf:RDF
       id="RDF5">
      <cc:Work
         id="Work6"
         rdf:about="">
        <dc:format
           id="format7">image/svg+xml</dc:format>
        <dc:type
           rdf:resource="http://purl.org/dc/dcmitype/StillImage"
           id="type9" />
      </cc:Work>
    </rdf:RDF>
  </metadata>
  <g
     inkscape:groupmode="layer"
     inkscape:label="Layer 1"
     id="layer1">
    <path
       inkscape:export-ydpi="48.818890"
       inkscape:export-xdpi="48.818890"
       sodipodi:nodetypes="ccccccc"
       id="path1105"
       d="M 19.326045,1.6094064 L 36.543306,1.4429936 L 36.543306,26.987313 L 26.997101,36.805651 L 5.5181411,36.805651 L 5.4329075,31.979688 L 19.326045,1.6094064 z "
       style="fill:#cbcbcb;fill-opacity:1.0000000;fill-rule:evenodd;stroke:none;stroke-width:0.25000000pt;stroke-linecap:butt;stroke-linejoin:miter;stroke-opacity:1.0000000" />
    <path
       id="path1727"
       d="M 4.6658018,0.36131260 L 35.264797,0.44451858 L 35.094328,25.822426 L 25.974293,35.224732 L 4.5805681,35.474351 L 4.6658018,0.36131260 z "
       style="fill:#ffffff;fill-opacity:1.0000000;fill-rule:evenodd;stroke:none;stroke-width:0.25000000pt;stroke-linecap:butt;stroke-linejoin:miter;stroke-opacity:1.0000000" />
    <path
       style="fill-opacity:1.0;fill:url(#linearGradient1101)"
       id="path146"
       d="M 34.249043,1.0490653 L 5.3602783,1.0490653 L 5.3173176,34.515596 L 25.869329,34.515596 L 34.249043,25.988349 L 34.249043,1.0490653 z " />
    <path
       style="fill:#ffffff"
       id="path163"
       d="M 26.173969,35.115240 L 35.213826,25.734617 L 26.173969,25.734617 L 26.173969,35.115240 z " />
    <path
       style="fill:url(#linearGradient1104);fill-opacity:1.0000000"
       id="path178"
       d="M 26.497615,34.943308 L 34.453259,26.688224 L 26.497615,26.688224 L 26.497615,34.943308 z " />
    <path
       sodipodi:nodetypes="ccccc"
       style="fill:url(#radialGradient1100);fill-opacity:1.0000000"
       id="path195"
       d="M 34.323135,4.1130429 L 34.323135,0.96585934 L 5.3433289,0.96585934 L 5.3173176,19.193371 C 16.449058,22.928887 32.561828,13.501440 34.323135,4.1130429 z " />
    <path
       style="fill:url(#linearGradient1103);fill-opacity:1.0000000"
       id="path210"
       d="M 25.994363,25.876469 C 25.885587,25.876469 25.797304,25.968084 25.797304,26.080964 L 25.797304,35.461588 C 25.797304,35.544612 25.845388,35.619046 25.919089,35.650948 C 25.992786,35.682033 26.077520,35.665265 26.133879,35.606370 L 35.173342,26.225747 C 35.229702,26.167261 35.246651,26.079332 35.216302,26.002849 C 35.185561,25.926366 35.113829,25.876469 35.033823,25.876469 L 25.994363,25.876469 z M 34.558128,26.285461 C 33.958672,26.907536 26.790874,34.345453 26.191423,34.967937 C 26.191423,34.102102 26.191423,26.656416 26.191423,26.285461 C 26.548094,26.285461 33.723780,26.285461 34.558128,26.285461 z " />
    <path
       style="fill:url(#linearGradient1102);fill-opacity:1.0000000;stroke:url(#linearGradient2136);stroke-width:0.25000000;stroke-miterlimit:4.0000000;stroke-opacity:1.0000000"
       id="path225"
       d="M 35.016377,0.54621709 C 35.016377,0.94743632 35.016377,25.829648 35.016377,25.996926 C 34.903262,26.114306 26.205501,35.139922 26.092386,35.257710 C 25.931980,35.257710 5.0634911,35.257710 4.6776482,35.257710 C 4.6776482,34.856086 4.6776482,0.94825624 4.6776482,0.54662613 C 5.0642770,0.54621709 34.630140,0.54621709 35.016377,0.54621709 z M 35.213431,0.13722545 L 4.2835344,0.13722545 L 4.2835344,35.666294 L 26.255553,35.666294 L 35.410491,26.165842 L 35.410491,0.13722545 L 35.213431,0.13722545 z " />
    <path
       inkscape:export-ydpi="48.818890"
       inkscape:export-xdpi="48.818890"
       sodipodi:nodetypes="ccccccc"
       id="path2896"
       d="M 59.427618,1.7349506 L 76.644879,1.5685378 L 76.644879,27.112857 L 67.098674,36.931195 L 45.619714,36.931195 L 45.534481,32.105232 L 59.427618,1.7349506 z "
       style="fill:#cbcbcb;fill-opacity:1.0000000;fill-rule:evenodd;stroke:none;stroke-width:0.25000000pt;stroke-linecap:butt;stroke-linejoin:miter;stroke-opacity:1.0000000" />
    <path
       id="path2898"
       d="M 44.767375,0.48685685 L 75.366370,0.57006283 L 75.195901,25.947970 L 66.075866,35.350276 L 44.682141,35.599895 L 44.767375,0.48685685 z "
       style="fill:#ffffff;fill-opacity:1.0000000;fill-rule:evenodd;stroke:none;stroke-width:0.25000000pt;stroke-linecap:butt;stroke-linejoin:miter;stroke-opacity:1.0000000" />
    <path
       style="fill-opacity:1.0;fill:url(#linearGradient2912)"
       id="path2900"
       d="M 74.350616,1.1746095 L 45.461851,1.1746095 L 45.418891,34.641140 L 65.970902,34.641140 L 74.350616,26.113893 L 74.350616,1.1746095 z " />
    <path
       style="fill:#ffffff"
       id="path2902"
       d="M 66.275542,35.240784 L 75.315399,25.860161 L 66.275542,25.860161 L 66.275542,35.240784 z " />
    <path
       style="fill:url(#linearGradient2914);fill-opacity:1.0000000"
       id="path2904"
       d="M 66.599188,35.068852 L 74.554832,26.813768 L 66.599188,26.813768 L 66.599188,35.068852 z " />
    <path
       sodipodi:nodetypes="ccccc"
       style="fill:url(#radialGradient2916);fill-opacity:1.0000000"
       id="path2906"
       d="M 74.424708,4.2385871 L 74.424708,1.0914035 L 45.444902,1.0914035 L 45.418891,19.318915 C 56.550631,23.054431 72.663401,13.626984 74.424708,4.2385871 z " />
    <path
       style="fill:url(#linearGradient2918);fill-opacity:1.0000000"
       id="path2908"
       d="M 66.095936,26.002013 C 65.987160,26.002013 65.898877,26.093628 65.898877,26.206508 L 65.898877,35.587132 C 65.898877,35.670156 65.946961,35.744590 66.020662,35.776492 C 66.094359,35.807577 66.179093,35.790809 66.235452,35.731914 L 75.274915,26.351291 C 75.331275,26.292805 75.348224,26.204876 75.317875,26.128393 C 75.287134,26.051910 75.215402,26.002013 75.135396,26.002013 L 66.095936,26.002013 z M 74.659701,26.411005 C 74.060245,27.033080 66.892447,34.470997 66.292996,35.093481 C 66.292996,34.227646 66.292996,26.781960 66.292996,26.411005 C 66.649667,26.411005 73.825353,26.411005 74.659701,26.411005 z " />
    <path
       style="fill:url(#linearGradient2920);fill-opacity:1.0000000;stroke:url(#linearGradient2922);stroke-width:0.25000000;stroke-miterlimit:4.0000000;stroke-opacity:1.0000000"
       id="path2910"
       d="M 75.117950,0.67176134 C 75.117950,1.0729805 75.117950,25.955192 75.117950,26.122470 C 75.004835,26.239850 66.307074,35.265466 66.193959,35.383254 C 66.033553,35.383254 45.165064,35.383254 44.779221,35.383254 C 44.779221,34.981630 44.779221,1.0738004 44.779221,0.67217038 C 45.165850,0.67176134 74.731713,0.67176134 75.117950,0.67176134 z M 75.315004,0.26276970 L 44.385107,0.26276970 L 44.385107,35.791838 L 66.357126,35.791838 L 75.512064,26.291386 L 75.512064,0.26276970 L 75.315004,0.26276970 z " />
    <path
       inkscape:export-ydpi="48.818890"
       inkscape:export-xdpi="48.818890"
       sodipodi:nodetypes="ccccccc"
       id="path2924"
       d="M 19.433428,44.777192 L 36.650689,44.610779 L 36.650689,70.155098 L 27.104484,79.973436 L 5.6255237,79.973436 L 5.5402901,75.147473 L 19.433428,44.777192 z "
       style="fill:#cbcbcb;fill-opacity:1.0000000;fill-rule:evenodd;stroke:none;stroke-width:0.25000000pt;stroke-linecap:butt;stroke-linejoin:miter;stroke-opacity:1.0000000" />
    <path
       id="path2926"
       d="M 4.7731844,43.529098 L 35.372180,43.612304 L 35.201711,68.990211 L 26.081676,78.392517 L 4.6879507,78.642136 L 4.7731844,43.529098 z "
       style="fill:#ffffff;fill-opacity:1.0000000;fill-rule:evenodd;stroke:none;stroke-width:0.25000000pt;stroke-linecap:butt;stroke-linejoin:miter;stroke-opacity:1.0000000" />
    <path
       style="fill-opacity:1.0;fill:url(#linearGradient2956)"
       id="path2928"
       d="M 34.356426,44.216851 L 5.4676609,44.216851 L 5.4247002,77.683381 L 25.976712,77.683381 L 34.356426,69.156134 L 34.356426,44.216851 z " />
    <path
       style="fill:#ffffff"
       id="path2930"
       d="M 26.281352,78.283025 L 35.321209,68.902402 L 26.281352,68.902402 L 26.281352,78.283025 z " />
    <path
       style="fill:url(#linearGradient2958);fill-opacity:1.0000000"
       id="path2932"
       d="M 26.604998,78.111093 L 34.560642,69.856009 L 26.604998,69.856009 L 26.604998,78.111093 z " />
    <path
       sodipodi:nodetypes="ccccc"
       style="fill:url(#radialGradient2960);fill-opacity:1.0000000"
       id="path2934"
       d="M 34.430518,47.280828 L 34.430518,44.133645 L 5.4507115,44.133645 L 5.4247002,62.361156 C 16.556441,66.096672 32.669211,56.669225 34.430518,47.280828 z " />
    <path
       style="fill:url(#linearGradient2962);fill-opacity:1.0000000"
       id="path2936"
       d="M 26.101746,69.044254 C 25.992970,69.044254 25.904687,69.135869 25.904687,69.248749 L 25.904687,78.629373 C 25.904687,78.712397 25.952771,78.786831 26.026472,78.818733 C 26.100169,78.849818 26.184903,78.833050 26.241262,78.774155 L 35.280725,69.393532 C 35.337085,69.335046 35.354034,69.247117 35.323685,69.170634 C 35.292944,69.094151 35.221212,69.044254 35.141206,69.044254 L 26.101746,69.044254 z M 34.665511,69.453246 C 34.066055,70.075321 26.898257,77.513238 26.298806,78.135722 C 26.298806,77.269887 26.298806,69.824201 26.298806,69.453246 C 26.655477,69.453246 33.831163,69.453246 34.665511,69.453246 z " />
    <path
       style="fill:url(#linearGradient2964);fill-opacity:1.0000000;stroke:url(#linearGradient2966);stroke-width:0.25000000;stroke-miterlimit:4.0000000;stroke-opacity:1.0000000"
       id="path2938"
       d="M 35.123760,43.714002 C 35.123760,44.115222 35.123760,68.997433 35.123760,69.164711 C 35.010645,69.282091 26.312884,78.307707 26.199769,78.425495 C 26.039363,78.425495 5.1708737,78.425495 4.7850308,78.425495 C 4.7850308,78.023871 4.7850308,44.116042 4.7850308,43.714411 C 5.1716596,43.714002 34.737523,43.714002 35.123760,43.714002 z M 35.320814,43.305011 L 4.3909170,43.305011 L 4.3909170,78.834079 L 26.362936,78.834079 L 35.517874,69.333627 L 35.517874,43.305011 L 35.320814,43.305011 z " />
    <path
       inkscape:export-ydpi="48.818890"
       inkscape:export-xdpi="48.818890"
       sodipodi:nodetypes="ccccccc"
       id="path2940"
       d="M 59.535001,44.902736 L 76.752262,44.736323 L 76.752262,70.280642 L 67.206057,80.098980 L 45.727097,80.098980 L 45.641864,75.273017 L 59.535001,44.902736 z "
       style="fill:#cbcbcb;fill-opacity:1.0000000;fill-rule:evenodd;stroke:none;stroke-width:0.25000000pt;stroke-linecap:butt;stroke-linejoin:miter;stroke-opacity:1.0000000" />
    <path
       id="path2942"
       d="M 44.874758,43.654642 L 75.473753,43.737848 L 75.303284,69.115755 L 66.183249,78.518061 L 44.789524,78.767680 L 44.874758,43.654642 z "
       style="fill:#ffffff;fill-opacity:1.0000000;fill-rule:evenodd;stroke:none;stroke-width:0.25000000pt;stroke-linecap:butt;stroke-linejoin:miter;stroke-opacity:1.0000000" />
    <path
       style="fill:url(#linearGradient2968);fill-opacity:1.0"
       id="path2944"
       d="M 74.457999,44.342395 L 45.569234,44.342395 L 45.526274,77.808925 L 66.078285,77.808925 L 74.457999,69.281678 L 74.457999,44.342395 z " />
    <path
       style="fill:#ffffff"
       id="path2946"
       d="M 66.382925,78.408569 L 75.422782,69.027946 L 66.382925,69.027946 L 66.382925,78.408569 z " />
    <path
       style="fill:url(#linearGradient2970);fill-opacity:1.0000000"
       id="path2948"
       d="M 66.706571,78.236637 L 74.662215,69.981553 L 66.706571,69.981553 L 66.706571,78.236637 z " />
    <path
       sodipodi:nodetypes="ccccc"
       style="fill:url(#radialGradient2972);fill-opacity:1.0000000"
       id="path2950"
       d="M 74.532091,47.406372 L 74.532091,44.259189 L 45.552285,44.259189 L 45.526274,62.486700 C 56.658014,66.222216 72.770784,56.794769 74.532091,47.406372 z " />
    <path
       style="fill:url(#linearGradient2974);fill-opacity:1.0000000"
       id="path2952"
       d="M 66.203319,69.169798 C 66.094543,69.169798 66.006260,69.261413 66.006260,69.374293 L 66.006260,78.754917 C 66.006260,78.837941 66.054344,78.912375 66.128045,78.944277 C 66.201742,78.975362 66.286476,78.958594 66.342835,78.899699 L 75.382298,69.519076 C 75.438658,69.460590 75.455607,69.372661 75.425258,69.296178 C 75.394517,69.219695 75.322785,69.169798 75.242779,69.169798 L 66.203319,69.169798 z M 74.767084,69.578790 C 74.167628,70.200865 66.999830,77.638782 66.400379,78.261266 C 66.400379,77.395431 66.400379,69.949745 66.400379,69.578790 C 66.757050,69.578790 73.932736,69.578790 74.767084,69.578790 z " />
    <path
       style="fill:url(#linearGradient2976);fill-opacity:1.0000000;stroke:url(#linearGradient2978);stroke-width:0.25000000;stroke-miterlimit:4.0000000;stroke-opacity:1.0000000"
       id="path2954"
       d="M 75.225333,43.839547 C 75.225333,44.240766 75.225333,69.122977 75.225333,69.290255 C 75.112218,69.407635 66.414457,78.433251 66.301342,78.551039 C 66.140936,78.551039 45.272447,78.551039 44.886604,78.551039 C 44.886604,78.149415 44.886604,44.241586 44.886604,43.839956 C 45.273233,43.839547 74.839096,43.839547 75.225333,43.839547 z M 75.422387,43.430555 L 44.492490,43.430555 L 44.492490,78.959623 L 66.464509,78.959623 L 75.619447,69.459171 L 75.619447,43.430555 L 75.422387,43.430555 z " />
  </g>
</svg>
