<?xml version="1.0" encoding="UTF-8" standalone="no"?>
<!DOCTYPE svg PUBLIC "-//W3C//DTD SVG 20010904//EN"
"http://www.w3.org/TR/2001/REC-SVG-20010904/DTD/svg10.dtd">
<!-- Created with Inkscape (http://www.inkscape.org/) -->
<svg
   id="svg2684"
   sodipodi:version="0.32"
   inkscape:version="0.40"
   width="300.00000pt"
   height="300.00000pt"
   sodipodi:docbase="/home/nuno/kdeplayground-artwork/oooicons/crystalsvg"
   sodipodi:docname="ortoautover.svg"
   inkscape:export-filename="/home/nuno/kdeplayground-artwork/oooicons/crystalsvg/ortoaotover.png"
   inkscape:export-xdpi="7.6799998"
   inkscape:export-ydpi="7.6799998"
   xmlns="http://www.w3.org/2000/svg"
   xmlns:cc="http://web.resource.org/cc/"
   xmlns:inkscape="http://www.inkscape.org/namespaces/inkscape"
   xmlns:sodipodi="http://sodipodi.sourceforge.net/DTD/sodipodi-0.dtd"
   xmlns:rdf="http://www.w3.org/1999/02/22-rdf-syntax-ns#"
   xmlns:dc="http://purl.org/dc/elements/1.1/"
   xmlns:xlink="http://www.w3.org/1999/xlink">
  <defs
     id="defs2686">
    <linearGradient
       id="shadow100to0">
      <stop
         style="stop-color:#000000;stop-opacity:1.0000000;"
         offset="0.0000000"
         id="stop3425" />
      <stop
         style="stop-color:#000000;stop-opacity:0.0000000;"
         offset="1.0000000"
         id="stop3426" />
    </linearGradient>
    <linearGradient
       x1="-91.849261"
       y1="44.608502"
       x2="-66.177619"
       y2="44.608502"
       id="linearGradient3427"
       collect="always"
       xlink:href="#shadow100to0"
       gradientTransform="matrix(1.356840,0.000000,0.000000,0.737006,660.2721,135.3399)"
       gradientUnits="userSpaceOnUse" />
    <linearGradient
       id="redtodarkred">
      <stop
         style="stop-color:#ff0000;stop-opacity:1.0000000;"
         offset="0.0000000"
         id="stop3856" />
      <stop
         style="stop-color:#920000;stop-opacity:1.0000000;"
         offset="1.0000000"
         id="stop3855" />
    </linearGradient>
    <linearGradient
       x1="-229.39058"
       y1="437.63879"
       x2="-203.84911"
       y2="437.63879"
       id="linearGradient4471"
       collect="always"
       xlink:href="#redtodarkred"
       gradientTransform="matrix(1.395481,0.000000,0.000000,0.716599,797.0919,-83.51617)"
       gradientUnits="userSpaceOnUse" />
    <linearGradient
       id="reddarktoblack">
      <stop
         style="stop-color:#8e0000;stop-opacity:1.0000000;"
         offset="0.0000000"
         id="stop3230" />
      <stop
         style="stop-color:#000000;stop-opacity:1.0000000;"
         offset="1.0000000"
         id="stop3231" />
    </linearGradient>
    <linearGradient
       x1="-229.39058"
       y1="487.08498"
       x2="-203.84911"
       y2="487.08498"
       id="linearGradient4473"
       collect="always"
       xlink:href="#reddarktoblack"
       gradientTransform="matrix(1.395481,0.000000,0.000000,0.716599,797.0919,-83.51617)"
       gradientUnits="userSpaceOnUse" />
    <linearGradient
       id="greandraktoblack">
      <stop
         style="stop-color:#007c00;stop-opacity:1.0000000;"
         offset="0.0000000"
         id="stop7328" />
      <stop
         style="stop-color:#025a00;stop-opacity:1.0000000;"
         offset="1.0000000"
         id="stop7329" />
    </linearGradient>
    <linearGradient
       id="linearGradient564"
       xlink:href="#greandraktoblack"
       x1="0.097560972"
       y1="0.083682008"
       x2="0.92225611"
       y2="0.94979078" />
    <linearGradient
       id="blacktowhite">
      <stop
         style="stop-color:#000000;stop-opacity:1.0000000;"
         offset="0.0000000"
         id="stop2476" />
      <stop
         style="stop-color:#ffffff;stop-opacity:1.0000000;"
         offset="1.0000000"
         id="stop2475" />
    </linearGradient>
    <linearGradient
       xlink:href="#blacktowhite"
       id="linearGradient572"
       x1="0.46197301"
       y1="1.1810369"
       x2="0.43943700"
       y2="0.27586201" />
    <linearGradient
       id="greandarktobgrean">
      <stop
         style="stop-color:#00ad01;stop-opacity:1.0000000;"
         offset="0.0000000"
         id="stop4492" />
      <stop
         style="stop-color:#15720f;stop-opacity:1.0000000;"
         offset="1.0000000"
         id="stop4493" />
    </linearGradient>
    <linearGradient
       xlink:href="#greandarktobgrean"
       id="linearGradient567"
       x1="0.75877196"
       y1="0.11856823"
       x2="0.42397660"
       y2="0.77404922" />
    <radialGradient
       xlink:href="#light100to0"
       id="radialGradient590"
       cx="0.42816901"
       cy="0.92692399"
       r="0.23689400"
       fx="0.42816901"
       fy="0.92692399"
       gradientTransform="scale(1.000001,0.999999)" />
    <linearGradient
       id="light100to0">
      <stop
         style="stop-color:#ffffff;stop-opacity:1.0000000;"
         offset="0.0000000"
         id="stop2764" />
      <stop
         style="stop-color:#ffffff;stop-opacity:0.0000000;"
         offset="1.0000000"
         id="stop2765" />
    </linearGradient>
    <linearGradient
       xlink:href="#light100to0"
       id="linearGradient597"
       x1="0.14647700"
       y1="-0.047118232"
       x2="0.51831001"
       y2="1.1230370" />
    <linearGradient
       inkscape:collect="always"
       xlink:href="#light100to0"
       id="linearGradient7998"
       gradientTransform="matrix(2.136200,0.000000,0.000000,0.468121,0.390064,19.82569)"
       x1="93.967003"
       y1="-42.937214"
       x2="94.981735"
       y2="374.61380"
       gradientUnits="userSpaceOnUse" />
    <linearGradient
       inkscape:collect="always"
       xlink:href="#reddarktoblack"
       id="linearGradient2959"
       gradientTransform="scale(2.132923,0.468840)"
       x1="2.2273533"
       y1="368.51505"
       x2="160.74759"
       y2="694.73969"
       gradientUnits="userSpaceOnUse" />
    <linearGradient
       inkscape:collect="always"
       xlink:href="#redtodarkred"
       id="linearGradient4698"
       gradientTransform="scale(2.061678,0.485042)"
       x1="51.173485"
       y1="381.57608"
       x2="136.41216"
       y2="633.78113"
       gradientUnits="userSpaceOnUse" />
    <linearGradient
       inkscape:collect="always"
       xlink:href="#light100to0"
       id="linearGradient5324"
       gradientTransform="scale(2.954070,0.338516)"
       x1="67.485023"
       y1="596.14899"
       x2="67.996582"
       y2="765.47943"
       gradientUnits="userSpaceOnUse" />
    <linearGradient
       inkscape:collect="always"
       xlink:href="#light100to0"
       id="linearGradient5947"
       gradientUnits="userSpaceOnUse"
       gradientTransform="scale(2.061678,0.485042)"
       x1="77.643898"
       y1="587.68091"
       x2="77.643898"
       y2="534.91028" />
    <linearGradient
       inkscape:collect="always"
       xlink:href="#shadow100to0"
       id="linearGradient3504"
       gradientUnits="userSpaceOnUse"
       gradientTransform="scale(2.061678,0.485042)"
       x1="241.18062"
       y1="711.04297"
       x2="49.925808"
       y2="602.70001" />
  </defs>
  <sodipodi:namedview
     id="base"
     pagecolor="#ffffff"
     bordercolor="#666666"
     borderopacity="1.0"
     inkscape:pageopacity="0.0"
     inkscape:pageshadow="2"
     inkscape:zoom="1.5233333"
     inkscape:cx="232.85980"
     inkscape:cy="164.37280"
     inkscape:window-width="939"
     inkscape:window-height="618"
     inkscape:window-x="299"
     inkscape:window-y="266"
     inkscape:current-layer="svg2684"
     showgrid="true"
     inkscape:grid-bbox="true" />
  <metadata
     id="metadata2687">
    <rdf:RDF
       id="RDF2688">
      <cc:Work
         rdf:about=""
         id="Work2689">
        <dc:format
           id="format2690">image/svg+xml</dc:format>
        <dc:type
           id="type2692"
           rdf:resource="http://purl.org/dc/dcmitype/StillImage" />
      </cc:Work>
    </rdf:RDF>
  </metadata>
  <path
     style="font-size:129.00000;font-style:normal;font-variant:normal;font-weight:normal;font-stretch:normal;fill:#000000;fill-opacity:1.0000000;stroke:#000000;stroke-width:6.7500005;stroke-linecap:butt;stroke-linejoin:miter;stroke-miterlimit:4.0000000;stroke-opacity:1.0000000;font-family:Bitstream Vera Sans;text-anchor:start;writing-mode:lr"
     d="M 76.032361,76.346596 L 54.023902,131.80607 L 98.121144,131.80607 L 76.032361,76.346596 M 66.875557,61.492714 L 85.269489,61.492714 L 130.97318,172.93415 L 114.10540,172.93415 L 103.18148,144.34603 L 49.124208,144.34603 L 38.200302,172.93415 L 21.091536,172.93415 L 66.875557,61.492714 M 164.62845,119.71396 L 164.62845,160.54348 L 190.65306,160.54348 C 199.38141,160.54349 205.83401,158.87647 210.01086,155.54242 C 214.24112,152.15864 216.35629,147.00831 216.35638,140.09140 C 216.35629,133.12479 214.24112,127.99934 210.01086,124.71502 C 205.83401,121.38103 199.38141,119.71401 190.65306,119.71396 L 164.62845,119.71396 M 164.62845,73.883389 L 164.62845,107.47257 L 188.64499,107.47257 C 196.57011,107.47264 202.46045,106.10419 206.31601,103.36723 C 210.22498,100.58064 212.17950,96.350896 212.17959,90.677980 C 212.17950,85.054990 210.22498,80.850126 206.31601,78.063376 C 202.46045,75.276816 196.57011,73.883488 188.64499,73.883389 L 164.62845,73.883389 M 148.40324,61.492714 L 189.84983,61.492714 C 202.21949,61.492825 211.75112,63.881386 218.44476,68.658405 C 225.13824,73.435633 228.48502,80.228105 228.48512,89.035841 C 228.48502,95.853279 226.77147,101.27730 223.34446,105.30793 C 219.91726,109.33870 214.88371,111.85167 208.24376,112.84684 C 216.22242,114.43927 222.40726,117.77331 226.79834,122.84895 C 231.24278,127.87493 233.46503,134.16979 233.46514,141.73354 C 233.46503,151.68591 229.82374,159.37409 222.54124,164.79811 C 215.25854,170.22214 204.89690,172.93415 191.45629,172.93415 L 148.40324,172.93415 L 148.40324,61.492714 M 348.08584,70.076615 L 348.08584,85.975494 C 342.62379,81.248220 336.78699,77.715139 330.57545,75.376242 C 324.41729,73.037539 317.85760,71.868139 310.89636,71.868038 C 297.18787,71.868139 286.69236,75.774433 279.40981,83.586930 C 272.12717,91.349845 268.48587,102.59599 268.48590,117.32540 C 268.48587,132.00515 272.12717,143.25130 279.40981,151.06386 C 286.69236,158.82671 297.18787,162.70812 310.89636,162.70811 C 317.85760,162.70812 324.41729,161.53872 330.57545,159.19991 C 336.78699,156.86112 342.62379,153.32804 348.08584,148.60066 L 348.08584,164.35025 C 342.40959,167.93310 336.38538,170.62023 330.01320,172.41165 C 323.69438,174.20308 317.00083,175.09879 309.93249,175.09879 C 291.77947,175.09879 277.48202,169.94845 267.04008,159.64777 C 256.59811,149.29734 251.37712,135.18990 251.37713,117.32540 C 251.37712,99.411241 256.59811,85.303798 267.04008,75.003028 C 277.48202,64.652693 291.77947,59.477476 309.93249,59.477362 C 317.10792,59.477476 323.85503,60.373186 330.17384,62.164497 C 336.54603,63.906267 342.51668,66.543637 348.08584,70.076615"
     id="text5477"
     inkscape:export-xdpi="7.6799998"
     inkscape:export-ydpi="7.6799998" />
  <path
     style="font-size:129.00000;font-style:normal;font-variant:normal;font-weight:normal;font-stretch:normal;fill:url(#linearGradient7998);fill-opacity:1.0000000;stroke:none;stroke-width:1.8270552;stroke-linecap:butt;stroke-linejoin:miter;stroke-miterlimit:4.0000000;stroke-opacity:1.0000000;font-family:Bitstream Vera Sans;text-anchor:start;writing-mode:lr"
     d="M 310.36708,59.649268 C 292.21407,59.649378 277.90276,64.830188 267.46083,75.180518 C 257.01885,85.481288 251.80458,99.610108 251.80458,117.52427 C 251.80458,120.02828 251.94318,122.41789 252.14833,124.77427 C 257.96690,125.29579 263.78161,125.81467 269.46083,125.99302 C 269.15576,123.27614 268.92958,120.52883 268.92958,117.52427 C 268.92955,102.79486 272.55319,91.537178 279.83583,83.774268 C 287.11839,75.961768 297.62735,72.055628 311.33583,72.055518 C 318.29707,72.055618 324.83391,73.216818 330.99208,75.555518 C 337.20362,77.894418 343.06128,81.421988 348.52333,86.149268 L 348.52333,70.274268 C 342.95418,66.741288 336.98926,64.078538 330.61708,62.336768 C 324.29827,60.545458 317.54251,59.649378 310.36708,59.649268 z M 67.304588,61.680518 L 45.773338,114.11802 C 51.572268,111.41904 57.657218,109.29514 64.054588,107.77427 L 76.460838,76.524268 L 87.617088,104.49302 C 92.697638,104.20849 97.851138,104.08437 103.14833,104.21177 L 85.710838,61.680518 L 67.304588,61.680518 z M 148.83583,61.680518 L 148.83583,108.80552 C 174.06998,112.64859 200.16839,117.85673 225.80458,121.64927 C 221.52772,117.38424 215.87095,114.45956 208.67958,113.02427 C 215.31952,112.02910 220.34612,109.52378 223.77333,105.49302 C 227.20034,101.46239 228.92948,96.029198 228.92958,89.211768 C 228.92948,80.404028 225.56057,73.613998 218.86708,68.836768 C 212.17343,64.059748 202.64297,61.680628 190.27333,61.680518 L 148.83583,61.680518 z M 165.05458,74.055518 L 189.08583,74.055518 C 197.01095,74.055618 202.88650,75.456458 206.74208,78.243018 C 210.65105,81.029768 212.61700,85.245038 212.61708,90.868018 C 212.61700,96.540938 210.65103,100.76892 206.74208,103.55552 C 202.88651,106.29248 197.01096,107.64935 189.08583,107.64927 L 165.05458,107.64927 L 165.05458,74.055518 z "
     id="text6744" />
  <path
     style="fill:url(#linearGradient4698);fill-opacity:1.0;fill-rule:evenodd;stroke:url(#linearGradient2959);stroke-width:6.9125000;stroke-linecap:round;stroke-linejoin:miter;stroke-miterlimit:4.0000000;stroke-opacity:1.0000000;stroke-dasharray:none;"
     d="M 69.062500,209.06250 C 58.346657,209.13735 53.400902,215.43522 48.875000,220.62500 C 44.349098,225.81478 40.365664,231.74352 36.468750,237.40625 C 32.571836,243.06898 28.757067,248.42913 25.750000,251.78125 C 22.742933,255.13337 20.548452,254.98954 23.687500,254.87500 C 18.930942,254.85716 14.546977,257.44687 12.266958,261.62140 C 9.9869393,265.79593 10.177439,270.88410 12.763222,274.87645 C 15.349006,278.86880 19.914342,281.12346 24.656250,280.75000 C 34.945353,280.37456 40.302335,274.36530 45.031250,269.09375 C 49.760165,263.82220 53.881227,257.80641 57.812500,252.09375 C 61.743773,246.38109 65.505482,240.98251 68.406250,237.65625 C 68.628015,237.40196 68.789616,237.30400 69.000000,237.09375 C 69.283817,237.37718 69.510960,237.53914 69.812500,237.90625 C 72.827897,241.57736 76.714539,247.45729 80.687500,253.62500 C 84.660461,259.79271 88.728157,266.24008 93.312500,271.81250 C 97.896843,277.38492 102.68033,284.25000 114.06250,284.25000 C 125.42974,284.25001 130.25451,277.28995 134.75000,271.71875 C 139.24549,266.14755 143.20602,259.73611 147.12500,253.62500 C 151.04398,247.51389 154.89945,241.73403 157.96875,238.15625 C 158.76666,237.22616 159.10430,237.09460 159.68750,236.62500 C 160.15034,237.04596 160.31771,237.07361 160.93750,237.84375 C 163.76248,241.35398 167.32930,247.15216 171.03125,253.31250 C 174.73320,259.47284 178.54461,265.98847 183.15625,271.71875 C 187.76789,277.44903 193.63945,284.25000 204.46875,284.25000 C 215.29806,284.25001 221.13856,277.53991 225.84375,271.84375 C 230.54894,266.14759 234.51093,259.66034 238.34375,253.50000 C 242.17657,247.33966 245.88478,241.51309 248.81250,237.96875 C 249.45887,237.18625 249.66541,237.15218 250.15625,236.71875 C 250.60134,237.13100 250.76300,237.12213 251.34375,237.84375 C 254.16873,241.35398 257.73555,247.15216 261.43750,253.31250 C 265.13945,259.47284 268.98211,265.98847 273.59375,271.71875 C 278.20539,277.44903 284.07695,284.25000 294.90625,284.25000 C 305.11060,284.25001 311.17656,278.09701 315.81250,272.78125 C 320.44844,267.46549 324.24257,261.47159 327.90625,255.84375 C 331.56993,250.21591 335.09670,244.94276 337.87500,241.78125 C 340.65330,238.61974 342.15097,238.91922 339.87500,238.96875 C 344.54904,238.93520 348.84274,236.38692 351.11122,232.30014 C 353.37970,228.21336 353.27131,223.22158 350.82758,219.23712 C 348.38385,215.25265 343.98359,212.89314 339.31250,213.06250 C 329.24003,213.28169 323.11364,219.33083 318.40625,224.68750 C 313.69886,230.04417 309.86228,236.07385 306.18750,241.71875 C 302.51272,247.36365 299.00013,252.63242 296.28125,255.75000 C 295.71631,256.39778 295.57804,256.41121 295.15625,256.78125 C 294.67016,256.35085 294.45995,256.31208 293.78125,255.46875 C 290.95627,251.95852 287.35820,246.12909 283.65625,239.96875 C 279.95430,233.80841 276.14289,227.32403 271.53125,221.59375 C 266.91961,215.86347 261.04805,209.06250 250.21875,209.06250 C 239.38944,209.06250 233.54894,215.77258 228.84375,221.46875 C 224.13856,227.16492 220.17656,233.65216 216.34375,239.81250 C 212.51094,245.97284 208.80272,251.79941 205.87500,255.34375 C 205.22530,256.13029 205.02360,256.15963 204.53125,256.59375 C 204.08616,256.18150 203.92450,256.19037 203.34375,255.46875 C 200.51878,251.95852 196.95195,246.12909 193.25000,239.96875 C 189.54805,233.80841 185.73664,227.32403 181.12500,221.59375 C 176.51336,215.86347 170.61055,209.06250 159.78125,209.06250 C 148.95194,209.06250 143.17044,215.61852 138.31250,221.28125 C 133.45456,226.94398 129.29462,233.44668 125.31250,239.65625 C 121.33038,245.86582 117.52332,251.76820 114.56250,255.43750 C 114.35432,255.69550 114.19960,255.78426 114.00000,256.00000 C 113.76753,255.75848 113.58655,255.63888 113.34375,255.34375 C 110.31435,251.66141 106.43956,245.75812 102.46875,239.59375 C 98.497940,233.42938 94.411352,226.99834 89.843750,221.43750 C 85.276148,215.87666 80.510977,208.98254 69.062500,209.06250 z "
     id="path1712" />
  <path
     style="fill:url(#linearGradient5324);fill-opacity:1.0;fill-rule:evenodd;stroke:none;stroke-width:6.9125000;stroke-linecap:round;stroke-linejoin:miter;stroke-miterlimit:4.0000000;stroke-opacity:1.0000000;stroke-dasharray:none;"
     d="M 69.062500,209.06250 C 58.346657,209.13735 53.400902,215.43522 48.875000,220.62500 C 44.349098,225.81478 40.365664,231.74352 36.468750,237.40625 C 32.571836,243.06898 65.505482,240.98251 68.406250,237.65625 C 68.628015,237.40196 68.789616,237.30400 69.000000,237.09375 C 69.283817,237.37718 69.510960,237.53914 69.812500,237.90625 C 72.827897,241.57736 154.89945,241.73403 157.96875,238.15625 C 158.76666,237.22616 159.10430,237.09460 159.68750,236.62500 C 160.15034,237.04596 160.31771,237.07361 160.93750,237.84375 C 163.76248,241.35398 245.88478,241.51309 248.81250,237.96875 C 249.45887,237.18625 249.66541,237.15218 250.15625,236.71875 C 250.60134,237.13100 250.76300,237.12213 251.34375,237.84375 C 254.16873,241.35398 335.09670,244.94276 337.87500,241.78125 C 340.65330,238.61974 342.15097,238.91922 339.87500,238.96875 C 344.54904,238.93520 348.84274,236.38692 351.11122,232.30014 C 353.37970,228.21336 353.27131,223.22158 350.82758,219.23712 C 348.38385,215.25265 343.98359,212.89314 339.31250,213.06250 C 329.24003,213.28169 323.11364,219.33083 318.40625,224.68750 C 313.69886,230.04417 309.86228,236.07385 306.18750,241.71875 C 302.51272,247.36365 287.35820,246.12909 283.65625,239.96875 C 279.95430,233.80841 276.14289,227.32403 271.53125,221.59375 C 266.91961,215.86347 261.04805,209.06250 250.21875,209.06250 C 239.38944,209.06250 233.54894,215.77258 228.84375,221.46875 C 224.13856,227.16492 220.17656,233.65216 216.34375,239.81250 C 212.51094,245.97284 196.95195,246.12909 193.25000,239.96875 C 189.54805,233.80841 185.73664,227.32403 181.12500,221.59375 C 176.51336,215.86347 170.61055,209.06250 159.78125,209.06250 C 148.95194,209.06250 143.17044,215.61852 138.31250,221.28125 C 133.45456,226.94398 129.29462,233.44668 125.31250,239.65625 C 121.33038,245.86582 106.43956,245.75812 102.46875,239.59375 C 98.497940,233.42938 94.411352,226.99834 89.843750,221.43750 C 85.276148,215.87666 80.510977,208.98254 69.062500,209.06250 z "
     id="path4699"
     sodipodi:nodetypes="cccccccccccccccccccccccccccccccc" />
  <path
     style="fill:url(#linearGradient5947);fill-opacity:1.0;fill-rule:evenodd;stroke:none;stroke-width:6.9125000;stroke-linecap:round;stroke-linejoin:miter;stroke-miterlimit:4.0000000;stroke-opacity:1.0000000;stroke-dasharray:none;"
     d="M 69.062500,209.06250 C 58.346657,209.13735 53.400902,215.43522 48.875000,220.62500 C 44.349098,225.81478 40.365664,231.74352 36.468750,237.40625 C 32.571836,243.06898 28.757067,248.42913 25.750000,251.78125 C 22.742933,255.13337 20.548452,254.98954 23.687500,254.87500 C 18.930942,254.85716 14.546977,257.44687 12.266958,261.62140 C 9.9869393,265.79593 10.177439,270.88410 12.763222,274.87645 C 15.349006,278.86880 19.914342,281.12346 24.656250,280.75000 C 34.945353,280.37456 40.302335,274.36530 45.031250,269.09375 C 49.760165,263.82220 53.881227,257.80641 57.812500,252.09375 C 61.743773,246.38109 65.505482,240.98251 68.406250,237.65625 C 68.628015,237.40196 68.789616,237.30400 69.000000,237.09375 C 69.283817,237.37718 69.510960,237.53914 69.812500,237.90625 C 72.827897,241.57736 76.714539,247.45729 80.687500,253.62500 C 84.660461,259.79271 88.728157,266.24008 93.312500,271.81250 C 97.896843,277.38492 102.68033,284.25000 114.06250,284.25000 C 125.42974,284.25001 130.25451,277.28995 134.75000,271.71875 C 139.24549,266.14755 143.20602,259.73611 147.12500,253.62500 C 151.04398,247.51389 154.89945,241.73403 157.96875,238.15625 C 158.76666,237.22616 159.10430,237.09460 159.68750,236.62500 C 160.15034,237.04596 160.31771,237.07361 160.93750,237.84375 C 163.76248,241.35398 167.32930,247.15216 171.03125,253.31250 C 174.73320,259.47284 178.54461,265.98847 183.15625,271.71875 C 187.76789,277.44903 193.63945,284.25000 204.46875,284.25000 C 215.29806,284.25001 221.13856,277.53991 225.84375,271.84375 C 230.54894,266.14759 234.51093,259.66034 238.34375,253.50000 C 242.17657,247.33966 245.88478,241.51309 248.81250,237.96875 C 249.45887,237.18625 249.66541,237.15218 250.15625,236.71875 C 250.60134,237.13100 250.76300,237.12213 251.34375,237.84375 C 254.16873,241.35398 257.73555,247.15216 261.43750,253.31250 C 265.13945,259.47284 268.98211,265.98847 273.59375,271.71875 C 278.20539,277.44903 284.07695,284.25000 294.90625,284.25000 C 305.11060,284.25001 311.17656,278.09701 315.81250,272.78125 C 320.44844,267.46549 324.24257,261.47159 327.90625,255.84375 C 331.56993,250.21591 335.09670,244.94276 337.87500,241.78125 C 340.65330,238.61974 342.15097,238.91922 339.87500,238.96875 C 344.54904,238.93520 348.84274,236.38692 351.11122,232.30014 C 353.37970,228.21336 353.27131,223.22158 350.82758,219.23712 C 348.38385,215.25265 343.98359,212.89314 339.31250,213.06250 C 329.24003,213.28169 323.11364,219.33083 318.40625,224.68750 C 313.69886,230.04417 309.86228,236.07385 306.18750,241.71875 C 302.51272,247.36365 299.00013,252.63242 296.28125,255.75000 C 295.71631,256.39778 295.57804,256.41121 295.15625,256.78125 C 294.67016,256.35085 294.45995,256.31208 293.78125,255.46875 C 290.95627,251.95852 287.35820,246.12909 283.65625,239.96875 C 279.95430,233.80841 276.14289,227.32403 271.53125,221.59375 C 266.91961,215.86347 261.04805,209.06250 250.21875,209.06250 C 239.38944,209.06250 233.54894,215.77258 228.84375,221.46875 C 224.13856,227.16492 220.17656,233.65216 216.34375,239.81250 C 212.51094,245.97284 208.80272,251.79941 205.87500,255.34375 C 205.22530,256.13029 205.02360,256.15963 204.53125,256.59375 C 204.08616,256.18150 203.92450,256.19037 203.34375,255.46875 C 200.51878,251.95852 196.95195,246.12909 193.25000,239.96875 C 189.54805,233.80841 185.73664,227.32403 181.12500,221.59375 C 176.51336,215.86347 170.61055,209.06250 159.78125,209.06250 C 148.95194,209.06250 143.17044,215.61852 138.31250,221.28125 C 133.45456,226.94398 129.29462,233.44668 125.31250,239.65625 C 121.33038,245.86582 117.52332,251.76820 114.56250,255.43750 C 114.35432,255.69550 114.19960,255.78426 114.00000,256.00000 C 113.76753,255.75848 113.58655,255.63888 113.34375,255.34375 C 110.31435,251.66141 106.43956,245.75812 102.46875,239.59375 C 98.497940,233.42938 94.411352,226.99834 89.843750,221.43750 C 85.276148,215.87666 80.510977,208.98254 69.062500,209.06250 z "
     id="path5325" />
  <path
     style="fill:url(#linearGradient3504);fill-opacity:1.0;fill-rule:evenodd;stroke:none;stroke-width:6.9125000;stroke-linecap:round;stroke-linejoin:miter;stroke-miterlimit:4.0000000;stroke-opacity:1.0000000;stroke-dasharray:none;"
     d="M 69.062500,209.06250 C 58.346657,209.13735 53.400902,215.43522 48.875000,220.62500 C 44.349098,225.81478 40.365664,231.74352 36.468750,237.40625 C 32.571836,243.06898 28.757067,248.42913 25.750000,251.78125 C 22.742933,255.13337 20.548452,254.98954 23.687500,254.87500 C 18.930942,254.85716 14.546977,257.44687 12.266958,261.62140 C 9.9869393,265.79593 10.177439,270.88410 12.763222,274.87645 C 15.349006,278.86880 19.914342,281.12346 24.656250,280.75000 C 34.945353,280.37456 40.302335,274.36530 45.031250,269.09375 C 49.760165,263.82220 53.881227,257.80641 57.812500,252.09375 C 61.743773,246.38109 65.505482,240.98251 68.406250,237.65625 C 68.628015,237.40196 68.789616,237.30400 69.000000,237.09375 C 69.283817,237.37718 69.510960,237.53914 69.812500,237.90625 C 72.827897,241.57736 76.714539,247.45729 80.687500,253.62500 C 84.660461,259.79271 88.728157,266.24008 93.312500,271.81250 C 97.896843,277.38492 102.68033,284.25000 114.06250,284.25000 C 125.42974,284.25001 130.25451,277.28995 134.75000,271.71875 C 139.24549,266.14755 143.20602,259.73611 147.12500,253.62500 C 151.04398,247.51389 154.89945,241.73403 157.96875,238.15625 C 158.76666,237.22616 159.10430,237.09460 159.68750,236.62500 C 160.15034,237.04596 160.31771,237.07361 160.93750,237.84375 C 163.76248,241.35398 167.32930,247.15216 171.03125,253.31250 C 174.73320,259.47284 178.54461,265.98847 183.15625,271.71875 C 187.76789,277.44903 193.63945,284.25000 204.46875,284.25000 C 215.29806,284.25001 221.13856,277.53991 225.84375,271.84375 C 230.54894,266.14759 234.51093,259.66034 238.34375,253.50000 C 242.17657,247.33966 245.88478,241.51309 248.81250,237.96875 C 249.45887,237.18625 249.66541,237.15218 250.15625,236.71875 C 250.60134,237.13100 250.76300,237.12213 251.34375,237.84375 C 254.16873,241.35398 257.73555,247.15216 261.43750,253.31250 C 265.13945,259.47284 268.98211,265.98847 273.59375,271.71875 C 278.20539,277.44903 284.07695,284.25000 294.90625,284.25000 C 305.11060,284.25001 311.17656,278.09701 315.81250,272.78125 C 320.44844,267.46549 324.24257,261.47159 327.90625,255.84375 C 331.56993,250.21591 335.09670,244.94276 337.87500,241.78125 C 340.65330,238.61974 342.15097,238.91922 339.87500,238.96875 C 344.54904,238.93520 348.84274,236.38692 351.11122,232.30014 C 353.37970,228.21336 353.27131,223.22158 350.82758,219.23712 C 348.38385,215.25265 343.98359,212.89314 339.31250,213.06250 C 329.24003,213.28169 323.11364,219.33083 318.40625,224.68750 C 313.69886,230.04417 309.86228,236.07385 306.18750,241.71875 C 302.51272,247.36365 299.00013,252.63242 296.28125,255.75000 C 295.71631,256.39778 295.57804,256.41121 295.15625,256.78125 C 294.67016,256.35085 294.45995,256.31208 293.78125,255.46875 C 290.95627,251.95852 287.35820,246.12909 283.65625,239.96875 C 279.95430,233.80841 276.14289,227.32403 271.53125,221.59375 C 266.91961,215.86347 261.04805,209.06250 250.21875,209.06250 C 239.38944,209.06250 233.54894,215.77258 228.84375,221.46875 C 224.13856,227.16492 220.17656,233.65216 216.34375,239.81250 C 212.51094,245.97284 208.80272,251.79941 205.87500,255.34375 C 205.22530,256.13029 205.02360,256.15963 204.53125,256.59375 C 204.08616,256.18150 203.92450,256.19037 203.34375,255.46875 C 200.51878,251.95852 196.95195,246.12909 193.25000,239.96875 C 189.54805,233.80841 185.73664,227.32403 181.12500,221.59375 C 176.51336,215.86347 170.61055,209.06250 159.78125,209.06250 C 148.95194,209.06250 143.17044,215.61852 138.31250,221.28125 C 133.45456,226.94398 129.29462,233.44668 125.31250,239.65625 C 121.33038,245.86582 117.52332,251.76820 114.56250,255.43750 C 114.35432,255.69550 114.19960,255.78426 114.00000,256.00000 C 113.76753,255.75848 113.58655,255.63888 113.34375,255.34375 C 110.31435,251.66141 106.43956,245.75812 102.46875,239.59375 C 98.497940,233.42938 94.411352,226.99834 89.843750,221.43750 C 85.276148,215.87666 80.510977,208.98254 69.062500,209.06250 z "
     id="path1095" />
</svg>
