<?xml version="1.0" encoding="UTF-8" standalone="no"?>
<!DOCTYPE svg PUBLIC "-//W3C//DTD SVG 20010904//EN"
"http://www.w3.org/TR/2001/REC-SVG-20010904/DTD/svg10.dtd">
<!-- Created with Inkscape (http://www.inkscape.org/) -->
<svg
   width="64pt"
   height="64pt"
   xmlns="http://www.w3.org/2000/svg"
   xmlns:cc="http://web.resource.org/cc/"
   xmlns:inkscape="http://www.inkscape.org/namespaces/inkscape"
   xmlns:sodipodi="http://sodipodi.sourceforge.net/DTD/sodipodi-0.dtd"
   xmlns:rdf="http://www.w3.org/1999/02/22-rdf-syntax-ns#"
   xmlns:dc="http://purl.org/dc/elements/1.1/"
   xmlns:xlink="http://www.w3.org/1999/xlink"
   id="svg1711"
   sodipodi:version="0.32"
   inkscape:version="0.40"
   sodipodi:docbase="/home/nuno/kdeplayground-artwork/oooicons/crystalsvg"
   sodipodi:docname="subdecimal.svg">
  <defs
     id="defs3">
    <linearGradient
       id="light75to0">
      <stop
         style="stop-color:#ffffff;stop-opacity:0.72916669;"
         offset="0.0000000"
         id="stop2769" />
      <stop
         style="stop-color:#ffffff;stop-opacity:0.0000000;"
         offset="1.0000000"
         id="stop2770" />
    </linearGradient>
    <linearGradient
       inkscape:collect="always"
       xlink:href="#light75to0"
       id="linearGradient2479"
       gradientTransform="matrix(0.284815,0.000000,0.000000,0.152253,1.497567,-7.918814e-3)"
       x1="133.08537"
       y1="381.45816"
       x2="78.253143"
       y2="152.16801"
       gradientUnits="userSpaceOnUse" />
    <linearGradient
       inkscape:collect="always"
       xlink:href="#shadow100to0"
       id="linearGradient3104"
       gradientTransform="matrix(0.910048,0.000000,0.000000,1.098844,-13.28074,1.185923e-6)"
       x1="87.501610"
       y1="26.795559"
       x2="59.600544"
       y2="46.132683"
       gradientUnits="userSpaceOnUse" />
    <linearGradient
       id="shadow100to0">
      <stop
         style="stop-color:#000000;stop-opacity:1.0000000;"
         offset="0.0000000"
         id="stop3425" />
      <stop
         style="stop-color:#000000;stop-opacity:0.0000000;"
         offset="1.0000000"
         id="stop3426" />
    </linearGradient>
    <linearGradient
       inkscape:collect="always"
       xlink:href="#shadow100to0"
       id="linearGradient2472"
       gradientTransform="matrix(0.189509,0.000000,0.000000,0.228824,-13.50244,0.765531)"
       x1="235.03880"
       y1="268.74088"
       x2="412.48419"
       y2="145.57393"
       gradientUnits="userSpaceOnUse" />
    <linearGradient
       inkscape:collect="always"
       xlink:href="#light100to0"
       id="linearGradient15073"
       gradientTransform="matrix(0.174913,0.000000,0.000000,3.777740e-2,-14.03530,22.42540)"
       x1="50.286411"
       y1="203.03586"
       x2="141.74162"
       y2="436.49149"
       gradientUnits="userSpaceOnUse" />
    <linearGradient
       id="light100to0">
      <stop
         style="stop-color:#ffffff;stop-opacity:1.0000000;"
         offset="0.0000000"
         id="stop2764" />
      <stop
         style="stop-color:#ffffff;stop-opacity:0.0000000;"
         offset="1.0000000"
         id="stop2765" />
    </linearGradient>
    <radialGradient
       inkscape:collect="always"
       xlink:href="#light100to0"
       id="radialGradient13826"
       gradientTransform="matrix(0.145828,0.000000,0.000000,4.439055e-2,-14.02426,22.57198)"
       cx="194.71722"
       cy="389.53177"
       fx="194.71722"
       fy="389.53177"
       r="120.80213"
       gradientUnits="userSpaceOnUse" />
    <linearGradient
       inkscape:collect="always"
       xlink:href="#redtodarkred"
       id="linearGradient2518"
       gradientTransform="matrix(8.795053e-2,0.000000,0.000000,7.513042e-2,-14.03530,22.42541)"
       x1="351.57092"
       y1="50.663139"
       x2="176.99603"
       y2="218.63310"
       gradientUnits="userSpaceOnUse" />
    <linearGradient
       id="redtodarkred">
      <stop
         style="stop-color:#ff0000;stop-opacity:1.0000000;"
         offset="0.0000000"
         id="stop3856" />
      <stop
         style="stop-color:#920000;stop-opacity:1.0000000;"
         offset="1.0000000"
         id="stop3855" />
    </linearGradient>
    <radialGradient
       inkscape:collect="always"
       xlink:href="#reddarktoblack"
       id="radialGradient13169"
       gradientTransform="matrix(8.795053e-2,0.000000,0.000000,7.513042e-2,-14.03530,22.42541)"
       cx="66.528542"
       cy="146.36641"
       fx="66.528542"
       fy="146.36641"
       r="599.88947"
       gradientUnits="userSpaceOnUse" />
    <linearGradient
       id="reddarktoblack">
      <stop
         style="stop-color:#8e0000;stop-opacity:1.0000000;"
         offset="0.0000000"
         id="stop3230" />
      <stop
         style="stop-color:#000000;stop-opacity:1.0000000;"
         offset="1.0000000"
         id="stop3231" />
    </linearGradient>
  </defs>
  <sodipodi:namedview
     id="base"
     pagecolor="#ffffff"
     bordercolor="#666666"
     borderopacity="1.0"
     inkscape:pageopacity="0.0"
     inkscape:pageshadow="2"
     inkscape:zoom="5.4663670"
     inkscape:cx="25.090313"
     inkscape:cy="21.821378"
     inkscape:current-layer="layer1"
     showgrid="true"
     inkscape:grid-bbox="true"
     gridspacingy="1.0000000pt"
     gridspacingx="1.0000000pt"
     gridoriginy="0.0000000pt"
     gridoriginx="0.0000000pt"
     inkscape:window-width="640"
     inkscape:window-height="538"
     inkscape:window-x="0"
     inkscape:window-y="25" />
  <metadata
     id="metadata4">
    <rdf:RDF
       id="RDF5">
      <cc:Work
         rdf:about=""
         id="Work6">
        <dc:format
           id="format7">image/svg+xml</dc:format>
        <dc:type
           id="type9"
           rdf:resource="http://purl.org/dc/dcmitype/StillImage" />
      </cc:Work>
    </rdf:RDF>
  </metadata>
  <g
     id="layer1"
     inkscape:label="Layer 1"
     inkscape:groupmode="layer">
    <path
       style="font-size:12.000000;font-style:normal;font-weight:normal;fill:url(#linearGradient2479);fill-opacity:1.0000000;stroke:none;stroke-width:2.8029814;stroke-linecap:butt;stroke-linejoin:round;stroke-miterlimit:4.0000000;stroke-opacity:1.0000000;font-family:Bitstream Vera Sans"
       d="M 4.4441400,46.016062 C 5.8613600,46.016062 7.2785790,46.016062 8.6957980,46.016062 C 8.6957980,46.945420 8.6957980,47.874777 8.6957980,48.804134 L 5.3911860,53.991265 L 2.7918460,53.991265 L 4.4441400,48.804134 C 4.4441400,47.874777 4.4441400,46.945420 4.4441400,46.016062 M 21.608976,27.913015 C 19.513364,27.913044 17.934950,28.745148 16.873722,30.409314 C 15.825916,32.062746 15.302019,34.553642 15.302019,37.882030 C 15.302019,41.199628 15.825916,43.690524 16.873722,45.354718 C 17.934950,47.008108 19.513364,47.834810 21.608976,47.834810 C 23.717998,47.834810 25.296412,47.008108 26.344229,45.354718 C 27.405445,43.690524 27.936054,41.199628 27.936077,37.882030 C 27.936054,34.553642 27.405445,32.062746 26.344229,30.409314 C 25.296412,28.745148 23.717998,27.913044 21.608976,27.913015 M 21.608976,25.319464 C 24.980733,25.319493 27.553206,26.394723 29.326428,28.545211 C 31.113038,30.684909 32.006360,33.797182 32.006383,37.882030 C 32.006360,41.956059 31.113038,45.068332 29.326428,47.218849 C 27.553206,49.358519 24.980733,50.428361 21.608976,50.428361 C 18.237206,50.428361 15.657999,49.358519 13.871366,47.218849 C 12.098167,45.068332 11.211567,41.956059 11.211567,37.882030 C 11.211567,33.797182 12.098167,30.684909 13.871366,28.545211 C 15.657999,26.394723 18.237206,25.319493 21.608976,25.319464 M 46.030007,27.913015 C 43.934395,27.913044 42.355982,28.745148 41.294753,30.409314 C 40.246948,32.062746 39.723051,34.553642 39.723051,37.882030 C 39.723051,41.199628 40.246948,43.690524 41.294753,45.354718 C 42.355982,47.008108 43.934395,47.834810 46.030007,47.834810 C 48.139029,47.834810 49.717443,47.008108 50.765260,45.354718 C 51.826477,43.690524 52.357097,41.199628 52.357108,37.882030 C 52.357097,34.553642 51.826477,32.062746 50.765260,30.409314 C 49.717443,28.745148 48.139029,27.913044 46.030007,27.913015 M 46.030007,25.319464 C 49.401765,25.319493 51.974238,26.394723 53.747460,28.545211 C 55.534069,30.684909 56.427392,33.797182 56.427415,37.882030 C 56.427392,41.956059 55.534069,45.068332 53.747460,47.218849 C 51.974238,49.358519 49.401765,50.428361 46.030007,50.428361 C 42.658226,50.428361 40.079030,49.358519 38.292409,47.218849 C 36.519199,45.068332 35.632599,41.956059 35.632599,37.882030 C 35.632599,33.797182 36.519199,30.684909 38.292409,28.545211 C 40.079030,26.394723 42.658226,25.319493 46.030007,25.319464"
       id="path2473"
       sodipodi:nodetypes="ccccccccccccccccccccccccccccccccccccccccccc" />
    <path
       style="font-size:12.000000;font-style:normal;font-weight:normal;fill:url(#linearGradient2472);fill-opacity:1.0000000;stroke:url(#linearGradient3104);stroke-width:0.58369237;stroke-linecap:butt;stroke-linejoin:round;stroke-miterlimit:4.0000000;stroke-opacity:1.0000000;font-family:Bitstream Vera Sans"
       d="M 55.660643,27.885411 C 53.565032,27.885440 51.986606,28.717544 50.925390,30.381709 C 49.877584,32.035142 49.353676,34.526038 49.353687,37.854426 C 49.353676,41.172024 49.877584,43.662920 50.925390,45.327114 C 51.986606,46.980503 53.565032,47.807205 55.660643,47.807205 C 57.769654,47.807205 59.348079,46.980503 60.395885,45.327114 C 61.457102,43.662920 61.987721,41.172024 61.987744,37.854426 C 61.987721,34.526038 61.457102,32.035142 60.395885,30.381709 C 59.348079,28.717544 57.769654,27.885440 55.660643,27.885411 M 55.660643,25.291846 C 59.032390,25.291874 61.604874,26.367119 63.378096,28.517607 C 65.164706,30.657305 66.058016,33.769578 66.058051,37.854426 C 66.058016,41.928455 65.164706,45.040728 63.378096,47.191245 C 61.604874,49.330915 59.032390,50.400757 55.660643,50.400757 C 52.288862,50.400757 49.709667,49.330915 47.923034,47.191245 C 46.149835,45.040728 45.263224,41.928455 45.263235,37.854426 C 45.263224,33.769578 46.149835,30.657305 47.923034,28.517607 C 49.709667,26.367119 52.288862,25.291874 55.660643,25.291846"
       id="path1841"
       sodipodi:nodetypes="cccccccccccccccccc" />
    <path
       style="font-size:12.000000;font-style:normal;font-weight:normal;fill:#000000;fill-opacity:1.0000000;stroke:#000000;stroke-width:0.58369237;stroke-linecap:butt;stroke-linejoin:round;stroke-miterlimit:4.0000000;stroke-opacity:1.0000000;font-family:Bitstream Vera Sans"
       d="M 11.944141,46.016062 C 13.361360,46.016062 14.778579,46.016062 16.195798,46.016062 C 16.195798,46.945420 16.195798,47.874777 16.195798,48.804134 L 12.891187,53.991265 L 10.291846,53.991265 L 11.944141,48.804134 C 11.944141,47.874777 11.944141,46.945420 11.944141,46.016062 M 29.108976,27.913015 C 27.013364,27.913044 25.434950,28.745148 24.373722,30.409314 C 23.325916,32.062746 22.802019,34.553642 22.802019,37.882030 C 22.802019,41.199628 23.325916,43.690524 24.373722,45.354718 C 25.434950,47.008108 27.013364,47.834810 29.108976,47.834810 C 31.217998,47.834810 32.796412,47.008108 33.844229,45.354718 C 34.905445,43.690524 35.436054,41.199628 35.436077,37.882030 C 35.436054,34.553642 34.905445,32.062746 33.844229,30.409314 C 32.796412,28.745148 31.217998,27.913044 29.108976,27.913015 M 29.108976,25.319464 C 32.480733,25.319493 35.053206,26.394723 36.826428,28.545211 C 38.613038,30.684909 39.506360,33.797182 39.506383,37.882030 C 39.506360,41.956059 38.613038,45.068332 36.826428,47.218849 C 35.053206,49.358519 32.480733,50.428361 29.108976,50.428361 C 25.737206,50.428361 23.157999,49.358519 21.371366,47.218849 C 19.598167,45.068332 18.711567,41.956059 18.711567,37.882030 C 18.711567,33.797182 19.598167,30.684909 21.371366,28.545211 C 23.157999,26.394723 25.737206,25.319493 29.108976,25.319464"
       id="text1214"
       sodipodi:nodetypes="ccccccccccccccccccccccccc" />
  </g>
  <g
     id="g1815"
     inkscape:label="Layer 1"
     inkscape:groupmode="layer"
     transform="translate(54.03808,26.69655)">
    <path
       style="fill:url(#linearGradient2518);fill-opacity:1.0000000;stroke:url(#radialGradient13169);stroke-width:0.77731812;stroke-linecap:butt;stroke-linejoin:round;stroke-miterlimit:4.0000000;stroke-dashoffset:0.0000000;stroke-opacity:1.0000000"
       d="M -10.962275,32.053450 C -11.486187,32.053450 -11.907879,32.456425 -11.907879,32.959582 L -11.907879,39.180437 C -11.907879,39.683592 -11.486187,40.088916 -10.962275,40.088916 L 14.772431,40.088916 C 15.296343,40.088916 15.718032,39.683592 15.718034,39.180437 L 15.718034,32.959582 C 15.718034,32.456426 15.296343,32.053450 14.772431,32.053450 L -10.962275,32.053450 z "
       id="rect1266"
       sodipodi:nodetypes="ccccccccc" />
    <path
       style="fill:url(#radialGradient13826);fill-opacity:1.0000000;stroke:none;stroke-width:9.5625000;stroke-linecap:butt;stroke-linejoin:round;stroke-miterlimit:4.0000000;stroke-dashoffset:0.0000000;stroke-opacity:1.0000000"
       d="M -10.967178,32.053450 C -11.488374,32.053450 -11.907879,32.450290 -11.907879,32.945787 L -11.907879,39.071933 C -11.907879,39.567429 -11.488374,39.966582 -10.967178,39.966582 L 14.634083,39.966582 C 15.155279,39.966582 15.574782,39.567429 15.574784,39.071933 L 15.574784,32.945787 C 15.574784,32.450291 15.155279,32.053450 14.634083,32.053450 L -10.967178,32.053450 z "
       id="path13204"
       sodipodi:nodetypes="ccccccccc" />
    <path
       style="fill:url(#linearGradient15073);fill-opacity:1.0000000;fill-rule:evenodd;stroke:none;stroke-width:0.25000000pt;stroke-linecap:butt;stroke-linejoin:miter;stroke-opacity:1.0000000"
       d="M -11.886533,36.893822 C -11.886533,35.527752 -11.886533,34.161681 -11.886533,32.795610 C -11.862658,32.387827 -11.552282,32.102380 -11.170280,32.122769 C -2.5036266,32.081990 2.2952654,32.041212 10.961920,32.000433 C 10.938045,34.120902 -2.9095033,37.220049 -11.886533,36.893822 z "
       id="path13827"
       sodipodi:nodetypes="ccccc" />
  </g>
</svg>
