<?xml version="1.0" encoding="UTF-8" standalone="no"?>
<!DOCTYPE svg PUBLIC "-//W3C//DTD SVG 20010904//EN"
"http://www.w3.org/TR/2001/REC-SVG-20010904/DTD/svg10.dtd">
<!-- Created with Inkscape (http://www.inkscape.org/) -->
<svg
   width="64pt"
   height="64pt"
   id="svg7314"
   sodipodi:version="0.32"
   inkscape:version="0.40"
   sodipodi:docbase="/home/nuno/kdeplayground-artwork/oooicons/crystalsvg"
   sodipodi:docname="text_orientiation_vertical.svg"
   inkscape:export-filename="/home/nuno/kdeplayground-artwork/oooicons/crystalsvg/text_orientation_vertical.png"
   inkscape:export-xdpi="18.000000"
   inkscape:export-ydpi="18.000000"
   xmlns="http://www.w3.org/2000/svg"
   xmlns:cc="http://web.resource.org/cc/"
   xmlns:inkscape="http://www.inkscape.org/namespaces/inkscape"
   xmlns:sodipodi="http://sodipodi.sourceforge.net/DTD/sodipodi-0.dtd"
   xmlns:rdf="http://www.w3.org/1999/02/22-rdf-syntax-ns#"
   xmlns:xml="http://www.w3.org/XML/1998/namespace"
   xmlns:dc="http://purl.org/dc/elements/1.1/"
   xmlns:xlink="http://www.w3.org/1999/xlink">
  <defs
     id="defs3">
    <linearGradient
       id="reddarktoblack">
      <stop
         style="stop-color:#8e0000;stop-opacity:1.0000000;"
         offset="0.0000000"
         id="stop3230" />
      <stop
         style="stop-color:#000000;stop-opacity:1.0000000;"
         offset="1.0000000"
         id="stop3231" />
    </linearGradient>
    <linearGradient
       x1="-229.39058"
       y1="487.08498"
       x2="-203.84911"
       y2="487.08498"
       id="linearGradient4473"
       collect="always"
       xlink:href="#reddarktoblack"
       gradientTransform="matrix(1.395481,0.000000,0.000000,0.716599,268.8602,-334.4460)"
       gradientUnits="userSpaceOnUse" />
    <linearGradient
       id="redtodarkred">
      <stop
         style="stop-color:#ff0000;stop-opacity:1.0000000;"
         offset="0.0000000"
         id="stop3856" />
      <stop
         style="stop-color:#920000;stop-opacity:1.0000000;"
         offset="1.0000000"
         id="stop3855" />
    </linearGradient>
    <linearGradient
       x1="-229.39058"
       y1="437.63879"
       x2="-203.84911"
       y2="437.63879"
       id="linearGradient4471"
       collect="always"
       xlink:href="#redtodarkred"
       gradientTransform="matrix(1.395481,0.000000,0.000000,0.716599,264.4675,-271.9599)"
       gradientUnits="userSpaceOnUse" />
    <linearGradient
       id="greandraktoblack">
      <stop
         style="stop-color:#007c00;stop-opacity:1.0000000;"
         offset="0.0000000"
         id="stop7328" />
      <stop
         style="stop-color:#025a00;stop-opacity:1.0000000;"
         offset="1.0000000"
         id="stop7329" />
    </linearGradient>
    <linearGradient
       id="greantodarkgrean">
      <stop
         style="stop-color:#00ff01;stop-opacity:1.0000000;"
         offset="0.0000000"
         id="stop5123" />
      <stop
         style="stop-color:#15980f;stop-opacity:1.0000000;"
         offset="1.0000000"
         id="stop5124" />
    </linearGradient>
    <linearGradient
       id="light100to0">
      <stop
         style="stop-color:#ffffff;stop-opacity:1.0000000;"
         offset="0.0000000"
         id="stop2764" />
      <stop
         style="stop-color:#ffffff;stop-opacity:0.0000000;"
         offset="1.0000000"
         id="stop2765" />
    </linearGradient>
    <linearGradient
       inkscape:collect="always"
       xlink:href="#light100to0"
       id="linearGradient7013"
       gradientUnits="userSpaceOnUse"
       gradientTransform="matrix(0.549435,0.000000,0.000000,2.091607,-23.51102,-2.577026)"
       x1="258.57669"
       y1="82.309975"
       x2="484.34686"
       y2="122.96941" />
    <linearGradient
       id="light75to0">
      <stop
         style="stop-color:#ffffff;stop-opacity:0.72916669;"
         offset="0.0000000"
         id="stop2769" />
      <stop
         style="stop-color:#ffffff;stop-opacity:0.0000000;"
         offset="1.0000000"
         id="stop2770" />
    </linearGradient>
    <radialGradient
       inkscape:collect="always"
       xlink:href="#light100to0"
       id="radialGradient7012"
       gradientUnits="userSpaceOnUse"
       gradientTransform="scale(1.009402,0.990685)"
       cx="222.40573"
       cy="329.38498"
       fx="222.40573"
       fy="329.38498"
       r="51.319454" />
    <radialGradient
       cx="38.797401"
       cy="112.96090"
       r="67.358803"
       fx="38.797401"
       fy="112.96090"
       id="bluedarktoblackblue"
       gradientUnits="userSpaceOnUse">
      <stop
         style="stop-color:#0356fe;stop-opacity:1.0000000;"
         offset="0.0000000"
         id="stop2959" />
      <stop
         style="stop-color:#032442;stop-opacity:1.0000000;"
         offset="1.0000000"
         id="stop2960" />
    </radialGradient>
    <linearGradient
       inkscape:collect="always"
       xlink:href="#bluedarktoblackblue"
       id="linearGradient7011"
       gradientUnits="userSpaceOnUse"
       gradientTransform="matrix(1.115686,0.000000,0.000000,1.030040,-23.51102,-2.577026)"
       x1="129.86295"
       y1="35.297329"
       x2="277.58408"
       y2="349.10403" />
    <radialGradient
       cx="38.797401"
       cy="112.96090"
       r="67.358803"
       fx="38.797401"
       fy="112.96090"
       id="bluelignonlinblu"
       gradientUnits="userSpaceOnUse">
      <stop
         style="stop-color:#d9ffff;stop-opacity:1.0000000;"
         offset="0.0055999998"
         id="stop84" />
      <stop
         style="stop-color:#95d9ff;stop-opacity:1.0000000;"
         offset="0.13480000"
         id="stop86" />
      <stop
         style="stop-color:#68b9ff;stop-opacity:1.0000000;"
         offset="0.32049999"
         id="stop88" />
      <stop
         style="stop-color:#3293fe;stop-opacity:1.0000000;"
         offset="0.56800002"
         id="stop90" />
      <stop
         style="stop-color:#107bfe;stop-opacity:1.0000000;"
         offset="0.75340003"
         id="stop92" />
      <stop
         style="stop-color:#0372fe;stop-opacity:1.0000000;"
         offset="0.85390002"
         id="stop94" />
      <stop
         style="stop-color:#0356fe;stop-opacity:1.0000000;"
         offset="1.0000000"
         id="stop96" />
    </radialGradient>
    <linearGradient
       inkscape:collect="always"
       xlink:href="#bluelignonlinblu"
       id="linearGradient7010"
       gradientUnits="userSpaceOnUse"
       gradientTransform="scale(1.040744,0.960851)"
       x1="84.560051"
       y1="247.29707"
       x2="286.94250"
       y2="351.68427" />
    <linearGradient
       inkscape:collect="always"
       xlink:href="#light75to0"
       id="linearGradient1331"
       gradientUnits="userSpaceOnUse"
       x1="79.007957"
       y1="182.73558"
       x2="79.594841"
       y2="210.19029"
       gradientTransform="matrix(1.601512,0.000000,0.000000,1.828193,-112.2099,-283.8130)" />
    <linearGradient
       inkscape:collect="always"
       xlink:href="#light75to0"
       id="linearGradient1128"
       gradientUnits="userSpaceOnUse"
       gradientTransform="matrix(1.063052,0.000000,0.000000,1.464692,-67.71504,-262.7988)"
       x1="79.007957"
       y1="182.73558"
       x2="79.594841"
       y2="210.19029" />
    <linearGradient
       inkscape:collect="always"
       xlink:href="#graytolightgray"
       id="linearGradient1786"
       gradientUnits="userSpaceOnUse"
       gradientTransform="matrix(0.214385,0.000000,0.000000,0.222911,-2.107421,-3.381642)"
       x1="122.43015"
       y1="59.053604"
       x2="272.46765"
       y2="323.76923" />
    <radialGradient
       inkscape:collect="always"
       xlink:href="#light75to0"
       id="radialGradient1787"
       gradientUnits="userSpaceOnUse"
       gradientTransform="matrix(0.261654,0.000000,0.000000,0.186725,-2.105708,-3.658607)"
       cx="53.182602"
       cy="52.577991"
       fx="53.182602"
       fy="52.577991"
       r="508.29517" />
    <linearGradient
       inkscape:collect="always"
       xlink:href="#garylighttowite"
       id="linearGradient1788"
       gradientUnits="userSpaceOnUse"
       gradientTransform="matrix(0.214385,0.000000,0.000000,0.227898,-2.019841,-3.272408)"
       x1="-37.332329"
       y1="-50.289883"
       x2="578.44397"
       y2="648.29797" />
    <linearGradient
       inkscape:collect="always"
       xlink:href="#bluelignonlinblu"
       id="linearGradient1796"
       gradientUnits="userSpaceOnUse"
       gradientTransform="scale(1.040744,0.960851)"
       x1="84.560051"
       y1="247.29707"
       x2="286.94250"
       y2="351.68427" />
    <linearGradient
       inkscape:collect="always"
       xlink:href="#bluedarktoblackblue"
       id="linearGradient1797"
       gradientUnits="userSpaceOnUse"
       gradientTransform="matrix(1.115686,0.000000,0.000000,1.030040,-23.51102,-2.577026)"
       x1="129.86295"
       y1="35.297329"
       x2="277.58408"
       y2="349.10403" />
    <radialGradient
       inkscape:collect="always"
       xlink:href="#light100to0"
       id="radialGradient1798"
       gradientUnits="userSpaceOnUse"
       gradientTransform="scale(1.009402,0.990685)"
       cx="222.40573"
       cy="329.38498"
       fx="222.40573"
       fy="329.38498"
       r="51.319454" />
    <linearGradient
       inkscape:collect="always"
       xlink:href="#light100to0"
       id="linearGradient1799"
       gradientUnits="userSpaceOnUse"
       gradientTransform="matrix(0.549435,0.000000,0.000000,2.091607,-23.51102,-2.577026)"
       x1="258.57669"
       y1="82.309975"
       x2="484.34686"
       y2="122.96941" />
    <linearGradient
       inkscape:collect="always"
       xlink:href="#bluelignonlinblu"
       id="linearGradient1807"
       gradientUnits="userSpaceOnUse"
       gradientTransform="scale(1.040744,0.960851)"
       x1="84.560051"
       y1="247.29707"
       x2="286.94250"
       y2="351.68427" />
    <linearGradient
       inkscape:collect="always"
       xlink:href="#bluedarktoblackblue"
       id="linearGradient1808"
       gradientUnits="userSpaceOnUse"
       gradientTransform="matrix(1.115686,0.000000,0.000000,1.030040,-23.51102,-2.577026)"
       x1="129.86295"
       y1="35.297329"
       x2="277.58408"
       y2="349.10403" />
    <radialGradient
       inkscape:collect="always"
       xlink:href="#light100to0"
       id="radialGradient1809"
       gradientUnits="userSpaceOnUse"
       gradientTransform="scale(1.009402,0.990685)"
       cx="222.40573"
       cy="329.38498"
       fx="222.40573"
       fy="329.38498"
       r="51.319454" />
    <linearGradient
       inkscape:collect="always"
       xlink:href="#light100to0"
       id="linearGradient1810"
       gradientUnits="userSpaceOnUse"
       gradientTransform="matrix(0.549435,0.000000,0.000000,2.091607,-23.51102,-2.577026)"
       x1="258.57669"
       y1="82.309975"
       x2="484.34686"
       y2="122.96941" />
    <linearGradient
       inkscape:collect="always"
       xlink:href="#bluelignonlinblu"
       id="linearGradient1818"
       gradientUnits="userSpaceOnUse"
       gradientTransform="scale(1.040744,0.960851)"
       x1="84.560051"
       y1="247.29707"
       x2="286.94250"
       y2="351.68427" />
    <linearGradient
       inkscape:collect="always"
       xlink:href="#bluedarktoblackblue"
       id="linearGradient1819"
       gradientUnits="userSpaceOnUse"
       gradientTransform="matrix(1.115686,0.000000,0.000000,1.030040,-23.51102,-2.577026)"
       x1="129.86295"
       y1="35.297329"
       x2="277.58408"
       y2="349.10403" />
    <radialGradient
       inkscape:collect="always"
       xlink:href="#light100to0"
       id="radialGradient1820"
       gradientUnits="userSpaceOnUse"
       gradientTransform="scale(1.009402,0.990685)"
       cx="222.40573"
       cy="329.38498"
       fx="222.40573"
       fy="329.38498"
       r="51.319454" />
    <linearGradient
       inkscape:collect="always"
       xlink:href="#light100to0"
       id="linearGradient1821"
       gradientUnits="userSpaceOnUse"
       gradientTransform="matrix(0.549435,0.000000,0.000000,2.091607,-23.51102,-2.577026)"
       x1="258.57669"
       y1="82.309975"
       x2="484.34686"
       y2="122.96941" />
    <defs
       id="defs1751">
      <linearGradient
         inkscape:collect="always"
         xlink:href="#graytolightgray"
         id="linearGradient3623"
         gradientUnits="userSpaceOnUse"
         x1="122.43015"
         y1="59.053604"
         x2="272.46765"
         y2="323.76923"
         gradientTransform="matrix(0.182431,0.000000,0.000000,0.213888,4.641008,0.357569)" />
      <radialGradient
         inkscape:collect="always"
         xlink:href="#XMLID_9_"
         id="radialGradient3622"
         gradientUnits="userSpaceOnUse"
         cx="74.495102"
         cy="81.168900"
         fx="74.495102"
         fy="81.168900"
         r="23.693600"
         gradientTransform="matrix(0.696376,0.000000,0.000000,0.816451,10.14487,4.039048)" />
      <linearGradient
         id="graytolightgray">
        <stop
           style="stop-color:#d4d3d3;stop-opacity:1.0000000;"
           offset="0.0000000"
           id="stop5101" />
        <stop
           style="stop-color:#ffffff;stop-opacity:1.0000000;"
           offset="1.0000000"
           id="stop5102" />
      </linearGradient>
      <linearGradient
         inkscape:collect="always"
         xlink:href="#graytolightgray"
         id="linearGradient3621"
         gradientUnits="userSpaceOnUse"
         x1="284.17496"
         y1="340.20792"
         x2="330.93881"
         y2="273.80606"
         gradientTransform="matrix(0.182431,0.000000,0.000000,0.213888,4.641008,0.357569)" />
      <linearGradient
         id="linearGradient1758">
        <stop
           style="stop-color:#ffffff;stop-opacity:0.72916669;"
           offset="0.0000000"
           id="stop1759" />
        <stop
           style="stop-color:#ffffff;stop-opacity:0.0000000;"
           offset="1.0000000"
           id="stop1760" />
      </linearGradient>
      <radialGradient
         inkscape:collect="always"
         xlink:href="#light75to0"
         id="radialGradient6111"
         gradientTransform="matrix(0.222656,0.000000,0.000000,0.175247,4.641008,1.797000e-2)"
         cx="53.182602"
         cy="52.577991"
         fx="53.182602"
         fy="52.577991"
         r="508.29517"
         gradientUnits="userSpaceOnUse" />
      <linearGradient
         inkscape:collect="always"
         xlink:href="#garylighttowite"
         id="linearGradient3619"
         gradientUnits="userSpaceOnUse"
         x1="245.91402"
         y1="248.01839"
         x2="561.86395"
         y2="513.91156"
         gradientTransform="matrix(0.182431,0.000000,0.000000,0.213888,4.641008,0.357569)" />
      <linearGradient
         id="garylighttowite">
        <stop
           style="stop-color:#7d7d7d;stop-opacity:1.0000000;"
           offset="0.0000000"
           id="stop5106" />
        <stop
           style="stop-color:#d3d4d4;stop-opacity:1.0000000;"
           offset="1.0000000"
           id="stop5107" />
      </linearGradient>
      <linearGradient
         inkscape:collect="always"
         xlink:href="#garylighttowite"
         id="linearGradient3618"
         gradientUnits="userSpaceOnUse"
         x1="-37.332329"
         y1="-50.289883"
         x2="578.44397"
         y2="648.29797"
         gradientTransform="matrix(0.182431,0.000000,0.000000,0.213888,4.641008,0.357569)" />
      <radialGradient
         inkscape:collect="always"
         xlink:href="#XMLID_9_"
         id="radialGradient7426"
         gradientUnits="userSpaceOnUse"
         gradientTransform="matrix(0.696376,0.000000,0.000000,0.816451,10.14487,4.039048)"
         cx="74.495102"
         cy="81.168900"
         fx="74.495102"
         fy="81.168900"
         r="23.693600" />
      <linearGradient
         inkscape:collect="always"
         xlink:href="#garylighttowite"
         id="linearGradient1103"
         gradientUnits="userSpaceOnUse"
         gradientTransform="matrix(0.214385,0.000000,0.000000,0.227898,-2.392798,-3.273732)"
         x1="245.91402"
         y1="248.01839"
         x2="561.86395"
         y2="513.91156" />
      <linearGradient
         inkscape:collect="always"
         xlink:href="#graytolightgray"
         id="linearGradient1104"
         gradientUnits="userSpaceOnUse"
         gradientTransform="matrix(0.214385,0.000000,0.000000,0.227898,-2.648122,-3.253041)"
         x1="284.17496"
         y1="340.20792"
         x2="330.93881"
         y2="273.80606" />
    </defs>
    <sodipodi:namedview
       id="namedview1773"
       pagecolor="#ffffff"
       bordercolor="#666666"
       borderopacity="1.0"
       inkscape:pageopacity="0.0"
       inkscape:pageshadow="2"
       inkscape:zoom="11.939995"
       inkscape:cx="33.414154"
       inkscape:cy="56.583508"
       inkscape:current-layer="layer1"
       showgrid="true"
       inkscape:grid-bbox="true"
       gridspacingy="1.0000000pt"
       gridspacingx="1.0000000pt"
       gridoriginy="0.0000000pt"
       gridoriginx="0.0000000pt"
       inkscape:window-width="1280"
       inkscape:window-height="904"
       inkscape:window-x="0"
       inkscape:window-y="25" />
    <metadata
       id="metadata1774">
      <rdf:RDF
         id="RDF1775">
        <cc:Work
           rdf:about=""
           id="Work1776">
          <dc:format
             id="format1777">image/svg+xml</dc:format>
          <dc:type
             id="type1779"
             rdf:resource="http://purl.org/dc/dcmitype/StillImage" />
        </cc:Work>
      </rdf:RDF>
    </metadata>
    <radialGradient
       inkscape:collect="always"
       xlink:href="#light75to0"
       id="radialGradient1204"
       gradientUnits="userSpaceOnUse"
       gradientTransform="matrix(0.261654,0.000000,0.000000,0.186725,-4.005671,-4.758753)"
       cx="53.182602"
       cy="52.577991"
       fx="53.182602"
       fy="52.577991"
       r="508.29517" />
  </defs>
  <sodipodi:namedview
     id="base"
     pagecolor="#ffffff"
     bordercolor="#666666"
     borderopacity="1.0"
     inkscape:pageopacity="0.0"
     inkscape:pageshadow="2"
     inkscape:zoom="5.9218750"
     inkscape:cx="23.435191"
     inkscape:cy="15.376783"
     inkscape:current-layer="layer1"
     showgrid="true"
     inkscape:grid-bbox="true"
     gridspacingy="1.0000000pt"
     gridspacingx="1.0000000pt"
     gridoriginy="0.0000000pt"
     gridoriginx="0.0000000pt"
     inkscape:window-width="958"
     inkscape:window-height="903"
     inkscape:window-x="258"
     inkscape:window-y="226" />
  <metadata
     id="metadata4">
    <rdf:RDF
       id="RDF5">
      <cc:Work
         rdf:about=""
         id="Work6">
        <dc:format
           id="format7">image/svg+xml</dc:format>
        <dc:type
           id="type9"
           rdf:resource="http://purl.org/dc/dcmitype/StillImage" />
      </cc:Work>
    </rdf:RDF>
  </metadata>
  <g
     id="g1780"
     inkscape:label="Layer 1"
     inkscape:groupmode="layer"
     transform="matrix(1.007696,0.000000,0.000000,1.025718,-2.089124,-1.319187)">
    <path
       style="fill:#cbcbcb;fill-opacity:1.0000000;fill-rule:evenodd;stroke:none;stroke-width:0.25000000pt;stroke-linecap:butt;stroke-linejoin:miter;stroke-opacity:1.0000000"
       d="M 39.509854,4.4174568 L 75.259949,4.0634956 L 75.155259,79.229903 L 10.838986,79.280279 L 10.662005,69.015401 L 39.509854,4.4174568 z "
       id="path1105"
       sodipodi:nodetypes="cccccc"
       inkscape:export-xdpi="48.818890"
       inkscape:export-ydpi="48.818890" />
    <path
       style="fill:#ffffff;fill-opacity:1.0000000;fill-rule:evenodd;stroke:none;stroke-width:0.25000000pt;stroke-linecap:butt;stroke-linejoin:miter;stroke-opacity:1.0000000"
       d="M 9.0691797,1.7627466 L 72.605239,1.9397274 L 71.810947,75.870705 L 8.8921991,76.448589 L 9.0691797,1.7627466 z "
       id="path1727"
       sodipodi:nodetypes="ccccc" />
    <path
       d="M 70.496118,3.2256058 L 10.511198,3.2256058 L 10.421993,74.409307 L 69.174133,74.543439 L 70.496118,3.2256058 z "
       id="path146"
       style="fill:url(#linearGradient1786);fill-opacity:1.0000000"
       sodipodi:nodetypes="ccccc" />
    <path
       d="M 72.089418,2.1560410 C 72.089418,3.0094395 72.012435,75.488879 72.012435,75.844677 C 71.777564,76.094348 9.8949462,75.987792 9.0937773,75.987792 C 9.0937773,75.133531 9.0937773,3.0111830 9.0937773,2.1569117 C 9.8965782,2.1560410 71.287431,2.1560410 72.089418,2.1560410 z M 72.498582,1.2861105 L 8.2754359,1.2861105 L 8.2754359,76.856856 L 72.758937,76.793118 L 72.907759,1.2861105 L 72.498582,1.2861105 z "
       id="path225"
       style="fill:url(#linearGradient1788);fill-opacity:1.0000000"
       sodipodi:nodetypes="ccccccccccc" />
  </g>
  <g
     id="layer1"
     inkscape:label="Layer 1"
     inkscape:groupmode="layer">
    <g
       id="g1789"
       transform="matrix(0.585874,0.000000,0.000000,0.823005,-15.31199,16.05556)">
      <path
         style="fill:none;fill-opacity:1.0000000;fill-rule:evenodd;stroke:#000000;stroke-width:19.662500;stroke-linecap:butt;stroke-linejoin:round;stroke-miterlimit:4.0000000;stroke-opacity:0.031249942"
         d="M 227.25129,278.77943 L 275.14915,278.37081 L 190.91767,362.95312 L 110.43678,280.00524 L 158.61330,279.59664 C 154.35103,193.43599 191.19609,113.36682 182.82307,11.977633 C 232.15165,116.54692 210.38062,181.76452 227.25129,278.77943 z "
         id="path7002"
         sodipodi:nodetypes="ccccccc"
         transform="matrix(0.157472,0.000000,0.000000,0.149453,28.23707,13.84113)" />
      <path
         style="fill:none;fill-opacity:1.0000000;fill-rule:evenodd;stroke:#000000;stroke-width:26.662500;stroke-linecap:butt;stroke-linejoin:round;stroke-miterlimit:4.0000000;stroke-opacity:0.031249942"
         d="M 227.25129,278.77943 L 275.14915,278.37081 L 190.91767,362.95312 L 110.43678,280.00524 L 158.61330,279.59664 C 154.35103,193.43599 191.19609,113.36682 182.82307,11.977633 C 232.15165,116.54692 210.38062,181.76452 227.25129,278.77943 z "
         id="path7001"
         sodipodi:nodetypes="ccccccc"
         transform="matrix(0.157472,0.000000,0.000000,0.149453,28.23707,13.84113)" />
      <path
         style="fill:none;fill-opacity:1.0000000;fill-rule:evenodd;stroke:#000000;stroke-width:22.662500;stroke-linecap:butt;stroke-linejoin:round;stroke-miterlimit:4.0000000;stroke-opacity:0.031249942"
         d="M 227.25129,278.77943 L 275.14915,278.37081 L 190.91767,362.95312 L 110.43678,280.00524 L 158.61330,279.59664 C 154.35103,193.43599 191.19609,113.36682 182.82307,11.977633 C 232.15165,116.54692 210.38062,181.76452 227.25129,278.77943 z "
         id="path6375"
         sodipodi:nodetypes="ccccccc"
         transform="matrix(0.157472,0.000000,0.000000,0.149453,28.23707,13.84113)" />
      <path
         style="fill:url(#linearGradient1796);fill-opacity:1.0000000;fill-rule:evenodd;stroke:url(#linearGradient1797);stroke-width:11.162285;stroke-linecap:butt;stroke-linejoin:round;stroke-miterlimit:4.0000000;stroke-opacity:1.0000000"
         d="M 227.25129,278.77943 L 275.14915,278.37081 L 190.91767,362.95312 L 110.43678,280.00524 L 158.61330,279.59664 C 154.35103,193.43599 191.19609,113.36682 182.82307,11.977633 C 232.15165,116.54692 210.38062,181.76452 227.25129,278.77943 z "
         id="path3553"
         sodipodi:nodetypes="ccccccc"
         transform="matrix(0.157472,0.000000,0.000000,0.149453,28.23707,13.84113)" />
      <path
         style="fill:url(#radialGradient1798);fill-opacity:1.0000000;fill-rule:evenodd;stroke:none;stroke-width:0.25000000pt;stroke-linecap:butt;stroke-linejoin:miter;stroke-opacity:1.0000000"
         d="M 271.39773,280.05794 C 250.33456,301.47808 212.00157,339.47013 190.93840,360.89026 C 180.40683,350.69020 168.02719,337.12023 157.49561,326.92017 C 161.41914,310.19207 168.25245,293.46397 172.17598,276.73588 C 187.04409,272.65585 207.88410,255.16772 222.75222,251.08769 C 223.99123,259.04374 224.75061,266.15463 225.80067,274.13025 C 226.21388,277.26857 230.03533,279.40450 232.29756,279.57009 C 236.38613,279.86933 264.96168,280.06249 271.39773,280.05794 z "
         id="path2017"
         sodipodi:nodetypes="cccccssc"
         transform="matrix(0.157472,0.000000,0.000000,0.149453,28.23707,13.84113)" />
      <path
         style="fill:url(#linearGradient1799);fill-opacity:1.0000000;fill-rule:evenodd;stroke:none;stroke-width:0.25000000pt;stroke-linecap:butt;stroke-linejoin:miter;stroke-opacity:1.0000000"
         d="M 186.04771,24.582602 C 204.86817,90.908069 180.34728,183.97453 180.07582,231.79680 C 179.80438,279.61907 186.31915,298.83735 177.90423,307.95487 C 169.75588,316.78356 145.51131,283.10517 143.70165,311.70914 C 138.27266,304.73693 119.79263,286.67359 114.36365,279.70137 C 125.94548,279.16505 146.77806,280.60234 158.35990,280.06600 C 153.47382,205.69566 188.80517,105.87403 186.04771,24.582602 z "
         id="path3265"
         sodipodi:nodetypes="czzcccc"
         transform="matrix(0.157472,0.000000,0.000000,0.149453,28.23707,13.84113)" />
    </g>
    <g
       id="g1800"
       transform="matrix(0.585874,0.000000,0.000000,0.979519,4.688010,5.129116)">
      <path
         style="fill:none;fill-opacity:1.0000000;fill-rule:evenodd;stroke:#000000;stroke-width:19.662500;stroke-linecap:butt;stroke-linejoin:round;stroke-miterlimit:4.0000000;stroke-opacity:0.031249942"
         d="M 227.25129,278.77943 L 275.14915,278.37081 L 190.91767,362.95312 L 110.43678,280.00524 L 158.61330,279.59664 C 154.35103,193.43599 191.19609,113.36682 182.82307,11.977633 C 232.15165,116.54692 210.38062,181.76452 227.25129,278.77943 z "
         id="path1801"
         sodipodi:nodetypes="ccccccc"
         transform="matrix(0.157472,0.000000,0.000000,0.149453,28.23707,13.84113)" />
      <path
         style="fill:none;fill-opacity:1.0000000;fill-rule:evenodd;stroke:#000000;stroke-width:26.662500;stroke-linecap:butt;stroke-linejoin:round;stroke-miterlimit:4.0000000;stroke-opacity:0.031249942"
         d="M 227.25129,278.77943 L 275.14915,278.37081 L 190.91767,362.95312 L 110.43678,280.00524 L 158.61330,279.59664 C 154.35103,193.43599 191.19609,113.36682 182.82307,11.977633 C 232.15165,116.54692 210.38062,181.76452 227.25129,278.77943 z "
         id="path1802"
         sodipodi:nodetypes="ccccccc"
         transform="matrix(0.157472,0.000000,0.000000,0.149453,28.23707,13.84113)" />
      <path
         style="fill:none;fill-opacity:1.0000000;fill-rule:evenodd;stroke:#000000;stroke-width:22.662500;stroke-linecap:butt;stroke-linejoin:round;stroke-miterlimit:4.0000000;stroke-opacity:0.031249942"
         d="M 227.25129,278.77943 L 275.14915,278.37081 L 190.91767,362.95312 L 110.43678,280.00524 L 158.61330,279.59664 C 154.35103,193.43599 191.19609,113.36682 182.82307,11.977633 C 232.15165,116.54692 210.38062,181.76452 227.25129,278.77943 z "
         id="path1803"
         sodipodi:nodetypes="ccccccc"
         transform="matrix(0.157472,0.000000,0.000000,0.149453,28.23707,13.84113)" />
      <path
         style="fill:url(#linearGradient1807);fill-opacity:1.0000000;fill-rule:evenodd;stroke:url(#linearGradient1808);stroke-width:11.162285;stroke-linecap:butt;stroke-linejoin:round;stroke-miterlimit:4.0000000;stroke-opacity:1.0000000"
         d="M 227.25129,278.77943 L 275.14915,278.37081 L 190.91767,362.95312 L 110.43678,280.00524 L 158.61330,279.59664 C 154.35103,193.43599 191.19609,113.36682 182.82307,11.977633 C 232.15165,116.54692 210.38062,181.76452 227.25129,278.77943 z "
         id="path1804"
         sodipodi:nodetypes="ccccccc"
         transform="matrix(0.157472,0.000000,0.000000,0.149453,28.23707,13.84113)" />
      <path
         style="fill:url(#radialGradient1809);fill-opacity:1.0000000;fill-rule:evenodd;stroke:none;stroke-width:0.25000000pt;stroke-linecap:butt;stroke-linejoin:miter;stroke-opacity:1.0000000"
         d="M 271.39773,280.05794 C 250.33456,301.47808 212.00157,339.47013 190.93840,360.89026 C 180.40683,350.69020 168.02719,337.12023 157.49561,326.92017 C 161.41914,310.19207 168.25245,293.46397 172.17598,276.73588 C 187.04409,272.65585 207.88410,255.16772 222.75222,251.08769 C 223.99123,259.04374 224.75061,266.15463 225.80067,274.13025 C 226.21388,277.26857 230.03533,279.40450 232.29756,279.57009 C 236.38613,279.86933 264.96168,280.06249 271.39773,280.05794 z "
         id="path1805"
         sodipodi:nodetypes="cccccssc"
         transform="matrix(0.157472,0.000000,0.000000,0.149453,28.23707,13.84113)" />
      <path
         style="fill:url(#linearGradient1810);fill-opacity:1.0000000;fill-rule:evenodd;stroke:none;stroke-width:0.25000000pt;stroke-linecap:butt;stroke-linejoin:miter;stroke-opacity:1.0000000"
         d="M 186.04771,24.582602 C 204.86817,90.908069 180.34728,183.97453 180.07582,231.79680 C 179.80438,279.61907 186.31915,298.83735 177.90423,307.95487 C 169.75588,316.78356 145.51131,283.10517 143.70165,311.70914 C 138.27266,304.73693 119.79263,286.67359 114.36365,279.70137 C 125.94548,279.16505 146.77806,280.60234 158.35990,280.06600 C 153.47382,205.69566 188.80517,105.87403 186.04771,24.582602 z "
         id="path1806"
         sodipodi:nodetypes="czzcccc"
         transform="matrix(0.157472,0.000000,0.000000,0.149453,28.23707,13.84113)" />
    </g>
    <g
       id="g1811"
       transform="matrix(0.585874,0.000000,0.000000,1.116902,24.68801,-4.441949)">
      <path
         style="fill:none;fill-opacity:1.0000000;fill-rule:evenodd;stroke:#000000;stroke-width:19.662500;stroke-linecap:butt;stroke-linejoin:round;stroke-miterlimit:4.0000000;stroke-opacity:0.031249942"
         d="M 227.25129,278.77943 L 275.14915,278.37081 L 190.91767,362.95312 L 110.43678,280.00524 L 158.61330,279.59664 C 154.35103,193.43599 191.19609,113.36682 182.82307,11.977633 C 232.15165,116.54692 210.38062,181.76452 227.25129,278.77943 z "
         id="path1812"
         sodipodi:nodetypes="ccccccc"
         transform="matrix(0.157472,0.000000,0.000000,0.149453,28.23707,13.84113)" />
      <path
         style="fill:none;fill-opacity:1.0000000;fill-rule:evenodd;stroke:#000000;stroke-width:26.662500;stroke-linecap:butt;stroke-linejoin:round;stroke-miterlimit:4.0000000;stroke-opacity:0.031249942"
         d="M 227.25129,278.77943 L 275.14915,278.37081 L 190.91767,362.95312 L 110.43678,280.00524 L 158.61330,279.59664 C 154.35103,193.43599 191.19609,113.36682 182.82307,11.977633 C 232.15165,116.54692 210.38062,181.76452 227.25129,278.77943 z "
         id="path1813"
         sodipodi:nodetypes="ccccccc"
         transform="matrix(0.157472,0.000000,0.000000,0.149453,28.23707,13.84113)" />
      <path
         style="fill:none;fill-opacity:1.0000000;fill-rule:evenodd;stroke:#000000;stroke-width:22.662500;stroke-linecap:butt;stroke-linejoin:round;stroke-miterlimit:4.0000000;stroke-opacity:0.031249942"
         d="M 227.25129,278.77943 L 275.14915,278.37081 L 190.91767,362.95312 L 110.43678,280.00524 L 158.61330,279.59664 C 154.35103,193.43599 191.19609,113.36682 182.82307,11.977633 C 232.15165,116.54692 210.38062,181.76452 227.25129,278.77943 z "
         id="path1814"
         sodipodi:nodetypes="ccccccc"
         transform="matrix(0.157472,0.000000,0.000000,0.149453,28.23707,13.84113)" />
      <path
         style="fill:url(#linearGradient1818);fill-opacity:1.0000000;fill-rule:evenodd;stroke:url(#linearGradient1819);stroke-width:11.162285;stroke-linecap:butt;stroke-linejoin:round;stroke-miterlimit:4.0000000;stroke-opacity:1.0000000"
         d="M 227.25129,278.77943 L 275.14915,278.37081 L 190.91767,362.95312 L 110.43678,280.00524 L 158.61330,279.59664 C 154.35103,193.43599 191.19609,113.36682 182.82307,11.977633 C 232.15165,116.54692 210.38062,181.76452 227.25129,278.77943 z "
         id="path1815"
         sodipodi:nodetypes="ccccccc"
         transform="matrix(0.157472,0.000000,0.000000,0.149453,28.23707,13.84113)" />
      <path
         style="fill:url(#radialGradient1820);fill-opacity:1.0000000;fill-rule:evenodd;stroke:none;stroke-width:0.25000000pt;stroke-linecap:butt;stroke-linejoin:miter;stroke-opacity:1.0000000"
         d="M 271.39773,280.05794 C 250.33456,301.47808 212.00157,339.47013 190.93840,360.89026 C 180.40683,350.69020 168.02719,337.12023 157.49561,326.92017 C 161.41914,310.19207 168.25245,293.46397 172.17598,276.73588 C 187.04409,272.65585 207.88410,255.16772 222.75222,251.08769 C 223.99123,259.04374 224.75061,266.15463 225.80067,274.13025 C 226.21388,277.26857 230.03533,279.40450 232.29756,279.57009 C 236.38613,279.86933 264.96168,280.06249 271.39773,280.05794 z "
         id="path1816"
         sodipodi:nodetypes="cccccssc"
         transform="matrix(0.157472,0.000000,0.000000,0.149453,28.23707,13.84113)" />
      <path
         style="fill:url(#linearGradient1821);fill-opacity:1.0000000;fill-rule:evenodd;stroke:none;stroke-width:0.25000000pt;stroke-linecap:butt;stroke-linejoin:miter;stroke-opacity:1.0000000"
         d="M 186.04771,24.582602 C 204.86817,90.908069 180.34728,183.97453 180.07582,231.79680 C 179.80438,279.61907 186.31915,298.83735 177.90423,307.95487 C 169.75588,316.78356 145.51131,283.10517 143.70165,311.70914 C 138.27266,304.73693 119.79263,286.67359 114.36365,279.70137 C 125.94548,279.16505 146.77806,280.60234 158.35990,280.06600 C 153.47382,205.69566 188.80517,105.87403 186.04771,24.582602 z "
         id="path1817"
         sodipodi:nodetypes="czzcccc"
         transform="matrix(0.157472,0.000000,0.000000,0.149453,28.23707,13.84113)" />
    </g>
    <path
       d="M 68.750000,8.6425761 L 68.750000,1.9484791 L 8.5760410,1.9484791 L 8.5220300,40.718608 C 31.636086,48.664095 65.092804,28.611803 68.750000,8.6425761 z "
       id="path195"
       style="fill:url(#radialGradient1204);fill-opacity:1.0000000"
       sodipodi:nodetypes="ccccc" />
    <text
       xml:space="preserve"
       style="font-size:12.000000;font-style:normal;font-variant:normal;font-weight:bold;font-stretch:normal;fill:#000000;fill-opacity:1.0000000;stroke:none;stroke-width:1.0000000pt;stroke-linecap:butt;stroke-linejoin:miter;stroke-opacity:1.0000000;font-family:Bitstream Vera Sans;text-anchor:start;writing-mode:lr"
       x="-10.55409"
       y="18.78628"
       id="text1957"
       sodipodi:linespacing="100%"
       transform="matrix(2.065383,0.000000,0.000000,2.429115,32.73782,-19.38403)"><tspan
         sodipodi:role="line"
         id="tspan1958"
         x="-10.554090"
         y="18.786280">A</tspan></text>
    <path
       style="fill:url(#linearGradient1128)"
       d="M 17.746215,4.9999834 L 13.560608,18.281238 C 15.021623,18.174446 16.747387,17.654713 18.617427,16.490728 L 20.530306,9.9779944 L 21.780306,14.227996 C 23.076184,13.217592 24.320286,12.402060 25.454549,11.807856 L 23.314397,4.9999834 L 17.746215,4.9999834 z "
       id="path2238" />
  </g>
</svg>
