<?xml version="1.0" encoding="UTF-8" standalone="no"?>
<!DOCTYPE svg PUBLIC "-//W3C//DTD SVG 20010904//EN"
"http://www.w3.org/TR/2001/REC-SVG-20010904/DTD/svg10.dtd">
<!-- Created with Inkscape (http://www.inkscape.org/) -->
<svg
   width="64pt"
   height="64pt"
   id="svg11573"
   sodipodi:version="0.32"
   inkscape:version="0.40"
   sodipodi:docbase="/home/nuno/kdeplayground-artwork/oooicons/crystalsvg"
   sodipodi:docname="bar_2D_title.svg"
   inkscape:export-filename="/home/nuno/kdeplayground-artwork/oooicons/crystalsvg/bar_2D_B_title.png"
   inkscape:export-xdpi="36.000000"
   inkscape:export-ydpi="36.000000"
   xmlns="http://www.w3.org/2000/svg"
   xmlns:cc="http://web.resource.org/cc/"
   xmlns:inkscape="http://www.inkscape.org/namespaces/inkscape"
   xmlns:sodipodi="http://sodipodi.sourceforge.net/DTD/sodipodi-0.dtd"
   xmlns:rdf="http://www.w3.org/1999/02/22-rdf-syntax-ns#"
   xmlns:dc="http://purl.org/dc/elements/1.1/"
   xmlns:xlink="http://www.w3.org/1999/xlink">
  <defs
     id="defs3">
    <linearGradient
       id="blacktowhite">
      <stop
         style="stop-color:#000000;stop-opacity:1.0000000;"
         offset="0.0000000"
         id="stop2476" />
      <stop
         style="stop-color:#ffffff;stop-opacity:1.0000000;"
         offset="1.0000000"
         id="stop2475" />
    </linearGradient>
    <linearGradient
       id="greylighttograyw">
      <stop
         style="stop-color:#b5b5b8;stop-opacity:1.0000000;"
         offset="0.0000000"
         id="stop575" />
      <stop
         style="stop-color:#ebebee;stop-opacity:1.0000000;"
         offset="1.0000000"
         id="stop576" />
    </linearGradient>
    <radialGradient
       inkscape:collect="always"
       xlink:href="#light100to0"
       id="radialGradient8395"
       gradientUnits="userSpaceOnUse"
       gradientTransform="matrix(0.258301,0.000000,0.000000,0.177290,0.760764,-48.01601)"
       cx="0.33943793"
       cy="316.96255"
       fx="0.33943793"
       fy="316.96255"
       r="16.630949" />
    <linearGradient
       inkscape:collect="always"
       xlink:href="#light100to0"
       id="linearGradient8394"
       gradientUnits="userSpaceOnUse"
       gradientTransform="matrix(3.172279e-6,3.028332e-2,0.113005,-1.582779e-3,0.595209,2.202533)"
       x1="79.057785"
       y1="26.997606"
       x2="144.28882"
       y2="50.504238" />
    <radialGradient
       inkscape:collect="always"
       xlink:href="#light100to0"
       id="radialGradient8393"
       gradientUnits="userSpaceOnUse"
       gradientTransform="matrix(0.276524,0.000000,0.000000,0.177290,0.755171,-48.01601)"
       cx="18.724737"
       cy="318.65726"
       fx="18.724737"
       fy="318.65726"
       r="16.630949" />
    <radialGradient
       inkscape:collect="always"
       xlink:href="#light100to0"
       id="radialGradient8392"
       gradientUnits="userSpaceOnUse"
       gradientTransform="matrix(0.258301,0.000000,0.000000,0.177290,0.981150,-30.60554)"
       cx="0.33943793"
       cy="316.96255"
       fx="0.33943793"
       fy="316.96255"
       r="16.630949" />
    <linearGradient
       inkscape:collect="always"
       xlink:href="#light100to0"
       id="linearGradient8391"
       gradientUnits="userSpaceOnUse"
       gradientTransform="matrix(3.172279e-6,3.028332e-2,0.113005,-1.582779e-3,0.815595,19.61300)"
       x1="79.057785"
       y1="26.997606"
       x2="144.28882"
       y2="50.504238" />
    <radialGradient
       inkscape:collect="always"
       xlink:href="#light100to0"
       id="radialGradient8390"
       gradientUnits="userSpaceOnUse"
       gradientTransform="matrix(0.276524,0.000000,0.000000,0.177290,0.975557,-30.60554)"
       cx="18.724737"
       cy="318.65726"
       fx="18.724737"
       fy="318.65726"
       r="16.630949" />
    <radialGradient
       inkscape:collect="always"
       xlink:href="#light100to0"
       id="radialGradient8389"
       gradientUnits="userSpaceOnUse"
       gradientTransform="matrix(0.258301,0.000000,0.000000,0.177290,0.870957,-12.97469)"
       cx="0.33943793"
       cy="316.96255"
       fx="0.33943793"
       fy="316.96255"
       r="16.630949" />
    <linearGradient
       inkscape:collect="always"
       xlink:href="#light100to0"
       id="linearGradient8388"
       gradientUnits="userSpaceOnUse"
       gradientTransform="matrix(3.172279e-6,3.028332e-2,0.113005,-1.582779e-3,0.705402,37.24385)"
       x1="79.057785"
       y1="26.997606"
       x2="144.28882"
       y2="50.504238" />
    <radialGradient
       inkscape:collect="always"
       xlink:href="#light100to0"
       id="radialGradient8387"
       gradientUnits="userSpaceOnUse"
       gradientTransform="matrix(0.276524,0.000000,0.000000,0.177290,0.865364,-12.97469)"
       cx="18.724737"
       cy="318.65726"
       fx="18.724737"
       fy="318.65726"
       r="16.630949" />
    <radialGradient
       inkscape:collect="always"
       xlink:href="#light100to0"
       id="radialGradient7411"
       gradientTransform="matrix(3.552648,0.000000,0.000000,0.188646,5.411679,20.38335)"
       cx="18.724737"
       cy="318.65726"
       fx="18.724737"
       fy="318.65726"
       r="16.630949"
       gradientUnits="userSpaceOnUse" />
    <linearGradient
       inkscape:collect="always"
       xlink:href="#light100to0"
       id="linearGradient6769"
       gradientUnits="userSpaceOnUse"
       gradientTransform="matrix(-3.918589e-5,3.222313e-2,-1.395911,-1.684165e-3,80.37969,73.81863)"
       x1="79.057785"
       y1="26.997606"
       x2="144.28882"
       y2="50.504238" />
    <linearGradient
       inkscape:collect="always"
       xlink:href="#light100to0"
       id="linearGradient6782"
       gradientUnits="userSpaceOnUse"
       gradientTransform="matrix(0.151581,0.000000,0.000000,4.809269,1.233225,20.37978)"
       x1="3.9717577"
       y1="-0.19021416"
       x2="68.651939"
       y2="18.609808" />
    <linearGradient
       id="light100to0">
      <stop
         style="stop-color:#ffffff;stop-opacity:1.0000000;"
         offset="0.0000000"
         id="stop2764" />
      <stop
         style="stop-color:#ffffff;stop-opacity:0.0000000;"
         offset="1.0000000"
         id="stop2765" />
    </linearGradient>
    <radialGradient
       inkscape:collect="always"
       xlink:href="#light100to0"
       id="radialGradient7413"
       gradientUnits="userSpaceOnUse"
       gradientTransform="matrix(3.301534,0.000000,0.000000,0.188646,5.826291,20.38335)"
       cx="0.33943793"
       cy="316.96255"
       fx="0.33943793"
       fy="316.96255"
       r="16.630949" />
    <linearGradient
       inkscape:collect="always"
       xlink:href="#greylighttograyw"
       id="linearGradient2372"
       gradientUnits="userSpaceOnUse"
       gradientTransform="matrix(1.053646,0.000000,0.000000,0.858784,90.17212,-9.303810)"
       x1="56.661541"
       y1="76.231018"
       x2="31.292070"
       y2="32.262638" />
    <linearGradient
       inkscape:collect="always"
       xlink:href="#blacktowhite"
       id="linearGradient2373"
       gradientUnits="userSpaceOnUse"
       gradientTransform="matrix(1.010762,0.000000,0.000000,0.822154,23.61074,-117.5947)"
       x1="73.264740"
       y1="181.52489"
       x2="176.22551"
       y2="184.47394" />
    <linearGradient
       inkscape:collect="always"
       xlink:href="#light100to0"
       id="linearGradient2374"
       gradientUnits="userSpaceOnUse"
       gradientTransform="matrix(1.300366,0.000000,0.000000,0.639052,90.17212,-3.667700)"
       x1="23.340532"
       y1="43.278069"
       x2="57.909317"
       y2="93.793022" />
  </defs>
  <sodipodi:namedview
     id="base"
     pagecolor="#ffffff"
     bordercolor="#666666"
     borderopacity="1.0"
     inkscape:pageopacity="0.0"
     inkscape:pageshadow="2"
     inkscape:zoom="5.5000000"
     inkscape:cx="61.439731"
     inkscape:cy="53.818182"
     inkscape:current-layer="layer1"
     showgrid="true"
     inkscape:grid-bbox="true"
     gridspacingy="1.0000000pt"
     gridspacingx="1.0000000pt"
     gridoriginy="0.0000000pt"
     gridoriginx="0.0000000pt"
     inkscape:window-width="1278"
     inkscape:window-height="906"
     inkscape:window-x="854"
     inkscape:window-y="93" />
  <metadata
     id="metadata4">
    <rdf:RDF
       id="RDF5">
      <cc:Work
         rdf:about=""
         id="Work6">
        <dc:format
           id="format7">image/svg+xml</dc:format>
        <dc:type
           id="type9"
           rdf:resource="http://purl.org/dc/dcmitype/StillImage" />
      </cc:Work>
    </rdf:RDF>
  </metadata>
  <g
     id="layer1"
     inkscape:label="Layer 1"
     inkscape:groupmode="layer">
    <g
       id="g2369"
       transform="matrix(0.960684,0.000000,0.000000,0.980877,-85.03305,19.63212)">
      <path
         style="fill:url(#linearGradient2372);fill-opacity:1.0000000;fill-rule:evenodd;stroke:url(#linearGradient2373);stroke-width:1.4863104;stroke-linecap:butt;stroke-linejoin:round;stroke-miterlimit:4.0000000;stroke-opacity:1.0000000"
         d="M 97.894261,59.024612 L 97.820192,36.038673 L 112.67212,23.497207 L 127.67212,33.676832 L 165.17212,4.2690420 L 165.17212,58.924900 L 97.894261,59.024612 z "
         id="path9018"
         sodipodi:nodetypes="ccccccc" />
      <path
         style="fill:url(#linearGradient2374);fill-opacity:1.0000000;fill-rule:evenodd;stroke:none;stroke-width:0.25000000pt;stroke-linecap:butt;stroke-linejoin:miter;stroke-opacity:1.0000000"
         d="M 112.78231,23.554463 L 127.66868,33.724515 L 164.43004,5.0000000 C 166.52288,45.751507 108.85038,62.414684 95.874600,37.604812 L 112.78231,23.554463 z "
         id="path9648"
         sodipodi:nodetypes="ccccc" />
    </g>
    <g
       id="g8364"
       transform="matrix(0.960684,0.000000,0.000000,0.980877,0.968576,20.77160)">
      <path
         style="fill:#000000;fill-opacity:1.0000000;fill-rule:evenodd;stroke:none;stroke-width:4.1875000;stroke-linecap:round;stroke-linejoin:round;stroke-miterlimit:4.0000000;stroke-opacity:1.0000000"
         d="M 0.84416785,4.1562510 C 0.56498147,4.1812091 0.52210314,5.0612375 0.52742868,6.2175837 C 0.53275422,7.3739299 0.61971503,8.3155369 0.86345334,8.3437510 L 7.3323569,8.3437510 C 7.3989266,8.3544304 7.4608465,7.9577160 7.4944060,7.3055177 C 7.5279657,6.6533195 7.5279657,5.8466825 7.4944060,5.1944843 C 7.4608465,4.5422860 7.3989266,4.1455716 7.3323569,4.1562510 L 0.86345334,4.1562510 C 0.85702923,4.1524397 0.85059196,4.1524397 0.84416785,4.1562510 L 0.84416785,4.1562510 z "
         id="path7414"
         sodipodi:nodetypes="cccccccccc" />
      <path
         style="fill:url(#radialGradient8393);fill-opacity:1.0000000;fill-rule:evenodd;stroke:none;stroke-width:3.5504353;stroke-linecap:round;stroke-linejoin:round;stroke-miterlimit:4.0000000;stroke-opacity:1.0000000"
         d="M 6.1979173,4.2145529 L 0.93372796,4.2770529 C 0.86257386,4.2770529 0.80489206,5.0745457 0.80489206,6.0583029 C 0.80489206,7.0420601 0.86257386,7.8395529 0.93372796,7.8395529 L 6.1979173,7.7458029 C 6.2467500,7.8169269 6.2942412,7.4968115 6.3202650,6.9211140 C 6.3462890,6.3454164 6.3462890,5.6149394 6.3202650,5.0392418 C 6.2942412,4.4635443 6.2467500,4.1434289 6.1979173,4.2145529 z "
         id="path8036" />
      <path
         style="fill:url(#linearGradient8394);fill-opacity:1.0000000;fill-rule:evenodd;stroke:none;stroke-width:0.25000000pt;stroke-linecap:butt;stroke-linejoin:miter;stroke-opacity:1.0000000"
         d="M 0.96961066,4.6246546 C 2.7454994,4.6337806 4.4946394,4.6089167 6.2705281,4.6180406 C 6.2891568,7.5965849 2.7397255,6.2558479 0.95939386,6.3791379 C 0.86189166,6.3446919 0.77511776,4.6093707 0.96961066,4.6246546 z "
         id="path8037"
         sodipodi:nodetypes="cccc" />
      <path
         style="fill:url(#radialGradient8395);fill-opacity:1.0000000;fill-rule:evenodd;stroke:none;stroke-width:3.4314556;stroke-linecap:round;stroke-linejoin:round;stroke-miterlimit:4.0000000;stroke-opacity:1.0000000"
         d="M 5.8453138,4.2770529 L 0.92694716,4.3395529 C 0.85828966,4.3395529 0.80263176,5.1090635 0.80263176,6.0583029 C 0.80263176,7.0075423 0.85828966,7.7770529 0.92694716,7.7770529 L 5.8453138,7.7145529 C 5.9139713,7.7145529 5.9696292,6.9450423 5.9696292,5.9958029 C 5.9696292,5.0465635 5.9139713,4.2770529 5.8453138,4.2770529 z "
         id="path8038" />
    </g>
    <g
       id="g8369"
       transform="matrix(0.960684,0.000000,0.000000,0.980877,0.756852,20.77160)">
      <path
         style="fill:#000000;fill-opacity:1.0000000;fill-rule:evenodd;stroke:none;stroke-width:4.1875000;stroke-linecap:round;stroke-linejoin:round;stroke-miterlimit:4.0000000;stroke-opacity:1.0000000"
         d="M 1.0645535,21.566719 C 0.78536714,21.591677 0.74248881,22.471706 0.74781435,23.628052 C 0.75313989,24.784398 0.84010070,25.726005 1.0838390,25.754219 L 7.5527426,25.754219 C 7.6193123,25.764899 7.6812322,25.368184 7.7147917,24.715986 C 7.7483514,24.063788 7.7483514,23.257151 7.7147917,22.604953 C 7.6812322,21.952754 7.6193123,21.556040 7.5527426,21.566719 L 1.0838390,21.566719 C 1.0774149,21.562908 1.0709776,21.562908 1.0645535,21.566719 L 1.0645535,21.566719 z "
         id="path8340"
         sodipodi:nodetypes="cccccccccc" />
      <path
         style="fill:url(#radialGradient8390);fill-opacity:1.0000000;fill-rule:evenodd;stroke:none;stroke-width:3.5504353;stroke-linecap:round;stroke-linejoin:round;stroke-miterlimit:4.0000000;stroke-opacity:1.0000000"
         d="M 6.4183030,21.625021 L 1.1541136,21.687521 C 1.0829595,21.687521 1.0252777,22.485014 1.0252777,23.468771 C 1.0252777,24.452528 1.0829595,25.250021 1.1541136,25.250021 L 6.4183030,25.156271 C 6.4671357,25.227395 6.5146269,24.907280 6.5406507,24.331582 C 6.5666747,23.755885 6.5666747,23.025408 6.5406507,22.449710 C 6.5146269,21.874013 6.4671357,21.553897 6.4183030,21.625021 z "
         id="path8341" />
      <path
         style="fill:url(#linearGradient8391);fill-opacity:1.0000000;fill-rule:evenodd;stroke:none;stroke-width:0.25000000pt;stroke-linecap:butt;stroke-linejoin:miter;stroke-opacity:1.0000000"
         d="M 1.1899963,22.035123 C 2.9658851,22.044249 4.7150251,22.019385 6.4909138,22.028509 C 6.5095425,25.007053 2.9601112,23.666316 1.1797795,23.789606 C 1.0822773,23.755160 0.99550343,22.019839 1.1899963,22.035123 z "
         id="path8342"
         sodipodi:nodetypes="cccc" />
      <path
         style="fill:url(#radialGradient8392);fill-opacity:1.0000000;fill-rule:evenodd;stroke:none;stroke-width:3.4314556;stroke-linecap:round;stroke-linejoin:round;stroke-miterlimit:4.0000000;stroke-opacity:1.0000000"
         d="M 6.0656995,21.687521 L 1.1473328,21.750021 C 1.0786753,21.750021 1.0230174,22.519532 1.0230174,23.468771 C 1.0230174,24.418011 1.0786753,25.187521 1.1473328,25.187521 L 6.0656995,25.125021 C 6.1343570,25.125021 6.1900149,24.355511 6.1900149,23.406271 C 6.1900149,22.457032 6.1343570,21.687521 6.0656995,21.687521 z "
         id="path8343" />
    </g>
    <g
       id="g8374"
       transform="matrix(0.960684,0.000000,0.000000,0.980877,0.862719,20.77160)">
      <path
         style="fill:#000000;fill-opacity:1.0000000;fill-rule:evenodd;stroke:none;stroke-width:4.1875000;stroke-linecap:round;stroke-linejoin:round;stroke-miterlimit:4.0000000;stroke-opacity:1.0000000"
         d="M 0.95436066,39.197573 C 0.67517430,39.222531 0.63229597,40.102560 0.63762151,41.258906 C 0.64294705,42.415252 0.72990786,43.356859 0.97364616,43.385073 L 7.4425498,43.385073 C 7.5091195,43.395753 7.5710394,42.999038 7.6045989,42.346840 C 7.6381586,41.694642 7.6381586,40.888005 7.6045989,40.235807 C 7.5710394,39.583608 7.5091195,39.186894 7.4425498,39.197573 L 0.97364616,39.197573 C 0.96722206,39.193762 0.96078476,39.193762 0.95436066,39.197573 L 0.95436066,39.197573 z "
         id="path8347"
         sodipodi:nodetypes="cccccccccc" />
      <path
         style="fill:url(#radialGradient8387);fill-opacity:1.0000000;fill-rule:evenodd;stroke:none;stroke-width:3.5504353;stroke-linecap:round;stroke-linejoin:round;stroke-miterlimit:4.0000000;stroke-opacity:1.0000000"
         d="M 6.3081102,39.255875 L 1.0439208,39.318375 C 0.97276666,39.318375 0.91508486,40.115868 0.91508486,41.099625 C 0.91508486,42.083382 0.97276666,42.880875 1.0439208,42.880875 L 6.3081102,42.787125 C 6.3569429,42.858249 6.4044341,42.538134 6.4304579,41.962436 C 6.4564819,41.386739 6.4564819,40.656262 6.4304579,40.080564 C 6.4044341,39.504867 6.3569429,39.184751 6.3081102,39.255875 z "
         id="path8348" />
      <path
         style="fill:url(#linearGradient8388);fill-opacity:1.0000000;fill-rule:evenodd;stroke:none;stroke-width:0.25000000pt;stroke-linecap:butt;stroke-linejoin:miter;stroke-opacity:1.0000000"
         d="M 1.0798035,39.665977 C 2.8556923,39.675103 4.6048323,39.650239 6.3807210,39.659363 C 6.3993497,42.637907 2.8499184,41.297170 1.0695867,41.420460 C 0.97208446,41.386014 0.88531059,39.650693 1.0798035,39.665977 z "
         id="path8349"
         sodipodi:nodetypes="cccc" />
      <path
         style="fill:url(#radialGradient8389);fill-opacity:1.0000000;fill-rule:evenodd;stroke:none;stroke-width:3.4314556;stroke-linecap:round;stroke-linejoin:round;stroke-miterlimit:4.0000000;stroke-opacity:1.0000000"
         d="M 5.9555067,39.318375 L 1.0371400,39.380875 C 0.96848246,39.380875 0.91282456,40.150386 0.91282456,41.099625 C 0.91282456,42.048865 0.96848246,42.818375 1.0371400,42.818375 L 5.9555067,42.755875 C 6.0241642,42.755875 6.0798221,41.986365 6.0798221,41.037125 C 6.0798221,40.087886 6.0241642,39.318375 5.9555067,39.318375 z "
         id="path8350" />
    </g>
    <path
       style="fill:none;fill-opacity:0.75000000;fill-rule:evenodd;stroke:#000000;stroke-width:4.1556802;stroke-linecap:round;stroke-linejoin:round;stroke-miterlimit:4.0000000;stroke-opacity:1.0000000"
       d="M 7.8368404,22.365029 L 7.7093201,77.922160 L 75.714548,77.842825"
       id="path7404"
       sodipodi:nodetypes="ccc" />
    <path
       style="fill:none;fill-opacity:0.75000000;fill-rule:evenodd;stroke:url(#radialGradient7411);stroke-width:3.5304461;stroke-linecap:round;stroke-linejoin:round;stroke-miterlimit:4.0000000;stroke-opacity:1.0000000"
       d="M 7.6987354,77.922160 L 75.336500,77.842825"
       id="path7405"
       sodipodi:nodetypes="cc" />
    <path
       style="fill:url(#linearGradient6769);fill-opacity:1.0000000;fill-rule:evenodd;stroke:none;stroke-width:0.25000000pt;stroke-linecap:butt;stroke-linejoin:miter;stroke-opacity:1.0000000"
       d="M 75.754878,76.395934 C 53.818030,76.405639 32.211605,76.379187 10.274763,76.388893 C 10.044650,79.558227 53.889351,78.131612 75.881083,78.262797 C 77.085482,78.226146 78.157366,76.379665 75.754878,76.395934 z "
       id="path6666"
       sodipodi:nodetypes="cccc" />
    <path
       style="fill:url(#linearGradient6782);fill-opacity:1.0000000;fill-rule:evenodd;stroke:none;stroke-width:0.25000000pt;stroke-linecap:butt;stroke-linejoin:miter;stroke-opacity:1.0000000"
       d="M 6.0686513,22.387573 C 6.1113653,41.358177 5.8348083,77.797842 6.1955529,78.363440 C 8.7708291,78.316977 8.1492347,41.294686 8.2728114,22.276474 C 8.2970706,20.666261 6.0475220,20.485888 6.0686513,22.387573 z "
       id="path6040"
       sodipodi:nodetypes="cccc" />
    <path
       style="fill:none;fill-opacity:0.75000000;fill-rule:evenodd;stroke:url(#radialGradient7413);stroke-width:3.4033861;stroke-linecap:round;stroke-linejoin:round;stroke-miterlimit:4.0000000;stroke-opacity:1.0000000"
       d="M 7.9516931,77.922160 L 70.808546,77.842825"
       id="path7412"
       sodipodi:nodetypes="cc" />
    <path
       style="fill:#ffc92b;fill-opacity:1.0000000;stroke:#9e0000;stroke-width:1.0532413;stroke-linecap:round;stroke-linejoin:round;stroke-miterlimit:4.0000000;stroke-dashoffset:0.0000000;stroke-opacity:0.45887443"
       d="M 21.214159,6.7766206 L 58.668832,6.7766206 C 61.819728,6.7766206 64.356369,8.8142316 64.356369,11.345256 L 64.356369,14.894856 C 64.356369,17.425881 61.819728,19.463491 58.668832,19.463491 L 21.214159,19.463491 C 18.063262,19.463491 15.526621,17.425881 15.526621,14.894856 L 15.526621,11.345256 C 15.526621,8.8142316 18.063262,6.7766206 21.214159,6.7766206 z "
       id="rect11638" />
  </g>
</svg>
