<?xml version="1.0" encoding="UTF-8" standalone="no"?>
<!-- Created with Inkscape (http://www.inkscape.org/) -->
<svg
   xmlns:dc="http://purl.org/dc/elements/1.1/"
   xmlns:cc="http://web.resource.org/cc/"
   xmlns:rdf="http://www.w3.org/1999/02/22-rdf-syntax-ns#"
   xmlns:svg="http://www.w3.org/2000/svg"
   xmlns="http://www.w3.org/2000/svg"
   xmlns:xlink="http://www.w3.org/1999/xlink"
   xmlns:sodipodi="http://inkscape.sourceforge.net/DTD/sodipodi-0.dtd"
   xmlns:inkscape="http://www.inkscape.org/namespaces/inkscape"
   inkscape:export-ydpi="36.000000"
   inkscape:export-xdpi="36.000000"
   inkscape:export-filename="/home/pinheiro/kdeplayground-artwork/oooicons/crystalsvg/togglebreakpoint.png"
   sodipodi:docname="togglebreakpoint.svg"
   sodipodi:docbase="/home/pinheiro/kdeplayground-artwork/oooicons/crystalsvg"
   inkscape:version="0.41"
   sodipodi:version="0.32"
   id="svg6882"
   height="64pt"
   width="64pt">
  <defs
     id="defs3">
    <radialGradient
       r="166.47372"
       fy="391.47498"
       fx="124.57159"
       cy="391.47498"
       cx="123.88702"
       gradientTransform="scale(1.535080,0.651432)"
       gradientUnits="userSpaceOnUse"
       id="radialGradient4227"
       xlink:href="#light90to0"
       inkscape:collect="always" />
    <linearGradient
       id="light90to0">
      <stop
         id="stop1890"
         offset="0.0000000"
         style="stop-color:#ffffff;stop-opacity:0.90196079;" />
      <stop
         id="stop1892"
         offset="1.0000000"
         style="stop-color:#ffffff;stop-opacity:0.0000000;" />
    </linearGradient>
    <linearGradient
       y2="346.10425"
       x2="183.38441"
       y1="18.164442"
       x1="183.38441"
       gradientUnits="userSpaceOnUse"
       id="linearGradient4226"
       xlink:href="#light90to0"
       inkscape:collect="always" />
    <linearGradient
       id="reddarktoblack">
      <stop
         id="stop3230"
         offset="0.0000000"
         style="stop-color:#8e0000;stop-opacity:1.0000000;" />
      <stop
         id="stop3231"
         offset="1.0000000"
         style="stop-color:#000000;stop-opacity:1.0000000;" />
    </linearGradient>
    <linearGradient
       y2="617.40039"
       x2="43.909172"
       y1="574.58899"
       x1="0.92985612"
       gradientUnits="userSpaceOnUse"
       id="linearGradient4225"
       xlink:href="#reddarktoblack"
       inkscape:collect="always" />
    <linearGradient
       id="redtodarkred">
      <stop
         id="stop3856"
         offset="0.0000000"
         style="stop-color:#ff0000;stop-opacity:1.0000000;" />
      <stop
         id="stop3855"
         offset="1.0000000"
         style="stop-color:#920000;stop-opacity:1.0000000;" />
    </linearGradient>
    <radialGradient
       r="20.948168"
       fy="604.70605"
       fx="29.594513"
       cy="604.88794"
       cx="29.412601"
       gradientUnits="userSpaceOnUse"
       id="radialGradient4224"
       xlink:href="#redtodarkred"
       inkscape:collect="always" />
    <linearGradient
       inkscape:collect="always"
       xlink:href="#linearGradient5170"
       id="linearGradient2546"
       gradientUnits="userSpaceOnUse"
       gradientTransform="matrix(0.728114,-1.619744e-2,3.170042e-2,1.425011,-411.8219,-163.2111)"
       x1="149.29594"
       y1="234.90770"
       x2="409.73569"
       y2="154.10789" />
    <linearGradient
       id="linearGradient5170">
      <stop
         style="stop-color:#8f8fa6;stop-opacity:1.0000000;"
         offset="0.0000000"
         id="stop5171" />
      <stop
         style="stop-color:#ffffff;stop-opacity:1.0000000;"
         offset="1.0000000"
         id="stop5172" />
    </linearGradient>
    <linearGradient
       inkscape:collect="always"
       xlink:href="#light90to0"
       id="linearGradient2543"
       gradientUnits="userSpaceOnUse"
       gradientTransform="matrix(0.728114,-1.619744e-2,3.170042e-2,1.425011,-411.8219,-163.2111)"
       x1="304.64722"
       y1="96.190353"
       x2="299.20441"
       y2="145.69553" />
    <linearGradient
       id="linearGradient1335">
      <stop
         style="stop-color:#ffffff;stop-opacity:0.90196079;"
         offset="0.0000000"
         id="stop1337" />
      <stop
         style="stop-color:#ffffff;stop-opacity:0.0000000;"
         offset="1.0000000"
         id="stop1339" />
    </linearGradient>
    <radialGradient
       inkscape:collect="always"
       xlink:href="#light90to0"
       id="radialGradient2540"
       gradientUnits="userSpaceOnUse"
       gradientTransform="matrix(0.901404,-2.005241e-2,2.560619e-2,1.151060,-411.8219,-163.2111)"
       cx="330.11304"
       cy="224.77423"
       fx="328.27005"
       fy="224.28973"
       r="105.02886" />
  </defs>
  <sodipodi:namedview
     inkscape:window-y="25"
     inkscape:window-x="0"
     inkscape:window-height="538"
     inkscape:window-width="640"
     gridoriginx="0.0000000pt"
     gridoriginy="0.0000000pt"
     gridspacingx="1.0000000pt"
     gridspacingy="1.0000000pt"
     inkscape:grid-bbox="true"
     showgrid="true"
     inkscape:current-layer="g1346"
     inkscape:cy="40.000000"
     inkscape:cx="40.000000"
     inkscape:zoom="4.5500000"
     inkscape:pageshadow="2"
     inkscape:pageopacity="0.0"
     borderopacity="1.0"
     bordercolor="#666666"
     pagecolor="#ffffff"
     id="base" />
  <metadata
     id="metadata4">
    <rdf:RDF
       id="RDF5">
      <cc:Work
         id="Work6"
         rdf:about="">
        <dc:format
           id="format7">image/svg+xml</dc:format>
        <dc:type
           rdf:resource="http://purl.org/dc/dcmitype/StillImage"
           id="type9" />
      </cc:Work>
    </rdf:RDF>
  </metadata>
  <g
     inkscape:groupmode="layer"
     inkscape:label="Layer 1"
     id="layer1">
    <g
       transform="matrix(1.787709,0.000000,0.000000,1.782124,-0.223464,-1022.549)"
       id="g4219">
      <path
         transform="matrix(0.134237,0.000000,0.000000,0.134237,-2.257507,571.2252)"
         d="M 347.69102 185.68347 A 163.26007 163.26007 0 1 1  21.170883,185.68347 A 163.26007 163.26007 0 1 1  347.69102 185.68347 z"
         sodipodi:ry="163.26007"
         sodipodi:rx="163.26007"
         sodipodi:cy="185.68347"
         sodipodi:cx="184.43095"
         id="path3553"
         style="fill:#ffffff;fill-opacity:1.0000000;fill-rule:evenodd;stroke:none;stroke-width:1.2500000;stroke-linecap:butt;stroke-linejoin:round;stroke-miterlimit:4.0000000;stroke-opacity:1.0000000"
         sodipodi:type="arc" />
      <path
         id="path3554"
         d="M 22.500000,574.25000 C 10.402621,574.25000 0.59375003,584.05885 0.59375000,596.15625 C 0.59375000,608.25363 10.402621,618.06249 22.500000,618.06250 C 34.597379,618.06250 44.406250,608.25360 44.406250,596.15625 C 44.406250,584.05887 34.597380,574.25002 22.500000,574.25000 z M 12.000000,583.50000 L 33.156250,583.50000 C 34.227516,583.50000 35.093750,584.47829 35.093750,585.71875 L 35.093750,607.21875 C 35.093748,608.45919 34.227518,609.43750 33.156250,609.43750 L 12.000000,609.43750 C 10.928733,609.43750 10.093750,608.45921 10.093750,607.21875 L 10.093750,585.71875 C 10.093750,584.47831 10.928732,583.50000 12.000000,583.50000 z "
         style="fill:url(#radialGradient4224);fill-opacity:1.0000000;fill-rule:evenodd;stroke:url(#linearGradient4225);stroke-width:0.93750000;stroke-linecap:butt;stroke-linejoin:round;stroke-miterlimit:4.0000000;stroke-opacity:1.0000000" />
      <path
         transform="matrix(0.103856,0.000000,0.000000,7.422055e-2,3.306720,573.8711)"
         d="M 347.69102 185.68347 A 163.26007 163.26007 0 1 1  21.170883,185.68347 A 163.26007 163.26007 0 1 1  347.69102 185.68347 z"
         sodipodi:ry="163.26007"
         sodipodi:rx="163.26007"
         sodipodi:cy="185.68347"
         sodipodi:cx="184.43095"
         id="path3556"
         style="fill:url(#linearGradient4226);fill-opacity:1.0000000;fill-rule:evenodd;stroke:none;stroke-width:8.7072067;stroke-linecap:butt;stroke-linejoin:round;stroke-miterlimit:4.0000000;stroke-opacity:1.0000000"
         sodipodi:type="arc" />
      <path
         transform="matrix(0.120000,0.000000,0.000000,0.120000,-7.373303e-7,573.6508)"
         sodipodi:nodetypes="ccc"
         id="path3557"
         d="M 23.089429,214.36819 C 69.177869,408.49228 309.34778,402.92221 350.95835,213.09852 C 293.36390,372.40976 84.145428,372.09320 23.089429,214.36819 z "
         style="fill:url(#radialGradient4227);fill-opacity:1.0000000;fill-rule:evenodd;stroke:none;stroke-width:0.26240132pt;stroke-linecap:butt;stroke-linejoin:miter;stroke-opacity:1.0000000" />
    </g>
    <g
       transform="translate(-3.424533,8.409084)"
       id="g1346"
       inkscape:label="Layer 1"
       inkscape:groupmode="layer">
      <g
         id="g3338"
         transform="matrix(0.230652,0.000000,0.000000,0.221083,104.8244,27.44612)">
        <path
           style="fill:#000000;fill-opacity:0.043290023;fill-rule:evenodd;stroke:none;stroke-width:28.424999;stroke-linecap:butt;stroke-linejoin:round;stroke-miterlimit:4.0000000;stroke-opacity:1.0000000"
           d="M -240.44301,-68.316144 C -243.86112,-68.437500 -247.18046,-67.085045 -249.64814,-64.565534 C -252.11582,-62.046023 -253.52270,-58.572981 -253.54972,-54.934140 L -254.63730,106.45107 C -254.66290,110.87231 -252.65163,115.02652 -249.25347,117.57112 C -245.85534,120.11570 -241.50131,120.72794 -237.59857,119.20995 L -202.79604,105.62026 L -165.26064,194.27975 C -162.39536,201.06289 -154.91288,204.10154 -148.52866,201.07460 L -117.71393,186.44639 C -114.62153,184.97749 -112.20960,182.25380 -111.01533,178.88192 C -109.82107,175.51006 -109.94366,171.77005 -111.35579,168.49491 L -148.13826,83.128988 L -118.55053,70.132717 C -114.52764,68.363354 -111.63849,64.522605 -110.89718,59.958553 C -110.15587,55.394503 -111.66594,50.744795 -114.89739,47.641453 L -232.38377,-64.874209 C -234.60587,-66.994765 -237.45964,-68.213555 -240.44301,-68.316144 z "
           id="path3326"
           sodipodi:nodetypes="cccccccccccccccccc" />
        <path
           style="fill:#000000;fill-opacity:0.043290023;fill-rule:evenodd;stroke:none;stroke-width:28.424999;stroke-linecap:butt;stroke-linejoin:round;stroke-miterlimit:4.0000000;stroke-opacity:1.0000000"
           d="M -239.69867,-68.316081 C -243.29602,-68.438456 -246.78942,-67.074643 -249.38650,-64.533974 C -251.98358,-61.993304 -253.46424,-58.491096 -253.49268,-54.821696 L -254.63729,107.91881 C -254.66423,112.37718 -252.54749,116.56628 -248.97114,119.13225 C -245.39481,121.69820 -240.81246,122.31558 -236.70507,120.78484 L -200.07755,107.08102 L -160.57385,196.48507 C -157.55832,203.32517 -149.68346,206.38934 -142.96447,203.33698 L -110.53386,188.58592 C -107.27930,187.10469 -104.74089,184.35812 -103.48399,180.95793 C -102.22711,177.55775 -102.35612,173.78633 -103.84230,170.48369 L -142.55359,84.400872 L -111.41433,71.295460 C -107.18048,69.511238 -104.13983,65.638235 -103.35965,61.035854 C -102.57946,56.433476 -104.16872,51.744720 -107.56962,48.615317 L -231.21681,-64.845241 C -233.55544,-66.983605 -236.55886,-68.212630 -239.69867,-68.316081 z "
           id="path3324"
           sodipodi:nodetypes="cccccccccccccccccc" />
        <path
           style="fill:#000000;fill-opacity:0.043290023;fill-rule:evenodd;stroke:none;stroke-width:28.424999;stroke-linecap:butt;stroke-linejoin:round;stroke-miterlimit:4.0000000;stroke-opacity:1.0000000"
           d="M -239.17763,-68.315892 C -242.90045,-68.441324 -246.51569,-67.043438 -249.20335,-64.439293 C -251.89102,-61.835147 -253.42332,-58.245440 -253.45275,-54.484364 L -254.63728,112.32203 C -254.66516,116.89179 -252.47459,121.18555 -248.77351,123.81563 C -245.07244,126.44569 -240.33027,127.07849 -236.07962,125.50951 L -198.17461,111.46331 L -157.29309,203.10102 C -154.17239,210.11202 -146.02287,213.25274 -139.06953,210.12412 L -105.50781,195.00452 C -102.13974,193.48628 -99.512796,190.67109 -98.212058,187.18595 C -96.911332,183.70082 -97.044845,179.83518 -98.582864,176.45003 L -138.64432,88.216525 L -106.41899,74.783689 C -102.03747,72.954890 -98.890772,68.985124 -98.083380,64.267758 C -97.275977,59.550395 -98.920664,54.744495 -102.44018,51.536908 L -230.39994,-64.758337 C -232.82014,-66.950125 -235.92831,-68.209856 -239.17763,-68.315892 z "
           id="path3322"
           sodipodi:nodetypes="cccccccccccccccccc" />
        <path
           style="fill:#000000;fill-opacity:0.077922054;fill-rule:evenodd;stroke:none;stroke-width:28.424999;stroke-linecap:butt;stroke-linejoin:round;stroke-miterlimit:4.0000000;stroke-opacity:1.0000000"
           d="M -238.73102,-68.315744 C -242.56139,-68.443555 -246.28106,-67.019167 -249.04636,-64.365652 C -251.81167,-61.712136 -253.38825,-58.054374 -253.41852,-54.221994 L -254.63727,115.74676 C -254.66596,120.40315 -252.41210,124.77832 -248.60411,127.45825 C -244.79612,130.13818 -239.91695,130.78298 -235.54352,129.18426 L -196.54352,114.87176 L -154.48102,208.24676 C -151.27015,215.39068 -142.88521,218.59094 -135.73102,215.40301 L -101.19977,199.99676 C -97.734393,198.44974 -95.031563,195.58118 -93.693253,192.02998 C -92.354953,188.47877 -92.492323,184.53985 -94.074773,181.09051 L -135.29352,91.184256 L -102.13727,77.496756 C -97.629183,75.633286 -94.391583,71.588260 -93.560853,66.781462 C -92.730133,61.974665 -94.422333,57.077654 -98.043523,53.809256 L -229.69977,-64.690744 C -232.18988,-66.924085 -235.38785,-68.207698 -238.73102,-68.315744 z "
           id="path2558"
           sodipodi:nodetypes="cccccccccccccccccc" />
        <path
           d="M -241.66309,-58.084431 L -242.76576,107.59433 L -196.25894,89.190355 L -153.29571,191.98354 L -122.06466,176.97007 L -164.91406,76.222367 L -122.59258,57.413445 L -241.66309,-58.084431 z "
           style="fill:url(#linearGradient2546);fill-opacity:1.0000000;fill-rule:evenodd;stroke:#000000;stroke-width:12.246215pt;stroke-linecap:butt;stroke-linejoin:round;stroke-opacity:1.0000000"
           id="path4041"
           sodipodi:nodetypes="cccccccc" />
        <path
           style="fill:url(#linearGradient2543);fill-opacity:1.0000000;fill-rule:evenodd;stroke:none;stroke-width:12.019479pt;stroke-linecap:butt;stroke-linejoin:round;stroke-opacity:1.0000000"
           d="M -242.09167,-56.572017 C -244.06020,-55.969913 -243.33928,-51.783768 -243.42392,-50.574436 L -244.57843,106.76204 C -232.57792,94.476986 -190.75933,112.21309 -208.57692,69.906898 C -241.68022,-20.399695 -143.86250,26.863280 -189.91859,-12.415651 L -234.27306,-54.421089 C -236.85111,-56.634472 -239.21729,-59.170144 -242.09167,-56.572017 z "
           id="path4083"
           sodipodi:nodetypes="ccccccc" />
        <path
           style="fill:url(#radialGradient2540);fill-opacity:1.0000000;fill-rule:evenodd;stroke:none;stroke-width:12.019479pt;stroke-linecap:butt;stroke-linejoin:round;stroke-opacity:1.0000000"
           d="M -231.15568,104.21768 L -196.26907,89.193189 L -153.28120,191.99565 L -122.05471,176.96967 L -164.90106,76.234144 L -121.86062,58.665340 C -161.28054,43.574062 -227.81908,82.437212 -231.15568,104.21768 z "
           id="path4096"
           sodipodi:nodetypes="ccccccc" />
      </g>
    </g>
  </g>
</svg>
