<?xml version="1.0" encoding="UTF-8" standalone="no"?>
<!-- Created with Inkscape (http://www.inkscape.org/) -->
<svg
   xmlns:dc="http://purl.org/dc/elements/1.1/"
   xmlns:cc="http://web.resource.org/cc/"
   xmlns:rdf="http://www.w3.org/1999/02/22-rdf-syntax-ns#"
   xmlns:svg="http://www.w3.org/2000/svg"
   xmlns="http://www.w3.org/2000/svg"
   xmlns:xlink="http://www.w3.org/1999/xlink"
   xmlns:sodipodi="http://inkscape.sourceforge.net/DTD/sodipodi-0.dtd"
   xmlns:inkscape="http://www.inkscape.org/namespaces/inkscape"
   width="48px"
   height="48px"
   id="svg1291"
   sodipodi:version="0.32"
   inkscape:version="0.41"
   sodipodi:docbase="/home/pinheiro/kdeplayground-artwork/oooicons/crystalsvg"
   sodipodi:docname="unchainframes.svg"
   inkscape:export-filename="/home/diau/graphics/kde/icons/OOo-crystal/unchainframes.png"
   inkscape:export-xdpi="45.000000"
   inkscape:export-ydpi="45.000000">
  <defs
     id="defs3">
    <linearGradient
       id="linearGradient3641">
      <stop
         style="stop-color:#ffffff;stop-opacity:1.0000000;"
         offset="0.0000000"
         id="stop3643" />
      <stop
         style="stop-color:#ffffff;stop-opacity:0.072164945;"
         offset="1.0000000"
         id="stop3645" />
    </linearGradient>
    <radialGradient
       id="radialGradient3641">
      <stop
         style="stop-color:#ffffff;stop-opacity:1.0000000;"
         offset="0.0000000"
         id="stop8" />
      <stop
         style="stop-color:#ffffff;stop-opacity:0.072164945;"
         offset="1.0000000"
         id="stop10" />
    </radialGradient>
    <radialGradient
       id="linearGradient3613">
      <stop
         style="stop-color:#c8c8c8;stop-opacity:1.0000000;"
         offset="0.0000000"
         id="stop3615" />
      <stop
         style="stop-color:#626262;stop-opacity:1.0000000;"
         offset="1.0000000"
         id="stop3617" />
    </radialGradient>
    <radialGradient
       inkscape:collect="always"
       xlink:href="#linearGradient3613"
       id="radialGradient3619"
       cx="9.3571424"
       cy="23.357143"
       fx="9.3571424"
       fy="23.357143"
       r="9.8582861"
       gradientUnits="userSpaceOnUse" />
    <radialGradient
       inkscape:collect="always"
       xlink:href="#linearGradient3613"
       id="radialGradient3629"
       cx="13.470160"
       cy="32.226585"
       fx="13.470160"
       fy="32.226585"
       r="14.172999"
       gradientUnits="userSpaceOnUse" />
    <linearGradient
       inkscape:collect="always"
       xlink:href="#linearGradient3641"
       id="linearGradient3647"
       gradientTransform="scale(1.439959,0.694464)"
       x1="9.2075529"
       y1="19.249493"
       x2="8.5343924"
       y2="30.216129"
       gradientUnits="userSpaceOnUse" />
    <radialGradient
       inkscape:collect="always"
       xlink:href="#linearGradient3641"
       id="radialGradient3657"
       gradientTransform="scale(1.383909,0.722591)"
       cx="9.8835640"
       cy="42.894573"
       fx="9.8835640"
       fy="42.894573"
       r="5.0179625"
       gradientUnits="userSpaceOnUse" />
    <radialGradient
       inkscape:collect="always"
       xlink:href="#linearGradient3613"
       id="radialGradient3705"
       gradientUnits="userSpaceOnUse"
       cx="13.470160"
       cy="32.226585"
       fx="13.470160"
       fy="32.226585"
       r="14.172999" />
    <radialGradient
       inkscape:collect="always"
       xlink:href="#linearGradient3641"
       id="radialGradient3707"
       gradientUnits="userSpaceOnUse"
       gradientTransform="scale(1.383909,0.722591)"
       cx="9.8835640"
       cy="42.894573"
       fx="9.8835640"
       fy="42.894573"
       r="5.0179625" />
    <linearGradient
       inkscape:collect="always"
       xlink:href="#linearGradient3641"
       id="linearGradient3709"
       gradientUnits="userSpaceOnUse"
       gradientTransform="scale(1.439959,0.694464)"
       x1="9.2075529"
       y1="19.249493"
       x2="8.5343924"
       y2="30.216129" />
    <radialGradient
       inkscape:collect="always"
       xlink:href="#linearGradient3613"
       id="radialGradient3736"
       gradientUnits="userSpaceOnUse"
       cx="13.470160"
       cy="32.226585"
       fx="13.470160"
       fy="32.226585"
       r="14.172999" />
    <radialGradient
       inkscape:collect="always"
       xlink:href="#linearGradient3641"
       id="radialGradient3738"
       gradientUnits="userSpaceOnUse"
       gradientTransform="scale(1.383909,0.722591)"
       cx="9.8835640"
       cy="42.894573"
       fx="9.8835640"
       fy="42.894573"
       r="5.0179625" />
    <linearGradient
       inkscape:collect="always"
       xlink:href="#linearGradient3641"
       id="linearGradient3740"
       gradientUnits="userSpaceOnUse"
       gradientTransform="scale(1.439959,0.694464)"
       x1="9.2075529"
       y1="19.249493"
       x2="8.5343924"
       y2="30.216129" />
    <linearGradient
       inkscape:collect="always"
       xlink:href="#linearGradient3641"
       id="linearGradient3744"
       gradientUnits="userSpaceOnUse"
       gradientTransform="matrix(1.439959,0.000000,0.000000,0.694464,13.28125,26.12500)"
       x1="9.2075529"
       y1="19.249493"
       x2="8.5343924"
       y2="30.216129" />
    <radialGradient
       inkscape:collect="always"
       xlink:href="#linearGradient3641"
       id="radialGradient3747"
       gradientUnits="userSpaceOnUse"
       gradientTransform="matrix(1.383909,0.000000,0.000000,0.722591,13.28125,26.12500)"
       cx="9.8835640"
       cy="42.894573"
       fx="9.8835640"
       fy="42.894573"
       r="5.0179625" />
    <radialGradient
       inkscape:collect="always"
       xlink:href="#linearGradient3613"
       id="radialGradient3750"
       gradientUnits="userSpaceOnUse"
       cx="13.470160"
       cy="32.226585"
       fx="13.470160"
       fy="32.226585"
       r="14.172999"
       gradientTransform="translate(13.28125,26.12500)" />
    <linearGradient
       inkscape:collect="always"
       xlink:href="#linearGradient3641"
       id="linearGradient3762"
       gradientUnits="userSpaceOnUse"
       gradientTransform="matrix(1.439959,0.000000,1.129409e-18,0.694464,22.28125,-7.494005e-16)"
       x1="9.2075529"
       y1="19.249493"
       x2="8.5343924"
       y2="30.216129" />
    <radialGradient
       inkscape:collect="always"
       xlink:href="#radialGradient3641"
       id="radialGradient3765"
       gradientUnits="userSpaceOnUse"
       gradientTransform="matrix(1.383909,0.000000,1.175152e-18,0.722591,22.28125,-7.494005e-16)"
       cx="9.8835640"
       cy="42.894573"
       fx="9.8835640"
       fy="42.894573"
       r="5.0179625" />
    <radialGradient
       inkscape:collect="always"
       xlink:href="#linearGradient3613"
       id="radialGradient3768"
       gradientUnits="userSpaceOnUse"
       cx="13.470160"
       cy="32.226585"
       fx="13.470160"
       fy="32.226585"
       r="14.172999"
       gradientTransform="translate(22.28125,-7.494005e-16)" />
    <radialGradient
       inkscape:collect="always"
       xlink:href="#linearGradient3613"
       id="radialGradient3777"
       gradientUnits="userSpaceOnUse"
       gradientTransform="matrix(1.014326,0.000000,1.626303e-18,1.000000,22.06644,0.125000)"
       cx="13.470160"
       cy="32.226585"
       fx="13.470160"
       fy="32.226585"
       r="14.172999" />
    <radialGradient
       inkscape:collect="always"
       xlink:href="#linearGradient3613"
       id="radialGradient3792"
       gradientUnits="userSpaceOnUse"
       gradientTransform="matrix(1.014326,0.000000,1.626303e-18,1.000000,22.06644,0.125000)"
       cx="13.470160"
       cy="32.226585"
       fx="13.470160"
       fy="32.226585"
       r="14.172999" />
    <radialGradient
       inkscape:collect="always"
       xlink:href="#radialGradient3641"
       id="radialGradient3794"
       gradientUnits="userSpaceOnUse"
       gradientTransform="matrix(1.383909,0.000000,1.175152e-18,0.722591,22.28125,-1.838807e-16)"
       cx="9.8835640"
       cy="42.894573"
       fx="9.8835640"
       fy="42.894573"
       r="5.0179625" />
    <linearGradient
       inkscape:collect="always"
       xlink:href="#linearGradient3641"
       id="linearGradient3798"
       gradientUnits="userSpaceOnUse"
       gradientTransform="scale(1.439959,0.694464)"
       x1="9.2075529"
       y1="19.249493"
       x2="8.5343924"
       y2="30.216129" />
    <radialGradient
       inkscape:collect="always"
       xlink:href="#linearGradient3641"
       id="radialGradient3801"
       gradientUnits="userSpaceOnUse"
       gradientTransform="scale(1.383909,0.722591)"
       cx="9.8835640"
       cy="42.894573"
       fx="9.8835640"
       fy="42.894573"
       r="5.0179625" />
    <radialGradient
       inkscape:collect="always"
       xlink:href="#linearGradient3613"
       id="radialGradient3804"
       gradientUnits="userSpaceOnUse"
       cx="13.470160"
       cy="32.226585"
       fx="13.470160"
       fy="32.226585"
       r="14.172999" />
    <radialGradient
       r="14.172999"
       fy="32.226585"
       fx="13.470160"
       cy="32.226585"
       cx="13.470160"
       gradientTransform="matrix(1.014326,0.000000,-1.626303e-18,1.000000,22.06644,0.125000)"
       gradientUnits="userSpaceOnUse"
       id="radialGradient1384"
       xlink:href="#linearGradient3613"
       inkscape:collect="always" />
    <radialGradient
       r="14.172999"
       fy="32.226585"
       fx="13.470160"
       cy="32.226585"
       cx="13.470160"
       gradientTransform="matrix(1.014326,0.000000,1.626303e-18,1.000000,22.06644,0.125000)"
       gradientUnits="userSpaceOnUse"
       id="radialGradient1396"
       xlink:href="#linearGradient3613"
       inkscape:collect="always" />
    <linearGradient
       gradientUnits="userSpaceOnUse"
       y2="41.874531"
       x2="22.278831"
       y1="42.102898"
       x1="30.541872"
       gradientTransform="scale(1.493851,0.669411)"
       id="linearGradient2160"
       xlink:href="#linearGradient3641"
       inkscape:collect="always" />
    <linearGradient
       gradientUnits="userSpaceOnUse"
       y2="46.834560"
       x2="22.190838"
       y1="46.145699"
       x1="30.499256"
       gradientTransform="scale(1.485692,0.673087)"
       id="linearGradient2162"
       xlink:href="#linearGradient3641"
       inkscape:collect="always" />
    <linearGradient
       gradientUnits="userSpaceOnUse"
       y2="19.749144"
       x2="24.459166"
       y1="12.665143"
       x1="24.770353"
       id="linearGradient2266"
       xlink:href="#linearGradient3641"
       inkscape:collect="always" />
    <linearGradient
       y2="19.749144"
       x2="24.459166"
       y1="12.665143"
       x1="24.770353"
       gradientUnits="userSpaceOnUse"
       id="linearGradient2272"
       xlink:href="#linearGradient3641"
       inkscape:collect="always" />
  </defs>
  <sodipodi:namedview
     id="base"
     pagecolor="#ffffff"
     bordercolor="#666666"
     borderopacity="1.0"
     inkscape:pageopacity="0.0"
     inkscape:pageshadow="2"
     inkscape:zoom="7.0000000"
     inkscape:cx="42.538751"
     inkscape:cy="24.935503"
     inkscape:current-layer="layer1"
     showgrid="true"
     inkscape:grid-bbox="true"
     inkscape:document-units="px"
     inkscape:window-width="1024"
     inkscape:window-height="724"
     inkscape:window-x="0"
     inkscape:window-y="25" />
  <metadata
     id="metadata4">
    <rdf:RDF
       id="RDF5">
      <cc:Work
         rdf:about=""
         id="Work6">
        <dc:format
           id="format7">image/svg+xml</dc:format>
        <dc:type
           id="type9"
           rdf:resource="http://purl.org/dc/dcmitype/StillImage" />
      </cc:Work>
    </rdf:RDF>
  </metadata>
  <g
     id="layer1"
     inkscape:label="Layer 1"
     inkscape:groupmode="layer">
    <g
       id="g2288"
       transform="matrix(0.707107,-0.707107,0.707107,0.707107,-13.48613,28.77883)">
      <g
         id="g3806">
        <path
           style="fill:url(#radialGradient3804);fill-opacity:1.0000000;stroke:none;stroke-width:4.1451440;stroke-linecap:round;stroke-linejoin:round;stroke-miterlimit:4.0000000;stroke-opacity:1.0000000"
           d="M 13.115200,12.342747 C 6.9968559,12.342747 2.0012910,17.338312 2.0012910,23.456656 C 2.0012910,29.575000 6.9968552,34.605848 13.115200,34.605847 C 19.233544,34.605847 24.264391,29.575000 24.264391,23.456656 C 24.264391,17.338312 19.233544,12.342747 13.115200,12.342747 z M 13.115200,17.035286 C 16.701370,17.035286 19.571852,19.870485 19.571852,23.456656 C 19.571852,27.042826 16.701370,29.913308 13.115200,29.913308 C 9.5290306,29.913309 6.6938303,27.042826 6.6938303,23.456656 C 6.6938303,19.870485 9.5290299,17.035286 13.115200,17.035286 z "
           id="path1301" />
        <path
           style="fill:url(#linearGradient3798);fill-opacity:1.0000000;stroke:none;stroke-width:2.5508578;stroke-linecap:round;stroke-linejoin:round;stroke-miterlimit:4.0000000;stroke-opacity:1.0000000"
           d="M 13.125000,13.218750 C 7.6584939,13.218750 3.2272862,17.595066 2.9687500,23.000000 L 5.8750000,23.000000 C 6.1266413,19.160156 9.2180335,16.125000 13.125000,16.125000 C 17.032316,16.124999 20.152465,19.159661 20.406250,23.000000 L 23.250000,23.000000 C 22.991464,17.595066 18.591506,13.218750 13.125000,13.218750 z "
           id="path3633" />
        <path
           style="fill:#000000;fill-opacity:1.0000000;stroke:none;stroke-width:0.55000001;stroke-linecap:round;stroke-linejoin:round;stroke-miterlimit:4.0000000;stroke-opacity:1.0000000"
           d="M 13.125000,12.062500 C 6.8569661,12.062500 1.7187500,17.200716 1.7187500,23.468750 C 1.7187500,29.736784 6.8559082,34.875001 13.125000,34.875000 C 19.394091,34.875001 24.531250,29.737841 24.531250,23.468750 C 24.531250,17.199659 19.393034,12.062500 13.125000,12.062500 z M 13.125000,12.625000 C 19.093654,12.625000 24.000000,17.501154 24.000000,23.468750 C 24.000000,29.436347 19.092597,34.343751 13.125000,34.343750 C 7.1574022,34.343751 2.2812500,29.437405 2.2812500,23.468750 C 2.2812500,17.500096 7.1563456,12.625000 13.125000,12.625000 z M 13.125000,16.750000 C 9.3938879,16.750000 6.4062498,19.737638 6.4062500,23.468750 C 6.4062500,27.199862 9.3920847,30.187502 13.125000,30.187500 C 16.857916,30.187500 19.843750,27.201666 19.843750,23.468750 C 19.843750,19.735833 16.856112,16.750000 13.125000,16.750000 z M 13.125000,17.312500 C 16.566228,17.312500 19.281250,20.029325 19.281250,23.468750 C 19.281250,26.908175 16.564424,29.625000 13.125000,29.625000 C 9.6855765,29.625002 6.9687500,26.909978 6.9687500,23.468750 C 6.9687498,20.027521 9.6837719,17.312500 13.125000,17.312500 z "
           id="path3659" />
      </g>
      <g
         transform="matrix(0.000000,-1.000000,-1.000000,0.000000,47.57067,58.85993)"
         id="g1388">
        <path
           style="fill:url(#radialGradient1396);fill-opacity:1.0000000;stroke:none;stroke-width:4.1451440;stroke-linecap:round;stroke-linejoin:round;stroke-miterlimit:4.0000000;stroke-opacity:1.0000000"
           d="M 24.285279,24.468750 C 24.764648,30.161431 29.488967,34.718751 35.379464,34.718750 C 41.269961,34.718751 45.991001,30.161432 46.473650,24.468750 L 41.718999,24.468750 C 41.268247,27.610564 38.697848,30.031250 35.379464,30.031250 C 32.061081,30.031252 29.485455,27.610565 29.039930,24.468750 L 24.285279,24.468750 z "
           id="path1390" />
        <path
           style="fill:#000000;fill-opacity:1.0000000;stroke:none;stroke-width:0.55000001;stroke-linecap:round;stroke-linejoin:round;stroke-miterlimit:4.0000000;stroke-opacity:1.0000000"
           d="M 24.000000,24.468750 C 24.479903,30.311793 29.334649,35.000001 35.379464,35.000000 C 41.424278,35.000001 46.279026,30.312607 46.758929,24.468750 L 46.220068,24.468750 C 45.739970,30.012280 41.118257,34.468751 35.379464,34.468750 C 29.641103,34.468751 25.048305,30.012493 24.570558,24.468750 L 24.000000,24.468750 z M 28.754651,24.468750 C 29.203808,27.760042 31.909336,30.312502 35.379464,30.312500 C 38.849594,30.312500 41.555120,27.761178 42.004278,24.468750 L 41.465417,24.468750 C 41.026281,27.462446 38.551972,29.750000 35.379464,29.750000 C 32.206956,29.750002 29.732647,27.463532 29.293511,24.468750 L 28.754651,24.468750 z "
           id="path1392" />
        <path
           sodipodi:nodetypes="ccccccccc"
           style="fill:url(#linearGradient2160);fill-opacity:1.0000000;stroke:none;stroke-width:2.5508578;stroke-linecap:round;stroke-linejoin:round;stroke-miterlimit:4.0000000;stroke-opacity:1.0000000"
           d="M 25.250000,24.515229 C 25.242202,24.678253 25.156250,24.819098 25.156250,24.983979 C 25.257265,29.251660 29.774862,33.687501 35.406250,33.687500 C 41.037637,33.687501 45.625000,28.948614 45.726015,24.983979 L 42.882265,24.983979 C 42.831758,27.895429 39.479376,30.843750 35.406250,30.843750 C 31.333124,30.843750 28.062500,28.248983 28.062500,24.983979 C 28.062500,24.817819 28.145548,24.678535 28.156250,24.515229 L 25.250000,24.515229 z "
           id="path1394" />
      </g>
      <g
         id="g3784"
         transform="translate(-22.25255,-1.563194e-13)">
        <path
           style="fill:url(#radialGradient3792);fill-opacity:1.0000000;stroke:none;stroke-width:4.1451440;stroke-linecap:round;stroke-linejoin:round;stroke-miterlimit:4.0000000;stroke-opacity:1.0000000"
           d="M 24.285279,24.468750 C 24.764648,30.161431 29.488967,34.718751 35.379464,34.718750 C 41.269961,34.718751 45.991001,30.161432 46.473650,24.468750 L 41.718999,24.468750 C 41.268247,27.610564 38.697848,30.031250 35.379464,30.031250 C 32.061081,30.031252 29.485455,27.610565 29.039930,24.468750 L 24.285279,24.468750 z "
           id="path3786" />
        <path
           style="fill:#000000;fill-opacity:1.0000000;stroke:none;stroke-width:0.55000001;stroke-linecap:round;stroke-linejoin:round;stroke-miterlimit:4.0000000;stroke-opacity:1.0000000"
           d="M 24.000000,24.468750 C 24.479903,30.311793 29.334649,35.000001 35.379464,35.000000 C 41.424278,35.000001 46.279026,30.312607 46.758929,24.468750 L 46.220068,24.468750 C 45.739970,30.012280 41.118257,34.468751 35.379464,34.468750 C 29.641103,34.468751 25.048305,30.012493 24.570558,24.468750 L 24.000000,24.468750 z M 28.754651,24.468750 C 29.203808,27.760042 31.909336,30.312502 35.379464,30.312500 C 38.849594,30.312500 41.555120,27.761178 42.004278,24.468750 L 41.465417,24.468750 C 41.026281,27.462446 38.551972,29.750000 35.379464,29.750000 C 32.206956,29.750002 29.732647,27.463532 29.293511,24.468750 L 28.754651,24.468750 z "
           id="path3788" />
        <path
           style="fill:url(#radialGradient3794);fill-opacity:1.0000000;stroke:none;stroke-width:2.5508578;stroke-linecap:round;stroke-linejoin:round;stroke-miterlimit:4.0000000;stroke-opacity:1.0000000"
           d="M 25.250000,23.000000 C 25.242202,23.163024 25.156250,23.303869 25.156250,23.468750 C 25.156250,29.100137 29.774862,33.687501 35.406250,33.687500 C 41.037637,33.687501 45.625000,29.100137 45.625000,23.468750 C 45.625000,23.303869 45.539048,23.163024 45.531250,23.000000 L 42.687500,23.000000 C 42.698270,23.162967 42.781250,23.302940 42.781250,23.468750 C 42.781251,27.541876 39.479376,30.843750 35.406250,30.843750 C 31.333124,30.843750 28.062500,27.541876 28.062500,23.468750 C 28.062500,23.302590 28.145548,23.163306 28.156250,23.000000 L 25.250000,23.000000 z "
           id="path3790" />
      </g>
    </g>
    <g
       id="g2274"
       transform="matrix(0.707107,-0.707107,0.707107,0.707107,-6.143544,20.95331)">
      <g
         id="g3770">
        <path
           style="fill:url(#radialGradient3768);fill-opacity:1.0000000;stroke:none;stroke-width:4.1451440;stroke-linecap:round;stroke-linejoin:round;stroke-miterlimit:4.0000000;stroke-opacity:1.0000000"
           d="M 35.396450,12.342747 C 29.278106,12.342747 24.282541,17.338312 24.282541,23.456656 C 24.282541,29.575000 29.278105,34.605848 35.396450,34.605847 C 41.514794,34.605847 46.545641,29.575000 46.545641,23.456656 C 46.545641,17.338312 41.514794,12.342747 35.396450,12.342747 z M 35.396450,17.035286 C 38.982620,17.035286 41.853102,19.870485 41.853102,23.456656 C 41.853102,27.042826 38.982620,29.913308 35.396450,29.913308 C 31.810281,29.913309 28.975080,27.042826 28.975080,23.456656 C 28.975080,19.870485 31.810280,17.035286 35.396450,17.035286 z "
           id="path3697" />
        <path
           style="fill:url(#linearGradient3762);fill-opacity:1.0000000;stroke:none;stroke-width:2.5508578;stroke-linecap:round;stroke-linejoin:round;stroke-miterlimit:4.0000000;stroke-opacity:1.0000000"
           d="M 35.406250,13.218750 C 29.939744,13.218750 25.508536,17.595066 25.250000,23.000000 L 28.156250,23.000000 C 28.407891,19.160156 31.499284,16.125000 35.406250,16.125000 C 39.313566,16.124999 42.433715,19.159661 42.687500,23.000000 L 45.531250,23.000000 C 45.272714,17.595066 40.872756,13.218750 35.406250,13.218750 z "
           id="path3701" />
        <path
           style="fill:#000000;fill-opacity:1.0000000;stroke:none;stroke-width:0.55000001;stroke-linecap:round;stroke-linejoin:round;stroke-miterlimit:4.0000000;stroke-opacity:1.0000000"
           d="M 35.406250,12.062500 C 29.138216,12.062500 24.000000,17.200716 24.000000,23.468750 C 24.000000,29.736784 29.137158,34.875001 35.406250,34.875000 C 41.675341,34.875001 46.812500,29.737841 46.812500,23.468750 C 46.812500,17.199659 41.674284,12.062500 35.406250,12.062500 z M 35.406250,12.625000 C 41.374904,12.625000 46.281250,17.501154 46.281250,23.468750 C 46.281250,29.436347 41.373847,34.343751 35.406250,34.343750 C 29.438652,34.343751 24.562500,29.437405 24.562500,23.468750 C 24.562500,17.500096 29.437596,12.625000 35.406250,12.625000 z M 35.406250,16.750000 C 31.675138,16.750000 28.687500,19.737638 28.687500,23.468750 C 28.687500,27.199862 31.673335,30.187502 35.406250,30.187500 C 39.139166,30.187500 42.125000,27.201666 42.125000,23.468750 C 42.125000,19.735833 39.137362,16.750000 35.406250,16.750000 z M 35.406250,17.312500 C 38.847478,17.312500 41.562500,20.029325 41.562500,23.468750 C 41.562500,26.908175 38.845674,29.625000 35.406250,29.625000 C 31.966826,29.625002 29.250000,26.909978 29.250000,23.468750 C 29.250000,20.027521 31.965022,17.312500 35.406250,17.312500 z "
           id="path3703" />
      </g>
      <g
         transform="matrix(0.000000,-1.000000,1.000000,0.000000,0.414222,58.84850)"
         id="g1372">
        <path
           style="fill:url(#radialGradient1384);fill-opacity:1.0000000;stroke:none;stroke-width:4.1451440;stroke-linecap:round;stroke-linejoin:round;stroke-miterlimit:4.0000000;stroke-opacity:1.0000000"
           d="M 24.285279,24.468750 C 24.764648,30.161431 29.488967,34.718751 35.379464,34.718750 C 41.269961,34.718751 45.991001,30.161432 46.473650,24.468750 L 41.718999,24.468750 C 41.268247,27.610564 38.697848,30.031250 35.379464,30.031250 C 32.061081,30.031252 29.485455,27.610565 29.039930,24.468750 L 24.285279,24.468750 z "
           id="path1374" />
        <path
           style="fill:#000000;fill-opacity:1.0000000;stroke:none;stroke-width:0.55000001;stroke-linecap:round;stroke-linejoin:round;stroke-miterlimit:4.0000000;stroke-opacity:1.0000000"
           d="M 24.000000,24.468750 C 24.479903,30.311793 29.334649,35.000001 35.379464,35.000000 C 41.424278,35.000001 46.279026,30.312607 46.758929,24.468750 L 46.220068,24.468750 C 45.739970,30.012280 41.118257,34.468751 35.379464,34.468750 C 29.641103,34.468751 25.048305,30.012493 24.570558,24.468750 L 24.000000,24.468750 z M 28.754651,24.468750 C 29.203808,27.760042 31.909336,30.312502 35.379464,30.312500 C 38.849594,30.312500 41.555120,27.761178 42.004278,24.468750 L 41.465417,24.468750 C 41.026281,27.462446 38.551972,29.750000 35.379464,29.750000 C 32.206956,29.750002 29.732647,27.463532 29.293511,24.468750 L 28.754651,24.468750 z "
           id="path1376" />
        <path
           sodipodi:nodetypes="ccccccccc"
           style="fill:url(#linearGradient2162);fill-opacity:1.0000000;stroke:none;stroke-width:2.5508578;stroke-linecap:round;stroke-linejoin:round;stroke-miterlimit:4.0000000;stroke-opacity:1.0000000"
           d="M 25.250000,24.414214 C 25.242202,24.577238 25.156250,24.718083 25.156250,24.882964 C 25.156250,28.797091 29.774862,33.687501 35.406250,33.687500 C 41.037637,33.687501 45.372462,29.377929 45.625000,25.009233 L 42.781250,25.009233 C 42.781251,27.718653 39.479376,30.843750 35.406250,30.843750 C 31.333124,30.843750 28.062500,28.956090 28.062500,24.882964 C 28.062500,24.716804 28.145548,24.577520 28.156250,24.414214 L 25.250000,24.414214 z "
           id="path1378" />
      </g>
      <g
         id="g3779">
        <path
           style="fill:url(#radialGradient3777);fill-opacity:1.0000000;stroke:none;stroke-width:4.1451440;stroke-linecap:round;stroke-linejoin:round;stroke-miterlimit:4.0000000;stroke-opacity:1.0000000"
           d="M 24.285279,24.468750 C 24.764648,30.161431 29.488967,34.718751 35.379464,34.718750 C 41.269961,34.718751 45.991001,30.161432 46.473650,24.468750 L 41.718999,24.468750 C 41.268247,27.610564 38.697848,30.031250 35.379464,30.031250 C 32.061081,30.031252 29.485455,27.610565 29.039930,24.468750 L 24.285279,24.468750 z "
           id="path3728" />
        <path
           style="fill:#000000;fill-opacity:1.0000000;stroke:none;stroke-width:0.55000001;stroke-linecap:round;stroke-linejoin:round;stroke-miterlimit:4.0000000;stroke-opacity:1.0000000"
           d="M 24.000000,24.468750 C 24.479903,30.311793 29.334649,35.000001 35.379464,35.000000 C 41.424278,35.000001 46.279026,30.312607 46.758929,24.468750 L 46.220068,24.468750 C 45.739970,30.012280 41.118257,34.468751 35.379464,34.468750 C 29.641103,34.468751 25.048305,30.012493 24.570558,24.468750 L 24.000000,24.468750 z M 28.754651,24.468750 C 29.203808,27.760042 31.909336,30.312502 35.379464,30.312500 C 38.849594,30.312500 41.555120,27.761178 42.004278,24.468750 L 41.465417,24.468750 C 41.026281,27.462446 38.551972,29.750000 35.379464,29.750000 C 32.206956,29.750002 29.732647,27.463532 29.293511,24.468750 L 28.754651,24.468750 z "
           id="path3734" />
        <path
           style="fill:url(#radialGradient3765);fill-opacity:1.0000000;stroke:none;stroke-width:2.5508578;stroke-linecap:round;stroke-linejoin:round;stroke-miterlimit:4.0000000;stroke-opacity:1.0000000"
           d="M 25.250000,23.000000 C 25.242202,23.163024 25.156250,23.303869 25.156250,23.468750 C 25.156250,29.100137 29.774862,33.687501 35.406250,33.687500 C 41.037637,33.687501 45.625000,29.100137 45.625000,23.468750 C 45.625000,23.303869 45.539048,23.163024 45.531250,23.000000 L 42.687500,23.000000 C 42.698270,23.162967 42.781250,23.302940 42.781250,23.468750 C 42.781251,27.541876 39.479376,30.843750 35.406250,30.843750 C 31.333124,30.843750 28.062500,27.541876 28.062500,23.468750 C 28.062500,23.302590 28.145548,23.163306 28.156250,23.000000 L 25.250000,23.000000 z "
           id="path3699" />
      </g>
    </g>
  </g>
</svg>
