<?xml version="1.0" encoding="UTF-8" standalone="no"?>
<!-- Created with Inkscape (http://www.inkscape.org/) -->
<svg
   xmlns:dc="http://purl.org/dc/elements/1.1/"
   xmlns:cc="http://web.resource.org/cc/"
   xmlns:rdf="http://www.w3.org/1999/02/22-rdf-syntax-ns#"
   xmlns:svg="http://www.w3.org/2000/svg"
   xmlns="http://www.w3.org/2000/svg"
   xmlns:xlink="http://www.w3.org/1999/xlink"
   xmlns:sodipodi="http://inkscape.sourceforge.net/DTD/sodipodi-0.dtd"
   xmlns:inkscape="http://www.inkscape.org/namespaces/inkscape"
   width="64pt"
   height="64pt"
   id="svg16513"
   sodipodi:version="0.32"
   inkscape:version="0.41"
   sodipodi:docbase="/home/nuno/kdeplayground-artwork/oooicons/crystalsvg"
   sodipodi:docname="zoom_1-1.svg"
   inkscape:export-filename="/home/nuno/kdeplayground-artwork/oooicons/crystalsvg/zoom_window.png"
   inkscape:export-xdpi="36.000000"
   inkscape:export-ydpi="36.000000">
  <defs
     id="defs3">
    <radialGradient
       inkscape:collect="always"
       xlink:href="#light100to0"
       id="radialGradient16512"
       gradientUnits="userSpaceOnUse"
       gradientTransform="scale(1.091687,0.916013)"
       cx="188.63550"
       cy="268.59674"
       fx="188.63550"
       fy="268.59674"
       r="9.7014513" />
    <radialGradient
       inkscape:collect="always"
       xlink:href="#light100to0"
       id="radialGradient16511"
       gradientUnits="userSpaceOnUse"
       gradientTransform="scale(1.091687,0.916013)"
       cx="214.42342"
       cy="290.09976"
       fx="214.42342"
       fy="290.09976"
       r="12.433510" />
    <radialGradient
       inkscape:collect="always"
       xlink:href="#light100to0"
       id="radialGradient16510"
       gradientUnits="userSpaceOnUse"
       gradientTransform="matrix(1.000044,-1.392751e-16,2.663872e-16,0.999956,2.867499,4.411538)"
       cx="119.82000"
       cy="189.74400"
       fx="119.82000"
       fy="189.74400"
       r="19.273544" />
    <linearGradient
       id="light100to0">
      <stop
         style="stop-color:#ffffff;stop-opacity:1.0000000;"
         offset="0.0000000"
         id="stop2764" />
      <stop
         style="stop-color:#ffffff;stop-opacity:0.0000000;"
         offset="1.0000000"
         id="stop2765" />
    </linearGradient>
    <radialGradient
       inkscape:collect="always"
       xlink:href="#light100to0"
       id="radialGradient16509"
       gradientUnits="userSpaceOnUse"
       gradientTransform="matrix(1.000008,-1.392702e-16,2.663964e-16,0.999992,2.867499,4.411538)"
       cx="138.89362"
       cy="213.82373"
       fx="138.89362"
       fy="213.82373"
       r="39.210377" />
    <linearGradient
       inkscape:collect="always"
       xlink:href="#bludraktowhite"
       id="linearGradient16508"
       gradientUnits="userSpaceOnUse"
       gradientTransform="translate(105.3574,127.9028)"
       x1="46.857899"
       y1="16.026899"
       x2="74.079002"
       y2="96.393501" />
    <linearGradient
       inkscape:collect="always"
       xlink:href="#bludraktowhite"
       id="linearGradient16507"
       gradientUnits="userSpaceOnUse"
       gradientTransform="translate(130.5820,-13.89784)"
       x1="35.909039"
       y1="162.89215"
       x2="-20.139322"
       y2="328.53357" />
    <linearGradient
       inkscape:collect="always"
       xlink:href="#bludraktowhite"
       id="linearGradient16506"
       gradientUnits="userSpaceOnUse"
       gradientTransform="matrix(0.694498,0.721211,-0.684455,0.729107,202.5721,-11.25625)"
       spreadMethod="reflect"
       x1="73.415047"
       y1="231.74817"
       x2="82.103157"
       y2="224.47372" />
    <linearGradient
       inkscape:collect="always"
       xlink:href="#bludraktowhite"
       id="linearGradient16505"
       gradientUnits="userSpaceOnUse"
       gradientTransform="matrix(-7.139059e-3,-1.025530,0.975067,-5.544949e-3,202.5721,-11.25625)"
       spreadMethod="reflect"
       x1="-216.41075"
       y1="-112.04543"
       x2="-218.18871"
       y2="-135.79361" />
    <linearGradient
       id="light90to0">
      <stop
         style="stop-color:#ffffff;stop-opacity:0.90833336;"
         offset="0.0000000"
         id="stop1890" />
      <stop
         style="stop-color:#ffffff;stop-opacity:0.0000000;"
         offset="1.0000000"
         id="stop1892" />
    </linearGradient>
    <linearGradient
       inkscape:collect="always"
       xlink:href="#light90to0"
       id="linearGradient16504"
       gradientUnits="userSpaceOnUse"
       gradientTransform="matrix(0.890379,0.884594,-0.449428,0.456348,166.9975,-25.20896)"
       spreadMethod="reflect"
       x1="111.32960"
       y1="386.09204"
       x2="112.91872"
       y2="367.41110" />
    <linearGradient
       inkscape:collect="always"
       xlink:href="#bludraktowhite"
       id="linearGradient16503"
       gradientUnits="userSpaceOnUse"
       gradientTransform="matrix(1.143288,1.132316,-0.436455,0.442401,145.1861,-46.53600)"
       spreadMethod="reflect"
       x1="110.12445"
       y1="398.06821"
       x2="110.54198"
       y2="381.73886" />
    <linearGradient
       id="orangetoyelow">
      <stop
         style="stop-color:#ff7d00;stop-opacity:1.0000000;"
         offset="0.0000000"
         id="stop2661" />
      <stop
         style="stop-color:#ffff00;stop-opacity:1.0000000;"
         offset="1.0000000"
         id="stop2662" />
    </linearGradient>
    <linearGradient
       inkscape:collect="always"
       xlink:href="#orangetoyelow"
       id="linearGradient16502"
       gradientUnits="userSpaceOnUse"
       gradientTransform="matrix(1.100272,1.089712,-0.446169,0.452247,142.1597,-43.39595)"
       spreadMethod="reflect"
       x1="113.97564"
       y1="367.68045"
       x2="113.61272"
       y2="382.32303" />
    <linearGradient
       inkscape:collect="always"
       xlink:href="#bludraktowhite"
       id="linearGradient16501"
       gradientUnits="userSpaceOnUse"
       gradientTransform="matrix(0.715001,0.699124,-0.699124,0.715001,145.1861,-46.53600)"
       x1="144.50417"
       y1="249.54593"
       x2="162.24979"
       y2="245.98344" />
    <radialGradient
       inkscape:collect="always"
       xlink:href="#bludraktowhite"
       id="radialGradient16500"
       gradientUnits="userSpaceOnUse"
       gradientTransform="matrix(0.715001,0.699124,-0.699124,0.715001,145.1861,-46.53600)"
       cx="154.87000"
       cy="248.76897"
       fx="154.87000"
       fy="248.76897"
       r="8.9088030" />
    <linearGradient
       inkscape:collect="always"
       xlink:href="#bludraktowhite"
       id="linearGradient16499"
       gradientUnits="userSpaceOnUse"
       gradientTransform="matrix(0.715001,0.699124,-0.699124,0.715001,145.1861,-46.53600)"
       x1="187.21997"
       y1="246.31511"
       x2="200.85158"
       y2="246.31511" />
    <radialGradient
       inkscape:collect="always"
       xlink:href="#bludraktowhite"
       id="radialGradient16498"
       gradientUnits="userSpaceOnUse"
       gradientTransform="matrix(0.715001,0.699124,-0.699124,0.715001,145.1861,-46.53600)"
       cx="196.46024"
       cy="248.85941"
       fx="196.46024"
       fy="248.85941"
       r="6.7950330" />
    <linearGradient
       inkscape:collect="always"
       xlink:href="#bludraktowhite"
       id="linearGradient16497"
       gradientUnits="userSpaceOnUse"
       gradientTransform="matrix(1.041174,-1.138109e-16,9.005485e-17,0.960454,0.356520,-0.237680)"
       spreadMethod="reflect"
       x1="74.778839"
       y1="244.09380"
       x2="78.151619"
       y2="241.11296" />
    <linearGradient
       id="bludraktowhite"
       gradientUnits="userSpaceOnUse"
       x1="33.332001"
       y1="10.305200"
       x2="33.332001"
       y2="91.407700">
      <linearGradient
         id="bluedrklighttowite"
         gradientUnits="userSpaceOnUse"
         x1="33.332001"
         y1="10.305200"
         x2="33.332001"
         y2="91.407700"
         spreadMethod="pad"
         xlink:href="#linearGradient6373" />
      <stop
         offset="0"
         style="stop-color:rgb(255,255,255)"
         id="stop7271" />
      <stop
         offset="1"
         style="stop-color:rgb(84,84,119)"
         id="stop7273" />
    </linearGradient>
    <linearGradient
       inkscape:collect="always"
       xlink:href="#bludraktowhite"
       id="linearGradient16496"
       gradientUnits="userSpaceOnUse"
       gradientTransform="matrix(-0.736250,-0.679117,0.736250,-0.679117,0.356520,-0.237680)"
       spreadMethod="reflect"
       x1="-226.05598"
       y1="-119.62550"
       x2="-225.67094"
       y2="-124.01011" />
    <radialGradient
       inkscape:collect="always"
       xlink:href="#light100to0"
       id="radialGradient1179"
       gradientUnits="userSpaceOnUse"
       gradientTransform="scale(0.999851,1.000149)"
       cx="200.28046"
       cy="291.17581"
       fx="200.28046"
       fy="291.17581"
       r="196.90027" />
    <linearGradient
       inkscape:collect="always"
       xlink:href="#light100to0"
       id="linearGradient1180"
       gradientUnits="userSpaceOnUse"
       gradientTransform="matrix(1.048333,0.000000,0.000000,0.953895,3.135114,2.949073)"
       x1="23.488348"
       y1="34.215549"
       x2="261.13272"
       y2="362.30255" />
    <linearGradient
       inkscape:collect="always"
       xlink:href="#greantodarkgrean"
       id="linearGradient1290"
       gradientUnits="userSpaceOnUse"
       gradientTransform="scale(0.999857,1.000143)"
       x1="351.57092"
       y1="50.663139"
       x2="176.99603"
       y2="218.63310" />
    <radialGradient
       inkscape:collect="always"
       xlink:href="#greandarktobgrean"
       id="radialGradient1291"
       gradientUnits="userSpaceOnUse"
       gradientTransform="scale(0.999855,1.000145)"
       cx="78.732162"
       cy="52.096363"
       fx="78.732162"
       fy="52.096363"
       r="219.06058" />
    <defs
       id="defs1151">
      <linearGradient
         id="linearGradient1153">
        <stop
           style="stop-color:#ffffff;stop-opacity:1.0000000;"
           offset="0.0000000"
           id="stop1154" />
        <stop
           style="stop-color:#ffffff;stop-opacity:0.0000000;"
           offset="1.0000000"
           id="stop1155" />
      </linearGradient>
      <linearGradient
         id="greandarktobgrean">
        <stop
           style="stop-color:#00ad01;stop-opacity:1.0000000;"
           offset="0.0000000"
           id="stop4492" />
        <stop
           style="stop-color:#15720f;stop-opacity:1.0000000;"
           offset="1.0000000"
           id="stop4493" />
      </linearGradient>
      <linearGradient
         id="greantodarkgrean">
        <stop
           style="stop-color:#00ff01;stop-opacity:1.0000000;"
           offset="0.0000000"
           id="stop5123" />
        <stop
           style="stop-color:#15980f;stop-opacity:1.0000000;"
           offset="1.0000000"
           id="stop5124" />
      </linearGradient>
    </defs>
    <sodipodi:namedview
       id="namedview1165"
       pagecolor="#ffffff"
       bordercolor="#666666"
       borderopacity="1.0"
       inkscape:pageopacity="0.0"
       inkscape:pageshadow="2"
       inkscape:zoom="4.0200035"
       inkscape:cx="35.804250"
       inkscape:cy="29.507018"
       inkscape:current-layer="layer1"
       showgrid="false"
       inkscape:grid-bbox="false"
       gridspacingy="1.0000000pt"
       gridspacingx="1.0000000pt"
       gridoriginy="0.0000000pt"
       gridoriginx="0.0000000pt"
       inkscape:window-width="640"
       inkscape:window-height="538"
       inkscape:window-x="0"
       inkscape:window-y="25" />
    <metadata
       id="metadata1166">
      <rdf:RDF
         id="RDF1167">
        <cc:Work
           rdf:about=""
           id="Work1168">
          <dc:format
             id="format1169">image/svg+xml</dc:format>
          <dc:type
             id="type1171"
             rdf:resource="http://purl.org/dc/dcmitype/StillImage" />
        </cc:Work>
      </rdf:RDF>
    </metadata>
    <radialGradient
       inkscape:collect="always"
       xlink:href="#light90to0"
       id="radialGradient3698"
       gradientUnits="userSpaceOnUse"
       gradientTransform="matrix(0.461289,0.000000,0.000000,2.167838,0.566798,3.542348)"
       cx="75.592400"
       cy="32.381802"
       fx="75.592400"
       fy="32.381802"
       r="29.090401" />
    <linearGradient
       inkscape:collect="always"
       xlink:href="#light100to0"
       id="linearGradient3700"
       gradientUnits="userSpaceOnUse"
       gradientTransform="matrix(2.618297,0.000000,0.000000,2.633186,3.374366,-136.7415)"
       x1="3.8885295"
       y1="51.327251"
       x2="12.214128"
       y2="60.295090" />
    <radialGradient
       inkscape:collect="always"
       xlink:href="#light90to0"
       id="radialGradient5252"
       gradientUnits="userSpaceOnUse"
       gradientTransform="scale(1.149241,0.870140)"
       cx="23.290775"
       cy="75.621788"
       fx="23.290775"
       fy="75.621788"
       r="3.4451914" />
    <linearGradient
       inkscape:collect="always"
       xlink:href="#light90to0"
       id="linearGradient5254"
       gradientUnits="userSpaceOnUse"
       gradientTransform="scale(1.209652,0.826684)"
       x1="45.347221"
       y1="32.679394"
       x2="55.378689"
       y2="48.543495" />
    <radialGradient
       inkscape:collect="always"
       xlink:href="#light90to0"
       id="radialGradient5256"
       gradientUnits="userSpaceOnUse"
       gradientTransform="scale(1.149241,0.870140)"
       cx="23.290775"
       cy="75.621788"
       fx="23.290775"
       fy="75.621788"
       r="3.4451914" />
    <linearGradient
       inkscape:collect="always"
       xlink:href="#light90to0"
       id="linearGradient5258"
       gradientUnits="userSpaceOnUse"
       gradientTransform="scale(1.209652,0.826684)"
       x1="45.347221"
       y1="32.679394"
       x2="55.378689"
       y2="48.543495" />
    <linearGradient
       inkscape:collect="always"
       xlink:href="#light100to0"
       id="linearGradient5380"
       gradientUnits="userSpaceOnUse"
       gradientTransform="matrix(0.899641,0.000000,0.000000,0.840499,9.647551,7.326302)"
       x1="91.742760"
       y1="5.0991616"
       x2="101.46706"
       y2="17.859196" />
    <radialGradient
       inkscape:collect="always"
       xlink:href="#light100to0"
       id="radialGradient5383"
       gradientUnits="userSpaceOnUse"
       gradientTransform="matrix(0.358646,0.000000,0.000000,1.945547,23.53765,6.086787)"
       cx="234.12357"
       cy="34.027508"
       fx="234.12357"
       fy="34.027508"
       r="36.990097" />
    <linearGradient
       inkscape:collect="always"
       xlink:href="#light100to0"
       id="linearGradient6145"
       gradientUnits="userSpaceOnUse"
       gradientTransform="matrix(0.911832,0.000000,0.000000,0.840499,1.233881,8.032286)"
       x1="15.880904"
       y1="2.4654100"
       x2="29.151680"
       y2="16.894985" />
    <radialGradient
       inkscape:collect="always"
       xlink:href="#light100to0"
       id="radialGradient6148"
       gradientUnits="userSpaceOnUse"
       gradientTransform="matrix(0.392861,0.000000,0.000000,1.921788,3.947795,7.279724)"
       cx="70.634575"
       cy="33.607800"
       fx="70.634575"
       fy="33.607800"
       r="37.151337" />
    <linearGradient
       inkscape:collect="always"
       xlink:href="#light90to0"
       id="linearGradient6152"
       gradientUnits="userSpaceOnUse"
       gradientTransform="matrix(1.240865,0.000000,0.000000,0.731860,0.414092,2.474675)"
       x1="43.695892"
       y1="13.669040"
       x2="54.656475"
       y2="28.703922" />
    <linearGradient
       inkscape:collect="always"
       xlink:href="#light90to0"
       id="linearGradient6915"
       gradientUnits="userSpaceOnUse"
       gradientTransform="matrix(1.217947,0.000000,0.000000,0.758699,1.323295,1.653543)"
       x1="43.182098"
       y1="64.943680"
       x2="56.203644"
       y2="79.817764" />
    <radialGradient
       inkscape:collect="always"
       xlink:href="#light90to0"
       id="radialGradient6919"
       gradientUnits="userSpaceOnUse"
       gradientTransform="scale(1.149241,0.870140)"
       cx="23.290775"
       cy="75.621788"
       fx="23.290775"
       fy="75.621788"
       r="3.4451914" />
    <radialGradient
       inkscape:collect="always"
       xlink:href="#light90to0"
       id="radialGradient6921"
       gradientUnits="userSpaceOnUse"
       gradientTransform="scale(1.149241,0.870140)"
       cx="23.290775"
       cy="75.621788"
       fx="23.290775"
       fy="75.621788"
       r="3.4451914" />
    <radialGradient
       gradientUnits="userSpaceOnUse"
       r="40.434757"
       fy="8.7243853"
       fx="14.330431"
       cy="8.7243853"
       cx="14.330431"
       gradientTransform="scale(0.982750,1.017552)"
       id="radialGradient3707"
       xlink:href="#bludraktowhite"
       inkscape:collect="always" />
    <radialGradient
       r="39.210377"
       fy="213.82373"
       fx="138.89362"
       cy="213.82373"
       cx="138.89362"
       gradientTransform="matrix(0.714507,-8.738799e-2,8.090601e-2,0.739368,-79.40753,-107.6449)"
       gradientUnits="userSpaceOnUse"
       id="radialGradient1426"
       xlink:href="#light100to0"
       inkscape:collect="always" />
    <radialGradient
       r="19.273544"
       fy="189.74400"
       fx="119.82000"
       cy="189.74400"
       cx="119.82000"
       gradientTransform="matrix(0.714532,-8.739114e-2,8.090310e-2,0.739341,-102.0403,-111.3570)"
       gradientUnits="userSpaceOnUse"
       id="radialGradient1423"
       xlink:href="#light100to0"
       inkscape:collect="always" />
    <linearGradient
       y2="43.096836"
       x2="33.667786"
       y1="-35.866158"
       x1="-26.130182"
       gradientTransform="matrix(0.976523,-0.119434,0.110577,1.010517,0.000000,0.000000)"
       gradientUnits="userSpaceOnUse"
       id="linearGradient1417"
       xlink:href="#bludraktowhite"
       inkscape:collect="always" />
    <linearGradient
       y2="241.11296"
       x2="78.151619"
       y1="244.09380"
       x1="74.778839"
       spreadMethod="reflect"
       gradientTransform="matrix(0.906168,-2.989913e-3,-7.230192e-3,0.826239,-21.28576,-154.3512)"
       gradientUnits="userSpaceOnUse"
       id="linearGradient1407"
       xlink:href="#bludraktowhite"
       inkscape:collect="always" />
    <linearGradient
       y2="-124.01011"
       x2="-225.67094"
       y1="-119.62550"
       x1="-226.05598"
       spreadMethod="reflect"
       gradientTransform="matrix(-0.635670,-0.582102,0.645895,-0.586331,-21.28576,-154.3512)"
       gradientUnits="userSpaceOnUse"
       id="linearGradient1405"
       xlink:href="#bludraktowhite"
       inkscape:collect="always" />
    <linearGradient
       y2="246.31511"
       x2="200.85158"
       y1="246.31511"
       x1="187.21997"
       gradientTransform="matrix(0.617026,0.599374,-0.613853,0.617094,105.1127,-194.5956)"
       gradientUnits="userSpaceOnUse"
       id="linearGradient1402"
       xlink:href="#bludraktowhite"
       inkscape:collect="always" />
    <radialGradient
       r="6.7950330"
       fy="248.85941"
       fx="196.46024"
       cy="248.85941"
       cx="196.46024"
       gradientTransform="matrix(0.617026,0.599374,-0.613853,0.617094,105.1127,-194.5956)"
       gradientUnits="userSpaceOnUse"
       id="radialGradient1400"
       xlink:href="#bludraktowhite"
       inkscape:collect="always" />
    <linearGradient
       y2="245.98344"
       x2="162.24979"
       y1="249.54593"
       x1="144.50417"
       gradientTransform="matrix(0.617026,0.599374,-0.613853,0.617094,105.1127,-194.5956)"
       gradientUnits="userSpaceOnUse"
       id="linearGradient1397"
       xlink:href="#bludraktowhite"
       inkscape:collect="always" />
    <radialGradient
       r="8.9088030"
       fy="248.76897"
       fx="154.87000"
       cy="248.76897"
       cx="154.87000"
       gradientTransform="matrix(0.617026,0.599374,-0.613853,0.617094,105.1127,-194.5956)"
       gradientUnits="userSpaceOnUse"
       id="radialGradient1395"
       xlink:href="#bludraktowhite"
       inkscape:collect="always" />
    <linearGradient
       y2="381.73886"
       x2="110.54198"
       y1="398.06821"
       x1="110.12445"
       spreadMethod="reflect"
       gradientTransform="matrix(0.986517,0.970802,-0.383192,0.381833,105.1127,-194.5956)"
       gradientUnits="userSpaceOnUse"
       id="linearGradient1392"
       xlink:href="#bludraktowhite"
       inkscape:collect="always" />
    <linearGradient
       y2="382.32303"
       x2="113.61272"
       y1="367.68045"
       x1="113.97564"
       spreadMethod="reflect"
       gradientTransform="matrix(0.949400,0.934275,-0.391720,0.390331,102.4551,-191.8857)"
       gradientUnits="userSpaceOnUse"
       id="linearGradient1390"
       xlink:href="#orangetoyelow"
       inkscape:collect="always" />
    <linearGradient
       y2="367.41110"
       x2="112.91872"
       y1="386.09204"
       x1="111.32960"
       spreadMethod="reflect"
       gradientTransform="matrix(0.768267,0.758423,-0.394587,0.393868,123.9354,-176.3115)"
       gradientUnits="userSpaceOnUse"
       id="linearGradient1387"
       xlink:href="#light90to0"
       inkscape:collect="always" />
    <linearGradient
       y2="224.47372"
       x2="82.103157"
       y1="231.74817"
       x1="73.415047"
       spreadMethod="reflect"
       gradientTransform="matrix(0.865803,5.461554e-3,2.707960e-2,0.864906,-28.60175,-156.3871)"
       gradientUnits="userSpaceOnUse"
       id="linearGradient1378"
       xlink:href="#bludraktowhite"
       inkscape:collect="always" />
    <linearGradient
       y2="-135.79361"
       x2="-218.18871"
       y1="-112.04543"
       x1="-216.41075"
       spreadMethod="reflect"
       gradientTransform="matrix(-0.631386,-0.615420,0.593090,-0.607696,-28.60175,-156.3871)"
       gradientUnits="userSpaceOnUse"
       id="linearGradient1376"
       xlink:href="#bludraktowhite"
       inkscape:collect="always" />
    <linearGradient
       y2="91.407700"
       x2="33.332001"
       y1="10.305200"
       x1="33.332001"
       gradientUnits="userSpaceOnUse"
       id="linearGradient1467">
      <linearGradient
         xlink:href="#linearGradient6373"
         spreadMethod="pad"
         y2="91.407700"
         x2="33.332001"
         y1="10.305200"
         x1="33.332001"
         gradientUnits="userSpaceOnUse"
         id="linearGradient1469" />
      <stop
         id="stop1471"
         style="stop-color:rgb(255,255,255)"
         offset="0" />
      <stop
         id="stop1473"
         style="stop-color:rgb(84,84,119)"
         offset="1" />
    </linearGradient>
    <linearGradient
       id="linearGradient1461">
      <stop
         id="stop1463"
         offset="0.0000000"
         style="stop-color:#ff7d00;stop-opacity:1.0000000;" />
      <stop
         id="stop1465"
         offset="1.0000000"
         style="stop-color:#ffff00;stop-opacity:1.0000000;" />
    </linearGradient>
    <linearGradient
       id="linearGradient1455">
      <stop
         id="stop1457"
         offset="0.0000000"
         style="stop-color:#ffffff;stop-opacity:0.90833336;" />
      <stop
         id="stop1459"
         offset="1.0000000"
         style="stop-color:#ffffff;stop-opacity:0.0000000;" />
    </linearGradient>
    <linearGradient
       id="linearGradient1449">
      <stop
         id="stop1451"
         offset="0.0000000"
         style="stop-color:#ffffff;stop-opacity:1.0000000;" />
      <stop
         id="stop1453"
         offset="1.0000000"
         style="stop-color:#ffffff;stop-opacity:0.0000000;" />
    </linearGradient>
    <radialGradient
       r="12.433510"
       fy="290.09976"
       fx="214.42342"
       cy="290.09976"
       cx="214.42342"
       gradientTransform="scale(1.091687,0.916013)"
       gradientUnits="userSpaceOnUse"
       id="radialGradient1447"
       xlink:href="#light100to0"
       inkscape:collect="always" />
    <radialGradient
       r="9.7014513"
       fy="268.59674"
       fx="188.63550"
       cy="268.59674"
       cx="188.63550"
       gradientTransform="scale(1.091687,0.916013)"
       gradientUnits="userSpaceOnUse"
       id="radialGradient1445"
       xlink:href="#light100to0"
       inkscape:collect="always" />
    <radialGradient
       r="12.433510"
       fy="290.09976"
       fx="214.42342"
       cy="290.09976"
       cx="214.42342"
       gradientTransform="scale(1.091687,0.916013)"
       gradientUnits="userSpaceOnUse"
       id="radialGradient1509"
       xlink:href="#light100to0"
       inkscape:collect="always" />
    <radialGradient
       r="9.7014513"
       fy="268.59674"
       fx="188.63550"
       cy="268.59674"
       cx="188.63550"
       gradientTransform="scale(1.091687,0.916013)"
       gradientUnits="userSpaceOnUse"
       id="radialGradient1511"
       xlink:href="#light100to0"
       inkscape:collect="always" />
  </defs>
  <sodipodi:namedview
     id="base"
     pagecolor="#ffffff"
     bordercolor="#666666"
     borderopacity="1.0"
     inkscape:pageopacity="0.0"
     inkscape:pageshadow="2"
     inkscape:zoom="7.2625000"
     inkscape:cx="40.000000"
     inkscape:cy="28.380604"
     inkscape:current-layer="layer1"
     showgrid="false"
     inkscape:grid-bbox="false"
     gridspacingy="1.0000000pt"
     gridspacingx="1.0000000pt"
     gridoriginy="0.0000000pt"
     gridoriginx="0.0000000pt"
     inkscape:window-width="993"
     inkscape:window-height="740"
     inkscape:window-x="136"
     inkscape:window-y="25" />
  <metadata
     id="metadata4">
    <rdf:RDF
       id="RDF5">
      <cc:Work
         rdf:about=""
         id="Work6">
        <dc:format
           id="format7">image/svg+xml</dc:format>
        <dc:type
           id="type9"
           rdf:resource="http://purl.org/dc/dcmitype/StillImage" />
      </cc:Work>
    </rdf:RDF>
  </metadata>
  <g
     id="layer1"
     inkscape:label="Layer 1"
     inkscape:groupmode="layer">
    <g
       transform="translate(31.08755,28.88265)"
       inkscape:groupmode="layer"
       inkscape:label="Layer 1"
       id="g1490">
      <g
         transform="translate(-31.66954,-29.74183)"
         id="g1336">
        <path
           style="opacity:0.49999997;fill:#007ebb;fill-opacity:0.22077920"
           id="path620"
           d="M 23.202848,17.190447 C 23.706087,21.789353 20.511262,25.955666 16.067066,26.499215 C 11.624298,27.042589 7.6140957,23.757490 7.1108563,19.158584 C 6.6076169,14.559677 9.8022805,10.391886 14.245048,9.8485122 C 18.689325,9.3057026 22.699608,12.591541 23.202848,17.190447 z " />
        <path
           sodipodi:nodetypes="ccccc"
           style="fill:url(#linearGradient1405);fill-opacity:1.0000000;stroke:url(#linearGradient1407);stroke-linejoin:round"
           id="path15144"
           d="M 43.842335,42.947227 L 48.991563,46.018993 L 45.325492,50.403066 L 41.868650,44.742338 L 43.842335,42.947227 z " />
        <path
           id="path5115"
           d="M 69.453994,69.595633 C 71.775959,67.284127 75.533320,67.250516 77.843417,69.520596 C 80.151772,71.788952 80.140744,75.501691 77.818769,77.812336 C 75.495053,80.122988 71.737701,80.156599 69.429345,77.887365 C 67.119248,75.617311 67.130285,71.905415 69.453994,69.595633 z "
           style="fill:url(#radialGradient1400);fill-opacity:1.0000000;stroke:url(#linearGradient1402);stroke-width:0.86526918;stroke-miterlimit:4.0000000" />
        <path
           id="path7623"
           d="M 46.650595,47.222047 C 48.972565,44.910541 52.729921,44.876930 55.040024,47.147010 C 57.348380,49.415367 57.337347,53.128114 55.015374,55.438751 C 52.691659,57.749403 48.934304,57.783013 46.625952,55.513779 C 44.315849,53.243725 44.326890,49.531830 46.650595,47.222047 z "
           style="fill:url(#radialGradient1395);fill-opacity:1.0000000;stroke:url(#linearGradient1397);stroke-width:0.86526918;stroke-miterlimit:4.0000000" />
        <path
           id="rect5114"
           d="M 56.039777,47.095969 L 77.795343,68.504947 C 78.510159,69.208385 78.583768,70.274763 77.960370,70.895948 L 70.758050,78.072731 C 70.134652,78.693907 69.057320,78.627697 68.342504,77.924259 L 46.586937,56.515281 C 45.872116,55.811843 45.798511,54.745464 46.421906,54.124280 L 53.624230,46.947505 C 54.247625,46.326320 55.324956,46.392531 56.039777,47.095969 z "
           style="fill:url(#linearGradient1390);fill-opacity:1.0000000;stroke:url(#linearGradient1392);stroke-width:1.4268034;stroke-linecap:butt;stroke-linejoin:round;stroke-miterlimit:4.0000000;stroke-dashoffset:0.0000000;stroke-opacity:1.0000000" />
        <path
           id="rect8247"
           d="M 56.030327,47.090666 L 62.801334,53.713247 C 63.515011,54.417781 69.059023,76.179508 57.827389,67.705840 L 46.585772,56.518012 C 45.872095,55.813478 45.798965,54.745781 46.421810,54.124074 L 53.617837,46.941169 C 54.240675,46.319462 55.316650,46.386141 56.030327,47.090666 z "
           style="fill:url(#linearGradient1387);fill-opacity:1.0000000;stroke:none;stroke-width:1.6489741;stroke-linecap:butt;stroke-linejoin:round;stroke-miterlimit:4.0000000;stroke-dashoffset:0.0000000;stroke-opacity:1.0000000" />
        <path
           style="fill:url(#linearGradient1376);fill-opacity:1.0000000;stroke:url(#linearGradient1378);stroke-linejoin:round"
           id="path478"
           d="M 44.650341,37.109588 L 47.821106,40.201030 L 39.792518,48.427318 L 36.621784,45.336751 L 44.650341,37.109588 z " />
        <path
           style="fill:url(#radialGradient3707);fill-opacity:1.0000000"
           id="path518"
           d="M 22.600239,1.7415690 C 9.5670264,3.3356006 0.19727148,15.560268 1.6732517,29.048668 C 3.1490701,42.535589 14.911478,52.176429 27.944690,50.582397 C 40.977903,48.988366 50.346863,36.763047 48.871044,23.276125 C 47.395698,9.7868988 35.633924,0.14523198 22.600239,1.7415690 M 27.531176,46.803457 C 16.531514,48.149524 6.5691144,39.984129 5.3234755,28.600727 C 4.0779983,17.218804 12.013687,6.8628794 23.013429,5.5175521 C 34.012458,4.1723121 43.975020,12.339185 45.220497,23.721108 C 46.466136,35.104510 38.530205,45.458217 27.531176,46.803457 z " />
        <path
           style="fill:url(#linearGradient1417);fill-opacity:1.0000000"
           id="path533"
           d="M 0.89127078,29.144683 C 2.4134487,43.055265 14.588916,53.036705 28.033681,51.392338 C 41.477017,49.748146 51.176713,37.091257 49.653106,23.180850 C 48.130766,9.2687886 35.955299,-0.71265073 22.511963,0.93154113 C 9.0672787,2.5766471 -0.63106893,15.232622 0.89127078,29.144683 M 2.4553135,28.953392 C 1.0305472,15.933016 10.106786,4.0896604 22.688434,2.5508576 C 35.269368,1.0121422 46.663583,10.351852 48.088349,23.372228 C 49.512791,36.389647 40.437429,48.234393 27.855781,49.773196 C 15.274133,51.311999 3.8800798,41.973768 2.4553135,28.953392 z " />
        <path
           style="opacity:0.73000002;fill:#009cbb;fill-opacity:0.18614717;fill-rule:evenodd"
           id="path554"
           d="M 47.355121,23.462858 C 48.753177,36.487978 39.875567,48.294281 27.530557,49.833552 C 15.184820,51.372911 4.0428822,42.062798 2.6449105,29.038443 C 1.2468566,16.013323 10.122123,4.2057603 22.467860,2.6663997 C 34.812871,1.1271302 45.957232,10.439270 47.355121,23.462858 z "
           clip-rule="evenodd" />
        <path
           style="opacity:0.49999997;fill:#007ebb;fill-opacity:0.16883112"
           id="path575"
           d="M 10.030211,29.963396 C 8.8935531,19.575931 15.850829,10.190841 25.569471,9.0021993 C 35.286685,7.8137321 44.087014,15.271582 45.223672,25.659048 C 45.272621,26.106369 45.301630,26.550135 45.321904,26.993470 C 45.377848,25.837249 45.349816,24.661327 45.219961,23.474632 C 43.938480,11.763687 33.725446,3.3921781 22.408465,4.7763054 C 11.092198,6.1603453 2.9560519,16.775308 4.2376133,28.486992 C 5.5191748,40.198676 15.732047,48.568707 27.049028,47.184580 C 28.127210,47.052712 29.176715,46.837437 30.192313,46.543889 C 30.024257,46.569688 29.855973,46.600011 29.686636,46.620722 C 19.967279,47.809451 11.166868,40.350861 10.030211,29.963396 z " />
        <path
           style="opacity:0.49999997;fill:#007ebb;fill-opacity:0.15584411"
           id="path598"
           d="M 16.541963,8.4077183 C 10.047863,9.2019814 5.3789063,15.294385 6.1141860,22.013816 C 6.8495466,28.733987 12.710906,33.538477 19.205005,32.744214 C 25.698390,31.950038 30.367347,25.857634 29.631986,19.137464 C 28.895911,12.417381 23.035348,7.6135426 16.541963,8.4077183 M 20.119120,31.549718 C 14.877541,32.190791 10.148842,28.314730 9.5553110,22.890683 C 8.9619415,17.468114 12.727784,12.551627 17.970077,11.910466 C 23.210228,11.269568 27.939803,15.147020 28.533172,20.569589 C 29.126703,25.993637 25.359270,30.908820 20.119120,31.549718 z " />
        <path
           style="opacity:0.73000002;fill:url(#radialGradient1426);fill-opacity:1.0000000;fill-rule:evenodd"
           id="path12629"
           d="M 47.907260,24.374849 C 49.283570,36.952340 40.544078,48.352901 28.391131,49.839272 C 16.237469,51.325729 5.2688780,42.335572 3.8926560,29.758820 C 2.5163530,17.181329 11.253538,5.7795519 23.407200,4.2930941 C 35.560147,2.8067237 46.531120,11.798837 47.907260,24.374849 z "
           clip-rule="evenodd" />
        <path
           transform="matrix(0.859766,-0.105154,0.101759,0.929935,-188.1266,-184.3751)"
           d="M 242.14573 256.43384 A 21.808155 18.298798 0 1 1  198.52942,256.43384 A 21.808155 18.298798 0 1 1  242.14573 256.43384 z"
           sodipodi:ry="18.298798"
           sodipodi:rx="21.808155"
           sodipodi:cy="256.43384"
           sodipodi:cx="220.33757"
           id="path15833"
           style="fill:url(#radialGradient1509);fill-opacity:1.0000000;stroke:none;stroke-width:1.0000000;stroke-linecap:butt;stroke-linejoin:round;stroke-miterlimit:4.0000000;stroke-dashoffset:0.0000000;stroke-opacity:1.0000000"
           sodipodi:type="arc" />
        <path
           transform="matrix(0.859766,-0.105154,0.101759,0.929935,-193.1266,-193.1251)"
           d="M 242.14573 256.43384 A 21.808155 18.298798 0 1 1  198.52942,256.43384 A 21.808155 18.298798 0 1 1  242.14573 256.43384 z"
           sodipodi:ry="18.298798"
           sodipodi:rx="21.808155"
           sodipodi:cy="256.43384"
           sodipodi:cx="220.33757"
           id="path16459"
           style="fill:url(#radialGradient1511);fill-opacity:1.0000000;stroke:none;stroke-width:1.0000000;stroke-linecap:butt;stroke-linejoin:round;stroke-miterlimit:4.0000000;stroke-dashoffset:0.0000000;stroke-opacity:1.0000000"
           sodipodi:type="arc" />
      </g>
      <path
         style="opacity:0.49999997;fill:url(#radialGradient1423);fill-opacity:1.0000000;stroke:none"
         id="path13255"
         d="M 1.1978401,14.382460 C 1.7010791,18.981366 -1.4937459,23.147679 -5.9379419,23.691228 C -10.380710,24.234602 -14.390912,20.949503 -14.894152,16.350597 C -15.397391,11.751690 -12.202727,7.5838987 -7.7599599,7.0405249 C -3.3156829,6.4977153 0.69460013,9.7835537 1.1978401,14.382460 z " />
    </g>
  </g>
  <g
     id="g1172"
     inkscape:label="Layer 1"
     inkscape:groupmode="layer"
     transform="matrix(0.388692,0.000000,0.000000,0.373159,-1.311589,51.02631)">
    <path
       style="fill:#000000;fill-opacity:1.0000000;fill-rule:evenodd;stroke:none;stroke-width:6.1875000;stroke-linecap:round;stroke-linejoin:round;stroke-miterlimit:4.0000000;stroke-opacity:1.0000000"
       d="M 28.084733,0.83783759 C 26.057739,0.89818675 24.131081,1.7015556 22.698077,3.0839401 L 6.5381113,18.651755 C 4.4688093,20.577119 3.6389123,23.428292 4.3673923,26.109424 C 5.0958723,28.790556 7.2693593,30.884400 10.052473,31.586186 C 12.835587,32.287971 15.795210,31.488484 17.793809,29.495009 L 20.366540,27.016551 L 20.366540,69.924855 C 20.325943,72.690114 21.834052,75.262221 24.313382,76.656264 C 26.792712,78.050307 29.859140,78.050307 32.338470,76.656264 C 34.817800,75.262221 36.325910,72.690114 36.285313,69.924855 L 36.285313,8.5055666 C 36.286080,6.4311198 35.414406,4.4448727 33.869202,3.0000711 C 32.323997,1.5552696 30.237103,0.77518913 28.084733,0.83783759 L 28.084733,0.83783759 z "
       id="path1376" />
    <path
       style="fill:url(#radialGradient6148);fill-opacity:1.0000000;fill-rule:evenodd;stroke:none;stroke-width:6.1875000;stroke-linecap:round;stroke-linejoin:round;stroke-miterlimit:4.0000000;stroke-opacity:1.0000000"
       d="M 22.545815,31.018855 L 22.545815,68.034645 C 22.514698,70.420157 23.670652,72.639041 25.571040,73.841643 C 27.471427,75.044244 29.821820,75.044244 31.722208,73.841643 C 33.622595,72.639041 34.778550,70.420157 34.747432,68.034645 L 34.747432,15.049949 L 22.545815,31.018855 z "
       id="path2898"
       sodipodi:nodetypes="ccccccc" />
    <path
       style="fill:url(#linearGradient6145);fill-opacity:1.0000000;fill-rule:evenodd;stroke:none;stroke-width:0.31250000;stroke-linecap:butt;stroke-linejoin:miter;stroke-miterlimit:4.0000000;stroke-opacity:1.0000000"
       d="M 24.930001,5.0787752 C 18.828055,9.4253199 13.348070,15.455079 7.8258108,21.150048 C 6.4317209,22.587738 6.6675864,24.830264 7.6593153,26.265056 C 8.5939279,27.617214 10.013126,29.473654 11.835141,29.226344 C 13.788127,28.961258 13.956320,26.293065 15.033753,24.845845 C 17.428929,21.628619 20.673123,19.151600 24.125837,17.049997 C 27.567458,14.955146 30.934452,12.422109 33.074109,9.0321486 C 34.057208,7.4745789 32.126421,6.0271532 30.954266,5.2020093 C 29.338300,4.0644435 26.504511,3.9572182 24.930001,5.0787752 z "
       id="path3666"
       sodipodi:nodetypes="cssssssss" />
    <path
       style="fill:#000000;fill-opacity:1.0000000;fill-rule:evenodd;stroke:none;stroke-width:6.1875000;stroke-linecap:round;stroke-linejoin:round;stroke-miterlimit:4.0000000;stroke-opacity:1.0000000"
       d="M 102.83121,0.81011134 C 100.80421,0.87046051 98.877556,1.6738294 97.444552,3.0562139 L 81.284586,18.624029 C 79.215284,20.549392 78.385387,23.400565 79.113867,26.081697 C 79.842347,28.762829 82.015834,30.856673 84.798948,31.558459 C 87.582062,32.260245 90.541685,31.460758 92.540284,29.467282 L 95.113015,26.988824 L 95.113015,69.897128 C 95.072418,72.662388 96.580527,75.234494 99.059857,76.628537 C 101.53919,78.022580 104.60562,78.022580 107.08495,76.628537 C 109.56428,75.234494 111.07238,72.662388 111.03179,69.897128 L 111.03179,8.4778404 C 111.03256,6.4033936 110.16088,4.4171465 108.61568,2.9723449 C 107.07047,1.5275434 104.98358,0.74746289 102.83121,0.81011134 L 102.83121,0.81011134 z "
       id="path3688" />
    <path
       style="fill:url(#radialGradient5383);fill-opacity:1.0000000;fill-rule:evenodd;stroke:none;stroke-width:6.1875000;stroke-linecap:round;stroke-linejoin:round;stroke-miterlimit:4.0000000;stroke-opacity:1.0000000"
       d="M 98.354983,30.450562 L 98.354983,67.923976 C 98.326576,70.338979 99.381858,72.585295 101.11674,73.802765 C 102.85163,75.020234 104.99732,75.020234 106.73221,73.802765 C 108.46709,72.585295 109.52236,70.338979 109.49397,67.923976 L 109.49397,14.284233 L 98.354983,30.450562 z "
       id="path3690"
       sodipodi:nodetypes="ccccccc" />
    <path
       style="fill:url(#linearGradient5380);fill-opacity:1.0000000;fill-rule:evenodd;stroke:none;stroke-width:0.31250000;stroke-linecap:butt;stroke-linejoin:miter;stroke-miterlimit:4.0000000;stroke-opacity:1.0000000"
       d="M 100.14322,4.6820545 C 94.122852,9.0285997 88.716134,15.058358 83.267704,20.753327 C 81.892254,22.191017 82.124966,24.433542 83.103435,25.868334 C 84.025553,27.220492 85.425776,29.076932 87.223432,28.829623 C 89.150307,28.564537 89.316251,25.896344 90.379280,24.449123 C 92.742433,21.231897 95.943253,18.754878 99.349806,16.653275 C 102.74541,14.558424 106.06740,12.025388 108.17844,8.6354279 C 109.14839,7.0778581 107.24343,5.6304325 106.08695,4.8052886 C 104.49259,3.6677228 101.69668,3.5604975 100.14322,4.6820545 z "
       id="path3692"
       sodipodi:nodetypes="cssssssss" />
    <path
       sodipodi:type="arc"
       style="fill:#000000;fill-opacity:1.0000000;stroke:none;stroke-width:6.1875000;stroke-linecap:round;stroke-linejoin:round;stroke-miterlimit:4.0000000;stroke-dashoffset:0.0000000;stroke-opacity:1.0000000"
       id="path2138"
       sodipodi:cx="23.793459"
       sodipodi:cy="63.421688"
       sodipodi:rx="3.8554218"
       sodipodi:ry="2.9191051"
       d="M 27.648881 63.421688 A 3.8554218 2.9191051 0 1 1  19.938037,63.421688 A 3.8554218 2.9191051 0 1 1  27.648881 63.421688 z"
       transform="matrix(2.871783,0.000000,0.000000,3.713981,-8.932497,-215.3338)" />
    <path
       sodipodi:type="arc"
       style="fill:url(#radialGradient6921);fill-opacity:1.0000000;stroke:none;stroke-width:6.1875000;stroke-linecap:round;stroke-linejoin:round;stroke-miterlimit:4.0000000;stroke-dashoffset:0.0000000;stroke-opacity:1.0000000"
       id="path3702"
       sodipodi:cx="23.793459"
       sodipodi:cy="63.421688"
       sodipodi:rx="3.8554218"
       sodipodi:ry="2.9191051"
       d="M 27.648881 63.421688 A 3.8554218 2.9191051 0 1 1  19.938037,63.421688 A 3.8554218 2.9191051 0 1 1  27.648881 63.421688 z"
       transform="matrix(2.466740,0.000000,0.000000,3.323318,1.120261,-190.3286)" />
    <path
       style="fill:url(#linearGradient6152);fill-opacity:1.0000000;stroke:none;stroke-width:6.1875000;stroke-linecap:round;stroke-linejoin:round;stroke-miterlimit:4.0000000;stroke-dashoffset:0.0000000;stroke-opacity:1.0000000"
       d="M 69.165350,19.682794 C 65.670064,16.867298 57.386792,23.049564 49.985016,19.682794 C 49.985016,14.699124 54.281412,10.654407 59.575184,10.654407 C 64.868954,10.654407 69.165350,14.699124 69.165350,19.682794 z "
       id="path4470"
       sodipodi:nodetypes="cccc" />
    <path
       sodipodi:type="arc"
       style="fill:#000000;fill-opacity:1.0000000;stroke:none;stroke-width:6.1875000;stroke-linecap:round;stroke-linejoin:round;stroke-miterlimit:4.0000000;stroke-dashoffset:0.0000000;stroke-opacity:1.0000000"
       id="path5246"
       sodipodi:cx="23.793459"
       sodipodi:cy="63.421688"
       sodipodi:rx="3.8554218"
       sodipodi:ry="2.9191051"
       d="M 27.648881 63.421688 A 3.8554218 2.9191051 0 1 1  19.938037,63.421688 A 3.8554218 2.9191051 0 1 1  27.648881 63.421688 z"
       transform="matrix(2.871783,0.000000,0.000000,3.713981,-9.051176,-176.6509)" />
    <path
       sodipodi:type="arc"
       style="fill:url(#radialGradient6919);fill-opacity:1.0000000;stroke:none;stroke-width:6.1875000;stroke-linecap:round;stroke-linejoin:round;stroke-miterlimit:4.0000000;stroke-dashoffset:0.0000000;stroke-opacity:1.0000000"
       id="path5248"
       sodipodi:cx="23.793459"
       sodipodi:cy="63.421688"
       sodipodi:rx="3.8554218"
       sodipodi:ry="2.9191051"
       d="M 27.648881 63.421688 A 3.8554218 2.9191051 0 1 1  19.938037,63.421688 A 3.8554218 2.9191051 0 1 1  27.648881 63.421688 z"
       transform="matrix(2.466740,0.000000,0.000000,3.323318,1.001582,-151.6458)" />
    <path
       style="fill:url(#linearGradient6915);fill-opacity:1.0000000;stroke:none;stroke-width:6.1875000;stroke-linecap:round;stroke-linejoin:round;stroke-miterlimit:4.0000000;stroke-dashoffset:0.0000000;stroke-opacity:1.0000000"
       d="M 68.692421,59.065762 C 65.261693,56.147017 57.131408,62.556000 49.866338,59.065762 C 49.866338,53.899332 54.083380,49.706286 59.279379,49.706286 C 64.475379,49.706286 68.692421,53.899332 68.692421,59.065762 z "
       id="path5250"
       sodipodi:nodetypes="cccc" />
  </g>
</svg>
