<?xml version="1.0" encoding="UTF-8" standalone="no"?>
<!-- Created with Inkscape (http://www.inkscape.org/) -->
<svg
   xmlns:dc="http://purl.org/dc/elements/1.1/"
   xmlns:cc="http://web.resource.org/cc/"
   xmlns:rdf="http://www.w3.org/1999/02/22-rdf-syntax-ns#"
   xmlns:svg="http://www.w3.org/2000/svg"
   xmlns="http://www.w3.org/2000/svg"
   xmlns:xlink="http://www.w3.org/1999/xlink"
   xmlns:sodipodi="http://inkscape.sourceforge.net/DTD/sodipodi-0.dtd"
   xmlns:inkscape="http://www.inkscape.org/namespaces/inkscape"
   inkscape:export-ydpi="3701.2500"
   inkscape:export-xdpi="3701.2500"
   inkscape:export-filename="/home/pinheiro/kdeplayground-artwork/oooicons/crystalsvg/zoompanning.png"
   sodipodi:docname="zoompanning.svg"
   sodipodi:docbase="/home/pinheiro/kdeplayground-artwork/oooicons/crystalsvg"
   inkscape:version="0.41"
   sodipodi:version="0.32"
   id="svg7905"
   height="64px"
   width="64px">
  <defs
     id="defs3">
    <radialGradient
       r="19.273544"
       fy="189.74400"
       fx="119.82000"
       cy="189.74400"
       cx="119.82000"
       gradientTransform="matrix(0.714532,-8.739114e-2,8.090310e-2,0.739341,0.279120,-129.3047)"
       gradientUnits="userSpaceOnUse"
       id="radialGradient1472"
       xlink:href="#light100to0"
       inkscape:collect="always" />
    <radialGradient
       r="9.7014513"
       fy="268.59674"
       fx="188.63550"
       cy="268.59674"
       cx="188.63550"
       gradientTransform="scale(1.091687,0.916013)"
       gradientUnits="userSpaceOnUse"
       id="radialGradient1470"
       xlink:href="#light100to0"
       inkscape:collect="always" />
    <radialGradient
       r="12.433510"
       fy="290.09976"
       fx="214.42342"
       cy="290.09976"
       cx="214.42342"
       gradientTransform="scale(1.091687,0.916013)"
       gradientUnits="userSpaceOnUse"
       id="radialGradient1468"
       xlink:href="#light100to0"
       inkscape:collect="always" />
    <linearGradient
       id="light100to0">
      <stop
         id="stop2764"
         offset="0.0000000"
         style="stop-color:#ffffff;stop-opacity:1.0000000;" />
      <stop
         id="stop2765"
         offset="1.0000000"
         style="stop-color:#ffffff;stop-opacity:0.0000000;" />
    </linearGradient>
    <radialGradient
       r="39.210377"
       fy="213.82373"
       fx="138.89362"
       cy="213.82373"
       cx="138.89362"
       gradientTransform="matrix(0.714507,-8.738799e-2,8.090601e-2,0.739368,-79.40753,-107.6449)"
       gradientUnits="userSpaceOnUse"
       id="radialGradient1466"
       xlink:href="#light100to0"
       inkscape:collect="always" />
    <linearGradient
       y2="43.096836"
       x2="33.667786"
       y1="-35.866158"
       x1="-26.130182"
       gradientTransform="matrix(0.976523,-0.119434,0.110577,1.010517,2.220446e-16,2.220446e-16)"
       gradientUnits="userSpaceOnUse"
       id="linearGradient1464"
       xlink:href="#bludraktowhite"
       inkscape:collect="always" />
    <radialGradient
       r="40.434757"
       fy="8.7243853"
       fx="14.330431"
       cy="8.7243853"
       cx="14.330431"
       gradientTransform="scale(0.982750,1.017552)"
       gradientUnits="userSpaceOnUse"
       id="radialGradient1462"
       xlink:href="#bludraktowhite"
       inkscape:collect="always" />
    <linearGradient
       y2="224.47372"
       x2="82.103157"
       y1="231.74817"
       x1="73.415047"
       spreadMethod="reflect"
       gradientTransform="matrix(0.865803,5.461554e-3,2.707960e-2,0.864906,-28.60175,-156.3871)"
       gradientUnits="userSpaceOnUse"
       id="linearGradient1460"
       xlink:href="#bludraktowhite"
       inkscape:collect="always" />
    <linearGradient
       y2="-135.79361"
       x2="-218.18871"
       y1="-112.04543"
       x1="-216.41075"
       spreadMethod="reflect"
       gradientTransform="matrix(-0.631386,-0.615420,0.593090,-0.607696,-28.60175,-156.3871)"
       gradientUnits="userSpaceOnUse"
       id="linearGradient1458"
       xlink:href="#bludraktowhite"
       inkscape:collect="always" />
    <linearGradient
       id="light90to0">
      <stop
         id="stop1890"
         offset="0.0000000"
         style="stop-color:#ffffff;stop-opacity:0.90833336;" />
      <stop
         id="stop1892"
         offset="1.0000000"
         style="stop-color:#ffffff;stop-opacity:0.0000000;" />
    </linearGradient>
    <linearGradient
       y2="367.41110"
       x2="112.91872"
       y1="386.09204"
       x1="111.32960"
       spreadMethod="reflect"
       gradientTransform="matrix(0.768267,0.758423,-0.394587,0.393868,123.9354,-176.3115)"
       gradientUnits="userSpaceOnUse"
       id="linearGradient1456"
       xlink:href="#light90to0"
       inkscape:collect="always" />
    <linearGradient
       y2="381.73886"
       x2="110.54198"
       y1="398.06821"
       x1="110.12445"
       spreadMethod="reflect"
       gradientTransform="matrix(0.986517,0.970802,-0.383192,0.381833,105.1127,-194.5956)"
       gradientUnits="userSpaceOnUse"
       id="linearGradient1454"
       xlink:href="#bludraktowhite"
       inkscape:collect="always" />
    <linearGradient
       id="orangetoyelow">
      <stop
         id="stop2661"
         offset="0.0000000"
         style="stop-color:#ff7d00;stop-opacity:1.0000000;" />
      <stop
         id="stop2662"
         offset="1.0000000"
         style="stop-color:#ffff00;stop-opacity:1.0000000;" />
    </linearGradient>
    <linearGradient
       y2="382.32303"
       x2="113.61272"
       y1="367.68045"
       x1="113.97564"
       spreadMethod="reflect"
       gradientTransform="matrix(0.949400,0.934275,-0.391720,0.390331,102.4551,-191.8857)"
       gradientUnits="userSpaceOnUse"
       id="linearGradient1452"
       xlink:href="#orangetoyelow"
       inkscape:collect="always" />
    <linearGradient
       y2="245.98344"
       x2="162.24979"
       y1="249.54593"
       x1="144.50417"
       gradientTransform="matrix(0.617026,0.599374,-0.613853,0.617094,105.1127,-194.5956)"
       gradientUnits="userSpaceOnUse"
       id="linearGradient1450"
       xlink:href="#bludraktowhite"
       inkscape:collect="always" />
    <radialGradient
       r="8.9088030"
       fy="248.76897"
       fx="154.87000"
       cy="248.76897"
       cx="154.87000"
       gradientTransform="matrix(0.617026,0.599374,-0.613853,0.617094,105.1127,-194.5956)"
       gradientUnits="userSpaceOnUse"
       id="radialGradient1448"
       xlink:href="#bludraktowhite"
       inkscape:collect="always" />
    <linearGradient
       y2="246.31511"
       x2="200.85158"
       y1="246.31511"
       x1="187.21997"
       gradientTransform="matrix(0.617026,0.599374,-0.613853,0.617094,105.1127,-194.5956)"
       gradientUnits="userSpaceOnUse"
       id="linearGradient1446"
       xlink:href="#bludraktowhite"
       inkscape:collect="always" />
    <radialGradient
       r="6.7950330"
       fy="248.85941"
       fx="196.46024"
       cy="248.85941"
       cx="196.46024"
       gradientTransform="matrix(0.617026,0.599374,-0.613853,0.617094,105.1127,-194.5956)"
       gradientUnits="userSpaceOnUse"
       id="radialGradient1444"
       xlink:href="#bludraktowhite"
       inkscape:collect="always" />
    <linearGradient
       y2="241.11296"
       x2="78.151619"
       y1="244.09380"
       x1="74.778839"
       spreadMethod="reflect"
       gradientTransform="matrix(0.906168,-2.989913e-3,-7.230192e-3,0.826239,-21.28576,-154.3512)"
       gradientUnits="userSpaceOnUse"
       id="linearGradient1442"
       xlink:href="#bludraktowhite"
       inkscape:collect="always" />
    <linearGradient
       y2="91.407700"
       x2="33.332001"
       y1="10.305200"
       x1="33.332001"
       gradientUnits="userSpaceOnUse"
       id="bludraktowhite">
      <linearGradient
         xlink:href="#linearGradient6373"
         spreadMethod="pad"
         y2="91.407700"
         x2="33.332001"
         y1="10.305200"
         x1="33.332001"
         gradientUnits="userSpaceOnUse"
         id="bluedrklighttowite" />
      <stop
         id="stop7271"
         style="stop-color:rgb(255,255,255)"
         offset="0" />
      <stop
         id="stop7273"
         style="stop-color:rgb(84,84,119)"
         offset="1" />
    </linearGradient>
    <linearGradient
       y2="-124.01011"
       x2="-225.67094"
       y1="-119.62550"
       x1="-226.05598"
       spreadMethod="reflect"
       gradientTransform="matrix(-0.635670,-0.582102,0.645895,-0.586331,-21.28576,-154.3512)"
       gradientUnits="userSpaceOnUse"
       id="linearGradient1440"
       xlink:href="#bludraktowhite"
       inkscape:collect="always" />
    <linearGradient
       id="blacktowhite">
      <stop
         style="stop-color:#000000;stop-opacity:1.0000000;"
         offset="0.0000000"
         id="stop2476" />
      <stop
         style="stop-color:#ffffff;stop-opacity:1.0000000;"
         offset="1.0000000"
         id="stop2475" />
    </linearGradient>
    <linearGradient
       y2="99.690155"
       x2="24.387333"
       y1="157.14804"
       x1="96.976326"
       spreadMethod="reflect"
       gradientTransform="matrix(0.633502,-1.993112e-2,3.595926e-2,0.963413,-42.08998,-110.2177)"
       gradientUnits="userSpaceOnUse"
       id="linearGradient2320"
       xlink:href="#blacktowhite"
       inkscape:collect="always" />
    <linearGradient
       id="greylighttograyw">
      <stop
         style="stop-color:#b5b5b8;stop-opacity:1.0000000;"
         offset="0.0000000"
         id="stop575" />
      <stop
         style="stop-color:#ebebee;stop-opacity:1.0000000;"
         offset="1.0000000"
         id="stop576" />
    </linearGradient>
    <linearGradient
       y2="165.42656"
       x2="83.356216"
       y1="136.51736"
       x1="78.248695"
       spreadMethod="reflect"
       gradientTransform="matrix(0.633502,-1.993112e-2,3.595926e-2,0.963413,-42.08998,-110.2177)"
       gradientUnits="userSpaceOnUse"
       id="linearGradient2318"
       xlink:href="#greylighttograyw"
       inkscape:collect="always" />
    <linearGradient
       id="shadow0wto25to0">
      <stop
         style="stop-color:#ffffff;stop-opacity:0.0000000;"
         offset="0.0000000"
         id="stop3437" />
      <stop
         style="stop-color:#000000;stop-opacity:0.27916667;"
         offset="0.50000000"
         id="stop3438" />
      <stop
         style="stop-color:#000000;stop-opacity:0.0000000;"
         offset="1.0000000"
         id="stop3439" />
    </linearGradient>
    <radialGradient
       r="46.232933"
       fy="199.52441"
       fx="85.725777"
       cy="199.52441"
       cx="85.725777"
       gradientTransform="matrix(0.676916,-2.129704e-2,3.365297e-2,0.901623,-59.92782,-110.6185)"
       gradientUnits="userSpaceOnUse"
       id="radialGradient2471"
       xlink:href="#shadow0wto25to0"
       inkscape:collect="always" />
    <linearGradient
       id="light100to75to0">
      <stop
         style="stop-color:#ffffff;stop-opacity:1.0000000;"
         offset="0.0000000"
         id="stop2779" />
      <stop
         style="stop-color:#ffffff;stop-opacity:0.77499998;"
         offset="0.50000000"
         id="stop2782" />
      <stop
         style="stop-color:#ffffff;stop-opacity:0.0000000;"
         offset="1.0000000"
         id="stop2780" />
    </linearGradient>
    <radialGradient
       spreadMethod="pad"
       gradientUnits="userSpaceOnUse"
       r="88.593124"
       fy="66.643768"
       fx="5.6473384"
       cy="66.643768"
       cx="5.6473384"
       gradientTransform="matrix(0.640254,0.000000,0.000000,0.999604,23.71919,-10.86726)"
       id="radialGradient3247"
       xlink:href="#light100to75to0"
       inkscape:collect="always" />
    <linearGradient
       gradientUnits="userSpaceOnUse"
       y2="-3.1711524"
       x2="71.213852"
       y1="-9.0732708"
       x1="71.094704"
       gradientTransform="matrix(0.645693,0.000000,0.000000,1.040618,-35.66743,26.49498)"
       id="linearGradient4773"
       xlink:href="#light75to0"
       inkscape:collect="always" />
    <linearGradient
       y2="-3.1711524"
       x2="71.213852"
       y1="-9.0732708"
       x1="71.094704"
       gradientTransform="matrix(0.645693,0.000000,-0.106222,1.040618,-28.84525,24.53049)"
       gradientUnits="userSpaceOnUse"
       id="linearGradient4779"
       xlink:href="#light75to0"
       inkscape:collect="always" />
    <linearGradient
       y2="-3.1711524"
       x2="71.213852"
       y1="-9.0732708"
       x1="71.094704"
       gradientTransform="matrix(0.621074,0.000000,-0.119201,0.987792,-20.21660,27.63496)"
       gradientUnits="userSpaceOnUse"
       id="linearGradient4783"
       xlink:href="#light75to0"
       inkscape:collect="always" />
    <linearGradient
       y2="-3.1711524"
       x2="71.213852"
       y1="-9.0732708"
       x1="71.094704"
       gradientTransform="matrix(0.510293,0.000000,-9.793840e-2,0.898395,-5.936706,33.60230)"
       gradientUnits="userSpaceOnUse"
       id="linearGradient4787"
       xlink:href="#light75to0"
       inkscape:collect="always" />
    <linearGradient
       y2="-3.1711524"
       x2="71.213852"
       y1="-9.0732708"
       x1="71.094704"
       gradientTransform="matrix(0.418154,0.325850,-8.318560e-2,0.895161,-23.66630,20.33965)"
       gradientUnits="userSpaceOnUse"
       id="linearGradient4799"
       xlink:href="#light75to0"
       inkscape:collect="always" />
    <linearGradient
       id="light75to0">
      <stop
         id="stop2769"
         offset="0.0000000"
         style="stop-color:#ffffff;stop-opacity:0.72916669;" />
      <stop
         id="stop2770"
         offset="1.0000000"
         style="stop-color:#ffffff;stop-opacity:0.0000000;" />
    </linearGradient>
    <radialGradient
       gradientUnits="userSpaceOnUse"
       r="9.0982065"
       fy="87.447372"
       fx="17.270765"
       cy="87.447372"
       cx="17.270765"
       gradientTransform="scale(1.584668,0.631047)"
       id="radialGradient7903"
       xlink:href="#light75to0"
       inkscape:collect="always" />
  </defs>
  <sodipodi:namedview
     inkscape:window-y="391"
     inkscape:window-x="0"
     inkscape:window-height="536"
     inkscape:window-width="640"
     inkscape:grid-bbox="true"
     inkscape:document-units="px"
     showgrid="true"
     inkscape:current-layer="layer1"
     inkscape:cy="31.707270"
     inkscape:cx="32.000000"
     inkscape:zoom="5.5000000"
     inkscape:pageshadow="2"
     inkscape:pageopacity="0.0"
     borderopacity="1.0"
     bordercolor="#666666"
     pagecolor="#ffffff"
     id="base" />
  <metadata
     id="metadata4">
    <rdf:RDF
       id="RDF5">
      <cc:Work
         id="Work6"
         rdf:about="">
        <dc:format
           id="format7">image/svg+xml</dc:format>
        <dc:type
           rdf:resource="http://purl.org/dc/dcmitype/StillImage"
           id="type9" />
      </cc:Work>
    </rdf:RDF>
  </metadata>
  <g
     inkscape:groupmode="layer"
     inkscape:label="Layer 1"
     id="layer1">
    <g
       transform="matrix(0.800000,0.000000,0.000000,0.800000,-64.60208,16.25253)"
       id="g1421">
      <g
         transform="translate(80.33547,-20.96602)"
         id="g1336">
        <path
           style="opacity:0.49999997;fill:#007ebb;fill-opacity:0.22077920"
           id="path620"
           d="M 23.202848,17.190447 C 23.706087,21.789353 20.511262,25.955666 16.067066,26.499215 C 11.624298,27.042589 7.6140957,23.757490 7.1108563,19.158584 C 6.6076169,14.559677 9.8022805,10.391886 14.245048,9.8485122 C 18.689325,9.3057026 22.699608,12.591541 23.202848,17.190447 z " />
        <path
           sodipodi:nodetypes="ccccc"
           style="fill:url(#linearGradient1440);fill-opacity:1.0000000;stroke:url(#linearGradient1442);stroke-linejoin:round"
           id="path15144"
           d="M 43.842335,42.947227 L 48.991563,46.018993 L 45.325492,50.403066 L 41.868650,44.742338 L 43.842335,42.947227 z " />
        <path
           id="path5115"
           d="M 69.453994,69.595633 C 71.775959,67.284127 75.533320,67.250516 77.843417,69.520596 C 80.151772,71.788952 80.140744,75.501691 77.818769,77.812336 C 75.495053,80.122988 71.737701,80.156599 69.429345,77.887365 C 67.119248,75.617311 67.130285,71.905415 69.453994,69.595633 z "
           style="fill:url(#radialGradient1444);fill-opacity:1.0000000;stroke:url(#linearGradient1446);stroke-width:0.86526918;stroke-miterlimit:4.0000000" />
        <path
           id="path7623"
           d="M 46.650595,47.222047 C 48.972565,44.910541 52.729921,44.876930 55.040024,47.147010 C 57.348380,49.415367 57.337347,53.128114 55.015374,55.438751 C 52.691659,57.749403 48.934304,57.783013 46.625952,55.513779 C 44.315849,53.243725 44.326890,49.531830 46.650595,47.222047 z "
           style="fill:url(#radialGradient1448);fill-opacity:1.0000000;stroke:url(#linearGradient1450);stroke-width:0.86526918;stroke-miterlimit:4.0000000" />
        <path
           id="rect5114"
           d="M 56.039777,47.095969 L 77.795343,68.504947 C 78.510159,69.208385 78.583768,70.274763 77.960370,70.895948 L 70.758050,78.072731 C 70.134652,78.693907 69.057320,78.627697 68.342504,77.924259 L 46.586937,56.515281 C 45.872116,55.811843 45.798511,54.745464 46.421906,54.124280 L 53.624230,46.947505 C 54.247625,46.326320 55.324956,46.392531 56.039777,47.095969 z "
           style="fill:url(#linearGradient1452);fill-opacity:1.0000000;stroke:url(#linearGradient1454);stroke-width:1.4268034;stroke-linecap:butt;stroke-linejoin:round;stroke-miterlimit:4.0000000;stroke-dashoffset:0.0000000;stroke-opacity:1.0000000" />
        <path
           id="rect8247"
           d="M 56.030327,47.090666 L 62.801334,53.713247 C 63.515011,54.417781 69.059023,76.179508 57.827389,67.705840 L 46.585772,56.518012 C 45.872095,55.813478 45.798965,54.745781 46.421810,54.124074 L 53.617837,46.941169 C 54.240675,46.319462 55.316650,46.386141 56.030327,47.090666 z "
           style="fill:url(#linearGradient1456);fill-opacity:1.0000000;stroke:none;stroke-width:1.6489741;stroke-linecap:butt;stroke-linejoin:round;stroke-miterlimit:4.0000000;stroke-dashoffset:0.0000000;stroke-opacity:1.0000000" />
        <path
           style="fill:url(#linearGradient1458);fill-opacity:1.0000000;stroke:url(#linearGradient1460);stroke-linejoin:round"
           id="path478"
           d="M 44.650341,37.109588 L 47.821106,40.201030 L 39.792518,48.427318 L 36.621784,45.336751 L 44.650341,37.109588 z " />
        <path
           style="fill:url(#radialGradient1462);fill-opacity:1.0000000"
           id="path518"
           d="M 22.600239,1.7415690 C 9.5670264,3.3356006 0.19727148,15.560268 1.6732517,29.048668 C 3.1490701,42.535589 14.911478,52.176429 27.944690,50.582397 C 40.977903,48.988366 50.346863,36.763047 48.871044,23.276125 C 47.395698,9.7868988 35.633924,0.14523198 22.600239,1.7415690 M 27.531176,46.803457 C 16.531514,48.149524 6.5691144,39.984129 5.3234755,28.600727 C 4.0779983,17.218804 12.013687,6.8628794 23.013429,5.5175521 C 34.012458,4.1723121 43.975020,12.339185 45.220497,23.721108 C 46.466136,35.104510 38.530205,45.458217 27.531176,46.803457 z " />
        <path
           style="fill:url(#linearGradient1464);fill-opacity:1.0000000"
           id="path533"
           d="M 0.89127078,29.144683 C 2.4134487,43.055265 14.588916,53.036705 28.033681,51.392338 C 41.477017,49.748146 51.176713,37.091257 49.653106,23.180850 C 48.130766,9.2687886 35.955299,-0.71265073 22.511963,0.93154113 C 9.0672787,2.5766471 -0.63106893,15.232622 0.89127078,29.144683 M 2.4553135,28.953392 C 1.0305472,15.933016 10.106786,4.0896604 22.688434,2.5508576 C 35.269368,1.0121422 46.663583,10.351852 48.088349,23.372228 C 49.512791,36.389647 40.437429,48.234393 27.855781,49.773196 C 15.274133,51.311999 3.8800798,41.973768 2.4553135,28.953392 z " />
        <path
           style="opacity:0.73000002;fill:#009cbb;fill-opacity:0.18614717;fill-rule:evenodd"
           id="path554"
           d="M 47.355121,23.462858 C 48.753177,36.487978 39.875567,48.294281 27.530557,49.833552 C 15.184820,51.372911 4.0428822,42.062798 2.6449105,29.038443 C 1.2468566,16.013323 10.122123,4.2057603 22.467860,2.6663997 C 34.812871,1.1271302 45.957232,10.439270 47.355121,23.462858 z "
           clip-rule="evenodd" />
        <path
           style="opacity:0.49999997;fill:#007ebb;fill-opacity:0.16883112"
           id="path575"
           d="M 10.030211,29.963396 C 8.8935531,19.575931 15.850829,10.190841 25.569471,9.0021993 C 35.286685,7.8137321 44.087014,15.271582 45.223672,25.659048 C 45.272621,26.106369 45.301630,26.550135 45.321904,26.993470 C 45.377848,25.837249 45.349816,24.661327 45.219961,23.474632 C 43.938480,11.763687 33.725446,3.3921781 22.408465,4.7763054 C 11.092198,6.1603453 2.9560519,16.775308 4.2376133,28.486992 C 5.5191748,40.198676 15.732047,48.568707 27.049028,47.184580 C 28.127210,47.052712 29.176715,46.837437 30.192313,46.543889 C 30.024257,46.569688 29.855973,46.600011 29.686636,46.620722 C 19.967279,47.809451 11.166868,40.350861 10.030211,29.963396 z " />
        <path
           style="opacity:0.49999997;fill:#007ebb;fill-opacity:0.15584411"
           id="path598"
           d="M 16.541963,8.4077183 C 10.047863,9.2019814 5.3789063,15.294385 6.1141860,22.013816 C 6.8495466,28.733987 12.710906,33.538477 19.205005,32.744214 C 25.698390,31.950038 30.367347,25.857634 29.631986,19.137464 C 28.895911,12.417381 23.035348,7.6135426 16.541963,8.4077183 M 20.119120,31.549718 C 14.877541,32.190791 10.148842,28.314730 9.5553110,22.890683 C 8.9619415,17.468114 12.727784,12.551627 17.970077,11.910466 C 23.210228,11.269568 27.939803,15.147020 28.533172,20.569589 C 29.126703,25.993637 25.359270,30.908820 20.119120,31.549718 z " />
        <path
           style="opacity:0.73000002;fill:url(#radialGradient1466);fill-opacity:1.0000000;fill-rule:evenodd"
           id="path12629"
           d="M 47.907260,24.374849 C 49.283570,36.952340 40.544078,48.352901 28.391131,49.839272 C 16.237469,51.325729 5.2688780,42.335572 3.8926560,29.758820 C 2.5163530,17.181329 11.253538,5.7795519 23.407200,4.2930941 C 35.560147,2.8067237 46.531120,11.798837 47.907260,24.374849 z "
           clip-rule="evenodd" />
        <path
           transform="matrix(0.859766,-0.105154,0.101759,0.929935,-188.1266,-184.3751)"
           d="M 242.14573 256.43384 A 21.808155 18.298798 0 1 1  198.52942,256.43384 A 21.808155 18.298798 0 1 1  242.14573 256.43384 z"
           sodipodi:ry="18.298798"
           sodipodi:rx="21.808155"
           sodipodi:cy="256.43384"
           sodipodi:cx="220.33757"
           id="path15833"
           style="fill:url(#radialGradient1468);fill-opacity:1.0000000;stroke:none;stroke-width:1.0000000;stroke-linecap:butt;stroke-linejoin:round;stroke-miterlimit:4.0000000;stroke-dashoffset:0.0000000;stroke-opacity:1.0000000"
           sodipodi:type="arc" />
        <path
           transform="matrix(0.859766,-0.105154,0.101759,0.929935,-193.1266,-193.1251)"
           d="M 242.14573 256.43384 A 21.808155 18.298798 0 1 1  198.52942,256.43384 A 21.808155 18.298798 0 1 1  242.14573 256.43384 z"
           sodipodi:ry="18.298798"
           sodipodi:rx="21.808155"
           sodipodi:cy="256.43384"
           sodipodi:cx="220.33757"
           id="path16459"
           style="fill:url(#radialGradient1470);fill-opacity:1.0000000;stroke:none;stroke-width:1.0000000;stroke-linecap:butt;stroke-linejoin:round;stroke-miterlimit:4.0000000;stroke-dashoffset:0.0000000;stroke-opacity:1.0000000"
           sodipodi:type="arc" />
      </g>
      <path
         style="opacity:0.49999997;fill:url(#radialGradient1472);fill-opacity:1.0000000;stroke:none"
         id="path13255"
         d="M 103.51726,-3.5652550 C 104.02050,1.0336510 100.82567,5.1999640 96.381478,5.7435130 C 91.938710,6.2868870 87.928508,3.0017880 87.425268,-1.5971180 C 86.922029,-6.1960250 90.116693,-10.363816 94.559460,-10.907190 C 99.003737,-11.450000 103.01402,-8.1641613 103.51726,-3.5652550 z " />
    </g>
    <path
       style="fill:none;fill-opacity:1.0000000;fill-rule:evenodd;stroke:#000000;stroke-width:3.2890725;stroke-linejoin:round;stroke-miterlimit:4.0000000;stroke-opacity:0.040723983"
       d="M 33.252206,37.259966 C 33.312326,41.324781 33.782224,39.185751 33.865954,43.711545 C 34.011026,51.553020 32.954066,50.707842 31.913676,61.802882 C 24.625558,62.281215 14.015866,62.730730 11.996168,60.904762 C 10.111443,58.017407 7.8840866,53.466603 5.8126086,49.686760 C 4.6281910,47.525542 2.1332070,35.505834 5.8432936,34.371787 C 7.7818536,33.779236 8.7764956,44.310438 9.4522656,44.780624 C 9.9843166,45.150814 8.6979236,31.485574 8.3132996,26.665795 C 8.0447866,23.301027 7.2674556,19.485589 8.1518356,17.860836 C 9.4090986,15.551035 11.645235,17.439942 12.127519,18.975851 C 12.499562,20.160682 12.728156,19.912596 13.186434,23.385198 C 14.013203,29.650051 15.607237,38.459304 15.607237,38.459304 C 15.607237,38.459304 15.384900,30.246652 15.384900,30.246652 C 14.491118,21.409009 14.337455,14.730514 17.133885,14.573316 C 20.456336,14.386539 20.708463,20.440550 20.953118,30.139001 C 20.985209,31.411115 21.670741,36.999572 21.670741,36.999572 C 21.670741,36.999572 22.159680,33.595863 22.130250,31.054641 C 22.036080,22.923097 22.054762,18.194654 24.541932,18.376829 C 27.158665,18.568497 27.097268,23.821521 28.167490,34.318282 C 28.363924,36.244900 29.278841,40.987701 29.183606,39.911517 L 28.735254,34.844999 C 28.506079,32.255242 28.655367,25.015728 30.743871,25.148473 C 32.752297,25.276126 33.143254,29.893314 33.252206,37.259966 z "
       id="path4803"
       sodipodi:nodetypes="csccsssssssssssssssssss" />
    <g
       id="g8004">
      <path
         style="fill:none;fill-opacity:1.0000000;fill-rule:evenodd;stroke:#000000;stroke-width:0.52256292;stroke-linejoin:round;stroke-miterlimit:4.0000000;stroke-opacity:0.040723983"
         d="M 33.252206,37.259966 C 33.312326,41.324781 33.782224,39.185751 33.865954,43.711545 C 34.011026,51.553020 32.954066,50.707842 31.913676,61.802882 C 24.625558,62.281215 14.015866,62.730730 11.996168,60.904762 C 10.111443,58.017407 7.8840866,53.466603 5.8126086,49.686760 C 4.6281910,47.525542 2.1332070,35.505834 5.8432936,34.371787 C 7.7818536,33.779236 8.7764956,44.310438 9.4522656,44.780624 C 9.9843166,45.150814 8.6979236,31.485574 8.3132996,26.665795 C 8.0447866,23.301027 7.2674556,19.485589 8.1518356,17.860836 C 9.4090986,15.551035 11.645235,17.439942 12.127519,18.975851 C 12.499562,20.160682 12.728156,19.912596 13.186434,23.385198 C 14.013203,29.650051 15.607237,38.459304 15.607237,38.459304 C 15.607237,38.459304 15.384900,30.246652 15.384900,30.246652 C 14.491118,21.409009 14.337455,14.730514 17.133885,14.573316 C 20.456336,14.386539 20.708463,20.440550 20.953118,30.139001 C 20.985209,31.411115 21.670741,36.999572 21.670741,36.999572 C 21.670741,36.999572 22.159680,33.595863 22.130250,31.054641 C 22.036080,22.923097 22.054762,18.194654 24.541932,18.376829 C 27.158665,18.568497 27.097268,23.821521 28.167490,34.318282 C 28.363924,36.244900 29.278841,40.987701 29.183606,39.911517 L 28.735254,34.844999 C 28.506079,32.255242 28.655367,25.015728 30.743871,25.148473 C 32.752297,25.276126 33.143254,29.893314 33.252206,37.259966 z "
         id="path5577"
         sodipodi:nodetypes="csccsssssssssssssssssss" />
      <path
         style="fill:none;fill-opacity:1.0000000;fill-rule:evenodd;stroke:#000000;stroke-width:0.93241626;stroke-linejoin:round;stroke-miterlimit:4.0000000;stroke-opacity:0.040723983"
         d="M 33.252206,37.259966 C 33.312326,41.324781 33.782224,39.185751 33.865954,43.711545 C 34.011026,51.553020 32.954066,50.707842 31.913676,61.802882 C 24.625558,62.281215 14.015866,62.730730 11.996168,60.904762 C 10.111443,58.017407 7.8840866,53.466603 5.8126086,49.686760 C 4.6281910,47.525542 2.1332070,35.505834 5.8432936,34.371787 C 7.7818536,33.779236 8.7764956,44.310438 9.4522656,44.780624 C 9.9843166,45.150814 8.6979236,31.485574 8.3132996,26.665795 C 8.0447866,23.301027 7.2674556,19.485589 8.1518356,17.860836 C 9.4090986,15.551035 11.645235,17.439942 12.127519,18.975851 C 12.499562,20.160682 12.728156,19.912596 13.186434,23.385198 C 14.013203,29.650051 15.607237,38.459304 15.607237,38.459304 C 15.607237,38.459304 15.384900,30.246652 15.384900,30.246652 C 14.491118,21.409009 14.337455,14.730514 17.133885,14.573316 C 20.456336,14.386539 20.708463,20.440550 20.953118,30.139001 C 20.985209,31.411115 21.670741,36.999572 21.670741,36.999572 C 21.670741,36.999572 22.159680,33.595863 22.130250,31.054641 C 22.036080,22.923097 22.054762,18.194654 24.541932,18.376829 C 27.158665,18.568497 27.097268,23.821521 28.167490,34.318282 C 28.363924,36.244900 29.278841,40.987701 29.183606,39.911517 L 28.735254,34.844999 C 28.506079,32.255242 28.655367,25.015728 30.743871,25.148473 C 32.752297,25.276126 33.143254,29.893314 33.252206,37.259966 z "
         id="path5575"
         sodipodi:nodetypes="csccsssssssssssssssssss" />
      <path
         style="fill:none;fill-opacity:1.0000000;fill-rule:evenodd;stroke:#000000;stroke-width:1.5471961;stroke-linejoin:round;stroke-miterlimit:4.0000000;stroke-opacity:0.040723983"
         d="M 33.252206,37.259966 C 33.312326,41.324781 33.782224,39.185751 33.865954,43.711545 C 34.011026,51.553020 32.954066,50.707842 31.913676,61.802882 C 24.625558,62.281215 14.015866,62.730730 11.996168,60.904762 C 10.111443,58.017407 7.8840866,53.466603 5.8126086,49.686760 C 4.6281910,47.525542 2.1332070,35.505834 5.8432936,34.371787 C 7.7818536,33.779236 8.7764956,44.310438 9.4522656,44.780624 C 9.9843166,45.150814 8.6979236,31.485574 8.3132996,26.665795 C 8.0447866,23.301027 7.2674556,19.485589 8.1518356,17.860836 C 9.4090986,15.551035 11.645235,17.439942 12.127519,18.975851 C 12.499562,20.160682 12.728156,19.912596 13.186434,23.385198 C 14.013203,29.650051 15.607237,38.459304 15.607237,38.459304 C 15.607237,38.459304 15.384900,30.246652 15.384900,30.246652 C 14.491118,21.409009 14.337455,14.730514 17.133885,14.573316 C 20.456336,14.386539 20.708463,20.440550 20.953118,30.139001 C 20.985209,31.411115 21.670741,36.999572 21.670741,36.999572 C 21.670741,36.999572 22.159680,33.595863 22.130250,31.054641 C 22.036080,22.923097 22.054762,18.194654 24.541932,18.376829 C 27.158665,18.568497 27.097268,23.821521 28.167490,34.318282 C 28.363924,36.244900 29.278841,40.987701 29.183606,39.911517 L 28.735254,34.844999 C 28.506079,32.255242 28.655367,25.015728 30.743871,25.148473 C 32.752297,25.276126 33.143254,29.893314 33.252206,37.259966 z "
         id="path5573"
         sodipodi:nodetypes="csccsssssssssssssssssss" />
      <path
         style="fill:none;fill-opacity:1.0000000;fill-rule:evenodd;stroke:#000000;stroke-width:2.4693661;stroke-linejoin:round;stroke-miterlimit:4.0000000;stroke-opacity:0.040723983"
         d="M 33.252206,37.259966 C 33.312326,41.324781 33.782224,39.185751 33.865954,43.711545 C 34.011026,51.553020 32.954066,50.707842 31.913676,61.802882 C 24.625558,62.281215 14.015866,62.730730 11.996168,60.904762 C 10.111443,58.017407 7.8840866,53.466603 5.8126086,49.686760 C 4.6281910,47.525542 2.1332070,35.505834 5.8432936,34.371787 C 7.7818536,33.779236 8.7764956,44.310438 9.4522656,44.780624 C 9.9843166,45.150814 8.6979236,31.485574 8.3132996,26.665795 C 8.0447866,23.301027 7.2674556,19.485589 8.1518356,17.860836 C 9.4090986,15.551035 11.645235,17.439942 12.127519,18.975851 C 12.499562,20.160682 12.728156,19.912596 13.186434,23.385198 C 14.013203,29.650051 15.607237,38.459304 15.607237,38.459304 C 15.607237,38.459304 15.384900,30.246652 15.384900,30.246652 C 14.491118,21.409009 14.337455,14.730514 17.133885,14.573316 C 20.456336,14.386539 20.708463,20.440550 20.953118,30.139001 C 20.985209,31.411115 21.670741,36.999572 21.670741,36.999572 C 21.670741,36.999572 22.159680,33.595863 22.130250,31.054641 C 22.036080,22.923097 22.054762,18.194654 24.541932,18.376829 C 27.158665,18.568497 27.097268,23.821521 28.167490,34.318282 C 28.363924,36.244900 29.278841,40.987701 29.183606,39.911517 L 28.735254,34.844999 C 28.506079,32.255242 28.655367,25.015728 30.743871,25.148473 C 32.752297,25.276126 33.143254,29.893314 33.252206,37.259966 z "
         id="path5571"
         sodipodi:nodetypes="csccsssssssssssssssssss" />
      <path
         style="fill:url(#linearGradient2318);fill-opacity:1.0000000;fill-rule:evenodd;stroke:url(#linearGradient2320);stroke-width:1.2409327;stroke-linejoin:round;stroke-miterlimit:4.0000000;stroke-opacity:1.0000000"
         d="M 33.252206,37.259966 C 33.312326,41.324781 33.782224,39.185751 33.865954,43.711545 C 34.011026,51.553020 32.954066,50.707842 31.913676,61.802882 C 24.625558,62.281215 14.015866,62.730730 11.996168,60.904762 C 10.111443,58.017407 7.8840866,53.466603 5.8126086,49.686760 C 4.6281910,47.525542 2.1332070,35.505834 5.8432936,34.371787 C 7.7818536,33.779236 8.7764956,44.310438 9.4522656,44.780624 C 9.9843166,45.150814 8.6979236,31.485574 8.3132996,26.665795 C 8.0447866,23.301027 7.2674556,19.485589 8.1518356,17.860836 C 9.4090986,15.551035 11.645235,17.439942 12.127519,18.975851 C 12.499562,20.160682 12.728156,19.912596 13.186434,23.385198 C 14.013203,29.650051 15.607237,38.459304 15.607237,38.459304 C 15.607237,38.459304 15.384900,30.246652 15.384900,30.246652 C 14.491118,21.409009 14.337455,14.730514 17.133885,14.573316 C 20.456336,14.386539 20.708463,20.440550 20.953118,30.139001 C 20.985209,31.411115 21.670741,36.999572 21.670741,36.999572 C 21.670741,36.999572 22.159680,33.595863 22.130250,31.054641 C 22.036080,22.923097 22.054762,18.194654 24.541932,18.376829 C 27.158665,18.568497 27.097268,23.821521 28.167490,34.318282 C 28.363924,36.244900 29.278841,40.987701 29.183606,39.911517 L 28.735254,34.844999 C 28.506079,32.255242 28.655367,25.015728 30.743871,25.148473 C 32.752297,25.276126 33.143254,29.893314 33.252206,37.259966 z "
         id="path11247"
         sodipodi:nodetypes="csccsssssssssssssssssss" />
      <path
         style="fill:url(#radialGradient2471);fill-opacity:1.0000000;fill-rule:evenodd;stroke:none;stroke-width:1.5875000;stroke-linejoin:round;stroke-miterlimit:4.0000000;stroke-opacity:1.0000000"
         d="M 34.603634,43.800230 C 33.964818,51.976124 32.225911,50.307148 31.185526,61.402180 C 23.897418,61.880516 13.287750,62.330028 11.268058,60.504060 C 9.3833316,57.616708 7.0078386,53.136660 5.0845126,49.286052 C 2.4108446,34.188271 6.5183876,29.292417 8.7241566,44.379926 C 7.8353546,13.296876 10.513009,9.0968240 14.879117,38.058607 C 15.315731,15.811147 21.742152,38.923433 21.742152,38.923433 C 21.196386,30.405262 27.288961,39.648073 28.455454,39.510820 C 28.455454,39.510820 34.160138,40.117259 34.603634,43.800230 z "
         id="path6615"
         sodipodi:nodetypes="ccccccccc" />
      <path
         style="opacity:0.44268772;fill:url(#radialGradient3247);fill-opacity:1.0000000;fill-rule:evenodd;stroke:none;stroke-width:1.5138743;stroke-linejoin:round;stroke-miterlimit:4.0000000;stroke-opacity:1.0000000"
         d="M 33.470512,37.059538 C 33.746124,41.116844 34.000529,38.985324 34.084259,43.511118 C 34.229332,51.352594 33.172372,50.507415 32.131982,61.602455 C 24.843863,62.080787 14.234172,62.530302 12.214472,60.704335 C 10.329748,57.816981 8.1023906,53.266175 6.0309146,49.486333 C 4.8464966,47.325114 2.3515126,35.305406 6.0615986,34.171359 C 8.0001576,33.578809 8.9947996,44.110010 9.6705706,44.580197 C 10.202621,44.950386 8.9162286,31.285147 8.5316046,26.465369 C 8.2630916,23.100600 6.8994706,19.259954 8.0156976,17.760338 C 9.0064446,16.429298 11.863540,17.239514 12.345824,18.775424 C 12.717868,19.960255 12.946461,19.712169 13.404739,23.184770 C 14.231509,29.449625 15.825542,38.258877 15.825542,38.258877 C 15.825542,38.258877 15.603206,30.046224 15.603206,30.046224 C 14.709423,21.208581 14.555760,14.530086 17.352190,14.372888 C 20.674642,14.186111 20.926769,20.240122 21.171423,29.938574 C 21.203514,31.210688 21.889046,36.799146 21.889046,36.799146 C 21.889046,36.799146 22.366574,33.312919 22.337144,30.771698 C 22.242974,22.640152 22.273066,17.994227 24.760237,18.176402 C 27.376970,18.368070 27.315573,23.621093 28.385796,34.117855 C 28.582229,36.044474 29.497146,40.787274 29.401910,39.711090 L 28.953559,34.644571 C 28.351095,27.836530 28.519229,25.096961 30.607734,25.229706 C 32.616159,25.357358 32.961784,29.570543 33.470512,37.059538 z "
         id="path2487"
         sodipodi:nodetypes="csccsssssssssssssssssss" />
      <path
         sodipodi:nodetypes="cssss"
         id="path4007"
         d="M 9.5070496,16.656023 C 11.274665,16.589316 12.309505,18.974872 12.453534,20.204031 C 12.578762,21.272746 11.599562,23.452075 10.314826,23.549642 C 9.5521876,23.607559 7.9210786,20.923291 7.7655016,19.595588 C 7.6518196,18.625419 7.8780176,16.716394 9.5070496,16.656023 z "
         style="fill:url(#linearGradient4773);fill-opacity:1.0000000;fill-rule:evenodd;stroke:none;stroke-width:1.0000000px;stroke-linecap:butt;stroke-linejoin:miter;stroke-opacity:1.0000000" />
      <path
         sodipodi:nodetypes="cssss"
         id="path4777"
         d="M 17.333548,14.691537 C 19.107973,14.624829 19.899303,17.010386 19.917864,18.239546 C 19.934003,19.308259 18.732345,21.487589 17.437647,21.585156 C 16.669099,21.643073 15.311989,18.958806 15.291940,17.631101 C 15.277289,16.660933 15.698352,14.751908 17.333548,14.691537 z "
         style="fill:url(#linearGradient4779);fill-opacity:1.0000000;fill-rule:evenodd;stroke:none;stroke-width:1.0000000px;stroke-linecap:butt;stroke-linejoin:miter;stroke-opacity:1.0000000" />
      <path
         sodipodi:nodetypes="cssss"
         id="path4781"
         d="M 24.362556,18.295463 C 26.070419,18.232142 26.792541,20.496601 26.790280,21.663363 C 26.788315,22.677826 25.596810,24.746526 24.349878,24.839140 C 23.609683,24.894118 22.348242,22.346111 22.350684,21.085805 C 22.352467,20.164886 22.788716,18.352770 24.362556,18.295463 z "
         style="fill:url(#linearGradient4783);fill-opacity:1.0000000;fill-rule:evenodd;stroke:none;stroke-width:1.0000000px;stroke-linecap:butt;stroke-linejoin:miter;stroke-opacity:1.0000000" />
      <path
         sodipodi:nodetypes="cssss"
         id="path4785"
         d="M 30.690828,25.108038 C 32.094058,25.050447 32.687374,27.109969 32.685516,28.171138 C 32.683902,29.093791 31.704926,30.975271 30.680412,31.059504 C 30.072246,31.109506 29.035810,28.792098 29.037816,27.645850 C 29.039282,26.808275 29.397717,25.160158 30.690828,25.108038 z "
         style="fill:url(#linearGradient4787);fill-opacity:1.0000000;fill-rule:evenodd;stroke:none;stroke-width:1.0000000px;stroke-linecap:butt;stroke-linejoin:miter;stroke-opacity:1.0000000" />
      <path
         sodipodi:nodetypes="cssss"
         id="path4795"
         d="M 6.3754256,34.673331 C 7.5254746,35.507978 8.0049456,38.082317 7.9999616,39.212351 C 7.9956306,40.194878 7.1872826,41.575428 6.3474796,41.011013 C 5.8489626,40.675969 5.0072230,37.543763 5.0126054,36.323132 C 5.0165374,35.431202 5.3156286,33.903171 6.3754256,34.673331 z "
         style="fill:url(#linearGradient4799);fill-opacity:1.0000000;fill-rule:evenodd;stroke:none;stroke-width:1.0000000px;stroke-linecap:butt;stroke-linejoin:miter;stroke-opacity:1.0000000" />
      <path
         transform="matrix(0.800000,0.000000,0.000000,0.800000,-0.333573,-0.520140)"
         d="M 41.467305 55.183414 A 14.098884 5.4226475 0 1 1  13.269538,55.183414 A 14.098884 5.4226475 0 1 1  41.467305 55.183414 z"
         sodipodi:ry="5.4226475"
         sodipodi:rx="14.098884"
         sodipodi:cy="55.183414"
         sodipodi:cx="27.368422"
         id="path7895"
         style="fill:url(#radialGradient7903);fill-opacity:1.0000000;stroke:none;stroke-width:0.63749999;stroke-linecap:round;stroke-linejoin:round;stroke-miterlimit:4.0000000;stroke-dashoffset:0.0000000;stroke-opacity:0.040723983"
         sodipodi:type="arc" />
    </g>
  </g>
</svg>
