#define round_ul_width 5
#define round_ul_height 5
static unsigned char round_ul_bits[] = {
   0x1f, 0x1f, 0x0f, 0x07, 0x03 };
