<?xml version="1.0" encoding="UTF-8" standalone="no"?>
<!-- Created with Inkscape (http://www.inkscape.org/) -->
<svg
   xmlns:a="http://ns.adobe.com/AdobeSVGViewerExtensions/3.0/"
   xmlns:i="http://ns.adobe.com/AdobeIllustrator/10.0/"
   xmlns:dc="http://purl.org/dc/elements/1.1/"
   xmlns:cc="http://web.resource.org/cc/"
   xmlns:rdf="http://www.w3.org/1999/02/22-rdf-syntax-ns#"
   xmlns:svg="http://www.w3.org/2000/svg"
   xmlns="http://www.w3.org/2000/svg"
   xmlns:sodipodi="http://inkscape.sourceforge.net/DTD/sodipodi-0.dtd"
   xmlns:inkscape="http://www.inkscape.org/namespaces/inkscape"
   width="128"
   height="128"
   id="svg1445"
   sodipodi:version="0.32"
   inkscape:version="0.43"
   version="1.0"
   sodipodi:docbase="/home/pinheiro/Documents/pics/new oxygen/svg"
   sodipodi:docname="bullhorn.svg">
  <defs
     id="defs1447">
    <radialGradient
       id="XMLID_26_"
       cx="30.242201"
       cy="49.068802"
       r="7.211"
       fx="30.242201"
       fy="49.068802"
       gradientUnits="userSpaceOnUse">
				<stop
   offset="0"
   style="stop-color:#FFFFFF"
   id="stop258" />

				<stop
   offset="1"
   style="stop-color:#000000"
   id="stop260" />

				<a:midPointStop
   offset="0"
   style="stop-color:#FFFFFF" />

				<a:midPointStop
   offset="0.5"
   style="stop-color:#FFFFFF" />

				<a:midPointStop
   offset="1"
   style="stop-color:#000000" />

			</radialGradient>
    <radialGradient
       id="XMLID_25_"
       cx="31.742201"
       cy="53.067902"
       r="9.8233995"
       fx="31.742201"
       fy="53.067902"
       gradientUnits="userSpaceOnUse">
				<stop
   offset="0"
   style="stop-color:#FFFFFF"
   id="stop251" />

				<stop
   offset="1"
   style="stop-color:#000000"
   id="stop253" />

				<a:midPointStop
   offset="0"
   style="stop-color:#FFFFFF" />

				<a:midPointStop
   offset="0.5"
   style="stop-color:#FFFFFF" />

				<a:midPointStop
   offset="1"
   style="stop-color:#000000" />

			</radialGradient>
    <linearGradient
       id="XMLID_24_"
       gradientUnits="userSpaceOnUse"
       x1="35.075699"
       y1="44.382301"
       x2="35.982399"
       y2="49.822601">
				<stop
   offset="0"
   style="stop-color:#DDDDDD"
   id="stop234" />

				<stop
   offset="1"
   style="stop-color:#FFFFFF"
   id="stop236" />

				<a:midPointStop
   offset="0"
   style="stop-color:#DDDDDD" />

				<a:midPointStop
   offset="0.5"
   style="stop-color:#DDDDDD" />

				<a:midPointStop
   offset="1"
   style="stop-color:#FFFFFF" />

			</linearGradient>
    <linearGradient
       id="XMLID_23_"
       gradientUnits="userSpaceOnUse"
       x1="38.400902"
       y1="64.830597"
       x2="46.561901"
       y2="60.75">
				<stop
   offset="0"
   style="stop-color:#DDDDDD"
   id="stop213" />

				<stop
   offset="0.118"
   style="stop-color:#EEEEEE"
   id="stop215" />

				<stop
   offset="0.3101"
   style="stop-color:#F3F3F3"
   id="stop217" />

				<stop
   offset="0.5"
   style="stop-color:#FFFFFF"
   id="stop219" />

				<stop
   offset="0.6711"
   style="stop-color:#F5F5F5"
   id="stop221" />

				<stop
   offset="0.8933"
   style="stop-color:#EEEEEE"
   id="stop223" />

				<stop
   offset="1"
   style="stop-color:#DDDDDD"
   id="stop225" />

				<a:midPointStop
   offset="0"
   style="stop-color:#DDDDDD" />

				<a:midPointStop
   offset="0.5"
   style="stop-color:#DDDDDD" />

				<a:midPointStop
   offset="0.118"
   style="stop-color:#EEEEEE" />

				<a:midPointStop
   offset="0.6579"
   style="stop-color:#EEEEEE" />

				<a:midPointStop
   offset="0.5"
   style="stop-color:#FFFFFF" />

				<a:midPointStop
   offset="0.3816"
   style="stop-color:#FFFFFF" />

				<a:midPointStop
   offset="0.8933"
   style="stop-color:#EEEEEE" />

				<a:midPointStop
   offset="0.5"
   style="stop-color:#EEEEEE" />

				<a:midPointStop
   offset="1"
   style="stop-color:#DDDDDD" />

			</linearGradient>
    <linearGradient
       id="XMLID_22_"
       gradientUnits="userSpaceOnUse"
       x1="40.278801"
       y1="56.563999"
       x2="49.7784"
       y2="78.063103">
				<stop
   offset="0"
   style="stop-color:#808080"
   id="stop206" />

				<stop
   offset="1"
   style="stop-color:#969696"
   id="stop208" />

				<a:midPointStop
   offset="0"
   style="stop-color:#808080" />

				<a:midPointStop
   offset="0.5"
   style="stop-color:#808080" />

				<a:midPointStop
   offset="1"
   style="stop-color:#969696" />

			</linearGradient>
    <linearGradient
       id="XMLID_21_"
       gradientUnits="userSpaceOnUse"
       x1="106.0298"
       y1="6.3168998"
       x2="106.0298"
       y2="57.053799">
				<stop
   offset="0"
   style="stop-color:#0050B2"
   id="stop155" />

				<stop
   offset="1.479223e-04"
   style="stop-color:#0050B2"
   id="stop157" />

				<stop
   offset="0.0247"
   style="stop-color:#1D65BD"
   id="stop159" />

				<stop
   offset="0.0507"
   style="stop-color:#3476C6"
   id="stop161" />

				<stop
   offset="0.0787"
   style="stop-color:#4482CC"
   id="stop163" />

				<stop
   offset="0.1101"
   style="stop-color:#4E89D0"
   id="stop165" />

				<stop
   offset="0.1517"
   style="stop-color:#518BD1"
   id="stop167" />

				<stop
   offset="0.1748"
   style="stop-color:#5E94D5"
   id="stop169" />

				<stop
   offset="0.2296"
   style="stop-color:#78A4DB"
   id="stop171" />

				<stop
   offset="0.2861"
   style="stop-color:#8AB0E0"
   id="stop173" />

				<stop
   offset="0.345"
   style="stop-color:#95B8E3"
   id="stop175" />

				<stop
   offset="0.4101"
   style="stop-color:#99BAE4"
   id="stop177" />

				<stop
   offset="0.4859"
   style="stop-color:#91B5E2"
   id="stop179" />

				<stop
   offset="0.6046"
   style="stop-color:#7AA7DD"
   id="stop181" />

				<stop
   offset="0.691"
   style="stop-color:#669AD9"
   id="stop183" />

				<stop
   offset="0.7542"
   style="stop-color:#578DCF"
   id="stop185" />

				<stop
   offset="0.8763"
   style="stop-color:#2F6BB6"
   id="stop187" />

				<stop
   offset="1"
   style="stop-color:#004499"
   id="stop189" />

				<a:midPointStop
   offset="0"
   style="stop-color:#0050B2" />

				<a:midPointStop
   offset="0.2388"
   style="stop-color:#0050B2" />

				<a:midPointStop
   offset="0.1517"
   style="stop-color:#518BD1" />

				<a:midPointStop
   offset="0.2727"
   style="stop-color:#518BD1" />

				<a:midPointStop
   offset="0.4101"
   style="stop-color:#99BAE4" />

				<a:midPointStop
   offset="0.6087"
   style="stop-color:#99BAE4" />

				<a:midPointStop
   offset="0.691"
   style="stop-color:#669AD9" />

				<a:midPointStop
   offset="0.56"
   style="stop-color:#669AD9" />

				<a:midPointStop
   offset="1"
   style="stop-color:#004499" />

			</linearGradient>
    <linearGradient
       id="XMLID_20_"
       gradientUnits="userSpaceOnUse"
       x1="19.762699"
       y1="13.5195"
       x2="19.262699"
       y2="41.5191">
				<stop
   offset="0.3596"
   style="stop-color:#6193CF"
   id="stop142" />

				<stop
   offset="0.4957"
   style="stop-color:#5B8FCD"
   id="stop144" />

				<stop
   offset="0.6817"
   style="stop-color:#4983C9"
   id="stop146" />

				<stop
   offset="0.8955"
   style="stop-color:#2D6FC1"
   id="stop148" />

				<stop
   offset="1"
   style="stop-color:#1C64BD"
   id="stop150" />

				<a:midPointStop
   offset="0.3596"
   style="stop-color:#6193CF" />

				<a:midPointStop
   offset="0.6404"
   style="stop-color:#6193CF" />

				<a:midPointStop
   offset="1"
   style="stop-color:#1C64BD" />

			</linearGradient>
    <linearGradient
       id="XMLID_19_"
       gradientUnits="userSpaceOnUse"
       x1="12.6265"
       y1="4.1093998"
       x2="12.6265"
       y2="52.921001">
				<stop
   offset="0"
   style="stop-color:#0050B2"
   id="stop103" />

				<stop
   offset="3.068021e-04"
   style="stop-color:#0050B2"
   id="stop105" />

				<stop
   offset="0.0512"
   style="stop-color:#1D65BD"
   id="stop107" />

				<stop
   offset="0.1051"
   style="stop-color:#3476C6"
   id="stop109" />

				<stop
   offset="0.1633"
   style="stop-color:#4482CC"
   id="stop111" />

				<stop
   offset="0.2284"
   style="stop-color:#4E89D0"
   id="stop113" />

				<stop
   offset="0.3146"
   style="stop-color:#518BD1"
   id="stop115" />

				<stop
   offset="0.3367"
   style="stop-color:#5E94D5"
   id="stop117" />

				<stop
   offset="0.3891"
   style="stop-color:#78A4DB"
   id="stop119" />

				<stop
   offset="0.4432"
   style="stop-color:#8AB0E0"
   id="stop121" />

				<stop
   offset="0.4995"
   style="stop-color:#95B8E3"
   id="stop123" />

				<stop
   offset="0.5618"
   style="stop-color:#99BAE4"
   id="stop125" />

				<stop
   offset="0.5967"
   style="stop-color:#91B5E2"
   id="stop127" />

				<stop
   offset="0.6513"
   style="stop-color:#7AA7DD"
   id="stop129" />

				<stop
   offset="0.691"
   style="stop-color:#669AD9"
   id="stop131" />

				<stop
   offset="0.7542"
   style="stop-color:#578DCF"
   id="stop133" />

				<stop
   offset="0.8763"
   style="stop-color:#2F6BB6"
   id="stop135" />

				<stop
   offset="1"
   style="stop-color:#004499"
   id="stop137" />

				<a:midPointStop
   offset="0"
   style="stop-color:#0050B2" />

				<a:midPointStop
   offset="0.2388"
   style="stop-color:#0050B2" />

				<a:midPointStop
   offset="0.3146"
   style="stop-color:#518BD1" />

				<a:midPointStop
   offset="0.2727"
   style="stop-color:#518BD1" />

				<a:midPointStop
   offset="0.5618"
   style="stop-color:#99BAE4" />

				<a:midPointStop
   offset="0.6087"
   style="stop-color:#99BAE4" />

				<a:midPointStop
   offset="0.691"
   style="stop-color:#669AD9" />

				<a:midPointStop
   offset="0.56"
   style="stop-color:#669AD9" />

				<a:midPointStop
   offset="1"
   style="stop-color:#004499" />

			</linearGradient>
    <linearGradient
       id="XMLID_18_"
       gradientUnits="userSpaceOnUse"
       x1="62.080601"
       y1="16.0098"
       x2="62.080601"
       y2="44.009899">
				<stop
   offset="0"
   style="stop-color:#A4C0E4"
   id="stop90" />

				<stop
   offset="0.2171"
   style="stop-color:#9EBCE2"
   id="stop92" />

				<stop
   offset="0.5078"
   style="stop-color:#8DB1DD"
   id="stop94" />

				<stop
   offset="0.8387"
   style="stop-color:#719ED4"
   id="stop96" />

				<stop
   offset="1"
   style="stop-color:#6193CF"
   id="stop98" />

				<a:midPointStop
   offset="0"
   style="stop-color:#A4C0E4" />

				<a:midPointStop
   offset="0.6449"
   style="stop-color:#A4C0E4" />

				<a:midPointStop
   offset="1"
   style="stop-color:#6193CF" />

			</linearGradient>
    <linearGradient
       id="XMLID_17_"
       gradientUnits="userSpaceOnUse"
       x1="55.752899"
       y1="16.0098"
       x2="55.752899"
       y2="44.009899">
				<stop
   offset="0"
   style="stop-color:#A4C0E4"
   id="stop77" />

				<stop
   offset="0.2171"
   style="stop-color:#9EBCE2"
   id="stop79" />

				<stop
   offset="0.5078"
   style="stop-color:#8DB1DD"
   id="stop81" />

				<stop
   offset="0.8387"
   style="stop-color:#719ED4"
   id="stop83" />

				<stop
   offset="1"
   style="stop-color:#6193CF"
   id="stop85" />

				<a:midPointStop
   offset="0"
   style="stop-color:#A4C0E4" />

				<a:midPointStop
   offset="0.6449"
   style="stop-color:#A4C0E4" />

				<a:midPointStop
   offset="1"
   style="stop-color:#6193CF" />

			</linearGradient>
    <linearGradient
       id="XMLID_16_"
       gradientUnits="userSpaceOnUse"
       x1="27.813999"
       y1="3.98"
       x2="27.813999"
       y2="52.943401">
				<stop
   offset="0"
   style="stop-color:#0050B2"
   id="stop38" />

				<stop
   offset="3.068021e-04"
   style="stop-color:#0050B2"
   id="stop40" />

				<stop
   offset="0.0512"
   style="stop-color:#1D65BD"
   id="stop42" />

				<stop
   offset="0.1051"
   style="stop-color:#3476C6"
   id="stop44" />

				<stop
   offset="0.1633"
   style="stop-color:#4482CC"
   id="stop46" />

				<stop
   offset="0.2284"
   style="stop-color:#4E89D0"
   id="stop48" />

				<stop
   offset="0.3146"
   style="stop-color:#518BD1"
   id="stop50" />

				<stop
   offset="0.3367"
   style="stop-color:#5E94D5"
   id="stop52" />

				<stop
   offset="0.3891"
   style="stop-color:#78A4DB"
   id="stop54" />

				<stop
   offset="0.4432"
   style="stop-color:#8AB0E0"
   id="stop56" />

				<stop
   offset="0.4995"
   style="stop-color:#95B8E3"
   id="stop58" />

				<stop
   offset="0.5618"
   style="stop-color:#99BAE4"
   id="stop60" />

				<stop
   offset="0.5967"
   style="stop-color:#91B5E2"
   id="stop62" />

				<stop
   offset="0.6513"
   style="stop-color:#7AA7DD"
   id="stop64" />

				<stop
   offset="0.691"
   style="stop-color:#669AD9"
   id="stop66" />

				<stop
   offset="0.7542"
   style="stop-color:#578DCF"
   id="stop68" />

				<stop
   offset="0.8763"
   style="stop-color:#2F6BB6"
   id="stop70" />

				<stop
   offset="1"
   style="stop-color:#004499"
   id="stop72" />

				<a:midPointStop
   offset="0"
   style="stop-color:#0050B2" />

				<a:midPointStop
   offset="0.2388"
   style="stop-color:#0050B2" />

				<a:midPointStop
   offset="0.3146"
   style="stop-color:#518BD1" />

				<a:midPointStop
   offset="0.2727"
   style="stop-color:#518BD1" />

				<a:midPointStop
   offset="0.5618"
   style="stop-color:#99BAE4" />

				<a:midPointStop
   offset="0.6087"
   style="stop-color:#99BAE4" />

				<a:midPointStop
   offset="0.691"
   style="stop-color:#669AD9" />

				<a:midPointStop
   offset="0.56"
   style="stop-color:#669AD9" />

				<a:midPointStop
   offset="1"
   style="stop-color:#004499" />

			</linearGradient>
    <linearGradient
       id="XMLID_15_"
       gradientUnits="userSpaceOnUse"
       x1="54.910198"
       y1="53.396999"
       x2="54.910198"
       y2="12.5935">
				<stop
   offset="0"
   style="stop-color:#C7C7C7"
   id="stop25" />

				<stop
   offset="0.5"
   style="stop-color:#FFFFFF"
   id="stop27" />

				<stop
   offset="0.63"
   style="stop-color:#F8F8F8"
   id="stop29" />

				<stop
   offset="0.8162"
   style="stop-color:#E5E5E5"
   id="stop31" />

				<stop
   offset="1"
   style="stop-color:#CCCCCC"
   id="stop33" />

				<a:midPointStop
   offset="0"
   style="stop-color:#C7C7C7" />

				<a:midPointStop
   offset="0.5"
   style="stop-color:#C7C7C7" />

				<a:midPointStop
   offset="0.5"
   style="stop-color:#FFFFFF" />

				<a:midPointStop
   offset="0.6292"
   style="stop-color:#FFFFFF" />

				<a:midPointStop
   offset="1"
   style="stop-color:#CCCCCC" />

			</linearGradient>
    <linearGradient
       id="XMLID_14_"
       gradientUnits="userSpaceOnUse"
       x1="4.5054002"
       y1="67.147003"
       x2="114.2169"
       y2="16.4513">
				<stop
   offset="0"
   style="stop-color:#002D61"
   id="stop16" />

				<stop
   offset="1"
   style="stop-color:#ADADAD"
   id="stop18" />

				<a:midPointStop
   offset="0"
   style="stop-color:#002D61" />

				<a:midPointStop
   offset="0.5"
   style="stop-color:#002D61" />

				<a:midPointStop
   offset="1"
   style="stop-color:#ADADAD" />

			</linearGradient>
  </defs>
  <sodipodi:namedview
     id="base"
     pagecolor="#ffffff"
     bordercolor="#666666"
     borderopacity="1.0"
     inkscape:pageopacity="0.0"
     inkscape:pageshadow="2"
     inkscape:zoom="1.375"
     inkscape:cx="-93.746793"
     inkscape:cy="31.504998"
     inkscape:current-layer="layer1"
     showgrid="true"
     inkscape:document-units="px"
     inkscape:grid-bbox="true"
     inkscape:window-width="839"
     inkscape:window-height="543"
     inkscape:window-x="0"
     inkscape:window-y="629" />
  <metadata
     id="metadata1450">
    <rdf:RDF>
      <cc:Work
         rdf:about="">
        <dc:format>image/svg+xml</dc:format>
        <dc:type
           rdf:resource="http://purl.org/dc/dcmitype/StillImage" />
      </cc:Work>
    </rdf:RDF>
  </metadata>
  <g
     id="layer1"
     inkscape:label="Layer 1"
     inkscape:groupmode="layer">
    <g
       transform="matrix(1.12828,0,0,1.12828,0.998891,12.00048)"
       id="Ebene_1"
       i:layer="yes"
       i:dimmedPercent="50"
       i:rgbTrio="#4F008000FFFF">
			<path
   i:knockout="Off"
   d="M 100.31,2.113 C 99.332,3.057 98.821,4.324 98.706,5.684 C 91.989,12.444 81.423,16.744 70.357,17.189 C 70.273,17.192 70.231,17.26 70.159,17.283 C 68.291,17.189 63.004,17.193 44.983,17.209 L 19.531,17.231 L 19.302,17.245 C 19.301,17.245 18.66,17.32 18.66,17.32 L 18.66,17.32 C 18.66,17.32 18.394,17.369 18.394,17.369 L 16.209,17.927 C 16.185,17.933 16.127,17.967 16.081,17.99 C 16.091,17.99 16.102,17.992 16.147,17.982 C 16.113,17.989 16.085,17.997 16.051,18.004 C 16.021,18.02 16.005,18.025 15.973,18.042 C 15.98,18.038 16.006,18.022 16.006,18.022 C 16.028,18.009 16.029,18.011 16.039,18.006 C 14.172,18.413 12.459,18.851 10.955,19.309 C 10.936,19.315 9.098,19.906 9.098,19.906 C 9.078,19.913 7.239,20.575 7.239,20.575 C 7.259,20.569 6.194,20.992 6.194,20.992 C 6.184,20.996 5.431,21.302 5.431,21.302 C 5.412,21.31 3.686,22.082 3.686,22.082 C 2.284,22.711 1.297,23.947 0.978,25.473 C 0.329,28.581 0,31.746 0,34.885 C 0,38.209 0.371,41.565 1.101,44.858 C 1.42,46.301 2.411,47.541 3.75,48.171 C 7.404,49.888 11.631,51.263 16.311,52.266 C 16.41,52.311 16.6,52.396 16.6,52.396 C 16.648,52.418 16.715,52.441 16.766,52.455 L 17.055,52.533 C 17.055,52.525 18.05,52.682 18.051,52.682 C 18.052,52.682 18.309,52.7 18.309,52.7 C 18.309,52.7 19.638,52.7 20.489,52.7 C 20.766,53.862 21.712,57.834 21.712,57.834 C 22.203,59.896 23.948,61.42 26.054,61.628 C 26.054,61.628 28.202,61.844 29.315,61.955 C 30.245,64.962 31.69,69.108 33.655,73.038 C 36.739,79.205 42.229,85.017 44.507,86.155 C 47.204,87.504 50.259,87.221 52.29,85.435 C 52.286,85.438 53.617,84.288 53.617,84.288 C 56.233,82.01 58.012,80.43 58.905,79.239 C 60.139,77.592 60.765,75.941 60.765,74.335 C 60.765,73.406 60.556,72.519 60.145,71.695 C 59.381,70.167 57.982,69.148 56.281,68.762 C 55.717,67.175 54.999,65.332 54.076,63.948 C 54.048,63.905 54.001,63.886 53.967,63.849 C 53.699,63.386 53.221,62.559 52.857,61.93 C 53.342,61.338 53.847,60.639 54.145,59.826 C 54.164,59.776 54.179,59.721 54.189,59.669 L 54.494,58.116 C 54.495,58.111 54.527,57.757 54.527,57.757 C 54.527,55.371 53.13,53.754 51.817,52.699 C 56.001,52.699 69.192,52.699 69.192,52.699 C 80.881,52.901 91.99,57.309 98.957,64.488 C 99.154,65.451 99.512,66.326 100.072,66.995 C 102.837,70.307 106.197,69.612 107.161,69.32 C 110.007,68.459 111.717,65.949 111.934,63.914 C 112.938,54.768 113.448,45.103 113.448,35.191 C 113.448,24.915 112.905,14.936 111.834,5.529 C 111.59,3.346 109.799,1.237 107.48,0.402 C 104.977,-0.497 102.364,0.126 100.31,2.113 z M 70.174,19.043 C 70.267,19.087 70.34,19.169 70.44,19.186 C 70.44,19.186 70.374,19.175 70.307,19.164 C 70.256,19.129 70.217,19.085 70.174,19.043 z "
   id="path7"
   style="opacity:0.05;fill:#323232" />

			<path
   i:knockout="Off"
   d="M 101.005,2.832 C 100.107,3.7 99.611,4.882 99.611,6.159 C 99.611,6.166 99.613,6.195 99.613,6.208 C 92.734,13.25 81.861,17.728 70.397,18.188 C 70.547,18.182 70.667,18.28 70.802,18.338 C 69.842,18.187 65.746,18.19 44.983,18.209 L 19.531,18.231 C 19.493,18.231 19.454,18.233 19.416,18.238 L 18.775,18.313 C 18.731,18.318 18.687,18.326 18.643,18.337 L 16.455,18.896 C 16.415,18.906 16.395,18.945 16.357,18.959 C 14.57,19.347 12.842,19.781 11.245,20.267 C 11.23,20.272 9.402,20.86 9.402,20.86 C 9.388,20.865 7.576,21.518 7.576,21.518 C 7.566,21.521 6.563,21.922 6.563,21.922 C 6.583,21.914 5.804,22.23 5.804,22.23 C 5.78,22.24 4.093,22.996 4.093,22.996 C 2.987,23.492 2.208,24.47 1.954,25.68 C 1.321,28.719 1,31.815 1,34.885 C 1,38.136 1.362,41.419 2.077,44.641 C 2.33,45.786 3.116,46.767 4.177,47.267 C 7.81,48.973 12.005,50.331 16.637,51.316 C 16.795,51.386 17.014,51.486 17.014,51.486 C 17.034,51.491 17.318,51.568 17.318,51.568 C 17.309,51.566 17.303,51.557 17.294,51.554 C 17.461,51.595 17.706,51.629 18.18,51.691 C 18.223,51.697 18.266,51.7 18.309,51.7 C 18.309,51.7 20.293,51.7 21.278,51.7 C 21.565,52.903 22.684,57.602 22.684,57.602 C 23.077,59.248 24.47,60.466 26.152,60.632 C 26.152,60.632 29.103,60.928 30.069,61.025 C 30.885,63.73 32.403,68.298 34.549,72.59 C 37.639,78.77 43.041,84.305 44.953,85.26 C 47.302,86.435 49.907,86.198 51.628,84.684 C 51.778,84.553 52.962,83.531 52.962,83.531 C 55.444,81.37 57.269,79.753 58.103,78.639 C 59.205,77.169 59.764,75.721 59.764,74.334 C 59.764,73.563 59.591,72.825 59.249,72.142 C 58.523,70.69 57.152,69.8 55.53,69.604 C 54.93,67.875 54.163,65.884 53.242,64.502 C 53.278,64.556 53.272,64.624 53.297,64.684 C 53.124,64.313 52.683,63.566 51.647,61.837 C 52.223,61.217 52.88,60.367 53.205,59.482 C 53.214,59.433 53.512,57.923 53.512,57.923 C 53.524,57.86 53.526,57.821 53.526,57.757 C 53.526,54.784 50.89,53.172 49.624,52.397 C 49.646,52.411 49.207,52.118 49.01,51.987 C 49.003,51.978 48.995,51.97 48.986,51.961 C 48.986,51.959 48.988,51.941 48.988,51.941 C 48.993,51.901 48.995,51.862 48.995,51.822 C 48.995,51.793 48.994,51.762 48.991,51.733 C 48.991,51.733 48.988,51.703 48.988,51.7 C 49.942,51.7 69.191,51.7 69.191,51.7 C 81.266,51.909 92.7,56.487 99.837,63.944 C 99.96,64.828 100.272,65.677 100.838,66.353 C 103.21,69.196 106.055,68.611 106.87,68.364 C 109.273,67.636 110.761,65.473 110.939,63.808 C 111.939,54.701 112.447,45.072 112.447,35.192 C 112.447,24.952 111.906,15.01 110.84,5.643 C 110.636,3.823 109.114,2.054 107.141,1.343 C 105.01,0.578 102.775,1.121 101.005,2.832 z M 53.252,59.382 C 53.252,59.38 53.256,59.37 53.256,59.37 C 53.256,59.37 53.252,59.38 53.252,59.382 z "
   id="path9"
   style="opacity:0.1;fill:#323232" />

			<path
   i:knockout="Off"
   d="M 101.701,3.55 C 100.999,4.228 100.612,5.154 100.612,6.158 C 100.612,6.158 100.624,6.362 100.631,6.487 C 100.631,6.488 100.639,6.571 100.643,6.613 C 93.609,14.007 82.368,18.707 70.439,19.186 C 70.438,19.185 19.534,19.23 19.534,19.23 L 18.893,19.305 L 16.705,19.864 C 16.718,19.861 16.841,19.867 16.855,19.864 C 14.987,20.261 13.199,20.718 11.539,21.224 L 9.71,21.812 C 9.675,21.824 7.917,22.458 7.917,22.458 C 7.884,22.47 6.937,22.85 6.937,22.85 C 6.933,22.851 6.182,23.156 6.182,23.156 C 6.147,23.171 4.504,23.908 4.504,23.908 C 3.694,24.271 3.122,24.992 2.935,25.884 C 2.315,28.854 2.001,31.882 2.001,34.884 C 2.001,38.063 2.355,41.273 3.054,44.424 C 3.241,45.268 3.82,45.993 4.604,46.362 C 8.239,48.069 12.404,49.408 16.963,50.368 C 17.058,50.425 17.149,50.484 17.282,50.521 C 17.284,50.521 17.583,50.603 17.583,50.603 C 17.584,50.604 18.31,50.699 18.31,50.699 C 18.31,50.699 20.991,50.699 22.069,50.699 C 22.363,51.934 23.658,57.37 23.658,57.37 C 23.952,58.602 24.994,59.513 26.251,59.637 C 26.251,59.637 30.237,60.036 30.829,60.096 C 31.491,62.348 33.12,67.494 35.445,72.143 C 38.396,78.043 43.642,83.487 45.401,84.366 C 47.408,85.37 49.618,85.186 51.03,83.9 C 51.017,83.912 52.303,82.78 52.303,82.78 C 54.741,80.658 56.53,79.073 57.303,78.04 C 58.403,76.574 58.765,75.334 58.765,74.335 C 58.765,73.631 58.584,73.047 58.356,72.589 C 57.71,71.295 56.418,70.523 54.902,70.523 C 54.902,70.523 54.825,70.519 54.792,70.517 C 54.25,68.916 53.405,66.549 52.412,65.058 C 52.43,65.086 51.097,62.862 50.392,61.687 C 51.218,60.907 52.019,59.921 52.307,59.06 C 52.307,59.059 52.527,57.758 52.527,57.758 C 52.527,55.346 50.299,53.983 49.102,53.25 C 49.127,53.267 48.567,52.895 48.354,52.752 C 48.294,52.687 48.123,52.499 47.938,52.297 C 47.966,52.063 47.995,51.822 47.995,51.822 C 47.995,51.822 47.967,51.51 47.939,51.2 C 48.142,51.054 48.327,50.891 48.487,50.7 C 49.45,50.7 69.191,50.7 69.191,50.7 C 81.677,50.916 93.434,55.673 100.738,63.421 C 100.766,64.249 101.058,65.06 101.604,65.711 C 103.583,68.084 105.913,67.609 106.58,67.407 C 108.499,66.826 109.799,65.066 109.945,63.702 C 110.942,54.624 111.447,45.031 111.447,35.192 C 111.447,24.994 110.909,15.09 109.846,5.756 C 109.685,4.322 108.405,2.861 106.801,2.284 C 105.043,1.652 103.185,2.114 101.701,3.55 z M 100.63,6.484 C 100.63,6.484 100.63,6.483 100.63,6.484 z "
   id="path11"
   style="opacity:0.15;fill:#323232" />

			<path
   i:knockout="Off"
   d="M 108.853,5.869 C 108.734,4.81 107.706,3.673 106.462,3.225 C 105.078,2.727 103.596,3.108 102.396,4.269 C 101.888,4.759 101.612,5.434 101.612,6.158 C 101.612,6.265 101.618,6.375 101.631,6.484 C 101.631,6.484 101.66,6.787 101.682,7 C 94.495,14.758 82.916,19.686 70.479,20.185 L 19.535,20.23 C 19.384,20.23 19.288,20.236 19.141,20.273 L 16.953,20.832 C 16.977,20.826 17.039,20.846 17.063,20.841 C 15.225,21.232 13.464,21.682 11.831,22.179 C 11.821,22.182 10.018,22.762 10.018,22.762 C 10.014,22.763 8.258,23.397 8.258,23.397 L 7.31,23.777 L 6.559,24.082 C 6.558,24.082 4.914,24.82 4.914,24.82 C 4.384,25.058 4.034,25.52 3.914,26.089 C 3.307,28.993 3,31.952 3,34.885 C 3,37.99 3.346,41.128 4.029,44.209 C 4.151,44.758 4.52,45.219 5.029,45.458 C 8.673,47.17 12.852,48.518 17.451,49.465 C 17.356,49.505 17.55,49.559 17.55,49.559 L 17.848,49.641 C 18.005,49.684 18.147,49.701 18.309,49.701 L 22.858,49.701 L 24.629,57.14 C 24.824,57.956 25.514,58.561 26.348,58.643 L 31.269,59.136 C 31.375,59.147 31.48,59.125 31.586,59.118 C 32.431,62.117 34.134,67.29 36.338,71.696 C 39.252,77.522 44.372,82.735 45.846,83.471 C 47.481,84.288 49.251,84.166 50.354,83.16 L 51.64,82.028 C 53.959,80.009 55.789,78.389 56.501,77.439 C 58.069,75.349 57.888,73.891 57.459,73.035 C 56.985,72.087 56.029,71.521 54.9,71.521 C 54.674,71.521 54.25,71.514 54.054,71.457 C 53.532,69.895 52.612,67.163 51.577,65.611 C 51.577,65.611 49.681,62.449 49.105,61.488 C 50.11,60.687 51.092,59.531 51.356,58.741 C 51.472,58.392 51.524,58.065 51.524,57.757 C 51.524,55.906 49.653,54.761 48.577,54.103 L 47.699,53.519 C 47.439,53.259 47.085,52.889 46.898,52.635 C 46.952,52.435 46.993,52.178 46.993,51.822 C 46.993,51.524 46.96,51.148 46.89,50.697 L 47.195,50.524 C 47.535,50.331 47.806,50.043 47.979,49.7 L 69.189,49.7 C 82.173,49.925 94.263,54.889 101.732,62.993 L 101.731,63.005 C 101.72,63.104 101.714,63.203 101.714,63.302 C 101.714,63.941 101.942,64.56 102.368,65.07 C 103.911,66.919 105.623,66.652 106.287,66.451 C 107.741,66.011 108.838,64.62 108.948,63.596 C 109.941,54.548 110.444,44.992 110.444,35.194 C 110.447,25.023 109.91,15.158 108.853,5.869 z "
   id="path13"
   style="opacity:0.2;fill:#323232" />

			<linearGradient
   id="linearGradient1562"
   gradientUnits="userSpaceOnUse"
   x1="4.5054002"
   y1="67.147003"
   x2="114.2169"
   y2="16.4513">
				<stop
   offset="0"
   style="stop-color:#002D61"
   id="stop1564" />

				<stop
   offset="1"
   style="stop-color:#ADADAD"
   id="stop1566" />

				<a:midPointStop
   offset="0"
   style="stop-color:#002D61" />

				<a:midPointStop
   offset="0.5"
   style="stop-color:#002D61" />

				<a:midPointStop
   offset="1"
   style="stop-color:#ADADAD" />

			</linearGradient>

			<path
   i:knockout="Off"
   d="M 102.396,2.152 L 102.396,2.152 C 101.888,2.642 101.612,3.317 101.612,4.041 C 101.612,4.148 101.618,4.258 101.631,4.367 C 101.631,4.367 101.66,4.67 101.682,4.883 C 94.495,12.641 82.916,17.569 70.479,18.068 L 19.535,18.113 C 19.384,18.113 19.288,18.119 19.141,18.156 L 16.953,18.715 C 16.977,18.709 17.039,18.729 17.063,18.724 C 15.225,19.115 13.464,19.565 11.831,20.062 C 11.821,20.065 10.018,20.645 10.018,20.645 C 10.014,20.646 8.258,21.28 8.258,21.28 L 7.31,21.66 L 6.559,21.965 C 6.558,21.965 4.914,22.703 4.914,22.703 C 4.384,22.941 4.034,23.403 3.914,23.972 C 3.307,26.875 3,29.835 3,32.768 C 3,35.873 3.346,39.011 4.029,42.092 C 4.151,42.641 4.52,43.102 5.029,43.341 C 8.673,45.053 12.852,46.401 17.451,47.348 C 17.356,47.388 17.55,47.442 17.55,47.442 L 17.848,47.524 C 18.005,47.567 18.147,47.584 18.309,47.584 L 69.191,47.584 C 82.175,47.809 94.265,52.773 101.734,60.877 L 101.733,60.889 C 101.722,60.988 101.716,61.087 101.716,61.186 C 101.716,61.825 101.944,62.444 102.37,62.954 C 103.913,64.803 105.625,64.536 106.289,64.335 C 107.743,63.895 108.84,62.504 108.95,61.48 C 109.943,52.432 110.446,42.875 110.446,33.078 C 110.446,22.909 109.909,13.044 108.852,3.755 C 108.733,2.696 107.705,1.559 106.461,1.111 C 105.079,0.61 103.596,0.991 102.396,2.152 z "
   id="path20"
   style="fill:url(#XMLID_14_)" />

			<path
   i:knockout="Off"
   d="M 107.051,3.957 C 106.999,3.499 105.459,1.712 103.655,3.456 C 103.469,3.636 103.402,3.906 103.431,4.163 C 103.483,4.621 103.519,5.096 103.568,5.557 C 96.304,13.773 84.301,19.329 70.55,19.882 L 70.55,19.929 L 19.534,19.929 C 18.825,20.087 18.13,20.269 17.445,20.463 C 17.443,20.476 17.441,20.488 17.439,20.501 C 15.679,20.875 13.979,21.306 12.357,21.8 C 12.313,21.813 12.271,21.828 12.227,21.842 C 11.677,22.011 11.134,22.184 10.602,22.366 C 10.482,22.407 10.368,22.451 10.249,22.493 C 9.795,22.652 9.343,22.811 8.904,22.979 C 8.669,23.068 8.444,23.164 8.213,23.257 C 7.896,23.383 7.575,23.507 7.267,23.638 C 6.729,23.867 6.202,24.102 5.689,24.346 C 5.119,27.079 4.814,29.893 4.814,32.77 C 4.814,35.826 5.159,38.81 5.8,41.701 C 9.284,43.337 13.35,44.653 17.817,45.573 C 17.821,45.595 17.825,45.617 17.83,45.638 C 17.991,45.681 18.148,45.728 18.31,45.771 L 69.192,45.771 L 69.192,45.789 C 83.539,46.018 96.124,51.688 103.621,60.203 C 103.59,60.494 103.568,60.796 103.537,61.087 C 103.509,61.344 103.598,61.594 103.763,61.79 C 105.461,63.825 107.1,61.744 107.15,61.285 C 108.135,52.298 108.635,42.807 108.635,33.077 C 108.633,22.977 108.101,13.18 107.051,3.957 z M 104.639,18.995 C 104.399,14.437 104.041,9.969 103.575,5.614 C 104.042,9.969 104.403,14.432 104.639,18.995 z M 103.63,60.082 C 104.079,55.804 104.423,51.412 104.653,46.928 C 104.426,51.415 104.081,55.803 103.63,60.082 z M 104.675,46.394 C 104.778,44.314 104.862,42.219 104.915,40.103 C 104.863,42.219 104.777,44.313 104.675,46.394 z M 104.677,19.959 C 104.773,21.931 104.859,23.907 104.91,25.909 C 104.858,23.909 104.774,21.93 104.677,19.959 z "
   id="path22"
   style="opacity:0.6;fill:#00316e" />

			<linearGradient
   id="linearGradient1570"
   gradientUnits="userSpaceOnUse"
   x1="54.910198"
   y1="53.396999"
   x2="54.910198"
   y2="12.5935">
				<stop
   offset="0"
   style="stop-color:#C7C7C7"
   id="stop1572" />

				<stop
   offset="0.5"
   style="stop-color:#FFFFFF"
   id="stop1574" />

				<stop
   offset="0.63"
   style="stop-color:#F8F8F8"
   id="stop1576" />

				<stop
   offset="0.8162"
   style="stop-color:#E5E5E5"
   id="stop1578" />

				<stop
   offset="1"
   style="stop-color:#CCCCCC"
   id="stop1580" />

				<a:midPointStop
   offset="0"
   style="stop-color:#C7C7C7" />

				<a:midPointStop
   offset="0.5"
   style="stop-color:#C7C7C7" />

				<a:midPointStop
   offset="0.5"
   style="stop-color:#FFFFFF" />

				<a:midPointStop
   offset="0.6292"
   style="stop-color:#FFFFFF" />

				<a:midPointStop
   offset="1"
   style="stop-color:#CCCCCC" />

			</linearGradient>

			<path
   i:knockout="Off"
   d="M 103.569,5.555 C 96.305,13.771 84.302,19.328 70.551,19.88 L 70.551,19.927 L 20.432,19.927 C 14.879,20.844 9.865,22.366 5.688,24.343 C 5.118,27.076 4.813,29.89 4.813,32.767 C 4.813,35.823 5.158,38.807 5.799,41.698 C 9.534,43.452 13.932,44.844 18.781,45.768 L 69.19,45.768 L 69.19,45.786 C 83.537,46.015 96.122,51.685 103.619,60.2 C 104.532,51.559 105.006,42.446 105.006,33.074 C 105.006,23.57 104.513,14.33 103.569,5.555 z "
   id="path35"
   style="fill:url(#XMLID_15_)" />

			<linearGradient
   id="linearGradient1583"
   gradientUnits="userSpaceOnUse"
   x1="27.813999"
   y1="3.98"
   x2="27.813999"
   y2="52.943401">
				<stop
   offset="0"
   style="stop-color:#0050B2"
   id="stop1585" />

				<stop
   offset="3.068021e-04"
   style="stop-color:#0050B2"
   id="stop1587" />

				<stop
   offset="0.0512"
   style="stop-color:#1D65BD"
   id="stop1589" />

				<stop
   offset="0.1051"
   style="stop-color:#3476C6"
   id="stop1591" />

				<stop
   offset="0.1633"
   style="stop-color:#4482CC"
   id="stop1593" />

				<stop
   offset="0.2284"
   style="stop-color:#4E89D0"
   id="stop1595" />

				<stop
   offset="0.3146"
   style="stop-color:#518BD1"
   id="stop1597" />

				<stop
   offset="0.3367"
   style="stop-color:#5E94D5"
   id="stop1599" />

				<stop
   offset="0.3891"
   style="stop-color:#78A4DB"
   id="stop1601" />

				<stop
   offset="0.4432"
   style="stop-color:#8AB0E0"
   id="stop1603" />

				<stop
   offset="0.4995"
   style="stop-color:#95B8E3"
   id="stop1605" />

				<stop
   offset="0.5618"
   style="stop-color:#99BAE4"
   id="stop1607" />

				<stop
   offset="0.5967"
   style="stop-color:#91B5E2"
   id="stop1609" />

				<stop
   offset="0.6513"
   style="stop-color:#7AA7DD"
   id="stop1611" />

				<stop
   offset="0.691"
   style="stop-color:#669AD9"
   id="stop1613" />

				<stop
   offset="0.7542"
   style="stop-color:#578DCF"
   id="stop1615" />

				<stop
   offset="0.8763"
   style="stop-color:#2F6BB6"
   id="stop1617" />

				<stop
   offset="1"
   style="stop-color:#004499"
   id="stop1619" />

				<a:midPointStop
   offset="0"
   style="stop-color:#0050B2" />

				<a:midPointStop
   offset="0.2388"
   style="stop-color:#0050B2" />

				<a:midPointStop
   offset="0.3146"
   style="stop-color:#518BD1" />

				<a:midPointStop
   offset="0.2727"
   style="stop-color:#518BD1" />

				<a:midPointStop
   offset="0.5618"
   style="stop-color:#99BAE4" />

				<a:midPointStop
   offset="0.6087"
   style="stop-color:#99BAE4" />

				<a:midPointStop
   offset="0.691"
   style="stop-color:#669AD9" />

				<a:midPointStop
   offset="0.56"
   style="stop-color:#669AD9" />

				<a:midPointStop
   offset="1"
   style="stop-color:#004499" />

			</linearGradient>

			<path
   i:knockout="Off"
   d="M 48.79,32.087 C 48.79,27.941 49.34,23.879 50.384,19.927 L 20.432,19.927 C 14.879,20.844 9.865,22.366 5.688,24.343 C 5.118,27.076 4.813,29.89 4.813,32.767 C 4.813,35.823 5.158,38.807 5.799,41.698 C 9.534,43.452 13.932,44.844 18.781,45.768 L 50.813,45.768 C 49.49,41.342 48.79,36.769 48.79,32.087 z "
   id="path74"
   style="fill:url(#XMLID_16_)" />

			<linearGradient
   id="linearGradient1622"
   gradientUnits="userSpaceOnUse"
   x1="55.752899"
   y1="16.0098"
   x2="55.752899"
   y2="44.009899">
				<stop
   offset="0"
   style="stop-color:#A4C0E4"
   id="stop1624" />

				<stop
   offset="0.2171"
   style="stop-color:#9EBCE2"
   id="stop1626" />

				<stop
   offset="0.5078"
   style="stop-color:#8DB1DD"
   id="stop1628" />

				<stop
   offset="0.8387"
   style="stop-color:#719ED4"
   id="stop1630" />

				<stop
   offset="1"
   style="stop-color:#6193CF"
   id="stop1632" />

				<a:midPointStop
   offset="0"
   style="stop-color:#A4C0E4" />

				<a:midPointStop
   offset="0.6449"
   style="stop-color:#A4C0E4" />

				<a:midPointStop
   offset="1"
   style="stop-color:#6193CF" />

			</linearGradient>

			<path
   i:knockout="Off"
   d="M 55.814,32.087 C 55.814,27.941 56.364,23.879 57.408,19.927 L 55.26,19.927 C 54.216,23.878 53.666,27.94 53.666,32.087 C 53.666,36.769 54.367,41.342 55.691,45.769 L 57.839,45.769 C 56.515,41.342 55.814,36.769 55.814,32.087 z "
   id="path87"
   style="fill:url(#XMLID_17_)" />

			<linearGradient
   id="linearGradient1635"
   gradientUnits="userSpaceOnUse"
   x1="62.080601"
   y1="16.0098"
   x2="62.080601"
   y2="44.009899">
				<stop
   offset="0"
   style="stop-color:#A4C0E4"
   id="stop1637" />

				<stop
   offset="0.2171"
   style="stop-color:#9EBCE2"
   id="stop1639" />

				<stop
   offset="0.5078"
   style="stop-color:#8DB1DD"
   id="stop1641" />

				<stop
   offset="0.8387"
   style="stop-color:#719ED4"
   id="stop1643" />

				<stop
   offset="1"
   style="stop-color:#6193CF"
   id="stop1645" />

				<a:midPointStop
   offset="0"
   style="stop-color:#A4C0E4" />

				<a:midPointStop
   offset="0.6449"
   style="stop-color:#A4C0E4" />

				<a:midPointStop
   offset="1"
   style="stop-color:#6193CF" />

			</linearGradient>

			<path
   i:knockout="Off"
   d="M 62.142,32.087 C 62.142,27.941 62.691,23.879 63.736,19.927 L 61.589,19.927 C 60.544,23.878 59.994,27.94 59.994,32.087 C 59.994,36.769 60.694,41.342 62.019,45.769 L 64.166,45.769 C 62.842,41.342 62.142,36.769 62.142,32.087 z "
   id="path100"
   style="fill:url(#XMLID_18_)" />

			<linearGradient
   id="linearGradient1648"
   gradientUnits="userSpaceOnUse"
   x1="12.6265"
   y1="4.1093998"
   x2="12.6265"
   y2="52.921001">
				<stop
   offset="0"
   style="stop-color:#0050B2"
   id="stop1650" />

				<stop
   offset="3.068021e-04"
   style="stop-color:#0050B2"
   id="stop1652" />

				<stop
   offset="0.0512"
   style="stop-color:#1D65BD"
   id="stop1654" />

				<stop
   offset="0.1051"
   style="stop-color:#3476C6"
   id="stop1656" />

				<stop
   offset="0.1633"
   style="stop-color:#4482CC"
   id="stop1658" />

				<stop
   offset="0.2284"
   style="stop-color:#4E89D0"
   id="stop1660" />

				<stop
   offset="0.3146"
   style="stop-color:#518BD1"
   id="stop1662" />

				<stop
   offset="0.3367"
   style="stop-color:#5E94D5"
   id="stop1664" />

				<stop
   offset="0.3891"
   style="stop-color:#78A4DB"
   id="stop1666" />

				<stop
   offset="0.4432"
   style="stop-color:#8AB0E0"
   id="stop1668" />

				<stop
   offset="0.4995"
   style="stop-color:#95B8E3"
   id="stop1670" />

				<stop
   offset="0.5618"
   style="stop-color:#99BAE4"
   id="stop1672" />

				<stop
   offset="0.5967"
   style="stop-color:#91B5E2"
   id="stop1674" />

				<stop
   offset="0.6513"
   style="stop-color:#7AA7DD"
   id="stop1676" />

				<stop
   offset="0.691"
   style="stop-color:#669AD9"
   id="stop1678" />

				<stop
   offset="0.7542"
   style="stop-color:#578DCF"
   id="stop1680" />

				<stop
   offset="0.8763"
   style="stop-color:#2F6BB6"
   id="stop1682" />

				<stop
   offset="1"
   style="stop-color:#004499"
   id="stop1684" />

				<a:midPointStop
   offset="0"
   style="stop-color:#0050B2" />

				<a:midPointStop
   offset="0.2388"
   style="stop-color:#0050B2" />

				<a:midPointStop
   offset="0.3146"
   style="stop-color:#518BD1" />

				<a:midPointStop
   offset="0.2727"
   style="stop-color:#518BD1" />

				<a:midPointStop
   offset="0.5618"
   style="stop-color:#99BAE4" />

				<a:midPointStop
   offset="0.6087"
   style="stop-color:#99BAE4" />

				<a:midPointStop
   offset="0.691"
   style="stop-color:#669AD9" />

				<a:midPointStop
   offset="0.56"
   style="stop-color:#669AD9" />

				<a:midPointStop
   offset="1"
   style="stop-color:#004499" />

			</linearGradient>

			<path
   i:knockout="Off"
   d="M 19.989,20.007 C 14.614,20.931 9.753,22.42 5.689,24.343 C 5.119,27.076 4.814,29.89 4.814,32.767 C 4.814,35.823 5.159,38.807 5.8,41.698 C 9.535,43.452 13.933,44.844 18.782,45.768 L 20.439,45.768 C 19.115,41.341 18.414,36.768 18.414,32.086 C 18.414,27.968 18.958,23.933 19.989,20.007 z "
   id="path139"
   style="fill:url(#XMLID_19_)" />

			<linearGradient
   id="linearGradient1687"
   gradientUnits="userSpaceOnUse"
   x1="19.762699"
   y1="13.5195"
   x2="19.262699"
   y2="41.5191">
				<stop
   offset="0.3596"
   style="stop-color:#6193CF"
   id="stop1689" />

				<stop
   offset="0.4957"
   style="stop-color:#5B8FCD"
   id="stop1691" />

				<stop
   offset="0.6817"
   style="stop-color:#4983C9"
   id="stop1693" />

				<stop
   offset="0.8955"
   style="stop-color:#2D6FC1"
   id="stop1695" />

				<stop
   offset="1"
   style="stop-color:#1C64BD"
   id="stop1697" />

				<a:midPointStop
   offset="0.3596"
   style="stop-color:#6193CF" />

				<a:midPointStop
   offset="0.6404"
   style="stop-color:#6193CF" />

				<a:midPointStop
   offset="1"
   style="stop-color:#1C64BD" />

			</linearGradient>

			<path
   i:knockout="Off"
   d="M 18.859,31.966 C 18.859,28.549 19.241,25.2 19.951,21.936 C 20.637,21.769 21.331,21.613 22.041,21.476 L 20.2,21.476 C 19.491,21.613 18.796,21.769 18.111,21.936 C 17.401,25.201 17.018,28.549 17.018,31.966 C 17.018,35.965 17.53,39.871 18.494,43.654 C 18.655,43.692 18.812,43.732 18.974,43.769 L 20.815,43.769 C 20.653,43.732 20.495,43.692 20.336,43.654 C 19.372,39.871 18.859,35.964 18.859,31.966 z "
   id="path152"
   style="fill:url(#XMLID_20_)" />

			<linearGradient
   id="linearGradient1700"
   gradientUnits="userSpaceOnUse"
   x1="106.0298"
   y1="6.3168998"
   x2="106.0298"
   y2="57.053799">
				<stop
   offset="0"
   style="stop-color:#0050B2"
   id="stop1702" />

				<stop
   offset="1.479223e-04"
   style="stop-color:#0050B2"
   id="stop1704" />

				<stop
   offset="0.0247"
   style="stop-color:#1D65BD"
   id="stop1706" />

				<stop
   offset="0.0507"
   style="stop-color:#3476C6"
   id="stop1708" />

				<stop
   offset="0.0787"
   style="stop-color:#4482CC"
   id="stop1710" />

				<stop
   offset="0.1101"
   style="stop-color:#4E89D0"
   id="stop1712" />

				<stop
   offset="0.1517"
   style="stop-color:#518BD1"
   id="stop1714" />

				<stop
   offset="0.1748"
   style="stop-color:#5E94D5"
   id="stop1716" />

				<stop
   offset="0.2296"
   style="stop-color:#78A4DB"
   id="stop1718" />

				<stop
   offset="0.2861"
   style="stop-color:#8AB0E0"
   id="stop1720" />

				<stop
   offset="0.345"
   style="stop-color:#95B8E3"
   id="stop1722" />

				<stop
   offset="0.4101"
   style="stop-color:#99BAE4"
   id="stop1724" />

				<stop
   offset="0.4859"
   style="stop-color:#91B5E2"
   id="stop1726" />

				<stop
   offset="0.6046"
   style="stop-color:#7AA7DD"
   id="stop1728" />

				<stop
   offset="0.691"
   style="stop-color:#669AD9"
   id="stop1730" />

				<stop
   offset="0.7542"
   style="stop-color:#578DCF"
   id="stop1732" />

				<stop
   offset="0.8763"
   style="stop-color:#2F6BB6"
   id="stop1734" />

				<stop
   offset="1"
   style="stop-color:#004499"
   id="stop1736" />

				<a:midPointStop
   offset="0"
   style="stop-color:#0050B2" />

				<a:midPointStop
   offset="0.2388"
   style="stop-color:#0050B2" />

				<a:midPointStop
   offset="0.1517"
   style="stop-color:#518BD1" />

				<a:midPointStop
   offset="0.2727"
   style="stop-color:#518BD1" />

				<a:midPointStop
   offset="0.4101"
   style="stop-color:#99BAE4" />

				<a:midPointStop
   offset="0.6087"
   style="stop-color:#99BAE4" />

				<a:midPointStop
   offset="0.691"
   style="stop-color:#669AD9" />

				<a:midPointStop
   offset="0.56"
   style="stop-color:#669AD9" />

				<a:midPointStop
   offset="1"
   style="stop-color:#004499" />

			</linearGradient>

			<path
   i:knockout="Off"
   d="M 103.656,3.456 C 103.47,3.636 103.403,3.906 103.432,4.163 C 104.477,13.345 105.006,23.072 105.006,33.076 C 105.006,42.764 104.511,52.186 103.535,61.086 C 103.507,61.343 103.596,61.593 103.761,61.789 C 105.459,63.824 107.098,61.743 107.148,61.284 C 108.133,52.297 108.633,42.806 108.633,33.076 C 108.633,22.978 108.101,13.181 107.051,3.958 C 107,3.499 105.459,1.712 103.656,3.456 z "
   id="path191"
   style="fill:url(#XMLID_21_)" />

			<path
   i:knockout="Off"
   d="M 14.343,28.688 C 14.369,29.063 14.171,29.384 13.899,29.407 L 6.7,30.007 C 6.429,30.03 6.189,29.745 6.163,29.371 L 6.163,29.371 C 6.137,28.996 6.336,28.674 6.607,28.651 L 13.806,28.051 C 14.077,28.029 14.317,28.315 14.343,28.688 L 14.343,28.688 z "
   id="path193"
   style="fill:#a4c0e4" />

			<path
   i:knockout="Off"
   d="M 14.295,24.23 C 14.35,24.6 14.191,24.939 13.939,24.984 L 7.24,26.208 C 6.988,26.253 6.738,25.991 6.682,25.62 L 6.682,25.62 C 6.627,25.25 6.786,24.912 7.038,24.866 L 13.737,23.643 C 13.99,23.596 14.239,23.859 14.295,24.23 L 14.295,24.23 z "
   id="path195"
   style="fill:#a4c0e4" />

			<path
   i:knockout="Off"
   d="M 14.167,32.829 C 14.167,33.204 13.947,33.509 13.674,33.509 L 6.456,33.509 C 6.184,33.509 5.964,33.204 5.964,32.829 L 5.964,32.829 C 5.964,32.454 6.184,32.149 6.456,32.149 L 13.674,32.149 C 13.946,32.149 14.167,32.454 14.167,32.829 L 14.167,32.829 z "
   id="path197"
   style="fill:#a4c0e4" />

			<path
   i:knockout="Off"
   d="M 14.341,37.373 C 14.314,37.748 14.072,38.031 13.801,38.008 L 6.606,37.368 C 6.335,37.344 6.137,37.02 6.165,36.646 L 6.165,36.646 C 6.192,36.272 6.434,35.987 6.705,36.012 L 13.9,36.652 C 14.171,36.676 14.369,36.998 14.341,37.373 L 14.341,37.373 z "
   id="path199"
   style="fill:#a4c0e4" />

			<path
   i:knockout="Off"
   d="M 14.223,41.837 C 14.171,42.207 13.924,42.477 13.673,42.434 L 6.969,41.347 C 6.716,41.306 6.553,40.971 6.606,40.6 L 6.606,40.6 C 6.658,40.229 6.904,39.961 7.157,40.001 L 13.861,41.089 C 14.111,41.13 14.274,41.465 14.223,41.837 L 14.223,41.837 z "
   id="path201"
   style="fill:#a4c0e4" />

			<path
   i:knockout="Off"
   d="M 54.901,71.405 C 53.994,71.405 52.634,71.405 52.181,70.044 C 51.727,68.685 50.821,65.964 49.914,64.605 C 49.007,63.246 47.194,60.072 47.194,60.072 C 47.194,60.072 46.287,58.711 47.194,58.258 C 47.668,58.022 48.224,57.531 48.67,57.055 C 48.703,57.018 48.732,56.985 48.765,56.95 C 48.851,56.856 48.931,56.762 49.004,56.675 C 49.037,56.634 49.067,56.597 49.098,56.558 C 49.163,56.476 49.219,56.4 49.269,56.326 C 49.29,56.295 49.315,56.264 49.333,56.234 C 49.393,56.138 49.44,56.054 49.461,55.994 C 49.915,54.633 47.194,53.726 46.288,52.82 C 45.381,51.912 44.475,51.006 44.928,50.099 C 45.382,49.193 44.475,44.205 44.475,44.205 L 43.689,44.547 C 43.616,44.338 43.568,44.205 43.568,44.205 L 27.7,50.096 C 27.7,50.096 32.687,53.27 33.14,55.082 C 33.593,56.896 35.407,63.244 38.127,68.684 C 40.944,74.317 45.834,79.112 46.741,79.565 C 47.648,80.018 49.461,79.112 49.008,79.565 C 48.291,80.282 54.041,75.272 54.902,74.124 C 56.261,72.311 55.808,71.405 54.901,71.405 z "
   id="path203"
   style="fill:#dddddd" />

			<linearGradient
   id="linearGradient1745"
   gradientUnits="userSpaceOnUse"
   x1="40.278801"
   y1="56.563999"
   x2="49.7784"
   y2="78.063103">
				<stop
   offset="0"
   style="stop-color:#808080"
   id="stop1747" />

				<stop
   offset="1"
   style="stop-color:#969696"
   id="stop1749" />

				<a:midPointStop
   offset="0"
   style="stop-color:#808080" />

				<a:midPointStop
   offset="0.5"
   style="stop-color:#808080" />

				<a:midPointStop
   offset="1"
   style="stop-color:#969696" />

			</linearGradient>

			<path
   i:knockout="Off"
   d="M 42.871,42.327 L 27.003,48.221 C 26.291,48.486 25.791,49.13 25.711,49.885 C 25.63,50.64 25.985,51.375 26.625,51.782 C 28.739,53.13 30.929,54.965 31.219,55.631 C 31.844,58.149 33.747,64.399 36.338,69.578 C 39.252,75.404 44.372,80.617 45.846,81.353 C 47.481,82.17 49.251,82.048 50.354,81.042 L 51.64,79.91 C 53.959,77.891 55.789,76.271 56.501,75.321 C 58.069,73.231 57.888,71.773 57.459,70.917 C 56.985,69.969 56.029,69.403 54.9,69.403 C 54.674,69.403 54.25,69.396 54.054,69.339 C 53.532,67.777 52.612,65.045 51.577,63.493 C 51.577,63.493 49.681,60.331 49.105,59.37 C 50.11,58.569 51.092,57.413 51.356,56.623 C 51.472,56.274 51.524,55.947 51.524,55.639 C 51.524,53.788 49.653,52.643 48.577,51.985 L 47.699,51.401 C 47.439,51.141 47.085,50.771 46.898,50.517 C 46.952,50.317 46.993,50.06 46.993,49.704 C 46.993,48.687 46.673,46.893 45.445,43.518 C 45.263,43.018 44.889,42.61 44.405,42.386 C 43.923,42.163 43.371,42.142 42.871,42.327 z "
   id="path210"
   style="fill:url(#XMLID_22_)" />

			<linearGradient
   id="linearGradient1752"
   gradientUnits="userSpaceOnUse"
   x1="38.400902"
   y1="64.830597"
   x2="46.561901"
   y2="60.75">
				<stop
   offset="0"
   style="stop-color:#DDDDDD"
   id="stop1754" />

				<stop
   offset="0.118"
   style="stop-color:#EEEEEE"
   id="stop1756" />

				<stop
   offset="0.3101"
   style="stop-color:#F3F3F3"
   id="stop1758" />

				<stop
   offset="0.5"
   style="stop-color:#FFFFFF"
   id="stop1760" />

				<stop
   offset="0.6711"
   style="stop-color:#F5F5F5"
   id="stop1762" />

				<stop
   offset="0.8933"
   style="stop-color:#EEEEEE"
   id="stop1764" />

				<stop
   offset="1"
   style="stop-color:#DDDDDD"
   id="stop1766" />

				<a:midPointStop
   offset="0"
   style="stop-color:#DDDDDD" />

				<a:midPointStop
   offset="0.5"
   style="stop-color:#DDDDDD" />

				<a:midPointStop
   offset="0.118"
   style="stop-color:#EEEEEE" />

				<a:midPointStop
   offset="0.6579"
   style="stop-color:#EEEEEE" />

				<a:midPointStop
   offset="0.5"
   style="stop-color:#FFFFFF" />

				<a:midPointStop
   offset="0.3816"
   style="stop-color:#FFFFFF" />

				<a:midPointStop
   offset="0.8933"
   style="stop-color:#EEEEEE" />

				<a:midPointStop
   offset="0.5"
   style="stop-color:#EEEEEE" />

				<a:midPointStop
   offset="1"
   style="stop-color:#DDDDDD" />

			</linearGradient>

			<path
   i:knockout="Off"
   d="M 49.008,79.565 C 50.167,78.509 54.041,75.272 54.902,74.124 C 56.262,72.312 55.809,71.405 54.902,71.405 C 53.995,71.405 52.635,71.405 52.182,70.044 C 51.728,68.685 50.822,65.964 49.915,64.605 C 49.008,63.246 47.195,60.072 47.195,60.072 C 47.195,60.072 46.288,58.711 47.195,58.258 C 48.102,57.805 49.318,56.422 49.462,55.992 C 49.916,54.631 47.195,53.724 46.289,52.818 C 45.382,51.91 44.476,51.004 44.929,50.097 C 45.383,49.191 43.569,44.203 43.569,44.203 L 27.7,50.096 C 27.7,50.096 32.687,53.27 33.14,55.082 C 33.593,56.896 35.407,63.244 38.127,68.684 C 40.944,74.317 45.834,79.112 46.741,79.565 C 47.648,80.018 48.534,79.997 49.008,79.565 z "
   id="path227"
   style="fill:url(#XMLID_23_)" />

			<path
   i:knockout="Off"
   d="M 43.222,44.202 L 40.243,45.497 L 47.031,57.443 C 47.617,56.89 48.12,56.255 48.209,55.99 C 48.663,54.629 45.942,53.722 45.036,52.816 C 44.129,51.908 43.223,51.002 43.676,50.095 C 44.128,49.19 43.222,44.202 43.222,44.202 z "
   id="path229"
   style="fill:#888888" />

			<path
   i:knockout="Off"
   d="M 24.085,42.267 C 23.483,42.267 22.914,42.542 22.541,43.015 C 22.167,43.489 22.031,44.105 22.17,44.691 L 24.63,55.022 C 24.825,55.838 25.515,56.443 26.349,56.525 L 31.27,57.018 C 31.675,57.057 32.082,56.973 32.436,56.771 L 47.197,48.407 C 47.659,48.144 47.995,47.71 48.13,47.197 C 48.265,46.681 48.187,46.136 47.914,45.682 L 46.438,43.223 C 46.083,42.629 45.442,42.267 44.75,42.267 L 24.085,42.267 z "
   id="path231"
   style="fill:#888888" />

			<linearGradient
   id="linearGradient1771"
   gradientUnits="userSpaceOnUse"
   x1="35.075699"
   y1="44.382301"
   x2="35.982399"
   y2="49.822601">
				<stop
   offset="0"
   style="stop-color:#DDDDDD"
   id="stop1773" />

				<stop
   offset="1"
   style="stop-color:#FFFFFF"
   id="stop1775" />

				<a:midPointStop
   offset="0"
   style="stop-color:#DDDDDD" />

				<a:midPointStop
   offset="0.5"
   style="stop-color:#DDDDDD" />

				<a:midPointStop
   offset="1"
   style="stop-color:#FFFFFF" />

			</linearGradient>

			<path
   i:knockout="Off"
   d="M 24.98,42.067 C 24.425,42.067 23.901,42.321 23.557,42.756 C 23.213,43.192 23.087,43.76 23.216,44.3 L 25.483,53.82 C 25.662,54.572 26.298,55.127 27.066,55.205 L 31.6,55.658 C 31.973,55.695 32.349,55.617 32.675,55.431 L 46.276,47.724 C 46.702,47.482 47.011,47.079 47.136,46.607 C 47.261,46.135 47.189,45.632 46.937,45.213 L 45.577,42.946 C 45.249,42.399 44.659,42.065 44.022,42.065 L 24.98,42.065 L 24.98,42.067 z "
   id="path238"
   style="fill:url(#XMLID_24_)" />

			<path
   i:knockout="Off"
   d="M 14.343,28.235 C 14.369,28.61 14.171,28.931 13.899,28.954 L 6.7,29.555 C 6.429,29.577 6.189,29.292 6.163,28.918 L 6.163,28.918 C 6.137,28.543 6.336,28.222 6.607,28.199 L 13.806,27.598 C 14.077,27.575 14.317,27.861 14.343,28.235 L 14.343,28.235 z "
   id="path240"
   style="fill:#003c7a" />

			<path
   i:knockout="Off"
   d="M 14.291,23.777 C 14.346,24.147 14.187,24.485 13.935,24.531 L 7.236,25.753 C 6.984,25.799 6.734,25.535 6.678,25.165 L 6.678,25.165 C 6.623,24.795 6.782,24.457 7.035,24.411 L 13.734,23.189 C 13.985,23.143 14.235,23.407 14.291,23.777 L 14.291,23.777 z "
   id="path242"
   style="fill:#003c7a" />

			<path
   i:knockout="Off"
   d="M 14.167,32.376 C 14.167,32.751 13.947,33.056 13.674,33.056 L 6.456,33.056 C 6.184,33.056 5.964,32.751 5.964,32.376 L 5.964,32.376 C 5.964,32.001 6.184,31.696 6.456,31.696 L 13.674,31.696 C 13.946,31.696 14.167,32 14.167,32.376 L 14.167,32.376 z "
   id="path244"
   style="fill:#003c7a" />

			<path
   i:knockout="Off"
   d="M 14.341,36.919 C 14.314,37.293 14.072,37.577 13.801,37.553 L 6.606,36.913 C 6.335,36.889 6.137,36.565 6.165,36.191 L 6.165,36.191 C 6.192,35.817 6.434,35.533 6.705,35.557 L 13.9,36.197 C 14.171,36.222 14.369,36.545 14.341,36.919 L 14.341,36.919 z "
   id="path246"
   style="fill:#003c7a" />

			<path
   i:knockout="Off"
   d="M 14.227,41.384 C 14.175,41.755 13.929,42.023 13.677,41.982 L 6.973,40.894 C 6.72,40.854 6.558,40.519 6.61,40.147 L 6.61,40.147 C 6.662,39.775 6.908,39.507 7.161,39.548 L 13.865,40.635 C 14.115,40.677 14.278,41.012 14.227,41.384 L 14.227,41.384 z "
   id="path248"
   style="fill:#003c7a" />

			<radialGradient
   id="radialGradient1783"
   cx="31.742201"
   cy="53.067902"
   r="9.8233995"
   fx="31.742201"
   fy="53.067902"
   gradientUnits="userSpaceOnUse">
				<stop
   offset="0"
   style="stop-color:#FFFFFF"
   id="stop1785" />

				<stop
   offset="1"
   style="stop-color:#000000"
   id="stop1787" />

				<a:midPointStop
   offset="0"
   style="stop-color:#FFFFFF" />

				<a:midPointStop
   offset="0.5"
   style="stop-color:#FFFFFF" />

				<a:midPointStop
   offset="1"
   style="stop-color:#000000" />

			</radialGradient>

			<path
   i:knockout="Off"
   d="M 28.242,50.317 C 28.242,51.835 29.476,53.067 30.992,53.067 C 32.508,53.067 33.742,51.835 33.742,50.317 C 33.742,48.801 32.508,47.567 30.992,47.567 C 29.476,47.567 28.242,48.801 28.242,50.317 z "
   id="path255"
   style="fill:url(#XMLID_25_)" />

			<radialGradient
   id="radialGradient1790"
   cx="30.242201"
   cy="49.068802"
   r="7.211"
   fx="30.242201"
   fy="49.068802"
   gradientUnits="userSpaceOnUse">
				<stop
   offset="0"
   style="stop-color:#FFFFFF"
   id="stop1792" />

				<stop
   offset="1"
   style="stop-color:#000000"
   id="stop1794" />

				<a:midPointStop
   offset="0"
   style="stop-color:#FFFFFF" />

				<a:midPointStop
   offset="0.5"
   style="stop-color:#FFFFFF" />

				<a:midPointStop
   offset="1"
   style="stop-color:#000000" />

			</radialGradient>

			<circle
   i:knockout="Off"
   cx="30.992001"
   cy="49.819"
   r="1.75"
   id="circle262"
   sodipodi:cx="30.992001"
   sodipodi:cy="49.819"
   sodipodi:rx="1.75"
   sodipodi:ry="1.75"
   style="fill:url(#XMLID_26_)" />
 
			<g
   i:knockout="Off"
   id="g264">
				<path
   i:knockout="Off"
   d="M 24.667,31.83 L 24.667,35.672 L 22.839,35.878 L 22.839,27.411 L 24.667,27.175 L 24.667,31.028 L 27.054,27.206 L 28.843,27.782 L 26.519,31.448 L 28.905,35.374 L 27.029,35.972 L 24.667,31.83 z "
   id="path266"
   style="fill:#ffffff" />

				<path
   i:knockout="Off"
   d="M 33.183,35.69 L 31.174,35.69 L 31.174,27.409 L 33.287,27.409 C 34.056,27.409 34.731,27.563 35.313,27.871 C 35.897,28.179 36.347,28.639 36.665,29.25 C 36.978,29.868 37.137,30.622 37.143,31.513 C 37.143,32.145 37.039,32.724 36.83,33.251 C 36.622,33.78 36.34,34.223 35.981,34.58 C 35.623,34.936 35.199,35.211 34.708,35.402 C 34.217,35.595 33.709,35.69 33.183,35.69 z M 33.033,29.266 L 33.033,33.741 C 33.859,33.741 34.449,33.533 34.801,33.116 C 35.153,32.699 35.33,32.157 35.33,31.489 L 35.33,31.427 C 35.311,30.609 35.106,30.045 34.714,29.737 C 34.315,29.437 33.755,29.28 33.033,29.266 z "
   id="path268"
   style="fill:#ffffff" />

				<path
   i:knockout="Off"
   d="M 39.736,35.69 L 39.736,27.409 L 43.893,27.409 L 44.248,29.247 L 41.533,29.247 L 41.533,30.539 L 43.485,30.539 L 43.485,32.377 L 41.516,32.377 L 41.516,33.851 L 44.438,33.851 L 43.979,35.689 L 39.736,35.689 L 39.736,35.69 z "
   id="path270"
   style="fill:#ffffff" />

			</g>

		</g>
  </g>
</svg>
