<?xml version="1.0" encoding="UTF-8" standalone="no"?>
<!-- Created with Inkscape (http://www.inkscape.org/) -->
<svg
   xmlns:dc="http://purl.org/dc/elements/1.1/"
   xmlns:cc="http://web.resource.org/cc/"
   xmlns:rdf="http://www.w3.org/1999/02/22-rdf-syntax-ns#"
   xmlns:svg="http://www.w3.org/2000/svg"
   xmlns="http://www.w3.org/2000/svg"
   xmlns:xlink="http://www.w3.org/1999/xlink"
   xmlns:sodipodi="http://sodipodi.sourceforge.net/DTD/sodipodi-0.dtd"
   xmlns:inkscape="http://www.inkscape.org/namespaces/inkscape"
   width="128"
   height="128"
   id="svg1307"
   sodipodi:version="0.32"
   inkscape:version="0.44"
   version="1.0"
   sodipodi:docbase="/home/pinheiro/artwork/Oxygen/theme/svg/apps"
   sodipodi:docname="kaffeine2.svg">
  <defs
     id="defs1309">
    <linearGradient
       id="linearGradient3859">
      <stop
         id="stop3861"
         offset="0"
         style="stop-color:#7e7e7e;stop-opacity:1;" />
      <stop
         id="stop3863"
         offset="1"
         style="stop-color:black;stop-opacity:1;" />
    </linearGradient>
    <linearGradient
       id="linearGradient3812">
      <stop
         style="stop-color:#7e7e7e;stop-opacity:1;"
         offset="0"
         id="stop3814" />
      <stop
         style="stop-color:#2b2b2b;stop-opacity:1;"
         offset="1"
         id="stop3816" />
    </linearGradient>
    <linearGradient
       id="linearGradient3804">
      <stop
         style="stop-color:#111;stop-opacity:1;"
         offset="0"
         id="stop3806" />
      <stop
         style="stop-color:#383838;stop-opacity:1;"
         offset="1"
         id="stop3808" />
    </linearGradient>
    <linearGradient
       inkscape:collect="always"
       id="linearGradient3778">
      <stop
         style="stop-color:white;stop-opacity:1;"
         offset="0"
         id="stop3780" />
      <stop
         style="stop-color:white;stop-opacity:0;"
         offset="1"
         id="stop3782" />
    </linearGradient>
    <linearGradient
       inkscape:collect="always"
       id="linearGradient2866">
      <stop
         style="stop-color:white;stop-opacity:1;"
         offset="0"
         id="stop2868" />
      <stop
         style="stop-color:white;stop-opacity:0;"
         offset="1"
         id="stop2870" />
    </linearGradient>
    <linearGradient
       inkscape:collect="always"
       id="linearGradient1970">
      <stop
         style="stop-color:#888a85;stop-opacity:1;"
         offset="0"
         id="stop1972" />
      <stop
         style="stop-color:#2e3436;stop-opacity:0"
         offset="1"
         id="stop1974" />
    </linearGradient>
    <linearGradient
       id="linearGradient4219">
      <stop
         id="stop4221"
         offset="0"
         style="stop-color:white;stop-opacity:0;" />
      <stop
         id="stop4223"
         offset="1"
         style="stop-color:white;stop-opacity:0.82310468;" />
    </linearGradient>
    <linearGradient
       inkscape:collect="always"
       id="linearGradient3312">
      <stop
         style="stop-color:black;stop-opacity:1;"
         offset="0"
         id="stop3314" />
      <stop
         style="stop-color:black;stop-opacity:0;"
         offset="1"
         id="stop3316" />
    </linearGradient>
    <linearGradient
       inkscape:collect="always"
       id="linearGradient2982">
      <stop
         style="stop-color:black;stop-opacity:1;"
         offset="0"
         id="stop2984" />
      <stop
         style="stop-color:black;stop-opacity:0;"
         offset="1"
         id="stop2986" />
    </linearGradient>
    <linearGradient
       id="linearGradient2958">
      <stop
         id="stop2960"
         offset="0"
         style="stop-color:white;stop-opacity:0;" />
      <stop
         style="stop-color:white;stop-opacity:0;"
         offset="0.86263734"
         id="stop2962" />
      <stop
         id="stop2964"
         offset="1"
         style="stop-color:white;stop-opacity:1;" />
    </linearGradient>
    <linearGradient
       id="linearGradient2944">
      <stop
         style="stop-color:black;stop-opacity:0;"
         offset="0"
         id="stop2946" />
      <stop
         id="stop2952"
         offset="0.71978021"
         style="stop-color:black;stop-opacity:0;" />
      <stop
         style="stop-color:black;stop-opacity:1;"
         offset="1"
         id="stop2948" />
    </linearGradient>
    <linearGradient
       inkscape:collect="always"
       id="linearGradient2934">
      <stop
         style="stop-color:white;stop-opacity:1;"
         offset="0"
         id="stop2936" />
      <stop
         style="stop-color:white;stop-opacity:0;"
         offset="1"
         id="stop2938" />
    </linearGradient>
    <linearGradient
       id="linearGradient3972">
      <stop
         id="stop3974"
         offset="0"
         style="stop-color:#af4e4e;stop-opacity:1;" />
      <stop
         id="stop3976"
         offset="1"
         style="stop-color:#581f1f;stop-opacity:1;" />
    </linearGradient>
    <radialGradient
       id="XMLID_5_"
       cx="57"
       cy="20"
       r="89.554398"
       gradientUnits="userSpaceOnUse">
      <stop
         offset="0.2071"
         style="stop-color:#4D94FF"
         id="stop3105" />
      <stop
         offset="0.3494"
         style="stop-color:#478DF8"
         id="stop3107" />
      <stop
         offset="0.5627"
         style="stop-color:#357BE3"
         id="stop3109" />
      <stop
         offset="0.8191"
         style="stop-color:#185EC2"
         id="stop3111" />
      <stop
         offset="1"
         style="stop-color:#0045A6"
         id="stop3113" />
    </radialGradient>
    <radialGradient
       inkscape:collect="always"
       xlink:href="#linearGradient3312"
       id="radialGradient3318"
       cx="81.086319"
       cy="86.384766"
       fx="81.086319"
       fy="86.384766"
       r="27.434785"
       gradientTransform="matrix(0.960506,-0.165088,-5.334885e-2,1.569808,8.894857,-33.00015)"
       gradientUnits="userSpaceOnUse" />
    <linearGradient
       inkscape:collect="always"
       xlink:href="#linearGradient1970"
       id="linearGradient1976"
       x1="35.375"
       y1="82.03125"
       x2="35.375"
       y2="84.04483"
       gradientUnits="userSpaceOnUse"
       gradientTransform="matrix(0.870836,-0.18595,0,0.960605,11.84255,19.30034)" />
    <radialGradient
       inkscape:collect="always"
       xlink:href="#linearGradient2866"
       id="radialGradient2872"
       cx="56.922096"
       cy="105.72437"
       fx="24.57196"
       fy="102.10045"
       r="43.487068"
       gradientTransform="matrix(1,0,0,2.439024e-2,0,103.1475)"
       gradientUnits="userSpaceOnUse" />
    <radialGradient
       inkscape:collect="always"
       xlink:href="#linearGradient2934"
       id="radialGradient2854"
       gradientUnits="userSpaceOnUse"
       gradientTransform="matrix(1.419744,-6.644861e-2,0.667296,5.827719,-274.2792,-662.5814)"
       cx="196.90475"
       cy="130.04858"
       fx="196.90475"
       fy="130.04858"
       r="4.8849899" />
    <radialGradient
       inkscape:collect="always"
       xlink:href="#linearGradient2934"
       id="radialGradient2857"
       gradientUnits="userSpaceOnUse"
       gradientTransform="matrix(1.268712,-0.612091,4.729454,10.45083,-790.2188,-1174.922)"
       cx="200.24985"
       cy="134.45642"
       fx="200.24985"
       fy="134.45642"
       r="4.8849899" />
    <radialGradient
       inkscape:collect="always"
       xlink:href="#linearGradient2958"
       id="radialGradient2864"
       gradientUnits="userSpaceOnUse"
       gradientTransform="matrix(1.776879,-0.63413,0.946846,2.633313,-381.3492,-128.6037)"
       cx="193.3486"
       cy="131.29668"
       fx="193.3486"
       fy="131.29668"
       r="17.107521" />
    <radialGradient
       inkscape:collect="always"
       xlink:href="#linearGradient2944"
       id="radialGradient2867"
       gradientUnits="userSpaceOnUse"
       gradientTransform="matrix(1.646657,-0.683576,0.981585,2.443334,-360.0193,-93.73338)"
       cx="200.0015"
       cy="130.46106"
       fx="200.0015"
       fy="130.46106"
       r="17.107522" />
    <radialGradient
       inkscape:collect="always"
       xlink:href="#linearGradient2934"
       id="radialGradient2870"
       gradientUnits="userSpaceOnUse"
       gradientTransform="matrix(0.35501,-0.164716,1.585847,3.615245,-194.6913,-372.38)"
       cx="202.2841"
       cy="130.64581"
       fx="202.2841"
       fy="130.64581"
       r="4.8849899" />
    <radialGradient
       inkscape:collect="always"
       xlink:href="#linearGradient3972"
       id="radialGradient2873"
       gradientUnits="userSpaceOnUse"
       gradientTransform="matrix(1.435154,-6.716987e-2,0.222483,1.943014,-218.2772,-150.5455)"
       cx="198.04059"
       cy="131.16762"
       fx="199.9751"
       fy="121.32745"
       r="17.107521" />
    <radialGradient
       inkscape:collect="always"
       xlink:href="#linearGradient2982"
       id="radialGradient2876"
       gradientUnits="userSpaceOnUse"
       gradientTransform="matrix(1,0,0,0.333333,0,67.60034)"
       cx="74.80101"
       cy="101.40051"
       fx="85.440811"
       fy="108.29221"
       r="27.566751" />
    <radialGradient
       inkscape:collect="always"
       xlink:href="#linearGradient3778"
       id="radialGradient3784"
       cx="9.9878836"
       cy="32.805748"
       fx="7.6641202"
       fy="30.224434"
       r="4.7729707"
       gradientTransform="matrix(0.773267,1.060949e-2,3.634053e-2,0.243281,1.072394,24.71877)"
       gradientUnits="userSpaceOnUse" />
    <linearGradient
       inkscape:collect="always"
       xlink:href="#linearGradient3804"
       id="linearGradient3810"
       x1="14.107679"
       y1="53.226318"
       x2="10.708"
       y2="59.976318"
       gradientUnits="userSpaceOnUse"
       gradientTransform="matrix(0.989262,0,0,0.989262,0.629683,1.400287)" />
    <linearGradient
       inkscape:collect="always"
       xlink:href="#linearGradient3812"
       id="linearGradient3818"
       x1="74.732681"
       y1="3.8115842"
       x2="24.228485"
       y2="45.311584"
       gradientUnits="userSpaceOnUse"
       gradientTransform="matrix(0.989262,0,0,0.989262,0.629683,1.400287)" />
    <linearGradient
       inkscape:collect="always"
       xlink:href="#linearGradient3812"
       id="linearGradient3826"
       x1="100.12177"
       y1="29.36578"
       x2="28.87278"
       y2="57.11578"
       gradientUnits="userSpaceOnUse"
       gradientTransform="matrix(0.989262,0,0,0.989262,0.629683,1.400287)" />
    <linearGradient
       inkscape:collect="always"
       xlink:href="#linearGradient3859"
       id="linearGradient3857"
       x1="6.5647802"
       y1="1.5813398"
       x2="63.755363"
       y2="103.61256"
       gradientUnits="userSpaceOnUse" />
  </defs>
  <sodipodi:namedview
     id="base"
     pagecolor="#ffffff"
     bordercolor="#666666"
     borderopacity="1.0"
     inkscape:pageopacity="0.0"
     inkscape:pageshadow="2"
     inkscape:zoom="2.8284271"
     inkscape:cx="118.5673"
     inkscape:cy="87.605201"
     inkscape:current-layer="layer1"
     showgrid="false"
     inkscape:document-units="px"
     inkscape:grid-bbox="true"
     guidetolerance="0.1px"
     showguides="true"
     inkscape:guide-bbox="true"
     inkscape:window-width="1106"
     inkscape:window-height="958"
     inkscape:window-x="646"
     inkscape:window-y="119">
    <sodipodi:guide
       orientation="horizontal"
       position="272.76574"
       id="guide2204" />
    <sodipodi:guide
       orientation="horizontal"
       position="163"
       id="guide2884" />
  </sodipodi:namedview>
  <metadata
     id="metadata1312">
    <rdf:RDF>
      <cc:Work
         rdf:about="">
        <dc:format>image/svg+xml</dc:format>
        <dc:type
           rdf:resource="http://purl.org/dc/dcmitype/StillImage" />
        <cc:license
           rdf:resource="http://creativecommons.org/licenses/GPL/2.0/" />
        <dc:contributor>
          <cc:Agent>
            <dc:title>Oxygen team</dc:title>
          </cc:Agent>
        </dc:contributor>
      </cc:Work>
      <cc:License
         rdf:about="http://creativecommons.org/licenses/LGPL/2.1/">
        <cc:permits
           rdf:resource="http://web.resource.org/cc/Reproduction" />
        <cc:permits
           rdf:resource="http://web.resource.org/cc/Distribution" />
        <cc:requires
           rdf:resource="http://web.resource.org/cc/Notice" />
        <cc:permits
           rdf:resource="http://web.resource.org/cc/DerivativeWorks" />
        <cc:requires
           rdf:resource="http://web.resource.org/cc/ShareAlike" />
        <cc:requires
           rdf:resource="http://web.resource.org/cc/SourceCode" />
      </cc:License>
    </rdf:RDF>
  </metadata>
  <g
     id="layer1"
     inkscape:label="Layer 1"
     inkscape:groupmode="layer">
    <path
       sodipodi:nodetypes="cccccccc"
       style="fill:url(#linearGradient3826);fill-opacity:1;fill-rule:evenodd;stroke:none;stroke-width:1px;stroke-linecap:butt;stroke-linejoin:miter;stroke-opacity:1"
       d="M 15.931551,46.826145 L 11.38471,44.640164 L 98.526552,34.860181 L 101.12738,34.568289 L 104.37636,35.952316 L 86.757342,54.489433 L 22.489495,50.673472 L 15.931551,46.826145 z "
       id="path2888" />
    <path
       id="path2882"
       d="M 12.084224,36.958557 L 8.24449,35.037741 C 8.5166334,34.596646 8.8455093,34.211756 9.3531799,34.047357 L 94.137981,0.18477912 L 94.307122,0.11722497 L 94.406331,0.16389229 L 97.484275,1.6117367 L 79.937081,20.03837 L 18.642168,40.805884 L 12.084224,36.958557 z "
       style="fill:url(#linearGradient3818);fill-opacity:1;fill-rule:evenodd;stroke:none;stroke-width:1px;stroke-linecap:butt;stroke-linejoin:miter;stroke-opacity:1"
       sodipodi:nodetypes="cccccccccc" />
    <path
       style="fill:url(#linearGradient3810);fill-opacity:1;fill-rule:evenodd;stroke:none;stroke-width:1px;stroke-linecap:butt;stroke-linejoin:miter;stroke-opacity:1"
       d="M 12.084224,36.958557 L 8.2500143,35.032217 C 7.9265209,35.663811 7.9975365,36.168728 8.1380799,36.69285 L 11.987997,49.000049 L 11.297271,124.3534 L 15.833895,127.65205 L 18.642168,40.805884 L 12.084224,36.958557 z "
       id="path2878"
       sodipodi:nodetypes="cccccccc" />
    <path
       sodipodi:nodetypes="ccccccccccc"
       id="polygon3115"
       d="M 28.153933,43.685145 L 101.41867,12.57888 L 97.674348,1.8353412 C 97.601297,1.5890679 97.311194,1.5447225 97.178049,1.6060577 L 14.154213,36.131468 C 13.223898,36.606121 12.331146,37.516085 12.636052,38.828212 L 15.832936,51.472081 L 15.832936,127.64813 L 104.414,108.29807 L 104.414,36.252596 L 28.153933,43.685145 z "
       inkscape:transform-center-y="-33.251454"
       inkscape:transform-center-x="-45.54193"
       style="fill:url(#linearGradient3857);fill-opacity:1.0" />
    <path
       id="path3119"
       d="M 96.838855,48.436007 L 89.349673,49.348213 L 91.05559,40.362386 L 98.539932,39.450772 L 96.838855,48.436007 M 60.426936,44.093049 L 67.911278,43.181433 L 66.20536,52.16726 L 58.718597,53.079169 L 60.426936,44.093049 M 75.740659,42.22779 L 83.229842,41.315587 L 81.521504,50.301706 L 74.037163,51.213322 L 75.740659,42.22779 M 45.112006,45.958453 L 52.598767,45.046543 L 50.89527,54.032075 L 43.40003,54.945016 L 45.112006,45.958453 z "
       style="fill:white"
       inkscape:transform-center-x="54.949867"
       inkscape:transform-center-y="-20.636692" />
    <path
       id="path3121"
       d="M 22.175521,54.470408 C 22.175521,55.834079 23.090421,56.740948 24.220014,56.494195 C 25.343993,56.248667 26.258892,54.942089 26.258892,53.578418 C 26.258892,52.2132 25.343993,51.30478 24.220014,51.550309 C 23.090421,51.797061 22.175521,53.105189 22.175521,54.470408 z "
       style="fill:white"
       inkscape:transform-center-x="-11.901232"
       inkscape:transform-center-y="-33.266679" />
    <path
       style="fill:white"
       d="M 42.774095,34.131833 L 49.916504,31.202596 L 44.144927,25.012131 L 37.00485,27.941065 L 42.774095,34.131833 M 73.347509,13.026594 L 66.209763,15.955224 L 71.978685,22.14978 L 79.119087,19.217059 L 73.347509,13.026594 M 58.746746,19.019919 L 51.606454,21.951377 L 57.380364,28.141537 L 64.515777,25.213211 L 58.746746,19.019919 M 87.949329,7.0343809 L 80.809143,9.9645779 L 86.580505,16.157566 L 93.726844,13.222822 L 87.949329,7.0343809 z "
       id="path3123"
       inkscape:transform-center-x="-45.021977"
       inkscape:transform-center-y="-50.587901" />
    <rect
       style="opacity:0.83196721;fill:white;fill-opacity:1;fill-rule:nonzero;stroke:none;stroke-width:0.1;stroke-linecap:round;stroke-linejoin:round;stroke-miterlimit:4;stroke-dasharray:none;stroke-dashoffset:4;stroke-opacity:1"
       id="rect3294"
       width="79.651482"
       height="22.075636"
       x="23.75816"
       y="100.63526"
       transform="matrix(0.977954,-0.208822,0,1,0,0)" />
    <path
       sodipodi:nodetypes="ccc"
       id="path2276"
       d="M 50.892799,3.2812959 L 50.892799,0.48658747 L 50.892799,3.2812959 z "
       style="fill:#ffffff;fill-opacity:0.75688076;fill-rule:nonzero;stroke:none;stroke-width:0.5;stroke-linecap:round;stroke-linejoin:round;stroke-miterlimit:4;stroke-dasharray:none;stroke-dashoffset:4;stroke-opacity:1" />
    <path
       sodipodi:type="arc"
       style="opacity:0.83196721;fill:url(#radialGradient2872);fill-opacity:1;fill-rule:nonzero;stroke:none;stroke-width:7;stroke-linecap:round;stroke-linejoin:round;stroke-miterlimit:4;stroke-dasharray:none;stroke-dashoffset:4;stroke-opacity:1"
       id="path1978"
       sodipodi:cx="56.922096"
       sodipodi:cy="105.72614"
       sodipodi:rx="43.487068"
       sodipodi:ry="1.0606601"
       d="M 100.40916 105.72614 A 43.487068 1.0606601 0 1 1  13.435028,105.72614 A 43.487068 1.0606601 0 1 1  100.40916 105.72614 z"
       transform="matrix(0.870836,-0.18595,0,0.960605,11.38072,18.88952)" />
    <path
       style="opacity:1;fill:url(#radialGradient3318);fill-opacity:1;fill-rule:nonzero;stroke:none;stroke-width:0.1;stroke-linecap:round;stroke-linejoin:round;stroke-miterlimit:4;stroke-dasharray:none;stroke-dashoffset:4;stroke-opacity:1"
       d="M 80.8291,52.17961 C 68.327906,55.400719 57.563764,70.933454 56.255193,88.376381 C 55.30633,101.02448 59.572967,111.43681 66.650799,116.29559 L 93.565078,110.54858 C 98.225157,105.53872 101.92981,98.741453 103.90626,91.169599 L 103.90626,67.784869 C 100.7182,57.18069 92.960393,50.542407 83.332752,51.705042 C 82.485975,51.807299 81.662512,51.964869 80.8291,52.17961 z "
       id="rect3308" />
    <path
       style="opacity:0.83196721;fill:url(#linearGradient1976);fill-opacity:1;fill-rule:nonzero;stroke:none;stroke-width:0.1;stroke-linecap:round;stroke-linejoin:round;stroke-miterlimit:4;stroke-dasharray:none;stroke-dashoffset:4;stroke-opacity:1"
       d="M 23.24506,95.665199 L 23.24506,98.276843 L 101.13047,81.645942 L 101.13047,79.034297 L 23.24506,95.665199 z "
       id="rect1956"
       sodipodi:nodetypes="ccccc" />
    <path
       sodipodi:type="arc"
       style="fill:url(#radialGradient2876);fill-opacity:1;fill-rule:nonzero;stroke:none;stroke-width:0.1;stroke-linecap:round;stroke-linejoin:round;stroke-miterlimit:4;stroke-dasharray:none;stroke-dashoffset:4;stroke-opacity:1"
       id="path2980"
       sodipodi:cx="74.80101"
       sodipodi:cy="101.40051"
       sodipodi:rx="27.566751"
       sodipodi:ry="9.1889172"
       d="M 102.36776 101.40051 A 27.566751 9.1889172 0 1 1  47.234259,101.40051 A 27.566751 9.1889172 0 1 1  102.36776 101.40051 z"
       transform="matrix(1.347682,6.630227e-4,-7.90729e-4,1.60776,-22.63372,-53.58175)" />
    <path
       style="fill:url(#radialGradient2873);fill-opacity:1;fill-rule:evenodd;stroke:none;stroke-width:1px;stroke-linecap:butt;stroke-linejoin:miter;stroke-opacity:1"
       d="M 91.571096,57.891215 C 110.464,59.112285 121.86386,82.379749 120.78143,107.82617 C 120.55677,113.108 117.05302,120.01636 111.06928,121.52839 C 107.2675,122.48906 103.59273,119.38761 102.87128,118.795 C 102.99687,120.19258 105.99161,122.65535 103.84328,123.42513 C 94.277733,126.85261 75.498796,120.34085 69.81841,85.27473 C 67.158731,68.838253 78.185789,57.035172 91.571096,57.891215 z "
       id="path2027"
       sodipodi:nodetypes="csscsss" />
    <path
       style="opacity:0.21311478;fill:url(#radialGradient2870);fill-opacity:1;fill-rule:evenodd;stroke:none;stroke-width:1px;stroke-linecap:butt;stroke-linejoin:miter;stroke-opacity:1"
       d="M 82.296277,63.210676 C 85.441031,70.278038 90.915532,80.991112 93.544753,88.622461 C 94.872588,93.711244 96.110168,99.63394 97.390742,105.15925 C 98.676471,110.24114 100.72874,114.30036 102.39794,118.87067 C 102.19262,119.34362 102.89275,120.27483 103.19026,120.63927 C 103.0089,121.14993 101.7343,118.53446 101.02238,116.98172 C 100.02479,114.80602 96.97307,109.01167 96.495714,106.65989 C 95.471519,101.25751 93.95207,95.252484 91.613313,89.057454 C 89.71701,83.165278 78.883207,61.374332 82.296277,63.210676 z "
       id="path2976"
       sodipodi:nodetypes="cccccsccc" />
    <path
       sodipodi:nodetypes="csscsss"
       id="path2942"
       d="M 91.571096,57.891215 C 110.464,59.112285 121.86386,82.379749 120.78143,107.82617 C 120.55677,113.108 117.05302,120.01636 111.06928,121.52839 C 107.2675,122.48906 103.59273,119.38761 102.87128,118.795 C 102.99687,120.19258 105.99161,122.65535 103.84328,123.42513 C 94.277733,126.85261 75.498796,120.34085 69.81841,85.27473 C 67.158731,68.838253 78.185789,57.035172 91.571096,57.891215 z "
       style="fill:url(#radialGradient2867);fill-opacity:1;fill-rule:evenodd;stroke:none;stroke-width:1px;stroke-linecap:butt;stroke-linejoin:miter;stroke-opacity:1" />
    <path
       style="fill:url(#radialGradient2864);fill-opacity:1;fill-rule:evenodd;stroke:none;stroke-width:1px;stroke-linecap:butt;stroke-linejoin:miter;stroke-opacity:1"
       d="M 91.46895,58.231925 C 110.30298,59.457677 121.67427,82.603021 120.60308,107.90767 C 120.38073,113.16008 116.8901,120.028 110.92559,121.52802 C 107.13603,122.48107 103.47183,119.39459 102.75246,118.80479 C 102.87809,120.19472 105.8642,122.64564 103.72286,123.40986 C 94.18836,126.81253 75.466299,120.32548 69.792914,85.450394 C 67.136504,69.103438 78.125348,57.372512 91.46895,58.231925 z "
       id="path2954"
       sodipodi:nodetypes="csscsss" />
    <path
       style="opacity:0.10655739;fill:black;fill-opacity:1;fill-rule:evenodd;stroke:none;stroke-width:1px;stroke-linecap:butt;stroke-linejoin:miter;stroke-opacity:1"
       d="M 84.2641,67.252345 C 87.408858,74.319709 90.915532,80.991112 93.544753,88.622461 C 94.872588,93.711244 96.110168,99.63394 97.390742,105.15925 C 98.676471,110.24114 100.72874,114.30036 102.39794,118.87067 C 104.84715,120.94557 108.174,121.9923 109.88362,121.72283 C 109.70229,122.23353 103.52488,118.54152 102.81295,116.98877 C 101.81536,114.81306 98.962766,103.39418 99.076004,103.53588 C 98.051806,98.133506 97.628979,93.009616 95.29022,86.814584 C 92.4474,78.695403 85.600296,67.28332 84.2641,67.252345 z "
       id="path2924"
       sodipodi:nodetypes="cccccsccc" />
    <path
       sodipodi:nodetypes="cccccsccc"
       id="path2926"
       d="M 84.2641,67.252345 C 87.408858,74.319709 90.915532,80.991112 93.544753,88.622461 C 94.872588,93.711244 96.110168,99.63394 97.390742,105.15925 C 98.676471,110.24114 100.72874,114.30036 102.39794,118.87067 C 104.84715,120.94557 108.174,121.9923 109.88362,121.72283 C 109.70229,122.23353 103.67865,119.49016 102.7348,118.08265 C 101.49371,116.23183 97.427557,104.34857 97.767625,104.18764 C 96.743432,98.785268 96.153596,93.623774 93.814837,87.428759 C 90.972016,79.309576 85.600296,67.28332 84.2641,67.252345 z "
       style="opacity:0.20081967;fill:black;fill-opacity:1;fill-rule:evenodd;stroke:none;stroke-width:1px;stroke-linecap:butt;stroke-linejoin:miter;stroke-opacity:1" />
    <path
       style="opacity:0.20081967;fill:black;fill-opacity:1;fill-rule:evenodd;stroke:none;stroke-width:1px;stroke-linecap:butt;stroke-linejoin:miter;stroke-opacity:1"
       d="M 84.863452,68.223683 C 88.008212,75.291025 90.915532,80.991112 93.544753,88.622461 C 94.872588,93.711244 96.110168,99.63394 97.390742,105.15925 C 98.676471,110.24114 100.72874,114.30036 102.39794,118.87067 C 104.84715,120.94557 108.174,121.9923 109.88362,121.72283 C 109.70229,122.23353 104.06257,119.2905 103.11872,117.88298 C 101.87762,116.03218 97.871688,103.96439 98.211759,103.80346 C 97.179786,98.401448 96.413368,93.248221 94.258969,87.044574 C 91.416162,78.925394 86.19965,68.254639 84.863452,68.223683 z "
       id="path2928"
       sodipodi:nodetypes="cccccsccc" />
    <path
       sodipodi:nodetypes="cccccsccc"
       id="path2930"
       d="M 82.881018,64.409819 C 86.025788,71.477182 90.915532,80.991112 93.544753,88.622461 C 94.872588,93.711244 96.110168,99.63394 97.390742,105.15925 C 98.676471,110.24114 100.72874,114.30036 102.39794,118.87067 C 104.84715,120.94557 108.174,121.9923 109.88362,121.72283 C 109.70229,122.23353 104.79891,118.30016 104.08697,116.74744 C 103.0894,114.57172 100.62556,105.83749 100.1482,103.48569 C 99.123987,98.083322 98.750574,92.502857 96.411816,86.307825 C 93.569011,78.188648 85.897695,64.907237 82.881018,64.409819 z "
       style="opacity:0.10655739;fill:black;fill-opacity:1;fill-rule:evenodd;stroke:none;stroke-width:1px;stroke-linecap:butt;stroke-linejoin:miter;stroke-opacity:1" />
    <path
       sodipodi:nodetypes="cccccsccc"
       id="path2968"
       d="M 82.881018,64.409819 C 86.025788,71.477182 90.915532,80.991112 93.544753,88.622461 C 94.872588,93.711244 96.110168,99.63394 97.390742,105.15925 C 98.676471,110.24114 100.72874,114.30036 102.39794,118.87067 C 102.19262,119.34362 102.89275,120.27483 103.19026,120.63927 C 103.0089,121.14993 101.7343,118.53446 101.02238,116.98172 C 100.02479,114.80602 96.97307,109.01167 96.495714,106.65989 C 95.471519,101.25751 94.113912,95.244901 91.775139,89.049881 C 89.878839,83.157689 82.171617,65.581324 82.881018,64.409819 z "
       style="opacity:0.21311478;fill:url(#radialGradient2857);fill-opacity:1;fill-rule:evenodd;stroke:none;stroke-width:1px;stroke-linecap:butt;stroke-linejoin:miter;stroke-opacity:1" />
    <path
       style="opacity:0.73999999;fill:url(#radialGradient2854);fill-opacity:1;fill-rule:evenodd;stroke:none;stroke-width:1px;stroke-linecap:butt;stroke-linejoin:miter;stroke-opacity:1"
       d="M 82.881018,64.409819 C 86.025788,71.477182 90.915532,80.991112 93.544753,88.622461 C 94.872588,93.711244 96.110168,99.63394 97.390742,105.15925 C 98.676471,110.24114 100.72874,114.30036 102.39794,118.87067 C 102.19262,119.34362 102.89275,120.27483 103.19026,120.63927 C 103.0089,121.14993 101.7343,118.53446 101.02238,116.98172 C 100.02479,114.80602 97.327074,107.58178 96.849718,105.22999 C 95.82552,99.827619 94.706906,95.069846 92.368148,88.874815 C 90.471844,82.982641 82.171617,65.581324 82.881018,64.409819 z "
       id="path2932"
       sodipodi:nodetypes="cccccsccc" />
    <path
       style="opacity:0.10655739;fill:black;fill-opacity:1;fill-rule:evenodd;stroke:none;stroke-width:1px;stroke-linecap:butt;stroke-linejoin:miter;stroke-opacity:1"
       d="M 82.881018,64.409819 C 86.025788,71.477182 90.915532,80.991112 93.544753,88.622461 C 94.872588,93.711244 96.110168,99.63394 97.390742,105.15925 C 98.676471,110.24114 100.72874,114.30036 102.39794,118.87067 C 104.84715,120.94557 108.174,121.9923 109.88362,121.72283 C 109.70229,122.23353 103.58883,119.81047 102.87691,118.25773 C 101.87933,116.08202 98.470102,106.55162 97.992747,104.19984 C 96.968537,98.797449 96.052908,93.810199 93.714149,87.615166 C 90.871329,79.495984 85.13546,67.486762 82.881018,64.409819 z "
       id="path2972"
       sodipodi:nodetypes="cccccsccc" />
    <path
       style="opacity:0.10655739;fill:black;fill-opacity:1;fill-rule:evenodd;stroke:none;stroke-width:1px;stroke-linecap:butt;stroke-linejoin:miter;stroke-opacity:1"
       d="M 82.607586,63.780198 C 85.752341,70.84756 90.915532,80.991112 93.544753,88.622461 C 94.872588,93.711244 96.110168,99.63394 97.390742,105.15925 C 98.676471,110.24114 100.72874,114.30036 102.39794,118.87067 C 104.84715,120.94557 108.174,121.9923 109.88362,121.72283 C 109.70229,122.23353 104.81589,117.02745 103.24222,110.79073 C 100.67073,100.59969 99.068327,88.438937 95.366008,78.665546 C 92.319747,70.623987 81.834955,60.825293 82.607586,63.780198 z "
       id="path2974"
       sodipodi:nodetypes="cccccssc" />
    <path
       sodipodi:type="arc"
       style="opacity:0.63999999;fill:url(#radialGradient3784);fill-opacity:1;fill-rule:nonzero;stroke:none;stroke-width:0.04;stroke-linecap:round;stroke-linejoin:round;stroke-miterlimit:4;stroke-dasharray:none;stroke-dashoffset:4;stroke-opacity:1"
       id="path2890"
       sodipodi:cx="9.9878836"
       sodipodi:cy="32.805748"
       sodipodi:rx="3.6510444"
       sodipodi:ry="1.4502201"
       d="M 13.638928 32.805748 A 3.6510444 1.4502201 0 1 1  6.3368392,32.805748 A 3.6510444 1.4502201 0 1 1  13.638928 32.805748 z"
       transform="matrix(0.6594,0.269717,-0.285147,0.62372,13.29573,13.04156)" />
  </g>
</svg>
