<?xml version="1.0" encoding="UTF-8" standalone="no"?>
<!-- Created with Inkscape (http://www.inkscape.org/) -->
<svg
   xmlns:dc="http://purl.org/dc/elements/1.1/"
   xmlns:cc="http://web.resource.org/cc/"
   xmlns:rdf="http://www.w3.org/1999/02/22-rdf-syntax-ns#"
   xmlns:svg="http://www.w3.org/2000/svg"
   xmlns="http://www.w3.org/2000/svg"
   xmlns:xlink="http://www.w3.org/1999/xlink"
   xmlns:sodipodi="http://sodipodi.sourceforge.net/DTD/sodipodi-0.dtd"
   xmlns:inkscape="http://www.inkscape.org/namespaces/inkscape"
   width="128"
   height="128"
   id="svg1307"
   sodipodi:version="0.32"
   inkscape:version="0.44"
   version="1.0"
   sodipodi:docbase="/home/pinheiro/artwork/Oxygen/theme/svg/apps"
   sodipodi:docname="kaffeine.svg">
  <defs
     id="defs1309">
    <linearGradient
       inkscape:collect="always"
       id="linearGradient3014">
      <stop
         style="stop-color:black;stop-opacity:1;"
         offset="0"
         id="stop3016" />
      <stop
         style="stop-color:black;stop-opacity:0;"
         offset="1"
         id="stop3018" />
    </linearGradient>
    <linearGradient
       id="linearGradient2918">
      <stop
         style="stop-color:black;stop-opacity:0.78700364;"
         offset="0"
         id="stop2920" />
      <stop
         id="stop2926"
         offset="0.5"
         style="stop-color:black;stop-opacity:0.76534295;" />
      <stop
         style="stop-color:black;stop-opacity:0;"
         offset="1"
         id="stop2922" />
    </linearGradient>
    <linearGradient
       inkscape:collect="always"
       id="linearGradient2908">
      <stop
         style="stop-color:black;stop-opacity:1;"
         offset="0"
         id="stop2910" />
      <stop
         style="stop-color:black;stop-opacity:0;"
         offset="1"
         id="stop2912" />
    </linearGradient>
    <linearGradient
       id="linearGradient2892">
      <stop
         style="stop-color:#d3d7cf;stop-opacity:1;"
         offset="0"
         id="stop2894" />
      <stop
         id="stop2900"
         offset="0.81318682"
         style="stop-color:#d3d7cf;stop-opacity:0.88086641;" />
      <stop
         style="stop-color:#d3d7cf;stop-opacity:0.35018051;"
         offset="1"
         id="stop2896" />
    </linearGradient>
    <linearGradient
       inkscape:collect="always"
       id="linearGradient2862">
      <stop
         style="stop-color:white;stop-opacity:1;"
         offset="0"
         id="stop2864" />
      <stop
         style="stop-color:white;stop-opacity:0;"
         offset="1"
         id="stop2866" />
    </linearGradient>
    <linearGradient
       id="linearGradient3859">
      <stop
         id="stop3861"
         offset="0"
         style="stop-color:#7e7e7e;stop-opacity:1;" />
      <stop
         id="stop3863"
         offset="1"
         style="stop-color:black;stop-opacity:1;" />
    </linearGradient>
    <linearGradient
       id="linearGradient3812">
      <stop
         style="stop-color:#7e7e7e;stop-opacity:1;"
         offset="0"
         id="stop3814" />
      <stop
         style="stop-color:#2b2b2b;stop-opacity:1;"
         offset="1"
         id="stop3816" />
    </linearGradient>
    <linearGradient
       id="linearGradient3804">
      <stop
         style="stop-color:#111;stop-opacity:1;"
         offset="0"
         id="stop3806" />
      <stop
         style="stop-color:#383838;stop-opacity:1;"
         offset="1"
         id="stop3808" />
    </linearGradient>
    <linearGradient
       inkscape:collect="always"
       id="linearGradient3778">
      <stop
         style="stop-color:white;stop-opacity:1;"
         offset="0"
         id="stop3780" />
      <stop
         style="stop-color:white;stop-opacity:0;"
         offset="1"
         id="stop3782" />
    </linearGradient>
    <linearGradient
       inkscape:collect="always"
       id="linearGradient2866">
      <stop
         style="stop-color:white;stop-opacity:1;"
         offset="0"
         id="stop2868" />
      <stop
         style="stop-color:white;stop-opacity:0;"
         offset="1"
         id="stop2870" />
    </linearGradient>
    <linearGradient
       inkscape:collect="always"
       id="linearGradient1970">
      <stop
         style="stop-color:#888a85;stop-opacity:1;"
         offset="0"
         id="stop1972" />
      <stop
         style="stop-color:#2e3436;stop-opacity:0"
         offset="1"
         id="stop1974" />
    </linearGradient>
    <linearGradient
       id="linearGradient4219">
      <stop
         id="stop4221"
         offset="0"
         style="stop-color:white;stop-opacity:0;" />
      <stop
         id="stop4223"
         offset="1"
         style="stop-color:white;stop-opacity:0.82310468;" />
    </linearGradient>
    <linearGradient
       inkscape:collect="always"
       id="linearGradient3312">
      <stop
         style="stop-color:black;stop-opacity:1;"
         offset="0"
         id="stop3314" />
      <stop
         style="stop-color:black;stop-opacity:0;"
         offset="1"
         id="stop3316" />
    </linearGradient>
    <linearGradient
       inkscape:collect="always"
       id="linearGradient2982">
      <stop
         style="stop-color:black;stop-opacity:1;"
         offset="0"
         id="stop2984" />
      <stop
         style="stop-color:black;stop-opacity:0;"
         offset="1"
         id="stop2986" />
    </linearGradient>
    <linearGradient
       id="linearGradient2958">
      <stop
         id="stop2960"
         offset="0"
         style="stop-color:white;stop-opacity:0;" />
      <stop
         style="stop-color:white;stop-opacity:0;"
         offset="0.86263734"
         id="stop2962" />
      <stop
         id="stop2964"
         offset="1"
         style="stop-color:white;stop-opacity:1;" />
    </linearGradient>
    <linearGradient
       id="linearGradient2944">
      <stop
         style="stop-color:black;stop-opacity:0;"
         offset="0"
         id="stop2946" />
      <stop
         id="stop2952"
         offset="0.71978021"
         style="stop-color:black;stop-opacity:0;" />
      <stop
         style="stop-color:black;stop-opacity:1;"
         offset="1"
         id="stop2948" />
    </linearGradient>
    <linearGradient
       inkscape:collect="always"
       id="linearGradient2934">
      <stop
         style="stop-color:white;stop-opacity:1;"
         offset="0"
         id="stop2936" />
      <stop
         style="stop-color:white;stop-opacity:0;"
         offset="1"
         id="stop2938" />
    </linearGradient>
    <linearGradient
       id="linearGradient3972">
      <stop
         id="stop3974"
         offset="0"
         style="stop-color:#af4e4e;stop-opacity:1;" />
      <stop
         id="stop3976"
         offset="1"
         style="stop-color:#581f1f;stop-opacity:1;" />
    </linearGradient>
    <radialGradient
       id="XMLID_5_"
       cx="57"
       cy="20"
       r="89.554398"
       gradientUnits="userSpaceOnUse">
      <stop
         offset="0.2071"
         style="stop-color:#4D94FF"
         id="stop3105" />
      <stop
         offset="0.3494"
         style="stop-color:#478DF8"
         id="stop3107" />
      <stop
         offset="0.5627"
         style="stop-color:#357BE3"
         id="stop3109" />
      <stop
         offset="0.8191"
         style="stop-color:#185EC2"
         id="stop3111" />
      <stop
         offset="1"
         style="stop-color:#0045A6"
         id="stop3113" />
    </radialGradient>
    <radialGradient
       inkscape:collect="always"
       xlink:href="#linearGradient3312"
       id="radialGradient3318"
       cx="81.086319"
       cy="86.384766"
       fx="81.086319"
       fy="86.384766"
       r="27.434785"
       gradientTransform="matrix(0.932721,-0.160312,-5.180558e-2,1.524397,11.39678,-30.05283)"
       gradientUnits="userSpaceOnUse" />
    <radialGradient
       inkscape:collect="always"
       xlink:href="#linearGradient2866"
       id="radialGradient2872"
       cx="56.922096"
       cy="105.72437"
       fx="24.57196"
       fy="102.10045"
       r="43.487068"
       gradientTransform="matrix(1,0,0,2.439024e-2,0,103.1475)"
       gradientUnits="userSpaceOnUse" />
    <radialGradient
       inkscape:collect="always"
       xlink:href="#linearGradient2934"
       id="radialGradient2854"
       gradientUnits="userSpaceOnUse"
       gradientTransform="matrix(1.549768,-0.258418,1.49383,6.309891,-406.1098,-687.1984)"
       cx="196.90475"
       cy="130.04858"
       fx="196.90475"
       fy="130.04858"
       r="4.8849899" />
    <radialGradient
       inkscape:collect="always"
       xlink:href="#linearGradient2934"
       id="radialGradient2857"
       gradientUnits="userSpaceOnUse"
       gradientTransform="matrix(1.312696,-0.837636,6.556817,10.85398,-1039.388,-1182.19)"
       cx="200.24985"
       cy="134.45642"
       fx="200.24985"
       fy="134.45642"
       r="4.8849899" />
    <radialGradient
       inkscape:collect="always"
       xlink:href="#linearGradient2958"
       id="radialGradient2864"
       gradientUnits="userSpaceOnUse"
       gradientTransform="matrix(1.867631,-0.928216,1.38337,2.766881,-453.8807,-87.06521)"
       cx="193.3486"
       cy="131.29668"
       fx="193.3486"
       fy="131.29668"
       r="17.107521" />
    <radialGradient
       inkscape:collect="always"
       xlink:href="#linearGradient2944"
       id="radialGradient2867"
       gradientUnits="userSpaceOnUse"
       gradientTransform="matrix(1.718227,-0.965481,1.396683,2.553804,-425.9114,-51.57472)"
       cx="200.0015"
       cy="130.46106"
       fx="200.0015"
       fy="130.46106"
       r="17.107522" />
    <radialGradient
       inkscape:collect="always"
       xlink:href="#linearGradient2934"
       id="radialGradient2870"
       gradientUnits="userSpaceOnUse"
       gradientTransform="matrix(0.368175,-0.227187,2.213081,3.761264,-280.8341,-379.0429)"
       cx="202.2841"
       cy="130.64581"
       fx="202.2841"
       fy="130.64581"
       r="4.8849899" />
    <radialGradient
       inkscape:collect="always"
       xlink:href="#linearGradient3972"
       id="radialGradient2873"
       gradientUnits="userSpaceOnUse"
       gradientTransform="matrix(1.566588,-0.261223,0.498058,2.103774,-277.7435,-132.4546)"
       cx="198.04059"
       cy="131.16762"
       fx="199.9751"
       fy="121.32745"
       r="17.107521" />
    <radialGradient
       inkscape:collect="always"
       xlink:href="#linearGradient2982"
       id="radialGradient2876"
       gradientUnits="userSpaceOnUse"
       gradientTransform="matrix(1,0,0,0.333333,0,67.60034)"
       cx="74.80101"
       cy="101.40051"
       fx="85.440811"
       fy="108.29221"
       r="27.566751" />
    <radialGradient
       inkscape:collect="always"
       xlink:href="#linearGradient3778"
       id="radialGradient3784"
       cx="9.9878836"
       cy="32.805748"
       fx="7.6641202"
       fy="30.224434"
       r="4.7729707"
       gradientTransform="matrix(0.773267,1.060949e-2,3.634053e-2,0.243281,1.072394,24.71877)"
       gradientUnits="userSpaceOnUse" />
    <linearGradient
       inkscape:collect="always"
       xlink:href="#linearGradient3804"
       id="linearGradient3810"
       x1="14.107679"
       y1="53.226318"
       x2="10.708"
       y2="59.976318"
       gradientUnits="userSpaceOnUse"
       gradientTransform="matrix(0.960645,0,0,0.960645,3.370703,3.352478)" />
    <linearGradient
       inkscape:collect="always"
       xlink:href="#linearGradient3812"
       id="linearGradient3818"
       x1="74.732681"
       y1="3.8115842"
       x2="24.228485"
       y2="45.311584"
       gradientUnits="userSpaceOnUse"
       gradientTransform="matrix(0.960645,0,0,0.960645,3.370703,3.352478)" />
    <linearGradient
       inkscape:collect="always"
       xlink:href="#linearGradient3812"
       id="linearGradient3826"
       x1="100.12177"
       y1="29.36578"
       x2="28.87278"
       y2="57.11578"
       gradientUnits="userSpaceOnUse"
       gradientTransform="matrix(0.960645,0,0,0.960645,3.370703,3.352478)" />
    <linearGradient
       inkscape:collect="always"
       xlink:href="#linearGradient3859"
       id="linearGradient3857"
       x1="6.5647802"
       y1="1.5813398"
       x2="63.755363"
       y2="103.61256"
       gradientUnits="userSpaceOnUse"
       gradientTransform="matrix(0.971072,0,0,0.971072,2.759237,1.992698)" />
    <radialGradient
       inkscape:collect="always"
       xlink:href="#linearGradient2862"
       id="radialGradient2868"
       cx="95.391907"
       cy="0.32776174"
       fx="94.426888"
       fy="0.28557318"
       r="1.4867874"
       gradientTransform="matrix(1.079341,0.552245,-9.468171e-2,0.185053,-7.514539,-49.99694)"
       gradientUnits="userSpaceOnUse" />
    <linearGradient
       inkscape:collect="always"
       xlink:href="#linearGradient1970"
       id="linearGradient2874"
       gradientUnits="userSpaceOnUse"
       gradientTransform="matrix(0.845644,-0.159458,0,0.932816,14.2592,20.45827)"
       x1="35.375"
       y1="82.03125"
       x2="35.375"
       y2="84.04483" />
    <linearGradient
       inkscape:collect="always"
       xlink:href="#linearGradient2892"
       id="linearGradient2898"
       x1="8.0271425"
       y1="59.400066"
       x2="53.852558"
       y2="84.843811"
       gradientUnits="userSpaceOnUse"
       spreadMethod="reflect"
       gradientTransform="matrix(0.971073,-4.796458e-7,0,0.971073,0.817091,4.0358)" />
    <linearGradient
       inkscape:collect="always"
       xlink:href="#linearGradient2908"
       id="linearGradient2914"
       x1="17.636654"
       y1="107.08839"
       x2="94.177834"
       y2="154.20468"
       gradientUnits="userSpaceOnUse"
       gradientTransform="matrix(0.971073,2.321457e-7,0,0.971073,2.759235,2.542094)" />
    <linearGradient
       inkscape:collect="always"
       xlink:href="#linearGradient2892"
       id="linearGradient2999"
       gradientUnits="userSpaceOnUse"
       gradientTransform="matrix(0.976469,-4.249135e-7,0,0.976469,-98.49591,-8.213065)"
       spreadMethod="reflect"
       x1="8.0271425"
       y1="59.400066"
       x2="53.852558"
       y2="84.843811" />
    <linearGradient
       inkscape:collect="always"
       xlink:href="#linearGradient2908"
       id="linearGradient3001"
       gradientUnits="userSpaceOnUse"
       gradientTransform="matrix(0.976469,1.447596e-7,0,0.976469,-96.54297,-17.21901)"
       x1="17.636654"
       y1="107.08839"
       x2="94.177834"
       y2="154.20468" />
    <linearGradient
       inkscape:collect="always"
       xlink:href="#linearGradient3014"
       id="linearGradient3020"
       x1="-41.965721"
       y1="123.15611"
       x2="3.90625"
       y2="-33.343899"
       gradientUnits="userSpaceOnUse" />
    <linearGradient
       inkscape:collect="always"
       xlink:href="#linearGradient3014"
       id="linearGradient3037"
       gradientUnits="userSpaceOnUse"
       x1="-41.965721"
       y1="123.15611"
       x2="3.90625"
       y2="-33.343899" />
    <linearGradient
       inkscape:collect="always"
       xlink:href="#linearGradient3014"
       id="linearGradient3039"
       gradientUnits="userSpaceOnUse"
       x1="-41.965721"
       y1="123.15611"
       x2="3.90625"
       y2="-33.343899" />
    <linearGradient
       inkscape:collect="always"
       xlink:href="#linearGradient3014"
       id="linearGradient3041"
       gradientUnits="userSpaceOnUse"
       x1="-41.965721"
       y1="123.15611"
       x2="3.90625"
       y2="-33.343899" />
    <linearGradient
       inkscape:collect="always"
       xlink:href="#linearGradient3014"
       id="linearGradient3043"
       gradientUnits="userSpaceOnUse"
       x1="-41.965721"
       y1="123.15611"
       x2="3.90625"
       y2="-33.343899" />
    <linearGradient
       inkscape:collect="always"
       xlink:href="#linearGradient3014"
       id="linearGradient3045"
       gradientUnits="userSpaceOnUse"
       x1="-41.965721"
       y1="123.15611"
       x2="3.90625"
       y2="-33.343899" />
  </defs>
  <sodipodi:namedview
     id="base"
     pagecolor="#ffffff"
     bordercolor="#666666"
     borderopacity="1.0"
     inkscape:pageopacity="0.0"
     inkscape:pageshadow="2"
     inkscape:zoom="1.4142136"
     inkscape:cx="301.05223"
     inkscape:cy="-47.222864"
     inkscape:current-layer="layer1"
     showgrid="true"
     inkscape:document-units="px"
     inkscape:grid-bbox="true"
     guidetolerance="0.1px"
     showguides="true"
     inkscape:guide-bbox="true"
     inkscape:window-width="1106"
     inkscape:window-height="958"
     inkscape:window-x="646"
     inkscape:window-y="119">
    <sodipodi:guide
       orientation="horizontal"
       position="272.76574"
       id="guide2204" />
    <sodipodi:guide
       orientation="horizontal"
       position="163"
       id="guide2884" />
    <sodipodi:guide
       orientation="vertical"
       position="23.25"
       id="guide2878" />
  </sodipodi:namedview>
  <metadata
     id="metadata1312">
    <rdf:RDF>
      <cc:Work
         rdf:about="">
        <dc:format>image/svg+xml</dc:format>
        <dc:type
           rdf:resource="http://purl.org/dc/dcmitype/StillImage" />
        <cc:license
           rdf:resource="http://creativecommons.org/licenses/GPL/2.0/" />
        <dc:contributor>
          <cc:Agent>
            <dc:title>Oxygen team</dc:title>
          </cc:Agent>
        </dc:contributor>
      </cc:Work>
      <cc:License
         rdf:about="http://creativecommons.org/licenses/LGPL/2.1/">
        <cc:permits
           rdf:resource="http://web.resource.org/cc/Reproduction" />
        <cc:permits
           rdf:resource="http://web.resource.org/cc/Distribution" />
        <cc:requires
           rdf:resource="http://web.resource.org/cc/Notice" />
        <cc:permits
           rdf:resource="http://web.resource.org/cc/DerivativeWorks" />
        <cc:requires
           rdf:resource="http://web.resource.org/cc/ShareAlike" />
        <cc:requires
           rdf:resource="http://web.resource.org/cc/SourceCode" />
      </cc:License>
    </rdf:RDF>
  </metadata>
  <g
     id="layer1"
     inkscape:label="Layer 1"
     inkscape:groupmode="layer">
    <g
       id="g3030"
       transform="matrix(0.994473,0,0,0.99311,93.84125,0.526573)">
      <path
         id="path2943"
         d="M 0.28125004,1.65625 C 0.21167204,1.6589166 0.10592894,1.6734323 4.2811664e-08,1.71875 L -82.65625,34.75 C -83.151975,34.91053 -83.484257,35.288036 -83.75,35.71875 C -83.80761,35.763414 -83.847139,35.814056 -83.875,35.875 C -83.906542,35.943993 -83.916672,36.044231 -83.90625,36.125 C -84.023325,36.558932 -83.94885,36.951804 -83.84375,37.34375 L -80.09375,49.34375 L -80.75,122.9375 L -76.34375,126.15625 L 10.15625,107.25 L 10.15625,36.90625 L 10.125,36.90625 L 6.3125,35.375 L -58.84375,41.84375 L 7.25,13.78125 L 3.625,3.4375 C 3.5812227,3.3377486 3.4877496,3.2483887 3.375,3.1875 L 3.34375,3.15625 C 3.3238083,3.1474535 3.3028942,3.1313785 3.28125,3.125 L 0.43750004,1.6875 C 0.38540204,1.669203 0.35082804,1.6535834 0.28125004,1.65625 z "
         style="opacity:0.24180328;fill:none;fill-opacity:1;fill-rule:evenodd;stroke:url(#linearGradient3037);stroke-width:1px;stroke-linecap:round;stroke-linejoin:round;stroke-opacity:1" />
      <path
         style="opacity:0.38114756;fill:none;fill-opacity:1;fill-rule:evenodd;stroke:url(#linearGradient3039);stroke-width:0.5;stroke-linecap:round;stroke-linejoin:round;stroke-miterlimit:4;stroke-dasharray:none;stroke-opacity:1"
         d="M 0.28125004,1.65625 C 0.21167204,1.6589166 0.10592894,1.6734323 4.2811664e-08,1.71875 L -82.65625,34.75 C -83.151975,34.91053 -83.484257,35.288036 -83.75,35.71875 C -83.80761,35.763414 -83.847139,35.814056 -83.875,35.875 C -83.906542,35.943993 -83.916672,36.044231 -83.90625,36.125 C -84.023325,36.558932 -83.94885,36.951804 -83.84375,37.34375 L -80.09375,49.34375 L -80.75,122.9375 L -76.34375,126.15625 L 10.15625,107.25 L 10.15625,36.90625 L 10.125,36.90625 L 6.3125,35.375 L -58.84375,41.84375 L 7.25,13.78125 L 3.625,3.4375 C 3.5812227,3.3377486 3.4877496,3.2483887 3.375,3.1875 L 3.34375,3.15625 C 3.3238083,3.1474535 3.3028942,3.1313785 3.28125,3.125 L 0.43750004,1.6875 C 0.38540204,1.669203 0.35082804,1.6535834 0.28125004,1.65625 z "
         id="path3022" />
      <path
         id="path3024"
         d="M 0.28125004,1.65625 C 0.21167204,1.6589166 0.10592894,1.6734323 4.2811664e-08,1.71875 L -82.65625,34.75 C -83.151975,34.91053 -83.484257,35.288036 -83.75,35.71875 C -83.80761,35.763414 -83.847139,35.814056 -83.875,35.875 C -83.906542,35.943993 -83.916672,36.044231 -83.90625,36.125 C -84.023325,36.558932 -83.94885,36.951804 -83.84375,37.34375 L -80.09375,49.34375 L -80.75,122.9375 L -76.34375,126.15625 L 10.15625,107.25 L 10.15625,36.90625 L 10.125,36.90625 L 6.3125,35.375 L -58.84375,41.84375 L 7.25,13.78125 L 3.625,3.4375 C 3.5812227,3.3377486 3.4877496,3.2483887 3.375,3.1875 L 3.34375,3.15625 C 3.3238083,3.1474535 3.3028942,3.1313785 3.28125,3.125 L 0.43750004,1.6875 C 0.38540204,1.669203 0.35082804,1.6535834 0.28125004,1.65625 z "
         style="opacity:0.23360656;fill:none;fill-opacity:1;fill-rule:evenodd;stroke:url(#linearGradient3041);stroke-width:1.70000005;stroke-linecap:round;stroke-linejoin:round;stroke-miterlimit:4;stroke-dasharray:none;stroke-opacity:1" />
      <path
         style="opacity:0.13934428;fill:none;fill-opacity:1;fill-rule:evenodd;stroke:url(#linearGradient3043);stroke-width:2.79999995;stroke-linecap:round;stroke-linejoin:round;stroke-miterlimit:4;stroke-dasharray:none;stroke-opacity:1"
         d="M 0.28125004,1.65625 C 0.21167204,1.6589166 0.10592894,1.6734323 4.2811664e-08,1.71875 L -82.65625,34.75 C -83.151975,34.91053 -83.484257,35.288036 -83.75,35.71875 C -83.80761,35.763414 -83.847139,35.814056 -83.875,35.875 C -83.906542,35.943993 -83.916672,36.044231 -83.90625,36.125 C -84.023325,36.558932 -83.94885,36.951804 -83.84375,37.34375 L -80.09375,49.34375 L -80.75,122.9375 L -76.34375,126.15625 L 10.15625,107.25 L 10.15625,36.90625 L 10.125,36.90625 L 6.3125,35.375 L -58.84375,41.84375 L 7.25,13.78125 L 3.625,3.4375 C 3.5812227,3.3377486 3.4877496,3.2483887 3.375,3.1875 L 3.34375,3.15625 C 3.3238083,3.1474535 3.3028942,3.1313785 3.28125,3.125 L 0.43750004,1.6875 C 0.38540204,1.669203 0.35082804,1.6535834 0.28125004,1.65625 z "
         id="path3026" />
      <path
         id="path3028"
         d="M 0.28125004,1.65625 C 0.21167204,1.6589166 0.10592894,1.6734323 4.2811664e-08,1.71875 L -82.65625,34.75 C -83.151975,34.91053 -83.484257,35.288036 -83.75,35.71875 C -83.80761,35.763414 -83.847139,35.814056 -83.875,35.875 C -83.906542,35.943993 -83.916672,36.044231 -83.90625,36.125 C -84.023325,36.558932 -83.94885,36.951804 -83.84375,37.34375 L -80.09375,49.34375 L -80.75,122.9375 L -76.34375,126.15625 L 10.15625,107.25 L 10.15625,36.90625 L 10.125,36.90625 L 6.3125,35.375 L -58.84375,41.84375 L 7.25,13.78125 L 3.625,3.4375 C 3.5812227,3.3377486 3.4877496,3.2483887 3.375,3.1875 L 3.34375,3.15625 C 3.3238083,3.1474535 3.3028942,3.1313785 3.28125,3.125 L 0.43750004,1.6875 C 0.38540204,1.669203 0.35082804,1.6535834 0.28125004,1.65625 z "
         style="opacity:0.08196722;fill:none;fill-opacity:1;fill-rule:evenodd;stroke:url(#linearGradient3045);stroke-width:4.4000001;stroke-linecap:round;stroke-linejoin:round;stroke-miterlimit:4;stroke-dasharray:none;stroke-opacity:1" />
    </g>
    <path
       sodipodi:nodetypes="ccccccc"
       style="fill:url(#linearGradient3826);fill-opacity:1;fill-rule:evenodd;stroke:none;stroke-width:1px;stroke-linecap:butt;stroke-linejoin:miter;stroke-opacity:1"
       d="M 18.229919,47.464253 L 18.449507,43.796544 L 100.3239,35.672779 L 104.12692,37.205394 L 87.006858,54.905858 L 24.598154,51.200286 L 18.229919,47.464253 z "
       id="path2888" />
    <path
       id="path2882"
       d="M 14.493887,37.882115 L 10.76523,36.016865 C 11.0295,35.58853 11.348862,35.214774 11.841847,35.055131 L 94.058205,2.2183755 C 94.268892,2.1282409 94.388512,2.1445048 94.492133,2.1808966 L 97.415894,3.656435 L 80.383893,21.451397 L 20.862122,41.618148 L 14.493887,37.882115 z "
       style="fill:url(#linearGradient3818);fill-opacity:1;fill-rule:evenodd;stroke:none;stroke-width:1px;stroke-linecap:butt;stroke-linejoin:miter;stroke-opacity:1"
       sodipodi:nodetypes="ccccccccc" />
    <path
       style="fill:url(#linearGradient3810);fill-opacity:1;fill-rule:evenodd;stroke:none;stroke-width:1px;stroke-linecap:butt;stroke-linejoin:miter;stroke-opacity:1"
       d="M 14.493887,37.882115 L 10.770594,36.011501 C 10.456459,36.624825 10.525419,37.115135 10.661898,37.624095 L 14.400443,49.575271 L 13.7297,122.7488 L 18.135087,125.95202 L 20.862122,41.618148 L 14.493887,37.882115 z "
       id="path2878"
       sodipodi:nodetypes="cccccccc" />
    <path
       sodipodi:nodetypes="cccccccccccc"
       id="polygon3115"
       d="M 34.659022,42.477938 L 101.24406,14.207695 L 97.654522,3.9082709 C 97.558188,3.6887644 97.279941,3.4794596 96.881697,3.6539358 L 16.503995,37.078954 C 15.600593,37.539875 14.733666,38.423516 15.029752,39.697685 L 18.134157,51.975791 L 18.134157,125.94822 L 104.15274,107.15791 L 104.15274,37.196577 L 34.645728,43.970951 L 34.659022,42.477938 z "
       inkscape:transform-center-y="-32.289552"
       inkscape:transform-center-x="-44.22449"
       style="fill:url(#linearGradient3857);fill-opacity:1" />
    <rect
       style="opacity:1;fill:white;fill-opacity:1;fill-rule:nonzero;stroke:none;stroke-width:0.04;stroke-linecap:round;stroke-linejoin:round;stroke-miterlimit:4;stroke-dasharray:none;stroke-dashoffset:4;stroke-opacity:1"
       id="rect2876"
       width="74.167328"
       height="1.3145299"
       x="25.587437"
       y="72.04451"
       transform="matrix(0.991386,-0.130975,0,1,0,0)" />
    <path
       id="path3119"
       d="M 97.067707,48.677041 L 89.683699,49.472147 L 92.554562,40.767587 L 99.933798,39.972996 L 97.067707,48.677041 M 62.356049,44.019348 L 69.735285,43.224755 L 66.86442,51.929315 L 59.4828,52.724164 L 62.356049,44.019348 M 77.454709,42.39353 L 84.838717,41.598427 L 81.965468,50.30324 L 74.586237,51.097833 L 77.454709,42.39353 M 47.256199,45.645291 L 54.637817,44.850443 L 51.769341,53.554745 L 44.379363,54.350492 L 47.256199,45.645291 z "
       style="fill:white"
       inkscape:transform-center-x="50.476608"
       inkscape:transform-center-y="-20.703218" />
    <path
       id="path3121"
       d="M 24.293262,54.887384 C 24.293262,56.211606 25.181697,57.09224 26.278613,56.852625 C 27.370076,56.614201 28.258509,55.34542 28.258509,54.021197 C 28.258509,52.695472 27.370076,51.813331 26.278613,52.051757 C 25.181697,52.291371 24.293262,53.561657 24.293262,54.887384 z "
       style="fill:white"
       inkscape:transform-center-x="-11.556952"
       inkscape:transform-center-y="-32.30434" />
    <path
       style="fill:white"
       d="M 44.29596,35.137164 L 51.231753,32.292664 L 45.627136,26.281277 L 38.693608,29.125482 L 44.29596,35.137164 M 73.984944,14.642458 L 67.053679,17.486369 L 72.655718,23.501728 L 79.589563,20.653846 L 73.984944,14.642458 M 59.806553,20.462407 L 52.872816,23.309065 L 58.479699,29.320156 L 65.408697,26.47654 L 59.806553,20.462407 M 88.164363,8.8235882 L 81.230728,11.66902 L 86.835135,17.682857 L 93.774745,14.833009 L 88.164363,8.8235882 z "
       id="path3123"
       inkscape:transform-center-x="-43.719578"
       inkscape:transform-center-y="-49.124491" />
    <path
       style="fill:white;fill-opacity:1;fill-rule:nonzero;stroke:none;stroke-width:0.1;stroke-linecap:round;stroke-linejoin:round;stroke-miterlimit:4;stroke-dashoffset:4;stroke-opacity:1"
       d="M 25.321499,94.899069 L 100.96362,80.68939 L 100.96362,100.18429 L 25.321499,116.33611 L 25.321499,94.899069 z "
       id="rect3294"
       sodipodi:nodetypes="ccccc" />
    <path
       sodipodi:nodetypes="ccc"
       id="path2276"
       d="M 50.892799,3.2812959 L 50.892799,0.48658747 L 50.892799,3.2812959 z "
       style="fill:#ffffff;fill-opacity:0.75688076;fill-rule:nonzero;stroke:none;stroke-width:0.5;stroke-linecap:round;stroke-linejoin:round;stroke-miterlimit:4;stroke-dasharray:none;stroke-dashoffset:4;stroke-opacity:1" />
    <path
       sodipodi:type="arc"
       style="opacity:0.83196722;fill:url(#radialGradient2872);fill-opacity:1;fill-rule:nonzero;stroke:none;stroke-width:7;stroke-linecap:round;stroke-linejoin:round;stroke-miterlimit:4;stroke-dasharray:none;stroke-dashoffset:4;stroke-opacity:1"
       id="path1978"
       sodipodi:cx="56.922096"
       sodipodi:cy="105.72614"
       sodipodi:rx="43.487068"
       sodipodi:ry="1.0606601"
       d="M 100.40916 105.72614 A 43.487068 1.0606601 0 1 1  13.435028,105.72614 A 43.487068 1.0606601 0 1 1  100.40916 105.72614 z"
       transform="matrix(0.845644,-0.180571,0,0.932816,13.81074,20.33578)" />
    <path
       style="opacity:1;fill:url(#radialGradient3318);fill-opacity:1;fill-rule:nonzero;stroke:none;stroke-width:0.1;stroke-linecap:round;stroke-linejoin:round;stroke-miterlimit:4;stroke-dasharray:none;stroke-dashoffset:4;stroke-opacity:1"
       d="M 81.250107,52.662854 C 69.110549,55.790783 58.657793,70.874185 57.387077,87.812522 C 56.465662,100.09474 60.608874,110.20586 67.481958,114.92408 L 93.617659,109.34332 C 98.142931,104.47839 101.74042,97.877753 103.65968,90.524937 L 103.65968,67.816683 C 100.56386,57.519262 93.030466,51.073011 83.681334,52.202014 C 82.859054,52.301312 82.059411,52.454324 81.250107,52.662854 z "
       id="rect3308" />
    <path
       style="opacity:0.83196722;fill:url(#linearGradient2874);fill-opacity:1;fill-rule:nonzero;stroke:none;stroke-width:0.1;stroke-linecap:round;stroke-linejoin:round;stroke-miterlimit:4;stroke-dasharray:none;stroke-dashoffset:4;stroke-opacity:1"
       d="M 25.331862,94.89049 L 25.331862,97.426584 L 100.96419,83.165074 L 100.96419,80.628979 L 25.331862,94.89049 z "
       id="rect1956"
       sodipodi:nodetypes="ccccc" />
    <path
       sodipodi:type="arc"
       style="fill:url(#radialGradient2876);fill-opacity:1;fill-rule:nonzero;stroke:none;stroke-width:0.1;stroke-linecap:round;stroke-linejoin:round;stroke-miterlimit:4;stroke-dasharray:none;stroke-dashoffset:4;stroke-opacity:1"
       id="path2980"
       sodipodi:cx="74.80101"
       sodipodi:cy="101.40051"
       sodipodi:rx="27.566751"
       sodipodi:ry="9.1889172"
       d="M 102.36776 101.40051 A 27.566751 9.1889172 0 1 1  47.234259,101.40051 A 27.566751 9.1889172 0 1 1  102.36776 101.40051 z"
       transform="matrix(1.347682,6.630227e-4,-7.90729e-4,1.60776,-22.63372,-53.58175)" />
    <g
       id="g2928">
      <path
         sodipodi:nodetypes="csscsss"
         id="path2027"
         d="M 89.606354,55.866666 C 110.50456,54.738832 126.05784,78.790155 128.19402,106.86401 C 128.63743,112.69122 125.69389,120.73224 119.3231,123.17371 C 115.2754,124.72489 110.83644,121.80053 109.96709,121.24427 C 110.28754,122.76199 113.89659,125.07412 111.63894,126.19977 C 101.58664,131.21176 80.122358,126.51714 69.305926,88.767261 C 64.239119,71.072461 74.801513,56.675667 89.606354,55.866666 z "
         style="fill:url(#radialGradient2873);fill-opacity:1;fill-rule:evenodd;stroke:none;stroke-width:1px;stroke-linecap:butt;stroke-linejoin:miter;stroke-opacity:1" />
      <path
         sodipodi:nodetypes="cccccsccc"
         id="path2976"
         d="M 80.120358,62.917497 C 84.495634,70.264481 91.904547,81.308989 95.787606,89.342411 C 97.909972,94.754879 100.04221,101.09452 102.16973,106.99234 C 104.24497,112.40275 107.02804,116.59042 109.45739,121.38917 C 109.29381,121.93516 110.18398,122.86587 110.55817,123.22705 C 110.42581,123.8113 108.685,121.10681 107.70067,119.49539 C 106.32138,117.23745 102.21454,111.2757 101.3833,108.75651 C 99.553273,102.96015 97.100872,96.566951 93.724299,90.072226 C 90.87297,83.852141 76.13394,61.347637 80.120358,62.917497 z "
         style="opacity:0.21311478;fill:url(#radialGradient2870);fill-opacity:1;fill-rule:evenodd;stroke:none;stroke-width:1px;stroke-linecap:butt;stroke-linejoin:miter;stroke-opacity:1" />
      <path
         style="fill:url(#radialGradient2867);fill-opacity:1;fill-rule:evenodd;stroke:none;stroke-width:1px;stroke-linecap:butt;stroke-linejoin:miter;stroke-opacity:1"
         d="M 89.606354,55.866666 C 110.50456,54.738832 126.05784,78.790155 128.19402,106.86401 C 128.63743,112.69122 125.69389,120.73224 119.3231,123.17371 C 115.2754,124.72489 110.83644,121.80053 109.96709,121.24427 C 110.28754,122.76199 113.89659,125.07412 111.63894,126.19977 C 101.58664,131.21176 80.122358,126.51714 69.305926,88.767261 C 64.239119,71.072461 74.801513,56.675667 89.606354,55.866666 z "
         id="path2942"
         sodipodi:nodetypes="csscsss" />
      <path
         sodipodi:nodetypes="csscsss"
         id="path2954"
         d="M 89.538739,56.254007 C 110.37293,55.139004 125.8789,79.060008 128.0089,106.97678 C 128.451,112.77138 125.51658,120.76629 119.16533,123.19208 C 115.13005,124.7333 110.70463,121.82398 109.83794,121.27055 C 110.15742,122.77985 113.75545,125.08011 111.50475,126.19874 C 101.4833,131.17944 80.084677,126.5045 69.300888,88.963418 C 64.249365,71.366457 74.779238,57.05386 89.538739,56.254007 z "
         style="fill:url(#radialGradient2864);fill-opacity:1;fill-rule:evenodd;stroke:none;stroke-width:1px;stroke-linecap:butt;stroke-linejoin:miter;stroke-opacity:1" />
      <path
         sodipodi:nodetypes="cccccsccc"
         id="path2924"
         d="M 82.808439,67.096944 C 87.183722,74.443929 91.904547,81.308989 95.787606,89.342411 C 97.909972,94.754879 100.04221,101.09452 102.16973,106.99234 C 104.24497,112.40275 107.02804,116.59042 109.45739,121.38917 C 112.41694,123.34682 116.20557,124.06118 118.04701,123.54204 C 117.91468,124.12632 110.65143,120.88065 109.6671,119.2692 C 108.2878,117.01125 103.66474,104.84946 103.80755,104.9902 C 101.97752,99.193841 100.844,93.624606 97.467416,87.129879 C 93.28616,78.588871 84.279225,66.956382 82.808439,67.096944 z "
         style="opacity:0.10655739;fill:black;fill-opacity:1;fill-rule:evenodd;stroke:none;stroke-width:1px;stroke-linecap:butt;stroke-linejoin:miter;stroke-opacity:1" />
      <path
         style="opacity:0.20081967;fill:black;fill-opacity:1;fill-rule:evenodd;stroke:none;stroke-width:1px;stroke-linecap:butt;stroke-linejoin:miter;stroke-opacity:1"
         d="M 82.808439,67.096944 C 87.183722,74.443929 91.904547,81.308989 95.787606,89.342411 C 97.909972,94.754879 100.04221,101.09452 102.16973,106.99234 C 104.24497,112.40275 107.02804,116.59042 109.45739,121.38917 C 112.41694,123.34682 116.20557,124.06118 118.04701,123.54204 C 117.91468,124.12632 110.94416,121.90187 109.72421,120.48016 C 108.12008,118.61066 102.10422,106.09765 102.4565,105.87657 C 100.62647,100.08021 99.304703,94.491511 95.928129,87.996803 C 91.746872,79.455794 84.279225,66.956382 82.808439,67.096944 z "
         id="path2926"
         sodipodi:nodetypes="cccccsccc" />
      <path
         sodipodi:nodetypes="cccccsccc"
         id="path2928"
         d="M 83.593244,68.084879 C 87.968525,75.43184 91.904547,81.308989 95.787606,89.342411 C 97.909972,94.754879 100.04221,101.09452 102.16973,106.99234 C 104.24497,112.40275 107.02804,116.59042 109.45739,121.38917 C 112.41694,123.34682 116.20557,124.06118 118.04701,123.54204 C 117.91468,124.12632 111.33949,121.63255 110.11955,120.21083 C 108.51541,118.34135 102.54156,105.61791 102.89383,105.39683 C 101.05531,99.601882 99.540791,94.045331 96.365461,87.517063 C 92.18422,78.976054 85.064028,67.944295 83.593244,68.084879 z "
         style="opacity:0.20081967;fill:black;fill-opacity:1;fill-rule:evenodd;stroke:none;stroke-width:1px;stroke-linecap:butt;stroke-linejoin:miter;stroke-opacity:1" />
      <path
         style="opacity:0.10655739;fill:black;fill-opacity:1;fill-rule:evenodd;stroke:none;stroke-width:1px;stroke-linecap:butt;stroke-linejoin:miter;stroke-opacity:1"
         d="M 80.918885,64.157401 C 85.294178,71.504384 91.904547,81.308989 95.787606,89.342411 C 97.909972,94.754879 100.04221,101.09452 102.16973,106.99234 C 104.24497,112.40275 107.02804,116.59042 109.45739,121.38917 C 112.41694,123.34682 116.20557,124.06118 118.04701,123.54204 C 117.91468,124.12632 112.0184,120.44925 111.03405,118.83785 C 109.65478,116.57989 105.80919,107.31424 104.97794,104.79505 C 103.1479,98.998683 102.00895,92.921812 98.632383,86.427085 C 94.451144,77.886079 84.295264,64.309311 80.918885,64.157401 z "
         id="path2930"
         sodipodi:nodetypes="cccccsccc" />
      <path
         style="opacity:0.21311478;fill:url(#radialGradient2857);fill-opacity:1;fill-rule:evenodd;stroke:none;stroke-width:1px;stroke-linecap:butt;stroke-linejoin:miter;stroke-opacity:1"
         d="M 80.918885,64.157401 C 85.294178,71.504384 91.904547,81.308989 95.787606,89.342411 C 97.909972,94.754879 100.04221,101.09452 102.16973,106.99234 C 104.24497,112.40275 107.02804,116.59042 109.45739,121.38917 C 109.29381,121.93516 110.18398,122.86587 110.55817,123.22705 C 110.42581,123.8113 108.685,121.10681 107.70067,119.49539 C 106.32138,117.23745 102.21454,111.2757 101.3833,108.75651 C 99.553273,102.96015 97.277536,96.537485 93.900946,90.042772 C 91.049618,83.822669 80.293224,65.536036 80.918885,64.157401 z "
         id="path2968"
         sodipodi:nodetypes="cccccsccc" />
      <path
         sodipodi:nodetypes="cccccsccc"
         id="path2932"
         d="M 80.918885,64.157401 C 85.294178,71.504384 91.904547,81.308989 95.787606,89.342411 C 97.909972,94.754879 100.04221,101.09452 102.16973,106.99234 C 104.24497,112.40275 107.02804,116.59042 109.45739,121.38917 C 109.29381,121.93516 110.18398,122.86587 110.55817,123.22705 C 110.42581,123.8113 108.685,121.10681 107.70067,119.49539 C 106.32138,117.23745 102.41633,109.65987 101.58509,107.14067 C 99.755054,101.3443 97.905593,96.267857 94.529018,89.773131 C 91.67769,83.553048 80.293224,65.536036 80.918885,64.157401 z "
         style="opacity:0.73999999;fill:url(#radialGradient2854);fill-opacity:1;fill-rule:evenodd;stroke:none;stroke-width:1px;stroke-linecap:butt;stroke-linejoin:miter;stroke-opacity:1" />
      <path
         sodipodi:nodetypes="cccccsccc"
         id="path2972"
         d="M 80.918885,64.157401 C 85.294178,71.504384 91.904547,81.308989 95.787606,89.342411 C 97.909972,94.754879 100.04221,101.09452 102.16973,106.99234 C 104.24497,112.40275 107.02804,116.59042 109.45739,121.38917 C 112.41694,123.34682 116.20557,124.06118 118.04701,123.54204 C 117.91468,124.12632 110.8874,122.26521 109.90308,120.65379 C 108.5238,118.39584 103.53644,108.37973 102.70521,105.86055 C 100.87516,100.06417 99.218533,94.709304 95.841957,88.214576 C 91.660701,79.673567 83.795554,67.240427 80.918885,64.157401 z "
         style="opacity:0.10655739;fill:black;fill-opacity:1;fill-rule:evenodd;stroke:none;stroke-width:1px;stroke-linecap:butt;stroke-linejoin:miter;stroke-opacity:1" />
      <path
         sodipodi:nodetypes="cccccssc"
         id="path2974"
         d="M 80.536484,63.501989 C 84.911763,70.848973 91.904547,81.308989 95.787606,89.342411 C 97.909972,94.754879 100.04221,101.09452 102.16973,106.99234 C 104.24497,112.40275 107.02804,116.59042 109.45739,121.38917 C 112.41694,123.34682 116.20557,124.06118 118.04701,123.54204 C 117.91468,124.12632 111.87077,119.05 109.32857,112.40955 C 105.17449,101.55883 101.82684,88.419349 96.486005,78.174806 C 92.091574,69.745582 79.302337,60.359337 80.536484,63.501989 z "
         style="opacity:0.10655739;fill:black;fill-opacity:1;fill-rule:evenodd;stroke:none;stroke-width:1px;stroke-linecap:butt;stroke-linejoin:miter;stroke-opacity:1" />
    </g>
    <path
       sodipodi:type="arc"
       style="opacity:0.63999999;fill:url(#radialGradient3784);fill-opacity:1;fill-rule:nonzero;stroke:none;stroke-width:0.04;stroke-linecap:round;stroke-linejoin:round;stroke-miterlimit:4;stroke-dasharray:none;stroke-dashoffset:4;stroke-opacity:1"
       id="path2890"
       sodipodi:cx="9.9878836"
       sodipodi:cy="32.805748"
       sodipodi:rx="3.6510444"
       sodipodi:ry="1.4502201"
       d="M 13.638928 32.805748 A 3.6510444 1.4502201 0 1 1  6.3368392,32.805748 A 3.6510444 1.4502201 0 1 1  13.638928 32.805748 z"
       transform="matrix(0.640325,0.261915,-0.276898,0.605677,15.67035,14.65699)" />
    <path
       style="opacity:0.61885244;fill:url(#radialGradient2868);fill-opacity:1;fill-rule:evenodd;stroke:none;stroke-width:1px;stroke-linecap:butt;stroke-linejoin:miter;stroke-opacity:1"
       d="M 94.328222,2.1980635 C 94.261133,2.2006345 94.194981,2.2132123 94.092845,2.2569077 C 94.28174,2.4328173 94.615433,2.8634647 95.212362,3.1571117 C 96.00827,3.548641 96.841663,3.6269372 96.887943,3.5220576 C 96.899514,3.4958377 96.892064,3.4630058 96.8291,3.4043693 L 94.504754,2.2274855 C 94.45452,2.2098437 94.395308,2.1954923 94.328222,2.1980635 z "
       id="path2857"
       sodipodi:nodetypes="ccssccc" />
    <text
       xml:space="preserve"
       style="font-size:6.4958334px;font-style:normal;font-variant:normal;font-weight:normal;font-stretch:normal;text-align:start;line-height:100%;writing-mode:lr-tb;text-anchor:start;fill:url(#linearGradient2898);fill-opacity:1;stroke:none;stroke-width:1px;stroke-linecap:butt;stroke-linejoin:miter;stroke-opacity:1;font-family:Comic Sans MS"
       x="30.135645"
       y="81.820381"
       id="text2880"
       sodipodi:linespacing="100%"
       transform="matrix(1,-0.123557,0,1,0,0)"><tspan
         sodipodi:role="line"
         id="tspan2882"
         x="30.135645"
         y="81.820381"
         style="fill:url(#linearGradient2898);fill-opacity:1;stroke:none">kaffeine</tspan></text>
    <text
       xml:space="preserve"
       style="font-size:7.37928772px;font-style:normal;font-variant:normal;font-weight:normal;font-stretch:normal;text-align:start;line-height:125%;writing-mode:lr-tb;text-anchor:start;fill:url(#linearGradient2914);fill-opacity:1;stroke:none;stroke-width:1px;stroke-linecap:butt;stroke-linejoin:miter;stroke-opacity:1;font-family:Bitstream Vera Sans"
       x="28.318796"
       y="109.60801"
       id="text2902"
       sodipodi:linespacing="125%"
       transform="matrix(1,-0.199112,0,1,0,0)"><tspan
         sodipodi:role="line"
         id="tspan2904"
         x="28.318796"
         y="109.60801"
         style="fill:url(#linearGradient2914);fill-opacity:1">Take </tspan><tspan
         sodipodi:role="line"
         x="28.318796"
         y="118.83212"
         id="tspan2906"
         style="fill:url(#linearGradient2914);fill-opacity:1">Scene</tspan></text>
  </g>
</svg>
