<?xml version="1.0" encoding="UTF-8" standalone="no"?>
<!-- Created with Inkscape (http://www.inkscape.org/) -->
<svg
   xmlns:dc="http://purl.org/dc/elements/1.1/"
   xmlns:cc="http://web.resource.org/cc/"
   xmlns:rdf="http://www.w3.org/1999/02/22-rdf-syntax-ns#"
   xmlns:svg="http://www.w3.org/2000/svg"
   xmlns="http://www.w3.org/2000/svg"
   xmlns:xlink="http://www.w3.org/1999/xlink"
   xmlns:sodipodi="http://sodipodi.sourceforge.net/DTD/sodipodi-0.dtd"
   xmlns:inkscape="http://www.inkscape.org/namespaces/inkscape"
   width="128"
   height="128"
   id="svg1307"
   sodipodi:version="0.32"
   inkscape:version="0.44"
   version="1.0"
   sodipodi:docbase="/home/pinheiro/artwork/Oxygen/theme/svg/apps"
   sodipodi:docname="kaffeine.svg">
  <defs
     id="defs1309">
    <linearGradient
       inkscape:collect="always"
       id="linearGradient3014">
      <stop
         style="stop-color:black;stop-opacity:1;"
         offset="0"
         id="stop3016" />
      <stop
         style="stop-color:black;stop-opacity:0;"
         offset="1"
         id="stop3018" />
    </linearGradient>
    <linearGradient
       id="linearGradient2918">
      <stop
         style="stop-color:black;stop-opacity:0.78700364;"
         offset="0"
         id="stop2920" />
      <stop
         id="stop2926"
         offset="0.5"
         style="stop-color:black;stop-opacity:0.76534295;" />
      <stop
         style="stop-color:black;stop-opacity:0;"
         offset="1"
         id="stop2922" />
    </linearGradient>
    <linearGradient
       inkscape:collect="always"
       id="linearGradient2908">
      <stop
         style="stop-color:black;stop-opacity:1;"
         offset="0"
         id="stop2910" />
      <stop
         style="stop-color:black;stop-opacity:0;"
         offset="1"
         id="stop2912" />
    </linearGradient>
    <linearGradient
       id="linearGradient2892">
      <stop
         style="stop-color:#d3d7cf;stop-opacity:1;"
         offset="0"
         id="stop2894" />
      <stop
         id="stop2900"
         offset="0.81318682"
         style="stop-color:#d3d7cf;stop-opacity:0.88086641;" />
      <stop
         style="stop-color:#d3d7cf;stop-opacity:0.35018051;"
         offset="1"
         id="stop2896" />
    </linearGradient>
    <linearGradient
       inkscape:collect="always"
       id="linearGradient2862">
      <stop
         style="stop-color:white;stop-opacity:1;"
         offset="0"
         id="stop2864" />
      <stop
         style="stop-color:white;stop-opacity:0;"
         offset="1"
         id="stop2866" />
    </linearGradient>
    <linearGradient
       id="linearGradient3859">
      <stop
         id="stop3861"
         offset="0"
         style="stop-color:#7e7e7e;stop-opacity:1;" />
      <stop
         id="stop3863"
         offset="1"
         style="stop-color:black;stop-opacity:1;" />
    </linearGradient>
    <linearGradient
       id="linearGradient3812">
      <stop
         style="stop-color:#7e7e7e;stop-opacity:1;"
         offset="0"
         id="stop3814" />
      <stop
         style="stop-color:#2b2b2b;stop-opacity:1;"
         offset="1"
         id="stop3816" />
    </linearGradient>
    <linearGradient
       id="linearGradient3804">
      <stop
         style="stop-color:#111;stop-opacity:1;"
         offset="0"
         id="stop3806" />
      <stop
         style="stop-color:#383838;stop-opacity:1;"
         offset="1"
         id="stop3808" />
    </linearGradient>
    <linearGradient
       inkscape:collect="always"
       id="linearGradient3778">
      <stop
         style="stop-color:white;stop-opacity:1;"
         offset="0"
         id="stop3780" />
      <stop
         style="stop-color:white;stop-opacity:0;"
         offset="1"
         id="stop3782" />
    </linearGradient>
    <linearGradient
       inkscape:collect="always"
       id="linearGradient2866">
      <stop
         style="stop-color:white;stop-opacity:1;"
         offset="0"
         id="stop2868" />
      <stop
         style="stop-color:white;stop-opacity:0;"
         offset="1"
         id="stop2870" />
    </linearGradient>
    <linearGradient
       inkscape:collect="always"
       id="linearGradient1970">
      <stop
         style="stop-color:#888a85;stop-opacity:1;"
         offset="0"
         id="stop1972" />
      <stop
         style="stop-color:#2e3436;stop-opacity:0"
         offset="1"
         id="stop1974" />
    </linearGradient>
    <linearGradient
       id="linearGradient4219">
      <stop
         id="stop4221"
         offset="0"
         style="stop-color:white;stop-opacity:0;" />
      <stop
         id="stop4223"
         offset="1"
         style="stop-color:white;stop-opacity:0.82310468;" />
    </linearGradient>
    <linearGradient
       inkscape:collect="always"
       id="linearGradient3312">
      <stop
         style="stop-color:black;stop-opacity:1;"
         offset="0"
         id="stop3314" />
      <stop
         style="stop-color:black;stop-opacity:0;"
         offset="1"
         id="stop3316" />
    </linearGradient>
    <linearGradient
       inkscape:collect="always"
       id="linearGradient2982">
      <stop
         style="stop-color:black;stop-opacity:1;"
         offset="0"
         id="stop2984" />
      <stop
         style="stop-color:black;stop-opacity:0;"
         offset="1"
         id="stop2986" />
    </linearGradient>
    <linearGradient
       id="linearGradient2958">
      <stop
         id="stop2960"
         offset="0"
         style="stop-color:white;stop-opacity:0;" />
      <stop
         style="stop-color:white;stop-opacity:0;"
         offset="0.86263734"
         id="stop2962" />
      <stop
         id="stop2964"
         offset="1"
         style="stop-color:white;stop-opacity:1;" />
    </linearGradient>
    <linearGradient
       id="linearGradient2944">
      <stop
         style="stop-color:black;stop-opacity:0;"
         offset="0"
         id="stop2946" />
      <stop
         id="stop2952"
         offset="0.71978021"
         style="stop-color:black;stop-opacity:0;" />
      <stop
         style="stop-color:black;stop-opacity:1;"
         offset="1"
         id="stop2948" />
    </linearGradient>
    <linearGradient
       inkscape:collect="always"
       id="linearGradient2934">
      <stop
         style="stop-color:white;stop-opacity:1;"
         offset="0"
         id="stop2936" />
      <stop
         style="stop-color:white;stop-opacity:0;"
         offset="1"
         id="stop2938" />
    </linearGradient>
    <linearGradient
       id="linearGradient3972">
      <stop
         id="stop3974"
         offset="0"
         style="stop-color:#af4e4e;stop-opacity:1;" />
      <stop
         id="stop3976"
         offset="1"
         style="stop-color:#581f1f;stop-opacity:1;" />
    </linearGradient>
    <radialGradient
       id="XMLID_5_"
       cx="57"
       cy="20"
       r="89.554398"
       gradientUnits="userSpaceOnUse">
      <stop
         offset="0.2071"
         style="stop-color:#4D94FF"
         id="stop3105" />
      <stop
         offset="0.3494"
         style="stop-color:#478DF8"
         id="stop3107" />
      <stop
         offset="0.5627"
         style="stop-color:#357BE3"
         id="stop3109" />
      <stop
         offset="0.8191"
         style="stop-color:#185EC2"
         id="stop3111" />
      <stop
         offset="1"
         style="stop-color:#0045A6"
         id="stop3113" />
    </radialGradient>
    <radialGradient
       inkscape:collect="always"
       xlink:href="#linearGradient3312"
       id="radialGradient3318"
       cx="81.086319"
       cy="86.384766"
       fx="81.086319"
       fy="86.384766"
       r="27.434785"
       gradientTransform="matrix(0.932721,-0.160312,-5.180558e-2,1.524397,11.39678,-30.05283)"
       gradientUnits="userSpaceOnUse" />
    <radialGradient
       inkscape:collect="always"
       xlink:href="#linearGradient2866"
       id="radialGradient2872"
       cx="56.922096"
       cy="105.72437"
       fx="24.57196"
       fy="102.10045"
       r="43.487068"
       gradientTransform="matrix(1,0,0,2.439024e-2,0,103.1475)"
       gradientUnits="userSpaceOnUse" />
    <radialGradient
       inkscape:collect="always"
       xlink:href="#linearGradient2934"
       id="radialGradient2854"
       gradientUnits="userSpaceOnUse"
       gradientTransform="matrix(1.549768,-0.258418,1.49383,6.309891,-406.1098,-687.1984)"
       cx="196.90475"
       cy="130.04858"
       fx="196.90475"
       fy="130.04858"
       r="4.8849899" />
    <radialGradient
       inkscape:collect="always"
       xlink:href="#linearGradient2934"
       id="radialGradient2857"
       gradientUnits="userSpaceOnUse"
       gradientTransform="matrix(1.312696,-0.837636,6.556817,10.85398,-1039.388,-1182.19)"
       cx="200.24985"
       cy="134.45642"
       fx="200.24985"
       fy="134.45642"
       r="4.8849899" />
    <radialGradient
       inkscape:collect="always"
       xlink:href="#linearGradient2958"
       id="radialGradient2864"
       gradientUnits="userSpaceOnUse"
       gradientTransform="matrix(1.867631,-0.928216,1.38337,2.766881,-453.8807,-87.06521)"
       cx="193.3486"
       cy="131.29668"
       fx="193.3486"
       fy="131.29668"
       r="17.107521" />
    <radialGradient
       inkscape:collect="always"
       xlink:href="#linearGradient2944"
       id="radialGradient2867"
       gradientUnits="userSpaceOnUse"
       gradientTransform="matrix(1.718227,-0.965481,1.396683,2.553804,-425.9114,-51.57472)"
       cx="200.0015"
       cy="130.46106"
       fx="200.0015"
       fy="130.46106"
       r="17.107522" />
    <radialGradient
       inkscape:collect="always"
       xlink:href="#linearGradient2934"
       id="radialGradient2870"
       gradientUnits="userSpaceOnUse"
       gradientTransform="matrix(0.368175,-0.227187,2.213081,3.761264,-280.8341,-379.0429)"
       cx="202.2841"
       cy="130.64581"
       fx="202.2841"
       fy="130.64581"
       r="4.8849899" />
    <radialGradient
       inkscape:collect="always"
       xlink:href="#linearGradient3972"
       id="radialGradient2873"
       gradientUnits="userSpaceOnUse"
       gradientTransform="matrix(1.566588,-0.261223,0.498058,2.103774,-277.7435,-132.4546)"
       cx="198.04059"
       cy="131.16762"
       fx="199.9751"
       fy="121.32745"
       r="17.107521" />
    <radialGradient
       inkscape:collect="always"
       xlink:href="#linearGradient2982"
       id="radialGradient2876"
       gradientUnits="userSpaceOnUse"
       gradientTransform="matrix(1,0,0,0.333333,0,67.60034)"
       cx="74.80101"
       cy="101.40051"
       fx="85.440811"
       fy="108.29221"
       r="27.566751" />
    <radialGradient
       inkscape:collect="always"
       xlink:href="#linearGradient3778"
       id="radialGradient3784"
       cx="9.9878836"
       cy="32.805748"
       fx="7.6641202"
       fy="30.224434"
       r="4.7729707"
       gradientTransform="matrix(0.773267,1.060949e-2,3.634053e-2,0.243281,1.072394,24.71877)"
       gradientUnits="userSpaceOnUse" />
    <linearGradient
       inkscape:collect="always"
       xlink:href="#linearGradient3804"
       id="linearGradient3810"
       x1="14.107679"
       y1="53.226318"
       x2="10.708"
       y2="59.976318"
       gradientUnits="userSpaceOnUse"
       gradientTransform="matrix(0.960645,0,0,0.960645,3.370703,3.352478)" />
    <linearGradient
       inkscape:collect="always"
       xlink:href="#linearGradient3812"
       id="linearGradient3818"
       x1="74.732681"
       y1="3.8115842"
       x2="24.228485"
       y2="45.311584"
       gradientUnits="userSpaceOnUse"
       gradientTransform="matrix(0.960645,0,0,0.960645,3.370703,3.352478)" />
    <linearGradient
       inkscape:collect="always"
       xlink:href="#linearGradient3812"
       id="linearGradient3826"
       x1="100.12177"
       y1="29.36578"
       x2="28.87278"
       y2="57.11578"
       gradientUnits="userSpaceOnUse"
       gradientTransform="matrix(0.960645,0,0,0.960645,3.370703,3.352478)" />
    <linearGradient
       inkscape:collect="always"
       xlink:href="#linearGradient3859"
       id="linearGradient3857"
       x1="6.5647802"
       y1="1.5813398"
       x2="63.755363"
       y2="103.61256"
       gradientUnits="userSpaceOnUse"
       gradientTransform="matrix(0.971072,0,0,0.971072,2.759237,1.992698)" />
    <radialGradient
       inkscape:collect="always"
       xlink:href="#linearGradient2862"
       id="radialGradient2868"
       cx="95.391907"
       cy="0.32776174"
       fx="94.426888"
       fy="0.28557318"
       r="1.4867874"
       gradientTransform="matrix(1.079341,0.552245,-9.468171e-2,0.185053,-7.514539,-49.99694)"
       gradientUnits="userSpaceOnUse" />
    <linearGradient
       inkscape:collect="always"
       xlink:href="#linearGradient1970"
       id="linearGradient2874"
       gradientUnits="userSpaceOnUse"
       gradientTransform="matrix(0.845644,-0.159458,0,0.932816,14.2592,20.45827)"
       x1="35.375"
       y1="82.03125"
       x2="35.375"
       y2="84.04483" />
    <linearGradient
       inkscape:collect="always"
       xlink:href="#linearGradient2892"
       id="linearGradient2898"
       x1="8.0271425"
       y1="59.400066"
       x2="53.852558"
       y2="84.843811"
       gradientUnits="userSpaceOnUse"
       spreadMethod="reflect"
       gradientTransform="matrix(0.971073,-4.796458e-7,0,0.971073,0.817091,4.0358)" />
    <linearGradient
       inkscape:collect="always"
       xlink:href="#linearGradient2908"
       id="linearGradient2914"
       x1="17.636654"
       y1="107.08839"
       x2="94.177834"
       y2="154.20468"
       gradientUnits="userSpaceOnUse"
       gradientTransform="matrix(0.971073,2.321457e-7,0,0.971073,2.759235,2.542094)" />
    <linearGradient
       inkscape:collect="always"
       xlink:href="#linearGradient2892"
       id="linearGradient2999"
       gradientUnits="userSpaceOnUse"
       gradientTransform="matrix(0.976469,-4.249135e-7,0,0.976469,-98.49591,-8.213065)"
       spreadMethod="reflect"
       x1="8.0271425"
       y1="59.400066"
       x2="53.852558"
       y2="84.843811" />
    <linearGradient
       inkscape:collect="always"
       xlink:href="#linearGradient2908"
       id="linearGradient3001"
       gradientUnits="userSpaceOnUse"
       gradientTransform="matrix(0.976469,1.447596e-7,0,0.976469,-96.54297,-17.21901)"
       x1="17.636654"
       y1="107.08839"
       x2="94.177834"
       y2="154.20468" />
    <linearGradient
       inkscape:collect="always"
       xlink:href="#linearGradient3014"
       id="linearGradient3020"
       x1="-41.965721"
       y1="123.15611"
       x2="3.90625"
       y2="-33.343899"
       gradientUnits="userSpaceOnUse" />
    <linearGradient
       inkscape:collect="always"
       xlink:href="#linearGradient3014"
       id="linearGradient3037"
       gradientUnits="userSpaceOnUse"
       x1="-41.965721"
       y1="123.15611"
       x2="3.90625"
       y2="-33.343899" />
    <linearGradient
       inkscape:collect="always"
       xlink:href="#linearGradient3014"
       id="linearGradient3039"
       gradientUnits="userSpaceOnUse"
       x1="-41.965721"
       y1="123.15611"
       x2="3.90625"
       y2="-33.343899" />
    <linearGradient
       inkscape:collect="always"
       xlink:href="#linearGradient3014"
       id="linearGradient3041"
       gradientUnits="userSpaceOnUse"
       x1="-41.965721"
       y1="123.15611"
       x2="3.90625"
       y2="-33.343899" />
    <linearGradient
       inkscape:collect="always"
       xlink:href="#linearGradient3014"
       id="linearGradient3043"
       gradientUnits="userSpaceOnUse"
       x1="-41.965721"
       y1="123.15611"
       x2="3.90625"
       y2="-33.343899" />
    <linearGradient
       inkscape:collect="always"
       xlink:href="#linearGradient3014"
       id="linearGradient3045"
       gradientUnits="userSpaceOnUse"
       x1="-41.965721"
       y1="123.15611"
       x2="3.90625"
       y2="-33.343899" />
  </defs>
  <sodipodi:namedview
     id="base"
     pagecolor="#ffffff"
     bordercolor="#666666"
     borderopacity="1.0"
     inkscape:pageopacity="0.0"
     inkscape:pageshadow="2"
     inkscape:zoom="1.4142136"
     inkscape:cx="301.05223"
     inkscape:cy="-47.222864"
     inkscape:current-layer="layer1"
     showgrid="true"
     inkscape:document-units="px"
     inkscape:grid-bbox="true"
     guidetolerance="0.1px"
     showguides="true"
     inkscape:guide-bbox="true"
     inkscape:window-width="1106"
     inkscape:window-height="958"
     inkscape:window-x="646"
     inkscape:window-y="119">
    <sodipodi:guide
       orientation="horizontal"
       position="272.76574"
       id="guide2204" />
    <sodipodi:guide
       orientation="horizontal"
       position="163"
       id="guide2884" />
    <sodipodi:guide
       orientation="vertical"
       position="23.25"
       id="guide2878" />
  </sodipodi:namedview>
  <metadata
     id="metadata1312">
    <rdf:RDF>
      <cc:Work
         rdf:about="">
        <dc:format>image/svg+xml</dc:format>
        <dc:type
           rdf:resource="http://purl.org/dc/dcmitype/StillImage" />
        <cc:license
           rdf:resource="http://creativecommons.org/licenses/GPL/2.0/" />
        <dc:contributor>
          <cc:Agent>
            <dc:title>Oxygen team</dc:title>
          </cc:Agent>
        </dc:contributor>
      </cc:Work>
      <cc:License
         rdf:about="http://creativecommons.org/licenses/LGPL/2.1/">
        <cc:permits
           rdf:resource="http://web.resource.org/cc/Reproduction" />
        <cc:permits
           rdf:resource="http://web.resource.org/cc/Distribution" />
        <cc:requires
           rdf:resource="http://web.resource.org/cc/Notice" />
        <cc:permits
           rdf:resource="http://web.resource.org/cc/DerivativeWorks" />
        <cc:requires
           rdf:resource="http://web.resource.org/cc/ShareAlike" />
        <cc:requires
           rdf:resource="http://web.resource.org/cc/SourceCode" />
      </cc:License>
    </rdf:RDF>
  </metadata>
  <g
     id="layer1"
     inkscape:label="Layer 1"
     inkscape:groupmode="layer">
    <g
       id="g3030"
       transform="matrix(0.994473,0,0,0.99311,93.84125,0.526573)">
      <path
         id="path2943"
         d="M 0.28125004,1.65625 C 0.21167204,1.6589166 0.10592894,1.6734323 4.2811664e-08,1.71875 L -82.65625,34.75 C -83.151975,34.91053 -83.484257,35.288036 -83.75,35.71875 C -83.80761,35.763414 -83.847139,35.814056 -83.875,35.875 C -83.906542,35.943993 -83.916672,36.044231 -83.90625,36.125 C -84.023325,36.558932 -83.94885,36.951804 -83.84375,37.34375 L -80.09375,49.34375 L -80.75,122.9375 L -76.34375,126.15625 L 10.15625,107.25 L 10.15625,36.90625 L 10.125,36.90625 L 6.3125,35.375 L -58.84375,41.84375 L 7.25,13.78125 L 3.625,3.4375 C 3.5812227,3.3377486 3.4877496,3.2483887 3.375,3.1875 L 3.34375,3.15625 C 3.3238083,3.1474535 3.3028942,3.1313785 3.28125,3.125 L 0.43750004,1.6875 C 0.38540204,1.669203 0.35082804,1.6535834 0.28125004,1.65625 z "
         style="opacity:0.24180328;fill:none;fill-opacity:1;fill-rule:evenodd;stroke:url(#linearGradient3037);stroke-width:1px;stroke-linecap:round;stroke-linejoin:round;stroke-opacity:1" />
      <path
         style="opacity:0.38114756;fill:none;fill-opacity:1;fill-rule:evenodd;stroke:url(#linearGradient3039);stroke-width:0.5;stroke-linecap:round;stroke-linejoin:round;stroke-miterlimit:4;stroke-dasharray:none;stroke-opacity:1"
         d="M 0.28125004,1.65625 C 0.21167204,1.6589166 0.10592894,1.6734323 4.2811664e-08,1.71875 L -82.65625,34.75 C -83.151975,34.91053 -83.484257,35.288036 -83.75,35.71875 C -83.80761,35.763414 -83.847139,35.814056 -83.875,35.875 C -83.906542,35.943993 -83.916672,36.044231 -83.90625,36.125 C -84.023325,36.558932 -83.94885,36.951804 -83.84375,37.34375 L -80.09375,49.34375 L -80.75,122.9375 L -76.34375,126.15625 L 10.15625,107.25 L 10.15625,36.90625 L 10.125,36.90625 L 6.3125,35.375 L -58.84375,41.84375 L 7.25,13.78125 L 3.625,3.4375 C 3.5812227,3.3377486 3.4877496,3.2483887 3.375,3.1875 L 3.34375,3.15625 C 3.3238083,3.1474535 3.3028942,3.1313785 3.28125,3.125 L 0.43750004,1.6875 C 0.38540204,1.669203 0.35082804,1.6535834 0.28125004,1.65625 z "
         id="path3022" />
      <path
         id="path3024"
         d="M 0.28125004,1.65625 C 0.21167204,1.6589166 0.10592894,1.6734323 4.2811664e-08,1.71875 L -82.65625,34.75 C -83.151975,34.91053 -83.484257,35.288036 -83.75,35.71875 C -83.80761,35.763414 -83.847139,35.814056 -83.875,35.875 C -83.906542,35.943993 -83.916672,36.044231 -83.90625,36.125 C -84.023325,36.558932 -83.94885,36.951804 -83.84375,37.34375 L -80.09375,49.34375 L -80.75,122.9375 L -76.34375,126.15625 L 10.15625,107.25 L 10.15625,36.90625 L 10.125,36.90625 L 6.3125,35.375 L -58.84375,41.84375 L 7.25,13.78125 L 3.625,3.4375 C 3.5812227,3.3377486 3.4877496,3.2483887 3.375,3.1875 L 3.34375,3.15625 C 3.3238083,3.1474535 3.3028942,3.1313785 3.28125,3.125 L 0.43750004,1.6875 C 0.38540204,1.669203 0.35082804,1.6535834 0.28125004,1.65625 z "
         style="opacity:0.23360656;fill:none;fill-opacity:1;fill-rule:evenodd;stroke:url(#linearGradient3041);stroke-width:1.70000005;stroke-linecap:round;stroke-linejoin:round;stroke-miterlimit:4;stroke-dasharray:none;stroke-opacity:1" />
      <path
         style="opacity:0.13934428;fill:none;fill-opacity:1;fill-rule:evenodd;stroke:url(#linearGradient3043);stroke-width:2.79999995;stroke-linecap:round;stroke-linejoin:round;stroke-miterlimit:4;stroke-dasharray:none;stroke-opacity:1"
         d="M 0.28125004,1.65625 C 0.21167204,1.6589166 0.10592894,1.6734323 4.2811664e-08,1.71875 L -82.65625,34.75 C -83.151975,34.91053 -83.484257,35.288036 -83.75,35.71875 C -83.80761,35.763414 -83.847139,35.814056 -83.875,35.875 C -83.906542,35.943993 -83.916672,36.044231 -83.90625,36.125 C -84.023325,36.558932 -83.94885,36.951804 -83.84375,37.34375 L -80.09375,49.34375 L -80.75,122.9375 L -76.34375,126.15625 L 10.15625,107.25 L 10.15625,36.90625 L 10.125,36.90625 L 6.3125,35.375 L -58.84375,41.84375 L 7.25,13.78125 L 3.625,3.4375 C 3.5812227,3.3377486 3.4877496,3.2483887 3.375,3.1875 L 3.34375,3.15625 C 3.3238083,3.1474535 3.3028942,3.1313785 3.28125,3.125 L 0.43750004,1.6875 C 0.38540204,1.669203 0.35082804,1.6535834 0.28125004,1.65625 z "
         id="path3026" />
      <path
         id="path3028"
         d="M 0.28125004,1.65625 C 0.21167204,1.6589166 0.10592894,1.6734323 4.2811664e-08,1.71875 L -82.65625,34.75 C -83.151975,34.91053 -83.484257,35.288036 -83.75,35.71875 C -83.80761,35.763414 -83.847139,35.814056 -83.875,35.875 C -83.906542,35.943993 -83.916672,36.044231 -83.90625,36.125 C -84.023325,36.558932 -83.94885,36.951804 -83.84375,37.34375 L -80.09375,49.34375 L -80.75,122.9375 L -76.34375,126.15625 L 10.15625,107.25 L 10.15625,36.90625 L 10.125,36.90625 L 6.3125,35.375 L -58.84375,41.84375 L 7.25,13.78125 L 3.625,3.4375 C 3.5812227,3.3377486 3.4877496,3.2483887 3.375,3.1875 L 3.34375,3.15625 C 3.3238083,3.1474535 3.3028942,3.1313785 3.28125,3.125 L 0.43750004,1.6875 C 0.38540204,1.669203 0.35082804,1.6535834 0.28125004,1.65625 z "
         style="opacity:0.08196722;fill:none;fill-opacity:1;fill-rule:evenodd;stroke:url(#linearGradient3045);stroke-width:4.4000001;stroke-linecap:round;stroke-linejoin:round;stroke-miterlimit:4;stroke-dasharray:none;stroke-opacity:1" />
    </g>
    <path
       sodipodi:nodetypes="ccccccc"
       style="fill:url(#linearGradient3826);fill-opacity:1;fill-rule:evenodd;stroke:none;stroke-width:1px;stroke-linecap:butt;stroke-linejoin:miter;stroke-opacity:1"
       d="M 18.229919,47.464253 L 18.449507,43.796544 L 100.3239,35.672779 L 104.12692,37.205394 L 87.006858,54.905858 L 24.598154,51.200286 L 18.229919,47.464253 z "
       id="path2888" />
    <path
       id="path2882"
       d="M 14.493887,37.882115 L 10.76523,36.016865 C 11.0295,35.58853 11.348862,35.214774 11.841847,35.055131 L 94.058205,2.2183755 C 94.268892,2.1282409 94.388512,2.1445048 94.492133,2.1808966 L 97.415894,3.656435 L 80.383893,21.451397 L 20.862122,41.618148 L 14.493887,37.882115 z "
       style="fill:url(#linearGradient3818);fill-opacity:1;fill-rule:evenodd;stroke:none;stroke-width:1px;stroke-linecap:butt;stroke-linejoin:miter;stroke-opacity:1"
       sodipodi:nodetypes="ccccccccc" />
    <path
       style="fill:url(#linearGradient3810);fill-opacity:1;fill-rule:evenodd;stroke:none;stroke-width:1px;stroke-linecap:butt;stroke-linejoin:miter;stroke-opacity:1"
       d="M 14.493887,37.882115 L 10.770594,36.011501 C 10.456459,36.624825 10.525419,37.115135 10.661898,37.624095 L 14.400443,49.575271 L 13.7297,122.7488 L 18.135087,125.95202 L 20.862122,41.618148 L 14.493887,37.882115 z "
       id="path2878"
       sodipodi:nodetypes="cccccccc" />
    <path
       sodipodi:nodetypes="cccccccccccc"
       id="polygon3115"
       d="M 34.659022,42.477938 L 101.24406,14.207695 L 97.654522,3.9082709 C 97.558188,3.6887644 97.279941,3.4794596 96.881697,3.6539358 L 16.503995,37.078954 C 15.600593,37.539875 14.733666,38.423516 15.029752,39.697685 L 18.134157,51.975791 L 18.134157,125.94822 L 104.15274,107.15791 L 104.15274,37.196577 L 34.645728,43.970951 L 34.659022,42.477938 z "
       inkscape:transform-center-y="-32.289552"
       inkscape:transform-center-x="-44.22449"
       style="fill:url(#linearGradient3857);fill-opacity:1" />
    <rect
       style="opacity:1;fill:white;fill-opacity:1;fill-rule:nonzero;stroke:none;stroke-width:0.04;stroke-linecap:round;stroke-linejoin:round;stroke-miterlimit:4;stroke-dasharray:none;stroke-dashoffset:4;stroke-opacity:1"
       id="rect2876"
       width="74.167328"
       height="1.3145299"
       x="25.587437"
       y="72.04451"
       transform="matrix(0.991386,-0.130975,0,1,0,0)" />
    <path
       id="path3119"
       d="M 97.067707,48.677041 L 89.683699,49.472147 L 92.554562,40.767587 L 99.933798,39.972996 L 97.067707,48.677041 M 62.356049,44.019348 L 69.735285,43.224755 L 66.86442,51.929315 L 59.4828,52.724164 L 62.356049,44.019348 M 77.454709,42.39353 L 84.838717,41.598427 L 81.965468,50.30324 L 74.586237,51.097833 L 77.454709,42.39353 M 47.256199,45.645291 L 54.637817,44.850443 L 51.769341,53.554745 L 44.379363,54.350492 L 47.256199,45.645291 z "
       style="fill:white"
       inkscape:transform-center-x="50.476608"
       inkscape:transform-center-y="-20.703218" />
    <path
       id="path3121"
       d="M 24.293262,54.887384 C 24.293262,56.211606 25.181697,57.09224 26.278613,56.852625 C 27.370076,56.614201 28.258509,55.34542 28.258509,54.021197 C 28.258509,52.695472 27.370076,51.813331 26.278613,52.051757 C 25.181697,52.291371 24.293262,53.561657 24.293262,54.887384 z "
       style="fill:white"
       inkscape:transform-center-x="-11.556952"
       inkscape:transform-center-y="-32.30434" />
    <path
       style="fill:white"
       d="M 44.29596,35.137164 L 51.231753,32.292664 L 45.627136,26.281277 L 38.693608,29.125482 L 44.29596,35.137164 M 73.984944,14.642458 L 67.053679,17.486369 L 72.655718,23.501728 L 79.589563,20.653846 L 73.984944,14.642458 M 59.806553,20.462407 L 52.872816,23.309065 L 58.479699,29.320156 L 65.408697,26.47654 L 59.806553,20.462407 M 88.164363,8.8235882 L 81.230728,11.66902 L 86.835135,17.682857 L 93.774745,14.833009 L 88.164363,8.8235882 z "
       id="path3123"
       inkscape:transform-center-x="-43.719578"
       inkscape:transform-center-y="-49.124491" />
    <path
       style="fill:white;fill-opacity:1;fill-rule:nonzero;stroke:none;stroke-width:0.1;stroke-linecap:round;stroke-linejoin:round;stroke-miterlimit:4;stroke-dashoffset:4;stroke-opacity:1"
       d="M 25.321499,94.899069 L 100.96362,80.68939 L 100.96362,100.18429 L 25.321499,116.33611 L 25.321499,94.899069 z "
       id="rect3294"
       sodipodi:nodetypes="ccccc" />
    <path
       sodipodi:nodetypes="ccc"
       id="path2276"
       d="M 50.892799,3.2812959 L 50.892799,0.48658747 L 50.892799,3.2812959 z "
       style="fill:#ffffff;fill-opacity:0.75688076;fill-rule:nonzero;stroke:none;stroke-width:0.5;stroke-linecap:round;stroke-linejoin:round;stroke-miterlimit:4;stroke-dasharray:none;stroke-dashoffset:4;stroke-opacity:1" />
    <path
       sodipodi:type="arc"
       style="opacity:0.83196722;fill:url(#radialGradient2872);fill-opacity:1;fill-rule:nonzero;stroke:none;stroke-width:7;stroke-linecap:round;stroke-linejoin:round;stroke-miterlimit:4;stroke-dasharray:none;stroke-dashoffset:4;stroke-opacity:1"
       id="path1978"
       sodipodi:cx="56.922096"
       sodipodi:cy="105.72614"
       sodipodi:rx="43.487068"
       sodipodi:ry="1.0606601"
       d="M 100.40916 105.72614 A 43.487068 1.0606601 0 1 1  13.435028,105.72614 A 43.487068 1.0606601 0 1 1  100.40916 105.72614 z"
       transform="matrix(0.845644,-0.180571,0,0.932816,13.81074,20.33578)" />
    <path
       style="opacity:1;fill:url(#radialGradient3318);fill-opacity:1;fill-rule:nonzero;stroke:none;stroke-width:0.1;stroke-linecap:round;stroke-linejoin:round;stroke-miterlimit:4;stroke-dasharray:none;stroke-dashoffset:4;stroke-opacity:1"
       d="M 81.250107,52.662854 C 69.110549,55.790783 58.657793,70.874185 57.387077,87.812522 C 56.465662,100.09474 60.608874,110.20586 67.481958,114.92408 L 93.617659,109.34332 C 98.142931,104.47839 101.74042,97.877753 103.65968,90.524937 L 103.65968,67.816683 C 100.56386,57.519262 93.030466,51.073011 83.681334,52.202014 C 82.859054,52.301312 82.059411,52.454324 81.250107,52.662854 z "
       id="rect3308" />
    <path
       style="opacity:0.83196722;fill:url(#linearGradient2874);fill-opacity:1;fill-rule:nonzero;stroke:none;stroke-width:0.1;stroke-linecap:round;stroke-linejoin:round;stroke-miterlimit:4;stroke-dasharray:none;stroke-dashoffset:4;stroke-opacity:1"
       d="M 25.331862,94.89049 L 25.331862,97.426584 L 100.96419,83.165074 L 100.96419,80.628979 L 25.331862,94.89049 z "
       id="rect1956"
       sodipodi:nodetypes="ccccc" />
    <path
       sodipodi:type="arc"
       style="fill:url(#radialGradient2876);fill-opacity:1;fill-rule:nonzero;stroke:none;stroke-width:0.1;stroke-linecap:round;stroke-linejoin:round;stroke-miterlimit:4;stroke-dasharray:none;stroke-dashoffset:4;stroke-opacity:1"
       id="path2980"
       sodipodi:cx="74.80101"
       sodipodi:cy="101.40051"
       sodipodi:rx="27.566751"
       sodipodi:ry="9.1889172"
       d="M 102.36776 101.40051 A 27.566751 9.1889172 0 1 1  47.234259,101.40051 A 27.566751 9.1889172 0 1 1  102.36776 101.40051 z"
       transform="matrix(1.347682,6.630227e-4,-7.90729e-4,1.60776,-22.63372,-53.58175)" />
    <g
       id="g2928">
      <path
         sodipodi:nodetypes="csscsss"
         id="path2027"
         d="M 89.606354,55.866666 C 110.50456,54.738832 126.05784,78.790155 128.19402,106.86401 C 128.63743,112.69122 125.69389,120.73224 119.3231,123.17371 C 115.2754,124.72489 110.83644,121.80053 109.96709,121.24427 C 110.28754,122.76199 113.89659,125.07412 111.63894,126.19977 C 101.58664,131.21176 80.122358,126.51714 69.305926,88.767261 C 64.239119,71.072461 74.801513,56.675667 89.606354,55.866666 z "
         style="fill:url(#radialGradient2873);fill-opacity:1;fill-rule:evenodd;stroke:none;stroke-width:1px;stroke-linecap:butt;stroke-linejoin:miter;stroke-opacity:1" />
      <path
         sodipodi:nodetypes="cccccsccc"
         id="path2976"
         d="M 80.120358,62.917497 C 84.495634,70.264481 91.904547,81.308989 95.787606,89.342411 C 97.909972,94.754879 100.04221,101.09452 102.16973,106.99234 C 104.24497,112.40275 107.02804,116.59042 109.45739,121.38917 C 109.29381,121.93516 110.18398,122.86587 110.55817,123.22705 C 110.42581,123.8113 108.685,121.10681 107.70067,119.49539 C 106.32138,117.23745 102.21454,111.2757 101.3833,108.75651 C 99.553273,102.96015 97.100872,96.566951 93.724299,90.072226 C 90.87297,83.852141 76.13394,61.347637 80.120358,62.917497 z "
         style="opacity:0.21311478;fill:url(#radialGradient2870);fill-opacity:1;fill-rule:evenodd;stroke:none;stroke-width:1px;stroke-linecap:butt;stroke-linejoin:miter;stroke-opacity:1" />
      <path
         style="fill:url(#radialGradient2867);fill-opacity:1;fill-rule:evenodd;stroke:none;stroke-width:1px;stroke-linecap:butt;stroke-linejoin:miter;stroke-opacity:1"
         d="M 89.606354,55.866666 C 110.50456,54.738832 126.05784,78.790155 128.19402,106.86401 C 128.63743,112.69122 125.69389,120.73224 119.3231,123.17371 C 115.2754,124.72489 110.83644,121.80053 109.96709,121.24427 C 110.28754,122.76199 113.89659,125.07412 111.63894,126.19977 C 101.58664,131.21176 80.122358,126.51714 69.305926,88.767261 C 64.239119,71.072461 74.801513,56.675667 89.606354,55.866666 z "
         id="path2942"
         sodipodi:nodetypes="csscsss" />
      <path
         sodipodi:nodetypes="csscsss"
         id="path2954"
         d="M 89.538739,56.254007 C 110.37293,55.139004 125.8789,79.060008 128.0089,106.97678 C 128.451,112.77138 125.51658,120.76629 119.16533,123.19208 C 115.13005,124.7333 110.70463,121.82398 109.83794,121.27055 C 110.15742,122.77985 113.75545,125.08011 111.50475,126.19874 C 101.4833,131.17944 80.084677,126.5045 69.300888,88.963418 C 64.249365,71.366457 74.779238,57.05386 89.538739,56.254007 z "
         style="fill:url(#radialGradient2864);fill-opacity:1;fill-rule:evenodd;stroke:none;stroke-width:1px;stroke-linecap:butt;stroke-linejoin:miter;stroke-opacity:1" />
      <path
         sodipodi:nodetypes="cccccsccc"
         id="path2924"
         d="M 82.808439,67.096944 C 87.183722,74.443929 91.904547,81.308989 95.787606,89.342411 C 97.909972,94.754879 100.04221,101.09452 102.16973,106.99234 C 104.24497,112.40275 107.02804,116.59042 109.45739,121.38917 C 112.41694,123.34682 116.20557,124.06118 118.04701,123.54204 C 117.91468,124.12632 110.65143,120.88065 109.6671,119.2692 C 108.2878,117.01125 103.66474,104.84946 103.80755,104.9902 C 101.97752,99.193841 100.844,93.624606 97.467416,87.129879 C 93.28616,78.588871 84.279225,66.956382 82.808439,67.096944 z "
         style="opacity:0.10655739;fill:black;fill-opacity:1;fill-rule:evenodd;stroke:none;stroke-width:1px;stroke-linecap:butt;stroke-linejoin:miter;stroke-opacity:1" />
      <path
         style="opacity:0.20081967;fill:black;fill-opacity:1;fill-rule:evenodd;stroke:none;stroke-width:1px;stroke-linecap:butt;stroke-linejoin:miter;stroke-opacity:1"
         d="M 82.808439,67.096944 C 87.183722,74.443929 91.904547,81.308989 95.787606,89.342411 C 97.909972,94.754879 100.04221,101.09452 102.16973,106.99234 C 104.24497,112.40275 107.02804,116.59042 109.45739,121.38917 C 112.41694,123.34682 116.20557,124.06118 118.04701,123.54204 C 117.91468,124.12632 110.94416,121.90187 109.72421,120.48016 C 108.12008,118.61066 102.10422,106.09765 102.4565,105.87657 C 100.62647,100.08021 99.304703,94.491511 95.928129,87.996803 C 91.746872,79.455794 84.279225,66.956382 82.808439,67.096944 z "
         id="path2926"
         sodipodi:nodetypes="cccccsccc" />
      <path
         sodipodi:nodetypes="cccccsccc"
         id="path2928"
         d="M 83.593244,68.084879 C 87.968525,75.43184 91.904547,81.308989 95.787606,89.342411 C 97.909972,94.754879 100.04221,101.09452 102.16973,106.99234 C 104.24497,112.40275 107.02804,116.59042 109.45739,121.38917 C 112.41694,123.34682 116.20557,124.06118 118.04701,123.54204 C 117.91468,124.12632 111.33949,121.63255 110.11955,120.21083 C 108.51541,118.34135 102.54156,105.61791 102.89383,105.39683 C 101.05531,99.601882 99.540791,94.045331 96.365461,87.517063 C 92.18422,78.976054 85.064028,67.944295 83.593244,68.084879 z "
         style="opacity:0.20081967;fill:black;fill-opacity:1;fill-rule:evenodd;stroke:none;stroke-width:1px;stroke-linecap:butt;stroke-linejoin:miter;stroke-opacity:1" />
      <path
         style="opacity:0.10655739;fill:black;fill-opacity:1;fill-rule:evenodd;stroke:none;stroke-width:1px;stroke-linecap:butt;stroke-linejoin:miter;stroke-opacity:1"
         d="M 80.918885,64.157401 C 85.294178,71.504384 91.904547,81.308989 95.787606,89.342411 C 97.909972,94.754879 100.04221,101.09452 102.16973,106.99234 C 104.24497,112.40275 107.02804,116.59042 109.45739,121.38917 C 112.41694,123.34682 116.20557,124.06118 118.04701,123.54204 C 117.91468,124.12632 112.0184,120.44925 111.03405,118.83785 C 109.65478,116.57989 105.80919,107.31424 104.97794,104.79505 C 103.1479,98.998683 102.00895,92.921812 98.632383,86.427085 C 94.451144,77.886079 84.295264,64.309311 80.918885,64.157401 z "
         id="path2930"
         sodipodi:nodetypes="cccccsccc" />
      <path
         style="opacity:0.21311478;fill:url(#radialGradient2857);fill-opacity:1;fill-rule:evenodd;stroke:none;stroke-width:1px;stroke-linecap:butt;stroke-linejoin:miter;stroke-opacity:1"
         d="M 80.918885,64.157401 C 85.294178,71.504384 91.904547,81.308989 95.787606,89.342411 C 97.909972,94.754879 100.04221,101.09452 102.16973,106.99234 C 104.24497,112.40275 107.02804,116.59042 109.45739,121.38917 C 109.29381,121.93516 110.18398,122.86587 110.55817,123.22705 C 110.42581,123.8113 108.685,121.10681 107.70067,119.49539 C 106.32138,117.23745 102.21454,111.2757 101.3833,108.75651 C 99.553273,102.96015 97.277536,96.537485 93.900946,90.042772 C 91.049618,83.822669 80.293224,65.536036 80.918885,64.157401 z "
         id="path2968"
         sodipodi:nodetypes="cccccsccc" />
      <path
         sodipodi:nodetypes="cccccsccc"
         id="path2932"
         d="M 80.918885,64.157401 C 85.294178,71.504384 91.904547,81.308989 95.787606,89.342411 C 97.909972,94.754879 100.04221,101.09452 102.16973,106.99234 C 104.24497,112.40275 107.02804,116.59042 109.45739,121.38917 C 109.29381,121.93516 110.18398,122.86587 110.55817,123.22705 C 110.42581,123.8113 108.685,121.10681 107.70067,119.49539 C 106.32138,117.23745 102.41633,109.65987 101.58509,107.14067 C 99.755054,101.3443 97.905593,96.267857 94.529018,89.773131 C 91.67769,83.553048 80.293224,65.536036 80.918885,64.157401 z "
         style="opacity:0.73999999;fill:url(#radialGradient2854);fill-opacity:1;fill-rule:evenodd;stroke:none;stroke-width:1px;stroke-linecap:butt;stroke-linejoin:miter;stroke-opacity:1" />
      <path
         sodipodi:nodetypes="cccccsccc"
         id="path2972"
         d="M 80.918885,64.157401 C 85.294178,71.504384 91.904547,81.308989 95.787606,89.342411 C 97.909972,94.754879 100.04221,101.09452 102.16973,106.99234 C 104.24497,112.40275 107.02804,116.59042 109.45739,121.38917 C 112.41694,123.34682 116.20557,124.06118 118.04701,123.54204 C 117.91468,124.12632 110.8874,122.26521 109.90308,120.65379 C 108.5238,118.39584 103.53644,108.37973 102.70521,105.86055 C 100.87516,100.06417 99.218533,94.709304 95.841957,88.214576 C 91.660701,79.673567 83.795554,67.240427 80.918885,64.157401 z "
         style="opacity:0.10655739;fill:black;fill-opacity:1;fill-rule:evenodd;stroke:none;stroke-width:1px;stroke-linecap:butt;stroke-linejoin:miter;stroke-opacity:1" />
      <path
         sodipodi:nodetypes="cccccssc"
         id="path2974"
         d="M 80.536484,63.501989 C 84.911763,70.848973 91.904547,81.308989 95.787606,89.342411 C 97.909972,94.754879 100.04221,101.09452 102.16973,106.99234 C 104.24497,112.40275 107.02804,116.59042 109.45739,121.38917 C 112.41694,123.34682 116.20557,124.06118 118.04701,123.54204 C 117.91468,124.12632 111.87077,119.05 109.32857,112.40955 C 105.17449,101.55883 101.82684,88.419349 96.486005,78.174806 C 92.091574,69.745582 79.302337,60.359337 80.536484,63.501989 z "
         style="opacity:0.10655739;fill:black;fill-opacity:1;fill-rule:evenodd;stroke:none;stroke-width:1px;stroke-linecap:butt;stroke-linejoin:miter;stroke-opacity:1" />
    </g>
    <path
       sodipodi:type="arc"
       style="opacity:0.63999999;fill:url(#radialGradient3784);fill-opacity:1;fill-rule:nonzero;stroke:none;stroke-width:0.04;stroke-linecap:round;stroke-linejoin:round;stroke-miterlimit:4;stroke-dasharray:none;stroke-dashoffset:4;stroke-opacity:1"
       id="path2890"
       sodipodi:cx="9.9878836"
       sodipodi:cy="32.805748"
       sodipodi:rx="3.6510444"
       sodipodi:ry="1.4502201"
       d="M 13.638928 32.805748 A 3.6510444 1.4502201 0 1 1  6.3368392,32.805748 A 3.6510444 1.4502201 0 1 1  13.638928 32.805748 z"
       transform="matrix(0.640325,0.261915,-0.276898,0.605677,15.67035,14.65699)" />
    <path
       style="opacity:0.61885244;fill:url(#radialGradient2868);fill-opacity:1;fill-rule:evenodd;stroke:none;stroke-width:1px;stroke-linecap:butt;stroke-linejoin:miter;stroke-opacity:1"
       d="M 94.328222,2.1980635 C 94.261133,2.2006345 94.194981,2.2132123 94.092845,2.2569077 C 94.28174,2.4328173 94.615433,2.8634647 95.212362,3.1571117 C 96.00827,3.548641 96.841663,3.6269372 96.887943,3.5220576 C 96.899514,3.4958377 96.892064,3.4630058 96.8291,3.4043693 L 94.504754,2.2274855 C 94.45452,2.2098437 94.395308,2.1954923 94.328222,2.1980635 z "
       id="path2857"
       sodipodi:nodetypes="ccssccc" />
    <path
       transform="matrix(1,-0.123557,0,1,0,0)"
       style="font-size:6.4958334px;font-style:normal;font-variant:normal;font-weight:normal;font-stretch:normal;text-align:start;line-height:100%;writing-mode:lr-tb;text-anchor:start;fill:url(#linearGradient2898);fill-opacity:1;stroke:none;stroke-width:1px;stroke-linecap:butt;stroke-linejoin:miter;stroke-opacity:1;font-family:Comic Sans MS"
       d="M 33.218628,81.950425 C 33.102326,81.950425 33.012459,81.889103 32.949026,81.766461 C 32.839068,81.552894 32.673077,81.300208 32.451054,81.008402 L 31.889647,80.244 C 31.767002,80.34127 31.576695,80.477657 31.318724,80.653161 C 31.295463,80.980914 31.283833,81.300208 31.283834,81.611043 C 31.283833,81.706197 31.25423,81.783377 31.195024,81.842584 C 31.137931,81.90179 31.063922,81.931394 30.972998,81.931394 C 30.75943,81.931394 30.652647,81.787606 30.652647,81.50003 C 30.652647,81.324525 30.664277,81.062323 30.687537,80.713425 C 30.712911,80.362415 30.725598,80.099156 30.725599,79.923649 C 30.725598,79.602242 30.729827,79.235372 30.738286,78.823036 C 30.748858,78.408592 30.754144,78.042779 30.754145,77.725596 C 30.754144,77.630446 30.748858,77.518376 30.738286,77.389385 C 30.729827,77.260404 30.725598,77.148334 30.725599,77.053175 C 30.725598,76.958026 30.754144,76.880846 30.811237,76.821634 C 30.870443,76.762433 30.945509,76.732829 31.036434,76.732824 C 31.127358,76.732829 31.201367,76.762433 31.25846,76.821634 C 31.317665,76.880846 31.347269,76.958026 31.34727,77.053175 C 31.347269,77.150448 31.352555,77.26569 31.363129,77.398901 C 31.3737,77.530006 31.378987,77.64419 31.378988,77.741455 L 31.356785,78.762772 C 31.346212,79.130703 31.34304,79.498631 31.34727,79.866556 C 31.634845,79.646647 31.911848,79.405591 32.17828,79.143387 L 32.876075,78.42339 C 32.945851,78.3515 33.020917,78.315553 33.101272,78.315549 C 33.183736,78.315553 33.257744,78.348328 33.323298,78.413875 C 33.390959,78.479429 33.424792,78.555551 33.424795,78.642244 C 33.424792,78.714141 33.394131,78.784978 33.332813,78.854754 C 33.072723,79.159249 32.752372,79.485943 32.371759,79.834838 L 33.06321,80.776861 C 33.38673,81.218798 33.548491,81.506374 33.548495,81.639589 C 33.548491,81.72417 33.514659,81.797121 33.446997,81.858443 C 33.381444,81.919764 33.305321,81.950425 33.218628,81.950425 M 36.491919,82.02972 C 36.45174,82.029719 36.378789,81.9832 36.273066,81.890161 C 36.177909,81.803465 36.107073,81.726285 36.060555,81.65862 C 35.857558,81.768575 35.678881,81.851042 35.524522,81.90602 C 35.37016,81.963112 35.241174,81.991658 35.137563,81.991658 C 34.642763,81.991658 34.282236,81.852099 34.055982,81.572981 C 33.842414,81.31078 33.735631,80.90902 33.735631,80.3677 C 33.735631,79.855986 33.911136,79.418279 34.262148,79.054577 C 34.615274,78.690881 35.036065,78.509032 35.524522,78.509029 C 35.708484,78.509032 35.914651,78.556609 36.143022,78.651759 C 36.430595,78.770176 36.574383,78.912907 36.574386,79.079951 C 36.574383,79.137046 36.553238,79.187795 36.51095,79.232198 C 36.489802,79.312552 36.472886,79.44471 36.460201,79.628672 C 36.449626,79.812638 36.443282,80.048408 36.441171,80.335982 C 36.439053,80.598185 36.457027,80.805408 36.495091,80.957653 C 36.516234,81.050693 36.582841,81.236772 36.694914,81.515889 C 36.709713,81.553951 36.73403,81.609986 36.767865,81.683994 L 36.786896,81.737915 C 36.786893,81.822496 36.75729,81.892275 36.698086,81.947253 C 36.638876,82.00223 36.570154,82.029719 36.491919,82.02972 M 35.832186,79.825323 C 35.832184,79.7344 35.83747,79.636075 35.848045,79.530346 C 35.86073,79.422508 35.878704,79.308323 35.901966,79.187792 C 35.823726,79.147619 35.756061,79.118016 35.698971,79.098982 C 35.643991,79.079954 35.599586,79.070439 35.565756,79.070436 C 35.238002,79.070439 34.954655,79.204711 34.715715,79.473254 C 34.478887,79.739687 34.360473,80.04735 34.360474,80.396246 C 34.360473,80.74303 34.421795,81.003116 34.544438,81.176507 C 34.66708,81.349899 34.851044,81.436595 35.09633,81.436594 C 35.299323,81.436595 35.471657,81.39959 35.613333,81.325581 C 35.689453,81.285406 35.796237,81.205054 35.933684,81.084525 C 35.866016,80.524176 35.832184,80.104443 35.832186,79.825323 M 39.406798,77.360839 C 38.89508,77.360844 38.608561,77.716084 38.547242,78.426562 L 38.537726,78.623213 C 38.897194,78.597842 39.129792,78.585155 39.235521,78.585152 C 39.571728,78.585155 39.739833,78.690881 39.739836,78.902331 C 39.739833,79.056694 39.657367,79.148676 39.492436,79.178277 C 39.42054,79.190967 39.335959,79.196253 39.238693,79.194136 C 39.143537,79.18991 38.900366,79.203654 38.50918,79.235369 L 38.483806,79.958538 C 38.483804,80.089641 38.488033,80.286292 38.496493,80.548492 C 38.504949,80.810695 38.509179,81.006288 38.50918,81.135274 C 38.509179,81.537035 38.485919,81.849985 38.439401,82.074125 C 38.403452,82.243287 38.305127,82.327868 38.144424,82.327868 C 38.057727,82.327868 37.983719,82.299322 37.922398,82.24223 C 37.861076,82.187252 37.830415,82.117472 37.830416,82.032891 C 37.830415,82.015975 37.83253,81.99483 37.83676,81.969455 C 37.881164,81.694567 37.903367,81.395361 37.903368,81.071838 L 37.893852,80.205938 L 37.893852,79.286118 C 37.629535,79.307266 37.462488,79.317838 37.392709,79.317836 C 37.179141,79.317838 37.072357,79.215284 37.072358,79.010172 C 37.072357,78.800837 37.257379,78.690881 37.627422,78.680305 L 37.931914,78.67079 C 37.938256,78.55238 37.954115,78.391676 37.979491,78.188677 C 38.034467,77.719256 38.152881,77.373531 38.334732,77.151501 C 38.554641,76.882961 38.898251,76.748688 39.365564,76.748683 C 39.667939,76.748688 39.819128,76.851243 39.819131,77.056347 C 39.819128,77.259346 39.681684,77.360844 39.406798,77.360839 M 42.642027,77.360839 C 42.130309,77.360844 41.84379,77.716084 41.782471,78.426562 L 41.772955,78.623213 C 42.132423,78.597842 42.365021,78.585155 42.47075,78.585152 C 42.806957,78.585155 42.975062,78.690881 42.975065,78.902331 C 42.975062,79.056694 42.892596,79.148676 42.727665,79.178277 C 42.655769,79.190967 42.571188,79.196253 42.473922,79.194136 C 42.378766,79.18991 42.135595,79.203654 41.744409,79.235369 L 41.719035,79.958538 C 41.719033,80.089641 41.723262,80.286292 41.731722,80.548492 C 41.740178,80.810695 41.744408,81.006288 41.744409,81.135274 C 41.744408,81.537035 41.721148,81.849985 41.67463,82.074125 C 41.638681,82.243287 41.540356,82.327868 41.379653,82.327868 C 41.292956,82.327868 41.218948,82.299322 41.157627,82.24223 C 41.096305,82.187252 41.065644,82.117472 41.065645,82.032891 C 41.065644,82.015975 41.067759,81.99483 41.071989,81.969455 C 41.116393,81.694567 41.138596,81.395361 41.138597,81.071838 L 41.129081,80.205938 L 41.129081,79.286118 C 40.864764,79.307266 40.697717,79.317838 40.627938,79.317836 C 40.41437,79.317838 40.307586,79.215284 40.307587,79.010172 C 40.307586,78.800837 40.492608,78.690881 40.862651,78.680305 L 41.167143,78.67079 C 41.173485,78.55238 41.189344,78.391676 41.21472,78.188677 C 41.269696,77.719256 41.38811,77.373531 41.569961,77.151501 C 41.78987,76.882961 42.13348,76.748688 42.600793,76.748683 C 42.903168,76.748688 43.054357,76.851243 43.05436,77.056347 C 43.054357,77.259346 42.916913,77.360844 42.642027,77.360839 M 45.227039,81.966284 C 44.749154,81.966284 44.362195,81.846813 44.066162,81.607871 C 43.742639,81.343555 43.580877,80.973513 43.580878,80.497743 C 43.580877,79.947968 43.714093,79.487001 43.980524,79.114841 C 44.270213,78.708855 44.657172,78.50586 45.1414,78.505857 C 45.49241,78.50586 45.778928,78.565067 46.000956,78.683477 C 46.273728,78.829383 46.410115,79.053523 46.410118,79.355897 C 46.410115,79.567353 46.290644,79.759775 46.051705,79.933164 C 45.945976,80.009289 45.721836,80.127702 45.379285,80.288405 L 44.16766,80.862499 C 44.286072,81.038006 44.433032,81.170164 44.608539,81.258974 C 44.786158,81.347784 44.992324,81.392189 45.227039,81.392189 C 45.372939,81.392189 45.544216,81.364701 45.740869,81.309722 C 45.990381,81.239944 46.151085,81.149019 46.222982,81.036948 C 46.294873,80.922764 46.372053,80.865672 46.454523,80.865671 C 46.528528,80.865672 46.594078,80.894218 46.651174,80.95131 C 46.710377,81.006288 46.739981,81.070781 46.739984,81.144789 C 46.739981,81.379502 46.550731,81.58144 46.172233,81.750602 C 45.848708,81.89439 45.533643,81.966284 45.227039,81.966284 M 45.1414,79.07678 C 44.883426,79.076782 44.668802,79.177222 44.497526,79.3781 C 44.326248,79.576868 44.198319,79.877131 44.113739,80.278889 L 45.08748,79.815808 C 45.470207,79.629731 45.742981,79.46797 45.905802,79.330523 C 45.723951,79.161363 45.46915,79.076782 45.1414,79.07678 M 47.840597,77.80489 C 47.739099,77.804894 47.651346,77.768947 47.577338,77.697049 C 47.503329,77.62516 47.466325,77.538464 47.466326,77.436962 C 47.466325,77.335469 47.503329,77.248774 47.577338,77.176875 C 47.651346,77.104986 47.739099,77.069039 47.840597,77.069034 C 47.942093,77.069039 48.028789,77.104986 48.100684,77.176875 C 48.174691,77.248774 48.211696,77.335469 48.211697,77.436962 C 48.211696,77.538464 48.174691,77.62516 48.100684,77.697049 C 48.028789,77.768947 47.942093,77.804894 47.840597,77.80489 M 47.983328,80.380387 C 47.983327,80.50726 47.986498,80.697567 47.992843,80.95131 C 48.0013,81.202939 48.005529,81.392189 48.00553,81.519061 C 48.005529,81.6121 47.976983,81.688223 47.919892,81.74743 C 47.862799,81.806637 47.787733,81.83624 47.694695,81.83624 C 47.603769,81.83624 47.528703,81.806637 47.469497,81.74743 C 47.412404,81.688223 47.383858,81.6121 47.383859,81.519061 C 47.383858,81.392189 47.379629,81.202939 47.371172,80.95131 C 47.364828,80.697567 47.361656,80.50726 47.361656,80.380387 C 47.361656,80.181623 47.372228,79.934223 47.393374,79.638187 C 47.414519,79.340041 47.425092,79.091584 47.425092,78.892816 C 47.425092,78.797665 47.453638,78.720485 47.510731,78.661275 C 47.569937,78.602071 47.645002,78.572468 47.735928,78.572464 C 47.826852,78.572468 47.90086,78.602071 47.957954,78.661275 C 48.017159,78.720485 48.046762,78.797665 48.046764,78.892816 C 48.046762,79.091584 48.03619,79.340041 48.015046,79.638187 C 47.993899,79.934223 47.983327,80.181623 47.983328,80.380387 M 51.443755,82.045579 C 51.261903,82.045578 51.159349,81.946196 51.136091,81.74743 L 51.047281,81.052807 C 51.017675,80.805408 51.002874,80.573868 51.002876,80.358184 C 51.002874,80.298979 51.006045,80.198539 51.012391,80.056864 C 51.020847,79.915192 51.025076,79.814752 51.025079,79.755543 C 51.025076,79.298808 50.940495,79.070439 50.771335,79.070436 C 50.534506,79.070439 50.308252,79.211055 50.092571,79.492285 C 49.898033,79.748145 49.745787,80.071667 49.635833,80.462853 C 49.631603,80.545321 49.622087,80.648933 49.607287,80.773689 C 49.594599,80.879417 49.588255,80.981971 49.588256,81.081353 C 49.588255,81.14479 49.594599,81.239944 49.607287,81.366815 C 49.619973,81.493687 49.626317,81.58884 49.626318,81.652276 C 49.626317,81.74743 49.596713,81.82461 49.537507,81.883817 C 49.480414,81.943024 49.406406,81.972627 49.315482,81.972627 C 49.222442,81.972627 49.147376,81.943024 49.090284,81.883817 C 49.033192,81.82461 49.004646,81.74743 49.004646,81.652276 C 49.004646,81.58884 48.997245,81.493687 48.982443,81.366815 C 48.969756,81.239944 48.963412,81.14479 48.963413,81.081353 C 48.963412,80.863558 48.978214,80.562238 49.007818,80.177392 C 49.039535,79.790435 49.055394,79.488058 49.055395,79.270259 C 49.055394,79.202597 49.051165,79.102157 49.042708,78.968939 C 49.036364,78.835726 49.033192,78.735286 49.033192,78.667618 C 49.033192,78.576697 49.062795,78.502688 49.122002,78.445593 C 49.183323,78.386389 49.258389,78.356786 49.3472,78.356782 C 49.541735,78.356786 49.648519,78.49423 49.667551,78.769116 L 49.677066,79.140216 C 50.032306,78.666564 50.397062,78.429737 50.771335,78.429734 C 51.109657,78.429737 51.345427,78.578811 51.478645,78.876957 C 51.569567,79.075725 51.619258,79.369644 51.627719,79.758715 L 51.627719,80.079066 L 51.624548,80.374043 C 51.624545,80.54955 51.646747,80.776862 51.691155,81.055979 C 51.737672,81.332983 51.760932,81.55818 51.760935,81.731571 C 51.760932,81.82461 51.730271,81.899676 51.668953,81.956768 C 51.609743,82.015975 51.534677,82.045578 51.443755,82.045579 M 53.828943,81.966284 C 53.351057,81.966284 52.964099,81.846813 52.668066,81.607871 C 52.344543,81.343555 52.182781,80.973513 52.182782,80.497743 C 52.182781,79.947968 52.315997,79.487001 52.582428,79.114841 C 52.872117,78.708855 53.259076,78.50586 53.743304,78.505857 C 54.094314,78.50586 54.380832,78.565067 54.60286,78.683477 C 54.875631,78.829383 55.012018,79.053523 55.012022,79.355897 C 55.012018,79.567353 54.892548,79.759775 54.653609,79.933164 C 54.54788,80.009289 54.32374,80.127702 53.981189,80.288405 L 52.769563,80.862499 C 52.887976,81.038006 53.034936,81.170164 53.210443,81.258974 C 53.388062,81.347784 53.594228,81.392189 53.828943,81.392189 C 53.974843,81.392189 54.14612,81.364701 54.342773,81.309722 C 54.592285,81.239944 54.752989,81.149019 54.824886,81.036948 C 54.896777,80.922764 54.973957,80.865672 55.056427,80.865671 C 55.130432,80.865672 55.195982,80.894218 55.253078,80.95131 C 55.312281,81.006288 55.341885,81.070781 55.341888,81.144789 C 55.341885,81.379502 55.152634,81.58144 54.774137,81.750602 C 54.450612,81.89439 54.135547,81.966284 53.828943,81.966284 M 53.743304,79.07678 C 53.48533,79.076782 53.270705,79.177222 53.09943,79.3781 C 52.928152,79.576868 52.800223,79.877131 52.715643,80.278889 L 53.689384,79.815808 C 54.072111,79.629731 54.344885,79.46797 54.507706,79.330523 C 54.325854,79.161363 54.071054,79.076782 53.743304,79.07678"
       id="text2880" />
    <path
       transform="matrix(1,-0.199112,0,1,0,0)"
       style="font-size:7.37928772px;font-style:normal;font-variant:normal;font-weight:normal;font-stretch:normal;text-align:start;line-height:125%;writing-mode:lr-tb;text-anchor:start;fill:url(#linearGradient2914);fill-opacity:1;stroke:none;stroke-width:1px;stroke-linecap:butt;stroke-linejoin:miter;stroke-opacity:1;font-family:Bitstream Vera Sans"
       d="M 28.297177,104.22848 L 32.847978,104.22848 L 32.847978,104.84102 L 30.938299,104.84102 L 30.938299,109.60801 L 30.206856,109.60801 L 30.206856,104.84102 L 28.297177,104.84102 L 28.297177,104.22848 M 34.148722,107.57943 C 33.613049,107.57943 33.241923,107.64068 33.035343,107.76319 C 32.82876,107.8857 32.725469,108.09468 32.725471,108.39014 C 32.725469,108.62555 32.802337,108.81291 32.956073,108.95223 C 33.112209,109.08915 33.323595,109.15761 33.590231,109.15761 C 33.957752,109.15761 34.25201,109.0279 34.473007,108.76847 C 34.6964,108.50664 34.808098,108.15954 34.808102,107.72716 L 34.808102,107.57943 L 34.148722,107.57943 M 35.471084,107.30559 L 35.471084,109.60801 L 34.808102,109.60801 L 34.808102,108.99547 C 34.656765,109.24049 34.4682,109.42185 34.242404,109.53955 C 34.016603,109.65485 33.740361,109.7125 33.413676,109.7125 C 33.000511,109.7125 32.671422,109.5972 32.426408,109.3666 C 32.183794,109.13359 32.062487,108.82252 32.062488,108.43338 C 32.062487,107.97938 32.21382,107.63708 32.516487,107.40647 C 32.821554,107.17587 33.275552,107.06057 33.878484,107.06057 L 34.808102,107.06057 L 34.808102,106.99571 C 34.808098,106.69065 34.70721,106.45524 34.505435,106.28949 C 34.306057,106.12135 34.025011,106.03727 33.662294,106.03727 C 33.43169,106.03727 33.207092,106.0649 32.988502,106.12014 C 32.769908,106.17539 32.559724,106.25827 32.357947,106.36876 L 32.357947,105.75622 C 32.60056,105.66254 32.835966,105.59288 33.064168,105.54724 C 33.292367,105.4992 33.514562,105.47518 33.730754,105.47518 C 34.314465,105.47518 34.750448,105.62651 35.038704,105.92917 C 35.326954,106.23184 35.471081,106.69065 35.471084,107.30559 M 36.829479,104.00148 L 37.496065,104.00148 L 37.496065,107.31279 L 39.474204,105.57246 L 40.320948,105.57246 L 38.180667,107.46052 L 40.411027,109.60801 L 39.546267,109.60801 L 37.496065,107.63708 L 37.496065,109.60801 L 36.829479,109.60801 L 36.829479,104.00148 M 44.313258,107.42449 L 44.313258,107.74877 L 41.264978,107.74877 C 41.293802,108.20518 41.430722,108.55348 41.675739,108.79369 C 41.923155,109.0315 42.266657,109.15041 42.706245,109.15041 C 42.960866,109.15041 43.207082,109.11918 43.444895,109.05672 C 43.685102,108.99427 43.922911,108.90059 44.158322,108.77568 L 44.158322,109.40263 C 43.920509,109.50352 43.676695,109.58039 43.426879,109.63323 C 43.177056,109.68608 42.923634,109.7125 42.66661,109.7125 C 42.022842,109.7125 41.512394,109.52514 41.135264,109.15041 C 40.760534,108.77568 40.573169,108.26883 40.57317,107.62987 C 40.573169,106.96929 40.750925,106.44563 41.106439,106.05889 C 41.464352,105.66975 41.945975,105.47518 42.551309,105.47518 C 43.094183,105.47518 43.52296,105.65053 43.83764,106.00124 C 44.154715,106.34955 44.313254,106.82396 44.313258,107.42449 M 43.650275,107.22992 C 43.645467,106.8672 43.543378,106.57775 43.344006,106.36156 C 43.14703,106.14537 42.8852,106.03727 42.558515,106.03727 C 42.188588,106.03727 41.891927,106.14177 41.668533,106.35075 C 41.447537,106.55973 41.320225,106.85399 41.286597,107.23352 L 43.650275,107.22992 M 32.267868,113.62914 L 32.267868,114.33897 C 31.991622,114.20686 31.730993,114.10837 31.485981,114.04351 C 31.240962,113.97866 31.004355,113.94623 30.776157,113.94622 C 30.379806,113.94623 30.073537,114.0231 29.857349,114.17683 C 29.64356,114.33057 29.536666,114.54916 29.536667,114.8326 C 29.536666,115.07042 29.607528,115.25057 29.749254,115.37308 C 29.893379,115.49319 30.164817,115.59047 30.56357,115.66493 L 31.003156,115.75501 C 31.54603,115.85831 31.945981,116.04087 32.203011,116.3027 C 32.462435,116.56213 32.592149,116.91043 32.592153,117.34761 C 32.592149,117.86887 32.416795,118.26402 32.066091,118.53306 C 31.717781,118.80209 31.206132,118.93661 30.531141,118.93661 C 30.276515,118.93661 30.005077,118.90779 29.716825,118.85013 C 29.430973,118.79248 29.134312,118.70721 28.826843,118.59431 L 28.826843,117.84485 C 29.122302,118.0106 29.411756,118.13551 29.695206,118.21958 C 29.978654,118.30365 30.257299,118.34569 30.531141,118.34569 C 30.946704,118.34569 31.267386,118.26402 31.493187,118.10068 C 31.718982,117.93733 31.831881,117.70433 31.831885,117.40166 C 31.831881,117.13743 31.75021,116.93085 31.586869,116.78192 C 31.425925,116.63299 31.160492,116.52129 30.790569,116.44682 L 30.34738,116.36035 C 29.804501,116.25225 29.411756,116.0829 29.169144,115.8523 C 28.92653,115.6217 28.805223,115.30102 28.805224,114.89025 C 28.805223,114.41464 28.97217,114.03991 29.306064,113.76607 C 29.642358,113.49223 30.104765,113.35531 30.693284,113.3553 C 30.945503,113.35531 31.202529,113.37813 31.464362,113.42376 C 31.726188,113.46941 31.994024,113.53787 32.267868,113.62914 M 36.616891,114.95151 L 36.616891,115.57125 C 36.429523,115.46796 36.240958,115.3911 36.051194,115.34065 C 35.863827,115.28781 35.67406,115.26138 35.481894,115.26138 C 35.051914,115.26138 34.71802,115.3983 34.480213,115.67214 C 34.242403,115.94358 34.123498,116.32552 34.123499,116.81795 C 34.123498,117.31038 34.242403,117.69352 34.480213,117.96736 C 34.71802,118.2388 35.051914,118.37452 35.481894,118.37452 C 35.67406,118.37452 35.863827,118.34929 36.051194,118.29885 C 36.240958,118.246 36.429523,118.16794 36.616891,118.06464 L 36.616891,118.67718 C 36.431925,118.76366 36.239757,118.82852 36.040385,118.87175 C 35.843409,118.91499 35.633224,118.93661 35.40983,118.93661 C 34.802094,118.93661 34.31927,118.74564 33.961357,118.36371 C 33.603442,117.98177 33.424484,117.46652 33.424485,116.81795 C 33.424484,116.15977 33.604643,115.64212 33.96496,115.26498 C 34.327678,114.88786 34.823713,114.69929 35.453068,114.69929 C 35.657245,114.69929 35.85662,114.72091 36.051194,114.76414 C 36.245762,114.80498 36.434328,114.86744 36.616891,114.95151 M 41.228946,116.6486 L 41.228946,116.97288 L 38.180667,116.97288 C 38.209491,117.42929 38.346411,117.77759 38.591428,118.0178 C 38.838843,118.25561 39.182345,118.37452 39.621934,118.37452 C 39.876555,118.37452 40.122771,118.34329 40.360583,118.28083 C 40.600791,118.21838 40.8386,118.1247 41.07401,117.99979 L 41.07401,118.62674 C 40.836197,118.72763 40.592383,118.80449 40.342567,118.85734 C 40.092745,118.91019 39.839322,118.93661 39.582299,118.93661 C 38.938531,118.93661 38.428083,118.74925 38.050952,118.37452 C 37.676222,117.99979 37.488858,117.49294 37.488858,116.85398 C 37.488858,116.1934 37.666614,115.66974 38.022127,115.283 C 38.380041,114.89386 38.861663,114.69929 39.466997,114.69929 C 40.009872,114.69929 40.438648,114.87464 40.753328,115.22535 C 41.070403,115.57366 41.228942,116.04807 41.228946,116.6486 M 40.565964,116.45403 C 40.561156,116.09131 40.459066,115.80186 40.259694,115.58566 C 40.062718,115.36948 39.800888,115.26138 39.474204,115.26138 C 39.104277,115.26138 38.807616,115.36587 38.584221,115.57486 C 38.363226,115.78384 38.235914,116.0781 38.202286,116.45763 L 40.565964,116.45403 M 45.657239,116.39638 L 45.657239,118.83212 L 44.994257,118.83212 L 44.994257,116.418 C 44.994253,116.03606 44.919788,115.75021 44.77086,115.56044 C 44.621926,115.37068 44.39853,115.2758 44.100671,115.27579 C 43.742754,115.2758 43.460506,115.3899 43.253927,115.61809 C 43.047343,115.8463 42.944053,116.15737 42.944054,116.55131 L 42.944054,118.83212 L 42.277468,118.83212 L 42.277468,114.79657 L 42.944054,114.79657 L 42.944054,115.42352 C 43.102592,115.18091 43.288755,114.99955 43.502545,114.87944 C 43.718733,114.75934 43.967351,114.69929 44.248401,114.69929 C 44.712005,114.69929 45.062713,114.84342 45.300526,115.13167 C 45.538331,115.41752 45.657235,115.83909 45.657239,116.39638 M 50.438643,116.6486 L 50.438643,116.97288 L 47.390363,116.97288 C 47.419187,117.42929 47.556108,117.77759 47.801124,118.0178 C 48.04854,118.25561 48.392042,118.37452 48.83163,118.37452 C 49.086251,118.37452 49.332468,118.34329 49.57028,118.28083 C 49.810487,118.21838 50.048296,118.1247 50.283707,117.99979 L 50.283707,118.62674 C 50.045894,118.72763 49.80208,118.80449 49.552264,118.85734 C 49.302441,118.91019 49.049019,118.93661 48.791996,118.93661 C 48.148228,118.93661 47.637779,118.74925 47.260649,118.37452 C 46.885919,117.99979 46.698555,117.49294 46.698555,116.85398 C 46.698555,116.1934 46.876311,115.66974 47.231824,115.283 C 47.589737,114.89386 48.07136,114.69929 48.676694,114.69929 C 49.219569,114.69929 49.648345,114.87464 49.963025,115.22535 C 50.2801,115.57366 50.438639,116.04807 50.438643,116.6486 M 49.77566,116.45403 C 49.770853,116.09131 49.668763,115.80186 49.469391,115.58566 C 49.272415,115.36948 49.010585,115.26138 48.683901,115.26138 C 48.313973,115.26138 48.017313,115.36587 47.793918,115.57486 C 47.572923,115.78384 47.445611,116.0781 47.411982,116.45763 L 49.77566,116.45403"
       id="text2902" />
  </g>
</svg>
