<?xml version="1.0" encoding="UTF-8" standalone="no"?>
<!-- Created with Inkscape (http://www.inkscape.org/) -->
<svg
   xmlns:dc="http://purl.org/dc/elements/1.1/"
   xmlns:cc="http://web.resource.org/cc/"
   xmlns:rdf="http://www.w3.org/1999/02/22-rdf-syntax-ns#"
   xmlns:svg="http://www.w3.org/2000/svg"
   xmlns="http://www.w3.org/2000/svg"
   xmlns:xlink="http://www.w3.org/1999/xlink"
   xmlns:sodipodi="http://sodipodi.sourceforge.net/DTD/sodipodi-0.dtd"
   xmlns:inkscape="http://www.inkscape.org/namespaces/inkscape"
   width="128"
   height="128"
   id="svg1877"
   sodipodi:version="0.32"
   inkscape:version="0.44"
   version="1.0"
   sodipodi:docbase="/home/pinheiro/artwork/Oxygen/theme/svg/apps"
   sodipodi:docname="kpdf.svg">
  <defs
     id="defs1879">
    <linearGradient
       inkscape:collect="always"
       id="linearGradient3106">
      <stop
         style="stop-color:white;stop-opacity:1;"
         offset="0"
         id="stop3108" />
      <stop
         style="stop-color:white;stop-opacity:0;"
         offset="1"
         id="stop3110" />
    </linearGradient>
    <linearGradient
       inkscape:collect="always"
       id="linearGradient3083">
      <stop
         style="stop-color:white;stop-opacity:1;"
         offset="0"
         id="stop3085" />
      <stop
         style="stop-color:white;stop-opacity:0;"
         offset="1"
         id="stop3087" />
    </linearGradient>
    <linearGradient
       inkscape:collect="always"
       id="linearGradient3058">
      <stop
         style="stop-color:white;stop-opacity:1;"
         offset="0"
         id="stop3060" />
      <stop
         style="stop-color:white;stop-opacity:0;"
         offset="1"
         id="stop3062" />
    </linearGradient>
    <linearGradient
       id="linearGradient5477">
      <stop
         style="stop-color:black;stop-opacity:1;"
         offset="0"
         id="stop5479" />
      <stop
         style="stop-color:white;stop-opacity:1;"
         offset="1"
         id="stop5481" />
    </linearGradient>
    <linearGradient
       inkscape:collect="always"
       id="linearGradient3880">
      <stop
         style="stop-color:black;stop-opacity:1;"
         offset="0"
         id="stop3882" />
      <stop
         style="stop-color:black;stop-opacity:0;"
         offset="1"
         id="stop3884" />
    </linearGradient>
    <linearGradient
       inkscape:collect="always"
       id="linearGradient3853">
      <stop
         style="stop-color:black;stop-opacity:1;"
         offset="0"
         id="stop3855" />
      <stop
         style="stop-color:black;stop-opacity:0;"
         offset="1"
         id="stop3857" />
    </linearGradient>
    <linearGradient
       id="linearGradient3837">
      <stop
         style="stop-color:black;stop-opacity:1;"
         offset="0"
         id="stop3839" />
      <stop
         id="stop3849"
         offset="0.25"
         style="stop-color:black;stop-opacity:0.59927797;" />
      <stop
         id="stop3847"
         offset="0.5"
         style="stop-color:black;stop-opacity:0.27797833;" />
      <stop
         style="stop-color:black;stop-opacity:0;"
         offset="1"
         id="stop3841" />
    </linearGradient>
    <linearGradient
       id="linearGradient3814">
      <stop
         style="stop-color:white;stop-opacity:0;"
         offset="0"
         id="stop3816" />
      <stop
         id="stop3824"
         offset="0.18531764"
         style="stop-color:white;stop-opacity:0;" />
      <stop
         id="stop3822"
         offset="0.28106508"
         style="stop-color:white;stop-opacity:0.33574006;" />
      <stop
         style="stop-color:white;stop-opacity:0.1696751;"
         offset="0.45126861"
         id="stop3829" />
      <stop
         id="stop3831"
         offset="0.47940481"
         style="stop-color:white;stop-opacity:0;" />
      <stop
         style="stop-color:white;stop-opacity:0.3068592;"
         offset="0.65610015"
         id="stop3833" />
      <stop
         style="stop-color:white;stop-opacity:0;"
         offset="1"
         id="stop3818" />
    </linearGradient>
    <linearGradient
       inkscape:collect="always"
       id="linearGradient3804">
      <stop
         style="stop-color:white;stop-opacity:1;"
         offset="0"
         id="stop3806" />
      <stop
         style="stop-color:white;stop-opacity:0;"
         offset="1"
         id="stop3808" />
    </linearGradient>
    <linearGradient
       inkscape:collect="always"
       id="linearGradient3783">
      <stop
         style="stop-color:white;stop-opacity:1;"
         offset="0"
         id="stop3785" />
      <stop
         style="stop-color:white;stop-opacity:0;"
         offset="1"
         id="stop3787" />
    </linearGradient>
    <linearGradient
       inkscape:collect="always"
       id="linearGradient3771">
      <stop
         style="stop-color:#f7fafe;stop-opacity:1;"
         offset="0"
         id="stop3773" />
      <stop
         style="stop-color:#f7fafe;stop-opacity:0;"
         offset="1"
         id="stop3775" />
    </linearGradient>
    <linearGradient
       inkscape:collect="always"
       id="linearGradient3756">
      <stop
         style="stop-color:black;stop-opacity:1;"
         offset="0"
         id="stop3758" />
      <stop
         style="stop-color:black;stop-opacity:0;"
         offset="1"
         id="stop3760" />
    </linearGradient>
    <linearGradient
       inkscape:collect="always"
       id="linearGradient3742">
      <stop
         style="stop-color:white;stop-opacity:1;"
         offset="0"
         id="stop3744" />
      <stop
         style="stop-color:white;stop-opacity:0;"
         offset="1"
         id="stop3746" />
    </linearGradient>
    <linearGradient
       inkscape:collect="always"
       id="linearGradient3710">
      <stop
         style="stop-color:white;stop-opacity:1;"
         offset="0"
         id="stop3712" />
      <stop
         style="stop-color:white;stop-opacity:0;"
         offset="1"
         id="stop3714" />
    </linearGradient>
    <linearGradient
       id="linearGradient3695">
      <stop
         style="stop-color:#626262;stop-opacity:1;"
         offset="0"
         id="stop3697" />
      <stop
         style="stop-color:#efefef;stop-opacity:1;"
         offset="1"
         id="stop3699" />
    </linearGradient>
    <linearGradient
       inkscape:collect="always"
       xlink:href="#linearGradient3880"
       id="linearGradient3886"
       x1="53.777279"
       y1="53.014202"
       x2="34.243549"
       y2="148.6344"
       gradientUnits="userSpaceOnUse" />
    <linearGradient
       inkscape:collect="always"
       xlink:href="#linearGradient3771"
       id="linearGradient4014"
       gradientUnits="userSpaceOnUse"
       x1="28.138407"
       y1="5.6195269"
       x2="29.138409"
       y2="16.588285"
       gradientTransform="matrix(2.695388,0.213097,-0.213097,2.695388,14.72041,-36.629)" />
    <linearGradient
       inkscape:collect="always"
       xlink:href="#linearGradient3771"
       id="linearGradient4017"
       gradientUnits="userSpaceOnUse"
       x1="28.138407"
       y1="5.6195269"
       x2="29.138409"
       y2="16.588285"
       gradientTransform="matrix(2.695388,0.213097,-0.213097,2.695388,14.72041,-36.629)" />
    <linearGradient
       inkscape:collect="always"
       xlink:href="#linearGradient3771"
       id="linearGradient4020"
       gradientUnits="userSpaceOnUse"
       x1="28.138407"
       y1="5.6195269"
       x2="29.138409"
       y2="16.588285"
       gradientTransform="matrix(2.695388,0.213097,-0.213097,2.695388,14.72041,-36.629)" />
    <radialGradient
       inkscape:collect="always"
       xlink:href="#linearGradient3853"
       id="radialGradient4027"
       gradientUnits="userSpaceOnUse"
       gradientTransform="matrix(0.933029,-0.126122,13.99076,108.242,-969.0881,-8033.763)"
       cx="-36.857941"
       cy="75.225319"
       fx="-36.857941"
       fy="75.225319"
       r="0.9722718" />
    <linearGradient
       inkscape:collect="always"
       xlink:href="#linearGradient3710"
       id="linearGradient4031"
       gradientUnits="userSpaceOnUse"
       gradientTransform="matrix(2.838573,0.224418,-0.224418,2.838573,15.70712,-18.07678)"
       x1="4.9107008"
       y1="44.649334"
       x2="58.884792"
       y2="36.866131" />
    <linearGradient
       inkscape:collect="always"
       xlink:href="#linearGradient3710"
       id="linearGradient4034"
       gradientUnits="userSpaceOnUse"
       gradientTransform="matrix(2.838573,0.224418,-0.224418,2.838573,15.70712,-18.07678)"
       x1="4.9107008"
       y1="44.649334"
       x2="58.884792"
       y2="36.866131" />
    <linearGradient
       inkscape:collect="always"
       xlink:href="#linearGradient3710"
       id="linearGradient4037"
       gradientUnits="userSpaceOnUse"
       gradientTransform="matrix(2.838573,0.224418,-0.224418,2.838573,15.70712,-18.07678)"
       x1="4.9107008"
       y1="44.649334"
       x2="58.884792"
       y2="36.866131" />
    <linearGradient
       inkscape:collect="always"
       xlink:href="#linearGradient3837"
       id="linearGradient4042"
       gradientUnits="userSpaceOnUse"
       x1="20.606983"
       y1="54.213417"
       x2="14.043751"
       y2="16.4375"
       gradientTransform="matrix(2.695388,0.213097,-0.213097,2.695388,14.72041,-36.629)" />
    <linearGradient
       inkscape:collect="always"
       xlink:href="#linearGradient3804"
       id="linearGradient4045"
       gradientUnits="userSpaceOnUse"
       x1="6.28125"
       y1="35.763672"
       x2="14.3125"
       y2="35.763672"
       gradientTransform="matrix(2.695388,0.213097,-0.213097,2.695388,14.72041,-36.629)" />
    <linearGradient
       inkscape:collect="always"
       xlink:href="#linearGradient3783"
       id="linearGradient4048"
       gradientUnits="userSpaceOnUse"
       x1="5.323966"
       y1="55.630238"
       x2="16.25"
       y2="54.984375"
       gradientTransform="matrix(2.695388,0.213097,-0.213097,2.695388,14.72041,-36.629)" />
    <linearGradient
       inkscape:collect="always"
       xlink:href="#linearGradient3783"
       id="linearGradient4051"
       gradientUnits="userSpaceOnUse"
       x1="15.6875"
       y1="48.890625"
       x2="16.753466"
       y2="55.4375"
       gradientTransform="matrix(2.695388,0.213097,-0.213097,2.695388,14.72041,-36.629)" />
    <linearGradient
       inkscape:collect="always"
       xlink:href="#linearGradient3783"
       id="linearGradient4054"
       gradientUnits="userSpaceOnUse"
       x1="15.6875"
       y1="48.890625"
       x2="16.25"
       y2="54.984375"
       gradientTransform="matrix(2.695388,0.213097,-0.213097,2.695388,14.72041,-36.629)" />
    <linearGradient
       inkscape:collect="always"
       xlink:href="#linearGradient3756"
       id="linearGradient4057"
       gradientUnits="userSpaceOnUse"
       x1="11.967802"
       y1="50.304192"
       x2="15.346087"
       y2="57.638905"
       gradientTransform="matrix(2.695388,0.213097,-0.213097,2.695388,14.72041,-36.629)" />
    <linearGradient
       inkscape:collect="always"
       xlink:href="#linearGradient3710"
       id="linearGradient4061"
       gradientUnits="userSpaceOnUse"
       gradientTransform="matrix(2.838573,0.224418,-0.224418,2.838573,15.09863,-9.622281)"
       x1="4.9107008"
       y1="44.649334"
       x2="58.884792"
       y2="36.866131" />
    <linearGradient
       inkscape:collect="always"
       xlink:href="#linearGradient3710"
       id="linearGradient4064"
       gradientUnits="userSpaceOnUse"
       gradientTransform="matrix(2.838573,0.224418,-0.224418,2.838573,15.09863,-9.622281)"
       x1="4.9107008"
       y1="44.649334"
       x2="58.884792"
       y2="36.866131" />
    <linearGradient
       inkscape:collect="always"
       xlink:href="#linearGradient3695"
       id="linearGradient4068"
       gradientUnits="userSpaceOnUse"
       gradientTransform="matrix(2.838573,0.224418,-0.224418,2.838573,15.70712,-18.07678)"
       x1="32.438522"
       y1="40"
       x2="33.050251"
       y2="42.76342" />
    <linearGradient
       inkscape:collect="always"
       xlink:href="#linearGradient3814"
       id="linearGradient4071"
       gradientUnits="userSpaceOnUse"
       x1="4.5181999"
       y1="41.236893"
       x2="18.826626"
       y2="38.015541"
       gradientTransform="matrix(2.695388,0.213097,-0.213097,2.695388,14.72041,-36.629)" />
    <linearGradient
       inkscape:collect="always"
       xlink:href="#linearGradient3742"
       id="linearGradient4075"
       gradientUnits="userSpaceOnUse"
       gradientTransform="matrix(2.838573,0.224418,-0.224418,2.838573,15.70712,-18.07678)"
       x1="36.10664"
       y1="42.068642"
       x2="38.780388"
       y2="40.875401" />
    <linearGradient
       inkscape:collect="always"
       xlink:href="#linearGradient3880"
       id="linearGradient4078"
       gradientUnits="userSpaceOnUse"
       x1="53.777279"
       y1="53.014202"
       x2="34.243549"
       y2="148.6344" />
    <linearGradient
       inkscape:collect="always"
       xlink:href="#linearGradient3880"
       id="linearGradient4080"
       gradientUnits="userSpaceOnUse"
       x1="53.777279"
       y1="53.014202"
       x2="34.243549"
       y2="148.6344" />
    <linearGradient
       inkscape:collect="always"
       xlink:href="#XMLID_5_"
       id="linearGradient5127"
       x1="92.956825"
       y1="-8.9549065"
       x2="59.82354"
       y2="206.72591"
       gradientUnits="userSpaceOnUse"
       gradientTransform="matrix(0.965146,0,0,0.965146,2.355023,1.471211)" />
    <radialGradient
       id="XMLID_5_"
       cx="51.9995"
       cy="-9"
       r="111.0006"
       gradientUnits="userSpaceOnUse">
      <stop
         offset="0.15000001"
         style="stop-color:#c20600;stop-opacity:1;"
         id="stop4094" />
      <stop
         id="stop2886"
         style="stop-color:#860202;stop-opacity:1;"
         offset="0.57499999" />
      <stop
         offset="1"
         style="stop-color:#760101;stop-opacity:1;"
         id="stop4102" />
    </radialGradient>
    <linearGradient
       inkscape:collect="always"
       xlink:href="#linearGradient5477"
       id="linearGradient5483"
       x1="74.0625"
       y1="85.125"
       x2="108.0625"
       y2="126.0625"
       gradientUnits="userSpaceOnUse" />
    <linearGradient
       inkscape:collect="always"
       xlink:href="#linearGradient5477"
       id="linearGradient5487"
       gradientUnits="userSpaceOnUse"
       x1="39.8125"
       y1="79.125"
       x2="45.3125"
       y2="138.875"
       gradientTransform="translate(0,-1)" />
    <linearGradient
       inkscape:collect="always"
       xlink:href="#linearGradient5477"
       id="linearGradient5491"
       gradientUnits="userSpaceOnUse"
       gradientTransform="translate(0,-2)"
       x1="34.5625"
       y1="99.375"
       x2="44.0625"
       y2="125.125" />
    <linearGradient
       inkscape:collect="always"
       xlink:href="#linearGradient5477"
       id="linearGradient5495"
       gradientUnits="userSpaceOnUse"
       x1="82.3125"
       y1="61.875"
       x2="36.3125"
       y2="128.3125"
       gradientTransform="translate(0,0.7)" />
    <linearGradient
       inkscape:collect="always"
       xlink:href="#linearGradient5477"
       id="linearGradient5499"
       gradientUnits="userSpaceOnUse"
       gradientTransform="translate(0,-3.3)"
       x1="82.3125"
       y1="61.875"
       x2="72.327019"
       y2="133.3125" />
    <linearGradient
       inkscape:collect="always"
       xlink:href="#linearGradient5477"
       id="linearGradient5503"
       gradientUnits="userSpaceOnUse"
       gradientTransform="translate(0,1.7)"
       x1="82.3125"
       y1="61.875"
       x2="72.327019"
       y2="133.3125" />
    <linearGradient
       inkscape:collect="always"
       xlink:href="#linearGradient3058"
       id="linearGradient3070"
       gradientUnits="userSpaceOnUse"
       gradientTransform="matrix(1.556306,0,0,1.556306,50.77552,-229.5802)"
       x1="37.761684"
       y1="-113.79204"
       x2="198.91217"
       y2="195.86526" />
    <linearGradient
       inkscape:collect="always"
       xlink:href="#linearGradient3083"
       id="linearGradient3089"
       x1="-34.184532"
       y1="36.065971"
       x2="183.04672"
       y2="46.516651"
       gradientUnits="userSpaceOnUse" />
    <linearGradient
       inkscape:collect="always"
       xlink:href="#linearGradient3106"
       id="linearGradient3112"
       x1="5.5"
       y1="23.5"
       x2="100.25"
       y2="16.125"
       gradientUnits="userSpaceOnUse"
       gradientTransform="translate(1,9.75)" />
  </defs>
  <sodipodi:namedview
     id="base"
     pagecolor="#ffffff"
     bordercolor="#666666"
     borderopacity="1.0"
     inkscape:pageopacity="0.0"
     inkscape:pageshadow="2"
     inkscape:zoom="1.4142136"
     inkscape:cx="205.78665"
     inkscape:cy="17.855748"
     inkscape:current-layer="layer1"
     showgrid="false"
     inkscape:document-units="px"
     inkscape:grid-bbox="true"
     width="128px"
     height="128px"
     showguides="true"
     inkscape:guide-bbox="true"
     inkscape:window-width="1095"
     inkscape:window-height="1012"
     inkscape:window-x="915"
     inkscape:window-y="54" />
  <metadata
     id="metadata1882">
    <rdf:RDF>
      <cc:Work
         rdf:about="">
        <dc:format>image/svg+xml</dc:format>
        <dc:type
           rdf:resource="http://purl.org/dc/dcmitype/StillImage" />
      </cc:Work>
    </rdf:RDF>
  </metadata>
  <g
     id="layer1"
     inkscape:label="Layer 1"
     inkscape:groupmode="layer">
    <path
       id="path5469"
       d="M 97.792404,4.0756182 L 35.902429,10.228423 L 29.448017,10.922122 L 28.332067,11.314212 L 27.366921,11.133247 L 20.641061,11.917428 C 19.226177,12.076011 18.190257,13.367828 18.348841,14.782704 L 17.59482,23.257891 L 28.577641,119.78887 C 29.023519,122.19945 30.773829,124.06002 32.830315,123.67962 L 47.971039,121.68901 L 48.0012,121.68901 L 114.32569,113.46028 C 116.31062,113.23781 117.68491,111.43383 117.46242,109.4489 L 116.16122,105.11949 C 117.14889,104.37034 117.72795,103.13281 117.57878,101.8018 L 101.74347,7.2123421 C 101.52101,5.2274127 99.777338,3.8531444 97.792404,4.0756182 z "
       style="opacity:0.3;fill:none;fill-opacity:1;fill-rule:nonzero;stroke:black;stroke-width:0.96514583;stroke-linecap:round;stroke-linejoin:round;stroke-miterlimit:4;stroke-dasharray:none;stroke-dashoffset:4;stroke-opacity:1"
       sodipodi:nodetypes="cccccccccccccccccc" />
    <path
       id="path5437"
       d="M 97.792404,4.0756182 L 35.902429,10.228423 L 29.448017,10.922122 L 28.332067,11.314212 L 27.366921,11.133247 L 19.977523,11.887267 C 18.562639,12.04585 17.526719,13.337667 17.685302,14.752544 L 17.021765,23.257891 L 28.151102,120.55665 C 28.59698,122.96722 30.347291,124.82779 32.403776,124.4474 L 47.544501,122.45678 L 47.574661,122.45678 L 114.41101,114.31336 C 116.39593,114.09089 117.77021,112.28692 117.54773,110.30198 L 116.67307,105.2048 C 117.66074,104.45566 118.2398,103.21811 118.09063,101.88711 L 101.74347,7.2123421 C 101.52101,5.2274127 99.777338,3.8531444 97.792404,4.0756182 z "
       style="opacity:0.2;fill:none;fill-opacity:1;fill-rule:nonzero;stroke:black;stroke-width:2.89543724;stroke-linecap:round;stroke-linejoin:round;stroke-miterlimit:4;stroke-dasharray:none;stroke-dashoffset:4;stroke-opacity:1" />
    <path
       style="opacity:0.1;fill:none;fill-opacity:1;fill-rule:nonzero;stroke:black;stroke-width:4.82572889;stroke-linecap:round;stroke-linejoin:round;stroke-miterlimit:4;stroke-dasharray:none;stroke-dashoffset:4;stroke-opacity:1"
       d="M 97.792404,4.0756182 L 35.902429,10.228423 L 29.448017,10.922122 L 28.332067,11.314212 L 27.366921,11.133247 L 19.977523,11.887267 C 18.562639,12.04585 17.526719,13.337667 17.685302,14.752544 L 17.021765,23.257891 L 28.151102,120.55665 C 28.59698,122.96722 30.347291,124.82779 32.403776,124.4474 L 114.41101,114.31336 C 116.39593,114.09089 117.77021,112.28692 117.54773,110.30198 L 116.67307,105.2048 C 117.66074,104.45566 118.2398,103.21811 118.09063,101.88711 L 101.74347,7.2123421 C 101.52101,5.2274127 99.777338,3.8531444 97.792404,4.0756182 z "
       id="path5439"
       sodipodi:nodetypes="cccccccccccccccc" />
    <path
       id="path5441"
       d="M 97.792404,4.0756182 L 35.902429,10.228423 L 29.448017,10.922122 L 28.332067,11.314212 L 27.366921,11.133247 L 19.977523,11.887267 C 18.562639,12.04585 17.526719,13.337667 17.685302,14.752544 L 17.021765,23.257891 L 28.151102,120.55665 C 28.59698,122.96722 30.347291,124.82779 32.403776,124.4474 L 114.41101,114.31336 C 116.39593,114.09089 117.77021,112.28692 117.54773,110.30198 L 116.67307,105.2048 C 117.66074,104.45566 118.2398,103.21811 118.09063,101.88711 L 101.74347,7.2123421 C 101.52101,5.2274127 99.777338,3.8531444 97.792404,4.0756182 z "
       style="opacity:0.05;fill:none;fill-opacity:1;fill-rule:nonzero;stroke:black;stroke-width:6.75602055;stroke-linecap:round;stroke-linejoin:round;stroke-miterlimit:4;stroke-dasharray:none;stroke-dashoffset:4;stroke-opacity:1"
       sodipodi:nodetypes="cccccccccccccccc" />
    <path
       style="opacity:0.3;fill:black;fill-opacity:1;fill-rule:nonzero;stroke:none;stroke-width:1;stroke-linecap:round;stroke-linejoin:round;stroke-miterlimit:4;stroke-dasharray:none;stroke-dashoffset:4;stroke-opacity:1"
       d="M 97.753653,3.5824674 L 29.409266,10.42897 C 29.367919,10.433779 29.327369,10.443917 29.288623,10.459131 L 28.263155,10.821061 L 27.448813,10.670257 C 27.410068,10.655042 27.369517,10.644905 27.328171,10.640096 L 19.938773,11.394117 C 18.292654,11.578617 17.060824,13.070326 17.194139,14.711805 C 17.196661,14.742855 17.190647,14.77113 17.194139,14.802287 L 16.530602,23.217152 C 16.527768,23.247246 16.527768,23.277541 16.530602,23.307635 L 27.65994,120.60639 C 27.669543,120.61689 27.679607,120.62695 27.6901,120.63656 C 27.929541,121.93106 28.511123,123.09123 29.348944,123.89393 C 30.179324,124.68949 31.276595,125.12604 32.455507,124.91939 L 32.485668,124.91939 L 114.46274,114.78536 C 116.71012,114.53347 118.2723,112.49695 118.02172,110.26124 C 118.02204,110.2512 118.02204,110.24112 118.02172,110.23108 L 117.17721,105.31487 C 118.13134,104.45457 118.71898,103.22367 118.56461,101.84638 C 118.56492,101.83633 118.56492,101.82626 118.56461,101.81621 L 102.21745,7.1716033 C 102.21633,7.1616167 102.21863,7.1514028 102.21745,7.1414425 C 101.95227,4.9195406 99.97831,3.3331253 97.753653,3.5824674 z "
       id="path5301"
       sodipodi:nodetypes="cccccccscccccscccsccsccsc" />
    <path
       sodipodi:nodetypes="ccccccc"
       id="path2792"
       d="M 36.570581,17.536448 L 48.216306,121.43988 L 115.10747,113.29155 C 117.09241,113.06908 118.46075,111.25447 118.23827,109.26953 L 100.9342,9.4970363 C 100.71172,7.5121023 98.985556,6.1338725 97.000595,6.3563475 L 36.570581,17.536448 z "
       style="fill:#721919;fill-opacity:1;fill-rule:nonzero;stroke:none;stroke-width:0.1;stroke-linecap:round;stroke-linejoin:round;stroke-miterlimit:4;stroke-dasharray:none;stroke-dashoffset:4;stroke-opacity:0.1300813" />
    <path
       style="fill:url(#linearGradient4075);fill-opacity:1;fill-rule:evenodd;stroke:none;stroke-width:1px;stroke-linecap:butt;stroke-linejoin:miter;stroke-opacity:1"
       d="M 113.81669,111.18694 C 117.30402,110.55608 116.28874,105.36648 116.97441,102.10651 L 108.79051,101.83818 L 113.81669,111.18694 z "
       id="path3740"
       sodipodi:nodetypes="cccc" />
    <path
       style="fill:black;fill-opacity:1;fill-rule:nonzero;stroke:none;stroke-width:0.1;stroke-linecap:round;stroke-linejoin:round;stroke-miterlimit:4;stroke-dasharray:none;stroke-dashoffset:4;stroke-opacity:0.1300813"
       d="M 36.808077,9.1846991 L 30.133175,9.8837085 L 29.025475,10.295044 L 28.044943,10.102391 L 20.648087,10.877005 C 19.233209,11.035587 18.210835,12.316812 18.369417,13.731689 L 17.696163,22.247406 L 28.839539,119.52079 C 29.285421,121.93137 31.034018,123.81589 33.090509,123.43549 L 48.267083,121.42809 L 49.322706,112.82291 C 50.238172,112.34747 50.80839,111.34249 50.686266,110.25292 L 39.574054,11.456353 C 39.415472,10.041478 38.222953,9.0261168 36.808077,9.1846991 z "
       id="rect2790"
       sodipodi:nodetypes="cccccccccccccc" />
    <path
       style="fill:url(#linearGradient4071);fill-opacity:1;fill-rule:nonzero;stroke:none;stroke-width:0.1;stroke-linecap:round;stroke-linejoin:round;stroke-miterlimit:4;stroke-dasharray:none;stroke-dashoffset:4;stroke-opacity:0.1300813"
       d="M 37.329177,9.7408259 L 30.659279,10.484863 L 29.524323,10.903677 L 28.52687,10.655304 L 21.176466,11.430298 C 19.76159,11.588883 18.672378,12.88125 18.83096,14.296127 L 18.158371,22.803445 L 28.768047,117.38389 C 28.785919,115.90815 31.437141,112.24478 33.179731,111.96917 L 50.039585,109.91182 C 44.231532,77.479745 41.127561,43.78341 37.329177,9.7408259 z "
       id="path3812"
       sodipodi:nodetypes="ccccccccccc" />
    <path
       style="fill:url(#linearGradient4068);fill-opacity:1;fill-rule:evenodd;stroke:none;stroke-width:1px;stroke-linecap:butt;stroke-linejoin:miter;stroke-opacity:1"
       d="M 114.40208,105.05163 L 113.93985,111.16633 L 33.519749,121.11393 C 30.338857,121.7023 30.177401,115.08211 33.805396,114.69493 L 114.40208,105.05163 z "
       id="path2797"
       sodipodi:nodetypes="ccccc" />
    <path
       sodipodi:nodetypes="cccccc"
       id="path3724"
       d="M 48.266235,121.35946 L 115.05385,113.32883 C 116.94715,113.11662 118.28212,111.43694 118.20799,109.5615 C 117.90098,111.03949 116.70429,112.26465 115.12396,112.44177 L 48.176746,120.51557 L 48.266235,121.35946 z "
       style="fill:black;fill-opacity:0.47560975;fill-rule:nonzero;stroke:none;stroke-width:0.1;stroke-linecap:round;stroke-linejoin:round;stroke-miterlimit:4;stroke-dasharray:none;stroke-dashoffset:4;stroke-opacity:0.1300813" />
    <path
       sodipodi:nodetypes="cccccc"
       id="path3726"
       d="M 48.240405,120.68826 L 115.05608,112.50205 C 116.9494,112.28984 118.28437,110.61018 118.21024,108.73474 C 117.90324,110.21273 116.70653,111.43789 115.12622,111.615 L 48.03265,119.81204 L 48.240405,120.68826 z "
       style="opacity:0.49180328;fill:url(#linearGradient4064);fill-opacity:1;fill-rule:nonzero;stroke:none;stroke-width:0.1;stroke-linecap:round;stroke-linejoin:round;stroke-miterlimit:4;stroke-dasharray:none;stroke-dashoffset:4;stroke-opacity:0.1300813" />
    <path
       style="opacity:0.34426228;fill:url(#linearGradient4061);fill-opacity:1;fill-rule:nonzero;stroke:none;stroke-width:0.1;stroke-linecap:round;stroke-linejoin:round;stroke-miterlimit:4;stroke-dasharray:none;stroke-dashoffset:4;stroke-opacity:0.1300813"
       d="M 48.1876,120.55786 L 115.05608,112.50205 C 116.9494,112.28984 118.28437,110.61018 118.21024,108.73474 C 117.90324,110.21273 116.66272,111.99229 115.08238,112.16942 L 48.092715,119.98179 L 48.1876,120.55786 z "
       id="path3728"
       sodipodi:nodetypes="cccccc" />
    <g
       id="g5505"
       style="opacity:0.39754098">
      <path
         sodipodi:nodetypes="cc"
         id="path5475"
         d="M 30.625,118.75 C 32.625,118.75 114.11742,108.58839 114.11742,108.58839"
         style="fill:none;fill-opacity:0.75;fill-rule:evenodd;stroke:url(#linearGradient5483);stroke-width:0.1;stroke-linecap:butt;stroke-linejoin:miter;stroke-opacity:1;stroke-miterlimit:4;stroke-dasharray:none" />
      <path
         style="fill:none;fill-opacity:0.75;fill-rule:evenodd;stroke:url(#linearGradient5487);stroke-width:0.1;stroke-linecap:butt;stroke-linejoin:miter;stroke-miterlimit:4;stroke-dasharray:none;stroke-opacity:1"
         d="M 31.066942,117.61742 C 33.066942,117.61742 114.25,107.5 114.25,107.5"
         id="path5485"
         sodipodi:nodetypes="cc" />
      <path
         sodipodi:nodetypes="cc"
         id="path5489"
         d="M 31.464689,116.79419 C 33.464689,116.79419 114.25,106.5 114.25,106.5"
         style="fill:none;fill-opacity:0.75;fill-rule:evenodd;stroke:url(#linearGradient5491);stroke-width:0.1;stroke-linecap:butt;stroke-linejoin:miter;stroke-miterlimit:4;stroke-dasharray:none;stroke-opacity:1" />
      <path
         style="fill:none;fill-opacity:0.75;fill-rule:evenodd;stroke:url(#linearGradient5495);stroke-width:0.1;stroke-linecap:butt;stroke-linejoin:miter;stroke-miterlimit:4;stroke-dasharray:none;stroke-opacity:1"
         d="M 31.332107,119.81742 C 33.332107,119.81742 114.02903,109.7 114.02903,109.7"
         id="path5493"
         sodipodi:nodetypes="cc" />
      <path
         sodipodi:nodetypes="cc"
         id="path5497"
         d="M 31.906631,115.81742 C 33.906631,115.81742 114.02903,105.7 114.02903,105.7"
         style="fill:none;fill-opacity:0.75;fill-rule:evenodd;stroke:url(#linearGradient5499);stroke-width:0.1;stroke-linecap:butt;stroke-linejoin:miter;stroke-miterlimit:4;stroke-dasharray:none;stroke-opacity:1" />
      <path
         style="fill:none;fill-opacity:0.75;fill-rule:evenodd;stroke:url(#linearGradient5503);stroke-width:0.1;stroke-linecap:butt;stroke-linejoin:miter;stroke-miterlimit:4;stroke-dasharray:none;stroke-opacity:1"
         d="M 32.039214,120.90581 C 34.039214,120.90581 114.02903,110.7 114.02903,110.7"
         id="path5501"
         sodipodi:nodetypes="cc" />
    </g>
    <path
       style="opacity:0.68999999;fill:black;fill-opacity:0.47560975;fill-rule:nonzero;stroke:none;stroke-width:0.1;stroke-linecap:round;stroke-linejoin:round;stroke-miterlimit:4;stroke-dasharray:none;stroke-dashoffset:4;stroke-opacity:0.1300813"
       d="M 48.266235,121.35946 L 115.05385,113.32883 C 116.94715,113.11662 118.28212,111.43694 118.20799,109.5615 C 117.92019,111.64351 116.62134,112.74903 115.04103,112.92614 L 48.283162,120.9658 L 48.266235,121.35946 z "
       id="path3732"
       sodipodi:nodetypes="cccccc" />
    <path
       sodipodi:nodetypes="ccccc"
       id="path3754"
       d="M 114.40208,105.05163 L 113.93985,111.16633 L 33.519749,121.11393 C 30.338857,121.7023 30.177401,115.08211 33.805396,114.69493 L 114.40208,105.05163 z "
       style="fill:url(#linearGradient4057);fill-opacity:1;fill-rule:evenodd;stroke:none;stroke-width:1px;stroke-linecap:butt;stroke-linejoin:miter;stroke-opacity:1" />
    <path
       style="opacity:0.42213117;fill:url(#linearGradient4054);fill-opacity:1;fill-rule:evenodd;stroke:none;stroke-width:1px;stroke-linecap:butt;stroke-linejoin:miter;stroke-opacity:1"
       d="M 30.323763,116.57455 C 30.408002,115.85521 31.699233,114.27239 32.130588,114.08992 C 37.659649,113.48171 43.188711,112.87349 48.717771,112.26527 C 48.690475,111.89584 48.663177,111.5264 48.63588,111.15695 C 43.02037,111.78658 37.404856,112.41622 31.789345,113.04585 C 31.122266,113.06924 30.413377,115.51661 30.323763,116.57455 z "
       id="path3781"
       sodipodi:nodetypes="cccccc" />
    <path
       sodipodi:nodetypes="ccccsc"
       id="path3791"
       d="M 30.323763,116.57455 C 30.408002,115.85521 32.162414,114.09924 32.59377,113.91677 C 38.122831,113.30856 42.868192,112.75825 48.397253,112.15004 C 48.369957,111.7806 48.276764,111.64356 48.249468,111.27411 C 42.633958,111.90374 38.821907,112.47936 32.746139,113.12663 C 31.067199,113.3055 30.413377,115.51661 30.323763,116.57455 z "
       style="opacity:0.42213117;fill:url(#linearGradient4051);fill-opacity:1;fill-rule:evenodd;stroke:none;stroke-width:1px;stroke-linecap:butt;stroke-linejoin:miter;stroke-opacity:1" />
    <path
       style="opacity:0.42213117;fill:url(#linearGradient4048);fill-opacity:1;fill-rule:evenodd;stroke:none;stroke-width:1px;stroke-linecap:butt;stroke-linejoin:miter;stroke-opacity:1"
       d="M 30.323763,116.57455 C 30.456774,116.58919 30.543259,116.1674 30.693915,115.87939 C 31.12948,115.04669 31.926993,113.95817 32.861792,113.93796 C 38.390852,113.32974 42.868192,112.75825 48.397253,112.15004 C 48.369957,111.7806 48.218,111.85079 48.190705,111.48137 C 42.575193,112.11098 38.3617,112.8215 32.74619,113.45112 C 31.589698,113.62771 30.769537,114.79846 30.442076,115.79649 C 30.346984,116.08632 30.240555,116.57197 30.323763,116.57455 z "
       id="path3793"
       sodipodi:nodetypes="csccccsc" />
    <path
       style="opacity:0.36885244;fill:url(#linearGradient4045);fill-opacity:1;fill-rule:nonzero;stroke:none;stroke-width:0.1;stroke-linecap:round;stroke-linejoin:round;stroke-miterlimit:4;stroke-dasharray:none;stroke-dashoffset:4;stroke-opacity:0.1300813"
       d="M 28.146,10.648501 L 40.465125,113.73176 L 41.664336,113.5723 L 29.12739,10.832036 L 28.146,10.648501 z "
       id="path3799"
       sodipodi:nodetypes="ccccc" />
    <path
       sodipodi:nodetypes="ccccccccccc"
       id="path3835"
       d="M 37.726641,13.669124 L 31.056744,14.413162 L 29.921786,14.831976 L 28.924334,14.583602 L 21.573931,15.358596 C 20.159054,15.517181 19.069842,16.809548 19.228425,18.224425 L 18.555835,26.731743 L 28.768047,117.38389 C 28.785919,115.90815 30.687928,112.24548 33.179731,111.96917 L 50.039585,109.91182 C 44.231532,77.479745 41.525027,47.711708 37.726641,13.669124 z "
       style="fill:url(#linearGradient4042);fill-opacity:1;fill-rule:nonzero;stroke:none;stroke-width:0.1;stroke-linecap:round;stroke-linejoin:round;stroke-miterlimit:4;stroke-dasharray:none;stroke-dashoffset:4;stroke-opacity:0.1300813" />
    <path
       style="fill:url(#linearGradient5127);fill-opacity:1.0;fill-rule:nonzero;stroke:none;stroke-width:0.1;stroke-linecap:round;stroke-linejoin:round;stroke-miterlimit:4;stroke-dasharray:none;stroke-dashoffset:4;stroke-opacity:0.1300813"
       d="M 36.576034,9.2019109 L 48.88956,112.92418 L 115.64536,104.89136 C 117.6303,104.66889 118.99861,102.85427 118.77615,100.86935 L 102.41452,6.1915657 C 102.19207,4.2066339 100.46587,2.8284046 98.480939,3.0508791 L 36.576034,9.2019109 z "
       id="rect1887"
       sodipodi:nodetypes="ccccccc" />
    <path
       style="fill:black;fill-opacity:0.47560975;fill-rule:nonzero;stroke:none;stroke-width:0.1;stroke-linecap:round;stroke-linejoin:round;stroke-miterlimit:4;stroke-dasharray:none;stroke-dashoffset:4;stroke-opacity:0.1300813"
       d="M 48.87475,112.90496 L 115.66234,104.87432 C 117.55566,104.66211 118.89061,102.98245 118.8165,101.10701 C 118.50951,102.58499 117.31279,103.81015 115.73246,103.98727 L 48.785261,112.06107 L 48.87475,112.90496 z "
       id="path3703"
       sodipodi:nodetypes="cccccc" />
    <path
       style="opacity:0.49180328;fill:url(#linearGradient4037);fill-opacity:1;fill-rule:nonzero;stroke:none;stroke-width:0.1;stroke-linecap:round;stroke-linejoin:round;stroke-miterlimit:4;stroke-dasharray:none;stroke-dashoffset:4;stroke-opacity:0.1300813"
       d="M 48.84892,112.23377 L 115.66459,104.04756 C 117.55792,103.83533 118.89288,102.15566 118.81874,100.28023 C 118.51177,101.75823 117.31503,102.98337 115.73473,103.1605 L 48.656735,110.89261 L 48.84892,112.23377 z "
       id="path3718"
       sodipodi:nodetypes="cccccc" />
    <path
       style="fill:url(#radialGradient4027);fill-opacity:1;fill-rule:nonzero;stroke:none;stroke-width:0.1;stroke-linecap:round;stroke-linejoin:round;stroke-miterlimit:4;stroke-dasharray:none;stroke-dashoffset:4;stroke-opacity:0.1300813"
       d="M 36.634848,8.038675 C 35.586835,8.1747479 40.177098,55.096612 46.959072,112.91665 L 50.820869,112.41523 C 44.023618,54.597181 37.682863,7.9025997 36.634848,8.038675 z "
       id="path3851" />
    <path
       sodipodi:nodetypes="cccccc"
       id="path3708"
       d="M 48.582846,112.01805 L 115.66459,104.04756 C 117.55792,103.83533 118.89288,102.15566 118.81874,100.28023 C 118.51177,101.75823 117.2712,103.53779 115.69089,103.7149 L 48.48796,111.44198 L 48.582846,112.01805 z "
       style="opacity:0.34426228;fill:url(#linearGradient4034);fill-opacity:1;fill-rule:nonzero;stroke:none;stroke-width:0.1;stroke-linecap:round;stroke-linejoin:round;stroke-miterlimit:4;stroke-dasharray:none;stroke-dashoffset:4;stroke-opacity:0.1300813" />
    <path
       style="opacity:0.34426228;fill:url(#linearGradient4031);fill-opacity:1;fill-rule:nonzero;stroke:none;stroke-width:0.1;stroke-linecap:round;stroke-linejoin:round;stroke-miterlimit:4;stroke-dasharray:none;stroke-dashoffset:4;stroke-opacity:0.1300813"
       d="M 48.96673,112.10335 L 115.66459,104.04756 C 117.55792,103.83533 118.89288,102.15566 118.81874,100.28023 C 118.51177,101.75823 117.32144,103.18473 115.74112,103.36185 L 48.865275,111.21118 L 48.96673,112.10335 z "
       id="path3720"
       sodipodi:nodetypes="cccccc" />
    <path
       sodipodi:nodetypes="cccccc"
       id="path3722"
       d="M 48.87475,112.90496 L 115.66234,104.87432 C 117.55566,104.66211 118.89061,102.98245 118.8165,101.10701 C 118.5287,103.18901 117.22988,104.29453 115.64956,104.47164 L 48.891675,112.51131 L 48.87475,112.90496 z "
       style="fill:black;fill-opacity:0.47560975;fill-rule:nonzero;stroke:none;stroke-width:0.1;stroke-linecap:round;stroke-linejoin:round;stroke-miterlimit:4;stroke-dasharray:none;stroke-dashoffset:4;stroke-opacity:0.1300813" />
    <g
       id="g3876"
       transform="matrix(2.695388,0.213097,-0.213097,2.695388,19.14573,-249.2679)"
       style="fill:url(#linearGradient3886);fill-opacity:1">
      <path
         id="path3866"
         d="M 36.885155,90.664517 C 36.83568,90.66421 36.77929,90.690488 36.728905,90.695767 C 37.282468,90.760801 37.74132,91.14319 37.853905,91.727017 L 46.635155,126.16452 C 46.775035,126.88988 46.329267,127.61838 45.603905,127.75827 L 21.541405,132.60202 L 21.541405,132.66452 L 45.916405,127.75827 C 46.641764,127.61838 47.087535,126.88988 46.947655,126.16452 L 38.166405,91.727017 C 38.044008,91.092326 37.502511,90.668354 36.885155,90.664517 z "
         style="opacity:0.46311472;fill:url(#linearGradient4078);fill-opacity:1;fill-rule:nonzero;stroke:none;stroke-width:0.1;stroke-linecap:round;stroke-linejoin:round;stroke-miterlimit:4;stroke-dasharray:none;stroke-dashoffset:4;stroke-opacity:0.1300813" />
      <path
         id="path3870"
         d="M 36.886996,90.668449 C 36.808482,90.667961 36.717555,90.685951 36.636996,90.699699 C 37.139864,90.803452 37.563335,91.186929 37.668246,91.730949 L 46.449496,126.16844 C 46.589376,126.89381 46.143604,127.62231 45.418246,127.76219 L 21.511996,132.57469 L 21.543246,132.66844 L 45.918246,127.76219 C 46.643604,127.62231 47.089376,126.89381 46.949496,126.16844 L 38.168246,91.730949 C 38.04585,91.096259 37.504352,90.672286 36.886996,90.668449 z "
         style="opacity:0.46311472;fill:url(#linearGradient4080);fill-opacity:1;fill-rule:nonzero;stroke:none;stroke-width:0.1;stroke-linecap:round;stroke-linejoin:round;stroke-miterlimit:4;stroke-dasharray:none;stroke-dashoffset:4;stroke-opacity:0.1300813" />
    </g>
    <path
       sodipodi:nodetypes="cccccccc"
       id="path3769"
       d="M 99.156878,2.9957048 C 98.919279,2.9754335 98.640257,2.9921919 98.39214,3.0200019 L 36.561008,9.1924588 L 36.580894,9.744954 L 98.352186,3.5253872 C 100.33711,3.3029127 102.11486,4.7372755 102.33732,6.7222019 L 102.38393,6.1325858 C 102.18928,4.3957681 100.82008,3.137604 99.156878,2.9957048 z "
       style="opacity:0.34836067;fill:black;fill-opacity:1;fill-rule:nonzero;stroke:none;stroke-width:0.1;stroke-linecap:round;stroke-linejoin:round;stroke-miterlimit:4;stroke-dasharray:none;stroke-dashoffset:4;stroke-opacity:0.1300813" />
    <path
       sodipodi:nodetypes="cccccccc"
       id="path3779"
       d="M 99.151088,3.3409238 C 98.913487,3.3206529 98.634464,3.337411 98.386349,3.365221 L 36.62588,9.4479135 L 36.743375,11.116353 L 98.524697,4.4161465 C 100.50964,4.1936721 102.22659,5.3015509 102.44905,7.2864771 L 102.37813,6.4778049 C 102.18349,4.7409874 100.81429,3.4828232 99.151088,3.3409238 z "
       style="fill:url(#linearGradient4020);fill-opacity:1;fill-rule:nonzero;stroke:none;stroke-width:0.1;stroke-linecap:round;stroke-linejoin:round;stroke-miterlimit:4;stroke-dasharray:none;stroke-dashoffset:4;stroke-opacity:0.1300813" />
    <path
       style="fill:url(#linearGradient4017);fill-opacity:1;fill-rule:nonzero;stroke:none;stroke-width:0.1;stroke-linecap:round;stroke-linejoin:round;stroke-miterlimit:4;stroke-dasharray:none;stroke-dashoffset:4;stroke-opacity:0.1300813"
       d="M 99.151088,3.3409238 C 98.913487,3.3206529 98.634464,3.337411 98.386349,3.365221 L 36.612021,9.4891965 L 36.661831,10.065245 L 98.544259,4.0210965 C 100.52919,3.798622 102.20818,5.3450444 102.43063,7.3299706 L 102.37813,6.4778049 C 102.18349,4.7409874 100.81429,3.4828232 99.151088,3.3409238 z "
       id="path3764"
       sodipodi:nodetypes="cccccccc" />
    <path
       sodipodi:nodetypes="cccccccc"
       id="path3888"
       d="M 99.151088,3.3409238 C 98.913487,3.3206529 98.634464,3.337411 98.386349,3.365221 L 36.612021,9.4891965 L 36.708099,10.600346 L 98.530341,4.1971431 C 100.51527,3.9746686 102.20818,5.3450444 102.43063,7.3299706 L 102.37813,6.4778049 C 102.18349,4.7409874 100.81429,3.4828232 99.151088,3.3409238 z "
       style="fill:url(#linearGradient4014);fill-opacity:1;fill-rule:nonzero;stroke:none;stroke-width:0.1;stroke-linecap:round;stroke-linejoin:round;stroke-miterlimit:4;stroke-dasharray:none;stroke-dashoffset:4;stroke-opacity:0.1300813" />
    <path
       style="fill:#00316e;fill-opacity:0.75;fill-rule:evenodd;stroke:black;stroke-width:0.1;stroke-linecap:butt;stroke-linejoin:miter;stroke-miterlimit:4;stroke-dasharray:none;stroke-opacity:1"
       d="M -226.34375 126 C -227.07198 126.66546 -228.05318 127.38684 -228.71875 128.03125 C -230.20293 129.46826 -231.53827 130.83237 -232.65625 132.125 C -233.77423 133.41763 -234.66733 134.62538 -235.34375 135.71875 C -236.02017 136.81212 -236.46551 137.817 -236.625 138.65625 C -236.78449 139.4955 -236.65156 140.1885 -236.21875 140.71875 C -231.75607 145.22276 -228.3024 137.67238 -226.34375 126 z "
       id="path2970" />
    <path
       style="fill:#00316e;fill-opacity:0.75;fill-rule:evenodd;stroke:black;stroke-width:0.1;stroke-linecap:butt;stroke-linejoin:miter;stroke-miterlimit:4;stroke-dasharray:none;stroke-opacity:1"
       d="M -225.6875 121.5625 C -234.80036 129.3026 -240.14767 136.75343 -236.21875 140.71875 C -236.65156 140.1885 -236.78449 139.4955 -236.625 138.65625 C -236.46551 137.817 -236.02017 136.81212 -235.34375 135.71875 C -234.66733 134.62538 -233.77423 133.41763 -232.65625 132.125 C -231.53827 130.83237 -230.20293 129.46826 -228.71875 128.03125 C -228.05318 127.38684 -227.07198 126.66546 -226.34375 126 C -226.10322 124.56657 -225.88069 123.10813 -225.6875 121.5625 z "
       id="path2968" />
    <path
       style="fill:#00316e;fill-opacity:0.75;fill-rule:evenodd;stroke:black;stroke-width:0.1;stroke-linecap:butt;stroke-linejoin:miter;stroke-miterlimit:4;stroke-dasharray:none;stroke-opacity:1"
       d="M -224.40625 120.53125 C -223.88505 116.05781 -223.4944 111.32576 -223.40625 106.46875 C -223.30674 100.98582 -223.5078 95.471874 -224.03125 90.375 C -224.04698 90.221849 -224.07742 90.089871 -224.09375 89.9375 C -224.4572 89.747023 -224.8934 89.598317 -225.25 89.40625 C -224.19699 99.585409 -224.43973 111.57969 -225.6875 121.5625 C -225.28523 121.22082 -224.82275 120.87383 -224.40625 120.53125 z "
       id="path2966" />
    <path
       style="fill:#00316e;fill-opacity:0.75;fill-rule:evenodd;stroke:black;stroke-width:0.1;stroke-linecap:butt;stroke-linejoin:miter;stroke-miterlimit:4;stroke-dasharray:none;stroke-opacity:1"
       d="M -194.1875 101.4375 C -195.25493 101.1707 -196.28169 100.96284 -197.375 100.65625 C -202.36939 99.255701 -207.58359 97.454184 -212.625 95.40625 C -216.70202 93.750075 -220.46439 91.839574 -224.09375 89.9375 C -224.07742 90.089871 -224.04698 90.221849 -224.03125 90.375 C -223.5078 95.471874 -223.30674 100.98582 -223.40625 106.46875 C -223.4944 111.32576 -223.88505 116.05781 -224.40625 120.53125 C -215.83979 113.4851 -204.45718 106.38072 -194.1875 101.4375 z "
       id="path2964" />
    <path
       style="fill:#00316e;fill-opacity:0.75;fill-rule:evenodd;stroke:black;stroke-width:0.1;stroke-linecap:butt;stroke-linejoin:miter;stroke-miterlimit:4;stroke-dasharray:none;stroke-opacity:1"
       d="M -169.625 97.21875 C -169.52843 97.588356 -169.4375 97.976512 -169.4375 98.4375 C -169.4375 99.023051 -169.54519 99.580713 -169.71875 100.0625 C -169.76451 100.18951 -169.84899 100.28624 -169.90625 100.40625 C -169.52578 100.01518 -169.29358 99.549956 -169.28125 98.96875 C -169.26653 98.274965 -169.40553 97.720825 -169.625 97.21875 z "
       id="path2962" />
    <path
       style="fill:#00316e;fill-opacity:0.75;fill-rule:evenodd;stroke:black;stroke-width:0.1;stroke-linecap:butt;stroke-linejoin:miter;stroke-miterlimit:4;stroke-dasharray:none;stroke-opacity:1"
       d="M -177.4375 95.375 C -178.52115 95.643194 -179.59804 95.923235 -180.84375 96.375 C -182.91131 97.12482 -185.46953 98.479742 -187.875 99.65625 C -179.09289 101.7167 -171.92507 102.48131 -169.90625 100.40625 C -169.84899 100.28624 -169.76451 100.18951 -169.71875 100.0625 C -169.54519 99.580713 -169.4375 99.023051 -169.4375 98.4375 C -169.4375 97.976512 -169.52843 97.588356 -169.625 97.21875 C -170.53429 95.138571 -173.41438 94.686625 -177.4375 95.375 z "
       id="path2960" />
    <path
       style="fill:#00316e;fill-opacity:0.75;fill-rule:evenodd;stroke:black;stroke-width:0.1;stroke-linecap:butt;stroke-linejoin:miter;stroke-miterlimit:4;stroke-dasharray:none;stroke-opacity:1"
       d="M -189.4375 99.28125 C -188.91432 99.411508 -188.38614 99.536328 -187.875 99.65625 C -185.46953 98.479742 -182.91131 97.12482 -180.84375 96.375 C -179.59804 95.923235 -178.52115 95.643194 -177.4375 95.375 C -180.76875 95.944993 -184.88632 97.34042 -189.4375 99.28125 z "
       id="path2958" />
    <path
       style="fill:#00316e;fill-opacity:0.75;fill-rule:evenodd;stroke:black;stroke-width:0.1;stroke-linecap:butt;stroke-linejoin:miter;stroke-miterlimit:4;stroke-dasharray:none;stroke-opacity:1"
       d="M -224.625 86.28125 C -224.44608 87.492321 -224.23024 88.663682 -224.09375 89.9375 C -220.46439 91.839574 -216.70202 93.750075 -212.625 95.40625 C -207.58359 97.454184 -202.36939 99.255701 -197.375 100.65625 C -196.28169 100.96284 -195.25493 101.1707 -194.1875 101.4375 C -192.55399 100.65123 -190.99343 99.944768 -189.4375 99.28125 C -200.6019 96.501616 -214.05222 91.713005 -224.625 86.28125 z "
       id="path2956" />
    <path
       style="fill:#00316e;fill-opacity:0.75;fill-rule:evenodd;stroke:black;stroke-width:0.1;stroke-linecap:butt;stroke-linejoin:miter;stroke-miterlimit:4;stroke-dasharray:none;stroke-opacity:1"
       d="M -225.75 85.65625 C -225.57052 86.899937 -225.38587 88.092849 -225.25 89.40625 C -224.8934 89.598317 -224.4572 89.747023 -224.09375 89.9375 C -224.23024 88.663682 -224.44608 87.492321 -224.625 86.28125 C -225.02152 86.077537 -225.36278 85.860829 -225.75 85.65625 z "
       id="path2954" />
    <path
       style="fill:#00316e;fill-opacity:0.75;fill-rule:evenodd;stroke:black;stroke-width:0.1;stroke-linecap:butt;stroke-linejoin:miter;stroke-miterlimit:4;stroke-dasharray:none;stroke-opacity:1"
       d="M -235.09375 67.4375 C -235.59263 67.419051 -236.11794 67.482586 -236.65625 67.625 C -237.30478 67.812495 -237.95429 68.098243 -238.65625 68.5 C -245.33488 72.475748 -237.86709 79.254424 -225.75 85.65625 C -227.23925 75.336567 -230.21385 67.61796 -235.09375 67.4375 z "
       id="path2949" />
    <path
       style="fill:url(#linearGradient3089);fill-opacity:1.0;fill-rule:nonzero;stroke:none;stroke-width:0.1;stroke-linecap:round;stroke-linejoin:round;stroke-miterlimit:4;stroke-dasharray:none;stroke-dashoffset:4;stroke-opacity:0.1300813"
       d="M 72.25,5.65625 L 69.71875,5.90625 C 75.22069,8.6395007 77.553177,19.195391 77.6875,32.59375 C 78.677555,33.295344 79.711054,33.953583 80.75,34.65625 C 80.424238,20.82116 77.872533,9.5105328 72.25,5.65625 z M 80.75,34.65625 L 78.042034,32.207187 L 77.267717,33.162522 L 77.223574,39.702167 L 77.879121,40.801571 L 80.6875,42.40625 C 90.046257,48.858216 100.97777,54.850462 111.59375,59.375 L 110.25,51.59375 C 100.02585,46.58506 89.580788,40.628752 80.75,34.65625 z M 80.6875,42.40625 C 79.612026,41.66481 78.56119,40.907095 77.53125,40.15625 C 76.930554,53.994364 74.448825,69.626243 71.0625,82.59375 L 68.340616,89.327174 L 68.10029,94.269615 L 72.817502,89.51756 L 74.765243,87.589082 L 75.65625,79.78125 C 78.453635,68.111309 80.306792,54.696326 80.6875,42.40625 z M 75.65625,79.78125 C 74.867939,83.069867 74.052917,86.185255 73.125,89.125 C 84.558643,82.030571 99.241317,74.186452 113.0625,67.8125 L 112.15625,62.59375 C 99.722845,67.160903 86.559636,73.295581 75.65625,79.78125 z M 73.125,89.125 C 71.399719,90.195506 69.749055,91.286753 68.1875,92.3125 C 64.566814,102.94583 60.343943,110.07974 56.3125,109.78125 C 62.539754,112.90118 68.607342,103.43742 73.125,89.125 z M 56.3125,109.78125 C 46.80819,103.9814 63.68913,95.403563 68.1875,92.3125 C 69.207217,89.317767 70.156976,86.061344 71.0625,82.59375 C 56.882829,91.727523 48.022484,101.16757 52.78125,107.4375 C 53.928042,108.94845 55.109457,109.69217 56.3125,109.78125 z M 77.53125,40.15625 C 77.643859,37.562228 77.71191,35.029316 77.6875,32.59375 C 62.530892,21.85316 53.417176,11.390307 61.53125,6.71875 L 60.15625,6.84375 C 49.790261,13.875014 60.264777,27.56859 77.53125,40.15625 z "
       id="path3066"
       sodipodi:nodetypes="cccccccccccccccccccccccccccccccccccscccccc" />
    <path
       sodipodi:nodetypes="csccscccccccccccccsccscccccccccccccscccccc"
       id="path3068"
       d="M 199.08253,-203.83418 C 197.59139,-205.06559 195.57109,-205.93252 192.97933,-206.34108 C 175.60656,-209.07967 176.69982,-188.9187 185.82167,-165.2546 C 187.47954,-167.59501 189.06801,-169.91434 190.50381,-172.18972 C 182.52787,-192.08039 180.48084,-207.73445 192.44386,-205.71112 C 205.04851,-203.57927 201.17818,-189.10599 190.50381,-172.18972 C 191.00268,-170.94562 191.5425,-169.69358 192.08611,-168.4192 C 201.59864,-183.95564 206.07485,-198.05983 199.08253,-203.83418 z M 192.08611,-168.4192 C 190.63788,-166.05388 189.08202,-163.68661 187.42065,-161.27842 C 192.92668,-148.04493 200.69509,-134.12409 209.01337,-122.62643 C 212.5751,-121.75105 216.01542,-120.78785 219.24839,-119.79897 C 209.40521,-133.67967 199.0303,-152.14005 192.08611,-168.4192 z M 219.24839,-119.79897 C 220.53059,-117.99083 221.83062,-116.26093 223.08374,-114.62399 C 231.75909,-112.72202 238.93637,-110.57008 243.27214,-108.18717 C 239.24294,-112.3611 230.40522,-116.38644 219.24839,-119.79897 z M 243.27214,-108.18717 C 246.02283,-105.3377 247.00528,-101.12847 242.94481,-99.679773 C 239.3373,-98.392703 232.29946,-102.58556 223.08374,-114.62399 C 220.09624,-115.27898 216.95449,-115.93027 213.64913,-116.51579 C 225.6958,-101.60479 238.15851,-92.917403 246.0495,-99.890193 C 249.36681,-102.8215 247.93449,-105.62479 243.27214,-108.18717 z M 213.64913,-116.51579 C 212.08653,-118.44991 210.55032,-120.50203 209.01337,-122.62643 C 193.6457,-126.40345 175.84353,-129.02104 160.35252,-129.58402 C 157.65151,-127.00349 155.03294,-124.59225 152.41126,-122.41916 C 170.76372,-122.09632 194.434,-119.91954 213.64913,-116.51579 z M 152.41126,-122.41916 C 150.16877,-122.45861 147.98636,-122.46217 145.92264,-122.44512 C 136.1944,-114.7431 128.0061,-110.62887 124.44274,-113.32003 C 128.35478,-106.69504 139.64732,-111.83922 152.41126,-122.41916 z M 124.44274,-113.32003 C 119.09363,-124.39495 139.89615,-122.26961 145.92264,-122.44512 C 148.66247,-124.61429 151.4898,-127.04653 154.40679,-129.72301 C 135.77537,-129.73581 121.87907,-126.28629 122.54175,-117.61674 C 122.70145,-115.52752 123.37939,-114.12312 124.44274,-113.32003 z M 154.40679,-129.72301 C 156.34147,-129.72168 158.3257,-129.65767 160.35252,-129.58402 C 169.93729,-138.74126 179.70776,-150.09841 187.42065,-161.27842 C 186.86635,-162.61065 186.32807,-163.9409 185.82167,-165.2546 C 176.97759,-152.76939 165.31523,-139.73201 154.40679,-129.72301 z "
       style="fill:url(#linearGradient3070);fill-opacity:1;fill-rule:evenodd;stroke:none;stroke-width:0.1;stroke-linecap:butt;stroke-linejoin:miter;stroke-miterlimit:4;stroke-dasharray:none;stroke-opacity:1" />
    <path
       style="opacity:0.59836067;fill:url(#linearGradient3112);fill-opacity:1;fill-rule:nonzero;stroke:none;stroke-width:0.1;stroke-linecap:round;stroke-linejoin:round;stroke-miterlimit:4;stroke-dasharray:none;stroke-dashoffset:4;stroke-opacity:1"
       d="M 38.217318,24.49201 L 39.951615,37.749763 L 104.20902,31.25799 L 102.47473,18.000237 L 38.217318,24.49201 z M 39.944538,26.851187 L 41.948898,26.64869 L 42.322468,29.504434 L 44.837533,26.35686 L 47.166128,26.121607 L 43.906591,30.198948 L 48.569375,33.880701 L 46.063925,34.133822 L 42.568289,31.383602 L 42.968958,34.446498 L 40.964599,34.648994 L 39.944538,26.851187 z M 48.212522,26.015892 L 51.528556,25.680882 C 52.516394,25.58109 53.300634,25.728716 53.885301,26.117431 C 54.47297,26.502331 54.820442,27.101905 54.92697,27.916196 C 55.03394,28.73398 54.851375,29.395043 54.378879,29.890564 C 53.909383,30.382261 53.182242,30.671114 52.194402,30.770911 L 50.867989,30.904916 L 51.222203,33.612692 L 49.232582,33.813699 L 48.212522,26.015892 z M 56.00889,25.228243 L 58.116416,25.015325 C 59.294891,24.896275 60.176924,24.904253 60.774608,25.016632 C 61.375294,25.125197 61.910126,25.362462 62.375405,25.724453 C 62.785317,26.039161 63.107843,26.414399 63.344711,26.855882 C 63.581563,27.297376 63.737202,27.801584 63.813231,28.382724 C 63.890155,28.970834 63.871277,29.512077 63.755058,29.992761 C 63.638367,30.469971 63.421148,30.899736 63.103191,31.287973 C 62.740055,31.733667 62.286918,32.067216 61.726923,32.29656 C 61.166461,32.522425 60.301086,32.695475 59.136476,32.813133 L 57.028951,33.026051 L 56.00889,25.228243 z M 64.836914,24.336369 L 70.245737,23.789929 L 70.445103,25.313977 L 67.04064,25.657922 L 67.230329,27.10799 L 70.428463,26.784891 L 70.627829,28.308939 L 67.429696,28.632039 L 67.861335,31.931681 L 65.856975,32.134177 L 64.836914,24.336369 z M 50.393766,27.279749 L 50.6783,29.454848 L 51.798383,29.341689 C 52.186582,29.302474 52.473764,29.17901 52.660621,28.969728 C 52.847012,28.756979 52.909177,28.472644 52.86366,28.124648 C 52.818133,27.776664 52.685651,27.52346 52.449641,27.356899 C 52.21362,27.190352 51.902051,27.127376 51.513851,27.166589 L 50.393766,27.279749 z M 58.212617,26.549797 L 58.833943,31.299506 L 59.541365,31.228036 C 60.359363,31.145396 60.95718,30.882853 61.333723,30.43228 C 61.713719,29.981363 61.851429,29.367199 61.74992,28.591176 C 61.648853,27.81864 61.36845,27.254658 60.885852,26.894405 C 60.403244,26.534163 59.741503,26.395343 58.920036,26.478328 L 58.212617,26.549797 z "
       id="rect3099" />
  </g>
</svg>
