<?xml version="1.0" encoding="UTF-8" standalone="no"?>
<!-- Created with Inkscape (http://www.inkscape.org/) -->
<svg
   xmlns:dc="http://purl.org/dc/elements/1.1/"
   xmlns:cc="http://web.resource.org/cc/"
   xmlns:rdf="http://www.w3.org/1999/02/22-rdf-syntax-ns#"
   xmlns:svg="http://www.w3.org/2000/svg"
   xmlns="http://www.w3.org/2000/svg"
   xmlns:xlink="http://www.w3.org/1999/xlink"
   xmlns:sodipodi="http://sodipodi.sourceforge.net/DTD/sodipodi-0.dtd"
   xmlns:inkscape="http://www.inkscape.org/namespaces/inkscape"
   version="1.0"
   width="88"
   height="88"
   id="svg8301"
   sodipodi:version="0.32"
   inkscape:version="0.44"
   sodipodi:docname="mail2_send.svg"
   sodipodi:docbase="/home/david/Progetti/oxygen-svn/Oxygen/davigno">
  <metadata
     id="metadata76">
    <rdf:RDF>
      <cc:Work
         rdf:about="">
        <dc:format>image/svg+xml</dc:format>
        <dc:type
           rdf:resource="http://purl.org/dc/dcmitype/StillImage" />
      </cc:Work>
    </rdf:RDF>
  </metadata>
  <sodipodi:namedview
     inkscape:window-height="579"
     inkscape:window-width="849"
     inkscape:pageshadow="2"
     inkscape:pageopacity="0.0"
     guidetolerance="10.0"
     gridtolerance="10.0"
     objecttolerance="10.0"
     borderopacity="1.0"
     bordercolor="#666666"
     pagecolor="#ffffff"
     id="base"
     inkscape:zoom="4.2954545"
     inkscape:cx="44"
     inkscape:cy="44"
     inkscape:window-x="0"
     inkscape:window-y="0"
     inkscape:current-layer="svg8301" />
  <defs
     id="defs8303">
    <linearGradient
       x1="1080.5"
       y1="-613.01813"
       x2="1080.5"
       y2="-606.44482"
       id="linearGradient2081"
       gradientUnits="userSpaceOnUse"
       gradientTransform="matrix(4,0,0,-4,-4142,-2294.406)">
      <stop
         style="stop-color:#a4c0e4;stop-opacity:1"
         offset="0"
         id="stop2083" />
      <stop
         style="stop-color:#d1dff1;stop-opacity:1"
         offset="0"
         id="stop2087" />
      <stop
         style="stop-color:white;stop-opacity:1"
         offset="1"
         id="stop2085" />
    </linearGradient>
    <linearGradient
       inkscape:collect="always"
       xlink:href="#linearGradient2081"
       id="linearGradient2155"
       gradientUnits="userSpaceOnUse"
       x1="231.98985"
       y1="1"
       x2="231.98985"
       y2="51.062332"
       gradientTransform="translate(-260.2646,21.72487)" />
    <linearGradient
       x1="803"
       y1="43.9995"
       x2="765"
       y2="43.9995"
       id="XMLID_10_"
       gradientUnits="userSpaceOnUse">
      <stop
         style="stop-color:#a4c0e4;stop-opacity:1"
         offset="0"
         id="stop6538" />
      <stop
         style="stop-color:white;stop-opacity:1"
         offset="1"
         id="stop6540" />
    </linearGradient>
    <linearGradient
       x1="765.54303"
       y1="44.0005"
       x2="733.71002"
       y2="44.0005"
       id="XMLID_9_"
       gradientUnits="userSpaceOnUse">
      <stop
         style="stop-color:#a4c0e4;stop-opacity:1"
         offset="0"
         id="stop6525" />
      <stop
         style="stop-color:white;stop-opacity:1"
         offset="0.69999999"
         id="stop6527" />
    </linearGradient>
    <linearGradient
       x1="612.00049"
       y1="214"
       x2="612.00049"
       y2="210"
       id="polygon3303_19_"
       gradientUnits="userSpaceOnUse"
       gradientTransform="matrix(0,-1,1,0,600,686)">
      <stop
         style="stop-color:#0057ae;stop-opacity:1"
         offset="0"
         id="stop6519" />
      <stop
         style="stop-color:#06f;stop-opacity:1"
         offset="1"
         id="stop6521" />
    </linearGradient>
    <linearGradient
       x1="626"
       y1="212"
       x2="638"
       y2="212"
       id="polygon3301_63_"
       gradientUnits="userSpaceOnUse"
       gradientTransform="matrix(0,-1,1,0,600,686)">
      <stop
         style="stop-color:#bf0000;stop-opacity:1"
         offset="0"
         id="stop6513" />
      <stop
         style="stop-color:red;stop-opacity:1"
         offset="1"
         id="stop6515" />
    </linearGradient>
    <linearGradient
       x1="652"
       y1="214"
       x2="652"
       y2="210"
       id="polygon3299_21_"
       gradientUnits="userSpaceOnUse"
       gradientTransform="matrix(0,-1,1,0,600,686)">
      <stop
         style="stop-color:#0057ae;stop-opacity:1"
         offset="0"
         id="stop6507" />
      <stop
         style="stop-color:#06f;stop-opacity:1"
         offset="1"
         id="stop6509" />
    </linearGradient>
    <linearGradient
       x1="666"
       y1="212"
       x2="678"
       y2="212"
       id="polygon3297_28_"
       gradientUnits="userSpaceOnUse"
       gradientTransform="matrix(0,-1,1,0,600,686)">
      <stop
         style="stop-color:#bf0000;stop-opacity:1"
         offset="0"
         id="stop6501" />
      <stop
         style="stop-color:red;stop-opacity:1"
         offset="1"
         id="stop6503" />
    </linearGradient>
    <linearGradient
       x1="791.83301"
       y1="44.0005"
       x2="765.54303"
       y2="44.0005"
       id="polygon3295_12_"
       gradientUnits="userSpaceOnUse">
      <stop
         style="stop-color:#2c72c7;stop-opacity:1"
         offset="0"
         id="stop6491" />
      <stop
         style="stop-color:#6193cf;stop-opacity:1"
         offset="0.15000001"
         id="stop6493" />
      <stop
         style="stop-color:#a4c0e4;stop-opacity:1"
         offset="1"
         id="stop6495" />
    </linearGradient>
    <linearGradient
       x1="1196"
       y1="-618.5293"
       x2="1196"
       y2="-626.51862"
       id="polygon3293_18_"
       gradientUnits="userSpaceOnUse"
       gradientTransform="matrix(0,-4,-4,0,-1694.406,4828)">
      <stop
         style="stop-color:#888;stop-opacity:1"
         offset="0"
         id="stop6475" />
      <stop
         style="stop-color:#8b8b8b;stop-opacity:1"
         offset="0.2375"
         id="stop6477" />
      <stop
         style="stop-color:#959595;stop-opacity:1"
         offset="0.42809999"
         id="stop6479" />
      <stop
         style="stop-color:#a6a6a6;stop-opacity:1"
         offset="0.60259998"
         id="stop6481" />
      <stop
         style="stop-color:#bebebe;stop-opacity:1"
         offset="0.76740003"
         id="stop6483" />
      <stop
         style="stop-color:#dcdcdc;stop-opacity:1"
         offset="0.92390001"
         id="stop6485" />
      <stop
         style="stop-color:#eee;stop-opacity:1"
         offset="1"
         id="stop6487" />
    </linearGradient>
    <linearGradient
       x1="682.00098"
       y1="196.99899"
       x2="678.00098"
       y2="196.99899"
       id="polygon3301_62_"
       gradientUnits="userSpaceOnUse"
       gradientTransform="matrix(0,-1,1,0,600,686)">
      <stop
         style="stop-color:#0057ae;stop-opacity:1"
         offset="0"
         id="stop6469" />
      <stop
         style="stop-color:#06f;stop-opacity:1"
         offset="1"
         id="stop6471" />
    </linearGradient>
    <linearGradient
       x1="682.00098"
       y1="180.99899"
       x2="678.00098"
       y2="180.99899"
       id="polygon3301_61_"
       gradientUnits="userSpaceOnUse"
       gradientTransform="matrix(0,-1,1,0,600,686)">
      <stop
         style="stop-color:#bf0000;stop-opacity:1"
         offset="0"
         id="stop6463" />
      <stop
         style="stop-color:red;stop-opacity:1"
         offset="1"
         id="stop6465" />
    </linearGradient>
    <linearGradient
       x1="602"
       y1="197"
       x2="606"
       y2="197"
       id="polygon3301_60_"
       gradientUnits="userSpaceOnUse"
       gradientTransform="matrix(0,-1,1,0,600,686)">
      <stop
         style="stop-color:#bf0000;stop-opacity:1"
         offset="0"
         id="stop6455" />
      <stop
         style="stop-color:red;stop-opacity:1"
         offset="1"
         id="stop6457" />
    </linearGradient>
    <linearGradient
       x1="602"
       y1="181"
       x2="606"
       y2="181"
       id="polygon3301_59_"
       gradientUnits="userSpaceOnUse"
       gradientTransform="matrix(0,-1,1,0,600,686)">
      <stop
         style="stop-color:#0057ae;stop-opacity:1"
         offset="0"
         id="stop6449" />
      <stop
         style="stop-color:#06f;stop-opacity:1"
         offset="1"
         id="stop6451" />
    </linearGradient>
    <linearGradient
       x1="733.71002"
       y1="44"
       x2="814"
       y2="44"
       id="XMLID_1_"
       gradientUnits="userSpaceOnUse">
      <stop
         style="stop-color:#6193cf;stop-opacity:1"
         offset="0"
         id="stop5473" />
      <stop
         style="stop-color:white;stop-opacity:1"
         offset="0.5"
         id="stop5475" />
    </linearGradient>
    <linearGradient
       id="linearGradient3291">
      <stop
         style="stop-color:black;stop-opacity:1"
         offset="0"
         id="stop3293" />
      <stop
         style="stop-color:black;stop-opacity:0"
         offset="1"
         id="stop3295" />
    </linearGradient>
    <radialGradient
       cx="63.912209"
       cy="115.70919"
       r="63.912209"
       fx="63.912209"
       fy="115.7093"
       id="radialGradient4418"
       xlink:href="#linearGradient3291"
       gradientUnits="userSpaceOnUse"
       gradientTransform="matrix(0.688444,0,0,5.67397e-2,1.5e-5,77.80829)" />
    <linearGradient
       x1="1229.8545"
       y1="-280.94821"
       x2="1231.6117"
       y2="-393.9523"
       id="path4399_1_"
       gradientUnits="userSpaceOnUse"
       gradientTransform="matrix(0.9579,0,0,-0.9579,-1135.012,-285.1991)">
      <stop
         style="stop-color:#740000;stop-opacity:1"
         offset="0"
         id="stop6608" />
      <stop
         style="stop-color:#de0000;stop-opacity:1"
         offset="1"
         id="stop6610" />
    </linearGradient>
    <radialGradient
       inkscape:collect="always"
       xlink:href="#linearGradient3291"
       id="radialGradient2106"
       gradientUnits="userSpaceOnUse"
       gradientTransform="matrix(0.688444,0,0,5.67397e-2,1.5e-5,77.80829)"
       cx="63.912209"
       cy="115.70919"
       fx="63.912209"
       fy="115.7093"
       r="63.912209" />
    <linearGradient
       inkscape:collect="always"
       xlink:href="#XMLID_1_"
       id="linearGradient2108"
       gradientUnits="userSpaceOnUse"
       x1="733.71002"
       y1="44"
       x2="814"
       y2="44" />
    <linearGradient
       inkscape:collect="always"
       xlink:href="#polygon3293_18_"
       id="linearGradient2110"
       gradientUnits="userSpaceOnUse"
       gradientTransform="matrix(0,-4,-4,0,-1694.406,4828)"
       x1="1196"
       y1="-618.5293"
       x2="1196"
       y2="-626.51862" />
    <linearGradient
       inkscape:collect="always"
       xlink:href="#polygon3295_12_"
       id="linearGradient2112"
       gradientUnits="userSpaceOnUse"
       x1="791.83301"
       y1="44.0005"
       x2="765.54303"
       y2="44.0005" />
    <linearGradient
       inkscape:collect="always"
       xlink:href="#XMLID_9_"
       id="linearGradient2114"
       gradientUnits="userSpaceOnUse"
       x1="765.54303"
       y1="44.0005"
       x2="733.71002"
       y2="44.0005" />
    <linearGradient
       inkscape:collect="always"
       xlink:href="#XMLID_10_"
       id="linearGradient2116"
       gradientUnits="userSpaceOnUse"
       x1="803"
       y1="43.9995"
       x2="765"
       y2="43.9995" />
    <linearGradient
       inkscape:collect="always"
       xlink:href="#XMLID_9_"
       id="linearGradient2126"
       gradientUnits="userSpaceOnUse"
       x1="765.54303"
       y1="44.0005"
       x2="733.71002"
       y2="44.0005"
       gradientTransform="matrix(0.996761,0,0,1,-727.3505,0)" />
    <linearGradient
       inkscape:collect="always"
       xlink:href="#linearGradient2081"
       id="linearGradient2136"
       gradientUnits="userSpaceOnUse"
       x1="733.71002"
       y1="44"
       x2="814"
       y2="44" />
  </defs>
  <path
     id="path4416"
     style="opacity:0.38139535;fill:url(#radialGradient2106);fill-opacity:1;fill-rule:nonzero;stroke:none;stroke-width:0;stroke-linecap:round;stroke-linejoin:round;stroke-miterlimit:4;stroke-dasharray:none;stroke-dashoffset:4;stroke-opacity:1"
     d="M 87.999975,84.37363 C 87.999975,86.37642 68.300515,88 44.000005,88 C 19.699485,88 2.5e-05,86.37642 2.5e-05,84.37363 C 2.5e-05,82.37085 19.699485,80.74727 44.000005,80.74727 C 68.300515,80.74727 87.999975,82.37085 87.999975,84.37363 L 87.999975,84.37363 z " />
  <path
     d="M 31.35108,0 C 30.037349,0 28.808343,0.649 28.064759,1.736 C 28.064759,1.736 0.69669229,41.734 0.69669229,41.734 C -0.23228896,43.088 -0.23228896,44.908 0.69669229,46.263 L 28.064759,86.264 C 28.805352,87.351 30.034359,88 31.35108,88 L 84.012954,88 C 86.211809,88 87.999998,86.206 87.999998,84 L 87.999998,4 C 87.999998,1.794 86.211809,0 84.012954,0 L 31.35108,0 z "
     style="opacity:0.1"
     id="path5464" />
  <path
     d="M 31.35108,1 C 30.365283,1 29.444276,1.487 28.88609,2.302 C 28.885093,2.303 1.5180234,42.3 1.5180234,42.3 C 0.82228418,43.315 0.82128742,44.68 1.5180234,45.697 L 28.88609,85.698 C 29.442283,86.513 30.36329,87.001 31.35108,87.001 L 84.012954,87.001 C 85.661597,87.001 87.003237,85.655 87.003237,84.001 L 87.003237,4 C 87.003237,2.346 85.661597,1 84.012954,1 L 31.35108,1 z "
     style="opacity:0.15"
     id="path5466" />
  <path
     d="M 31.35108,2 C 30.694215,2 30.08021,2.324 29.708418,2.868 L 2.3403512,42.866 C 1.8758606,43.543 1.8758606,44.453 2.3403512,45.131 L 29.708418,85.132 C 30.079213,85.676 30.693218,86.001 31.35108,86.001 L 84.012954,86.001 C 85.112381,86.001 86.006476,85.104 86.006476,84.001 L 86.006476,4 C 86.006476,2.897 85.112381,2 84.012954,2 L 31.35108,2 z "
     style="opacity:0.2"
     id="path5468" />
  <path
     d="M 31.35108,3 C 31.023146,3 30.715147,3.163 30.529749,3.434 L 3.1616822,43.431 C 2.9284402,43.772 2.9284402,44.222 3.1616822,44.563 L 30.529749,84.565 C 30.716143,84.837 31.023146,85 31.35108,85 L 84.012954,85 C 84.564163,85 85.009715,84.553 85.009715,84 L 85.009715,4 C 85.009715,3.448 84.564163,3 84.012954,3 L 31.35108,3 z "
     style="opacity:0.25"
     id="path5470" />
  <polygon
     points="761.167,4 733.71,43.997 761.167,84 814,84 814,4 761.167,4 "
     style="fill:url(#linearGradient2136)"
     id="polygon5477"
     transform="matrix(0.996761,0,0,1,-727.3505,0)" />
  <polygon
     points="811.666,4 808.834,4 779.709,44.002 808.834,84 811.666,84 782.543,44.002 811.666,4 "
     style="fill:url(#linearGradient2110)"
     id="polygon3293_3_"
     transform="matrix(0.996761,0,0,1,-727.3505,0)" />
  <polygon
     points="765.543,84 768.376,84 791.833,43.997 768.376,4 765.543,4 765.543,84 "
     style="fill:url(#linearGradient2112)"
     id="polygon3295_10_"
     transform="matrix(0.996761,0,0,1,-727.3505,0)" />
  <polygon
     points="768.376,4 789.833,43.997 768.376,84 791.833,43.997 768.376,4 "
     style="opacity:0.25;fill:#0057ae"
     id="polygon6498"
     transform="matrix(0.996761,0,0,1,-727.3505,0)" />
  <path
     d="M 35.712906,80 L 33.450259,80 C 31.403908,77.01 11.448753,47.842 8.8183009,43.997 C 11.448753,40.153 31.404905,10.989 33.449262,8 L 35.712906,8 L 35.712906,4 L 31.35108,4 L 3.9830133,43.997 L 31.35108,84 L 35.712906,84 L 35.712906,80 L 35.712906,80 z "
     style="fill:url(#linearGradient2126)"
     id="path6529" />
  <path
     d="M 40.875131,80 L 61.917753,43.997 L 40.875131,8 L 39.121829,5 L 22.213772,5 C 20.565129,5 19.223489,6.346 19.223489,8 L 19.223489,80 C 19.223489,81.654 20.565129,83 22.213772,83 L 39.121829,83 L 40.875131,80 z "
     style="opacity:0.15"
     id="path6531" />
  <path
     d="M 40.875131,80 L 61.917753,43.997 L 40.875131,8 L 39.705931,6 L 22.213772,6 C 21.114345,6 20.22025,6.897 20.22025,8 L 20.22025,80 C 20.22025,81.103 21.114345,82 22.213772,82 L 39.705931,82 L 40.875131,80 z "
     style="opacity:0.2"
     id="path6533" />
  <path
     d="M 40.875131,80 L 61.917753,43.997 L 40.875131,8 L 40.290033,7 L 22.213772,7 C 21.662563,7 21.217011,7.448 21.217011,8 L 21.217011,80 C 21.217011,80.553 21.662563,81 22.213772,81 L 40.290033,81 L 40.875131,80 z "
     style="opacity:0.25"
     id="path6535" />
  <polygon
     points="752,80 770.722,80 791.833,43.997 770.722,8 752,8 752,80 "
     style="fill:url(#linearGradient2116)"
     id="polygon6542"
     transform="matrix(0.996761,0,0,1,-727.3505,0)" />
  <path
     d="M 61.917753,43.997 L 38.53673,4 L 35.712906,4 L 35.712906,4.787 L 35.815573,5.193 C 35.836505,5.272 35.865411,5.349 35.904284,5.421 C 35.904284,5.421 56.03786,43.075 56.531256,43.998 C 56.03786,44.921 35.903288,82.583 35.903288,82.583 C 35.864414,82.655 35.832518,82.741 35.812582,82.82 L 35.712906,83.214 L 35.712906,84 L 38.53673,84 L 61.917753,43.997 z "
     style="opacity:0.1;fill:#00224d"
     id="path6544" />
  <path
     d="M 61.917753,43.997 L 38.53673,4 L 36.543208,4 C 36.543208,4 36.543208,4 36.543208,4 L 36.781434,4.947 C 36.781434,4.947 55.285305,39.554 57.661583,43.997 C 57.168187,44.92 36.780437,83.055 36.780437,83.055 C 36.780437,83.057 36.543208,83.999 36.543208,83.999 L 36.543208,84 L 38.53673,84 L 61.917753,43.997 z "
     style="opacity:0.15;fill:#00224d"
     id="path6546" />
  <path
     d="M 61.917753,43.997 L 38.53673,4 L 37.539969,4 C 37.539969,4 37.539969,4 37.539969,4 C 37.539969,4.16 37.577846,4.322 37.658584,4.472 C 37.658584,4.472 58.29951,43.073 58.792907,43.996 C 58.29951,44.919 37.658584,83.526 37.658584,83.526 C 37.577846,83.676 37.539969,83.838 37.539969,83.998 L 37.539969,84 L 38.53673,84 L 61.917753,43.997 z "
     style="opacity:0.2;fill:#00224d"
     id="path6548" />
</svg>
