<?xml version="1.0" encoding="UTF-8" standalone="no"?>
<!-- Created with Inkscape (http://www.inkscape.org/) -->
<svg
   xmlns:svg="http://www.w3.org/2000/svg"
   xmlns="http://www.w3.org/2000/svg"
   xmlns:xlink="http://www.w3.org/1999/xlink"
   version="1.0"
   width="88"
   height="88"
   id="svg8301">
  <defs
     id="defs8303">
    <linearGradient
       id="linearGradient3291">
      <stop
         style="stop-color:black;stop-opacity:1"
         offset="0"
         id="stop3293" />
      <stop
         style="stop-color:black;stop-opacity:0"
         offset="1"
         id="stop3295" />
    </linearGradient>
    <radialGradient
       cx="63.912209"
       cy="115.70919"
       r="63.912209"
       fx="63.912209"
       fy="115.7093"
       id="radialGradient4418"
       xlink:href="#linearGradient3291"
       gradientUnits="userSpaceOnUse"
       gradientTransform="matrix(0.688444,0,0,5.67397e-2,1.5e-5,77.80829)" />
    <linearGradient
       x1="1229.8545"
       y1="-280.94821"
       x2="1231.6117"
       y2="-393.9523"
       id="path4399_1_"
       gradientUnits="userSpaceOnUse"
       gradientTransform="matrix(0.9579,0,0,-0.9579,-1135.012,-285.1991)">
	<stop
   style="stop-color:#740000;stop-opacity:1"
   offset="0"
   id="stop6608" />

	<stop
   style="stop-color:#de0000;stop-opacity:1"
   offset="1"
   id="stop6610" />

</linearGradient>
  </defs>
  <g
     id="layer1">
    <path
       d="M 71.665145,4.9148548 C 71.537145,4.7888548 71.297145,4.8258548 71.124145,4.9978548 L 44.000145,32.121855 L 16.875145,4.9978548 C 16.703145,4.8248548 16.461145,4.7878548 16.333145,4.9158548 L 4.9161452,16.332855 C 4.7881452,16.460855 4.8241452,16.702855 4.9981452,16.874855 L 32.122145,43.999855 L 4.9981452,71.123855 C 4.8241452,71.296855 4.7881452,71.538855 4.9161452,71.665855 L 16.333145,83.083855 C 16.461145,83.211855 16.703145,83.175855 16.875145,83.001855 L 44.000145,55.877855 L 71.124145,83.001855 C 71.297145,83.175855 71.539145,83.211855 71.666145,83.083855 L 83.084145,71.665855 C 83.212145,71.538855 83.175145,71.296855 83.002145,71.123855 L 55.878145,43.999855 L 83.002145,16.874855 C 83.175145,16.701855 83.212145,16.459855 83.084145,16.332855 L 71.666145,4.9158548 L 71.666145,4.9158548 C 71.666145,4.9158548 71.666145,4.9148548 71.665145,4.9148548 z "
       style="fill:url(#path4399_1_)"
       id="path4399" />
    <path
       d="M 87.999975,84.37363 C 87.999975,86.37642 68.300515,88 44.000005,88 C 19.699485,88 2.5e-05,86.37642 2.5e-05,84.37363 C 2.5e-05,82.37085 19.699485,80.74727 44.000005,80.74727 C 68.300515,80.74727 87.999975,82.37085 87.999975,84.37363 L 87.999975,84.37363 z "
       style="opacity:0.38139535;fill:url(#radialGradient4418);fill-opacity:1;fill-rule:nonzero;stroke:none;stroke-width:0;stroke-linecap:round;stroke-linejoin:round;stroke-miterlimit:4;stroke-dasharray:none;stroke-dashoffset:4;stroke-opacity:1"
       id="path4416" />
  </g>
</svg>
