<?xml version="1.0" encoding="UTF-8" standalone="no"?>
<!-- Created with Inkscape (http://www.inkscape.org/) -->
<svg
   xmlns:dc="http://purl.org/dc/elements/1.1/"
   xmlns:cc="http://web.resource.org/cc/"
   xmlns:rdf="http://www.w3.org/1999/02/22-rdf-syntax-ns#"
   xmlns:svg="http://www.w3.org/2000/svg"
   xmlns="http://www.w3.org/2000/svg"
   xmlns:xlink="http://www.w3.org/1999/xlink"
   xmlns:sodipodi="http://sodipodi.sourceforge.net/DTD/sodipodi-0.dtd"
   xmlns:inkscape="http://www.inkscape.org/namespaces/inkscape"
   version="1.0"
   width="88"
   height="88"
   id="svg6804"
   sodipodi:version="0.32"
   inkscape:version="0.44.1"
   sodipodi:docname="mail_forward.svg"
   sodipodi:docbase="/Users/david/Progetti/oxygen-svn/theme/svg/actions/small/22x22"
   inkscape:export-filename="/home/david/Progetti/sandbox/mail_forward.png"
   inkscape:export-xdpi="22"
   inkscape:export-ydpi="22">
  <metadata
     id="metadata144">
    <rdf:RDF>
      <cc:Work
         rdf:about="">
        <dc:format>image/svg+xml</dc:format>
        <dc:type
           rdf:resource="http://purl.org/dc/dcmitype/StillImage" />
      </cc:Work>
    </rdf:RDF>
  </metadata>
  <sodipodi:namedview
     inkscape:window-height="579"
     inkscape:window-width="849"
     inkscape:pageshadow="2"
     inkscape:pageopacity="0.0"
     guidetolerance="10.0"
     gridtolerance="10.0"
     objecttolerance="10.0"
     borderopacity="1.0"
     bordercolor="#666666"
     pagecolor="#ffffff"
     id="base"
     showgrid="true"
     gridspacingx="4px"
     gridspacingy="4px"
     gridempspacing="0"
     inkscape:grid-points="true"
     inkscape:zoom="4.2954545"
     inkscape:cx="44"
     inkscape:cy="44"
     inkscape:window-x="351"
     inkscape:window-y="230"
     inkscape:current-layer="svg6804" />
  <defs
     id="defs6806">
    <radialGradient
       inkscape:collect="always"
       xlink:href="#linearGradient3711"
       id="radialGradient28725"
       gradientUnits="userSpaceOnUse"
       cx="343.99899"
       cy="92"
       fx="343.99899"
       fy="92"
       r="36" />
    <linearGradient
       gradientTransform="matrix(0,1,-1,0,-39.9985,140.0029)"
       y2="-383.9975"
       x2="-23.516129"
       y1="-383.9971"
       x1="-84.002403"
       gradientUnits="userSpaceOnUse"
       id="linearGradient3711">
      <stop
         id="stop3713"
         style="stop-color:white;stop-opacity:1;"
         offset="0" />
      <stop
         id="stop3715"
         style="stop-color:white;stop-opacity:0;"
         offset="1" />
    </linearGradient>
    <linearGradient
       inkscape:collect="always"
       xlink:href="#linearGradient3711"
       id="linearGradient28727"
       gradientUnits="userSpaceOnUse"
       gradientTransform="matrix(0,1.022977,-1.022977,0,-162.46,129.0506)"
       x1="-88.058083"
       y1="-131.93112"
       x2="-45.096584"
       y2="-131.93112" />
    <linearGradient
       id="linearGradient26907"
       gradientUnits="userSpaceOnUse"
       x1="-84.002403"
       y1="-383.9971"
       x2="-12.0029"
       y2="-383.9971"
       gradientTransform="matrix(0,1,-1,0,-39.9985,140.0029)">
      <stop
         offset="0"
         style="stop-color:#8f4fc4;stop-opacity:1;"
         id="stop26909" />
      <stop
         offset="1"
         style="stop-color:#471e90;stop-opacity:1;"
         id="stop26911" />
    </linearGradient>
    <linearGradient
       inkscape:collect="always"
       xlink:href="#linearGradient26907"
       id="linearGradient28723"
       gradientUnits="userSpaceOnUse"
       gradientTransform="matrix(0,1,-1,0,-39.9985,140.0029)"
       x1="-70.002899"
       y1="-383.9971"
       x2="-11.91648"
       y2="-383.9971" />
    <linearGradient
       x1="1080.5"
       y1="-609.2793"
       x2="1080.5"
       y2="-617.26862"
       id="linearGradient5146"
       xlink:href="#polygon3293_13_"
       gradientUnits="userSpaceOnUse"
       gradientTransform="matrix(4,0,0,-4,-4142,-2294.406)" />
    <linearGradient
       x1="1080.5"
       y1="-613.01813"
       x2="1080.5"
       y2="-606.44482"
       id="linearGradient5144"
       xlink:href="#polygon3286_13_"
       gradientUnits="userSpaceOnUse"
       gradientTransform="matrix(4,0,0,-4,-4142,-2294.406)" />
    <linearGradient
       x1="1080.5"
       y1="-613.01813"
       x2="1080.5"
       y2="-606.44482"
       id="linearGradient2081"
       gradientUnits="userSpaceOnUse"
       gradientTransform="matrix(4,0,0,-4,-4142,-2294.406)">
      <stop
         style="stop-color:#a4c0e4;stop-opacity:1"
         offset="0"
         id="stop2083" />
      <stop
         style="stop-color:#d1dff1;stop-opacity:1"
         offset="0"
         id="stop2087" />
      <stop
         style="stop-color:white;stop-opacity:1"
         offset="1"
         id="stop2085" />
    </linearGradient>
    <linearGradient
       x1="1080.5"
       y1="-613.01813"
       x2="1080.5"
       y2="-606.44482"
       id="polygon3286_13_"
       gradientUnits="userSpaceOnUse"
       gradientTransform="matrix(4,0,0,-4,-4142,-2294.406)">
      <stop
         style="stop-color:#6193cf;stop-opacity:1"
         offset="0"
         id="stop6034" />
      <stop
         style="stop-color:#eee;stop-opacity:1"
         offset="1"
         id="stop6036" />
    </linearGradient>
    <linearGradient
       x1="1080.5"
       y1="-609.2793"
       x2="1080.5"
       y2="-617.26862"
       id="polygon3293_13_"
       gradientUnits="userSpaceOnUse"
       gradientTransform="matrix(4,0,0,-4,-4142,-2294.406)">
      <stop
         style="stop-color:#6193cf;stop-opacity:1"
         offset="0"
         id="stop6040" />
      <stop
         style="stop-color:#eee;stop-opacity:1"
         offset="1"
         id="stop6042" />
    </linearGradient>
    <linearGradient
       x1="1163.3115"
       y1="-632.84857"
       x2="1172.2568"
       y2="-632.84857"
       id="polygon3477_11_"
       gradientUnits="userSpaceOnUse"
       gradientTransform="matrix(0,3.9299,3.9299,0,3141.93,-4528.256)">
      <stop
         style="stop-color:white;stop-opacity:1"
         offset="0"
         id="stop5861" />
      <stop
         style="stop-color:#fcfcfc;stop-opacity:1"
         offset="0.5413"
         id="stop5863" />
      <stop
         style="stop-color:#f4f4f4;stop-opacity:1"
         offset="0.8664"
         id="stop5865" />
      <stop
         style="stop-color:#eee;stop-opacity:1"
         offset="1"
         id="stop5867" />
    </linearGradient>
    <linearGradient
       x1="491.99899"
       y1="314.0029"
       x2="547.99847"
       y2="314.0029"
       id="circle3581_10_"
       gradientUnits="userSpaceOnUse"
       gradientTransform="matrix(0,1,-1,0,520.0029,-459.9985)">
      <stop
         style="stop-color:#8d74aa;stop-opacity:1"
         offset="0"
         id="stop5711" />
      <stop
         style="stop-color:#462886;stop-opacity:1"
         offset="1"
         id="stop5713" />
    </linearGradient>
    <linearGradient
       id="linearGradient3291">
      <stop
         style="stop-color:black;stop-opacity:1"
         offset="0"
         id="stop3293" />
      <stop
         style="stop-color:black;stop-opacity:0"
         offset="1"
         id="stop3295" />
    </linearGradient>
    <radialGradient
       cx="63.912209"
       cy="115.70919"
       r="63.912209"
       fx="63.912209"
       fy="115.7093"
       id="radialGradient4824"
       xlink:href="#linearGradient3291"
       gradientUnits="userSpaceOnUse"
       gradientTransform="matrix(0.688444,0,0,5.67397e-2,2.34921e-5,77.80833)" />
    <linearGradient
       x1="231.98985"
       y1="1"
       x2="231.98985"
       y2="51.062332"
       id="linearGradient2010"
       xlink:href="#linearGradient2081"
       gradientUnits="userSpaceOnUse"
       gradientTransform="translate(-186,11)" />
    <linearGradient
       inkscape:collect="always"
       xlink:href="#circle3581_10_"
       id="linearGradient2032"
       gradientUnits="userSpaceOnUse"
       x1="663.01166"
       y1="32.886307"
       x2="648.98834"
       y2="87.113693" />
    <linearGradient
       inkscape:collect="always"
       xlink:href="#polygon3477_11_"
       id="linearGradient2038"
       gradientUnits="userSpaceOnUse"
       gradientTransform="matrix(0,3.9299,3.9299,0,3141.93,-4528.256)"
       x1="1163.3115"
       y1="-632.84857"
       x2="1172.0283"
       y2="-632.84906" />
    <linearGradient
       inkscape:collect="always"
       xlink:href="#linearGradient3711"
       id="linearGradient6685"
       gradientUnits="userSpaceOnUse"
       gradientTransform="matrix(0,1.022977,-1.022977,0,-147.0314,77.81251)"
       x1="-88.058083"
       y1="-131.93112"
       x2="-45.096584"
       y2="-131.93112" />
    <linearGradient
       inkscape:collect="always"
       xlink:href="#linearGradient26907"
       id="linearGradient6722"
       gradientUnits="userSpaceOnUse"
       gradientTransform="matrix(0,1,-1,0,-39.9985,140.0029)"
       x1="-70.002899"
       y1="-383.9971"
       x2="-11.91648"
       y2="-383.9971" />
    <linearGradient
       inkscape:collect="always"
       xlink:href="#linearGradient3711"
       id="linearGradient6724"
       gradientUnits="userSpaceOnUse"
       gradientTransform="matrix(0,1.022977,-1.022977,0,-162.46,129.0506)"
       x1="-88.058083"
       y1="-131.93112"
       x2="-45.096584"
       y2="-131.93112" />
  </defs>
  <path
     d="M 87.999978,84.373637 C 87.999978,86.376422 68.300518,88.000001 44.000001,88.000001 C 19.699484,88.000001 2.34921e-05,86.376422 2.34921e-05,84.373637 C 2.34921e-05,82.370852 19.699484,80.747272 44.000001,80.747272 C 68.300518,80.747272 87.999978,82.370852 87.999978,84.373637 L 87.999978,84.373637 z "
     style="opacity:0.38139535;fill:url(#radialGradient4824);fill-opacity:1;fill-rule:nonzero;stroke:none;stroke-width:0;stroke-linecap:round;stroke-linejoin:round;stroke-miterlimit:4;stroke-dasharray:none;stroke-dashoffset:4;stroke-opacity:1"
     id="path4416" />
  <g
     transform="translate(-136,-115)"
     id="g6016">
    <path
       d="M 140,123 C 137.794,123 136,124.795 136,127 L 136,177 C 136,179.206 137.794,181 140,181 L 220,181 C 222.206,181 224,179.206 224,177 L 224,127 C 224,124.795 222.206,123 220,123 L 140,123 z "
       style="opacity:0.1"
       id="path6018" />
    <path
       d="M 140,124 C 138.346,124 137,125.346 137,127 L 137,177 C 137,178.654 138.346,180 140,180 L 220,180 C 221.654,180 223,178.654 223,177 L 223,127 C 223,125.346 221.654,124 220,124 L 140,124 z "
       style="opacity:0.15"
       id="path6020" />
    <path
       d="M 140,125 C 138.897,125 138,125.896 138,127 L 138,177 C 138,178.103 138.897,179 140,179 L 220,179 C 221.103,179 222,178.103 222,177 L 222,127 C 222,125.896 221.103,125 220,125 L 140,125 z "
       style="opacity:0.2"
       id="path6022" />
    <path
       d="M 140,126 C 139.448,126 139,126.447 139,127 L 139,177 C 139,177.553 139.448,178 140,178 L 220,178 C 220.553,178 221,177.553 221,177 L 221,127 C 221,126.447 220.553,126 220,126 L 140,126 z "
       style="opacity:0.25"
       id="path6024" />
  </g>
  <rect
     width="80"
     height="50"
     x="4"
     y="12"
     style="fill:url(#linearGradient2010)"
     id="rect3244_9_" />
  <polygon
     points="140,131.376 140,134.209 180.003,157.667 220,134.209 220,131.376 180.003,154.833 140,131.376 "
     transform="translate(-136,-115)"
     style="fill:url(#linearGradient5144)"
     id="polygon3286_9_" />
  <polygon
     points="220,174.666 220,171.834 179.998,142.709 140,171.834 140,174.666 179.998,145.543 220,174.666 "
     transform="translate(-136,-115)"
     style="fill:url(#linearGradient5146)"
     id="polygon3293_9_" />
  <polygon
     points="140,128.543 140,131.376 180.003,154.833 220,131.376 220,128.543 140,128.543 "
     transform="translate(-136,-115)"
     style="fill:white"
     id="polygon3295_9_" />
  <g
     transform="matrix(0.777778,0,0,0.777778,81.33338,-1.629654)"
     id="g6712">
    <circle
       transform="matrix(-0.965728,0.258766,-0.258766,-0.965728,328.5873,79.06983)"
       id="circle3581_2_"
       ry="8.0010004"
       cy="92"
       cx="343.99899"
       rx="8.0010004"
       r="36"
       style="fill:url(#linearGradient6722);fill-opacity:1"
       sodipodi:cx="343.99899"
       sodipodi:cy="92"
       sodipodi:rx="36"
       sodipodi:ry="36" />
    <circle
       sodipodi:ry="36"
       sodipodi:rx="36"
       sodipodi:cy="92"
       sodipodi:cx="343.99899"
       style="opacity:0.4;fill:url(#radialGradient28725);fill-opacity:1"
       r="36"
       rx="8.0010004"
       cx="343.99899"
       cy="92"
       ry="8.0010004"
       id="circle22111"
       transform="matrix(-0.429212,4.312772e-2,-0.115007,-0.160955,130.8005,105.21)" />
    <path
       id="circle16776"
       d="M -27.428571,47.209472 C -43.138017,47.209472 -56.264698,58.302466 -59.428572,73.071611 C -53.122121,78.950549 -41.155949,82.917765 -27.428571,82.917765 C -13.70118,82.917765 -1.73502,78.95055 4.57143,73.071611 C 1.40757,58.302468 -11.71913,47.209473 -27.428571,47.209472 z "
       style="opacity:0.8;fill:url(#linearGradient6724);fill-opacity:1" />
  </g>
  <path
     style="fill:white;fill-opacity:1"
     d="M 56,76 L 60,80 L 80,60 L 60,40 L 56,44 L 64,56 L 40,56 L 40,64 L 64,64 L 56,76 z "
     id="polygon3477_4_"
     sodipodi:nodetypes="cccccccccc" />
</svg>
