<?xml version="1.0" encoding="UTF-8" standalone="no"?>
<!-- Generator: Adobe Illustrator 12.0.0, SVG Export Plug-In . SVG Version: 6.00 Build 51448)  -->
<svg
   xmlns:ns="http://ns.adobe.com/SaveForWeb/1.0/"
   xmlns:dc="http://purl.org/dc/elements/1.1/"
   xmlns:cc="http://web.resource.org/cc/"
   xmlns:rdf="http://www.w3.org/1999/02/22-rdf-syntax-ns#"
   xmlns:svg="http://www.w3.org/2000/svg"
   xmlns="http://www.w3.org/2000/svg"
   xmlns:xlink="http://www.w3.org/1999/xlink"
   xmlns:sodipodi="http://sodipodi.sourceforge.net/DTD/sodipodi-0.dtd"
   xmlns:inkscape="http://www.inkscape.org/namespaces/inkscape"
   version="1.0"
   id="Livello_1"
   width="88"
   height="88"
   viewBox="0 0 75.898 88"
   overflow="visible"
   enable-background="new 0 0 75.898 88"
   xml:space="preserve"
   sodipodi:version="0.32"
   inkscape:version="0.44.1"
   sodipodi:docname="rotate_ccw.svg"
   sodipodi:docbase="/Users/david/Progetti/oxygen-svn/theme/svg/actions/small/22x22"><defs
   id="defs3107"><linearGradient
     id="linearGradient3291"><stop
       style="stop-color:black;stop-opacity:1"
       offset="0"
       id="stop3293" /><stop
       style="stop-color:black;stop-opacity:0"
       offset="1"
       id="stop3295" /></linearGradient><radialGradient
     inkscape:collect="always"
     xlink:href="#linearGradient3291"
     id="radialGradient1880"
     gradientUnits="userSpaceOnUse"
     gradientTransform="matrix(0.688444,0,0,5.67397e-2,-6.050982,77.80829)"
     cx="63.912209"
     cy="115.70919"
     fx="63.912209"
     fy="115.7093"
     r="63.912209" /></defs><sodipodi:namedview
   inkscape:window-height="577"
   inkscape:window-width="823"
   inkscape:pageshadow="2"
   inkscape:pageopacity="0.0"
   guidetolerance="10.0"
   gridtolerance="10.0"
   objecttolerance="10.0"
   borderopacity="1.0"
   bordercolor="#666666"
   pagecolor="#ffffff"
   id="base"
   width="88px"
   height="88px"
   inkscape:zoom="4.2954545"
   inkscape:cx="37.949001"
   inkscape:cy="44"
   inkscape:window-x="221"
   inkscape:window-y="227"
   inkscape:current-layer="Livello_1" />
<metadata
   id="metadata3088">
	<ns:sfw>
		<ns:slices />
		<ns:sliceSourceBounds
   x="6"
   y="0"
   height="88"
   width="75.898"
   bottomLeftOrigin="true" />
	</ns:sfw>
<rdf:RDF><cc:Work
     rdf:about=""><dc:format>image/svg+xml</dc:format><dc:type
       rdf:resource="http://purl.org/dc/dcmitype/StillImage" /></cc:Work></rdf:RDF></metadata>
<linearGradient
   id="XMLID_3_"
   gradientUnits="userSpaceOnUse"
   x1="26.398399"
   y1="74.838898"
   x2="53.124699"
   y2="17.5243">
	<stop
   offset="0"
   style="stop-color:#644A9B"
   id="stop3091" />
	<stop
   offset="0.8166"
   style="stop-color:#462886"
   id="stop3093" />
	<stop
   offset="1"
   style="stop-color:#1D0A55"
   id="stop3095" />
</linearGradient>
<path
   id="path4416"
   style="opacity:0.38139535;fill:url(#radialGradient1880);fill-opacity:1;fill-rule:nonzero;stroke:none;stroke-width:0;stroke-linecap:round;stroke-linejoin:round;stroke-miterlimit:4;stroke-dasharray:none;stroke-dashoffset:4;stroke-opacity:1"
   d="M 81.948975,84.37363 C 81.948975,86.37642 62.249515,88 37.949005,88 C 13.648485,88 -6.050975,86.37642 -6.050975,84.37363 C -6.050975,82.37085 13.648485,80.74727 37.949005,80.74727 C 62.249515,80.74727 81.948975,82.37085 81.948975,84.37363 L 81.948975,84.37363 z " /><path
   d="M 33.532,12.284 C 14.416,14.539 0,30.752 0,50 C 0,70.953 17.047,88 38,88 C 58.072,88 74.716,72.29 75.891,52.234 C 75.955,51.134 75.564,50.056 74.808,49.255 C 74.053,48.454 73,48 71.898,48 L 63.898,48 C 61.807,48 60.07,49.609 59.91,51.694 C 59.037,63.081 49.413,72 38,72 C 25.869,72 16,62.131 16,50 C 16,39.275 24.002,29.943 34.615,28.293 C 36.563,27.99 38,28 38,28 L 38,12 C 38,12 34.666,12.15 33.532,12.284 z "
   id="path3097"
   style="fill:url(#XMLID_3_)" />
<linearGradient
   id="XMLID_4_"
   gradientUnits="userSpaceOnUse"
   x1="56.129902"
   y1="6.8808999"
   x2="28.6096"
   y2="27.521099">
	<stop
   offset="0"
   style="stop-color:#8E79B9"
   id="stop3100" />
	<stop
   offset="1"
   style="stop-color:#462886"
   id="stop3102" />
</linearGradient>
<polygon
   points="65.969,20 37.968,40 37.968,0 65.969,20 "
   id="polygon3104"
   style="fill:url(#XMLID_4_)" />
</svg>