<?xml version="1.0" encoding="UTF-8" standalone="no"?>
<!-- Created with Inkscape (http://www.inkscape.org/) -->
<svg
   xmlns:dc="http://purl.org/dc/elements/1.1/"
   xmlns:cc="http://web.resource.org/cc/"
   xmlns:rdf="http://www.w3.org/1999/02/22-rdf-syntax-ns#"
   xmlns:svg="http://www.w3.org/2000/svg"
   xmlns="http://www.w3.org/2000/svg"
   xmlns:xlink="http://www.w3.org/1999/xlink"
   xmlns:sodipodi="http://sodipodi.sourceforge.net/DTD/sodipodi-0.dtd"
   xmlns:inkscape="http://www.inkscape.org/namespaces/inkscape"
   width="88"
   height="88"
   id="svg1926"
   sodipodi:version="0.32"
   inkscape:version="0.44"
   version="1.0"
   inkscape:export-filename="/home/david/Progetti/sandbox/ssd.png"
   inkscape:export-xdpi="22.5"
   inkscape:export-ydpi="22.5"
   sodipodi:docbase="/home/david/Progetti/sandbox"
   sodipodi:docname="text_under.svg">
  <defs
     id="defs1928">
    <linearGradient
       id="linearGradient3291">
      <stop
         style="stop-color:black;stop-opacity:1"
         offset="0"
         id="stop3293" />
      <stop
         style="stop-color:black;stop-opacity:0"
         offset="1"
         id="stop3295" />
    </linearGradient>
    <radialGradient
       inkscape:collect="always"
       xlink:href="#linearGradient3291"
       id="radialGradient1880"
       gradientUnits="userSpaceOnUse"
       gradientTransform="matrix(0.688444,0,0,5.67397e-2,1.3e-5,77.80829)"
       cx="63.912209"
       cy="115.70919"
       fx="63.912209"
       fy="115.7093"
       r="63.912209" />
    <linearGradient
       id="XMLID_8_"
       gradientUnits="userSpaceOnUse"
       x1="84.739304"
       y1="7"
       x2="84.739304"
       y2="58"
       xlink:href="#XMLID_7_">
      <stop
         offset="0"
         style="stop-color:#FFFFFF"
         id="stop57" />
      <stop
         offset="0.74559999"
         style="stop-color:white;stop-opacity:0;"
         id="stop59" />
    </linearGradient>
    <linearGradient
       id="XMLID_7_"
       gradientUnits="userSpaceOnUse"
       x1="36.729"
       y1="7"
       x2="36.729"
       y2="58.000198">
      <stop
         offset="0"
         style="stop-color:#FFFFFF"
         id="stop50" />
      <stop
         offset="0.93489999"
         style="stop-color:white;stop-opacity:0;"
         id="stop52" />
    </linearGradient>
    <linearGradient
       id="XMLID_5_"
       gradientUnits="userSpaceOnUse"
       x1="60.0005"
       y1="116"
       x2="60.0005"
       y2="4.0005002">
      <stop
         offset="0"
         style="stop-color:#FFFFFF"
         id="stop20" />
      <stop
         offset="0.0934"
         style="stop-color:#F8F8F8"
         id="stop22" />
      <stop
         offset="0.4405"
         style="stop-color:#E4E4E4"
         id="stop24" />
      <stop
         offset="0.67460001"
         style="stop-color:#e5e5e5;stop-opacity:1;"
         id="stop26" />
      <stop
         offset="1"
         style="stop-color:white;stop-opacity:1;"
         id="stop28" />
    </linearGradient>
    <linearGradient
       inkscape:collect="always"
       xlink:href="#XMLID_8_"
       id="linearGradient2877"
       gradientUnits="userSpaceOnUse"
       gradientTransform="matrix(0.642857,0,0,0.642857,5.428573,5.42857)"
       x1="84.739304"
       y1="7"
       x2="84.739304"
       y2="69" />
    <linearGradient
       inkscape:collect="always"
       xlink:href="#XMLID_7_"
       id="linearGradient2880"
       gradientUnits="userSpaceOnUse"
       gradientTransform="matrix(0.642857,0,0,0.642857,5.428573,5.42857)"
       x1="36.729"
       y1="7"
       x2="36.729"
       y2="69.000198" />
    <linearGradient
       inkscape:collect="always"
       xlink:href="#XMLID_5_"
       id="linearGradient2883"
       gradientUnits="userSpaceOnUse"
       gradientTransform="matrix(0.642857,0,0,0.642857,5.428573,5.42857)"
       x1="60.0005"
       y1="116"
       x2="60.0005"
       y2="4.0005002" />
    <linearGradient
       inkscape:collect="always"
       xlink:href="#XMLID_5_"
       id="linearGradient2640"
       gradientUnits="userSpaceOnUse"
       gradientTransform="matrix(0.642857,0,0,0.642857,5.428573,5.42857)"
       x1="60.0005"
       y1="116"
       x2="60.0005"
       y2="4.0005002" />
    <linearGradient
       inkscape:collect="always"
       xlink:href="#XMLID_7_"
       id="linearGradient2642"
       gradientUnits="userSpaceOnUse"
       gradientTransform="matrix(0.642857,0,0,0.642857,5.428573,5.42857)"
       x1="36.729"
       y1="7"
       x2="36.729"
       y2="69.000198" />
    <linearGradient
       inkscape:collect="always"
       xlink:href="#XMLID_8_"
       id="linearGradient2644"
       gradientUnits="userSpaceOnUse"
       gradientTransform="matrix(0.642857,0,0,0.642857,5.428573,5.42857)"
       x1="84.739304"
       y1="7"
       x2="84.739304"
       y2="69" />
  </defs>
  <sodipodi:namedview
     id="base"
     pagecolor="#ffffff"
     bordercolor="#666666"
     borderopacity="1.0"
     gridtolerance="10000"
     guidetolerance="10"
     objecttolerance="10"
     inkscape:pageopacity="0.0"
     inkscape:pageshadow="2"
     inkscape:zoom="4.2954545"
     inkscape:cx="44"
     inkscape:cy="44"
     inkscape:document-units="px"
     inkscape:current-layer="layer1"
     width="88px"
     height="88px"
     showgrid="true"
     gridspacingx="4px"
     gridspacingy="4px"
     gridempspacing="0"
     inkscape:window-width="849"
     inkscape:window-height="579"
     inkscape:window-x="169"
     inkscape:window-y="0" />
  <metadata
     id="metadata1931">
    <rdf:RDF>
      <cc:Work
         rdf:about="">
        <dc:format>image/svg+xml</dc:format>
        <dc:type
           rdf:resource="http://purl.org/dc/dcmitype/StillImage" />
      </cc:Work>
    </rdf:RDF>
  </metadata>
  <g
     inkscape:label="Layer 1"
     inkscape:groupmode="layer"
     id="layer1">
    <path
       id="path4416"
       style="opacity:0.38139535;fill:url(#radialGradient1880);fill-opacity:1;fill-rule:nonzero;stroke:none;stroke-width:0;stroke-linecap:round;stroke-linejoin:round;stroke-miterlimit:4;stroke-dasharray:none;stroke-dashoffset:4;stroke-opacity:1"
       d="M 87.999973,84.37363 C 87.999973,86.37642 68.300513,88 44.000007,88 C 19.699487,88 2.7e-05,86.37642 2.7e-05,84.37363 C 2.7e-05,82.37085 19.699487,80.74727 44.000007,80.74727 C 68.300513,80.74727 87.999973,82.37085 87.999973,84.37363 L 87.999973,84.37363 z " />
    <g
       id="g2624"
       transform="translate(0,-4)">
      <path
         id="path4661"
         d="M 79.999999,77.33343 C 79.999999,78.80621 78.806214,80 77.333429,80 L 10.666573,80 C 9.193787,80 8.0000012,78.80621 8.0000012,77.33343 L 8.0000012,10.666572 C 8.0000012,9.193786 9.193787,8 10.666573,8 L 77.333429,8 C 78.806214,8 79.999999,9.193786 79.999999,10.666572 L 79.999999,77.33343 z "
         style="opacity:0.1;fill:none;stroke:black;stroke-width:8;stroke-miterlimit:4;stroke-dasharray:none;stroke-opacity:1" />
      <path
         style="opacity:0.15;fill:none;stroke:black;stroke-width:6;stroke-miterlimit:4;stroke-dasharray:none;stroke-opacity:1"
         d="M 79.999999,77.33343 C 79.999999,78.80621 78.806214,80 77.333429,80 L 10.666573,80 C 9.193787,80 8.0000012,78.80621 8.0000012,77.33343 L 8.0000012,10.666572 C 8.0000012,9.193786 9.193787,8 10.666573,8 L 77.333429,8 C 78.806214,8 79.999999,9.193786 79.999999,10.666572 L 79.999999,77.33343 z "
         id="path4659" />
      <path
         id="path3772"
         d="M 79.999999,77.33343 C 79.999999,78.80621 78.806214,80 77.333429,80 L 10.666573,80 C 9.193787,80 8.0000012,78.80621 8.0000012,77.33343 L 8.0000012,10.666572 C 8.0000012,9.193786 9.193787,8 10.666573,8 L 77.333429,8 C 78.806214,8 79.999999,9.193786 79.999999,10.666572 L 79.999999,77.33343 z "
         style="opacity:0.2;fill:none;stroke:black;stroke-width:4;stroke-miterlimit:4;stroke-dasharray:none;stroke-opacity:1" />
      <path
         style="opacity:0.25;fill:none;stroke:black;stroke-width:2;stroke-miterlimit:4;stroke-dasharray:none;stroke-opacity:1"
         d="M 79.999999,77.33343 C 79.999999,78.80621 78.806214,80 77.333429,80 L 10.666573,80 C 9.193787,80 8.0000012,78.80621 8.0000012,77.33343 L 8.0000012,10.666572 C 8.0000012,9.193786 9.193787,8 10.666573,8 L 77.333429,8 C 78.806214,8 79.999999,9.193786 79.999999,10.666572 L 79.999999,77.33343 z "
         id="path2885" />
      <path
         id="path30"
         d="M 79.999999,77.33343 C 79.999999,78.80621 78.806214,80 77.333429,80 L 10.666573,80 C 9.193787,80 8.0000012,78.80621 8.0000012,77.33343 L 8.0000012,10.666572 C 8.0000012,9.193786 9.193787,8 10.666573,8 L 77.333429,8 C 78.806214,8 79.999999,9.193786 79.999999,10.666572 L 79.999999,77.33343 z "
         style="fill:url(#linearGradient2640)" />
      <path
         style="fill:none;stroke:white;stroke-width:2.64285707;stroke-linecap:round;stroke-linejoin:round;stroke-miterlimit:4;stroke-dasharray:none;stroke-opacity:1"
         d="M 78.357146,75.81226 C 78.357146,77.21784 77.217824,78.35714 75.812255,78.35714 L 12.187738,78.35714 C 10.782164,78.35714 9.642857,77.21784 9.642857,75.81226 L 9.642857,12.187745 C 9.642857,10.782171 10.782164,9.642863 12.187738,9.642863 L 75.812255,9.642863 C 77.217824,9.642863 78.357146,10.782171 78.357146,12.187745 L 78.357146,75.81226 z "
         id="path13151" />
      <g
         id="g10589"
         transform="matrix(0.583333,0,0,0.583333,9.00002,9.00002)"
         style="opacity:0.8;fill:none;fill-opacity:1;stroke:white;stroke-width:3.42857337;stroke-linejoin:round;stroke-miterlimit:4;stroke-dasharray:none;stroke-opacity:1">
        <path
           style="fill:none;fill-opacity:1;stroke:white;stroke-width:3.42857337;stroke-linejoin:round;stroke-miterlimit:4;stroke-dasharray:none;stroke-opacity:1"
           id="path10591"
           d="M 28.486096,12.142118 L 45.193192,12.142118 L 45.193192,61.340774 C 45.193192,69.115749 46.476849,74.730724 49.044165,78.182612 C 51.611479,81.635529 55.752512,83.3625 61.465201,83.3625 C 66.925889,83.3625 70.875607,81.717815 73.316406,78.427412 C 75.758236,75.135981 76.978123,69.837807 76.978123,62.532889 L 76.978123,12.142118 L 91.514932,12.142118 L 91.514932,61.448774 C 91.514932,68.861692 90.809332,74.512667 89.399159,78.399641 C 87.988986,82.287643 85.42167,85.660331 81.69824,88.515647 C 76.59858,92.457134 69.746235,94.427879 61.139143,94.427879 C 51.917995,94.427879 44.505077,92.33062 38.899359,88.136103 C 35.029872,85.243758 32.326785,81.817587 30.790098,77.857584 C 29.252383,73.89758 28.485068,68.374149 28.485068,61.287288 L 28.485068,12.142118 L 28.486096,12.142118 z " />
        <rect
           style="fill:none;fill-opacity:1;stroke:white;stroke-width:3.42857337;stroke-linejoin:round;stroke-miterlimit:4;stroke-dasharray:none;stroke-opacity:1"
           id="rect10593"
           height="6.8571196"
           width="68.571472"
           y="101.14288"
           x="25.714266" />
      </g>
      <g
         style="opacity:0.8;fill:#323232;fill-opacity:1"
         transform="matrix(0.583333,0,0,0.583333,9.00002,9.00002)"
         id="g4253">
        <path
           d="M 28.486096,12.142118 L 45.193192,12.142118 L 45.193192,61.340774 C 45.193192,69.115749 46.476849,74.730724 49.044165,78.182612 C 51.611479,81.635529 55.752512,83.3625 61.465201,83.3625 C 66.925889,83.3625 70.875607,81.717815 73.316406,78.427412 C 75.758236,75.135981 76.978123,69.837807 76.978123,62.532889 L 76.978123,12.142118 L 91.514932,12.142118 L 91.514932,61.448774 C 91.514932,68.861692 90.809332,74.512667 89.399159,78.399641 C 87.988986,82.287643 85.42167,85.660331 81.69824,88.515647 C 76.59858,92.457134 69.746235,94.427879 61.139143,94.427879 C 51.917995,94.427879 44.505077,92.33062 38.899359,88.136103 C 35.029872,85.243758 32.326785,81.817587 30.790098,77.857584 C 29.252383,73.89758 28.485068,68.374149 28.485068,61.287288 L 28.485068,12.142118 L 28.486096,12.142118 z "
           id="path4147"
           style="fill:#323232;fill-opacity:1" />
        <rect
           x="25.714266"
           y="101.14288"
           width="68.571472"
           height="6.8571196"
           id="rect4162"
           style="fill:#323232;fill-opacity:1" />
      </g>
      <path
         id="path54"
         d="M 48.79443,9.285715 L 10.666573,9.285715 C 9.904787,9.285715 9.285716,9.904786 9.285716,10.666572 C 9.285716,10.666572 9.285716,31.812715 9.285716,32.948643 C 12.240287,35.50014 16.248501,37.6415 20.936859,39.28464 C 26.803572,30.371429 37.205644,16.405357 48.79443,9.285715 z "
         style="opacity:0.6;fill:url(#linearGradient2642)" />
      <path
         style="opacity:0.6;fill:url(#linearGradient2644);fill-opacity:1"
         id="path61"
         d="M 77.333429,9.285715 L 60.69693,9.285715 C 53.11443,13.984357 42.968858,23.530143 41.093001,42.87307 C 42.056644,42.90779 43.024787,42.929 44.000001,42.929 C 58.363358,42.929 71.57793,39.11171 78.714285,32.948643 C 78.714285,31.812715 78.714285,10.666572 78.714285,10.666572 C 78.714285,9.904786 78.094571,9.285715 77.333429,9.285715 z " />
    </g>
  </g>
</svg>
