<?xml version="1.0" encoding="UTF-8" standalone="no"?>
<!-- Created with Inkscape (http://www.inkscape.org/) -->
<svg
   xmlns:dc="http://purl.org/dc/elements/1.1/"
   xmlns:cc="http://web.resource.org/cc/"
   xmlns:rdf="http://www.w3.org/1999/02/22-rdf-syntax-ns#"
   xmlns:svg="http://www.w3.org/2000/svg"
   xmlns="http://www.w3.org/2000/svg"
   xmlns:xlink="http://www.w3.org/1999/xlink"
   xmlns:sodipodi="http://sodipodi.sourceforge.net/DTD/sodipodi-0.dtd"
   xmlns:inkscape="http://www.inkscape.org/namespaces/inkscape"
   width="88"
   height="88"
   id="svg1926"
   sodipodi:version="0.32"
   inkscape:version="0.44"
   version="1.0"
   inkscape:export-filename="/home/david/Progetti/sandbox/ssd.png"
   inkscape:export-xdpi="22.5"
   inkscape:export-ydpi="22.5"
   sodipodi:docbase="/home/david/Progetti/sandbox"
   sodipodi:docname="text_bold.svg">
  <defs
     id="defs1928">
    <linearGradient
       id="linearGradient3291">
      <stop
         style="stop-color:black;stop-opacity:1"
         offset="0"
         id="stop3293" />
      <stop
         style="stop-color:black;stop-opacity:0"
         offset="1"
         id="stop3295" />
    </linearGradient>
    <radialGradient
       inkscape:collect="always"
       xlink:href="#linearGradient3291"
       id="radialGradient1880"
       gradientUnits="userSpaceOnUse"
       gradientTransform="matrix(0.688444,0,0,5.67397e-2,1.65e-5,77.80829)"
       cx="63.912209"
       cy="115.70919"
       fx="63.912209"
       fy="115.7093"
       r="63.912209" />
    <linearGradient
       id="XMLID_8_"
       gradientUnits="userSpaceOnUse"
       x1="84.739304"
       y1="7"
       x2="84.739304"
       y2="58"
       xlink:href="#XMLID_7_">
      <stop
         offset="0"
         style="stop-color:#FFFFFF"
         id="stop57" />
      <stop
         offset="0.74559999"
         style="stop-color:white;stop-opacity:0;"
         id="stop59" />
    </linearGradient>
    <linearGradient
       id="XMLID_7_"
       gradientUnits="userSpaceOnUse"
       x1="36.729"
       y1="7"
       x2="36.729"
       y2="58.000198">
      <stop
         offset="0"
         style="stop-color:#FFFFFF"
         id="stop50" />
      <stop
         offset="0.93489999"
         style="stop-color:white;stop-opacity:0;"
         id="stop52" />
    </linearGradient>
    <linearGradient
       id="XMLID_5_"
       gradientUnits="userSpaceOnUse"
       x1="60.0005"
       y1="116"
       x2="60.0005"
       y2="4.0005002">
      <stop
         offset="0"
         style="stop-color:#FFFFFF"
         id="stop20" />
      <stop
         offset="0.0934"
         style="stop-color:#F8F8F8"
         id="stop22" />
      <stop
         offset="0.4405"
         style="stop-color:#E4E4E4"
         id="stop24" />
      <stop
         offset="0.67460001"
         style="stop-color:#e5e5e5;stop-opacity:1;"
         id="stop26" />
      <stop
         offset="1"
         style="stop-color:white;stop-opacity:1;"
         id="stop28" />
    </linearGradient>
    <linearGradient
       inkscape:collect="always"
       xlink:href="#XMLID_8_"
       id="linearGradient2877"
       gradientUnits="userSpaceOnUse"
       gradientTransform="matrix(0.642857,0,0,0.642857,5.428573,5.42857)"
       x1="84.739304"
       y1="7"
       x2="84.739304"
       y2="69" />
    <linearGradient
       inkscape:collect="always"
       xlink:href="#XMLID_7_"
       id="linearGradient2880"
       gradientUnits="userSpaceOnUse"
       gradientTransform="matrix(0.642857,0,0,0.642857,5.428573,5.42857)"
       x1="36.729"
       y1="7"
       x2="36.729"
       y2="69.000198" />
    <linearGradient
       inkscape:collect="always"
       xlink:href="#XMLID_5_"
       id="linearGradient2883"
       gradientUnits="userSpaceOnUse"
       gradientTransform="matrix(0.642857,0,0,0.642857,5.428573,5.42857)"
       x1="60.0005"
       y1="116"
       x2="60.0005"
       y2="4.0005002" />
    <linearGradient
       inkscape:collect="always"
       xlink:href="#XMLID_5_"
       id="linearGradient2286"
       gradientUnits="userSpaceOnUse"
       gradientTransform="matrix(0.642857,0,0,0.642857,5.428573,5.42857)"
       x1="60.0005"
       y1="116"
       x2="60.0005"
       y2="4.0005002" />
    <linearGradient
       inkscape:collect="always"
       xlink:href="#XMLID_7_"
       id="linearGradient2288"
       gradientUnits="userSpaceOnUse"
       gradientTransform="matrix(0.642857,0,0,0.642857,5.428573,5.42857)"
       x1="36.729"
       y1="7"
       x2="36.729"
       y2="69.000198" />
    <linearGradient
       inkscape:collect="always"
       xlink:href="#XMLID_8_"
       id="linearGradient2290"
       gradientUnits="userSpaceOnUse"
       gradientTransform="matrix(0.642857,0,0,0.642857,5.428573,5.42857)"
       x1="84.739304"
       y1="7"
       x2="84.739304"
       y2="69" />
  </defs>
  <sodipodi:namedview
     id="base"
     pagecolor="#ffffff"
     bordercolor="#666666"
     borderopacity="1.0"
     gridtolerance="10000"
     guidetolerance="10"
     objecttolerance="10"
     inkscape:pageopacity="0.0"
     inkscape:pageshadow="2"
     inkscape:zoom="2.8284271"
     inkscape:cx="44"
     inkscape:cy="44"
     inkscape:document-units="px"
     inkscape:current-layer="layer1"
     width="88px"
     height="88px"
     showgrid="true"
     gridspacingx="4px"
     gridspacingy="4px"
     gridempspacing="0"
     inkscape:window-width="849"
     inkscape:window-height="579"
     inkscape:window-x="169"
     inkscape:window-y="0" />
  <metadata
     id="metadata1931">
    <rdf:RDF>
      <cc:Work
         rdf:about="">
        <dc:format>image/svg+xml</dc:format>
        <dc:type
           rdf:resource="http://purl.org/dc/dcmitype/StillImage" />
      </cc:Work>
    </rdf:RDF>
  </metadata>
  <g
     inkscape:label="Layer 1"
     inkscape:groupmode="layer"
     id="layer1">
    <path
       id="path4416"
       style="opacity:0.38139535;fill:url(#radialGradient1880);fill-opacity:1;fill-rule:nonzero;stroke:none;stroke-width:0;stroke-linecap:round;stroke-linejoin:round;stroke-miterlimit:4;stroke-dasharray:none;stroke-dashoffset:4;stroke-opacity:1"
       d="M 87.999977,84.37363 C 87.999977,86.37642 68.300517,88 44.000004,88 C 19.699484,88 2.35e-05,86.37642 2.35e-05,84.37363 C 2.35e-05,82.37085 19.699484,80.74727 44.000004,80.74727 C 68.300517,80.74727 87.999977,82.37085 87.999977,84.37363 L 87.999977,84.37363 z " />
    <g
       id="g2274"
       transform="translate(0,-4)">
      <path
         id="path4661"
         d="M 79.999999,77.33343 C 79.999999,78.80621 78.806214,80 77.333429,80 L 10.666573,80 C 9.193787,80 8.0000012,78.80621 8.0000012,77.33343 L 8.0000012,10.666572 C 8.0000012,9.193786 9.193787,8 10.666573,8 L 77.333429,8 C 78.806214,8 79.999999,9.193786 79.999999,10.666572 L 79.999999,77.33343 z "
         style="opacity:0.1;fill:none;stroke:black;stroke-width:8;stroke-miterlimit:4;stroke-dasharray:none;stroke-opacity:1" />
      <path
         style="opacity:0.15;fill:none;stroke:black;stroke-width:6;stroke-miterlimit:4;stroke-dasharray:none;stroke-opacity:1"
         d="M 79.999999,77.33343 C 79.999999,78.80621 78.806214,80 77.333429,80 L 10.666573,80 C 9.193787,80 8.0000012,78.80621 8.0000012,77.33343 L 8.0000012,10.666572 C 8.0000012,9.193786 9.193787,8 10.666573,8 L 77.333429,8 C 78.806214,8 79.999999,9.193786 79.999999,10.666572 L 79.999999,77.33343 z "
         id="path4659" />
      <path
         id="path3772"
         d="M 79.999999,77.33343 C 79.999999,78.80621 78.806214,80 77.333429,80 L 10.666573,80 C 9.193787,80 8.0000012,78.80621 8.0000012,77.33343 L 8.0000012,10.666572 C 8.0000012,9.193786 9.193787,8 10.666573,8 L 77.333429,8 C 78.806214,8 79.999999,9.193786 79.999999,10.666572 L 79.999999,77.33343 z "
         style="opacity:0.2;fill:none;stroke:black;stroke-width:4;stroke-miterlimit:4;stroke-dasharray:none;stroke-opacity:1" />
      <path
         style="opacity:0.25;fill:none;stroke:black;stroke-width:2;stroke-miterlimit:4;stroke-dasharray:none;stroke-opacity:1"
         d="M 79.999999,77.33343 C 79.999999,78.80621 78.806214,80 77.333429,80 L 10.666573,80 C 9.193787,80 8.0000012,78.80621 8.0000012,77.33343 L 8.0000012,10.666572 C 8.0000012,9.193786 9.193787,8 10.666573,8 L 77.333429,8 C 78.806214,8 79.999999,9.193786 79.999999,10.666572 L 79.999999,77.33343 z "
         id="path2885" />
      <path
         id="path30"
         d="M 79.999999,77.33343 C 79.999999,78.80621 78.806214,80 77.333429,80 L 10.666573,80 C 9.193787,80 8.0000012,78.80621 8.0000012,77.33343 L 8.0000012,10.666572 C 8.0000012,9.193786 9.193787,8 10.666573,8 L 77.333429,8 C 78.806214,8 79.999999,9.193786 79.999999,10.666572 L 79.999999,77.33343 z "
         style="fill:url(#linearGradient2286)" />
      <path
         style="fill:none;stroke:white;stroke-width:2.64285707;stroke-linecap:round;stroke-linejoin:round;stroke-miterlimit:4;stroke-dasharray:none;stroke-opacity:1"
         d="M 78.357146,75.81226 C 78.357146,77.21784 77.217824,78.35714 75.812255,78.35714 L 12.187738,78.35714 C 10.782164,78.35714 9.642857,77.21784 9.642857,75.81226 L 9.642857,12.187745 C 9.642857,10.782171 10.782164,9.642863 12.187738,9.642863 L 75.812255,9.642863 C 77.217824,9.642863 78.357146,10.782171 78.357146,12.187745 L 78.357146,75.81226 z "
         id="path13151" />
      <path
         id="path5699"
         d="M 43.381114,37.679838 C 45.656588,37.679873 47.381973,37.179762 48.557267,36.179505 C 49.732495,35.179317 50.320126,33.703991 50.32016,31.753517 C 50.320126,29.828128 49.732495,28.365304 48.557267,27.365036 C 47.381973,26.339853 45.656588,25.82724 43.381114,25.827193 L 35.39183,25.827193 L 35.39183,37.679838 L 43.381114,37.679838 M 43.868719,62.172807 C 46.769336,62.172817 48.944818,61.56018 50.395178,60.334897 C 51.870469,59.109636 52.608133,57.259224 52.608172,54.783657 C 52.608133,52.358135 51.882971,50.545233 50.432688,49.344943 C 48.982326,48.119694 46.794342,47.507058 43.868719,47.507033 L 35.39183,47.507033 L 35.39183,62.172807 L 43.868719,62.172807 M 57.296719,42.03081 C 60.397365,42.931041 62.797899,44.59391 64.498325,47.019424 C 66.198652,49.444988 67.048845,52.420648 67.048896,55.946417 C 67.048845,61.347632 65.223439,65.373526 61.572674,68.024112 C 57.921816,70.674707 52.370579,72 44.918955,72 L 20.951104,72 L 20.951104,16 L 42.630944,16 C 50.407643,16.000056 56.033893,17.175317 59.509715,19.525786 C 63.010441,21.876362 64.760835,25.639699 64.760884,30.815807 C 64.760835,33.541454 64.123194,35.866971 62.847956,37.792365 C 61.572625,39.692821 59.722216,41.105635 57.296719,42.03081"
         style="font-size:249.50708008px;font-style:normal;font-weight:normal;opacity:0.8;fill:none;fill-opacity:1;stroke:white;stroke-width:2;stroke-linecap:butt;stroke-linejoin:miter;stroke-miterlimit:4;stroke-dasharray:none;stroke-opacity:1;font-family:Bitstream Vera Sans" />
      <path
         style="font-size:249.50708008px;font-style:normal;font-weight:normal;opacity:0.8;fill:#323232;fill-opacity:1;stroke:none;stroke-width:1px;stroke-linecap:butt;stroke-linejoin:miter;stroke-opacity:1;font-family:Bitstream Vera Sans"
         d="M 43.381114,37.679838 C 45.656588,37.679873 47.381973,37.179762 48.557267,36.179505 C 49.732495,35.179317 50.320126,33.703991 50.32016,31.753517 C 50.320126,29.828128 49.732495,28.365304 48.557267,27.365036 C 47.381973,26.339853 45.656588,25.82724 43.381114,25.827193 L 35.39183,25.827193 L 35.39183,37.679838 L 43.381114,37.679838 M 43.868719,62.172807 C 46.769336,62.172817 48.944818,61.56018 50.395178,60.334897 C 51.870469,59.109636 52.608133,57.259224 52.608172,54.783657 C 52.608133,52.358135 51.882971,50.545233 50.432688,49.344943 C 48.982326,48.119694 46.794342,47.507058 43.868719,47.507033 L 35.39183,47.507033 L 35.39183,62.172807 L 43.868719,62.172807 M 57.296719,42.03081 C 60.397365,42.931041 62.797899,44.59391 64.498325,47.019424 C 66.198652,49.444988 67.048845,52.420648 67.048896,55.946417 C 67.048845,61.347632 65.223439,65.373526 61.572674,68.024112 C 57.921816,70.674707 52.370579,72 44.918955,72 L 20.951104,72 L 20.951104,16 L 42.630944,16 C 50.407643,16.000056 56.033893,17.175317 59.509715,19.525786 C 63.010441,21.876362 64.760835,25.639699 64.760884,30.815807 C 64.760835,33.541454 64.123194,35.866971 62.847956,37.792365 C 61.572625,39.692821 59.722216,41.105635 57.296719,42.03081"
         id="text1994" />
      <path
         id="path54"
         d="M 48.79443,9.285715 L 10.666573,9.285715 C 9.904787,9.285715 9.285716,9.904786 9.285716,10.666572 C 9.285716,10.666572 9.285716,31.812715 9.285716,32.948643 C 12.240287,35.50014 16.248501,37.6415 20.936859,39.28464 C 26.803572,30.371429 37.205644,16.405357 48.79443,9.285715 z "
         style="opacity:0.6;fill:url(#linearGradient2288)" />
      <path
         style="opacity:0.6;fill:url(#linearGradient2290);fill-opacity:1"
         id="path61"
         d="M 77.333429,9.285715 L 60.69693,9.285715 C 53.11443,13.984357 42.968858,23.530143 41.093001,42.87307 C 42.056644,42.90779 43.024787,42.929 44.000001,42.929 C 58.363358,42.929 71.57793,39.11171 78.714285,32.948643 C 78.714285,31.812715 78.714285,10.666572 78.714285,10.666572 C 78.714285,9.904786 78.094571,9.285715 77.333429,9.285715 z " />
    </g>
  </g>
</svg>
