<?xml version="1.0" encoding="UTF-8" standalone="no"?>
<!-- Generator: Adobe Illustrator 12.0.0, SVG Export Plug-In . SVG Version: 6.00 Build 51448)  -->
<svg
   xmlns:dc="http://purl.org/dc/elements/1.1/"
   xmlns:cc="http://web.resource.org/cc/"
   xmlns:rdf="http://www.w3.org/1999/02/22-rdf-syntax-ns#"
   xmlns:svg="http://www.w3.org/2000/svg"
   xmlns="http://www.w3.org/2000/svg"
   xmlns:xlink="http://www.w3.org/1999/xlink"
   xmlns:sodipodi="http://sodipodi.sourceforge.net/DTD/sodipodi-0.dtd"
   xmlns:inkscape="http://www.inkscape.org/namespaces/inkscape"
   version="1.0"
   id="Livello_1"
   width="88"
   height="88"
   viewBox="0 0 88 80"
   overflow="visible"
   enable-background="new 0 0 88 80"
   xml:space="preserve"
   sodipodi:version="0.32"
   inkscape:version="0.44"
   sodipodi:docname="xdays.svg"
   sodipodi:docbase="/home/david/Progetti/oxygen sandbox/calendar actions"><metadata
   id="metadata3796"><rdf:RDF><cc:Work
       rdf:about=""><dc:format>image/svg+xml</dc:format><dc:type
         rdf:resource="http://purl.org/dc/dcmitype/StillImage" /></cc:Work></rdf:RDF></metadata><defs
   id="defs3794"><linearGradient
     id="linearGradient3291"
     inkscape:collect="always"><stop
       id="stop3293"
       offset="0"
       style="stop-color:#000000;stop-opacity:1;" /><stop
       id="stop3295"
       offset="1"
       style="stop-color:#000000;stop-opacity:0;" /></linearGradient><radialGradient
     inkscape:collect="always"
     xlink:href="#linearGradient3291"
     id="radialGradient4418"
     gradientUnits="userSpaceOnUse"
     gradientTransform="matrix(1,0,0,0.197802,0,92.82166)"
     cx="63.912209"
     cy="115.70919"
     fx="63.912209"
     fy="115.7093"
     r="63.912209" /></defs><sodipodi:namedview
   inkscape:window-height="579"
   inkscape:window-width="849"
   inkscape:pageshadow="2"
   inkscape:pageopacity="0.0"
   guidetolerance="10.0"
   gridtolerance="10.0"
   objecttolerance="10.0"
   borderopacity="1.0"
   bordercolor="#666666"
   pagecolor="#ffffff"
   id="base"
   height="88px"
   inkscape:zoom="4.725"
   inkscape:cx="44"
   inkscape:cy="40"
   inkscape:window-x="-12"
   inkscape:window-y="115"
   inkscape:current-layer="g3798" />





<radialGradient
   id="XMLID_7_"
   cx="13.8359"
   cy="-21.810101"
   r="111.2527"
   gradientTransform="matrix(1,8e-4,-7e-4,0.8192,0.2714,21.433)"
   gradientUnits="userSpaceOnUse">
	<stop
   offset="0"
   style="stop-color:#FFFFFF"
   id="stop3634" />
	<stop
   offset="0.6627"
   style="stop-color:#FFFFFF"
   id="stop3636" />
	<stop
   offset="0.75"
   style="stop-color:#FBFBFB"
   id="stop3638" />
	<stop
   offset="0.8289"
   style="stop-color:#F0F0F0"
   id="stop3640" />
	<stop
   offset="0.9047"
   style="stop-color:#DEDEDE"
   id="stop3642" />
	<stop
   offset="0.978"
   style="stop-color:#C4C4C4"
   id="stop3644" />
	<stop
   offset="1"
   style="stop-color:#BBBBBB"
   id="stop3646" />
</radialGradient>

<linearGradient
   id="XMLID_8_"
   gradientUnits="userSpaceOnUse"
   x1="286"
   y1="24.2715"
   x2="286"
   y2="7.2715001"
   gradientTransform="matrix(-1,0,0,-1,330,27.4111)">
	<stop
   offset="0"
   style="stop-color:#008C00"
   id="stop3651" />
	<stop
   offset="0.574"
   style="stop-color:#72D13D"
   id="stop3653" />
</linearGradient>

<linearGradient
   id="XMLID_9_"
   gradientUnits="userSpaceOnUse"
   x1="68"
   y1="14"
   x2="68"
   y2="3">
	<stop
   offset="0"
   style="stop-color:#008C00"
   id="stop3658" />
	<stop
   offset="1"
   style="stop-color:#005333"
   id="stop3660" />
</linearGradient>

<linearGradient
   id="XMLID_10_"
   gradientUnits="userSpaceOnUse"
   x1="68"
   y1="0"
   x2="68"
   y2="12">
	<stop
   offset="0.1"
   style="stop-color:#666666"
   id="stop3665" />
	<stop
   offset="0.1241"
   style="stop-color:#858585"
   id="stop3667" />
	<stop
   offset="0.1581"
   style="stop-color:#AAAAAA"
   id="stop3669" />
	<stop
   offset="0.1938"
   style="stop-color:#C9C9C9"
   id="stop3671" />
	<stop
   offset="0.2309"
   style="stop-color:#E1E1E1"
   id="stop3673" />
	<stop
   offset="0.2703"
   style="stop-color:#F2F2F2"
   id="stop3675" />
	<stop
   offset="0.3133"
   style="stop-color:#FCFCFC"
   id="stop3677" />
	<stop
   offset="0.3669"
   style="stop-color:#FFFFFF"
   id="stop3679" />
	<stop
   offset="0.4614"
   style="stop-color:#FBFBFB"
   id="stop3681" />
	<stop
   offset="0.5648"
   style="stop-color:#EDEDED"
   id="stop3683" />
	<stop
   offset="0.6724"
   style="stop-color:#D8D8D8"
   id="stop3685" />
	<stop
   offset="0.7829"
   style="stop-color:#B9B9B9"
   id="stop3687" />
	<stop
   offset="0.8945"
   style="stop-color:#929292"
   id="stop3689" />
	<stop
   offset="1"
   style="stop-color:#666666"
   id="stop3691" />
</linearGradient>

<linearGradient
   id="XMLID_11_"
   gradientUnits="userSpaceOnUse"
   x1="22"
   y1="14"
   x2="22"
   y2="3">
	<stop
   offset="0"
   style="stop-color:#008C00"
   id="stop3696" />
	<stop
   offset="1"
   style="stop-color:#005333"
   id="stop3698" />
</linearGradient>

<linearGradient
   id="XMLID_12_"
   gradientUnits="userSpaceOnUse"
   x1="22"
   y1="0"
   x2="22"
   y2="12">
	<stop
   offset="0.1"
   style="stop-color:#666666"
   id="stop3703" />
	<stop
   offset="0.1241"
   style="stop-color:#858585"
   id="stop3705" />
	<stop
   offset="0.1581"
   style="stop-color:#AAAAAA"
   id="stop3707" />
	<stop
   offset="0.1938"
   style="stop-color:#C9C9C9"
   id="stop3709" />
	<stop
   offset="0.2309"
   style="stop-color:#E1E1E1"
   id="stop3711" />
	<stop
   offset="0.2703"
   style="stop-color:#F2F2F2"
   id="stop3713" />
	<stop
   offset="0.3133"
   style="stop-color:#FCFCFC"
   id="stop3715" />
	<stop
   offset="0.3669"
   style="stop-color:#FFFFFF"
   id="stop3717" />
	<stop
   offset="0.4614"
   style="stop-color:#FBFBFB"
   id="stop3719" />
	<stop
   offset="0.5648"
   style="stop-color:#EDEDED"
   id="stop3721" />
	<stop
   offset="0.6724"
   style="stop-color:#D8D8D8"
   id="stop3723" />
	<stop
   offset="0.7829"
   style="stop-color:#B9B9B9"
   id="stop3725" />
	<stop
   offset="0.8945"
   style="stop-color:#929292"
   id="stop3727" />
	<stop
   offset="1"
   style="stop-color:#666666"
   id="stop3729" />
</linearGradient>






























<g
   id="g3798"
   transform="translate(0,-4)"><polygon
     points="7.92,67.16 7.92,6 80.08,5.74 80.08,77.899 7.92,67.16 "
     id="_x3C_Sezione_x3E_"
     style="fill:none" /><path
     id="path3625"
     d="M 0.881,4.016 L 0.881,4.016 C 0.321,4.575 0,5.349 0,6.139 L 0,77 C 0,78.654 1.346,80 3,80 L 85,80 C 86.654,80 88,78.654 88,77 L 88,6.204 C 88,4.551 86.655,3.205 85.003,3.204 L 3.003,3.139 C 2.201,3.139 1.447,3.45 0.881,4.016 z "
     style="opacity:0.2;fill:#323232" /><path
     id="path3627"
     d="M 1.587,4.724 C 1.587,4.724 1.586,4.724 1.587,4.724 C 1.213,5.097 1,5.612 1,6.139 L 1,77 C 1,78.103 1.897,79 3,79 L 85,79 C 86.103,79 87,78.103 87,77 L 87,6.204 C 87,5.102 86.104,4.205 85.002,4.204 L 3.002,4.139 C 2.467,4.139 1.965,4.347 1.587,4.724 z "
     style="opacity:0.25;fill:#323232" /><path
     id="path3629"
     d="M 2.293,5.432 C 2.105,5.619 2,5.874 2,6.139 L 2,77 C 2,77.553 2.448,78 3,78 L 85,78 C 85.553,78 86,77.553 86,77 L 86,6.204 C 86,5.652 85.553,5.204 85.001,5.204 L 3.001,5.139 C 2.735,5.139 2.481,5.244 2.293,5.432 z "
     style="opacity:0.3;fill:#323232" /><polygon
     id="polygon3631"
     points="85,77 3,77 3,6.139 85,6.204 85,77 "
     style="opacity:0.35;fill:#323232" /><polygon
     id="polygon3648"
     points="85,76 3,76 3,5.139 85,5.204 85,76 "
     style="fill:url(#XMLID_7_)" /><rect
     id="rect3655"
     height="17"
     width="82"
     y="3"
     x="3"
     style="fill:url(#XMLID_8_)" /><rect
     id="rect3662"
     height="11"
     width="16"
     y="3"
     x="60"
     style="fill:url(#XMLID_9_)" /><rect
     id="rect3693"
     height="12"
     width="12"
     x="62"
     y="0"
     style="fill:url(#XMLID_10_)" /><rect
     id="rect3700"
     height="11"
     width="16"
     y="3"
     x="14"
     style="fill:url(#XMLID_11_)" /><rect
     id="rect3731"
     height="12"
     width="12"
     x="16"
     y="0"
     style="fill:url(#XMLID_12_)" /><rect
     id="rect3733"
     height="7.9990001"
     width="8"
     y="32"
     x="10"
     style="fill:#bbb" /><rect
     id="rect3735"
     height="7.9990001"
     width="8"
     y="32"
     x="20"
     style="fill:#bbb" /><rect
     id="rect3737"
     height="8"
     width="8"
     y="32"
     x="30"
     style="fill:#bbb" /><rect
     id="rect3739"
     height="8"
     width="8"
     y="32"
     x="40"
     style="fill:#bbb" /><rect
     id="rect3741"
     height="8"
     width="8"
     y="32"
     x="50"
     style="fill:#bbb" /><rect
     id="rect3743"
     height="8"
     width="8"
     y="32"
     x="60"
     style="fill:#bbb" /><rect
     id="rect3745"
     height="8"
     width="8"
     y="32"
     x="70"
     style="fill:#c3b4da" /><rect
     id="rect3747"
     height="8"
     width="8"
     y="22"
     x="50"
     style="fill:#bbb" /><rect
     id="rect3749"
     height="8"
     width="8"
     y="22"
     x="60"
     style="fill:#bbb" /><rect
     id="rect3751"
     height="8"
     width="8"
     y="22"
     x="70"
     style="fill:#c3b4da" /><rect
     id="rect3753"
     height="8"
     width="8"
     y="42"
     x="10"
     style="fill:#bbb" /><rect
     id="rect3755"
     height="8"
     width="8"
     y="42"
     x="20"
     style="fill:#bbb" /><rect
     id="rect3757"
     height="8"
     width="8"
     y="42"
     x="60"
     style="fill:#bbb" /><rect
     id="rect3759"
     height="8"
     width="8"
     y="42"
     x="70"
     style="fill:#c3b4da" /><rect
     id="rect3761"
     height="8"
     width="8"
     y="52"
     x="10"
     style="fill:#bbb" /><rect
     id="rect3763"
     height="8"
     width="8"
     y="52"
     x="20"
     style="fill:#bbb" /><rect
     id="rect3765"
     height="8"
     width="8"
     y="52"
     x="30"
     style="fill:#bbb" /><rect
     id="rect3767"
     height="8"
     width="8"
     y="52"
     x="40"
     style="fill:#bbb" /><rect
     id="rect3769"
     height="8"
     width="8"
     y="52"
     x="50"
     style="fill:#bbb" /><rect
     id="rect3771"
     height="8"
     width="8"
     y="52"
     x="60"
     style="fill:#bbb" /><rect
     id="rect3773"
     height="8"
     width="8"
     y="52"
     x="70"
     style="fill:#c3b4da" /><rect
     id="rect3775"
     height="8"
     width="8"
     y="62"
     x="10"
     style="fill:#bbb" /><rect
     id="rect3777"
     height="8"
     width="8"
     y="62"
     x="20"
     style="fill:#bbb" /><rect
     id="rect3779"
     height="8"
     width="8"
     y="62"
     x="30"
     style="fill:#bbb" /><rect
     id="rect3781"
     height="8"
     width="8"
     y="62"
     x="40"
     style="fill:#bbb" /><rect
     id="rect3783"
     height="8"
     width="8"
     y="62"
     x="50"
     style="fill:#bbb" /><rect
     id="rect3785"
     height="8"
     width="8"
     y="62"
     x="60"
     style="fill:#bbb" /><rect
     id="rect3787"
     height="12"
     width="12"
     y="40"
     x="38"
     style="fill:#e20800" /><rect
     id="rect3789"
     height="12"
     width="12"
     y="40"
     x="26"
     style="fill:#e20800" /><rect
     id="rect3791"
     height="12"
     width="12"
     y="40"
     x="50"
     style="fill:#e20800" /></g>
<path
   sodipodi:type="arc"
   style="opacity:0.38139535;fill:url(#radialGradient4418);fill-opacity:1;fill-rule:nonzero;stroke:none;stroke-width:0;stroke-linecap:round;stroke-linejoin:round;stroke-miterlimit:4;stroke-dasharray:none;stroke-dashoffset:4;stroke-opacity:1"
   id="path4416"
   sodipodi:cx="63.912209"
   sodipodi:cy="115.70919"
   sodipodi:rx="63.912209"
   sodipodi:ry="12.641975"
   d="M 127.82442 115.70919 A 63.912209 12.641975 0 1 1  0,115.70919 A 63.912209 12.641975 0 1 1  127.82442 115.70919 z"
   transform="matrix(0.688444,0,0,0.286851,2.34921e-5,47.18234)" /></svg>