/* XPM */
static char * testdeco1_src_xpm[] = {
"15 15 9 1",
" 	c None",
".	c #00FF00",
"+	c #000000",
"@	c #0000FF",
"#	c #C8C8C8",
"$	c #C8C8FF",
"%	c #FF0000",
"&	c #FFC8C8",
"*	c #FFFFFF",
"...............",
".++++@@@@@++++.",
".+###$$$$$###+.",
".+###$$$$$###+.",
".+###$$$$$###+.",
".%&&&*****&&&%.",
".%&&&*****&&&%.",
".%&&&*****&&&%.",
".%&&&*****&&&%.",
".%&&&*****&&&%.",
".+###$$$$$###+.",
".+###$$$$$###+.",
".+###$$$$$###+.",
".++++@@@@@++++.",
"..............."};
