<?xml version="1.0" encoding="UTF-8" standalone="no"?>
<!DOCTYPE svg PUBLIC "-//W3C//DTD SVG 20010904//EN"
"http://www.w3.org/TR/2001/REC-SVG-20010904/DTD/svg10.dtd">
<!-- Created with Inkscape (http://www.inkscape.org/) -->
<svg
   width="64pt"
   height="64pt"
   xmlns="http://www.w3.org/2000/svg"
   xmlns:cc="http://web.resource.org/cc/"
   xmlns:inkscape="http://www.inkscape.org/namespaces/inkscape"
   xmlns:sodipodi="http://sodipodi.sourceforge.net/DTD/sodipodi-0.dtd"
   xmlns:rdf="http://www.w3.org/1999/02/22-rdf-syntax-ns#"
   xmlns:dc="http://purl.org/dc/elements/1.1/"
   xmlns:xlink="http://www.w3.org/1999/xlink"
   id="svg9688"
   sodipodi:version="0.32"
   inkscape:version="0.40"
   sodipodi:docbase="/home/nuno/kdeplayground-artwork/oooicons/crystalsvg"
   sodipodi:docname="bar.svg"
   inkscape:export-filename="/home/nuno/kdeplayground-artwork/oooicons/crystalsvg/bar.png"
   inkscape:export-xdpi="36.000000"
   inkscape:export-ydpi="36.000000">
  <defs
     id="defs3">
    <radialGradient
       inkscape:collect="always"
       xlink:href="#light100to0"
       id="radialGradient8236"
       gradientUnits="userSpaceOnUse"
       gradientTransform="matrix(0.176423,6.781760e-2,-3.539704e-2,0.125083,16.10428,14.26374)"
       cx="73.590485"
       cy="92.944412"
       fx="73.590485"
       fy="92.944412"
       r="15.950002" />
    <linearGradient
       inkscape:collect="always"
       xlink:href="#light90to0"
       id="linearGradient8235"
       gradientUnits="userSpaceOnUse"
       gradientTransform="matrix(-6.573488e-2,-6.401328e-2,0.000000,0.285640,20.11070,26.62152)"
       x1="-73.640587"
       y1="20.897785"
       x2="-317.23688"
       y2="72.911858" />
    <linearGradient
       inkscape:collect="always"
       xlink:href="#light100to0"
       id="linearGradient8234"
       gradientUnits="userSpaceOnUse"
       gradientTransform="matrix(0.155893,-4.694012e-2,0.100152,9.730326e-2,20.11070,26.62152)"
       x1="86.407532"
       y1="22.407324"
       x2="-1.7970064"
       y2="160.39915" />
    <radialGradient
       inkscape:collect="always"
       xlink:href="#light90to0"
       id="radialGradient8233"
       gradientUnits="userSpaceOnUse"
       gradientTransform="matrix(0.671957,0.000000,0.000000,1.488190,0.352932,-0.358220)"
       cx="51.843815"
       cy="46.963280"
       fx="51.843815"
       fy="46.963280"
       r="9.0787382" />
    <linearGradient
       inkscape:collect="always"
       xlink:href="#greantodarkgrean"
       id="linearGradient8232"
       gradientUnits="userSpaceOnUse"
       gradientTransform="matrix(1.105929,-0.333000,0.710494,0.690284,-6.648762e-15,2.171873e-15)"
       x1="0.56392306"
       y1="41.308815"
       x2="6.3637152"
       y2="59.539635" />
    <linearGradient
       inkscape:collect="always"
       xlink:href="#greantodarkgrean"
       id="linearGradient8231"
       gradientUnits="userSpaceOnUse"
       gradientTransform="matrix(-6.573488e-2,-6.401328e-2,0.000000,0.285640,19.75676,26.89653)"
       x1="-209.20219"
       y1="-3.8670044"
       x2="-34.136318"
       y2="153.30157" />
    <linearGradient
       inkscape:collect="always"
       xlink:href="#greantodarkgrean"
       id="linearGradient8230"
       gradientUnits="userSpaceOnUse"
       gradientTransform="matrix(0.587811,-0.176354,0.000000,1.701227,-6.648762e-15,2.171873e-15)"
       x1="64.045090"
       y1="30.104532"
       x2="80.673409"
       y2="40.086037" />
    <radialGradient
       inkscape:collect="always"
       xlink:href="#light100to0"
       id="radialGradient8229"
       gradientUnits="userSpaceOnUse"
       gradientTransform="matrix(0.176423,6.781760e-2,-3.539704e-2,0.125083,23.98397,22.16367)"
       cx="73.590485"
       cy="92.944412"
       fx="73.590485"
       fy="92.944412"
       r="15.950002" />
    <radialGradient
       inkscape:collect="always"
       xlink:href="#light100to0"
       id="radialGradient8228"
       gradientUnits="userSpaceOnUse"
       gradientTransform="matrix(0.182793,-3.861092e-2,2.015279e-2,0.129600,20.12773,33.94836)"
       cx="73.590485"
       cy="92.944412"
       fx="73.590485"
       fy="92.944412"
       r="15.950002" />
    <linearGradient
       inkscape:collect="always"
       xlink:href="#greandarktobgrean"
       id="linearGradient8227"
       gradientUnits="userSpaceOnUse"
       gradientTransform="scale(0.674910,1.481680)"
       x1="9.6344643"
       y1="-6.5570440"
       x2="75.005417"
       y2="50.177002" />
    <linearGradient
       inkscape:collect="always"
       xlink:href="#orangetoblackorange"
       id="linearGradient7495"
       gradientUnits="userSpaceOnUse"
       gradientTransform="matrix(0.120270,0.000000,0.000000,0.243760,-4.498241,1.889946)"
       x1="68.339813"
       y1="19.376482"
       x2="373.73737"
       y2="545.38556" />
    <radialGradient
       inkscape:collect="always"
       xlink:href="#light100to0"
       id="radialGradient7494"
       gradientUnits="userSpaceOnUse"
       gradientTransform="matrix(0.208245,-4.060868e-2,2.295876e-2,0.136305,-4.478852,9.595877)"
       cx="73.590485"
       cy="92.944412"
       fx="73.590485"
       fy="92.944412"
       r="15.950002" />
    <radialGradient
       inkscape:collect="always"
       xlink:href="#light100to0"
       id="radialGradient7493"
       gradientUnits="userSpaceOnUse"
       gradientTransform="matrix(0.200988,7.132654e-2,-4.032554e-2,0.131555,-8.569214e-2,-2.798558)"
       cx="73.590485"
       cy="92.944412"
       fx="73.590485"
       fy="92.944412"
       r="15.950002" />
    <linearGradient
       inkscape:collect="always"
       xlink:href="#orangelesstoyelow"
       id="linearGradient7492"
       gradientUnits="userSpaceOnUse"
       gradientTransform="matrix(0.103083,-2.855146e-2,0.000000,0.275425,-4.363833,2.179177)"
       x1="360.00433"
       y1="252.70924"
       x2="-433.82645"
       y2="-205.53375" />
    <linearGradient
       inkscape:collect="always"
       xlink:href="#yelowtoorange"
       id="linearGradient7491"
       gradientUnits="userSpaceOnUse"
       gradientTransform="matrix(-7.488747e-2,-6.732539e-2,0.000000,0.300420,-4.901476,2.179177)"
       x1="-209.20219"
       y1="-3.8670044"
       x2="-34.136318"
       y2="153.30157" />
    <linearGradient
       inkscape:collect="always"
       xlink:href="#orangemoretoyelow"
       id="linearGradient7490"
       gradientUnits="userSpaceOnUse"
       gradientTransform="matrix(0.177599,-4.936878e-2,0.114097,0.102338,-4.632638,1.889946)"
       x1="-43.018650"
       y1="204.38098"
       x2="72.889603"
       y2="22.530577" />
    <radialGradient
       inkscape:collect="always"
       xlink:href="#light100to75to0"
       id="radialGradient7489"
       gradientUnits="userSpaceOnUse"
       gradientTransform="matrix(0.119744,0.000000,0.000000,0.244831,-4.498241,1.889946)"
       cx="139.34865"
       cy="247.67096"
       fx="139.34865"
       fy="247.67096"
       r="91.108429" />
    <linearGradient
       inkscape:collect="always"
       xlink:href="#light100to0"
       id="linearGradient7488"
       gradientUnits="userSpaceOnUse"
       gradientTransform="matrix(0.177599,-4.936884e-2,0.114097,0.102338,-4.498241,1.889946)"
       x1="86.407532"
       y1="22.407324"
       x2="-1.7970064"
       y2="160.39915" />
    <linearGradient
       inkscape:collect="always"
       xlink:href="#light90to0"
       id="linearGradient7487"
       gradientUnits="userSpaceOnUse"
       gradientTransform="matrix(-7.488747e-2,-6.732539e-2,0.000000,0.300420,-4.498241,1.889946)"
       x1="-73.640587"
       y1="20.897785"
       x2="-317.23688"
       y2="72.911858" />
    <radialGradient
       inkscape:collect="always"
       xlink:href="#light100to0"
       id="radialGradient7486"
       gradientUnits="userSpaceOnUse"
       gradientTransform="matrix(0.200988,7.132654e-2,-4.032554e-2,0.131555,-9.062501,-11.10724)"
       cx="73.590485"
       cy="92.944412"
       fx="73.590485"
       fy="92.944412"
       r="15.950002" />
    <radialGradient
       inkscape:collect="always"
       xlink:href="#light90to0"
       id="radialGradient9531"
       gradientTransform="matrix(1.244605,0.000000,0.000000,0.803468,3.048726,2.507520)"
       cx="48.435387"
       cy="59.281490"
       fx="48.435387"
       fy="59.281490"
       r="12.084675"
       gradientUnits="userSpaceOnUse" />
    <radialGradient
       inkscape:collect="always"
       xlink:href="#light100to0"
       id="radialGradient5013"
       gradientUnits="userSpaceOnUse"
       gradientTransform="matrix(0.176423,6.781760e-2,-3.539704e-2,0.125083,16.10428,14.26374)"
       cx="73.590485"
       cy="92.944412"
       fx="73.590485"
       fy="92.944412"
       r="15.950002" />
    <linearGradient
       inkscape:collect="always"
       xlink:href="#light90to0"
       id="linearGradient5012"
       gradientUnits="userSpaceOnUse"
       gradientTransform="matrix(-6.573488e-2,-6.401328e-2,0.000000,0.285640,20.11070,26.62152)"
       x1="-73.640587"
       y1="20.897785"
       x2="-317.23688"
       y2="72.911858" />
    <linearGradient
       inkscape:collect="always"
       xlink:href="#light100to0"
       id="linearGradient5011"
       gradientUnits="userSpaceOnUse"
       gradientTransform="matrix(0.155893,-4.694012e-2,0.100152,9.730326e-2,20.11070,26.62152)"
       x1="86.407532"
       y1="22.407324"
       x2="-1.7970064"
       y2="160.39915" />
    <linearGradient
       inkscape:collect="always"
       xlink:href="#greantodarkgrean"
       id="linearGradient5009"
       gradientUnits="userSpaceOnUse"
       gradientTransform="matrix(1.105929,-0.333000,0.710494,0.690284,3.552714e-15,-1.276757e-15)"
       x1="0.56392306"
       y1="41.308815"
       x2="6.3637152"
       y2="59.539635" />
    <linearGradient
       inkscape:collect="always"
       xlink:href="#greantodarkgrean"
       id="linearGradient5008"
       gradientUnits="userSpaceOnUse"
       gradientTransform="matrix(-6.573488e-2,-6.401328e-2,0.000000,0.285640,19.75676,26.89653)"
       x1="-209.20219"
       y1="-3.8670044"
       x2="-34.136318"
       y2="153.30157" />
    <linearGradient
       id="greantodarkgrean">
      <stop
         style="stop-color:#00ff01;stop-opacity:1.0000000;"
         offset="0.0000000"
         id="stop5123" />
      <stop
         style="stop-color:#15980f;stop-opacity:1.0000000;"
         offset="1.0000000"
         id="stop5124" />
    </linearGradient>
    <linearGradient
       inkscape:collect="always"
       xlink:href="#greantodarkgrean"
       id="linearGradient5007"
       gradientUnits="userSpaceOnUse"
       gradientTransform="matrix(0.587811,-0.176354,0.000000,1.701227,3.552714e-15,-1.276757e-15)"
       x1="64.045090"
       y1="30.104532"
       x2="80.673409"
       y2="40.086037" />
    <radialGradient
       inkscape:collect="always"
       xlink:href="#light100to0"
       id="radialGradient5006"
       gradientUnits="userSpaceOnUse"
       gradientTransform="matrix(0.176423,6.781760e-2,-3.539704e-2,0.125083,23.98397,22.16367)"
       cx="73.590485"
       cy="92.944412"
       fx="73.590485"
       fy="92.944412"
       r="15.950002" />
    <radialGradient
       inkscape:collect="always"
       xlink:href="#light100to0"
       id="radialGradient5005"
       gradientUnits="userSpaceOnUse"
       gradientTransform="matrix(0.182793,-3.861092e-2,2.015279e-2,0.129600,20.12773,33.94836)"
       cx="73.590485"
       cy="92.944412"
       fx="73.590485"
       fy="92.944412"
       r="15.950002" />
    <linearGradient
       id="greandarktobgrean">
      <stop
         style="stop-color:#00ad01;stop-opacity:1.0000000;"
         offset="0.0000000"
         id="stop4492" />
      <stop
         style="stop-color:#15720f;stop-opacity:1.0000000;"
         offset="1.0000000"
         id="stop4493" />
    </linearGradient>
    <linearGradient
       inkscape:collect="always"
       xlink:href="#greandarktobgrean"
       id="linearGradient5004"
       gradientUnits="userSpaceOnUse"
       gradientTransform="scale(0.674910,1.481680)"
       x1="9.6344643"
       y1="-6.5570440"
       x2="75.005417"
       y2="50.177002" />
    <radialGradient
       inkscape:collect="always"
       xlink:href="#light100to0"
       id="radialGradient5048"
       gradientUnits="userSpaceOnUse"
       gradientTransform="matrix(0.176423,6.781760e-2,-3.539704e-2,0.125083,15.73182,21.46397)"
       cx="73.590485"
       cy="92.944412"
       fx="73.590485"
       fy="92.944412"
       r="15.950002" />
    <linearGradient
       id="light90to0">
      <stop
         style="stop-color:#ffffff;stop-opacity:0.90833336;"
         offset="0.0000000"
         id="stop1890" />
      <stop
         style="stop-color:#ffffff;stop-opacity:0.0000000;"
         offset="1.0000000"
         id="stop1892" />
    </linearGradient>
    <linearGradient
       inkscape:collect="always"
       xlink:href="#light90to0"
       id="linearGradient5047"
       gradientUnits="userSpaceOnUse"
       gradientTransform="matrix(-6.573488e-2,-6.401328e-2,0.000000,0.285640,19.73824,33.82175)"
       x1="-73.640587"
       y1="20.897785"
       x2="-317.23688"
       y2="72.911858" />
    <linearGradient
       inkscape:collect="always"
       xlink:href="#light100to0"
       id="linearGradient5046"
       gradientUnits="userSpaceOnUse"
       gradientTransform="matrix(0.155893,-4.694012e-2,0.100152,9.730326e-2,19.73824,33.82175)"
       x1="86.407532"
       y1="22.407324"
       x2="-1.7970064"
       y2="160.39915" />
    <linearGradient
       id="light100to75to0">
      <stop
         style="stop-color:#ffffff;stop-opacity:1.0000000;"
         offset="0.0000000"
         id="stop2779" />
      <stop
         style="stop-color:#ffffff;stop-opacity:0.77499998;"
         offset="0.50000000"
         id="stop2782" />
      <stop
         style="stop-color:#ffffff;stop-opacity:0.0000000;"
         offset="1.0000000"
         id="stop2780" />
    </linearGradient>
    <radialGradient
       inkscape:collect="always"
       xlink:href="#light100to75to0"
       id="radialGradient5045"
       gradientUnits="userSpaceOnUse"
       gradientTransform="matrix(0.105109,0.000000,0.000000,0.232786,19.73824,33.82175)"
       cx="139.34865"
       cy="247.67096"
       fx="139.34865"
       fy="247.67096"
       r="91.108429" />
    <linearGradient
       id="orangemoretoyelow">
      <stop
         style="stop-color:#ff7d00;stop-opacity:1.0000000;"
         offset="0.0000000"
         id="stop2671" />
      <stop
         style="stop-color:#ffbe00;stop-opacity:1.0000000;"
         offset="0.74641621"
         id="stop2679" />
      <stop
         style="stop-color:#ffff00;stop-opacity:1.0000000;"
         offset="1.0000000"
         id="stop2672" />
    </linearGradient>
    <linearGradient
       inkscape:collect="always"
       xlink:href="#orangemoretoyelow"
       id="linearGradient5044"
       gradientUnits="userSpaceOnUse"
       gradientTransform="matrix(0.155893,-4.694006e-2,0.100152,9.730326e-2,19.62027,33.82175)"
       x1="-43.018650"
       y1="204.38098"
       x2="72.889603"
       y2="22.530577" />
    <linearGradient
       id="yelowtoorange">
      <stop
         style="stop-color:#ffff00;stop-opacity:1.0000000;"
         offset="0.0000000"
         id="stop3105" />
      <stop
         style="stop-color:#ff8c00;stop-opacity:1.0000000;"
         offset="1.0000000"
         id="stop3107" />
    </linearGradient>
    <linearGradient
       inkscape:collect="always"
       xlink:href="#yelowtoorange"
       id="linearGradient5043"
       gradientUnits="userSpaceOnUse"
       gradientTransform="matrix(-6.573488e-2,-6.401328e-2,0.000000,0.285640,19.38430,34.09675)"
       x1="-209.20219"
       y1="-3.8670044"
       x2="-34.136318"
       y2="153.30157" />
    <linearGradient
       id="orangelesstoyelow">
      <stop
         style="stop-color:#ff7d00;stop-opacity:1.0000000;"
         offset="0.0000000"
         id="stop2689" />
      <stop
         style="stop-color:#ffbe00;stop-opacity:1.0000000;"
         offset="0.25358382"
         id="stop2690" />
      <stop
         style="stop-color:#ffff00;stop-opacity:1.0000000;"
         offset="1.0000000"
         id="stop2691" />
    </linearGradient>
    <linearGradient
       inkscape:collect="always"
       xlink:href="#orangelesstoyelow"
       id="linearGradient5042"
       gradientUnits="userSpaceOnUse"
       gradientTransform="matrix(9.048401e-2,-2.714685e-2,0.000000,0.261876,19.85622,34.09675)"
       x1="360.00433"
       y1="252.70924"
       x2="-433.82645"
       y2="-205.53375" />
    <radialGradient
       inkscape:collect="always"
       xlink:href="#light100to0"
       id="radialGradient5041"
       gradientUnits="userSpaceOnUse"
       gradientTransform="matrix(0.176423,6.781760e-2,-3.539704e-2,0.125083,23.61150,29.36389)"
       cx="73.590485"
       cy="92.944412"
       fx="73.590485"
       fy="92.944412"
       r="15.950002" />
    <linearGradient
       id="light100to0">
      <stop
         style="stop-color:#ffffff;stop-opacity:1.0000000;"
         offset="0.0000000"
         id="stop2764" />
      <stop
         style="stop-color:#ffffff;stop-opacity:0.0000000;"
         offset="1.0000000"
         id="stop2765" />
    </linearGradient>
    <radialGradient
       inkscape:collect="always"
       xlink:href="#light100to0"
       id="radialGradient5040"
       gradientUnits="userSpaceOnUse"
       gradientTransform="matrix(0.182793,-3.861092e-2,2.015279e-2,0.129600,19.75526,41.14858)"
       cx="73.590485"
       cy="92.944412"
       fx="73.590485"
       fy="92.944412"
       r="15.950002" />
    <linearGradient
       id="orangetoblackorange">
      <stop
         style="stop-color:#ff8b00;stop-opacity:1.0000000;"
         offset="0.0000000"
         id="stop4207" />
      <stop
         style="stop-color:#4d0200;stop-opacity:1.0000000;"
         offset="1.0000000"
         id="stop4209" />
    </linearGradient>
    <linearGradient
       inkscape:collect="always"
       xlink:href="#orangetoblackorange"
       id="linearGradient5039"
       gradientUnits="userSpaceOnUse"
       gradientTransform="matrix(0.105571,0.000000,0.000000,0.231768,19.73824,33.82175)"
       x1="68.339813"
       y1="19.376482"
       x2="373.73737"
       y2="545.38556" />
  </defs>
  <sodipodi:namedview
     id="base"
     pagecolor="#ffffff"
     bordercolor="#666666"
     borderopacity="1.0"
     inkscape:pageopacity="0.0"
     inkscape:pageshadow="2"
     inkscape:zoom="5.5000000"
     inkscape:cx="32.000000"
     inkscape:cy="32.000000"
     inkscape:current-layer="layer1"
     showgrid="true"
     inkscape:grid-bbox="true"
     gridspacingy="1.0000000pt"
     gridspacingx="1.0000000pt"
     gridoriginy="0.0000000pt"
     gridoriginx="0.0000000pt"
     inkscape:window-width="640"
     inkscape:window-height="538"
     inkscape:window-x="638"
     inkscape:window-y="393" />
  <metadata
     id="metadata4">
    <rdf:RDF
       id="RDF5">
      <cc:Work
         rdf:about=""
         id="Work6">
        <dc:format
           id="format7">image/svg+xml</dc:format>
        <dc:type
           id="type9"
           rdf:resource="http://purl.org/dc/dcmitype/StillImage" />
      </cc:Work>
    </rdf:RDF>
  </metadata>
  <g
     id="layer1"
     inkscape:label="Layer 1"
     inkscape:groupmode="layer">
    <g
       id="g8202"
       transform="matrix(1.139235,0.000000,0.000000,1.051740,7.199651,-24.75401)">
      <path
         style="fill:url(#linearGradient8227);fill-opacity:1.0000000;fill-rule:evenodd;stroke:none;stroke-width:40.812500;stroke-linecap:butt;stroke-linejoin:round;stroke-miterlimit:4.0000000;stroke-opacity:1.0000000"
         d="M 40.364019,24.934788 C 40.149041,24.937554 39.934967,24.967635 39.725587,25.024498 L 26.720718,28.804436 C 25.380424,29.173232 24.436005,30.571546 24.443192,32.176567 L 24.394171,59.295258 C 24.400044,60.314829 24.985634,61.952687 25.659945,62.602239 L 33.852921,70.686003 C 34.582866,71.389081 35.557570,71.642181 36.474567,71.366762 L 49.302062,67.424687 C 50.604204,67.033368 51.515825,65.667319 51.520726,64.100055 L 51.638451,36.270233 C 51.641397,35.231409 51.242143,34.246461 50.551759,33.589408 L 42.279314,25.710536 C 41.739280,25.196952 41.060943,24.922203 40.364019,24.934788 z "
         id="path7547"
         sodipodi:nodetypes="cccccccccccccc" />
      <path
         style="fill:url(#radialGradient8228);fill-opacity:1.0000000;fill-rule:evenodd;stroke:none;stroke-width:0.25000000pt;stroke-linecap:butt;stroke-linejoin:miter;stroke-opacity:1.0000000"
         d="M 31.912791,39.738101 L 45.220177,34.708898 L 37.033363,50.450998 L 32.469901,43.758727 L 31.912791,39.738101 z "
         id="path7548" />
      <path
         style="fill:url(#radialGradient8229);fill-opacity:1.0000000;fill-rule:evenodd;stroke:none;stroke-width:0.25000000pt;stroke-linecap:butt;stroke-linejoin:miter;stroke-opacity:1.0000000"
         d="M 31.965996,33.810001 L 45.718576,36.798121 L 32.075321,46.072415 L 30.808022,37.652604 L 31.965996,33.810001 z "
         id="path7549" />
      <path
         style="fill:url(#linearGradient8230);fill-opacity:1.0000000;stroke:none;stroke-width:1.2702115;stroke-linecap:butt;stroke-linejoin:round;stroke-miterlimit:4.0000000;stroke-dashoffset:0.0000000;stroke-opacity:0.051948015"
         d="M 39.086478,38.907023 L 47.757823,36.305467 C 49.622198,35.746120 51.123121,37.167208 51.123121,39.491764 L 51.123121,62.180102 C 51.123121,64.504667 49.622198,66.826361 47.757823,67.385708 L 39.086478,69.987273 C 37.222103,70.546620 35.721181,69.125522 35.721181,66.800966 L 35.721181,44.112628 C 35.721181,41.788073 37.222103,39.466370 39.086478,38.907023 z "
         id="path7550"
         sodipodi:nodetypes="ccccccccc" />
      <path
         style="fill:url(#linearGradient8231);fill-opacity:1.0000000;stroke:none;stroke-width:1.1684631;stroke-linecap:butt;stroke-linejoin:round;stroke-miterlimit:4.0000000;stroke-dashoffset:0.0000000;stroke-opacity:0.051948015"
         d="M 32.655955,37.826551 L 27.574579,32.878267 C 26.121367,31.463107 24.951453,32.337551 24.951453,34.838897 L 24.951453,56.995968 C 24.951453,59.497314 26.121367,62.650309 27.574579,64.065459 L 32.655955,69.013753 C 34.109167,70.428903 35.279082,69.554459 35.279082,67.053113 L 35.279082,44.896042 C 35.279082,42.394696 34.109167,39.241701 32.655955,37.826551 z "
         id="path7551"
         sodipodi:nodetypes="ccccccccc" />
      <path
         style="fill:url(#linearGradient8232);fill-opacity:1.0000000;stroke:none;stroke-width:1.0541998;stroke-linecap:butt;stroke-linejoin:round;stroke-miterlimit:4.0000000;stroke-dashoffset:0.0000000;stroke-opacity:0.051948015"
         d="M 28.647911,28.874176 L 37.143532,26.316121 C 39.188445,25.700396 41.764760,26.108288 42.920023,27.230689 L 48.927716,33.067488 C 50.082979,34.189879 49.366761,35.589173 47.321848,36.204898 L 38.826226,38.762953 C 36.781314,39.378688 34.204999,38.970785 33.049736,37.848394 L 27.042043,32.011596 C 25.886780,30.889195 26.602998,29.489910 28.647911,28.874176 z "
         id="path7552" />
      <path
         style="fill:url(#radialGradient8233);fill-opacity:1.0000000;fill-rule:evenodd;stroke:none;stroke-width:40.812500;stroke-linecap:butt;stroke-linejoin:round;stroke-miterlimit:4.0000000;stroke-opacity:1.0000000"
         d="M 24.491401,40.098974 L 24.752618,58.645578 C 24.758491,59.665149 25.344081,61.303007 26.018392,61.952559 L 34.211368,70.036323 C 34.941313,70.739401 35.916017,70.992501 36.833014,70.717082 L 49.660509,66.775007 C 50.962651,66.383688 51.874272,65.017639 51.879173,63.450375 L 51.579709,38.631132 C 51.582655,37.592318 24.484215,38.493953 24.491401,40.098974 z "
         id="path7553"
         sodipodi:nodetypes="ccccccccc" />
      <path
         style="fill:url(#linearGradient8234);fill-opacity:1.0000000;stroke:none;stroke-width:1.0541998;stroke-linecap:butt;stroke-linejoin:round;stroke-miterlimit:4.0000000;stroke-dashoffset:0.0000000;stroke-opacity:0.051948015"
         d="M 27.202906,29.098728 L 38.203182,25.867017 C 40.248094,25.251292 41.186751,25.210081 42.342014,26.332481 L 49.505706,33.067478 C 50.660969,34.189879 50.619083,34.803246 48.574168,35.418971 C 40.666555,30.734325 36.995148,36.630820 30.763758,35.539752 C 30.325637,35.463045 29.217841,34.450742 27.042035,32.011586 C 25.886771,30.889195 25.157994,29.714453 27.202906,29.098728 z "
         id="path7554" />
      <path
         style="fill:url(#linearGradient8235);fill-opacity:1.0000000;stroke:none;stroke-width:1.1684631;stroke-linecap:butt;stroke-linejoin:round;stroke-miterlimit:4.0000000;stroke-dashoffset:0.0000000;stroke-opacity:0.051948015"
         d="M 30.536631,35.581051 L 27.670911,32.541434 C 25.130791,29.895697 24.765125,32.011809 24.765125,34.513156 L 24.951453,59.241958 C 28.708434,54.429776 31.263238,36.288631 30.536631,35.581051 z "
         id="path7555"
         sodipodi:nodetypes="ccccc" />
      <path
         style="fill:none;fill-opacity:0.75000000;fill-rule:evenodd;stroke:#ffffff;stroke-width:0.61591429;stroke-linecap:butt;stroke-linejoin:miter;stroke-miterlimit:4.0000000;stroke-opacity:0.21212120"
         d="M 26.414763,31.476983 C 28.678896,33.593600 30.906405,35.861186 33.060430,38.154728 C 33.421821,38.539526 33.284573,38.083358 32.920686,37.738500 C 30.763982,35.694574 28.658087,33.562238 26.554509,31.440789 C 26.391109,31.276002 26.220414,31.295292 26.414763,31.476983 z "
         id="path7556" />
      <path
         style="fill:none;fill-opacity:0.75000000;fill-rule:evenodd;stroke:#ffffff;stroke-width:0.51815015;stroke-linecap:butt;stroke-linejoin:miter;stroke-miterlimit:4.0000000;stroke-opacity:0.21212120"
         d="M 26.414763,31.476983 C 28.678896,33.593600 30.906405,35.861186 33.060430,38.154728 C 33.421821,38.539526 33.284573,38.083358 32.920686,37.738500 C 30.763982,35.694574 28.658087,33.562238 26.554509,31.440789 C 26.391109,31.276002 26.220414,31.295292 26.414763,31.476983 z "
         id="path7557" />
      <path
         style="fill:none;fill-opacity:0.75000000;fill-rule:evenodd;stroke:#ffffff;stroke-width:0.38128030;stroke-linecap:butt;stroke-linejoin:miter;stroke-miterlimit:4.0000000;stroke-opacity:0.21212120"
         d="M 26.414763,31.476983 C 28.678896,33.593600 30.906405,35.861186 33.060430,38.154728 C 33.421821,38.539526 33.284573,38.083358 32.920686,37.738500 C 30.763982,35.694574 28.658087,33.562238 26.554509,31.440789 C 26.391109,31.276002 26.220414,31.295292 26.414763,31.476983 z "
         id="path7558" />
      <path
         style="fill:none;fill-opacity:0.75000000;fill-rule:evenodd;stroke:#ffffff;stroke-width:0.20530477;stroke-linecap:butt;stroke-linejoin:miter;stroke-miterlimit:4.0000000;stroke-opacity:0.21212120"
         d="M 26.414763,31.476983 C 28.678896,33.593600 30.906405,35.861186 33.060430,38.154728 C 33.421821,38.539526 33.284573,38.083358 32.920686,37.738500 C 30.763982,35.694574 28.658087,33.562238 26.554509,31.440789 C 26.391109,31.276002 26.220414,31.295292 26.414763,31.476983 z "
         id="path7559" />
      <path
         style="fill:none;fill-opacity:0.75000000;fill-rule:evenodd;stroke:#ffffff;stroke-width:0.12709343;stroke-linecap:butt;stroke-linejoin:miter;stroke-miterlimit:4.0000000;stroke-opacity:0.21212120"
         d="M 26.414763,31.476983 C 28.678896,33.593600 30.906405,35.861186 33.060430,38.154728 C 33.421821,38.539526 33.284573,38.083358 32.920686,37.738500 C 30.763982,35.694574 28.658087,33.562238 26.554509,31.440789 C 26.391109,31.276002 26.220414,31.295292 26.414763,31.476983 z "
         id="path7560" />
      <path
         style="fill:none;fill-opacity:0.75000000;fill-rule:evenodd;stroke:#ffffff;stroke-width:0.0097764172;stroke-linecap:butt;stroke-linejoin:miter;stroke-miterlimit:4.0000000;stroke-opacity:0.21212120"
         d="M 26.414763,31.476983 C 28.678896,33.593600 30.906405,35.861186 33.060430,38.154728 C 33.421821,38.539526 33.284573,38.083358 32.920686,37.738500 C 30.763982,35.694574 28.658087,33.562238 26.554509,31.440789 C 26.391109,31.276002 26.220414,31.295292 26.414763,31.476983 z "
         id="path7561" />
      <path
         style="fill:none;fill-opacity:0.75000000;fill-rule:evenodd;stroke:#ffffff;stroke-width:0.45949164;stroke-linecap:butt;stroke-linejoin:miter;stroke-miterlimit:4.0000000;stroke-opacity:0.21212120"
         d="M 26.414763,31.476983 C 28.678896,33.593600 30.906405,35.861186 33.060430,38.154728 C 33.421821,38.539526 33.284573,38.083358 32.920686,37.738500 C 30.763982,35.694574 28.658087,33.562238 26.554509,31.440789 C 26.391109,31.276002 26.220414,31.295292 26.414763,31.476983 z "
         id="path7562" />
      <path
         style="fill:none;fill-opacity:0.75000000;fill-rule:evenodd;stroke:#ffffff;stroke-width:0.37331107;stroke-linecap:butt;stroke-linejoin:miter;stroke-miterlimit:4.0000000;stroke-opacity:0.21212120"
         d="M 35.373408,43.947125 C 35.436468,51.388682 35.483314,59.360346 35.520358,67.422893 C 35.526570,68.775584 35.549638,67.173021 35.539885,65.960583 C 35.482095,58.774687 35.436863,51.278469 35.390983,43.820491 C 35.387419,43.241177 35.367995,43.308351 35.373408,43.947125 z "
         id="path7563" />
      <path
         style="fill:none;fill-opacity:0.75000000;fill-rule:evenodd;stroke:#ffffff;stroke-width:0.31405535;stroke-linecap:butt;stroke-linejoin:miter;stroke-miterlimit:4.0000000;stroke-opacity:0.21212120"
         d="M 35.373408,43.947125 C 35.436468,51.388682 35.483314,59.360346 35.520358,67.422893 C 35.526570,68.775584 35.549638,67.173021 35.539885,65.960583 C 35.482095,58.774687 35.436863,51.278469 35.390983,43.820491 C 35.387419,43.241177 35.367995,43.308351 35.373408,43.947125 z "
         id="path7564" />
      <path
         style="fill:none;fill-opacity:0.75000000;fill-rule:evenodd;stroke:#ffffff;stroke-width:0.23109734;stroke-linecap:butt;stroke-linejoin:miter;stroke-miterlimit:4.0000000;stroke-opacity:0.21212120"
         d="M 35.373408,43.947125 C 35.436468,51.388682 35.483314,59.360346 35.520358,67.422893 C 35.526570,68.775584 35.549638,67.173021 35.539885,65.960583 C 35.482095,58.774687 35.436863,51.278469 35.390983,43.820491 C 35.387419,43.241177 35.367995,43.308351 35.373408,43.947125 z "
         id="path7565" />
      <path
         style="fill:none;fill-opacity:0.75000000;fill-rule:evenodd;stroke:#ffffff;stroke-width:0.12443703;stroke-linecap:butt;stroke-linejoin:miter;stroke-miterlimit:4.0000000;stroke-opacity:0.21212120"
         d="M 35.373408,43.947125 C 35.436468,51.388682 35.483314,59.360346 35.520358,67.422893 C 35.526570,68.775584 35.549638,67.173021 35.539885,65.960583 C 35.482095,58.774687 35.436863,51.278469 35.390983,43.820491 C 35.387419,43.241177 35.367995,43.308351 35.373408,43.947125 z "
         id="path7566" />
      <path
         style="fill:none;fill-opacity:0.75000000;fill-rule:evenodd;stroke:#ffffff;stroke-width:0.077032439;stroke-linecap:butt;stroke-linejoin:miter;stroke-miterlimit:4.0000000;stroke-opacity:0.21212120"
         d="M 35.373408,43.947125 C 35.436468,51.388682 35.483314,59.360346 35.520358,67.422893 C 35.526570,68.775584 35.549638,67.173021 35.539885,65.960583 C 35.482095,58.774687 35.436863,51.278469 35.390983,43.820491 C 35.387419,43.241177 35.367995,43.308351 35.373408,43.947125 z "
         id="path7567" />
      <path
         style="fill:none;fill-opacity:0.75000000;fill-rule:evenodd;stroke:#ffffff;stroke-width:0.0059255729;stroke-linecap:butt;stroke-linejoin:miter;stroke-miterlimit:4.0000000;stroke-opacity:0.21212120"
         d="M 35.373408,43.947125 C 35.436468,51.388682 35.483314,59.360346 35.520358,67.422893 C 35.526570,68.775584 35.549638,67.173021 35.539885,65.960583 C 35.482095,58.774687 35.436863,51.278469 35.390983,43.820491 C 35.387419,43.241177 35.367995,43.308351 35.373408,43.947125 z "
         id="path7568" />
      <path
         style="fill:none;fill-opacity:0.75000000;fill-rule:evenodd;stroke:#ffffff;stroke-width:0.27850196;stroke-linecap:butt;stroke-linejoin:miter;stroke-miterlimit:4.0000000;stroke-opacity:0.21212120"
         d="M 35.373408,43.947125 C 35.436468,51.388682 35.483314,59.360346 35.520358,67.422893 C 35.526570,68.775584 35.549638,67.173021 35.539885,65.960583 C 35.482095,58.774687 35.436863,51.278469 35.390983,43.820491 C 35.387419,43.241177 35.367995,43.308351 35.373408,43.947125 z "
         id="path7569" />
      <path
         style="fill:url(#radialGradient8236);fill-opacity:1.0000000;fill-rule:evenodd;stroke:none;stroke-width:0.25000000pt;stroke-linecap:butt;stroke-linejoin:miter;stroke-opacity:1.0000000"
         d="M 25.272493,29.366276 L 32.924667,26.725663 L 24.195628,38.172447 L 24.368703,31.431386 L 25.272493,29.366276 z "
         id="path7570" />
    </g>
    <path
       style="fill:url(#linearGradient7495);fill-opacity:1.0000000;fill-rule:evenodd;stroke:none;stroke-width:40.812500;stroke-linecap:butt;stroke-linejoin:round;stroke-miterlimit:4.0000000;stroke-opacity:1.0000000"
       d="M 18.575041,0.11593303 C 18.330130,0.11884295 18.086250,0.15047963 17.847717,0.21028528 L 3.0321163,4.1858005 C 1.5052068,4.5736788 0.42929232,6.0443428 0.43747912,7.7324085 L 0.38163360,50.764893 C 0.38832468,51.837220 1.0554480,53.559827 1.8236467,54.242983 L 11.157371,62.745006 C 11.988949,63.484468 13.099366,63.750656 14.144041,63.460987 L 28.757572,59.314947 C 30.241017,58.903384 31.279568,57.466650 31.285151,55.818303 L 31.419268,12.037884 C 31.422624,10.945310 30.967780,9.9094009 30.181270,9.2183509 L 20.757012,0.93181880 C 20.141787,0.39166154 19.369002,0.10269739 18.575041,0.11593303 z "
       id="path4797" />
    <path
       style="fill:url(#radialGradient7494);fill-opacity:1.0000000;fill-rule:evenodd;stroke:none;stroke-width:0.25000000pt;stroke-linecap:butt;stroke-linejoin:miter;stroke-opacity:1.0000000"
       d="M 8.9471068,15.685184 L 24.107346,10.395764 L 14.780642,26.952372 L 9.5817860,19.913841 L 8.9471068,15.685184 z "
       id="path7368" />
    <path
       style="fill:url(#radialGradient7493);fill-opacity:1.0000000;fill-rule:evenodd;stroke:none;stroke-width:0.25000000pt;stroke-linecap:butt;stroke-linejoin:miter;stroke-opacity:1.0000000"
       d="M 9.0077197,9.4503583 L 24.675140,12.593086 L 9.1322672,22.347237 L 7.6885150,13.491781 L 9.0077197,9.4503583 z "
       id="path7353" />
    <path
       style="fill:url(#linearGradient7492);fill-opacity:1.0000000;stroke:none;stroke-width:1.2702115;stroke-linecap:butt;stroke-linejoin:round;stroke-miterlimit:4.0000000;stroke-dashoffset:0.0000000;stroke-opacity:0.051948015"
       d="M 17.119622,14.811105 L 26.998321,12.074942 C 29.122282,11.486653 30.832186,12.981269 30.832186,15.426101 L 30.832186,53.799003 C 30.832186,56.243840 29.122282,58.685664 26.998321,59.273950 L 17.119622,62.010125 C 14.995661,62.598411 13.285758,61.103784 13.285758,58.658957 L 13.285758,20.286055 C 13.285758,17.841223 14.995661,15.399394 17.119622,14.811105 z "
       id="rect1641" />
    <path
       style="fill:url(#linearGradient7491);fill-opacity:1.0000000;stroke:none;stroke-width:1.1684631;stroke-linecap:butt;stroke-linejoin:round;stroke-miterlimit:4.0000000;stroke-dashoffset:0.0000000;stroke-opacity:0.051948015"
       d="M 9.7937454,13.674727 L 4.0048658,8.4704153 C 2.3493156,6.9820332 1.0165072,7.9017217 1.0165072,10.532489 L 1.0165072,48.234153 C 1.0165072,50.864924 2.3493156,54.181059 4.0048658,55.669427 L 9.7937454,60.873748 C 11.449295,62.362126 12.782104,61.442430 12.782104,58.811669 L 12.782104,21.110005 C 12.782104,18.479234 11.449295,15.163099 9.7937454,13.674727 z "
       id="rect2271" />
    <path
       style="fill:url(#linearGradient7490);fill-opacity:1.0000000;stroke:none;stroke-width:1.0541998;stroke-linecap:butt;stroke-linejoin:round;stroke-miterlimit:4.0000000;stroke-dashoffset:0.0000000;stroke-opacity:0.051948015"
       d="M 5.2276419,4.2591492 L 14.906149,1.5687375 C 17.235786,0.92115416 20.170815,1.3501510 21.486930,2.5306264 L 28.331103,8.6694262 C 29.647220,9.8498915 28.831279,11.321585 26.501643,11.969168 L 16.823133,14.659581 C 14.493499,15.307175 11.558471,14.878166 10.242354,13.697700 L 3.3981812,7.5589020 C 2.0820657,6.3784266 2.8980068,4.9067417 5.2276419,4.2591492 z "
       id="rect2900" />
    <path
       style="fill:url(#radialGradient7489);fill-opacity:1.0000000;fill-rule:evenodd;stroke:none;stroke-width:40.812500;stroke-linecap:butt;stroke-linejoin:round;stroke-miterlimit:4.0000000;stroke-opacity:1.0000000"
       d="M 0.32773241,34.183300 L 0.38163360,50.764893 C 0.38832468,51.837220 1.0554480,53.559827 1.8236467,54.242983 L 11.157371,62.745006 C 11.988949,63.484468 13.099366,63.750656 14.144041,63.460987 L 28.757572,59.314947 C 30.241017,58.903384 31.279568,57.466650 31.285151,55.818303 L 31.309522,38.488769 C 31.312878,37.396198 0.31954561,32.495237 0.32773241,34.183300 z "
       id="path6082" />
    <path
       style="fill:url(#linearGradient7488);fill-opacity:1.0000000;stroke:none;stroke-width:1.0541998;stroke-linecap:butt;stroke-linejoin:round;stroke-miterlimit:4.0000000;stroke-dashoffset:0.0000000;stroke-opacity:0.051948015"
       d="M 3.5814418,4.4953194 L 16.113340,1.0963971 C 18.442975,0.44881375 19.512327,0.40547020 20.828442,1.5859446 L 28.989571,8.6694160 C 30.305686,9.8498915 30.257969,10.494994 27.928330,11.142577 C 18.919700,6.2155440 14.737105,12.417128 7.6380886,11.269607 C 7.1389657,11.188932 5.8769252,10.124251 3.3981714,7.5588918 C 2.0820559,6.3784266 1.2518072,5.1429027 3.5814418,4.4953194 z "
       id="rect6095" />
    <path
       style="fill:url(#linearGradient7487);fill-opacity:1.0000000;stroke:none;stroke-width:1.1684631;stroke-linecap:butt;stroke-linejoin:round;stroke-miterlimit:4.0000000;stroke-dashoffset:0.0000000;stroke-opacity:0.051948015"
       d="M 7.3793372,11.313044 L 4.1146104,8.1161544 C 1.2208164,5.3335248 0.80423709,7.5591259 0.80423709,10.189894 L 1.0165072,48.234153 C 5.2965915,43.172988 8.2071138,12.057234 7.3793372,11.313044 z "
       id="path6720" />
    <path
       style="fill:none;fill-opacity:0.75000000;fill-rule:evenodd;stroke:#ffffff;stroke-width:0.67418849;stroke-linecap:butt;stroke-linejoin:miter;stroke-miterlimit:4.0000000;stroke-opacity:0.21212120"
       d="M 2.6835621,6.9966277 C 5.2629406,9.2227601 7.8005971,11.607673 10.254537,14.019886 C 10.666247,14.424594 10.509888,13.944823 10.095336,13.582121 C 7.6383439,11.432440 5.2392339,9.1897758 2.8427663,6.9585605 C 2.6566143,6.7852473 2.4621526,6.8055354 2.6835621,6.9966277 z "
       id="path6723" />
    <path
       style="fill:none;fill-opacity:0.75000000;fill-rule:evenodd;stroke:#ffffff;stroke-width:0.56717449;stroke-linecap:butt;stroke-linejoin:miter;stroke-miterlimit:4.0000000;stroke-opacity:0.21212120"
       d="M 2.6835621,6.9966277 C 5.2629406,9.2227601 7.8005971,11.607673 10.254537,14.019886 C 10.666247,14.424594 10.509888,13.944823 10.095336,13.582121 C 7.6383439,11.432440 5.2392339,9.1897758 2.8427663,6.9585605 C 2.6566143,6.7852473 2.4621526,6.8055354 2.6835621,6.9966277 z "
       id="path6724" />
    <path
       style="fill:none;fill-opacity:0.75000000;fill-rule:evenodd;stroke:#ffffff;stroke-width:0.41735479;stroke-linecap:butt;stroke-linejoin:miter;stroke-miterlimit:4.0000000;stroke-opacity:0.21212120"
       d="M 2.6835621,6.9966277 C 5.2629406,9.2227601 7.8005971,11.607673 10.254537,14.019886 C 10.666247,14.424594 10.509888,13.944823 10.095336,13.582121 C 7.6383439,11.432440 5.2392339,9.1897758 2.8427663,6.9585605 C 2.6566143,6.7852473 2.4621526,6.8055354 2.6835621,6.9966277 z "
       id="path6725" />
    <path
       style="fill:none;fill-opacity:0.75000000;fill-rule:evenodd;stroke:#ffffff;stroke-width:0.22472948;stroke-linecap:butt;stroke-linejoin:miter;stroke-miterlimit:4.0000000;stroke-opacity:0.21212120"
       d="M 2.6835621,6.9966277 C 5.2629406,9.2227601 7.8005971,11.607673 10.254537,14.019886 C 10.666247,14.424594 10.509888,13.944823 10.095336,13.582121 C 7.6383439,11.432440 5.2392339,9.1897758 2.8427663,6.9585605 C 2.6566143,6.7852473 2.4621526,6.8055354 2.6835621,6.9966277 z "
       id="path6726" />
    <path
       style="fill:none;fill-opacity:0.75000000;fill-rule:evenodd;stroke:#ffffff;stroke-width:0.13911827;stroke-linecap:butt;stroke-linejoin:miter;stroke-miterlimit:4.0000000;stroke-opacity:0.21212120"
       d="M 2.6835621,6.9966277 C 5.2629406,9.2227601 7.8005971,11.607673 10.254537,14.019886 C 10.666247,14.424594 10.509888,13.944823 10.095336,13.582121 C 7.6383439,11.432440 5.2392339,9.1897758 2.8427663,6.9585605 C 2.6566143,6.7852473 2.4621526,6.8055354 2.6835621,6.9966277 z "
       id="path6727" />
    <path
       style="fill:none;fill-opacity:0.75000000;fill-rule:evenodd;stroke:#ffffff;stroke-width:0.010701403;stroke-linecap:butt;stroke-linejoin:miter;stroke-miterlimit:4.0000000;stroke-opacity:0.21212120"
       d="M 2.6835621,6.9966277 C 5.2629406,9.2227601 7.8005971,11.607673 10.254537,14.019886 C 10.666247,14.424594 10.509888,13.944823 10.095336,13.582121 C 7.6383439,11.432440 5.2392339,9.1897758 2.8427663,6.9585605 C 2.6566143,6.7852473 2.4621526,6.8055354 2.6835621,6.9966277 z "
       id="path6728" />
    <path
       style="fill:none;fill-opacity:0.75000000;fill-rule:evenodd;stroke:#ffffff;stroke-width:0.50296605;stroke-linecap:butt;stroke-linejoin:miter;stroke-miterlimit:4.0000000;stroke-opacity:0.21212120"
       d="M 2.6835621,6.9966277 C 5.2629406,9.2227601 7.8005971,11.607673 10.254537,14.019886 C 10.666247,14.424594 10.509888,13.944823 10.095336,13.582121 C 7.6383439,11.432440 5.2392339,9.1897758 2.8427663,6.9585605 C 2.6566143,6.7852473 2.4621526,6.8055354 2.6835621,6.9966277 z "
       id="path6729" />
    <path
       style="fill:none;fill-opacity:0.75000000;fill-rule:evenodd;stroke:#ffffff;stroke-width:0.48997840;stroke-linecap:butt;stroke-linejoin:miter;stroke-miterlimit:4.0000000;stroke-opacity:0.21212120"
       d="M 12.889563,20.424457 C 12.961403,31.677313 13.014772,43.731767 13.056973,55.923656 C 13.064050,57.969155 13.090330,55.545814 13.079219,53.712407 C 13.013382,42.846158 12.961852,31.510646 12.909585,20.232966 C 12.905525,19.356944 12.883396,19.458522 12.889563,20.424457 z "
       id="path7358" />
    <path
       style="fill:none;fill-opacity:0.75000000;fill-rule:evenodd;stroke:#ffffff;stroke-width:0.41220406;stroke-linecap:butt;stroke-linejoin:miter;stroke-miterlimit:4.0000000;stroke-opacity:0.21212120"
       d="M 12.889563,20.424457 C 12.961403,31.677313 13.014772,43.731767 13.056973,55.923656 C 13.064050,57.969155 13.090330,55.545814 13.079219,53.712407 C 13.013382,42.846158 12.961852,31.510646 12.909585,20.232966 C 12.905525,19.356944 12.883396,19.458522 12.889563,20.424457 z "
       id="path7359" />
    <path
       style="fill:none;fill-opacity:0.75000000;fill-rule:evenodd;stroke:#ffffff;stroke-width:0.30331996;stroke-linecap:butt;stroke-linejoin:miter;stroke-miterlimit:4.0000000;stroke-opacity:0.21212120"
       d="M 12.889563,20.424457 C 12.961403,31.677313 13.014772,43.731767 13.056973,55.923656 C 13.064050,57.969155 13.090330,55.545814 13.079219,53.712407 C 13.013382,42.846158 12.961852,31.510646 12.909585,20.232966 C 12.905525,19.356944 12.883396,19.458522 12.889563,20.424457 z "
       id="path7360" />
    <path
       style="fill:none;fill-opacity:0.75000000;fill-rule:evenodd;stroke:#ffffff;stroke-width:0.16332614;stroke-linecap:butt;stroke-linejoin:miter;stroke-miterlimit:4.0000000;stroke-opacity:0.21212120"
       d="M 12.889563,20.424457 C 12.961403,31.677313 13.014772,43.731767 13.056973,55.923656 C 13.064050,57.969155 13.090330,55.545814 13.079219,53.712407 C 13.013382,42.846158 12.961852,31.510646 12.909585,20.232966 C 12.905525,19.356944 12.883396,19.458522 12.889563,20.424457 z "
       id="path7361" />
    <path
       style="fill:none;fill-opacity:0.75000000;fill-rule:evenodd;stroke:#ffffff;stroke-width:0.10110666;stroke-linecap:butt;stroke-linejoin:miter;stroke-miterlimit:4.0000000;stroke-opacity:0.21212120"
       d="M 12.889563,20.424457 C 12.961403,31.677313 13.014772,43.731767 13.056973,55.923656 C 13.064050,57.969155 13.090330,55.545814 13.079219,53.712407 C 13.013382,42.846158 12.961852,31.510646 12.909585,20.232966 C 12.905525,19.356944 12.883396,19.458522 12.889563,20.424457 z "
       id="path7362" />
    <path
       style="fill:none;fill-opacity:0.75000000;fill-rule:evenodd;stroke:#ffffff;stroke-width:0.0077774357;stroke-linecap:butt;stroke-linejoin:miter;stroke-miterlimit:4.0000000;stroke-opacity:0.21212120"
       d="M 12.889563,20.424457 C 12.961403,31.677313 13.014772,43.731767 13.056973,55.923656 C 13.064050,57.969155 13.090330,55.545814 13.079219,53.712407 C 13.013382,42.846158 12.961852,31.510646 12.909585,20.232966 C 12.905525,19.356944 12.883396,19.458522 12.889563,20.424457 z "
       id="path7363" />
    <path
       style="fill:none;fill-opacity:0.75000000;fill-rule:evenodd;stroke:#ffffff;stroke-width:0.36553949;stroke-linecap:butt;stroke-linejoin:miter;stroke-miterlimit:4.0000000;stroke-opacity:0.21212120"
       d="M 12.889563,20.424457 C 12.961403,31.677313 13.014772,43.731767 13.056973,55.923656 C 13.064050,57.969155 13.090330,55.545814 13.079219,53.712407 C 13.013382,42.846158 12.961852,31.510646 12.909585,20.232966 C 12.905525,19.356944 12.883396,19.458522 12.889563,20.424457 z "
       id="path7364" />
    <path
       style="fill:url(#radialGradient7486);fill-opacity:1.0000000;fill-rule:evenodd;stroke:none;stroke-width:0.25000000pt;stroke-linecap:butt;stroke-linejoin:miter;stroke-opacity:1.0000000"
       d="M 1.3822485,4.7767110 L 10.099871,1.9994697 L 0.15544584,14.038521 L 0.35261974,6.9486714 L 1.3822485,4.7767110 z "
       id="path7366" />
    <g
       id="g4979"
       transform="matrix(1.139235,0.000000,0.000000,1.051740,-8.243637,15.68916)">
      <path
         style="fill:url(#linearGradient5004);fill-opacity:1.0000000;fill-rule:evenodd;stroke:none;stroke-width:40.812500;stroke-linecap:butt;stroke-linejoin:round;stroke-miterlimit:4.0000000;stroke-opacity:1.0000000"
         d="M 40.364019,24.934788 C 40.149041,24.937554 39.934967,24.967635 39.725587,25.024498 L 26.720718,28.804436 C 25.380424,29.173232 24.436005,30.571546 24.443192,32.176567 L 24.608075,39.616114 C 24.613948,40.635685 25.199538,42.273543 25.873849,42.923095 L 34.066825,51.006859 C 34.796770,51.709937 35.771474,51.963037 36.688471,51.687618 L 49.515966,47.745543 C 50.818108,47.354224 51.729729,45.988175 51.734630,44.420911 L 51.638451,36.270233 C 51.641397,35.231409 51.242143,34.246461 50.551759,33.589408 L 42.279314,25.710536 C 41.739280,25.196952 41.060943,24.922203 40.364019,24.934788 z "
         id="path4887"
         sodipodi:nodetypes="cccccccccccccc"
         transform="translate(25.86153,6.562592e-2)" />
      <path
         style="fill:url(#radialGradient5005);fill-opacity:1.0000000;fill-rule:evenodd;stroke:none;stroke-width:0.25000000pt;stroke-linecap:butt;stroke-linejoin:miter;stroke-opacity:1.0000000"
         d="M 31.912791,39.738101 L 45.220177,34.708898 L 37.033363,50.450998 L 32.469901,43.758727 L 31.912791,39.738101 z "
         id="path4888"
         transform="translate(25.86153,6.562592e-2)" />
      <path
         style="fill:url(#radialGradient5006);fill-opacity:1.0000000;fill-rule:evenodd;stroke:none;stroke-width:0.25000000pt;stroke-linecap:butt;stroke-linejoin:miter;stroke-opacity:1.0000000"
         d="M 31.965996,33.810001 L 45.718576,36.798121 L 32.075321,46.072415 L 30.808022,37.652604 L 31.965996,33.810001 z "
         id="path4889"
         transform="translate(25.86153,6.562592e-2)" />
      <path
         style="fill:url(#linearGradient5007);fill-opacity:1.0000000;stroke:none;stroke-width:1.2702115;stroke-linecap:butt;stroke-linejoin:round;stroke-miterlimit:4.0000000;stroke-dashoffset:0.0000000;stroke-opacity:0.051948015"
         d="M 39.086478,38.907023 L 47.757823,36.305467 C 49.622198,35.746120 51.123121,37.167208 51.123121,39.491764 L 51.016169,42.607909 C 51.016169,44.932474 49.515246,47.254168 47.650871,47.813515 L 38.979526,50.415080 C 37.115151,50.974427 35.614229,49.553329 35.614229,47.228773 L 35.721181,44.112628 C 35.721181,41.788073 37.222103,39.466370 39.086478,38.907023 z "
         id="path4890"
         sodipodi:nodetypes="ccccccccc"
         transform="translate(25.86153,6.562592e-2)" />
      <path
         style="fill:url(#linearGradient5008);fill-opacity:1.0000000;stroke:none;stroke-width:1.1684631;stroke-linecap:butt;stroke-linejoin:round;stroke-miterlimit:4.0000000;stroke-dashoffset:0.0000000;stroke-opacity:0.051948015"
         d="M 32.655955,37.826551 L 27.574579,32.878267 C 26.121367,31.463107 24.951453,32.337551 24.951453,34.838897 L 25.058405,36.782064 C 25.058405,39.283410 26.228319,42.436405 27.681531,43.851555 L 32.762907,48.799849 C 34.216119,50.214999 35.386034,49.340555 35.386034,46.839209 L 35.279082,44.896042 C 35.279082,42.394696 34.109167,39.241701 32.655955,37.826551 z "
         id="path4891"
         sodipodi:nodetypes="ccccccccc"
         transform="translate(25.86153,6.562592e-2)" />
      <path
         style="fill:url(#linearGradient5009);fill-opacity:1.0000000;stroke:none;stroke-width:1.0541998;stroke-linecap:butt;stroke-linejoin:round;stroke-miterlimit:4.0000000;stroke-dashoffset:0.0000000;stroke-opacity:0.051948015"
         d="M 28.647911,28.874176 L 37.143532,26.316121 C 39.188445,25.700396 41.764760,26.108288 42.920023,27.230689 L 48.927716,33.067488 C 50.082979,34.189879 49.366761,35.589173 47.321848,36.204898 L 38.826226,38.762953 C 36.781314,39.378688 34.204999,38.970785 33.049736,37.848394 L 27.042043,32.011596 C 25.886780,30.889195 26.602998,29.489910 28.647911,28.874176 z "
         id="path4892"
         transform="translate(25.86153,6.562592e-2)" />
      <path
         style="fill:url(#linearGradient5011);fill-opacity:1.0000000;stroke:none;stroke-width:1.0541998;stroke-linecap:butt;stroke-linejoin:round;stroke-miterlimit:4.0000000;stroke-dashoffset:0.0000000;stroke-opacity:0.051948015"
         d="M 27.202906,29.098728 L 38.203182,25.867017 C 40.248094,25.251292 41.186751,25.210081 42.342014,26.332481 L 49.505706,33.067478 C 50.660969,34.189879 50.619083,34.803246 48.574168,35.418971 C 40.666555,30.734325 36.995148,36.630820 30.763758,35.539752 C 30.325637,35.463045 29.217841,34.450742 27.042035,32.011586 C 25.886771,30.889195 25.157994,29.714453 27.202906,29.098728 z "
         id="path4894"
         transform="translate(25.86153,6.562592e-2)" />
      <path
         style="fill:url(#linearGradient5012);fill-opacity:1.0000000;stroke:none;stroke-width:1.1684631;stroke-linecap:butt;stroke-linejoin:round;stroke-miterlimit:4.0000000;stroke-dashoffset:0.0000000;stroke-opacity:0.051948015"
         d="M 30.536631,35.581051 L 27.670911,32.541434 C 25.130791,29.895697 24.765125,32.011809 24.765125,34.513156 L 24.737549,38.921102 C 29.777953,43.306781 31.263238,36.288631 30.536631,35.581051 z "
         id="path4895"
         sodipodi:nodetypes="ccccc"
         transform="translate(25.86153,6.562592e-2)" />
      <path
         style="fill:none;fill-opacity:0.75000000;fill-rule:evenodd;stroke:#ffffff;stroke-width:0.61591429;stroke-linecap:butt;stroke-linejoin:miter;stroke-miterlimit:4.0000000;stroke-opacity:0.21212120"
         d="M 26.414763,31.476983 C 28.678896,33.593600 30.906405,35.861186 33.060430,38.154728 C 33.421821,38.539526 33.284573,38.083358 32.920686,37.738500 C 30.763982,35.694574 28.658087,33.562238 26.554509,31.440789 C 26.391109,31.276002 26.220414,31.295292 26.414763,31.476983 z "
         id="path4896"
         transform="translate(25.86153,6.562592e-2)" />
      <path
         style="fill:none;fill-opacity:0.75000000;fill-rule:evenodd;stroke:#ffffff;stroke-width:0.51815015;stroke-linecap:butt;stroke-linejoin:miter;stroke-miterlimit:4.0000000;stroke-opacity:0.21212120"
         d="M 26.414763,31.476983 C 28.678896,33.593600 30.906405,35.861186 33.060430,38.154728 C 33.421821,38.539526 33.284573,38.083358 32.920686,37.738500 C 30.763982,35.694574 28.658087,33.562238 26.554509,31.440789 C 26.391109,31.276002 26.220414,31.295292 26.414763,31.476983 z "
         id="path4897"
         transform="translate(25.86153,6.562592e-2)" />
      <path
         style="fill:none;fill-opacity:0.75000000;fill-rule:evenodd;stroke:#ffffff;stroke-width:0.38128030;stroke-linecap:butt;stroke-linejoin:miter;stroke-miterlimit:4.0000000;stroke-opacity:0.21212120"
         d="M 26.414763,31.476983 C 28.678896,33.593600 30.906405,35.861186 33.060430,38.154728 C 33.421821,38.539526 33.284573,38.083358 32.920686,37.738500 C 30.763982,35.694574 28.658087,33.562238 26.554509,31.440789 C 26.391109,31.276002 26.220414,31.295292 26.414763,31.476983 z "
         id="path4898"
         transform="translate(25.86153,6.562592e-2)" />
      <path
         style="fill:none;fill-opacity:0.75000000;fill-rule:evenodd;stroke:#ffffff;stroke-width:0.20530477;stroke-linecap:butt;stroke-linejoin:miter;stroke-miterlimit:4.0000000;stroke-opacity:0.21212120"
         d="M 26.414763,31.476983 C 28.678896,33.593600 30.906405,35.861186 33.060430,38.154728 C 33.421821,38.539526 33.284573,38.083358 32.920686,37.738500 C 30.763982,35.694574 28.658087,33.562238 26.554509,31.440789 C 26.391109,31.276002 26.220414,31.295292 26.414763,31.476983 z "
         id="path4899"
         transform="translate(25.86153,6.562592e-2)" />
      <path
         style="fill:none;fill-opacity:0.75000000;fill-rule:evenodd;stroke:#ffffff;stroke-width:0.12709343;stroke-linecap:butt;stroke-linejoin:miter;stroke-miterlimit:4.0000000;stroke-opacity:0.21212120"
         d="M 26.414763,31.476983 C 28.678896,33.593600 30.906405,35.861186 33.060430,38.154728 C 33.421821,38.539526 33.284573,38.083358 32.920686,37.738500 C 30.763982,35.694574 28.658087,33.562238 26.554509,31.440789 C 26.391109,31.276002 26.220414,31.295292 26.414763,31.476983 z "
         id="path4900"
         transform="translate(25.86153,6.562592e-2)" />
      <path
         style="fill:none;fill-opacity:0.75000000;fill-rule:evenodd;stroke:#ffffff;stroke-width:0.0097764172;stroke-linecap:butt;stroke-linejoin:miter;stroke-miterlimit:4.0000000;stroke-opacity:0.21212120"
         d="M 26.414763,31.476983 C 28.678896,33.593600 30.906405,35.861186 33.060430,38.154728 C 33.421821,38.539526 33.284573,38.083358 32.920686,37.738500 C 30.763982,35.694574 28.658087,33.562238 26.554509,31.440789 C 26.391109,31.276002 26.220414,31.295292 26.414763,31.476983 z "
         id="path4901"
         transform="translate(25.86153,6.562592e-2)" />
      <path
         style="fill:none;fill-opacity:0.75000000;fill-rule:evenodd;stroke:#ffffff;stroke-width:0.45949164;stroke-linecap:butt;stroke-linejoin:miter;stroke-miterlimit:4.0000000;stroke-opacity:0.21212120"
         d="M 26.414763,31.476983 C 28.678896,33.593600 30.906405,35.861186 33.060430,38.154728 C 33.421821,38.539526 33.284573,38.083358 32.920686,37.738500 C 30.763982,35.694574 28.658087,33.562238 26.554509,31.440789 C 26.391109,31.276002 26.220414,31.295292 26.414763,31.476983 z "
         id="path4902"
         transform="translate(25.86153,6.562592e-2)" />
      <path
         style="fill:none;fill-opacity:0.75000000;fill-rule:evenodd;stroke:#ffffff;stroke-width:0.31112143;stroke-linecap:butt;stroke-linejoin:miter;stroke-miterlimit:4.0000000;stroke-opacity:0.21212120"
         d="M 61.190985,43.421150 C 61.206987,45.049828 61.158416,46.794526 61.076489,48.559114 C 61.062734,48.855168 61.175594,48.504427 61.174641,48.239070 C 61.169038,46.666347 61.210968,45.025706 61.249895,43.393435 C 61.252917,43.266645 61.189612,43.281346 61.190985,43.421150 z "
         id="path4903" />
      <path
         style="fill:none;fill-opacity:0.75000000;fill-rule:evenodd;stroke:#ffffff;stroke-width:0.26173708;stroke-linecap:butt;stroke-linejoin:miter;stroke-miterlimit:4.0000000;stroke-opacity:0.21212120"
         d="M 61.190985,43.421150 C 61.206987,45.049828 61.158416,46.794526 61.076489,48.559114 C 61.062734,48.855168 61.175594,48.504427 61.174641,48.239070 C 61.169038,46.666347 61.210968,45.025706 61.249895,43.393435 C 61.252917,43.266645 61.189612,43.281346 61.190985,43.421150 z "
         id="path4904" />
      <path
         style="fill:none;fill-opacity:0.75000000;fill-rule:evenodd;stroke:#ffffff;stroke-width:0.19259900;stroke-linecap:butt;stroke-linejoin:miter;stroke-miterlimit:4.0000000;stroke-opacity:0.21212120"
         d="M 61.190985,43.421150 C 61.206987,45.049828 61.158416,46.794526 61.076489,48.559114 C 61.062734,48.855168 61.175594,48.504427 61.174641,48.239070 C 61.169038,46.666347 61.210968,45.025706 61.249895,43.393435 C 61.252917,43.266645 61.189612,43.281346 61.190985,43.421150 z "
         id="path4905" />
      <path
         style="fill:none;fill-opacity:0.75000000;fill-rule:evenodd;stroke:#ffffff;stroke-width:0.10370715;stroke-linecap:butt;stroke-linejoin:miter;stroke-miterlimit:4.0000000;stroke-opacity:0.21212120"
         d="M 61.190985,43.421150 C 61.206987,45.049828 61.158416,46.794526 61.076489,48.559114 C 61.062734,48.855168 61.175594,48.504427 61.174641,48.239070 C 61.169038,46.666347 61.210968,45.025706 61.249895,43.393435 C 61.252917,43.266645 61.189612,43.281346 61.190985,43.421150 z "
         id="path4906" />
      <path
         style="fill:none;fill-opacity:0.75000000;fill-rule:evenodd;stroke:#ffffff;stroke-width:0.064199656;stroke-linecap:butt;stroke-linejoin:miter;stroke-miterlimit:4.0000000;stroke-opacity:0.21212120"
         d="M 61.190985,43.421150 C 61.206987,45.049828 61.158416,46.794526 61.076489,48.559114 C 61.062734,48.855168 61.175594,48.504427 61.174641,48.239070 C 61.169038,46.666347 61.210968,45.025706 61.249895,43.393435 C 61.252917,43.266645 61.189612,43.281346 61.190985,43.421150 z "
         id="path4907" />
      <path
         style="fill:none;fill-opacity:0.75000000;fill-rule:evenodd;stroke:#ffffff;stroke-width:0.0049384357;stroke-linecap:butt;stroke-linejoin:miter;stroke-miterlimit:4.0000000;stroke-opacity:0.21212120"
         d="M 61.190985,43.421150 C 61.206987,45.049828 61.158416,46.794526 61.076489,48.559114 C 61.062734,48.855168 61.175594,48.504427 61.174641,48.239070 C 61.169038,46.666347 61.210968,45.025706 61.249895,43.393435 C 61.252917,43.266645 61.189612,43.281346 61.190985,43.421150 z "
         id="path4908" />
      <path
         style="fill:none;fill-opacity:0.75000000;fill-rule:evenodd;stroke:#ffffff;stroke-width:0.23210651;stroke-linecap:butt;stroke-linejoin:miter;stroke-miterlimit:4.0000000;stroke-opacity:0.21212120"
         d="M 61.190985,43.421150 C 61.206987,45.049828 61.158416,46.794526 61.076489,48.559114 C 61.062734,48.855168 61.175594,48.504427 61.174641,48.239070 C 61.169038,46.666347 61.210968,45.025706 61.249895,43.393435 C 61.252917,43.266645 61.189612,43.281346 61.190985,43.421150 z "
         id="path4909" />
      <path
         style="fill:url(#radialGradient5013);fill-opacity:1.0000000;fill-rule:evenodd;stroke:none;stroke-width:0.25000000pt;stroke-linecap:butt;stroke-linejoin:miter;stroke-opacity:1.0000000"
         d="M 25.272493,29.366276 L 32.924667,26.725663 L 24.195628,38.172447 L 24.368703,31.431386 L 25.272493,29.366276 z "
         id="path4910"
         transform="translate(25.86153,6.562592e-2)" />
      <path
         style="fill:url(#radialGradient9531);fill-opacity:1.0000000;fill-rule:evenodd;stroke:none;stroke-width:40.812500;stroke-linecap:butt;stroke-linejoin:round;stroke-miterlimit:4.0000000;stroke-opacity:1.0000000"
         d="M 50.304255,32.462157 L 50.560108,39.052114 C 50.565981,40.071685 51.151571,41.709543 51.825882,42.359095 L 60.018857,50.442859 C 60.748802,51.145937 61.723506,51.399037 62.640503,51.123618 L 75.467998,47.181543 C 76.770140,46.790224 77.681761,45.424175 77.686662,43.856911 L 77.071707,36.448860 C 77.074653,35.410046 50.297069,30.857136 50.304255,32.462157 z "
         id="path4893"
         sodipodi:nodetypes="ccccccccc" />
    </g>
    <g
       id="g5014"
       transform="matrix(1.139235,0.000000,0.000000,1.051740,-6.795996,-3.646681)">
      <path
         style="fill:url(#linearGradient5039);fill-opacity:1.0000000;fill-rule:evenodd;stroke:none;stroke-width:40.812500;stroke-linecap:butt;stroke-linejoin:round;stroke-miterlimit:4.0000000;stroke-opacity:1.0000000"
         d="M 39.991557,32.135013 C 39.776579,32.137779 39.562505,32.167860 39.353125,32.224723 L 26.348256,36.004661 C 25.007963,36.373457 24.063544,37.771771 24.070730,39.376792 L 24.021710,67.351097 C 24.027583,68.370668 24.613172,70.008526 25.287483,70.658078 L 33.480459,78.741842 C 34.210404,79.444920 35.185108,79.698020 36.102105,79.422601 L 48.929600,75.480526 C 50.231742,75.089207 51.143363,73.723158 51.148264,72.155894 L 51.265989,43.470457 C 51.268935,42.431633 50.869681,41.446685 50.179297,40.789632 L 41.906852,32.910761 C 41.366818,32.397177 40.688481,32.122428 39.991557,32.135013 z "
         id="path4921"
         sodipodi:nodetypes="cccccccccccccc" />
      <path
         style="fill:url(#radialGradient5040);fill-opacity:1.0000000;fill-rule:evenodd;stroke:none;stroke-width:0.25000000pt;stroke-linecap:butt;stroke-linejoin:miter;stroke-opacity:1.0000000"
         d="M 31.540329,46.938325 L 44.847715,41.909122 L 36.660901,57.651222 L 32.097439,50.958951 L 31.540329,46.938325 z "
         id="path4922" />
      <path
         style="fill:url(#radialGradient5041);fill-opacity:1.0000000;fill-rule:evenodd;stroke:none;stroke-width:0.25000000pt;stroke-linecap:butt;stroke-linejoin:miter;stroke-opacity:1.0000000"
         d="M 31.593534,41.010225 L 45.346114,43.998345 L 31.702859,53.272639 L 30.435560,44.852828 L 31.593534,41.010225 z "
         id="path4923" />
      <path
         style="fill:url(#linearGradient5042);fill-opacity:1.0000000;stroke:none;stroke-width:1.2702115;stroke-linecap:butt;stroke-linejoin:round;stroke-miterlimit:4.0000000;stroke-dashoffset:0.0000000;stroke-opacity:0.051948015"
         d="M 38.714016,46.107247 L 47.385361,43.505691 C 49.249736,42.946344 50.750659,44.367432 50.750659,46.691988 L 50.750659,69.594229 C 50.750659,71.918794 49.249736,74.240488 47.385361,74.799835 L 38.714016,77.401400 C 36.849641,77.960747 35.348719,76.539649 35.348719,74.215093 L 35.348719,51.312852 C 35.348719,48.988297 36.849641,46.666594 38.714016,46.107247 z "
         id="path4924"
         sodipodi:nodetypes="ccccccccc" />
      <path
         style="fill:url(#linearGradient5043);fill-opacity:1.0000000;stroke:none;stroke-width:1.1684631;stroke-linecap:butt;stroke-linejoin:round;stroke-miterlimit:4.0000000;stroke-dashoffset:0.0000000;stroke-opacity:0.051948015"
         d="M 32.283493,45.026775 L 27.202118,40.078491 C 25.748906,38.663332 24.578991,39.537775 24.578991,42.039121 L 24.472039,64.410096 C 24.472039,66.911442 25.641954,70.064437 27.095166,71.479587 L 32.176541,76.427881 C 33.629753,77.843031 34.799668,76.968587 34.799668,74.467241 L 34.906620,52.096266 C 34.906620,49.594920 33.736705,46.441925 32.283493,45.026775 z "
         id="path4925"
         sodipodi:nodetypes="ccccccccc" />
      <path
         style="fill:url(#linearGradient5044);fill-opacity:1.0000000;stroke:none;stroke-width:1.0541998;stroke-linecap:butt;stroke-linejoin:round;stroke-miterlimit:4.0000000;stroke-dashoffset:0.0000000;stroke-opacity:0.051948015"
         d="M 28.275449,36.074401 L 36.771070,33.516346 C 38.815983,32.900621 41.392298,33.308513 42.547561,34.430914 L 48.555254,40.267712 C 49.710517,41.390103 48.994299,42.789397 46.949386,43.405122 L 38.453764,45.963177 C 36.408852,46.578912 33.832537,46.171009 32.677274,45.048618 L 26.669582,39.211821 C 25.514319,38.089420 26.230537,36.690135 28.275449,36.074401 z "
         id="path4926" />
      <path
         style="fill:url(#radialGradient5045);fill-opacity:1.0000000;fill-rule:evenodd;stroke:none;stroke-width:40.812500;stroke-linecap:butt;stroke-linejoin:round;stroke-miterlimit:4.0000000;stroke-opacity:1.0000000"
         d="M 24.081349,50.943529 L 24.128662,66.709385 C 24.134535,67.728956 24.720124,69.366814 25.394435,70.016366 L 33.587411,78.100130 C 34.317356,78.803208 35.292060,79.056308 36.209057,78.780889 L 49.036552,74.838814 C 50.338694,74.447495 51.250315,73.081446 51.255216,71.514182 L 51.276608,55.037185 C 51.279554,53.998371 24.074162,49.338508 24.081349,50.943529 z "
         id="path4927"
         sodipodi:nodetypes="ccccccccc" />
      <path
         style="fill:url(#linearGradient5046);fill-opacity:1.0000000;stroke:none;stroke-width:1.0541998;stroke-linecap:butt;stroke-linejoin:round;stroke-miterlimit:4.0000000;stroke-dashoffset:0.0000000;stroke-opacity:0.051948015"
         d="M 26.830444,36.298953 L 37.830720,33.067242 C 39.875632,32.451517 40.814289,32.410306 41.969552,33.532706 L 49.133244,40.267702 C 50.288507,41.390103 50.246621,42.003470 48.201706,42.619195 C 40.294093,37.934550 36.622686,43.831044 30.391296,42.739976 C 29.953175,42.663269 28.845379,41.650966 26.669573,39.211811 C 25.514310,38.089420 24.785533,36.914678 26.830444,36.298953 z "
         id="path4928" />
      <path
         style="fill:url(#linearGradient5047);fill-opacity:1.0000000;stroke:none;stroke-width:1.1684631;stroke-linecap:butt;stroke-linejoin:round;stroke-miterlimit:4.0000000;stroke-dashoffset:0.0000000;stroke-opacity:0.051948015"
         d="M 30.164169,42.781275 L 27.298450,39.741658 C 24.758330,37.095922 24.392664,39.212034 24.392664,41.713380 L 24.578991,65.158759 C 28.335972,60.346577 30.890776,43.488855 30.164169,42.781275 z "
         id="path4929"
         sodipodi:nodetypes="ccccc" />
      <path
         style="fill:none;fill-opacity:0.75000000;fill-rule:evenodd;stroke:#ffffff;stroke-width:0.61591429;stroke-linecap:butt;stroke-linejoin:miter;stroke-miterlimit:4.0000000;stroke-opacity:0.21212120"
         d="M 26.042302,38.677208 C 28.306434,40.793824 30.533943,43.061410 32.687968,45.354952 C 33.049359,45.739750 32.912111,45.283582 32.548224,44.938724 C 30.391520,42.894798 28.285625,40.762462 26.182048,38.641014 C 26.018647,38.476227 25.847952,38.495517 26.042302,38.677208 z "
         id="path4930" />
      <path
         style="fill:none;fill-opacity:0.75000000;fill-rule:evenodd;stroke:#ffffff;stroke-width:0.51815015;stroke-linecap:butt;stroke-linejoin:miter;stroke-miterlimit:4.0000000;stroke-opacity:0.21212120"
         d="M 26.042302,38.677208 C 28.306434,40.793824 30.533943,43.061410 32.687968,45.354952 C 33.049359,45.739750 32.912111,45.283582 32.548224,44.938724 C 30.391520,42.894798 28.285625,40.762462 26.182048,38.641014 C 26.018647,38.476227 25.847952,38.495517 26.042302,38.677208 z "
         id="path4931" />
      <path
         style="fill:none;fill-opacity:0.75000000;fill-rule:evenodd;stroke:#ffffff;stroke-width:0.38128030;stroke-linecap:butt;stroke-linejoin:miter;stroke-miterlimit:4.0000000;stroke-opacity:0.21212120"
         d="M 26.042302,38.677208 C 28.306434,40.793824 30.533943,43.061410 32.687968,45.354952 C 33.049359,45.739750 32.912111,45.283582 32.548224,44.938724 C 30.391520,42.894798 28.285625,40.762462 26.182048,38.641014 C 26.018647,38.476227 25.847952,38.495517 26.042302,38.677208 z "
         id="path4932" />
      <path
         style="fill:none;fill-opacity:0.75000000;fill-rule:evenodd;stroke:#ffffff;stroke-width:0.20530477;stroke-linecap:butt;stroke-linejoin:miter;stroke-miterlimit:4.0000000;stroke-opacity:0.21212120"
         d="M 26.042302,38.677208 C 28.306434,40.793824 30.533943,43.061410 32.687968,45.354952 C 33.049359,45.739750 32.912111,45.283582 32.548224,44.938724 C 30.391520,42.894798 28.285625,40.762462 26.182048,38.641014 C 26.018647,38.476227 25.847952,38.495517 26.042302,38.677208 z "
         id="path4933" />
      <path
         style="fill:none;fill-opacity:0.75000000;fill-rule:evenodd;stroke:#ffffff;stroke-width:0.12709343;stroke-linecap:butt;stroke-linejoin:miter;stroke-miterlimit:4.0000000;stroke-opacity:0.21212120"
         d="M 26.042302,38.677208 C 28.306434,40.793824 30.533943,43.061410 32.687968,45.354952 C 33.049359,45.739750 32.912111,45.283582 32.548224,44.938724 C 30.391520,42.894798 28.285625,40.762462 26.182048,38.641014 C 26.018647,38.476227 25.847952,38.495517 26.042302,38.677208 z "
         id="path4934" />
      <path
         style="fill:none;fill-opacity:0.75000000;fill-rule:evenodd;stroke:#ffffff;stroke-width:0.0097764172;stroke-linecap:butt;stroke-linejoin:miter;stroke-miterlimit:4.0000000;stroke-opacity:0.21212120"
         d="M 26.042302,38.677208 C 28.306434,40.793824 30.533943,43.061410 32.687968,45.354952 C 33.049359,45.739750 32.912111,45.283582 32.548224,44.938724 C 30.391520,42.894798 28.285625,40.762462 26.182048,38.641014 C 26.018647,38.476227 25.847952,38.495517 26.042302,38.677208 z "
         id="path4935" />
      <path
         style="fill:none;fill-opacity:0.75000000;fill-rule:evenodd;stroke:#ffffff;stroke-width:0.45949164;stroke-linecap:butt;stroke-linejoin:miter;stroke-miterlimit:4.0000000;stroke-opacity:0.21212120"
         d="M 26.042302,38.677208 C 28.306434,40.793824 30.533943,43.061410 32.687968,45.354952 C 33.049359,45.739750 32.912111,45.283582 32.548224,44.938724 C 30.391520,42.894798 28.285625,40.762462 26.182048,38.641014 C 26.018647,38.476227 25.847952,38.495517 26.042302,38.677208 z "
         id="path4936" />
      <path
         style="fill:none;fill-opacity:0.75000000;fill-rule:evenodd;stroke:#ffffff;stroke-width:0.37042645;stroke-linecap:butt;stroke-linejoin:miter;stroke-miterlimit:4.0000000;stroke-opacity:0.21212120"
         d="M 35.000946,51.136901 C 35.064006,58.463899 35.110852,66.312843 35.147896,74.251271 C 35.154108,75.583138 35.177176,74.005246 35.167423,72.811472 C 35.109633,65.736201 35.064401,58.355383 35.018521,51.012217 C 35.014957,50.441821 34.995533,50.507961 35.000946,51.136901 z "
         id="path4937" />
      <path
         style="fill:none;fill-opacity:0.75000000;fill-rule:evenodd;stroke:#ffffff;stroke-width:0.31162861;stroke-linecap:butt;stroke-linejoin:miter;stroke-miterlimit:4.0000000;stroke-opacity:0.21212120"
         d="M 35.000946,51.136901 C 35.064006,58.463899 35.110852,66.312843 35.147896,74.251271 C 35.154108,75.583138 35.177176,74.005246 35.167423,72.811472 C 35.109633,65.736201 35.064401,58.355383 35.018521,51.012217 C 35.014957,50.441821 34.995533,50.507961 35.000946,51.136901 z "
         id="path4938" />
      <path
         style="fill:none;fill-opacity:0.75000000;fill-rule:evenodd;stroke:#ffffff;stroke-width:0.22931162;stroke-linecap:butt;stroke-linejoin:miter;stroke-miterlimit:4.0000000;stroke-opacity:0.21212120"
         d="M 35.000946,51.136901 C 35.064006,58.463899 35.110852,66.312843 35.147896,74.251271 C 35.154108,75.583138 35.177176,74.005246 35.167423,72.811472 C 35.109633,65.736201 35.064401,58.355383 35.018521,51.012217 C 35.014957,50.441821 34.995533,50.507961 35.000946,51.136901 z "
         id="path4939" />
      <path
         style="fill:none;fill-opacity:0.75000000;fill-rule:evenodd;stroke:#ffffff;stroke-width:0.12347548;stroke-linecap:butt;stroke-linejoin:miter;stroke-miterlimit:4.0000000;stroke-opacity:0.21212120"
         d="M 35.000946,51.136901 C 35.064006,58.463899 35.110852,66.312843 35.147896,74.251271 C 35.154108,75.583138 35.177176,74.005246 35.167423,72.811472 C 35.109633,65.736201 35.064401,58.355383 35.018521,51.012217 C 35.014957,50.441821 34.995533,50.507961 35.000946,51.136901 z "
         id="path4940" />
      <path
         style="fill:none;fill-opacity:0.75000000;fill-rule:evenodd;stroke:#ffffff;stroke-width:0.076437205;stroke-linecap:butt;stroke-linejoin:miter;stroke-miterlimit:4.0000000;stroke-opacity:0.21212120"
         d="M 35.000946,51.136901 C 35.064006,58.463899 35.110852,66.312843 35.147896,74.251271 C 35.154108,75.583138 35.177176,74.005246 35.167423,72.811472 C 35.109633,65.736201 35.064401,58.355383 35.018521,51.012217 C 35.014957,50.441821 34.995533,50.507961 35.000946,51.136901 z "
         id="path4941" />
      <path
         style="fill:none;fill-opacity:0.75000000;fill-rule:evenodd;stroke:#ffffff;stroke-width:0.0058797854;stroke-linecap:butt;stroke-linejoin:miter;stroke-miterlimit:4.0000000;stroke-opacity:0.21212120"
         d="M 35.000946,51.136901 C 35.064006,58.463899 35.110852,66.312843 35.147896,74.251271 C 35.154108,75.583138 35.177176,74.005246 35.167423,72.811472 C 35.109633,65.736201 35.064401,58.355383 35.018521,51.012217 C 35.014957,50.441821 34.995533,50.507961 35.000946,51.136901 z "
         id="path4942" />
      <path
         style="fill:none;fill-opacity:0.75000000;fill-rule:evenodd;stroke:#ffffff;stroke-width:0.27634993;stroke-linecap:butt;stroke-linejoin:miter;stroke-miterlimit:4.0000000;stroke-opacity:0.21212120"
         d="M 35.000946,51.136901 C 35.064006,58.463899 35.110852,66.312843 35.147896,74.251271 C 35.154108,75.583138 35.177176,74.005246 35.167423,72.811472 C 35.109633,65.736201 35.064401,58.355383 35.018521,51.012217 C 35.014957,50.441821 34.995533,50.507961 35.000946,51.136901 z "
         id="path4943" />
      <path
         style="fill:url(#radialGradient5048);fill-opacity:1.0000000;fill-rule:evenodd;stroke:none;stroke-width:0.25000000pt;stroke-linecap:butt;stroke-linejoin:miter;stroke-opacity:1.0000000"
         d="M 24.900032,36.566501 L 32.552205,33.925888 L 23.823167,45.372671 L 23.996242,38.631611 L 24.900032,36.566501 z "
         id="path4944" />
    </g>
  </g>
</svg>
