<?xml version="1.0" encoding="UTF-8" standalone="no"?>
<!DOCTYPE svg PUBLIC "-//W3C//DTD SVG 20010904//EN"
"http://www.w3.org/TR/2001/REC-SVG-20010904/DTD/svg10.dtd">
<!-- Created with Inkscape (http://www.inkscape.org/) -->
<svg
   width="64pt"
   height="64pt"
   id="svg11573"
   sodipodi:version="0.32"
   inkscape:version="0.40"
   sodipodi:docbase="/home/nuno/kdeplayground-artwork/oooicons/crystalsvg"
   sodipodi:docname="bar_2D_wizard.svg"
   inkscape:export-filename="/home/nuno/kdeplayground-artwork/oooicons/crystalsvg/bar_2D_wizard.png"
   inkscape:export-xdpi="36.000000"
   inkscape:export-ydpi="36.000000"
   xmlns="http://www.w3.org/2000/svg"
   xmlns:cc="http://web.resource.org/cc/"
   xmlns:inkscape="http://www.inkscape.org/namespaces/inkscape"
   xmlns:sodipodi="http://sodipodi.sourceforge.net/DTD/sodipodi-0.dtd"
   xmlns:rdf="http://www.w3.org/1999/02/22-rdf-syntax-ns#"
   xmlns:dc="http://purl.org/dc/elements/1.1/"
   xmlns:xlink="http://www.w3.org/1999/xlink">
  <defs
     id="defs3">
    <linearGradient
       inkscape:collect="always"
       xlink:href="#XMLID_1_"
       id="linearGradient1476"
       gradientUnits="userSpaceOnUse"
       gradientTransform="matrix(0.128610,-6.386046e-2,6.003955e-2,0.117844,48.67348,0.239063)"
       x1="100.6055"
       y1="37.1133"
       x2="100.6055"
       y2="139.7401" />
    <linearGradient
       inkscape:collect="always"
       xlink:href="#light100to0"
       id="linearGradient1475"
       gradientUnits="userSpaceOnUse"
       gradientTransform="matrix(9.551850e-2,-3.628389e-2,3.912589e-2,0.105125,27.78007,9.907698)"
       x1="146.38470"
       y1="64.407753"
       x2="307.07626"
       y2="436.28043" />
    <linearGradient
       id="redtodarkred">
      <stop
         style="stop-color:#ff0000;stop-opacity:1.0000000;"
         offset="0.0000000"
         id="stop3856" />
      <stop
         style="stop-color:#920000;stop-opacity:1.0000000;"
         offset="1.0000000"
         id="stop3855" />
    </linearGradient>
    <linearGradient
       inkscape:collect="always"
       xlink:href="#redtodarkred"
       id="linearGradient1474"
       gradientUnits="userSpaceOnUse"
       gradientTransform="matrix(9.309382e-2,-3.536275e-2,3.639664e-2,9.779137e-2,28.36097,10.40549)"
       x1="-110.52393"
       y1="27.161866"
       x2="439.44683"
       y2="461.30772" />
    <linearGradient
       id="orangelesstoyelow">
      <stop
         style="stop-color:#ff7d00;stop-opacity:1.0000000;"
         offset="0.0000000"
         id="stop2689" />
      <stop
         style="stop-color:#ffbe00;stop-opacity:1.0000000;"
         offset="0.25358382"
         id="stop2690" />
      <stop
         style="stop-color:#ffff00;stop-opacity:1.0000000;"
         offset="1.0000000"
         id="stop2691" />
    </linearGradient>
    <radialGradient
       inkscape:collect="always"
       xlink:href="#orangelesstoyelow"
       id="radialGradient1473"
       gradientUnits="userSpaceOnUse"
       gradientTransform="matrix(9.250725e-2,-3.513989e-2,3.662747e-2,9.841177e-2,28.36097,10.40549)"
       spreadMethod="reflect"
       cx="186.75356"
       cy="103.61057"
       fx="189.43584"
       fy="25.390987"
       r="117.68623" />
    <linearGradient
       id="XMLID_1_"
       gradientUnits="userSpaceOnUse"
       x1="100.6055"
       y1="37.1133"
       x2="100.6055"
       y2="139.7401">
      <stop
         offset="0"
         style="stop-color:#FFA700"
         id="stop9" />
      <stop
         offset="0.691"
         style="stop-color:#FFFF00"
         id="stop11" />
      <stop
         offset="0.792"
         style="stop-color:#FFFC00"
         id="stop13" />
      <stop
         offset="0.8546"
         style="stop-color:#FFF400"
         id="stop15" />
      <stop
         offset="0.9067"
         style="stop-color:#FFE500"
         id="stop17" />
      <stop
         offset="0.953"
         style="stop-color:#FFD100"
         id="stop19" />
      <stop
         offset="0.9952"
         style="stop-color:#FFB700"
         id="stop21" />
      <stop
         offset="1"
         style="stop-color:#FFB300"
         id="stop23" />
      <midPointStop
         offset="0"
         style="stop-color:#FFA700"
         id="midPointStop25" />
      <midPointStop
         offset="0.5"
         style="stop-color:#FFA700"
         id="midPointStop27" />
      <midPointStop
         offset="0.691"
         style="stop-color:#FFFF00"
         id="midPointStop29" />
      <midPointStop
         offset="0.7952"
         style="stop-color:#FFFF00"
         id="midPointStop31" />
      <midPointStop
         offset="1"
         style="stop-color:#FFB300"
         id="midPointStop33" />
    </linearGradient>
    <linearGradient
       inkscape:collect="always"
       xlink:href="#XMLID_1_"
       id="linearGradient1472"
       gradientUnits="userSpaceOnUse"
       gradientTransform="matrix(0.380689,-0.189029,0.183421,0.360017,48.02610,-0.411723)"
       x1="100.6055"
       y1="37.1133"
       x2="100.6055"
       y2="139.7401" />
    <linearGradient
       id="light75to0">
      <stop
         style="stop-color:#ffffff;stop-opacity:0.72916669;"
         offset="0.0000000"
         id="stop2769" />
      <stop
         style="stop-color:#ffffff;stop-opacity:0.0000000;"
         offset="1.0000000"
         id="stop2770" />
    </linearGradient>
    <linearGradient
       inkscape:collect="always"
       xlink:href="#light75to0"
       id="linearGradient1471"
       gradientUnits="userSpaceOnUse"
       gradientTransform="matrix(1.104176,9.887704e-17,1.054129e-17,0.490191,43.76188,12.01201)"
       x1="5.6831765"
       y1="21.673885"
       x2="14.964557"
       y2="41.796101" />
    <linearGradient
       inkscape:collect="always"
       xlink:href="#light100to25to0"
       id="linearGradient1470"
       gradientUnits="userSpaceOnUse"
       gradientTransform="matrix(0.583981,-5.632389e-2,0.240585,1.738144,24.49778,48.99001)"
       x1="117.48062"
       y1="0.76412511"
       x2="122.96590"
       y2="-4.4011321" />
    <linearGradient
       id="light100to25to0">
      <stop
         style="stop-color:#ffffff;stop-opacity:1.0000000;"
         offset="0.0000000"
         id="stop2785" />
      <stop
         style="stop-color:#ffffff;stop-opacity:0.28749999;"
         offset="0.50000000"
         id="stop2786" />
      <stop
         style="stop-color:#ffffff;stop-opacity:0.0000000;"
         offset="1.0000000"
         id="stop2787" />
    </linearGradient>
    <radialGradient
       inkscape:collect="always"
       xlink:href="#light100to25to0"
       id="radialGradient1469"
       gradientUnits="userSpaceOnUse"
       gradientTransform="matrix(0.407853,-0.182096,0.912747,2.044345,4.770837e-14,4.772575e-14)"
       cx="151.53014"
       cy="30.823576"
       fx="151.53014"
       fy="30.823576"
       r="35.001339" />
    <linearGradient
       id="blacktowhite">
      <stop
         style="stop-color:#000000;stop-opacity:1.0000000;"
         offset="0.0000000"
         id="stop2476" />
      <stop
         style="stop-color:#ffffff;stop-opacity:1.0000000;"
         offset="1.0000000"
         id="stop2475" />
    </linearGradient>
    <linearGradient
       id="greylighttograyw">
      <stop
         style="stop-color:#b5b5b8;stop-opacity:1.0000000;"
         offset="0.0000000"
         id="stop575" />
      <stop
         style="stop-color:#ebebee;stop-opacity:1.0000000;"
         offset="1.0000000"
         id="stop576" />
    </linearGradient>
    <linearGradient
       id="light100to0">
      <stop
         style="stop-color:#ffffff;stop-opacity:1.0000000;"
         offset="0.0000000"
         id="stop2764" />
      <stop
         style="stop-color:#ffffff;stop-opacity:0.0000000;"
         offset="1.0000000"
         id="stop2765" />
    </linearGradient>
    <radialGradient
       inkscape:collect="always"
       xlink:href="#light100to0"
       id="radialGradient1751"
       gradientUnits="userSpaceOnUse"
       gradientTransform="matrix(3.362480,0.000000,0.000000,0.213346,4.815655,4.054885)"
       cx="0.33943793"
       cy="316.96255"
       fx="0.33943793"
       fy="316.96255"
       r="16.630949" />
    <linearGradient
       inkscape:collect="always"
       xlink:href="#light100to0"
       id="linearGradient1752"
       gradientUnits="userSpaceOnUse"
       gradientTransform="matrix(0.154379,0.000000,0.000000,5.438972,0.137800,4.050850)"
       x1="3.9717577"
       y1="-0.19021416"
       x2="68.651939"
       y2="18.609808" />
    <linearGradient
       inkscape:collect="always"
       xlink:href="#light100to0"
       id="linearGradient1753"
       gradientUnits="userSpaceOnUse"
       gradientTransform="matrix(-3.990925e-5,3.644228e-2,-1.421679,-1.904682e-3,80.74529,64.48673)"
       x1="79.057785"
       y1="26.997606"
       x2="144.28882"
       y2="50.504238" />
    <radialGradient
       inkscape:collect="always"
       xlink:href="#light100to0"
       id="radialGradient1754"
       gradientUnits="userSpaceOnUse"
       gradientTransform="matrix(3.618230,0.000000,0.000000,0.213346,4.393389,4.054885)"
       cx="18.724737"
       cy="318.65726"
       fx="18.724737"
       fy="318.65726"
       r="16.630949" />
    <radialGradient
       inkscape:collect="always"
       xlink:href="#light100to0"
       id="radialGradient1755"
       gradientUnits="userSpaceOnUse"
       gradientTransform="matrix(0.276524,0.000000,0.000000,0.177290,0.865364,-12.97469)"
       cx="18.724737"
       cy="318.65726"
       fx="18.724737"
       fy="318.65726"
       r="16.630949" />
    <linearGradient
       inkscape:collect="always"
       xlink:href="#light100to0"
       id="linearGradient1756"
       gradientUnits="userSpaceOnUse"
       gradientTransform="matrix(3.172279e-6,3.028332e-2,0.113005,-1.582779e-3,0.705402,37.24385)"
       x1="79.057785"
       y1="26.997606"
       x2="144.28882"
       y2="50.504238" />
    <radialGradient
       inkscape:collect="always"
       xlink:href="#light100to0"
       id="radialGradient1757"
       gradientUnits="userSpaceOnUse"
       gradientTransform="matrix(0.258301,0.000000,0.000000,0.177290,0.870957,-12.97469)"
       cx="0.33943793"
       cy="316.96255"
       fx="0.33943793"
       fy="316.96255"
       r="16.630949" />
    <radialGradient
       inkscape:collect="always"
       xlink:href="#light100to0"
       id="radialGradient1758"
       gradientUnits="userSpaceOnUse"
       gradientTransform="matrix(0.276524,0.000000,0.000000,0.177290,0.975557,-30.60554)"
       cx="18.724737"
       cy="318.65726"
       fx="18.724737"
       fy="318.65726"
       r="16.630949" />
    <linearGradient
       inkscape:collect="always"
       xlink:href="#light100to0"
       id="linearGradient1759"
       gradientUnits="userSpaceOnUse"
       gradientTransform="matrix(3.172279e-6,3.028332e-2,0.113005,-1.582779e-3,0.815595,19.61300)"
       x1="79.057785"
       y1="26.997606"
       x2="144.28882"
       y2="50.504238" />
    <radialGradient
       inkscape:collect="always"
       xlink:href="#light100to0"
       id="radialGradient1760"
       gradientUnits="userSpaceOnUse"
       gradientTransform="matrix(0.258301,0.000000,0.000000,0.177290,0.981150,-30.60554)"
       cx="0.33943793"
       cy="316.96255"
       fx="0.33943793"
       fy="316.96255"
       r="16.630949" />
    <radialGradient
       inkscape:collect="always"
       xlink:href="#light100to0"
       id="radialGradient1761"
       gradientUnits="userSpaceOnUse"
       gradientTransform="matrix(0.276524,0.000000,0.000000,0.177290,0.755171,-48.01601)"
       cx="18.724737"
       cy="318.65726"
       fx="18.724737"
       fy="318.65726"
       r="16.630949" />
    <linearGradient
       inkscape:collect="always"
       xlink:href="#light100to0"
       id="linearGradient1762"
       gradientUnits="userSpaceOnUse"
       gradientTransform="matrix(3.172279e-6,3.028332e-2,0.113005,-1.582779e-3,0.595209,2.202533)"
       x1="79.057785"
       y1="26.997606"
       x2="144.28882"
       y2="50.504238" />
    <radialGradient
       inkscape:collect="always"
       xlink:href="#light100to0"
       id="radialGradient1763"
       gradientUnits="userSpaceOnUse"
       gradientTransform="matrix(0.258301,0.000000,0.000000,0.177290,0.760764,-48.01601)"
       cx="0.33943793"
       cy="316.96255"
       fx="0.33943793"
       fy="316.96255"
       r="16.630949" />
    <linearGradient
       inkscape:collect="always"
       xlink:href="#greylighttograyw"
       id="linearGradient1764"
       gradientUnits="userSpaceOnUse"
       gradientTransform="matrix(1.053646,0.000000,0.000000,0.858784,90.17212,-9.303810)"
       x1="56.661541"
       y1="76.231018"
       x2="31.292070"
       y2="32.262638" />
    <linearGradient
       inkscape:collect="always"
       xlink:href="#blacktowhite"
       id="linearGradient1765"
       gradientUnits="userSpaceOnUse"
       gradientTransform="matrix(1.010762,0.000000,0.000000,0.822154,23.61074,-117.5947)"
       x1="73.264740"
       y1="181.52489"
       x2="176.22551"
       y2="184.47394" />
    <linearGradient
       inkscape:collect="always"
       xlink:href="#light100to0"
       id="linearGradient1766"
       gradientUnits="userSpaceOnUse"
       gradientTransform="matrix(1.300366,0.000000,0.000000,0.639052,90.17212,-3.667700)"
       x1="23.340532"
       y1="43.278069"
       x2="57.909317"
       y2="93.793022" />
  </defs>
  <sodipodi:namedview
     id="base"
     pagecolor="#ffffff"
     bordercolor="#666666"
     borderopacity="1.0"
     inkscape:pageopacity="0.0"
     inkscape:pageshadow="2"
     inkscape:zoom="6.8125000"
     inkscape:cx="32.000000"
     inkscape:cy="31.344440"
     inkscape:current-layer="layer1"
     showgrid="true"
     inkscape:grid-bbox="true"
     gridspacingy="1.0000000pt"
     gridspacingx="1.0000000pt"
     gridoriginy="0.0000000pt"
     gridoriginx="0.0000000pt"
     inkscape:window-width="851"
     inkscape:window-height="595"
     inkscape:window-x="427"
     inkscape:window-y="335" />
  <metadata
     id="metadata4">
    <rdf:RDF
       id="RDF5">
      <cc:Work
         rdf:about=""
         id="Work6">
        <dc:format
           id="format7">image/svg+xml</dc:format>
        <dc:type
           id="type9"
           rdf:resource="http://purl.org/dc/dcmitype/StillImage" />
      </cc:Work>
    </rdf:RDF>
  </metadata>
  <g
     id="layer1"
     inkscape:label="Layer 1"
     inkscape:groupmode="layer">
    <g
       id="g2369"
       transform="matrix(0.978418,0.000000,0.000000,1.109308,-87.72093,3.205297)">
      <path
         style="fill:url(#linearGradient1764);fill-opacity:1.0000000;fill-rule:evenodd;stroke:url(#linearGradient1765);stroke-width:1.4863104;stroke-linecap:butt;stroke-linejoin:round;stroke-miterlimit:4.0000000;stroke-opacity:1.0000000"
         d="M 97.894261,59.024612 L 97.820192,36.038673 L 112.67212,23.497207 L 127.67212,33.676832 L 165.17212,4.2690420 L 165.17212,58.924900 L 97.894261,59.024612 z "
         id="path9018"
         sodipodi:nodetypes="ccccccc" />
      <path
         style="fill:url(#linearGradient1766);fill-opacity:1.0000000;fill-rule:evenodd;stroke:none;stroke-width:0.25000000pt;stroke-linecap:butt;stroke-linejoin:miter;stroke-opacity:1.0000000"
         d="M 112.78231,23.554463 L 127.66868,33.724515 L 164.43004,5.0000000 C 166.52288,45.751507 108.85038,62.414684 95.874600,37.604812 L 112.78231,23.554463 z "
         id="path9648"
         sodipodi:nodetypes="ccccc" />
    </g>
    <g
       id="g8364"
       transform="matrix(0.978418,0.000000,0.000000,1.109308,-0.131734,4.493977)">
      <path
         style="fill:#000000;fill-opacity:1.0000000;fill-rule:evenodd;stroke:none;stroke-width:4.1875000;stroke-linecap:round;stroke-linejoin:round;stroke-miterlimit:4.0000000;stroke-opacity:1.0000000"
         d="M 0.84416785,4.1562510 C 0.56498147,4.1812091 0.52210314,5.0612375 0.52742868,6.2175837 C 0.53275422,7.3739299 0.61971503,8.3155369 0.86345334,8.3437510 L 7.3323569,8.3437510 C 7.3989266,8.3544304 7.4608465,7.9577160 7.4944060,7.3055177 C 7.5279657,6.6533195 7.5279657,5.8466825 7.4944060,5.1944843 C 7.4608465,4.5422860 7.3989266,4.1455716 7.3323569,4.1562510 L 0.86345334,4.1562510 C 0.85702923,4.1524397 0.85059196,4.1524397 0.84416785,4.1562510 L 0.84416785,4.1562510 z "
         id="path7414"
         sodipodi:nodetypes="cccccccccc" />
      <path
         style="fill:url(#radialGradient1761);fill-opacity:1.0000000;fill-rule:evenodd;stroke:none;stroke-width:3.5504353;stroke-linecap:round;stroke-linejoin:round;stroke-miterlimit:4.0000000;stroke-opacity:1.0000000"
         d="M 6.1979173,4.2145529 L 0.93372796,4.2770529 C 0.86257386,4.2770529 0.80489206,5.0745457 0.80489206,6.0583029 C 0.80489206,7.0420601 0.86257386,7.8395529 0.93372796,7.8395529 L 6.1979173,7.7458029 C 6.2467500,7.8169269 6.2942412,7.4968115 6.3202650,6.9211140 C 6.3462890,6.3454164 6.3462890,5.6149394 6.3202650,5.0392418 C 6.2942412,4.4635443 6.2467500,4.1434289 6.1979173,4.2145529 z "
         id="path8036" />
      <path
         style="fill:url(#linearGradient1762);fill-opacity:1.0000000;fill-rule:evenodd;stroke:none;stroke-width:0.25000000pt;stroke-linecap:butt;stroke-linejoin:miter;stroke-opacity:1.0000000"
         d="M 0.96961066,4.6246546 C 2.7454994,4.6337806 4.4946394,4.6089167 6.2705281,4.6180406 C 6.2891568,7.5965849 2.7397255,6.2558479 0.95939386,6.3791379 C 0.86189166,6.3446919 0.77511776,4.6093707 0.96961066,4.6246546 z "
         id="path8037"
         sodipodi:nodetypes="cccc" />
      <path
         style="fill:url(#radialGradient1763);fill-opacity:1.0000000;fill-rule:evenodd;stroke:none;stroke-width:3.4314556;stroke-linecap:round;stroke-linejoin:round;stroke-miterlimit:4.0000000;stroke-opacity:1.0000000"
         d="M 5.8453138,4.2770529 L 0.92694716,4.3395529 C 0.85828966,4.3395529 0.80263176,5.1090635 0.80263176,6.0583029 C 0.80263176,7.0075423 0.85828966,7.7770529 0.92694716,7.7770529 L 5.8453138,7.7145529 C 5.9139713,7.7145529 5.9696292,6.9450423 5.9696292,5.9958029 C 5.9696292,5.0465635 5.9139713,4.2770529 5.8453138,4.2770529 z "
         id="path8038" />
    </g>
    <g
       id="g8369"
       transform="matrix(0.978418,0.000000,0.000000,1.109308,-0.347366,4.493977)">
      <path
         style="fill:#000000;fill-opacity:1.0000000;fill-rule:evenodd;stroke:none;stroke-width:4.1875000;stroke-linecap:round;stroke-linejoin:round;stroke-miterlimit:4.0000000;stroke-opacity:1.0000000"
         d="M 1.0645535,21.566719 C 0.78536714,21.591677 0.74248881,22.471706 0.74781435,23.628052 C 0.75313989,24.784398 0.84010070,25.726005 1.0838390,25.754219 L 7.5527426,25.754219 C 7.6193123,25.764899 7.6812322,25.368184 7.7147917,24.715986 C 7.7483514,24.063788 7.7483514,23.257151 7.7147917,22.604953 C 7.6812322,21.952754 7.6193123,21.556040 7.5527426,21.566719 L 1.0838390,21.566719 C 1.0774149,21.562908 1.0709776,21.562908 1.0645535,21.566719 L 1.0645535,21.566719 z "
         id="path8340"
         sodipodi:nodetypes="cccccccccc" />
      <path
         style="fill:url(#radialGradient1758);fill-opacity:1.0000000;fill-rule:evenodd;stroke:none;stroke-width:3.5504353;stroke-linecap:round;stroke-linejoin:round;stroke-miterlimit:4.0000000;stroke-opacity:1.0000000"
         d="M 6.4183030,21.625021 L 1.1541136,21.687521 C 1.0829595,21.687521 1.0252777,22.485014 1.0252777,23.468771 C 1.0252777,24.452528 1.0829595,25.250021 1.1541136,25.250021 L 6.4183030,25.156271 C 6.4671357,25.227395 6.5146269,24.907280 6.5406507,24.331582 C 6.5666747,23.755885 6.5666747,23.025408 6.5406507,22.449710 C 6.5146269,21.874013 6.4671357,21.553897 6.4183030,21.625021 z "
         id="path8341" />
      <path
         style="fill:url(#linearGradient1759);fill-opacity:1.0000000;fill-rule:evenodd;stroke:none;stroke-width:0.25000000pt;stroke-linecap:butt;stroke-linejoin:miter;stroke-opacity:1.0000000"
         d="M 1.1899963,22.035123 C 2.9658851,22.044249 4.7150251,22.019385 6.4909138,22.028509 C 6.5095425,25.007053 2.9601112,23.666316 1.1797795,23.789606 C 1.0822773,23.755160 0.99550343,22.019839 1.1899963,22.035123 z "
         id="path8342"
         sodipodi:nodetypes="cccc" />
      <path
         style="fill:url(#radialGradient1760);fill-opacity:1.0000000;fill-rule:evenodd;stroke:none;stroke-width:3.4314556;stroke-linecap:round;stroke-linejoin:round;stroke-miterlimit:4.0000000;stroke-opacity:1.0000000"
         d="M 6.0656995,21.687521 L 1.1473328,21.750021 C 1.0786753,21.750021 1.0230174,22.519532 1.0230174,23.468771 C 1.0230174,24.418011 1.0786753,25.187521 1.1473328,25.187521 L 6.0656995,25.125021 C 6.1343570,25.125021 6.1900149,24.355511 6.1900149,23.406271 C 6.1900149,22.457032 6.1343570,21.687521 6.0656995,21.687521 z "
         id="path8343" />
    </g>
    <g
       id="g8374"
       transform="matrix(0.978418,0.000000,0.000000,1.109308,-0.239545,4.493977)">
      <path
         style="fill:#000000;fill-opacity:1.0000000;fill-rule:evenodd;stroke:none;stroke-width:4.1875000;stroke-linecap:round;stroke-linejoin:round;stroke-miterlimit:4.0000000;stroke-opacity:1.0000000"
         d="M 0.95436066,39.197573 C 0.67517430,39.222531 0.63229597,40.102560 0.63762151,41.258906 C 0.64294705,42.415252 0.72990786,43.356859 0.97364616,43.385073 L 7.4425498,43.385073 C 7.5091195,43.395753 7.5710394,42.999038 7.6045989,42.346840 C 7.6381586,41.694642 7.6381586,40.888005 7.6045989,40.235807 C 7.5710394,39.583608 7.5091195,39.186894 7.4425498,39.197573 L 0.97364616,39.197573 C 0.96722206,39.193762 0.96078476,39.193762 0.95436066,39.197573 L 0.95436066,39.197573 z "
         id="path8347"
         sodipodi:nodetypes="cccccccccc" />
      <path
         style="fill:url(#radialGradient1755);fill-opacity:1.0000000;fill-rule:evenodd;stroke:none;stroke-width:3.5504353;stroke-linecap:round;stroke-linejoin:round;stroke-miterlimit:4.0000000;stroke-opacity:1.0000000"
         d="M 6.3081102,39.255875 L 1.0439208,39.318375 C 0.97276666,39.318375 0.91508486,40.115868 0.91508486,41.099625 C 0.91508486,42.083382 0.97276666,42.880875 1.0439208,42.880875 L 6.3081102,42.787125 C 6.3569429,42.858249 6.4044341,42.538134 6.4304579,41.962436 C 6.4564819,41.386739 6.4564819,40.656262 6.4304579,40.080564 C 6.4044341,39.504867 6.3569429,39.184751 6.3081102,39.255875 z "
         id="path8348" />
      <path
         style="fill:url(#linearGradient1756);fill-opacity:1.0000000;fill-rule:evenodd;stroke:none;stroke-width:0.25000000pt;stroke-linecap:butt;stroke-linejoin:miter;stroke-opacity:1.0000000"
         d="M 1.0798035,39.665977 C 2.8556923,39.675103 4.6048323,39.650239 6.3807210,39.659363 C 6.3993497,42.637907 2.8499184,41.297170 1.0695867,41.420460 C 0.97208446,41.386014 0.88531059,39.650693 1.0798035,39.665977 z "
         id="path8349"
         sodipodi:nodetypes="cccc" />
      <path
         style="fill:url(#radialGradient1757);fill-opacity:1.0000000;fill-rule:evenodd;stroke:none;stroke-width:3.4314556;stroke-linecap:round;stroke-linejoin:round;stroke-miterlimit:4.0000000;stroke-opacity:1.0000000"
         d="M 5.9555067,39.318375 L 1.0371400,39.380875 C 0.96848246,39.380875 0.91282456,40.150386 0.91282456,41.099625 C 0.91282456,42.048865 0.96848246,42.818375 1.0371400,42.818375 L 5.9555067,42.755875 C 6.0241642,42.755875 6.0798221,41.986365 6.0798221,41.037125 C 6.0798221,40.087886 6.0241642,39.318375 5.9555067,39.318375 z "
         id="path8350" />
    </g>
    <path
       style="fill:none;fill-opacity:0.75000000;fill-rule:evenodd;stroke:#000000;stroke-width:4.4599805;stroke-linecap:round;stroke-linejoin:round;stroke-miterlimit:4.0000000;stroke-opacity:1.0000000"
       d="M 6.8633163,6.2960363 L 6.7334420,69.127556 L 75.994030,69.037833"
       id="path7404"
       sodipodi:nodetypes="ccc" />
    <path
       style="fill:none;fill-opacity:0.75000000;fill-rule:evenodd;stroke:url(#radialGradient1754);stroke-width:3.7889631;stroke-linecap:round;stroke-linejoin:round;stroke-miterlimit:4.0000000;stroke-opacity:1.0000000"
       d="M 6.7226619,69.127556 L 75.609003,69.037833"
       id="path7405"
       sodipodi:nodetypes="cc" />
    <path
       style="fill:url(#linearGradient1753);fill-opacity:1.0000000;fill-rule:evenodd;stroke:none;stroke-width:0.25000000pt;stroke-linecap:butt;stroke-linejoin:miter;stroke-opacity:1.0000000"
       d="M 76.035104,67.401493 C 53.693307,67.412469 31.688033,67.382554 9.3462429,67.393530 C 9.1118820,70.977842 53.765945,69.364433 76.163639,69.512795 C 77.390271,69.471345 78.481941,67.383094 76.035104,67.401493 z "
       id="path6666"
       sodipodi:nodetypes="cccc" />
    <path
       style="fill:url(#linearGradient1752);fill-opacity:1.0000000;fill-rule:evenodd;stroke:none;stroke-width:0.25000000pt;stroke-linecap:butt;stroke-linejoin:miter;stroke-opacity:1.0000000"
       d="M 5.0624869,6.3215330 C 5.1059894,27.776058 4.8243272,68.986960 5.1917311,69.626616 C 7.8145462,69.574069 7.1814773,27.704254 7.3073352,6.1958863 C 7.3320423,4.3748398 5.0409676,4.1708497 5.0624869,6.3215330 z "
       id="path6040"
       sodipodi:nodetypes="cccc" />
    <path
       style="fill:none;fill-opacity:0.75000000;fill-rule:evenodd;stroke:url(#radialGradient1751);stroke-width:3.6525993;stroke-linecap:round;stroke-linejoin:round;stroke-miterlimit:4.0000000;stroke-opacity:1.0000000"
       d="M 6.9802892,69.127556 L 70.997464,69.037833"
       id="path7412"
       sodipodi:nodetypes="cc" />
    <g
       id="g5319"
       transform="matrix(1.068525,0.000000,0.000000,1.105091,-57.30725,-4.640951)">
      <path
         style="fill:#000000;fill-opacity:0.099999972;stroke:none;stroke-width:0.33090088;stroke-linejoin:round;stroke-miterlimit:4.0000000;stroke-opacity:0.087499984"
         d="M 49.642323,8.0001778 C 49.372088,7.9239165 49.143500,7.9742629 48.997792,8.0259591 C 48.707121,8.1287244 48.209310,8.4631233 48.224355,9.5212716 L 48.379042,20.736115 C 48.387375,21.390736 47.896229,22.199149 47.322011,22.437678 L 37.473573,26.536897 C 36.545207,26.916831 36.449052,27.500615 36.468105,27.825959 C 36.487155,28.151303 36.675181,28.771269 37.654042,29.140803 L 47.992323,33.033772 C 48.593156,33.264079 49.183401,34.029185 49.255605,34.683772 L 50.467323,45.898615 C 50.584236,46.955358 51.119057,47.295999 51.421230,47.393928 C 51.724844,47.491327 52.326557,47.529309 52.916537,46.697834 L 59.155600,37.880647 C 59.195381,37.824222 59.285372,37.802851 59.336077,37.751740 L 74.960820,78.233670 C 75.291233,79.139543 75.465308,79.914809 76.476940,79.545829 L 78.616792,78.746611 C 79.628423,78.377628 79.516982,77.406726 79.186586,76.500854 L 65.023997,38.070628 L 71.607952,40.046272 C 72.608941,40.315180 73.038650,39.924934 73.206389,39.659553 C 73.374095,39.394170 73.563268,38.812669 72.948577,37.932209 L 66.451702,28.573615 C 66.080386,28.037463 66.018065,27.051550 66.322787,26.511115 L 71.659514,17.049397 C 72.161428,16.157718 71.911090,15.583814 71.711077,15.322053 C 71.511047,15.060289 71.028472,14.676474 70.061077,14.961115 L 59.800139,18.003303 C 59.213828,18.177147 58.313192,17.884381 57.892327,17.384553 L 50.570448,8.6962716 C 50.224653,8.2874214 49.912559,8.0764375 49.642323,8.0001778 z "
         id="path1816"
         sodipodi:nodetypes="cccccccccccccccccccccccccccccccc"
         transform="matrix(1.095529,-0.161395,6.257485e-2,0.996904,26.11163,9.028099)" />
      <path
         transform="matrix(0.687595,-0.336290,0.358030,0.727112,39.95577,47.05260)"
         style="fill:#000000;fill-opacity:1.0000000;stroke:none;stroke-width:0.96249998;stroke-linecap:round;stroke-linejoin:round;stroke-miterlimit:4.0000000;stroke-dashoffset:0.0000000;stroke-opacity:0.036734644"
         d="M 65.925620,8.9076719 L 68.692072,8.9076719 C 69.997314,8.9076719 71.048105,9.8486074 71.048105,11.017393 L 71.048105,68.739583 C 71.048105,69.908368 69.997314,70.849303 68.692072,70.849303 L 65.925620,70.849303 C 64.620378,70.849303 63.569588,69.908368 63.569588,68.739583 L 63.569588,11.017393 C 63.569588,9.8486074 64.620378,8.9076719 65.925620,8.9076719 z "
         id="rect1353" />
      <path
         style="fill:url(#radialGradient1469);fill-opacity:1.0000000;stroke:none;stroke-width:0.96249998;stroke-linecap:round;stroke-linejoin:round;stroke-miterlimit:4.0000000;stroke-dashoffset:0.0000000;stroke-opacity:0.036734644"
         d="M 67.698064,-9.5640421 L 70.049498,-10.382516 C 71.158930,-10.768681 71.220131,-9.9611296 71.565925,-8.9676817 L 89.274498,39.602494 C 89.620291,40.595940 89.401634,41.945506 88.292201,42.331672 L 86.107092,43.020303 C 84.997659,43.406469 84.671708,42.988309 84.325915,41.994862 L 66.319656,-7.0737685 C 65.973862,-8.0672161 66.588632,-9.1778771 67.698064,-9.5640421 z "
         id="path1976"
         transform="matrix(0.768650,-6.678086e-2,0.100746,0.798325,39.95577,47.05260)"
         sodipodi:nodetypes="ccccccccc" />
      <path
         style="fill:url(#linearGradient1470);fill-opacity:1.0000000;fill-rule:evenodd;stroke:none;stroke-width:0.25354896pt;stroke-linecap:butt;stroke-linejoin:miter;stroke-opacity:1.0000000"
         d="M 89.796171,31.583299 C 95.586901,43.397423 99.978180,48.744941 104.04718,61.111926 C 106.01110,67.080912 105.84096,67.882372 105.10246,68.243230 C 98.304010,54.678799 95.119508,47.849479 88.321031,34.285051 C 88.977014,33.493981 89.140186,32.374368 89.796171,31.583299 z "
         id="path2607"
         sodipodi:nodetypes="csccc" />
      <path
         style="fill:url(#linearGradient1471);fill-opacity:1.0000000;fill-rule:evenodd;stroke:none;stroke-width:0.012500000;stroke-linecap:butt;stroke-linejoin:miter;stroke-miterlimit:4.0000000;stroke-opacity:1.0000000"
         d="M 48.811637,26.089317 C 48.813292,25.635300 48.814948,25.181281 48.816605,24.727272 C 48.818261,24.273254 48.819916,23.819236 48.821581,23.365219 C 48.812842,22.871707 48.951671,22.570907 49.337771,22.540552 C 50.618106,22.535949 51.898433,22.531354 53.178768,22.526759 C 54.459103,22.522165 55.739429,22.517570 57.019765,22.512967 C 56.962739,23.974627 51.485706,23.674168 50.721596,23.760146 C 49.320058,23.917847 50.361741,25.555093 48.811637,26.089317 z "
         id="path6094"
         transform="matrix(1.095529,-0.161395,6.257485e-2,0.996904,26.11163,9.028099)" />
      <path
         d="M 108.72185,24.316186 C 108.62520,24.510332 108.44340,24.762996 108.10957,24.939135 C 108.44415,24.763528 108.63235,24.524373 108.73469,24.341386 C 108.89565,24.055314 109.04957,23.524181 108.67978,22.836739 C 108.98918,23.520791 108.86198,24.033236 108.72185,24.316186 z "
         id="path1106"
         style="fill:url(#linearGradient1472)" />
      <path
         d="M 67.970791,12.389828 C 67.780948,12.132512 67.325030,11.742237 66.406859,12.022041 L 56.682194,15.010535 C 56.125721,15.181425 55.256373,14.891232 54.856916,14.399898 L 47.913452,5.8560929 C 47.257056,5.0522896 46.697615,5.1035164 46.421028,5.2051498 C 46.145151,5.3061702 45.685132,5.6329304 45.699412,6.6730995 L 45.848254,17.712472 C 45.856164,18.355970 45.384514,19.128446 44.839518,19.362921 L 35.494127,23.393973 C 34.613007,23.767453 34.511732,24.359433 34.529812,24.679248 C 34.547894,24.999064 34.717694,25.589646 35.646739,25.952900 L 45.459941,29.786664 C 46.030199,30.013058 46.594678,30.777313 46.663207,31.420775 L 47.825903,42.446661 C 47.936866,43.485447 48.435260,43.800908 48.722056,43.897173 C 49.010221,43.992917 49.576053,44.031913 50.136015,43.214566 L 56.054119,34.549858 C 56.400044,34.041671 57.219822,33.738505 57.809292,33.900637 L 67.874028,36.693806 C 68.824077,36.958146 69.232425,36.559735 69.391613,36.298863 C 69.550801,36.037991 69.729723,35.470734 69.146315,34.605234 L 62.988715,25.411862 C 62.636289,24.884819 62.578724,23.921488 62.867933,23.390235 L 67.929806,14.085138 C 68.406172,13.208611 68.160634,12.647142 67.970791,12.389828 z "
         id="path1107"
         style="fill:url(#radialGradient1473);stroke:url(#linearGradient1474);stroke-width:0.27299324;stroke-linejoin:round;stroke-miterlimit:4.0000000;stroke-opacity:0.41874996"
         transform="matrix(1.095529,-0.161395,6.257485e-2,0.996904,26.11163,9.028099)" />
      <path
         d="M 61.990082,22.112126 L 65.049047,15.927623 C 65.416909,15.183759 65.205288,14.694928 65.045695,14.469160 C 64.886625,14.243194 64.508443,13.897420 63.769064,14.118442 L 55.942795,16.478315 C 55.494764,16.613596 54.783737,16.344391 54.449113,15.912614 L 48.631896,8.4057430 C 48.082596,7.6993054 47.629460,7.7314458 47.407465,7.8125672 C 47.185730,7.8935905 46.819498,8.1648604 46.853490,9.0602766 L 47.210775,18.567077 C 47.231062,19.121111 46.865132,19.775900 46.427743,19.965558 L 38.931697,23.231213 C 38.224850,23.533198 38.155189,24.040541 38.176944,24.316531 C 38.198583,24.592209 38.348728,25.104393 39.110463,25.437332 L 47.154460,28.952668 C 47.621973,29.159781 48.096508,29.830501 48.165858,30.385845 L 48.203872,30.690211 C 49.051802,30.451466 49.900582,30.177133 50.747082,29.855580 C 55.369458,28.099712 59.221704,25.346209 61.990082,22.112126 z "
         id="path1108"
         style="fill:url(#linearGradient1475)"
         transform="matrix(1.095529,-0.161395,6.257485e-2,0.996904,26.11163,9.028099)" />
      <path
         d="M 109.10166,24.203836 C 109.00342,24.398914 108.81908,24.653001 108.48170,24.830910 C 108.81984,24.653531 109.01058,24.412967 109.11451,24.229062 C 109.27795,23.941547 109.43525,23.408284 109.06494,22.720230 C 109.37435,23.405111 109.24408,23.919533 109.10166,24.203836 z "
         id="path1109"
         style="fill:url(#linearGradient1476)" />
      <path
         d="M 57.095660,31.977473 C 56.486970,31.778631 55.658496,32.084749 55.321434,32.631856 L 50.004104,43.168761 C 49.458452,44.048947 48.878004,43.987081 48.580108,43.871470 C 48.368078,43.788852 48.042692,43.573076 47.819605,43.039864 C 48.016138,43.628162 48.370781,43.842786 48.597359,43.917818 C 48.887914,44.012859 49.458900,44.050151 50.026617,43.229252 L 56.026757,34.526942 C 56.377484,34.016551 57.205847,33.710132 57.800311,33.870753 L 67.950248,36.638174 C 68.428767,36.768986 68.771860,36.734494 69.015270,36.634131 C 68.772084,36.735096 68.425519,36.760259 67.935575,36.598748 L 57.095660,31.977473 z "
         id="path1110"
         style="opacity:0.29999998;fill:#e89500"
         transform="matrix(1.095529,-0.161395,6.257485e-2,0.996904,26.11163,9.028099)" />
    </g>
  </g>
</svg>
