<?xml version="1.0" encoding="UTF-8" standalone="no"?>
<!DOCTYPE svg PUBLIC "-//W3C//DTD SVG 20010904//EN"
"http://www.w3.org/TR/2001/REC-SVG-20010904/DTD/svg10.dtd">
<svg
   height="60"
   width="60"
   _SVGFile__filename="oldscale/actions/ark_new.svg"
   version="1.0"
   y="0"
   x="0"
   id="svg1"
   xmlns="http://www.w3.org/2000/svg"
   xmlns:xlink="http://www.w3.org/1999/xlink"
   xmlns:sodipodi="http://sodipodi.sourceforge.net/DTD/sodipodi-0.dtd"
   xmlns:inkscape="http://www.inkscape.org/namespaces/inkscape"
   sodipodi:version="0.32"
   inkscape:version="0.40"
   xmlns:rdf="http://www.w3.org/1999/02/22-rdf-syntax-ns#"
   xmlns:cc="http://web.resource.org/cc/"
   xmlns:dc="http://purl.org/dc/elements/1.1/"
   sodipodi:docname="ark_new.svg"
   sodipodi:docbase="/home/danny/work/flat/SVG/mono/scalable/actions">
  <sodipodi:namedview
     id="base"
     pagecolor="#ffffff"
     bordercolor="#666666"
     borderopacity="1.0"
     inkscape:pageopacity="0.0"
     inkscape:pageshadow="2"
     inkscape:zoom="7.2207390"
     inkscape:cx="28.791339"
     inkscape:cy="24.184726"
     inkscape:window-width="1024"
     inkscape:window-height="699"
     inkscape:window-x="0"
     inkscape:window-y="0"
     inkscape:current-layer="svg1" />
  <defs
     id="defs3">
    <linearGradient
       id="linearGradient900">
      <stop
         style="stop-color: #000000;stop-opacity: 1.0;"
         id="stop901"
         offset="0" />
      <stop
         style="stop-color:#ffffff;stop-opacity:1;"
         id="stop902"
         offset="1" />
    </linearGradient>
    <linearGradient
       xlink:href="#linearGradient900"
       id="linearGradient903" />
    <linearGradient
       xlink:href="#linearGradient900"
       id="linearGradient904" />
    <linearGradient
       xlink:href="#linearGradient900"
       id="linearGradient905" />
    <linearGradient
       xlink:href="#linearGradient900"
       id="linearGradient906" />
    <linearGradient
       xlink:href="#linearGradient900"
       id="linearGradient907" />
  </defs>
  <path
     style="font-size:12.000000;fill:none;fill-opacity:1.0000000;fill-rule:evenodd;stroke:#ffffff;stroke-width:8.1250000;stroke-linejoin:round;stroke-opacity:1.0000000;stroke-miterlimit:4.0000000;stroke-dasharray:none;"
     d="M 6.6825810,4.6879174 C 5.5771860,4.6879174 4.6872830,5.5841544 4.6872830,6.6974174 L 4.6872830,53.302583 C 4.6872830,54.415846 5.5771860,55.312083 6.6825810,55.312083 L 53.317412,55.312083 C 54.422807,55.312083 55.312710,54.415846 55.312710,53.302583 L 55.312710,6.6974174 C 55.312710,5.5841544 54.422807,4.6879174 53.317412,4.6879174 L 6.6825810,4.6879174 z "
     id="path1099" />
  <g
     style="font-size:12.000000"
     transform="matrix(0.997649,0.000000,0.000000,1.004750,1.969380e-2,-0.452898)"
     id="g1568">
    <path
       style="fill:#ffffff;fill-opacity:1.0000000;fill-rule:evenodd;stroke:#000000;stroke-width:3.1212747;stroke-linejoin:round;stroke-opacity:1.0000000"
       d="M 6.6785920,5.1165120 C 5.5705920,5.1165120 4.6785920,6.0085120 4.6785920,7.1165120 L 4.6785920,53.501350 C 4.6785920,54.609350 5.5705920,55.501350 6.6785920,55.501350 L 53.423320,55.501350 C 54.531320,55.501350 55.423320,54.609350 55.423320,53.501350 L 55.423320,7.1165120 C 55.423320,6.0085120 54.531320,5.1165120 53.423320,5.1165120 L 6.6785920,5.1165120 z "
       id="rect812" />
    <path
       style="font-weight:900;fill:#000000;fill-opacity:1.0000000;stroke-width:1.0000000;font-family:VAG Rounded Black SSi"
       d="M 25.296240,25.554220 L 25.296240,14.851720 C 25.296240,13.354540 25.705630,12.138080 26.524400,11.202340 C 27.343170,10.243210 28.512840,9.7636420 30.033410,9.7636420 C 31.553990,9.7636420 32.723660,10.243210 33.542430,11.202340 C 34.384590,12.138080 34.805680,13.354540 34.805680,14.851720 L 34.805680,25.554220 L 45.367820,25.554220 C 46.911780,25.554220 48.128240,25.975300 49.017190,26.817460 C 49.929540,27.636230 50.385710,28.794210 50.385710,30.291390 C 50.385710,31.811960 49.929540,32.993330 49.017190,33.835490 C 48.128240,34.677660 46.911780,35.098740 45.367820,35.098740 L 34.805680,35.098740 L 34.805680,45.766150 C 34.805680,47.286720 34.384590,48.514880 33.542430,49.450620 C 32.700270,50.386360 31.530590,50.854220 30.033410,50.854220 C 28.536230,50.854220 27.366560,50.386360 26.524400,49.450620 C 25.705630,48.514880 25.296240,47.286720 25.296240,45.766150 L 25.296240,35.098740 L 14.734100,35.098740 C 13.236920,35.098740 12.020460,34.642570 11.084730,33.730220 C 10.172380,32.794490 9.7162080,31.648210 9.7162080,30.291390 C 9.7162080,28.794210 10.160680,27.636230 11.049640,26.817460 C 11.961980,25.975300 13.190130,25.554220 14.734100,25.554220 L 25.296240,25.554220 z "
       id="path838" />
  </g>
  <metadata
     id="metadata14">
    <RDF
       id="RDF15">
      <Work
         about=""
         id="Work16">
        <title
           id="title17">Part of the Flat Icon Collection (Thu Aug 26 14:38:01 2004)</title>
        <description
           id="description19" />
        <subject
           id="subject20">
          <Bag
             id="Bag21">
            <li
               id="li22" />
          </Bag>
        </subject>
        <publisher
           id="publisher23">
          <Agent
             about=""
             id="Agent24">
            <title
               id="title25" />
          </Agent>
        </publisher>
        <creator
           id="creator26">
          <Agent
             about=""
             id="Agent27">
            <title
               id="title28">Danny Allen</title>
          </Agent>
        </creator>
        <rights
           id="rights30">
          <Agent
             about=""
             id="Agent31">
            <title
               id="title32">Danny Allen</title>
          </Agent>
        </rights>
        <date
           id="date34" />
        <format
           id="format35">image/svg+xml</format>
        <type
           id="type37"
           resource="http://purl.org/dc/dcmitype/StillImage" />
        <license
           id="license38"
           resource="http://creativecommons.org/licenses/LGPL/2.1/">
          <date
             id="date39" />
        </license>
        <language
           id="language40">en</language>
      </Work>
    </RDF>
    <rdf:RDF
       id="RDF43">
      <cc:Work
         rdf:about=""
         id="Work44">
        <dc:format
           id="format45">image/svg+xml</dc:format>
        <dc:type
           id="type47"
           rdf:resource="http://purl.org/dc/dcmitype/StillImage" />
      </cc:Work>
    </rdf:RDF>
  </metadata>
</svg>
