<?xml version="1.0" encoding="UTF-8" standalone="no"?>
<!DOCTYPE svg PUBLIC "-//W3C//DTD SVG 20010904//EN"
"http://www.w3.org/TR/2001/REC-SVG-20010904/DTD/svg10.dtd">
<svg
   height="60"
   width="60"
   _SVGFile__filename="oldscale/actions/1day.svg"
   version="1.0"
   y="0"
   x="0"
   id="svg1"
   sodipodi:version="0.32"
   inkscape:version="0.40"
   sodipodi:docname="1day.svg"
   sodipodi:docbase="/home/danny/work/flat/SVG/mono/scalable/actions"
   xmlns="http://www.w3.org/2000/svg"
   xmlns:cc="http://web.resource.org/cc/"
   xmlns:inkscape="http://www.inkscape.org/namespaces/inkscape"
   xmlns:sodipodi="http://sodipodi.sourceforge.net/DTD/sodipodi-0.dtd"
   xmlns:rdf="http://www.w3.org/1999/02/22-rdf-syntax-ns#"
   xmlns:dc="http://purl.org/dc/elements/1.1/"
   xmlns:xlink="http://www.w3.org/1999/xlink">
  <sodipodi:namedview
     id="base"
     pagecolor="#ffffff"
     bordercolor="#666666"
     borderopacity="1.0"
     inkscape:pageopacity="0.0"
     inkscape:pageshadow="2"
     inkscape:zoom="7.8011356"
     inkscape:cx="57.281734"
     inkscape:cy="25.336375"
     inkscape:window-width="1024"
     inkscape:window-height="698"
     inkscape:window-x="0"
     inkscape:window-y="0"
     inkscape:current-layer="svg1" />
  <defs
     id="defs3">
    <linearGradient
       id="linearGradient1160">
      <stop
         style="stop-color: #000000;stop-opacity: 1.0;"
         id="stop1161"
         offset="0" />
      <stop
         style="stop-color:#ffffff;stop-opacity:1;"
         id="stop1162"
         offset="1" />
    </linearGradient>
    <linearGradient
       xlink:href="#linearGradient1160"
       id="linearGradient1163" />
  </defs>
  <metadata
     id="metadata12">
    <RDF
       id="RDF13">
      <Work
         about=""
         id="Work14">
        <title
           id="title15">Part of the Flat Icon Collection (Thu Aug 26 14:38:01 2004)</title>
        <description
           id="description17" />
        <subject
           id="subject18">
          <Bag
             id="Bag19">
            <li
               id="li20" />
          </Bag>
        </subject>
        <publisher
           id="publisher21">
          <Agent
             about=""
             id="Agent22">
            <title
               id="title23" />
          </Agent>
        </publisher>
        <creator
           id="creator24">
          <Agent
             about=""
             id="Agent25">
            <title
               id="title26">Danny Allen</title>
          </Agent>
        </creator>
        <rights
           id="rights28">
          <Agent
             about=""
             id="Agent29">
            <title
               id="title30">Danny Allen</title>
          </Agent>
        </rights>
        <date
           id="date32" />
        <format
           id="format33">image/svg+xml</format>
        <type
           id="type35"
           resource="http://purl.org/dc/dcmitype/StillImage" />
        <license
           id="license36"
           resource="http://creativecommons.org/licenses/LGPL/2.1/">
          <date
             id="date37" />
        </license>
        <language
           id="language38">en</language>
      </Work>
    </RDF>
    <rdf:RDF
       id="RDF40">
      <cc:Work
         rdf:about=""
         id="Work41">
        <dc:format
           id="format42">image/svg+xml</dc:format>
        <dc:type
           id="type44"
           rdf:resource="http://purl.org/dc/dcmitype/StillImage" />
      </cc:Work>
    </rdf:RDF>
  </metadata>
  <g
     id="g1754"
     transform="translate(75.00000,-0.156249)"
     style="stroke:#ffffff;stroke-opacity:1.0000000">
    <path
       style="font-size:12.000000;fill:none;fill-rule:evenodd;stroke-width:7.5000000;stroke-linecap:round;stroke-linejoin:round;stroke-miterlimit:4.0000000"
       d="M -65.049936,12.176268 C -66.230321,12.176268 -67.180595,13.126542 -67.180595,14.306927 L -67.180595,52.850957 C -67.180595,54.031342 -66.230321,54.981615 -65.049936,54.981615 L -25.028180,54.981615 C -23.847795,54.981615 -22.897522,54.031342 -22.897522,52.850957 L -22.897522,14.306927 C -22.897522,13.126542 -23.847795,12.176268 -25.028180,12.176268 L -65.049936,12.176268 z "
       id="path1120" />
    <path
       style="font-size:12.000000;fill:none;fill-opacity:1.0000000;fill-rule:evenodd;stroke-width:8.6835899;stroke-linecap:round;stroke-linejoin:round;stroke-miterlimit:4.0000000"
       d="M 4.5192420,5.6563500 C 3.4112420,5.6563500 2.5192420,6.5483500 2.5192420,7.6563500 L 2.5192420,15.172880 C 2.5192420,16.280880 3.4112420,17.172880 4.5192420,17.172880 L 51.983760,17.172880 C 53.091760,17.172880 53.983760,16.280880 53.983760,15.172880 L 53.983760,7.6563500 C 53.983760,6.5483500 53.091760,5.6563500 51.983760,5.6563500 L 4.5192420,5.6563500 z "
       transform="matrix(0.995882,0.000000,0.000000,0.749059,-73.13515,1.093944)"
       id="path1122" />
  </g>
  <rect
     style="font-size:12.000000;fill:#ffffff;fill-opacity:1.0000000;fill-rule:evenodd;stroke:none;stroke-width:2.9053099;stroke-opacity:1.0000000"
     rx="2.1306579"
     ry="2.4650660"
     height="42.805317"
     width="44.283054"
     y="12.020015"
     x="7.8194118"
     id="rect1833" />
  <path
     style="font-size:12.000000;fill:none;fill-rule:evenodd;stroke:#000000;stroke-width:2.5589740;stroke-linecap:round;stroke-linejoin:round;stroke-miterlimit:4.0000000;stroke-opacity:1.0000000;"
     d="M 9.6180310,11.971091 C 8.4098010,11.971091 7.4371110,12.943781 7.4371110,14.152011 L 7.4371110,53.605281 C 7.4371110,54.813511 8.4098010,55.786201 9.6180310,55.786201 L 50.583886,55.786201 C 51.792116,55.786201 52.764806,54.813511 52.764806,53.605281 L 52.764806,14.152011 C 52.764806,12.943781 51.792116,11.971091 50.583886,11.971091 L 9.6180310,11.971091 z "
     id="path1840"
     transform="matrix(0.976954,0.000000,0.000000,0.976954,0.553695,0.324814)" />
  <path
     style="font-size:12.000000;fill:#000000;fill-opacity:1.0000000;fill-rule:evenodd;stroke:#000000;stroke-width:2.8945312;stroke-linecap:round;stroke-linejoin:round;stroke-opacity:1.0000000;"
     d="M 4.5192420,5.6563500 C 3.4112420,5.6563500 2.5192420,6.5483500 2.5192420,7.6563500 L 2.5192420,15.172880 C 2.5192420,16.280880 3.4112420,17.172880 4.5192420,17.172880 L 51.983760,17.172880 C 53.091760,17.172880 53.983760,16.280880 53.983760,15.172880 L 53.983760,7.6563500 C 53.983760,6.5483500 53.091760,5.6563500 51.983760,5.6563500 L 4.5192420,5.6563500 z "
     transform="matrix(0.995882,0.000000,0.000000,0.749059,1.864852,0.937695)"
     id="path1843" />
  <path
     id="path838"
     style="font-size:12.000000;fill:#000000;fill-opacity:1.0000000;stroke-width:1.0000000;font-family:VAG Rounded Black SSi"
     d="M 37.516220,20.760234 C 38.999547,20.760234 40.360333,21.012414 41.598586,21.516775 C 42.849738,22.021136 43.900968,22.697727 44.752265,23.546529 C 45.603561,24.383029 46.267833,25.379461 46.745080,26.535803 C 47.222319,27.679844 47.460947,28.903846 47.460947,30.207809 C 47.460947,31.979222 46.925651,33.984375 45.855088,36.223248 C 44.797405,38.462131 43.488213,40.602595 41.927504,42.644648 C 40.366786,44.674401 38.857662,46.347405 37.400133,47.663676 C 37.116373,47.922007 36.690721,48.223387 36.123192,48.567837 C 35.839424,48.752357 35.446022,48.844618 34.942978,48.844618 C 34.362551,48.844618 33.743419,48.549377 33.085601,47.958907 C 32.440672,47.356135 32.118208,46.716455 32.118208,46.039873 C 32.118208,45.806143 32.182710,45.578563 32.311687,45.357133 C 32.440672,45.123403 32.653503,44.834322 32.950162,44.489881 C 33.311322,44.059321 33.943351,43.364289 34.846242,42.404768 C 35.762032,41.432946 36.484343,40.657946 37.013185,40.079783 C 37.542026,39.501603 38.012810,38.929592 38.425564,38.363722 L 38.348174,38.289911 C 37.651660,38.597451 36.819706,38.751212 35.852322,38.751212 C 34.317401,38.751212 32.917920,38.363722 31.653869,37.588720 C 30.389818,36.801420 29.390192,35.749647 28.654973,34.433375 C 27.932663,33.104814 27.571502,31.696291 27.571502,30.207809 C 27.571502,28.953047 27.810121,27.765955 28.287369,26.646513 C 28.764606,25.514771 29.454685,24.506050 30.357567,23.620338 C 31.273366,22.722327 32.337484,22.021136 33.549941,21.516775 C 34.775296,21.012414 36.097395,20.760234 37.516220,20.760234 z M 37.516220,34.175054 C 38.625488,34.175054 39.528388,33.799854 40.224902,33.049463 C 40.921416,32.299072 41.269677,31.351850 41.269677,30.207809 C 41.269677,29.112968 40.927869,28.178055 40.244245,27.403055 C 39.573529,26.628063 38.664183,26.240562 37.516220,26.240562 C 36.406952,26.240562 35.497616,26.628063 34.788194,27.403055 C 34.091680,28.165755 33.743419,29.100667 33.743419,30.207809 C 33.743419,31.290340 34.072329,32.225253 34.730155,33.012553 C 35.400872,33.787554 36.329560,34.175054 37.516220,34.175054 z M 17.491345,45.615463 L 17.491345,26.461992 L 15.150277,26.461992 C 14.260285,26.461992 13.589559,26.209812 13.138118,25.705451 C 12.686668,25.201090 12.460947,24.586009 12.460947,23.860218 C 12.460947,23.146727 12.699566,22.525507 13.176814,21.996536 C 13.666950,21.467575 14.324777,21.203085 15.150277,21.203085 L 20.780463,21.203085 C 21.335093,21.203085 21.812339,21.326105 22.212186,21.572135 C 22.612042,21.805865 22.915154,22.125705 23.121531,22.531657 C 23.327908,22.925307 23.431097,23.392758 23.431097,23.934029 L 23.431097,45.615463 C 23.431097,46.574985 23.160227,47.313076 22.618496,47.829737 C 22.076755,48.346407 21.360890,48.604738 20.470897,48.604738 C 19.593803,48.604738 18.877938,48.340257 18.323298,47.811287 C 17.768669,47.282325 17.491345,46.550385 17.491345,45.615463 z " />
</svg>
