<?xml version="1.0" encoding="UTF-8" standalone="no"?>
<!DOCTYPE svg PUBLIC "-//W3C//DTD SVG 20010904//EN"
"http://www.w3.org/TR/2001/REC-SVG-20010904/DTD/svg10.dtd">
<svg
   height="60"
   width="60"
   _SVGFile__filename="oldscale/actions/edit_picture.svg"
   version="1.0"
   y="0"
   x="0"
   id="svg1"
   sodipodi:version="0.32"
   inkscape:version="0.40"
   sodipodi:docname="frame_edit.svg"
   sodipodi:docbase="/home/danny/work/flat/SVG/mono/scalable/actions/d"
   xmlns="http://www.w3.org/2000/svg"
   xmlns:cc="http://web.resource.org/cc/"
   xmlns:inkscape="http://www.inkscape.org/namespaces/inkscape"
   xmlns:sodipodi="http://sodipodi.sourceforge.net/DTD/sodipodi-0.dtd"
   xmlns:rdf="http://www.w3.org/1999/02/22-rdf-syntax-ns#"
   xmlns:dc="http://purl.org/dc/elements/1.1/"
   xmlns:xlink="http://www.w3.org/1999/xlink">
  <sodipodi:namedview
     id="base"
     pagecolor="#ffffff"
     bordercolor="#666666"
     borderopacity="1.0"
     inkscape:pageopacity="0.0"
     inkscape:pageshadow="2"
     inkscape:zoom="4.9119411"
     inkscape:cx="42.703053"
     inkscape:cy="19.876520"
     inkscape:window-width="1024"
     inkscape:window-height="699"
     inkscape:window-x="0"
     inkscape:window-y="0"
     inkscape:current-layer="svg1" />
  <defs
     id="defs3">
    <linearGradient
       id="linearGradient772">
      <stop
         style="stop-color: #000000;stop-opacity: 1.0;"
         id="stop773"
         offset="0" />
      <stop
         style="stop-color:#ffffff;stop-opacity:1;"
         id="stop774"
         offset="1" />
    </linearGradient>
    <linearGradient
       xlink:href="#linearGradient772"
       id="linearGradient775" />
  </defs>
  <g
     id="g1787"
     transform="translate(1.126083,-1.980321)">
    <rect
       style="font-size:12.000000;fill:none;fill-opacity:1.0000000;fill-rule:evenodd;stroke:#ffffff;stroke-width:8.1250000;stroke-linecap:round;stroke-linejoin:round;stroke-miterlimit:4.0000000;stroke-dashoffset:0.0000000;stroke-opacity:1.0000000"
       rx="1.8076620"
       height="40.989349"
       width="47.653709"
       y="8.1820564"
       x="5.1225548"
       id="rect1767" />
    <path
       style="font-size:12.000000;fill:none;fill-opacity:1.0000000;fill-rule:evenodd;stroke:#ffffff;stroke-width:6.8750000;stroke-linejoin:round;stroke-miterlimit:4.0000000;stroke-opacity:1.0000000"
       d="M 3.1104420,6.0428280 C 3.0140320,6.0428280 2.9364170,6.1204420 2.9364170,6.2168520 L 2.9364170,10.456471 C 2.9364170,10.552881 3.0140320,10.630497 3.1104420,10.630497 L 7.3500610,10.630497 C 7.4464710,10.630497 7.5240860,10.552881 7.5240860,10.456471 L 7.5240860,6.2168520 C 7.5240860,6.1204420 7.4464710,6.0428280 7.3500610,6.0428280 L 3.1104420,6.0428280 z "
       id="path1768" />
    <path
       style="font-size:12.000000;fill:none;fill-opacity:1.0000000;fill-rule:evenodd;stroke:#ffffff;stroke-width:6.8750000;stroke-linejoin:round;stroke-miterlimit:4.0000000;stroke-opacity:1.0000000"
       d="M 50.400952,6.0428210 C 50.304540,6.0428210 50.226926,6.1204370 50.226926,6.2168460 L 50.226926,10.456463 C 50.226926,10.552875 50.304540,10.630489 50.400952,10.630489 L 54.640569,10.630489 C 54.736980,10.630489 54.814594,10.552875 54.814594,10.456463 L 54.814594,6.2168460 C 54.814594,6.1204370 54.736980,6.0428210 54.640569,6.0428210 L 50.400952,6.0428210 z "
       id="path1769" />
    <path
       style="font-size:12.000000;fill:none;fill-opacity:1.0000000;fill-rule:evenodd;stroke:#ffffff;stroke-width:6.8750000;stroke-linejoin:round;stroke-miterlimit:4.0000000;stroke-opacity:1.0000000"
       d="M 27.183009,6.0428210 C 27.086597,6.0428210 27.008983,6.1204370 27.008983,6.2168460 L 27.008983,10.456463 C 27.008983,10.552875 27.086597,10.630489 27.183009,10.630489 L 31.422625,10.630489 C 31.519037,10.630489 31.596651,10.552875 31.596651,10.456463 L 31.596651,6.2168460 C 31.596651,6.1204370 31.519037,6.0428210 31.422625,6.0428210 L 27.183009,6.0428210 z "
       id="path1770" />
    <path
       style="font-size:12.000000;fill:none;fill-opacity:1.0000000;fill-rule:evenodd;stroke:#ffffff;stroke-width:6.8750000;stroke-linejoin:round;stroke-miterlimit:4.0000000;stroke-opacity:1.0000000"
       d="M 3.1104420,46.825723 C 3.0140320,46.825723 2.9364170,46.903337 2.9364170,46.999749 L 2.9364170,51.239356 C 2.9364170,51.335768 3.0140320,51.413382 3.1104420,51.413382 L 7.3500570,51.413382 C 7.4464670,51.413382 7.5240820,51.335768 7.5240820,51.239356 L 7.5240820,46.999749 C 7.5240820,46.903337 7.4464670,46.825723 7.3500570,46.825723 L 3.1104420,46.825723 z "
       id="path1771" />
    <path
       style="font-size:12.000000;fill:none;fill-opacity:1.0000000;fill-rule:evenodd;stroke:#ffffff;stroke-width:6.8750000;stroke-linejoin:round;stroke-miterlimit:4.0000000;stroke-opacity:1.0000000"
       d="M 27.183008,46.825723 C 27.086596,46.825723 27.008982,46.903337 27.008982,46.999749 L 27.008982,51.239356 C 27.008982,51.335768 27.086596,51.413382 27.183008,51.413382 L 31.422624,51.413382 C 31.519036,51.413382 31.596650,51.335768 31.596650,51.239356 L 31.596650,46.999749 C 31.596650,46.903337 31.519036,46.825723 31.422624,46.825723 L 27.183008,46.825723 z "
       id="path1772" />
    <path
       style="font-size:12.000000;fill:none;fill-opacity:1.0000000;fill-rule:evenodd;stroke:#ffffff;stroke-width:6.8750000;stroke-linejoin:round;stroke-miterlimit:4.0000000;stroke-opacity:1.0000000"
       d="M 3.1104420,26.236927 C 3.0140320,26.236927 2.9364170,26.314541 2.9364170,26.410953 L 2.9364170,30.650569 C 2.9364170,30.746981 3.0140320,30.824595 3.1104420,30.824595 L 7.3500570,30.824595 C 7.4464670,30.824595 7.5240820,30.746981 7.5240820,30.650569 L 7.5240820,26.410953 C 7.5240820,26.314541 7.4464670,26.236927 7.3500570,26.236927 L 3.1104420,26.236927 z "
       id="path1773" />
    <path
       style="font-size:12.000000;fill:none;fill-opacity:1.0000000;fill-rule:evenodd;stroke:#ffffff;stroke-width:6.8750000;stroke-linejoin:round;stroke-miterlimit:4.0000000;stroke-opacity:1.0000000"
       d="M 50.400962,26.236927 C 50.304550,26.236927 50.226936,26.314541 50.226936,26.410953 L 50.226936,30.650569 C 50.226936,30.746981 50.304550,30.824595 50.400962,30.824595 L 54.640578,30.824595 C 54.736980,30.824595 54.814594,30.746981 54.814594,30.650569 L 54.814594,26.410953 C 54.814594,26.314541 54.736980,26.236927 54.640578,26.236927 L 50.400962,26.236927 z "
       id="path1774" />
  </g>
  <rect
     style="font-size:12.000000;fill:#ffffff;fill-opacity:1.0000000;fill-rule:evenodd;stroke:#000000;stroke-width:3.2303774;stroke-linecap:round;stroke-linejoin:round;stroke-miterlimit:4.0000000;stroke-dasharray:3.2303773 3.2303773;stroke-dashoffset:0.0000000;stroke-opacity:1.0000000;"
     rx="2.0000000"
     transform="matrix(0.903831,0.000000,0.000000,1.035396,2.833181,-4.126386)"
     height="39.588089"
     width="52.724136"
     y="9.9750500"
     x="3.7788632"
     id="rect828" />
  <path
     style="font-size:12.000000;fill:#ffffff;fill-opacity:1.0000000;fill-rule:evenodd;stroke:#000000;stroke-width:1.6915278;stroke-linejoin:round;stroke-miterlimit:4.0000000;stroke-opacity:1.0000000;"
     d="M 4.6556430,5.4764040 C 4.5686670,5.4764040 4.4986470,5.5464240 4.4986470,5.6334000 L 4.4986470,9.4581620 C 4.4986470,9.5451380 4.5686670,9.6151590 4.6556430,9.6151590 L 8.4804050,9.6151590 C 8.5673810,9.6151590 8.6374020,9.5451380 8.6374020,9.4581620 L 8.6374020,5.6334000 C 8.6374020,5.5464240 8.5673810,5.4764040 8.4804050,5.4764040 L 4.6556430,5.4764040 z "
     transform="matrix(1.108466,0.000000,0.000000,1.108466,-0.924099,-2.007902)"
     id="rect829" />
  <path
     style="font-size:12.000000;fill:#ffffff;fill-opacity:1.0000000;fill-rule:evenodd;stroke:#000000;stroke-width:1.9739528;stroke-linejoin:round;stroke-miterlimit:4.0000000;stroke-opacity:1.0000000;"
     d="M 52.773000,9.7195100 C 52.671500,9.7195100 52.589790,9.8012220 52.589790,9.9027190 L 52.589790,14.366080 C 52.589790,14.467580 52.671500,14.549290 52.773000,14.549290 L 57.236360,14.549290 C 57.337860,14.549290 57.419570,14.467580 57.419570,14.366080 L 57.419570,9.9027190 C 57.419570,9.8012220 57.337860,9.7195100 57.236360,9.7195100 L 52.773000,9.7195100 z "
     transform="matrix(0.949871,0.000000,0.000000,0.949871,1.399494,-5.169779)"
     id="rect830" />
  <path
     style="font-size:12.000000;fill:#ffffff;fill-opacity:1.0000000;fill-rule:evenodd;stroke:#000000;stroke-width:1.9739528;stroke-linejoin:round;stroke-miterlimit:4.0000000;stroke-opacity:1.0000000;"
     d="M 28.149790,9.7195100 C 28.048290,9.7195100 27.966580,9.8012220 27.966580,9.9027190 L 27.966580,14.366080 C 27.966580,14.467580 28.048290,14.549290 28.149790,14.549290 L 32.613150,14.549290 C 32.714650,14.549290 32.796360,14.467580 32.796360,14.366080 L 32.796360,9.9027190 C 32.796360,9.8012220 32.714650,9.7195100 32.613150,9.7195100 L 28.149790,9.7195100 z "
     transform="matrix(0.949871,0.000000,0.000000,0.949871,1.570420,-5.169779)"
     id="rect832" />
  <path
     style="font-size:12.000000;fill:#ffffff;fill-opacity:1.0000000;fill-rule:evenodd;stroke:#000000;stroke-width:1.9739528;stroke-linejoin:round;stroke-miterlimit:4.0000000;stroke-opacity:1.0000000;"
     d="M 3.1666950,48.695900 C 3.0651970,48.695900 2.9834860,48.777610 2.9834860,48.879110 L 2.9834860,53.342460 C 2.9834860,53.443960 3.0651970,53.525670 3.1666950,53.525670 L 7.6300540,53.525670 C 7.7315520,53.525670 7.8132630,53.443960 7.8132630,53.342460 L 7.8132630,48.879110 C 7.8132630,48.777610 7.7315520,48.695900 7.6300540,48.695900 L 3.1666950,48.695900 z "
     transform="matrix(0.949871,0.000000,0.000000,0.949871,1.228569,-1.409421)"
     id="rect833" />
  <path
     style="font-size:12.000000;fill:#ffffff;fill-opacity:1.0000000;fill-rule:evenodd;stroke:#000000;stroke-width:1.9739528;stroke-linejoin:round;stroke-miterlimit:4.0000000;stroke-opacity:1.0000000;"
     d="M 28.509680,48.695900 C 28.408180,48.695900 28.326470,48.777610 28.326470,48.879110 L 28.326470,53.342460 C 28.326470,53.443960 28.408180,53.525670 28.509680,53.525670 L 32.973040,53.525670 C 33.074540,53.525670 33.156250,53.443960 33.156250,53.342460 L 33.156250,48.879110 C 33.156250,48.777610 33.074540,48.695900 32.973040,48.695900 L 28.509680,48.695900 z "
     transform="matrix(0.949871,0.000000,0.000000,0.949871,1.228569,-1.409421)"
     id="rect835" />
  <path
     style="font-size:12.000000;fill:#ffffff;fill-opacity:1.0000000;fill-rule:evenodd;stroke:#000000;stroke-width:1.9739528;stroke-linejoin:round;stroke-miterlimit:4.0000000;stroke-opacity:1.0000000;"
     d="M 3.1666950,30.619460 C 3.0651970,30.619460 2.9834860,30.701170 2.9834860,30.802670 L 2.9834860,35.266030 C 2.9834860,35.367530 3.0651970,35.449240 3.1666950,35.449240 L 7.6300540,35.449240 C 7.7315520,35.449240 7.8132630,35.367530 7.8132630,35.266030 L 7.8132630,30.802670 C 7.8132630,30.701170 7.7315520,30.619460 7.6300540,30.619460 L 3.1666950,30.619460 z "
     transform="matrix(0.949871,0.000000,0.000000,0.949871,1.228569,-4.827928)"
     id="rect836" />
  <path
     style="font-size:12.000000;fill:#ffffff;fill-opacity:1.0000000;fill-rule:evenodd;stroke:#000000;stroke-width:1.9739528;stroke-linejoin:round;stroke-miterlimit:4.0000000;stroke-opacity:1.0000000;"
     d="M 52.952950,30.619460 C 52.851450,30.619460 52.769740,30.701170 52.769740,30.802670 L 52.769740,35.266030 C 52.769740,35.367530 52.851450,35.449240 52.952950,35.449240 L 57.416310,35.449240 C 57.517800,35.449240 57.599510,35.367530 57.599510,35.266030 L 57.599510,30.802670 C 57.599510,30.701170 57.517800,30.619460 57.416310,30.619460 L 52.952950,30.619460 z "
     transform="matrix(0.949871,0.000000,0.000000,0.949871,1.228569,-4.827928)"
     id="rect837" />
  <path
     style="font-size:12.000000;fill:none;fill-opacity:1.0000000;fill-rule:evenodd;stroke:#ffffff;stroke-width:8.1250000;stroke-linecap:round;stroke-linejoin:round;stroke-miterlimit:4.0000000;stroke-opacity:1.0000000;"
     d="M 53.444460,90.652760 L 27.672140,74.565720 L 42.312270,102.02401 L 45.994470,98.436100 L 53.705340,106.71661 L 57.257090,103.25582 L 49.487900,94.770480 L 53.444460,90.652760 z "
     id="path1081"
     transform="translate(-1.944590,-51.40411)" />
  <path
     style="font-size:12.000000;fill:#ffffff;fill-opacity:1.0000000;fill-rule:evenodd;stroke:#000000;stroke-width:3.1250000;stroke-linecap:round;stroke-linejoin:round;stroke-opacity:1.0000000;"
     d="M 53.444460,90.652760 L 27.672140,74.565720 L 42.312270,102.02401 L 45.994470,98.436100 L 53.705340,106.71661 L 57.257090,103.25582 L 49.487900,94.770480 L 53.444460,90.652760 z "
     id="path827"
     transform="translate(-1.944590,-51.40411)" />
  <metadata
     id="metadata19">
    <RDF
       id="RDF20">
      <Work
         about=""
         id="Work21">
        <format
           id="format22">image/svg+xml</format>
        <type
           id="type24"
           resource="http://purl.org/dc/dcmitype/StillImage" />
      </Work>
    </RDF>
    <rdf:RDF
       id="RDF26">
      <cc:Work
         rdf:about=""
         id="Work27">
        <dc:format
           id="format28">image/svg+xml</dc:format>
        <dc:type
           id="type30"
           rdf:resource="http://purl.org/dc/dcmitype/StillImage" />
      </cc:Work>
    </rdf:RDF>
  </metadata>
</svg>
