<?xml version="1.0" encoding="UTF-8" standalone="no"?>
<!DOCTYPE svg PUBLIC "-//W3C//DTD SVG 20010904//EN"
"http://www.w3.org/TR/2001/REC-SVG-20010904/DTD/svg10.dtd">
<svg
   height="60"
   width="60"
   _SVGFile__filename="oldscale/actions/align_objs.svg"
   version="1.0"
   y="0"
   x="0"
   id="svg1"
   sodipodi:version="0.32"
   inkscape:version="0.40"
   sodipodi:docname="send_backward.svg"
   sodipodi:docbase="/home/danny/.kde/share/icons/FlatSVG/scalable/actions"
   xmlns="http://www.w3.org/2000/svg"
   xmlns:cc="http://web.resource.org/cc/"
   xmlns:inkscape="http://www.inkscape.org/namespaces/inkscape"
   xmlns:sodipodi="http://sodipodi.sourceforge.net/DTD/sodipodi-0.dtd"
   xmlns:rdf="http://www.w3.org/1999/02/22-rdf-syntax-ns#"
   xmlns:dc="http://purl.org/dc/elements/1.1/"
   xmlns:xlink="http://www.w3.org/1999/xlink">
  <sodipodi:namedview
     id="base"
     pagecolor="#ffffff"
     bordercolor="#666666"
     borderopacity="1.0"
     inkscape:pageopacity="0.0000000"
     inkscape:pageshadow="2"
     inkscape:zoom="5.5729167"
     inkscape:cx="48.121951"
     inkscape:cy="24.000000"
     inkscape:window-width="1024"
     inkscape:window-height="698"
     inkscape:window-x="0"
     inkscape:window-y="0"
     inkscape:current-layer="svg1" />
  <defs
     id="defs3" />
  <metadata
     id="metadata8">
    <RDF
       id="RDF9">
      <Work
         about=""
         id="Work10">
        <title
           id="title11">Part of the Flat Icon Collection (Thu Aug 26 14:38:01 2004)</title>
        <description
           id="description13" />
        <subject
           id="subject14">
          <Bag
             id="Bag15">
            <li
               id="li16" />
          </Bag>
        </subject>
        <publisher
           id="publisher17">
          <Agent
             about=""
             id="Agent18">
            <title
               id="title19" />
          </Agent>
        </publisher>
        <creator
           id="creator20">
          <Agent
             about=""
             id="Agent21">
            <title
               id="title22">Danny Allen</title>
          </Agent>
        </creator>
        <rights
           id="rights24">
          <Agent
             about=""
             id="Agent25">
            <title
               id="title26">Danny Allen</title>
          </Agent>
        </rights>
        <date
           id="date28" />
        <format
           id="format29">image/svg+xml</format>
        <type
           id="type31"
           resource="http://purl.org/dc/dcmitype/StillImage" />
        <license
           id="license32"
           resource="http://creativecommons.org/licenses/LGPL/2.1/">
          <date
             id="date33" />
        </license>
        <language
           id="language34">en</language>
      </Work>
    </RDF>
    <rdf:RDF
       id="RDF37">
      <cc:Work
         rdf:about=""
         id="Work38">
        <dc:format
           id="format39">image/svg+xml</dc:format>
        <dc:type
           id="type41"
           rdf:resource="http://purl.org/dc/dcmitype/StillImage" />
      </cc:Work>
    </rdf:RDF>
  </metadata>
  <path
     style="color:#000000;fill:none;fill-opacity:1.0000000;fill-rule:evenodd;stroke:#ffffff;stroke-width:8.5132742;stroke-linecap:round;stroke-linejoin:round;stroke-miterlimit:4.0000000;stroke-dashoffset:0.0000000;stroke-opacity:1.0000000;marker:none;marker-start:none;marker-mid:none;marker-end:none;"
     d="M 40.911767,36.911252 L 61.713530,36.911252 C 63.220972,36.911252 64.434544,38.124824 64.434544,39.632266 L 64.434544,60.434029 C 64.434544,61.941470 63.220972,63.155042 61.713530,63.155042 L 40.911767,63.155042 C 39.404326,63.155042 38.190754,61.941470 38.190754,60.434029 L 38.190754,39.632266 C 38.190754,38.124824 39.404326,36.911252 40.911767,36.911252 z "
     id="path1722"
     transform="matrix(1.174636,0.000000,0.000000,1.174636,-21.31323,-19.81028)" />
  <path
     style="color:#000000;fill:#000000;fill-opacity:1.0000000;fill-rule:evenodd;stroke:#000000;stroke-width:4.2566381;stroke-linecap:round;stroke-linejoin:round;stroke-miterlimit:4.0000000;stroke-dashoffset:0.0000000;stroke-opacity:1.0000000;marker:none;marker-start:none;marker-mid:none;marker-end:none;"
     d="M 40.911767,36.911252 L 61.713530,36.911252 C 63.220972,36.911252 64.434544,38.124824 64.434544,39.632266 L 64.434544,60.434029 C 64.434544,61.941470 63.220972,63.155042 61.713530,63.155042 L 40.911767,63.155042 C 39.404326,63.155042 38.190754,61.941470 38.190754,60.434029 L 38.190754,39.632266 C 38.190754,38.124824 39.404326,36.911252 40.911767,36.911252 z "
     id="path1719"
     transform="matrix(1.174636,0.000000,0.000000,1.174636,-21.31323,-19.81028)" />
  <path
     style="color:#000000;fill:none;fill-opacity:1.0000000;fill-rule:evenodd;stroke:#ffffff;stroke-width:9.4868355;stroke-linecap:round;stroke-linejoin:round;stroke-miterlimit:4.0000000;stroke-dashoffset:0.0000000;stroke-opacity:1.0000000;marker:none;marker-start:none;marker-mid:none;marker-end:none;"
     d="M 11.159070,8.1268840 L 34.339681,8.1268840 C 36.019511,8.1268840 37.371865,9.4792376 37.371865,11.159068 L 37.371865,34.339679 C 37.371865,36.019508 36.019511,37.371861 34.339681,37.371861 L 11.159070,37.371861 C 9.4792410,37.371861 8.1268870,36.019508 8.1268870,34.339679 L 8.1268870,11.159068 C 8.1268870,9.4792376 9.4792410,8.1268840 11.159070,8.1268840 z "
     id="path1726"
     transform="matrix(1.054092,0.000000,0.000000,1.054092,-2.940384,-2.940380)" />
  <path
     style="color:#000000;fill:#ffffff;fill-opacity:1.0000000;fill-rule:evenodd;stroke:#000000;stroke-width:4.7434168;stroke-linecap:round;stroke-linejoin:round;stroke-miterlimit:4.0000000;stroke-dashoffset:0.0000000;stroke-opacity:1.0000000;marker:none;marker-start:none;marker-mid:none;marker-end:none;"
     d="M 11.159070,8.1268840 L 34.339681,8.1268840 C 36.019511,8.1268840 37.371865,9.4792376 37.371865,11.159068 L 37.371865,34.339679 C 37.371865,36.019508 36.019511,37.371861 34.339681,37.371861 L 11.159070,37.371861 C 9.4792410,37.371861 8.1268870,36.019508 8.1268870,34.339679 L 8.1268870,11.159068 C 8.1268870,9.4792376 9.4792410,8.1268840 11.159070,8.1268840 z "
     id="path1718"
     transform="matrix(1.054092,0.000000,0.000000,1.054092,-2.940384,-2.940380)" />
</svg>
