<?xml version="1.0" encoding="UTF-8" standalone="no"?>
<!DOCTYPE svg PUBLIC "-//W3C//DTD SVG 20010904//EN"
"http://www.w3.org/TR/2001/REC-SVG-20010904/DTD/svg10.dtd">
<svg
   height="60"
   width="60"
   _SVGFile__filename="oldscale/actions/neonpen.svg"
   version="1.0"
   y="0"
   x="0"
   id="svg1"
   xmlns="http://www.w3.org/2000/svg"
   xmlns:sodipodi="http://sodipodi.sourceforge.net/DTD/sodipodi-0.dtd"
   xmlns:inkscape="http://www.inkscape.org/namespaces/inkscape"
   xmlns:xlink="http://www.w3.org/1999/xlink"
   sodipodi:version="0.32"
   inkscape:version="0.40"
   xmlns:rdf="http://www.w3.org/1999/02/22-rdf-syntax-ns#"
   xmlns:cc="http://web.resource.org/cc/"
   xmlns:dc="http://purl.org/dc/elements/1.1/"
   sodipodi:docname="neonpen.svg"
   sodipodi:docbase="/home/danny/work/flat/SVG/mono/scalable/actions">
  <sodipodi:namedview
     id="base"
     pagecolor="#ffffff"
     bordercolor="#666666"
     borderopacity="1.0"
     inkscape:pageopacity="0.0000000"
     inkscape:pageshadow="2"
     inkscape:zoom="6.9465337"
     inkscape:cx="42.572476"
     inkscape:cy="31.839966"
     inkscape:window-width="1024"
     inkscape:window-height="699"
     inkscape:window-x="0"
     inkscape:window-y="0"
     inkscape:current-layer="svg1" />
  <defs
     id="defs3" />
  <path
     style="font-size:12.000000;fill:none;fill-opacity:1.0000000;fill-rule:evenodd;stroke:#ffffff;stroke-width:6.8750000;stroke-linecap:round;stroke-linejoin:round;stroke-miterlimit:4.0000000;stroke-opacity:1.0000000;stroke-dasharray:none;"
     d="M 53.641070,47.521345 L 49.976240,47.680164 L 6.3589470,55.938765 L 40.263689,55.938765 L 53.641070,47.521345 z "
     id="path1736" />
  <path
     style="font-size:12.000000;fill:#000000;fill-opacity:1.0000000;fill-rule:evenodd;stroke:#000000;stroke-width:2.1210394;stroke-linecap:round;stroke-linejoin:round;stroke-miterlimit:4.0000000;stroke-opacity:1.0000000;"
     d="M 57.218750,48.812500 L 53.246370,49.000000 L 5.9687500,58.750000 L 42.718750,58.750000 L 57.218750,48.812500 z "
     transform="matrix(0.922578,0.000000,0.000000,0.847036,0.852311,6.175400)"
     id="path843" />
  <g
     id="g1744"
     style="stroke:#ffffff;stroke-opacity:1.0000000;">
    <path
       style="font-size:12.000000;fill:none;fill-opacity:1.0000000;fill-rule:evenodd;stroke:#ffffff;stroke-width:7.5000000;stroke-linejoin:round;stroke-miterlimit:4.0000000;stroke-opacity:1.0000000;"
       d="M 22.919405,8.3727222 C 22.375061,8.6869998 22.189848,9.3782324 22.504124,9.9225736 L 41.133640,42.189807 C 41.447913,42.734144 42.139143,42.919358 42.683487,42.605080 L 49.344910,38.759102 C 49.889254,38.444825 50.074468,37.753594 49.760195,37.209258 L 31.130679,4.9420241 C 30.816403,4.3976830 30.125172,4.2124664 29.580828,4.5267440 L 22.919405,8.3727222 z "
       id="path1737" />
    <path
       style="font-size:12.000000;fill:none;fill-opacity:1.0000000;fill-rule:evenodd;stroke:#ffffff;stroke-width:6.8750005;stroke-linecap:round;stroke-linejoin:round;stroke-miterlimit:4.0000000;stroke-opacity:1.0000000;"
       d="M 43.591777,42.910266 L 46.254359,47.521980 L 53.624786,47.521969 L 48.696000,38.985082 L 43.591777,42.910266 z "
       id="path1738" />
    <path
       style="font-size:12.000000;fill:none;fill-opacity:1.0000000;fill-rule:evenodd;stroke:#ffffff;stroke-width:8.1250000;stroke-linejoin:round;stroke-miterlimit:4.0000000;stroke-opacity:1.0000000;"
       d="M 36.550917,34.461079 C 35.842406,34.870138 35.601334,35.769833 36.010393,36.478344 L 40.383818,44.053331 C 40.792878,44.761842 41.692573,45.002914 42.401084,44.593854 L 51.071508,39.587977 C 51.780020,39.178918 52.021092,38.279223 51.612032,37.570711 L 47.238607,29.995725 C 46.829548,29.287214 45.929852,29.046142 45.221341,29.455201 L 36.550917,34.461079 z "
       id="path1739" />
  </g>
  <path
     style="font-size:12.000000;fill:#ffffff;fill-opacity:1.0000000;fill-rule:evenodd;stroke:#000000;stroke-width:2.8452187;stroke-linejoin:round;stroke-opacity:1.0000000;"
     d="M 15.327020,7.4558080 C 14.611670,7.4558080 14.035780,8.0317010 14.035780,8.7470470 L 14.035780,51.151040 C 14.035780,51.866380 14.611670,52.442270 15.327020,52.442270 L 24.081130,52.442270 C 24.796480,52.442270 25.372370,51.866380 25.372370,51.151040 L 25.372370,8.7470470 C 25.372370,8.0317010 24.796480,7.4558080 24.081130,7.4558080 L 15.327020,7.4558080 z "
     transform="matrix(0.760948,-0.439334,0.439334,0.760948,7.980754,9.432921)"
     id="rect834" />
  <path
     style="font-size:12.000000;fill:#ffffff;fill-opacity:1.0000000;fill-rule:evenodd;stroke:#000000;stroke-width:2.7878098;stroke-linecap:round;stroke-linejoin:round;stroke-opacity:1.0000000;"
     d="M 15.115450,53.701900 L 15.115450,61.619510 L 24.605870,67.098800 L 24.605870,52.442270 L 15.115450,53.701900 z "
     transform="matrix(0.582463,-0.336286,0.336286,0.582463,16.72839,16.71401)"
     id="path836" />
  <path
     style="font-size:12.000000;fill:#000000;fill-opacity:1.0000000;fill-rule:evenodd;stroke:#000000;stroke-width:3.5565226;stroke-linejoin:round;stroke-opacity:1.0000000;"
     d="M 13.916980,40.925740 C 12.985890,40.925740 12.236320,41.675310 12.236320,42.606400 L 12.236320,52.561070 C 12.236320,53.492160 12.985890,54.241730 13.916980,54.241730 L 25.311220,54.241730 C 26.242310,54.241730 26.991880,53.492160 26.991880,52.561070 L 26.991880,42.606400 C 26.991880,41.675310 26.242310,40.925740 25.311220,40.925740 L 13.916980,40.925740 z "
     transform="matrix(0.760948,-0.439334,0.439334,0.760948,7.980754,9.432921)"
     id="rect835" />
  <metadata
     id="metadata8">
    <RDF
       id="RDF9">
      <Work
         about=""
         id="Work10">
        <title
           id="title11">Part of the Flat Icon Collection (Thu Aug 26 14:38:01 2004)</title>
        <description
           id="description13" />
        <subject
           id="subject14">
          <Bag
             id="Bag15">
            <li
               id="li16" />
          </Bag>
        </subject>
        <publisher
           id="publisher17">
          <Agent
             about=""
             id="Agent18">
            <title
               id="title19" />
          </Agent>
        </publisher>
        <creator
           id="creator20">
          <Agent
             about=""
             id="Agent21">
            <title
               id="title22">Danny Allen</title>
          </Agent>
        </creator>
        <rights
           id="rights24">
          <Agent
             about=""
             id="Agent25">
            <title
               id="title26">Danny Allen</title>
          </Agent>
        </rights>
        <date
           id="date28" />
        <format
           id="format29">image/svg+xml</format>
        <type
           id="type31"
           resource="http://purl.org/dc/dcmitype/StillImage" />
        <license
           id="license32"
           resource="http://creativecommons.org/licenses/LGPL/2.1/">
          <date
             id="date33" />
        </license>
        <language
           id="language34">en</language>
      </Work>
    </RDF>
    <rdf:RDF
       id="RDF36">
      <cc:Work
         rdf:about=""
         id="Work37">
        <dc:format
           id="format38">image/svg+xml</dc:format>
        <dc:type
           id="type40"
           rdf:resource="http://purl.org/dc/dcmitype/StillImage" />
      </cc:Work>
    </rdf:RDF>
  </metadata>
</svg>
