<?xml version="1.0" encoding="UTF-8" standalone="no"?>
<!DOCTYPE svg PUBLIC "-//W3C//DTD SVG 20010904//EN"
"http://www.w3.org/TR/2001/REC-SVG-20010904/DTD/svg10.dtd">
<svg
   height="60"
   width="60"
   _SVGFile__filename="oldscale/actions/bold.svg"
   version="1.0"
   y="0"
   x="0"
   id="svg1"
   sodipodi:version="0.32"
   inkscape:version="0.40"
   sodipodi:docname="bold.svg"
   sodipodi:docbase="/home/danny/work/flat/SVG/mono/scalable/actions"
   xmlns="http://www.w3.org/2000/svg"
   xmlns:cc="http://web.resource.org/cc/"
   xmlns:inkscape="http://www.inkscape.org/namespaces/inkscape"
   xmlns:sodipodi="http://sodipodi.sourceforge.net/DTD/sodipodi-0.dtd"
   xmlns:rdf="http://www.w3.org/1999/02/22-rdf-syntax-ns#"
   xmlns:dc="http://purl.org/dc/elements/1.1/"
   xmlns:xlink="http://www.w3.org/1999/xlink">
  <sodipodi:namedview
     id="base"
     pagecolor="#ffffff"
     bordercolor="#666666"
     borderopacity="1.0"
     inkscape:pageopacity="0.0"
     inkscape:pageshadow="2"
     inkscape:zoom="4.1477629"
     inkscape:cx="59.885982"
     inkscape:cy="29.942994"
     inkscape:window-width="1024"
     inkscape:window-height="698"
     inkscape:window-x="0"
     inkscape:window-y="0"
     inkscape:current-layer="svg1" />
  <defs
     id="defs3">
    <linearGradient
       id="linearGradient900">
      <stop
         style="stop-color: #000000;stop-opacity: 1.0;"
         id="stop901"
         offset="0" />
      <stop
         style="stop-color:#ffffff;stop-opacity:1;"
         id="stop902"
         offset="1" />
    </linearGradient>
    <linearGradient
       xlink:href="#linearGradient900"
       id="linearGradient903" />
    <linearGradient
       xlink:href="#linearGradient900"
       id="linearGradient904" />
    <linearGradient
       xlink:href="#linearGradient900"
       id="linearGradient905" />
    <linearGradient
       xlink:href="#linearGradient900"
       id="linearGradient906" />
    <linearGradient
       xlink:href="#linearGradient900"
       id="linearGradient907" />
  </defs>
  <path
     style="font-size:12.000000;fill:none;fill-opacity:1.0000000;fill-rule:evenodd;stroke:#ffffff;stroke-width:8.1250000;stroke-linejoin:round;stroke-opacity:1.0000000;stroke-miterlimit:4.0000000;stroke-dasharray:none;"
     d="M 6.6825810,4.6879174 C 5.5771860,4.6879174 4.6872830,5.5841544 4.6872830,6.6974174 L 4.6872830,53.302583 C 4.6872830,54.415846 5.5771860,55.312083 6.6825810,55.312083 L 53.317412,55.312083 C 54.422807,55.312083 55.312710,54.415846 55.312710,53.302583 L 55.312710,6.6974174 C 55.312710,5.5841544 54.422807,4.6879174 53.317412,4.6879174 L 6.6825810,4.6879174 z "
     id="path1101" />
  <path
     style="font-size:12.000000;fill:#ffffff;fill-opacity:1.0000000;fill-rule:evenodd;stroke:#000000;stroke-width:3.1212747;stroke-linejoin:round;stroke-opacity:1.0000000;"
     d="M 6.6785920,5.1165120 C 5.5705920,5.1165120 4.6785920,6.0085120 4.6785920,7.1165120 L 4.6785920,53.501350 C 4.6785920,54.609350 5.5705920,55.501350 6.6785920,55.501350 L 53.423320,55.501350 C 54.531320,55.501350 55.423320,54.609350 55.423320,53.501350 L 55.423320,7.1165120 C 55.423320,6.0085120 54.531320,5.1165120 53.423320,5.1165120 L 6.6785920,5.1165120 z "
     id="rect812"
     transform="matrix(0.997649,0.000000,0.000000,1.004750,1.969380e-2,-0.452898)" />
  <path
     style="font-size:12.000000;fill:#000000;fill-opacity:1.0000000;stroke:#000000;stroke-width:2.4999995;stroke-opacity:1.0000000;font-family:VAG Rounded Black SSi"
     d="M 14.610617,43.385203 L 24.722934,15.601332 C 25.197464,14.332440 25.901077,13.310727 26.833764,12.536203 C 27.782814,11.745211 28.870954,11.349705 30.098175,11.349705 C 31.390854,11.349705 32.495348,11.736972 33.411681,12.511486 C 34.344368,13.286010 35.031610,14.315962 35.473414,15.601332 L 45.340287,43.385203 C 45.602095,44.110292 45.733004,44.736499 45.733004,45.263834 C 45.733004,46.252578 45.389383,47.068300 44.702132,47.710986 C 44.031254,48.337191 43.221285,48.650295 42.272234,48.650295 C 40.406852,48.650295 39.179629,47.776899 38.590563,46.030109 L 37.093354,41.209958 L 23.127548,41.209958 L 21.605785,45.980672 C 21.049454,47.760420 19.846767,48.650295 17.997755,48.650295 C 16.966883,48.650295 16.083284,48.304234 15.346955,47.612114 C 14.626980,46.919991 14.266996,46.071314 14.266996,45.066080 C 14.266996,44.588181 14.381533,44.027888 14.610617,43.385203 z M 30.049087,19.284428 L 25.287457,34.140391 L 34.835261,34.140391 L 30.147262,19.284428 L 30.049087,19.284428 z "
     id="path837" />
  <metadata
     id="metadata14">
    <RDF
       id="RDF15">
      <Work
         about=""
         id="Work16">
        <title
           id="title17">Part of the Flat Icon Collection (Thu Aug 26 14:38:01 2004)</title>
        <description
           id="description19" />
        <subject
           id="subject20">
          <Bag
             id="Bag21">
            <li
               id="li22" />
          </Bag>
        </subject>
        <publisher
           id="publisher23">
          <Agent
             about=""
             id="Agent24">
            <title
               id="title25" />
          </Agent>
        </publisher>
        <creator
           id="creator26">
          <Agent
             about=""
             id="Agent27">
            <title
               id="title28">Danny Allen</title>
          </Agent>
        </creator>
        <rights
           id="rights30">
          <Agent
             about=""
             id="Agent31">
            <title
               id="title32">Danny Allen</title>
          </Agent>
        </rights>
        <date
           id="date34" />
        <format
           id="format35">image/svg+xml</format>
        <type
           id="type37"
           resource="http://purl.org/dc/dcmitype/StillImage" />
        <license
           id="license38"
           resource="http://creativecommons.org/licenses/LGPL/2.1/">
          <date
             id="date39" />
        </license>
        <language
           id="language40">en</language>
      </Work>
    </RDF>
    <rdf:RDF
       id="RDF42">
      <cc:Work
         rdf:about=""
         id="Work43">
        <dc:format
           id="format44">image/svg+xml</dc:format>
        <dc:type
           id="type46"
           rdf:resource="http://purl.org/dc/dcmitype/StillImage" />
      </cc:Work>
    </rdf:RDF>
  </metadata>
</svg>
