<?xml version="1.0" encoding="UTF-8" standalone="no"?>
<!DOCTYPE svg PUBLIC "-//W3C//DTD SVG 20010904//EN"
"http://www.w3.org/TR/2001/REC-SVG-20010904/DTD/svg10.dtd">
<svg
   height="60"
   width="60"
   _SVGFile__filename="oldscale/actions/charset.svg"
   version="1.0"
   y="0"
   x="0"
   id="svg1"
   sodipodi:version="0.32"
   inkscape:version="0.40"
   sodipodi:docname="charset.svg"
   sodipodi:docbase="/home/danny/work/flat/SVG/mono/scalable/actions"
   xmlns="http://www.w3.org/2000/svg"
   xmlns:cc="http://web.resource.org/cc/"
   xmlns:inkscape="http://www.inkscape.org/namespaces/inkscape"
   xmlns:sodipodi="http://sodipodi.sourceforge.net/DTD/sodipodi-0.dtd"
   xmlns:rdf="http://www.w3.org/1999/02/22-rdf-syntax-ns#"
   xmlns:dc="http://purl.org/dc/elements/1.1/"
   xmlns:xlink="http://www.w3.org/1999/xlink">
  <sodipodi:namedview
     id="base"
     pagecolor="#ffffff"
     bordercolor="#666666"
     borderopacity="1.0"
     inkscape:pageopacity="0.0"
     inkscape:pageshadow="2"
     inkscape:zoom="6.4767468"
     inkscape:cx="72.947424"
     inkscape:cy="13.921889"
     inkscape:window-width="1024"
     inkscape:window-height="698"
     inkscape:window-x="0"
     inkscape:window-y="0"
     inkscape:current-layer="svg1" />
  <defs
     id="defs3" />
  <g
     id="g1722">
    <path
       id="path1093"
       style="font-size:12.000000;font-weight:900;fill:none;fill-opacity:1.0000000;stroke:#ffffff;stroke-width:5.0000000;stroke-linejoin:round;stroke-miterlimit:4.0000000;stroke-opacity:1.0000000;font-family:VAG Rounded Black SSi;"
       d="M 41.041488,34.873685 C 41.041488,33.164836 41.406898,31.590310 42.137744,30.150133 C 42.868563,28.699225 43.889597,27.559993 45.200789,26.732436 C 46.522740,25.904851 48.027382,25.491073 49.714742,25.491073 C 50.606790,25.491073 51.525720,25.598569 52.471500,25.813506 C 53.417290,26.017713 54.212600,26.372392 54.857470,26.877516 C 55.502300,27.382640 55.824740,28.065117 55.824740,28.924920 C 55.824740,29.612763 55.620530,30.187744 55.212120,30.649892 C 54.814460,31.112039 54.314700,31.343127 53.712840,31.343127 C 53.422650,31.343127 53.137860,31.294758 52.858400,31.198020 C 52.589730,31.101309 52.315670,30.999206 52.036210,30.891710 C 51.767540,30.773511 51.477350,30.676773 51.165680,30.601550 C 50.864730,30.526300 50.483200,30.488689 50.021050,30.488689 C 49.182765,30.488689 48.473407,30.687530 47.893060,31.085186 C 47.323416,31.472084 46.893515,31.998723 46.603355,32.665078 C 46.323899,33.320674 46.184184,34.056858 46.184184,34.873685 C 46.184184,35.668996 46.323899,36.410573 46.603355,37.098415 C 46.882784,37.775527 47.285805,38.312897 47.812445,38.710553 C 48.349815,39.108208 48.983923,39.307050 49.714742,39.307050 C 50.542330,39.307050 51.375250,39.151212 52.213560,38.839537 C 53.051880,38.527834 53.551640,38.371997 53.712840,38.371997 C 54.099740,38.371997 54.454420,38.484858 54.776850,38.710553 C 55.099280,38.936248 55.351830,39.231800 55.534550,39.597237 C 55.728000,39.951888 55.824740,40.317325 55.824740,40.693465 C 55.824740,41.488804 55.475420,42.160523 54.776850,42.708651 C 54.089010,43.256751 53.266820,43.654435 52.310270,43.901618 C 51.353760,44.159559 50.488560,44.288515 49.714742,44.288515 C 48.435795,44.288515 47.264317,44.052090 46.200307,43.579185 C 45.147055,43.106307 44.228125,42.434587 43.443572,41.564026 C 42.658991,40.682735 42.062494,39.672459 41.654108,38.533227 C 41.245695,37.383237 41.041488,36.163389 41.041488,34.873685 z M 22.679313,41.241593 L 22.679313,20.783671 C 22.679313,20.009849 22.921131,19.364982 23.404766,18.849101 C 23.888430,18.333219 24.501022,18.075278 25.242599,18.075278 C 25.994934,18.075278 26.612919,18.333219 27.096555,18.849101 C 27.580191,19.364982 27.822008,20.009849 27.822008,20.783671 L 27.822008,26.958131 C 28.402382,26.474495 29.004245,26.109058 29.627595,25.861875 C 30.261703,25.614692 31.078530,25.491073 32.078048,25.491073 C 33.539713,25.491073 34.877787,25.910244 36.092242,26.748531 C 37.317482,27.576116 38.279361,28.715348 38.977961,30.166256 C 39.687292,31.606433 40.041971,33.175567 40.041971,34.873685 C 40.041971,36.195636 39.843129,37.415483 39.445474,38.533227 C 39.058576,39.650971 38.494325,40.650489 37.752748,41.531780 C 37.011172,42.413071 36.162099,43.095549 35.205585,43.579185 C 34.249044,44.052090 33.206522,44.288515 32.078048,44.288515 C 31.110776,44.288515 30.277826,44.132678 29.579226,43.821002 C 28.880653,43.520085 28.241180,43.014934 27.660806,42.305603 C 27.445841,42.767751 27.134166,43.160041 26.725780,43.482474 C 26.328097,43.794149 25.833731,43.949987 25.242599,43.949987 C 24.490292,43.949987 23.872307,43.692046 23.388643,43.176164 C 22.915765,42.649524 22.679313,42.004686 22.679313,41.241593 z M 31.352594,30.488689 C 30.256338,30.488689 29.391170,30.907833 28.757062,31.746147 C 28.133684,32.584462 27.822008,33.626956 27.822008,34.873685 C 27.822008,35.668996 27.961723,36.410573 28.241180,37.098415 C 28.520609,37.775527 28.923630,38.312897 29.450269,38.710553 C 29.987639,39.108208 30.621748,39.307050 31.352594,39.307050 C 32.459580,39.307050 33.324748,38.887879 33.948126,38.049591 C 34.571477,37.200518 34.883152,36.141901 34.883152,34.873685 C 34.883152,33.616226 34.571477,32.573705 33.948126,31.746147 C 33.324748,30.907833 32.459580,30.488689 31.352594,30.488689 z M 20.486829,28.505776 L 20.486829,41.241593 C 20.486829,42.015416 20.245011,42.660282 19.761375,43.176164 C 19.277711,43.692046 18.659726,43.949987 17.907419,43.949987 C 17.316287,43.949987 16.816528,43.788756 16.408143,43.466351 C 16.010460,43.143918 15.709540,42.756993 15.505338,42.305603 C 14.924970,43.014934 14.280118,43.520085 13.570781,43.821002 C 12.872189,44.132678 12.039256,44.288515 11.071976,44.288515 C 9.5995640,44.288515 8.2561220,43.874737 7.0416510,43.047180 C 5.8379270,42.208892 4.8813940,41.069632 4.1720570,39.629483 C 3.4734680,38.178548 3.1241730,36.593291 3.1241730,34.873685 C 3.1241730,33.175567 3.4734680,31.606433 4.1720570,30.166256 C 4.8813940,28.715348 5.8433000,27.576116 7.0577710,26.748531 C 8.2722420,25.910244 9.6103110,25.491073 11.071976,25.491073 C 12.050003,25.491073 12.882939,25.641545 13.570781,25.942490 C 14.269371,26.243407 14.914223,26.753924 15.505338,27.474013 C 15.698793,27.033353 15.999729,26.651821 16.408143,26.329388 C 16.816528,25.996224 17.316287,25.829629 17.907419,25.829629 C 18.659726,25.829629 19.277711,26.087570 19.761375,26.603452 C 20.245011,27.108576 20.486829,27.742684 20.486829,28.505776 z M 11.797435,30.488689 C 10.701188,30.488689 9.8360110,30.907833 9.2019060,31.746147 C 8.5785470,32.584462 8.2668690,33.626956 8.2668690,34.873685 C 8.2668690,35.668996 8.4065860,36.410573 8.6860240,37.098415 C 8.9654580,37.775527 9.3684930,38.312897 9.8951220,38.710553 C 10.432500,39.108208 11.066603,39.307050 11.797435,39.307050 C 12.904433,39.307050 13.769609,38.887879 14.392968,38.049591 C 15.016324,37.200518 15.328002,36.141901 15.328002,34.873685 C 15.328002,33.616226 15.016324,32.573705 14.392968,31.746147 C 13.769609,30.907833 12.904433,30.488689 11.797435,30.488689 z " />
    <path
       id="path1094"
       style="font-size:12.000000;fill:none;fill-opacity:1.0000000;fill-rule:evenodd;stroke:#ffffff;stroke-width:8.1250000;stroke-linecap:round;stroke-linejoin:round;stroke-miterlimit:4.0000000;stroke-opacity:1.0000000;"
       d="M 42.936419,23.419180 L 49.081605,17.273995 L 55.313340,23.505728" />
    <path
       id="path1095"
       style="font-size:12.000000;fill:none;fill-opacity:1.0000000;fill-rule:evenodd;stroke:#ffffff;stroke-width:8.1250000;stroke-linecap:round;stroke-linejoin:round;stroke-miterlimit:4.0000000;stroke-opacity:1.0000000;"
       d="M 8.6618600,19.437784 C 8.6618600,20.297762 7.9639060,20.995715 7.1039260,20.995715 C 6.2439470,20.995715 5.5459920,20.297762 5.5459920,19.437784 C 5.5459920,18.577805 6.2439470,17.879852 7.1039260,17.879852 C 7.9639060,17.879852 8.6618600,18.577805 8.6618600,19.437784 z " />
    <path
       id="path1096"
       style="font-size:12.000000;fill:none;fill-opacity:1.0000000;fill-rule:evenodd;stroke:#ffffff;stroke-width:8.1250000;stroke-linecap:round;stroke-linejoin:round;stroke-miterlimit:4.0000000;stroke-opacity:1.0000000;"
       d="M 18.887600,19.437784 C 18.887600,20.297762 18.189646,20.995715 17.329666,20.995715 C 16.469687,20.995715 15.771732,20.297762 15.771732,19.437784 C 15.771732,18.577805 16.469687,17.879852 17.329666,17.879852 C 18.189646,17.879852 18.887600,18.577805 18.887600,19.437784 z " />
  </g>
  <g
     style="font-size:12.000000"
     transform="matrix(0.961977,0.000000,0.000000,0.961977,0.872193,1.533034)"
     id="g936">
    <path
       id="path831"
       style="font-weight:900;fill:#000000;fill-opacity:1.0000000;stroke-width:1.0000000;font-family:VAG Rounded Black SSi"
       d="M 19.181320,24.381230 C 19.181320,23.760140 19.314130,23.187870 19.579760,22.664430 C 19.845380,22.137090 20.216480,21.723030 20.693040,21.422250 C 21.173510,21.121460 21.720380,20.971070 22.333660,20.971070 C 22.657880,20.971070 22.991870,21.010140 23.335620,21.088260 C 23.679370,21.162480 23.968430,21.291390 24.202810,21.474980 C 24.437180,21.658570 24.554370,21.906620 24.554370,22.219120 C 24.554370,22.469120 24.480150,22.678100 24.331710,22.846070 C 24.187180,23.014040 24.005540,23.098030 23.786790,23.098030 C 23.681320,23.098030 23.577810,23.080450 23.476240,23.045290 C 23.378590,23.010140 23.278980,22.973030 23.177410,22.933960 C 23.079760,22.891000 22.974290,22.855840 22.861010,22.828500 C 22.751630,22.801150 22.612960,22.787480 22.444990,22.787480 C 22.140310,22.787480 21.882490,22.859750 21.671560,23.004280 C 21.464520,23.144900 21.308270,23.336310 21.202810,23.578500 C 21.101240,23.816780 21.050460,24.084350 21.050460,24.381230 C 21.050460,24.670290 21.101240,24.939820 21.202810,25.189820 C 21.304370,25.435920 21.450850,25.631230 21.642260,25.775760 C 21.837570,25.920290 22.068040,25.992560 22.333660,25.992560 C 22.634450,25.992560 22.937180,25.935920 23.241870,25.822640 C 23.546560,25.709350 23.728200,25.652710 23.786790,25.652710 C 23.927410,25.652710 24.056320,25.693730 24.173510,25.775760 C 24.290700,25.857790 24.382490,25.965210 24.448900,26.098030 C 24.519210,26.226930 24.554370,26.359750 24.554370,26.496460 C 24.554370,26.785530 24.427410,27.029670 24.173510,27.228890 C 23.923510,27.428100 23.624680,27.572640 23.277020,27.662480 C 22.929370,27.756230 22.614910,27.803100 22.333660,27.803100 C 21.868820,27.803100 21.443040,27.717170 21.056320,27.545290 C 20.673510,27.373420 20.339520,27.129280 20.054370,26.812870 C 19.769210,26.492560 19.552410,26.125370 19.403980,25.711310 C 19.255540,25.293340 19.181320,24.849980 19.181320,24.381230 z M 12.507490,26.695680 L 12.507490,19.260140 C 12.507490,18.978890 12.595380,18.744510 12.771160,18.557010 C 12.946950,18.369510 13.169600,18.275760 13.439130,18.275760 C 13.712570,18.275760 13.937180,18.369510 14.112960,18.557010 C 14.288740,18.744510 14.376630,18.978890 14.376630,19.260140 L 14.376630,21.504280 C 14.587570,21.328500 14.806320,21.195680 15.032880,21.105840 C 15.263350,21.016000 15.560230,20.971070 15.923510,20.971070 C 16.454760,20.971070 16.941090,21.123420 17.382490,21.428100 C 17.827810,21.728890 18.177410,22.142950 18.431320,22.670290 C 18.689130,23.193730 18.818040,23.764040 18.818040,24.381230 C 18.818040,24.861700 18.745770,25.305060 18.601240,25.711310 C 18.460620,26.117560 18.255540,26.480840 17.986010,26.801150 C 17.716480,27.121460 17.407880,27.369510 17.060230,27.545290 C 16.712570,27.717170 16.333660,27.803100 15.923510,27.803100 C 15.571950,27.803100 15.269210,27.746460 15.015300,27.633180 C 14.761400,27.523810 14.528980,27.340210 14.318040,27.082400 C 14.239910,27.250370 14.126630,27.392950 13.978200,27.510140 C 13.833660,27.623420 13.653980,27.680060 13.439130,27.680060 C 13.165700,27.680060 12.941090,27.586310 12.765300,27.398810 C 12.593430,27.207400 12.507490,26.973030 12.507490,26.695680 z M 15.659840,22.787480 C 15.261400,22.787480 14.946950,22.939820 14.716480,23.244510 C 14.489910,23.549200 14.376630,23.928100 14.376630,24.381230 C 14.376630,24.670290 14.427410,24.939820 14.528980,25.189820 C 14.630540,25.435920 14.777020,25.631230 14.968430,25.775760 C 15.163740,25.920290 15.394210,25.992560 15.659840,25.992560 C 16.062180,25.992560 16.376630,25.840210 16.603200,25.535530 C 16.829760,25.226930 16.943040,24.842170 16.943040,24.381230 C 16.943040,23.924200 16.829760,23.545290 16.603200,23.244510 C 16.376630,22.939820 16.062180,22.787480 15.659840,22.787480 z M 11.710620,22.066780 L 11.710620,26.695680 C 11.710620,26.976930 11.622730,27.211310 11.446950,27.398810 C 11.271160,27.586310 11.046550,27.680060 10.773120,27.680060 C 10.558270,27.680060 10.376630,27.621460 10.228200,27.504280 C 10.083660,27.387090 9.9742890,27.246460 9.9000710,27.082400 C 9.6891330,27.340210 9.4547580,27.523810 9.1969460,27.633180 C 8.9430390,27.746460 8.6403050,27.803100 8.2887420,27.803100 C 7.7535860,27.803100 7.2653050,27.652710 6.8238990,27.351930 C 6.3863990,27.047250 6.0387420,26.633180 5.7809300,26.109750 C 5.5270240,25.582400 5.4000710,25.006230 5.4000710,24.381230 C 5.4000710,23.764040 5.5270240,23.193730 5.7809300,22.670290 C 6.0387420,22.142950 6.3883520,21.728890 6.8297580,21.428100 C 7.2711640,21.123420 7.7574920,20.971070 8.2887420,20.971070 C 8.6442110,20.971070 8.9469460,21.025760 9.1969460,21.135140 C 9.4508520,21.244510 9.6852270,21.430060 9.9000710,21.691780 C 9.9703830,21.531620 10.079760,21.392950 10.228200,21.275760 C 10.376630,21.154670 10.558270,21.094120 10.773120,21.094120 C 11.046550,21.094120 11.271160,21.187870 11.446950,21.375370 C 11.622730,21.558960 11.710620,21.789430 11.710620,22.066780 z M 8.5524140,22.787480 C 8.1539770,22.787480 7.8395240,22.939820 7.6090550,23.244510 C 7.3824920,23.549200 7.2692110,23.928100 7.2692110,24.381230 C 7.2692110,24.670290 7.3199920,24.939820 7.4215550,25.189820 C 7.5231170,25.435920 7.6696020,25.631230 7.8610080,25.775760 C 8.0563210,25.920290 8.2867890,25.992560 8.5524140,25.992560 C 8.9547580,25.992560 9.2692110,25.840210 9.4957740,25.535530 C 9.7223360,25.226930 9.8356170,24.842170 9.8356170,24.381230 C 9.8356170,23.924200 9.7223360,23.545290 9.4957740,23.244510 C 9.2692110,22.939820 8.9547580,22.787480 8.5524140,22.787480 z "
       transform="matrix(2.860120,0.000000,0.000000,2.860120,-13.10386,-35.07478)" />
    <path
       id="path833"
       style="fill:none;fill-opacity:0.75000000;fill-rule:evenodd;stroke:#000000;stroke-width:3.2485178;stroke-linecap:round;stroke-linejoin:round;stroke-opacity:1.0000000"
       d="M 10.436860,9.9750510 L 16.824940,3.5869720 L 23.302990,10.065020"
       transform="translate(33.28998,12.77616)" />
    <path
       id="path835"
       style="fill:#000000;fill-opacity:1.0000000;fill-rule:evenodd;stroke:#000000;stroke-width:3.2485178;stroke-linecap:round;stroke-linejoin:round;stroke-opacity:1.0000000;"
       d="M 8.0975640,16.453100 C 8.0975640,17.347070 7.3720220,18.072610 6.4780510,18.072610 C 5.5840800,18.072610 4.8585380,17.347070 4.8585380,16.453100 C 4.8585380,15.559130 5.5840800,14.833590 6.4780510,14.833590 C 7.3720220,14.833590 8.0975640,15.559130 8.0975640,16.453100 z "
       transform="translate(1.385119e-7,2.159351)" />
    <path
       id="path836"
       style="fill:#000000;fill-opacity:1.0000000;fill-rule:evenodd;stroke:#000000;stroke-width:3.2485178;stroke-linecap:round;stroke-linejoin:round;stroke-opacity:1.0000000;"
       d="M 8.0975640,16.453100 C 8.0975640,17.347070 7.3720220,18.072610 6.4780510,18.072610 C 5.5840800,18.072610 4.8585380,17.347070 4.8585380,16.453100 C 4.8585380,15.559130 5.5840800,14.833590 6.4780510,14.833590 C 7.3720220,14.833590 8.0975640,15.559130 8.0975640,16.453100 z "
       transform="translate(10.62992,2.159351)" />
  </g>
  <metadata
     id="metadata8">
    <RDF
       id="RDF9">
      <Work
         about=""
         id="Work10">
        <title
           id="title11">Part of the Flat Icon Collection (Thu Aug 26 14:38:01 2004)</title>
        <description
           id="description13" />
        <subject
           id="subject14">
          <Bag
             id="Bag15">
            <li
               id="li16" />
          </Bag>
        </subject>
        <publisher
           id="publisher17">
          <Agent
             about=""
             id="Agent18">
            <title
               id="title19" />
          </Agent>
        </publisher>
        <creator
           id="creator20">
          <Agent
             about=""
             id="Agent21">
            <title
               id="title22">Danny Allen</title>
          </Agent>
        </creator>
        <rights
           id="rights24">
          <Agent
             about=""
             id="Agent25">
            <title
               id="title26">Danny Allen</title>
          </Agent>
        </rights>
        <date
           id="date28" />
        <format
           id="format29">image/svg+xml</format>
        <type
           id="type31"
           resource="http://purl.org/dc/dcmitype/StillImage" />
        <license
           id="license32"
           resource="http://creativecommons.org/licenses/LGPL/2.1/">
          <date
             id="date33" />
        </license>
        <language
           id="language34">en</language>
      </Work>
    </RDF>
    <rdf:RDF
       id="RDF37">
      <cc:Work
         rdf:about=""
         id="Work38">
        <dc:format
           id="format39">image/svg+xml</dc:format>
        <dc:type
           id="type41"
           rdf:resource="http://purl.org/dc/dcmitype/StillImage" />
      </cc:Work>
    </rdf:RDF>
  </metadata>
</svg>
