<?xml version="1.0" encoding="UTF-8" standalone="no"?>
<!DOCTYPE svg PUBLIC "-//W3C//DTD SVG 20010904//EN"
"http://www.w3.org/TR/2001/REC-SVG-20010904/DTD/svg10.dtd">
<svg
   height="60"
   width="60"
   _SVGFile__filename="oldscale/actions/enumList.svg"
   version="1.0"
   y="0"
   x="0"
   id="svg1"
   sodipodi:version="0.32"
   inkscape:version="0.40"
   sodipodi:docname="enumList.svg"
   sodipodi:docbase="/home/danny/work/flat/SVG/mono/scalable/actions"
   xmlns="http://www.w3.org/2000/svg"
   xmlns:cc="http://web.resource.org/cc/"
   xmlns:inkscape="http://www.inkscape.org/namespaces/inkscape"
   xmlns:sodipodi="http://sodipodi.sourceforge.net/DTD/sodipodi-0.dtd"
   xmlns:rdf="http://www.w3.org/1999/02/22-rdf-syntax-ns#"
   xmlns:dc="http://purl.org/dc/elements/1.1/"
   xmlns:xlink="http://www.w3.org/1999/xlink">
  <sodipodi:namedview
     id="base"
     pagecolor="#ffffff"
     bordercolor="#666666"
     borderopacity="1.0"
     inkscape:pageopacity="0.0000000"
     inkscape:pageshadow="2"
     inkscape:zoom="4.9119411"
     inkscape:cx="54.134959"
     inkscape:cy="22.765939"
     inkscape:window-width="1024"
     inkscape:window-height="699"
     inkscape:window-x="0"
     inkscape:window-y="0"
     inkscape:current-layer="svg1" />
  <defs
     id="defs3">
    <linearGradient
       id="linearGradient1160">
      <stop
         style="stop-color: #000000;stop-opacity: 1.0;"
         id="stop1161"
         offset="0" />
      <stop
         style="stop-color:#ffffff;stop-opacity:1;"
         id="stop1162"
         offset="1" />
    </linearGradient>
    <linearGradient
       xlink:href="#linearGradient1160"
       id="linearGradient1163" />
  </defs>
  <metadata
     id="metadata16">
    <rdf:RDF
       id="RDF16">
      <Work
         rdf:about=""
         id="Work17">
        <dc:title
           id="title18">Part of the Flat Icon Collection (Thu Aug 26 14:38:01 2004)</dc:title>
        <dc:description
           id="description20" />
        <dc:subject
           id="subject21">
          <rdf:Bag
             id="Bag22">
            <rdf:li
               id="li23" />
          </rdf:Bag>
        </dc:subject>
        <dc:publisher
           id="publisher24">
          <Agent
             rdf:about=""
             id="Agent25">
            <dc:title
               id="title26" />
          </Agent>
        </dc:publisher>
        <dc:creator
           id="creator27">
          <Agent
             rdf:about=""
             id="Agent28">
            <dc:title
               id="title29">Danny Allen</dc:title>
          </Agent>
        </dc:creator>
        <dc:rights
           id="rights31">
          <Agent
             rdf:about=""
             id="Agent32">
            <dc:title
               id="title33">Danny Allen</dc:title>
          </Agent>
        </dc:rights>
        <dc:date
           id="date35" />
        <dc:format
           id="format36">image/svg+xml</dc:format>
        <dc:type
           rdf:resource="http://purl.org/dc/dcmitype/StillImage"
           id="type38" />
        <license
           rdf:resource="http://creativecommons.org/licenses/LGPL/2.1/"
           id="license39">
          <dc:date
             id="date40" />
        </license>
        <dc:language
           id="language41">en</dc:language>
      </Work>
      <cc:Work
         rdf:about=""
         id="Work44">
        <dc:format
           id="format45">image/svg+xml</dc:format>
        <dc:type
           id="type47"
           rdf:resource="http://purl.org/dc/dcmitype/StillImage" />
      </cc:Work>
    </rdf:RDF>
  </metadata>
  <g
     id="g1119"
     transform="translate(0.000000,-1.160357)">
    <g
       id="g1113">
      <path
         style="font-size:12.000000;fill:#ffffff;fill-opacity:1.0000000;fill-rule:evenodd;stroke:none;stroke-width:6.7416081;stroke-linecap:round;stroke-linejoin:round;stroke-miterlimit:4.0000000;stroke-opacity:1.0000000"
         d="M 40.000000,16.897363 C 37.468123,17.037625 35.527312,19.386303 35.656250,22.140523 C 35.785188,24.894745 37.936872,27.024597 40.468750,26.884336 L 59.375000,26.884336 L 59.375000,16.897363 L 40.468750,16.897363 C 40.313210,16.888725 40.155541,16.888725 40.000000,16.897363 z "
         id="path1109" />
      <path
         style="font-size:12.000000;fill:#000000;fill-opacity:1.0000000;fill-rule:evenodd;stroke:none;stroke-width:3.3708034;stroke-linecap:round;stroke-linejoin:round;stroke-miterlimit:4.0000000;stroke-opacity:1.0000000"
         d="M 40.187500,12.218750 C 38.921560,12.282603 37.941392,13.464531 38.000000,14.843750 C 38.058607,16.222969 39.140311,17.282602 40.406250,17.218750 L 59.375000,17.218750 L 59.375000,12.218750 L 40.406250,12.218750 C 40.335542,12.215176 40.258208,12.215176 40.187500,12.218750 z "
         id="path1110"
         transform="translate(0.000000,7.172104)" />
    </g>
    <g
       id="g1116"
       transform="translate(0.000000,-12.50000)">
      <path
         style="font-size:12.000000;fill:#ffffff;fill-opacity:1.0000000;fill-rule:evenodd;stroke:none;stroke-width:6.7416081;stroke-linecap:round;stroke-linejoin:round;stroke-miterlimit:4.0000000;stroke-opacity:1.0000000"
         d="M 40.000000,16.897363 C 37.468123,17.037625 35.527312,19.386303 35.656250,22.140523 C 35.785188,24.894745 37.936872,27.024597 40.468750,26.884336 L 59.375000,26.884336 L 59.375000,16.897363 L 40.468750,16.897363 C 40.313210,16.888725 40.155541,16.888725 40.000000,16.897363 z "
         id="path1117" />
      <path
         style="font-size:12.000000;fill:#000000;fill-opacity:1.0000000;fill-rule:evenodd;stroke:none;stroke-width:3.3708034;stroke-linecap:round;stroke-linejoin:round;stroke-miterlimit:4.0000000;stroke-opacity:1.0000000"
         d="M 40.187500,12.218750 C 38.921560,12.282603 37.941392,13.464531 38.000000,14.843750 C 38.058607,16.222969 39.140311,17.282602 40.406250,17.218750 L 59.375000,17.218750 L 59.375000,12.218750 L 40.406250,12.218750 C 40.335542,12.215176 40.258208,12.215176 40.187500,12.218750 z "
         id="path1118"
         transform="translate(0.000000,7.172104)" />
    </g>
  </g>
  <g
     id="g1126"
     transform="translate(0.000000,30.21965)">
    <g
       id="g1127">
      <path
         style="font-size:12.000000;fill:#ffffff;fill-opacity:1.0000000;fill-rule:evenodd;stroke:none;stroke-width:6.7416081;stroke-linecap:round;stroke-linejoin:round;stroke-miterlimit:4.0000000;stroke-opacity:1.0000000"
         d="M 40.000000,16.897363 C 37.468123,17.037625 35.527312,19.386303 35.656250,22.140523 C 35.785188,24.894745 37.936872,27.024597 40.468750,26.884336 L 59.375000,26.884336 L 59.375000,16.897363 L 40.468750,16.897363 C 40.313210,16.888725 40.155541,16.888725 40.000000,16.897363 z "
         id="path1128" />
      <path
         style="font-size:12.000000;fill:#000000;fill-opacity:1.0000000;fill-rule:evenodd;stroke:none;stroke-width:3.3708034;stroke-linecap:round;stroke-linejoin:round;stroke-miterlimit:4.0000000;stroke-opacity:1.0000000"
         d="M 40.187500,12.218750 C 38.921560,12.282603 37.941392,13.464531 38.000000,14.843750 C 38.058607,16.222969 39.140311,17.282602 40.406250,17.218750 L 59.375000,17.218750 L 59.375000,12.218750 L 40.406250,12.218750 C 40.335542,12.215176 40.258208,12.215176 40.187500,12.218750 z "
         id="path1129"
         transform="translate(0.000000,7.172104)" />
    </g>
    <g
       id="g1130"
       transform="translate(0.000000,-12.50000)">
      <path
         style="font-size:12.000000;fill:#ffffff;fill-opacity:1.0000000;fill-rule:evenodd;stroke:none;stroke-width:6.7416081;stroke-linecap:round;stroke-linejoin:round;stroke-miterlimit:4.0000000;stroke-opacity:1.0000000"
         d="M 40.000000,16.897363 C 37.468123,17.037625 35.527312,19.386303 35.656250,22.140523 C 35.785188,24.894745 37.936872,27.024597 40.468750,26.884336 L 59.375000,26.884336 L 59.375000,16.897363 L 40.468750,16.897363 C 40.313210,16.888725 40.155541,16.888725 40.000000,16.897363 z "
         id="path1131" />
      <path
         style="font-size:12.000000;fill:#000000;fill-opacity:1.0000000;fill-rule:evenodd;stroke:none;stroke-width:3.3708034;stroke-linecap:round;stroke-linejoin:round;stroke-miterlimit:4.0000000;stroke-opacity:1.0000000"
         d="M 40.187500,12.218750 C 38.921560,12.282603 37.941392,13.464531 38.000000,14.843750 C 38.058607,16.222969 39.140311,17.282602 40.406250,17.218750 L 59.375000,17.218750 L 59.375000,12.218750 L 40.406250,12.218750 C 40.335542,12.215176 40.258208,12.215176 40.187500,12.218750 z "
         id="path1132"
         transform="translate(0.000000,7.172104)" />
    </g>
  </g>
  <g
     id="g1743"
     transform="translate(-0.374056,0.000000)">
    <path
       id="path1731"
       style="font-size:12.000000;font-weight:900;fill:none;fill-opacity:1.0000000;stroke:#ffffff;stroke-width:4.9993625;stroke-linejoin:round;stroke-miterlimit:4.0000000;stroke-opacity:1.0000000;font-family:VAG Rounded Black SSi"
       d="M 20.192351,22.988961 C 20.192351,22.513795 20.311143,22.073277 20.548726,21.667405 C 20.796210,21.251635 21.122886,20.920008 21.528756,20.672525 C 21.934626,20.425044 22.375144,20.301304 22.850310,20.301304 C 23.315577,20.301304 23.751146,20.425044 24.157026,20.672525 C 24.562881,20.920008 24.884625,21.251635 25.122208,21.667405 C 25.369675,22.073277 25.493421,22.513795 25.493421,22.988961 C 25.493421,23.474025 25.369675,23.924442 25.122208,24.340208 C 24.884625,24.746088 24.557940,25.067807 24.142176,25.305391 C 23.736298,25.542973 23.305678,25.661777 22.850310,25.661777 C 22.385045,25.661777 21.944527,25.542973 21.528756,25.305391 C 21.122886,25.067807 20.796210,24.746088 20.548726,24.340208 C 20.311143,23.924442 20.192351,23.474025 20.192351,22.988961 z M 12.203627,22.706832 L 12.203627,7.9024458 L 10.644488,7.9024458 C 9.9416382,7.9024458 9.3872782,7.6747615 8.9814072,7.2193956 C 8.5755372,6.7541283 8.3726022,6.2195655 8.3726022,5.6157096 C 8.3726022,4.9920537 8.5705882,4.4525441 8.9665602,3.9971757 C 9.3625312,3.5319085 9.9218402,3.2992774 10.644488,3.2992774 L 14.668550,3.2992774 C 15.371400,3.2992774 15.955456,3.4774633 16.420723,3.8338377 C 16.895889,4.1902120 17.133472,4.8435663 17.133472,5.7938981 L 17.133472,22.706832 C 17.133472,23.568067 16.905788,24.226371 16.450422,24.681745 C 16.004954,25.127209 15.410997,25.349942 14.668550,25.349942 C 13.926102,25.349942 13.327196,25.127209 12.871827,24.681745 C 12.426359,24.226371 12.203627,23.568067 12.203627,22.706832 z "
       transform="matrix(1.000128,0.000000,0.000000,1.000128,-1.273512e-4,-0.174394)" />
    <path
       id="path1732"
       style="font-size:12.000000;font-weight:900;fill:none;fill-opacity:1.0000000;stroke:#ffffff;stroke-width:4.9993625;stroke-linejoin:round;stroke-miterlimit:4.0000000;stroke-opacity:1.0000000;font-family:VAG Rounded Black SSi"
       d="M 19.928917,54.424584 C 19.928917,53.959305 20.045236,53.527947 20.277877,53.130511 C 20.520212,52.723398 20.840091,52.398670 21.237516,52.156353 C 21.634932,51.914010 22.066290,51.792839 22.531569,51.792839 C 22.987171,51.792839 23.413664,51.914010 23.811100,52.156353 C 24.208511,52.398670 24.523561,52.723398 24.756201,53.130511 C 24.998518,53.527947 25.119689,53.959305 25.119689,54.424584 C 25.119689,54.899566 24.998518,55.340601 24.756201,55.747714 C 24.523561,56.145150 24.203672,56.460175 23.796559,56.692816 C 23.399123,56.925455 22.977468,57.041787 22.531569,57.041787 C 22.075992,57.041787 21.644635,56.925455 21.237516,56.692816 C 20.840091,56.460175 20.520212,56.145150 20.277877,55.747714 C 20.045236,55.340601 19.928917,54.899566 19.928917,54.424584 z M 10.914128,52.040020 L 15.974041,52.040020 C 16.671960,52.040020 17.219635,52.272660 17.617061,52.737939 C 18.014486,53.193541 18.213199,53.712123 18.213199,54.293710 C 18.213199,54.904405 18.014486,55.437528 17.617061,55.893106 C 17.219635,56.339004 16.671960,56.561966 15.974041,56.561966 L 6.2322509,56.561966 C 5.4373999,56.561966 4.7830999,56.363248 4.2693529,55.965812 C 3.7556069,55.568402 3.4987359,55.054659 3.4987359,54.424584 C 3.4987359,53.901138 3.7071409,53.334068 4.1239549,52.723398 C 4.5407659,52.112727 5.0205859,51.531116 5.5634119,50.978612 C 6.1062379,50.426083 6.6393719,49.883257 7.1628109,49.350134 C 7.5699319,48.894531 8.0933699,48.298404 8.7331299,47.561699 C 9.3728879,46.815316 9.9690269,46.088313 10.521548,45.380716 C 11.074067,44.673094 11.549039,43.955794 11.946464,43.228792 C 12.353585,42.492087 12.557145,41.876578 12.557145,41.382216 C 12.557145,40.025138 11.941619,39.346623 10.710568,39.346623 C 9.9932619,39.346623 9.4795149,39.540478 9.1693289,39.928211 C 8.8591429,40.306266 8.5780369,40.878150 8.3260089,41.643938 C 8.0739839,42.409702 7.8074169,42.981610 7.5263089,43.359641 C 7.2452039,43.727993 6.7653849,43.912170 6.0868509,43.912170 C 5.3792389,43.912170 4.8170279,43.674691 4.4002139,43.199709 C 3.9930929,42.715049 3.7895339,42.167384 3.7895339,41.556689 C 3.7895339,40.645511 3.9688619,39.773117 4.3275139,38.939485 C 4.6861659,38.096176 5.1853719,37.359495 5.8251339,36.729420 C 6.4648919,36.099345 7.2355099,35.600144 8.1369899,35.231791 C 9.0384679,34.863463 9.9932619,34.679287 11.001366,34.679287 C 12.242112,34.679287 13.371384,34.945848 14.389182,35.478972 C 15.406983,36.012121 16.216376,36.777883 16.817361,37.776286 C 17.428040,38.765012 17.733380,39.894289 17.733380,41.164117 C 17.733380,42.172223 17.515280,43.151245 17.079081,44.101185 C 16.652575,45.051124 16.129134,45.923542 15.508762,46.718389 C 14.898084,47.503557 14.069303,48.472877 13.022424,49.626373 C 11.985239,50.770191 11.282472,51.574741 10.914128,52.040020 z "
       transform="matrix(1.000128,0.000000,0.000000,1.000128,-1.273512e-4,-0.174394)" />
    <path
       id="path844"
       style="font-size:12.000000;font-weight:900;fill:#000000;fill-opacity:1.0000000;stroke-width:1.0000000;font-family:VAG Rounded Black SSi"
       d="M 20.192351,22.988961 C 20.192351,22.513795 20.311143,22.073277 20.548726,21.667405 C 20.796210,21.251635 21.122886,20.920008 21.528756,20.672525 C 21.934626,20.425044 22.375144,20.301304 22.850310,20.301304 C 23.315577,20.301304 23.751146,20.425044 24.157026,20.672525 C 24.562881,20.920008 24.884625,21.251635 25.122208,21.667405 C 25.369675,22.073277 25.493421,22.513795 25.493421,22.988961 C 25.493421,23.474025 25.369675,23.924442 25.122208,24.340208 C 24.884625,24.746088 24.557940,25.067807 24.142176,25.305391 C 23.736298,25.542973 23.305678,25.661777 22.850310,25.661777 C 22.385045,25.661777 21.944527,25.542973 21.528756,25.305391 C 21.122886,25.067807 20.796210,24.746088 20.548726,24.340208 C 20.311143,23.924442 20.192351,23.474025 20.192351,22.988961 z M 12.203627,22.706832 L 12.203627,7.9024458 L 10.644488,7.9024458 C 9.9416382,7.9024458 9.3872782,7.6747615 8.9814072,7.2193956 C 8.5755372,6.7541283 8.3726022,6.2195655 8.3726022,5.6157096 C 8.3726022,4.9920537 8.5705882,4.4525441 8.9665602,3.9971757 C 9.3625312,3.5319085 9.9218402,3.2992774 10.644488,3.2992774 L 14.668550,3.2992774 C 15.371400,3.2992774 15.955456,3.4774633 16.420723,3.8338377 C 16.895889,4.1902120 17.133472,4.8435663 17.133472,5.7938981 L 17.133472,22.706832 C 17.133472,23.568067 16.905788,24.226371 16.450422,24.681745 C 16.004954,25.127209 15.410997,25.349942 14.668550,25.349942 C 13.926102,25.349942 13.327196,25.127209 12.871827,24.681745 C 12.426359,24.226371 12.203627,23.568067 12.203627,22.706832 z "
       transform="matrix(1.000128,0.000000,0.000000,1.000128,-1.273512e-4,-0.174394)" />
    <path
       id="path840"
       style="font-size:12.000000;font-weight:900;fill:#000000;fill-opacity:1.0000000;stroke-width:1.0000000;font-family:VAG Rounded Black SSi"
       d="M 19.928917,54.424584 C 19.928917,53.959305 20.045236,53.527947 20.277877,53.130511 C 20.520212,52.723398 20.840091,52.398670 21.237516,52.156353 C 21.634932,51.914010 22.066290,51.792839 22.531569,51.792839 C 22.987171,51.792839 23.413664,51.914010 23.811100,52.156353 C 24.208511,52.398670 24.523561,52.723398 24.756201,53.130511 C 24.998518,53.527947 25.119689,53.959305 25.119689,54.424584 C 25.119689,54.899566 24.998518,55.340601 24.756201,55.747714 C 24.523561,56.145150 24.203672,56.460175 23.796559,56.692816 C 23.399123,56.925455 22.977468,57.041787 22.531569,57.041787 C 22.075992,57.041787 21.644635,56.925455 21.237516,56.692816 C 20.840091,56.460175 20.520212,56.145150 20.277877,55.747714 C 20.045236,55.340601 19.928917,54.899566 19.928917,54.424584 z M 10.914128,52.040020 L 15.974041,52.040020 C 16.671960,52.040020 17.219635,52.272660 17.617061,52.737939 C 18.014486,53.193541 18.213199,53.712123 18.213199,54.293710 C 18.213199,54.904405 18.014486,55.437528 17.617061,55.893106 C 17.219635,56.339004 16.671960,56.561966 15.974041,56.561966 L 6.2322509,56.561966 C 5.4373999,56.561966 4.7830999,56.363248 4.2693529,55.965812 C 3.7556069,55.568402 3.4987359,55.054659 3.4987359,54.424584 C 3.4987359,53.901138 3.7071409,53.334068 4.1239549,52.723398 C 4.5407659,52.112727 5.0205859,51.531116 5.5634119,50.978612 C 6.1062379,50.426083 6.6393719,49.883257 7.1628109,49.350134 C 7.5699319,48.894531 8.0933699,48.298404 8.7331299,47.561699 C 9.3728879,46.815316 9.9690269,46.088313 10.521548,45.380716 C 11.074067,44.673094 11.549039,43.955794 11.946464,43.228792 C 12.353585,42.492087 12.557145,41.876578 12.557145,41.382216 C 12.557145,40.025138 11.941619,39.346623 10.710568,39.346623 C 9.9932619,39.346623 9.4795149,39.540478 9.1693289,39.928211 C 8.8591429,40.306266 8.5780369,40.878150 8.3260089,41.643938 C 8.0739839,42.409702 7.8074169,42.981610 7.5263089,43.359641 C 7.2452039,43.727993 6.7653849,43.912170 6.0868509,43.912170 C 5.3792389,43.912170 4.8170279,43.674691 4.4002139,43.199709 C 3.9930929,42.715049 3.7895339,42.167384 3.7895339,41.556689 C 3.7895339,40.645511 3.9688619,39.773117 4.3275139,38.939485 C 4.6861659,38.096176 5.1853719,37.359495 5.8251339,36.729420 C 6.4648919,36.099345 7.2355099,35.600144 8.1369899,35.231791 C 9.0384679,34.863463 9.9932619,34.679287 11.001366,34.679287 C 12.242112,34.679287 13.371384,34.945848 14.389182,35.478972 C 15.406983,36.012121 16.216376,36.777883 16.817361,37.776286 C 17.428040,38.765012 17.733380,39.894289 17.733380,41.164117 C 17.733380,42.172223 17.515280,43.151245 17.079081,44.101185 C 16.652575,45.051124 16.129134,45.923542 15.508762,46.718389 C 14.898084,47.503557 14.069303,48.472877 13.022424,49.626373 C 11.985239,50.770191 11.282472,51.574741 10.914128,52.040020 z "
       transform="matrix(1.000128,0.000000,0.000000,1.000128,-1.273512e-4,-0.174394)" />
  </g>
</svg>
