<?xml version="1.0" encoding="UTF-8" standalone="no"?>
<!DOCTYPE svg PUBLIC "-//W3C//DTD SVG 20010904//EN"
"http://www.w3.org/TR/2001/REC-SVG-20010904/DTD/svg10.dtd">
<svg
   height="60"
   width="60"
   _SVGFile__filename="oldscale/apps/finances_section.svg"
   version="1.0"
   y="0"
   x="0"
   id="svg1"
   xmlns="http://www.w3.org/2000/svg"
   xmlns:sodipodi="http://sodipodi.sourceforge.net/DTD/sodipodi-0.dtd"
   xmlns:inkscape="http://www.inkscape.org/namespaces/inkscape"
   xmlns:xlink="http://www.w3.org/1999/xlink"
   sodipodi:version="0.32"
   inkscape:version="0.40"
   xmlns:rdf="http://www.w3.org/1999/02/22-rdf-syntax-ns#"
   xmlns:cc="http://web.resource.org/cc/"
   xmlns:dc="http://purl.org/dc/elements/1.1/"
   sodipodi:docname="finances_section.svg"
   sodipodi:docbase="/home/danny/work/flat/SVG/mono/scalable/apps">
  <sodipodi:namedview
     id="base"
     pagecolor="#ffffff"
     bordercolor="#666666"
     borderopacity="1.0"
     inkscape:pageopacity="0.0"
     inkscape:pageshadow="2"
     inkscape:zoom="7.8793544"
     inkscape:cx="38.908395"
     inkscape:cy="19.454199"
     inkscape:window-width="1024"
     inkscape:window-height="699"
     inkscape:window-x="0"
     inkscape:window-y="0"
     inkscape:current-layer="svg1" />
  <defs
     id="defs3" />
  <path
     style="font-size:12.000000;font-weight:900;fill:none;fill-opacity:1.0000000;stroke-width:5.0000000;font-family:VAG Rounded Black SSi;stroke:#ffffff;stroke-opacity:1.0000000;stroke-linejoin:round;stroke-miterlimit:4.0000000;stroke-dasharray:none;"
     d="M 28.226740,55.101751 L 28.226740,52.427333 C 26.327522,52.291669 24.389529,52.030045 22.412796,51.642452 C 20.436041,51.254846 18.662782,50.557173 17.093019,49.549429 C 15.542630,48.522290 14.767442,47.156012 14.767442,45.450584 C 14.767442,44.171514 15.174412,43.018415 15.988374,41.991285 C 16.821701,40.964156 17.839148,40.450590 19.040693,40.450590 C 19.563951,40.450590 20.503873,40.741283 21.860468,41.322680 C 23.217053,41.904077 24.321708,42.340127 25.174411,42.630820 C 26.046511,42.921513 27.063957,43.066860 28.226740,43.066860 L 28.226740,33.735465 C 25.746124,32.979653 23.662786,32.194772 21.976745,31.380820 C 20.290694,30.547483 18.924416,29.636630 17.877900,28.648253 C 16.831395,27.640510 16.075582,26.555232 15.610462,25.392438 C 15.164729,24.229655 14.941858,22.940892 14.941858,21.526158 C 14.941858,19.549424 15.290700,17.747095 15.988374,16.119193 C 16.686048,14.471894 17.635653,13.057170 18.837207,11.875001 C 20.058140,10.673446 21.482556,9.7141481 23.110469,8.9970946 C 24.738371,8.2800412 26.443799,7.8536822 28.226740,7.7180227 L 28.226740,4.8982560 C 28.226740,3.7160867 28.817830,3.1250000 29.999999,3.1250000 C 31.201545,3.1250000 31.802327,3.7160867 31.802327,4.8982560 L 31.802327,7.7180227 C 33.255814,7.7567841 34.796518,7.9796541 36.424420,8.3866278 C 38.071710,8.7742256 39.467057,9.4331378 40.610464,10.363376 C 41.753881,11.293605 42.325584,12.533913 42.325584,14.084300 C 42.325584,14.840113 42.151158,15.576550 41.802326,16.293609 C 41.472870,16.991283 40.998068,17.553294 40.377910,17.979651 C 39.777136,18.406007 39.098839,18.619185 38.343026,18.619185 C 37.877907,18.619185 37.315887,18.473839 36.656976,18.183135 C 36.017440,17.892442 35.436044,17.611432 34.912786,17.340115 C 34.389538,17.049422 33.875973,16.816868 33.372091,16.642441 C 32.868220,16.448649 32.344962,16.351747 31.802327,16.351747 L 31.802327,24.869191 C 35.852718,25.973845 39.098839,27.533915 41.540702,29.549423 C 44.001942,31.564929 45.232557,34.462209 45.232557,38.241281 C 45.232557,40.489343 44.815894,42.495156 43.982556,44.258733 C 43.168604,46.002912 42.093030,47.466091 40.755811,48.648261 C 39.437988,49.811053 37.994184,50.702529 36.424420,51.322678 C 34.854647,51.942838 33.313952,52.311056 31.802327,52.427333 L 31.802327,55.101751 C 31.802327,56.283921 31.201545,56.875000 29.999999,56.875000 C 28.817830,56.875000 28.226740,56.283921 28.226740,55.101751 z M 28.226740,23.793606 L 28.226740,16.351747 C 27.257749,16.564926 26.463174,17.020352 25.843026,17.718027 C 25.242243,18.396324 24.941857,19.268414 24.941857,20.334306 C 24.941857,21.225782 25.242243,21.962208 25.843026,22.543605 C 26.463174,23.125001 27.257749,23.541665 28.226740,23.793606 z M 31.802327,34.665704 L 31.802327,43.066860 C 32.751932,43.066860 33.556200,42.650196 34.215111,41.816859 C 34.893409,40.983531 35.232558,40.033916 35.232558,38.968024 C 35.232558,37.747103 34.941855,36.816865 34.360469,36.177329 C 33.798448,35.518418 32.945734,35.014536 31.802327,34.665704 z "
     id="path1088" />
  <path
     style="font-size:12.000000;font-weight:900;fill:#000000;fill-opacity:1.0000000;stroke-width:1.0000000;font-family:VAG Rounded Black SSi"
     d="M 28.226740,55.101751 L 28.226740,52.427333 C 26.327522,52.291669 24.389529,52.030045 22.412796,51.642452 C 20.436041,51.254846 18.662782,50.557173 17.093019,49.549429 C 15.542630,48.522290 14.767442,47.156012 14.767442,45.450584 C 14.767442,44.171514 15.174412,43.018415 15.988374,41.991285 C 16.821701,40.964156 17.839148,40.450590 19.040693,40.450590 C 19.563951,40.450590 20.503873,40.741283 21.860468,41.322680 C 23.217053,41.904077 24.321708,42.340127 25.174411,42.630820 C 26.046511,42.921513 27.063957,43.066860 28.226740,43.066860 L 28.226740,33.735465 C 25.746124,32.979653 23.662786,32.194772 21.976745,31.380820 C 20.290694,30.547483 18.924416,29.636630 17.877900,28.648253 C 16.831395,27.640510 16.075582,26.555232 15.610462,25.392438 C 15.164729,24.229655 14.941858,22.940892 14.941858,21.526158 C 14.941858,19.549424 15.290700,17.747095 15.988374,16.119193 C 16.686048,14.471894 17.635653,13.057170 18.837207,11.875001 C 20.058140,10.673446 21.482556,9.7141481 23.110469,8.9970946 C 24.738371,8.2800412 26.443799,7.8536822 28.226740,7.7180227 L 28.226740,4.8982560 C 28.226740,3.7160867 28.817830,3.1250000 29.999999,3.1250000 C 31.201545,3.1250000 31.802327,3.7160867 31.802327,4.8982560 L 31.802327,7.7180227 C 33.255814,7.7567841 34.796518,7.9796541 36.424420,8.3866278 C 38.071710,8.7742256 39.467057,9.4331378 40.610464,10.363376 C 41.753881,11.293605 42.325584,12.533913 42.325584,14.084300 C 42.325584,14.840113 42.151158,15.576550 41.802326,16.293609 C 41.472870,16.991283 40.998068,17.553294 40.377910,17.979651 C 39.777136,18.406007 39.098839,18.619185 38.343026,18.619185 C 37.877907,18.619185 37.315887,18.473839 36.656976,18.183135 C 36.017440,17.892442 35.436044,17.611432 34.912786,17.340115 C 34.389538,17.049422 33.875973,16.816868 33.372091,16.642441 C 32.868220,16.448649 32.344962,16.351747 31.802327,16.351747 L 31.802327,24.869191 C 35.852718,25.973845 39.098839,27.533915 41.540702,29.549423 C 44.001942,31.564929 45.232557,34.462209 45.232557,38.241281 C 45.232557,40.489343 44.815894,42.495156 43.982556,44.258733 C 43.168604,46.002912 42.093030,47.466091 40.755811,48.648261 C 39.437988,49.811053 37.994184,50.702529 36.424420,51.322678 C 34.854647,51.942838 33.313952,52.311056 31.802327,52.427333 L 31.802327,55.101751 C 31.802327,56.283921 31.201545,56.875000 29.999999,56.875000 C 28.817830,56.875000 28.226740,56.283921 28.226740,55.101751 z M 28.226740,23.793606 L 28.226740,16.351747 C 27.257749,16.564926 26.463174,17.020352 25.843026,17.718027 C 25.242243,18.396324 24.941857,19.268414 24.941857,20.334306 C 24.941857,21.225782 25.242243,21.962208 25.843026,22.543605 C 26.463174,23.125001 27.257749,23.541665 28.226740,23.793606 z M 31.802327,34.665704 L 31.802327,43.066860 C 32.751932,43.066860 33.556200,42.650196 34.215111,41.816859 C 34.893409,40.983531 35.232558,40.033916 35.232558,38.968024 C 35.232558,37.747103 34.941855,36.816865 34.360469,36.177329 C 33.798448,35.518418 32.945734,35.014536 31.802327,34.665704 z "
     id="path828" />
  <metadata
     id="metadata5">
    <RDF
       id="RDF6">
      <Work
         about=""
         id="Work7">
        <title
           id="title8">Part of the Flat Icon Collection (Thu Aug 26 14:31:40 2004)</title>
        <description
           id="description10" />
        <subject
           id="subject11">
          <Bag
             id="Bag12">
            <li
               id="li13" />
          </Bag>
        </subject>
        <publisher
           id="publisher14">
          <Agent
             about=""
             id="Agent15">
            <title
               id="title16" />
          </Agent>
        </publisher>
        <creator
           id="creator17">
          <Agent
             about=""
             id="Agent18">
            <title
               id="title19">Danny Allen</title>
          </Agent>
        </creator>
        <rights
           id="rights21">
          <Agent
             about=""
             id="Agent22">
            <title
               id="title23">Danny Allen</title>
          </Agent>
        </rights>
        <date
           id="date25" />
        <format
           id="format26">image/svg+xml</format>
        <type
           id="type28"
           resource="http://purl.org/dc/dcmitype/StillImage" />
        <license
           id="license29"
           resource="http://creativecommons.org/licenses/LGPL/2.1/">
          <date
             id="date30" />
        </license>
        <language
           id="language31">en</language>
      </Work>
    </RDF>
    <rdf:RDF
       id="RDF33">
      <cc:Work
         rdf:about=""
         id="Work34">
        <dc:format
           id="format35">image/svg+xml</dc:format>
        <dc:type
           id="type37"
           rdf:resource="http://purl.org/dc/dcmitype/StillImage" />
      </cc:Work>
    </rdf:RDF>
  </metadata>
</svg>
