<?xml version="1.0" encoding="UTF-8" standalone="no"?>
<!DOCTYPE svg PUBLIC "-//W3C//DTD SVG 20010904//EN"
"http://www.w3.org/TR/2001/REC-SVG-20010904/DTD/svg10.dtd">
<svg
   height="60"
   width="60"
   _SVGFile__filename="oldscale/apps/acroread.svg"
   version="1.0"
   y="0"
   x="0"
   id="svg1"
   sodipodi:version="0.32"
   inkscape:version="0.40"
   sodipodi:docname="acroread.svg"
   sodipodi:docbase="/home/danny/work/flat/SVG/mono/scalable/apps"
   xmlns="http://www.w3.org/2000/svg"
   xmlns:cc="http://web.resource.org/cc/"
   xmlns:inkscape="http://www.inkscape.org/namespaces/inkscape"
   xmlns:sodipodi="http://sodipodi.sourceforge.net/DTD/sodipodi-0.dtd"
   xmlns:rdf="http://www.w3.org/1999/02/22-rdf-syntax-ns#"
   xmlns:dc="http://purl.org/dc/elements/1.1/"
   xmlns:xlink="http://www.w3.org/1999/xlink">
  <sodipodi:namedview
     id="base"
     pagecolor="#ffffff"
     bordercolor="#666666"
     borderopacity="1.0"
     inkscape:pageopacity="0.0"
     inkscape:pageshadow="2"
     inkscape:zoom="8.5331489"
     inkscape:cx="41.369523"
     inkscape:cy="18.243700"
     inkscape:window-width="1024"
     inkscape:window-height="699"
     inkscape:window-x="0"
     inkscape:window-y="0"
     inkscape:current-layer="svg1" />
  <defs
     id="defs3">
    <linearGradient
       id="linearGradient900">
      <stop
         style="stop-color: #000000;stop-opacity: 1.0;"
         id="stop901"
         offset="0" />
      <stop
         style="stop-color:#ffffff;stop-opacity:1;"
         id="stop902"
         offset="1" />
    </linearGradient>
    <linearGradient
       xlink:href="#linearGradient900"
       id="linearGradient903" />
    <linearGradient
       xlink:href="#linearGradient900"
       id="linearGradient904" />
    <linearGradient
       xlink:href="#linearGradient900"
       id="linearGradient905" />
    <linearGradient
       xlink:href="#linearGradient900"
       id="linearGradient906" />
    <linearGradient
       xlink:href="#linearGradient900"
       id="linearGradient907" />
  </defs>
  <g
     id="g1729"
     transform="translate(4.775763e-2,0.564240)">
    <path
       style="color:#000000;fill:none;fill-opacity:1.0000000;fill-rule:evenodd;stroke:#ffffff;stroke-width:8.1250000;stroke-linecap:round;stroke-linejoin:round;stroke-miterlimit:4.0000000;stroke-dashoffset:0.0000000;stroke-opacity:1.0000000;marker:none;marker-start:none;marker-mid:none;marker-end:none"
       d="M 6.6397443,14.129507 L 43.258494,14.129507 C 44.366494,14.129507 45.258495,15.021507 45.258495,16.129508 L 45.258495,52.748258 C 45.258495,53.856258 44.366494,54.748259 43.258494,54.748259 L 6.6397443,54.748259 C 5.5317438,54.748259 4.6397433,53.856258 4.6397433,52.748258 L 4.6397433,16.129508 C 4.6397433,15.021507 5.5317438,14.129507 6.6397443,14.129507 z "
       id="rect1727" />
    <path
       style="color:#000000;fill:#ffffff;fill-opacity:1.0000000;fill-rule:evenodd;stroke:#000000;stroke-width:3.1250010;stroke-linecap:round;stroke-linejoin:round;stroke-miterlimit:4.0000000;stroke-dashoffset:0.0000000;stroke-opacity:1.0000000;marker:none;marker-start:none;marker-mid:none;marker-end:none"
       d="M 6.6397443,14.129507 L 43.258494,14.129507 C 44.366494,14.129507 45.258495,15.021507 45.258495,16.129508 L 45.258495,52.748258 C 45.258495,53.856258 44.366494,54.748259 43.258494,54.748259 L 6.6397443,54.748259 C 5.5317438,54.748259 4.6397433,53.856258 4.6397433,52.748258 L 4.6397433,16.129508 C 4.6397433,15.021507 5.5317438,14.129507 6.6397443,14.129507 z "
       id="rect1726" />
  </g>
  <g
     id="g1732"
     transform="translate(-2.607802e-3,-0.609394)">
    <path
       id="path1730"
       style="font-size:12.000000;fill:none;fill-opacity:0.75000000;fill-rule:evenodd;stroke:#ffffff;stroke-width:7.5426774;stroke-linejoin:round;stroke-miterlimit:4.0000000;stroke-opacity:1.0000000"
       d="M 54.015025,33.212807 C 51.770183,31.865896 40.097004,30.855714 30.331952,33.774011 C 28.423838,33.998501 24.495369,35.682127 22.811732,37.926968 C 14.056849,51.059284 10.577352,49.600135 10.240625,48.477714 C 9.9039011,47.355292 11.363047,38.937139 22.362765,38.937139 C 27.189178,38.151446 30.780919,17.274432 31.791102,11.437848 C 32.240068,5.6012566 29.770736,3.4686586 29.097293,5.3767735 C 27.525906,11.213360 31.454374,24.906893 34.709388,28.049667 C 36.393026,30.855714 47.392736,35.569888 50.872251,36.131092 C 55.025196,37.141275 58.055733,34.559705 54.015025,33.212807 z "
       transform="matrix(0.994343,0.000000,0.000000,0.994343,2.493485e-2,0.314483)" />
    <path
       id="path1142"
       style="font-size:12.000000;fill:none;fill-opacity:0.75000000;fill-rule:evenodd;stroke:#000000;stroke-width:2.5142274;stroke-opacity:1.0000000"
       d="M 54.015025,33.212806 C 51.770183,31.865896 40.097005,30.855714 30.331952,33.774011 C 28.423838,33.998501 24.495370,35.682127 22.811732,37.926968 C 14.056850,51.059284 10.577351,49.600135 10.240625,48.477713 C 9.9039005,47.355292 11.363047,38.937139 22.362766,38.937139 C 27.189178,38.151446 30.780920,17.274432 31.791103,11.437848 C 32.240068,5.6012566 29.770736,3.4686587 29.097293,5.3767736 C 27.525906,11.213359 31.454375,24.906893 34.709388,28.049667 C 36.393026,30.855714 47.392737,35.569887 50.872251,36.131092 C 55.025196,37.141275 58.055733,34.559704 54.015025,33.212806 z "
       transform="matrix(0.994343,0.000000,0.000000,0.994343,2.493485e-2,0.314483)" />
  </g>
  <metadata
     id="metadata14">
    <RDF
       id="RDF15">
      <Work
         about=""
         id="Work16">
        <title
           id="title17">Part of the Flat Icon Collection (Thu Aug 26 14:31:40 2004)</title>
        <description
           id="description19" />
        <subject
           id="subject20">
          <Bag
             id="Bag21">
            <li
               id="li22" />
          </Bag>
        </subject>
        <publisher
           id="publisher23">
          <Agent
             about=""
             id="Agent24">
            <title
               id="title25" />
          </Agent>
        </publisher>
        <creator
           id="creator26">
          <Agent
             about=""
             id="Agent27">
            <title
               id="title28">Danny Allen</title>
          </Agent>
        </creator>
        <rights
           id="rights30">
          <Agent
             about=""
             id="Agent31">
            <title
               id="title32">Danny Allen</title>
          </Agent>
        </rights>
        <date
           id="date34" />
        <format
           id="format35">image/svg+xml</format>
        <type
           id="type37"
           resource="http://purl.org/dc/dcmitype/StillImage" />
        <license
           id="license38"
           resource="http://creativecommons.org/licenses/LGPL/2.1/">
          <date
             id="date39" />
        </license>
        <language
           id="language40">en</language>
      </Work>
    </RDF>
    <rdf:RDF
       id="RDF42">
      <cc:Work
         rdf:about=""
         id="Work43">
        <dc:format
           id="format44">image/svg+xml</dc:format>
        <dc:type
           id="type46"
           rdf:resource="http://purl.org/dc/dcmitype/StillImage" />
      </cc:Work>
    </rdf:RDF>
  </metadata>
</svg>
