<?xml version="1.0" encoding="UTF-8" standalone="no"?>
<!DOCTYPE svg PUBLIC "-//W3C//DTD SVG 20010904//EN"
"http://www.w3.org/TR/2001/REC-SVG-20010904/DTD/svg10.dtd">
<svg
   height="60"
   width="60"
   _SVGFile__filename="oldscale/actions/fileexport.svg"
   version="1.0"
   y="0"
   x="0"
   id="svg1"
   sodipodi:version="0.32"
   inkscape:version="0.40"
   sodipodi:docname="fileexport.svg"
   sodipodi:docbase="/home/danny/work/flat/SVG/mono/scalable/actions"
   xmlns="http://www.w3.org/2000/svg"
   xmlns:cc="http://web.resource.org/cc/"
   xmlns:inkscape="http://www.inkscape.org/namespaces/inkscape"
   xmlns:sodipodi="http://sodipodi.sourceforge.net/DTD/sodipodi-0.dtd"
   xmlns:rdf="http://www.w3.org/1999/02/22-rdf-syntax-ns#"
   xmlns:dc="http://purl.org/dc/elements/1.1/"
   xmlns:xlink="http://www.w3.org/1999/xlink">
  <sodipodi:namedview
     id="base"
     pagecolor="#ffffff"
     bordercolor="#666666"
     borderopacity="1.0"
     inkscape:pageopacity="0.0000000"
     inkscape:pageshadow="2"
     inkscape:zoom="7.6723498"
     inkscape:cx="32.292096"
     inkscape:cy="18.117005"
     inkscape:window-width="1024"
     inkscape:window-height="698"
     inkscape:window-x="0"
     inkscape:window-y="0"
     inkscape:current-layer="svg1" />
  <defs
     id="defs3" />
  <metadata
     id="metadata10">
    <RDF
       id="RDF11">
      <Work
         about=""
         id="Work12">
        <title
           id="title13">Part of the Flat Icon Collection (Thu Aug 26 14:38:01 2004)</title>
        <description
           id="description15" />
        <subject
           id="subject16">
          <Bag
             id="Bag17">
            <li
               id="li18" />
          </Bag>
        </subject>
        <publisher
           id="publisher19">
          <Agent
             about=""
             id="Agent20">
            <title
               id="title21" />
          </Agent>
        </publisher>
        <creator
           id="creator22">
          <Agent
             about=""
             id="Agent23">
            <title
               id="title24">Danny Allen</title>
          </Agent>
        </creator>
        <rights
           id="rights26">
          <Agent
             about=""
             id="Agent27">
            <title
               id="title28">Danny Allen</title>
          </Agent>
        </rights>
        <date
           id="date30" />
        <format
           id="format31">image/svg+xml</format>
        <type
           id="type33"
           resource="http://purl.org/dc/dcmitype/StillImage" />
        <license
           id="license34"
           resource="http://creativecommons.org/licenses/LGPL/2.1/">
          <date
             id="date35" />
        </license>
        <language
           id="language36">en</language>
      </Work>
    </RDF>
    <rdf:RDF
       id="RDF40">
      <cc:Work
         rdf:about=""
         id="Work41">
        <dc:format
           id="format42">image/svg+xml</dc:format>
        <dc:type
           id="type44"
           rdf:resource="http://purl.org/dc/dcmitype/StillImage" />
      </cc:Work>
    </rdf:RDF>
  </metadata>
  <path
     id="path1140"
     style="font-size:12.000000;fill:none;fill-rule:evenodd;stroke:#ffffff;stroke-width:9.8222914;stroke-linecap:round;stroke-linejoin:round;stroke-miterlimit:4.0000000;stroke-opacity:1.0000000;"
     d="M 7.6819120,4.6856520 C 6.5334212,4.6856520 5.6088240,5.6102492 5.6088240,6.7587400 L 5.6088240,53.241260 C 5.6088240,54.389751 6.5334212,55.314348 7.6819120,55.314348 L 52.318088,55.314348 C 53.466579,55.314348 54.391176,54.389751 54.391176,53.241260 L 54.391176,11.520364 L 47.524072,4.6856520 L 7.6819120,4.6856520 z "
     transform="matrix(0.827200,0.000000,0.000000,0.827200,10.32012,0.811528)" />
  <path
     id="path1141"
     style="font-size:12.000000;fill:#ffffff;fill-opacity:1.0000000;fill-rule:evenodd;stroke-width:1.0000000;stroke-linecap:round;stroke-linejoin:round;"
     d="M 8.3750000,6.0625000 C 7.2670000,6.0625000 6.3750000,6.9545000 6.3750000,8.0625000 L 6.3750000,52.906250 C 6.3750000,54.014250 7.2670000,54.906250 8.3750000,54.906250 L 51.437500,54.906250 C 52.545500,54.906250 53.437500,54.014250 53.437500,52.906250 L 53.437500,12.656250 L 46.812500,6.0625000 L 8.3750000,6.0625000 z "
     transform="matrix(0.857429,0.000000,0.000000,0.857429,9.493635,-0.510659)" />
  <g
     id="g1077"
     transform="matrix(-0.827200,0.000000,0.000000,0.827200,57.77749,0.811528)">
    <path
       style="font-size:12.000000;fill:#ffffff;fill-opacity:1.0000000;fill-rule:evenodd;stroke:#000000;stroke-width:3.0887969;stroke-linecap:round;stroke-linejoin:round;stroke-opacity:1.0000000"
       d="M 15.913560,4.6592130 L 15.913560,17.901130 C 15.913560,19.254170 17.102330,20.343440 18.578970,20.343440 L 36.487180,20.343440 C 37.963820,20.343440 39.152590,19.254170 39.152590,17.901130 L 39.152590,4.6592130"
       id="path1143"
       transform="matrix(0.978453,0.000000,0.000000,0.978453,0.431270,0.251887)" />
    <path
       style="font-size:12.000000;fill:#000000;fill-opacity:1.0000000;fill-rule:evenodd;stroke-width:1.2500000;stroke-linecap:round;stroke-linejoin:round"
       d="M 20.915640,7.9807840 C 20.140510,7.9807840 19.516490,8.6048050 19.516490,9.3799340 L 19.516490,15.622720 C 19.516490,16.397850 20.140510,17.021870 20.915640,17.021870 L 24.704420,17.021870 C 25.479550,17.021870 26.103570,16.397850 26.103570,15.622720 L 26.103570,9.3799340 C 26.103570,8.6048050 25.479550,7.9807840 24.704420,7.9807840 L 20.915640,7.9807840 z "
       id="path1144"
       transform="matrix(0.978453,0.000000,0.000000,0.978453,0.431270,0.251887)" />
  </g>
  <path
     style="font-size:12.000000;fill:#000000;fill-opacity:1.0000000;fill-rule:evenodd;stroke:none;stroke-width:3.1249986;stroke-linecap:round;stroke-linejoin:round;stroke-opacity:1.0000000"
     d="M 16.687500,3.1250000 C 14.898871,3.1250000 13.406250,4.6176217 13.406250,6.4062500 L 13.406250,44.843750 C 13.406249,46.632378 14.898871,48.125000 16.687500,48.125000 L 53.593750,48.125000 C 55.382381,48.125003 56.875000,46.632378 56.875000,44.843750 L 56.875000,10.343750 C 56.877453,9.9207632 56.708323,9.5148513 56.406250,9.2187500 L 50.718750,3.5937500 C 50.430255,3.2993669 50.037136,3.1308872 49.625000,3.1250000 L 16.687500,3.1250000 z M 16.687500,6.2500000 L 49.000000,6.2500000 L 53.750000,10.968750 L 53.750000,44.843750 C 53.750000,44.955184 53.705187,45.000000 53.593750,45.000000 L 16.687500,45.000000 C 16.576065,45.000000 16.531250,44.955181 16.531250,44.843750 L 16.531250,6.4062500 C 16.531250,6.2948157 16.576066,6.2500000 16.687500,6.2500000 z "
     id="path1145" />
  <path
     style="font-size:12.000000;fill:#000000;fill-opacity:1.0000000;fill-rule:evenodd;stroke-width:1.2500000;stroke-linecap:round;stroke-linejoin:round;"
     d="M 12.658767,25.288357 C 11.531337,25.288357 10.623684,26.196007 10.623684,27.323447 L 10.623684,49.309603 C 10.623684,50.437043 11.531337,51.344693 12.658767,51.344693 L 47.780983,51.344693 C 48.908423,51.344693 49.816073,50.437043 49.816073,49.309603 L 49.816073,27.323447 C 49.816073,26.196007 48.908423,25.288357 47.780983,25.288357 L 12.658767,25.288357 z "
     id="path1146"
     transform="matrix(0.809376,0.000000,0.000000,0.809376,10.67687,1.019889)"
     sodipodi:nodetypes="ccccccccc" />
  <path
     style="font-size:12.000000;fill:#ffffff;fill-opacity:1.0000000;fill-rule:evenodd;stroke:none;stroke-width:3.1249986;stroke-linecap:round;stroke-linejoin:round;stroke-opacity:1.0000000"
     d="M 13.531250,45.825845 C 13.847231,47.302511 15.127703,48.450845 16.687500,48.450845 L 22.156250,48.450845 L 22.156250,45.825845 L 13.531250,45.825845 z "
     id="path1104"
     sodipodi:nodetypes="ccccc" />
  <g
     id="g1117"
     transform="translate(-21.53505,26.43034)">
    <path
       style="font-size:12.000000;fill:none;fill-opacity:1.0000000;fill-rule:evenodd;stroke:#ffffff;stroke-width:9.6800518;stroke-linecap:round;stroke-linejoin:round;stroke-miterlimit:4.0000000;stroke-opacity:1.0000000"
       d="M 23.155000,31.012803 C 25.816500,7.5141815 46.220430,9.0920845 47.532730,9.2155035 L 47.532730,2.1875005 L 57.812500,12.362373 L 47.532730,22.516263 L 47.532730,15.572173 C 45.989710,15.390943 31.574540,13.944273 23.155000,31.012803 z "
       id="path1789"
       transform="matrix(0.839355,0.000000,0.000000,0.839355,6.787289,2.851411)" />
    <path
       style="font-size:12.000000;fill:#000000;fill-opacity:1.0000000;fill-rule:evenodd;stroke:#000000;stroke-width:3.1250000;stroke-linecap:round;stroke-linejoin:round;stroke-miterlimit:4.0000000;stroke-opacity:1.0000000"
       d="M 26.222554,28.882162 C 28.456497,9.1584768 45.582638,10.482898 46.684124,10.586490 L 46.684124,4.6875005 L 55.312500,13.227831 L 46.684124,21.750549 L 46.684124,15.921992 C 45.388982,15.769876 33.289537,14.555606 26.222554,28.882162 z "
       id="path993" />
  </g>
</svg>
