<?xml version="1.0" encoding="UTF-8" standalone="no"?>
<!DOCTYPE svg PUBLIC "-//W3C//DTD SVG 20010904//EN"
"http://www.w3.org/TR/2001/REC-SVG-20010904/DTD/svg10.dtd">
<svg
   height="60"
   width="60"
   _SVGFile__filename="oldscale/actions/flip.svg"
   version="1.0"
   y="0"
   x="0"
   id="svg1"
   sodipodi:version="0.32"
   inkscape:version="0.40"
   sodipodi:docname="flip.svg"
   sodipodi:docbase="/home/danny/work/flat/SVG/mono/scalable/actions"
   xmlns="http://www.w3.org/2000/svg"
   xmlns:cc="http://web.resource.org/cc/"
   xmlns:inkscape="http://www.inkscape.org/namespaces/inkscape"
   xmlns:sodipodi="http://sodipodi.sourceforge.net/DTD/sodipodi-0.dtd"
   xmlns:rdf="http://www.w3.org/1999/02/22-rdf-syntax-ns#"
   xmlns:dc="http://purl.org/dc/elements/1.1/"
   xmlns:xlink="http://www.w3.org/1999/xlink">
  <sodipodi:namedview
     id="base"
     pagecolor="#ffffff"
     bordercolor="#666666"
     borderopacity="1.0"
     inkscape:pageopacity="0.0000000"
     inkscape:pageshadow="2"
     inkscape:zoom="6.6344731"
     inkscape:cx="36.792830"
     inkscape:cy="14.572687"
     inkscape:window-width="1024"
     inkscape:window-height="698"
     inkscape:window-x="0"
     inkscape:window-y="0"
     inkscape:current-layer="svg1" />
  <defs
     id="defs3" />
  <g
     id="g1726"
     transform="matrix(0.829499,0.000000,0.000000,0.829499,5.115031,1.653479)">
    <path
       style="font-size:12.000000;fill:none;fill-opacity:1.0000000;fill-rule:evenodd;stroke:#ffffff;stroke-width:12.055457;stroke-linecap:round;stroke-linejoin:round;stroke-miterlimit:4.0000000;stroke-dashoffset:0.0000000;stroke-opacity:1.0000000"
       d="M 17.189605,5.5358413 C 17.189605,5.1214531 17.523206,4.7878479 17.937592,4.7878479 L 42.062405,4.7878479 C 42.476792,4.7878479 42.810393,5.1214531 42.810393,5.5358413 L 42.810393,23.018220 C 42.810393,23.432607 42.476792,23.766218 42.062405,23.766218 L 17.937592,23.766218 C 17.523206,23.766218 17.189605,23.432607 17.189605,23.018220 L 17.189605,5.5358413 z "
       id="path1723" />
    <path
       style="font-size:12.000000;fill:#ffffff;fill-opacity:1.0000000;fill-rule:evenodd;stroke:#000000;stroke-width:6.2109199;stroke-linecap:round;stroke-linejoin:round;stroke-miterlimit:4.0000000;stroke-dashoffset:0.0000000;stroke-opacity:1.0000000"
       d="M 4.8907170,16.829140 C 4.4637350,16.829140 4.1199910,17.172880 4.1199910,17.599860 L 4.1199910,42.457860 C 4.1199910,42.884840 4.4637350,43.228580 4.8907170,43.228580 L 22.904410,43.228580 C 23.331390,43.228580 23.675140,42.884840 23.675140,42.457860 L 23.675140,17.599860 C 23.675140,17.172880 23.331390,16.829140 22.904410,16.829140 L 4.8907170,16.829140 z "
       transform="matrix(0.000000,0.970505,0.970505,0.000000,0.856840,0.789376)"
       id="rect827" />
  </g>
  <g
     id="g1723"
     transform="matrix(0.962897,0.000000,0.000000,1.000000,1.113092,-4.000000e-6)">
    <path
       style="font-size:12.000000;fill:none;fill-opacity:0.75000000;fill-rule:evenodd;stroke:#ffffff;stroke-width:10.190845;stroke-linecap:round;stroke-linejoin:round;stroke-miterlimit:4.0000000;stroke-opacity:1.0000000"
       d="M 4.6849649,30.000004 L 55.315030,30.000004"
       id="path1724" />
    <path
       style="font-size:12.000000;fill:none;fill-opacity:0.75000000;fill-rule:evenodd;stroke:#000000;stroke-width:5.2502799;stroke-linecap:round;stroke-linejoin:round;stroke-miterlimit:4.0000000;stroke-opacity:1.0000000"
       d="M 3.9444670,30.098380 L 56.113250,30.098380"
       id="path829"
       transform="matrix(0.970505,0.000000,0.000000,0.970505,0.856840,0.789376)" />
  </g>
  <metadata
     id="metadata7">
    <RDF
       id="RDF8">
      <Work
         about=""
         id="Work9">
        <title
           id="title10">Part of the Flat Icon Collection (Thu Aug 26 14:38:01 2004)</title>
        <description
           id="description12" />
        <subject
           id="subject13">
          <Bag
             id="Bag14">
            <li
               id="li15" />
          </Bag>
        </subject>
        <publisher
           id="publisher16">
          <Agent
             about=""
             id="Agent17">
            <title
               id="title18" />
          </Agent>
        </publisher>
        <creator
           id="creator19">
          <Agent
             about=""
             id="Agent20">
            <title
               id="title21">Danny Allen</title>
          </Agent>
        </creator>
        <rights
           id="rights23">
          <Agent
             about=""
             id="Agent24">
            <title
               id="title25">Danny Allen</title>
          </Agent>
        </rights>
        <date
           id="date27" />
        <format
           id="format28">image/svg+xml</format>
        <type
           id="type30"
           resource="http://purl.org/dc/dcmitype/StillImage" />
        <license
           id="license31"
           resource="http://creativecommons.org/licenses/LGPL/2.1/">
          <date
             id="date32" />
        </license>
        <language
           id="language33">en</language>
      </Work>
    </RDF>
    <rdf:RDF
       id="RDF35">
      <cc:Work
         rdf:about=""
         id="Work36">
        <dc:format
           id="format37">image/svg+xml</dc:format>
        <dc:type
           id="type39"
           rdf:resource="http://purl.org/dc/dcmitype/StillImage" />
      </cc:Work>
    </rdf:RDF>
  </metadata>
  <g
     id="g1729"
     transform="matrix(0.829499,0.000000,0.000000,0.829499,5.115031,34.66095)">
    <path
       style="font-size:12.000000;fill:none;fill-opacity:1.0000000;fill-rule:evenodd;stroke:#ffffff;stroke-width:12.055457;stroke-linecap:round;stroke-linejoin:round;stroke-miterlimit:4.0000000;stroke-dashoffset:0.0000000;stroke-opacity:1.0000000"
       d="M 17.189605,5.5358413 C 17.189605,5.1214531 17.523206,4.7878479 17.937592,4.7878479 L 42.062405,4.7878479 C 42.476792,4.7878479 42.810393,5.1214531 42.810393,5.5358413 L 42.810393,23.018220 C 42.810393,23.432607 42.476792,23.766218 42.062405,23.766218 L 17.937592,23.766218 C 17.523206,23.766218 17.189605,23.432607 17.189605,23.018220 L 17.189605,5.5358413 z "
       id="path1730" />
    <path
       style="font-size:12.000000;fill:#000000;fill-opacity:1.0000000;fill-rule:evenodd;stroke:#000000;stroke-width:6.2109199;stroke-linecap:round;stroke-linejoin:round;stroke-miterlimit:4.0000000;stroke-dashoffset:0.0000000;stroke-opacity:1.0000000;"
       d="M 4.8907170,16.829140 C 4.4637350,16.829140 4.1199910,17.172880 4.1199910,17.599860 L 4.1199910,42.457860 C 4.1199910,42.884840 4.4637350,43.228580 4.8907170,43.228580 L 22.904410,43.228580 C 23.331390,43.228580 23.675140,42.884840 23.675140,42.457860 L 23.675140,17.599860 C 23.675140,17.172880 23.331390,16.829140 22.904410,16.829140 L 4.8907170,16.829140 z "
       transform="matrix(0.000000,0.970505,0.970505,0.000000,0.856840,0.789376)"
       id="path1731" />
  </g>
</svg>
