<?xml version="1.0" encoding="UTF-8" standalone="no"?>
<!DOCTYPE svg PUBLIC "-//W3C//DTD SVG 20010904//EN"
"http://www.w3.org/TR/2001/REC-SVG-20010904/DTD/svg10.dtd">
<svg
   height="60"
   width="60"
   _SVGFile__filename="oldscale/actions/imagegallery.svg"
   version="1.0"
   y="0"
   x="0"
   id="svg1"
   sodipodi:version="0.32"
   inkscape:version="0.40"
   sodipodi:docname="imagegallery.svg"
   sodipodi:docbase="/home/danny/work/flat/SVG/mono/scalable/actions"
   xmlns="http://www.w3.org/2000/svg"
   xmlns:cc="http://web.resource.org/cc/"
   xmlns:inkscape="http://www.inkscape.org/namespaces/inkscape"
   xmlns:sodipodi="http://sodipodi.sourceforge.net/DTD/sodipodi-0.dtd"
   xmlns:rdf="http://www.w3.org/1999/02/22-rdf-syntax-ns#"
   xmlns:dc="http://purl.org/dc/elements/1.1/"
   xmlns:xlink="http://www.w3.org/1999/xlink">
  <sodipodi:namedview
     id="base"
     pagecolor="#ffffff"
     bordercolor="#666666"
     borderopacity="1.0"
     inkscape:pageopacity="0.0"
     inkscape:pageshadow="2"
     inkscape:zoom="4.9313902"
     inkscape:cx="88.297327"
     inkscape:cy="9.7817653"
     inkscape:window-width="1024"
     inkscape:window-height="699"
     inkscape:window-x="0"
     inkscape:window-y="0"
     inkscape:current-layer="svg1" />
  <defs
     id="defs3" />
  <path
     id="path1099"
     style="font-size:12.000000;fill:none;fill-opacity:0.75000000;fill-rule:evenodd;stroke:#ffffff;stroke-width:10.000000;stroke-linecap:round;stroke-linejoin:round;stroke-miterlimit:4.0000000;stroke-dashoffset:0.0000000;stroke-opacity:1.0000000;"
     d="M 10.347090,20.442786 C 17.850925,9.8543860 20.471311,-6.9204955 47.985359,20.680725" />
  <path
     id="path1103"
     style="font-size:12.000000;fill:none;fill-rule:evenodd;stroke:#ffffff;stroke-width:8.1250000;stroke-linejoin:round;stroke-miterlimit:4.0000000;stroke-opacity:1.0000000;"
     d="M 6.4787860,20.130341 C 5.4425640,20.174950 4.6443040,21.044115 4.6889650,22.079139 L 6.0458460,53.525292 C 6.0905060,54.560306 6.9606750,55.357653 7.9968960,55.313044 L 53.521200,53.353239 C 54.557420,53.308630 55.355680,52.439458 55.311020,51.404443 L 53.954140,19.958290 C 53.909480,18.923267 53.039310,18.125926 52.003090,18.170535 L 6.4787860,20.130341 z " />
  <g
     id="g1092"
     transform="matrix(0.936086,0.000000,0.000000,0.935004,1.830850,1.828875)">
    <path
       id="path744"
       style="font-size:12.000000;fill:none;fill-opacity:0.75000000;fill-rule:evenodd;stroke:#000000;stroke-width:5.3444762;stroke-linecap:round;stroke-linejoin:round;stroke-dasharray:5.3444767 5.3444767 ;stroke-dashoffset:0.0000000;stroke-opacity:1.0000000"
       d="M 9.1613480,19.410140 C 17.177530,8.0856970 19.976830,-9.8552760 49.369480,19.664620"
       transform="translate(-6.363461e-2,0.497701)" />
    <rect
       style="font-size:12.000000;fill:#ffffff;fill-opacity:1.0000000;fill-rule:evenodd;stroke-width:3.1250000"
       transform="matrix(0.999073,-4.305951e-2,4.305951e-2,0.999073,-2.012241,10.50761)"
       rx="2.0000000"
       ry="2.0000000"
       height="37.663319"
       width="52.677750"
       y="9.3581066"
       x="4.5806737"
       id="rect727" />
    <path
       style="font-size:12.000000;fill:#ffffff;fill-opacity:1.0000000;fill-rule:evenodd;stroke:#000000;stroke-width:3.3402995;stroke-linecap:round;stroke-linejoin:round;stroke-opacity:1.0000000;stroke-miterlimit:4.0000000;stroke-dasharray:none;"
       d="M 45.351900,54.472860 C 43.692300,50.326700 41.516260,46.292090 37.779350,44.222540 C 33.934600,44.246680 29.097980,44.654620 24.427510,44.887070 C 20.583940,47.185010 18.604740,51.470560 17.239240,55.872040"
       transform="translate(-6.363461e-2,0.497701)"
       id="path849" />
    <path
       style="font-size:12.000000;fill:#ffffff;fill-opacity:1.0000000;fill-rule:evenodd;stroke:#000000;stroke-width:3.4722510;stroke-linecap:round;stroke-linejoin:round;stroke-opacity:1.0000000;stroke-miterlimit:4.0000000;stroke-dasharray:none;"
       d="M 31.850420,22.301340 C 31.850420,29.105450 26.328240,34.627630 19.524130,34.627630 C 12.720010,34.627630 7.1978350,29.105450 7.1978350,22.301340 C 7.1978350,15.497230 12.720010,9.9750510 19.524130,9.9750510 C 26.328240,9.9750510 31.850420,15.497230 31.850420,22.301340 z "
       transform="matrix(0.960809,-4.781999e-2,4.781999e-2,0.960809,10.06177,15.93690)"
       id="path716" />
    <path
       id="rect834"
       style="font-size:12.000000;fill:none;fill-rule:evenodd;stroke:#000000;stroke-width:3.3402979;stroke-linejoin:round;stroke-opacity:1.0000000"
       d="M 6.5806740,9.3581070 C 5.4726740,9.3581070 4.5806740,10.250110 4.5806740,11.358110 L 4.5806740,45.021430 C 4.5806740,46.129420 5.4726740,47.021430 6.5806740,47.021430 L 55.258420,47.021430 C 56.366420,47.021430 57.258420,46.129420 57.258420,45.021430 L 57.258420,11.358110 C 57.258420,10.250110 56.366420,9.3581070 55.258420,9.3581070 L 6.5806740,9.3581070 z "
       transform="matrix(0.999073,-4.305951e-2,4.305951e-2,0.999073,-2.012241,10.50761)" />
  </g>
  <metadata
     id="metadata9">
    <RDF
       id="RDF10">
      <Work
         about=""
         id="Work11">
        <title
           id="title12">Part of the Flat Icon Collection (Thu Aug 26 14:38:01 2004)</title>
        <description
           id="description14" />
        <subject
           id="subject15">
          <Bag
             id="Bag16">
            <li
               id="li17" />
          </Bag>
        </subject>
        <publisher
           id="publisher18">
          <Agent
             about=""
             id="Agent19">
            <title
               id="title20" />
          </Agent>
        </publisher>
        <creator
           id="creator21">
          <Agent
             about=""
             id="Agent22">
            <title
               id="title23">Danny Allen</title>
          </Agent>
        </creator>
        <rights
           id="rights25">
          <Agent
             about=""
             id="Agent26">
            <title
               id="title27">Danny Allen</title>
          </Agent>
        </rights>
        <date
           id="date29" />
        <format
           id="format30">image/svg+xml</format>
        <type
           id="type32"
           resource="http://purl.org/dc/dcmitype/StillImage" />
        <license
           id="license33"
           resource="http://creativecommons.org/licenses/LGPL/2.1/">
          <date
             id="date34" />
        </license>
        <language
           id="language35">en</language>
      </Work>
    </RDF>
    <rdf:RDF
       id="RDF37">
      <cc:Work
         rdf:about=""
         id="Work38">
        <dc:format
           id="format39">image/svg+xml</dc:format>
        <dc:type
           id="type41"
           rdf:resource="http://purl.org/dc/dcmitype/StillImage" />
      </cc:Work>
    </rdf:RDF>
  </metadata>
</svg>
