<?xml version="1.0" encoding="UTF-8" standalone="no"?>
<!DOCTYPE svg PUBLIC "-//W3C//DTD SVG 20010904//EN"
"http://www.w3.org/TR/2001/REC-SVG-20010904/DTD/svg10.dtd">
<svg
   height="60"
   width="60"
   _SVGFile__filename="oldscale/actions/viewmag_factor.svg"
   version="1.0"
   y="0"
   x="0"
   id="svg1"
   xmlns="http://www.w3.org/2000/svg"
   xmlns:xlink="http://www.w3.org/1999/xlink"
   xmlns:sodipodi="http://sodipodi.sourceforge.net/DTD/sodipodi-0.dtd"
   xmlns:inkscape="http://www.inkscape.org/namespaces/inkscape"
   sodipodi:version="0.32"
   inkscape:version="0.40"
   xmlns:rdf="http://www.w3.org/1999/02/22-rdf-syntax-ns#"
   xmlns:cc="http://web.resource.org/cc/"
   xmlns:dc="http://purl.org/dc/elements/1.1/"
   sodipodi:docname="viewmag_factor.svg"
   sodipodi:docbase="/home/danny/work/flat/SVG/mono/scalable/actions">
  <sodipodi:namedview
     id="base"
     pagecolor="#ffffff"
     bordercolor="#666666"
     borderopacity="1.0"
     inkscape:pageopacity="0.0"
     inkscape:pageshadow="2"
     inkscape:zoom="3.4732669"
     inkscape:cx="84.906422"
     inkscape:cy="40.543929"
     inkscape:window-width="1024"
     inkscape:window-height="699"
     inkscape:window-x="0"
     inkscape:window-y="0"
     inkscape:current-layer="svg1" />
  <defs
     id="defs3">
    <linearGradient
       id="linearGradient1160">
      <stop
         style="stop-color: #000000;stop-opacity: 1.0;"
         id="stop1161"
         offset="0" />
      <stop
         style="stop-color:#ffffff;stop-opacity:1;"
         id="stop1162"
         offset="1" />
    </linearGradient>
    <linearGradient
       xlink:href="#linearGradient1160"
       id="linearGradient1163" />
  </defs>
  <metadata
     id="metadata12">
    <RDF
       id="RDF13">
      <Work
         about=""
         id="Work14">
        <title
           id="title15">Part of the Flat Icon Collection (Thu Aug 26 14:38:01 2004)</title>
        <description
           id="description17" />
        <subject
           id="subject18">
          <Bag
             id="Bag19">
            <li
               id="li20" />
          </Bag>
        </subject>
        <publisher
           id="publisher21">
          <Agent
             about=""
             id="Agent22">
            <title
               id="title23" />
          </Agent>
        </publisher>
        <creator
           id="creator24">
          <Agent
             about=""
             id="Agent25">
            <title
               id="title26">Danny Allen</title>
          </Agent>
        </creator>
        <rights
           id="rights28">
          <Agent
             about=""
             id="Agent29">
            <title
               id="title30">Danny Allen</title>
          </Agent>
        </rights>
        <date
           id="date32" />
        <format
           id="format33">image/svg+xml</format>
        <type
           id="type35"
           resource="http://purl.org/dc/dcmitype/StillImage" />
        <license
           id="license36"
           resource="http://creativecommons.org/licenses/LGPL/2.1/">
          <date
             id="date37" />
        </license>
        <language
           id="language38">en</language>
      </Work>
    </RDF>
    <rdf:RDF
       id="RDF40">
      <cc:Work
         rdf:about=""
         id="Work41">
        <dc:format
           id="format42">image/svg+xml</dc:format>
        <dc:type
           id="type44"
           rdf:resource="http://purl.org/dc/dcmitype/StillImage" />
      </cc:Work>
    </rdf:RDF>
  </metadata>
  <path
     style="font-size:12.000000;fill:none;fill-opacity:1.0000000;fill-rule:evenodd;stroke:#ffffff;stroke-width:8.1224833;stroke-linecap:round;stroke-linejoin:round;stroke-miterlimit:4.0000000;stroke-opacity:1.0000000;"
     d="M 24.656250,4.6875000 C 13.637738,4.6875010 4.7187530,13.637728 4.7187500,24.656250 C 4.7187500,35.674771 13.637741,44.625000 24.656250,44.625000 C 29.180900,44.625000 33.338440,43.040411 36.687500,40.500000 C 45.913240,53.936500 52.386970,56.790399 54.593750,54.656250 C 56.857480,52.447361 53.372770,46.144104 40.687500,36.468750 C 43.138880,33.153546 44.625000,29.092829 44.625000,24.656250 C 44.625000,13.637729 35.674770,4.6875010 24.656250,4.6875000 z "
     id="path1096"
     transform="matrix(1.000310,0.000000,0.000000,1.000310,1.229048e-2,-1.988434e-4)" />
  <path
     style="font-size:12.000000;fill:#ffffff;fill-opacity:1.0000000;fill-rule:evenodd;stroke:#000000;stroke-width:3.2246218;stroke-linecap:round;stroke-linejoin:round;stroke-opacity:1.0000000;"
     d="M 31.913680,32.618870 C 44.251640,53.717920 52.965610,58.090200 55.644410,55.499570 C 58.416270,52.794860 53.750530,44.426660 33.534360,30.966260 L 31.913680,32.618870 z "
     id="path1187"
     transform="matrix(0.969106,0.000000,0.000000,0.969106,0.687334,0.895520)" />
  <path
     style="font-size:12.000000;fill:#ffffff;fill-opacity:1.0000000;fill-rule:evenodd;stroke:#000000;stroke-width:3.2246218;stroke-linecap:round;stroke-linejoin:round;stroke-opacity:1.0000000;"
     d="M 45.373020,24.517720 C 45.373020,35.891020 36.142510,45.121520 24.769210,45.121520 C 13.395920,45.121520 4.1654130,35.891020 4.1654130,24.517720 C 4.1654130,13.144420 13.395920,3.9139190 24.769210,3.9139180 C 36.142510,3.9139190 45.373020,13.144420 45.373020,24.517720 z "
     id="path1174"
     transform="matrix(0.969106,0.000000,0.000000,0.969106,0.687334,0.895520)" />
  <path
     style="font-size:12.000000;fill:#ffffff;fill-opacity:1.0000000;fill-rule:evenodd;stroke:#000000;stroke-width:2.4992261;stroke-linecap:round;stroke-linejoin:round;stroke-opacity:1.0000000;"
     d="M 40.385068,24.648355 C 40.385068,33.322298 33.345346,40.362020 24.671403,40.362020 C 15.997450,40.362020 8.9577310,33.322298 8.9577320,24.648355 C 8.9577310,15.974412 15.997450,8.9346881 24.671403,8.9346881 C 33.345346,8.9346881 40.385068,15.974412 40.385068,24.648355 z "
     id="path1175"
     transform="matrix(1.000310,0.000000,0.000000,1.000310,1.229048e-2,-1.988434e-4)" />
  <path
     style="font-size:12.000000;font-weight:900;fill:#000000;fill-opacity:1.0000000;stroke-width:1.0000000;font-family:VAG Rounded Black SSi"
     d="M 21.909004,27.000381 L 21.909004,24.551921 C 21.909004,24.047391 22.012874,23.661571 22.220624,23.394471 C 22.428374,23.127361 22.680634,22.944351 22.977414,22.845421 C 23.274204,22.746491 23.719374,22.642621 24.312944,22.533801 C 25.856214,22.246911 26.627844,21.470331 26.627844,20.204051 C 26.627844,19.689631 26.420104,19.229611 26.004604,18.824011 C 25.598994,18.408521 25.064794,18.200771 24.401974,18.200771 C 23.788624,18.200771 23.303874,18.319481 22.947734,18.556911 C 22.601494,18.794331 22.255244,19.140581 21.909004,19.595651 C 21.572644,20.040821 21.246184,20.382121 20.929614,20.619551 C 20.622944,20.847081 20.202494,20.960851 19.668284,20.960851 C 19.064824,20.960851 18.545464,20.733321 18.110174,20.278251 C 17.684784,19.813291 17.472094,19.269191 17.472094,18.645941 C 17.472094,17.557741 17.828234,16.603091 18.540514,15.781991 C 19.252794,14.960891 20.143144,14.332701 21.211564,13.897421 C 22.279974,13.462131 23.343444,13.244491 24.401974,13.244491 C 25.440714,13.244491 26.410204,13.397831 27.310444,13.704511 C 28.210684,14.011181 29.007054,14.461301 29.699554,15.054871 C 30.392044,15.648431 30.931204,16.370611 31.317014,17.221381 C 31.712724,18.062271 31.910584,19.002081 31.910584,20.040821 C 31.910584,21.900661 31.440674,23.345001 30.500864,24.373851 C 29.570944,25.392811 28.289834,26.070461 26.657524,26.406821 L 26.657524,27.000381 C 26.657524,27.475241 26.553654,27.895681 26.345904,28.261711 C 26.148044,28.617851 25.866104,28.899791 25.500074,29.107541 C 25.143934,29.305401 24.738324,29.404321 24.283264,29.404321 C 23.828194,29.404321 23.417644,29.305401 23.051614,29.107541 C 22.695474,28.899791 22.413534,28.617851 22.205784,28.261711 C 22.007924,27.895681 21.909004,27.475241 21.909004,27.000381 z M 21.641894,33.396051 C 21.641894,32.921201 21.760604,32.480971 21.998034,32.075371 C 22.245354,31.659871 22.571814,31.328471 22.977414,31.081151 C 23.383024,30.833831 23.818304,30.710171 24.283264,30.710171 C 24.748224,30.710171 25.183504,30.833831 25.589104,31.081151 C 25.994714,31.328471 26.316224,31.659871 26.553654,32.075371 C 26.800964,32.480971 26.924634,32.921201 26.924634,33.396051 C 26.924634,33.880801 26.800964,34.330921 26.553654,34.746411 C 26.316224,35.152021 25.989764,35.473531 25.574264,35.710961 C 25.168664,35.948391 24.738324,36.067101 24.283264,36.067101 C 23.828194,36.067101 23.392914,35.948391 22.977414,35.710961 C 22.571814,35.473531 22.245354,35.152021 21.998034,34.746411 C 21.760604,34.330921 21.641894,33.880801 21.641894,33.396051 z "
     id="path839" />
</svg>
