<?xml version="1.0" encoding="UTF-8" standalone="no"?>
<!DOCTYPE svg PUBLIC "-//W3C//DTD SVG 20010904//EN"
"http://www.w3.org/TR/2001/REC-SVG-20010904/DTD/svg10.dtd">
<svg
   height="60"
   width="60"
   _SVGFile__filename="oldscale/apps/gnome_question.svg"
   version="1.0"
   y="0"
   x="0"
   id="svg1"
   sodipodi:version="0.32"
   inkscape:version="0.40"
   sodipodi:docname="help.svg"
   sodipodi:docbase="/home/danny/work/flat/SVG/mono/scalable/actions"
   xmlns="http://www.w3.org/2000/svg"
   xmlns:cc="http://web.resource.org/cc/"
   xmlns:inkscape="http://www.inkscape.org/namespaces/inkscape"
   xmlns:sodipodi="http://sodipodi.sourceforge.net/DTD/sodipodi-0.dtd"
   xmlns:rdf="http://www.w3.org/1999/02/22-rdf-syntax-ns#"
   xmlns:dc="http://purl.org/dc/elements/1.1/"
   xmlns:xlink="http://www.w3.org/1999/xlink">
  <sodipodi:namedview
     id="base"
     pagecolor="#ffffff"
     bordercolor="#666666"
     borderopacity="1.0"
     inkscape:pageopacity="0.0"
     inkscape:pageshadow="2"
     inkscape:zoom="10.803476"
     inkscape:cx="43.958948"
     inkscape:cy="22.168830"
     inkscape:window-width="1024"
     inkscape:window-height="699"
     inkscape:window-x="0"
     inkscape:window-y="0"
     inkscape:current-layer="svg1" />
  <defs
     id="defs3" />
  <path
     style="font-size:12.000000;fill:none;fill-opacity:1.0000000;fill-rule:evenodd;stroke:#ffffff;stroke-width:8.1250000;stroke-linecap:round;stroke-linejoin:round;stroke-miterlimit:4.0000000;stroke-opacity:1.0000000;"
     d="M 30.000000,4.6871394 C 16.030170,4.6871394 4.6871380,16.030171 4.6871390,30.000001 C 4.6871390,43.969830 16.030170,55.312861 30.000000,55.312861 C 43.969829,55.312861 55.312870,43.969830 55.312860,30.000001 C 55.312860,16.030171 43.969829,4.6871394 30.000000,4.6871394 z "
     id="path1087"
     sodipodi:nodetypes="ccccc" />
  <path
     style="font-size:12.000000;fill:#ffffff;fill-opacity:1.0000000;fill-rule:evenodd;stroke:#000000;stroke-width:3.1250002;stroke-opacity:1.0000000"
     d="M 30.000000,4.6871394 C 16.030170,4.6871394 4.6871380,16.030171 4.6871390,30.000001 C 4.6871390,43.969830 16.030170,55.312861 30.000000,55.312861 C 43.969829,55.312861 55.312870,43.969830 55.312860,30.000001 C 55.312860,16.030171 43.969829,4.6871394 30.000000,4.6871394 z "
     id="path839"
     sodipodi:nodetypes="ccccc" />
  <metadata
     id="metadata5">
    <rdf:RDF
       id="RDF5">
      <Work
         rdf:about=""
         id="Work6">
        <dc:title
           id="title7">Part of the Flat Icon Collection (Thu Aug 26 14:31:40 2004)</dc:title>
        <dc:description
           id="description9" />
        <dc:subject
           id="subject10">
          <rdf:Bag
             id="Bag11">
            <rdf:li
               id="li12" />
          </rdf:Bag>
        </dc:subject>
        <dc:publisher
           id="publisher13">
          <Agent
             rdf:about=""
             id="Agent14">
            <dc:title
               id="title15" />
          </Agent>
        </dc:publisher>
        <dc:creator
           id="creator16">
          <Agent
             rdf:about=""
             id="Agent17">
            <dc:title
               id="title18">Danny Allen</dc:title>
          </Agent>
        </dc:creator>
        <dc:rights
           id="rights20">
          <Agent
             rdf:about=""
             id="Agent21">
            <dc:title
               id="title22">Danny Allen</dc:title>
          </Agent>
        </dc:rights>
        <dc:date
           id="date24" />
        <dc:format
           id="format25">image/svg+xml</dc:format>
        <dc:type
           rdf:resource="http://purl.org/dc/dcmitype/StillImage"
           id="type27" />
        <license
           rdf:resource="http://creativecommons.org/licenses/LGPL/2.1/"
           id="license28">
          <dc:date
             id="date29" />
        </license>
        <dc:language
           id="language30">en</dc:language>
      </Work>
      <cc:Work
         rdf:about=""
         id="Work33">
        <dc:format
           id="format34">image/svg+xml</dc:format>
        <dc:type
           id="type36"
           rdf:resource="http://purl.org/dc/dcmitype/StillImage" />
      </cc:Work>
    </rdf:RDF>
  </metadata>
  <path
     style="font-size:12.000000;fill:#000000;fill-opacity:1.0000000;fill-rule:evenodd;stroke:#000000;stroke-width:1.2500000;stroke-linejoin:round;stroke-miterlimit:4.0000000;stroke-opacity:1.0000000;stroke-dasharray:none;"
     d="M 29.514894,10.464819 C 31.204780,10.464819 32.810433,10.723876 34.274997,11.222798 C 35.739562,11.721710 37.029255,12.440124 38.155847,13.405775 C 39.282437,14.371418 40.165942,15.538700 40.793611,16.922794 C 41.437375,18.290794 41.733504,19.841416 41.733504,21.531304 C 41.733504,24.556998 40.988508,26.891552 39.459569,28.565342 C 37.946727,30.223037 35.869357,31.322929 33.213827,31.870128 L 33.213827,32.840340 C 33.213827,33.612862 33.036376,34.306554 32.698403,34.902040 C 32.376525,35.481433 31.899200,35.928429 31.303722,36.266403 C 30.724331,36.588290 30.073308,36.751508 29.332978,36.751508 C 28.592648,36.751508 27.927402,36.588280 27.331915,36.266403 C 26.752524,35.928429 26.305528,35.481433 25.967555,34.902040 C 25.645668,34.306554 25.482448,33.612862 25.482448,32.840340 L 25.482448,28.868535 C 25.482448,28.047734 25.629580,27.392967 25.967555,26.958429 C 26.305528,26.523889 26.727812,26.240112 27.210639,26.079173 C 27.693467,25.918235 28.427974,25.740782 29.393617,25.563748 C 31.904302,25.097018 33.153190,23.833899 33.153190,21.773857 C 33.153190,20.936961 32.798295,20.190102 32.122340,19.530240 C 31.462478,18.854284 30.593196,18.529708 29.514894,18.529708 C 28.517059,18.529708 27.729392,18.719512 27.150000,19.105772 C 26.586705,19.492034 26.045743,20.063313 25.482448,20.803645 C 24.935248,21.527878 24.390544,22.084936 23.875535,22.471197 C 23.376611,22.841361 22.682921,23.016941 21.813833,23.016941 C 20.832095,23.016941 20.005482,22.635462 19.297345,21.895133 C 18.605302,21.138706 18.266495,20.271298 18.266495,19.257368 C 18.266495,17.487012 18.835913,15.924029 19.994685,14.588222 C 21.153468,13.252403 22.592155,12.234127 24.330320,11.525989 C 26.068485,10.817851 27.792825,10.464819 29.514894,10.464819 z M 29.272340,40.833589 C 30.028766,40.833589 30.734819,41.037615 31.394679,41.439971 C 32.054540,41.842319 32.554694,42.370929 32.940956,43.046885 C 33.343312,43.706747 33.547338,44.427023 33.547338,45.199544 C 33.547338,45.988152 33.343312,46.736884 32.940956,47.412841 C 32.554694,48.072702 32.040317,48.572856 31.364359,48.959118 C 30.704500,49.345378 30.012670,49.535181 29.272340,49.535181 C 28.532010,49.535181 27.825958,49.345378 27.150000,48.959118 C 26.490139,48.572856 25.945443,48.072702 25.543086,47.412841 C 25.156825,46.736884 24.967022,45.988152 24.967022,45.199544 C 24.967022,44.427023 25.156825,43.706747 25.543086,43.046885 C 25.945443,42.370929 26.490139,41.842328 27.150000,41.439971 C 27.809860,41.037615 28.515914,40.833589 29.272340,40.833589 z "
     id="path1710"
     sodipodi:nodetypes="ccccccccccccccccccccccccccccccccccccccccccc" />
</svg>
