<?xml version="1.0" encoding="UTF-8" standalone="no"?>
<!DOCTYPE svg PUBLIC "-//W3C//DTD SVG 20010904//EN"
"http://www.w3.org/TR/2001/REC-SVG-20010904/DTD/svg10.dtd">
<svg
   height="60"
   width="60"
   _SVGFile__filename="oldscale/actions/bookmark_add.svg"
   version="1.0"
   y="0"
   x="0"
   id="svg1"
   sodipodi:version="0.32"
   inkscape:version="0.40"
   sodipodi:docname="bookmark_add.svg"
   sodipodi:docbase="/home/danny/work/flat/SVG/mono/scalable/actions/d"
   xmlns="http://www.w3.org/2000/svg"
   xmlns:cc="http://web.resource.org/cc/"
   xmlns:inkscape="http://www.inkscape.org/namespaces/inkscape"
   xmlns:sodipodi="http://sodipodi.sourceforge.net/DTD/sodipodi-0.dtd"
   xmlns:rdf="http://www.w3.org/1999/02/22-rdf-syntax-ns#"
   xmlns:dc="http://purl.org/dc/elements/1.1/"
   xmlns:xlink="http://www.w3.org/1999/xlink">
  <sodipodi:namedview
     id="base"
     pagecolor="#ffffff"
     bordercolor="#666666"
     borderopacity="1.0"
     inkscape:pageopacity="0.0"
     inkscape:pageshadow="2"
     inkscape:zoom="6.9465337"
     inkscape:cx="27.159023"
     inkscape:cy="12.308433"
     inkscape:window-width="1024"
     inkscape:window-height="699"
     inkscape:window-x="0"
     inkscape:window-y="0"
     inkscape:current-layer="svg1" />
  <defs
     id="defs3" />
  <path
     style="font-size:12.000000;fill:none;fill-opacity:1.0000000;fill-rule:evenodd;stroke:#ffffff;stroke-width:7.5000000;stroke-linecap:round;stroke-linejoin:round;stroke-miterlimit:4.0000000;stroke-opacity:1.0000000;"
     d="M 18.518407,5.4622271 L 18.518407,43.686855 L 25.176894,46.646187 L 25.176894,8.4215506 L 18.518407,5.4622271 z "
     id="path1716"
     transform="translate(-3.468407,0.000000)" />
  <path
     style="font-size:12.000000;fill:none;fill-opacity:1.0000000;fill-rule:evenodd;stroke:#ffffff;stroke-width:10.000000;stroke-linejoin:round;stroke-miterlimit:4.0000000;stroke-opacity:1.0000000;"
     d="M 8.4062500,5.8125000 C 8.0515300,6.0379032 7.8437500,6.4620419 7.8437500,7.0625000 L 7.8437500,42.500000 C 7.8437500,43.700919 8.7252800,45.083698 9.8125000,45.593750 L 28.093750,54.187500 C 29.125590,54.671574 29.917010,54.138877 30.000000,53.062500 C 30.082990,54.140706 30.874410,54.671574 31.906250,54.187500 L 50.187500,45.593750 C 51.274718,45.083697 52.156250,43.702887 52.156250,42.500000 L 52.156250,7.0625000 C 52.156250,5.8596075 51.274718,5.3024476 50.187500,5.8125000 L 31.906250,14.406250 C 30.875633,14.889750 30.084686,16.157537 30.000000,17.312500 C 29.915314,16.159371 29.124366,14.889750 28.093750,14.406250 L 9.8125000,5.8125000 C 9.2688910,5.5574732 8.7609700,5.5870968 8.4062500,5.8125000 z "
     id="path1714"
     transform="translate(-2.218751,0.000000)" />
  <path
     style="fill:#ffffff;fill-opacity:1.0000000;fill-rule:evenodd;stroke:#000000;stroke-width:4.6490207;stroke-linejoin:round;stroke-miterlimit:4.0000000;stroke-opacity:1.0000000;font-size:12.000000;"
     d="M -22.261930,13.713830 C -23.272830,14.188080 -24.086660,15.470290 -24.086660,16.588740 L -24.086660,49.542180 C -24.086660,50.660630 -23.272830,51.179250 -22.261930,50.705000 L -5.2473470,42.722860 C -4.2364470,42.248610 -3.4226180,40.966400 -3.4226180,39.847950 L -3.4226180,6.8945130 C -3.4226180,5.7760580 -4.2364470,5.2574370 -5.2473470,5.7316860 L -22.261930,13.713830 z "
     transform="matrix(1.075495,0.000000,0.000000,1.075495,53.62345,-0.348696)"
     id="path1592" />
  <path
     style="fill:#ffffff;fill-opacity:1.0000000;fill-rule:evenodd;stroke:#000000;stroke-width:4.6490207;stroke-linejoin:round;stroke-miterlimit:4.0000000;stroke-opacity:1.0000000;font-size:12.000000;"
     d="M -25.794420,13.713850 C -24.783520,14.188100 -23.969690,15.468840 -23.969690,16.585450 L -23.969690,49.545510 C -23.969690,50.662130 -24.783520,51.179270 -25.794420,50.705020 L -42.809040,42.722850 C -43.819940,42.248600 -44.633770,40.967870 -44.633770,39.851250 L -44.633770,6.8911910 C -44.633770,5.7745740 -43.819940,5.2574340 -42.809040,5.7316840 L -25.794420,13.713850 z "
     transform="matrix(1.075495,0.000000,0.000000,1.075495,53.62345,-0.348696)"
     id="path1593" />
  <path
     style="font-size:12.000000;fill:#ffffff;fill-opacity:1.0000000;fill-rule:evenodd;stroke:#000000;stroke-width:2.3245103;stroke-linecap:round;stroke-linejoin:round;stroke-miterlimit:4.0000000;stroke-opacity:1.0000000;"
     d="M -34.703830,5.4030220 L -34.703830,38.619939 L -28.512740,41.371539 L -28.512740,8.1546140 L -34.703830,5.4030220 z "
     transform="matrix(1.075495,0.000000,0.000000,1.075495,52.37379,-0.348696)"
     id="path1594"
     sodipodi:nodetypes="ccccc" />
  <g
     id="g2351"
     transform="matrix(0.927301,0.000000,0.000000,0.927301,3.336339,3.097893)">
    <path
       id="path2350"
       style="font-size:12.000000;font-weight:900;fill:none;fill-opacity:1.0000000;stroke:#ffffff;stroke-width:1.4823077;stroke-linejoin:round;stroke-miterlimit:4.0000000;stroke-opacity:1.0000000;font-family:VAG Rounded Black SSi"
       d="M 11.682710,11.718240 L 11.682710,9.9311270 C 11.682710,9.6811270 11.751060,9.4780020 11.887780,9.3217520 C 12.024500,9.1615950 12.219810,9.0815170 12.473720,9.0815170 C 12.727630,9.0815170 12.922940,9.1615950 13.059660,9.3217520 C 13.200280,9.4780020 13.270600,9.6811270 13.270600,9.9311270 L 13.270600,11.718240 L 15.034270,11.718240 C 15.292080,11.718240 15.495210,11.788550 15.643640,11.929170 C 15.795990,12.065890 15.872160,12.259250 15.872160,12.509250 C 15.872160,12.763160 15.795990,12.960420 15.643640,13.101050 C 15.495210,13.241670 15.292080,13.311990 15.034270,13.311990 L 13.270600,13.311990 L 13.270600,15.093240 C 13.270600,15.347140 13.200280,15.552220 13.059660,15.708470 C 12.919030,15.864720 12.723720,15.942850 12.473720,15.942850 C 12.223720,15.942850 12.028410,15.864720 11.887780,15.708470 C 11.751060,15.552220 11.682710,15.347140 11.682710,15.093240 L 11.682710,13.311990 L 9.9190330,13.311990 C 9.6690330,13.311990 9.4659080,13.235810 9.3096580,13.083470 C 9.1573140,12.927220 9.0811420,12.735810 9.0811420,12.509250 C 9.0811420,12.259250 9.1553610,12.065890 9.3037990,11.929170 C 9.4561420,11.788550 9.6612210,11.718240 9.9190330,11.718240 L 11.682710,11.718240 z "
       transform="scale(3.637565,3.637565)" />
    <path
       id="path832"
       style="font-size:12.000000;font-weight:900;fill:#000000;fill-opacity:1.0000000;stroke-width:1.0000000;font-family:VAG Rounded Black SSi"
       d="M 11.682710,11.718240 L 11.682710,9.9311270 C 11.682710,9.6811270 11.751060,9.4780020 11.887780,9.3217520 C 12.024500,9.1615950 12.219810,9.0815170 12.473720,9.0815170 C 12.727630,9.0815170 12.922940,9.1615950 13.059660,9.3217520 C 13.200280,9.4780020 13.270600,9.6811270 13.270600,9.9311270 L 13.270600,11.718240 L 15.034270,11.718240 C 15.292080,11.718240 15.495210,11.788550 15.643640,11.929170 C 15.795990,12.065890 15.872160,12.259250 15.872160,12.509250 C 15.872160,12.763160 15.795990,12.960420 15.643640,13.101050 C 15.495210,13.241670 15.292080,13.311990 15.034270,13.311990 L 13.270600,13.311990 L 13.270600,15.093240 C 13.270600,15.347140 13.200280,15.552220 13.059660,15.708470 C 12.919030,15.864720 12.723720,15.942850 12.473720,15.942850 C 12.223720,15.942850 12.028410,15.864720 11.887780,15.708470 C 11.751060,15.552220 11.682710,15.347140 11.682710,15.093240 L 11.682710,13.311990 L 9.9190330,13.311990 C 9.6690330,13.311990 9.4659080,13.235810 9.3096580,13.083470 C 9.1573140,12.927220 9.0811420,12.735810 9.0811420,12.509250 C 9.0811420,12.259250 9.1553610,12.065890 9.3037990,11.929170 C 9.4561420,11.788550 9.6612210,11.718240 9.9190330,11.718240 L 11.682710,11.718240 z "
       transform="scale(3.637565,3.637565)" />
  </g>
  <metadata
     id="metadata8">
    <RDF
       id="RDF9">
      <Work
         about=""
         id="Work10">
        <title
           id="title11">Part of the Flat Icon Collection (Thu Aug 26 14:38:01 2004)</title>
        <description
           id="description13" />
        <subject
           id="subject14">
          <Bag
             id="Bag15">
            <li
               id="li16" />
          </Bag>
        </subject>
        <publisher
           id="publisher17">
          <Agent
             about=""
             id="Agent18">
            <title
               id="title19" />
          </Agent>
        </publisher>
        <creator
           id="creator20">
          <Agent
             about=""
             id="Agent21">
            <title
               id="title22">Danny Allen</title>
          </Agent>
        </creator>
        <rights
           id="rights24">
          <Agent
             about=""
             id="Agent25">
            <title
               id="title26">Danny Allen</title>
          </Agent>
        </rights>
        <date
           id="date28" />
        <format
           id="format29">image/svg+xml</format>
        <type
           id="type31"
           resource="http://purl.org/dc/dcmitype/StillImage" />
        <license
           id="license32"
           resource="http://creativecommons.org/licenses/LGPL/2.1/">
          <date
             id="date33" />
        </license>
        <language
           id="language34">en</language>
      </Work>
    </RDF>
    <rdf:RDF
       id="RDF37">
      <cc:Work
         rdf:about=""
         id="Work38">
        <dc:format
           id="format39">image/svg+xml</dc:format>
        <dc:type
           id="type41"
           rdf:resource="http://purl.org/dc/dcmitype/StillImage" />
      </cc:Work>
    </rdf:RDF>
  </metadata>
</svg>
