<?xml version="1.0" encoding="UTF-8" standalone="no"?>
<!DOCTYPE svg PUBLIC "-//W3C//DTD SVG 20010904//EN"
"http://www.w3.org/TR/2001/REC-SVG-20010904/DTD/svg10.dtd">
<svg
   height="60"
   width="60"
   _SVGFile__filename="oldscale/actions/sqrt.svg"
   version="1.0"
   y="0"
   x="0"
   id="svg1"
   xmlns="http://www.w3.org/2000/svg"
   xmlns:rdf="http://www.w3.org/1999/02/22-rdf-syntax-ns#"
   xmlns:dc="http://purl.org/dc/elements/1.1/"
   xmlns:xlink="http://www.w3.org/1999/xlink"
   xmlns:sodipodi="http://sodipodi.sourceforge.net/DTD/sodipodi-0.dtd"
   xmlns:inkscape="http://www.inkscape.org/namespaces/inkscape"
   sodipodi:version="0.32"
   inkscape:version="0.40"
   xmlns:cc="http://web.resource.org/cc/"
   sodipodi:docname="sqrt.svg"
   sodipodi:docbase="/home/danny/work/flat/SVG/mono/scalable/actions">
  <sodipodi:namedview
     id="base"
     pagecolor="#ffffff"
     bordercolor="#666666"
     borderopacity="1.0"
     inkscape:pageopacity="0.0"
     inkscape:pageshadow="2"
     inkscape:zoom="3.5193140"
     inkscape:cx="66.795904"
     inkscape:cy="-4.6066159"
     inkscape:window-width="1024"
     inkscape:window-height="699"
     inkscape:window-x="0"
     inkscape:window-y="0"
     inkscape:current-layer="svg1" />
  <defs
     id="defs3">
    <linearGradient
       id="linearGradient900">
      <stop
         style="stop-color: #000000;stop-opacity: 1.0;"
         id="stop901"
         offset="0" />
      <stop
         style="stop-color:#ffffff;stop-opacity:1;"
         id="stop902"
         offset="1" />
    </linearGradient>
    <linearGradient
       xlink:href="#linearGradient900"
       id="linearGradient903" />
    <linearGradient
       xlink:href="#linearGradient900"
       id="linearGradient904" />
    <linearGradient
       xlink:href="#linearGradient900"
       id="linearGradient905" />
    <linearGradient
       xlink:href="#linearGradient900"
       id="linearGradient906" />
    <linearGradient
       xlink:href="#linearGradient900"
       id="linearGradient907" />
  </defs>
  <path
     id="path1100"
     style="font-size:12.000000;font-weight:900;fill:none;fill-opacity:1.0000000;stroke:#ffffff;stroke-width:5.0000000;stroke-linejoin:round;stroke-miterlimit:4.0000000;stroke-opacity:1.0000000;font-family:VAG Rounded Black SSi;"
     d="M 25.256030,40.234438 L 32.674187,32.243555 L 28.174201,27.389025 C 27.083296,26.225392 26.346935,25.434485 25.965120,25.016303 C 25.601484,24.579941 25.319667,24.152669 25.119666,23.734492 C 24.919670,23.298130 24.819668,22.807222 24.819668,22.261767 C 24.819668,20.952680 25.246940,19.870869 26.101483,19.016326 C 26.956027,18.161782 27.919659,17.734510 28.992379,17.734510 C 30.028743,17.734510 30.846921,17.879964 31.446918,18.170872 C 32.046915,18.461780 32.665097,19.025416 33.301459,19.861779 L 37.937809,25.670847 L 42.574154,19.861779 C 43.246882,19.025416 43.874150,18.461780 44.455966,18.170872 C 45.037782,17.879964 45.846870,17.734510 46.883234,17.734510 C 47.955954,17.734510 48.919591,18.152692 49.774130,18.989050 C 50.628670,19.825413 51.055950,20.916319 51.055950,22.261767 C 51.055950,22.807222 50.955950,23.298130 50.755950,23.734492 C 50.555950,24.152669 50.265040,24.579941 49.883223,25.016303 C 49.519587,25.434485 48.792317,26.225392 47.701412,27.389025 L 43.201426,32.243555 L 50.619580,40.234438 C 51.092310,40.743527 51.492310,41.298068 51.819580,41.898065 C 52.165030,42.479881 52.337760,43.170790 52.337760,43.970788 C 52.337760,45.298055 51.910490,46.370780 51.055950,47.188958 C 50.201400,47.988955 49.146862,48.388956 47.892317,48.388956 C 47.074139,48.388956 46.401415,48.216226 45.874146,47.870776 C 45.365056,47.525322 44.746874,46.952596 44.019604,46.152599 L 37.937809,38.952623 L 31.856009,46.152599 C 31.219646,46.879869 30.619650,47.434414 30.056014,47.816230 C 29.492378,48.198046 28.801474,48.388956 27.983296,48.388956 C 26.728751,48.388956 25.674211,47.988955 24.819668,47.188958 C 23.965124,46.370780 23.537857,45.298055 23.537857,43.970788 C 23.537857,43.188971 23.683311,42.525337 23.974219,41.979887 C 24.283308,41.434432 24.710579,40.852616 25.256030,40.234438 z " />
  <path
     id="path1101"
     style="font-size:12.000000;fill:none;fill-opacity:0.75000000;fill-rule:evenodd;stroke:#ffffff;stroke-width:8.1250000;stroke-linecap:round;stroke-linejoin:round;stroke-miterlimit:4.0000000;stroke-opacity:1.0000000;"
     d="M 4.6872210,28.217668 L 8.0490800,26.833363 L 12.599383,43.815317 L 20.809818,13.173541 L 55.312850,13.173541" />
  <g
     id="g1096"
     transform="matrix(0.934831,0.000000,0.000000,0.934831,1.907440,2.133652)">
    <path
       id="path837"
       style="font-size:12.000000;font-weight:900;fill:#000000;fill-opacity:1.0000000;stroke-width:1.0000000;font-family:VAG Rounded Black SSi"
       d="M 1.4094570,6.2690300 L 3.0032070,4.5522330 L 2.0364100,3.5092640 C 1.8020350,3.2592640 1.6438320,3.0893420 1.5618010,2.9994980 C 1.4836760,2.9057480 1.4231290,2.8139510 1.3801600,2.7241080 C 1.3371920,2.6303580 1.3157070,2.5248890 1.3157070,2.4077010 C 1.3157070,2.1264510 1.4075040,1.8940300 1.5910980,1.7104360 C 1.7746920,1.5268420 1.9817230,1.4350450 2.2121910,1.4350450 C 2.4348480,1.4350450 2.6106290,1.4662950 2.7395350,1.5287950 C 2.8684410,1.5912950 3.0012540,1.7123890 3.1379730,1.8920770 L 4.1340670,3.1401230 L 5.1301600,1.8920770 C 5.2746920,1.7123890 5.4094570,1.5912950 5.5344570,1.5287950 C 5.6594570,1.4662950 5.8332850,1.4350450 6.0559420,1.4350450 C 6.2864100,1.4350450 6.4934420,1.5248890 6.6770350,1.7045760 C 6.8606290,1.8842640 6.9524260,2.1186390 6.9524260,2.4077010 C 6.9524260,2.5248890 6.9309420,2.6303580 6.8879730,2.7241080 C 6.8450040,2.8139510 6.7825040,2.9057480 6.7004730,2.9994980 C 6.6223480,3.0893420 6.4660980,3.2592640 6.2317230,3.5092640 L 5.2649260,4.5522330 L 6.8586760,6.2690300 C 6.9602380,6.3784050 7.0461760,6.4975450 7.1164880,6.6264510 C 7.1907070,6.7514510 7.2278170,6.8998890 7.2278170,7.0717640 C 7.2278170,7.3569200 7.1360200,7.5873890 6.9524260,7.7631700 C 6.7688320,7.9350450 6.5422700,8.0209830 6.2727380,8.0209830 C 6.0969570,8.0209830 5.9524260,7.9838730 5.8391450,7.9096550 C 5.7297700,7.8354360 5.5969570,7.7123890 5.4407070,7.5405140 L 4.1340670,5.9936390 L 2.8274260,7.5405140 C 2.6907070,7.6967640 2.5618010,7.8159050 2.4407070,7.8979360 C 2.3196130,7.9799670 2.1711760,8.0209830 1.9953950,8.0209830 C 1.7258630,8.0209830 1.4993010,7.9350450 1.3157070,7.7631700 C 1.1321130,7.5873890 1.0403170,7.3569200 1.0403170,7.0717640 C 1.0403170,6.9037950 1.0715670,6.7612170 1.1340670,6.6440300 C 1.2004730,6.5268420 1.2922700,6.4018420 1.4094570,6.2690300 z "
       transform="matrix(4.979007,0.000000,0.000000,4.979007,17.95857,9.543328)" />
    <path
       id="path1017"
       style="font-size:12.000000;fill:none;fill-opacity:0.75000000;fill-rule:evenodd;stroke:#000000;stroke-width:2.8435502;stroke-linecap:round;stroke-linejoin:round;stroke-opacity:1.0000000"
       d="M -31.850420,41.105690 L -28.791340,39.846060 L -24.650850,55.298570 L -17.179870,27.416480 L 14.215720,27.416480"
       transform="matrix(1.175589,0.000000,0.000000,1.175589,40.41653,-20.42101)" />
  </g>
  <metadata
     id="metadata14">
    <rdf:RDF
       id="RDF14">
      <Work
         rdf:about=""
         id="Work15">
        <dc:title
           id="title16">Part of the Flat Icon Collection (Thu Aug 26 14:38:01 2004)</dc:title>
        <dc:description
           id="description18" />
        <dc:subject
           id="subject19">
          <rdf:Bag
             id="Bag20">
            <rdf:li
               id="li21" />
          </rdf:Bag>
        </dc:subject>
        <dc:publisher
           id="publisher22">
          <Agent
             rdf:about=""
             id="Agent23">
            <dc:title
               id="title24" />
          </Agent>
        </dc:publisher>
        <dc:creator
           id="creator25">
          <Agent
             rdf:about=""
             id="Agent26">
            <dc:title
               id="title27">Danny Allen</dc:title>
          </Agent>
        </dc:creator>
        <dc:rights
           id="rights29">
          <Agent
             rdf:about=""
             id="Agent30">
            <dc:title
               id="title31">Danny Allen</dc:title>
          </Agent>
        </dc:rights>
        <dc:date
           id="date33" />
        <dc:format
           id="format34">image/svg+xml</dc:format>
        <dc:type
           rdf:resource="http://purl.org/dc/dcmitype/StillImage"
           id="type36" />
        <license
           rdf:resource="http://creativecommons.org/licenses/LGPL/2.1/"
           id="license37">
          <dc:date
             id="date38" />
        </license>
        <dc:language
           id="language39">en</dc:language>
      </Work>
      <cc:Work
         rdf:about=""
         id="Work42">
        <dc:format
           id="format43">image/svg+xml</dc:format>
        <dc:type
           id="type45"
           rdf:resource="http://purl.org/dc/dcmitype/StillImage" />
      </cc:Work>
    </rdf:RDF>
  </metadata>
</svg>
