<?xml version="1.0" encoding="UTF-8" standalone="no"?>
<!DOCTYPE svg PUBLIC "-//W3C//DTD SVG 20010904//EN"
"http://www.w3.org/TR/2001/REC-SVG-20010904/DTD/svg10.dtd">
<svg
   height="60"
   width="60"
   _SVGFile__filename="oldscale/actions/text_italic.svg"
   version="1.0"
   y="0"
   x="0"
   id="svg1"
   xmlns="http://www.w3.org/2000/svg"
   xmlns:xlink="http://www.w3.org/1999/xlink"
   xmlns:sodipodi="http://sodipodi.sourceforge.net/DTD/sodipodi-0.dtd"
   xmlns:inkscape="http://www.inkscape.org/namespaces/inkscape"
   sodipodi:version="0.32"
   inkscape:version="0.40"
   xmlns:rdf="http://www.w3.org/1999/02/22-rdf-syntax-ns#"
   xmlns:cc="http://web.resource.org/cc/"
   xmlns:dc="http://purl.org/dc/elements/1.1/"
   sodipodi:docname="text_italic.svg"
   sodipodi:docbase="/home/danny/work/flat/SVG/mono/scalable/actions">
  <sodipodi:namedview
     id="base"
     pagecolor="#ffffff"
     bordercolor="#666666"
     borderopacity="1.0"
     inkscape:pageopacity="0.0"
     inkscape:pageshadow="2"
     inkscape:zoom="7.2585851"
     inkscape:cx="39.156219"
     inkscape:cy="20.729763"
     inkscape:window-width="1024"
     inkscape:window-height="699"
     inkscape:window-x="0"
     inkscape:window-y="0"
     inkscape:current-layer="svg1" />
  <defs
     id="defs3">
    <linearGradient
       id="linearGradient900">
      <stop
         style="stop-color: #000000;stop-opacity: 1.0;"
         id="stop901"
         offset="0" />
      <stop
         style="stop-color:#ffffff;stop-opacity:1;"
         id="stop902"
         offset="1" />
    </linearGradient>
    <linearGradient
       xlink:href="#linearGradient900"
       id="linearGradient903" />
    <linearGradient
       xlink:href="#linearGradient900"
       id="linearGradient904" />
    <linearGradient
       xlink:href="#linearGradient900"
       id="linearGradient905" />
    <linearGradient
       xlink:href="#linearGradient900"
       id="linearGradient906" />
    <linearGradient
       xlink:href="#linearGradient900"
       id="linearGradient907" />
  </defs>
  <path
     style="font-size:12.000000;fill:none;fill-opacity:1.0000000;fill-rule:evenodd;stroke:#ffffff;stroke-width:8.1250000;stroke-linejoin:round;stroke-opacity:1.0000000;stroke-miterlimit:4.0000000;stroke-dasharray:none;"
     d="M 6.6825800,4.6879153 C 5.5771850,4.6879153 4.6872820,5.5841523 4.6872820,6.6974153 L 4.6872820,53.302585 C 4.6872820,54.415848 5.5771850,55.312085 6.6825800,55.312085 L 53.317411,55.312085 C 54.422806,55.312085 55.312709,54.415848 55.312709,53.302585 L 55.312709,6.6974153 C 55.312709,5.5841523 54.422806,4.6879153 53.317411,4.6879153 L 6.6825800,4.6879153 z "
     id="path1101" />
  <g
     id="g1097"
     transform="matrix(0.997649,0.000000,0.000000,1.004750,-1.889527e-2,-0.511262)">
    <path
       style="font-size:12.000000;fill:#ffffff;fill-opacity:1.0000000;fill-rule:evenodd;stroke:#000000;stroke-width:3.1212752;stroke-linejoin:round;stroke-opacity:1.0000000"
       d="M 6.7172720,5.1745980 C 5.6092720,5.1745980 4.7172720,6.0665980 4.7172720,7.1745980 L 4.7172720,53.559440 C 4.7172720,54.667440 5.6092720,55.559440 6.7172720,55.559440 L 53.462000,55.559440 C 54.570000,55.559440 55.462000,54.667440 55.462000,53.559440 L 55.462000,7.1745980 C 55.462000,6.0665980 54.570000,5.1745980 53.462000,5.1745980 L 6.7172720,5.1745980 z "
       id="rect812" />
    <path
       style="font-size:12.000000;fill:#000000;fill-opacity:1.0000000;stroke-width:0.69752198;font-family:VAG Rounded Black SSi"
       d="M 14.271350,44.581860 L 35.430420,15.075890 C 36.410340,13.728350 37.543240,12.643320 38.829120,11.820790 C 40.138630,10.980760 41.449660,10.560750 42.762200,10.560750 C 44.144750,10.560750 45.181860,10.972010 45.873550,11.794540 C 46.582730,12.617070 46.934320,13.710850 46.928290,15.075890 L 47.137430,44.581860 C 47.147490,45.351880 47.054360,46.016910 46.858040,46.576920 C 46.489940,47.626960 45.818740,48.493230 44.844450,49.175760 C 43.893790,49.840780 42.910950,50.173290 41.895920,50.173290 C 39.900850,50.173290 38.913470,49.245760 38.933760,47.390700 L 39.126970,42.271780 L 24.190230,42.271780 L 20.786580,47.338190 C 19.528970,49.228260 17.911380,50.173290 15.933820,50.173290 C 14.831280,50.173290 14.015090,49.805780 13.485240,49.070750 C 12.972880,48.335730 12.903830,47.434450 13.278070,46.366920 C 13.455980,45.859400 13.787080,45.264380 14.271350,44.581860 z M 39.755670,18.987270 L 29.132250,34.764040 L 39.343830,34.764040 L 39.860670,18.987270 L 39.755670,18.987270 z "
       id="path837" />
  </g>
  <metadata
     id="metadata14">
    <RDF
       id="RDF15">
      <Work
         about=""
         id="Work16">
        <title
           id="title17">Part of the Flat Icon Collection (Thu Aug 26 14:38:01 2004)</title>
        <description
           id="description19" />
        <subject
           id="subject20">
          <Bag
             id="Bag21">
            <li
               id="li22" />
          </Bag>
        </subject>
        <publisher
           id="publisher23">
          <Agent
             about=""
             id="Agent24">
            <title
               id="title25" />
          </Agent>
        </publisher>
        <creator
           id="creator26">
          <Agent
             about=""
             id="Agent27">
            <title
               id="title28">Danny Allen</title>
          </Agent>
        </creator>
        <rights
           id="rights30">
          <Agent
             about=""
             id="Agent31">
            <title
               id="title32">Danny Allen</title>
          </Agent>
        </rights>
        <date
           id="date34" />
        <format
           id="format35">image/svg+xml</format>
        <type
           id="type37"
           resource="http://purl.org/dc/dcmitype/StillImage" />
        <license
           id="license38"
           resource="http://creativecommons.org/licenses/LGPL/2.1/">
          <date
             id="date39" />
        </license>
        <language
           id="language40">en</language>
      </Work>
    </RDF>
    <rdf:RDF
       id="RDF42">
      <cc:Work
         rdf:about=""
         id="Work43">
        <dc:format
           id="format44">image/svg+xml</dc:format>
        <dc:type
           id="type46"
           rdf:resource="http://purl.org/dc/dcmitype/StillImage" />
      </cc:Work>
    </rdf:RDF>
  </metadata>
</svg>
