<?xml version="1.0" encoding="UTF-8" standalone="no"?>
<!DOCTYPE svg PUBLIC "-//W3C//DTD SVG 20010904//EN"
"http://www.w3.org/TR/2001/REC-SVG-20010904/DTD/svg10.dtd">
<svg
   height="60"
   width="60"
   _SVGFile__filename="oldscale/actions/sort_decrease.svg"
   version="1.0"
   y="0"
   x="0"
   id="svg1"
   sodipodi:version="0.32"
   inkscape:version="0.40"
   sodipodi:docname="sort_decrease.svg"
   sodipodi:docbase="/home/danny/work/flat/SVG/mono/scalable/actions"
   xmlns="http://www.w3.org/2000/svg"
   xmlns:cc="http://web.resource.org/cc/"
   xmlns:inkscape="http://www.inkscape.org/namespaces/inkscape"
   xmlns:sodipodi="http://sodipodi.sourceforge.net/DTD/sodipodi-0.dtd"
   xmlns:rdf="http://www.w3.org/1999/02/22-rdf-syntax-ns#"
   xmlns:dc="http://purl.org/dc/elements/1.1/"
   xmlns:xlink="http://www.w3.org/1999/xlink">
  <sodipodi:namedview
     id="base"
     pagecolor="#ffffff"
     bordercolor="#666666"
     borderopacity="1.0"
     inkscape:pageopacity="0.0"
     inkscape:pageshadow="2"
     inkscape:zoom="4.2554970"
     inkscape:cx="57.247385"
     inkscape:cy="24.694952"
     inkscape:window-width="1024"
     inkscape:window-height="699"
     inkscape:window-x="0"
     inkscape:window-y="0"
     inkscape:current-layer="svg1" />
  <defs
     id="defs3">
    <linearGradient
       id="linearGradient772">
      <stop
         style="stop-color: #000000;stop-opacity: 1.0;"
         id="stop773"
         offset="0" />
      <stop
         style="stop-color:#ffffff;stop-opacity:1;"
         id="stop774"
         offset="1" />
    </linearGradient>
    <linearGradient
       xlink:href="#linearGradient772"
       id="linearGradient775" />
  </defs>
  <g
     id="g1730">
    <path
       style="font-size:12.000000;fill:none;fill-opacity:0.75000000;fill-rule:evenodd;stroke:#ffffff;stroke-width:10.000000;stroke-linecap:round;stroke-linejoin:round;stroke-miterlimit:4.0000000;stroke-opacity:1.0000000;"
       d="M 42.942219,13.649754 L 42.942219,54.373923"
       id="path1722" />
    <path
       id="path1723"
       style="font-size:12.000000;font-weight:900;fill:none;fill-opacity:1.0000000;stroke:#ffffff;stroke-width:5.0000000;stroke-linejoin:round;stroke-miterlimit:4.0000000;stroke-opacity:1.0000000;font-family:VAG Rounded Black SSi;"
       d="M 6.3053670,51.061485 L 11.512278,36.905203 C 11.978731,35.657714 12.363825,34.735657 12.667562,34.139031 C 12.971298,33.531558 13.388934,33.021714 13.920472,32.609502 C 14.452013,32.186440 15.146268,31.974909 16.003237,31.974909 C 16.881905,31.974909 17.592430,32.186440 18.134815,32.609502 C 18.688050,33.032564 19.121959,33.564102 19.436543,34.204119 C 19.761976,34.833286 20.141648,35.733648 20.575557,36.905203 L 25.766194,51.061485 C 26.091633,51.918473 26.303158,52.580181 26.400798,53.046637 C 26.509269,53.502235 26.563504,53.963248 26.563504,54.429704 C 26.563504,55.102270 26.324847,55.644650 25.847561,56.056870 C 25.381105,56.458233 24.757359,56.658928 23.976322,56.658928 C 23.433942,56.658928 22.978328,56.550430 22.609507,56.333489 C 22.240682,56.116521 21.942369,55.812798 21.714568,55.422266 C 21.497613,55.031762 21.302353,54.554448 21.128789,53.990379 L 20.477925,51.858795 L 11.609906,51.858795 L 10.942772,53.990379 C 10.660730,54.869056 10.319026,55.536179 9.9176600,55.991777 C 9.5271420,56.436544 8.9250930,56.658928 8.1115150,56.658928 C 7.3413260,56.658928 6.7121560,56.458233 6.2240090,56.056870 C 5.7467080,55.644650 5.5080570,55.102270 5.5080570,54.429704 C 5.5080570,54.028341 5.5514480,53.610705 5.6382300,53.176796 C 5.7358610,52.732029 5.9582400,52.026944 6.3053670,51.061485 z M 18.867037,46.798345 L 16.165953,38.027944 L 16.100868,38.027944 L 13.204524,46.798345 L 18.867037,46.798345 z " />
    <path
       id="path1724"
       style="font-size:12.000000;font-weight:900;fill:none;fill-opacity:1.0000000;stroke:#ffffff;stroke-width:5.0000000;stroke-linejoin:round;stroke-miterlimit:4.0000000;stroke-opacity:1.0000000;font-family:VAG Rounded Black SSi;"
       d="M 13.310220,22.033654 L 22.096875,22.033654 C 23.018929,22.033654 23.724041,22.261453 24.212186,22.717078 C 24.711188,23.161818 24.960676,23.774706 24.960676,24.555742 C 24.960676,25.336779 24.716603,25.955110 24.228459,26.410708 C 23.740315,26.866333 23.029787,27.094132 22.096875,27.094132 L 10.137254,27.094132 C 8.7812910,27.094132 7.8050020,26.839202 7.2083600,26.329369 C 6.6225750,25.808678 6.3297110,25.065603 6.3297110,24.100145 C 6.3297110,23.687924 6.3947760,23.335381 6.5249630,23.042489 C 6.6551220,22.738767 6.9263260,22.288584 7.3385460,21.691942 L 17.540842,7.9587217 L 9.5677430,7.9587217 C 8.6565470,7.9587217 7.9514340,7.7417810 7.4524320,7.3078718 C 6.9534570,6.8739626 6.7039420,6.2935934 6.7039420,5.5667920 C 6.7039420,5.0895057 6.8124120,4.6664546 7.0293810,4.2976110 C 7.2463210,3.9287951 7.5717600,3.6413181 8.0056690,3.4352355 C 8.4504370,3.2291251 8.9711280,3.1260700 9.5677430,3.1260700 L 21.169406,3.1260700 C 22.037225,3.1260700 22.720621,3.2779451 23.219624,3.5816677 C 23.718626,3.8745599 24.049480,4.2271025 24.212186,4.6393232 C 24.385749,5.0406857 24.472531,5.4474912 24.472531,5.8596842 C 24.472531,6.2068115 24.374891,6.5973437 24.179639,7.0312529 C 23.984387,7.4651622 23.718626,7.9261751 23.382329,8.4143195 C 23.046060,8.9024917 22.563331,9.5750301 21.934169,10.432018 L 13.310220,22.033654 z " />
    <path
       style="font-size:12.000000;fill:none;fill-opacity:1.0000000;fill-rule:evenodd;stroke:#ffffff;stroke-width:8.1250000;stroke-linecap:round;stroke-linejoin:round;stroke-miterlimit:4.0000000;stroke-opacity:1.0000000;"
       d="M 32.954986,18.033568 L 42.942213,4.8633409 L 52.929443,18.033568 L 32.954986,18.033568 z "
       id="path1725"
       sodipodi:nodetypes="cccc" />
  </g>
  <g
     id="g1716"
     transform="matrix(1.019430,0.000000,0.000000,1.019430,-1.817682,-1.713943)">
    <path
       style="font-size:12.000000;fill:none;fill-opacity:0.75000000;fill-rule:evenodd;stroke:#000000;stroke-width:4.9047003;stroke-linecap:round;stroke-linejoin:round;stroke-opacity:1.0000000"
       d="M 43.906790,15.070870 L 43.906790,55.018850"
       id="path850" />
    <path
       id="path838"
       style="font-size:12.000000;font-weight:900;fill:#000000;fill-opacity:1.0000000;stroke-width:1.0000000;font-family:VAG Rounded Black SSi"
       d="M 3.8743080,13.068220 L 5.7493080,7.9705660 C 5.9172770,7.5213470 6.0559490,7.1893160 6.1653240,6.9744720 C 6.2746990,6.7557220 6.4250890,6.5721280 6.6164950,6.4236910 C 6.8079020,6.2713470 7.0579020,6.1951750 7.3664950,6.1951750 C 7.6829020,6.1951750 7.9387610,6.2713470 8.1340730,6.4236910 C 8.3332920,6.5760350 8.4895420,6.7674410 8.6028230,6.9979100 C 8.7200110,7.2244720 8.8567300,7.5486910 9.0129800,7.9705660 L 10.882120,13.068220 C 10.999310,13.376820 11.075480,13.615100 11.110640,13.783070 C 11.149700,13.947130 11.169230,14.113140 11.169230,14.281110 C 11.169230,14.523300 11.083290,14.718610 10.911420,14.867050 C 10.743450,15.011580 10.518840,15.083850 10.237590,15.083850 C 10.042280,15.083850 9.8782140,15.044780 9.7454020,14.966660 C 9.6125890,14.888530 9.5051670,14.779160 9.4231360,14.638530 C 9.3450110,14.497910 9.2746980,14.326030 9.2121980,14.122910 L 8.9778230,13.355330 L 5.7844640,13.355330 L 5.5442300,14.122910 C 5.4426670,14.439320 5.3196200,14.679550 5.1750890,14.843610 C 5.0344640,15.003770 4.8176670,15.083850 4.5246990,15.083850 C 4.2473550,15.083850 4.0207920,15.011580 3.8450110,14.867050 C 3.6731360,14.718610 3.5871980,14.523300 3.5871980,14.281110 C 3.5871980,14.136580 3.6028230,13.986190 3.6340730,13.829940 C 3.6692300,13.669780 3.7493080,13.415880 3.8743080,13.068220 z M 8.3977450,11.533070 L 7.4250890,8.3748630 L 7.4016520,8.3748630 L 6.3586830,11.533070 L 8.3977450,11.533070 z "
       transform="matrix(2.724090,0.000000,0.000000,2.724090,-2.585736,16.17054)" />
    <path
       id="path837"
       style="font-size:12.000000;font-weight:900;fill:#000000;fill-opacity:1.0000000;stroke-width:1.0000000;font-family:VAG Rounded Black SSi"
       d="M 17.494360,40.902930 L 20.658420,40.902930 C 20.990450,40.902930 21.244360,40.984960 21.420140,41.149030 C 21.599830,41.309180 21.689670,41.529880 21.689670,41.811130 C 21.689670,42.092380 21.601780,42.315040 21.426000,42.479100 C 21.250220,42.643170 20.994360,42.725200 20.658420,42.725200 L 16.351780,42.725200 C 15.863500,42.725200 15.511940,42.633400 15.297090,42.449810 C 15.086150,42.262310 14.980690,41.994730 14.980690,41.647070 C 14.980690,41.498630 15.004120,41.371680 15.051000,41.266210 C 15.097870,41.156840 15.195530,40.994730 15.343970,40.779880 L 19.017800,35.834570 L 16.146700,35.834570 C 15.818580,35.834570 15.564670,35.756450 15.384980,35.600200 C 15.205300,35.443950 15.115450,35.234960 15.115450,34.973240 C 15.115450,34.801370 15.154510,34.649030 15.232640,34.516210 C 15.310760,34.383400 15.427950,34.279880 15.584200,34.205670 C 15.744360,34.131450 15.931860,34.094340 16.146700,34.094340 L 20.324440,34.094340 C 20.636940,34.094340 20.883030,34.149030 21.062720,34.258400 C 21.242410,34.363870 21.361550,34.490820 21.420140,34.639260 C 21.482640,34.783790 21.513890,34.930280 21.513890,35.078710 C 21.513890,35.203710 21.478730,35.344340 21.408420,35.500590 C 21.338110,35.656840 21.242410,35.822850 21.121310,35.998630 C 21.000220,36.174420 20.826390,36.416600 20.599830,36.725200 L 17.494360,40.902930 z "
       transform="matrix(2.724090,0.000000,0.000000,2.724090,-32.81664,-88.12828)" />
    <path
       style="font-size:12.000000;fill:#000000;fill-opacity:1.0000000;fill-rule:evenodd;stroke:#000000;stroke-width:3.0654378;stroke-linecap:round;stroke-linejoin:round;stroke-miterlimit:4.0000000;stroke-opacity:1.0000000"
       d="M 34.109910,19.371130 L 43.906784,6.4519230 L 53.703661,19.371130 L 34.109910,19.371130 z "
       id="path869"
       sodipodi:nodetypes="cccc" />
  </g>
  <metadata
     id="metadata12">
    <RDF
       id="RDF13">
      <Work
         about=""
         id="Work14">
        <title
           id="title15">Part of the Flat Icon Collection (Thu Aug 26 14:38:01 2004)</title>
        <description
           id="description17" />
        <subject
           id="subject18">
          <Bag
             id="Bag19">
            <li
               id="li20" />
          </Bag>
        </subject>
        <publisher
           id="publisher21">
          <Agent
             about=""
             id="Agent22">
            <title
               id="title23" />
          </Agent>
        </publisher>
        <creator
           id="creator24">
          <Agent
             about=""
             id="Agent25">
            <title
               id="title26">Danny Allen</title>
          </Agent>
        </creator>
        <rights
           id="rights28">
          <Agent
             about=""
             id="Agent29">
            <title
               id="title30">Danny Allen</title>
          </Agent>
        </rights>
        <date
           id="date32" />
        <format
           id="format33">image/svg+xml</format>
        <type
           id="type35"
           resource="http://purl.org/dc/dcmitype/StillImage" />
        <license
           id="license36"
           resource="http://creativecommons.org/licenses/LGPL/2.1/">
          <date
             id="date37" />
        </license>
        <language
           id="language38">en</language>
      </Work>
    </RDF>
    <rdf:RDF
       id="RDF40">
      <cc:Work
         rdf:about=""
         id="Work41">
        <dc:format
           id="format42">image/svg+xml</dc:format>
        <dc:type
           id="type44"
           rdf:resource="http://purl.org/dc/dcmitype/StillImage" />
      </cc:Work>
    </rdf:RDF>
  </metadata>
</svg>
