<?xml version="1.0" encoding="UTF-8" standalone="no"?>
<!DOCTYPE svg PUBLIC "-//W3C//DTD SVG 20010904//EN"
"http://www.w3.org/TR/2001/REC-SVG-20010904/DTD/svg10.dtd">
<svg
   height="60"
   width="60"
   _SVGFile__filename="oldscale/actions/sort_incr.svg"
   version="1.0"
   y="0"
   x="0"
   id="svg1"
   sodipodi:version="0.32"
   inkscape:version="0.40"
   sodipodi:docname="sort_incr.svg"
   sodipodi:docbase="/home/danny/work/flat/SVG/mono/scalable/actions"
   xmlns="http://www.w3.org/2000/svg"
   xmlns:cc="http://web.resource.org/cc/"
   xmlns:inkscape="http://www.inkscape.org/namespaces/inkscape"
   xmlns:sodipodi="http://sodipodi.sourceforge.net/DTD/sodipodi-0.dtd"
   xmlns:rdf="http://www.w3.org/1999/02/22-rdf-syntax-ns#"
   xmlns:dc="http://purl.org/dc/elements/1.1/"
   xmlns:xlink="http://www.w3.org/1999/xlink">
  <sodipodi:namedview
     id="base"
     pagecolor="#ffffff"
     bordercolor="#666666"
     borderopacity="1.0"
     inkscape:pageopacity="0.0"
     inkscape:pageshadow="2"
     inkscape:zoom="4.2250434"
     inkscape:cx="69.977482"
     inkscape:cy="-4.0727655"
     inkscape:window-width="1024"
     inkscape:window-height="699"
     inkscape:window-x="0"
     inkscape:window-y="0"
     inkscape:current-layer="svg1" />
  <defs
     id="defs3">
    <linearGradient
       id="linearGradient772">
      <stop
         style="stop-color: #000000;stop-opacity: 1.0;"
         id="stop773"
         offset="0" />
      <stop
         style="stop-color:#ffffff;stop-opacity:1;"
         id="stop774"
         offset="1" />
    </linearGradient>
    <linearGradient
       xlink:href="#linearGradient772"
       id="linearGradient775" />
  </defs>
  <g
     id="g1755"
     transform="matrix(1.001435,0.000000,0.000000,1.001435,-49.96671,-1.021069e-2)"
     style="stroke:#ffffff;stroke-opacity:1.0000000;">
    <path
       id="path1125"
       style="font-size:12.000000;font-weight:900;fill:none;fill-opacity:1.0000000;stroke:#ffffff;stroke-width:4.9928360;stroke-linejoin:round;stroke-miterlimit:4.0000000;stroke-opacity:1.0000000;font-family:VAG Rounded Black SSi;"
       d="M 56.215126,22.225534 L 61.409196,8.1041608 C 61.874499,6.8597473 62.258644,5.9399647 62.561632,5.3448101 C 62.864619,4.7388352 63.281225,4.2302484 63.811453,3.8190525 C 64.341683,3.3970336 65.034225,3.1860241 65.889081,3.1860241 C 66.765582,3.1860241 67.474355,3.3970336 68.015403,3.8190525 C 68.567274,4.2410715 69.000113,4.7712988 69.313921,5.4097373 C 69.638552,6.0373528 70.017287,6.9354949 70.450126,8.1041608 L 75.627963,22.225534 C 75.952600,23.080409 76.163604,23.740485 76.261003,24.205791 C 76.369206,24.660265 76.423307,25.120141 76.423307,25.585447 C 76.423307,26.256354 76.185239,26.797397 75.709129,27.208601 C 75.243824,27.608974 74.621616,27.809174 73.842505,27.809174 C 73.301463,27.809174 72.846972,27.700943 72.479060,27.484537 C 72.111145,27.268104 71.813568,26.965130 71.586328,26.575561 C 71.369908,26.186020 71.175129,25.709883 71.001994,25.147206 L 70.352735,23.020878 L 61.506584,23.020878 L 60.841095,25.147206 C 60.559748,26.023716 60.218887,26.689194 59.818511,27.143668 C 59.428956,27.587339 58.828391,27.809174 58.016820,27.809174 C 57.248530,27.809174 56.620911,27.608974 56.133968,27.208601 C 55.657845,26.797397 55.419782,26.256354 55.419782,25.585447 C 55.419782,25.185074 55.463066,24.768468 55.549634,24.335629 C 55.647025,23.891958 55.868854,23.188612 56.215126,22.225534 z M 68.745820,17.972906 L 66.051396,9.2241326 L 65.986472,9.2241326 L 63.097269,17.972906 L 68.745820,17.972906 z " />
    <path
       id="path1126"
       style="font-size:12.000000;font-weight:900;fill:none;fill-opacity:1.0000000;stroke:#ffffff;stroke-width:4.9928360;stroke-linejoin:round;stroke-miterlimit:4.0000000;stroke-opacity:1.0000000;font-family:VAG Rounded Black SSi;"
       d="M 63.203075,51.754811 L 71.968533,51.754811 C 72.888362,51.754811 73.591774,51.982060 74.078740,52.436587 C 74.576538,52.880254 74.825425,53.491662 74.825425,54.270814 C 74.825425,55.049967 74.581940,55.666806 74.094976,56.121306 C 73.608008,56.575832 72.899195,56.803081 71.968533,56.803081 L 60.037766,56.803081 C 58.685074,56.803081 57.711140,56.548766 57.115937,56.040162 C 56.531566,55.520727 56.239408,54.779445 56.239408,53.816316 C 56.239408,53.405090 56.304317,53.053398 56.434190,52.761213 C 56.564034,52.458224 56.834584,52.009127 57.245810,51.413924 L 67.423492,37.713836 L 59.469628,37.713836 C 58.560630,37.713836 57.857219,37.497419 57.359421,37.064556 C 56.861650,36.631694 56.612737,36.052725 56.612737,35.327676 C 56.612737,34.851542 56.720945,34.429512 56.937390,34.061558 C 57.153808,33.693632 57.478461,33.406849 57.911324,33.201264 C 58.355019,32.995649 58.874452,32.892843 59.469628,32.892843 L 71.043301,32.892843 C 71.909025,32.892843 72.590774,33.044352 73.088574,33.347343 C 73.586371,33.639527 73.916427,33.991220 74.078740,34.402446 C 74.251886,34.802840 74.338458,35.208663 74.338458,35.619862 C 74.338458,35.966153 74.241054,36.355742 74.046272,36.788604 C 73.851491,37.221466 73.586371,37.681369 73.250886,38.168335 C 72.915428,38.655329 72.433864,39.326244 71.806220,40.181165 L 63.203075,51.754811 z " />
    <path
       id="path1127"
       style="font-size:12.000000;fill:none;fill-opacity:0.75000000;fill-rule:evenodd;stroke:#ffffff;stroke-width:9.9856720;stroke-linecap:round;stroke-linejoin:round;stroke-miterlimit:4.0000000;stroke-opacity:1.0000000;"
       d="M 92.761617,46.251498 L 92.761617,5.6277525" />
    <path
       style="font-size:12.000000;fill:none;fill-opacity:1.0000000;fill-rule:evenodd;stroke:#ffffff;stroke-width:8.1133575;stroke-linecap:round;stroke-linejoin:round;stroke-miterlimit:4.0000000;stroke-opacity:1.0000000;"
       d="M 82.799020,41.878496 L 92.761616,55.016247 L 102.72421,41.878496 L 82.799020,41.878496 z "
       id="path1128"
       sodipodi:nodetypes="cccc" />
  </g>
  <g
     id="g1750"
     transform="matrix(1.001391,0.000000,0.000000,1.001391,0.106314,-8.836714e-3)">
    <path
       id="path838"
       style="font-size:12.000000;font-weight:900;fill:#000000;fill-opacity:1.0000000;stroke-width:1.0000000;font-family:VAG Rounded Black SSi"
       d="M 3.8743080,13.068220 L 5.7493080,7.9705660 C 5.9172770,7.5213470 6.0559490,7.1893160 6.1653240,6.9744720 C 6.2746990,6.7557220 6.4250890,6.5721280 6.6164950,6.4236910 C 6.8079020,6.2713470 7.0579020,6.1951750 7.3664950,6.1951750 C 7.6829020,6.1951750 7.9387610,6.2713470 8.1340730,6.4236910 C 8.3332920,6.5760350 8.4895420,6.7674410 8.6028230,6.9979100 C 8.7200110,7.2244720 8.8567300,7.5486910 9.0129800,7.9705660 L 10.882120,13.068220 C 10.999310,13.376820 11.075480,13.615100 11.110640,13.783070 C 11.149700,13.947130 11.169230,14.113140 11.169230,14.281110 C 11.169230,14.523300 11.083290,14.718610 10.911420,14.867050 C 10.743450,15.011580 10.518840,15.083850 10.237590,15.083850 C 10.042280,15.083850 9.8782140,15.044780 9.7454020,14.966660 C 9.6125890,14.888530 9.5051670,14.779160 9.4231360,14.638530 C 9.3450110,14.497910 9.2746980,14.326030 9.2121980,14.122910 L 8.9778230,13.355330 L 5.7844640,13.355330 L 5.5442300,14.122910 C 5.4426670,14.439320 5.3196200,14.679550 5.1750890,14.843610 C 5.0344640,15.003770 4.8176670,15.083850 4.5246990,15.083850 C 4.2473550,15.083850 4.0207920,15.011580 3.8450110,14.867050 C 3.6731360,14.718610 3.5871980,14.523300 3.5871980,14.281110 C 3.5871980,14.136580 3.6028230,13.986190 3.6340730,13.829940 C 3.6692300,13.669780 3.7493080,13.415880 3.8743080,13.068220 z M 8.3977450,11.533070 L 7.4250890,8.3748630 L 7.4016520,8.3748630 L 6.3586830,11.533070 L 8.3977450,11.533070 z "
       transform="matrix(2.770171,0.000000,0.000000,2.770171,-4.517370,-13.97567)" />
    <path
       id="path837"
       style="font-size:12.000000;font-weight:900;fill:#000000;fill-opacity:1.0000000;stroke-width:1.0000000;font-family:VAG Rounded Black SSi"
       d="M 14.839937,51.796686 L 23.459585,51.796686 C 24.364113,51.796686 25.055824,52.020155 25.534689,52.467121 C 26.024207,52.903408 26.268953,53.504645 26.268953,54.270837 C 26.268953,55.037029 26.029519,55.643607 25.550655,56.090546 C 25.071788,56.537511 24.374765,56.760980 23.459585,56.760980 L 11.727281,56.760980 C 10.397091,56.760980 9.4393582,56.510896 8.8540561,56.010752 C 8.2794058,55.499958 7.9921078,54.771007 7.9921078,53.823899 C 7.9921078,53.419514 8.0559367,53.073672 8.1836489,52.786347 C 8.3113338,52.488398 8.5773827,52.046772 8.9817683,51.461470 L 18.990149,37.989277 L 11.168594,37.989277 C 10.274717,37.989277 9.5830071,37.776460 9.0934892,37.350798 C 8.6039984,36.925136 8.3592259,36.355798 8.3592259,35.642810 C 8.3592259,35.174597 8.4656345,34.759587 8.6784791,34.397754 C 8.8912964,34.035948 9.2105496,33.753935 9.6362115,33.551770 C 10.072526,33.349576 10.583319,33.248480 11.168594,33.248480 L 22.549744,33.248480 C 23.401067,33.248480 24.071475,33.397468 24.560994,33.695419 C 25.050511,33.982743 25.375076,34.328586 25.534689,34.732971 C 25.704955,35.126705 25.790087,35.525777 25.790087,35.930136 C 25.790087,36.270666 25.694303,36.653775 25.502761,37.079436 C 25.311220,37.505098 25.050511,37.957350 24.720606,38.436216 C 24.390728,38.915109 23.917175,39.574864 23.299972,40.415563 L 14.839937,51.796686 z "
       transform="matrix(1.016916,0.000000,0.000000,1.016916,-1.887894,-0.918068)" />
    <path
       id="path850"
       style="font-size:12.000000;fill:none;fill-opacity:0.75000000;fill-rule:evenodd;stroke:#000000;stroke-width:4.9099994;stroke-linecap:round;stroke-linejoin:round;stroke-opacity:1.0000000"
       d="M 43.906784,47.043902 L 43.906784,7.0959170"
       transform="matrix(1.016916,0.000000,0.000000,1.016916,-1.887894,-1.588199)" />
    <path
       style="font-size:12.000000;fill:#000000;fill-opacity:1.0000000;fill-rule:evenodd;stroke:#000000;stroke-width:3.0687478;stroke-linecap:round;stroke-linejoin:round;stroke-miterlimit:4.0000000;stroke-opacity:1.0000000"
       d="M 28.413000,-2.3410681 L 15.493790,7.4558041 L 28.413000,17.252676 L 28.413000,-2.3410681 z "
       transform="matrix(-2.632321e-17,-1.016916,1.016916,-2.632321e-17,35.17969,70.77213)"
       id="path869"
       sodipodi:nodetypes="cccc" />
  </g>
  <metadata
     id="metadata12">
    <RDF
       id="RDF13">
      <Work
         about=""
         id="Work14">
        <title
           id="title15">Part of the Flat Icon Collection (Thu Aug 26 14:38:01 2004)</title>
        <description
           id="description17" />
        <subject
           id="subject18">
          <Bag
             id="Bag19">
            <li
               id="li20" />
          </Bag>
        </subject>
        <publisher
           id="publisher21">
          <Agent
             about=""
             id="Agent22">
            <title
               id="title23" />
          </Agent>
        </publisher>
        <creator
           id="creator24">
          <Agent
             about=""
             id="Agent25">
            <title
               id="title26">Danny Allen</title>
          </Agent>
        </creator>
        <rights
           id="rights28">
          <Agent
             about=""
             id="Agent29">
            <title
               id="title30">Danny Allen</title>
          </Agent>
        </rights>
        <date
           id="date32" />
        <format
           id="format33">image/svg+xml</format>
        <type
           id="type35"
           resource="http://purl.org/dc/dcmitype/StillImage" />
        <license
           id="license36"
           resource="http://creativecommons.org/licenses/LGPL/2.1/">
          <date
             id="date37" />
        </license>
        <language
           id="language38">en</language>
      </Work>
    </RDF>
    <rdf:RDF
       id="RDF40">
      <cc:Work
         rdf:about=""
         id="Work41">
        <dc:format
           id="format42">image/svg+xml</dc:format>
        <dc:type
           id="type44"
           rdf:resource="http://purl.org/dc/dcmitype/StillImage" />
      </cc:Work>
    </rdf:RDF>
  </metadata>
</svg>
