<?xml version="1.0" encoding="UTF-8" standalone="no"?>
<!DOCTYPE svg PUBLIC "-//W3C//DTD SVG 20010904//EN"
"http://www.w3.org/TR/2001/REC-SVG-20010904/DTD/svg10.dtd">
<svg
   height="60"
   width="60"
   _SVGFile__filename="oldscale/actions/player_record.svg"
   version="1.0"
   y="0"
   x="0"
   id="svg1"
   xmlns="http://www.w3.org/2000/svg"
   xmlns:rdf="http://www.w3.org/1999/02/22-rdf-syntax-ns#"
   xmlns:dc="http://purl.org/dc/elements/1.1/"
   xmlns:sodipodi="http://sodipodi.sourceforge.net/DTD/sodipodi-0.dtd"
   xmlns:inkscape="http://www.inkscape.org/namespaces/inkscape"
   xmlns:xlink="http://www.w3.org/1999/xlink"
   sodipodi:version="0.32"
   inkscape:version="0.40"
   xmlns:cc="http://web.resource.org/cc/"
   sodipodi:docname="player_record.svg"
   sodipodi:docbase="/home/danny/work/flat/SVG/mono/scalable/actions">
  <sodipodi:namedview
     id="base"
     pagecolor="#ffffff"
     bordercolor="#666666"
     borderopacity="1.0"
     inkscape:pageopacity="0.0"
     inkscape:pageshadow="2"
     inkscape:zoom="4.5544063"
     inkscape:cx="47.217792"
     inkscape:cy="17.274805"
     inkscape:window-width="1024"
     inkscape:window-height="699"
     inkscape:window-x="0"
     inkscape:window-y="0"
     inkscape:current-layer="svg1" />
  <defs
     id="defs3" />
  <path
     sodipodi:type="arc"
     style="color:#000000;fill:none;fill-opacity:1.0000000;fill-rule:evenodd;stroke:#ffffff;stroke-width:7.1269994;stroke-linecap:round;stroke-linejoin:round;stroke-miterlimit:4.0000000;stroke-dashoffset:0.0000000;stroke-opacity:1.0000000;marker:none;marker-start:none;marker-mid:none;marker-end:none;"
     id="path1711"
     sodipodi:cx="-7.7029920"
     sodipodi:cy="20.805365"
     sodipodi:rx="22.202742"
     sodipodi:ry="22.202742"
     d="M 14.499750 20.805365 A 22.202742 22.202742 0 1 1  -29.905734,20.805365 A 22.202742 22.202742 0 1 1  14.499750 20.805365 z"
     transform="matrix(-1.140031,3.559753e-7,-3.559753e-7,-1.140031,21.21837,53.71877)" />
  <path
     sodipodi:type="arc"
     style="color:#000000;fill:#ffffff;fill-opacity:1.0000000;fill-rule:evenodd;stroke:#000000;stroke-width:2.7411530;stroke-linecap:round;stroke-linejoin:round;stroke-miterlimit:4.0000000;stroke-dashoffset:0.0000000;stroke-opacity:1.0000000;marker:none;marker-start:none;marker-mid:none;marker-end:none;"
     id="path1710"
     sodipodi:cx="-7.7029920"
     sodipodi:cy="20.805365"
     sodipodi:rx="22.202742"
     sodipodi:ry="22.202742"
     d="M 14.499750 20.805365 A 22.202742 22.202742 0 1 1  -29.905734,20.805365 A 22.202742 22.202742 0 1 1  14.499750 20.805365 z"
     transform="matrix(-1.140031,3.559753e-7,-3.559753e-7,-1.140031,21.21837,53.71877)" />
  <path
     id="path829"
     style="font-size:12.000000;font-weight:900;fill:#000000;fill-opacity:1.0000000;stroke-width:1.0000000;font-family:VAG Rounded Black SSi"
     d="M 36.092332,29.986478 C 36.092332,28.551382 36.399222,27.229134 37.012956,26.019688 C 37.626714,24.801208 38.484144,23.844492 39.585270,23.149518 C 40.695431,22.454545 41.959036,22.107058 43.376064,22.107058 C 44.125197,22.107058 44.896882,22.197309 45.691141,22.377834 C 46.485400,22.549324 47.153294,22.847157 47.694846,23.271378 C 48.236375,23.695576 48.507151,24.268713 48.507151,24.990767 C 48.507151,25.568410 48.335660,26.051273 47.992679,26.439380 C 47.658732,26.827487 47.239040,27.021529 46.733602,27.021529 C 46.489906,27.021529 46.250739,26.980909 46.016054,26.899692 C 45.790427,26.818453 45.560271,26.732707 45.325609,26.642456 C 45.099958,26.543171 44.856262,26.461931 44.594521,26.398760 C 44.341813,26.335589 44.021383,26.304004 43.633277,26.304004 C 42.929292,26.304004 42.333580,26.470966 41.846211,26.804913 C 41.367853,27.129848 41.006826,27.572092 40.763130,28.131689 C 40.528445,28.682252 40.411115,29.300515 40.411115,29.986478 C 40.411115,30.654372 40.528445,31.277140 40.763130,31.854783 C 40.997792,32.423392 41.336245,32.874693 41.778511,33.208640 C 42.229789,33.542587 42.762306,33.709549 43.376064,33.709549 C 44.071038,33.709549 44.770517,33.578678 45.474525,33.316936 C 46.178533,33.055195 46.598226,32.924324 46.733602,32.924324 C 47.058538,32.924324 47.356371,33.019104 47.627147,33.208640 C 47.897922,33.398176 48.110010,33.646378 48.263455,33.953245 C 48.425911,34.251101 48.507151,34.557968 48.507151,34.873869 C 48.507151,35.541763 48.213824,36.105866 47.627147,36.566178 C 47.049504,37.026490 46.359035,37.360437 45.555765,37.568042 C 44.752471,37.784658 44.025912,37.892955 43.376064,37.892955 C 42.301994,37.892955 41.318199,37.694384 40.424655,37.297266 C 39.540145,36.900125 38.768460,36.336022 38.109577,35.604957 C 37.450694,34.864835 36.949785,34.016439 36.606804,33.059700 C 36.263823,32.093951 36.092332,31.069558 36.092332,29.986478 z M 33.140946,31.435091 L 25.329226,31.435091 C 25.329226,32.021745 25.600002,32.576837 26.141530,33.100320 C 26.683082,33.614792 27.567592,33.872028 28.795084,33.872028 C 29.426886,33.872028 29.950370,33.790788 30.365556,33.628332 C 30.780720,33.465853 31.290686,33.235720 31.895409,32.937864 C 32.509143,32.630997 32.951410,32.477552 33.222186,32.477552 C 33.727623,32.477552 34.156327,32.653548 34.508343,33.005564 C 34.860335,33.357556 35.036331,33.813363 35.036331,34.372937 C 35.036331,35.040854 34.702384,35.650083 34.034490,36.200646 C 33.375608,36.742174 32.522683,37.157361 31.475717,37.446183 C 30.428727,37.744038 29.350152,37.892955 28.240015,37.892955 C 27.093740,37.892955 26.055785,37.694384 25.126149,37.297266 C 24.205525,36.900125 23.406760,36.340551 22.729832,35.618497 C 22.061938,34.887409 21.551972,34.038990 21.199979,33.073240 C 20.847987,32.098479 20.671967,31.069558 20.671967,29.986478 C 20.671967,28.966568 20.856998,27.973739 21.227059,27.007989 C 21.597120,26.042239 22.120604,25.193843 22.797532,24.462755 C 23.474460,23.731667 24.282236,23.158553 25.220906,22.743366 C 26.159576,22.319168 27.165945,22.107058 28.240015,22.107058 C 29.620928,22.107058 30.843914,22.454545 31.908949,23.149518 C 32.973961,23.844492 33.795300,24.756082 34.372943,25.884288 C 34.959620,27.012518 35.252947,28.221940 35.252947,29.512626 C 35.252947,30.252725 35.085986,30.758163 34.752015,31.028939 C 34.418068,31.299691 33.881045,31.435091 33.140946,31.435091 z M 25.329226,28.429545 L 30.920625,28.429545 C 30.920625,28.086564 30.798789,27.707491 30.555092,27.292305 C 30.311396,26.868107 29.977449,26.516091 29.553228,26.236304 C 29.138065,25.947482 28.664213,25.803072 28.131695,25.803072 C 27.599178,25.803072 27.116314,25.947482 26.683082,26.236304 C 26.258861,26.525125 25.924914,26.877118 25.681218,27.292305 C 25.446556,27.698457 25.329226,28.077529 25.329226,28.429545 z M 11.492873,35.334181 L 11.492873,24.638751 C 11.492873,23.997937 11.691444,23.465420 12.088562,23.041222 C 12.494714,22.607990 13.013692,22.391374 13.645495,22.391374 C 14.168978,22.391374 14.620256,22.531256 14.999351,22.811066 C 15.387458,23.081819 15.658211,23.402249 15.811656,23.772287 C 16.741292,22.662126 17.738627,22.107058 18.803662,22.107058 C 19.390339,22.107058 19.904788,22.319168 20.347055,22.743366 C 20.798333,23.158553 21.023983,23.695576 21.023983,24.354459 C 21.023983,25.031364 20.811872,25.523261 20.387675,25.830152 C 19.972488,26.137019 19.282020,26.430346 18.316270,26.710156 C 17.332475,26.989943 16.669086,27.341936 16.326128,27.766157 C 15.983147,28.181343 15.811656,28.930454 15.811656,30.013535 L 15.811656,35.334181 C 15.811656,35.974995 15.608580,36.516547 15.202428,36.958791 C 14.805286,37.392023 14.286309,37.608639 13.645495,37.608639 C 13.013692,37.608639 12.494714,37.392023 12.088562,36.958791 C 11.691444,36.516547 11.492873,35.974995 11.492873,35.334181 z " />
  <metadata
     id="metadata6">
    <rdf:RDF
       id="RDF6">
      <Work
         rdf:about=""
         id="Work7">
        <dc:title
           id="title8">Part of the Flat Icon Collection (Thu Aug 26 14:38:01 2004)</dc:title>
        <dc:description
           id="description10" />
        <dc:subject
           id="subject11">
          <rdf:Bag
             id="Bag12">
            <rdf:li
               id="li13" />
          </rdf:Bag>
        </dc:subject>
        <dc:publisher
           id="publisher14">
          <Agent
             rdf:about=""
             id="Agent15">
            <dc:title
               id="title16" />
          </Agent>
        </dc:publisher>
        <dc:creator
           id="creator17">
          <Agent
             rdf:about=""
             id="Agent18">
            <dc:title
               id="title19">Danny Allen</dc:title>
          </Agent>
        </dc:creator>
        <dc:rights
           id="rights21">
          <Agent
             rdf:about=""
             id="Agent22">
            <dc:title
               id="title23">Danny Allen</dc:title>
          </Agent>
        </dc:rights>
        <dc:date
           id="date25" />
        <dc:format
           id="format26">image/svg+xml</dc:format>
        <dc:type
           rdf:resource="http://purl.org/dc/dcmitype/StillImage"
           id="type28" />
        <license
           rdf:resource="http://creativecommons.org/licenses/LGPL/2.1/"
           id="license29">
          <dc:date
             id="date30" />
        </license>
        <dc:language
           id="language31">en</dc:language>
      </Work>
      <cc:Work
         rdf:about=""
         id="Work34">
        <dc:format
           id="format35">image/svg+xml</dc:format>
        <dc:type
           id="type37"
           rdf:resource="http://purl.org/dc/dcmitype/StillImage" />
      </cc:Work>
    </rdf:RDF>
  </metadata>
</svg>
