<?xml version="1.0" encoding="UTF-8" standalone="no"?>
<!DOCTYPE svg PUBLIC "-//W3C//DTD SVG 20010904//EN"
"http://www.w3.org/TR/2001/REC-SVG-20010904/DTD/svg10.dtd">
<svg
   height="60"
   width="60"
   _SVGFile__filename="oldscale/apps/suse_tour.svg"
   version="1.0"
   y="0"
   x="0"
   id="svg1"
   sodipodi:version="0.32"
   inkscape:version="0.40"
   sodipodi:docname="gnome-starthere.svg"
   sodipodi:docbase="/home/danny/work/flat/SVG/mono/scalable/apps"
   xmlns="http://www.w3.org/2000/svg"
   xmlns:cc="http://web.resource.org/cc/"
   xmlns:inkscape="http://www.inkscape.org/namespaces/inkscape"
   xmlns:sodipodi="http://sodipodi.sourceforge.net/DTD/sodipodi-0.dtd"
   xmlns:rdf="http://www.w3.org/1999/02/22-rdf-syntax-ns#"
   xmlns:dc="http://purl.org/dc/elements/1.1/"
   xmlns:xlink="http://www.w3.org/1999/xlink">
  <sodipodi:namedview
     id="base"
     pagecolor="#ffffff"
     bordercolor="#666666"
     borderopacity="1.0"
     inkscape:pageopacity="0.0"
     inkscape:pageshadow="2"
     inkscape:zoom="9.0172705"
     inkscape:cx="53.277710"
     inkscape:cy="17.248950"
     inkscape:window-width="1024"
     inkscape:window-height="698"
     inkscape:window-x="0"
     inkscape:window-y="0"
     inkscape:current-layer="svg1" />
  <defs
     id="defs3" />
  <path
     style="font-size:12.000000;fill:none;fill-rule:evenodd;stroke:#ffffff;stroke-width:8.1250000;stroke-linecap:round;stroke-linejoin:round;stroke-miterlimit:4.0000000;stroke-opacity:1.0000000;"
     d="M 4.6872540,50.794723 C 23.907436,53.080364 52.789666,59.625615 47.595018,49.340224 C 42.400379,39.054824 52.270204,11.315420 48.114489,11.523207 C 43.958765,11.730990 6.5573260,9.4453474 5.9339690,13.704960 C 5.3106110,17.964562 4.6872540,50.794723 4.6872540,50.794723 z "
     id="path1796" />
  <path
     style="font-size:12.000000;fill:#ffffff;fill-opacity:1.0000000;fill-rule:evenodd;stroke-width:3.1250000;stroke-linecap:round;stroke-linejoin:round;"
     d="M 2.8811960,52.802710 C 23.820700,55.292810 55.286560,62.423560 49.627230,51.218100 C 43.967910,40.012630 54.720630,9.7918260 50.193170,10.018200 C 45.665700,10.244570 4.9185540,7.7544680 4.2394350,12.395120 C 3.5603150,17.035760 2.8811960,52.802710 2.8811960,52.802710 z "
     id="path865"
     transform="matrix(0.917891,0.000000,0.000000,0.917891,2.042627,2.327591)" />
  <path
     id="path866"
     style="font-size:12.000000;fill:#000000;fill-opacity:1.0000000;stroke-width:1.0000000;"
     d="M 11.456260,15.244830 C 13.597390,15.484180 15.518610,17.701700 16.914750,19.130240 C 17.797910,20.080710 18.628890,21.060950 19.416710,22.091850 L 17.624820,22.596820 C 16.883570,21.595760 16.090310,20.660180 15.232410,19.757180 C 14.305370,18.843040 13.342690,17.961770 12.240830,17.259540 C 11.848230,17.009330 11.183030,16.677100 11.456260,16.704440 L 11.456260,15.244830 z "
     transform="matrix(1.578997,0.000000,0.000000,1.578997,9.883059,14.49568)" />
  <path
     id="path867"
     style="font-size:12.000000;fill:#000000;fill-opacity:1.0000000;stroke-width:1.0000000;"
     d="M 10.950380,21.864220 C 12.298930,19.877560 13.990060,18.050480 15.529460,16.213030 C 16.041320,15.611420 16.557160,15.014140 17.079420,14.421550 L 18.803260,15.005410 C 18.270380,15.579410 17.748830,16.161040 17.233290,16.750670 C 16.212670,17.954820 15.209390,19.177780 14.304780,20.472720 C 13.901570,21.049900 12.760330,22.815590 13.229970,22.291040 L 10.950380,21.864220 z "
     transform="matrix(1.578997,0.000000,0.000000,1.578997,9.883059,14.49568)" />
  <path
     style="font-size:12.000000;fill:#ffffff;fill-opacity:1.0000000;fill-rule:evenodd;stroke-width:1.0000000;"
     d="M 2.7680100,42.842290 C 15.671270,32.655500 48.155810,31.184080 48.155810,31.184080 L 49.514050,25.977500 C 49.514050,25.977500 49.400860,25.411570 44.760210,25.185190 C 34.799800,25.185190 30.385520,32.995060 19.293240,32.995060 C 8.2009630,32.995060 2.9943830,35.371980 2.9943830,35.371980 L 2.7680100,42.842290 z "
     id="path878"
     transform="matrix(0.917891,0.000000,0.000000,0.917891,2.042627,2.327591)" />
  <path
     style="font-size:12.000000;fill:none;fill-opacity:0.75000000;fill-rule:evenodd;stroke:#000000;stroke-width:2.7236349;stroke-linecap:round;stroke-linejoin:round;stroke-dasharray:2.7236349,2.7236349;stroke-dashoffset:0.0000000;stroke-opacity:1.0000000;stroke-miterlimit:4.0000000;"
     d="M 11.143810,18.167630 C 16.803140,41.936800 36.044850,18.394000 41.025060,18.507190 C 47.589880,22.921460 16.576770,34.806050 15.444900,41.257680 C 14.313040,47.709310 33.441560,44.766460 33.441560,44.766460"
     id="path876"
     transform="matrix(0.917891,0.000000,0.000000,0.917891,2.042627,2.327591)" />
  <ellipse
     style="font-size:12.000000;fill:#000000;fill-opacity:1.0000000;fill-rule:evenodd;stroke:#000000;stroke-width:2.2963730;stroke-opacity:1.0000000;stroke-miterlimit:4.0000000;stroke-dasharray:none;stroke-linejoin:round;stroke-linecap:round;"
     rx="2.6084392"
     ry="2.6084392"
     transform="matrix(0.816505,0.000000,0.000000,0.816505,2.193822,9.076905)"
     cy="11.839304"
     cx="12.151509"
     id="path877"
     sodipodi:cx="12.151509"
     sodipodi:cy="11.839304"
     sodipodi:rx="2.6084392"
     sodipodi:ry="2.6084392" />
  <path
     style="font-size:12.000000;fill:none;fill-rule:evenodd;stroke:#000000;stroke-width:3.4045458;stroke-linecap:round;stroke-linejoin:round;stroke-miterlimit:4.0000000;stroke-opacity:1.0000000;"
     d="M 2.8811960,52.802710 C 23.820700,55.292810 55.286560,62.423560 49.627230,51.218100 C 43.967910,40.012630 54.720630,9.7918260 50.193170,10.018200 C 45.665700,10.244570 4.9185540,7.7544680 4.2394350,12.395120 C 3.5603150,17.035760 2.8811960,52.802710 2.8811960,52.802710 z "
     id="path879"
     transform="matrix(0.917891,0.000000,0.000000,0.917891,2.042627,2.327591)" />
  <path
     style="font-size:12.000000;fill:none;fill-opacity:1.0000000;fill-rule:evenodd;stroke:#ffffff;stroke-width:6.8750005;stroke-linecap:round;stroke-linejoin:round;stroke-miterlimit:4.0000000;stroke-opacity:1.0000000;"
     d="M 55.435764,19.446366 C 55.435764,27.617879 48.803811,34.249831 40.632298,34.249831 C 32.460786,34.249831 25.828834,27.617879 25.828834,19.446366 C 25.828834,11.274854 32.460786,4.6429020 40.632298,4.6429020 C 48.803811,4.6429020 55.435764,11.274854 55.435764,19.446366 z "
     id="path1798" />
  <path
     style="font-size:12.000000;fill:#ffffff;fill-opacity:1.0000000;fill-rule:evenodd;stroke:#000000;stroke-width:1.8813719;stroke-linecap:round;stroke-linejoin:round;stroke-opacity:1.0000000;"
     d="M 55.435634,19.497076 C 55.435634,27.696360 48.781143,34.350851 40.581859,34.350851 C 32.382576,34.350851 25.728085,27.696360 25.728085,19.497076 C 25.728085,11.297793 32.382576,4.6433021 40.581859,4.6433021 C 48.781143,4.6433021 55.435634,11.297793 55.435634,19.497076 z "
     id="path843"
     transform="matrix(0.996613,0.000000,0.000000,0.996613,0.187890,1.532675e-2)" />
  <path
     style="font-size:12.000000;fill:none;fill-opacity:0.75000000;fill-rule:evenodd;stroke:#000000;stroke-width:3.0413003;stroke-linejoin:round;stroke-opacity:1.0000000;"
     d="M 37.792010,2.7764980 L 46.731300,33.550550"
     id="path841"
     transform="matrix(0.917891,0.000000,0.000000,0.917891,2.042627,2.327591)" />
  <path
     style="font-size:12.000000;fill:none;fill-opacity:0.75000000;fill-rule:evenodd;stroke:#000000;stroke-width:3.0413003;stroke-linejoin:round;stroke-opacity:1.0000000;"
     d="M 58.217000,14.262200 L 26.874630,22.633170"
     id="path842"
     transform="matrix(0.917891,0.000000,0.000000,0.917891,2.042627,2.327591)" />
  <path
     transform="matrix(0.774471,0.000000,0.000000,0.774471,-34.75411,6.778848)"
     style="font-size:12.000000;fill:#ffffff;fill-opacity:1.0000000;fill-rule:evenodd;stroke:#000000;stroke-width:2.4210074;stroke-linejoin:round;stroke-opacity:1.0000000;stroke-miterlimit:4.0000000;stroke-dasharray:none;"
     d="M 111.97202,16.356358 C 111.97202,24.433612 105.41657,30.989065 97.339317,30.989065 C 89.262063,30.989065 82.706610,24.433612 82.706610,16.356358 C 82.706610,8.2791030 89.262063,1.7236500 97.339317,1.7236500 C 105.41657,1.7236500 111.97202,8.2791030 111.97202,16.356358 z "
     id="path844" />
  <path
     id="path835"
     style="font-size:12.000000;fill:none;fill-opacity:0.75000000;fill-rule:evenodd;stroke:#000000;stroke-width:2.2424428;stroke-linecap:round;stroke-linejoin:round;stroke-opacity:1.0000000;"
     d="M 39.531950,11.840400 L 44.161120,7.2112300 L 48.900510,11.950620"
     transform="matrix(0.418071,-0.724120,0.724120,0.418071,10.45345,44.68596)" />
  <path
     id="path836"
     style="font-size:12.000000;fill:none;fill-opacity:0.75000000;fill-rule:evenodd;stroke:#000000;stroke-width:2.2424428;stroke-linecap:round;stroke-linejoin:round;stroke-opacity:1.0000000;"
     d="M 44.161120,7.6521040 L 44.153650,25.153470"
     transform="matrix(0.418071,-0.724120,0.724120,0.418071,10.45345,44.68596)" />
  <path
     style="font-size:12.000000;fill:#ffffff;fill-opacity:1.0000000;fill-rule:evenodd;stroke:#000000;stroke-width:1.2499998;stroke-linejoin:round;stroke-miterlimit:4.0000000;stroke-opacity:1.0000000"
     d="M 41.738020,18.808023 C 42.090388,19.418343 41.881036,20.199657 41.270716,20.552025 C 40.660396,20.904394 39.879083,20.695041 39.526714,20.084721 C 39.174346,19.474401 39.383698,18.693089 39.994018,18.340720 C 40.604338,17.988351 41.385651,18.197703 41.738020,18.808023 z "
     id="path834" />
  <metadata
     id="metadata19">
    <rdf:RDF
       id="RDF19">
      <Work
         rdf:about=""
         id="Work20">
        <dc:title
           id="title21">Part of the Flat Icon Collection (Thu Aug 26 14:31:40 2004)</dc:title>
        <dc:description
           id="description23" />
        <dc:subject
           id="subject24">
          <rdf:Bag
             id="Bag25">
            <rdf:li
               id="li26" />
          </rdf:Bag>
        </dc:subject>
        <dc:publisher
           id="publisher27">
          <Agent
             rdf:about=""
             id="Agent28">
            <dc:title
               id="title29" />
          </Agent>
        </dc:publisher>
        <dc:creator
           id="creator30">
          <Agent
             rdf:about=""
             id="Agent31">
            <dc:title
               id="title32">Danny Allen</dc:title>
          </Agent>
        </dc:creator>
        <dc:rights
           id="rights34">
          <Agent
             rdf:about=""
             id="Agent35">
            <dc:title
               id="title36">Danny Allen</dc:title>
          </Agent>
        </dc:rights>
        <dc:date
           id="date38" />
        <dc:format
           id="format39">image/svg+xml</dc:format>
        <dc:type
           rdf:resource="http://purl.org/dc/dcmitype/StillImage"
           id="type41" />
        <license
           rdf:resource="http://creativecommons.org/licenses/LGPL/2.1/"
           id="license42">
          <dc:date
             id="date43" />
        </license>
        <dc:language
           id="language44">en</dc:language>
      </Work>
      <cc:Work
         rdf:about=""
         id="Work47">
        <dc:format
           id="format48">image/svg+xml</dc:format>
        <dc:type
           id="type50"
           rdf:resource="http://purl.org/dc/dcmitype/StillImage" />
      </cc:Work>
    </rdf:RDF>
  </metadata>
</svg>
