<?xml version="1.0" encoding="UTF-8" standalone="no"?>
<!DOCTYPE svg PUBLIC "-//W3C//DTD SVG 20010904//EN"
"http://www.w3.org/TR/2001/REC-SVG-20010904/DTD/svg10.dtd">
<svg
   height="60"
   width="60"
   _SVGFile__filename="oldscale/actions/precminus.svg"
   version="1.0"
   y="0"
   x="0"
   id="svg1"
   sodipodi:version="0.32"
   inkscape:version="0.40"
   sodipodi:docname="prec_minus.svg"
   sodipodi:docbase="/home/danny/work/flat/SVG/mono/scalable/actions/d"
   xmlns="http://www.w3.org/2000/svg"
   xmlns:cc="http://web.resource.org/cc/"
   xmlns:inkscape="http://www.inkscape.org/namespaces/inkscape"
   xmlns:sodipodi="http://sodipodi.sourceforge.net/DTD/sodipodi-0.dtd"
   xmlns:rdf="http://www.w3.org/1999/02/22-rdf-syntax-ns#"
   xmlns:dc="http://purl.org/dc/elements/1.1/"
   xmlns:xlink="http://www.w3.org/1999/xlink">
  <sodipodi:namedview
     id="base"
     pagecolor="#ffffff"
     bordercolor="#666666"
     borderopacity="1.0"
     inkscape:pageopacity="0.0000000"
     inkscape:pageshadow="2"
     inkscape:zoom="7.3600436"
     inkscape:cx="55.765157"
     inkscape:cy="18.979035"
     inkscape:window-width="1024"
     inkscape:window-height="699"
     inkscape:window-x="0"
     inkscape:window-y="0"
     inkscape:current-layer="svg1" />
  <defs
     id="defs3" />
  <g
     id="g1728">
    <path
       style="font-size:12.000000;fill:none;fill-opacity:1.0000000;fill-rule:evenodd;stroke:#ffffff;stroke-width:7.5000000;stroke-linecap:round;stroke-linejoin:round;stroke-miterlimit:4.0000000;stroke-opacity:1.0000000;"
       d="M 29.862251,39.519377 C 16.933579,48.808361 11.471259,42.883386 11.391547,42.803675 L 14.978699,39.216523 L 4.3766595,39.280964 L 4.3766595,49.898276 L 8.0036739,46.271259 C 8.0036739,46.271259 19.568247,56.833090 29.862251,39.519377 z "
       id="path1104" />
    <path
       id="path1105"
       style="font-size:12.000000;font-weight:900;fill:none;fill-opacity:1.0000000;stroke:#ffffff;stroke-width:5.0000000;stroke-miterlimit:4.0000000;stroke-opacity:1.0000000;font-family:VAG Rounded Black SSi;"
       d="M 35.964620,22.013949 C 35.964620,20.300116 36.175976,18.660550 36.598717,17.095251 C 37.032895,15.529952 37.684163,14.130322 38.552489,12.896364 C 39.420845,11.650980 40.517696,10.668382 41.843045,9.9485760 C 43.168423,9.2173410 44.693720,8.8517230 46.418965,8.8517230 C 48.155649,8.8517230 49.686679,9.2173410 51.012056,9.9485760 C 52.337404,10.668382 53.434257,11.650980 54.302613,12.896364 C 55.170939,14.130322 55.816473,15.535665 56.239244,17.112389 C 56.661985,18.689115 56.873341,20.322969 56.873341,22.013949 C 56.873341,23.704929 56.661985,25.338779 56.239244,26.915506 C 55.827910,28.492244 55.182375,29.908996 54.302613,31.165814 C 53.434257,32.411194 52.337404,33.399502 51.012056,34.130737 C 49.686679,34.850535 48.155649,35.210449 46.418965,35.210449 C 44.693720,35.210449 43.168423,34.850535 41.843045,34.130737 C 40.517696,33.399502 39.415111,32.411194 38.535348,31.165814 C 37.667022,29.908996 37.021458,28.497948 36.598717,26.932643 C 36.175976,25.367344 35.964620,23.727778 35.964620,22.013949 z M 41.860185,22.013949 C 41.860185,23.179353 42.003010,24.356185 42.288630,25.544440 C 42.574280,26.732697 43.059878,27.720996 43.745397,28.509355 C 44.430943,29.297742 45.322143,29.691908 46.418965,29.691908 C 48.018556,29.691908 49.178236,28.903549 49.898064,27.326826 C 50.617862,25.738674 50.977776,23.967714 50.977776,22.013949 C 50.977776,20.071605 50.617862,18.312073 49.898064,16.735347 C 49.178236,15.147195 48.018556,14.353121 46.418965,14.353121 C 45.573483,14.353121 44.853684,14.593057 44.259542,15.072931 C 43.665429,15.552803 43.191266,16.175496 42.837056,16.941008 C 42.494312,17.706517 42.242943,18.540583 42.082978,19.443199 C 41.934450,20.334393 41.860185,21.191310 41.860185,22.013949 z M 4.1044822,22.013949 C 4.1044822,20.300116 4.3158529,18.660550 4.7386001,17.095251 C 5.1727693,15.529952 5.8240245,14.130322 6.6923657,12.896364 C 7.5607070,11.650980 8.6575591,10.668382 9.9829221,9.9485760 C 11.308286,9.2173410 12.833597,8.8517230 14.558854,8.8517230 C 16.295538,8.8517230 17.826559,9.2173410 19.151921,9.9485760 C 20.477284,10.668382 21.574137,11.650980 22.442478,12.896364 C 23.310819,14.130322 23.956361,15.535665 24.379106,17.112389 C 24.801853,18.689115 25.013224,20.322969 25.013224,22.013949 C 25.013224,23.704929 24.801853,25.338779 24.379106,26.915506 C 23.967787,28.492244 23.322244,29.908996 22.442478,31.165814 C 21.574137,32.411194 20.477284,33.399502 19.151921,34.130737 C 17.826559,34.850535 16.295538,35.210449 14.558854,35.210449 C 12.833597,35.210449 11.308286,34.850535 9.9829221,34.130737 C 8.6575591,33.399502 7.5549946,32.411194 6.6752285,31.165814 C 5.8068873,29.908996 5.1613445,28.497948 4.7386001,26.932643 C 4.3158529,25.367344 4.1044822,23.727778 4.1044822,22.013949 z M 10.000062,22.013949 C 10.000062,23.179353 10.142881,24.356185 10.428519,25.544440 C 10.714157,26.732697 11.199744,27.720996 11.885277,28.509355 C 12.570808,29.297742 13.462003,29.691908 14.558854,29.691908 C 16.158430,29.691908 17.318122,28.903549 18.037932,27.326826 C 18.757739,25.738674 19.117644,23.967714 19.117644,22.013949 C 19.117644,20.071605 18.757739,18.312073 18.037932,16.735347 C 17.318122,15.147195 16.158430,14.353121 14.558854,14.353121 C 13.713363,14.353121 12.993553,14.593057 12.399425,15.072931 C 11.805297,15.552803 11.331138,16.175496 10.976945,16.941008 C 10.634180,17.706517 10.382817,18.540583 10.222860,19.443199 C 10.074327,20.334393 10.000062,21.191310 10.000062,22.013949 z " />
    <path
       id="path1106"
       style="font-size:12.000000;font-weight:900;fill:none;fill-opacity:1.0000000;stroke:#ffffff;stroke-width:5.0000000;stroke-miterlimit:4.0000000;stroke-opacity:1.0000000;font-family:VAG Rounded Black SSi;"
       d="M 27.628607,32.127042 C 27.628607,31.614271 27.756813,31.138912 28.013198,30.700910 C 28.280277,30.252242 28.632790,29.894369 29.070792,29.627291 C 29.508766,29.360240 29.984153,29.226701 30.496924,29.226701 C 30.999029,29.226701 31.469055,29.360240 31.907057,29.627291 C 32.345032,29.894369 32.692239,30.252242 32.948625,30.700910 C 33.215676,31.138912 33.349215,31.614271 33.349215,32.127042 C 33.349215,32.650506 33.215676,33.136585 32.948625,33.585253 C 32.692239,34.023228 32.339699,34.370435 31.891032,34.626821 C 31.453029,34.883206 30.988336,35.011385 30.496924,35.011385 C 29.994846,35.011385 29.519459,34.883206 29.070792,34.626821 C 28.632790,34.370435 28.280277,34.023228 28.013198,33.585253 C 27.756813,33.136585 27.628607,32.650506 27.628607,32.127042 z " />
  </g>
  <path
     style="font-size:12.000000;fill:#000000;fill-opacity:1.0000000;fill-rule:evenodd;stroke:#000000;stroke-width:2.4933763;stroke-linecap:round;stroke-linejoin:round;stroke-opacity:1.0000000;"
     d="M 29.793441,39.492495 C 16.899030,48.756863 11.451185,42.847589 11.371684,42.768089 L 14.949330,39.190443 L 4.3753855,39.254713 L 4.3753855,49.843890 L 7.9927885,46.226484 C 7.9927885,46.226484 19.526716,56.760326 29.793441,39.492495 z "
     id="path968"
     transform="matrix(1.002657,0.000000,0.000000,1.002657,-1.035139e-2,-7.804921e-2)" />
  <path
     id="path832"
     style="font-size:12.000000;font-weight:900;fill:#000000;fill-opacity:1.0000000;stroke-width:1.0000000;font-family:VAG Rounded Black SSi;"
     d="M 35.879639,22.033455 C 35.879639,20.324164 36.090435,18.688943 36.512056,17.127792 C 36.945083,15.566641 37.594625,14.170720 38.460650,12.940032 C 39.326705,11.697948 40.420650,10.717954 41.742487,10.000055 C 43.064352,9.2707576 44.585607,8.9061091 46.306281,8.9061091 C 48.038362,8.9061091 49.565335,9.2707576 50.887200,10.000055 C 52.209036,10.717954 53.302982,11.697948 54.169037,12.940032 C 55.035062,14.170720 55.678886,15.572339 56.100536,17.144884 C 56.522157,18.717432 56.732953,20.346956 56.732953,22.033455 C 56.732953,23.719954 56.522157,25.349475 56.100536,26.922023 C 55.690292,28.494583 55.046468,29.907581 54.169037,31.161068 C 53.302982,32.403148 52.209036,33.388837 50.887200,34.118134 C 49.565335,34.836025 48.038362,35.194985 46.306281,35.194985 C 44.585607,35.194985 43.064352,34.836025 41.742487,34.118134 C 40.420650,33.388837 39.320987,32.403148 38.443555,31.161068 C 37.577530,29.907581 36.933677,28.500272 36.512056,26.939115 C 36.090435,25.377964 35.879639,23.742743 35.879639,22.033455 z M 41.759581,22.033455 C 41.759581,23.195771 41.902028,24.369484 42.186891,25.554591 C 42.471784,26.739699 42.956095,27.725379 43.639797,28.511649 C 44.323527,29.297947 45.212365,29.691068 46.306281,29.691068 C 47.901633,29.691068 49.058240,28.904798 49.776160,27.332253 C 50.494051,25.748310 50.853011,23.982043 50.853011,22.033455 C 50.853011,20.096258 50.494051,18.341389 49.776160,16.768841 C 49.058240,15.184898 47.901633,14.392928 46.306281,14.392928 C 45.463039,14.392928 44.745148,14.632228 44.152580,15.110831 C 43.560041,15.589431 43.087135,16.210474 42.733864,16.973957 C 42.392028,17.737438 42.141325,18.569294 41.981784,19.469518 C 41.833649,20.358350 41.759581,21.212996 41.759581,22.033455 z M 4.1039294,22.033455 C 4.1039294,20.324164 4.3147400,18.688943 4.7363670,17.127792 C 5.1693856,15.566641 5.8189150,14.170720 6.6849552,12.940032 C 7.5509954,11.697948 8.6449409,10.717954 9.9667917,10.000055 C 11.288643,9.2707576 12.809912,8.9061091 14.530598,8.9061091 C 16.262679,8.9061091 17.789643,9.2707576 19.111493,10.000055 C 20.433344,10.717954 21.527290,11.697948 22.393330,12.940032 C 23.259370,14.170720 23.903202,15.572339 24.324826,17.144884 C 24.746453,18.717432 24.957264,20.346956 24.957264,22.033455 C 24.957264,23.719954 24.746453,25.349475 24.324826,26.922023 C 23.914597,28.494583 23.270765,29.907581 22.393330,31.161068 C 21.527290,32.403148 20.433344,33.388837 19.111493,34.118134 C 17.789643,34.836025 16.262679,35.194985 14.530598,35.194985 C 12.809912,35.194985 11.288643,34.836025 9.9667917,34.118134 C 8.6449409,33.388837 7.5452981,32.403148 6.6678634,31.161068 C 5.8018232,29.907581 5.1579911,28.500272 4.7363670,26.939115 C 4.3147400,25.377964 4.1039294,23.742743 4.1039294,22.033455 z M 9.9838864,22.033455 C 9.9838864,23.195771 10.126327,24.369484 10.411208,25.554591 C 10.696089,26.739699 11.180389,27.725379 11.864105,28.511649 C 12.547820,29.297947 13.436653,29.691068 14.530598,29.691068 C 16.125935,29.691068 17.282554,28.904798 18.000456,27.332253 C 18.718356,25.748310 19.077307,23.982043 19.077307,22.033455 C 19.077307,20.096258 18.718356,18.341389 18.000456,16.768841 C 17.282554,15.184898 16.125935,14.392928 14.530598,14.392928 C 13.687347,14.392928 12.969445,14.632228 12.376891,15.110831 C 11.784337,15.589431 11.311435,16.210474 10.958181,16.973957 C 10.616324,17.737438 10.365627,18.569294 10.206094,19.469518 C 10.057954,20.358350 9.9838864,21.212996 9.9838864,22.033455 z "
     transform="matrix(1.002657,0.000000,0.000000,1.002657,-1.035139e-2,-7.804921e-2)" />
  <path
     id="path833"
     style="font-size:12.000000;font-weight:900;fill:#000000;fill-opacity:1.0000000;stroke-width:1.0000000;font-family:VAG Rounded Black SSi;"
     d="M 10.278870,12.391830 C 10.278870,12.204330 10.325750,12.030510 10.419500,11.870350 C 10.517160,11.706290 10.646060,11.575430 10.806220,11.477770 C 10.966370,11.380120 11.140200,11.331290 11.327700,11.331290 C 11.511300,11.331290 11.683170,11.380120 11.843330,11.477770 C 12.003480,11.575430 12.130440,11.706290 12.224190,11.870350 C 12.321840,12.030510 12.370670,12.204330 12.370670,12.391830 C 12.370670,12.583240 12.321840,12.760980 12.224190,12.925040 C 12.130440,13.085190 12.001530,13.212150 11.837470,13.305900 C 11.677310,13.399650 11.507390,13.446520 11.327700,13.446520 C 11.144110,13.446520 10.970280,13.399650 10.806220,13.305900 C 10.646060,13.212150 10.517160,13.085190 10.419500,12.925040 C 10.325750,12.760980 10.278870,12.583240 10.278870,12.391830 z "
     transform="matrix(2.734778,0.000000,0.000000,2.734778,-0.481821,-1.761862)" />
  <metadata
     id="metadata8">
    <rdf:RDF
       id="RDF8">
      <Work
         rdf:about=""
         id="Work9">
        <dc:title
           id="title10">Part of the Flat Icon Collection (Thu Aug 26 14:38:01 2004)</dc:title>
        <dc:description
           id="description12" />
        <dc:subject
           id="subject13">
          <rdf:Bag
             id="Bag14">
            <rdf:li
               id="li15" />
          </rdf:Bag>
        </dc:subject>
        <dc:publisher
           id="publisher16">
          <Agent
             rdf:about=""
             id="Agent17">
            <dc:title
               id="title18" />
          </Agent>
        </dc:publisher>
        <dc:creator
           id="creator19">
          <Agent
             rdf:about=""
             id="Agent20">
            <dc:title
               id="title21">Danny Allen</dc:title>
          </Agent>
        </dc:creator>
        <dc:rights
           id="rights23">
          <Agent
             rdf:about=""
             id="Agent24">
            <dc:title
               id="title25">Danny Allen</dc:title>
          </Agent>
        </dc:rights>
        <dc:date
           id="date27" />
        <dc:format
           id="format28">image/svg+xml</dc:format>
        <dc:type
           rdf:resource="http://purl.org/dc/dcmitype/StillImage"
           id="type30" />
        <license
           rdf:resource="http://creativecommons.org/licenses/LGPL/2.1/"
           id="license31">
          <dc:date
             id="date32" />
        </license>
        <dc:language
           id="language33">en</dc:language>
      </Work>
      <cc:Work
         rdf:about=""
         id="Work36">
        <dc:format
           id="format37">image/svg+xml</dc:format>
        <dc:type
           id="type39"
           rdf:resource="http://purl.org/dc/dcmitype/StillImage" />
      </cc:Work>
    </rdf:RDF>
  </metadata>
</svg>
