<?xml version="1.0" encoding="UTF-8" standalone="no"?>
<!DOCTYPE svg PUBLIC "-//W3C//DTD SVG 20010904//EN"
"http://www.w3.org/TR/2001/REC-SVG-20010904/DTD/svg10.dtd">
<svg
   height="60"
   width="60"
   _SVGFile__filename="oldscale/actions/precminus.svg"
   version="1.0"
   y="0"
   x="0"
   id="svg1"
   sodipodi:version="0.32"
   inkscape:version="0.40"
   sodipodi:docname="prec_plus.svg"
   sodipodi:docbase="/home/danny/work/flat/SVG/mono/scalable/actions/d"
   xmlns="http://www.w3.org/2000/svg"
   xmlns:cc="http://web.resource.org/cc/"
   xmlns:inkscape="http://www.inkscape.org/namespaces/inkscape"
   xmlns:sodipodi="http://sodipodi.sourceforge.net/DTD/sodipodi-0.dtd"
   xmlns:rdf="http://www.w3.org/1999/02/22-rdf-syntax-ns#"
   xmlns:dc="http://purl.org/dc/elements/1.1/"
   xmlns:xlink="http://www.w3.org/1999/xlink">
  <sodipodi:namedview
     id="base"
     pagecolor="#ffffff"
     bordercolor="#666666"
     borderopacity="1.0"
     inkscape:pageopacity="0.0000000"
     inkscape:pageshadow="2"
     inkscape:zoom="7.3600436"
     inkscape:cx="55.765157"
     inkscape:cy="18.979035"
     inkscape:window-width="1024"
     inkscape:window-height="699"
     inkscape:window-x="0"
     inkscape:window-y="0"
     inkscape:current-layer="svg1" />
  <defs
     id="defs3" />
  <metadata
     id="metadata8">
    <rdf:RDF
       id="RDF8">
      <Work
         rdf:about=""
         id="Work9">
        <dc:title
           id="title10">Part of the Flat Icon Collection (Thu Aug 26 14:38:01 2004)</dc:title>
        <dc:description
           id="description12" />
        <dc:subject
           id="subject13">
          <rdf:Bag
             id="Bag14">
            <rdf:li
               id="li15" />
          </rdf:Bag>
        </dc:subject>
        <dc:publisher
           id="publisher16">
          <Agent
             rdf:about=""
             id="Agent17">
            <dc:title
               id="title18" />
          </Agent>
        </dc:publisher>
        <dc:creator
           id="creator19">
          <Agent
             rdf:about=""
             id="Agent20">
            <dc:title
               id="title21">Danny Allen</dc:title>
          </Agent>
        </dc:creator>
        <dc:rights
           id="rights23">
          <Agent
             rdf:about=""
             id="Agent24">
            <dc:title
               id="title25">Danny Allen</dc:title>
          </Agent>
        </dc:rights>
        <dc:date
           id="date27" />
        <dc:format
           id="format28">image/svg+xml</dc:format>
        <dc:type
           rdf:resource="http://purl.org/dc/dcmitype/StillImage"
           id="type30" />
        <license
           rdf:resource="http://creativecommons.org/licenses/LGPL/2.1/"
           id="license31">
          <dc:date
             id="date32" />
        </license>
        <dc:language
           id="language33">en</dc:language>
      </Work>
      <cc:Work
         rdf:about=""
         id="Work36">
        <dc:format
           id="format37">image/svg+xml</dc:format>
        <dc:type
           id="type39"
           rdf:resource="http://purl.org/dc/dcmitype/StillImage" />
      </cc:Work>
    </rdf:RDF>
  </metadata>
  <g
     id="g1098"
     transform="translate(-0.976993,5.000000e-7)">
    <path
       style="font-size:12.000000;fill:none;fill-opacity:1.0000000;fill-rule:evenodd;stroke:#ffffff;stroke-width:7.5000000;stroke-linecap:round;stroke-linejoin:round;stroke-miterlimit:4.0000000;stroke-opacity:1.0000000"
       d="M 31.113912,39.519377 C 44.042584,48.808361 49.504904,42.883386 49.584616,42.803675 L 45.997464,39.216523 L 56.599503,39.280964 L 56.599503,49.898276 L 52.972489,46.271259 C 52.972489,46.271259 41.407916,56.833090 31.113912,39.519377 z "
       id="path1104" />
    <path
       id="path1105"
       style="font-size:12.000000;font-weight:900;fill:none;fill-opacity:1.0000000;stroke:#ffffff;stroke-width:5.0000000;stroke-miterlimit:4.0000000;stroke-opacity:1.0000000;font-family:VAG Rounded Black SSi"
       d="M 35.964620,22.013949 C 35.964620,20.300116 36.175976,18.660550 36.598717,17.095251 C 37.032895,15.529952 37.684163,14.130322 38.552489,12.896364 C 39.420845,11.650980 40.517696,10.668382 41.843045,9.9485760 C 43.168423,9.2173410 44.693720,8.8517230 46.418965,8.8517230 C 48.155649,8.8517230 49.686679,9.2173410 51.012056,9.9485760 C 52.337404,10.668382 53.434257,11.650980 54.302613,12.896364 C 55.170939,14.130322 55.816473,15.535665 56.239244,17.112389 C 56.661985,18.689115 56.873341,20.322969 56.873341,22.013949 C 56.873341,23.704929 56.661985,25.338779 56.239244,26.915506 C 55.827910,28.492244 55.182375,29.908996 54.302613,31.165814 C 53.434257,32.411194 52.337404,33.399502 51.012056,34.130737 C 49.686679,34.850535 48.155649,35.210449 46.418965,35.210449 C 44.693720,35.210449 43.168423,34.850535 41.843045,34.130737 C 40.517696,33.399502 39.415111,32.411194 38.535348,31.165814 C 37.667022,29.908996 37.021458,28.497948 36.598717,26.932643 C 36.175976,25.367344 35.964620,23.727778 35.964620,22.013949 z M 41.860185,22.013949 C 41.860185,23.179353 42.003010,24.356185 42.288630,25.544440 C 42.574280,26.732697 43.059878,27.720996 43.745397,28.509355 C 44.430943,29.297742 45.322143,29.691908 46.418965,29.691908 C 48.018556,29.691908 49.178236,28.903549 49.898064,27.326826 C 50.617862,25.738674 50.977776,23.967714 50.977776,22.013949 C 50.977776,20.071605 50.617862,18.312073 49.898064,16.735347 C 49.178236,15.147195 48.018556,14.353121 46.418965,14.353121 C 45.573483,14.353121 44.853684,14.593057 44.259542,15.072931 C 43.665429,15.552803 43.191266,16.175496 42.837056,16.941008 C 42.494312,17.706517 42.242943,18.540583 42.082978,19.443199 C 41.934450,20.334393 41.860185,21.191310 41.860185,22.013949 z M 4.1044822,22.013949 C 4.1044822,20.300116 4.3158529,18.660550 4.7386001,17.095251 C 5.1727693,15.529952 5.8240245,14.130322 6.6923657,12.896364 C 7.5607070,11.650980 8.6575591,10.668382 9.9829221,9.9485760 C 11.308286,9.2173410 12.833597,8.8517230 14.558854,8.8517230 C 16.295538,8.8517230 17.826559,9.2173410 19.151921,9.9485760 C 20.477284,10.668382 21.574137,11.650980 22.442478,12.896364 C 23.310819,14.130322 23.956361,15.535665 24.379106,17.112389 C 24.801853,18.689115 25.013224,20.322969 25.013224,22.013949 C 25.013224,23.704929 24.801853,25.338779 24.379106,26.915506 C 23.967787,28.492244 23.322244,29.908996 22.442478,31.165814 C 21.574137,32.411194 20.477284,33.399502 19.151921,34.130737 C 17.826559,34.850535 16.295538,35.210449 14.558854,35.210449 C 12.833597,35.210449 11.308286,34.850535 9.9829221,34.130737 C 8.6575591,33.399502 7.5549946,32.411194 6.6752285,31.165814 C 5.8068873,29.908996 5.1613445,28.497948 4.7386001,26.932643 C 4.3158529,25.367344 4.1044822,23.727778 4.1044822,22.013949 z M 10.000062,22.013949 C 10.000062,23.179353 10.142881,24.356185 10.428519,25.544440 C 10.714157,26.732697 11.199744,27.720996 11.885277,28.509355 C 12.570808,29.297742 13.462003,29.691908 14.558854,29.691908 C 16.158430,29.691908 17.318122,28.903549 18.037932,27.326826 C 18.757739,25.738674 19.117644,23.967714 19.117644,22.013949 C 19.117644,20.071605 18.757739,18.312073 18.037932,16.735347 C 17.318122,15.147195 16.158430,14.353121 14.558854,14.353121 C 13.713363,14.353121 12.993553,14.593057 12.399425,15.072931 C 11.805297,15.552803 11.331138,16.175496 10.976945,16.941008 C 10.634180,17.706517 10.382817,18.540583 10.222860,19.443199 C 10.074327,20.334393 10.000062,21.191310 10.000062,22.013949 z " />
    <path
       id="path1106"
       style="font-size:12.000000;font-weight:900;fill:none;fill-opacity:1.0000000;stroke:#ffffff;stroke-width:5.0000000;stroke-miterlimit:4.0000000;stroke-opacity:1.0000000;font-family:VAG Rounded Black SSi"
       d="M 27.628607,32.127042 C 27.628607,31.614271 27.756813,31.138912 28.013198,30.700910 C 28.280277,30.252242 28.632790,29.894369 29.070792,29.627291 C 29.508766,29.360240 29.984153,29.226701 30.496924,29.226701 C 30.999029,29.226701 31.469055,29.360240 31.907057,29.627291 C 32.345032,29.894369 32.692239,30.252242 32.948625,30.700910 C 33.215676,31.138912 33.349215,31.614271 33.349215,32.127042 C 33.349215,32.650506 33.215676,33.136585 32.948625,33.585253 C 32.692239,34.023228 32.339699,34.370435 31.891032,34.626821 C 31.453029,34.883206 30.988336,35.011385 30.496924,35.011385 C 29.994846,35.011385 29.519459,34.883206 29.070792,34.626821 C 28.632790,34.370435 28.280277,34.023228 28.013198,33.585253 C 27.756813,33.136585 27.628607,32.650506 27.628607,32.127042 z " />
    <path
       id="path832"
       style="font-size:12.000000;font-weight:900;fill:#000000;fill-opacity:1.0000000;stroke-width:1.0000000;font-family:VAG Rounded Black SSi"
       d="M 35.964619,22.013949 C 35.964619,20.300116 36.175975,18.660550 36.598716,17.095251 C 37.032894,15.529952 37.684162,14.130322 38.552488,12.896364 C 39.420844,11.650980 40.517696,10.668382 41.843045,9.9485759 C 43.168422,9.2173408 44.693719,8.8517234 46.418965,8.8517234 C 48.155648,8.8517234 49.686678,9.2173408 51.012055,9.9485759 C 52.337403,10.668382 53.434256,11.650980 54.302612,12.896364 C 55.170938,14.130322 55.816473,15.535665 56.239243,17.112389 C 56.661984,18.689115 56.873340,20.322969 56.873340,22.013949 C 56.873340,23.704929 56.661984,25.338779 56.239243,26.915506 C 55.827909,28.492244 55.182374,29.908996 54.302612,31.165814 C 53.434256,32.411194 52.337403,33.399502 51.012055,34.130737 C 49.686678,34.850535 48.155648,35.210449 46.418965,35.210449 C 44.693719,35.210449 43.168422,34.850535 41.843045,34.130737 C 40.517696,33.399502 39.415111,32.411194 38.535347,31.165814 C 37.667021,29.908996 37.021458,28.497948 36.598716,26.932643 C 36.175975,25.367344 35.964619,23.727778 35.964619,22.013949 z M 41.860184,22.013949 C 41.860184,23.179353 42.003010,24.356185 42.288629,25.544440 C 42.574279,26.732697 43.059877,27.720996 43.745396,28.509355 C 44.430942,29.297742 45.322142,29.691908 46.418965,29.691908 C 48.018555,29.691908 49.178236,28.903549 49.898063,27.326826 C 50.617862,25.738674 50.977775,23.967714 50.977775,22.013949 C 50.977775,20.071605 50.617862,18.312073 49.898063,16.735347 C 49.178236,15.147195 48.018555,14.353121 46.418965,14.353121 C 45.573482,14.353121 44.853684,14.593057 44.259541,15.072931 C 43.665428,15.552803 43.191265,16.175496 42.837056,16.941008 C 42.494311,17.706517 42.242942,18.540583 42.082977,19.443199 C 41.934449,20.334393 41.860184,21.191310 41.860184,22.013949 z M 4.1044814,22.013949 C 4.1044814,20.300116 4.3158521,18.660550 4.7385994,17.095251 C 5.1727685,15.529952 5.8240237,14.130322 6.6923650,12.896364 C 7.5607062,11.650980 8.6575584,10.668382 9.9829213,9.9485759 C 11.308285,9.2173408 12.833596,8.8517234 14.558854,8.8517234 C 16.295537,8.8517234 17.826558,9.2173408 19.151920,9.9485759 C 20.477283,10.668382 21.574136,11.650980 22.442477,12.896364 C 23.310818,14.130322 23.956361,15.535665 24.379105,17.112389 C 24.801852,18.689115 25.013223,20.322969 25.013223,22.013949 C 25.013223,23.704929 24.801852,25.338779 24.379105,26.915506 C 23.967786,28.492244 23.322243,29.908996 22.442477,31.165814 C 21.574136,32.411194 20.477283,33.399502 19.151920,34.130737 C 17.826558,34.850535 16.295537,35.210449 14.558854,35.210449 C 12.833596,35.210449 11.308285,34.850535 9.9829213,34.130737 C 8.6575584,33.399502 7.5549938,32.411194 6.6752278,31.165814 C 5.8068865,29.908996 5.1613437,28.497948 4.7385994,26.932643 C 4.3158521,25.367344 4.1044814,23.727778 4.1044814,22.013949 z M 10.000061,22.013949 C 10.000061,23.179353 10.142881,24.356185 10.428518,25.544440 C 10.714156,26.732697 11.199743,27.720996 11.885276,28.509355 C 12.570807,29.297742 13.462002,29.691908 14.558854,29.691908 C 16.158429,29.691908 17.318122,28.903549 18.037931,27.326826 C 18.757739,25.738674 19.117643,23.967714 19.117643,22.013949 C 19.117643,20.071605 18.757739,18.312073 18.037931,16.735347 C 17.318122,15.147195 16.158429,14.353121 14.558854,14.353121 C 13.713362,14.353121 12.993553,14.593057 12.399424,15.072931 C 11.805296,15.552803 11.331137,16.175496 10.976945,16.941008 C 10.634179,17.706517 10.382816,18.540583 10.222859,19.443199 C 10.074326,20.334393 10.000061,21.191310 10.000061,22.013949 z " />
    <path
       id="path833"
       style="font-size:12.000000;font-weight:900;fill:#000000;fill-opacity:1.0000000;stroke-width:1.0000000;font-family:VAG Rounded Black SSi"
       d="M 10.278870,12.391830 C 10.278870,12.204330 10.325750,12.030510 10.419500,11.870350 C 10.517160,11.706290 10.646060,11.575430 10.806220,11.477770 C 10.966370,11.380120 11.140200,11.331290 11.327700,11.331290 C 11.511300,11.331290 11.683170,11.380120 11.843330,11.477770 C 12.003480,11.575430 12.130440,11.706290 12.224190,11.870350 C 12.321840,12.030510 12.370670,12.204330 12.370670,12.391830 C 12.370670,12.583240 12.321840,12.760980 12.224190,12.925040 C 12.130440,13.085190 12.001530,13.212150 11.837470,13.305900 C 11.677310,13.399650 11.507390,13.446520 11.327700,13.446520 C 11.144110,13.446520 10.970280,13.399650 10.806220,13.305900 C 10.646060,13.212150 10.517160,13.085190 10.419500,12.925040 C 10.325750,12.760980 10.278870,12.583240 10.278870,12.391830 z "
       transform="matrix(2.734778,0.000000,0.000000,2.734778,-0.481821,-1.761862)" />
    <path
       style="font-size:12.000000;fill:#000000;fill-opacity:1.0000000;fill-rule:evenodd;stroke:#000000;stroke-width:2.5000012;stroke-linecap:round;stroke-linejoin:round;stroke-opacity:1.0000000"
       d="M 31.113912,39.519377 C 44.042584,48.808361 49.504904,42.883386 49.584616,42.803675 L 45.997464,39.216523 L 56.599503,39.280964 L 56.599503,49.898276 L 52.972489,46.271259 C 52.972489,46.271259 41.407916,56.833089 31.113912,39.519377 z "
       id="path1094" />
  </g>
</svg>
