<?xml version="1.0" encoding="UTF-8" standalone="no"?>
<!DOCTYPE svg PUBLIC "-//W3C//DTD SVG 20010904//EN"
"http://www.w3.org/TR/2001/REC-SVG-20010904/DTD/svg10.dtd">
<svg
   height="60"
   width="60"
   _SVGFile__filename="oldscale/apps/kpercentage.svg"
   version="1.0"
   y="0"
   x="0"
   id="svg1"
   xmlns="http://www.w3.org/2000/svg"
   xmlns:rdf="http://www.w3.org/1999/02/22-rdf-syntax-ns#"
   xmlns:dc="http://purl.org/dc/elements/1.1/"
   xmlns:xlink="http://www.w3.org/1999/xlink"
   xmlns:sodipodi="http://sodipodi.sourceforge.net/DTD/sodipodi-0.dtd"
   xmlns:inkscape="http://www.inkscape.org/namespaces/inkscape"
   sodipodi:version="0.32"
   inkscape:version="0.40"
   xmlns:cc="http://web.resource.org/cc/"
   sodipodi:docname="kpercentage.svg"
   sodipodi:docbase="/home/danny/work/flat/SVG/mono/scalable/apps">
  <sodipodi:namedview
     id="base"
     pagecolor="#ffffff"
     bordercolor="#666666"
     borderopacity="1.0"
     inkscape:pageopacity="0.0"
     inkscape:pageshadow="2"
     inkscape:zoom="3.7873484"
     inkscape:cx="68.968011"
     inkscape:cy="6.3705365"
     inkscape:window-width="1024"
     inkscape:window-height="699"
     inkscape:window-x="0"
     inkscape:window-y="0"
     inkscape:current-layer="svg1" />
  <defs
     id="defs3">
    <linearGradient
       id="linearGradient772">
      <stop
         style="stop-color: #000000;stop-opacity: 1.0;"
         id="stop773"
         offset="0" />
      <stop
         style="stop-color:#ffffff;stop-opacity:1;"
         id="stop774"
         offset="1" />
    </linearGradient>
    <linearGradient
       xlink:href="#linearGradient772"
       id="linearGradient775" />
  </defs>
  <path
     id="path1091"
     style="font-size:12.000000;font-weight:900;fill:none;fill-opacity:1.0000000;stroke:#ffffff;stroke-width:5.0000000;stroke-linejoin:round;stroke-miterlimit:4.0000000;stroke-opacity:1.0000000;font-family:VAG Rounded Black SSi;"
     d="M 6.7071620,14.692822 C 6.7071620,12.619220 7.1964270,10.697055 8.1749550,8.9263871 C 9.1768050,7.1323983 10.539802,5.7228186 12.263887,4.6977077 C 13.987973,3.6492161 15.851865,3.1250001 17.855564,3.1250001 C 19.439902,3.1250001 20.919326,3.4395655 22.293954,4.0686366 C 23.691903,4.6977077 24.880141,5.5480601 25.858670,6.6198130 C 26.860520,7.6682449 27.641030,8.8914354 28.200200,10.289385 C 28.759360,11.687274 29.038920,13.155067 29.038920,14.692822 C 29.038920,16.743104 28.549650,18.665209 27.571120,20.459198 C 26.592540,22.253187 25.241230,23.686088 23.517144,24.757841 C 21.793059,25.829534 19.905845,26.365440 17.855564,26.365440 C 15.758700,26.365440 13.848225,25.829534 12.124080,24.757841 C 10.423316,23.686088 9.0952710,22.253187 8.1400040,20.459198 C 7.1847960,18.641948 6.7071620,16.719783 6.7071620,14.692822 z M 15.234484,47.474005 L 38.335060,6.8993670 C 39.080610,5.6179635 39.779590,4.6743867 40.431980,4.0686366 C 41.084310,3.4395655 41.864820,3.1250001 42.773510,3.1250001 C 43.542330,3.1250001 44.252930,3.3113894 44.905320,3.6841678 C 45.557650,4.0336849 46.070240,4.5229491 46.443020,5.1520202 C 46.815800,5.7577703 47.002190,6.4101028 47.002190,7.1090773 C 47.002190,7.9711200 46.815800,8.7865803 46.443020,9.5554579 C 46.070240,10.301015 45.511070,11.279544 44.765520,12.491044 L 21.664882,53.065682 C 20.989229,54.300503 20.313575,55.244080 19.637922,55.896472 C 18.962269,56.548804 18.158439,56.875000 17.226493,56.875000 C 16.038254,56.875000 15.036404,56.478960 14.221004,55.686761 C 13.405544,54.894622 12.997813,53.951045 12.997813,52.855971 C 12.997813,51.993929 13.172512,51.201789 13.522029,50.479554 C 13.894808,49.757258 14.465606,48.755408 15.234484,47.474005 z M 14.850015,14.692822 C 14.850015,15.671351 15.117998,16.498442 15.653845,17.174095 C 16.213013,17.826488 16.946939,18.152624 17.855564,18.152624 C 18.787510,18.152624 19.521436,17.826488 20.057283,17.174095 C 20.593189,16.498442 20.861112,15.671351 20.861112,14.692822 C 20.861112,13.737555 20.593189,12.945416 20.057283,12.316345 C 19.521436,11.663953 18.787510,11.337816 17.855564,11.337816 C 16.946939,11.337816 16.213013,11.663953 15.653845,12.316345 C 15.117998,12.945416 14.850015,13.737555 14.850015,14.692822 z M 39.138890,45.272286 C 39.138890,46.180911 39.406810,46.973110 39.942720,47.648763 C 40.501880,48.301096 41.235750,48.627292 42.144440,48.627292 C 43.053060,48.627292 43.775300,48.301096 44.311200,47.648763 C 44.870370,46.973110 45.149920,46.180911 45.149920,45.272286 C 45.149920,44.317019 44.870370,43.513249 44.311200,42.860857 C 43.775300,42.185203 43.053060,41.847376 42.144440,41.847376 C 41.235750,41.847376 40.501880,42.185203 39.942720,42.860857 C 39.406810,43.513249 39.138890,44.317019 39.138890,45.272286 z M 30.961080,45.272286 C 30.961080,43.175422 31.450350,41.241626 32.428880,39.470899 C 33.430720,37.676910 34.782030,36.255700 36.482860,35.207268 C 38.206940,34.135515 40.094150,33.599668 42.144440,33.599668 C 44.194720,33.599668 46.070240,34.135515 47.771060,35.207268 C 49.471830,36.279021 50.811500,37.711862 51.790030,39.505851 C 52.791880,41.276578 53.292840,43.198683 53.292840,45.272286 C 53.292840,47.322567 52.791880,49.233042 51.790030,51.003770 C 50.811500,52.774437 49.471830,54.195648 47.771060,55.267401 C 46.070240,56.339154 44.194720,56.875000 42.144440,56.875000 C 40.024250,56.875000 38.102090,56.350784 36.378000,55.302352 C 34.677180,54.230599 33.349190,52.797758 32.393920,51.003770 C 31.438660,49.209781 30.961080,47.299246 30.961080,45.272286 z " />
  <path
     id="path832"
     style="font-size:12.000000;font-weight:900;fill:#000000;fill-opacity:1.0000000;stroke-width:1.0000000;font-family:VAG Rounded Black SSi"
     d="M 6.7071625,14.692822 C 6.7071625,12.619220 7.1964268,10.697055 8.1749553,8.9263871 C 9.1768048,7.1323983 10.539802,5.7228186 12.263887,4.6977077 C 13.987973,3.6492161 15.851865,3.1250001 17.855564,3.1250001 C 19.439902,3.1250001 20.919326,3.4395655 22.293954,4.0686366 C 23.691903,4.6977077 24.880141,5.5480601 25.858670,6.6198130 C 26.860519,7.6682449 27.641028,8.8914354 28.200196,10.289385 C 28.759363,11.687274 29.038917,13.155067 29.038917,14.692822 C 29.038917,16.743104 28.549653,18.665209 27.571125,20.459198 C 26.592536,22.253187 25.241229,23.686088 23.517144,24.757841 C 21.793059,25.829534 19.905845,26.365440 17.855564,26.365440 C 15.758700,26.365440 13.848225,25.829534 12.124080,24.757841 C 10.423316,23.686088 9.0952707,22.253187 8.1400036,20.459198 C 7.1847961,18.641948 6.7071625,16.719783 6.7071625,14.692822 z M 15.234484,47.474005 L 38.335058,6.8993670 C 39.080614,5.6179635 39.779589,4.6743867 40.431981,4.0686366 C 41.084313,3.4395655 41.864822,3.1250001 42.773507,3.1250001 C 43.542325,3.1250001 44.252930,3.3113894 44.905322,3.6841678 C 45.557655,4.0336849 46.070240,4.5229491 46.443019,5.1520202 C 46.815797,5.7577703 47.002186,6.4101028 47.002186,7.1090773 C 47.002186,7.9711200 46.815797,8.7865803 46.443019,9.5554579 C 46.070240,10.301015 45.511072,11.279544 44.765516,12.491044 L 21.664882,53.065682 C 20.989229,54.300503 20.313575,55.244080 19.637922,55.896472 C 18.962269,56.548804 18.158439,56.875000 17.226493,56.875000 C 16.038254,56.875000 15.036404,56.478960 14.221004,55.686761 C 13.405544,54.894622 12.997813,53.951045 12.997813,52.855971 C 12.997813,51.993929 13.172512,51.201789 13.522029,50.479554 C 13.894808,49.757258 14.465606,48.755408 15.234484,47.474005 z M 14.850015,14.692822 C 14.850015,15.671351 15.117998,16.498442 15.653845,17.174095 C 16.213013,17.826488 16.946939,18.152624 17.855564,18.152624 C 18.787510,18.152624 19.521436,17.826488 20.057283,17.174095 C 20.593189,16.498442 20.861112,15.671351 20.861112,14.692822 C 20.861112,13.737555 20.593189,12.945416 20.057283,12.316345 C 19.521436,11.663953 18.787510,11.337816 17.855564,11.337816 C 16.946939,11.337816 16.213013,11.663953 15.653845,12.316345 C 15.117998,12.945416 14.850015,13.737555 14.850015,14.692822 z M 39.138887,45.272286 C 39.138887,46.180911 39.406810,46.973110 39.942717,47.648763 C 40.501884,48.301096 41.235751,48.627292 42.144436,48.627292 C 43.053061,48.627292 43.775297,48.301096 44.311203,47.648763 C 44.870371,46.973110 45.149925,46.180911 45.149925,45.272286 C 45.149925,44.317019 44.870371,43.513249 44.311203,42.860857 C 43.775297,42.185203 43.053061,41.847376 42.144436,41.847376 C 41.235751,41.847376 40.501884,42.185203 39.942717,42.860857 C 39.406810,43.513249 39.138887,44.317019 39.138887,45.272286 z M 30.961082,45.272286 C 30.961082,43.175422 31.450347,41.241626 32.428875,39.470899 C 33.430725,37.676910 34.782032,36.255700 36.482856,35.207268 C 38.206941,34.135515 40.094154,33.599668 42.144436,33.599668 C 44.194717,33.599668 46.070240,34.135515 47.771064,35.207268 C 49.471829,36.279021 50.811505,37.711862 51.790033,39.505851 C 52.791883,41.276578 53.292837,43.198683 53.292837,45.272286 C 53.292837,47.322567 52.791883,49.233042 51.790033,51.003770 C 50.811505,52.774437 49.471829,54.195648 47.771064,55.267401 C 46.070240,56.339154 44.194717,56.875000 42.144436,56.875000 C 40.024251,56.875000 38.102086,56.350784 36.378000,55.302352 C 34.677176,54.230599 33.349190,52.797758 32.393923,51.003770 C 31.438656,49.209781 30.961082,47.299246 30.961082,45.272286 z " />
  <metadata
     id="metadata9">
    <rdf:RDF
       id="RDF9">
      <Work
         rdf:about=""
         id="Work10">
        <dc:title
           id="title11">Part of the Flat Icon Collection (Thu Aug 26 14:31:40 2004)</dc:title>
        <dc:description
           id="description13" />
        <dc:subject
           id="subject14">
          <rdf:Bag
             id="Bag15">
            <rdf:li
               id="li16" />
          </rdf:Bag>
        </dc:subject>
        <dc:publisher
           id="publisher17">
          <Agent
             rdf:about=""
             id="Agent18">
            <dc:title
               id="title19" />
          </Agent>
        </dc:publisher>
        <dc:creator
           id="creator20">
          <Agent
             rdf:about=""
             id="Agent21">
            <dc:title
               id="title22">Danny Allen</dc:title>
          </Agent>
        </dc:creator>
        <dc:rights
           id="rights24">
          <Agent
             rdf:about=""
             id="Agent25">
            <dc:title
               id="title26">Danny Allen</dc:title>
          </Agent>
        </dc:rights>
        <dc:date
           id="date28" />
        <dc:format
           id="format29">image/svg+xml</dc:format>
        <dc:type
           rdf:resource="http://purl.org/dc/dcmitype/StillImage"
           id="type31" />
        <license
           rdf:resource="http://creativecommons.org/licenses/LGPL/2.1/"
           id="license32">
          <dc:date
             id="date33" />
        </license>
        <dc:language
           id="language34">en</dc:language>
      </Work>
      <cc:Work
         rdf:about=""
         id="Work37">
        <dc:format
           id="format38">image/svg+xml</dc:format>
        <dc:type
           id="type40"
           rdf:resource="http://purl.org/dc/dcmitype/StillImage" />
      </cc:Work>
    </rdf:RDF>
  </metadata>
</svg>
