<?xml version="1.0" encoding="UTF-8" standalone="no"?>
<!DOCTYPE svg PUBLIC "-//W3C//DTD SVG 20010904//EN"
"http://www.w3.org/TR/2001/REC-SVG-20010904/DTD/svg10.dtd">
<svg
   height="60"
   width="60"
   _SVGFile__filename="oldscale/actions/aobottom.svg"
   version="1.0"
   y="0"
   x="0"
   id="svg1"
   sodipodi:version="0.32"
   inkscape:version="0.40"
   sodipodi:docname="aoleft.svg"
   sodipodi:docbase="/home/danny/work/flat/SVG/mono/scalable/actions"
   xmlns="http://www.w3.org/2000/svg"
   xmlns:cc="http://web.resource.org/cc/"
   xmlns:inkscape="http://www.inkscape.org/namespaces/inkscape"
   xmlns:sodipodi="http://sodipodi.sourceforge.net/DTD/sodipodi-0.dtd"
   xmlns:rdf="http://www.w3.org/1999/02/22-rdf-syntax-ns#"
   xmlns:dc="http://purl.org/dc/elements/1.1/"
   xmlns:xlink="http://www.w3.org/1999/xlink">
  <sodipodi:namedview
     id="base"
     pagecolor="#ffffff"
     bordercolor="#666666"
     borderopacity="1.0"
     inkscape:pageopacity="0.0000000"
     inkscape:pageshadow="2"
     inkscape:zoom="6.0612328"
     inkscape:cx="64.719876"
     inkscape:cy="12.572216"
     inkscape:window-width="1024"
     inkscape:window-height="698"
     inkscape:window-x="0"
     inkscape:window-y="0"
     inkscape:current-layer="svg1" />
  <defs
     id="defs3" />
  <g
     id="g1093"
     transform="matrix(0.000000,1.000000,-1.000000,0.000000,60.00000,5.000000e-7)">
    <path
       style="font-size:12.000000;fill:none;fill-opacity:1.0000000;fill-rule:evenodd;stroke:#ffffff;stroke-width:10.000000;stroke-linecap:round;stroke-linejoin:round;stroke-miterlimit:4.0000000;stroke-dashoffset:0.0000000;stroke-opacity:1.0000000"
       d="M 5.6242399,21.316078 C 5.6242399,20.935671 5.9304894,20.629426 6.3108975,20.629426 L 22.359712,20.629426 C 22.740119,20.629426 23.046365,20.935671 23.046365,21.316078 L 23.046365,37.364899 C 23.046365,37.745305 22.740119,38.051551 22.359712,38.051551 L 6.3108975,38.051551 C 5.9304894,38.051551 5.6242399,37.745305 5.6242399,37.364899 L 5.6242399,21.316078 z "
       id="path2401"
       transform="translate(-1.450000e-6,-0.236258)"
       sodipodi:nodetypes="ccccccccc" />
    <path
       style="font-size:12.000000;fill:none;fill-opacity:1.0000000;fill-rule:evenodd;stroke:#ffffff;stroke-width:10.000000;stroke-linecap:round;stroke-linejoin:round;stroke-miterlimit:4.0000000;stroke-dashoffset:0.0000000;stroke-opacity:1.0000000"
       d="M 32.628776,13.670478 C 32.628776,13.114490 33.076376,12.666889 33.632365,12.666889 L 53.372174,12.666889 C 53.928163,12.666889 54.375763,13.114490 54.375763,13.670478 L 54.375763,37.126791 C 54.375763,37.682780 53.928163,38.130388 53.372174,38.130388 L 33.632365,38.130388 C 33.076376,38.130388 32.628776,37.682780 32.628776,37.126791 L 32.628776,13.670478 z "
       id="path2402"
       transform="translate(-1.450000e-6,-0.236258)" />
    <path
       style="font-size:12.000000;fill:#ffffff;fill-opacity:1.0000000;fill-rule:evenodd;stroke:#000000;stroke-width:4.9999971;stroke-linecap:round;stroke-linejoin:round;stroke-miterlimit:4.0000000;stroke-dashoffset:0.0000000;stroke-opacity:1.0000000"
       d="M 5.6242399,21.316078 C 5.6242399,20.935671 5.9304894,20.629426 6.3108975,20.629426 L 22.359712,20.629426 C 22.740119,20.629426 23.046365,20.935671 23.046365,21.316078 L 23.046365,37.364899 C 23.046365,37.745305 22.740119,38.051551 22.359712,38.051551 L 6.3108975,38.051551 C 5.9304894,38.051551 5.6242399,37.745305 5.6242399,37.364899 L 5.6242399,21.316078 z "
       id="rect827"
       transform="translate(-1.450000e-6,-0.236258)" />
    <path
       style="font-size:12.000000;fill:#000000;fill-opacity:1.0000000;fill-rule:evenodd;stroke:#000000;stroke-width:4.9999971;stroke-linecap:round;stroke-linejoin:round;stroke-miterlimit:4.0000000;stroke-dashoffset:0.0000000;stroke-opacity:1.0000000"
       d="M 32.628776,13.670478 C 32.628776,13.114490 33.076376,12.666889 33.632365,12.666889 L 53.372174,12.666889 C 53.928163,12.666889 54.375763,13.114490 54.375763,13.670478 L 54.375763,37.126791 C 54.375763,37.682780 53.928163,38.130388 53.372174,38.130388 L 33.632365,38.130388 C 33.076376,38.130388 32.628776,37.682780 32.628776,37.126791 L 32.628776,13.670478 z "
       id="rect828"
       transform="translate(-1.450000e-6,-0.236258)" />
    <path
       id="path1097"
       style="font-size:12.000000;fill:none;fill-opacity:1.0000000;fill-rule:evenodd;stroke:#ffffff;stroke-width:10.000000;stroke-linecap:round;stroke-linejoin:round;stroke-miterlimit:4.0000000;stroke-opacity:1.0000000"
       d="M 4.4984460,48.899380 L 53.249965,48.899380"
       transform="translate(1.125793,-1.330012)" />
    <path
       id="path829"
       style="font-size:12.000000;fill:none;fill-opacity:0.75000000;fill-rule:evenodd;stroke:#000000;stroke-width:5.0000000;stroke-linecap:round;stroke-linejoin:round;stroke-miterlimit:4.0000000;stroke-opacity:1.0000000"
       d="M 4.4984473,48.899380 L 53.249968,48.899380"
       transform="translate(1.125793,-1.330012)" />
  </g>
  <metadata
     id="metadata7">
    <RDF
       id="RDF8">
      <Work
         about=""
         id="Work9">
        <title
           id="title10">Part of the Flat Icon Collection (Thu Aug 26 14:38:01 2004)</title>
        <description
           id="description12" />
        <subject
           id="subject13">
          <Bag
             id="Bag14">
            <li
               id="li15" />
          </Bag>
        </subject>
        <publisher
           id="publisher16">
          <Agent
             about=""
             id="Agent17">
            <title
               id="title18" />
          </Agent>
        </publisher>
        <creator
           id="creator19">
          <Agent
             about=""
             id="Agent20">
            <title
               id="title21">Danny Allen</title>
          </Agent>
        </creator>
        <rights
           id="rights23">
          <Agent
             about=""
             id="Agent24">
            <title
               id="title25">Danny Allen</title>
          </Agent>
        </rights>
        <date
           id="date27" />
        <format
           id="format28">image/svg+xml</format>
        <type
           id="type30"
           resource="http://purl.org/dc/dcmitype/StillImage" />
        <license
           id="license31"
           resource="http://creativecommons.org/licenses/LGPL/2.1/">
          <date
             id="date32" />
        </license>
        <language
           id="language33">en</language>
      </Work>
    </RDF>
    <rdf:RDF
       id="RDF35">
      <cc:Work
         rdf:about=""
         id="Work36">
        <dc:format
           id="format37">image/svg+xml</dc:format>
        <dc:type
           id="type39"
           rdf:resource="http://purl.org/dc/dcmitype/StillImage" />
      </cc:Work>
    </rdf:RDF>
  </metadata>
</svg>
