<?xml version="1.0" encoding="UTF-8" standalone="no"?>
<!DOCTYPE svg PUBLIC "-//W3C//DTD SVG 20010904//EN"
"http://www.w3.org/TR/2001/REC-SVG-20010904/DTD/svg10.dtd">
<svg
   height="60"
   width="60"
   _SVGFile__filename="oldscale/actions/align_objs.svg"
   version="1.0"
   y="0"
   x="0"
   id="svg1"
   sodipodi:version="0.32"
   inkscape:version="0.40"
   sodipodi:docname="alignobjs.svg"
   sodipodi:docbase="/home/danny/work/flat/SVG/mono/scalable/actions"
   xmlns="http://www.w3.org/2000/svg"
   xmlns:cc="http://web.resource.org/cc/"
   xmlns:inkscape="http://www.inkscape.org/namespaces/inkscape"
   xmlns:sodipodi="http://sodipodi.sourceforge.net/DTD/sodipodi-0.dtd"
   xmlns:rdf="http://www.w3.org/1999/02/22-rdf-syntax-ns#"
   xmlns:dc="http://purl.org/dc/elements/1.1/"
   xmlns:xlink="http://www.w3.org/1999/xlink">
  <sodipodi:namedview
     id="base"
     pagecolor="#ffffff"
     bordercolor="#666666"
     borderopacity="1.0"
     inkscape:pageopacity="0.0"
     inkscape:pageshadow="2"
     inkscape:zoom="5.5729167"
     inkscape:cx="48.121951"
     inkscape:cy="24.000000"
     inkscape:window-width="1024"
     inkscape:window-height="698"
     inkscape:window-x="0"
     inkscape:window-y="0"
     inkscape:current-layer="svg1" />
  <defs
     id="defs3" />
  <metadata
     id="metadata8">
    <RDF
       id="RDF9">
      <Work
         about=""
         id="Work10">
        <title
           id="title11">Part of the Flat Icon Collection (Thu Aug 26 14:38:01 2004)</title>
        <description
           id="description13" />
        <subject
           id="subject14">
          <Bag
             id="Bag15">
            <li
               id="li16" />
          </Bag>
        </subject>
        <publisher
           id="publisher17">
          <Agent
             about=""
             id="Agent18">
            <title
               id="title19" />
          </Agent>
        </publisher>
        <creator
           id="creator20">
          <Agent
             about=""
             id="Agent21">
            <title
               id="title22">Danny Allen</title>
          </Agent>
        </creator>
        <rights
           id="rights24">
          <Agent
             about=""
             id="Agent25">
            <title
               id="title26">Danny Allen</title>
          </Agent>
        </rights>
        <date
           id="date28" />
        <format
           id="format29">image/svg+xml</format>
        <type
           id="type31"
           resource="http://purl.org/dc/dcmitype/StillImage" />
        <license
           id="license32"
           resource="http://creativecommons.org/licenses/LGPL/2.1/">
          <date
             id="date33" />
        </license>
        <language
           id="language34">en</language>
      </Work>
    </RDF>
    <rdf:RDF
       id="RDF37">
      <cc:Work
         rdf:about=""
         id="Work38">
        <dc:format
           id="format39">image/svg+xml</dc:format>
        <dc:type
           id="type41"
           rdf:resource="http://purl.org/dc/dcmitype/StillImage" />
      </cc:Work>
    </rdf:RDF>
  </metadata>
  <path
     id="path1822"
     style="font-size:12.000000;fill:none;fill-opacity:0.75000000;fill-rule:evenodd;stroke:#ffffff;stroke-width:10.000000;stroke-linecap:round;stroke-linejoin:round;stroke-miterlimit:4.0000000;stroke-opacity:1.0000000;stroke-dasharray:none;stroke-dashoffset:0.0000000;"
     d="M 4.4984473,48.899380 L 44.499968,48.899380"
     transform="matrix(0.000000,1.000000,1.000000,0.000000,-8.138502,1.125794)"
     sodipodi:nodetypes="cc" />
  <path
     style="font-size:12.000000;fill:none;fill-opacity:1.0000000;fill-rule:evenodd;stroke:#ffffff;stroke-width:10.000000;stroke-linecap:round;stroke-linejoin:round;stroke-miterlimit:4.0000000;stroke-dashoffset:0.0000000;stroke-opacity:1.0000000;"
     d="M 5.6242399,21.316078 C 5.6242399,20.935671 5.9304894,20.629426 6.3108975,20.629426 L 22.359712,20.629426 C 22.740119,20.629426 23.046365,20.935671 23.046365,21.316078 L 23.046365,37.364899 C 23.046365,37.745305 22.740119,38.051551 22.359712,38.051551 L 6.3108975,38.051551 C 5.9304894,38.051551 5.6242399,37.745305 5.6242399,37.364899 L 5.6242399,21.316078 z "
     id="path2401"
     transform="matrix(0.000000,1.000000,1.000000,0.000000,-7.044748,-9.500000e-7)"
     sodipodi:nodetypes="ccccccccc" />
  <path
     style="font-size:12.000000;fill:none;fill-opacity:1.0000000;fill-rule:evenodd;stroke:#ffffff;stroke-width:10.000000;stroke-linecap:round;stroke-linejoin:round;stroke-miterlimit:4.0000000;stroke-dashoffset:0.0000000;stroke-opacity:1.0000000;"
     d="M 32.628776,13.670478 C 32.628776,13.114490 33.076376,12.666889 33.632365,12.666889 L 53.372174,12.666889 C 53.928163,12.666889 54.375763,13.114490 54.375763,13.670478 L 54.375763,37.126791 C 54.375763,37.682780 53.928163,38.130388 53.372174,38.130388 L 33.632365,38.130388 C 33.076376,38.130388 32.628776,37.682780 32.628776,37.126791 L 32.628776,13.670478 z "
     id="path2402"
     transform="matrix(0.000000,1.000000,1.000000,0.000000,-7.044748,-9.500000e-7)" />
  <path
     style="font-size:12.000000;fill:#ffffff;fill-opacity:1.0000000;fill-rule:evenodd;stroke:#000000;stroke-width:4.9999971;stroke-linecap:round;stroke-linejoin:round;stroke-miterlimit:4.0000000;stroke-dashoffset:0.0000000;stroke-opacity:1.0000000;stroke-dasharray:4.9999971 4.9999971;"
     d="M 5.6242399,21.316078 C 5.6242399,20.935671 5.9304894,20.629426 6.3108975,20.629426 L 22.359712,20.629426 C 22.740119,20.629426 23.046365,20.935671 23.046365,21.316078 L 23.046365,37.364899 C 23.046365,37.745305 22.740119,38.051551 22.359712,38.051551 L 6.3108975,38.051551 C 5.9304894,38.051551 5.6242399,37.745305 5.6242399,37.364899 L 5.6242399,21.316078 z "
     id="path1184"
     transform="matrix(0.000000,1.000000,1.000000,0.000000,-7.044748,-9.500000e-7)" />
  <path
     style="font-size:12.000000;fill:#ffffff;fill-opacity:1.0000000;fill-rule:evenodd;stroke:#000000;stroke-width:4.9999971;stroke-linecap:round;stroke-linejoin:round;stroke-miterlimit:4.0000000;stroke-dashoffset:0.0000000;stroke-opacity:1.0000000;stroke-dasharray:4.9999971 4.9999971;"
     d="M 32.628776,13.670478 C 32.628776,13.114490 33.076376,12.666889 33.632365,12.666889 L 53.372174,12.666889 C 53.928163,12.666889 54.375763,13.114490 54.375763,13.670478 L 54.375763,37.126791 C 54.375763,37.682780 53.928163,38.130388 53.372174,38.130388 L 33.632365,38.130388 C 33.076376,38.130388 32.628776,37.682780 32.628776,37.126791 L 32.628776,13.670478 z "
     id="path1185"
     transform="matrix(0.000000,1.000000,1.000000,0.000000,-7.044748,-9.500000e-7)" />
  <path
     id="path1187"
     style="font-size:12.000000;fill:none;fill-opacity:0.75000000;fill-rule:evenodd;stroke:#000000;stroke-width:5.0000000;stroke-linecap:round;stroke-linejoin:round;stroke-miterlimit:4.0000000;stroke-opacity:1.0000000;stroke-dasharray:5.0000000 5.0000000;stroke-dashoffset:0.0000000;"
     d="M 4.4984473,48.899380 L 44.499968,48.899380"
     transform="matrix(0.000000,1.000000,1.000000,0.000000,-8.138502,1.125794)"
     sodipodi:nodetypes="cc" />
  <path
     style="font-size:12.000000;fill:none;fill-opacity:1.0000000;fill-rule:evenodd;stroke:#ffffff;stroke-width:8.4063609;stroke-linecap:round;stroke-linejoin:round;stroke-miterlimit:4.0000000;stroke-opacity:1.0000000;stroke-dasharray:none;"
     d="M 56.314973,45.009689 L 38.723238,45.009689 L 47.519105,55.285562 L 56.314973,45.009689 z "
     id="path1103"
     transform="matrix(0.966530,0.000000,0.000000,0.966530,0.885252,1.054142)"
     sodipodi:nodetypes="cccc" />
  <path
     style="font-size:12.000000;fill:#000000;fill-opacity:1.0000000;fill-rule:evenodd;stroke:#000000;stroke-width:3.2332139;stroke-linecap:round;stroke-linejoin:round;stroke-miterlimit:4.0000000;stroke-opacity:1.0000000;"
     d="M 56.314973,45.009689 L 38.723238,45.009689 L 47.519105,55.285562 L 56.314973,45.009689 z "
     id="path1575"
     transform="matrix(0.966530,0.000000,0.000000,0.966530,0.885252,1.054142)" />
</svg>
