<?xml version="1.0" encoding="UTF-8" standalone="no"?>
<!DOCTYPE svg PUBLIC "-//W3C//DTD SVG 20010904//EN"
"http://www.w3.org/TR/2001/REC-SVG-20010904/DTD/svg10.dtd">
<svg
   height="60"
   width="60"
   _SVGFile__filename="oldscale/actions/14_pencil.svg"
   version="1.0"
   y="0"
   x="0"
   id="svg1"
   xmlns="http://www.w3.org/2000/svg"
   xmlns:xlink="http://www.w3.org/1999/xlink"
   xmlns:sodipodi="http://sodipodi.sourceforge.net/DTD/sodipodi-0.dtd"
   xmlns:inkscape="http://www.inkscape.org/namespaces/inkscape"
   sodipodi:version="0.32"
   inkscape:version="0.40pre4"
   xmlns:rdf="http://www.w3.org/1999/02/22-rdf-syntax-ns#"
   xmlns:cc="http://web.resource.org/cc/"
   xmlns:dc="http://purl.org/dc/elements/1.1/"
   sodipodi:docname="14_pencil.svg"
   sodipodi:docbase="/home/danny/work/flat/SVG/mono/scalable/actions">
  <sodipodi:namedview
     id="base"
     pagecolor="#ffffff"
     bordercolor="#666666"
     borderopacity="1.0"
     inkscape:pageopacity="0.0"
     inkscape:pageshadow="2"
     inkscape:zoom="7.0486090"
     inkscape:cx="39.715902"
     inkscape:cy="19.240147"
     inkscape:window-width="1024"
     inkscape:window-height="699"
     inkscape:window-x="0"
     inkscape:window-y="0"
     inkscape:current-layer="svg1" />
  <defs
     id="defs3">
    <linearGradient
       id="linearGradient772">
      <stop
         style="stop-color: #000000;stop-opacity: 1.0;"
         id="stop773"
         offset="0" />
      <stop
         style="stop-color:#ffffff;stop-opacity:1;"
         id="stop774"
         offset="1" />
    </linearGradient>
    <linearGradient
       xlink:href="#linearGradient772"
       id="linearGradient775" />
  </defs>
  <g
     id="g1713">
    <path
       style="font-size:12.000000;fill:none;fill-opacity:1.0000000;fill-rule:evenodd;stroke:#ffffff;stroke-width:8.1250000;stroke-linecap:round;stroke-linejoin:round;stroke-miterlimit:4.0000000;stroke-opacity:1.0000000;"
       d="M 19.752211,46.032528 C 7.0257340,55.313694 7.0257340,55.313694 7.0257340,55.313694 L 14.867379,41.646640 L 19.752211,46.032528 z "
       id="path1075" />
    <rect
       style="font-size:12.000000;fill:none;fill-opacity:1.0000000;fill-rule:evenodd;stroke:#ffffff;stroke-width:8.1250105;stroke-linecap:round;stroke-linejoin:round;stroke-miterlimit:4.0000000;stroke-opacity:1.0000000;"
       transform="matrix(-0.740897,-0.671619,0.669892,-0.742458,0.000000,0.000000)"
       height="46.570351"
       width="6.4665933"
       y="-20.823778"
       x="-45.457779"
       id="rect1076" />
    <path
       style="font-size:12.000000;fill:none;fill-opacity:1.0000000;fill-rule:evenodd;stroke:#ffffff;stroke-width:8.1250000;stroke-linecap:round;stroke-linejoin:round;stroke-miterlimit:4.0000000;stroke-opacity:1.0000000;"
       d="M 49.611116,10.417474 C 50.445520,11.173856 51.716334,11.118816 52.460474,10.294068 C 53.204614,9.4693193 53.131947,8.1964227 52.297544,7.4400409 L 49.848011,5.2195554 C 49.013607,4.4631736 47.742793,4.5182138 46.998653,5.3429621 C 46.254514,6.1677105 46.327180,7.4406072 47.161584,8.1969889 L 49.611116,10.417474 z "
       id="path1078" />
  </g>
  <g
     style="font-size:12.000000"
     transform="matrix(0.986787,0.000000,0.000000,0.989098,0.348427,-5.186479e-2)"
     id="g1540">
    <path
       style="fill:#000000;fill-opacity:1.0000000;fill-rule:evenodd;stroke:#000000;stroke-width:1.5370646;stroke-linecap:round;stroke-linejoin:round;stroke-opacity:1.0000000"
       d="M 64.489320,23.609090 C 66.078950,16.023660 66.078950,16.023660 66.078950,16.023660 L 67.718690,23.593720 L 64.489320,23.609090 z "
       transform="matrix(-1.526311,-1.380359,1.380359,-1.526311,85.50534,171.6455)"
       id="path599" />
    <rect
       style="fill:#ffffff;fill-opacity:1.0000000;fill-rule:evenodd;stroke:#000000;stroke-width:1.5370646;stroke-linecap:round;stroke-linejoin:round;stroke-opacity:1.0000000"
       transform="matrix(-1.526311,-1.380359,1.380359,-1.526311,85.50534,171.6455)"
       height="22.903370"
       width="3.1810234"
       y="23.616812"
       x="64.511154"
       id="rect598" />
    <path
       style="fill:#000000;fill-opacity:1.0000000;fill-rule:evenodd;stroke:#000000;stroke-width:2.3361909;stroke-linecap:round;stroke-linejoin:round;stroke-opacity:1.0000000"
       d="M 61.966340,18.726220 C 61.966340,19.068630 61.688440,19.346520 61.346040,19.346520 C 61.003630,19.346520 60.725740,19.068630 60.725740,18.726220 C 60.725740,18.383820 61.003630,18.105920 61.346040,18.105920 C 61.688440,18.105920 61.966340,18.383820 61.966340,18.726220 z "
       transform="matrix(-1.004215,-0.908187,0.908187,-1.004215,54.56672,126.9005)"
       id="path600" />
    <path
       style="fill:#ffffff;fill-opacity:1.0000000;fill-rule:evenodd;stroke:#000000;stroke-width:1.5370646;stroke-linecap:round;stroke-linejoin:round;stroke-opacity:1.0000000"
       d="M 65.320300,46.448840 C 64.766300,46.448840 64.320300,46.888650 64.320300,47.434960 C 64.320300,47.981270 64.766300,48.421080 65.320300,48.421080 L 66.946660,48.421080 C 67.500660,48.421080 67.946660,47.981270 67.946660,47.434960 C 67.946660,46.888650 67.500660,46.448840 66.946660,46.448840 L 65.320300,46.448840 z "
       transform="matrix(-1.526311,-1.380359,1.380359,-1.526311,85.50534,171.6455)"
       id="rect601" />
  </g>
  <metadata
     id="metadata12">
    <RDF
       id="RDF13">
      <Work
         about=""
         id="Work14">
        <format
           id="format15">image/svg+xml</format>
        <type
           id="type17"
           resource="http://purl.org/dc/dcmitype/StillImage" />
      </Work>
    </RDF>
    <rdf:RDF
       id="RDF19">
      <cc:Work
         rdf:about=""
         id="Work20">
        <dc:format
           id="format21">image/svg+xml</dc:format>
        <dc:type
           id="type23"
           rdf:resource="http://purl.org/dc/dcmitype/StillImage" />
      </cc:Work>
    </rdf:RDF>
  </metadata>
</svg>
