<?xml version="1.0" encoding="UTF-8" standalone="no"?>
<!DOCTYPE svg PUBLIC "-//W3C//DTD SVG 20010904//EN"
"http://www.w3.org/TR/2001/REC-SVG-20010904/DTD/svg10.dtd">
<svg
   height="60"
   width="60"
   _SVGFile__filename="oldscale/actions/player_record.svg"
   version="1.0"
   y="0"
   x="0"
   id="svg1"
   sodipodi:version="0.32"
   inkscape:version="0.40"
   sodipodi:docname="button.svg"
   sodipodi:docbase="/home/danny/work/flat/SVG/mono/scalable/actions"
   xmlns="http://www.w3.org/2000/svg"
   xmlns:cc="http://web.resource.org/cc/"
   xmlns:inkscape="http://www.inkscape.org/namespaces/inkscape"
   xmlns:sodipodi="http://sodipodi.sourceforge.net/DTD/sodipodi-0.dtd"
   xmlns:rdf="http://www.w3.org/1999/02/22-rdf-syntax-ns#"
   xmlns:dc="http://purl.org/dc/elements/1.1/"
   xmlns:xlink="http://www.w3.org/1999/xlink">
  <sodipodi:namedview
     id="base"
     pagecolor="#ffffff"
     bordercolor="#666666"
     borderopacity="1.0"
     inkscape:pageopacity="0.0"
     inkscape:pageshadow="2"
     inkscape:zoom="4.5544063"
     inkscape:cx="47.217792"
     inkscape:cy="17.274806"
     inkscape:window-width="1024"
     inkscape:window-height="698"
     inkscape:window-x="0"
     inkscape:window-y="0"
     inkscape:current-layer="svg1" />
  <defs
     id="defs3" />
  <metadata
     id="metadata6">
    <rdf:RDF
       id="RDF6">
      <Work
         rdf:about=""
         id="Work7">
        <dc:title
           id="title8">Part of the Flat Icon Collection (Thu Aug 26 14:38:01 2004)</dc:title>
        <dc:description
           id="description10" />
        <dc:subject
           id="subject11">
          <rdf:Bag
             id="Bag12">
            <rdf:li
               id="li13" />
          </rdf:Bag>
        </dc:subject>
        <dc:publisher
           id="publisher14">
          <Agent
             rdf:about=""
             id="Agent15">
            <dc:title
               id="title16" />
          </Agent>
        </dc:publisher>
        <dc:creator
           id="creator17">
          <Agent
             rdf:about=""
             id="Agent18">
            <dc:title
               id="title19">Danny Allen</dc:title>
          </Agent>
        </dc:creator>
        <dc:rights
           id="rights21">
          <Agent
             rdf:about=""
             id="Agent22">
            <dc:title
               id="title23">Danny Allen</dc:title>
          </Agent>
        </dc:rights>
        <dc:date
           id="date25" />
        <dc:format
           id="format26">image/svg+xml</dc:format>
        <dc:type
           rdf:resource="http://purl.org/dc/dcmitype/StillImage"
           id="type28" />
        <license
           rdf:resource="http://creativecommons.org/licenses/LGPL/2.1/"
           id="license29">
          <dc:date
             id="date30" />
        </license>
        <dc:language
           id="language31">en</dc:language>
      </Work>
      <cc:Work
         rdf:about=""
         id="Work34">
        <dc:format
           id="format35">image/svg+xml</dc:format>
        <dc:type
           id="type37"
           rdf:resource="http://purl.org/dc/dcmitype/StillImage" />
      </cc:Work>
    </rdf:RDF>
  </metadata>
  <path
     style="color:#000000;fill:none;fill-opacity:1.0000000;fill-rule:nonzero;stroke:#ffffff;stroke-width:10.000000;stroke-linecap:round;stroke-linejoin:round;stroke-miterlimit:4.0000000;stroke-dashoffset:0.0000000;stroke-opacity:1.0000000;marker:none;marker-start:none;marker-mid:none;marker-end:none;visibility:visible;display:block;stroke-dasharray:none;"
     d="M 8.0419640,16.248069 L 51.958036,16.248069 C 53.296824,16.248069 54.374622,17.325036 54.374622,18.662792 L 54.374622,41.337209 C 54.374622,42.674965 53.296824,43.751932 51.958036,43.751932 L 8.0419640,43.751932 C 6.7031753,43.751932 5.6253779,42.674965 5.6253779,41.337209 L 5.6253779,18.662792 C 5.6253779,17.325036 6.7031753,16.248069 8.0419640,16.248069 z "
     id="path1716" />
  <path
     style="color:#000000;fill:#ffffff;fill-opacity:1.0000000;fill-rule:nonzero;stroke:#000000;stroke-width:5.0000038;stroke-linecap:round;stroke-linejoin:round;stroke-miterlimit:4.0000000;stroke-dashoffset:0.0000000;stroke-opacity:1.0000000;marker:none;marker-start:none;marker-mid:none;marker-end:none;visibility:visible;display:block"
     d="M 8.0419640,16.248069 L 51.958036,16.248069 C 53.296824,16.248069 54.374622,17.325036 54.374622,18.662792 L 54.374622,41.337209 C 54.374622,42.674965 53.296824,43.751932 51.958036,43.751932 L 8.0419640,43.751932 C 6.7031753,43.751932 5.6253779,42.674965 5.6253779,41.337209 L 5.6253779,18.662792 C 5.6253779,17.325036 6.7031753,16.248069 8.0419640,16.248069 z "
     id="rect1089" />
  <path
     transform="matrix(1.836281,0.000000,0.000000,1.836281,-6.820662,-28.41123)"
     style="font-size:12.000000;font-style:normal;font-variant:normal;font-weight:bold;font-stretch:normal;fill:#000000;fill-opacity:1.0000000;stroke:none;stroke-width:1.0000000pt;stroke-linecap:butt;stroke-linejoin:miter;stroke-opacity:1.0000000;font-family:VAG Rounded Black SSi;text-anchor:start;writing-mode:lr"
     d="M 16.254883,27.303665 C 16.879878,27.303674 17.452143,27.409143 17.971680,27.620071 C 18.495110,27.831017 18.938469,28.131798 19.301758,28.522415 C 19.668937,28.913047 19.952140,29.389609 20.151367,29.952103 C 20.354484,30.510702 20.456046,31.127889 20.456055,31.803665 C 20.456046,32.479450 20.354484,33.098590 20.151367,33.661087 C 19.952140,34.223589 19.668937,34.702104 19.301758,35.096634 C 18.938469,35.487260 18.495110,35.788040 17.971680,35.998978 C 17.452143,36.209915 16.879878,36.315384 16.254883,36.315384 C 15.629879,36.315384 15.057614,36.209915 14.538086,35.998978 C 14.018552,35.788040 13.573240,35.485306 13.202148,35.090775 C 12.834960,34.696245 12.551757,34.219683 12.352539,33.661087 C 12.153320,33.098590 12.053711,32.479450 12.053711,31.803665 C 12.053711,31.127889 12.153320,30.510702 12.352539,29.952103 C 12.555663,29.389609 12.840819,28.913047 13.208008,28.522415 C 13.575194,28.131798 14.018552,27.831017 14.538086,27.620071 C 15.057614,27.409143 15.629879,27.303674 16.254883,27.303665 M 16.254883,29.114212 C 15.782223,29.114219 15.385739,29.239219 15.065430,29.489212 C 14.745114,29.739218 14.510739,30.071249 14.362305,30.485306 C 14.213865,30.895467 14.139646,31.334920 14.139648,31.803665 C 14.139646,32.276325 14.213865,32.719684 14.362305,33.133743 C 14.510739,33.547808 14.745114,33.879839 15.065430,34.129837 C 15.385739,34.379839 15.782223,34.504839 16.254883,34.504837 C 16.727534,34.504839 17.122065,34.381792 17.438477,34.135696 C 17.758783,33.885699 17.993158,33.557574 18.141602,33.151321 C 18.290033,32.741169 18.364251,32.291950 18.364258,31.803665 C 18.364251,31.319295 18.290033,30.873983 18.141602,30.467728 C 17.993158,30.061484 17.758783,29.735312 17.438477,29.489212 C 17.122065,29.239219 16.727534,29.114219 16.254883,29.114212 M 21.176758,35.149368 L 21.176758,28.463821 C 21.176757,28.127892 21.266601,27.870080 21.446289,27.690384 C 21.625976,27.510705 21.860350,27.420861 22.149414,27.420853 C 22.442381,27.420861 22.676756,27.508752 22.852539,27.684525 C 23.032224,27.860314 23.122068,28.120079 23.122070,28.463821 L 23.122070,30.866165 L 25.793945,27.913040 C 25.969721,27.713830 26.124018,27.582971 26.256836,27.520462 C 26.389643,27.454064 26.540033,27.420861 26.708008,27.420853 C 26.938470,27.420861 27.157220,27.516564 27.364258,27.707962 C 27.575188,27.895470 27.680657,28.116173 27.680664,28.370071 C 27.680657,28.616173 27.551751,28.875938 27.293945,29.149368 L 24.979492,31.504837 L 27.510742,34.276321 C 27.702141,34.479448 27.838860,34.647417 27.920898,34.780228 C 28.006829,34.909135 28.049797,35.055619 28.049805,35.219681 C 28.049797,35.524369 27.952141,35.762650 27.756836,35.934525 C 27.561517,36.106400 27.319329,36.192337 27.030273,36.192337 C 26.909173,36.192337 26.793939,36.168899 26.684570,36.122025 C 26.579096,36.075150 26.473627,36.008743 26.368164,35.922806 C 26.262690,35.832962 26.166987,35.741166 26.081055,35.647415 C 25.995112,35.549759 25.911128,35.456010 25.829102,35.366165 L 23.122070,32.295853 L 23.122070,35.149368 C 23.122068,35.489213 23.032224,35.748978 22.852539,35.928665 C 22.676756,36.104446 22.442381,36.192337 22.149414,36.192337 C 21.864257,36.192337 21.629882,36.102493 21.446289,35.922806 C 21.266601,35.739212 21.176757,35.481400 21.176758,35.149368"
     id="text1712" />
</svg>
