<?xml version="1.0" encoding="UTF-8" standalone="no"?>
<!DOCTYPE svg PUBLIC "-//W3C//DTD SVG 20010904//EN"
"http://www.w3.org/TR/2001/REC-SVG-20010904/DTD/svg10.dtd">
<svg
   height="60"
   width="60"
   _SVGFile__filename="oldscale/actions/filterstop.svg"
   version="1.0"
   y="0"
   x="0"
   id="svg1"
   sodipodi:version="0.32"
   inkscape:version="0.40"
   sodipodi:docname="filterstop.svg"
   sodipodi:docbase="/home/danny/work/flat/SVG/mono/scalable/actions"
   xmlns="http://www.w3.org/2000/svg"
   xmlns:cc="http://web.resource.org/cc/"
   xmlns:inkscape="http://www.inkscape.org/namespaces/inkscape"
   xmlns:sodipodi="http://sodipodi.sourceforge.net/DTD/sodipodi-0.dtd"
   xmlns:rdf="http://www.w3.org/1999/02/22-rdf-syntax-ns#"
   xmlns:dc="http://purl.org/dc/elements/1.1/"
   xmlns:xlink="http://www.w3.org/1999/xlink">
  <sodipodi:namedview
     id="base"
     pagecolor="#ffffff"
     bordercolor="#666666"
     borderopacity="1.0"
     inkscape:pageopacity="0.0"
     inkscape:pageshadow="2"
     inkscape:zoom="8.1433143"
     inkscape:cx="0.037670497"
     inkscape:cy="26.208191"
     inkscape:window-width="1024"
     inkscape:window-height="699"
     inkscape:window-x="0"
     inkscape:window-y="0"
     inkscape:current-layer="svg1" />
  <defs
     id="defs3">
    <linearGradient
       id="linearGradient900">
      <stop
         style="stop-color: #000000;stop-opacity: 1.0;"
         id="stop901"
         offset="0" />
      <stop
         style="stop-color:#ffffff;stop-opacity:1;"
         id="stop902"
         offset="1" />
    </linearGradient>
    <linearGradient
       xlink:href="#linearGradient900"
       id="linearGradient903" />
    <linearGradient
       xlink:href="#linearGradient900"
       id="linearGradient904" />
    <linearGradient
       xlink:href="#linearGradient900"
       id="linearGradient905" />
    <linearGradient
       xlink:href="#linearGradient900"
       id="linearGradient906" />
    <linearGradient
       xlink:href="#linearGradient900"
       id="linearGradient907" />
  </defs>
  <metadata
     id="metadata16">
    <RDF
       id="RDF17">
      <Work
         about=""
         id="Work18">
        <title
           id="title19">Part of the Flat Icon Collection (Thu Aug 26 14:38:01 2004)</title>
        <description
           id="description21" />
        <subject
           id="subject22">
          <Bag
             id="Bag23">
            <li
               id="li24" />
          </Bag>
        </subject>
        <publisher
           id="publisher25">
          <Agent
             about=""
             id="Agent26">
            <title
               id="title27" />
          </Agent>
        </publisher>
        <creator
           id="creator28">
          <Agent
             about=""
             id="Agent29">
            <title
               id="title30">Danny Allen</title>
          </Agent>
        </creator>
        <rights
           id="rights32">
          <Agent
             about=""
             id="Agent33">
            <title
               id="title34">Danny Allen</title>
          </Agent>
        </rights>
        <date
           id="date36" />
        <format
           id="format37">image/svg+xml</format>
        <type
           id="type39"
           resource="http://purl.org/dc/dcmitype/StillImage" />
        <license
           id="license40"
           resource="http://creativecommons.org/licenses/LGPL/2.1/">
          <date
             id="date41" />
        </license>
        <language
           id="language42">en</language>
      </Work>
    </RDF>
    <rdf:RDF
       id="RDF45">
      <cc:Work
         rdf:about=""
         id="Work46">
        <dc:format
           id="format47">image/svg+xml</dc:format>
        <dc:type
           id="type49"
           rdf:resource="http://purl.org/dc/dcmitype/StillImage" />
      </cc:Work>
    </rdf:RDF>
  </metadata>
  <path
     style="font-size:12.000000;fill:none;fill-opacity:1.0000000;fill-rule:evenodd;stroke:#ffffff;stroke-width:8.1250000;stroke-linecap:round;stroke-linejoin:round;stroke-miterlimit:4.0000000;stroke-opacity:1.0000000;"
     d="M 26.656250,4.6875000 C 13.943618,4.6875000 3.6250000,7.3892465 3.6250000,10.718750 L 3.6250000,11.375000 L 23.750000,31.968750 L 23.750000,55.312500 L 29.187500,55.312500 L 29.187500,32.093750 L 49.687500,11.375000 C 49.687500,11.375000 49.687500,10.942575 49.687500,10.718750 C 49.687500,7.3892461 39.368892,4.6875002 26.656250,4.6875000 z "
     id="path1101"
     sodipodi:nodetypes="cccccccccc"
     transform="translate(1.062500,0.000000)" />
  <path
     style="fill:#ffffff;fill-opacity:1.0000000;fill-rule:evenodd;stroke:#000000;stroke-width:3.2221420;stroke-linecap:round;stroke-linejoin:round;stroke-opacity:1.0000000;font-size:12.000000;"
     d="M 26.573460,56.546980 L 26.573460,32.487880 L 5.8379960,11.274010 L 53.311310,11.274010 L 32.166590,32.623040 L 32.166590,56.563370 L 26.573460,56.546980 z "
     id="path986"
     transform="matrix(0.970113,0.000000,0.000000,0.970113,-0.969232,0.441778)" />
  <path
     style="fill:#ffffff;fill-opacity:1.0000000;fill-rule:evenodd;stroke:#000000;stroke-width:2.5497794;stroke-linejoin:round;stroke-opacity:1.0000000;font-size:12.000000;"
     d="M 51.405340,10.885000 C 51.405340,13.273050 41.828680,15.211190 30.028860,15.211190 C 18.229050,15.211190 8.6523840,13.273050 8.6523840,10.885000 C 8.6523840,8.4969390 18.229050,6.5588060 30.028860,6.5588060 C 41.828680,6.5588060 51.405340,8.4969390 51.405340,10.885000 z "
     transform="matrix(1.077359,0.000000,0.000000,1.394229,-4.630341,-4.459537)"
     id="path987" />
  <path
     style="fill:#000000;fill-opacity:1.0000000;fill-rule:evenodd;stroke:none;stroke-width:1.4683129;stroke-linecap:round;stroke-linejoin:round;stroke-opacity:1.0000000;font-size:12.000000;"
     d="M 43.726840,10.964750 C 43.726840,11.809060 37.358200,12.494290 29.511120,12.494290 C 21.664040,12.494290 15.295400,11.809060 15.295400,10.964750 C 15.295400,10.120450 21.664040,9.4352130 29.511120,9.4352130 C 37.358200,9.4352130 43.726840,10.120450 43.726840,10.964750 z "
     transform="matrix(1.099052,0.000000,0.000000,1.483701,-4.712725,-5.551779)"
     id="path988" />
  <g
     id="g1725"
     transform="translate(-0.330844,-0.330844)">
    <path
       style="font-size:12.000000;fill:none;fill-opacity:1.0000000;fill-rule:evenodd;stroke:#ffffff;stroke-width:6.8750014;stroke-linecap:round;stroke-linejoin:round;stroke-miterlimit:4.0000000;stroke-opacity:1.0000000"
       d="M 37.252475,36.536756 C 37.006309,36.527014 36.821762,36.593955 36.697929,36.720617 C 35.823480,37.615084 38.571700,41.772669 42.893552,46.409815 C 38.571700,51.046970 35.823480,55.204555 36.697929,56.099023 C 37.575180,56.996346 41.735061,54.239577 46.392930,49.903084 C 51.050799,54.239577 55.229812,56.996346 56.107054,56.099023 C 56.981503,55.204555 54.214160,51.046970 49.892308,46.409815 C 54.214160,41.772669 56.981503,37.615084 56.107054,36.720617 C 55.229812,35.823293 51.050808,38.580063 46.392930,42.916556 C 42.392526,39.192169 38.750318,36.596061 37.252475,36.536756 z "
       id="path1736" />
    <path
       style="font-size:12.000000;fill:#000000;fill-opacity:1.0000000;fill-rule:evenodd;stroke:#000000;stroke-width:1.8750004;stroke-linecap:round;stroke-linejoin:round;stroke-opacity:1.0000000"
       d="M 37.252475,36.536756 C 37.006309,36.527014 36.821762,36.593955 36.697929,36.720617 C 35.823480,37.615084 38.571700,41.772669 42.893552,46.409815 C 38.571700,51.046970 35.823480,55.204555 36.697929,56.099023 C 37.575180,56.996346 41.735061,54.239577 46.392930,49.903084 C 51.050799,54.239577 55.229812,56.996346 56.107054,56.099023 C 56.981503,55.204555 54.214160,51.046970 49.892308,46.409815 C 54.214160,41.772669 56.981503,37.615084 56.107054,36.720617 C 55.229812,35.823293 51.050808,38.580063 46.392930,42.916556 C 42.392526,39.192169 38.750318,36.596061 37.252475,36.536756 z "
       id="path1602" />
  </g>
</svg>
