<?xml version="1.0" encoding="UTF-8" standalone="no"?>
<!DOCTYPE svg PUBLIC "-//W3C//DTD SVG 20010904//EN"
"http://www.w3.org/TR/2001/REC-SVG-20010904/DTD/svg10.dtd">
<svg
   height="60"
   width="60"
   _SVGFile__filename="oldscale/devices/3floppy_mount.svg"
   version="1.0"
   y="0"
   x="0"
   id="svg1"
   sodipodi:version="0.32"
   inkscape:version="0.40"
   sodipodi:docname="filesaveas.svg"
   sodipodi:docbase="/home/danny/work/flat/SVG/mono/scalable/actions"
   xmlns="http://www.w3.org/2000/svg"
   xmlns:cc="http://web.resource.org/cc/"
   xmlns:inkscape="http://www.inkscape.org/namespaces/inkscape"
   xmlns:sodipodi="http://sodipodi.sourceforge.net/DTD/sodipodi-0.dtd"
   xmlns:rdf="http://www.w3.org/1999/02/22-rdf-syntax-ns#"
   xmlns:dc="http://purl.org/dc/elements/1.1/"
   xmlns:xlink="http://www.w3.org/1999/xlink">
  <sodipodi:namedview
     id="base"
     pagecolor="#ffffff"
     bordercolor="#666666"
     borderopacity="1.0"
     inkscape:pageopacity="0.0000000"
     inkscape:pageshadow="2"
     inkscape:zoom="5.5764011"
     inkscape:cx="27.969735"
     inkscape:cy="30.889924"
     inkscape:window-width="1024"
     inkscape:window-height="698"
     inkscape:window-x="0"
     inkscape:window-y="0"
     inkscape:current-layer="svg1" />
  <defs
     id="defs3" />
  <metadata
     id="metadata9">
    <RDF
       id="RDF10">
      <Work
         about=""
         id="Work11">
        <format
           id="format12">image/svg+xml</format>
        <type
           id="type14"
           resource="http://purl.org/dc/dcmitype/StillImage" />
      </Work>
    </RDF>
    <rdf:RDF
       id="RDF15">
      <cc:Work
         rdf:about=""
         id="Work16">
        <dc:format
           id="format17">image/svg+xml</dc:format>
        <dc:type
           id="type19"
           rdf:resource="http://purl.org/dc/dcmitype/StillImage" />
      </cc:Work>
    </rdf:RDF>
  </metadata>
  <path
     id="path1132"
     style="font-size:12.000000;fill:none;fill-rule:evenodd;stroke:#ffffff;stroke-width:8.1250000;stroke-linecap:round;stroke-linejoin:round;stroke-miterlimit:4.0000000;stroke-opacity:1.0000000;stroke-dasharray:none;"
     d="M 7.6819120,4.6856520 C 6.5334212,4.6856520 5.6088240,5.6102492 5.6088240,6.7587400 L 5.6088240,53.241260 C 5.6088240,54.389751 6.5334212,55.314348 7.6819120,55.314348 L 52.318088,55.314348 C 53.466579,55.314348 54.391176,54.389751 54.391176,53.241260 L 54.391176,11.520364 L 47.524072,4.6856520 L 7.6819120,4.6856520 z " />
  <path
     id="path1133"
     style="font-size:12.000000;fill:#ffffff;fill-opacity:1.0000000;fill-rule:evenodd;stroke-width:1.0000000;stroke-linecap:round;stroke-linejoin:round;"
     d="M 8.3750000,6.0625000 C 7.2670000,6.0625000 6.3750000,6.9545000 6.3750000,8.0625000 L 6.3750000,52.906250 C 6.3750000,54.014250 7.2670000,54.906250 8.3750000,54.906250 L 51.437500,54.906250 C 52.545500,54.906250 53.437500,54.014250 53.437500,52.906250 L 53.437500,12.656250 L 46.812500,6.0625000 L 8.3750000,6.0625000 z "
     transform="matrix(1.036544,0.000000,0.000000,1.036544,-0.999136,-1.598388)" />
  <g
     id="g1077"
     transform="matrix(-1.000000,0.000000,0.000000,1.000000,57.37110,0.000000)">
    <path
       style="font-size:12.000000;fill:#ffffff;fill-opacity:1.0000000;fill-rule:evenodd;stroke:#000000;stroke-width:2.5550528;stroke-linecap:round;stroke-linejoin:round;stroke-opacity:1.0000000"
       d="M 15.913560,4.6592130 L 15.913560,17.901130 C 15.913560,19.254170 17.102330,20.343440 18.578970,20.343440 L 36.487180,20.343440 C 37.963820,20.343440 39.152590,19.254170 39.152590,17.901130 L 39.152590,4.6592130"
       id="path1135"
       transform="matrix(0.978453,0.000000,0.000000,0.978453,0.431270,0.251887)" />
    <path
       style="font-size:12.000000;fill:#000000;fill-opacity:1.0000000;fill-rule:evenodd;stroke-width:1.2500000;stroke-linecap:round;stroke-linejoin:round"
       d="M 20.915640,7.9807840 C 20.140510,7.9807840 19.516490,8.6048050 19.516490,9.3799340 L 19.516490,15.622720 C 19.516490,16.397850 20.140510,17.021870 20.915640,17.021870 L 24.704420,17.021870 C 25.479550,17.021870 26.103570,16.397850 26.103570,15.622720 L 26.103570,9.3799340 C 26.103570,8.6048050 25.479550,7.9807840 24.704420,7.9807840 L 20.915640,7.9807840 z "
       id="path1136"
       transform="matrix(0.978453,0.000000,0.000000,0.978453,0.431270,0.251887)" />
  </g>
  <path
     id="path1137"
     style="font-size:12.000000;fill:none;fill-rule:evenodd;stroke:#000000;stroke-width:3.0148256;stroke-linecap:round;stroke-linejoin:round;stroke-opacity:1.0000000;"
     d="M 8.3750000,6.0625000 C 7.2670000,6.0625000 6.3750000,6.9545000 6.3750000,8.0625000 L 6.3750000,52.906250 C 6.3750000,54.014250 7.2670000,54.906250 8.3750000,54.906250 L 51.437500,54.906250 C 52.545500,54.906250 53.437500,54.014250 53.437500,52.906250 L 53.437500,12.656250 L 46.812500,6.0625000 L 8.3750000,6.0625000 z "
     transform="matrix(1.036544,0.000000,0.000000,1.036544,-0.999136,-1.598388)" />
  <path
     style="font-size:12.000000;fill:#000000;fill-opacity:1.0000000;fill-rule:evenodd;stroke-width:1.2500000;stroke-linecap:round;stroke-linejoin:round;"
     d="M 12.658767,25.288357 C 11.531337,25.288357 10.623684,26.196007 10.623684,27.323447 L 10.623684,49.309603 C 10.623684,50.437043 11.531337,51.344693 12.658767,51.344693 L 47.780983,51.344693 C 48.908423,51.344693 49.816073,50.437043 49.816073,49.309603 L 49.816073,27.323447 C 49.816073,26.196007 48.908423,25.288357 47.780983,25.288357 L 12.658767,25.288357 z "
     id="path1138"
     transform="matrix(0.978453,0.000000,0.000000,0.978453,0.431270,0.251887)"
     sodipodi:nodetypes="ccccccccc" />
  <g
     id="g1139"
     transform="translate(1.791891,-1.169176)">
    <path
       id="path862"
       style="font-size:12.000000;fill:#ffffff;fill-opacity:1.0000000;fill-rule:evenodd;stroke:#ffffff;stroke-width:2.4999993;stroke-linecap:round;stroke-linejoin:round;stroke-opacity:1.0000000"
       d="M 36.632286,30.559627 L 41.429690,30.559627 M 39.145217,30.559627 L 39.145217,46.824735 M 36.632286,47.264337 L 41.543910,47.264337" />
    <path
       style="font-size:12.000000;font-style:normal;font-variant:normal;font-weight:bold;font-stretch:normal;fill:#ffffff;fill-opacity:1.0000000;stroke:none;stroke-width:1.0000000pt;stroke-linecap:butt;stroke-linejoin:miter;stroke-opacity:1.0000000;font-family:VAG Rounded Black SSi;text-anchor:start;writing-mode:lr"
       d="M 13.622310,46.187386 C 13.622310,45.798138 13.719622,45.437272 13.914247,45.104786 C 14.116981,44.764196 14.384589,44.492533 14.717075,44.289795 C 15.049556,44.087064 15.410423,43.985697 15.799674,43.985693 C 16.180811,43.985697 16.537623,44.087064 16.870111,44.289795 C 17.202590,44.492533 17.466144,44.764196 17.660775,45.104786 C 17.863503,45.437272 17.964869,45.798138 17.964875,46.187386 C 17.964869,46.584747 17.863503,46.953722 17.660775,47.294314 C 17.466144,47.626799 17.198535,47.890353 16.857947,48.084978 C 16.525460,48.279603 16.172702,48.376915 15.799674,48.376915 C 15.418532,48.376915 15.057665,48.279603 14.717075,48.084978 C 14.384589,47.890353 14.116981,47.626799 13.914247,47.294314 C 13.719622,46.953722 13.622310,46.584747 13.622310,46.187386 M 20.531489,46.187386 C 20.531489,45.798138 20.628802,45.437272 20.823426,45.104786 C 21.026160,44.764196 21.293769,44.492533 21.626254,44.289795 C 21.958736,44.087064 22.319602,43.985697 22.708854,43.985693 C 23.089991,43.985697 23.446802,44.087064 23.779290,44.289795 C 24.111769,44.492533 24.375324,44.764196 24.569954,45.104786 C 24.772682,45.437272 24.874049,45.798138 24.874055,46.187386 C 24.874049,46.584747 24.772682,46.953722 24.569954,47.294314 C 24.375324,47.626799 24.107715,47.890353 23.767127,48.084978 C 23.434639,48.279603 23.081881,48.376915 22.708854,48.376915 C 22.327711,48.376915 21.966845,48.279603 21.626254,48.084978 C 21.293769,47.890353 21.026160,47.626799 20.823426,47.294314 C 20.628802,46.953722 20.531489,46.584747 20.531489,46.187386 M 27.440669,46.187386 C 27.440669,45.798138 27.537981,45.437272 27.732606,45.104786 C 27.935340,44.764196 28.202948,44.492533 28.535433,44.289795 C 28.867915,44.087064 29.228781,43.985697 29.618033,43.985693 C 29.999169,43.985697 30.355982,44.087064 30.688469,44.289795 C 31.020949,44.492533 31.284502,44.764196 31.479134,45.104786 C 31.681861,45.437272 31.783228,45.798138 31.783234,46.187386 C 31.783228,46.584747 31.681861,46.953722 31.479134,47.294314 C 31.284502,47.626799 31.016895,47.890353 30.676306,48.084978 C 30.343818,48.279603 29.991061,48.376915 29.618033,48.376915 C 29.236890,48.376915 28.876024,48.279603 28.535433,48.084978 C 28.202948,47.890353 27.935340,47.626799 27.732606,47.294314 C 27.537981,46.953722 27.440669,46.584747 27.440669,46.187386"
       id="text2426" />
  </g>
</svg>
