<?xml version="1.0" encoding="UTF-8" standalone="no"?>
<!DOCTYPE svg PUBLIC "-//W3C//DTD SVG 20010904//EN"
"http://www.w3.org/TR/2001/REC-SVG-20010904/DTD/svg10.dtd">
<svg
   height="60"
   width="60"
   _SVGFile__filename="oldscale/apps/fax.svg"
   version="1.0"
   y="0"
   x="0"
   id="svg1"
   sodipodi:version="0.32"
   inkscape:version="0.40"
   sodipodi:docname="fax.svg"
   sodipodi:docbase="/home/danny/work/flat/SVG/mono/scalable/apps"
   xmlns="http://www.w3.org/2000/svg"
   xmlns:cc="http://web.resource.org/cc/"
   xmlns:inkscape="http://www.inkscape.org/namespaces/inkscape"
   xmlns:sodipodi="http://sodipodi.sourceforge.net/DTD/sodipodi-0.dtd"
   xmlns:rdf="http://www.w3.org/1999/02/22-rdf-syntax-ns#"
   xmlns:dc="http://purl.org/dc/elements/1.1/"
   xmlns:xlink="http://www.w3.org/1999/xlink">
  <sodipodi:namedview
     id="base"
     pagecolor="#ffffff"
     bordercolor="#666666"
     borderopacity="1.0"
     inkscape:pageopacity="0.0"
     inkscape:pageshadow="2"
     inkscape:zoom="4.8268194"
     inkscape:cx="29.942993"
     inkscape:cy="32.246300"
     inkscape:window-width="1024"
     inkscape:window-height="699"
     inkscape:window-x="0"
     inkscape:window-y="0"
     inkscape:current-layer="svg1" />
  <defs
     id="defs3">
    <linearGradient
       id="linearGradient772">
      <stop
         style="stop-color: #000000;stop-opacity: 1.0;"
         id="stop773"
         offset="0" />
      <stop
         style="stop-color:#ffffff;stop-opacity:1;"
         id="stop774"
         offset="1" />
    </linearGradient>
    <linearGradient
       xlink:href="#linearGradient772"
       id="linearGradient775" />
  </defs>
  <path
     id="path1133"
     style="font-size:12.000000;fill:none;fill-opacity:0.75000000;fill-rule:evenodd;stroke:#ffffff;stroke-width:7.5000000;stroke-linecap:round;stroke-linejoin:round;stroke-miterlimit:4.0000000;stroke-dashoffset:0.0000000;stroke-opacity:1.0000000;"
     d="M 9.2121190,47.466172 C 7.4188430,55.238609 11.738259,56.339206 14.735405,53.870971 C 19.760034,50.168608 21.170449,46.995165 21.170449,46.995165" />
  <path
     style="font-size:12.000000;fill:none;fill-opacity:1.0000000;fill-rule:evenodd;stroke:#ffffff;stroke-width:7.5000000;stroke-linecap:round;stroke-linejoin:round;stroke-miterlimit:4.0000000;stroke-opacity:1.0000000;"
     d="M 17.375000,4.3750000 L 22.750000,18.625000 C 22.947383,19.149120 23.564955,19.593750 24.125000,19.593750 L 46.031250,19.593750 C 46.591300,19.593750 46.853630,19.149119 46.656250,18.625000 L 41.281250,4.3750000 L 17.375000,4.3750000 z M 9.7187500,20.281250 C 7.6958960,20.336345 5.6695810,21.257029 5.3437500,22.843750 C 4.1490440,30.160318 4.1475140,40.723030 5.1250000,45.218750 C 5.6680470,49.185558 13.406248,48.309647 13.406250,45.312500 C 13.373040,43.762578 13.423081,43.091249 13.406250,41.843750 L 19.156250,41.843750 C 19.385361,41.843750 19.562502,41.666611 19.562500,41.437500 L 19.562500,27.218750 C 19.562500,26.989639 19.385364,26.812500 19.156250,26.812500 L 13.875000,26.812500 C 13.982540,25.470830 14.003625,24.640806 14.156250,22.937500 C 13.776117,21.042249 11.741604,20.226155 9.7187500,20.281250 z M 24.812500,44.562500 C 24.265181,44.562502 23.962638,44.988089 24.156250,45.500000 L 27.625000,54.687500 C 27.818620,55.199443 28.421430,55.625000 28.968750,55.625000 L 50.375000,55.625000 C 50.922320,55.625001 51.224870,55.199444 51.031250,54.687500 L 47.531250,45.500000 C 47.337640,44.988090 46.734820,44.562500 46.187500,44.562500 L 24.812500,44.562500 z "
     id="path1134" />
  <path
     style="font-size:12.000000;fill:none;fill-opacity:1.0000000;fill-rule:evenodd;stroke:#ffffff;stroke-width:8.1250000;stroke-linecap:round;stroke-linejoin:round;stroke-miterlimit:4.0000000;stroke-opacity:1.0000000;"
     d="M 20.371346,18.656797 C 19.518543,18.656797 18.831992,19.343348 18.831992,20.196151 L 18.831992,45.206806 C 18.831992,46.059605 19.518543,46.746160 20.371346,46.746160 L 53.718190,46.746160 C 54.570990,46.746160 55.257540,46.059605 55.257540,45.206806 L 55.257540,20.196151 C 55.257540,19.343348 54.570990,18.656797 53.718190,18.656797 L 20.371346,18.656797 z "
     id="path1137" />
  <g
     id="g1111"
     transform="matrix(0.979754,0.000000,0.000000,0.979754,0.451271,0.448666)">
    <path
       id="path852"
       style="font-size:12.000000;fill:none;fill-opacity:0.75000000;fill-rule:evenodd;stroke:#000000;stroke-width:2.5516617;stroke-linecap:round;stroke-linejoin:round;stroke-dasharray:2.5516616 2.5516616 ;stroke-dashoffset:0.0000000;stroke-opacity:1.0000000"
       d="M 8.7582480,48.424370 C 6.9279160,56.357420 11.336590,57.480760 14.395670,54.961520 C 19.524130,51.182650 20.963690,47.943630 20.963690,47.943630"
       transform="translate(0.183635,-0.435277)" />
    <path
       style="font-size:12.000000;fill:#ffffff;fill-opacity:1.0000000;fill-rule:evenodd;stroke:#000000;stroke-width:2.5712647;stroke-linecap:round;stroke-linejoin:round;stroke-opacity:1.0000000"
       d="M 17.687500,10.156250 L 23.218750,24.812500 C 23.421760,25.351560 24.048990,25.812500 24.625000,25.812500 L 47.156250,25.812500 C 47.732260,25.812500 48.015510,25.351560 47.812500,24.812500 L 42.281250,10.156250 L 17.687500,10.156250 z "
       transform="matrix(0.992376,0.000000,0.000000,0.992376,-0.282557,-6.072507)"
       id="path850" />
    <rect
       style="font-size:12.000000;fill:#ffffff;fill-opacity:1.0000000;fill-rule:evenodd;stroke:#000000;stroke-width:7.0212860;stroke-linecap:round;stroke-linejoin:round;stroke-opacity:1.0000000"
       transform="matrix(0.363418,0.000000,0.000000,0.363418,39.40617,6.397579)"
       rx="1.1614833"
       ry="1.1614833"
       height="42.243992"
       width="27.484043"
       y="56.437252"
       x="-82.257736"
       id="rect835" />
    <path
       style="font-size:12.000000;fill:#ffffff;fill-opacity:1.0000000;fill-rule:evenodd;stroke:#000000;stroke-width:7.2599254;stroke-linecap:round;stroke-linejoin:round;stroke-opacity:1.0000000"
       d="M -80.266690,113.66570 C -81.803850,113.66570 -83.041340,114.90320 -83.041340,116.44030 L -83.041340,144.08420 C -83.041340,145.62140 -81.803850,146.85880 -80.266690,146.85880 L -20.159670,146.85880 C -18.622510,146.85880 -17.385020,145.62140 -17.385020,144.08420 L -17.385020,116.44030 C -17.385020,114.90320 -18.622510,113.66570 -20.159670,113.66570 L -80.266690,113.66570 z "
       transform="matrix(0.363418,0.000000,0.128562,0.339919,39.40617,6.397579)"
       id="rect836" />
    <path
       style="font-size:12.000000;fill:#ffffff;fill-opacity:1.0000000;fill-rule:evenodd;stroke:#000000;stroke-width:8.7766075;stroke-linecap:round;stroke-linejoin:round;stroke-opacity:1.0000000"
       d="M -52.486250,33.533890 C -54.881360,33.533890 -56.809550,35.462080 -56.809550,37.857190 L -56.809550,108.10000 C -56.809550,110.49510 -54.881360,112.42330 -52.486250,112.42330 L 41.168870,112.42330 C 43.563970,112.42330 45.492160,110.49510 45.492160,108.10000 L 45.492160,37.857190 C 45.492160,35.462080 43.563970,33.533890 41.168870,33.533890 L -52.486250,33.533890 z "
       transform="matrix(0.363418,0.000000,0.000000,0.363418,39.40617,6.397579)"
       id="rect834" />
    <g
       style="font-size:12.000000"
       transform="translate(0.254482,0.000000)"
       id="g1628">
      <path
         style="fill:#000000;fill-opacity:1.0000000;fill-rule:evenodd;stroke:#000000;stroke-width:1.2758309;stroke-linecap:round;stroke-linejoin:round;stroke-opacity:1.0000000"
         d="M 22.300430,30.120850 C 22.175530,30.120850 22.074970,30.221410 22.074970,30.346310 L 22.074970,33.018330 C 22.074970,33.143230 22.175530,33.243790 22.300430,33.243790 L 27.184540,33.243790 C 27.309440,33.243790 27.409990,33.143230 27.409990,33.018330 L 27.409990,30.346310 C 27.409990,30.221410 27.309440,30.120850 27.184540,30.120850 L 22.300430,30.120850 z "
         transform="translate(0.183635,-0.255331)"
         id="rect838" />
      <path
         style="fill:#000000;fill-opacity:1.0000000;fill-rule:evenodd;stroke:#000000;stroke-width:1.2758309;stroke-linecap:round;stroke-linejoin:round;stroke-opacity:1.0000000"
         d="M 30.171190,30.120850 C 30.046280,30.120850 29.945730,30.221410 29.945730,30.346310 L 29.945730,33.018330 C 29.945730,33.143230 30.046280,33.243790 30.171190,33.243790 L 35.055290,33.243790 C 35.180190,33.243790 35.280750,33.143230 35.280750,33.018330 L 35.280750,30.346310 C 35.280750,30.221410 35.180190,30.120850 35.055290,30.120850 L 30.171190,30.120850 z "
         transform="translate(0.183635,-0.255331)"
         id="rect839" />
      <path
         style="fill:#000000;fill-opacity:1.0000000;fill-rule:evenodd;stroke:#000000;stroke-width:1.2758309;stroke-linecap:round;stroke-linejoin:round;stroke-opacity:1.0000000"
         d="M 38.041940,30.120850 C 37.917030,30.120850 37.816480,30.221410 37.816480,30.346310 L 37.816480,33.018330 C 37.816480,33.143230 37.917030,33.243790 38.041940,33.243790 L 42.926040,33.243790 C 43.050950,33.243790 43.151500,33.143230 43.151500,33.018330 L 43.151500,30.346310 C 43.151500,30.221410 43.050950,30.120850 42.926040,30.120850 L 38.041940,30.120850 z "
         transform="translate(0.183635,-0.255331)"
         id="rect840" />
      <path
         style="fill:#000000;fill-opacity:1.0000000;fill-rule:evenodd;stroke:#000000;stroke-width:1.2758309;stroke-linecap:round;stroke-linejoin:round;stroke-opacity:1.0000000"
         d="M 22.300430,35.469720 C 22.175530,35.469720 22.074970,35.570270 22.074970,35.695180 L 22.074970,38.367200 C 22.074970,38.492100 22.175530,38.592660 22.300430,38.592660 L 27.184540,38.592660 C 27.309440,38.592660 27.409990,38.492100 27.409990,38.367200 L 27.409990,35.695180 C 27.409990,35.570270 27.309440,35.469720 27.184540,35.469720 L 22.300430,35.469720 z "
         transform="translate(0.183635,-0.255331)"
         id="rect841" />
      <path
         style="fill:#000000;fill-opacity:1.0000000;fill-rule:evenodd;stroke:#000000;stroke-width:1.2758309;stroke-linecap:round;stroke-linejoin:round;stroke-opacity:1.0000000"
         d="M 30.171190,35.469720 C 30.046280,35.469720 29.945730,35.570270 29.945730,35.695180 L 29.945730,38.367200 C 29.945730,38.492100 30.046280,38.592660 30.171190,38.592660 L 35.055290,38.592660 C 35.180190,38.592660 35.280750,38.492100 35.280750,38.367200 L 35.280750,35.695180 C 35.280750,35.570270 35.180190,35.469720 35.055290,35.469720 L 30.171190,35.469720 z "
         transform="translate(0.183635,-0.255331)"
         id="rect842" />
      <path
         style="fill:#000000;fill-opacity:1.0000000;fill-rule:evenodd;stroke:#000000;stroke-width:1.2758309;stroke-linecap:round;stroke-linejoin:round;stroke-opacity:1.0000000"
         d="M 38.041940,35.469720 C 37.917030,35.469720 37.816480,35.570270 37.816480,35.695180 L 37.816480,38.367200 C 37.816480,38.492100 37.917030,38.592660 38.041940,38.592660 L 42.926040,38.592660 C 43.050950,38.592660 43.151500,38.492100 43.151500,38.367200 L 43.151500,35.695180 C 43.151500,35.570270 43.050950,35.469720 42.926040,35.469720 L 38.041940,35.469720 z "
         transform="translate(0.183635,-0.255331)"
         id="rect843" />
      <path
         style="fill:#000000;fill-opacity:1.0000000;fill-rule:evenodd;stroke:#000000;stroke-width:1.2758309;stroke-linecap:round;stroke-linejoin:round;stroke-opacity:1.0000000"
         d="M 24.729700,39.918860 C 24.604800,39.918860 24.504240,40.019410 24.504240,40.144320 L 24.504240,42.816340 C 24.504240,42.941240 24.604800,43.041800 24.729700,43.041800 L 29.613800,43.041800 C 29.738710,43.041800 29.839270,42.941240 29.839270,42.816340 L 29.839270,40.144320 C 29.839270,40.019410 29.738710,39.918860 29.613800,39.918860 L 24.729700,39.918860 z "
         transform="translate(-2.245634,0.644398)"
         id="rect844" />
      <path
         style="fill:#000000;fill-opacity:1.0000000;fill-rule:evenodd;stroke:#000000;stroke-width:1.2758309;stroke-linecap:round;stroke-linejoin:round;stroke-opacity:1.0000000"
         d="M 31.070910,39.918860 C 30.946010,39.918860 30.845460,40.019410 30.845460,40.144320 L 30.845460,42.816340 C 30.845460,42.941240 30.946010,43.041800 31.070910,43.041800 L 35.955020,43.041800 C 36.079920,43.041800 36.180480,42.941240 36.180480,42.816340 L 36.180480,40.144320 C 36.180480,40.019410 36.079920,39.918860 35.955020,39.918860 L 31.070910,39.918860 z "
         transform="translate(-0.716094,0.644398)"
         id="rect845" />
      <path
         style="fill:#000000;fill-opacity:1.0000000;fill-rule:evenodd;stroke:#000000;stroke-width:1.2758309;stroke-linecap:round;stroke-linejoin:round;stroke-opacity:1.0000000"
         d="M 37.412130,39.918860 C 37.287220,39.918860 37.186670,40.019410 37.186670,40.144320 L 37.186670,42.816340 C 37.186670,42.941240 37.287220,43.041800 37.412130,43.041800 L 42.296230,43.041800 C 42.421140,43.041800 42.521690,42.941240 42.521690,42.816340 L 42.521690,40.144320 C 42.521690,40.019410 42.421140,39.918860 42.296230,39.918860 L 37.412130,39.918860 z "
         transform="translate(0.813446,0.644398)"
         id="rect846" />
    </g>
    <path
       style="font-size:12.000000;fill:#ffffff;fill-opacity:1.0000000;fill-rule:evenodd;stroke:#000000;stroke-width:1.9137462;stroke-linecap:round;stroke-linejoin:round;stroke-opacity:1.0000000"
       d="M 23.655840,22.590290 C 23.295280,22.590290 23.005010,22.880560 23.005010,23.241130 L 23.005010,26.321530 C 23.005010,26.682090 23.295280,26.972360 23.655840,26.972360 L 50.676280,26.972360 C 51.036840,26.972360 51.327120,26.682090 51.327120,26.321530 L 51.327120,23.241130 C 51.327120,22.880560 51.036840,22.590290 50.676280,22.590290 L 23.655840,22.590290 z "
       transform="translate(0.183635,-0.255331)"
       id="rect847" />
    <path
       style="font-size:12.000000;fill:#000000;fill-opacity:1.0000000;fill-rule:evenodd;stroke:#000000;stroke-width:1.2758309;stroke-linecap:round;stroke-linejoin:round;stroke-opacity:1.0000000"
       d="M 52.124020,40.652750 C 52.124020,42.327210 50.765030,43.686200 49.090570,43.686200 C 47.416110,43.686200 46.057120,42.327210 46.057120,40.652750 C 46.057120,38.978290 47.416110,37.619300 49.090570,37.619300 C 50.765030,37.619300 52.124020,38.978290 52.124020,40.652750 z "
       id="path848" />
    <path
       style="font-size:12.000000;fill:#ffffff;fill-opacity:1.0000000;fill-rule:evenodd;stroke:#000000;stroke-width:2.2988112;stroke-linejoin:round;stroke-opacity:1.0000000"
       d="M 4.7685650,24.460690 C 5.3084030,21.221670 11.426560,20.681830 12.056370,24.550660 C 11.336590,34.447690 11.246620,37.056900 11.426560,47.403790 C 11.426560,50.462870 5.0384840,51.362600 4.5886200,47.313820 C 3.7788630,42.725200 3.7788630,31.928450 4.7685650,24.460690 z "
       transform="matrix(1.232082,0.000000,0.000000,1.000000,-0.870049,-1.604925)"
       id="path851" />
    <path
       id="path853"
       style="font-size:24.000000;fill:#000000;fill-opacity:1.0000000;stroke-width:1.0000000;font-family:VAG Rounded Black SSi"
       d="M -6.8225530,5.8193730 L -6.8225530,-8.1728140 C -6.8225530,-8.6884390 -6.6545840,-9.1181270 -6.3186460,-9.4618770 C -5.9827090,-9.8056270 -5.5491150,-9.9775020 -5.0178650,-9.9775020 C -4.4866150,-9.9775020 -4.0569280,-9.8173460 -3.7288030,-9.4970330 C -3.3928650,-9.1767210 -3.2248960,-8.7353140 -3.2248960,-8.1728140 L -3.2248960,-2.9462520 L 2.6813540,-9.2978140 C 3.0954160,-9.7509390 3.5602600,-9.9775020 4.0758850,-9.9775020 C 4.5524470,-9.9775020 4.9665100,-9.8134390 5.3180720,-9.4853140 C 5.6774470,-9.1650020 5.8571350,-8.7431270 5.8571350,-8.2196890 C 5.8571350,-7.9228140 5.7633850,-7.6298460 5.5758850,-7.3407830 C 5.3883850,-7.0595330 5.0876040,-6.7118770 4.6735410,-6.2978140 L 0.13838500,-1.7860960 L 5.6813540,4.0615610 C 6.0016660,4.3662480 6.2477600,4.6631230 6.4196350,4.9521860 C 6.5993220,5.2334360 6.6891660,5.5459360 6.6891660,5.8896860 C 6.6891660,6.4365610 6.5094790,6.8545290 6.1501040,7.1435920 C 5.7907290,7.4248420 5.3454160,7.5654670 4.8141660,7.5654670 C 4.5016660,7.5654670 4.2165100,7.4795290 3.9586970,7.3076540 C 3.7086970,7.1357790 3.3883850,6.8467170 2.9977600,6.4404670 L -3.2248960,-0.35640800 L -3.2248960,5.8193730 C -3.2248960,6.3115610 -3.3928650,6.7256230 -3.7288030,7.0615610 C -4.0647400,7.3974980 -4.4944280,7.5654670 -5.0178650,7.5654670 C -5.5413030,7.5654670 -5.9748960,7.4053110 -6.3186460,7.0849980 C -6.6545840,6.7646860 -6.8225530,6.3428110 -6.8225530,5.8193730 z "
       transform="matrix(0.341351,0.000000,0.114145,0.341351,33.43159,9.881169)" />
    <path
       style="font-size:12.000000;fill:#000000;fill-opacity:1.0000000;fill-rule:evenodd;stroke:#000000;stroke-width:1.3196888;stroke-linecap:round;stroke-linejoin:round;stroke-opacity:1.0000000"
       d="M 37.139200,181.14740 L 52.946280,197.70720 L 78.538550,180.39460 L 98.861910,189.42730 L 105.63630,219.09510 L 127.46510,218.89460 L 133.48680,188.45400 L 153.81010,180.39460 L 179.40240,196.95450 L 191.44590,180.39460 L 162.40180,152.98510 C 87.958940,221.26420 23.628860,116.02940 87.571180,72.003550 L 87.571090,56.196470 L 80.044000,59.960040 L 56.709790,45.126110 L 40.590920,58.363180 L 55.204370,83.294200 L 46.924510,103.61750 L 18.409270,108.35440 L 18.321270,129.96260 L 47.677260,137.48980 L 55.768940,157.24870 L 37.139200,181.14740 z "
       transform="matrix(4.978015e-2,0.000000,1.664611e-2,4.978015e-2,24.67110,5.176924)"
       id="path705" />
  </g>
  <metadata
     id="metadata27">
    <RDF
       id="RDF28">
      <Work
         about=""
         id="Work29">
        <title
           id="title30">Part of the Flat Icon Collection (Thu Aug 26 14:31:40 2004)</title>
        <description
           id="description32" />
        <subject
           id="subject33">
          <Bag
             id="Bag34">
            <li
               id="li35" />
          </Bag>
        </subject>
        <publisher
           id="publisher36">
          <Agent
             about=""
             id="Agent37">
            <title
               id="title38" />
          </Agent>
        </publisher>
        <creator
           id="creator39">
          <Agent
             about=""
             id="Agent40">
            <title
               id="title41">Danny Allen</title>
          </Agent>
        </creator>
        <rights
           id="rights43">
          <Agent
             about=""
             id="Agent44">
            <title
               id="title45">Danny Allen</title>
          </Agent>
        </rights>
        <date
           id="date47" />
        <format
           id="format48">image/svg+xml</format>
        <type
           id="type50"
           resource="http://purl.org/dc/dcmitype/StillImage" />
        <license
           id="license51"
           resource="http://creativecommons.org/licenses/LGPL/2.1/">
          <date
             id="date52" />
        </license>
        <language
           id="language53">en</language>
      </Work>
    </RDF>
    <rdf:RDF
       id="RDF56">
      <cc:Work
         rdf:about=""
         id="Work57">
        <dc:format
           id="format58">image/svg+xml</dc:format>
        <dc:type
           id="type60"
           rdf:resource="http://purl.org/dc/dcmitype/StillImage" />
      </cc:Work>
    </rdf:RDF>
  </metadata>
</svg>
