<?xml version="1.0" encoding="UTF-8" standalone="no"?>
<!DOCTYPE svg PUBLIC "-//W3C//DTD SVG 20010904//EN"
"http://www.w3.org/TR/2001/REC-SVG-20010904/DTD/svg10.dtd">
<svg
   height="60"
   width="60"
   _SVGFile__filename="oldscale/apps/gnome_info.svg"
   version="1.0"
   y="0"
   x="0"
   id="svg1"
   sodipodi:version="0.32"
   inkscape:version="0.40"
   sodipodi:docname="info.svg"
   sodipodi:docbase="/home/danny/work/flat/SVG/mono/scalable/actions"
   xmlns="http://www.w3.org/2000/svg"
   xmlns:cc="http://web.resource.org/cc/"
   xmlns:inkscape="http://www.inkscape.org/namespaces/inkscape"
   xmlns:sodipodi="http://sodipodi.sourceforge.net/DTD/sodipodi-0.dtd"
   xmlns:rdf="http://www.w3.org/1999/02/22-rdf-syntax-ns#"
   xmlns:dc="http://purl.org/dc/elements/1.1/"
   xmlns:xlink="http://www.w3.org/1999/xlink">
  <sodipodi:namedview
     id="base"
     pagecolor="#ffffff"
     bordercolor="#666666"
     borderopacity="1.0"
     inkscape:pageopacity="0.0000000"
     inkscape:pageshadow="2"
     inkscape:zoom="6.8218586"
     inkscape:cx="39.608271"
     inkscape:cy="16.635476"
     inkscape:window-width="1024"
     inkscape:window-height="699"
     inkscape:window-x="0"
     inkscape:window-y="0"
     inkscape:current-layer="svg1" />
  <defs
     id="defs3" />
  <path
     style="font-size:12.000000;fill:none;fill-opacity:1.0000000;fill-rule:evenodd;stroke:#ffffff;stroke-width:8.1250000;stroke-linecap:round;stroke-linejoin:round;stroke-miterlimit:4.0000000;stroke-opacity:1.0000000;"
     d="M 30.000000,4.6871395 C 16.030170,4.6871395 4.6871370,16.030171 4.6871390,30.000000 C 4.6871390,43.969830 16.030170,55.312860 30.000000,55.312860 C 43.969829,55.312860 55.312870,43.969830 55.312860,30.000000 C 55.312860,16.030171 43.969829,4.6871395 30.000000,4.6871395 z "
     id="path1087"
     sodipodi:nodetypes="ccccc" />
  <path
     style="font-size:12.000000;fill:#ffffff;fill-opacity:1.0000000;fill-rule:evenodd;stroke:#000000;stroke-width:3.1250002;stroke-opacity:1.0000000"
     d="M 30.000000,4.6871400 C 16.030170,4.6871400 4.6871370,16.030171 4.6871390,30.000000 C 4.6871390,43.969830 16.030170,55.312860 30.000000,55.312860 C 43.969829,55.312860 55.312870,43.969830 55.312861,30.000000 C 55.312861,16.030171 43.969829,4.6871400 30.000000,4.6871400 z "
     id="path838"
     sodipodi:nodetypes="ccccc" />
  <metadata
     id="metadata5">
    <rdf:RDF
       id="RDF5">
      <Work
         rdf:about=""
         id="Work6">
        <dc:title
           id="title7">Part of the Flat Icon Collection (Thu Aug 26 14:31:40 2004)</dc:title>
        <dc:description
           id="description9" />
        <dc:subject
           id="subject10">
          <rdf:Bag
             id="Bag11">
            <rdf:li
               id="li12" />
          </rdf:Bag>
        </dc:subject>
        <dc:publisher
           id="publisher13">
          <Agent
             rdf:about=""
             id="Agent14">
            <dc:title
               id="title15" />
          </Agent>
        </dc:publisher>
        <dc:creator
           id="creator16">
          <Agent
             rdf:about=""
             id="Agent17">
            <dc:title
               id="title18">Danny Allen</dc:title>
          </Agent>
        </dc:creator>
        <dc:rights
           id="rights20">
          <Agent
             rdf:about=""
             id="Agent21">
            <dc:title
               id="title22">Danny Allen</dc:title>
          </Agent>
        </dc:rights>
        <dc:date
           id="date24" />
        <dc:format
           id="format25">image/svg+xml</dc:format>
        <dc:type
           rdf:resource="http://purl.org/dc/dcmitype/StillImage"
           id="type27" />
        <license
           rdf:resource="http://creativecommons.org/licenses/LGPL/2.1/"
           id="license28">
          <dc:date
             id="date29" />
        </license>
        <dc:language
           id="language30">en</dc:language>
      </Work>
      <cc:Work
         rdf:about=""
         id="Work33">
        <dc:format
           id="format34">image/svg+xml</dc:format>
        <dc:type
           id="type36"
           rdf:resource="http://purl.org/dc/dcmitype/StillImage" />
      </cc:Work>
    </rdf:RDF>
  </metadata>
  <path
     style="font-size:12.000000;fill:#000000;fill-opacity:1.0000000;fill-rule:evenodd;stroke:#000000;stroke-width:1.2500000;stroke-linecap:round;stroke-linejoin:round;stroke-miterlimit:4.0000000;stroke-opacity:1.0000000;stroke-dasharray:none;"
     d="M 30.014464,10.198111 C 31.241979,10.198111 32.268665,10.629782 33.138794,11.499916 C 34.008932,12.370044 34.440599,13.410126 34.440599,14.653174 C 34.440599,15.942833 34.008932,17.038626 33.138794,17.893220 C 32.268665,18.747815 31.241979,19.166096 30.014464,19.166096 C 28.802502,19.166096 27.760271,18.734420 26.890133,17.864291 C 26.020006,16.994163 25.559401,15.911756 25.559401,14.653174 C 25.559401,13.441203 26.020006,12.414515 26.890133,11.528844 C 27.760271,10.643175 28.802502,10.198111 30.014464,10.198111 z M 30.014464,23.592230 C 31.117672,23.592230 31.992253,23.974631 32.675931,24.720461 C 33.375132,25.450749 33.717374,26.365516 33.717374,27.468714 L 33.717374,45.896476 C 33.717374,46.999685 33.375132,47.912294 32.675931,48.673660 C 31.992253,49.419491 31.117672,49.801889 30.014464,49.801889 C 28.926809,49.801889 28.023270,49.419491 27.324069,48.673660 C 26.640391,47.912294 26.282624,46.999674 26.282624,45.896476 L 26.282624,27.468714 C 26.282624,26.365516 26.640391,25.450749 27.324069,24.720461 C 28.023270,23.974631 28.926809,23.592230 30.014464,23.592230 z "
     id="path1089"
     sodipodi:nodetypes="cccccccccccccccccccc" />
</svg>
