<?xml version="1.0" encoding="UTF-8" standalone="no"?>
<!DOCTYPE svg PUBLIC "-//W3C//DTD SVG 20010904//EN"
"http://www.w3.org/TR/2001/REC-SVG-20010904/DTD/svg10.dtd">
<svg
   height="60"
   width="60"
   _SVGFile__filename="oldscale/actions/syntax.svg"
   version="1.0"
   y="0"
   x="0"
   id="svg1"
   sodipodi:version="0.32"
   inkscape:version="0.40"
   sodipodi:docname="spellcheck.svg"
   sodipodi:docbase="/home/danny/work/flat/SVG/mono/scalable/actions"
   xmlns="http://www.w3.org/2000/svg"
   xmlns:cc="http://web.resource.org/cc/"
   xmlns:inkscape="http://www.inkscape.org/namespaces/inkscape"
   xmlns:sodipodi="http://sodipodi.sourceforge.net/DTD/sodipodi-0.dtd"
   xmlns:rdf="http://www.w3.org/1999/02/22-rdf-syntax-ns#"
   xmlns:xml="http://www.w3.org/XML/1998/namespace"
   xmlns:dc="http://purl.org/dc/elements/1.1/"
   xmlns:xlink="http://www.w3.org/1999/xlink">
  <sodipodi:namedview
     id="base"
     pagecolor="#ffffff"
     bordercolor="#666666"
     borderopacity="1.0"
     inkscape:pageopacity="0.0000000"
     inkscape:pageshadow="2"
     inkscape:zoom="6.9465337"
     inkscape:cx="30.103282"
     inkscape:cy="29.808612"
     inkscape:window-width="1024"
     inkscape:window-height="699"
     inkscape:window-x="0"
     inkscape:window-y="0"
     inkscape:current-layer="svg1" />
  <defs
     id="defs3">
    <linearGradient
       id="linearGradient900">
      <stop
         style="stop-color: #000000;stop-opacity: 1.0;"
         id="stop901"
         offset="0" />
      <stop
         style="stop-color:#ffffff;stop-opacity:1;"
         id="stop902"
         offset="1" />
    </linearGradient>
    <linearGradient
       xlink:href="#linearGradient900"
       id="linearGradient903" />
    <linearGradient
       xlink:href="#linearGradient900"
       id="linearGradient904" />
    <linearGradient
       xlink:href="#linearGradient900"
       id="linearGradient905" />
    <linearGradient
       xlink:href="#linearGradient900"
       id="linearGradient906" />
    <linearGradient
       xlink:href="#linearGradient900"
       id="linearGradient907" />
  </defs>
  <g
     id="g1105"
     transform="matrix(0.743864,0.000000,0.000000,0.744021,1.434068,1.430759)">
    <path
       style="font-size:12.000000;fill:none;fill-opacity:1.0000000;fill-rule:evenodd;stroke:#ffffff;stroke-width:11.533247;stroke-linejoin:round;stroke-miterlimit:4.0000000;stroke-opacity:1.0000000"
       d="M 6.6785920,5.1165120 C 5.5705920,5.1165120 4.6785920,6.0085120 4.6785920,7.1165120 L 4.6785920,53.501350 C 4.6785920,54.609350 5.5705920,55.501350 6.6785920,55.501350 L 53.423320,55.501350 C 54.531320,55.501350 55.423320,54.609350 55.423320,53.501350 L 55.423320,7.1165120 C 55.423320,6.0085120 54.531320,5.1165120 53.423320,5.1165120 L 6.6785920,5.1165120 z "
       id="path1736"
       transform="matrix(0.997686,0.000000,0.000000,1.004675,1.858191e-2,-0.450625)" />
    <path
       style="font-size:12.000000;fill:#ffffff;fill-opacity:1.0000000;fill-rule:evenodd;stroke:#000000;stroke-width:4.4358635;stroke-linejoin:round;stroke-miterlimit:4.0000000;stroke-opacity:1.0000000"
       d="M 6.6785920,5.1165120 C 5.5705920,5.1165120 4.6785920,6.0085120 4.6785920,7.1165120 L 4.6785920,53.501350 C 4.6785920,54.609350 5.5705920,55.501350 6.6785920,55.501350 L 53.423320,55.501350 C 54.531320,55.501350 55.423320,54.609350 55.423320,53.501350 L 55.423320,7.1165120 C 55.423320,6.0085120 54.531320,5.1165120 53.423320,5.1165120 L 6.6785920,5.1165120 z "
       id="rect812"
       transform="matrix(0.997686,0.000000,0.000000,1.004675,1.858191e-2,-0.450625)" />
  </g>
  <g
     id="g1724"
     transform="matrix(0.768448,0.000000,0.000000,0.768448,11.26158,11.04666)">
    <path
       style="font-size:12.000000;fill:none;fill-opacity:1.0000000;fill-rule:evenodd;stroke:#ffffff;stroke-width:9.7599354;stroke-linecap:round;stroke-linejoin:round;stroke-miterlimit:4.0000000;stroke-opacity:1.0000000"
       d="M 19.448300,40.335470 C 24.320950,44.769800 27.470050,48.761050 32.682300,58.010870 C 44.013580,29.408780 59.529090,22.065440 57.560940,20.799200 C 53.580350,18.128200 34.214030,40.517290 31.872620,43.470860 C 29.056080,41.979660 19.448300,36.767460 19.448300,40.335470 z "
       id="path1723" />
    <path
       style="font-size:12.000000;fill:#000000;fill-opacity:1.0000000;fill-rule:evenodd;stroke:#000000;stroke-width:3.2533116;stroke-linecap:round;stroke-linejoin:round;stroke-opacity:1.0000000"
       d="M 19.448300,40.335470 C 24.320950,44.769800 27.470050,48.761050 32.682300,58.010870 C 44.013580,29.408780 59.529090,22.065440 57.560940,20.799200 C 53.580350,18.128200 34.214030,40.517290 31.872620,43.470860 C 29.056080,41.979660 19.448300,36.767460 19.448300,40.335470 z "
       id="path845" />
  </g>
  <metadata
     id="metadata18">
    <RDF
       id="RDF19">
      <Work
         about=""
         id="Work20">
        <title
           id="title21">Part of the Flat Icon Collection (Thu Aug 26 14:38:01 2004)</title>
        <description
           id="description23" />
        <subject
           id="subject24">
          <Bag
             id="Bag25">
            <li
               id="li26" />
          </Bag>
        </subject>
        <publisher
           id="publisher27">
          <Agent
             about=""
             id="Agent28">
            <title
               id="title29" />
          </Agent>
        </publisher>
        <creator
           id="creator30">
          <Agent
             about=""
             id="Agent31">
            <title
               id="title32">Danny Allen</title>
          </Agent>
        </creator>
        <rights
           id="rights34">
          <Agent
             about=""
             id="Agent35">
            <title
               id="title36">Danny Allen</title>
          </Agent>
        </rights>
        <date
           id="date38" />
        <format
           id="format39">image/svg+xml</format>
        <type
           id="type41"
           resource="http://purl.org/dc/dcmitype/StillImage" />
        <license
           id="license42"
           resource="http://creativecommons.org/licenses/LGPL/2.1/">
          <date
             id="date43" />
        </license>
        <language
           id="language44">en</language>
      </Work>
    </RDF>
    <rdf:RDF
       id="RDF47">
      <cc:Work
         rdf:about=""
         id="Work48">
        <dc:format
           id="format49">image/svg+xml</dc:format>
        <dc:type
           id="type51"
           rdf:resource="http://purl.org/dc/dcmitype/StillImage" />
      </cc:Work>
    </rdf:RDF>
  </metadata>
  <path
     transform="matrix(1.500969,0.000000,0.000000,1.500969,51.77707,-19.74316)"
     style="font-size:12.000000;font-style:normal;font-variant:normal;font-weight:bold;font-stretch:normal;fill:#000000;fill-opacity:1.0000000;stroke:none;stroke-width:1.0000000pt;stroke-linecap:butt;stroke-linejoin:miter;stroke-opacity:1.0000000;font-family:VAG Rounded Black SSi;text-anchor:start;writing-mode:lr"
     d="M -21.939259,28.004990 L -21.939259,32.633896 C -21.939265,32.915147 -22.027156,33.149521 -22.202930,33.337021 C -22.378718,33.524521 -22.603327,33.618271 -22.876759,33.618271 C -23.091608,33.618271 -23.273248,33.559677 -23.421680,33.442490 C -23.566217,33.325302 -23.675591,33.184677 -23.749805,33.020615 C -23.960747,33.278427 -24.195122,33.462021 -24.452930,33.571396 C -24.706840,33.684677 -25.009574,33.741318 -25.361134,33.741318 C -25.896292,33.741318 -26.384573,33.590927 -26.825977,33.290146 C -27.263478,32.985459 -27.611134,32.571397 -27.868946,32.047958 C -28.122853,31.520617 -28.249806,30.944445 -28.249805,30.319443 C -28.249806,29.702259 -28.122853,29.131947 -27.868946,28.608505 C -27.611134,28.081167 -27.261525,27.667105 -26.820118,27.366318 C -26.378714,27.061637 -25.892386,26.909293 -25.361134,26.909286 C -25.005668,26.909293 -24.702934,26.963981 -24.452930,27.073349 C -24.199028,27.182730 -23.964654,27.368277 -23.749805,27.629990 C -23.679498,27.469839 -23.570123,27.331168 -23.421680,27.213974 C -23.273248,27.092887 -23.091608,27.032340 -22.876759,27.032333 C -22.603327,27.032340 -22.378718,27.126090 -22.202930,27.313583 C -22.027156,27.497183 -21.939265,27.727652 -21.939259,28.004990 M -25.097462,28.725693 C -25.495902,28.725698 -25.810355,28.878041 -26.040821,29.182724 C -26.267386,29.487416 -26.380667,29.866321 -26.380665,30.319443 C -26.380667,30.608508 -26.329886,30.878039 -26.228321,31.128036 C -26.126761,31.374132 -25.980277,31.569445 -25.788868,31.713974 C -25.593558,31.858507 -25.363090,31.930772 -25.097462,31.930771 C -24.695122,31.930772 -24.380669,31.778429 -24.154102,31.473740 C -23.927544,31.165148 -23.814263,30.780383 -23.814259,30.319443 C -23.814263,29.862415 -23.927544,29.483509 -24.154102,29.182724 C -24.380669,28.878041 -24.695122,28.725698 -25.097462,28.725693 M -21.142384,32.633896 L -21.142384,25.198349 C -21.142384,24.917108 -21.054493,24.682733 -20.878712,24.495224 C -20.702931,24.307733 -20.480275,24.213983 -20.210743,24.213974 C -19.937307,24.213983 -19.712698,24.307733 -19.536915,24.495224 C -19.361136,24.682733 -19.273245,24.917108 -19.273243,25.198349 L -19.273243,27.442490 C -19.062308,27.266715 -18.843558,27.133902 -18.616993,27.044052 C -18.386527,26.954215 -18.089653,26.909293 -17.726368,26.909286 C -17.195122,26.909293 -16.708795,27.061637 -16.267384,27.366318 C -15.822077,27.667105 -15.472468,28.081167 -15.218555,28.608505 C -14.960750,29.131947 -14.831843,29.702259 -14.831837,30.319443 C -14.831843,30.799914 -14.904109,31.243273 -15.048634,31.649521 C -15.189265,32.055772 -15.394343,32.419053 -15.663868,32.739365 C -15.933405,33.059678 -16.241998,33.307724 -16.589649,33.483505 C -16.937310,33.655380 -17.316216,33.741318 -17.726368,33.741318 C -18.077934,33.741318 -18.380668,33.684677 -18.634571,33.571396 C -18.888480,33.462021 -19.120902,33.278427 -19.331837,33.020615 C -19.409964,33.188584 -19.523245,33.331162 -19.671680,33.448349 C -19.816213,33.561630 -19.995901,33.618271 -20.210743,33.618271 C -20.484182,33.618271 -20.708791,33.524521 -20.884571,33.337021 C -21.056447,33.145615 -21.142384,32.911240 -21.142384,32.633896 M -17.990040,28.725693 C -18.388480,28.725698 -18.702933,28.878041 -18.933399,29.182724 C -19.159964,29.487416 -19.273245,29.866321 -19.273243,30.319443 C -19.273245,30.608508 -19.222464,30.878039 -19.120899,31.128036 C -19.019339,31.374132 -18.872855,31.569445 -18.681446,31.713974 C -18.486137,31.858507 -18.255668,31.930772 -17.990040,31.930771 C -17.587700,31.930772 -17.273247,31.778429 -17.046680,31.473740 C -16.820123,31.165148 -16.706842,30.780383 -16.706837,30.319443 C -16.706842,29.862415 -16.820123,29.483509 -17.046680,29.182724 C -17.273247,28.878041 -17.587700,28.725698 -17.990040,28.725693 M -14.468555,30.319443 C -14.468556,29.698353 -14.335743,29.126088 -14.070118,28.602646 C -13.804494,28.075308 -13.433400,27.661246 -12.956837,27.360458 C -12.476370,27.059684 -11.929496,26.909293 -11.316212,26.909286 C -10.991997,26.909293 -10.658013,26.948356 -10.314259,27.026474 C -9.9705133,27.100699 -9.6814510,27.229605 -9.4470711,27.413193 C -9.2127015,27.596792 -9.0955141,27.844839 -9.0955086,28.157333 C -9.0955141,28.407339 -9.1697328,28.616323 -9.3181648,28.784286 C -9.4627013,28.952260 -9.6443417,29.036244 -9.8630867,29.036240 C -9.9685601,29.036244 -10.072076,29.018666 -10.173634,28.983505 C -10.271294,28.948354 -10.370903,28.911244 -10.472462,28.872177 C -10.570122,28.829213 -10.675591,28.794057 -10.788868,28.766708 C -10.898247,28.739369 -11.036918,28.725698 -11.204884,28.725693 C -11.509574,28.725698 -11.767386,28.797963 -11.978321,28.942490 C -12.185355,29.083119 -12.341605,29.274525 -12.447071,29.516708 C -12.548636,29.754993 -12.599417,30.022571 -12.599415,30.319443 C -12.599417,30.608508 -12.548636,30.878039 -12.447071,31.128036 C -12.345511,31.374132 -12.199027,31.569445 -12.007618,31.713974 C -11.812308,31.858507 -11.581840,31.930772 -11.316212,31.930771 C -11.015434,31.930772 -10.712700,31.874132 -10.408009,31.760849 C -10.103326,31.647570 -9.9216852,31.590929 -9.8630867,31.590927 C -9.7224666,31.590929 -9.5935605,31.631945 -9.4763680,31.713974 C -9.3591857,31.796007 -9.2673890,31.903429 -9.2009773,32.036240 C -9.1306703,32.165147 -9.0955141,32.297960 -9.0955086,32.434677 C -9.0955141,32.723740 -9.2224671,32.967881 -9.4763680,33.167099 C -9.7263729,33.366318 -10.025201,33.510849 -10.372852,33.600693 C -10.720513,33.694443 -11.034965,33.741318 -11.316212,33.741318 C -11.781058,33.741318 -12.206839,33.655380 -12.593555,33.483505 C -12.976370,33.311630 -13.310354,33.067490 -13.595509,32.751083 C -13.880666,32.430772 -14.097462,32.063585 -14.245899,31.649521 C -14.394337,31.231554 -14.468556,30.788196 -14.468555,30.319443"
     id="text1102" />
</svg>
