<?xml version="1.0" encoding="UTF-8" standalone="no"?>
<!DOCTYPE svg PUBLIC "-//W3C//DTD SVG 20010904//EN"
"http://www.w3.org/TR/2001/REC-SVG-20010904/DTD/svg10.dtd">
<svg
   height="60"
   width="60"
   _SVGFile__filename="oldscale/actions/strikethrough.svg"
   version="1.0"
   y="0"
   x="0"
   id="svg1"
   sodipodi:version="0.32"
   inkscape:version="0.40"
   sodipodi:docname="strikethrough.svg"
   sodipodi:docbase="/home/danny/work/flat/SVG/mono/scalable/actions"
   xmlns="http://www.w3.org/2000/svg"
   xmlns:cc="http://web.resource.org/cc/"
   xmlns:inkscape="http://www.inkscape.org/namespaces/inkscape"
   xmlns:sodipodi="http://sodipodi.sourceforge.net/DTD/sodipodi-0.dtd"
   xmlns:rdf="http://www.w3.org/1999/02/22-rdf-syntax-ns#"
   xmlns:dc="http://purl.org/dc/elements/1.1/"
   xmlns:xlink="http://www.w3.org/1999/xlink">
  <sodipodi:namedview
     id="base"
     pagecolor="#ffffff"
     bordercolor="#666666"
     borderopacity="1.0"
     inkscape:pageopacity="0.0"
     inkscape:pageshadow="2"
     inkscape:zoom="3.9271703"
     inkscape:cx="62.757828"
     inkscape:cy="5.8675989"
     inkscape:window-width="1024"
     inkscape:window-height="699"
     inkscape:window-x="0"
     inkscape:window-y="0"
     inkscape:current-layer="svg1" />
  <defs
     id="defs3">
    <linearGradient
       id="linearGradient900">
      <stop
         style="stop-color: #000000;stop-opacity: 1.0;"
         id="stop901"
         offset="0" />
      <stop
         style="stop-color:#ffffff;stop-opacity:1;"
         id="stop902"
         offset="1" />
    </linearGradient>
    <linearGradient
       xlink:href="#linearGradient900"
       id="linearGradient903" />
    <linearGradient
       xlink:href="#linearGradient900"
       id="linearGradient904" />
    <linearGradient
       xlink:href="#linearGradient900"
       id="linearGradient905" />
    <linearGradient
       xlink:href="#linearGradient900"
       id="linearGradient906" />
    <linearGradient
       xlink:href="#linearGradient900"
       id="linearGradient907" />
  </defs>
  <path
     style="font-size:12.000000;fill:none;fill-opacity:1.0000000;fill-rule:evenodd;stroke:#ffffff;stroke-width:8.1250000;stroke-linejoin:round;stroke-miterlimit:4.0000000;stroke-opacity:1.0000000;"
     d="M 6.6825810,4.6879174 C 5.5771860,4.6879174 4.6872830,5.5841544 4.6872830,6.6974174 L 4.6872830,53.302583 C 4.6872830,54.415846 5.5771860,55.312083 6.6825810,55.312083 L 53.317412,55.312083 C 54.422807,55.312083 55.312710,54.415846 55.312710,53.302583 L 55.312710,6.6974174 C 55.312710,5.5841544 54.422807,4.6879174 53.317412,4.6879174 L 6.6825810,4.6879174 z "
     id="path1726" />
  <g
     id="g1720"
     transform="matrix(0.997649,0.000000,0.000000,1.004750,1.969000e-2,-0.452898)">
    <path
       style="font-size:12.000000;fill:#ffffff;fill-opacity:1.0000000;fill-rule:evenodd;stroke:#000000;stroke-width:3.1212747;stroke-linejoin:round;stroke-opacity:1.0000000"
       d="M 6.6785920,5.1165120 C 5.5705920,5.1165120 4.6785920,6.0085120 4.6785920,7.1165120 L 4.6785920,53.501350 C 4.6785920,54.609350 5.5705920,55.501350 6.6785920,55.501350 L 53.423320,55.501350 C 54.531320,55.501350 55.423320,54.609350 55.423320,53.501350 L 55.423320,7.1165120 C 55.423320,6.0085120 54.531320,5.1165120 53.423320,5.1165120 L 6.6785920,5.1165120 z "
       id="rect812" />
    <path
       style="font-size:12.000000;fill:#040404;fill-opacity:1.0000000;stroke-width:0.68692398;font-family:VAG Rounded Black SSi"
       d="M 14.173400,44.021370 L 24.606500,15.558250 C 25.096080,14.258330 25.822010,13.211650 26.784280,12.418190 C 27.763440,11.607850 28.886100,11.202680 30.152250,11.202680 C 31.485930,11.202680 32.625470,11.599410 33.570860,12.392870 C 34.533140,13.186320 35.242190,14.241450 35.698000,15.558250 L 45.877870,44.021370 C 46.147990,44.764180 46.283040,45.405700 46.283040,45.945930 C 46.283040,46.958850 45.928520,47.794510 45.219470,48.452910 C 44.527310,49.094430 43.691650,49.415180 42.712490,49.415180 C 40.787940,49.415180 39.521780,48.520440 38.914030,46.730940 L 37.369320,41.792940 L 22.960500,41.792940 L 21.390470,46.680300 C 20.816480,48.503560 19.575650,49.415180 17.667980,49.415180 C 16.604410,49.415180 15.692780,49.060660 14.933090,48.351620 C 14.190280,47.642570 13.818870,46.773140 13.818870,45.743340 C 13.818870,45.253760 13.937050,44.679770 14.173400,44.021370 z M 30.101600,19.331390 L 25.188930,34.550550 L 35.039600,34.550550 L 30.202900,19.331390 L 30.101600,19.331390 z "
       id="path838" />
    <path
       style="font-size:12.000000;fill:none;fill-opacity:0.75000000;fill-rule:evenodd;stroke:#ffffff;stroke-width:9.9880791;stroke-linecap:round;stroke-linejoin:round;stroke-miterlimit:4.0000000;stroke-opacity:1.0000000"
       d="M 12.686180,29.685901 L 47.415730,29.685901"
       id="path1719" />
    <path
       style="font-size:12.000000;fill:none;fill-opacity:0.75000000;fill-rule:evenodd;stroke:#000000;stroke-width:4.9940395;stroke-linecap:round;stroke-linejoin:round;stroke-opacity:1.0000000"
       d="M 12.686180,29.685901 L 47.415730,29.685901"
       id="path839" />
  </g>
  <metadata
     id="metadata15">
    <RDF
       id="RDF16">
      <Work
         about=""
         id="Work17">
        <title
           id="title18">Part of the Flat Icon Collection (Thu Aug 26 14:38:01 2004)</title>
        <description
           id="description20" />
        <subject
           id="subject21">
          <Bag
             id="Bag22">
            <li
               id="li23" />
          </Bag>
        </subject>
        <publisher
           id="publisher24">
          <Agent
             about=""
             id="Agent25">
            <title
               id="title26" />
          </Agent>
        </publisher>
        <creator
           id="creator27">
          <Agent
             about=""
             id="Agent28">
            <title
               id="title29">Danny Allen</title>
          </Agent>
        </creator>
        <rights
           id="rights31">
          <Agent
             about=""
             id="Agent32">
            <title
               id="title33">Danny Allen</title>
          </Agent>
        </rights>
        <date
           id="date35" />
        <format
           id="format36">image/svg+xml</format>
        <type
           id="type38"
           resource="http://purl.org/dc/dcmitype/StillImage" />
        <license
           id="license39"
           resource="http://creativecommons.org/licenses/LGPL/2.1/">
          <date
             id="date40" />
        </license>
        <language
           id="language41">en</language>
      </Work>
    </RDF>
    <rdf:RDF
       id="RDF43">
      <cc:Work
         rdf:about=""
         id="Work44">
        <dc:format
           id="format45">image/svg+xml</dc:format>
        <dc:type
           id="type47"
           rdf:resource="http://purl.org/dc/dcmitype/StillImage" />
      </cc:Work>
    </rdf:RDF>
  </metadata>
</svg>
