<?xml version="1.0" encoding="UTF-8" standalone="no"?>
<!DOCTYPE svg PUBLIC "-//W3C//DTD SVG 20010904//EN"
"http://www.w3.org/TR/2001/REC-SVG-20010904/DTD/svg10.dtd">
<svg
   height="60"
   width="60"
   _SVGFile__filename="oldscale/actions/super.svg"
   version="1.0"
   y="0"
   x="0"
   id="svg1"
   sodipodi:version="0.32"
   inkscape:version="0.40"
   sodipodi:docname="super.svg"
   sodipodi:docbase="/home/danny/work/flat/SVG/mono/scalable/actions"
   xmlns="http://www.w3.org/2000/svg"
   xmlns:cc="http://web.resource.org/cc/"
   xmlns:inkscape="http://www.inkscape.org/namespaces/inkscape"
   xmlns:sodipodi="http://sodipodi.sourceforge.net/DTD/sodipodi-0.dtd"
   xmlns:rdf="http://www.w3.org/1999/02/22-rdf-syntax-ns#"
   xmlns:dc="http://purl.org/dc/elements/1.1/"
   xmlns:xlink="http://www.w3.org/1999/xlink">
  <sodipodi:namedview
     id="base"
     pagecolor="#ffffff"
     bordercolor="#666666"
     borderopacity="1.0"
     inkscape:pageopacity="0.0"
     inkscape:pageshadow="2"
     inkscape:zoom="6.5778747"
     inkscape:cx="26.662108"
     inkscape:cy="30.144996"
     inkscape:window-width="1024"
     inkscape:window-height="699"
     inkscape:window-x="0"
     inkscape:window-y="0"
     inkscape:current-layer="svg1" />
  <defs
     id="defs3">
    <linearGradient
       id="linearGradient900">
      <stop
         style="stop-color: #000000;stop-opacity: 1.0;"
         id="stop901"
         offset="0" />
      <stop
         style="stop-color:#ffffff;stop-opacity:1;"
         id="stop902"
         offset="1" />
    </linearGradient>
    <linearGradient
       xlink:href="#linearGradient900"
       id="linearGradient903" />
    <linearGradient
       xlink:href="#linearGradient900"
       id="linearGradient904" />
    <linearGradient
       xlink:href="#linearGradient900"
       id="linearGradient905" />
    <linearGradient
       xlink:href="#linearGradient900"
       id="linearGradient906" />
    <linearGradient
       xlink:href="#linearGradient900"
       id="linearGradient907" />
  </defs>
  <metadata
     id="metadata15">
    <RDF
       id="RDF16">
      <Work
         about=""
         id="Work17">
        <title
           id="title18">Part of the Flat Icon Collection (Thu Aug 26 14:38:01 2004)</title>
        <description
           id="description20" />
        <subject
           id="subject21">
          <Bag
             id="Bag22">
            <li
               id="li23" />
          </Bag>
        </subject>
        <publisher
           id="publisher24">
          <Agent
             about=""
             id="Agent25">
            <title
               id="title26" />
          </Agent>
        </publisher>
        <creator
           id="creator27">
          <Agent
             about=""
             id="Agent28">
            <title
               id="title29">Danny Allen</title>
          </Agent>
        </creator>
        <rights
           id="rights31">
          <Agent
             about=""
             id="Agent32">
            <title
               id="title33">Danny Allen</title>
          </Agent>
        </rights>
        <date
           id="date35" />
        <format
           id="format36">image/svg+xml</format>
        <type
           id="type38"
           resource="http://purl.org/dc/dcmitype/StillImage" />
        <license
           id="license39"
           resource="http://creativecommons.org/licenses/LGPL/2.1/">
          <date
             id="date40" />
        </license>
        <language
           id="language41">en</language>
      </Work>
    </RDF>
    <rdf:RDF
       id="RDF43">
      <cc:Work
         rdf:about=""
         id="Work44">
        <dc:format
           id="format45">image/svg+xml</dc:format>
        <dc:type
           id="type47"
           rdf:resource="http://purl.org/dc/dcmitype/StillImage" />
      </cc:Work>
    </rdf:RDF>
  </metadata>
  <path
     style="font-size:12.000000;fill:none;fill-opacity:1.0000000;fill-rule:evenodd;stroke:#ffffff;stroke-width:8.1250000;stroke-linejoin:round;stroke-miterlimit:4.0000000;stroke-opacity:1.0000000;"
     d="M 6.6825810,4.6879174 C 5.5771860,4.6879174 4.6872830,5.5841544 4.6872830,6.6974174 L 4.6872830,53.302583 C 4.6872830,54.415846 5.5771860,55.312083 6.6825810,55.312083 L 53.317412,55.312083 C 54.422807,55.312083 55.312710,54.415846 55.312710,53.302583 L 55.312710,6.6974174 C 55.312710,5.5841544 54.422807,4.6879174 53.317412,4.6879174 L 6.6825810,4.6879174 z "
     id="path1103" />
  <g
     id="g1098"
     transform="matrix(0.997649,0.000000,0.000000,1.004750,1.969380e-2,-0.452898)">
    <path
       style="font-size:12.000000;fill:#ffffff;fill-opacity:1.0000000;fill-rule:evenodd;stroke:#000000;stroke-width:3.1212747;stroke-linejoin:round;stroke-opacity:1.0000000"
       d="M 6.6785920,5.1165120 C 5.5705920,5.1165120 4.6785920,6.0085120 4.6785920,7.1165120 L 4.6785920,53.501350 C 4.6785920,54.609350 5.5705920,55.501350 6.6785920,55.501350 L 53.423320,55.501350 C 54.531320,55.501350 55.423320,54.609350 55.423320,53.501350 L 55.423320,7.1165120 C 55.423320,6.0085120 54.531320,5.1165120 53.423320,5.1165120 L 6.6785920,5.1165120 z "
       id="rect812" />
    <path
       style="font-size:12.000000;fill:#000000;fill-opacity:1.0000000;stroke-width:0.74550498;font-family:VAG Rounded Black SSi"
       d="M 19.343260,32.311460 L 26.379260,13.116160 C 26.709430,12.239500 27.198990,11.533630 27.847940,10.998530 C 28.508280,10.452040 29.265380,10.178800 30.119270,10.178800 C 31.018690,10.178800 31.787190,10.446350 32.424750,10.981450 C 33.073710,11.516550 33.551880,12.228120 33.859280,13.116160 L 40.724500,32.311460 C 40.906660,32.812400 40.997750,33.245040 40.997750,33.609360 C 40.997750,34.292470 40.758660,34.856030 40.280480,35.300050 C 39.813690,35.732680 39.250130,35.949000 38.589790,35.949000 C 37.291890,35.949000 36.438000,35.345590 36.028140,34.138770 L 34.986410,30.808620 L 25.269210,30.808620 L 24.210390,34.104610 C 23.823300,35.334200 22.986500,35.949000 21.699980,35.949000 C 20.982710,35.949000 20.367920,35.709910 19.855590,35.231740 C 19.354640,34.753560 19.104170,34.167230 19.104170,33.472740 C 19.104170,33.142570 19.183870,32.755480 19.343260,32.311460 z M 30.085110,15.660730 L 26.772040,25.924410 L 33.415260,25.924410 L 30.153420,15.660730 L 30.085110,15.660730 z "
       id="path838" />
    <path
       style="font-size:12.000000;fill:#000000;fill-opacity:1.0000000;fill-rule:evenodd;stroke:#000000;stroke-width:3.1212747;stroke-linecap:round;stroke-linejoin:round;stroke-opacity:1.0000000"
       d="M 40.246660,49.170480 L 29.888110,39.962010 L 19.855260,49.246590 L 40.246660,49.170480 z "
       id="path989" />
  </g>
</svg>
