<?xml version="1.0" encoding="UTF-8" standalone="no"?>
<!DOCTYPE svg PUBLIC "-//W3C//DTD SVG 20010904//EN"
"http://www.w3.org/TR/2001/REC-SVG-20010904/DTD/svg10.dtd">
<svg
   height="60"
   width="60"
   _SVGFile__filename="oldscale/actions/aobottom.svg"
   version="1.0"
   y="0"
   x="0"
   id="svg1"
   sodipodi:version="0.32"
   inkscape:version="0.40"
   sodipodi:docname="puzzle.svg"
   sodipodi:docbase="/home/danny/work/kde/OOo/mono/symbolshapes"
   xmlns="http://www.w3.org/2000/svg"
   xmlns:cc="http://web.resource.org/cc/"
   xmlns:inkscape="http://www.inkscape.org/namespaces/inkscape"
   xmlns:sodipodi="http://sodipodi.sourceforge.net/DTD/sodipodi-0.dtd"
   xmlns:rdf="http://www.w3.org/1999/02/22-rdf-syntax-ns#"
   xmlns:dc="http://purl.org/dc/elements/1.1/"
   xmlns:xlink="http://www.w3.org/1999/xlink">
  <sodipodi:namedview
     id="base"
     pagecolor="#ffffff"
     bordercolor="#666666"
     borderopacity="1.0"
     inkscape:pageopacity="0.0000000"
     inkscape:pageshadow="2"
     inkscape:zoom="6.0612328"
     inkscape:cx="64.719876"
     inkscape:cy="12.572216"
     inkscape:window-width="1024"
     inkscape:window-height="698"
     inkscape:window-x="0"
     inkscape:window-y="0"
     inkscape:current-layer="svg1" />
  <defs
     id="defs3" />
  <metadata
     id="metadata7">
    <RDF
       id="RDF8">
      <Work
         about=""
         id="Work9">
        <title
           id="title10">Part of the Flat Icon Collection (Thu Aug 26 14:38:01 2004)</title>
        <description
           id="description12" />
        <subject
           id="subject13">
          <Bag
             id="Bag14">
            <li
               id="li15" />
          </Bag>
        </subject>
        <publisher
           id="publisher16">
          <Agent
             about=""
             id="Agent17">
            <title
               id="title18" />
          </Agent>
        </publisher>
        <creator
           id="creator19">
          <Agent
             about=""
             id="Agent20">
            <title
               id="title21">Danny Allen</title>
          </Agent>
        </creator>
        <rights
           id="rights23">
          <Agent
             about=""
             id="Agent24">
            <title
               id="title25">Danny Allen</title>
          </Agent>
        </rights>
        <date
           id="date27" />
        <format
           id="format28">image/svg+xml</format>
        <type
           id="type30"
           resource="http://purl.org/dc/dcmitype/StillImage" />
        <license
           id="license31"
           resource="http://creativecommons.org/licenses/LGPL/2.1/">
          <date
             id="date32" />
        </license>
        <language
           id="language33">en</language>
      </Work>
    </RDF>
    <rdf:RDF
       id="RDF35">
      <cc:Work
         rdf:about=""
         id="Work36">
        <dc:format
           id="format37">image/svg+xml</dc:format>
        <dc:type
           id="type39"
           rdf:resource="http://purl.org/dc/dcmitype/StillImage" />
      </cc:Work>
    </rdf:RDF>
  </metadata>
  <path
     style="color:#000000;fill:none;fill-opacity:1.0000000;fill-rule:nonzero;stroke:#ffffff;stroke-width:10.000000;stroke-linecap:round;stroke-linejoin:round;stroke-miterlimit:4.0000000;stroke-dashoffset:0.0000000;stroke-opacity:1.0000000;marker:none;marker-start:none;marker-mid:none;marker-end:none;visibility:visible;display:block;stroke-dasharray:none;"
     d="M 30.315249,5.6263460 C 27.383156,5.6263460 25.005781,8.0200001 25.005781,10.972178 C 25.005781,13.924354 27.383156,14.112855 30.315249,14.112855 C 33.247337,14.112855 35.624718,13.924354 35.624717,10.972178 C 35.624717,8.0200001 33.247337,5.6263460 30.315249,5.6263460 z M 5.6262235,16.952828 L 5.6262235,20.761733 C 9.9457089,20.820916 13.490872,24.385047 13.490872,28.747070 C 13.490872,33.109094 9.9457107,36.673225 5.6262235,36.732408 L 5.6262235,54.373654 L 14.718687,54.373654 C 14.718317,54.348708 14.685503,54.331777 14.685503,54.306831 C 14.685504,49.908440 18.281234,46.288082 22.649705,46.288082 C 27.018176,46.288084 30.613906,49.908437 30.613906,54.306831 C 30.613906,54.331777 30.581092,54.348708 30.580723,54.373654 L 42.792499,54.373654 L 42.792499,16.952828 L 5.6262235,16.952828 z M 49.064309,25.172045 C 46.132214,25.172045 45.944994,27.565703 45.944995,30.517878 C 45.944995,33.470052 46.132215,35.863709 49.064309,35.863709 C 51.996402,35.863709 54.373777,33.470052 54.373776,30.517878 C 54.373776,27.565703 51.996403,25.172044 49.064309,25.172045 z "
     id="path1726" />
  <path
     style="color:#000000;fill:#000000;fill-opacity:1.0000000;fill-rule:nonzero;stroke:#000000;stroke-width:4.9999971;stroke-linecap:round;stroke-linejoin:round;stroke-miterlimit:4.0000000;stroke-dashoffset:0.0000000;stroke-opacity:1.0000000;marker:none;marker-start:none;marker-mid:none;marker-end:none;visibility:visible;display:block"
     d="M 30.315249,5.6263460 C 27.383156,5.6263460 25.005781,8.0200001 25.005781,10.972178 C 25.005781,13.924354 27.383156,14.112855 30.315249,14.112855 C 33.247337,14.112855 35.624718,13.924354 35.624717,10.972178 C 35.624717,8.0200001 33.247337,5.6263460 30.315249,5.6263460 z M 5.6262235,16.952828 L 5.6262235,20.761733 C 9.9457089,20.820916 13.490872,24.385047 13.490872,28.747070 C 13.490872,33.109094 9.9457107,36.673225 5.6262235,36.732408 L 5.6262235,54.373654 L 14.718687,54.373654 C 14.718317,54.348708 14.685503,54.331777 14.685503,54.306831 C 14.685504,49.908440 18.281234,46.288082 22.649705,46.288082 C 27.018176,46.288084 30.613906,49.908437 30.613906,54.306831 C 30.613906,54.331777 30.581092,54.348708 30.580723,54.373654 L 42.792499,54.373654 L 42.792499,16.952828 L 5.6262235,16.952828 z M 49.064309,25.172045 C 46.132214,25.172045 45.944994,27.565703 45.944995,30.517878 C 45.944995,33.470052 46.132215,35.863709 49.064309,35.863709 C 51.996402,35.863709 54.373777,33.470052 54.373776,30.517878 C 54.373776,27.565703 51.996403,25.172044 49.064309,25.172045 z "
     id="rect1089" />
</svg>
