<?xml version="1.0" encoding="UTF-8" standalone="no"?>
<!DOCTYPE svg PUBLIC "-//W3C//DTD SVG 20010904//EN"
"http://www.w3.org/TR/2001/REC-SVG-20010904/DTD/svg10.dtd">
<svg
   height="60"
   width="60"
   _SVGFile__filename="oldscale/actions/aobottom.svg"
   version="1.0"
   y="0"
   x="0"
   id="svg1"
   sodipodi:version="0.32"
   inkscape:version="0.40"
   sodipodi:docname="forbidden.svg"
   sodipodi:docbase="/home/danny/work/kde/OOo/mono/symbolshapes"
   xmlns="http://www.w3.org/2000/svg"
   xmlns:cc="http://web.resource.org/cc/"
   xmlns:inkscape="http://www.inkscape.org/namespaces/inkscape"
   xmlns:sodipodi="http://sodipodi.sourceforge.net/DTD/sodipodi-0.dtd"
   xmlns:rdf="http://www.w3.org/1999/02/22-rdf-syntax-ns#"
   xmlns:dc="http://purl.org/dc/elements/1.1/"
   xmlns:xlink="http://www.w3.org/1999/xlink">
  <sodipodi:namedview
     id="base"
     pagecolor="#ffffff"
     bordercolor="#666666"
     borderopacity="1.0"
     inkscape:pageopacity="0.0000000"
     inkscape:pageshadow="2"
     inkscape:zoom="6.0612328"
     inkscape:cx="64.719876"
     inkscape:cy="12.572216"
     inkscape:window-width="1024"
     inkscape:window-height="698"
     inkscape:window-x="0"
     inkscape:window-y="0"
     inkscape:current-layer="svg1" />
  <defs
     id="defs3" />
  <metadata
     id="metadata7">
    <RDF
       id="RDF8">
      <Work
         about=""
         id="Work9">
        <title
           id="title10">Part of the Flat Icon Collection (Thu Aug 26 14:38:01 2004)</title>
        <description
           id="description12" />
        <subject
           id="subject13">
          <Bag
             id="Bag14">
            <li
               id="li15" />
          </Bag>
        </subject>
        <publisher
           id="publisher16">
          <Agent
             about=""
             id="Agent17">
            <title
               id="title18" />
          </Agent>
        </publisher>
        <creator
           id="creator19">
          <Agent
             about=""
             id="Agent20">
            <title
               id="title21">Danny Allen</title>
          </Agent>
        </creator>
        <rights
           id="rights23">
          <Agent
             about=""
             id="Agent24">
            <title
               id="title25">Danny Allen</title>
          </Agent>
        </rights>
        <date
           id="date27" />
        <format
           id="format28">image/svg+xml</format>
        <type
           id="type30"
           resource="http://purl.org/dc/dcmitype/StillImage" />
        <license
           id="license31"
           resource="http://creativecommons.org/licenses/LGPL/2.1/">
          <date
             id="date32" />
        </license>
        <language
           id="language33">en</language>
      </Work>
    </RDF>
    <rdf:RDF
       id="RDF35">
      <cc:Work
         rdf:about=""
         id="Work36">
        <dc:format
           id="format37">image/svg+xml</dc:format>
        <dc:type
           id="type39"
           rdf:resource="http://purl.org/dc/dcmitype/StillImage" />
      </cc:Work>
    </rdf:RDF>
  </metadata>
  <path
     style="color:#000000;fill:none;fill-opacity:1.0000000;fill-rule:nonzero;stroke:#ffffff;stroke-width:10.000000;stroke-linecap:round;stroke-linejoin:round;stroke-miterlimit:4.0000000;stroke-dashoffset:0.0000000;stroke-opacity:1.0000000;marker:none;marker-start:none;marker-mid:none;marker-end:none;visibility:visible;display:block;stroke-dasharray:none;"
     d="M 30.000000 5.6250000 C 16.543989 5.6250000 5.6249998 16.543991 5.6250000 30.000000 C 5.6250000 43.456012 16.543990 54.375000 30.000000 54.375000 C 43.456010 54.375000 54.375000 43.456012 54.375000 30.000000 C 54.375000 16.543991 43.456011 5.6249999 30.000000 5.6250000 z M 30.000000 12.500000 C 39.660669 12.500000 47.500000 20.339331 47.500000 30.000000 C 47.500000 33.582701 46.411886 36.912733 44.562500 39.687500 L 20.312500 15.437500 C 23.087267 13.588114 26.417299 12.500000 30.000000 12.500000 z M 15.437500 20.312500 L 39.687500 44.562500 C 36.912733 46.411886 33.582701 47.500000 30.000000 47.500000 C 20.339330 47.500001 12.500000 39.660669 12.500000 30.000000 C 12.500000 26.417299 13.588114 23.087267 15.437500 20.312500 z "
     id="path1722" />
  <path
     style="color:#000000;fill:#000000;fill-opacity:1.0000000;fill-rule:nonzero;stroke:#000000;stroke-width:5.0000000;stroke-linecap:round;stroke-linejoin:round;stroke-miterlimit:4.0000000;stroke-dashoffset:0.0000000;stroke-opacity:1.0000000;marker:none;marker-start:none;marker-mid:none;marker-end:none;visibility:visible;display:block;stroke-dasharray:none;"
     d="M 30.000000 5.6250000 C 16.543989 5.6250000 5.6249998 16.543991 5.6250000 30.000000 C 5.6250000 43.456012 16.543990 54.375000 30.000000 54.375000 C 43.456010 54.375000 54.375000 43.456012 54.375000 30.000000 C 54.375000 16.543991 43.456011 5.6249999 30.000000 5.6250000 z M 30.000000 12.500000 C 39.660669 12.500000 47.500000 20.339331 47.500000 30.000000 C 47.500000 33.582701 46.411886 36.912733 44.562500 39.687500 L 20.312500 15.437500 C 23.087267 13.588114 26.417299 12.500000 30.000000 12.500000 z M 15.437500 20.312500 L 39.687500 44.562500 C 36.912733 46.411886 33.582701 47.500000 30.000000 47.500000 C 20.339330 47.500001 12.500000 39.660669 12.500000 30.000000 C 12.500000 26.417299 13.588114 23.087267 15.437500 20.312500 z "
     id="path1093" />
</svg>
