<?xml version="1.0" encoding="UTF-8" standalone="no"?>
<!DOCTYPE svg PUBLIC "-//W3C//DTD SVG 20010904//EN"
"http://www.w3.org/TR/2001/REC-SVG-20010904/DTD/svg10.dtd">
<svg
   height="60"
   width="60"
   _SVGFile__filename="oldscale/actions/aobottom.svg"
   version="1.0"
   y="0"
   x="0"
   id="svg1"
   sodipodi:version="0.32"
   inkscape:version="0.40"
   sodipodi:docname="right-bracket.svg"
   sodipodi:docbase="/home/danny/work/kde/OOo/mono/symbolshapes"
   xmlns="http://www.w3.org/2000/svg"
   xmlns:cc="http://web.resource.org/cc/"
   xmlns:inkscape="http://www.inkscape.org/namespaces/inkscape"
   xmlns:sodipodi="http://sodipodi.sourceforge.net/DTD/sodipodi-0.dtd"
   xmlns:rdf="http://www.w3.org/1999/02/22-rdf-syntax-ns#"
   xmlns:dc="http://purl.org/dc/elements/1.1/"
   xmlns:xlink="http://www.w3.org/1999/xlink">
  <sodipodi:namedview
     id="base"
     pagecolor="#ffffff"
     bordercolor="#666666"
     borderopacity="1.0"
     inkscape:pageopacity="0.0000000"
     inkscape:pageshadow="2"
     inkscape:zoom="6.0612328"
     inkscape:cx="64.719876"
     inkscape:cy="12.572216"
     inkscape:window-width="1024"
     inkscape:window-height="698"
     inkscape:window-x="0"
     inkscape:window-y="0"
     inkscape:current-layer="svg1" />
  <defs
     id="defs3" />
  <metadata
     id="metadata7">
    <RDF
       id="RDF8">
      <Work
         about=""
         id="Work9">
        <title
           id="title10">Part of the Flat Icon Collection (Thu Aug 26 14:38:01 2004)</title>
        <description
           id="description12" />
        <subject
           id="subject13">
          <Bag
             id="Bag14">
            <li
               id="li15" />
          </Bag>
        </subject>
        <publisher
           id="publisher16">
          <Agent
             about=""
             id="Agent17">
            <title
               id="title18" />
          </Agent>
        </publisher>
        <creator
           id="creator19">
          <Agent
             about=""
             id="Agent20">
            <title
               id="title21">Danny Allen</title>
          </Agent>
        </creator>
        <rights
           id="rights23">
          <Agent
             about=""
             id="Agent24">
            <title
               id="title25">Danny Allen</title>
          </Agent>
        </rights>
        <date
           id="date27" />
        <format
           id="format28">image/svg+xml</format>
        <type
           id="type30"
           resource="http://purl.org/dc/dcmitype/StillImage" />
        <license
           id="license31"
           resource="http://creativecommons.org/licenses/LGPL/2.1/">
          <date
             id="date32" />
        </license>
        <language
           id="language33">en</language>
      </Work>
    </RDF>
    <rdf:RDF
       id="RDF35">
      <cc:Work
         rdf:about=""
         id="Work36">
        <dc:format
           id="format37">image/svg+xml</dc:format>
        <dc:type
           id="type39"
           rdf:resource="http://purl.org/dc/dcmitype/StillImage" />
      </cc:Work>
    </rdf:RDF>
  </metadata>
  <path
     transform="matrix(-4.950531,0.000000,0.000000,4.950531,120.1516,-198.1833)"
     style="font-size:12.000000;font-style:normal;font-variant:normal;font-weight:bold;font-stretch:normal;fill:none;fill-opacity:1.0000000;stroke:#ffffff;stroke-width:1.0099927;stroke-linecap:round;stroke-linejoin:round;stroke-miterlimit:4.0000000;stroke-opacity:1.0000000;font-family:VAG Rounded Black SSi;text-anchor:start;writing-mode:lr;"
     d="M 18.286660,42.040932 L 18.286660,50.144447 L 19.106973,50.144447 C 19.306188,50.144447 19.468297,50.204993 19.593301,50.326088 C 19.722203,50.451087 19.786656,50.617102 19.786660,50.824135 C 19.786656,51.031165 19.724156,51.199133 19.599160,51.328041 C 19.474156,51.456945 19.310094,51.521398 19.106973,51.521400 L 17.460488,51.521400 C 17.194862,51.521398 16.989784,51.449133 16.845254,51.304604 C 16.704628,51.163977 16.634315,50.956946 16.634316,50.683510 L 16.634316,41.490150 C 16.634315,41.220627 16.704628,41.015550 16.845254,40.874916 C 16.985878,40.734300 17.190956,40.663987 17.460488,40.663979 L 19.106973,40.663979 C 19.306188,40.663987 19.468297,40.726487 19.593301,40.851479 C 19.722203,40.972581 19.786656,41.136643 19.786660,41.343666 C 19.786656,41.554612 19.722203,41.724533 19.593301,41.853432 C 19.468297,41.978439 19.306188,42.040939 19.106973,42.040932 L 18.286660,42.040932"
     id="path1093" />
  <path
     transform="matrix(-4.950531,0.000000,0.000000,4.950531,120.1516,-198.1833)"
     style="font-size:12.000000;font-style:normal;font-variant:normal;font-weight:bold;font-stretch:normal;fill:#000000;fill-opacity:1.0000000;stroke:none;stroke-width:1.0000000pt;stroke-linecap:butt;stroke-linejoin:miter;stroke-opacity:1.0000000;font-family:VAG Rounded Black SSi;text-anchor:start;writing-mode:lr;"
     d="M 18.286660,42.040932 L 18.286660,50.144447 L 19.106973,50.144447 C 19.306188,50.144447 19.468297,50.204993 19.593301,50.326088 C 19.722203,50.451087 19.786656,50.617102 19.786660,50.824135 C 19.786656,51.031165 19.724156,51.199133 19.599160,51.328041 C 19.474156,51.456945 19.310094,51.521398 19.106973,51.521400 L 17.460488,51.521400 C 17.194862,51.521398 16.989784,51.449133 16.845254,51.304604 C 16.704628,51.163977 16.634315,50.956946 16.634316,50.683510 L 16.634316,41.490150 C 16.634315,41.220627 16.704628,41.015550 16.845254,40.874916 C 16.985878,40.734300 17.190956,40.663987 17.460488,40.663979 L 19.106973,40.663979 C 19.306188,40.663987 19.468297,40.726487 19.593301,40.851479 C 19.722203,40.972581 19.786656,41.136643 19.786660,41.343666 C 19.786656,41.554612 19.722203,41.724533 19.593301,41.853432 C 19.468297,41.978439 19.306188,42.040939 19.106973,42.040932 L 18.286660,42.040932"
     id="text1089" />
</svg>
