<?xml version="1.0" encoding="UTF-8" standalone="no"?>
<!DOCTYPE svg PUBLIC "-//W3C//DTD SVG 20010904//EN"
"http://www.w3.org/TR/2001/REC-SVG-20010904/DTD/svg10.dtd">
<svg
   height="60"
   width="60"
   _SVGFile__filename="oldscale/actions/endturn.svg"
   version="1.0"
   y="0"
   x="0"
   id="svg1"
   xmlns="http://www.w3.org/2000/svg"
   xmlns:sodipodi="http://sodipodi.sourceforge.net/DTD/sodipodi-0.dtd"
   xmlns:inkscape="http://www.inkscape.org/namespaces/inkscape"
   xmlns:xlink="http://www.w3.org/1999/xlink"
   sodipodi:version="0.32"
   inkscape:version="0.40"
   xmlns:rdf="http://www.w3.org/1999/02/22-rdf-syntax-ns#"
   xmlns:cc="http://web.resource.org/cc/"
   xmlns:dc="http://purl.org/dc/elements/1.1/"
   sodipodi:docname="endturn.svg"
   sodipodi:docbase="/home/danny/work/flat/SVG/mono/scalable/actions">
  <sodipodi:namedview
     id="base"
     pagecolor="#ffffff"
     bordercolor="#666666"
     borderopacity="1.0"
     inkscape:pageopacity="0.0"
     inkscape:pageshadow="2"
     inkscape:zoom="8.6428555"
     inkscape:cx="31.929863"
     inkscape:cy="21.939536"
     inkscape:window-width="1024"
     inkscape:window-height="699"
     inkscape:window-x="0"
     inkscape:window-y="0"
     inkscape:current-layer="svg1" />
  <defs
     id="defs3" />
  <path
     style="font-size:12.000000;fill:none;fill-opacity:1.0000000;fill-rule:evenodd;stroke:#ffffff;stroke-width:8.1250000;stroke-linecap:round;stroke-linejoin:round;stroke-opacity:1.0000000;stroke-miterlimit:4.0000000;stroke-dasharray:none;"
     d="M 25.882660,4.6872818 C 25.184945,4.6872818 24.636590,5.2356364 24.636590,5.9333572 L 24.636590,23.784115 C 24.295408,23.762103 23.969044,23.697174 23.622338,23.697174 C 23.592874,23.697174 23.564832,23.697012 23.535405,23.697174 L 23.535405,8.1357228 C 23.535405,7.4380020 22.958064,6.8606692 22.260348,6.8606692 L 17.305024,6.8606692 C 16.607308,6.8606682 16.058953,7.4380020 16.058953,8.1357228 L 16.058953,25.696692 C 15.806812,25.835072 15.549060,25.950904 15.305506,26.102393 L 15.305506,16.858249 C 15.305506,16.160534 14.757152,15.583193 14.059435,15.583193 L 9.0751305,15.583193 C 8.3774098,15.583193 7.8290551,16.160534 7.8290551,16.858249 C 7.8290551,16.858249 7.8259494,41.405553 7.8815205,41.547930 C 8.8998375,49.296762 15.597015,55.312718 23.622338,55.312718 C 28.862749,55.312718 33.465767,52.750973 36.343897,48.821532 L 51.644548,37.925618 C 52.212653,37.520565 52.339382,36.726033 51.934329,36.157927 L 49.065465,32.129924 C 48.660403,31.561819 47.865879,31.435080 47.297774,31.840133 L 39.212771,37.606859 C 39.117366,36.821256 40.371910,34.769203 40.371910,34.071478 L 40.371910,9.7874972 C 40.371910,9.0897772 39.794577,8.5414218 39.096853,8.5414218 L 34.141538,8.5414218 C 33.443812,8.5414218 32.866480,9.0897772 32.866480,9.7874972 L 32.866480,26.739921 C 32.617230,26.558883 32.372951,26.384847 32.113043,26.218302 L 32.113043,5.9333572 C 32.113033,5.2356364 31.535701,4.6872818 30.837985,4.6872818 L 25.882660,4.6872818 z "
     id="path1088" />
  <path
     style="font-size:12.000000;fill:#ffffff;fill-opacity:1.0000000;fill-rule:evenodd;stroke:#000000;stroke-width:3.1249964;stroke-linecap:round;stroke-linejoin:round;stroke-opacity:1.0000000"
     d="M 25.882660,4.6872818 C 25.184945,4.6872818 24.636590,5.2356364 24.636590,5.9333572 L 24.636590,23.784115 C 24.295408,23.762103 23.969044,23.697174 23.622338,23.697174 C 23.592874,23.697174 23.564832,23.697012 23.535405,23.697174 L 23.535405,8.1357228 C 23.535405,7.4380020 22.958064,6.8606692 22.260348,6.8606692 L 17.305024,6.8606692 C 16.607308,6.8606682 16.058953,7.4380020 16.058953,8.1357228 L 16.058953,25.696692 C 15.806812,25.835072 15.549060,25.950904 15.305506,26.102393 L 15.305506,16.858249 C 15.305506,16.160534 14.757152,15.583193 14.059435,15.583193 L 9.0751305,15.583193 C 8.3774098,15.583193 7.8290551,16.160534 7.8290551,16.858249 C 7.8290551,16.858249 7.8259494,41.405553 7.8815205,41.547930 C 8.8998375,49.296762 15.597015,55.312718 23.622338,55.312718 C 28.862749,55.312718 33.465767,52.750973 36.343897,48.821532 L 51.644548,37.925618 C 52.212653,37.520565 52.339382,36.726033 51.934329,36.157927 L 49.065465,32.129924 C 48.660403,31.561819 47.865879,31.435080 47.297774,31.840133 L 39.212771,37.606859 C 39.117366,36.821256 40.371910,34.769203 40.371910,34.071478 L 40.371910,9.7874972 C 40.371910,9.0897772 39.794577,8.5414218 39.096853,8.5414218 L 34.141538,8.5414218 C 33.443812,8.5414218 32.866480,9.0897772 32.866480,9.7874972 L 32.866480,26.739921 C 32.617230,26.558883 32.372951,26.384847 32.113043,26.218302 L 32.113043,5.9333572 C 32.113033,5.2356364 31.535701,4.6872818 30.837985,4.6872818 L 25.882660,4.6872818 z "
     id="path841" />
  <metadata
     id="metadata5">
    <RDF
       id="RDF6">
      <Work
         about=""
         id="Work7">
        <title
           id="title8">Part of the Flat Icon Collection (Thu Aug 26 14:38:01 2004)</title>
        <description
           id="description10" />
        <subject
           id="subject11">
          <Bag
             id="Bag12">
            <li
               id="li13" />
          </Bag>
        </subject>
        <publisher
           id="publisher14">
          <Agent
             about=""
             id="Agent15">
            <title
               id="title16" />
          </Agent>
        </publisher>
        <creator
           id="creator17">
          <Agent
             about=""
             id="Agent18">
            <title
               id="title19">Danny Allen</title>
          </Agent>
        </creator>
        <rights
           id="rights21">
          <Agent
             about=""
             id="Agent22">
            <title
               id="title23">Danny Allen</title>
          </Agent>
        </rights>
        <date
           id="date25" />
        <format
           id="format26">image/svg+xml</format>
        <type
           id="type28"
           resource="http://purl.org/dc/dcmitype/StillImage" />
        <license
           id="license29"
           resource="http://creativecommons.org/licenses/LGPL/2.1/">
          <date
             id="date30" />
        </license>
        <language
           id="language31">en</language>
      </Work>
    </RDF>
    <rdf:RDF
       id="RDF33">
      <cc:Work
         rdf:about=""
         id="Work34">
        <dc:format
           id="format35">image/svg+xml</dc:format>
        <dc:type
           id="type37"
           rdf:resource="http://purl.org/dc/dcmitype/StillImage" />
      </cc:Work>
    </rdf:RDF>
  </metadata>
</svg>
