<?xml version="1.0" encoding="UTF-8" standalone="no"?>
<!DOCTYPE svg PUBLIC "-//W3C//DTD SVG 20010904//EN"
"http://www.w3.org/TR/2001/REC-SVG-20010904/DTD/svg10.dtd">
<svg
   height="60"
   width="60"
   _SVGFile__filename="oldscale/actions/text_under.svg"
   version="1.0"
   y="0"
   x="0"
   id="svg1"
   sodipodi:version="0.32"
   inkscape:version="0.40"
   sodipodi:docname="text_under.svg"
   sodipodi:docbase="/home/danny/work/flat/SVG/mono/scalable/actions"
   xmlns="http://www.w3.org/2000/svg"
   xmlns:cc="http://web.resource.org/cc/"
   xmlns:inkscape="http://www.inkscape.org/namespaces/inkscape"
   xmlns:sodipodi="http://sodipodi.sourceforge.net/DTD/sodipodi-0.dtd"
   xmlns:rdf="http://www.w3.org/1999/02/22-rdf-syntax-ns#"
   xmlns:dc="http://purl.org/dc/elements/1.1/"
   xmlns:xlink="http://www.w3.org/1999/xlink">
  <sodipodi:namedview
     id="base"
     pagecolor="#ffffff"
     bordercolor="#666666"
     borderopacity="1.0"
     inkscape:pageopacity="0.0"
     inkscape:pageshadow="2"
     inkscape:zoom="4.0877295"
     inkscape:cx="42.535838"
     inkscape:cy="25.521506"
     inkscape:window-width="1024"
     inkscape:window-height="699"
     inkscape:window-x="0"
     inkscape:window-y="0"
     inkscape:current-layer="svg1" />
  <defs
     id="defs3">
    <linearGradient
       id="linearGradient900">
      <stop
         style="stop-color: #000000;stop-opacity: 1.0;"
         id="stop901"
         offset="0" />
      <stop
         style="stop-color:#ffffff;stop-opacity:1;"
         id="stop902"
         offset="1" />
    </linearGradient>
    <linearGradient
       xlink:href="#linearGradient900"
       id="linearGradient903" />
    <linearGradient
       xlink:href="#linearGradient900"
       id="linearGradient904" />
    <linearGradient
       xlink:href="#linearGradient900"
       id="linearGradient905" />
    <linearGradient
       xlink:href="#linearGradient900"
       id="linearGradient906" />
    <linearGradient
       xlink:href="#linearGradient900"
       id="linearGradient907" />
  </defs>
  <path
     style="font-size:12.000000;fill:none;fill-opacity:1.0000000;fill-rule:evenodd;stroke:#ffffff;stroke-width:8.1250000;stroke-linejoin:round;stroke-opacity:1.0000000;stroke-miterlimit:4.0000000;stroke-dasharray:none;"
     d="M 6.6826010,4.6879129 C 5.5772070,4.6879129 4.6873050,5.5841501 4.6873050,6.6974133 L 4.6873050,53.302587 C 4.6873050,54.415851 5.5772070,55.312087 6.6826010,55.312087 L 53.317400,55.312087 C 54.422790,55.312087 55.312700,54.415851 55.312700,53.302587 L 55.312700,6.6974133 C 55.312700,5.5841501 54.422790,4.6879129 53.317400,4.6879129 L 6.6826010,4.6879129 z "
     id="path1103" />
  <path
     style="font-size:12.000000;fill:#ffffff;fill-opacity:1.0000000;fill-rule:evenodd;stroke:#000000;stroke-width:3.1249986;stroke-linejoin:round;stroke-opacity:1.0000000;"
     d="M 6.7088914,4.8697319 C 5.6034971,4.8697319 4.7135948,5.7659691 4.7135948,6.8792323 L 4.7135948,53.484406 C 4.7135948,54.597670 5.6034971,55.493906 6.7088914,55.493906 L 53.343690,55.493906 C 54.449084,55.493906 55.338986,54.597670 55.338986,53.484406 L 55.338986,6.8792323 C 55.338986,5.7659691 54.449084,4.8697319 53.343690,4.8697319 L 6.7088914,4.8697319 z "
     id="rect812"
     transform="translate(-2.629040e-2,-0.181819)" />
  <path
     id="path839"
     style="font-size:12.000000;fill:#000000;fill-opacity:1.0000000;stroke-width:0.81015098;font-family:VAG Rounded Black SSi"
     d="M 16.569121,37.698081 L 25.394513,13.449641 C 25.808647,12.342205 26.422710,11.450509 27.236712,10.774543 C 28.064980,10.084199 29.014642,9.7390282 30.085678,9.7390282 C 31.213850,9.7390282 32.177787,10.077005 32.977493,10.752971 C 33.791485,11.428937 34.391271,12.327827 34.776853,13.449641 L 43.388040,37.698081 C 43.616521,38.330892 43.730773,38.877417 43.730773,39.337653 C 43.730773,40.200583 43.430879,40.912509 42.831092,41.473411 C 42.245592,42.019935 41.538698,42.293197 40.710430,42.293197 C 39.082436,42.293197 38.011400,41.530943 37.497302,40.006425 L 36.190622,35.799624 L 24.002154,35.799624 L 22.674064,39.963281 C 22.188528,41.516565 21.138902,42.293197 19.525195,42.293197 C 18.625525,42.293197 17.854372,41.991169 17.211746,41.387124 C 16.583397,40.783067 16.269227,40.042385 16.269227,39.165067 C 16.269227,38.747985 16.369191,38.258983 16.569121,37.698081 z M 30.042839,16.664069 L 25.887192,29.629652 L 34.219905,29.629652 L 30.128527,16.664069 L 30.042839,16.664069 z " />
  <path
     id="path838"
     style="font-size:12.000000;fill:none;fill-opacity:0.75000000;fill-rule:evenodd;stroke:#000000;stroke-width:4.9999976;stroke-linecap:round;stroke-linejoin:round;stroke-opacity:1.0000000"
     d="M 13.434109,47.749104 L 46.565891,47.749104" />
  <metadata
     id="metadata15">
    <RDF
       id="RDF16">
      <Work
         about=""
         id="Work17">
        <title
           id="title18">Part of the Flat Icon Collection (Thu Aug 26 14:38:01 2004)</title>
        <description
           id="description20" />
        <subject
           id="subject21">
          <Bag
             id="Bag22">
            <li
               id="li23" />
          </Bag>
        </subject>
        <publisher
           id="publisher24">
          <Agent
             about=""
             id="Agent25">
            <title
               id="title26" />
          </Agent>
        </publisher>
        <creator
           id="creator27">
          <Agent
             about=""
             id="Agent28">
            <title
               id="title29">Danny Allen</title>
          </Agent>
        </creator>
        <rights
           id="rights31">
          <Agent
             about=""
             id="Agent32">
            <title
               id="title33">Danny Allen</title>
          </Agent>
        </rights>
        <date
           id="date35" />
        <format
           id="format36">image/svg+xml</format>
        <type
           id="type38"
           resource="http://purl.org/dc/dcmitype/StillImage" />
        <license
           id="license39"
           resource="http://creativecommons.org/licenses/LGPL/2.1/">
          <date
             id="date40" />
        </license>
        <language
           id="language41">en</language>
      </Work>
    </RDF>
    <rdf:RDF
       id="RDF43">
      <cc:Work
         rdf:about=""
         id="Work44">
        <dc:format
           id="format45">image/svg+xml</dc:format>
        <dc:type
           id="type47"
           rdf:resource="http://purl.org/dc/dcmitype/StillImage" />
      </cc:Work>
    </rdf:RDF>
  </metadata>
</svg>
