<?xml version="1.0" encoding="UTF-8" standalone="no"?>
<!-- Generator: Adobe Illustrator 12.0.0, SVG Export Plug-In . SVG Version: 6.00 Build 51448)  -->
<svg
   xmlns:ns="http://ns.adobe.com/SaveForWeb/1.0/"
   xmlns:dc="http://purl.org/dc/elements/1.1/"
   xmlns:cc="http://web.resource.org/cc/"
   xmlns:rdf="http://www.w3.org/1999/02/22-rdf-syntax-ns#"
   xmlns:svg="http://www.w3.org/2000/svg"
   xmlns="http://www.w3.org/2000/svg"
   xmlns:sodipodi="http://sodipodi.sourceforge.net/DTD/sodipodi-0.dtd"
   xmlns:inkscape="http://www.inkscape.org/namespaces/inkscape"
   version="1.1"
   id="layer1"
   sodipodi:version="0.32"
   sodipodi:docbase="/home/pinheiro/artwork/Oxygen/theme/svg/devices"
   inkscape:version="0.45"
   sodipodi:docname="camera_mount.svg"
   inkscape:label="Layer 1"
   inkscape:groupmode="layer"
   width="128"
   height="128"
   viewBox="0 0 128 128"
   overflow="visible"
   enable-background="new 0 0 128 128"
   xml:space="preserve"
   inkscape:output_extension="org.inkscape.output.svg.inkscape"
   sodipodi:modified="true"><defs
   id="defs539" /><sodipodi:namedview
   inkscape:window-height="573"
   inkscape:window-width="725"
   inkscape:pageshadow="2"
   inkscape:pageopacity="0.0"
   guidetolerance="10.0"
   gridtolerance="10.0"
   objecttolerance="10.0"
   borderopacity="1.0"
   bordercolor="#666666"
   pagecolor="#ffffff"
   id="base"
   inkscape:zoom="1.0440874"
   inkscape:cx="196.16772"
   inkscape:cy="53.41865"
   inkscape:window-x="1187"
   inkscape:window-y="600"
   inkscape:current-layer="layer1" />
<metadata
   id="metadata1687">
	<rdf:RDF>
		<cc:Work
   rdf:about="">
			<dc:format>image/svg+xml</dc:format>
			<dc:type
   rdf:resource="http://purl.org/dc/dcmitype/StillImage" />
		</cc:Work>
	</rdf:RDF>
	<ns:sfw>
		<ns:slices>
			<ns:slice
   x="0"
   y="0"
   height="128"
   width="128"
   sliceID="1654167827" />
		</ns:slices>
		<ns:sliceSourceBounds
   x="0"
   y="0"
   height="128"
   width="128"
   bottomLeftOrigin="true" />
	</ns:sfw>
</metadata>
<rect
   id="_x3C_Sezione_x3E_"
   x="-0.5"
   y="-0.5"
   fill="none"
   width="128"
   height="128" />

<g
   id="g519">
	<path
   opacity="0.1"
   d="M60.894,94.197c0,18.363,14.94,33.303,33.303,33.303S127.5,112.561,127.5,94.197   s-14.939-33.302-33.303-33.302S60.894,75.834,60.894,94.197z"
   id="path521" />
	<path
   opacity="0.15"
   d="M61.894,94.197c0,17.812,14.491,32.303,32.303,32.303c17.812,0,32.303-14.491,32.303-32.303   c0-17.811-14.491-32.302-32.303-32.302C76.385,61.896,61.894,76.387,61.894,94.197z"
   id="path523" />
	
		<circle
   sodipodi:ry="8.0010004"
   sodipodi:rx="8.0010004"
   sodipodi:cx="143.99899"
   sodipodi:cy="-96.000999"
   opacity="0.2"
   cx="94.197"
   cy="94.198"
   r="31.302"
   id="circle525">
	</circle>
	
		<linearGradient
   id="XMLID_9_"
   gradientUnits="userSpaceOnUse"
   x1="8.668"
   y1="117.332"
   x2="52.9364"
   y2="73.0636"
   gradientTransform="matrix(-1 0 0 -1 127 188.3984)">
		<stop
   offset="0"
   style="stop-color:#00D900"
   id="stop528" />
		<stop
   offset="0.5089"
   style="stop-color:#00BF00"
   id="stop530" />
		<stop
   offset="1"
   style="stop-color:#008C00"
   id="stop532" />
	</linearGradient>
	
		<circle
   sodipodi:ry="8.0010004"
   sodipodi:rx="8.0010004"
   sodipodi:cx="143.99899"
   sodipodi:cy="-96.000999"
   fill="url(#XMLID_9_)"
   cx="96.197"
   cy="93.2"
   r="31.303"
   id="circle534">
	</circle>
	<path
   fill="#FFFFFF"
   d="M94.906,73.149l-3.873,12.529H78.551c-0.57,0-1.07,0.362-1.266,0.896c-0.021,0.137-0.057,0.35-0.08,0.489   c0.011,0.406,0.201,0.796,0.525,1.043l10.156,7.759c0,0-3.867,12.507-3.881,12.556c-0.027,0.194-0.047,0.333-0.062,0.447   c0.009,0.432,0.218,0.837,0.573,1.085c0.485,0.338,1.126,0.325,1.595-0.033c0,0-0.076,0.153-0.141,0.282   c0.596-0.631,2.629-2.184,9.619-7.523l0.607-0.463l10.086,7.702c0.469,0.358,1.109,0.373,1.595,0.035   c0.354-0.247,0.562-0.65,0.572-1.081c-0.022-0.145-0.062-0.408-0.077-0.502c-0.043-0.14-3.864-12.505-3.864-12.505l10.156-7.761   c0.323-0.247,0.514-0.635,0.524-1.041c-0.022-0.138-0.057-0.342-0.08-0.487c-0.194-0.535-0.695-0.898-1.265-0.898h-12.483   L97.49,73.149c-0.177-0.569-0.696-0.952-1.293-0.952S95.082,72.58,94.906,73.149z"
   id="path536" />
</g>
</svg>